<svg xmlns="http://www.w3.org/2000/svg" viewBox="0 0 192 192"><defs><style>.cls-1{fill:#222221;}.cls-2{fill:none;stroke:#222221;stroke-linecap:round;stroke-linejoin:round;stroke-width:8px;}.cls-3{fill:#68a7dd;}.cls-4{fill:#ffec00;}</style></defs><g id="Calque_2" data-name="Calque 2"><path id="path6" class="cls-1" d="M103.55,36h15c0,2.23,0,4.45,0,6.68,3,0,6,0,9,0q0,4.74,0,9.48c-3,0-6,0-8.94,0,0,6.81,0,13.63.09,20.45-3.49.19-7,.6-10.48-.15a5.49,5.49,0,0,1-4.4-5.16c-.33-5-.25-10.09-.24-15.14-2.06,0-4.12,0-6.17,0,0-3.16,0-6.32,0-9.48,2.07,0,4.13,0,6.2-.05,0-2.22,0-4.44,0-6.66Z"/><path id="path8" class="cls-1" d="M37.54,42.21c5.94-.67,12.3-.39,17.66,2.48,2.93,1.46,5.36,4.41,5.19,7.83-.09,6.75.15,13.49.09,20.23-5,0-10,0-15,0,0-2.83,0-5.67,0-8.5a41.87,41.87,0,0,0-6.84,2.27c-1.29.69-2.73,1.83-2.53,3.47a7.64,7.64,0,0,0,1.7,2.75c-4.69,0-9.37,0-14.06,0-1.74.2-3-1.43-3.5-2.89-.43-2.25-.32-4.82,1.17-6.68,2.32-3.13,6.39-4,10-4.76,2.62-.22,5.18-.83,7.79-1.15a25.21,25.21,0,0,0,5.07-1.1,2.17,2.17,0,0,0,.88-3.08,3.52,3.52,0,0,0-2.62-1.52,7.44,7.44,0,0,0-5.43.89,4.23,4.23,0,0,0-1.26,2.74H21.38a13.6,13.6,0,0,1,4.7-8.87C29.26,43.65,33.51,42.74,37.54,42.21Z"/><g id="path10"><path class="cls-1" d="M82.37,46.26c2.25-4,7.57-5,11.63-3.54,0,3.16,0,6.32,0,9.47-2.5.07-5.11-.26-7.51.65a5.42,5.42,0,0,0-3.1,5c-.06,5,0,9.94,0,14.9-5.08-.05-10.17.1-15.25-.07.06-9.95,0-19.9,0-29.85,4.67,0,9.35,0,14,0a10.54,10.54,0,0,0,.21,3.41Z"/></g><path id="path12" class="cls-1" d="M141.94,43.45a29,29,0,0,1,18.26.08,16.57,16.57,0,0,1,8.5,6.24c3.11,4.42,3.68,10.13,3.1,15.38q-13.23,0-26.46,0c0,2.5,0,5,0,7.51-3.74,0-7.48.08-11.21,0a8.29,8.29,0,0,1-2-2.9,19.93,19.93,0,0,1-1.38-15.16,16.57,16.57,0,0,1,11.22-11.1m6.34,8.43a5.43,5.43,0,0,0-3.43,5.49c4.13.05,8.25-.1,12.38-.1a8.24,8.24,0,0,0-1.52-3.87C154,51.2,150.76,51.17,148.28,51.88Z"/><path class="cls-2" d="M24.87,125.82V101H36.41c2.31,0,6.92,1.74,6.92,6.64s-2.3,7.5-6.06,7.5H24.87"/><line class="cls-2" x1="36.12" y1="115.14" x2="43.33" y2="125.82"/><path class="cls-2" d="M24,136.09h9.06a1.72,1.72,0,0,1,1.67,1.28L41,159.18a1.73,1.73,0,0,0,3.26.13L68.61,94.84a2,2,0,0,1,3.73,0l15,40.16a1.74,1.74,0,0,0,1.62,1.1H99"/><path class="cls-2" d="M96.43,125.82V101.29H108c5.07,0,10.1,4.8,10.1,12.41s-4.76,12.12-10.1,12.12Z"/><line class="cls-2" x1="130.48" y1="100.14" x2="130.48" y2="125.82"/><ellipse class="cls-2" cx="155.45" cy="113.12" rx="12.55" ry="12.99"/></g><g id="reperes"><path class="cls-3" d="M176,16V176H16V16H176m1-1H15V177H177V15Z"/><path class="cls-4" d="M168,24V168H24V24H168m1-1H23V169H169V23Z"/></g></svg>