<svg xmlns="http://www.w3.org/2000/svg" viewBox="0 0 192 192"><defs><style>.cls-1{fill:none;stroke:#222221;stroke-miterlimit:10;stroke-width:12px;}.cls-2{fill:#68a7dd;}.cls-3{fill:#ffec00;}</style></defs><g id="Calque_2" data-name="Calque 2"><path class="cls-1" d="M118.89,71.44a2.29,2.29,0,0,0,2.23-2.23V26.13A4.2,4.2,0,0,1,125.25,22h22.1a4.21,4.21,0,0,1,4.13,4.13V95.44a4.22,4.22,0,0,1-4.13,4.14H68.82a2.27,2.27,0,0,0-2.23,2.22v44.35a4.21,4.21,0,0,1-4.13,4.14H40.36a4.21,4.21,0,0,1-4.13-4.14V26.29a4.21,4.21,0,0,1,4.13-4.13h22.1a4.21,4.21,0,0,1,4.13,4.13V68.36a3.07,3.07,0,0,0,2.16,3C68.88,71.39,118.89,71.44,118.89,71.44Z"/><path class="cls-1" d="M155.77,150.13a19.63,19.63,0,1,1-19.87-19.39h.32A19.83,19.83,0,0,1,155.77,150.13Z"/></g><g id="reperes"><path class="cls-2" d="M176,16V176H16V16H176m1-1H15V177H177V15Z"/><path class="cls-3" d="M168,24V168H24V24H168m1-1H23V169H169V23Z"/></g></svg>