<svg id="Calque_2" data-name="Calque 2" xmlns="http://www.w3.org/2000/svg" viewBox="0 0 192 192"><defs><style>.cls-1,.cls-2{fill:none;stroke:#222221;stroke-linecap:round;stroke-linejoin:round;}.cls-1{stroke-width:8px;}.cls-2{stroke-width:12px;}</style></defs><path class="cls-1" d="M134.26,170V90.84a10.52,10.52,0,0,0-3.45-8,9.07,9.07,0,0,0-6.11-2.33L108,80.43v43.38H84.53V58.57h0c13.89,0,29.94-.19,43.83,0,6.69.09,13.06,1.78,18.45,6.07a29.18,29.18,0,0,1,10.79,17,23.86,23.86,0,0,1,.55,4.84l0,83.52Z"/><path class="cls-1" d="M107.92,170h-46a27.18,27.18,0,0,1-16.42-5.74c-6-4.37-9.32-10.4-11-17.44a23.4,23.4,0,0,1-.62-5.34l0-76.76A6.15,6.15,0,0,1,40,58.57h17.8v76.68a30,30,0,0,0,.53,5.61,9.58,9.58,0,0,0,9.07,7.33h40.56Z"/><circle class="cls-1" cx="95.87" cy="31.74" r="9.74"/><path class="cls-2" d="M134.26,170V90.84a10.52,10.52,0,0,0-3.45-8,9.07,9.07,0,0,0-6.11-2.33L108,80.43v43.38H84.53V58.57h0c13.89,0,29.94-.19,43.83,0,6.69.09,13.06,1.78,18.45,6.07a29.18,29.18,0,0,1,10.79,17,23.86,23.86,0,0,1,.55,4.84l0,83.52Z"/><path class="cls-2" d="M107.92,170h-46a27.18,27.18,0,0,1-16.42-5.74c-6-4.37-9.32-10.4-11-17.44a23.4,23.4,0,0,1-.62-5.34l0-76.76A6.15,6.15,0,0,1,40,58.57h17.8v76.68a30,30,0,0,0,.53,5.61,9.58,9.58,0,0,0,9.07,7.33h40.56Z"/><circle class="cls-2" cx="95.87" cy="31.74" r="9.74"/></svg>