<svg xmlns="http://www.w3.org/2000/svg" viewBox="0 0 192 192"><defs><style>.cls-1{fill:#222221;stroke:#222221;stroke-miterlimit:10;stroke-width:5px;}.cls-2{fill:#68a7dd;}.cls-3{fill:#ffec00;}</style></defs><g id="Calque_2" data-name="Calque 2"><path class="cls-1" d="M52.86,129.45c-18,0-33-13.6-34.27-31A33.47,33.47,0,0,1,52,62.55H93.33a5.66,5.66,0,0,1,5.4,7.38L85.21,112.31a24.51,24.51,0,0,1-23.4,17.1h-9Zm-.92-60.1A26.69,26.69,0,0,0,25.31,98c1,13.87,13.06,24.7,27.51,24.7h8.91a17.79,17.79,0,0,0,17-12.41l13.06-41Z"/><path class="cls-1" d="M98.67,129.45a5.66,5.66,0,0,1-5.39-7.38l14.89-46.65a18.44,18.44,0,0,1,17.6-12.87h13.37c18,0,33.05,13.6,34.27,31A33.47,33.47,0,0,1,140,129.45Zm27.1-60.1a11.64,11.64,0,0,0-11.14,8.15l-14.45,45.18H140A26.67,26.67,0,0,0,166.65,94c-1-13.87-13.06-24.7-27.51-24.7H125.77Z"/></g><g id="reperes"><path class="cls-2" d="M176,16V176H16V16H176m1-1H15V177H177V15Z"/><path class="cls-3" d="M168,24V168H24V24H168m1-1H23V169H169V23Z"/></g></svg>