<svg xmlns="http://www.w3.org/2000/svg" viewBox="0 0 192 192"><defs><style>.cls-1{fill:none;stroke:#000;stroke-linecap:round;stroke-linejoin:round;stroke-width:8px;}.cls-2{fill:#68a7dd;}.cls-3{fill:#ffec00;}</style></defs><g id="Calque_2" data-name="Calque 2"><path class="cls-1" d="M102,32.88l69.07,119.44a6.8,6.8,0,0,1-5.89,10.2H26.81a6.8,6.8,0,0,1-5.88-10.21L90.25,32.87A6.79,6.79,0,0,1,102,32.88Z"/><polygon class="cls-1" points="122.61 162.52 70.5 68.51 122.61 68.51 68.24 162.52 42.19 116.08 149.79 116.08 122.61 162.52"/></g><g id="reperes"><path class="cls-2" d="M176,16V176H16V16H176m1-1H15V177H177V15Z"/><path class="cls-3" d="M168,24V168H24V24H168m1-1H23V169H169V23Z"/></g></svg>