<svg xmlns="http://www.w3.org/2000/svg" viewBox="0 0 192 192"><defs><style>.cls-1{fill:#050504;}.cls-2{fill:#68a7dd;}.cls-3{fill:#ffec00;}</style></defs><g id="Calque_2" data-name="Calque 2"><path class="cls-1" d="M66.94,58.5V49.39a5.83,5.83,0,0,0-11.65,0V58.5Z"/><path class="cls-1" d="M87.74,130.88a49.71,49.71,0,0,1-9.95,2c-2.72.19-5.67-.38-7.53-2.36-2.64-2.83-3.32-8.72-3.32-12.46V88.5H55.29v29.74c0,.12,0,.25,0,.38.5,7.76,2,17.32,9.31,22.44a20.29,20.29,0,0,0,12,3.4A52.19,52.19,0,0,0,91,142.06a5.82,5.82,0,1,0-3.25-11.18Z"/><path class="cls-1" d="M156.41,130.88c-8.15,2.36-13.68,2.58-16.44.65-2.44-1.72-3.87-6.13-4.36-13.48V111.7a14.79,14.79,0,0,1-11.65-.64v7.18c0,.12,0,.25,0,.38.51,7.76,2,17.32,9.31,22.44a20.32,20.32,0,0,0,12.05,3.4,52.19,52.19,0,0,0,14.33-2.4,5.82,5.82,0,1,0-3.25-11.18Z"/><path class="cls-1" d="M153.12,79.5h-48.2a6,6,0,0,1,0-12h48.2a6,6,0,0,1,0,12Z"/><path class="cls-1" d="M129.79,103.6a6,6,0,0,1-6-6V49.4a6,6,0,0,1,12,0V97.6A6,6,0,0,1,129.79,103.6Z"/><path class="cls-1" d="M85.22,79.5H37a6,6,0,0,1,0-12h48.2a6,6,0,0,1,0,12Z"/></g><g id="reperes"><path class="cls-2" d="M176,16V176H16V16H176m1-1H15V177H177V15Z"/><path class="cls-3" d="M168,24V168H24V24H168m1-1H23V169H169V23Z"/></g></svg>