<svg width="24" height="24" viewBox="0 0 24 24" fill="none" xmlns="http://www.w3.org/2000/svg">
<path d="M16.5373 19.507L21 17.0104V6.99312L16.5373 4.49656C14.0828 3.12345 12.041 2 12 2C11.959 2 9.91725 3.12345 7.46274 4.49656L3 6.99312V8.95531L7.46274 11.4519C9.91725 12.825 11.9593 13.9484 12.0006 13.9484C12.0419 13.9484 13.263 13.2839 14.7141 12.4717C16.1651 11.6594 17.3631 10.9949 17.3762 10.9949C17.3893 10.9949 17.3995 11.9086 17.3989 13.0254L17.3978 15.056L14.7539 16.5328C13.2999 17.345 12.0764 18.0181 12.0352 18.0285C11.9939 18.0389 10.7712 17.3819 9.31798 16.5685C7.86476 15.7551 6.6421 15.0896 6.60096 15.0896C6.46749 15.0896 3.13202 16.9838 3.15382 17.0473C3.18056 17.1251 11.8648 21.9952 11.9854 22C12.0344 22.002 14.0828 20.8801 16.5373 19.507ZM10.1493 8.99221C9.18856 8.45077 8.40238 7.99267 8.40225 7.97421C8.40186 7.91506 11.8921 5.994 12 5.994C12.1077 5.994 15.598 7.91492 15.598 7.97421C15.598 8.027 12.1192 9.95312 12.0015 9.96553C11.9436 9.97163 11.1101 9.53364 10.1493 8.99221Z" fill="black"/>
</svg>
