<svg xmlns="http://www.w3.org/2000/svg" width="192" height="192" fill="none" viewBox="0 0 192 192"><path stroke="#000" stroke-linecap="round" stroke-linejoin="round" stroke-width="12" d="M143 143.998a26.997 26.997 0 0 0 26.915-24.979 27 27 0 0 0-5.809-18.847 27 27 0 0 0-17.075-9.87 36 36 0 0 0-69.826-17.536 18 18 0 0 0-30.91 15.479A28 28 0 0 0 50 143.999h93"/><path stroke="#000" stroke-linecap="round" stroke-linejoin="round" stroke-width="10" d="M83 123h40M90 92l13 13m0 0 13-13m-13 13V79m42-44h26m-13-13v26"/></svg>