<svg width="192" height="192" viewBox="0 0 192 192" fill="none" xmlns="http://www.w3.org/2000/svg"><path d="M82.936 91.525c-9.663-.714-18.471-2.206-25.452-4.31-6.98-2.105-11.86-4.74-14.1-7.616-2.24-2.875-1.754-5.878 1.407-8.676 3.16-2.798 8.87-5.283 16.498-7.18m56.675-2.36c7.785 1.027 14.639 2.586 20.002 4.548 5.363 1.962 9.082 4.273 10.854 6.742 1.772 2.47 1.546 5.03-.66 7.468-2.206 2.439-6.328 4.689-12.03 6.565" stroke="#000" stroke-width="12" stroke-linecap="round" stroke-linejoin="round"/><path d="m42 76 15 91s15 3 39 3 39-3 39-3l1.875-11.375M150 76l-3.75 22.75-.938 5.688M140 133 83 53" stroke="#000" stroke-width="12" stroke-linecap="round" stroke-linejoin="round"/><path d="m64.044 21 4.494 4.882 5.395-3.825-3.178 5.854L76 31.945l-6.458-1.263L67.389 37l-.814-6.635-6.575-.13 5.955-2.837L64.045 21Z" stroke="#000" stroke-width="10" stroke-linecap="round" stroke-linejoin="round"/></svg>