<svg xmlns="http://www.w3.org/2000/svg" width="192" height="192" fill="none" viewBox="0 0 192 192"><path stroke="#000" stroke-linecap="round" stroke-linejoin="round" stroke-width="14" d="M151.433 60.147a60.34 60.34 0 0 1 3.414 34.768 60.3 60.3 0 0 1-9.86 23.005 39.3 39.3 0 0 0-23.693 11.34 39.52 39.52 0 0 0-11.524 27.902v5.919c0 3.269-2.642 5.919-5.901 5.919H88.131c-3.26 0-5.901-2.65-5.901-5.919v-5.919a39.6 39.6 0 0 0-2.995-15.1 39.5 39.5 0 0 0-8.53-12.802 39.3 39.3 0 0 0-12.763-8.554 39.3 39.3 0 0 0-10.93-2.786 60.3 60.3 0 0 1-9.86-23.005 60.34 60.34 0 0 1 3.415-34.768 60.14 60.14 0 0 1 22.099-27.006A59.9 59.9 0 0 1 96 23a59.87 59.87 0 0 1 33.334 10.141 60.14 60.14 0 0 1 22.099 27.006"/></svg>