<svg xmlns="http://www.w3.org/2000/svg" width="192" height="192" fill="none"><path stroke="#000" stroke-linecap="round" stroke-linejoin="round" stroke-width="12" d="M72 86v20"/><circle cx="86" cy="106" r="14" stroke="#000" stroke-linecap="round" stroke-linejoin="round" stroke-width="12"/><path stroke="#000" stroke-linecap="round" stroke-linejoin="round" stroke-width="12" d="M72 86a14 14 0 0 1 23.9-9.9M36 96c2.613 0 5.174-.627 7.393-1.81 2.219-1.182 4.008-2.874 5.163-4.882 1.156-2.01 1.633-4.255 1.377-6.484-.257-2.23-1.235-4.352-2.826-6.13-1.59-1.776-3.73-3.136-6.175-3.925a16.2 16.2 0 0 0-7.663-.538c-2.563.437-4.932 1.48-6.84 3.01-1.906 1.532-3.276 3.49-3.952 5.653m0 30.212c.676 2.163 2.046 4.121 3.953 5.652s4.276 2.574 6.839 3.011 5.217.251 7.663-.538c2.445-.789 4.584-2.149 6.175-3.926 1.59-1.777 2.57-3.9 2.826-6.129s-.221-4.475-1.377-6.483-2.944-3.7-5.163-4.883S38.613 96 36 96"/><ellipse cx="138" cy="96" stroke="#000" stroke-linecap="round" stroke-linejoin="round" stroke-width="12" rx="17" ry="24"/><circle cx="168" cy="64" r="4" stroke="#000" stroke-linecap="round" stroke-linejoin="round" stroke-width="8"/></svg>