<svg xmlns="http://www.w3.org/2000/svg" width="192" height="192" fill="none"><path stroke="#000" stroke-linecap="round" stroke-linejoin="round" stroke-width="12" d="M71.5 85v20"/><circle cx="86.5" cy="107" r="15" stroke="#000" stroke-linecap="round" stroke-linejoin="round" stroke-width="12"/><path stroke="#000" stroke-linecap="round" stroke-linejoin="round" stroke-width="12" d="M71.5 85a15 15 0 0 1 24-12M22 79.635c.725-2.343 2.192-4.465 4.235-6.123s4.582-2.789 7.328-3.262a17.2 17.2 0 0 1 8.21.583c2.62.855 4.912 2.328 6.616 4.253s2.753 4.225 3.028 6.64-.237 4.848-1.475 7.024-3.155 4.008-5.532 5.29C42.032 95.32 39.289 96 36.489 96c2.8 0 5.543.68 7.92 1.96 2.378 1.282 4.295 3.114 5.533 5.29s1.75 4.61 1.475 7.024c-.275 2.415-1.324 4.715-3.028 6.64s-3.996 3.398-6.616 4.253a17.2 17.2 0 0 1-8.21.583c-2.746-.473-5.285-1.603-7.328-3.262-2.043-1.658-3.51-3.78-4.235-6.123"/><ellipse cx="138" cy="96" stroke="#000" stroke-linecap="round" stroke-linejoin="round" stroke-width="12" rx="17" ry="26"/><circle cx="168" cy="64" r="4" stroke="#000" stroke-linecap="round" stroke-linejoin="round" stroke-width="8"/></svg>