<svg width="192" height="192" fill="none" xmlns="http://www.w3.org/2000/svg"><path d="M170 94c0-19.096-7.796-37.41-21.674-50.912C134.448 29.586 115.626 22 96 22c-19.626 0-38.448 7.586-52.326 21.088C29.796 56.591 22 74.904 22 94m59 60.25c0 8.698 6.94 15.75 15.5 15.75 8.56 0 15.5-7.052 15.5-15.75s-6.94-15.75-15.5-15.75c-8.56 0-15.5 7.052-15.5 15.75Zm0 0v-22.5c0-3.115.91-6.16 2.612-8.75a15.557 15.557 0 0 1 6.956-5.801 15.27 15.27 0 0 1 8.956-.896 15.4 15.4 0 0 1 6.976 3.413M26 125.191c.762-2.479 2.304-4.722 4.452-6.477 2.148-1.754 4.816-2.949 7.703-3.45 2.887-.5 5.876-.287 8.63.617 2.755.904 5.165 2.462 6.957 4.499 1.791 2.036 2.894 4.468 3.182 7.022.288 2.554-.248 5.128-1.55 7.429-1.302 2.302-3.316 4.24-5.816 5.596-2.5 1.355-5.383 2.073-8.327 2.073 2.944 0 5.828.718 8.327 2.073 2.5 1.356 4.514 3.294 5.816 5.596 1.301 2.301 1.838 4.875 1.55 7.429-.288 2.554-1.39 4.986-3.182 7.022-1.792 2.037-4.202 3.595-6.956 4.499a17.967 17.967 0 0 1-8.631.617c-2.887-.501-5.555-1.696-7.703-3.45-2.148-1.755-3.69-3.998-4.452-6.477M165 115h-25a6 6 0 0 0-6 6v10.917a6 6 0 0 0 6 6h8.926c2.822 0 5.593.741 8.037 2.149a16.05 16.05 0 0 1 5.883 5.871 16.016 16.016 0 0 1 0 16.042 16.046 16.046 0 0 1-5.883 5.872 16.098 16.098 0 0 1-16.074 0 16.056 16.056 0 0 1-5.884-5.872" stroke="#000" stroke-width="12" stroke-linecap="round" stroke-linejoin="round"/></svg>