<svg xmlns="http://www.w3.org/2000/svg" width="192" height="192" fill="none"><path stroke="#000" stroke-linecap="round" stroke-linejoin="round" stroke-width="12" d="M170 94c0-19.096-7.796-37.41-21.674-50.912S115.626 22 96 22s-38.448 7.586-52.326 21.088S22 74.904 22 94m59 60.25c0 8.698 6.94 15.75 15.5 15.75s15.5-7.052 15.5-15.75-6.94-15.75-15.5-15.75S81 145.552 81 154.25m0 0v-22.5c0-3.115.91-6.16 2.612-8.75a15.56 15.56 0 0 1 6.956-5.801 15.27 15.27 0 0 1 8.956-.896 15.4 15.4 0 0 1 6.976 3.413M26 125.191c.762-2.479 2.304-4.722 4.452-6.477s4.816-2.949 7.703-3.45c2.887-.5 5.876-.287 8.63.617s5.165 2.462 6.957 4.499 2.894 4.468 3.182 7.022-.248 5.128-1.55 7.429-3.316 4.24-5.816 5.596-5.383 2.073-8.327 2.073c2.944 0 5.828.718 8.327 2.073 2.5 1.356 4.514 3.294 5.816 5.596s1.838 4.875 1.55 7.429-1.39 4.986-3.182 7.022-4.202 3.595-6.956 4.499a18 18 0 0 1-8.631.617c-2.887-.501-5.555-1.696-7.703-3.45s-3.69-3.998-4.452-6.477M165 115h-25a6 6 0 0 0-6 6v10.917a6 6 0 0 0 6 6h8.926c2.822 0 5.593.741 8.037 2.149a16.05 16.05 0 0 1 5.883 5.871 16.02 16.02 0 0 1 0 16.042 16.05 16.05 0 0 1-5.883 5.872 16.1 16.1 0 0 1-16.074 0 16.06 16.06 0 0 1-5.884-5.872"/></svg>