<svg xmlns="http://www.w3.org/2000/svg" width="192" height="192" fill="none"><path stroke="#000" stroke-linecap="round" stroke-linejoin="round" stroke-width="10" d="M96 144v23m0-142v23m47 48h24M25 96h24"/><path stroke="#000" stroke-linecap="round" stroke-linejoin="round" stroke-width="12" d="M25 45c0-11.046 8.954-20 20-20h102c11.046 0 20 8.954 20 20v102c0 11.046-8.954 20-20 20H45c-11.046 0-20-8.954-20-20z"/><path stroke="#000" stroke-linecap="round" stroke-linejoin="round" stroke-width="10" d="M51.791 57.17c.043-4.103 3.658-7.331 8.022-7.164l73.599 2.828c4.248.164 7.621 3.49 7.588 7.486l-.619 74.494c-.033 4.069-3.581 7.291-7.909 7.183L58.7 140.163c-4.3-.106-7.742-3.462-7.7-7.503z"/><path stroke="#000" stroke-linecap="round" stroke-linejoin="round" stroke-width="10" d="m82.154 120.462 1.5-42.974a6 6 0 0 1 6.207-5.787l9.993.349a14 14 0 0 1-.977 27.983l-15.99-.559"/></svg>