<svg xmlns="http://www.w3.org/2000/svg" width="192" height="192" fill="none"><path stroke="#000" stroke-linecap="round" stroke-linejoin="round" stroke-width="10" d="M96 144v23m0-142v23m47 48h24M25 96h24"/><path stroke="#000" stroke-linecap="round" stroke-linejoin="round" stroke-width="12" d="M25 45c0-11.046 8.954-20 20-20h102c11.046 0 20 8.954 20 20v102c0 11.046-8.954 20-20 20H45c-11.046 0-20-8.954-20-20z"/><path stroke="#000" stroke-linecap="round" stroke-linejoin="round" stroke-width="10" d="M46.088 63.796c-.647-4.123 2.352-7.955 6.655-8.502l72.577-9.229c4.189-.532 8.052 2.253 8.69 6.266l11.9 74.832c.65 4.087-2.285 7.901-6.542 8.502l-72.58 10.255c-4.23.597-8.165-2.204-8.802-6.266z"/><path stroke="#000" stroke-linecap="round" stroke-linejoin="round" stroke-width="10" d="m69 83 16 34 8-37 19 33 5-36"/></svg>