<svg width="192" height="192" fill="none" xmlns="http://www.w3.org/2000/svg"><path d="M22 109.694a6 6 0 0 1 2.014-4.484l86.281-76.694A6 6 0 0 1 114.281 27H142a6 6 0 0 1 6 6v68a6 6 0 0 0 6 6h10a6 6 0 0 1 6 6v16a6 6 0 0 1-6 6h-10a6 6 0 0 0-6 6v18a6 6 0 0 1-6 6h-24a6 6 0 0 1-6-6v-18a6 6 0 0 0-6-6H28a6 6 0 0 1-6-6v-19.306Z" stroke="#000" stroke-width="12" stroke-linecap="round" stroke-linejoin="round"/><path d="M112 101V69l-42 38h36a6 6 0 0 0 6-6Z" stroke="#000" stroke-width="12" stroke-linecap="round" stroke-linejoin="round"/></svg>