<svg width="192" height="192" viewBox="0 0 192 192" fill="none" xmlns="http://www.w3.org/2000/svg">
<path d="M120.026 36H99.3725C95.2042 36 91.6437 39.1562 90.9457 43.4701L89.9777 49.452C89.0914 54.9295 93.1119 59.9274 98.4046 59.9274H106.032C111.325 59.9274 115.345 64.9254 114.459 70.4028L113.491 76.3847C112.793 80.6986 109.232 83.8548 105.064 83.8548H84.4108" stroke="black" stroke-width="12" stroke-linecap="round" stroke-linejoin="round"/>
<path d="M170 36H149.347C145.179 36 141.618 39.1562 140.92 43.4701L139.952 49.452C139.066 54.9295 143.086 59.9274 148.379 59.9274H156.006C161.299 59.9274 165.319 64.9254 164.433 70.4028L163.465 76.3847C162.767 80.6986 159.207 83.8548 155.038 83.8548H134.385" stroke="black" stroke-width="12" stroke-linecap="round" stroke-linejoin="round"/>
<path d="M35.1879 132.073L32.9339 145.466C32.0092 150.961 36.0357 156 41.3512 156H52.9773C57.1244 156 60.6731 152.875 61.3946 148.588L62.4012 142.606C63.326 137.111 59.2995 132.073 53.984 132.073H35.1879ZM35.1879 132.073L39.5 106M35.1879 132.073H22" stroke="black" stroke-width="12" stroke-linecap="round" stroke-linejoin="round"/>
<path d="M114.303 132.073L116.48 118.621C117.366 113.143 113.345 108.145 108.053 108.145H97.5216C93.3533 108.145 89.7928 111.301 89.0948 115.615L86.4317 132.073M114.303 132.073L111.64 148.53C110.942 152.844 107.381 156 103.213 156H92.6818C87.3892 156 83.3686 151.002 84.255 145.525L86.4317 132.073M114.303 132.073H86.4317" stroke="black" stroke-width="12" stroke-linejoin="round"/>
<path d="M164.277 132.073L166.454 118.621C167.34 113.143 163.32 108.145 158.027 108.145H147.496C143.327 108.145 139.767 111.301 139.069 115.615L136.406 132.073M164.277 132.073L161.614 148.53C160.916 152.844 157.356 156 153.187 156H142.656C137.363 156 133.343 151.002 134.229 145.525L136.406 132.073M164.277 132.073H136.406" stroke="black" stroke-width="12" stroke-linejoin="round"/>
<path d="M61 68H51.2662C42.6034 68.0785 40.8676 70.3142 38.7662 75L36 82H45.7338C54.3966 81.9215 56.1324 79.6858 58.2338 75L61 68Z" stroke="black" stroke-width="10" stroke-linejoin="round"/>
</svg>
