<?xml version="1.0" encoding="utf-8"?>
<!-- Generator: Adobe Illustrator 27.0.0, SVG Export Plug-In . SVG Version: 6.00 Build 0)  -->
<svg version="1.1" id="图层_1" xmlns="http://www.w3.org/2000/svg" xmlns:xlink="http://www.w3.org/1999/xlink" x="0px" y="0px"
	 width="192px" height="192px" viewBox="0 0 192 192" style="enable-background:new 0 0 192 192;" xml:space="preserve">
<style type="text/css">
	.st0{fill:none;stroke:#000000;stroke-width:12;stroke-linecap:round;stroke-linejoin:round;stroke-miterlimit:10;}
</style>
<path class="st0" d="M96.2,22.5c0,0-38.3,66.4,0,132.8"/>
<path class="st0" d="M96.2,22.5c0,0,38.3,66.4,0,132.8"/>
<path class="st0" d="M96.2,22.5c0,0,76.1,9.1,63.4,87.8"/>
<path class="st0" d="M28.5,139.7c0,0,76.6-0.1,115.1-66.4"/>
<path class="st0" d="M28.5,139.7c0,0,38.4-66.3,115.1-66.4"/>
<path class="st0" d="M163.9,139.6c0,0-38.4-66.3-115.1-66.4"/>
<path class="st0" d="M163.9,139.7c0,0-76.6-0.1-115.1-66.4"/>
<path class="st0" d="M28.5,139.7c0,0-30.1-70.5,44.3-98.8"/>
<path class="st0" d="M163.8,139.7c0,0-46,61.3-107.7,11.1"/>
<circle cx="96.2" cy="100.6" r="5.3"/>
</svg>
