<?xml version="1.0" encoding="utf-8"?>
<!-- Generator: Adobe Illustrator 27.0.0, SVG Export Plug-In . SVG Version: 6.00 Build 0)  -->
<svg version="1.1" id="图层_1" xmlns="http://www.w3.org/2000/svg" xmlns:xlink="http://www.w3.org/1999/xlink" x="0px" y="0px"
	 width="192px" height="192px" viewBox="0 0 192 192" style="enable-background:new 0 0 192 192;" xml:space="preserve">
<style type="text/css">
	.st0{fill:none;stroke:#000000;stroke-width:10;stroke-linecap:round;stroke-linejoin:round;stroke-miterlimit:10;}
	.st1{fill:none;stroke:#000000;stroke-width:6;stroke-linecap:round;stroke-linejoin:round;stroke-miterlimit:10;}
</style>
<path class="st0" d="M96,25c0,0-39.3,68.2,0,136.3"/>
<path class="st0" d="M96,25c0,0,39.3,68.2,0,136.3"/>
<path class="st0" d="M31.1,137.5c0,0,78.8,0,118-68.1"/>
<path class="st0" d="M31.1,137.5c0,0,39.4-68.2,118-68.1"/>
<path class="st0" d="M160.9,137.5c0,0-39.4-68.2-118-68.1"/>
<path class="st0" d="M160.9,137.5c0,0-78.8,0-118-68.1"/>
<circle class="st1" cx="96" cy="100" r="3"/>
<path class="st0" d="M21,100"/>
<path class="st0" d="M96,175"/>
<path class="st0" d="M96,25c41.4,0,75,33.6,75,75"/>
<path class="st0" d="M31.1,137.5c-20.8-35.9-8.4-81.8,27.4-102.4"/>
<path class="st0" d="M160.9,137.5c-20.8,35.9-66.6,48.2-102.4,27.4"/>
</svg>
