<svg xmlns="http://www.w3.org/2000/svg" width="192" height="192" fill="none" viewBox="0 0 192 192">
  <path fill="#000" d="M126.8 99.647c-6.857 0-13.716.004-20.573-.009-.405 0-.528.098-.514.505.035.954-.052 1.916.232 2.849.72 2.37 2.827 3.924 5.355 3.926 5.688.006 11.378.002 17.067.002 2.662 0 5.323-.006 7.985.002 1.776.005 3.269-.614 4.435-1.968.386-.449.879-.559 1.567-.423 1.477.292 2.992.301 4.465-.006 1.235-.259 2.051.687 1.598 1.721-1.904 4.347-5.175 6.98-9.875 7.795-.779.135-1.565.157-2.355.156-8.351-.004-16.701-.002-25.052-.003-6.772 0-12.367-5.316-12.67-12.08-.124-2.77-.04-5.55-.033-8.325.003-1.449-.06-2.9.048-4.349.406-5.435 4.56-10.187 9.888-11.318a14.664 14.664 0 0 1 3.058-.316c8.366-.002 16.73-.004 25.095.002 2.236.002 4.37.48 6.304 1.62 4.23 2.491 6.427 6.216 6.533 11.128.051 2.364.013 4.73.008 7.096-.003 1.281-.742 1.995-2.034 1.995H126.8Zm-2.902-7.277h12.713c1.689 0 3.378-.01 5.067.006.355.004.43-.115.391-.504a5.643 5.643 0 0 1-.014-.964c.227-3.102-2.276-5.793-5.331-5.796-8.56-.01-17.119-.006-25.68.002-2.151.001-4.177 1.455-4.954 3.464-.425 1.098-.358 2.232-.385 3.367-.01.364.116.431.453.43 5.913-.01 11.826-.007 17.74-.006Zm-30.303-.485v11.361c.002 5.199-3.568 9.618-8.647 10.702-.773.164-1.554.249-2.345.248-2.337-.003-4.674-.002-7.012-.001-2.657 0-5.039-.796-7.094-2.495-.295-.244-.454-.203-.728.019-2.007 1.625-4.311 2.453-6.893 2.472-2.45.017-4.9.005-7.35.004-5.587-.002-10.345-4.381-10.809-9.949-.034-.406-.05-.815-.051-1.223-.003-7.728-.002-15.457-.002-23.186 0-1.257.722-2.01 1.969-2.025 1.126-.014 2.253-.013 3.38-.002 1.214.013 1.955.78 1.955 2l-.001 23.314c0 2.285 1.679 3.89 4.018 3.792 2.16-.092 4.32-.063 6.479.002 2.387.072 4.037-1.516 4.037-3.863 0-7.744.003-15.486-.006-23.23 0-.68.2-1.228.737-1.663.351-.285.76-.342 1.174-.349 1.14-.018 2.28-.018 3.421-.004 1.218.015 1.958.783 1.958 1.996v23.313c0 2.289 1.674 3.897 4 3.799a82.704 82.704 0 0 1 6.494 0c2.377.086 4.036-1.51 4.036-3.845 0-7.756 0-15.514.002-23.27 0-1.248.74-1.99 1.993-1.995a419.82 419.82 0 0 1 3.253 0c1.314.006 2.031.732 2.031 2.042v12.036h.001Z"/>
</svg>
