<svg width="192" height="192" viewBox="0 0 192 192" fill="none" xmlns="http://www.w3.org/2000/svg"><path d="M21.996 26.26A23.302 23.302 0 0 1 45.34 49.64v116.244" stroke="#000" stroke-width="12" stroke-linecap="round"/><path d="M169.886 165.883H82.49a6 6 0 0 1-6-6v-17.27a46.5 46.5 0 0 1 13.682-32.92 46.786 46.786 0 0 1 33.022-13.629h23.482a22.97 22.97 0 0 0 21.592-14.445A23.153 23.153 0 0 0 170 72.68a46.43 46.43 0 0 0-11.018-30.04 46.667 46.667 0 0 0-79.805 14.7 51.447 51.447 0 0 0-2.014 7.688" stroke="#000" stroke-width="12" stroke-linecap="round" stroke-linejoin="round"/></svg>