<svg width="192" height="192" fill="none" xmlns="http://www.w3.org/2000/svg"><circle cx="76" cy="65" r="4" stroke="#000" stroke-width="8" stroke-linecap="round" stroke-linejoin="round"/><circle cx="116" cy="65" r="4" stroke="#000" stroke-width="8" stroke-linecap="round" stroke-linejoin="round"/><path d="m56 22 12 16m68-16-12 16M34 96c0 34.242 27.758 62 62 62a62.39 62.39 0 0 0 11.636-1.09L106 170c10.541-5.27 16.624-13.627 19.855-19.648C145.016 139.804 158 119.418 158 96c0-34.242-27.758-62-62-62-34.242 0-62 27.758-62 62Zm120-7H38" stroke="#000" stroke-width="12" stroke-linecap="round" stroke-linejoin="round"/></svg>