<?xml version="1.0" encoding="UTF-8" standalone="no"?>
<svg
   width="192"
   height="192"
   viewBox="0 0 192 192"
   fill="none"
   version="1.1"
   id="svg4"
   xml:space="preserve"
   xmlns="http://www.w3.org/2000/svg"
   xmlns:svg="http://www.w3.org/2000/svg"><defs
     id="defs4" /><g
     id="g11"
     transform="matrix(1.0595102,0,0,1.0597123,-5.0740622,-6.7078064)"
     style="fill:none;stroke-width:0.943743"><g
       id="g1"
       style="fill:none"><g
         id="g9"
         transform="translate(1.5165949,0.486146)"
         style="fill:none;stroke-width:0.943743"><path
           style="fill:none;fill-opacity:1;stroke:#000000;stroke-width:11.3249;stroke-linecap:round;stroke-linejoin:round;stroke-dasharray:none;stroke-dashoffset:0;stroke-opacity:1"
           d="m 149.9863,64.880808 2.41206,5.788944"
           id="dot-4" /><path
           style="fill:none;fill-opacity:1;stroke:#000000;stroke-width:11.3249;stroke-linecap:round;stroke-linejoin:round;stroke-dasharray:none;stroke-dashoffset:0;stroke-opacity:1"
           d="m 123.24623,38.170854 4.91733,3.892266"
           id="dot_3" /></g><g
         id="g10"
         style="fill:none;stroke-width:0.943743"
         transform="translate(-1.7141453)"><path
           style="fill:none;fill-opacity:1;stroke:#000000;stroke-width:11.3249;stroke-linecap:round;stroke-linejoin:round;stroke-dasharray:none;stroke-dashoffset:0;stroke-opacity:1"
           d="m 67.7451,38.656881 -4.917335,3.892266"
           id="dot_2" /><path
           style="fill:none;fill-opacity:1;stroke:#000000;stroke-width:11.3249;stroke-linecap:round;stroke-linejoin:round;stroke-dasharray:none;stroke-dashoffset:0;stroke-opacity:1"
           d="m 41.005026,65.366835 -2.412061,5.788944"
           id="dot_1" /></g><path
         style="fill:none;fill-opacity:1;stroke:#000000;stroke-width:11.3249;stroke-linecap:round;stroke-linejoin:round;stroke-dasharray:none;stroke-dashoffset:0;stroke-opacity:1"
         d="M 85,80 H 65 l 30.39697,38 30.39706,-38 h -19.9998 V 30 H 85 Z"
         id="path10" /><path
         style="fill:none;fill-opacity:1;stroke:#000000;stroke-width:11.3249;stroke-linecap:round;stroke-linejoin:round;stroke-dasharray:none;stroke-dashoffset:0;stroke-opacity:1"
         d="M 50,100 C 45.836486,93.562382 25.552764,96.140703 25.552764,96.140703 37.202058,176.02455 144.85884,196.51643 165.24121,95.417085 c 0,0 -20.42243,-1.94256 -24.44685,4.582915 C 111.39067,147.67721 81.976384,149.44184 50,100 Z"
         id="bend" /></g></g></svg>
