<svg xmlns="http://www.w3.org/2000/svg" width="192" height="192" fill="none" viewBox="0 0 192 192"><path stroke="#000" stroke-linecap="round" stroke-linejoin="round" stroke-width="12" d="M170.011 96.668c-2.938 92.166-139.37 103.433-148.022-.639.749.673 31.131-3.636 36.375 7.388 22.708 47.735 63.5 30.895 74.968.723 4.19-11.022 22.945-7.743 36.679-7.472"/><path stroke="#000" stroke-linecap="round" stroke-linejoin="round" stroke-width="12" d="M80.041 79.19a6 6 0 0 0 6-6V28.01a6 6 0 0 1 6-6h9.191a6 6 0 0 1 6 6v45.18a6 6 0 0 0 6 6h6.256l-23.339 32.037L72.811 79.19zM64.663 36.172l-5.699 5.958M39.196 63.845l-3.968 7.235m93.383-34.908 5.698 5.958m19.769 21.715 3.967 7.235"/></svg>