<svg width="192" height="192" viewBox="0 0 192 192" fill="none" xmlns="http://www.w3.org/2000/svg">
<path d="M170.011 96.6682C167.073 188.834 30.6407 200.101 21.9893 96.0294C22.7375 96.7023 53.1202 92.3933 58.3644 103.417C81.0718 151.152 121.864 134.312 133.332 104.14C137.522 93.1181 156.277 96.3968 170.011 96.6682Z" stroke="black" stroke-width="12" stroke-linecap="round" stroke-linejoin="round"/>
<path d="M80.0412 79.1901C83.3549 79.1901 86.0412 76.5038 86.0412 73.1901V28.0108C86.0412 24.6971 88.7275 22.0108 92.0412 22.0108H101.232C104.546 22.0108 107.232 24.6971 107.232 28.0108V73.1901C107.232 76.5038 109.918 79.1901 113.232 79.1901H119.488L96.1493 111.227L72.811 79.1901H80.0412Z" stroke="black" stroke-width="12" stroke-linecap="round" stroke-linejoin="round"/>
<path d="M64.6628 36.1718L58.9644 42.1297" stroke="black" stroke-width="12" stroke-linecap="round" stroke-linejoin="round"/>
<path d="M39.1958 63.8448L35.228 71.0799" stroke="black" stroke-width="12" stroke-linecap="round" stroke-linejoin="round"/>
<path d="M128.611 36.1718L134.309 42.1297" stroke="black" stroke-width="12" stroke-linecap="round" stroke-linejoin="round"/>
<path d="M154.078 63.8448L158.045 71.0799" stroke="black" stroke-width="12" stroke-linecap="round" stroke-linejoin="round"/>
</svg>
