<svg width="192" height="192" fill="none" xmlns="http://www.w3.org/2000/svg"><path d="M96.5 50C82.5 50 75 39 55 39S22 67 22 96s15 74 41 74c18 0 17-6 33-6s15 6 33 6c23 0 41-53 41-82 0-22.542-9.646-37.834-19-43.526-9.354-5.693-19.2-6.974-19.2-6.974" stroke="#000" stroke-width="12" stroke-linecap="round" stroke-linejoin="round"/><path d="M92 21s5 18 5 30h-1m43-25.407C122.941 54.176 109.353 39.884 97 51c0 0 0-38.111 42-25.407Z" stroke="#000" stroke-width="10" stroke-linecap="round" stroke-linejoin="round"/><path d="m68 143 26.13-69.056c.651-1.723 3.089-1.723 3.74 0L124 143m-48-18h40" stroke="#000" stroke-width="12" stroke-linecap="round" stroke-linejoin="round"/></svg>