<?xml version="1.0" encoding="UTF-8" standalone="no"?>
<svg
   width="192"
   height="192"
   viewBox="0 0 192 192"
   fill="none"
   version="1.1"
   id="svg3"
   xmlns="http://www.w3.org/2000/svg"
   xmlns:svg="http://www.w3.org/2000/svg">
  <defs
     id="defs3" />
  <path
     d="m 81.679488,116.69886 v 54.30129 M 51.845073,136.49621 v 14.70659 m 88.309877,-16.96914 v 19.2317 m -73.39267,-26.585 v 33.93831 m 29.834419,-33.93831 v 33.93831 m 29.237721,-41.29162 v 48.64491 m -14.3205,-31.67575 v 14.70659"
     stroke="#000000"
     stroke-width="12"
     stroke-linecap="round"
     stroke-linejoin="round"
     id="path1"
     style="stroke-width:10;stroke-dasharray:none" />
  <path
     d="m 131.61606,25.443124 c 2.50701,-6.543416 12.64594,-4.824469 12.64594,2.144562 v 55.655189 c 0,6.968394 -10.13892,8.68734 -12.64594,2.144561 L 110.69643,30.796597 c -5.01533,-13.088734 -25.03101,-13.088734 -30.046999,0 M 60.383952,85.021448 c -2.507016,6.543416 -12.645951,4.823835 -12.645951,-2.14456 V 27.221696 c 0,-6.968396 10.138935,-8.687344 12.645951,-2.144562 l 20.919622,54.59084 c 5.015337,13.08874 25.031666,13.08874 30.046996,0"
     stroke="#000000"
     stroke-width="12"
     stroke-linecap="round"
     stroke-linejoin="round"
     id="path1-7"
     style="fill:none;stroke-width:10;stroke-dasharray:none" />
</svg>
