<svg xmlns="http://www.w3.org/2000/svg" xml:space="preserve" width="192" height="192"><path d="m168.641 408.985-5.262-5.216-.033-7.41 5.216-5.262 7.41-.032 5.262 5.216.032 7.409-5.216 5.262z" style="opacity:1;fill:none;fill-opacity:1;fill-rule:nonzero;stroke:#000;stroke-width:1.45297;stroke-linecap:round;stroke-linejoin:round;stroke-miterlimit:4;stroke-dasharray:none;stroke-dashoffset:0;stroke-opacity:1" transform="translate(-1327.07 -3207.788)scale(8.25896)"/><g style="fill:none;stroke:#000;stroke-width:1.21831;stroke-linecap:round;stroke-linejoin:round;stroke-dasharray:none;stroke-opacity:1"><path d="m165.171 402.943 2.024-5.747 1.981 5.747m-3.316-1.485h2.716" style="fill:none;stroke:#000;stroke-width:1.21831;stroke-linecap:round;stroke-linejoin:round;stroke-miterlimit:32;stroke-dasharray:none;stroke-opacity:1;paint-order:stroke fill markers" transform="matrix(6.8684 0 0 6.27778 -1091.295 -2414.6)"/></g><g style="fill:none;stroke:#000;stroke-width:19.988;stroke-linecap:round;stroke-linejoin:round;stroke-dasharray:none;stroke-opacity:1"><path d="M56 94c11.598 0 21-9.402 21-21s-9.402-23.572-21-23.572M21 94h35" style="fill:none;stroke:#000;stroke-width:19.988;stroke-linecap:round;stroke-linejoin:round;stroke-dasharray:none;stroke-opacity:1" transform="matrix(.3967 0 0 .40381 78.064 58.949)"/><path d="M56 49.428H27c-3.314 0-6 5.258-6 8.572v76c0 3.314 2.686 4.784 6 4.784h29C68.703 139 79 129.703 79 117S68.703 94 56 94" style="fill:none;stroke:#000;stroke-width:19.988;stroke-linecap:round;stroke-linejoin:round;stroke-dasharray:none;stroke-opacity:1" transform="matrix(.3967 0 0 .40381 78.064 58.949)"/></g><g stroke-width="1.695" style="display:inline;fill:none;stroke:#000;stroke-width:1.39573;stroke-linecap:round;stroke-linejoin:round;stroke-dasharray:none;stroke-opacity:1"><path d="M177.95 400.861c.994 0 1.799-.805 1.799-1.798s-.805-1.988-1.799-1.988m-2.547 3.786h2.547" style="fill:none;stroke:#000;stroke-width:1.39573;stroke-linecap:round;stroke-linejoin:round;stroke-dasharray:none;stroke-opacity:1" transform="matrix(5.66988 0 0 5.7943 -868.814 -2221.861)"/><path d="M175.403 403.302v-5.587c0-.249.201-.64.45-.64h2.247" style="fill:none;stroke:#000;stroke-width:1.39573;stroke-linecap:round;stroke-linejoin:round;stroke-dasharray:none;stroke-opacity:1" transform="matrix(5.66988 0 0 5.7943 -868.814 -2221.861)"/></g></svg>