<svg xmlns="http://www.w3.org/2000/svg" width="192" height="192"><path d="M146.882 44.117v100.679M46.3 171.73V71.044m80.52-16.307v90.129M106.484 70.82v74.024m-20.06 0v-74.03m-20.062 0v74.03" style="fill:none;fill-opacity:.195575;fill-rule:evenodd;stroke:#000;stroke-width:12;stroke-linecap:round;stroke-linejoin:round;stroke-dasharray:none;stroke-opacity:1;paint-order:stroke fill markers" transform="translate(-.628 -1.73)"/><path d="M129.826 165.036a3.005 3.005 0 0 1-3.005 3.005 3.005 3.005 0 0 1-3.005-3.005 3.005 3.005 0 0 1 3.005-3.004 3.005 3.005 0 0 1 3.005 3.004m-40.399-114.4a3.005 3.005 0 0 1-3.005 3.005 3.005 3.005 0 0 1-3.004-3.005 3.005 3.005 0 0 1 3.004-3.005 3.005 3.005 0 0 1 3.005 3.005m20.06 0a3.005 3.005 0 0 1-3.004 3.005 3.005 3.005 0 0 1-3.004-3.005 3.005 3.005 0 0 1 3.004-3.005 3.005 3.005 0 0 1 3.005 3.005m-40.121 0a3.005 3.005 0 0 1-3.005 3.005 3.005 3.005 0 0 1-3.004-3.005 3.005 3.005 0 0 1 3.004-3.005 3.005 3.005 0 0 1 3.005 3.005m80.59-29.906v6.143h-6.147c0-2.967 2.698-6.143 6.146-6.143" style="fill:none;stroke:#000;stroke-width:6;stroke-linecap:round;stroke-linejoin:round;stroke-miterlimit:16" transform="translate(-.628 -1.73)"/></svg>