<?xml version="1.0" encoding="UTF-8" standalone="no"?>
<!-- Created with Inkscape (http://www.inkscape.org/) -->

<svg
   width="192"
   height="192"
   viewBox="0 0 192 192"
   version="1.1"
   id="svg1"
   xmlns="http://www.w3.org/2000/svg"
   xmlns:svg="http://www.w3.org/2000/svg">
  <defs
     id="defs1" />
  <g
     id="g5"
     transform="translate(-0.627773,-1.7301005)">
    <path
       id="path5393"
       style="fill:none;fill-opacity:0.195575;fill-rule:evenodd;stroke:#000000;stroke-width:12;stroke-linecap:round;stroke-linejoin:round;stroke-dasharray:none;stroke-opacity:1;paint-order:stroke fill markers"
       d="M 146.8819,44.116592 V 144.79592 M 46.300326,171.7301 V 71.043941 M 126.82089,54.737274 V 144.86573 M 106.48335,70.821203 v 74.023417 m -20.061006,0 V 70.814062 m -20.061009,0 v 74.030558" />
    <path
       id="path53-8"
       style="fill:none;stroke:#000000;stroke-width:6;stroke-linecap:round;stroke-linejoin:round;stroke-miterlimit:16"
       d="m 129.82555,165.03633 a 3.0046594,3.0045636 0 0 1 -3.00466,3.00456 3.0046594,3.0045636 0 0 1 -3.00466,-3.00456 3.0046594,3.0045636 0 0 1 3.00466,-3.00456 3.0046594,3.0045636 0 0 1 3.00466,3.00456 z M 89.427,50.635986 a 3.0046594,3.0045636 0 0 1 -3.00466,3.004564 3.0046594,3.0045636 0 0 1 -3.004659,-3.004564 3.0046594,3.0045636 0 0 1 3.004659,-3.004563 3.0046594,3.0045636 0 0 1 3.00466,3.004563 z m 20.06089,0 a 3.0046594,3.0045636 0 0 1 -3.00466,3.004564 3.0046594,3.0045636 0 0 1 -3.00466,-3.004564 3.0046594,3.0045636 0 0 1 3.00466,-3.004563 3.0046594,3.0045636 0 0 1 3.00466,3.004563 z m -40.122032,0 a 3.0046594,3.0045636 0 0 1 -3.00466,3.004564 3.0046594,3.0045636 0 0 1 -3.004659,-3.004564 3.0046594,3.0045636 0 0 1 3.004659,-3.004563 3.0046594,3.0045636 0 0 1 3.00466,3.004563 z M 149.95522,20.730101 v 6.14264 h -6.14663 c 0,-2.966776 2.69838,-6.14264 6.14663,-6.14264 z" />
  </g>
</svg>
