<svg width="24" height="24" viewBox="0 0 24 24" fill="none" xmlns="http://www.w3.org/2000/svg">
<path d="M9.42857 14.7273V13.3636C9.42857 12.6061 9.67857 11.9621 10.1786 11.4318C10.6786 10.9015 11.2857 10.6364 12 10.6364H12.8571V8.81818L15.4286 11.5455L12.8571 14.2727V12.4545H12C11.7571 12.4545 11.5537 12.5415 11.3897 12.7155C11.2251 12.89 11.1429 13.1061 11.1429 13.3636V14.7273H9.42857ZM7.71429 20.1818H16.2857V3.81818H7.71429V20.1818ZM7.71429 22C7.24286 22 6.83943 21.8221 6.504 21.4664C6.168 21.11 6 20.6818 6 20.1818V3.81818C6 3.31818 6.168 2.89 6.504 2.53364C6.83943 2.17788 7.24286 2 7.71429 2H16.2857C16.7571 2 17.1609 2.17788 17.4969 2.53364C17.8323 2.89 18 3.31818 18 3.81818V20.1818C18 20.6818 17.8323 21.11 17.4969 21.4664C17.1609 21.8221 16.7571 22 16.2857 22H7.71429Z" fill="#D9D9D9"/>
</svg>
