<svg viewBox="0 0 192 192" xml:space="preserve" style="fill-rule:evenodd;clip-rule:evenodd;stroke-linejoin:round;stroke-miterlimit:2" xmlns="http://www.w3.org/2000/svg"><path d="M1565.06 73.161c-2.89-.169-5.94-.263-9.16-.263-22.82 0-30.48 10.446-31.83 17.002-.99 4.87.98 8.734 3.45 10.45a5.306 5.306 0 0 0 7.38-1.324 5.325 5.325 0 0 0-.43-6.592c.13-.556.53-1.979 1.33-2.921 2.88-3.398 9.08-6.017 20.1-6.017 1.43 0 2.83.02 4.18.059-9.22 19.74-16 36.696-19.5 50.434-2.81 11.077-3.49 20.234-1.92 27.261a5.303 5.303 0 0 0 6.33 4.016 5.314 5.314 0 0 0 4.02-6.327c-1.29-5.764-.47-13.253 1.84-22.338 3.59-14.093 10.81-31.671 20.58-52.273 9.33 1.023 16.13 2.787 20.06 4.03l-12.48 59.541a5.277 5.277 0 0 0 1.07 4.428 5.293 5.293 0 0 0 4.11 1.959h24.08c2.51 0 4.67-1.759 5.19-4.214l24.8-118.482a5.308 5.308 0 0 0-3.94-6.236c-27.2-6.604-51.82 13.266-69.26 47.807Zm37.75 12.87-12.09 57.656h13.25l22.78-108.872c-4.66-.411-9.19.196-13.55 1.687l-10.39 49.529Zm-1.85-42.823-.66.51c-8.91 7.011-16.92 17.565-23.87 30.545 7.5 1.036 13.3 2.48 17.25 3.673l7.28-34.728Z" style="fill-rule:evenodd;clip-rule:evenodd;stroke-linejoin:round;stroke-miterlimit:2" transform="translate(-1694.16 -11.264) scale(1.13223)"/></svg>