<svg xmlns="http://www.w3.org/2000/svg" width="192" height="192" fill="none" viewBox="0 0 192 192"><path stroke="#000" stroke-linecap="round" stroke-linejoin="round" stroke-width="10" d="M129.922 24.86a2.94 2.94 0 0 1 4.156 0l33.061 33.062a2.937 2.937 0 0 1 0 4.156l-33.061 33.061a2.94 2.94 0 0 1-4.156 0L96.861 62.078a2.94 2.94 0 0 1 0-4.156l33.061-33.061Z"/><path stroke="#000" stroke-linecap="round" stroke-linejoin="round" stroke-width="10" d="M96 168V96m-72 0h72m0 0h66a6 6 0 0 1 6 6v60a6 6 0 0 1-6 6H30a6 6 0 0 1-6-6V30a6 6 0 0 1 6-6h60a6 6 0 0 1 6 6z"/></svg>