<?xml version="1.0" encoding="UTF-8"?>
<svg id="logo_action_notch" data-name="logo action notch" xmlns="http://www.w3.org/2000/svg" viewBox="0 0 192 192">
  <defs>
    <style>
      .cls-1 {
        fill: none;
        stroke: #000;
        stroke-linecap: round;
        stroke-linejoin: round;
        stroke-width: 12px;
      }
    </style>
  </defs>
  <g id="v2">
    <g>
      <path class="cls-1" d="M146.01,125.34v29.33c0,2.74-1.09,5.37-3.02,7.29l-5.14,5.11c-1.89,1.88-4.44,2.93-7.09,2.93h-24.62c-2.68,0-5.26-1.08-7.16-3l-24.46-24.73c-1.22-1.23-.05-3.29,1.62-2.85l13.51,3.56c3.21.85,6.34-1.6,6.34-4.95v-52.04"/>
      <line class="cls-1" x1="112.65" y1="108.48" x2="112.65" y2="136.57"/>
      <line class="cls-1" x1="129.33" y1="114.1" x2="129.33" y2="136.57"/>
    </g>
    <line class="cls-1" x1="81" y1="22" x2="111" y2="22"/>
    <path class="cls-1" d="M76,72.39c2-9.21,10.19-16.11,20-16.11s18,6.9,20,16.11"/>
  </g>
</svg>