<svg id="svg" xmlns="http://www.w3.org/2000/svg" xmlns:xlink="http://www.w3.org/1999/xlink" width="400" height="400" viewBox="0, 0, 400,400" version="1.1"><g id="svgg"><path id="path0" d="M94.740 10.085 C 90.429 12.596,90.000 16.396,90.000 52.051 C 90.000 82.816,89.844 86.013,88.263 87.594 C 84.363 91.495,83.518 134.846,87.250 139.590 L 89.500 142.450 90.000 266.152 C 90.558 404.303,89.947 393.061,97.096 396.735 C 101.448 398.971,288.496 398.506,292.945 396.248 C 300.387 392.472,299.845 402.307,299.927 269.405 C 299.999 152.524,300.036 150.277,301.956 148.540 C 303.820 146.853,303.912 145.257,303.912 114.500 C 303.912 83.743,303.820 82.147,301.956 80.460 C 300.096 78.777,300.000 77.192,300.000 48.295 C 300.000 16.228,299.685 13.783,295.096 10.282 C 293.002 8.684,97.476 8.492,94.740 10.085 M293.139 13.910 L 295.500 15.820 296.000 48.332 C 296.492 80.338,296.535 80.881,298.750 83.236 C 301.995 86.687,302.187 107.616,299.000 110.500 C 296.467 112.793,296.467 115.052,299.000 118.273 C 302.312 122.484,301.961 142.069,298.500 146.182 L 296.000 149.153 296.000 268.888 C 296.000 387.785,295.986 388.638,293.972 390.799 C 290.854 394.146,293.212 394.077,192.661 393.780 L 97.823 393.500 95.911 391.139 C 94.053 388.843,94.000 385.377,94.000 264.966 L 94.000 141.153 91.500 138.182 C 89.009 135.223,89.000 135.133,89.000 114.500 C 89.000 93.867,89.009 93.777,91.500 90.818 L 94.000 87.847 94.000 52.558 C 94.000 18.372,94.065 17.187,96.073 14.635 L 98.145 12.000 194.462 12.000 C 287.779 12.000,290.852 12.059,293.139 13.910 M108.315 25.007 C 107.114 25.491,105.651 26.783,105.065 27.878 C 103.082 31.584,103.621 375.492,105.615 378.535 L 107.230 381.000 195.089 381.000 L 282.949 381.000 284.474 378.050 C 285.825 375.438,286.000 355.206,286.000 202.004 L 286.000 28.909 283.545 26.455 L 281.091 24.000 195.795 24.063 C 148.883 24.098,109.517 24.523,108.315 25.007 M280.800 28.200 C 282.710 30.110,282.527 375.318,280.615 376.905 C 278.966 378.273,109.705 378.039,108.333 376.667 C 106.765 375.099,107.299 30.550,108.872 28.654 C 110.653 26.508,278.665 26.065,280.800 28.200 M187.277 41.028 C 183.144 44.067,172.144 58.024,167.989 65.500 C 166.766 67.700,164.976 70.625,164.010 72.000 C 156.937 82.067,154.560 90.878,158.223 93.443 L 160.445 95.000 157.746 95.000 C 149.738 95.000,147.326 137.170,153.585 167.750 C 154.205 170.782,154.068 171.000,151.535 171.000 C 142.483 171.000,130.098 190.364,130.026 204.628 C 129.990 211.789,131.768 213.145,137.342 210.209 C 139.629 209.005,145.057 207.116,149.405 206.011 C 154.690 204.668,157.791 203.315,158.763 201.928 C 160.201 199.874,160.237 199.873,162.358 201.789 C 164.379 203.615,165.325 203.670,179.149 202.764 C 188.636 202.143,199.207 202.153,209.149 202.793 C 223.393 203.710,224.692 203.647,227.155 201.931 C 229.749 200.123,229.840 200.125,231.155 202.045 C 232.041 203.340,235.351 204.724,240.861 206.104 C 245.460 207.256,250.687 209.063,252.477 210.119 C 256.556 212.526,258.632 211.777,259.412 207.619 C 261.756 195.125,248.132 171.000,238.731 171.000 C 235.771 171.000,235.751 170.963,236.466 166.750 C 242.642 130.381,240.334 95.222,231.750 94.921 C 230.247 94.868,229.998 94.653,231.000 94.271 C 236.507 92.175,234.723 86.060,223.193 67.500 C 205.822 39.540,197.570 33.458,187.277 41.028 M200.089 43.661 C 207.464 49.415,230.000 82.517,230.000 87.596 C 230.000 88.117,215.191 88.500,195.012 88.500 C 154.842 88.500,158.362 89.724,164.826 78.000 C 181.045 48.580,192.321 37.600,200.089 43.661 M226.500 97.964 C 234.202 99.259,234.673 100.033,235.542 112.781 C 237.124 135.983,230.150 193.250,225.132 198.268 C 224.297 199.103,165.170 199.503,164.346 198.679 C 161.481 195.814,155.179 153.490,154.434 132.107 C 153.653 109.711,154.623 100.944,158.061 99.298 C 164.559 96.187,210.605 95.289,226.500 97.964 M151.546 179.750 C 151.896 181.813,152.972 186.961,153.937 191.192 C 156.032 200.381,155.927 200.612,148.963 202.087 C 145.958 202.723,142.285 203.864,140.800 204.622 C 134.156 208.013,132.792 205.960,135.405 196.500 C 139.680 181.019,149.952 170.360,151.546 179.750 M246.414 180.330 C 251.735 186.824,257.819 203.515,255.653 205.680 C 255.286 206.047,251.501 205.312,247.243 204.046 C 242.984 202.780,238.375 201.420,237.000 201.024 C 234.060 200.178,234.048 199.366,236.786 186.918 C 239.613 174.071,240.684 173.337,246.414 180.330 M187.390 207.616 C 173.917 212.394,173.782 227.661,186.981 253.961 C 194.118 268.185,195.892 268.161,203.128 253.750 C 210.702 238.667,212.000 234.232,212.000 223.447 L 212.000 214.207 208.527 211.158 C 202.776 206.108,195.214 204.841,187.390 207.616 M202.454 211.416 C 211.845 215.340,211.473 227.459,201.294 249.190 C 195.438 261.692,194.936 261.816,189.997 251.995 C 174.972 222.110,181.006 202.455,202.454 211.416 M186.814 278.677 C 185.845 278.933,184.128 281.751,182.774 285.311 C 179.582 293.704,175.649 296.057,168.062 294.113 C 156.614 291.179,147.208 307.142,155.500 315.433 C 160.441 320.374,160.444 325.902,155.510 332.109 C 148.425 341.022,156.985 356.872,167.287 353.918 C 175.281 351.625,179.865 354.066,182.507 362.022 C 186.128 372.923,203.356 373.244,207.256 362.483 C 210.237 354.258,212.808 352.686,221.955 353.496 L 229.590 354.172 233.795 348.177 C 239.245 340.407,239.405 336.754,234.500 332.000 C 231.457 329.051,231.000 327.981,231.000 323.806 C 231.000 319.692,231.501 318.473,234.500 315.294 C 238.959 310.566,238.980 307.571,234.601 300.726 C 229.618 292.935,228.733 292.389,223.408 293.813 C 214.268 296.258,209.163 293.674,207.122 285.571 C 205.409 278.766,197.127 275.955,186.814 278.677 M201.391 282.597 C 202.246 282.925,203.242 284.837,203.604 286.847 C 204.582 292.267,205.582 293.671,210.539 296.576 C 215.092 299.244,215.726 299.283,224.615 297.454 C 227.957 296.766,229.590 298.308,233.381 305.730 C 235.020 308.939,235.009 308.985,231.660 312.730 C 224.246 321.021,223.981 325.660,230.500 333.000 C 235.859 339.034,235.760 338.149,231.809 344.668 C 228.059 350.855,227.045 351.393,221.992 349.879 C 214.517 347.640,204.000 353.171,204.000 359.342 C 204.000 367.687,187.609 368.523,185.920 360.265 C 184.296 352.324,177.086 347.760,169.408 349.813 C 162.911 351.551,162.627 351.448,159.168 346.110 C 155.184 339.961,155.209 338.916,159.476 333.328 C 165.497 325.442,165.366 320.856,158.906 313.391 L 154.964 308.837 157.650 303.901 C 161.521 296.790,162.108 296.467,168.414 297.979 C 177.322 300.116,184.496 295.281,186.449 285.823 C 186.753 284.351,187.789 282.941,188.751 282.689 C 191.435 281.988,199.647 281.927,201.391 282.597 M183.199 299.588 C 155.977 313.153,168.420 354.513,198.498 350.443 C 226.235 346.688,230.485 307.509,204.128 298.528 C 197.147 296.149,189.303 296.547,183.199 299.588 M201.715 301.603 C 227.109 310.109,221.508 346.875,194.803 346.978 C 168.898 347.078,162.654 310.806,187.064 302.027 C 193.747 299.624,195.643 299.569,201.715 301.603 M187.386 305.752 C 169.207 313.476,172.314 340.468,191.740 343.574 C 198.208 344.609,208.815 340.453,211.073 336.000 C 220.677 317.059,205.722 297.961,187.386 305.752 M201.329 309.364 C 211.747 313.717,214.062 328.348,205.520 335.848 C 199.088 341.495,188.731 340.875,183.141 334.507 C 171.977 321.792,185.693 302.831,201.329 309.364 M190.500 312.403 C 177.734 318.038,181.624 335.984,195.615 335.996 C 203.996 336.004,210.031 326.555,206.283 319.292 C 202.677 312.305,196.666 309.681,190.500 312.403 M201.717 318.898 C 204.766 323.436,204.594 326.057,201.021 329.480 C 195.938 334.349,187.941 332.455,186.666 326.079 C 184.707 316.283,196.258 310.771,201.717 318.898 " stroke="none" fill="#000000" fill-rule="evenodd"></path></g></svg>