<svg width="192" height="192" viewBox="0 0 192 192" fill="none" xmlns="http://www.w3.org/2000/svg"><circle cx="96" cy="96" r="5" stroke="#000" stroke-width="10" stroke-linecap="round" stroke-linejoin="round"/><circle cx="130" cy="96" r="5" stroke="#000" stroke-width="10" stroke-linecap="round" stroke-linejoin="round"/><circle cx="62" cy="96" r="5" stroke="#000" stroke-width="10" stroke-linecap="round" stroke-linejoin="round"/><path d="M40 40c7-7 16 0 24-8 0 0 8-10 16-10s8 4 16 4 8-4 16-4 16 10 16 10c8 8 17 1 24 8m0 0c7 7 0 16 8 24 0 0 10 8 10 16s-4 8-4 16 4 8 4 16-10 16-10 16c-8 8-1 17-8 24m-112 0c7 7 16 0 24 8 0 0 8 10 16 10s8-4 16-4 8 4 16 4 16-10 16-10c8-8 17-1 24-8M40 40c-7 7 0 16-8 24 0 0-10 8-10 16s4 8 4 16-4 8-4 16 10 16 10 16c8 8 1 17 8 24" stroke="#000" stroke-width="12" stroke-linecap="round" stroke-linejoin="round"/></svg>