<svg width="192" height="192" viewBox="0 0 192 192" fill="none" xmlns="http://www.w3.org/2000/svg"><path d="M22.979 31.355c-6.777-8.213 22.589 7.685 58.985 7.79 15.2.927 20.933 5.318 25.197 9.772 9.564 8.99 11.643 13.55 23.751 7.738 4.929-2.37 10.999-16.383 17.839-17.9 5.341-.778 13.163 5.94 15.127 7.877 2.142 2.105 4.085 4.063 6.122 5-7.02.38-16.752 16.719-16.995 30.606 1.404 38.796-16.108 36.639-33.335 55.632-5.489 5.222-8.67 16.149-8.67 26.13-10 0-16.316-5.685-18.68-9.401-4.54-7.528-9.205 6.895-16.256-4.917.316-3.896-18.79-4.664-7.812-13.686 25.968-18.319 38.635-22.183 38.086-27.69-.634-6.527-15.855.369-29.599-.263-22.695-1.053-20.204-9.393-22.22-16.078-19.064-10.581 14.652-16.561-.148-19.688C47.141 71.119 33.703 72.487 31 60c5 0 25.998-2.558 22-5.779C49 51 27.5 37.5 22.978 31.355Z" stroke="#000" stroke-width="12" stroke-linecap="round" stroke-linejoin="round"/></svg>