<svg width="192" height="192" viewBox="0 0 192 192" fill="none" xmlns="http://www.w3.org/2000/svg">
<path fill-rule="evenodd" clip-rule="evenodd" d="M19.4074 41.6388C16.9568 37.0354 17.76 31.3763 21.3945 27.6365C25.0064 23.9201 30.5928 22.9446 35.2469 25.2077L35.2897 25.2275C35.3755 25.2668 35.564 25.3516 35.8614 25.4771C36.4563 25.7282 37.4867 26.1424 39.0025 26.6824C42.0349 27.7629 47.0055 29.3457 54.312 31.1342L54.3412 31.1413C59.4027 32.3937 64.3047 33.3428 69.5381 34.3559C72.1145 34.8547 74.7715 35.3691 77.5671 35.9428C93.5273 39.1606 99.3786 41.7172 105.625 44.5576L105.631 44.5605C108.457 45.8475 111.085 47.0383 115.295 48.4464L115.296 48.4469C118.497 49.5183 120.322 49.9454 121.396 50.0837L121.455 50.0911C121.533 50.0207 121.623 49.9378 121.725 49.8407C122.709 48.9008 123.889 47.5424 126.011 45.0644L126.046 45.0241C128.645 42.016 132.44 38.2721 137.736 36.2623C143.626 34.027 149.751 34.5142 155.575 37.1322C160.614 39.3913 164.802 42.8132 167.453 45.2498C168.85 46.5338 169.988 47.7012 170.791 48.5634C171.195 48.997 171.521 49.3604 171.759 49.6313C171.878 49.7669 171.975 49.8799 172.05 49.9675C172.066 49.9857 172.081 50.0028 172.094 50.0188C172.114 50.0413 172.131 50.0617 172.146 50.0797L172.181 50.1211L172.204 50.149C172.204 50.149 172.205 50.1494 172.185 50.166C172.169 50.1796 172.14 50.2041 172.088 50.2485L172.09 50.2501L172.207 50.1523C175.168 53.6941 175.834 58.6201 173.921 62.8212C172.099 66.8226 168.245 69.4907 163.895 69.815C163.828 69.8327 163.719 69.8655 163.581 69.9215C163.19 70.0803 162.336 70.5056 161.433 71.838C160.362 73.4176 158.604 77.1833 158.604 85.2646C158.604 97.7547 156.369 107.199 151.59 114.932C147.166 122.089 141.1 126.735 136.332 130.386L136.328 130.39L135.804 130.791C128.401 136.473 124.878 140.193 123.636 145.409C123.086 147.763 123.001 149.968 123.067 151.592C123.099 152.39 123.166 153.001 123.214 153.359C123.224 153.436 123.233 153.5 123.241 153.551C123.25 153.616 123.258 153.66 123.262 153.682C123.978 157.32 122.972 161.089 120.531 163.888C118.061 166.719 114.408 168.23 110.66 167.971C106.471 167.682 98.2453 167.037 91.5558 163.016C88.9433 161.481 87.017 159.555 85.6043 157.573C83.5895 157.034 81.6975 156.266 80.0058 155.476C72.6299 152.224 66.0597 149.984 59.2219 149.277C54.4761 148.787 50.4717 145.531 49.0227 140.985C47.5737 136.44 48.9553 131.467 52.5418 128.32L52.5431 128.319L52.5445 128.318C52.948 127.965 53.3563 127.618 53.7659 127.272C54.5106 126.644 55.5761 125.759 56.9056 124.69C59.557 122.558 63.2973 119.665 67.6658 116.613L67.6728 116.608C71.1079 114.212 75.0154 111.655 79.148 109.277C76.4415 108.638 73.6347 107.823 70.7908 106.783C63.4588 104.108 57.6283 99.2343 53.166 94.4498C48.6783 89.6381 45.0086 84.2957 42.1703 79.8765C40.2342 76.9142 38.5696 74.1112 37.308 71.7464C36.3728 69.9974 35.4263 68.0651 34.836 66.3765C34.6776 65.9234 34.4566 65.2406 34.2838 64.4362L34.2763 64.4013C34.1732 63.9253 33.7285 61.8729 34.2012 59.378C34.2597 59.0693 34.3445 58.6877 34.4703 58.2541C29.5647 54.837 25.9489 50.8943 23.5615 47.847C22.2805 46.2119 21.3002 44.7664 20.6166 43.6872C20.1915 43.016 19.7978 42.3297 19.4074 41.6388ZM81.7259 143.159C82.0545 143.295 82.3829 143.433 82.7111 143.572C83.0644 143.722 83.4174 143.873 83.7704 144.026C84.0718 144.156 84.3732 144.287 84.6745 144.42C84.7324 144.445 84.7904 144.471 84.8483 144.496L84.9771 144.553C92.6218 148.154 93.5606 145.298 93.6724 144.42C93.6276 145.542 93.6724 150.377 97.6847 152.699C98.1466 152.98 98.6306 153.236 99.1323 153.47C99.5908 153.684 100.064 153.88 100.549 154.058C100.82 154.158 101.095 154.253 101.373 154.343C104.643 155.402 108.33 155.782 111.488 156C111.488 156 110.384 150.7 111.674 143.981C111.758 143.544 111.852 143.101 111.957 142.653C114.25 132.984 120.982 127.039 128.498 121.271C138.714 113.436 146.604 107.38 146.604 85.2646C146.604 75.4516 148.75 69.1616 151.499 65.1053C151.768 64.7094 152.042 64.3351 152.32 63.9812C156.875 58.1877 162.565 57.865 162.976 57.8491V57.8204C162.605 57.3825 157.904 51.9115 152.135 48.8073C151.65 48.5467 151.159 48.3028 150.661 48.0799C143.967 45.068 139.42 47.8996 135.126 52.8697L135.117 52.8795C127.178 62.1508 125.23 64.4258 111.488 59.8265C106.671 58.2151 103.586 56.8149 100.658 55.4813C95.1588 52.9808 90.1741 50.7248 75.1753 47.7021C74.3125 47.5249 73.4494 47.3512 72.586 47.1796C70.9346 46.8514 69.2824 46.5313 67.6306 46.2112L67.6183 46.2088C66.9457 46.0785 66.273 45.9481 65.6006 45.8173L65.5979 45.8167C62.4684 45.2077 59.342 44.5872 56.227 43.9012L56.2026 43.8958C54.618 43.5466 53.0364 43.1804 51.4588 42.79C49.7896 42.3814 48.2297 41.9814 46.7749 41.5929L46.7651 41.5903C34.8532 38.4083 30 35.9999 30 35.9999C30 35.9999 34.0347 43.5791 41.9588 48.8356C42.4685 49.1745 42.9874 49.4934 43.5143 49.7949C45.2976 50.8156 47.172 51.6378 49.0888 52.3685L49.112 52.3773C50.344 52.8464 51.5934 53.2778 52.8472 53.6999L52.9229 53.7254C54.6705 54.3085 56.2238 54.7759 57.588 55.1507C57.6681 55.1727 57.7475 55.1943 57.8263 55.2157C62.8509 56.5782 65.2282 56.6593 65.2282 56.6593C64.5661 56.9684 63.898 57.2789 63.2241 57.581C61.887 58.1805 60.5274 58.7471 59.1482 59.2042C58.7889 59.3425 58.422 59.4814 58.0497 59.6197L57.9367 59.6616L57.8129 59.7072C55.2324 60.6573 52.4264 61.5567 50.1832 61.9367L50.16 61.9406C48.4151 62.2338 47.0137 62.2106 46.3288 61.6491C46.0058 61.3833 45.917 61.529 46.0371 62.0049C46.1589 62.4873 46.495 63.3093 47.0197 64.3885C47.2693 64.9019 47.5615 65.4735 47.8935 66.0944C48.8159 67.8236 50.044 69.9225 51.5067 72.2145C51.7454 72.5886 51.9903 72.9677 52.2412 73.3513C52.3194 73.4731 52.398 73.5953 52.4771 73.7178C57.886 82.1 65.2651 91.9951 74.9071 95.5109C80.5288 97.5668 86.0723 98.6004 90.8335 99.0893C91.3568 99.1432 91.8708 99.1904 92.3746 99.2316C99.8763 99.8448 105.117 99.1227 105.117 99.1227C105.117 99.1227 104.404 105.207 97.7483 111.476C97.2868 111.911 96.7968 112.346 96.2765 112.781C94.3318 114.403 91.9735 116.015 89.1012 117.504C83.96 120.171 78.9194 123.394 74.5382 126.45C74.0319 126.804 73.5343 127.155 73.0463 127.504C65.6402 132.792 60.4559 137.341 60.4559 137.341C65.6349 137.876 70.5446 139.095 75.3385 140.732C77.4863 141.465 79.6108 142.282 81.7259 143.159Z" fill="black"/>
</svg>
