<svg xmlns="http://www.w3.org/2000/svg" width="192" height="192" fill="none" viewBox="0 0 192 192"><path stroke="#000" stroke-linecap="round" stroke-linejoin="round" stroke-width="12" d="M62.243 23.757A6 6 0 0 1 66.485 22h59.03a6 6 0 0 1 4.242 1.757l38.486 38.486A6 6 0 0 1 170 66.485v59.03a6 6 0 0 1-1.757 4.242l-38.486 38.486a6 6 0 0 1-4.242 1.757h-59.03a6 6 0 0 1-4.242-1.757l-38.486-38.486A6 6 0 0 1 22 125.515v-59.03a6 6 0 0 1 1.757-4.242z"/><path stroke="#000" stroke-linecap="round" stroke-linejoin="round" stroke-width="10" d="M82 52.015v30.054m36-26.047V88.08M100 44v38.07M64 69.043v47.569a29.4 29.4 0 0 0 6.064 17.89 29.35 29.35 0 0 0 15.686 10.496 29.3 29.3 0 0 0 18.825-1.236C123 137 131 104 139 84.027"/></svg>