<svg xmlns="http://www.w3.org/2000/svg" width="192" height="192" fill="none" viewBox="0 0 192 192"><path stroke="#000" stroke-linecap="round" stroke-linejoin="round" stroke-width="12" d="M31 61.08a5.99 5.99 0 0 1 3.063-5.227l59-33.086a6 6 0 0 1 5.874 0l59 33.086A5.99 5.99 0 0 1 161 61.08v68.002a6 6 0 0 1-2.941 5.157l-59 34.924a6.01 6.01 0 0 1-6.117 0l-59-34.924A6 6 0 0 1 31 129.082zM83 82l43 43m-45-14-15 15m60-60-14 14"/><path stroke="#000" stroke-linecap="round" stroke-linejoin="round" stroke-width="12" d="M77.106 61.409a12 12 0 1 1-14.697 14.697"/></svg>