<svg xmlns="http://www.w3.org/2000/svg" width="192" height="192" fill="none" stroke="#000" stroke-width="12" viewBox="0 0 192 192"><path d="M126.758 59.766a32 32 0 0 0 .577-6.07C127.335 36.192 113.244 22 95.863 22 78.48 22 64.39 36.191 64.39 53.697c0 2.076.198 4.105.576 6.07m51.737 26.076h-41.68a7.454 7.645 0 0 0-7.454 7.645v42.749a7.454 7.645 0 0 0 7.454 7.645h41.68a7.454 7.645 0 0 0 7.454-7.645V93.488a7.454 7.645 0 0 0-7.454-7.645z"/><path stroke-linecap="round" d="M40 137.659V95.172a34.62 34.62 0 0 1 34.62-34.619h42.487a34.618 34.62 0 0 1 34.618 34.62V105.4c0 19.119-7.254 38.481-34.618 38.481H95.863M40 137.659v-22.817m0 22.817C40 156.779 55.5 170 74.62 170h23.603"/></svg>