<svg width="192" height="192" viewBox="0 0 192 192" fill="none" xmlns="http://www.w3.org/2000/svg">
<path d="M109.882 132H115.623C128.79 132 139.499 121.391 139.622 108.225L139.747 94.8673C139.872 81.5251 129.091 70.6424 115.748 70.6424H77C63.7452 70.6424 53 81.3875 53 94.6424V126.5C53 140.859 64.6406 152.5 79 152.5H97.2243" stroke="black" stroke-width="12" stroke-linecap="round" stroke-linejoin="round"/>
<mask id="path-2-inside-1_1_2" fill="white">
<path d="M70.3224 96.9059C70.3741 90.3154 75.7313 85 82.322 85H111C117.627 85 123 90.3726 123 97L123 126C123 132.627 117.627 138 111 138H82.0945C75.4303 138 70.0426 132.57 70.0949 125.906L70.3224 96.9059Z"/>
</mask>
<path d="M70.3224 96.9059C70.3741 90.3154 75.7313 85 82.322 85H111C117.627 85 123 90.3726 123 97L123 126C123 132.627 117.627 138 111 138H82.0945C75.4303 138 70.0426 132.57 70.0949 125.906L70.3224 96.9059Z" stroke="black" stroke-width="24" mask="url(#path-2-inside-1_1_2)"/>
<path d="M120.551 68C120.846 66.4915 121 64.9333 121 63.3393C121 49.8971 110.031 39 96.5 39C82.969 39 72 49.8971 72 63.3393C72 64.9333 72.1542 66.4915 72.4487 68" stroke="black" stroke-width="12" stroke-linecap="round"/>
<path d="M96 155.45V149.6C101.538 149.6 105 152.633 105 155.45H96Z" stroke="black" stroke-width="6" stroke-linecap="round" stroke-linejoin="round"/>
<rect x="22" y="22" width="148" height="148" rx="6" stroke="black" stroke-width="12"/>
</svg>
