<?xml version="1.0" encoding="utf-8"?>
<!-- Generator: Adobe Illustrator 25.4.1, SVG Export Plug-In . SVG Version: 6.00 Build 0)  -->
<svg version="1.1" id="Layer_1" xmlns="http://www.w3.org/2000/svg" xmlns:xlink="http://www.w3.org/1999/xlink" x="0px" y="0px"
	 width="192px" height="192px" viewBox="0 0 192 192" style="enable-background:new 0 0 192 192;" xml:space="preserve">
<style type="text/css">
	.st0{fill:none;stroke:#000000;stroke-width:12;stroke-linecap:round;stroke-linejoin:round;stroke-miterlimit:10;}
</style>
<g>
	<path class="st0" d="M164.8,37.6c2.4,1.2,4,3.6,4.1,6.2c0.4,15-1.2,45.7-20.3,77c-16.1,26.4-37.1,41.1-49.4,48.2
		c-2.3,1.3-5,1.3-7.3,0c-12.2-7.2-33-22-48.8-48.2c-18.9-31.4-20.4-62-20-77c0.1-2.7,1.6-5.1,4.1-6.2C40.7,31.1,64.6,22.1,95.5,22
		C126.9,21.9,151.2,31.1,164.8,37.6z"/>
	<path d="M131.1,63.9l-35.9,37.3c-0.9,0.9-2.4,0.9-3.2-0.1L79.6,86.2c-0.9-1.1-2-2.1-3.2-2.8c-1.4-0.9-3.3-1.7-5.7-1.8
		c-3.8-0.2-6.6,1.5-8.3,2.9c-0.9,0.8-1,2.2-0.3,3.1c9.1,10.7,18.1,21.4,27.2,32c2.2,2.6,6.3,2.5,8.3-0.3l39.9-54
		c1-1.4,0.1-3.4-1.6-3.4l0,0c-1,0-1.9,0.2-2.6,0.5C132.6,62.7,131.8,63.2,131.1,63.9z"/>
</g>
</svg>
