<svg width="192" height="192" viewBox="0 0 192 192" fill="none" xmlns="http://www.w3.org/2000/svg">
<path d="M164.8 37.6C167.2 38.8 168.8 41.2 168.9 43.8C169.3 58.8 167.7 89.5 148.6 120.8C132.5 147.2 111.5 161.9 99.2 169C96.9 170.3 94.2 170.3 91.9 169C79.7 161.8 58.9 147 43.1 120.8C24.2 89.4 22.7 58.8 23.1 43.8C23.2 41.1 24.7 38.7 27.2 37.6C40.7 31.1 64.6 22.1 95.5 22C126.9 21.9 151.2 31.1 164.8 37.6Z" stroke="black" stroke-width="12" stroke-miterlimit="10" stroke-linecap="round" stroke-linejoin="round"/>
<path d="M69 89.625L90.157 113C101.264 96.5312 117.661 75.8125 133 62" stroke="black" stroke-width="12" stroke-linecap="round" stroke-linejoin="round"/>
</svg>
