<svg xmlns="http://www.w3.org/2000/svg" width="192" height="192" fill="none" stroke="#000" stroke-linejoin="round" stroke-width="12" viewBox="0 0 192 192"><path stroke-width="8" d="M73 76a5.2 5.2 0 0 1-.228 1.53 4.3 4.3 0 0 1-.65 1.298 3.1 3.1 0 0 1-.974.867A2.4 2.4 0 0 1 70 80c-.394 0-.784-.103-1.148-.305a3.1 3.1 0 0 1-.973-.867 4.3 4.3 0 0 1-.65-1.297 5.2 5.2 0 0 1-.001-3.061c.151-.486.372-.927.65-1.298.28-.372.61-.666.974-.867A2.4 2.4 0 0 1 70 72c.394 0 .784.103 1.148.305.364.2.695.495.973.867.279.371.5.812.65 1.297.151.486.229 1.006.229 1.531z"/><path d="M140.784 95.66A21 21 0 0 1 128 100c-4.623 0-19.389-8-32-8s-27.377 8-32 8a21 21 0 0 1-10.5-39.187C57.504 58.503 79.05 52 96 52s38.497 6.502 42.5 8.813a21 21 0 0 1 2.284 34.847z"/><path stroke-width="8" d="M125 76a5.2 5.2 0 0 1-.228 1.53 4.3 4.3 0 0 1-.651 1.298 3.1 3.1 0 0 1-.973.867A2.4 2.4 0 0 1 122 80c-.394 0-.784-.103-1.148-.305a3.1 3.1 0 0 1-.973-.867 4.3 4.3 0 0 1-.651-1.297 5.2 5.2 0 0 1 0-3.061c.151-.486.372-.927.651-1.298a3.1 3.1 0 0 1 .973-.867A2.4 2.4 0 0 1 122 72c.394 0 .784.103 1.148.305a3.1 3.1 0 0 1 .973.867c.279.371.5.812.651 1.297A5.2 5.2 0 0 1 125 76z"/><path d="M56 136s32 34 40 34 40-34 40-34-16 10-40 10-40-10-40-10z"/><circle cx="96" cy="75" r="53"/></svg>