<svg width="192" height="192" viewBox="0 0 192 192" fill="none" xmlns="http://www.w3.org/2000/svg"><path d="m89 104 6 7 10-13" stroke="#000" stroke-width="10" stroke-linecap="round" stroke-linejoin="round"/><path d="M65 84.643S78.286 78 96 78s31 6.643 31 6.643C127 123.393 96 140 96 140s-31-16.607-31-55.357Z" stroke="#000" stroke-width="10" stroke-linecap="round" stroke-linejoin="round"/><path d="m22 94 74-67 74 67h-19v61a6.003 6.003 0 0 1-1.757 4.243A6.003 6.003 0 0 1 145 161H47a6 6 0 0 1-6-6V94H22Z" stroke="#000" stroke-width="12" stroke-linecap="round" stroke-linejoin="round"/></svg>