<svg width="192" height="192" viewBox="0 0 192 192" fill="none" xmlns="http://www.w3.org/2000/svg"><path d="M140 50v-2c0-14.36-11.641-26-26-26H78c-14.36 0-26 11.64-26 26v2M41 94.485a6 6 0 0 1 1.757-4.242l28.486-28.486A6 6 0 0 1 75.485 60h41.03a6 6 0 0 1 4.242 1.757l28.486 28.486A6 6 0 0 1 151 94.485v41.03a6 6 0 0 1-1.757 4.242l-28.486 28.486a6 6 0 0 1-4.242 1.757h-41.03a6 6 0 0 1-4.242-1.757l-28.486-28.486A5.998 5.998 0 0 1 41 135.515v-41.03Z" stroke="#000" stroke-width="12" stroke-linecap="round" stroke-linejoin="round"/><path d="M128 127v-24l-22-22v68l22-22Zm-64 0v-12m22 34v-34m0 0V81l-22 22v12m22 0H64" stroke="#000" stroke-width="10" stroke-linecap="round" stroke-linejoin="round"/></svg>