<svg id="svg" version="1.1" xmlns="http://www.w3.org/2000/svg" xmlns:xlink="http://www.w3.org/1999/xlink" width="400" height="400" viewBox="0, 0, 400,400"><g id="svgg"><path id="path0" d="M136.267 50.295 C 134.862 51.701,134.375 65.567,134.375 104.219 L 134.375 156.250 125.023 156.250 L 115.672 156.250 115.258 109.766 L 114.844 63.281 80.666 62.860 C 56.771 62.565,45.842 62.975,44.338 64.223 C 42.603 65.663,42.188 74.728,42.188 111.129 L 42.188 156.250 32.344 156.250 C 13.859 156.250,13.572 163.682,31.002 191.018 C 37.741 201.587,43.542 210.919,43.893 211.757 C 44.244 212.596,49.348 220.614,55.235 229.577 C 61.121 238.539,66.326 246.977,66.800 248.327 C 68.773 253.941,72.380 256.250,79.181 256.250 L 86.003 256.250 94.086 243.518 C 101.570 231.730,102.327 231.006,104.298 233.753 C 110.952 243.028,140.012 285.126,152.726 303.906 C 160.870 315.938,168.862 327.233,170.486 329.007 C 172.109 330.781,173.438 332.725,173.438 333.328 C 173.437 334.516,188.522 355.738,191.738 359.075 C 192.925 360.306,196.333 360.928,200.306 360.638 C 207.390 360.121,206.787 360.727,221.559 339.242 C 224.740 334.614,228.750 328.890,230.469 326.522 C 235.547 319.526,252.289 294.650,252.936 293.140 C 253.513 291.793,254.932 289.952,261.876 281.546 L 265.157 277.573 272.032 288.870 C 275.813 295.083,280.313 302.696,282.031 305.788 C 283.750 308.879,291.496 321.322,299.243 333.439 L 313.331 355.469 320.565 355.938 C 327.480 356.387,334.375 351.425,334.375 346.000 C 334.375 345.354,336.133 342.522,338.281 339.705 C 340.430 336.888,342.188 334.242,342.188 333.824 C 342.187 333.407,347.073 325.450,353.044 316.142 C 382.259 270.602,383.909 266.991,378.818 259.723 C 376.811 256.857,374.898 256.250,367.880 256.250 L 359.375 256.250 359.375 208.705 C 359.375 149.881,363.905 156.250,322.062 156.250 C 281.490 156.250,283.776 155.021,283.061 177.215 L 282.528 193.750 273.311 193.750 L 264.094 193.750 263.687 121.484 L 263.281 49.219 200.721 48.811 C 153.365 48.502,137.700 48.863,136.267 50.295 M251.563 129.560 C 251.563 169.021,251.989 202.419,252.511 203.778 C 253.315 205.874,256.883 206.250,275.948 206.250 C 289.899 206.250,298.438 206.843,298.438 207.813 C 298.438 208.672,297.886 209.375,297.212 209.375 C 296.538 209.375,294.834 211.309,293.426 213.672 C 292.018 216.035,289.581 219.394,288.011 221.136 C 286.441 222.879,283.815 226.922,282.176 230.121 C 280.537 233.320,278.603 235.938,277.879 235.938 C 277.155 235.938,276.563 236.883,276.563 238.039 C 276.563 239.195,275.156 241.413,273.438 242.969 C 271.719 244.524,270.313 246.508,270.313 247.377 C 270.313 248.246,269.262 250.070,267.977 251.431 C 262.311 257.436,257.813 263.916,257.813 266.074 C 257.813 267.362,256.752 268.823,255.455 269.320 C 254.159 269.818,252.225 272.178,251.158 274.566 C 249.312 278.697,248.103 280.416,241.797 287.871 C 240.293 289.649,239.063 291.992,239.063 293.078 C 239.063 294.164,238.523 295.286,237.864 295.573 C 237.205 295.859,233.875 299.961,230.465 304.688 C 223.627 314.166,222.027 316.255,219.141 319.474 C 218.066 320.672,217.188 322.100,217.188 322.649 C 217.187 323.976,208.914 335.014,207.422 335.677 C 206.777 335.964,206.227 337.018,206.198 338.021 C 206.169 339.023,204.700 341.582,202.933 343.706 L 199.719 347.568 194.259 341.432 C 191.256 338.057,187.445 332.804,185.789 329.757 C 181.090 321.108,179.276 318.498,173.842 312.563 C 171.056 309.520,168.771 306.152,168.764 305.078 C 168.756 304.004,168.158 303.125,167.434 303.125 C 166.709 303.125,164.792 300.664,163.172 297.656 C 161.552 294.648,159.684 292.188,159.020 292.188 C 158.356 292.188,157.813 291.437,157.813 290.521 C 157.812 289.604,156.055 286.549,153.906 283.733 C 151.758 280.916,150.000 278.121,150.000 277.521 C 150.000 276.334,148.020 273.784,142.578 267.965 C 140.645 265.897,139.063 263.469,139.063 262.571 C 139.063 261.673,138.519 260.938,137.855 260.938 C 137.191 260.938,135.323 258.477,133.703 255.469 C 132.083 252.461,130.166 250.000,129.441 250.000 C 128.717 250.000,128.125 249.048,128.125 247.884 C 128.125 246.721,126.367 243.872,124.219 241.554 C 122.070 239.236,120.313 237.085,120.313 236.775 C 120.313 236.146,110.238 220.421,108.264 217.969 C 106.067 215.239,101.563 207.953,101.563 207.129 C 101.563 206.693,111.582 206.141,123.828 205.902 L 146.094 205.469 146.500 131.641 L 146.906 57.813 199.234 57.813 L 251.563 57.813 251.563 129.560 M106.619 118.359 L 107.031 167.969 116.016 168.437 C 125.245 168.919,126.743 170.046,122.656 173.438 C 121.367 174.507,120.313 176.029,120.313 176.819 C 120.313 177.609,118.879 179.794,117.127 181.675 C 115.375 183.555,113.541 186.690,113.051 188.641 C 112.207 192.006,111.427 192.187,97.799 192.187 C 82.940 192.187,79.688 193.378,79.688 198.816 C 79.688 201.504,80.603 203.024,85.547 208.536 C 86.621 209.734,87.500 211.145,87.500 211.672 C 87.500 212.199,88.877 214.109,90.560 215.915 C 93.483 219.053,92.914 223.521,89.204 226.563 C 88.680 226.992,86.868 229.980,85.177 233.203 C 83.485 236.426,81.608 239.063,81.003 239.063 C 80.399 239.063,79.617 240.645,79.266 242.578 C 78.687 245.763,78.442 245.616,76.661 241.016 C 75.579 238.223,74.060 235.938,73.285 235.938 C 72.509 235.938,71.875 234.883,71.875 233.594 C 71.875 232.305,71.338 231.250,70.681 231.250 C 70.024 231.250,68.263 228.613,66.768 225.391 C 64.041 219.516,60.849 213.962,59.360 212.500 C 57.295 210.472,50.000 198.322,50.000 196.909 C 50.000 196.031,49.379 195.313,48.620 195.313 C 47.861 195.313,46.826 194.082,46.321 192.578 C 45.401 189.836,42.764 185.434,39.844 181.761 C 29.886 169.239,29.929 168.952,41.828 168.430 L 52.344 167.969 52.756 118.359 L 53.169 68.750 79.688 68.750 L 106.206 68.750 106.619 118.359 M347.244 218.359 L 347.656 267.969 357.422 268.434 C 362.793 268.690,367.188 269.331,367.188 269.860 C 367.188 270.858,357.765 286.127,356.301 287.500 C 354.956 288.763,351.745 294.126,348.818 300.000 C 347.320 303.008,344.565 307.162,342.697 309.231 C 340.829 311.300,337.665 316.222,335.666 320.168 C 333.667 324.115,331.504 327.578,330.859 327.865 C 330.215 328.151,329.688 329.331,329.688 330.487 C 329.687 331.643,328.809 333.548,327.734 334.720 C 326.660 335.892,325.001 338.227,324.048 339.910 C 321.849 343.792,320.319 343.775,318.139 339.844 C 317.186 338.125,316.048 336.367,315.610 335.938 C 314.527 334.874,306.079 321.837,303.967 317.969 C 303.028 316.250,298.236 308.667,293.317 301.117 C 288.399 293.568,284.375 286.879,284.375 286.253 C 284.375 285.627,281.917 281.465,278.913 277.004 L 273.450 268.892 283.991 268.431 L 294.531 267.969 294.970 250.731 C 295.370 234.989,295.743 233.105,299.267 229.004 C 301.389 226.535,303.125 223.888,303.125 223.123 C 303.125 222.359,304.883 219.975,307.031 217.827 C 309.180 215.678,310.938 213.382,310.938 212.724 C 310.938 212.065,312.249 210.119,313.851 208.399 C 324.045 197.458,321.283 192.188,305.357 192.188 L 295.313 192.188 295.313 180.469 L 295.313 168.750 321.072 168.750 L 346.831 168.750 347.244 218.359 M133.834 193.249 C 133.429 193.654,131.333 193.756,129.176 193.477 L 125.253 192.969 129.423 185.938 L 133.594 178.906 134.082 185.710 C 134.351 189.451,134.239 192.844,133.834 193.249 " stroke="none" fill="#000000" fill-rule="evenodd"></path></g></svg>