<svg width="192" height="192" viewBox="0 0 192 192" fill="none" xmlns="http://www.w3.org/2000/svg"><circle cx="96" cy="96" r="74" stroke="#000" stroke-width="12" stroke-linecap="round" stroke-linejoin="round"/><path d="M59 120a5 5 0 0 0 10 0H59Zm20.838-52v-5 5ZM64 95.276a5 5 0 1 0 0 10v-10Zm15.838 5v-5 5Zm44.914 0 1.269-4.836-1.269 4.836Zm8.08-12.529a5.001 5.001 0 0 0 4.336-9.011l-4.336 9.011Zm-16.161 25.058a5 5 0 1 0-4.335 9.011l4.335-9.011ZM59 74v46h10V74H59Zm11-1h9.838V63H70v10Zm-6 32.276h15.838v-10H64v10ZM79.838 73c1.572 0 3.124.298 4.566.873l3.703-9.29A22.342 22.342 0 0 0 79.838 63v10Zm4.566.873a11.829 11.829 0 0 1 3.825 2.456l6.934-7.205a21.829 21.829 0 0 0-7.056-4.54l-3.703 9.289Zm3.825 2.456a11.11 11.11 0 0 1 2.51 3.61l9.185-3.954a21.113 21.113 0 0 0-4.76-6.861l-6.935 7.206Zm2.51 3.61a10.61 10.61 0 0 1 .869 4.199h10c0-2.803-.574-5.574-1.684-8.153L90.74 79.94Zm.869 4.199a10.61 10.61 0 0 1-.87 4.199l9.186 3.953a20.612 20.612 0 0 0 1.684-8.152h-10Zm-.87 4.199a11.112 11.112 0 0 1-2.509 3.61l6.934 7.205a21.111 21.111 0 0 0 4.761-6.862l-9.185-3.953Zm-2.509 3.61a11.827 11.827 0 0 1-3.825 2.456l3.703 9.289a21.827 21.827 0 0 0 7.056-4.54l-6.934-7.206Zm-3.825 2.456a12.342 12.342 0 0 1-4.566.873v10c2.833 0 5.642-.537 8.27-1.584l-3.704-9.29Zm40.348-18.851c-3.362 0-7.078 1.11-10.043 3.544-3.098 2.542-5.205 6.408-5.205 11.318h10c0-1.815.687-2.88 1.549-3.588.994-.816 2.402-1.274 3.699-1.274v-10Zm-15.248 14.862c0 6.262 4.494 10.036 7.512 11.884a26.322 26.322 0 0 0 4.362 2.121 25.569 25.569 0 0 0 1.885.632l.139.04.048.012.018.005.008.002.003.001c.002.001.004.001 1.273-4.835a873.505 873.505 0 0 1 1.272-4.836l.003.001.005.001.007.002.004.001-.032-.009a15.784 15.784 0 0 1-1.088-.368 16.333 16.333 0 0 1-2.684-1.297c-2.105-1.29-2.735-2.447-2.735-3.357h-10Zm15.248-4.862c1.51 0 3.458.466 5.263 1.079a31.58 31.58 0 0 1 2.668 1.047 7.84 7.84 0 0 1 .156.072h.001-.003l-.002-.002h-.002s-.001-.001 2.167-4.507c2.168-4.505 2.167-4.505 2.166-4.506h-.001l-.004-.002a.367.367 0 0 0-.033-.016l-.072-.034a30.857 30.857 0 0 0-1.056-.468 41.45 41.45 0 0 0-2.769-1.053c-2.155-.732-5.331-1.61-8.479-1.61v10Zm0 39.448c3.361 0 7.077-1.11 10.043-3.545 3.097-2.542 5.205-6.407 5.205-11.317h-10c0 1.814-.687 2.88-1.55 3.588-.993.815-2.401 1.274-3.698 1.274v10ZM140 110.138c0-6.262-4.494-10.036-7.513-11.885a26.275 26.275 0 0 0-4.362-2.12 25.636 25.636 0 0 0-1.884-.633 12.19 12.19 0 0 0-.14-.039l-.047-.013-.019-.005-.007-.002h-.004c-.001 0-.003-.001-1.272 4.835a832.362 832.362 0 0 1-1.272 4.835h-.003l-.005-.002-.007-.002-.004-.001a15.369 15.369 0 0 1 1.12.378c.767.29 1.746.723 2.684 1.297 2.105 1.289 2.735 2.447 2.735 3.357h10ZM124.752 115c-1.51 0-3.458-.466-5.263-1.079a31.261 31.261 0 0 1-2.669-1.048l-.133-.061-.023-.011c-.001 0-.001 0 0 0l.003.001.002.002h.001c.001 0 .001.001-2.166 4.506-2.168 4.506-2.168 4.506-2.167 4.507h.002l.003.002.009.004.024.012.073.034a28.666 28.666 0 0 0 1.056.467c.683.289 1.642.671 2.769 1.054 2.154.731 5.331 1.61 8.479 1.61v-10ZM69 74a1 1 0 0 1 1-1V63c-6.075 0-11 4.925-11 11h10Z" fill="#000"/></svg>