<svg version="1.0" xmlns="http://www.w3.org/2000/svg" width="256" height="256" viewBox="0 0 192 192"><path d="M39.5 27.9c-5.1 2.3-9.3 6.5-11.6 11.6C26.2 43.2 26 47.2 26 96c0 58.1-.1 56.7 6.6 63.4 6.7 6.7 5.3 6.6 63.4 6.6s56.7.1 63.4-6.6c6.7-6.7 6.6-5.3 6.6-63.4s.1-56.7-6.6-63.4c-6.7-6.7-5.3-6.6-63.4-6.6-48.8 0-52.8.2-56.5 1.9zm110.6 10.4c5.5 3.7 5.4 2.9 5.4 57.7 0 54.8.1 54-5.4 57.7-2.4 1.7-6.6 1.8-53.7 1.8-55.3 0-54.4.1-58.1-5.4-1.6-2.4-1.8-6.8-2.1-50.6-.2-26.4 0-49.9.3-52.2.7-4.7 4.9-9.8 8.8-10.6 1.2-.3 24.7-.4 52.2-.3 45.9.1 50.2.2 52.6 1.9z"/><path d="m62.2 95.7.3 24.8h9l.3-6.6.3-6.5 9.6-1.1c8.5-.9 9.9-1.3 11.9-3.6 4.2-4.9 4.6-21.2.7-26.5-2.9-4-7.4-5.1-20.6-5.1L62 71l.2 24.7zm22.6-14.5c1.4 1.4 1.6 12.6.3 14.7-.6.9-3.2 1.6-7 1.9l-6.1.4V80h5.8c3.2 0 6.3.5 7 1.2zM108 81.7c-4.4 1.6-6 4.5-6 10.9 0 7.6 1 8.8 8.8 10.9 10.3 2.8 10.7 3 11 5.3.5 3.1-1.5 5.2-4.7 5.2-3.3 0-4.8-1-5.2-3.5-.4-1.6-1.2-2-4.9-2h-4.5l.1 3.9c.1 3 .8 4.6 2.9 6.4 2.6 2.2 3.5 2.4 12.3 2 8.3-.3 9.6-.6 11.2-2.5 2.4-3.1 3.3-8.5 2-13.2-1.1-4.2-2.9-5.2-14.5-8.3-4.6-1.3-5-1.6-5-4.3 0-2.8.3-3 4.3-3.3 3.7-.3 4.3 0 5.2 2.2.8 2.2 1.6 2.6 5 2.6 4.8 0 5.7-1.4 4-6.6-.9-2.6-2.1-4-4.6-5-3.2-1.4-14.4-1.8-17.4-.7z"/></svg>