<svg xmlns="http://www.w3.org/2000/svg" width="192" height="192" fill="none" stroke="#000" stroke-linecap="round" stroke-width="12" viewBox="0 0 192 192"><path stroke-width="8" d="M131 150.97c4.08 1.47 8.79-.16 10.52-3.65s-.19-7.51-4.27-8.98l-.49-.18c-4.08-1.47-6-5.49-4.27-8.98s6.43-5.12 10.52-3.65"/><path stroke-linejoin="round" d="M90.023 119.525c-28.147 5.5-45.513 12.232-61.779 30.517-14.272 15.839-1.607 27.686 12.666 13.907 13.051-12.233 30.474-46.034 37.61-61.808 9.516-20.99 20.188-39.661 18.806-64.256s-20.348-18.8-19.577 4.25v-.001 0c1.157 27.686 11.039 34.674 24.868 52.34"/><path d="M106 122c0-8.84 7.16-16 16-16h32c8.84 0 16 7.16 16 16v32a16 16 0 0 1-16 16h-32c-8.84 0-16-7.16-16-16z"/></svg>