<svg version="1.0" xmlns="http://www.w3.org/2000/svg" width="256" height="256" viewBox="0 0 192 192"><path d="M35.6 23c-5.2 2.6-8.3 5.6-10.9 10.5-2.2 3.9-2.2 4.9-2.5 59.5-.2 40 0 56.7.9 59.7 1.4 5.3 6.8 11.7 12.3 14.6 4.1 2.2 4.2 2.2 61.1 2.2s57 0 61.1-2.2c5.3-2.8 10.7-9.1 12.2-14.2 1.8-5.9 1.6-111.3-.2-116.4-2.2-5.9-6.4-10.7-12-13.3-5.1-2.4-5.4-2.4-39.2-2.4-25.1 0-34.3.3-35.2 1.2-1.8 1.8-1.4 6.3.6 8.1 1.7 1.5 5.5 1.7 34.3 1.7 30.7 0 32.6.1 35.7 2 6.2 3.8 6.2 3.5 6.2 61 0 56.5 0 56.5-5.5 60.8-2.8 2.2-2.9 2.2-58 2.2s-55.2 0-58-2.2C33 151.5 33 151.5 33 95c0-57.5 0-57.2 6.2-61 2.4-1.4 5-2 9.6-2H55v65h16V61.7c0-26.3-.3-35.8-1.3-37.7-1.2-2.5-1.4-2.5-15.7-2.7-12.7-.2-15 0-18.4 1.7z"/><path d="M112 87.7c-4.6 1.7-8.8 8.8-9.7 16.3-.5 4.7-.8 4.9-5.3 6.9-7.9 3.4-12.8 4.1-30.8 4.1-14.5 0-17.4.2-17.8 1.5-.4.8 0 2.3.7 3.1 1.2 1.5 3.7 1.6 19.9 1.2 16.1-.5 19.5-.9 26-3l7.6-2.5 2.6 2.9c3.6 4 9.7 3.9 16.1-.2 3.3-2.1 4.7-2.5 4.7-1.5 0 2.2 2.9 4.5 5.8 4.5 5.1 0 13.1-6.3 13.2-10.3 0-3.3-2.9-3-7 .7-6 5.4-7.3 4.9-4.5-1.9 1.2-2.8 1.3-4 .4-5.1-1.8-2.2-4.3-1.7-7.5 1.7-5.1 5.5-10.5 8.9-14 8.9-1.8 0-3.4-.6-3.7-1.3-.2-.6 2.2-3.5 5.3-6.4 9.4-8.6 11.3-15.6 5-18.8-3-1.6-4.5-1.7-7-.8zm4.3 5.9c1 1-2 6-4.9 8.3-3.5 2.7-3.9 2.2-1.9-2.5 2.4-5.8 4.8-7.8 6.8-5.8z"/><path d="M56 101.6c0 1.1 6.1 9.4 6.9 9.4.5 0 1.6-1.1 2.5-2.5.9-1.4 2.3-3.6 3.2-5l1.6-2.5h-7.1c-3.9 0-7.1.3-7.1.6z"/></svg>