<svg xmlns="http://www.w3.org/2000/svg" width="192" height="192" fill="none" viewBox="0 0 192 192"><path stroke="#000" stroke-linecap="round" stroke-linejoin="round" stroke-width="10" d="M113.557 76.486a32 32 0 0 0-37.246 35.968"/><path stroke="#000" stroke-linecap="round" stroke-linejoin="round" stroke-width="10" d="M124 80.287A32 32 0 0 0 108 76m32 32a32 32 0 0 0-4.287-16M124 135.713A32 32 0 0 0 135.713 124M92 135.713A32 32 0 0 0 108 140m-32-32a32 32 0 0 0 4.287 16"/><circle cx="84" cy="84" r="32" stroke="#000" stroke-linecap="round" stroke-linejoin="round" stroke-width="10"/><path stroke="#000" stroke-linecap="round" stroke-width="6" d="m98 80 12 12m-23-5 16 16m-23-5 16 16"/><rect width="142" height="142" x="25" y="25" stroke="#000" stroke-linecap="round" stroke-linejoin="round" stroke-width="12" rx="6"/></svg>