<svg xmlns="http://www.w3.org/2000/svg" width="192" height="192" fill="none" viewBox="0 0 192 192"><path stroke="#000" stroke-linecap="round" stroke-linejoin="round" stroke-width="8" d="M112 63a16 16 0 0 0-16-16 16 16 0 0 0-16 16v16m38 5-18.765 20.397a6 6 0 0 1-4.29 1.936 6 6 0 0 1-4.368-1.756L85 99"/><path stroke="#000" stroke-linecap="round" stroke-linejoin="round" stroke-width="8" d="M123 117V85a6 6 0 0 0-6-6H75a6 6 0 0 0-6 6v32a6 6 0 0 0 6 6h42a6 6 0 0 0 4.243-1.757A6 6 0 0 0 123 117"/><path stroke="#000" stroke-linecap="round" stroke-linejoin="round" stroke-width="10" d="M37 96c0-56 1-57 1-57l58-18 58 18 1 57c-1 56-59 75-59 75s-59-19-59-75"/></svg>