<svg id="svg" version="1.1" xmlns="http://www.w3.org/2000/svg" xmlns:xlink="http://www.w3.org/1999/xlink" width="400" height="400" viewBox="0, 0, 400,400"><g id="svgg"><path id="path0" d="M68.750 42.200 C 59.172 47.375,47.612 59.153,43.186 68.245 C 41.587 71.531,39.653 75.440,38.889 76.932 C 38.114 78.445,37.500 132.551,37.500 199.296 L 37.500 318.947 41.797 327.811 C 47.123 338.798,59.212 351.464,69.519 356.857 L 77.319 360.938 199.206 360.903 C 316.644 360.870,321.339 360.758,327.802 357.824 C 337.224 353.548,352.118 338.809,356.906 329.023 L 360.937 320.782 360.903 199.063 C 360.870 82.801,360.736 77.050,357.896 70.796 C 353.869 61.925,343.335 50.742,332.180 43.494 L 322.953 37.500 200.148 37.528 L 77.344 37.557 68.750 42.200 M312.500 48.438 C 312.500 49.297,313.818 50.000,315.428 50.000 C 322.377 50.000,343.750 66.456,343.750 71.807 C 343.750 72.704,344.306 73.438,344.986 73.438 C 351.762 73.438,355.720 297.962,349.219 313.522 C 347.930 316.607,346.875 320.092,346.875 321.267 C 346.875 325.432,329.512 343.750,325.564 343.750 C 324.395 343.750,323.438 344.338,323.438 345.057 C 323.437 352.039,108.801 355.507,85.259 348.905 C 67.282 343.863,50.000 326.801,50.000 314.094 C 50.000 311.498,49.297 309.375,48.438 309.375 C 47.411 309.375,46.875 271.875,46.875 200.000 C 46.875 128.125,47.411 90.625,48.438 90.625 C 49.297 90.625,50.000 88.402,50.000 85.684 C 50.000 74.170,71.002 50.000,81.007 50.000 C 82.859 50.000,84.375 49.297,84.375 48.438 C 84.375 47.410,123.438 46.875,198.438 46.875 C 273.438 46.875,312.500 47.410,312.500 48.438 M80.675 56.992 C 77.477 59.162,74.541 60.938,74.149 60.938 C 72.000 60.938,61.119 73.936,57.422 80.921 L 53.125 89.040 53.135 199.598 C 53.143 294.697,53.471 310.757,55.478 314.453 C 56.762 316.816,58.704 320.388,59.794 322.391 C 62.206 326.822,69.762 335.937,71.024 335.937 C 71.526 335.937,74.722 337.695,78.125 339.844 C 81.528 341.992,85.733 343.750,87.469 343.750 C 89.205 343.750,90.625 344.453,90.625 345.313 C 90.625 346.339,127.865 346.875,199.219 346.875 C 270.573 346.875,307.813 346.339,307.813 345.313 C 307.813 344.453,309.680 343.750,311.962 343.750 C 321.142 343.750,343.750 321.142,343.750 311.962 C 343.750 309.680,344.453 307.813,345.313 307.813 C 346.339 307.813,346.875 270.052,346.875 197.656 C 346.875 125.260,346.339 87.500,345.313 87.500 C 344.453 87.500,343.750 85.742,343.750 83.594 C 343.750 81.445,343.094 79.688,342.293 79.688 C 341.491 79.688,340.406 78.335,339.882 76.682 C 338.668 72.857,330.906 65.164,321.875 58.834 L 314.844 53.906 200.666 53.477 L 86.488 53.047 80.675 56.992 M306.189 65.745 C 314.998 67.775,325.099 75.985,330.352 85.384 L 334.419 92.660 334.419 198.878 C 334.419 258.748,333.811 305.858,333.026 306.844 C 332.260 307.807,331.113 310.285,330.478 312.351 C 328.550 318.626,319.997 326.798,311.284 330.690 L 303.036 334.375 199.987 334.375 C 84.412 334.375,89.463 334.845,76.997 322.929 C 64.131 310.630,64.903 317.708,64.372 207.161 C 64.098 150.114,64.523 104.847,65.385 99.308 C 67.952 82.824,79.472 69.038,93.437 65.741 C 101.845 63.756,297.574 63.760,306.189 65.745 M101.682 122.795 C 97.307 126.477,96.875 127.675,96.875 136.132 L 96.875 145.425 122.266 181.662 C 136.230 201.592,148.008 218.654,148.438 219.578 C 148.867 220.501,154.141 228.148,160.156 236.571 C 166.172 244.993,171.968 253.394,173.037 255.239 C 192.184 288.302,207.717 297.759,216.134 281.476 C 217.308 279.203,220.226 273.828,222.618 269.531 C 225.010 265.234,229.400 257.148,232.373 251.563 C 235.346 245.977,238.341 240.703,239.028 239.844 C 239.715 238.984,243.077 233.008,246.499 226.563 C 249.921 220.117,254.103 212.383,255.791 209.375 C 257.479 206.367,260.836 200.391,263.250 196.094 C 265.664 191.797,269.907 184.063,272.680 178.906 C 275.452 173.750,279.471 166.367,281.609 162.500 C 283.748 158.633,287.442 151.953,289.817 147.656 C 292.192 143.359,294.752 139.176,295.505 138.359 C 298.862 134.721,297.066 120.420,293.128 119.432 C 283.517 117.019,280.575 119.751,268.148 142.626 C 264.983 148.453,260.893 155.836,259.060 159.032 C 257.227 162.229,254.467 167.305,252.926 170.313 L 250.125 175.781 250.062 170.610 C 250.014 166.612,248.265 163.596,242.362 157.328 C 234.014 148.465,223.438 129.982,223.438 124.256 C 223.438 119.342,221.106 118.750,201.747 118.750 C 183.869 118.750,181.250 119.708,181.250 126.243 C 181.250 128.302,179.958 131.853,178.379 134.134 C 176.800 136.415,175.015 139.336,174.412 140.625 C 171.585 146.666,168.592 150.829,162.778 156.804 C 158.865 160.826,156.285 165.058,155.973 167.969 L 155.469 172.656 152.192 166.406 C 148.746 159.832,144.775 152.699,135.232 135.938 C 124.603 117.268,113.446 112.897,101.682 122.795 M117.690 130.144 C 120.149 132.840,122.783 137.129,126.047 143.750 C 127.530 146.758,129.132 149.570,129.606 150.000 C 130.081 150.430,131.695 153.242,133.193 156.250 C 136.232 162.349,139.382 167.567,140.740 168.750 C 141.233 169.180,142.991 172.868,144.646 176.947 C 146.302 181.026,148.078 184.366,148.593 184.369 C 149.108 184.372,150.834 187.539,152.429 191.406 C 154.023 195.273,155.887 198.438,156.570 198.438 C 157.254 198.438,157.813 199.492,157.813 200.781 C 157.813 202.070,158.516 203.125,159.375 203.125 C 160.234 203.125,160.938 204.445,160.938 206.059 C 160.938 207.672,161.992 209.868,163.281 210.938 C 164.570 212.007,165.625 213.851,165.625 215.035 C 165.625 216.219,166.152 217.190,166.797 217.193 C 167.441 217.197,169.226 220.257,170.762 223.994 C 172.299 227.730,174.821 232.146,176.367 233.806 C 177.914 235.465,179.691 238.909,180.317 241.459 C 181.401 245.869,181.340 245.942,179.059 242.969 C 177.741 241.250,176.640 239.286,176.612 238.604 C 176.585 237.922,174.805 235.468,172.656 233.151 C 170.508 230.834,168.750 228.052,168.750 226.969 C 168.750 225.886,168.158 225.000,167.434 225.000 C 166.709 225.000,164.792 222.539,163.172 219.531 C 161.552 216.523,159.684 214.063,159.020 214.063 C 158.356 214.063,157.813 213.329,157.813 212.432 C 157.813 211.535,156.055 208.905,153.906 206.588 C 151.758 204.271,150.000 201.490,150.000 200.407 C 150.000 199.324,149.457 198.438,148.793 198.438 C 148.129 198.437,146.260 195.977,144.641 192.969 C 143.021 189.961,141.103 187.500,140.379 187.500 C 139.655 187.500,139.063 186.504,139.063 185.286 C 139.063 184.069,138.532 182.839,137.883 182.552 C 137.235 182.266,133.637 177.285,129.887 171.484 C 126.138 165.684,122.450 160.938,121.691 160.938 C 120.933 160.938,120.313 160.143,120.313 159.171 C 120.313 158.199,117.852 153.979,114.844 149.792 C 111.836 145.606,109.375 141.479,109.375 140.621 C 109.375 139.764,108.672 139.063,107.813 139.063 C 104.690 139.063,106.258 131.987,109.766 130.250 C 114.626 127.843,115.579 127.830,117.690 130.144 M214.063 131.724 C 214.063 134.915,218.498 144.913,223.903 153.906 C 224.936 155.625,228.862 160.097,232.628 163.843 C 236.394 167.589,238.834 171.105,238.050 171.655 C 237.267 172.206,233.835 178.281,230.423 185.156 C 227.010 192.031,223.340 198.585,222.266 199.721 C 221.191 200.857,220.313 202.790,220.313 204.018 C 220.313 205.246,219.609 206.250,218.750 206.250 C 217.891 206.250,217.188 207.656,217.188 209.375 C 217.188 211.094,216.656 212.500,216.006 212.500 C 215.357 212.500,213.775 214.785,212.491 217.578 C 210.190 222.583,210.150 222.456,209.702 208.787 C 209.349 198.013,209.785 194.325,211.655 192.258 C 212.979 190.795,214.063 188.423,214.063 186.986 C 214.063 185.550,214.766 184.375,215.625 184.375 C 216.484 184.375,217.188 182.617,217.188 180.469 C 217.188 178.320,216.651 176.563,215.996 176.563 C 215.340 176.563,214.109 174.980,213.261 173.047 C 211.468 168.961,196.863 167.080,192.842 170.418 C 189.726 173.004,189.823 189.577,192.969 192.188 C 195.573 194.349,196.506 221.235,193.921 219.637 C 193.156 219.164,189.567 212.795,185.944 205.482 C 182.322 198.170,178.729 192.188,177.960 192.188 C 177.192 192.188,176.563 191.066,176.563 189.694 C 176.563 187.470,172.333 178.583,170.313 176.563 C 165.871 172.121,166.298 169.554,172.536 163.197 C 182.024 153.527,190.625 138.570,190.625 131.739 C 190.625 128.283,191.138 128.125,202.344 128.125 C 213.536 128.125,214.063 128.287,214.063 131.724 M203.906 182.813 C 203.150 184.036,202.251 184.126,201.210 183.085 C 200.350 182.225,200.158 180.697,200.781 179.688 C 201.537 178.464,202.436 178.374,203.478 179.415 C 204.337 180.275,204.530 181.803,203.906 182.813 M212.493 243.750 C 212.490 244.180,210.543 247.461,208.166 251.042 L 203.846 257.554 200.361 252.236 C 196.188 245.871,196.018 244.144,199.498 243.474 C 203.572 242.689,212.501 242.879,212.493 243.750 " stroke="none" fill="#000000" fill-rule="evenodd"></path></g></svg>