<svg xmlns="http://www.w3.org/2000/svg" width="192" height="192" fill="none" viewBox="0 0 192 192"><path stroke="#000" stroke-linejoin="round" stroke-width="12" d="M73.5 135.062A6.994 6.994 0 0 0 77 136h12a17.001 17.001 0 0 1 0 34H38a15.993 15.993 0 0 1-13.856-8 15.998 15.998 0 0 1 0-16L70.885 36.5A28.998 28.998 0 0 1 110.5 25.885 29.002 29.002 0 0 1 121.115 36.5l46.607 108a16.997 16.997 0 0 1-6.222 23.222 16.997 16.997 0 0 1-23.222-6.222l-36.216-76a6.998 6.998 0 0 0-12.124 0l-19 40a6.999 6.999 0 0 0 2.562 9.562z"/></svg>