<svg xmlns="http://www.w3.org/2000/svg" width="192" height="192" fill="none"><circle cx="142" cy="50" r="22" stroke="#000" stroke-linecap="round" stroke-linejoin="round" stroke-width="12"/><path stroke="#000" stroke-linecap="round" stroke-linejoin="round" stroke-width="12" d="M22 60c0-26.5 24-38 24-38 9.341 2.503 24.742 25.347 31.108 35.348 1.667 2.62.968 6.051-1.543 7.878L60.678 76.052c-1.667 1.213-2.576 3.198-2.064 5.194C60.015 86.702 64.545 98.546 79 113s26.298 18.985 31.754 20.386c1.996.512 3.981-.397 5.194-2.064l10.826-14.887c1.827-2.511 5.259-3.211 7.878-1.543C144.653 121.258 167.497 136.659 170 146c0 0-11.5 24-38 24-38 0-74-36-74-36S22 98 22 60"/></svg>