<svg xmlns="http://www.w3.org/2000/svg" width="192" height="192" fill="none" viewBox="0 0 192 192"><path stroke="#000" stroke-linecap="round" stroke-linejoin="round" stroke-width="8" d="M99 113a17 17 0 1 0 0-34m40 0v34M57 79l17 34M57 79l-17 34m59-34h-6a6 6 0 0 0-6 6v22a6 6 0 0 0 6 6h6m26-34h28M45 105h24"/><path stroke="#000" stroke-linecap="round" stroke-linejoin="round" stroke-width="12" d="M22 66.485a6 6 0 0 1 1.757-4.242l38.486-38.486A6 6 0 0 1 66.485 22h59.03a6 6 0 0 1 4.242 1.757l38.486 38.486A6 6 0 0 1 170 66.485v59.03a6 6 0 0 1-1.757 4.242l-38.486 38.486a6 6 0 0 1-4.242 1.757h-59.03a6 6 0 0 1-4.242-1.757l-38.486-38.486A6 6 0 0 1 22 125.515z"/></svg>