<svg xmlns="http://www.w3.org/2000/svg" width="192" height="192" fill="none" viewBox="0 0 192 192"><path stroke="#000" stroke-linejoin="round" stroke-width="12" d="M40 162V42a8 8 0 0 1 8-8h26V22h44v12h26a8 8 0 0 1 8 8v120a8 8 0 0 1-8 8H48a8 8 0 0 1-8-8Z"/><path stroke="#000" stroke-linejoin="round" stroke-width="12" d="M62 70.185c10.625-.794 22.313-3.962 34-8.185 11.688 4.224 23.375 7.391 34 8.185v24.46c0 17.902-12.801 39.94-34 45.355-21.301-5.415-34-27.453-34-45.355z"/><path stroke="#000" stroke-linecap="round" stroke-linejoin="round" stroke-width="10" d="M99.5 86 89 100h14l-10.5 14"/></svg>