<svg xmlns="http://www.w3.org/2000/svg" width="192" height="192" fill="none"><path stroke="#000" stroke-linecap="round" stroke-linejoin="round" stroke-width="6" d="M107.991 69.403c.148.565-1.52 1.515-3.724 2.12s-4.11.639-4.258.074 1.52-1.515 3.724-2.12 4.11-.639 4.258-.074m18.997 4.971c.147.43-1.071 1.06-2.721 1.405-1.65.346-3.108.278-3.255-.153-.147-.43 1.071-1.06 2.721-1.405 1.65-.346 3.108-.278 3.255.153"/><path stroke="#000" stroke-linecap="round" stroke-linejoin="round" stroke-width="12" d="M96 43c13 0 26 1 48 19 15.956 13.055 26 11 26 25s-47 62-74 62-36-10-46-14-28-6-28-15c0-7.175 8.898-16.257 12.507-19.645a6.95 6.95 0 0 0 1.974-3.288C39.123 87.209 53.35 43 96 43"/></svg>