<?xml version="1.0" encoding="UTF-8" standalone="no"?>
<svg
   viewBox="0 0 24 24"
   xml:space="preserve"
   version="1.1"
   id="svg9"
   width="24"
   height="24"
   xmlns="http://www.w3.org/2000/svg"
   xmlns:svg="http://www.w3.org/2000/svg">
  <defs
   id="defs13" />
  <path
   id="path1804-6"
   style="opacity:1;fill:#000000;fill-opacity:1;stroke:none;stroke-width:0.110803"
   d="M 12 3 C 11.153402 3 10.926496 3.6486456 10.699219 4 C 10.699219 4 5.0702638 13.956075 2.2070312 18.998047 C 1.8753818 19.520013 1.9361201 20.270003 2.4335938 20.703125 C 2.9973964 21.191775 4.0010847 21.070022 4.3769531 20.392578 C 4.3750583 20.394725 10.957031 8.7636719 10.957031 8.7636719 C 11.287233 8.1919776 11.691391 8.1496523 12 8.1503906 C 12.308609 8.1496523 12.712767 8.1919776 13.042969 8.7636719 C 13.042969 8.7636719 19.624942 20.394725 19.623047 20.392578 C 19.998916 21.070022 21.002604 21.191775 21.566406 20.703125 C 22.06388 20.270003 22.124619 19.520013 21.792969 18.998047 C 18.929737 13.956075 13.300781 4 13.300781 4 C 13.073504 3.6486456 12.846598 3 12 3 z M 11.751953 13 C 11.544905 13.0055 11.337192 13.060625 11.144531 13.169922 C 10.528017 13.51966 10.317884 14.288767 10.673828 14.894531 L 13.888672 20.365234 C 14.244617 20.970997 15.028017 21.177863 15.644531 20.828125 C 16.261046 20.478387 16.469226 19.711233 16.113281 19.105469 L 12.898438 13.632812 C 12.653724 13.21635 12.20746 12.987911 11.751953 13 z M 8.875 18 C 8.6597687 18.0052 8.4385792 18.065197 8.2324219 18.185547 C 7.6326914 18.535643 7.3993083 19.255036 7.7109375 19.800781 L 8.0859375 20.458984 C 8.3975667 21.004728 9.1326916 21.162597 9.7324219 20.8125 C 10.33215 20.462405 10.563583 19.743012 10.251953 19.197266 L 9.8769531 18.539062 C 9.6724465 18.180917 9.2858962 17.99001 8.875 18 z " />
</svg>
