<?xml version="1.0" encoding="UTF-8" standalone="no"?>
<!-- Created with Inkscape (http://www.inkscape.org/) -->

<svg
   width="24"
   height="24"
   viewBox="0 0 24 24"
   version="1.1"
   id="svg2922"
   xmlns="http://www.w3.org/2000/svg"
   xmlns:svg="http://www.w3.org/2000/svg">
  <defs
     id="defs2919" />
  <g
     id="layer1">
    <path
       style="fill:#000000;stroke:none;stroke-width:0.0785807;stroke-miterlimit:4;stroke-dasharray:none"
       d="M 2.6611869,20.753134 C 2.2272876,20.533414 2.003918,20.167526 2.000068,19.670176 c -0.002,-0.21264 0.0406,-0.47001 0.093899,-0.57194 0.0533,-0.101919 1.7036074,-2.974464 3.6673644,-6.38343 5.7456516,-9.9740945 5.3382026,-9.3065256 5.8003126,-9.5034253 0.485738,-0.2069696 0.961698,-0.1007498 1.330318,0.2968796 0.17232,0.1858697 1.539447,2.5447261 6.404449,11.0502937 2.222157,3.885034 2.675027,4.727432 2.699426,5.021262 0.0892,1.074278 -1.276258,1.732687 -2.062156,0.994369 -0.159461,-0.1498 -0.955899,-1.468268 -1.998778,-3.308855 -0.953528,-1.682908 -1.903756,-3.359935 -2.111616,-3.726714 -0.595979,-1.051639 -2.350947,-4.1545746 -2.609586,-4.6139738 -0.29582,-0.5254394 -0.569259,-0.781299 -0.943429,-0.8827589 -0.361899,-0.0981 -0.834268,0.013 -1.115188,0.2623996 -0.107709,0.0956 -1.019408,1.6213776 -2.025997,3.3905851 -1.0065985,1.769208 -2.5482961,4.479254 -3.4260047,6.022321 -1.7020175,2.992265 -1.7540373,3.060695 -2.4001563,3.157395 -0.2300797,0.0344 -0.3958494,0.003 -0.6417391,-0.12145 z m 6.0472607,0.0782 C 8.2945882,20.705715 7.7576791,19.978686 7.6250893,19.364368 7.4728795,18.659179 8.0884286,17.932249 8.8377774,17.932249 c 0.5431092,0 0.8836587,0.251551 1.2839176,0.948379 0.619309,1.078159 -0.2652891,2.299166 -1.4132474,1.950707 z m 5.7390114,-0.0616 c -0.172609,-0.0813 -0.3701,-0.214571 -0.43888,-0.29618 -0.112359,-0.13332 -3.003145,-5.200342 -3.316374,-5.813012 -0.18958,-0.370809 -0.1667,-0.962878 0.0497,-1.286837 0.50072,-0.749529 1.614199,-0.694389 2.108328,0.1044 0.2689,0.434699 2.986575,5.196841 3.162535,5.541661 0.17133,0.335759 0.1722,0.861029 0.002,1.219698 -0.25967,0.547219 -0.999719,0.797599 -1.567328,0.53027 z"
       id="path3272" />
  </g>
</svg>
