<svg width="192" height="192" viewBox="0 0 192 192" fill="none" xmlns="http://www.w3.org/2000/svg">
<path d="M96 31C96 31 74.7405 68.7983 81.8919 92.5495C85.2709 103.772 90.7765 113.322 90.7765 113.322M170 159C170 159 147.852 121.715 123.68 116.024C112.259 113.336 101.224 113.322 101.224 113.322M22 159C22 159 65.4079 158.488 82.4289 140.427C90.471 131.894 96 122.357 96 122.357M96 122.357L90.7765 113.322M96 122.357L101.224 113.322M90.7765 113.322H101.224" stroke="black" stroke-width="12" stroke-linejoin="round"/>
<path d="M170 159L96 31L22 159H170Z" stroke="black" stroke-width="12" stroke-linejoin="round"/>
</svg>
