<svg width="192" height="192" viewBox="0 0 192 192" fill="none" xmlns="http://www.w3.org/2000/svg">
<path d="M170 159L96 31L22 159H170Z" stroke="black" stroke-width="12" stroke-linejoin="round"/>
<path d="M170.045 159.25H21.9551L96 31M170.045 159.25L96 31M170.045 159.25C170.045 159.25 141.169 123.947 123.3 112.286C102.303 98.5845 79.8776 105.076 79.8776 105.076M96 31C96 31 79.8641 73.6586 78.7004 94.9637C77.333 119.999 94.1673 136.174 94.1673 136.174" stroke="black" stroke-width="12" stroke-linejoin="round"/>
<path d="M22 159C22 159 67.0113 151.645 86.044 142C108.409 130.667 114 108 114 108" stroke="black" stroke-width="12" stroke-linejoin="round"/>
</svg>
