<svg xmlns="http://www.w3.org/2000/svg" width="192" height="192" fill="none" stroke="#000" stroke-linecap="round" stroke-linejoin="round" stroke-width="12" viewBox="0 0 192 192"><path d="m137.62 55.8 1.634 8.832L170 75.45l-33.67 15.982c-5.442 13.064-14.519 27.667-34.332 34.291l-11.756 36.07-14.839-34.081c-18.376-2.05-26.127-8.848-26.127-8.848-9.147-.756-17.68-1.152-27.276-2.268 37.486-34.922 95.297-66.814 142.48-63.817 3.359 6.169 5.395 16.546 5.52 22.671s.435 27.427-23.5 58.05"/><path d="M22 116.596c.142 15.923 16.407 19.442 24.846 23.279"/><g stroke-width="6"><path d="M91.322 75.972c.363 8.263-3.008 14.087-3.008 14.087s-3.406-4.622-2.298-11.401z"/><path d="m46.49 99.596 23.15-7.509c22.45 20.336 41.59-2.048 43.095-20.602l19.713-13.44"/></g></svg>