<svg width="192" height="192" fill="none" xmlns="http://www.w3.org/2000/svg"><path d="M170 170v-31.051a6 6 0 0 0-2.335-4.75l-30.949-23.875a5.995 5.995 0 0 0-3.882-1.245l-51.447 1.871a6.002 6.002 0 0 0-2.61.704l-53.605 28.651A5.998 5.998 0 0 0 22 145.596V170m97 0 .807-24.2a5.999 5.999 0 0 1 5.996-5.8h10.394a5.999 5.999 0 0 1 5.996 5.8L143 170" stroke="#000" stroke-width="12" stroke-linecap="round" stroke-linejoin="round"/><path d="M90.292 143 90 157h7l-1.292-14h-5.416Zm-24.584 0L66 157h-7l1.292-14h5.416Z" stroke="#000" stroke-width="8" stroke-linecap="round" stroke-linejoin="round"/><path d="m104 86-5 24m39-50-1 24m-38 0-1-23m32 25 5 24" stroke="#000" stroke-width="10" stroke-linecap="round" stroke-linejoin="round"/><path d="M93 87h50M93 65l28.409-17L143 65m-21.591-43v26" stroke="#000" stroke-width="12" stroke-linecap="round" stroke-linejoin="round"/><path d="M121 20.889s-9 2-15 0-14 0-14 0l7 10-7 10s8-3 14 0 15 0 15 0" stroke="#000" stroke-width="10" stroke-linecap="round" stroke-linejoin="round"/></svg>