<svg id="Layer_1" data-name="Layer 1" xmlns="http://www.w3.org/2000/svg" width="192" height="192" viewBox="0 0 192 192"><defs><style>.cls-2{fill:none;stroke:#000;stroke-linejoin:round;stroke-width:12px;stroke-linecap:round}</style></defs><path style="fill:none" d="M0 0h192v192H0z"/><path class="cls-2" d="m65.5 64 31.08-15.96L128.5 64 97.42 79.96 65.5 64z"/><path d="m86.75 122-30-16V76l30 16v30zm48.5-45-30 16v30l30-16V77z" style="fill:none;stroke:#000;stroke-linejoin:round;stroke-width:12px"/><path class="cls-2" d="M96 22c-24 0-39.84 13.93-45.33 19.43C46 46.14 30.51 63 31.25 88.6c.69 23.84 15 39.14 19.42 43.48a66.15 66.15 0 0 0 29.6 16.64L96 170l15.72-21.28a66.05 66.05 0 0 0 29.6-16.64c4.43-4.34 18.74-19.64 19.43-43.48.74-25.6-14.75-42.46-19.43-47.17C135.84 35.93 120 22 96 22Z"/></svg>