<svg width="192" height="192" viewBox="0 0 192 192" fill="none" xmlns="http://www.w3.org/2000/svg"><path d="M169.367 105.659A74.003 74.003 0 0 0 131 30.8V125a6 6 0 0 1-6 6H67a6 6 0 0 1-6-6V30.8a74 74 0 1 0 108.367 74.859Z" stroke="#000" stroke-width="12" stroke-linecap="round" stroke-linejoin="round"/><path d="M109 21v38a6 6 0 0 1-6 6H89a6 6 0 0 1-6-6V21M62 87s0 10 10 10h14c10 0 10 10 10 10m34-20s0 10-10 10h-14c-10 0-10 10-10 10m0 24V65" stroke="#000" stroke-width="10" stroke-linecap="round" stroke-linejoin="round"/></svg>