<?xml version="1.0" encoding="utf-8"?>
<!-- Generator: Adobe Illustrator 19.0.0, SVG Export Plug-In . SVG Version: 6.00 Build 0)  -->
<svg version="1.1" id="Layer_2" xmlns="http://www.w3.org/2000/svg" xmlns:xlink="http://www.w3.org/1999/xlink" x="0px" y="0px"
	 viewBox="0 0 24 24" style="enable-background:new 0 0 24 24;" xml:space="preserve">
<path d="M2.5,16.2c0-0.2,0.1-0.4,0.2-0.8c0.7-2.5,1.4-5,2.1-7.5c0.2-0.5,0.5-0.9,1-1.2c2.6-1.4,5.1-2.8,7.6-4.3
	c0.3-0.1,0.4-0.3,0.7-0.4C15,1.8,16,2,16.5,2.7c0.3,0.4,0.4,0.7,0.6,1.2c1,1.8,1.9,3.5,2.8,5.2c0.4,0.7,0.8,1.5,1.2,2.2
	c0.2,0.4,0.4,0.7,0.4,1.2c0,0.3-0.1,0.5-0.2,0.9c-0.6,2.3-1.3,4.6-2,6.9c0,0.2-0.1,0.3-0.1,0.4c-0.3,0.9-1.2,1.4-2,1.2
	c-1.2-0.4-2.4-0.7-3.6-1.1c-2.8-0.8-5.5-1.6-8.3-2.3c-0.5-0.2-1-0.3-1.5-0.4C3,17.8,2.5,17.1,2.5,16.2z M11.2,10.7
	C11.2,10.7,11.2,10.7,11.2,10.7c-0.4-0.6-0.9-1.2-1.3-1.6c-0.5-0.3-1-0.5-1.6-0.4C7.5,8.8,7,9.1,6.6,9.9c-0.3,0.5-0.4,1.2-0.4,1.8
	c-0.1,0.9-0.1,1.8,0,2.8c0.1,0.5,0.1,1.1,0.4,1.5c0.2,0.4,0.4,0.8,0.8,1c0.8,0.4,1.6,0.4,2.4-0.1c0.5-0.4,1-0.8,1.3-1.3
	c0,0,0-0.1,0.1-0.1c0,0.5,0,1.2,0,1.7c0,0.1,0,0.1,0.1,0.1c0.4,0,0.9,0,1.3,0c0.1,0,0.1,0,0.1-0.1c0-1.2,0-2.5,0-3.7
	c0-0.1,0-0.1,0.1-0.2c0.4-0.6,1-1.3,1.5-2c0.3-0.3,0.4-0.5,0.8-0.7c0.1-0.1,0.3-0.1,0.4-0.1c0.4,0.1,0.5,0.4,0.5,0.7
	c0,0.9,0,1.7,0,2.6c0,1.2,0,2.2,0,3.4c0,0.1,0,0.1,0.1,0.1c0.4,0,0.9,0,1.3,0c0.1,0,0.1,0,0.1-0.1V17c0-2,0-4,0-5.9
	c0-0.2,0-0.4-0.1-0.6C17.3,9.6,16.8,9,16,8.8c-0.8-0.3-1.5-0.1-2,0.4c-0.4,0.4-0.7,0.8-1,1.2c-0.1,0.1-0.2,0.3-0.3,0.4
	c0-1.2,0-2.3,0-3.5c0,0-0.1,0-0.1,0.1c-0.5,0.6-1,1.3-1.5,2c0,0.1-0.1,0.1-0.1,0.2C11.2,9.9,11.2,10.4,11.2,10.7L11.2,10.7z
	 M7.8,14.3c0,0.3,0.1,0.5,0.2,0.8c0.2,0.4,0.4,0.5,0.9,0.4c0.3-0.1,0.5-0.3,0.7-0.5c0.5-0.5,1-1.2,1.4-1.8v-0.1
	c-0.4-0.7-0.8-1.4-1.4-2.1c-0.2-0.3-0.4-0.4-0.7-0.6c-0.4-0.2-0.7-0.1-0.9,0.4c-0.1,0.2-0.1,0.4-0.1,0.5c-0.1,0.5-0.1,1.2-0.1,1.6
	C7.8,13.4,7.8,13.9,7.8,14.3z"/>
</svg>
