<svg xmlns="http://www.w3.org/2000/svg" width="192" height="192" fill="none"><path stroke="#000" stroke-linecap="round" stroke-linejoin="round" stroke-width="12" d="M85.3 96 66.006 85.977 22 63.117V63c0-15.464 12.536-28 28-28s28 12.536 28 28q-.002 1.847-.233 3.632M85.3 96l84.7 44M85.3 96l-19.294 10.023L22 128.883V129c0 15.464 12.536 28 28 28s28-12.536 28-28q-.002-1.847-.233-3.632M85.3 96 170 52"/><path stroke="#000" stroke-linecap="round" stroke-linejoin="round" stroke-width="10" d="m162.763 86 .781 3.83a9.03 9.03 0 0 0 4.125 5.89L171 97.763l-3.829.781a9.03 9.03 0 0 0-5.891 4.125L159.237 106l-.781-3.829a9.03 9.03 0 0 0-4.125-5.891L151 94.237l3.829-.781a9.03 9.03 0 0 0 5.891-4.125z"/></svg>