<svg xmlns="http://www.w3.org/2000/svg" width="192" height="192" viewBox="0 0 50.8 50.8"><path d="M148.047 40.736a6 6 0 0 0-4.248 1.953l-42.354 46.43a43.316 43.316 0 0 1 5.256 12.049l35.533-38.961v49.355h-34.12c.002.22.01.437.01.657 0 3.929-.516 7.727-1.473 11.347h35.584v21.356a6 6 0 0 0 6.002 5.994 6 6 0 0 0 5.994-5.994v-21.356h15.767a6 6 0 0 0 6-6.002 6 6 0 0 0-6-6.001H154.23V46.727a6 6 0 0 0-3.832-5.588 6 6 0 0 0-2.351-.403z" style="color:#000;fill:#000;stroke-width:3.77953;stroke-linecap:round;stroke-linejoin:round;-inkscape-stroke:none" transform="scale(.26458)"/><path d="M16.248 11.266c-2.56 1.47-5.463 4.056-7.824 7.275-2.362 3.219-4.192 7.088-4.192 11.15 0 5.764 5.077 10.332 11.118 10.332 6.06 0 11.14-4.568 11.14-10.332 0-5.744-5.08-10.308-11.14-10.308-1.456 0-2.845.29-4.131.773 2.064-2.727 4.639-5.003 6.611-6.136a1.587 1.587 0 0 0 .586-2.168 1.587 1.587 0 0 0-2.168-.586zm-.898 11.29c4.486 0 7.964 3.277 7.964 7.135 0 3.886-3.478 7.157-7.964 7.157-4.46 0-7.942-3.27-7.942-7.157 0-3.858 3.481-7.134 7.942-7.134z" style="color:#000;fill:#000;stroke:none;stroke-width:3.175;stroke-linecap:round;stroke-linejoin:round;stroke-miterlimit:4;stroke-dasharray:none;paint-order:markers fill stroke"/></svg>