<svg xmlns="http://www.w3.org/2000/svg" width="192" height="192" fill="none"><path stroke="#000" stroke-linecap="round" stroke-linejoin="round" stroke-width="12" d="M128 109a31.997 31.997 0 0 0-32-32 32 32 0 0 0-32 32m32-86v32m-32 54v32m64-32v32m42-32h-20m-1.678-52.325L134.18 70.819M43.67 56.683l14.143 14.142M42 109H22m32 38a6 6 0 0 1 6-6h72a6 6 0 0 1 6 6v14a6 6 0 0 1-6 6H60a6 6 0 0 1-6-6z"/><circle cx="96" cy="109" r="4" stroke="#000" stroke-linecap="round" stroke-linejoin="round" stroke-width="8"/></svg>