<svg xmlns="http://www.w3.org/2000/svg" width="192" height="192" fill="none"><path stroke="#000" stroke-linecap="round" stroke-linejoin="round" stroke-width="8" d="M132 117v30m10.607-25.607-21.214 21.214M117 132h30m-25.607-10.607 21.214 21.214"/><ellipse cx="44.536" cy="90.535" stroke="#000" stroke-linecap="round" stroke-linejoin="round" stroke-width="6" rx="2" ry="3" transform="rotate(45 44.536 90.535)"/><ellipse cx="58.536" cy="102.536" stroke="#000" stroke-linecap="round" stroke-linejoin="round" stroke-width="6" rx="2" ry="3" transform="rotate(45 58.536 102.536)"/><path stroke="#000" stroke-linecap="round" stroke-linejoin="round" stroke-width="12" d="M25 45c0-11.046 8.954-20 20-20h102c11.046 0 20 8.954 20 20v102c0 11.046-8.954 20-20 20H45c-11.046 0-20-8.954-20-20zm35 10h72"/><path stroke="#000" stroke-linecap="round" stroke-linejoin="round" stroke-width="10" d="M26 106c0 9 12 23 29 15"/></svg>