<svg width="192" height="192" fill="none" xmlns="http://www.w3.org/2000/svg"><path d="M132 117v30m10.607-25.607-21.214 21.214M117 132h30m-25.607-10.607 21.214 21.214" stroke="#000" stroke-width="8" stroke-linecap="round" stroke-linejoin="round"/><ellipse cx="44.536" cy="90.535" rx="2" ry="3" transform="rotate(45 44.536 90.535)" stroke="#000" stroke-width="6" stroke-linecap="round" stroke-linejoin="round"/><ellipse cx="58.536" cy="102.536" rx="2" ry="3" transform="rotate(45 58.536 102.536)" stroke="#000" stroke-width="6" stroke-linecap="round" stroke-linejoin="round"/><path d="M25 45c0-11.046 8.954-20 20-20h102c11.046 0 20 8.954 20 20v102c0 11.046-8.954 20-20 20H45c-11.046 0-20-8.954-20-20V45Zm35 10h72" stroke="#000" stroke-width="12" stroke-linecap="round" stroke-linejoin="round"/><path d="M26 106c0 9 12 23 29 15" stroke="#000" stroke-width="10" stroke-linecap="round" stroke-linejoin="round"/></svg>