<svg xmlns="http://www.w3.org/2000/svg" width="192" height="192" fill="none"><path stroke="#000" stroke-linecap="round" stroke-linejoin="round" stroke-width="12" d="M40 107V68a6 6 0 0 0-6-6h-8m54 45V82c0-25 26-44 45-44 27 0 40-16 40-16"/><path stroke="#000" stroke-linecap="round" stroke-linejoin="round" stroke-width="12" d="M100 121V90c0-18.778 17.294-29.852 34.412-29.852S161 50 161 50M36 60s0-10 12-10 13-6 13-6m19 63a20 20 0 0 1-40 0m60 14a30.002 30.002 0 0 1-45 25.981M120 130v-27.5m41 5.5v-5.5M120 130a40.9 40.9 0 0 1-2.969 15.307 40.1 40.1 0 0 1-8.454 12.977 38.9 38.9 0 0 1-12.652 8.671A38.2 38.2 0 0 1 81 170"/><path stroke="#000" stroke-linecap="round" stroke-linejoin="round" stroke-width="12" d="M120 102.5a20.5 20.5 0 0 1 6.004-14.496A20.5 20.5 0 0 1 140.5 82a20.5 20.5 0 0 1 20.5 20.5m0 5.5a11 11 0 0 1-20.526 5.5"/></svg>