<svg xmlns="http://www.w3.org/2000/svg" width="192" height="192" fill="none"><path stroke="#000" stroke-linecap="round" stroke-linejoin="round" stroke-width="10" d="M125.5 67.11C116.531 61.142 106.357 58 96 58s-20.53 3.142-29.5 9.11m45 15.713C106.787 79.663 101.442 78 96 78s-10.787 1.663-15.5 4.823"/><path stroke="#000" stroke-linecap="round" stroke-linejoin="round" stroke-width="12" d="M51 132H32c-5.523 0-10-4.477-10-10V42c0-5.523 4.477-10 10-10h128c5.523 0 10 4.477 10 10v80c0 5.523-4.477 10-10 10h-19"/><path stroke="#000" stroke-linecap="round" stroke-linejoin="round" stroke-width="12" d="M75 110a6 6 0 0 1 6-6h30a6 6 0 0 1 6 6v48a6 6 0 0 1-6 6H81a6 6 0 0 1-6-6z"/><path stroke="#000" stroke-linecap="round" stroke-linejoin="round" stroke-width="8" d="M99 146h-6"/></svg>