<svg width="192" height="192" viewBox="0 0 192 192" fill="none" xmlns="http://www.w3.org/2000/svg">
<path d="M41.5917 45.8429C48.5216 38.3256 56.934 32.326 66.2984 28.2223C75.6628 24.1186 85.7759 22 96 22C115.626 22 134.448 29.7964 148.326 43.6741C162.204 57.5518 170 76.374 170 96V96C170 115.626 162.204 134.448 148.326 148.326C141.454 155.197 133.297 160.648 124.319 164.367C115.34 168.086 105.718 170 96 170C76.374 170 57.5518 162.204 43.6741 148.326C29.7964 134.448 22 115.626 22 96C22 85.4341 24.2627 74.9907 28.6358 65.3722" stroke="black" stroke-width="12" stroke-linecap="round" stroke-linejoin="round"/>
<path d="M29.3257 64.3122L76.8411 87.5429" stroke="black" stroke-width="12" stroke-linecap="round"/>
<path d="M96 116.714C107.44 116.714 116.714 107.44 116.714 96C116.714 84.5599 107.44 75.2859 96 75.2859C84.5599 75.2859 75.2859 84.5599 75.2859 96C75.2859 107.44 84.5599 116.714 96 116.714Z" stroke="black" stroke-width="12" stroke-linecap="round" stroke-linejoin="round"/>
</svg>
