<svg xmlns="http://www.w3.org/2000/svg" xml:space="preserve" id="图层_2" x="0" y="0" style="enable-background:new 0 0 192 192" version="1.1" viewBox="0 0 192 192"><style>.st1{fill:none;stroke:#000;stroke-width:12;stroke-linecap:round}</style><path d="M142 146.7H54.6c-.3 0-.6 0-.9-.1-3.7-.6-10.3-2.2-16.8-7.3-6-4.7-9-10-9.9-11.9-2.8-5.3-3.5-10-3.9-12.4-.4-2.7-1.1-7.5.2-13.6 1.5-7.2 4.9-12 6.4-14.1 2.4-3.2 6.8-8.3 14-11.9 3.6-1.8 6.9-2.7 9.6-3.2 1.6-.3 3-1.3 3.9-2.7 1.7-2.7 4.1-5.9 7.3-9.2 2.6-2.6 6.6-6.6 13.1-9.6 7.4-3.3 14-3.4 17.3-3.4 11.2 0 19.6 4.1 23 6 3.5 2 13.7 7.9 19.3 20.3 1.1 2.5 1.9 4.8 2.4 6.9.6 2.4 2.6 4.2 5.1 4.4 1.7.2 3.7.6 5.7 1.4 3.2 1.3 5.5 3.2 6.8 4.5 1.7 1.4 3.7 3.3 5.5 6.1.9 1.3 1.6 2.5 2.1 3.7.7 1.1 1.3 2.4 2 3.8 1 2.4 1.6 4.6 2 6.4 0 .2.1.5.1.7 0 .4.1.9.1 1.5.1 1.1.2 1.4.2 2s0 .9-.1 2c-.1.6-.1 1.4-.2 2.4 0 .2 0 .4-.1.6-.1.6-.2 1.2-.4 1.9s-.3 1.5-.5 2.3c-.4 1.5-.8 3-1.2 4.4-.1.2-.2.5-.3.7-.9 2-1.9 3.3-2.6 4.2-.6.7-1.1 1.6-2 2.7-.2.2-1.2 1.4-2.7 2.7-2.2 1.9-5.2 4.7-9.8 6.3-1.6.7-4.1 1.4-7.3 1.5z" style="fill:none;stroke:#000;stroke-width:12;stroke-miterlimit:10"/><path d="m93.2 82-16 34" class="st1"/><path d="M103.2 110h-20" style="fill:none;stroke:#000;stroke-width:10;stroke-linecap:round"/><path d="m93.2 82 16 34" class="st1"/></svg>