<svg xmlns="http://www.w3.org/2000/svg" width="192" height="192" fill="none" viewBox="0 0 192 192"><path stroke="#000" stroke-linecap="round" stroke-linejoin="round" stroke-width="12" d="M107.765 93.92a33.2 33.2 0 0 0-13.618-.401c-4.513.808-8.76 2.54-12.41 5.06-3.65 2.522-6.608 5.765-8.643 9.479C71.059 111.773 70 115.859 70 120"/><path stroke="#000" stroke-linecap="round" stroke-linejoin="round" stroke-width="12" d="M33.154 128.937A20 20 0 0 0 42 131c12.453 0 23.628-7.777 28-11 .17 1.901.725 4.271 1.515 6.016a17 17 0 0 0 30.333 1.263 18 18 0 0 0 29.593-8.826 20 20 0 0 0 15.948 12.376 20.001 20.001 0 0 0 9.04-38.768 20 20 0 0 0-8.548-.948 15 15 0 0 0-20.884-11.86A20 20 0 0 0 108 53c-22.272 0-34.421 15.185-38.46 21.398a16 16 0 0 0-22.31 17.298 20 20 0 0 0-14.075 37.241Z"/></svg>