<?xml version="1.0" encoding="utf-8"?>
	<svg version="1.1" xmlns="http://www.w3.org/2000/svg" xmlns:xlink="http://www.w3.org/1999/xlink" x="0px" y="0px" width="192.0" height="192.0" xml:space="preserve">
		<path d="M76.3,139.9c-10,0-20,0-30,0c-1.3,0-2.5-0.1-3.7-0.5c-4.7-1.7-7.6-5.1-7.7-10.1c-0.3-14.8-0.3-29.7-0.4-44.4 c0-1.3,0.5-1.6,1.7-1.6c2.5,0.1,5.2,0.2,7.7,0.2c16.7,0,33.5,0,50.2,0c17.9,0,35.9-0.1,53.8-0.2c1.7,0,2.6,0.3,3.3,2 c0.7,2.2,2.9,3.1,5.5,2.6c2.6-0.4,4.2-1.8,4.4-4.2c0.2-2.8,0.3-5.7,0.3-8.4c-0.1-5.7,0.2-11.5-0.7-17.1 c-1.5-8.4-6.7-14.2-15.2-16.5c-3.1-0.8-6.4-0.7-9.6-0.8c-1.5-0.1-1.8-0.5-1.8-1.9c0-3.8,0.1-7.6-0.2-11.4 c-0.5-6-6.5-11.6-12.5-11.6c-19.2,0-38.1,0-57,0.1c-5.2,0-9,2.5-11.5,6.9c-1.9,3.4-2.1,6.9-2.1,10.6c0,2.3,0,4.6,0,7.2 c-2.3,0-4.3-0.1-6.3,0c-5.1,0.2-9.6,2-13.4,5.5c-5.3,4.8-7.5,10.9-7.5,17.9c0,21.4-0.1,42.6,0,64c0,3.9,0.9,7.7,2.9,11.2 c4.5,7.9,11.6,11.4,20.4,11.5c9.2,0.1,18.4,0,27.6,0c1.3,0,2.5-0.2,3.7-0.5c2.8-0.8,4.2-3.2,3.5-6C81,141.3,79.3,139.9,76.3,139.9 L76.3,139.9z" fill="" stroke="" stroke-width="" stroke-miterlimit=""/>
		<path d="M167.9,123.1c-0.8-5.5-6.7-7.9-11.1-4.3c-2.7,2.3-5.3,4.8-7.8,7.3c-1.4,1.3-1.9,1.5-3.2,0.1 c-2.2-2.3-4.4-4.7-6.6-7.1c-1.1-1.1-1.2-2,0-3.2c2.5-2.5,4.9-5.2,7.3-7.8c3.4-3.9,1.6-9.7-3.5-10.7c-2.8-0.6-5.9-0.8-8.7-0.6 c-11.8,0.9-20.2,7.2-25.6,17.5c-3.6,6.8-3.8,14.3-2.3,21.8c0.2,0.8-0.2,1.9-0.6,2.5c-1.4,1.7-2.9,3.2-4.4,4.7 c-3.5,3.6-7.2,7.1-10.4,10.7c-2.6,2.9-2.6,7.5,0,10.4c2.8,3.3,5.9,6.3,9.2,9.2c4,3.4,8.2,3.2,12-0.5c4.7-4.5,9.4-9.2,14-13.8 c0.9-0.9,1.9-1.2,3.2-0.9c2.6,0.5,5.3,0.8,7.6,1.3c10.4-0.8,19-4.5,25.1-12.7c2.2-3.1,4.3-6.3,5.5-9.9 C168.7,132.5,168.6,127.7,167.9,123.1L167.9,123.1z" fill="" stroke="" stroke-width="" stroke-miterlimit=""/>
		<path d="M50.9,40.8c0-2.5,0-4.8,0-7.2c0-3.7,0.2-7.4,2.1-10.6c2.5-4.4,6.3-6.9,11.5-6.9C83.3,16,102.2,16,121.1,16 c6,0,12.1,5.6,12.5,11.6c0.3,3.8,0.3,7.6,0.2,11.4c0,1.4,0.3,1.8,1.8,1.9c3.3,0.1,6.5,0,9.6,0.8c8.4,2.3,13.7,8,15.2,16.5 c0.9,5.6,0.6,11.4,0.7,17.1c0.1,2.8-0.1,5.7-0.3,8.4c-0.2,2.4-1.8,3.8-4.4,4.2c-2.5,0.4-4.6-0.4-5.5-2.6c-0.6-1.7-1.6-2-3.3-2 c-17.9,0.1-35.9,0.2-53.8,0.2c-16.7,0-33.5,0-50.2,0c-2.5,0-5.2-0.1-7.7-0.2c-1.1,0-1.7,0.3-1.7,1.6c0.1,14.8,0.2,29.7,0.4,44.4 c0.1,5.1,3.1,8.4,7.7,10.1c1.2,0.4,2.4,0.5,3.7,0.5c10,0,20,0,30,0c3.1,0,4.8,1.4,5.5,4.3c0.6,2.8-0.6,5.3-3.5,6 c-1.2,0.3-2.4,0.5-3.7,0.5c-9.2,0.1-18.4,0.1-27.6,0c-8.8-0.1-15.9-3.6-20.4-11.5c-2-3.5-2.9-7.3-2.9-11.2 c0.2-21.3,0.2-42.6,0.3-63.9c0-6.9,2.2-13.1,7.5-17.9c3.8-3.5,8.3-5.2,13.4-5.5C46.6,40.7,48.6,40.8,50.9,40.8L50.9,40.8z M34.6,72.3c0.7,0,70,0.1,104.2,0.1c3.4,0,6.7,0,10,0.1c1.3,0,1.6-0.4,1.5-1.6c-0.1-2.6,0-5.2,0-7.8c0-6.7-4.6-11.5-11.4-11.5 c-31.1,0-62.2,0-93.3,0c-4.7,0-8.6,2.7-10.2,7.3C33.8,63.3,34.8,65.7,34.6,72.3L34.6,72.3z M123,40.7c0-3.5,0-6.7,0-10 s-0.5-3.8-3.8-3.8c-17.9,0-35.7,0-53.6-0.1c-3.1,0-3.9,0.7-3.9,3.7c-0.1,2.5,0,5.1,0,7.6s0,2.5,2.4,2.5c18.2,0,36.4,0,54.7,0 C120.1,40.7,121.4,40.7,123,40.7L123,40.7z" fill="#000" stroke="" stroke-width="" stroke-miterlimit=""/>
		<path d="M136.7,159.6c-2.3-0.4-4.9-0.7-7.6-1.3c-1.3-0.2-2.2-0.1-3.2,0.9c-4.6,4.6-9.3,9.3-14,13.8c-3.8,3.6-8,3.9-12,0.5 c-3.3-2.7-6.3-5.9-9.2-9.2c-2.6-2.9-2.5-7.6,0-10.4c3.3-3.7,7-7.2,10.4-10.7c1.5-1.6,3.1-3.1,4.4-4.7c0.5-0.6,0.8-1.8,0.6-2.5 c-1.5-7.5-1.3-15,2.3-21.8c5.4-10.2,13.8-16.4,25.6-17.5c2.8-0.2,5.9,0,8.7,0.6c5.1,1.1,6.8,6.8,3.5,10.7c-2.3,2.7-4.8,5.3-7.3,7.8 c-1.2,1.2-1.1,2.1,0,3.2c2.2,2.3,4.4,4.7,6.6,7.1c1.3,1.4,1.9,1.2,3.2-0.1c2.5-2.5,5.1-5.1,7.8-7.3c4.3-3.6,10.1-1.3,11.1,4.3 c0.7,4.6,1.1,9.7-0.4,14.1c-1.2,3.5-3.4,6.6-5.6,9.7C155.7,155.1,147,158.8,136.7,159.6L136.7,159.6z" fill="#000" stroke="" stroke-width="" stroke-miterlimit=""/>
		<path d="M123,30.7c0-3.3-0.5-3.8-3.8-3.8c-17.9,0-35.7,0-53.6-0.1c-3.1,0-3.9,0.7-3.9,3.7c-0.1,2.5,0,5.1,0,7.6 s0,2.5,2.4,2.5c18.2,0,36.4,0,54.7,0c1.3,0,2.6,0,4.2,0C123,37.3,123,34,123,30.7L123,30.7z" fill="" stroke="" stroke-width="" stroke-miterlimit=""/>
	</svg>
