<svg width="192" height="192" fill="none" xmlns="http://www.w3.org/2000/svg"><path d="M35 107c-2-6-13-9-13-21 0-6 5-8 10-8 16 0 21 4.5 27 7s12 8 25 8 24-8 24-8c20 14 30-7 62-7M68 138h38" stroke="#000" stroke-width="12" stroke-linecap="round" stroke-linejoin="round"/><path d="M45 80c15.763 15.763 7.452 34.966 36.455 37.676M170 78c-40.848 0-42.914 37.836-77.955 39.911M87 127.5c0 5.25-3 10.5-9 10.5m9-10.5c0 5.25 3 10.5 9 10.5m-9-10.5c0-3.931 1.682-7.861 5.045-9.589M87 127.5c0-4.121-1.848-8.242-5.545-9.824m10.59.235-10.59-.235M109 86s-9-18-25-18-21 18-21 18" stroke="#000" stroke-width="12" stroke-linecap="round" stroke-linejoin="round"/><path d="m82 55 4 5 4-5-4-5-4 5Z" stroke="#000" stroke-width="8" stroke-linecap="round" stroke-linejoin="round"/><circle cx="35" cy="107" r="4" stroke="#000" stroke-width="8" stroke-linecap="round" stroke-linejoin="round"/></svg>