<svg xmlns="http://www.w3.org/2000/svg" width="192" height="192" fill="none"><path stroke="#000" stroke-linecap="round" stroke-linejoin="round" stroke-width="12" d="M71 69s-5 5-13 5-16-7-16-21c0-28 30-31 38-31 42 0 48 7 73 1-4 69-3 121-3 121l12 9m-12 17 20-20m-98 18 20-20"/><path stroke="#000" stroke-linecap="round" stroke-linejoin="round" stroke-width="12" d="M43 56c10-21 84-4 84-4v102.109C137.99 163.695 150 170 150 170m-128 0c22-24 50-2 50-2"/><path stroke="#000" stroke-linecap="round" stroke-linejoin="round" stroke-width="12" d="M22 170c24-59 64-17 64-17m16-105-37 91m60-35H81"/></svg>