<svg width="192" height="192" viewBox="0 0 192 192" fill="none" xmlns="http://www.w3.org/2000/svg">
<path d="M135.776 133.646L133.253 102.818C133.136 101.393 132.647 100.028 131.795 98.8836C128.994 95.1171 122.064 86.2466 115.783 81.7807C113.614 80.2387 109.221 78.638 103.354 77.3468M135.776 133.646C156.379 123.438 164.063 110.441 170.841 77.4286C171.234 75.5118 170.891 73.4921 169.893 71.8125C148.803 36.2893 138.063 34.2547 119.374 22.2894C118.083 21.463 116.588 21.0036 115.059 21.0009C86.8746 20.9528 63.6017 22.7403 48.7774 24.9823M135.776 133.646C132.96 146.355 129.292 154.602 123.888 157.745C118.484 160.888 89.1218 172.364 61.5 171M37.4297 81.2568H33.9969C31.1132 81.2568 28.4565 79.6795 27.0579 77.1369L21.9834 67.9124C21.1371 66.3738 20.8136 64.6128 21.1046 62.8781C22.4335 54.9569 26.7622 31.8976 32.5664 28.8675C35.0168 27.5883 40.6171 26.2165 48.7774 24.9823M37.4297 81.2568C60.192 72.5978 87.2951 73.8125 103.354 77.3468M37.4297 81.2568C37.8147 86.347 38.2189 89.5197 38.4152 94M61.5 171C47.1815 166.768 38.1126 160.558 33.1033 148.643C32.7252 147.744 32.5715 146.766 32.601 145.79C33.0327 131.501 36.3295 111.02 38.0819 104.621C38.3335 103.702 38.5194 102.772 38.5281 101.819C38.5568 98.6585 38.5105 96.1751 38.4152 94M61.5 171C60.8273 166.384 58.5244 163.979 61.5 158.5M48.7774 24.9823C61.3482 31.1143 70.3686 37.0875 77.904 44.0604M103.354 77.3468C94.486 63.1468 87.3655 52.8156 77.904 44.0604M77.904 44.0604C106.63 38.8467 122.831 38.916 151.987 47.2038M38.4152 94C43.4106 93.8882 51.9218 92.5 55.8892 94.5" stroke="black" stroke-width="10" stroke-linecap="round" stroke-linejoin="round"/>
<path d="M78 95.2197C84.0448 96.1099 95.5001 91.7377 105.5 95.5" stroke="black" stroke-width="10" stroke-linecap="round" stroke-linejoin="round"/>
<path d="M55 114V115M95 113V114" stroke="black" stroke-width="10" stroke-linecap="round" stroke-linejoin="round"/>
<path d="M85.0624 133.482C91.5 134.5 101.5 129.5 110.803 130.669M66.5279 133.496C62.5001 134 55.5 132 51 133.342" stroke="black" stroke-width="8" stroke-linecap="round" stroke-linejoin="round"/>
<path d="M78 150.907C84.7161 151.113 87.5752 151.008 94.6863 150.284C96.4118 149.869 98.6449 148.652 100 148" stroke="black" stroke-width="6" stroke-linecap="round" stroke-linejoin="round"/>
<path d="M47.0143 45.1279C42.3929 45.9209 39.3118 50.1843 40.1323 54.6505C40.6741 57.5996 42.7815 59.8996 45.4812 60.8937C46.4298 61.243 47.4276 60.694 47.8294 59.7931C48.4593 58.3808 50.3785 58.0514 51.4729 59.1679C52.1711 59.8801 53.3034 60.0635 54.0696 59.42C56.2502 57.5885 57.4095 54.7279 56.8677 51.7788C56.0472 47.3126 51.6356 44.3349 47.0143 45.1279Z" stroke="black" stroke-width="6" stroke-linejoin="round"/>
</svg>
