<svg width="192" height="192" fill="none" xmlns="http://www.w3.org/2000/svg"><path d="m96 25 11.393 28.48L131.5 34.512l-4.373 30.361 30.361-4.373-18.968 24.107L167 96l-28.48 11.393 18.968 24.107-30.361-4.373 4.373 30.361-24.107-18.968L96 167l-11.393-28.48L60.5 157.488l4.373-30.361-30.36 4.373 18.967-24.107L25 96l28.48-11.393L34.512 60.5l30.361 4.373-4.373-30.36L84.607 53.48 96 25Z" stroke="#000" stroke-width="12" stroke-linejoin="round"/><path d="m80 113.999 8.78-31.605A6 6 0 0 1 94.56 78h2.88a6 6 0 0 1 5.781 4.394L112 114m-5-11.001H85" stroke="#000" stroke-width="10" stroke-miterlimit="6" stroke-linecap="round" stroke-linejoin="round"/></svg>