<svg width="192" height="192" fill="none" xmlns="http://www.w3.org/2000/svg"><path d="M161 25H31a6 6 0 0 0-6 6v78l58.243-58.243A6 6 0 0 1 87.485 49H116a6 6 0 0 1 6 6v56a6 6 0 0 0 6 6h33a6 6 0 0 0 6-6V31a6 6 0 0 0-6-6Z" stroke="#000" stroke-width="12" stroke-linecap="round" stroke-linejoin="round"/><path d="M31 167h130a6 6 0 0 0 6-6v-12a6 6 0 0 0-6-6h-59a6 6 0 0 1-6-6V75l-69.243 69.243A5.998 5.998 0 0 0 25 148.485V161a6 6 0 0 0 6 6Z" stroke="#000" stroke-width="12" stroke-linecap="round" stroke-linejoin="round"/></svg>