<svg width="192" height="192" fill="none" xml:space="preserve" xmlns="http://www.w3.org/2000/svg"><path style="fill:none;stroke:#000;stroke-width:7.99998;stroke-linecap:round;stroke-linejoin:miter;stroke-dasharray:none;stroke-opacity:1" d="M42.54 154.694h8.957"/><path style="opacity:1;stroke:#000;stroke-width:7.99998;stroke-linecap:round;stroke-linejoin:round;stroke-dasharray:none;stroke-opacity:1" d="M70.12 166.218a10.3 10.544 0 0 1-8.92-5.272 10.3 10.544 0 0 1 0-10.544 10.3 10.544 0 0 1 8.92-5.272m44.687 21.066a4.992 5.548 0 0 1-4.323-2.774 4.992 5.548 0 0 1 0-5.549 4.992 5.548 0 0 1 4.323-2.774"/><path style="opacity:1;fill:none;stroke:#000;stroke-width:7.99998;stroke-linecap:round;stroke-linejoin:miter;stroke-dasharray:none;stroke-opacity:1" d="M69.365 145.13h3.722"/><path style="fill:none;stroke:#000;stroke-width:7.99998;stroke-linecap:round;stroke-linejoin:miter;stroke-dasharray:none;stroke-opacity:1" d="M70.12 166.218h3.722m10.574 0v-33.099"/><path style="fill:none;stroke:#000;stroke-width:7.99998;stroke-linecap:butt;stroke-linejoin:miter;stroke-dasharray:none;stroke-opacity:1" d="M84.416 145.13h8.965c5.846 0 5.846 5.013 5.846 5.013"/><path style="opacity:1;fill:none;stroke:#000;stroke-width:7.99998;stroke-linecap:round;stroke-linejoin:miter;stroke-dasharray:none;stroke-opacity:1" d="M112.488 145.108h5.741c5.846 0 5.846 5.013 5.846 5.013"/><path style="fill:none;stroke:#000;stroke-width:7.99998;stroke-linecap:round;stroke-linejoin:miter;stroke-dasharray:none;stroke-opacity:1" d="M99.227 166.218v-16.075"/><path style="opacity:1;fill:none;stroke:#000;stroke-width:7.99998;stroke-linecap:round;stroke-linejoin:miter;stroke-dasharray:none;stroke-opacity:1" d="M134.65 166.218V145.13"/><path style="opacity:1;fill:none;stroke:#000;stroke-width:7.99998;stroke-linecap:butt;stroke-linejoin:miter;stroke-dasharray:none;stroke-opacity:1" d="M134.65 145.13h8.964c5.846 0 5.846 5.013 5.846 5.013"/><path style="opacity:1;fill:none;stroke:#000;stroke-width:7.99998;stroke-linecap:round;stroke-linejoin:miter;stroke-dasharray:none;stroke-opacity:1" d="M149.46 166.218v-16.075"/><path style="opacity:1;fill:none;stroke:#000;stroke-width:7.99998;stroke-linecap:butt;stroke-linejoin:round;stroke-dasharray:none;stroke-opacity:1" d="m114.807 166.196 9.268.016V150.12"/><path style="opacity:1;fill:none;stroke:#000;stroke-width:7.99998;stroke-linecap:butt;stroke-linejoin:miter;stroke-dasharray:none;stroke-opacity:1" d="m114.807 155.1 9.268.015"/><path style="fill:none;stroke:#000;stroke-width:12;stroke-linecap:round;stroke-linejoin:round;stroke-dasharray:none;stroke-opacity:1" d="M95.893 115.12 58.946 27.915 22 115.119"/><path style="fill:none;stroke:#000;stroke-width:12;stroke-linecap:butt;stroke-linejoin:miter;stroke-dasharray:none;stroke-opacity:1" d="M32.57 90.171h52.753"/><path style="fill:none;stroke:#000;stroke-width:12;stroke-linecap:round;stroke-linejoin:round;stroke-dasharray:none;stroke-opacity:1" d="M123.031 27.782v87.337H170"/></svg>