<svg xmlns="http://www.w3.org/2000/svg" width="192" height="192" fill="none" stroke="#000" stroke-width="8" viewBox="0 0 192 192"><path stroke-linecap="round" d="M42.54 154.694h8.957m18.623 11.524a10.3 10.544 0 0 1-8.92-5.272 10.3 10.544 0 0 1 0-10.544 10.3 10.544 0 0 1 8.92-5.272m44.687 21.066a4.992 5.548 0 0 1-4.323-2.774 4.992 5.548 0 0 1 0-5.549 4.992 5.548 0 0 1 4.323-2.774m-45.442-9.969h3.722m-2.967 21.088h3.722m10.574 0v-33.099"/><path d="M84.416 145.13h8.965c5.846 0 5.846 5.013 5.846 5.013"/><path stroke-linecap="round" d="M112.488 145.108h5.741c5.846 0 5.846 5.013 5.846 5.013m-24.848 16.097v-16.075m35.423 16.075V145.13"/><path d="M134.65 145.13h8.964c5.846 0 5.846 5.013 5.846 5.013"/><path stroke-linecap="round" d="M149.46 166.218v-16.075"/><path stroke-linejoin="round" d="m114.807 166.196 9.268.016V150.12"/><path d="m114.807 155.1 9.268.015"/><path stroke-linecap="round" stroke-linejoin="round" stroke-width="12" d="M95.893 115.12 58.946 27.915 22 115.119"/><path stroke-width="12" d="M32.57 90.171h52.753"/><path stroke-linecap="round" stroke-linejoin="round" stroke-width="12" d="M123.031 27.782v87.337H170"/></svg>