<svg width="192" height="192" viewBox="0 0 192 192" fill="none" xmlns="http://www.w3.org/2000/svg"><path d="M83.5 46C90.403 46 96 40.403 96 33.5 96 26.596 90.403 21 83.5 21S71 26.596 71 33.5C71 40.403 76.597 46 83.5 46Z" stroke="#000" stroke-width="10" stroke-linecap="round" stroke-linejoin="round"/><path d="M89.847 125.805c-23.837-12.964-34.02-26.817-10.57-44.364 7.042-5.27 22.143-13.734 34.092-33.213 6.048 4.232 9.82 8.884 11.485 13.416 2.437 6.642-1.963 13.42-5.733 17.464-7.712 8.272-14.849 11.982-20.414 16.406-8.837 8.228-15.01 19.166-8.86 30.291ZM89.275 170c1.074-22.99 52.195-30.874 32.598-64.262-6.391 6.212-13.029 10.082-18.461 14.346-10.738 8.426-21.044 19.294-23.52 22.683-7.697 12.552.814 22.945 9.383 27.233Z" stroke="#000" stroke-width="12" stroke-linecap="round" stroke-linejoin="round"/><path d="M97.857 96.238c6.263 5.806 16.525 8.466 24.501 8.583" stroke="#000" stroke-width="10" stroke-linecap="round" stroke-linejoin="round"/></svg>
