<svg xmlns="http://www.w3.org/2000/svg" width="192" height="192" fill="none"><path stroke="#000" stroke-linecap="round" stroke-linejoin="round" stroke-width="12" d="m126 73-52 96s-2-31-13-44-39-19-39-19zm18-14s2.878-2.214 6.425-5.5M64 91c0-7.62-1.63-12.944-3.88-17M47.626 58c-.909-2.377-.972-5.185.374-9 .239-.676.626-1.343 1.151-2M67.5 37.505c2.952-.928 6.14-1.809 9.5-2.636m20-4.02a332 332 0 0 1 11-1.603m21-2.025c3.315-.205 6.501-.34 9.5-.402m20.5 1.57c1.414.441 2.436.976 3 1.611 1.715 1.93 1.868 4.365 1.048 7M34.694 132q.068.962.306 2c1.173 5.084 6.477 7.262 12.5 8.03M138 125s-8.513 2.128-19 4.54"/><circle cx="154" cy="121" r="16" stroke="#000" stroke-linecap="round" stroke-linejoin="round" stroke-width="12"/></svg>