<svg width="192" height="192" viewBox="0 0 192 192" fill="none" xmlns="http://www.w3.org/2000/svg"><path d="M90.627 31.373A32 32 0 0 1 100 54c0 26-32 68-32 68S36 80 36 54a32 32 0 0 1 54.627-22.627Z" stroke="#000" stroke-width="12" stroke-linecap="round" stroke-linejoin="round"/><path d="M60 53.5 59 107" stroke="#000" stroke-width="8" stroke-linecap="round"/><path d="M75.727 56.07A8 8 0 1 0 60 54" stroke="#000" stroke-width="8" stroke-linecap="round" stroke-linejoin="round"/><path d="M75.73 56.06 59 107" stroke="#000" stroke-width="8" stroke-linecap="round"/><path d="M101.373 160.627A31.997 31.997 0 0 1 92 138c0-26 32-68 32-68s32 42 32 68a31.996 31.996 0 0 1-9.373 22.627 31.996 31.996 0 0 1-45.254 0Z" stroke="#000" stroke-width="12" stroke-linecap="round" stroke-linejoin="round"/><path d="m132 138.5 1-53.5" stroke="#000" stroke-width="8" stroke-linecap="round"/><path d="M116.273 135.929a7.99 7.99 0 0 0 1.075 6.516 8.021 8.021 0 0 0 2.427 2.349 8.014 8.014 0 0 0 6.547.862A8.003 8.003 0 0 0 132 138" stroke="#000" stroke-width="8" stroke-linecap="round" stroke-linejoin="round"/><path d="M116.27 135.94 133 85" stroke="#000" stroke-width="8" stroke-linecap="round"/></svg>