<svg xmlns="http://www.w3.org/2000/svg" width="192" height="192" fill="none" stroke="#000" stroke-linecap="round" stroke-linejoin="round" stroke-width="12" viewBox="0 0 192 192"><path d="M90.627 31.373A32 32 0 0 1 100 54c0 26-32 68-32 68S36 80 36 54a32 32 0 0 1 54.627-22.627"/><path stroke-width="8" d="M60 53.5 59 107m16.727-50.93A8 8 0 1 0 60 54m15.73 2.06L59 107"/><path d="M101.373 160.627A32 32 0 0 1 92 138c0-26 32-68 32-68s32 42 32 68a31.996 31.996 0 0 1-54.627 22.627"/><path stroke-width="8" d="m132 138.5 1-53.5m-16.727 50.929a8.014 8.014 0 0 0 10.049 9.727A8 8 0 0 0 132 138m-15.73-2.06L133 85"/></svg>