<svg xmlns="http://www.w3.org/2000/svg" width="192" height="192" fill="none"><path stroke="#000" stroke-linecap="round" stroke-linejoin="round" stroke-width="12" d="M96 130v40m-26 0h52M82 22h28M50.766 89l-.378 1.585C45.598 110.694 60.846 130 81.518 130h28.964c20.672 0 35.919-19.306 31.129-39.415L141.234 89"/><circle cx="79" cy="71" r="3" stroke="#000" stroke-linejoin="round" stroke-width="6"/><circle cx="113" cy="71" r="3" stroke="#000" stroke-linejoin="round" stroke-width="6"/><path stroke="#000" stroke-linecap="round" stroke-linejoin="round" stroke-width="12" d="M74 47 64 32m54 15 10-15M55.431 69.424c2.393-7.868 7.666-14.82 15.001-19.778S86.754 42 96 42s18.233 2.688 25.568 7.646 12.608 11.91 15.001 19.778"/></svg>