<svg width="192" height="192" fill="none" xmlns="http://www.w3.org/2000/svg"><path d="M96 130v40m-26 0h52M82 22h28M50.766 89l-.378 1.585C45.598 110.694 60.846 130 81.518 130h28.964c20.672 0 35.919-19.306 31.129-39.415L141.234 89" stroke="#000" stroke-width="12" stroke-linecap="round" stroke-linejoin="round"/><circle cx="79" cy="71" r="3" stroke="#000" stroke-width="6" stroke-linejoin="round"/><circle cx="113" cy="71" r="3" stroke="#000" stroke-width="6" stroke-linejoin="round"/><path d="M74 47 64 32m54 15 10-15M55.431 69.424c2.393-7.868 7.666-14.82 15.001-19.778C77.767 44.688 86.754 42 96 42c9.246 0 18.233 2.688 25.568 7.646 7.335 4.958 12.608 11.91 15.001 19.778" stroke="#000" stroke-width="12" stroke-linecap="round" stroke-linejoin="round"/></svg>