<svg xmlns="http://www.w3.org/2000/svg" width="192" height="192" fill="none"><circle cx="74" cy="74" r="6" stroke="#000" stroke-linecap="round" stroke-linejoin="round" stroke-width="12"/><path stroke="#000" stroke-linecap="round" stroke-linejoin="round" stroke-width="12" d="M163.775 125.754C158.823 119.794 151.354 116 143 116c-14.912 0-27 12.088-27 27 0 8.354 3.794 15.823 9.754 20.775m38.021-38.021A26.9 26.9 0 0 1 170 143c0 14.912-12.088 27-27 27a26.9 26.9 0 0 1-17.246-6.225m38.021-38.021C167.778 116.649 170 106.584 170 96c0-40.87-33.131-74-74-74S22 55.13 22 96s33.13 74 74 74c10.584 0 20.649-2.222 29.754-6.225"/></svg>