<svg width="192" height="192" fill="none" xmlns="http://www.w3.org/2000/svg"><circle cx="74" cy="74" r="6" stroke="#000" stroke-width="12" stroke-linecap="round" stroke-linejoin="round"/><path d="M163.775 125.754C158.823 119.794 151.354 116 143 116c-14.912 0-27 12.088-27 27 0 8.354 3.794 15.823 9.754 20.775m38.021-38.021A26.891 26.891 0 0 1 170 143c0 14.912-12.088 27-27 27a26.891 26.891 0 0 1-17.246-6.225m38.021-38.021C167.778 116.649 170 106.584 170 96c0-40.87-33.131-74-74-74-40.87 0-74 33.13-74 74 0 40.869 33.13 74 74 74 10.584 0 20.649-2.222 29.754-6.225" stroke="#000" stroke-width="12" stroke-linecap="round" stroke-linejoin="round"/></svg>