<svg xmlns="http://www.w3.org/2000/svg" xmlns:xlink="http://www.w3.org/1999/xlink" width="192" height="192" viewBox="0 0 192 192" fill="none"><defs><rect id="path_0" x="0" y="0" width="192" height="192" /></defs><g opacity="1" transform="translate(0 0)  rotate(0 96 96)"><mask id="bg-mask-0" fill="white"><use xlink:href="#path_0"/></mask><g mask="url(#bg-mask-0)" ><path id="分组 1" fill-rule="evenodd" style="fill:#000000" transform="translate(16 16)  rotate(0 80 80)" opacity="1" d="M14.49 123.36C23.95 137.64 37.63 148.63 53.63 154.78C97.97 171.51 145.71 146.47 159.79 101.7C160.15 100.59 160.04 99.38 159.49 98.34C158.94 97.31 158 96.54 156.87 96.22L141.87 92.02L141.87 92.02C140.09 91.5 139.02 89.71 139.4 87.9C147.26 50.35 125.23 12.53 88.93 2.48C51.52 -7.85 12.93 15.08 2.78 53.64L2.78 53.82C-3.41 77.61 0.85 102.9 14.49 123.36Z M36.1593 103.069C43.1993 115.599 54.5393 124.639 68.1693 128.379L68.1793 128.379C95.1493 135.779 122.849 120.259 131.729 93.4793C132.049 92.6193 131.989 91.6593 131.579 90.8493C131.159 90.0293 130.409 89.4193 129.529 89.1793L115.349 85.2593C113.369 84.6993 112.129 82.7093 112.519 80.6793C116.359 58.8493 103.279 37.2793 82.1693 31.4293C59.8493 25.3193 36.8893 38.9193 30.8493 61.8593C27.2493 75.7693 29.1493 90.5293 36.1593 103.069Z " /></g></g></svg>
