<svg xmlns="http://www.w3.org/2000/svg" width="192" height="192" fill="none" stroke="#000" stroke-linejoin="round" stroke-width="12" viewBox="0 0 192 192"><path stroke-linecap="round" d="M24.585 71.563v.17a79.045 79.045 0 0 0-1.47 33.282 79.124 79.124 0 0 0 4.538 16.135 79.325 79.325 0 0 0 7.838 14.838 76.414 76.414 0 0 0 15.942 17.337 76.935 76.935 0 0 0 20.508 11.703c41.3 15.459 84.948-6.418 98.059-47.785h-29.262c-10.842 19.169-33.31 29.365-55.254 23.39-12.694-3.463-23.25-11.817-29.812-23.39a51.245 51.245 0 0 1-6.175-18.568 51.042 51.042 0 0 1-.323-9.815 51.071 51.071 0 0 1 1.559-9.697c5.624-21.197 27.004-33.768 47.788-28.117C118.187 56.451 129 75 127.79 96.555l25.085.126c3.634-32.45-16.381-63.688-48.061-72.395-34.833-9.542-70.77 11.647-80.23 47.276Z"/></svg>
