<svg xmlns="http://www.w3.org/2000/svg" width="192" height="192" viewBox="0 0 192 192"><path fill="none" stroke="#000" stroke-width="12" d="M153.2 106.7c-1.6-.4-2.7-2.1-2.3-3.7 7.3-33.5-13.1-67.4-46.7-76.3C69.7 17.5 34 38 24.6 72.4v.1c-5.7 21.3-1.9 43.7 10.8 62.2 8.8 12.9 21.5 22.7 36.2 28.1 41 15 85.2-7.5 98.2-47.5.7-2.1-.5-4.3-2.7-4.9zm-68.1 32.5c-12.6-3.3-23.1-11.4-29.6-22.7s-8.2-24.3-4.9-36.9C56.1 59.2 77.4 47 98 52.5c19.5 5.3 31.6 24.6 28.1 44-.3 1.9.7 3.6 2.6 4.1l13.1 3.5c1.7.4 2.6 2.2 2.1 3.8-8.3 24.1-33.9 38-58.8 31.3z"/></svg>