<?xml version="1.0" encoding="UTF-8" standalone="no"?>
<!-- Created with Inkscape (http://www.inkscape.org/) -->

<svg
   width="192"
   height="192"
   viewBox="0 0 192 192"
   version="1.1"
   id="svg1"
   xmlns="http://www.w3.org/2000/svg"
   xmlns:svg="http://www.w3.org/2000/svg">
  <defs
     id="defs1" />
  <g
     id="layer1">
    <g
       id="g7388"
       style="stroke-width:3.1702;stroke-dasharray:none"
       transform="matrix(3.7852841,0,0,3.7852841,3907.002,-2453.2396)">
      <path
         style="fill:#000000;fill-opacity:0;stroke:#000000;stroke-width:3.1702;stroke-linecap:round;stroke-linejoin:round;stroke-dasharray:none;stroke-opacity:1"
         d="m -1023.487,662.21942 c -5.1762,30.75345 50.33363,44.98737 28.70472,11.55407"
         id="path11951" />
      <path
         style="fill:#000000;fill-opacity:0;stroke:#000000;stroke-width:3.1702;stroke-linecap:round;stroke-linejoin:round;stroke-dasharray:none;stroke-opacity:1"
         d="m -1015.1985,677.98706 c -5.7105,-7.86935 -7.9216,-25.6993 10.1563,-16.22753"
         id="path11955" />
      <path
         style="fill:#000000;fill-opacity:0;stroke:#000000;stroke-width:3.1702;stroke-linecap:round;stroke-linejoin:round;stroke-dasharray:none;stroke-opacity:1"
         d="m -1000.5625,658.29861 c -7.8834,-6.29662 -18.4312,-6.53231 -18.2046,4.0909"
         id="path12020" />
      <path
         style="fill:none;fill-opacity:0;stroke:#000000;stroke-width:3.1702;stroke-linecap:round;stroke-linejoin:round;stroke-dasharray:none;stroke-opacity:1"
         id="path12074"
         d="m -998.73527,666.77928 a 1.7109526,0.90802091 47.086297 0 1 0.50003,1.87128 1.7109526,0.90802091 47.086297 0 1 -1.82986,-0.63451 1.7109526,0.90802091 47.086297 0 1 -0.5004,-1.87139 1.7109526,0.90802091 47.086297 0 1 1.82978,0.63414 l -0.66457,0.61875 z" />
    </g>
  </g>
</svg>
