<svg width="192" height="192" viewBox="0 0 192 192" fill="none" xmlns="http://www.w3.org/2000/svg"><path d="M49 130h26m44-8h22m-22 17h22m-79-22v26" stroke="#000" stroke-width="10" stroke-linecap="round" stroke-linejoin="round"/><path d="M72 56v38m42-38v13M47 94V62a6 6 0 0 1 6-6v0a6 6 0 0 1 6 6v32m74 0V66l6-8 6 8v28m-37 0V75a6 6 0 0 1 6-6v0a6 6 0 0 1 6 6v19m-36 0 6-38 6 38" stroke="#000" stroke-width="6" stroke-linecap="round" stroke-linejoin="round"/><path d="M96 96v66m66-66H30" stroke="#000" stroke-width="10" stroke-linecap="round" stroke-linejoin="round"/><rect x="25" y="25" width="142" height="142" rx="32" stroke="#000" stroke-width="12" stroke-linecap="round" stroke-linejoin="round"/></svg>