<?xml version="1.0" encoding="UTF-8" standalone="no"?>
<!-- Created with Inkscape (http://www.inkscape.org/) -->

<svg
   width="192"
   height="192"
   viewBox="0 0 192 192"
   version="1.1"
   xml:space="preserve"
   xmlns="http://www.w3.org/2000/svg"
   xmlns:svg="http://www.w3.org/2000/svg"
   style="fill:none;stroke:#000000;stroke-linecap:round;stroke-linejoin:round">
  <g style="stroke-width:12">
    <path
        d="M 21.999996,155.16191 V 73.197609 A 12,12 135 0 1 33.999996,61.197609 C 37.126183,61.197609 45.064016,61.004048 51.636241,61.82385 58.405115,62.66818 64.935266,64.588423 68.988467,68.827309 73.456173,73.499689 73.492187,85.63859 70.05626,91.199567 58.999104,109.09534 21.999996,109.584 21.999996,109.584 21.999996,109.584 83.952858,100.31144 83.866986,135.86771 83.820437,155.14257 67.074597,162.26297 51.19904,164.12577 45.98771,164.73726 37.457837,164.66796 32.20779,164.66796 H 31.506047 A 9.5060507,9.5060507 45 0 1 21.999996,155.16191 Z
           M 109.01341,97.063885 V 164.66796 L 170,97.063885 V 164.66796" />
  </g>
  <g style="stroke-width:6">
    <path
        d="M 126.36482,28.4011 V 51.899629" />
    <ellipse
        cx="134.47942"
        cy="36.557964"
        rx="8.1146021"
        ry="8.1568632" />
    <path
        d="M 163.20589,44.822016 153.87469,28.651012 M 169.77367,28.651012 C 160.55118,51.264434 161.54916,51.232863 155.01644,51.399743" />
  </g>
</svg>
