<svg width="192" height="192" viewBox="0 0 192 192" fill="none" xmlns="http://www.w3.org/2000/svg"><path d="M96 22 58 140M96 22l38 118m25.989-74c.007-.663.011-1.33.011-2V48c0-3.314-2.69-5.982-5.995-6.225C124.123 39.577 96 22 96 22S68.266 39.609 37.995 41.781C34.69 42.018 32 44.686 32 48v16c0 8.294.569 15.966 1.598 23.06.417 2.869 2.915 4.94 5.814 4.94h110.991c3.744 0 6.58 3.414 5.708 7.055C142.237 156.996 96 170 96 170s-35.822-10.075-53.866-52" stroke="#000" stroke-width="12" stroke-linecap="round" stroke-linejoin="round"/></svg>