<?xml version="1.0" encoding="UTF-8" standalone="no"?>
<!-- Created with Inkscape (http://www.inkscape.org/) -->

<svg
   width="192"
   height="192"
   viewBox="0 0 192 192"
   version="1.1"
   xml:space="preserve"
   xmlns="http://www.w3.org/2000/svg"
   xmlns:svg="http://www.w3.org/2000/svg"
   style="fill:none;stroke-width:12;stroke:#000;stroke-linecap:round;stroke-linejoin:round">
  <path
       d="M 21.999996,138.23511 V 56.270811 A 12,12 0 0 1 33.999996,44.270811 C 37.126183,44.270811 45.064016,44.07725 51.636241,44.897052 58.405115,45.741382 64.935266,47.661625 68.988467,51.900511 73.456173,56.572891 73.492187,68.711792 70.05626,74.272769 63.078481,85.566162 45.769517,89.927292 33.947504,91.608072 27.389633,92.540422 27.333535,91.907022 33.953718,91.660002 48.75272,91.107782 72.998616,92.632902 81.119435,107.3932 84.279525,113.13694 84.227199,124.66922 81.318372,130.55938 76.391664,140.53561 65.041266,145.13335 53.670568,146.86623 47.12497,147.86377 36.341258,147.74116 29.713841,147.74116 A 8.6564544,8.6564544 0 0 1 21.999996,138.23511 Z
       M 109.01341,80.137087 V 147.74116 L 170,80.137087 V 147.74116" />
</svg>
