<svg xmlns="http://www.w3.org/2000/svg" width="192" height="192" fill="none"><path stroke="#000" stroke-linecap="round" stroke-linejoin="round" stroke-width="12" d="M75.012 162h-31.07l11.892-31.696S35.316 121.498 22 102.768l18.642-19.622c14.204 19.622 25.214 20.45 25.214 20.45L88.7 42.712C91.88 34.237 99.425 30 106.971 30c7.545 0 15.09 4.237 18.27 12.712l22.845 60.884 10.021 26.708L170 162h-31.071l-7.844-20.796a100 100 0 0 1-24.114 2.958c-8.166 0-16.244-1.005-24.115-2.958z"/><path stroke="#000" stroke-linecap="round" stroke-linejoin="round" stroke-width="12" d="m92.452 115.763 14.519-38.493 14.518 38.493a65.3 65.3 0 0 1-14.518 1.643 65.3 65.3 0 0 1-14.519-1.643"/></svg>