<svg width="192" height="192" viewBox="0 0 192 192" fill="none" xmlns="http://www.w3.org/2000/svg"><path d="M96 96c-8.702 0-17.21-2.14-24.445-6.151-7.236-4.011-12.875-9.712-16.206-16.381-3.33-6.67-4.201-14.009-2.504-21.089 1.698-7.08 5.889-13.584 12.042-18.688 6.154-5.105 13.994-8.581 22.529-9.99 8.535-1.408 17.382-.685 25.422 2.077 8.04 2.763 14.912 7.441 19.747 13.444C137.419 45.224 140 52.28 140 59.5M96 96c8.702 0 17.209 2.14 24.445 6.151 7.236 4.011 12.875 9.712 16.206 16.381 3.33 6.67 4.201 14.008 2.504 21.089-1.698 7.08-5.889 13.584-12.042 18.688-6.154 5.105-13.994 8.581-22.529 9.99-8.535 1.408-17.382.685-25.422-2.077-8.04-2.763-14.912-7.441-19.747-13.444C54.581 146.776 52 139.719 52 132.5" stroke="#000" stroke-width="14" stroke-linecap="round" stroke-linejoin="round"/></svg>