<svg width="192" height="192" viewBox="0 0 192 192" fill="none" xmlns="http://www.w3.org/2000/svg"><path d="M52 72v6m86-6v6m-7-56-13 13M59 22l13 13M52 78h84m2-6a43 43 0 1 0-86 0" stroke="#000" stroke-width="12" stroke-linecap="round" stroke-linejoin="round"/><circle cx="79" cy="58" r="3" stroke="#000" stroke-width="6" stroke-linecap="round" stroke-linejoin="round"/><circle cx="111" cy="58" r="3" stroke="#000" stroke-width="6" stroke-linecap="round" stroke-linejoin="round"/><path d="M52 78a26 26 0 0 0-7.904 50.769 26.001 26.001 0 0 0 38.915 24.742 31.996 31.996 0 0 0 21.746 15.874 32 32 0 0 0 38.232-32.21A30 30 0 0 0 136 78" stroke="#000" stroke-width="12" stroke-linecap="round" stroke-linejoin="round"/></svg>