<?xml version="1.0" encoding="UTF-8" standalone="no"?>
<!-- Created with Inkscape (http://www.inkscape.org/) -->

<svg
   width="192"
   height="192"
   viewBox="0 0 50.800001 50.800001"
   version="1.1"
   id="svg1"
   xml:space="preserve"
   xmlns="http://www.w3.org/2000/svg"
   xmlns:svg="http://www.w3.org/2000/svg"><defs
     id="defs1"><style
       id="style11711">.cls-1{fill:#0071ce;}</style><style
       id="style15151">
      .cls-1 {
        fill-rule: evenodd;
      }

      .cls-1, .cls-2 {
        fill: #4d1828;
      }

      .cls-1, .cls-2, .cls-3, .cls-4, .cls-5 {
        stroke-width: 0px;
      }

      .cls-3 {
        fill: #e1ddda;
      }

      .cls-4 {
        fill: #871a47;
      }

      .cls-5 {
        fill: #f26840;
      }
    </style><style
       id="style16665">
      .cls-1 {
        fill-rule: evenodd;
      }

      .cls-1, .cls-2 {
        fill: #4d1828;
      }

      .cls-1, .cls-2, .cls-3, .cls-4, .cls-5 {
        stroke-width: 0px;
      }

      .cls-3 {
        fill: #e1ddda;
      }

      .cls-4 {
        fill: #871a47;
      }

      .cls-5 {
        fill: #f26840;
      }
    </style></defs><g
     id="layer1"><path
       style="opacity:1;fill:#000000;fill-opacity:1;stroke:#000000;stroke-width:1.56841;stroke-linecap:round;stroke-linejoin:round;stroke-dasharray:none;stroke-opacity:0.00295775"
       d="m 24.875,5.546875 c 1.303393,-0.1299029 2.491546,0.1921227 3.615234,0.84375 1.592043,0.9233038 3.183919,1.8531277 4.78711,2.7578125 1.294999,0.7308782 2.204858,1.7775715 2.732422,3.1621095 0.230343,0.604496 0.347526,1.234519 0.349609,1.878906 0.0082,2.379935 0.0039,4.760663 0.0039,7.140625 -2.65e-4,0.127276 0,0.254527 0,0.402344 v 0.05469 l 0.04492,0.02734 c 1.262738,0.727817 2.493071,1.435316 3.722656,2.144531 0.908257,0.523947 1.820746,1.042648 2.722657,1.576172 1.620775,0.958808 2.565171,2.387977 2.876953,4.238282 0.03322,0.197912 0.0332,0.402128 0.0332,0.611328 0,2.10018 0.0099,4.201099 0,6.300781 -0.0076,1.39884 -0.535619,2.605746 -1.439453,3.664062 -0.481559,0.563813 -1.077279,0.981257 -1.72461,1.351563 -1.597978,0.913685 -3.193955,1.834201 -4.785156,2.759766 -1.030677,0.599643 -2.139072,0.873791 -3.324219,0.810546 C 33.620655,45.224999 32.787209,45.000871 32.03125,44.568359 29.978817,43.394343 27.933999,42.21063 25.892578,41.017578 25.571179,40.829639 25.311918,40.787532 24.951172,41 c -1.996675,1.176417 -4.014502,2.320049 -6.021484,3.480469 -1.022606,0.59123 -2.123222,0.854353 -3.296876,0.792969 C 14.619079,45.220294 13.692078,44.880327 12.8125,44.365234 11.193515,43.417036 9.5523305,42.508615 7.9472656,41.541016 6.0764797,40.413287 5.0701181,38.745279 5.0429688,36.544922 5.0181094,34.53912 5.0390625,32.534464 5.0390625,30.527344 5.038646,29.11565 5.524108,27.882819 6.421875,26.802734 6.888026,26.241958 7.4627275,25.814662 8.0996094,25.449219 10.110219,24.295107 12.11222,23.125919 14.125,21.976562 c 0.251386,-0.143482 0.322856,-0.315583 0.322266,-0.576171 -0.0077,-2.380369 -0.0362,-4.758219 0.0059,-7.136719 0.03708,-2.111185 0.959752,-3.789356 2.757813,-4.9082032 1.461536,-0.9095334 2.974167,-1.7330463 4.46875,-2.59375 0.393658,-0.2265665 0.785507,-0.4522575 1.1875,-0.6582032 C 23.493514,5.7825104 24.1671,5.6172889 24.875,5.546875 Z m 0.521484,3.0234375 c -0.483716,0.00256 -0.965979,0.1425302 -1.441406,0.4121094 -0.496592,0.2814958 -0.990638,0.568195 -1.484375,0.8535156 -1.199346,0.6928335 -2.406567,1.3738795 -3.595703,2.0859375 -0.879152,0.526367 -1.346561,1.320008 -1.347656,2.361328 v 5.142578 0.566407 l 0.132812,-0.06641 c 0.137684,-0.06915 0.232601,-0.110569 0.322266,-0.162109 1.353571,-0.776518 2.69805,-1.570244 4.060547,-2.328125 2.228122,-1.239342 4.47985,-1.227209 6.708984,-0.01563 1.379286,0.749571 2.720174,1.567438 4.082031,2.353516 0.08296,0.04786 0.209066,0.129389 0.322266,0.183593 l 0.136719,0.06641 -0.0059,-0.150391 c -0.0049,-0.157083 -0.01172,-0.201796 -0.01172,-0.255859 v -5.527344 c -3.59e-4,-0.135593 -0.02192,-0.270846 -0.05078,-0.398438 -0.186633,-0.827009 -0.667332,-1.427055 -1.390625,-1.84375 C 30.169494,10.888887 28.50411,9.9274585 26.835938,8.9746094 26.359746,8.7026253 25.880771,8.5677467 25.396484,8.5703125 Z m -0.02539,10.9941405 c -0.608924,0.0075 -1.213424,0.184196 -1.806641,0.521485 -1.903179,1.08219 -3.794012,2.187248 -5.695312,3.271484 -0.247069,0.140854 -0.350812,0.303521 -0.34961,0.595703 0.01051,2.192185 0.0081,4.385572 0.0059,6.578125 0,1.445422 0.660449,2.509104 1.876953,3.240234 0.529689,0.318421 1.069313,0.619642 1.603515,0.927735 1.442221,0.831785 2.884294,1.662217 4.330079,2.496093 l 0.03516,0.01953 0.03711,-0.01172 c 0.04465,-0.0123 0.06704,-0.01466 0.08984,-0.02734 2.017385,-1.162624 4.049132,-2.302271 6.046875,-3.5 1.131076,-0.678114 1.729383,-1.722194 1.730469,-3.068359 0,-2.227534 -0.0051,-4.453946 0.0059,-6.681641 0,-0.256675 -0.08037,-0.414143 -0.3125,-0.546875 -1.93049,-1.10323 -3.846439,-2.233491 -5.785156,-3.324218 -0.596159,-0.335365 -1.202984,-0.497778 -1.8125,-0.490235 z m 10.990234,5.769531 v 0.589844 c 0,1.562839 0.0051,3.126385 -0.0059,4.689453 0,0.309143 -0.01847,0.619909 -0.06836,0.921875 -0.345856,2.092583 -1.408054,3.714737 -3.232421,4.810547 -0.807556,0.484998 -1.630859,0.943349 -2.447266,1.416016 -0.644098,0.372512 -1.286718,0.747256 -1.96875,1.142578 l -0.3125,0.210937 0.103516,0.07813 c 0.372714,0.28091 3.494187,1.782405 4.978515,2.634766 0.932492,0.535526 1.88407,0.542913 2.8125,0.01563 1.711555,-0.971949 3.413057,-1.960929 5.111328,-2.955078 0.916422,-0.536492 1.383613,-1.365168 1.392578,-2.417969 0.01642,-1.947807 0.01964,-3.895754 0,-5.84375 -0.01141,-1.090669 -0.504195,-1.931901 -1.466797,-2.482422 -1.313776,-0.751264 -2.618892,-1.51427 -3.929687,-2.271484 -0.258762,-0.149538 -0.522812,-0.291902 -0.830078,-0.462891 z m -21.917969,0.0059 -0.134765,0.07031 c -0.155191,0.08245 -0.252143,0.128751 -0.34375,0.181641 -1.452625,0.839468 -2.895936,1.689978 -4.355469,2.515625 -1.00049,0.565962 -1.5208256,1.421042 -1.53125,2.55664 -0.018006,1.925648 -0.015342,3.850033 0,5.775391 0.00826,1.097946 0.5078549,1.939827 1.4589844,2.492188 1.6922946,0.982826 3.3841686,1.969308 5.0878906,2.933593 0.868556,0.491419 1.78468,0.511232 2.658203,0.02344 1.566751,-0.874717 3.113602,-1.787051 4.666016,-2.685547 0.06952,-0.04035 0.129335,-0.09881 0.199219,-0.152344 L 22.25,38.974609 22.142578,38.902344 c -0.09348,-0.06332 -0.160834,-0.11591 -0.234375,-0.158203 -1.322538,-0.76132 -2.644326,-1.524294 -3.970703,-2.279297 -1.052879,-0.599204 -1.903963,-1.403231 -2.529297,-2.439453 -0.656853,-1.088515 -0.963799,-2.274965 -0.964844,-3.544922 0,-1.516808 2e-6,-3.034201 0,-4.550781 3.2e-4,-0.127018 0,-0.252715 0,-0.4375 z"
       id="path920" /></g><style
     type="text/css"
     id="style11642">
	.st0{fill:#00C48C;}
	.st1{fill:#4F008C;}
</style><style
     type="text/css"
     id="style13782">
	.st0{fill:#8B7D6E;}
	.st1{fill:#004A6E;}
	.st2{fill:url(#SVGID_1_);}
	.st3{fill:url(#SVGID_00000101805771245684949860000012276154375448322482_);}
	.st4{fill:#004F71;}
	.st5{fill:#76777A;}
</style><style
     type="text/css"
     id="style14023">
	.st0{fill:#84B740;}
	.st1{fill:#259BD6;}
	.st2{fill:#27292D;}
</style><style
     type="text/css"
     id="style11395">
	.st0{fill:#84B740;}
	.st1{fill:#259BD6;}
	.st2{fill:#27292D;}
</style></svg>
