<svg width="192" height="192" viewBox="0 0 192 192" fill="none" xmlns="http://www.w3.org/2000/svg"><path d="M122.4 170H69.5c.7-4 2.3-12 1.5-12-.8-2.1-.6-4.2-1.4-6.3.9-1.3 1.8-2.7 2.7-4 14.5-.7 28.9-.9 43.4-1.4.5 3.5 1 6.9 1.5 10.4 1.3 1 2.5 2.1 3.8 3.1.5 3.4.9 6.8 1.4 10.2Z" stroke="#000" stroke-width="12" stroke-linecap="round" stroke-linejoin="round"/><path d="M122.4 170c-.5-3.4-.9-6.8-1.4-10.2 5.2 1.1 12-1.1 14.4 4.9-1.3 1.8-2.7 3.5-4 5.3h-9ZM22.067 42.8a.06.06 0 0 1-.057-.068c2.428-16.89 18.289-16.21 27.431-5.318.787.937 1.159 2.145 1.159 3.369v0c0 1.245-.412 2.47-1.144 3.477-16.022 22.088-11.33 25.124-27.338-1.43a.06.06 0 0 0-.05-.03v0Z" stroke="#000" stroke-width="12" stroke-linecap="round" stroke-linejoin="round"/><path d="M38.5 29.7c-.8 0-1.6-.1-2.5-.2.8 0 1.6.1 2.5.2Zm19.4 64.2c0-1.3 0-2.6-.1-3.9 4.2-4.5 7-14 12.8-15.8 5.6 6.9 8 16 16.4 20 6.8 4.2 19-3.1 18.9-11.2 0-4 1.6-5.5 5-6 8.4 9.1-7.4 47.1-20.4 37.5-5.4-4.5-11.5-8.5-15.6-14.3-6.2-8.7-7.2-9.1-17-6.2v-.1ZM36 110.7h11.6c.8.5 1.6 1.1 2.4 1.6-2.6 11.3-6.3 22.4-7.8 33.9-18.4-.5-26.1-26.2-6.2-35.6v.1Zm33.6 41c-2.6-.9-5.1-1.8-7.7-2.7-.6-9.1-.9-29.8 7.4-34.8 2.5 6.5 2.2 20.4-.6 27.1-1.5 3.3 0 4.8 3.2 5.3 0 .4.1.8.3 1.2-.9 1.3-1.8 2.7-2.7 4l.1-.1Z" stroke="#000" stroke-width="12" stroke-linecap="round" stroke-linejoin="round"/><path d="M109.3 101.7c1.4-3.5 2.7-7 4.1-10.5.4 0 .9 0 1.3.1 2.5 10.4 3.3 21 6.4 31.2-2.6.1-5.1.2-7.7.3-1.9-6.9-2.8-14.1-4.1-21.2v.1Zm11.8 20.8c10.1 2 20.6 2.6 30.5 5.4 9.1 0 14.5 4.8 17.5 13.1 1.7 12.6-6.8 25.6-20.6 22.8-4.3-.9-8.9-2.9-13 .9-2.5-6-9.3-3.9-14.4-4.9-1.3-1-2.5-2.1-3.8-3.1-.9-5.2-1.6-10.4-.7-15.6-.9-6.1-2-12.2-3.1-18.3 2.6-.1 5.1-.2 7.7-.3h-.1Z" stroke="#000" stroke-width="12" stroke-linecap="round" stroke-linejoin="round"/><path d="M115.7 146.3c-14.5.5-29 .7-43.4 1.4-.1-.4-.2-.7-.3-1.1-3.1-.5-4.7-2.1-3.2-5.3 2.8-6.7 3.1-20.6.6-27.1-8.4 5-8.1 25.7-7.5 34.8-1.9 6.9-1.5 13.9-1.4 21H41.2c-2.2-10.3.6-20.4 2.2-30.6 3.5-15.6 7.5-31 14.7-45.5 10.1-3.5 12.2-1.1 18 7.8 15.3 14.3 21 22.9 33.3 0 1.4 14.9 8.2 29.7 6.4 44.6h-.1ZM73.8 57.2c-.1.4-.2.9-.3 1.3h-.1c0-.1.4-1.3.4-1.3Z" stroke="#000" stroke-width="12" stroke-linecap="round" stroke-linejoin="round"/><path d="M73.4 58.3c0 4.5 1 8.8 0 13.2 4.2 2.3 7.2 5.9 10.2 9.6 7.8.5 13.2-4.6 19.1-8.6.5-3 1.1-5.9 1.6-8.9-.9-3.5-1.6-6.9-2.3-10.4-2.6-2-4.5-5.3-8-5.6-6.1 1.2-13-2.9-19.1.3-.9-.4-1.8-.9-2.7-1.3-2.1 3.5-1.1 7.6-1.3 12 .8-.1 1.7-.3 2.5-.3Zm0 0h.1c.1-.3.2-.7.3-1.2l-.4 1.2Z" stroke="#000" stroke-width="12" stroke-linecap="round" stroke-linejoin="round"/><path d="M73.5 58.5h-.1c0-.1.2-.4.1 0Z" stroke="#000" stroke-width="12" stroke-linecap="round" stroke-linejoin="round"/><path d="M114.9 58.4c.3.8-1.2 8.3-1.3 9.3.2 3.4-.8 6.4-2.6 9.3-3.4.5-5.1 2-5 6 .2 8.1-12.1 15.5-18.9 11.3-8.4-4-10.9-13.1-16.4-20.1 0-4.3.7-9-.5-13.1.3-.8.5-1.7.8-2.5.8 0 1.7-.2 2.5-.3 0 4.5 1.1 8.7.1 13.2 4.2 2.4 7.2 5.9 10.2 9.6 7.8.5 13.2-4.7 19.1-8.6 2.1-6.6 1-12.8-.7-19.3-2.6-2-4.5-5.3-8-5.6-6.2 1.1-13-3-19.1.3-.9-.4-1.8-.9-2.7-1.3-.9-11.4 9.1-22.8 20.3-24.6 2.6 1 5.2 1.2 8 1 9.4 3.3 12 6.9 12.4 16.9 2.3 5.9 1.3 12.4 1.9 18.6l-.1-.1Z" stroke="#000" stroke-width="12" stroke-linecap="round" stroke-linejoin="round"/><path d="M32.6 73.6h8.8" stroke="#000" stroke-width="8" stroke-miterlimit="10" stroke-linecap="round"/></svg>