<svg width="192" height="192" viewBox="0 0 192 192" fill="none" xmlns="http://www.w3.org/2000/svg">
<ellipse cx="94" cy="62" rx="28" ry="34" stroke="black" stroke-width="8" stroke-linejoin="round"/>
<path d="M26.0746 45.2514L37.5 61L48.9254 45.2514C53.0006 39.6343 52.3883 31.8883 47.4812 26.9812C41.9687 21.4687 33.0313 21.4687 27.5188 26.9812C22.6117 31.8883 21.9994 39.6343 26.0746 45.2514Z" stroke="black" stroke-width="8" stroke-linecap="round" stroke-linejoin="round"/>
<path d="M29 75H46.5" stroke="black" stroke-width="8" stroke-linecap="round" stroke-linejoin="round"/>
<path d="M66.5 74C63.4805 79.0325 61.5857 83.4782 57.6635 92.5C56.4899 95.1997 55.3138 98.0405 54.1579 101M118.5 157L135 170H72.5L71 147M118.5 157L145.948 164.434C156.826 167.38 167.807 160.063 169.278 148.89V148.89C170.536 139.329 164.286 130.389 154.874 128.287L120 120.5L112 88.5M118.5 157L116.661 145M50.335 111.5L43.3796 110.288C33.1367 108.504 23.5046 115.71 22.324 126.04V126.04C21.2838 135.142 27.219 143.582 36.1363 145.682L41.7325 147M50.335 111.5C46.61 122.531 43.4323 134.671 41.7325 147M50.335 111.5C51.5611 107.869 52.8465 104.358 54.1579 101M41.7325 147C40.6755 154.667 40.1901 162.407 40.5 170H64.5L70.5 130.5L71 147M54.1579 101L64.5 98M64.5 98L74.5 95L84.7057 104.143C91.6246 110.341 102.551 108.206 106.627 99.8587L109 95L112.601 118.5M64.5 98L85.4582 118.034C92.868 125.116 104.433 125.451 112.24 118.807L112.601 118.5M112.601 118.5L116.661 145M116.661 145L71 147" stroke="black" stroke-width="8" stroke-linecap="round" stroke-linejoin="round"/>
<path d="M68 55C96 43 115.333 57 121.5 65.5C120.5 72.1667 112.5 86 80.5 93" stroke="black" stroke-width="8" stroke-linecap="round" stroke-linejoin="round"/>
<circle cx="79" cy="64" r="4" fill="black"/>
<circle cx="98" cy="64" r="4" fill="black"/>
<path d="M83 78C85.5 79 89 79.5 93 78" stroke="black" stroke-width="8" stroke-linecap="round" stroke-linejoin="round"/>
</svg>
