<?xml version="1.0" encoding="UTF-8" standalone="no"?>
<svg
   width="192"
   height="192"
   viewBox="0 0 192 192"
   fill="none"
   version="1.1"
   id="svg4"
   sodipodi:docname="amaze.svg"
   inkscape:version="1.1.2 (0a00cf5339, 2022-02-04, custom)"
   xmlns:inkscape="http://www.inkscape.org/namespaces/inkscape"
   xmlns:sodipodi="http://sodipodi.sourceforge.net/DTD/sodipodi-0.dtd"
   xmlns="http://www.w3.org/2000/svg"
   xmlns:svg="http://www.w3.org/2000/svg">
  <defs
     id="defs8" />
  <sodipodi:namedview
     id="namedview6"
     pagecolor="#ffffff"
     bordercolor="#666666"
     borderopacity="1.0"
     inkscape:pageshadow="2"
     inkscape:pageopacity="0.0"
     inkscape:pagecheckerboard="0"
     showgrid="false"
     inkscape:zoom="2.2734375"
     inkscape:cx="154.17182"
     inkscape:cy="82.254296"
     inkscape:window-width="1251"
     inkscape:window-height="1396"
     inkscape:window-x="0"
     inkscape:window-y="0"
     inkscape:window-maximized="0"
     inkscape:current-layer="svg4" />
  <path
     d="M80 38L84.2426 33.7574C83.1174 32.6321 81.5913 32 80 32V38ZM96 54L91.7574 58.2426C92.8826 59.3679 94.4087 60 96 60V54ZM154 148H38V160H154V148ZM28 138V54H16V138H28ZM38 44H80V32H38V44ZM75.7574 42.2426L91.7574 58.2426L100.243 49.7574L84.2426 33.7574L75.7574 42.2426ZM164 70V138H176V70H164ZM96 60H154V48H96V60ZM38 148C32.4772 148 28 143.523 28 138H16C16 150.15 25.8497 160 38 160V148ZM154 160C166.15 160 176 150.15 176 138H164C164 143.523 159.523 148 154 148V160ZM176 70C176 57.8497 166.15 48 154 48V60C159.523 60 164 64.4772 164 70H176ZM28 54C28 48.4772 32.4772 44 38 44V32C25.8497 32 16 41.8497 16 54H28Z"
     fill="black"
     id="path2" />
  <g
     id="g833"
     transform="translate(0,2)">
    <g
       id="g849"
       transform="matrix(0.84243285,0,0,0.84243285,76.17384,49.43205)"
       style="fill:none;fill-opacity:1;stroke:#000000;stroke-width:6.78224;stroke-miterlimit:4;stroke-dasharray:none;stroke-opacity:1">
      <path
         fill="#ffac33"
         d="m 25.963258,48.44859 -7.604431,-2.81481 -2.839591,-9.306648 a 0.85452646,0.85452646 0 0 0 -1.633855,0 l -2.838738,9.306648 -7.6052851,2.81481 a 0.85452646,0.85452646 0 0 0 0,1.603092 l 7.6010121,2.813955 2.840447,9.590351 a 0.85452646,0.85452646 0 0 0 1.638982,-8.55e-4 l 2.840446,-9.59035 7.601867,-2.813956 a 0.8528174,0.8528174 0 0 0 -8.54e-4,-1.602237 z"
         data-darkreader-inline-fill=""
         id="path836"
         style="fill:#000000;fill-opacity:1;stroke:#000000;stroke-width:5.7956;stroke-linecap:round;stroke-linejoin:round;stroke-miterlimit:4;stroke-dasharray:none;stroke-opacity:1" />
    </g>
    <g
       id="g1551"
       style="stroke-width:7.03102;stroke-miterlimit:4;stroke-dasharray:none"
       transform="matrix(1.4197873,0,0,1.4197873,-84.49381,-55.292078)">
      <g
         id="g1728"
         transform="matrix(0.75090265,0,0,0.75090265,28.35994,19.827701)"
         style="stroke-width:11.2557;stroke-miterlimit:4;stroke-dasharray:none">
        <ellipse
           style="fill:none;fill-opacity:1;stroke:#000000;stroke-width:11.2557;stroke-linecap:round;stroke-linejoin:round;stroke-miterlimit:4;stroke-dasharray:none;stroke-opacity:1"
           id="path1432"
           cx="124.59192"
           cy="111.1555"
           rx="20.631443"
           ry="20.859966" />
        <path
           style="fill:none;stroke:#000000;stroke-width:11.2557;stroke-linecap:round;stroke-linejoin:round;stroke-miterlimit:4;stroke-dasharray:none;stroke-opacity:1"
           d="m 139.91065,129.75773 19.83353,21.29503"
           id="path1467"
           sodipodi:nodetypes="cc" />
      </g>
    </g>
  </g>
</svg>
