<svg xmlns="http://www.w3.org/2000/svg" width="192" height="192" fill="none"><path stroke="#000" stroke-linecap="round" stroke-linejoin="round" stroke-width="12" d="m101.061 170 65.816-36.628a6.07 6.07 0 0 0 2.45-8.083l-51.429-99.99a6.084 6.084 0 0 0-7.921-2.755l-77.132 34.94a6.07 6.07 0 0 0-3.341 7.184L39.86 101.27a6.07 6.07 0 0 1-3.249 7.142L22 115.327m68.925-22.275 8.892 22.999a6.07 6.07 0 0 1-3.041 7.885L22 162.938"/><circle cx="64" cy="78" r="5" stroke="#000" stroke-linecap="round" stroke-linejoin="round" stroke-width="10"/><circle cx="127" cy="104" r="5" stroke="#000" stroke-linecap="round" stroke-linejoin="round" stroke-width="10"/></svg>