<svg xmlns="http://www.w3.org/2000/svg" width="192" height="192" fill="none"><path stroke="#000" stroke-linecap="round" stroke-linejoin="round" stroke-width="12" d="M96 138H28a6 6 0 0 1-6-6V40a6 6 0 0 1 6-6h37l16 16h83a6 6 0 0 1 6 6v76a6 6 0 0 1-6 6h-24m-42 6-26 26"/><circle cx="118" cy="124" r="26" stroke="#000" stroke-linecap="round" stroke-linejoin="round" stroke-width="12"/><path stroke="#000" stroke-linecap="round" stroke-linejoin="round" stroke-width="10" d="m73.431 84.17-7.72-2.468-2.882-8.166a.76.76 0 0 0-.312-.384.96.96 0 0 0-1.033-.001.76.76 0 0 0-.312.385l-2.884 8.166-7.72 2.468a.86.86 0 0 0-.412.273.68.68 0 0 0-.156.43.7.7 0 0 0 .156.428.86.86 0 0 0 .413.274l7.716 2.471 2.881 8.411a.8.8 0 0 0 .312.39.96.96 0 0 0 1.04 0 .76.76 0 0 0 .311-.39l2.887-8.414 7.715-2.467a.86.86 0 0 0 .413-.275c.1-.12.155-.272.156-.428a.68.68 0 0 0-.156-.43.86.86 0 0 0-.413-.273"/></svg>