<svg width="192" height="192" fill="none" xmlns="http://www.w3.org/2000/svg"><path d="M116.314 85.314A16.004 16.004 0 0 0 118.856 66a15.999 15.999 0 1 0-17.997 23.455" stroke="#000" stroke-width="12" stroke-linecap="round" stroke-linejoin="round"/><path d="M71.5 59H22v72c0 16.569 13.431 30 30 30h88c16.569 0 30-13.431 30-30V89c0-16.569-13.431-30-30-30h-2m-36-1-2.162-6.487A30 30 0 0 0 71.378 31H28a6 6 0 0 0-6 6v22" stroke="#000" stroke-width="12" stroke-linecap="round" stroke-linejoin="round"/><circle cx="115" cy="112" r="4" stroke="#000" stroke-width="8" stroke-linecap="round" stroke-linejoin="round"/><path d="M105.461 84.435a3.046 3.046 0 0 1 4.017-1.076l10.923 5.823c.411.219.866.34 1.33.356l12.372.419a3.045 3.045 0 0 1 2.94 2.94l.418 12.372c.016.464.138.919.357 1.33l5.824 10.923a3.046 3.046 0 0 1-1.077 4.017l-10.505 6.548a3.055 3.055 0 0 0-.973.973l-6.548 10.505a3.046 3.046 0 0 1-4.017 1.077l-10.923-5.824a3.052 3.052 0 0 0-1.33-.357l-12.372-.418a3.045 3.045 0 0 1-2.94-2.94l-.418-12.372a3.051 3.051 0 0 0-.357-1.33l-5.823-10.923a3.046 3.046 0 0 1 1.076-4.017l10.505-6.548c.395-.246.727-.578.973-.973l6.548-10.505Z" stroke="#000" stroke-width="12" stroke-linecap="round" stroke-linejoin="round"/></svg>