<svg width="192" height="192" viewBox="0 0 192 192" fill="none" xmlns="http://www.w3.org/2000/svg"><path d="m153 136 17 7-7 19" stroke="#000" stroke-width="12" stroke-linecap="round" stroke-linejoin="round"/><path d="M22 143s31.714 21 74 21 74-21 74-21M134 28H58a6 6 0 0 0-6 6v76a6 6 0 0 0 6 6h76a6 6 0 0 0 6-6V34a6 6 0 0 0-6-6Z" stroke="#000" stroke-width="12" stroke-linecap="round" stroke-linejoin="round"/><path d="m56 112 24.49-35.88 13.06 19.36L113.328 66 136 112" stroke="#000" stroke-width="12" stroke-linecap="round" stroke-linejoin="round"/></svg>