<svg width="192" height="192" viewBox="0 0 192 192" fill="none" xmlns="http://www.w3.org/2000/svg"><path d="M73 86a16 16 0 1 0 0-32m44 32a16.002 16.002 0 0 0 16-16 16.002 16.002 0 0 0-16-16m-55 0h11m33 0h11M62 86h11m33 0h11M62 54v49m44-49v49" stroke="#000" stroke-width="10" stroke-linecap="round" stroke-linejoin="round"/><path d="m153 114 17 7-7 19" stroke="#000" stroke-width="12" stroke-linecap="round" stroke-linejoin="round"/><path d="M22 121s31.714 21 74 21 74-21 74-21" stroke="#000" stroke-width="12" stroke-linecap="round" stroke-linejoin="round"/><path d="M30.5 69a9.5 9.5 0 1 0 0 19M44 63a9 9 0 0 0-9-9" stroke="#000" stroke-width="10" stroke-linecap="round" stroke-linejoin="round"/><path d="M30 69c10 0 13 2 13 2M22 56s6-2 12-2m9 28s-3 6-12 6m118-2.454S153.842 87 157.881 87c7.07 0 12.119-2.91 12.119-7.758C170 73 159.901 71 159.901 71M171 56.455S166.158 55 162.119 55C155.049 55 150 57.91 150 62.758 150 69 160.099 71 160.099 71M44 63v25" stroke="#000" stroke-width="10" stroke-linecap="round" stroke-linejoin="round"/></svg>