<svg xmlns="http://www.w3.org/2000/svg" width="192" height="192" fill="none"><path stroke="#000" stroke-linecap="round" stroke-linejoin="round" stroke-width="12" d="m153 136 17 7-7 19"/><path stroke="#000" stroke-linecap="round" stroke-linejoin="round" stroke-width="12" d="M22 143s31.714 21 74 21 74-21 74-21M134 28H58a6 6 0 0 0-6 6v76a6 6 0 0 0 6 6h76a6 6 0 0 0 6-6V34a6 6 0 0 0-6-6"/><path stroke="#000" stroke-linecap="round" stroke-linejoin="round" stroke-width="12" d="m56 112 24.49-35.88 13.06 19.36L113.328 66 136 112"/></svg>