<svg xmlns="http://www.w3.org/2000/svg" width="192" height="192" fill="none" stroke="#000" stroke-linecap="round" stroke-linejoin="round" stroke-width="10" viewBox="0 0 192 192"><path d="M73 87a16 16 0 1 0 0-32m44 32a16 16 0 0 0 0-32m-55 0h11m33 0h11M62 87h11m33 0h11M62 55v49m44-49v49"/><path stroke-width="12" d="m153 115 17 7-7 19"/><path stroke-width="12" d="M22 122s31.714 21 74 21 74-21 74-21"/><path d="M30.5 70a9.5 9.5 0 1 0 0 19M44 64a9 9 0 0 0-9-9"/><path d="M30 70c10 0 13 2 13 2M22 57s6-2 12-2m9 28s-3 6-12 6m118-2.454S153.842 88 157.881 88c7.07 0 12.119-2.91 12.119-7.758C170 74 159.901 72 159.901 72M171 57.455S166.158 56 162.119 56C155.049 56 150 58.91 150 63.758 150 70 160.099 72 160.099 72M44 64v25"/></svg>