<svg viewBox="0 0 24 24" xmlns="http://www.w3.org/2000/svg">
    <path
        d="M15.307 11.222a.51.51 0 0 0 .203-.437.412.412 0 0 0-.124-.31c-.082-.078-.232-.157-.45-.237l-.678-.254c-.59-.218-.885-.588-.885-1.113 0-.344.134-.622.402-.834.27-.212.621-.318 1.057-.318.346 0 .683.06 1.013.183a.277.277 0 0 1 .135.083c.027.035.04.087.04.155v.215c0 .095-.034.143-.104.143a.712.712 0 0 1-.183-.04 2.974 2.974 0 0 0-.86-.127c-.51 0-.767.172-.767.517 0 .137.043.246.128.325.085.08.252.167.502.263l.622.238c.314.122.54.266.678.433.138.167.207.383.207.646 0 .377-.14.676-.422.9-.282.221-.657.332-1.125.332-.446 0-.847-.074-1.203-.222a.314.314 0 0 1-.132-.088c-.024-.03-.036-.082-.036-.15v-.223c0-.096.032-.143.096-.143a.8.8 0 0 1 .2.047c.35.112.714.167 1.091.167.26 0 .46-.05.595-.15zm-3.53-3.225c0-.106.053-.16.16-.16h.47c.106 0 .16.054.16.16v3.71c0 .106-.054.16-.16.16h-.343a.206.206 0 0 1-.124-.033c-.029-.02-.049-.06-.06-.12l-.055-.277c-.495.365-1.002.548-1.523.548-.378 0-.667-.106-.87-.318-.201-.21-.302-.51-.302-.898V7.997c0-.106.053-.16.159-.16h.47c.107 0 .16.054.16.16v2.519c0 .285.056.496.167.631.112.135.29.203.535.203.382 0 .768-.128 1.156-.382zm-4.276 3.87c-.107 0-.16-.054-.16-.16V9.134c0-.265-.05-.461-.152-.59-.1-.125-.26-.19-.478-.19-.388 0-.78.12-1.172.358a.873.873 0 0 1 .008.12v2.874c0 .106-.053.16-.16.16h-.47c-.106 0-.16-.054-.16-.16V9.134c0-.265-.05-.461-.15-.59-.102-.125-.261-.19-.48-.19-.403 0-.791.117-1.163.35v3.003c0 .106-.053.16-.16.16h-.47c-.106 0-.16-.054-.16-.16v-3.71c0-.106.054-.16.16-.16h.35c.054 0 .095.01.124.033.03.02.05.06.06.12l.048.254c.51-.35 1.007-.525 1.49-.525.495 0 .83.189 1.006.564.526-.375 1.052-.564 1.578-.564.367 0 .649.104.846.31.196.207.294.5.294.882v2.796c0 .106-.053.16-.159.16zm12.26 2.985c.37-.156.68.243.317.51-2.19 1.61-5.364 2.467-8.098 2.467-3.831 0-7.28-1.41-9.892-3.76-.162-.147-.08-.336.084-.336.042 0 .09.013.14.042 2.818 1.633 6.3 2.617 9.898 2.617a19.75 19.749 0 0 0 7.55-1.54zm-.083-6.12c-.197.225-.295.584-.295 1.077v.103c0 .482.1.835.3 1.06.2.225.513.338.944.338.223 0 .462-.037.717-.11a.56.56 0 0 1 .12-.025c.07 0 .103.053.103.158v.215c0 .07-.01.12-.03.151a.278.278 0 0 1-.129.087c-.26.112-.564.167-.909.167-.627 0-1.107-.179-1.439-.536-.333-.357-.498-.874-.498-1.552 0-.673.171-1.194.514-1.562.343-.368.828-.552 1.455-.552.287 0 .57.05.845.15a.26.26 0 0 1 .124.08c.024.032.036.085.036.159v.215c0 .106-.035.159-.104.159a.555.555 0 0 1-.128-.024 2.358 2.358 0 0 0-.66-.095c-.448 0-.769.112-.966.337zm1.008 8.21c-.18.15-.353.07-.273-.128.265-.658.857-2.13.576-2.488-.28-.358-1.85-.17-2.557-.085-.214.025-.247-.16-.054-.296.647-.453 1.508-.605 2.223-.605.668 0 1.207.133 1.322.275.241.296-.063 2.348-1.237 3.327zm-3.118-9.104c.106 0 .16.053.16.16v3.71c0 .105-.054.16-.16.16h-.47c-.107 0-.16-.055-.16-.16v-3.71c0-.107.053-.16.16-.16zM17.7 6.3a.467.467 0 0 1 .131.346.467.467 0 0 1-.13.345.492.492 0 0 1-.364.13.492.492 0 0 1-.363-.13.467.467 0 0 1-.13-.345c0-.143.043-.26.13-.346a.491.491 0 0 1 .363-.131c.154 0 .275.044.363.13z" />
</svg>