<?xml version="1.0" encoding="UTF-8" standalone="no"?>
<svg
   xmlns:dc="http://purl.org/dc/elements/1.1/"
   xmlns:cc="http://creativecommons.org/ns#"
   xmlns:rdf="http://www.w3.org/1999/02/22-rdf-syntax-ns#"
   xmlns:svg="http://www.w3.org/2000/svg"
   xmlns="http://www.w3.org/2000/svg"
   id="svg6"
   version="1.1"
   viewBox="0 0 192 192"
   height="192"
   width="192">
  <metadata
     id="metadata12">
    <rdf:RDF>
      <cc:Work
         rdf:about="">
        <dc:format>image/svg+xml</dc:format>
        <dc:type
           rdf:resource="http://purl.org/dc/dcmitype/StillImage" />
        <dc:title></dc:title>
      </cc:Work>
    </rdf:RDF>
  </metadata>
  <defs
     id="defs10" />
  <path
     style="display:inline;fill:none;stroke:#000000;stroke-width:12;stroke-linecap:round"
     id="path4"
     d="m 61.999775,92.041657 c 0,0 14.570864,11.993593 33.999681,11.993593 19.428824,0 33.999684,-11.993593 33.999684,-11.993593 m 0,0 -5.99994,18.989853 m 5.99994,-18.989853 -15.99985,-5.996796" />
  <path
     d="m 38.0006,96.03952 v 64.96528 c 0,5.15467 3.944824,8.9952 8.999916,8.9952 h 28.999728 c 0,-5.9968 5.122495,-19.98932 19.999812,-19.98932 14.877324,0 19.999814,13.99252 19.999814,19.98932 h 28.99973 c 5.1303,0 8.99992,-3.87785 8.99992,-8.9952 V 96.03952 m -115.99892,0 V 30.988827 c 0,-5.154668 3.944824,-8.995193 8.999916,-8.995193 h 28.999728 c 0,5.996795 5.122495,19.989318 19.999812,19.989318 14.877324,0 19.999814,-13.992523 19.999814,-19.989318 h 28.99973 c 5.1303,0 8.99992,3.877849 8.99992,8.995193 V 96.03952"
     style="opacity:1;fill:none;stroke:#000000;stroke-width:12;stroke-linecap:round;stroke-linejoin:round;stroke-miterlimit:4;stroke-dasharray:none;stroke-opacity:1"
     id="path824" />
</svg>
