<svg xmlns="http://www.w3.org/2000/svg" width="192" height="192" fill="none" stroke="#000" stroke-linecap="round" stroke-width="12" viewBox="0 0 192 192"><path d="M62 92.042s14.57 11.993 34 11.993c19.428 0 34-11.993 34-11.993m0 0-6 18.99m6-18.99-16-5.997"/><path stroke-linejoin="round" d="M38 96.04v64.965c0 5.154 3.945 8.995 9 8.995h29c0-5.997 5.123-19.99 20-19.99s20 13.993 20 19.99h29c5.13 0 9-3.878 9-8.995V96.04m-116 0V30.989c0-5.155 3.945-8.995 9-8.995h29c0 5.996 5.123 19.989 20 19.989s20-13.993 20-19.99h29c5.13 0 9 3.878 9 8.996v65.05"/></svg>