<svg width="192" height="192" viewBox="0 0 192 192" fill="none" xmlns="http://www.w3.org/2000/svg">
<path d="M146 22C150.418 22 154 25.5817 154 30L154 162C154 166.418 150.418 170 146 170L46 170C41.5817 170 38 166.418 38 162L38 30C38 25.5817 41.5817 22 46 22L146 22Z" stroke="black" stroke-width="12"/>
<path d="M130 46L123 46" stroke="black" stroke-width="12" stroke-linecap="round"/>
<path d="M69 46L62 46" stroke="black" stroke-width="12" stroke-linecap="round"/>
<path d="M99.5 46L92.5 46" stroke="black" stroke-width="12" stroke-linecap="round"/>
<path d="M130 146L123 146" stroke="black" stroke-width="12" stroke-linecap="round"/>
<path d="M69 146L62 146" stroke="black" stroke-width="12" stroke-linecap="round"/>
<path d="M99.5 146L92.5 146" stroke="black" stroke-width="12" stroke-linecap="round"/>
<path d="M62 92C62 92 76.5714 104 96 104C115.429 104 130 92 130 92M130 92L124 112M130 92L114 86" stroke="black" stroke-width="12" stroke-linecap="round" stroke-linejoin="round"/>
</svg>
