<svg xmlns="http://www.w3.org/2000/svg" width="192" height="192" fill="none" viewBox="0 0 192 192"><path stroke="#000" stroke-linecap="round" stroke-linejoin="round" stroke-width="12" d="M96 170c40.869 0 74-33.131 74-74 0-40.87-33.131-74-74-74-40.87 0-74 33.13-74 74 0 40.869 33.13 74 74 74Z"/><path stroke="#000" stroke-linecap="round" stroke-linejoin="round" stroke-width="4" d="M84.665 117.33a4.165 4.165 0 1 0 0-8.33 4.165 4.165 0 0 0 0 8.33Z"/><path stroke="#000" stroke-linecap="round" stroke-linejoin="round" stroke-width="8" d="M68.457 164.702a38.1 38.1 0 0 0-23.89-49.885 38.095 38.095 0 0 0-20.364-.835M70.5 111.5c-6.36-6.709-12.408-9.532-21.224-12.316a54.494 54.494 0 0 0-27.254-1.438m62.225 71.325a54.543 54.543 0 0 0 2.857-22.689c-.662-7.679-2.852-14.649-6.604-21.382M80 98.5C66.77 85.344 51.572 80.306 32.914 80.331c-3.137 0-6.272.205-9.382.617m77.577 88.877a70.784 70.784 0 0 0 2.52-18.779c.018-11.327-2.411-18.992-7.629-29.046m1.02-53.315h19.293v12.668H97.02V68.685Zm-12.316 56.611c6.802 0 12.316-5.514 12.316-12.316 0-6.802-5.514-12.316-12.316-12.316-6.802 0-12.316 5.514-12.316 12.316 0 6.802 5.514 12.316 12.316 12.316ZM97.02 81.353v31.627"/></svg>