<svg width="192" height="192" viewBox="0 0 192 192" fill="none" xmlns="http://www.w3.org/2000/svg">
<g clip-path="url(#clip0_917_1312)">
<g filter="url(#filter0_d_917_1312)">
<path d="M109.758 146.5V168.113C109.758 174.099 101.148 175.027 99.8727 169.178L89.8008 123C86.8798 113.828 86.9463 109.491 92.0035 105.199C92.5616 104.725 93.2416 104.418 93.9564 104.261L108.166 101.125C108.544 101.042 108.93 101.003 109.317 101.008C111.506 101.037 112.804 101.032 114.875 101L126.844 102.462C127.048 102.487 127.29 102.434 127.484 102.365C128.724 101.925 129.277 96.7865 128.271 95.9393C122.232 90.855 115.183 84.4665 114.875 83C114.345 80.4806 115.739 68.8629 107.615 64.4532C107.018 64.1286 106.336 63.9986 105.656 63.9931C101.21 63.957 99.0699 63.8504 96.8481 63.6062C96.2482 63.5402 95.6399 63.5747 95.0521 63.7118C89.3846 65.0337 85.7162 65.3224 82.1614 64.3862C79.483 63.6808 76.4631 64.4918 75.2297 66.9718C68.7902 79.9193 66.1707 88.8462 62.7788 105.026C62.7135 105.338 62.6768 105.663 62.674 105.982C62.5851 116.349 64.6789 123.728 69.6777 134.111C71.3099 137.501 68.9061 141.5 65.1434 141.5H51.655C49.6516 141.5 47.8416 140.304 47.0558 138.461L33.8252 107.435C33.2975 106.198 33.2907 104.8 33.8066 103.557L61.3999 37.0831C62.1747 35.2166 63.9969 34 66.0178 34H115.145C117.153 34 118.966 35.2009 119.749 37.0495L161.055 134.55C162.452 137.847 160.032 141.5 156.452 141.5H114.758C111.996 141.5 109.758 143.739 109.758 146.5Z" stroke="black" stroke-width="10" shape-rendering="crispEdges"/>
</g>
<ellipse cx="99" cy="76.5" rx="5" ry="4.5" fill="black"/>
</g>
<defs>
<filter id="filter0_d_917_1312" x="24.4243" y="29" width="146.038" height="157.118" filterUnits="userSpaceOnUse" color-interpolation-filters="sRGB">
<feFlood flood-opacity="0" result="BackgroundImageFix"/>
<feColorMatrix in="SourceAlpha" type="matrix" values="0 0 0 0 0 0 0 0 0 0 0 0 0 0 0 0 0 0 127 0" result="hardAlpha"/>
<feOffset dy="4"/>
<feGaussianBlur stdDeviation="2"/>
<feComposite in2="hardAlpha" operator="out"/>
<feColorMatrix type="matrix" values="0 0 0 0 0 0 0 0 0 0 0 0 0 0 0 0 0 0 0.25 0"/>
<feBlend mode="normal" in2="BackgroundImageFix" result="effect1_dropShadow_917_1312"/>
<feBlend mode="normal" in="SourceGraphic" in2="effect1_dropShadow_917_1312" result="shape"/>
</filter>
<clipPath id="clip0_917_1312">
<rect width="192" height="192" fill="white"/>
</clipPath>
</defs>
</svg>
