<svg width="192" height="192" fill="none" xmlns="http://www.w3.org/2000/svg"><path d="M53.736 170s-13.369-24.564-16.113-39.838c-2.744-15.275-3.765-25.406-.948-39.04C43.963 63.176 50.345 42.835 61 22c7.33 2.321 21.392 3.182 29.512.866 3.85-1.098 7.918-1.115 11.828-.26 3.988.872 7.88 1.135 13.006 1.135 18.955 5.699 12.322 17.995 14.217 36.99 4.849 9.269 11.418 8.769 20.218 14.195 12.322 7.598 14.913 16.315 5.68 19.164-9.234 2.85-18.316-.849-25.898-.849-7.583 0-10.689-.428-18.564 2.85-4.892 1.578-6.341 4.102-8.978 5.08-5.291 1.962-11.995.585-15.213 5.231-3.474 5.016-3.788 15.639-2.8 25.18.99 9.541 14.728 38.418 14.728 38.418" stroke="#000" stroke-width="12" stroke-linecap="round" stroke-linejoin="round"/><path d="M103 52a4 4 0 1 0 0-8 4 4 0 0 0 0 8Z" stroke="#000" stroke-width="8" stroke-linecap="round" stroke-linejoin="round"/></svg>