<svg width="192" height="192" viewBox="0 0 192 192" fill="none" xmlns="http://www.w3.org/2000/svg">
<path d="M53.8466 97.6667L65.1895 126.333L113.23 171L86.5 97.6667C85.8041 92.3732 86.025 88.4259 88.4705 84.9051C90.7357 81.6437 95.4553 82.6101 99.1797 81.2331C101.036 80.547 102.056 78.7746 105.5 77.6667C111.044 75.3661 113.23 75.6667 118.568 75.6667C118.568 75.6667 127.5 79.6667 134 77.6667C140.5 75.6667 145.674 66.3333 137 61C128.326 55.6667 122.571 58.3333 118.568 50.3333C117.234 37 121.904 27.6667 108.56 23.6667C104.952 23.6667 102.212 23.482 99.4046 22.8698C96.6518 22.2695 93.7878 22.2818 91.0778 23.0526C85.3623 24.6782 81.3066 24.4296 76.1462 22.8001C73.2725 21.8926 70.0851 22.9635 68.7098 25.645C61.209 40.2703 58.3095 52.0497 53.1794 71.6667C51.1964 81.2368 51.915 86.9447 53.8466 97.6667Z" stroke="black" stroke-width="12" stroke-linejoin="round"/>
<circle cx="96" cy="46" r="4" stroke="black" stroke-width="8" stroke-linecap="round" stroke-linejoin="round"/>
</svg>
