<svg xmlns="http://www.w3.org/2000/svg" width="192" height="192" fill="none"><circle cx="96" cy="96" r="42" stroke="#000" stroke-linecap="round" stroke-linejoin="round" stroke-width="12"/><path stroke="#000" stroke-linecap="round" stroke-linejoin="round" stroke-width="12" d="M54 96a74 74 0 0 1 58.037-72.258M96 54a74 74 0 0 1 52.326 21.674 74 74 0 0 1 19.932 36.363M138 96a74 74 0 0 1-58.037 72.258M96 138a74 74 0 0 1-72.258-58.037m88.295-56.22A74.3 74.3 0 0 0 96 22c-35.362 0-64.931 24.804-72.258 57.963m88.295-56.22C145.196 31.068 170 60.637 170 96c0 5.507-.601 10.873-1.742 16.037M23.742 79.963A74.3 74.3 0 0 0 22 96c0 35.362 24.804 64.931 57.963 72.258m0 0A74.3 74.3 0 0 0 96 170c35.362 0 64.931-24.804 72.258-57.963"/><circle cx="96" cy="96" r="16" stroke="#000" stroke-linecap="round" stroke-linejoin="round" stroke-width="12"/></svg>