<svg width="192" height="192" fill="none" xmlns="http://www.w3.org/2000/svg"><circle cx="96" cy="96" r="42" stroke="#000" stroke-width="12" stroke-linecap="round" stroke-linejoin="round"/><path d="M54 96a74.001 74.001 0 0 1 58.037-72.258M96 54a74.006 74.006 0 0 1 52.326 21.674 74.01 74.01 0 0 1 19.932 36.363M138 96a74.002 74.002 0 0 1-58.037 72.258M96 138a73.997 73.997 0 0 1-72.258-58.037m88.295-56.22A74.269 74.269 0 0 0 96 22c-35.362 0-64.931 24.804-72.258 57.963m88.295-56.22C145.196 31.068 170 60.637 170 96c0 5.507-.601 10.873-1.742 16.037M23.742 79.963A74.263 74.263 0 0 0 22 96c0 35.362 24.804 64.931 57.963 72.258m0 0A74.257 74.257 0 0 0 96 170c35.362 0 64.931-24.804 72.258-57.963" stroke="#000" stroke-width="12" stroke-linecap="round" stroke-linejoin="round"/><circle cx="96" cy="96" r="16" stroke="#000" stroke-width="12" stroke-linecap="round" stroke-linejoin="round"/></svg>