<svg xmlns="http://www.w3.org/2000/svg" width="192" height="192" fill="none" viewBox="0 0 192 192"><path stroke="#000" stroke-linecap="round" stroke-linejoin="round" stroke-width="12" d="M28 28a6 6 0 0 1 6-6h124a6 6 0 0 1 6 6v109.036a6 6 0 0 1-3.646 5.519l-62 26.441a6 6 0 0 1-4.708 0l-62-26.441A6 6 0 0 1 28 137.036z"/><path stroke="#000" stroke-linecap="round" stroke-linejoin="round" stroke-width="12" d="m141 120-42.666 18.015a6 6 0 0 1-4.668 0L51 120m90-31-42.666 18.015a6 6 0 0 1-4.668 0L51 89m90-31L98.334 76.015a6 6 0 0 1-4.668 0L51 58"/></svg>