<svg width="192" height="192" viewBox="0 0 192 192" fill="none" xmlns="http://www.w3.org/2000/svg"><path d="m164.047 35.083-7.13-7.13c-3.938-3.937-10.322-3.937-14.259 0l-6.125 6.125C124.89 26.441 110.964 22 96 22c-40.87 0-74 33.13-74 74 0 14.964 4.442 28.89 12.078 40.533l-6.125 6.125c-3.937 3.937-3.937 10.321 0 14.259l7.13 7.13c3.938 3.937 10.322 3.937 14.26 0l6.124-6.125C67.11 165.559 81.037 170 96 170c40.869 0 74-33.131 74-74 0-14.964-4.441-28.89-12.078-40.533l6.125-6.125c3.937-3.937 3.937-10.322 0-14.26Z" stroke="#000" stroke-width="12" stroke-linecap="round" stroke-linejoin="round"/><path d="m73 129 20.889-70h4.736L120 129m-42.264-15.69h37.528" stroke="#000" stroke-width="12" stroke-linecap="round" stroke-linejoin="round"/></svg>