<svg xmlns="http://www.w3.org/2000/svg" width="192" height="192" viewBox="0 0 192 192"><path fill="none" stroke="#000" stroke-linecap="round" stroke-linejoin="round" stroke-width="12" d="m76.6 125 17.2-58h3.9l17.6 58m-34.8-13h30.9m44.1-60c9.1 12.3 14.5 27.5 14.5 44 0 40.9-33.1 74-74 74-16.5 0-31.8-5.4-44-14.5m-17-17.6C26.8 126 22 111.6 22 96c0-40.9 33.1-74 74-74 15.6 0 30 4.8 41.9 13m0 0 6.2-6.2c2.4-2.4 5.5-3.6 8.6-3.6s6.2 1.2 8.6 3.6c4.7 4.8 4.7 12.5 0 17.2l-5.9 5.9M52 155.5l-6 5.9c-4.7 4.7-12.5 4.7-17.2 0s-4.7-12.5 0-17.2l6.3-6.3"/></svg>