<?xml version="1.0" encoding="utf-8"?>
<!-- Generator: Adobe Illustrator 25.4.1, SVG Export Plug-In . SVG Version: 6.00 Build 0)  -->
<svg version="1.1" id="Layer_1" xmlns="http://www.w3.org/2000/svg" xmlns:xlink="http://www.w3.org/1999/xlink" x="0px" y="0px"
	 width="192px" height="192px" viewBox="0 0 192 192" style="enable-background:new 0 0 192 192;" xml:space="preserve">
<style type="text/css">
	.st0{fill:none;stroke:#000000;stroke-width:12;stroke-linecap:round;stroke-linejoin:round;stroke-miterlimit:10;}
</style>
<path class="st0" d="M76.6,125l17.2-58h3.9l17.6,58 M80.5,112h30.9 M155.5,52c9.1,12.3,14.5,27.5,14.5,44c0,40.9-33.1,74-74,74
	c-16.5,0-31.8-5.4-44-14.5 M35,137.9C26.8,126,22,111.6,22,96c0-40.9,33.1-74,74-74c15.6,0,30,4.8,41.9,13 M137.9,35l6.2-6.2
	c2.4-2.4,5.5-3.6,8.6-3.6c3.1,0,6.2,1.2,8.6,3.6c4.7,4.8,4.7,12.5,0,17.2l-5.9,5.9 M52,155.5l-6,5.9c-4.7,4.7-12.5,4.7-17.2,0
	c-4.7-4.7-4.7-12.5,0-17.2l6.3-6.3"/>
</svg>
