<svg xmlns="http://www.w3.org/2000/svg" width="192" height="192" fill="none"><path stroke="#000" stroke-linecap="round" stroke-linejoin="round" stroke-width="12" d="M96 22H28a6 6 0 0 0-6 6v68m0-44h74"/><path stroke="#000" stroke-linecap="round" stroke-linejoin="round" stroke-width="12" d="M96 22a74 74 0 0 1 71.479 54.847 74.002 74.002 0 0 1-123.805 71.479A74 74 0 0 1 22 96m74-44a44 44 0 0 1 42.501 32.612A44 44 0 0 1 118 134.105a44 44 0 0 1-65.624-32.362A44 44 0 0 1 54.286 82m-30.95 0H96"/><circle cx="96" cy="96" r="14" stroke="#000" stroke-linecap="round" stroke-linejoin="round" stroke-width="12"/></svg>