<?xml version="1.0" encoding="UTF-8" standalone="no"?>
<!-- Created with Inkscape (http://www.inkscape.org/) -->

<svg
   width="192"
   height="192"
   viewBox="0 0 192 192"
   version="1.1"
   id="svg1"
   xmlns="http://www.w3.org/2000/svg"
   xmlns:svg="http://www.w3.org/2000/svg">
  <defs
     id="defs1" />
  <g
     id="layer1">
    <g
       id="g2885"
       transform="matrix(3.7629987,0,0,3.7629987,0.09895775,0.41984807)"
       style="stroke-width:3.18895;stroke-dasharray:none">
      <path
         style="fill:none;stroke:#000000;stroke-width:3.18895;stroke-linecap:round;stroke-linejoin:round;stroke-dasharray:none;stroke-opacity:1"
         d="m 5.8200673,15.802841 v -0.662987 a 3,3 135 0 1 3,-3 H 29.092212 a 3,3 45 0 1 3,3 v 20.520284 a 3,3 135 0 1 -3,3 h -1.686975 a 3,3 45 0 1 -3,-3 V 21.811746 a 3.0014378,3.0014378 45.013727 0 0 -3,-3.001437 l -12.58517,-0.006 A 3.0014378,3.0014378 45.013727 0 1 5.8200673,15.802841 Z"
         id="path42" />
      <path
         style="fill:none;fill-opacity:1;stroke:#000000;stroke-width:3.18895;stroke-linecap:round;stroke-linejoin:round;stroke-miterlimit:16;stroke-dasharray:none;stroke-opacity:1"
         id="rect43"
         width="7.0498395"
         height="6.5990119"
         x="38.100636"
         y="12.228442"
         rx="0"
         ry="0"
         d="m 40.100636,12.228442 h 3.049839 a 2,2 45 0 1 2,2 v 2.599012 a 2,2 135 0 1 -2,2 h -3.049839 a 2,2 45 0 1 -2,-2 v -2.599012 a 2,2 135 0 1 2,-2 z" />
    </g>
  </g>
</svg>
