<svg xmlns="http://www.w3.org/2000/svg" xml:space="preserve" width="192" height="192" style="enable-background:new 0 0 192 192"><path d="M86.9 74.7h28.8c1.2 0 2 1.3 1.4 2.4l-17.5 32.7c-.6 1.1.2 2.4 1.4 2.4h17.3c1.2 0 2 1.3 1.4 2.4l-30.4 54.5c-.9 1.5-3.2.8-3-.9l3.2-35.5c.1-1-.7-1.8-1.6-1.8H73.7c-1.1 0-1.8-1-1.6-2l13.2-53c.2-.7.9-1.2 1.6-1.2zm12.5-24.2h0c-7.9 0-14.3-6.4-14.3-14.3v0c0-7.9 6.4-14.3 14.3-14.3h0c7.9 0 14.3 6.4 14.3 14.3v0c0 7.9-6.4 14.3-14.3 14.3z" style="fill:none;stroke:#000;stroke-width:12;stroke-linecap:round;stroke-linejoin:round;stroke-miterlimit:10"/></svg>