<svg xmlns="http://www.w3.org/2000/svg" width="192" height="192" viewBox="0 0 192 192"><path fill="none" stroke="#000" stroke-linecap="round" stroke-linejoin="round" stroke-width="12" d="m98.6 90.9-.1-32.8m-48.2 5.5 37.9 10.3c2.3.6 4 2.7 4 5.2v40.3a1.467 4.4 0 0 1-2.2 4.4l-22.3 15.9c-1.3 1-3.1 1.2-4.7.8l-37.2-11.3c-2.3-.7-3.8-2.8-3.8-5.1V81.8c0-1.9 1-3.6 2.6-4.6l21.5-13c1.3-.8 2.8-1 4.2-.6m15.1 77.1V94.9c0-2.4-1.6-4.5-3.9-5.2l-38-10.6m100.9.2L166 90.6c2.3.6 4 2.7 4 5.2v44.4c0 1.7-.8 3.4-2.2 4.4l-24.6 17.5c-1.3 1-3.1 1.2-4.7.8l-40.8-12.3c-2.3-.7-3.8-2.8-3.8-5.1V99a2.6 4.6 0 0 1 2.6-4.6l23.7-14.3c1.3-1 2.8-1.2 4.2-.8m16.6 83.8v-50c0-2.4-1.6-4.5-3.9-5.2L94.9 96m34.9-44.2 39.9 8.8m-126-27.9 28.1 6.2m58.1 12.6c1.5-7-3-13.9-10-15.4l-32.8-7c-7-1.5-13.9 3-15.4 10h0c-1.5 7 3 13.9 10 15.4l32.8 7c7 1.5 13.9-3 15.4-10"/></svg>