<svg xmlns="http://www.w3.org/2000/svg" width="192" height="192" fill="none" viewBox="0 0 192 192"><path stroke="#000" stroke-width="10" d="m78.157 142.762 8.85 15.535c6.92 12.147 22.247 16.31 34.234 9.296l28.586-16.726c11.986-7.014 16.093-22.547 9.173-34.695l-19.863-34.868m-87.716-9.936c-10.936 2.73-19.046 12.736-19.046 24.661v40.637c0 14.027 11.22 25.398 25.06 25.398h31.577M78.124 49.297l8.883-15.594c6.92-12.147 22.247-16.31 34.234-9.296l34.725 20.318c11.986 7.014 16.093 22.547 9.172 34.695l-12.043 21.141M87.508 31.179l-6.364-3.724C69.157 20.44 53.83 24.603 46.91 36.75L26.862 71.944c-5.93 10.41-3.763 23.307 4.522 31.197"/><rect width="86" height="86" x="53.5" y="53" stroke="#000" stroke-width="12" rx="25"/><path stroke="#000" stroke-linecap="round" stroke-linejoin="round" stroke-width="10" d="m86.5 83-13 13 13 13m20-26 13 13-13 13"/></svg>