<svg xmlns="http://www.w3.org/2000/svg" width="192" height="192" fill="none" stroke="#000" stroke-linecap="round" stroke-width="12" viewBox="0 0 192 192"><path d="M21.996 26.26A23.3 23.3 0 0 1 45.34 49.64v116.244"/><path stroke-linejoin="round" d="M169.886 165.883H82.49a6 6 0 0 1-6-6v-17.27a46.5 46.5 0 0 1 13.682-32.92 46.8 46.8 0 0 1 33.022-13.629h23.482a22.97 22.97 0 0 0 21.592-14.445A23.2 23.2 0 0 0 170 72.68a46.43 46.43 0 0 0-11.018-30.04 46.667 46.667 0 0 0-79.805 14.7 51.5 51.5 0 0 0-2.014 7.688"/></svg>