<svg xmlns="http://www.w3.org/2000/svg" xml:space="preserve" width="192" height="192" viewBox="0 0 50.8 50.8"><path d="M29.39 6.48a10.99 10.99 0 0 0-6.36 1.975 12.67 12.67 0 0 0-3.411 3.461c-.323-.124-.612-.25-1.117-.383-1.488-.39-3.804-.396-5.84 1.317a6.356 6.356 0 0 0-2.297 4.66c-.01.362.02.544.041.81-1.544.59-2.95 1.533-4.005 2.844-1.343 1.667-2.252 3.745-2.167 5.926.145 3.723 2.201 5.46 3.342 6.314-.247.466-.546.915-.531 1.5.023.857.287 1.768.82 2.926.569 1.235 1.573 2.052 2.549 2.54.975.486 1.943.73 2.805 1.009 1.545.498 2.958.329 3.931.138.43-.084.737-.16.948-.203 3.667 2.596 6.509 2.736 9.496 2.805 5.162.12 8.845-1.868 10.586-4.959.298-.53.384-1.004.406-1.434.146-.015.206.003.363-.019.009 0 .017-.003.026-.004-.666-.287-1.514-.69-2.27-1.162a5.347 5.347 0 0 1-1.197-1.01l-.03.057c-.16.351-.146.51-.152.629-.012.238.009.323.02.42.022.192.046.346.06.505.028.32-.058.576.008.46-.769 1.364-2.074 2.479-4.23 3.01a1.904 1.904 0 0 1-.301.257c-.377.262-.884.358-.904.362-.526.084-.987-.024-1.01-.028a16.18 16.18 0 0 1-1.202-.257h-.099l-.824-.017c-.33.093-.672.119-1.016.024a1.058 1.058 0 0 1-.082-.025 1.061 1.061 0 0 0-.132-.034c-1.978-.094-3.49-.457-6.073-2.406-.887-.67-1.472-.397-1.871-.326-.4.071-.752.164-1.129.238-.754.148-1.536.22-2.348-.043-.96-.31-1.794-.546-2.361-.83-.568-.283-.85-.52-1.082-1.025-.413-.897-.507-1.428-.518-1.64.034-.019-.034.022.048-.018.138-.07.479-.075.86-.805.143-.272.198-.658.17-.986a7.231 7.231 0 0 1-.704-.496c-.302-.243-.688-.593-.97-1.113a2.869 2.869 0 0 1-.257-.654c-1.043-.805-1.883-1.523-1.973-3.823-.045-1.168.516-2.63 1.467-3.81.95-1.181 2.257-2.026 3.336-2.221.435-.08.925-.437 1.133-.768.208-.332.241-.58.263-.758.045-.357.013-.53-.003-.717-.033-.372-.074-.716-.063-1.086.023-.74.139-1.462 1.168-2.328 1.233-1.037 2.054-.919 2.989-.674.467.123.904.31 1.38.48.239.086.473.184.903.216.214.016.5.016.85-.117.348-.134.721-.449.913-.784.15-.26 1.266-2.064 3.098-3.336 1.374-.953 3.058-1.675 5.293-1.398.745.093 1.552.296 2.428.639 2.93 1.146 3.99 2.915 4.543 4.63.276.858.392 1.697.454 2.399.032.35.05.664.073.955.023.29-.028.476.195 1.026a1.588 1.588 0 0 0 1.233.972c.83.126 2.209.603 3.195 2.066 1.002-.197 1.758-.281 1.758-.281l-.002.002c.859-.096 1.625.366 2.03.998-1.029-3.157-3.298-4.83-5.282-5.521-.012-.168-.019-.29-.038-.498-.073-.82-.214-1.91-.595-3.092-.762-2.365-2.615-5.128-6.408-6.612a12.487 12.487 0 0 0-3.203-.802 11.237 11.237 0 0 0-1.124-.066Zm16.96 17.772c-.04.727-.444 1.479-1.196 1.836l.024-.01s-.567.285-1.258.705c-.212.13-.433.274-.652.423-.372 1.639-1.48 3.364-2.102 4.034a1.75 1.75 0 0 0-.223.308c.08.41.206.916.389 1.304a11.91 11.91 0 0 0 1.219 2.03v.003c.198.253.324.538.387.83.475-.572.79-1.187.984-1.742.16-.462.117-.897.03-1.239 1.234-1.483 2.772-3.866 2.613-6.906a1.588 1.588 0 0 0-.003-.035 12.284 12.284 0 0 0-.212-1.54Z" style="color:#000;fill:#000;stroke-linecap:round;stroke-linejoin:round;stroke-miterlimit:3;-inkscape-stroke:none;paint-order:markers fill stroke"/><path d="M11.476 30.017c-.566 1.023 4.212 2.906 6.59 3.324.704.124 1.933-.4 1.933-.4l2.854-1.866c.503-.329.404 2.28-.21 3.122-.54.74-1.925 1.703-1.925 1.703 1.244.235 1.913 1.753 3.458 2.418.77.331 1.553.35 2.296.622l-.51-.661s4.266 1.213 3.665.767c-1.237-.918-1.601-2.732-1.601-2.732s2.666-1.194 4.308-2.515c1.16-.934 3.438-1.196 3.438-1.196s.756 1.332 2.054 2.142c1.212.756 3.059 1.443 3.059 1.443s-.797-1.017-1.466-2.432c-.427-1.016-1.007-1.657-.836-3.17.289-1.696 1.026-2.842 1.91-3.84 1.28-1.395 3.752-2.57 3.752-2.57s-3.88.434-5.465 1.665c-1.827 1.418-3.323 4.47-3.323 4.47l-5.906-2.55c-.244-.104-.04-2.376-.04-2.376l-1.676.762s.778-1.795 2.07-2.002c.027-.005.22-.56.441-.978.279-.528.596-.944.596-.944s-2.168.405-3.775.967c-2.067.722-3.26 2.386-3.26 2.386-2.11-.065-11.181 2.183-12.43 4.441z" style="display:inline;fill:none;stroke:#000;stroke-width:2.11667;stroke-linecap:round;stroke-linejoin:round;stroke-miterlimit:3;stroke-dasharray:none;paint-order:markers fill stroke"/><rect width="3.969" height="3.175" x="11.392" y="21.26" rx="1.587" ry="1.587" style="fill:#000;fill-opacity:1;stroke:none;stroke-width:2.11667;stroke-linecap:round;stroke-linejoin:round;stroke-miterlimit:3;stroke-dasharray:none;stroke-opacity:1;paint-order:markers fill stroke" transform="rotate(-13.367)"/><rect width="3.969" height="3.175" x="11.198" y="25.565" rx="1.587" ry="1.587" style="fill:#000;fill-opacity:1;stroke:none;stroke-width:2.11667;stroke-linecap:round;stroke-linejoin:round;stroke-miterlimit:3;stroke-dasharray:none;stroke-opacity:1;paint-order:markers fill stroke" transform="rotate(-13.367)"/><path d="M24.277 20.232a1.584 1.584 0 0 0-1.546 1.587c0 .728.485 1.34 1.151 1.528.406-.516 1.224-1.438 2.69-2.154a1.584 1.584 0 0 0-1.46-.961h-.834zm2.322 2.145a6.874 6.874 0 0 0-1.368 1.025 1.584 1.584 0 0 0 1.368-1.025z" style="stroke-width:2.11667;stroke-linecap:round;stroke-linejoin:round;stroke-miterlimit:3;paint-order:markers fill stroke" transform="rotate(1.715)"/><rect width="3.969" height="3.175" x="23.895" y="15.031" rx="1.587" ry="1.587" style="fill:#000;fill-opacity:1;stroke:none;stroke-width:2.11667;stroke-linecap:round;stroke-linejoin:round;stroke-miterlimit:3;stroke-dasharray:none;stroke-opacity:1;paint-order:markers fill stroke" transform="rotate(4.77)"/><path d="M33.64 9.196c-.647.2-1.115.803-1.115 1.517 0 .763.533 1.396 1.248 1.551.766-.424 1.34-.706 1.34-.706a1.578 1.578 0 0 1 1.189-.085c.122-.226.192-.484.192-.76 0-.88-.708-1.587-1.588-1.587h-.793c-.165 0-.324.024-.473.07z" style="stroke-width:2.11667;stroke-linecap:round;stroke-linejoin:round;stroke-miterlimit:3;paint-order:markers fill stroke" transform="rotate(15.763)"/><rect width="3.969" height="3.175" x="31.882" y="6.276" rx="1.587" ry="1.587" style="fill:#000;fill-opacity:1;stroke:none;stroke-width:2.11667;stroke-linecap:round;stroke-linejoin:round;stroke-miterlimit:3;stroke-dasharray:none;stroke-opacity:1;paint-order:markers fill stroke" transform="rotate(13.182)"/><rect width="3.969" height="3.175" x="38.901" y="10.477" rx="1.587" ry="1.587" style="fill:#000;fill-opacity:1;stroke:none;stroke-width:2.11667;stroke-linecap:round;stroke-linejoin:round;stroke-miterlimit:3;stroke-dasharray:none;stroke-opacity:1;paint-order:markers fill stroke" transform="rotate(21.608)"/><rect width="3.969" height="3.175" x="3.008" y="26.642" rx="1.587" ry="1.587" style="fill:#000;fill-opacity:1;stroke:none;stroke-width:2.11667;stroke-linecap:round;stroke-linejoin:round;stroke-miterlimit:3;stroke-dasharray:none;stroke-opacity:1;paint-order:markers fill stroke" transform="rotate(-20.033)"/></svg>