<svg xmlns="http://www.w3.org/2000/svg" width="192" height="192" fill="none"><path stroke="#000" stroke-linecap="round" stroke-linejoin="round" stroke-width="12" d="M91 159h60m-2-48V55a6 6 0 0 0-6-6H87.954a6 6 0 0 1-4.755-2.342L76.8 38.342A6 6 0 0 0 72.046 36H28a6 6 0 0 0-6 6v94a6 6 0 0 0 6 6h38.5"/><path stroke="#000" stroke-linecap="round" stroke-linejoin="round" stroke-width="12" d="M151 159a18.996 18.996 0 0 0 18.635-15.293 19 19 0 0 0-.282-8.625 19.01 19.01 0 0 0-11.082-12.636 19 19 0 0 0-7.288-1.446 29.998 29.998 0 0 0-51.196-20.213 30 30 0 0 0-5.904 8.38 25 25 0 0 0-21.68 8.349 25 25 0 0 0-5.723 21.361A25 25 0 0 0 91 159"/></svg>