<svg xmlns="http://www.w3.org/2000/svg" width="192" height="192" fill="none"><path stroke="#000" stroke-linecap="round" stroke-linejoin="round" stroke-width="12" d="m98 96 39-39M98 96l39 39M98 96 78.9 76.9M98 96l-19.1 19.101m0-38.201A13.96 13.96 0 0 0 83 67c0-7.732-6.268-14-14-14s-14 6.268-14 14 6.268 14 14 14a13.96 13.96 0 0 0 9.9-4.1m0 38.201A13.96 13.96 0 0 0 69 111c-7.732 0-14 6.268-14 14s6.268 14 14 14 14-6.268 14-14c0-3.866-1.567-7.366-4.1-9.899M92 29h8m-8 134h8m27-134h8m-8 134h8m27-134h8m-8 134h8M57 29h8m-8 134h8M22 29h8m-8 134h8"/></svg>