<svg width="192" height="192" viewBox="0 0 192 192" fill="none" xmlns="http://www.w3.org/2000/svg">
<rect x="53" y="53" width="86" height="86" rx="25" stroke="black" stroke-width="12"/>
<path d="M86 83L73 96L86 109" stroke="black" stroke-width="10" stroke-linecap="round" stroke-linejoin="round"/>
<path d="M106 83L119 96L106 109" stroke="black" stroke-width="10" stroke-linecap="round" stroke-linejoin="round"/>
<path d="M116.162 24.6694C108.457 20.2097 98.9663 21.5386 92.5954 27.1618C89.9233 29.5202 85.8817 30.481 82.998 28.3867L78.7055 25.2694C69.0259 19.6668 57.5 23 51.0573 32.6998L24.993 71.1436C19.9886 79.8337 21.3087 92.149 28.5867 98.6531C30.1833 100.08 31.3835 102 31.3835 104.141V140.331C31.3836 151.54 40.5564 160.627 51.7322 160.627H85.6932C87.7449 160.627 89.6064 161.722 90.9726 163.252C97.2261 170.259 107.72 172.166 116.162 167.279L159.879 141.975C169.558 136.373 172.874 123.963 167.284 114.257L161.353 103.959C158.507 99.0158 158.507 92.931 161.354 87.9881L167.284 77.6915C172.874 67.9854 169.558 55.575 159.879 49.9724L116.162 24.6694Z" stroke="black" stroke-width="12" stroke-linejoin="round"/>
</svg>
