<svg xmlns="http://www.w3.org/2000/svg" width="192" height="192" fill="none" stroke="#000" stroke-linecap="round" stroke-linejoin="round" viewBox="0 0 192 192"><path stroke-width="12" d="M170 96c0 6.357-6.734 11.744-8.3 17.607-1.621 6.066 1.469 14.089-1.6 19.4-3.117 5.387-11.64 6.7-16.012 11.076s-5.689 12.9-11.076 16.012c-5.311 3.072-13.334-.018-19.4 1.6-5.863 1.567-11.25 8.3-17.607 8.3s-11.744-6.734-17.607-8.3c-6.066-1.621-14.089 1.469-19.4-1.6-5.387-3.117-6.7-11.64-11.076-16.012s-12.901-5.689-16.022-11.076c-3.072-5.311.018-13.334-1.6-19.4C28.734 107.744 22 102.357 22 96s6.734-11.744 8.3-17.607c1.621-6.066-1.469-14.089 1.6-19.4 3.117-5.387 11.64-6.7 16.012-11.076S53.606 35.021 58.993 31.9c5.311-3.072 13.334.018 19.4-1.6C84.256 28.734 89.643 22 96 22s11.744 6.734 17.607 8.3c6.066 1.621 14.089-1.469 19.4 1.6 5.387 3.117 6.7 11.64 11.076 16.012s12.9 5.689 16.012 11.076c3.072 5.311-.018 13.334 1.6 19.4C163.266 84.256 170 89.643 170 96"/><path stroke-miterlimit="10" stroke-width="6" d="M111 102a3.076 3.076 0 1 0-2.1-.9 2.88 2.88 0 0 0 2.1.9m-30 0a3.076 3.076 0 1 0-2.1-.9 2.88 2.88 0 0 0 2.1.9"/><path stroke-width="10" d="M118.243 82.068a41.66 41.66 0 0 1 14.994 14.321 42.7 42.7 0 0 1 5.026 11.346 6.563 6.563 0 0 1-6.342 8.265H60.079a6.563 6.563 0 0 1-6.342-8.265 42.7 42.7 0 0 1 5.026-11.346 41.66 41.66 0 0 1 14.994-14.321l.655-.359a44.9 44.9 0 0 1 19.729-5.692q.925-.037 1.859-.037t1.859.037a44.9 44.9 0 0 1 19.729 5.692Zm-40.036-2.237L71.175 66m42.618 13.831L120.825 66"/></svg>