<svg width="192" height="192" viewBox="0 0 192 192" fill="none" xmlns="http://www.w3.org/2000/svg">
<path d="M78.1571 142.762L87.0071 158.297C93.9274 170.444 109.254 174.607 121.241 167.593L149.827 150.867C161.813 143.853 165.92 128.32 159 116.172L139.137 81.3041M51.421 71.3675C40.4853 74.0977 32.375 84.1036 32.375 96.0293V136.666C32.375 150.693 43.595 162.064 57.4356 162.064H89.0119M78.1237 49.297L87.0071 33.7032C93.9274 21.5556 109.254 17.3935 121.241 24.4069L155.966 44.7253C167.952 51.7388 172.059 67.272 165.138 79.4197L153.095 100.561M87.5083 31.179L81.1436 27.4548C69.1573 20.4413 53.8304 24.6034 46.9101 36.7511L26.8617 71.9436C20.9311 82.3539 23.099 95.2506 31.3843 103.141" stroke="black" stroke-width="10"/>
<rect x="53.5" y="53" width="86" height="86" rx="25" stroke="black" stroke-width="12"/>
<path d="M86.5 83L73.5 96L86.5 109" stroke="black" stroke-width="10" stroke-linecap="round" stroke-linejoin="round"/>
<path d="M106.5 83L119.5 96L106.5 109" stroke="black" stroke-width="10" stroke-linecap="round" stroke-linejoin="round"/>
</svg>
