<svg xmlns="http://www.w3.org/2000/svg" width="192" height="192" viewBox="0 0 50.8 50.8"><path d="M29.39 6.48a11 11 0 0 0-6.36 1.98 13 13 0 0 0-3.41 3.46c-.32-.13-.61-.25-1.12-.39a6.5 6.5 0 0 0-5.84 1.32 6.4 6.4 0 0 0-2.3 4.66c0 .36.02.54.05.81a9.4 9.4 0 0 0-4 2.84 9 9 0 0 0-2.18 5.93 7.8 7.8 0 0 0 3.35 6.31c-.25.47-.55.92-.54 1.5.03.86.3 1.77.82 2.93a5.4 5.4 0 0 0 2.55 2.54c.98.49 1.95.73 2.8 1 1.55.5 2.97.34 3.94.15l.95-.2c3.66 2.59 6.5 2.73 9.5 2.8 5.16.12 8.84-1.87 10.58-4.96.3-.53.38-1 .4-1.43.15-.02.21 0 .37-.02h.02c-.66-.3-1.5-.7-2.26-1.17a5 5 0 0 1-1.2-1l-.03.05c-.16.35-.15.5-.15.63-.02.24 0 .32.02.42l.06.5c.02.32-.06.58 0 .46a6.3 6.3 0 0 1-4.23 3.01l-.3.26c-.37.26-.88.36-.9.36-.53.09-.99-.02-1.01-.03a16 16 0 0 1-1.2-.25h-.1l-.83-.02q-.5.16-1.01.02l-.08-.02-.14-.04c-1.97-.09-3.49-.45-6.07-2.4-.89-.67-1.47-.4-1.87-.33l-1.13.24c-.75.15-1.53.22-2.35-.04-.96-.31-1.8-.55-2.36-.83s-.85-.52-1.08-1.03a5 5 0 0 1-.52-1.64l.05-.02c.14-.07.48-.07.86-.8.14-.27.2-.66.17-.99a7 7 0 0 1-.7-.5c-.3-.24-.7-.59-.97-1.1a3 3 0 0 1-.26-.66c-1.04-.8-1.88-1.52-1.97-3.82a6 6 0 0 1 1.46-3.81 6 6 0 0 1 3.34-2.22c.43-.08.92-.44 1.13-.77s.24-.58.26-.76c.05-.36.02-.53 0-.72q-.06-.54-.06-1.08c.02-.74.14-1.46 1.17-2.33 1.23-1.04 2.05-.92 2.99-.67q.67.2 1.38.48c.23.08.47.18.9.21.21.02.5.02.85-.12s.72-.44.91-.78a12 12 0 0 1 3.1-3.34 7.3 7.3 0 0 1 5.3-1.4q1.1.14 2.42.65c2.93 1.14 4 2.91 4.54 4.63.28.85.4 1.7.46 2.4l.07.95c.02.29-.03.48.2 1.03a1.6 1.6 0 0 0 1.23.97c.83.12 2.2.6 3.2 2.06 1-.2 1.75-.28 1.75-.28.86-.1 1.62.37 2.03 1a8.5 8.5 0 0 0-5.28-5.52l-.04-.5c-.07-.82-.21-1.9-.6-3.09a10.5 10.5 0 0 0-6.4-6.61 13 13 0 0 0-3.2-.8 11 11 0 0 0-1.13-.07m16.96 17.77a2.2 2.2 0 0 1-1.2 1.84l.03-.01s-.57.28-1.26.7l-.65.43a10 10 0 0 1-2.1 4.03l-.23.3c.08.42.2.92.4 1.31a12 12 0 0 0 1.21 2.03q.3.4.39.83c.47-.57.79-1.18.98-1.74.16-.46.12-.9.03-1.24 1.24-1.48 2.77-3.86 2.62-6.9v-.04a12 12 0 0 0-.22-1.54"/><path fill="none" stroke="#000" stroke-linejoin="round" stroke-width="2.12" d="M11.48 30.02c-.57 1.02 4.2 2.9 6.59 3.32.7.12 1.93-.4 1.93-.4l2.85-1.86c.5-.33.4 2.28-.2 3.12-.55.74-1.93 1.7-1.93 1.7 1.24.24 1.91 1.75 3.46 2.42.77.33 1.55.35 2.3.62l-.52-.66s4.27 1.21 3.67.77c-1.24-.92-1.6-2.74-1.6-2.74s2.66-1.19 4.3-2.51c1.16-.93 3.44-1.2 3.44-1.2s.76 1.34 2.06 2.15c1.2.75 3.06 1.44 3.06 1.44s-.8-1.02-1.47-2.43c-.43-1.02-1-1.66-.84-3.17a7.4 7.4 0 0 1 1.91-3.84c1.28-1.4 3.76-2.57 3.76-2.57s-3.88.43-5.47 1.66c-1.83 1.42-3.32 4.47-3.32 4.47l-5.9-2.55c-.25-.1-.05-2.37-.05-2.37l-1.67.76s.77-1.8 2.07-2c.02-.01.22-.56.44-.98.28-.53.6-.95.6-.95s-2.18.4-3.78.97a7.4 7.4 0 0 0-3.26 2.39c-2.11-.07-11.18 2.18-12.43 4.44z"/><path d="M23.66 20.95a1.58 1.58 0 0 0-.49 3.1 7.6 7.6 0 0 1 2.76-2.07 1.6 1.6 0 0 0-1.43-1zm2.26 2.21 8 4zM29.88 18a1.58 1.58 0 0 0-.7 2.99l1.47-.32a1.6 1.6 0 0 1 1.17.24 1.6 1.6 0 0 0-.7-2.63l-.77-.22a2 2 0 0 0-.47-.06"/><rect width="3.97" height="3.17" x="11.39" y="21.26" ry="1.59" transform="rotate(-13.37)"/><rect width="3.97" height="3.17" x="11.2" y="25.57" ry="1.59" transform="rotate(-13.37)"/><rect width="3.97" height="3.17" x="23.89" y="15.03" ry="1.59" transform="rotate(4.77)"/><rect width="3.97" height="3.17" x="31.88" y="6.28" ry="1.59" transform="rotate(13.18)"/><rect width="3.97" height="3.17" x="38.9" y="10.48" ry="1.59" transform="rotate(21.6)"/><rect width="3.97" height="3.17" x="3.01" y="26.64" ry="1.59" transform="rotate(-20.03)"/></svg>