<?xml version="1.0" encoding="UTF-8" standalone="no"?>
<!-- Created with Inkscape (http://www.inkscape.org/) -->

<svg
   width="192"
   height="192"
   viewBox="0 0 50.799999 50.800001"
   version="1.1"
   id="svg5"
   inkscape:version="1.2.2 (b0a8486541, 2022-12-01)"
   sodipodi:docname="androtainer.svg"
   xml:space="preserve"
   inkscape:export-filename="androtainer.svg"
   inkscape:export-xdpi="96"
   inkscape:export-ydpi="96"
   xmlns:inkscape="http://www.inkscape.org/namespaces/inkscape"
   xmlns:sodipodi="http://sodipodi.sourceforge.net/DTD/sodipodi-0.dtd"
   xmlns="http://www.w3.org/2000/svg"
   xmlns:svg="http://www.w3.org/2000/svg"><sodipodi:namedview
     id="namedview7"
     pagecolor="#ffffff"
     bordercolor="#111111"
     borderopacity="1"
     inkscape:pageshadow="0"
     inkscape:pageopacity="0"
     inkscape:pagecheckerboard="1"
     inkscape:document-units="px"
     showgrid="false"
     units="px"
     inkscape:object-nodes="true"
     inkscape:snap-nodes="true"
     inkscape:zoom="2"
     inkscape:cx="25"
     inkscape:cy="147.75"
     inkscape:window-width="1920"
     inkscape:window-height="1052"
     inkscape:window-x="1920"
     inkscape:window-y="28"
     inkscape:window-maximized="1"
     inkscape:current-layer="layer3"
     inkscape:showpageshadow="0"
     inkscape:deskcolor="#d1d1d1"
     showguides="true"><sodipodi:guide
       position="5.8208333,50.8"
       orientation="-1,0"
       id="guide1050"
       inkscape:locked="false"
       inkscape:label=""
       inkscape:color="rgb(0,134,229)" /><sodipodi:guide
       position="44.979167,50.8"
       orientation="-1,0"
       id="guide1052"
       inkscape:locked="false"
       inkscape:label=""
       inkscape:color="rgb(0,134,229)" /></sodipodi:namedview><defs
     id="defs2" /><g
     inkscape:groupmode="layer"
     id="layer3"
     inkscape:label="icon"><path
       id="path952-6"
       style="color:#000000;fill:#000000;stroke-linecap:round;stroke-linejoin:round;stroke-miterlimit:3;-inkscape-stroke:none;paint-order:markers fill stroke"
       d="M 29.389937,6.4807414 C 26.82187,6.4594915 24.640018,7.3369395 23.029085,8.4552979 21.213624,9.715646 20.22981,11.010584 19.618958,11.916069 19.29553,11.79191 19.007293,11.665877 18.501713,11.533146 c -1.488171,-0.390691 -3.804111,-0.395858 -5.839437,1.316716 -1.740545,1.464538 -2.256785,3.350309 -2.297017,4.659664 -0.01113,0.362252 0.01986,0.544946 0.04082,0.810803 -1.5439283,0.589365 -2.9495329,1.532831 -4.0054401,2.843754 -1.3423039,1.666487 -2.2511957,3.745059 -2.166276,5.925736 0.1449837,3.72313 2.2010874,5.45985 3.3419148,6.314344 -0.2468733,0.466236 -0.5467592,0.915274 -0.5312337,1.500166 0.022728,0.856236 0.2864973,1.767501 0.820105,2.92592 0.5686746,1.234547 1.5731093,2.05219 2.548682,2.538863 0.975571,0.486674 1.942863,0.731805 2.804996,1.009758 1.545583,0.498297 2.957859,0.329022 3.931543,0.138492 0.429297,-0.084 0.736548,-0.160163 0.947229,-0.203088 3.66695,2.596101 6.509226,2.735866 9.496062,2.804997 5.162544,0.119487 8.844964,-1.867938 10.585917,-4.958871 0.298457,-0.52989 0.384251,-1.004295 0.406176,-1.434021 0.146325,-0.01539 0.206451,0.0028 0.363286,-0.01912 0.0085,-0.0012 0.01733,-0.0029 0.02584,-0.0041 -0.665757,-0.287601 -1.513554,-0.690347 -2.269629,-1.162203 -0.536042,-0.334536 -0.898167,-0.675332 -1.197343,-1.009757 -0.0094,0.01869 -0.02144,0.03939 -0.02946,0.05684 -0.161376,0.35131 -0.146686,0.509728 -0.152446,0.628902 -0.01152,0.238348 0.0086,0.323529 0.01964,0.419612 0.02205,0.19217 0.04627,0.346561 0.06046,0.505913 0.02838,0.318702 -0.05787,0.575416 0.0078,0.458886 -0.768568,1.364538 -2.074378,2.479212 -4.230749,3.011186 -0.08259,0.08713 -0.178946,0.172558 -0.300241,0.256832 -0.376661,0.261698 -0.884087,0.357918 -0.904337,0.361218 -0.52515,0.08481 -0.986328,-0.02359 -1.009758,-0.02739 -0.369097,-0.05969 -0.778663,-0.153763 -1.201993,-0.256832 -0.03317,-5.92e-4 -0.06528,-2.6e-4 -0.0987,-10e-4 -0.291663,-0.0067 -0.556922,-0.0112 -0.823723,-0.01602 -0.329894,0.09313 -0.672553,0.118635 -1.015958,0.02377 a 1.0584391,1.0584391 0 0 1 -0.08217,-0.02532 c -0.03005,-0.01097 -0.0757,-0.02187 -0.131775,-0.03359 -1.978149,-0.09468 -3.490617,-0.45754 -6.073531,-2.406055 -0.887441,-0.669471 -1.47157,-0.397138 -1.871204,-0.326078 -0.399632,0.07106 -0.751435,0.164422 -1.128613,0.238228 -0.754356,0.147612 -1.535912,0.218817 -2.34766,-0.04289 -0.960195,-0.309568 -1.794202,-0.546865 -2.361613,-0.829924 -0.567411,-0.28306 -0.84919,-0.520744 -1.081588,-1.02526 -0.413491,-0.897658 -0.507688,-1.428171 -0.517798,-1.640727 0.03396,-0.01846 -0.03445,0.02294 0.04703,-0.01757 0.138789,-0.06899 0.479298,-0.07512 0.860929,-0.804602 0.142199,-0.27194 0.19805,-0.657927 0.168937,-0.986048 C 11.064634,32.900024 10.828872,32.7367 10.605554,32.556669 10.304338,32.313837 9.9176443,31.963828 9.6366211,31.443559 9.526214,31.239159 9.4378553,31.019767 9.3792725,30.789852 8.3357648,29.985327 7.4958293,29.266774 7.4062663,26.966829 c -0.045473,-1.167717 0.5156729,-2.63006 1.4665771,-3.81062 0.9509044,-1.18056 2.2569006,-2.025186 3.3362306,-2.220536 0.434977,-0.07873 0.924552,-0.436532 1.132747,-0.767912 0.208195,-0.331378 0.2414,-0.579068 0.26355,-0.757576 0.0443,-0.357015 0.01296,-0.530774 -0.0036,-0.716752 -0.03318,-0.371958 -0.0739,-0.716191 -0.06253,-1.086239 0.02274,-0.740094 0.138724,-1.462059 1.167888,-2.328023 1.233072,-1.037539 2.054003,-0.919184 2.988448,-0.673861 0.467222,0.122661 0.904044,0.31 1.380794,0.480591 0.238375,0.0853 0.472697,0.182872 0.90227,0.214974 0.214787,0.01605 0.50108,0.01633 0.849561,-0.117306 0.348481,-0.133634 0.722036,-0.448277 0.914156,-0.783414 0.14879,-0.259551 1.265789,-2.064095 3.097485,-3.335714 1.373772,-0.953714 3.05832,-1.6758273 5.293217,-1.3983643 0.744968,0.092488 1.551639,0.2959702 2.427759,0.6387203 2.931048,1.146667 3.990305,2.915085 4.542875,4.630725 0.276285,0.857822 0.392222,1.69686 0.454753,2.398304 0.03126,0.35072 0.0493,0.66442 0.07235,0.95498 0.02305,0.290561 -0.02771,0.47606 0.195337,1.025777 a 1.5876587,1.5876587 0 0 0 1.232483,0.972551 c 0.829968,0.126361 2.208924,0.602666 3.19567,2.065507 1.001225,-0.19644 1.757516,-0.280603 1.757516,-0.280603 l -0.0021,0.0021 c 0.858952,-0.09628 1.625085,0.365533 2.030884,0.997872 -1.029131,-3.157142 -3.298156,-4.83002 -5.282882,-5.52111 -0.01185,-0.167821 -0.01872,-0.290798 -0.03721,-0.498161 -0.07304,-0.819742 -0.214433,-1.909235 -0.595313,-3.091801 C 39.363442,11.595772 37.510278,8.8334821 33.716805,7.3494222 32.603567,6.913908 31.532839,6.6578725 30.5139,6.5468872 30.131797,6.5052677 29.756805,6.4837771 29.389937,6.4807414 Z M 46.350142,24.252266 c -0.03933,0.726258 -0.444365,1.478393 -1.195792,1.835547 l 0.02325,-0.0098 c 0,0 -0.56614,0.28495 -1.257804,0.705383 -0.212083,0.128916 -0.433048,0.273884 -0.65164,0.422713 -0.372133,1.638797 -1.479891,3.364203 -2.102197,4.034379 -0.07937,0.08547 -0.15496,0.190401 -0.223242,0.307475 0.08048,0.410877 0.206008,0.916267 0.389123,1.303797 0.558837,1.1828 1.218115,2.029683 1.219047,2.030883 v 0.0021 c 0.197908,0.253681 0.323732,0.538359 0.387573,0.830441 0.474424,-0.572647 0.79025,-1.187656 0.983403,-1.74253 0.160731,-0.461735 0.116944,-0.897009 0.02945,-1.238167 1.235014,-1.483138 2.77287,-3.866639 2.613278,-6.906555 a 1.5876587,1.5876587 0 0 0 -0.0021,-0.03514 C 46.521931,25.248349 46.448648,24.736719 46.3501,24.252317 Z" /><path
       style="display:inline;fill:none;stroke:#000000;stroke-width:2.11667;stroke-linecap:round;stroke-linejoin:round;stroke-miterlimit:3;stroke-dasharray:none;paint-order:markers fill stroke"
       d="m 11.476306,30.016978 c -0.565982,1.022808 4.211935,2.905618 6.589196,3.324259 0.70406,0.123987 1.93346,-0.401026 1.93346,-0.401026 l 2.853767,-1.865174 c 0.502998,-0.328751 0.403931,2.280791 -0.210344,3.122356 -0.539843,0.739592 -1.924649,1.702825 -1.924649,1.702825 1.244704,0.234317 1.912829,1.753079 3.458566,2.418064 0.769503,0.331044 1.552227,0.35057 2.295268,0.621766 L 25.962243,38.27859 c 0,0 4.265851,1.213812 3.664477,0.767293 -1.236324,-0.917966 -1.600734,-2.731824 -1.600734,-2.731824 0,0 2.666495,-1.19397 4.307574,-2.514696 1.161095,-0.934439 3.438106,-1.196082 3.438106,-1.196082 0,0 0.756348,1.331439 2.054445,2.141562 1.212337,0.756602 3.058634,1.443542 3.058634,1.443542 0,0 -0.797091,-1.017096 -1.465879,-2.432616 -0.427122,-1.016188 -1.007117,-1.656272 -0.835999,-3.169936 0.288739,-1.696165 1.026535,-2.841721 1.910562,-3.840754 1.280021,-1.394026 3.75152,-2.568778 3.75152,-2.568778 0,0 -3.879282,0.434074 -5.465184,1.664656 -1.827173,1.417796 -3.322991,4.469884 -3.322991,4.469884 l -5.905689,-2.548965 c -0.243787,-0.105221 -0.04049,-2.376711 -0.04049,-2.376711 l -1.675155,0.761536 c 0,0 0.777935,-1.794289 2.069759,-2.002005 0.02725,-0.0044 0.219418,-0.559176 0.440813,-0.978149 0.278803,-0.527611 0.595738,-0.943955 0.595738,-0.943955 0,0 -2.167537,0.405626 -3.775191,0.967236 -2.066828,0.722016 -3.260456,2.386024 -3.260456,2.386024 -2.108425,-0.06524 -11.180512,2.183495 -12.429797,4.441126 z"
       id="path1120"
       sodipodi:nodetypes="sscsscsccscscscccccscsccsscsss" /><rect
       style="fill:#000000;fill-opacity:1;stroke:none;stroke-width:2.11667;stroke-linecap:round;stroke-linejoin:round;stroke-miterlimit:3;stroke-dasharray:none;stroke-opacity:1;paint-order:markers fill stroke"
       id="rect1384-7"
       width="3.96875"
       height="3.175"
       x="11.391855"
       y="21.259895"
       rx="1.5875"
       ry="1.5875"
       transform="rotate(-13.367107)" /><rect
       style="fill:#000000;fill-opacity:1;stroke:none;stroke-width:2.11667;stroke-linecap:round;stroke-linejoin:round;stroke-miterlimit:3;stroke-dasharray:none;stroke-opacity:1;paint-order:markers fill stroke"
       id="rect1384-7-3"
       width="3.96875"
       height="3.175"
       x="11.198277"
       y="25.565109"
       rx="1.5875"
       ry="1.5875"
       transform="rotate(-13.367107)" /><path
       id="rect1384-7-5"
       style="stroke-width:2.11667;stroke-linecap:round;stroke-linejoin:round;stroke-miterlimit:3;paint-order:markers fill stroke"
       d="m 24.277094,20.231959 c -0.86033,0.02165 -1.546372,0.721227 -1.546372,1.586959 0,0.728315 0.48523,1.339448 1.151612,1.527874 0.406024,-0.515834 1.223459,-1.437458 2.689538,-2.153702 -0.242015,-0.56639 -0.803468,-0.961305 -1.460352,-0.961305 l -0.793589,-1.5e-5 c -0.01374,0 -0.02718,-1.55e-4 -0.04084,1.89e-4 z m 2.321953,2.144755 c -0.582123,0.334323 -1.031127,0.69862 -1.367767,1.025323 0.630494,-0.04647 1.156086,-0.458143 1.367767,-1.025323 z"
       transform="rotate(1.7154026)" /><rect
       style="fill:#000000;fill-opacity:1;stroke:none;stroke-width:2.11667;stroke-linecap:round;stroke-linejoin:round;stroke-miterlimit:3;stroke-dasharray:none;stroke-opacity:1;paint-order:markers fill stroke"
       id="rect1384-7-5-6"
       width="3.96875"
       height="3.175"
       x="23.894991"
       y="15.030661"
       rx="1.5875"
       ry="1.5875"
       transform="rotate(4.7700617)" /><path
       id="rect1384-7-5-6-2"
       style="stroke-width:2.11667;stroke-linecap:round;stroke-linejoin:round;stroke-miterlimit:3;paint-order:markers fill stroke"
       d="m 33.6396,9.1963299 c -0.647007,0.2003992 -1.114507,0.8022761 -1.114507,1.5168491 0,0.762669 0.532531,1.395954 1.247499,1.550837 0.766494,-0.424094 1.340211,-0.705855 1.340211,-0.705855 l -1.4e-4,-4.98e-4 c 0.394062,-0.194413 0.818297,-0.204479 1.189028,-0.08488 0.122562,-0.225427 0.192013,-0.484143 0.192013,-0.759763 0,-0.8794749 -0.708061,-1.5874818 -1.587535,-1.5874818 l -0.793595,1.027e-4 c -0.164901,0 -0.323665,0.02444 -0.472974,0.070686 z"
       transform="rotate(15.763191)" /><rect
       style="fill:#000000;fill-opacity:1;stroke:none;stroke-width:2.11667;stroke-linecap:round;stroke-linejoin:round;stroke-miterlimit:3;stroke-dasharray:none;stroke-opacity:1;paint-order:markers fill stroke"
       id="rect1384-7-5-6-9"
       width="3.96875"
       height="3.175"
       x="31.882225"
       y="6.2755837"
       rx="1.5875"
       ry="1.5875"
       transform="rotate(13.181817)" /><rect
       style="fill:#000000;fill-opacity:1;stroke:none;stroke-width:2.11667;stroke-linecap:round;stroke-linejoin:round;stroke-miterlimit:3;stroke-dasharray:none;stroke-opacity:1;paint-order:markers fill stroke"
       id="rect1384-7-5-6-1"
       width="3.96875"
       height="3.175"
       x="38.900795"
       y="10.477262"
       rx="1.5875"
       ry="1.5875"
       transform="rotate(21.608121)" /><rect
       style="fill:#000000;fill-opacity:1;stroke:none;stroke-width:2.11667;stroke-linecap:round;stroke-linejoin:round;stroke-miterlimit:3;stroke-dasharray:none;stroke-opacity:1;paint-order:markers fill stroke"
       id="rect1384-5"
       width="3.96875"
       height="3.175"
       x="3.0077729"
       y="26.64185"
       rx="1.5875"
       ry="1.5875"
       transform="rotate(-20.032712)" /></g></svg>
