<svg xmlns="http://www.w3.org/2000/svg" width="192" height="192" fill="none" viewBox="0 0 192 192"><path stroke="#000" stroke-linecap="round" stroke-linejoin="round" stroke-width="12" d="M170 96.002c0 6.358-6.734 11.745-8.3 17.608-1.621 6.066 1.469 14.09-1.6 19.401-3.117 5.387-11.64 6.7-16.012 11.076s-5.689 12.901-11.076 16.013c-5.311 3.072-13.334-.018-19.4 1.6-5.863 1.567-11.25 8.3-17.607 8.3s-11.744-6.734-17.607-8.3c-6.066-1.621-14.089 1.469-19.4-1.6-5.387-3.117-6.7-11.641-11.076-16.013s-12.901-5.689-16.022-11.076c-3.072-5.311.018-13.335-1.6-19.401-1.566-5.863-8.3-11.25-8.3-17.608 0-6.357 6.734-11.744 8.3-17.607 1.621-6.066-1.469-14.09 1.6-19.4 3.117-5.388 11.64-6.701 16.012-11.077S53.606 35.02 58.993 31.9c5.311-3.072 13.334.018 19.4-1.6C84.256 28.734 89.643 22 96 22s11.744 6.734 17.607 8.3c6.066 1.621 14.089-1.469 19.4 1.6 5.387 3.117 6.7 11.64 11.076 16.013 4.376 4.372 12.9 5.69 16.012 11.076 3.072 5.311-.018 13.335 1.6 19.4C163.266 84.26 170 89.646 170 96.004Z"/><path stroke="#000" stroke-linecap="round" stroke-linejoin="round" stroke-width="12" d="M76.736 72.49 69.123 57m46.141 15.49L122.877 57m-2.795 17.996c6.631 3.846 12.215 9.363 16.233 16.04a48.7 48.7 0 0 1 5.442 12.707 7.6 7.6 0 0 1 .107 3.339 7.5 7.5 0 0 1-1.332 3.042 7.2 7.2 0 0 1-2.497 2.119 6.9 6.9 0 0 1-3.144.757H57.109a6.9 6.9 0 0 1-3.144-.757 7.2 7.2 0 0 1-2.497-2.119 7.5 7.5 0 0 1-1.332-3.042 7.6 7.6 0 0 1 .107-3.339 48.7 48.7 0 0 1 5.442-12.707c4.018-6.677 9.602-12.194 16.233-16.04l.71-.402a47.4 47.4 0 0 1 21.36-6.375 49 49 0 0 1 4.025 0 47.4 47.4 0 0 1 21.36 6.375z"/><circle cx="111" cy="93" r="3" stroke="#000" stroke-linecap="round" stroke-linejoin="round" stroke-miterlimit="10" stroke-width="6"/><circle cx="81" cy="93" r="3" stroke="#000" stroke-linecap="round" stroke-linejoin="round" stroke-miterlimit="10" stroke-width="6"/></svg>