<?xml version="1.0" encoding="UTF-8" standalone="no"?>
<!-- Created with Inkscape (http://www.inkscape.org/) -->

<svg
   version="1.1"
   id="svg2"
   width="192"
   height="192"
   viewBox="0 0 192 192"
   sodipodi:docname="angry_birds.png"
   xmlns:inkscape="http://www.inkscape.org/namespaces/inkscape"
   xmlns:sodipodi="http://sodipodi.sourceforge.net/DTD/sodipodi-0.dtd"
   xmlns="http://www.w3.org/2000/svg"
   xmlns:svg="http://www.w3.org/2000/svg">
  <defs
     id="defs6" />
  <sodipodi:namedview
     id="namedview4"
     pagecolor="#505050"
     bordercolor="#eeeeee"
     borderopacity="1"
     inkscape:showpageshadow="0"
     inkscape:pageopacity="0"
     inkscape:pagecheckerboard="0"
     inkscape:deskcolor="#505050"
     showgrid="false"
     showguides="true">
    <sodipodi:guide
       position="15.863428,172.43511"
       orientation="1,0"
       id="guide947"
       inkscape:locked="false" />
  </sodipodi:namedview>
  <g
     inkscape:groupmode="layer"
     inkscape:label="Image"
     id="g8">
    <path
       style="fill:none;stroke:#000000;stroke-width:0;stroke-linecap:round;stroke-linejoin:round;stroke-miterlimit:57.5;stroke-dasharray:none;paint-order:stroke markers fill"
       d="m 88.203048,69.892838 7.14411,-14.244003 c 0,0 -31.419137,-27.104428 -77.546309,-10.283521 V 69.50771 c 0,0 36.457774,-14.688066 70.402199,0.385128 z"
       id="path243" />
    <path
       style="fill:none;stroke:#000000;stroke-width:8;stroke-linecap:round;stroke-linejoin:round;stroke-miterlimit:57.5;stroke-dasharray:none;paint-order:stroke markers fill"
       d="M 97.873124,55.751951 89.427056,71.90788 c 0,0 -22.293944,-21.51053 -69.427056,-1.560427 V 48.978285 c 0,0 42.100936,-20.003921 77.873124,6.773666 z"
       id="path896"
       sodipodi:nodetypes="ccccc" />
    <path
       id="path1001"
       style="fill:none;stroke:#000000;stroke-width:8;stroke-linecap:round;stroke-linejoin:round;stroke-miterlimit:57.5;paint-order:stroke markers fill"
       d="M 87.622766,93.129257 A 30.347288,25.951254 0 0 1 57.275478,119.08051 30.347288,25.951254 0 0 1 26.92819,93.129257 30.347288,25.951254 0 0 1 57.275478,67.178003 30.347288,25.951254 0 0 1 87.622766,93.129257 Z" />
    <path
       id="path1057"
       style="fill:none;stroke:#000000;stroke-width:8;stroke-linecap:round;stroke-linejoin:round;stroke-miterlimit:57.5;paint-order:stroke markers fill"
       d="M 72.764203,93.048515 A 12.456822,16.312281 0 0 1 60.307381,109.3608 12.456822,16.312281 0 0 1 47.850558,93.048515 12.456822,16.312281 0 0 1 60.307381,76.736235 12.456822,16.312281 0 0 1 72.764203,93.048515 Z" />
    <path
       style="fill:none;stroke:#000000;stroke-width:8;stroke-linecap:round;stroke-linejoin:round;stroke-miterlimit:57.5;stroke-dasharray:none;paint-order:stroke markers fill"
       d="m 68.343756,81.367165 c 0,0 -3.429443,5.165845 2.776471,3.842586"
       id="path1059" />
    <path
       style="fill:none;stroke:#000000;stroke-width:8;stroke-linecap:round;stroke-linejoin:round;stroke-miterlimit:57.5;stroke-dasharray:none;paint-order:stroke markers fill"
       d="m 144.00419,79.380166 c 0,0 -2.46613,5.165845 1.99657,3.842586"
       id="path1059-3" />
    <path
       style="fill:none;stroke:#000000;stroke-width:8;stroke-linecap:round;stroke-linejoin:round;stroke-miterlimit:57.5;stroke-dasharray:none;paint-order:stroke markers fill"
       d="m 113.26816,64.716569 8.07289,17.627279 c 0,0 22.30478,-21.989254 50.65879,-17.228434 l 3.1e-4,-22.511918 c 0,0 -24.90886,-4.029759 -58.73199,22.113073 z"
       id="path1061"
       sodipodi:nodetypes="ccccc" />
    <path
       id="path1063"
       style="fill:none;stroke:#000000;stroke-width:8;stroke-linecap:round;stroke-linejoin:round;stroke-miterlimit:57.5;paint-order:stroke markers fill"
       d="M 165.0502,90.360298 A 19.304884,21.244419 0 0 1 145.74532,111.60472 19.304884,21.244419 0 0 1 126.44043,90.360298 19.304884,21.244419 0 0 1 145.74532,69.115879 19.304884,21.244419 0 0 1 165.0502,90.360298 Z" />
    <path
       id="path1065"
       style="fill:none;stroke:#000000;stroke-width:8;stroke-linecap:round;stroke-linejoin:round;stroke-miterlimit:57.5;paint-order:stroke markers fill"
       d="m 147.31422,90.84507 a 9.7641125,16.845072 0 0 1 -9.76411,16.84507 9.7641125,16.845072 0 0 1 -9.76411,-16.84507 9.7641125,16.845072 0 0 1 9.76411,-16.845072 9.7641125,16.845072 0 0 1 9.76411,16.845072 z" />
    <path
       style="fill:none;stroke:#000000;stroke-width:8;stroke-linecap:round;stroke-linejoin:round;stroke-miterlimit:57.5;stroke-dasharray:none;paint-order:stroke markers fill"
       d="m 76.600875,122.55108 c 0,0 12.387816,32.95986 33.930655,38.69715 0,0 12.98328,-8.07811 22.71221,-25.72817 0,0 13.89527,-17.77984 -18.36295,-35.10629 0,0 -14.07175,12.02173 -38.279915,22.13731 z"
       id="path1146"
       sodipodi:nodetypes="ccccc" />
    <path
       style="fill:none;stroke:#000000;stroke-width:8;stroke-linecap:round;stroke-linejoin:round;stroke-miterlimit:57.5;stroke-dasharray:none;paint-order:stroke markers fill"
       d="m 135.91211,126.50497 c -21.77581,5.04894 -58.582378,-3.4874 -58.582378,-3.4874 0,0 39.821968,54.90781 58.582378,3.4874 z"
       id="path1148"
       sodipodi:nodetypes="ccc" />
  </g>
</svg>
