<svg xmlns="http://www.w3.org/2000/svg" width="192" height="192" fill="none" stroke="#000" stroke-linejoin="round" stroke-width="8" viewBox="0 0 192 192"><path d="m97.873 55.752-8.446 16.156S67.133 50.398 20 70.348v-21.37s42.1-20.004 77.873 6.774z"/><path d="M87.623 93.13a30.347 25.951 0 0 1-60.695 0 30.347 25.951 0 0 1 60.695-.001z"/><path d="M72.764 93.049a12.457 16.312 0 0 1-12.457 16.312 12.457 16.312 0 0 1 0-32.625A12.457 16.312 0 0 1 72.764 93.05z"/><path stroke-linecap="round" d="M68.344 81.367s-3.43 5.166 2.776 3.843m72.884-5.83s-2.466 5.166 1.997 3.843m-32.733-18.506 8.073 17.627S143.646 60.354 172 65.115V42.603s-24.909-4.03-58.732 22.114"/><path d="M165.05 90.36a19.305 21.244 0 0 1-38.61 0 19.305 21.244 0 0 1 38.61 0z"/><path d="M147.314 90.845a9.764 16.845 0 0 1-19.528 0 9.764 16.845 0 0 1 19.528 0zM76.6 122.551s12.389 32.96 33.932 38.697c0 0 12.983-8.078 22.712-25.728 0 0 13.895-17.78-18.363-35.106 0 0-14.072 12.021-38.28 22.137z"/><path d="M135.912 126.505c-21.776 5.049-58.582-3.487-58.582-3.487s39.822 54.907 58.582 3.487z"/></svg>