<svg xmlns="http://www.w3.org/2000/svg" width="192" height="192" fill="none"><circle cx="119" cy="102" r="5" stroke="#000" stroke-linecap="round" stroke-linejoin="round" stroke-width="10"/><circle cx="86" cy="79" r="4" stroke="#000" stroke-linecap="round" stroke-linejoin="round" stroke-width="8"/><circle cx="106" cy="53" r="3" stroke="#000" stroke-linecap="round" stroke-linejoin="round" stroke-width="6"/><circle cx="85" cy="27" r="3" stroke="#000" stroke-linecap="round" stroke-linejoin="round" stroke-width="6"/><path stroke="#000" stroke-linecap="round" stroke-linejoin="round" stroke-width="12" d="M81 22v47.47a6 6 0 0 1-.733 2.873L31.84 161.127c-2.181 3.998.713 8.873 5.267 8.873H96M74 22h44"/><path stroke="#000" stroke-linecap="round" stroke-linejoin="round" stroke-width="12" d="M49.91 128C89 56 86 154 140 126"/><path stroke="#000" stroke-linecap="round" stroke-linejoin="round" stroke-width="12" d="M111 22v47.47c0 1.004.252 1.992.733 2.873l48.427 88.784c2.181 3.998-.713 8.873-5.267 8.873H96"/></svg>