<?xml version="1.0" encoding="utf-8"?>
<svg viewBox="0 0 192 192" width="192px" height="192px" xmlns="http://www.w3.org/2000/svg" xmlns:bx="https://boxy-svg.com">
  <defs>
    <bx:grid x="52.521" y="41.373" width="8.653" height="100.288"/>
  </defs>
  <g>
    <g transform="matrix(1.164648, 0, 0, 1.164648, -16.510235, -15.805624)">
      <g transform="matrix(1, 0, 0, 1, 0.008934, 0)">
        <g/>
      </g>
      <g transform="matrix(-1, 0, 0, 1, 193.209005, 0.105999)" style=""/>
    </g>
  </g>
  <g transform="matrix(1.098599, 0, 0, 1.098599, -14.294367, -150.435155)">
    <g transform="matrix(1, 0, 0, 1, 14.705972, 137.485157)">
      <path d="M 110.084 112.679 L 110.084 42.551 C 110.084 38.532 107.867 36.314 103.848 36.314 L 90.127 36.314 C 86.108 36.314 83.89 38.532 83.89 42.551 C 83.89 42.551 89.348 55.761 94.417 73.692 C 94.672 74.595 96.579 80.427 96.871 81.331 C 101.111 94.477 99.764 90.771 102.205 97.239 C 106.472 108.547 104.573 102.557 106.21 107.25 C 108.816 114.723 111.541 114.417 108.382 109.505 C 100.749 92.08 113.697 128.976 114.552 131.152 C 113.609 128.296 114.964 131.532 113.958 129.281 C 111.019 122.707 106.307 105.537 108.283 111.361 C 113.84 127.742 113.352 127.672 115.003 132.171 C 117.432 138.791 114.428 138.873 114.595 138.873 C 129.932 138.873 146.812 138.873 146.812 138.873 C 150.831 138.873 153.048 136.656 153.048 132.637 L 153.048 118.916 C 153.048 114.897 150.831 112.679 146.812 112.679 L 110.084 112.679 Z" class="cls-1" style="fill-rule: nonzero; paint-order: stroke; stroke-width: 12px; vector-effect: non-scaling-stroke; fill: none; stroke: rgb(0, 0, 0); stroke-linecap: round; stroke-linejoin: round;"/>
      <path d="M 54.365 34.792 L 18.331 137.351 L 46.327 137.351 L 52.425 119.611 L 82.915 119.611 L 88.875 137.351 L 116.732 137.351 L 111.526 122.478 L 98.223 84.469 L 94.42 73.602 L 80.836 34.792 L 54.365 34.792 Z M 58.8 96.882 L 67.531 68.47 L 77.094 96.882 L 58.8 96.882 Z" class="cls-2" style="fill-rule: evenodd; paint-order: stroke; stroke-width: 12px; vector-effect: non-scaling-stroke; fill: none; stroke: rgb(0, 0, 0); stroke-linecap: round; stroke-linejoin: round;"/>
    </g>
  </g>
</svg>