<svg xmlns="http://www.w3.org/2000/svg" width="192" height="192" fill="none"><path stroke="#000" stroke-linecap="round" stroke-linejoin="round" stroke-width="12" d="M83 130 54 56l-26 2m36 76 27-3m-53-25 32-3M44 57l-12 80-10 1m148-81.573-5.19 8.17a35 35 0 0 0-7.145-4.84c-6.479-3.303-13.8-4.465-21.037-3.34-7.237 1.127-14.065 4.49-19.621 9.667-5.555 5.175-9.588 11.93-11.59 19.412-2.001 7.48-1.88 15.351.347 22.616s6.461 13.596 12.166 18.196c5.705 4.599 12.626 7.259 19.886 7.644s14.534-1.525 20.902-5.486"/></svg>