<svg xmlns="http://www.w3.org/2000/svg" width="192" height="192" fill="none" viewBox="0 0 192 192"><path stroke="#000" stroke-linejoin="round" stroke-width="8" d="M39.952 57.869c-2.838 11.135-2.936 10.84.88 8.869 6.75-3.45 21.23-.493 20.35 4.139-.098 1.478.195 1.872 1.467 1.38 4.5-1.676 10.958 4.532 9.686 9.558-.685 2.562-.783 2.562-3.816.986-5.283-2.661-7.142-2.07-14.675 5.814-7.631 7.883-16.143 12.909-22.209 12.909h-3.228l-4.5 16.457c-5.577 21.088-6.066 19.118 4.402 18.723l8.805-.295 3.718-14.191 3.718-14.19h22.502l3.62 14.486L74.292 137h8.903c4.794 0 8.805-.394 8.805-.887 0-.394-5.185-20.103-11.447-43.95L69.106 49H42.203l-2.25 8.869zm7.24 12.318c.097 2.168 7.141 4.434 9.49 3.055 2.347-1.281 2.25-1.38-1.762-2.464-4.892-1.576-7.729-1.774-7.729-.591zm45.928-8.533L90 74.308l4.095 14.91c5.07 19.423 4.875 18.638 6.045 16.578.39-.784 1.755-5.493 2.828-10.3 2.632-11.378 2.535-11.477 8.385 10.595l5.07 19.226h18.428l3.9-14.812c2.146-8.044 4.193-14.027 4.681-13.34.39.784 2.242 7.356 4.192 14.811 3.608 13.635 5.655 17.167 10.238 17.167 1.17 0 3.315 1.569 4.973 3.335 2.73 3.335 9.165 4.807 9.165 2.158 0-.589-5.07-20.207-11.31-43.358L149.477 49l-6.63.392-6.631.295-5.07 19.128c-2.73 10.594-5.265 19.226-5.557 19.226s-2.828-8.632-5.656-19.226l-4.972-19.128-9.458-.295-9.263-.294z"/></svg>