<svg width="192" height="192" viewBox="0 0 192 192" fill="none" xmlns="http://www.w3.org/2000/svg"><path d="m110 62 38-13s-5-16-21-28c0 0-19 17-28 31M77 63 52 53s0-13 16-24c0 0 11 10 20 24" stroke="#000" stroke-width="10" stroke-linecap="round" stroke-linejoin="round"/><path d="M65.03 78.476c-.353-3.508 2.376-6.563 5.893-6.596l93.042-.88c3.324-.031 6.035 2.661 6.035 5.994v74.678a5.99 5.99 0 0 1-5.116 5.931l-84.363 12.333c-3.37.493-6.47-1.932-6.812-5.328l-8.678-86.132ZM22.046 96.767c-.276-2.196.707-4.362 2.554-5.631l8.8-6.047c3.814-2.62 9.092-.247 9.56 4.299l7.007 68.018c.478 4.639-4.395 8.008-8.684 6.003l-8.538-3.991a5.99 5.99 0 0 1-3.429-4.67l-7.27-57.98ZM103 101v10" stroke="#000" stroke-width="12" stroke-linecap="round" stroke-linejoin="round"/><path d="M135 131c-3.5 2-10 8-10 8s-7-5-15-6" stroke="#000" stroke-width="10" stroke-linecap="round" stroke-linejoin="round"/><path d="M137 100v10" stroke="#000" stroke-width="12" stroke-linecap="round" stroke-linejoin="round"/><path d="M110 68a16.002 16.002 0 0 0-16-16 16 16 0 0 0-16 16" stroke="#000" stroke-width="10" stroke-linecap="round" stroke-linejoin="round"/></svg>