<svg width="192" height="192" viewBox="0 0 192 192" fill="none" xmlns="http://www.w3.org/2000/svg">
  <path d="M38.7 57.3c-2.9 11.3-3 11 .9 9 6.9-3.5 21.7-.5 20.8 4.2-.1 1.5.2 1.9 1.5 1.4 4.6-1.7 11.2 4.6 9.9 9.7-.7 2.6-.8 2.6-3.9 1-5.4-2.7-7.3-2.1-15 5.9-7.8 8-16.5 13.1-22.7 13.1h-3.3l-4.6 16.7c-5.7 21.4-6.2 19.4 4.5 19l9-.3 3.8-14.4 3.8-14.4h23l3.7 14.7 3.7 14.7h9.1c4.9 0 9-.4 9-.9 0-.4-5.3-20.4-11.7-44.6L68.5 48.3H41l-2.3 9m7.4 12.5c.1 2.2 7.3 4.5 9.7 3.1 2.4-1.3 2.3-1.4-1.8-2.5-5-1.6-7.9-1.8-7.9-.6" stroke-width="8" stroke-linejoin="round" stroke="#000"/>
  <path d="m92.6 61.3-3.2 12.9 4.2 15.2c5.2 19.8 5 19 6.2 16.9.4-.8 1.8-5.6 2.9-10.5 2.7-11.6 2.6-11.7 8.6 10.8l5.2 19.6h18.9l4-15.1c2.2-8.2 4.3-14.3 4.8-13.6.4.8 2.3 7.5 4.3 15.1 3.7 13.9 5.8 17.5 10.5 17.5 1.2 0 3.4 1.6 5.1 3.4 2.8 3.4 9.4 4.9 9.4 2.2 0-.6-5.2-20.6-11.6-44.2l-11.5-43.1-6.8.4-6.8.3-5.2 19.5c-2.8 10.8-5.4 19.6-5.7 19.6-.3 0-2.9-8.8-5.8-19.6L115 49.1l-9.7-.3-9.5-.3-3.2 12.8" stroke-linejoin="round" stroke-width="8" stroke="#000"/>
</svg>

