<?xml version="1.0" encoding="utf-8"?>
	<svg version="1.1" xmlns="http://www.w3.org/2000/svg" xmlns:xlink="http://www.w3.org/1999/xlink" x="0px" y="0px" width="240.0" height="240.0" xml:space="preserve">
		<path d="M142.031,172.744C141.71,172.425 141.798,172.05 141.881,171.673C142.329,169.648 142.764,167.62 143.224,165.597C144.197,161.322 145.189,157.051 146.161,152.775C147.386,147.389 148.604,142.001 149.814,136.611C150.729,132.532 151.592,128.441 152.568,124.377C152.737,123.672 152.62,122.759 153.43,122.284C153.26,123.654 153.078,125.024 152.926,126.397C152.85,127.076 152.751,127.768 152.802,128.444C152.915,129.971 153.75,131.079 154.989,131.937C157.137,133.425 159.266,134.941 161.403,136.444C164.873,138.885 168.343,141.328 171.818,143.762C172.066,143.936 172.275,144.22 172.725,144.183L172.725,143.06C172.725,118.092 172.706,93.124 172.747,68.157C172.752,64.785 171.558,62.199 168.67,60.429C167.907,56.794 164.75,54.246 160.962,54.245C145.274,54.239 129.586,54.241 113.897,54.241C102.277,54.241 90.658,54.238 79.038,54.245C75.25,54.247 72.093,56.794 71.329,60.429C68.439,62.2 67.25,64.789 67.253,68.163C67.288,106.095 67.275,144.026 67.276,181.958C67.276,187.08 70.491,190.299 75.607,190.299C89.374,190.3 103.141,190.301 116.907,190.299C119.514,190.298 122.121,190.286 124.727,190.279C125.37,191.322 125.982,192.385 126.663,193.403C127.591,194.791 128.827,195.703 130.596,195.563C132.247,195.433 133.447,194.587 134.146,193.093C134.578,192.169 134.923,191.206 135.307,190.26C135.453,190.273 135.598,190.296 135.744,190.296C145.552,190.297 155.36,190.325 165.168,190.282C169.393,190.264 172.707,186.811 172.718,182.506C172.739,174.132 172.717,165.759 172.738,157.386C172.74,156.708 172.606,156.558 171.92,156.722C164.044,158.608 156.16,160.466 148.278,162.326C146.802,162.674 145.751,163.534 145.179,164.926C144.111,167.525 143.078,170.137 142.031,172.744M210,209.193C210,209.852 209.851,210 209.193,210C149.731,209.982 90.269,209.982 30.807,210C30.148,210 30,209.852 30,209.193C30.018,149.731 30.018,90.269 30,30.807C30,30.148 30.148,30 30.807,30C90.269,30.018 149.731,30.018 209.193,30C209.851,30 210,30.148 210,30.807C209.981,60.538 209.983,90.269 209.983,120C209.983,149.731 209.981,179.462 210,209.193Z" fill="#000" stroke="#00000000" stroke-width="1.0" stroke-miterlimit=""/>
		<path d="M124.727,190.279C122.121,190.286 119.514,190.298 116.907,190.299C103.141,190.3 89.374,190.3 75.607,190.3C70.491,190.299 67.276,187.08 67.276,181.958C67.275,144.026 67.288,106.095 67.253,68.163C67.25,64.789 68.439,62.2 71.33,60.429C72.993,59.671 74.744,59.537 76.554,59.537C105.518,59.558 134.482,59.558 163.445,59.537C165.255,59.537 167.007,59.671 168.67,60.429C171.558,62.199 172.752,64.785 172.747,68.157C172.706,93.124 172.725,118.092 172.725,143.06L172.725,144.183C172.275,144.22 172.066,143.936 171.818,143.762C168.343,141.328 164.874,138.885 161.403,136.444C159.266,134.941 157.137,133.425 154.989,131.938C153.75,131.079 152.915,129.971 152.802,128.444C152.751,127.768 152.85,127.076 152.926,126.397C153.078,125.024 153.26,123.654 153.43,122.284C153.61,120.835 153.802,119.388 153.969,117.938C154.765,111.021 155.572,104.105 156.331,97.184C156.527,95.4 155.825,93.903 154.225,93.064C152.702,92.265 151.08,92.232 149.616,93.318C148.535,94.12 147.502,94.987 146.449,95.825C143.547,98.136 140.646,100.446 137.744,102.757C134.001,105.71 130.254,108.658 126.515,111.617C124.176,113.467 122.957,113.58 120.352,112.193C118.885,111.412 117.466,110.536 115.927,109.894C115.031,109.377 114.146,108.84 113.237,108.347C106.96,104.943 100.679,101.546 94.396,98.154C93.312,97.569 92.161,97.459 90.996,97.854C88.705,98.63 87.684,100.832 88.403,103.419C91.065,113.001 93.721,122.584 96.408,132.159C96.969,134.156 96.603,135.816 95.09,137.281C93.491,138.827 91.98,140.464 90.428,142.059C85.63,146.992 80.832,151.925 76.031,156.855C74.729,158.192 74.247,159.751 74.915,161.519C75.57,163.251 76.94,164.139 78.76,164.258C81.97,164.47 85.183,164.633 88.396,164.807C93.302,165.072 98.208,165.328 103.113,165.588C104.598,165.684 106.083,165.78 107.567,165.876C109.154,165.979 110.428,166.596 111.234,168.041C111.63,168.751 112.096,169.423 112.521,170.118C114.953,174.099 117.383,178.081 119.813,182.063C119.997,182.39 120.174,182.723 120.368,183.045C121.819,185.457 123.274,187.868 124.727,190.279" fill="#000" stroke="#00000000" stroke-width="1.0" stroke-miterlimit=""/>
		<path d="M124.727,190.279C123.274,187.868 121.819,185.457 120.368,183.045C120.174,182.723 119.997,182.39 119.813,182.063C119.982,181.722 120.112,181.375 120.196,180.996C121.138,176.744 122.048,172.484 123.067,168.251C124.277,163.222 125.378,158.169 126.533,153.128C127.513,148.854 128.501,144.583 129.4,140.291C130.01,137.378 130.779,134.498 131.431,131.593C132.532,126.688 133.658,121.79 134.716,116.875C135.367,113.851 136.115,110.84 136.78,107.816C137.148,106.141 137.818,104.517 137.744,102.757C140.646,100.446 143.547,98.136 146.449,95.825C147.502,94.987 148.535,94.12 149.616,93.318C151.08,92.232 152.702,92.265 154.225,93.064C155.825,93.903 156.527,95.4 156.331,97.184C155.572,104.105 154.765,111.021 153.969,117.938C153.802,119.388 153.61,120.835 153.43,122.284C152.62,122.759 152.737,123.672 152.568,124.377C151.592,128.441 150.729,132.532 149.814,136.611C148.604,142.001 147.386,147.389 146.161,152.775C145.189,157.051 144.197,161.322 143.224,165.597C142.764,167.62 142.329,169.648 141.881,171.673C141.798,172.05 141.71,172.425 142.031,172.744C141.924,173.106 141.843,173.477 141.707,173.827C139.578,179.306 137.441,184.783 135.307,190.26C134.923,191.206 134.577,192.169 134.146,193.093C133.447,194.587 132.247,195.433 130.596,195.563C128.827,195.703 127.592,194.791 126.663,193.403C125.982,192.385 125.37,191.322 124.727,190.279" fill="#000" stroke="#00000000" stroke-width="1.0" stroke-miterlimit=""/>
		<path d="M135.307,190.26C137.442,184.783 139.578,179.307 141.707,173.827C141.843,173.477 141.924,173.105 142.031,172.744C143.078,170.137 144.111,167.525 145.179,164.927C145.751,163.534 146.802,162.674 148.278,162.326C156.16,160.466 164.044,158.608 171.92,156.722C172.606,156.558 172.74,156.708 172.738,157.386C172.717,165.759 172.739,174.132 172.718,182.506C172.707,186.811 169.393,190.264 165.168,190.282C155.36,190.325 145.552,190.297 135.744,190.296C135.598,190.296 135.453,190.273 135.307,190.26" fill="#000" stroke="#00000000" stroke-width="1.0" stroke-miterlimit=""/>
		<path d="M168.67,60.429C167.007,59.671 165.255,59.535 163.445,59.537C134.482,59.557 105.518,59.557 76.554,59.537C74.745,59.535 72.993,59.671 71.329,60.429C72.093,56.794 75.25,54.247 79.038,54.245C90.657,54.238 102.277,54.242 113.897,54.242C129.586,54.242 145.274,54.239 160.962,54.245C164.75,54.246 167.907,56.794 168.67,60.429" fill="#000" stroke="#00000000" stroke-width="1.0" stroke-miterlimit=""/>
		<path d="M103.113,165.588C98.208,165.328 93.302,165.072 88.396,164.807C85.183,164.633 81.97,164.47 78.76,164.258C76.94,164.139 75.57,163.251 74.915,161.519C74.247,159.751 74.729,158.192 76.031,156.855C80.832,151.925 85.63,146.992 90.428,142.059C91.98,140.464 93.491,138.827 95.09,137.281C96.603,135.816 96.969,134.156 96.408,132.159C93.721,122.584 91.065,113.001 88.403,103.419C87.684,100.832 88.705,98.63 90.996,97.854C92.161,97.459 93.312,97.569 94.396,98.154C100.679,101.546 106.96,104.943 113.237,108.347C114.146,108.84 115.031,109.377 115.927,109.894C115.593,110.964 115.132,112.014 114.951,113.109C114.533,115.641 113.897,118.121 113.332,120.618C113.114,121.583 112.705,122.538 112.587,123.483C112.42,124.82 112.008,126.086 111.718,127.374C111.232,129.531 110.784,131.7 110.253,133.85C109.646,136.305 109.197,138.804 108.615,141.271C108.154,143.226 107.678,145.179 107.247,147.141C106.966,148.419 106.911,149.77 106.465,150.982C106.067,152.065 105.853,153.181 105.648,154.277C105.285,156.221 104.733,158.114 104.317,160.041C103.917,161.89 103.453,163.725 103.113,165.588" fill="#000" stroke="#00000000" stroke-width="1.0" stroke-miterlimit=""/>
		<path d="M103.113,165.588C103.453,163.725 103.917,161.89 104.317,160.041C104.733,158.114 105.285,156.221 105.648,154.277C105.853,153.181 106.067,152.065 106.465,150.982C106.911,149.77 106.966,148.419 107.247,147.141C107.678,145.179 108.154,143.226 108.615,141.271C109.197,138.804 109.646,136.305 110.253,133.85C110.784,131.7 111.232,129.531 111.718,127.374C112.008,126.086 112.42,124.82 112.587,123.483C112.705,122.538 113.114,121.583 113.332,120.618C113.897,118.121 114.533,115.641 114.951,113.109C115.132,112.014 115.593,110.964 115.927,109.894C117.466,110.536 118.885,111.412 120.352,112.193C122.957,113.58 124.176,113.467 126.515,111.617C130.254,108.658 134.001,105.709 137.744,102.757C137.818,104.517 137.148,106.141 136.78,107.816C136.115,110.84 135.367,113.851 134.716,116.875C133.658,121.79 132.532,126.688 131.431,131.593C130.779,134.498 130.01,137.378 129.4,140.291C128.501,144.583 127.513,148.854 126.533,153.128C125.378,158.169 124.277,163.222 123.067,168.251C122.048,172.484 121.138,176.744 120.196,180.996C120.112,181.375 119.982,181.722 119.813,182.063C117.383,178.081 114.953,174.099 112.521,170.118C112.096,169.423 111.63,168.751 111.234,168.041C110.428,166.596 109.154,165.979 107.567,165.876C106.083,165.78 104.598,165.684 103.113,165.588" fill="#000" stroke="#00000000" stroke-width="1.0" stroke-miterlimit=""/>
	</svg>
