<svg xmlns="http://www.w3.org/2000/svg" width="192" height="192" fill="none" stroke="#000" stroke-linejoin="round" stroke-width="12" viewBox="0 0 192 192"><path d="M79.292 121.654s1.04-3.014 13.84-6.814c0 0 13.936-6.8 15.277-8.653 0 0 4.395-2.939 4.113-17.598 0 0 .357-15.758 1.114-14.52 0 0 4.697.657 9.53 9.437 0 0 8.226 11.931 11.622 12.718 0 0 6.922 3.805 20.371-1.704 0 0 12.93-4.327 14.23-2.361 0 0 3.396.526-7.702 15.34 0 0-7.052 9.306-6.922 14.155 0 0 .521 6.688 6.532 14.419 0 0 10.314 14.815 8.486 15.472 0 0 .654 2.226-13.97-1.705 0 0-11.885-4.849-16.195-3.543 0 0-6.658.66-13.45 10.622 0 0-9.66 14.42-12.275 12.98 0 0-2.229-.768-3.218-14.707 0 0-.661-14.855-2.006-17.149 0 0-2.824-5.375-12.926-8.262 0 0-19.327-4.979-16.451-8.127Z"/><path stroke-linecap="round" d="M87 170H43a6 6 0 0 1-6-6V28a6 6 0 0 1 6-6h98a6 6 0 0 1 6 6v44"/></svg>