<?xml version="1.0" encoding="utf-8"?>
<!-- Generator: Adobe Illustrator 25.4.1, SVG Export Plug-In . SVG Version: 6.00 Build 0)  -->
<svg version="1.1" id="Layer_1" xmlns="http://www.w3.org/2000/svg" xmlns:xlink="http://www.w3.org/1999/xlink" x="0px" y="0px"
	 width="192px" height="192px" viewBox="0 0 192 192" style="enable-background:new 0 0 192 192;" xml:space="preserve">
<style type="text/css">
	.st0{fill:none;stroke:#000000;stroke-width:12;stroke-linecap:round;stroke-miterlimit:10;}
</style>
<path class="st0" d="M168.9,45.6l-57.4,49c-1.3,1.1-3.2,1.1-4.5,0L55.6,50.8c-2.5-2.1-1-6.1,2.3-6.1h108.6c1.9,0,3.5,1.6,3.5,3.5
	V138c0,5.1-4.2,9.3-9.3,9.3l-105.8,0 M82.2,100.8c0,0-11.7,9.5-20.1,16.3 M47,128.4c-0.5,0.4-0.8,0.7-0.8,0.7 M22.6,123.4
	c0,0,13.4-10.4,25.4-19.7 M62.5,92.4c2.7-2.1,4.5-3.5,4.5-3.5 M50,77.7c0,0-6,4.7-12.1,9.5 M23.1,98.6c-0.7,0.6-1.1,0.9-1.1,0.9"/>
</svg>
