<svg width="192" height="192" viewBox="0 0 50.8 50.8"><path fill="none" stroke="#000" stroke-linecap="round" stroke-linejoin="round" stroke-width="3.175" d="M7.408 44.98h4.235l21.894-21.897a1.587 1.588 0 0 0 0-2.245l-3.575-3.575a1.587 1.588 0 0 0-2.245 0L5.821 39.157v4.235a1.587 1.587 0 0 0 1.587 1.587M37.305 7.673c.701-.701 2.101-2.278 3.334-1.746 1.233.531 3.702 3 4.233 4.233.532 1.232-1.045 2.633-1.746 3.334m-5.82-5.821-.994.994a1.587 1.587 0 0 0 0 2.245l3.575 3.575a1.59 1.59 0 0 0 2.245 0l.994-.993"/></svg>