<svg width="192" height="192" viewBox="0 0 50.8 50.8"><path fill="none" stroke="#000" stroke-linecap="round" stroke-linejoin="round" stroke-width="3.175" d="M7.40825 44.97917h4.23429l21.89439-21.89634a1.58749 1.5875 0 0 0-.00005-2.245l-3.57475-3.57477a1.58749 1.5875 0 0 0-2.245-.00004L5.82083 39.15744v4.2343a1.58742 1.58742 0 0 0 1.58742 1.58742zM37.30522 7.674c.70096-.70096 2.10089-2.27788 3.33383-1.74591 1.23293.53097 3.7018 2.99985 4.23278 4.2328.53197 1.23193-1.04495 2.63286-1.74591 3.33383M37.30622 7.674l-.99442.99442a1.58742 1.58742 0 0 0 0 2.24496l3.57475 3.57476a1.5878 1.5878 0 0 0 2.24522.00026l.99415-.99368"/></svg>