<svg width="192" height="192" fill="none" xmlns="http://www.w3.org/2000/svg"><path d="m60 170 6.118-12.576M132 170l-6.118-12.576m0 0C150.164 146.143 167 121.537 167 93c0-39.212-31.788-71-71-71S25 53.788 25 93c0 28.537 16.836 53.143 41.118 64.424m59.764 0C116.799 161.644 106.675 164 96 164s-20.8-2.356-29.882-6.576m59.764 0-10.504-21.592m-49.26 21.592 10.504-21.592m0 0C60.332 128.45 49 112.049 49 93c0-25.957 21.043-47 47-47s47 21.043 47 47c0 19.049-11.332 35.45-27.622 42.832m-38.756 0 10.51-21.604m28.246 21.604-10.51-21.604m0 0L96 96l-8.868 18.228m17.736 0C113.168 110.757 119 102.56 119 93c0-12.703-10.297-23-23-23S73 80.297 73 93c0 9.56 5.832 17.757 14.132 21.228" stroke="#000" stroke-width="12" stroke-linecap="round" stroke-linejoin="round"/></svg>