<svg xmlns="http://www.w3.org/2000/svg" width="192" height="192" fill="none"><path stroke="#000" stroke-linecap="round" stroke-linejoin="round" stroke-width="12" d="M136.969 28.206 26.469 57.64c-3.212.855-5.12 4.137-4.264 7.332l25.354 94.576c.86 3.204 4.172 5.106 7.393 4.243l110.586-29.618c3.212-.86 5.116-4.144 4.255-7.338l-25.441-94.393c-.862-3.197-4.167-5.094-7.383-4.237Z"/><ellipse cx="49.788" cy="74.218" stroke="#000" stroke-linecap="round" stroke-linejoin="round" stroke-width="8" rx="4" ry="2" transform="rotate(-15 49.788 74.218)"/><ellipse cx="55.482" cy="95.469" stroke="#000" stroke-linecap="round" stroke-linejoin="round" stroke-width="8" rx="4" ry="2" transform="rotate(-15 55.482 95.469)"/><ellipse cx="61.176" cy="116.719" stroke="#000" stroke-linecap="round" stroke-linejoin="round" stroke-width="8" rx="4" ry="2" transform="rotate(-15 61.176 116.719)"/><ellipse cx="66.87" cy="137.97" stroke="#000" stroke-linecap="round" stroke-linejoin="round" stroke-width="8" rx="4" ry="2" transform="rotate(-15 66.87 137.97)"/><ellipse cx="74.902" cy="67.489" stroke="#000" stroke-linecap="round" stroke-linejoin="round" stroke-width="8" rx="4" ry="2" transform="rotate(-15 74.902 67.49)"/><ellipse cx="80.596" cy="88.739" stroke="#000" stroke-linecap="round" stroke-linejoin="round" stroke-width="8" rx="4" ry="2" transform="rotate(-15 80.596 88.74)"/><ellipse cx="86.29" cy="109.99" stroke="#000" stroke-linecap="round" stroke-linejoin="round" stroke-width="8" rx="4" ry="2" transform="rotate(-15 86.29 109.99)"/><ellipse cx="91.984" cy="131.24" stroke="#000" stroke-linecap="round" stroke-linejoin="round" stroke-width="8" rx="4" ry="2" transform="rotate(-15 91.984 131.24)"/><ellipse cx="100.016" cy="60.76" stroke="#000" stroke-linecap="round" stroke-linejoin="round" stroke-width="8" rx="4" ry="2" transform="rotate(-15 100.016 60.76)"/><ellipse cx="105.71" cy="82.01" stroke="#000" stroke-linecap="round" stroke-linejoin="round" stroke-width="8" rx="4" ry="2" transform="rotate(-15 105.71 82.01)"/><ellipse cx="111.404" cy="103.261" stroke="#000" stroke-linecap="round" stroke-linejoin="round" stroke-width="8" rx="4" ry="2" transform="rotate(-15 111.404 103.261)"/><ellipse cx="117.098" cy="124.511" stroke="#000" stroke-linecap="round" stroke-linejoin="round" stroke-width="8" rx="4" ry="2" transform="rotate(-15 117.098 124.511)"/><ellipse cx="125.13" cy="54.031" stroke="#000" stroke-linecap="round" stroke-linejoin="round" stroke-width="8" rx="4" ry="2" transform="rotate(-15 125.13 54.03)"/><ellipse cx="130.824" cy="75.281" stroke="#000" stroke-linecap="round" stroke-linejoin="round" stroke-width="8" rx="4" ry="2" transform="rotate(-15 130.824 75.28)"/><ellipse cx="136.518" cy="96.531" stroke="#000" stroke-linecap="round" stroke-linejoin="round" stroke-width="8" rx="4" ry="2" transform="rotate(-15 136.518 96.531)"/><ellipse cx="142.212" cy="117.782" stroke="#000" stroke-linecap="round" stroke-linejoin="round" stroke-width="8" rx="4" ry="2" transform="rotate(-15 142.212 117.782)"/></svg>