<?xml version="1.0" encoding="UTF-8" standalone="no"?>
<!-- Created with Inkscape (http://www.inkscape.org/) -->

<svg
   width="24"
   height="24"
   viewBox="0 0 6.3499999 6.3500002"
   version="1.1"
   id="svg8"
   inkscape:version="1.1.1 (3bf5ae0d25, 2021-09-20)"
   sodipodi:docname="antutu.svg"
   xmlns:inkscape="http://www.inkscape.org/namespaces/inkscape"
   xmlns:sodipodi="http://sodipodi.sourceforge.net/DTD/sodipodi-0.dtd"
   xmlns="http://www.w3.org/2000/svg"
   xmlns:svg="http://www.w3.org/2000/svg"
   xmlns:rdf="http://www.w3.org/1999/02/22-rdf-syntax-ns#"
   xmlns:cc="http://creativecommons.org/ns#"
   xmlns:dc="http://purl.org/dc/elements/1.1/">
  <defs
     id="defs2">
    <marker
       inkscape:stockid="Arrow1Lend"
       orient="auto"
       refY="0.0"
       refX="0.0"
       id="Arrow1Lend"
       style="overflow:visible;"
       inkscape:isstock="true">
      <path
         id="path844"
         d="M 0.0,0.0 L 5.0,-5.0 L -12.5,0.0 L 5.0,5.0 L 0.0,0.0 z "
         style="fill-rule:evenodd;stroke:#000000;stroke-width:1.0pt;"
         transform="scale(0.8) rotate(180) translate(12.5,0)" />
    </marker>
    <marker
       inkscape:stockid="Arrow1Lstart"
       orient="auto"
       refY="0.0"
       refX="0.0"
       id="Arrow1Lstart"
       style="overflow:visible"
       inkscape:isstock="true">
      <path
         id="path841"
         d="M 0.0,0.0 L 5.0,-5.0 L -12.5,0.0 L 5.0,5.0 L 0.0,0.0 z "
         style="fill-rule:evenodd;stroke:#000000;stroke-width:1.0pt"
         transform="scale(0.8) translate(12.5,0)" />
    </marker>
    <pattern
       y="0"
       x="0"
       height="6"
       width="6"
       patternUnits="userSpaceOnUse"
       id="EMFhbasepattern" />
    <pattern
       y="0"
       x="0"
       height="6"
       width="6"
       patternUnits="userSpaceOnUse"
       id="EMFhbasepattern-1" />
    <pattern
       y="0"
       x="0"
       height="6"
       width="6"
       patternUnits="userSpaceOnUse"
       id="EMFhbasepattern-6" />
    <pattern
       y="0"
       x="0"
       height="6"
       width="6"
       patternUnits="userSpaceOnUse"
       id="EMFhbasepattern-15" />
  </defs>
  <sodipodi:namedview
     id="base"
     pagecolor="#ffffff"
     bordercolor="#666666"
     borderopacity="1.0"
     inkscape:pageopacity="0.0"
     inkscape:pageshadow="2"
     inkscape:zoom="22.627417"
     inkscape:cx="8.5957668"
     inkscape:cy="12.750019"
     inkscape:document-units="px"
     inkscape:current-layer="layer2"
     showgrid="false"
     units="px"
     inkscape:window-width="1920"
     inkscape:window-height="1017"
     inkscape:window-x="-8"
     inkscape:window-y="-8"
     inkscape:window-maximized="1"
     inkscape:pagecheckerboard="0" />
  <metadata
     id="metadata5">
    <rdf:RDF>
      <cc:Work
         rdf:about="">
        <dc:format>image/svg+xml</dc:format>
        <dc:type
           rdf:resource="http://purl.org/dc/dcmitype/StillImage" />
      </cc:Work>
    </rdf:RDF>
  </metadata>
  <g
     inkscape:groupmode="layer"
     id="layer2"
     inkscape:label="Layer 2">
    <path
       id="path5857"
       d="m 3.9929849,2.4167225 c 0.039052,0.025852 0.07884,0.069878 0.110746,0.1564036 0.1251207,0.346906 0.040664,0.846951 -0.00313,1.184481 0.1720408,0.05938 0.4692026,0.321904 0.588067,0.465667 0.1094808,0.134388 0.3346977,0.478168 0.36285,0.696938 C 5.4454823,4.4350914 5.584153,3.7221778 5.5426163,3.1825565 5.4256092,2.4414016 5.1465072,1.9576183 4.6542587,1.4323975 c -0.03128,-0.02813 -0.1376329,-0.137513 -0.1720412,-0.153139 -0.03128,0.09376 -0.065688,0.175016 -0.1126084,0.246897 -0.034408,0.05626 -0.1157368,0.162515 -0.1751688,0.181267 0.040664,-0.15939 -0.025024,-0.328155 -0.087584,-0.443791 C 4.0317867,1.1260955 3.9598422,1.0604645 3.8628738,0.9604555 3.7377531,0.8354442 3.3936714,0.6010481 3.1997344,0.5291667 c -0.00313,0.1843916 0.021896,0.27815 -0.025024,0.4625418 -0.06348,0.2615572 -0.204509,0.3879633 -0.3847459,0.553175 C 2.5770516,1.3637833 2.5753349,1.1278261 2.6022816,0.888574 2.5021851,0.932328 2.3833205,1.0448385 2.3176321,1.1104695 c -0.2877774,0.290651 -0.4410502,0.575051 -0.4723304,1.031342 -0.096969,0.01875 -0.1939369,-0.01563 -0.2471132,-0.06563 -0.071944,-0.07188 -0.056304,-0.118761 -0.09384,-0.215645 -0.087585,0.03438 -0.2564973,0.256273 -0.3221856,0.362533 -0.28777752,0.459416 -0.44417832,1.018842 -0.36284992,1.593893 0.01564,0.225021 0.1126086,0.503171 0.19706502,0.681312 0.068816,0.143763 0.2627534,0.453166 0.3472098,0.512546 0.087584,-0.465667 0.3847459,-0.850077 0.7475958,-1.118851 0.050048,-0.0375 0.1126086,-0.0625 0.1626568,-0.103134 0,-0.171891 -0.1407607,-0.66881 -0.2346012,-0.771945 -0.056304,-0.11251 -0.1626568,-0.2844 -0.1564008,-0.440664 0.00938,-0.21252 0.184553,-0.21252 0.381618,-0.215645 0.2877774,0.0063 0.3346976,0.234396 0.3565938,0.490669 0.025024,0.268775 0.00313,0.540674 -0.043792,0.796947 0.1157366,-0.03125 0.2314732,-0.05313 0.3409538,-0.08438 0.3472098,-0.025 0.5411467,-0.03438 0.8633323,0.05938 0.00313,-0.237521 -0.209577,-0.60943 -0.3159296,-0.821949 -0.028152,-0.08751 -0.065688,-0.187517 -0.03128,-0.287526 0.04967,-0.064718 0.099386,-0.1007477 0.1540628,-0.120852 0.1620601,-0.058443 0.3503928,-0.00744 0.4045874,0.023852 z m -0.5836734,2.072176 c 0.012512,0.153139 0.2971615,0.346906 0.6005791,0.0031 0.040664,-0.04688 0.1126085,-0.125011 0.1470167,-0.187517 -0.0782,0.0125 -0.7163157,0.16564 -0.7475958,0.184392 z m -0.5067386,-0.0094 -0.7413398,-0.209394 c 0.018768,0.04375 0.1094805,0.156265 0.1376327,0.187517 0.040664,0.05001 0.1094805,0.131262 0.1720409,0.162515 0.1689129,0.08751 0.40977,0.04063 0.4316662,-0.140638 z"
       style="fill:#000000;fill-opacity:1;fill-rule:evenodd;stroke:none;stroke-width:0.08273602"
       inkscape:connector-curvature="0"
       sodipodi:nodetypes="ccccccccccccccccccccccccccccccccccccccccccccccc" />
  </g>
</svg>
