<svg width="192" height="192" viewBox="0 0 192 192" fill="none" xmlns="http://www.w3.org/2000/svg">
<path d="M28 38H164C167.314 38 170 40.6863 170 44V134.285C170 137.599 167.314 140.285 164 140.285H115.256C110.482 140.285 105.904 142.182 102.528 145.558L99.8076 148.278C97.5512 150.534 93.9236 150.63 91.5518 148.495L89.04 146.235C85.835 143.351 81.7006 141.712 77.3896 141.618L27.8691 140.542C24.6072 140.471 22 137.806 22 134.543V44C22 40.6863 24.6863 38 28 38Z" stroke="black" stroke-width="12" stroke-linejoin="round"/>
<path d="M96 61V116" stroke="black" stroke-width="10" stroke-linecap="round" stroke-linejoin="round"/>
<path d="M45 87L54.2273 61L64.7727 87L74 61" stroke="black" stroke-width="10" stroke-miterlimit="6" stroke-linecap="round" stroke-linejoin="round"/>
</svg>
