<svg width="192" height="192" viewBox="0 0 192 192" fill="none" xmlns="http://www.w3.org/2000/svg"><path d="M54 96H22m140 0h-24" stroke="#000" stroke-width="12" stroke-linecap="round" stroke-linejoin="round"/><path d="M64 138h64v8H64v-8Zm-32 0h8v8h-8v-8Zm120 0h8v8h-8v-8Zm11-92h8v8h-8v-8Zm-28 0h8v8h-8v-8Zm-29 0h8v8h-8v-8Zm-28 0h8v8h-8v-8Zm-29 0h8v8h-8v-8Zm-28 0h8v8h-8v-8Z" stroke="#000" stroke-width="10" stroke-linecap="round" stroke-linejoin="round"/><path d="M138 78v36m32-36s0 18-18 18M22 114V84a6 6 0 0 1 6-6h20a6 6 0 0 1 6 6v30m58-36H86a6 6 0 0 0-6 6v12h32v12a6 6 0 0 1-6 6H80m72-18c18 0 18 18 18 18" stroke="#000" stroke-width="12" stroke-linecap="round" stroke-linejoin="round"/></svg>