<svg xmlns="http://www.w3.org/2000/svg" width="192" height="192" viewBox="0 0 192 192"><path fill="none" stroke="#000" stroke-width="12" d="m42.3 120.2 22.5-30.7m17-3.7 27.9 19.1m39.9-33.2-21.5 28.9m-86.6 20.8c-2-1.5-4.4-2.3-7.1-2.3-6.6 0-12 5.4-12 12s5.4 12 12 12 12-5.4 12-12c0-4-2-7.5-4.9-9.7zm116.1-72.5c-6.6 0-12 5.4-12 12 0 3.9 1.9 7.4 4.8 9.6 2 1.5 4.5 2.4 7.2 2.4 6.6 0 12-5.4 12-12s-5.3-12-12-12zM72.3 67.3c-6.6 0-12 5.4-12 12 0 4 1.9 7.5 4.9 9.7 2 1.5 4.4 2.3 7.1 2.3 4.1 0 7.7-2.1 9.9-5.2 1.3-1.9 2.1-4.2 2.1-6.8 0-6.6-5.4-12-12-12zm54.7 34.8c-2-1.5-4.5-2.4-7.2-2.4-4.1 0-7.8 2.1-9.9 5.2-1.3 1.9-2.1 4.3-2.1 6.8 0 6.6 5.4 12 12 12s12-5.4 12-12c.1-3.9-1.8-7.4-4.8-9.6z"/></svg>