<svg width="192" height="192" fill="none" xmlns="http://www.w3.org/2000/svg"><circle cx="96" cy="96" r="74" stroke="#000" stroke-width="12" stroke-linecap="round" stroke-linejoin="round"/><path d="M63 85a14 14 0 0 1 0 28m66-28a13.998 13.998 0 0 0-14 14c0 3.713 1.475 7.274 4.101 9.899A13.996 13.996 0 0 0 129 113M82 65a14 14 0 0 0 28 0M96 79v55M82 65c0-10 14-21 14-21s14 11 14 21m-48 69h68m-53-27 19 11m19-11-19 11m-33-5c-16 0-17-25-17-25s10-3 17-3m66 28c16 0 17-25 17-25s-10-3-17-3" stroke="#000" stroke-width="10" stroke-linecap="round" stroke-linejoin="round"/></svg>