<svg width="192" height="192" viewBox="0 0 192 192" fill="none" xmlns="http://www.w3.org/2000/svg"><path d="M138 70a41.994 41.994 0 0 0-25.927-38.803A42 42 0 0 0 54 70m-20 2v48m124-48v48m-44 24v26m-36-26v26M72 34l-8-12m57 12 8-12m9 48v68a6 6 0 0 1-6 6H60a6 6 0 0 1-6-6V70" stroke="#000" stroke-width="12" stroke-linecap="round" stroke-linejoin="round"/><path d="M54 71h84" stroke="#000" stroke-width="10" stroke-linecap="round" stroke-linejoin="round"/><path d="M88.222 93.765C89.999 88.44 92.822 85 96 85s6.001 3.441 7.778 8.765m-15.556 0c3.861.795 8.266 2.467 12.646 4.951a50.661 50.661 0 0 1 4.578 2.926c7.899 5.682 12.227 12.479 9.948 16.358-1.59 2.704-6.035 3.385-11.616 2.235m-15.556-26.47c-5.581-1.15-10.026-.47-11.616 2.235-2.28 3.88 2.05 10.676 9.948 16.358a50.647 50.647 0 0 0 4.578 2.926c4.38 2.484 8.785 4.156 12.646 4.951m0-26.47c-3.861.795-8.266 2.467-12.646 4.951a50.624 50.624 0 0 0-4.578 2.926c-7.898 5.682-12.227 12.479-9.948 16.358 1.59 2.704 6.035 3.385 11.616 2.235m15.556-26.47c5.581-1.15 10.026-.47 11.616 2.235 2.279 3.88-2.049 10.676-9.948 16.358a50.685 50.685 0 0 1-4.578 2.926c-4.38 2.484-8.785 4.156-12.646 4.951m0 0C89.999 125.559 92.822 129 96 129s6.001-3.441 7.778-8.765" stroke="#000" stroke-width="6" stroke-linecap="round" stroke-linejoin="round"/></svg>