<svg xmlns="http://www.w3.org/2000/svg" width="192" height="192" fill="none" viewBox="0 0 192 192"><circle cx="158" cy="166" r="5" stroke="#000" stroke-linecap="round" stroke-linejoin="round" stroke-width="10"/><path stroke="#000" stroke-linecap="round" stroke-linejoin="round" stroke-width="10" d="m88 92 6 32H82z"/><path stroke="#000" stroke-linecap="round" stroke-linejoin="round" stroke-width="12" d="m43.458 162.808 27.567-136A6 6 0 0 1 76.905 22h22.19a6 6 0 0 1 5.88 4.808l27.567 136c.754 3.717-2.088 7.192-5.88 7.192h-19.743a6 6 0 0 1-5.884-4.823l-1.07-5.354A6 6 0 0 0 94.08 155H81.92a6 6 0 0 0-5.884 4.823l-1.07 5.354A6 6 0 0 1 69.08 170H49.338c-3.792 0-6.634-3.475-5.88-7.192"/></svg>