<svg xmlns="http://www.w3.org/2000/svg" width="192" height="192" fill="none"><path stroke="#000" stroke-linecap="round" stroke-linejoin="round" stroke-width="8" d="M80 126s-7-1.5-7-6.5 7-8 7-8-7-6-7-12V92"/><path stroke="#000" stroke-linecap="round" stroke-linejoin="round" stroke-width="12" d="M34 72v48m124-48v48m-40-30-21 28m17 26v26m-36-26v26m60-100a41.99 41.99 0 0 0-25.927-38.803A42 42 0 0 0 54 70"/><circle cx="83" cy="52" r="3" stroke="#000" stroke-linecap="round" stroke-linejoin="round" stroke-width="6"/><circle cx="109" cy="52" r="3" stroke="#000" stroke-linecap="round" stroke-linejoin="round" stroke-width="6"/><path stroke="#000" stroke-linecap="round" stroke-linejoin="round" stroke-width="12" d="m72 34-8-12m57 12 8-12m9 48v68a6 6 0 0 1-6 6H60a6 6 0 0 1-6-6V70"/><path stroke="#000" stroke-linecap="round" stroke-linejoin="round" stroke-width="10" d="M54 71h84"/></svg>