<svg xmlns="http://www.w3.org/2000/svg" width="192" height="192" fill="none" viewBox="0 0 192 192"><path stroke="#000" stroke-linecap="round" stroke-linejoin="round" stroke-width="8" d="M80 126s-7-1.5-7-6.5 7-8 7-8-7-6-7-12V92"/><path stroke="#000" stroke-linecap="round" stroke-linejoin="round" stroke-width="12" d="M34 72v48m124-48v22m-40-4-21 28m-19 26v26m60-100a41.99 41.99 0 0 0-25.927-38.803A42 42 0 0 0 54 70"/><circle cx="83" cy="52" r="3" stroke="#000" stroke-linecap="round" stroke-linejoin="round" stroke-width="6"/><circle cx="109" cy="52" r="3" stroke="#000" stroke-linecap="round" stroke-linejoin="round" stroke-width="6"/><path stroke="#000" stroke-linecap="round" stroke-linejoin="round" stroke-width="12" d="m72 34-8-12m57 12 8-12m-15 148v-20a6 6 0 0 0-6-6H60a6 6 0 0 1-6-6V70m84 21V70"/><path stroke="#000" stroke-linecap="round" stroke-linejoin="round" stroke-width="10" d="M54 71h84"/><path stroke="#000" stroke-linecap="round" stroke-linejoin="round" stroke-miterlimit="6" stroke-width="10" d="M142.224 111.103a2.884 2.884 0 0 1 5.552 0l2.248 7.215c.391 1.253 1.512 2.102 2.776 2.102h7.276c2.827 0 4.003 3.773 1.715 5.506l-5.886 4.459c-1.023.775-1.451 2.149-1.06 3.403l2.248 7.214c.874 2.804-2.204 5.136-4.492 3.403l-5.885-4.459a2.824 2.824 0 0 0-3.432 0l-5.885 4.459c-2.288 1.733-5.366-.599-4.492-3.403l2.248-7.214c.391-1.254-.037-2.628-1.06-3.403l-5.886-4.459c-2.288-1.733-1.112-5.506 1.715-5.506h7.276c1.264 0 2.385-.849 2.776-2.102z"/></svg>