<svg width="192" height="192" viewBox="0 0 192 192" fill="none" xmlns="http://www.w3.org/2000/svg"><path d="M161 25H31a6 6 0 0 0-6 6v130a6 6 0 0 0 6 6h130a6 6 0 0 0 6-6V31a6 6 0 0 0-6-6Z" stroke="#000" stroke-width="12" stroke-linecap="round" stroke-linejoin="round"/><path d="M134.348 63 120.5 76.963M57.652 63 71.5 76.963M47 121h98a49.698 49.698 0 0 0-8.256-27.451 49.088 49.088 0 0 0-21.991-18.199 48.624 48.624 0 0 0-28.313-2.81 48.874 48.874 0 0 0-25.088 13.524 49.434 49.434 0 0 0-10.622 16.029A49.763 49.763 0 0 0 47 121Z" stroke="#000" stroke-width="12" stroke-linecap="round" stroke-linejoin="round"/><path d="M79 103a3 3 0 1 0 0-6 3 3 0 0 0 0 6Zm34 0a3 3 0 1 0 0-6 3 3 0 0 0 0 6Z" stroke="#000" stroke-width="6" stroke-linecap="round" stroke-linejoin="round"/></svg>