<?xml version="1.0" encoding="UTF-8"?>
<svg width="24" height="24" fill="none" version="1.1" viewBox="0 0 24 24" xmlns="http://www.w3.org/2000/svg">
 <path d="m2.0336 17.161c0.0639-1.3041 0.41718-2.5932 1.053-3.8431 0.62461-1.2278 1.4158-2.2293 2.469-3.125l0.49352-0.41975-1.1424-1.1509c-1.2105-1.2195-1.3175-1.3721-1.2427-1.771 0.0493-0.26291 0.32907-0.56676 0.59522-0.6465 0.44945-0.13465 0.56003-0.0589 1.9904 1.3641l1.2965 1.2898 0.54919-0.22662c1.2502-0.51589 2.2511-0.73644 3.5488-0.78196 1.4422-0.0506 2.7017 0.17377 4.0585 0.7229l0.69872 0.28279 1.3229-1.3171c1.4119-1.4057 1.4738-1.4495 1.91-1.3537 0.2624 0.0576 0.53404 0.32452 0.61119 0.6005 0.11807 0.42238 0.039 0.53908-1.2261 1.8097l-1.1464 1.1514 0.13971 0.11137c0.53269 0.42462 1.0686 0.91421 1.3668 1.2488 1.5698 1.7609 2.4315 3.8164 2.5831 6.162l0.0373 0.57744h-20zm14.77-0.92283c0.0167-0.0846 0.0459-0.2682 0.065-0.40803 0.0314-0.23006 0.058-0.2666 0.27977-0.38424l0.24506-0.13 0.35154 0.14111c0.22441 0.0901 0.37433 0.12244 0.41456 0.0895 0.0966-0.0792 0.58016-0.93103 0.58016-1.0221 0-0.0442-0.13076-0.18454-0.29059-0.31179-0.28043-0.22329-0.2907-0.24133-0.29363-0.51576-3e-3 -0.27789 4e-3 -0.28962 0.2906-0.5137 0.16149-0.12613 0.29362-0.26296 0.29362-0.30408 0-0.0994-0.5697-1.0732-0.62788-1.0732-0.025 0-0.19884 0.0623-0.38627 0.13847l-0.34078 0.13848-0.24247-0.1421c-0.21797-0.12774-0.24604-0.16858-0.27772-0.40414-0.0762-0.56627-0.0437-0.54101-0.70225-0.54681-0.32043-3e-3 -0.61222 0.0176-0.64842 0.0454s-0.0831 0.21203-0.10426 0.4094c-0.0378 0.35282-0.0426 0.36119-0.28526 0.49682l-0.24682 0.13795-0.36581-0.13769c-0.2012-0.0757-0.38574-0.12538-0.41009-0.11032-0.0244 0.0151-0.17795 0.25896-0.34132 0.54203l-0.29703 0.51467 0.27521 0.24077c0.15136 0.13242 0.29408 0.24128 0.31715 0.24191 0.0231 6.3e-4 0.0419 0.13774 0.0419 0.30467 0 0.29767-5e-3 0.30765-0.27659 0.51734-0.15212 0.1176-0.29034 0.24681-0.30716 0.28712-0.0302 0.0725 0.41177 0.89328 0.56196 1.0435 0.0665 0.0665 0.12785 0.0575 0.42106-0.0616 0.28878-0.11734 0.3677-0.12934 0.49743-0.0756 0.27898 0.11555 0.37324 0.25056 0.41622 0.59614 0.0223 0.17925 0.0521 0.34479 0.0662 0.36786 0.0141 0.0231 0.31162 0.0419 0.66111 0.0419h0.63543zm-0.97219-1.5338c-0.39284-0.11163-0.67281-0.43203-0.76047-0.8703-0.077-0.38492 0.24476-0.95192 0.63197-1.1137 0.34959-0.14607 0.87198-0.0591 1.155 0.19223 0.27719 0.24614 0.39449 0.83368 0.24018 1.203-0.0999 0.23904-0.42905 0.52219-0.69193 0.5952-0.24757 0.0687-0.31282 0.068-0.5748-6e-3zm-7.5504-0.0766c0.79786-0.40757 0.75676-1.5516-0.0681-1.8961-0.87378-0.365-1.7293 0.53333-1.335 1.4017 0.2375 0.52299 0.89414 0.75436 1.4031 0.49438z" fill="#000" stroke-width=".055929"/>
</svg>
