<svg xmlns="http://www.w3.org/2000/svg" width="192" height="192" fill="none"><path stroke="#000" stroke-linecap="round" stroke-linejoin="round" stroke-width="12" d="M98 22c-32 0-58 10-58 10l10 25s20-5 32-6 28 1 28 31c0 0-80-9-80 47 0 16 9 41 43 41 17.135 0 34.137-6.229 44.592-16.385C125.95 164.118 140.788 170 155 170l9-28s-10-2-10-15V66c0-10-2-44-56-44"/><path stroke="#000" stroke-linecap="round" stroke-linejoin="round" stroke-width="12" d="M81.507 118.285a14 14 0 0 1 13.068-10.692l9.194-.353a6 6 0 0 1 6.231 5.995v8.677a14 14 0 0 1-10.793 13.628l-1.026.241c-10.162 2.391-19.272-6.781-16.812-16.926z"/></svg>