<svg width="192" height="192" viewBox="0 0 192 192" fill="none" xmlns="http://www.w3.org/2000/svg"><circle cx="82" cy="51" r="3" stroke="#000" stroke-width="6" stroke-linecap="round" stroke-linejoin="round"/><circle cx="110" cy="51" r="3" stroke="#000" stroke-width="6" stroke-linecap="round" stroke-linejoin="round"/><path d="M29 118V81c0-6.627 5.373-12 12-12h13m109 49V81c0-6.627-5.373-12-12-12h-13m-12 75v17m-40-17v17m20-17v17m-40-17v17" stroke="#000" stroke-width="10" stroke-linecap="round" stroke-linejoin="round"/><path d="M54 68v64c0 6.627 5.373 12 12 12h60c6.627 0 12-5.373 12-12V68" stroke="#000" stroke-width="12" stroke-linecap="round" stroke-linejoin="round"/><path d="M54 69h84M58 21l13 13m63-13-13 13" stroke="#000" stroke-width="10" stroke-linecap="round" stroke-linejoin="round"/><path d="M138 68a41.994 41.994 0 0 0-25.927-38.803A42 42 0 0 0 54 68" stroke="#000" stroke-width="12" stroke-linecap="round" stroke-linejoin="round"/><path d="M29 118a12 12 0 0 0 24 0m86 0a12 12 0 1 0 24 0m-57 43a10.01 10.01 0 0 0 2.929 7.071A10.008 10.008 0 0 0 116 171a10.01 10.01 0 0 0 7.071-2.929A10.008 10.008 0 0 0 126 161m-60 0a10.002 10.002 0 0 0 13.827 9.239A10.001 10.001 0 0 0 86 161" stroke="#000" stroke-width="10" stroke-linecap="round" stroke-linejoin="round"/></svg>