<svg width="192" height="192" viewBox="0 0 192 192" fill="none" xmlns="http://www.w3.org/2000/svg"><path d="M47 80V28a6 6 0 0 1 6-6h69.515a6 6 0 0 1 4.242 1.757l26.486 26.486A6 6 0 0 1 155 54.485V164a6 6 0 0 1-6 6H53a6 6 0 0 1-6-6v-12" stroke="#000" stroke-width="12" stroke-linecap="round" stroke-linejoin="round"/><path d="M81 120a9 9 0 1 0 0-18m-41 0-14 32m80-32v32m10-16 14 16m0-32-24 24m-36 8v-26a6 6 0 0 1 6-6h5m-11 18h11m-27 14-14-32" stroke="#000" stroke-width="10" stroke-linecap="round" stroke-linejoin="round"/><path d="M50 128H30" stroke="#000" stroke-width="8" stroke-linecap="round" stroke-linejoin="round"/></svg>