<svg xmlns="http://www.w3.org/2000/svg" width="192" height="192" fill="none" viewBox="0 0 192 192"><circle cx="96" cy="96" r="6" stroke="#000" stroke-linecap="round" stroke-linejoin="round" stroke-width="12"/><rect width="142" height="142" x="25" y="25" stroke="#000" stroke-linecap="round" stroke-linejoin="round" stroke-width="12" rx="18"/><path stroke="#000" stroke-linecap="round" stroke-linejoin="round" stroke-width="12" d="M100.984 48h-9.968c-3.314 0-5.924 2.707-6.418 5.984-1.295 8.597-5.177 11.183-5.545 11.41l-.057.034c-.414.227-5.247 2.703-13.59-.376-3.112-1.149-6.766-.247-8.423 2.626l-4.99 8.657c-1.654 2.868-.613 6.477 1.952 8.57 6.786 5.537 7.092 10.564 7.106 11.056v.078c-.014.492-.32 5.519-7.106 11.056-2.565 2.093-3.606 5.702-1.952 8.57l4.99 8.657c1.657 2.873 5.31 3.781 8.398 2.568 8.112-3.187 12.279-1.089 12.622-.903l.047.027c.368.224 4.972 3.179 6.487 12.01.56 3.266 3.165 5.976 6.48 5.976h9.967c3.314 0 5.919-2.71 6.479-5.976 1.515-8.831 6.119-11.786 6.487-12.01l.047-.027c.343-.186 4.511-2.284 12.622.903 3.087 1.213 6.741.305 8.398-2.568l4.99-8.657c1.654-2.868.613-6.477-1.952-8.57-6.785-5.537-7.092-10.563-7.106-11.055v-.08c.014-.492.321-5.518 7.106-11.055 2.565-2.093 3.606-5.702 1.952-8.57l-4.99-8.657c-1.657-2.873-5.31-3.772-8.414-2.604-6.992 2.632-11.049 1.147-12.25.55a7 7 0 0 1-.753-.433c-1.177-.767-4.809-3.69-6.13-11.215-.572-3.264-3.172-5.976-6.486-5.976"/></svg>