<svg xmlns="http://www.w3.org/2000/svg" width="192" height="192" fill="none" stroke-width="12" viewBox="0 0 192 192"><path fill="#000" d="M90.736 40.666c-5.725 0-10.577 4.31-11.254 9.994l-.676 5.67c-.157 1.323-1.265 3.009-3.418 4.223-2.053 1.157-3.927 1.246-5.162.717l-5.232-2.245c-5.262-2.256-11.42-.208-14.281 4.75l-5.266 9.118c-2.862 4.958-1.555 11.314 3.03 14.742l4.087 3.056c1.17.876 2.102 2.746 2.102 5.309s-.931 4.433-2.102 5.308l-4.088 3.057c-4.584 3.428-5.891 9.784-3.029 14.742l5.266 9.117c2.862 4.958 9.02 7.007 14.28 4.75l5.233-2.244c1.235-.53 3.109-.441 5.162.717 2.153 1.213 3.26 2.899 3.418 4.223l.676 5.67c.677 5.684 5.529 9.994 11.254 9.994h10.527c5.725 0 10.577-4.31 11.254-9.995l.813-6.826c.126-1.062 1-2.488 2.793-3.556 1.824-1.087 3.49-1.152 4.54-.702l6.342 2.72c5.262 2.255 11.42.207 14.281-4.75l5.266-9.118c2.862-4.958 1.555-11.314-3.03-14.742l-5.988-4.478C136.737 99.29 136 97.946 136 96s.738-3.29 1.535-3.887l5.989-4.478h.002c4.584-3.429 5.89-9.785 3.027-14.742l-5.266-9.118c-2.862-4.957-9.02-7.006-14.28-4.75l-6.343 2.72c-1.05.45-2.716.385-4.54-.702-1.794-1.068-2.667-2.494-2.794-3.557l-.812-6.826c-.677-5.684-5.529-9.994-11.254-9.994zm.592 12h9.344l.742 6.24c.682 5.73 4.46 10 8.566 12.445 4.254 2.535 9.98 3.751 15.412 1.422l.006-.002 5.793-2.484 4.672 8.092-5.514 4.125C125.796 85.908 124 91.24 124 96s1.797 10.092 6.35 13.496l5.514 4.125-4.672 8.091-5.797-2.486c-5.434-2.33-11.159-1.113-15.414 1.422-4.105 2.446-7.884 6.716-8.566 12.445l-.742 6.24h-9.344l-.606-5.082c-.738-6.203-4.967-10.735-9.441-13.258-4.395-2.477-10.234-3.673-15.785-1.293l-4.69 2.012-4.67-8.092 3.614-2.703c5.037-3.767 6.916-9.706 6.916-14.918s-1.88-11.151-6.917-14.919l-3.614-2.703 4.672-8.092 4.688 2.01c5.55 2.38 11.39 1.186 15.785-1.291 4.474-2.522 8.703-7.055 9.441-13.258l.606-5.082z"/><path stroke="#000" d="M96 110c7.732 0 14-6.268 14-14s-6.268-14-14-14-14 6.268-14 14 6.268 14 14 14z"/><rect width="132" height="132" x="30" y="30" stroke="#000" rx="12"/></svg>