<svg xmlns="http://www.w3.org/2000/svg" width="192" height="192" fill="none" stroke="#000" stroke-linejoin="round" stroke-width="12" viewBox="0 0 192 192"><circle cx="120" cy="133" r="18"/><circle cx="77" cy="56" r="3" stroke-width="6"/><circle cx="115" cy="56" r="3" stroke-width="6"/><path stroke-linecap="round" stroke-width="14" d="M35 91v48m121-48v48"/><path stroke-linecap="round" d="m136 149 20 21"/><path d="M138 70H54c1.514-8.906 10.216-36 42-36s40.486 27.094 42 36Z"/><path stroke-linecap="round" d="M74 37 64 22m55 15 10-15M54 90v56l28 24v-19M54 90h84v44M54 90l28 24v37m0 0h38"/></svg>