<svg width="192" height="192" viewBox="0 0 192 192" fill="none" xmlns="http://www.w3.org/2000/svg"><circle cx="68" cy="145" r="5" stroke="#000" stroke-width="10"/><circle cx="124" cy="145" r="5" stroke="#000" stroke-width="10"/><path d="M168 170H24c2.595-14.844 17.514-60 72-60 54.486 0 69.405 45.156 72 60Z" stroke="#000" stroke-width="12" stroke-linejoin="round"/><path d="M62 116 46 92m84 24 16-24M30 79.058a33.858 33.858 0 0 1-6-8.985h26.1c2.76 0 4.997-2.227 4.997-4.975V46.902c0-2.748-2.237-4.976-4.997-4.976H24a33.923 33.923 0 0 1 6.95-9.969c13.336-13.277 34.958-13.277 48.295 0a33.923 33.923 0 0 1 6.95 9.969h76.807c2.761 0 4.998 2.227 4.998 4.976v18.194c0 2.749-2.237 4.976-4.998 4.976H86.194a33.924 33.924 0 0 1-6.95 9.969 34.052 34.052 0 0 1-11.27 7.458" stroke="#000" stroke-width="12" stroke-linecap="round" stroke-linejoin="round"/></svg>