<svg xmlns="http://www.w3.org/2000/svg" width="192" height="192" fill="none" viewBox="0 0 192 192"><path stroke="#000" stroke-linecap="round" stroke-linejoin="round" stroke-width="12" d="M61.457 77 25.892 90.384c-5.183 1.95-5.183 9.281 0 11.231L61.457 115m0-38 32.43 12.204a6 6 0 0 0 4.227 0L130.544 77m-69.087 0L25.892 63.615c-5.182-1.95-5.182-9.28 0-11.23l67.995-25.59a6 6 0 0 1 4.227 0l67.995 25.59c5.182 1.95 5.182 9.28 0 11.23L130.544 77m0 0 35.565 13.384c5.182 1.95 5.182 9.281 0 11.231L130.544 115m0 0 35.565 13.384c5.182 1.951 5.182 9.281 0 11.231l-67.996 25.589a6 6 0 0 1-4.226 0l-67.995-25.589c-5.183-1.95-5.183-9.28 0-11.231L61.457 115m69.087 0-32.43 12.204a6 6 0 0 1-4.227 0L61.457 115"/></svg>