<svg width="192" height="192" viewBox="0 0 192 192" fill="none" xmlns="http://www.w3.org/2000/svg"><circle cx="120" cy="133" r="18" stroke="#000" stroke-width="12" stroke-linejoin="round"/><path d="M34 72v48m124-48v48m-22 29 20 21M54 146l28 24M54 70l25.905 22.204A6 6 0 0 1 82 96.76V170m56-100a41.994 41.994 0 0 0-25.927-38.803A42 42 0 0 0 54 70" stroke="#000" stroke-width="12" stroke-linecap="round" stroke-linejoin="round"/><circle cx="83" cy="52" r="3" stroke="#000" stroke-width="6" stroke-linecap="round" stroke-linejoin="round"/><circle cx="109" cy="52" r="3" stroke="#000" stroke-width="6" stroke-linecap="round" stroke-linejoin="round"/><path d="m72 34-8-12m57 12 8-12m9 48v28M54 70v76" stroke="#000" stroke-width="12" stroke-linecap="round" stroke-linejoin="round"/><path d="M54 71h84" stroke="#000" stroke-width="10" stroke-linecap="round" stroke-linejoin="round"/></svg>