<svg xmlns="http://www.w3.org/2000/svg" width="192" height="192" fill="none"><circle cx="120" cy="133" r="18" stroke="#000" stroke-linejoin="round" stroke-width="12"/><path stroke="#000" stroke-linecap="round" stroke-linejoin="round" stroke-width="12" d="M34 72v48m124-48v48m-22 29 20 21M54 146l28 24M54 70l25.905 22.204A6 6 0 0 1 82 96.76V170m56-100a41.99 41.99 0 0 0-25.927-38.803A42 42 0 0 0 54 70"/><circle cx="83" cy="52" r="3" stroke="#000" stroke-linecap="round" stroke-linejoin="round" stroke-width="6"/><circle cx="109" cy="52" r="3" stroke="#000" stroke-linecap="round" stroke-linejoin="round" stroke-width="6"/><path stroke="#000" stroke-linecap="round" stroke-linejoin="round" stroke-width="12" d="m72 34-8-12m57 12 8-12m9 48v28M54 70v76"/><path stroke="#000" stroke-linecap="round" stroke-linejoin="round" stroke-width="10" d="M54 71h84"/></svg>