<svg xmlns="http://www.w3.org/2000/svg" width="192" height="192" fill="none"><path stroke="#000" stroke-linecap="round" stroke-linejoin="round" stroke-width="12" d="M133 59a37 37 0 0 0-10.837-26.163 37.005 37.005 0 0 0-40.322-8.02A37 37 0 0 0 59 59"/><circle cx="96" cy="119" r="5" stroke="#000" stroke-linecap="round" stroke-linejoin="round" stroke-width="10"/><path stroke="#000" stroke-linecap="round" stroke-linejoin="round" stroke-width="12" d="M46 94a6 6 0 0 1 6-6h88a6 6 0 0 1 6 6v70a6 6 0 0 1-6 6H52a6 6 0 0 1-6-6zm87-35v29m-37 31v22M59 59v29"/></svg>