<svg width="192" height="192" fill="none" xmlns="http://www.w3.org/2000/svg"><path d="M126.497 49.465a31.73 31.73 0 0 1-3.154 24.023L80.917 147.17a31.585 31.585 0 0 1-19.172 14.75 31.496 31.496 0 0 1-23.958-3.163 31.647 31.647 0 0 1-14.711-19.223 31.733 31.733 0 0 1 3.154-24.023l42.427-73.683a31.584 31.584 0 0 1 19.171-14.75 31.5 31.5 0 0 1 23.959 3.162 31.645 31.645 0 0 1 14.71 19.224Z" stroke="#000" stroke-width="12" stroke-linecap="round" stroke-linejoin="round"/><path d="M104.172 27.079a31.585 31.585 0 0 1 19.171 14.75l42.427 73.683a31.734 31.734 0 0 1 3.154 24.023 31.648 31.648 0 0 1-14.711 19.224 31.5 31.5 0 0 1-23.958 3.162 31.585 31.585 0 0 1-19.172-14.75L68.657 73.488a31.733 31.733 0 0 1-3.154-24.023 31.647 31.647 0 0 1 14.71-19.223 31.5 31.5 0 0 1 23.959-3.163Z" stroke="#000" stroke-width="12" stroke-linecap="round" stroke-linejoin="round"/></svg>