<svg xmlns="http://www.w3.org/2000/svg" width="192" height="192" fill="none"><path stroke="#000" stroke-linecap="round" stroke-linejoin="round" stroke-width="12" d="M126.497 49.465a31.73 31.73 0 0 1-3.154 24.023L80.917 147.17a31.6 31.6 0 0 1-19.172 14.75 31.5 31.5 0 0 1-23.958-3.163 31.65 31.65 0 0 1-14.711-19.223 31.73 31.73 0 0 1 3.154-24.023l42.427-73.683a31.58 31.58 0 0 1 19.171-14.75 31.5 31.5 0 0 1 23.959 3.162 31.65 31.65 0 0 1 14.71 19.224Z"/><path stroke="#000" stroke-linecap="round" stroke-linejoin="round" stroke-width="12" d="M104.172 27.079a31.6 31.6 0 0 1 19.171 14.75l42.427 73.683a31.73 31.73 0 0 1 3.154 24.023 31.65 31.65 0 0 1-14.711 19.224 31.5 31.5 0 0 1-23.958 3.162 31.6 31.6 0 0 1-19.172-14.75L68.657 73.488a31.73 31.73 0 0 1-3.154-24.023 31.65 31.65 0 0 1 14.71-19.223 31.5 31.5 0 0 1 23.959-3.163"/></svg>