<svg xmlns="http://www.w3.org/2000/svg" width="192" height="192" fill="none" stroke="#000" stroke-linecap="round" stroke-linejoin="round" viewBox="0 0 192 192"><path stroke-width="12" d="m74 132 26 38m70-38-26 38m-44 0s36.009-50.264 37.588-53A17.997 17.997 0 0 0 131 92.412 17.998 17.998 0 0 0 104 108c0 3.16.832 6.264 2.412 9 1.579 2.736 37.588 53 37.588 53M84.659 90.613A18 18 0 0 0 64.412 117c1.78 3.083 9.588 15 9.588 15"/><path stroke-width="10" d="M87 43H74m56 0h-13M74 65V27a6 6 0 0 1 6-6h7m30 44V27a6 6 0 0 1 6-6h7M87 43a11 11 0 1 0 0-22m43 22a11 11 0 0 0 0-22M49 53H27m-6 12 17-44m17 44L38 21"/></svg>