<svg xmlns="http://www.w3.org/2000/svg" width="192" height="192" fill="none" viewBox="0 0 192 192"><path stroke="#000" stroke-linecap="round" stroke-linejoin="round" stroke-miterlimit="6" stroke-width="10" d="M137.224 132.103a2.884 2.884 0 0 1 5.552 0l2.248 7.215c.391 1.253 1.512 2.102 2.776 2.102h7.276c2.827 0 4.003 3.773 1.715 5.506l-5.886 4.459c-1.023.775-1.451 2.149-1.06 3.403l2.248 7.214c.874 2.804-2.204 5.136-4.492 3.403l-5.885-4.459a2.824 2.824 0 0 0-3.432 0l-5.885 4.459c-2.288 1.733-5.366-.599-4.492-3.403l2.248-7.214c.391-1.254-.037-2.628-1.06-3.403l-5.886-4.459c-2.288-1.733-1.112-5.506 1.715-5.506h7.276c1.264 0 2.385-.849 2.776-2.102z"/><path stroke="#000" stroke-linecap="round" stroke-linejoin="round" stroke-width="12" d="M96 170s-62-26-62-66V54c0-3.314 2.698-5.977 6.003-6.217C74.51 45.28 96 22 96 22m0 148s4.987-2.091 12.132-6M96 22s21.49 23.28 55.997 25.783c3.305.24 6.003 2.903 6.003 6.217v50c0 4.518-.791 8.857-2.194 13"/><path stroke="#000" stroke-linecap="round" stroke-linejoin="round" stroke-width="12" d="M112 77a16 16 0 0 0-16-16 16 16 0 0 0-16 16m-7 12a6 6 0 0 1 6-6h34a6 6 0 0 1 6 6v30a6 6 0 0 1-6 6H79a6 6 0 0 1-6-6zm7-12v6m32-6v6"/></svg>