<svg xmlns="http://www.w3.org/2000/svg" width="192" height="192" fill="none"><path stroke="#000" stroke-linecap="round" stroke-linejoin="round" stroke-width="10" d="M70 86a6 6 0 0 1 6-6h40a6 6 0 0 1 6 6v20c0 11.046-8.954 20-20 20H90c-11.046 0-20-8.954-20-20zm26 14v8"/><path stroke="#000" stroke-linecap="round" stroke-linejoin="round" stroke-width="12" d="M96 22 39.538 47.408A6 6 0 0 0 36 52.879V104c0 42 52 66 60 66m0-148 56.462 25.408A6 6 0 0 1 156 52.879V104c0 42-52 66-60 66"/><path stroke="#000" stroke-linecap="round" stroke-linejoin="round" stroke-width="10" d="M116 80a20 20 0 0 0-20-20 20 20 0 0 0-20 20"/><circle cx="96" cy="100" r="4" stroke="#000" stroke-linecap="round" stroke-linejoin="round" stroke-width="8"/></svg>