<svg xmlns="http://www.w3.org/2000/svg" width="192" height="192" fill="none" viewBox="0 0 192 192"><path stroke="#000" stroke-width="12" d="m68 60 80-14M68 60v91m0-91V40.722a8 8 0 0 1 6.621-7.88l64-11.2c4.895-.857 9.379 2.91 9.379 7.88V135m-98.477.234-8.48 1.483A15.76 15.76 0 0 0 28 152.242c0 9.791 8.833 17.212 18.477 15.524l8.48-1.483A15.76 15.76 0 0 0 68 150.758c0-9.791-8.833-17.212-18.477-15.524zm80-16-8.479 1.483A15.76 15.76 0 0 0 108 136.242c0 9.791 8.833 17.212 18.477 15.524l8.479-1.483A15.76 15.76 0 0 0 148 134.758c0-9.791-8.833-17.212-18.477-15.524z"/></svg>