<svg id="Layer_1" data-name="Layer 1" xmlns="http://www.w3.org/2000/svg" viewBox="0 0 24 24">
  <path d="M5.59162,17.56292a7.22573,7.22573,0,0,1,1.35754-.37981c.35164-.07352.7045-.14213,1.05369-.21687a.8525.8525,0,0,0,.73513-.87481v-.18378q0-5.44.00245-10.88362a1.94935,1.94935,0,0,1,.05146-.45334.85032.85032,0,0,1,.669-.63466c.31243-.08086.631-.13722.94832-.20216.89809-.18378,1.79617-.36267,2.69549-.544l2.78124-.5636c.8209-.16418,1.6418-.33081,2.4627-.49376a7.4377,7.4377,0,0,1,.81354-.12988.604.604,0,0,1,.67877.59056,2.51806,2.51806,0,0,1,.01471.27322q.00367,3.51025,0,7.023l.00122.00368v6.99968a3.30058,3.30058,0,0,1-.299,1.47761,2.59489,2.59489,0,0,1-1.70061,1.39675,5.65382,5.65382,0,0,1-1.311.212,2.29237,2.29237,0,0,1-1.10883-4.35933,5.22673,5.22673,0,0,1,1.24728-.397c.46313-.10046.92871-.18745,1.3894-.29405a.75685.75685,0,0,0,.62486-.63221,1.10755,1.10755,0,0,0,.0245-.23647q0-3.33566-.00245-6.66887a.888.888,0,0,0-.03185-.22667.35229.35229,0,0,0-.37247-.2867,4.43415,4.43415,0,0,0-.582.08087q-1.39676.27567-2.7935.5587L10.408,8.43381c-.01961.00368-.03921.01225-.05882.01593a.55233.55233,0,0,0-.47783.60036c-.00245.05146,0,.10537,0,.15928q-.00367,4.782-.00368,9.56406a3.7564,3.7564,0,0,1-.26342,1.50334,2.609,2.609,0,0,1-1.757,1.5107,5.44314,5.44314,0,0,1-1.31712.21074,2.25451,2.25451,0,0,1-2.35242-1.89174A2.28658,2.28658,0,0,1,5.59162,17.56292Z"/>
</svg>
