<svg xmlns="http://www.w3.org/2000/svg" width="192" height="192" fill="none" viewBox="0 0 192 192"><path stroke="#000" stroke-linecap="round" stroke-linejoin="round" stroke-width="10" d="M34.18 42.903 26 35.71m43.92-2.388L73.41 23M96 81.082 89.355 56.27A31.74 31.74 0 0 0 74.58 37.002a31.7 31.7 0 0 0-43.323 11.614 31.74 31.74 0 0 0-3.169 24.08L30.58 82"/><path stroke="#000" stroke-linecap="round" stroke-linejoin="round" stroke-width="12" d="M119.276 92.409a6 6 0 0 0 4.07 1.591H170l-4.612 66.416a6 6 0 0 1-5.986 5.584H32.654a6 6 0 0 1-5.99-5.643L22 82h86z"/><path stroke="#000" stroke-linecap="round" stroke-linejoin="round" stroke-width="10" d="m162 92 4.73-22.073a6 6 0 0 0-.846-4.543 6 6 0 0 0-3.823-2.594l-42.484-8.654a6 6 0 0 0-7.005 4.374L107 80"/><path stroke="#000" stroke-linecap="round" stroke-linejoin="round" stroke-width="6" d="M47 65a3 3 0 1 0 0-6 3 3 0 0 0 0 6m21-5a3 3 0 1 0 0-6 3 3 0 0 0 0 6"/></svg>