<?xml version="1.0" encoding="utf-8"?>
	<svg version="1.1" xmlns="http://www.w3.org/2000/svg" xmlns:xlink="http://www.w3.org/1999/xlink" x="0px" y="0px" width="240.0" height="240.0" xml:space="preserve">
		<path d="M206.087,30L131.739,30C129.587,30 127.826,31.761 127.826,33.913L127.826,108.261C127.826,110.413 129.587,112.174 131.739,112.174L206.087,112.174C208.239,112.174 210,110.413 210,108.261L210,33.913C210,31.761 208.239,30 206.087,30ZM206.087,127.826L131.739,127.826C129.587,127.826 127.826,129.587 127.826,131.739L127.826,206.087C127.826,208.239 129.587,210 131.739,210L206.087,210C208.239,210 210,208.239 210,206.087L210,131.739C210,129.587 208.239,127.826 206.087,127.826ZM108.261,30L33.913,30C31.761,30 30,31.761 30,33.913L30,108.261C30,110.413 31.761,112.174 33.913,112.174L108.261,112.174C110.413,112.174 112.174,110.413 112.174,108.261L112.174,33.913C112.174,31.761 110.413,30 108.261,30ZM108.261,127.826L33.913,127.826C31.761,127.826 30,129.587 30,131.739L30,206.087C30,208.239 31.761,210 33.913,210L108.261,210C110.413,210 112.174,208.239 112.174,206.087L112.174,131.739C112.174,129.587 110.413,127.826 108.261,127.826Z" fill="#000" stroke="#00000000" stroke-width="1.0" stroke-miterlimit=""/>
	</svg>
