<svg xmlns="http://www.w3.org/2000/svg" width="192" height="192" fill="none"><path d="M-41 213.6c4.4 17-8.2 32.3-24.8 31.5-14.7-.7-26.5-14.1-22.8-31.2 12.3-6.1 35-5.9 47.6-.3m24 15.9c.2 0 .2.1.3.3C-6.4 240.5 2 255.5 2 276.3c0 20.5-8.6 35.6-18.9 46-4.3-18.9-15.5-30.9-32.7-36.8v-18.9c17.2-6 28.5-18 32.6-37.1m-62.6 37.1v18.9c-17.3 5.9-28.5 17.9-32.7 36.8-11.1-10.7-19.1-27.3-19.2-46.3 0-15.1 5.1-27.2 11.3-36.6 2.3-3.5 4.6-6.9 7.7-9.7 4.6 18.6 15.4 31 32.9 36.9m38.6 71.8c-12.7 5.6-34.7 5.6-47.3 0-4.6-17.9 9.1-32.8 25.6-31.5 14.3 1.2 25.9 14.9 21.7 31.5" class="st0" style="fill:none;stroke:#000;stroke-width:10.8289;stroke-linecap:round;stroke-linejoin:round;stroke-dasharray:none;stroke-opacity:1" transform="matrix(1.10858 0 0 1.1077 167.78 -209.84)"/></svg>