<svg width="192" height="192" viewBox="0 0 192 192" fill="none" xmlns="http://www.w3.org/2000/svg"><path d="M40 61s9.453-5.563 16-8c29.606-11.022 48.915 17.632 80 12 6.338-1.148 16-4 16-4" stroke="#000" stroke-width="10" stroke-linecap="round"/><path d="M43 148 36.349 27.33a6 6 0 0 1 5.99-6.33H149.66a6 6 0 0 1 5.991 6.33L149 148" stroke="#000" stroke-width="10" stroke-linecap="round"/><path d="M155.498 52a74.002 74.002 0 0 1-18.386 105.529A74 74 0 0 1 36.502 52" stroke="#000" stroke-width="12" stroke-linecap="round"/><path d="M58 92v28m18-28v28" stroke="#000" stroke-width="8" stroke-linecap="round"/><path d="M102 106c0 6-12 14-12 14" stroke="#000" stroke-width="8" stroke-linecap="round" stroke-linejoin="round"/><path d="M58 106h18" stroke="#000" stroke-width="8" stroke-linecap="round"/><path d="M90 120h12" stroke="#000" stroke-width="8" stroke-linecap="round" stroke-linejoin="round"/><path d="M116 101v10m18-10v10" stroke="#000" stroke-width="8" stroke-linecap="round"/><path d="M134 111a9.005 9.005 0 0 1-5.556 8.315 9.005 9.005 0 0 1-9.808-1.951A8.994 8.994 0 0 1 116 111m0-10a9.006 9.006 0 0 1 2.636-6.364 9.003 9.003 0 0 1 12.728 0A8.992 8.992 0 0 1 134 101m-43.196 2a5.997 5.997 0 0 1 6.749-2.796A6.005 6.005 0 0 1 102 106" stroke="#000" stroke-width="8" stroke-linecap="round" stroke-linejoin="round"/></svg>