<svg xmlns="http://www.w3.org/2000/svg" width="192" height="192" fill="none" stroke="#000" stroke-linecap="round" stroke-width="10" viewBox="0 0 192 192"><path d="M40 61s9.453-5.563 16-8c29.606-11.022 48.915 17.632 80 12 6.338-1.148 16-4 16-4"/><path d="M43 148 36.349 27.33a6 6 0 0 1 5.99-6.33H149.66a6 6 0 0 1 5.991 6.33L149 148"/><path stroke-width="12" d="M155.498 52a74 74 0 0 1-18.386 105.529A74 74 0 0 1 36.502 52"/><path stroke-width="8" d="M58 92v28m18-28v28m26-14c0 6-12 14-12 14m-32-14h18m14 14h12m14-19v10m18-10v10m0 0a8.994 8.994 0 0 1-18 0m0-10a8.992 8.992 0 0 1 18 0m-43.196 2A6.005 6.005 0 0 1 102 106"/></svg>