<svg xmlns="http://www.w3.org/2000/svg" width="192" height="192" fill="none"><path stroke="#000" stroke-linecap="round" stroke-linejoin="round" stroke-width="12" d="M50 90H30a6 6 0 0 0-6 6v68a6 6 0 0 0 6 6h132a6 6 0 0 0 6-6V96a6 6 0 0 0-6-6h-20"/><path stroke="#000" stroke-linecap="round" stroke-linejoin="round" stroke-width="12" d="M142 90.75V28a6 6 0 0 0-6-6H56a6 6 0 0 0-6 6v62.75a6 6 0 0 0 2.722 5.025l40 26.087a6 6 0 0 0 6.556 0l40-26.087A6 6 0 0 0 142 90.75"/><path stroke="#000" stroke-linecap="round" stroke-linejoin="round" stroke-width="10" d="M136 150H56m54-60s-7 3-12.995 3S82 90 82 80c0-15 24-18 24-18s-19 4-19-10c0-6 4-9.995 10.005-9.995C102 42.005 105 44 105 44"/></svg>