<svg width="192" height="192" fill="none" xmlns="http://www.w3.org/2000/svg"><path d="M50 90H30a6 6 0 0 0-6 6v68a6 6 0 0 0 6 6h132a6 6 0 0 0 6-6V96a6 6 0 0 0-6-6h-20" stroke="#000" stroke-width="12" stroke-linecap="round" stroke-linejoin="round"/><path d="M142 90.75V28a6 6 0 0 0-6-6H56a6 6 0 0 0-6 6v62.75a6 6 0 0 0 2.722 5.025l40 26.087a5.997 5.997 0 0 0 6.556 0l40-26.087A6 6 0 0 0 142 90.75Z" stroke="#000" stroke-width="12" stroke-linecap="round" stroke-linejoin="round"/><path d="M136 150H56m54-60s-7 3-12.995 3C91.01 93 82 90 82 80c0-15 24-18 24-18s-19 4-19-10c0-6 4-9.995 10.005-9.995C102 42.005 105 44 105 44" stroke="#000" stroke-width="10" stroke-linecap="round" stroke-linejoin="round"/></svg>