<?xml version="1.0" encoding="UTF-8" standalone="no"?>
<!-- Created with Inkscape (http://www.inkscape.org/) -->

<svg
   width="192"
   height="192"
   viewBox="0 0 50.799999 50.8"
   version="1.1"
   id="svg1"
   xml:space="preserve"
   inkscape:version="1.4.2 (ebf0e940d0, 2025-05-08)"
   sodipodi:docname="arcanechat.svg"
   xmlns:inkscape="http://www.inkscape.org/namespaces/inkscape"
   xmlns:sodipodi="http://sodipodi.sourceforge.net/DTD/sodipodi-0.dtd"
   xmlns="http://www.w3.org/2000/svg"
   xmlns:svg="http://www.w3.org/2000/svg"><sodipodi:namedview
     id="namedview1"
     pagecolor="#505050"
     bordercolor="#eeeeee"
     borderopacity="1"
     inkscape:showpageshadow="0"
     inkscape:pageopacity="0"
     inkscape:pagecheckerboard="0"
     inkscape:deskcolor="#505050"
     inkscape:document-units="mm"
     inkscape:zoom="4.1354167"
     inkscape:cx="96.120905"
     inkscape:cy="95.999999"
     inkscape:window-width="1908"
     inkscape:window-height="1023"
     inkscape:window-x="0"
     inkscape:window-y="0"
     inkscape:window-maximized="1"
     inkscape:current-layer="svg1"
     showguides="true"><inkscape:page
       x="0"
       y="0"
       width="50.799999"
       height="50.799999"
       id="page1"
       margin="0"
       bleed="0" /></sodipodi:namedview><defs
     id="defs1" /><path
     style="display:inline;fill:none;stroke:#000000;stroke-width:3.175;stroke-dasharray:none;stroke-opacity:1"
     d="m 12.950617,40.523628 c 1.052686,-1.062204 2.511177,-2.23595 3.241089,-2.608324 0.729913,-0.372374 2.14337,-0.889651 3.141017,-1.149504 1.062087,-0.276639 3.213205,-0.472463 5.189991,-0.472463 2.489406,0 3.916324,-0.16686 5.433056,-0.635331 1.195687,-0.369311 2.861225,-1.227393 3.977748,-2.049332 1.056431,-0.777699 2.368248,-2.020344 2.915149,-2.761432 0.546902,-0.741088 1.420521,-2.271669 1.941377,-3.40129 0.520856,-1.129621 1.206604,-3.333568 1.523885,-4.897659 0.317281,-1.564091 0.71656,-4.550085 0.887288,-6.63554 0.188271,-2.299758 0.200811,-4.786388 0.03187,-6.3195599 -0.153199,-1.390304 -0.286209,-2.739212 -0.29558,-2.997574 -0.0094,-0.258362 -0.503995,0.253341 -1.099165,1.137118 -0.59517,0.883777 -1.768238,2.211728 -2.606819,2.9510029 -0.83858,0.739274 -2.053567,1.614602 -2.699972,1.945173 -0.646403,0.33057 -1.991536,0.813645 -2.989183,1.0735 -0.997646,0.259853 -3.127837,0.472461 -4.733756,0.472461 -1.605918,0 -3.673348,0.158676 -4.594289,0.352612 -0.920941,0.193936 -2.453675,0.72715 -3.406075,1.184917 -0.952401,0.457769 -2.536683,1.634542 -3.520627,2.615053 -1.127787,1.123853 -2.213567,2.642043 -2.937758,4.107715 -0.681214,1.378692 -1.399237,3.546714 -1.764158,5.326759 -0.338464,1.650985 -0.7699453,4.708513 -0.9588473,6.794505 -0.244173,2.696337 -0.246443,4.566432 -0.0079,6.46926 0.184586,1.472101 0.338849,2.893563 0.342806,3.158805 0.0039,0.265241 0.2474113,-0.01541 0.5410093,-0.623668 0.293598,-0.608256 1.395104,-1.974999 2.447791,-3.037204 z"
     id="path12" /></svg>
