<svg width="192" height="192" viewBox="0 0 192 192" fill="none" xmlns="http://www.w3.org/2000/svg"><path d="M75 64s5 9 18 15m39 47c18 6 24 15 24 15" stroke="#000" stroke-width="10" stroke-linecap="round" stroke-linejoin="round"/><path d="M108.694 122.52c1.494 3.894 2.52 8.423 2.999 13.237.298 3.004.379 6.068.243 9.1C140.379 150.958 170 170 170 170L96 22 22 170s29.62-19.042 58.064-25.143a63.555 63.555 0 0 1 .243-9.1c.48-4.814 1.505-9.343 3-13.237 1.493-3.894 3.415-7.049 5.616-9.22 2.201-2.171 4.623-3.3 7.077-3.3 2.454 0 4.876 1.129 7.077 3.3 2.201 2.171 4.123 5.326 5.617 9.22Z" stroke="#000" stroke-width="12" stroke-linecap="round" stroke-linejoin="round"/></svg>