<?xml version="1.0" standalone="no"?>
<!DOCTYPE svg PUBLIC "-//W3C//DTD SVG 20010904//EN"
 "http://www.w3.org/TR/2001/REC-SVG-20010904/DTD/svg10.dtd">
<svg version="1.0" xmlns="http://www.w3.org/2000/svg"
 width="192" height="192" viewBox="0 0 192 192"
 preserveAspectRatio="xMidYMid meet">
<metadata>
Created by potrace 1.16, written by Peter Selinger 2001-2019
</metadata>
<g transform="translate(0.000000,256.000000) scale(0.100000,-0.100000)"
fill="#000000" stroke="none">
<path d="M0 1990 l0 -570 24 -6 c14 -3 29 -3 35 0 5 4 12 2 16 -4 3 -5 17 -10
30 -10 13 0 26 -4 29 -9 3 -4 21 -11 40 -14 19 -3 76 -22 126 -42 l91 -37 72
44 c107 64 130 75 171 86 34 10 38 9 48 -14 6 -13 19 -24 29 -24 10 0 23 -9
29 -20 6 -11 19 -20 29 -20 11 0 22 -7 25 -15 3 -9 23 -23 43 -31 21 -9 53
-28 72 -42 23 -17 36 -22 39 -14 2 7 15 12 29 12 20 0 57 31 159 136 124 126
133 137 127 165 -5 27 1 37 45 82 45 46 51 57 53 101 3 47 2 49 -36 69 -22 11
-60 26 -85 34 l-45 13 72 -5 c39 -3 78 -8 87 -11 10 -4 16 -1 16 7 1 18 35 42
82 59 21 8 41 22 44 32 3 10 11 18 17 16 20 -3 77 13 77 22 0 4 -9 6 -20 3
-11 -3 -20 -1 -20 3 0 13 218 96 267 102 27 3 49 0 58 -8 19 -16 19 -64 -1
-123 -16 -48 -37 -75 -26 -35 5 20 3 21 -10 11 -18 -15 -53 -91 -46 -99 3 -3
24 -6 47 -7 34 -1 40 -4 36 -18 -10 -30 9 -29 101 6 104 40 147 44 167 15 19
-27 10 -70 -48 -248 -68 -210 -115 -312 -144 -312 -11 0 -12 -15 -7 -77 7 -81
-7 -87 -20 -8 -6 39 -31 94 -48 106 -4 4 -29 7 -55 7 -42 1 -50 -3 -96 -47
-27 -27 -62 -51 -78 -55 -25 -6 -27 -5 -21 19 9 36 -9 32 -53 -13 -62 -61
-505 -515 -538 -551 l-30 -33 28 13 c15 7 27 18 27 26 0 7 3 13 8 13 7 0 42
31 169 150 24 22 47 40 53 40 5 0 16 -15 24 -34 8 -19 20 -38 28 -42 15 -10
38 -49 38 -64 0 -6 5 -16 10 -23 6 -7 25 -35 43 -62 l34 -50 -17 -40 c-10 -22
-40 -78 -69 -125 -50 -83 -60 -110 -42 -110 11 0 26 -65 34 -142 1 -9 5 -15 8
-12 10 6 21 -14 25 -40 1 -12 5 -34 10 -51 7 -27 6 -29 -9 -16 -10 7 -17 9
-17 3 0 -5 7 -16 17 -23 14 -12 -91 -15 -698 -19 -620 -5 -545 -6 569 -8
l1282 -2 0 1280 0 1280 -1280 0 -1280 0 0 -570z m899 181 c25 -5 54 -20 69
-35 24 -23 26 -31 24 -108 0 -46 -7 -105 -14 -133 -13 -50 -38 -75 -159 -157
-23 -16 -21 -16 52 -11 46 3 97 1 128 -7 57 -14 71 -36 17 -27 l-35 6 -12 -57
c-7 -31 -17 -63 -22 -69 -7 -10 -67 -13 -239 -13 -192 0 -230 2 -234 15 -3 8
3 43 13 77 l19 63 102 71 c57 39 117 83 134 97 16 15 34 27 39 27 16 0 47 61
42 81 -4 15 -14 19 -52 19 -58 0 -66 -5 -91 -63 l-21 -48 -77 3 c-89 3 -87 -1
-51 121 23 79 58 122 114 142 44 16 186 19 254 6z m395 -393 c8 -13 17 -33 21
-45 6 -22 4 -23 -45 -23 -49 0 -52 2 -66 35 -21 51 -18 55 31 55 35 0 47 -5
59 -22z m539 -534 c40 -21 47 -31 47 -73 0 -32 -1 -33 -32 -27 -17 3 -40 14
-50 23 -24 21 -24 93 -1 93 2 0 18 -7 36 -16z m-33 -291 c6 -21 13 -63 16 -93
8 -83 6 -81 64 -59 37 14 76 19 148 19 53 0 113 5 134 10 33 10 84 56 115 106
10 16 12 12 12 -31 0 -35 -5 -57 -18 -73 -30 -35 -119 -72 -175 -72 -27 0 -47
-3 -43 -6 3 -3 -7 -17 -24 -31 -35 -30 -30 -39 37 -78 l44 -26 0 -74 c0 -54
-4 -78 -16 -89 -20 -20 -44 -21 -44 -1 0 20 -15 19 -46 -2 -24 -15 -27 -15
-54 0 -34 21 -40 21 -40 3 0 -24 -19 -29 -45 -12 -21 14 -25 25 -25 62 l0 45
-54 -53 c-29 -30 -61 -71 -72 -93 -10 -21 -37 -58 -59 -82 -41 -42 -43 -43
-108 -43 -64 0 -97 14 -60 26 136 41 188 109 194 252 2 38 11 66 33 104 17 28
38 62 46 77 11 19 15 56 15 139 0 61 3 112 7 112 4 0 12 -17 18 -37z"/>
<path d="M1943 598 c-41 -25 -41 -41 -1 -69 l31 -23 36 20 c50 26 51 49 4 72
-37 19 -38 19 -70 0z"/>
<path d="M1415 1561 c-44 -41 -155 -155 -454 -464 -98 -101 -88 -116 13 -22
73 68 86 75 86 49 0 -8 5 -12 10 -9 6 3 10 2 10 -4 0 -5 31 -41 68 -79 l69
-70 145 148 c113 115 143 151 134 161 -9 10 -8 11 5 1 13 -9 23 -5 56 26 22
20 48 51 58 68 17 29 16 32 -3 75 -21 44 -122 154 -122 131 0 -7 -4 -12 -9
-12 -5 0 -7 8 -4 19 9 36 -13 29 -62 -18z"/>
<path d="M830 959 c0 -5 5 -7 10 -4 6 3 10 8 10 11 0 2 -4 4 -10 4 -5 0 -10
-5 -10 -11z"/>
</g>
</svg>
