<svg xmlns="http://www.w3.org/2000/svg" width="192" height="192" viewBox="0 0 50.8 50.8"><g fill="none" stroke="#000" stroke-linecap="round" stroke-linejoin="round" stroke-width="3.607" transform="matrix(.87958 0 0 .8809 3.059 3.025)"><path d="M25.4 19.844v11.112m0-16.668 9.525 6.35v9.525l-9.525 6.35-9.525-6.35v-9.525zm9.525 6.35 3.175-2.381m-12.7-7.938v3.969"/><circle cx="40.878" cy="15.875" r="3.572"/><circle cx="25.4" cy="6.747" r="3.572"/><g transform="matrix(-1 0 0 1 50.8 0)"><circle cx="40.878" cy="15.875" r="3.572"/><path d="m34.925 20.638 3.175-2.381"/></g><g transform="matrix(1 0 0 -1 0 50.8)"><circle cx="40.878" cy="15.875" r="3.572"/><path d="m34.925 20.638 3.175-2.381"/><g transform="matrix(-1 0 0 1 50.8 0)"><circle cx="40.878" cy="15.875" r="3.572"/><path d="m34.925 20.638 3.175-2.381"/></g></g><g transform="matrix(1 0 0 -1 0 50.8)"><circle cx="25.4" cy="6.747" r="3.572"/><path d="M25.4 10.319v3.969"/></g></g></svg>