<?xml version="1.0" encoding="UTF-8" standalone="no"?>
<!-- Created with Inkscape (http://www.inkscape.org/) -->

<svg
   width="192"
   height="192"
   viewBox="0 0 50.799999 50.8"
   version="1.1"
   id="svg5"
   xml:space="preserve"
   xmlns="http://www.w3.org/2000/svg"
   xmlns:svg="http://www.w3.org/2000/svg"><defs
     id="defs2" /><g
     id="layer2"
     style="stroke-width:1.00012;stroke-dasharray:none"><path
       style="fill:none;stroke:#000000;stroke-width:3.175;stroke-linecap:round;stroke-linejoin:round;stroke-dasharray:none"
       id="path428"
       d="m -34.997446,-10.809135 a 8.2540131,8.2540131 0 0 1 -11.253481,2.856978 8.2540131,8.2540131 0 0 1 -2.976927,-11.222346 8.2540131,8.2540131 0 0 1 11.189933,-3.096537"
       transform="rotate(-165)" /><path
       style="fill:none;stroke:#000000;stroke-width:2.11667;stroke-linecap:round;stroke-linejoin:round;stroke-dasharray:none"
       d="M 5.2916682,29.537218 8.036688,21.329887 h 0.7209144 l 2.6618386,8.124148"
       id="path1038" /><path
       style="fill:none;stroke:#000000;stroke-width:2.11667;stroke-linecap:round;stroke-linejoin:round;stroke-dasharray:none"
       d="M 6.0676066,27.217242 H 10.686565"
       id="path1040" /><path
       style="fill:none;stroke:#000000;stroke-width:2.11667;stroke-linecap:round;stroke-linejoin:round;stroke-dasharray:none"
       d="m 14.469462,29.50949 v -8.20733 h 2.661837 c 0,0 1.940923,-0.305002 1.940923,2.329109 0,0 0.249546,2.107286 -2.273652,2.107286 h -2.245926"
       id="path1042" /><path
       style="fill:none;stroke:#000000;stroke-width:2.11667;stroke-linecap:round;stroke-linejoin:round;stroke-dasharray:none"
       d="m 17.159025,25.821738 2.032921,3.638928"
       id="path1044" /><path
       style="fill:none;stroke:#000000;stroke-width:2.11667;stroke-linecap:round;stroke-linejoin:round;stroke-dasharray:none"
       d="M 24.451352,29.481764 H 22.510429 V 21.30216 h 1.96865 c 0,0 3.549117,-0.166365 3.549117,4.214575 0,0 0.360456,3.965029 -3.576844,3.965029 z"
       id="path1142" /><path
       style="fill:none;stroke:#000000;stroke-width:3.175;stroke-linecap:round;stroke-linejoin:round;stroke-dasharray:none"
       d="m 33.234624,24.295634 5.270328,-1.970838 v 4.716723 l -3.055904,1.195787 v -4.783154 z"
       id="path1167" /></g></svg>
