<?xml version="1.0" encoding="UTF-8" ?>
<!DOCTYPE svg PUBLIC "-//W3C//DTD SVG 1.1//EN" "http://www.w3.org/Graphics/SVG/1.1/DTD/svg11.dtd">
<svg width="144pt" height="144pt" viewBox="0 0 144 144" version="1.1" xmlns="http://www.w3.org/2000/svg">
<g id="#000000ff">
<path fill="#000000" opacity="1.00" d=" M 67.50 13.50 C 70.83 13.50 74.17 13.50 77.50 13.50 C 77.50 29.50 77.50 45.50 77.50 61.50 C 74.17 61.50 70.83 61.50 67.50 61.50 C 67.50 45.50 67.50 29.50 67.50 13.50 Z" />
<path fill="#000000" opacity="1.00" d=" M 34.75 62.86 C 34.17 61.58 35.58 59.97 36.90 60.10 C 40.59 59.90 44.32 59.82 48.01 60.17 C 49.56 60.58 49.71 62.43 50.36 63.63 C 52.04 68.62 53.86 73.57 55.60 78.54 C 65.26 78.53 74.93 78.53 84.59 78.54 C 86.32 73.62 88.11 68.72 89.79 63.78 C 90.38 62.53 90.60 60.77 92.04 60.18 C 95.72 59.83 99.43 59.92 103.11 60.06 C 104.52 59.91 106.04 61.31 105.60 62.76 C 105.13 65.06 104.10 67.20 103.27 69.38 C 95.84 88.93 88.43 108.48 80.99 128.03 C 79.84 130.91 79.01 133.94 77.50 136.67 C 76.38 137.88 74.50 137.35 73.05 137.57 C 69.71 137.40 66.22 138.02 62.99 137.02 C 61.30 134.12 60.45 130.86 59.20 127.78 C 51.77 108.22 44.35 88.65 36.92 69.09 C 36.14 67.04 35.18 65.03 34.75 62.86 M 60.45 91.67 C 63.68 100.50 66.90 109.34 70.16 118.16 C 73.39 109.33 76.61 100.50 79.84 91.67 C 73.38 91.66 66.91 91.67 60.45 91.67 Z" />
</g>
</svg>
