<svg xmlns="http://www.w3.org/2000/svg" width="192" height="192" fill="none"><path stroke="#000" stroke-linecap="round" stroke-linejoin="round" stroke-width="12" d="M54.077 170s4.01-6.004 9.023-7.005c5.012-1 25.064 2.002 25.064 2.002 43.333.94 54.801-25.508 79.316-45.308 2.625-2.12 3.158-5.934 1.791-9.016-2.463-5.556-2.533-10.344-7.921-15.722-7.018-7.004-6.015-25.516-26.066-35.022-19.596-9.29-32.489-17.625-57.396-36.68a6.06 6.06 0 0 0-3.956-1.243l-37 1.718a6.01 6.01 0 0 0-5.327 3.821l-4.227 10.848a6 6 0 0 0 1.218 6.283l9.595 10.215c1.716 1.826 4.373 2.339 6.776 1.622 8.405-2.507 10.514.608 20.749-4.396.255-.125.526-.241.8-.319 9.032-3.546 22.74 10.34 28.665 22.14s7.018 26.017 37.095 35.023c-50.128-13.009-52.133 6.003-52.133 6.003M24 108.46c39.1-16.51 70.179 20.013 70.179 20.013"/></svg>