<svg xmlns="http://www.w3.org/2000/svg" width="192" height="192" fill="none" stroke="#000" stroke-linecap="round" stroke-width="12" viewBox="0 0 192 192"><path d="M67.9 125.6c.3-24.3 1.5-40.9 2.8-62.6"/><path d="M69.7 63C61 81 52.2 99.1 43.5 117.1c-3.6 7-10.3 10.2-15.4 8.5-2.7-.9-5.5-3.3-6-6.4-.8-4.8 3.8-10.8 11.9-12.6 25.8.2 51.5.5 77.3.7 6.7.7 12.1-4.8 11.9-10.5-.2-5.2-5.2-9.9-11.4-9.6-9.3-.1-18.5-.1-27.8-.2"/><path d="M95.7 96c-2.3 9.2-4.7 18.4-7 27.6m20.3-8.7c1.1 7.3 6.8 13 13.9 14 6.5.9 13-2.3 16.4-8.1 3.1-7.7 6.3-15.4 9.4-23.2"/><path d="M132.5 86c8.4.1 16.8.1 25.3.2 6.7-.2 12.1 5 12.2 10.9.1 6.3-5.9 12.1-13.1 11.3"/></svg>