<svg xmlns="http://www.w3.org/2000/svg" xml:space="preserve" width="192" height="192" viewBox="0 0 50.8 50.8"><path d="M27.649 39.248a5.66 5.66 0 0 1-1.717 3.408 5.66 5.66 0 0 1-3.501 1.518 5.65 5.65 0 0 1-3.42-.909 5.65 5.65 0 0 1-2.193-2.776M37.855 18.99c2.486 2.848 3.604 6.84 2.96 10.566a12.9 12.9 0 0 1-4.493 7.7M32.023 24.67a11.96 11.96 0 0 1-3.874 6.53 11.96 11.96 0 0 1-7.041 2.842c-3.44.2-6.94-1.19-9.307-3.694s-3.556-6.077-3.163-9.5m38.519-3.922a10.93 10.93 0 0 0-5.022-5.951 10.93 10.93 0 0 0-7.717-1.033 10.9 10.9 0 0 0-5.906 3.74 10.9 10.9 0 0 0-2.382 6.572" style="fill:none;fill-opacity:1;stroke:#000;stroke-width:3.129;stroke-linecap:round;stroke-linejoin:round;stroke-dasharray:none;stroke-opacity:1;paint-order:stroke fill markers" transform="matrix(1.01463 0 0 1.01477 -2.868 -1.913)"/></svg>