<svg xmlns="http://www.w3.org/2000/svg" width="192" height="192" viewBox="0 0 192 192"><path fill="none" stroke="#000" stroke-width="12" d="M141 106c8.008 0 15.258 3.246 20.506 8.494C166.754 119.742 170 126.992 170 135c0 8.008-3.246 15.258-8.494 20.506C156.258 160.754 149.008 164 141 164c-8.008 0-15.258-3.246-20.506-8.494C115.246 150.258 112 143.008 112 135c0-8.008 3.246-15.258 8.494-20.506C125.742 109.246 132.992 106 141 106zm-90 0c8.008 0 15.258 3.246 20.506 8.493C76.754 119.741 80 126.991 80 135c0 8.008-3.246 15.259-8.494 20.507C66.258 160.754 59.007 164 50.999 164c-8.008 0-15.257-3.246-20.505-8.494C25.246 150.258 22 143.007 22 134.999c0-8.009 3.246-15.258 8.493-20.506C35.741 109.246 42.991 106 51 106zm44-78c8.008 0 15.258 3.246 20.506 8.494A28.901 28.901 0 0 1 124 56.998c0 8.009-3.246 15.26-8.494 20.508C110.258 82.754 103.009 86 95.001 86c-8.009 0-15.259-3.246-20.507-8.494C69.246 72.257 66 65.006 66 56.998c0-8.007 3.246-15.257 8.494-20.504C79.742 31.246 86.992 28 95.001 28z"/></svg>