<svg width="192" height="192" viewBox="0 0 192 192" fill="none" xmlns="http://www.w3.org/2000/svg"><path d="M55.721 170H30.414c-4.121 0-7.015-4.059-5.673-7.955l46.865-136A6 6 0 0 1 77.279 22h37.442a6 6 0 0 1 5.673 4.045l46.865 136c1.342 3.896-1.552 7.955-5.673 7.955h-25.307a6 6 0 0 1-5.673-4.045l-4.793-13.91A6 6 0 0 0 120.14 148H71.86a6 6 0 0 0-5.673 4.045l-4.793 13.91A6 6 0 0 1 55.721 170Z" stroke="#000" stroke-width="12" stroke-linecap="round" stroke-linejoin="round"/><path d="m96 70 7.759 13.321 15.066 3.263-10.271 11.495 1.553 15.337L96 107.2l-14.107 6.216 1.553-15.337-10.271-11.495L88.24 83.32 96 70Z" stroke="#000" stroke-width="10" stroke-linecap="round" stroke-linejoin="round"/></svg>