<svg xmlns="http://www.w3.org/2000/svg" width="192" height="192" fill="none" viewBox="0 0 192 192"><path stroke="#000" stroke-linecap="round" stroke-linejoin="round" stroke-width="12" d="M40 68V28a6 6 0 0 1 6-6h52.033M152 100.204v36.204a6 6 0 0 1-3.167 5.288L96 170l-29.728-15.926a6 6 0 0 1-2.055-8.768l80.524-113.11C147 29.023 152 30.62 152 34.516v26.566a6 6 0 0 1-1.112 3.48L81.521 162M98.032 22l-56.95 81.451A6 6 0 0 0 40 106.89v25.408c0 3.912 5.037 5.499 7.278 2.293L123.8 25.146c.927-1.326-.021-3.146-1.639-3.146z"/></svg>