<svg xmlns="http://www.w3.org/2000/svg" width="192" height="192" fill-rule="evenodd" viewBox="0 0 192 192"><path d="M33 28.072C33 21.405 38.373 16 45 16h101a12 12.072 0 0 1 12 12.072v106.185c0 4.291-2.264 8.26-5.948 10.424l-50.5 29.671a11.938 11.938 0 0 1-12.104 0l-50.5-29.671A12.086 12.086 0 0 1 33 134.257V28.072zm113 6a6 6 0 0 0-6-6H51a6 6 0 0 0-6 6v96.751a5.998 5.998 0 0 0 2.96 5.173l47.54 27.932 47.54-27.932a5.998 5.998 0 0 0 2.96-5.173V34.072z"/><path d="M138 44.131a6 6 0 0 0-6-6H59a6 6 0 0 0-6 6v39.603a6 6 0 0 0 6 6h67v30.039l-30.5 17.993L65 119.773v-16.309c0-3.333-2.686-6.035-6-6.035s-6 2.702-6 6.035v16.309c0 4.283 2.257 8.246 5.93 10.413l30.5 17.993a11.935 11.935 0 0 0 12.14 0l30.501-17.993A12.086 12.086 0 0 0 138 119.773V44.131zm-12 33.532v-27.46H65v27.46h61z"/></svg>