<svg width="192" height="192" viewBox="0 0 192 192" fill="none" xmlns="http://www.w3.org/2000/svg"><path d="M39 28a6 6 0 0 1 6-6h102a6 6 0 0 1 6 6v106.488a5.999 5.999 0 0 1-3.063 5.231L96 170l-53.937-30.281A6 6 0 0 1 39 134.488V28Z" stroke="#000" stroke-width="12" stroke-linecap="round" stroke-linejoin="round"/><path d="M61 104v14.518a6.002 6.002 0 0 0 3.023 5.21L96 142l31.977-18.272a6.003 6.003 0 0 0 3.023-5.21V53a6 6 0 0 0-6-6H67a6 6 0 0 0-6 6v24a6 6 0 0 0 6 6h64" stroke="#000" stroke-width="12" stroke-linecap="round" stroke-linejoin="round"/></svg>