<svg width="192" height="192" viewBox="0 0 192 192" fill="none" xmlns="http://www.w3.org/2000/svg"><path d="m61 155 35-19 36.5 19M50 121.75l-9 6.505m101-6.505 9 6.505" stroke="#000" stroke-width="12" stroke-linecap="round" stroke-linejoin="round"/><path d="M147.095 81.5a58.993 58.993 0 0 1 .001 59A59.005 59.005 0 0 1 66.5 162.096 59.007 59.007 0 0 1 37 111a59 59 0 0 1 7.904-29.5" stroke="#000" stroke-width="12" stroke-linecap="round" stroke-linejoin="round"/><path d="m96 22 10.777 33.167h34.874l-28.214 20.499 10.777 33.167L96 88.334l-28.214 20.499 10.777-33.167-28.214-20.499h34.874L96 22Z" stroke="#000" stroke-width="12" stroke-linecap="round" stroke-linejoin="round"/></svg>