<svg xmlns="http://www.w3.org/2000/svg" width="192" height="192" fill="none" viewBox="0 0 192 192"><path stroke="#000" stroke-linecap="round" stroke-linejoin="round" stroke-width="10" d="M87 160v5a6 6 0 0 0 6 6h6a6 6 0 0 0 6-6v-5"/><path stroke="#000" stroke-linecap="round" stroke-linejoin="round" stroke-width="12" d="M37 73c0 39 59 71 59 71m59-71c0 39-59 71-59 71"/><path stroke="#000" stroke-linecap="round" stroke-linejoin="round" stroke-width="10" d="M96 23v121M88 22c-52 50 2 119 2 119m14-119c52 50-2 119-2 119"/><path stroke="#000" stroke-linecap="round" stroke-linejoin="round" stroke-width="12" d="M155 73c0-13.526-6.216-26.498-17.281-36.062C126.655 27.373 111.648 22 96 22s-30.655 5.373-41.72 14.938C43.217 46.502 37 59.474 37 73"/></svg>