<svg width="192" height="192" viewBox="0 0 192 192" fill="none" xmlns="http://www.w3.org/2000/svg"><path d="M136 87v23m28 0H28a6 6 0 0 0-6 6v40a6 6 0 0 0 6 6h136a6 6 0 0 0 6-6v-40a6 6 0 0 0-6-6Z" stroke="#000" stroke-width="12" stroke-linecap="round" stroke-linejoin="round"/><path d="M136 136h10m-38 0h10m-38 0h10" stroke="#000" stroke-width="10" stroke-linecap="round" stroke-linejoin="round"/><circle cx="51" cy="136" r="5" stroke="#000" stroke-width="10" stroke-linejoin="round"/><path d="M108 37s12-10 28-10 28 10 28 10m-48 18s8.571-8 20-8 20 8 20 8m-32 16s5.143-4 12-4 12 4 12 4" stroke="#000" stroke-width="10" stroke-linecap="round" stroke-linejoin="round"/></svg>