<svg xmlns="http://www.w3.org/2000/svg" width="192" height="192" fill="none" viewBox="0 0 192 192"><path stroke="#000" stroke-linecap="round" stroke-linejoin="round" stroke-width="12" d="M136 87v23m28 0H28a6 6 0 0 0-6 6v40a6 6 0 0 0 6 6h136a6 6 0 0 0 6-6v-40a6 6 0 0 0-6-6Z"/><path stroke="#000" stroke-linecap="round" stroke-linejoin="round" stroke-width="10" d="M136 136h10m-38 0h10m-38 0h10"/><circle cx="51" cy="136" r="5" stroke="#000" stroke-linejoin="round" stroke-width="10"/><path stroke="#000" stroke-linecap="round" stroke-linejoin="round" stroke-width="10" d="M108 37s12-10 28-10 28 10 28 10m-48 18s8.571-8 20-8 20 8 20 8m-32 16s5.143-4 12-4 12 4 12 4"/></svg>