<svg width="192" height="192" viewBox="0 0 192 192" fill="none" xmlns="http://www.w3.org/2000/svg"><path d="M71 73h50m-50 64h50M96 73v64" stroke="#000" stroke-width="10" stroke-linecap="round" stroke-linejoin="round"/><path d="M96 22c-28.719 0-52 23.281-52 52 0 19.657 10.907 36.767 27 45.607V155a6 6 0 0 0 6 6h38a6 6 0 0 0 6-6v-35.393c16.093-8.84 27-25.95 27-45.607 0-28.719-23.281-52-52-52Z" stroke="#000" stroke-width="12" stroke-linecap="round" stroke-linejoin="round"/><path d="M96 22c-28.719 0-52 23.281-52 52 0 19.657 10.907 36.767 27 45.607V155a6 6 0 0 0 6 6h38a6 6 0 0 0 6-6v-35.393c16.093-8.84 27-25.95 27-45.607 0-28.719-23.281-52-52-52Z" stroke="#000" stroke-width="12" stroke-linecap="round" stroke-linejoin="round"/><ellipse cx="96" cy="166" rx="7" ry="5" stroke="#000" stroke-width="10" stroke-linecap="round" stroke-linejoin="round"/></svg>