<svg width="192" height="192" viewBox="0 0 192 192" fill="none" xmlns="http://www.w3.org/2000/svg"><path d="M136 32v-4a6 6 0 0 0-6-6H46a6 6 0 0 0-6 6v136a6 6 0 0 0 6 6h84a6 6 0 0 0 6-6v-4M81 45h14" stroke="#000" stroke-width="12" stroke-linecap="round" stroke-linejoin="round"/><path d="M59 101h8l9 22 12-44 9 22h8" stroke="#000" stroke-width="10" stroke-linecap="round" stroke-linejoin="round"/><circle cx="136" cy="133" r="5" stroke="#000" stroke-width="10"/><path d="M116 78a20.002 20.002 0 0 1 20-20 20.005 20.005 0 0 1 18.478 12.346A20.002 20.002 0 0 1 156 78c0 14-20 17.5-20 30" stroke="#000" stroke-width="14" stroke-linecap="round" stroke-linejoin="round"/></svg>