<svg width="192" height="192" viewBox="0 0 192 192" fill="none" xmlns="http://www.w3.org/2000/svg"><path d="M61 114V72h64a6 6 0 0 1 6 6v42H67a6 6 0 0 1-6-6Zm11-89h48m-26 0 20 24-20 23m4 48-20 23 20 24m-26 0h48M73 25a48 48 0 0 0-48 48m36-1a36.001 36.001 0 0 0-36 36m106 12a36.004 36.004 0 0 0 25.456-10.544A36.003 36.003 0 0 0 167 84M25 73v46m142-46v46m-142 0a48.005 48.005 0 0 0 29.631 44.346A48.005 48.005 0 0 0 73 167m94-94a48.004 48.004 0 0 0-29.631-44.346A48.005 48.005 0 0 0 119 25m0 142a48.008 48.008 0 0 0 33.941-14.059A48.003 48.003 0 0 0 167 119" stroke="#000" stroke-width="12" stroke-linecap="round" stroke-linejoin="round"/></svg>