<svg width="192" height="192" viewBox="0 0 192 192" fill="none" xmlns="http://www.w3.org/2000/svg"><path d="M61 114V72h64a6 6 0 0 1 6 6v42H67a6 6 0 0 1-6-6Zm33-89 20 24-20 23m4 48-20 23 20 24M61 72a36.001 36.001 0 0 0-36 36m106 12a36.004 36.004 0 0 0 25.456-10.544A36.003 36.003 0 0 0 167 84" stroke="#000" stroke-width="12" stroke-linecap="round" stroke-linejoin="round"/><rect x="25" y="25" width="142" height="142" rx="32" stroke="#000" stroke-width="12" stroke-linecap="round" stroke-linejoin="round"/></svg>