<svg width="192" height="192" viewBox="0 0 192 192" fill="none" xmlns="http://www.w3.org/2000/svg"><path d="M63.873 71.039h34.654l13.717-20.937L98.527 27h-36.82C43.658 27 22 44.327 22 65.263v36.098m41.873-30.322c-5.053 0-8.663 2.166-8.663 7.942v35.375c0 6.498 8.663 7.942 15.883 7.942v43.317c-25.99 0-49.093-21.659-49.093-40.43v-23.824m41.873-30.322c-21.658 0-35.375 9.385-41.873 30.322M128.127 121.576H93.473l-13.717 20.936 13.717 23.103h36.82c18.048 0 39.707-17.327 39.707-38.264V91.254m-41.873 30.322c5.053 0 8.663-2.166 8.663-7.942V78.258c0-6.497-8.663-7.94-15.883-7.94V27C146.898 27 170 48.658 170 67.43v23.824m-41.873 30.322c21.658 0 35.375-9.386 41.873-30.322" stroke="#000" stroke-width="12" stroke-linecap="round" stroke-linejoin="round"/></svg>