<svg xmlns="http://www.w3.org/2000/svg" width="192" height="192" fill="none"><path stroke="#000" stroke-linecap="round" stroke-linejoin="round" stroke-width="12" d="M40 121.436C40 74.511 93.973 78.511 84.81 22c0 0 42.758 20.183 34.613 73.667 0 0 7.127-13.12 16.289-20.183 0 0 16.288 17.608 16.288 46.925 0 16.276-11.607 41.373-42.916 47.539 3.036-4.947 5.249-11.165 5.249-18.779 0-24.219-24.432-14.128-24.432-54.493 0 0-22.397 14.128-22.397 41.374 0 12.59 5.434 23.671 11.28 31.95C48.242 164.173 40 136.796 40 121.436"/></svg>