<svg xmlns="http://www.w3.org/2000/svg" width="192" height="192" fill="none" stroke="#000" stroke-width="10" viewBox="0 0 192 192"><path d="M61.342 110.853c0-6.986 5.748-12.734 12.734-12.734s12.733 5.748 12.733 12.734-5.748 12.733-12.733 12.733-12.734-5.748-12.734-12.733Zm50.06 6.524c2.41 4.731 8.286 6.64 13.016 4.229s6.64-8.286 4.229-13.016M89.665 74.716c-2.41-4.73-.501-10.606 4.23-13.016 4.73-2.41 10.606-.501 13.016 4.23m-17.246 8.786 21.737 42.661m-4.491-51.448 21.736 42.661"/><path d="M21 96c0-41.125 33.875-75 75-75s75 33.875 75 75-33.875 75-75 75-75-33.875-75-75Z"/></svg>