<?xml version="1.0" standalone="no"?>
<!DOCTYPE svg PUBLIC "-//W3C//DTD SVG 20010904//EN"
 "http://www.w3.org/TR/2001/REC-SVG-20010904/DTD/svg10.dtd">
<svg version="1.0" xmlns="http://www.w3.org/2000/svg"
 width="192.000000pt" height="192.000000pt" viewBox="0 0 192.000000 192.000000"
 preserveAspectRatio="xMidYMid meet">

<g transform="translate(0.000000,192.000000) scale(0.100000,-0.100000)"
fill="#000000" stroke="none">
<path d="M891 1740 c-98 -21 -189 -86 -233 -166 -15 -27 -118 -265 -229 -529
-201 -478 -202 -480 -203 -555 0 -60 5 -86 26 -131 67 -146 233 -216 388 -164
60 20 132 82 167 143 56 100 111 132 188 111 46 -13 80 -47 117 -117 91 -171
348 -202 491 -59 61 61 82 116 81 217 l0 85 -171 402 c-95 221 -191 448 -214
505 -70 169 -168 250 -319 263 -25 2 -65 0 -89 -5z m146 -151 c68 -25 86 -58
244 -428 83 -196 178 -419 211 -495 52 -121 60 -145 56 -186 -10 -103 -90
-169 -191 -157 -65 8 -108 42 -148 118 -58 108 -159 165 -275 156 -111 -8
-186 -62 -247 -176 -58 -108 -180 -133 -267 -54 -39 34 -60 81 -60 132 0 20
48 138 225 556 23 55 77 181 119 281 99 233 126 262 248 263 31 1 69 -4 85
-10z"/>
</g>
</svg>
