<svg xmlns="http://www.w3.org/2000/svg" width="192" height="192" fill="none" stroke="#000" stroke-linecap="round" stroke-width="10" viewBox="0 0 192 192"><path d="M95 72v32s0 8 8 8M77 90.182S77 82 65 82c-5 0-12 4-12 4m24 4.182c-1.167 2.121-5 6.818-13 7.272-8 .546-11 4.091-11 7.728C53 117 77 112 77 101.091m0-10.91v10.91M77 112v-10.909M102 81H88"/><path d="M165.038 125.305a74.996 74.996 0 0 0-33.366-95.279 75 75 0 0 0-97.996 24.252m-7.153 16.071a75 75 0 0 0-4.494 27.745m2.527 17.317a75 75 0 0 0 12.233 25.306m12.505 13.155a75.007 75.007 0 0 0 24.654 13.498m18.473 3.49a75.017 75.017 0 0 0 27.88-3.571m16.221-7.547a74.99 74.99 0 0 0 20.689-19.025"/><ellipse cx="128" cy="97" rx="14" ry="15"/></svg>