<svg xmlns="http://www.w3.org/2000/svg" width="192" height="192" fill="none"><path stroke="#000" stroke-linecap="round" stroke-linejoin="round" stroke-width="12" d="M66.876 96 29.82 133a6.2 6.2 0 0 0 0 8.78l26.44 26.402a6.225 6.225 0 0 0 8.793 0l13.22-13.201M66.877 96 29.82 59a6.2 6.2 0 0 1 0-8.78l26.44-26.402a6.224 6.224 0 0 1 8.793 0l13.22 13.201M66.877 96l17.616 17.591m0 0 13.22-13.201a6.203 6.203 0 0 0 0-8.78L65.054 59a6.2 6.2 0 0 1 0-8.78l13.22-13.2m6.218 76.571L65.054 133a6.2 6.2 0 0 0 0 8.78l13.22 13.201m0-117.962 13.22-13.2a6.225 6.225 0 0 1 8.794 0l67.891 67.79a6.2 6.2 0 0 1 0 8.781l-67.891 67.792a6.226 6.226 0 0 1-8.793 0l-13.22-13.201"/></svg>