<svg xmlns="http://www.w3.org/2000/svg" width="192" height="192" fill="none"><path stroke="#000" stroke-linecap="round" stroke-linejoin="round" stroke-width="10" d="M82.372 72.395A233 233 0 0 0 75.215 84a233 233 0 0 0-6.471 12C53.062 127.263 48.31 155.07 58.5 160.952c7.822 4.516 22.432-5.054 37.5-22.961 15.068 17.907 29.678 27.477 37.5 22.961 10.189-5.883 5.438-33.689-10.244-64.952a232 232 0 0 0-6.471-12 232 232 0 0 0-7.157-11.605m-27.256 0c19.233-29.211 40.939-47.23 51.128-41.347 7.822 4.517 6.839 21.954-1.135 43.957m-49.993-2.61c-8.11.477-15.765 1.37-22.737 2.61m49.993-2.61C90.395 43.184 68.689 25.166 58.5 31.048c-7.822 4.517-6.839 21.954 1.135 43.957m49.993-2.61c8.111.477 15.765 1.37 22.737 2.61m-72.73 0C36.593 79.101 21 86.968 21 96c0 11.766 26.457 21.554 61.372 23.605 4.42.26 8.974.395 13.628.395s9.209-.135 13.628-.395C144.543 117.554 171 107.766 171 96c0-9.032-15.593-16.9-38.635-20.995"/><circle cx="31" cy="108" r="5" stroke="#000" stroke-linecap="round" stroke-linejoin="round" stroke-width="10"/><circle cx="114" cy="36" r="5" stroke="#000" stroke-linecap="round" stroke-linejoin="round" stroke-width="10"/><path stroke="#000" stroke-linecap="round" stroke-linejoin="round" stroke-width="10" d="M75 86s9 2 21 2 21-2 21-2"/></svg>