<svg width="192" height="192" viewBox="0 0 192 192" fill="none" xmlns="http://www.w3.org/2000/svg"><path d="M22 58.485a6 6 0 0 1 1.757-4.242l30.486-30.486A6 6 0 0 1 58.485 22h75.03a6 6 0 0 1 4.242 1.757l30.486 30.486A6 6 0 0 1 170 58.485V164a6 6 0 0 1-6 6h-22a6 6 0 0 1-6-6v-22a6 6 0 0 0-6-6H62a6 6 0 0 0-6 6v22a6 6 0 0 1-6 6H28a6 6 0 0 1-6-6V58.485Z" stroke="#000" stroke-width="12" stroke-linecap="round" stroke-linejoin="round"/><path d="M130 94H62a6 6 0 0 1-6-6V66a6 6 0 0 1 6-6h68a6 6 0 0 1 6 6v22a6 6 0 0 1-6 6Z" stroke="#000" stroke-width="12" stroke-linecap="round" stroke-linejoin="round"/></svg>