<?xml version="1.0" standalone="no"?>
<!DOCTYPE svg PUBLIC "-//W3C//DTD SVG 20010904//EN"
 "http://www.w3.org/TR/2001/REC-SVG-20010904/DTD/svg10.dtd">
<svg version="1.0" xmlns="http://www.w3.org/2000/svg"
 width="192" height="192" viewBox="0 0 192 192"
 preserveAspectRatio="xMidYMid meet">
<metadata>
Created by potrace 1.16, written by Peter Selinger 2001-2019
</metadata>
<g transform="translate(0.000000,512.000000) scale(0.100000,-0.100000)"
fill="#000000" stroke="none">
<path d="M0 4100 l0 -1021 27 3 c24 3 28 -1 28 -24 1 -15 9 -36 19 -47 10 -11
15 -25 11 -32 -6 -8 -13 -5 -25 11 -10 13 -27 24 -39 25 -18 1 -21 -4 -21 -41
0 -32 4 -42 13 -38 7 2 22 -5 32 -16 24 -26 6 -52 -23 -33 -16 9 -18 7 -19
-25 -1 -23 5 -41 15 -48 16 -12 16 -13 -1 -19 -16 -7 -17 -38 -17 -470 0 -437
1 -463 19 -479 11 -10 16 -25 14 -40 -3 -13 0 -33 6 -45 10 -17 9 -20 -4 -15
-8 4 -17 16 -20 28 -2 11 -6 30 -8 41 -3 11 -5 -55 -6 -147 l-1 -166 45 -17
c53 -21 84 -50 68 -66 -8 -8 -14 -6 -22 9 -9 17 -58 42 -82 42 -5 0 -9 -15 -9
-34 l0 -33 128 -48 c126 -47 338 -140 356 -156 22 -20 -19 -7 -116 37 -106 48
-120 53 -275 109 l-93 33 0 -32 c0 -31 1 -32 91 -59 118 -36 329 -119 329
-129 0 -14 -26 -9 -86 18 -59 26 -310 114 -325 114 -5 0 -9 -282 -9 -645 l0
-645 2095 0 2094 0 -54 76 c-30 42 -55 80 -55 85 0 11 44 11 156 3 l80 -7 28
-48 c15 -27 25 -53 22 -57 -2 -4 0 -14 6 -22 8 -12 9 -12 4 3 -3 11 -2 16 4
12 14 -9 12 -32 -2 -38 -7 -3 65 -6 161 -6 l173 -1 -8 48 c-12 70 -11 195 2
199 13 4 22 -39 31 -159 l6 -88 188 0 189 0 0 2560 0 2560 -2560 0 -2560 0 0
-1020z m2889 906 c8 -10 8 -16 -2 -24 -17 -14 -42 2 -34 22 8 20 21 20 36 2z
m-2256 -2 c9 -10 -4 -34 -18 -34 -17 0 -28 17 -20 30 7 11 28 13 38 4z m2187
-25 c0 -5 -4 -9 -10 -9 -5 0 -10 7 -10 16 0 8 5 12 10 9 6 -3 10 -10 10 -16z
m90 -9 c0 -5 -4 -10 -10 -10 -5 0 -10 5 -10 10 0 6 5 10 10 10 6 0 10 -4 10
-10z m-1630 -4 c0 -3 -4 -8 -10 -11 -5 -3 -10 -1 -10 4 0 6 5 11 10 11 6 0 10
-2 10 -4z m1440 -10 c0 -3 -4 -8 -10 -11 -5 -3 -10 -1 -10 4 0 6 5 11 10 11 6
0 10 -2 10 -4z m-820 -36 c0 -5 -4 -10 -10 -10 -5 0 -10 5 -10 10 0 6 5 10 10
10 6 0 10 -4 10 -10z m276 -1 c10 -17 -13 -36 -27 -22 -12 12 -4 33 11 33 5 0
12 -5 16 -11z m-449 -35 c8 -22 -18 -37 -36 -20 -7 8 -10 19 -7 25 10 16 36
13 43 -5z m111 -16 c21 -21 14 -57 -12 -70 -29 -13 -51 -6 -65 20 -22 40 44
83 77 50z m1257 -83 c-14 -25 -23 -50 -19 -57 4 -6 3 -8 -3 -5 -6 4 -14 0 -17
-9 -4 -10 -2 -13 6 -8 8 5 9 2 5 -10 -4 -10 -7 -21 -7 -24 0 -4 -4 -1 -8 6 -6
8 -9 2 -9 -18 0 -20 3 -26 9 -18 5 7 5 -11 1 -42 -5 -30 -7 -96 -7 -146 2 -99
32 -357 45 -389 6 -13 6 -6 2 19 -7 45 8 43 27 -4 16 -39 28 -38 70 5 37 38
116 69 210 81 28 4 53 10 55 15 11 17 -62 235 -112 333 -8 17 -11 27 -5 21 34
-33 159 -326 167 -390 5 -32 4 -36 -4 -17 -12 26 -48 29 -133 11 -76 -17 -161
-104 -203 -209 -27 -68 -30 -85 -29 -185 0 -80 6 -131 22 -185 20 -72 63 -163
83 -175 5 -4 9 -11 9 -17 0 -6 -3 -8 -6 -5 -4 4 -37 -9 -74 -29 -60 -31 -100
-37 -100 -14 0 14 36 38 68 45 18 4 31 9 29 11 -3 3 -51 -7 -107 -21 -64 -16
-105 -22 -109 -16 -3 5 -28 120 -55 256 -41 207 -47 248 -35 256 12 8 11 12
-3 23 -13 9 -24 48 -38 130 -11 65 -22 122 -25 126 -7 11 131 352 200 497 50
104 109 203 121 203 3 0 -6 -20 -21 -45z m-2397 -101 l38 -119 133 -3 133 -3
-99 -70 c-54 -39 -101 -74 -106 -78 -4 -4 10 -62 32 -129 21 -67 37 -122 35
-122 -2 0 -49 34 -105 75 -64 47 -106 72 -113 66 -41 -31 -195 -141 -198 -141
-2 0 14 53 35 117 21 64 36 122 33 128 -2 7 -48 43 -102 81 l-97 69 130 3 130
3 39 123 c21 68 40 123 42 121 2 -1 20 -56 40 -121z m2342 112 c0 -1 -28 -25
-62 -52 -35 -27 -107 -94 -161 -149 -55 -55 -95 -93 -91 -85 7 13 5 13 -9 1
-18 -14 -24 -36 -7 -26 5 3 -15 -27 -45 -67 -30 -40 -60 -73 -67 -73 -6 0 -13
-6 -16 -14 -3 -8 0 -11 7 -7 17 11 13 0 -6 -15 -11 -10 -14 -10 -9 -1 4 6 5
12 2 12 -2 0 -14 -15 -25 -34 -17 -27 -19 -39 -11 -61 13 -35 13 -134 -1 -193
-17 -71 -119 -277 -188 -380 -33 -50 -61 -95 -61 -100 0 -5 -9 -17 -20 -27
-37 -33 -22 6 24 64 60 77 106 152 106 172 0 10 4 19 9 21 16 6 101 188 117
250 21 83 12 162 -23 194 -14 13 -32 24 -40 24 -11 0 -11 4 -2 23 24 46 119
165 198 246 44 46 81 87 81 92 0 5 5 9 11 9 6 0 39 20 73 45 53 38 206 134
214 135 1 0 2 -2 2 -4z m-870 -21 c0 -8 -9 -15 -20 -15 -11 0 -20 7 -20 15 0
8 9 15 20 15 11 0 20 -7 20 -15z m83 1 c7 -16 -23 -46 -45 -46 -24 0 -41 25
-26 37 31 24 64 28 71 9z m-503 -10 c0 -8 -5 -18 -11 -22 -14 -8 -33 11 -25
25 10 16 36 13 36 -3z m248 -34 c5 -15 -23 -26 -45 -17 -17 6 -17 7 2 21 21
16 37 14 43 -4z m157 8 c3 -5 1 -10 -4 -10 -6 0 -11 5 -11 10 0 6 2 10 4 10 3
0 8 -4 11 -10z m1094 -73 c24 -34 31 -48 17 -32 -40 46 -92 121 -74 107 8 -6
34 -40 57 -75z m-1534 45 c0 -18 -20 -15 -23 4 -3 10 1 15 10 12 7 -3 13 -10
13 -16z m990 -2 c3 -5 1 -10 -4 -10 -6 0 -11 5 -11 10 0 6 2 10 4 10 3 0 8 -4
11 -10z m730 -15 c0 -22 -22 -30 -44 -16 -21 14 -5 43 21 39 15 -2 23 -10 23
-23z m-995 -5 c0 -5 -7 -10 -15 -10 -8 0 -15 5 -15 10 0 6 7 10 15 10 8 0 15
-4 15 -10z m-620 -60 c0 -5 -4 -10 -10 -10 -5 0 -10 5 -10 10 0 6 5 10 10 10
6 0 10 -4 10 -10z m710 -40 c0 -5 -4 -10 -9 -10 -6 0 -13 5 -16 10 -3 6 1 10
9 10 9 0 16 -4 16 -10z m-496 -21 c-3 -5 -10 -7 -15 -3 -5 3 -7 10 -3 15 3 5
10 7 15 3 5 -3 7 -10 3 -15z m106 7 c0 -16 -18 -31 -27 -22 -8 8 5 36 17 36 5
0 10 -6 10 -14z m-642 -39 c2 -12 -3 -17 -17 -17 -12 0 -21 6 -21 13 0 31 32
34 38 4z m1030 -14 c-4 -22 -22 -20 -26 1 -2 10 3 16 13 16 10 0 15 -7 13 -17z
m82 7 c0 -5 -2 -10 -4 -10 -3 0 -8 5 -11 10 -3 6 -1 10 4 10 6 0 11 -4 11 -10z
m878 -7 c5 -17 -26 -29 -40 -15 -6 6 -7 15 -3 22 9 14 37 9 43 -7z m-1258 -13
c21 -11 17 -40 -5 -40 -17 0 -38 27 -30 40 8 13 12 13 35 0z m-450 -60 c0 -5
-4 -10 -10 -10 -5 0 -10 5 -10 10 0 6 5 10 10 10 6 0 10 -4 10 -10z m465 -10
c3 -5 -1 -10 -10 -10 -9 0 -13 5 -10 10 3 6 8 10 10 10 2 0 7 -4 10 -10z
m-701 -19 c11 -12 13 -21 7 -25 -13 -9 -51 15 -51 31 0 19 25 16 44 -6z m563
-42 c16 -16 5 -39 -17 -39 -23 0 -34 16 -26 35 6 18 28 19 43 4z m-629 -26 c5
-18 -28 -29 -38 -12 -5 7 -6 17 -3 22 7 12 35 5 41 -10z m147 -3 c0 -7 -6 -15
-12 -17 -8 -3 -13 4 -13 17 0 13 5 20 13 18 6 -3 12 -11 12 -18z m-75 -5 c16
-20 2 -38 -26 -32 -16 3 -24 0 -24 -9 0 -8 -9 -14 -20 -14 -28 0 -25 29 4 40
13 5 27 14 31 19 9 15 20 14 35 -4z m-350 -44 c0 -14 -18 -23 -30 -16 -6 4 -8
11 -5 16 8 12 35 12 35 0z m160 -15 c0 -18 -21 -35 -36 -29 -19 7 -17 30 3 42
20 11 33 6 33 -13z m-115 -76 c3 -5 12 -7 19 -4 7 3 19 -2 26 -11 17 -21 -1
-41 -27 -30 -10 5 -25 7 -35 6 -20 -2 -32 15 -24 34 6 17 32 20 41 5z m-225
-30 c0 -5 -5 -10 -11 -10 -5 0 -7 5 -4 10 3 6 8 10 11 10 2 0 4 -4 4 -10z
m3620 0 c0 -5 -5 -10 -11 -10 -5 0 -7 5 -4 10 3 6 8 10 11 10 2 0 4 -4 4 -10z
m-1030 -40 c0 -11 -4 -20 -9 -20 -13 0 -32 26 -24 33 13 14 33 6 33 -13z
m-2500 -22 c0 -7 -4 -18 -8 -25 -11 -17 -36 1 -29 21 7 19 37 22 37 4z m170 2
c0 -5 -4 -10 -10 -10 -5 0 -10 5 -10 10 0 6 5 10 10 10 6 0 10 -4 10 -10z
m1496 -18 c-18 -16 -18 -16 -6 6 6 13 14 21 18 18 3 -4 -2 -14 -12 -24z m922
1 c3 -17 -2 -23 -16 -23 -24 0 -46 25 -37 40 12 19 50 7 53 -17z m-205 -77
c-7 -32 -14 -41 -36 -47 -15 -4 -27 -3 -27 1 0 5 10 10 23 12 18 2 24 12 32
58 5 30 11 46 13 35 1 -11 -1 -38 -5 -59z m-2453 3 c0 -6 6 -9 13 -6 16 6 57
-10 57 -23 0 -21 -41 -51 -61 -45 -11 4 -19 2 -19 -5 0 -6 -5 -8 -11 -4 -8 4
-7 9 2 15 7 4 10 11 6 15 -4 4 -1 14 6 22 9 12 9 16 0 19 -15 5 -17 23 -3 23
6 0 10 -5 10 -11z m1830 -412 c67 -327 69 -340 52 -361 -21 -27 -228 -222
-296 -279 -31 -26 -45 -34 -38 -21 6 12 27 33 47 48 26 20 35 35 35 56 0 24 7
33 33 44 17 8 57 38 87 65 l55 51 -70 -45 c-115 -74 -114 -58 1 34 59 48 82
61 110 61 19 0 34 5 34 10 0 11 -37 8 -195 -15 -49 -7 -125 -17 -167 -20 l-77
-7 6 38 c17 106 221 667 271 744 l16 25 13 -45 c7 -25 44 -197 83 -383z
m-2330 403 c0 -5 -4 -10 -10 -10 -5 0 -10 5 -10 10 0 6 5 10 10 10 6 0 10 -4
10 -10z m295 -21 c0 -7 -8 -15 -17 -17 -18 -3 -25 18 -11 32 10 10 28 1 28
-15z m1217 -32 c-6 -7 -22 -14 -37 -15 -36 -3 -125 -41 -153 -66 -31 -27 -66
-76 -59 -82 3 -3 19 2 36 11 18 9 37 13 43 9 6 -4 8 -3 5 3 -4 6 0 14 9 17 8
3 12 2 9 -4 -14 -23 52 6 84 37 13 13 25 22 27 21 1 -2 -2 -24 -8 -50 -10 -44
-14 -47 -54 -57 -53 -14 -67 -14 -59 -1 3 6 2 10 -4 10 -5 0 -13 -5 -16 -10
-3 -6 -26 -15 -51 -21 -53 -14 -60 -31 -46 -110 10 -50 9 -69 -3 -58 -2 3 -9
36 -14 74 -11 79 -3 107 55 186 37 51 120 100 200 117 44 10 51 8 36 -11z
m1322 -31 c-3 -9 -9 -14 -13 -11 -4 2 -8 -9 -8 -25 0 -25 5 -30 31 -35 77 -16
209 -61 296 -101 97 -46 320 -188 320 -204 0 -16 -44 -52 -89 -71 l-43 -19
-22 27 c-11 15 -21 31 -21 35 0 4 -7 13 -15 20 -12 11 -12 11 -1 -4 7 -10 11
-18 7 -18 -8 0 -126 92 -126 98 0 2 7 -1 15 -8 8 -7 15 -10 15 -7 0 3 -15 16
-32 28 -25 18 -29 19 -18 5 9 -11 -5 -6 -35 13 -28 18 -48 34 -47 38 6 10 -94
63 -125 68 -15 2 -48 8 -73 14 -25 6 -48 11 -52 11 -14 0 -8 -126 8 -174 22
-63 101 -148 170 -182 30 -14 54 -27 54 -29 0 -4 -84 13 -111 24 -15 5 -41 25
-58 43 -133 141 -157 336 -56 456 28 34 40 37 29 8z m-2266 -3 c5 -17 -26 -29
-40 -15 -6 6 -7 15 -3 22 9 14 37 9 43 -7z m72 -13 c0 -5 -4 -10 -10 -10 -5 0
-10 5 -10 10 0 6 5 10 10 10 6 0 10 -4 10 -10z m1461 -23 l-23 -22 17 28 c10
15 20 25 23 22 3 -3 -5 -16 -17 -28z m-1663 -10 c4 -20 -25 -34 -40 -19 -15
15 -1 44 19 40 10 -2 19 -11 21 -21z m2742 13 c0 -5 -4 -10 -10 -10 -5 0 -10
5 -10 10 0 6 5 10 10 10 6 0 10 -4 10 -10z m755 -61 c61 -44 169 -157 212
-222 24 -36 33 -64 39 -114 11 -105 -3 -414 -25 -568 -24 -157 -68 -386 -78
-394 -3 -3 -3 5 0 19 9 38 25 179 37 330 6 74 13 153 16 175 2 22 4 113 4 202
0 164 -4 189 -40 221 -13 12 -13 13 3 8 9 -3 17 -1 17 4 0 20 -45 9 -138 -36
-53 -26 -114 -53 -136 -60 -24 -9 -69 -43 -111 -82 -82 -80 -175 -147 -262
-191 -57 -28 -63 -34 -63 -62 0 -22 12 -46 40 -79 38 -46 43 -48 78 -43 20 3
43 11 51 17 12 9 13 7 6 -9 -4 -11 -23 -74 -42 -140 -19 -66 -43 -149 -53
-185 -10 -36 -22 -85 -25 -110 -4 -25 -8 -54 -11 -65 -2 -11 5 -2 16 20 l20
40 -4 -35 c-2 -19 0 -42 4 -51 5 -8 4 -22 -1 -30 -7 -11 -9 -8 -10 11 -1 20
-3 19 -10 -10 -11 -48 -12 -238 -1 -275 11 -37 26 -36 131 8 74 31 112 66 234
217 16 19 5 0 -24 -43 -111 -166 -305 -340 -549 -491 -162 -101 -255 -162
-266 -177 -6 -8 -42 -90 -79 -184 -88 -223 -89 -225 -96 -225 -4 0 -22 28 -39
63 -18 34 -44 76 -57 94 l-24 31 20 39 c10 22 27 75 36 118 15 74 29 135 41
176 4 15 2 16 -28 2 -53 -24 -70 -56 -79 -147 -4 -45 -8 -117 -8 -161 l-1 -80
57 -65 56 -65 -1003 -3 c-552 -1 -1005 0 -1007 2 -5 4 150 242 170 261 5 6 -3
-11 -17 -37 -18 -31 -25 -54 -21 -68 5 -17 10 -19 21 -9 11 9 14 9 14 -1 0 -7
15 7 34 32 37 49 40 49 157 33 45 -6 146 24 127 37 -9 6 -6 7 8 4 14 -4 31 3
55 25 l34 30 1 172 c2 155 -1 179 -22 244 -12 40 -26 89 -30 110 -3 21 -13 60
-21 86 -19 58 -10 72 23 34 30 -35 30 -33 -5 84 -16 53 -32 123 -35 155 -5 57
-5 57 13 -21 23 -101 40 -142 81 -189 65 -74 138 -87 207 -37 54 39 81 100 98
218 7 54 13 93 14 86 2 -26 81 -27 81 -2 0 6 -8 8 -19 4 -23 -7 -143 79 -136
98 5 12 -30 58 -136 180 -44 49 -48 57 -29 57 12 0 41 -14 65 -30 24 -17 64
-39 88 -49 48 -21 121 -87 112 -101 -3 -5 11 -20 32 -33 21 -13 44 -32 52 -41
7 -9 19 -16 25 -16 6 0 44 -30 84 -67 l73 -66 42 13 c47 14 118 49 101 50 -6
0 -37 -9 -70 -19 -32 -11 -60 -18 -61 -17 -6 5 81 59 96 60 9 1 30 9 46 18 35
19 210 68 243 68 23 0 30 14 11 26 -6 4 43 61 120 138 102 103 131 139 131
159 0 32 -49 134 -67 141 -7 3 0 -20 17 -54 41 -82 38 -92 -16 -40 -25 25 -43
38 -40 30 4 -10 -17 -32 -62 -66 -37 -28 -167 -137 -288 -242 -210 -180 -222
-189 -233 -169 -11 21 -11 21 -5 -3 4 -17 3 -22 -4 -15 -15 15 -41 95 -36 110
3 7 1 16 -5 20 -7 4 -9 -1 -5 -12 3 -10 -13 17 -36 61 -23 43 -39 80 -37 82 2
3 10 -9 17 -26 14 -35 26 -38 35 -10 3 11 15 25 26 30 10 6 19 18 20 28 1 11
4 8 9 -8 7 -22 8 -22 9 -4 1 11 -9 47 -22 80 -36 91 -40 128 -7 57 16 -34 34
-64 40 -68 9 -5 170 136 280 245 19 20 63 62 98 93 62 57 64 58 88 42 23 -15
27 -14 97 28 40 24 101 59 137 77 l65 33 45 -17 c69 -27 218 -32 325 -11 184
34 294 95 369 204 l27 39 49 -25 c28 -14 57 -26 65 -27 8 -1 30 -15 47 -32 33
-29 33 -29 -2 10 -48 53 -150 137 -159 132 -4 -3 -8 1 -8 8 0 8 45 36 101 62
66 32 120 67 158 102 57 54 60 52 24 -18 -18 -36 -30 -45 -138 -114 -32 -20
-58 -42 -58 -49 0 -12 114 -113 193 -171 47 -34 66 -35 127 -8 86 37 160 91
160 116 0 12 11 33 25 46 14 13 25 29 25 36 0 6 -41 45 -91 85 -50 41 -99 83
-108 93 -9 11 -29 32 -45 47 -15 15 -25 32 -22 38 8 12 27 2 111 -60z m-3625
46 c0 -8 -4 -15 -10 -15 -5 0 -10 7 -10 15 0 8 5 15 10 15 6 0 10 -7 10 -15z
m1090 -25 c0 -5 -5 -10 -11 -10 -5 0 -7 5 -4 10 3 6 8 10 11 10 2 0 4 -4 4
-10z m-1045 -20 c3 -5 1 -10 -4 -10 -6 0 -11 5 -11 10 0 6 2 10 4 10 3 0 8 -4
11 -10z m2997 -3 c7 -8 19 -12 25 -10 13 5 11 -46 -2 -67 -17 -27 -93 -1 -96
33 -1 7 -2 19 -3 27 -2 30 51 42 76 17z m-3092 -12 c0 -8 -7 -15 -15 -15 -8 0
-15 7 -15 15 0 8 7 15 15 15 8 0 15 -7 15 -15z m3016 -58 c7 -23 2 -29 -20
-21 -11 4 -13 9 -7 13 6 4 6 12 1 21 -7 11 -11 11 -24 1 -11 -9 -16 -10 -16
-2 0 6 5 11 11 11 7 0 9 11 6 26 l-5 26 24 -28 c13 -16 26 -37 30 -47z m-2971
43 c-3 -5 -13 -10 -21 -10 -8 0 -12 5 -9 10 3 6 13 10 21 10 8 0 12 -4 9 -10z
m75 -20 c0 -5 -4 -10 -10 -10 -5 0 -10 5 -10 10 0 6 5 10 10 10 6 0 10 -4 10
-10z m-232 -12 c19 -19 14 -28 -13 -28 -24 0 -34 18 -18 33 9 10 17 9 31 -5z
m-188 -8 c0 -5 -7 -10 -15 -10 -8 0 -15 5 -15 10 0 6 7 10 15 10 8 0 15 -4 15
-10z m445 -10 c3 -5 1 -10 -4 -10 -6 0 -11 5 -11 10 0 6 2 10 4 10 3 0 8 -4
11 -10z m-255 -35 c0 -8 -4 -15 -10 -15 -5 0 -10 7 -10 15 0 8 5 15 10 15 6 0
10 -7 10 -15z m-94 -32 c-11 -11 -19 6 -11 24 8 17 8 17 12 0 3 -10 2 -21 -1
-24z m184 27 c0 -5 -2 -10 -4 -10 -3 0 -8 5 -11 10 -3 6 -1 10 4 10 6 0 11 -4
11 -10z m180 -36 c0 -19 -28 -30 -42 -16 -8 8 -8 15 1 26 14 17 41 10 41 -10z
m743 -71 c-19 -54 -45 -147 -58 -207 -12 -60 -24 -102 -27 -94 -11 28 97 398
116 398 2 0 -12 -44 -31 -97z m-903 37 c0 -5 -4 -10 -10 -10 -5 0 -10 5 -10
10 0 6 5 10 10 10 6 0 10 -4 10 -10z m60 -56 c0 -8 -4 -12 -10 -9 -5 3 -10 10
-10 16 0 5 5 9 10 9 6 0 10 -7 10 -16z m3205 -4 c11 -12 20 -28 21 -37 2 -8
-1 -12 -4 -7 -4 5 -18 21 -31 37 -14 15 -20 27 -14 27 5 0 18 -9 28 -20z
m-3447 -33 c4 -21 -25 -34 -40 -19 -8 8 -8 16 2 27 16 19 34 15 38 -8z m872
-27 c0 -5 -5 -10 -11 -10 -5 0 -7 5 -4 10 3 6 8 10 11 10 2 0 4 -4 4 -10z
m-790 -10 c0 -5 -4 -10 -10 -10 -5 0 -10 5 -10 10 0 6 5 10 10 10 6 0 10 -4
10 -10z m70 -5 c0 -8 -4 -15 -9 -15 -13 0 -22 16 -14 24 11 11 23 6 23 -9z
m-94 -42 c-10 -10 -19 5 -10 18 6 11 8 11 12 0 2 -7 1 -15 -2 -18z m49 16 c10
-15 -1 -23 -20 -15 -9 3 -13 10 -10 16 8 13 22 13 30 -1z m85 1 c0 -5 -2 -10
-4 -10 -3 0 -8 5 -11 10 -3 6 -1 10 4 10 6 0 11 -4 11 -10z m1417 -16 c-3 -3
-12 -4 -19 -1 -8 3 -5 6 6 6 11 1 17 -2 13 -5z m-1467 -13 c0 -5 -12 -8 -26
-8 -18 0 -22 2 -13 8 18 11 39 11 39 0z m-83 -46 c3 -9 3 -19 -1 -22 -8 -9
-37 18 -30 28 8 14 24 11 31 -6z m108 5 c3 -5 1 -10 -4 -10 -6 0 -11 5 -11 10
0 6 2 10 4 10 3 0 8 -4 11 -10z m2582 -6 c-3 -3 -12 -4 -19 -1 -8 3 -5 6 6 6
11 1 17 -2 13 -5z m-3127 -8 c0 -3 -4 -8 -10 -11 -5 -3 -10 -1 -10 4 0 6 5 11
10 11 6 0 10 -2 10 -4z m300 -18 c0 -16 -3 -19 -11 -11 -6 6 -8 16 -5 22 11
17 16 13 16 -11z m165 12 c3 -5 1 -10 -4 -10 -6 0 -11 5 -11 10 0 6 2 10 4 10
3 0 8 -4 11 -10z m1205 -31 c0 -5 -4 -9 -10 -9 -5 0 -10 7 -10 16 0 8 5 12 10
9 6 -3 10 -10 10 -16z m-1474 -16 c-10 -10 -19 5 -10 18 6 11 8 11 12 0 2 -7
1 -15 -2 -18z m159 7 c-3 -5 -10 -10 -16 -10 -5 0 -9 5 -9 10 0 6 7 10 16 10
8 0 12 -4 9 -10z m1482 -29 c29 -10 50 -20 48 -23 -10 -10 20 -26 55 -29 27
-3 34 0 33 11 -2 12 7 15 42 15 45 0 55 -11 33 -33 -16 -16 -74 -15 -154 4
-72 16 -109 32 -100 41 3 4 1 12 -5 20 -14 16 -15 16 48 -6z m-1891 -12 c9
-15 -11 -33 -30 -26 -9 4 -13 13 -10 22 7 17 30 20 40 4z m1174 1 c0 -5 -5
-10 -11 -10 -5 0 -7 5 -4 10 3 6 8 10 11 10 2 0 4 -4 4 -10z m1080 -25 c19
-19 32 -35 29 -35 -3 0 -20 16 -39 35 -19 19 -32 35 -29 35 3 0 20 -16 39 -35z
m-990 5 c0 -5 -4 -10 -10 -10 -5 0 -10 5 -10 10 0 6 5 10 10 10 6 0 10 -4 10
-10z m733 3 c-7 -2 -21 -2 -30 0 -10 3 -4 5 12 5 17 0 24 -2 18 -5z m157 -7
c0 -8 -7 -16 -15 -20 -13 -4 -14 -2 -5 14 13 23 20 26 20 6z m-50 -49 c0 -2
-17 -19 -37 -38 l-38 -34 34 38 c33 34 41 42 41 34z m-681 -63 c1 -50 0 -56
-16 -49 -10 4 -26 9 -35 12 -13 4 -14 8 -5 18 7 7 19 10 27 7 12 -4 13 -2 3 9
-7 7 -13 20 -13 28 0 11 4 10 16 -5 8 -10 13 -14 10 -7 -5 10 2 43 9 43 1 0 3
-25 4 -56z m918 -6 c-23 -56 -30 -167 -15 -270 3 -27 2 -48 -2 -48 -23 0 -147
337 -131 353 9 9 15 -8 42 -118 15 -62 16 -63 35 -39 15 18 15 18 11 -6 -3
-14 -1 -34 3 -45 6 -14 9 3 11 53 1 39 3 77 4 82 1 6 3 28 4 50 1 37 3 40 31
40 l30 0 -23 -52z m187 10 c-16 -12 -39 -33 -52 -46 -12 -13 -30 -25 -40 -27
-9 -1 -16 -7 -15 -13 1 -6 -4 -13 -12 -16 -31 -12 14 52 58 82 63 43 112 59
61 20z m-2601 0 c4 -10 8 -9 16 2 8 12 11 7 11 -20 -1 -33 -2 -34 -15 -16 -14
18 -15 18 -26 -10 -7 -16 -13 -33 -13 -38 -1 -13 -26 -20 -26 -7 0 5 4 12 9
15 5 3 7 20 5 37 -2 17 -1 35 2 40 8 13 32 11 37 -3z m1642 -28 c3 -5 1 -10
-4 -10 -6 0 -11 5 -11 10 0 6 2 10 4 10 3 0 8 -4 11 -10z m-1060 -10 c3 -5 1
-10 -4 -10 -6 0 -11 5 -11 10 0 6 2 10 4 10 3 0 8 -4 11 -10z m1515 6 c0 -2
-8 -10 -17 -17 -16 -13 -17 -12 -4 4 13 16 21 21 21 13z m-1700 -20 c0 -8 -4
-17 -9 -21 -12 -7 -24 12 -16 25 9 15 25 12 25 -4z m50 -51 c0 -8 -7 -15 -15
-15 -16 0 -20 12 -8 23 11 12 23 8 23 -8z m1308 -70 c29 -36 49 -65 45 -65
-10 0 -53 42 -53 52 0 5 -12 25 -26 44 -46 60 -20 36 34 -31z m-1188 40 c0 -8
-7 -15 -15 -15 -16 0 -20 12 -8 23 11 12 23 8 23 -8z m-600 -5 c0 -5 -4 -10
-10 -10 -5 0 -10 5 -10 10 0 6 5 10 10 10 6 0 10 -4 10 -10z m450 -10 c0 -5
-4 -10 -10 -10 -5 0 -10 5 -10 10 0 6 5 10 10 10 6 0 10 -4 10 -10z m3691 -93
c-11 -12 -24 -18 -28 -14 -4 4 3 14 15 23 12 8 23 27 23 42 l2 27 4 -29 c3
-20 -2 -35 -16 -49z m-3621 33 c0 -5 -4 -10 -10 -10 -5 0 -10 5 -10 10 0 6 5
10 10 10 6 0 10 -4 10 -10z m-200 -20 c0 -5 -4 -10 -10 -10 -5 0 -10 5 -10 10
0 6 5 10 10 10 6 0 10 -4 10 -10z m-300 -10 c0 -5 -4 -10 -10 -10 -5 0 -10 5
-10 10 0 6 5 10 10 10 6 0 10 -4 10 -10z m20 -15 c0 -3 -9 -14 -20 -25 -22
-22 -25 -19 -10 11 10 17 30 27 30 14z m426 -33 c-22 -5 -30 3 -21 18 5 8 11
7 22 -2 15 -12 14 -13 -1 -16z m-105 2 c11 -14 11 -18 -5 -29 -15 -11 -15 -16
-4 -34 10 -16 10 -23 0 -33 -13 -13 -22 -8 -26 14 -1 7 -5 18 -9 25 -4 6 -3
14 3 18 6 4 8 11 4 16 -7 12 2 39 14 39 5 0 16 -7 23 -16z m-291 -49 c-8 -9
-6 -14 5 -19 22 -8 18 -21 -11 -41 -15 -9 -23 -12 -19 -5 4 6 -1 20 -10 30
-14 15 -15 23 -6 34 6 7 8 21 5 31 -7 17 -6 17 20 0 19 -13 24 -21 16 -30z
m358 -28 c19 -15 14 -55 -7 -67 -25 -13 -53 13 -49 44 1 11 -1 27 -6 34 -6 10
-1 11 21 6 15 -4 34 -11 41 -17z m142 -56 c0 -14 -18 -23 -30 -16 -6 4 -8 11
-5 16 8 12 35 12 35 0z m-496 -32 c-3 -5 -10 -7 -15 -3 -5 3 -7 10 -3 15 3 5
10 7 15 3 5 -3 7 -10 3 -15z m306 7 c0 -8 -5 -18 -11 -22 -14 -8 -33 11 -25
25 10 16 36 13 36 -3z m80 -11 c0 -8 -4 -15 -10 -15 -5 0 -10 7 -10 15 0 8 5
15 10 15 6 0 10 -7 10 -15z m-358 -57 c-15 -15 -26 -4 -18 18 5 13 9 15 18 6
9 -9 9 -15 0 -24z m1635 -10 c-3 -8 -6 -5 -6 6 -1 11 2 17 5 13 3 -3 4 -12 1
-19z m-1165 -5 c10 -9 18 -27 18 -39 0 -27 -42 -59 -65 -50 -9 3 -15 0 -15
-10 0 -20 -27 -29 -44 -15 -31 26 -73 -255 -61 -414 7 -110 38 -239 76 -324
19 -41 27 -72 23 -87 -5 -20 -2 -24 14 -24 14 0 27 -12 38 -35 9 -19 39 -54
68 -76 89 -71 357 -354 339 -357 -9 -3 -44 26 -87 72 -39 42 -75 76 -81 76 -5
0 -1 -8 10 -16 11 -9 14 -14 6 -12 -8 2 -19 13 -25 23 -16 29 -35 44 -92 71
-38 18 -51 29 -48 42 4 18 -20 50 -51 68 -11 6 -22 22 -25 35 -4 16 -21 32
-50 47 -25 12 -48 31 -52 42 -4 11 -12 20 -18 20 -8 0 -9 11 -5 29 3 17 2 32
-4 36 -6 3 -11 13 -11 21 0 21 -85 147 -110 162 -18 11 -24 9 -45 -12 -14 -14
-25 -32 -25 -41 0 -8 -6 -15 -12 -15 -9 0 -8 -3 2 -10 19 -12 1 -32 -32 -36
-13 -1 -25 -3 -28 -3 -3 -1 2 -6 10 -11 9 -6 10 -10 3 -10 -6 0 -15 5 -18 10
-4 6 -11 7 -17 4 -7 -5 -8 -2 -3 6 6 10 4 12 -8 7 -10 -4 -28 7 -51 34 -41 44
-40 43 -24 72 14 25 16 41 22 120 2 31 0 57 -4 57 -14 0 -4 61 11 71 8 5 10 9
6 9 -20 0 65 102 170 202 59 58 73 78 83 118 6 27 9 57 6 67 -4 14 3 26 24 41
16 12 31 22 34 22 2 0 -4 -28 -15 -62 -25 -82 -24 -89 6 -47 14 19 29 34 33
35 29 3 41 18 36 40 -13 50 49 83 88 47z m-482 -17 c0 -15 -32 -46 -47 -46
-13 0 -19 41 -7 53 10 10 54 4 54 -7z m1907 -18 c17 -18 45 -55 62 -82 l31
-50 -42 -27 c-49 -33 -61 -28 -89 39 -22 52 -26 152 -6 152 7 0 27 -15 44 -32z
m-270 -85 c-2 -21 -4 -4 -4 37 0 41 2 58 4 38 2 -21 2 -55 0 -75z m-343 58
c-4 -17 -9 -30 -11 -27 -3 2 -2 19 2 36 9 41 17 33 9 -9z m2603 14 c-4 -8 -12
-15 -19 -14 -10 0 -10 2 0 6 6 2 12 12 12 21 0 8 3 13 6 9 4 -3 4 -13 1 -22z
m-18 -64 c-6 -18 -13 -30 -15 -28 -2 2 1 18 7 36 6 18 13 30 15 28 2 -2 -1
-18 -7 -36z m-3879 20 c0 -6 -4 -13 -10 -16 -5 -3 -10 1 -10 9 0 9 5 16 10 16
6 0 10 -4 10 -9z m4310 -31 c-6 -11 -13 -20 -16 -20 -2 0 0 9 6 20 6 11 13 20
16 20 2 0 0 -9 -6 -20z m-3880 -10 c0 -5 -4 -10 -10 -10 -5 0 -10 5 -10 10 0
6 5 10 10 10 6 0 10 -4 10 -10z m-460 -30 c0 -5 -4 -10 -10 -10 -5 0 -10 5
-10 10 0 6 5 10 10 10 6 0 10 -4 10 -10z m510 -6 c0 -8 -4 -12 -10 -9 -5 3
-10 10 -10 16 0 5 5 9 10 9 6 0 10 -7 10 -16z m1290 -141 c0 -31 106 -103 125
-85 3 4 3 -1 0 -9 -3 -9 -17 -21 -31 -28 -14 -6 -22 -16 -19 -21 13 -21 -39
-8 -80 20 -33 23 -42 34 -38 50 3 11 1 26 -4 33 -16 20 -25 67 -13 67 6 0 9
-4 5 -9 -3 -5 0 -13 5 -16 8 -5 9 5 4 32 l-7 38 26 -31 c15 -18 27 -36 27 -41z
m-1781 -34 c1 -15 -37 -34 -47 -25 -2 2 4 21 13 42 15 35 18 37 25 19 5 -11 9
-27 9 -36z m36 32 c7 -12 -12 -24 -25 -16 -11 7 -4 25 10 25 5 0 11 -4 15 -9z
m1558 -103 c20 -58 54 -143 77 -187 l40 -81 5 -193 c3 -146 2 -168 -4 -92 -12
152 -31 247 -48 240 -8 -3 -20 -5 -26 -5 -7 0 -20 -20 -30 -45 -11 -25 -23
-45 -27 -45 -4 0 -7 -6 -7 -12 1 -7 -2 -29 -7 -49 -5 -25 -1 -63 16 -132 13
-53 21 -102 18 -108 -4 -6 -25 11 -49 40 -25 30 -39 55 -35 62 4 7 3 9 -3 6
-14 -9 -37 19 -28 33 4 6 1 9 -5 8 -7 -2 -32 29 -57 67 -24 39 -32 57 -18 40
28 -33 32 -28 11 13 -16 33 -31 93 -17 73 5 -7 14 -10 20 -7 6 4 11 1 11 -6 0
-10 3 -9 10 2 8 12 10 12 16 -4 6 -16 9 -15 19 10 l12 29 12 -45 c6 -25 16
-54 21 -65 l10 -20 -5 20 c-2 11 -9 45 -15 75 -10 54 -30 119 -76 254 -13 39
-22 72 -19 74 2 2 15 -18 28 -45 14 -26 40 -61 59 -78 l33 -30 -31 35 c-17 19
-34 46 -37 60 -6 24 -6 24 16 -3 26 -33 53 -28 65 12 4 14 7 67 7 118 0 50 1
91 1 90 1 -1 18 -50 37 -109z m-1643 82 c0 -5 -4 -10 -10 -10 -5 0 -10 5 -10
10 0 6 5 10 10 10 6 0 10 -4 10 -10z m963 -63 c26 -17 45 -32 43 -34 -7 -8
-80 35 -116 67 -39 36 -36 34 73 -33z m2992 -19 l-7 -41 33 5 33 5 -33 -29
c-18 -16 -30 -32 -27 -35 6 -7 -12 -33 -23 -33 -3 0 -6 43 -7 95 -1 90 0 94
18 84 16 -9 18 -17 13 -51z m450 -164 c-26 -104 -51 -193 -57 -199 -6 -6 -6
-1 0 15 5 14 13 63 17 110 5 63 15 106 41 166 19 45 34 90 35 100 0 10 3 14 5
8 3 -6 -16 -96 -41 -200z m-4365 186 c0 -5 -4 -10 -10 -10 -5 0 -10 5 -10 10
0 6 5 10 10 10 6 0 10 -4 10 -10z m1320 -30 c0 -22 -5 -30 -18 -30 -10 0 -22
4 -27 9 -16 14 -123 21 -129 8 -3 -7 -5 -3 -3 8 3 24 33 33 115 34 l62 1 0
-30z m-199 7 c-6 -8 -9 -16 -6 -19 3 -3 -18 -1 -46 3 -34 5 -59 4 -73 -3 -19
-10 -20 -9 -8 5 13 15 42 22 111 25 27 2 31 -1 22 -11z m-401 -117 c0 -5 -7
-10 -15 -10 -8 0 -15 5 -15 10 0 6 7 10 15 10 8 0 15 -4 15 -10z m40 -20 c0
-5 -4 -10 -10 -10 -5 0 -10 5 -10 10 0 6 5 10 10 10 6 0 10 -4 10 -10z m15
-91 c0 -7 -8 -15 -17 -17 -18 -3 -25 18 -11 32 10 10 28 1 28 -15z m463 -74
c47 -90 46 -85 32 -85 -17 0 -172 79 -190 96 -8 8 6 3 33 -11 38 -22 47 -24
47 -11 0 9 6 16 14 16 26 0 35 23 21 50 -17 29 -20 52 -4 30 5 -8 26 -46 47
-85z m-548 70 c0 -8 -7 -15 -15 -15 -8 0 -15 7 -15 15 0 8 7 15 15 15 8 0 15
-7 15 -15z m284 -76 c-3 -5 -10 -7 -15 -3 -5 3 -7 10 -3 15 3 5 10 7 15 3 5
-3 7 -10 3 -15z m291 -110 c10 -30 0 -33 -13 -4 -6 14 -7 25 -2 25 5 0 12 -9
15 -21z m-305 -9 c0 -5 -4 -10 -10 -10 -5 0 -10 5 -10 10 0 6 5 10 10 10 6 0
10 -4 10 -10z m-50 -10 c0 -5 -5 -10 -11 -10 -5 0 -7 5 -4 10 3 6 8 10 11 10
2 0 4 -4 4 -10z m393 -5 c-3 -9 -8 -14 -10 -11 -3 3 -2 9 2 15 9 16 15 13 8
-4z m2576 -31 c-13 -16 -12 -16 9 -5 33 17 27 8 -17 -27 l-39 -32 15 33 c20
40 34 59 41 52 3 -2 -1 -12 -9 -21z m-2599 1 c0 -8 -4 -15 -9 -15 -13 0 -22
16 -14 24 11 11 23 6 23 -9z m3067 -16 c78 -38 382 -357 383 -402 0 -5 -22 10
-48 32 -51 44 -109 65 -206 77 -51 6 -57 8 -42 19 16 12 14 17 -20 66 l-38 52
31 -6 c17 -3 44 -9 59 -12 16 -3 -2 6 -41 20 -38 13 -86 25 -105 25 -19 0 -42
5 -50 11 -12 8 -9 9 10 4 l25 -6 -25 21 c-14 11 -34 26 -45 32 -19 10 -19 10
-5 -8 12 -16 -55 39 -70 57 -3 4 -14 9 -25 11 -31 6 95 38 133 33 19 -2 54
-14 79 -26z m-4117 -9 c0 -5 -4 -10 -10 -10 -5 0 -10 5 -10 10 0 6 5 10 10 10
6 0 10 -4 10 -10z m-185 -91 c117 -118 274 -255 404 -351 61 -46 96 -78 85
-78 -10 0 -43 18 -73 40 -31 22 -60 36 -69 33 -10 -5 -13 -2 -8 6 5 8 0 18
-13 28 -78 54 -443 398 -433 408 11 10 19 3 107 -86z m759 -4 c54 -47 104 -85
110 -85 7 0 23 -12 37 -26 13 -15 42 -38 64 -51 22 -14 54 -42 72 -62 30 -33
32 -34 27 -11 -4 18 -3 21 4 11 8 -11 11 -9 17 10 13 40 75 172 79 168 4 -4
-30 -142 -59 -239 -30 -101 -33 -120 -22 -127 6 -3 7 -1 3 5 -4 7 -2 12 4 12
7 0 10 -6 8 -12 -5 -14 -88 -24 -88 -11 0 4 4 24 10 43 7 25 7 36 -3 42 -6 4
-12 13 -12 21 0 8 -43 50 -95 94 -83 69 -248 244 -273 288 -20 36 24 9 117
-70z m3229 10 c11 -27 21 -51 22 -53 1 -1 16 3 34 9 18 6 35 8 39 5 3 -4 -3
-9 -14 -12 -17 -5 -153 -59 -202 -81 -8 -3 -10 0 -7 10 4 10 -4 18 -25 26 -18
6 -34 20 -37 31 -6 23 -8 24 -34 10 -36 -20 -19 0 24 27 72 46 150 84 165 81
7 -2 23 -25 35 -53z m-3333 -31 c0 -9 -5 -14 -12 -12 -18 6 -21 28 -4 28 9 0
16 -7 16 -16z m3460 -8 c0 -3 -4 -8 -10 -11 -5 -3 -10 -1 -10 4 0 6 5 11 10
11 6 0 10 -2 10 -4z m-3160 -26 c19 -36 -14 -56 -40 -25 -10 12 -10 18 0 30
17 20 27 19 40 -5z m-382 -21 c-2 -6 -8 -10 -13 -10 -5 0 -11 4 -13 10 -2 6 4
11 13 11 9 0 15 -5 13 -11z m3542 -14 c8 -7 41 -20 72 -29 34 -10 63 -25 72
-38 13 -18 24 -22 63 -19 33 2 45 -1 38 -8 -6 -6 -38 -11 -73 -12 -34 -1 -65
-6 -68 -10 -2 -4 -17 -7 -32 -7 -31 1 -134 -39 -198 -77 l-43 -25 19 -46 c11
-25 18 -50 14 -55 -3 -5 -22 -2 -42 7 -20 9 -61 23 -90 32 -30 8 -56 22 -59
31 -26 76 -56 122 -90 136 -46 19 -39 28 11 14 36 -10 39 -9 81 30 58 54 70
53 18 -1 -22 -24 -44 -53 -48 -66 -5 -18 3 -13 34 20 60 66 258 159 296 140 6
-3 17 -11 25 -17z m-3486 6 c3 -4 -1 -16 -8 -27 -12 -15 -16 -16 -30 -5 -12
10 -14 17 -5 27 13 16 35 18 43 5z m297 -18 c13 -15 12 -15 -8 -4 -24 12 -29
21 -14 21 5 0 15 -7 22 -17z m-267 -14 c-3 -5 -10 -7 -15 -3 -5 3 -7 10 -3 15
3 5 10 7 15 3 5 -3 7 -10 3 -15z m-704 -29 c0 -5 -4 -10 -10 -10 -5 0 -10 5
-10 10 0 6 5 10 10 10 6 0 10 -4 10 -10z m700 -10 c0 -5 -2 -10 -4 -10 -3 0
-8 5 -11 10 -3 6 -1 10 4 10 6 0 11 -4 11 -10z m2996 -10 c0 -12 -4 -16 -9
-11 -5 5 -6 14 -3 20 10 15 12 14 12 -9z m-3676 -65 c6 -8 10 -20 8 -26 -2 -6
-12 0 -21 15 -18 27 -8 37 13 11z m152 -58 c62 -30 145 -73 183 -97 81 -49 80
-48 73 -55 -3 -3 -91 39 -196 93 -106 54 -189 102 -185 105 9 9 -2 13 125 -46z
m732 -14 c4 -9 3 -20 -2 -25 -11 -11 -36 17 -27 32 9 15 22 12 29 -7z m3817
-66 c-10 -9 -11 -8 -5 6 3 10 9 15 12 12 3 -3 0 -11 -7 -18z m-3931 -27 c0 -5
-4 -10 -10 -10 -5 0 -10 5 -10 10 0 6 5 10 10 10 6 0 10 -4 10 -10z m2638 -13
c3 -14 -5 -17 -42 -17 -25 0 -46 2 -46 5 0 9 63 35 75 31 6 -1 11 -10 13 -19z
m-1108 -327 l0 -40 -134 0 c-120 0 -136 -2 -160 -21 l-26 -20 0 -149 0 -149
26 -20 c21 -17 41 -21 96 -21 60 0 72 3 93 25 20 19 25 34 25 74 l0 50 -77 3
-78 3 -3 38 -3 37 120 0 121 0 0 -99 c0 -85 -3 -102 -22 -131 -42 -62 -70 -75
-166 -78 -75 -3 -93 0 -132 20 -70 36 -79 63 -81 249 -3 175 5 202 71 246 30
21 44 23 181 23 l149 0 0 -40z m390 18 c73 -50 75 -55 78 -299 l3 -219 -40 0
c-46 0 -44 -3 -42 93 l1 57 -115 0 -115 0 0 -75 0 -75 -40 0 -40 0 0 218 c0
242 4 261 72 302 50 30 192 29 238 -2z m441 -1 l34 -23 34 23 c46 31 150 33
199 3 68 -41 72 -60 72 -302 l0 -218 -40 0 -40 0 0 205 c0 205 0 206 -25 230
-36 37 -120 31 -147 -9 -4 -6 -8 -47 -8 -91 0 -44 -3 -137 -7 -207 l-6 -128
-39 0 -38 0 0 209 0 210 -26 20 c-36 29 -95 28 -128 -1 l-26 -23 -1 -208 0
-208 -42 3 -42 3 0 217 c0 241 1 245 75 296 47 32 153 32 201 -1z m799 -17 l0
-40 -127 0 c-89 -1 -133 -5 -145 -14 -23 -17 -38 -58 -36 -101 l1 -35 114 0
c101 0 113 -2 113 -17 0 -10 3 -28 6 -40 6 -23 6 -23 -115 -23 l-121 0 0 -34
c0 -46 18 -94 40 -106 11 -6 126 -10 271 -10 246 0 253 1 276 22 33 30 31 80
-3 107 -21 16 -41 21 -93 21 -117 0 -181 55 -181 154 0 66 27 111 83 136 34
16 65 20 160 20 l117 0 0 -40 0 -40 -114 0 c-63 0 -122 -3 -131 -6 -24 -9 -46
-60 -39 -89 10 -39 32 -50 121 -56 91 -6 120 -20 161 -79 44 -66 17 -167 -58
-209 -36 -20 -51 -21 -307 -21 -264 0 -271 1 -303 23 -63 42 -73 72 -78 236
-4 139 -3 148 20 191 39 73 83 90 240 90 l128 0 0 -40z m-2950 -860 c8 -5 11
-10 5 -10 -5 0 -17 5 -25 10 -8 5 -10 10 -5 10 6 0 17 -5 25 -10z m100 -40 c8
-5 11 -10 5 -10 -5 0 -17 5 -25 10 -8 5 -10 10 -5 10 6 0 17 -5 25 -10z"/>
<path d="M3011 4564 c0 -11 3 -14 6 -6 3 7 2 16 -1 19 -3 4 -6 -2 -5 -13z"/>
<path d="M3002 4510 c0 -19 2 -27 5 -17 2 9 2 25 0 35 -3 9 -5 1 -5 -18z"/>
<path d="M3198 3383 c7 -3 16 -2 19 1 4 3 -2 6 -13 5 -11 0 -14 -3 -6 -6z"/>
<path d="M2645 4419 c-26 -33 -45 -62 -43 -64 2 -2 25 25 51 60 59 82 53 85
-8 4z"/>
<path d="M2847 3585 c8 -116 20 -182 35 -191 11 -7 7 24 -22 171 l-18 90 5
-70z"/>
<path d="M2855 3370 c-13 -6 -15 -9 -5 -9 8 0 22 4 30 9 18 12 2 12 -25 0z"/>
<path d="M3880 3183 c-39 -84 -39 -86 -15 -111 l22 -24 32 41 32 40 -27 41
c-15 22 -28 40 -29 40 -1 0 -8 -12 -15 -27z"/>
<path d="M2665 2962 c-22 -20 -63 -62 -90 -92 l-49 -55 48 45 c27 25 64 62 84
83 19 20 38 37 43 37 5 0 -8 -15 -29 -34 l-37 -34 -3 -96 c-5 -125 0 -138 37
-102 20 19 27 34 23 51 -3 18 1 27 17 32 33 13 72 72 61 94 -18 32 -25 28 -22
-12 5 -46 -13 -53 -22 -8 -7 35 -27 35 -37 -2 -6 -20 -7 -18 -8 13 -1 29 5 41
29 61 27 23 28 27 14 41 -8 9 -16 16 -17 16 -1 -1 -20 -18 -42 -38z"/>
<path d="M3950 2854 c-174 -83 -420 -165 -555 -183 -89 -13 -349 -66 -409 -83
-30 -9 -34 -13 -20 -18 12 -5 -10 -14 -66 -29 -47 -12 -116 -33 -155 -47 l-70
-24 50 6 c27 3 61 12 75 19 29 14 132 36 307 65 164 26 506 101 518 113 6 6
-3 7 -25 3 -29 -5 -31 -4 -12 4 12 5 37 11 55 14 80 10 123 20 142 32 11 8 34
14 52 14 l33 0 0 -94 c0 -51 3 -108 6 -126 l7 -32 12 28 12 29 7 -31 c8 -37
-49 -198 -67 -187 -6 4 -8 0 -4 -10 14 -37 -117 -221 -241 -339 -48 -45 -68
-68 -45 -50 69 53 192 191 256 286 88 131 163 322 211 539 14 63 26 119 26
126 0 18 -22 13 -100 -25z"/>
<path d="M2739 2763 c-13 -16 -12 -17 4 -4 16 13 21 21 13 21 -2 0 -10 -8 -17
-17z"/>
<path d="M3018 2683 c6 -2 18 -2 25 0 6 3 1 5 -13 5 -14 0 -19 -2 -12 -5z"/>
<path d="M3355 2559 c-119 -41 -235 -94 -288 -131 -36 -25 -64 -31 -164 -32
l-82 -1 36 -18 c24 -13 51 -18 84 -15 51 3 52 2 34 -59 -2 -6 1 -42 6 -79 20
-139 111 -263 222 -300 73 -24 186 -22 259 6 122 45 242 167 274 278 37 125
-12 292 -103 356 -68 48 -130 47 -278 -5z m170 -29 c3 -5 17 -10 30 -10 14 0
44 -19 77 -49 52 -48 52 -49 38 -76 -8 -16 -34 -48 -58 -72 -67 -66 -84 -62
-175 44 l-75 88 20 28 c11 16 26 30 32 31 6 2 25 8 41 14 40 13 63 14 70 2z
m-183 -42 c-12 -12 -25 -18 -29 -14 -4 4 3 16 16 27 31 25 41 15 13 -13z
m-142 -358 c38 -50 92 -72 177 -74 l73 -1 -37 -17 c-21 -9 -33 -17 -28 -18 19
-2 -60 -39 -85 -39 -33 -1 -89 19 -120 43 -14 10 -18 16 -10 13 8 -2 24 3 34
12 18 15 18 15 8 -6 -9 -16 -9 -22 2 -26 8 -3 13 1 12 11 -1 10 6 16 17 16 22
-2 22 3 -1 15 -13 7 -31 6 -58 -4 -47 -16 -65 -6 -60 36 2 16 -1 26 -5 23 -5
-3 -9 -1 -9 4 0 6 7 12 15 16 8 3 14 13 14 23 -1 17 -2 17 -6 1 -5 -21 -19
-23 -29 -6 -4 6 0 16 9 23 10 7 17 18 17 26 0 14 22 -8 70 -71z m-94 -16 c3
-25 2 -25 -11 -8 -8 11 -15 28 -15 39 0 29 23 2 26 -31z m2 -89 c16 -19 16
-19 -1 -6 -21 16 -47 63 -47 83 1 7 8 -3 16 -22 8 -19 23 -43 32 -55z"/>
<path d="M2160 2576 c0 -2 8 -10 18 -17 15 -13 16 -12 3 4 -13 16 -21 21 -21
13z"/>
<path d="M2423 2311 c-28 -9 -68 -31 -88 -47 -44 -34 -54 -41 -77 -48 -39 -12
-16 -37 75 -82 50 -25 88 -42 82 -37 -32 30 -95 73 -106 73 -20 1 -67 29 -49
29 8 0 31 -6 52 -13 30 -11 35 -11 31 0 -3 8 3 17 13 21 11 3 38 24 61 45 43
38 78 54 52 22 -7 -9 3 -6 25 8 20 13 47 29 59 35 20 11 17 13 -28 13 -27 -1
-73 -9 -102 -19z"/>
<path d="M2253 2127 c3 -8 9 -33 13 -54 8 -46 14 -58 23 -44 4 5 18 -17 31
-51 39 -99 103 -148 193 -148 48 0 136 47 195 103 17 17 32 27 32 23 0 -5 8
-3 18 4 9 7 -12 -16 -48 -50 -90 -86 -128 -104 -216 -105 -66 0 -75 3 -115 33
l-44 34 37 -35 c61 -59 170 -77 244 -39 48 24 128 108 175 182 20 30 43 61 52
69 10 7 17 19 17 27 0 10 -5 10 -27 -2 -38 -19 -85 -18 -168 6 -112 32 -231
23 -229 -17 0 -13 -4 -19 -12 -16 -8 3 -12 10 -11 16 2 13 -90 62 -137 73 -24
6 -28 4 -23 -9z m375 -155 c18 -12 -17 -55 -62 -76 -64 -30 -132 -15 -176 41
-25 33 -13 40 29 18 17 -8 31 -11 31 -6 0 12 32 2 42 -12 7 -12 98 20 98 34 0
11 21 12 38 1z"/>
<path d="M3409 1667 c15 -19 10 -133 -10 -235 -6 -30 -8 -56 -6 -59 9 -8 26
67 32 137 3 36 8 81 11 100 4 29 1 40 -18 55 -18 16 -20 16 -9 2z"/>
<path d="M2625 3139 c-11 -17 1 -21 15 -4 8 9 8 15 2 15 -6 0 -14 -5 -17 -11z"/>
<path d="M491 2494 c0 -11 3 -14 6 -6 3 7 2 16 -1 19 -3 4 -6 -2 -5 -13z"/>
<path d="M482 2450 c0 -14 2 -19 5 -12 2 6 2 18 0 25 -3 6 -5 1 -5 -13z"/>
<path d="M412 2430 c0 -14 2 -19 5 -12 2 6 2 18 0 25 -3 6 -5 1 -5 -13z"/>
<path d="M377 2412 c-10 -10 -14 -22 -10 -25 12 -13 21 -7 25 18 6 30 6 30
-15 7z"/>
<path d="M452 2400 c0 -14 2 -19 5 -12 2 6 2 18 0 25 -3 6 -5 1 -5 -13z"/>
<path d="M472 2395 c0 -16 2 -22 5 -12 2 9 2 23 0 30 -3 6 -5 -1 -5 -18z"/>
<path d="M326 2352 c-24 -26 -25 -30 -11 -42 14 -12 18 -12 25 0 4 7 6 19 3
27 -3 7 0 20 7 28 21 26 5 16 -24 -13z"/>
<path d="M461 2344 c0 -11 3 -14 6 -6 3 7 2 16 -1 19 -3 4 -6 -2 -5 -13z"/>
<path d="M462 2300 c0 -14 2 -19 5 -12 2 6 2 18 0 25 -3 6 -5 1 -5 -13z"/>
<path d="M195 1860 c10 -11 20 -20 23 -20 3 0 -3 9 -13 20 -10 11 -20 20 -23
20 -3 0 3 -9 13 -20z"/>
<path d="M570 1680 c0 -12 42 -31 50 -23 6 5 -30 33 -42 33 -4 0 -8 -5 -8 -10z"/>
<path d="M670 1581 c0 -5 5 -13 10 -16 6 -3 10 -2 10 4 0 5 -4 13 -10 16 -5 3
-10 2 -10 -4z"/>
<path d="M745 1520 c10 -11 20 -20 23 -20 3 0 -3 9 -13 20 -10 11 -20 20 -23
20 -3 0 3 -9 13 -20z"/>
<path d="M1916 2275 c4 -9 16 -21 28 -27 19 -10 19 -9 -3 16 -28 30 -33 32
-25 11z"/>
<path d="M1685 2100 c-3 -5 -1 -10 4 -10 6 0 11 5 11 10 0 6 -2 10 -4 10 -3 0
-8 -4 -11 -10z"/>
<path d="M1701 1916 c-10 -12 -10 -19 2 -36 14 -21 15 -21 21 6 9 33 -6 51
-23 30z m11 -18 c-7 -7 -12 -8 -12 -2 0 6 3 14 7 17 3 4 9 5 12 2 2 -3 -1 -11
-7 -17z"/>
<path d="M4651 1576 c2 -2 15 -9 29 -15 24 -11 24 -11 6 3 -16 13 -49 24 -35
12z"/>
<path d="M4710 1546 c0 -2 8 -10 18 -17 15 -13 16 -12 3 4 -13 16 -21 21 -21
13z"/>
<path d="M4046 1477 c-40 -29 -44 -36 -32 -46 8 -7 42 -12 76 -12 67 0 100 7
100 22 0 9 -78 69 -90 69 -3 0 -28 -15 -54 -33z m64 13 c0 -5 5 -10 11 -10 6
0 22 -9 35 -19 20 -16 21 -20 8 -25 -48 -18 -93 10 -78 48 7 18 24 22 24 6z
m-30 -39 c0 -11 -40 -22 -52 -15 -5 3 -6 10 -3 15 8 12 55 12 55 0z"/>
<path d="M4130 1450 c0 -5 7 -10 16 -10 8 0 12 5 9 10 -3 6 -10 10 -16 10 -5
0 -9 -4 -9 -10z"/>
<path d="M2655 855 c-23 -22 -25 -32 -25 -110 l0 -85 110 0 110 0 0 90 c0 117
-11 130 -105 130 -57 0 -69 -3 -90 -25z"/>
<path d="M0 3040 c0 -5 7 -7 15 -4 19 8 19 14 0 14 -8 0 -15 -4 -15 -10z"/>
</g>
</svg>
