<?xml version="1.0" encoding="UTF-8" standalone="no"?>
<!-- Created with Inkscape (http://www.inkscape.org/) -->

<svg
   width="192"
   height="192"
   viewBox="0 0 192 192"
   version="1.1"
   xml:space="preserve"
   xmlns="http://www.w3.org/2000/svg"
   xmlns:svg="http://www.w3.org/2000/svg">
  <g style="fill:none;stroke:#000;stroke-linecap:round;stroke-linejoin:round">
    <path
      style="stroke-width:10"
      d="M 99.557383,119.16579 C 129.44765,118.34365 140.67475,100.29468 147.63975,65.30203 M 143.23111,49.499958 C 136.95138,42.397058 124.31301,42.081903 117.70189,44.660381 100.34343,51.430549 85.44155,66.120232 69.719952,78.868967 L 26.99975,80.038326 C 33.388586,95.092204 37.671501,102.03852 51.548067,100.87727 M 94.707944,112.16493 97.112352,119.07676 109.81245,154.07531 M 121.91521,133.39701 129.41886,154.07531" />
    <path
      style="stroke-width:8"
      d="M 146.79655,64.632335 166.00081,52.199013 142.85883,50.533536 M 116.37987,83.964979 C 113.06391,94.849712 104.20134,104.67977 93.575388,108.92754 80.110878,114.31004 42.077831,107.22588 30.902051,113.60498 L 51.87521,101.94049" />
    <circle
      style="stroke-width:6"
      cx="126.23092"
      cy="62.471367"
      r="3" />
  </g>
</svg>
