<?xml version="1.0" encoding="UTF-8" standalone="no"?>
<!-- Created with Inkscape (http://www.inkscape.org/) -->

<svg
   width="192"
   height="192"
   viewBox="0 0 192 192"
   version="1.1"
   xml:space="preserve"
   xmlns="http://www.w3.org/2000/svg"
   xmlns:svg="http://www.w3.org/2000/svg">
  <g style="fill:none;stroke:#000;stroke-linecap:round;stroke-linejoin:round">
    <path
    style="stroke-width:10"
    d="M 99.825316,118.36642 C 132.29787,117.47155 144.4949,97.825798 152.06162,59.737373 M 147.27211,42.537303 C 140.44986,34.806014 126.71963,34.462978 119.53737,37.269572 100.67927,44.638692 84.489987,60.627961 67.410167,74.504567 L 20.999277,75.777379 C 27.940058,92.163063 32.592983,99.723914 47.668374,98.459929 M 94.556924,110.7462 97.169054,118.26952 110.96634,156.36436 M 124.11468,133.85667 132.26659,156.36436 M 128.80324 56.656284 v 0" />
    <path
    style="stroke-width:8"
    d="M 151.14557,59.00843 172.00893,45.475141 146.86767,43.662321 M 118.10113,80.05142 C 114.4987,91.899118 104.87047,102.59883 93.326524,107.2224 78.698787,113.08109 37.379985,105.3702 25.238706,112.31365 L 48.02378,99.617212" />
  </g>
</svg>
