<?xml version="1.0" encoding="UTF-8"?>
<svg id="Layer_1" data-name="Layer 1" xmlns="http://www.w3.org/2000/svg" viewBox="0 0 192 192">
  <defs>
    <style>
      .cls-1 {
        fill: none;
        stroke: #000;
        stroke-linecap: round;
        stroke-linejoin: round;
        stroke-width: 12px;
      }
    </style>
  </defs>
  <path class="cls-1" d="m38.9,143.07c13.57,16.45,34.11,26.93,57.1,26.93s42.75-10.09,56.32-26"/>
  <path class="cls-1" d="m150.55,46c-13.53-14.75-32.96-24-54.55-24s-41.02,9.25-54.55,24"/>
  <path class="cls-1" d="m79.21,96h25.65m6.13-31h-32v62h32"/>
  <path class="cls-1" d="m22,127.92v-63h15.84c7.97,0,14.43,7.47,14.43,16.68h0c0,9.21-6.46,16.68-14.43,16.68h-11.14,3.25c5.33,0,10.23,3.4,12.74,8.84l9.58,20.81"/>
  <path class="cls-1" d="m170,122.43c-13.95,8.99-37.64,1.46-37.64-27.75s23.69-35.96,37.64-26.97"/>
</svg>