<?xml version="1.0" encoding="utf-8"?>
<!-- Generator: Adobe Illustrator 25.4.1, SVG Export Plug-In . SVG Version: 6.00 Build 0)  -->
<svg version="1.1" id="Layer_1" xmlns="http://www.w3.org/2000/svg" xmlns:xlink="http://www.w3.org/1999/xlink" x="0px" y="0px"
	 width="192px" height="192px" viewBox="0 0 192 192" style="enable-background:new 0 0 192 192;" xml:space="preserve">
<style type="text/css">
	.st0{fill:none;stroke:#000000;stroke-width:12;stroke-linecap:round;stroke-miterlimit:10;}
</style>
<g>
	<path class="st0" d="M22,88.2l64,53.6c5.9,5,14.7,5,20.6,0L170,88.9"/>
	<g>
		<path d="M105.8,104.3c-1.3-1.9-3.1-3.7-5.1-5c-2-1.3-4.4-2.3-6.9-2.6c-2.5-0.4-5.2-0.2-7.9,0.5c-2.6,0.7-5.3,2-7.6,3.6l-0.1,0.1
			c-0.8,0.6-2,0.4-2.5-0.4c-0.5-0.7-0.4-1.6,0.1-2.3c2.2-2.6,4.9-4.6,7.9-6.3c3-1.6,6.5-2.7,10.3-3c3.6-0.3,7.4,0.2,11.1,1.5
			c3.6,1.3,6.8,3.2,9.9,5.8l0.3,0.2c2.5,2.2,2.7,6.1,0.5,8.6c-2.2,2.5-6.1,2.7-8.6,0.5C106.4,105.1,106,104.7,105.8,104.3z"/>
	</g>
	<g>
		<path d="M124.6,92c-3.7-4.4-8.3-8.2-13.6-11c-2.6-1.4-5.3-2.5-8.2-3.3l-2.2-0.5c-0.7-0.1-1.5-0.3-2.2-0.4s-1.5-0.3-2.2-0.4
			l-2.2-0.2c-6-0.4-12.2,0.6-18,2.7c-5.8,2.1-11.5,5.3-16.3,9.4l0,0c-0.7,0.6-1.8,0.5-2.4-0.2c-0.6-0.7-0.5-1.6,0.1-2.2
			c4.7-4.9,10.4-8.9,16.5-12c6.2-3,13.1-5,20.2-5.3l2.7-0.1c0.9,0,1.8,0.1,2.7,0.1c0.9,0.1,1.8,0.1,2.7,0.2l2.7,0.4
			c3.5,0.6,7,1.5,10.5,2.9c6.7,2.6,13,6.6,18.3,11.7l0,0c2.4,2.3,2.5,6.1,0.2,8.5c-2.3,2.4-6.1,2.5-8.5,0.2
			C124.9,92.3,124.7,92.1,124.6,92z"/>
	</g>
	<g>
		<path d="M143.9,79.8c-5.9-7.3-13.6-13.7-22-18.2c-8.5-4.5-18.1-6.9-27.9-7.3c-4.8-0.1-9.8,0.3-14.6,1.3c-4.8,1-9.6,2.5-14.2,4.5
			c-4.6,2-8.9,4.4-13.2,7.2c-4.1,2.8-8.1,6-11.7,9.6l0,0c-0.7,0.7-1.8,0.7-2.5,0c-0.7-0.6-0.7-1.7-0.1-2.4c3.5-4,7.4-7.6,11.7-10.9
			c4.2-3.2,8.6-6.1,13.5-8.6c4.7-2.5,9.8-4.4,15-5.9c5.2-1.4,10.7-2.3,16.1-2.5c11-0.4,22,1.6,32.2,6.1
			c10.2,4.4,19.3,11.1,26.9,19.2c2.3,2.4,2.1,6.2-0.3,8.5c-2.4,2.3-6.2,2.1-8.5-0.3C144.1,80,144,79.9,143.9,79.8L143.9,79.8z"/>
	</g>
</g>
</svg>
