<svg width="192" height="192" viewBox="0 0 192 192" fill="none" xmlns="http://www.w3.org/2000/svg">
<path d="m162 24a6 6 0 0 0-4.2422 1.7578l-51.055 51.055c-3.1752-1.7867-6.8269-2.8125-10.703-2.8125-12.079 0-22 9.9208-22 22 0 12.079 9.9208 22 22 22 12.079 0 22-9.9208 22-22 0-3.8762-1.0258-7.5279-2.8125-10.703l51.055-51.055a6 6 0 0 0 0-8.4844 6 6 0 0 0-4.2422-1.7578zm-66 62c5.5939 0 10 4.4061 10 10s-4.4061 10-10 10-10-4.4061-10-10 4.4061-10 10-10zm1.8105-69.971c-21.322-0.47051-42.551 7.5742-58.379 23.402-31.192 31.192-31.192 81.945 0 113.14a6 6 0 0 0 8.4844 0 6 6 0 0 0 0-8.4844c-26.606-26.606-26.606-69.562 0-96.168 21.562-21.562 54.761-26.141 81.355-11.221a6 6 0 0 0 8.1699-2.2969 6 6 0 0 0-2.2969-8.168c-11.713-6.5716-24.541-9.9189-37.334-10.201zm64.334 37.963a6 6 0 0 0-4.5586 0.54492 6 6 0 0 0-2.2949 8.168c14.935 26.597 10.362 59.81-11.207 81.379a6 6 0 0 0 0 8.4844 6 6 0 0 0 8.4844 0c25.333-25.333 30.728-64.5 13.188-95.738a6 6 0 0 0-3.6113-2.8379z" fill="black"/>
</svg>
