<svg width="192" height="192" viewBox="0 0 192 192" fill="none" xmlns="http://www.w3.org/2000/svg"><path d="M44 50v76m104-76v76M72 22h48" stroke="#000" stroke-width="12" stroke-linecap="round" stroke-linejoin="round"/><path d="M44 54h30m44 0h30M44 80h30m44 0h30M44 106h30m44 0h30" stroke="#000" stroke-width="10" stroke-linecap="round" stroke-linejoin="round"/><circle cx="96.5" cy="150.5" r="19.5" stroke="#000" stroke-width="12" stroke-linecap="round" stroke-linejoin="round"/><path d="M72 22a27.999 27.999 0 0 0-28 28m0 76a27.997 27.997 0 0 0 18.515 26.345 28.016 28.016 0 0 0 11.243 1.6M148 126a28 28 0 0 1-29.758 27.945M148 50a28.002 28.002 0 0 0-28-28" stroke="#000" stroke-width="12" stroke-linecap="round" stroke-linejoin="round"/></svg>