<svg width="24" height="24" viewBox="0 0 24 24" fill="none" xmlns="http://www.w3.org/2000/svg">
<path d="M5.01833 14.1871L3.21975 15.44L12.1061 18.5549L20.9922 15.425L19.2354 14.1873C17.4099 14.495 15.2908 13.9498 13.8344 14.6306L13.8295 14.6328L13.8289 14.6331C13.6049 14.7347 13.402 14.8653 13.218 15.0352C12.8938 15.3255 12.6258 15.723 12.4311 16.265L12.106 17.759L11.791 16.3118C11.5581 15.6333 11.2144 15.1761 10.7914 14.8702C10.7847 14.8653 10.7778 14.8608 10.7711 14.856C10.7441 14.8369 10.7168 14.8181 10.6892 14.8002C9.25063 13.8671 6.97636 14.5173 5.01842 14.1873L5.01833 14.1871ZM22.1579 16.7133L21.8936 15.9572L13.0795 19.0395L13.2522 19.5335C12.2513 20.0706 11.9582 20.0651 10.9057 19.5335L11.0784 19.0395L2.26431 15.9572L2.26426 15.9572L2 16.7133L10.4159 19.6562L10.2287 20.1762C12.037 20.9222 12.037 20.9222 13.8992 20.1701L13.7195 19.6586" fill="white"/>
<path d="M20.1078 13.9262H20.1126H20.1197C20.2561 13.9251 20.3652 13.871 20.3652 13.8048V10.3886C20.3652 10.3218 20.2513 10.2665 20.1126 10.2665C19.9762 10.2665 19.8647 10.3206 19.8623 10.3868V13.8054C19.8635 13.8722 19.9702 13.9251 20.1078 13.9262Z" fill="white"/>
<path d="M19.213 13.5284H19.2201H19.2272C19.3624 13.5273 19.4715 13.4796 19.4715 13.4212V8.58506C19.4715 8.52561 19.3589 8.47736 19.2201 8.47736C19.0825 8.47736 18.971 8.5251 18.9686 8.58352V13.4222C18.971 13.4806 19.079 13.5273 19.213 13.5284Z" fill="white"/>
<path d="M18.3209 13.6278H18.328H18.3351C18.4707 13.6266 18.5788 13.5678 18.5788 13.4959V7.39359C18.5788 7.32039 18.4671 7.26099 18.328 7.26099C18.1913 7.26099 18.0771 7.31979 18.0759 7.3917V13.4971C18.0772 13.569 18.1866 13.6266 18.3209 13.6278Z" fill="white"/>
<path d="M17.4284 13.6676H17.4355H17.4425C17.5759 13.6666 17.6869 13.6197 17.6869 13.5623V8.16907C17.6869 8.11069 17.5736 8.06329 17.4355 8.06329C17.2997 8.06329 17.1864 8.11018 17.184 8.16757V13.5633C17.1852 13.6207 17.2938 13.6666 17.4284 13.6676Z" fill="white"/>
<path d="M16.5356 13.6278H16.5416H16.5487C16.6842 13.6268 16.7936 13.5774 16.7936 13.5169V5.13564C16.7936 5.07414 16.6807 5.02417 16.5415 5.02417C16.4036 5.02417 16.2919 5.07307 16.2907 5.13406V13.5179C16.2919 13.5784 16.4013 13.6268 16.5356 13.6278Z" fill="white"/>
<path d="M15.6436 13.6278H15.6507H15.6578C15.7919 13.6268 15.901 13.5813 15.901 13.5256V6.25709C15.901 6.20039 15.7883 6.15436 15.6507 6.15436C15.5119 6.15436 15.4005 6.19992 15.3981 6.2561V13.5261C15.4005 13.5823 15.5096 13.6269 15.6436 13.6278Z" fill="white"/>
<path d="M14.7489 13.6676H14.756H14.7631C14.8995 13.6663 15.0086 13.6075 15.0086 13.5355V8.61019C15.0086 8.5369 14.8948 8.47742 14.756 8.47742C14.6196 8.47742 14.5081 8.5363 14.5058 8.60831V13.5367C14.507 13.6087 14.6149 13.6663 14.7489 13.6676Z" fill="white"/>
<path d="M13.8574 13.7625H13.8645H13.8716C14.0065 13.7615 14.1154 13.7131 14.1154 13.6539V4.85076C14.1154 4.79054 14.0018 4.74164 13.8645 4.74164C13.7272 4.74164 13.6149 4.79002 13.6125 4.84921V13.6544C13.6148 13.7141 13.7237 13.7615 13.8574 13.7625Z" fill="white"/>
<path d="M12.9645 14.2397H12.9705H12.9776C13.1131 14.2385 13.2237 14.1847 13.2237 14.1188V3.12137C13.2237 3.05439 13.1096 3 12.9705 3C12.8338 3 12.7221 3.05383 12.7209 3.11966V14.1194C12.7209 14.1858 12.829 14.2385 12.9645 14.2397Z" fill="white"/>
<path d="M12.0724 15.0579H12.0783H12.0854C12.2206 15.0565 12.3297 14.993 12.3297 14.9151V6.29776C12.3297 6.2186 12.2171 6.15436 12.0783 6.15436C11.9407 6.15436 11.8292 6.21727 11.8268 6.29575V14.9165C11.828 14.9943 11.9371 15.0566 12.0724 15.0579Z" fill="white"/>
<path d="M11.1801 14.2396H11.186H11.1931C11.3283 14.2385 11.4374 14.1849 11.4374 14.1194V4.18913C11.4374 4.12249 11.3247 4.06836 11.186 4.06836C11.0484 4.06836 10.9357 4.12133 10.9345 4.18742V14.1217C10.9357 14.186 11.0448 14.2385 11.1801 14.2396Z" fill="white"/>
<path d="M10.2865 13.7625H10.2937H10.2996C10.4359 13.7612 10.5451 13.7011 10.5451 13.6276V6.52591C10.5451 6.45172 10.4312 6.39099 10.2936 6.39099C10.156 6.39099 10.0434 6.45048 10.0422 6.52462V13.6288C10.0434 13.7024 10.1514 13.7612 10.2865 13.7625Z" fill="white"/>
<path d="M9.39359 13.6676H9.40071H9.40662C9.543 13.6661 9.65211 13.5935 9.65211 13.5049V5.98076C9.65211 5.89055 9.53824 5.81726 9.40066 5.81726C9.26309 5.81726 9.15042 5.88901 9.14922 5.97845V13.5065C9.15046 13.5951 9.25958 13.6661 9.39359 13.6676Z" fill="white"/>
<path d="M8.5018 13.6278H8.50771H8.51483C8.6512 13.6266 8.75916 13.5681 8.75916 13.4965V7.36141C8.75916 7.28859 8.64649 7.22949 8.50771 7.22949C8.37014 7.22949 8.25866 7.28799 8.25626 7.36017V13.4978C8.25866 13.5693 8.36658 13.6266 8.5018 13.6278Z" fill="white"/>
<path d="M7.6095 13.6278H7.61541H7.62252C7.75774 13.6266 7.86686 13.5682 7.86686 13.4968V5.49791C7.86686 5.42531 7.75418 5.36633 7.61541 5.36633C7.47783 5.36633 7.36636 5.42406 7.36396 5.49606V13.5C7.36636 13.5695 7.47312 13.6266 7.6095 13.6278Z" fill="white"/>
<path d="M6.71534 13.6676H6.72246H6.72957C6.86479 13.6664 6.97391 13.6061 6.97391 13.5323V7.87132C6.97391 7.79624 6.86123 7.73529 6.72246 7.73529C6.58488 7.73529 6.47221 7.79559 6.47101 7.87004V13.5335C6.47221 13.6073 6.58133 13.6664 6.71534 13.6676Z" fill="white"/>
<path d="M5.82304 13.6278H5.83015H5.83607C5.97244 13.6266 6.08156 13.5678 6.08156 13.4959V10.7913C6.08156 10.7181 5.96768 10.658 5.83011 10.658C5.69253 10.658 5.57986 10.7168 5.57866 10.7894V13.4971C5.5799 13.569 5.68902 13.6266 5.82304 13.6278Z" fill="white"/>
<path d="M4.93123 13.5284H4.93715H4.94426C5.07948 13.5273 5.1886 13.4769 5.1886 13.4151V8.59069C5.1886 8.52842 5.07592 8.47742 4.93715 8.47742C4.79957 8.47742 4.6881 8.52735 4.6857 8.58962V13.4162C4.6869 13.4779 4.79602 13.5273 4.93123 13.5284Z" fill="white"/>
<path d="M3.79275 13.7836C3.79511 13.8621 3.90307 13.9249 4.03824 13.9262H4.04416H4.05127C4.18649 13.9249 4.29561 13.8607 4.29561 13.7822V11.9014C4.29561 11.8215 4.18293 11.7574 4.04416 11.7574C3.90658 11.7574 3.79511 11.8215 3.79271 11.9" fill="white"/>
</svg>
