<svg xmlns="http://www.w3.org/2000/svg" xml:space="preserve" width="192" height="192" viewBox="0 0 50.8 50.8"><g style="display:inline"><path d="M5.82 41.804s14.818-.363 18.522-8.996c3.704-8.632-1.852-12.7-5.292-11.641-3.035.933-3.175-5.027 0-5.292 5.273-.44 7.04 2.982 8.364 4.304 2.116 2.117 4.65 3.38 4.65 3.38" style="display:inline;fill:none;stroke:#000;stroke-width:3.175;stroke-linecap:round;stroke-linejoin:round;stroke-dasharray:none;stroke-opacity:1"/><path d="M5.82 26.987c2.382 1.588 2.594 2.315 4.249 2.646 6.251 1.251 5.936-2.903 3.309-4.762-3.012-2.132-4.77-9.593.335-13.61.996-.784 2.747-1.821 4.943-2.202 2.677-.464 5.681-.378 8.327.082 3.079.535 6.847 1.614 8.443 6.506" style="opacity:1;fill:none;stroke:#000;stroke-width:3.175;stroke-linecap:round;stroke-linejoin:round;stroke-dasharray:none;stroke-opacity:1"/><path d="m45.508 35.983-10.811-10.14 1.347-1.48-.223-4.919z" style="fill:none;stroke:#000;stroke-width:2.11667;stroke-linecap:round;stroke-linejoin:round;stroke-dasharray:none;stroke-opacity:1"/><circle cx="30.956" cy="16.669" r=".794" stroke="#000" stroke-width="1.587" style="stroke-linecap:round;paint-order:stroke fill markers"/></g></svg>