<svg width="24" height="24" xmlns="http://www.w3.org/2000/svg">
  <path fill="#000" d="M5.75 1.031a.75.75 0 0 0-.531.219.75.75 0 0 0 0 1.062L7.2 4.294a7.375 7.375 0 0 0-2.576 5.58 1 1 0 0 0 1 1h12.75a1 1 0 0 0 1-1 7.375 7.375 0 0 0-2.566-5.59l1.973-1.973a.75.75 0 0 0 0-1.062.75.75 0 0 0-.531-.219.75.75 0 0 0-.532.219l-2.164 2.164A7.375 7.375 0 0 0 12 2.499a7.375 7.375 0 0 0-3.549.92l-2.17-2.17a.75.75 0 0 0-.53-.22zM8.699 6.5A1.2 1.2 0 0 1 9.9 7.699 1.2 1.2 0 0 1 8.699 8.9 1.2 1.2 0 0 1 7.5 7.699 1.2 1.2 0 0 1 8.699 6.5zm6.602 0A1.2 1.2 0 0 1 16.5 7.699 1.2 1.2 0 0 1 15.301 8.9 1.2 1.2 0 0 1 14.1 7.699 1.2 1.2 0 0 1 15.301 6.5zm-9.676 5.596a1 1 0 0 0-1 1v2.029A7.375 7.375 0 0 0 12 22.5a7.375 7.375 0 0 0 7.375-7.375v-2.029a1 1 0 0 0-1-1zm6.373 1.053a1 1 0 0 1 .5.133 1 1 0 0 1 .37 1.365l-1.946 3.377H8.977a1.375 1.375 0 0 0-.398.064l2.555-4.438a1 1 0 0 1 .607-.467 1 1 0 0 1 .258-.035zm1.338 1.318 2.553 4.434a1 1 0 0 1-.367 1.365 1 1 0 0 1-1.365-.37l-1.94-3.368.975-1.693a1.375 1.375 0 0 0 .145-.367zm-4.359 3.932h3.885l.97 1.686a1.375 1.375 0 0 0 .26.315H8.979a1 1 0 0 1-1-1 1 1 0 0 1 1-1z"/>
</svg>
