<svg width="24" height="24" xmlns="http://www.w3.org/2000/svg">
  <path fill="#000" d="M6.178 2a.699.699 0 0 0-.495.204.699.699 0 0 0 0 .99L7.53 5.04a6.87 6.87 0 0 0-2.4 5.198.932.932 0 0 0 .932.931h11.88a.932.932 0 0 0 .931-.931 6.87 6.87 0 0 0-2.39-5.207l1.837-1.838a.699.699 0 0 0 0-.99.699.699 0 0 0-.495-.204.699.699 0 0 0-.495.204L15.314 4.22a6.87 6.87 0 0 0-3.31-.852 6.87 6.87 0 0 0-3.307.857l-2.02-2.02A.699.699 0 0 0 6.181 2zm2.747 5.095a1.118 1.118 0 0 1 1.119 1.117 1.118 1.118 0 0 1-1.119 1.119 1.118 1.118 0 0 1-1.117-1.119 1.118 1.118 0 0 1 1.117-1.117zm6.15 0a1.118 1.118 0 0 1 1.117 1.117 1.118 1.118 0 0 1-1.117 1.119 1.118 1.118 0 0 1-1.119-1.119 1.118 1.118 0 0 1 1.119-1.117zm-9.014 5.213a.932.932 0 0 0-.932.932v1.89A6.87 6.87 0 0 0 12 22a6.87 6.87 0 0 0 6.87-6.87v-1.89a.932.932 0 0 0-.931-.932zm5.937.98a.932.932 0 0 1 .466.124.932.932 0 0 1 .344 1.272l-1.812 3.146H9.184a1.281 1.281 0 0 0-.371.06l2.38-4.134a.932.932 0 0 1 .565-.434.932.932 0 0 1 .24-.033zm1.246 1.229 2.378 4.13a.932.932 0 0 1-.342 1.272.932.932 0 0 1-1.272-.344l-1.807-3.14.908-1.577a1.281 1.281 0 0 0 .134-.342zM9.183 18.18h3.619l.904 1.57a1.281 1.281 0 0 0 .242.293H9.183a.932.932 0 0 1-.931-.932.932.932 0 0 1 .931-.932z" />
</svg>
