<?xml version="1.0" encoding="UTF-8" standalone="no"?>
<svg
   id="Layer_1"
   data-name="Layer 1"
   viewBox="0 0 24 24"
   version="1.1"
   sodipodi:docname="aurora_store.svg"
   inkscape:version="1.1.1 (3bf5ae0d25, 2021-09-20)"
   xmlns:inkscape="http://www.inkscape.org/namespaces/inkscape"
   xmlns:sodipodi="http://sodipodi.sourceforge.net/DTD/sodipodi-0.dtd"
   xmlns="http://www.w3.org/2000/svg"
   xmlns:svg="http://www.w3.org/2000/svg">
  <defs
     id="defs17">
    <inkscape:path-effect
       effect="fillet_chamfer"
       id="path-effect1667"
       is_visible="true"
       lpeversion="1"
       satellites_param="F,0,0,1,0,2,0,1 @ F,0,0,1,0,2,0,1 @ F,0,1,1,0,1,0,1 @ F,0,1,1,0,1,0,1"
       unit="px"
       method="auto"
       mode="F"
       radius="1"
       chamfer_steps="1"
       flexible="false"
       use_knot_distance="true"
       apply_no_radius="true"
       apply_with_radius="true"
       only_selected="true"
       hide_knots="false" />
  </defs>
  <sodipodi:namedview
     id="namedview15"
     pagecolor="#ffffff"
     bordercolor="#666666"
     borderopacity="1.0"
     inkscape:pageshadow="2"
     inkscape:pageopacity="0.0"
     inkscape:pagecheckerboard="0"
     showgrid="true"
     inkscape:zoom="32"
     inkscape:cx="5.765625"
     inkscape:cy="12.03125"
     inkscape:window-width="2560"
     inkscape:window-height="1011"
     inkscape:window-x="0"
     inkscape:window-y="32"
     inkscape:window-maximized="1"
     inkscape:current-layer="Layer_1">
    <inkscape:grid
       type="xygrid"
       id="grid1786"
       empspacing="1" />
  </sodipodi:namedview>
  <path
     id="rect1346"
     style="fill:#000000;stroke-width:0.869414"
     d="M 3.5268254,9.4941406 C 2.5199627,9.4948777 1.7891742,10.452463 2.0541694,11.423828 l 2.181667,8.105469 c 0.1553601,0.569842 0.6730314,0.965096 1.263672,0.964844 H 18.499508 c 0.590633,2.28e-4 1.108291,-0.395016 1.263672,-0.964844 l 2.182622,-8.105469 C 22.211086,10.451666 21.4789,9.4935204 20.471192,9.4941406 Z M 11.933102,11.625 c 0.0763,-0.0015 0.152472,0.0071 0.226562,0.02539 0.225062,0.05693 0.418276,0.20096 0.537109,0.40039 l 3,5 c 0.247649,0.41428 0.113069,0.950853 -0.300781,1.19922 -0.41428,0.247649 -0.950852,0.113069 -1.199219,-0.300781 l -3,-5 c -0.247649,-0.41428 -0.113068,-0.950853 0.300782,-1.199219 0.131688,-0.07919 0.281907,-0.122301 0.435547,-0.125 z m -1.28125,1.333984 c 0.02961,0.08435 0.06776,0.166694 0.115234,0.246094 v 0.002 l 0.886719,1.478516 -0.863282,1.439453 H 8.9467734 c -0.06998,0 -0.137768,0.0072 -0.205078,0.01758 z M 8.9467734,16.625 h 3.8710936 l 0.949219,1.582031 c 0.03619,0.06031 0.07733,0.115339 0.121094,0.167969 H 8.9467734 c -0.4832492,0 -0.875,-0.391751 -0.875,-0.875 0,-0.483249 0.3917508,-0.875 0.875,-0.875 z"
     sodipodi:nodetypes="cccccccccccccccccccccccsccscccsss" />
  <path
     style="fill:none;stroke:#000000;stroke-width:2;stroke-linecap:round;stroke-linejoin:miter;stroke-miterlimit:4;stroke-dasharray:none;stroke-opacity:1"
     d="M 7.9994834,11 11.999483,4"
     id="path1934" />
  <path
     id="path2034"
     style="color:#000000;fill:#000000;stroke-linecap:round;-inkscape-stroke:none"
     d="m 13.727999,5.0078125 -1.152344,2.0175781 2.554687,4.4707034 a 1,1 0 0 0 1.365235,0.373047 1,1 0 0 0 0.373047,-1.365234 z" />
</svg>
