<?xml version="1.0" encoding="UTF-8" standalone="no"?>
<svg
   width="192"
   height="192"
   viewBox="0 0 11.52 11.52"
   id="b"
   version="1.1"
   sodipodi:docname="aus_post.svg"
   inkscape:version="1.3.2 (091e20e, 2023-11-25, custom)"
   xmlns:inkscape="http://www.inkscape.org/namespaces/inkscape"
   xmlns:sodipodi="http://sodipodi.sourceforge.net/DTD/sodipodi-0.dtd"
   xmlns="http://www.w3.org/2000/svg"
   xmlns:svg="http://www.w3.org/2000/svg">
  <sodipodi:namedview
     id="namedview1"
     pagecolor="#ffffff"
     bordercolor="#000000"
     borderopacity="0.25"
     inkscape:showpageshadow="2"
     inkscape:pageopacity="0.0"
     inkscape:pagecheckerboard="0"
     inkscape:deskcolor="#d1d1d1"
     inkscape:zoom="4.234375"
     inkscape:cx="96"
     inkscape:cy="96"
     inkscape:window-width="1920"
     inkscape:window-height="1009"
     inkscape:window-x="-8"
     inkscape:window-y="-8"
     inkscape:window-maximized="1"
     inkscape:current-layer="b" />
  <defs
     id="defs1">
    <style
       id="style1">.c{fill:none;stroke:#000000;stroke-linecap:round;stroke-linejoin:round;}</style>
  </defs>
  <path
     class="c"
     d="m 5.2956182,7.4069446 v 2.7691704 m 0,-8.8310742 V 1.8554425 M 4.1690369,1.6146869 v 8.289856 M 5.2956182,1.854961 c 1.0607835,-0.1115018 2.0930014,0.3916291 2.6583783,1.2968699 0.5648955,0.9052412 0.5648955,2.0528425 0,2.9577624 C 7.3891011,7.0148341 6.3572042,7.5172107 5.2956182,7.4064631 m 0,-6.0619038 c 1.6882668,-0.1781591 3.3298337,0.6227545 4.2294937,2.0627933 0.9003031,1.4397186 0.9003031,3.2659296 0,4.7054876 C 8.6248097,9.5525581 6.983885,10.35299 5.2956182,10.175633 M 4.1690369,9.9043824 C 2.4528462,9.2463172 1.320006,7.5974628 1.320006,5.7593742 c 0,-1.838249 1.1330005,-3.4863011 2.8490309,-4.1450082"
     id="path1"
     style="stroke-width:0.720012;stroke-dasharray:none" />
</svg>
