<svg xmlns="http://www.w3.org/2000/svg" xml:space="preserve" width="192" height="192"><g fill="none" stroke="#000" stroke-linecap="round" stroke-linejoin="round" stroke-miterlimit="15" stroke-width="8" paint-order="markers stroke fill"><path d="M103.29 46.613a49.122 49.948 0 0 1 41.834 49.397 49.122 49.948 0 0 1-41.838 49.394m-14.041-.034a49.122 49.948 0 0 1-41.624-49.352 49.122 49.948 0 0 1 41.603-49.37"/><path d="M103.29 20.047a76.2 76.311 0 0 1 68.917 75.947 76.2 76.311 0 0 1-68.89 75.972M89.068 172a76.2 76.311 0 0 1-69.257-76.055 76.2 76.311 0 0 1 69.38-75.943m0-.001.033 26.647m.021 98.722-.177 26.628M103.29 145.4l.026 26.563m-.026-151.916.005 26.566"/></g></svg>