<svg width="192" height="192" viewBox="0 0 192 192" fill="none" xmlns="http://www.w3.org/2000/svg"><path d="M40 119H28a6 6 0 0 1-6-6V85.334a6 6 0 0 1 1.577-4.054l18.64-20.334A6 6 0 0 1 46.639 59h55.52c1.2 0 2.372.36 3.365 1.032l28.614 19.384c.57.386 1.203.672 1.871.843l29.485 7.582A6 6 0 0 1 170 93.652V113a6 6 0 0 1-6 6h-16m-80 0h52" stroke="#000" stroke-width="12" stroke-linecap="round" stroke-linejoin="round"/><circle cx="54" cy="119" r="14" stroke="#000" stroke-width="12" stroke-linecap="round" stroke-linejoin="round"/><circle cx="134" cy="119" r="14" stroke="#000" stroke-width="12" stroke-linecap="round" stroke-linejoin="round"/></svg>