<svg width="192" height="192" viewBox="0 0 192 192" fill="none" xmlns="http://www.w3.org/2000/svg"><path d="M74.5 24.6 56 32l4.247 17.063a59.399 59.399 0 0 0-11.2 11.204L32 56 22 78l15 18-15 18 10 22 17.09-4.212a59.398 59.398 0 0 0 11.133 11.131L56 160l14.5 7.733M120.275 24.6 136 32l-4.256 17.056a59.273 59.273 0 0 1 11.139 11.12L160 56l10 22-15 18 15 18-10 22-17.042-4.274a59.31 59.31 0 0 1-11.196 11.204L136 160l-22 7.333" stroke="#000" stroke-width="12" stroke-linecap="round" stroke-linejoin="round"/><path d="m62 115 37-93 1 60 28-5-37 93-2-62-27 7Z" stroke="#000" stroke-width="12" stroke-linecap="round" stroke-linejoin="round"/></svg>