<svg width="192" height="192" viewBox="0 0 192 192" fill="none" xmlns="http://www.w3.org/2000/svg"><path d="M96 68a4.162 4.162 0 0 0-3.949 2.846L75 122m21-54a4.162 4.162 0 0 1 3.949 2.846L117 122M99.949 70.846A4.162 4.162 0 0 0 96 68m14 38H82Z" fill="#000"/><path d="m75 122 17.051-51.154A4.162 4.162 0 0 1 96 68v0a4.162 4.162 0 0 1 3.949 2.846L117 122m-7-16H82" stroke="#000" stroke-width="12" stroke-linecap="round"/><path d="M100.238 23.753a6 6 0 0 0-8.486 0L79.148 36.357m12.604 131.88a5.999 5.999 0 0 0 8.486 0l12.604-12.604m55.395-55.395a5.999 5.999 0 0 0 0-8.486l-12.604-12.604M23.753 91.752a6 6 0 0 0 0 8.486l12.604 12.604m55.395-89.09a6 6 0 0 1 8.486 0l12.604 12.605m-12.604 131.88a5.999 5.999 0 0 1-8.486 0l-12.604-12.604m89.089-63.88a5.999 5.999 0 0 1 0 8.485l-12.604 12.604m-131.88-12.604a6 6 0 0 1 0-8.486l12.604-12.604m42.79-42.79a6 6 0 0 1-4.242 1.757h-30.79m68.727 117.518a6 6 0 0 1 4.243-1.757h30.791m7.757-74.728a6 6 0 0 1-1.757-4.243v-30.79M36.357 112.841a6 6 0 0 1 1.758 4.243v30.791m115.76-103.761a6 6 0 0 0-6-6h-30.791m-78.97 109.762a6 6 0 0 0 6 6h30.79m72.971 0a6 6 0 0 0 6-6v-30.791M44.114 38.115a6 6 0 0 0-6 6v30.79" fill="#000" stroke="#000" stroke-width="12" stroke-linecap="round"/></svg>