<?xml version="1.0" encoding="UTF-8" standalone="no"?>
<!-- Created with Inkscape (http://www.inkscape.org/) -->

<svg
   width="192"
   height="192"
   viewBox="0 0 50.799999 50.8"
   version="1.1"
   id="svg5"
   xml:space="preserve"
   xmlns="http://www.w3.org/2000/svg"
   xmlns:svg="http://www.w3.org/2000/svg"><defs
     id="defs2" /><g
     id="layer2"
     style="display:inline;stroke-width:1.00024;stroke-dasharray:none"
     transform="matrix(0.9883035,0,0,0.98660294,0.0681706,-0.03106273)"><path
       style="fill:none;stroke:#000000;stroke-width:3.21534;stroke-linecap:round;stroke-linejoin:round;stroke-miterlimit:1;stroke-dasharray:none"
       d="m 25.894083,5.9456407 c 0,0 9.679317,-0.8928711 16.163519,7.9888453 0,0 4.651709,5.921145 3.054151,14.332932 0,0 -5.356513,1.738748 -8.83355,0.047 0,0 3.383063,-9.492632 -6.672147,-13.346074 0,0 0.563844,-4.887293 -3.711973,-9.0226973 z"
       id="path1648" /><path
       style="fill:none;stroke:#000000;stroke-width:3.21534;stroke-linecap:round;stroke-linejoin:round;stroke-miterlimit:1;stroke-dasharray:none"
       d="m 34.046558,33.166135 c 0,0 5.12158,1.785743 9.397395,0.234968 0,0 -2.396337,8.975704 -13.62622,11.795296 0,0 -8.081758,2.443648 -16.069542,-3.900436 0,0 -1.033713,-3.336518 3.664983,-8.505773 0,0 7.611886,9.727595 16.633384,0.375945 z"
       id="path1650" /><path
       style="fill:none;stroke:#000000;stroke-width:3.21534;stroke-linecap:round;stroke-linejoin:round;stroke-miterlimit:1;stroke-dasharray:none"
       d="m 9.783208,36.79291 c 0,0 0.328908,-5.216248 4.698696,-9.398642 0,0 -2.208388,-10.714453 9.773288,-12.594182 0,0 0.516858,-4.182397 -3.946904,-7.9418532 0,0 -8.739576,1.31581 -13.1093633,10.8554322 0,0 -4.4167745,10.855432 2.5842833,19.079245 z"
       id="path2378" /></g></svg>
