<svg xmlns="http://www.w3.org/2000/svg" width="192" height="192" fill="none" stroke="#000" stroke-linejoin="round" viewBox="0 0 192 192"><path stroke-width="12" d="M88 22h16l6.267 18.8a56.7 56.7 0 0 1 14.672 6.082l17.73-8.865 11.314 11.314-8.865 17.73a56.7 56.7 0 0 1 6.082 14.672L170 88v16l-18.8 6.267a56.7 56.7 0 0 1-6.082 14.672l8.865 17.73-11.314 11.314-17.73-8.865a56.7 56.7 0 0 1-14.672 6.082L104 170H88l-6.267-18.8a56.7 56.7 0 0 1-14.672-6.082l-17.73 8.865-11.314-11.314 8.865-17.73a56.7 56.7 0 0 1-6.082-14.672L22 104V88l18.8-6.267a56.7 56.7 0 0 1 6.082-14.672l-8.865-17.73 11.314-11.314 17.73 8.865A56.7 56.7 0 0 1 81.733 40.8z"/><path stroke-linecap="round" stroke-width="10" d="M101 114h24m-54 0 20-20-20-20"/></svg>