<svg xmlns="http://www.w3.org/2000/svg" width="192" height="192" fill="none" stroke="#000" stroke-linecap="round" stroke-linejoin="round" stroke-width="12" viewBox="0 0 192 192"><path d="m76 24-20 8 4.247 17.063a59.4 59.4 0 0 0-11.2 11.204L32 56 22 78l15 18-15 18 10 22 17.09-4.212a59.4 59.4 0 0 0 11.133 11.131L56 160l15 8m48-144 17 8-4.256 17.056a59.3 59.3 0 0 1 11.139 11.12L160 56l10 22-15 18 15 18-10 22-17.042-4.274a59.3 59.3 0 0 1-11.196 11.204L136 160l-24 8"/><path d="m62 116 36-94 2 60 28-5-37 93-2-62z"/></svg>