<svg xmlns="http://www.w3.org/2000/svg" width="192" height="192" fill="none"><path stroke="#000" stroke-linecap="round" stroke-linejoin="round" stroke-width="8" d="M72 84v7.667c0 5.81 2.529 11.381 7.03 15.489 4.5 4.108 10.605 6.415 16.97 6.415M120 84v7.667c0 5.81-2.529 11.381-7.029 15.489-4.501 4.108-10.606 6.415-16.971 6.415m0 0V130m-12.218 0h24.436M88 88.944V67.055c0-1.057.207-2.105.609-3.083a8.1 8.1 0 0 1 1.734-2.613 8 8 0 0 1 2.596-1.747 7.95 7.95 0 0 1 8.718 1.747 8.1 8.1 0 0 1 1.734 2.613c.402.978.609 2.026.609 3.084v21.886a8.1 8.1 0 0 1-2.343 5.697A7.97 7.97 0 0 1 96 97a7.97 7.97 0 0 1-5.657-2.36A8.1 8.1 0 0 1 88 88.943Z"/><path stroke="#000" stroke-linecap="round" stroke-linejoin="round" stroke-width="12" d="M88 22h16l6.267 18.8a56.7 56.7 0 0 1 14.672 6.082l17.73-8.865 11.314 11.314-8.865 17.73a56.7 56.7 0 0 1 6.082 14.672L170 88v16l-18.8 6.267a56.7 56.7 0 0 1-6.082 14.672l8.865 17.73-11.314 11.314-17.73-8.865a56.7 56.7 0 0 1-14.672 6.082L104 170H88l-6.267-18.8a56.7 56.7 0 0 1-14.672-6.082l-17.73 8.865-11.314-11.314 8.865-17.73a56.7 56.7 0 0 1-6.082-14.672L22 104V88l18.8-6.267a56.7 56.7 0 0 1 6.082-14.672l-8.865-17.73 11.314-11.314 17.73 8.865A56.7 56.7 0 0 1 81.733 40.8z"/></svg>