<?xml version="1.0" encoding="UTF-8" standalone="no"?>
<svg
   width="192"
   height="192"
   viewBox="0 0 192 192"
   fill="none"
   version="1.1"
   id="svg4"
   sodipodi:docname="auto_web.svg"
   inkscape:version="1.3.2 (091e20e, 2023-11-25, custom)"
   xmlns:inkscape="http://www.inkscape.org/namespaces/inkscape"
   xmlns:sodipodi="http://sodipodi.sourceforge.net/DTD/sodipodi-0.dtd"
   xmlns="http://www.w3.org/2000/svg"
   xmlns:svg="http://www.w3.org/2000/svg">
  <defs
     id="defs4" />
  <sodipodi:namedview
     id="namedview4"
     pagecolor="#ffffff"
     bordercolor="#000000"
     borderopacity="0.25"
     inkscape:showpageshadow="2"
     inkscape:pageopacity="0.0"
     inkscape:pagecheckerboard="0"
     inkscape:deskcolor="#d1d1d1"
     inkscape:zoom="4.234375"
     inkscape:cx="132.60517"
     inkscape:cy="82.774908"
     inkscape:window-width="1920"
     inkscape:window-height="1009"
     inkscape:window-x="-8"
     inkscape:window-y="-8"
     inkscape:window-maximized="1"
     inkscape:current-layer="svg4" />
  <path
     d="M88 22h16l6.267 18.8a56.67 56.67 0 0 1 14.672 6.082l17.73-8.865 11.314 11.314-8.865 17.73a56.663 56.663 0 0 1 6.082 14.672L170 88v16l-18.8 6.267a56.673 56.673 0 0 1-6.082 14.672l8.865 17.73-11.314 11.314-17.73-8.865a56.673 56.673 0 0 1-14.672 6.082L104 170H88l-6.267-18.8a56.663 56.663 0 0 1-14.672-6.082l-17.73 8.865-11.314-11.314 8.865-17.73a56.67 56.67 0 0 1-6.082-14.672L22 104V88l18.8-6.267a56.66 56.66 0 0 1 6.082-14.672l-8.865-17.73 11.314-11.314 17.73 8.865A56.66 56.66 0 0 1 81.733 40.8L88 22Z"
     stroke="#000"
     stroke-width="12"
     stroke-linecap="round"
     stroke-linejoin="round"
     id="path4" />
  <circle
     cx="96"
     cy="96"
     r="34.083992"
     id="circle1"
     style="fill:none;stroke:#000000;stroke-width:8;stroke-dasharray:none;stroke-opacity:1" />
  <ellipse
     cx="96"
     cy="96"
     rx="13.817836"
     ry="34.083992"
     id="ellipse1"
     style="fill:none;stroke:#000000;stroke-width:8;stroke-dasharray:none;stroke-opacity:1" />
  <path
     d="M 64.679569,84.945729 H 127.32043 M 64.679569,107.05427 h 62.640861"
     id="path1"
     style="fill:none;stroke:#000000;stroke-width:8;stroke-dasharray:none;stroke-opacity:1" />
</svg>
