<svg width="192" height="192" fill="none" xmlns="http://www.w3.org/2000/svg"><path d="M61.414 139.232c6.603.847 12.64-3.812 13.483-10.406.844-6.594-3.824-12.626-10.427-13.473-6.603-.847-12.64 3.812-13.483 10.406-.845 6.595 3.824 12.627 10.427 13.473Z" stroke="#000" stroke-width="12" stroke-linecap="round" stroke-linejoin="round"/><path d="M32.716 115.606c4.677 4.525 3.893 11.704-1.978 15.373l-6.867 4.691c-1.573 1.075-2.35 2.478-1.557 4.53l2.77 6.571c.912 1.973 2.356 2.676 4.344 2.081l8.267-1.403c6.273-1.755 12.138 2.52 12.408 9.414l.62 8.41c.156 1.934 1.01 3.337 3.24 3.692l7.262.931c2.221.208 3.583-.701 4.065-2.754l2.63-8.006c1.598-6.281 8.246-9.184 14.387-5.96l7.683 3.117c1.644.781 3.182.751 4.508-.874l4.135-5.397c1.202-1.687 1.096-3.206-.35-4.555l-5.115-6.488c-4.676-4.525-3.893-11.704 1.978-15.373l6.867-4.691c1.573-1.074 2.35-2.478 1.558-4.53l-2.77-6.571c-.913-1.972-2.357-2.676-4.344-2.081l-8.268 1.403c-6.273 1.756-12.138-2.52-12.408-9.413l-.62-8.41c-.156-1.935-1.01-3.337-3.24-3.692l-7.262-.932c-2.22-.208-3.583.701-4.065 2.755l-2.63 8.006c-1.597 6.28-8.246 9.184-14.387 5.959l-7.853-3.117c-1.606-.762-3.108-.733-4.404.854l-4.038 5.271c-1.174 1.648-1.07 3.132-.365 3.791l5.8 7.398Z" stroke="#000" stroke-width="12"/><path d="M127.529 76.572c6.603.847 12.64-3.812 13.484-10.406.844-6.594-3.824-12.626-10.427-13.473-6.603-.847-12.64 3.812-13.484 10.406-.844 6.594 3.825 12.627 10.427 13.473Z" stroke="#000" stroke-width="12" stroke-linecap="round" stroke-linejoin="round"/><path d="M98.832 52.946c4.676 4.525 3.892 11.704-1.978 15.373l-6.867 4.691c-1.573 1.075-2.35 2.478-1.558 4.53l2.77 6.571c.913 1.973 2.357 2.676 4.344 2.08l8.268-1.402c6.273-1.755 12.137 2.52 12.408 9.414l.621 8.41c.155 1.934 1.009 3.337 3.239 3.692l7.262.931c2.221.208 3.583-.701 4.065-2.754l2.631-8.006c1.596-6.281 8.245-9.184 14.386-5.96l7.682 3.117c1.645.78 3.183.751 4.509-.874l4.134-5.397c1.203-1.687 1.097-3.206-.348-4.555l-5.116-6.488c-4.677-4.525-3.893-11.704 1.978-15.373l6.867-4.691c1.573-1.074 2.349-2.478 1.557-4.53l-2.77-6.57c-.912-1.973-2.356-2.677-4.344-2.082l-8.267 1.403c-6.273 1.756-12.138-2.52-12.408-9.413l-.621-8.41c-.156-1.935-1.009-3.337-3.24-3.692l-7.261-.932c-2.221-.208-3.583.701-4.065 2.755l-2.631 8.006c-1.597 6.28-8.245 9.184-14.386 5.959l-7.853-3.117c-1.607-.762-3.109-.733-4.404.854l-4.038 5.271c-1.174 1.648-1.07 3.132-.365 3.79l5.8 7.4Z" stroke="#000" stroke-width="12"/></svg>