<svg width="192" height="192" viewBox="0 0 192 192" fill="none" xmlns="http://www.w3.org/2000/svg"><path d="M147 114a28.001 28.001 0 1 1-56 0m.609-23.061A7.999 7.999 0 0 0 91 94h16a8 8 0 0 0-15.391-3.061Zm40 0A8 8 0 0 0 131 94h16a8 8 0 0 0-15.391-3.061Z" stroke="#000" stroke-width="10" stroke-linecap="round" stroke-linejoin="round"/><path d="M68 85V73m14 97h82a6 6 0 0 0 6-6V28a6 6 0 0 0-6-6h-43" stroke="#000" stroke-width="12" stroke-linecap="round" stroke-linejoin="round"/><circle cx="36" cy="98" r="14" stroke="#000" stroke-width="12" stroke-linecap="round" stroke-linejoin="round"/><path d="M99.856 30A16 16 0 1 0 78 51.856" stroke="#000" stroke-width="12" stroke-linecap="round" stroke-linejoin="round"/><circle cx="54" cy="146" r="14" stroke="#000" stroke-width="12" stroke-linecap="round" stroke-linejoin="round"/><path d="M72.5 29.5 37 84m2 28 9 20M99.86 30l11.939 33.798L78 51.86" stroke="#000" stroke-width="12" stroke-linecap="round" stroke-linejoin="round"/></svg>