<svg xmlns="http://www.w3.org/2000/svg" width="192" height="192" fill="none" viewBox="0 0 192 192" stroke="#000" stroke-linecap="round" stroke-linejoin="round"><path stroke-width="12" d="M88 22h16l6.267 18.8a56.67 56.67 0 0 1 14.672 6.082l17.73-8.865 11.314 11.314-8.865 17.73a56.663 56.663 0 0 1 6.082 14.672L170 88v16l-18.8 6.267a56.673 56.673 0 0 1-6.082 14.672l8.865 17.73-11.314 11.314-17.73-8.865a56.673 56.673 0 0 1-14.672 6.082L104 170H88l-6.267-18.8a56.663 56.663 0 0 1-14.672-6.082l-17.73 8.865-11.314-11.314 8.865-17.73a56.67 56.67 0 0 1-6.082-14.672L22 104V88l18.8-6.267a56.66 56.66 0 0 1 6.082-14.672l-8.865-17.73 11.314-11.314 17.73 8.865A56.66 56.66 0 0 1 81.733 40.8L88 22Z"/><path stroke-width="10" d="M101 112h24m-54 0 20-20M71 72l20 20"/></svg>