<?xml version="1.0" standalone="no"?>
<!DOCTYPE svg PUBLIC "-//W3C//DTD SVG 20010904//EN"
 "http://www.w3.org/TR/2001/REC-SVG-20010904/DTD/svg10.dtd">
<svg version="1.0" xmlns="http://www.w3.org/2000/svg"
 width="192.000000pt" height="192.000000pt" viewBox="0 0 192.000000 192.000000"
 preserveAspectRatio="xMidYMid meet">

<g transform="translate(0.000000,192.000000) scale(0.100000,-0.100000)"
fill="#000000" stroke="none">
<path d="M748 1723 c-21 -23 -29 -44 -38 -111 -14 -107 -14 -106 -60 -127 -39
-18 -39 -18 -117 14 -95 38 -132 39 -164 7 -13 -13 -59 -85 -102 -159 -105
-184 -104 -196 21 -292 61 -47 62 -49 62 -96 0 -47 -1 -49 -61 -94 -128 -99
-129 -108 -18 -300 44 -77 89 -148 101 -158 30 -25 76 -21 167 14 l81 32 38
-26 c38 -25 39 -27 50 -113 14 -102 28 -129 79 -143 58 -17 317 -14 358 3 44
19 54 39 67 142 12 84 13 87 50 110 21 13 41 24 45 24 5 0 41 -14 82 -30 81
-33 126 -38 158 -15 12 8 42 52 68 97 25 46 61 110 80 143 40 69 45 120 16
152 -11 11 -47 42 -80 68 -59 46 -61 50 -61 94 0 45 1 47 70 100 39 29 75 62
80 72 18 32 10 83 -19 134 -15 28 -52 92 -80 143 -29 50 -62 99 -74 107 -32
22 -75 18 -152 -15 -85 -36 -91 -36 -136 -6 -33 23 -37 30 -43 88 -4 35 -11
80 -17 100 -17 64 -30 68 -239 68 l-186 0 -26 -27z m338 -97 c3 -8 11 -53 18
-102 8 -53 19 -92 27 -96 8 -5 44 -26 81 -48 37 -22 76 -40 86 -40 11 0 52 14
92 30 40 17 79 30 86 30 7 0 26 -24 41 -52 16 -29 44 -77 61 -105 l31 -53 -79
-66 -80 -66 0 -99 0 -99 75 -61 c41 -34 75 -67 75 -73 0 -11 -88 -167 -112
-198 -12 -16 -18 -15 -93 17 -93 39 -114 42 -146 16 -13 -10 -48 -30 -76 -45
-57 -28 -56 -26 -73 -146 -6 -41 -14 -78 -19 -83 -4 -4 -61 -6 -127 -5 l-119
3 -17 100 c-9 55 -17 101 -17 102 -1 2 -25 15 -53 29 -29 15 -64 35 -77 45
-32 26 -53 23 -146 -16 -74 -32 -81 -33 -93 -17 -20 26 -112 190 -112 200 0 5
34 36 75 68 41 32 75 64 76 71 3 63 1 172 -5 188 -4 11 -36 42 -72 69 -37 28
-68 55 -71 62 -6 16 109 214 124 214 7 0 46 -13 88 -30 78 -31 119 -37 130
-20 3 5 35 26 70 45 71 40 70 39 85 145 6 41 13 81 15 88 7 18 244 17 251 -2z"/>
<path d="M850 1303 c-28 -10 -66 -37 -101 -72 -79 -80 -89 -115 -89 -317 0
-157 1 -163 22 -178 19 -14 62 -16 273 -16 137 0 260 3 271 6 12 3 27 17 33
30 16 35 14 272 -2 304 -14 27 -53 38 -71 20 -6 -6 -13 -62 -16 -133 l-5 -122
-202 -3 -203 -2 0 125 c0 145 8 173 67 227 30 27 56 39 100 48 32 7 64 17 71
22 15 13 16 50 0 66 -17 17 -94 14 -148 -5z"/>
<path d="M1075 1275 c-52 -51 -15 -135 59 -135 50 0 95 54 79 97 -22 64 -94
83 -138 38z"/>
<path d="M824 676 c-3 -8 -4 -23 -2 -33 3 -16 17 -18 133 -21 112 -2 131 0
142 14 9 12 9 22 2 35 -9 17 -23 19 -140 19 -104 0 -131 -3 -135 -14z"/>
</g>
</svg>
