<svg xmlns="http://www.w3.org/2000/svg" width="192" height="192" fill="none" viewBox="0 0 192 192"><path stroke="#000" stroke-linecap="round" stroke-linejoin="round" stroke-width="12" d="M88 22h16l6.267 18.8a56.7 56.7 0 0 1 14.672 6.082l17.73-8.865 11.314 11.314-8.865 17.73a56.7 56.7 0 0 1 6.082 14.672L170 88v16l-18.8 6.267a56.7 56.7 0 0 1-6.082 14.672l8.865 17.73-11.314 11.314-17.73-8.865a56.7 56.7 0 0 1-14.672 6.082L104 170H88l-6.267-18.8a56.7 56.7 0 0 1-14.672-6.082l-17.73 8.865-11.314-11.314 8.865-17.73a56.7 56.7 0 0 1-6.082-14.672L22 104V88l18.8-6.267a56.7 56.7 0 0 1 6.082-14.672l-8.865-17.73 11.314-11.314 17.73 8.865A56.7 56.7 0 0 1 81.733 40.8z"/><circle cx="96" cy="96" r="34.084" stroke="#000" stroke-width="8"/><ellipse cx="96" cy="96" stroke="#000" stroke-width="8" rx="13.818" ry="34.084"/><path stroke="#000" stroke-width="8" d="M64.68 84.946h62.64m-62.64 22.108h62.64"/></svg>