<svg xmlns="http://www.w3.org/2000/svg" width="192" height="192" fill="none" stroke="#000" stroke-width="8" viewBox="0 0 192 192"><path d="M60.418 141.08c7.311.943 14.002-4.225 14.933-11.544.93-7.308-4.232-14.006-11.554-14.937-7.311-.943-14.002 4.225-14.933 11.544s4.232 14.006 11.554 14.937z"/><path d="M31.009 116.142c4.806 4.642 3.995 12.016-2.034 15.785l-7.056 4.817c-1.612 1.099-2.413 2.547-1.602 4.653l2.845 6.747c.934 2.024 2.424 2.753 4.457 2.137l8.494-1.438c6.44-1.808 12.468 2.588 12.746 9.664l.636 8.638c.165 1.982 1.038 3.43 3.328 3.79l7.456.955c2.28.215 3.677-.719 4.18-2.825l2.702-8.226c1.643-6.45 8.473-9.429 14.779-6.122l7.888 3.205c1.684.801 3.266.77 4.632-.894l4.241-5.546c1.233-1.735 1.13-3.297-.36-4.683l-5.258-6.666c-4.806-4.652-3.995-12.016 2.034-15.785l7.056-4.817c1.612-1.099 2.413-2.547 1.602-4.653l-2.845-6.747c-.935-2.024-2.424-2.753-4.457-2.137l-8.494 1.438c-6.44 1.808-12.469-2.588-12.746-9.664l-.637-8.638c-.164-1.982-1.037-3.43-3.327-3.79l-7.457-.955c-2.28-.216-3.676.72-4.18 2.825l-2.7 8.226c-1.644 6.45-8.474 9.429-14.78 6.121l-8.062-3.204c-1.654-.78-3.195-.75-4.52.873l-4.149 5.413c-1.201 1.694-1.099 3.214-.37 3.892l5.958 7.6zm97.194-38.739c7.312.943 14.003-4.225 14.933-11.544.931-7.308-4.232-14.006-11.554-14.937-7.311-.943-14.002 4.225-14.933 11.544-.93 7.308 4.243 14.006 11.554 14.937z"/><path d="M98.907 51.787c4.806 4.642 3.995 12.016-2.034 15.785l-7.056 4.817c-1.612 1.1-2.413 2.547-1.602 4.653l2.845 6.748c.935 2.023 2.424 2.752 4.457 2.136l8.494-1.438c6.44-1.808 12.468 2.588 12.746 9.664l.637 8.638c.164 1.982 1.037 3.43 3.327 3.79l7.457.955c2.28.216 3.676-.719 4.18-2.825l2.701-8.226c1.643-6.45 8.463-9.428 14.779-6.121l7.888 3.204c1.694.801 3.266.77 4.632-.893l4.241-5.547c1.233-1.735 1.13-3.296-.359-4.683l-5.259-6.666c-4.806-4.642-3.995-12.016 2.034-15.785l7.056-4.817c1.612-1.099 2.413-2.547 1.602-4.653l-2.845-6.747c-.934-2.024-2.424-2.753-4.457-2.137l-8.494 1.438c-6.44 1.808-12.468-2.588-12.746-9.664l-.636-8.638c-.165-1.982-1.038-3.43-3.328-3.79l-7.456-.955c-2.28-.215-3.677.72-4.17 2.825l-2.701 8.226c-1.644 6.45-8.473 9.429-14.78 6.122l-8.062-3.205c-1.653-.78-3.194-.75-4.519.873l-4.15 5.413c-1.2 1.694-1.098 3.214-.38 3.892l5.958 7.6z"/></svg>