<svg width="192" height="192" viewBox="0 0 192 192" fill="none" xmlns="http://www.w3.org/2000/svg"><path d="M116.835 22a53.227 53.227 0 0 0-23.696 5.569 53.667 53.667 0 0 0-18.808 15.558 54.202 54.202 0 0 0-10.042 22.338 54.413 54.413 0 0 0 .796 24.511M170 77.186a53.83 53.83 0 0 0-16.633-17.899 53.319 53.319 0 0 0-22.772-8.639 53.175 53.175 0 0 0-24.214 2.404 53.513 53.513 0 0 0-20.663 12.95m63.447 85.185a54.384 54.384 0 0 0 3.1-47.665 53.998 53.998 0 0 0-14.173-19.935 53.447 53.447 0 0 0-21.459-11.56M75.165 170a53.223 53.223 0 0 0 23.696-5.569 53.673 53.673 0 0 0 18.809-15.558 54.204 54.204 0 0 0 10.041-22.338 54.402 54.402 0 0 0-.796-24.511M22 114.813a53.828 53.828 0 0 0 16.633 17.9 53.314 53.314 0 0 0 22.772 8.638 53.172 53.172 0 0 0 24.214-2.403 53.521 53.521 0 0 0 20.663-12.951M42.835 40.813a54.382 54.382 0 0 0-3.1 47.665 53.997 53.997 0 0 0 14.173 19.935 53.436 53.436 0 0 0 21.459 11.56" stroke="#000" stroke-width="12" stroke-linecap="round" stroke-linejoin="round"/></svg>