<svg xmlns="http://www.w3.org/2000/svg" width="192" height="192" fill="none" viewBox="0 0 192 192"><path stroke="#000" stroke-linecap="round" stroke-linejoin="round" stroke-width="12" d="M116.835 22a53.2 53.2 0 0 0-23.696 5.569 53.7 53.7 0 0 0-18.808 15.558 54.2 54.2 0 0 0-10.042 22.338 54.4 54.4 0 0 0 .796 24.511M170 77.186a53.8 53.8 0 0 0-16.633-17.899 53.3 53.3 0 0 0-22.772-8.639 53.2 53.2 0 0 0-24.214 2.404 53.5 53.5 0 0 0-20.663 12.95m63.447 85.185a54.38 54.38 0 0 0 3.1-47.665 54 54 0 0 0-14.173-19.935 53.45 53.45 0 0 0-21.459-11.56M75.165 170a53.2 53.2 0 0 0 23.696-5.569 53.7 53.7 0 0 0 18.809-15.558 54.2 54.2 0 0 0 10.041-22.338 54.4 54.4 0 0 0-.796-24.511M22 114.813a53.8 53.8 0 0 0 16.633 17.9 53.3 53.3 0 0 0 22.772 8.638 53.2 53.2 0 0 0 24.214-2.403 53.5 53.5 0 0 0 20.663-12.951M42.835 40.813a54.38 54.38 0 0 0-3.1 47.665 54 54 0 0 0 14.173 19.935 53.4 53.4 0 0 0 21.459 11.56"/></svg>