<svg xmlns="http://www.w3.org/2000/svg" width="192" height="192" fill="none"><path stroke="#000" stroke-width="12" d="M124 50a22.1 22.1 0 0 1 31.2 0l11.2 11.2a6 6 0 0 1 1.765 4.25 6 6 0 0 1-1.765 4.25l-93.8 93.8a22.095 22.095 0 0 1-31.3 0l-11.1-11.1a6 6 0 0 1-1.343-6.634A6 6 0 0 1 30.2 143.8z"/><path stroke="#000" stroke-width="12" d="M98 138.2h-.1L38.7 78.9s-26.2-27.6 0-53.7c4.1-4.3 4.1-4.3 8-.3l82.3 82.3"/><path stroke="#000" stroke-width="8" d="M139.6 69.5a4 4 0 1 0 0-8 4 4 0 0 0 0 8Z"/></svg>