<svg width="192" height="192" fill="none" xmlns="http://www.w3.org/2000/svg"><path d="m107 163-2.134-13" stroke="#000" stroke-width="12" stroke-linecap="round" stroke-linejoin="round"/><path d="M66 21v21M48 21v21m78 129v-21m18 21v-21" stroke="#000" stroke-width="10" stroke-linecap="round" stroke-linejoin="round"/><path d="M163 170V88M29 22v61a6 6 0 0 0 6 6h22.5M163 88l-24 5.538" stroke="#000" stroke-width="12" stroke-linecap="round" stroke-linejoin="round"/><path d="M21 126h21m-21 18h21m-21-36h21m129-42h-21m21-18h-21" stroke="#000" stroke-width="10" stroke-linecap="round" stroke-linejoin="round"/><path d="M22 163h85m63-134H85m13 40a17.998 17.998 0 0 1 18 18c0 21 14 41 14 41l-20-9-2 9H88.112L86 120l-20 8s14-20 14-41a18 18 0 0 1 18-18Zm0 0V51m18 44H80" stroke="#000" stroke-width="12" stroke-linecap="round" stroke-linejoin="round"/></svg>