<svg xmlns="http://www.w3.org/2000/svg" width="192" height="192" fill="none" viewBox="0 0 192 192"><path stroke="#000" stroke-linecap="round" stroke-linejoin="round" stroke-width="12" d="M30 156V36a6 6 0 0 1 6-6h120a6 6 0 0 1 6 6v120a6 6 0 0 1-6 6H36a6 6 0 0 1-6-6Z"/><path stroke="#000" stroke-linecap="round" stroke-linejoin="round" stroke-width="8" d="M137 150v12M48 30v12m16-12v12"/><path stroke="#000" stroke-linecap="round" stroke-linejoin="round" stroke-width="10" d="m81 30 34 132m-15-62 62-14m-66 6H30"/><path stroke="#000" stroke-linecap="round" stroke-linejoin="round" stroke-width="8" d="M162 66h-12M42 127H30m132-77h-12M42 111H30m12 32H30"/></svg>