<svg width="192" height="192" viewBox="0 0 192 192" fill="none" xmlns="http://www.w3.org/2000/svg"><path d="M96 128v12" stroke="#000" stroke-width="8" stroke-linecap="round" stroke-linejoin="round"/><path d="M140.548 40.452A62.994 62.994 0 0 0 96 22a63 63 0 0 0-44.548 18.452m72.125 16.971a39 39 0 0 0-55.154 0M113.748 85A17.995 17.995 0 0 0 96 70a18 18 0 0 0-17.748 15M96 170s-32-22-29-57c0 0 9-6 29-6m0 63s32-22 29-57c0 0-9-6-29-6" stroke="#000" stroke-width="12" stroke-linecap="round" stroke-linejoin="round"/><circle cx="96" cy="128" r="3" stroke="#000" stroke-width="6" stroke-linecap="round" stroke-linejoin="round"/></svg>