<svg xmlns="http://www.w3.org/2000/svg" width="192" height="192" fill="none" viewBox="0 0 192 192"><path stroke="#000" stroke-linecap="round" stroke-linejoin="round" stroke-miterlimit="6" stroke-width="8" d="m124 83 6 31 19-31 4 31 19-31m-98 31-5.523-28.534A3.044 3.044 0 0 0 65.49 83v0c-.94 0-1.826.434-2.403 1.175L36 119m12-14h23m38.449-19.521c-10.15-6.849-25.952 1.98-16.818 8.523-16.18 8.149-7.617 22.418 9.254 20.884 21.348-3.124 16.313-25.897-.7-14.187"/><path stroke="#000" stroke-linecap="round" stroke-linejoin="round" stroke-width="10" d="m120 52 13.5 15.69m0 0c-9.963-2.685-21.115-4.264-32.595-4.615s-22.978.535-33.606 2.59-20.102 5.222-27.687 9.258-13.079 8.833-16.056 14.018-3.36 10.622-1.115 15.887 7.054 10.219 14.058 14.479 16.012 7.709 26.33 10.084C73.145 131.765 84.495 133 96 133"/></svg>