<svg xmlns="http://www.w3.org/2000/svg" width="192" height="192" fill="none" viewBox="0 0 192 192">
  <path stroke="#000" stroke-linecap="round" stroke-linejoin="round" stroke-width="12" d="M96 129.333c-8.92 0-17.477-3.512-23.784-9.763-6.308-6.251-9.852-14.729-9.852-23.57 0-8.84 3.544-17.319 9.852-23.57 6.308-6.251 14.863-9.763 23.784-9.763s17.476 3.512 23.785 9.763A33.181 33.181 0 0 1 129.636 96a33.18 33.18 0 0 1-9.851 23.57c-6.309 6.251-14.864 9.763-23.785 9.763ZM96 46c-33.636 0-62.362 20.733-74 50 11.638 29.267 40.364 50 74 50s62.362-20.733 74-50c-11.638-29.267-40.364-50-74-50Z"/>
  <path stroke="#000" stroke-linecap="round" stroke-linejoin="round" stroke-width="10" d="M96 76a20.275 20.275 0 0 1 14.271 5.858A19.908 19.908 0 0 1 116.182 96"/>
</svg>
