<svg width="192" height="192" viewBox="0 0 192 192" fill="none" xmlns="http://www.w3.org/2000/svg"><ellipse cx="96" cy="158" rx="30" ry="12" stroke="#000" stroke-width="12" stroke-linecap="round" stroke-linejoin="round"/><path d="M136 86a39.996 39.996 0 0 1-11.716 28.284 39.996 39.996 0 0 1-56.568 0A39.999 39.999 0 0 1 56 86m-8 0h8m80 0h8" stroke="#000" stroke-width="12" stroke-linecap="round" stroke-linejoin="round"/><path d="M78 34c0-10 10-12 18-12s18 2 18 12v56c0 10-10 12-18 12s-18-2-18-12V34Zm18 92v20" stroke="#000" stroke-width="12" stroke-linecap="round" stroke-linejoin="round"/></svg>