<svg width="192" height="192" fill="none" xmlns="http://www.w3.org/2000/svg"><circle cx="96" cy="96" r="16" stroke="#000" stroke-width="12" stroke-linecap="round" stroke-linejoin="round"/><path d="M22 96c0 40.869 33.13 74 74 74 18.768 0 35.903-6.987 48.949-18.501.647 3.449 1.614 6.618 2.859 9.3C150.246 166.05 153.552 169 157 169c3.448 0 6.754-2.95 9.192-8.201C168.63 155.548 170 148.426 170 141V51c0-3.677-.336-7.318-.99-10.715-.653-3.397-1.61-6.484-2.818-9.084-1.207-2.6-2.64-4.663-4.217-6.07C160.398 23.724 158.707 23 157 23c-1.707 0-3.398.724-4.975 2.131-1.577 1.407-3.01 3.47-4.217 6.07-1.208 2.6-2.165 5.687-2.818 9.084l-.041.216C131.903 28.987 114.768 22 96 22c-40.87 0-74 33.13-74 74Z" stroke="#000" stroke-width="12" stroke-linecap="round" stroke-linejoin="round"/><circle cx="96" cy="96" r="42" stroke="#000" stroke-width="12" stroke-linecap="round" stroke-linejoin="round"/></svg>