<svg xmlns="http://www.w3.org/2000/svg" width="192" height="192" fill="none"><circle cx="96" cy="96" r="16" stroke="#000" stroke-linecap="round" stroke-linejoin="round" stroke-width="12"/><path stroke="#000" stroke-linecap="round" stroke-linejoin="round" stroke-width="12" d="M22 96c0 40.869 33.13 74 74 74 18.768 0 35.903-6.987 48.949-18.501.647 3.449 1.614 6.618 2.859 9.3C150.246 166.05 153.552 169 157 169s6.754-2.95 9.192-8.201S170 148.426 170 141V51c0-3.677-.336-7.318-.99-10.715s-1.61-6.484-2.818-9.084-2.64-4.663-4.217-6.07S158.707 23 157 23s-3.398.724-4.975 2.131-3.01 3.47-4.217 6.07c-1.208 2.6-2.165 5.687-2.818 9.084l-.041.216C131.903 28.987 114.768 22 96 22c-40.87 0-74 33.13-74 74"/><circle cx="96" cy="96" r="42" stroke="#000" stroke-linecap="round" stroke-linejoin="round" stroke-width="12"/></svg>