<svg xmlns="http://www.w3.org/2000/svg" width="192" height="192" fill="none"><path stroke="#000" stroke-linecap="round" stroke-linejoin="round" stroke-width="12" d="M108.594 77.85s1.869-9.31 1.869-19.548C110.463 33.635 95.512 22 85.7 22s-3.738 14.893-3.738 23.736-7.009 24.201-7.009 24.201m5.607 13.497C67.477 54.579 41.78 44.805 31.5 54.579c6.074 7.912 6.074 16.754 6.074 33.044 0 11.17 17.288 19.082 25.23 20.012M75 103c-15.793 4.84-40.454 21.727-24.7 49.486.632 1.114 2.167 1.281 3.092.394 12.245-11.736 9.221-3.307 31.108-18.88m4.092-15c-7.377 34.255 11.972 37.737 35.616 50.742 1.172.644 2.646.033 2.9-1.275 2.237-11.505 2.892-32.967-16.173-47.951"/><path stroke="#000" stroke-linecap="round" stroke-linejoin="round" stroke-width="12" d="M122 133c2.959 3.103 12.105 9.075 18.833 9.075 6.075 0 4.206-3.257 8.411-3.257 5.607 0 6.424 2.327 9.344 0 3.738-2.979-6.541-32.579-37.379-36.768M111.5 68.01c30.931-29.858 47.334-21.927 48.74-18.195s-3.281 7.465-4.687 12.13-4.686 34.99-27.181 41.055"/></svg>