<svg width="192" height="192" viewBox="0 0 192 192" fill="none" xmlns="http://www.w3.org/2000/svg">
<path d="M108.594 77.8491C108.594 77.8491 110.463 68.5409 110.463 58.3019C110.463 33.6352 95.5118 22 85.6998 22C75.8878 22 81.9619 36.8931 81.9619 45.7358C81.9619 54.5786 74.9534 69.9371 74.9534 69.9371" stroke="black" stroke-width="12" stroke-linecap="round" stroke-linejoin="round"/>
<path d="M80.5599 83.434C67.4773 54.5785 41.7792 44.8051 31.5 54.5786C37.5741 62.4906 37.5741 71.3334 37.5741 87.6227C37.5741 98.7926 54.8619 106.705 62.8049 107.635" stroke="black" stroke-width="12" stroke-linecap="round" stroke-linejoin="round"/>
<path d="M75 103C59.2073 107.84 34.5457 124.727 50.2993 152.486C50.9317 153.6 52.467 153.767 53.392 152.88C65.637 141.144 61.4768 150.667 83.3633 135.094" stroke="black" stroke-width="12" stroke-linecap="round" stroke-linejoin="round"/>
<path d="M89 118.5C81.7358 152.4 100.788 155.846 124.07 168.716C125.223 169.354 126.675 168.749 126.925 167.455C129.127 156.069 128.312 135.951 111 120" stroke="black" stroke-width="12" stroke-linecap="round" stroke-linejoin="round"/>
<path d="M122.611 133.233C125.57 136.335 134.105 142.075 140.833 142.075C146.908 142.075 145.039 138.818 149.244 138.818C154.851 138.818 155.668 141.145 158.588 138.818C162.326 135.839 152.047 106.239 121.209 102.05" stroke="black" stroke-width="12" stroke-linecap="round" stroke-linejoin="round"/>
<path d="M111.5 68.0099C142.431 38.1518 158.834 46.0828 160.24 49.815C161.646 53.5473 156.959 57.2797 155.553 61.945C154.147 66.6103 150.867 96.9351 128.372 103" stroke="black" stroke-width="12" stroke-linecap="round" stroke-linejoin="round"/>
</svg>
