<svg width="192" height="192" fill="none" xmlns="http://www.w3.org/2000/svg"><path d="M44.668 79.03c-16.08 10.67-24.976 23.116-22.148 33.68.509 1.902 1.378 3.667 2.573 5.289m19.575-38.97A54.958 54.958 0 0 0 42 96c0 30.376 24.624 55 55 55s55-24.624 55-55c0-16.165-6.974-30.702-18.078-40.765M44.668 79.03C51.82 56.96 72.546 41 97 41c14.21 0 27.162 5.39 36.922 14.235m0 0c19.025 1.263 32.753 7.572 35.558 18.054 4.802 17.94-24.204 41.307-64.786 52.193a169.436 169.436 0 0 1-17.388 3.711L98 120" stroke="#000" stroke-width="12" stroke-linecap="round" stroke-linejoin="round"/><circle cx="82" cy="76" r="4" stroke="#000" stroke-width="8" stroke-linecap="round" stroke-linejoin="round"/><circle cx="114" cy="68" r="4" stroke="#000" stroke-width="8" stroke-linecap="round" stroke-linejoin="round"/><path d="M86 99c31 5 40-13 40-13" stroke="#000" stroke-width="10" stroke-linecap="round" stroke-linejoin="round"/></svg>