<?xml version="1.0" encoding="UTF-8"?>
<svg id="a" data-name="Ebene 1" xmlns="http://www.w3.org/2000/svg" width="192" height="192" xmlns:xlink="http://www.w3.org/1999/xlink" viewBox="0 0 192 192">
  <defs>
    <style>
      .d, .e, .f, .g {
        fill: none;
      }

      .e {
        stroke: #000;
        stroke-miterlimit: 10;
        stroke-width: 12px;
      }

      .f {
        clip-path: url(#c);
      }

      .g {
        clip-path: url(#b);
      }
    </style>
    <clipPath id="b">
      <polygon class="d" points="107.06 116.49 52.27 107.73 61.58 131.62 80.97 161.68 125.99 169.23 115.96 142.86 107.06 116.49"/>
    </clipPath>
    <clipPath id="c">
      <polygon class="d" points="104.71 96.52 86.99 47.59 77.5 18.15 33.27 21.18 -1.12 126.25 6.67 185.92 77.35 185.92 132.83 182.69 120.55 158.56 101.86 96.52 104.71 96.52"/>
    </clipPath>
  </defs>
  <path d="m61.58,118.46l21.28-4.37,12.69-31.72-15.92-54.92-11.37.84s-.02.01-.03.02l-18.76,49.96-25.74,83.99c1.02,1.67,2.73,2.9,4.8,3.23l37.94-.63c1.61-.8,2.88-2.2,3.48-3.98l8.34-24.7v-.02s-16.71-17.7-16.71-17.7Z"/>
  <g class="g">
    <path class="e" d="m134.43,117.23h-68.4c-2.87,0-4.26,3.52-2.16,5.48l43.95,41.02c1.28,1.19,2.96,1.86,4.71,1.86h38.73l-16.83-48.36Z"/>
  </g>
  <g class="f">
    <path class="e" d="m71.6,27.41c-2.96,0-5.6,1.89-6.55,4.7l-41.97,124.35c-1.51,4.48,1.82,9.12,6.55,9.12h33.78c2.96,0,5.6-1.89,6.55-4.7l8.34-24.72,29.53,27.56c1.28,1.19,2.96,1.86,4.71,1.86h38.73l-16.83-48.36h-49.75l30.31-89.81h-43.4Z"/>
  </g>
  <path class="e" d="m126.95,32.11c-.95-2.81-3.58-4.7-6.55-4.7h-48.58.22c2.96,0,5.6,1.89,6.55,4.7l41.97,124.35c1.51,4.48-1.82,9.12-6.55,9.12h-.74,49.1c4.73,0,8.06-4.64,6.55-9.12l-41.97-124.35Z"/>
</svg>