<svg xmlns="http://www.w3.org/2000/svg" width="192" height="192" fill="none"><path stroke="#000" stroke-linecap="round" stroke-linejoin="round" stroke-width="12" d="M140 51.338s2.809-15.399 15.905-14.28 21.703 20.826 3.458 62.097C147.007 127.11 152.796 156 152.796 156l17.204-.373M108 159h24M96 63.81c13.32-8.48 19.35-17.26 24-30.81 0 0-1 35.02 0 63.51 1 27.49 0 62.41 0 62.41M88.747 40c-12.48 10.553-20.323 29.5-23.825 55.92-.57 4.303-1.213 9.978-1.592 16.08m0 0s1-13.5 10.67-13c17 .879 19.24 55.178 1.802 53.979-12.391-.854-13.6-22.811-12.472-40.979M22 153V39s24 0 24 23.94S24.286 96 24.286 96s20.32-1.163 18.285 26.22C40.286 153 22 153 22 153"/></svg>