<?xml version="1.0" encoding="UTF-8" standalone="no"?>
<svg viewBox="0 0 24 24" version="1.1" id="svg15" xmlns="http://www.w3.org/2000/svg">
    <defs id="defs4">
        <style id="style2">
            .cls-1 {
            fill: #020202;
            }
        </style>
    </defs>
    <g id="g29" transform="matrix(1.0023638,0,0,1.0023638,-0.00105923,-0.01907096)"
        style="fill:#000000">
        <path
            d="m 20,11.56 a 9.46,9.46 0 0 1 0.92,0.57 2.74,2.74 0 0 1 1,2 4,4 0 0 1 -0.59,2.62 4.29,4.29 0 0 1 -2.84,1.74 7,7 0 0 1 -1.44,0.12 c -1.32,0 -2.64,0 -3.95,0 a 1.22,1.22 0 0 1 -1.26,-1.47 c 0.1,-0.77 0.15,-1.56 0.22,-2.33 l 0.27,-2.95 c 0.06,-0.71 0.11,-1.42 0.18,-2.12 0.09,-1.09 0.17,-2.17 0.29,-3.26 a 1.33,1.33 0 0 1 1.26,-1.11 c 1.35,0 2.71,0 4.06,0 A 3.45,3.45 0 0 1 21.1,7 3.33,3.33 0 0 1 21.33,9.76 3.07,3.07 0 0 1 20,11.56 Z m -3.64,1.62 h -1.48 c -0.17,0 -0.26,0 -0.27,0.23 -0.01,0.23 0,0.46 -0.06,0.69 -0.07,0.71 -0.13,1.41 -0.2,2.12 0,0.18 0.06,0.24 0.24,0.24 h 0.84 a 20.26,20.26 0 0 0 2.34,-0.07 1.73,1.73 0 0 0 1.67,-1.62 1.25,1.25 0 0 0 -1.18,-1.51 C 17.64,13.2 17,13.18 16.39,13.18 Z m 0.05,-5.61 h -0.76 c -0.57,0 -0.57,0 -0.6,0.56 v 0.19 c -0.06,0.75 -0.13,1.5 -0.2,2.25 0,0.19 0.05,0.27 0.25,0.26 h 2 A 1.72,1.72 0 0 0 18.88,9.41 1.34,1.34 0 0 0 17.73,7.62 11,11 0 0 0 16.44,7.57 Z"
            id="path6" style="fill:#000000" />
        <path class="cls-1"
            d="m 6.63,10.66 h 3.25 a 1,1 0 0 1 1.16,1 A 1.24,1.24 0 0 1 9.86,13 c -0.63,0 -1.27,0 -1.9,0 -0.29,0 -0.38,0.11 -0.39,0.36 0,0.52 -0.09,1 -0.12,1.56 a 1.4,1.4 0 0 1 -1,1.42 1.06,1.06 0 0 1 -1.35,-1 16.61,16.61 0 0 1 0.14,-1.72 C 5.31,13.05 5.32,13.04 4.75,13.04 H 3.17 A 1.06,1.06 0 0 1 2.06,12.35 1.28,1.28 0 0 1 2.42,11 1.34,1.34 0 0 1 3.32,10.66 Z"
            id="path8" style="fill:#000000" />
        <path class="cls-1"
            d="M 6.55,9.92 A 1.51,1.51 0 0 0 8,8.39 a 1.06,1.06 0 0 0 -0.82,-1 1.27,1.27 0 0 0 -1.52,1 C 5.66,8.69 5.58,9 5.55,9.3 v 0.65 z"
            id="path10" style="fill:#000000" />
    </g>
</svg>
