<svg xmlns="http://www.w3.org/2000/svg" viewBox="0 0 24 24">
  <defs>
    <style>
      .cls-1 {
        fill: #020202;
      }
    </style>
  </defs>
  <g id="Layer_2" data-name="Layer 2">
    <g>
      <path d="M20,11.56a9.46,9.46,0,0,1,.92.57,2.74,2.74,0,0,1,1,2,4,4,0,0,1-.59,2.62,4.29,4.29,0,0,1-2.84,1.74,7,7,0,0,1-1.44.12c-1.32,0-2.64,0-3.95,0a1.22,1.22,0,0,1-1.26-1.47c.1-.77.15-1.56.22-2.33l.27-2.95c.06-.71.11-1.42.18-2.12.09-1.09.17-2.17.29-3.26a1.33,1.33,0,0,1,1.26-1.11c1.35,0,2.71,0,4.06,0A3.45,3.45,0,0,1,21.1,7a3.33,3.33,0,0,1,.23,2.76A3.07,3.07,0,0,1,20,11.56Zm-3.64,1.62H14.88c-.17,0-.26,0-.27.23s0,.46-.06.69c-.07.71-.13,1.41-.2,2.12,0,.18.06.24.24.24h.84a20.26,20.26,0,0,0,2.34-.07,1.73,1.73,0,0,0,1.67-1.62,1.25,1.25,0,0,0-1.18-1.51C17.64,13.2,17,13.18,16.39,13.18Zm.05-5.61h-.76c-.57,0-.57,0-.6.56l0,.19c-.06.75-.13,1.5-.2,2.25,0,.19.05.27.25.26h2a1.72,1.72,0,0,0,1.78-1.42,1.34,1.34,0,0,0-1.15-1.79A11,11,0,0,0,16.44,7.57Z"/>
      <path class="cls-1" d="M6.63,10.66H9.88a1,1,0,0,1,1.16,1A1.24,1.24,0,0,1,9.86,13c-.63,0-1.27,0-1.9,0-.29,0-.38.11-.39.36,0,.52-.09,1-.12,1.56a1.4,1.4,0,0,1-1,1.42,1.06,1.06,0,0,1-1.35-1,16.61,16.61,0,0,1,.14-1.72c.07-.57.08-.58-.49-.58H3.17a1.06,1.06,0,0,1-1.11-.69A1.28,1.28,0,0,1,2.42,11a1.34,1.34,0,0,1,.9-.34Z"/>
      <path class="cls-1" d="M6.55,9.92A1.51,1.51,0,0,0,8,8.39a1.06,1.06,0,0,0-.82-1,1.27,1.27,0,0,0-1.52,1c0,.3-.08.61-.11.91l0,.65Z"/>
    </g>
  </g>
</svg>
