<svg xmlns="http://www.w3.org/2000/svg" width="192" height="192" fill="none" stroke="#000" stroke-linejoin="round" viewBox="0 0 192 192"><path stroke-width="6" d="M99 159h-6v6h6zm0-132h-6v6h6zm44 44h-6v6h6zm-33 33h-6v6h6zm-11 11h-6v6h6zm44-22h-6v6h6zm-44 44h-6v6h6zm22-44h-6v6h6zM33 71h-6v6h6zm121 11h-6v6h6zm-44 44h-6v6h6zm-55 11h-6v6h6zm44-88h-6v6h6zM44 60h-6v6h6zm121 11h-6v6h6zm-55 77h-6v6h6zM99 71h-6v6h6zM44 82h-6v6h6zm121 11h-6v6h6zm-99 11h-6v6h6zm55 11h-6v6h6zm-55 11h-6v6h6zm44-88h-6v6h6zM55 49h-6v6h6zm77 55h-6v6h6zm-55 11h-6v6h6zm44-88h-6v6h6zM66 38h-6v6h6zm22 66h-6v6h6zM77 27h-6v6h6zm66 88h-6v6h6zm-55 11h-6v6h6zm44-88h-6v6h6zM77 49h-6v6h6zm44 88h-6v6h6zm-55 11h-6v6h6zm44-88h-6v6h6zM55 71h-6v6h6zm66 88h-6v6h6zm-11-77h-6v6h6zM99 93h-6v6h6zm33 55h-6v6h6zm-55 11h-6v6h6zm44-88h-6v6h6zM66 82h-6v6h6zm66 44h-6v6h6zm-55 11h-6v6h6zm44-88h-6v6h6zM66 60h-6v6h6zm77 77h-6v6h6zm-55 11h-6v6h6zm44-88h-6v6h6zM77 71h-6v6h6zm55 11h-6v6h6zm22-22h-6v6h6zM33 93h-6v6h6zm121 11h-6v6h6zM88 38h-6v6h6zm-55 77h-6v6h6zm121 11h-6v6h6zm-11-77h-6v6h6zM88 60h-6v6h6zm-44 44h-6v6h6zm121 11h-6v6h6zM88 82h-6v6h6zM55 93h-6v6h6zm22 0h-6v6h6zm-22 22h-6v6h6zm-11 11h-6v6h6z"/><circle cx="96" cy="96" r="74" stroke-width="12"/></svg>