<svg width="192" height="192" fill="none" xmlns="http://www.w3.org/2000/svg"><circle cx="96" cy="96" r="74" stroke="#000" stroke-width="12" stroke-linecap="round" stroke-linejoin="round"/><circle cx="96" cy="96" r="46" stroke="#000" stroke-width="12" stroke-linecap="round" stroke-linejoin="round"/><path d="M115.356 108.598c.829 1.435-1.602 4.389-5.428 6.598-3.826 2.21-7.6 2.837-8.428 1.402-.829-1.434 1.602-4.389 5.428-6.598 3.826-2.209 7.6-2.836 8.428-1.402Z" stroke="#000" stroke-width="10" stroke-linecap="round" stroke-linejoin="round"/><path d="M91.018 71.77c.829 1.435-1.602 4.39-5.428 6.598-3.826 2.21-7.6 2.837-8.428 1.402-.828-1.435 1.602-4.389 5.428-6.598 3.826-2.209 7.6-2.837 8.428-1.402Z" stroke="#000" stroke-width="6" stroke-linecap="round" stroke-linejoin="round"/></svg>