<svg xmlns="http://www.w3.org/2000/svg" width="192" height="192" fill="none" viewBox="0 0 192 192"><path stroke="#000" stroke-linecap="round" stroke-linejoin="round" stroke-width="6" d="M99 159h-6v6h6v-6Zm0-132h-6v6h6v-6Zm44 44h-6v6h6v-6Zm-33 33h-6v6h6v-6Zm-11 11h-6v6h6v-6Zm44-22h-6v6h6v-6Zm-44 44h-6v6h6v-6Zm22-44h-6v6h6v-6ZM33 71h-6v6h6v-6Zm121 11h-6v6h6v-6Zm-44 44h-6v6h6v-6Zm-55 11h-6v6h6v-6Zm44-88h-6v6h6v-6ZM44 60h-6v6h6v-6Zm121 11h-6v6h6v-6Zm-55 77h-6v6h6v-6ZM99 71h-6v6h6v-6ZM44 82h-6v6h6v-6Zm121 11h-6v6h6v-6Zm-99 11h-6v6h6v-6Zm55 11h-6v6h6v-6Zm-55 11h-6v6h6v-6Zm44-88h-6v6h6v-6ZM55 49h-6v6h6v-6Zm77 55h-6v6h6v-6Zm-55 11h-6v6h6v-6Zm44-88h-6v6h6v-6ZM66 38h-6v6h6v-6Zm22 66h-6v6h6v-6ZM77 27h-6v6h6v-6Zm66 88h-6v6h6v-6Zm-55 11h-6v6h6v-6Zm44-88h-6v6h6v-6ZM77 49h-6v6h6v-6Zm44 88h-6v6h6v-6Zm-55 11h-6v6h6v-6Zm44-88h-6v6h6v-6ZM55 71h-6v6h6v-6Zm66 88h-6v6h6v-6Zm-11-77h-6v6h6v-6ZM99 93h-6v6h6v-6Zm33 55h-6v6h6v-6Zm-55 11h-6v6h6v-6Zm44-88h-6v6h6v-6ZM66 82h-6v6h6v-6Zm66 44h-6v6h6v-6Zm-55 11h-6v6h6v-6Zm44-88h-6v6h6v-6ZM66 60h-6v6h6v-6Zm77 77h-6v6h6v-6Zm-55 11h-6v6h6v-6Zm44-88h-6v6h6v-6ZM77 71h-6v6h6v-6Zm55 11h-6v6h6v-6Zm22-22h-6v6h6v-6ZM33 93h-6v6h6v-6Zm121 11h-6v6h6v-6ZM88 38h-6v6h6v-6Zm-55 77h-6v6h6v-6Zm121 11h-6v6h6v-6Zm-11-77h-6v6h6v-6ZM88 60h-6v6h6v-6Zm-44 44h-6v6h6v-6Zm121 11h-6v6h6v-6ZM88 82h-6v6h6v-6ZM55 93h-6v6h6v-6Zm22 0h-6v6h6v-6Zm-22 22h-6v6h6v-6Zm-11 11h-6v6h6v-6Z"/><circle cx="96" cy="96" r="74" stroke="#000" stroke-linejoin="round" stroke-width="12"/></svg>