<svg width="192" height="192" viewBox="0 0 192 192" fill="none" xmlns="http://www.w3.org/2000/svg"><path d="M121 91h-10v10h10V91Zm-40 0H71v10h10V91Zm60 20h-10v10h10v-10Zm-40 0H91v10h10v-10Zm-40 0H51v10h10v-10Zm80-40h-10v10h10V71Zm-40 0H91v10h10V71Zm-40 0H51v10h10V71Zm60 60h-10v10h10v-10Zm-40 0H71v10h10v-10Zm40-80h-10v10h10V51Zm-40 0H71v10h10V51Z" stroke="#000" stroke-width="10" stroke-linecap="round" stroke-linejoin="round"/><circle cx="96" cy="96" r="74" stroke="#000" stroke-width="12" stroke-linejoin="round"/></svg>