<svg xmlns="http://www.w3.org/2000/svg" width="192" height="192" fill="none"><circle cx="38" cy="102" r="17" stroke="#000" stroke-linecap="round" stroke-linejoin="round" stroke-width="10"/><ellipse cx="97" cy="108" stroke="#000" stroke-linecap="round" stroke-linejoin="round" stroke-width="10" rx="42" ry="34"/><circle cx="46" cy="102" r="3" stroke="#000" stroke-linecap="round" stroke-linejoin="round" stroke-width="6"/><ellipse cx="84" cy="108" stroke="#000" stroke-linecap="round" stroke-linejoin="round" stroke-width="8" rx="3" ry="7"/><path stroke="#000" stroke-linecap="round" stroke-linejoin="round" stroke-width="8" d="M104 144c0 .919-.103 1.83-.304 2.679-.202.849-.496 1.621-.868 2.271-.371.65-.812 1.165-1.297 1.517-.486.352-1.006.533-1.531.533s-1.045-.181-1.53-.533-.927-.867-1.298-1.517c-.372-.65-.666-1.422-.867-2.271A11.7 11.7 0 0 1 96 144zm-19.46-3.168c-.239.888-.574 1.74-.988 2.509a8.6 8.6 0 0 1-1.426 1.969c-.526.532-1.086.916-1.646 1.13s-1.109.254-1.616.118-.963-.445-1.34-.911c-.379-.465-.671-1.077-.862-1.801s-.275-1.546-.25-2.418.162-1.779.4-2.667l3.864 1.036 3.863 1.035Zm38.999-3.071c.238.888.374 1.794.399 2.667s-.059 1.694-.249 2.418c-.191.724-.483 1.336-.861 1.801-.378.466-.833.775-1.341.911-.507.136-1.057.096-1.616-.118s-1.12-.598-1.647-1.13-1.011-1.201-1.425-1.969a11.7 11.7 0 0 1-.987-2.509l3.863-1.035z"/><ellipse cx="112" cy="108" stroke="#000" stroke-linecap="round" stroke-linejoin="round" stroke-width="8" rx="4" ry="5"/><circle cx="148" cy="103" r="3" stroke="#000" stroke-linecap="round" stroke-linejoin="round" stroke-width="6"/><ellipse cx="155" cy="103" stroke="#000" stroke-linecap="round" stroke-linejoin="round" stroke-width="10" rx="16" ry="17"/><path stroke="#000" stroke-linecap="round" stroke-linejoin="round" stroke-width="10" d="M164.635 139c-11.693 20.905-38.248 32-69.135 32-30.278 0-55.867-11.453-67.61-32M40 65.2a75.7 75.7 0 0 1 9.298-8.481C43.415 55.475 39 50.253 39 44c0-7.18 5.82-13 13-13s13 5.82 13 13c0 1.258-.178 2.474-.512 3.624C73.89 43.399 84.378 41 95.5 41q.778 0 1.557.021A12.94 12.94 0 0 1 95 34c0-7.18 5.82-13 13-13s13 5.82 13 13a12.98 12.98 0 0 1-5.197 10.4c12.22 4.025 23.815 11.388 33.194 20.8"/></svg>