<svg xmlns="http://www.w3.org/2000/svg" width="192" height="192" fill="none" stroke="#000" stroke-linecap="round" stroke-width="12" viewBox="0 0 192 192"><path d="M132 86c0 4.334-.931 8.625-2.74 12.629s-4.461 7.641-7.804 10.706-7.312 5.495-11.679 7.153a38.87 38.87 0 0 1-27.554 0c-4.367-1.658-8.336-4.089-11.679-7.153-3.343-3.065-5.995-6.703-7.804-10.706A30.6 30.6 0 0 1 60 86M22 74c0 53 53 81 64.42 83.74M170 74c0 53-53 81-64.42 83.74M96 74a36.999 36.999 0 1 0-74 0m64.424 83.739a37 37 0 0 0 19.152 0"/><path d="M170 74a37 37 0 1 0-74 0"/></svg>