<svg width="192" height="192" viewBox="0 0 192 192" fill="none" xmlns="http://www.w3.org/2000/svg"><path d="M86.42 156.74C75 154 22 126 22 73a37 37 0 0 1 74 0m74 0c0 53-53 81-64.42 83.74m-19.156-.001a36.998 36.998 0 0 0 19.152 0M170 73a37 37 0 1 0-74 0" stroke="#000" stroke-width="12" stroke-linecap="round"/><path d="M102 97a11.998 11.998 0 0 0 12-12 11.998 11.998 0 0 0-12-12" stroke="#000" stroke-width="12" stroke-linecap="round" stroke-linejoin="round"/><path d="M104 121c3.183 0 6.235-1.264 8.485-3.515a11.996 11.996 0 0 0 0-16.97A11.997 11.997 0 0 0 104 97m-2-24H86a6 6 0 0 0-6 6v36a6 6 0 0 0 6 6h18M80 97h23.998" stroke="#000" stroke-width="12" stroke-linecap="round" stroke-linejoin="round"/></svg>