<?xml version="1.0" encoding="utf-8"?>
	<svg version="1.1" xmlns="http://www.w3.org/2000/svg" xmlns:xlink="http://www.w3.org/1999/xlink" x="0px" y="0px" width="240.0" height="240.0" xml:space="preserve">
		<path d="M54.433,125.348C76.675,120.678 73.649,94.702 72.981,89.013C71.886,80.261 61.353,64.956 47.049,66.17C29.043,67.745 26.412,93.158 26.412,93.158C23.973,104.917 32.245,130.024 54.433,125.348L54.433,125.348ZM78.05,170.536C77.402,172.368 75.95,177.045 77.207,181.108C79.689,190.229 88.611,188.741 88.611,188.741L101.114,188.741L101.114,163.735L88.611,163.735C83.009,165.372 78.657,168.717 78.05,170.536L78.05,170.536ZM95.724,81.779C108.015,81.779 117.943,67.957 117.943,50.883C117.943,33.816 108.015,20 95.724,20C83.458,20 73.5,33.816 73.5,50.883C73.5,67.957 83.458,81.779 95.724,81.779L95.724,81.779ZM148.64,83.824C165.07,85.906 175.622,68.783 177.723,55.804C179.861,42.844 169.265,27.783 157.635,25.196C145.984,22.582 131.442,40.825 130.116,52.709C128.535,67.244 132.254,81.76 148.64,83.824L148.64,83.824ZM188.883,160.132C188.883,160.132 163.475,140.916 148.634,120.154C128.528,89.545 99.964,101.998 90.417,117.564C80.908,133.131 66.079,142.972 63.972,145.586C61.84,148.149 33.288,163.216 39.621,190.729C45.954,218.243 69.856,220 69.856,220C69.856,220 84.628,219.293 103.665,215.129C122.701,211.004 139.106,216.155 139.106,216.155C139.106,216.155 183.581,230.709 195.752,202.688C207.906,174.662 188.883,160.132 188.883,160.132L188.883,160.132ZM113.617,201.245L82.358,201.245C69.874,200.951 66.392,191.072 65.767,189.654C65.147,188.21 61.615,181.515 63.485,170.136C68.88,153.068 82.365,151.237 82.365,151.237L101.12,151.237L101.12,132.482L113.624,132.482L113.624,201.245L113.617,201.245ZM163.632,201.245L132.373,201.245C120.063,200.719 119.85,189.435 119.85,189.435L119.869,151.23L132.373,151.23L132.373,182.49C133.198,185.935 138.624,188.741 138.624,188.741L151.128,188.741L151.128,151.23L163.632,151.23L163.632,201.245L163.632,201.245ZM213.739,105.617C213.739,99.41 208.456,80.712 188.883,80.712C169.265,80.712 166.645,98.36 166.645,110.838C166.645,122.742 167.67,139.359 192.039,138.84C216.408,138.322 213.739,111.863 213.739,105.617L213.739,105.617Z" fill="#000" stroke="#00000000" stroke-width="1.0" stroke-miterlimit=""/>
	</svg>
