<svg xmlns="http://www.w3.org/2000/svg" width="192" height="192" fill="none"><path stroke="#000" stroke-linecap="round" stroke-linejoin="round" stroke-width="10" d="M96 21c-50 0-68 17-68 71 0 52 17.384 59.504 48.15 62.411L88 171l10-14 1.565-2.191C130.746 153.45 164 145.787 164 92c0-70-22-71-68-71"/><path stroke="#000" stroke-linecap="round" stroke-linejoin="round" stroke-width="10" d="M105 91a6 6 0 0 1 6-6h24a6 6 0 0 1 6 6v22c0 5.523-4.477 10-10 10h-20a6 6 0 0 1-6-6zm-18-2V57a6 6 0 0 0-6-6H61c-5.523 0-10 4.477-10 10v28m65-38v34M69 69v36m0 0c0 18-18 18-18 18m18-18c0 18 18 18 18 18m51-62h-22"/></svg>