<svg xmlns="http://www.w3.org/2000/svg" width="192" height="192" fill="none" stroke="#000" stroke-linecap="round" stroke-linejoin="round" viewBox="0 0 192 192"><path stroke-width="12" d="M41.3 33.4c4.1-1.1 8.5-1.4 12.6-.3 1.8.4 3.5 1 5.2 1.7 1.3.6 2.5 1.4 3.8 2.1.9.5 1.6 1.2 2.3 1.8.8.6 1.5 1.2 2.2 1.9.3.3.6.8.9 1s.7 0 1.1-.1c1.1-.4 2.2-1 3.3-1.3 1.7-.6 3.4-.8 5.1-1.3 3.7-.9 7.5-1.4 11.2-1.6 2.3-.1 4.6-.1 6.9-.2 2.7.1 5.4.1 8 .2 3.4.3 6.7.7 10 1.5 1.8.5 3.6.8 5.3 1.4 1.3.4 2.5 1.1 3.8 1.5.6.1.9-.5 1.2-.9 1.2-1.3 2.7-2.4 4.1-3.6 1.4-.9 2.9-1.8 4.4-2.5 2.9-1.2 6-2.1 9.1-2.3 2.6-.2 5.3.1 7.8.7 1.9.4 3.7 1.3 5.4 2.1 2.5 1.5 5 3.1 7 5.2 2.6 2.6 4.5 5.8 5.9 9.2 2.3 5.3 2.4 11.4.9 16.9-.7 2.7-2 5.2-3.5 7.5q-2.1 3.45-5.4 6c-.9.9-2 1.5-3 2.2.3 1.3.9 2.5 1.2 3.7.6 2.1 1.2 4.1 1.6 6.2.6 3 1.1 6.1 1.4 9.2.3 2.2.4 4.5.7 6.7.2 1.9.3 3.8.1 5.8 0 2.2-.1 4.5-.2 6.7-.4 7.9-3.8 15.5-8.9 21.6-4.8 5.7-11.5 9.6-18.5 12.1-3.8 1.4-7.7 2.2-11.7 3-3.3.7-6.7 1.2-10.1 1.6-2.1.2-4.1.3-6.2.5-2.5.2-5 .1-7.4.2-5.1 0-10.2.1-15.3-.3-7.7-.4-15.2-1.8-22.6-3.7-6.1-1.6-11.9-4.2-17-8-6.7-5.1-11.6-12.6-13.6-20.8-.7-2.7-1-5.5-1-8.3-.2-7 .2-13.9 1.2-20.8.3-2.1.7-4.2 1.1-6.2.4-1.8 1-3.6 1.5-5.4.3-1.3.8-2.5 1.2-3.7l-1.8-1.2c-1.6-1.4-3.3-2.7-4.6-4.4-2-3-4-6.3-5-10s-1.3-7.6-.7-11.5c.4-2.6 1.3-5.1 2.4-7.4 1.3-2.7 3-5.1 5-7.3 2-2.1 4.6-3.7 7.1-5.3 1.5-.6 3-1.3 4.5-1.8"/><path stroke-width="8" d="M75.1 87s-7.8 1.2-12.7 11.6c-3.5 7.4-4.3 17.1 1.6 18.7 5.8 1.6 13.1-5.1 15.6-8.4.2-.2 10.7-39.8 10.7-39.8l-10.9 41.2s-2.5 5.9 2.7 7.5c3.3 1.1 9-4.6 9-4.6M105.3 87s-5.3 18.9-5.4 23.3c-.1 4.7 1.4 7.6 5.9 7.7 3.9.1 11.6-4.3 14.7-8.4.5-.6.8-1.2 1.1-1.8 1.8-4.5 5.7-20.7 5.7-20.7l-5.7 20.7s-1.5 8.6 3.9 10.3c3.9 1.3 10.5-6.2 10.5-6.2"/></svg>