<?xml version="1.0" encoding="utf-8"?>
	<svg version="1.1" xmlns="http://www.w3.org/2000/svg" xmlns:xlink="http://www.w3.org/1999/xlink" x="0px" y="0px" width="240.0" height="240.0" xml:space="preserve">
		<path d="M207.716,159.595C211.189,159.561 214.489,158.073 216.814,155.491C219.138,152.91 220.273,149.473 219.944,146.015C219.995,136.013 216.911,126.248 211.126,118.089C204.393,108.095 194.082,101.067 182.318,98.453C177.85,97.454 173.265,97.043 168.562,96.337C169.569,81.634 163.837,67.27 152.982,57.3C142.32,46.941 127.387,42.232 112.711,44.602C87.268,48.439 69.105,71.271 71.088,96.925C45.28,96.004 23.14,115.167 20.352,140.841C18.582,155.233 23.55,169.636 33.815,179.878C44.321,191.174 59.699,196.601 74.968,194.399C84.356,193.542 93.219,189.688 100.248,183.405C107.302,176.879 113.769,169.766 120.53,162.887C131.818,151.129 142.988,139.665 154.334,128.142C161.453,121.263 172.017,119.354 181.093,123.307C190.17,127.259 195.968,136.293 195.781,146.191C195.506,149.57 196.626,152.915 198.88,155.447C201.135,157.979 204.327,159.478 207.716,159.595L207.716,159.595ZM69.442,170.354C59.45,170.617 50.299,164.788 46.314,155.622C42.328,146.456 44.307,135.788 51.313,128.66C58.32,121.533 68.953,119.373 78.186,123.201C87.418,127.029 93.403,136.079 93.31,146.073C93.312,159.324 82.69,170.129 69.442,170.354L69.442,170.354ZM119.707,117.443C109.749,117.489 100.752,111.508 96.942,102.307C93.132,93.107 95.266,82.516 102.341,75.509C109.417,68.501 120.028,66.47 129.191,70.369C138.354,74.268 144.248,83.323 144.105,93.28C144.059,99.74 141.439,105.915 136.827,110.439C132.215,114.963 125.991,117.462 119.531,117.384L119.707,117.443ZM205.07,171.471C201.831,171.276 198.656,172.428 196.296,174.655C193.936,176.881 192.601,179.984 192.607,183.229C192.541,189.992 197.954,195.537 204.717,195.633C211.244,195.521 216.577,190.392 216.946,183.875C217.025,180.653 215.816,177.532 213.587,175.204C211.358,172.876 208.293,171.532 205.07,171.471L205.07,171.471Z" fill="#000" stroke="#00000000" stroke-width="1.0" stroke-miterlimit=""/>
	</svg>
