<svg xmlns="http://www.w3.org/2000/svg" xml:space="preserve" id="图层_1" width="192" height="192" x="0" y="0" style="enable-background:new 0 0 192 192" version="1.1"><style>.st0,.st1{fill:none;stroke:#000;stroke-width:12;stroke-miterlimit:10}.st1{stroke-width:10}</style><path d="M54.3 129.4c-21.1-11.9-33.8-32.5-32-52.8 1.6-17.5 13.6-29.1 17.7-33 17.7-17 39.8-17.9 45.6-18" class="st0"/><path d="M53.8 129.1c2.4 6.8 4.9 13.5 7.3 20.3.1.1.7 1.3 2 1.5 1.5.2 2.5-.9 2.6-.9 5.7-5 11.5-10.1 17.2-15.1 36.1 1.1 64.7-19.1 69.8-43.9 4.3-21.2-9.7-39.4-12.6-42.9-22-27.1-58.8-22.3-61.1-22" class="st0"/><path d="M51.5 127.8c.5.2 2.2 1 3.2 2.9.8 1.4.8 2.8.8 3.4M153.5 150.2c2.2-.7 15.8-5.2 20.8-18.4 5.7-14.9-3.1-32.5-8.2-32.3-5.2.1-2 18.6-15.7 32-14.3 14.1-36.8 12.5-36.5 17.1.1 2.1 4.8 3.6 9.4 5 5.6 1.8 10.5 1.8 13.5 1.5 2.1 2 4.1 4 6.2 6 1.1 1.1 2.8 1.5 4.3 1.1 1.6-.5 2.8-1.8 3.1-3.5 1-2.8 2.1-5.6 3.1-8.5z" class="st0"/><circle cx="66.7" cy="58.7" r="5.9"/><path d="M53.8 77.5h12.9v29.1M85.5 56.6h30.6M112.3 57.2c-3.6 3.7-7.2 7.5-10.9 11.2l-7.8 8.1H79.7M109.9 77.5l-8.5-9.2 8.5 9.2zM125.1 77.5h-15.2M112.4 77c-.7.6-1.6.8-2.5.5-1-.4-1.7-1.4-1.6-2.6M84.4 92.1h35.1M81.5 105.5h40.7M101.8 85.4l.2 33.3-.2-35.1v-1" class="st1"/></svg>