<svg xmlns="http://www.w3.org/2000/svg" width="192" height="192" fill="none" stroke="#000" stroke-linecap="round" stroke-linejoin="round" stroke-width="12" viewBox="0 0 192 192"><path d="M89.7 104.3c0-18.3.1-36.7.1-55-1.6-.2-18.3-2.1-23.9-1-1.4.3-2.6.8-2.7.8-2.8 1.3-4.5 3.6-5.3 5l-.3 50.1"/><path d="M56.9 126.2c2.4-.8 5.4-2.2 8.5-4.3 4-2.8 6.8-5.8 8.5-8.1l.6-51m16.9 63.1c-2.6-1.1-5.6-2.6-8.7-4.6-3-1.9-5.5-3.8-7.6-5.6m38.7-67.3c.2 12.5-.2 24.3 0 36.8m23.5-27.1-23-.3m-10 68.6.3-39.8c10.2-.2 20.3-.4 30.5-.1 0 10.1-.1 19.8-.1 29.9 0 .9-.2 2.6-1.1 4.3-1.6 3-4.2 5.3-5 5.6-8.3.5-16.5-.2-24.6.1"/><path d="M133.3 145.1c16.4-9.3 22.7-24.7 24.6-30.8 2.1-6.4 2.4-11.4 2.9-21.3.5-8.3 1-16.5-1-26.5-1.7-8.9-4.3-22.3-15-31.7-6.3-5.6-12.6-7.2-22.4-9.8-3.9-1-22.2-5.6-48.4-1.1-16.2 2.8-24.3 4.1-30.4 9.5-12.5 11.3-12.6 30-12.9 53.3-.1 12.5 1.5 21.3 3.9 28.7 1.7 5.1 3.8 11.5 8.4 17.6 10.6 13.9 27.6 17.2 34.3 18.1 4.9 6.3 9.9 12.6 14.8 18.9 3.9-6.1 7.8-12.1 11.8-18.2 5.6.3 17.3.1 29.4-6.7"/></svg>