<?xml version="1.0" encoding="utf-8"?>
	<svg version="1.1" xmlns="http://www.w3.org/2000/svg" xmlns:xlink="http://www.w3.org/1999/xlink" x="0px" y="0px" width="192.0" height="192.0" xml:space="preserve">
		<path d="M28.5,64.1l0.6,0.4l15.9,48.8l15.9-48.8l0.6-0.4h10.9l0.4,0.4l0.4-0.4h25.3c14.9,0,22.6,6.5,22.6,19.3 c0,12.1-6.7,18.6-19.7,19.5c-1.1,0.1-2.3,0.5-3.2,1.1h0h-15v22.3l-0.6,0.6h-10l-0.4-0.4V69.4c0-0.6-0.9-0.8-1.1-0.2l-19.7,57.3 l-0.6,0.4H39.1l-0.6-0.4L17.3,64.9l0.6-0.8H28.5z M133.6,65.1l0.4,0.2l29.8,43.7V65.7l0.6-0.6h9.8l0.6,0.6v61.4l-0.6,0.6l-10.3-0.2 l-30-44.3v44.1l-0.6,0.6h-9.8l-0.6-0.6V65.7l0.6-0.6H133.6z M97.4,74.1H83.1V94h14.3c4.3,0,7.7-0.8,9.6-2.4c2-1.6,2.9-4.1,2.9-7.7 c0-3.6-1-6.1-2.9-7.5c-1.8-1.4-4.5-2.2-8-2.4L97.4,74.1L97.4,74.1z" fill="#000" stroke="#000" stroke-width="2.3676" stroke-miterlimit="10.0"/>
	</svg>
