<svg xmlns="http://www.w3.org/2000/svg" viewBox="0 0 192 192"><path d="M55.56 164.94c-1.84-1.22-3.39-2.34-5.02-3.33-2.54-1.55-3.51-3.29-2.91-6.62 1.21-6.76-5.05-12.45-12.34-11.47-2.38.32-3.63-.27-4.94-2.18C-2.07 93.9 25.39 28.28 81.89 18.24c44.41-7.89 86.35 22.24 92.74 66.69 2.94 20.43-1.62 39.17-12.99 56.34-1.32 2-2.53 2.73-5.13 2.29-7.86-1.31-13.68 5.08-11.87 12.82.42 1.81.23 2.93-1.38 3.92-2.29 1.4-4.49 2.97-6.94 4.61-3.94-5.51-8.76-8.2-15.2-5.16-4.62 2.18-6.12 6.22-5.27 13.73-2.8.49-5.62.98-8.64 1.51-1.69-6.65-5.11-11.08-12.25-10.54-6.13.46-8.97 4.56-9.95 10.58-1.29-.15-2.49-.25-3.67-.43-3.23-.5-5.54-1.3-4.98-5.71.55-4.38-2.79-8.25-6.99-9.73-4.26-1.5-8.71-.32-11.66 3.09-.65.76-1.25 1.57-2.15 2.69Zm-2.32-64.77c-10.64-.18-19.39 8.19-19.53 18.72-.15 10.82 8.19 19.64 18.82 19.9 10.7.26 19.61-8.29 19.75-18.94.14-10.74-8.33-19.49-19.04-19.68Zm85.63 0c-10.57.01-19.2 8.61-19.22 19.13-.02 10.62 8.74 19.44 19.34 19.5 10.7.05 19.35-8.61 19.31-19.36-.04-10.73-8.66-19.29-19.43-19.27Zm-43.06 53.12v.13c3.15 0 6.32.2 9.46-.05 3.87-.3 6.02-3.66 4.27-6.97-2.99-5.67-6.22-11.23-9.68-16.63-1.96-3.07-6.22-2.78-8.17.39-3.18 5.18-6.26 10.43-9.13 15.78-1.86 3.46.17 6.98 4.13 7.3 3.02.25 6.08.05 9.12.05Z" style="stroke-width:0"/></svg>