<svg width="192" height="192" viewBox="0 0 192 192" fill="none" xmlns="http://www.w3.org/2000/svg"><path d="M115 63H70a6 6 0 0 0-6 6v60m51-34H98m17 34H98m17-66a16.001 16.001 0 0 1 11.314 27.314A16.005 16.005 0 0 1 115 95m0 0a17.006 17.006 0 0 1 12.021 4.98A17.01 17.01 0 0 1 132 112a17.012 17.012 0 0 1-4.979 12.021A17.013 17.013 0 0 1 115 129" stroke="#000" stroke-width="12" stroke-linecap="round" stroke-linejoin="round"/><rect x="25" y="25" width="142" height="142" rx="28" stroke="#000" stroke-width="12" stroke-linecap="round" stroke-linejoin="round"/></svg>