<svg width="192" height="192" fill="none" xmlns="http://www.w3.org/2000/svg"><path d="m129.566 121.983-30.585 17.513a5.998 5.998 0 0 1-5.962 0l-29.115-16.671a6 6 0 0 1-3.019-5.207V74.382a6 6 0 0 1 3.019-5.207l29.114-16.671a6 6 0 0 1 5.963 0l30.585 17.513m14.379 18.727 12.037-6.893A6.001 6.001 0 0 0 159 76.644v-16.09a6.001 6.001 0 0 0-3.018-5.207l-57-32.64a6 6 0 0 0-5.963 0l-57 32.64A6 6 0 0 0 33 60.554v70.892a6 6 0 0 0 3.019 5.207l57 32.64a6.003 6.003 0 0 0 5.962 0l57.001-32.64a6 6 0 0 0 3.018-5.207v-16.091a6 6 0 0 0-3.018-5.206l-12.037-6.893a6 6 0 0 1-3.019-5.207v-4.098a6 6 0 0 1 3.019-5.207Z" stroke="#000" stroke-width="12" stroke-linecap="round" stroke-linejoin="round"/><path d="m129.566 121.983-12.99-7.438a6 6 0 0 1-3.019-5.207V82.662a6 6 0 0 1 3.019-5.207l12.99-7.438" stroke="#000" stroke-width="12" stroke-linecap="round" stroke-linejoin="round"/></svg>