<svg width="192" height="192" fill="none" xmlns="http://www.w3.org/2000/svg"><path d="M133 96a37 37 0 0 0 0-74H71m62 74a37 37 0 0 1 0 74H71m62-74H22m49-74a37 37 0 0 1 0 74 37 37 0 1 1 0 74m0-148H22c6.63 0 12.99 3.898 17.678 10.837C44.366 39.776 47 49.187 47 59c0 9.813-2.634 19.224-7.322 26.163C34.989 92.102 28.63 96 22 96m0 0c6.63 0 12.99 3.898 17.678 10.837C44.366 113.776 47 123.187 47 133c0 9.813-2.634 19.224-7.322 26.163C34.989 166.102 28.63 170 22 170h49" stroke="#000" stroke-width="12" stroke-linecap="round" stroke-linejoin="round"/></svg>