<svg width="192" height="192" fill="none" xmlns="http://www.w3.org/2000/svg"><path d="M128.736 87.049a6.002 6.002 0 0 1 2.996-5.194l21.891-12.665v-6.815L95.812 28.932 38 62.375v67.249l57.811 33.443 57.812-33.443v-9.063l-21.891-12.665a6 6 0 0 1-2.996-5.193V87.049Zm12 12.193 21.892 12.664a6 6 0 0 1 2.995 5.194v15.985a5.997 5.997 0 0 1-2.995 5.193l-63.812 36.915a5.998 5.998 0 0 1-6.01 0l-63.81-36.915A5.999 5.999 0 0 1 26 133.085v-74.17l.014-.4a6 6 0 0 1 2.981-4.793l63.812-36.915a6.002 6.002 0 0 1 6.01 0l63.811 36.915a5.999 5.999 0 0 1 2.995 5.193v13.736a5.999 5.999 0 0 1-2.995 5.194l-21.892 12.664v8.733Z" fill="#000"/><path d="M94.779 41.843a5 5 0 0 1 4.714.158l34.353 19.877a5 5 0 0 1-5.008 8.655l-31.85-18.428-38.7 22.392v45.033l38.7 22.392 31.85-18.427a5 5 0 1 1 5.008 8.655l-34.353 19.876a5.001 5.001 0 0 1-5.008 0l-43.701-25.284a5.001 5.001 0 0 1-2.496-4.328V71.613a5 5 0 0 1 2.496-4.327L94.484 42l.295-.158Z" fill="#000"/></svg>