<svg width="192" height="192" fill="none" xmlns="http://www.w3.org/2000/svg"><path d="M96 105c-4 0-10.25-3-12-9 3.5 1.636 6 5 12 5s8.5-3.364 12-5c-1.75 6-8 9-12 9Z" stroke="#000" stroke-width="6" stroke-linecap="round" stroke-linejoin="round"/><circle cx="123" cy="34" r="4" stroke="#000" stroke-width="8" stroke-linecap="round" stroke-linejoin="round"/><circle cx="40" cy="75" r="4" stroke="#000" stroke-width="8" stroke-linecap="round" stroke-linejoin="round"/><circle cx="71" cy="168" r="4" stroke="#000" stroke-width="8" stroke-linecap="round" stroke-linejoin="round"/><circle cx="47" cy="153" r="4" stroke="#000" stroke-width="8" stroke-linecap="round" stroke-linejoin="round"/><circle cx="124" cy="168" r="4" stroke="#000" stroke-width="8" stroke-linecap="round" stroke-linejoin="round"/><circle cx="148" cy="153" r="4" stroke="#000" stroke-width="8" stroke-linecap="round" stroke-linejoin="round"/><circle cx="152" cy="75" r="4" stroke="#000" stroke-width="8" stroke-linecap="round" stroke-linejoin="round"/><path d="M73 114c-48 10-26 39-26 39s11-12 19-8 5 22 5 22 13-24 27-24 26 24 26 24 0-16 6-21 18 6 18 6 19-27-28-38" stroke="#000" stroke-width="10" stroke-linecap="round" stroke-linejoin="round"/><path d="M76 43C36 31 38 65 40 73c0 0 9-13 20-13 6 0 6 11 6 11-5 9 0 21 0 21-4 10 4 14 4 14s2 17 26 17m0 0c24 0 26-17 26-17s8-4 4-14c0 0 5-12 0-21 0 0 0-11 6-11 11 0 20 13 20 13 1.374-5.496 2.748-23.267-9.5-29.958" stroke="#000" stroke-width="10" stroke-linecap="round" stroke-linejoin="round"/><path d="M66 71c14.884-16.851 5.969-23.79 29.783-46.59 8.921-7.93 24.813-.958 21.829 9.914" stroke="#000" stroke-width="10" stroke-linecap="round" stroke-linejoin="round"/><path d="M126 71c-8.916-10.105-10.646-17.03-14-25.815C108 34 118 34 118 34" stroke="#000" stroke-width="10" stroke-linecap="round" stroke-linejoin="round"/><path d="M84.333 82c0-.394.06-.784.178-1.148.117-.364.29-.695.506-.973.216-.279.474-.5.757-.65a1.89 1.89 0 0 1 .893-.229c.306 0 .61.078.893.228.283.151.54.372.757.65.216.28.388.61.505.974.118.364.178.754.178 1.148h-4.667Zm0 0c-.306 0-.61-.078-.893-.228a2.391 2.391 0 0 1-.757-.65 3.167 3.167 0 0 1-.505-.974A3.759 3.759 0 0 1 82 79c0-.394.06-.784.178-1.148.117-.364.289-.695.505-.973.217-.279.474-.5.757-.65.284-.151.587-.229.893-.229v6Zm23.334 0c0-.394-.061-.784-.178-1.148a3.154 3.154 0 0 0-.506-.973 2.385 2.385 0 0 0-.757-.65 1.89 1.89 0 0 0-.893-.229c-.306 0-.61.078-.893.228-.283.151-.54.372-.757.65-.216.28-.388.61-.505.974A3.735 3.735 0 0 0 103 82h4.667Zm0 0c.306 0 .61-.078.893-.228.283-.151.54-.372.757-.65.216-.28.388-.61.505-.974.118-.364.178-.754.178-1.148 0-.394-.06-.784-.178-1.148a3.174 3.174 0 0 0-.505-.973 2.396 2.396 0 0 0-.757-.65 1.894 1.894 0 0 0-.893-.229v6Z" stroke="#000" stroke-width="6" stroke-linecap="round" stroke-linejoin="round"/></svg>