<svg xmlns="http://www.w3.org/2000/svg" width="192" height="192" fill="none"><path stroke="#000" stroke-linecap="round" stroke-linejoin="round" stroke-width="12" d="m120 57 50 64"/><path stroke="#000" stroke-linecap="round" stroke-linejoin="round" stroke-width="10" d="M84 135s-8-15 3-26v-6h-7l2-10m0 0h-8l9-5m-1 5 1-5m0 0s3-12 16-12 14 16 14 16v6s22-4 43 5"/><path stroke="#000" stroke-linecap="round" stroke-linejoin="round" stroke-width="12" d="M22 57v72a6 6 0 0 0 6 6h136a6 6 0 0 0 6-6V63a6 6 0 0 0-6-6H79"/><circle cx="46" cy="111" r="4" stroke="#000" stroke-linecap="round" stroke-linejoin="round" stroke-width="8"/><path stroke="#000" stroke-linecap="round" stroke-linejoin="round" stroke-width="10" d="M51 48h-4a6 6 0 0 0-6 6v26a6 6 0 0 0 6 6h4M41 66h10m0 0a9 9 0 0 0 0-18m0 38a10 10 0 0 0 0-20"/></svg>