<svg width="192" height="192" viewBox="0 0 192 192" fill="none" xmlns="http://www.w3.org/2000/svg"><path d="M169.936 89.21c1.329 15.876-18.159 30.444-43.529 32.538-25.369 2.093-47.013-9.08-48.343-24.957-1.33-15.877 18.159-30.445 43.529-32.539 25.369-2.093 47.013 9.08 48.343 24.957Z" stroke="#000" stroke-width="12" stroke-linecap="round" stroke-linejoin="round"/><path d="M21 131c42-14 70-16 70-16" stroke="#000" stroke-width="10" stroke-linecap="round" stroke-linejoin="round"/><path d="M97 148c55 0 75-16 75-16" stroke="#000" stroke-width="8" stroke-linecap="round" stroke-linejoin="round"/><path d="M21 101s35-17 66-24" stroke="#000" stroke-width="10" stroke-linecap="round" stroke-linejoin="round"/><path d="M56.629 172 46 147l27 3.31L56.629 172ZM72.126 20 93 44.443 61 50l11.126-30Z" stroke="#000" stroke-width="8" stroke-linecap="round" stroke-linejoin="round"/></svg>