<svg xmlns="http://www.w3.org/2000/svg" width="192" height="192" fill="none" stroke="#000" stroke-linecap="round" stroke-width="12" viewBox="0 0 192 192"><path d="M94 113.16V40.84"/><path stroke-linejoin="round" stroke-width="8" d="M60.13 51.07C68.56 60 69.55 65.44 73 73.86l5 16.85s-5-1-9.41-1.49c-5-.5-6.94-1.49-12.89-4S43.78 76.83 38.33 69.9 20 52.55 20 52.55A78 78 0 0 1 27.93 54a106.4 106.4 0 0 1 20.31 8 26.6 26.6 0 0 1 5 3 59.6 59.6 0 0 1 8.92 7.43c3.46 3.47 6.44 6.45 8.91 9.42-3-5-9.9-23.79-24.27-38.65-.54-2.04 10.36 4.9 13.33 7.87"/><circle cx="132" cy="113.16" r="38"/></svg>