<svg xmlns="http://www.w3.org/2000/svg" width="192" height="192" fill="none"><path stroke="#000" stroke-linecap="round" stroke-linejoin="round" stroke-width="12" d="m170 22-16 148m16-148c-18 1-30 13-48 24s-31 3-49 5-17 10-23.5 11-7-1-14.5 0-10 7-13 11c0 0 9 3.5 9 11s-9 13-9 13l8 5-5 8s3 4 3 10-6 10-6 10 2 14.5 18.5 14.5C42.964 128.892 63 121 84 126s33.477-.476 38-5c10-10 18-15 26-14s13-5 13-5"/><path stroke="#000" stroke-linecap="round" stroke-linejoin="round" stroke-width="12" d="M63 125s-8-16 8-32 2-40 2-40m47 67s-11-23 1-44c12-21.001-1-28-1-28"/></svg>