<svg width="192" height="192" viewBox="0 0 192 192" fill="none" xmlns="http://www.w3.org/2000/svg"><path d="M56 94a21 21 0 1 0 0-42" stroke="#000" stroke-width="10" stroke-linecap="round" stroke-linejoin="round"/><path d="M145 102a24.002 24.002 0 0 0 24-24 24.003 24.003 0 0 0-24-24" stroke="#000" stroke-width="14" stroke-linecap="round" stroke-linejoin="round"/><path d="M21 94h35" stroke="#000" stroke-width="10" stroke-linecap="round"/><path d="M103 102h42" stroke="#000" stroke-width="14" stroke-linecap="round"/><path d="M56 52H27a6 6 0 0 0-6 6v76a6 6 0 0 0 6 6h29" stroke="#000" stroke-width="10" stroke-linecap="round"/><path d="M103 138V60a6 6 0 0 1 6-6h38" stroke="#000" stroke-width="14" stroke-linecap="round"/><path d="M56 140a22.998 22.998 0 0 0 23-23 22.998 22.998 0 0 0-23-23" stroke="#000" stroke-width="10" stroke-linecap="round" stroke-linejoin="round"/></svg>