<svg width="192" height="192" viewBox="0 0 192 192" fill="none" xmlns="http://www.w3.org/2000/svg">
<path d="M114.5 50.2899H144.797C158.716 50.2899 170 61.5736 170 75.4928V75.4928C170 89.412 158.716 100.696 144.797 100.696H114.5" stroke="black" stroke-width="12" stroke-linecap="round" stroke-linejoin="round"/>
<path d="M113.159 141.449V49.2174H101.362V141.449H113.159Z" stroke="black" stroke-width="10" stroke-linecap="round" stroke-linejoin="round"/>
<path d="M21 93.3325V46H52.555C65.6255 46 76.2213 56.5957 76.2213 69.6662V69.6662C76.2213 82.7368 65.6255 93.3325 52.555 93.3325H33.2714M21 93.3325V146.801H58.11C72.4694 146.801 84.11 135.16 84.11 120.801V119.333C84.11 104.973 72.4694 93.3325 58.11 93.3325H33.2714M21 93.3325H33.2714" stroke="black" stroke-width="10" stroke-linecap="round" stroke-linejoin="round"/>
</svg>
