<svg xmlns="http://www.w3.org/2000/svg" width="192" height="192" version="1.1" viewBox="0 0 192 192">
   <path fill="#000" stroke="#000" stroke-linecap="round" stroke-linejoin="round" d="M56.09 107.4l2.17 -9.37 2.9 0c4.08,0 7.48,1.14 7.41,4.96 -0.11,4.27 -4.49,6.01 -9.26,6.01l-2.19 0c-1.32,-0.21 -1.03,-1.6 -1.03,-1.6l0 0zm21.7 -4.25c0.27,-4.25 -2.95,-7.94 -7.19,-8.28 4.08,-0.66 9.44,-3.67 9.44,-9.15 0,-5.85 -5.91,-8.99 -14.8,-8.99 -3.82,0 -7.67,0.29 -11.47,0.92l-6.38 28.22c0,0 -2.19,7.3 4.06,8.8 1.61,0.42 3.3,0.66 4.96,0.69 16.56,0.92 21.38,-6.54 21.38,-12.21l0 0zm-16.21 -19.91c1.26,-0.16 2.53,-0.21 3.82,-0.21 3.32,0 5.7,1.19 5.64,3.9 -0.07,3.33 -3.42,5.17 -8.28,5.17l-1.87 0c-1.37,0 -0.97,-1.58 -0.97,-1.58l1.66 -7.28zm0 0z"/>
   <path fill="#000" stroke="#000" stroke-linecap="round" stroke-linejoin="round" d="M118.43 115.46c1.34,0 3.87,-0.52 4.77,-4.4 0.69,-3.08 1.85,-8.28 1.85,-8.28 0.89,0 2.16,0.24 3.61,0.24 14.24,0 19.17,-9.15 19.17,-15.35 0,-6.78 -4.72,-10.68 -15.01,-10.73 -3.79,-0.18 -7.59,0.11 -11.33,0.82l-8.36 37.7 5.3 0zm11.41 -31.95c1.22,-0.14 2.46,-0.22 3.7,-0.19 3.32,0 6.06,0.98 6.06,4.96 0,3.98 -3.08,7.93 -9.04,7.99l-1.14 0c-2.69,0 -1.92,-2.24 -1.92,-2.24l2.34 -10.52zm0 0z"/>
    <path fill="#000" stroke="#000" stroke-linecap="round" stroke-linejoin="round" d="M92.27 98.83c0,-6.12 3.98,-15.27 13.08,-15.27 2.4,0 6.62,0.6 9.12,2.82 0,0 0.92,-3.14 1.19,-4.4 0.26,-1.3 -0.21,-3.33 -4.14,-4.64 -2.35,-0.82 -4.83,-1.22 -7.31,-1.22 -14.23,0 -21.64,11.71 -21.64,23.18 0,12.31 8.28,16.56 16.69,16.56 2.37,0.1 4.74,-0.24 6.98,-1.03 1.35,-0.45 2.38,-1.56 2.75,-2.93l1.39 -6.32c-2.45,2 -5.53,3.08 -8.67,3.03 -5.93,0 -9.39,-3.83 -9.39,-9.76l-0.05 -0.02zm0 0l0 0 0 0z"/>
   <path fill="#000" stroke="#000" stroke-linecap="round" stroke-linejoin="round" d="M30.36 79.66c-3.24,-1.53 -6.86,2.79 -7.07,3.03 -0.84,1.08 -1.55,2.27 -2.13,3.53l1.84 0.95c3.38,1.65 6.45,3.92 8.99,6.69 -2.05,4.7 -6.53,9.7 -15.08,13.56 0.48,0.87 1,1.66 1.66,2.4 2.14,2.69 5.8,3.61 8.97,2.27 2.63,-0.92 12.02,-7.17 15.45,-12.68 1.87,-3.01 1.63,-6.91 -0.61,-9.66 -1.47,-1.89 -3.14,-3.66 -4.95,-5.27 -1.99,-1.74 -4.16,-3.26 -6.49,-4.52 -0.19,-0.12 -0.39,-0.22 -0.58,-0.3z"/>
   <path fill="#000" stroke="#000" stroke-linecap="round" stroke-linejoin="round" d="M161.98 80.06c-0.24,-0.15 -0.47,-0.27 -0.71,-0.38 -3.24,-1.53 -6.9,2.8 -7.03,3.03 -0.85,1.09 -1.59,2.27 -2.17,3.54l1.85 0.95c3.4,1.62 6.44,3.89 8.96,6.66 -2.05,4.69 -6.53,9.69 -15.08,13.56 0.48,0.87 1.03,1.66 1.66,2.4 2.16,2.66 5.8,3.59 8.97,2.27 2.66,-0.92 12.02,-7.2 15.37,-12.68 1.9,-3.01 1.69,-6.89 -0.55,-9.66 -1.48,-1.89 -3.14,-3.66 -4.96,-5.27 -1.94,-1.7 -4.05,-3.18 -6.31,-4.42z"/>
</svg>
