<svg width="192" height="192" viewBox="0 0 192 192" fill="none" xmlns="http://www.w3.org/2000/svg"><path d="M35.217 114.001C34.967 110.697 37.687 108 41 108h110c3.314 0 6.032 2.697 5.783 6.001C154.757 140.892 138.815 147 122 147c-9.335 0-15.981-2.69-20.216-5.279-3.28-2.006-8.288-2.006-11.568 0C85.98 144.31 79.336 147 70 147c-16.815 0-32.757-6.108-34.783-32.999ZM124 78v10m28-10v10M96 78v10M68 78v10M40 78v10" stroke="#000" stroke-width="12" stroke-linecap="round" stroke-linejoin="round"/><path d="M65 127h12m38 0h12" stroke="#000" stroke-width="10" stroke-linecap="round" stroke-linejoin="round"/><path d="M86 170c18 0 25-4 25-4m8.343-139.357A61.007 61.007 0 0 1 151.641 58H40.357a61 61 0 0 1 78.986-31.357Z" stroke="#000" stroke-width="12" stroke-linecap="round" stroke-linejoin="round"/></svg>