<svg width="192" height="192" viewBox="0 0 192 192" fill="none" xmlns="http://www.w3.org/2000/svg"><path d="M101.605 124.523c8.794-5.551 12.825-14.96 9.003-21.014-3.822-6.055-14.05-6.463-22.843-.912-8.794 5.551-12.825 14.96-9.003 21.014 3.822 6.055 14.05 6.463 22.843.912ZM66 170h60m-60 0a43.998 43.998 0 0 1-44-44 44 44 0 0 1 5.895-22m136.21 0A43.997 43.997 0 0 1 148 164.105 43.997 43.997 0 0 1 126 170M77 22h38m-38 0 34 82.2" stroke="#000" stroke-width="12" stroke-linecap="round" stroke-linejoin="round"/></svg>