<?xml version="1.0" encoding="UTF-8" standalone="no"?>
<!-- Created with Inkscape (http://www.inkscape.org/) -->

<svg
   version="1.1"
   id="svg2"
   width="192"
   height="192"
   viewBox="0 0 192 192"
   sodipodi:docname="bandbond.png"
   xmlns:inkscape="http://www.inkscape.org/namespaces/inkscape"
   xmlns:sodipodi="http://sodipodi.sourceforge.net/DTD/sodipodi-0.dtd"
   xmlns="http://www.w3.org/2000/svg"
   xmlns:svg="http://www.w3.org/2000/svg">
  <defs
     id="defs6" />
  <sodipodi:namedview
     id="namedview4"
     pagecolor="#ffffff"
     bordercolor="#000000"
     borderopacity="0.25"
     inkscape:showpageshadow="2"
     inkscape:pageopacity="0.0"
     inkscape:pagecheckerboard="0"
     inkscape:deskcolor="#d1d1d1"
     showgrid="false" />
  <g
     inkscape:groupmode="layer"
     inkscape:label="Image"
     id="g8">
    <path
       id="path349"
       style="fill-opacity:0;stroke:#000000;stroke-width:8.02379;stroke-linecap:round;stroke-linejoin:round;paint-order:stroke fill markers"
       d="M 127.98811,95 A 32.988106,32.988106 0 0 1 95,127.98811 32.988106,32.988106 0 0 1 62.011894,95 32.988106,32.988106 0 0 1 95,62.011894 32.988106,32.988106 0 0 1 127.98811,95 Z" />
    <path
       id="path291"
       style="fill-opacity:0;stroke:#000000;stroke-width:7.61736;stroke-linecap:round;stroke-linejoin:round;paint-order:stroke fill markers"
       d="M 172.19132,96.000008 A 76.191322,76.191322 0 0 1 96,172.19133 76.191322,76.191322 0 0 1 19.808678,96.000008 76.191322,76.191322 0 0 1 96,19.808685 76.191322,76.191322 0 0 1 172.19132,96.000008 Z" />
    <path
       id="path347"
       style="fill-opacity:0;stroke:#000000;stroke-width:7.80619;stroke-linecap:round;stroke-linejoin:round;paint-order:stroke fill markers"
       d="M 151.09691,95 A 56.096909,56.096905 0 0 1 95,151.0969 56.096909,56.096905 0 0 1 38.903091,95 56.096909,56.096905 0 0 1 95,38.903095 56.096909,56.096905 0 0 1 151.09691,95 Z" />
  </g>
</svg>
