<svg width="192" height="192" viewBox="0 0 192 192" xmlns="http://www.w3.org/2000/svg"><path style="fill:none;fill-opacity:.841327;stroke:#000;stroke-width:8;stroke-linecap:round;stroke-linejoin:round;stroke-dasharray:none;paint-order:stroke fill markers" d="M85.385 171.995s15.38.074 26.105-6.526M96.572 20c40.915 0 58.447 37.474 58.447 37.474H38.625S57.358 20 96.572 20zM96.048 111.113s27.317.337 51.565-2.728l12.785 3.557s20.194 32.883-40.345 40.635c0 0-14.304 3.004-23.308-7.372"/><path style="fill:none;fill-opacity:.841327;stroke:#000;stroke-width:8;stroke-linecap:round;stroke-linejoin:round;stroke-dasharray:none;paint-order:stroke fill markers" d="M97.066 111.114s-27.317.337-51.565-2.728l-12.785 3.557s-20.194 32.883 40.345 40.635c0 0 14.304 3.003 23.308-7.372M33.25 69.014s-4.088 12.898 0 28.151M44.69 68.663v28.694M54.476 68.652s2.394 11.116 0 29.248M65.432 68.66s2.16 12.357 0 29.222M76.063 68.445s.749 12.53 0 29.245M86.495 68.636v29.267M160.017 69.324s4.087 12.898 0 28.151M148.576 68.973v28.694M138.79 68.962s-2.394 11.116 0 29.248M127.834 68.97s-2.159 12.357 0 29.222M117.204 68.755s-.75 12.53 0 29.245M106.77 68.946v29.267M96.942 68.861v29.06M141.697 130.999a14.987 9.337 0 0 1-14.986 9.336A14.987 9.337 0 0 1 111.724 131a14.987 9.337 0 0 1 14.987-9.337A14.987 9.337 0 0 1 141.697 131z"/><path style="fill:none;fill-opacity:.841327;stroke:#000;stroke-width:8;stroke-linecap:round;stroke-linejoin:round;stroke-dasharray:none;paint-order:stroke fill markers" d="M81.348 130.91a14.987 9.337 0 0 1-14.987 9.337 14.987 9.337 0 0 1-14.987-9.336 14.987 9.337 0 0 1 14.987-9.337 14.987 9.337 0 0 1 14.987 9.337z"/></svg>