<?xml version="1.0" encoding="utf-8"?>
	<svg version="1.1" xmlns="http://www.w3.org/2000/svg" xmlns:xlink="http://www.w3.org/1999/xlink" x="0px" y="0px" width="240.0" height="240.0" xml:space="preserve">
		<path d="M120.279,76.415C117.167,78.611 114.24,80.651 111.348,82.739C110.659,83.235 109.934,83.217 109.176,83.217C107.044,83.218 104.901,83.343 102.781,83.179C101.034,83.043 99.999,83.503 99.885,85.354C99.575,90.357 96.925,93.701 92.593,95.992C91.001,96.834 89.609,98.057 87.508,99.543C90.331,99.543 92.479,99.618 94.618,99.516C96.038,99.449 96.311,99.939 95.962,101.225C95.052,104.573 94.22,107.94 93.357,111.299C93.552,111.459 93.748,111.618 93.944,111.777C97.972,107.083 101.999,102.388 106.33,97.34L95.539,97.34C95.488,97.166 95.437,96.99 95.385,96.815C104.667,90.275 113.949,83.734 123.232,77.194C123.393,77.324 123.555,77.454 123.717,77.584C120.415,82.028 117.113,86.474 113.538,91.288L125.662,91.288C125.157,92.349 124.396,92.575 123.799,92.968C114.709,98.951 105.594,104.897 96.515,110.897C93.932,112.605 91.351,113.912 88.055,113.492C85.732,113.195 83.34,113.462 80.979,113.422C79.843,113.404 78.677,113.395 78.697,114.897C78.718,116.508 80.088,115.694 80.765,115.701C88.076,115.774 95.389,115.799 102.7,115.706C104.376,115.685 105.42,116.426 106.716,117.328C111.064,120.355 112.249,124.021 110.042,128.897C109.366,130.394 109.122,132.115 108.855,133.762C108.608,135.28 107.86,135.647 106.385,135.635C98.16,135.562 89.933,135.561 81.707,135.633C80.096,135.647 79.668,135.327 79.927,133.614C80.691,128.567 80.601,128.553 85.633,128.553C87.004,128.553 88.405,128.373 89.739,128.593C92.139,128.988 92.648,127.693 93.01,125.726C93.551,122.787 93.671,122.809 90.728,122.809C86.539,122.808 82.349,122.854 78.161,122.78C76.944,122.758 76.445,123.151 76.174,124.335C75.276,128.263 74.193,132.149 73.33,136.085C73.033,137.441 72.569,137.982 71.106,137.953C66.385,137.86 61.662,137.886 56.94,137.939C55.63,137.953 55.213,137.729 55.615,136.277C56.67,132.467 57.508,128.599 58.486,124.768C58.829,123.421 58.797,122.72 57.025,122.768C52.535,122.89 48.036,122.883 43.545,122.766C42.034,122.727 41.606,123.385 41.342,124.649C40.705,127.701 39.95,130.728 39.31,133.779C39.042,135.055 38.57,135.678 37.073,135.642C32.353,135.528 27.628,135.547 22.907,135.631C21.434,135.658 21.283,135.121 21.586,133.897C22.94,128.436 24.319,122.978 25.526,117.484C25.85,116.011 26.482,115.715 27.837,115.72C38.043,115.768 48.25,115.704 58.456,115.787C60.214,115.801 61.175,115.378 61.31,113.535C61.36,112.864 61.686,112.216 61.785,111.543C61.962,110.334 62.592,109.97 63.806,109.993C67.689,110.07 71.578,109.922 75.458,110.068C77.12,110.131 77.65,109.52 78.017,108.014C80.447,98.042 82.984,88.096 85.449,78.132C85.722,77.03 85.878,76.217 87.391,76.218C98.13,76.227 108.869,76.134 119.608,76.083C119.734,76.083 119.859,76.202 120.279,76.415" fill="#000" stroke="#00000000" stroke-width="1.0" stroke-miterlimit=""/>
		<path d="M178.314,100.484C178.425,103.118 177.258,105.486 176.729,107.987C176.521,108.966 175.463,109.053 174.699,109.215C172.482,109.688 171.55,111.024 171.064,113.21C169.845,118.689 168.358,124.11 166.931,129.743C170.758,129.743 174.405,129.681 178.049,129.771C179.713,129.813 179.393,128.581 179.507,127.752C180.664,119.31 181.765,110.86 182.876,102.412C183.233,99.696 183.628,96.983 183.896,94.257C184.028,92.924 184.545,92.453 185.909,92.509C188.494,92.615 191.088,92.592 193.675,92.518C195.072,92.478 195.651,92.644 195.404,94.371C193.831,105.367 192.404,116.384 190.925,127.393C190.825,128.139 190.57,128.878 190.858,129.683C191.951,129.45 191.834,128.441 192.076,127.735C195.864,116.66 199.651,105.584 203.355,94.48C203.838,93.031 204.422,92.39 206.041,92.497C208.467,92.658 210.917,92.636 213.348,92.507C215.099,92.414 215.341,92.883 214.779,94.508C211.059,105.284 207.426,116.09 203.766,126.888C203.644,127.248 203.569,127.63 203.402,127.967C202.758,129.267 202.932,129.91 204.588,129.768C205.944,129.652 207.317,129.744 208.948,129.744C208.082,132.292 207.254,134.631 206.497,136.992C206.088,138.267 205.079,137.906 204.235,137.908C195.705,137.925 187.175,137.918 178.645,137.918C168.821,137.918 158.995,137.85 149.172,137.972C147.018,137.999 146.721,137.33 147.371,135.559C147.632,134.849 147.855,134.1 147.932,133.352C148.195,130.787 149.08,129.038 152.139,129.733C152.834,129.891 153.284,129.557 153.461,128.84C154.625,124.142 155.8,119.447 157.066,114.366C155.446,115.073 154.223,115.607 152.463,116.376C153.224,113.386 153.743,110.754 154.601,108.238C154.985,107.111 156.51,107.151 157.555,106.8C158.82,106.376 159.509,105.715 159.827,104.332C160.983,99.305 162.297,94.315 163.543,89.343C163.276,89.232 163.207,89.203 163.137,89.176C161.975,88.721 159.772,89.7 159.708,88.61C159.587,86.585 160.389,84.441 161.119,82.462C161.395,81.716 162.674,82.082 163.459,82.163C164.955,82.319 165.584,81.746 165.938,80.295C167.218,75.058 167.268,75.07 172.55,75.07C174.759,75.07 176.97,75.137 179.175,75.046C180.629,74.986 180.885,75.541 180.487,76.804C180.146,77.89 180.035,79.056 179.623,80.109C178.995,81.716 179.373,82.345 181.132,82.15C181.788,82.077 182.501,81.973 183.234,82.406C182.973,83.475 182.622,84.554 182.459,85.662C182.116,87.985 181.411,89.765 178.489,89.095C177.698,88.914 177.234,89.324 177.035,90.141C176.106,93.967 175.141,97.783 174.155,101.737C175.797,101.669 176.888,100.432 178.35,100.533L178.314,100.484Z" fill="#000" stroke="#00000000" stroke-width="1.0" stroke-miterlimit=""/>
		<path d="M131.233,130.828C133.013,131.311 133.624,130.384 133.956,128.8C134.563,125.904 135.328,123.041 136.04,120.167C138.812,108.969 141.595,97.773 144.352,86.571C144.506,85.943 144.995,84.873 144.493,84.702C143.465,84.351 142.265,84.457 141.136,84.462C140.033,84.466 140.152,85.448 139.984,86.128C136.473,100.272 133.002,114.426 129.447,128.559C128.995,130.354 128.98,131.387 131.233,130.828M131.774,89.809C131.182,89.694 131.107,89.665 131.032,89.667C126.182,89.777 126.188,89.779 127.372,85.117C127.989,82.687 128.629,80.261 129.163,77.812C129.411,76.67 129.866,76.209 131.123,76.224C137.058,76.296 142.996,76.267 148.933,76.243C149.745,76.24 150.373,76.472 150.986,77.007C153.052,78.806 155.132,80.59 157.268,82.304C158.16,83.02 158.396,83.732 158.109,84.854C153.73,102.006 149.376,119.165 145.069,136.336C144.774,137.51 144.339,137.95 143.102,137.944C134.045,137.897 124.987,137.886 115.93,137.949C114.311,137.961 114.279,137.467 114.627,136.091C117.962,122.907 121.23,109.706 124.483,96.501C124.793,95.246 125.394,94.348 126.483,93.631C128.177,92.516 129.78,91.262 131.774,89.809" fill="#000" stroke="#00000000" stroke-width="1.0" stroke-miterlimit=""/>
		<path d="M55.889,97.261L76.761,97.261C76.783,97.606 76.827,97.765 76.796,97.908C75.416,104.185 75.416,104.185 68.898,104.185C63.947,104.185 58.993,104.282 54.046,104.132C52.274,104.079 51.465,104.699 50.911,106.273C50.257,108.133 49.265,109.876 48.631,111.741C48.147,113.166 47.334,113.493 45.928,113.467C41.283,113.381 36.633,113.34 31.991,113.483C30.228,113.537 29.501,112.971 29.484,111.281C29.479,110.829 29.406,110.364 29.278,109.929C28.79,108.265 29.111,107.317 31.116,107.65C33.561,108.055 33.513,105.897 34.644,104.185C32.117,104.185 29.966,104.094 27.828,104.216C26.349,104.299 26.278,103.752 26.56,102.529C27.779,97.226 27.749,97.219 33.172,97.219C34.391,97.219 35.61,97.229 36.829,97.217C38.775,97.197 38.775,97.191 39.847,94.917C36.878,94.917 34.012,94.893 31.147,94.929C30.091,94.942 29.703,94.79 29.978,93.517C31.2,87.861 31.148,87.85 36.794,87.85C38.85,87.85 40.907,87.859 42.964,87.843C43.548,87.839 44.243,88.004 44.533,87.249C44.854,86.415 45.702,85.568 45.288,84.733C44.953,84.057 43.903,84.459 43.179,84.452C39.904,84.418 36.628,84.405 33.353,84.453C32.188,84.471 31.974,84.144 32.231,82.986C33.463,77.423 33.425,77.415 39.123,77.415C41.637,77.415 44.15,77.418 46.664,77.414C48.298,77.41 50.07,77.829 50.837,75.634C51.105,74.868 52.005,75.075 52.674,75.074C57.015,75.066 61.357,75.066 65.699,75.072C66.607,75.073 67.61,74.809 66.866,76.465C66.257,77.82 67.653,77.38 68.211,77.388C72.019,77.438 75.83,77.488 79.635,77.379C81.211,77.334 81.344,77.807 80.996,79.189C79.68,84.426 79.725,84.437 74.312,84.437C70.885,84.437 67.45,84.573 64.032,84.388C61.845,84.269 61.739,85.899 61.422,87.141C61.129,88.285 62.35,87.815 62.87,87.821C67.439,87.87 72.011,87.905 76.579,87.82C78.212,87.789 78.871,87.922 78.319,89.886C76.915,94.888 77.021,94.918 71.916,94.918C67.65,94.918 63.383,94.988 59.12,94.881C57.513,94.841 56.509,95.337 55.889,97.261" fill="#000" stroke="#00000000" stroke-width="1.0" stroke-miterlimit=""/>
		<path d="M220,80.898C219.467,83.001 218.973,84.898 218.509,86.803C218.313,87.608 217.833,87.872 217.029,87.87C206.002,87.841 194.974,87.833 183.946,87.811C183.81,87.81 183.675,87.689 183.54,87.624C183.533,87.548 183.508,87.47 183.522,87.4C184.845,80.898 184.851,80.752 191.418,80.972C193.934,81.056 195.098,80.296 195.165,77.871C195.23,75.543 196.362,74.892 198.632,75.014C202.423,75.218 206.236,75.137 210.036,75.038C211.626,74.996 212,75.446 211.636,76.99C210.72,80.885 210.776,80.898 214.801,80.898L220,80.898Z" fill="#000" stroke="#00000000" stroke-width="1.0" stroke-miterlimit=""/>
		<path d="M185.663,146.152C186.061,146.627 187.904,145.219 187.24,147.399C187.176,147.61 188.034,147.688 188.445,147.472C191.697,145.759 194.856,145.018 197.798,148.105C198.446,148.785 198.875,147.915 199.308,147.645C201.402,146.343 203.655,145.867 206.086,146.164C209.084,146.532 210.459,148.204 209.935,151.163C209.458,153.855 208.772,156.512 208.12,159.171C207.596,161.311 205.845,160.167 204.705,160.205C203.21,160.256 204.013,159.017 204.145,158.344C204.526,156.405 205.055,154.494 205.452,152.558C205.905,150.349 204.98,149.222 202.738,149.132C200.328,149.036 198.537,150.332 197.889,152.751C197.338,154.807 196.841,156.879 196.401,158.961C195.906,161.3 194.073,160.232 192.894,160.204C191.16,160.164 192.319,158.857 192.438,158.172C192.765,156.301 193.285,154.465 193.674,152.604C194.132,150.414 193.203,149.25 190.977,149.139C188.563,149.018 186.701,150.35 186.086,152.702C185.624,154.468 185.224,156.249 184.807,158.027C184.304,160.172 183.06,160.855 180.897,160.292C180.102,160.086 180.211,159.681 180.342,159.123C181.269,155.2 182.235,151.286 183.076,147.344C183.428,145.692 184.614,146.299 185.663,146.152" fill="#000" stroke="#00000000" stroke-width="1.0" stroke-miterlimit=""/>
		<path d="M30.743,157.238C32.836,157.235 34.453,156.676 35.766,155.391C36.855,154.324 37.526,153.047 37.055,151.494C36.599,149.992 35.313,149.5 33.91,149.237C32.268,148.929 30.716,149.289 29.286,150.038C27.485,150.982 26.134,152.386 26.715,154.594C27.269,156.695 29.066,157.183 30.743,157.238M28.445,148.24C30.492,146.612 33.085,145.755 36.052,146.187C40.968,146.903 43.037,151.33 40.385,155.499C37.219,160.476 30.331,161.774 25.796,158.105C24.948,159.589 24.787,161.249 24.523,162.815C24.076,165.473 22.07,164.463 20.789,164.331C19.331,164.181 20.31,162.88 20.468,162.159C21.531,157.332 22.771,152.541 23.756,147.7C24.273,145.162 26.097,146.303 27.362,146.233C29.343,146.124 27.247,147.718 28.445,148.24" fill="#000" stroke="#00000000" stroke-width="1.0" stroke-miterlimit=""/>
		<path d="M50.905,157.846C52.89,157.716 54.767,157.417 55.955,155.635C56.585,154.69 56.523,153.934 55.179,153.726C53.59,153.481 51.984,153.356 50.419,153.714C49.062,154.025 47.527,154.608 47.784,156.305C48.032,157.949 49.696,157.701 50.905,157.846M53.927,146.023C54.988,146.109 56.067,146.104 57.108,146.298C60.48,146.925 61.706,148.833 60.96,152.189C60.481,154.342 59.992,156.492 59.484,158.638C59.318,159.339 59.345,160.406 58.289,160.233C57.211,160.057 55.726,161.222 55.071,159.346C54.704,158.298 54.108,159.162 53.677,159.331C51.427,160.213 49.147,160.611 46.755,160.009C45.294,159.642 43.913,159.094 43.537,157.476C43.132,155.74 43.938,154.305 45.252,153.261C48.03,151.055 51.311,151.115 54.625,151.343C55.413,151.397 56.648,152.375 56.937,151.124C57.237,149.827 55.876,149.527 54.801,149.303C52.811,148.889 50.839,149.204 48.905,149.582C47.844,149.789 47.642,149.406 47.377,148.545C47.071,147.554 47.389,147.185 48.297,146.919C50.139,146.38 52.008,146.099 53.927,146.023" fill="#000" stroke="#00000000" stroke-width="1.0" stroke-miterlimit=""/>
		<path d="M73.57,157.236C75.453,157.227 77.163,156.7 78.553,155.396C79.527,154.482 80.196,153.356 79.888,151.963C79.557,150.468 78.429,149.757 77.022,149.376C75.339,148.919 73.716,149.123 72.136,149.758C69.885,150.661 68.449,152.633 68.745,154.341C69.053,156.124 70.94,157.254 73.57,157.236M73.33,160.366C68.645,160.402 65.279,158.381 64.586,155.459C63.943,152.748 65.896,149.581 69.467,147.716C72.852,145.949 76.432,145.432 80.058,146.777C84.626,148.473 85.572,152.903 82.201,156.42C79.639,159.093 76.383,160.18 73.33,160.366" fill="#000" stroke="#00000000" stroke-width="1.0" stroke-miterlimit=""/>
		<path d="M168.579,157.234C169.721,157.225 171.645,156.649 173.077,154.99C174.923,152.853 174.191,150.323 171.507,149.466C169.618,148.863 167.763,149.073 165.979,149.883C163.859,150.845 162.569,152.793 162.91,154.441C163.261,156.139 165.081,157.225 168.579,157.234M170.168,146.082C174.266,146.082 177.462,147.963 178.227,150.824C178.952,153.535 177.087,156.679 173.466,158.607C170.035,160.433 166.427,161.069 162.696,159.588C158.263,157.827 157.322,153.577 160.529,150.069C162.788,147.6 166.455,146.083 170.168,146.082" fill="#000" stroke="#00000000" stroke-width="1.0" stroke-miterlimit=""/>
		<path d="M112.162,158.242C109.843,159.701 107.708,160.599 105.247,160.342C101.741,159.976 100.267,158.03 100.988,154.602C101.41,152.596 101.904,150.607 102.368,148.61C102.918,146.247 103.975,145.647 106.317,146.16C107.381,146.393 106.935,146.988 106.818,147.507C106.368,149.507 105.865,151.494 105.421,153.495C104.85,156.068 105.806,157.228 108.451,157.233C111.196,157.238 112.776,155.981 113.461,153.233C113.754,152.055 114.04,150.875 114.308,149.69C115.151,145.965 115.147,145.964 119.279,146.336C118.264,150.681 117.285,154.998 116.239,159.3C115.785,161.166 114.227,160.045 113.187,160.26C111.724,160.563 112.046,159.346 112.162,158.242" fill="#000" stroke="#00000000" stroke-width="1.0" stroke-miterlimit=""/>
		<path d="M150.57,146.077C152.176,146.105 153.783,146.179 155.202,147.04C155.924,147.478 157.043,147.741 156.9,148.837C156.785,149.723 154.194,150.492 153.285,150.04C150.413,148.611 147.096,148.985 145.012,150.991C143.902,152.059 143.225,153.339 143.759,154.882C144.258,156.323 145.519,156.935 146.939,157.149C148.713,157.417 150.463,157.215 152.023,156.305C152.986,155.744 153.628,155.914 154.431,156.598C155.299,157.335 155.123,157.736 154.281,158.262C150.702,160.499 146.919,161.165 142.98,159.459C139.079,157.769 138.213,153.739 140.896,150.435C143.048,147.785 146.776,146.105 150.57,146.077" fill="#000" stroke="#00000000" stroke-width="1.0" stroke-miterlimit=""/>
		<path d="M94.806,157.202C95.301,157.522 96.3,156.359 96.416,157.492C96.504,158.344 96.429,159.547 95.182,159.904C93.932,160.26 92.66,160.458 91.352,160.354C88.324,160.113 87.288,158.807 87.847,155.846C88.101,154.504 88.525,153.192 88.739,151.846C88.913,150.752 90.344,149.099 87.647,148.997C87.066,148.975 87.288,148.24 87.401,147.851C87.596,147.183 87.422,146.031 88.464,146.131C90.274,146.305 90.367,145.141 90.618,143.913C90.947,142.309 93.43,141.248 94.791,142.072C95.337,142.404 95.139,142.89 94.986,143.269C94.046,145.595 94.816,146.353 97.253,146.113C99.113,145.93 99.582,146.886 98.688,148.513C98.134,149.522 97.169,149.186 96.451,149.077C94.144,148.727 93.103,149.698 92.923,151.928C92.856,152.753 92.58,153.56 92.4,154.376C91.838,156.915 92.199,157.346 94.806,157.202" fill="#000" stroke="#00000000" stroke-width="1.0" stroke-miterlimit=""/>
		<path d="M126.425,146.173C128.646,145.575 128.656,146.755 128.111,148.738C127.205,152.029 126.539,155.385 125.754,158.71C125.443,160.026 122.572,160.993 121.552,160.15C121.067,159.75 121.431,159.328 121.521,158.922C122.051,156.55 122.593,154.183 123.126,151.812C123.352,150.809 123.58,149.926 123.175,148.777C122.562,147.034 123.686,146.178 126.425,146.173" fill="#000" stroke="#00000000" stroke-width="1.0" stroke-miterlimit=""/>
		<path d="M132.375,160.046C131.877,159.557 130.335,160.993 130.344,159.087C130.352,157.314 131.249,156.405 133.061,156.834C133.823,157.014 135.241,155.991 135.254,157.753C135.268,159.667 134.748,160.042 132.375,160.046" fill="#000" stroke="#00000000" stroke-width="1.0" stroke-miterlimit=""/>
		<path d="M178.35,100.533C178.385,100.479 178.421,100.425 178.456,100.371C178.409,100.408 178.361,100.446 178.314,100.484C178.314,100.483 178.35,100.533 178.35,100.533" fill="#000" stroke="#00000000" stroke-width="1.0" stroke-miterlimit=""/>
	</svg>
