<svg version="1.0" xmlns="http://www.w3.org/2000/svg" width="256" height="256" viewBox="0 0 192 192"><path d="M31.5 33.9c-2.2 1-5.2 3.1-6.7 4.7C19 44.8 19 44.7 19 96.2c0 43.9.2 47.6 1.9 51.3 1 2.2 3.1 5.2 4.7 6.7 6.3 5.9 4.8 5.8 70.4 5.8 65.6 0 64.1.1 70.4-5.8 1.6-1.5 3.7-4.5 4.7-6.7 1.7-3.7 1.9-7.4 1.9-51.3 0-51.5 0-51.4-5.8-57.6-1.5-1.6-4.5-3.7-6.7-4.7-3.8-1.7-7.7-1.9-64.5-1.9s-60.7.2-64.5 1.9zM156 44.5c6 3.1 6 3.1 6 51.5s0 48.4-6 51.5c-4.4 2.3-115.6 2.3-120 0-4.8-2.5-6-6.1-6-18V119h18.3c20.9 0 23.8-.8 29.8-7.9 7.8-9 7.8-21.2 0-30.2-6-7.1-8.9-7.9-29.8-7.9H30V62.5c0-11.8 1.2-15.4 5.8-17.9 4.1-2.3 115.9-2.3 120.2-.1zM66.8 86c1.9 1.2 4 3.7 4.9 5.8 2.1 5 .2 10.7-4.6 13.9-3.2 2.2-4.4 2.3-20.2 2.3H30V84h16.8c15 0 17 .2 20 2z"/><path d="M52.3 91c-4.3 1.7-4.1 8.4.4 10.1C59.3 103.6 66 101 66 96s-7.1-7.6-13.7-5z"/></svg>