<svg width="192" height="192" viewBox="0 0 192 192" fill="none" xmlns="http://www.w3.org/2000/svg">
<path d="M132.915 137.42C116.01 156.875 88.9929 164.118 64.6304 155.725C40.2679 147.333 23.4327 124.985 22.087 99.2424C20.7384 73.4992 35.1442 49.5142 58.4971 38.6197C81.8505 27.7253 109.475 32.1026 128.323 49.6837M128.375 49.8659C115.444 64.6052 105.679 81.785 99.8023 96.9952C86.549 74.727 72.2888 68.9154 57.6259 69.6628C70.6551 96.6393 65.6256 127.353 100.154 145.402C107.318 108.647 123.523 64.5137 170.003 44.1274C156.269 74.9734 150.472 114.928 133.051 137.232" stroke="black" stroke-width="12" stroke-linecap="round" stroke-linejoin="round"/>
</svg>
