<svg xmlns="http://www.w3.org/2000/svg" width="192" height="192" viewBox="0 0 192 192"><path d="M146 54a6 6 0 1 0-12 0zm-88 64a6 6 0 1 0-12 0zm76-64v72h12V54zm-76 72v-8H46v8zm38 38a38 38 0 0 1-38-38H46a50 50 0 0 0 50 50zm38-38a38 38 0 0 1-38 38v12a50 50 0 0 0 50-50zM96.005 32c4.405 0 7.995-3.59 7.995-7.995C104 19.59 100.41 16 96.005 16S88 19.59 88 24.005C88 28.41 91.6 32 96.005 32m-44 0C56.41 32 60 28.41 60 24.005 60 19.59 56.41 16 52.005 16S44 19.59 44 24.005C44 28.41 47.6 32 52.005 32m88 0c4.405 0 7.995-3.59 7.995-7.995 0-4.415-3.59-8.005-7.995-8.005S132 19.59 132 24.005c0 4.405 3.6 7.995 8.005 7.995"/></svg>