<svg width="192" height="192" fill="none" xmlns="http://www.w3.org/2000/svg"><circle cx="80" cy="112" r="23" stroke="#000" stroke-width="12" stroke-linecap="round" stroke-linejoin="round"/><path d="M167 112a87.003 87.003 0 0 0-70.027-85.328 87 87 0 0 0-39.49 1.293" stroke="#000" stroke-width="12" stroke-linecap="round" stroke-linejoin="round"/><path d="M135 112a55 55 0 0 0-75.247-51.138M80 167a55 55 0 0 1-55-55m32 0V31a6 6 0 0 0-6-6H31a6 6 0 0 0-6 6v81m142 0v49a6 6 0 0 1-6 6h-26v-55m-55 55h55" stroke="#000" stroke-width="12" stroke-linecap="round" stroke-linejoin="round"/></svg>