<svg xmlns="http://www.w3.org/2000/svg" width="192" height="192" fill="none"><g clip-path="url(#a)"><path stroke="#000" stroke-linecap="round" stroke-linejoin="round" stroke-width="12" d="M48 22v129.166c0 2.474.482 4.923 1.417 7.208a18.9 18.9 0 0 0 4.037 6.11 18.6 18.6 0 0 0 6.042 4.082A18.4 18.4 0 0 0 66.622 170h60.756a18.4 18.4 0 0 0 7.126-1.434 18.6 18.6 0 0 0 6.042-4.082 18.8 18.8 0 0 0 4.036-6.11 19 19 0 0 0 1.418-7.208V96.637a19.42 19.42 0 0 0-5.425-13.48 19 19 0 0 0-13.191-5.815l-42.973-1.065c-2.51-.063-4.931 1.91-5.284 4.423-.66 4.714-1.416 12.263-.655 18.521.4 3.296 2.402 8.392 4.345 11.074 4.198 5.793 9.858 9.172 9.858 9.172"/></g><defs><clipPath id="a"><path fill="#fff" d="M0 0h192v192H0z"/></clipPath></defs></svg>