<?xml version="1.0" encoding="UTF-8" standalone="no"?>
<!-- Created with Inkscape (http://www.inkscape.org/) -->

<svg
   width="192"
   height="192"
   viewBox="0 0 50.799999 50.8"
   version="1.1"
   id="svg5"
   xml:space="preserve"
   inkscape:version="1.2.2 (b0a8486, 2022-12-01)"
   sodipodi:docname="barclays.svg"
   xmlns:inkscape="http://www.inkscape.org/namespaces/inkscape"
   xmlns:sodipodi="http://sodipodi.sourceforge.net/DTD/sodipodi-0.dtd"
   xmlns="http://www.w3.org/2000/svg"
   xmlns:svg="http://www.w3.org/2000/svg"><sodipodi:namedview
     id="namedview7"
     pagecolor="#505050"
     bordercolor="#eeeeee"
     borderopacity="1"
     inkscape:showpageshadow="0"
     inkscape:pageopacity="0"
     inkscape:pagecheckerboard="0"
     inkscape:deskcolor="#505050"
     inkscape:document-units="mm"
     showgrid="false"
     inkscape:zoom="0.61853455"
     inkscape:cx="105.0871"
     inkscape:cy="80.836228"
     inkscape:window-width="1280"
     inkscape:window-height="456"
     inkscape:window-x="0"
     inkscape:window-y="25"
     inkscape:window-maximized="0"
     inkscape:current-layer="layer1" /><defs
     id="defs2" /><g
     inkscape:label="Layer 1"
     inkscape:groupmode="layer"
     id="layer1"><path
       style="fill:#000000;stroke-width:2.11666667;stroke:#000000;stroke-opacity:1;stroke-dasharray:none"
       d="m 24.500418,45.212334 c -2.784345,-0.924013 -9.391625,-4.900239 -9.555343,-5.750354 -0.01827,-0.09489 0.215657,-0.499686 0.519845,-0.899545 2.459785,-3.233408 4.218726,-7.276927 3.646686,-8.383132 -0.265471,-0.513363 -0.396064,-0.417292 -0.948246,0.697574 -1.431526,2.890281 -4.137428,6.095397 -5.3509,6.338092 -0.546117,0.109223 -0.510748,-0.172257 0.19409,-1.544671 1.096019,-2.134094 1.586834,-3.967287 1.241163,-4.635741 -0.267166,-0.516641 -0.339899,-0.494193 -0.744819,0.229871 -1.537605,2.749494 -2.720511,3.764075 -3.311601,2.840366 -5.4903402,-8.579863 -4.6305542,-21.728077 1.556208,-23.798193 3.395535,-1.1361598 7.083978,2.003601 4.365753,3.716316 -1.305914,0.822839 1.783538,1.9285 3.804314,1.361499 2.054095,-0.57635 3.292414,-4.440983 1.938549,-6.0499604 C 21.293238,8.665512 19.706862,8.2778127 18.90444,8.613086 18.296522,8.8670904 18.134389,8.836314 18.057593,8.4523363 17.776491,7.0468219 19.501552,5.7223705 21.620745,5.7166536 c 0.455572,-0.00123 0.690302,-0.058933 0.914749,-0.224874 0.799184,-0.5908618 3.235033,-0.4187678 4.452008,0.3145366 1.09602,0.6604218 1.391761,1.4593929 1.638985,4.4278738 0.318645,3.826017 1.349236,5.217478 3.864348,5.217478 1.554459,0 3.094287,-0.911724 2.264043,-1.340528 -2.101048,-1.08515 -0.539221,-3.834284 2.286791,-4.025218 6.9987,-0.4728528 9.654721,12.116727 4.659778,22.087413 -0.536906,1.071747 -1.386882,2.443856 -1.553496,2.507791 -0.29246,0.112229 -1.903502,-1.793931 -2.755503,-3.260268 -0.511401,-0.880149 -0.570684,-0.907408 -0.840158,-0.386301 -0.345671,0.668454 0.145144,2.501647 1.241163,4.635741 0.656984,1.279234 0.713151,1.583038 0.292678,1.583038 -1.050213,0 -3.978551,-3.420195 -5.436809,-6.350001 -0.590405,-1.18619 -0.51305,-1.07808 -0.715732,-1.000303 -1.165953,0.447418 0.624692,5.009418 3.396167,8.652367 0.633696,0.832956 0.646567,0.895842 0.256703,1.254165 -2.132178,1.959686 -6.896511,4.668025 -9.763125,5.549959 -0.261938,0.08059 -0.47625,0.143657 -0.47625,0.140154 0,-0.0035 -0.381,-0.132806 -0.846667,-0.287343 z M 26.97721,44.7046 c 2.961864,-1.17337 8.927859,-4.86189 8.6337,-5.337848 -0.03201,-0.05179 -0.442646,-0.631228 -0.91253,-1.287641 -2.995789,-4.185029 -4.292447,-8.445776 -2.570271,-8.445776 0.08333,0 0.388307,0.478649 0.691191,1.084792 1.191096,2.383664 3.350556,5.17495 4.64736,6.007105 0.784327,0.503303 0.810318,0.373742 0.170742,-0.851135 -1.273974,-2.439833 -1.7174,-4.318744 -1.200638,-5.087403 0.403606,-0.600344 0.594683,-0.527366 1.119598,0.427605 0.419001,0.762287 1.970056,2.836665 2.356181,3.151154 0.451328,0.367595 2.883237,-4.707645 3.469194,-7.239988 C 45.608015,17.50411 42.022848,9.0593388 36.28523,10.40982 c -2.211314,0.520484 -3.081079,3.131891 -1.200336,3.603927 1.29212,0.324302 -0.778761,1.596194 -2.594059,1.593216 -2.743853,-0.0045 -3.742677,-1.301159 -4.07354,-5.288212 C 28.19303,7.6162507 27.874192,6.6588243 27.008109,6.0871633 25.806097,5.2937696 23.290273,5.0764564 22.597971,5.7062217 c -0.163704,0.1489165 -0.440644,0.2069773 -1.17441,0.2462165 -1.887148,0.1009178 -3.438258,1.287198 -3.145728,2.4058341 0.06707,0.2564612 0.01971,0.2525852 0.521119,0.04265 2.756791,-1.1542381 4.587246,1.7337927 3.307848,5.2190137 -0.81298,2.214649 -4.473636,2.985133 -6.161844,1.296925 -0.593781,-0.593782 -0.593748,-0.59481 0.03517,-1.071987 1.875613,-1.423087 0.03675,-3.751459 -2.800137,-3.545547 -7.0201348,0.509547 -8.740282,13.832515 -3.010648,23.318215 0.557007,0.922155 0.557007,0.922155 1.032255,0.400432 0.723042,-0.793748 1.688591,-2.128724 2.118398,-2.928912 0.445448,-0.829307 0.649251,-0.885707 1.053536,-0.29156 0.485579,0.713617 0.0154,2.723484 -1.160089,4.958986 -0.70017,1.33156 -0.706014,1.383734 -0.125156,1.117247 1.166281,-0.53507 3.637668,-3.644548 4.892422,-6.155608 0.302884,-0.606143 0.607863,-1.084792 0.691191,-1.084792 1.722176,0 0.425518,4.260747 -2.570271,8.445776 -0.469884,0.656413 -0.880523,1.235852 -0.91253,1.287641 -0.290472,0.469994 5.532706,4.085441 8.517575,5.288322 1.621084,0.653285 1.741895,0.655113 3.270542,0.04953 z"
       id="path248" /></g></svg>
