<svg xmlns="http://www.w3.org/2000/svg" width="192" height="192" fill="none" viewBox="0 0 192 192">
  <path fill="#000" d="M21 114h-5a5 5 0 0 0 5 5v-5Zm0-36v-5a5 5 0 0 0-5 5h5Zm0 41h13v-10H21v10Zm-5-41v18h10V78H16Zm0 18v18h10V96H16Zm5 5h13V91H21v10Zm0-18h13V73H21v10Zm17 4a4 4 0 0 1-4 4v10c7.732 0 14-6.268 14-14H38Zm-4-4a4 4 0 0 1 4 4h10c0-7.732-6.268-14-14-14v10Zm4 22a4 4 0 0 1-4 4v10c7.732 0 14-6.268 14-14H38Zm-4-4a4 4 0 0 1 4 4h10c0-7.732-6.268-14-14-14v10Zm58 13a5 5 0 0 0 10 0H92Zm5-36v-5a5 5 0 0 0-5 5h5Zm17.947 38.927a4.998 4.998 0 0 0 6.98 1.126 4.998 4.998 0 0 0 1.126-6.98l-8.106 5.854ZM92 78v18h10V78H92Zm0 18v18h10V96H92Zm5-13h13V73H97v10Zm17 4a4 4 0 0 1-4 4v10c7.732 0 14-6.268 14-14h-10Zm-4-4a4 4 0 0 1 4 4h10c0-7.732-6.268-14-14-14v10Zm-13 18h9V91h-9v10Zm9 0h4V91h-4v10Zm-4.053-2.073 13 18 8.106-5.854-13-18-8.106 5.855Z"/>
  <path stroke="#000" stroke-linecap="round" stroke-linejoin="round" stroke-width="10" d="m82 114-1.667-5M58 114l1.667-5m0 0L70 78l10.333 31m-20.666 0h20.666"/>
  <path stroke="#000" stroke-linejoin="round" stroke-width="10" d="M134 78h9c7.18 0 13 5.82 13 13v10c0 7.18-5.82 13-13 13h-9V78Z"/>
  <path stroke="#000" stroke-linecap="round" stroke-linejoin="round" stroke-width="10" d="M171 78v36"/>
</svg>
