<svg width="192" height="192" fill="none" xmlns="http://www.w3.org/2000/svg"><path d="M25 79.144v71.816c0 8.859 7.163 16.04 16 16.04h110c8.837 0 16-7.181 16-16.04V79.143a24.072 24.072 0 0 0-11.358-20.45l-49.633-30.836a18.96 18.96 0 0 0-20.018 0L36.358 58.693A24.073 24.073 0 0 0 25 79.142Z" stroke="#000" stroke-width="12" stroke-linecap="round" stroke-linejoin="round"/><path d="M81 119.658V139a6 6 0 0 0 6 6h18a6 6 0 0 0 6-6v-19.342a5.999 5.999 0 0 0-2.303-4.726l-9-7.04a6 6 0 0 0-7.394 0l-9 7.04A6 6 0 0 0 81 119.658Z" stroke="#000" stroke-width="12" stroke-linecap="round" stroke-linejoin="round"/></svg>