<svg xmlns="http://www.w3.org/2000/svg" width="192" height="192" fill="none"><path stroke="#000" stroke-linecap="round" stroke-linejoin="round" stroke-width="12" d="M91 144h10m-10-20h10M83 53a6 6 0 0 1 6-6h14a6 6 0 0 1 6 6v32a6 6 0 0 1-6 6H89a6 6 0 0 1-6-6z"/><path stroke="#000" stroke-linecap="round" stroke-linejoin="round" stroke-width="12" d="M96 22c-25.405 0-46 20.595-46 46 0 14.623 6.823 27.651 17.459 36.077 1.55 1.228 2.541 3.057 2.541 5.035V149.5c0 11.046 8.954 20 20 20h12c11.046 0 20-8.954 20-20v-40.388c0-1.978.992-3.807 2.542-5.035C135.177 95.651 142 82.623 142 68c0-25.405-20.595-46-46-46"/></svg>