<svg width="192" height="192" viewBox="0 0 192 192" fill="none" xmlns="http://www.w3.org/2000/svg"><path d="M76.936 65C66.328 65 56 70.279 56 84.907 56 99.314 80.472 120.43 96 135c15.537-14.57 40-35.686 40-50.093C136 70.28 125.68 65 115.084 65 106.811 65 100.5 71.269 96 77.863 91.48 71.238 85.19 65 76.936 65Z" stroke="#000" stroke-width="12" stroke-miterlimit="2" stroke-linecap="round" stroke-linejoin="round"/><path d="M22 96c0 40.869 33.13 74 74 74 15.187 0 29.305-4.575 41.052-12.422l10.674 10.674a5.966 5.966 0 0 0 8.439 0l12.087-12.087a5.966 5.966 0 0 0 0-8.439l-10.674-10.674C165.425 125.305 170 111.187 170 96c0-40.87-33.131-74-74-74-40.87 0-74 33.13-74 74Z" stroke="#000" stroke-width="12" stroke-linecap="round" stroke-linejoin="round"/></svg>