<svg xmlns="http://www.w3.org/2000/svg" width="192" height="192" fill-rule="evenodd" viewBox="0 0 192 192"><path d="M67.043 58.845C55.996 67.469 48.887 80.911 48.887 96s7.109 28.531 18.156 37.155V170c0 3.311 2.689 6 6 6s6-2.689 6-6v-30.036A46.8 46.8 0 0 0 90 142.733V170c0 3.311 2.689 6 6 6s6-2.689 6-6v-27.267a46.8 46.8 0 0 0 10.97-2.774V170c0 3.311 2.688 6 6 6s6-2.689 6-6v-30.65l10.591 9.966a5.995 5.995 0 0 0 8.583-.369l12.846-14.355a5.967 5.967 0 0 0-.5-8.492l-16.108-14.267A47 47 0 0 0 143.113 96c0-15.081-7.102-28.517-18.143-37.144V22c0-3.311-2.689-6-6-6s-6 2.689-6 6v30.041A46.8 46.8 0 0 0 102 49.267V22c0-3.311-2.689-6-6-6s-6 2.689-6 6v27.267a46.8 46.8 0 0 0-10.957 2.769V22c0-3.311-2.688-6-6-6s-6 2.689-6 6zm67.67 63.997a47 47 0 0 1-4.216 5.231l8.806 8.287 4.719-5.274zM96 60.887c19.379 0 35.113 15.734 35.113 35.113S115.379 131.113 96 131.113 60.887 115.379 60.887 96 76.621 60.887 96 60.887"/></svg>