<svg width="192" height="192" fill="none" xmlns="http://www.w3.org/2000/svg"><path d="M132 22H37a6 6 0 0 0-6 6v136a6 6 0 0 0 6 6h91" stroke="#000" stroke-width="12" stroke-linecap="round" stroke-linejoin="round"/><path d="M113 46H73a6 6 0 0 0-6 6v12a6 6 0 0 0 6 6h40m0 50H73a6 6 0 0 0-6 6v12a6 6 0 0 0 6 6h40M31 94h96m0 0a36 36 0 1 0 0-72m-14 48a11.998 11.998 0 0 0 12-12 11.998 11.998 0 0 0-12-12m0 98c3.183 0 6.235-1.264 8.485-3.515a11.996 11.996 0 0 0 0-16.97A11.996 11.996 0 0 0 113 120" stroke="#000" stroke-width="12" stroke-linecap="round" stroke-linejoin="round"/><path d="M125 170a38.001 38.001 0 0 0 26.87-64.87A38 38 0 0 0 125 94" stroke="#000" stroke-width="12" stroke-linecap="round" stroke-linejoin="round"/></svg>