<svg xmlns="http://www.w3.org/2000/svg" width="192" height="192" fill="none"><path stroke="#000" stroke-linecap="round" stroke-linejoin="round" stroke-width="12" d="m92 101 25.757-25.757a6 6 0 0 1 8.486 0L151 100m-89 17 25.757 25.757a6 6 0 0 0 8.486 0L122 117"/><path stroke="#000" stroke-linecap="round" stroke-linejoin="round" stroke-width="12" d="M121 22H55c-12.15 0-22 9.85-22 22v110c0 8.837 7.163 16 16 16h73m-1-148a36 36 0 0 1 33.26 22.223 36.01 36.01 0 0 1-7.804 39.233l-5.455 5.455M122 170a41 41 0 0 0 40.212-48.999A41 41 0 0 0 151 100"/></svg>