<svg width="192" height="192" fill="none" xmlns="http://www.w3.org/2000/svg"><path d="m92 101 25.757-25.757a6.001 6.001 0 0 1 8.486 0L151 100m-89 17 25.757 25.757a5.998 5.998 0 0 0 8.486 0L122 117" stroke="#000" stroke-width="12" stroke-linecap="round" stroke-linejoin="round"/><path d="M121 22H55c-12.15 0-22 9.85-22 22v110c0 8.837 7.163 16 16 16h73m-1-148a36.004 36.004 0 0 1 33.26 22.223 36.007 36.007 0 0 1-7.804 39.233l-5.455 5.455M122 170a41 41 0 0 0 40.212-48.999A41.012 41.012 0 0 0 151 100" stroke="#000" stroke-width="12" stroke-linecap="round" stroke-linejoin="round"/></svg>