<svg width="192" height="192" viewBox="0 0 192 192" fill="none" xmlns="http://www.w3.org/2000/svg"><path d="M88.768 108.154a1.94 1.94 0 0 0-1.162-2.371l-24.144-9.388a2.155 2.155 0 0 1-1.188-1.172c-.532-1.263-.29-2.548.728-3.856 17.467-22.61 35.844-45.289 53.137-68.033 1.283-1.676 3.551-1.935 4.645.163a1.827 1.827 0 0 1 .108 1.445l-19.42 60.96c-.666 1.99.009 3.235 2.026 3.734l24.725 6.145a2.36 2.36 0 0 1 1.641 1.503 2.377 2.377 0 0 1-.331 2.204l-52.838 69.736a1.911 1.911 0 0 1-1.85.75c-2.444-.396-2.647-2.058-2.025-4.184 5.69-19.2 10.342-38.412 15.948-57.636Z" stroke="#000" stroke-width="12" stroke-miterlimit="6" stroke-linecap="round" stroke-linejoin="round"/></svg>