<?xml version="1.0" encoding="UTF-8" standalone="no"?>
<!-- Created with Inkscape (http://www.inkscape.org/) -->

<svg
   width="192"
   height="192"
   viewBox="0 0 50.799999 50.8"
   version="1.1"
   id="svg1"
   xml:space="preserve"
   xmlns="http://www.w3.org/2000/svg"
   xmlns:svg="http://www.w3.org/2000/svg"><defs
     id="defs1" /><g
     id="layer1"><path
       style="fill:none;stroke:#000000;stroke-width:3.175;stroke-linecap:round;stroke-linejoin:round;stroke-miterlimit:32;stroke-dasharray:none;paint-order:stroke fill markers"
       d="m 19.120659,44.54138 h 12.889662 a 3,3 135 0 0 3,-3 V 13.990178 a 3,3 45 0 0 -3,-3 h -3.49983 l 0,-4.6072055 a 1,1 45 0 0 -1,-1 h -4.89 a 1,1 135 0 0 -1,1 l 0,4.6075645 -2.499832,-1.63e-4 a 2.9998042,2.9998042 135.00187 0 0 -3,2.999804 l 0,27.551202 a 3,3 45 0 0 3,3 z"
       id="path1"
       transform="translate(-0.16549222,0.43782174)" /></g></svg>
