<svg xmlns="http://www.w3.org/2000/svg" width="192" height="192" fill="none" viewBox="0 0 192 192"><path stroke="#000" stroke-linecap="round" stroke-linejoin="round" stroke-width="8" d="M156.375 58.5H35.625c-2.9 0-5.25 2.239-5.25 5v65c0 2.761 2.35 5 5.25 5h120.75c2.899 0 5.25-2.239 5.25-5v-65c0-2.761-2.351-5-5.25-5Z"/><path stroke="#000" stroke-linecap="round" stroke-linejoin="round" stroke-width="8" d="M46.125 118.5v-45h15.75"/><path stroke="#000" stroke-linecap="round" stroke-linejoin="round" stroke-width="8" d="M61.875 73.5h-15.75v25h15.75v-25Zm52.5 22.5a5.385 5.385 0 0 0 3.712-1.465A4.88 4.88 0 0 0 119.625 91V78.5a4.88 4.88 0 0 0-1.538-3.535 5.385 5.385 0 0 0-3.712-1.465h-10.5V96m10.5 0h-10.5m10.5 0c1.392 0 2.728.527 3.712 1.465a4.88 4.88 0 0 1 1.538 3.535v12.5a4.883 4.883 0 0 1-1.538 3.536 5.388 5.388 0 0 1-3.712 1.464h-10.5V96m-5.25 0h10.5m-89.25 22.5h10.5m-10.5-45h10.5m131.25 45h10.5m-10.5-45h10.5m-84 0v45h-15.75v-45m73.5 10v-10h-15.75v45h15.75V96h-5.25"/></svg>