<svg version="1.0" xmlns="http://www.w3.org/2000/svg" width="256" height="256" viewBox="0 0 192 192"><path d="M77.5 23.5c-.3.8-.7 2.2-1 3-.3 1.2-2.4 1.5-10.5 1.5-10 0-10 0-13.8 3.4l-3.7 3.4V163l3.3 3.2 3.2 3.3h83.2l2.9-3.3 2.9-3.2V95l-2.5-1.6c-3-2-6.3-1-7.6 2.3-.5 1.3-.9 16.1-.9 32.9V159H59v-42.4c0-30.3.3-42.7 1.1-43.2 2.1-1.3 18.3-1.6 22.5-.5 2.3.6 7.2 3.1 11 5.6 3.8 2.5 9.4 5.3 12.4 6.2 11.3 3.3 31.2.9 35.8-4.3 2.3-2.6 2.3-2.9 2-24l-.3-21.4-3.3-3.2c-3.2-3.2-3.5-3.3-13.9-3.8s-10.7-.6-11.3-3l-.6-2.5-18.2-.3c-15.6-.2-18.3 0-18.7 1.3zm55.3 32.7.2 17.6-5.7 1.2c-11.1 2.4-18.8.5-31.8-7.8-7-4.4-16.2-6.6-25.5-5.9-4.1.3-8.3.8-9.2 1.2-1.7.7-1.8-.3-1.8-11.2 0-6.6.3-12.3.7-12.6.4-.4 16.9-.6 36.7-.5l36.1.3.3 17.7z"/><path d="M62.7 135.7c-.4.3-.7 4.8-.7 9.9 0 7.5.3 9.3 1.6 9.8.9.3 15.7.6 32.9.6 30.1 0 31.5-.1 32.5-1.9 1.4-2.7 1.3-16.4-.2-17.9-.9-.9-9.7-1.2-33.3-1.2-17.7 0-32.5.3-32.8.7z"/></svg>