<svg width="192" height="192" fill="none" xmlns="http://www.w3.org/2000/svg"><path d="M115 170c10.609 0 20.783-4.952 28.284-13.766C150.786 147.42 155 135.465 155 123c0-12.465-4.214-24.42-11.716-33.234C135.783 80.952 125.609 76 115 76" stroke="#000" stroke-width="12" stroke-linecap="round" stroke-linejoin="round"/><path d="M115 116c5.933 0 11.73-1.549 17-4.456M115 22c10.609 0 20.783 4.952 28.284 13.766C150.786 44.58 155 56.535 155 69c0 1.004-.027 2.004-.081 3M115 76a20 20 0 0 0 0 40" stroke="#000" stroke-width="12" stroke-linecap="round" stroke-linejoin="round"/><path d="M115 22H66c-15.464 0-28 12.536-28 28v92c0 15.464 12.536 28 28 28h49" stroke="#000" stroke-width="12" stroke-linecap="round" stroke-linejoin="round"/></svg>