<svg xmlns="http://www.w3.org/2000/svg" width="192" height="192" fill="none"><path stroke="#000" stroke-linecap="round" stroke-linejoin="round" stroke-width="12" d="M115 170c10.609 0 20.783-4.952 28.284-13.766C150.786 147.42 155 135.465 155 123s-4.214-24.42-11.716-33.234S125.609 76 115 76"/><path stroke="#000" stroke-linecap="round" stroke-linejoin="round" stroke-width="12" d="M115 116c5.933 0 11.73-1.549 17-4.456M115 22c10.609 0 20.783 4.952 28.284 13.766C150.786 44.58 155 56.535 155 69q0 1.506-.081 3M115 76a20 20 0 0 0 0 40"/><path stroke="#000" stroke-linecap="round" stroke-linejoin="round" stroke-width="12" d="M115 22H66c-15.464 0-28 12.536-28 28v92c0 15.464 12.536 28 28 28h49"/></svg>