<?xml version="1.0" encoding="utf-8"?>
	<svg version="1.1" xmlns="http://www.w3.org/2000/svg" xmlns:xlink="http://www.w3.org/1999/xlink" x="0px" y="0px" width="240.0" height="240.0" xml:space="preserve">
		<path d="M120,20C175.229,20 220,64.771 220,120C220,175.229 175.229,220 120,220C147.614,220 170,197.614 170,170C170,142.386 147.614,120 120,120C92.386,120 70,97.614 70,70C70,42.386 92.386,20 120,20ZM120,52.143C110.138,52.143 102.143,60.138 102.143,70C102.143,79.862 110.138,87.857 120,87.857C129.862,87.857 137.857,79.862 137.857,70C137.857,60.138 129.862,52.143 120,52.143Z" fill="#000" stroke="#00000000" stroke-width="1.0" stroke-miterlimit=""/>
		<path d="M119.143,20.007L118.35,20.027C91.499,20.898 70,42.938 70,70C70,97.614 92.386,120 120,120C147.614,120 170,142.386 170,170C170,197.614 147.614,220 120,220C64.771,220 20,175.229 20,120C20,65.324 63.881,20.896 118.346,20.013L119.143,20.007ZM120,152.143C110.138,152.143 102.143,160.138 102.143,170L102.143,170C102.143,179.862 110.138,187.857 120,187.857C129.862,187.857 137.857,179.862 137.857,170C137.857,160.138 129.862,152.143 120,152.143Z" fill="#000" stroke="#00000000" stroke-width="1.0" stroke-miterlimit=""/>
	</svg>
