<svg xmlns="http://www.w3.org/2000/svg" width="192" height="192" fill="none"><path stroke="#000" stroke-linecap="round" stroke-linejoin="round" stroke-width="12" d="M75 41c64 0 61 80 29 80m22 17s-20 13-51 13m0-110c-14.056 0-27.537 5.795-37.477 16.11C27.583 67.423 22 81.412 22 96s5.584 28.576 15.523 38.891S60.943 151 75 151"/><path stroke="#000" stroke-linecap="round" stroke-linejoin="round" stroke-width="12" d="M98 74c-.654 5.394-1.28 12.226-1.816 16.537M104 121c-7.331 0-9.574-3.816-9.419-13.063m1.603-17.4a25.3 25.3 0 0 0-5.667-10.627c-4.166-4.632-9.867-7.441-15.947-7.856s-12.085 1.594-16.795 5.62c-4.71 4.027-7.774 9.77-8.57 16.063-.795 6.293.737 12.666 4.287 17.825s8.85 8.719 14.826 9.958c5.976 1.238 12.181.062 17.356-3.29 3.867-2.505 6.942-6.085 8.907-10.293m1.603-17.4-1.603 17.4M170 43.069a62 62 0 0 0-3.477 4.14C156.584 60.15 151 77.7 151 96s5.584 35.85 15.523 48.79a61 61 0 0 0 3.477 4.141"/></svg>