<svg width="192" height="192" viewBox="0 0 192 192" fill="none" xmlns="http://www.w3.org/2000/svg"><path d="M32 22v148" stroke="#000" stroke-width="12" stroke-linecap="round" stroke-linejoin="round"/><path d="M88 20v58" stroke="#000" stroke-width="8" stroke-linecap="round" stroke-linejoin="round"/><ellipse cx="71" cy="122" rx="39" ry="48" stroke="#000" stroke-width="12" stroke-linejoin="round"/><path d="M99.423 157.355c5.454 6.993 12.403 11.755 19.968 13.684 7.566 1.93 15.407.939 22.534-2.845 7.126-3.784 13.217-10.193 17.502-18.415C163.713 141.556 166 131.889 166 122s-2.287-19.556-6.573-27.778c-4.285-8.223-10.376-14.632-17.502-18.416-7.127-3.784-14.968-4.775-22.534-2.845-7.565 1.929-14.514 6.691-19.968 13.684" stroke="#000" stroke-width="8" stroke-linecap="round" stroke-linejoin="round"/></svg>