<svg width="192" height="192" viewBox="0 0 192 192" fill="none" xmlns="http://www.w3.org/2000/svg">
<path d="M70.1627 84.0812C72.2827 82.1195 74.4704 81.2799 77.0527 80.3357M77.0527 80.3357C86.0626 77.0413 93.4826 78.1962 93.4826 78.1962C100.903 79.177 108.853 88.0045 92.4226 97.3224C104.613 100.755 104.613 108.602 97.1926 113.997C88.3843 120.4 77.7593 117.593 74.4027 115.958L77.0527 80.3357ZM22 84.0812C24.12 82.1195 26.3077 81.2799 28.89 80.3357M28.89 80.3357C37.8999 77.0413 45.3199 78.1962 45.3199 78.1962C52.7399 79.177 60.6898 88.0045 44.2599 97.3224C56.4498 100.755 56.4498 108.602 49.0299 113.997C40.2216 120.4 29.5966 117.593 26.24 115.958L28.89 80.3357ZM122.339 78.5L119.329 116.434M119.329 116.434L135.885 116M119.329 116.434L116.82 116.5M156.454 78.5L153.444 116.434M153.444 116.434L170 116M153.444 116.434L150.936 116.5" stroke="black" stroke-width="12" stroke-linecap="round" stroke-linejoin="round"/>
</svg>
