<svg xmlns="http://www.w3.org/2000/svg" width="192" height="192" fill="none"><path stroke="#000" stroke-linecap="round" stroke-linejoin="round" stroke-width="10" d="M69.814 82.233c2.148-2.01 4.365-2.871 6.983-3.839m0 0c9.131-3.377 16.652-2.193 16.652-2.193 7.52 1.005 15.577 10.054-1.075 19.604 12.355 3.52 12.355 11.562 4.835 17.091-8.928 6.564-19.696 3.687-23.098 2.011zM21 82.234c2.149-2.011 4.366-2.872 6.983-3.84m0 0c9.132-3.377 16.652-2.193 16.652-2.193 7.52 1.005 15.578 10.054-1.074 19.604 12.354 3.52 12.354 11.562 4.834 17.091-8.927 6.564-19.696 3.687-23.098 2.011zm94.712-1.882-3.051 38.883m0 0 16.78-.445m-16.78.445-2.542.067m40.169-38.95-3.051 38.883m0 0 16.78-.445m-16.78.445-2.542.067"/></svg>