<svg width="192" height="192" viewBox="0 0 192 192" fill="none" xmlns="http://www.w3.org/2000/svg"><path d="m36 114 29 56 29-56m4 48 29-56 29 56M139 52a15.001 15.001 0 0 0 10.607-25.607A15.001 15.001 0 0 0 139 22m4 60a15.001 15.001 0 0 0 10.607-25.607A15.001 15.001 0 0 0 143 52m-34 0h34" stroke="#000" stroke-width="12" stroke-linecap="round" stroke-linejoin="round"/><path d="M143 82h-28a6 6 0 0 1-6-6V28a6 6 0 0 1 6-6h24M66 52a15 15 0 0 0 0-30m4 60a15 15 0 0 0 0-30m-34 0h34" stroke="#000" stroke-width="12" stroke-linecap="round" stroke-linejoin="round"/><path d="M70 82H42a6 6 0 0 1-6-6V28a6 6 0 0 1 6-6h24" stroke="#000" stroke-width="12" stroke-linecap="round" stroke-linejoin="round"/></svg>