<svg xmlns="http://www.w3.org/2000/svg" width="192" height="192" fill="none"><path stroke="#000" stroke-linecap="round" stroke-linejoin="round" stroke-width="12" d="M96 170v-38M62 56c0 25 34 32 34 76m34-76c0 25-34 32-34 76"/><path stroke="#000" stroke-linecap="round" stroke-linejoin="round" stroke-width="12" d="M27.304 123.01c-4.468 6.048-7.468 14.475-3.348 24.995 16.01 31.993 52.032-11.998 52.032 21.995 0-49.99-52.032-19.996-52.032-63.987C23.956 56.023 96 78.019 96 132.008m68.696-8.998c4.468 6.048 7.468 14.475 3.348 24.995-16.01 31.993-52.032-11.998-52.032 21.995 0-49.99 52.032-19.996 52.032-63.987 0-49.99-72.044-27.994-72.044 25.995M130 56a34 34 0 1 0-68 0"/></svg>