<svg xmlns="http://www.w3.org/2000/svg" width="192" height="192" viewBox="0 0 50.8 50.8"><path fill="none" stroke="#000" stroke-linejoin="round" stroke-width="3.175" d="M31.882 42.645c3.389-4.127 9.464-3.842 12.963-5.836.665 2.92-1.455 5.901-3.904 6.015-3.14.029-6.27-1.303-9.06-.179zm-2.526-5.07c.173-6.288 2.577-14.968 9.97-14.98 6.391-.012 6.793 8.462 1.717 9.8-3.91 1.03-7.579 1.77-11.687 5.18zm-10.438 5.07c-3.389-4.127-9.464-3.842-12.963-5.836-.665 2.92 1.455 5.901 3.904 6.015 3.14.029 6.27-1.303 9.06-.179zm6.482-14.27a16.2 16.2 0 0 0-2.61-5.266c-1.54-2.058-4.702-4.03-4.705-7.975-.004-4.429 3.204-7.158 7.315-7.158 4.11 0 7.322 2.73 7.315 7.158-.006 3.945-3.163 5.918-4.705 7.975a16.2 16.2 0 0 0-2.61 5.266zm-3.956 9.2c-.173-6.288-2.577-14.968-9.97-14.98-6.391-.012-6.793 8.462-1.717 9.8 3.91 1.03 7.579 1.77 11.687 5.18z"/></svg>