<svg width="192" height="192" viewBox="0 0 192 192" fill="none" xmlns="http://www.w3.org/2000/svg"><path d="M21 62c41 16 53-7 64-21 29 70-3 104-3 104s-50-13-61-83Z" stroke="#000" stroke-width="10" stroke-linecap="round" stroke-linejoin="round"/><path d="M41 111c35 10.967 47-6 55-18m-38 3-11-7-9 11c9-8.5 20-4 20-4Zm23.546-17L93 82.273S80.454 80.09 75 91l6.546-12ZM121 96s-1.464-12.844-5.685-10.774c-1.83.898-2.792 2.124-3.248 4.144C111.097 93.66 121 96 121 96Zm14 2.827s3.633-9.487 7.137-7.572c1.787.977 2.693 2.418 2.855 4.543.328 4.291-9.992 3.029-9.992 3.029ZM154 111c-28 14-48 2-56-15" stroke="#000" stroke-width="8" stroke-linecap="round" stroke-linejoin="round"/><path d="M171 62c-42 21-55 1-67-18-21.555 68.654 15 106 15 106s41.169-19.346 52-88Z" stroke="#000" stroke-width="10" stroke-linecap="round" stroke-linejoin="round"/><path d="M165.958 66.304a75.996 75.996 0 0 0-69.427-46.302A75.999 75.999 0 0 0 26.463 65.33" stroke="#000" stroke-width="9" stroke-linecap="round" stroke-linejoin="round"/><path d="M169.056 75.052A76.004 76.004 0 0 1 95.735 172a76.006 76.006 0 0 1-74.546-62.607 76 76 0 0 1 1.903-34.85" stroke="#000" stroke-width="8" stroke-linecap="round" stroke-linejoin="round"/></svg>