<svg width="192" height="192" fill="none" xmlns="http://www.w3.org/2000/svg"><path d="M71 155h50a49.002 49.002 0 0 0 45.27-30.248 48.996 48.996 0 0 0-10.622-53.4 48.998 48.998 0 0 0-75.39 7.425A49 49 0 0 0 72 106v44.5" stroke="#000" stroke-width="12" stroke-linecap="round" stroke-linejoin="round"/><path d="M119.058 95.413a48.835 48.835 0 0 1-13.41 25.026L71 155l-34.648-34.561a48.842 48.842 0 0 1-13.41-25.026 48.764 48.764 0 0 1 2.788-28.24 48.904 48.904 0 0 1 18.047-21.936A49.087 49.087 0 0 1 71 37a49.087 49.087 0 0 1 27.223 8.237 48.905 48.905 0 0 1 18.047 21.936 48.758 48.758 0 0 1 2.788 28.24Z" stroke="#000" stroke-width="12" stroke-linecap="round" stroke-linejoin="round"/></svg>