<svg width="192" height="192" viewBox="0 0 192 192" fill="none" xmlns="http://www.w3.org/2000/svg">
<path d="M143 165.5L112.5 171L118.5 161L84 164L68.5915 138.138C66.4763 134.588 68.4874 129.649 71.8168 127.201C75.4957 124.496 79.0057 120.342 79.5849 114.739C80.6113 104.81 61.0503 106.878 53.566 107.913L49 156.939M104.474 106.747C113.947 96.2395 135 92.7598 135 103.713C135 114.666 108.333 134.468 95 143L129.118 140.619M109.405 23.7901L102 81C112.421 75.9147 133.593 64.0659 134.91 57.3532C135.708 53.2796 131.83 50.3172 127.125 48.5039C124.399 47.4531 123.357 42.8094 125.564 40.894C130.432 36.6696 134.91 31.231 134.91 26.0785C134.91 18.1453 117.906 21.2474 109.405 23.7901ZM59 26.4649V89C68.6667 82.5021 88 68.7735 88 61.8424C88 57.2548 82.8854 54.0847 77.4441 52.3259C74.7913 51.4684 73.6731 47.4095 75.6915 45.4864C81.5675 39.8878 87.4113 32.366 86.5854 26.4649C85.4537 18.3786 67.7236 23.0956 59 26.4649Z" stroke="black" stroke-width="10" stroke-linecap="round" stroke-linejoin="round"/>
</svg>
