<svg xmlns="http://www.w3.org/2000/svg" width="192" height="192" fill="none"><path stroke="#000" stroke-linecap="round" stroke-linejoin="round" stroke-width="8" d="m66.523 74.643-1.682 6.279-1.682 6.278-1.683 6.279-1.682 6.278"/><path stroke="#000" stroke-linecap="round" stroke-linejoin="round" stroke-width="8" d="m50.602 83.835 6.278 1.683 6.28 1.682 6.278 1.682 6.279 1.683"/><path stroke="#000" stroke-linecap="round" stroke-linejoin="round" stroke-width="12" d="M31.521 61.274c2.207-8.112 10.673-12.926 18.91-10.752l108.122 28.533c8.236 2.173 13.124 10.511 10.917 18.623l-8.991 33.048c-2.207 8.112-10.673 12.926-18.909 10.752L33.447 112.945c-8.236-2.173-13.124-10.511-10.917-18.623z"/><circle cx="132.913" cy="93.468" r="3" stroke="#000" stroke-linecap="round" stroke-linejoin="round" stroke-width="6"/><circle cx="141.398" cy="108.165" r="3" stroke="#000" stroke-linecap="round" stroke-linejoin="round" stroke-width="6"/><circle cx="126.702" cy="116.65" r="3" stroke="#000" stroke-linecap="round" stroke-linejoin="round" stroke-width="6"/><circle cx="118.216" cy="101.953" r="3" stroke="#000" stroke-linecap="round" stroke-linejoin="round" stroke-width="6"/></svg>