<svg width="192" height="192" viewBox="0 0 192 192" fill="none" xmlns="http://www.w3.org/2000/svg">
<path d="M100 81L107.405 23.7901C115.906 21.2474 132.91 18.1453 132.91 26.0785C132.91 34.0116 120.294 43.6228 113.987 47.4368C120.843 47.9454 134.226 50.6406 132.91 57.3532C131.593 64.0659 110.421 75.9147 100 81Z" stroke="black" stroke-width="10" stroke-linecap="round" stroke-linejoin="round"/>
<path d="M57 90V26.4649C65.7236 23.0956 83.4537 18.3786 84.5854 26.4649C85.7171 34.5512 72.3252 46.6806 65.4878 51.7345C72.3252 52.2158 86 54.9113 86 61.8424C86 68.7735 66.6667 83.5021 57 90Z" stroke="black" stroke-width="10" stroke-linecap="round" stroke-linejoin="round"/>
<path d="M81.5669 159.019C80.2458 159.134 79.0244 159.769 78.1715 160.784C77.3185 161.799 76.9039 163.112 77.0188 164.433C77.1337 165.754 77.7687 166.976 78.784 167.829C79.7994 168.681 81.1121 169.096 82.4331 168.981C82.4331 168.981 82.4331 168.981 82.4331 168.981C83.7245 168.869 85.0159 168.757 86.3073 168.644C96.5159 167.757 106.725 166.869 116.933 165.981L112.213 158.428C110.916 160.588 109.62 162.748 108.324 164.909C107.62 166.082 106.92 167.257 106.224 168.434C103.724 172.558 106.619 176.73 111.371 175.91C120.418 174.244 129.429 172.382 138.406 170.321C139.671 170.031 140.935 169.737 142.199 169.438C143.204 169.201 144.103 168.606 144.691 167.745C145.28 166.885 145.51 165.836 145.329 164.821C145.149 163.805 144.572 162.899 143.724 162.294C142.876 161.688 141.827 161.439 140.801 161.562C140.801 161.562 140.801 161.562 140.801 161.562C139.512 161.716 138.224 161.875 136.936 162.037C127.799 163.191 118.696 164.542 109.629 166.09L114.776 173.566C115.487 172.397 116.195 171.227 116.899 170.054C118.195 167.893 119.491 165.733 120.787 163.572C123.158 159.621 120.658 155.62 116.067 156.019C105.858 156.907 95.6496 157.794 85.441 158.682C84.1496 158.794 82.8582 158.907 81.5669 159.019Z" fill="black"/>
<path d="M48 156.939L52.566 107.913C60.0503 106.878 78.6113 104.81 77.5849 114.739C76.5585 124.669 64.327 130.047 60.2642 130.875L82 164" stroke="black" stroke-width="10" stroke-linecap="round" stroke-linejoin="round"/>
<path d="M102.474 106.747C111.947 96.2395 133 92.7598 133 103.713C133 114.666 106.333 134.468 93 143L127.118 140.619" stroke="black" stroke-width="10" stroke-linecap="round" stroke-linejoin="round"/>
</svg>
