<svg xmlns="http://www.w3.org/2000/svg" width="192" height="192" fill="none"><g stroke="#000" stroke-linecap="round" stroke-linejoin="round" stroke-width="12" clip-path="url(#a)"><path d="m106 82 7.405-57.21c8.501-2.543 25.505-5.645 25.505 2.288 0 11.922-12.616 19.545-21.923 21.359 6.856.508 23.239 3.204 21.923 9.916C137.593 65.066 116.421 76.915 106 82m-47 6V26.465c8.724-3.37 26.454-8.086 27.585 0s-13.26 20.216-20.097 25.27C73.325 52.214 88 54.91 88 61.841 88 68.773 70.667 81.502 59 88m47.474 18.747C115.947 96.24 137 92.76 137 103.713c0 11.953-24.667 28.755-38 37.287l34.118-2.381"/><path d="m51 155.939 4.566-47.026c7.484-1.035 26.045-4.103 25.019 6.826-1.026 11.93-11.262 16.303-19.325 16.131L85 163l34.5-3-6 10 30.5-5.5"/></g><defs><clipPath id="a"><path fill="#fff" d="M0 0h192v192H0z"/></clipPath></defs></svg>