<svg xmlns="http://www.w3.org/2000/svg" width="192" height="192" fill="none" viewBox="0 0 192 192"><path stroke="#000" stroke-linecap="round" stroke-linejoin="round" stroke-width="12" d="m32 46 8 16v90s16 18 56 18 56-18 56-18V46"/><path stroke="#000" stroke-linejoin="round" stroke-width="12" d="M96 70c56 0 56-24 56-24s0-24-56-24-64 24-64 24 8 24 64 24Z"/><path stroke="#000" stroke-linecap="round" stroke-linejoin="round" stroke-width="10" d="M104 92c16 0 24-4 24-4m-24 41c16 0 24-4 24-4m-24-15c8 0 14-1 14-1m-14 38c8 0 14-1 14-1"/></svg>