<svg xml:space="preserve" width="192" height="192" viewBox="0 0 50.799999 50.8" xmlns="http://www.w3.org/2000/svg">
  <path d="m12.008236 12.074949 5.190285 10.286769a4.485474 4.485474 53.485945 0 0 .903088 1.219827l6.027099 5.768794a2.5537465 2.5537465 56.614015 0 1 .625945.9498l3.864977 10.327727m2.960823-22.509146c5.42062 7.633743 5.093515 17.194399-.730611 21.354324-5.824126 4.159924-14.939795 1.343838-20.360415-6.289905-5.4206205-7.633743-5.0935148-17.194399.730611-21.354324 5.824126-4.1599242 14.939795-1.343838 20.360415 6.289905Zm1.606668-8.079023c-2.528214.06022-5.170537.876851-7.649662 2.364197 2.306658 1.423656 4.385318 3.389442 6.043042 5.714897 5.420566 7.633749 5.093419 17.194359-.730705 21.354252-1.569903 1.119506-3.445691 1.765837-5.490621 1.891874 5.318322.374061 11.159365-2.771813 15.001668-8.079611 5.488484-7.5852 5.227737-17.1225-.582393-21.302059-1.846665-1.328287-4.119933-1.9985932-6.591329-1.94355z" style="fill:none;stroke:#000;stroke-width:2.64583;stroke-linecap:round;stroke-dasharray:none"/>
  <path style="fill:none;stroke:#000;stroke-width:2.64583;stroke-linecap:round" d="m38.600255 11.747903-5.873952 8.068615"/>
</svg>
