<svg width="192" height="192" viewBox="0 0 192 192" fill="none" xmlns="http://www.w3.org/2000/svg"><path d="m42.692 45.263 19.965 39.202a17.104 17.104 0 0 0 3.473 4.649l23.183 21.984a9.723 9.723 0 0 1 2.408 3.62l14.866 39.358m11.389-85.78c20.85 29.09 19.592 65.526-2.81 81.379-22.403 15.853-57.465 5.121-78.316-23.97C16 96.613 17.258 60.178 39.66 44.325c22.403-15.853 57.466-5.122 78.316 23.97Zm0 0c-6.376-8.863-14.372-16.354-23.244-21.78 9.536-5.668 19.699-8.78 29.424-9.01 9.506-.21 18.25 2.345 25.353 7.407 22.348 15.928 28.677 57.755 7.566 86.662-14.78 20.228-43.074 25.424-65.539 25.424m53.441-112.982-22.594 30.748" stroke="#000" stroke-width="12" stroke-linecap="round"/></svg>
