<svg width="192" height="192" viewBox="0 0 192 192" fill="none" xmlns="http://www.w3.org/2000/svg"><path d="M96 128c0 8-16 21-24 21m24-21c0 8 16 21 24 21m-24-45v24m0-24H81.813a6 6 0 0 1-5.857-4.698l-6.19-27.858a6 6 0 0 0-4.148-4.45L32 57m128 0-33.618 9.995a5.998 5.998 0 0 0-4.147 4.45l-6.191 27.857a6 6 0 0 1-5.857 4.698H96" stroke="#000" stroke-width="12" stroke-linecap="round" stroke-linejoin="round"/><path d="M96 170H78a6 6 0 0 1-6-6v-15H48l-8-23 9.733-9.733c3.002-3.002 2.023-8.086-1.879-9.758L35 101 22 81l11-26 6-27 40-6 9 10h8m0 0h8l9-10 40 6 6 27 11 26-13 20-12.854 5.509c-3.902 1.672-4.881 6.756-1.879 9.758L152 126l-8 23h-24v15a6 6 0 0 1-6 6H96" stroke="#000" stroke-width="12" stroke-linecap="round" stroke-linejoin="round"/></svg>
