<svg width="192" height="192" viewBox="0 0 192 192" fill="none" xmlns="http://www.w3.org/2000/svg"><path d="M62 54a6 6 0 0 1 6-6h56a6 6 0 0 1 6 6v84a6 6 0 0 1-6 6H68a6 6 0 0 1-6-6V54Z" stroke="#000" stroke-width="12" stroke-linecap="round" stroke-linejoin="round"/><path d="M34 28a6 6 0 0 1 6-6h97.515a6 6 0 0 1 4.242 1.757l14.486 14.486A6 6 0 0 1 158 42.485v107.03a6 6 0 0 1-1.757 4.242l-14.486 14.486a6 6 0 0 1-4.242 1.757H40a6 6 0 0 1-6-6V28Z" stroke="#000" stroke-width="12" stroke-linecap="round" stroke-linejoin="round"/><path d="m106.261 67.81-.761 21.782 20.482 7.455-20.952 6.008-.761 21.783-12.188-18.07-20.952 6.008L84.548 95.6 72.36 77.53l20.481 7.455 13.42-17.176Z" stroke="#000" stroke-width="10" stroke-linecap="round" stroke-linejoin="round"/></svg>