<svg xmlns="http://www.w3.org/2000/svg" width="192" height="192" fill="none" stroke="#000" stroke-linecap="round" stroke-width="10" viewBox="0 0 192 192"><path d="M60.769 65.172 64.18 99.34"/><path stroke-width="12" d="M32.596 153.48 22.037 53.024a6 6 0 0 1 5.34-6.595L152.81 33.246a6 6 0 0 1 6.594 5.34l10.558 100.457a6 6 0 0 1-5.34 6.594L39.19 158.82a6 6 0 0 1-6.594-5.34Z"/><path stroke-width="6" d="M139.732 64.962a6.99 6.99 0 0 0-7.694-6.23m6.23-7.694a6.99 6.99 0 0 0 7.694 6.23"/><path stroke-width="6" d="M132.038 58.732a7 7 0 0 0 6.23-7.694m7.694 6.23a7 7 0 0 0-6.23 7.694"/><circle cx="96" cy="96" r="32" transform="rotate(-6 96 96)"/><circle cx="89.463" cy="90.59" r="4" stroke-width="8" transform="rotate(-6 89.463 90.59)"/></svg>