<?xml version="1.0" encoding="UTF-8" standalone="no"?>
<svg
   width="192"
   height="192"
   viewBox="0 0 192 192"
   fill="none"
   version="1.1"
   id="svg1"
   sodipodi:docname="bee_order.svg"
   inkscape:version="1.3.2 (091e20ef0f, 2023-11-25)"
   xml:space="preserve"
   xmlns:inkscape="http://www.inkscape.org/namespaces/inkscape"
   xmlns:sodipodi="http://sodipodi.sourceforge.net/DTD/sodipodi-0.dtd"
   xmlns="http://www.w3.org/2000/svg"
   xmlns:svg="http://www.w3.org/2000/svg"><defs
     id="defs1" /><sodipodi:namedview
     id="namedview1"
     pagecolor="#ffffff"
     bordercolor="#000000"
     borderopacity="0.25"
     inkscape:showpageshadow="2"
     inkscape:pageopacity="0.0"
     inkscape:pagecheckerboard="0"
     inkscape:deskcolor="#d1d1d1"
     showgrid="true"
     inkscape:zoom="2.1750362"
     inkscape:cx="131.49206"
     inkscape:cy="92.182373"
     inkscape:window-width="1920"
     inkscape:window-height="1014"
     inkscape:window-x="0"
     inkscape:window-y="0"
     inkscape:window-maximized="1"
     inkscape:current-layer="svg1"
     showguides="true" /><g
     id="g12"
     transform="translate(-0.51484206,-4.3148403)"><path
       id="path1"
       style="color:#000000;fill:#000000;stroke-linecap:round;stroke-linejoin:round;stroke-miterlimit:51.4;-inkscape-stroke:none"
       d="m 78.650391,100.39844 c -12.826502,3.17886 -23.740218,9.29386 -31.314453,17.15625 -7.796318,8.0929 -12.214006,18.52626 -9.869141,28.92383 2.406055,10.66889 11.207436,19.16876 22.324219,24.14843 11.116783,4.97972 25.01523,6.42751 38.503906,1.51758 9.375528,-3.41275 19.732488,-10.16003 27.841798,-18.5957 3.58781,-3.73221 6.83839,-7.88614 9.14258,-12.33594 -5.78668,-7.40446 -8.55289,-16.81931 -9.09375,-25.74414 -0.18764,-3.09618 -0.12846,-6.15635 0.18945,-9.09961 -2.77191,-1.92653 -5.87764,-3.51683 -9.18555,-4.74805 -1.19804,0.65087 -2.45949,1.18112 -3.74609,1.57032 -4.73327,1.43178 -10.06506,1.58947 -15.564454,1.13086 -6.555477,-0.54668 -13.286174,-1.99239 -19.228515,-3.92383 z m 18.207031,9.76758 c 0.653554,0.003 1.302,0.0162 1.943359,0.041 5.130899,0.19832 9.851329,1.08371 13.845699,2.51953 7.98884,2.87164 12.66309,7.51856 13.84571,13.01367 1.094,5.08339 -2.30186,12.51635 -9.00781,19.49219 -6.706,6.97585 -16.17107,13.04164 -23.294927,15.63477 -10.264282,3.7362 -20.999862,2.61269 -29.492187,-1.19141 -8.49233,-3.80406 -14.277195,-10.30117 -15.525391,-15.83594 -1.254578,-5.56301 0.94189,-11.87309 6.806641,-17.96093 5.864746,-6.08789 15.24587,-11.45458 26.515625,-14.07227 4.930456,-1.14522 9.788391,-1.66197 14.363281,-1.64062 z m 38.513668,5.71679 c 0.37907,4.55117 1.49234,9.14675 3.33985,13.28516 0.0857,-1.95641 -0.0555,-3.94212 -0.48828,-5.95313 -0.56833,-2.64077 -1.54543,-5.08575 -2.85157,-7.33203 z" /><path
       id="path2"
       style="fill:none;stroke:#000000;stroke-width:8;stroke-linecap:round;stroke-linejoin:round;stroke-miterlimit:51.4;stroke-dasharray:none"
       d="m 116.03599,95.005498 c -8.37832,8.543812 -30.428726,-9.00057 -37.436527,-19.379076 -10.088574,-14.941174 -3.171748,-39.605698 7.40863,-44.935196 10.421655,-5.249554 25.118927,6.577683 28.571337,24.245995 3.2406,16.584309 5.83016,35.608287 1.45656,40.068277 z"
       sodipodi:nodetypes="sssss" /><path
       id="path3"
       style="color:#000000;fill:#000000;stroke-linecap:round;stroke-linejoin:round;stroke-miterlimit:51.4;-inkscape-stroke:none"
       d="m 69.388672,35.652344 c -5.549884,0.179058 -10.707131,2.263439 -13.994141,6.753906 -4.756227,6.497599 -4.832809,16.070967 -2.248047,25.435547 2.584766,9.36458 8.231369,18.758104 17.386719,23.814453 4.953018,2.735458 12.123671,5.121176 19.53125,6.388672 C 85.071291,94.210321 80.438581,89.891223 76.826172,85.824219 75.933715,85.433113 75.099983,85.040668 74.400391,84.654297 67.774398,80.994872 63.001168,73.472588 60.859375,65.712891 58.717582,57.95319 59.608373,50.19267 61.849609,47.130859 c 1.164235,-1.590487 2.889045,-2.669815 5.0625,-3.185547 0.62788,-2.892506 1.463541,-5.68058 2.476563,-8.292968 z" /><path
       style="fill:none;fill-opacity:1;stroke:#000000;stroke-width:6;stroke-linecap:round;stroke-linejoin:round;stroke-miterlimit:51.4;stroke-dasharray:none"
       d="M 37.945257,143.56797 12.8809,153.02845 40.031175,149.27564 Z"
       id="path4" /><path
       style="color:#000000;fill:#000000;stroke-linecap:round;stroke-linejoin:round;stroke-miterlimit:51.4;-inkscape-stroke:none"
       d="m 147.49023,87.310547 c -3.73757,0.402413 -7.24612,1.79764 -10.10351,4.355469 -5.9997,5.370702 -8.05837,14.720984 -7.4707,24.417964 0.58766,9.69699 4.16567,20.05623 12.07421,26.90039 5.16715,4.47172 11.85397,8.46527 18.67579,10.07032 3.4109,0.80252 6.91685,1.01209 10.27539,0.0391 3.35854,-0.97303 6.46276,-3.30407 8.39648,-6.74414 2.02932,-3.6101 3.54974,-9.13006 3.78125,-16.06055 0.23151,-6.93049 -0.96986,-15.17349 -5.02148,-23.42383 -4.40938,-8.978843 -11.5796,-15.122782 -19.12891,-17.951168 -3.77466,-1.414192 -7.74094,-2.005928 -11.47852,-1.603515 z m 1,7.929687 c 2.29755,-0.230701 4.91204,0.130077 7.67188,1.164063 5.51967,2.067971 11.22976,6.806103 14.75586,13.986333 3.39701,6.91735 4.39874,13.83343 4.20508,19.63085 -0.19366,5.79743 -1.72624,10.57307 -2.75782,12.40821 -0.99807,1.77556 -2.08042,2.52367 -3.65039,2.97851 -1.56996,0.45485 -3.73315,0.44178 -6.21679,-0.14258 -4.96728,-1.16871 -10.97131,-4.60696 -15.27344,-8.33007 -5.72364,-4.95332 -8.83532,-13.29885 -9.32227,-21.33399 -0.48695,-8.03514 1.99313,-15.44382 4.82032,-17.974607 1.48984,-1.333655 3.47003,-2.156017 5.76757,-2.386719 z"
       id="path5" /><path
       style="fill:none;fill-opacity:1;stroke:#000000;stroke-width:6;stroke-linecap:round;stroke-linejoin:round;stroke-miterlimit:51.4;stroke-dasharray:none"
       d="M 140.45842,82.624988 C 124.27409,41.33702 141.07179,33.354815 149.76243,30.253586"
       id="path7"
       sodipodi:nodetypes="cc" /><path
       style="fill:none;fill-opacity:1;stroke:#000000;stroke-width:6;stroke-linecap:round;stroke-linejoin:round;stroke-miterlimit:51.4;stroke-dasharray:none"
       d="m 149.59247,80.563746 c -4.33399,-44.134401 14.00225,-47.242602 23.2089,-47.861004"
       id="path8"
       sodipodi:nodetypes="cc" /><path
       style="fill:#000000;fill-opacity:1;stroke:none;stroke-width:12;stroke-linecap:round;stroke-linejoin:round;stroke-miterlimit:51.4;stroke-dasharray:none"
       d="m 55.978516,125.87891 c -2.057559,13.33717 0.05026,25.02554 9.10107,33.96565 l 9.50889,14.92412 5.695499,-11.61151 C 70.447031,153.1692 62.152051,141.83121 68.00596,117.1184 l -20.670022,0.43629 z"
       id="path9"
       sodipodi:nodetypes="ccccccc" /><path
       style="fill:#000000;fill-opacity:1;stroke:none;stroke-width:12;stroke-linecap:round;stroke-linejoin:round;stroke-miterlimit:51.4;stroke-dasharray:none"
       d="m 79.102619,112.69236 c -4.377218,24.85442 4.18635,37.6073 15.086834,48.17483 l 6.475017,5.52731 5.62355,-11.8972 C 93.477477,144.0212 88.704125,129.26817 91.733368,110.36304 l -18.321432,-1.18253 z"
       id="path10"
       sodipodi:nodetypes="ccccccc" /><path
       style="fill:#000000;fill-opacity:1;stroke:none;stroke-width:29.5592;stroke-linecap:round;stroke-linejoin:round;stroke-miterlimit:51.4;stroke-dasharray:none"
       d="m 156.75992,105.43755 c 5.02254,-1.22905 8.78225,2.19715 10.85772,5.72283 1.67607,2.84716 2.01698,7.47271 -0.2143,9.90931 -1.68391,1.83885 -5.13635,1.78296 -7.4353,0.81768 -3.50919,-1.47346 -6.13632,-5.28337 -7.05644,-8.97645 -0.40497,-1.62544 0.0554,-3.4931 0.88908,-4.94607 0.64555,-1.12512 1.74213,-2.07833 2.95911,-2.5273 5e-5,-3e-5 8e-5,0 1.3e-4,0 z"
       id="path12"
       sodipodi:nodetypes="ssaaaaas" /></g></svg>
