<svg width="192" height="192" viewBox="0 0 192 192" fill="none" xmlns="http://www.w3.org/2000/svg"><path d="M135.867 33.647C133.461 75.667 98.623 109 56 109c-12.077 0-23.53-2.676-33.796-7.468m113.663-67.885a73.541 73.541 0 0 0-29.529-10.93m29.529 10.93c13.52 8.662 24.037 21.6 29.642 36.908m-59.171-47.839A74.633 74.633 0 0 0 96 22c-30.431 0-56.573 18.37-67.94 44.624m78.278-43.908C102.142 50.06 78.516 71 50 71a56.827 56.827 0 0 1-21.94-4.376m0 0C24.16 75.63 22 85.562 22 96c0 1.86.069 3.706.204 5.532m0 0c1.118 15.135 6.79 29.004 15.648 40.243m0 0C51.403 158.964 72.412 170 96 170c40.869 0 74-33.131 74-74 0-8.94-1.586-17.511-4.491-25.445m-127.657 71.22A102.02 102.02 0 0 0 67 146c47.147 0 86.823-31.988 98.509-75.445" stroke="#000" stroke-width="12" stroke-linecap="round" stroke-linejoin="round"/></svg>