<svg xmlns="http://www.w3.org/2000/svg" width="192" height="192" fill="none" viewBox="0 0 192 192"><path stroke="#000" stroke-linecap="round" stroke-linejoin="round" stroke-width="12" d="m32.44 126.329-4.361 21.005c-2.62 10.757-3.93 16.124-2.476 18.748a7.63 7.63 0 0 0 6.17 3.91c2.986.197 7.282-3.294 15.862-10.26l16.582-13.473c.878-.709 1.31-1.063 1.808-1.313.431-.213.89-.368 1.362-.459.537-.092 1.1-.079 2.226-.04l38.078 1.234c21.586.695 40.329-14.799 43.748-36.172a22.7 22.7 0 0 0-.489-9.509M51.368 53.12l-8.03 33.035c-2.62 10.759-3.916 16.125-2.462 18.748a7.61 7.61 0 0 0 6.17 3.911c2.986.196 7.269-3.294 15.849-10.26L79.49 85.082c.878-.71 1.31-1.064 1.795-1.314.432-.209.89-.366 1.375-.458.536-.092 1.1-.08 2.213-.04l38.09 1.22c21.587.709 40.33-14.786 43.748-36.158C168.912 34.516 158.25 22 144.275 22h-53.35c-11.421 0-17.146 0-21.887 2.007a25.37 25.37 0 0 0-10.53 8.278c-3.08 4.146-4.429 9.71-7.14 20.835"/></svg>