<svg xmlns="http://www.w3.org/2000/svg" width="192" height="192" fill="none"><path stroke="#000" stroke-linecap="round" stroke-linejoin="round" stroke-width="12" d="M46.036 121.714c28.475-15.823 71.644-15.841 100.152-.035m-100.151.035c-2.936-4.956-5.489-10.334-7.825-15.726-1.866-4.306.095-9.651 4.431-11.5 32.072-13.68 74.58-13.682 106.578-.008 4.334 1.852 6.208 7.166 4.451 11.516-2.003 4.958-4.064 9.905-7.484 15.683m-100.151.035c28.48-15.826 71.648-15.838 100.151-.035m-100.151.035c5.356 9.045 9.937 14.921 15.237 20.965m84.914-21c-4.147 7.006-9.166 14.051-15.228 20.972m-69.686.028c20.457-9.924 49.214-9.933 69.686-.028m-69.686.028c20.45-9.921 49.208-9.936 69.686-.028m-69.686.028c5.442 6.206 14.25 14.999 21.601 22.149 7.051 6.859 18.738 6.897 25.866.107 7.927-7.551 17.428-16.816 22.219-22.284M27.42 47.631c-.574 6.31-.547 12.709.004 19.023.408 4.67 4.518 6.802 8.92 5.112 36.543-14.029 82.894-14.05 119.471-.047 4.404 1.686 8.383-.467 8.74-5.14.409-5.352.683-12.345.15-18.968-.376-4.667-5.057-7.987-9.773-8.085-19.18-.4-38.82-7.69-50.888-15.29-4.734-2.982-11.328-2.982-16.062 0-12.068 7.6-31.708 14.89-50.888 15.29-4.717.098-9.25 3.438-9.674 8.106Z"/></svg>