<svg width="192" height="192" viewBox="0 0 192 192" fill="none" xmlns="http://www.w3.org/2000/svg"><path d="M57 48H28a6 6 0 0 0-6 6v84a6 6 0 0 0 6 6h32M22 94h38m46 14h64m-52-60h40" stroke="#000" stroke-width="12" stroke-linecap="round" stroke-linejoin="round"/><path d="M57 94a23 23 0 0 0 0-46m3 96a25.001 25.001 0 0 0 17.678-42.678A25.001 25.001 0 0 0 60 94m110 14c0-8.329-2.567-16.4-7.264-22.838-4.696-6.438-11.232-10.845-18.493-12.47-7.261-1.625-14.799-.367-21.328 3.559s-11.646 10.278-14.479 17.972c-2.833 7.695-3.207 16.257-1.058 24.227 2.149 7.97 6.688 14.856 12.844 19.483 6.155 4.627 13.547 6.71 20.915 5.894 7.367-.817 14.255-4.482 19.49-10.371" stroke="#000" stroke-width="12" stroke-linecap="round" stroke-linejoin="round"/></svg>