<svg xmlns="http://www.w3.org/2000/svg" width="192" height="192" fill="none"><path stroke="#000" stroke-linecap="round" stroke-linejoin="round" stroke-width="12" d="M74.206 52.36V65L26.03 148.07C20.343 157.758 27.278 170 38.454 170h115.092c11.176 0 18.111-12.242 12.423-21.93L117.794 65V52.36h3.849a4.4 4.4 0 0 0 3.141-1.31 4.5 4.5 0 0 0 1.3-3.163V32.063c.001-5.557-4.472-10.062-9.992-10.062H75.908c-5.52 0-9.993 4.505-9.993 10.062v15.826a4.5 4.5 0 0 0 1.3 3.163 4.44 4.44 0 0 0 3.141 1.309z"/><path stroke="#000" stroke-linecap="round" stroke-linejoin="round" stroke-width="12" d="M83 95a13 13 0 1 1 20.096 10.892l.188.069a15.005 15.005 0 0 1 9.708 14.53A15.001 15.001 0 0 1 83 120m0-25v55"/></svg>