<svg xmlns="http://www.w3.org/2000/svg" width="192" height="192" fill="none" stroke="#000" stroke-linejoin="round" viewBox="0 0 192 192"><path stroke-width="12" d="M74.556 66.02V52.36H70.68a4.47 4.47 0 0 1-4.472-4.472V32.062C66.207 26.505 70.712 22 76.27 22h41.354a10.06 10.06 0 0 1 10.061 10.062v15.825a4.47 4.47 0 0 1-4.471 4.472h-3.877V66.02l46.831 82.256c5.516 9.689-1.481 21.724-12.629 21.724H38.555c-11.254 0-18.238-12.242-12.51-21.93z"/><path stroke-width="10" d="M81.5 152V91.682C81.5 83.182 87.682 77 97.727 77s14.834 6.575 14.682 14.682c-.261 13.909-17 13.909-17 13.909s20.091 0 20.091 16.227c0 10.046-7.727 16.227-17.773 16.227S81.5 125.682 81.5 125.682z"/></svg>