<svg width="192" height="192" fill="none" xml:space="preserve" xmlns="http://www.w3.org/2000/svg"><path style="stroke:#000;stroke-width:12;stroke-linecap:butt;stroke-linejoin:miter;stroke-dasharray:none;stroke-opacity:1" d="M36.048 32.219h119.904"/><path style="stroke:#000;stroke-width:11.9935;stroke-linecap:butt;stroke-linejoin:miter;stroke-dasharray:none;stroke-opacity:1" d="M24.048 74.74h143.749"/><path style="stroke:#000;stroke-width:11.6196;stroke-linecap:butt;stroke-linejoin:miter;stroke-dasharray:none;stroke-opacity:1" d="M27.627 117.26h53.799"/><path style="fill:none;stroke:#000;stroke-width:12;stroke-linecap:square;stroke-linejoin:miter;stroke-dasharray:none;stroke-opacity:1" d="M30.07 147.802V44.22"/><path style="fill:none;stroke:#000;stroke-width:11.6884;stroke-linecap:square;stroke-dasharray:none;stroke-opacity:1" d="M162.108 83.302V44.063"/><path style="fill:none;stroke:#000;stroke-width:11.7373;stroke-dasharray:none;stroke-opacity:1" d="M96.011 88.853V26.72"/><path style="fill:none;stroke:#000;stroke-width:12;stroke-linecap:square;stroke-dasharray:none;stroke-opacity:1" d="M42.048 159.781h45.884"/><ellipse style="stroke:#000;stroke-width:12;stroke-linecap:round;stroke-dasharray:none" cy="123.353" cx="128.166" rx="48.609" ry="48.61"/><path style="fill:none;stroke:#000;stroke-width:12;stroke-linecap:round;stroke-linejoin:miter;stroke-dasharray:none;stroke-opacity:1" d="M126.573 105.166v20.582l17.48 10.141"/><path style="fill:#000;fill-opacity:1;stroke-width:.999998" d="M-26.219 155.952a12 12 0 0 1-12 12v-12z" transform="rotate(-90)"/><path style="fill:#000;fill-opacity:1;stroke-width:.999995" d="M-26.219-36.07a12 12 0 0 1-12 12v-12z" transform="matrix(0 -1 -1 0 0 0)"/><path style="fill:#000;fill-opacity:1;stroke-width:.999995" d="M165.781-36.048a12 12 0 0 1-12 12v-12z" transform="rotate(90)"/></svg>