<svg xmlns="http://www.w3.org/2000/svg" width="192" height="192" fill="none"><path stroke="#000" stroke-linecap="round" stroke-linejoin="round" stroke-width="12" d="M96 22S64.328 43.995 33.992 46.723c-3.3.297-5.998 3.05-5.934 6.363C30.28 169.034 96 170 96 170m0-148s31.672 21.995 62.008 24.723c3.3.297 5.998 3.05 5.934 6.363C161.72 169.034 96 170 96 170"/><circle cx="67" cy="87" r="5" stroke="#000" stroke-linecap="round" stroke-linejoin="round" stroke-width="10"/><circle cx="125" cy="87" r="5" stroke="#000" stroke-linecap="round" stroke-linejoin="round" stroke-width="10"/><path stroke="#000" stroke-linecap="round" stroke-linejoin="round" stroke-width="12" d="M110 116c0 1.576-.362 3.136-1.066 4.592-.703 1.456-1.734 2.779-3.035 3.893-1.3 1.115-2.843 1.998-4.541 2.602S97.838 128 96 128s-3.659-.31-5.358-.913c-1.698-.604-3.242-1.487-4.541-2.602s-2.332-2.437-3.035-3.893A10.5 10.5 0 0 1 82 116"/></svg>