<svg xmlns="http://www.w3.org/2000/svg" width="192" height="192" fill="none" viewBox="0 0 192 192"><path stroke="#000" stroke-linecap="round" stroke-width="12" d="M117 101v20m18 11-18-11M89 25v54m-64-9h129"/><path stroke="#000" stroke-linecap="round" stroke-linejoin="round" stroke-width="12" d="M152.795 84.205a48.49 48.49 0 0 1-68.59 68.59 48.5 48.5 0 0 1 68.59-68.59"/><path stroke="#000" stroke-linecap="round" stroke-width="12" d="M25 115h45m84-30V31a6 6 0 0 0-6-6H31a6 6 0 0 0-6 6v123a6 6 0 0 0 6 6h62"/></svg>