<svg xmlns="http://www.w3.org/2000/svg" width="192" height="192" fill="none"><path stroke="#000" stroke-width="12" d="M36.048 32.219h119.904"/><path stroke="#000" stroke-width="11.993" d="M24.048 74.74h143.749"/><path stroke="#000" stroke-width="11.62" d="M27.627 117.26h53.799"/><path stroke="#000" stroke-linecap="square" stroke-width="12" d="M30.07 147.802V44.22"/><path stroke="#000" stroke-linecap="square" stroke-width="11.688" d="M162.108 83.302V44.063"/><path stroke="#000" stroke-width="11.737" d="M96.011 88.853V26.72"/><path stroke="#000" stroke-linecap="square" stroke-width="12" d="M42.048 159.781h45.884"/><path stroke="#000" stroke-linecap="round" stroke-width="12" d="M126.573 105.166v20.582l17.48 10.141"/><path fill="#000" d="M155.952 26.219a12 12 0 0 1 12 12h-12zm-119.882 0a12 12 0 0 1-12 12h12zm-.022 139.562a12 12 0 0 1-12-12h12z"/><ellipse cx="128.166" cy="123.353" stroke="#000" stroke-linecap="round" stroke-width="12" rx="48.609" ry="48.61"/></svg>