<svg xmlns="http://www.w3.org/2000/svg" width="192" height="192" fill="none"><path stroke="#000" stroke-linecap="round" stroke-linejoin="round" stroke-width="12" d="M82.52 34.585c3.435-14.113 23.525-14.113 26.961 0l5.946 24.425c1.605 6.594 7.754 11.057 14.528 10.545l25.089-1.898c14.497-1.097 20.705 17.992 8.331 25.618l-21.413 13.197a13.854 13.854 0 0 0-5.55 17.063l9.56 23.251c5.524 13.436-10.729 25.233-21.813 15.833l-19.18-16.269a13.885 13.885 0 0 0-17.958 0l-19.18 16.269c-11.084 9.4-27.337-2.397-21.813-15.833l9.56-23.251a13.854 13.854 0 0 0-5.55-17.063L28.625 93.275c-12.374-7.626-6.166-26.715 8.331-25.618l25.089 1.898c6.774.512 12.923-3.95 14.528-10.546z"/></svg>