<svg xmlns="http://www.w3.org/2000/svg" xmlns:android="http://schemas.android.com/apk/res/android" xmlns:aapt="http://schemas.android.com/aapt" viewportWidth="1080" viewportHeight="1080" width="1080dp" height="1080dp">
	<path d="M178.5 233L905.5 233L909 235.5L899.5 236L898.5 235L181.5 235Q180 237.5 174.5 236L175.5 234L178.5 233Z" fill="#000000" fillAlpha="0.07843137" stroke="#000000" strokeAlpha="0.07843137" stroke-width="1"/>
	<path d="M162.5 236L171 236.5L162.5 237L162.5 236Z" fill="#000000" fillAlpha="0.07843137" stroke="#000000" strokeAlpha="0.07843137" stroke-width="1"/>
	<path d="M912.5 236L919 236.5L912.5 237L912.5 236Z" fill="#000000" fillAlpha="0.07843137" stroke="#000000" strokeAlpha="0.07843137" stroke-width="1"/>
	<path d="M159.5 237L161 237.5L159 238L157.5 241L158 239.5L159.5 237Z" fill="#000000" fillAlpha="0.07843137" stroke="#000000" strokeAlpha="0.07843137" stroke-width="1"/>
	<path d="M921.5 237L926 239.5Q926.8 241.8 924.5 241L921.5 237Z" fill="#000000" fillAlpha="0.07843137" stroke="#000000" strokeAlpha="0.07843137" stroke-width="1"/>
	<path d="M153.5 241L156 241.5L151 244.5Q151.8 246.8 149.5 246L145.5 251Q143.3 250.3 144 252.5L143 252.5L145 248L149 245.5L151.5 242L153.5 241Z" fill="#000000" fillAlpha="0.07843137" stroke="#000000" strokeAlpha="0.07843137" stroke-width="1"/>
	<path d="M927.5 241L932 243.5L931.5 245L931 243Q926.8 243 927.5 241Z" fill="#000000" fillAlpha="0.07843137" stroke="#000000" strokeAlpha="0.07843137" stroke-width="1"/>
	<path d="M933.5 246L937 247.5L936.5 250L934.5 247L933.5 246Z" fill="#000000" fillAlpha="0.07843137" stroke="#000000" strokeAlpha="0.07843137" stroke-width="1"/>
	<path d="M937.5 251L942 254.5L941.5 258L937.5 251Z" fill="#000000" fillAlpha="0.07843137" stroke="#000000" strokeAlpha="0.07843137" stroke-width="1"/>
	<path d="M142.5 254L143 255.5Q139.3 257.8 138.5 263L138 258.5L142 256L142.5 254Z" fill="#000000" fillAlpha="0.07843137" stroke="#000000" strokeAlpha="0.07843137" stroke-width="1"/>
	<path d="M942.5 259L943 262.5L954 276.5L958 287.5L959 304.5L960 305.5L960 322.5L962 326.5L960.5 327L959 324L954 322L954 314.5L953 313.5L953 297.5Q950.3 294.2 951 287.5L947 279.5L946 270.5L942 264.5L942.5 259Z" fill="#000000" fillAlpha="0.07843137" stroke="#000000" strokeAlpha="0.07843137" stroke-width="1"/>
	<path d="M137.5 264L138 275L135 276.5L130 290.5L128 322Q124.2 321.3 123 324.5Q124.1 328.7 120 327Q119 322.8 122 321.5L122 297.5Q124.2 296.3 123 291.5L127 278.5L137.5 264Z" fill="#000000" fillAlpha="0.07843137" stroke="#000000" strokeAlpha="0.07843137" stroke-width="1"/>
	<path d="M91.5 327L98 327.5Q89.7 327.2 86.5 332L87 330.5Q86.3 328.3 88.5 329L91.5 327Z" fill="#000000" fillAlpha="0.07843137" stroke="#000000" strokeAlpha="0.07843137" stroke-width="1"/>
	<path d="M982.5 327L991.5 327L994 329.5Q993.3 331.8 995.5 331L995.5 332L989.5 328L982.5 328L982.5 327Z" fill="#000000" fillAlpha="0.07843137" stroke="#000000" strokeAlpha="0.07843137" stroke-width="1"/>
	<path d="M82.5 332L84 332.5L82 333L81.5 335L81 333.5L82.5 332Z" fill="#000000" fillAlpha="0.07843137" stroke="#000000" strokeAlpha="0.07843137" stroke-width="1"/>
	<path d="M998.5 332L1004 336.5L1003.5 339L998.5 332Z" fill="#000000" fillAlpha="0.07843137" stroke="#000000" strokeAlpha="0.07843137" stroke-width="1"/>
	<path d="M78.5 337L81 337.5L78 338L76.5 343L76 339.5L78.5 337Z" fill="#000000" fillAlpha="0.07843137" stroke="#000000" strokeAlpha="0.07843137" stroke-width="1"/>
	<path d="M235.5 341L847.5 341L856 346L859 350.5L861 357.5L861 403.5L859 409.5L856.5 412L852.5 406L850 411.5L849 424.5L848 425.5L848 455.5L851 468.5L852.5 470L856.5 465L859 466.5L861 472.5L861 522.5L859 530L856.5 531L852.5 525L849 534.5L849 543.5L848 544.5L848 658.5Q850.7 660.3 849 666.5L852.5 675L856.5 670Q859.8 668.9 859 671.5L861 676.5L861 717L856.5 718L851 722L855 716.5L855 690.5L847.5 677Q842.5 688.5 832.5 695L818.5 702L801.5 703L800.5 704L737.5 704Q735.8 701.3 729.5 703L727.5 703L712.5 700Q701.9 694.6 694.5 686L688.5 685L682.5 688L671.5 698L657.5 703Q650 701.5 646.5 704Q645 701.5 639.5 703L638.5 704L594.5 704L593.5 703L578.5 702L572.5 700Q561.2 694.8 554 685.5L542.5 667L537 670.5Q531 686 518.5 695L504.5 702Q498.3 700.3 496.5 703L486.5 703L485.5 704L422.5 704Q421 701.5 415.5 703L413.5 704L410.5 702L404.5 702L394.5 698L381 686.5L376 678Q373 679.3 374 675.5L371 670.5L368 659.5L368 580.5L365.5 576L361.5 575L358.5 578Q351.3 578.8 347.5 583Q337.9 581.9 332.5 585Q330.8 582.3 324.5 584L315 588.5L313 591.5L313 604.5L312 605.5L312 670.5L307 684.5L301.5 692L299 693.5Q299.8 695.8 297.5 695Q289.6 702.6 275.5 704Q273.8 701.3 267.5 703Q266.2 705.2 261.5 704L249.5 700L236 688.5L229 674.5L228.5 666L226 688.5L225 689.5L225 711.5L226 716.5L230 721.5L227.5 722L226 719L222.5 717L219 717L219 692.5L221 682.5L223 679.5L223 416.5L220 412.5L220 399.5L219 398.5L219 360.5Q221.2 359.3 220 354.5L223 348.5L227.5 344L235.5 341ZM261 346L260 347L236 347L233 348L226 357L226 369L225 370L225 403L226 404L227 421L228 422L229 444L229 421L230 417Q234 402 243 394L244 388L248 385L243 395L243 405L238 413L235 427L235 669L238 679L242 686Q249 695 263 697L278 697L290 693L296 689L303 678L306 665L306 598Q309 596 307 591L310 585L322 578L338 578L343 577L352 574L364 567L371 568L373 571L374 575L374 648L375 649L376 664L380 675L388 686L405 695L422 698L426 697Q430 696 432 698L436 697Q440 696 442 698L445 697Q449 696 451 698L455 697Q459 696 461 698L464 697Q468 696 470 698L474 697Q478 696 480 698Q486 696 497 697Q499 694 505 695L516 689Q530 679 533 659L533 604L534 603L534 588L535 587L535 572L536 570Q537 567 543 568L548 582L548 650L549 651L549 659L552 671L558 679L558 681L567 689L581 696L603 697L604 698L607 697Q611 696 613 698L617 697Q621 696 623 698L626 697Q630 696 632 698Q640 695 654 697L662 695Q676 689 685 678L690 677L696 678L697 680Q696 682 699 681L700 684L712 692L727 697L736 697L737 698L741 697L746 698L750 697Q754 696 756 698L760 697L765 698L769 697Q773 696 775 698L779 697Q783 696 785 698L788 697Q792 696 794 698Q800 696 811 697L819 695L831 688L842 675Q841 668 845 667L846 654L847 653L847 554L846 553L845 535L838 521Q839 516 837 515L838 507L838 511Q845 515 848 524Q850 515 855 509L855 488L851 482L851 479L848 471L844 476L842 479Q836 485 826 487L828 492Q827 495 831 494L833 499Q832 501 835 500L837 504L837 506L831 497L829 495L826 492L824 489L816 488L812 484L800 484L793 486L787 486L783 489L781 489L783 486L788 484L783 480Q780 481 781 479L778 477L777 474L772 469L767 473L767 498L771 498Q770 491 775 489L778 490L776 490Q771 493 771 500L767 504L767 510L762 508L760 503L760 472L762 460L766 458L775 459L782 471L789 477L805 483L822 482L836 475L840 471L845 461L846 449L847 448L847 435L846 434L845 417L842 411L842 408L838 403Q840 397 837 396L838 388L838 392Q845 396 848 405L849 400L855 390L855 358L853 354L851 351L845 347L821 347L820 346L261 346Z" fill="#000000" fillAlpha="0.07843137" stroke="#000000" strokeAlpha="0.07843137" stroke-width="1"/>
	<path d="M1004.5 344L1008 346L1020 368.5L1021 398.5L1018 412.5L1007.5 427L999.5 433L990.5 437Q983 439.5 971.5 438L962 444.5L960 448.5L960 627.5L961 631L966 631.5L961.5 632L959 631L957.5 628L954 627L954 448.5L959 438L969.5 433L980.5 432L991.5 429L1005 420.5Q1010.7 413.7 1013 403.5Q1011.5 398 1014 396.5L1014 375.5Q1011.5 374 1013 368.5L1009 361.5L1007 349L1004 347.5L1004.5 344Z" fill="#000000" fillAlpha="0.07843137" stroke="#000000" strokeAlpha="0.07843137" stroke-width="1"/>
	<path d="M75.5 347L76 356.5L69 368.5L67 379.5L67 392.5L68 393.5L68 401.5L73 414.5L81.5 424L85.5 427L96.5 431L116.5 434L125 441.5L127 445.5Q125.5 451 128 452.5L128 627Q124.2 626.3 123 629.5Q123.8 631.8 121.5 631Q120.2 633.3 115.5 632L115.5 631Q121.3 633.1 120 628.5L122 626.5L122 452.5L118.5 444Q116.3 444.8 117 442.5L114.5 440L108.5 438Q96.7 439.3 89.5 436L82.5 433L74 427L66 415.5L62 406.5L61 402.5L61 374.5Q64.1 356.6 75.5 347Z" fill="#000000" fillAlpha="0.07843137" stroke="#000000" strokeAlpha="0.07843137" stroke-width="1"/>
	<path d="M276.5 367L333.5 367L342 369.5L336.5 370L335.5 369L275.5 369Q274 371.5 268.5 370L268.5 369Q274.5 370 276.5 367Z" fill="#000000" fillAlpha="0.07843137" stroke="#000000" strokeAlpha="0.07843137" stroke-width="1"/>
	<path d="M403.5 367L419.5 367Q420.8 369.8 425 369.5L420.5 370L419.5 369L401.5 369Q400.3 371.3 395.5 370L395.5 369Q401.5 370 403.5 367Z" fill="#000000" fillAlpha="0.07843137" stroke="#000000" strokeAlpha="0.07843137" stroke-width="1"/>
	<path d="M489.5 367L505.5 367Q507.8 369.8 513 369.5L507.5 370L506.5 369L487.5 369L482.5 370L482.5 369L489.5 367Z" fill="#000000" fillAlpha="0.07843137" stroke="#000000" strokeAlpha="0.07843137" stroke-width="1"/>
	<path d="M591.5 367L648.5 367Q651 370 657 369.5L650.5 370L649.5 369L589.5 369Q588 371.5 582.5 370L582.5 369Q589.2 370.2 591.5 367Z" fill="#000000" fillAlpha="0.07843137" stroke="#000000" strokeAlpha="0.07843137" stroke-width="1"/>
	<path d="M732.5 367L805.5 367Q808 370 814 369.5L807.5 370L806.5 369L730.5 369Q729 371.5 723.5 370L723.5 369Q729.8 369.8 732.5 367Z" fill="#000000" fillAlpha="0.07843137" stroke="#000000" strokeAlpha="0.07843137" stroke-width="1"/>
	<path d="M260.5 370L263 370.5L259 372.5Q259.8 374.8 257.5 374L253 377.5L251.5 380L248.5 382L248 380L252 379L253 375L258 372.5Q257.3 370.3 259.5 371L260.5 370Z" fill="#000000" fillAlpha="0.07843137" stroke="#000000" strokeAlpha="0.07843137" stroke-width="1"/>
	<path d="M348.5 370L354 371L355.5 374L360 376.5L361 380L365 382.5L366 387.5L365 387.5L365 385.5L356.5 375L348.5 371L348.5 370Z" fill="#000000" fillAlpha="0.07843137" stroke="#000000" strokeAlpha="0.07843137" stroke-width="1"/>
	<path d="M390.5 370L393 370.5L387 374.5L386.5 376L386 374.5L388.5 371L390.5 370Z" fill="#000000" fillAlpha="0.07843137" stroke="#000000" strokeAlpha="0.07843137" stroke-width="1"/>
	<path d="M428.5 370L432 371.5L431.5 373L428.5 370Z" fill="#000000" fillAlpha="0.07843137" stroke="#000000" strokeAlpha="0.07843137" stroke-width="1"/>
	<path d="M477.5 370L480 370.5L477 371L472.5 377L472 375.5L476 373L477.5 370Z" fill="#000000" fillAlpha="0.07843137" stroke="#000000" strokeAlpha="0.07843137" stroke-width="1"/>
	<path d="M515.5 370L517.5 370L522 374.5L523 378.5L522 378.5Q522.5 374.5 519.5 374Q517.3 374.8 518 372.5L515.5 370Z" fill="#000000" fillAlpha="0.07843137" stroke="#000000" strokeAlpha="0.07843137" stroke-width="1"/>
	<path d="M573.5 370L577 370.5L573 372.5L571.5 375Q567.5 374.5 567 377.5L565.5 380L563 381.5L562.5 383L562 380.5L566 377.5L567.5 375L572 374L573.5 370Z" fill="#000000" fillAlpha="0.07843137" stroke="#000000" strokeAlpha="0.07843137" stroke-width="1"/>
	<path d="M662.5 370L667.5 371L675 376.5L674.5 379L674 377L662.5 371L662.5 370Z" fill="#000000" fillAlpha="0.07843137" stroke="#000000" strokeAlpha="0.07843137" stroke-width="1"/>
	<path d="M714.5 370L717 370.5L711.5 374L711 371L714.5 370Z" fill="#000000" fillAlpha="0.07843137" stroke="#000000" strokeAlpha="0.07843137" stroke-width="1"/>
	<path d="M820.5 370L826 371L828.5 375L832 376.5Q831.9 382.1 835.5 384Q838.1 383.2 837 386.5L836 386.5Q836.8 384.3 834.5 385L829.5 376L823 372.5Q823.8 369.9 820.5 371L820.5 370Z" fill="#000000" fillAlpha="0.07843137" stroke="#000000" strokeAlpha="0.07843137" stroke-width="1"/>
	<path d="M432.5 374L437 377.5L436.5 381L432.5 374Z" fill="#000000" fillAlpha="0.07843137" stroke="#000000" strokeAlpha="0.07843137" stroke-width="1"/>
	<path d="M709.5 374L708.5 376L706 377.5L705.5 379L705 377.5L706 375L709.5 374Z" fill="#000000" fillAlpha="0.07843137" stroke="#000000" strokeAlpha="0.07843137" stroke-width="1"/>
	<path d="M385.5 378L386 380.5Q380.5 387.3 381 399L375.5 401L371.5 401L367.5 396L366 396L366 392L372.5 394Q378.6 392.6 381 387.5L383.5 381Q386.4 381.7 385.5 378Z" fill="#000000" fillAlpha="0.07843137" stroke="#000000" strokeAlpha="0.07843137" stroke-width="1"/>
	<path d="M471.5 380L472 385.5L463 408.5L463 414.5L461 421.5L461 612Q457.6 613.7 450.5 613L447 612L446 607.5L446 414.5L441 399.5L438 396.5L437 382.5L438 382.5L438 385.5L452.5 405Q457 406 458 403.5Q459.7 395.7 464.5 391Q466.8 391.8 466 389.5L469.5 385L471 385L471.5 380Z" fill="#000000" fillAlpha="0.07843137" stroke="#000000" strokeAlpha="0.07843137" stroke-width="1"/>
	<path d="M675.5 380L679 382.5Q681.9 386.4 681 393L686.5 397L690.5 398L695 395.5L698.5 391Q701.1 390.2 700 393.5L697 396.5Q696.8 402.3 693.5 405L685.5 405L685 402.5L681 397.5L680 387.5L675.5 380Z" fill="#000000" fillAlpha="0.07843137" stroke="#000000" strokeAlpha="0.07843137" stroke-width="1"/>
	<path d="M702.5 380L705 380.5Q700.9 381.9 700.5 387L700 384.5L702.5 380Z" fill="#000000" fillAlpha="0.07843137" stroke="#000000" strokeAlpha="0.07843137" stroke-width="1"/>
	<path d="M523 384L528 387.5L537 402.5L538 408.5L541.5 412Q546.5 412.5 547 408.5L560.5 385Q562.8 384.3 562 386.5L558 390.5L557 403.5L554 407.5L550 420.5L549 440.5L548 441.5L548 479.5L547 484L543 485.5Q544.9 490.9 541.5 490Q537.9 492.1 538 497Q535.3 498.1 536 495.5L534 493.5Q535.3 488.8 533 487.5L533 413.5L528 401.5L527 393.5L523 387.5L523 384Z" fill="#000000" fillAlpha="0.07843137" stroke="#000000" strokeAlpha="0.07843137" stroke-width="1"/>
	<path d="M766.5 567L771 570.5L773 574.5L774 586.5L775 587.5L775 612Q771.7 614.1 763.5 613L761 612Q758.8 605.3 760 593.5L761 592.5L761 572.5L763.5 569L766.5 567Z" fill="#000000" fillAlpha="0.07843137" stroke="#000000" strokeAlpha="0.07843137" stroke-width="1"/>
	<path d="M89.5 632L98 632.5L90.5 633L87.5 636L87 633L89.5 632Z" fill="#000000" fillAlpha="0.07843137" stroke="#000000" strokeAlpha="0.07843137" stroke-width="1"/>
	<path d="M986.5 632Q992.6 631.3 995 633L996 635.5L994.5 636L991.5 633Q985.5 634.2 986.5 632Z" fill="#000000" fillAlpha="0.07843137" stroke="#000000" strokeAlpha="0.07843137" stroke-width="1"/>
	<path d="M84.5 636L86 636.5L82 638L81.5 640L81 638.5L84.5 636Z" fill="#000000" fillAlpha="0.07843137" stroke="#000000" strokeAlpha="0.07843137" stroke-width="1"/>
	<path d="M997.5 636L1004 640.5L1003.5 643L998.5 637L997.5 636Z" fill="#000000" fillAlpha="0.07843137" stroke="#000000" strokeAlpha="0.07843137" stroke-width="1"/>
	<path d="M77 642L80 642.5L78 643L76.5 649L76 644.5L77 642Z" fill="#000000" fillAlpha="0.07843137" stroke="#000000" strokeAlpha="0.07843137" stroke-width="1"/>
	<path d="M1004.5 649L1008 651.5L1020 673.5L1021 703.5L1019 713.5L1015 722.5L1005.5 734L990.5 742L980.5 743L975.5 745L969.5 745L961 751.5L960 753.5L960 776.5L959 777.5L958 790.5L953 803.5L939.5 820Q930.4 828.4 917.5 833L906.5 835L887.5 836L884.5 835Q883 837.5 877.5 836L875.5 835Q874 837.5 868.5 836L865.5 835Q864 837.5 858.5 836L856.5 835Q854.7 837.8 848.5 836L846.5 835Q845 837.5 839.5 836L837.5 835Q835.8 837.8 829.5 836L827.5 835Q826 837.5 820.5 836L818.5 835Q816.8 837.8 810.5 836L808.5 835Q807 837.5 801.5 836L799.5 835Q797.8 837.8 791.5 836L789.5 835Q788 837.5 782.5 836L780.5 835Q778.8 837.8 772.5 836L770.5 835Q769 837.5 763.5 836L761.5 835Q759.8 837.8 753.5 836L751.5 835Q750 837.5 744.5 836L742.5 835Q740.8 837.8 734.5 836L732.5 835Q731 837.5 725.5 836L723.5 835Q721.8 837.8 715.5 836L713.5 835Q712 837.5 706.5 836L703.5 835Q702 837.5 696.5 836L694.5 835Q692.8 837.8 686.5 836L684.5 835Q683 837.5 677.5 836L675.5 835Q673.8 837.8 667.5 836L665.5 835Q664 837.5 658.5 836L656.5 835Q654.8 837.8 648.5 836L646.5 835Q645 837.5 639.5 836L637.5 835Q635.8 837.8 629.5 836L627.5 835Q626 837.5 620.5 836L618.5 835Q616.8 837.8 610.5 836L608.5 835Q607 837.5 601.5 836L599.5 835Q597.8 837.8 591.5 836L589.5 835Q588 837.5 582.5 836L580.5 835Q578.8 837.8 572.5 836L570.5 835Q569 837.5 563.5 836L561.5 835Q559.8 837.8 553.5 836L551.5 835Q550 837.5 544.5 836L541.5 835Q540 837.5 534.5 836L532.5 835Q531 837.5 525.5 836L522.5 835Q521 837.5 515.5 836L513.5 835Q511.8 837.8 505.5 836L503.5 835Q502 837.5 496.5 836L494.5 835Q492.8 837.8 486.5 836L484.5 835Q483 837.5 477.5 836L475.5 835Q473.8 837.8 467.5 836L465.5 835Q464 837.5 458.5 836L456.5 835Q454.8 837.8 448.5 836L446.5 835Q445 837.5 439.5 836L437.5 835Q435.8 837.8 429.5 836L427.5 835Q426 837.5 420.5 836L418.5 835Q416.8 837.8 410.5 836L408.5 835Q407 837.5 401.5 836L399.5 835Q397.8 837.8 391.5 836L389.5 835Q388 837.5 382.5 836L380.5 835Q378.8 837.8 372.5 836L370.5 835Q369 837.5 363.5 836L360.5 835Q359 837.5 353.5 836L351.5 835Q349.8 837.8 343.5 836L341.5 835Q340 837.5 334.5 836L332.5 835Q330.8 837.8 324.5 836L322.5 835Q321 837.5 315.5 836L313.5 835Q311.7 837.8 305.5 836L303.5 835Q302 837.5 296.5 836L294.5 835Q292.8 837.8 286.5 836L284.5 835Q283 837.5 277.5 836L275.5 835Q273.8 837.8 267.5 836L265.5 835Q264 837.5 258.5 836L256.5 835Q254.8 837.8 248.5 836L246.5 835Q245 837.5 239.5 836L237.5 835Q235.8 837.8 229.5 836L227.5 835Q226 837.5 220.5 836L218.5 835Q216.8 837.8 210.5 836L208.5 835Q207 837.5 201.5 836L198.5 835Q197 837.5 191.5 836L189.5 835Q188 837.5 182.5 836L181.5 835L168.5 834L153.5 828L148.5 825L134 810.5L132 807.5L126 796.5L123 784.5L121 753.5Q119.6 747.4 114.5 745Q107.5 746 104.5 743L95.5 743L85.5 740L73 731L71.5 728Q69.3 728.8 70 726.5Q63.1 719.4 61 707.5L61 679.5L64 668.5L73 653L75.5 652L76 661.5L70 670.5L67 684.5L67 697.5L70 713.5Q73.3 722.3 79.5 728L95.5 736L114.5 739L125 746.5L128 757.5L129 783.5Q131.7 785.8 131 791.5L135 800.5L143 812Q145.7 810.9 145 813.5L159.5 824L171.5 828L183.5 829L184.5 830L895.5 830L917.5 826L933.5 817L940 810.5Q946.6 803.6 950 793.5L953 779.5L954 753.5Q956.2 745.2 962.5 741L966.5 739L981.5 737L992.5 734L1004 727L1010 718.5L1013 710.5L1013 702.5L1015 692.5L1014 691.5L1013 673.5L1010 669.5L1007 654.5L1005.5 653Q1002 653.8 1004.5 649Z" fill="#000000" fillAlpha="0.07843137" stroke="#000000" strokeAlpha="0.07843137" stroke-width="1"/>
	<path d="M232.5 722L848 722.5L232.5 723L232.5 722Z" fill="#000000" fillAlpha="0.07843137" stroke="#000000" strokeAlpha="0.07843137" stroke-width="1"/>
	<path d="M173.5 238L907.5 238L923.5 243L932 249.5L934 252.5L940 263.5L941 279.5L942 280.5L942 304.5Q944.3 305.7 943 310.5L946 319.5L953.5 327L957.5 329L968.5 331L989.5 332L997 335L1002 344.5Q1000.2 350.7 1003 352.5L1003 381.5L1001 388.5L994.5 395L986.5 397L969.5 397L952 402L948.5 407Q946.3 406.3 947 408.5L943 419.5Q944.8 425.7 942 427.5L942 609.5L946 624.5L953.5 632L969.5 636L986.5 636L995.5 639L999 642.5L1001 645.5L1002 656.5L1003 657.5L1003 686.5L999 697Q996.3 695.9 997 698.5L988.5 702L972.5 703L955.5 706L947 713.5L945 717.5L942 732.5L942 758.5L941 759.5L940 771.5L930.5 785L918.5 792L914.5 792L907.5 795L893.5 795L892.5 796L192.5 796L191.5 795L175.5 795L172.5 793L163.5 792L153.5 787L149 782.5L140 764.5L139 726.5L138 721.5L132.5 711L129 708.5Q129.8 705.9 126.5 707L112.5 703L92.5 702L83 697L78 684.5L78 661.5L81 646.5L85.5 640L97.5 636L111.5 636L112.5 635L123.5 634L134 626.5L139 614.5L139 421.5L134 407.5L128.5 402L112.5 397L95.5 397Q94.3 394.7 89.5 396L82 389.5L78 379.5L78 356.5L79 355.5L79 346.5L85.5 335L92.5 332L119.5 330L129 327L130.5 324L134 321.5L139 309.5L139 288.5L140 287.5L140 271.5L141 266.5L145 256.5L151 248L162.5 241L173.5 238ZM174 240L169 243L161 245Q158 244 159 247L153 251L146 261L142 277L142 308L139 319Q140 321 137 320L137 323L131 329L121 333L116 334L96 334L95 335Q88 334 89 337L87 338L84 341L82 351L82 379L84 388L96 394L121 395L131 399L139 409L142 422L142 613L139 624Q140 626 137 625L137 628L132 633L121 638L116 639L94 639L93 640L89 640Q90 643 88 642L84 646L82 656L82 684L84 693L94 699L99 700L120 700L133 706L140 716L142 727L142 757L145 766L145 770L151 780L154 781L155 784L166 789L176 791L908 791L918 789L927 784L934 776L939 761L940 721L944 712Q950 703 962 700L984 700L995 696Q999 693 1000 687L1000 653L997 645L991 639L966 639L961 638L951 633Q948 634 949 632L946 630L940 619L940 609L939 608L939 431L940 430L940 415L946 405L948 402L957 396L961 395L987 394L995 391L1000 382L1000 348L996 338L992 335Q987 336 986 334L966 334L952 329Q944 323 940 314L940 304L939 303L939 273L934 256L932 254L929 249L927 249L921 244Q912 244 907 240L174 240Z" fill="#000000" fillAlpha="0.6509804" stroke="#000000" strokeAlpha="0.6509804" stroke-width="1"/>
	<path d="M230.5 303L850.5 303L860.5 305L869 311.5L873 317.5L875 325.5L875 705.5L873 714Q870.3 712.9 871 715.5L869 720L865 721L863.5 724L850.5 728L229.5 728Q226.3 724.7 219.5 725L212 720L207 711.5L206 700.5L205 699.5L205 331.5L206 330.5L207 318.5L215.5 308L220.5 305L230.5 303ZM231 306L219 310L212 317L208 331L208 703L212 715Q217 723 229 725L853 725L860 723L864 720L870 712L873 701L873 336L872 335L872 326L868 316L863 310L860 310L856 307L851 306L231 306Z" fill="#000000" fillAlpha="0.6509804" stroke="#000000" strokeAlpha="0.6509804" stroke-width="1"/>
	<path d="M269.5 372L341.5 372L355 378.5Q354.3 380.8 356.5 380L363 389.5L364 400.5L365 401.5L365 414.5L366 415.5L366 514.5L363 529.5L355.5 538L342.5 544L309.5 544L299 550.5L296 558.5L296 568.5L295 569.5L295 579.5L294 580.5L294 651.5L292 658L289 659.5Q289.8 661.8 287.5 661L284.5 663L256.5 663L248 656.5L246 651.5L246 408.5L247 407.5L249 388.5L257.5 377L269.5 372ZM274 374L266 377L262 377L251 390L250 416L249 417L249 647L251 656L260 660L282 660L289 656L291 653Q290 648 292 647L292 559L293 554L296 549Q300 542 309 541L337 541L349 538L354 535Q353 532 357 533L362 524L363 519L363 406L362 405L362 397L357 385L351 378L338 374L274 374Z" fill="#000000" fillAlpha="0.6509804" stroke="#000000" strokeAlpha="0.6509804" stroke-width="1"/>
	<path d="M396.5 372L423.5 372L431 377.5L435 393.5L435 600.5Q436.6 609.1 441 614L443.5 614L447.5 617L456.5 618Q464.7 616.2 469 610.5L472 604.5L472 416.5L473 415.5L473 392.5L474 391.5L474 382.5L481.5 373L483.5 372L510.5 372Q516.6 373.4 519 378.5L521 383.5L521 394.5L522 395.5L523 556.5L522 557.5L522 639.5Q520 652 511.5 658L499.5 663L408.5 663Q396.9 660.6 391 652.5Q391.5 648 388 647.5L386 636.5L385 420.5L386 419.5L386 398.5L387 397.5L388 380.5L394.5 373L396.5 372ZM400 374L393 377L390 383L389 388L389 405L388 406L389 640L394 652L400 656L413 660L496 660L509 656L515 650L519 640L519 575L520 574L519 387L516 379L509 374L486 374L481 377L477 384L476 399L475 400L475 603L473 611Q469 618 460 620Q446 622 440 616L435 611L432 601L432 402L431 401L431 390L429 379L422 374L400 374Z" fill="#000000" fillAlpha="0.6509804" stroke="#000000" strokeAlpha="0.6509804" stroke-width="1"/>
	<path d="M583.5 372L656.5 372L666.5 376L673 382.5L678 392.5L679 412.5L680 413.5L680 485.5L678 495.5L670 506.5L667 514.5L667 518.5L670 526.5L673 529.5L678 539.5Q676.8 544.3 679 545.5L679 555.5L680 556.5L680 637.5L678 647.5Q674.2 648.7 675 653L670 656.5Q670.8 659.1 667.5 658L661.5 662L656.5 663L583.5 663Q570.6 660.4 564 651.5L560 640.5L560 631.5L559 630.5L559 551.5L557 541.5L544 525.5Q541.2 516.8 543 503.5L544 502.5L545 491.5L550 484Q552.7 485.1 552 482.5Q557.3 478.8 559 471.5L559 421.5L560 420.5L560 406.5L561 405.5L562 392.5L565 384.5L571.5 377L583.5 372ZM587 374Q583 378 576 377Q569 382 565 391L564 416L563 417L563 469L559 480L555 485L553 486L547 494L546 498L546 522L547 525L558 536L561 543L562 563L563 564L563 632L566 649L574 656L589 660L653 660Q655 657 662 658L665 656Q668 657 667 655L670 653L672 651L677 640L677 550L673 536L667 528Q668 524 665 525L663 519L664 510L672 500L677 488L677 404Q675 402 676 397L671 385Q672 382 670 383L667 380L653 374L587 374Z" fill="#000000" fillAlpha="0.6509804" stroke="#000000" strokeAlpha="0.6509804" stroke-width="1"/>
	<path d="M723.5 372L813.5 372Q824.4 374.6 830 382.5L835 398.5L836 434.5L834 441.5L828.5 447L820.5 449L803.5 449Q801.8 446.2 795.5 448L789 444L786 435.5L786 430.5L779.5 419L774.5 416L761.5 416L753 421L750 429.5L749 507.5L750 508.5L750 558.5L749 559.5L749 600.5Q751.2 601.7 750 606.5L755.5 614Q761.1 618.4 771.5 618L782 612.5L787 600.5L787 562.5L786 561.5L786 550.5L783 541.5L773 528.5L772 509.5L773 508.5L774 497.5L779.5 492L787.5 490L811.5 490Q812.8 492.3 817.5 491L827 497.5L831 502.5L835 517.5L835 532.5L836 533.5L836 638.5L831 652.5L825.5 658L813.5 663L722.5 663L710.5 658L706 653.5L702 647.5L700 637.5L700 411.5L701 410.5L701 399.5L703 389.5L708 380Q710.7 381.1 710 378.5L723.5 372ZM727 374L715 378L708 386Q707 392 704 396Q706 401 703 403L703 641L707 650L714 656L727 660L810 660L824 656L831 646Q830 639 833 636L833 534L832 533L831 513Q829 511 830 507L828 504Q829 501 826 502L824 497L810 492L789 492L782 494L775 502L775 526L787 542L789 550L789 606L785 614L775 620L761 620L755 616L752 614L745 601L745 566L746 565L745 563L746 559L746 506L745 505L745 453L746 452L746 435L750 419L761 413L776 413L781 415L788 425L789 437L791 440L797 444L805 446L820 446L829 443L831 441Q830 435 833 433L833 415L832 414L831 394L829 386L824 379L810 374L727 374Z" fill="#000000" fillAlpha="0.6509804" stroke="#000000" strokeAlpha="0.6509804" stroke-width="1"/>
	<path d="M303.5 415L309.5 415L313 417L313 419Q315.7 417.9 315 420.5L318 424.5Q317.4 430.6 320 433.5L320 481.5L317 490.5L313.5 494L303.5 497L296 491.5L292 482.5L292 430.5L295 421.5L299.5 417L303.5 415ZM305 419L299 421L296 431L296 484L299 491L305 493Q311 494 313 490L316 484L316 432L315 427L312 421L309 419L305 419Z" fill="#000000" fillAlpha="0.6509804" stroke="#000000" strokeAlpha="0.6509804" stroke-width="1"/>
	<path d="M618.5 415Q626.9 415.1 630 420.5L633 426.5Q631.3 432.8 634 434.5L634 467.5Q632.6 476.1 627.5 481Q624.5 484 617.5 483L611 478.5L607 471.5L606 444.5L607 443.5L607 428.5Q609.2 421.2 614.5 417L618.5 415ZM619 419L616 421L613 424L611 430L611 443L610 444L610 463L611 464L612 475L619 480Q625 480 628 476L630 472L630 428L627 423Q625 419 619 419Z" fill="#000000" fillAlpha="0.6509804" stroke="#000000" strokeAlpha="0.6509804" stroke-width="1"/>
	<path d="M617.5 532Q626.5 531.5 630 536.5L634 549.5L634 598.5L632 607.5L626.5 614L618.5 616L611 611.5L607 603.5L607 595.5L606 594.5L606 563.5L607 562.5L607 544.5Q609.1 537.1 614.5 533L617.5 532ZM619 536L615 538L611 546L611 562L610 563L610 597Q613 598 611 604L614 610L619 612L625 611L630 605L630 545L629 542Q627 536 619 536Z" fill="#000000" fillAlpha="0.6509804" stroke="#000000" strokeAlpha="0.6509804" stroke-width="1"/>
	<path d="M173.5 240L906.5 240Q911.9 243.6 920.5 244L926.5 249L929 249L931.5 254L934 255.5L939 272.5L939 302.5L940 303.5L940 313.5Q943.8 323.2 951.5 329L965.5 334L985.5 334Q986.8 336.3 991.5 335L996 338L1000 347.5L1000 381.5L994.5 391L986.5 394L960.5 395L956.5 396L948 401.5L946 404.5L940 414.5L940 429.5L939 430.5L939 607.5L940 608.5L940 618.5L946 630L949 631.5Q948.3 633.8 950.5 633L960.5 638L965.5 639L990.5 639L997 644.5L1000 652.5L1000 686.5Q999.1 693.1 994.5 696L983.5 700L961.5 700Q950 703 944 711.5L940 720.5L939 760.5L934 775.5L926.5 784L917.5 789L907.5 791L175.5 791L165.5 789L155 783.5L153.5 781L151 779.5L145 769.5L145 765.5L142 756.5L142 726.5L140 715.5L132.5 706L119.5 700L98.5 700L93.5 699L84 692.5L82 683.5L82 655.5L84 645.5L87.5 642Q90.1 642.7 89 640L92.5 640L93.5 639L115.5 639L120.5 638L131.5 633L137 627.5L137 625Q139.7 626.1 139 623.5L142 612.5L142 421.5L139 408.5L130.5 399L120.5 395L95.5 394L84 387.5L82 378.5L82 350.5L84 340.5L86.5 338L89 336.5Q88.4 333.8 94.5 335L95.5 334L115.5 334L120.5 333L130.5 329L137 322.5L137 320Q139.7 321.1 139 318.5L142 307.5L142 276.5L146 260.5L152.5 251L159 246.5Q158.3 244.3 160.5 245L168.5 243L173.5 240ZM178 244L177 245L163 245L161 249L159 250Q155 249 156 253L153 254L150 261Q151 263 149 262L147 264L147 274L146 275L146 308L142 314L142 321L139 325Q136 324 137 328L132 331Q127 329 128 333L126 335L111 335L110 336L94 336L93 338Q90 342 85 341L85 385L88 385L89 389L105 390L113 393Q123 392 130 394L132 398L136 399L137 403L141 404Q143 407 142 415L145 418L146 422L146 613L142 619Q143 627 140 630Q136 629 137 633Q135 636 130 636L128 639L126 640L94 641L92 644L87 645L85 647L85 689L88 690L89 694Q96 694 100 698L124 698L130 700Q132 699 131 703L136 704L137 708L141 709Q143 712 142 720L146 726L146 759L147 760L147 770L150 770L153 776Q155 775 154 778L159 781L160 784L168 785L170 789L911 789L918 784L924 784L924 782L928 779L929 779L929 775L931 775L934 770Q933 759 936 753L936 740L938 734L938 717L940 712L943 710L944 706L948 703Q952 704 951 702L954 699L958 698L983 698L989 694L995 694L996 693L996 645L993 644Q990 645 991 641L957 640L956 639Q953 640 954 638L948 635L943 631Q945 625 941 626L938 622L938 606L937 605L937 430L938 429L938 412L940 407Q939 404 942 405L944 401L948 399L949 397L957 393L969 393L972 391L994 389L996 387L996 342L993 340L990 336L956 335L954 333Q953 330 950 331L943 326Q945 320 941 321L938 317L937 287L934 274L934 261L930 258L928 253Q925 254 926 252Q925 248 922 249L920 245L906 245L905 244L178 244Z" fill="#000000" fillAlpha="0.9294118" stroke="#000000" strokeAlpha="0.9294118" stroke-width="1"/>
	<path d="M228.5 299L852.5 299L856.5 303Q863.3 302.1 866 304Q864.5 307.7 867.5 307L871 309.5Q869.9 312.8 872.5 312L875 313L876 324Q878.7 322.9 878 325.5L880 334.5L880 694.5Q877.3 696.3 879 702.5L876 706.5L875 716.5L867.5 725L860 726L857.5 730L854.5 731L225.5 731L220 727.5Q220.9 724.1 215.5 726L209 720.5Q210.5 716.1 207.5 717L205 714.5L204 703.5L201 697.5L201 331.5L204 325.5L205 314.5L206.5 313Q210.3 314.3 209 310.5L210 308Q213.8 308.8 215 305.5L216.5 303L224.5 303L225 301.5L228.5 299ZM231 303L221 305L216 308L207 319L206 331L205 332L205 700L206 701L207 712L212 720L220 725Q226 725 230 728L851 728L864 724L865 721L869 720L871 716Q870 713 873 714L875 706L875 326L873 318L869 312L861 305L851 303L231 303Z" fill="#000000" fillAlpha="0.9294118" stroke="#000000" strokeAlpha="0.9294118" stroke-width="1"/>
	<path d="M273.5 374L337.5 374L350.5 378L357 384.5L362 396.5L362 404.5L363 405.5L363 518.5L362 523.5L357 533Q353.3 531.5 354 534.5L348.5 538L336.5 541L308.5 541Q300 542.5 296 548.5L293 553.5L292 558.5L292 646.5Q289.8 647.7 291 652.5L288.5 656L281.5 660L259.5 660L251 656L249 646.5L249 416.5L250 415.5L251 389.5L261.5 377L265.5 377L273.5 374ZM266 378L265 379Q260 377 261 382L258 383Q255 384 256 390L252 392L252 406L251 407L251 650L252 652L257 656L285 656L287 652Q286 649 289 650L290 648L290 553L291 549L295 547Q297 546 296 542Q298 540 304 541L305 538L308 537L340 537Q341 534 348 536L349 533L353 532L354 530L357 528L357 523L360 513L360 416L359 415L358 399L357 398L357 389L356 388Q352 387 353 383L350 382L348 379L346 378L266 378Z" fill="#000000" fillAlpha="0.9294118" stroke="#000000" strokeAlpha="0.9294118" stroke-width="1"/>
	<path d="M399.5 374L421.5 374L429 378.5L431 389.5L431 400.5L432 401.5L432 600.5L435 610.5L439.5 616Q445.5 622 459.5 620Q468.5 617.5 473 610.5L475 602.5L475 399.5L476 398.5L477 383.5L480.5 377L485.5 374L508.5 374L516 378.5L519 386.5L520 573.5L519 574.5L519 639.5L515 649.5L508.5 656L495.5 660L412.5 660L399.5 656L394 652L389 639.5L388 405.5L389 404.5L389 387.5L390 382.5L393 377L399.5 374ZM396 378L394 380L392 399L390 401L390 564L391 565L391 630L393 635L395 648L405 656L505 656L506 652L511 650Q510 645 514 647L515 642L515 628L516 627L516 553L517 552L516 412L515 411L515 385L514 384Q515 378 514 378L480 378L480 407L479 408L479 603L475 608Q477 613 474 615Q475 617 472 616L470 619L467 621Q461 620 460 622L441 621L438 618L436 616L429 605L429 386L428 382L424 378L396 378Z" fill="#000000" fillAlpha="0.9294118" stroke="#000000" strokeAlpha="0.9294118" stroke-width="1"/>
	<path d="M586.5 374L652.5 374L667 379.5L669.5 383Q671.8 382.3 671 384.5L676 396.5Q674.5 402 677 403.5L677 487.5L672 499.5L664 509.5L663 518.5L665 525Q668 523.8 667 527.5L673 535.5L677 549.5L677 639.5L672 650.5L669.5 653L667 654.5Q667.8 657.1 664.5 656L661.5 658Q655.2 657.2 652.5 660L588.5 660L573.5 656L566 648.5L563 631.5L563 563.5L562 562.5L561 542.5L558 535.5L547 524.5L546 521.5L546 497.5L547 493.5L552.5 486L555 484.5L559 479.5L563 468.5L563 416.5L564 415.5L565 390.5Q568.6 382.1 575.5 377Q583 377.5 586.5 374ZM579 378L578 379Q574 378 575 382L571 383L570 390L566 392L566 474L563 478L561 478L561 483L556 487L556 488L552 488L551 496L547 498L547 519L549 519L552 526Q551 528 555 527L556 531L560 532Q562 533 561 538L566 546L566 643L568 643L571 650Q570 652 574 651L575 655L578 656L662 656L663 654L666 652L672 646Q671 638 674 634L674 561L672 552L672 536L667 534Q669 528 664 530L662 523L658 518L662 513Q661 506 663 504L666 503Q668 504 667 500L671 498Q673 494 672 486L674 481L674 418L672 407L672 390L669 387L666 382Q662 383 663 381L661 378L579 378Z" fill="#000000" fillAlpha="0.9294118" stroke="#000000" strokeAlpha="0.9294118" stroke-width="1"/>
	<path d="M726.5 374L809.5 374L824 379L829 385.5L831 393.5L832 413.5L833 414.5L833 432.5Q830.3 434.8 831 440.5L828.5 443L819.5 446L804.5 446L796.5 444L791 439.5L789 436.5L788 424.5L780.5 415L775.5 413L760.5 413L750 419L746 434.5L746 451.5L745 452.5L745 504.5L746 505.5L746 558.5L745 562.5L746 564.5L745 565.5L745 600.5L751.5 614L754.5 616L760.5 620L774.5 620L785 613.5L789 605.5L789 549.5L787 541.5L775 525.5L775 501.5L781.5 494L788.5 492L809.5 492L824 497L826 502Q828.7 500.9 828 503.5L830 506.5Q828.8 511.3 831 512.5L832 532.5L833 533.5L833 635.5Q830.3 638.8 831 645.5L824 656L809.5 660L726.5 660L713.5 656L707 649.5L703 640.5L703 402.5Q705.5 401 704 395.5Q707.5 392 708 385.5L714.5 378L726.5 374ZM720 378L719 379Q716 378 717 381L715 382L713 385L709 387L709 397L706 411L704 414L704 526L705 527L705 551L704 552L704 635Q709 639 709 649L716 652L717 655L720 656L819 656L820 654L824 651L825 649L829 646L829 512L828 508L825 506L824 503L822 501L820 499L819 497L810 497L809 496L782 497L780 499L778 508L776 510L776 522L778 522L781 530L784 531L785 534Q783 538 788 537L790 542L790 550L792 553Q791 557 793 559L793 580L794 581L794 597Q792 598 793 603L790 606L789 615L786 616L784 619L782 621Q775 619 774 622L755 621L753 617L748 615Q750 610 746 611L743 607L743 428L744 425L748 422L748 418L750 414L758 412Q760 413 759 411L766 408L772 408L781 413L784 413L785 417L789 418Q791 423 790 431L793 434L795 440L796 441L828 441L829 439L829 393L828 392Q829 387 827 388L824 383L822 382Q818 383 820 379L818 378L720 378Z" fill="#000000" fillAlpha="0.9294118" stroke="#000000" strokeAlpha="0.9294118" stroke-width="1"/>
	<path d="M298.5 413L313.5 413L318 417.5Q316.1 422.9 319.5 422L323 427.5L323 485.5L321 491Q316.5 489.3 318 494.5L315.5 497L311.5 497L303.5 501Q302 496 296 497L293.5 492L291 490.5L290 487.5L290 424.5L291 420.5L293.5 418L296 416.5L298.5 413ZM304 415L300 417L295 422L292 431L292 483L296 492L304 497L314 494L317 491L320 482L320 434Q317 431 318 425L315 421Q316 418 313 419L313 417L310 415L304 415Z" fill="#000000" fillAlpha="0.9294118" stroke="#000000" strokeAlpha="0.9294118" stroke-width="1"/>
	<path d="M612.5 413L627.5 413L631 415.5L634.5 423Q636.8 422.3 636 424.5L637 425.5L637 472.5L634.5 477Q631.9 476.2 633 479.5L630.5 483Q626.8 482.3 626 484.5Q626.8 486.8 624.5 486Q622.8 488.8 616.5 487L614 483Q608.4 485.2 610 479.5L605 475.5L605 422.5L607.5 419L610 417.5L612.5 413ZM619 415L615 417Q609 421 607 429L607 444L606 445L607 472L611 479L618 483Q625 484 628 481Q633 476 634 468L634 435Q631 433 633 427L630 421Q627 415 619 415Z" fill="#000000" fillAlpha="0.9294118" stroke="#000000" strokeAlpha="0.9294118" stroke-width="1"/>
	<path d="M617.5 527L624.5 528L626 529.5Q625.3 531.8 627.5 531L632 533.5L633 538L636 539.5L637 542.5L637 605.5L630.5 616L622 617Q623.1 619.7 620.5 619L618.5 620L616 619Q617.3 616 613.5 617L610 614.5Q611.1 611.2 608.5 612L606 611L605 608.5L605 538.5L610 535.5Q609.5 531.5 612.5 531L617.5 527ZM618 532L615 533Q609 537 607 545L607 563L606 564L606 595L607 596L607 604L611 612L619 616L627 614L632 608L634 599L634 550L630 537Q627 531 618 532Z" fill="#000000" fillAlpha="0.9294118" stroke="#000000" strokeAlpha="0.9294118" stroke-width="1"/>
	<path d="M183.5 236L897.5 236L898.5 237L914.5 237L932 246Q930.9 248.7 933.5 248L940 257.5L942 264.5L942 270.5L946 285.5L946 305.5L947 306.5L947 316.5L948.5 318Q950.8 317.3 950 319.5L952.5 323Q955.3 327.2 961.5 328L986.5 329L996.5 333L1002 338.5L1004 344.5L1004 360.5L1006 365.5L1007 378.5L1004 382.5L1003 399.5Q1000.9 408.4 995.5 414L984.5 420L958.5 424L947 434.5L947 444.5L946 445.5L946 608.5L947 609.5L947 621.5L948.5 623Q950.8 622.3 950 624.5L952.5 628Q955.3 632.2 961.5 633L985.5 633L999 639.5L1004 649.5L1004 665.5L1006 670.5L1007 683.5L1004 687.5Q1005.3 697.8 1003 704.5L996 719L986.5 725L980.5 727L963.5 728L951 734L947 741.5L946 761.5L943 767.5L943 776.5L941 779.5L940 789.5L932 803L929 804.5L927 807.5L913.5 816L903.5 817L897.5 819L182.5 819Q178.5 816 170.5 817L159 810.5Q159.8 808.3 157.5 809L153 803L151 803Q152.1 800.3 149.5 801L145 795.5L140 783.5Q140.7 776.8 138 773.5L138 755.5L135 750.5L135 744.5L133 736.5L130.5 734L118.5 728L99.5 727Q95.5 722.6 89 722L89 720Q86.3 721.1 87 718.5L81 710.5L76 693.5L76 662.5L77 661.5L77 650.5L83 639L93.5 634Q98.3 635.3 99.5 633L119.5 633L126 631L127.5 628L131 625.5L134 621.5L134 612.5L136 602.5L136 451.5L135 450.5L135 441.5L133 431.5L127.5 426L115.5 422L104.5 422L94.5 419L83 409.5L81 406.5L76 388.5L76 357.5L77 356.5L78 341.5L85.5 333Q91.7 332.7 94.5 329L119.5 328L126 325.5Q125.3 323.3 127.5 324L134 316.5L134 308.5L138 285.5L139 265.5L145 252L148 250.5L151.5 246Q153.8 246.8 153 244.5L163.5 238Q171 235.5 182.5 237L183.5 236ZM174 238L163 241L151 248L145 257L141 267L140 272L140 288L139 289L139 310L134 322L131 324L129 327L120 330L93 332L86 335L79 347L79 356L78 357L78 380L82 390L90 396Q94 395 96 397L113 397L129 402L134 408L139 422L139 615L134 627L124 634L113 635L112 636L98 636L86 640L81 647L78 662L78 685L83 697L93 702L113 703L127 707Q130 706 129 709L133 711L138 722L139 727L140 765L149 783L154 787L164 792L173 793L176 795L192 795L193 796L893 796L894 795L908 795L915 792L919 792L931 785L940 772L941 760L942 759L942 733L945 718L947 714L956 706L973 703L989 702L997 699Q996 696 999 697L1003 687L1003 658L1002 657L1001 646L999 643L996 639L987 636L970 636L954 632L946 625L942 610L942 428Q945 426 943 420L947 409Q946 406 949 407L952 402L970 397L987 397L995 395L1001 389L1003 382L1003 353Q1000 351 1002 345L997 335L990 332L969 331L958 329L954 327L946 320L943 311Q944 306 942 305L942 281L941 280L940 264L934 253L932 250L924 243L908 238L174 238Z" fill="#000000" fillAlpha="0.2705882" stroke="#000000" strokeAlpha="0.2705882" stroke-width="1"/>
	<path d="M230.5 306L850.5 306L855.5 307L859.5 310L862.5 310L868 315.5L872 325.5L872 334.5L873 335.5L873 700.5L870 711.5L863.5 720L859.5 723L852.5 725L228.5 725Q216.9 723.1 212 714.5L208 702.5L208 330.5L212 316.5L218.5 310L230.5 306ZM236 330Q234 333 228 331L220 335L214 341L212 350L212 702L213 703L213 712L217 717L222 719L223 722L227 723L854 723L855 722Q858 723 857 720L864 717L867 713L868 700L869 699L869 355L868 354L867 342L860 334L853 331Q846 333 845 330L236 330Z" fill="#000000" fillAlpha="0.2705882" stroke="#000000" strokeAlpha="0.2705882" stroke-width="1"/>
	<path d="M273.5 370L337.5 370L338.5 371L347.5 371L357 377.5Q356.3 379.8 358.5 379L361 385L364 386.5L366 400.5L368 402.5L371 416.5L371 425Q376.7 426 379 422.5L381 419.5L382 402.5L388 375L391 373.5Q390.3 371.3 392.5 372L399.5 370L421.5 370Q422.7 372.3 427.5 371L432 375.5L436 383.5L437 410.5L438 411.5L438 601.5L444.5 613Q450.4 615.6 460.5 614L466 609.5L469 595.5L469 407.5L471 404.5L473 378.5L478 372L485.5 370L509.5 370L514.5 371L521 377.5L523 387.5L523 398.5L525 402.5L525 410.5L526 411.5L526 492.5L527 493.5L527 510.5L528 511.5L528 519.5L532.5 525L538 525L538 512.5L539 511.5L540 500.5L543 495.5L543 491.5L545 486L549 483.5L550 480L553 478.5L553 475.5L557 469.5L557 415.5L558 414.5L558 398.5L563 384.5L568 377Q574 376 577.5 371L586.5 371L587.5 370L652.5 370L663.5 372L675 381.5L675 383.5L679 388.5L680 400.5L685 418.5L685 430L695 430L695 419.5L696 418.5L697 406.5L701 393.5L701 388.5L708.5 377L717.5 371L726.5 371L727.5 370L809.5 370L810.5 371L818.5 371Q826.3 374.3 831 380.5Q831.8 386.7 836 389.5L837 394.5L838 440.5L836 445.5L834 459.5L825.5 469L815.5 472L804.5 472L795.5 468L792 464.5L790 461.5Q785.6 451.4 777.5 445L771.5 441L766.5 441L756 446L754.5 449Q752.3 448.3 753 450.5L752 451.5L752 529.5L753 530.5L753 546.5L752 547.5L752 603.5L757.5 613Q764.2 615.3 774.5 614L778 613L781 608.5L783 597.5L782 596.5L781 560.5L772 545.5L769 538.5L769 533.5L770 530.5L768 527.5L768 513.5L773 495.5L776.5 491L782.5 489L792.5 489L793.5 488L810.5 488L820.5 490L828 495.5L832 500.5L837 513.5L837 536.5L838 537.5L838 646.5L837 647.5L836 659.5Q832.2 670.7 826 678L810.5 686L801.5 686L800.5 687L736.5 687L735.5 686L725.5 686L720.5 684L706 672.5L698.5 661Q696.3 661.8 697 659.5L694.5 657L685.5 657L668.5 678L653.5 686L643.5 686L642.5 687L594.5 687L579.5 684L569 675.5L564 669.5L561 662.5L560 653.5L557 645.5L557 565.5Q552.1 551.4 541.5 543L533.5 542L530 544.5L528 547.5Q529.5 553 527 554.5L526 635.5L523 640.5L523 653.5L520 665.5Q515.7 675.2 507.5 681L496.5 686L486.5 686L485.5 687L422.5 687L421.5 686Q413.2 687.3 408.5 685L396 676.5Q396.8 674.3 394.5 675L388 665.5L385 653.5L385 645.5L382 639.5L382 566.5L381 565.5L381 551.5L376.5 544L370.5 543L351.5 561L345.5 564L337.5 567L313.5 568Q305.5 570.5 301 576.5L299 580.5L299 651.5L295 659.5L295 666.5L293 673.5L285.5 682L277.5 686Q272 684.5 270.5 687Q268.8 684.3 262.5 686L250 677.5L246 668.5L246 661.5L243 657.5L243 408.5L244 407.5L244 399.5L248 389.5L248 385.5L254 377L264.5 371L272.5 371L273.5 370ZM270 372L258 377L249 389L247 408L246 409L246 652L248 657L257 663L285 663L288 661Q290 662 289 660L292 658L294 652L294 581L295 580L295 570L296 569L296 559L299 551L310 544L343 544L356 538L363 530L366 515L366 416L365 415L365 402L364 401L363 390L357 380Q354 381 355 379L342 372L270 372ZM397 372L395 373L388 381L387 398L386 399L386 420L385 421L386 637L388 648Q392 648 391 653Q397 661 409 663L500 663L512 658Q520 652 522 640L522 558L523 557L522 396L521 395L521 384L519 379Q517 373 511 372L484 372L482 373L474 383L474 392L473 393L473 416L472 417L472 605L469 611Q465 616 457 618L448 617L444 614L441 614Q437 609 435 601L435 394L431 378L424 372L397 372ZM584 372L572 377L565 385L562 393L561 406L560 407L560 421L559 422L559 472Q557 479 552 483Q553 485 550 484L545 492L544 503L543 504Q541 517 544 526L557 542L559 552L559 631L560 632L560 641L564 652Q571 660 584 663L657 663L662 662L668 658Q671 659 670 657L675 653Q674 649 678 648L680 638L680 557L679 556L679 546Q677 544 678 540L673 530L670 527L667 519L667 515L670 507L678 496L680 486L680 414L679 413L678 393L673 383L667 376L657 372L584 372ZM724 372L710 379Q711 381 708 380L703 390L701 400L701 411L700 412L700 638L702 648L706 654L711 658L723 663L814 663L826 658L831 653L836 639L836 534L835 533L835 518L831 503L827 498L818 491Q813 492 812 490L788 490L780 492L774 498L773 509L772 510L773 529L783 542L786 551L786 562L787 563L787 601L782 613L772 618Q761 618 756 614L750 607Q751 602 749 601L749 560L750 559L750 509L749 508L750 430L753 421L762 416L775 416L780 419L786 431L786 436L789 444L796 448Q802 446 804 449L821 449L829 447L834 442L836 435L835 399L830 383Q824 375 814 372L724 372ZM686 509L681 513L674 522L676 529Q674 533 678 532L680 537L680 544L683 552L685 563L685 572L692 572L695 568L695 555L696 554L695 518L690 513L688 510L686 509Z" fill="#000000" fillAlpha="0.2705882" stroke="#000000" strokeAlpha="0.2705882" stroke-width="1"/>
	<path d="M304.5 419L308.5 419L312 421L315 426.5L316 431.5L316 483.5L312.5 490Q310.6 493.6 304.5 493L299 491L296 483.5L296 430.5L299 421L304.5 419Z" fill="#000000" fillAlpha="0.2705882" stroke="#000000" strokeAlpha="0.2705882" stroke-width="1"/>
	<path d="M618.5 419Q624.9 418.6 627 422.5L630 427.5L630 471.5L627.5 476Q624.7 479.7 618.5 480L612 474.5L611 463.5L610 462.5L610 443.5L611 442.5L611 429.5L613 423.5L615.5 421L618.5 419Z" fill="#000000" fillAlpha="0.2705882" stroke="#000000" strokeAlpha="0.2705882" stroke-width="1"/>
	<path d="M618.5 536Q626.6 535.9 629 541.5L630 544.5L630 604.5L624.5 611L618.5 612L614 610L611 603.5Q612.5 598 610 596.5L610 562.5L611 561.5L611 545.5L614.5 538L618.5 536Z" fill="#000000" fillAlpha="0.2705882" stroke="#000000" strokeAlpha="0.2705882" stroke-width="1"/>
	<path d="M181.5 235L899 235.5L181.5 236L181.5 235Z" fill="#000000" fillAlpha="0.1215686" stroke="#000000" strokeAlpha="0.1215686" stroke-width="1"/>
	<path d="M171.5 236L174 236.5L171.5 237L171.5 236Z" fill="#000000" fillAlpha="0.1215686" stroke="#000000" strokeAlpha="0.1215686" stroke-width="1"/>
	<path d="M908.5 236L912 236.5L908.5 237L908.5 236Z" fill="#000000" fillAlpha="0.1215686" stroke="#000000" strokeAlpha="0.1215686" stroke-width="1"/>
	<path d="M161.5 237L163 237.5L158.5 241L159 239.5Q158.3 237.3 160.5 238L161.5 237Z" fill="#000000" fillAlpha="0.1215686" stroke="#000000" strokeAlpha="0.1215686" stroke-width="1"/>
	<path d="M918.5 237Q923.5 236.5 924 240.5L920.5 238Q917.5 238.5 918.5 237Z" fill="#000000" fillAlpha="0.1215686" stroke="#000000" strokeAlpha="0.1215686" stroke-width="1"/>
	<path d="M928.5 242L931 243L933 246.5L928.5 242Z" fill="#000000" fillAlpha="0.1215686" stroke="#000000" strokeAlpha="0.1215686" stroke-width="1"/>
	<path d="M152.5 243L152 244.5L151.5 246L151 244.5L152.5 243Z" fill="#000000" fillAlpha="0.1215686" stroke="#000000" strokeAlpha="0.1215686" stroke-width="1"/>
	<path d="M934.5 247L935.5 249L934.5 247Z" fill="#000000" fillAlpha="0.1215686" stroke="#000000" strokeAlpha="0.1215686" stroke-width="1"/>
	<path d="M147.5 249L146.5 251L147.5 249Z" fill="#000000" fillAlpha="0.1215686" stroke="#000000" strokeAlpha="0.1215686" stroke-width="1"/>
	<path d="M937.5 252L939.5 255L937.5 252Z" fill="#000000" fillAlpha="0.1215686" stroke="#000000" strokeAlpha="0.1215686" stroke-width="1"/>
	<path d="M142.5 256L141 258.5L139.5 262L139 260.5L142.5 256Z" fill="#000000" fillAlpha="0.1215686" stroke="#000000" strokeAlpha="0.1215686" stroke-width="1"/>
	<path d="M138.5 263L139 265.5L138 265.5L138.5 263Z" fill="#000000" fillAlpha="0.1215686" stroke="#000000" strokeAlpha="0.1215686" stroke-width="1"/>
	<path d="M942.5 265L946 270.5L947 279.5L951 287.5Q950.3 294.2 953 297.5L953 313.5L954 314.5L954 322L959 324L960 326.5L958 327L955.5 323L952 322L949 312.5L949 299.5L948 298.5L946 275.5L942.5 265Z" fill="#000000" fillAlpha="0.1215686" stroke="#000000" strokeAlpha="0.1215686" stroke-width="1"/>
	<path d="M136.5 275Q139.1 274.2 138 277.5L134 285.5L133 300.5L132 301.5L132 316.5L128.5 322L128 310.5L129 309.5L130 290.5L134 278.5L136.5 275Z" fill="#000000" fillAlpha="0.1215686" stroke="#000000" strokeAlpha="0.1215686" stroke-width="1"/>
	<path d="M125.5 322L127 322.5L123.5 327L123 324.5L125.5 322Z" fill="#000000" fillAlpha="0.1215686" stroke="#000000" strokeAlpha="0.1215686" stroke-width="1"/>
	<path d="M98.5 327L115 327.5L98.5 328L98.5 327Z" fill="#000000" fillAlpha="0.1215686" stroke="#000000" strokeAlpha="0.1215686" stroke-width="1"/>
	<path d="M966.5 327L982 327.5L966.5 328L966.5 327Z" fill="#000000" fillAlpha="0.1215686" stroke="#000000" strokeAlpha="0.1215686" stroke-width="1"/>
	<path d="M92.5 328L94 328.5L87.5 332L87.5 331L92.5 328Z" fill="#000000" fillAlpha="0.1215686" stroke="#000000" strokeAlpha="0.1215686" stroke-width="1"/>
	<path d="M987.5 328L990 328.5L987.5 329L987.5 328Z" fill="#000000" fillAlpha="0.1215686" stroke="#000000" strokeAlpha="0.1215686" stroke-width="1"/>
	<path d="M991.5 329L993.5 332L991.5 329Z" fill="#000000" fillAlpha="0.1215686" stroke="#000000" strokeAlpha="0.1215686" stroke-width="1"/>
	<path d="M999.5 334L1002.5 338L999.5 334Z" fill="#000000" fillAlpha="0.1215686" stroke="#000000" strokeAlpha="0.1215686" stroke-width="1"/>
	<path d="M235.5 337L845.5 337L859 343L865 356.5L865 713Q862.3 711.9 863 714.5L860.5 718L855 720Q856.1 722.7 853.5 722L856.5 718L861 717L861 676.5L859 670Q855.2 669.3 854 672.5L852.5 675L849 666.5Q850.7 660.3 848 658.5L848 544.5L849 543.5L849 534.5L852.5 525L856.5 531L859 530L861 522.5L861 472.5L857.5 465L855 466.5L852.5 470L851 468.5L848 455.5L848 425.5L849 424.5L850 411.5L852.5 406L856.5 412L859 409.5L861 403.5L861 357.5L859 350.5L856 346L847.5 341L235.5 341Q227 342.5 223 348.5L220 354.5Q221.2 359.3 219 360.5L219 398.5L220 399.5L220 412.5L223 416.5L223 679.5L221 682.5L219 692.5L218.5 717L215 711.5L215 359.5Q217.3 358.3 216 353.5L220 345.5L224.5 341L235.5 337ZM853 423L851 432L852 459L853 459L853 423ZM853 542L851 551L851 655L852 659L853 659L853 542Z" fill="#000000" fillAlpha="0.1215686" stroke="#000000" strokeAlpha="0.1215686" stroke-width="1"/>
	<path d="M78 338L80 338.5L77.5 342L77 340.5L78 338Z" fill="#000000" fillAlpha="0.1215686" stroke="#000000" strokeAlpha="0.1215686" stroke-width="1"/>
	<path d="M76.5 343L77 346.5L76 346.5L76.5 343Z" fill="#000000" fillAlpha="0.1215686" stroke="#000000" strokeAlpha="0.1215686" stroke-width="1"/>
	<path d="M1004.5 348L1007 349L1009 361.5L1013 368.5Q1011.5 374 1014 375.5L1014 396.5L1010 412.5L1003.5 422L991.5 429L980.5 432L969.5 433L959 438L954 448.5L954 627L959 629.5L958.5 631L952 627L950 621.5L950 448.5L955 436.5L957.5 434L972.5 428L985.5 427L1001 419L1006 411.5L1010 399.5L1010 374.5L1007 361.5L1007 354.5L1004 349.5L1004.5 348Z" fill="#000000" fillAlpha="0.1215686" stroke="#000000" strokeAlpha="0.1215686" stroke-width="1"/>
	<path d="M75.5 357L76 364.5L72 375.5L72 400.5Q74.6 411.9 81.5 419L94.5 426L113.5 429L126 435L131 445.5L131 453.5L132 454.5L132 622Q129.3 620.9 130 623.5L128.5 627L128 452.5Q125.5 451 127 445.5L125 441.5L118.5 435L113.5 433L106.5 433L96.5 431L85.5 427L75 417.5L68 401.5L67 379.5L70 365.5L75.5 357Z" fill="#000000" fillAlpha="0.1215686" stroke="#000000" strokeAlpha="0.1215686" stroke-width="1"/>
	<path d="M275.5 369L336 369.5L275.5 370L275.5 369Z" fill="#000000" fillAlpha="0.1215686" stroke="#000000" strokeAlpha="0.1215686" stroke-width="1"/>
	<path d="M401.5 369L420 369.5L401.5 370L401.5 369Z" fill="#000000" fillAlpha="0.1215686" stroke="#000000" strokeAlpha="0.1215686" stroke-width="1"/>
	<path d="M487.5 369L507 369.5L487.5 370L487.5 369Z" fill="#000000" fillAlpha="0.1215686" stroke="#000000" strokeAlpha="0.1215686" stroke-width="1"/>
	<path d="M589.5 369L650 369.5L589.5 370L589.5 369Z" fill="#000000" fillAlpha="0.1215686" stroke="#000000" strokeAlpha="0.1215686" stroke-width="1"/>
	<path d="M730.5 369L807 369.5L730.5 370L730.5 369Z" fill="#000000" fillAlpha="0.1215686" stroke="#000000" strokeAlpha="0.1215686" stroke-width="1"/>
	<path d="M263.5 370L266 370.5L263.5 371L263.5 370Z" fill="#000000" fillAlpha="0.1215686" stroke="#000000" strokeAlpha="0.1215686" stroke-width="1"/>
	<path d="M344.5 370L348 370.5L344.5 371L344.5 370Z" fill="#000000" fillAlpha="0.1215686" stroke="#000000" strokeAlpha="0.1215686" stroke-width="1"/>
	<path d="M577.5 370L580 370.5L577.5 371L577.5 370Z" fill="#000000" fillAlpha="0.1215686" stroke="#000000" strokeAlpha="0.1215686" stroke-width="1"/>
	<path d="M659.5 370L662 370.5L659.5 371L659.5 370Z" fill="#000000" fillAlpha="0.1215686" stroke="#000000" strokeAlpha="0.1215686" stroke-width="1"/>
	<path d="M717.5 370L720 370.5L717.5 371L717.5 370Z" fill="#000000" fillAlpha="0.1215686" stroke="#000000" strokeAlpha="0.1215686" stroke-width="1"/>
	<path d="M816.5 370L820 370.5L816.5 371L816.5 370Z" fill="#000000" fillAlpha="0.1215686" stroke="#000000" strokeAlpha="0.1215686" stroke-width="1"/>
	<path d="M260.5 371L262 371.5L260 372L259.5 374L259 372.5L260.5 371Z" fill="#000000" fillAlpha="0.1215686" stroke="#000000" strokeAlpha="0.1215686" stroke-width="1"/>
	<path d="M350.5 371L352.5 374L350.5 371Z" fill="#000000" fillAlpha="0.1215686" stroke="#000000" strokeAlpha="0.1215686" stroke-width="1"/>
	<path d="M390.5 371L388 374.5L386.5 378L386 376.5L390.5 371Z" fill="#000000" fillAlpha="0.1215686" stroke="#000000" strokeAlpha="0.1215686" stroke-width="1"/>
	<path d="M516.5 371L517.5 373L516.5 371Z" fill="#000000" fillAlpha="0.1215686" stroke="#000000" strokeAlpha="0.1215686" stroke-width="1"/>
	<path d="M574.5 371L573.5 373L574.5 371Z" fill="#000000" fillAlpha="0.1215686" stroke="#000000" strokeAlpha="0.1215686" stroke-width="1"/>
	<path d="M664.5 371L666.5 374L664.5 371Z" fill="#000000" fillAlpha="0.1215686" stroke="#000000" strokeAlpha="0.1215686" stroke-width="1"/>
	<path d="M714.5 371L712.5 374L714.5 371Z" fill="#000000" fillAlpha="0.1215686" stroke="#000000" strokeAlpha="0.1215686" stroke-width="1"/>
	<path d="M430.5 372L431.5 374L430.5 372Z" fill="#000000" fillAlpha="0.1215686" stroke="#000000" strokeAlpha="0.1215686" stroke-width="1"/>
	<path d="M476.5 373L473 377.5L472.5 379L472 377.5L476.5 373Z" fill="#000000" fillAlpha="0.1215686" stroke="#000000" strokeAlpha="0.1215686" stroke-width="1"/>
	<path d="M519.5 374L521.5 377L519.5 374Z" fill="#000000" fillAlpha="0.1215686" stroke="#000000" strokeAlpha="0.1215686" stroke-width="1"/>
	<path d="M668.5 374L674 377L675 379.5L669.5 375L668.5 374Z" fill="#000000" fillAlpha="0.1215686" stroke="#000000" strokeAlpha="0.1215686" stroke-width="1"/>
	<path d="M710.5 374L709.5 376L710.5 374Z" fill="#000000" fillAlpha="0.1215686" stroke="#000000" strokeAlpha="0.1215686" stroke-width="1"/>
	<path d="M826.5 374L831 377.5L829.5 377L826.5 374Z" fill="#000000" fillAlpha="0.1215686" stroke="#000000" strokeAlpha="0.1215686" stroke-width="1"/>
	<path d="M356.5 375L359.5 379L356.5 375Z" fill="#000000" fillAlpha="0.1215686" stroke="#000000" strokeAlpha="0.1215686" stroke-width="1"/>
	<path d="M432.5 375L436 379.5L435 379.5L432.5 375Z" fill="#000000" fillAlpha="0.1215686" stroke="#000000" strokeAlpha="0.1215686" stroke-width="1"/>
	<path d="M707.5 376L706.5 378L707.5 376Z" fill="#000000" fillAlpha="0.1215686" stroke="#000000" strokeAlpha="0.1215686" stroke-width="1"/>
	<path d="M522.5 379L523 381.5L522 381.5L522.5 379Z" fill="#000000" fillAlpha="0.1215686" stroke="#000000" strokeAlpha="0.1215686" stroke-width="1"/>
	<path d="M250.5 380L248.5 383L250.5 380Z" fill="#000000" fillAlpha="0.1215686" stroke="#000000" strokeAlpha="0.1215686" stroke-width="1"/>
	<path d="M436.5 381L437 383.5L436 383.5L436.5 381Z" fill="#000000" fillAlpha="0.1215686" stroke="#000000" strokeAlpha="0.1215686" stroke-width="1"/>
	<path d="M704.5 381L702 384.5L701.5 386L701 384.5L704.5 381Z" fill="#000000" fillAlpha="0.1215686" stroke="#000000" strokeAlpha="0.1215686" stroke-width="1"/>
	<path d="M361.5 382L364.5 386L361 384L361.5 382Z" fill="#000000" fillAlpha="0.1215686" stroke="#000000" strokeAlpha="0.1215686" stroke-width="1"/>
	<path d="M676.5 383L678.5 386L676.5 383Z" fill="#000000" fillAlpha="0.1215686" stroke="#000000" strokeAlpha="0.1215686" stroke-width="1"/>
	<path d="M384.5 384L385 386.5L382 392.5L381 405Q377.8 407.9 371 407L366 396L370 398.5L371.5 401L375.5 401L381 399Q380 389.4 384.5 384Z" fill="#000000" fillAlpha="0.1215686" stroke="#000000" strokeAlpha="0.1215686" stroke-width="1"/>
	<path d="M833.5 384L836 385L837 388.5L836 388.5L833.5 384Z" fill="#000000" fillAlpha="0.1215686" stroke="#000000" strokeAlpha="0.1215686" stroke-width="1"/>
	<path d="M247.5 386L248 387.5L244.5 393L244 391.5L247.5 386Z" fill="#000000" fillAlpha="0.1215686" stroke="#000000" strokeAlpha="0.1215686" stroke-width="1"/>
	<path d="M471.5 386L472 389.5L471 389.5L471.5 386Z" fill="#000000" fillAlpha="0.1215686" stroke="#000000" strokeAlpha="0.1215686" stroke-width="1"/>
	<path d="M561.5 387L559 390.5L558.5 392L558 390.5L561.5 387Z" fill="#000000" fillAlpha="0.1215686" stroke="#000000" strokeAlpha="0.1215686" stroke-width="1"/>
	<path d="M700.5 387L701 389.5L700 389.5L700.5 387Z" fill="#000000" fillAlpha="0.1215686" stroke="#000000" strokeAlpha="0.1215686" stroke-width="1"/>
	<path d="M365.5 388L366 390.5L365 390.5L365.5 388Z" fill="#000000" fillAlpha="0.1215686" stroke="#000000" strokeAlpha="0.1215686" stroke-width="1"/>
	<path d="M523.5 388L527 393.5L528 401.5L533 413.5L533 487.5Q535.3 488.8 534 493.5L536 497Q539 498.3 538 494.5L541.5 490Q544.5 489.2 543 493Q540.3 491.9 541 494.5L539 496.5L538 506L532 502.5L530 498.5L530 430.5L529 429.5L529 415.5L527 407.5L527 400.5L523 391.5L523.5 388Z" fill="#000000" fillAlpha="0.1215686" stroke="#000000" strokeAlpha="0.1215686" stroke-width="1"/>
	<path d="M437.5 389L438 396.5L441 399.5L446 414.5L446 607.5L447 612L450 612.5L446 613L443 607.5L443 436.5L442 435.5L442 416.5Q439.8 415.3 441 410.5L438 405.5L437.5 389Z" fill="#000000" fillAlpha="0.1215686" stroke="#000000" strokeAlpha="0.1215686" stroke-width="1"/>
	<path d="M470.5 391L471 394.5L469 396.5L469 402.5L467 405.5Q468.5 411 466 412.5L466 608Q461.5 606.3 463 611.5Q462.3 613.8 458.5 613L458.5 612L461 611.5L461 421.5L463 414.5L463 408.5Q466.5 404 467 396.5L470.5 391Z" fill="#000000" fillAlpha="0.1215686" stroke="#000000" strokeAlpha="0.1215686" stroke-width="1"/>
	<path d="M243.5 394L244 397.5L243 397.5L243.5 394Z" fill="#000000" fillAlpha="0.1215686" stroke="#000000" strokeAlpha="0.1215686" stroke-width="1"/>
	<path d="M680.5 394L681 396.5L680 396.5L680.5 394Z" fill="#000000" fillAlpha="0.1215686" stroke="#000000" strokeAlpha="0.1215686" stroke-width="1"/>
	<path d="M699.5 394L700 395.5L696 402.5L695 411L690.5 412L685 411L685 407.5L681 398.5L684 400.5L685 405L693.5 405L695 403.5Q695.4 396.9 699.5 394Z" fill="#000000" fillAlpha="0.1215686" stroke="#000000" strokeAlpha="0.1215686" stroke-width="1"/>
	<path d="M557.5 395L558 401.5L557 401.5L557.5 395Z" fill="#000000" fillAlpha="0.1215686" stroke="#000000" strokeAlpha="0.1215686" stroke-width="1"/>
	<path d="M837.5 396L838 402.5L842 407.5L842 410.5L845 416.5L846 433.5L847 434.5L847 447.5L846 448.5L845 460.5L840 470.5L835.5 475L821.5 482L804.5 483L788.5 477L782 470.5L774.5 459L765.5 458L762 460L760 471.5L760 502.5L762 508L767 510L767 517L764.5 517L757 511.5L756 508.5L756 468.5L758 458.5L762.5 453Q765.7 450.7 772.5 452L781 459.5Q783.4 468.5 790.5 473L798.5 477L807.5 479L814.5 479Q817.4 476.4 823.5 477L836 468.5Q844.3 457.3 843 436.5L842 435.5L842 421.5L838 411.5L837.5 396Z" fill="#000000" fillAlpha="0.1215686" stroke="#000000" strokeAlpha="0.1215686" stroke-width="1"/>
	<path d="M556.5 404L557 413.5L555 416.5L553 427.5L552 479L548 481.5L547.5 484L547 480.5L548 479.5L548 441.5L549 440.5L549 427.5L552 413.5L556.5 404Z" fill="#000000" fillAlpha="0.1215686" stroke="#000000" strokeAlpha="0.1215686" stroke-width="1"/>
	<path d="M242.5 405L243 413.5L239 427.5L239 667.5L243 679.5L248.5 686L256.5 691L270.5 694L283.5 691L295 684L299 676.5L302 663.5L302 597.5L303 596.5L304 585.5L308.5 580L317.5 575L328.5 575L345.5 572L363.5 561L371.5 561L376 564L378 569.5L378 587.5L379 588.5L379 655.5Q381.5 657 380 662.5L385 674.5L393.5 684L402.5 690L422.5 694L485.5 694L502.5 691L513 686Q511.9 683.3 514.5 684L516 681L519 679.5L521 676.5L525 671.5L529 657.5L529 647.5L530 646.5L530 567.5L533 561L540.5 559L548 564.5L552 577.5L552 643.5L553 644.5L553 658.5Q556.3 675.2 567.5 684L579.5 691L594.5 694L642.5 694L643.5 693L657.5 692L664.5 689Q676 683 683.5 673Q686.7 670.7 693.5 672L700 675L706.5 683L719.5 691L728.5 693L736.5 693L737.5 694L800.5 694L801.5 693L813.5 692L820.5 689Q828.9 685.4 834 678.5L840 667.5L843 654.5L843 555.5L842 554.5L842 540.5L838 529.5L837 515.5L838 515.5L838 520.5L845 534.5L846 552.5L847 553.5L847 652.5L846 653.5L845 666.5Q841.4 668.4 842 674.5L830.5 688L818.5 695L810.5 697Q800.2 695.7 793.5 698Q792.2 695.8 787.5 697L784.5 698Q783.3 695.8 778.5 697L774.5 698Q773.2 695.8 768.5 697L764.5 698L759.5 697L755.5 698Q754.2 695.8 749.5 697L745.5 698L740.5 697L736.5 698L735.5 697L726.5 697L711.5 692L700 684L698.5 681Q696.3 681.8 697 679.5L695.5 678L689.5 677L684.5 678Q675.9 689.4 661.5 695L653.5 697Q640.2 695.2 631.5 698Q630.3 695.8 625.5 697L622.5 698Q621.3 695.8 616.5 697L612.5 698Q611.3 695.8 606.5 697L603.5 698L602.5 697L580.5 696L566.5 689L558 680.5L558 678.5L552 670.5L549 658.5L549 650.5L548 649.5L548 581.5L542.5 568Q537.3 566.8 536 569.5L535 571.5L535 586.5L534 587.5L534 602.5L533 603.5L533 658.5Q529.6 679.1 515.5 689L504.5 695Q498.8 694.3 496.5 697Q486.2 695.7 479.5 698Q478.3 695.8 473.5 697L469.5 698Q468.2 695.8 463.5 697L460.5 698Q459.3 695.8 454.5 697L450.5 698Q449.2 695.8 444.5 697L441.5 698Q440.3 695.8 435.5 697L431.5 698Q430.3 695.8 425.5 697L421.5 698L404.5 695L388 686L380 674.5L376 663.5L375 648.5L374 647.5L374 574.5L373 570.5L370.5 568L363.5 567L351.5 574L342.5 577L337.5 578L321.5 578L310 584.5L307 590.5Q308.5 596 306 597.5L306 664.5L303 677.5L296 689L289.5 693L277.5 697L262.5 697Q248.8 694.7 242 685.5L238 678.5L235 668.5L235 426.5L238 412.5L242.5 405Z" fill="#000000" fillAlpha="0.1215686" stroke="#000000" strokeAlpha="0.1215686" stroke-width="1"/>
	<path d="M544.5 484L546 484.5L543.5 488L543 485.5L544.5 484Z" fill="#000000" fillAlpha="0.1215686" stroke="#000000" strokeAlpha="0.1215686" stroke-width="1"/>
	<path d="M799.5 484L811.5 484L817 488.5L815.5 489L809.5 486L795.5 486Q792.5 489 785.5 488L786.5 486L792.5 486L799.5 484Z" fill="#000000" fillAlpha="0.1215686" stroke="#000000" strokeAlpha="0.1215686" stroke-width="1"/>
	<path d="M821.5 489Q825.5 488.5 826 491.5L823.5 490Q820.5 490.5 821.5 489Z" fill="#000000" fillAlpha="0.1215686" stroke="#000000" strokeAlpha="0.1215686" stroke-width="1"/>
	<path d="M775.5 490L777 490.5L773.5 493L775.5 490Z" fill="#000000" fillAlpha="0.1215686" stroke="#000000" strokeAlpha="0.1215686" stroke-width="1"/>
	<path d="M828.5 495L831 496.5L829.5 496L828.5 495Z" fill="#000000" fillAlpha="0.1215686" stroke="#000000" strokeAlpha="0.1215686" stroke-width="1"/>
	<path d="M771.5 498L772 499.5Q767.6 502.1 767.5 509L767 503.5L771.5 498Z" fill="#000000" fillAlpha="0.1215686" stroke="#000000" strokeAlpha="0.1215686" stroke-width="1"/>
	<path d="M833.5 502L835.5 505L833.5 502Z" fill="#000000" fillAlpha="0.1215686" stroke="#000000" strokeAlpha="0.1215686" stroke-width="1"/>
	<path d="M685.5 530L691 534.5L692 543.5L688.5 549L685 550Q685.3 543.9 681 541.5L681 532L685.5 530Z" fill="#000000" fillAlpha="0.1215686" stroke="#000000" strokeAlpha="0.1215686" stroke-width="1"/>
	<path d="M765.5 558L773 562.5L778 574.5L779 607.5L775.5 613L773 612.5L775 612L774 579.5L773 574.5L769.5 569L766.5 567L762 570.5L761 572.5L760 607.5L761 612L763 612.5L760.5 613L756 605.5L756 569.5Q756.9 562.9 761.5 560L765.5 558Z" fill="#000000" fillAlpha="0.1215686" stroke="#000000" strokeAlpha="0.1215686" stroke-width="1"/>
	<path d="M766.5 613L770 613.5L766.5 614L766.5 613Z" fill="#000000" fillAlpha="0.1215686" stroke="#000000" strokeAlpha="0.1215686" stroke-width="1"/>
	<path d="M125.5 627L127 627.5L125 628L122.5 632L121 631.5L123 631L125.5 627Z" fill="#000000" fillAlpha="0.1215686" stroke="#000000" strokeAlpha="0.1215686" stroke-width="1"/>
	<path d="M98.5 632L115 632.5L98.5 633L98.5 632Z" fill="#000000" fillAlpha="0.1215686" stroke="#000000" strokeAlpha="0.1215686" stroke-width="1"/>
	<path d="M966.5 632L986 632.5L966.5 633L966.5 632Z" fill="#000000" fillAlpha="0.1215686" stroke="#000000" strokeAlpha="0.1215686" stroke-width="1"/>
	<path d="M90.5 633L93 633.5L88.5 636L90.5 633Z" fill="#000000" fillAlpha="0.1215686" stroke="#000000" strokeAlpha="0.1215686" stroke-width="1"/>
	<path d="M990.5 633L994 635.5L991.5 634L990.5 633Z" fill="#000000" fillAlpha="0.1215686" stroke="#000000" strokeAlpha="0.1215686" stroke-width="1"/>
	<path d="M998.5 637L1004 644.5L1003 644.5L998.5 637Z" fill="#000000" fillAlpha="0.1215686" stroke="#000000" strokeAlpha="0.1215686" stroke-width="1"/>
	<path d="M80.5 642L79.5 644L78 643.5L80.5 642Z" fill="#000000" fillAlpha="0.1215686" stroke="#000000" strokeAlpha="0.1215686" stroke-width="1"/>
	<path d="M76.5 649L77 651.5L76 651.5L76.5 649Z" fill="#000000" fillAlpha="0.1215686" stroke="#000000" strokeAlpha="0.1215686" stroke-width="1"/>
	<path d="M1004 653L1007 654.5L1009 666.5L1013 673.5L1014 691.5L1015 693.5L1014 694.5L1012 713.5L1004 727Q997.1 732.9 986.5 736L966.5 739L957 746.5L954 753.5L953 779.5L950 793.5L946 802.5L933.5 817L917.5 826L895.5 830L184.5 830L183.5 829L171.5 828L159.5 824L145 813.5L143 810.5L135 800.5L131 791.5Q131.7 785.8 129 783.5L129 767.5L128 766.5L127 751.5L122.5 744L114.5 739L104.5 738L89.5 734L78 726.5L70 713.5L67 697.5L67 684.5L70 670.5L75.5 662L76 669.5L72 680.5L72 705.5Q74.8 717.8 82.5 725L98.5 733L117.5 736L128 743.5L131 750.5L132 776.5L134 786.5L141 802.5L149.5 812L152.5 814L165.5 822L178.5 824L183.5 826L896.5 826L897.5 825L905.5 825Q908.4 822.4 914.5 823Q926 818.5 934 810.5Q933.3 808.3 935.5 809Q942.7 802.7 946 792.5L949 779.5L949 766.5L950 765.5L951 750.5L957.5 739L962.5 736L989.5 731L1002 722.5L1006 716.5L1010 704.5L1010 679.5L1007 666.5L1007 659.5L1004 653Z" fill="#000000" fillAlpha="0.1215686" stroke="#000000" strokeAlpha="0.1215686" stroke-width="1"/>
	<path d="M220.5 717L226 719L227 721.5L224.5 720Q219.8 719.2 220.5 717Z" fill="#000000" fillAlpha="0.1215686" stroke="#000000" strokeAlpha="0.1215686" stroke-width="1"/>
	<path d="M229.5 722L232 722.5L229.5 723L229.5 722Z" fill="#000000" fillAlpha="0.1215686" stroke="#000000" strokeAlpha="0.1215686" stroke-width="1"/>
	<path d="M848.5 722L852 722.5L848.5 723L848.5 722Z" fill="#000000" fillAlpha="0.1215686" stroke="#000000" strokeAlpha="0.1215686" stroke-width="1"/>
	<path d="M177.5 244L904.5 244L905.5 245L920 245L921.5 249Q925.5 248.5 926 251.5Q925.3 253.8 927.5 253L930 258L934 260.5L934 273.5L937 286.5L938 316.5L940.5 321Q945.1 319.6 943 325.5L949.5 331Q953.3 330.3 954 332.5L955.5 335L990 336L992.5 340L996 341.5L996 386.5L993.5 389L971.5 391L968.5 393L956.5 393L949 396.5L947.5 399L944 400.5L941.5 405Q939.3 404.3 940 406.5L938 411.5L938 428.5L937 429.5L937 604.5L938 605.5L938 621.5L940.5 626Q945.1 624.6 943 630.5L947.5 635L954 637.5Q953.3 639.8 955.5 639L956.5 640L991 641Q989.5 644.7 992.5 644L996 645L996 692.5L994.5 694L988.5 694L982.5 698L957.5 698L953.5 699L951 701.5Q951.9 704.5 947.5 703L944 705.5L943 710L940 711.5L938 716.5L938 733.5L936 739.5L936 752.5Q932.6 758.6 934 769.5L930.5 775L929 775L929 779L927.5 779L924 781.5L924 784L917.5 784L910.5 789L170 789L167.5 785L160 784L158.5 781L154 777.5Q154.8 775.3 152.5 776L149.5 770L147 769.5L147 759.5L146 758.5L146 725.5L142 719.5Q143 712 141 709L137 707.5L135.5 704L131 703Q132.5 699.2 129.5 700L123.5 698L99.5 698Q96.1 693.7 89 694L88 690L85 688.5L85 646.5L86.5 645L92 644L93.5 641L125.5 640L128 639L129.5 636Q135.1 636.1 137 632.5Q135.8 628.8 139.5 630Q143.3 626.8 142 618.5L146 612.5L146 421.5L145 417.5L142 414.5Q143 407 141 404L137 403L135.5 399L132 398L129.5 394Q122.8 391.7 112.5 393L104.5 390L89 389L87.5 385L85 384.5L85 341Q90.3 341.6 93 337.5L93.5 336L109.5 336L110.5 335L125.5 335L128 332.5Q127.1 329.5 131.5 331L137 327.5Q135.9 324.2 138.5 325L142 320.5L142 313.5L146 307.5L146 274.5L147 273.5L147 263.5L148.5 262Q150.8 262.8 150 260.5L152.5 254L156 252.5Q154.8 248.8 158.5 250L161 249L162.5 245L176.5 245L177.5 244ZM229 299L225 302L225 303L217 303L215 306Q214 309 210 308L209 311Q210 314 207 313L205 315L204 326L201 332L201 698L204 704L205 715L208 717Q211 716 209 721L216 726Q221 724 220 728L226 731L855 731L858 730L860 726L868 725L875 717L876 707L879 703Q877 696 880 695L880 335L878 326Q879 323 876 324L875 313L873 312Q870 313 871 310L868 307Q865 308 866 304Q863 302 857 303L853 299L229 299Z" fill="#000000" stroke="#000000" stroke-width="1"/>
	<path d="M265.5 378L345.5 378L348 379L349.5 382L353 383Q352.3 386.8 355.5 388L357 388.5L357 397.5L358 398.5L359 414.5L360 415.5L360 512.5L357 522.5L357 528L354 529.5L352.5 532L349 533L347.5 536Q341.2 534.3 339.5 537L307.5 537L305 538L303.5 541Q298.1 540.4 296 542Q297 545.8 294.5 547L291 548.5L290 552.5L290 647.5L289 650Q286.3 648.9 287 651.5L284.5 656L256.5 656L252 651.5L251 649.5L251 406.5L252 405.5L252 392L256 389.5Q254.8 384.3 257.5 383L261 381.5Q259.7 377.3 264.5 379L265.5 378ZM299 413L296 417L294 418L291 421L290 425L290 488L291 491L294 492L296 497Q302 496 304 501L312 497L316 497L318 495Q317 489 321 491L323 486L323 428L320 422Q316 423 318 418L314 413L299 413Z" fill="#000000" stroke="#000000" stroke-width="1"/>
	<path d="M395.5 378L423.5 378L428 381.5L429 385.5L429 604.5L435.5 616L438 617.5L440.5 621L459.5 622Q461 619.5 466.5 621L470 618.5L471.5 616Q474.8 617.1 474 614.5Q476.5 613 475 607.5L479 602.5L479 407.5L480 406.5L480 378L513.5 378Q514.6 378.1 514 383.5L515 384.5L515 410.5L516 411.5L517 551.5L516 552.5L516 626.5L515 627.5L515 641.5L514 647Q509.9 645.3 511 649.5L506 652L505 656L404.5 656L395 647.5L393 634.5L391 629.5L391 564.5L390 563.5L390 400.5L392 398.5L394 379.5L395.5 378Z" fill="#000000" stroke="#000000" stroke-width="1"/>
	<path d="M578.5 378L660.5 378L663 380.5Q662.2 383.1 665.5 382L668.5 387L672 389.5L672 406.5L674 417.5L674 480.5L672 485.5Q672.7 493.5 671 498L667 499.5Q668.5 503.9 665.5 503L663 504Q661.3 506.4 662 512.5L658 517.5L662 522.5L664 530Q668.5 528.3 667 533.5L672 536L672 551.5L674 560.5L674 633.5Q671 637.5 672 645.5L665.5 652L663 653.5L661.5 656L577.5 656L575 655L573.5 651Q570.2 652.1 571 649.5L567.5 643L566 642.5L566 545.5L561 537.5Q562 533 559.5 532L556 530.5L554.5 527Q551.2 528.1 552 525.5L548.5 519L547 518.5L547 498L551 495.5L552 488L556 488L556 486.5L561 483L561 478L562.5 478L566 473.5L566 392L570 389.5L571 383L575 381.5Q573.8 377.8 577.5 379L578.5 378ZM613 413L610 418L608 419L605 423L605 476L610 480Q608 485 614 483L617 487Q623 489 625 486Q627 487 626 485Q627 482 631 483L633 480Q632 476 635 477L637 473L637 426L636 425Q637 422 635 423L631 416L628 413L613 413ZM618 527L613 531Q610 532 610 536L605 539L605 609L606 611L609 612Q611 611 610 615L614 617Q617 616 616 619L619 620L621 619Q623 620 622 617L631 616L637 606L637 543L636 540L633 538L632 534L628 531Q625 532 626 530L625 528L618 527Z" fill="#000000" stroke="#000000" stroke-width="1"/>
	<path d="M719.5 378L817.5 378L820 379Q818.5 382.8 821.5 382L824 383L826.5 388Q829.5 387.1 828 391.5L829 392.5L829 438.5L828 441L795.5 441L795 439.5L793 433.5L790 430.5Q790.7 422.5 789 418L785 417L783.5 413L780.5 413L771.5 408L765.5 408L759 410.5Q759.8 412.8 757.5 412L750 414L748 417.5L748 422L744 424.5L743 427.5L743 606.5L745.5 611Q749.7 609.7 748 614.5L753 617L754.5 621L773.5 622Q775.3 619.3 781.5 621L784 618.5L785.5 616L789 614.5L790 605.5L793 602.5Q791.7 597.8 794 596.5L794 580.5L793 579.5L793 558.5Q790.7 557.3 792 552.5L790 549.5L790 541.5L787.5 537Q783.3 538.3 785 533.5L784 531L781 529.5L777.5 522L776 521.5L776 509.5L778 507.5L780 498.5L781.5 497L808.5 496L809.5 497L818.5 497L820 498.5L821.5 501L824 502.5L825 506L828 507.5L829 511.5L829 645.5L825 648.5L823.5 651L820 653.5L818.5 656L719.5 656L717 655L715.5 652L709 648.5Q709.2 638.8 704 634.5L704 551.5L705 550.5L705 526.5L704 525.5L704 413.5L706 410.5L709 396.5L709 387L713 384.5L714.5 382L717 380.5Q716.3 378.3 718.5 379L719.5 378Z" fill="#000000" stroke="#000000" stroke-width="1"/>
	<path d="M174.5 236L183 236.5L174.5 237L174.5 236Z" fill="#000000" fillAlpha="0.1607843" stroke="#000000" strokeAlpha="0.1607843" stroke-width="1"/>
	<path d="M898.5 236L908 236.5L898.5 237L898.5 236Z" fill="#000000" fillAlpha="0.1607843" stroke="#000000" strokeAlpha="0.1607843" stroke-width="1"/>
	<path d="M163.5 237L167 237.5Q161.6 237.6 159.5 241L161.5 238L163.5 237Z" fill="#000000" fillAlpha="0.1607843" stroke="#000000" strokeAlpha="0.1607843" stroke-width="1"/>
	<path d="M915.5 237Q921.1 236.9 923 240.5L921.5 240L915.5 238L915.5 237Z" fill="#000000" fillAlpha="0.1607843" stroke="#000000" strokeAlpha="0.1607843" stroke-width="1"/>
	<path d="M157.5 241L156.5 243L155 242.5L157.5 241Z" fill="#000000" fillAlpha="0.1607843" stroke="#000000" strokeAlpha="0.1607843" stroke-width="1"/>
	<path d="M924.5 241L931 245.5L927.5 243Q923.7 242.7 924.5 241Z" fill="#000000" fillAlpha="0.1607843" stroke="#000000" strokeAlpha="0.1607843" stroke-width="1"/>
	<path d="M153.5 243L153 244.5L152.5 246L152 244.5L153.5 243Z" fill="#000000" fillAlpha="0.1607843" stroke="#000000" strokeAlpha="0.1607843" stroke-width="1"/>
	<path d="M149.5 246L151 246.5L148 248.5L149.5 246Z" fill="#000000" fillAlpha="0.1607843" stroke="#000000" strokeAlpha="0.1607843" stroke-width="1"/>
	<path d="M932.5 247L936 249.5L937 251.5L935 250.5L933.5 248L932.5 247Z" fill="#000000" fillAlpha="0.1607843" stroke="#000000" strokeAlpha="0.1607843" stroke-width="1"/>
	<path d="M147.5 250L146.5 252Q144.3 251.3 145 253.5L144 253.5L145.5 251L147.5 250Z" fill="#000000" fillAlpha="0.1607843" stroke="#000000" strokeAlpha="0.1607843" stroke-width="1"/>
	<path d="M937.5 253Q942 256 942 263.5L941 263.5L940 257.5Q935.8 256.3 937.5 253Z" fill="#000000" fillAlpha="0.1607843" stroke="#000000" strokeAlpha="0.1607843" stroke-width="1"/>
	<path d="M142.5 257L142 258.5L140.5 261L141 259.5L142.5 257Z" fill="#000000" fillAlpha="0.1607843" stroke="#000000" strokeAlpha="0.1607843" stroke-width="1"/>
	<path d="M139.5 262L140 264.5L139 264.5L139.5 262Z" fill="#000000" fillAlpha="0.1607843" stroke="#000000" strokeAlpha="0.1607843" stroke-width="1"/>
	<path d="M138.5 266L139 273.5L138 273.5L138.5 266Z" fill="#000000" fillAlpha="0.1607843" stroke="#000000" strokeAlpha="0.1607843" stroke-width="1"/>
	<path d="M942.5 267L946 275.5L948 298.5L949 299.5L949 312.5L952 322L958 325.5L957.5 327L951 321.5L950 318L947 316.5L946 285.5L942 270.5L942.5 267Z" fill="#000000" fillAlpha="0.1607843" stroke="#000000" strokeAlpha="0.1607843" stroke-width="1"/>
	<path d="M137.5 278L138 285.5L134 308.5L134 316.5L127.5 324Q125.3 323.3 126 325.5L124 326.5L127.5 322Q130.1 322.8 129 319.5L132 316.5L133 292.5Q135.5 291 134 285.5L137.5 278Z" fill="#000000" fillAlpha="0.1607843" stroke="#000000" strokeAlpha="0.1607843" stroke-width="1"/>
	<path d="M115.5 327L120 327.5L115.5 328L115.5 327Z" fill="#000000" fillAlpha="0.1607843" stroke="#000000" strokeAlpha="0.1607843" stroke-width="1"/>
	<path d="M961.5 327L966 327.5L961.5 328L961.5 327Z" fill="#000000" fillAlpha="0.1607843" stroke="#000000" strokeAlpha="0.1607843" stroke-width="1"/>
	<path d="M94.5 328L110 328.5L94.5 329L89.5 332L89.5 331L94.5 328Z" fill="#000000" fillAlpha="0.1607843" stroke="#000000" strokeAlpha="0.1607843" stroke-width="1"/>
	<path d="M970.5 328L986.5 328L990.5 329L993 331.5L991.5 331L986.5 329L970.5 329L970.5 328Z" fill="#000000" fillAlpha="0.1607843" stroke="#000000" strokeAlpha="0.1607843" stroke-width="1"/>
	<path d="M235.5 330L844.5 330Q846.3 332.8 852.5 331L859.5 334L867 341.5L868 353.5L869 354.5L869 698.5L868 699.5L867 712.5L864 717L857 720Q858 723 855 722Q853.9 719.3 856.5 720L862 716.5L863 713L865 712.5L865 356.5L859 343L845.5 337L235.5 337L224.5 341L220 345.5L216 353.5Q217.3 358.3 215 359.5L215 711.5Q218.8 712.8 218 717L229 722.5L226.5 723L223 722L221.5 719L217 716.5L213 711.5L213 702.5L212 701.5L212 349.5L214 340.5L219.5 335L227.5 331Q233.8 332.8 235.5 330Z" fill="#000000" fillAlpha="0.1607843" stroke="#000000" strokeAlpha="0.1607843" stroke-width="1"/>
	<path d="M85.5 332L87 332.5L81.5 337L82 335.5L83.5 333L85.5 332Z" fill="#000000" fillAlpha="0.1607843" stroke="#000000" strokeAlpha="0.1607843" stroke-width="1"/>
	<path d="M995.5 332L999 333L1003 339.5L1002 339.5L996.5 333L995.5 332Z" fill="#000000" fillAlpha="0.1607843" stroke="#000000" strokeAlpha="0.1607843" stroke-width="1"/>
	<path d="M80.5 338L78.5 341L80.5 338Z" fill="#000000" fillAlpha="0.1607843" stroke="#000000" strokeAlpha="0.1607843" stroke-width="1"/>
	<path d="M1003.5 341L1004 343.5L1003 343.5L1003.5 341Z" fill="#000000" fillAlpha="0.1607843" stroke="#000000" strokeAlpha="0.1607843" stroke-width="1"/>
	<path d="M77.5 342L78 344.5L77 344.5L77.5 342Z" fill="#000000" fillAlpha="0.1607843" stroke="#000000" strokeAlpha="0.1607843" stroke-width="1"/>
	<path d="M76.5 347L77 356.5L76 356.5L76.5 347Z" fill="#000000" fillAlpha="0.1607843" stroke="#000000" strokeAlpha="0.1607843" stroke-width="1"/>
	<path d="M1004.5 350L1007 354.5L1007 361.5L1010 374.5L1010 399.5L1006 411.5L1001 419L985.5 427L972.5 428L965.5 430L955 436.5L950 448.5L950 621.5L952 627L960 631.5L957.5 632L951 626.5L950 623L947 621.5L947 609.5L946 608.5L946 445.5L947 444.5L947 434.5L956.5 425L962.5 423L984.5 420L997 412.5L1003 399.5L1004 382.5Q1007.9 380.9 1007 374.5L1006 373.5L1006 365.5L1004 360.5L1004.5 350Z" fill="#000000" fillAlpha="0.1607843" stroke="#000000" strokeAlpha="0.1607843" stroke-width="1"/>
	<path d="M75.5 365L76 388.5L81 406.5L87.5 414L94.5 419Q99.1 418.4 100.5 421L115.5 422L125.5 425L133 431.5L135 441.5L135 450.5L136 451.5L136 602.5L134 612.5L134 621.5L128.5 628L126 629.5Q126.8 631.8 124.5 631L123 631.5L125 628L129 627L130 622L132 621.5L132 454.5L131 453.5L131 445.5L126 435L113.5 429L94.5 426L79 416.5L72 400.5L72 375.5L75.5 365Z" fill="#000000" fillAlpha="0.1607843" stroke="#000000" strokeAlpha="0.1607843" stroke-width="1"/>
	<path d="M266.5 370L273 370.5L266.5 371L266.5 370Z" fill="#000000" fillAlpha="0.1607843" stroke="#000000" strokeAlpha="0.1607843" stroke-width="1"/>
	<path d="M338.5 370L344 370.5L338.5 371L338.5 370Z" fill="#000000" fillAlpha="0.1607843" stroke="#000000" strokeAlpha="0.1607843" stroke-width="1"/>
	<path d="M395.5 370L399 370.5L395.5 371L395.5 370Z" fill="#000000" fillAlpha="0.1607843" stroke="#000000" strokeAlpha="0.1607843" stroke-width="1"/>
	<path d="M422.5 370L426 370.5L422.5 371L422.5 370Z" fill="#000000" fillAlpha="0.1607843" stroke="#000000" strokeAlpha="0.1607843" stroke-width="1"/>
	<path d="M481.5 370L485 370.5L481.5 371L481.5 370Z" fill="#000000" fillAlpha="0.1607843" stroke="#000000" strokeAlpha="0.1607843" stroke-width="1"/>
	<path d="M510.5 370L513 370.5L510.5 371L510.5 370Z" fill="#000000" fillAlpha="0.1607843" stroke="#000000" strokeAlpha="0.1607843" stroke-width="1"/>
	<path d="M580.5 370L587 370.5L580.5 371L580.5 370Z" fill="#000000" fillAlpha="0.1607843" stroke="#000000" strokeAlpha="0.1607843" stroke-width="1"/>
	<path d="M653.5 370L659 370.5L653.5 371L653.5 370Z" fill="#000000" fillAlpha="0.1607843" stroke="#000000" strokeAlpha="0.1607843" stroke-width="1"/>
	<path d="M720.5 370L727 370.5L720.5 371L720.5 370Z" fill="#000000" fillAlpha="0.1607843" stroke="#000000" strokeAlpha="0.1607843" stroke-width="1"/>
	<path d="M810.5 370L816 370.5L810.5 371L810.5 370Z" fill="#000000" fillAlpha="0.1607843" stroke="#000000" strokeAlpha="0.1607843" stroke-width="1"/>
	<path d="M262.5 371L264 371.5L260.5 374L260 372L262.5 371Z" fill="#000000" fillAlpha="0.1607843" stroke="#000000" strokeAlpha="0.1607843" stroke-width="1"/>
	<path d="M348.5 371L360 379.5L358.5 379Q356.3 379.8 357 377.5L350.5 374L348.5 371Z" fill="#000000" fillAlpha="0.1607843" stroke="#000000" strokeAlpha="0.1607843" stroke-width="1"/>
	<path d="M391.5 371L393 371.5L391 372L389.5 375L388 374.5L391.5 371Z" fill="#000000" fillAlpha="0.1607843" stroke="#000000" strokeAlpha="0.1607843" stroke-width="1"/>
	<path d="M428.5 371Q430.8 370.3 430 372.5L431.5 375L428.5 371Z" fill="#000000" fillAlpha="0.1607843" stroke="#000000" strokeAlpha="0.1607843" stroke-width="1"/>
	<path d="M478.5 371L480 371.5L478 372L473.5 378L477 373.5L478.5 371Z" fill="#000000" fillAlpha="0.1607843" stroke="#000000" strokeAlpha="0.1607843" stroke-width="1"/>
	<path d="M515.5 371L522 378.5L521 378.5L515.5 371Z" fill="#000000" fillAlpha="0.1607843" stroke="#000000" strokeAlpha="0.1607843" stroke-width="1"/>
	<path d="M575.5 371L577 371.5L568 377L563.5 384L563 382.5L564 380L567 378.5L568.5 376L575.5 371Z" fill="#000000" fillAlpha="0.1607843" stroke="#000000" strokeAlpha="0.1607843" stroke-width="1"/>
	<path d="M662.5 371L666 373.5L663.5 372L662.5 371Z" fill="#000000" fillAlpha="0.1607843" stroke="#000000" strokeAlpha="0.1607843" stroke-width="1"/>
	<path d="M715.5 371L717 371.5L707 378.5L701.5 388L701 386.5L708.5 376L715.5 371Z" fill="#000000" fillAlpha="0.1607843" stroke="#000000" strokeAlpha="0.1607843" stroke-width="1"/>
	<path d="M819.5 371L823 372L822.5 374L819.5 371Z" fill="#000000" fillAlpha="0.1607843" stroke="#000000" strokeAlpha="0.1607843" stroke-width="1"/>
	<path d="M824.5 374L831 378.5L832 381.5L831 381.5L825.5 375L824.5 374Z" fill="#000000" fillAlpha="0.1607843" stroke="#000000" strokeAlpha="0.1607843" stroke-width="1"/>
	<path d="M256.5 375L255.5 377L254 376.5L256.5 375Z" fill="#000000" fillAlpha="0.1607843" stroke="#000000" strokeAlpha="0.1607843" stroke-width="1"/>
	<path d="M669.5 375L674.5 381L669.5 375Z" fill="#000000" fillAlpha="0.1607843" stroke="#000000" strokeAlpha="0.1607843" stroke-width="1"/>
	<path d="M432.5 376Q435.8 377.8 436 382.5L435 382.5L432.5 376Z" fill="#000000" fillAlpha="0.1607843" stroke="#000000" strokeAlpha="0.1607843" stroke-width="1"/>
	<path d="M386.5 378L387 380.5L386 380.5L386.5 378Z" fill="#000000" fillAlpha="0.1607843" stroke="#000000" strokeAlpha="0.1607843" stroke-width="1"/>
	<path d="M472.5 379L473 381.5L472 381.5L472.5 379Z" fill="#000000" fillAlpha="0.1607843" stroke="#000000" strokeAlpha="0.1607843" stroke-width="1"/>
	<path d="M251.5 380L249 383.5L248.5 385L248 383.5L251.5 380Z" fill="#000000" fillAlpha="0.1607843" stroke="#000000" strokeAlpha="0.1607843" stroke-width="1"/>
	<path d="M522.5 382L523 386.5L522 386.5L522.5 382Z" fill="#000000" fillAlpha="0.1607843" stroke="#000000" strokeAlpha="0.1607843" stroke-width="1"/>
	<path d="M675.5 382L679 387.5L678 387.5L675 383.5L675.5 382Z" fill="#000000" fillAlpha="0.1607843" stroke="#000000" strokeAlpha="0.1607843" stroke-width="1"/>
	<path d="M385.5 383L386 386.5L382 402.5L381 419.5L377.5 424L371 425L371 416.5L366 398.5L369 400.5L371 407Q377.8 407.9 381 405L382 392.5L385.5 383Z" fill="#000000" fillAlpha="0.1607843" stroke="#000000" strokeAlpha="0.1607843" stroke-width="1"/>
	<path d="M832.5 383L837 389.5L837 393.5L836 393.5L836 389.5L832 384.5L832.5 383Z" fill="#000000" fillAlpha="0.1607843" stroke="#000000" strokeAlpha="0.1607843" stroke-width="1"/>
	<path d="M361.5 384L365 386.5L364.5 389L362.5 385L361.5 384Z" fill="#000000" fillAlpha="0.1607843" stroke="#000000" strokeAlpha="0.1607843" stroke-width="1"/>
	<path d="M436.5 384L437 391.5L436 391.5L436.5 384Z" fill="#000000" fillAlpha="0.1607843" stroke="#000000" strokeAlpha="0.1607843" stroke-width="1"/>
	<path d="M247.5 388L248 389.5Q243.1 396.1 243.5 408L243 398.5L244 393.5L247.5 388Z" fill="#000000" fillAlpha="0.1607843" stroke="#000000" strokeAlpha="0.1607843" stroke-width="1"/>
	<path d="M561.5 388L562 389.5Q558.3 391.8 558.5 398L558 392.5L561.5 388Z" fill="#000000" fillAlpha="0.1607843" stroke="#000000" strokeAlpha="0.1607843" stroke-width="1"/>
	<path d="M679.5 389L680 392.5L679 392.5L679.5 389Z" fill="#000000" fillAlpha="0.1607843" stroke="#000000" strokeAlpha="0.1607843" stroke-width="1"/>
	<path d="M471.5 390L472 395.5L471 396.5L471 404.5L469 407.5L469 595.5L468 596.5L467 607.5L462.5 613L463 611.5L463 608L466 607.5L466 412.5Q468.5 411 467 405.5L469 402.5L469 396.5Q472 395.1 471.5 390Z" fill="#000000" fillAlpha="0.1607843" stroke="#000000" strokeAlpha="0.1607843" stroke-width="1"/>
	<path d="M700.5 390L701 393.5L700 393.5L700.5 390Z" fill="#000000" fillAlpha="0.1607843" stroke="#000000" strokeAlpha="0.1607843" stroke-width="1"/>
	<path d="M365.5 391L366 394.5L365 394.5L365.5 391Z" fill="#000000" fillAlpha="0.1607843" stroke="#000000" strokeAlpha="0.1607843" stroke-width="1"/>
	<path d="M523.5 392L527 400.5L527 407.5L529 415.5L529 429.5L530 430.5L530 498.5L533.5 504L538 506L539 496.5L541 493Q544 491.8 543 495.5L541 497.5L539 504.5L538 525Q531.7 526.5 530 522.5L528 519.5L527 493.5L526 492.5L526 411.5L525 410.5L525 402.5L523 398.5L523.5 392Z" fill="#000000" fillAlpha="0.1607843" stroke="#000000" strokeAlpha="0.1607843" stroke-width="1"/>
	<path d="M699.5 396L700 398.5L696 412.5L695 430L685 430L685 418.5L681 405.5L680 397.5L681 397.5L685 407.5L685 411L690.5 412L695 411L696 402.5L699.5 396Z" fill="#000000" fillAlpha="0.1607843" stroke="#000000" strokeAlpha="0.1607843" stroke-width="1"/>
	<path d="M437.5 397L438 405.5L441 410.5Q439.8 415.3 442 416.5L442 435.5L443 436.5L443 607.5L446 613L442 610.5Q441.7 604.3 438 601.5L438 411.5L437 410.5L437.5 397Z" fill="#000000" fillAlpha="0.1607843" stroke="#000000" strokeAlpha="0.1607843" stroke-width="1"/>
	<path d="M557.5 402L558 414.5L557 415.5L557 469.5L551.5 480Q549.3 479.3 550 481.5L546.5 486Q544.3 485.3 545 487.5L543.5 491L543 488.5L546.5 484Q549.1 484.8 548 481.5L552 479L553 427.5L555 416.5L557 413.5L557.5 402Z" fill="#000000" fillAlpha="0.1607843" stroke="#000000" strokeAlpha="0.1607843" stroke-width="1"/>
	<path d="M837.5 403L838 411.5L842 421.5L843 449.5L840 461.5L832.5 472L823.5 477Q817.4 476.4 814.5 479L807.5 479L798.5 477L790.5 473L784 466.5L781 459.5L774.5 453Q771.3 450.7 764.5 452L759 456.5L756 468.5L756 508.5L761.5 516L767 517Q765.8 505.5 771.5 500L772 501.5L768 513.5L768 527.5L770 532.5Q767.7 533.7 769 538.5L781 560.5L782 596.5L783 597.5L781 608.5L778 613L776 612.5L779 607.5L779 583.5L778 582.5L777 571.5L770.5 560L765.5 558L759 562.5L756 569.5L756 605.5L760 612.5L757.5 613L752 603.5L752 547.5L753 546.5L753 530.5L752 529.5L752 451.5L753 449L756 447.5Q755.3 445.3 757.5 446L766.5 441L771.5 441L784 451.5L790 463Q792.7 461.9 792 464.5L795.5 468L804.5 472L815.5 472L825.5 469L831 463.5L834 459.5L836 445.5L838 440.5L838 418.5L837 417.5L837.5 403Z" fill="#000000" fillAlpha="0.1607843" stroke="#000000" strokeAlpha="0.1607843" stroke-width="1"/>
	<path d="M242.5 414L243 657.5L246 661.5L246 668.5L248 673.5L253.5 681L262.5 686Q268.8 684.3 270.5 687Q272 684.5 277.5 686L285.5 682L291 676.5L295 666.5L295 659.5L299 651.5L299 580.5L305.5 572L313.5 568L337.5 567L345.5 564L351.5 561L370.5 543L374.5 543L378 545.5L381 551.5L381 565.5L382 566.5L382 639.5L385 645.5L385 653.5L388 665.5L394.5 675Q396.8 674.3 396 676.5Q401.9 683.1 411.5 686L421.5 686L422.5 687L485.5 687L486.5 686L496.5 686L507.5 681L516 672.5L521 662.5L523 653.5L523 640.5L526 635.5L527 554.5Q529.5 553 528 547.5L531.5 543L539.5 542L549 550.5L557 565.5L557 645.5L560 653.5L561 662.5L564 669.5L570.5 677Q575.7 683.8 585.5 686L593.5 686L594.5 687L642.5 687L643.5 686L653.5 686L664.5 681L670 676.5L685.5 657L694.5 657L697 659.5Q696.3 661.8 698.5 661Q703.4 671.1 711.5 678L725.5 686L735.5 686L736.5 687L800.5 687L801.5 686L810.5 686L826 678Q832.2 670.7 836 659.5L837 647.5L838 646.5L838 537.5L837 536.5L837 521.5L838 521.5L838 529.5L842 540.5L842 554.5L843 555.5L843 654.5Q840.5 656 842 661.5L837 674.5L827.5 685L813.5 692L801.5 693L800.5 694L737.5 694L736.5 693L728.5 693L719.5 691Q707.7 685.8 700 676.5Q700.8 674.3 698.5 675Q695 670.5 685.5 672L672.5 684L657.5 692L643.5 693L642.5 694L594.5 694L579.5 691Q568.1 686.4 561 677.5L555 666.5L553 658.5L553 644.5L552 643.5L552 577.5L550 569.5L546.5 563L540.5 559L537.5 559L533 561L530 567.5L530 646.5L529 647.5L529 657.5Q526.4 660.4 527 666.5L521 678Q518.3 676.9 519 679.5L516 681L514.5 684L511.5 686L502.5 691L485.5 694L422.5 694L402.5 690L388 678.5L382 668.5L379 655.5L379 588.5L378 587.5L378 569.5L376 564L371.5 561L363.5 561L345.5 572L328.5 575L317.5 575L305 583.5L302 597.5L302 663.5L299 676.5L295 684L283.5 691L270.5 694L256.5 691L245 682.5L239 667.5L239 427.5L242.5 414Z" fill="#000000" fillAlpha="0.1607843" stroke="#000000" strokeAlpha="0.1607843" stroke-width="1"/>
	<path d="M852.5 423L853 458.5L852 458.5L851 431.5L852.5 423Z" fill="#000000" fillAlpha="0.1607843" stroke="#000000" strokeAlpha="0.1607843" stroke-width="1"/>
	<path d="M795.5 486Q808.7 483.8 815 488.5L811.5 489L810.5 488L793.5 488L792.5 489L784.5 489L784.5 488Q792.2 489.2 795.5 486Z" fill="#000000" fillAlpha="0.1607843" stroke="#000000" strokeAlpha="0.1607843" stroke-width="1"/>
	<path d="M817.5 489Q823.9 488.6 826 492.5L825.5 494Q823.5 490 817.5 490L817.5 489Z" fill="#000000" fillAlpha="0.1607843" stroke="#000000" strokeAlpha="0.1607843" stroke-width="1"/>
	<path d="M775.5 491L775 492.5L773.5 495L773 493.5L775.5 491Z" fill="#000000" fillAlpha="0.1607843" stroke="#000000" strokeAlpha="0.1607843" stroke-width="1"/>
	<path d="M828.5 496L831 497.5L832 499.5L828.5 496Z" fill="#000000" fillAlpha="0.1607843" stroke="#000000" strokeAlpha="0.1607843" stroke-width="1"/>
	<path d="M832.5 501Q837.3 504.3 837 512.5L836 512.5L836 508.5L832 502.5L832.5 501Z" fill="#000000" fillAlpha="0.1607843" stroke="#000000" strokeAlpha="0.1607843" stroke-width="1"/>
	<path d="M685.5 509L688 510L689.5 513L695 517.5L696 553.5L695 554.5L695 567.5L692 572L685 572L685 562.5L683 551.5L680 543.5L680 536.5L677.5 532Q674.5 532.9 676 528.5L674 521.5L680.5 513L685.5 509ZM686 530L681 532L681 542Q685 544 685 550L689 549L692 544L691 535L686 530Z" fill="#000000" fillAlpha="0.1607843" stroke="#000000" strokeAlpha="0.1607843" stroke-width="1"/>
	<path d="M852.5 542L853 658.5L852 658.5L851 654.5L851 550.5L852.5 542Z" fill="#000000" fillAlpha="0.1607843" stroke="#000000" strokeAlpha="0.1607843" stroke-width="1"/>
	<path d="M447.5 613L461 613.5L447.5 614L447.5 613Z" fill="#000000" fillAlpha="0.1607843" stroke="#000000" strokeAlpha="0.1607843" stroke-width="1"/>
	<path d="M761.5 613L766 613.5L761.5 614L761.5 613Z" fill="#000000" fillAlpha="0.1607843" stroke="#000000" strokeAlpha="0.1607843" stroke-width="1"/>
	<path d="M770.5 613L775 613.5L770.5 614L770.5 613Z" fill="#000000" fillAlpha="0.1607843" stroke="#000000" strokeAlpha="0.1607843" stroke-width="1"/>
	<path d="M115.5 632L120 632.5L115.5 633L115.5 632Z" fill="#000000" fillAlpha="0.1607843" stroke="#000000" strokeAlpha="0.1607843" stroke-width="1"/>
	<path d="M961.5 632L966 632.5L961.5 633L961.5 632Z" fill="#000000" fillAlpha="0.1607843" stroke="#000000" strokeAlpha="0.1607843" stroke-width="1"/>
	<path d="M93.5 633L99 633.5L93.5 634L83 639L81.5 642L82 640.5L83.5 638L93.5 633Z" fill="#000000" fillAlpha="0.1607843" stroke="#000000" strokeAlpha="0.1607843" stroke-width="1"/>
	<path d="M986.5 633Q991.6 632.4 993 635.5L991.5 636Q990.8 633.2 986.5 634L986.5 633Z" fill="#000000" fillAlpha="0.1607843" stroke="#000000" strokeAlpha="0.1607843" stroke-width="1"/>
	<path d="M996.5 637L1001 640.5Q1004.6 642.4 1004 648.5L1003 648.5L1002 643.5L997.5 638L996.5 637Z" fill="#000000" fillAlpha="0.1607843" stroke="#000000" strokeAlpha="0.1607843" stroke-width="1"/>
	<path d="M80.5 643L79 645.5L77.5 650L77 647.5L78 644L80.5 643Z" fill="#000000" fillAlpha="0.1607843" stroke="#000000" strokeAlpha="0.1607843" stroke-width="1"/>
	<path d="M76.5 652L77 661.5L76 661.5L76.5 652Z" fill="#000000" fillAlpha="0.1607843" stroke="#000000" strokeAlpha="0.1607843" stroke-width="1"/>
	<path d="M1004.5 655L1007 659.5L1007 666.5L1010 679.5L1010 704.5L1006 716.5L1000.5 724L989.5 731L962.5 736L956 740.5L952 747.5L950 755.5L949 779.5L946 792.5Q942.7 802.7 935.5 809Q933.3 808.3 934 810.5Q926 818.5 914.5 823Q908.4 822.4 905.5 825L897.5 825L896.5 826L183.5 826L178.5 824L165.5 822L151 814Q152.1 811.3 149.5 812Q141.7 805.3 137 795.5L132 776.5L131 750.5L125.5 741L117.5 736L98.5 733L93.5 731Q84.8 727.8 79 721.5L72 705.5L72 680.5L75.5 670L76 693.5L81 710.5L87 720L89 720Q87.9 722.7 90.5 722L99.5 727L121.5 729L133 736.5L135 744.5L135 750.5L138 755.5L138 773.5Q140.7 776.8 140 783.5L145 795.5L149.5 801L151 801L151 803Q153.7 801.9 153 804.5L159 809L160.5 812L170.5 817Q178.5 816 182.5 819L897.5 819L903.5 817L913.5 816L927 807.5L929 804.5L932 803L940 789.5L941 779.5L943 776.5L943 767.5L946 761.5L947 741.5L951 734L963.5 728L980.5 727L986.5 725L996 719L1003 704.5Q1005.3 697.8 1004 687.5Q1007.9 685.9 1007 679.5L1006 678.5L1006 670.5L1004 665.5L1004.5 655Z" fill="#000000" fillAlpha="0.1607843" stroke="#000000" strokeAlpha="0.1607843" stroke-width="1"/>
</svg>
