<svg id="svg" xmlns="http://www.w3.org/2000/svg" xmlns:xlink="http://www.w3.org/1999/xlink" width="400" height="400" viewBox="0, 0, 400,400"><g id="svgg"><path id="path0" d="M133.148 97.026 C 124.691 99.590,119.560 104.988,117.487 113.502 C 116.489 117.602,116.512 230.639,117.512 234.757 C 119.081 241.216,126.468 249.987,130.353 250.002 C 130.668 250.004,131.426 250.270,132.037 250.593 C 136.168 252.782,185.945 253.078,189.977 250.937 C 190.499 250.660,191.902 250.059,193.095 249.602 C 198.689 247.458,203.287 242.218,205.095 235.926 C 206.155 232.236,206.588 162.871,205.556 162.216 C 204.501 161.547,159.199 161.750,158.231 162.428 L 157.407 163.005 157.413 178.262 C 157.416 186.653,157.541 193.692,157.691 193.904 C 158.286 194.749,160.979 195.269,163.370 195.001 C 166.343 194.669,168.377 194.667,169.852 194.997 L 171.001 195.253 171.241 199.722 C 171.373 202.179,171.481 207.414,171.481 211.354 L 171.481 218.519 161.667 218.519 L 151.852 218.519 151.852 173.889 L 151.852 129.259 161.481 129.259 L 171.111 129.259 171.111 137.942 C 171.111 146.495,171.123 146.633,171.934 147.201 C 172.649 147.702,174.895 147.778,188.963 147.778 L 205.168 147.778 205.746 146.896 C 207.003 144.978,206.261 114.946,204.864 111.204 C 202.087 103.765,196.372 98.565,189.074 96.834 C 185.309 95.942,136.170 96.111,133.148 97.026 M297.934 96.614 C 296.815 96.822,296.296 97.416,296.296 98.490 C 296.296 99.035,296.149 99.640,295.968 99.833 C 295.788 100.027,295.112 102.435,294.467 105.185 C 293.822 107.935,293.069 111.102,292.794 112.222 C 292.519 113.343,291.925 115.926,291.474 117.963 C 291.023 120.000,290.516 121.941,290.348 122.277 C 290.179 122.612,289.608 124.695,289.078 126.906 C 288.548 129.117,287.957 131.509,287.764 132.222 C 287.571 132.935,287.076 135.019,286.664 136.852 C 285.533 141.885,285.145 143.446,284.823 144.259 C 284.246 145.713,282.643 151.985,282.209 154.484 C 282.046 155.423,281.741 156.840,281.531 157.633 C 281.321 158.425,280.783 160.657,280.336 162.593 C 278.932 168.666,278.911 168.662,277.333 161.985 C 276.570 158.754,275.754 155.361,275.519 154.444 C 275.285 153.528,274.935 151.944,274.742 150.926 C 274.549 149.907,274.152 148.705,273.862 148.254 C 273.571 147.803,273.333 147.126,273.333 146.750 C 273.333 146.092,272.721 143.429,271.078 136.944 C 270.652 135.264,270.083 132.806,269.813 131.481 C 269.543 130.157,269.072 128.324,268.766 127.407 C 268.460 126.491,267.694 123.574,267.064 120.926 C 266.435 118.278,265.688 115.278,265.405 114.259 C 265.121 113.241,264.516 110.741,264.059 108.704 C 263.603 106.667,263.024 104.583,262.774 104.074 C 262.523 103.565,262.209 102.398,262.075 101.481 C 261.941 100.565,261.601 99.148,261.321 98.333 L 260.810 96.852 241.465 96.756 C 227.488 96.687,221.981 96.776,221.616 97.079 C 220.878 97.691,220.859 249.884,221.597 250.893 C 222.527 252.164,254.109 252.150,254.597 250.877 C 254.707 250.590,254.805 238.067,254.813 223.048 C 254.831 192.927,255.007 186.619,255.760 189.074 C 256.631 191.911,257.671 195.758,258.263 198.333 C 260.508 208.107,261.613 212.576,262.062 213.704 C 262.346 214.417,263.013 216.917,263.545 219.259 C 265.549 228.094,265.897 229.535,266.853 232.963 C 267.811 236.397,268.685 239.896,270.369 247.037 C 271.530 251.955,271.038 251.674,278.485 251.670 C 286.737 251.666,285.929 252.532,288.500 240.926 C 288.951 238.889,289.465 236.806,289.643 236.296 C 289.821 235.787,290.077 234.579,290.211 233.611 C 290.345 232.644,290.591 231.852,290.758 231.852 C 291.109 231.852,291.137 231.757,292.224 226.852 C 292.675 224.815,293.257 222.398,293.516 221.481 C 293.775 220.565,294.353 218.148,294.800 216.111 C 295.248 214.074,295.748 212.074,295.913 211.667 C 296.077 211.259,296.417 210.176,296.667 209.259 C 296.918 208.343,297.258 207.176,297.422 206.667 C 297.587 206.157,298.073 204.241,298.501 202.407 C 298.930 200.574,299.619 197.741,300.031 196.111 C 300.444 194.481,301.013 192.108,301.297 190.836 C 302.505 185.413,302.570 186.815,302.581 218.726 C 302.590 243.590,302.692 250.364,303.063 250.872 C 303.703 251.748,335.323 251.873,336.193 251.003 C 336.834 250.362,337.241 100.585,336.608 98.293 C 336.405 97.556,335.960 96.882,335.619 96.796 C 334.858 96.603,298.926 96.429,297.934 96.614 M367.811 96.574 C 356.972 96.644,351.949 96.802,351.607 97.086 C 350.797 97.758,350.877 249.501,351.688 250.658 L 352.264 251.481 368.919 251.481 L 385.574 251.481 385.935 250.531 C 386.762 248.355,386.390 97.872,385.556 97.037 C 385.148 96.630,384.523 96.336,384.167 96.385 C 383.810 96.433,376.450 96.519,367.811 96.574 M12.667 97.111 C 11.871 97.907,12.038 250.497,12.835 251.158 C 13.867 252.014,82.288 251.903,84.074 251.042 C 84.787 250.699,85.999 250.253,86.766 250.052 C 92.768 248.477,99.357 241.316,101.106 234.464 C 102.233 230.051,102.258 187.634,101.137 183.248 C 100.058 179.031,96.870 174.671,93.584 172.919 L 92.459 172.320 93.359 171.852 C 96.086 170.434,100.035 165.832,100.593 163.424 C 100.722 162.865,101.046 161.657,101.314 160.741 C 102.597 156.337,102.184 116.422,100.812 112.217 C 98.978 106.599,91.814 98.519,88.668 98.519 C 88.355 98.519,87.735 98.323,87.290 98.084 C 84.843 96.770,82.663 96.693,47.574 96.680 C 21.249 96.670,13.006 96.772,12.667 97.111 M67.037 143.148 L 67.037 157.407 57.037 157.407 L 47.037 157.407 47.037 143.148 L 47.037 128.889 57.037 128.889 L 67.037 128.889 67.037 143.148 M66.667 193.704 C 66.667 197.654,66.805 200.000,67.037 200.000 C 67.241 200.000,67.407 200.917,67.407 202.037 C 67.407 203.157,67.241 204.074,67.037 204.074 C 66.833 204.074,66.667 204.731,66.667 205.534 C 66.667 206.336,66.833 207.096,67.037 207.222 C 67.258 207.359,67.407 209.757,67.407 213.170 L 67.407 218.889 57.222 218.889 L 47.037 218.889 47.037 203.148 L 47.037 187.407 56.852 187.407 L 66.667 187.407 66.667 193.704 M12.685 261.727 C 11.821 262.075,12.031 317.860,12.900 318.646 C 13.938 319.586,384.816 319.595,385.596 318.655 C 386.489 317.579,386.602 262.621,385.712 261.970 C 385.047 261.484,13.888 261.242,12.685 261.727 M115.059 281.239 C 114.959 290.189,116.855 290.431,121.311 282.037 C 122.284 280.204,123.289 278.313,123.542 277.835 C 124.340 276.335,127.131 275.318,127.509 276.389 C 127.599 276.644,127.382 277.269,127.028 277.778 C 126.673 278.287,125.363 280.665,124.116 283.063 C 122.870 285.460,121.644 287.751,121.392 288.153 C 120.993 288.792,121.432 289.874,124.843 296.665 L 128.750 304.444 126.400 304.444 C 124.485 304.444,124.014 304.325,123.852 303.796 C 123.072 301.258,118.084 291.882,117.398 291.664 C 115.532 291.071,115.185 292.155,115.185 298.576 L 115.185 304.444 113.241 304.444 L 111.296 304.444 111.296 290.185 L 111.296 275.926 113.207 275.926 L 115.119 275.926 115.059 281.239 M150.741 276.296 C 150.741 276.500,150.943 276.667,151.190 276.667 C 151.437 276.667,152.353 277.368,153.227 278.225 L 154.815 279.784 154.815 284.847 C 154.815 288.869,154.928 290.003,155.364 290.365 C 155.834 290.755,155.620 291.150,153.884 293.096 C 151.282 296.013,151.369 298.176,154.301 303.444 L 154.879 304.481 152.532 304.370 C 150.512 304.275,150.170 304.156,150.078 303.519 C 148.814 294.748,143.617 292.224,143.414 300.282 L 143.309 304.444 141.469 304.444 L 139.630 304.444 139.630 290.185 L 139.630 275.926 145.185 275.926 C 148.642 275.926,150.741 276.066,150.741 276.296 M178.519 277.199 C 178.519 278.524,179.021 280.736,181.298 289.444 C 182.044 292.296,182.785 295.152,182.945 295.790 C 183.105 296.428,183.346 297.128,183.480 297.345 C 183.782 297.834,185.185 303.267,185.185 303.948 C 185.185 304.301,184.612 304.444,183.195 304.444 L 181.205 304.444 181.021 302.522 C 180.725 299.448,179.805 298.889,175.044 298.889 C 170.494 298.889,169.843 299.307,169.421 302.500 L 169.164 304.444 167.007 304.444 L 164.850 304.444 165.400 302.685 C 165.702 301.718,166.136 300.009,166.363 298.889 C 166.591 297.769,166.940 296.643,167.138 296.388 C 167.337 296.133,167.738 294.883,168.028 293.610 C 168.640 290.935,169.340 288.151,170.193 285.000 C 171.265 281.042,171.826 278.359,171.839 277.130 L 171.852 275.926 175.185 275.926 L 178.519 275.926 178.519 277.199 M210.296 276.370 C 210.541 276.615,210.741 277.531,210.741 278.407 L 210.741 280.000 205.862 280.000 C 199.617 280.000,199.630 279.991,199.630 284.513 C 199.630 288.425,199.521 288.333,204.166 288.333 L 207.406 288.333 207.407 290.278 L 207.407 292.222 203.934 292.222 C 199.398 292.222,199.566 291.959,199.703 298.858 L 199.815 304.446 197.611 304.445 C 195.897 304.445,195.506 304.346,195.852 304.000 C 196.181 303.671,196.296 300.091,196.296 290.185 C 196.296 280.280,196.181 276.700,195.852 276.370 C 195.506 276.025,197.012 275.926,202.630 275.926 C 207.753 275.926,209.981 276.055,210.296 276.370 M235.767 276.455 C 236.062 276.750,236.297 277.692,236.297 278.585 L 236.298 280.185 233.501 280.063 C 229.337 279.880,229.630 278.930,229.630 292.638 L 229.630 304.444 227.593 304.444 L 225.556 304.444 225.556 292.804 C 225.556 279.142,225.818 280.000,221.640 280.000 L 218.889 280.000 218.889 278.407 C 218.889 277.531,219.089 276.615,219.333 276.370 C 220.033 275.671,235.061 275.749,235.767 276.455 M258.665 278.056 L 260.726 280.185 260.733 287.875 C 260.739 293.351,260.874 295.791,261.204 296.350 C 261.574 296.977,261.574 297.167,261.204 297.301 C 260.935 297.399,260.741 298.112,260.741 299.001 C 260.741 300.350,260.511 300.765,258.809 302.488 L 256.877 304.444 252.772 304.444 L 248.667 304.444 246.741 302.739 C 245.273 301.439,244.815 300.783,244.815 299.983 C 244.815 299.405,244.648 298.830,244.444 298.704 C 244.230 298.571,244.074 296.547,244.074 293.889 C 244.074 291.231,244.230 289.207,244.444 289.074 C 244.659 288.941,244.815 286.922,244.815 284.275 L 244.815 279.704 246.882 277.815 L 248.949 275.926 252.776 275.926 L 256.604 275.926 258.665 278.056 M275.232 276.944 C 275.549 277.505,276.443 279.630,277.218 281.667 C 278.674 285.493,280.039 288.759,280.855 290.370 C 281.164 290.980,281.636 291.296,282.236 291.296 L 283.148 291.296 283.248 283.611 L 283.348 275.926 285.378 275.926 L 287.407 275.926 287.407 290.185 L 287.407 304.444 285.248 304.444 C 282.845 304.444,282.889 304.488,281.664 300.926 C 281.313 299.907,280.596 298.157,280.070 297.037 C 279.544 295.917,278.688 293.750,278.168 292.222 C 277.273 289.593,277.163 289.444,276.111 289.444 L 275.000 289.444 274.900 296.944 L 274.799 304.444 272.585 304.444 C 270.545 304.444,269.826 304.084,270.741 303.519 C 270.976 303.373,271.111 298.522,271.111 290.185 C 271.111 281.848,270.976 276.997,270.741 276.852 C 269.835 276.292,270.536 275.926,272.513 275.926 C 274.463 275.926,274.707 276.017,275.232 276.944 M143.946 280.677 C 143.035 281.685,143.036 290.908,143.948 291.418 C 144.953 291.981,150.844 291.502,151.389 290.814 C 152.316 289.642,152.006 281.755,150.995 280.805 C 149.821 279.702,144.909 279.613,143.946 280.677 M248.730 280.582 C 248.232 281.080,248.148 282.498,248.148 290.406 L 248.148 299.648 249.167 300.044 C 250.480 300.554,255.711 300.269,256.461 299.647 C 257.213 299.022,257.336 281.188,256.593 280.444 C 255.886 279.738,249.462 279.850,248.730 280.582 M173.905 285.278 C 173.629 285.940,173.285 287.275,173.141 288.245 C 172.996 289.215,172.747 290.090,172.587 290.189 C 172.427 290.287,172.095 291.210,171.848 292.239 C 171.212 294.891,171.848 295.556,175.027 295.556 C 179.060 295.556,179.158 295.298,177.545 288.889 C 176.240 283.700,175.053 282.522,173.905 285.278 " stroke="none" fill="#000000" fill-rule="evenodd"></path></g></svg>