<svg xmlns="http://www.w3.org/2000/svg" width="192" height="192" fill="none"><path stroke="#000" stroke-linejoin="round" stroke-width="12" d="M74.559 117.441 56.278 99.16c6.26-6.261 20.024-13.355 29.966-16.619 4.055-1.331 7.54-3.25 8.973-7.27 2.647-7.425-4.106-14.359-11.954-13.616-17.204 1.63-41.695 3.012-61.263 1.27 25.79-18.827 81.286-52.56 96.956-36.89 7.835 7.835 6.529 14.364 5.224 23.504 8.731-4.516 29.38-9.793 36.562-2.612-10.447 5.224-15.67 10.447-18.281 20.894 9.141-1.306 15.669-2.612 23.504 5.223 15.67 15.67-18.064 71.167-36.889 96.956-1.744-19.568-.361-44.059 1.268-61.264.743-7.847-6.189-14.601-13.614-11.954-4.021 1.433-5.939 4.918-7.271 8.974-3.265 9.941-10.359 23.706-16.619 29.967z"/></svg>