<?xml version="1.0" encoding="UTF-8" standalone="no"?>
<svg
   id="Layer_1"
   data-name="Layer 1"
   viewBox="0 0 24 24"
   version="1.1"
   sodipodi:docname="bgram.svg"
   inkscape:version="1.1.1 (3bf5ae0d25, 2021-09-20)"
   xmlns:inkscape="http://www.inkscape.org/namespaces/inkscape"
   xmlns:sodipodi="http://sodipodi.sourceforge.net/DTD/sodipodi-0.dtd"
   xmlns="http://www.w3.org/2000/svg"
   xmlns:svg="http://www.w3.org/2000/svg">
  <defs
     id="defs25" />
  <sodipodi:namedview
     id="namedview23"
     pagecolor="#ffffff"
     bordercolor="#666666"
     borderopacity="1.0"
     inkscape:pageshadow="2"
     inkscape:pageopacity="0.0"
     inkscape:pagecheckerboard="0"
     showgrid="true"
     showguides="true"
     inkscape:guide-bbox="true"
     inkscape:zoom="22.892582"
     inkscape:cx="3.2543293"
     inkscape:cy="11.706849"
     inkscape:window-width="2560"
     inkscape:window-height="1011"
     inkscape:window-x="0"
     inkscape:window-y="32"
     inkscape:window-maximized="1"
     inkscape:current-layer="Layer_1">
    <inkscape:grid
       type="xygrid"
       id="grid831"
       empspacing="1" />
  </sodipodi:namedview>
  <g
     id="g852"
     transform="matrix(0.90909091,0,0,0.90908834,0.09090909,2.2273315)">
    <path
       d="m 18.06,12.41 c -0.09,0.42 -0.16,0.76 -0.19,1 -0.17,1.17 -0.48,4.6 -0.52,5.59 0,0.64 -0.3,2.57 -0.49,3.85 0.78,-1.11 2.1,-3 3.35,-5 l 0.16,-0.25 c 0.66,-1.73 1,-2.88 0.41,-3.88 -0.45,-0.72 -1.1,-1.06 -2.72,-1.31 z"
       id="path2" />
    <path
       d="M 23,10.56 C 23,9.38 22.42,8.73 21,8.32 A 5.63,5.63 0 0 0 19.51,8.13 19.5,19.5 0 0 0 18.2,11.85 c 1.55,0.25 2.47,0.6 3.07,1.64 a 2.92,2.92 0 0 1 0.35,1.89 12.63,12.63 0 0 0 1.38,-4.82 z"
       id="path4" />
    <path
       d="m 10.36,14.79 a 12.15,12.15 0 0 0 -1.5,1 l 2.37,2.48 c 0.48,-0.87 1.74,-3.23 2.25,-4.47 l 0.15,-0.36 0.14,-0.33 a 17.1,17.1 0 0 0 -2.93,1.38 z"
       id="path6" />
    <path
       d="m 11,10.25 c -1.6,0.67 -4.2,2 -5.13,2.43 l 2.46,2.59 c 0.3,-0.45 0.74,-1.13 1.09,-1.76 A 35.16,35.16 0 0 0 11,10.25 Z"
       id="path8" />
    <path
       d="m 11.74,10 a 35.44,35.44 0 0 1 -1.81,3.82 c -0.18,0.32 -0.38,0.65 -0.57,1 l 0.71,-0.44 0.46,-0.27 A 18,18 0 0 1 14.05,12.5 C 14.54,11.32 15.12,9.84 15.44,8.81 14.31,9.05 13,9.53 11.74,10 Z"
       id="path10" />
    <path
       d="m 19.55,6.93 a 6.63,6.63 0 0 1 2,-2.06 A 1.57,1.57 0 0 0 20.26,4 v 0 a 4.37,4.37 0 0 0 -1.91,0.66 c -0.47,0.23 -1,0.5 -1.67,0.77 A 15.49,15.49 0 0 1 16.25,7.96 16.57,16.57 0 0 1 19.18,7.59 5.41,5.41 0 0 1 19.55,6.93 Z M 19.46,4.8 20,4.5 A 1.47,1.47 0 0 1 20,5 0.48,0.48 0 0 1 19.63,5.2 0.79,0.79 0 0 1 19.15,4.92 1.33,1.33 0 0 0 19.46,4.8 Z"
       id="path12" />
    <path
       d="M 10,2.46 A 2.88,2.88 0 0 1 12,4 4.71,4.71 0 0 1 12.48,6.15 36.37,36.37 0 0 0 16.13,5 8.21,8.21 0 0 0 16,3.27 2.64,2.64 0 0 0 15.22,1.59 2.5,2.5 0 0 0 13.57,1.15 h -0.49 a 14.07,14.07 0 0 0 -4.39,1.31 5.14,5.14 0 0 1 0.66,0 4,4 0 0 1 0.65,0 z"
       id="path14" />
    <path
       d="M 11.53,4.24 A 2.28,2.28 0 0 0 9.86,3 2.89,2.89 0 0 0 9.34,3 10.5,10.5 0 0 0 6.09,3.76 C 5,4.34 2.34,6 1,6.9 H 2.07 A 57.12,57.12 0 0 0 11.94,6.25 4.23,4.23 0 0 0 11.53,4.24 Z"
       id="path16" />
    <path
       d="M 12,9.27 C 13.23,8.83 14.54,8.38 15.63,8.09 A 18,18 0 0 0 16.09,5.63 C 15.09,6 13.9,6.35 12.51,6.71 A 8.06,8.06 0 0 1 12,9.27 Z"
       id="path18" />
    <path
       d="m 17.63,11.78 a 21.1,21.1 0 0 1 1.24,-3.63 16,16 0 0 0 -2.79,0.41 c -0.26,0.95 -0.82,2.4 -1.32,3.65 a 9.67,9.67 0 0 1 2.57,-0.44 z"
       id="path20" />
  </g>
</svg>
