<svg xmlns="http://www.w3.org/2000/svg" width="192" height="192" fill="none" stroke="#000" stroke-linecap="round" stroke-width="10" viewBox="0 0 192 192"><path stroke-width="12" d="M96 170c40.869 0 74-33.131 74-74 0-40.87-33.131-74-74-74-40.87 0-74 33.13-74 74 0 40.869 33.13 74 74 74Z"/><path d="M73 86c6.627 0 12-5.373 12-12s-5.373-12-12-12-12 5.373-12 12 5.373 12 12 12Zm34 47V69m24 64V69"/><path stroke-linejoin="round" d="M107 69a12.383 12.383 0 0 1 3.498-8.423 12.064 12.064 0 0 1 8.3-3.576 12.062 12.062 0 0 1 8.559 3.433A12.388 12.388 0 0 1 131 69m-61 56 21-21m16 16L73 86l-24 24m53-31h34"/></svg>