<svg width="192" height="192" fill="none" xmlns="http://www.w3.org/2000/svg"><path d="M59.953 166.917h27.96a5.994 5.994 0 0 0 5.992-5.997V27.997A5.994 5.994 0 0 0 87.913 22H65.944a5.994 5.994 0 0 0-5.992 5.997v55.967m0 82.953h-27.96A5.994 5.994 0 0 1 26 160.92V89.96a5.994 5.994 0 0 1 5.992-5.996h27.96m0 82.953V83.964m85.46 85.673 20.644-7.52a5.998 5.998 0 0 0 3.581-7.686L127.969 39.854a5.99 5.99 0 0 0-7.68-3.584l-20.644 7.52a5.998 5.998 0 0 0-3.581 7.686l41.668 114.577a5.991 5.991 0 0 0 7.68 3.584Z" stroke="#000" stroke-width="12" stroke-linecap="round" stroke-linejoin="round"/></svg>