<svg xmlns="http://www.w3.org/2000/svg" width="192" height="192" fill="none" viewBox="0 0 192 192"><circle cx="139" cy="75" r="3" stroke="#000" stroke-linecap="round" stroke-linejoin="round" stroke-width="6"/><circle cx="64" cy="94" r="5" stroke="#000" stroke-linecap="round" stroke-linejoin="round" stroke-width="10"/><circle cx="84" cy="114" r="6" stroke="#000" stroke-linecap="round" stroke-linejoin="round" stroke-width="12"/><circle cx="86" cy="149" r="5" stroke="#000" stroke-linecap="round" stroke-linejoin="round" stroke-width="10"/><ellipse cx="124" cy="132" stroke="#000" stroke-linecap="round" stroke-linejoin="round" stroke-width="10" rx="3" ry="5"/><ellipse cx="38" cy="107" stroke="#000" stroke-linecap="round" stroke-linejoin="round" stroke-width="10" rx="3" ry="5"/><ellipse cx="70.5" cy="73" stroke="#000" stroke-linecap="round" stroke-linejoin="round" stroke-width="6" rx="4.5" ry="3"/><path stroke="#000" stroke-linecap="round" stroke-linejoin="round" stroke-width="10" d="M95 21c13 7 13 18 13 18"/><path stroke="#000" stroke-linecap="round" stroke-linejoin="round" stroke-width="8" d="m124 54 1 8m14-9 1 8"/><path stroke="#000" stroke-linecap="round" stroke-linejoin="round" stroke-width="10" d="M145 21c-17 0-19 12-19 12M99 82c-41 22-52 73-52 73"/><path stroke="#000" stroke-linecap="round" stroke-linejoin="round" stroke-width="10" d="M96.03 68.399A52 52 0 0 0 84 67c-28.719 0-52 23.281-52 52s23.281 52 52 52 52-23.281 52-52a51.8 51.8 0 0 0-4.085-20.237M96.03 68.399C96.762 85.423 110.795 99 128 99q1.989 0 3.915-.237M96.03 68.399Q96 67.703 96 67c0-17.673 14.327-32 32-32s32 14.327 32 32c0 16.348-12.259 29.832-28.085 31.763"/><path stroke="#000" stroke-linecap="round" stroke-linejoin="round" stroke-width="8" d="M124.6 80.42a17 17 0 0 1-12.021-12.02"/></svg>