<svg width="192" height="192" viewBox="0 0 192 192" fill="none" xmlns="http://www.w3.org/2000/svg"><path d="M23 23v146" stroke="#000" stroke-width="14" stroke-linecap="round" stroke-linejoin="round"/><path d="M92 22v74" stroke="#000" stroke-width="12" stroke-linecap="round" stroke-linejoin="round"/><ellipse cx="62" cy="124" rx="39" ry="45" stroke="#000" stroke-width="14" stroke-linecap="round" stroke-linejoin="round"/><path d="M97.225 147.25c4.293 8.674 10.919 15.454 18.85 19.287 7.932 3.833 16.726 4.505 25.019 1.913 8.293-2.593 15.62-8.305 20.847-16.251 5.226-7.947 8.059-17.683 8.059-27.699 0-10.016-2.833-19.752-8.059-27.699-5.227-7.946-12.554-13.658-20.847-16.25-8.293-2.593-17.087-1.92-25.019 1.912-7.931 3.834-14.557 10.613-18.85 19.287" stroke="#000" stroke-width="12" stroke-linecap="round" stroke-linejoin="round"/></svg>