<?xml version="1.0" encoding="utf-8"?>
	<svg version="1.1" xmlns="http://www.w3.org/2000/svg" xmlns:xlink="http://www.w3.org/1999/xlink" x="0px" y="0px" width="240.0" height="240.0" xml:space="preserve">
		<path d="M162.962,142.18l53.92,77.438l-0.382,0.382l-66.922,-50.287l-0.956,27.533l-14.914,-19.694l-28.298,41.3l-1.338,-45.889l-73.805,18.356l-0.382,-0.382l61.759,-52.008l-27.725,2.103l-0.382,-0.382l23.901,-15.105l-64.436,-38.241l0.382,-0.191l79.732,19.694l-20.076,-23.709l21.606,4.207l-20.459,-67.113l0.382,-0.191l50.669,58.7l11.09,-17.4l2.486,24.665l36.711,-47.419l0.382,0.382l-25.813,71.702l45.889,-5.736l0.382,0.382l-37.859,17.973l32.505,24.092l-0.382,0.382z" fill="#000" stroke="#00000000" stroke-width="1.0" stroke-miterlimit=""/>
	</svg>
