<svg xmlns="http://www.w3.org/2000/svg" width="192" height="192" fill="none"><path stroke="#000" stroke-linecap="round" stroke-linejoin="round" stroke-width="12" d="M115 44H85a6 6 0 0 0-6 6v32a6 6 0 0 0 6 6h30"/><circle cx="141" cy="66" r="3" stroke="#000" stroke-linecap="round" stroke-linejoin="round" stroke-width="6"/><circle cx="163" cy="66" r="3" stroke="#000" stroke-linecap="round" stroke-linejoin="round" stroke-width="6"/><path stroke="#000" stroke-linecap="round" stroke-linejoin="round" stroke-width="12" d="m104.37 166.605 64.863-63.025c.643-.626.2-1.717-.697-1.717H147.43c4.649-4.734 8.522-10.114 11.438-15.973H140c-3.314 0-6-2.681-6-5.99V51.95a5.995 5.995 0 0 1 6-5.99h23.29c-2.2-8.838-6.442-16.969-12.25-23.959H40.96c-6.026 7.253-10.367 15.733-12.49 24.957H52c3.313 0 6 2.682 6 5.99v25.955a5.995 5.995 0 0 1-6 5.99H32.646c2.966 6.247 7.012 11.97 11.923 16.971H23.464c-.898 0-1.34 1.091-.697 1.717l64.863 63.025c4.659 4.527 12.08 4.527 16.74 0Z"/></svg>