<?xml version="1.0" encoding="utf-8"?>
	<svg version="1.1" xmlns="http://www.w3.org/2000/svg" xmlns:xlink="http://www.w3.org/1999/xlink" x="0px" y="0px" width="240.0" height="240.0" xml:space="preserve">
		<path d="M127.508,167.985C127.553,163.097 123.676,159.09 118.844,159.028C114.262,158.969 109.512,163.474 109.515,167.877C109.518,172.205 114.097,176.65 118.631,176.725C123.445,176.805 127.463,172.848 127.508,167.985M149.069,49.073C155.084,49.818 158.559,55.958 155.499,60.917C153.978,63.381 152.211,65.694 150.555,68.075C150.257,68.128 150.069,68.277 150.095,68.609C149.222,69.729 148.35,70.85 147.139,72.405C149.957,72.405 152.682,72.403 155.356,72.402L160.124,72.402C161.701,72.403 163.268,72.404 164.836,72.407C176.399,72.427 187.805,73.461 198.826,77.323C204.323,79.25 209.269,82.227 213.331,86.197C218.775,91.517 220.925,98.317 219.638,105.998C218.052,113.533 214.306,119.981 209.504,125.86C203.242,133.527 195.729,139.824 187.612,145.417C183.825,148.026 178.989,147.147 176.5,143.578C173.963,139.938 174.975,135.57 179.025,132.722C185.035,128.496 190.894,124.093 195.754,118.514C199.675,114.647 202.911,110.284 204.994,105.169C206.596,101.232 207.072,97.017 206.328,92.892C205.314,87.273 201.632,83.39 196.819,80.585C190.118,76.678 182.721,75.058 175.11,74.221C174.201,74.121 173.271,74.207 172.351,74.207C172.586,74.7 172.799,74.833 172.995,74.928L173.111,74.984L173.111,74.984C182.545,79.615 187.519,87.307 188.483,97.648C188.965,102.815 189.175,108.003 188.357,113.17C184.208,116.607 180.207,120.237 175.055,123.444L175.055,110.948C175.093,107.45 174.984,103.942 175.199,100.455C175.665,92.91 169.365,85.796 160.926,85.967C143.25,86.323 125.562,86.074 107.879,86.075C96.945,86.075 86.01,86.026 75.076,86.096C68.266,86.139 62.581,91.05 62.308,97.374C62.057,103.166 62.282,108.978 62.297,114.782C62.273,127.768 62.097,140.757 62.284,153.74C62.385,160.832 67.677,165.523 74.838,165.601C81.039,165.668 87.178,164.831 93.347,164.43C95.41,164.296 95.296,162.661 95.677,161.442C98.197,153.389 103.275,147.659 111.337,145.121C120.929,142.102 129.422,144.408 136.332,151.741C137.672,153.162 138.623,153.245 140.206,152.535C144.565,150.581 148.977,148.745 153.367,146.861C160.102,143.968 166.857,146.208 170.628,152.467C171.74,154.312 171.647,155.392 169.587,156.506C163.502,159.797 157.263,162.746 150.919,165.485C148.53,166.517 146.139,167.547 143.736,168.547C142.699,168.979 142.532,169.84 142.437,170.8C140.79,187.421 122.274,196.65 107.784,189.286C104.207,187.468 101.141,185.239 99.19,181.893C97.883,179.653 96.256,179.683 94.309,179.929C85.527,181.037 76.727,181.357 67.867,181.221C58.837,181.083 50.133,179.556 41.601,176.749C36.333,175.016 31.731,172.152 27.566,168.535C19.771,161.767 18.131,150.498 22.039,141.078C23.662,137.166 26.363,133.986 28.102,130.215C31.073,127.09 33.572,123.543 36.756,120.602C37.71,119.721 38.647,118.97 40.003,118.959C40.744,119.732 40.966,120.478 40.136,121.393C35.439,126.575 31.77,132.311 29.948,139.188C29.381,141.328 29.178,143.463 29.722,145.396C32.463,155.13 39.915,159.804 48.925,162.681C50.332,163.13 50.626,162.801 50.104,161.423C48.661,157.609 48.454,153.627 48.459,149.588C48.468,141.823 48.457,134.058 48.44,126.294L48.383,103L48.383,103C48.405,102.579 48.424,102.158 48.442,101.737L48.496,100.475C48.641,97.112 48.837,93.762 49.912,90.477C53.315,80.073 64.364,72.362 75.701,72.391C79.104,72.4 82.507,72.299 85.911,72.249L90.209,72.249C88.278,70.606 87.451,68.684 86.156,67.105C84.873,65.208 83.632,63.283 82.299,61.423C79.753,57.873 80.855,53.376 83.891,50.774C86.606,48.448 92.161,48.417 94.844,51.569C97.574,54.777 99.821,58.294 102.025,61.839L103.225,63.773C104.425,65.707 105.637,67.633 106.93,69.506C107.406,70.198 107.863,70.903 108.33,71.604C108.41,71.969 108.561,72.257 109.002,72.232C115.495,72.51 121.989,72.502 128.482,72.235C128.871,72.289 129.027,72.059 129.102,71.729C132.532,66.168 135.817,60.517 139.626,55.196C139.773,54.991 139.919,54.785 140.064,54.579L140.5,53.965C142.536,51.111 144.658,48.528 149.069,49.073ZM132.749,106.101C136.917,106.196 141.089,106.172 145.258,106.112C146.613,106.092 147.041,106.608 147,107.913C146.945,109.693 147.054,111.478 147.092,113.26C147.061,119.397 146.962,125.535 147.042,131.671C147.067,133.583 146.703,134.415 144.548,134.307C140.805,134.12 137.042,134.138 133.297,134.302C131.303,134.39 130.878,133.695 130.91,131.832C131.002,126.466 130.891,121.095 130.859,115.726C130.899,113.177 130.998,110.626 130.955,108.079C130.932,106.747 131.183,106.065 132.749,106.101ZM92.161,106.1C96.236,106.198 100.317,106.18 104.394,106.11C105.975,106.083 106.484,106.718 106.434,108.232C106.369,110.178 106.483,112.131 106.519,114.081C106.49,120.044 106.399,126.007 106.47,131.969C106.491,133.727 106.027,134.359 104.191,134.295C100.361,134.162 96.518,134.135 92.691,134.304C90.662,134.393 90.297,133.63 90.322,131.809C90.395,126.446 90.284,121.08 90.245,115.715C90.293,113.172 90.397,110.628 90.368,108.087C90.353,106.769 90.583,106.062 92.161,106.1Z" fill="#000" stroke="#00000000" stroke-width="1.0" stroke-miterlimit=""/>
	</svg>
