<svg width="191" height="192" fill="none" xmlns="http://www.w3.org/2000/svg"><ellipse cx="53.719" cy="103" rx="13.927" ry="14" stroke="#000" stroke-width="10" stroke-linecap="round" stroke-linejoin="round"/><ellipse cx="50.734" cy="47" rx="4.974" ry="5" stroke="#000" stroke-width="10" stroke-linecap="round" stroke-linejoin="round"/><ellipse cx="137.281" cy="103" rx="13.927" ry="14" stroke="#000" stroke-width="10" stroke-linecap="round" stroke-linejoin="round"/><path d="M144.235 70a49.132 49.132 0 0 0-14.267-33.648A48.618 48.618 0 0 0 95.5 22a48.564 48.564 0 0 0-26.86 8.11M116.328 129c-9.493 13.406-18.344 26.857-20.827 41-2.483-14.143-11.334-27.594-20.827-41" stroke="#000" stroke-width="12" stroke-linecap="round" stroke-linejoin="round"/><path d="m104.453 106 .889-36.616a6 6 0 0 0-4.039-5.816L73.615 54l-9.948 17H45.76m40.787 22-7.958-11 24.372-15.426" stroke="#000" stroke-width="10" stroke-linecap="round" stroke-linejoin="round"/></svg>