<svg width="192" height="192" viewBox="0 0 192 192" fill="none" xmlns="http://www.w3.org/2000/svg"><circle cx="77" cy="71" r="4" stroke="#000" stroke-width="8" stroke-linecap="round" stroke-linejoin="round"/><circle cx="115" cy="71" r="4" stroke="#000" stroke-width="8" stroke-linecap="round" stroke-linejoin="round"/><path d="M128 98a31.996 31.996 0 0 1-9.373 22.627 31.996 31.996 0 0 1-45.254 0A31.998 31.998 0 0 1 64 98h64ZM30 58v76m132-76v76M58 162h76M58 30h76m28 28a28.002 28.002 0 0 0-28-28m0 132a28 28 0 0 0 28-28M58 30a27.999 27.999 0 0 0-28 28m0 76a27.998 27.998 0 0 0 28 28" stroke="#000" stroke-width="12" stroke-linecap="round" stroke-linejoin="round"/></svg>