<?xml version="1.0" encoding="utf-8"?>
	<svg version="1.1" xmlns="http://www.w3.org/2000/svg" xmlns:xlink="http://www.w3.org/1999/xlink" x="0px" y="0px" width="240.0" height="240.0" xml:space="preserve">
		<path d="M3.339,77.406C28.143,72.632 52.943,67.787 77.756,63.044C79.474,72.938 81.618,82.751 83.403,92.631C57.527,97.534 31.691,102.684 5.81,107.56C3.786,97.795 2.121,87.95 0,78.212C1.072,77.805 2.205,77.588 3.339,77.406ZM163.045,63C188.687,68 214.332,72.986 240,77.867C238.198,87.751 236.227,97.609 234.323,107.471C208.708,102.582 183.115,97.547 157.505,92.653C157.457,92.596 157.359,92.476 157.31,92.414C159.299,82.627 161.132,72.805 163.045,63L163.045,63ZM119.265,140.123C119.407,140.118 119.69,140.101 119.832,140.096C123.561,145.729 126.607,151.907 131.324,156.823C133.883,159.396 137.196,161.845 141.022,161.57C144.831,161.247 148.081,158.891 150.836,156.416C152.922,154.387 154.959,152.279 156.535,149.817C160.769,152.58 165.237,155.003 169.294,158.032C164.719,164.48 159.082,170.481 151.868,173.957C145.809,176.946 138.529,177.593 132.156,175.206C127.281,173.501 123.184,170.166 119.672,166.455C117.857,167.868 116.404,169.701 114.486,171.008C109.389,175.037 102.791,177.261 96.276,176.543C88.159,175.768 81.091,170.906 75.573,165.175C73.567,162.788 71.326,160.538 69.847,157.766C74.16,155.251 78.279,152.412 82.557,149.844C85.829,154.325 89.771,158.718 95.01,160.866C98.105,162.212 101.759,161.592 104.456,159.644C110.147,155.738 113.308,149.396 116.993,143.776C117.768,142.572 118.525,141.354 119.265,140.123L119.265,140.123Z" fill="#000" stroke="#00000000" stroke-width="1.0" stroke-miterlimit=""/>
	</svg>
