<svg xmlns="http://www.w3.org/2000/svg" xml:space="preserve" viewBox="0 0 192 192"><path fill="none" stroke="#000" stroke-linecap="round" stroke-linejoin="round" stroke-miterlimit="10" stroke-width="12" d="M149.8 110.2c-13.6 1.9-22.3 14.5-19.8 26 2.1 10.1 12.8 18.4 23.8 16.2 8.7-1.8 15.5-9.8 16.2-19.5m-36 14.8c-5 4.9-10.1 9.9-15.2 14.8"/><path fill="none" stroke="#000" stroke-linecap="round" stroke-linejoin="round" stroke-width="12" d="M112.9 137.4H34.4c-6.9 0-12.4-5.6-12.4-12.4V63.4C22 56.5 27.5 51 34.4 51h96.7c6.9 0 12.4 5.6 12.4 12.4v34.5m-90-68.3 22.1 21.3m36.6-21.3L90.1 50.9m-24.6 31L45.2 86m55-4.1 20.3 4.1"/><path fill="none" stroke="#000" stroke-linecap="round" stroke-miterlimit="10" stroke-width="8" d="M82.8 109.1c-.4 3.1-3.5 5.7-7.1 5.9-4 .2-7.8-2.5-8.5-5.9m15.6 0c.4 3.1 3.5 5.7 7.1 5.9 4 .2 7.8-2.5 8.5-5.9"/></svg>