<svg width="192" height="192" viewBox="0 0 192 192" fill="none" xmlns="http://www.w3.org/2000/svg"><path d="M149 147H43M22 53l7.037 7.227c6.28 6.45 16.645 6.45 22.927 0l14.073-14.454c6.28-6.45 16.645-6.45 22.926 0l14.073 14.454c6.282 6.45 16.646 6.45 22.928 0l14.072-14.454c6.282-6.45 16.646-6.45 22.928 0L170 53M22 94l7.037 7.227c6.28 6.451 16.645 6.451 22.927 0l14.073-14.454c6.28-6.45 16.645-6.45 22.926 0l14.073 14.454c6.282 6.451 16.646 6.451 22.928 0l14.072-14.454c6.282-6.45 16.646-6.45 22.928 0L170 94m-39 43v20" stroke="#000" stroke-width="12" stroke-linecap="round" stroke-linejoin="round"/></svg>