<svg xmlns="http://www.w3.org/2000/svg" width="192" height="192" fill="none" viewBox="0 0 192 192"><path stroke="#000" stroke-linecap="round" stroke-linejoin="round" stroke-width="12" d="M91.73 23.769a6.04 6.04 0 0 1 8.541 0l67.96 67.96a6.04 6.04 0 0 1 0 8.542l-67.96 67.96a6.04 6.04 0 0 1-8.542 0l-67.96-67.96a6.04 6.04 0 0 1 0-8.542l67.96-67.96Z"/><path stroke="#000" stroke-linecap="round" stroke-linejoin="round" stroke-width="12" d="m48 74 45.162 44.833a4.034 4.034 0 0 0 5.676 0L144 74"/><path stroke="#000" stroke-linecap="round" stroke-linejoin="round" stroke-width="12" d="m48 118 45.162-44.833a4.034 4.034 0 0 1 5.676 0L144 118"/></svg>