<svg width="192" height="192" viewBox="0 0 192 192" fill="none" xmlns="http://www.w3.org/2000/svg"><path d="M68 140h18" stroke="#000" stroke-width="8" stroke-linecap="round"/><path d="M96 145a5 5 0 1 0 0-10 5 5 0 0 0 0 10Z" stroke="#000" stroke-width="10" stroke-linecap="round"/><path d="M106 140h18" stroke="#000" stroke-width="8" stroke-linecap="round"/><circle cx="96" cy="78" r="32" stroke="#000" stroke-width="8"/><path d="M96 50v56m-4-54c-16 20-16 32 0 52" stroke="#000" stroke-width="6" stroke-linecap="round" stroke-linejoin="round"/><path d="M122 98c-20-16-32-16-52 0" stroke="#000" stroke-width="6" stroke-linecap="round" stroke-linejoin="round"/><path d="M100 52c16 20 16 32 0 52" stroke="#000" stroke-width="6" stroke-linecap="round" stroke-linejoin="round"/><path d="M122 58c-20 16-32 16-52 0" stroke="#000" stroke-width="6" stroke-linecap="round" stroke-linejoin="round"/><path d="M146 22H46a6 6 0 0 0-6 6v136a6 6 0 0 0 6 6h100a6 6 0 0 0 6-6V28a6 6 0 0 0-6-6Z" stroke="#000" stroke-width="12" stroke-linecap="round" stroke-linejoin="round"/></svg>