<svg xmlns="http://www.w3.org/2000/svg" width="192" height="192" fill="none" viewBox="0 0 192 192"><path stroke="#000" stroke-linecap="round" stroke-width="8" d="M68 140h18"/><path stroke="#000" stroke-linecap="round" stroke-width="10" d="M96 145a5 5 0 1 0 0-10 5 5 0 0 0 0 10Z"/><path stroke="#000" stroke-linecap="round" stroke-width="8" d="M106 140h18"/><circle cx="96" cy="78" r="32" stroke="#000" stroke-width="8"/><path stroke="#000" stroke-linecap="round" stroke-linejoin="round" stroke-width="6" d="M96 50v56m-4-54c-16 20-16 32 0 52"/><path stroke="#000" stroke-linecap="round" stroke-linejoin="round" stroke-width="6" d="M122 98c-20-16-32-16-52 0"/><path stroke="#000" stroke-linecap="round" stroke-linejoin="round" stroke-width="6" d="M100 52c16 20 16 32 0 52"/><path stroke="#000" stroke-linecap="round" stroke-linejoin="round" stroke-width="6" d="M122 58c-20 16-32 16-52 0"/><rect width="112" height="148" x="40" y="22" stroke="#000" stroke-linecap="round" stroke-linejoin="round" stroke-width="12" rx="6"/></svg>