<svg width="192" height="192" viewBox="0 0 192 192" fill="none" xmlns="http://www.w3.org/2000/svg"><path d="M38.546 163.971c15.858 4.701 34.185 6.734 52.408 5.812 18.223-.921 35.426-4.751 49.192-10.95 13.767-6.2 23.407-14.458 27.565-23.615 4.158-9.156 2.625-18.752-4.382-27.439-3.466-4.297-8.186-8.265-13.954-11.779m0 0c-5.891-3.59-12.876-6.705-20.733-9.214-15.55-4.965-33.738-7.305-52.01-6.69-18.271.615-34.713 4.154-48.868 10.118a97.71 97.71 0 0 0-2.703 1.188c-4.081 1.867-4.081 7.33 0 9.196.884.405 1.785.801 2.703 1.187 14.155 5.965 30.597 9.504 48.868 10.119 18.272.615 36.46-1.725 52.01-6.69 7.857-2.509 14.842-5.625 20.733-9.214Zm0 0c5.768-3.514 10.488-7.482 13.954-11.78 7.007-8.686 8.54-18.282 4.382-27.438-4.158-9.157-13.798-17.415-27.565-23.615-13.766-6.2-30.969-10.029-49.192-10.95-18.223-.922-36.55 1.11-52.408 5.812" stroke="#000" stroke-width="12" stroke-linecap="round" stroke-linejoin="round"/></svg>