<svg xmlns="http://www.w3.org/2000/svg" width="192" height="192" fill="none"><path stroke="#000" stroke-linecap="round" stroke-linejoin="round" stroke-width="10" d="M68 90a18 18 0 1 1-18 18m92 0a17.998 17.998 0 0 1-21.512 17.654A17.999 17.999 0 0 1 114 93.034 18 18 0 0 1 124 90m14.426-1a42.999 42.999 0 0 0-84.852 0m66.695 1a25.002 25.002 0 0 0-41.947-11.678A25 25 0 0 0 71.731 90"/><path stroke="#000" stroke-linecap="round" stroke-linejoin="round" stroke-width="10" d="M126.406 126.406a43 43 0 0 1-60.812 0M21 90h47m56 0h47M38 108h30m56 0h30"/></svg>