<svg xmlns="http://www.w3.org/2000/svg" width="192" height="192" fill="none"><path stroke="#000" stroke-linecap="round" stroke-linejoin="round" stroke-width="12" d="M94.815 146.049 88.821 170m5.994-23.951-25.003-6.21m25.003 6.21 15.387 3.822c7.396 1.837 15.159.924 21.581-2.538s10.976-9.19 12.661-15.923c1.686-6.733.363-13.921-3.675-19.981s-10.463-10.497-17.859-12.334l-8.655-2.15m10.052-68.734-5.994 23.95m0 0-25.004-6.21m25.004 6.21 6.732 1.672c7.651 1.901 14.421 5.995 18.82 11.381 4.398 5.386 6.066 11.624 4.635 17.341S142.657 93 136.235 95.699s-14.329 3.147-21.98 1.246M69.812 139.84l-5.994 23.951m5.994-23.951L40 132.434s19.233 4.777 24.029-14.384l7.912-31.615M99.304 22l-5.995 23.95m0 0-29.811-7.404c19.233 4.777 14.438 23.938 14.438 23.938L71.94 86.435m0 0 42.314 10.51"/></svg>