<svg width="192" height="192" viewBox="0 0 192 192" fill="none" xmlns="http://www.w3.org/2000/svg"><path d="M37.462 99c-11.452 9.052-17.325 18.491-14.935 26.223 2.685 8.691 15.246 13.396 32.84 13.755M64 83.36c7.138-3.228 14.95-6.17 23.248-8.68 26.459-8.003 51.316-9.627 66.752-5.452m-34 56.795a196.257 196.257 0 0 1-15.248 5.297c-18.03 5.453-35.317 7.945-49.385 7.658M152 108.933c13.109-9.628 20.033-19.872 17.473-28.156-1.682-5.442-7.236-9.322-15.473-11.55m0 0V48L96 25 38 48v38c0 11.464 1.804 21.403 4.776 30m12.59 22.978C72.455 160.505 96 167 96 167s54.402-15.007 57.831-75" stroke="#000" stroke-width="12" stroke-linecap="round" stroke-linejoin="round"/></svg>