<?xml version="1.0" standalone="no"?>
<!DOCTYPE svg PUBLIC "-//W3C//DTD SVG 20010904//EN"
 "http://www.w3.org/TR/2001/REC-SVG-20010904/DTD/svg10.dtd">
<svg version="1.0" xmlns="http://www.w3.org/2000/svg"
 width="192.000000pt" height="192.000000pt" viewBox="0 0 192.000000 192.000000"
 preserveAspectRatio="xMidYMid meet">

<g transform="translate(0.000000,192.000000) scale(0.100000,-0.100000)"
fill="#000000" stroke="none">
<path d="M317 1710 c-20 -16 -27 -30 -27 -55 0 -30 9 -41 76 -96 41 -35 80
-71 85 -80 5 -10 9 -262 9 -608 l0 -591 34 -38 34 -37 282 -3 c329 -3 420 7
539 63 96 46 146 87 191 157 97 149 90 346 -16 485 -28 37 -62 43 -87 15 -23
-25 -21 -41 9 -85 38 -57 55 -115 56 -190 0 -57 -6 -80 -31 -132 -48 -97 -124
-152 -257 -185 -72 -18 -107 -20 -364 -18 l-285 3 -5 600 c-6 667 -1 622 -74
681 l-31 24 370 -2 c358 -3 372 -4 426 -26 72 -29 141 -89 170 -148 53 -110
13 -222 -123 -348 -82 -77 -92 -100 -58 -131 31 -28 67 -11 155 78 112 112
150 189 150 302 0 71 -4 88 -33 147 -51 105 -140 174 -277 216 -41 13 -130 16
-470 19 -418 4 -421 4 -448 -17z"/>
<path d="M741 1481 c-20 -20 -21 -32 -21 -204 0 -245 -14 -230 222 -225 156 3
178 6 221 27 169 83 171 304 2 394 -36 19 -60 22 -222 25 -173 4 -182 3 -202
-17z m318 -91 c50 -7 71 -15 93 -37 38 -39 45 -88 18 -131 -32 -51 -70 -62
-220 -62 l-130 0 0 113 c0 63 3 117 7 120 9 10 157 8 232 -3z"/>
<path d="M748 910 l-28 -21 0 -210 c0 -270 -17 -249 208 -249 188 0 260 13
322 57 119 86 136 258 35 359 -65 64 -110 76 -325 81 -179 5 -186 4 -212 -17z
m396 -101 c22 -6 52 -24 68 -39 23 -24 28 -37 28 -79 0 -27 -5 -62 -12 -76
-27 -59 -132 -88 -303 -83 l-100 3 -3 143 -3 142 143 0 c79 0 161 -5 182 -11z"/>
</g>
</svg>
