<svg width="192" height="192" viewBox="0 0 192 192" fill="none" xmlns="http://www.w3.org/2000/svg"><path d="M124 89a28.002 28.002 0 0 1-28 28 28.002 28.002 0 0 1-28-28h56ZM72 60a6 6 0 0 1 12 0H72Z" stroke="#000" stroke-width="12" stroke-linecap="round" stroke-linejoin="round"/><ellipse cx="118" cy="57" rx="6" ry="9" stroke="#000" stroke-width="12" stroke-linecap="round" stroke-linejoin="round"/><path d="M32 136V28a6 6 0 0 1 6-6h116a6 6 0 0 1 6 6v108a6 6 0 0 1-6 6h-46l-18 28-1-28H38a6 6 0 0 1-6-6Z" stroke="#000" stroke-width="12" stroke-linecap="round" stroke-linejoin="round"/></svg>