<svg width="192" height="192" viewBox="0 0 192 192" fill="none" xmlns="http://www.w3.org/2000/svg"><path d="M107.388 76.5a43.998 43.998 0 0 0-55.012 36.757 44.003 44.003 0 0 0 25.465 45.821A43.998 43.998 0 0 0 96 163" stroke="#000" stroke-width="12" stroke-linecap="round" stroke-linejoin="round"/><path d="M108 98.215A24 24 0 1 0 96 143" stroke="#000" stroke-width="12" stroke-linecap="round" stroke-linejoin="round"/><path d="M96 55a64 64 0 0 0-56.882 93.334A74.004 74.004 0 0 1 31.914 64a74 74 0 1 1 125.012 79H96m0 20h40.398" stroke="#000" stroke-width="12" stroke-linecap="round" stroke-linejoin="round"/></svg>