<?xml version="1.0" encoding="UTF-8" standalone="no"?>
<svg
   width="192"
   height="192"
   fill="none"
   stroke="#000"
   stroke-linecap="round"
   stroke-width="12"
   viewBox="0 0 192 192"
   version="1.1"
   id="svg2"
   xmlns="http://www.w3.org/2000/svg"
   xmlns:svg="http://www.w3.org/2000/svg">
  <defs
     id="defs2" />
  <path
     stroke-linejoin="round"
     d="M 152.81077,55.141059 V 28.000188 c 0,-3.313699 -2.68647,-5.999988 -6.00041,-5.999988 H 38.802905 c -3.314229,0 -6.000414,2.656996 -6.000414,5.969987 V 102 m 113.867089,22.25261 c -15.29419,27.74973 -53.862947,45.74719 -53.862947,45.74719 0,0 -60.004142,-27.99991 -60.004142,-67.9998"
     id="path1"
     style="stroke-width:12;stroke-linecap:round" />
  <path
     d="M 92.806633,22.0002 V 169.9998"
     id="path2"
     style="stroke-width:12;stroke-linecap:round;stroke-linejoin:round" />
  <path
     d="m 111.19309,71.607358 c 0,-8.839976 7.16049,-15.999957 16.0011,-15.999957 h 32.0022 c 8.84062,0 16.0011,7.159981 16.0011,15.999957 v 31.999912 c 0,8.83654 -7.16393,15.99996 -16.0011,15.99996 h -32.0022 c -8.84061,0 -16.0011,-7.15998 -16.0011,-15.99996 z"
     id="path1-0"
     style="stroke-width:12;stroke-linejoin:round" />
  <path
     stroke-width="8"
     d="M 133.1946,101.60728 V 73.607353 h 12.00083 c 3.73726,0 6.97448,3.34599 6.97448,6.030983 0,6.619984 -4.06528,7.968981 -6.97448,7.968981 h -12.00083 13.0009 c 4.79333,0 8.05655,2.804991 8.05655,7.04198 0,4.709988 -3.70025,6.957983 -8.05655,6.957983 z"
     id="path3"
     style="stroke-linecap:round;stroke-linejoin:round" />
</svg>
