<svg id="Layer_1" data-name="Layer 1" xmlns="http://www.w3.org/2000/svg" viewBox="0 0 24 24">
  <path d="M20.085,2.95291a.8119.8119,0,0,0-.58688-.2471H4.50193a.84385.84385,0,0,0-.834.834v10A6.04931,6.04931,0,0,0,4.10039,15.756a8.33588,8.33588,0,0,0,1.08108,1.95367,12.20254,12.20254,0,0,0,1.53667,1.66023,17.645,17.645,0,0,0,1.6448,1.34362c.50193.35522,1.027.695,1.57528,1.01159s.93437.53281,1.166.64093c.23166.11583.417.20076.556.26254A.71018.71018,0,0,0,12,22.70581a.73151.73151,0,0,0,.33977-.07722c.139-.06178.32432-.14671.556-.26254s.61776-.32434,1.166-.64093,1.07335-.65637,1.57528-1.01159a17.645,17.645,0,0,0,1.6448-1.34362,12.20191,12.20191,0,0,0,1.53667-1.66023A8.33588,8.33588,0,0,0,19.89961,15.756a5.92366,5.92366,0,0,0,.43244-2.21622v-10A.82486.82486,0,0,0,20.085,2.95291Zm-1.9305,10.67954c0,3.62162-6.14673,6.73359-6.14673,6.73359V4.84481h6.14673Z"/>
</svg>
