<svg width="24" height="24" viewBox="0 0 24 24" fill="none" xmlns="http://www.w3.org/2000/svg">
<path fill-rule="evenodd" clip-rule="evenodd" d="M5 2C4.44772 2 4 2.44772 4 3V11.8548C4 14.4541 5.26292 16.8915 7.38653 18.3905L11.8857 21.5664C12.2496 21.8232 12.7394 21.8085 13.0871 21.5303L16.9976 18.402C18.8953 16.8838 20 14.5853 20 12.155V3C20 2.44772 19.5523 2 19 2H5ZM18.5 4.3146V11.5099C18.5 13.8514 17.4741 16.0754 15.693 17.5953L12.875 20V3.3146H17.5C18.0523 3.3146 18.5 3.76232 18.5 4.3146Z" fill="black"/>
</svg>
