<?xml version="1.0" encoding="UTF-8" standalone="no"?>
<svg
   width="192"
   height="192"
   fill="none"
   stroke="#000"
   stroke-linecap="round"
   stroke-width="12"
   viewBox="0 0 192 192"
   version="1.1"
   id="svg2"
   xml:space="preserve"
   xmlns="http://www.w3.org/2000/svg"
   xmlns:svg="http://www.w3.org/2000/svg"><defs
     id="defs2" /><path
     stroke-linejoin="round"
     d="M 130.87812,102.51333 V 60.271106 c 0,-1.8916 -1.56618,-3.425045 -3.49817,-3.425045 H 64.412857 c -1.932156,0 -3.498172,1.516723 -3.498172,3.407919 v 42.25935 m 69.963435,0 c 0,22.83363 -34.981714,38.81719 -34.981714,38.81719 0,0 -34.981722,-15.98356 -34.981722,-38.81719"
     id="path1"
     style="stroke-width:12" /><path
     d="M 96.479446,56.846061 V 141.33052"
     id="path2"
     style="stroke-width:12" /><path
     style="fill:none;stroke:#000000;stroke-width:12.0001;stroke-linecap:round;stroke-linejoin:round;stroke-miterlimit:32;stroke-dasharray:none;stroke-dashoffset:0;paint-order:stroke fill markers"
     d="m 25.000131,71.002597 v -29.6339 A 16.727639,16.368645 0 0 1 41.727769,25.000052 h 30.283824"
     id="path13" /><path
     style="fill:none;stroke:#000000;stroke-width:12.0001;stroke-linecap:round;stroke-linejoin:round;stroke-miterlimit:32;stroke-dasharray:none;stroke-dashoffset:0;paint-order:stroke fill markers"
     d="m 119.98849,25.000052 h 30.28382 a 16.727639,16.368645 0 0 1 16.72764,16.368645 v 29.633901"
     id="path14" /><path
     style="fill:none;stroke:#000000;stroke-width:12.0001;stroke-linecap:round;stroke-linejoin:round;stroke-miterlimit:32;stroke-dasharray:none;stroke-dashoffset:0;paint-order:stroke fill markers"
     d="m 166.99995,120.9974 v 29.63391 a 16.727639,16.368645 0 0 1 -16.72764,16.36864 h -30.28382"
     id="path15" /><path
     style="fill:none;stroke:#000000;stroke-width:12.0001;stroke-linecap:round;stroke-linejoin:round;stroke-miterlimit:32;stroke-dasharray:none;stroke-dashoffset:0;paint-order:stroke fill markers"
     d="M 72.011512,166.99995 H 41.727688 A 16.727639,16.368645 0 0 1 25.00005,150.6313 v -29.6339"
     id="path17" /></svg>
