<svg xmlns="http://www.w3.org/2000/svg" xml:space="preserve" width="192" height="192" viewBox="0 0 50.8 50.8"><path d="M20.117 28.952h-4.984a3.907 3.907 56.928 0 1-3.573-5.488l6.793-15.36m12.15 9.864h4.742a3.157 3.157 65.78 0 1 2.363 5.252L25.877 36.45m-5.76-7.5h4.608a3.522 3.522 66.05 0 1 2.613 5.883l-5.472 6.056a2.33 2.33 27.48 0 1-4-2.08zm1.47-23.1h10.005a2.76 2.76 56.837 0 1 2.529 3.868l-3.617 8.249h-6.255a6.68 6.68 56.837 0 1-6.117-9.36l.308-.702a3.44 3.44 146.837 0 1 3.146-2.056" style="opacity:1;fill:none;fill-opacity:1;stroke:#000;stroke-width:2.90048;stroke-linecap:round;stroke-linejoin:round;stroke-dasharray:none;stroke-opacity:1;paint-order:markers fill stroke" transform="matrix(1.09537 0 0 1.09393 -1.091 -.58)"/></svg>