<?xml version="1.0" encoding="UTF-8" standalone="no"?>
<svg
   width="192"
   height="192"
   viewBox="0 0 192 192"
   fill="none"
   version="1.1"
   id="svg6"
   sodipodi:docname="blabber.svg"
   inkscape:version="1.1.2 (0a00cf5339, 2022-02-04, custom)"
   xmlns:inkscape="http://www.inkscape.org/namespaces/inkscape"
   xmlns:sodipodi="http://sodipodi.sourceforge.net/DTD/sodipodi-0.dtd"
   xmlns="http://www.w3.org/2000/svg"
   xmlns:svg="http://www.w3.org/2000/svg">
  <defs
     id="defs10" />
  <sodipodi:namedview
     id="namedview8"
     pagecolor="#ffffff"
     bordercolor="#666666"
     borderopacity="1.0"
     inkscape:pageshadow="2"
     inkscape:pageopacity="0.0"
     inkscape:pagecheckerboard="0"
     showgrid="false"
     inkscape:zoom="4"
     inkscape:cx="89"
     inkscape:cy="81.25"
     inkscape:window-width="1956"
     inkscape:window-height="1396"
     inkscape:window-x="0"
     inkscape:window-y="0"
     inkscape:window-maximized="0"
     inkscape:current-layer="svg6" />
  <g
     id="g8224"
     transform="translate(0,3.7492568)">
    <path
       id="path2"
       style="color:#000000;fill:#000000;-inkscape-stroke:none"
       d="m 30,17.892578 c -7.048942,0 -14,4.908863 -14,12.490234 V 125.50977 C 16,133.09117 22.95084,138 30,138 h 41.416016 c -0.02267,-0.0216 -0.04577,-0.0427 -0.06836,-0.0644 -0.118735,-0.11417 -0.229107,-0.22935 -0.339844,-0.34375 -7.831366,-4.51794 -12.703238,-7.4347 -15.234615,-11.19233 L 30,126.00005 c -1.787216,-0.0277 -2,-0.9032 -2,-0.49023 V 30.382812 c 0,0.412453 0.212351,-0.490234 2,-0.490234 h 132 c 1.78717,0 2,0.90302 2,0.490234 l -3.15576,95.527288 c 0,-0.41331 -0.21305,0.49023 -2,0.49023 H 136.10791 C 121.00233,143.8637 117.87809,138.00055 162,138.00055 c 7.04904,0 14,-4.9085 14,-12.49023 V 30.382812 c 0,-7.581704 -6.95118,-12.490234 -14,-12.490234 z"
       sodipodi:nodetypes="ssssccccsccssccsccssss" />
    <path
       d="m 55.576871,132.40485 40.423133,28.20419 40.423126,-28.20419"
       stroke="#000000"
       stroke-width="9.32841"
       stroke-linecap="round"
       stroke-linejoin="round"
       id="path4"
       style="stroke-width:12;stroke-miterlimit:4;stroke-dasharray:none"
       sodipodi:nodetypes="ccc" />
  </g>
  <g
     id="g1065">
    <ellipse
       style="fill:#000000;fill-opacity:1;stroke:#000000;stroke-width:12;stroke-miterlimit:4;stroke-dasharray:none"
       id="path945"
       cx="96"
       cy="84"
       rx="4.956615"
       ry="4.8487973" />
    <ellipse
       style="fill:#000000;fill-opacity:1;stroke:#000000;stroke-width:12;stroke-miterlimit:4;stroke-dasharray:none"
       id="path945-3"
       cx="130"
       cy="84"
       rx="4.956615"
       ry="4.8487973" />
    <ellipse
       style="fill:#000000;fill-opacity:1;stroke:#000000;stroke-width:12;stroke-miterlimit:4;stroke-dasharray:none"
       id="path945-6"
       cx="62"
       cy="84"
       rx="4.956615"
       ry="4.8487973" />
  </g>
</svg>
