<?xml version="1.0" encoding="utf-8"?>
<!-- Generator: Adobe Illustrator 25.4.1, SVG Export Plug-In . SVG Version: 6.00 Build 0)  -->
<svg version="1.1" id="Layer_1" xmlns="http://www.w3.org/2000/svg" xmlns:xlink="http://www.w3.org/1999/xlink" x="0px" y="0px"
	 width="192px" height="192px" viewBox="0 0 192 192" style="enable-background:new 0 0 192 192;" xml:space="preserve">
<style type="text/css">
	.st0{fill:none;stroke:#000000;stroke-width:12;stroke-miterlimit:10;}
</style>
<path class="st0" d="M170,96c0,40.9-33.1,74-74,74s-74-33.1-74-74s33.1-74,74-74S170,55.1,170,96z M96,75.2
	c-11.5,0-20.8,9.3-20.8,20.8s9.3,20.8,20.8,20.8s20.8-9.3,20.8-20.8S107.5,75.2,96,75.2z M96,52.1c-17.9,0-32.4,14.5-32.4,32.4
	s14.5,32.4,32.4,32.4s32.4-14.5,32.4-32.4S113.9,52.1,96,52.1z M101.5,50.6c-24.3,0-43.9,19.7-43.9,43.9s19.7,43.9,43.9,43.9
	s43.9-19.7,43.9-43.9S125.7,50.6,101.5,50.6z M94,48.7c-33.5,0-60.6,27.2-60.6,60.6S60.5,170,94,170s60.6-27.2,60.6-60.6
	S127.5,48.7,94,48.7z"/>
</svg>
