<svg width="192" height="192" viewBox="0 0 192 192" fill="none" xmlns="http://www.w3.org/2000/svg"><path d="M84.862 108.992A31.932 31.932 0 0 1 96 107c3.917 0 7.669.704 11.138 1.992m-22.276 0c.091-.985.138-1.983.138-2.992a31.89 31.89 0 0 0-8.815-22.056m8.677 25.048c-1.154 12.446-9.435 22.825-20.724 27.016m0 0A31.932 31.932 0 0 1 53 138c-17.673 0-32-14.327-32-32 0-14.844 10.107-27.328 23.815-30.944m19.323 60.952A32.412 32.412 0 0 0 64 139c0 17.673 14.327 32 32 32 17.673 0 32-14.327 32-32 0-13.756-8.68-25.485-20.862-30.008M128 136.059A31.927 31.927 0 0 0 139 138c17.673 0 32-14.327 32-32 0-14.844-10.107-27.328-23.815-30.944m-40.047 33.936A32.517 32.517 0 0 1 107 106c0-8.55 3.353-16.316 8.815-22.056m-39.63 0A32.05 32.05 0 0 1 68 85c-9.124 0-17.355-3.818-23.185-9.944m31.37 8.888c8.513-2.246 15.638-7.912 19.815-15.44m-51.185 6.552A31.89 31.89 0 0 1 36 53c0-17.673 14.327-32 32-32 12.048 0 22.541 6.658 28 16.496m19.815 46.448C121.645 77.818 129.876 74 139 74c2.829 0 5.572.367 8.185 1.056m-31.37 8.888c-8.513-2.246-15.638-7.912-19.815-15.44m51.185 6.552A31.893 31.893 0 0 0 156 53c0-17.673-14.327-32-32-32-12.048 0-22.541 6.658-28 16.496m0 0A31.855 31.855 0 0 0 92 53a31.855 31.855 0 0 0 4 15.504" stroke="#000" stroke-width="10" stroke-linecap="round" stroke-linejoin="round"/></svg>

