<svg xmlns="http://www.w3.org/2000/svg" width="192" height="192" fill="none"><path stroke="#000" stroke-linecap="round" stroke-linejoin="round" stroke-width="12" d="M167 161V31a6 6 0 0 0-6-6h-33.292a6 6 0 0 0-5.366 3.317l-4.684 9.366A6 6 0 0 1 112.292 41H79.708a6 6 0 0 1-5.366-3.317l-4.684-9.366A6 6 0 0 0 64.292 25H31a6 6 0 0 0-6 6v130a6 6 0 0 0 6 6h33.292a6 6 0 0 0 5.366-3.317l4.684-9.366A6 6 0 0 1 79.708 151h32.584a6 6 0 0 1 5.366 3.317l4.684 9.366a6 6 0 0 0 5.366 3.317H161a6 6 0 0 0 6-6"/><path stroke="#000" stroke-linecap="round" stroke-linejoin="round" stroke-width="10" d="M52 61h8"/><circle cx="96" cy="98" r="28" stroke="#000" stroke-linecap="round" stroke-linejoin="round" stroke-width="12"/><circle cx="136" cy="61" r="4" stroke="#000" stroke-linecap="round" stroke-linejoin="round" stroke-width="8"/></svg>