<svg width="192" height="192" viewBox="0 0 192 192" fill="none" xmlns="http://www.w3.org/2000/svg"><path d="M136 36H28a6 6 0 0 0-6 6v68a6 6 0 0 0 6 6h108a6 6 0 0 0 6-6V42a6 6 0 0 0-6-6Z" stroke="#000" stroke-width="12" stroke-linecap="round" stroke-linejoin="round"/><path d="M162 70h2a6 6 0 0 1 6 6v68a6 6 0 0 1-6 6h-3v16l-23.521-15.054a6.001 6.001 0 0 0-3.235-.946H72a6 6 0 0 1-6-6v-8" stroke="#000" stroke-width="12" stroke-linecap="round" stroke-linejoin="round"/><path d="m42 56 40 20 40-20" stroke="#000" stroke-width="10" stroke-linecap="round" stroke-linejoin="round"/></svg>