<svg xmlns="http://www.w3.org/2000/svg" width="192" height="192" fill="none" stroke="#000" stroke-width="12" viewBox="0 0 192 192"><circle cx="96" cy="96" r="74"/><path d="M96 75.2c-11.5 0-20.8 9.3-20.8 20.8s9.3 20.8 20.8 20.8 20.8-9.3 20.8-20.8-9.3-20.8-20.8-20.8Zm0-23.1c-17.9 0-32.4 14.5-32.4 32.4s14.5 32.4 32.4 32.4 32.4-14.5 32.4-32.4S113.9 52.1 96 52.1Zm5.5-1.5c-24.3 0-43.9 19.7-43.9 43.9s19.7 43.9 43.9 43.9 43.9-19.7 43.9-43.9-19.7-43.9-43.9-43.9ZM94 48.7c-33.5 0-60.6 27.2-60.6 60.6S60.5 170 94 170s60.6-27.2 60.6-60.6S127.5 48.7 94 48.7Z"/></svg>