<svg xmlns="http://www.w3.org/2000/svg" width="192" height="192" fill="none"><path stroke="#000" stroke-linecap="round" stroke-linejoin="round" stroke-width="12" d="M135.846 99.539C151.113 93.906 162 79.224 162 62c0-22.091-17.909-40-40-40-20.899 0-38.054 16.027-39.846 36.461m53.692 41.078A39.9 39.9 0 0 1 122 102c-22.091 0-40-17.909-40-40q0-1.79.154-3.539m53.692 41.078c-1.375 15.675-11.79 28.757-26 34M82.154 58.461c-14.21 5.243-24.625 18.325-26 34m0 0A41 41 0 0 0 56 96c0 22.091 17.909 40 40 40a39.9 39.9 0 0 0 13.846-2.461M56.154 92.461C40.887 98.094 30 112.776 30 130c0 22.091 17.909 40 40 40 20.899 0 38.054-16.027 39.846-36.461"/></svg>