<svg width="192" height="192" viewBox="0 0 192 192" fill="none" xmlns="http://www.w3.org/2000/svg"><path d="m92 67-8.165-24.496a6 6 0 0 0-7.397-3.856l-15.741 4.664a6 6 0 0 0-4.065 7.401L61 66m31 1 40-27v26" stroke="#000" stroke-width="10" stroke-linecap="round" stroke-linejoin="round"/><circle cx="105" cy="26" r="5" stroke="#000" stroke-width="10" stroke-linecap="round" stroke-linejoin="round"/><circle cx="115" cy="96" r="4" stroke="#000" stroke-width="8" stroke-linecap="round" stroke-linejoin="round"/><circle cx="77" cy="96" r="4" stroke="#000" stroke-width="8" stroke-linecap="round" stroke-linejoin="round"/><path d="M115 119c0 4.243-2.002 8.313-5.565 11.314-3.563 3-8.396 4.686-13.435 4.686-5.04 0-9.872-1.686-13.435-4.686C79.002 127.313 77 123.243 77 119" stroke="#000" stroke-width="12" stroke-linecap="round" stroke-linejoin="round"/><path d="M96 68c-14.341 0-30.111-1.428-40.481-2.578-4.842-.537-8.933 4.797-7.626 9.49C50.326 83.647 53 97.648 53 117c0 20.666-3.05 35.233-5.6 43.797-1.28 4.304 1.943 9.203 6.433 9.203H96m0-102c14.341 0 30.111-1.428 40.481-2.578 4.842-.537 8.933 4.797 7.626 9.49C141.674 83.647 139 97.648 139 117c0 20.666 3.05 35.233 5.599 43.797 1.281 4.304-1.942 9.203-6.432 9.203H96" stroke="#000" stroke-width="12" stroke-linecap="round" stroke-linejoin="round"/></svg>