<svg width="192" height="192" viewBox="0 0 192 192" fill="none" xmlns="http://www.w3.org/2000/svg"><path d="M133 26.914a74.003 74.003 0 0 1 34.479 83.239A74.007 74.007 0 0 1 96 165 73.998 73.998 0 0 1 27.633 62.681 74 74 0 0 1 59 26.914" stroke="#000" stroke-width="12" stroke-linecap="round" stroke-linejoin="round"/><path d="M120 96a23.997 23.997 0 0 1-14.816 22.173 23.997 23.997 0 0 1-31.357-12.989A23.995 23.995 0 0 1 72 96m61-69.09C85 74.91 72 80 72 96" stroke="#000" stroke-width="12" stroke-linecap="round" stroke-linejoin="round"/><path d="M59 26.91c48 48 61 53.09 61 69.09" stroke="#000" stroke-width="12" stroke-linecap="round" stroke-linejoin="round"/></svg>