<svg width="192" height="192" xml:space="preserve" xmlns="http://www.w3.org/2000/svg"><g fill="none" stroke="#000" stroke-linecap="round" stroke-linejoin="round" stroke-miterlimit="15"><path d="M49.245 155.41C25.064 124.774 22 101.578 22 91.84s3.819-23.481 16.236-29.438c12.418-5.957 23.35-1.41 27.992 2.612 4.642 4.024 11.478 14.46 14.114 21.614 2.184 5.927 8.814 6.202 13.65 5.047 4.77-1.139 25.626-4.637 39.74 6.25 14.115 10.887 14.333 24.805 13.622 29.51-.711 4.705-5.143 19.855-21.774 25.107-16.631 5.252-25.408 6.805-38.812 6.805-13.403 0-27.943-.965-30.077-1.13-2.134-.164-6.09-1.236-7.449-2.806z" stroke-width="12" style="paint-order:markers stroke fill"/><path d="M60.541 48.659c3.106-3.195 6.596-5.854 9.975-7.8 3.076-1.773 14.27-8.585 20.498-5.373 7.697 3.972 15.214 20.84 18.059 30.031 2.845 9.191 4.705 8.889 12.255 9.108 7.55.218 12.433-.343 23.13 2.524 27.775 7.195 27.447 16.047 27.543 20.616-.411 13.823-6.643 25.146-12.573 32.403M43.242 74.237c-2.783 5.467-4.432 12.381-5.205 17.287-.777 4.934-1.302 6.784-1.082 15.427" stroke-width="8" style="paint-order:markers stroke fill"/></g></svg>