<svg width="192" height="192" viewBox="0 0 192 192" fill="none" xmlns="http://www.w3.org/2000/svg">
<path d="M51.3888 30.88C52.3387 25.9757 57.1441 22 62.1221 22H134.23C139.208 22 142.473 25.9757 141.524 30.88L116.299 161.12C115.349 166.024 110.544 170 105.566 170H33.4579C28.4799 170 25.2144 166.024 26.1643 161.12L51.3888 30.88Z" stroke="black" stroke-width="12" stroke-linejoin="round"/>
<path d="M64.2352 119.68C65.1851 114.776 69.9905 110.8 74.9685 110.8H147.076C152.054 110.8 155.32 114.776 154.37 119.68L152.077 131.52C151.127 136.424 146.322 140.4 141.344 140.4H69.2357C64.2577 140.4 60.9922 136.424 61.9421 131.52L64.2352 119.68Z" stroke="black" stroke-width="12" stroke-linejoin="round"/>
<path d="M75.7009 60.48C76.6508 55.5757 81.4562 51.6 86.4342 51.6H158.542C163.52 51.6 166.786 55.5757 165.836 60.48L163.543 72.32C162.593 77.2243 157.787 81.2 152.809 81.2H80.7014C75.7234 81.2 72.4579 77.2243 73.4078 72.32L75.7009 60.48Z" stroke="black" stroke-width="12" stroke-linejoin="round"/>
</svg>
