<svg width="192" height="192" viewBox="0 0 192 192" fill="none" xmlns="http://www.w3.org/2000/svg">
<path d="M47.1085 37.102C48.7249 28.7614 56.9027 22 65.3741 22H130.82C139.291 22 144.848 28.7614 143.232 37.102L120.403 154.898C118.786 163.239 110.609 170 102.137 170H36.6916C28.2202 170 22.6632 163.239 24.2796 154.898L47.1085 37.102Z" stroke="black" stroke-width="12" stroke-linejoin="round"/>
<path d="M60.5687 120.667C61.6463 115.106 67.0981 110.599 72.7457 110.599H148.417C154.065 110.599 157.769 115.106 156.692 120.667L155.131 128.721C154.053 134.282 148.601 138.789 142.954 138.789H67.2824C61.6348 138.789 57.9301 134.282 59.0077 128.721L60.5687 120.667Z" stroke="black" stroke-width="12" stroke-linejoin="round"/>
<path d="M71.6904 63.2789C72.768 57.7185 78.2199 53.2109 83.8675 53.2109H159.539C165.187 53.2109 168.891 57.7185 167.814 63.2789L166.253 71.3333C165.175 76.8938 159.723 81.4014 154.076 81.4014H78.4042C72.7566 81.4014 69.0519 76.8938 70.1295 71.3333L71.6904 63.2789Z" stroke="black" stroke-width="12" stroke-linejoin="round"/>
</svg>
