<svg xmlns="http://www.w3.org/2000/svg" width="192" height="192" fill="none"><path stroke="#000" stroke-linejoin="round" stroke-width="12" d="M169.16 56.703A4 4 0 0 0 165.222 52H83.349a4 4 0 0 0-3.938 3.297l-3.571 20A4 4 0 0 0 79.778 80h81.873a4 4 0 0 0 3.938-3.297zm-10 60a4 4 0 0 0-3.938-4.703H73.349a4 4 0 0 0-3.938 3.297l-3.571 20A4 4 0 0 0 69.778 140h81.873a4 4 0 0 0 3.938-3.297z"/><path stroke="#000" stroke-linejoin="round" stroke-width="12" d="M139.939 33.73c1.076-6.12-3.634-11.73-9.849-11.73H62.396a10 10 0 0 0-9.849 8.27l-22.486 128C28.985 164.391 33.695 170 39.91 170h67.694a10 10 0 0 0 9.849-8.27z"/></svg>