<svg width="192" height="192" viewBox="0 0 192 192" fill="none" xmlns="http://www.w3.org/2000/svg"><path d="M99 170c14.056 0 27.537-5.9 37.477-16.402C146.416 143.096 152 128.852 152 114s-5.584-29.096-15.523-39.598C126.537 63.9 113.056 58 99 58" stroke="#000" stroke-width="12" stroke-linecap="round" stroke-linejoin="round"/><path d="M99 132c4.509 0 8.833-1.896 12.021-5.272C114.209 123.352 116 118.774 116 114s-1.791-9.352-4.979-12.728C107.833 97.896 103.509 96 99 96m-8 0v36m0-74h8m-8 38h8m-8 36h8m-8-74V28a6 6 0 0 0-6-6H57a6 6 0 0 0-6 6v136a6 6 0 0 0 6 6h41" stroke="#000" stroke-width="12" stroke-linecap="round" stroke-linejoin="round"/></svg>