<svg width="192" height="192" viewBox="0 0 192 192" fill="none" xmlns="http://www.w3.org/2000/svg"><path d="M105 66c-51 0-66 70-66 91m0-118v37m34-37c0 15-20 18-34 37m66 94c-34 0-33-18-66-13m66 13a52.005 52.005 0 0 0 36.77-15.23 52.005 52.005 0 0 0 0-73.54A52.002 52.002 0 0 0 105 66" stroke="#000" stroke-width="12" stroke-linecap="round" stroke-linejoin="round"/><circle cx="105" cy="118" r="22" stroke="#000" stroke-width="12" stroke-linecap="round" stroke-linejoin="round"/><path d="M73 39a17 17 0 0 0-34 0" stroke="#000" stroke-width="12" stroke-linecap="round" stroke-linejoin="round"/></svg>