<svg width="192" height="192" fill="none" xmlns="http://www.w3.org/2000/svg"><path d="M110 25v50a6 6 0 0 1-6 6H88a6 6 0 0 1-6-6V25M60 53h72a6 6 0 0 0 6-6V31a6 6 0 0 0-6-6H60a6 6 0 0 0-6 6v16a6 6 0 0 0 6 6Zm-6 114V83a6 6 0 0 0-6-6H31a6 6 0 0 0-6 6v28m29 56H31a6 6 0 0 1-6-6v-22m29 28h28m56 0h23a6 6 0 0 0 6-6v-22m-29 28V83a6 6 0 0 1 6-6h17a6 6 0 0 1 6 6v28m-29 56h-28m-28 0h28m-28 0v-28m28 28v-28m-28 0h28m-28 0v-22a6 6 0 0 0-6-6H25m57 28H25m85 0v-22a6 6 0 0 1 6-6h51m-57 28h57m-142 0v-28m142 28v-28" stroke="#000" stroke-width="12" stroke-linecap="round" stroke-linejoin="round"/></svg>