<svg width="192" height="192" viewBox="0 0 192 192" fill="none" xmlns="http://www.w3.org/2000/svg"><path d="M59.5 97H24v35.5M59.5 97H89a6 6 0 0 1 6 6v29.5M59.5 97v71m0 0H95v-35.5M59.5 168H30a6 6 0 0 1-6-6v-29.5m0 0h71" stroke="#000" stroke-width="10" stroke-linecap="round" stroke-linejoin="round"/><path d="M60 96H24v36m36-36h30a6 6 0 0 1 6 6v30M60 96v72m0 0h36v-36m-36 36H30a6 6 0 0 1-6-6v-30m0 0h72m0 36h36m0 0h30a6 6 0 0 0 6-6v-30m-36 36v-54m-36 18h72m0 0v-30a6 6 0 0 0-6-6h-12M60 24H30a6 6 0 0 0-6 6v30m36-36h30a6 6 0 0 1 6 6v12M60 24v36m0 36V60m0 0H24m36 0h18M24 96V60m126 18V48a6 6 0 0 0-6-6h-30m36 36v30a6 6 0 0 1-6 6h-24a6 6 0 0 1-6-6V78m36 0h-36m0 0H84a6 6 0 0 1-6-6V48a6 6 0 0 1 6-6h30m0 36V42" stroke="#000" stroke-width="10" stroke-linecap="round" stroke-linejoin="round"/></svg>