<svg xmlns="http://www.w3.org/2000/svg" width="192" height="192" fill="none"><path stroke="#000" stroke-linecap="round" stroke-linejoin="round" stroke-width="12" d="M96.005 34v50m25-25h-50M71 40a6 6 0 0 1 6-6h38a6 6 0 0 1 6 6v38a6 6 0 0 1-6 6H77a6 6 0 0 1-6-6zm0 93v-19a6 6 0 0 0-6-6H47m24 25v25m0-25h25m-25 0H47m24 25H53a6 6 0 0 1-6-6v-19m24 25h25m-49-50H28a6 6 0 0 0-6 6v13a6 6 0 0 0 6 6h19m0-25v25m49 0v25m0-25h25.005M96 158h25.005m0-25v-19a6 6 0 0 1 6-6h18m-24 25v25m0-25h24m-24 25h18a6 6 0 0 0 6-6v-19m0-25h19a6 6 0 0 1 6 6v13a6 6 0 0 1-6 6h-19m0-25v25"/></svg>