<svg width="24" height="24" xmlns="http://www.w3.org/2000/svg">
  <path fill="#000" d="m12 .88-.451.228c-1.67.842-3.333 1.443-4.703 1.645s-2.353.005-2.936-.505L2.6 1.102 2.27 2.809c-1.013 5.18.108 9.276 2.078 12.48 1.97 3.2 4.738 5.538 7.002 7.475l.65.556.65-.556c2.265-1.936 5.033-4.274 7.003-7.475 1.97-3.2 3.092-7.295 2.078-12.48l-.332-1.707-1.31 1.146c-.582.51-1.565.708-2.935.506-1.37-.203-3.034-.805-4.703-1.646zm0 2.169c1.649.794 3.312 1.452 4.861 1.682 1.083.16 2.1.034 3.043-.273.29 2.279.139 4.267-.33 6.029L10.64 3.663c.452-.191.907-.397 1.359-.615zM4.086 4.557l13.64 9.115-13.73-5.686a16.991 16.991 0 0 1 .088-3.43zm.033 4.434 10.59 9.203a54.78 54.78 0 0 1-2.707 2.459c-2.099-1.807-4.356-3.826-5.949-6.414A13.846 13.846 0 0 1 4.121 8.99z"/>
</svg>
