<?xml version="1.0" encoding="UTF-8" standalone="no"?>
<!-- Created with Inkscape (http://www.inkscape.org/) -->

<svg
   width="192"
   height="192"
   viewBox="0 0 50.799999 50.8"
   version="1.1"
   id="svg5"
   xml:space="preserve"
   xmlns="http://www.w3.org/2000/svg"
   xmlns:svg="http://www.w3.org/2000/svg"><defs
     id="defs2" /><path
     id="path1892"
     style="fill:none;fill-opacity:1;stroke:#000000;stroke-width:1.78946;stroke-dasharray:none;stroke-opacity:1"
     class="UnoptimicedTransforms"
     d="m 53.036371,76.954636 c -0.01746,-0.01804 -1.302056,0.834971 -2.854865,1.8955 -2.823286,1.928231 -2.82332,1.928304 -3.602106,1.947454 -0.579737,0.01426 -1.010228,0.100034 -1.683618,0.335843 -0.497525,0.174227 -1.143377,0.456969 -1.435434,0.628338 -0.407062,0.238853 -0.755597,0.536474 -1.493607,1.274842 -0.858997,0.859416 -1.013129,1.049175 -1.42836,1.761652 -0.255951,0.439182 -0.69624,1.269363 -0.978599,1.84481 -0.28236,0.57545 -0.5212,1.042732 -0.5308,1.038532 -0.0095,-0.0044 -0.286076,-0.04553 -0.614059,-0.09167 -0.327988,-0.04614 -1.070398,-0.07517 -1.649791,-0.06454 -0.579385,0.01062 -1.392602,0.09063 -1.807602,0.177802 -0.415004,0.08718 -0.959091,0.251653 -1.209025,0.365483 -0.24994,0.113835 -0.589893,0.342236 -0.755221,0.507565 -0.165333,0.165332 -0.353965,0.430836 -0.419245,0.589817 -0.06531,0.158982 -0.09323,0.372956 -0.06217,0.475551 0.03107,0.102586 0.245928,0.37601 0.477581,0.60766 0.272427,0.272429 0.732915,0.604898 1.303762,0.941716 0.485403,0.286397 1.266494,0.687094 1.735889,0.890298 0.469396,0.203202 0.954811,0.398306 1.078679,0.433466 0.200029,0.05679 0.232887,0.103414 0.292797,0.416336 0.04561,0.238249 0.153017,0.437674 0.331786,0.616444 0.145402,0.145402 0.406562,0.323057 0.580414,0.394437 0.173849,0.07139 0.426427,0.132949 0.5612,0.137149 0.244976,0.0076 0.245127,0.0082 0.602449,1.02447 0.196577,0.559093 0.555384,1.414462 0.797334,1.900749 0.279282,0.561341 0.588433,1.053748 0.846564,1.348887 0.291826,0.333699 0.456928,0.469397 0.585155,0.481307 0.09825,0.0091 0.255978,-0.01606 0.350628,-0.05612 0.09466,-0.04006 0.325431,-0.222451 0.512682,-0.405505 0.191706,-0.187449 0.440602,-0.538113 0.569688,-0.802609 0.126068,-0.258319 0.303579,-0.732608 0.394389,-1.053857 0.09081,-0.321252 0.219638,-1.010238 0.286208,-1.531313 0.06656,-0.521072 0.107842,-1.412252 0.09203,-1.980235 -0.02875,-1.032697 -0.02858,-1.032559 0.805412,-1.541833 0.458705,-0.280104 1.199949,-0.766293 1.647194,-1.080389 0.447244,-0.314096 1.140286,-0.866816 1.540119,-1.228325 0.436018,-0.394225 0.878814,-0.865856 1.106454,-1.177984 0.208753,-0.286223 0.501456,-0.772244 0.650519,-1.080266 0.149065,-0.308025 0.317497,-0.791033 0.374117,-1.073322 0.05662,-0.282289 0.10312,-0.751768 0.103609,-1.043283 4.8e-4,-0.291518 -0.03881,-0.711068 -0.08753,-0.932312 -0.04877,-0.221243 -0.04587,-0.423511 0.0065,-0.449701 0.05238,-0.02619 0.751208,-1.479196 1.552911,-3.228784 0.801702,-1.749589 1.443352,-3.196001 1.425952,-3.214061 z"
     transform="matrix(1.7721272,0.01656468,-0.01652591,1.776284,-50.280601,-131.28811)" /></svg>
