<svg xmlns="http://www.w3.org/2000/svg" width="192" height="192" fill="none"><path stroke="#000" stroke-linecap="round" stroke-linejoin="round" stroke-width="12" d="m96 34-8-12c-21.306 9.131-19.45 33.318-17.347 44.36-11.1-4.774-31.388-10.114-44.512 6.564l9.52 10.834L22 88.378c2.725 18.915 19.406 25.274 31.462 27.386-7.794 9.3-18.481 26.952-6.494 44.198l13.144-5.937.424 14.416c18.973 2.938 29.945-11.301 35.465-22.233 5.52 10.932 16.492 25.171 35.464 22.233l.425-14.416 13.144 5.937c11.987-17.246 1.299-34.899-6.494-44.198 12.056-2.113 28.735-8.472 31.46-27.385l-13.662-4.621 9.521-10.834c-13.124-16.678-33.411-11.338-44.512-6.564C123.451 55.318 125.307 31.13 104 22z"/><path stroke="#000" stroke-linecap="round" stroke-linejoin="round" stroke-width="12" d="M82 87.317c0-1.506 1.602-2.472 2.933-1.769l29.716 15.683c1.422.751 1.422 2.787 0 3.538l-29.716 15.683c-1.331.703-2.933-.263-2.933-1.769z"/></svg>