<svg width="192" height="192" fill="none" xmlns="http://www.w3.org/2000/svg"><path d="M75.094 44.997A17.998 17.998 0 0 1 96 52.05a17.998 17.998 0 0 1 20.906-7.053m-41.812 0a17.983 17.983 0 0 0-8.008 5.584 18 18 0 0 0-4.056 12.448 17.997 17.997 0 0 0-17.893 11.675m29.957-29.707A21.254 21.254 0 0 1 75 43c0-11.598 9.402-21 21-21s21 9.402 21 21c0 .673-.032 1.34-.094 1.997m-71.91 30.097A17.998 17.998 0 0 0 52.05 96a17.998 17.998 0 0 0-7.053 20.906m0-41.812A21.254 21.254 0 0 0 43 75c-11.598 0-21 9.402-21 21s9.402 21 21 21c.673 0 1.34-.032 1.997-.094m0-41.812c.045-.13.092-.26.14-.39m28.236-31.03a21 21 0 1 0-28.236 31.03m71.769-29.707a18 18 0 0 1 12.065 18.033 17.998 17.998 0 0 1 17.892 11.674m.14.39A17.994 17.994 0 0 1 139.95 96a17.992 17.992 0 0 1 7.053 20.906m0-41.812A21.282 21.282 0 0 1 149 75c11.598 0 21 9.402 21 21s-9.402 21-21 21c-.673 0-1.339-.032-1.997-.094m0-41.812a20.27 20.27 0 0 0-.14-.39m-28.236-31.03a21.006 21.006 0 0 1 20.285-5.435 21 21 0 0 1 7.951 36.465m-71.77 72.299A17.994 17.994 0 0 0 96 139.95a17.992 17.992 0 0 0 20.906 7.053m-41.811 0a18.005 18.005 0 0 1-12.064-18.032 17.993 17.993 0 0 1-17.892-11.675m29.956 29.707A21.282 21.282 0 0 0 75 149c0 11.598 9.402 21 21 21s21-9.402 21-21c0-.673-.032-1.339-.094-1.997m-71.91-30.097c.046.131.093.261.141.39m28.236 31.03a21.004 21.004 0 0 1-20.285 5.435 21.005 21.005 0 0 1-14.85-14.849 21.002 21.002 0 0 1 6.9-21.616m71.768 29.707a18.004 18.004 0 0 0 12.065-18.032 17.992 17.992 0 0 0 17.892-11.675m.14-.39c-.045.131-.092.261-.14.39m-28.236 31.03a21.01 21.01 0 0 0 20.285 5.435 21.005 21.005 0 0 0 14.849-14.849 21.004 21.004 0 0 0-6.898-21.616M106 74.176c8.262 3.792 14 12.138 14 21.824a24.2 24.2 0 0 1-.104 2.247M86 74.177C77.738 77.967 72 86.313 72 96c0 .758.035 1.507.104 2.247m37.792 17.323A23.886 23.886 0 0 1 96 120c-5.179 0-9.975-1.64-13.896-4.43" stroke="#000" stroke-width="12" stroke-linecap="round" stroke-linejoin="round"/></svg>