<svg xmlns="http://www.w3.org/2000/svg" width="192" height="192" fill="none"><path stroke="#000" stroke-linecap="round" stroke-linejoin="round" stroke-width="12" d="M22 62v66m0-17.169c0 9.907 8.711 14.231 14.7 15.911 5.47 1.534 9.8 1.446 15.789.886 5.035-.922 9.857-2.859 13.185-6.89 3.33-4.031 5.21-9.136 5.32-14.446.112-5.309-1.552-10.495-4.709-14.673-3.156-4.177-7.61-7.09-12.6-8.239-4.992-1.149-10.06-.13-14.773 1.936C31.8 88.436 22 97.2 22 104.601M95 62v66m74.996-17.295c0 9.98-8.712 14.336-14.701 16.028-5.469 1.545-9.8 1.457-15.789.893-5.035-.93-9.857-2.88-13.186-6.941-3.328-4.061-5.209-9.204-5.32-14.553V87m49 0v41"/></svg>