<svg width="192" height="192" viewBox="0 0 192 192" fill="none" xmlns="http://www.w3.org/2000/svg">
<path d="M22 63V129M22 111.831C22 121.738 30.7111 126.062 36.7 127.742C42.1693 129.276 46.5 129.188 52.4889 128.628C57.5236 127.706 62.3459 125.769 65.6745 121.738C69.0031 117.707 70.8834 112.602 70.9947 107.292C71.1061 101.983 69.4418 96.7972 66.2854 92.6193C63.129 88.4415 58.6757 85.5298 53.6844 84.3804C48.6931 83.2311 43.6248 84.2492 38.9124 86.316C31.8 89.4354 22 98.2 22 105.601" stroke="black" stroke-width="12" stroke-linecap="round" stroke-linejoin="round"/>
<path d="M95 63V129" stroke="black" stroke-width="12" stroke-linecap="round" stroke-linejoin="round"/>
<path d="M169.996 111.705C169.996 121.685 161.284 126.041 155.295 127.733C149.826 129.278 145.495 129.19 139.506 128.626C134.471 127.696 129.649 125.746 126.32 121.685C122.992 117.624 121.111 112.481 121 107.132V88M170 88L170 129" stroke="black" stroke-width="12" stroke-linecap="round" stroke-linejoin="round"/>
</svg>
