<svg width="192" height="192" viewBox="0 0 192 192" fill="none" xmlns="http://www.w3.org/2000/svg">
<path d="M22 62V128M22 110.831C22 120.738 30.7111 125.062 36.7 126.742C42.1693 128.276 46.5 128.188 52.4889 127.628C57.5236 126.706 62.3459 124.769 65.6745 120.738C69.0031 116.707 70.8834 111.602 70.9947 106.292C71.1061 100.983 69.4418 95.7972 66.2854 91.6193C63.129 87.4415 58.6757 84.5298 53.6844 83.3804C48.6931 82.2311 43.6248 83.2492 38.9124 85.316C31.8 88.4354 22 97.2 22 104.601" stroke="black" stroke-width="12" stroke-linecap="round" stroke-linejoin="round"/>
<path d="M95 62V128" stroke="black" stroke-width="12" stroke-linecap="round" stroke-linejoin="round"/>
<path d="M169.996 110.705C169.996 120.685 161.284 125.041 155.295 126.733C149.826 128.278 145.495 128.19 139.506 127.626C134.471 126.696 129.649 124.746 126.32 120.685C122.992 116.624 121.111 111.481 121 106.132V87M170 87L170 128" stroke="black" stroke-width="12" stroke-linecap="round" stroke-linejoin="round"/>
</svg>
