<svg xmlns="http://www.w3.org/2000/svg" width="192" height="192" fill="none"><path stroke="#000" stroke-linecap="round" stroke-linejoin="round" stroke-width="10" d="M94.987 109.176V72.689l28.378 18.243zm0 0v36.486l28.378-18.243zm0 0L66.608 90.932m28.379 18.244-28.379 18.243M54.446 34.176C35.138 47.745 21 70.609 21 96c0 41.421 33.579 75 75 75s75-33.579 75-75c0-25.391-13.125-48.255-32.432-61.824M75.73 21v6.081M116.27 21v6.081m-31.419 14.19C86.658 44.84 90.97 47.35 96 47.35s9.342-2.511 11.149-6.08"/></svg>