<svg xmlns="http://www.w3.org/2000/svg" width="192" height="192" viewBox="0 0 192 192"><path d="M165.65,113.47c-3.04,1.51-6.42,2.27-10.15,2.27-2.8,0-5.27-.44-7.42-1.32-2.15-.92-3.89-2.15-5.22-3.67-1.33-1.57-2.31-3.28-2.96-5.13-.64-1.89-.96-3.9-.96-6.03,0-4.67,1.47-8.5,4.4-11.51,2.98-3.1,6.8-4.64,11.48-4.64,4.4,0,8.02,1.41,10.86,4.23,2.89,2.77,4.33,6.54,4.33,11.3,0,.2,0,.41,0,.62h0s-31.06,0-31.06,0" fill="none" fill-rule="evenodd" stroke="#000" stroke-linecap="round" stroke-linejoin="round" stroke-width="12"/><path d="M96.2,83.6v18.85c0,4.2,1.21,7.46,3.64,9.77,2.38,2.36,5.66,3.53,9.83,3.53,4.22,0,7.51-1.18,9.9-3.53,2.43-2.31,3.64-5.57,3.64-9.77v-18.85" fill="none" stroke="#000" stroke-linecap="round" stroke-linejoin="round" stroke-width="12"/><path d="M69.51,73v29.59c0,4.2,1.19,7.46,3.57,9.77,1.92,1.86,4.38,2.99,7.38,3.38" fill="none" stroke="#000" stroke-linecap="round" stroke-linejoin="round" stroke-width="12"/><path d="M22.03,97.79c.62-8.46,7.56-14.9,15.88-14.9h-.03c8.32,0,15.26,6.45,15.88,14.9.34,5.41-1.99,10.4-5.91,13.58h0l-1.37,1.18-7.7,6.17c-.27.21-.62.28-.89.28s-.62-.07-.82-.21l-7.35-5.96-1.31-1.11c-3.57-2.7-6.05-6.86-6.39-11.71v-26.41" fill="none" fill-rule="evenodd" stroke="#000" stroke-linecap="round" stroke-linejoin="round" stroke-width="12"/></svg>