<svg width="192" height="192" viewBox="0 0 192 192" fill="none" xmlns="http://www.w3.org/2000/svg"><path d="M22 83.96c0-1.789.8-3.484 2.184-4.623l68-55.969a6.007 6.007 0 0 1 7.632 0l68 55.97A5.987 5.987 0 0 1 170 83.96v80.049a5.995 5.995 0 0 1-6 5.991H28c-3.314 0-6-2.682-6-5.991V83.96Z" stroke="#000" stroke-width="12" stroke-linecap="round" stroke-linejoin="round"/><path d="m166 166-53.761-32.792M26 166l53.76-32.792M169 84l-56.761 49.208M23 84l56.76 49.208m32.479 0-13.046-8.201a6 6 0 0 0-6.386 0l-13.046 8.201m22.38-60.663a16.001 16.001 0 0 1 5.599 28.149A16.001 16.001 0 0 1 82 88m0-27v27" stroke="#000" stroke-width="12" stroke-linecap="round" stroke-linejoin="round"/></svg>