<svg xmlns="http://www.w3.org/2000/svg" width="192" height="192" fill="none"><path stroke="#000" stroke-linecap="round" stroke-linejoin="round" stroke-width="12" d="M119.857 96a27.9 27.9 0 0 0-8.268 9 27.9 27.9 0 0 0-3.661 11.661M119.857 96c8.628 5.986 20.283 6.848 29.98 1.249q1.02-.59 1.972-1.249m-31.952 0a27.9 27.9 0 0 1-8.268-9 27.9 27.9 0 0 1-3.661-11.66m0 0C117.427 70.86 124 61.197 124 50q0-1.178-.096-2.332M107.928 75.34A27.9 27.9 0 0 1 96 78c-4.266 0-8.31-.954-11.928-2.66m0 0c.87-10.466-4.212-20.99-13.91-26.589a28 28 0 0 0-2.066-1.083M84.072 75.34A27.9 27.9 0 0 1 80.412 87a27.9 27.9 0 0 1-8.269 9m0 0c-8.628-5.986-20.283-6.848-29.98-1.249q-1.02.59-1.972 1.249m31.952 0a27.9 27.9 0 0 1 8.269 9 27.9 27.9 0 0 1 3.66 11.661m0 0C74.573 121.14 68 130.802 68 142q0 1.178.096 2.332m15.976-27.671A27.9 27.9 0 0 1 96 114c4.266 0 8.31.954 11.928 2.661m0 0c-.87 10.465 4.212 20.989 13.909 26.588q1.02.588 2.067 1.083m-55.808 0c-13.04 6.16-28.842 1.38-36.182-11.332s-3.578-28.787 8.277-37m27.905 48.332C69.28 158.705 81.32 170 96 170s26.719-11.295 27.904-25.668m0 0c13.04 6.16 28.843 1.38 36.182-11.332s3.578-28.787-8.277-37M40.191 96c-11.855-8.213-15.616-24.288-8.277-37s23.142-17.492 36.182-11.332m0 0C69.28 33.295 81.32 22 96 22s26.719 11.295 27.904 25.668m0 0c13.04-6.16 28.843-1.38 36.182 11.332s3.578 28.787-8.277 37"/></svg>