<svg width="192" height="192" viewBox="0 0 192 192" fill="none" xmlns="http://www.w3.org/2000/svg"><path d="M154 88c-2.131-6.115-6.215-12.635-11.936-19.056-5.721-6.422-12.926-12.572-21.056-17.975-8.131-5.403-16.97-9.914-25.834-13.185-8.863-3.27-17.514-5.212-25.282-5.676-7.768-.463-14.445.565-19.516 3.004-5.07 2.44-8.398 6.224-9.725 11.063-1.327 4.84-.619 10.602 2.071 16.842 2.69 6.24 7.29 12.791 13.442 19.146M132 22 42 170M32 41l136 80" stroke="#000" stroke-width="12" stroke-linecap="round" stroke-linejoin="round"/></svg>