<svg xmlns="http://www.w3.org/2000/svg" width="192" height="192" fill="none" viewBox="0 0 192 192"><path stroke="#000" stroke-linecap="round" stroke-linejoin="round" stroke-width="12" d="M96 132.097c-6.35 15.971-12.58 25.681-18.564 29.003-5.496 3.067-13.434 4.472-18.686 1.022-6.717-4.216-13.312-10.476-18.075-17.76-2.442-3.832-3.42-8.304-2.564-13.542 1.343-8.05 8.793-14.438 23.204-18.91-20.151 0-32.975-8.05-35.662-23.254-2.93-16.993-4.03-33.091-3.541-49.318.244-9.71 9.16-13.543 16.12-10.732C57.286 36.144 77.926 57.736 96 90.828c18.075-33.091 38.837-54.684 57.767-62.222 7.084-2.811 15.877 1.022 16.121 10.732.489 16.227-.61 32.325-3.541 49.318-2.687 15.205-15.51 23.254-35.662 23.254 14.411 4.472 21.861 10.86 23.204 18.91.855 5.238-.122 9.71-2.564 13.543-4.763 7.283-11.358 13.543-18.075 17.76-5.252 3.45-13.19 2.044-18.686-1.023-5.985-3.322-12.213-13.032-18.564-29.003"/></svg>