<svg xmlns="http://www.w3.org/2000/svg" width="192" height="192" fill="none" stroke="#000" stroke-linecap="round" stroke-width="10" viewBox="0 0 192 192"><circle cx="37" cy="99" r="16"/><path d="M85 83v17c0 1.97.362 3.92 1.066 5.74a15.1 15.1 0 0 0 3.034 4.867 14 14 0 0 0 4.542 3.251A13.2 13.2 0 0 0 99 115c1.839 0 3.659-.388 5.358-1.142a14 14 0 0 0 4.541-3.251 15.1 15.1 0 0 0 3.035-4.867A15.9 15.9 0 0 0 113 100V83M21 73v26m45-26v30c0 10 9 12 9 12"/><path stroke-width="8" d="M130 72v33c0 8 4 11 4 11"/><path stroke-linejoin="round" stroke-width="8" d="M124 81h16l16 35 16-35"/></svg>