<svg xmlns="http://www.w3.org/2000/svg" width="192" height="192" fill="none" viewBox="0 0 192 192"><path stroke="#000" stroke-linecap="round" stroke-linejoin="round" stroke-width="12" d="M116 90H43m63-68H49a6 6 0 0 0-6 6v136c0 3.314 2.675 6 5.989 6H116"/><path stroke="#000" stroke-linecap="round" stroke-linejoin="round" stroke-width="12" d="M106 90c9.283 0 18.185-3.582 24.749-9.958S141 65.017 141 56s-3.687-17.665-10.251-24.042C124.185 25.582 115.283 22 106 22m10 148c9.813 0 19.224-4.214 26.163-11.716S153 140.609 153 130s-3.898-20.783-10.837-28.284C135.224 94.214 125.813 90 116 90"/></svg>