<svg width="192" height="192" viewBox="0 0 192 192" fill="none" xmlns="http://www.w3.org/2000/svg">
<path d="M116 90H43" stroke="black" stroke-width="12" stroke-linecap="round" stroke-linejoin="round"/>
<path d="M106 22H49C45.6863 22 43 24.6863 43 28L43 164C43 167.314 45.6749 170 48.9886 170C62.0836 170 93.8613 170 116 170" stroke="black" stroke-width="12" stroke-linecap="round" stroke-linejoin="round"/>
<path d="M106 90C115.283 90 124.185 86.4179 130.749 80.0416C137.313 73.6654 141 65.0174 141 56C141 46.9826 137.313 38.3346 130.749 31.9584C124.185 25.5821 115.283 22 106 22" stroke="black" stroke-width="12" stroke-linecap="round" stroke-linejoin="round"/>
<path d="M116 170C125.813 170 135.224 165.786 142.163 158.284C149.102 150.783 153 140.609 153 130C153 119.391 149.102 109.217 142.163 101.716C135.224 94.2143 125.813 90 116 90" stroke="black" stroke-width="12" stroke-linecap="round" stroke-linejoin="round"/>
</svg>
