<svg xmlns="http://www.w3.org/2000/svg" width="192" height="192" fill="none" viewBox="0 0 192 192"><path stroke="#000" stroke-linecap="round" stroke-linejoin="round" stroke-width="12" d="M55 63c0 31.5 41 81 41 81m41-81c0 31.5-41 81-41 81m41-81a41 41 0 0 0-12.009-28.991A41.001 41.001 0 0 0 55 63"/><circle cx="96" cy="63" r="6" stroke="#000" stroke-linecap="round" stroke-linejoin="round" stroke-width="12"/><path stroke="#000" stroke-linecap="round" stroke-linejoin="round" stroke-width="12" d="M138.426 140.979c8.392 2.378 14.106 5.407 16.421 8.704s1.127 6.716-3.414 9.823c-4.541 3.106-12.232 5.761-22.099 7.629S107.867 170 96 170s-23.467-.997-33.334-2.865-17.557-4.523-22.099-7.629c-4.541-3.107-5.73-6.525-3.414-9.823 2.315-3.297 8.03-6.326 16.42-8.704"/></svg>