<svg width="192" height="192" viewBox="0 0 192 192" fill="none" xmlns="http://www.w3.org/2000/svg"><path d="M55 63c0 31.5 41 81 41 81m41-81c0 31.5-41 81-41 81m41-81a40.99 40.99 0 0 0-12.009-28.991A41.001 41.001 0 0 0 55 63" stroke="#000" stroke-width="12" stroke-linecap="round" stroke-linejoin="round"/><circle cx="96" cy="63" r="6" stroke="#000" stroke-width="12" stroke-linecap="round" stroke-linejoin="round"/><path d="M138.426 140.979c8.392 2.378 14.106 5.407 16.421 8.704 2.315 3.298 1.127 6.716-3.414 9.823-4.541 3.106-12.232 5.761-22.099 7.629C119.467 169.003 107.867 170 96 170c-11.867 0-23.467-.997-33.334-2.865-9.867-1.868-17.557-4.523-22.099-7.629-4.541-3.107-5.73-6.525-3.414-9.823 2.315-3.297 8.03-6.326 16.42-8.704" stroke="#000" stroke-width="12" stroke-linecap="round" stroke-linejoin="round"/></svg>