<svg xmlns="http://www.w3.org/2000/svg" width="192" height="192" fill="none" viewBox="0 0 192 192" stroke="#000" stroke-linejoin="round" stroke-width="12"><path d="M170 96c0 40.869-33.131 74-74 74-40.87 0-74-33.131-74-74 0-40.87 33.13-74 74-74 40.869 0 74 33.13 74 74ZM51.6 96c0 24.521 19.879 44.4 44.4 44.4 24.521 0 44.4-19.879 44.4-44.4 0-24.521-19.879-44.4-44.4-44.4-24.521 0-44.4 19.879-44.4 44.4Z"/><path stroke-linecap="round" d="M104.485 104.485A11.996 11.996 0 0 0 108 96c0-3.183-12-58-12-58S84 92.817 84 96a11.999 11.999 0 0 0 20.485 8.485Z"/><path stroke-linecap="round" stroke-width="8" d="m43.674 43.674 20.93 20.93M22 96h29.6m96.726-52.326-20.93 20.93M170 96h-29.6"/></svg>