<svg xmlns="http://www.w3.org/2000/svg" width="192" height="192" fill="none" viewBox="0 0 192 192"><path stroke="#000" stroke-linejoin="round" stroke-width="12" d="m78.5 120-14.767-16H22.43c3.989 37.106 35.405 66 73.571 66 32.469 0 60.052-20.911 70.02-50zm0 0 14.767 16 14.766 16 14.767 16M96.002 22c38.166 0 69.582 28.894 73.571 66h-31.234c.164-.976.25-1.978.25-3 0-9.941-8.059-18-18-18a17.9 17.9 0 0 0-10.443 3.338C106.124 58.51 94.924 50 81.736 50c-13.598 0-25.082 9.049-28.762 21.453C49.845 65.253 43.42 61 36 61c-1.974 0-3.879.301-5.669.86C42.671 38.174 67.447 22 96.002 22Z"/></svg>