<svg width="192" height="192" viewBox="0 0 192 192" fill="none" xmlns="http://www.w3.org/2000/svg"><path d="m65.012 133.628-40.008 33.368V82.97M166.996 25H92.969M167 111.169V49.183c-17.743-12.124-61.081-7.143-60.65 32.852m-12.86 56.81 23.037 28.151m21.366 0h23.35a5.756 5.756 0 0 0 5.757-5.757V131.42c-17.618 9.563-36.487 5.38-52.978-7.553M70.615 25c-.287 28.796 9.128 56.806 23.865 77.701 1.878 2.663 1.491 6.355-1.023 8.428l-8.072 6.657a6 6 0 0 1-8.536-.923L25 50.846v-20.09A5.757 5.757 0 0 1 30.757 25h17.199m43.42 142h-34.69" stroke="#000" stroke-width="12" stroke-linecap="round" stroke-linejoin="round"/></svg>