<svg width="192" height="192" viewBox="0 0 192 192" fill="none" xmlns="http://www.w3.org/2000/svg"><path d="m63.703 135.218-41.699 34.778V82.419M169.996 22H92.841M170 111.81V47.205c-18.493-12.636-63.662-7.445-63.213 34.24m-13.404 59.21 24.011 29.341m22.269 0H164a6 6 0 0 0 6-6v-31.079c-18.362 9.967-38.029 5.607-55.217-7.873m-16.721-17.162C80.628 85.699 69.22 54.324 69.542 22m-23.616 0H28a6 6 0 0 0-6 6v20.938l57.996 73.843 18.061-14.895M91.18 170H55.024" stroke="#000" stroke-width="12" stroke-linecap="round" stroke-linejoin="round"/></svg>