<?xml version="1.0" encoding="UTF-8" standalone="no"?>
<!-- Created with Inkscape (http://www.inkscape.org/) -->

<svg
   width="24"
   height="24"
   viewBox="0 0 6.3499999 6.3500002"
   version="1.1"
   id="svg8"
   inkscape:version="1.1.1 (3bf5ae0d25, 2021-09-20)"
   sodipodi:docname="bni_mobile.svg"
   xmlns:inkscape="http://www.inkscape.org/namespaces/inkscape"
   xmlns:sodipodi="http://sodipodi.sourceforge.net/DTD/sodipodi-0.dtd"
   xmlns="http://www.w3.org/2000/svg"
   xmlns:svg="http://www.w3.org/2000/svg"
   xmlns:rdf="http://www.w3.org/1999/02/22-rdf-syntax-ns#"
   xmlns:cc="http://creativecommons.org/ns#"
   xmlns:dc="http://purl.org/dc/elements/1.1/">
  <defs
     id="defs2">
    <marker
       inkscape:stockid="Arrow1Lend"
       orient="auto"
       refY="0.0"
       refX="0.0"
       id="Arrow1Lend"
       style="overflow:visible;"
       inkscape:isstock="true">
      <path
         id="path844"
         d="M 0.0,0.0 L 5.0,-5.0 L -12.5,0.0 L 5.0,5.0 L 0.0,0.0 z "
         style="fill-rule:evenodd;stroke:#000000;stroke-width:1.0pt;"
         transform="scale(0.8) rotate(180) translate(12.5,0)" />
    </marker>
    <marker
       inkscape:stockid="Arrow1Lstart"
       orient="auto"
       refY="0.0"
       refX="0.0"
       id="Arrow1Lstart"
       style="overflow:visible"
       inkscape:isstock="true">
      <path
         id="path841"
         d="M 0.0,0.0 L 5.0,-5.0 L -12.5,0.0 L 5.0,5.0 L 0.0,0.0 z "
         style="fill-rule:evenodd;stroke:#000000;stroke-width:1.0pt"
         transform="scale(0.8) translate(12.5,0)" />
    </marker>
    <pattern
       y="0"
       x="0"
       height="6"
       width="6"
       patternUnits="userSpaceOnUse"
       id="EMFhbasepattern" />
    <pattern
       y="0"
       x="0"
       height="6"
       width="6"
       patternUnits="userSpaceOnUse"
       id="EMFhbasepattern-1" />
    <pattern
       y="0"
       x="0"
       height="6"
       width="6"
       patternUnits="userSpaceOnUse"
       id="EMFhbasepattern-6" />
    <pattern
       y="0"
       x="0"
       height="6"
       width="6"
       patternUnits="userSpaceOnUse"
       id="EMFhbasepattern-15" />
    <pattern
       y="0"
       x="0"
       height="6"
       width="6"
       patternUnits="userSpaceOnUse"
       id="EMFhbasepattern-17" />
    <pattern
       y="0"
       x="0"
       height="6"
       width="6"
       patternUnits="userSpaceOnUse"
       id="EMFhbasepattern-2" />
    <pattern
       y="0"
       x="0"
       height="6"
       width="6"
       patternUnits="userSpaceOnUse"
       id="EMFhbasepattern-3" />
    <pattern
       y="0"
       x="0"
       height="6"
       width="6"
       patternUnits="userSpaceOnUse"
       id="EMFhbasepattern-61" />
    <pattern
       y="0"
       x="0"
       height="6"
       width="6"
       patternUnits="userSpaceOnUse"
       id="EMFhbasepattern-4" />
    <pattern
       y="0"
       x="0"
       height="6"
       width="6"
       patternUnits="userSpaceOnUse"
       id="EMFhbasepattern-37" />
    <pattern
       y="0"
       x="0"
       height="6"
       width="6"
       patternUnits="userSpaceOnUse"
       id="EMFhbasepattern-12" />
    <pattern
       y="0"
       x="0"
       height="6"
       width="6"
       patternUnits="userSpaceOnUse"
       id="EMFhbasepattern-44" />
    <pattern
       y="0"
       x="0"
       height="6"
       width="6"
       patternUnits="userSpaceOnUse"
       id="EMFhbasepattern-5" />
    <pattern
       y="0"
       x="0"
       height="6"
       width="6"
       patternUnits="userSpaceOnUse"
       id="EMFhbasepattern-157" />
    <pattern
       y="0"
       x="0"
       height="6"
       width="6"
       patternUnits="userSpaceOnUse"
       id="EMFhbasepattern-7" />
    <pattern
       y="0"
       x="0"
       height="6"
       width="6"
       patternUnits="userSpaceOnUse"
       id="EMFhbasepattern-8" />
    <pattern
       y="0"
       x="0"
       height="6"
       width="6"
       patternUnits="userSpaceOnUse"
       id="EMFhbasepattern-43" />
    <pattern
       y="0"
       x="0"
       height="6"
       width="6"
       patternUnits="userSpaceOnUse"
       id="EMFhbasepattern-63" />
    <pattern
       y="0"
       x="0"
       height="6"
       width="6"
       patternUnits="userSpaceOnUse"
       id="EMFhbasepattern-82" />
    <pattern
       y="0"
       x="0"
       height="6"
       width="6"
       patternUnits="userSpaceOnUse"
       id="EMFhbasepattern-70" />
    <pattern
       y="0"
       x="0"
       height="6"
       width="6"
       patternUnits="userSpaceOnUse"
       id="EMFhbasepattern-46" />
    <pattern
       y="0"
       x="0"
       height="6"
       width="6"
       patternUnits="userSpaceOnUse"
       id="EMFhbasepattern-465" />
    <pattern
       y="0"
       x="0"
       height="6"
       width="6"
       patternUnits="userSpaceOnUse"
       id="EMFhbasepattern-30" />
    <pattern
       y="0"
       x="0"
       height="6"
       width="6"
       patternUnits="userSpaceOnUse"
       id="EMFhbasepattern-9" />
    <pattern
       y="0"
       x="0"
       height="6"
       width="6"
       patternUnits="userSpaceOnUse"
       id="EMFhbasepattern-79" />
    <pattern
       y="0"
       x="0"
       height="6"
       width="6"
       patternUnits="userSpaceOnUse"
       id="EMFhbasepattern-59" />
    <pattern
       y="0"
       x="0"
       height="6"
       width="6"
       patternUnits="userSpaceOnUse"
       id="EMFhbasepattern-74" />
    <pattern
       y="0"
       x="0"
       height="6"
       width="6"
       patternUnits="userSpaceOnUse"
       id="EMFhbasepattern-50" />
    <pattern
       y="0"
       x="0"
       height="6"
       width="6"
       patternUnits="userSpaceOnUse"
       id="EMFhbasepattern-54" />
    <pattern
       y="0"
       x="0"
       height="6"
       width="6"
       patternUnits="userSpaceOnUse"
       id="EMFhbasepattern-32" />
    <pattern
       y="0"
       x="0"
       height="6"
       width="6"
       patternUnits="userSpaceOnUse"
       id="EMFhbasepattern-26" />
  </defs>
  <sodipodi:namedview
     id="base"
     pagecolor="#ffffff"
     bordercolor="#666666"
     borderopacity="1.0"
     inkscape:pageopacity="0.0"
     inkscape:pageshadow="2"
     inkscape:zoom="32"
     inkscape:cx="10.015625"
     inkscape:cy="12.671875"
     inkscape:document-units="px"
     inkscape:current-layer="layer2"
     showgrid="false"
     units="px"
     inkscape:window-width="1920"
     inkscape:window-height="1017"
     inkscape:window-x="-8"
     inkscape:window-y="-8"
     inkscape:window-maximized="1"
     inkscape:pagecheckerboard="0" />
  <metadata
     id="metadata5">
    <rdf:RDF>
      <cc:Work
         rdf:about="">
        <dc:format>image/svg+xml</dc:format>
        <dc:type
           rdf:resource="http://purl.org/dc/dcmitype/StillImage" />
      </cc:Work>
    </rdf:RDF>
  </metadata>
  <g
     inkscape:groupmode="layer"
     id="layer2"
     inkscape:label="Layer 2">
    <path
       id="path4738"
       style="fill:#000000;fill-opacity:1;fill-rule:evenodd;stroke:none;stroke-width:0.0828969"
       d="m 2.8011575,4.2720504 h 0.3253524 l 0.7977392,1.0775509 c 0,0 0,-0.819944 0,-0.9141904 0,-0.091105 -0.1251355,-0.160219 -0.1251355,-0.160219 h 0.4098189 c 0,0 -0.1094935,0.062831 -0.1094935,0.160219 0,0.097388 0,1.3854225 0,1.3854225 0,0 -0.1877032,-0.075397 -0.3316093,-0.2701731 C 3.6239237,5.3527429 3.0889693,4.6521777 3.0889693,4.6521777 c 0,0 0,0.8827749 0,0.9487474 0,0.065972 0.1126219,0.1476527 0.1126219,0.1476527 H 2.7980291 c 0,0 0.1126219,-0.059689 0.1126219,-0.1445111 0,-0.08168 0,-1.0304278 0,-1.1529481 0,-0.1225204 -0.1094935,-0.1790682 -0.1094935,-0.1790682 z M 4.5561838,5.3496013 V 4.4354109 c 0,-0.091105 -0.128264,-0.160219 -0.128264,-0.160219 h 0.4786436 c 0,0 -0.1063651,0.062831 -0.1063651,0.160219 v 1.1435233 c 0,0.087963 0.1032368,0.1539359 0.1032368,0.1539359 l -0.4598732,0.00629 c 0,0 0.1126219,-0.069114 0.1126219,-0.1413696 0,-0.072256 0,-0.2481823 0,-0.248182 z M 1.8094582,4.4165615 v 0.4398167 h 0.209602 c 0.09698,0 0.2346291,-0.050265 0.2346291,-0.2293329 0,-0.1790682 -0.2033453,-0.2104838 -0.2752982,-0.2104838 z m 0,0.584328 v 0 0.5749032 h 0.2752982 c 0.1063652,0 0.3065821,-0.091105 0.3065821,-0.2701731 0,-0.1822098 -0.1626762,-0.3047301 -0.3159674,-0.3047301 z M 1.4528217,4.2720504 v 0 h 0.7038876 c 0.1595478,0 0.3409944,0.1350865 0.3409944,0.3204378 0,0.2513239 -0.1908317,0.2827393 -0.1908317,0.2827393 0,0 0.337866,0.084822 0.337866,0.4084013 0,0.3204379 -0.3691499,0.4460997 -0.4911571,0.4460997 H 1.4434366 c 0,0 0.1220072,-0.069114 0.1220072,-0.1759267 V 4.4448355 c 0,-0.1130957 -0.1126221,-0.1727851 -0.1126221,-0.1727851 z M 1.4435317,0.52916667 H 2.555853 c 0,0 -0.2150491,0.82657993 0.2966193,1.51167313 0.1334783,0.1787193 0.2743724,0.3723333 0.3856044,0.5212667 L 2.8228151,2.9046561 c -0.6006535,-0.73722 -1.3792786,-1.74252 -1.3792786,-1.74252 z m 1.5498343,0 H 4.9065586 V 1.0131998 c 0,0 -0.6303152,-0.31275993 -1.112321,0.201061 -0.4820059,0.5063735 -0.3633585,0.7967934 -0.3633585,0.7967934 0,0 -0.3633581,-0.3351 -0.4375131,-0.7967934 -0.074155,-0.46169313 0,-0.68509323 0,-0.68509413 z M 4.9065586,1.6238265 v 1.3403999 c 0,0 -0.5561605,0.2680801 -0.9936733,-0.4393532 C 3.4827874,1.81744 3.6755897,1.5270198 4.0167028,1.3334066 4.4764622,1.0653266 4.9065595,1.6238265 4.9065586,1.6238265 Z m 0,1.5116733 V 4.0067597 H 3.6755945 L 3.9128901,3.8131459 c 0,0 -0.1631416,0 -0.4078513,-0.1414856 C 3.4308844,3.6269793 3.2158352,3.3886869 2.948878,3.0684802 L 3.3715602,2.7259335 C 3.6385174,3.0386935 3.8832279,3.232307 4.1798471,3.276987 4.6692684,3.351455 4.9065634,3.1355015 4.9065634,3.1354998 Z M 3.119434,4.0067597 H 1.7846484 L 2.6670901,3.2844331 c 0,0 0.3040345,0.4095669 0.4004357,0.5063732 0.096401,0.096807 0.051908,0.2159531 0.051908,0.2159534 z m -1.6610664,0 H 1.4435396 V 1.81744 L 2.511368,3.1354998 Z" />
  </g>
</svg>
