<svg width="192" height="192" viewBox="0 0 192 192" fill="none" xmlns="http://www.w3.org/2000/svg"><path d="M146 81.007c.566-45.38-7.58-61.378-48-61" stroke="#000" stroke-width="8" stroke-linejoin="bevel"/><path d="M53.027 81.007c-.566-45.38 7.58-61.378 48-61" stroke="#000" stroke-width="8" stroke-linejoin="bevel"/><path d="M146.261 81c50.707 49.412 3.446 118.788-47.261 79.359M53.109 81C3.872 130.412 49.763 199.788 99 160.359" stroke="#000" stroke-width="8" stroke-linecap="round" stroke-linejoin="bevel"/><path d="M64.09 110.279c-.867.144-2.482.658-3.615 1.131-3.664 1.521-7.014 4.975-8.388 8.613-1.518 4.029-1.446 8.634.217 12.458 2.917 6.742 10.533 10.689 17.813 9.209 4.772-.945 9.014-4.152 11.256-8.49 2.193-4.214 2.17-10.258-.073-14.575-1.614-3.124-4.58-5.838-7.809-7.215-3.302-1.377-6.17-1.727-9.4-1.131Zm2.917 8.203c1.687 3.761 3.399 7.955 3.302 8.037-.313.247-8.653 2.488-8.75 2.344-.072-.103.41-1.46 1.061-3.022.651-1.562 1.712-4.111 2.338-5.674.427-1.01.832-1.896 1.095-2.376.154-.28.419-.291.588-.019.119.192.25.444.366.71Zm6.966 10.997c0 .103-.458.987-1.012 1.953a3.503 3.503 0 0 1-3.032 1.748H62.67a3.707 3.707 0 0 1-3.159-1.768 40.978 40.978 0 0 1-1.157-1.953c-.048-.103 3.254-.185 7.761-.185 4.99 0 7.858.082 7.858.205ZM127.322 96.446c-2.289.695-4.428 1.862-6.164 3.446-.755.695-2.214 1.862-3.271 2.612a2.726 2.726 0 0 0-.88 3.414l.15.31.216.451a1.41 1.41 0 0 0 2.326.327c.88-.945 2.088-1.945 3.145-2.501 1.484-.806 2.038-.945 3.95-1.056 2.088-.083 2.315-.028 3.875.806 2.013 1.112 4.68 3.918 5.912 6.253 2.29 4.391 3.297 8.754 3.297 14.59.025 4.613-.328 6.781-1.686 10.449-1.183 3.224-2.617 5.558-4.705 7.726-2.013 2.112-3.07 2.779-5.183 3.224-2.818.611-5.485-.473-8.278-3.419l-.243-.252a3.26 3.26 0 0 1-.713-3.388l.108-.307a.922.922 0 0 1 1.603-.249c1.635 2.168 2.44 2.918 3.899 3.668 1.082.556 1.586.667 2.667.528 1.762-.194 2.718-.778 4.555-2.806 2.943-3.252 4.604-8.171 4.805-14.257.151-3.918-.05-5.836-.981-8.976-1.308-4.53-3.749-8.199-6.416-9.616-1.107-.611-1.585-.722-2.818-.611-1.862.139-2.843.861-5.158 3.696a5.699 5.699 0 0 0-1.155 4.712l.098.485c1.258 6.225 1.359 12.756.277 17.952-.553 2.557-2.013 6.809-3.397 9.699-.654 1.39-1.031 2.474-.855 2.39.201-.083.981.5 1.862 1.39 4.856 4.974 8.454 6.864 13.083 6.864 2.617 0 4.58-.528 6.995-1.862 9.838-5.419 15.097-21.76 11.75-36.378-1.283-5.53-3.698-10.477-6.919-14.006-3.648-4.002-6.693-5.53-11.322-5.725-2.064-.083-3.045 0-4.429.417ZM96.62 34.27c-3.35 1.72-7.656 5.495-9.33 8.036-2.632 4.111-2.92 5.606-3.207 17.79-.143 6.167-.095 12.558.096 14.24a5.628 5.628 0 0 0 3.098 4.432l.635.314c1.914.935 5.215 2.953 7.32 4.523 2.68 1.906 4.02 2.653 4.164 2.317.143-.262 3.541-2.205 7.608-4.26 4.02-2.094 7.704-4.037 8.183-4.374.717-.523.813-1.532.813-11.698-.048-11.885-.431-17.08-1.627-20.07-.909-2.28-3.732-6.054-6.029-7.923-2.441-2.018-7.13-4.597-8.326-4.597-.574 0-2.106.56-3.398 1.27Z" stroke="#000" stroke-width="8" stroke-linejoin="bevel"/><path d="M73.1 97.44c-2.253.556-4.813 1.808-6.817 3.309-2.699 2.058-2.754 2.531-.166 1.474 2.643-1.057 4.48-1.418 7.317-1.418 3.367 0 5.036.389 8.487 2.057 4.618 2.197 8.18 6.035 10.712 11.485 1.78 3.865 2.337 6.59 2.337 11.595 0 3.837-.084 4.644-.78 7.369-.973 3.837-2.225 6.451-4.367 9.315-4.675 6.173-11.603 9.482-18.142 8.648-2.003-.278-4.952-1.029-7.4-1.919-.975-.333.722 1.168 3.06 2.725 3.561 2.364 5.425 2.92 9.71 2.92 3.06-.028 3.729-.111 5.51-.751 5.286-1.918 9.265-5.589 12.242-11.289 3.59-6.924 4.87-13.987 3.868-21.467-1.225-9.037-4.981-16.267-10.74-20.688-4.285-3.281-9.878-4.56-14.83-3.365Z" stroke="#000" stroke-width="8" stroke-linejoin="bevel"/></svg>