<svg width="192" height="192" fill="none" xmlns="http://www.w3.org/2000/svg"><circle cx="166" cy="118" r="5" stroke="#000" stroke-width="10" stroke-linecap="round" stroke-linejoin="round"/><ellipse cx="102" cy="105" rx="20" ry="17" stroke="#000" stroke-width="12" stroke-linecap="round" stroke-linejoin="round"/><path d="M42 122c3.956 0 7.822-.997 11.111-2.865 3.29-1.868 5.853-4.523 7.367-7.629 1.513-3.107 1.91-6.525 1.138-9.823-.772-3.297-2.677-6.326-5.474-8.704-2.797-2.377-6.36-3.996-10.24-4.652-3.88-.656-7.901-.32-11.556.967-3.654 1.287-6.778 3.466-8.975 6.261C23.173 98.351 22 101.638 22 105" stroke="#000" stroke-width="12" stroke-linecap="round" stroke-linejoin="round"/><path d="M22 68v48a6 6 0 0 0 6 6h14m100-54v54" stroke="#000" stroke-width="12" stroke-linecap="round" stroke-linejoin="round"/></svg>