<svg xmlns="http://www.w3.org/2000/svg" width="192" height="192" fill="none" viewBox="0 0 192 192"><path stroke="#000" stroke-linecap="round" stroke-width="12" d="M154 69v35m1-17h15m-37-26v58"/><circle cx="95" cy="101" r="18" stroke="#000" stroke-width="12"/><circle cx="95" cy="141" r="4" stroke="#000" stroke-width="8"/><path stroke="#000" stroke-linecap="round" stroke-width="12" d="M22 91h21"/><path stroke="#000" stroke-linecap="round" stroke-linejoin="round" stroke-width="12" d="M39 61H28a6 6 0 0 0-6 6v46a6 6 0 0 0 6 6h15"/><path stroke="#000" stroke-linecap="round" stroke-width="12" d="M43 119c19 0 19-28 0-28m127 28c-9.922 0-15.793-7.648-16-16M39 91c19 0 19-30 0-30"/></svg>