<svg xmlns="http://www.w3.org/2000/svg" width="192" height="192" fill="none"><path stroke="#000" stroke-linecap="round" stroke-linejoin="round" stroke-width="12" d="M96 31H42.658a6 6 0 0 0-5.333 3.252L22.666 62.707c-.438.85-.674 1.792-.525 2.736C22.736 69.202 25.836 79 42 79m54-48h53.342a6 6 0 0 1 5.333 3.252l14.659 28.455c.438.85.674 1.792.525 2.736C169.264 69.202 166.165 79 150 79m0 .26a38 38 0 0 1-26.87-11.13L123 68l-.13.13A38 38 0 0 1 96 79.26 38 38 0 0 1 69 68l-.13.13A38 38 0 0 1 42 79.26"/><path stroke="#000" stroke-linecap="round" stroke-linejoin="round" stroke-width="12" d="M35 79v76a6 6 0 0 0 6 6h28a6 6 0 0 0 6-6v-39m42 0v39a6 6 0 0 0 6 6h28a6 6 0 0 0 6-6V79m-82 37s7-6 21-6 21 6 21 6"/></svg>