<svg xmlns="http://www.w3.org/2000/svg" width="192" height="192" viewBox="0 0 192 192"><defs><style>.cls-1,.cls-2,.cls-4{fill:none;stroke:#000;stroke-width:12px}.cls-1,.cls-4{stroke-linecap:round}.cls-1{stroke-linejoin:round}.cls-2{stroke-miterlimit:10}</style></defs><path class="cls-1" d="M170 114.63v39.46"/><circle class="cls-2" cx="155.69" cy="139.79" r="14.31"/><circle class="cls-2" cx="113.35" cy="139.79" r="14.31"/><circle class="cls-2" cx="71.01" cy="139.79" r="14.31"/><path class="cls-1" d="M22 133.66h21.87"/><path style="fill-rule:evenodd;stroke-linejoin:round;stroke-linecap:round;fill:none;stroke:#000;stroke-width:12px" d="M22 154.09v-39.46h24.67"/><circle cx="79.81" cy="99.99" r="6.33"/><path class="cls-4" d="M125.73 44.56v27.72m0-13.46h11.88m0 25.34c-7.36 0-11.72-5.68-11.88-11.88M109.9 38.23v45.93"/><circle cx="79.81" cy="69.9" r="14.25" style="fill:none;stroke:#000;stroke-width:12px"/><path class="cls-4" d="M22 38.23v45.93m0-45.93h13.46M22 61.98h16.63M22 84.16h16.63m0 0c15 0 15-22.18 0-22.18"/><path class="cls-4" d="M35.46 62c15 0 15-23.75 0-23.75"/></svg>