<svg width="192" height="192" viewBox="0 0 192 192" fill="none" xmlns="http://www.w3.org/2000/svg"><path d="M98 66 71 93l25 21v32m2-80 12 21 18 7" stroke="#000" stroke-width="12" stroke-linecap="round" stroke-linejoin="round"/><circle cx="46" cy="136" r="24" stroke="#000" stroke-width="12" stroke-linecap="round" stroke-linejoin="round"/><circle cx="117" cy="47" r="6" stroke="#000" stroke-width="12" stroke-linecap="round" stroke-linejoin="round"/><circle cx="146" cy="136" r="24" stroke="#000" stroke-width="12" stroke-linecap="round" stroke-linejoin="round"/><path d="M39.201 59.071a6 6 0 0 1 0-8.485L57.586 32.2a6 6 0 0 1 8.485 0L78.8 44.929a6 6 0 0 1 0 8.485L60.414 71.8a6 6 0 0 1-8.485 0L39.2 59.071Z" stroke="#000" stroke-width="12" stroke-linecap="round" stroke-linejoin="round"/></svg>