<svg width="192" height="192" viewBox="0 0 192 192" fill="none" xmlns="http://www.w3.org/2000/svg"><circle cx="96" cy="114" r="56" stroke="#000" stroke-width="12" stroke-linejoin="round"/><path d="M128.4 118c0 8.487-3.414 16.626-9.49 22.627C112.834 146.629 104.593 150 96 150s-16.834-3.371-22.91-9.373c-6.076-6.001-9.49-14.14-9.49-22.627m64.8 0h3.6m-3.6 0h-3.6m-61.2 0H60m3.6 0h3.6" stroke="#000" stroke-width="10" stroke-linecap="round" stroke-linejoin="round"/><path d="m80 83-2 12m34-12 2 12" stroke="#000" stroke-width="12" stroke-linecap="round"/><circle cx="43" cy="29" r="3" stroke="#000" stroke-width="6" stroke-linejoin="round"/><circle cx="29" cy="43" r="3" stroke="#000" stroke-width="6" stroke-linejoin="round"/><circle cx="57" cy="43" r="3" stroke="#000" stroke-width="6" stroke-linejoin="round"/><circle cx="43" cy="57" r="3" stroke="#000" stroke-width="6" stroke-linejoin="round"/><path d="m128.12 68.127 5.324-15.575c.909-2.66-.155-5.575-2.676-6.819-6.02-2.97-17.933-7.973-32.273-9.41-2.656-.265-5.083 1.417-5.938 3.946L86.275 58.85M161 41.5S149 21 136 21c-13.354 0-17.609 10.917-20.577 18" stroke="#000" stroke-width="10" stroke-linecap="round" stroke-linejoin="round"/></svg>