<svg xmlns="http://www.w3.org/2000/svg" width="192" height="192" fill="none" stroke="#000" stroke-linecap="round" stroke-linejoin="round" stroke-width="8" viewBox="0 0 192 192"><circle cx="96" cy="114" r="56" stroke-width="12"/><circle cx="39" cy="24" r="4"/><circle cx="24" cy="39" r="4"/><circle cx="54" cy="39" r="4"/><circle cx="39" cy="54" r="4"/><path stroke-width="12" d="M108.12 59.327a56 56 0 0 1 20 8.8L134 50l-9-5s5-22 34-1l3-3.5C159 33 148 22 132 22s-22 11-25 18l-13-2-7.725 20.85a56 56 0 0 1 21.845.477M128.4 118c0 8.487-3.414 16.626-9.49 22.627C112.834 146.629 104.593 150 96 150s-16.834-3.371-22.91-9.373S63.6 126.487 63.6 118m64.8 0h3.6m-3.6 0h-3.6m-61.2 0H60m3.6 0h3.6M80 83l-2 12m34-12 2 12"/></svg>