<svg xmlns="http://www.w3.org/2000/svg" width="192" height="192" fill="none" stroke="#000" stroke-linecap="round" stroke-linejoin="round" viewBox="0 0 192 192"><path stroke-width="6" d="m58 88-2 4m78-4 2 4m-69-4-2 4m60-4 2 4m-51-4-2 4m42-4 2 4"/><path stroke-width="10" d="M69 64a5 5 0 1 1-5 5m59-5a4.999 4.999 0 1 1-5 5"/><path stroke-width="12" d="M96 22s-56 0-56 58v32c0 16-8 24-8 40s14 15 14 15c10 0 10-7 20-7s14 10 30 10m0-148s56 0 56 58v32c0 16 8 24 8 40s-14 15-14 15c-10 0-10-7-20-7s-14 10-30 10"/><path stroke-width="8" d="M88 97s2.667 2 8 2 8-2 8-2"/></svg>