<svg width="192" height="192" viewBox="0 0 192 192" fill="none" xmlns="http://www.w3.org/2000/svg">
<path d="M28 129L95.9991 151M95.9991 151L164.535 118.718C164.844 118.573 165.138 118.405 165.391 118.175C166.569 117.107 170 113.283 170 105C170 99.6023 168.543 96.244 167.202 94.2962C166.067 92.6478 163.913 92.5118 162.102 93.3646L95.9991 124.5M95.9991 151C95.9991 151 101 147.5 101 137.5C101 127.5 95.9991 124.5 95.9991 124.5M95.9991 124.5L28.7692 102.255C28.2587 102.086 27.7738 101.853 27.3694 101.498C25.8291 100.148 22 95.9887 22 88C22 78 28 74 28 74M28 74L94.2412 95.7582C95.6919 96.2347 97.2697 96.1402 98.6531 95.4939L164.999 64.5L98.7578 42.7418C97.3072 42.2653 95.7294 42.3598 94.3459 43.0061L28 74Z" stroke="black" stroke-width="12" stroke-linecap="round" stroke-linejoin="round"/>
<path d="M114.84 68.476L90 60.5L95.9212 57.9095C97.2607 57.3234 98.7682 57.2467 100.16 57.6937L125 65.6697L119.079 68.2602C117.739 68.8463 116.232 68.923 114.84 68.476Z" stroke="black" stroke-width="8" stroke-linecap="round" stroke-linejoin="round"/>
</svg>
