<?xml version="1.0" encoding="UTF-8" standalone="no"?>
<!-- Generator: Adobe Illustrator 19.2.1, SVG Export Plug-In . SVG Version: 6.00 Build 0)  -->

<svg
   version="1.1"
   id="layer"
   x="0px"
   y="0px"
   viewBox="0 0 24 24"
   xml:space="preserve"
   sodipodi:docname="ultimate_ears.svg"
   width="24"
   height="24"
   inkscape:version="1.1.1 (3bf5ae0d25, 2021-09-20)"
   xmlns:inkscape="http://www.inkscape.org/namespaces/inkscape"
   xmlns:sodipodi="http://sodipodi.sourceforge.net/DTD/sodipodi-0.dtd"
   xmlns="http://www.w3.org/2000/svg"
   xmlns:svg="http://www.w3.org/2000/svg"><defs
   id="defs11" /><sodipodi:namedview
   id="namedview9"
   pagecolor="#ffffff"
   bordercolor="#666666"
   borderopacity="1.0"
   inkscape:pageshadow="2"
   inkscape:pageopacity="0.0"
   inkscape:pagecheckerboard="0"
   showgrid="false"
   inkscape:zoom="10.110429"
   inkscape:cx="2.7199636"
   inkscape:cy="21.809163"
   inkscape:window-width="1920"
   inkscape:window-height="1009"
   inkscape:window-x="-8"
   inkscape:window-y="-8"
   inkscape:window-maximized="1"
   inkscape:current-layer="layer" />
<style
   type="text/css"
   id="style2">
	.st0{fill:#2100FF;}
	.st1{fill:#FFFFFF;}
</style>

<path
   class="st1"
   d="m 15.99356,13.744355 -0.33942,-0.1203 c -0.13749,-0.0387 -0.24061,-0.0902 -0.31794,-0.13749 -0.0688,-0.0515 -0.0988,-0.10741 -0.0902,-0.18045 0.009,-0.0816 0.0516,-0.13748 0.1203,-0.18045 0.0687,-0.043 0.16756,-0.0602 0.29646,-0.0602 0.13748,0 0.24919,0.0301 0.32653,0.0902 0.0773,0.0601 0.10741,0.13748 0.10741,0.24919 h 0.54565 c 0,-0.1203 -0.0215,-0.22771 -0.0687,-0.32653 -0.0516,-0.0988 -0.10741,-0.18045 -0.19764,-0.24919 -0.0902,-0.0687 -0.18904,-0.1203 -0.30934,-0.15897 -0.12031,-0.0387 -0.25779,-0.0601 -0.40817,-0.0601 -0.15037,0 -0.27927,0.0215 -0.39957,0.0516 -0.10741,0.0301 -0.21052,0.0816 -0.29645,0.13748 -0.0816,0.0602 -0.15038,0.13749 -0.19764,0.22771 -0.0473,0.0902 -0.0687,0.18045 -0.0816,0.28787 -0.009,0.30934 0.18045,0.53705 0.57572,0.69602 0.28786,0.10741 0.49839,0.18905 0.6058,0.22771 0.10741,0.0387 0.18905,0.0902 0.21912,0.13749 0.0301,0.0516 0.0387,0.10741 0.0301,0.18045 -0.0215,0.0688 -0.0602,0.1203 -0.13749,0.15897 -0.0773,0.0387 -0.18904,0.0602 -0.32653,0.0516 -0.16756,-0.009 -0.28786,-0.0602 -0.3695,-0.13749 -0.0816,-0.0816 -0.1203,-0.18904 -0.1203,-0.34801 h -0.54565 c 0,0.15037 0.0215,0.28786 0.0687,0.40816 0.0473,0.1203 0.1203,0.21912 0.19763,0.29646 0.0902,0.0816 0.19764,0.13748 0.32653,0.18045 0.1289,0.0387 0.27927,0.0687 0.42965,0.0687 0.15038,0 0.28786,-0.0215 0.40816,-0.0516 0.1203,-0.0301 0.21912,-0.0816 0.30935,-0.15037 0.0816,-0.0687 0.15037,-0.15038 0.19763,-0.2406 0.0516,-0.0902 0.0687,-0.19764 0.0816,-0.33942 0,-0.18045 -0.0387,-0.31794 -0.1203,-0.42965 -0.073,-0.073 -0.25349,-0.18045 -0.51987,-0.27927 m -2.29002,-0.0301 c -0.0602,0.0601 -0.15896,0.0902 -0.29645,0.0902 h -0.50698 v -0.68743 h 0.50698 c 0.13749,0 0.2406,0.0301 0.29645,0.0902 0.0601,0.0602 0.0988,0.13749 0.0988,0.2492 0,0.116 -0.0301,0.19764 -0.0988,0.25779 m 0.73899,1.49087 -0.5972,-0.9753 c 0.15897,-0.0687 0.27927,-0.16756 0.34801,-0.28786 0.0816,-0.1203 0.10741,-0.28786 0.10741,-0.4855 0,-0.13749 -0.0215,-0.25779 -0.0687,-0.35661 -0.0473,-0.0988 -0.10741,-0.18045 -0.18905,-0.24919 -0.0816,-0.0687 -0.18904,-0.10741 -0.30934,-0.15038 -0.1203,-0.0301 -0.24919,-0.0515 -0.39957,-0.0515 h -0.99248 v 2.54779 h 0.54565 v -0.91514 h 0.42964 l 0.45543,0.91514 h 0.66595 v 0.009 z m -4.19763,0 0.16756,-0.55854 h 0.92374 l 0.16756,0.55854 H 12.101 l -0.89367,-2.5478 h -0.66595 l -0.893659,2.5478 z m 0.27497,-1.05263 0.33942,-1.03545 h 0.0301 l 0.33942,1.03545 z m -2.900106,1.05263 h 1.727175 v -0.52847 H 8.165444 v -0.53705 h 1.052631 v -0.47691 H 8.165444 v -0.54565 h 1.142857 v -0.46821 H 7.615497 v 2.55639 z M 19.9721,11.772185 H 22 v -0.61869 h -1.39205 v -0.62728 h 1.24167 v -0.56284 h -1.24167 v -0.64447 h 1.34479 v -0.54565 h -1.99356 v 3.00323 h 0.0129 z m -1.89044,0 h 0.64447 v -2.44468 h 0.87648 v -0.54565 h -2.39742 v 0.54565 h 0.87647 z m -3.01611,0 0.19764,-0.64447 h 1.087 l 0.19764,0.64447 h 0.70462 l -1.05263,-3.00322 h -0.78626 l -1.05263,3.00322 z m 0.33083,-1.23308 0.39957,-1.2116 h 0.0301 l 0.39957,1.2116 z m -1.35339,-1.77014 h -1.02255 l -0.56713,2.12674 h -0.0301 l -0.56713,-2.12674 h -1.02256 v 3.00322 h 0.56713 v -2.44468 h 0.0301 l 0.71751,2.44468 h 0.58861 l 0.71751,-2.44468 h 0.0301 v 2.44468 h 0.56713 z m -4.494088,3.00322 H 10.19337 V 8.768965 H 9.548902 Z m -1.950591,0 H 8.24278 V 9.327505 H 9.119257 V 8.781855 H 6.721835 v 0.54565 h 0.876476 c 0,0 0,2.44468 0,2.44468 z m -2.607948,0 h 1.997852 v -0.61869 H 5.634801 V 8.764765 H 4.990333 Z M 2,8.769065 v 1.70999 c 0,0.1203 0,0.22771 0.0086,0.31793 0.0086,0.0902 0.02148,0.16757 0.03007,0.2406 0.0086,0.0688 0.03007,0.1289 0.06015,0.18905 0.02148,0.0516 0.06015,0.10741 0.09023,0.15897 0.210526,0.29645 0.54565,0.43824 1.035446,0.43824 0.489796,0 0.824919,-0.15038 1.035446,-0.43824 0.03867,-0.0516 0.06874,-0.10741 0.09023,-0.15897 0.02148,-0.0516 0.03867,-0.1203 0.06015,-0.18905 0.0086,-0.0687 0.02148,-0.15037 0.03008,-0.2406 0.0086,-0.0902 0.0086,-0.19763 0.0086,-0.31793 V 8.769065 H 3.804533 v 1.62406 0.0988 c 0,0.15896 -0.0086,0.27926 -0.03867,0.37808 -0.03008,0.0988 -0.09023,0.18045 -0.180451,0.2492 -0.09023,0.0687 -0.210526,0.10741 -0.356606,0.10741 -0.137486,0 -0.257787,-0.0387 -0.356606,-0.10741 -0.09023,-0.0688 -0.150375,-0.15038 -0.180451,-0.2492 -0.03007,-0.0988 -0.03867,-0.21912 -0.03867,-0.37808 v -0.0988 -1.61977 H 2 Z"
   id="path6"
   style="fill:#000000;fill-opacity:1;stroke-width:0.0429646" />
</svg>
