<svg xmlns="http://www.w3.org/2000/svg" width="192" height="192" fill="none"><path stroke="#000" stroke-linecap="round" stroke-linejoin="round" stroke-width="10" d="m96 84.635-71.33-32.7M96 84.634l71.331-32.7M96 84.634V167m75-116.748L98.07 21.37a6 6 0 0 0-4.14 0L21 50.252v85.055a6.02 6.02 0 0 0 3.67 5.543L96 171l71.331-30.15a6.02 6.02 0 0 0 3.669-5.543z"/><path stroke="#000" stroke-linecap="round" stroke-linejoin="round" stroke-width="10" d="m50 40.17 69.396 31.36a6 6 0 0 1 3.87 5.61v13.424c0 4.265 3.324 6.168 7.271 4.554l13.31-6.624a6 6 0 0 0 3.729-5.44l.343-15.923a6 6 0 0 0-3.906-5.738L74.814 31"/></svg>