<svg width="192" height="192" viewBox="0 0 192 192" fill="none" xmlns="http://www.w3.org/2000/svg">
<path d="M171 50.2522L98.0704 21.3695C96.7339 20.8768 95.2661 20.8768 93.9296 21.3695L21 50.2522M171 50.2522V135.307C171 137.726 169.554 139.91 167.331 140.85L96 171M171 50.2522L96 84.6353M96 171L24.6692 140.85C22.4456 139.91 21 137.726 21 135.307V50.2522M96 171V84.6353M96 84.6353L21 50.2522" stroke="black" stroke-width="10" stroke-linejoin="round"/>
<path d="M50 40.1704L119.396 71.5302C121.726 72.415 123.266 74.6474 123.266 77.1392V90.5645C123.266 94.8289 126.59 96.7321 130.537 95.1182L143.847 88.4935C146.064 87.5871 147.53 85.4491 147.576 83.0546L147.919 67.1309C147.967 64.5831 146.401 62.2824 144.013 61.3932L74.814 31" stroke="black" stroke-width="8" stroke-linecap="round" stroke-linejoin="round"/>
</svg>
