<svg width="192" height="192" viewBox="0 0 192 192" fill="none" xmlns="http://www.w3.org/2000/svg">
<path d="M170 48.8889L98.0428 22.3646C96.7241 21.8785 95.2759 21.8785 93.9572 22.3646L22 48.8889M170 48.8889V134.783C170 137.17 168.574 139.325 166.38 140.252L96 170M170 48.8889L96 76.8935M96 170L25.6203 140.252C23.4264 139.325 22 137.17 22 134.783V48.8889M96 170V76.8935M96 76.8935L22 48.8889" stroke="black" stroke-width="12" stroke-linejoin="round"/>
<path d="M47 39.1704L116.396 65.5302C118.726 66.415 120.266 68.6474 120.266 71.1392V83.5645C120.266 87.8289 124.59 90.7321 128.537 89.1182L139.847 84.4935C142.064 83.5871 143.53 81.4491 143.576 79.0546L143.919 61.1309C143.967 58.5831 142.401 56.2824 140.013 55.3932L71.814 30" stroke="black" stroke-width="10" stroke-linecap="round" stroke-linejoin="round"/>
</svg>
