<?xml version="1.0" encoding="UTF-8" standalone="no"?>
<svg
   id="Layer_1"
   data-name="Layer 1"
   viewBox="0 0 24 24"
   version="1.1"
   sodipodi:docname="boost.svg"
   inkscape:version="1.1.1 (3bf5ae0d25, 2021-09-20)"
   xmlns:inkscape="http://www.inkscape.org/namespaces/inkscape"
   xmlns:sodipodi="http://sodipodi.sourceforge.net/DTD/sodipodi-0.dtd"
   xmlns="http://www.w3.org/2000/svg"
   xmlns:svg="http://www.w3.org/2000/svg">
  <defs
     id="defs7" />
  <sodipodi:namedview
     id="namedview5"
     pagecolor="#ffffff"
     bordercolor="#666666"
     borderopacity="1.0"
     inkscape:pageshadow="2"
     inkscape:pageopacity="0.0"
     inkscape:pagecheckerboard="0"
     showgrid="true"
     inkscape:zoom="34.708333"
     inkscape:cx="12"
     inkscape:cy="14.290516"
     inkscape:window-width="2560"
     inkscape:window-height="1011"
     inkscape:window-x="0"
     inkscape:window-y="32"
     inkscape:window-maximized="1"
     inkscape:current-layer="Layer_1">
    <inkscape:grid
       type="xygrid"
       id="grid923"
       empspacing="1" />
  </sodipodi:namedview>
  <path
     d="m 15.52229,8.4781546 a 1.9227478,1.9229 0 1 1 -2.719205,0 1.9227678,1.92292 0 0 1 2.719205,0 z m -4.28818,4.2884404 c -0.226782,-0.2268 -1.9696243,0.75885 -3.6524811,2.44178 a 8.9005453,8.90125 0 0 0 -2.4415167,3.65277 8.9011752,8.90188 0 0 0 3.6524808,-2.44177 c 1.682797,-1.68292 2.668369,-3.4259 2.441517,-3.65278 z m -0.996381,6.06543 c -0.06828,0.03193 -0.13347,0.06177 -0.194925,0.09 0.01874,0.2392 0.02691,0.51172 0.0227,0.824 a 18.765734,18.76722 0 0 1 -0.7382233,3.25557 12.830234,12.83125 0 0 0 2.7871993,-1.80994 5.7329961,5.73345 0 0 0 1.245901,-3.23211 c 0.0055,-0.2461 -0.0037,-0.54071 -0.02588,-0.84137 a 22.703062,22.70486 0 0 1 -3.096774,1.71386 z M 18.42922,8.2360246 a 10.177414,10.17822 0 0 0 1.255951,0.71215 20.58863,20.59026 0 0 1 -1.679257,2.7074604 27.438498,27.44067 0 0 1 -4.623354,4.50928 c -0.048,0.03693 -0.09679,0.07306 -0.146409,0.10944 a 20.753357,20.755 0 0 1 -3.3130875,1.88116 c -0.4873914,0.22681 -0.8070061,0.35815 -0.8070061,0.35815 0,0 -0.065665,-0.19439 -0.1862052,-0.46789 a 5.2554239,5.25584 0 0 1 -0.531448,0.22449 c 0,0 -0.076714,-0.13214 -0.1914548,-0.32868 a 13.543928,13.545 0 0 0 1.1132518,-0.99463 15.231734,15.23294 0 0 0 2.0389788,-2.50017 5.9420595,5.94253 0 0 0 0.520339,-0.97827 1.8666422,1.86679 0 0 0 0.12475,-0.46185 0.87293089,0.873 0 0 0 -1.01012,-1.0102 1.8640124,1.86416 0 0 0 -0.461814,0.12476 5.9374499,5.93792 0 0 0 -0.9781923,0.52038 15.228634,15.22984 0 0 0 -2.499982,2.03913 13.543928,13.545 0 0 0 -0.9945613,1.11334 c -0.1965244,-0.11475 -0.328654,-0.19147 -0.328654,-0.19147 a 5.2554239,5.25584 0 0 1 0.2244723,-0.53149 c -0.2735384,-0.12055 -0.467963,-0.18622 -0.467963,-0.18622 0,0 0.1313396,-0.3197 0.3581916,-0.80713 a 20.762456,20.7641 0 0 1 1.8809511,-3.31335 c 0.036437,-0.04956 0.072564,-0.09839 0.1094914,-0.14636 A 27.437958,27.44013 0 0 1 12.344952,5.9943346 c 0.420436,-0.31073 0.901228,-0.63544 1.416568,-0.95087 0.412507,-0.25269 0.847103,-0.49957 1.290737,-0.72852 a 10.168375,10.16918 0 0 0 0.712094,1.25605 10.883278,10.88414 0 0 0 1.032818,1.29925 c 0.0506,0.05646 0.276408,0.28223 0.332804,0.33289 a 10.895677,10.89654 0 0 0 1.299247,1.0329 z m -2.513471,-0.15143 a 2.4782438,2.47844 0 1 0 0.596083,2.5468704 2.4789637,2.47916 0 0 0 -0.596083,-2.5468704 z m 5.0488,-5.04914 a 10.946313,10.94718 0 0 0 -3.617453,0.31232 13.01231,13.01334 0 0 0 -1.625182,0.63776 l 8e-4,0.00128 a 9.459851,9.4606 0 0 0 0.663578,1.17218 10.248189,10.249 0 0 0 0.966353,1.21332 c 0.0459,0.05163 0.223623,0.22943 0.275308,0.27533 a 10.255488,10.2563 0 0 0 1.213224,0.96643 9.4712501,9.472 0 0 0 1.172028,0.66363 l 0.0013,8e-4 c 0.101032,-0.21711 0.196804,-0.4347 0.285667,-0.65125 0.134509,-0.32867 0.25346,-0.65491 0.352082,-0.97406 a 10.946363,10.94723 0 0 0 0.312295,-3.61773 z M 6.8829542,10.666025 C 6.582318,10.643865 6.2877313,10.634655 6.0416508,10.640205 a 5.7327261,5.73318 0 0 0 -3.2318541,1.246 A 12.831704,12.83272 0 0 0 1,14.673595 18.759985,18.76147 0 0 1 4.2553623,13.935375 c 0.3122252,-0.0042 0.5846637,0.0039 0.8239347,0.02264 0.028198,-0.06146 0.057995,-0.12659 0.089893,-0.19488 a 22.702023,22.70382 0 0 1 1.7137642,-3.09711 z"
     id="path2"
     style="stroke-width:0.99996" />
</svg>
