<svg width="192" height="192" fill="none" xmlns="http://www.w3.org/2000/svg"><path d="m87.413 104.586-39.817 39.818m68.259-25.597 1.578 17.351a24.135 24.135 0 0 1-10.195 21.956L90.258 170l-1.422-32.707M73.193 76.144l-17.351-1.578a24.132 24.132 0 0 0-21.956 10.196L22 101.74l32.707 1.422m38.395-46.927c22.753-22.753 58.304-35.551 76.791-34.129 1.422 18.486-11.377 54.038-34.129 76.791-22.753 22.753-48.35 39.818-62.57 45.506l-25.598-25.597c5.688-14.221 22.753-39.818 45.506-62.571Z" stroke="#000" stroke-width="12" stroke-linecap="round" stroke-linejoin="round"/><circle cx="133" cy="59" r="5" stroke="#000" stroke-width="10" stroke-linecap="round" stroke-linejoin="round"/></svg>