<svg xmlns="http://www.w3.org/2000/svg" width="192" height="192" fill="none"><path stroke="#000" stroke-linecap="round" stroke-linejoin="round" stroke-width="12" d="m22 64.918 7.694-9.22c7.081-8.487 19.664-9.594 28.103-2.473l3.056 2.579M170 106.003l-7.693 9.22c-7.082 8.487-19.665 9.594-28.104 2.473l-3.056-2.579m2.038-74.22 7.694-9.22m-8.976 10.757c-3.899-3.29-9.146-7.184-14.485-10.964-13.08-9.26-30.906-6.416-41.188 5.907l-41.022 49.16c-2.124 2.546-1.794 6.342.738 8.478l61.125 51.577a5.96 5.96 0 0 0 8.431-.742l41.021-49.16c10.283-12.323 9.972-30.47-1.368-41.816-4.628-4.63-9.354-9.15-13.252-12.44m-74.96 104.44a15.43 15.43 0 0 1-3.421 11.094c-5.601 6.825-16.412 9.181-22.823 9.991-2.935.371-5.46-1.796-5.613-4.816-.333-6.596.059-17.889 5.66-24.714 2.534-3.088 6.165-5.02 10.092-5.371a14.65 14.65 0 0 1 10.852 3.498c3.02 2.591 4.91 6.303 5.253 10.318"/><path stroke="#000" stroke-linecap="round" stroke-linejoin="round" stroke-width="10" d="M83.135 72.014a20 20 0 0 0-3.956 33.231 20 20 0 0 0 28.177-2.465 20 20 0 0 0 3.863-7.201"/><circle cx="102.919" cy="52.062" r="4" stroke="#000" stroke-linecap="round" stroke-linejoin="round" stroke-width="8" transform="rotate(40 102.919 52.062)"/><circle cx="127.432" cy="72.631" r="4" stroke="#000" stroke-linecap="round" stroke-linejoin="round" stroke-width="8" transform="rotate(40 127.432 72.631)"/><path stroke="#000" stroke-linecap="round" stroke-linejoin="round" stroke-width="10" d="M102.962 76.902 92.678 89.159"/></svg>