<?xml version="1.0" encoding="UTF-8" standalone="no"?>
<!-- Created with Inkscape (http://www.inkscape.org/) -->

<svg
   width="192"
   height="192"
   viewBox="0 0 50.799999 50.8"
   version="1.1"
   id="svg1"
   xmlns="http://www.w3.org/2000/svg"
   xmlns:svg="http://www.w3.org/2000/svg">
  <defs
     id="defs1" />
  <g
     id="layer1"
     style="stroke-width:3.17499997;stroke-dasharray:none">
    <path
       d="m 10.853881,44.702288 1.382783,-8.350981 A 5.5943574,5.5943574 49.315617 0 1 7.0789756,30.351634 l 5.86e-5,-19.556275 C 7.0790372,9.7877064 7.4378206,8.9250939 8.1553933,8.207521 8.872966,7.4899528 9.7355786,7.1311687 10.74323,7.1311687 h 29.313538 c 1.007652,0 1.870264,0.3587841 2.587837,1.0763523 0.717569,0.7175729 1.076353,1.5801854 1.076353,2.587838 v 21.985154 c 0,1.007657 -0.358784,1.87027 -1.076353,2.587836 -0.717573,0.717573 -1.580185,0.982958 -2.587837,0.982958 0,0 -16.716145,0.02397 -18.2414,0 -3.927888,-0.06172 -10.961487,8.350981 -10.961487,8.350981 z"
       id="path1-6"
       style="fill:none;stroke:#000000;stroke-width:3.04627;stroke-linecap:round;stroke-linejoin:round;stroke-dasharray:none;stroke-opacity:1"
       transform="matrix(1.0422623,0,0,1.0422561,-1.0651266,-1.6116671)" />
    <path
       d="m 20.051607,25.80725 c 0.907284,0 1.790445,0.10134 2.649473,0.304023 0.859026,0.20268 1.713224,0.506717 2.562602,0.912109 V 15.614811 c -0.791465,-0.463292 -1.631185,-0.810762 -2.519168,-1.042409 -0.887984,-0.231661 -1.785623,-0.347494 -2.692907,-0.347494 -0.694944,0 -1.38506,0.06757 -2.070354,0.202683 -0.68529,0.13512 -1.346449,0.337814 -1.983483,0.608075 V 26.50216 c 0.675642,-0.231633 1.346452,-0.405366 2.012441,-0.521202 0.665988,-0.115833 1.346452,-0.173746 2.041396,-0.173746 z m 5.484714,1.216145 c 0.849374,-0.405381 1.703573,-0.709416 2.562603,-0.912109 0.859026,-0.202679 1.742185,-0.304022 2.64947,-0.304022 0.694943,0 1.375407,0.05793 2.041394,0.173746 0.665989,0.11583 1.3368,0.289563 2.012441,0.521202 V 15.035719 c -0.637032,-0.270242 -1.298192,-0.472935 -1.983485,-0.608076 -0.685291,-0.135122 -1.375407,-0.202681 -2.07035,-0.202681 -0.907285,0 -1.804924,0.115831 -2.692905,0.347491 -0.887988,0.231661 -1.727708,0.579133 -2.519168,1.042409 z"
       id="path1"
       style="fill:none;stroke:#000000;stroke-width:3.175;stroke-linecap:round;stroke-linejoin:round;stroke-dasharray:none;stroke-opacity:1" />
  </g>
</svg>
