<svg width="192" height="192" viewBox="0 0 192 192" fill="none" xmlns="http://www.w3.org/2000/svg">
<path fill-rule="evenodd" clip-rule="evenodd" d="M130.5 96C128.015 96 126 93.9853 126 91.5L126 32.5C126 30.0147 128.015 28 130.5 28V28C132.985 28 135 30.0147 135 32.5L135 91.5C135 93.9853 132.985 96 130.5 96V96Z" fill="black"/>
<path fill-rule="evenodd" clip-rule="evenodd" d="M97 60.5C97 58.0147 99.0147 56 101.5 56H160.5C162.985 56 165 58.0147 165 60.5V60.5C165 62.9853 162.985 65 160.5 65H101.5C99.0147 65 97 62.9853 97 60.5V60.5Z" fill="black"/>
</svg>
