<svg xmlns="http://www.w3.org/2000/svg" width="192" height="192" fill="none" stroke="#000" stroke-linecap="round" stroke-linejoin="round" stroke-width="12" viewBox="0 0 192 192"><path d="M111 54H95m16 32H95m16 52H79m33 32H80M22 38v74m32-74v74m58-58a58 58 0 1 1 0 116m-32 0a57.995 57.995 0 0 1-53.585-35.804A58 58 0 0 1 22 112"/><path d="M112 86a26.005 26.005 0 0 1 24.021 16.05 26.016 26.016 0 0 1 0 19.9 26.023 26.023 0 0 1-5.636 8.435 26.023 26.023 0 0 1-8.435 5.636A26.016 26.016 0 0 1 112 138m-32 0a26.012 26.012 0 0 1-18.385-7.615A26.014 26.014 0 0 1 54 112m41-26a16.001 16.001 0 1 1 0-32.002A16.001 16.001 0 0 1 95 86h0ZM54 38a16.001 16.001 0 0 1-27.314 11.314A16 16 0 1 1 54 38h0Z"/></svg>