<svg xmlns="http://www.w3.org/2000/svg" width="192" height="192" fill="none"><path stroke="#000" stroke-linecap="round" stroke-linejoin="round" stroke-width="12" d="M22 152h108m-16 18v-18m11.008-100.006 32.843 19.884m-51.945 8.76 32.842 19.884m8.747-68.666-15.592 7.817a6.1 6.1 0 0 0-2.464 2.266l-37.781 61.933a6.1 6.1 0 0 1-1.391 1.579l-7.81 6.242a6.05 6.05 0 0 0-2.148 3.496l-1.183 5.705c-.628 3.032 1.143 6.047 4.106 6.99l4.172 1.328a6.1 6.1 0 0 1 2.644 1.688l3.876 4.233a6.1 6.1 0 0 0 3.667 1.919l4.723.647a6.1 6.1 0 0 1 3.726 1.985l2.912 3.274a6.106 6.106 0 0 0 8.366.708l4.122-3.295a6.05 6.05 0 0 0 2.149-3.497l2.076-10.012c.14-.678.397-1.327.758-1.918l37.793-61.953a6.03 6.03 0 0 0 .883-3.216l-.216-17.392 4.228-6.93a6.07 6.07 0 0 0-2.045-8.357l-6.955-4.211c-2.881-1.744-6.636-.83-8.388 2.04z"/></svg>