<svg xmlns="http://www.w3.org/2000/svg" width="192" height="192" fill="none" viewBox="0 0 192 192"><circle cx="114" cy="127" r="3" stroke="#000" stroke-linecap="round" stroke-linejoin="round" stroke-width="6"/><path stroke="#000" stroke-linecap="round" stroke-linejoin="round" stroke-width="12" d="M158 84a62 62 0 1 0-124 0m124 0c0 12.318-4.859 24.479-11.857 35.606C128.145 148.224 96 170 96 170s-9.773-6.62-21.558-17.357c-14.575-13.279-32.228-32.854-38.283-53.99C34.778 93.83 34 88.928 34 84"/><path stroke="#000" stroke-linecap="round" stroke-linejoin="round" stroke-width="12" d="M68 70a22 22 0 1 1 44 0c0 11.935-4.425 23.38-12.302 31.82q-.33.353-.666.698m47.111 15.088a40 40 0 0 0-47.11-15.088m-24.591 48.125a40 40 0 0 1 9.593-38.23m0 0a40 40 0 0 1 14.861-9.844l.136-.051m-14.997 9.895A39.5 39.5 0 0 1 70 115c-11.14 0-21.822-4.741-29.699-13.18a44 44 0 0 1-4.142-5.167"/><path stroke="#000" stroke-linecap="round" stroke-linejoin="round" stroke-width="10" d="M75 151s11-5 21-5 21 5 21 5"/><circle cx="130" cy="98" r="4" stroke="#000" stroke-linecap="round" stroke-linejoin="round" stroke-width="8"/></svg>