<svg width="192" height="192" viewBox="0 0 192 192" fill="none" xmlns="http://www.w3.org/2000/svg"><path d="M170 43v106m-42-55v55" stroke="#000" stroke-width="12" stroke-linecap="round"/><path d="M43 64a21 21 0 1 1 0-42m127 127c0 5.57-2.212 10.911-6.151 14.849a20.995 20.995 0 0 1-29.698 0A20.995 20.995 0 0 1 128 149m35-90.301L57.85 163.849a20.997 20.997 0 0 1-29.7 0 20.998 20.998 0 0 1 0-29.698L133.303 29" stroke="#000" stroke-width="12" stroke-linecap="round" stroke-linejoin="round"/><path d="M43 22h106M43 64h55" stroke="#000" stroke-width="12" stroke-linecap="round"/><path d="M160.667 60.46A21 21 0 0 1 149 64h-15a6 6 0 0 1-6-6V43a21.004 21.004 0 0 1 12.964-19.401 20.999 20.999 0 0 1 19.703 36.862Z" stroke="#000" stroke-width="12" stroke-linecap="round" stroke-linejoin="round"/></svg>