<svg xmlns="http://www.w3.org/2000/svg" width="192" height="192" fill="none" stroke="#000" stroke-linejoin="round" stroke-width="12" viewBox="0 0 192 192"><path d="M58.797 163.22a21.247 21.178 47.045 0 1-20.777 6.12 21.247 21.178 47.045 0 1-15.358-15.354 21.247 21.178 47.045 0 1 6.105-20.785L133.199 28.779a21.247 21.178 47.045 0 1 20.778-6.119 21.247 21.178 47.045 0 1 15.358 15.353 21.247 21.178 47.045 0 1-6.105 20.786z"/><path d="M148 22.016a21.183 21.25 0 0 1 19.024 10.369 21.183 21.25 0 0 1 .006 21.72 21.183 21.25 0 0 1-19.018 10.38l-104.024.007a21.183 21.25 0 0 1-19.024-10.369 21.183 21.25 0 0 1-.006-21.718 21.183 21.25 0 0 1 19.017-10.38z"/><path d="M169.983 148a21.25 21.183 0 0 1-10.368 19.025 21.25 21.183 0 0 1-21.72.006 21.25 21.183 0 0 1-10.38-19.018V43.997a21.25 21.181 0 0 1 10.37-19.023 21.25 21.181 0 0 1 21.72-.006 21.25 21.181 0 0 1 10.38 19.016z"/></svg>