<svg width="192" height="192" viewBox="0 0 192 192" fill="none" xmlns="http://www.w3.org/2000/svg">
<path d="M95.9095 151.878L50 125.436V72.4426M95.9095 151.878L141.819 125.436V72.4426M95.9095 151.878V98.9392M50 72.4426L95.9095 46L141.819 72.4426M50 72.4426L95.9095 98.9392M141.819 72.4426L95.9095 98.9392" stroke="black" stroke-width="12" stroke-linecap="round" stroke-linejoin="round"/>
<path d="M43.973 22H25.2432C23.5874 22 21.9994 22.6578 20.8286 23.8286C19.6578 24.9994 19 26.5874 19 28.2432V46.973M148.027 22H166.757C168.413 22 170.001 22.6578 171.171 23.8286C172.342 24.9994 173 26.5874 173 28.2432V46.973M148.027 176H166.757C168.413 176 170.001 175.342 171.171 174.171C172.342 173.001 173 171.413 173 169.757V151.027M43.973 176H25.2432C23.5874 176 21.9994 175.342 20.8286 174.171C19.6578 173.001 19 171.413 19 169.757V151.027" stroke="black" stroke-width="12" stroke-linecap="round" stroke-linejoin="round"/>
</svg>
