<svg width="192" height="192" viewBox="0 0 192 192" fill="none" xmlns="http://www.w3.org/2000/svg">
<path d="M96.0002 146.877L51.8789 121.465V70.5354M96.0002 146.877L140.121 121.465V70.5354M96.0002 146.877V96M51.8789 70.5354L96.0002 45.1228L140.121 70.5354M51.8789 70.5354L96.0002 96M140.121 70.5354L96.0002 96" stroke="black" stroke-width="12" stroke-linecap="round" stroke-linejoin="round"/>
<path d="M46 22H28C26.4087 22 24.8826 22.6321 23.7574 23.7574C22.6321 24.8826 22 26.4087 22 28V46M146 22H164C165.591 22 167.117 22.6321 168.243 23.7574C169.368 24.8826 170 26.4087 170 28V46M146 170H164C165.591 170 167.117 169.368 168.243 168.243C169.368 167.117 170 165.591 170 164V146M46 170H28C26.4087 170 24.8826 169.368 23.7574 168.243C22.6321 167.117 22 165.591 22 164V146" stroke="black" stroke-width="12" stroke-linecap="round" stroke-linejoin="round"/>
</svg>
