<svg width="192" height="192" viewBox="0 0 192 192" fill="none" xmlns="http://www.w3.org/2000/svg"><path d="M103 102V84l16 18V84m-44 0 8 9m0 0 8-9m-8 9v9m50 0V84" stroke="#000" stroke-width="8" stroke-linecap="round" stroke-linejoin="round"/><path d="M133 103h13m-13-20h13" stroke="#000" stroke-width="6" stroke-linecap="round" stroke-linejoin="round"/><path d="M20 102V84m138 18V84" stroke="#000" stroke-width="8" stroke-linecap="round" stroke-linejoin="round"/><path d="M133 93h10M20 93h11m128 3h8" stroke="#000" stroke-width="6" stroke-linecap="round" stroke-linejoin="round"/><path d="m168 97 4 5" stroke="#000" stroke-width="8" stroke-linecap="round" stroke-linejoin="round"/><path d="M20 103h11M20 83h9m130 0h8" stroke="#000" stroke-width="6" stroke-linecap="round" stroke-linejoin="round"/><circle cx="56" cy="93" r="9" stroke="#000" stroke-width="8"/><path d="M31 103a5.002 5.002 0 0 0 5-5 5 5 0 0 0-5-5m-2 0a5 5 0 1 0 0-10m137.5 13a6.5 6.5 0 1 0 0-13" stroke="#000" stroke-width="6" stroke-linecap="round" stroke-linejoin="round"/></svg>