<?xml version="1.0" encoding="UTF-8" standalone="no"?>
<!-- Created with Inkscape (http://www.inkscape.org/) -->

<svg
   width="192"
   height="192"
   viewBox="0 0 50.799998 50.8"
   version="1.1"
   id="svg1"
   inkscape:version="1.4 (86a8ad7, 2024-10-11)"
   sodipodi:docname="brac_bank_astha.svg"
   xml:space="preserve"
   inkscape:export-filename="Export\brac_bank_astha.png"
   inkscape:export-xdpi="96"
   inkscape:export-ydpi="96"
   xmlns:inkscape="http://www.inkscape.org/namespaces/inkscape"
   xmlns:sodipodi="http://sodipodi.sourceforge.net/DTD/sodipodi-0.dtd"
   xmlns="http://www.w3.org/2000/svg"
   xmlns:svg="http://www.w3.org/2000/svg"><sodipodi:namedview
     id="namedview1"
     pagecolor="#ffffff"
     bordercolor="#666666"
     borderopacity="1.0"
     inkscape:showpageshadow="2"
     inkscape:pageopacity="0.0"
     inkscape:pagecheckerboard="0"
     inkscape:deskcolor="#d1d1d1"
     inkscape:document-units="px"
     inkscape:zoom="2.8284271"
     inkscape:cx="56.038212"
     inkscape:cy="117.91006"
     inkscape:window-width="1366"
     inkscape:window-height="697"
     inkscape:window-x="-8"
     inkscape:window-y="-8"
     inkscape:window-maximized="1"
     inkscape:current-layer="layer2"
     showguides="true"><inkscape:page
       x="0"
       y="0"
       width="50.799999"
       height="50.799999"
       id="page2"
       margin="0"
       bleed="0" /></sodipodi:namedview><defs
     id="defs1" /><g
     inkscape:groupmode="layer"
     id="layer2"
     inkscape:label="layer"
     style="display:inline;stroke-width:0.264583;stroke-dasharray:none"><path
       id="rect1"
       style="display:inline;fill:none;fill-opacity:1;stroke:#000000;stroke-width:3.175;stroke-linecap:round;stroke-linejoin:round;stroke-miterlimit:6;stroke-dasharray:none;stroke-opacity:1"
       d="M 9.7895841,6.614584 C 20.3049,6.6254429 30.821304,6.5928468 41.335938,6.6309163 43.295711,6.7629271 44.453939,8.7787146 44.185415,10.59631 44.174558,20.842717 44.20715,31.090213 44.169083,41.335938 44.037072,43.295711 42.021284,44.453939 40.203689,44.185415 29.957282,44.174558 19.709786,44.20715 9.4640613,44.169083 7.5042879,44.037072 6.3460602,42.021284 6.6145842,40.203689 6.6254416,29.957282 6.592849,19.709786 6.6309165,9.4640612 6.7595325,7.8827096 8.2029727,6.5809066 9.7895841,6.614584 Z M 43.633409,7.9955215 C 41.425747,13.65536 38.116381,18.864267 34.311434,23.583628 29.452309,29.474156 22.98642,34.674269 15.219668,35.789917 12.357184,36.205506 9.4200306,36.023879 6.6145838,35.332695"
       inkscape:label="scene" /><circle
       style="display:inline;fill:none;stroke:#000000;stroke-width:2.64583;stroke-linecap:round;stroke-linejoin:round;stroke-miterlimit:6;stroke-dasharray:none;stroke-opacity:1"
       id="path2"
       cx="19.284805"
       cy="24.870832"
       r="3.7041667"
       inkscape:label="Sun" /></g></svg>
