<svg width="192" height="192" viewBox="0 0 192 192" fill="none" xmlns="http://www.w3.org/2000/svg">
    <path d="M170 23L22 48.6641V169L170 143.906V23Z" stroke="black" stroke-width="12"/>
    <path d="M66 82.4598V67.7848L106.118 61.0118L114.141 61.0118C116.434 60.8236 121.706 62.8179 124.457 72.3002C127.896 84.153 112.988 89.5 117 89.5C121.012 89.5 129.042 92.0549 127.896 106.165C126.979 117.454 112.231 123.286 104.971 124.791L66 131V116.325L71.7311 115.196V81.3309L66 82.4598Z" stroke="black" stroke-width="6"/>
    <path d="M92.3631 86.9751V77.9444C92.3631 77.9444 100.387 76.8156 100.96 76.8156C101.533 76.8156 102.67 77.5674 103.252 78.5088C104.067 79.8268 103.711 80.2021 103.252 82.4598C102.649 85.4321 97.33 86.4107 94.6555 86.9751C91.981 87.5396 92.3631 86.9751 92.3631 86.9751Z" stroke="black" stroke-width="6"/>
    <path d="M92.363 110.681V100.521C95.6107 100.333 101.304 99.3924 102.679 99.3924C104.054 99.3924 104.971 99.9568 106.118 101.65C107.264 103.343 106.118 105.225 106.118 105.601C106.118 105.601 105.659 107.069 103.825 108.423C101.991 109.778 95.4196 110.493 92.363 110.681Z" stroke="black" stroke-width="6"/>
</svg>
