<svg width="192" height="192" viewBox="0 0 192 192" fill="none" xmlns="http://www.w3.org/2000/svg"><circle cx="96" cy="96" r="74" stroke="#000" stroke-width="12" stroke-linecap="round" stroke-linejoin="round"/><path d="M26 71c26.534-7.37 50.654-6.773 68.326-4.26a8 8 0 0 1 15.64 2.995C118.871 71.902 124 74 124 74m3 12c3.899 1.3 7.06 2.494 9.549 3.514 3.766 1.543 4.316 6.23 1.253 8.91l-6.608 5.781c-1.914 1.675-4.661 1.985-6.972.923C111.825 99.428 70.394 83.809 22 103" stroke="#000" stroke-width="10" stroke-linecap="round" stroke-linejoin="round"/><path d="M24 78c78 10 77 89 77 89m-78-59c49 9 49 57 49 57" stroke="#000" stroke-width="10" stroke-linecap="round" stroke-linejoin="round"/></svg>