<svg id="Layer_1" data-name="Layer 1" xmlns="http://www.w3.org/2000/svg" viewBox="0 0 192 192"><g id="Logo"><g id="Head"><path d="M163.54,68.17,159.9,57.69l2.57-6.43A6,6,0,0,0,161.32,45c-.18-.19-4.45-4.85-9.71-10.22s-13.53-5.28-18.39-4.57l-10.44-12a6,6,0,0,0-4.53-2.07H73.71a6,6,0,0,0-4.54,2.07l-10.39,12c-4.87-.7-13.09-.85-18.43,4.61s-9.53,10-9.71,10.21a6,6,0,0,0-1.15,6.29l2.57,6.44-3.6,10.49a6,6,0,0,0-.14,3.46c.13.49,12.74,49.15,14.22,55,3.06,12.35,5.46,18.52,15.61,25.81,8.41,6,23.54,16.4,26.23,18.15.44.29.91.62,1.39.95,2.73,1.91,6.12,4.28,10.23,4.28a14.38,14.38,0,0,0,7.53-2.49,1,1,0,0,0,.47-.85v-12a1,1,0,0,0-1.56-.83l-1.32.88c-.59.37-1.21.8-1.85,1.24a21.08,21.08,0,0,1-3.28,2,22.58,22.58,0,0,1-3.34-2.07c-.6-.42-1.18-.82-1.73-1.18-2.22-1.45-17.26-11.74-25.77-17.84-6.88-4.94-8.3-8.2-11-19-1.35-5.39-11.47-44.49-13.79-53.42l3.74-10.89a6,6,0,0,0-.1-4.18l-2-5c1.74-1.85,4.2-4.44,6.89-7.2,1.77-1.81,7.23-1.54,10.47-.65a6,6,0,0,0,6.17-1.84L76.45,28.09h39.06l10.94,12.59a6,6,0,0,0,6.15,1.85c3.24-.9,8.67-1.18,10.43.62,2.69,2.74,5.15,5.34,6.89,7.18l-2,5a6,6,0,0,0-.1,4.2l3.78,10.88c-2.32,9-12.45,48.05-13.79,53.45-2.71,10.92-4,14-11,18.93-1.42,1-3.06,2.18-4.8,3.41a1,1,0,0,0,.58,1.82h16.26a1,1,0,0,0,.72-.3c5.5-5.53,7.47-11.39,9.85-21,1.48-5.91,14.09-54.6,14.22-55.09A6.07,6.07,0,0,0,163.54,68.17Z"/></g><g id="Face"><path d="M120.59,67.33c-1.5-.15-4.91-.59-7.79-.59a13.39,13.39,0,0,0-3.34.33c-2.78.79-7.53,2-7.91,2.63s-.73.66-.33,2.86,2.43,12.74,2.63,14.61.58,3.11-1.4,3.58c-1.2.31-2.4.57-3.62.79a2.34,2.34,0,0,1,.27.15,2.7,2.7,0,0,1,.33.22,5.19,5.19,0,0,1,.46.36l.15.13a2.28,2.28,0,0,1,.22.22,2.23,2.23,0,0,1,.21.22,4.66,4.66,0,0,1,.39.49,5.51,5.51,0,0,1,.55.94c0,.1.09.2.13.3a2.19,2.19,0,0,1,.12.33,5.16,5.16,0,0,1,.25,1c1-.65,1.91-1.18,2.26-1.44,1.07-.77,6-3.58,6-4.69s.06-1.45-1.38-4.2-4-6.44-3.6-8.89,4.61-3.72,7.59-4.86,8.73-3.32,9.45-3.66S122.76,67.54,120.59,67.33ZM88.11,87.14c.19-1.88,2.24-12.42,2.63-14.61s.06-2.22-.33-2.86S85.28,67.83,82.5,67a13.39,13.39,0,0,0-3.34-.33c-2.88,0-6.29.44-7.79.59-2.17.21-2.36.53-1.64.86s6.46,2.51,9.45,3.66,7.16,2.42,7.59,4.86-2.16,6.13-3.6,8.89-1.48,3.08-1.38,4.2,5,4,6,4.69c.34.23,1.23.76,2.26,1.43a6,6,0,0,1,.74-2.07,1.76,1.76,0,0,1,.14-.23,4.86,4.86,0,0,1,.42-.59l0,0,.16-.18c.12-.13.24-.25.37-.37l.19-.17a3.38,3.38,0,0,1,.36-.27,5.1,5.1,0,0,1,.67-.43q-1.83-.33-3.63-.81C87.51,90.25,87.92,89,88.11,87.14Zm49.25-30.61c-3.4-4.64-6.76-8.77-6.9-9a12,12,0,0,0-9.31-4.43,11.69,11.69,0,0,0-2.29.22c-3.43.66-7.57,1.42-9.75,1.77-.73-.23-1.67-.56-2.38-.81s-1.29-.46-1.93-.67A29.53,29.53,0,0,0,96.37,42L96,42h-.44a29.53,29.53,0,0,0-8.43,1.65c-.64.21-1.29.44-1.93.67s-1.65.58-2.38.81c-2.18-.35-6.32-1.11-9.75-1.77a11.69,11.69,0,0,0-2.29-.22,12,12,0,0,0-9.31,4.43c-.14.18-3.5,4.31-6.9,9-6.71,9.15-8.86,13.56-8.86,18.16a18.09,18.09,0,0,0,6,13.8c.16.15.32.31.48.49l3.58,3.87,3.87,4.19a19.9,19.9,0,0,0,1.33,15,24.48,24.48,0,0,0,7.64,8.75,13.94,13.94,0,0,0,5.3,7.64c1.13.85,9.41,7.39,10.74,8.51l.24.21c1.94,1.79,5.55,5.1,11.06,5.1s9.12-3.31,11.06-5.09l.24-.22c1.33-1.12,9.61-7.66,10.74-8.51a13.94,13.94,0,0,0,5.3-7.64,24.48,24.48,0,0,0,7.64-8.75,19.9,19.9,0,0,0,1.33-15l7.5-8.14c.16-.18.32-.34.48-.49a18.09,18.09,0,0,0,6-13.8C146.22,70.09,144.07,65.69,137.36,56.53ZM99.37,128c-1,.86-2.39,2.29-3.39,2.29s-2.37-1.42-3.34-2.29c-.71-.63-6.14-4.94-9.33-7.44L81,118.81c-.73-.53-1.23-1.5-.42-2S84,115,87.45,113.13a38.56,38.56,0,0,1,5-2.28,35.67,35.67,0,0,1,3.5-1.13l0,0a34.64,34.64,0,0,1,3.45,1.11,38,38,0,0,1,5.08,2.3c3.49,1.84,6,3.14,6.83,3.66s.32,1.49-.42,2c-.2.14-1.09.83-2.3,1.78C105.48,123.09,100.07,127.4,99.37,128ZM131,80.87l-9.86,10.61c-.93,1-2.86,2.52-1.72,5.26s2.81,6.23,1,9.76a12.15,12.15,0,0,1-4.48,4.89,4.53,4.53,0,0,1-2.16.66,3.69,3.69,0,0,1-.47,0c-2-.39-6.85-3-8.61-4.12a26.58,26.58,0,0,1-2.7-2.1c-2.18-1.87-4.67-4.37-4.67-5.57s2.57-3,4.6-4.33c1-.65,1.91-1.18,2.26-1.44,1.07-.77,6-3.58,6-4.69s.06-1.45-1.38-4.2-4-6.44-3.6-8.89,4.61-3.72,7.59-4.86,8.73-3.32,9.45-3.66.53-.65-1.64-.86c-1.5-.15-4.91-.59-7.79-.59a13.39,13.39,0,0,0-3.34.33c-2.78.79-7.53,2-7.91,2.63s-.73.66-.33,2.86,2.43,12.74,2.63,14.61.58,3.11-1.4,3.58c-1.2.31-2.4.57-3.62.79-.94.18-1.89.32-2.85.44-1-.12-1.9-.27-2.84-.45q-1.83-.33-3.63-.81c-2-.47-1.59-1.7-1.4-3.58s2.24-12.42,2.63-14.61.06-2.22-.33-2.86S85.28,67.83,82.5,67a13.39,13.39,0,0,0-3.34-.33c-2.88,0-6.29.44-7.79.59-2.17.21-2.36.53-1.64.86s6.46,2.51,9.45,3.66,7.16,2.42,7.59,4.86-2.16,6.13-3.6,8.89-1.48,3.08-1.38,4.2,5,4,6,4.69c.34.23,1.23.76,2.26,1.43,2,1.32,4.6,3.17,4.6,4.34s-2.49,3.67-4.67,5.55a29.08,29.08,0,0,1-2.7,2.12c-1.77,1.17-6.57,3.73-8.61,4.12a3.69,3.69,0,0,1-.47,0,4.49,4.49,0,0,1-2.14-.66,12.18,12.18,0,0,1-4.5-4.89c-1.86-3.53-.18-7,1-9.76s-.79-4.26-1.72-5.26L61,80.87c-1.65-1.79-3.29-2.7-3.29-6.14S70.81,55.19,70.81,55.19s11,2.14,12.52,2.14,4.72-1.26,7.69-2.27a17.51,17.51,0,0,1,4.91-1H96v0a17.51,17.51,0,0,1,4.91,1c3,1,6.2,2.27,7.69,2.27s12.52-2.14,12.52-2.14,13.07,16.1,13.07,19.54S132.58,79.08,131,80.87ZM89.51,90.72c-2-.47-1.59-1.7-1.4-3.58s2.24-12.42,2.63-14.61.06-2.22-.33-2.86S85.28,67.83,82.5,67a13.39,13.39,0,0,0-3.34-.33c-2.88,0-6.29.44-7.79.59-2.17.21-2.36.53-1.64.86s6.46,2.51,9.45,3.66,7.16,2.42,7.59,4.86-2.16,6.13-3.6,8.89-1.48,3.08-1.38,4.2,5,4,6,4.69c.34.23,1.23.76,2.26,1.43a6,6,0,0,1,.74-2.07,1.76,1.76,0,0,1,.14-.23,4.86,4.86,0,0,1,.42-.59l0,0,.16-.18c.12-.13.24-.25.37-.37l.19-.17.36-.27a5.1,5.1,0,0,1,.67-.43Q91.31,91.2,89.51,90.72Zm31.08-23.39c-1.5-.15-4.91-.59-7.79-.59a13.39,13.39,0,0,0-3.34.33c-2.78.79-7.53,2-7.91,2.63s-.73.66-.33,2.86,2.43,12.74,2.63,14.61.58,3.11-1.4,3.58c-1.2.31-2.4.57-3.62.79a2.34,2.34,0,0,1,.27.15,2.7,2.7,0,0,1,.33.22,5.19,5.19,0,0,1,.46.36l.15.13a2.28,2.28,0,0,1,.22.22,2.23,2.23,0,0,1,.21.22,4.66,4.66,0,0,1,.39.49,5.51,5.51,0,0,1,.55.94c0,.1.09.2.13.3s.09.22.12.33a5.16,5.16,0,0,1,.25,1c1-.65,1.91-1.18,2.26-1.44,1.07-.77,6-3.58,6-4.69s.06-1.45-1.38-4.2-4-6.44-3.6-8.89,4.61-3.72,7.59-4.86,8.73-3.32,9.45-3.66S122.76,67.54,120.59,67.33Zm0,0c-1.5-.15-4.91-.59-7.79-.59a13.39,13.39,0,0,0-3.34.33c-2.78.79-7.53,2-7.91,2.63s-.73.66-.33,2.86,2.43,12.74,2.63,14.61.58,3.11-1.4,3.58c-1.2.31-2.4.57-3.62.79l.27.15a2.7,2.7,0,0,1,.33.22,5.19,5.19,0,0,1,.46.36l.15.13a2.28,2.28,0,0,1,.22.22,2.23,2.23,0,0,1,.21.22,4.66,4.66,0,0,1,.39.49,5.51,5.51,0,0,1,.55.94c0,.1.09.2.13.3s.09.22.12.33a5.16,5.16,0,0,1,.25,1c1-.65,1.91-1.18,2.26-1.44,1.07-.77,6-3.58,6-4.69s.06-1.45-1.38-4.2-4-6.44-3.6-8.89,4.61-3.72,7.59-4.86,8.73-3.32,9.45-3.66S122.76,67.54,120.59,67.33ZM89.51,90.72c-2-.47-1.59-1.7-1.4-3.58s2.24-12.42,2.63-14.61.06-2.22-.33-2.86S85.28,67.83,82.5,67a13.39,13.39,0,0,0-3.34-.33c-2.88,0-6.29.44-7.79.59-2.17.21-2.36.53-1.64.86s6.46,2.51,9.45,3.66,7.16,2.42,7.59,4.86-2.16,6.13-3.6,8.89-1.48,3.08-1.38,4.2,5,4,6,4.69c.34.23,1.23.76,2.26,1.43a6,6,0,0,1,.74-2.07c0-.08.09-.16.14-.23a4.86,4.86,0,0,1,.42-.59l0,0,.16-.18c.12-.13.24-.25.37-.37l.19-.17.36-.27a5.1,5.1,0,0,1,.67-.43Q91.31,91.2,89.51,90.72Z"/></g></g><path d="M80.67,121.2a6,6,0,0,1-5.28-3.13,6.18,6.18,0,0,1,2.41-8.15L90,102.59v-2.06L81,96.06A6,6,0,0,1,78,88.94L81.61,77l-.09-.16L71.33,73.49A6.16,6.16,0,0,1,67.23,66a6,6,0,0,1,7.64-4L85.32,65.5a12.07,12.07,0,0,1,7.77,15l-2.15,7,7.73,3.86A6,6,0,0,1,102,96.82V106a6,6,0,0,1-2.91,5.14l-15.32,9.22A6,6,0,0,1,80.67,121.2Z"/><path d="M111.29,121.2a6,6,0,0,1-3.08-.86l-15.32-9.22A6,6,0,0,1,90,106V96.82a6,6,0,0,1,3.31-5.37L101,87.59l-2.15-7a12.06,12.06,0,0,1,7.76-15L117.09,62a6,6,0,0,1,7.64,4,6.16,6.16,0,0,1-4.1,7.48l-10.21,3.39a.14.14,0,0,0-.07.16L114,88.94a6,6,0,0,1-3,7.12L102,100.53v2.06l12.18,7.33a6.19,6.19,0,0,1,2.41,8.15A6,6,0,0,1,111.29,121.2Z"/><path d="M107.11,152.89c0-1.92,1-2.53,2.53-2.53h5.73c3.16,0,6.92.71,6.92,4.89a4,4,0,0,1-2.66,3.85v.05A4.23,4.23,0,0,1,123,163.7c0,4-3.24,5.6-7,5.6h-6.34c-1.53,0-2.53-.6-2.53-2.52Zm4.32,5.26H115c2,0,3-.82,3-2.32,0-1.81-1.53-2.31-3.13-2.31h-3.42Zm0,7.84h3.63c1.68,0,3.57-.34,3.57-2.53s-2-2.58-4.1-2.58h-3.1Z"/><path d="M126.2,152.89c0-1.92,1-2.53,2.53-2.53h10.13c1.26,0,2.18.37,2.18,1.74s-.92,1.73-2.18,1.73h-8.34v4.11h7.31c1.13,0,2,.31,2,1.66s-.9,1.65-2,1.65h-7.31v4.58h8.55c1.26,0,2.18.37,2.18,1.74s-.92,1.73-2.18,1.73H128.73c-1.53,0-2.53-.6-2.53-2.52Z"/><path d="M148.74,154h-4.07c-1.24,0-2.24-.63-2.24-1.81s1-1.82,2.24-1.82h12.47c1.23,0,2.23.63,2.23,1.82s-1,1.81-2.23,1.81h-4.08v13.5a2.16,2.16,0,0,1-4.32,0Z"/><path d="M164.47,151.33a2,2,0,0,1,2.11-1.31h1a2.14,2.14,0,0,1,2.32,1.58l5.21,14.49a6.23,6.23,0,0,1,.42,1.66,2,2,0,0,1-2,1.89,1.85,1.85,0,0,1-2-1.18l-1.1-3.16h-6.95l-1.13,3.16a1.74,1.74,0,0,1-1.92,1.18,1.84,1.84,0,0,1-2-1.89,6.23,6.23,0,0,1,.42-1.66Zm2.61,3.37H167l-2.55,7.6h5.05Z"/></svg>