<svg id="Layer_1" data-name="Layer 1" xmlns="http://www.w3.org/2000/svg" width="192" height="192" viewBox="0 0 192 192"><defs><style>.cls-1,.cls-2{fill:none;}.cls-2{stroke:#000;stroke-miterlimit:10;stroke-width:12px;}</style></defs><rect class="cls-1" width="192" height="192"/><circle class="cls-2" cx="64" cy="100" r="14"/><circle class="cls-2" cx="123" cy="117" r="14"/><rect x="76.51" y="77.08" width="22.1" height="12" rx="6" transform="translate(115.73 -34.29) rotate(60)"/><rect x="99.51" y="83.08" width="22.1" height="12" rx="6" transform="translate(250.85 110.94) rotate(150)"/><path class="cls-2" d="M170,96.55c-.08-1.67-.09-3.82-.31-6A74.85,74.85,0,0,0,164,68.5a76.93,76.93,0,0,0-20.52-28.17A72.62,72.62,0,0,0,98.68,22.41a68.91,68.91,0,0,0-14.63.85,77.08,77.08,0,0,0-39.86,19A66.77,66.77,0,0,0,25.4,69.9a54.57,54.57,0,0,0-1.72,32.35C26.93,115,34.11,125.31,43.8,134a1.27,1.27,0,0,1,.48,1.54c-.73,2.46-1.47,4.93-2.11,7.42a8.1,8.1,0,0,0,5.59,10c1.53.47,3.08.89,4.62,1.32l39,11.05c4.84,1.37,9.67,2.81,14.53,4.1a8.1,8.1,0,0,0,10.12-5.76c.66-2.34,1.37-4.66,2-7a1.56,1.56,0,0,1,1.51-1.31,66.61,66.61,0,0,0,17-5.17,55.5,55.5,0,0,0,24.84-21.49C167.32,119,169.89,108.32,170,96.55Z"/><path d="M89,120l-6.81,6.53a1.44,1.44,0,0,0,.61,2.43L92,131.53a1.45,1.45,0,0,0,1.8-1.75l-2.31-9.1A1.44,1.44,0,0,0,89,120Z"/></svg>