<svg xmlns="http://www.w3.org/2000/svg" width="192" height="192" stroke-width="12" viewBox="0 0 192 192"><path fill="none" stroke="#000" d="M170 96.55c-.08-1.67-.09-3.82-.31-6A74.85 74.85 0 0 0 164 68.5a76.93 76.93 0 0 0-20.52-28.17 72.62 72.62 0 0 0-44.8-17.92 68.91 68.91 0 0 0-14.63.85 77.08 77.08 0 0 0-39.86 19A66.77 66.77 0 0 0 25.4 69.9a54.57 54.57 0 0 0-1.72 32.35C26.93 115 34.11 125.31 43.8 134a1.27 1.27 0 0 1 .48 1.54c-.73 2.46-1.47 4.93-2.11 7.42a8.1 8.1 0 0 0 5.59 10c1.53.47 3.08.89 4.62 1.32l39 11.05c4.84 1.37 9.67 2.81 14.53 4.1a8.1 8.1 0 0 0 10.12-5.76c.66-2.34 1.37-4.66 2-7a1.56 1.56 0 0 1 1.51-1.31 66.61 66.61 0 0 0 17-5.17 55.5 55.5 0 0 0 24.84-21.49c5.94-9.7 8.51-20.38 8.62-32.15z"/><path d="m89 120-6.81 6.53a1.44 1.44 0 0 0 .61 2.43l9.2 2.57a1.45 1.45 0 0 0 1.8-1.75l-2.31-9.1A1.44 1.44 0 0 0 89 120z"/><circle cx="64" cy="100" r="14" fill="none" stroke="#000"/><circle cx="123" cy="117" r="14" fill="none" stroke="#000"/><rect width="22.1" height="12" x="76.51" y="77.08" rx="6" transform="rotate(60 87.561 83.08)"/><rect width="22.1" height="12" x="99.51" y="83.08" rx="6" transform="rotate(150 110.562 89.078)"/></svg>