<svg width="192" height="192" viewBox="0 0 192 192" fill="none" xmlns="http://www.w3.org/2000/svg"><path d="M30 63s30.238-8.712 50-8c19.219.692 28.786 13.815 48 13 13.628-.578 34-10 34-10M30 87s11.875 10.861 23 12c14.87 1.522 24.053-13 39-13s21.055 12.736 36 13c13.838.244 34-10 34-10M30 132s21.93-10.628 37-11c20.249-.5 28.759 17.268 49 18 18.459.668 46-12 46-12" stroke="#000" stroke-width="10" stroke-linecap="round" stroke-linejoin="round"/><rect x="30" y="30" width="132" height="132" rx="6" stroke="#000" stroke-width="12" stroke-linecap="round" stroke-linejoin="round"/></svg>