<svg width="192" height="192" viewBox="0 0 192 192" fill="none" xmlns="http://www.w3.org/2000/svg">
<path d="M22 96V22L96 96M22 96H96M22 96L54.0192 128.019M96 96V170M96 96L22 170H96M96 96H170M96 96L170 170V96M96 96V22M96 96L170 22H96M96 170L125.885 140.115M170 96L138.692 64.6923M96 22L64.6923 53.3077" stroke="black" stroke-width="12" stroke-linecap="round" stroke-linejoin="round"/>
<path d="M96 148.654C125.08 148.654 148.654 125.08 148.654 96C148.654 66.9201 125.08 43.3462 96 43.3462C66.9201 43.3462 43.3462 66.9201 43.3462 96C43.3462 125.08 66.9201 148.654 96 148.654Z" stroke="black" stroke-width="12"/>
</svg>
