<svg xmlns="http://www.w3.org/2000/svg" width="192" height="192" fill="none" stroke="#000" viewBox="0 0 192 192"><path stroke-linejoin="round" stroke-width="12" d="M96 22a36.999 36.999 0 1 0 0 74V22zm74 74a37.008 37.008 0 0 0-10.837-26.163 37.005 37.005 0 0 0-40.322-8.02A37.004 37.004 0 0 0 96 96h74zM22 96a36.997 36.997 0 0 0 22.84 34.184 37.008 37.008 0 0 0 28.32 0 37.008 37.008 0 0 0 20.023-20.025A36.997 36.997 0 0 0 96 96H22zm74 74a37.006 37.006 0 0 0 26.163-10.837A37.011 37.011 0 0 0 133 133a37.006 37.006 0 0 0-10.837-26.163A37.002 37.002 0 0 0 96 96v74z"/><path stroke-linecap="round" stroke-width="10" d="M147 96a50.999 50.999 0 0 1-13.823 34.912M96 147a51 51 0 0 1-34.912-13.823M45 96a51 51 0 0 1 13.823-34.912M96 45a51 51 0 0 1 34.912 13.823"/></svg>