<svg width="192" height="192" viewBox="0 0 192 192" fill="none" xmlns="http://www.w3.org/2000/svg">
<path d="M56 96L51.7574 91.7574C49.4142 94.1005 49.4142 97.8995 51.7574 100.243L56 96ZM70 82L65.7574 77.7573L65.7574 77.7573L70 82ZM74.2426 25.7574C71.8995 23.4142 68.1005 23.4142 65.7574 25.7574C63.4142 28.1005 63.4142 31.8995 65.7574 34.2426L74.2426 25.7574ZM85 96L80.7574 91.7574C78.4142 94.1005 78.4142 97.8995 80.7574 100.243L85 96ZM99 82L94.7574 77.7573L94.7574 77.7573L99 82ZM144.757 164.243C147.101 166.586 150.899 166.586 153.243 164.243C155.586 161.899 155.586 158.101 153.243 155.757L144.757 164.243ZM103.243 25.7574C100.899 23.4142 97.1005 23.4142 94.7574 25.7574C92.4142 28.1005 92.4142 31.8995 94.7574 34.2426L103.243 25.7574ZM70 110L65.7574 114.243L65.7574 114.243L70 110ZM65.7574 157.757C63.4142 160.101 63.4142 163.899 65.7574 166.243C68.1005 168.586 71.8995 168.586 74.2426 166.243L65.7574 157.757ZM48 36H144V24H48V36ZM156 48V144H168V48H156ZM144 156H48V168H144V156ZM36 144V48H24V144H36ZM48 156C41.3726 156 36 150.627 36 144H24C24 157.255 34.7452 168 48 168V156ZM156 144C156 150.627 150.627 156 144 156V168C157.255 168 168 157.255 168 144H156ZM144 36C150.627 36 156 41.3726 156 48H168C168 34.7452 157.255 24 144 24V36ZM48 24C34.7452 24 24 34.7452 24 48H36C36 41.3726 41.3726 36 48 36V24ZM60.2426 100.243L74.2427 86.2426L65.7574 77.7573L51.7574 91.7574L60.2426 100.243ZM74.2427 86.2426C90.9452 69.5401 90.9452 42.4599 74.2426 25.7574L65.7574 34.2426C77.7736 46.2589 77.7736 65.7411 65.7574 77.7573L74.2427 86.2426ZM89.2426 100.243L103.243 86.2426L94.7574 77.7573L80.7574 91.7574L89.2426 100.243ZM80.7574 100.243L144.757 164.243L153.243 155.757L89.2426 91.7574L80.7574 100.243ZM103.243 86.2426C119.945 69.5401 119.945 42.4599 103.243 25.7574L94.7574 34.2426C106.774 46.2589 106.774 65.7411 94.7574 77.7573L103.243 86.2426ZM51.7574 100.243L65.7574 114.243L74.2427 105.757L60.2426 91.7574L51.7574 100.243ZM65.7574 114.243C77.7736 126.259 77.7736 145.741 65.7574 157.757L74.2426 166.243C90.9452 149.54 90.9452 122.46 74.2427 105.757L65.7574 114.243Z" fill="black"/>
</svg>
