<svg width="192" height="192" viewBox="0 0 192 192" fill="none" xmlns="http://www.w3.org/2000/svg"><path d="M22 62c0-16.569 13.431-30 30-30h88c16.569 0 30 13.431 30 30v68c0 16.569-13.431 30-30 30H52c-16.569 0-30-13.431-30-30V62Z" stroke="#000" stroke-width="12" stroke-linecap="round" stroke-linejoin="round"/><ellipse cx="56" cy="86" rx="2" ry="8" stroke="#000" stroke-width="10" stroke-linecap="round" stroke-linejoin="round"/><ellipse cx="136" cy="86" rx="2" ry="8" stroke="#000" stroke-width="10" stroke-linecap="round" stroke-linejoin="round"/><path d="M110 100c0 3.713-1.475 7.274-4.101 9.899a13.996 13.996 0 0 1-19.799 0A13.998 13.998 0 0 1 82 100" stroke="#000" stroke-width="12" stroke-linecap="round" stroke-linejoin="round"/></svg>