<svg xmlns="http://www.w3.org/2000/svg" width="192" height="192" fill="none" viewBox="0 0 192 192"><path stroke="#000" stroke-linecap="round" stroke-linejoin="round" stroke-width="12" d="M22 53.538a6 6 0 0 1 3.096-5.25l40.945-22.65a6 6 0 0 1 5.892.046l95.055 54.586A6 6 0 0 1 170 85.473v41.316a6 6 0 0 1-2.672 4.992l-12.656 8.438a6 6 0 0 0-2.672 4.992v16.663c0 4.558-4.883 7.452-8.882 5.262L68 126l-19.023 10.87c-4 2.286-8.977-.602-8.977-5.209v-18.45a6 6 0 0 0-2.672-4.992l-12.656-8.438A6 6 0 0 1 22 94.79z"/><path stroke="#000" stroke-linecap="round" stroke-linejoin="round" stroke-width="12" d="M114 50v45.789a6 6 0 0 1-2.672 4.992L68 126"/></svg>