<svg xmlns="http://www.w3.org/2000/svg" width="192" height="192" fill="none"><path stroke="#000" stroke-linecap="round" stroke-linejoin="round" stroke-width="10" d="M66 79c0-6.627 5.373-12 12-12h36c6.627 0 12 5.373 12 12v30a6 6 0 0 1-6 6H72a6 6 0 0 1-6-6z"/><path stroke="#000" stroke-linecap="round" stroke-linejoin="round" stroke-width="10" d="M85 67v18a6 6 0 0 0 6 6h10a6 6 0 0 0 6-6V67"/><path stroke="#000" stroke-linecap="round" stroke-linejoin="round" stroke-width="12" d="M96 22c-24 0-25 17-41 33S22 72 22 96m74-74c24 0 25 17 41 33s33 17 33 41m-74 74c24 0 25-17 41-33s33-17 33-41m-74 74c-24 0-25-17-41-33s-33-17-33-41"/></svg>