<svg xmlns="http://www.w3.org/2000/svg" width="192" height="192" fill="none"><path stroke="#000" stroke-linecap="round" stroke-linejoin="round" stroke-width="12" d="M170 39.248C106.001 65.651 88 151.97 33 151.97c-2.669 0-5.246-.985-7.253-2.772a11.23 11.23 0 0 1-3.653-6.941 11.3 11.3 0 0 1 1.76-7.664 11 11 0 0 1 6.3-4.583M154.5 51.049C120 33.155 52 25.047 37 79.884c0 0-6 22.341 15 26.403s46-31.48 35-41.636C76 54.496 62 77.853 62 77.853m93-26.2c5.043 2.956 8.855 7.674 10.727 13.273a24.73 24.73 0 0 1-.553 17.16c-2.229 5.463-6.336 9.917-11.559 12.532a23.67 23.67 0 0 1-15.501 2.004 37 37 0 0 1 3.756 2.77c3.529 2.971 6.328 6.497 8.238 10.378S153 117.811 153 122.012c0 4.2-.983 8.36-2.892 12.241-1.91 3.881-4.709 7.407-8.238 10.378s-7.717 5.326-12.328 6.934S115.99 154 111 154c-1.566 0-3.114-.34-4.54-.996a11 11 0 0 1-3.73-2.809 11.2 11.2 0 0 1-2.257-4.123 11.35 11.35 0 0 1-.379-4.701c.204-1.576.738-3.09 1.565-4.44a11.1 11.1 0 0 1 3.23-3.39 10.9 10.9 0 0 1 4.319-1.733"/></svg>