<svg width="192" height="192" fill="none" xmlns="http://www.w3.org/2000/svg"><path d="M170 39.248C106.001 65.651 88 151.97 33 151.97c-2.669 0-5.246-.985-7.253-2.772a11.225 11.225 0 0 1-3.653-6.941 11.309 11.309 0 0 1 1.76-7.664 11.006 11.006 0 0 1 6.3-4.583M154.5 51.049C120 33.155 52 25.047 37 79.884c0 0-6 22.341 15 26.403 21 4.062 46-31.48 35-41.636-11-10.155-25 13.202-25 13.202m93-26.2c5.043 2.956 8.855 7.674 10.727 13.273a24.729 24.729 0 0 1-.553 17.16c-2.229 5.463-6.336 9.917-11.559 12.532a23.67 23.67 0 0 1-15.501 2.004 36.863 36.863 0 0 1 3.756 2.77c3.529 2.971 6.328 6.497 8.238 10.378 1.909 3.881 2.892 8.041 2.892 12.242 0 4.2-.983 8.36-2.892 12.241-1.91 3.881-4.709 7.407-8.238 10.378-3.528 2.97-7.717 5.326-12.328 6.934C124.932 153.173 115.99 154 111 154c-1.566 0-3.114-.34-4.54-.996a11.012 11.012 0 0 1-3.73-2.809 11.223 11.223 0 0 1-2.257-4.123 11.346 11.346 0 0 1-.379-4.701c.204-1.576.738-3.09 1.565-4.44a11.086 11.086 0 0 1 3.23-3.39 10.906 10.906 0 0 1 4.319-1.733" stroke="#000" stroke-width="12" stroke-linecap="round" stroke-linejoin="round"/></svg>