<svg width="192" height="192" fill="none" xmlns="http://www.w3.org/2000/svg"><path d="M36 82a14 14 0 1 0 0 28m0-78a14 14 0 1 0 0 28m0 72a13.993 13.993 0 0 0-9.9 4.101 14.003 14.003 0 0 0-3.034 15.257A14.003 14.003 0 0 0 36 160m53-50a13.998 13.998 0 0 0 14-14 14 14 0 0 0-14-14m67-22a13.998 13.998 0 0 0 14-14 13.998 13.998 0 0 0-14-14m0 128c3.713 0 7.274-1.475 9.899-4.101a13.996 13.996 0 0 0 0-19.798A13.996 13.996 0 0 0 156 132" stroke="#000" stroke-width="12" stroke-linecap="round" stroke-linejoin="round"/><circle cx="139" cy="96" r="14" stroke="#000" stroke-width="12" stroke-linecap="round" stroke-linejoin="round"/><path d="M36 82h53M36 32h120M36 132h120M36 110h53M36 60h120M36 160h120" stroke="#000" stroke-width="12" stroke-linecap="round" stroke-linejoin="round"/></svg>