<svg xmlns="http://www.w3.org/2000/svg" width="192" height="192" fill="none"><path stroke="#000" stroke-linecap="round" stroke-linejoin="round" stroke-width="12" d="M36 82a14 14 0 1 0 0 28m0-78a14 14 0 1 0 0 28m0 72a14 14 0 0 0-9.9 4.101 14 14 0 0 0-3.034 15.257A14 14 0 0 0 36 160m53-50a14 14 0 0 0 14-14 14 14 0 0 0-14-14m67-22a14 14 0 0 0 14-14 14 14 0 0 0-14-14m0 128c3.713 0 7.274-1.475 9.899-4.101a13.996 13.996 0 0 0 0-19.798A14 14 0 0 0 156 132"/><circle cx="139" cy="96" r="14" stroke="#000" stroke-linecap="round" stroke-linejoin="round" stroke-width="12"/><path stroke="#000" stroke-linecap="round" stroke-linejoin="round" stroke-width="12" d="M36 82h53M36 32h120M36 132h120M36 110h53M36 60h120M36 160h120"/></svg>