<svg xmlns="http://www.w3.org/2000/svg" width="192" height="192" fill="none" viewBox="0 0 192 192"><path stroke="#000" stroke-width="12" d="M46.333 63H29.667A6.667 6.758 0 0 0 23 69.758v93.484A6.667 6.758 0 0 0 29.667 170h16.666A6.667 6.758 0 0 0 53 163.242V69.758A6.667 6.758 0 0 0 46.333 63zm55-41H84.667A6.667 6.727 0 0 0 78 28.727v134.546A6.667 6.727 0 0 0 84.667 170h16.666a6.667 6.727 0 0 0 6.667-6.727V28.727A6.667 6.727 0 0 0 101.333 22zm62 83h-16.666a6.667 6.724 0 0 0-6.667 6.724v51.552a6.667 6.724 0 0 0 6.667 6.724h16.666a6.667 6.724 0 0 0 6.667-6.724v-51.552a6.667 6.724 0 0 0-6.667-6.724z"/></svg>