<svg xml:space="preserve" width="192" height="192" viewBox="0 0 50.8 50.8"><path stroke="#000" stroke-linejoin="round" stroke-width="3.704" d="M16.345 25.574c1.697 0 3.165-.76 4.324-1.95 1.16-1.19 1.786-2.804 1.786-4.487s-.626-3.296-1.786-4.487c-1.16-1.19-2.577-1.95-4.324-1.95H7.408a1.59 1.59 135 0 0-1.587 1.588v22.225A1.59 1.59 45 0 0 7.408 38.1h8.937c1.641-.002 3.164-.586 4.324-1.776s1.786-2.805 1.786-4.487c0-1.683-.626-3.296-1.786-4.487-1.16-1.19-2.627-1.776-4.324-1.776z" style="fill:none;stroke-width:3.175;stroke-dasharray:none"/><path stroke="#000" stroke-linecap="round" stroke-linejoin="round" stroke-width="3.175" d="M39.952 12.7s5.027 4.233 5.027 12.7-5.027 12.7-5.027 12.7M34.66 17.992s2.91 3.175 2.91 7.408-2.91 7.408-2.91 7.408" style="fill:none"/><path stroke="#000" stroke-linecap="round" stroke-linejoin="round" stroke-width="2.646" d="M29.633 23.283s1.059.53 1.059 2.117-1.059 2.117-1.059 2.117L27.517 25.4Z" style="fill:none"/><path d="M16.345 25.574H5.82" style="fill:none;stroke:#000;stroke-width:3.175;stroke-linecap:round;stroke-linejoin:round;paint-order:fill markers stroke"/></svg>