<svg xmlns="http://www.w3.org/2000/svg" width="192" height="192" fill="none"><path stroke="#000" stroke-linecap="round" stroke-linejoin="round" stroke-width="12" d="m49.379 82.676 66.85 39.52a5.76 5.76 0 0 0 6.001-.079l20.391-12.793M49.379 82.676l-24.5-14.484c-3.78-2.234-3.852-7.73-.131-10.064L69.77 29.884a5.76 5.76 0 0 1 6.001-.08l91.351 54.004c3.779 2.234 3.851 7.73.13 10.064l-24.631 15.452M49.379 82.676 24.748 98.128c-3.72 2.334-3.65 7.83.13 10.064l91.351 54.004a5.76 5.76 0 0 0 6.001-.079l45.022-28.245c3.721-2.334 3.649-7.83-.13-10.064l-24.501-14.484"/><path stroke="#000" stroke-linecap="round" stroke-linejoin="round" stroke-width="10" d="M98 89 77 64l39 12m-14 43-6 9m-10-23-15 8"/></svg>