<?xml version="1.0" encoding="utf-8"?>
	<svg version="1.1" xmlns="http://www.w3.org/2000/svg" xmlns:xlink="http://www.w3.org/1999/xlink" x="0px" y="0px" width="240.0" height="240.0" xml:space="preserve">
		<path d="M120.185,128.455C149.099,128.419 176.001,151.48 176.024,184.168C176.047,215.461 151.383,239.979 120.343,240C87.322,240.022 64.202,212.93 64.585,184.308C64.19,153.417 90.044,128.492 120.185,128.455ZM143.587,177.694L143.379,177.694C139.412,177.734 135.444,177.697 131.476,177.697C120.126,177.697 108.776,177.703 97.426,177.696C95.422,177.695 93.67,177.927 93.672,180.57C93.684,193.768 93.682,206.966 93.674,220.163C93.673,222.014 94.546,222.841 96.401,222.799C98.799,222.744 101.202,222.719 103.598,222.806C105.207,222.865 105.685,222.151 105.637,220.659C105.567,218.447 105.724,216.224 105.594,214.017C105.485,212.157 106.224,211.643 108,211.676C113.073,211.77 118.149,211.709 123.224,211.709L123.224,211.709L123.731,211.708C128.295,211.697 128.389,211.461 129.3,206.741C129.688,204.734 128.905,203.705 126.908,203.644C124.972,203.585 123.033,203.617 121.095,203.616C119.413,203.615 117.731,203.615 116.043,203.615L108.391,203.615L108.391,203.615L105.804,203.615L105.804,198.907L105.804,198.907L108.938,198.907C114.291,198.906 119.643,198.93 124.994,198.893C127.751,198.873 129.592,196.393 129.396,192.86C129.271,190.62 127.813,190.678 126.427,190.787L126.16,190.808C125.895,190.829 125.635,190.846 125.392,190.843C122.74,190.813 120.088,190.803 117.364,190.801L115.011,190.801C111.845,190.804 108.56,190.813 105.049,190.813C106.509,188.845 103.889,185.854 107.665,185.794C115.967,185.663 124.273,185.763 132.578,185.744C134.023,185.74 134.796,186.21 134.789,187.816C134.781,189.477 134.777,191.139 134.774,192.8L134.767,202.767C134.761,206.09 134.748,209.412 134.712,212.734C134.704,213.415 134.013,214.469 133.399,214.693C131.237,215.484 131.572,217.111 132.014,218.578C132.546,220.346 132.243,222.904 135.333,222.804C138.098,222.716 140.873,222.693 143.636,222.817C145.945,222.921 146.684,221.96 146.672,219.711C146.602,206.791 146.59,193.87 146.68,180.949C146.697,178.467 145.632,177.67 143.379,177.694ZM132.84,144.405C130.627,144.385 128.413,144.376 126.201,144.414C124.547,144.443 123.611,145.309 123.607,146.994C123.591,154.743 123.591,162.493 123.602,170.242C123.605,172.013 124.434,172.852 126.31,172.958C134.401,173.419 142.482,174.05 150.574,174.501C155.786,174.793 156.038,174.728 156.047,169.99L156.047,169.244C156.044,164.801 156.039,164.668 151.583,164.844C147.537,165.005 143.504,165.768 139.465,165.768C135.321,165.769 135.224,165.383 135.796,160.921C138.287,160.483 140.629,160.044 142.981,159.662C145.339,159.279 147.712,158.99 150.067,158.593C154.369,157.868 154.755,157.26 154.328,152.746C154.164,151.017 153.346,150.194 151.646,150.399C149.641,150.642 147.65,151.005 145.649,151.289C142.36,151.756 139.066,152.202 135.531,152.69C135.531,151.476 135.523,150.437 135.521,149.478L135.521,148.674C135.522,148.148 135.527,147.64 135.539,147.132C135.581,145.262 134.618,144.422 132.84,144.405ZM108.087,144.367C105.848,144.349 104.871,145.388 104.885,147.54C104.889,148.093 104.819,148.652 104.877,149.199C105.092,151.267 104.421,152.177 102.118,152.074C97.976,151.886 93.817,152.109 89.67,151.986C87.4,151.918 86.285,152.476 86.346,155.044C86.453,159.499 86.551,159.928 89.586,159.977C93.736,160.044 97.887,159.999 102.037,160.005C103.438,160.007 104.918,159.837 104.869,161.992C104.864,162.182 104.865,162.372 104.866,162.561L104.868,162.842C104.873,164.288 104.773,165.572 102.473,165.653C97.598,165.825 92.73,166.205 87.857,166.459C84.76,166.62 84.239,167.245 84.298,170.958C84.349,174.125 84.84,174.715 88.053,174.54C96.88,174.061 105.7,173.452 114.524,172.933C116.188,172.835 116.746,171.982 116.733,170.43C116.697,166.556 116.721,162.682 116.723,158.807C116.725,156.686 116.765,154.563 116.718,152.442C116.551,144.815 118.013,144.377 112.046,144.369L111.607,144.369C111.155,144.369 110.664,144.371 110.131,144.372L109.299,144.372C108.915,144.372 108.511,144.37 108.087,144.367ZM178.794,58.194C178.86,92.211 151.072,116.664 120.505,116.714C90.231,116.764 62.068,92.773 62,58.438C61.932,24.343 89.793,-0.334 120.291,0.005C150.679,-0.419 178.729,23.991 178.794,58.194ZM120.377,4.303C89.538,4.333 66.744,29.195 66.463,57.786C66.174,87.155 89.544,112.365 120.411,112.334C151.362,112.303 174.265,87.239 174.314,58.574C174.534,29.42 151.243,4.272 120.377,4.303ZM91.377,26.049C111.954,26.038 132.531,26.043 153.108,26.046L153.529,26.047C156.765,26.054 156.765,26.202 156.772,29.704C156.773,30.535 156.713,31.37 156.781,32.195C156.932,34.023 156.084,34.615 154.326,34.595C148.513,34.531 142.696,34.466 136.888,34.65C135.506,34.694 134.006,35.486 132.815,36.306C127.948,39.657 126.489,44.182 126.682,50.212C127.172,65.517 126.791,80.847 126.899,96.167C126.917,98.711 126.204,99.521 123.625,99.484C116.45,99.383 116.173,99.475 116.163,92.912L116.162,56.931C116.162,55.924 116.162,54.917 116.162,53.911C115.926,53.783 115.69,53.656 115.454,53.528C107.589,61.24 99.724,68.952 91.502,77.013C89.447,75.002 87.393,73.189 85.643,71.12C85.273,70.682 85.709,69.019 86.289,68.411C89.405,65.138 92.688,62.025 95.906,58.848C103.325,51.524 110.743,44.197 118.151,36.86C118.655,36.361 119.066,35.769 119.899,34.762C118.479,34.68 117.538,34.581 116.597,34.58C107.554,34.568 98.51,34.49 89.469,34.625C86.881,34.663 86.096,33.816 86.186,31.276C86.391,25.52 85.571,26.053 91.377,26.049ZM133.959,46.735C135.24,47.677 136.654,48.484 137.781,49.585C143.979,55.634 150.052,61.813 156.295,67.817C158.15,69.602 158.168,70.763 156.25,72.495C154.708,73.887 153.607,75.77 152.16,77.628C147.024,72.607 143.004,68.136 138.417,64.353C134.159,60.84 132.251,56.83 133.155,51.44C133.418,49.871 133.691,48.303 133.959,46.735Z" fill="#000" stroke="#00000000" stroke-width="1.0" stroke-miterlimit=""/>
	</svg>
