<?xml version="1.0" encoding="utf-8"?>
	<svg version="1.1" xmlns="http://www.w3.org/2000/svg" xmlns:xlink="http://www.w3.org/1999/xlink" x="0px" y="0px" width="240.0" height="240.0" xml:space="preserve">
		<path d="M52.095,46.334C53.489,47.708 54.732,49.102 56.339,50.079C63.166,54.228 71.319,53.416 77.892,47.922C78.393,47.504 78.841,46.622 79.484,46.853C80.326,47.155 79.954,48.152 79.956,48.84C79.979,62.975 79.974,77.111 79.977,91.246C79.977,91.919 79.979,92.592 79.993,93.265C80.02,94.619 80.533,94.971 81.734,94.174C84.314,92.462 86.939,90.816 89.748,89.495C112.838,78.638 135.411,79.272 157.375,92.614C159.265,93.763 161.003,95.173 162.754,96.536C163.407,97.045 164.479,97.511 164.253,98.49C164.053,99.361 162.943,99.31 162.195,99.491C155.13,101.199 148.066,102.907 140.984,104.534C135.015,105.904 129.003,107.088 123.049,108.515C120.527,109.12 117.971,109.015 115.442,109.358C93.751,112.307 78.078,130.713 78.731,152.548C79.354,173.373 95.698,190.788 116.596,192.893C138.599,195.109 159.136,179.451 162.25,157.614C163.878,146.203 166.333,134.98 168.877,123.773L169.834,119.572C170.472,116.77 171.111,113.969 171.737,111.165C172.038,109.819 172.018,107.684 173.193,107.42C174.287,107.174 174.93,108.279 175.548,109.318L175.724,109.612C175.87,109.853 176.018,110.083 176.172,110.283C184.357,120.876 188.635,132.886 189.467,146.252C190.546,163.585 185.987,179.228 175.439,192.938C162.952,209.166 146.326,218.226 125.87,219.776C105.233,221.34 87.35,214.685 72.585,200.314C60.205,188.263 53.372,173.41 52.065,156.081C51.838,153.053 51.787,150.035 51.787,147.009C51.781,114.43 51.781,81.851 51.795,49.273C51.796,48.361 51.583,47.412 52.095,46.334ZM167.421,103.128C169.25,102.645 169.537,102.898 169.067,104.731C165.814,117.434 162.528,130.129 159.247,142.825C159.23,142.888 159.209,142.949 159.182,143.017L159.119,143.164C159.035,143.351 158.912,143.6 158.733,144.007C154.632,127.975 144.891,117.963 129.335,113.655C129.309,113.014 129.861,113.085 130.175,113.001C142.586,109.696 155.002,106.404 167.421,103.128ZM65.993,20C74.176,19.966 80.772,26.663 80.766,34.999C80.759,43.388 74.299,49.822 65.916,49.79C57.611,49.758 50.906,43.075 51.001,34.926C51.097,26.752 57.844,20.034 65.993,20Z" fill="#000" stroke="#00000000" stroke-width="1.0" stroke-miterlimit=""/>
	</svg>
