<svg xmlns="http://www.w3.org/2000/svg" viewBox="0 0 192 192"><path d="M23.18 79.89s.05 15.98.05 28.82c0 2.31-2.31 5.48-2.31 5.48l-3.42 3.77.03-43.94H58.1s.11 3.53-.06 5.27c-.05.53-.81 1.07-1.36 1.44-5.08 3.43-15.22 10.61-15.22 10.61h16.55v23.2H26.22c2.01-1.96 3.67-3.69 5.46-5.27.44-.39 1.3-.41 1.97-.41 6.13-.03 12.26-.02 18.53-.02V97.35H31.97c0-1.92-.09-3.68.06-5.43.04-.48.71-1 1.2-1.33 5.18-3.5 16-10.72 16-10.72H23.18zm128.2-.18v11.64h14.34v5.89h-14.41s-.08 8.27.04 12.27c.05 1.67-.42 2.9-1.66 4.01-1.45 1.43-4.05 4.21-4.05 4.21v-43.7h28.87v5.68h-23.12zm-34.93 0v11.64h14.34v5.89h-14.41s-.08 8.27.04 12.27c.05 1.67-.42 2.9-1.66 4.01-1.45 1.43-4.05 4.21-4.05 4.21v-43.7h28.87v5.68h-23.12zm-35.37 29.64c.44-.4 1.28-.46 1.94-.47 4.26-.04 8.52-.02 12.94-.02V74.07h5.7v40.51H75.52s3.75-3.6 5.56-5.22zm-14.05 8.35s-.06-29.28-.06-43.67h5.62c.03.66.1 1.33.1 2.01 0 11.31-.01 22.62.03 33.93 0 1.31-.31 2.29-1.29 3.19-1.44 1.42-4.4 4.54-4.4 4.54z" style="stroke:#000;stroke-miterlimit:10;stroke-width:3px"/></svg>