<svg xmlns="http://www.w3.org/2000/svg" width="192" height="192" fill="none"><path stroke="#000" stroke-linecap="round" stroke-linejoin="round" stroke-width="12" d="M120 159H27.974c-4.583 0-7.454-4.963-5.176-8.948l38.335-67.04c4.767-8.337 16.904-7.918 21.087.727L100.252 121c1.507 3.114 5.988 2.955 7.271-.259l10.766-26.968c3.805-9.53 17.039-10.14 21.701-1.001L145.718 104"/><path stroke="#000" stroke-linecap="round" stroke-linejoin="round" stroke-width="12" d="M144.188 97.242a40 40 0 0 0 8.32-37.066 40.003 40.003 0 0 0-63.735-20.218 40 40 0 0 0-14.568 35.084"/><path stroke="#000" stroke-linecap="round" stroke-linejoin="round" stroke-miterlimit="6" stroke-width="10" d="M149.224 125.103a2.884 2.884 0 0 1 5.552 0l2.248 7.215c.391 1.253 1.512 2.102 2.776 2.102h7.276c2.827 0 4.003 3.773 1.715 5.506l-5.886 4.459c-1.023.775-1.451 2.149-1.06 3.403l2.248 7.214c.874 2.804-2.204 5.136-4.492 3.403l-5.885-4.459a2.824 2.824 0 0 0-3.432 0l-5.885 4.459c-2.288 1.733-5.366-.599-4.492-3.403l2.248-7.214c.391-1.254-.037-2.628-1.06-3.403l-5.886-4.459c-2.288-1.733-1.112-5.506 1.715-5.506h7.276c1.264 0 2.385-.849 2.776-2.102z"/></svg>