<svg width="192" height="192" fill="none" xmlns="http://www.w3.org/2000/svg"><path d="M61.133 83.011c4.767-8.336 16.904-7.917 21.087.728L100.252 121c1.507 3.114 5.988 2.955 7.271-.259l10.766-26.968c3.805-9.53 17.039-10.14 21.701-1.001l29.349 57.531c2.028 3.977-.855 8.697-5.312 8.697H27.974c-4.583 0-7.454-4.963-5.176-8.948l38.335-67.04Z" stroke="#000" stroke-width="12" stroke-linecap="round" stroke-linejoin="round"/><path d="M144.188 97.242a39.993 39.993 0 0 0 8.32-37.066 40.003 40.003 0 0 0-63.735-20.218 40 40 0 0 0-14.568 35.084" stroke="#000" stroke-width="12" stroke-linecap="round" stroke-linejoin="round"/></svg>