<svg width="192" height="192" viewBox="0 0 192 192" fill="none" xmlns="http://www.w3.org/2000/svg"><path d="M86 168v3m-20-9v3m40 3v3m20-9v3M44.889 83c24-7 34-2 34-2s-12-12-28-14c0 0 13-17 45-9 0 0-14-13-28-17 0 0 5.36-11.414 13.224-18.508a74.998 74.998 0 0 0-57.87 91.716A75 75 0 0 0 46.5 152.345M147 83c-24-7-34-2-34-2s12-12 28-14c0 0-13-17-45-9 0 0 14-13 28-17 0 0-5.375-11.44-13.256-18.537a74.994 74.994 0 0 1 55.368 46.904 75.002 75.002 0 0 1-20.415 82.805" stroke="#000" stroke-width="10" stroke-linecap="round" stroke-linejoin="round"/><path d="M111 118h-6m10.043-8.957-4.478-4.479M143 118h-6m.435 13.435-4.478-4.478M124 99v6m13.435-.436-4.478 4.479M124 131v6m-8.957-10.043-4.478 4.478" stroke="#000" stroke-width="8" stroke-linecap="round" stroke-linejoin="round"/><circle cx="124" cy="118" r="11" stroke="#000" stroke-width="8" stroke-linecap="round" stroke-linejoin="round"/><path d="M55 118h-6m10.043-8.957-4.478-4.479M87 118h-6m.435 13.435-4.478-4.478M68 99v6m13.435-.436-4.478 4.479M68 131v6m-8.956-10.043-4.479 4.478" stroke="#000" stroke-width="8" stroke-linecap="round" stroke-linejoin="round"/><circle cx="68" cy="118" r="11" stroke="#000" stroke-width="8" stroke-linecap="round" stroke-linejoin="round"/></svg>