<?xml version="1.0" encoding="utf-8"?>
<!-- Generator: Adobe Illustrator 19.0.0, SVG Export Plug-In . SVG Version: 6.00 Build 0)  -->
<svg version="1.1" id="Layer_2" xmlns="http://www.w3.org/2000/svg" xmlns:xlink="http://www.w3.org/1999/xlink" x="0px" y="0px"
	 viewBox="0 0 24 24" style="enable-background:new 0 0 24 24;" xml:space="preserve">
<path id="XMLID_34_" d="M16.1,14.3c0.5-0.6,1.1-0.9,1.8-0.8c0.9,0.1,1.8,0.7,1.7,1.9c-0.1,0.7-0.6,1.1-1.2,1.3
	c-0.2,0.1-0.4,0.1-0.7,0.1c-4.1,0-8.2,0-12.3,0c-1.1,0-2-0.7-2.2-1.7c-0.2-0.8,0.2-1.7,1-2.2c0.3-0.2,0.7-0.3,1.1-0.3
	c0.1,0,0.2-0.1,0.2-0.2c0.3-1.2,1.5-2,2.7-2c1.1,0,2,0.4,2.6,1.4c0.1,0.2,0.2,0.4,0.3,0.7c0,0.1,0.1,0.2,0.2,0.1
	c1.2-0.9,2.9-0.8,4,0.1C15.8,13,16.1,13.5,16.1,14.3z"/>
<path id="XMLID_32_" d="M11.5,18c0.1,0.7,0.2,1.3,0.3,1.9c0.1,0.5,0.1,0.9,0.1,1.4c-0.1,0.6-0.2,1.1-0.8,1.5
	c-0.7,0.5-1.7,0.1-1.9-0.8c-0.1-0.6,0.1-1.1,0.4-1.6c0.5-0.7,1-1.3,1.6-2C11.2,18.3,11.3,18.2,11.5,18z"/>
<path id="XMLID_31_" d="M7.4,17.2c0,0.3,0.1,0.6,0.1,0.8c0.1,0.6,0.2,1.1,0.2,1.7c0,0.5-0.2,0.9-0.7,1.2C6.6,21,6.3,21,6,20.8
	c-0.3-0.2-0.4-0.6-0.4-1c0.1-0.4,0.2-0.7,0.5-1C6.5,18.3,6.9,17.7,7.4,17.2z"/>
<path id="XMLID_30_" d="M15.3,17.2c0.1,0.8,0.2,1.5,0.3,2.2c0,0.5,0,0.9-0.4,1.3c-0.3,0.4-0.8,0.4-1.2,0.2c-0.4-0.2-0.5-0.7-0.5-1.1
	c0.1-0.6,0.5-1,0.8-1.4C14.6,17.9,14.9,17.6,15.3,17.2z"/>
<path id="XMLID_1_" d="M18.5,11.1c-0.5-0.1-0.9-0.2-1.4-0.2c-0.8-0.1-1.5-0.2-2.3-0.4c-0.7-0.1-1.5-0.2-2.2-0.4
	c-0.8-0.1-1.5-0.3-2.3-0.4C9.9,9.7,9.5,9.5,9.2,9.1C9,8.7,9,8.1,9.3,7.7C10,7,10.6,6.2,11.3,5.5c0.7-0.8,1.4-1.6,2.2-2.4
	c0.5-0.5,0.8-1.1,1.4-1.5c0.7-0.6,1.6-0.4,2,0.5c0.3,0.7,0.6,1.5,0.9,2.3c0.6,1.6,1.3,3.2,1.9,4.8c0.2,0.4,0.2,0.9,0,1.3
	C19.4,10.9,19,11,18.5,11.1z M18.1,9.5c-0.9-2.2-1.7-4.3-2.6-6.5c-1.6,1.8-3.1,3.5-4.7,5.3C13.3,8.7,15.7,9.1,18.1,9.5z"/>
<path id="XMLID_28_" d="M15.8,5.2c0,0.1,0,0.3-0.1,0.4c-0.2,0.5-0.3,1-0.5,1.4c0,0.1,0,0.1-0.2,0.1c-0.4-0.1-0.4-0.1-0.4-0.4
	c0-0.5-0.1-1.1,0-1.6c0-0.3,0.3-0.5,0.6-0.5C15.5,4.7,15.8,4.9,15.8,5.2z"/>
<path id="XMLID_27_" d="M14.3,8.1c0-0.3,0.2-0.5,0.5-0.5c0.3,0,0.5,0.2,0.5,0.5c0,0.3-0.2,0.5-0.5,0.5C14.5,8.6,14.3,8.4,14.3,8.1z"
	/>
</svg>
