<svg width="192" height="192" viewBox="0 0 192 192" fill="none" xmlns="http://www.w3.org/2000/svg"><path d="M39 117h114" stroke="#000" stroke-width="12" stroke-linecap="round" stroke-linejoin="round"/><path d="M67.042 151.843a4.337 4.337 0 0 1-.706 1.491 4.145 4.145 0 0 1-1.2 1.095 3.93 3.93 0 0 1-3.104.426 4.04 4.04 0 0 1-1.431-.735 4.212 4.212 0 0 1-1.053-1.25 4.376 4.376 0 0 1-.513-1.573 4.434 4.434 0 0 1 .104-1.659m0 .004L67 137l.043 14.84m32.999 11.003a4.329 4.329 0 0 1-.706 1.491 4.145 4.145 0 0 1-1.2 1.095 3.93 3.93 0 0 1-3.104.426 4.04 4.04 0 0 1-1.431-.735 4.212 4.212 0 0 1-1.053-1.25 4.376 4.376 0 0 1-.513-1.573 4.434 4.434 0 0 1 .104-1.659m0 .004L100 148l.043 14.84" stroke="#000" stroke-width="8" stroke-linecap="round" stroke-linejoin="round"/><path d="M120.958 25.157c.139-.54.379-1.047.706-1.49a4.136 4.136 0 0 1 1.2-1.096 3.937 3.937 0 0 1 3.104-.425 4.024 4.024 0 0 1 1.431.734c.427.34.784.765 1.053 1.25a4.432 4.432 0 0 1 .409 3.232m0-.004L119 56l1.957-30.84" stroke="#000" stroke-width="10" stroke-linecap="round" stroke-linejoin="round"/><path d="M133.042 155.843a4.339 4.339 0 0 1-.706 1.491 4.135 4.135 0 0 1-1.2 1.095 3.931 3.931 0 0 1-3.104.426 4.035 4.035 0 0 1-1.431-.735 4.208 4.208 0 0 1-1.053-1.25 4.366 4.366 0 0 1-.513-1.573 4.436 4.436 0 0 1 .104-1.659m0 .004L133 141l.043 14.84" stroke="#000" stroke-width="8" stroke-linecap="round" stroke-linejoin="round"/><path d="M39 117a17.001 17.001 0 1 1 3.001-33.733L42 83a25 25 0 0 1 46.65-12.5M153 117a17 17 0 1 0-13.608-27.19" stroke="#000" stroke-width="12" stroke-linecap="round" stroke-linejoin="round"/><circle cx="114" cy="80" r="5" stroke="#000" stroke-width="10" stroke-linecap="round" stroke-linejoin="round"/></svg>