<?xml version="1.0" encoding="utf-8"?>
	<svg version="1.1" xmlns="http://www.w3.org/2000/svg" xmlns:xlink="http://www.w3.org/1999/xlink" x="0px" y="0px" width="240.0" height="240.0" xml:space="preserve">
		<path d="M76.86,141.721C76.86,159.16 76.86,176.599 76.86,194.039C76.86,207.196 83.668,211.512 95.257,205.148C112.213,195.838 128.947,186.121 145.727,176.491C160.292,168.131 174.857,159.766 189.293,151.182C197.166,146.499 197.433,138.56 190.194,133.035C188.674,131.876 187.062,130.823 185.406,129.87C155.19,112.474 124.999,95.036 94.715,77.761C84.593,71.986 77.05,76.45 76.974,88.128C76.86,105.991 76.944,123.857 76.944,141.721L76.86,141.721ZM42.4,37.695C42.372,31.171 43.348,25.264 50.083,22.221C57.139,19.033 64.105,19.201 70.83,23.22C74.729,25.55 75.91,29.188 75.877,33.545C75.796,43.971 75.822,54.398 75.886,64.824C75.952,75.822 75.934,75.695 85.718,71.316C115.009,58.207 143.035,60.425 168.626,80.02C189.709,96.162 199.205,118.697 197.927,144.83C197.053,162.742 198.427,180.528 198.143,198.37C198.018,206.333 198.575,214.519 189.1,218.169C180.193,221.602 171.342,219.296 164.107,211.176C161.95,208.755 160.362,209.312 158.086,210.532C145.649,217.201 132.481,219.673 118.25,219.985C86.938,220.671 56.805,197.946 46.128,169.231C43.417,161.94 41.9,154.658 42.005,146.851C42.236,129.619 42.479,56.846 42.4,37.695Z" fill="#000" stroke="#00000000" stroke-width="1.0" stroke-miterlimit=""/>
	</svg>
