<svg xmlns="http://www.w3.org/2000/svg" xml:space="preserve" width="192" height="192" viewBox="0 0 192 192"><path d="M78.04 161.323 92.39 170s19.012-14.086 27.226-22.518c8.886-9.124 17.605-18.819 23.553-30.063 4.799-9.071 8.441-19.105 9.339-29.318 1.025-11.675.049-24.112-4.67-34.85-3.543-8.063-9.902-14.983-16.926-20.33-5.972-4.544-13.155-7.837-20.53-9.293-11.22-2.217-23.46-2.444-34.3 1.197-9.367 3.146-17.851 9.516-24.205 17.053C45.849 49.027 41.49 58 39.858 67.19c-1.63 9.19-.44 19.044 2.577 27.88 2.295 6.723 6.45 12.925 11.432 18.007 3.919 3.997 8.776 7.272 14.008 9.293 4.77 1.843 10.07 1.967 15.175 2.323 2.382.167 7.163-.089 7.163-.089s-.17 7.322-.928 10.884c-.807 3.79-2.31 7.414-3.818 10.987-2.15 5.097-7.428 14.847-7.428 14.847" style="fill:none;stroke:#000;stroke-width:12;stroke-linecap:round;stroke-linejoin:round;stroke-dasharray:none;stroke-opacity:1"/></svg>