<svg xmlns="http://www.w3.org/2000/svg" width="192" height="192" fill="none" stroke="#000" stroke-width="12" viewBox="0 0 192 192"><path d="M57.89 148v16a6.002 6.002 0 0 0 6 6h58.37c22.114 0 40.041-17.927 40.041-40.041a39.88 39.88 0 0 0-9.24-25.587c-3.776-4.54-3.776-12.204 0-16.744a39.878 39.878 0 0 0 9.24-25.587C162.301 39.927 144.374 22 122.26 22H63.89a6 6 0 0 0-6 6v40"/><path d="M131.334 111.666 59.461 67.557C46.135 59.38 29 68.967 29 84.603v44.109c0 11.046 8.954 20 20 20h71.873c20.179 0 27.66-26.491 10.461-37.046Z"/></svg>