<svg xmlns="http://www.w3.org/2000/svg" width="192" height="192" fill="none" viewBox="0 0 192 192"><path stroke="#000" stroke-width="12" d="M57.89 102.082V28a6 6 0 0 1 6-6h58.37c22.114 0 40.041 17.927 40.041 40.041 0 9.73-3.47 18.649-9.24 25.587-3.776 4.54-3.776 12.204 0 16.744a39.878 39.878 0 0 1 9.24 25.587c0 22.114-17.927 40.041-40.041 40.041H63.89a6 6 0 0 1-6-6V89.918"/><path stroke="#000" stroke-linecap="round" stroke-linejoin="round" stroke-width="12" d="M131.334 111.666 59.461 67.557C46.135 59.38 29 68.967 29 84.603v44.109c0 11.046 8.954 20 20 20h71.873c20.179 0 27.66-26.491 10.461-37.046Z"/></svg>