<svg width="192" height="192" viewBox="0 0 192 192" fill="none" xmlns="http://www.w3.org/2000/svg">
<path d="M59 102V29C59 25.6863 61.6863 23 65 23H122.5C144.315 23 162 40.6848 162 62.5C162 72.036 158.621 80.7827 152.995 87.6081C149.238 92.1648 149.238 99.8352 152.995 104.392C158.621 111.217 162 119.964 162 129.5C162 151.315 144.315 169 122.5 169H65C61.6863 169 59 166.314 59 163V90" stroke="black" stroke-width="12"/>
<path d="M130.636 110.954L60.9612 68.1943C47.6351 60.0159 30.5 69.6047 30.5 85.2402V128C30.5 139.046 39.4543 148 50.5 148H120.175C140.354 148 147.835 121.509 130.636 110.954Z" stroke="black" stroke-width="12" stroke-linecap="round" stroke-linejoin="round"/>
</svg>
