<svg xmlns="http://www.w3.org/2000/svg" width="192" height="192" fill="none"><path stroke="#000" stroke-linecap="round" stroke-linejoin="round" stroke-width="12" d="M156.338 126.077C176 118.038 170 104.049 135 82.066c-1.761-40.374-19.494-59.714-27-57.956-6.954 1.629-10.789 17.367-7 35.89 0 0-34.905-26.92-43-16-4.953 5.728 6 28 35.704 45.695-4.708 5.933-16.93 18.22-32.59 19.97-9.556 1.068-15.79.06-20.516-.704l-.005-.001h-.002c-3.827-.619-6.665-1.079-9.478-.144C25.842 110.34 22 115.065 22 120.657c0 6.781 5.647 12.285 12.64 12.358L22 168c63.956-45.117 103.386-42.385 148-19.485z"/><path stroke="#000" stroke-linecap="round" stroke-linejoin="round" stroke-miterlimit="32" stroke-width="8" d="M133.903 114.053a4 4 0 1 0 0-8 4 4 0 0 0 0 8"/></svg>