<svg width="192" height="192" viewBox="0 0 192 192" fill="none" xmlns="http://www.w3.org/2000/svg"><circle cx="35" cy="96" r="14" stroke="#000" stroke-width="10" stroke-linecap="round" stroke-linejoin="round"/><path d="M89 96c0 1.838-.336 3.659-.99 5.358a14.12 14.12 0 0 1-2.818 4.541 12.96 12.96 0 0 1-4.217 3.035A12.192 12.192 0 0 1 76 110c-1.707 0-3.398-.362-4.975-1.066a12.96 12.96 0 0 1-4.217-3.035 14.118 14.118 0 0 1-2.818-4.541A14.944 14.944 0 0 1 63 96m40 0c0-3.713 1.37-7.274 3.808-9.9 2.438-2.625 5.744-4.1 9.192-4.1 3.448 0 6.754 1.475 9.192 4.1C127.63 88.727 129 92.287 129 96" stroke="#000" stroke-width="10" stroke-linecap="round" stroke-linejoin="round"/><circle cx="157" cy="96" r="14" stroke="#000" stroke-width="10" stroke-linecap="round" stroke-linejoin="round"/><path d="M21 66v44m42-28v14m40 0v14M89 82v14m40 0v14m42-28v44" stroke="#000" stroke-width="10" stroke-linecap="round" stroke-linejoin="round"/></svg>