<svg width="192" height="192" viewBox="0 0 192 192" fill="none" xmlns="http://www.w3.org/2000/svg"><path d="m131.652 91.12-2.251 20.214M84.306 91.119l-2.932 25.695M54.17 91.304l-1.203 11.769c-.793 10.974 9.517 6.982 13.36-.365m1.281-11.38-2.24 19.59m7.794 47.441h36.716c4.576 0 9.274-.996 14.394-9.324l8.58 12.763 14.546-47.892L150.349 170l9.1-17.735 6.967 9.533H171M102.988 36.277l-2.382 15.873H67.037L70.924 22m96.165 14.05-2.783 15.886h-28.054m0 0C134.809 61.366 130 67 117.642 64.968m18.61-13.032.682-8.838c.371-4.809-2.222-7.894-6.934-7.894-4.711 0-10.682 4.795-10.682 9.676s1.934 7.056 5.783 7.056h11.151Zm-98.931 50.182c0 4.142-3.526 7.727-7.716 7.708l-8.605-.04.526-7.668.519-8.042h7.56c4.19 0 7.716 3.26 7.716 8.042Zm1.053-15.715c0 4.142-3.527 7.727-7.717 7.707l-8.604-.04.525-7.667.52-8.042h7.56c4.19 0 7.716 3.26 7.716 8.041Zm90.9 17.477a12.074 12.074 0 0 1-2.087 3.112 11.02 11.02 0 0 1-2.868 2.234c-1.043.557-2.135.903-3.213 1.016-1.078.113-2.121-.008-3.07-.356-1.915-.704-3.329-2.291-3.931-4.413-.601-2.121-.341-4.603.724-6.9a12.045 12.045 0 0 1 2.086-3.111 11.026 11.026 0 0 1 2.868-2.234c1.044-.558 2.136-.903 3.214-1.017 1.078-.113 2.121.008 3.069.357 1.916.704 3.33 2.29 3.931 4.412.602 2.122.341 4.604-.723 6.9Zm-30.013-1.871c-.396 5.454-5.142 8.478-9.457 8.177-4.315-.3-6.81-3.829-6.415-9.282.395-5.454 5.134-8.53 9.449-8.23 4.315.301 6.818 3.882 6.423 9.335Z" stroke="#000" stroke-width="10" stroke-miterlimit="16" stroke-linecap="round" stroke-linejoin="round"/><circle cx="156" cy="69" r="3" stroke="#000" stroke-width="6" stroke-miterlimit="16" stroke-linecap="round" stroke-linejoin="round"/><circle cx="86" cy="69" r="3" stroke="#000" stroke-width="6" stroke-miterlimit="16" stroke-linecap="round" stroke-linejoin="round"/></svg>
