<svg width="192" height="192" viewBox="0 0 192 192" fill="none" xmlns="http://www.w3.org/2000/svg"><path d="M160 62c0 18-24 39-24 39s24 7 24 41m-56-80v13m0 54v13M76 62v13m0 54v13M32 62v80m72-67a14 14 0 0 1-28 0m0 54a14.001 14.001 0 0 1 19.358-12.934 13.976 13.976 0 0 1 4.541 3.035A13.984 13.984 0 0 1 104 129m-44 41h72M32 142h128M32 62h128M72 22h48M32 142a27.998 27.998 0 0 0 28 28m72 0a28.001 28.001 0 0 0 28-28M72 22a40 40 0 0 0-40 40m128 0a40.003 40.003 0 0 0-40-40" stroke="#000" stroke-width="12" stroke-linecap="round" stroke-linejoin="round"/></svg>