<?xml version="1.0" encoding="UTF-8" standalone="no"?>
<!-- Created with Inkscape (http://www.inkscape.org/) -->

<svg
   width="24"
   height="24"
   viewBox="0 0 6.3499999 6.3500002"
   version="1.1"
   id="svg8"
   inkscape:version="1.1.1 (3bf5ae0d25, 2021-09-20)"
   sodipodi:docname="burger_king.svg"
   xmlns:inkscape="http://www.inkscape.org/namespaces/inkscape"
   xmlns:sodipodi="http://sodipodi.sourceforge.net/DTD/sodipodi-0.dtd"
   xmlns="http://www.w3.org/2000/svg"
   xmlns:svg="http://www.w3.org/2000/svg"
   xmlns:rdf="http://www.w3.org/1999/02/22-rdf-syntax-ns#"
   xmlns:cc="http://creativecommons.org/ns#"
   xmlns:dc="http://purl.org/dc/elements/1.1/">
  <defs
     id="defs2">
    <marker
       inkscape:stockid="Arrow1Lend"
       orient="auto"
       refY="0.0"
       refX="0.0"
       id="Arrow1Lend"
       style="overflow:visible;"
       inkscape:isstock="true">
      <path
         id="path844"
         d="M 0.0,0.0 L 5.0,-5.0 L -12.5,0.0 L 5.0,5.0 L 0.0,0.0 z "
         style="fill-rule:evenodd;stroke:#000000;stroke-width:1.0pt;"
         transform="scale(0.8) rotate(180) translate(12.5,0)" />
    </marker>
    <marker
       inkscape:stockid="Arrow1Lstart"
       orient="auto"
       refY="0.0"
       refX="0.0"
       id="Arrow1Lstart"
       style="overflow:visible"
       inkscape:isstock="true">
      <path
         id="path841"
         d="M 0.0,0.0 L 5.0,-5.0 L -12.5,0.0 L 5.0,5.0 L 0.0,0.0 z "
         style="fill-rule:evenodd;stroke:#000000;stroke-width:1.0pt"
         transform="scale(0.8) translate(12.5,0)" />
    </marker>
    <pattern
       y="0"
       x="0"
       height="6"
       width="6"
       patternUnits="userSpaceOnUse"
       id="EMFhbasepattern" />
    <pattern
       y="0"
       x="0"
       height="6"
       width="6"
       patternUnits="userSpaceOnUse"
       id="EMFhbasepattern-1" />
    <pattern
       y="0"
       x="0"
       height="6"
       width="6"
       patternUnits="userSpaceOnUse"
       id="EMFhbasepattern-6" />
    <pattern
       y="0"
       x="0"
       height="6"
       width="6"
       patternUnits="userSpaceOnUse"
       id="EMFhbasepattern-15" />
    <pattern
       y="0"
       x="0"
       height="6"
       width="6"
       patternUnits="userSpaceOnUse"
       id="EMFhbasepattern-17" />
    <pattern
       y="0"
       x="0"
       height="6"
       width="6"
       patternUnits="userSpaceOnUse"
       id="EMFhbasepattern-2" />
    <pattern
       y="0"
       x="0"
       height="6"
       width="6"
       patternUnits="userSpaceOnUse"
       id="EMFhbasepattern-3" />
    <pattern
       y="0"
       x="0"
       height="6"
       width="6"
       patternUnits="userSpaceOnUse"
       id="EMFhbasepattern-61" />
    <pattern
       y="0"
       x="0"
       height="6"
       width="6"
       patternUnits="userSpaceOnUse"
       id="EMFhbasepattern-4" />
    <pattern
       y="0"
       x="0"
       height="6"
       width="6"
       patternUnits="userSpaceOnUse"
       id="EMFhbasepattern-37" />
    <pattern
       y="0"
       x="0"
       height="6"
       width="6"
       patternUnits="userSpaceOnUse"
       id="EMFhbasepattern-12" />
    <pattern
       y="0"
       x="0"
       height="6"
       width="6"
       patternUnits="userSpaceOnUse"
       id="EMFhbasepattern-44" />
    <pattern
       y="0"
       x="0"
       height="6"
       width="6"
       patternUnits="userSpaceOnUse"
       id="EMFhbasepattern-5" />
    <pattern
       y="0"
       x="0"
       height="6"
       width="6"
       patternUnits="userSpaceOnUse"
       id="EMFhbasepattern-157" />
    <pattern
       y="0"
       x="0"
       height="6"
       width="6"
       patternUnits="userSpaceOnUse"
       id="EMFhbasepattern-7" />
    <pattern
       y="0"
       x="0"
       height="6"
       width="6"
       patternUnits="userSpaceOnUse"
       id="EMFhbasepattern-8" />
    <pattern
       y="0"
       x="0"
       height="6"
       width="6"
       patternUnits="userSpaceOnUse"
       id="EMFhbasepattern-43" />
    <pattern
       y="0"
       x="0"
       height="6"
       width="6"
       patternUnits="userSpaceOnUse"
       id="EMFhbasepattern-63" />
    <pattern
       y="0"
       x="0"
       height="6"
       width="6"
       patternUnits="userSpaceOnUse"
       id="EMFhbasepattern-82" />
    <pattern
       y="0"
       x="0"
       height="6"
       width="6"
       patternUnits="userSpaceOnUse"
       id="EMFhbasepattern-70" />
    <pattern
       y="0"
       x="0"
       height="6"
       width="6"
       patternUnits="userSpaceOnUse"
       id="EMFhbasepattern-46" />
    <pattern
       y="0"
       x="0"
       height="6"
       width="6"
       patternUnits="userSpaceOnUse"
       id="EMFhbasepattern-465" />
    <pattern
       y="0"
       x="0"
       height="6"
       width="6"
       patternUnits="userSpaceOnUse"
       id="EMFhbasepattern-30" />
    <pattern
       y="0"
       x="0"
       height="6"
       width="6"
       patternUnits="userSpaceOnUse"
       id="EMFhbasepattern-9" />
    <pattern
       y="0"
       x="0"
       height="6"
       width="6"
       patternUnits="userSpaceOnUse"
       id="EMFhbasepattern-79" />
    <pattern
       y="0"
       x="0"
       height="6"
       width="6"
       patternUnits="userSpaceOnUse"
       id="EMFhbasepattern-59" />
    <pattern
       y="0"
       x="0"
       height="6"
       width="6"
       patternUnits="userSpaceOnUse"
       id="EMFhbasepattern-74" />
    <pattern
       y="0"
       x="0"
       height="6"
       width="6"
       patternUnits="userSpaceOnUse"
       id="EMFhbasepattern-50" />
    <pattern
       y="0"
       x="0"
       height="6"
       width="6"
       patternUnits="userSpaceOnUse"
       id="EMFhbasepattern-54" />
    <pattern
       y="0"
       x="0"
       height="6"
       width="6"
       patternUnits="userSpaceOnUse"
       id="EMFhbasepattern-32" />
    <pattern
       y="0"
       x="0"
       height="6"
       width="6"
       patternUnits="userSpaceOnUse"
       id="EMFhbasepattern-26" />
    <pattern
       y="0"
       x="0"
       height="6"
       width="6"
       patternUnits="userSpaceOnUse"
       id="EMFhbasepattern-83" />
    <pattern
       y="0"
       x="0"
       height="6"
       width="6"
       patternUnits="userSpaceOnUse"
       id="EMFhbasepattern-73" />
    <pattern
       y="0"
       x="0"
       height="6"
       width="6"
       patternUnits="userSpaceOnUse"
       id="EMFhbasepattern-328" />
    <pattern
       y="0"
       x="0"
       height="6"
       width="6"
       patternUnits="userSpaceOnUse"
       id="EMFhbasepattern-0" />
    <pattern
       y="0"
       x="0"
       height="6"
       width="6"
       patternUnits="userSpaceOnUse"
       id="EMFhbasepattern-85" />
    <pattern
       y="0"
       x="0"
       height="6"
       width="6"
       patternUnits="userSpaceOnUse"
       id="EMFhbasepattern-84" />
    <pattern
       y="0"
       x="0"
       height="6"
       width="6"
       patternUnits="userSpaceOnUse"
       id="EMFhbasepattern-06" />
    <pattern
       y="0"
       x="0"
       height="6"
       width="6"
       patternUnits="userSpaceOnUse"
       id="EMFhbasepattern-81" />
    <pattern
       y="0"
       x="0"
       height="6"
       width="6"
       patternUnits="userSpaceOnUse"
       id="EMFhbasepattern-33" />
    <pattern
       y="0"
       x="0"
       height="6"
       width="6"
       patternUnits="userSpaceOnUse"
       id="EMFhbasepattern-703" />
    <pattern
       y="0"
       x="0"
       height="6"
       width="6"
       patternUnits="userSpaceOnUse"
       id="EMFhbasepattern-610" />
    <pattern
       y="0"
       x="0"
       height="6"
       width="6"
       patternUnits="userSpaceOnUse"
       id="EMFhbasepattern-18" />
    <pattern
       y="0"
       x="0"
       height="6"
       width="6"
       patternUnits="userSpaceOnUse"
       id="EMFhbasepattern-72" />
    <pattern
       y="0"
       x="0"
       height="6"
       width="6"
       patternUnits="userSpaceOnUse"
       id="EMFhbasepattern-55" />
    <pattern
       y="0"
       x="0"
       height="6"
       width="6"
       patternUnits="userSpaceOnUse"
       id="EMFhbasepattern-66" />
    <pattern
       y="0"
       x="0"
       height="6"
       width="6"
       patternUnits="userSpaceOnUse"
       id="EMFhbasepattern-663" />
    <pattern
       y="0"
       x="0"
       height="6"
       width="6"
       patternUnits="userSpaceOnUse"
       id="EMFhbasepattern-51" />
    <pattern
       y="0"
       x="0"
       height="6"
       width="6"
       patternUnits="userSpaceOnUse"
       id="EMFhbasepattern-555" />
    <pattern
       y="0"
       x="0"
       height="6"
       width="6"
       patternUnits="userSpaceOnUse"
       id="EMFhbasepattern-701" />
  </defs>
  <sodipodi:namedview
     id="base"
     pagecolor="#ffffff"
     bordercolor="#666666"
     borderopacity="1.0"
     inkscape:pageopacity="0.0"
     inkscape:pageshadow="2"
     inkscape:zoom="22.627417"
     inkscape:cx="12.352272"
     inkscape:cy="10.230951"
     inkscape:document-units="px"
     inkscape:current-layer="layer2"
     showgrid="false"
     units="px"
     inkscape:window-width="1920"
     inkscape:window-height="1017"
     inkscape:window-x="-8"
     inkscape:window-y="-8"
     inkscape:window-maximized="1"
     inkscape:pagecheckerboard="0" />
  <metadata
     id="metadata5">
    <rdf:RDF>
      <cc:Work
         rdf:about="">
        <dc:format>image/svg+xml</dc:format>
        <dc:type
           rdf:resource="http://purl.org/dc/dcmitype/StillImage" />
      </cc:Work>
    </rdf:RDF>
  </metadata>
  <g
     inkscape:groupmode="layer"
     id="layer2"
     inkscape:label="Layer 2">
    <path
       id="path5014"
       d="m 5.2059214,5.5301504 c -0.3984028,0.228171 -1.0831581,0.290683 -2.0293652,0.290683 -0.9493197,0 -1.6340748,-0.06251 -2.0324778,-0.290683 -0.23966428,-0.134401 -0.36105268,-0.318812 -0.36105268,-0.450088 0,-0.07814 0.040463,-0.118773 0.130726,-0.118773 H 5.4393606 c 0.087151,0 0.1276137,0.04063 0.1276137,0.118773 0,0.131276 -0.1213887,0.315687 -0.3610529,0.450088 z M 5.4393606,2.0200854 H 0.91375172 c -0.090263,0 -0.130726,-0.04376 -0.130726,-0.12815 0,-0.493848 0.73766798,-1.36276872 2.39353048,-1.36276872 1.6371875,0 2.3904181,0.86892072 2.3904181,1.36276872 0,0.08439 -0.040463,0.12815 -0.1276137,0.12815 z m -3.6914527,2.034775 c -0.015563,-0.02188 -0.015563,-0.03751 -0.015563,-0.04376 0,-0.01563 0.00934,-0.02813 0.028013,-0.04688 0.043576,-0.03751 0.1494013,-0.137527 0.2054268,-0.228169 0.046688,-0.07189 0.065363,-0.134402 0.065363,-0.187537 0,-0.131276 -0.1213884,-0.237547 -0.2552269,-0.237547 -0.084038,0 -0.1649637,0.04688 -0.2178766,0.134401 -0.071588,0.118774 -0.1587387,0.253175 -0.2116516,0.309436 -0.015563,0.0125 -0.021787,0.01563 -0.034238,0.01563 -0.018675,0 -0.0249,-0.0125 -0.0249,-0.03126 v -0.15628 c 0,-0.150029 -0.090263,-0.271928 -0.2521144,-0.271928 -0.16185118,0 -0.24900188,0.121899 -0.24900188,0.271928 v 0.950187 c 0,0.15003 0.087151,0.271929 0.24900188,0.271929 0.1618512,0 0.2521144,-0.121899 0.2521144,-0.271929 v -0.218793 c 0,-0.01875 0.00623,-0.03438 0.0249,-0.03438 0.0249,0 0.031125,0.02501 0.03735,0.03751 0.034238,0.08439 0.1400636,0.265677 0.2334393,0.371948 0.065363,0.07189 0.1431761,0.115648 0.2303267,0.115648 0.1400636,0 0.2614519,-0.125025 0.2614519,-0.259426 0,-0.08127 -0.034238,-0.143778 -0.1027131,-0.218793 -0.087151,-0.09377 -0.1867515,-0.215668 -0.2241018,-0.271929 z m 1.9142019,-0.831413 c 0.2396643,0 0.3921781,-0.153156 0.3921781,-0.3782 0,-0.143778 -0.084038,-0.240672 -0.2583396,-0.240672 h -0.046688 c -0.090263,0 -0.1618512,0.04063 -0.1618512,0.137527 0,0.08752 0.074701,0.12815 0.130726,0.12815 0.031125,0 0.0498,0.0094 0.0498,0.03126 0,0.02813 -0.034238,0.04688 -0.071588,0.04688 -0.1151634,0 -0.1929765,-0.08127 -0.1929765,-0.234422 0,-0.168783 0.1089383,-0.231295 0.1898639,-0.231295 0.1027133,0 0.1182759,0.05313 0.1898639,0.05313 0.080926,0 0.136951,-0.06876 0.136951,-0.137527 0,-0.05314 -0.021786,-0.09377 -0.059138,-0.121899 -0.065363,-0.04688 -0.1556262,-0.08127 -0.2894647,-0.08127 -0.2365518,0 -0.4699911,0.156281 -0.4699911,0.518852 0,0.346944 0.2303267,0.509476 0.4606535,0.509476 z m -2.69855768,-0.0094 H 1.1783161 c 0.2054266,0 0.3299275,-0.137527 0.3299275,-0.306311 0,-0.137527 -0.080926,-0.200039 -0.099601,-0.215667 -0.00934,-0.0063 -0.015563,-0.0125 -0.015563,-0.01875 0,-0.0094 0.00311,-0.0125 0.01245,-0.02188 0.028013,-0.03438 0.059138,-0.08752 0.059138,-0.165658 0,-0.184411 -0.1245009,-0.284431 -0.3174774,-0.284431 H 0.96355142 c -0.1213885,0 -0.1805264,0.07189 -0.1805264,0.168784 v 0.678258 c 0,0.09377 0.059138,0.165658 0.1805264,0.165658 z m 0.090263,-0.747022 c 0,-0.01875 0.01245,-0.03438 0.03735,-0.03438 h 0.021788 c 0.065363,0 0.084038,0.04688 0.084038,0.08439 0,0.03751 -0.018675,0.09064 -0.084038,0.09064 h -0.021788 c -0.0249,0 -0.03735,-0.01563 -0.03735,-0.03438 z m 0,0.359445 c 0,-0.01875 0.01245,-0.03438 0.03735,-0.03438 h 0.028013 c 0.074701,0 0.096488,0.05001 0.096488,0.09377 0,0.04063 -0.021787,0.09689 -0.096488,0.09689 h -0.028013 c -0.0249,0 -0.03735,-0.01563 -0.03735,-0.03438 z m 3.9186671,0.396954 c 0.096488,0 0.1525136,-0.07502 0.1525136,-0.168784 v -0.162532 c 0,-0.01875 0.00934,-0.02813 0.021786,-0.02813 0.018675,0 0.0249,0.0094 0.028015,0.02813 0.015561,0.07814 0.052913,0.184412 0.093376,0.240673 0.052913,0.06876 0.0996,0.09064 0.1494009,0.09064 0.080926,0 0.1494013,-0.06564 0.1494013,-0.143779 0,-0.05313 -0.021789,-0.09064 -0.0498,-0.125024 -0.0498,-0.06564 -0.084038,-0.109397 -0.1027134,-0.162532 -0.00623,-0.0125 -0.00312,-0.02501 0.01245,-0.03438 0.046688,-0.03751 0.1027131,-0.118773 0.1027131,-0.246924 0,-0.196913 -0.1618512,-0.30631 -0.3579401,-0.30631 H 5.0004952 c -0.1213883,0 -0.1805264,0.06876 -0.1805264,0.165658 v 0.684509 c 0,0.09377 0.052913,0.168784 0.1525135,0.168784 z m 0.1338384,-0.728246 c 0,-0.02188 0.01245,-0.03751 0.037351,-0.03751 h 0.021786 c 0.065363,0 0.087151,0.04688 0.087151,0.08752 0,0.03751 -0.021789,0.08752 -0.087151,0.08752 h -0.021786 c -0.0249,0 -0.037351,-0.0125 -0.037351,-0.03438 z m -2.6580949,0.815786 c -0.1711888,0 -0.267677,0.12815 -0.267677,0.290682 v 0.91268 c 0,0.162532 0.096488,0.290682 0.267677,0.290682 0.1711887,0 0.2645645,-0.12815 0.2645645,-0.290682 v -0.91268 c 0,-0.159406 -0.093376,-0.290682 -0.2645645,-0.290682 z m 2.7296831,0.593867 h -0.0747 c -0.1369511,0 -0.2396645,0.06251 -0.2396645,0.200039 0,0.12815 0.1120508,0.187537 0.1960889,0.187537 0.043576,0 0.071588,0.0125 0.071588,0.04376 0,0.04063 -0.0498,0.06564 -0.1027134,0.06564 -0.1711888,0 -0.2894647,-0.118774 -0.2894647,-0.337567 0,-0.243798 0.1618513,-0.334441 0.2863522,-0.334441 0.1494013,0 0.1743013,0.07814 0.2801273,0.07814 0.1245009,0 0.2054265,-0.10002 0.2054265,-0.203165 0,-0.07502 -0.031125,-0.134402 -0.087151,-0.171909 -0.093376,-0.07189 -0.2334394,-0.121899 -0.4326408,-0.121899 -0.3579401,0 -0.7065428,0.225044 -0.7065428,0.753273 0,0.503224 0.3486027,0.737645 0.6909801,0.737645 0.3610529,0 0.5913797,-0.221919 0.5913797,-0.546982 0,-0.206291 -0.130726,-0.350069 -0.3890655,-0.350069 z M 4.5958666,3.2140704 c 0.087151,0 0.1556264,-0.05001 0.1556264,-0.143779 0,-0.09064 -0.068475,-0.140652 -0.1556264,-0.140652 H 4.4589158 c -0.0249,0 -0.03735,-0.01563 -0.03735,-0.03438 v -0.03126 c 0,-0.01875 0.01245,-0.03438 0.03735,-0.03438 h 0.1058257 c 0.074701,0 0.130726,-0.04376 0.130726,-0.121899 0,-0.08127 -0.056025,-0.125025 -0.130726,-0.125025 H 4.4589158 c -0.0249,0 -0.03735,-0.01563 -0.03735,-0.03438 v -0.02501 c 0,-0.01875 0.01245,-0.03438 0.03735,-0.03438 h 0.1369508 c 0.087151,0 0.1556264,-0.05314 0.1556264,-0.143778 0,-0.09064 -0.068475,-0.143778 -0.1556264,-0.143778 H 4.306402 c -0.1213884,0 -0.1805261,0.07189 -0.1805261,0.168783 v 0.678258 c 0,0.09377 0.059138,0.165658 0.1805261,0.165658 z m -2.6363071,0.0094 c 0.2490018,0 0.3797279,-0.15003 0.3797279,-0.337567 v -0.518852 c 0,-0.09377 -0.052913,-0.165658 -0.1525137,-0.165658 -0.096488,0 -0.1494011,0.07189 -0.1494011,0.165658 v 0.500099 c 0,0.03751 -0.021788,0.08127 -0.077813,0.08127 -0.056025,0 -0.074701,-0.04376 -0.074701,-0.08127 v -0.500099 c 0,-0.09377 -0.056025,-0.165658 -0.1525136,-0.165658 -0.099601,0 -0.1525136,0.07189 -0.1525136,0.165658 v 0.518852 c 0,0.187537 0.1307259,0.337567 0.3797281,0.337567 z m 1.0769331,0 c 0.080926,0 0.1494011,-0.06564 0.1494011,-0.143779 0,-0.05313 -0.021787,-0.09064 -0.0498,-0.125024 -0.043575,-0.05939 -0.084038,-0.109397 -0.1027133,-0.162532 -0.00623,-0.0125 -0.00311,-0.02501 0.01245,-0.03438 0.046688,-0.03751 0.1027133,-0.118773 0.1027133,-0.246924 0,-0.196913 -0.1618512,-0.309436 -0.3579402,-0.309436 h -0.171189 c -0.1213884,0 -0.1805264,0.07189 -0.1805264,0.168784 v 0.684509 c 0,0.09377 0.052913,0.168784 0.1525137,0.168784 0.096488,0 0.1525136,-0.07502 0.1525136,-0.168784 v -0.162532 c 0,-0.01875 0.00622,-0.02813 0.021788,-0.02813 0.018675,0 0.0249,0.0094 0.028013,0.02813 0.015563,0.07814 0.052913,0.184412 0.093376,0.240673 0.052913,0.06876 0.099601,0.09064 0.1494011,0.09064 z M 2.7843782,2.6327284 h -0.021788 c -0.0249,0 -0.03735,-0.01563 -0.03735,-0.03438 v -0.103146 c 0,-0.02188 0.01245,-0.03751 0.03735,-0.03751 h 0.021788 c 0.065363,0 0.084038,0.04688 0.084038,0.08752 0,0.03751 -0.018675,0.08752 -0.084038,0.08752 z m 1.1360711,0.678259 c -0.1587388,0 -0.2458894,0.118773 -0.2458894,0.268803 v 0.331315 c 0,0.02813 -0.00934,0.04063 -0.0249,0.04063 -0.01245,0 -0.021788,-0.0063 -0.031125,-0.02813 L 3.4037704,3.5078984 c -0.080926,-0.159407 -0.1649637,-0.196914 -0.261452,-0.196914 -0.1618512,0 -0.2521143,0.121899 -0.2521143,0.275054 v 0.950187 c 0,0.15003 0.087151,0.268803 0.2458893,0.268803 0.1587387,0 0.2427768,-0.118773 0.2427768,-0.268803 v -0.331335 c 0,-0.02813 0.00934,-0.04063 0.028013,-0.04063 0.01245,0 0.021788,0.0062 0.031125,0.02813 l 0.2147641,0.415707 c 0.080926,0.159407 0.1680762,0.196914 0.2614519,0.196914 0.1618512,0 0.2490018,-0.121899 0.2490018,-0.275054 v -0.950186 c 0,-0.15003 -0.084038,-0.268803 -0.2427765,-0.268803 z"
       style="fill:#000000;fill-opacity:1;fill-rule:evenodd;stroke:none;stroke-width:0.08247651"
       inkscape:connector-curvature="0" />
  </g>
</svg>
