<svg width="192" height="192" viewBox="0 0 192 192" fill="none" xmlns="http://www.w3.org/2000/svg">
<path d="M149 73.8998V150.399C149 153.879 146.148 156.7 142.631 156.7C138.849 156.7 136.121 160.175 134.407 163.509C132.155 167.891 127.261 170 123.552 170C121.294 170 118.51 169.219 116.138 167.62C110.483 163.81 105.109 156.7 98.2669 156.7H78.733C71.8913 156.7 66.5168 163.81 60.8624 167.62C58.4896 169.219 55.7059 170 53.4484 170C49.7389 170 44.8451 167.891 42.593 163.509C40.8792 160.175 38.1509 156.7 34.3694 156.7C30.8517 156.7 28 153.879 28 150.399V48.4C28 42.104 33.1594 37 39.5238 37H112.988" stroke="black" stroke-width="12" stroke-linecap="round" stroke-linejoin="round"/>
<path d="M49.5747 60.4505H126.801" stroke="black" stroke-width="12" stroke-linecap="round"/>
<path d="M121.244 83.9481H55.5747C52.261 83.9481 49.5747 86.6344 49.5747 89.9481V100.378C49.5747 103.691 52.261 106.378 55.5747 106.378H121.244C124.558 106.378 127.244 103.691 127.244 100.378V89.9481C127.244 86.6344 124.558 83.9481 121.244 83.9481Z" stroke="black" stroke-width="12"/>
<circle cx="53.9999" cy="132.92" r="5" fill="#D9D9D9" stroke="black" stroke-width="10"/>
<circle cx="123" cy="132.92" r="5" fill="#D9D9D9" stroke="black" stroke-width="10"/>
<path d="M134 37H164M149 22V52" stroke="black" stroke-width="12" stroke-linecap="round"/>
</svg>
