<svg xmlns="http://www.w3.org/2000/svg" width="192" height="192" fill="none"><path stroke="#000" stroke-linecap="round" stroke-linejoin="round" stroke-width="12" d="M155 73.9v76.499c0 3.48-2.852 6.301-6.369 6.301-3.782 0-6.51 3.475-8.224 6.809-2.252 4.382-7.146 6.491-10.855 6.491-2.258 0-5.042-.781-7.414-2.38-5.655-3.81-11.029-10.92-17.871-10.92H84.733c-6.842 0-12.216 7.11-17.87 10.92-2.373 1.599-5.157 2.38-7.415 2.38-3.71 0-8.603-2.109-10.855-6.491-1.714-3.334-4.442-6.809-8.224-6.809-3.517 0-6.369-2.821-6.369-6.301V48.4C34 42.104 39.16 37 45.524 37h73.464"/><path stroke="#000" stroke-linecap="round" stroke-width="12" d="M55.575 60.45H132.8"/><path stroke="#000" stroke-width="12" d="M127.244 83.948h-65.67a6 6 0 0 0-6 6v10.43a6 6 0 0 0 6 6h65.67a6 6 0 0 0 6-6v-10.43a6 6 0 0 0-6-6Z"/><path stroke="#000" stroke-width="10" d="M60 137.92a5 5 0 1 0 0-10 5 5 0 0 0 0 10Zm69 0a5 5 0 1 0-.001-10.001A5 5 0 0 0 129 137.92Z"/><path stroke="#000" stroke-linecap="round" stroke-width="12" d="M140 37h30m-15-15v30"/></svg>