<svg xmlns="http://www.w3.org/2000/svg" width="192" height="192" fill="none"><path stroke="#000" stroke-linecap="round" stroke-linejoin="round" stroke-width="12" d="M22 71s38-34.909 57-40M22 133s8.08 4.17 19.63 9.5M79 31c19-5.091 53 4 69 18s22 102 22 102-34 14-60 14c-5.522 0-12.669-1.444-20.5-3.718M79 31c9 40 10.5 130.282 10.5 130.282m0 0c-7.639-2.218-15.93-5.226-24-8.455"/><path stroke="#000" stroke-linecap="round" stroke-linejoin="round" stroke-width="12" d="M52 47c-1.522 13.442-1.114 28.948.343 41.621M22 100s13-7 30.343-11.379m0 0a221 221 0 0 0 2.814 17.879M85 66s13-8 19-5 5 27 5 27m-20 39c9.1 2.328 15.798 3.715 23.855 4.456M166 128s-23.132 6.215-53.145 3.456M140 159c-3.539-13.209-7-26-27.145-27.544M110 70s27 7 48 7"/><ellipse cx="54" cy="145" stroke="#000" stroke-linecap="round" stroke-linejoin="round" stroke-width="12" rx="11" ry="18"/></svg>