<svg width="192" height="192" viewBox="0 0 192 192" fill="none" xmlns="http://www.w3.org/2000/svg">
<path d="M148.898 74.074V99.6713V150.866C148.898 154.359 146.025 157.191 142.481 157.191C138.672 157.191 135.923 160.679 134.196 164.026C131.928 168.425 126.998 170.542 123.261 170.542C120.986 170.542 118.182 169.758 115.792 168.153C110.095 164.328 104.681 157.191 97.7883 157.191H78.1095C71.217 157.191 65.8026 164.328 60.1062 168.153C57.7158 169.758 54.9114 170.542 52.6372 170.542C48.9002 170.542 43.9701 168.425 41.7013 164.026C39.9748 160.679 37.2262 157.191 33.4167 157.191C29.8728 157.191 27 154.359 27 150.866V48.4767C27 42.1566 32.1977 37.0331 38.6093 37.0331H87.9489H112.619" stroke="black" stroke-width="12" stroke-linecap="round" stroke-linejoin="round"/>
<path d="M48.5746 60.5307H125.801" stroke="black" stroke-width="12" stroke-linecap="round"/>
<path d="M120.244 84.0282H54.5746C51.2609 84.0282 48.5746 86.7145 48.5746 90.0282V100.458C48.5746 103.771 51.2609 106.458 54.5746 106.458H120.244C123.558 106.458 126.244 103.771 126.244 100.458V90.0282C126.244 86.7145 123.558 84.0282 120.244 84.0282Z" stroke="black" stroke-width="12"/>
<circle cx="52.9999" cy="133" r="5" fill="#D9D9D9" stroke="black" stroke-width="10"/>
<circle cx="122" cy="133" r="5" fill="#D9D9D9" stroke="black" stroke-width="10"/>
<path d="M133.795 37.0331H164M148.898 22.0801V51.9861" stroke="black" stroke-width="12" stroke-linecap="round"/>
</svg>
