<svg width="192" height="192" viewBox="0 0 192 192" fill="none" xmlns="http://www.w3.org/2000/svg"><path d="M41 56c0-28-1-34 55-34 52 0 55 6 55 34v94s-11 6-55 6c-48 0-55-6-55-6V56Z" stroke="#000" stroke-width="12" stroke-linecap="round" stroke-linejoin="round"/><path d="M151 90s-7 6-55 6c-44 0-55-6-55-6m0 58v22m110-22v22" stroke="#000" stroke-width="12" stroke-linecap="round" stroke-linejoin="round"/><path d="m171 74-1.574-20.46a6 6 0 0 0-5.982-5.54H155M21 74l1.574-20.46A6 6 0 0 1 28.556 48H37" stroke="#000" stroke-width="10" stroke-linecap="round" stroke-linejoin="round"/><path d="M66 126a4 4 0 1 0 0-8 4 4 0 0 0 0 8Zm60 0a4 4 0 1 0 0-8 4 4 0 0 0 0 8Z" stroke="#000" stroke-width="8" stroke-linecap="round" stroke-linejoin="round"/></svg>