<svg xmlns="http://www.w3.org/2000/svg" width="192" height="192" fill="none"><path stroke="#000" stroke-linecap="round" stroke-linejoin="round" stroke-width="12" d="M130 56a34 34 0 1 0-68 0M28 98v66a6 6 0 0 0 6 6h124a6 6 0 0 0 6-6V98M22 68l2 30m146-30-2 30M24 98h30m114 0h-30M62 68V56m68 12V56"/><path stroke="#000" stroke-linecap="round" stroke-linejoin="round" stroke-width="12" d="M64 42H44L22 68h148l-22-26h-20"/><path stroke="#000" stroke-linecap="round" stroke-width="12" d="M96 97v9m21.651 3.5-7.794 4.5m-35.507-4.5 7.794 4.5M96 138v9m-13.855-17-7.794 4.5m35.505-4.5 7.794 4.5"/><circle cx="96" cy="122" r="16" stroke="#000" stroke-linejoin="round" stroke-width="12"/></svg>