<svg width="192" height="192" viewBox="0 0 192 192" fill="none" xmlns="http://www.w3.org/2000/svg"><path d="M156 30H36a6 6 0 0 0-6 6v120a6 6 0 0 0 6 6h120a6 6 0 0 0 6-6V36a6 6 0 0 0-6-6ZM30 96h132" stroke="#000" stroke-width="12" stroke-linecap="round" stroke-linejoin="round"/><path d="M49 49v28m-2 59v-14h7l7-7v28l-7-7h-7Zm30-87v28" stroke="#000" stroke-width="8" stroke-linecap="round" stroke-linejoin="round"/><path d="M96 30v132" stroke="#000" stroke-width="12" stroke-linecap="round" stroke-linejoin="round"/><path d="M143 63h-28M77 49H49m94 93-14-28-14 28M77 77H49m94 65h-28m14-93-14 14m14 14-14-14m-43 78.124A13.996 13.996 0 0 0 79 129a13.998 13.998 0 0 0-7-12.124" stroke="#000" stroke-width="8" stroke-linecap="round" stroke-linejoin="round"/></svg>