<svg width="192" height="192" viewBox="0 0 192 192" fill="none" xmlns="http://www.w3.org/2000/svg"><path d="m136.568 54.676-3.71-22.63c-.288-1.677-1.237-3.164-2.732-3.942C125.57 25.734 114.195 21 96 21c-17.192 0-32.471 4.226-39.921 6.692-1.774.587-1.774 5.98 0 6.567 7.45 2.465 22.729 5.657 39.921 5.657 2.93-.037 5.714-.177 8.34-.392M96 81c22.348 0 37.194-2.373 44.538-3.933 3.104-.659 4.945-3.711 4.351-6.864l-1.775-9.435c-.71-3.773-4.583-6.151-8.297-5.369-7.258 1.528-20.197 3.489-38.817 3.489s-31.56-1.96-38.817-3.489c-3.714-.782-7.587 1.596-8.297 5.369l-1.775 9.435c-.594 3.153 1.247 6.205 4.35 6.864C58.806 78.627 73.651 81 96 81Z" stroke="#000" stroke-width="10" stroke-linecap="round" stroke-linejoin="round"/><path d="M96 170h16.162a12 12 0 0 0 11.938-10.782L132.184 80M96 170H79.838A12 12 0 0 1 67.9 159.218L61.857 100" stroke="#000" stroke-width="12" stroke-linecap="round" stroke-linejoin="round"/></svg>