<svg xmlns="http://www.w3.org/2000/svg" width="192" height="192" fill="none" viewBox="0 0 192 192"><path stroke="#000" stroke-linecap="round" stroke-linejoin="round" stroke-miterlimit="6" stroke-width="10" d="M145.224 137.103a2.884 2.884 0 0 1 5.552 0l2.248 7.215c.391 1.253 1.512 2.102 2.776 2.102h7.276c2.827 0 4.003 3.773 1.715 5.506l-5.886 4.459c-1.023.775-1.451 2.149-1.06 3.403l2.248 7.214c.874 2.804-2.204 5.136-4.492 3.403l-5.885-4.459a2.824 2.824 0 0 0-3.432 0l-5.885 4.459c-2.288 1.733-5.366-.599-4.492-3.403l2.248-7.214c.391-1.254-.037-2.628-1.06-3.403l-5.886-4.459c-2.288-1.733-1.112-5.506 1.715-5.506h7.276c1.264 0 2.385-.849 2.776-2.102z"/><path stroke="#000" stroke-linecap="round" stroke-linejoin="round" stroke-width="12" d="m51 156-8 14m21-71 25 24 44-43M72.814 35.992a24 24 0 0 0-11.2-11.517 23.999 23.999 0 0 0-24.736 40.93m35.936-29.413A68.9 68.9 0 0 1 96 32a68.9 68.9 0 0 1 23.186 3.992m-46.372 0C57.713 41.38 45.04 51.878 36.878 65.405m0 0C30.608 75.798 27 87.978 27 101c0 38.108 30.892 69 69 69a69 69 0 0 0 20.5-3.096m38.622-101.499a24.002 24.002 0 0 0-11.77-43.29 24 24 0 0 0-24.166 13.877m35.936 29.413C161.392 75.798 165 87.978 165 101a69 69 0 0 1-2.943 20m-6.935-55.595c-8.162-13.527-20.835-24.026-35.936-29.413"/></svg>