<svg xmlns="http://www.w3.org/2000/svg" width="192" height="192" fill="none"><path stroke="#000" stroke-linecap="round" stroke-linejoin="round" stroke-width="10" d="m140 70-26-21-57 20m83 1L81 95m59-25-5 29-54 27M57 69l24 26M57 69l2 30 22 27m0-31v31"/><path stroke="#000" stroke-linecap="round" stroke-width="10" d="m27 97 99 70M25 140l26-23m54 34 62-53m-26 25 24 21"/><path stroke="#000" stroke-linecap="round" stroke-linejoin="round" stroke-width="12" d="M161 25H31a6 6 0 0 0-6 6v130a6 6 0 0 0 6 6h130a6 6 0 0 0 6-6V31a6 6 0 0 0-6-6"/></svg>