<svg xmlns="http://www.w3.org/2000/svg" width="192" height="192" fill="none"><path stroke="#000" stroke-linecap="round" stroke-linejoin="round" stroke-width="12" d="m38 134 33-9-3 9s44.609-7.043 84.361-4.942m-14.953-27.076L96 27l-44.594 80.752m86.002-5.77 14.953 27.076m-14.953-27.076c-5.508.219-10.857.536-15.908.907m-70.094 4.863L22 161l33-9-3 9s76-12 118 0l-16.296-29.509-1.343-2.433M51.406 107.752l18.709-5.126"/><path stroke="#000" stroke-linecap="round" stroke-linejoin="round" stroke-width="10" d="m96 87 2.02 6.219h6.54l-5.29 3.843 2.02 6.219L96 99.438l-5.29 3.843 2.02-6.219-5.29-3.843h6.54z"/></svg>