<svg xmlns="http://www.w3.org/2000/svg" width="192" height="192" viewBox="0 -960 7680 7680"><path fill="none" stroke="#000" stroke-linecap="round" stroke-linejoin="round" stroke-width="480.008" d="M886.004 5678.411h5250.215zm1303.554-992.396q-535.828-2.115-918.86-382.198a1865 1865 0 0 1-8.485-8.485q-380.083-383.03-382.197-918.859c-.013-3.314-.012-8.686-.012-12V153.714a72.125 72.125 135 0 1 72.125-72.125h5184.09c3.314 0 8.686-.003 12 .023q264.499 2.093 454.296 188.972a935 935 0 0 1 8.485 8.485q186.88 189.798 188.972 454.297c.026 3.313.024 8.686.024 12v974.665c0 3.314 0 8.686-.024 12q-2.093 264.498-188.972 454.296a935 935 0 0 1-8.485 8.485q-189.797 186.88-454.296 188.972c-3.314.026-8.686-.024-12-.031-44.561-.082-326.259 5-470.272 143.534a397 397 0 0 0-8.49 8.48c-214.338 221.816-178.453 765.733-173.51 828.726.259 3.304.496 8.666.483 11.98q-1.902 482.128-309.81 840.55c-47.187 40.536-118.645 111.994-159.181 159.18q-358.423 307.909-840.55 309.812c-3.314.013-8.687.012-12 .012H2201.557c-3.314 0-8.686 0-12-.012z"/></svg>