<?xml version="1.0" encoding="UTF-8" standalone="no"?>
<svg
   height="192"
   viewBox="0 -960 7680 7680"
   width="192"
   version="1.1"
   id="svg1"
   xmlns="http://www.w3.org/2000/svg"
   xmlns:svg="http://www.w3.org/2000/svg">
  <defs
     id="defs1" />
  <path
     d="M 886.00398,5678.4114 H 6136.2192 a 0,0 0 0 1 0,0 H 886.00398 a 0,0 0 0 1 0,0 z M 2189.5578,4686.0149 c -357.2186,-1.4097 -663.5046,-128.8087 -918.8592,-382.1976 -2.3522,-2.334 -6.1512,-6.133 -8.4852,-8.4852 -253.3887,-255.3545 -380.78793,-561.6408 -382.19759,-918.8591 -0.0131,-3.3137 -0.0118,-8.6863 -0.0118,-12 l 0,-3210.75901 A 72.125461,72.125461 135 0 1 952.12944,81.588529 H 6136.2192 c 3.3137,0 8.6863,-0.0025 11.9999,0.0237 176.3325,1.395017 327.7643,64.385695 454.2959,188.971985 2.3612,2.32492 6.1603,6.12397 8.4852,8.4852 124.5863,126.53171 187.5771,277.96374 188.9721,454.29614 0.026,3.3136 0.024,8.68623 0.024,11.99994 v 974.66541 c 0,3.3137 0,8.6863 -0.024,11.9999 -1.395,176.3325 -64.3858,327.7643 -188.9721,454.2958 -2.3249,2.3612 -6.124,6.1603 -8.4852,8.4852 -126.5316,124.5864 -277.9634,187.5772 -454.2959,188.9722 -3.3136,0.026 -8.6859,-0.024 -11.9996,-0.031 -44.5615,-0.082 -326.2594,5.0005 -470.2723,143.5343 -2.3879,2.2971 -6.1866,6.0968 -8.4893,8.4797 -214.3391,221.8156 -178.4537,765.7332 -173.5112,828.7263 0.2592,3.3035 0.4967,8.6657 0.4837,11.9794 -1.2684,321.4184 -104.5387,601.6019 -309.8112,840.5507 -47.1862,40.536 -118.6442,111.994 -159.1802,159.1802 -238.9487,205.2724 -519.1323,308.5426 -840.5505,309.811 -3.3137,0.013 -8.6863,0.012 -12,0.012 H 2201.5578 c -3.3137,0 -8.6863,0 -12,-0.012 z"
     id="path1"
     style="fill:none;stroke:#000000;stroke-width:480.008;stroke-linecap:round;stroke-linejoin:round;stroke-dasharray:none;stroke-opacity:1" />
</svg>
