<svg xmlns="http://www.w3.org/2000/svg" xml:space="preserve" viewBox="0 0 192 192"><path d="M72.1 67.7c-.3 0-.6 0-.9.1-2.9.5-5 3.8-4.2 6.8.6 2.4 2.9 4.1 5.2 4.1.6 0 1.2-.1 1.8-.3 2.5-.9 4.1-3.9 3.3-6.5-.6-2.5-2.8-4.2-5.2-4.2z"/><path fill="none" stroke="#000" stroke-linecap="round" stroke-linejoin="round" stroke-miterlimit="10" stroke-width="8" d="M46.4 83.7s5.4-2.6 8-8.7c.8-1.9 4.8-16.7 15.7-21.7s21.7-1.2 26.1 2.9c5.3 5 9 12.1 15.1 15.2 6.7 3.4 13.2 3.5 25.1-.1 6.6-2 18.5-10.1 21.1-13.3 3.6-4.4 7.6-9.8 7.6-9.8s.9 9.7.6 14.3c-.4 6.2-3 14.5-7 20.8-2.4 3.7-7.2 8.6-11 11.3-2.8 2-7.4 3.8-7.6 8.4-.2 4.2 1.8 9.1 8 12.6 3.7 2.1 8.7 4.2 12.8 5.4 5.1 1.5 11.3 1.7 11.3 1.7s-8.1 5.3-18.5 9c-7.2 2.6-20.8 5-33.2 3.5-14.2-1.7-28.3-6.4-38.2-17.5-9.3-10-16.9-20.3-21.5-26.7-4.3-5.8-14.4-7.3-14.4-7.3h0z"/><path fill="none" stroke="#000" stroke-linecap="round" stroke-linejoin="round" stroke-miterlimit="10" stroke-width="8" d="M124.2 65.2c4.6-1.8 9.2-3.7 13.2-6.7 4.3-3.2 9.1-7.7 10.1-10.2m-90.7 64.6c1.7 3 3.5 6.4 3.8 9.5.5 6.2-2.6 12.6-7.5 16.7-3.5 3-8.2 4.7-12.9 4.7-1.6 0-3.2-.2-4.8-.6-5.4-1.3-10.3-5.2-13-10.4-1.7-3.3-2.8-7-2.4-10.5.3-3.4 2.4-7.1 4.4-10.5 4-6.5 9-13 15.8-20.4 6.2 6.6 12.1 13.7 16.6 21.5 0 0 0 0 0 0z"/></svg>