<svg xmlns="http://www.w3.org/2000/svg" width="192" height="192" fill="none" stroke="#000" stroke-linecap="round" stroke-width="12" viewBox="0 0 192 192"><path d="m135 56-14.243-23.145a6 6 0 0 0-5.11-2.855H76.482a6 6 0 0 0-5.21 3.023L50.743 68.95a6 6 0 0 0 .065 6.064L76 117"/><path d="M118.88 162h24.518a6 6 0 0 0 5.209-3.023l20.53-35.926a6 6 0 0 0-.065-6.064l-20.444-34.074A6 6 0 0 0 143.483 80H96.88"/><path d="m116 117-24.268 42.002A6 6 0 0 1 86.537 162H48.482a6 6 0 0 1-5.21-3.023L22.72 123.008a6 6 0 0 1 .026-6L35 96"/></svg>