<svg xmlns="http://www.w3.org/2000/svg" width="192" height="192" fill="none" viewBox="0 0 192 192"><path stroke="#000" stroke-linecap="round" stroke-linejoin="round" stroke-width="12" d="M81 78.676c0-4.68 5.121-7.559 9.12-5.125l28.46 17.324c3.84 2.338 3.84 7.912 0 10.25l-28.46 17.324c-3.999 2.434-9.12-.444-9.12-5.125zm28.509-51.111a19.1 19.1 0 0 0-27.018 0M43.16 50.147a19.2 19.2 0 0 0-6.686 3.28A19 19 0 0 0 31.56 59a18.9 18.9 0 0 0-1.909 14.418m132.698 0a19 19 0 0 0-6.824-19.992 19.1 19.1 0 0 0-6.685-3.279m-39.331 114.288a19.19 19.19 0 0 1-27.018 0m79.858-45.853a19 19 0 0 1-6.824 19.992 19.2 19.2 0 0 1-6.685 3.279m-105.68 0a19.2 19.2 0 0 1-6.685-3.279A19 19 0 0 1 31.56 133a18.9 18.9 0 0 1-1.909-14.417m-.007-45.164c3.18 9.401 7.19 14.596 7.03 22.581.16 7.985-3.85 13.18-7.03 22.581m132.717-45.162c-3.181 9.401-7.19 14.596-7.03 22.581-.16 7.985 3.849 13.18 7.03 22.581M82.486 27.56C75.889 35 73.874 40.645 66.84 44.5c-6.874 4.13-13.905 3.68-23.682 5.64m66.356-22.58c6.597 7.44 8.613 13.085 15.646 16.94 6.874 4.13 13.905 3.68 23.682 5.64M82.486 164.442c-6.597-7.44-8.613-13.085-15.646-16.94-6.874-4.131-13.905-3.68-23.682-5.641m66.356 22.581c6.597-7.44 8.613-13.085 15.646-16.94 6.874-4.131 13.905-3.68 23.682-5.641"/></svg>