<svg xmlns="http://www.w3.org/2000/svg" width="192" height="192" fill="none"><path stroke="#000" stroke-linecap="round" stroke-linejoin="round" stroke-width="12" d="M25 41c0-8.837 7.163-16 16-16h110c8.837 0 16 7.163 16 16v110c0 8.837-7.163 16-16 16H41c-8.837 0-16-7.163-16-16zm71-16v142M25 96h142"/><path stroke="#000" stroke-linecap="round" stroke-linejoin="round" stroke-width="10" d="M61 47v28M47 61h28m66-13-19 26m-5 48h28m-28 18h28m-70-23-14 14m0 0-14 14m14-14-14-14m14 14 14 14"/><circle cx="117" cy="48" r="3" stroke="#000" stroke-linecap="round" stroke-linejoin="round" stroke-width="6"/><circle cx="146" cy="74" r="3" stroke="#000" stroke-linecap="round" stroke-linejoin="round" stroke-width="6"/></svg>