<svg width="192" height="192" viewBox="0 0 192 192" fill="none" xmlns="http://www.w3.org/2000/svg">
<path d="M79 127.177C73.5273 130.337 67.3193 132 61 132C54.6807 132 48.4727 130.337 43 127.177C37.5273 124.017 32.9827 119.473 29.8231 114C26.6634 108.527 25 102.319 25 96C25 89.6807 26.6634 83.4727 29.8231 78C32.9827 72.5273 37.5273 67.9827 43 64.8231C48.4727 61.6634 54.6807 60 61 60C67.3193 60 73.5273 61.6634 79 64.8231" stroke="black" stroke-width="12" stroke-linecap="round"/>
<path d="M167 60L167 132" stroke="black" stroke-width="12" stroke-linecap="round"/>
<path d="M144 84L144 132M144 108C144 121.255 133.255 132 120 132C106.745 132 96 121.255 96 108C96 94.7452 106.745 84 120 84C133.255 84 144 94.7452 144 108Z" stroke="black" stroke-width="12" stroke-linecap="round"/>
</svg>
