<svg xmlns="http://www.w3.org/2000/svg" width="192" height="192" viewBox="0 0 192 192"><g fill="none" stroke="#000" stroke-linecap="round" stroke-width="6.391"><path d="M105.52 96.115h18.58m-9.175-10.896v20.645M135.226 96h18.58m-9.176-10.896v20.645m-34.66 25.325a46.5 46.5 0 0 1-64.124-67.329 46.5 46.5 0 0 1 65.066-.462" transform="matrix(1.24937 0 0 1.25404 -20.154 -25.515)"/><path d="M98.293 119.899a29.718 30.269 0 0 1-40.981-43.828 29.718 30.269 0 0 1 41.583-.301m11.213-11.54-11.24 11.469m.229 43.355 10.322 11.47" transform="matrix(1.24937 0 0 1.25404 -20.154 -25.515)"/></g></svg>