<svg width="192" height="192" viewBox="0 0 192 192" fill="none" xmlns="http://www.w3.org/2000/svg">
<path d="M79 128.909C73.2233 132.244 66.6704 134 60 134C53.3296 134 46.7767 132.244 41 128.909C35.2233 125.574 30.4262 120.777 27.091 115C23.7558 109.223 22 102.67 22 96C22 89.3296 23.7558 82.7767 27.091 77C30.4262 71.2233 35.2233 66.4262 41 63.091C46.7767 59.7558 53.3296 58 60 58C66.6704 58 73.2233 59.7558 79 63.091" stroke="black" stroke-width="12" stroke-linecap="round"/>
<path d="M170 58L170 134" stroke="black" stroke-width="12" stroke-linecap="round"/>
<path d="M147 83L147 134M147 108.5C147 122.583 135.583 134 121.5 134C107.417 134 96 122.583 96 108.5C96 94.4167 107.417 83 121.5 83C135.583 83 147 94.4167 147 108.5Z" stroke="black" stroke-width="12" stroke-linecap="round"/>
</svg>
