<?xml version="1.0" encoding="UTF-8" standalone="no"?>
<svg
   width="24"
   height="24"
   viewBox="0 0 24 24"
   fill="none"
   version="1.1"
   id="svg6"
   sodipodi:docname="calculator.svg"
   inkscape:version="1.1.1 (3bf5ae0d25, 2021-09-20)"
   xmlns:inkscape="http://www.inkscape.org/namespaces/inkscape"
   xmlns:sodipodi="http://sodipodi.sourceforge.net/DTD/sodipodi-0.dtd"
   xmlns="http://www.w3.org/2000/svg"
   xmlns:svg="http://www.w3.org/2000/svg">
  <defs
     id="defs10">
    <inkscape:path-effect
       effect="fillet_chamfer"
       id="path-effect10206"
       is_visible="true"
       lpeversion="1"
       satellites_param="F,0,0,1,0,2,0,1 @ F,0,0,1,0,2,0,1 @ F,0,0,1,0,2,0,1 @ F,0,0,1,0,2,0,1 @ F,0,0,1,0,0,0,1 @ F,0,0,1,0,0,0,1 @ F,0,0,1,0,0,0,1 @ F,0,1,1,0,0,0,1"
       unit="px"
       method="auto"
       mode="F"
       radius="0"
       chamfer_steps="1"
       flexible="false"
       use_knot_distance="true"
       apply_no_radius="true"
       apply_with_radius="true"
       only_selected="true"
       hide_knots="false" />
    <inkscape:path-effect
       effect="fillet_chamfer"
       id="path-effect3719"
       is_visible="true"
       lpeversion="1"
       satellites_param="F,0,0,1,0,0,0,1 @ F,0,0,1,0,2,0,1 @ F,0,0,1,0,2,0,1 @ IF,0,0,1,0,0,0,1 @ IF,0,0,1,0,0,0,1 @ IF,0,0,1,0,0,0,1 @ IF,0,0,1,0,0,0,1 @ F,0,0,1,0,0,0,1 @ F,0,1,1,0,1.804331,0,1 @ F,0,1,1,0,0,0,1"
       unit="px"
       method="auto"
       mode="F"
       radius="2"
       chamfer_steps="1"
       flexible="false"
       use_knot_distance="true"
       apply_no_radius="true"
       apply_with_radius="true"
       only_selected="true"
       hide_knots="false" />
    <inkscape:path-effect
       effect="bspline"
       id="path-effect3717"
       is_visible="true"
       lpeversion="1"
       weight="33.333333"
       steps="2"
       helper_size="0"
       apply_no_weight="true"
       apply_with_weight="true"
       only_selected="false" />
  </defs>
  <sodipodi:namedview
     id="namedview8"
     pagecolor="#ffffff"
     bordercolor="#666666"
     borderopacity="1.0"
     inkscape:pageshadow="2"
     inkscape:pageopacity="0.0"
     inkscape:pagecheckerboard="0"
     showgrid="true"
     objecttolerance="20"
     guidetolerance="10000"
     inkscape:zoom="11.313709"
     inkscape:cx="-3.9774756"
     inkscape:cy="15.423767"
     inkscape:window-width="2560"
     inkscape:window-height="1015"
     inkscape:window-x="0"
     inkscape:window-y="32"
     inkscape:window-maximized="1"
     inkscape:current-layer="svg6">
    <inkscape:grid
       type="xygrid"
       id="grid358"
       empspacing="1" />
  </sodipodi:namedview>
  <path
     id="path"
     d="m 16.764706,3.0000001 c -2.338941,0 -4.235294,1.8963529 -4.235294,4.235294 0,2.3389412 1.896353,4.2352939 4.235294,4.2352939 C 19.103647,11.470588 21,9.5742353 21,7.2352941 21,4.896353 19.103647,3.0000001 16.764706,3.0000001 Z m -1.122353,6.1067646 -0.749118,-0.7485882 1.122883,-1.1228824 -1.122883,-1.1234117 0.748588,-0.7485882 1.123412,1.1234117 1.122883,-1.1234117 0.749117,0.7485882 -1.123412,1.1234117 1.122883,1.1228824 -0.748588,0.7485882 -1.122883,-1.1228823 z"
     fill="none"
     fill-rule="evenodd"
     style="fill:#000000;stroke-width:0.529412" />
  <path
     id="path_1"
     d="m 7.2352941,3.0000001 c -2.3389411,0 -4.235294,1.8963529 -4.235294,4.235294 0,2.3389412 1.8963529,4.2352939 4.235294,4.2352939 2.3389412,0 4.2352939,-1.8963527 4.2352939,-4.2352939 0,-2.3389411 -1.8963527,-4.235294 -4.2352939,-4.235294 z M 9.3529412,7.7647059 V 6.7058824 H 5.1176471 v 1.0588235 z"
     fill="none"
     fill-rule="evenodd"
     style="fill:#000000;stroke-width:0.529412" />
  <path
     id="path_2"
     d="m 7.2352941,12.529412 c -2.3389411,0 -4.235294,1.896353 -4.235294,4.235294 0,2.338941 1.8963529,4.235294 4.235294,4.235294 2.3389412,0 4.2352939,-1.896353 4.2352939,-4.235294 0,-2.338941 -1.8963527,-4.235294 -4.2352939,-4.235294 z m 0.5294118,4.764706 v 1.588235 H 6.7058824 V 17.294118 H 5.1176471 v -1.058824 h 1.5882353 v -1.588235 h 1.0588235 v 1.588235 h 1.5882353 v 1.058824 z"
     fill="none"
     fill-rule="evenodd"
     style="fill:#000000;stroke-width:0.529412" />
  <path
     id="path_3"
     d="m 16.764706,12.529412 c -2.338941,0 -4.235294,1.896353 -4.235294,4.235294 C 12.529412,19.103647 14.425765,21 16.764706,21 19.103647,21 21,19.103647 21,16.764706 21,14.425765 19.103647,12.529412 16.764706,12.529412 Z m 2.117647,2.647059 v 1.058823 h -4.235294 v -1.058823 z m 0,2.117647 v 1.058823 h -4.235294 v -1.058823 z"
     fill="none"
     fill-rule="evenodd"
     style="fill:#000000;stroke-width:0.529412" />
</svg>
