<?xml version="1.0" encoding="UTF-8" standalone="no"?>
<svg
   width="192"
   height="192"
   viewBox="0 0 192 192"
   fill="none"
   version="1.1"
   id="svg40162"
   inkscape:version="1.2.1 (9c6d41e410, 2022-07-14)"
   sodipodi:docname="calendar.svg"
   xmlns:inkscape="http://www.inkscape.org/namespaces/inkscape"
   xmlns:sodipodi="http://sodipodi.sourceforge.net/DTD/sodipodi-0.dtd"
   xmlns="http://www.w3.org/2000/svg"
   xmlns:svg="http://www.w3.org/2000/svg">
  <defs
     id="defs40166" />
  <sodipodi:namedview
     id="namedview40164"
     pagecolor="#ffffff"
     bordercolor="#000000"
     borderopacity="0.25"
     inkscape:showpageshadow="2"
     inkscape:pageopacity="0.0"
     inkscape:pagecheckerboard="0"
     inkscape:deskcolor="#d1d1d1"
     showgrid="false"
     inkscape:zoom="2.8578899"
     inkscape:cx="78.554461"
     inkscape:cy="103.92283"
     inkscape:window-width="1920"
     inkscape:window-height="974"
     inkscape:window-x="-11"
     inkscape:window-y="-11"
     inkscape:window-maximized="1"
     inkscape:current-layer="svg40162" />
  <g
     id="g42157"
     transform="translate(16,16)">
    <g
       id="g42125">
      <path
         style="fill:none;stroke:#000000;stroke-width:12;stroke-linecap:round;stroke-linejoin:round;stroke-dasharray:none;stroke-opacity:1"
         d="M 118,154 H 6 V 6 h 148 v 112"
         id="path6291"
         sodipodi:nodetypes="ccccc" />
    </g>
    <path
       fill="#4285f4"
       d="M 60.497336,98.832332 C 57.841918,97.048021 56.003551,94.442231 55,90.997286 l 6.163411,-2.526295 c 0.559502,2.11997 1.536411,3.762943 2.930729,4.92892 1.385435,1.165983 3.072822,1.740141 5.044405,1.740141 2.015986,0 3.74778,-0.609488 5.195382,-1.828474 1.447603,-1.218979 2.175843,-2.77362 2.175843,-4.65509 0,-1.925632 -0.763764,-3.497938 -2.291296,-4.716918 -1.527532,-1.218981 -3.445827,-1.828468 -5.737123,-1.828468 H 64.920072 V 76.0427 h 3.197158 c 1.971581,0 3.632327,-0.529992 4.982238,-1.589974 1.349912,-1.059982 2.024868,-2.508621 2.024868,-4.354756 0,-1.642975 -0.603909,-2.950285 -1.811724,-3.930771 -1.207815,-0.980482 -2.735346,-1.47514 -4.591475,-1.47514 -1.811722,0 -3.250444,0.476991 -4.316163,1.439808 a 8.4973358,8.4515919 0 0 0 -2.326822,3.542107 l -6.101243,-2.526289 c 0.808172,-2.278962 2.291297,-4.29293 4.467142,-6.033066 2.175843,-1.740138 4.955594,-2.614623 8.330373,-2.614623 2.49556,0 4.742451,0.476993 6.731795,1.439809 1.989345,0.962818 3.5524,2.296629 4.680287,3.992599 1.127882,1.704806 1.687389,3.612773 1.687389,5.732739 0,2.164131 -0.523981,3.992599 -1.571939,5.49424 -1.047955,1.501641 -2.3357,2.649956 -3.86323,3.453776 v 0.362157 a 11.731795,11.668638 0 0 1 4.955594,3.842437 c 1.287744,1.722474 1.936056,3.780604 1.936056,6.18323 0,2.402632 -0.612787,4.549095 -1.838362,6.430566 -1.225582,1.881472 -2.92185,3.365445 -5.07105,4.443085 -2.158085,1.077656 -4.582597,1.625306 -7.273538,1.625306 -3.11723,0.009 -5.994672,-0.88332 -8.65009,-2.667608 z M 98.357016,68.41083 91.5897,73.277912 88.206044,68.172334 100.34636,59.462812 H 105 v 41.083148 h -6.642984 z"
       id="path16"
       style="fill:#000000;fill-opacity:1;stroke-width:0.999993" />
    <path
       style="fill:none;stroke:#000000;stroke-width:12;stroke-linecap:round;stroke-linejoin:round;stroke-dasharray:none;stroke-opacity:1"
       d="m 42,42 h 76 v 76 H 42 Z"
       id="path15763"
       sodipodi:nodetypes="ccccc" />
    <path
       style="fill:none;stroke:#000000;stroke-width:12;stroke-linecap:round;stroke-linejoin:round;stroke-dasharray:none;stroke-opacity:1"
       d="m 42,118 v 36"
       id="path25987"
       sodipodi:nodetypes="cc" />
    <path
       style="fill:none;stroke:#000000;stroke-width:12;stroke-linecap:round;stroke-linejoin:round;stroke-dasharray:none;stroke-opacity:1"
       d="m 118,118 h 36"
       id="path26715"
       sodipodi:nodetypes="cc" />
    <path
       style="fill:none;stroke:#000000;stroke-width:12;stroke-linecap:round;stroke-linejoin:round;stroke-dasharray:none;stroke-opacity:1"
       d="M 42,118 H 6"
       id="path33251"
       sodipodi:nodetypes="cc" />
    <path
       style="fill:none;stroke:#000000;stroke-width:12;stroke-linecap:round;stroke-linejoin:round;stroke-dasharray:none;stroke-opacity:1"
       d="M 118,42 V 6"
       id="path34705"
       sodipodi:nodetypes="cc" />
    <path
       style="fill:none;stroke:#000000;stroke-width:12;stroke-linecap:round;stroke-linejoin:round;stroke-dasharray:none;stroke-opacity:1"
       d="m 118,118 v 36"
       id="path36885"
       sodipodi:nodetypes="cc" />
    <path
       style="fill:none;stroke:#000000;stroke-width:12;stroke-linecap:round;stroke-linejoin:round;stroke-dasharray:none;stroke-opacity:1"
       d="m 118,42 h 36"
       id="path36887"
       sodipodi:nodetypes="cc" />
    <path
       style="fill:none;stroke:#000000;stroke-width:12;stroke-linecap:round;stroke-linejoin:round;stroke-dasharray:none;stroke-opacity:1"
       d="m 118,154 36,-36"
       id="path37615"
       sodipodi:nodetypes="cc" />
  </g>
</svg>
