<svg xmlns="http://www.w3.org/2000/svg" width="192" height="192" fill="none" stroke="#000" stroke-linecap="round" stroke-width="12" viewBox="0 0 192 192"><path d="M82 22h28m40 0h14a6 6 0 0 1 6 6v136a6 6 0 0 1-6 6H28a6 6 0 0 1-6-6V28a6 6 0 0 1 6-6h14"/><path d="M82 22a20 20 0 0 1-40 0m108 0a19.993 19.993 0 0 1-10 17.32A19.998 19.998 0 0 1 112.68 32 19.993 19.993 0 0 1 110 22m0 106h30m-15-52v52m0-52-15 10m-41 17c2.633 0 5.22-.601 7.5-1.742 2.28-1.141 4.174-2.782 5.49-4.758C83.307 94.524 84 92.282 84 90s-.693-4.524-2.01-6.5c-1.316-1.976-3.21-3.617-5.49-4.758C74.22 77.6 71.633 77 69 77s-5.22.6-7.5 1.742c-2.28 1.14-4.174 2.782-5.49 4.758m0 39c1.316 1.976 3.21 3.617 5.49 4.758C63.78 128.399 66.367 129 69 129s5.22-.601 7.5-1.742c2.28-1.141 4.174-2.782 5.49-4.758 1.317-1.976 2.01-4.218 2.01-6.5s-.693-4.524-2.01-6.5c-1.316-1.976-3.21-3.617-5.49-4.758C74.22 103.601 71.633 103 69 103"/></svg>