<svg
    xmlns="http://www.w3.org/2000/svg"
    viewBox="0 0 192 192"
    id="vector">
    <path
        id="path_2"
        d="M 146 30 L 46 30 C 37.163 30 30 37.163 30 46 L 30 146 C 30 154.837 37.163 162 46 162 L 121.373 162 C 125.616 162 129.686 160.314 132.686 157.314 L 157.314 132.686 C 160.314 129.686 162 125.616 162 121.373 L 162 46 C 162 37.163 154.837 30 146 30 Z"
        fill="#00000000"
        stroke="#000000"
        stroke-width="12"/>
    <path
        id="path_3"
        d="M 73.924 120.792 C 71.38 120.792 68.788 120.504 66.148 119.928 C 63.556 119.352 61.3 118.488 59.38 117.336 C 57.844 116.52 56.884 115.512 56.5 114.312 C 56.116 113.064 56.164 111.912 56.644 110.856 C 57.172 109.8 58.012 109.056 59.164 108.624 C 60.316 108.144 61.636 108.264 63.124 108.984 C 64.996 109.896 66.772 110.544 68.452 110.928 C 70.132 111.312 71.812 111.504 73.492 111.504 C 79.348 111.504 82.276 109.32 82.276 104.952 C 82.276 100.92 79.54 98.904 74.068 98.904 L 69.82 98.904 C 68.236 98.904 67.012 98.52 66.148 97.752 C 65.332 96.936 64.924 95.832 64.924 94.44 C 64.924 93 65.332 91.896 66.148 91.128 C 67.012 90.312 68.236 89.904 69.82 89.904 L 72.988 89.904 C 75.388 89.904 77.284 89.352 78.676 88.248 C 80.068 87.144 80.764 85.608 80.764 83.64 C 80.764 79.704 78.196 77.736 73.06 77.736 C 71.476 77.736 69.94 77.928 68.452 78.312 C 67.012 78.648 65.428 79.272 63.7 80.184 C 62.356 80.856 61.156 80.976 60.1 80.544 C 59.044 80.112 58.252 79.368 57.724 78.312 C 57.244 77.256 57.148 76.152 57.436 75 C 57.724 73.848 58.564 72.888 59.956 72.12 C 64.132 69.672 68.836 68.448 74.068 68.448 C 79.54 68.448 83.812 69.672 86.884 72.12 C 89.956 74.568 91.492 77.928 91.492 82.2 C 91.492 84.84 90.82 87.168 89.476 89.184 C 88.132 91.2 86.26 92.664 83.86 93.576 C 86.74 94.392 88.972 95.904 90.556 98.112 C 92.188 100.272 93.004 102.888 93.004 105.96 C 93.004 110.568 91.3 114.192 87.892 116.832 C 84.484 119.472 79.828 120.792 73.924 120.792 Z M 106.584 120 C 103.416 120 101.832 118.464 101.832 115.392 C 101.832 112.368 103.416 110.856 106.584 110.856 L 113.856 110.856 L 113.856 81.624 L 108.6 84.792 C 107.208 85.608 105.96 85.824 104.856 85.44 C 103.752 85.056 102.912 84.336 102.336 83.28 C 101.76 82.224 101.592 81.096 101.832 79.896 C 102.072 78.648 102.864 77.592 104.208 76.728 L 114.216 70.68 C 115.224 70.056 116.232 69.552 117.24 69.168 C 118.296 68.784 119.328 68.592 120.336 68.592 C 121.776 68.592 122.904 68.976 123.72 69.744 C 124.584 70.512 125.016 71.64 125.016 73.128 L 125.016 110.856 L 131.568 110.856 C 134.688 110.856 136.248 112.368 136.248 115.392 C 136.248 118.464 134.688 120 131.568 120 L 106.584 120 Z"
        fill="#000000"/>
</svg>
