<svg xmlns="http://www.w3.org/2000/svg" width="192" height="192" fill="none"><path stroke="#000" stroke-linecap="round" stroke-linejoin="round" stroke-width="12" d="M43 28a6 6 0 0 1 6-6h94a6 6 0 0 1 6 6v136a6 6 0 0 1-6 6H49a6 6 0 0 1-6-6z"/><path stroke="#000" stroke-linecap="round" stroke-linejoin="round" stroke-width="12" d="M96 128v-17.455m0 0s-7.733 4.849-14.5 4.849S67 110.545 67 99.879C67 83.394 89.233 73.697 96 64c6.767 9.697 29 19.394 29 35.879 0 10.666-7.733 15.515-14.5 15.515S96 110.545 96 110.545"/></svg>