<svg width="192" height="192" viewBox="0 0 192 192" fill="none" xmlns="http://www.w3.org/2000/svg"><circle cx="96" cy="101" r="28" stroke="#000" stroke-width="12" stroke-linecap="round" stroke-linejoin="round"/><path d="M38 157a16.002 16.002 0 0 1-16-16m0-76a16 16 0 0 1 16-16m132 92a16.002 16.002 0 0 1-16 16m0-108a16.001 16.001 0 0 1 16 16M22 65v76m148-76v76M38 157h116M38 49h19a6 6 0 0 0 4.8-2.4l8.4-11.2A6 6 0 0 1 75 33h42a6 6 0 0 1 4.8 2.4l8.4 11.2A6 6 0 0 0 135 49h19" stroke="#000" stroke-width="12" stroke-linecap="round" stroke-linejoin="round"/></svg>