<?xml version="1.0" encoding="UTF-8" standalone="no"?>
<svg
   width="192"
   height="192"
   viewBox="0 0 192 192"
   fill="none"
   version="1.1"
   id="svg68393"
   inkscape:version="1.2.1 (9c6d41e410, 2022-07-14)"
   sodipodi:docname="cameraconnect.svg"
   xmlns:inkscape="http://www.inkscape.org/namespaces/inkscape"
   xmlns:sodipodi="http://sodipodi.sourceforge.net/DTD/sodipodi-0.dtd"
   xmlns="http://www.w3.org/2000/svg"
   xmlns:svg="http://www.w3.org/2000/svg">
  <defs
     id="defs68397" />
  <sodipodi:namedview
     id="namedview68395"
     pagecolor="#ffffff"
     bordercolor="#000000"
     borderopacity="0.25"
     inkscape:showpageshadow="2"
     inkscape:pageopacity="0.0"
     inkscape:pagecheckerboard="0"
     inkscape:deskcolor="#d1d1d1"
     showgrid="false"
     inkscape:zoom="4.3177083"
     inkscape:cx="84.303981"
     inkscape:cy="96.115802"
     inkscape:window-width="1920"
     inkscape:window-height="1009"
     inkscape:window-x="-8"
     inkscape:window-y="-8"
     inkscape:window-maximized="1"
     inkscape:current-layer="svg68393" />
  <g
     id="g68008"
     transform="translate(15.999994,15.999994)">
    <g
       id="g4045"
       transform="matrix(0.875,0,0,0.875,6,16.5)"
       style="stroke-width:1.14285">
      <path
         d="m 60,50 v 6 c 1.8885,0 3.6669,-0.8892 4.8,-2.4 z M 72,34 v -6 c -1.8885,0 -3.6669,0.8892 -4.8,2.4 z m 60,16 -4.8,3.6 c 1.133,1.5108 2.911,2.4 4.8,2.4 z m -12,-16 4.8,-3.6 C 123.667,28.8892 121.889,28 120,28 Z m 44,32 v 76 h 12 V 66 Z m -10,86 H 38 v 12 H 154 Z M 28,142 V 66 H 16 v 76 z M 38,56 H 60 V 44 H 38 Z m 26.8,-2.4 12,-16 -9.6,-7.2 -12,16 z M 132,56 h 22 V 44 h -22 z m 4.8,-9.6 -12,-16 -9.6,7.2 12,16 z M 120,28 H 72 v 12 h 48 z M 38,152 c -5.5228,0 -10,-4.477 -10,-10 H 16 c 0,12.15 9.8497,22 22,22 z m 126,-10 c 0,5.523 -4.477,10 -10,10 v 12 c 12.15,0 22,-9.85 22,-22 z m 12,-76 c 0,-12.1503 -9.85,-22 -22,-22 v 12 c 5.523,0 10,4.4772 10,10 z M 28,66 C 28,60.4772 32.4772,56 38,56 V 44 C 25.8497,44 16,53.8497 16,66 Z"
         fill="#000000"
         id="path733"
         style="stroke-width:1.55428" />
      <circle
         cx="96"
         cy="102"
         r="28"
         stroke="#000000"
         stroke-width="13.7143"
         id="circle735" />
    </g>
    <g
       id="g5984"
       style="display:inline;stroke-width:1.2395"
       transform="matrix(2.1316826,2.1316826,-2.1808408,2.1808408,-6.1259182,-82.25747)">
      <path
         style="fill:none;stroke:#000000;stroke-width:3.93543;stroke-linecap:round;stroke-linejoin:round;stroke-miterlimit:4;stroke-dasharray:none;stroke-opacity:1"
         d="m 26.804342,14.26968 c 0,0 1.061134,0.942869 1.065635,3.163558 0.0045,2.220689 -1.065635,3.206348 -1.065635,3.206348"
         id="path1254"
         sodipodi:nodetypes="czc" />
      <path
         style="fill:none;stroke:#000000;stroke-width:3.93543;stroke-linecap:round;stroke-linejoin:round;stroke-miterlimit:4;stroke-dasharray:none;stroke-opacity:1"
         d="m 31.777643,12.457996 c 0,0 1.381779,2.158686 1.384012,4.981298 0.0022,2.822613 -1.384012,5.011976 -1.384012,5.011976"
         id="path1256"
         sodipodi:nodetypes="czc" />
      <path
         style="fill:none;stroke:#000000;stroke-width:3.93543;stroke-linecap:round;stroke-linejoin:round;stroke-miterlimit:4;stroke-dasharray:none;stroke-opacity:1"
         d="m 36.52089,10.420657 c 0,0 1.932435,2.931462 1.932435,7.02013 0,4.088667 -1.932435,7.047821 -1.932435,7.047821"
         id="path1258"
         sodipodi:nodetypes="czc" />
    </g>
  </g>
</svg>
