<svg xmlns="http://www.w3.org/2000/svg" width="192" height="192" fill="none" stroke="#000" stroke-width="12" viewBox="0 0 192 192"><path stroke-linecap="round" d="M35.82 22s.2 4.3-4.6 9.12c-4.81 4.83-9.22 4.7-9.22 4.7m28.3-7.2s-1.76 7.61-7.87 13.74c-6.12 6.13-13.81 7.94-13.81 7.94m36.16-16.05s-2.26 10.46-11.13 19.33-19.39 11.2-19.39 11.2"/><path stroke-linejoin="round" d="M56.08 75.98h18.15l10.45-13.93h41.79l10.45 13.93h18.15c8.24 0 14.93 6.68 14.93 14.93v64.17c0 8.24-6.68 14.93-14.93 14.93H56.08a14.93 14.93 0 0 1-14.93-14.93V90.91c0-8.24 6.68-14.93 14.93-14.93z"/><circle cx="105.58" cy="121.25" r="24.38"/></svg>