<svg xmlns="http://www.w3.org/2000/svg" width="192" height="192" fill="none" viewBox="0 0 192 192"><path stroke="#000" stroke-linecap="round" stroke-linejoin="round" stroke-width="12" d="M130 148.89A68 68 0 0 0 96 22a68 68 0 0 0-34 126.89"/><path stroke="#000" stroke-linecap="round" stroke-width="12" d="M130.113 170H61.887c-5.259 0-7.974-6.283-4.37-10.112l34.114-36.246a6 6 0 0 1 8.738 0l34.114 36.246c3.603 3.829.889 10.112-4.37 10.112Z"/><path stroke="#000" stroke-linecap="round" stroke-linejoin="round" stroke-width="12" d="M106.353 128.637a40.004 40.004 0 0 0 29.305-43.858 40.002 40.002 0 0 0-66.032-24.853 40 40 0 0 0 16.021 68.711"/><circle cx="96" cy="90" r="6" stroke="#000" stroke-linecap="round" stroke-linejoin="round" stroke-width="12"/></svg>