<svg width="192" height="192" viewBox="0 0 192 192" fill="none" xmlns="http://www.w3.org/2000/svg"><circle cx="138" cy="34" r="4" stroke="#000" stroke-width="8" stroke-linecap="round" stroke-linejoin="round"/><path d="M138 84v76m1-100h-1m2 0c29.062 0 30-30 30-30m0 0v130m-64 0V84.143c0-10.224-3.704-20.1-10.423-27.787a41.959 41.959 0 0 0-26.095-13.995 41.888 41.888 0 0 0-28.816 6.741 42.138 42.138 0 0 0-17.235 24.134M106 117.857a42.266 42.266 0 0 1-3.197 16.128 42.165 42.165 0 0 1-9.105 13.672 41.997 41.997 0 0 1-13.625 9.135A41.874 41.874 0 0 1 64 160c-30 0-42-13.245-42-30.102 0-19.265 16.8-30.102 42-30.102h42" stroke="#000" stroke-width="12" stroke-linecap="round" stroke-linejoin="round"/></svg>