<svg xmlns="http://www.w3.org/2000/svg" width="192" height="192" fill="none"><path stroke="#000" stroke-linecap="round" stroke-linejoin="round" stroke-width="18.402" d="M40.803 60.894v97.82A11.42 11.287 0 0 0 52.223 170h87.554a11.42 11.287 0 0 0 11.42-11.287v-97.82" style="fill:none;stroke-width:12;stroke-dasharray:none"/><path stroke="#000" stroke-linecap="round" stroke-linejoin="round" stroke-width="14.721" d="M96 72.18v56.435m0-56.434 22.84 22.573M96 72.181 73.16 94.754" style="fill:none;stroke-width:12;stroke-dasharray:none"/><path stroke="#000" stroke-linecap="round" stroke-linejoin="round" stroke-width="18.402" d="M158.81 33.287h-27.627a11.416 11.283 0 0 1-8.074-3.305l-4.731-4.677A11.416 11.283 0 0 0 110.304 22H81.696a11.42 11.287 0 0 0-8.074 3.305l-4.731 4.677a11.42 11.287 0 0 1-8.074 3.305H33.19" style="fill:none;stroke-width:12;stroke-dasharray:none"/></svg>