<svg width="192" height="192" viewBox="0 0 192 192" fill="none" xmlns="http://www.w3.org/2000/svg"><path d="M67 79v52a6 6 0 0 0 6 6h46a6 6 0 0 0 6-6V79" stroke="#000" stroke-width="10" stroke-linecap="round" stroke-linejoin="round"/><path d="M96 85v30m0-30 12 12M96 85 84 97" stroke="#000" stroke-width="8" stroke-linecap="round" stroke-linejoin="round"/><path d="M129 61h-14.515a5.998 5.998 0 0 1-4.242-1.757l-2.486-2.486A5.998 5.998 0 0 0 103.515 55h-15.03a6 6 0 0 0-4.242 1.757l-2.486 2.486A6 6 0 0 1 77.515 61H63" stroke="#000" stroke-width="10" stroke-linecap="round" stroke-linejoin="round"/><circle cx="96" cy="96" r="74" stroke="#000" stroke-width="12" stroke-linecap="round" stroke-linejoin="round"/></svg>