<?xml version="1.0" encoding="UTF-8" standalone="no"?>
<svg
   width="192"
   height="192"
   viewBox="0 0 192 192"
   fill="none"
   version="1.1"
   id="svg3"
   xmlns="http://www.w3.org/2000/svg"
   xmlns:svg="http://www.w3.org/2000/svg">
  <defs
     id="defs3" />
  <path
     d="m 40.802893,60.893865 v 97.819225 a 11.420091,11.286835 0 0 0 11.420092,11.28685 H 139.77702 A 11.420091,11.286835 0 0 0 151.1971,158.71309 V 60.893865"
     stroke="#000000"
     stroke-width="18.4016"
     stroke-linecap="round"
     stroke-linejoin="round"
     id="path1"
     style="fill:none;stroke-width:12;stroke-dasharray:none" />
  <path
     d="m 96,72.180699 v 56.434161 m 0,-56.434161 22.84017,22.57367 M 96,72.180699 73.159819,94.754369"
     stroke="#000000"
     stroke-width="14.7213"
     stroke-linecap="round"
     stroke-linejoin="round"
     id="path2"
     style="fill:none;stroke-width:12;stroke-dasharray:none" />
  <path
     d="m 158.8105,33.286894 h -27.62711 a 11.416284,11.283072 0 0 1 -8.074,-3.305162 l -4.73173,-4.676512 a 11.416284,11.283072 0 0 0 -8.07399,-3.305161 H 81.696336 a 11.420091,11.286835 0 0 0 -8.074005,3.305161 l -4.731723,4.676512 a 11.420091,11.286835 0 0 1 -8.074005,3.305162 H 33.1895"
     stroke="#000000"
     stroke-width="18.4016"
     stroke-linecap="round"
     stroke-linejoin="round"
     id="path3"
     style="fill:none;stroke-width:12;stroke-dasharray:none" />
</svg>
