<svg xmlns="http://www.w3.org/2000/svg" width="192" height="192" viewBox="0 0 192 192"><path fill="none" stroke="#000" stroke-linejoin="round" stroke-width="12" d="M95.2 170c-11.6 0-22-3.1-30.9-9.1-8.8-6-15.4-14.6-19.7-25.6-2.5-6.4-4-13.4-4.7-21.4-.8-9.5-.2-19.2 1.9-28.7 3.3-15.3 10-28.5 19.8-39.5 9.7-10.8 21.2-18.1 34.3-21.5 5.6-1.5 11.2-2.2 16.5-2.2 6.4 0 12.7 1.1 18.7 3.3 8.9 3.3 15 9 17.9 17 1.4 3.7 1.8 7.6 1.4 12-.6 6.2-2.6 11.7-6 16.4-3.9 5.4-8.6 8.7-14.3 10.1-1 .3-2.1.4-3.3.4-.5 0-.9 0-1.4-.1-1.7-.2-3.2-.9-4.2-2.2s-1.4-3-1.2-4.7c.3-2 1.1-3.7 1.9-5.1l.3-.6c1.6-3.2 3.1-6.2 3.9-9.4 1.3-5.4 1.3-9.5-.1-13.3-1.5-4-4.3-6.5-8.5-7.5q-2.4-.6-4.8-.6-5.4 0-11.4 2.7C93.4 44 86.7 50 81 58.7c-3.9 6-6.9 12.7-9.1 20.5-1.6 5.6-2.6 11.5-3.2 17.6-.3 2.9-.5 6.3-.5 9.6.1 9.7 1.5 17.4 4.5 24.2 3.3 7.6 7.8 12.9 13.9 16.3 4.1 2.3 8.7 3.5 13.6 3.5.8 0 1.7 0 2.6-.1 10.4-.8 19.6-5.5 28-14.3 4.3-4.5 7.9-9.7 11-15.9.5-.9 1-1.9 1.8-2.7 1-1.1 2.3-1.7 3.7-1.7 1.7 0 3.2.9 4.2 2.5 1.2 2 1.1 4.2.9 5.6-.6 4.1-2.1 8.1-4.6 12.8-7.2 12.9-17.1 22.4-29.4 28.3-6.3 3-13.1 4.7-20.1 5-1.1.1-2.1.1-3.1.1z"/></svg>