<svg width="192" height="192" viewBox="0 0 192 192" fill="none" xmlns="http://www.w3.org/2000/svg"><path d="M106 31.32a19.999 19.999 0 0 0 7.32-7.32S108 22 96 22s-17.32 2-17.32 2A20 20 0 0 0 106 31.32Zm42.806 26.016a20 20 0 0 0 10.353 0s-2.348-5.177-10.833-13.662c-8.485-8.485-13.662-10.833-13.662-10.833a20 20 0 0 0 14.142 24.495ZM160.679 106a20.008 20.008 0 0 0 7.321 7.32s2-5.32 2-17.32-2-17.32-2-17.32a20.003 20.003 0 0 0-7.321 27.32Zm-26.015 42.806a20.015 20.015 0 0 0 0 10.353s5.177-2.348 13.662-10.833c8.485-8.485 10.833-13.662 10.833-13.662a19.993 19.993 0 0 0-19.318 5.177 19.995 19.995 0 0 0-5.177 8.965ZM106 160.679a20.008 20.008 0 0 1 7.32 7.321S108 170 96 170s-17.32-2-17.32-2a20.003 20.003 0 0 1 27.32-7.321Zm-48.664-11.873a20 20 0 0 1 0 10.353s-5.177-2.348-13.662-10.833c-8.485-8.485-10.833-13.662-10.833-13.662a19.999 19.999 0 0 1 24.495 14.142ZM31.32 106a19.999 19.999 0 0 1-7.32 7.32S22 108 22 96s2-17.32 2-17.32A20 20 0 0 1 31.32 106Zm11.874-48.664a19.999 19.999 0 0 1-10.353 0s2.348-5.177 10.833-13.662c8.486-8.485 13.662-10.833 13.662-10.833a19.999 19.999 0 0 1-14.142 24.495Z" stroke="#000" stroke-width="12" stroke-linecap="round" stroke-linejoin="round"/><circle cx="4" cy="4" r="4" transform="matrix(0 1 1 0 51 92)" stroke="#000" stroke-width="8" stroke-linecap="round" stroke-linejoin="round"/><circle cx="4" cy="4" r="4" transform="matrix(-1 0 0 1 100 51)" stroke="#000" stroke-width="8" stroke-linecap="round" stroke-linejoin="round"/><circle cx="4" cy="4" r="4" transform="scale(-1 1) rotate(45 -107.562 -50.21)" stroke="#000" stroke-width="8" stroke-linecap="round" stroke-linejoin="round"/><circle cx="4" cy="4" r="4" transform="scale(-1 1) rotate(-45 15.563 191.21)" stroke="#000" stroke-width="8" stroke-linecap="round" stroke-linejoin="round"/><circle cx="4" cy="4" r="4" transform="matrix(0 1 1 0 133 92)" stroke="#000" stroke-width="8" stroke-linecap="round" stroke-linejoin="round"/><circle cx="4" cy="4" r="4" transform="matrix(-1 0 0 1 100 133)" stroke="#000" stroke-width="8" stroke-linecap="round" stroke-linejoin="round"/><circle cx="4" cy="4" r="4" transform="scale(-1 1) rotate(45 -206.546 -91.21)" stroke="#000" stroke-width="8" stroke-linecap="round" stroke-linejoin="round"/><circle cx="4" cy="4" r="4" transform="scale(-1 1) rotate(-45 114.545 150.21)" stroke="#000" stroke-width="8" stroke-linecap="round" stroke-linejoin="round"/></svg>