<?xml version="1.0" encoding="UTF-8" standalone="no"?>
<!-- Created with Inkscape (http://www.inkscape.org/) -->
<svg
   width="24"
   height="24"
   viewBox="0 0 6.3499999 6.3500002"
   version="1.1"
   id="svg5"
   sodipodi:docname="capcut.svg"
   inkscape:version="1.1.1 (3bf5ae0d25, 2021-09-20)"
   xmlns:inkscape="http://www.inkscape.org/namespaces/inkscape"
   xmlns:sodipodi="http://sodipodi.sourceforge.net/DTD/sodipodi-0.dtd"
   xmlns="http://www.w3.org/2000/svg"
   xmlns:svg="http://www.w3.org/2000/svg">
  <sodipodi:namedview
     id="namedview6"
     pagecolor="#ffffff"
     bordercolor="#666666"
     borderopacity="1.0"
     inkscape:pageshadow="2"
     inkscape:pageopacity="0.0"
     inkscape:pagecheckerboard="0"
     showgrid="false"
     inkscape:zoom="11.313709"
     inkscape:cx="3.2261745"
     inkscape:cy="4.3310288"
     inkscape:window-width="2560"
     inkscape:window-height="1011"
     inkscape:window-x="0"
     inkscape:window-y="32"
     inkscape:window-maximized="1"
     inkscape:current-layer="layer4" />
  <defs
     id="defs2" />
  <g
     inkscape:groupmode="layer"
     id="layer4"
     inkscape:label="Layer 1">
    <path
       d="m 1.3691959,1.1171296 c -0.47258893,0 -0.84002918,0.4097051 -0.84002918,0.8819444 V 2.2930556 A 0.29401088,0.29401088 0 0 0 0.69969894,2.5600504 L 2.0323768,3.175 0.69969894,3.7899495 A 0.29401088,0.29401088 0 0 0 0.52916672,4.0569444 v 0.2939814 c 0,0.4722392 0.36744025,0.8819446 0.84002918,0.8819446 h 2.7296639 c 0.4150845,0 0.7488238,-0.3162386 0.823952,-0.7131348 L 5.8208334,4.9388888 V 4.2757081 L 4.7781179,3.794543 a 0.29401088,0.29401088 0 0 0 -0.00344,-0.00173 L 4.7683623,3.7899318 3.4356837,3.1750043 4.7683614,2.5600548 a 0.29401088,0.29401088 0 0 0 5.88e-4,-5.734e-4 L 5.8208334,2.074292 V 1.411111 L 4.9228118,1.8302644 C 4.8476836,1.4333681 4.5139443,1.1171296 4.0988598,1.1171296 Z m 0,0.587963 h 2.7296639 c 0.1306613,0 0.2520662,0.1165218 0.2520662,0.2939814 V 2.096685 L 2.734028,2.8511611 1.1171298,2.1047237 v -0.10565 c 0,-0.1774597 0.121405,-0.2939815 0.2520661,-0.2939811 z M 2.734028,3.4988387 4.350926,4.2533149 v 0.097611 c 0,0.1774599 -0.1214049,0.2939816 -0.2520662,0.2939816 H 1.3691959 c -0.1306611,0 -0.2520661,-0.1165217 -0.2520661,-0.2939816 V 4.2452761 Z"
       id="path2"
       style="stroke-width:0.293981" />
  </g>
</svg>
