<svg width="192" height="192" viewBox="0 0 192 192" fill="none" xmlns="http://www.w3.org/2000/svg">
<path d="M130.168 135.036C129.924 135.27 132.411 154.991 131.141 155.157C94.7446 157.445 69.604 162.096 26.2891 150.216C23.3687 149.415 21.5599 146.462 22.0929 143.44L35.1425 69.4581C35.5207 67.3136 34.6929 65.1602 33.1522 63.643C28.3662 58.9303 25.8719 53.7444 26.5245 47.0589C26.8039 44.1961 29.523 42.3941 32.3447 42.6743C38.7141 43.3069 43.6855 43.9303 50.5421 45.5549C51.3799 45.7534 52.2533 45.7738 53.0975 45.6049C66.7222 42.8791 75.2892 41.6295 91.8199 43.7832C93.0221 43.9398 94.2488 43.7356 95.3215 43.163C100.668 40.3087 105.365 37.4436 109.557 35.4664C111.689 34.4607 114.204 35.1008 115.321 37.1997C117.118 40.5731 118.466 45.0429 119.088 48.7733C119.521 51.3699 121.138 53.7634 123.591 54.6222C135.554 58.8096 144.431 62.0255 151.02 65.3959M130.168 135.036C125.792 115.825 119.767 91.1035 123.049 79.8727C125.047 73.0365 139.231 67.8941 151.02 65.3959M130.168 135.036C122.176 135.699 118.054 134.983 111.062 132.609M130.168 135.036C132.989 134.506 141.103 133.46 149.477 130.655C155.546 128.623 161.752 125.668 166.181 121.317C170.88 115.861 170.151 106.959 169.587 97.9949C169.169 91.3519 168.382 86.1249 166.88 81.8259C164.296 74.4319 159.596 69.783 151.02 65.3959" stroke="black" stroke-width="12" stroke-linecap="round" stroke-linejoin="round"/>
<path d="M142 92C142 92 144.537 90.0146 148.5 89M162.568 87.0746C156.779 87.8314 152.6 87.9503 148.5 89M148.5 89C150.771 97.1755 150.408 101.44 149.582 109.626" stroke="black" stroke-width="10" stroke-linecap="round"/>
<path d="M58 83.0427C61.7766 82.0641 63.8013 81.3448 67.0164 80.7481M92 79.0641C87.7475 78.9354 86.047 79.0246 82.6377 79.1219M67.0164 80.7481C69.5622 80.2757 72.0184 79.9142 74.5217 79.6494C77.1248 79.3742 79.7789 79.2036 82.6377 79.1219M67.0164 80.7481C67.5816 88.9132 69.1835 91.4889 75.3333 90.926C82.5283 89.831 83.1373 86.5217 82.6377 79.1219" stroke="black" stroke-width="12" stroke-linecap="round"/>
</svg>
