<svg width="192" height="192" viewBox="0 0 192 192" fill="none" xmlns="http://www.w3.org/2000/svg"><path d="M36 50v92M50 36h92m14 14v92M50 156h92" stroke="#000" stroke-width="12" stroke-linecap="round" stroke-linejoin="round"/><rect x="24" y="24" width="24" height="24" rx="6" stroke="#000" stroke-width="10" stroke-linecap="round" stroke-linejoin="round"/><rect x="144" y="24" width="24" height="24" rx="6" stroke="#000" stroke-width="10" stroke-linecap="round" stroke-linejoin="round"/><rect x="24" y="144" width="24" height="24" rx="6" stroke="#000" stroke-width="10" stroke-linecap="round" stroke-linejoin="round"/><rect x="144" y="144" width="24" height="24" rx="6" stroke="#000" stroke-width="10" stroke-linecap="round" stroke-linejoin="round"/><path d="M77 65a6 6 0 0 1 6-6h26a6 6 0 0 1 6 6v62a6 6 0 0 1-6 6H83a6 6 0 0 1-6-6V65Z" stroke="#000" stroke-width="12" stroke-linecap="round" stroke-linejoin="round"/></svg>