<svg width="192" height="192" viewBox="0 0 192 192" fill="none" xmlns="http://www.w3.org/2000/svg">
<path d="M130.591 135.014C130.344 135.248 132.867 154.965 131.578 155.131C94.6548 157.418 69.1502 162.068 25.208 150.191C22.2453 149.39 20.4103 146.438 20.951 143.417L34.1896 69.4505C34.5733 67.3066 33.7335 65.1536 32.1705 63.6368C27.3152 58.925 24.7848 53.7403 25.4468 47.0562C25.7303 44.194 28.4888 42.3925 31.3513 42.6726C37.813 43.3051 42.8564 43.9284 49.8122 45.5525C50.6622 45.751 51.5482 45.7714 52.4046 45.6026C66.2266 42.8774 74.9177 41.628 91.6878 43.7813C92.9074 43.9378 94.1519 43.7337 95.2401 43.1612C100.664 40.3076 105.43 37.443 109.682 35.4663C111.845 34.4608 114.396 35.1008 115.53 37.1992C117.352 40.5719 118.72 45.0407 119.351 48.7703C119.79 51.3663 121.43 53.7593 123.919 54.6179C136.055 58.8044 145.061 62.0196 151.745 65.3893M130.591 135.014C126.151 115.808 120.039 91.0912 123.369 79.8629C125.396 73.0282 139.785 67.8869 151.745 65.3893M130.591 135.014C122.483 135.677 118.302 134.961 111.208 132.587M130.591 135.014C133.453 134.484 141.684 133.438 150.18 130.635C156.337 128.603 162.632 125.648 167.125 121.298C171.892 115.843 171.153 106.944 170.581 97.9811C170.157 91.3395 169.359 86.1137 167.835 81.8156C165.213 74.4233 160.446 69.7754 151.745 65.3893" stroke="black" stroke-width="10" stroke-linecap="round" stroke-linejoin="round"/>
<path d="M139.501 93.4286C143.533 91.7111 146.062 90.9459 149.5 89.9731M162.568 87.0745C157.538 87.7709 153.058 88.9666 149.5 89.9731M149.5 89.9731C151.561 98.1654 152.134 101.303 151.5 109.473" stroke="black" stroke-width="8" stroke-linecap="round"/>
<path d="M58 81.6951C60.5547 81.0427 61.9244 80.5632 64.0993 80.1654M81 79.0427C78.1233 78.9569 76.9729 79.0164 74.6667 79.0813M64.0993 80.1654C65.8215 79.8505 67.483 79.6094 69.1765 79.433C70.9374 79.2494 72.7328 79.1357 74.6667 79.0813M64.0993 80.1654C64.4817 85.6088 65.5653 87.3259 69.7255 86.9506C74.5927 86.2207 75.0047 84.0145 74.6667 79.0813" stroke="black" stroke-width="8" stroke-linecap="round"/>
</svg>
