<svg xmlns="http://www.w3.org/2000/svg" viewBox="0 0 192 192"><defs><linearGradient id="a" x1="30.126" x2="77.705" y1="44.041" y2="44.041" gradientTransform="matrix(.93534 0 0 .90084 8.956 8.291)" gradientUnits="userSpaceOnUse"><stop offset="0"/></linearGradient><linearGradient id="b" x1="116.48" x2="158.85" y1="30.893" y2="30.893" gradientTransform="matrix(.96969 0 0 .9284 5.12 7.19)" gradientUnits="userSpaceOnUse"><stop offset="0"/></linearGradient><linearGradient id="c" x1="46.247" x2="158.37" y1="120.26" y2="120.26" gradientTransform="matrix(.96764 0 0 .9274 5.443 7.156)" gradientUnits="userSpaceOnUse"><stop offset="0"/></linearGradient></defs><ellipse cx="59.385" cy="47.965" fill="none" stroke="url(#a)" stroke-width="12" rx="22.251" ry="21.446"/><path fill="none" stroke="url(#b)" stroke-linejoin="round" stroke-width="12" d="M117.87 21.486s24.176 4.9 40.042 24.467c-8.763 7.432-21.548 18.816-21.548 18.816s-10.025-12.571-25.826-15.647c7.202-27.184 7.331-27.635 7.331-27.635z"/><path fill="none" stroke="url(#c)" stroke-linejoin="round" stroke-width="12" d="M50.184 94.592c.344 7.245 2.174 18.08 9.717 27.865 3.693 4.79 8.694 9.33 15.678 13.073 21.25 11.387 46.97 5.39 60.342-11.307l23.095 18.961s-19.26 23.327-47.979 26.639c-15.194 1.752-33.357.571-50.533-9.181-9.845-5.59-19.833-13.705-27.737-26.334-3.92-6.264-5.699-10.45-7.316-14.966-2.611-7.292-3.632-13.64-3.809-17.465-.226-4.903-.546-6.942-.394-7.093.2-.199 14.801-.523 23.2-.54 3.993-.008 5.736-.283 5.75.313z"/></svg>