<svg width="192" height="192" viewBox="0 0 192 192" fill="none" xmlns="http://www.w3.org/2000/svg"><path d="M135.001 139s-42-27-3-63M45 139s42-27 3-63" stroke="#000" stroke-width="12" stroke-linecap="round" stroke-linejoin="round"/><path d="M23 92s25-28 67-28 67 28 67 28m-96 30c11-4 21-1 29-1s18-3 29 1" stroke="#000" stroke-width="12" stroke-linecap="round" stroke-linejoin="round"/><path d="M146.948 127.175C153.937 116.49 158 103.72 158 90c0-37.555-30.445-68-68-68S22 52.445 22 90s30.445 68 68 68c13.72 0 26.49-4.063 37.175-11.052m19.773-19.773 21.315 21.314a5.933 5.933 0 0 1 0 8.389l-11.385 11.385a5.933 5.933 0 0 1-8.389 0l-21.314-21.315m19.773-19.773a68.358 68.358 0 0 1-19.773 19.773" stroke="#000" stroke-width="12" stroke-linecap="round" stroke-linejoin="round"/></svg>