<svg width="192" height="192" viewBox="0 0 192 192" fill="none" xmlns="http://www.w3.org/2000/svg"><g clip-path="url(#carlcare__a)" stroke="#000" stroke-width="10" stroke-linecap="round" stroke-linejoin="round"><path d="M148 47v20m11 22v2M88 74v24m22-42v42m-73-8a16 16 0 1 1 4.141-31.455M88 74a16.001 16.001 0 0 1-27.314 11.314A16 16 0 1 1 88 74h0Zm42.141-15.455a15.997 15.997 0 0 0-18.491 8.378A16.006 16.006 0 0 0 110 74m0 24a10.994 10.994 0 0 1-6.79 10.163 11.017 11.017 0 0 1-8.42 0A10.996 10.996 0 0 1 88 98m83-8a23.004 23.004 0 0 1-21.249-14.198A22.998 22.998 0 0 1 148 67"/><path d="M159 90a61.012 61.012 0 0 1-17.866 43.134 61.01 61.01 0 0 1-66.478 13.223 61.013 61.013 0 0 1-33.013-33.013A61.003 61.003 0 0 1 37 90"/><path d="M130.177 113a36 36 0 0 1-62.354 0"/></g><defs><clipPath id="carlcare__a"><path fill="#fff" d="M0 0h192v192H0z"/></clipPath></defs></svg>