<svg xmlns="http://www.w3.org/2000/svg" width="192" height="192" fill="none" stroke="#000" stroke-linecap="round" stroke-linejoin="round" stroke-width="12" viewBox="0 0 192 192"><path d="M106.835 140.705a37.995 37.995 0 0 1-43.916-19.898 38.002 38.002 0 0 1 43.916-53.512"/><path stroke-width="10" d="M130 104h6m-11.997 18.97 4.909 3.449m-.132-45.025-4.889 3.478"/><path d="M114 38H36a6 6 0 0 0-6 6v120a6 6 0 0 0 6 6h120a6 6 0 0 0 6-6V44a6 6 0 0 0-6-6h-10m0 0V28a6 6 0 0 0-6-6h-20a6 6 0 0 0-6 6v10"/></svg>