<svg xmlns="http://www.w3.org/2000/svg" width="192" height="192" fill="none" stroke="#000" stroke-linejoin="round" viewBox="0 0 192 192"><path stroke-width="8" d="M89 140h10.883L90 150.21l20.739.969-26.776 16.822L96 151.667l-15-.114Zm-10.525-38.67 8.35-.093 8.16-9.006 9.006 9.1 8.068.093L95.267 84.07z"/><path stroke-linecap="round" stroke-width="12" d="M64.933 65.983c3.644-21.6 21.585-38.865 41.524-38.982C126.397 26.884 144.705 44.444 146 66m-81.067 0h-5.597c-6.605 0-13.242-.067-18.624 2.091C29.29 72.672 22 83.016 22 94.115c0 9.914 6.008 20.404 15.605 25.25 6.21 3.134 14.116 2.524 22.217 2.524h73.327c12.377 0 19.638-.533 27.364-6.173 7.107-5.189 9.487-13.552 9.487-21.601 0-14.888-10.693-26.623-24-28.115"/></svg>