<svg width="192" height="192" viewBox="0 0 192 192" fill="none" xmlns="http://www.w3.org/2000/svg">
<path d="M97.9374 158.839L118.288 133.676C118.788 132.984 119.432 132.407 120.176 131.986C120.92 131.565 121.746 131.309 122.598 131.236L154.67 128.447C157.94 128.163 160.824 130.568 161.109 133.82L163.977 163.423C164.264 166.675 161.796 169.556 158.519 169.736C64.3101 174.904 29.1803 103.302 22.0381 41.2823C21.6639 38.0393 24.0913 35.1729 27.3631 34.8883L56.3015 32.0229C59.5723 31.7382 62.4555 34.1437 62.7414 37.3953L66.5335 69.1382C66.6082 69.9899 66.4966 70.8476 66.2063 71.6518C65.9161 72.4561 65.4541 73.1876 64.8525 73.7957L43.4053 98.5371" stroke="black" stroke-width="12" stroke-linecap="round" stroke-linejoin="round"/>
<path d="M154.51 53.334L168.338 39.5061C170.681 37.1629 170.681 33.364 168.338 31.0208L160.56 23.2426C158.217 20.8995 154.418 20.8995 152.075 23.2426L138.247 37.0705M154.51 53.334L104.218 103.627C103.347 104.497 102.23 105.079 101.018 105.293L91.5727 106.959C87.4708 107.683 83.8974 104.11 84.6213 100.008L86.2881 90.5631C86.502 89.3508 87.0836 88.2336 87.9541 87.3632L138.247 37.0705M154.51 53.334L138.247 37.0705" stroke="black" stroke-width="12" stroke-linecap="round" stroke-linejoin="round"/>
</svg>
