<svg xmlns="http://www.w3.org/2000/svg" width="192" height="192" fill="none" viewBox="0 0 192 192"><path stroke="#000" stroke-linecap="round" stroke-linejoin="round" stroke-width="12" d="m97.889 158.878 20.337-25.076a5.94 5.94 0 0 1 4.307-2.432l32.051-2.779c3.269-.283 6.15 2.114 6.436 5.354l2.866 29.501c.287 3.24-2.18 6.112-5.455 6.291-94.148 5.15-129.255-66.204-136.393-128.009-.374-3.231 2.052-6.088 5.322-6.371L56.28 32.5c3.268-.284 6.15 2.114 6.435 5.354l3.79 31.633a5.85 5.85 0 0 1-1.68 4.641L43.392 98.785m111.033-45.047 13.819-13.78a5.97 5.97 0 0 0 0-8.455l-7.773-7.752a6.01 6.01 0 0 0-8.48 0l-13.819 13.78m16.253 16.207-50.26 50.119a6 6 0 0 1-3.198 1.66l-9.44 1.661c-4.098.721-7.67-2.84-6.946-6.927l1.666-9.413a5.97 5.97 0 0 1 1.665-3.188l50.26-50.119m16.253 16.207-16.253-16.207"/></svg>