<svg xmlns="http://www.w3.org/2000/svg" width="192" height="192" fill="none" stroke="#000" stroke-linecap="round" stroke-linejoin="round" stroke-width="12" viewBox="0 0 192 192"><circle cx="54" cy="87" r="5" stroke-width="10"/><path stroke-width="10" d="m54 94-7 14m7-14 7 14m-14 0h14"/><path d="M122 118v-12.943c0-.699-.122-1.393-.361-2.05l-6.203-17.058A6 6 0 0 0 109.797 82H94m2-26H28a6 6 0 0 0-6 6v68a6 6 0 0 0 6 6h48"/><path d="M105.674 26.517a6 6 0 0 1 7.602-4.24l52.511 16.409a6 6 0 0 1 4.018 7.234L138.779 165.5a6 6 0 0 1-7.436 4.268l-52.468-14.79a6 6 0 0 1-4.185-7.261zM88 108h42"/></svg>