<svg width="192" height="192" viewBox="0 0 192 192" fill="none" xmlns="http://www.w3.org/2000/svg"><path d="M80 167s10-2 16-2 16 2 16 2v-6s-10 2-16 2-16-2-16-2v6Z" stroke="#000" stroke-width="6" stroke-linecap="round" stroke-linejoin="round"/><ellipse cx="96" cy="101" rx="41" ry="39" stroke="#000" stroke-width="10" stroke-linejoin="round"/><ellipse cx="96" cy="101" rx="23" ry="22" stroke="#000" stroke-width="6" stroke-linejoin="round"/><path d="m96 21 24.567 45.126L171 75.588l-35.25 37.351 6.603 50.973L96 141.87l-46.353 22.042 6.603-50.973L21 75.588l50.433-9.462L96 21Z" stroke="#000" stroke-width="10" stroke-linejoin="round"/><path d="m96 79 6.854 12.567 14.069 2.635-9.834 10.401 1.842 14.195L96 112.66l-12.931 6.138 1.842-14.195-9.834-10.401 14.07-2.635L96 79Z" stroke="#000" stroke-width="6" stroke-linejoin="round"/><path d="M96 140v31" stroke="#000" stroke-width="10" stroke-linecap="round" stroke-linejoin="round"/><path d="m90 31-8-6-9 12-15-4-5 13H37v15l-15 5 6 7m74-42 8-6 9 12 15-4 5 13h16v15l15 5-6 7M48 146.5 38 151l-1-12-15-6 8-16-11-6 8-12-8-12 7-4m118 63.5 10 4.5 1-12 15-6-8-16 11-6-8-12 8-12-7-4" stroke="#000" stroke-width="6" stroke-linecap="round" stroke-linejoin="round"/></svg>