<svg xmlns="http://www.w3.org/2000/svg" width="192" height="192" fill="none"><path stroke="#000" stroke-linecap="round" stroke-linejoin="round" stroke-width="10" d="M54 102.333C54 113.444 68.757 139 96 139s42-25.556 42-36.667c0 0-14.757-3.333-42-3.333s-42 3.333-42 3.333"/><path stroke="#000" stroke-linecap="round" stroke-linejoin="round" stroke-width="10" d="M67 123s13-3 29-3 29 3 29 3"/><circle cx="96" cy="96" r="74" stroke="#000" stroke-linecap="round" stroke-linejoin="round" stroke-width="12"/><path stroke="#000" stroke-linecap="round" stroke-linejoin="round" stroke-width="12" d="M77.778 73.222A11 11 0 0 0 60.474 75.5m71.052 0a11 11 0 0 0-8.09-5.406 11 11 0 0 0-9.214 3.128"/></svg>