<svg xmlns="http://www.w3.org/2000/svg" width="192" height="192" fill="none" viewBox="0 0 192 192"><path stroke="#000" stroke-linecap="round" stroke-linejoin="round" stroke-width="10" d="m127 65 20-20m-7 51h30M53 96a15 15 0 0 0-30 0m73 73a15 15 0 1 0 0-30"/><circle cx="96" cy="96" r="74" stroke="#000" stroke-linecap="round" stroke-linejoin="round" stroke-width="12"/><circle cx="96" cy="96" r="43" stroke="#000" stroke-linecap="round" stroke-linejoin="round" stroke-width="10"/><path stroke="#000" stroke-linecap="round" stroke-linejoin="round" stroke-width="10" d="M105.625 77.697s-9.638-.17-11.77.171c-2.136.341-4.095 1.182-5.634 2.419-1.538 1.235-2.585 2.81-3.011 4.523a7.24 7.24 0 0 0 .627 5.106c.833 1.613 2.241 2.993 4.05 3.964C91.698 94.85 96 96 96 96s4.302 1.149 6.112 2.12c1.808.97 3.219 2.351 4.051 3.966a7.2 7.2 0 0 1 .625 5.103c-.423 1.715-1.471 3.289-3.01 4.524-1.538 1.236-3.498 2.078-5.632 2.419-2.134.34-11.772.169-11.772.169M96 71v6.697M96 121v-6.699"/></svg>