<svg xmlns="http://www.w3.org/2000/svg" width="192" height="192" fill="none"><path stroke="#000" stroke-linecap="round" stroke-linejoin="round" stroke-width="12" d="M101 156H66m88-76V42a6 6 0 0 0-6-6H28a6 6 0 0 0-6 6v86a6 6 0 0 0 6 6h95"/><path stroke="#000" stroke-linecap="round" stroke-linejoin="round" stroke-width="12" d="M123 86a6 6 0 0 1 6-6h35a6 6 0 0 1 6 6v64a6 6 0 0 1-6 6h-35a6 6 0 0 1-6-6zm-20 5-14 15-30-30s14-12 30-12c7.555 0 14.218 2.676 19.147 5.5"/><path stroke="#000" stroke-linecap="round" stroke-linejoin="round" stroke-width="8" d="m142 111 10 7-10 7z"/></svg>