<svg width="192" height="192" viewBox="0 0 192 192" fill="none" xmlns="http://www.w3.org/2000/svg"><circle cx="96" cy="96" r="74" stroke="#000" stroke-width="12"/><mask id="a" fill="#fff"><path d="M116.301 111.128c2.612 1.93 3.198 5.667.802 7.861a30.493 30.493 0 0 1-29.809 6.588 30.499 30.499 0 0 1 17.279-58.49 30.505 30.505 0 0 1 11.473 5.999c2.493 2.082 2.081 5.84-.44 7.89-2.521 2.048-6.198 1.561-8.925-.204a18.735 18.735 0 1 0 .714 30.971c2.643-1.89 6.293-2.545 8.906-.615Z"/></mask><path d="M116.301 111.128c2.612 1.93 3.198 5.667.802 7.861a30.493 30.493 0 0 1-29.809 6.588 30.499 30.499 0 0 1 17.279-58.49 30.505 30.505 0 0 1 11.473 5.999c2.493 2.082 2.081 5.84-.44 7.89-2.521 2.048-6.198 1.561-8.925-.204a18.735 18.735 0 1 0 .714 30.971c2.643-1.89 6.293-2.545 8.906-.615Z" stroke="#000" stroke-width="12" mask="url(#a)"/></svg>