<svg xmlns="http://www.w3.org/2000/svg" width="192" height="192" fill="none" viewBox="0 0 192 192"><path stroke="#000" stroke-linecap="round" stroke-linejoin="round" stroke-width="10" d="M57 89v15m64-15v18m16-9v4M73 80v39m16-46v34m16-30v31"/><path stroke="#000" stroke-linecap="round" stroke-linejoin="round" stroke-width="12" d="M29 64.918c0-2.1 1.098-4.048 2.894-5.135l61-36.916a6 6 0 0 1 6.212 0l61 36.916A6 6 0 0 1 163 64.918v62.164c0 2.1-1.098 4.048-2.894 5.135l-61 36.916a6 6 0 0 1-6.212 0l-61-36.916A6 6 0 0 1 29 127.082z"/></svg>