<svg xmlns="http://www.w3.org/2000/svg" width="192" height="192" fill="none"><path stroke="#000" stroke-linecap="round" stroke-linejoin="round" stroke-width="10" d="M51 89v15m72-15v18m18-9v4M69 80v39m18-46v34m18-30v31"/><path stroke="#000" stroke-linecap="round" stroke-linejoin="round" stroke-width="12" d="M29 64.918c0-2.1 1.098-4.048 2.894-5.135l61-36.916a6 6 0 0 1 6.212 0l61 36.916A6 6 0 0 1 163 64.918v62.164c0 2.1-1.098 4.048-2.894 5.135l-61 36.916a6 6 0 0 1-6.212 0l-61-36.916A6 6 0 0 1 29 127.082z"/></svg>