<svg xmlns="http://www.w3.org/2000/svg" width="192" height="192" viewBox="0 0 192 192"><path fill="none" stroke="#000" stroke-width="12" d="M37.489 81C34.924 88.17 34 97.354 34 109c0 40.071 10.941 51 62 51s62-10.929 62-51c0-11.646-.924-20.83-3.489-28M37.489 81l15.164-38.976c3.699-9.507 16.82-10.356 21.713-1.406L84 58.241M37.489 81C43.009 65.565 56.13 59.466 84 58.24m0 0A24 .48 0 0 1 96 58s8.27.077 12 .24M154.511 81l-.752-1.933m.752 1.933a37 37 0 0 0-.752-1.933m0 0-14.412-37.043c-3.699-9.507-16.82-10.356-21.713-1.406L108 58.241m45.759 20.826c-5.92-14.015-19.084-19.654-45.759-20.826"/><path stroke="#000" stroke-linecap="round" stroke-width="8" d="m158 107 13-4m-1 36-12-4m0-14h14M34 107l-13-4m1 36 12-4m0-14H20"/><path d="M100.526 109h-9.052c-3.195 0-5.1 3.561-3.328 6.219l4.526 6.789c1.583 2.375 5.073 2.375 6.656 0l4.526-6.789c1.772-2.658-.133-6.219-3.328-6.219"/><circle cx="72" cy="101" r="8"/><circle cx="120" cy="101" r="8"/></svg>