<svg xmlns="http://www.w3.org/2000/svg" width="192" height="192" fill="none" viewBox="0 0 192 192"><path stroke="#000" stroke-linecap="round" stroke-linejoin="round" stroke-miterlimit="6" stroke-width="12" d="m78.067 131.997 22.85-7.105M49.73 155.894c14.71 0 26.634-11.927 26.634-26.64 0-14.712-11.925-26.638-26.635-26.638s-26.634 11.926-26.634 26.639 11.925 26.639 26.635 26.639m66.35-19.649c7.71 0 13.96-6.251 13.96-13.962s-6.25-13.961-13.96-13.961-13.959 6.251-13.959 13.96c0 7.712 6.25 13.963 13.959 13.963"/><path stroke="#000" stroke-linecap="round" stroke-linejoin="round" stroke-width="12" d="M39.767 102.73 22.572 65.496a6.06 6.06 0 0 1 2.952-8.13l40.499-18.467c3.364-1.534 7.305.277 8.333 3.83l1.642 6.85 28.576 23.99 8.287 34.126"/><path stroke="#000" stroke-linecap="round" stroke-linejoin="round" stroke-miterlimit="6" stroke-width="12" d="m124.948 71.192-41.22 17.562"/><path stroke="#000" stroke-linecap="round" stroke-linejoin="round" stroke-miterlimit="6" stroke-width="10" d="m153.157 35-8.372 4.426c-2.899-.82-7.219-1.232-10.135-1.986-.799 2.703-2.248 6.56-3.029 9.268-2.634 1.472-6.018 4.395-8.621 5.917 1.35 2.444 3.11 6.096 4.466 8.535-.819 2.884-1.308 7.22-2.071 10.12 2.711.8 6.651 2.25 9.369 3.034 1.461 2.616 4.073 6.1 5.585 8.686 2.464-1.344 6.419-3.183 8.873-4.543 2.901.824 7.136 1.467 10.047 2.233.775-2.676 2.353-6.837 3.12-9.516 2.633-1.47 6.015-3.988 8.611-5.507l-4.459-8.946c.826-2.892 1.381-6.963 2.148-9.87-2.679-.773-6.759-2.51-9.44-3.278-1.463-2.61-4.576-5.992-6.091-8.572z"/><path stroke="#000" stroke-linecap="round" stroke-linejoin="round" stroke-miterlimit="6" stroke-width="6" d="M147 62a3 3 0 1 0 0-6 3 3 0 0 0 0 6"/></svg>