<svg width="192" height="192" viewBox="0 0 192 192" fill="none" xmlns="http://www.w3.org/2000/svg"><path d="M28 61.574v68.852a6 6 0 0 0 3.143 5.276l62 33.571a6 6 0 0 0 5.714 0l62-33.571a6 6 0 0 0 3.143-5.276V61.574a6 6 0 0 0-3.142-5.276l-62-33.58a6 6 0 0 0-5.716 0l-62 33.58A6 6 0 0 0 28 61.574Z" stroke="#000" stroke-width="12" stroke-linecap="round" stroke-linejoin="round"/><path d="M51 71v50m43 23 49-26M94 46l49 26" stroke="#000" stroke-width="10" stroke-linecap="round" stroke-linejoin="round"/></svg>