<svg xmlns="http://www.w3.org/2000/svg" width="192" height="192" fill="none"><path stroke="#000" stroke-linecap="round" stroke-linejoin="round" stroke-width="8" d="M124 57a4 4 0 1 0 0-8 4 4 0 0 0 0 8"/><path stroke="#000" stroke-linecap="round" stroke-linejoin="round" stroke-width="12" d="M100 154v16m0-148v106m0 0v-11.39a6 6 0 0 0-4.454-5.798l-21.092-5.624A6.004 6.004 0 0 1 70 99.39V94a6 6 0 0 0-6-6h-7.675a6 6 0 0 1-5.693-4.103l-6.324-18.973A6 6 0 0 1 44 63.026V34.105a6 6 0 0 1 1.315-3.748l4.884-6.105A6 6 0 0 1 54.884 22h75.252c.573 0 1.143.082 1.693.244l11.864 3.49A6 6 0 0 1 148 31.488v53.664a6 6 0 0 1-2.206 4.648zm-43 0v4a6 6 0 0 0 6 6h10a6 6 0 0 1 6 6v4a6 6 0 0 0 6 6h30a6 6 0 0 0 4.243-1.757A6 6 0 0 0 121 148v-4c0-1.591.632-3.117 1.757-4.243A6 6 0 0 1 127 138h10a6 6 0 0 0 4.243-1.757A6 6 0 0 0 143 132v-4"/><path stroke="#000" stroke-linecap="round" stroke-linejoin="round" stroke-width="10" d="M71 60v-7m0 0h-3a5 5 0 0 1-5-5m8 5h10"/></svg>