<?xml version="1.0" encoding="utf-8"?>
	<svg version="1.1" xmlns="http://www.w3.org/2000/svg" xmlns:xlink="http://www.w3.org/1999/xlink" x="0px" y="0px" width="240.0" height="240.0" xml:space="preserve">
		<path d="M200.785,61.064L170.448,83.105C150.126,55.314 111.136,49.186 83.263,69.436C55.338,89.726 49.147,128.811 69.436,156.737C89.726,184.662 128.811,190.853 156.737,170.564C162.152,166.629 166.75,161.988 170.496,156.859L200.862,178.878C194.856,187.123 187.476,194.582 178.779,200.902C134.098,233.364 71.561,223.459 39.098,178.779C6.636,134.098 16.541,71.561 61.221,39.098C105.902,6.636 168.439,16.541 200.902,61.221L200.785,61.064Z" fill="#000" stroke="#00000000" stroke-width="1.0" stroke-miterlimit=""/>
	</svg>
