<?xml version="1.0" encoding="utf-8"?>
	<svg version="1.1" xmlns="http://www.w3.org/2000/svg" xmlns:xlink="http://www.w3.org/1999/xlink" x="0px" y="0px" width="240.0" height="240.0" xml:space="preserve">
		<path d="M107.257,94.861C100.174,94.861 94.4,85.784 94.4,74.63C94.4,63.476 100.174,54.4 107.257,54.4C114.34,54.4 120.114,63.476 120.114,74.63C120.114,85.784 114.34,94.861 107.257,94.861L107.257,94.861ZM107.257,54.607C100.278,54.607 94.608,63.601 94.608,74.63C94.608,85.659 100.278,94.653 107.257,94.653C114.236,94.653 119.907,85.659 119.907,74.63C119.907,63.601 114.236,54.607 107.257,54.607Z" fill="#ffffffff" stroke="#00000000" stroke-width="1.0" stroke-miterlimit=""/>
		<path d="M117.393,78.411C117.393,82.17 115.69,85.203 113.613,85.203C111.536,85.203 109.833,82.149 109.833,78.411C109.833,74.651 111.536,71.619 113.613,71.619C115.69,71.619 117.393,74.651 117.393,78.411ZM114.776,77.164C113.966,77.164 113.322,78.307 113.322,79.74C113.322,81.173 113.966,82.315 114.776,82.315C115.586,82.315 116.23,81.173 116.23,79.74C116.23,78.307 115.565,77.164 114.776,77.164Z" fill="#000" stroke="#00000000" stroke-width="1.0" stroke-miterlimit=""/>
		<path d="M113.592,85.41C111.391,85.41 109.604,82.274 109.604,78.411C109.604,74.547 111.391,71.411 113.592,71.411C115.794,71.411 117.58,74.547 117.58,78.411C117.58,82.274 115.794,85.41 113.592,85.41ZM113.592,71.805C111.619,71.805 110.02,74.755 110.02,78.39C110.02,82.025 111.619,84.974 113.592,84.974C115.565,84.974 117.165,82.025 117.165,78.39C117.186,74.776 115.565,71.805 113.592,71.805ZM114.776,82.523C113.842,82.523 113.115,81.298 113.115,79.74C113.115,78.182 113.842,76.957 114.776,76.957C115.711,76.957 116.438,78.182 116.438,79.74C116.438,81.298 115.711,82.523 114.776,82.523ZM114.776,77.372C114.091,77.372 113.53,78.452 113.53,79.74C113.53,81.028 114.112,82.108 114.776,82.108C115.462,82.108 116.022,81.028 116.022,79.74C116.022,78.452 115.441,77.372 114.776,77.372Z" fill="#000" stroke="#00000000" stroke-width="1.0" stroke-miterlimit=""/>
		<path d="M132.764,94.861C125.681,94.861 119.907,85.784 119.907,74.63C119.907,63.476 125.681,54.4 132.764,54.4C139.846,54.4 145.621,63.476 145.621,74.63C145.621,85.784 139.846,94.861 132.764,94.861L132.764,94.861ZM132.764,54.607C125.785,54.607 120.114,63.601 120.114,74.63C120.114,85.659 125.785,94.653 132.764,94.653C139.742,94.653 145.413,85.659 145.413,74.63C145.413,63.601 139.742,54.607 132.764,54.607Z" fill="#ffffffff" stroke="#00000000" stroke-width="1.0" stroke-miterlimit=""/>
		<path d="M126.428,71.598C128.526,71.598 130.209,74.651 130.209,78.39C130.209,82.149 128.506,85.182 126.428,85.182C124.351,85.182 122.648,82.128 122.648,78.39C122.627,74.651 124.331,71.598 126.428,71.598L126.428,71.598ZM123.791,79.74C123.791,81.152 124.435,82.315 125.245,82.315C126.055,82.315 126.699,81.173 126.699,79.74C126.699,78.307 126.055,77.164 125.245,77.164C124.435,77.164 123.791,78.327 123.791,79.74Z" fill="#000" stroke="#00000000" stroke-width="1.0" stroke-miterlimit=""/>
		<path d="M125.099,92.181C125.099,94.923 122.835,97.166 120.01,97.166C117.206,97.166 114.922,94.944 114.922,92.181C114.922,89.419 117.186,87.196 120.01,87.196C122.814,87.196 125.099,89.44 125.099,92.181ZM118.328,88.9C117.393,88.9 116.646,89.627 116.646,90.541C116.646,91.454 117.393,92.181 118.328,92.181C119.263,92.181 120.01,91.454 120.01,90.541C120.01,89.627 119.263,88.9 118.328,88.9Z" fill="#000" stroke="#00000000" stroke-width="1.0" stroke-miterlimit=""/>
		<path d="M186.019,146.808C172.518,149.633 148.736,151.523 121.63,151.523L118.39,151.523C91.285,151.523 67.502,149.654 54.001,146.808L54.022,146.704C67.004,176.365 91.7,196.387 120.01,196.387C148.321,196.387 173.017,176.365 185.999,146.704" fill="#000" stroke="#00000000" stroke-width="1.0" stroke-miterlimit=""/>
		<path d="M152.953,186.667C152.953,174.225 144.499,164.152 134.072,164.152C128.485,164.152 123.458,167.059 120.01,171.67C116.562,167.059 111.536,164.152 105.949,164.152C95.522,164.152 87.089,174.225 87.068,186.667L87.047,186.688C97.017,192.898 108.192,196.387 119.99,196.387C131.787,196.387 142.962,192.898 152.932,186.688" fill="#000" stroke="#00000000" stroke-width="1.0" stroke-miterlimit=""/>
		<path d="M119.907,97.166l0.208,0l0,54.107l-0.208,0z" fill="#00000000" stroke="#000" stroke-width="1.0" stroke-miterlimit=""/>
		<path d="M192.749,204.052L47.272,204.052C46.773,204.052 46.379,203.636 46.379,203.159L46.379,201.352C46.379,200.853 46.794,200.459 47.272,200.459L192.749,200.459C193.247,200.459 193.642,200.874 193.642,201.352L193.642,203.159C193.642,203.657 193.247,204.052 192.749,204.052Z" fill="#000" stroke="#00000000" stroke-width="1.0" stroke-miterlimit=""/>
		<path d="M192.188,200.479C192.084,200.459 191.98,200.459 191.877,200.459L48.206,200.459C48.082,200.459 47.957,200.479 47.853,200.5L47.895,200.5C30.801,182.949 20.312,159.187 20.312,133.037C20.312,79.054 64.948,35.312 120.01,35.312C175.073,35.312 219.709,79.075 219.709,133.037C219.709,159.187 209.22,182.949 192.147,200.479M61.25,200.438L178.75,200.438L178.75,200.479C192.728,186.106 201.306,166.665 201.306,145.25C201.306,109.649 177.607,79.491 144.831,69.085L145.018,69.147C143.502,60.714 138.579,54.524 132.743,54.524C125.722,54.524 120.031,63.476 119.99,74.547L119.969,75.212C119.99,75.025 119.99,74.859 119.99,74.651C119.99,63.539 114.278,54.524 107.236,54.524C101.4,54.524 96.477,60.693 94.961,69.147L95.148,69.085C62.372,79.491 38.673,109.649 38.673,145.25C38.673,166.665 47.251,186.127 61.23,200.479" fill="#000" stroke="#00000000" stroke-width="1.0" stroke-miterlimit=""/>
		<path d="M99.326,127.159L99.45,127.556L45.097,144.636L44.972,144.24L99.326,127.159ZM99.385,116.483L99.385,116.898L45.029,116.898L45.029,116.483L99.385,116.483ZM44.945,88.443L45.153,88.505L99.697,105.724L99.448,106.513L99.24,106.451L44.696,89.232L44.945,88.443ZM140.601,127.154L194.949,144.246L194.824,144.642L140.477,127.55L140.601,127.154ZM194.909,116.483L194.909,116.898L140.553,116.898L140.553,116.483L194.909,116.483ZM194.971,88.443L195.221,89.232L195.013,89.294L140.469,106.513L140.22,105.724L140.428,105.662L194.971,88.443Z" fill="#00000000" stroke="#000" stroke-width="1.0" stroke-miterlimit=""/>
	</svg>
