<svg xmlns="http://www.w3.org/2000/svg" width="192" height="192" fill="none"><path stroke="#000" stroke-linecap="round" stroke-linejoin="round" stroke-width="12" d="M22 96c0 13.807 11.193 25 25 25a25 25 0 0 0 7.912-1.278 25 25 0 0 0-5.063 6.213c-6.903 11.958-2.806 27.247 9.151 34.151 11.957 6.903 27.247 2.807 34.15-9.151a25 25 0 0 0 2.85-7.491 25 25 0 0 0 2.85 7.491c6.903 11.958 22.193 16.054 34.15 9.151 11.957-6.904 16.054-22.193 9.151-34.151a25 25 0 0 0-5.063-6.213A25 25 0 0 0 145 121c13.807 0 25-11.193 25-25s-11.193-25-25-25a25 25 0 0 0-7.912 1.278 25 25 0 0 0 5.063-6.213c6.903-11.958 2.806-27.247-9.151-34.15-11.957-6.904-27.247-2.808-34.15 9.15a25 25 0 0 0-2.85 7.49 25 25 0 0 0-2.85-7.49C86.248 29.107 70.958 25.01 59 31.915c-11.957 6.903-16.054 22.192-9.15 34.15a25 25 0 0 0 5.062 6.213A25 25 0 0 0 47 71c-13.807 0-25 11.193-25 25"/><path stroke="#000" stroke-linecap="round" stroke-linejoin="round" stroke-width="12" d="M123 96c0 14.912-12.088 27-27 27s-27-12.088-27-27 12.088-27 27-27 27 12.088 27 27"/></svg>