<svg width="192" height="192" fill="none" xmlns="http://www.w3.org/2000/svg"><path d="M22 96c0 13.807 11.193 25 25 25a24.97 24.97 0 0 0 7.912-1.278 24.967 24.967 0 0 0-5.063 6.213c-6.903 11.958-2.806 27.247 9.151 34.151 11.957 6.903 27.247 2.807 34.15-9.151a24.976 24.976 0 0 0 2.85-7.491 24.976 24.976 0 0 0 2.85 7.491c6.903 11.958 22.193 16.054 34.15 9.151 11.957-6.904 16.054-22.193 9.151-34.151a24.983 24.983 0 0 0-5.063-6.213A24.97 24.97 0 0 0 145 121c13.807 0 25-11.193 25-25s-11.193-25-25-25a24.97 24.97 0 0 0-7.912 1.278 24.988 24.988 0 0 0 5.063-6.213c6.903-11.958 2.806-27.247-9.151-34.15-11.957-6.904-27.247-2.808-34.15 9.15a24.976 24.976 0 0 0-2.85 7.49 24.976 24.976 0 0 0-2.85-7.49C86.248 29.107 70.958 25.01 59 31.915c-11.957 6.903-16.054 22.192-9.15 34.15a24.972 24.972 0 0 0 5.062 6.213A24.974 24.974 0 0 0 47 71c-13.807 0-25 11.193-25 25Z" stroke="#000" stroke-width="12" stroke-linecap="round" stroke-linejoin="round"/><path d="M123 96c0 14.912-12.088 27-27 27s-27-12.088-27-27 12.088-27 27-27 27 12.088 27 27Z" stroke="#000" stroke-width="12" stroke-linecap="round" stroke-linejoin="round"/></svg>