<svg width="192" height="192" fill="none" xmlns="http://www.w3.org/2000/svg"><path d="M57.886 81.15a21.041 21.041 0 0 0-22.909-4.552 21.018 21.018 0 0 0-9.434 7.735 20.986 20.986 0 0 0 0 23.334 21.03 21.03 0 0 0 32.343 3.182m56.057-29.698a21.03 21.03 0 0 0-22.909-4.552 21.018 21.018 0 0 0-9.434 7.734 20.986 20.986 0 0 0 0 23.334 21.032 21.032 0 0 0 32.343 3.182M170 81.151a21.03 21.03 0 0 0-22.909-4.552 21.019 21.019 0 0 0-9.434 7.734 20.984 20.984 0 0 0 0 23.334A21.032 21.032 0 0 0 170 110.849" stroke="#000" stroke-width="12" stroke-linecap="round" stroke-linejoin="round"/></svg>