<?xml version="1.0" encoding="utf-8"?>
	<svg version="1.1" xmlns="http://www.w3.org/2000/svg" xmlns:xlink="http://www.w3.org/1999/xlink" x="0px" y="0px" width="240.0" height="240.0" xml:space="preserve">
		<path d="M120.154,20.002C148.193,20.197 171.76,30.639 191.318,50.521C191.855,51.066 192.411,51.594 192.957,52.13C193.129,52.641 193.421,53.049 193.937,53.262L195.497,55.058L195.497,55.058C195.763,55.754 196.203,56.309 196.843,56.7C197.082,56.998 197.322,57.297 197.56,57.595C197.784,58.226 198.153,58.743 198.678,59.138L198.875,59.276L198.87,59.273C199.071,60 199.509,60.551 200.124,60.973L200.112,60.969L200.112,60.969C200.205,61.455 200.435,61.844 200.834,62.115L200.979,62.204L201.016,62.381C201.12,62.79 201.34,63.119 201.687,63.361L201.834,63.453L202.105,63.999C202.848,65.454 203.73,66.82 204.775,68.083L204.764,68.073C204.923,68.456 205.041,68.86 205.246,69.216C214.292,84.983 218.49,101.965 218.424,120.127C218.314,149.924 218.399,179.721 218.392,209.518C218.391,214.499 216.054,216.861 211.104,216.863C180.118,216.868 149.131,216.844 118.145,216.872C112.601,216.877 107.099,216.449 101.681,215.355C73.09,209.578 50.942,194.326 35.624,169.531C23.394,149.733 19.483,128.035 22.182,105.035C23.145,96.832 25.59,89.035 28.539,81.373C29.719,78.309 31.197,75.389 32.713,72.486L34.231,69.585C34.398,69.263 34.566,68.94 34.732,68.616L35.225,67.646L35.412,67.485C35.971,66.965 36.314,66.311 36.511,65.566C36.511,65.566 36.499,65.574 36.499,65.574C36.988,65.285 37.262,64.855 37.341,64.296C37.341,64.296 37.329,64.306 37.329,64.306C38.115,63.616 38.67,62.77 39.037,61.795L39.025,61.801L39.025,61.801C39.576,61.418 39.988,60.932 40.205,60.305L40.27,60.093L40.441,59.973C40.909,59.619 41.259,59.177 41.462,58.625L41.529,58.415L41.706,58.297C42.244,57.905 42.615,57.381 42.852,56.75C43.094,56.453 43.337,56.156 43.58,55.858C44.218,55.468 44.676,54.927 44.944,54.228C51.659,46.758 59.08,40.111 67.658,34.828C83.75,24.916 101.185,19.872 120.154,20.002ZM120.211,49.877C114.306,49.843 108.489,50.513 102.763,51.93C69.859,60.078 44.475,94.839 52.618,133.488C58.663,162.182 84.344,187.826 118.992,188.137C137.944,188.308 154.415,182.254 168.036,169.024C181.747,155.707 188.912,139.395 189.593,120.26C189.632,119.157 189.276,118.815 188.174,118.822C181.596,118.864 175.018,118.865 168.441,118.821C167.361,118.814 167.031,119.109 166.99,120.222C166.884,123.083 166.615,125.941 166.01,128.749C160.841,152.755 138.42,168.163 113.828,165.205C92.129,162.595 69.003,141.247 74.415,110.439C78.157,89.145 95.765,73.729 117.521,72.382C130.631,71.57 142.159,75.774 151.844,84.711C153.091,85.861 153.71,85.761 154.819,84.618C159.008,80.299 163.227,76.002 167.597,71.867C169.137,70.411 168.965,69.678 167.495,68.364C154.019,56.314 138.357,49.933 120.211,49.877Z" fill="#000" stroke="#00000000" stroke-width="1.0" stroke-miterlimit=""/>
		<path d="M35.227,67.644C32.933,72.188 30.374,76.607 28.539,81.373C25.59,89.035 23.145,96.832 22.182,105.035C19.483,128.035 23.394,149.733 35.624,169.531C50.942,194.326 73.09,209.578 101.681,215.355C107.099,216.449 112.601,216.877 118.145,216.872C149.131,216.844 180.118,216.868 211.104,216.863C216.054,216.861 218.391,214.499 218.392,209.519C218.399,179.721 218.314,149.924 218.424,120.127C218.49,101.965 214.292,84.983 205.246,69.216C205.041,68.86 204.923,68.456 204.764,68.074C206.835,68.969 207.267,71.116 208.186,72.804C213.528,82.619 216.984,93.091 218.686,104.138C219.579,109.926 219.961,115.743 219.951,121.607C219.905,151.193 219.852,180.781 220,210.367C220.028,215.878 215.986,219.698 210.8,219.676C179.186,219.543 147.57,219.668 115.955,219.568C107.787,219.543 99.767,218.077 91.926,215.779C83.599,213.339 75.691,209.866 68.251,205.43C63.06,202.336 58.257,198.652 53.695,194.668C47.895,189.603 42.787,183.907 38.373,177.618C34.003,171.391 30.364,164.768 27.422,157.706C24.506,150.708 22.471,143.514 21.173,136.091C20.624,132.953 20.178,129.756 20.126,126.579C20.005,119.193 19.691,111.78 20.932,104.445C22.165,97.154 24,90.028 26.766,83.142C28.694,78.339 30.992,73.734 33.537,69.241C33.934,68.54 34.106,67.586 35.227,67.644" fill="#000" stroke="#00000000" stroke-width="1.0" stroke-miterlimit=""/>
	</svg>
