<?xml version="1.0" encoding="utf-8"?>
	<svg version="1.1" xmlns="http://www.w3.org/2000/svg" xmlns:xlink="http://www.w3.org/1999/xlink" x="0px" y="0px" width="240.0" height="240.0" xml:space="preserve">
		<path d="M217.419,97.177C219.752,107.35 220.46,117.619 219.642,128.021C218.706,139.911 215.76,151.265 210.693,162.047C201.652,181.283 187.893,196.222 169.471,206.821C157.63,213.634 144.886,217.739 131.304,219.284C127.478,219.719 123.641,219.791 118.975,220C89.935,219.358 64.834,208.186 44.861,185.889C35.223,175.129 28.442,162.703 24.226,148.876C23.94,147.939 24.058,147.578 25.045,147.318C34.862,144.73 44.662,142.079 54.477,139.487C57.932,138.575 60.883,140.116 62.068,143.534C65.152,152.432 69.531,160.605 75.608,167.812C87.237,181.603 101.853,190.492 119.656,193.615C143.885,197.863 165.415,191.752 183.756,175.382C196.508,163.999 204.244,149.626 207.219,132.747C208.958,122.884 208.634,113.074 206.489,103.305C205.846,100.379 206.856,98.739 209.739,97.945C211.768,97.385 213.813,96.877 215.831,96.281C216.748,96.011 217.155,96.027 217.419,97.177ZM120.27,20.008C138.471,20.016 155.477,24.579 171.082,33.962C191.366,46.158 205.627,63.429 213.967,85.592C214.315,86.516 214.102,86.794 213.223,87.011C210.726,87.629 208.252,88.341 205.759,88.977C203.241,89.619 201.746,88.962 200.572,86.632C197.432,80.404 193.586,74.662 188.861,69.523C176.819,56.426 162.036,48.245 144.424,45.762C121.812,42.574 101.563,48.372 84.204,63.306C70.039,75.492 61.786,91.059 59.021,109.527C58.367,113.892 58.277,118.295 58.366,122.707C58.45,126.854 56.958,128.78 52.927,129.865C42.943,132.551 32.952,135.208 22.977,137.926C21.898,138.22 21.606,138.067 21.413,136.912C19.725,126.811 19.542,116.697 20.902,106.547C23.428,87.684 30.765,70.89 42.881,56.263C56.327,40.03 73.28,29.073 93.621,23.441C101.187,21.345 108.901,20.17 116.759,20.011C117.929,19.988 119.1,20.008 120.27,20.008ZM120.543,100.473C122.817,105.337 124.121,110.486 124.767,115.807C124.885,116.781 124.969,117.76 125.029,118.347C125.102,121.678 123.177,123.955 120.473,124.139C117.669,124.33 115.452,122.484 115.176,119.517C114.689,114.267 113.541,109.205 111.471,104.338C110.394,101.806 111.558,99.066 113.954,97.979C116.516,96.818 119.292,97.801 120.543,100.473ZM170.049,88.617C172.045,92.821 173.257,97.282 173.989,101.869C174.254,103.529 174.407,105.206 174.537,106.272C174.62,109.827 172.724,112.092 170.007,112.312C167.265,112.533 164.964,110.624 164.692,107.704C164.204,102.454 163.065,97.39 160.993,92.522C159.887,89.925 161.089,87.17 163.578,86.099C166.098,85.014 168.802,85.99 170.049,88.617Z" fill="#000" stroke="#00000000" stroke-width="1.0" stroke-miterlimit=""/>
	</svg>
