<svg xmlns="http://www.w3.org/2000/svg" width="192" height="192" fill="none"><path stroke="#000" stroke-linecap="round" stroke-linejoin="round" stroke-width="12" d="m64 148 14.912-37.279m8.172-20.432C78.244 86.75 72 78.104 72 68c0-13.255 10.745-24 24-24s24 10.745 24 24c0 1.538-.145 3.042-.421 4.5M87.084 90.29 96 68l7.2 18m-16.116 4.29-8.172 20.431m0 0C61.968 103.938 50 87.366 50 68c0-25.405 20.595-46 46-46s46 20.595 46 46c0 4.151-.55 8.174-1.581 12M36 154a6 6 0 0 1 6-6h108a6 6 0 0 1 6 6v4c0 6.627-5.373 12-12 12H48c-6.627 0-12-5.373-12-12z"/><path stroke="#000" stroke-linecap="round" stroke-linejoin="round" stroke-miterlimit="6" stroke-width="10" d="M122.224 95.103a2.884 2.884 0 0 1 5.552 0l2.248 7.215c.391 1.253 1.512 2.102 2.776 2.102h7.276c2.827 0 4.003 3.773 1.715 5.506l-5.886 4.459c-1.023.775-1.451 2.149-1.06 3.403l2.248 7.214c.874 2.804-2.204 5.136-4.492 3.403l-5.885-4.459a2.824 2.824 0 0 0-3.432 0l-5.885 4.459c-2.288 1.733-5.366-.599-4.492-3.403l2.248-7.214c.391-1.254-.037-2.628-1.06-3.403l-5.886-4.459c-2.288-1.733-1.112-5.506 1.715-5.506h7.276c1.264 0 2.385-.849 2.776-2.102z"/></svg>