<svg xmlns="http://www.w3.org/2000/svg" width="192" height="192" fill="none"><path stroke="#000" stroke-linecap="round" stroke-linejoin="round" stroke-width="12" d="m64 148 14.912-37.279M128 148l-14.911-37.279m-8.173-20.432C113.756 86.75 120 78.104 120 68c0-13.255-10.745-24-24-24S72 54.745 72 68c0 10.104 6.244 18.75 15.084 22.29m17.832 0L96 68l-8.916 22.29m17.832 0 8.173 20.431M87.084 90.289l-8.172 20.432m0 0C61.968 103.938 50 87.366 50 68c0-25.405 20.595-46 46-46s46 20.595 46 46c0 19.367-11.968 35.938-28.911 42.721M36 154a6 6 0 0 1 6-6h108a6 6 0 0 1 6 6v4c0 6.627-5.373 12-12 12H48c-6.627 0-12-5.373-12-12z"/></svg>