<svg xmlns="http://www.w3.org/2000/svg" width="192" height="192" fill="none" viewBox="0 0 192 192"><path stroke="#000" stroke-linecap="round" stroke-linejoin="round" stroke-width="12" d="M91.478 73.873a6.396 6.396 0 0 1 9.045 0l17.604 17.605a6.4 6.4 0 0 1 0 9.045l-17.604 17.604a6.4 6.4 0 0 1-9.045 0l-17.605-17.604a6.396 6.396 0 0 1 0-9.045z"/><path stroke="#000" stroke-linecap="round" stroke-linejoin="round" stroke-width="12" d="M44.515 72H28a6 6 0 0 0-6 6v15.586a6 6 0 0 0 1.672 4.155l44.656 46.518A6 6 0 0 1 70 148.414V164a6 6 0 0 0 6 6h16.515a6 6 0 0 0 4.242-1.757l46.486-46.486a6 6 0 0 1 4.242-1.757H164a6 6 0 0 0 6-6V98.414a6 6 0 0 0-1.672-4.155L123.672 47.74A6 6 0 0 1 122 43.586V28a6 6 0 0 0-6-6H99.485a6 6 0 0 0-4.242 1.757L48.757 70.243A6 6 0 0 1 44.515 72"/></svg>