<svg width="192" height="192" fill="none" xmlns="http://www.w3.org/2000/svg"><path d="m134 68-32.393 22.213A6 6 0 0 0 99 95.16v42.24a20 20 0 0 0 13.904 19.048l1.768.566a20.002 20.002 0 0 0 17.406-2.554l24.315-16.673a6 6 0 0 0 2.607-4.949V76l-26.922 18.461a20 20 0 0 1-17.406 2.554L103 93.28" stroke="#000" stroke-width="12" stroke-linecap="round" stroke-linejoin="round"/><path d="m133.75 117 5.833-4" stroke="#000" stroke-width="10" stroke-linecap="round" stroke-linejoin="round"/><path d="M109 60 76.607 82.213A6 6 0 0 0 74 87.16v42.24a20 20 0 0 0 13.904 19.048l8.282 2.65a5.999 5.999 0 0 0 5.244-.781l1.181-.818M99 92l-21-6.72" stroke="#000" stroke-width="12" stroke-linecap="round" stroke-linejoin="round"/><path d="M83 170c-15.091 0-32.249-1.549-40.709-2.421-3.02-.312-5.291-2.865-5.291-5.902V30.323c0-3.037 2.27-5.59 5.291-5.902C50.751 23.55 67.91 22 83 22c15.091 0 32.249 1.55 40.709 2.421 3.021.312 5.291 2.865 5.291 5.902V46.5" stroke="#000" stroke-width="12" stroke-linecap="round" stroke-linejoin="round"/></svg>