<svg width="192" height="192" viewBox="0 0 192 192" fill="none" xmlns="http://www.w3.org/2000/svg"><path d="M102 80h50M86 44h66m-36 108h36m-36-36h36m-112 0h26M40 80h10m-10 0a18 18 0 0 0 0 36m46-72a16.001 16.001 0 0 0-16 16m46 56a18.01 18.01 0 0 0-12.728 5.272A18.016 18.016 0 0 0 98 134a17.998 17.998 0 0 0 18 18m-50-36a16.001 16.001 0 0 0 16-16m20-20a20 20 0 0 0-20 20M50 80a20 20 0 0 0 20-20m82 20a17.998 17.998 0 0 0 18-18 18.01 18.01 0 0 0-5.272-12.728A18.005 18.005 0 0 0 152 44m0 108a18.01 18.01 0 0 0 12.728-5.272 18.01 18.01 0 0 0 3.902-19.616 18.02 18.02 0 0 0-3.902-5.84A18.01 18.01 0 0 0 152 116" stroke="#000" stroke-width="12" stroke-linecap="round" stroke-linejoin="round"/></svg>