<svg xmlns="http://www.w3.org/2000/svg" width="192" height="192" fill="none"><path stroke="#000" stroke-linecap="round" stroke-linejoin="round" stroke-width="10" d="M151 21s5 3 11 9 9 11 9 11m-54-20s17.5 9.5 31 23 23 31 23 31M73 21s36 10 62 36 36 62 36 62"/><path stroke="#000" stroke-linecap="round" stroke-linejoin="round" stroke-width="12" d="M22 50c0-8.837 7.185-16.084 15.99-15.333 68.998 5.886 113.457 50.345 119.343 119.344C158.084 162.815 150.837 170 142 170H50c-15.464 0-28-12.536-28-28z"/><path stroke="#000" stroke-linecap="round" stroke-linejoin="round" stroke-width="12" d="M103.335 88.665a33.003 33.003 0 0 0-50.773 5.001 33 33 0 0 0 50.773 41.669"/><path stroke="#000" stroke-linecap="round" stroke-linejoin="round" stroke-width="12" d="M91.258 105.5a13 13 0 1 1-22.516 0"/></svg>