<svg xmlns="http://www.w3.org/2000/svg" width="192" height="192" fill="none"><path stroke="#000" stroke-linecap="round" stroke-linejoin="round" stroke-width="12" d="M85 51v10m22-10v10M76 79v-8a6 6 0 0 1 6-6h28a6 6 0 0 1 6 6v8m0 0a19.999 19.999 0 1 1-40 0"/><path stroke="#000" stroke-linecap="round" stroke-linejoin="round" stroke-width="12" d="M96 99v36a6 6 0 0 1-6 6H76a6 6 0 0 1-6-6v-16a6 6 0 0 0-6-6H26"/><rect width="142" height="142" x="25" y="25" stroke="#000" stroke-linecap="round" stroke-linejoin="round" stroke-width="12" rx="6"/></svg>