<svg xmlns="http://www.w3.org/2000/svg" width="192" height="192" fill="none"><circle cx="96" cy="96" r="74" stroke="#000" stroke-linecap="round" stroke-linejoin="round" stroke-width="12"/><path stroke="#000" stroke-linecap="round" stroke-linejoin="round" stroke-width="12" d="M119 76c0-2.758-.595-5.489-1.751-8.036-1.156-2.548-2.85-4.863-4.986-6.813s-4.671-3.497-7.461-4.553A24.9 24.9 0 0 0 96 55c-3.02 0-6.011.543-8.802 1.599-2.79 1.055-5.326 2.602-7.461 4.552s-3.83 4.265-4.986 6.813A19.4 19.4 0 0 0 73 76m0 40c0 2.758.595 5.489 1.75 8.036 1.157 2.548 2.85 4.863 4.987 6.813a23.3 23.3 0 0 0 7.461 4.552A24.9 24.9 0 0 0 96 137c3.02 0 6.011-.543 8.802-1.599 2.79-1.055 5.326-2.602 7.461-4.552s3.83-4.265 4.986-6.813A19.4 19.4 0 0 0 119 116M22 96h50m1-20v40"/></svg>