<svg width="192" height="192" fill="none" xmlns="http://www.w3.org/2000/svg"><circle cx="96" cy="96" r="74" stroke="#000" stroke-width="12" stroke-linecap="round" stroke-linejoin="round"/><path d="M119 76c0-2.758-.595-5.489-1.751-8.036-1.156-2.548-2.85-4.863-4.986-6.813-2.135-1.95-4.671-3.497-7.461-4.553A24.919 24.919 0 0 0 96 55c-3.02 0-6.011.543-8.802 1.599-2.79 1.055-5.326 2.602-7.461 4.552-2.136 1.95-3.83 4.265-4.986 6.813A19.426 19.426 0 0 0 73 76m0 40c0 2.758.595 5.489 1.75 8.036 1.157 2.548 2.85 4.863 4.987 6.813a23.252 23.252 0 0 0 7.461 4.552A24.9 24.9 0 0 0 96 137c3.02 0 6.011-.543 8.802-1.599 2.79-1.055 5.326-2.602 7.461-4.552 2.136-1.95 3.83-4.265 4.986-6.813A19.419 19.419 0 0 0 119 116M22 96h50m1-20v40" stroke="#000" stroke-width="12" stroke-linecap="round" stroke-linejoin="round"/></svg>