<?xml version="1.0" encoding="utf-8"?>
	<svg version="1.1" xmlns="http://www.w3.org/2000/svg" xmlns:xlink="http://www.w3.org/1999/xlink" x="0px" y="0px" width="240.0" height="240.0" xml:space="preserve">
		<path d="M0,0h240v240h-240z" fill="#000" stroke="#00000000" stroke-width="1.0" stroke-miterlimit=""/>
		<path d="M36.09,89.38C40.11,79.675 46.002,70.858 53.43,63.43L39.3,49.3C0.248,88.352 0.248,151.668 39.3,190.72L53.44,176.58C30.554,153.697 23.71,119.278 36.1,89.38L36.09,89.38ZM73.05,104.69C75.061,99.84 78.007,95.432 81.72,91.72L67.57,77.57C56.316,88.822 49.993,104.085 49.993,120C49.993,135.915 56.316,151.178 67.57,162.43L81.72,148.28C70.278,136.842 66.852,119.638 73.04,104.69L73.05,104.69ZM205.63,89.39C201.608,79.681 195.712,70.86 188.28,63.43L202.43,49.29C221.186,68.042 231.723,93.478 231.723,120C231.723,146.522 221.186,171.958 202.43,190.71L188.28,176.57C211.166,153.691 218.013,119.277 205.63,89.38L205.63,89.39ZM168.67,104.69C166.659,99.84 163.713,95.433 160,91.72L174.14,77.57C185.394,88.822 191.717,104.085 191.717,120C191.717,135.915 185.394,151.178 174.14,162.43L160,148.28C171.434,136.838 174.855,119.637 168.67,104.69L168.67,104.69ZM130,110L130,50L80,130L110,130L110,190L160,110L130,110Z" fill="#000" stroke="#00000000" stroke-width="1.0" stroke-miterlimit=""/>
	</svg>
