<?xml version="1.0" encoding="UTF-8" standalone="no"?>
<svg
   width="192"
   height="192"
   viewBox="0 0 192 192"
   fill="none"
   version="1.1"
   id="svg14"
   xml:space="preserve"
   xmlns="http://www.w3.org/2000/svg"
   xmlns:svg="http://www.w3.org/2000/svg"><defs
     id="defs18"><filter
       id="mask-powermask-path-effect3828_inverse"
       style="color-interpolation-filters:sRGB"
       height="100"
       width="100"
       x="-50"
       y="-50"><feColorMatrix
         id="mask-powermask-path-effect3828_primitive1"
         values="1"
         type="saturate"
         result="fbSourceGraphic" /><feColorMatrix
         id="mask-powermask-path-effect3828_primitive2"
         values="-1 0 0 0 1 0 -1 0 0 1 0 0 -1 0 1 0 0 0 1 0 "
         in="fbSourceGraphic" /></filter><filter
       id="mask-powermask-path-effect3854_inverse"
       style="color-interpolation-filters:sRGB"
       height="100"
       width="100"
       x="-50"
       y="-50"><feColorMatrix
         id="mask-powermask-path-effect3854_primitive1"
         values="1"
         type="saturate"
         result="fbSourceGraphic" /><feColorMatrix
         id="mask-powermask-path-effect3854_primitive2"
         values="-1 0 0 0 1 0 -1 0 0 1 0 0 -1 0 1 0 0 0 1 0 "
         in="fbSourceGraphic" /></filter><filter
       id="mask-powermask-path-effect3872_inverse"
       style="color-interpolation-filters:sRGB"
       height="100"
       width="100"
       x="-50"
       y="-50"><feColorMatrix
         id="mask-powermask-path-effect3872_primitive1"
         values="1"
         type="saturate"
         result="fbSourceGraphic" /><feColorMatrix
         id="mask-powermask-path-effect3872_primitive2"
         values="-1 0 0 0 1 0 -1 0 0 1 0 0 -1 0 1 0 0 0 1 0 "
         in="fbSourceGraphic" /></filter><filter
       id="mask-powermask-path-effect3891_inverse"
       style="color-interpolation-filters:sRGB"
       height="100"
       width="100"
       x="-50"
       y="-50"><feColorMatrix
         id="mask-powermask-path-effect3891_primitive1"
         values="1"
         type="saturate"
         result="fbSourceGraphic" /><feColorMatrix
         id="mask-powermask-path-effect3891_primitive2"
         values="-1 0 0 0 1 0 -1 0 0 1 0 0 -1 0 1 0 0 0 1 0 "
         in="fbSourceGraphic" /></filter><clipPath
       clipPathUnits="userSpaceOnUse"
       id="clipPath3929"><circle
         style="display:none;fill:#ffffff;fill-opacity:1;stroke:none;stroke-width:12;stroke-dasharray:none"
         id="circle3931"
         clip-path="none"
         mask="none"
         r="6"
         cy="117.5"
         cx="117.5" /></clipPath><clipPath
       clipPathUnits="userSpaceOnUse"
       id="clipPath5965"><path
         id="lpe_path-effect5969"
         style="fill:#000000;fill-opacity:1;stroke:none;stroke-width:12;stroke-dasharray:none"
         class="powerclip"
         d="M 53.303001,53.303001 H 138.697 V 138.697 H 53.303001 Z M 121.697,115.697 a 6,6 0 0 0 -6,-6 6,6 0 0 0 -6,6 6,6 0 0 0 6,6 6,6 0 0 0 6,-6 z" /></clipPath><clipPath
       clipPathUnits="userSpaceOnUse"
       id="clipPath1036"><path
         style="color:#000000;fill:#000000;-inkscape-stroke:none"
         d="m 59.716797,120.875 c -4.194278,15.65326 -3.691487,30.79671 4.433594,42.55469 8.12508,11.75797 22.336325,16.79492 36.042969,16.79492 v -32.66406 c -6.753224,0 -8.338357,-1.49497 -9.171876,-2.70118 -0.833518,-1.2062 -2.452371,-5.45848 0.246094,-15.52929 z"
         id="path1038" /></clipPath></defs><path
     style="opacity:1;fill:none;stroke:#000000;stroke-width:12;stroke-linecap:round;stroke-linejoin:round"
     id="path1"
     d="m 58.847817,125.07534 a 22.450022,22.401098 0 0 1 -30.76015,-1.78767 22.450022,22.401098 0 0 1 0,-30.745136 22.450022,22.401098 0 0 1 30.76015,-1.78767" /><ellipse
     style="display:inline;opacity:1;fill:none;stroke:#000000;stroke-width:12;stroke-linejoin:round"
     id="path1-3"
     cx="123.29263"
     cy="107.9456"
     rx="22.450022"
     ry="22.401098" /><ellipse
     style="opacity:1;fill:#000000;fill-opacity:1;stroke:none;stroke-width:12;stroke-linejoin:round"
     id="path2"
     cx="82.348343"
     cy="130.29117"
     rx="6"
     ry="5.9869251" /><ellipse
     style="opacity:1;fill:#000000;fill-opacity:1;stroke:none;stroke-width:12;stroke-linejoin:round"
     id="path2-7"
     cx="170.11325"
     cy="61.633083"
     rx="6"
     ry="5.9869251" /><path
     style="opacity:1;fill:none;stroke:#000000;stroke-width:12;stroke-linecap:round;stroke-linejoin:miter;stroke-dasharray:none;stroke-opacity:1"
     d="M 169.98971,85.537336 V 130.35384"
     id="path3-6" /><path
     style="fill:none;stroke:#000000;stroke-width:12;stroke-linecap:round;stroke-linejoin:miter;stroke-dasharray:none;stroke-opacity:1"
     d="M 145.74264,85.537345 V 130.35384"
     id="path3-6-3" /></svg>
