<svg width="192" height="192" viewBox="0 0 192 192" fill="none" xmlns="http://www.w3.org/2000/svg"><path d="M126 126H26m140-60H66m0-40v100m60-60v100m-55.515 4h51.03a6 6 0 0 0 4.242-1.757l42.486-42.486a6 6 0 0 0 1.757-4.242v-51.03a6 6 0 0 0-1.757-4.242l-42.486-42.486A5.998 5.998 0 0 0 121.515 22h-51.03a6 6 0 0 0-4.242 1.757L23.757 66.243A6 6 0 0 0 22 70.485v51.03a6 6 0 0 0 1.757 4.242l42.486 42.486A6 6 0 0 0 70.485 170Z" stroke="#000" stroke-width="12" stroke-linecap="round" stroke-linejoin="round"/></svg>