<svg xmlns="http://www.w3.org/2000/svg" width="192" height="192" fill="none"><path stroke="#000" stroke-linecap="round" stroke-linejoin="round" stroke-width="10" d="M63 115c51 21 68-19 68-19"/><path stroke="#000" stroke-linecap="round" stroke-linejoin="round" stroke-width="10" d="M63 115s12 27 34 25 37-16 34-44m-72 0s1-25 26-17m19-4s5-16 22-1"/><path stroke="#000" stroke-linecap="round" stroke-linejoin="round" stroke-width="12" d="M170 136.099V76.285c0-17.618-14.327-31.9-32-31.9h-17.021a6 6 0 0 1-4.78-2.367l-12.232-16.074c-4.002-5.259-11.932-5.259-15.934 0L75.801 42.018a6 6 0 0 1-4.78 2.367H54c-17.673 0-32 14.282-32 31.9V136.1c0 17.618 14.327 31.9 32 31.9h84c17.673 0 32-14.282 32-31.901"/></svg>