<svg width="192" height="192" viewBox="0 0 192 192" fill="none" xmlns="http://www.w3.org/2000/svg"><path d="M115.938 31.987a24.178 24.178 0 0 0-2.486-2.897A24.389 24.389 0 0 0 96.25 22a24.39 24.39 0 0 0-17.203 7.09 24.145 24.145 0 0 0-7.125 17.116v36.31l-1.978 1.134-.989.568m-17.8-38.484a24.311 24.311 0 0 0-5.172.796 24.225 24.225 0 0 0-14.74 11.283 24.187 24.187 0 0 0-2.41 18.394 24.309 24.309 0 0 0 11.331 14.73l31.59 18.245.004 4.545.002 2.273m20.298-51.068 3.95 2.28 31.538-18.155a24.342 24.342 0 0 1 33.189 8.903 24.218 24.218 0 0 1 2.443 18.399 24.21 24.21 0 0 1-1.933 4.957m-85.183 78.697a24.221 24.221 0 0 0 2.486 2.897A24.388 24.388 0 0 0 95.75 170a24.39 24.39 0 0 0 17.203-7.09 24.144 24.144 0 0 0 7.125-17.116v-36.31l1.978-1.134.989-.568m17.8 38.484a24.314 24.314 0 0 0 5.172-.796 24.225 24.225 0 0 0 14.739-11.283 24.182 24.182 0 0 0 2.411-18.394 24.311 24.311 0 0 0-11.331-14.731l-31.59-18.244-.004-4.545L120.24 76m-20.298 51.068-3.95-2.28-31.538 18.155a24.319 24.319 0 0 1-18.43 2.405 24.341 24.341 0 0 1-14.759-11.308 24.22 24.22 0 0 1-2.443-18.399 24.169 24.169 0 0 1 1.933-4.957" stroke="#000" stroke-width="12" stroke-linecap="round" stroke-linejoin="round"/><circle cx="96" cy="96" r="4" stroke="#000" stroke-width="8" stroke-linecap="round" stroke-linejoin="round"/></svg>