<svg width="192" height="192" viewBox="0 0 192 192" fill="none" xmlns="http://www.w3.org/2000/svg"><path d="M125.163 51.949c1.952.347 3.886.793 5.795 1.336C132.548 44.163 128 28 113.525 24.087A74.185 74.185 0 0 0 96 22c-40.87 0-74 33.13-74 74 0 40.869 33.13 74 74 74 40.869 0 74-33.131 74-74 0-11.757-2.742-22.873-7.621-32.745 0 0 1.972 22.396-1.879 32.745l-8.516-10.853c.037 7.77-.984 19.353-6.68 27.837C128 134.5 104 135.043 86.049 114.255c-13.663-20.442-6.886-36.202-1.247-45.093m40.361-17.213c-20.97-3.71-33.704 6.715-40.361 17.213m40.361-17.213s.344 4.89-4.366 17.213c-6.237 15.877-29.315 14.714-35.995 0" stroke="#000" stroke-width="12" stroke-linecap="round" stroke-linejoin="round"/></svg>