<svg width="192" height="192" viewBox="0 0 192 192" fill="none" xmlns="http://www.w3.org/2000/svg"><path d="M109 91V62.504a6 6 0 0 0-3.052-5.226l-33-18.615a6 6 0 0 0-5.896 0L31 59m65-37 36.048 21.259A6 6 0 0 1 135 48.427V91" stroke="#000" stroke-width="12" stroke-linecap="round" stroke-linejoin="round"/><path d="m94.29 110.39 24.678 14.248a6 6 0 0 0 6.052-.031l32.621-19.271a5.999 5.999 0 0 0 2.948-5.106l.414-41.39m-.457 74.791-36.435 20.589a6 6 0 0 1-5.952-.027L81.29 132.906" stroke="#000" stroke-width="12" stroke-linecap="round" stroke-linejoin="round"/><path d="m84.256 86.447-24.678 14.248a5.999 5.999 0 0 0-3 5.256l.379 37.886a5.999 5.999 0 0 0 2.947 5.106l35.639 21.054M31 132.205l.387-41.848a6 6 0 0 1 3-5.14L71.256 63.93" stroke="#000" stroke-width="12" stroke-linecap="round" stroke-linejoin="round"/></svg>