<svg xmlns="http://www.w3.org/2000/svg" width="192" height="192" fill="none"><path stroke="#000" stroke-linecap="round" stroke-linejoin="round" stroke-width="10" d="M66 119c-22.091 0-40-17.909-40-40s17.909-40 40-40c21.876 0 39.65 17.56 39.995 39.354A39.8 39.8 0 0 1 126 73c22.091 0 40 17.909 40 40s-17.909 40-40 40c-21.876 0-39.65-17.561-39.995-39.354A39.8 39.8 0 0 1 66 119m70-58c0-22.091-17.909-40-40-40S56 38.909 56 61c0 15.06 8.323 28.176 20.62 35C64.323 102.824 56 115.94 56 131c0 22.091 17.909 40 40 40s40-17.909 40-40c0-15.06-8.323-28.176-20.62-35C127.677 89.176 136 76.06 136 61m-10 58c22.091 0 40-17.909 40-40s-17.909-40-40-40c-21.876 0-39.65 17.56-39.995 39.354A39.8 39.8 0 0 0 66 73c-22.091 0-40 17.909-40 40s17.909 40 40 40c21.876 0 39.65-17.561 39.995-39.354A39.8 39.8 0 0 0 126 119"/></svg>