<svg width="192" height="192" viewBox="0 0 192 192" fill="none" xmlns="http://www.w3.org/2000/svg"><path d="m96 92 3 4s-1.5-.667-3-.667S93 96 93 96l3-4Z" stroke="#000" stroke-width="8" stroke-linecap="round" stroke-linejoin="round"/><path d="m96 112 4-3s-2 .5-4 .5-4-.5-4-.5l4 3Z" stroke="#000" stroke-width="6" stroke-linecap="round" stroke-linejoin="round"/><circle cx="96" cy="96" r="36" stroke="#000" stroke-width="12" stroke-linecap="round" stroke-linejoin="round"/><path d="M62.33 79.841c-1.806-5.268-4.966-9.652-8.99-12.47-4.023-2.819-8.685-3.914-13.263-3.118-4.578.797-8.815 3.441-12.055 7.523-3.24 4.083-5.302 9.375-5.865 15.055-.564 5.681.402 11.433 2.749 16.365 2.346 4.932 5.941 8.767 10.227 10.911 4.286 2.144 9.024 2.477 13.479.947 4.455-1.529 8.377-4.836 11.16-9.407m69.897-25.806c1.807-5.268 4.967-9.652 8.99-12.47 4.024-2.819 8.686-3.914 13.264-3.118 4.577.797 8.815 3.441 12.055 7.523 3.24 4.083 5.302 9.375 5.865 15.055.564 5.681-.403 11.433-2.749 16.365-2.346 4.932-5.941 8.767-10.227 10.911-4.286 2.144-9.024 2.477-13.479.947-4.455-1.529-8.377-4.836-11.159-9.407" stroke="#000" stroke-width="12" stroke-linecap="round" stroke-linejoin="round"/></svg>