<?xml version="1.0" encoding="UTF-8" standalone="no"?>
<!-- Created with Inkscape (http://www.inkscape.org/) -->

<svg
   width="192"
   height="192"
   viewBox="0 0 50.799999 50.799999"
   version="1.1"
   id="svg826"
   xmlns="http://www.w3.org/2000/svg"
   xmlns:svg="http://www.w3.org/2000/svg">
  <defs
     id="defs823" />
  <g
     id="layer1">
    <path
       style="fill:none;stroke:#000000;stroke-width:3.17499994;stroke-miterlimit:4;stroke-dasharray:none;stroke-opacity:1;stroke-linecap:round;paint-order:normal"
       id="path911"
       d="M 41.495297,31.5893 A 17.4625,15.956396 0 0 1 21.944757,41.040922 17.4625,15.956396 0 0 1 7.9375,25.399644 17.4625,15.956396 0 0 1 21.945519,9.758937 17.4625,15.956396 0 0 1 41.495598,19.211355" />
    <path
       style="fill:none;fill-opacity:1;stroke:#000000;stroke-width:0.26458333;stroke-linecap:butt;stroke-linejoin:miter;stroke-miterlimit:4;stroke-dasharray:none;stroke-opacity:1"
       d="m 11.352767,37.145155 c 0.188166,3.099176 -1.8805584,4.621672 -1.8787929,4.626858 0.00139,0.0041 4.2910489,0.408934 6.1886749,-1.317629 l -4.490545,-4.37001 z"
       id="path1391" />
    <path
       style="fill:#000000;fill-opacity:1;stroke:#000000;stroke-width:1.58749997;stroke-linecap:butt;stroke-linejoin:round;stroke-miterlimit:4;stroke-dasharray:none;stroke-opacity:1"
       d="m 11.342969,36.76011 c 0,0 0.146659,1.430986 -0.315935,2.776209 -0.462595,1.345224 -1.6443318,2.252721 -1.6443318,2.252721 0,0 1.8474258,0.131704 3.5382198,-0.160213 1.690793,-0.29192 2.591449,-1.055024 2.730038,-1.189125 1.220148,-1.180635 0.02828,-0.677513 0.02828,-0.677513 l -0.141574,-0.91472 -3.929734,-2.934727 -0.398164,-0.363354 0.07899,0.630623 z"
       id="path12783" />
    <circle
       style="fill:#000000;fill-opacity:1;stroke:none;stroke-width:3.175;stroke-linecap:butt;stroke-linejoin:round;stroke-miterlimit:4;stroke-dasharray:none;stroke-opacity:1;paint-order:normal"
       id="path14503"
       cy="25.399811"
       cx="17.400126"
       r="3.175" />
    <circle
       style="fill:#000000;fill-opacity:1;stroke:none;stroke-width:3.175;stroke-linecap:butt;stroke-linejoin:round;stroke-miterlimit:4;stroke-dasharray:none;stroke-opacity:1;paint-order:normal"
       id="path14503-3"
       cy="25.4"
       cx="25.4"
       r="3.175" />
    <circle
       style="fill:#000000;fill-opacity:1;stroke:none;stroke-width:3.175;stroke-linecap:butt;stroke-linejoin:round;stroke-miterlimit:4;stroke-dasharray:none;stroke-opacity:1;paint-order:normal"
       id="path14503-3-6"
       cy="25.4"
       cx="33.399998"
       r="3.175" />
  </g>
</svg>
