<?xml version="1.0" encoding="UTF-8" standalone="no"?>
<!-- Created with Inkscape (http://www.inkscape.org/) -->

<svg
   width="192"
   height="192"
   viewBox="0 0 50.799999 50.799999"
   version="1.1"
   id="svg826"
   xmlns="http://www.w3.org/2000/svg"
   xmlns:svg="http://www.w3.org/2000/svg">
  <defs
     id="defs823" />
  <g
     id="layer1">
    <path
       style="fill:none;stroke:#000000;stroke-width:3.175;stroke-linecap:round;stroke-miterlimit:4;stroke-dasharray:none;stroke-opacity:1;paint-order:normal"
       id="path911"
       d="M 44.979033,33.275216 A 20.376616,18.619175 0 0 1 22.165928,44.30411 20.376616,18.619175 0 0 1 5.8211613,26.05264 20.376616,18.619175 0 0 1 22.166818,7.8018357 20.376616,18.619175 0 0 1 44.979385,18.831658" />
    <path
       style="fill:none;fill-opacity:1;stroke:#000000;stroke-width:0.308737;stroke-linecap:butt;stroke-linejoin:miter;stroke-miterlimit:4;stroke-dasharray:none;stroke-opacity:1"
       d="m 9.8063659,39.758227 c 0.2195671,3.616362 -2.1943834,5.392929 -2.1923232,5.398981 0.00161,0.0047 5.0071333,0.477175 7.2214303,-1.537514 L 9.5955542,38.520425 Z"
       id="path1391" />
    <path
       style="fill:#000000;fill-opacity:1;stroke:#000000;stroke-width:1.85243;stroke-linecap:butt;stroke-linejoin:round;stroke-miterlimit:4;stroke-dasharray:none;stroke-opacity:1"
       d="m 9.7949327,39.308924 c 0,0 0.1711325,1.669789 -0.3686584,3.239501 -0.5397917,1.569712 -1.9187352,2.628652 -1.9187352,2.628652 0,0 2.1557226,0.153681 4.1286709,-0.18695 1.972951,-0.340634 3.023907,-1.231084 3.185623,-1.387564 1.423765,-1.377659 0.03301,-0.790576 0.03301,-0.790576 l -0.165207,-1.067366 -4.585521,-3.424472 -0.4646103,-0.42399 0.092175,0.73586 z"
       id="path12783" />
    <circle
       style="fill:#000000;fill-opacity:1;stroke:none;stroke-width:3.70484;stroke-linecap:butt;stroke-linejoin:round;stroke-miterlimit:4;stroke-dasharray:none;stroke-opacity:1;paint-order:normal"
       id="path14503"
       cy="26.052835"
       cx="16.8629"
       r="3.704839" />
    <circle
       style="fill:#000000;fill-opacity:1;stroke:none;stroke-width:3.70484;stroke-linecap:butt;stroke-linejoin:round;stroke-miterlimit:4;stroke-dasharray:none;stroke-opacity:1;paint-order:normal"
       id="path14503-3"
       cy="26.053055"
       cx="26.197777"
       r="3.704839" />
    <circle
       style="fill:#000000;fill-opacity:1;stroke:none;stroke-width:3.70484;stroke-linecap:butt;stroke-linejoin:round;stroke-miterlimit:4;stroke-dasharray:none;stroke-opacity:1;paint-order:normal"
       id="path14503-3-6"
       cy="26.053055"
       cx="35.53281"
       r="3.704839" />
  </g>
</svg>
