<svg xmlns="http://www.w3.org/2000/svg" width="192" height="192" fill="none" viewBox="0 0 192 192"><path stroke="#000" stroke-linecap="round" stroke-width="12" d="M96 148.41c5.558 12.709 18.242 21.59 33 21.59 19.882 0 36-16.118 36-36s-16.118-36-36-36c-14.758 0-27.442 8.881-33 21.59m0 28.82c-1.93-4.412-3-9.286-3-14.41s1.07-9.998 3-14.41m0 28.82C90.442 161.119 77.758 170 63 170c-19.882 0-36-16.118-36-36s16.118-36 36-36c14.758 0 27.442 8.881 33 21.59M117.5 22a149 149 0 0 0-16 10.434m0 0c-21.207 15.861-37.71 40.331-41 65.651m41-65.651c-2.502 32.658 20 42.066 30 65.651"/><path stroke="#000" stroke-linecap="round" stroke-width="12" d="M167.806 51.728c-18.601-14.4-40.728-22.908-60.002-14.229-2.777 1.25-3.768 4.621-2.257 7.265 13.381 23.422 34.944 24.499 60.499 16.503 4.286-1.341 5.311-6.79 1.76-9.539Z"/></svg>