<svg width="192" height="192" viewBox="0 0 192 192" fill="none" xmlns="http://www.w3.org/2000/svg">
<path d="M119.252 24C113.083 27.322 107.68 30.6288 102.87 34.1068M102.87 34.1068C83.9371 47.7973 64.8211 77.806 64.8211 97.1343M102.87 34.1068C93.8862 62.4964 117.667 74.1493 127.179 97.1343M64.8211 97.1343C46.1422 97.1343 31 112.103 31 130.567C31 149.032 46.1422 164 64.8211 164C78.8445 164 90.8744 155.563 96 143.544M64.8211 97.1343C78.8445 97.1343 90.8744 105.571 96 117.59M127.179 97.1343C145.858 97.1343 161 112.103 161 130.567C161 149.032 145.858 164 127.179 164C113.156 164 101.126 155.563 96 143.544M127.179 97.1343C113.156 97.1343 101.126 105.571 96 117.59M96 117.59C94.2984 121.58 93.3577 125.965 93.3577 130.567C93.3577 135.169 94.2984 139.554 96 143.544" stroke="black" stroke-width="12" stroke-linecap="round"/>
<path d="M165.48 52.3569C148.6 39.4132 128.652 31.8349 111.194 39.5032C108.414 40.7244 107.421 44.0871 108.94 46.7161C121.142 67.8227 140.633 68.9575 163.729 61.8387C168.012 60.5187 169.036 55.0837 165.48 52.3569Z" stroke="black" stroke-width="12" stroke-linecap="round"/>
</svg>
