<svg width="192" height="192" viewBox="0 0 192 192" fill="none" xmlns="http://www.w3.org/2000/svg"><path d="M141.787 101.176c7.369-1.9 13.682.782 17.847 5.322 13.152 14.825-1.856 35.122-3.09 36.738-.059.077-.107.142-.164.22-7.247 10.102-19.903 19.92-40.866 24.654-33.981 7.674-76.937-7.537-85.877-54.473-8.65-45.413 17.935-81.616 57.253-89.97 30.568-6.487 58.412 6.818 62.652 24.936 2.689 11.954-2.865 21.308-14.379 23.66-19.446 3.964-23.537-14.84-41.012-12.125-19.9 3.087-22.324 24.072-19.493 38.316 3.454 17.343 14.786 31.766 32.694 27.96 15.782-3.354 19.581-21.562 34.435-25.238Z" stroke="#000" stroke-width="12" stroke-linecap="round" stroke-linejoin="round"/></svg>