<?xml version="1.0" encoding="UTF-8"?>
<svg id="Layer_1" xmlns="http://www.w3.org/2000/svg" version="1.1" viewBox="0 0 192 192">
  <!-- Generator: Adobe Illustrator 29.0.0, SVG Export Plug-In . SVG Version: 2.1.0 Build 186)  -->
  <path d="M55.1,56c-.7,0-1.5-.3-2-.9-.3-.3-.5-.6-.7-.8-.5-.6-.7-1.3-.6-2,0-.7.5-1.4,1.1-1.8,5.3-3.9,11.6-6.4,17.3-6.9h0c9.6-.8,18.6,1.6,25.3,6.9.6.5,1,1.1,1,1.9,0,.7-.2,1.5-.7,2l-.7.7c-.9,1-2.4,1.2-3.5.3-10.3-7.5-24.6-7.5-34.9,0-.5.3-1,.5-1.6.5h0ZM73.8,45c-1.2,0-2.3,0-3.5.2h0c-5.4.5-11.4,2.9-16.4,6.6-.2.1-.3.4-.4.6,0,.3,0,.5.2.7.2.2.4.5.7.8.3.3.8.4,1.2.1,10.9-8,26.2-8,37,0,.4.3.9.2,1.2-.1l.7-.7c.2-.2.3-.4.2-.7s-.1-.5-.3-.6c-5.6-4.4-12.8-6.7-20.6-6.7h0Z"/>
  <path d="M61.1,63.6c-.5,0-1-.2-1.3-.6l-1.9-2.4c-.3-.4-.4-.9-.4-1.4,0-.5.4-.9.8-1.2.5-.3.9-.6,1.4-.9.9-.6,1.8-1.3,2.9-1.8,7-3.4,15-3.6,22.1-.5.6.2,2.1,1,3.5,1.9,2.7,1.6,3.1,2.3,3,3.1,0,.5-.4.8-1.2,1.7-.4.4-.9.9-1.2,1.3-.6.8-1.6.9-2.4.4h0c-7.3-5.3-17.4-5.3-24.1,0-.3.3-.7.4-1.1.4h0ZM59.2,59.5l1.9,2.3c3.7-2.9,8.2-4.5,13.1-4.4,4.7,0,9.3,1.6,13.1,4.3.4-.5.9-1,1.3-1.5.2-.2.4-.5.6-.7-.9-.8-4.1-2.6-5.3-3.1-6.6-2.9-14.1-2.7-20.6.5-.9.4-1.8,1-2.6,1.6-.5.3-.9.6-1.4.9h0ZM87.3,61.7h0ZM89.4,59.3h0Z"/>
  <path d="M97.2,147.4l-11.8-17.5H20v-49.5l44.1-.3,10-20.6,9.7,20.5h26.3l9.8-20.7,9.8,20.7,44.4.4v49.4h-65.4s-11.4,17.6-11.4,17.6h0ZM23.5,126.2h63.8c0,.1,9.8,14.7,9.8,14.7l9.6-14.8h63.8s0-42.3,0-42.3l-43.1-.4-7.6-16-7.6,16h-30.8l-7.5-15.8-7.7,16-42.8.3v42.3h0Z"/>
  <path d="M117.4,117.9h-11.2v-20h11.2v20h0ZM108.6,115.5h6.5v-15.3h-6.4s0,15.3,0,15.3Z"/>
  <path d="M87.7,117.9h-11.2v-20h11.2v20ZM78.9,115.5h6.5v-15.3h-6.5v15.3Z"/>
</svg>