<?xml version="1.0" encoding="utf-8"?>
	<svg version="1.1" xmlns="http://www.w3.org/2000/svg" xmlns:xlink="http://www.w3.org/1999/xlink" x="0px" y="0px" width="240.0" height="240.0" xml:space="preserve">
		<path d="M132.935,122.36l3.7,0l0,16l-3.7,0z" fill="#000" stroke="#00000000" stroke-width="1.0" stroke-miterlimit=""/>
		<path d="M79.635,117.995L83.335,117.995L84.065,101.995L79.635,101.995C79.251,107.321 79.251,112.669 79.635,117.995L79.635,117.995Z" fill="#000" stroke="#00000000" stroke-width="1.0" stroke-miterlimit=""/>
		<path d="M132.935,102.03l3.7,0l0,13.07l-3.7,0z" fill="#000" stroke="#00000000" stroke-width="1.0" stroke-miterlimit=""/>
		<path d="M120,20C64.772,20 20,64.772 20,120C20,175.228 64.772,220 120,220C175.228,220 220,175.228 220,120C220,93.478 209.464,68.043 190.711,49.289C171.957,30.536 146.522,20 120,20ZM194.37,146.365C193.635,146.365 189.935,145.635 189.935,145.635C190.305,149.989 190.305,154.366 189.935,158.72C189.2,160.185 188.47,161.635 180.29,161.635L59.65,161.635C59.65,161.635 51.475,162.365 52.25,152.91L52.98,146.365L48.555,146.365C48.555,146.365 46.31,146.365 46.31,144.9L46.31,139.08C46.954,138.078 48.099,137.515 49.285,137.615L52.255,137.615L52.985,101.99L52.255,101.26L47.755,101.26C47.755,101.26 46.29,101.26 46.29,99.06L46.29,94.7C46.29,94.7 46.29,93.23 48.53,93.23C50.77,93.23 52.96,94.7 52.96,93.23L52.96,81.6C52.96,81.6 51.46,78.685 57.395,77.96L181.78,77.96C181.78,77.96 181.045,78.69 186.215,78.69C186.215,78.69 189.915,78.69 189.18,85.23L189.915,92.505C189.915,92.505 189.915,94.685 192.15,93.24L195.08,93.24C195.08,93.24 196.58,93.24 196.58,96.15L196.58,100.51C196.58,100.51 196.58,101.975 194.345,101.975L189.91,101.975L189.91,136.875C189.91,136.875 189.175,138.375 191.375,138.375L191.375,138.35L194.345,138.35C194.345,138.35 196.58,138.35 196.58,139.815L196.58,145.635C195.884,145.988 195.139,146.234 194.37,146.365L194.37,146.365Z" fill="#000" stroke="#00000000" stroke-width="1.0" stroke-miterlimit=""/>
		<path d="M61.115,85.995L61.115,152.88L181.8,152.88L181.065,86.725L61.115,85.995ZM89.255,125.995C86.053,126.354 82.822,126.354 79.62,125.995L79.62,147.07C79.222,147.466 78.706,147.722 78.15,147.8L70.74,147.8L70.74,126.73C70.74,126.73 69.975,126.73 69.975,125.265L69.975,118.73C69.975,118.73 69.975,117.28 70.74,117.28L70.74,95.48C70.544,95.301 70.428,95.05 70.416,94.785C70.405,94.519 70.5,94.26 70.68,94.065L70.74,94.01L89.24,94.01C90.717,94.295 91.875,95.445 92.17,96.92L92.17,118.73C92.575,119.07 92.629,119.674 92.29,120.08C92.253,120.121 92.213,120.16 92.17,120.195C91.975,120.36 93.685,125.265 89.255,125.995L89.255,125.995ZM118.915,140.555C119.23,142.564 117.93,144.473 115.945,144.915C112.042,145.623 108.07,145.87 104.11,145.65C94.465,145.65 95.93,141.285 95.93,141.285L95.93,94.73C97.122,94.338 98.358,94.094 99.61,94.005C100.87,93.91 104.11,93.275 104.11,94.735C104.11,96.195 104.845,137.625 104.845,137.625L110.015,137.625C110.745,137.625 110.015,94.735 110.015,94.735C110.015,94.735 109.28,94.005 111.515,94.005C114.007,93.808 116.514,94.055 118.92,94.735L118.915,140.555ZM145.54,124.555L145.54,142.005C145.54,142.005 145.54,145.635 139.6,145.635L124.795,145.635L124.055,144.17L124.795,122.36C124.795,122.36 123.325,122.36 123.325,121.63L123.325,115.08C123.325,115.08 123.325,114.375 124.795,114.375L124.795,95.475C124.795,95.475 123.325,94.005 132.2,94.735C132.2,94.735 144.07,93.275 145.54,96.92L144.81,112.19C144.81,112.19 146.275,117.28 142.57,118.01C144.979,119.211 146.218,121.935 145.54,124.54L145.54,124.555ZM161.1,102.055C161.1,102.055 160.37,102.055 160.37,104.96L160.37,138.4C161.98,139.279 163.925,139.279 165.535,138.4L165.535,124.555C165.535,124.555 166.31,122.36 164.075,123.09C163.63,120.442 163.63,117.738 164.075,115.09L173.72,115.09L173.72,141.99C173.72,141.99 174.45,145.62 168.51,146.355C164.574,146.77 160.606,146.77 156.67,146.355C152.74,145.93 152.235,145.62 152.235,142.715C152.235,139.81 151.505,100.56 152.235,99.095C152.267,96.946 153.815,95.119 155.93,94.735L155.93,94.76L170.015,94.76C171.909,95.04 173.406,96.511 173.72,98.4C173.72,101.31 174.45,107.13 172.95,107.13L166.31,107.13L166.31,102.055L161.1,102.055Z" fill="#000" stroke="#00000000" stroke-width="1.0" stroke-miterlimit=""/>
	</svg>
