<svg xmlns="http://www.w3.org/2000/svg" width="192" height="192" fill="none" viewBox="0 0 192 192"><path stroke="#000" stroke-linecap="round" stroke-linejoin="round" stroke-width="12" d="M75.5 78 74 86m37.5-2-1.5 8"/><path stroke="#000" stroke-linejoin="round" stroke-width="12" d="M44.594 87.13C49.065 62.047 71.082 43 97.57 43c41.906 0 39.319 33.465 72.43 33.465l-23.281 14.416s-3.621 20.594 0 37.584c1.646 7.723 4.139 10.812 4.139 10.812S116.5 149 95.501 149c-19 0-36.085-10.749-44.59-24.94m-6.317-36.93c-12.567 2.793-22.405 12.023-22.592 24.86-.117 7.953 6.243 19.05 6.243 19.05s8.819-7.208 17.073-7.208c1.932 0 3.788.087 5.593.228m-6.317-36.93c2.608-.58 5.29-.882 7.967-.882 22.764 0 39.32 32.95 39.32 32.95s-6.047 5.9-12.418 6.693c-10.484 1.304-18.756-1.062-28.552-1.831"/></svg>