<svg version="1.1" xmlns="http://www.w3.org/2000/svg" x="0" y="0" viewBox="0 0 192 192" xml:space="preserve"><style>.prefix__st0{fill:none;stroke:#000;stroke-width:14;stroke-linecap:round;stroke-linejoin:round;stroke-miterlimit:10}</style><path class="prefix__st0" d="M98.3 104c-21.1-6.9-34-26.4-31.8-45.4 1.7-14.5 12.3-30.8 30-34 13.2-2.4 27.1 3.2 36.1 14.3M98.3 105.7c4.6 21.7-5.8 42.6-23.4 50.3-13.4 5.8-32.9 4.7-44.5-9-8.7-10.3-10.8-25.1-5.6-38.4M98.3 105.7c16.5-14.8 39.8-16.3 55.3-4.8 11.7 8.7 20.5 26.1 14.4 43-4.6 12.7-16.3 21.9-30.5 24.1"/></svg>