<svg width="192" height="192" viewBox="0 0 192 192" fill="none" xmlns="http://www.w3.org/2000/svg"><path d="M85 24c20 2 64 58 64 58" stroke="#000" stroke-width="10" stroke-linecap="round" stroke-linejoin="round"/><path d="m127 99-26.149-30.507a6 6 0 0 0-8.397-.705l-26.92 22.434a6 6 0 0 0-.832 8.374l21.518 26.712a6.004 6.004 0 0 0 6.38 1.989 6.008 6.008 0 0 0 2.077-1.096l70.861-57.575c2.494-2.027 2.954-5.634.951-8.148C157.69 49.438 134.379 22 120 22H96" stroke="#000" stroke-width="12" stroke-linecap="round" stroke-linejoin="round"/><path d="M96 22a74 74 0 1 0 72.866 86.906H116" stroke="#000" stroke-width="12" stroke-linecap="round" stroke-linejoin="round"/></svg>