<svg xmlns="http://www.w3.org/2000/svg" width="192" height="192" fill="none"><path stroke="#000" stroke-linecap="round" stroke-linejoin="round" stroke-width="12" d="M125.942 66.079a14.095 14.095 0 0 0 0-19.948 14.12 14.12 0 0 0-19.961 0m19.961 19.948 1.426-1.425m-1.426 1.425L96 96m9.981-49.869 1.426-1.425m-1.426 1.425L96 56.105m49.904 29.921a14.12 14.12 0 0 1 15.383-3.057A14.11 14.11 0 0 1 170 96a14.11 14.11 0 0 1-8.713 13.031 14.13 14.13 0 0 1-15.383-3.057L135.923 96m9.981-9.974 1.426-1.425m-1.426 1.425L135.923 96M96 96l-29.942 29.921a14.1 14.1 0 0 0-4.135 9.974 14.1 14.1 0 0 0 8.714 13.031 14.12 14.12 0 0 0 15.382-3.057L96 135.895M96 96 66.058 66.079a14.1 14.1 0 0 1-3.06-15.372 14.1 14.1 0 0 1 7.639-7.633 14.12 14.12 0 0 1 15.382 3.057L96 56.105M96 96l29.942 29.921a14.097 14.097 0 0 1 0 19.948 14.12 14.12 0 0 1-19.961 0L96 135.895m5.703-5.699L96 135.895m0 0-5.703-5.699M135.923 96l-5.703 5.699M135.923 96l-5.703-5.7M96 56.106l5.703 5.7M96 56.104l-5.703 5.7M61.78 90.3 56.077 96m0 0-9.981 9.974a14.12 14.12 0 0 1-21.717-2.138 14.095 14.095 0 0 1 0-15.672 14.11 14.11 0 0 1 14.49-5.998 14.1 14.1 0 0 1 7.227 3.86zm0 0 5.703 5.699"/></svg>