<svg xmlns="http://www.w3.org/2000/svg" width="192" height="192" fill="none" stroke="#000" stroke-linecap="round" stroke-linejoin="round" stroke-width="12" viewBox="0 0 192 192"><rect width="126" height="94" x="22" y="65" rx="6"/><path d="M148.5 127H164a6 6 0 0 0 6-6V39a6 6 0 0 0-6-6H50a6 6 0 0 0-6 6v26"/><path stroke-width="10" d="M125.196 157.896a43.996 43.996 0 0 0-39.044-61.881 44 44 0 0 0-42.23 59.753M85 122h38m-73-8 21 37.87"/><path stroke-width="10" d="M103 140a18.01 18.01 0 0 1-30.728 12.728 18.01 18.01 0 0 1 19.616-29.358A18.01 18.01 0 0 1 103 140"/></svg>