<svg width="192" height="192" fill="none" xmlns="http://www.w3.org/2000/svg"><g clip-path="url(#a)" stroke="#000" stroke-linecap="round" stroke-linejoin="round"><path d="M27.339 159h115.322a5.34 5.34 0 0 0 5.339-5.341V70.341a5.348 5.348 0 0 0-1.564-3.777A5.337 5.337 0 0 0 142.661 65H27.339A5.338 5.338 0 0 0 22 70.34v83.319A5.342 5.342 0 0 0 27.339 159v0Z" stroke-width="12"/><path d="M44 62.91V38.34A5.343 5.343 0 0 1 49.339 33h115.322A5.337 5.337 0 0 1 170 38.34v83.319a5.35 5.35 0 0 1-1.564 3.777 5.329 5.329 0 0 1-3.775 1.564h-16.017" stroke-width="12"/><path d="M128.827 155.266a45.516 45.516 0 0 0 2.052-13.575c0-25.211-20.438-45.649-45.649-45.649-25.211 0-45.649 20.438-45.649 45.649 0 1.576.08 3.133.236 4.667a45.57 45.57 0 0 0 1.817 8.908" stroke-width="11.554"/><path d="M85.23 158.964c1.193 0 2.357-.121 3.481-.351 1.125-.23 2.21-.57 3.243-1.007a17.283 17.283 0 0 0 5.49-3.701 17.385 17.385 0 0 0 2.109-2.557 17.19 17.19 0 0 0 2.95-9.657c0-9.539-7.733-17.273-17.273-17.273s-17.272 7.734-17.272 17.273a17.145 17.145 0 0 0 2.95 9.657 17.385 17.385 0 0 0 4.665 4.666 17.14 17.14 0 0 0 6.176 2.599c1.125.23 2.289.351 3.481.351ZM85.23 124.418h40.714M70.272 150.327l-20.357-35.259" stroke-width="11.554"/></g><defs><clipPath id="a"><path fill="#fff" d="M0 0h192v192H0z"/></clipPath></defs></svg>