<svg xmlns="http://www.w3.org/2000/svg" width="192" height="192" fill="none" stroke="#000" stroke-linecap="round" stroke-linejoin="round" stroke-width="12" viewBox="0 0 192 192"><path d="M160.5 22c-12.2 2.3-26.1 6.9-29.5 16.9-4 12.2 11.1 21.7 7.8 35.8-2.9 12.3-17.6 18.5-33.9 25.5-28.6 12.3-40 6.6-54 17.8-7.1 5.7-15.8 16.4-19.2 38.9 9.3-15.9 19.6-22.7 26.9-26.1 9.2-4.3 13.2-2.7 44.5-7 24.6-3.3 30.3-5.4 35.5-9.6 9.1-7.4 12.5-17.9 14-25"/><path d="M103.7 161.8c-5.2 7.5-15.1 10.3-23.4 6.4s-12.5-13.3-10.2-21.9c2.4-8.9 10.9-14.4 19.4-14 10.5.6 15.8 10 16 10.6"/></svg>