<svg width="192" height="192" viewBox="0 0 192 192" fill="none" xmlns="http://www.w3.org/2000/svg"><path d="M84 142v19a6 6 0 0 1-6 6H65.766c-3.929 0-6.856-3.732-6.3-7.622C60.527 151.935 61.017 141.017 56 136c-5.017-5.017-15.935-4.528-23.379-3.466-3.889.556-7.621-2.371-7.621-6.3V114a6 6 0 0 1 6-6h19m58 34v19a6 6 0 0 0 6 6h12.234c3.929 0 6.856-3.732 6.3-7.622-1.062-7.443-1.551-18.361 3.466-23.378 5.017-5.017 15.935-4.528 23.378-3.466 3.89.556 7.622-2.371 7.622-6.3V114a6 6 0 0 0-6-6h-19M84 50V31a6 6 0 0 0-6-6H65.766c-3.929 0-6.856 3.732-6.3 7.621C60.527 40.066 61.017 50.983 56 56c-5.017 5.017-15.935 4.528-23.379 3.465C28.732 58.91 25 61.837 25 65.766V78a6 6 0 0 0 6 6h19m58-34V31a6 6 0 0 1 6-6h12.234c3.929 0 6.856 3.732 6.3 7.621C131.472 40.066 130.983 50.983 136 56c5.017 5.017 15.935 4.528 23.378 3.465 3.89-.555 7.622 2.372 7.622 6.301V78a6 6 0 0 1-6 6h-19" stroke="#000" stroke-width="12" stroke-linecap="round"/><path d="M84 142a33.998 33.998 0 0 0-34-34m58 34a34.003 34.003 0 0 1 9.958-24.042A34.003 34.003 0 0 1 142 108M84 50a33.999 33.999 0 0 1-34 34m58-34a34 34 0 0 0 34 34" stroke="#000" stroke-width="12" stroke-linecap="round" stroke-linejoin="round"/></svg>