<svg width="192" height="192" viewBox="0 0 192 192" fill="none" xmlns="http://www.w3.org/2000/svg"><path d="M83.417 83.417c0-29.655-5.434-48.796-10.83-61.417C48.563 29.594 29.594 48.563 22 72.587c12.62 5.396 31.762 10.83 61.417 10.83Zm0 25.166c0 29.655-5.434 48.796-10.83 61.417-24.024-7.594-42.993-26.563-50.587-50.587 12.62-5.396 31.762-10.83 61.417-10.83Zm25.166-25.166c0-29.655 5.434-48.796 10.831-61.417 24.023 7.594 42.992 26.563 50.586 50.587-12.621 5.396-31.762 10.83-61.417 10.83Zm0 25.166c0 29.655 5.434 48.796 10.831 61.417 24.023-7.594 42.992-26.563 50.586-50.587-12.621-5.396-31.762-10.83-61.417-10.83Z" stroke="#000" stroke-width="12" stroke-linecap="round" stroke-linejoin="round"/></svg>