<svg width="192" height="192" viewBox="0 0 192 192" fill="none" xmlns="http://www.w3.org/2000/svg"><path d="M70.314 84.686a16 16 0 1 0 0 22.628m76-22.628a16.003 16.003 0 0 0-24.618 2.425 16 16 0 0 0 24.618 20.203" stroke="#000" stroke-width="10" stroke-linecap="round" stroke-linejoin="round"/><path d="M164 56H28a6 6 0 0 0-6 6v68a6 6 0 0 0 6 6h136a6 6 0 0 0 6-6V62a6 6 0 0 0-6-6Z" stroke="#000" stroke-width="12" stroke-linecap="round" stroke-linejoin="round"/><path d="M96 80v32" stroke="#000" stroke-width="10" stroke-linecap="round" stroke-linejoin="round"/></svg>