<svg width="192" height="192" fill="none" xmlns="http://www.w3.org/2000/svg"><path d="M83 50.063c0-1.573 1.702-2.565 3.085-1.799l82.852 45.937c1.417.786 1.417 2.812 0 3.598l-82.852 45.937c-1.383.766-3.085-.227-3.085-1.799V50.063Z" stroke="#000" stroke-width="12" stroke-linecap="round" stroke-linejoin="round"/><path d="M148 110v28.763c0 1.384-.471 2.732-1.379 3.777C133.603 157.525 114.408 167 93 167c-39.212 0-71-31.788-71-71s31.788-71 71-71c21.408 0 40.603 9.475 53.621 24.46.908 1.045 1.379 2.393 1.379 3.777V82" stroke="#000" stroke-width="12" stroke-linecap="round" stroke-linejoin="round"/></svg>