<svg xmlns="http://www.w3.org/2000/svg" width="192" height="192" fill="none"><path stroke="#000" stroke-linecap="round" stroke-linejoin="round" stroke-width="12" d="M22.574 105.925c5.115 38.822 43.042 65.85 84.711 60.369 29.898-3.933 53.599-23.534 62.715-48.634a65 65 0 0 1-15.45 3.991c-19.251 2.533-37.502-3.625-50.257-15.269 3.48.035 7.013-.174 10.574-.643 23.147-3.044 42.236-16.346 52.626-34.275a5.45 5.45 0 0 0 .214-5.05c-13.098-27.824-44.763-45.205-78.946-40.708-41.67 5.482-71.302 41.397-66.187 80.219"/></svg>