<svg xmlns="http://www.w3.org/2000/svg" width="192" height="192" fill="none" viewBox="0 0 192 192"><path stroke="#000" stroke-linecap="round" stroke-linejoin="round" stroke-miterlimit="6" stroke-width="14" d="M23 72.108a50.85 50.85 0 0 0 23.483 36.327 69.26 69.26 0 0 0 44.923 5.109 74.1 74.1 0 0 0 30.629-17.372c4.159-3.928 7.884-8.38 10.518-13.458a39.3 39.3 0 0 0 3.776-11.066c.668-6.625-1.62-13.492-6.126-18.393-2.49-2.708-5.63-4.828-9.103-6.042a21.9 21.9 0 0 0-9.275-1.111c-4.58.436-8.905 2.275-13.02 4.333-5.953 2.976-11.69 6.489-16.588 10.994-7.64 7.029-13.062 16.435-15.315 26.568a43.7 43.7 0 0 0-2.042 20.437 43.8 43.8 0 0 0 10.21 22.481 56.9 56.9 0 0 0 24.503 13.284c10.695 2.708 22.124 2.211 32.672-1.022 7.309-2.24 14.205-5.766 20.42-10.218A77.1 77.1 0 0 0 169 117.12"/></svg>