<svg xmlns="http://www.w3.org/2000/svg" width="192" height="192" fill="none"><g stroke="#000" stroke-linecap="round" stroke-linejoin="round" stroke-width="12"><circle cx="96" cy="96" r="74"/><path d="M77.7 124a15.6 15.6 0 0 1-22.1 0 15.6 15.6 0 0 1 0-22.1 15.6 15.6 0 0 1 22.1 0 15.6 15.6 0 0 1 0 22.1m58.3 0a15.6 15.6 0 0 1-22.1 0 15.6 15.6 0 0 1 0-22.1 15.6 15.6 0 0 1 22.1 0 15.6 15.6 0 0 1 0 22.1" style="paint-order:fill markers stroke"/><path fill="#fff" d="M79.962 121.145 120.8 55m-9.23 66.034L71.5 54.9" style="paint-order:fill markers stroke"/></g></svg>