<svg width="192" height="192" fill="none" version="1.1" viewBox="0 0 192 192" xmlns="http://www.w3.org/2000/svg">
 <g stroke="#000" stroke-linecap="round" stroke-linejoin="round" stroke-width="12">
  <circle cx="96" cy="96" r="74"/>
  <path d="m77.7 124a15.6 15.6 0 0 1-22.1 0 15.6 15.6 0 0 1 3e-6 -22.1 15.6 15.6 0 0 1 22.1 0 15.6 15.6 0 0 1 4e-6 22.1z" stop-color="#000000" style="paint-order:fill markers stroke"/>
  <path d="m136 124a15.6 15.6 0 0 1-22.1 1e-5 15.6 15.6 0 0 1 0-22.1 15.6 15.6 0 0 1 22.1 0 15.6 15.6 0 0 1-1e-5 22.1z" stop-color="#000000" style="paint-order:fill markers stroke"/>
  <path d="M 79.962252,121.14527 120.8,55" fill="#fff" stop-color="#000000" style="paint-order:fill markers stroke"/>
  <path d="m111.57 121.034-40.0696-66.1338" fill="#fff" stop-color="#000000" style="paint-order:fill markers stroke"/>
 </g>
</svg>
