<svg width="192" height="192" viewBox="0 0 192 192" fill="none" xmlns="http://www.w3.org/2000/svg">
<path d="M164.5 81C164.5 81 122.087 139.391 83.1633 138.999C52.258 138.687 22 102.333 22 102.333" stroke="black" stroke-width="14" stroke-linecap="round"/>
<path d="M165 79.5L170 81.5" stroke="black" stroke-width="12" stroke-linecap="round"/>
<path d="M124.162 113.667C124.337 117.529 127.609 120.518 131.471 120.343C135.333 120.168 138.322 116.896 138.147 113.034L131.155 113.35L124.162 113.667ZM105.5 77.5L101.718 83.3903L105.5 77.5ZM49.9984 50.5L56.7743 48.7429C55.9107 45.4125 52.7549 43.2035 49.3301 43.532C45.9052 43.8605 43.2269 46.6292 43.0121 50.063L49.9984 50.5ZM62.0212 126.519C58.166 126.231 54.807 129.123 54.5188 132.978C54.2305 136.833 57.1221 140.192 60.9774 140.481L61.4993 133.5L62.0212 126.519ZM92.4993 104.5L98.5258 100.939L98.5258 100.939L92.4993 104.5ZM131.155 113.35L138.147 113.034C138.023 110.286 136.869 106.958 135.588 103.992C134.19 100.758 132.226 97.0304 129.796 93.2162C124.996 85.6816 117.991 77.2016 109.282 71.6097L105.5 77.5L101.718 83.3903C108.1 87.4882 113.796 94.1576 117.988 100.738C120.054 103.981 121.659 107.053 122.737 109.547C123.276 110.795 123.656 111.835 123.896 112.633C124.161 113.511 124.168 113.808 124.162 113.667L131.155 113.35ZM105.5 77.5L109.282 71.6097C103.437 67.8563 97.0002 66.1339 91.0852 65.0774C88.1198 64.5477 85.1462 64.164 82.3851 63.8102C79.5646 63.4488 76.9793 63.12 74.5067 62.6876C69.5079 61.8135 65.7813 60.6353 62.9955 58.6782C60.4414 56.8839 58.1541 54.0638 56.7743 48.7429L49.9984 50.5L43.2226 52.2571C45.3435 60.4362 49.3864 66.227 54.9478 70.134C60.2775 73.8782 66.4517 75.4915 72.0952 76.4783C74.9437 76.9764 77.8649 77.3455 80.6057 77.6967C83.4059 78.0555 86.0484 78.3993 88.6235 78.8592C93.7895 79.782 98.1317 81.0876 101.718 83.3903L105.5 77.5ZM49.9984 50.5L43.0121 50.063C42.6052 56.5675 45.964 62.9494 49.548 68.1253C53.3261 73.5815 58.3994 79.1421 63.4403 84.2781C68.4132 89.3446 73.8926 94.5254 78.0482 98.6438C82.5698 103.125 85.3929 106.234 86.4728 108.061L92.4993 104.5L98.5258 100.939C96.3557 97.2664 92.116 92.8751 87.903 88.6998C83.324 84.1618 78.3968 79.5299 73.4318 74.4714C68.5349 69.4822 64.1393 64.6053 61.0579 60.1553C57.7824 55.425 56.8913 52.4321 56.9848 50.937L49.9984 50.5ZM92.4993 104.5L86.4728 108.061C89.1597 112.608 88.6027 117.001 85.5517 120.347C82.2404 123.977 74.8726 127.48 62.0212 126.519L61.4993 133.5L60.9774 140.481C76.4193 141.635 88.7039 137.666 95.8955 129.781C103.347 121.611 104.144 110.446 98.5258 100.939L92.4993 104.5Z" fill="black"/>
</svg>
