<svg width="192" height="192" viewBox="0 0 192 192" fill="none" xmlns="http://www.w3.org/2000/svg">
<path d="M170 88.2199C170 70 82.8713 40 63.0792 40C51.6584 40 22 63.6183 22 88.2199C22 112.822 66.7426 152 82.8713 152C99 152 170 110.5 170 88.2199Z" stroke="black" stroke-width="12"/>
<path d="M145 88.5C145 88.5 113.274 124.757 87.5 124.5C67.0357 124.296 47 100.5 47 100.5" stroke="black" stroke-width="12" stroke-linecap="round"/>
<path d="M117.006 104.772C117.157 108.083 119.962 110.644 123.272 110.494C126.583 110.343 129.144 107.538 128.994 104.228L123 104.5L117.006 104.772ZM106 79.5L109.234 74.4464L106 79.5ZM68 69.5L71.18 64.412C68.5567 62.7725 65.1169 63.3961 63.2362 65.8522C61.3555 68.3084 61.6504 71.7918 63.9173 73.8968L68 69.5ZM83.5399 118.098C80.8327 120.009 80.1872 123.753 82.0982 126.46C84.0091 129.167 87.7529 129.813 90.4601 127.902L87 123L83.5399 118.098ZM123 104.5L128.994 104.228C128.902 102.203 128.081 99.7584 127.237 97.6851C126.296 95.3734 124.976 92.6919 123.34 89.95C120.137 84.5846 115.35 78.3604 109.234 74.4464L106 79.5L102.766 84.5536C106.65 87.0396 110.279 91.4821 113.035 96.0999C114.378 98.3498 115.422 100.489 116.122 102.209C116.919 104.167 117.015 104.964 117.006 104.772L123 104.5ZM106 79.5L109.234 74.4464C101.425 69.4483 94.2976 69.4967 88.5649 69.2553C83.0074 69.0213 77.8719 68.5944 71.18 64.412L68 69.5L64.82 74.588C74.1281 80.4056 81.7426 80.9787 88.0601 81.2447C94.2024 81.5033 98.0752 81.5517 102.766 84.5536L106 79.5ZM68 69.5L63.9173 73.8968C77.9696 86.9454 85.9711 96.4889 88.7875 103.686C90.1043 107.051 90.0943 109.433 89.4586 111.307C88.7957 113.261 87.1513 115.549 83.5399 118.098L87 123L90.4601 127.902C95.3487 124.451 99.0793 120.301 100.823 115.162C102.593 109.942 102.021 104.574 99.9625 99.3136C96.0289 89.2611 86.0304 78.0546 72.0827 65.1032L68 69.5Z" fill="black"/>
</svg>
