<svg width="192" height="192" fill="none" xmlns="http://www.w3.org/2000/svg"><path d="M60 58a38 38 0 0 0 0 76m72 0a38.001 38.001 0 0 0 26.87-64.87A38 38 0 0 0 132 58" stroke="#000" stroke-width="12" stroke-linecap="round" stroke-linejoin="round"/><circle cx="96" cy="96" r="16" stroke="#000" stroke-width="12" stroke-linecap="round" stroke-linejoin="round"/><path d="M60 80a12.5 12.5 0 0 0-5.358 1.218c-1.698.804-3.242 1.983-4.542 3.468a16.32 16.32 0 0 0-3.034 5.191A18.002 18.002 0 0 0 46 96c0 2.101.362 4.182 1.066 6.123a16.326 16.326 0 0 0 3.034 5.191c1.3 1.485 2.844 2.664 4.542 3.468A12.499 12.499 0 0 0 60 112m72 0c3.713 0 7.274-1.686 9.899-4.686C144.525 104.313 146 100.243 146 96s-1.475-8.313-4.101-11.314c-2.625-3-6.186-4.686-9.899-4.686M60 58v22m72-22v22m-72 32v22m72-22v22" stroke="#000" stroke-width="12" stroke-linecap="round" stroke-linejoin="round"/></svg>