<?xml version="1.0" encoding="utf-8"?>
<svg
	version="1.1"
	xmlns="http://www.w3.org/2000/svg"
	xmlns:xlink="http://www.w3.org/1999/xlink"
	x="0%" y="0%"
	width="100%" height="100%"
	viewBox="0 0 24.0 24.0"
	enable-background="new 0 0 24.0 24.0"
	xml:space="preserve">
	<path
		fill="#000000"
		stroke="#000000"
		fill-opacity="1.000"
		stroke-opacity="1.000"
		fill-rule="nonzero"
		stroke-width="0.039636113"
		stroke-linejoin="miter"
		stroke-linecap="square"
		d="M19.77,3.48C27.75,15.70,11.48,27.06,2.80,16.26C-1.64,11.10,14.14,-0.83,19.77,3.48zM19.59,5.02C20.93,10.11,9.13,18.73,3.98,15.90C12.75,25.06,24.60,14.54,19.59,5.02zM11.36,11.09C11.33,11.74,11.30,12.38,11.29,12.83C11.29,13.27,11.32,13.52,11.44,13.72C11.56,13.93,11.76,14.10,12.29,13.91C12.82,13.72,13.68,13.17,14.26,12.75C14.84,12.33,15.14,12.03,15.41,11.75C15.69,11.48,15.93,11.22,15.94,11.01C15.94,10.79,15.70,10.61,15.41,10.49C15.13,10.36,14.79,10.30,14.28,10.20C13.76,10.11,13.07,9.97,12.57,9.91C12.08,9.84,11.79,9.85,11.62,10.06C11.45,10.27,11.41,10.68,11.36,11.09zM9.78,11.22C9.44,11.55,9.09,11.88,8.57,12.46C8.04,13.04,7.33,13.87,6.88,14.39C6.44,14.91,6.27,15.11,6.28,15.28C6.29,15.46,6.49,15.60,6.81,15.65C7.12,15.71,7.55,15.68,8.06,15.58C8.58,15.48,9.19,15.30,9.58,15.11C9.97,14.92,10.14,14.72,10.28,14.50C10.42,14.28,10.53,14.04,10.61,13.78C10.68,13.52,10.73,13.23,10.77,12.76C10.82,12.29,10.87,11.63,10.88,11.19C10.88,10.74,10.85,10.52,10.66,10.56C10.47,10.60,10.12,10.91,9.78,11.22zM8.67,10.79C8.12,11.05,7.56,11.31,6.97,11.59C6.37,11.88,5.73,12.19,5.26,12.44C4.80,12.70,4.51,12.90,4.32,13.12C4.13,13.34,4.05,13.59,4.04,13.84C4.02,14.09,4.07,14.36,4.22,14.60C4.37,14.84,4.63,15.06,4.88,15.12C5.14,15.18,5.39,15.09,5.71,14.86C6.03,14.63,6.41,14.25,7.10,13.56C7.79,12.87,8.79,11.85,9.33,11.23C9.88,10.62,9.96,10.40,9.78,10.39C9.59,10.38,9.13,10.59,8.67,10.79zM5.44,9.94C5.07,10.43,4.70,10.92,4.50,11.31C4.30,11.71,4.27,12.01,4.36,12.14C4.46,12.27,4.68,12.23,4.95,12.14C5.21,12.05,5.53,11.91,6.10,11.66C6.66,11.41,7.46,11.04,8.13,10.73C8.79,10.42,9.31,10.17,9.61,10.01C9.91,9.84,9.99,9.75,9.97,9.67C9.95,9.59,9.83,9.52,9.61,9.45C9.39,9.37,9.07,9.30,8.79,9.24C8.51,9.19,8.26,9.15,7.85,9.09C7.43,9.03,6.85,8.96,6.42,9.09C5.99,9.23,5.72,9.58,5.44,9.94zM10.12,5.93C9.76,6.12,9.39,6.31,9.11,6.48C8.83,6.65,8.63,6.80,8.40,6.97C8.18,7.14,7.92,7.34,7.70,7.56C7.47,7.78,7.27,8.03,7.26,8.20C7.24,8.38,7.40,8.49,7.70,8.59C7.99,8.70,8.42,8.80,8.88,8.87C9.33,8.95,9.81,9.00,10.12,9.01C10.44,9.02,10.61,9.00,10.73,8.91C10.86,8.82,10.94,8.66,10.99,8.52C11.03,8.39,11.04,8.28,11.07,7.85C11.09,7.42,11.14,6.67,11.13,6.23C11.11,5.78,11.02,5.65,10.85,5.65C10.67,5.65,10.40,5.79,10.12,5.93zM14.90,3.98C14.69,4.01,14.48,4.03,14.30,4.07C14.12,4.10,13.97,4.14,13.71,4.22C13.45,4.31,13.09,4.44,12.81,4.57C12.53,4.70,12.34,4.84,12.20,4.96C12.05,5.08,11.95,5.18,11.87,5.30C11.79,5.42,11.74,5.55,11.70,5.81C11.65,6.06,11.63,6.45,11.60,6.76C11.57,7.06,11.54,7.30,11.51,7.70C11.49,8.10,11.47,8.66,12.22,8.11C12.97,7.56,14.48,5.90,15.17,5.01C15.86,4.13,15.73,4.01,15.55,3.97C15.37,3.93,15.14,3.95,14.90,3.98zM15.74,4.89C15.39,5.21,15.04,5.54,14.73,5.85C14.42,6.17,14.15,6.48,13.73,6.91C13.32,7.33,12.77,7.87,12.56,8.21C12.35,8.55,12.48,8.68,13.37,8.33C14.26,7.97,15.92,7.13,16.84,6.64C17.76,6.15,17.95,6.02,18.13,5.87C18.32,5.71,18.52,5.52,18.59,5.34C18.66,5.17,18.60,4.99,18.50,4.80C18.39,4.61,18.22,4.40,17.93,4.25C17.64,4.10,17.22,4.00,16.84,4.12C16.45,4.24,16.10,4.56,15.74,4.89zM17.90,6.55C17.54,6.69,17.17,6.82,16.77,6.99C16.37,7.16,15.94,7.37,15.46,7.60C14.99,7.82,14.47,8.07,14.00,8.29C13.52,8.51,13.09,8.71,12.84,8.87C12.59,9.03,12.52,9.16,12.54,9.26C12.55,9.37,12.65,9.46,12.75,9.50C12.86,9.55,12.97,9.55,13.51,9.61C14.04,9.66,14.99,9.78,15.63,9.84C16.26,9.90,16.58,9.90,16.88,9.79C17.17,9.68,17.46,9.46,17.79,9.06C18.12,8.67,18.50,8.10,18.69,7.60C18.88,7.10,18.88,6.67,18.72,6.51C18.55,6.35,18.23,6.45,17.90,6.55z"/>
</svg>