<svg width="192" height="192" viewBox="0 0 192 192" fill="none" xmlns="http://www.w3.org/2000/svg"><path d="M77 52H47a6 6 0 0 0-6 6v90a6 6 0 0 0 6 6h94a6 6 0 0 0 6-6v-47" stroke="#000" stroke-width="12" stroke-linejoin="round"/><path d="M78 84H59v40h70v-14m0 28h-16m-38 0H59" stroke="#000" stroke-width="8" stroke-linecap="round" stroke-linejoin="round"/><path d="M127 154v16m-66-16v16" stroke="#000" stroke-width="12" stroke-linecap="round" stroke-linejoin="round"/><circle cx="4" cy="4" r="4" transform="matrix(1 0 0 -1 99 58)" stroke="#000" stroke-width="8" stroke-linecap="round" stroke-linejoin="round"/><path d="M104 83s5 9 16 9 16-9 16-9" stroke="#000" stroke-width="8" stroke-linecap="round" stroke-linejoin="round"/><circle cx="120" cy="65" r="45" stroke="#000" stroke-width="8" stroke-linejoin="round"/><path d="M144.071 46.929A10.002 10.002 0 0 1 147 54c0 6-10 15-10 15s-10-9-10-15a10.002 10.002 0 0 1 17.071-7.071Z" stroke="#000" stroke-width="8" stroke-linecap="round" stroke-linejoin="round"/></svg>