<svg xmlns="http://www.w3.org/2000/svg" width="192" height="192" fill="none"><path stroke="#000" stroke-linecap="round" stroke-linejoin="round" stroke-width="12" d="M123 49a26.998 26.998 0 0 0-37.332-24.945A27 27 0 0 0 69 49m3 76a24 24 0 0 0 7.03 16.971 24.01 24.01 0 0 0 26.154 5.202 24 24 0 0 0 7.787-5.202A24 24 0 0 0 120 125M96 92a12 12 0 0 0-24 0m48 0a12 12 0 0 0-12-12 12 12 0 0 0-12 12"/><path stroke="#000" stroke-linecap="round" stroke-linejoin="round" stroke-width="12" d="M48.489 68.46A10 10 0 0 1 58.474 59h75.052a10 10 0 0 1 9.985 9.46l4.919 91c.31 5.727-4.25 10.54-9.985 10.54h-84.89c-5.735 0-10.295-4.813-9.985-10.54zM123 49v10M69 49v10m3 33v13m24-13v13m24-13v13"/></svg>