<?xml version="1.0" encoding="UTF-8"?><svg id="a" xmlns="http://www.w3.org/2000/svg" viewBox="0 0 192 192"><path d="m126.85,26.77c-2.41,5.2-6.12,13.13-8.58,18.19,0,0-7.37-1.54-18.8-1.54s-18.8,1.54-18.8,1.54c-2.46-5.05-6.17-12.99-8.58-18.19-.88-1.9-3.62-1.75-4.29.23-5.74,17.17-22.77,72.14-24.08,124.4-.1,3.87,2.61,7.25,6.4,8.03,7.54,1.55,22.53,3.57,49.34,3.57s41.8-2.02,49.34-3.57c3.8-.78,6.5-4.16,6.4-8.03-1.31-52.25-18.33-107.23-24.08-124.4-.66-1.98-3.41-2.13-4.29-.23Z" fill="none" stroke="#000" stroke-linejoin="round" stroke-width="12"/><circle cx="80" cy="72" r="7" stroke-width="0"/><circle cx="119" cy="72" r="7" stroke-width="0"/><path d="m54.82,77.44c-5.78-1.98-12.12-2.28-18.06-.87" fill="none" stroke="#000" stroke-linecap="round" stroke-linejoin="round" stroke-width="10"/><path d="m50.13,93.53c-5.78-1.98-12.12-2.28-18.06-.87" fill="none" stroke="#000" stroke-linecap="round" stroke-linejoin="round" stroke-width="10"/><path d="m144.13,76.44c5.78-1.98,12.12-2.28,18.06-.87" fill="none" stroke="#000" stroke-linecap="round" stroke-linejoin="round" stroke-width="10"/><path d="m147.82,93.53c5.78-1.98,12.12-2.28,18.06-.87" fill="none" stroke="#000" stroke-linecap="round" stroke-linejoin="round" stroke-width="10"/><path d="m43.75,154.19c-16.36-3.06-28.92-18.55-14.87-33.62" fill="none" stroke="#000" stroke-linecap="round" stroke-linejoin="round" stroke-width="12"/><path d="m85.37,91.69c2.33,2.24,5.22,2.99,7.84,2.05s4.94-3.56,6.3-7.12c.57,2.44,1.97,4.3,3.51,5.34,1.54,1.04,3.24,1.38,4.9,1.58,1.93.23,4.03.19,5.81-.74" fill="none" stroke="#000" stroke-linecap="round" stroke-linejoin="round" stroke-width="8"/></svg>