<svg id="Layer_1" data-name="Layer 1" xmlns="http://www.w3.org/2000/svg" width="192" height="192" viewBox="0 0 192 192"><defs><style>.cls-1,.cls-2{fill:none;}.cls-2{stroke:#000;stroke-miterlimit:10;stroke-width:12px;}</style></defs><rect class="cls-1" width="192" height="192"/><path d="M96,31.62l13.43,11.2a16,16,0,0,0,10.22,3.7h30.81l-3.06,92L96,162.74,44.61,138.55l-3.07-92H72.36a16,16,0,0,0,10.2-3.7L96,31.62M96,16,74.88,33.61a4,4,0,0,1-2.53.91H29.13l3.73,111.76L96,176l63.15-29.72,3.72-111.76H119.65a4,4,0,0,1-2.53-.91L96,16Z" transform="translate(0 0)"/><path class="cls-2" d="M88.29,69a3.85,3.85,0,0,0-3.75,2.92L81.42,84.43H75.64l-3-8.94A3.85,3.85,0,0,0,69,72.86H61.29a3.85,3.85,0,0,0-3.86,3.85c0,.12,0,.24,0,.35l3.86,42.43A3.86,3.86,0,0,0,65.14,123h61.72a3.86,3.86,0,0,0,3.84-3.51l3.86-42.43a3.87,3.87,0,0,0-3.5-4.19H123a3.85,3.85,0,0,0-3.66,2.63l-3,8.94h-5.78l-3.12-12.51A3.85,3.85,0,0,0,103.71,69Z" transform="translate(0 0)"/></svg>