<svg xmlns="http://www.w3.org/2000/svg" width="192" height="192" viewBox="0 0 192 192"><path fill-rule="evenodd" d="M44.026 43.625c.36 25.294 4.515 45.343 11.952 60.912l33.78-33.78a6 6 0 0 1 8.485 8.486l-36.105 36.105c4.348 6.439 9.478 11.966 15.396 16.632l38.223-38.223a6.001 6.001 0 0 1 8.486 8.486L87.736 138.75c4.99 2.769 10.41 5.085 16.264 6.966 19.384-6.228 34.017-17.222 43.992-33.698 9.959-16.449 15.559-38.835 15.982-68.375C143.1 33.126 123.335 28 103.812 28c-19.515 0-39.156 5.122-59.786 15.625m34.931 103.903c7.052 4.266 14.836 7.654 23.307 10.215a6 6 0 0 0 3.472 0c22.752-6.878 40.543-19.726 52.522-39.511C170.144 98.6 176 72.649 176 40a6 6 0 0 0-3.201-5.307C149.368 22.333 126.662 16 103.812 16c-22.852 0-45.44 6.335-68.636 18.706A6 6 0 0 0 32 40c0 30.075 4.97 54.467 15.044 73.471L31.514 129H22a6 6 0 1 0 0 12h6v6a6 6 0 1 0 12 0v-9.515l13.516-13.515c4.5 6.305 9.672 11.808 15.482 16.547L57.515 152H48a6 6 0 1 0 0 12h6v6a6 6 0 1 0 12 0v-9.515z"/></svg>