<svg width="192" height="192" viewBox="0 0 192 192" fill="none" xmlns="http://www.w3.org/2000/svg"><ellipse cx="66" cy="96" rx="4" ry="3" stroke="#000" stroke-width="8" stroke-linecap="round" stroke-linejoin="round"/><path d="M24.747 102.889c-3.582-2.327-3.679-7.517-.186-9.974l67.944-47.81a6.077 6.077 0 0 1 6.99 0l67.944 47.81c3.493 2.457 3.396 7.647-.186 9.974l-67.945 44.132a6.081 6.081 0 0 1-6.616 0l-67.945-44.132Z" stroke="#000" stroke-width="12" stroke-linecap="round" stroke-linejoin="round"/><path d="m144 113-26.12-18.355M142 79l-24.12 15.645M68 127l49.88-32.355M125 66 96.286 84.625a7 7 0 0 1-7.834-.145L65 68" stroke="#000" stroke-width="10" stroke-linecap="round" stroke-linejoin="round"/></svg>