<svg xmlns="http://www.w3.org/2000/svg" width="192" height="192" fill="none"><path stroke="#000" stroke-linecap="round" stroke-linejoin="round" stroke-width="12" d="M127.412 23.442c-2.6 5.6-6.58 14.13-9.23 19.57 0 0-7.93-1.66-19.22-1.66-12.29 0-19.22 1.66-19.22 1.66-2.65-5.44-6.63-13.97-9.23-19.57-.95-2.04-3.9-1.88-4.61.25-6.18 18.47-24.49 77.611-25.9 133.831a8.61 8.61 0 0 0 6.89 8.64c8.12 1.66 23.24 3.84 52.08 3.84 27.84 0 43.97-2.18 52.08-3.84a8.61 8.61 0 0 0 6.89-8.64c-1.41-56.22-19.72-115.36-25.9-133.83-.71-2.13-3.67-2.29-4.61-.25h-.02Z"/><path stroke="#000" stroke-linecap="round" stroke-linejoin="round" stroke-width="10" d="M50.5 73.952a35.1 35.1 0 0 0-19.43-.93m14.38 20.25a35.1 35.1 0 0 0-19.43-.93m121.28-19.46a35.1 35.1 0 0 1 19.43-.93m-15.46 21.32a35.1 35.1 0 0 1 19.43-.93"/><path stroke="#000" stroke-linecap="round" stroke-linejoin="round" stroke-width="12" d="M46 166c-24-2-24-46-24-46"/><path stroke="#000" stroke-linecap="round" stroke-linejoin="round" stroke-width="10" d="M84 92.393c2.457 2.384 5.514 3.186 8.286 2.186s5.23-3.79 6.665-7.579c.61 2.602 2.084 4.571 3.715 5.69 1.632 1.108 3.421 1.464 5.19 1.681 2.035.248 4.257.198 6.144-.781"/><path stroke="#000" stroke-linecap="round" stroke-linejoin="round" stroke-width="6" d="M78 74a3 3 0 1 0 0-6 3 3 0 0 0 0 6m42 0a3 3 0 1 0 0-6 3 3 0 0 0 0 6"/></svg>