<svg xmlns="http://www.w3.org/2000/svg" width="192" height="192" fill="none" stroke="#000" stroke-linecap="round" stroke-linejoin="round" stroke-width="12" viewBox="0 0 192 192"><path d="M128.46 23.44c-2.6 5.6-6.58 14.13-9.23 19.57 0 0-7.93-1.66-20.22-1.66s-20.22 1.66-20.22 1.66c-2.65-5.44-6.63-13.97-9.23-19.57-.95-2.04-3.9-1.88-4.61.25-6.18 18.47-24.49 77.61-25.9 133.83a8.61 8.61 0 0 0 6.89 8.64c8.12 1.66 24.24 3.84 53.08 3.84s44.97-2.18 53.08-3.84a8.61 8.61 0 0 0 6.89-8.64c-1.41-56.22-19.72-115.36-25.9-133.83-.71-2.13-3.67-2.29-4.61-.25Z"/><path stroke-width="10" d="M50.5 77.95a35.1 35.1 0 0 0-19.43-.93m14.38 18.25a35.1 35.1 0 0 0-19.43-.93M147.3 76.88a35.1 35.1 0 0 1 19.43-.93m-15.46 19.32a35.1 35.1 0 0 1 19.43-.93"/><path d="M45 166c-29-5-23-34-20-46"/><path stroke-width="8" d="M83.74 92.41c2.5 2.41 5.61 3.22 8.43 2.21s5.32-3.83 6.78-7.66c.62 2.63 2.12 4.62 3.78 5.75 1.66 1.12 3.48 1.48 5.28 1.7 2.07.25 4.33.2 6.25-.79"/><circle cx="78" cy="71" r="3" stroke-width="6"/><circle cx="120" cy="71" r="3" stroke-width="6"/></svg>