<svg xmlns="http://www.w3.org/2000/svg" width="192" height="192" fill="none"><circle cx="96" cy="38" r="4" stroke="#000" stroke-linejoin="round" stroke-width="8"/><circle cx="4" cy="4" r="4" stroke="#000" stroke-linejoin="round" stroke-width="8" transform="matrix(1 0 0 -1 92 158)"/><circle cx="72" cy="24" r="4" stroke="#000" stroke-linejoin="round" stroke-width="8"/><circle cx="4" cy="4" r="4" stroke="#000" stroke-linejoin="round" stroke-width="8" transform="matrix(-1 0 0 1 124 20)"/><circle cx="4" cy="4" r="4" stroke="#000" stroke-linejoin="round" stroke-width="8" transform="matrix(1 0 0 -1 68 172)"/><circle cx="120" cy="168" r="4" stroke="#000" stroke-linejoin="round" stroke-width="8" transform="rotate(180 120 168)"/><circle cx="83" cy="59" r="4" stroke="#000" stroke-linejoin="round" stroke-width="8"/><circle cx="4" cy="4" r="4" stroke="#000" stroke-linejoin="round" stroke-width="8" transform="matrix(-1 0 0 1 113 55)"/><circle cx="4" cy="4" r="4" stroke="#000" stroke-linejoin="round" stroke-width="8" transform="matrix(1 0 0 -1 79 137)"/><circle cx="109" cy="133" r="4" stroke="#000" stroke-linejoin="round" stroke-width="8" transform="rotate(180 109 133)"/><circle cx="24" cy="96" r="4" stroke="#000" stroke-linejoin="round" stroke-width="8"/><circle cx="4" cy="4" r="4" stroke="#000" stroke-linejoin="round" stroke-width="8" transform="matrix(-1 0 0 1 172 92)"/><circle cx="56" cy="96" r="4" stroke="#000" stroke-linejoin="round" stroke-width="8"/><circle cx="4" cy="4" r="4" stroke="#000" stroke-linejoin="round" stroke-width="8" transform="matrix(-1 0 0 1 140 92)"/><circle cx="62" cy="72" r="4" stroke="#000" stroke-linejoin="round" stroke-width="8"/><circle cx="4" cy="4" r="4" stroke="#000" stroke-linejoin="round" stroke-width="8" transform="matrix(-1 0 0 1 134 68)"/><circle cx="4" cy="4" r="4" stroke="#000" stroke-linejoin="round" stroke-width="8" transform="matrix(1 0 0 -1 58 124)"/><circle cx="130" cy="120" r="4" stroke="#000" stroke-linejoin="round" stroke-width="8" transform="rotate(180 130 120)"/><circle cx="38" cy="75" r="4" stroke="#000" stroke-linejoin="round" stroke-width="8"/><circle cx="4" cy="4" r="4" stroke="#000" stroke-linejoin="round" stroke-width="8" transform="matrix(-1 0 0 1 158 71)"/><circle cx="4" cy="4" r="4" stroke="#000" stroke-linejoin="round" stroke-width="8" transform="matrix(1 0 0 -1 34 121)"/><circle cx="154" cy="117" r="4" stroke="#000" stroke-linejoin="round" stroke-width="8" transform="rotate(180 154 117)"/><circle cx="33" cy="51" r="4" stroke="#000" stroke-linejoin="round" stroke-width="8"/><circle cx="4" cy="4" r="4" stroke="#000" stroke-linejoin="round" stroke-width="8" transform="matrix(-1 0 0 1 163 47)"/><circle cx="4" cy="4" r="4" stroke="#000" stroke-linejoin="round" stroke-width="8" transform="matrix(1 0 0 -1 29 145)"/><circle cx="159" cy="141" r="4" stroke="#000" stroke-linejoin="round" stroke-width="8" transform="rotate(180 159 141)"/><circle cx="59" cy="47" r="4" stroke="#000" stroke-linejoin="round" stroke-width="8"/><circle cx="4" cy="4" r="4" stroke="#000" stroke-linejoin="round" stroke-width="8" transform="matrix(-1 0 0 1 137 43)"/><circle cx="4" cy="4" r="4" stroke="#000" stroke-linejoin="round" stroke-width="8" transform="matrix(1 0 0 -1 55 149)"/><circle cx="133" cy="145" r="4" stroke="#000" stroke-linejoin="round" stroke-width="8" transform="rotate(180 133 145)"/></svg>