<svg xmlns="http://www.w3.org/2000/svg" width="192" height="192" fill="none" stroke="#000" stroke-linecap="round" stroke-linejoin="round" stroke-width="12" viewBox="0 0 192 192"><path d="M51.557 31.426C48.79 27.448 51.637 22 56.483 22h65.173a6 6 0 0 1 5.103 2.844l38.939 62.966c2.599 4.202-.711 9.569-5.632 9.132l-64.272-5.694a6 6 0 0 1-4.396-2.55z"/><path d="M27.89 139.616c-4.012 2.995-2.807 9.296 2.026 10.6l72.542 19.578a6 6 0 0 0 6.007-1.761l55.422-61.091c3.332-3.672 1.025-9.57-3.914-10.008l-64.69-5.732a6 6 0 0 0-4.12 1.17L27.89 139.615Z"/><path stroke-width="8" d="m58 137 44 12 34-36-40-4z"/></svg>