<svg width="192" height="192" viewBox="0 0 192 192" fill="none" xmlns="http://www.w3.org/2000/svg"><path d="M24 48c12 0 24-12 24-24 0 12 12 24 24 24-12 0-24 12-24 24 0-12-12-24-24-24Z" stroke="#000" stroke-width="10" stroke-linecap="round" stroke-linejoin="round"/><circle cx="96" cy="96" r="30" stroke="#000" stroke-width="12" stroke-linecap="round" stroke-linejoin="round"/><path d="M126 66v52m-10.847 49.479a74.002 74.002 0 0 1-90.632-90.632M126 118c0 11 10 18 19 18 11 0 19-9.5 22.479-20.847a74.002 74.002 0 0 0-90.632-90.632" stroke="#000" stroke-width="12" stroke-linecap="round" stroke-linejoin="round"/></svg>