<svg xmlns="http://www.w3.org/2000/svg" width="192" height="192" fill="none"><path stroke="#000" stroke-linecap="round" stroke-linejoin="round" stroke-width="12" d="M61 34a12 12 0 0 1 24 0m0 44a12 12 0 0 1 24 0m0 4a12 12 0 1 1 24 0m0 8a12 12 0 1 1 24 0M85 34v56"/><path stroke="#000" stroke-linecap="round" stroke-linejoin="round" stroke-width="12" d="M61 34v76.073l-7.53-10.365a12 12 0 0 0-19.417 14.107l36.03 49.59A16 16 0 0 0 83.026 170h50.11a16 16 0 0 0 15.627-12.562l7.862-35.739c.249-1.129.374-2.282.374-3.438V90M109 78v12m24-8v8"/></svg>