<svg xmlns="http://www.w3.org/2000/svg" width="192" height="192" viewBox="0 0 144 144"><g stroke-width="280.233" transform="matrix(.03212 0 0 -.03211 -10.098 154.89)"><path stroke="#000" stroke-linecap="round" stroke-linejoin="round" d="M2551.972 4184.072v-551.984h-3.105m1190.356 84.72-370.36-407.278-2.291 2.109M1310.7 3670.676l404.858-372.575-2.096-2.305m2570.592-815.412-548.677-5.475-.03 3.123m-2358.517-19.656-548.676-5.475-.031 3.123"/><path fill="none" stroke="#000" stroke-linecap="round" stroke-linejoin="round" d="M2048.718 1849.406a1026.38 969.49 0 0 0-276.468 456.712m256.213 740.389a760.065 764.608 0 0 0 497.934 186.928 760.065 764.608 0 0 0 760.064-764.607v0a760.065 764.608 0 0 0-1.067-40.497m498.13-1448.861h-1945.57"/><path fill="none" stroke="#000" stroke-linecap="round" stroke-linejoin="round" d="M3626.219 1955.103a490.815 493.75 0 0 0 100.922 10.551 490.815 493.75 0 0 0 328.72-127.094m-170.491-834.043a490.815 493.75 0 0 0-158.228-26.361 490.815 493.75 0 0 0-27.456.773m-1803.859-.296a386.624 392.976 0 0 0-9.51-.119 386.624 392.976 0 0 0-386.624 392.976 386.624 392.976 0 0 0 386.624 392.976 386.624 392.976 0 0 0 55.774-4.11m2273.969-245.091a490.815 493.75 0 0 0 1.897-43.36v0a490.815 493.75 0 0 0-30.313-170.83M2321.913 2460.261a777.478 782.126 0 0 0 462.875 153.717 777.478 782.126 0 0 0 771.647-686.514"/><ellipse cx="1846.504" cy="2682.139" rx="123.347" ry="124.085" stroke-width="3.114"/><ellipse cx="2094.224" cy="2266.377" rx="123.347" ry="124.085" stroke-width="3.114"/></g></svg>