<svg width="192" height="192" fill="none" xmlns="http://www.w3.org/2000/svg"><path d="M59 165h87m-87 0a19 19 0 1 1 6.222-36.952 37.001 37.001 0 0 1 61.174-31.866c.457.4.904.813 1.339 1.234m-62.898 21.747a37.001 37.001 0 1 1 62.898-21.746M146 165a23.996 23.996 0 0 0 23.884-21.648 24 24 0 0 0-31.343-25.163 37.015 37.015 0 0 0-10.806-20.772M22 93h12m8.213-48.79 8.485 8.486m40.307-28.691v12m48.789 8.213-8.485 8.485M150 93h10" stroke="#000" stroke-width="12" stroke-linecap="round" stroke-linejoin="round"/></svg>