<svg xmlns="http://www.w3.org/2000/svg" width="192" height="192" fill="none"><path stroke="#000" stroke-linecap="round" stroke-linejoin="round" stroke-width="10" d="M158.973 48.276c1.172 1.479 2.282 2.957 3.33 4.56.802 1.17 1.542 2.403 2.344 3.635a52 52 0 0 1 1.851 3.697c.555 1.232 1.11 2.526 1.541 3.758.494 1.232.864 2.526 1.234 3.758a43 43 0 0 1 .925 3.82c.185 1.294.432 2.527.555 3.82.124 1.295.185 2.527.247 3.82v.002c0 1.293 0 2.587-.062 3.819-.185 2.526-.493 4.99-1.048 7.455s-1.357 4.868-2.282 7.21c-.925 2.34-2.097 4.62-3.454 6.838s-2.961 4.313-4.688 6.347a45 45 0 0 1-3.762 3.881c-1.357 1.233-2.776 2.465-4.317 3.574s-3.146 2.218-4.811 3.204a71 71 0 0 1-5.305 2.772l-26.286 12.139c-3.357 1.55-4.527 5.738-2.459 8.803l3.704 5.491c.925 1.479 1.419 3.081 1.666 4.621s.123 3.142-.247 4.621c-.432 1.541-1.11 2.958-2.097 4.19s-2.282 2.341-3.824 3.204c-1.604.862-3.331 1.417-5.119 1.602a15.4 15.4 0 0 1-5.305-.37 15.7 15.7 0 0 1-4.872-2.156 14.1 14.1 0 0 1-3.824-3.82L74.06 134.626c-2.046-3.082-.842-7.264 2.53-8.786l51.296-23.159c.802-.308 1.542-.739 2.282-1.109a24 24 0 0 0 2.159-1.232c.679-.493 1.357-.924 1.974-1.417.584-.409 1.169-.928 1.701-1.4l.087-.079a14 14 0 0 0 1.666-1.602c.493-.554.987-1.17 1.48-1.725s.925-1.17 1.357-1.787c.432-.554.802-1.232 1.172-1.848.74-1.233 1.357-2.588 1.85-3.944a24.6 24.6 0 0 0 1.11-4.19c.247-1.416.432-2.895.432-4.312 0-1.479-.062-2.896-.308-4.375a48 48 0 0 0-.617-2.896 26 26 0 0 0-.925-2.896c-.309-.924-.74-1.91-1.234-2.834-.493-.986-.987-1.91-1.603-2.834-.432-.678-.926-1.356-1.419-2.033a23 23 0 0 0-1.542-1.91h0a47 47 0 0 0-1.665-1.787c-.555-.616-1.172-1.11-1.789-1.664-.555-.554-1.233-1.047-1.85-1.54a23 23 0 0 0-1.974-1.417c-.678-.493-1.419-.863-2.097-1.294-.74-.37-1.419-.74-2.159-1.11a57 57 0 0 0-4.502-1.848 60 60 0 0 0-4.749-1.294 33 33 0 0 0-4.873-.739c-1.603-.123-3.269-.185-4.872-.123a58 58 0 0 0-3.269.246 29 29 0 0 0-3.208.555c-1.11.246-2.158.554-3.207.862h0a32 32 0 0 0-3.145 1.11L53.442 65.22c-.246.062-.493.185-.74.308-.246.123-.431.246-.678.37-.185.123-.432.308-.617.431s-.37.247-.555.431c-.185.185-.37.308-.555.493-.185.123-.308.308-.493.493-.124.185-.309.37-.432.555-.185.184-.309.37-.432.554h0c-.247.431-.493.801-.678 1.233-.185.43-.309.862-.432 1.293-.124.432-.185.925-.247 1.356a5 5 0 0 0 0 1.355c0 .308.062.617.123.925.062.308.124.616.247.924l.37.924c.185.308.309.616.494.924.123.247.308.493.431.678.124.185.247.431.432.616.123.185.309.37.493.555l.556.554c.185.185.37.308.555.493.185.123.431.308.617.431.246.185.431.308.678.432.185.123.432.246.678.37h0c.432.246.926.43 1.419.616.493.184 1.048.308 1.542.43.493.124.987.186 1.542.247.555.062 1.048.062 1.604.062.37 0 .678 0 1.048-.062.37-.061.678-.123 1.049-.184.37-.124.678-.185 1.048-.309.37-.123.678-.246 1.049-.37l35.402-15.28a14 14 0 0 1 4.935-1.109c1.665-.061 3.33.124 4.934.617a15 15 0 0 1 4.441 2.218c1.357.985 2.529 2.156 3.392 3.573.864 1.417 1.419 2.896 1.604 4.375s.061 2.957-.37 4.313a9.6 9.6 0 0 1-2.221 3.82c-1.048 1.109-2.344 2.095-3.947 2.773l-35.773 15.711h0c-.864.37-1.727.74-2.59 1.048-.864.308-1.728.616-2.653.862-.863.247-1.788.493-2.714.678s-1.85.37-2.775.493-1.85.246-2.776.308h0c-.925.062-1.85.123-2.775.123s-1.85 0-2.776-.061h0c-.925-.062-1.85-.124-2.775-.247-1.789-.246-3.577-.616-5.366-1.047-1.789-.493-3.516-1.048-5.181-1.725a44 44 0 0 1-4.872-2.342 31.5 31.5 0 0 1-4.503-2.957c-.925-.74-1.85-1.48-2.714-2.28-.863-.801-1.665-1.664-2.467-2.526a44 44 0 0 1-2.22-2.773c-.679-.924-1.357-1.91-1.912-2.957a41 41 0 0 1-1.172-2.342c-.37-.74-.679-1.54-.987-2.341l-.74-2.403c-.185-.801-.37-1.602-.555-2.341-.124-.801-.247-1.602-.309-2.403-.061-.801-.123-1.602-.123-2.403s0-1.602.123-2.403c.062-.801.124-1.54.247-2.342a40 40 0 0 1 1.049-4.497 29 29 0 0 1 1.85-4.313 27.3 27.3 0 0 1 2.529-4.005 36 36 0 0 1 3.207-3.636c.74-.8 1.604-1.54 2.467-2.218a32 32 0 0 1 2.776-1.971c.986-.678 1.973-1.233 3.022-1.787 1.048-.493 2.158-1.048 3.269-1.479l40.46-16.45a54 54 0 0 1 4.07-1.48 81 81 0 0 1 4.133-1.17 51 51 0 0 1 4.194-.925c1.419-.246 2.838-.43 4.256-.616a50 50 0 0 1 4.256-.37c1.418-.061 2.837-.061 4.256-.061 1.418 0 2.837.062 4.194.247 1.357.123 2.775.246 4.194.43a75 75 0 0 1 8.265 1.603 61 61 0 0 1 8.018 2.587 61 61 0 0 1 7.648 3.512 77 77 0 0 1 7.154 4.437c1.542 1.109 3.023 2.218 4.441 3.45 1.48 1.233 2.837 2.465 4.133 3.82 1.356 1.294 2.59 2.711 3.762 4.19"/></svg>