<svg width="192" height="192" viewBox="0 0 192 192" fill="none" xmlns="http://www.w3.org/2000/svg"><path d="M158.973 48.276c1.172 1.479 2.282 2.957 3.33 4.56.802 1.17 1.542 2.403 2.344 3.635a51.82 51.82 0 0 1 1.851 3.697c.555 1.232 1.11 2.526 1.541 3.758.494 1.232.864 2.526 1.234 3.758a43.18 43.18 0 0 1 .925 3.82c.185 1.294.432 2.527.555 3.82.124 1.295.185 2.527.247 3.82v.002c0 1.293 0 2.587-.062 3.819-.185 2.526-.493 4.99-1.048 7.455s-1.357 4.868-2.282 7.21c-.925 2.34-2.097 4.62-3.454 6.838-1.357 2.218-2.961 4.313-4.688 6.347a44.62 44.62 0 0 1-3.762 3.881c-1.357 1.233-2.776 2.465-4.317 3.574-1.542 1.109-3.146 2.218-4.811 3.204a71.4 71.4 0 0 1-5.305 2.772l-26.286 12.139c-3.357 1.55-4.527 5.738-2.459 8.803l3.704 5.491c.925 1.479 1.419 3.081 1.666 4.621.246 1.54.123 3.142-.247 4.621-.432 1.541-1.11 2.958-2.097 4.19-.987 1.232-2.282 2.341-3.824 3.204-1.604.862-3.331 1.417-5.119 1.602a15.35 15.35 0 0 1-5.305-.37 15.72 15.72 0 0 1-4.872-2.156 14.101 14.101 0 0 1-3.824-3.82L74.06 134.626c-2.046-3.082-.842-7.264 2.53-8.786l51.296-23.159c.802-.308 1.542-.739 2.282-1.109a24.226 24.226 0 0 0 2.159-1.232c.679-.493 1.357-.924 1.974-1.417.584-.409 1.169-.928 1.701-1.4l.087-.079a13.754 13.754 0 0 0 1.666-1.602c.493-.554.987-1.17 1.48-1.725.493-.555.925-1.17 1.357-1.787.432-.554.802-1.232 1.172-1.848.74-1.233 1.357-2.588 1.85-3.944a24.554 24.554 0 0 0 1.11-4.19c.247-1.416.432-2.895.432-4.312 0-1.479-.062-2.896-.308-4.375a48.2 48.2 0 0 0-.617-2.896 26.305 26.305 0 0 0-.925-2.896c-.309-.924-.74-1.91-1.234-2.834-.493-.986-.987-1.91-1.603-2.834-.432-.678-.926-1.356-1.419-2.033a23.122 23.122 0 0 0-1.542-1.91h0a47.337 47.337 0 0 0-1.665-1.787c-.555-.616-1.172-1.11-1.789-1.664-.555-.554-1.233-1.047-1.85-1.54a22.85 22.85 0 0 0-1.974-1.417c-.678-.493-1.419-.863-2.097-1.294-.74-.37-1.419-.74-2.159-1.11a57.397 57.397 0 0 0-4.502-1.848 59.888 59.888 0 0 0-4.749-1.294 33.271 33.271 0 0 0-4.873-.739c-1.603-.123-3.269-.185-4.872-.123a57.884 57.884 0 0 0-3.269.246 29.124 29.124 0 0 0-3.208.555c-1.11.246-2.158.554-3.207.862h0a31.907 31.907 0 0 0-3.145 1.11L53.442 65.22c-.246.062-.493.185-.74.308-.246.123-.431.246-.678.37-.185.123-.432.308-.617.431s-.37.247-.555.431c-.185.185-.37.308-.555.493-.185.123-.308.308-.493.493-.124.185-.309.37-.432.555-.185.184-.309.37-.432.554h0c-.247.431-.493.801-.678 1.233-.185.43-.309.862-.432 1.293-.124.432-.185.925-.247 1.356a4.986 4.986 0 0 0 0 1.355c0 .308.062.617.123.925.062.308.124.616.247.924l.37.924c.185.308.309.616.494.924.123.247.308.493.431.678.124.185.247.431.432.616.123.185.309.37.493.555l.556.554c.185.185.37.308.555.493.185.123.431.308.617.431.246.185.431.308.678.432.185.123.432.246.678.37h0c.432.246.926.43 1.419.616.493.184 1.048.308 1.542.43.493.124.987.186 1.542.247.555.062 1.048.062 1.604.062.37 0 .678 0 1.048-.062.37-.061.678-.123 1.049-.184.37-.124.678-.185 1.048-.309.37-.123.678-.246 1.049-.37l35.402-15.28a13.982 13.982 0 0 1 4.935-1.109c1.665-.061 3.33.124 4.934.617a15.002 15.002 0 0 1 4.441 2.218c1.357.985 2.529 2.156 3.392 3.573.864 1.417 1.419 2.896 1.604 4.375.185 1.479.061 2.957-.37 4.313a9.585 9.585 0 0 1-2.221 3.82c-1.048 1.109-2.344 2.095-3.947 2.773l-35.773 15.711h0c-.864.37-1.727.74-2.59 1.048-.864.308-1.728.616-2.653.862-.863.247-1.788.493-2.714.678-.925.185-1.85.37-2.775.493-.925.123-1.85.246-2.776.308h0c-.925.062-1.85.123-2.775.123-.925 0-1.85 0-2.776-.061h0c-.925-.062-1.85-.124-2.775-.247-1.789-.246-3.577-.616-5.366-1.047-1.789-.493-3.516-1.048-5.181-1.725a44.283 44.283 0 0 1-4.872-2.342 31.461 31.461 0 0 1-4.503-2.957c-.925-.74-1.85-1.48-2.714-2.28-.863-.801-1.665-1.664-2.467-2.526a43.708 43.708 0 0 1-2.22-2.773c-.679-.924-1.357-1.91-1.912-2.957a40.911 40.911 0 0 1-1.172-2.342c-.37-.74-.679-1.54-.987-2.341l-.74-2.403c-.185-.801-.37-1.602-.555-2.341-.124-.801-.247-1.602-.309-2.403-.061-.801-.123-1.602-.123-2.403 0-.801 0-1.602.123-2.403.062-.801.124-1.54.247-2.342a39.484 39.484 0 0 1 1.049-4.497 29.296 29.296 0 0 1 1.85-4.313 27.306 27.306 0 0 1 2.529-4.005 35.611 35.611 0 0 1 3.207-3.636c.74-.8 1.604-1.54 2.467-2.218a31.804 31.804 0 0 1 2.776-1.971c.986-.678 1.973-1.233 3.022-1.787 1.048-.493 2.158-1.048 3.269-1.479l40.46-16.45a53.97 53.97 0 0 1 4.07-1.48 80.726 80.726 0 0 1 4.133-1.17 51.124 51.124 0 0 1 4.194-.925c1.419-.246 2.838-.43 4.256-.616a49.581 49.581 0 0 1 4.256-.37c1.418-.061 2.837-.061 4.256-.061 1.418 0 2.837.062 4.194.247 1.357.123 2.775.246 4.194.43a75.28 75.28 0 0 1 8.265 1.603 60.868 60.868 0 0 1 8.018 2.587 61.043 61.043 0 0 1 7.648 3.512 77.02 77.02 0 0 1 7.154 4.437c1.542 1.109 3.023 2.218 4.441 3.45 1.48 1.233 2.837 2.465 4.133 3.82 1.356 1.294 2.59 2.711 3.762 4.19Z" stroke="#000" stroke-width="10" stroke-linecap="round" stroke-linejoin="round"/></svg>