<svg xmlns="http://www.w3.org/2000/svg" width="192" height="192" fill="none"><path stroke="#000" stroke-linecap="round" stroke-linejoin="round" stroke-width="12" d="M88 36h82v32a6 6 0 0 1-6 6H94a6 6 0 0 1-6-6zm0-14v14m24 38v64a6 6 0 0 1-6 6H88m58-70v64a6 6 0 0 0 6 6h18"/><path stroke="#000" stroke-linecap="round" stroke-linejoin="round" stroke-width="12" d="M170 170H68a6 6 0 0 1-6-6V98a6 6 0 0 0-6-6H22m148-70v14"/><path stroke="#000" stroke-linecap="round" stroke-linejoin="round" stroke-width="12" d="M22 22h34a6 6 0 0 1 6 6v23a6 6 0 0 1-6 6H28a6 6 0 0 0-6 6v107"/></svg>