<svg xmlns="http://www.w3.org/2000/svg" width="192" height="192" fill="none"><path stroke="#000" stroke-linecap="round" stroke-linejoin="round" stroke-width="12" d="M52 155h73m-73 0a30 30 0 0 1-27.716-18.519A30.002 30.002 0 0 1 48.64 95.189m0 0a45 45 0 0 1-1.776-23.968 45 45 0 0 1 86.85-5.378M48.641 95.19a30 30 0 0 1 31.63 19.772m0 0C82.74 137.479 101.823 155 125 155c24.853 0 45-20.147 45-45 0-21.871-15.603-40.098-36.285-44.157M80.27 114.961A46 46 0 0 1 80 110c0-24.853 20.147-45 45-45 2.982 0 5.896.29 8.715.843"/></svg>