<svg xmlns="http://www.w3.org/2000/svg" xmlns:xlink="http://www.w3.org/1999/xlink" width="192" height="192" viewBox="0 0 192 192" fill="none"><defs><rect id="path_0" x="0" y="0" width="192" height="192" /></defs><g opacity="1" transform="translate(0 0)  rotate(0 96 96)"><mask id="bg-mask-0" fill="white"><use xlink:href="#path_0"/></mask><g mask="url(#bg-mask-0)" ><path id="分组 1" fill-rule="evenodd" style="fill:#000000" transform="translate(22 16)  rotate(0 74 80)" opacity="1" d="M67.2758 97.0753C76.2458 103.895 88.9658 99.6053 91.5858 88.6953C92.2558 85.8553 92.4558 82.6153 91.8158 79.8053C89.8658 71.3753 87.4158 63.0653 85.1158 54.5753C73.8658 55.8753 63.6058 64.4453 60.6458 74.7353C58.1558 83.3953 60.7458 92.1153 67.2758 97.0753Z M122.73 20.9C126.28 17.67 126.38 12.6 122.94 8.57C115.99 0.35 103.46 -2.33 93.09 2.17C82.67 6.69 76.85 16.68 78.34 27.77C78.8 31.21 79.68 34.58 80.39 38.08L77.19 38.95C66.67 41.88 58.01 47.56 51.41 56.25C40.08 71.18 39.89 90.84 50.9 104.54C66.57 124.02 96.95 120.23 106.49 97.58C109.98 89.3 109.88 80.84 107.57 72.32C106.04 66.64 104.42 60.98 102.75 54.95C108.56 56.38 113.88 59.33 118.16 63.48C133.62 78.42 135.19 103.85 121.78 121.36C107.82 139.59 83 147.47 59.97 140.98C31.69 133.03 13.18 104.88 17.68 75.97C21.05 54.34 33.3 39.22 53.33 30.3C58.33 28.07 60.45 23.45 58.49 18.93C56.56 14.47 51.85 12.76 46.9 14.74C13.45 28.05 -6.22 65.3 1.78 100.2C10.54 138.33 44.73 163.34 83.81 159.64C105.1 157.61 122.7 148.04 135.63 130.93C154.14 106.43 151.58 72.43 129.95 51.43C121.76 43.48 111.86 38.98 100.58 37.32C99.55 37.17 97.91 36.69 97.72 36.03C96.65 32.19 95.5 28.3 95.19 24.36C94.83 19.99 98.74 16.52 103.18 16.47C106.28 16.44 108.51 18.07 110.6 20.14C114.31 23.81 119.25 24.07 122.73 20.9Z " /></g></g></svg>
