<svg xmlns="http://www.w3.org/2000/svg" width="192" height="192" fill="none"><path stroke="#000" stroke-linecap="round" stroke-linejoin="round" stroke-width="10" d="M63 113c-20.434 0-37-16.566-37-37s16.566-37 37-37q.618 0 1.232.02M129 113c20.435 0 37-16.566 37-37s-16.565-37-37-37q-.618 0-1.232.02m-63.536 0A36.83 36.83 0 0 0 59 58a36.83 36.83 0 0 0 5.244 19m-.012-37.98C70.695 28.226 82.504 21 96 21s25.305 7.226 31.768 18.02m-63.536 0c13.784.451 25.66 8.441 31.64 19.98m31.896-19.98A36.83 36.83 0 0 1 133 58a36.83 36.83 0 0 1-5.244 19m.012-37.98c-13.784.451-25.661 8.441-31.64 19.98M96 133c20.435 0 37-16.565 37-37a36.83 36.83 0 0 0-5.244-19M96 133c-20.434 0-37-16.565-37-37a36.83 36.83 0 0 1 5.244-19M96 133h-.128m.128 0h.128M64.244 77c6.446-10.749 18.194-17.954 31.628-18m31.884 18c-6.446-10.749-18.194-17.954-31.628-18m-.256 0h.256m-.256 0h.256M63 79c-20.434 0-37 16.566-37 37s16.566 37 37 37q.618 0 1.232-.02M129 79c20.435 0 37 16.566 37 37s-16.565 37-37 37q-.618 0-1.232-.02m-63.536 0A36.83 36.83 0 0 1 59 134a36.83 36.83 0 0 1 5.244-19m-.012 37.98C70.695 163.774 82.504 171 96 171s25.305-7.226 31.768-18.02m-63.536 0c13.784-.451 25.66-8.441 31.64-19.98m31.896 19.98A36.83 36.83 0 0 0 133 134a36.83 36.83 0 0 0-5.244-19m.012 37.98c-13.784-.451-25.661-8.441-31.64-19.98m-.256 0h.256M96 79v34m14.725-25.504-29.445 17m29.45 0-29.445-17"/></svg>