<svg xmlns="http://www.w3.org/2000/svg" width="192" height="192" fill="none" stroke="#000" stroke-linecap="round" stroke-width="12" viewBox="0 0 192 192"><path d="M22 75.7s26.3 29 37.1 36.7c5.2 3.8 11.9 4.8 16.8.6 10.1-8.5 30.2-25.6 40.3-34 4.9-4.2 11.8-3.5 16.8.6 9.9 8.2 37.1 36.7 37.1 36.7M32.4 63.5s25.9-24.9 36.2-32.1c20.6-14.6 42.3-11.4 61.5 5 11.5 9.8 39.6 37.5 39.6 37.5"/><path d="M53.8 85.8S80.5 61.3 92 52.5c10.7-8.3 24.9-7.1 35.4 1.6 11.7 9.7 42.4 40.7 42.4 40.7m-10.3 33.7s-25.9 24.9-36.2 32.1c-20.6 14.6-42.3 11.4-61.5-5-11.5-9.8-39.6-37.5-39.6-37.5"/><path d="M138.1 106.2s-26.7 24.5-38.2 33.3c-10.7 8.3-24.9 7.1-35.4-1.6-11.5-9.7-42.2-40.7-42.2-40.7"/></svg>