<?xml version="1.0" encoding="utf-8"?>
	<svg version="1.1" xmlns="http://www.w3.org/2000/svg" xmlns:xlink="http://www.w3.org/1999/xlink" x="0px" y="0px" width="240.0" height="240.0" xml:space="preserve">
		<path d="M151.263,146.211C151.263,150 148.737,152.526 144.947,152.526H123.474V210H190.421C200.526,210 208.105,201.789 208.105,192.316V124.105H150.632V146.211H151.263V146.211ZM145.579,87.474C149.368,87.474 151.895,90 151.895,93.789V115.263H209.368V48.316C209.368,38.21 201.158,30.632 191.684,30.632H124.737V88.105H145.579V87.474ZM86.842,93.789C86.842,90 89.368,87.474 93.158,87.474H114.632V30H47.684C37.579,30 30,38.21 30,47.684V115.263H87.474V93.789H86.842ZM92.526,151.895C88.737,151.895 86.211,149.368 86.211,145.579V124.105H30V191.053C30,201.158 38.21,208.737 47.684,208.737H114.632V151.263H92.526V151.895V151.895Z" fill="#000" stroke="" stroke-width="" stroke-miterlimit=""/>
	</svg>
