<?xml version="1.0" encoding="utf-8"?>
	<svg version="1.1" xmlns="http://www.w3.org/2000/svg" xmlns:xlink="http://www.w3.org/1999/xlink" x="0px" y="0px" width="240.0" height="240.0" xml:space="preserve">
		<path d="M224.777,55.767C230.75,52.919 236.569,55.063 239.356,61.035C240.367,63.149 240.183,65.109 238.835,67.069C231.24,78.126 223.797,89.336 216.048,100.301C209.8,109.122 206.645,119.015 204.93,129.49C204.256,133.686 203.582,137.944 202.97,142.17C202.847,142.875 202.878,143.671 203.153,144.314C204.317,146.979 204.042,149.613 203.306,152.308C200.366,162.998 197.456,173.687 194.547,184.376C194.026,186.275 193.567,188.236 192.985,190.135C192.372,192.064 191.178,193.412 188.972,193.595C186.583,193.748 184.807,192.738 183.919,190.594C182.597,187.461 181.442,184.261 180.458,181.007C180.12,179.874 180.55,178.496 180.672,176.872C183.122,178.465 185.174,179.813 187.38,181.467C187.665,180.282 187.951,179.1 188.236,177.918L189.947,170.829C191.657,163.739 193.373,156.627 195.129,149.337C187.502,152.859 180.764,157.025 174.73,162.079C176.2,163.794 177.64,165.325 178.865,167.01C180.825,169.736 180.182,172.033 177.18,173.564C172.831,175.8 168.329,175.188 163.612,174.146C164.99,172.309 166.215,170.624 167.441,168.97C167.318,168.878 167.226,168.786 167.104,168.725C165.021,169.828 162.938,170.9 160.917,172.094C160.427,172.401 159.967,173.136 159.875,173.718C159.445,176.507 159.078,179.305 158.773,182.11C158.711,182.784 158.895,183.488 159.079,184.131C159.937,186.888 160.886,189.675 161.836,192.401C162.326,193.841 162.08,195.127 161.407,196.352C160.58,197.853 159.661,199.292 158.742,200.701C157.854,202.049 156.843,202.202 155.373,201.498C150.779,199.292 147.93,195.709 146.583,190.808C145.296,186.061 142.968,181.803 140.365,177.669C139.416,176.198 138.864,174.483 138.252,172.584C140.146,173.331 140.971,172.336 141.779,171.277L141.959,171.042C142.02,170.963 142.08,170.885 142.141,170.808C149.798,161.313 157.456,151.849 165.113,142.385C167.716,139.138 169.646,135.616 170.044,131.358C170.166,130.011 170.779,128.694 172.249,128.143C173.719,127.591 174.883,128.357 175.802,129.276C177.242,130.715 178.65,132.216 179.845,133.87C182.265,137.209 181.897,140.363 178.834,143.242C176.445,145.539 173.964,147.714 171.453,149.889C162.417,157.76 153.351,165.57 144.285,173.411C144.163,173.534 144.132,173.656 143.979,173.84C145.786,176.689 148.543,178.128 151.605,179.108C151.912,179.169 152.616,178.741 152.77,178.373C153.658,176.229 154.423,174.024 155.189,171.819C155.312,171.451 155.281,170.9 155.097,170.594C154.209,169.154 154.791,168.235 155.955,167.377C162.172,162.936 168.329,158.404 174.607,154.024C175.696,153.268 176.801,152.531 177.908,151.796L179.569,150.693C182.891,148.483 186.185,146.223 189.125,143.487C190.779,141.956 192.74,140.976 195.006,140.792C196.17,140.7 196.078,139.904 196.109,139.107C196.415,132.155 197.518,125.386 200.06,118.862C206.461,102.476 214.67,87.131 225.512,73.256C226.676,71.755 227.871,70.254 228.881,68.662C229.616,67.498 230.229,66.181 230.658,64.864C231.393,62.536 230.719,61.832 228.269,61.954C224.991,62.077 222.051,63.118 219.325,64.833C215.925,66.977 212.526,69.183 209.157,71.388C205.236,73.93 201.132,76.013 196.507,76.809C194.24,77.207 191.882,77.268 189.554,77.268C188.605,77.238 187.441,76.87 186.767,76.227C186.032,75.553 185.389,74.359 185.389,73.409C185.42,72.215 186.737,71.878 187.808,71.694C189.187,71.449 190.657,71.326 191.944,70.836C195.098,69.642 198.314,68.447 201.377,67.008C209.217,63.332 216.967,59.473 224.777,55.767ZM81.285,38L81.466,38.003C83.549,38.064 85.969,40.331 86.397,42.72C86.888,45.415 86.122,47.834 85.05,50.223C83.58,53.44 81.068,55.828 78.557,58.217C78.036,58.708 77.515,59.198 77.148,59.994C77.668,59.994 78.189,59.994 78.679,59.933C80.21,59.749 80.548,60.025 80.333,61.587C79.935,64.466 79.445,67.375 78.924,70.224C78.495,72.766 77.913,75.278 77.393,77.789C82.802,79.496 84.059,83.88 84.853,88.542L84.944,89.091L84.944,89.091L84.989,89.367C85.142,90.286 85.57,91.204 85.877,92.123C86.734,91.633 87.684,91.265 88.388,90.592C93.534,85.752 96.291,79.596 98.281,72.981C98.618,71.909 98.098,71.327 97.332,70.775C96.444,70.132 95.463,69.55 94.575,68.876C93.074,67.682 93.105,66.426 94.575,65.262C97.24,63.149 100.027,61.158 103.549,61.066C105.234,61.005 107.041,61.342 108.634,61.924C111.727,63.087 112.462,65.078 111.053,68.08C109.185,72.153 107.317,76.258 105.265,80.209C102.906,84.742 100.456,89.244 97.791,93.563C96.474,95.738 94.545,97.544 92.891,99.535C92.615,99.903 92.339,100.301 92.186,100.914C93.258,100.576 94.361,100.24 95.433,99.903C97.944,99.106 100.425,98.341 102.937,97.514C105.755,96.595 108.205,97.391 110.563,98.861C111.911,99.719 112.309,101.281 111.237,102.69C110.533,103.976 109.645,105.14 108.695,106.243C101.436,114.758 93.319,122.262 83.12,127.193C79.935,128.755 76.627,130.072 73.38,131.481C72.86,131.695 72.339,131.971 71.604,132.308C72.125,132.584 72.461,132.767 72.768,132.92C75.433,134.115 76.565,136.106 75.892,138.954C75.371,141.252 74.513,143.518 73.84,145.784C73.625,146.427 73.503,147.071 73.319,147.928C75.494,147.591 77.056,146.734 78.342,145.325C82.018,141.374 88.909,141.221 92.768,145.049C94.759,147.01 94.606,150.011 92.186,151.42C90.41,152.461 88.419,153.319 86.397,153.625C81.129,154.483 76.351,156.596 71.696,159.047C71.145,159.383 70.593,160.394 70.593,161.068C70.593,170.471 70.716,179.874 70.838,189.277C70.838,190.135 71.114,190.992 71.298,191.85C72.002,195.25 70.073,198.772 66.795,199.691C65.815,199.966 64.406,199.997 63.579,199.476C56.443,195.096 49.398,190.594 42.354,186.092C41.129,185.326 40.057,184.284 38.954,183.335C38.556,182.998 38.28,182.6 37.943,182.202C38.035,182.079 38.127,181.926 38.219,181.773C39.628,182.141 41.006,182.477 42.384,182.906C48.02,184.775 53.625,186.674 59.26,188.573C60.945,189.124 61.129,189.001 61.129,187.225L61.129,165.448C61.129,165.142 61.098,164.805 61.068,164.253C58.587,165.325 56.167,166.336 53.778,167.378C50.378,168.848 46.979,170.318 43.61,171.819C39.628,173.595 37.025,173.136 33.961,170.042C32.758,168.839 31.633,167.56 30.592,166.214C29.122,164.284 29.612,162.875 32.001,162.263C37.423,160.884 42.905,159.72 48.265,158.158C51.43,157.219 54.54,156.103 57.642,154.964L60.742,153.823L60.742,153.823L62.293,153.258C62.813,153.043 63.365,152.523 63.549,152.002C64.651,148.908 65.662,145.754 66.795,142.385C66.121,142.446 65.631,142.507 65.141,142.507C62.477,142.538 59.781,142.66 57.117,142.599C55.34,142.569 54.207,141.496 53.901,139.72C53.503,137.362 53.288,134.973 52.951,132.339C54.636,132.492 56.136,132.706 57.607,132.706C58.893,132.675 60.333,132.706 61.405,132.155C71.818,126.641 82.079,120.853 90.992,113.012C92.2,111.94 93.304,110.773 94.393,109.591L95.699,108.17C96.136,107.697 96.576,107.227 97.026,106.764C96.903,106.58 96.781,106.457 96.658,106.274C94.606,106.855 92.554,107.376 90.532,108.019C70.777,114.115 52.798,123.732 35.738,135.248C30.715,138.648 25.753,142.048 20.73,145.417C16.595,148.174 14.359,151.88 14.084,156.933C13.869,160.823 11.48,163.457 8.081,165.111C6.243,166.03 4.405,165.356 2.996,163.457C0.362,159.965 -0.679,156.014 0.454,151.757C2.138,145.386 4.007,139.107 5.814,132.798C5.845,132.675 5.967,132.553 6.12,132.369L6.12,132.369L6.789,132.943C9.912,135.62 13.032,138.276 14.604,142.507C35.095,127.805 56.535,114.942 79.904,105.018C79.414,104.558 79.077,104.16 78.649,103.885C75.555,101.863 72.461,99.811 69.337,97.851C67.04,96.411 66.121,96.565 64.437,98.616C62.354,101.159 60.241,103.64 58.403,106.335C57.147,108.173 53.38,108.632 51.481,107.591C50.287,106.917 50.225,105.998 51.297,104.865C53.166,102.904 55.126,101.006 57.025,99.015C58.097,97.882 59.138,96.718 60.057,95.462C61.466,93.563 60.915,91.909 58.709,90.959C57.607,90.5 56.504,89.98 55.432,89.428C55.064,89.244 54.636,88.938 54.421,88.601C54.146,88.172 53.809,87.59 53.932,87.192C54.023,86.855 54.728,86.549 55.187,86.488C57.913,86.273 60.639,86.028 63.365,85.967C64.896,85.936 65.754,85.416 66.305,83.945C68.418,78.31 70.624,72.705 72.798,67.069C72.952,66.702 73.043,66.365 73.319,65.599C72.523,66.12 71.971,66.395 71.512,66.763L71.512,66.763L63.242,73.042C60.179,75.339 55.371,74.267 53.472,70.959C52.553,69.397 53.074,67.039 55.432,66.671C56.994,66.426 58.74,65.783 59.934,64.772C63.794,61.525 67.622,58.187 71.175,54.603C74.605,51.112 76.321,46.64 77.607,41.984C78.465,38.952 79.506,37.942 81.466,38.003ZM163.459,180.088C164.255,178.894 165.541,178.526 166.675,179.2C169.125,180.64 171.514,182.202 173.72,184.009C174.485,184.652 174.607,186.122 175.036,187.225C175.128,189.246 173.964,190.226 172.494,190.992C171.054,191.727 169.829,191.482 168.543,190.196C166.951,188.634 165.388,187.041 163.857,185.387C162.571,184.009 162.417,181.62 163.459,180.088ZM162.234,72C164.715,70.009 167.502,69.152 170.656,69.336C172.954,69.458 174.301,70.745 174.209,73.042C174.148,74.389 173.842,75.829 173.413,77.146C170.442,86.763 167.196,96.289 164.439,105.967C162.448,112.92 161.866,120.118 161.621,127.346C161.498,130.93 161.407,134.513 161.315,138.127C161.254,140.057 160.426,141.619 158.803,142.66C157.333,143.61 155.802,144.437 154.27,145.325C153.29,145.907 152.861,145.294 152.463,144.529C150.717,141.221 148.972,137.913 147.195,134.605C147.103,134.391 146.95,134.207 146.766,133.901C145.204,136.504 143.734,139.077 142.049,141.558C139.752,145.233 136.781,148.143 132.708,149.858C132.31,150.011 131.911,150.164 131.483,150.287C128.818,151.053 126.919,149.98 126.766,147.224C126.643,144.743 126.674,142.109 127.256,139.72C128.665,134.115 130.472,128.602 132.034,123.058C132.984,119.658 133.749,116.197 134.668,112.767C135.25,110.562 134.882,108.632 133.351,106.917C132.922,106.427 132.524,105.937 132.218,105.385C131.513,104.13 131.789,102.935 132.891,102.016C138.037,97.759 147.869,101.22 149.033,107.744C149.523,110.531 148.359,112.706 146.399,114.513C145.755,115.156 144.99,115.707 144.255,116.258C140.549,119.199 138.129,122.966 136.72,127.469C135.863,130.317 134.913,133.135 133.994,135.953C133.841,136.381 133.78,136.78 133.688,137.209C133.81,137.331 133.933,137.423 134.055,137.515C135.342,136.32 136.72,135.217 137.853,133.931C140.61,130.746 143.274,127.469 145.97,124.191C146.827,123.15 147.563,123.211 148.481,124.191C149.339,125.11 150.319,125.937 151.483,126.979C155.142,111.553 158.797,96.126 162.448,80.699C160.488,81.281 158.681,81.771 156.904,82.322C154.301,83.118 151.728,83.945 149.094,84.711C146.337,85.507 144.592,84.864 142.938,82.475C142.356,81.648 141.804,80.76 141.223,79.933C140.549,78.984 140.824,78.31 141.896,78.126C143.274,77.881 144.684,77.636 146.093,77.575C152.034,77.299 157.547,75.768 162.234,72ZM184.163,87.652C185.144,86.58 186.338,86.12 187.717,86.763C190.044,87.805 192.495,88.754 194.638,90.133C195.864,90.929 196.783,92.368 197.518,93.685C198.314,95.125 197.793,96.687 196.078,97.636C193.628,98.984 191.024,100.056 188.421,101.128C187.012,101.71 185.511,101.986 184.225,102.384C186.644,105.569 188.972,108.693 191.392,111.756C192.464,113.165 192.77,114.635 191.943,116.258C191.147,117.851 189.707,118.28 188.054,118.311C183.184,118.402 180.672,116.166 180.151,111.113C179.967,109.49 179.967,107.805 180.121,106.151C180.274,104.221 180.856,102.445 182.265,101.006C183.52,99.719 184.592,98.28 185.787,96.932C186.675,95.952 186.737,95.064 185.695,94.053C184.899,93.287 184.225,92.338 183.674,91.388C182.877,90.071 183.122,88.785 184.163,87.652ZM31.358,87.314C31.848,87.192 32.706,87.56 33.073,87.989C34.084,89.152 35.095,90.408 35.768,91.786C37.913,96.197 39.965,100.699 41.986,105.14C42.354,105.967 42.538,106.886 42.691,107.315C42.721,111.695 39.26,113.87 35.799,112.124C32.461,110.531 30.776,107.836 30.347,104.252C30.041,101.618 29.582,99.015 29.521,96.411C29.49,93.869 29.857,91.296 30.194,88.754C30.255,88.233 30.837,87.468 31.358,87.314ZM39.352,75.584C40.393,74.91 41.496,74.696 42.66,75.278C45.233,76.594 47.407,78.402 48.816,80.913C50.085,83.145 51.161,85.481 52.032,87.897C53.043,90.653 49.49,95.523 46.703,95.584C44.436,95.615 42.66,94.053 42.17,91.878C41.312,88.08 40.24,84.282 39.291,80.484C39.107,79.719 38.893,78.984 38.709,78.218C38.464,77.238 38.341,76.258 39.352,75.584ZM77.056,81.74C76.321,83.762 75.831,85.875 75.279,87.958C74.912,89.397 75.647,89.888 77.056,90.071L77.056,90.071Z" fill="#000" stroke="#00000000" stroke-width="1.0" stroke-miterlimit=""/>
	</svg>
