<svg width="192" height="192" viewBox="0 0 192 192" fill="none" xmlns="http://www.w3.org/2000/svg"><path d="M75.0824 29.6243L19.6115 158.269C17.9037 162.23 20.808 166.645 25.1212 166.645H50.8023C53.1776 166.645 55.3293 165.244 56.2898 163.072L91.0384 84.4864C93.1635 79.6804 100.002 79.7344 102.051 84.5734L124.312 137.148C125.721 140.476 123.89 144.285 120.412 145.263L86.257 154.869C79.5452 156.757 80.9093 166.645 87.8815 166.645H166.879C171.192 166.645 174.096 162.23 172.388 158.269L116.918 29.6243C115.969 27.4247 113.803 26 111.408 26H80.592C78.1967 26 76.0308 27.4247 75.0824 29.6243Z" stroke="black" stroke-width="12"/></svg>