<svg width="192" height="192" fill="none" xmlns="http://www.w3.org/2000/svg"><circle cx="96" cy="38" r="16" stroke="#000" stroke-width="12" stroke-linecap="round" stroke-linejoin="round"/><path d="M144.787 142.69c6.248 6.248 6.248 16.379 0 22.627-6.248 6.248-16.379 6.248-22.627 0m22.627-22.627c-6.248-6.249-16.379-6.249-22.627 0-6.249 6.248-6.249 16.379 0 22.627m22.627-22.627L68.419 66.322m53.741 98.995L45.792 88.949m76.368-21.213c6.248-6.248 16.379-6.248 22.627 0 6.248 6.249 6.248 16.38 0 22.628M122.16 67.736c-6.249 6.249-6.249 16.38 0 22.628 6.248 6.248 16.379 6.248 22.627 0M122.16 67.736l-76.368 76.368m98.995-53.74L68.419 166.73m1.415-98.995c6.248 6.249 6.248 16.38 0 22.628-6.249 6.248-16.38 6.248-22.628 0-6.248-6.249-6.248-16.38 0-22.628 6.249-6.248 16.38-6.248 22.628 0ZM47.206 142.69c6.249-6.249 16.38-6.249 22.628 0 6.248 6.248 6.248 16.379 0 22.627-6.249 6.248-16.38 6.248-22.628 0-6.248-6.248-6.248-16.379 0-22.627Z" stroke="#000" stroke-width="12" stroke-linecap="round" stroke-linejoin="round"/></svg>