<svg xmlns="http://www.w3.org/2000/svg" width="192" height="192"><g style="fill:none;stroke:#000;stroke-width:12.0074;stroke-dasharray:none;stroke-opacity:1"><path d="M104.815-286.917c-.016-.634-.032-1.27-.338-2.36s-.9-2.63-2.049-3.895c-1.148-1.265-2.833-2.237-4.511-2.669s-3.337-.318-4.98.504c-1.645.822-3.272 2.352-4.493 4.2-1.22 1.847-2.034 4.011-2.466 5.875-.431 1.864-.48 3.426-.195 5.11s.903 3.492 1.693 4.826c.789 1.335 1.75 2.198 2.93 2.808s2.579.969 4.459.895 4.24-.578 6.242-1.163 3.646-1.254 5.29-1.921q-1.32-3.906-2.637-7.813c-1.107.57-2.214 1.14-3.41 1.58-1.196.439-2.482.748-3.646.846s-2.205-.017-2.783-.326c-.578-.31-.692-.814-.635-2.034.057-1.221.285-3.158.766-4.346.48-1.188 1.214-1.628 1.817-1.644.602-.016 1.072.39 1.362 1.102.29.71.399 1.726.508 2.74z" style="fill:none;stroke:#000;stroke-width:1.97468;stroke-linecap:round;stroke-linejoin:round;stroke-dasharray:none;stroke-opacity:1" transform="matrix(6.10681 0 0 6.04723 -490.264 1812.494)"/></g></svg>