<svg width="192" height="192" viewBox="0 0 192 192" fill="none" xmlns="http://www.w3.org/2000/svg">
<rect x="22" y="42" width="108" height="108" rx="12" stroke="black" stroke-width="12"/>
<path d="M170 150H150" stroke="black" stroke-width="12" stroke-linecap="round"/>
<path d="M102.289 110.453C99.0818 116.287 94.0247 120.888 87.9144 123.533C81.8042 126.177 74.988 126.713 68.5393 125.057C62.0906 123.402 56.376 119.648 52.2953 114.387C48.2147 109.126 46 102.658 46 96C46 89.3422 48.2147 82.8735 52.2953 77.6128C56.376 72.3521 62.0906 68.5982 68.5393 66.9425C74.988 65.2868 81.8042 65.8232 87.9144 68.4674C94.0247 71.1115 99.0818 75.7131 102.289 81.5474" stroke="black" stroke-width="12" stroke-linecap="round"/>
</svg>
