<svg xmlns="http://www.w3.org/2000/svg" width="192" height="192" fill="none"><circle cx="108" cy="44" r="4" stroke="#000" stroke-linecap="round" stroke-linejoin="round" stroke-width="8"/><path stroke="#000" stroke-linecap="round" stroke-linejoin="round" stroke-width="12" d="M28 22v148M56 22v148m24-92.95 16.247-10.124c4.603-2.869 10.336 1.373 8.97 6.636l-17.346 66.875c-1.376 5.309 4.455 9.552 9.051 6.585L112 137.291"/><path stroke="#000" stroke-linecap="round" stroke-linejoin="round" stroke-width="10" d="M28 150h28m80 0h28M28 42h28m80 0h28M28 78h28m80 0h28M28 114h28m80 0h28"/><path stroke="#000" stroke-linecap="round" stroke-linejoin="round" stroke-width="12" d="M164 22v148M136 22v148"/></svg>