<svg id="Layer_1" data-name="Layer 1" xmlns="http://www.w3.org/2000/svg" viewBox="0 0 192 192"><defs><style>.cls-1,.cls-2{fill:none;}.cls-1{stroke:#000;stroke-linejoin:round;stroke-width:12px;}</style></defs><path class="cls-1" d="M89.19,104.56l17.1,5.32a66.64,66.64,0,0,1-3.07,6c-5.6,8.74-13.92,13.1-24,14.3-8.72,1-17-.62-24.23-5.68-10.08-7-14.7-17-14.23-29.1.5-13,6.56-22.84,18.26-28.76,13.59-6.88,31.05-3.86,41,6.83a27.22,27.22,0,0,1,6.07,10.35L89.32,88.94a48,48,0,0,0-2.67-4.15A15.45,15.45,0,0,0,62,85.86c-5,7.21-4.14,18,1.81,24a15.38,15.38,0,0,0,24.55-3.71C88.63,105.66,88.87,105.17,89.19,104.56Z"/><path d="M118,48.21a5,5,0,0,1,5,5v85a5,5,0,0,1-5,5H33a5,5,0,0,1-5-5v-85a5,5,0,0,1,5-5h85m0-12H33a17,17,0,0,0-17,17v85a17,17,0,0,0,17,17h85a17,17,0,0,0,17-17v-85a17,17,0,0,0-17-17Z"/><rect x="141.81" y="143.36" width="34.18" height="12.43" rx="5"/><rect class="cls-2" width="192" height="192"/></svg>