<svg xmlns="http://www.w3.org/2000/svg" width="192" height="192" fill="none"><path stroke="#000" stroke-linecap="round" stroke-linejoin="round" stroke-width="12" d="M88.51 133.948 99.515 170l48.446-7.262L141.836 145m-53.325-11.052L77.507 97.896m11.004 36.052L128 128.029m21.62-77.242-38.453 5.38m38.453-5.38 12.406 34.44-38.817 5.818m26.411-40.258L170 47.935m-58.833 8.231L99.372 22l-43.185 6.042 10.484 34.35m44.496-6.226-44.496 6.225m44.496-6.225 12.042 34.88M66.671 62.39 22 68.641l9.757 36.113 45.75-6.858M66.671 62.39l10.836 35.505m0 0 45.702-6.85m0 0L133.55 121M170 76l-42 53v13l17 1 25-24"/></svg>