<svg width="192" height="192" viewBox="0 0 192 192" fill="none" xmlns="http://www.w3.org/2000/svg">
<path d="M27 142.116L21 142.116V142.116H27ZM54.6471 22C54.6471 18.6863 51.9608 16 48.6471 16C45.3334 16 42.6471 18.6863 42.6471 22H48.6471H54.6471ZM42.6471 40.2319C42.6471 43.5456 45.3334 46.2319 48.6471 46.2319C51.9608 46.2319 54.6471 43.5456 54.6471 40.2319H48.6471H42.6471ZM85.8569 22C85.8569 18.6863 83.1707 16 79.8569 16C76.5432 16 73.8569 18.6863 73.8569 22H79.8569H85.8569ZM73.8569 40.2319C73.8569 43.5456 76.5432 46.2319 79.8569 46.2319C83.1707 46.2319 85.8569 43.5456 85.8569 40.2319H79.8569H73.8569ZM117.067 22C117.067 18.6863 114.381 16 111.067 16C107.753 16 105.067 18.6863 105.067 22H111.067H117.067ZM105.067 40.2319C105.067 43.5456 107.753 46.2319 111.067 46.2319C114.381 46.2319 117.067 43.5456 117.067 40.2319H111.067H105.067ZM33.0001 69.0121V75.0121H132.714V69.0121V63.0121H33.0001V69.0121ZM132.714 69.0121H126.714V142.116H132.714H138.714V69.0121H132.714ZM104.733 170V164H54.9813V170V176H104.733V170ZM27 142.116L33 142.116L33.0001 75.0121L27.0001 75.0121L21.0001 75.0121L21 142.116L27 142.116ZM165 101.186H159C159 115.622 147.251 127.36 132.714 127.36V133.36V139.36C153.839 139.36 171 122.289 171 101.186H165ZM132.714 69.0121V75.0121C147.251 75.0121 159 86.7502 159 101.186H165H171C171 80.0835 153.839 63.0121 132.714 63.0121V69.0121ZM54.9813 170V164C42.8217 164 33 154.182 33 142.116H27H21C21 160.849 36.2336 176 54.9813 176V170ZM132.714 142.116H126.714C126.714 154.182 116.892 164 104.733 164V170V176C123.48 176 138.714 160.849 138.714 142.116H132.714ZM48.6471 22H42.6471V40.2319H48.6471H54.6471V22H48.6471ZM79.8569 22H73.8569V40.2319H79.8569H85.8569V22H79.8569ZM111.067 22H105.067V40.2319H111.067H117.067V22H111.067ZM33.0001 69.0121V63.0121C26.3727 63.0121 21.0001 68.3847 21.0001 75.0121L27.0001 75.0121L33.0001 75.0121V75.0121V69.0121Z" fill="black"/>
</svg>
