<svg width="192" height="192" viewBox="0 0 192 192" fill="none" xmlns="http://www.w3.org/2000/svg"><path d="M96 22v6M83.81 53.911C85 96 115.028 135.133 115.028 135.133M61 89.311C61 118.933 84.649 139 99.784 139c5.675 0 31.216-.956 31.216-36.311C131 73.067 107.351 53 92.216 53 86.541 53 61 53.956 61 89.311Zm-2-57.397 3 5.196m71-5.196-3 5.196M96 164v6m34-15.11 3 5.196m-71-5.196-3 5.196M22 96h6m3.914 37 5.196-3m-5.196-71 5.196 3M164 96h6m-15.11-34 5.196-3m-5.196 71 5.196 3" stroke="#000" stroke-width="12" stroke-linecap="round" stroke-linejoin="round"/></svg>