<svg xmlns="http://www.w3.org/2000/svg" width="192" height="192" fill="none"><circle cx="96" cy="96" r="54" stroke="#000" stroke-linecap="round" stroke-linejoin="round" stroke-width="12"/><path stroke="#000" stroke-linecap="round" stroke-linejoin="round" stroke-width="12" d="M115.053 84c-2.422-4.575-6.16-8.151-10.634-10.173s-9.435-2.377-14.113-1.01c-4.678 1.368-8.812 4.381-11.76 8.573C75.598 85.58 74 90.717 74 96s1.598 10.419 4.546 14.61c2.948 4.192 7.082 7.205 11.76 8.572 4.678 1.368 9.639 1.013 14.113-1.009s8.212-5.598 10.634-10.173M170 46a24 24 0 0 0-24-24m0 148c6.365 0 12.47-2.529 16.971-7.029A24 24 0 0 0 170 146M46 22a24 24 0 0 0-24 24m0 100a24 24 0 0 0 7.03 16.971A24 24 0 0 0 46 170"/></svg>