<svg xmlns="http://www.w3.org/2000/svg" width="192" height="192" fill="none"><path stroke="#000" stroke-linecap="round" stroke-linejoin="round" stroke-width="12" d="M115.319 73.97c-.967-3.154-2.923-6.01-5.647-8.243-2.725-2.232-6.109-3.754-9.77-4.39a22.7 22.7 0 0 0-10.947.785c-3.494 1.15-6.55 3.133-8.822 5.725s-3.67 5.687-4.037 8.938c-.366 3.25.316 6.526 1.966 9.455 1.652 2.93 4.207 5.396 7.377 7.121S92.267 96 96 96m-19.319 22.029c.967 3.155 2.923 6.011 5.647 8.244s6.109 3.754 9.77 4.391a22.7 22.7 0 0 0 10.947-.786c3.494-1.15 6.55-3.133 8.822-5.725 2.273-2.591 3.671-5.687 4.037-8.938.366-3.25-.316-6.526-1.967-9.455s-4.206-5.396-7.376-7.121S99.733 96 96 96m0-45v10m0 70v10"/><path stroke="#000" stroke-linecap="round" stroke-linejoin="round" stroke-width="12" d="M167 96V57c0-17.673-14.327-32-32-32H57c-17.673 0-32 14.327-32 32v78c0 17.673 14.327 32 32 32h78c17.673 0 32-14.327 32-32v-3m-16-54 16 18"/></svg>