<?xml version="1.0" encoding="UTF-8" standalone="no"?>
<svg
   width="192"
   height="192"
   viewBox="0 0 192 192"
   fill="none"
   version="1.1"
   id="svg1525"
   inkscape:version="1.2.1 (9c6d41e410, 2022-07-14)"
   sodipodi:docname="coindcx.svg"
   xmlns:inkscape="http://www.inkscape.org/namespaces/inkscape"
   xmlns:sodipodi="http://sodipodi.sourceforge.net/DTD/sodipodi-0.dtd"
   xmlns="http://www.w3.org/2000/svg"
   xmlns:svg="http://www.w3.org/2000/svg">
  <defs
     id="defs1529" />
  <sodipodi:namedview
     id="namedview1527"
     pagecolor="#ffffff"
     bordercolor="#000000"
     borderopacity="0.25"
     inkscape:showpageshadow="2"
     inkscape:pageopacity="0.0"
     inkscape:pagecheckerboard="0"
     inkscape:deskcolor="#d1d1d1"
     showgrid="false"
     inkscape:zoom="2.8578899"
     inkscape:cx="84.502905"
     inkscape:cy="111.62081"
     inkscape:window-width="1920"
     inkscape:window-height="974"
     inkscape:window-x="-11"
     inkscape:window-y="-11"
     inkscape:window-maximized="1"
     inkscape:current-layer="svg1525" />
  <g
     id="g14"
     transform="matrix(0.16266352,0,0,0.16266352,85.412686,100.93657)"
     style="fill:#000000;fill-opacity:1;stroke-width:6.14766">
  <path
   class="st0"
   d="m -278.6,7.8 24.9,21.3 c -4.8,6.6 -10.5,12.5 -17,17.5 -8.1,6.4 -17.2,11.5 -26.8,15.2 -10.7,4.1 -22.1,6.2 -33.5,6.1 -17.4,0.3 -34.6,-4.1 -49.7,-12.7 -14.2,-8.3 -25.9,-20.3 -33.8,-34.6 -8.3,-15.3 -12.6,-32.5 -12.2,-49.9 -0.1,-13.1 2.2,-26 6.9,-38.2 4.6,-11.7 11.4,-22.4 20.1,-31.6 8.6,-9.1 18.9,-16.3 30.4,-21.3 12.4,-5.3 25.8,-7.9 39.4,-7.8 16.1,-0.6 32.2,3.1 46.4,10.8 11.7,6.8 21.9,15.9 29.9,26.9 l -25.1,22.2 c -5.6,-8.2 -12.7,-15.2 -20.9,-20.8 -9.1,-5.5 -19.6,-8.2 -30.2,-7.8 -11.3,-0.3 -22.4,2.9 -31.8,9.1 -9,6.2 -16.1,14.7 -20.7,24.7 -4.9,10.4 -7.4,21.8 -7.3,33.3 -0.1,11.2 2.4,22.3 7.3,32.4 4.5,9.4 11.4,17.4 20.1,23.3 9,5.9 19.7,8.8 30.4,8.6 9.1,0.4 18.1,-1.2 26.5,-4.7 6,-2.7 11.5,-6.4 16.2,-11.1 l 10.5,-10.9"
   id="path1046"
   style="fill:#000000;fill-opacity:1;stroke-width:6.14766">
  </path>

  <path
   class="st0"
   d="m -244,-2.7 c -0.1,-12.2 3,-24.2 8.9,-34.9 6,-10.6 14.6,-19.3 25.1,-25.5 11.4,-6.2 24.2,-9.4 37.1,-9.4 13,0 25.8,3.2 37.1,9.4 10.5,6.1 19.2,14.9 25.1,25.5 5.9,10.7 8.9,22.7 8.9,34.9 0,12.2 -3.1,24.2 -8.9,34.9 -6.4,10.8 -15.4,19.7 -26.3,25.9 -10.9,6.2 -23.3,9.5 -35.8,9.5 -12.6,0 -25,-3.2 -35.9,-9.4 -10.9,-6.2 -20.1,-15.1 -26.5,-25.8 -6,-10.7 -9.1,-22.7 -8.9,-34.9 v -0.2 z m 70.9,41.9 c 7.5,0.3 14.9,-2 20.9,-6.4 5.5,-4.2 9.9,-9.7 12.6,-16.1 2.7,-6 4.1,-12.5 4.2,-19.1 -0.1,-6.6 -1.5,-13.1 -4.2,-19.1 -2.7,-6.3 -7,-11.9 -12.6,-16.1 -6.2,-4.2 -13.5,-6.4 -20.9,-6.4 -7.5,0 -14.8,2.2 -20.9,6.4 -5.4,4.1 -9.6,9.6 -12.3,15.8 -2.7,6 -4.1,12.5 -4.2,19.1 0.1,6.7 1.5,13.3 4.2,19.4 2.7,6.4 7,11.9 12.6,16.1 6.1,4.4 13.4,6.7 20.9,6.4"
   id="path1043"
   style="fill:#000000;fill-opacity:1;stroke-width:6.14766">
  </path>

  <path
   class="st0"
   d="m -94.9,-123.8 h 33.2 v 34.9 h -33.2 z m 0,55.5 h 33.2 V 63.3 h -33.2 z"
   id="path1040"
   style="fill:#000000;fill-opacity:1;stroke-width:6.14766">
  </path>

  <path
   class="st0"
   d="M -48.5,63.3 V -68.1 h 31.8 l 0.8,15 c 4.4,-4.5 9.4,-8.4 14.8,-11.6 7.6,-4.4 16.3,-6.5 25.1,-6.1 7,-0.4 14,0.6 20.5,3.2 6.5,2.5 12.4,6.5 17.2,11.5 9.3,11.1 14,25.2 13.2,39.6 V 63.3 H 41.4 v -79.5 c 0.2,-3.5 -0.3,-7.1 -1.5,-10.4 -1.2,-3.3 -3.1,-6.4 -5.5,-9 -2.3,-2.3 -5.1,-4.1 -8.2,-5.3 -3.1,-1.2 -6.4,-1.7 -9.7,-1.6 -4.3,-0.1 -8.6,0.7 -12.6,2.4 -4,1.7 -7.5,4.3 -10.3,7.5 -6,6.8 -9.2,15.6 -8.9,24.7 v 71.2 z"
   id="path1037"
   style="fill:#000000;fill-opacity:1;stroke-width:6.14766">
  </path>

  <path
   class="st1"
   d="m 485.4,-37 58.7,-86.8 h -55.6 l -30.4,48.5 -31.3,-48.5 h -61.4 l 2.8,3.9 -2,-0.8 c -14.5,-5.5 -30,-8.2 -45.5,-8 -17.9,-0.3 -35.6,4.2 -51.1,13 -11.1,6.5 -20.7,15.1 -28.2,25.5 -8.2,-10.1 -18.7,-18.1 -30.7,-23.3 -16.4,-6.9 -34.1,-10.3 -51.9,-10 H 86.4 V 63.3 h 72 c 17.9,0.3 35.6,-3.2 51.9,-10.3 11.9,-5.1 22.5,-13 30.7,-23 7.6,10.4 17.4,19.1 28.8,25.5 15.5,8.5 33.1,12.8 50.8,12.5 16.8,0.3 33.4,-3.3 48.6,-10.5 l -3.9,5.8 H 420 l 36.6,-57.4 37.7,57.4 h 62.6 z M 194.7,5.6 c -5,4.8 -11,8.5 -17.6,10.9 -6.5,2.4 -13.5,3.4 -20.5,3 h -20.4 v -99.7 h 20.4 c 7.1,-0.6 14.3,0.3 21.1,2.7 6.7,2.4 12.9,6.2 18,11.1 8.7,10 13.1,22.9 12.6,36 0.3,6.6 -0.8,13.2 -3.1,19.4 -2.3,6.2 -5.9,11.9 -10.5,16.6 z M 394.9,19.2 371.2,-2.9 c -5.6,7.2 -12.4,13.3 -20.1,18 -8.3,4.2 -17.5,6.2 -26.8,5.8 -9.2,0.2 -18.3,-2.1 -26.2,-6.6 -7.5,-4.4 -13.5,-10.9 -17.4,-18.6 -4.2,-8.3 -6.3,-17.6 -6.1,-26.9 -0.2,-9.1 1.8,-18.1 5.9,-26.3 3.8,-7.6 9.7,-14.1 17,-18.6 8.2,-4.8 17.6,-7.2 27.1,-6.9 8.8,-0.2 17.5,2 25.1,6.4 7.5,4.4 13.9,10.2 19,17.2 l 24.8,-24.6 36.3,51.8 z"
   id="path1034"
   style="fill:#000000;fill-opacity:1;stroke-width:6.14766">
  </path>

 </g>
</svg>
