<svg id="Layer_1" data-name="Layer 1" xmlns="http://www.w3.org/2000/svg" viewBox="0 0 24 24">
  <g>
    <path d="M21.90243,10.643a10.02209,10.02209,0,0,0-9.066-8.62386,16.81481,16.81481,0,0,0-1.91471.01642,10.0188,10.0188,0,0,0-8.90283,9.09924q-.03749.85727-.00078,1.71538a10.018,10.018,0,0,0,8.097,8.99448,11.55007,11.55007,0,0,0,2.87754.1204A10.00872,10.00872,0,0,0,21.90243,10.643Zm-1.70389,4.57856A8.81321,8.81321,0,0,1,4.44427,16.56868a8.834,8.834,0,0,1,6.63514-13.351,8.81979,8.81979,0,0,1,9.56893,7.13834A8.98479,8.98479,0,0,1,20.19854,15.22155Z"/>
    <path d="M14.63552,14.96274a3.73362,3.73362,0,0,1-2.50114.9265,3.55925,3.55925,0,0,1-2.50039-1.079,3.98681,3.98681,0,0,1-1.14788-2.97494A3.746,3.746,0,0,1,9.59884,9.13949,3.70536,3.70536,0,0,1,13.17061,8.231a4.14767,4.14767,0,0,1,2.14976,1.62548c.46464-.42143.93862-.83267,1.39934-1.25956a5.66637,5.66637,0,0,0-5.35606-2.20015A5.60658,5.60658,0,0,0,7.47407,8.81346a5.66862,5.66862,0,0,0,5.72309,8.749,5.80162,5.80162,0,0,0,3.75994-2.53556c-.45837-.412-.97219-.75839-1.46415-1.12823A4.84125,4.84125,0,0,1,14.63552,14.96274Z"/>
  </g>
</svg>
