<svg xmlns="http://www.w3.org/2000/svg" width="192" height="192" fill="none"><path stroke="#000" stroke-linecap="round" stroke-linejoin="round" stroke-width="12" d="M147 70a45.6 45.6 0 0 0-3.882-18.369c-2.563-5.823-6.32-11.115-11.056-15.572s-10.358-7.993-16.545-10.405A53.8 53.8 0 0 0 96 22a53.8 53.8 0 0 0-19.517 3.654c-6.188 2.412-11.81 5.948-16.545 10.405s-8.493 9.749-11.056 15.572A45.6 45.6 0 0 0 45 70m0 0c0 36.794 33.751 37.024 37.71 94.192.223 3.232 2.863 5.808 6.103 5.808h14.374c3.24 0 5.88-2.576 6.104-5.808C113.249 107.024 147 106.794 147 70m-66 74h30"/></svg>