<?xml version="1.0" standalone="no"?>
<!DOCTYPE svg PUBLIC "-//W3C//DTD SVG 20010904//EN"
 "http://www.w3.org/TR/2001/REC-SVG-20010904/DTD/svg10.dtd">
<svg version="1.0" xmlns="http://www.w3.org/2000/svg"
 width="192.000000pt" height="192.000000pt" viewBox="0 0 192.000000 192.000000"
 preserveAspectRatio="xMidYMid meet">

<g transform="translate(0.000000,192.000000) scale(0.100000,-0.100000)"
fill="#000000" stroke="none">
<path d="M815 1743 c-99 -21 -148 -39 -166 -61 -35 -44 -21 -100 29 -121 24
-10 42 -9 107 8 49 13 110 21 161 21 67 0 86 4 108 21 35 27 36 86 3 117 -21
20 -34 22 -123 21 -54 -1 -108 -3 -119 -6z"/>
<path d="M1235 1645 c-32 -31 -33 -78 -2 -106 12 -11 49 -38 82 -59 33 -22 86
-64 118 -95 66 -64 107 -73 145 -32 39 41 30 80 -34 147 -50 53 -150 128 -211
159 -35 18 -72 13 -98 -14z"/>
<path d="M415 1555 c-54 -28 -157 -150 -204 -242 -34 -68 -24 -111 32 -132 48
-19 81 4 130 89 14 25 55 78 91 117 65 70 76 95 60 138 -6 15 -53 45 -71 45
-4 0 -21 -7 -38 -15z"/>
<path d="M1352 1213 c-31 -15 -71 -55 -91 -91 -8 -15 -15 -14 -69 12 -50 24
-69 28 -112 24 -89 -9 -142 -64 -147 -155 -5 -75 16 -118 82 -161 28 -19 51
-37 53 -41 2 -7 -48 -99 -138 -256 -113 -194 -113 -196 -113 -254 0 -66 18
-106 67 -149 40 -35 85 -47 155 -40 80 8 104 34 245 278 71 121 131 220 134
220 3 0 29 -12 59 -26 44 -22 63 -26 109 -22 64 5 99 28 131 84 29 51 30 117
2 164 -22 36 -67 79 -83 80 -5 0 -17 7 -27 16 -16 14 -16 17 3 56 35 72 22
161 -31 222 -47 53 -161 73 -229 39z m143 -118 c17 -16 25 -35 25 -57 -1 -31
-19 -68 -34 -68 -14 0 -136 75 -136 83 0 5 13 22 29 38 38 37 82 39 116 4z
m-153 -174 c124 -71 237 -137 252 -146 34 -23 43 -58 22 -90 -21 -31 -58 -33
-106 -4 -19 12 -125 73 -235 136 -110 63 -208 122 -217 131 -36 31 -11 102 37
102 12 0 123 -58 247 -129z m-95 -216 c34 -20 63 -41 63 -48 0 -7 -8 -25 -18
-42 -10 -16 -30 -50 -44 -75 -101 -179 -173 -298 -190 -312 -27 -24 -79 -23
-106 2 -41 38 -30 80 57 230 43 74 97 168 120 208 23 39 45 72 48 72 3 0 35
-16 70 -35z"/>
<path d="M155 1038 c-43 -25 -46 -37 -42 -163 6 -159 33 -249 81 -272 29 -13
37 -14 62 -2 15 8 35 26 43 41 14 24 13 32 -3 85 -11 32 -21 100 -23 153 -5
126 -8 137 -43 155 -34 18 -48 18 -75 3z"/>
<path d="M327 480 c-58 -46 -42 -96 58 -188 84 -77 180 -135 223 -136 44 0 76
33 76 78 0 33 -26 76 -46 76 -17 0 -130 82 -166 121 -38 41 -80 69 -105 69 -8
0 -26 -9 -40 -20z"/>
</g>
</svg>
