<svg width="192" height="192" fill="none" xmlns="http://www.w3.org/2000/svg"><path d="M159.786 79.744c-7.063 9.73-28.909 5.896-48.794-8.564-19.885-14.46-30.279-34.07-23.216-43.801m72.01 52.365c7.063-9.73-3.331-29.34-23.216-43.8-19.885-14.46-41.73-18.295-48.794-8.565m72.01 52.365-20.927 28.83c-2.291 3.155-5.49 5.601-9.415 7.201-3.925 1.599-8.5 2.318-13.462 2.118-4.963-.2-10.217-1.317-15.461-3.286-5.245-1.97-10.378-4.753-15.106-8.191-4.729-3.438-8.96-7.465-12.451-11.849-3.492-4.383-6.177-9.04-7.9-13.702-1.725-4.662-2.454-9.239-2.148-13.47.307-4.23 1.643-8.031 3.933-11.186l20.927-28.83M68.164 88.977c-18.533 17.112-14.239 26.352-34.44 50.815 0 0-7.985 10.1 10.418 23.482 18.402 13.383 25.532 2.661 25.532 2.661 17.002-26.79 27.11-25.557 37.641-48.487" stroke="#000" stroke-width="12" stroke-linecap="round" stroke-linejoin="round"/><path d="M139.436 83.165c4.989-6.936-2.354-20.916-16.401-31.225-13.049-9.575-27.292-12.615-33.251-7.44" stroke="#000" stroke-width="10" stroke-linecap="round" stroke-linejoin="round"/><circle cx="70" cy="121" r="3" stroke="#000" stroke-width="6" stroke-linecap="round" stroke-linejoin="round"/></svg>