<svg width="192" height="192" viewBox="0 0 192 192" fill="none" xmlns="http://www.w3.org/2000/svg"><path d="M42 47h44M42 84s35-2 34-35m-14-8 2 6" stroke="#000" stroke-width="10" stroke-linecap="round" stroke-linejoin="round"/><path d="M54 66c10 18 24 17 24 17" stroke="#000" stroke-width="10" stroke-linecap="round" stroke-linejoin="round"/><path d="m109.5 63 9.359-24.757C121.827 30.393 116.027 22 107.635 22H34c-6.627 0-12 5.373-12 12v58c0 6.627 5.373 12 12 12h33m103 54c0 6.627-5.373 12-12 12H84.365c-8.392 0-14.192-8.394-11.224-16.243l21.927-58A12 12 0 0 1 106.292 88H158c6.627 0 12 5.373 12 12v58Z" stroke="#000" stroke-width="12" stroke-linecap="round" stroke-linejoin="round"/><path d="m105 148 16-37m26 37-16-37m0 0h-10m-10 26h30" stroke="#000" stroke-width="10" stroke-linecap="round" stroke-linejoin="round"/></svg>