<svg width="192" height="192" viewBox="0 0 192 192" fill="none" xmlns="http://www.w3.org/2000/svg"><path d="m170 162-52-33-9-1c-17-5-23-5-27 0s-4 18 11 26l3 6 14 10" stroke="#000" stroke-width="12" stroke-linecap="round" stroke-linejoin="round"/><path d="m68 89 13 11m-31 51 8 7" stroke="#000" stroke-width="10" stroke-linecap="round" stroke-linejoin="round"/><path d="M96 160c3-28 22-31 22-31m-47-6 9 5m47.24-20.529c5.575-11.295 2.602-23.513-7.987-34.015-13.652-13.541-27.289-11.64-40.958 0-13.67 11.64-66.314 83.183-54.611 94.79 5.003 4.962 20.875-1.204 38.477-10.953" stroke="#000" stroke-width="12" stroke-linecap="round" stroke-linejoin="round"/><path d="M122 71.778c3.556 22.856 34.667 14.628 48 0-8.771-9.623-25.236-16.477-36.488-13.533m0 0C135.897 46.847 129.248 30.699 120 22c-14.4 13.545-22.5 45.15 0 48.762 8.646-1.762 12.314-6.798 13.512-12.517Z" stroke="#000" stroke-width="12" stroke-linecap="round" stroke-linejoin="round"/></svg>