<?xml version="1.0" encoding="utf-8"?>
	<svg version="1.1" xmlns="http://www.w3.org/2000/svg" xmlns:xlink="http://www.w3.org/1999/xlink" x="0px" y="0px" width="1024.0" height="1024.0" xml:space="preserve">
		<path d="M337.278141 389.737422l-48.140417 0-3.128247 0-1.552356 0-0.851391 1.343601-1.602498 2.650363-14.710027 24.069185-5.120624 8.416693-2.609431 4.304026 5.04183 0 9.821693 0 30.404474 0 0 212.42711 0 5.535063 0 2.792603 2.819209 0 5.53404 0 24.094768 0 5.507434 0 2.843768 0 0-2.792603 0-5.535063L345.630367 398.075321l0-5.533017 0-2.804882-2.843768 0L337.278141 389.737422zM265.146311 427.677523l-0.542352 0 1.342578-2.211365L265.146311 427.677523z" fill="#ff979797" stroke="" stroke-width="" stroke-miterlimit=""/>
		<path d="M725.290269 504.010025c15.513322-12.617365 23.707958-29.447682 23.707958-48.966225 0-19.62292-7.834432-36.699853-23.267936-50.815339-15.692401-13.716396-33.868365-20.386306-55.55734-20.386306-19.031449 0-36.247552 6.192026-51.089585 18.342764-13.728676 11.711739-23.603581 29.317723-28.697599 50.918693l-1.575892 6.79987-0.827855 3.490497 3.566222 0 6.979972 0 25.233708 0 3.798513 0 1.914606 0 0.725524-1.784646 1.369184-3.541663c4.836145-12.409634 9.979282-20.669762 16.675798-26.810622 6.049786-5.132904 13.675464-7.782244 22.49227-7.782244 10.573823 0 19.183921 2.973728 26.243711 9.100262 6.747681 5.869684 10.031471 13.004175 10.031471 21.87317 0 9.074679-4.163833 16.650215-12.386098 22.596647-9.487072 6.852058-21.303188 10.161431-36.19434 10.161431l-5.533017 0-2.843768 0 0 2.843768 0 5.531993 0 22.286586 0 5.53097 0 2.845815 2.843768 0 5.533017 0c20.786419 0 37.074384 4.344958 48.370661 12.951987 10.006911 7.653307 14.920828 18.125823 14.920828 32.086789 0 12.409634-4.550643 22.723537-13.859659 31.537274-9.642614 9.102309-21.561062 13.548574-36.529985 13.548574-13.469779 0-24.094768-3.25923-31.488155-9.719362-8.017604-6.927783-13.833053-17.528212-17.34811-31.519878l-1.035586-4.158716-0.542352-2.173502-2.196015 0-4.343935 0L590.307995 568.798611l-6.722098 0-3.488451 0 0.696872 3.361561 1.320065 6.668886c5.14416 25.75457 15.0733 44.75532 30.300097 58.07058 15.357779 13.44215 34.979676 20.267603 58.325383 20.267603 26.473955 0 48.607044-8.736988 65.822125-25.954115 17.194614-16.549931 25.934672-37.306674 25.934672-61.660338 0-14.97404-4.421706-29.346375-13.057387-42.738383C742.974024 517.610788 734.857159 509.929852 725.290269 504.010025zM591.575872 460.576817l-0.025583 0 0.025583-0.181125L591.575872 460.576817zM721.101877 505.459027c0.106424-0.102331 0.209778-0.234337 0.313132-0.310062 0.697895 0.361227 1.215688 0.903579 1.886977 1.343601C722.552925 506.130316 721.880613 505.7169 721.101877 505.459027z" fill="#ff979797" stroke="" stroke-width="" stroke-miterlimit=""/>
		<path d="M566.237787 611.667977l-94.415346 0 48.319495-52.947909c17.039072-18.927071 29.238928-34.282804 37.305651-46.950312 8.249895-13.341866 12.954033-28.750811 13.625322-44.62536 0.64673-23.345708-7.472182-43.615357-24.172539-60.290131-15.667841-15.655562-35.834136-23.592324-59.928904-23.592324-24.898063 0-46.044686 8.531304-62.876026 25.323758-16.70138 16.739243-25.853831 38.96136-27.120684 66.004273l-0.257873 5.817496-0.128937 2.947122 2.971681 0 5.791913 0 23.474644 0 5.018294 0 2.582825 0 0.233314-2.558265 0.464581-5.015224c1.630127-17.219173 6.798846-30.586622 15.408945-39.673581 8.996908-8.442276 19.906375-12.629645 33.248242-12.629645 12.178367 0 22.596647 4.240581 31.852452 12.96529 8.505721 8.519024 12.642948 18.033725 12.642948 29.150924 0 11.323906-3.050476 21.355377-9.049097 29.835516-6.825452 10.289344-18.434861 24.149003-34.515095 41.364083l-93.383854 101.037161-8.584516 9.30697-4.370541 4.757351 6.465249 0 12.614296 0 166.782537 0 5.533017 0 2.819209 0 0-2.841721 0-5.535063 0-23.472598 0-5.535063 0-2.840698-2.819209 0L566.237787 611.670024zM387.745557 649.052422l-0.904603 0 3.025916-3.311419L387.745557 649.052422zM466.496132 615.442954l0.852414-0.934279 39.375799 0L466.496132 615.442954z" fill="#ff979797" stroke="" stroke-width="" stroke-miterlimit=""/>
		<path d="M511.998465 83.110883c-236.485039 0-428.888094 192.404078-428.888094 428.888094 0 236.484016 192.403055 428.89014 428.888094 428.89014 236.482993 0 428.888094-192.405101 428.888094-428.89014C940.886559 275.515984 748.481458 83.110883 511.998465 83.110883zM511.998465 885.196701c-205.771527 0-373.172141-167.42415-373.172141-373.197724 0-205.76948 167.400614-373.173165 373.172141-373.173165s373.172141 167.403684 373.172141 373.173165C885.170606 717.77255 717.769992 885.196701 511.998465 885.196701z" fill="#ff979797" stroke="" stroke-width="" stroke-miterlimit=""/>
	</svg>
