<?xml version="1.0" encoding="utf-8"?>
	<svg version="1.1" xmlns="http://www.w3.org/2000/svg" xmlns:xlink="http://www.w3.org/1999/xlink" x="0px" y="0px" width="240.0" height="240.0" xml:space="preserve">
		<path d="M158.578,33.164C173.631,39.869 186.89,50.541 196.628,63.842C207.09,78.076 213.502,95.28 214.714,112.915C216.419,134.385 210.459,156.348 198.15,174.024C187.981,188.736 173.579,200.478 157.12,207.467C141.296,214.214 123.609,216.492 106.583,214.041C90.543,211.843 75.144,205.321 62.31,195.468C49.073,185.389 38.579,171.758 32.215,156.39C25.426,140.114 23.406,121.934 26.249,104.546C29.051,87.164 36.89,70.652 48.506,57.43C63.711,40 85.454,28.358 108.461,25.713C125.429,23.604 142.964,26.196 158.578,33.164ZM118.351,178.73C114.29,179.413 110.927,182.954 110.549,187.068C109.878,192.178 114.044,197.273 119.212,197.53C119.549,197.569 119.886,197.588 120.22,197.586L120.47,197.581C125.381,197.405 129.732,192.904 129.49,187.907C129.55,182.979 125.172,178.758 120.381,178.565L120.129,178.558C119.539,178.552 118.944,178.607 118.351,178.73ZM116.714,82.153C105.124,83.061 94.211,89.714 87.993,99.52C82.967,107.28 81.005,116.918 82.484,126.037C83.754,134.112 87.752,141.72 93.655,147.365C100.056,153.572 108.708,157.397 117.612,157.911C124.684,158.363 131.878,156.804 138.1,153.404C145.44,149.422 151.411,142.963 154.764,135.313C159.056,125.686 159.045,114.258 154.748,104.641C151.343,96.902 145.262,90.385 137.791,86.429C131.374,82.998 123.955,81.523 116.714,82.153ZM187.11,112.133C182.299,112.521 178.348,117.044 178.59,121.861C178.637,126.614 182.735,130.864 187.488,131.064C187.743,131.086 187.997,131.097 188.25,131.097L188.503,131.092C193.293,130.937 197.567,126.688 197.567,121.829C197.858,116.734 193.369,112.167 188.369,112.064L188.118,112.062C187.784,112.065 187.447,112.089 187.11,112.133ZM52.756,112.112C48.05,112.395 44.057,116.582 44.01,121.299C43.726,126.331 48.076,131.006 53.113,131.074C53.284,131.085 53.455,131.091 53.625,131.091L53.88,131.088C58.879,130.951 63.301,126.326 62.977,121.268C62.947,116.38 58.589,112.161 53.775,112.069L53.521,112.068C53.267,112.071 53.012,112.086 52.756,112.112ZM117.271,44.408C113.43,45.494 110.591,49.203 110.502,53.186C110.202,58.306 114.703,62.947 119.754,63.01L120.007,63.009L120.007,63.009L120.261,63.001C120.43,62.993 120.6,62.979 120.77,62.96C126.263,62.661 130.576,56.911 129.286,51.559C128.341,46.276 122.37,42.713 117.271,44.408Z" fill="#00000000" stroke="#000" stroke-width="10.0" stroke-miterlimit=""/>
	</svg>
