<?xml version="1.0" encoding="utf-8"?>
	<svg version="1.1" xmlns="http://www.w3.org/2000/svg" xmlns:xlink="http://www.w3.org/1999/xlink" x="0px" y="0px" width="240.0" height="240.0" xml:space="preserve">
		<path d="M218.512,209.45L188.375,179.313C203.625,162.375 213.025,140.038 213.025,115.512C213.025,62.85 170.175,20 117.512,20C64.85,20 22,62.85 22,115.512C22,168.175 64.85,211.025 117.512,211.025C140.275,211.025 161.2,202.988 177.613,189.65L207.975,220L218.512,209.45ZM36.912,115.5C36.912,71.05 73.075,34.9 117.512,34.9C161.95,34.9 198.113,71.05 198.113,115.5C198.113,159.95 161.962,196.1 117.512,196.1C73.063,196.1 36.912,159.962 36.912,115.5Z" fill="#000" stroke="#00000000" stroke-width="1.0" stroke-miterlimit=""/>
	</svg>
