<?xml version="1.0" encoding="utf-8"?>
	<svg version="1.1" xmlns="http://www.w3.org/2000/svg" xmlns:xlink="http://www.w3.org/1999/xlink" x="0px" y="0px" width="192.0" height="192.0" xml:space="preserve">
		<path d="M165.8,134.8c0,0.9-0.3,1.4-1.1,1.8c-5,2.9-64.8,37.3-67.9,39.4c-0.4,0.3-0.8,0.3-1.1,0 c-3-2.2-67.7-39.2-68-39.3c-0.6-0.2-0.8-0.6-0.8-1.2c0-0.7,0-53,0-78.4c0-1,65.8-39.1,68.3-40.6c0.7-0.4,1.2-0.4,1.9-0.1 c2.6,1.4,67.2,38.8,67.9,39.1c0.6,0.3,0.8,0.7,0.8,1.4C165.7,70,165.7,121.9,165.8,134.8z M40.6,127.3c0,0.8,0.4,1.2,1,1.6 c1.2,0.7,49.7,28.6,53.9,31c0.6,0.4,1,0.3,1.5,0c0.3-0.2,47-27.3,53.7-31.1c0.8-0.5,1.1-1,1.1-1.9c0-20.7,0-41.4,0-62 c0-0.8-0.4-1.2-0.9-1.5c-3.2-1.8-48.7-28-53.1-30.6c-1.2-0.7-2.2-0.9-3.2,0.2c-0.4,0.4-49.2,29-52.5,30.2c-1.2,0.4-1.5,0.9-1.5,1.7 C40.7,75.2,40.7,116.8,40.6,127.3z" fill="#000" stroke="#000" stroke-width="4.0" stroke-miterlimit="10.0"/>
		<path d="M89.4,100.7c0-0.6-0.2-0.9-0.9-1.3C86,98.3,59.3,82.6,53.6,79.2c-0.6-0.3-0.8-1.1-0.4-1.6l6.1-9.9 c0.3-0.6,1.1-0.7,1.6-0.4c5.7,3.3,33.6,19.7,33.8,19.8c1.3,0.5,2.3,0.6,3.5-0.2c9.6-5.8,32.3-19.1,33.9-20.1 c0.5-0.3,1.2-0.2,1.5,0.4c1.6,2.7,5.6,9.5,6,10.2c0.4,0.6,0.3,1-0.4,1.4c-4.1,2.3-32.9,19.3-35.1,20.6c-0.6,0.3-0.9,0.8-0.9,1.5 c0,13.6,0,27.1,0.1,40.7c0,0.7-0.5,1.2-1.2,1.2c-3.9-0.1-7.7-0.1-11.6,0c-0.9,0-1.2-0.2-1.2-1.2C89.3,134.7,89.3,107.5,89.4,100.7z" fill="#000" stroke="#000" stroke-width="4.0" stroke-miterlimit="10.0"/>
	</svg>
