<?xml version="1.0" encoding="utf-8"?>
	<svg version="1.1" xmlns="http://www.w3.org/2000/svg" xmlns:xlink="http://www.w3.org/1999/xlink" x="0px" y="0px" width="240.0" height="240.0" xml:space="preserve">
		<path d="M54.454,160.606C68.586,160.511 79.403,171.254 79.382,185.363C79.363,199.315 68.798,209.933 54.87,210C40.6,210.067 29.989,199.524 30,185.29C30.01,171.293 40.505,160.699 54.454,160.606ZM120.01,160.605C134.19,160.581 144.698,171.218 144.638,185.537C144.581,199.625 134.13,210.031 120.075,209.997C105.892,209.963 95.134,199.186 95.232,185.112C95.33,171.31 106.129,160.629 120.01,160.605ZM54.364,95.514C68.682,95.449 79.356,105.947 79.381,120.123C79.408,134.017 68.786,144.825 54.97,144.964C40.864,145.107 30.022,134.366 30,120.23C29.978,106.166 40.414,95.579 54.364,95.514ZM185.508,95.515C199.657,95.538 210.367,106.262 210.277,120.319C210.188,134.295 199.216,145.081 185.211,144.963C171.477,144.846 160.265,133.427 160.481,119.776C160.696,106.326 171.872,95.492 185.508,95.515ZM120.2,95.516C134.344,95.534 144.606,105.842 144.64,120.064C144.674,134.105 134.233,144.828 120.397,144.962C106.388,145.097 95.266,134.183 95.232,120.266C95.199,106.194 105.99,95.496 120.2,95.516ZM54.225,30.005C67.999,29.739 79.318,40.893 79.382,54.794C79.444,68.675 68.784,79.628 55.082,79.763C40.816,79.901 30.059,69.361 30.002,55.184C29.946,41.409 40.665,30.267 54.225,30.005ZM120.19,30.002C133.97,30.01 144.696,41.081 144.643,55.243C144.589,69.39 133.907,79.881 119.671,79.763C106.041,79.65 95.202,68.658 95.233,54.979C95.265,41.158 106.421,29.993 120.19,30.002Z" fill="#000" stroke="#00000000" stroke-width="1.0" stroke-miterlimit=""/>
	</svg>
