<?xml version="1.0" encoding="utf-8"?>
	<svg version="1.1" xmlns="http://www.w3.org/2000/svg" xmlns:xlink="http://www.w3.org/1999/xlink" x="0px" y="0px" width="240.0" height="240.0" xml:space="preserve">
		<path d="M120,20C175.228,20 220,64.772 220,120C220,175.228 175.228,220 120,220C64.772,220 20,175.228 20,120C20,64.772 64.772,20 120,20ZM155,67C135.863,67 120.314,82.358 120.005,101.421L120,102L119.995,101.421C119.686,82.358 104.137,67 85,67C65.67,67 50,82.67 50,102C50,121.33 65.67,137 85,137C89.873,137 94.513,136.004 98.728,134.204C90.382,140.601 85,150.672 85,162C85,181.33 100.67,197 120,197C139.33,197 155,181.33 155,162C155,150.672 149.618,140.601 141.271,134.205C145.487,136.004 150.127,137 155,137C174.33,137 190,121.33 190,102C190,82.67 174.33,67 155,67Z" fill="#00000000" stroke="#000" stroke-width="10.0" stroke-miterlimit=""/>
	</svg>
