<?xml version="1.0" encoding="utf-8"?>
	<svg version="1.1" xmlns="http://www.w3.org/2000/svg" xmlns:xlink="http://www.w3.org/1999/xlink" x="0px" y="0px" width="240.0" height="240.0" xml:space="preserve">
		<path d="M175,35C191.569,35 205,48.431 205,65L205,175C205,191.569 191.569,205 175,205L65,205C48.431,205 35,191.569 35,175L35,65C35,48.431 48.431,35 65,35L80,35C80,43.284 86.716,50 95,50C103.284,50 110,43.284 110,35L110,35L130,35C130,43.284 136.716,50 145,50C153.284,50 160,43.284 160,35L160,35L175,35Z" fill="#00000000" stroke="#000" stroke-width="10.0" stroke-miterlimit=""/>
		<path d="M114.16,161.96L114.16,149.96L89.2,149.96C89.104,149.672 89.085,149.23 89.081,148.635L89.08,148.16L89.08,148.16C89.08,145.88 89.68,143.6 91,141.44C93.52,137.24 97.72,132.8 102.28,127.88C104.56,125.36 106.6,122.72 108.64,119.72C112.48,113.96 115.36,106.88 115.36,98.12C115.36,84.56 108.64,77 95.68,77C82.72,77 76,84.56 76,98.12L76,106.28L88.48,106.28L88.48,97.28C88.48,91.16 91.12,89 95.32,89C99.52,89 102.16,91.04 102.16,98.6C102.16,102.68 101.56,106.28 100.24,109.28C97.72,115.4 93.52,120.32 89.08,124.88C86.8,127.16 84.76,129.68 82.84,132.2C78.88,137.48 76,143.48 76,151.64L76,161.96L114.16,161.96ZM142.48,162.92C155.92,162.92 163.12,155.36 163.12,141.8L163.12,135.2C163.12,127.04 160.72,120.92 154.96,117.68C160.36,114.68 163.12,109.04 163.12,100.76L163.12,98.12C163.12,84.56 155.92,77 142.48,77C129.04,77 121.84,84.56 121.84,98.12L121.84,100.76C121.84,109.04 124.6,114.68 130,117.68C124.24,120.92 121.84,127.04 121.84,135.2L121.84,141.8C121.84,155.36 129.04,162.92 142.48,162.92ZM142.48,112.16C138.16,112.16 135.04,110 135.04,103.28L135.04,98.6C135.04,91.04 138.28,89 142.48,89C146.68,89 149.92,91.04 149.92,98.6L149.92,103.28C149.92,110 146.68,112.16 142.48,112.16ZM142.48,150.92C138.28,150.92 135.04,149 135.04,141.44L135.04,133.64C135.04,126.92 137.8,124.16 142.48,124.16C147.16,124.16 149.92,126.92 149.92,133.64L149.92,141.44C149.8,149 146.68,150.92 142.48,150.92Z" fill="#000" stroke="#00000000" stroke-width="1.0" stroke-miterlimit=""/>
	</svg>
