<?xml version="1.0" encoding="utf-8"?>
	<svg version="1.1" xmlns="http://www.w3.org/2000/svg" xmlns:xlink="http://www.w3.org/1999/xlink" x="0px" y="0px" width="240.0" height="240.0" xml:space="preserve">
		<path d="M178.513,75.033C182.335,83.959 183.223,93.379 182.469,102.881C181.788,111.45 180.077,119.865 176.91,127.971C169.888,145.952 158.004,160.202 143.473,172.518C128.556,185.161 113.293,197.443 100.559,212.427C96.724,216.938 92.971,221.53 89.404,226.254C86.931,229.529 83.898,230.495 80.014,229.775C67.139,227.384 57.604,216.194 56.883,202.94C56.264,191.588 60.35,182.169 68.16,174.238C69.802,172.569 69.741,171.636 68.29,169.929C58.146,157.988 53.602,143.811 52.359,128.466C50.837,109.667 54.27,91.557 60.495,73.888C60.6,73.589 60.87,73.348 61.063,73.079C61.293,75.616 60.911,78.19 61.852,80.683C64.34,87.278 67.271,93.622 71.232,99.499C73.15,102.345 75.808,104.716 76.919,108.095L76.998,108.104C72.118,104.757 67.905,100.702 64.316,95.71C64.143,96.293 64.033,96.494 64.031,96.696C63.812,120.166 71.648,140.796 86.016,159.139C86.955,160.339 87.86,160.506 89.173,159.901C95.348,157.055 101.835,155.03 108.282,152.948C130.985,145.613 150.4,133.58 164.646,114.047C173.122,102.425 179.708,90.105 178.513,75.033" fill="#000" stroke="#00000000" stroke-width="1.0" stroke-miterlimit=""/>
		<path d="M72.291,32.753C73.498,32.149 74.44,32.811 75.345,33.449C85.042,40.285 95.75,42.518 107.447,40.838C117.507,39.392 127.716,39.71 137.808,38.333C156.288,35.81 174.656,32.966 192.205,26.259C201.594,22.67 209.934,17.327 217.853,11.29C220.315,9.412 222.161,9.66 224.341,11.542C230.696,17.026 232.275,26.784 227.924,34.856C225.114,40.069 220.971,44.126 216.317,47.688C205.652,55.851 193.573,61.315 181.117,66.051C179.871,66.525 178.607,66.954 177.352,67.404C178.18,66.502 179.009,65.6 179.837,64.697C185.952,58.037 188.312,50.403 185.754,41.543C185.457,40.518 185.137,39.188 183.826,39.051C182.627,38.926 182.291,40.202 181.763,40.997C178.433,46.009 174.236,50.112 169.181,53.377C163.319,57.165 157.111,60.385 151.542,64.663C136.659,76.091 133.556,91.332 139.343,106.544C140.714,110.148 140.531,110.711 136.705,111.991C131.222,113.825 125.414,114.686 120.254,117.486C119.204,118.057 118.398,117.45 117.47,117.045C112.311,114.79 106.803,113.919 101.264,113.107C111.999,123.173 124.845,126.833 140.037,125.259C138.057,127.067 136.414,127.609 134.725,128.07C129.203,129.572 123.567,130.265 117.87,129.929C112.112,129.589 106.782,131.023 101.741,133.517C99.078,134.835 97.921,134.045 96.961,131.564C95.142,126.859 92.988,122.32 89.273,118.736L89.22,118.794C91.639,119.096 93.499,120.637 95.593,121.663C96.302,122.01 97.098,122.283 97.828,121.791C98.688,121.211 98.217,120.412 98.035,119.672C96.846,114.837 97.724,110.349 99.472,105.69C103.968,93.696 103.17,82.224 94.611,72.034C90.999,67.733 86.332,64.599 82.089,60.987C73.492,53.671 68.18,44.919 72.291,32.753" fill="#000" stroke="#00000000" stroke-width="1.0" stroke-miterlimit=""/>
		<path d="M72.292,32.752C68.18,44.919 73.492,53.671 82.088,60.988C83.149,61.891 84.236,62.764 85.327,63.633L86.636,64.675C89.47,66.936 92.264,69.239 94.611,72.034C103.171,82.223 103.969,93.695 99.471,105.689C97.724,110.349 96.846,114.838 98.035,119.672C98.217,120.411 98.688,121.211 97.828,121.791C97.098,122.283 96.302,122.01 95.592,121.662C93.615,120.695 91.847,119.266 89.619,118.855L89.352,118.813L89.665,119.124C93.141,122.645 95.207,127.027 96.961,131.564C97.921,134.046 99.077,134.835 101.741,133.518C106.781,131.024 112.111,129.589 117.871,129.929C123.568,130.265 129.204,129.573 134.725,128.07C136.414,127.61 138.057,127.067 140.036,125.259C124.845,126.833 111.999,123.173 101.264,113.107C106.802,113.919 112.311,114.791 117.469,117.044C118.398,117.451 119.204,118.056 120.255,117.486C123.62,115.66 127.26,114.658 130.906,113.674L132.365,113.279C133.822,112.882 135.274,112.47 136.704,111.991C140.531,110.711 140.715,110.148 139.343,106.544C133.556,91.332 136.659,76.091 151.541,64.663C157.111,60.385 163.319,57.165 169.182,53.377C174.236,50.111 178.434,46.009 181.763,40.997C182.292,40.201 182.627,38.926 183.825,39.051C185.137,39.187 185.458,40.518 185.753,41.542C188.312,50.404 185.952,58.037 179.837,64.698C179.009,65.6 178.18,66.502 177.352,67.405C176.175,68.621 176.601,69.671 177.141,70.709L177.375,71.153C177.685,71.746 177.963,72.342 177.931,72.971C177.92,73.7 177.852,74.446 178.422,75.008L178.516,75.092L178.559,75.677C179.52,90.457 173.001,102.591 164.646,114.047C150.4,133.58 130.985,145.613 108.282,152.948C101.836,155.031 95.348,157.055 89.173,159.901C87.86,160.506 86.955,160.338 86.016,159.14C71.649,140.796 63.812,120.167 64.031,96.696C64.033,96.494 64.143,96.294 64.315,95.71C67.756,100.494 71.768,104.418 76.396,107.678L76.893,108.022L76.758,107.64C75.567,104.5 73.063,102.215 71.232,99.499C67.271,93.622 64.34,87.278 61.852,80.683C60.911,78.19 61.293,75.616 61.063,73.08C63.075,69.461 61.49,66.436 60.018,63.005C55.934,53.492 58.863,42.402 66.749,35.651C68.355,34.277 70.049,32.958 72.292,32.752ZM162.351,68.734L161.928,68.888C159.344,69.838 156.846,70.943 154.586,72.564C154.319,72.755 154.089,72.947 153.899,73.145C153.187,73.888 153.037,74.718 153.605,75.94L153.73,76.223C154.471,77.986 154.57,79.911 154.553,81.844C154.538,83.549 153.966,83.966 153.051,83.545C153.001,83.522 152.95,83.497 152.897,83.469C152.667,83.345 152.419,83.175 152.154,82.964C150.774,81.862 149.499,80.629 148.041,79.33C147.655,79.854 147.291,80.384 146.951,80.919C144.496,84.774 143.217,88.918 142.986,93.513C142.925,94.731 142.937,95.98 143.021,97.265L143.842,97.015C146.328,96.247 148.633,95.415 150.818,94.453C152.216,93.837 153.565,93.169 154.881,92.432C157.121,91.176 159.382,89.933 161.439,88.424C163.285,87.071 164.967,85.504 166.321,83.521C166.845,82.754 167.265,81.953 167.584,81.134C167.638,80.995 167.689,80.855 167.737,80.715C168.313,79.039 168.47,77.297 168.222,75.61C167.887,73.335 166.815,71.16 165.041,69.392C164.205,68.56 163.414,68.351 162.351,68.734ZM73.472,69.651C69.111,74.405 69.35,81.092 74.191,85.822C79.492,91.002 86.162,93.785 92.921,96.435C93.75,96.76 94.42,96.929 94.928,96.929L95.052,96.925C95.974,96.87 96.301,96.186 96.008,94.769C95.686,90.478 94.882,86.917 93.284,83.548C92.197,81.259 91.687,80.174 90.913,80.101L90.835,80.097C90.149,80.093 89.245,80.845 87.577,82.228C87.235,82.513 86.862,82.76 86.507,83.03C86.031,83.393 85.625,83.593 85.293,83.633L85.195,83.64C84.591,83.656 84.254,83.095 84.2,81.974C84.098,79.834 84.479,77.759 85.207,75.747C85.498,74.941 86.188,74.031 85.08,73.395C84.365,72.985 83.671,72.538 82.98,72.085L82.151,71.541C80.354,70.365 78.531,69.232 76.373,68.689C76.157,68.634 75.955,68.599 75.766,68.583L75.58,68.572C74.732,68.554 74.125,68.938 73.472,69.651Z" fill="#000" stroke="#00000000" stroke-width="1.0" stroke-miterlimit=""/>
	</svg>
