<?xml version="1.0" encoding="utf-8"?>
	<svg version="1.1" xmlns="http://www.w3.org/2000/svg" xmlns:xlink="http://www.w3.org/1999/xlink" x="0px" y="0px" width="240.0" height="240.0" xml:space="preserve">
		<path d="M63.661,156.718L66.844,136.664C67.057,134.118 66.738,132.632 65.889,132.208C65.041,131.783 63.767,131.571 62.07,131.571L62.07,131.571L28.966,131.571L31.512,125.523L70.346,125.523L71.301,118.521L40.425,118.521C41.698,117.672 43.502,116.505 45.836,115.019C47.958,113.534 49.656,112.367 50.929,111.518L50.929,111.518L76.075,111.518L77.03,104.197L60.478,104.197C63.237,101.863 66.208,99.21 69.391,96.239C72.362,93.268 75.12,90.298 77.667,87.327L77.667,87.327L67.163,87.327C64.404,90.298 61.327,93.268 57.932,96.239L57.932,96.239L58.887,90.51L43.29,90.51L44.245,83.189L35.014,83.189L34.059,90.51L13.369,90.51L12.414,97.512L33.104,97.512L32.149,104.197L5.411,104.197L4.138,111.518L37.242,111.518C31.512,114.913 25.571,117.884 19.417,120.431C13.263,122.977 7.533,124.781 2.228,125.842L2.228,125.842L0,134.754C6.154,133.693 12.944,131.571 20.372,128.388L20.372,128.388L16.234,138.892L55.704,138.892C56.128,138.892 56.446,138.998 56.659,139.211C56.871,139.423 56.977,139.635 56.977,139.847L56.977,139.847L55.704,149.715L32.467,149.715L34.695,156.718L63.661,156.718ZM48.064,104.197L41.062,104.197L42.335,97.512L56.34,97.512C53.794,99.847 51.035,102.075 48.064,104.197L48.064,104.197ZM148.649,156.718L151.196,149.396L143.556,149.396C142.92,139.211 142.92,124.675 143.556,105.788L143.556,105.788L155.652,105.788L156.925,98.467L143.875,98.467C143.875,95.072 144.193,89.979 144.83,83.189L144.83,83.189L136.235,83.189C135.599,89.555 135.28,94.648 135.28,98.467L135.28,98.467L108.224,98.467L107.269,105.788L134.962,105.788C134.113,125.948 134.219,142.924 135.28,156.718L135.28,156.718L148.649,156.718ZM104.086,101.014L99.63,83.507L91.354,83.507L95.492,101.014L104.086,101.014ZM156.607,96.558C155.546,92.738 154.697,88.918 154.06,85.099L154.06,85.099L147.058,85.099C147.482,89.767 148.119,93.587 148.967,96.558L148.967,96.558L156.607,96.558ZM86.261,156.399C89.02,154.489 92.097,152.155 95.492,149.396C98.887,146.85 102.07,144.304 105.041,141.757L105.041,141.757L106.951,130.935L98.357,138.574L104.086,104.834L84.988,104.834L83.715,112.155L94.219,112.155L86.261,156.399ZM102.813,152.58C112.574,150.457 121.911,148.017 130.824,145.258L130.824,145.258L131.779,137.301L121.593,140.166L124.14,122.022L131.779,122.022L132.734,115.019L110.134,115.019L108.861,122.022L116.182,122.022L113.317,142.394L103.768,144.622L102.813,152.58ZM237.93,110.861L239.917,95.604C240.138,94.056 239.917,92.84 239.255,91.955C238.592,91.292 237.488,90.96 235.942,90.96L235.942,90.96L211.097,90.96C209.772,87.201 208.889,84.548 208.447,83L208.447,83L198.178,83C198.379,83.606 198.602,84.273 198.844,85.001L199.057,85.641C199.348,86.514 199.665,87.467 200.009,88.5L200.272,89.29C200.451,89.827 200.636,90.383 200.828,90.96L200.828,90.96L172.67,90.96L170.02,110.529L179.627,110.529L181.283,98.589L228.985,98.589C229.427,98.589 229.648,98.81 229.648,99.252L229.648,99.252L227.992,110.861L237.93,110.861ZM233.955,156.718L234.91,149.396L204.353,149.396L206.581,132.208L229.499,132.208L230.772,125.205L207.854,125.205L209.127,113.428L227.589,113.428L228.544,106.425L183.026,106.425L182.071,113.428L199.897,113.428L198.305,125.205L175.387,125.205L174.114,132.208L197.35,132.208L194.804,149.396L164.565,149.396L163.928,156.718L233.955,156.718ZM226.953,147.487C225.043,142.606 223.451,138.15 222.178,134.118L222.178,134.118L213.265,134.118C214.326,138.998 215.6,143.455 217.085,147.487L217.085,147.487L226.953,147.487Z" fill="#000" stroke="#00000000" stroke-width="1.0" stroke-miterlimit=""/>
	</svg>
