<?xml version="1.0" encoding="utf-8"?>
	<svg version="1.1" xmlns="http://www.w3.org/2000/svg" xmlns:xlink="http://www.w3.org/1999/xlink" x="0px" y="0px" width="240.0" height="240.0" xml:space="preserve">
		<path d="M173.858,35.365C177.567,34.513 179.348,36.739 181.029,38.79L181.288,39.104C181.545,39.416 181.803,39.719 182.067,40.003C197.838,56.882 204.956,77.208 205.151,100.038C205.507,143.967 188.11,182.102 166.08,220C157.86,210.309 148.796,202.651 143.002,192.182C135.911,179.384 136.987,168.466 146.267,157.208C160.341,140.157 172.377,121.938 178.922,100.524C185.748,78.181 185.326,56.433 173.858,35.365ZM156.984,23.091C165.826,35.138 172.398,46.272 173.458,59.908C175.382,67.053 175.128,74.203 173.404,81.343C172.058,96.287 165.437,109.193 157.53,121.473C142.732,144.426 123.146,162.813 101.435,179.114C98.127,181.594 96.738,181.762 95.258,177.427C94.281,174.577 93.117,171.795 91.926,169.022L91.131,167.175C89.009,162.247 86.919,157.309 85.772,152.031C82.919,138.806 87.286,128.066 98.803,120.921C111.931,112.771 124.632,104.124 135.285,92.823C150.093,77.106 160.178,59.297 158.865,36.792C158.633,32.793 157.795,28.831 156.984,23.091ZM147.196,20C152.898,37.765 150.369,52.282 141.446,65.896C132.334,79.781 119.627,89.796 105.797,98.514C86.615,110.615 65.943,119.441 44.572,126.85C39.757,128.526 37.757,128.164 37.433,122.51C36.995,114.852 35.033,107.237 35,99.595C34.931,84.597 44.07,74.106 58.657,71.247C77.606,67.545 96.22,62.821 113.374,53.59C127.399,46.045 139.679,36.706 147.196,20Z" fill="#000" stroke="#00000000" stroke-width="1.0" stroke-miterlimit=""/>
	</svg>
