<?xml version="1.0" encoding="utf-8"?>
	<svg version="1.1" xmlns="http://www.w3.org/2000/svg" xmlns:xlink="http://www.w3.org/1999/xlink" x="0px" y="0px" width="240.0" height="240.0" xml:space="preserve">
		<path d="M40.384,212.681C30.457,212.681 20.989,208.851 13.451,201.712C4.902,193.623 0,182.255 0,170.551C0,148.704 16.76,130.657 38.086,128.665C41.089,100.997 64.59,79.365 93.055,79.365C117.077,79.365 138.097,94.869 145.512,117.144L145.941,117.144C172.291,117.144 193.709,138.562 193.709,164.882C193.709,181.213 185.528,196.227 171.801,205.052C163.681,210.291 154.612,212.896 145.726,212.62C144.684,212.589 143.673,212.528 142.662,212.436C142.356,212.436 142.049,212.467 141.743,212.467L44.49,212.467C43.847,212.528 43.203,212.589 42.56,212.62C41.824,212.651 41.12,212.681 40.384,212.681L40.384,212.681ZM42.069,144.629C27.791,144.629 16.148,156.272 16.148,170.551C16.148,177.843 19.212,184.921 24.543,189.977C29.354,194.542 35.482,196.871 41.61,196.472C42.131,196.442 42.682,196.411 43.203,196.35L44.061,196.289L143.612,196.289C144.47,196.381 145.328,196.442 146.186,196.472C153.294,196.718 159.3,193.868 163.007,191.447C172.138,185.626 177.562,175.698 177.562,164.882C177.562,147.478 163.375,133.292 145.971,133.292C144.225,133.292 142.478,133.445 140.793,133.721L133.01,135.008L131.54,127.256C128.016,108.871 111.868,95.512 93.086,95.512C71.484,95.512 53.927,113.069 53.927,134.671C53.927,135.253 53.927,135.835 53.958,136.417L54.387,145.885L44.98,144.813C44.03,144.69 43.08,144.629 42.069,144.629Z" fill="#000" stroke="#00000000" stroke-width="1.0" stroke-miterlimit=""/>
		<path d="M153.539,68.058C179.86,68.058 201.277,89.476 201.277,115.796C201.277,127.492 197.048,138.22 190.038,146.531C187.781,141.129 184.558,136.23 180.587,132.046C183.45,127.288 185.099,121.716 185.099,115.765C185.099,98.331 170.943,84.206 153.539,84.206C144.527,84.206 136.377,88.002 130.613,94.084C126.62,90.393 122.092,87.294 117.173,84.905C125.936,74.604 138.989,68.058 153.539,68.058Z" fill="#000" stroke="#00000000" stroke-width="1.0" stroke-miterlimit=""/>
		<path d="M116.893,38.092C120.509,36.008 125.136,37.234 127.219,40.849L134.787,53.933C136.871,57.549 135.645,62.175 132.03,64.259C128.414,66.342 123.787,65.117 121.704,61.501L114.136,48.418C112.022,44.771 113.278,40.175 116.893,38.092L116.893,38.092ZM210.561,101.947C211.634,105.991 215.77,108.381 219.815,107.278L234.4,103.356C238.444,102.284 240.834,98.147 239.731,94.103C238.659,90.058 234.522,87.668 230.478,88.771L215.893,92.693C211.879,93.766 209.489,97.902 210.561,101.947ZM206.517,135.927C205.444,139.971 207.834,144.108 211.848,145.18L226.433,149.102C230.478,150.175 234.614,147.785 235.686,143.771C236.759,139.726 234.369,135.59 230.355,134.517L215.77,130.595C211.756,129.523 207.62,131.913 206.517,135.927ZM167.021,27C171.188,27 174.589,30.37 174.589,34.568L174.589,49.674C174.589,53.841 171.219,57.242 167.021,57.242C162.854,57.242 159.453,53.872 159.453,49.674L159.453,34.568C159.453,30.401 162.823,27 167.021,27ZM218.221,48.295C215.28,45.354 210.5,45.354 207.528,48.295L196.834,58.989C193.893,61.93 193.893,66.71 196.834,69.682C199.776,72.624 204.556,72.624 207.528,69.682L218.221,58.989C221.194,56.017 221.194,51.237 218.221,48.295L218.221,48.295Z" fill="#000" stroke="#00000000" stroke-width="1.0" stroke-miterlimit=""/>
	</svg>
