<?xml version="1.0" encoding="utf-8"?>
	<svg version="1.1" xmlns="http://www.w3.org/2000/svg" xmlns:xlink="http://www.w3.org/1999/xlink" x="0px" y="0px" width="240.0" height="240.0" xml:space="preserve">
		<path d="M32.235,169.534L37.865,117.029L43.496,169.534L64.047,169.534L75.026,71L61.513,71L53.49,149.264L45.748,71L30.827,71L23.367,148.701L15.062,71L0,71L10.979,169.534L32.235,169.534ZM124.997,169.534L124.997,155.457L98.252,155.457L98.252,126.601L119.507,126.601L119.507,112.525L98.252,112.525L98.252,85.076L124.997,85.076L124.997,71L82.768,71L82.768,169.534L124.997,169.534ZM144.704,169.534L147.378,151.657L166.381,151.657L169.056,169.534L184.68,169.534L168.915,71L146.252,71L130.487,169.534L144.704,169.534ZM164.27,138.284L149.349,138.284L156.809,88.455L164.27,138.284ZM207.343,169.534L207.343,129.416L212.692,129.416C219.871,129.416 222.827,132.795 222.827,141.944L222.827,157.428C222.827,159.399 222.827,161.088 222.968,162.355C222.968,165.029 223.249,166.578 223.672,167.704C223.812,168.267 224.094,168.83 224.235,169.534L240,169.534C238.514,165.885 238.324,162.756 238.312,158.152L238.311,142.367C238.311,132.091 235.918,124.631 228.035,121.393C234.792,118.155 238.17,111.54 238.17,101.405L238.17,93.663C238.17,78.46 231.413,71 215.226,71L191.859,71L191.859,169.534L207.343,169.534ZM213.396,115.34L207.343,115.34L207.343,85.076L214.804,85.076C220.293,85.076 222.686,88.032 222.686,95.211L222.686,104.924C222.686,112.806 219.167,115.34 213.396,115.34Z" fill="#000" stroke="#00000000" stroke-width="1.0" stroke-miterlimit=""/>
	</svg>
