<?xml version="1.0" encoding="utf-8"?>
	<svg version="1.1" xmlns="http://www.w3.org/2000/svg" xmlns:xlink="http://www.w3.org/1999/xlink" x="0px" y="0px" width="240.0" height="240.0" xml:space="preserve">
		<path d="M60,30L180,30A30,30 0,0 1,210 60L210,180A30,30 0,0 1,180 210L60,210A30,30 0,0 1,30 180L30,60A30,30 0,0 1,60 30z" fill="#000" stroke="#00000000" stroke-width="1.0" stroke-miterlimit=""/>
		<path d="M210,184.27L137.351,184.371C129.281,184.371 122.194,189.734 120,197.5C117.806,189.734 110.719,184.371 102.649,184.371L30,184.27L30,30L210,30L210,184.27ZM186.213,136.146C176.682,125.285 158,125.285 148.496,136.146C142.665,142.792 141.667,151.997 146.569,159.145C148.775,162.363 145.728,165.302 143.115,169.844C143.769,169.683 144.409,169.47 145.029,169.206C147.894,167.305 155.563,167.461 158.835,168.561C168.774,171.894 177.965,170.075 185.514,162.608C192.988,155.188 193.137,144.034 186.213,136.146ZM176.403,140.638L176.628,140.64C177.585,140.686 178.481,141.122 179.107,141.847C179.734,142.572 180.035,143.522 179.941,144.476C179.853,145.374 179.412,146.2 178.714,146.772C178.016,147.344 177.118,147.615 176.221,147.524C175.317,147.48 174.471,147.067 173.881,146.382C173.291,145.696 173.007,144.799 173.098,143.899C173.133,142.998 173.525,142.149 174.187,141.537C174.849,140.926 175.727,140.603 176.628,140.64ZM158.218,140.64C160.076,140.666 161.597,142.125 161.7,143.98C161.739,144.882 161.417,145.761 160.805,146.425C160.194,147.089 159.343,147.482 158.442,147.517C157.543,147.603 156.648,147.319 155.965,146.729C155.282,146.139 154.869,145.296 154.823,144.394C154.721,143.433 155.033,142.475 155.681,141.758C156.329,141.041 157.251,140.635 158.218,140.64Z" fill="#000" stroke="#00000000" stroke-width="1.0" stroke-miterlimit=""/>
	</svg>
