<?xml version="1.0" encoding="utf-8"?>
	<svg version="1.1" xmlns="http://www.w3.org/2000/svg" xmlns:xlink="http://www.w3.org/1999/xlink" x="0px" y="0px" width="240.0" height="240.0" xml:space="preserve">
		<path d="M187.738,143.483C189.974,143.364 190.653,144.096 190.623,146.35C190.505,155.441 190.574,164.535 190.574,173.629C190.574,182.523 190.492,191.417 190.628,200.309C190.666,202.744 189.816,203.427 187.533,203.32C184.341,203.171 181.136,203.21 177.942,203.306C176.112,203.36 175.543,202.657 175.548,200.855C175.597,182.569 175.605,164.281 175.538,145.995C175.53,143.971 176.256,143.425 178.148,143.495C181.341,143.614 184.549,143.653 187.738,143.483ZM52.415,146.341C52.385,144.085 53.061,143.365 55.296,143.482C58.586,143.654 61.893,143.582 65.19,143.506C66.789,143.469 67.517,143.896 67.513,145.678C67.462,164.174 67.469,182.67 67.502,201.165C67.504,202.715 66.927,203.309 65.402,203.288C61.904,203.24 58.401,203.186 54.907,203.314C52.841,203.389 52.421,202.471 52.435,200.628C52.503,191.531 52.466,182.432 52.466,173.334C52.465,164.336 52.536,155.338 52.415,146.341ZM126.751,143.5C128.449,143.451 129.033,144.075 129.006,145.744C128.935,150.235 128.982,154.729 128.982,159.222C128.987,163.416 128.921,167.61 129.017,171.802C129.059,173.646 128.621,174.537 126.541,174.447C123.053,174.298 119.554,174.363 116.06,174.422C114.553,174.447 113.915,173.924 113.923,172.348C113.968,163.462 113.974,154.577 113.921,145.691C113.911,143.942 114.662,143.471 116.269,143.506C119.762,143.581 123.259,143.598 126.751,143.5ZM146.964,143.485L147.153,143.49C150.543,143.623 153.943,143.591 157.335,143.501C159.058,143.456 159.871,143.911 159.856,145.826C159.783,154.613 159.791,163.4 159.853,172.187C159.864,173.901 159.221,174.464 157.57,174.428C154.077,174.352 150.577,174.316 147.087,174.442C145.162,174.512 144.728,173.694 144.763,171.961C144.85,167.569 144.791,163.175 144.791,158.781C144.794,154.488 144.858,150.192 144.764,145.9C144.725,144.106 145.279,143.417 147.153,143.49ZM207.315,143.489L207.511,143.494C210.907,143.616 214.312,143.587 217.711,143.505C219.364,143.465 220.012,144.014 220,145.736C219.939,154.538 219.939,163.339 219.999,172.141C220.01,173.861 219.353,174.423 217.704,174.387C214.305,174.313 210.9,174.281 207.503,174.4C205.561,174.468 204.862,173.812 204.914,171.835C205.032,167.437 204.951,163.034 204.951,158.632C204.951,154.432 205.038,150.228 204.913,146.031C204.854,144.033 205.583,143.425 207.511,143.494ZM85.266,143.492L85.462,143.496C88.959,143.616 92.465,143.59 95.963,143.503C97.64,143.462 98.237,144.059 98.226,145.751C98.168,154.552 98.167,163.354 98.226,172.156C98.237,173.877 97.571,174.423 95.929,174.389C92.43,174.313 88.927,174.312 85.427,174.389C83.756,174.425 83.123,173.817 83.154,172.119C83.234,167.72 83.181,163.318 83.181,158.918C83.178,154.616 83.232,150.315 83.151,146.015C83.119,144.305 83.516,143.429 85.462,143.496ZM23.66,143.488L23.85,143.493C27.246,143.619 30.651,143.555 34.052,143.516C35.416,143.501 36.323,143.696 36.313,145.428C36.258,154.431 36.269,163.434 36.305,172.437C36.31,173.857 35.753,174.39 34.359,174.373C30.658,174.328 26.956,174.311 23.256,174.378C21.591,174.409 21.267,173.57 21.282,172.143C21.33,167.642 21.3,163.14 21.3,158.639C21.297,154.438 21.383,150.234 21.259,146.036C21.201,144.045 21.912,143.422 23.85,143.493ZM165.785,46.312C174.762,35.228 196.522,34.048 206.767,44.049C208.188,45.436 209.354,46.951 210.268,48.548L210.437,48.849C211.567,50.904 212.285,53.088 212.599,55.3C212.995,58.084 212.75,60.914 211.878,63.591C211.837,63.717 211.795,63.843 211.751,63.967C210.579,67.323 208.413,70.42 205.281,72.863C205.08,73.02 204.875,73.174 204.667,73.326C204.54,73.417 204.413,73.508 204.284,73.6C204.112,73.723 203.937,73.845 203.757,73.971C203.136,74.405 202.451,74.873 201.595,75.47C203.963,76.845 206.048,77.828 207.772,79.366C210.463,81.767 212.279,84.917 213.201,88.329L213.29,88.671C214.439,93.242 213.997,98.247 211.916,102.53C211.835,102.696 211.752,102.861 211.667,103.024C210.924,104.446 209.995,105.781 208.878,106.985C206.887,109.132 204.474,110.872 201.799,112.206L201.374,112.413C197.25,114.384 192.534,115.407 187.796,115.483L187.306,115.488C186.815,115.489 186.325,115.48 185.835,115.46L185.346,115.438C179.103,115.107 172.991,113.126 168.316,109.494C168.066,109.3 167.821,109.101 167.58,108.898C166.91,108.334 166.273,107.732 165.673,107.094C164.404,105.745 163.469,104.268 162.783,102.691C162.51,102.061 162.275,101.415 162.076,100.754C161.664,99.395 161.399,97.975 161.232,96.51C161.151,95.797 161.177,95.193 161.373,94.727C161.666,94.031 162.34,93.646 163.608,93.678C167.008,93.764 170.412,93.751 173.812,93.677C175.412,93.642 176.048,94.331 176.447,95.842C177.397,99.441 179.662,101.588 182.727,102.61C183.63,102.911 184.603,103.115 185.631,103.229C186.329,103.306 187.02,103.349 187.7,103.351L187.99,103.349C190.564,103.31 192.965,102.659 194.898,101.005C195.579,100.423 196.201,99.716 196.753,98.869C197.294,98.037 197.713,97.191 198.018,96.334C199.197,93.019 198.666,89.562 196.918,86.3C196.421,85.37 195.798,84.632 195.083,84.045L194.866,83.873C193.987,83.204 192.98,82.746 191.901,82.432L191.63,82.356C190.45,82.04 189.192,81.886 187.927,81.804C186.903,81.737 185.874,81.705 184.844,81.697L183.815,81.697C182.785,81.704 181.755,81.732 180.727,81.772L180.535,81.777C178.776,81.795 178.109,81.076 178.024,79.185C177.814,74.517 177.697,72.209 178.82,71.039L178.896,70.964C180.022,69.892 182.305,69.836 186.749,69.727C188.36,69.687 189.819,69.422 191.105,68.957C195.486,67.374 197.849,63.482 197.342,58.359C197.287,57.804 197.199,57.236 197.076,56.654C196.159,52.323 192.789,49.607 188.007,49.344L187.7,49.331L187.7,49.331L187.396,49.324C187.295,49.323 187.194,49.323 187.094,49.324L186.794,49.33C185.886,49.361 185.013,49.482 184.188,49.689C182.492,50.113 180.999,50.897 179.83,51.985C179.47,52.321 179.14,52.686 178.844,53.078C178.732,53.226 178.625,53.378 178.524,53.534C178.055,54.253 177.694,55.053 177.461,55.924C177.115,57.22 176.614,57.935 175.607,58.172C175.425,58.214 175.226,58.242 175.009,58.254L174.819,58.261L174.819,58.261L174.62,58.26C173.916,58.247 173.212,58.236 172.507,58.229C171.891,58.222 171.274,58.218 170.658,58.216L168.677,58.216C167.356,58.221 166.036,58.234 164.715,58.255L164.715,58.256L164.525,58.255L164.525,58.255L164.343,58.249C163.93,58.226 163.588,58.15 163.309,58.018L163.194,57.959C162.524,57.581 162.267,56.837 162.293,55.7C162.302,55.31 162.324,54.925 162.36,54.545C162.431,53.794 162.555,53.063 162.73,52.352C163.273,50.148 164.307,48.137 165.785,46.312ZM48.827,38.079L48.952,38.087C49.262,38.114 49.526,38.177 49.747,38.283L49.851,38.338C49.979,38.411 50.092,38.502 50.189,38.61C50.33,38.767 50.441,38.961 50.524,39.198C50.67,39.616 50.732,40.166 50.726,40.872C50.633,52.573 50.685,64.275 50.685,75.978C50.686,87.58 50.619,99.182 50.737,110.784C50.75,112.039 50.592,112.935 50.116,113.5L50.029,113.597C49.635,114 49.05,114.211 48.208,114.242C47.952,114.252 47.67,114.244 47.363,114.221C44.678,114.013 41.953,114.011 39.269,114.221C39.043,114.238 38.829,114.248 38.626,114.25C38.018,114.256 37.514,114.191 37.101,114.045L36.967,113.993C35.9,113.547 35.494,112.495 35.492,110.65L35.492,110.524C35.619,95.523 35.551,80.52 35.55,65.517C35.55,62.316 35.554,59.116 35.549,55.915C35.547,54.891 35.546,54.118 35.485,53.534C35.349,52.219 34.912,51.864 33.498,51.765L33.352,51.756C32.855,51.728 32.244,51.727 31.496,51.725L31.496,51.725L29.695,51.717C28.495,51.71 27.294,51.701 26.094,51.7L24.294,51.708C23.694,51.714 23.094,51.723 22.495,51.738L22.307,51.74C20.95,51.731 20.241,51.246 20.055,50.111C20.014,49.862 19.999,49.583 20.007,49.271L20.014,48.973C20.025,48.483 20.03,48.023 20.032,47.591L20.033,47.085C20.03,45.838 20.002,44.841 19.999,44.04C19.997,43.31 20.016,42.738 20.099,42.291C20.158,41.976 20.248,41.723 20.383,41.518L20.426,41.457C20.72,41.061 21.21,40.854 22.014,40.716L22.137,40.696C22.178,40.689 22.221,40.683 22.264,40.677L22.397,40.658C23.298,40.538 24.532,40.468 26.219,40.328L26.476,40.306C26.822,40.276 27.187,40.243 27.571,40.207L27.571,40.207L33.283,39.665C38.043,39.211 42.801,38.74 47.543,38.147C47.895,38.103 48.213,38.077 48.499,38.073C48.613,38.071 48.723,38.073 48.827,38.079ZM109.399,37.235C115.071,36.5 120.787,37.498 126.301,40.119C127.232,40.562 128.112,41.064 128.939,41.619C129.155,41.764 129.368,41.913 129.577,42.066C129.967,42.35 130.344,42.646 130.709,42.954C138.063,49.167 140.196,60.054 135.77,69.427C135.305,70.413 134.767,71.382 134.155,72.327C132.45,74.959 130.561,77.442 128.567,79.838C125.195,83.892 121.524,87.699 117.936,91.569C114.887,94.858 111.611,97.94 108.325,102.163L120.372,102.163L120.372,102.163C126.073,102.164 131.775,102.209 137.475,102.142L137.663,102.141L137.663,102.141L137.844,102.146C138.492,102.169 138.991,102.284 139.359,102.538L139.456,102.611C139.617,102.741 139.75,102.903 139.858,103.102C139.959,103.289 140.038,103.51 140.095,103.767L140.127,103.93C140.14,104.003 140.152,104.078 140.162,104.156C140.183,104.319 140.197,104.494 140.205,104.681C140.285,106.517 140.352,107.998 140.339,109.193C140.29,113.713 139.106,114.133 133.217,114.172L132.954,114.173C132.865,114.174 132.775,114.174 132.685,114.174L132.41,114.175C132.224,114.176 132.034,114.176 131.84,114.176L131.245,114.176L131.245,114.176C124.643,114.176 118.042,114.159 111.44,114.157L104.838,114.162C100.437,114.171 96.037,114.191 91.636,114.233L91.636,114.233L91.413,114.233C90.392,114.224 89.656,114.086 89.133,113.752L89.024,113.677C89.002,113.661 88.981,113.644 88.96,113.627C88.453,113.221 88.181,112.582 88.056,111.629C88.024,111.381 88.001,111.112 87.987,110.821L87.982,110.697C87.827,106.725 88.889,103.662 91.407,100.698L91.673,100.392C91.823,100.223 91.978,100.053 92.137,99.884L92.236,99.781C92.812,99.178 93.39,98.576 93.969,97.974C97.062,94.759 100.18,91.563 103.257,88.329C108.012,83.33 112.667,78.239 116.982,72.842L116.84,73.019C116.887,72.96 116.935,72.901 116.982,72.842C117.21,72.557 117.434,72.27 117.655,71.981C119.8,69.167 121.57,66.131 122.334,62.556C122.759,60.567 122.748,58.668 122.358,56.959C121.951,55.176 121.131,53.602 119.962,52.352L119.783,52.166C119.276,51.654 118.707,51.2 118.082,50.814C117.068,50.187 115.906,49.738 114.616,49.504C114.05,49.401 113.491,49.341 112.942,49.323L112.668,49.316L112.668,49.316L112.395,49.317C110.777,49.343 109.25,49.728 107.901,50.423C106.864,50.958 105.931,51.676 105.141,52.556C104.926,52.795 104.722,53.046 104.529,53.309C103.914,54.145 103.415,55.098 103.055,56.153C102.762,57.012 102.562,57.939 102.468,58.926C102.31,60.584 101.898,61.558 101.138,62.078L101.022,62.153C100.346,62.557 99.415,62.641 98.17,62.547C97.275,62.48 96.376,62.441 95.476,62.424L94.575,62.414L94.575,62.414L93.674,62.418C92.472,62.43 91.27,62.473 90.073,62.531L90.073,62.531L89.857,62.537L89.857,62.537L89.65,62.538C89.16,62.53 88.755,62.462 88.424,62.333C87.904,62.129 87.57,61.774 87.384,61.263C87.216,60.803 87.169,60.215 87.218,59.497C87.489,55.457 88.521,51.895 90.293,48.848C92.52,45.018 95.917,42.004 100.441,39.884C103.38,38.507 106.367,37.631 109.366,37.239Z" fill="#000" stroke="#00000000" stroke-width="1.0" stroke-miterlimit=""/>
	</svg>
