<?xml version="1.0" encoding="utf-8"?>
	<svg version="1.1" xmlns="http://www.w3.org/2000/svg" xmlns:xlink="http://www.w3.org/1999/xlink" x="0px" y="0px" width="240.0" height="240.0" xml:space="preserve">
		<path d="M119.778,201.144C73.779,201.009 35.094,165.829 30.451,120.119C28.764,103.515 31.876,87.847 38.669,72.805C40.092,69.653 40.389,66.909 39.222,63.536C36.678,56.185 37.609,48.728 39.687,41.374C40.487,38.541 42.259,37.124 45.005,38.58C55.909,44.361 67.46,44.211 79.319,43.198C87.726,42.481 94.734,45.703 99.059,53.406C101.505,57.768 105.743,58.875 110.115,59.962C118.193,61.97 119.799,64.343 118.735,72.68C118.326,75.891 117.685,79.077 117.055,82.255C115.626,89.454 111.644,94.529 104.852,97.611C99.893,99.863 94.974,102.345 90.412,105.304C80.184,111.938 77.258,124.004 83.249,134.439C91.057,148.035 102.099,158.548 115.125,167.107C118.361,169.234 121.304,169.192 124.607,167.081C137.171,159.05 147.675,148.987 155.5,136.255C163.066,123.943 159.709,111.042 147.089,103.976C142.624,101.476 137.882,99.474 133.435,96.949C124.632,91.95 118.309,75.197 121.326,65.508C122.257,62.523 124.409,60.987 127.269,60.557C133.895,59.559 138.949,56.467 142.655,50.737C146.065,45.462 151.505,43.475 157.612,43.204C159.827,43.106 162.106,42.781 164.256,43.148C174.306,44.862 183.866,43.72 193.057,39.162C197.294,37.061 199.887,38.861 200.878,43.308C202.385,50.058 202.891,56.87 200.867,63.545C199.792,67.088 200.183,70.099 201.665,73.387C222.438,119.463 203.151,171.739 157.503,192.989C145.582,198.539 132.952,201.202 119.778,201.144" fill="#000" stroke="#00000000" stroke-width="1.0" stroke-miterlimit=""/>
	</svg>
