<?xml version="1.0" encoding="utf-8"?>
	<svg version="1.1" xmlns="http://www.w3.org/2000/svg" xmlns:xlink="http://www.w3.org/1999/xlink" x="0px" y="0px" width="240.0" height="240.0" xml:space="preserve">
		<path d="M120.709,20C135.603,20 149.787,23.546 162.553,29.22C164.681,30.638 165.39,32.057 165.39,34.184C165.39,35.603 164.681,37.021 162.553,37.73C147.66,43.404 132.057,59.716 132.057,78.156L132.057,78.156L132.057,220C128.511,220.709 124.255,220.709 120.709,220.709C119.232,220.709 117.631,220.586 116.01,220.442L114.061,220.267C112.44,220.123 110.839,220 109.362,220L109.362,220L109.362,78.156C109.362,59.716 93.759,43.404 77.447,37.73C75.319,37.021 74.61,36.312 76.028,34.184C76.028,31.348 76.738,29.929 78.865,29.22C90.922,23.546 105.106,20 120.709,20ZM74.61,56.17C85.957,61.135 93.759,72.482 93.759,86.667L93.759,86.667L93.759,217.163C86.667,215.035 80.284,212.908 74.61,209.362L74.61,209.362ZM165.39,56.17L165.39,209.362C159.716,212.908 152.624,215.035 146.241,217.163L146.241,217.163L146.241,86.667C146.241,73.191 154.043,61.135 165.39,56.17L165.39,56.17ZM181.702,42.695C202.979,59.007 217.163,83.121 220,110.78C219.291,113.617 216.454,115.745 213.617,115.745C207.234,115.745 202.979,110.78 200.851,105.106C200.851,103.688 199.433,102.979 198.723,102.979C197.305,102.979 196.596,103.688 196.596,103.688C193.05,107.943 190.922,114.326 190.922,120.709C190.922,127.092 193.05,132.766 195.887,137.73C197.305,137.73 196.596,138.44 198.014,138.44C199.433,138.44 200.142,137.021 200.142,136.312C202.27,130.638 207.234,125.674 212.908,125.674C215.745,125.674 217.872,127.801 219.291,133.475L219.291,133.475L219.291,137.021C215.035,162.553 201.56,185.248 181.702,200.851L181.702,200.851ZM60.426,41.277L60.426,112.908C59.007,114.326 57.589,115.035 55.461,115.035C49.078,115.035 44.823,110.071 42.695,104.397C42.695,102.979 41.277,102.27 40.567,102.27C39.858,102.27 39.149,102.979 37.021,104.397C33.475,108.652 31.348,115.035 31.348,121.418C31.348,127.801 33.475,133.475 37.021,138.44C38.44,138.44 37.73,139.149 39.149,139.149C40.567,139.149 41.277,137.73 41.277,137.021C43.404,131.348 48.369,126.383 54.043,126.383C56.17,126.383 58.298,127.801 59.007,128.511L59.007,128.511L59.007,200.142C35.603,181.702 20,153.333 20,120.709C20,88.085 35.603,59.716 60.426,41.277L60.426,41.277Z" fill="#000" stroke="#00000000" stroke-width="1.0" stroke-miterlimit=""/>
	</svg>
