<?xml version="1.0" encoding="utf-8"?>
	<svg version="1.1" xmlns="http://www.w3.org/2000/svg" xmlns:xlink="http://www.w3.org/1999/xlink" x="0px" y="0px" width="240.0" height="240.0" xml:space="preserve">
		<path d="M134.28,62.816C142.474,54.521 150.358,45.889 158.94,38.016C170.222,27.665 183.548,25.202 197.663,31.257C211.878,37.355 219.673,48.742 219.81,64.186C220.151,102.677 219.932,141.172 219.92,179.666C219.914,197.077 206.842,210.957 190.227,211.247C172.775,211.552 158.922,198.568 158.599,180.892C158.269,162.844 158.578,144.785 158.606,126.731C158.705,126.37 158.889,126.01 158.889,125.649C158.909,109.734 159.151,93.813 158.807,77.905C158.663,71.254 155.218,66.117 148.925,63.055C143.989,60.653 139.177,61.733 134.28,62.816" fill="#000" stroke="#00000000" stroke-width="1.0" stroke-miterlimit=""/>
		<path d="M134.28,62.816C139.177,61.733 143.989,60.653 148.925,63.055C155.218,66.117 158.663,71.254 158.807,77.905C159.151,93.813 158.909,109.734 158.889,125.649C158.889,126.01 158.705,126.37 158.606,126.731C156.293,127.426 155.059,129.443 153.501,131.017C133.812,150.886 106.46,150.888 86.773,131.022C85.216,129.451 83.994,127.42 81.664,126.75C80.9,125.773 80.227,124.707 79.359,123.834C68.974,113.366 58.604,102.884 48.14,92.496C40.281,84.694 27.766,86.677 22.445,96.44C21.923,97.395 21.833,98.663 20.608,99.146C20.381,85.757 19.077,72.259 21.179,59.016C23.481,44.512 32.214,34.336 46.36,29.915C60.427,25.518 72.814,29.342 83.188,39.695C91.883,48.372 100.497,57.13 109.173,65.826C116.622,73.291 124.07,73.191 131.282,65.61C132.222,64.623 133.278,63.745 134.28,62.816" fill="#000" stroke="#00000000" stroke-width="1.0" stroke-miterlimit=""/>
		<path d="M20.608,99.147C21.833,98.663 21.924,97.395 22.445,96.44C27.766,86.678 40.281,84.694 48.14,92.496C58.604,102.883 68.974,113.366 79.358,123.834C80.226,124.708 80.9,125.774 81.664,126.75C81.692,144.804 82.008,162.863 81.668,180.91C81.335,198.591 67.439,211.591 50.025,211.242C33.396,210.909 20.368,197.057 20.352,179.633C20.331,155.059 20.34,130.484 20.358,105.91C20.359,103.655 20.52,101.401 20.608,99.147" fill="#000" stroke="#00000000" stroke-width="1.0" stroke-miterlimit=""/>
	</svg>
