<?xml version="1.0" encoding="utf-8"?>
	<svg version="1.1" xmlns="http://www.w3.org/2000/svg" xmlns:xlink="http://www.w3.org/1999/xlink" x="0px" y="0px" width="240.0" height="240.0" xml:space="preserve">
		<path d="M120,120m-85,0a85,85 0,1 1,170 0a85,85 0,1 1,-170 0" fill="#00000000" stroke="#000" stroke-width="10.0" stroke-miterlimit=""/>
		<path d="M120,120m-25,0a25,25 0,1 1,50 0a25,25 0,1 1,-50 0" fill="#000" stroke="#00000000" stroke-width="1.0" stroke-miterlimit=""/>
		<path d="M156,113l10,0l-10,15l10,0" fill="#00000000" stroke="#000" stroke-width="10.0" stroke-miterlimit=""/>
		<path d="M170,69l20,0l-20,30l20,0" fill="#00000000" stroke="#000" stroke-width="10.0" stroke-miterlimit=""/>
		<path d="M202,12l30,0l-30,45l30,0" fill="#00000000" stroke="#000" stroke-width="10.0" stroke-miterlimit=""/>
	</svg>
