<?xml version="1.0" encoding="utf-8"?>
	<svg version="1.1" xmlns="http://www.w3.org/2000/svg" xmlns:xlink="http://www.w3.org/1999/xlink" x="0px" y="0px" width="240.0" height="240.0" xml:space="preserve">
		<path d="M0,0h240v240h-240z" fill="#000" stroke="#00000000" stroke-width="1.0" stroke-miterlimit=""/>
		<path d="M191.25,180L185.625,180L185.625,100.313C185.625,67.242 161.18,39.914 129.375,35.367L129.375,26.25C129.375,21.07 125.18,16.875 120,16.875C114.82,16.875 110.625,21.07 110.625,26.25L110.625,35.367C78.82,39.914 54.375,67.242 54.375,100.313L54.375,180L48.75,180C44.602,180 41.25,183.352 41.25,187.5L41.25,195C41.25,196.031 42.094,196.875 43.125,196.875L93.75,196.875C93.75,211.359 105.516,223.125 120,223.125C134.484,223.125 146.25,211.359 146.25,196.875L196.875,196.875C197.906,196.875 198.75,196.031 198.75,195L198.75,187.5C198.75,183.352 195.398,180 191.25,180ZM120,208.125C113.789,208.125 108.75,203.086 108.75,196.875L131.25,196.875C131.25,203.086 126.211,208.125 120,208.125ZM71.25,180L71.25,100.313C71.25,87.281 76.313,75.047 85.523,65.836C94.734,56.625 106.969,51.563 120,51.563C133.031,51.563 145.266,56.625 154.477,65.836C163.688,75.047 168.75,87.281 168.75,100.313L168.75,180L71.25,180Z" fill="#000" stroke="#00000000" stroke-width="1.0" stroke-miterlimit=""/>
	</svg>
