<?xml version="1.0" encoding="utf-8"?>
	<svg version="1.1" xmlns="http://www.w3.org/2000/svg" xmlns:xlink="http://www.w3.org/1999/xlink" x="0px" y="0px" width="240.0" height="240.0" xml:space="preserve">
		<path d="M66.146,150.73C83.739,150.613 97.716,136.397 97.33,119.014C96.952,102.04 83.13,88.662 65.92,88.617C48.249,88.573 34.077,102.474 34.148,119.791C34.217,137.132 48.401,150.85 66.146,150.73M235.34,122.808C235.316,127.28 234.292,135.152 230.631,141.983C226.766,149.195 227.751,154.423 234.04,159.118C243.112,165.896 240.884,171.808 233.661,178.854C226.779,185.57 220.92,189.076 213.808,179.886C209.008,173.689 203.874,173.385 196.474,176.322C170.241,186.739 142.279,178.905 125.461,156.279C120.094,149.056 118.457,151.211 114.162,156.846C95.541,181.273 62.183,187.882 35.818,172.922C9.327,157.887 -2.353,125.754 9.249,97.544C12.233,90.294 12.534,85.166 6.053,80.358C-2.8,73.79 -1.208,67.934 6.093,60.607C13.54,53.133 19.653,50.75 26.77,60.108C31.415,66.219 36.544,65.659 43.269,63.056C72.144,51.886 101.995,62.257 118.165,88.48C128.227,104.8 137.949,121.337 148.317,137.46C156.322,149.906 168.682,152.916 182.329,149.953C194.675,147.27 201.898,138.461 204.813,126.531C208.049,113.301 203.037,102.598 192.777,94.283C182.639,86.07 164.824,86.006 154.885,95.123C148.266,101.19 145.019,101.42 140.222,93.236C129.342,74.681 129.747,72.432 149.894,63.635C189.837,46.187 235.143,75.779 235.34,122.808" fill="#000" stroke="#00000000" stroke-width="1.0" stroke-miterlimit=""/>
	</svg>
