<?xml version="1.0" encoding="utf-8"?>
	<svg version="1.1" xmlns="http://www.w3.org/2000/svg" xmlns:xlink="http://www.w3.org/1999/xlink" x="0px" y="0px" width="240.0" height="240.0" xml:space="preserve">
		<path d="M209.487,190C209.487,206.569 196.055,220 179.487,220L59.487,220C42.919,220 29.487,206.569 29.487,190L29.487,110C29.456,90.758 35.62,72.017 47.067,56.55C46.667,56.27 46.292,55.956 45.947,55.61L31.807,41.46C28.017,37.536 28.072,31.299 31.929,27.442C35.786,23.585 42.023,23.53 45.947,27.32L60.097,41.46L60.547,41.98C76.894,27.775 97.83,19.967 119.487,20C142.027,20 162.627,28.28 178.417,41.97L178.877,41.47L193.017,27.32C196.922,23.413 203.255,23.411 207.162,27.315C211.069,31.22 211.072,37.553 207.167,41.46L193.017,55.61C192.671,55.957 192.3,56.278 191.907,56.57C203.357,72.028 209.521,90.764 209.487,110L209.487,190ZM49.487,130L49.487,190C49.487,195.07 53.282,199.337 58.317,199.93L59.487,200L179.487,200C184.557,200 188.824,196.205 189.417,191.17L189.487,190L189.487,130L49.487,130L49.487,130ZM119.487,40C81.761,40 50.821,69.896 49.527,107.6L49.487,110L189.487,110C189.487,71.34 158.147,40 119.487,40L119.487,40ZM89.487,70C93.06,70 96.362,71.905 98.149,75C99.935,78.094 99.935,81.906 98.149,85.001C96.362,88.095 93.06,90.001 89.487,90C83.965,89.999 79.489,85.522 79.489,80C79.489,74.478 83.965,70.001 89.487,70L89.487,70ZM149.487,70C153.06,70 156.362,71.905 158.149,75C159.935,78.094 159.935,81.906 158.149,85.001C156.362,88.095 153.06,90.001 149.487,90C143.965,89.999 139.489,85.522 139.489,80C139.489,74.478 143.965,70.001 149.487,70L149.487,70Z" fill="#000" stroke="#00000000" stroke-width="1.0" stroke-miterlimit=""/>
	</svg>
