<?xml version="1.0" encoding="utf-8"?>
	<svg version="1.1" xmlns="http://www.w3.org/2000/svg" xmlns:xlink="http://www.w3.org/1999/xlink" x="0px" y="0px" width="240.0" height="240.0" xml:space="preserve">
		<path d="M70,30L170,30A40,40 0,0 1,210 70L210,170A40,40 0,0 1,170 210L70,210A40,40 0,0 1,30 170L30,70A40,40 0,0 1,70 30z" fill="#00000000" stroke="#000" stroke-width="10.0" stroke-miterlimit=""/>
		<path d="M30,120L210,120M120,30L120,210" fill="#00000000" stroke="#000" stroke-width="10.0" stroke-miterlimit=""/>
		<path d="M135,75m-15,0a15,15 0,1 1,30 0a15,15 0,1 1,-30 0" fill="#00000000" stroke="#000" stroke-width="10.0" stroke-miterlimit=""/>
		<path d="M105,165m-15,0a15,15 0,1 1,30 0a15,15 0,1 1,-30 0" fill="#00000000" stroke="#000" stroke-width="10.0" stroke-miterlimit=""/>
	</svg>
