<?xml version="1.0" encoding="utf-8"?>
	<svg version="1.1" xmlns="http://www.w3.org/2000/svg" xmlns:xlink="http://www.w3.org/1999/xlink" x="0px" y="0px" width="240.0" height="240.0" xml:space="preserve">
		<path d="M49.137,20.008C61.861,20 74.585,19.991 87.309,20.02C93.551,20.034 95.593,22.073 95.595,28.293C95.62,89.455 95.636,150.617 95.64,211.779C95.64,218.235 93.892,219.986 87.451,219.994C74.192,220.01 60.933,219.994 47.674,219.955C41.904,219.937 40.017,218.053 40.013,212.218C39.992,181.529 40.003,150.842 40.003,120.153L40.003,120.153L40.017,120.153C40.017,89.786 40.011,59.419 40.02,29.051C40.022,21.755 41.79,20.012 49.137,20.008ZM130.688,21.21C144.001,20.997 156.304,24.598 167.507,31.657C185.406,42.936 196.247,59.088 199.838,79.974C200.506,83.859 200.656,87.834 200.872,90.021C200.803,127.029 173.56,157.226 138.374,161.024C135.934,161.288 133.469,161.525 131.022,161.479C126.546,161.395 123.651,158.633 123.609,154.683C123.57,150.994 126.747,147.843 130.999,147.726C138.459,147.52 145.654,146.262 152.5,143.183C171.782,134.511 183.501,119.727 186.272,98.858C190.645,65.926 167.533,37.875 134.41,34.92C133.026,34.797 131.64,34.671 130.259,34.52C126.244,34.083 123.452,31.175 123.657,27.662C123.874,23.933 126.675,21.274 130.688,21.21Z" fill="#000" stroke="#00000000" stroke-width="1.0" stroke-miterlimit=""/>
	</svg>
