<?xml version="1.0" encoding="utf-8"?>
	<svg version="1.1" xmlns="http://www.w3.org/2000/svg" xmlns:xlink="http://www.w3.org/1999/xlink" x="0px" y="0px" width="240.0" height="240.0" xml:space="preserve">
		<path d="M103.332,169.998L81.11,169.998L81.11,69.999L103.332,69.999L103.332,169.998ZM119.999,42.222C77.044,42.222 42.222,77.044 42.222,119.999C42.222,162.953 77.044,197.775 119.999,197.775C162.953,197.775 197.775,162.953 197.775,119.999C197.775,99.371 189.581,79.588 174.995,65.002C160.409,50.416 140.626,42.222 119.999,42.222M119.999,20C160.444,20 196.907,44.364 212.385,81.731C227.863,119.098 219.308,162.109 190.708,190.708C162.109,219.308 119.098,227.863 81.731,212.385C44.364,196.907 20,160.444 20,119.999C20,64.771 64.771,20 119.999,20ZM169.664,69.999L142.554,69.999L107.554,119.999L142.554,169.998L169.664,169.998L134.665,119.999L169.664,69.999Z" fill="#000" stroke="#00000000" stroke-width="1.0" stroke-miterlimit=""/>
	</svg>
