<?xml version="1.0" encoding="utf-8"?>
	<svg version="1.1" xmlns="http://www.w3.org/2000/svg" xmlns:xlink="http://www.w3.org/1999/xlink" x="0px" y="0px" width="240.0" height="240.0" xml:space="preserve">
		<path d="M181.905,120.523C181.534,118.246 181.215,115.958 180.77,113.695C180.489,112.271 179.439,111.797 178.065,111.999C176.331,112.252 174.607,112.588 172.867,112.779C171.203,112.96 170.694,113.845 170.951,115.393C171.343,117.749 171.732,120.107 172.063,122.473C172.256,123.855 172.852,124.413 174.316,124.1C175.947,123.751 177.616,123.578 179.273,123.362C180.944,123.144 181.918,122.335 181.905,120.523M177.01,99.575C176.879,97.929 176.649,95.864 176.562,93.793C176.242,86.221 176.176,78.641 175.112,71.109C174.23,64.87 174.042,64.632 167.706,65.584C163.224,66.257 163.14,66.563 163.803,71.161C165.326,81.714 168.706,91.818 171.084,102.163C171.442,103.717 172.322,104.236 173.822,104.175C176.368,104.072 177.03,103.245 177.01,99.575M132.533,130.485C136.231,130.433 139.787,129.322 143.461,129.025C144.809,128.917 145.122,127.761 145.286,126.557C145.782,122.909 146.326,119.266 146.886,115.626C149.149,100.909 151.429,86.194 153.692,71.477C154.052,69.135 153.575,68.493 151.193,68.614C149.044,68.723 146.914,69.188 144.766,69.398C143.022,69.568 142.215,70.52 142.043,72.177C141.192,80.37 140.334,88.563 139.478,96.756C138.996,101.371 138.501,105.984 138.035,110.6C137.86,112.332 136.593,113.093 135.22,113.531C133.685,114.02 132.832,112.816 132.247,111.666C131.377,109.957 130.666,108.165 129.913,106.398C125.676,96.454 121.439,86.51 117.222,76.559C116.35,74.501 114.976,73.583 112.678,74.069C110.802,74.467 108.876,74.624 106.983,74.953C104.493,75.387 104.315,75.763 105.444,78.104C108.714,84.885 111.981,91.668 115.283,98.433C120.202,108.51 125.148,118.575 130.087,128.643C130.59,129.67 131.101,130.706 132.533,130.485M82.124,78.91C90.326,77.993 95.316,80.918 97.879,88.315C98.978,91.489 99.786,94.775 99.618,98.214C99.515,102.72 98.624,106.906 95.231,110.268C93.312,112.169 90.976,113.136 88.466,113.674C85.892,114.226 83.253,114.479 80.64,114.851C76.624,115.422 74.745,117.413 75.109,121.451C75.56,126.469 76.313,131.465 77.107,136.443C77.394,138.243 76.773,138.993 75.138,139.243C72.529,139.643 69.926,140.089 67.31,140.437C65.661,140.656 65.603,139.355 65.438,138.239C64.003,128.497 62.581,118.752 61.139,109.01C59.991,101.249 58.803,93.494 57.666,85.731C57.237,82.801 57.578,82.413 60.485,81.994C67.697,80.955 74.886,79.718 82.124,78.91ZM79.676,88.267C78.248,88.1 76.673,88.457 75.122,88.841C72.485,89.496 70.577,91.66 70.845,93.913C71.214,97.01 71.678,100.11 72.366,103.148C72.818,105.15 74.157,106.608 76.448,106.531C80.012,106.411 83.281,105.462 85.59,102.508C88.101,99.297 88.91,95.752 87.07,91.954C85.634,88.99 83.016,88.042 79.676,88.267ZM126.422,30.118C147.179,29.719 165.38,33.664 182.403,42.574C193.94,48.613 203.783,56.681 210.991,67.66C216.893,76.649 220.04,86.631 220,97.335C219.957,108.606 216.461,119.018 210.453,128.589C200.162,144.985 185.233,155.81 168.081,163.961C157.462,169.007 146.2,172.07 134.682,174.116C131.724,174.642 128.683,175.607 125.67,175.261C119.602,174.564 115.164,177.277 110.842,181.078C103.753,187.313 96.381,193.227 89.145,199.295C86.262,201.712 83.36,204.112 80.585,206.649C78.397,208.652 75.887,209.961 73.075,210.719C69.948,211.562 66.676,208.641 66.433,204.82C66.223,201.53 66.664,198.27 66.931,194.999C67.464,188.468 67.864,181.926 68.348,175.391C68.46,173.877 68.536,172.335 68.904,170.875C69.35,169.106 68.776,168.229 67.123,167.595C57.61,163.95 48.964,158.796 41.271,152.136C31.53,143.704 24.233,133.52 21.421,120.819C18.157,106.082 20.54,92.055 28.327,79.004C34.501,68.658 42.729,60.293 52.387,53.174C64.757,44.056 78.557,38.027 93.317,34.197C104.657,31.254 116.213,29.518 126.422,30.118" fill="#000" stroke="#00000000" stroke-width="1.0" stroke-miterlimit=""/>
	</svg>
