<?xml version="1.0" encoding="utf-8"?>
	<svg version="1.1" xmlns="http://www.w3.org/2000/svg" xmlns:xlink="http://www.w3.org/1999/xlink" x="0px" y="0px" width="240.0" height="240.0" xml:space="preserve">
		<path d="M88.894,91.016L89.301,91.04L89.289,91.041C89.041,91.058 85.003,91.525 77.597,103.868C77.597,103.868 77.464,104.09 77.257,104.454L77.186,104.581L83.302,104.581C83.376,104.584 84.433,104.599 86.031,103.028L86.204,102.854L86.204,108.829C86.204,108.829 84.524,107.726 83.442,107.63L83.298,107.623L75.432,107.623C73.181,111.61 69.419,118.279 65.539,125.195L64.926,126.289L64.004,127.932L63.467,128.892L63.467,128.892L62.93,129.85C58.203,138.298 53.764,146.299 52.161,149.396C51.371,142.438 44.751,139.153 42.724,138.22L42.515,138.124C42.452,138.095 42.396,138.07 42.348,138.048C41.252,137.527 28.26,131.305 28.26,131.305C28.26,131.305 26.173,132.478 23.24,133.955L22.681,134.236C19.363,135.889 15.126,137.84 11.594,138.953C4.752,141.107 0.134,138.497 0.003,138.433L0,138.432L0,129.688C3.344,133.032 6.962,133.69 12.718,131.689C14.472,131.07 16.858,129.649 18.961,128.25L19.351,127.989L2.138,127.989L3.07,125.467L3.07,114.092L2.138,112.283L23.6,112.283C23.133,111.426 22.148,110.52 22.046,110.427L22.038,110.419L35.66,110.419C34.586,110.752 33.893,111.514 33.494,112.149L33.413,112.283L56.711,112.283L55.971,114.092L55.971,125.22L56.711,127.989L37.442,127.989C42.099,130.988 46.277,132.397 46.604,132.505L46.624,132.511L46.624,132.511C53.46,134.71 55.865,131.428 56.018,131.207L56.026,131.196L69.128,107.623L62.906,107.623C61.855,107.623 60.124,108.731 59.982,108.823L59.973,108.829L59.973,102.854C61.668,104.603 62.826,104.584 62.902,104.581L70.827,104.581L71.677,103.073C71.677,103.073 77.566,90.492 88.894,91.016ZM146.423,102.114C143.405,103.182 143.172,105.994 143.162,106.137L143.161,130.209L145.656,130.209L145.656,134.156C145.656,134.156 145.084,134.167 144.465,134.174L144.092,134.178C143.475,134.183 142.917,134.181 142.942,134.156C142.997,134.265 142.942,135.992 142.942,135.855C142.586,139.83 134.884,140.981 134.884,140.981C136.309,139.466 136.612,137.681 136.676,137.064L136.687,136.943C136.691,136.894 136.692,136.862 136.692,136.849L136.693,134.348L123.783,134.348C122.113,134.348 120.817,136.146 120.627,136.423L120.603,136.458L120.603,130.318L122.22,130.318L122.22,106.527C122.22,104.108 118.792,102.231 118.585,102.119L118.575,102.114L146.423,102.114ZM101.964,101.895C100.292,102.059 98.456,105.266 98.456,105.266L98.456,105.266L97.277,107.322C98.568,108.637 99.461,108.692 99.591,108.692L103.883,108.692L103.883,104.224C103.965,102.662 102.43,101.895 102.43,101.895L102.43,101.895L113.614,101.895C112.166,102.618 112.031,103.481 112.023,103.721L112.023,103.769C112.023,103.78 112.024,103.786 112.024,103.786L112.024,108.692L116.195,108.692C116.422,108.682 117.278,108.555 118.493,107.294L118.493,107.294L118.493,113.598C118.493,113.598 117.012,112.612 116.135,112.612L116.135,112.612L112.024,112.612L112.024,117.792L116.195,117.792C116.422,117.782 117.278,117.655 118.493,116.394L118.493,116.394L118.493,121.602C118.493,121.602 117.012,120.615 116.135,120.615L116.135,120.615L112.024,120.615L112.024,126.454L116.139,126.454C116.205,126.458 117.12,126.481 118.493,125.056L118.493,125.056L118.493,130.264C118.493,130.264 117.012,129.277 116.135,129.277L116.135,129.277L112.024,129.277L112.024,134.923L116.15,134.924C116.276,134.927 117.173,134.896 118.493,133.525L118.493,133.525L118.493,140.734C118.493,140.734 117.012,138.843 116.135,138.843L116.135,138.843L99.58,138.843C98.703,138.843 97.223,140.734 97.223,140.734L97.223,140.734L97.223,133.553C98.459,134.838 99.353,134.943 99.542,134.95L103.856,134.951L103.856,129.304L99.58,129.304C98.703,129.304 97.223,130.291 97.223,130.291L97.223,130.291L97.223,125.083C98.413,126.344 99.286,126.471 99.518,126.481L103.856,126.481L103.856,120.615L99.58,120.615C98.703,120.615 97.223,121.602 97.223,121.602L97.223,121.602L97.223,116.394C98.413,117.655 99.286,117.782 99.518,117.792L103.856,117.792L103.856,112.612L99.58,112.612C98.703,112.612 97.223,113.598 97.223,113.598L97.223,113.598L97.223,107.376L95.276,110.748L95.276,134.567C95.276,140.049 84.45,140.953 84.45,140.953C88.89,138.158 88.561,135.17 88.561,135.17L88.561,114.777L84.011,114.777C85.738,114.284 86.971,112.036 86.971,112.036L86.971,112.036L93.604,101.895ZM232.27,123.877L232.27,133.692C232.27,133.699 232.268,133.72 232.267,133.752L232.267,133.81C232.278,134.466 232.71,137.582 240,137.116C240,137.116 239.974,137.146 239.921,137.201L239.844,137.277C239.244,137.858 236.872,139.813 232.06,139.908L231.695,139.912L179.452,139.912L179.452,123.877L232.27,123.877ZM157.085,102.251L161.498,108.637L165.966,102.525L175.258,102.525C174.162,102.525 173.202,103.868 173.202,103.868L173.202,103.868L169.228,110.419L175.231,110.419C175.231,110.419 175.232,110.419 175.235,110.419L175.292,110.419C175.525,110.409 176.401,110.282 177.615,109.021L177.615,109.021L177.615,115.298C177.615,115.298 176.108,114.311 175.231,114.311L175.231,114.311L164.979,114.311L164.979,121.301L175.235,121.301C175.302,121.305 176.243,121.328 177.615,119.903L177.615,119.903L177.615,126.646C177.615,126.646 176.108,125.22 175.231,125.22L175.231,125.22L164.979,125.22L164.979,125.302L164.459,125.302C165.281,128.208 167.638,130.428 172.188,132.265C175.724,133.69 177.917,132.813 177.917,132.813L177.917,132.813L177.917,139.83C167.309,140.378 161.334,131.963 161.334,131.963C157.113,138.624 146.122,139.83 146.122,139.83L146.122,139.83L146.122,131.853C146.122,131.853 146.267,131.861 146.524,131.863L146.737,131.864C147.982,131.857 150.887,131.701 153.33,130.51C155.907,129.249 157.031,127.029 157.524,125.302L157.524,125.302L157.195,125.302L157.195,125.22L148.616,125.22C147.711,125.22 146.231,126.536 146.231,126.536L146.231,126.536L146.231,119.903C147.657,121.383 148.616,121.301 148.616,121.301L157.195,121.301L157.195,114.311L148.616,114.311C147.711,114.311 146.231,115.298 146.231,115.298L146.231,115.298L146.231,109.021C147.657,110.474 148.616,110.419 148.616,110.419L148.616,110.419L154.344,110.419L150.48,104.087C150.041,102.991 148.232,102.251 148.232,102.251L148.232,102.251L157.085,102.251ZM85.902,109.761C85.902,109.761 84.203,110.117 83.6,111.378C83.413,111.764 80.633,117.039 77.649,122.688L77.242,123.461C73.768,130.038 70.169,136.842 70.169,136.842L70.169,136.842L74.938,136.842C76.912,136.842 76.994,135.554 76.994,135.554L76.994,135.554L76.994,129.085L83.326,116.723L83.326,134.457C83.326,139.556 78.392,139.665 78.392,139.665L60.603,139.665L76.583,109.761ZM194.363,128.564L187.976,128.564L187.976,136.129L194.363,136.129L194.363,128.564ZM209.219,128.564L201.736,128.564L201.736,136.129L209.219,136.129L209.219,128.564ZM224.02,128.564L215.605,128.564L215.605,136.129L224.02,136.129L224.02,128.564ZM136.693,125.22L128.524,125.22L128.524,130.318L136.693,130.318L136.693,125.22ZM48.104,116.531L33.001,116.531L32.919,123.685L48.104,123.685L48.104,116.531ZM23.874,116.531L10.745,116.531L10.745,123.685L23.874,123.685L23.874,116.531ZM235.889,102.032C232.622,102.754 232.285,107.007 232.271,107.205L232.27,122.233L221.307,122.233C223.02,121.557 223.947,120.415 224.459,119.411L224.541,119.245L211.878,119.245L211.878,122.233L205.025,122.233L205.025,106.828C205.078,103.441 208.609,102.104 208.8,102.034L208.808,102.032L235.889,102.032ZM205.628,102.004C205.628,102.004 203.119,103.22 202.8,106.531L202.778,106.828L202.778,122.178L179.589,122.178L179.589,102.004L205.628,102.004ZM136.693,115.408L128.524,115.408L128.524,121.054L136.693,121.054L136.693,115.408ZM195.212,114.393L187.127,114.393L187.127,119.19L195.212,119.19L195.212,114.393ZM225.062,112.557L211.878,112.557L211.878,115.627L225.062,115.627L225.062,112.557ZM136.693,106.499L128.524,106.499L128.524,111.817L136.693,111.817L136.693,106.499ZM18.968,101.538C17.296,102.059 16.967,103.539 16.912,104.142L16.912,104.142L41.581,104.142L41.581,104.032C41.444,102.251 39.717,101.566 39.717,101.566L39.717,101.566L51.092,101.566C49.31,102.251 49.064,103.621 49.036,104.17L49.036,104.17L57.835,104.17L57.835,107.815L49.036,107.815L49.036,111.022L41.581,111.022L41.581,107.815L16.885,107.815L16.885,111.022L9.429,111.022L9.429,107.76L1.48,107.76L1.48,104.115L9.429,104.115L9.429,104.005C9.292,102.032 7.565,101.538 7.565,101.538L7.565,101.538ZM195.212,104.773L187.127,104.773L187.127,110.172L195.212,110.172L195.212,104.773ZM225.062,106.088L211.878,106.088L211.878,108.939L225.062,108.939L225.062,106.088Z" fill="#000" stroke="#00000000" stroke-width="1.0" stroke-miterlimit=""/>
	</svg>
