<?xml version="1.0" encoding="utf-8"?>
	<svg version="1.1" xmlns="http://www.w3.org/2000/svg" xmlns:xlink="http://www.w3.org/1999/xlink" x="0px" y="0px" width="240.0" height="240.0" xml:space="preserve">
		<path d="M152.418,97.604C147.891,93.317 144.979,87.602 144.172,81.42L139.972,49.267L111.496,64.759C106.019,67.744 99.681,68.759 93.543,67.605L61.667,61.667L67.62,93.543C68.759,99.681 67.744,106.004 64.759,111.496L49.267,139.957L81.42,144.172C87.604,144.987 93.312,147.895 97.589,152.418L119.896,175.955L133.834,146.679C136.51,141.049 141.033,136.526 146.664,133.834L175.955,119.896L152.418,97.604L152.418,97.604ZM152.679,155.633L129.588,204.154C128.699,206.012 126.954,207.315 124.92,207.637C122.886,207.96 120.823,207.262 119.403,205.77L82.451,166.771C81.463,165.733 80.149,165.065 78.728,164.879L25.453,157.894C23.406,157.628 21.622,156.369 20.684,154.53C19.746,152.691 19.774,150.508 20.76,148.695L46.452,101.512C47.136,100.247 47.364,98.786 47.098,97.373L37.252,44.56C36.872,42.528 37.518,40.44 38.979,38.979C40.44,37.518 42.528,36.872 44.56,37.252L97.373,47.098C98.786,47.364 100.247,47.136 101.512,46.452L148.695,20.76C150.508,19.774 152.691,19.746 154.53,20.684C156.369,21.622 157.628,23.406 157.894,25.453L164.863,78.728C165.049,80.149 165.717,81.463 166.756,82.451L205.754,119.403C207.246,120.823 207.944,122.886 207.622,124.92C207.299,126.954 205.997,128.699 204.139,129.588L155.633,152.664C154.337,153.285 153.294,154.333 152.679,155.633ZM160.987,175.74L175.74,160.987L220,205.247L205.231,220L160.987,175.74L160.987,175.74Z" fill="#000" stroke="#00000000" stroke-width="1.0" stroke-miterlimit=""/>
	</svg>
