<?xml version="1.0" encoding="utf-8"?>
	<svg version="1.1" xmlns="http://www.w3.org/2000/svg" xmlns:xlink="http://www.w3.org/1999/xlink" x="0px" y="0px" width="240.0" height="240.0" xml:space="preserve">
		<path d="M120,20C64.772,20 20,64.769 20,119.996C20,175.222 64.772,219.992 120,219.992C175.228,219.992 220,175.223 220,119.996C220,64.769 175.228,20 120,20L120,20ZM120,208.188C71.292,208.188 31.805,168.703 31.805,119.996C31.805,71.288 71.291,31.804 120,31.804C168.709,31.804 208.195,71.288 208.195,119.996C208.195,168.702 168.709,208.188 120,208.188ZM103.757,116.231C107.358,114.806 110.097,112.793 111.902,110.247C113.778,107.599 114.729,104.446 114.729,100.874C114.729,95.278 112.653,90.463 108.562,86.562C104.471,82.664 98.998,80.688 92.295,80.688C85.626,80.688 80.206,82.62 76.185,86.432C72.162,90.244 70.122,95.016 70.122,100.612C70.122,104.324 71.082,107.558 72.975,110.221C74.79,112.776 77.575,114.792 81.254,116.218C76.803,117.473 73.309,119.76 70.861,123.018C68.324,126.394 67.038,130.639 67.038,135.636C67.038,142.343 69.394,148.02 74.041,152.508C78.685,156.996 84.879,159.272 92.452,159.272C100.023,159.272 106.217,157.005 110.862,152.535C115.509,148.062 117.865,142.465 117.865,135.898C117.865,131.145 116.615,126.998 114.148,123.57C111.758,120.247 108.264,117.78 103.757,116.231L103.757,116.231ZM80.069,100.298C80.069,97.152 81.249,94.413 83.574,92.156C85.901,89.898 88.871,88.753 92.399,88.753C95.893,88.753 98.853,89.924 101.198,92.234C103.541,94.543 104.73,97.433 104.73,100.821C104.73,104.071 103.576,106.855 101.302,109.094C99.027,111.335 96.067,112.471 92.504,112.471C88.836,112.471 85.814,111.326 83.522,109.068C81.232,106.811 80.069,103.86 80.069,100.298L80.069,100.298ZM103.575,146.915C100.695,149.763 96.987,151.207 92.556,151.207C89.704,151.207 87.004,150.519 84.532,149.162C82.064,147.809 80.178,145.871 78.928,143.403C77.673,140.93 77.038,138.334 77.038,135.688C77.038,131.362 78.49,127.708 81.355,124.827C84.219,121.945 87.882,120.484 92.243,120.484C96.706,120.484 100.476,121.963 103.445,124.88C106.413,127.797 107.918,131.539 107.918,136.002C107.918,140.397 106.457,144.068 103.575,146.915L103.575,146.915ZM159.018,116.231C162.619,114.806 165.358,112.793 167.162,110.247C169.038,107.599 169.989,104.446 169.989,100.874C169.989,95.278 167.914,90.463 163.822,86.562C159.732,82.664 154.258,80.688 147.556,80.688C140.886,80.688 135.467,82.62 131.446,86.432C127.423,90.244 125.383,95.016 125.383,100.612C125.383,104.324 126.343,107.558 128.236,110.221C130.051,112.776 132.835,114.792 136.515,116.218C132.064,117.473 128.57,119.76 126.121,123.018C123.585,126.394 122.298,130.639 122.298,135.636C122.298,142.343 124.655,148.02 129.301,152.508C133.946,156.996 140.14,159.272 147.712,159.272C155.283,159.272 161.478,157.005 166.123,152.535C170.77,148.062 173.126,142.465 173.126,135.898C173.126,131.145 171.875,126.998 169.409,123.57C167.02,120.247 163.525,117.78 159.018,116.231L159.018,116.231ZM135.33,100.298C135.33,97.152 136.509,94.413 138.835,92.156C141.162,89.898 144.131,88.753 147.66,88.753C151.153,88.753 154.114,89.924 156.458,92.234C158.802,94.543 159.99,97.433 159.99,100.821C159.99,104.071 158.837,106.855 156.563,109.094C154.288,111.335 151.327,112.471 147.765,112.471C144.097,112.471 141.075,111.326 138.783,109.068C136.492,106.811 135.33,103.86 135.33,100.298L135.33,100.298ZM158.837,146.915C155.955,149.763 152.248,151.207 147.817,151.207C144.965,151.207 142.265,150.519 139.793,149.162C137.325,147.809 135.439,145.871 134.189,143.403C132.934,140.93 132.298,138.334 132.298,135.688C132.298,131.362 133.751,127.708 136.616,124.827C139.479,121.945 143.143,120.484 147.503,120.484C151.967,120.484 155.736,121.963 158.706,124.88C161.674,127.797 163.179,131.539 163.179,136.002C163.179,140.397 161.718,144.068 158.837,146.915L158.837,146.915Z" fill="#000" stroke="#00000000" stroke-width="1.0" stroke-miterlimit=""/>
	</svg>
