<?xml version="1.0" encoding="utf-8"?>
	<svg version="1.1" xmlns="http://www.w3.org/2000/svg" xmlns:xlink="http://www.w3.org/1999/xlink" x="0px" y="0px" width="240.0" height="240.0" xml:space="preserve">
		<path d="M57.076,179.715C77.665,172.213 96.898,167.498 116.717,165.498C150.528,162.085 183.66,163.871 214.791,179.363C223.751,183.822 231.917,189.42 237.76,197.819C239.673,200.57 241.401,203.489 238.297,206.459C235.573,209.066 232.839,207.842 230.234,206.001C205.832,188.757 178.954,187.94 151.119,194.36C132.433,198.672 115.735,207.155 101.004,219.477C96.939,222.881 92.73,226.089 86.913,223.718C81.653,221.575 80.731,218.221 84.593,214.073C89.712,208.576 95.899,204.421 102.576,201.016C124.389,189.891 147.595,184.377 171.971,183.602C143.587,182.406 116.94,188.714 92.044,202.469C83.551,207.162 75.67,212.739 68.26,219.028C63.847,222.773 59.028,225.999 52.719,223.924C45.341,221.496 44,216.672 49.55,211.253C55.969,204.987 63.378,199.949 71.376,195.873C97.462,182.582 125.224,175.961 154.438,175.223C156.398,175.174 158.362,175.217 160.207,174.678C112.223,173.585 69.009,187.1 31.408,217.502C27.738,220.47 24.195,223.561 19.862,225.58C14.108,228.264 8.814,227.439 3.754,223.795C-0.513,220.72 -1.294,217.095 2.193,213.082C25.018,186.828 40.09,155.56 58.264,126.31C75.054,99.286 92.133,72.532 115.074,50.146C128.495,37.05 143.48,26.118 160.818,18.688C171.98,13.903 183.531,11.557 195.665,13.943C198.012,14.405 201.439,14.687 201.591,17.485C201.778,20.897 198.121,20.214 195.906,20.659C171.07,25.641 152.469,40.628 135.878,58.517C114.611,81.448 99.621,108.719 83.764,135.368C75.294,149.603 66.688,163.755 57.076,179.715" fill="#000" stroke="#00000000" stroke-width="1.0" stroke-miterlimit=""/>
	</svg>
