<?xml version="1.0" encoding="utf-8"?>
	<svg version="1.1" xmlns="http://www.w3.org/2000/svg" xmlns:xlink="http://www.w3.org/1999/xlink" x="0px" y="0px" width="240.0" height="240.0" xml:space="preserve">
		<path d="M186.244,134.873C185.692,146.897 185.03,159.032 184.479,171.056C179.597,174.641 174.723,178.227 169.852,181.812L140.639,203.323L140.639,203.323L126.012,214.079C104.28,201.944 82.659,189.81 60.927,177.675L60.927,177.675L90.712,161.128C93.745,162.976 96.779,164.817 99.812,166.654L118.014,177.665L118.014,177.665L127.115,183.191C146.862,167.085 166.498,150.979 186.244,134.873ZM124.909,25L220,96.042L126.012,172.601L93.998,151.48C80.179,158.223 66.361,164.862 52.543,171.608C52.874,155.612 53.315,139.506 53.646,123.511L53.616,124.838L20,102.661L124.909,25ZM110.899,74.2L112.333,134.542L122.592,126.996L143.111,111.862C146.531,109.342 149.95,106.826 153.37,104.316C139.25,94.277 125.13,84.239 110.899,74.2Z" fill="#000" stroke="#00000000" stroke-width="1.0" stroke-miterlimit=""/>
	</svg>
