<?xml version="1.0" encoding="utf-8"?>
	<svg version="1.1" xmlns="http://www.w3.org/2000/svg" xmlns:xlink="http://www.w3.org/1999/xlink" x="0px" y="0px" width="240.0" height="240.0" xml:space="preserve">
		<path d="M199.218,128.602C199.201,128.767 199.203,128.907 199.22,129.027L199.242,129.14C199.285,129.316 199.364,129.443 199.459,129.545C199.576,129.672 199.718,129.761 199.848,129.858C204.772,133.553 209.271,137.721 213.458,142.222C215.483,144.398 217.39,146.685 219.35,148.922C218.403,155.141 216.615,161.089 213.63,166.648C212.892,166.115 212.104,165.64 211.421,165.045C205.106,159.541 197.836,155.908 189.677,154.131C189.307,154.051 188.934,153.958 188.554,153.867L188.268,153.799C188.246,153.794 188.224,153.789 188.202,153.784C188.053,153.749 187.902,153.715 187.75,153.684C187.143,153.556 186.515,153.458 185.855,153.444L185.533,153.444C184.994,153.455 184.432,153.526 183.843,153.685C186.447,156.564 188.32,159.559 189.903,162.736C193.744,170.44 195.736,178.725 197.502,187.078C187.785,195.51 176.477,201.03 164.202,204.414C132.581,213.134 101.18,212.637 70.164,201.392C69.311,201.082 68.501,200.656 67.67,200.284L67.675,199.551C67.684,198.528 67.7,197.507 67.726,196.488C67.913,189.219 68.589,182.037 70.405,174.996C71.742,169.815 73.696,164.71 76.527,159.703L76.527,159.703L76.527,159.703C74.374,160.249 72.317,160.896 70.349,161.641L69.762,161.867C61.001,165.303 54.047,170.706 48.407,177.727C46.516,180.081 44.773,182.617 43.159,185.321C38.728,181.62 34.854,177.418 31.71,172.561L31.829,172.402C31.994,172.193 32.172,171.991 32.271,171.755C36.385,161.857 41.953,152.86 48.987,144.776C50.852,142.634 52.768,140.536 54.939,138.104L54.939,138.104C44.973,139.093 35.858,141.584 27.369,145.787C25.434,146.745 23.531,147.793 21.658,148.931L21.658,148.931C19.304,138.983 19.648,128.997 21.492,119.049C24.075,105.118 29.899,92.575 38.195,81.134C38.529,80.673 38.882,80.221 39.239,79.771L39.666,79.231C41.09,77.428 42.454,75.586 42.729,73.133C44.405,68.637 45.973,64.098 47.783,59.656C50.854,52.115 53.947,44.571 59.144,38.137C60.084,36.973 61.065,36.167 62.654,36.124C66.238,36.028 69.776,36.437 73.32,36.867C80.439,37.732 87.287,39.676 94.039,42.011C98.832,41.204 103.524,39.883 108.377,39.36C114.387,38.711 120.396,38.272 126.426,38.912C127.6,39.037 128.511,38.8 129.352,38.054C133.197,37.074 136.752,35.247 140.621,34.289C144.412,33.35 147.758,33.741 151.403,35.402C163.404,40.873 172.799,49.532 181.578,59.032C182.772,60.324 183.708,61.863 185.225,62.829L185.537,63.013L185.516,63.101C185.427,63.57 185.685,63.827 186.146,63.959C198.243,76.114 208.689,89.392 214.609,105.754C217.499,113.742 219.732,121.872 220,130.431L219.102,130.271C216.108,129.744 213.11,129.269 210.102,128.945L209.199,128.852C205.888,128.529 202.564,128.402 199.218,128.602ZM165.613,156.388C164.958,158.248 163.513,159.354 162.005,160.367C159.374,162.134 156.516,163.476 153.506,164.474C138.424,169.474 123.005,170.698 107.34,168.258C102.605,167.521 97.816,166.428 94.117,162.988C92.513,161.495 91.234,162.151 90.003,163.25C88.497,164.595 89.695,165.73 90.647,166.568C91.971,167.735 92.546,169.11 92.939,170.797C94.22,176.286 96.694,181.229 100.139,185.708C100.974,186.793 101.639,186.994 102.791,186.257C107.023,183.546 111.018,180.577 113.579,176.125C114.4,174.696 115.403,174.281 117.002,174.346C127.244,174.764 137.403,174.054 147.383,171.597C148.583,171.302 149.215,171.719 149.994,172.43C153.719,175.828 157.886,178.442 162.783,179.904C164.534,180.427 165.166,180.005 165.981,178.444C169.381,171.933 168.153,164.473 170.352,157.727C170.5,156.298 169.728,155.352 168.429,154.973C167.162,154.601 166.063,155.108 165.613,156.388ZM114.405,54.038C99.135,56.313 85.504,62.24 74.041,72.578C59.289,85.88 51.743,102.387 52.674,122.544C53.217,134.298 59.994,143.695 71.156,147.49C78.173,149.875 85.437,150.303 92.5,150.409C101.472,150.285 110.146,149.453 118.827,148.793C130.725,147.889 142.621,146.941 154.505,145.874C163.267,145.087 171.987,143.906 180.306,140.86C190.146,137.258 197.492,131.205 199.737,120.359C201.231,113.139 200.069,106.109 197.759,99.307C191.679,81.405 179.099,69.31 162.389,61.393C147.205,54.199 131.178,51.539 114.405,54.038ZM118.153,76.409C126.127,77.533 133.152,81.132 139.989,85.118C144.159,87.549 148.142,90.279 151.452,93.848C154.887,97.55 155.211,99.924 151.963,103.679C143.335,113.654 132.603,120.569 119.942,124.275C115.171,125.672 112.823,124.29 110.917,119.651C108.117,112.836 107.722,105.613 107.566,99.232C107.598,92.78 107.912,87.225 109.623,81.858C111.176,76.986 113.137,75.703 118.153,76.409Z" fill="#000" stroke="#00000000" stroke-width="1.0" stroke-miterlimit=""/>
		<path d="M94.039,42.011C87.287,39.676 80.438,37.732 73.32,36.868C69.776,36.437 66.238,36.028 62.654,36.124C61.065,36.166 60.084,36.972 59.144,38.136C53.947,44.571 50.854,52.115 47.783,59.656C45.973,64.097 44.405,68.637 42.729,73.132C41.597,72.323 42.65,71.451 42.759,70.687C44.725,56.929 49.72,44.262 56.74,32.339C57.375,31.26 57.89,30.346 59.57,30.577C71.112,32.164 82.178,35.201 92.417,40.9C92.987,41.217 93.499,41.639 94.039,42.011" fill="#000" stroke="#00000000" stroke-width="1.0" stroke-miterlimit=""/>
		<path d="M185.56,63.027C183.841,62.084 182.858,60.416 181.578,59.033C172.799,49.532 163.405,40.873 151.404,35.402C147.758,33.74 144.412,33.35 140.622,34.289C136.752,35.247 133.198,37.074 129.352,38.054C133.305,33.871 138.061,30.99 143.539,29.262C144.865,28.843 146.107,28.957 147.419,29.387C156.768,32.447 164.551,37.964 171.542,44.716C176.635,49.633 180.976,55.171 184.799,61.115C185.157,61.671 185.947,62.142 185.56,63.027" fill="#000" stroke="#00000000" stroke-width="1.0" stroke-miterlimit=""/>
	</svg>
