<?xml version="1.0" encoding="utf-8"?>
	<svg version="1.1" xmlns="http://www.w3.org/2000/svg" xmlns:xlink="http://www.w3.org/1999/xlink" x="0px" y="0px" width="240.0" height="240.0" xml:space="preserve">
		<path d="M77.145,62.86C69.294,62.952 62.952,69.294 62.86,77.145L62.86,162.855C62.96,170.703 69.297,177.04 77.145,177.14L162.855,177.14C170.703,177.04 177.04,170.703 177.14,162.855L177.14,77.145C177.048,69.294 170.706,62.952 162.855,62.86L77.145,62.86ZM77.145,48.575L162.855,48.575C170.898,48.718 177.626,51.518 183.054,56.946C188.482,62.374 191.268,69.117 191.425,77.145L191.425,162.855C191.282,170.898 188.482,177.626 183.054,183.054C177.626,188.482 170.883,191.268 162.855,191.425L77.145,191.425C69.102,191.282 62.374,188.482 56.946,183.054C51.518,177.626 48.732,170.883 48.575,162.855L48.575,77.145C48.718,69.102 51.518,62.374 56.946,56.946C62.374,51.518 69.117,48.732 77.145,48.575ZM120,20.005C122.086,20.005 123.8,20.676 125.143,22.005C126.471,23.347 127.143,25.062 127.143,27.147L127.143,55.717L112.857,55.717L112.857,27.147C112.857,25.062 113.529,23.347 114.857,22.005C116.223,20.658 118.083,19.934 120,20.005ZM155.713,20.005C157.798,20.005 159.512,20.676 160.855,22.005C162.184,23.347 162.855,25.062 162.855,27.147L162.855,55.717L148.57,55.717L148.57,27.147C148.57,25.062 149.241,23.347 150.57,22.005C151.935,20.658 153.796,19.934 155.713,20.005L155.713,20.005ZM84.287,20.005C86.373,20.005 88.087,20.676 89.43,22.005C90.759,23.347 91.43,25.062 91.43,27.147L91.43,55.717L77.145,55.717L77.145,27.147C77.145,25.062 77.816,23.347 79.145,22.005C80.51,20.658 82.371,19.934 84.287,20.005L84.287,20.005ZM120,219.995C118.083,220.066 116.223,219.342 114.857,217.995C113.51,216.63 112.787,214.769 112.857,212.853L112.857,184.283L127.143,184.283L127.143,212.853C127.213,214.769 126.49,216.63 125.143,217.995C123.777,219.342 121.917,220.066 120,219.995ZM155.713,219.995C153.796,220.066 151.935,219.342 150.57,217.995C149.223,216.63 148.499,214.769 148.57,212.853L148.57,184.283L162.855,184.283L162.855,212.853C162.926,214.769 162.202,216.63 160.855,217.995C159.49,219.342 157.629,220.066 155.713,219.995L155.713,219.995ZM84.287,219.995C82.371,220.066 80.51,219.342 79.145,217.995C77.798,216.63 77.074,214.769 77.145,212.853L77.145,184.283L91.43,184.283L91.43,212.853C91.501,214.769 90.777,216.63 89.43,217.995C88.065,219.342 86.204,220.066 84.287,219.995L84.287,219.995ZM20.005,120C20.005,117.914 20.676,116.2 22.005,114.857C23.37,113.51 25.231,112.787 27.147,112.857L55.717,112.857L55.717,127.143L27.147,127.143C25.231,127.213 23.37,126.49 22.005,125.143C20.658,123.777 19.934,121.917 20.005,120ZM20.005,84.287C20.005,82.202 20.676,80.488 22.005,79.145C23.37,77.798 25.231,77.074 27.147,77.145L55.717,77.145L55.717,91.43L27.147,91.43C25.231,91.501 23.37,90.777 22.005,89.43C20.658,88.065 19.934,86.204 20.005,84.287L20.005,84.287ZM20.005,155.713C20.005,153.627 20.676,151.913 22.005,150.57C23.37,149.223 25.231,148.499 27.147,148.57L55.717,148.57L55.717,162.855L27.147,162.855C25.231,162.926 23.37,162.202 22.005,160.855C20.658,159.49 19.934,157.629 20.005,155.713ZM219.995,120C220.066,121.917 219.342,123.777 217.995,125.143C216.63,126.49 214.769,127.213 212.853,127.143L184.283,127.143L184.283,112.857L212.853,112.857C214.938,112.857 216.653,113.529 217.995,114.857C219.324,116.2 219.995,117.914 219.995,120L219.995,120ZM219.995,84.287C220.066,86.204 219.342,88.065 217.995,89.43C216.63,90.777 214.769,91.501 212.853,91.43L184.283,91.43L184.283,77.145L212.853,77.145C214.938,77.145 216.653,77.816 217.995,79.145C219.324,80.488 219.995,82.202 219.995,84.287L219.995,84.287ZM219.995,155.713C220.066,157.629 219.342,159.49 217.995,160.855C216.63,162.202 214.769,162.926 212.853,162.855L184.283,162.855L184.283,148.57L212.853,148.57C214.938,148.57 216.653,149.241 217.995,150.57C219.324,151.913 219.995,153.627 219.995,155.713L219.995,155.713Z" fill="#000" stroke="#00000000" stroke-width="1.0" stroke-miterlimit=""/>
	</svg>
