<?xml version="1.0" encoding="utf-8"?>
	<svg version="1.1" xmlns="http://www.w3.org/2000/svg" xmlns:xlink="http://www.w3.org/1999/xlink" x="0px" y="0px" width="240.0" height="240.0" xml:space="preserve">
		<path d="M97.5,105C97.5,117.427 107.574,127.5 120,127.5C132.427,127.5 142.5,117.427 142.5,105C142.5,96.962 138.212,89.534 131.25,85.514C124.289,81.495 115.712,81.495 108.75,85.514C101.789,89.534 97.5,96.962 97.5,105L97.5,105Z" fill="#000" stroke="#00000000" stroke-width="1.0" stroke-miterlimit=""/>
		<path d="M194.963,30L45.037,30C36.728,30 30,36.732 30,45.037L30,194.963C30,203.273 36.732,210 45.037,210L194.963,210C203.272,210 210,203.268 210,194.963L210,45.037C210,36.728 203.268,30 194.963,30ZM120,172.5C120,172.5 82.5,135 82.5,105C82.5,84.289 99.289,67.5 120,67.5C140.711,67.5 157.5,84.289 157.5,105C157.5,135 120,172.5 120,172.5Z" fill="#000" stroke="#00000000" stroke-width="1.0" stroke-miterlimit=""/>
	</svg>
