<?xml version="1.0" encoding="utf-8"?>
	<svg version="1.1" xmlns="http://www.w3.org/2000/svg" xmlns:xlink="http://www.w3.org/1999/xlink" x="0px" y="0px" width="240.0" height="240.0" xml:space="preserve">
		<path d="M171.686,148.74C184.228,148.894 195.481,160.093 195.491,172.431C195.501,184.822 184.026,196.171 171.653,196.008C158.786,195.838 147.972,185.05 147.99,172.401C148.008,159.813 159.249,148.588 171.686,148.74ZM82.924,88.322C87.334,91.194 91.391,94.607 95.637,97.737C99.14,100.321 102.924,102.183 107.393,102.456C111.685,102.717 114.798,100.925 117.086,97.415C118.911,94.614 120.048,91.528 120.848,88.314C121.564,85.431 123.439,84.031 126.306,84.014C133.783,83.969 141.26,83.905 148.733,84.043C152.381,84.11 154.008,86.003 153.352,89.675C150.747,104.253 146.22,118.051 135.997,129.297C124.717,141.704 106.081,143.788 91.096,134.207C87.219,131.728 83.708,128.683 79.986,125.956C79.781,125.806 79.575,125.656 79.37,125.507L78.751,125.063C74.105,121.754 69.244,119.016 63.072,120.239C57.279,121.388 53.511,125.151 52.335,130.908C52.138,131.877 51.967,132.853 51.851,133.834C51.491,136.868 49.758,138.282 46.752,138.274C43.014,138.263 39.277,138.271 35.538,138.271L35.538,138.255C31.8,138.255 28.061,138.309 24.325,138.237C21.568,138.183 19.777,136.658 20.022,133.91C21.369,118.851 24.931,104.568 35.981,93.362C48.481,80.685 67.988,78.595 82.924,88.322ZM212.518,43.006C219.291,43.03 221.144,45.343 219.363,51.775C212.563,76.349 205.756,100.922 198.872,125.472C195.471,137.603 194.744,138.261 182.515,138.282L181.752,138.283L181.752,138.283C177.245,138.283 172.738,138.31 168.23,138.273C162.722,138.227 160.977,136.117 162.047,130.51C163.882,120.903 165.855,111.324 167.757,101.729C171.027,85.238 174.274,68.742 177.556,52.253C178.842,45.796 182.177,43.082 188.773,43.005L188.938,43.004L188.938,43.004L200.975,43.004L200.975,43.004C204.823,43.004 208.671,42.993 212.518,43.006Z" fill="#000" stroke="#00000000" stroke-width="1.0" stroke-miterlimit=""/>
	</svg>
