<?xml version="1.0" encoding="utf-8"?>
	<svg version="1.1" xmlns="http://www.w3.org/2000/svg" xmlns:xlink="http://www.w3.org/1999/xlink" x="0px" y="0px" width="240.0" height="240.0" xml:space="preserve">
		<path d="M125.651,20.037C126.658,20.363 127.696,20.488 128.737,20.588L129.779,20.686C130.299,20.738 130.818,20.799 131.333,20.89C143.761,23.092 154.876,28.192 164.716,36.075C176.811,45.764 185.28,58.042 190.632,72.528C193.018,78.988 194.502,85.673 195.304,92.496C196.241,100.471 196.159,108.39 193.653,116.155C190.429,126.148 184.842,134.707 177.937,142.486C175.9,144.78 173.789,147.008 171.654,149.329C172.142,149.487 172.445,149.603 172.757,149.683C184.326,152.612 191.744,159.821 194.913,171.317C195.223,172.443 195.942,172.558 196.708,172.727C203.874,174.303 208.426,178.638 210.664,185.593C213.293,193.768 216.04,201.906 218.728,210.063C219.031,210.983 219.379,211.907 219.532,212.856C220.148,216.691 217.298,219.582 212.948,219.582C151.637,219.58 90.326,219.553 29.014,219.623C25.279,219.627 22.091,219.139 20.037,215.676L20.037,212.558C20.158,212.341 20.319,212.135 20.395,211.902C23.302,203.038 26.19,194.168 29.105,185.307C31.34,178.515 35.928,174.27 42.957,172.823C44.202,172.567 44.623,171.934 44.921,170.842C47.331,161.983 52.768,155.661 61.031,151.714C63.249,150.653 65.651,150.143 68.15,149.379C67.769,148.954 67.527,148.666 67.266,148.396C63.032,143.998 58.896,139.519 55.391,134.497C50.179,127.03 46.087,119.064 44.562,109.985C42.703,98.916 44.367,88.082 47.445,77.497C51.616,63.151 59.094,50.671 70.035,40.391C80.179,30.862 91.959,24.394 105.65,21.499C108.282,20.943 111.007,20.932 113.569,20.037L125.651,20.037ZM174.075,84.828C173.418,74.444 165.375,66.901 155.283,67.136C143.016,67.422 130.737,67.177 118.463,67.17L118.463,67.17L101.22,67.158C95.473,67.156 89.725,67.16 83.978,67.177C75.424,67.204 68.978,71.788 66.455,79.686C65.479,82.74 65.354,85.928 65.315,89.1L65.315,89.1L65.303,90.288L65.297,90.881C65.122,107.445 68.674,123.184 75.922,138.097C84.664,156.086 98.206,169.775 114.397,181.223C114.257,180.093 114.011,179.009 114.006,177.924C113.973,170.326 113.952,162.727 114.006,155.129C114.032,151.445 116.553,149.035 120.174,149.029C123.324,149.023 125.658,151.678 125.662,155.299C125.67,162.508 125.656,169.717 125.672,176.925C125.675,178.291 125.659,179.645 125.221,180.956C125.306,181.052 125.387,181.15 125.464,181.252C128.466,178.875 131.475,176.507 134.469,174.12C148.975,162.56 159.92,148.301 166.826,131.053C172.767,116.216 175.087,100.834 174.075,84.828ZM138.104,116.949C139.917,113.715 143.481,113.011 146.306,114.805C149.142,116.606 149.86,120.012 148.071,123.17C144.638,129.231 138.395,132.979 131.678,133.013C127.863,132.791 124.232,131.951 121.145,129.567C120.102,128.761 119.385,128.785 118.28,129.556C109.12,135.952 96.115,132.497 91.268,122.448C89.954,119.725 90.825,116.56 93.336,114.92C95.833,113.29 99.043,113.867 101,116.3C101.162,116.502 101.333,116.708 101.445,116.938C103.988,122.117 111.941,122.346 114.811,116.946C116.606,113.568 122.579,112.624 124.95,116.993C127.676,122.017 135.297,121.956 138.104,116.949ZM131.694,90.574C133.638,90.529 135.584,90.566 137.529,90.566C139.344,90.565 141.161,90.532 142.975,90.573C146.465,90.652 149.004,93.102 149.035,96.369C149.065,99.644 146.545,102.203 143.086,102.262C139.261,102.327 135.434,102.327 131.61,102.263C128.131,102.204 125.627,99.672 125.65,96.383C125.673,93.106 128.2,90.653 131.694,90.574ZM96.59,90.624C100.353,90.556 104.119,90.561 107.883,90.622C111.39,90.678 113.925,93.181 113.914,96.441C113.902,99.717 111.385,102.144 107.851,102.229C105.97,102.276 104.087,102.238 102.204,102.238C100.322,102.235 98.439,102.282 96.558,102.225C93.157,102.121 90.672,99.696 90.621,96.506C90.569,93.259 93.112,90.688 96.59,90.624Z" fill="#000" stroke="#00000000" stroke-width="1.0" stroke-miterlimit=""/>
	</svg>
