<?xml version="1.0" encoding="utf-8"?>
	<svg version="1.1" xmlns="http://www.w3.org/2000/svg" xmlns:xlink="http://www.w3.org/1999/xlink" x="0px" y="0px" width="240.0" height="240.0" xml:space="preserve">
		<path d="M89.836,36.154C109.833,36.005 129.835,35.881 149.829,36.196C159.381,36.346 166.397,41.41 170.942,49.796C172.139,52.003 173.206,54.281 174.326,56.529C175.945,59.778 178.608,61.436 182.195,61.551C184.897,61.638 187.604,61.592 190.309,61.6C207.215,61.643 219.506,73.951 219.558,90.899C219.574,95.923 219.555,100.947 219.586,105.97C219.725,128.089 219.928,150.206 220,172.324C220.033,182.943 216.132,191.735 207.196,197.893C201.846,201.579 195.791,202.994 189.363,202.995C166.08,203 142.796,202.997 119.513,202.997C96.133,202.996 72.753,203.038 49.374,202.979C36.513,202.946 25.75,195.397 21.464,183.636C20.459,180.88 20.009,178.046 20.01,175.113C20.022,146.517 19.965,117.92 20.039,89.323C20.077,74.514 32.492,62.012 47.337,61.623C50.234,61.547 53.135,61.534 56.031,61.612C60.574,61.733 63.741,59.871 65.721,55.686C67.904,51.075 69.964,46.378 73.878,42.799C78.43,38.636 83.747,36.199 89.836,36.154ZM120.752,63.706L119.937,63.712C117.719,63.814 115.486,63.78 113.287,64.039C79.04,68.094 55.458,97.944 59.416,132.184C62.859,161.98 88.934,185.411 118.899,185.634C145.584,185.834 169.264,168.819 177.645,143.475C181.554,131.651 181.775,119.783 178.246,107.849C177.957,106.87 177.785,105.601 176.508,105.409C175.392,105.242 174.875,106.296 174.28,107.021C171.033,110.977 167.895,115.027 164.543,118.892C162.858,120.837 162.121,122.852 162.104,125.435C161.947,151.596 138.65,170.205 115.021,167.096C98.472,164.918 86.36,156.18 80.37,140.434C74.08,123.897 77.048,108.568 89.129,95.558C98.936,84.999 111.444,81.111 125.694,82.783C127.682,83.016 129.477,83.189 130.928,81.346C133.735,77.781 136.698,74.338 139.521,70.785C141.471,68.331 141.228,67.433 138.201,66.518C132.258,64.722 126.189,63.612 119.937,63.712ZM156.609,69.88C155.098,67.98 153.91,68.187 152.482,69.97C147.231,76.529 141.964,83.078 136.595,89.541C135.156,91.274 135.093,92.581 136.538,94.334C141.881,100.82 147.144,107.373 152.365,113.957C153.858,115.839 155.059,116.136 156.683,114.099C161.983,107.453 167.367,100.876 172.715,94.27C173.26,93.598 173.883,92.96 173.832,91.688C173.572,91.27 173.233,90.575 172.761,89.987C167.384,83.279 161.961,76.607 156.609,69.88Z" fill="#000" stroke="#00000000" stroke-width="1.0" stroke-miterlimit=""/>
	</svg>
