<?xml version="1.0" encoding="utf-8"?>
	<svg version="1.1" xmlns="http://www.w3.org/2000/svg" xmlns:xlink="http://www.w3.org/1999/xlink" x="0px" y="0px" width="240.0" height="240.0" xml:space="preserve">
		<path d="M194.851,67.211C194.174,67.606 194.344,68.113 194.569,68.789C196.541,73.86 197.95,79.101 198.851,84.454C199.866,90.708 199.866,96.907 199.359,103.218C198.795,110.43 197.048,117.305 194.4,124.066C188.709,138.661 179.411,150.663 167.465,160.693C157.83,168.751 147.124,175.118 135.46,179.851C134.22,180.358 133.826,180.922 133.882,182.274C134.615,192.586 132.304,202.221 127.064,211.124C124.81,214.9 122.162,218.281 119.006,221.38C118.105,222.281 117.147,222.788 115.851,222.338C114.555,221.887 113.935,220.985 113.709,219.633C112.582,211.8 109.934,204.532 105.426,197.939C100.242,190.445 93.537,184.81 85.31,180.978C79.562,178.273 73.477,176.752 67.11,176.414C66.771,176.414 66.433,176.358 66.095,176.245C65.025,176.019 64.405,175.4 64.348,174.273C64.292,173.146 64.856,172.47 65.87,172.131C68.8,171.23 71.73,170.61 74.717,170.103C76.745,169.765 78.774,169.483 80.915,168.976C80.408,168.751 79.844,168.525 79.337,168.3C67.504,162.834 58.207,154.72 52.628,142.774C49.304,135.618 48.177,128.18 51.163,120.573C51.163,120.517 51.163,120.404 51.107,120.291C48.12,120.066 45.134,120.291 42.147,120.46C36.231,120.855 30.427,121.813 24.792,123.841C22.482,124.686 20.341,125.757 18.312,127.166C12.959,130.941 12.283,135.843 16.396,141.027C19.214,144.577 22.933,147.057 26.821,149.198C34.54,153.48 42.88,156.185 51.445,158.101L52.966,158.439C52.234,159.397 51.445,158.664 50.769,158.552C42.542,157.481 34.54,155.678 26.933,152.184C22.2,150.043 17.749,147.395 14.142,143.507C7.831,136.632 8.789,128.687 16.622,123.447C21.524,120.178 27.046,118.544 32.737,117.474C39.217,116.29 45.697,115.952 52.234,116.347C52.684,116.403 53.135,116.46 53.473,115.952C55.727,112.684 58.714,110.318 62.489,108.233C60.968,108.064 59.784,107.951 58.601,107.838C48.402,106.768 38.823,103.725 29.863,98.71C28.004,97.696 27.44,96.287 28.286,94.371C37.189,73.804 48.965,55.153 65.25,39.544C69.927,35.093 75.111,31.261 80.408,27.599C83.45,25.514 87.057,24.612 90.381,23.147C100.524,18.639 111.286,16.611 122.387,17.061C138.39,17.738 152.815,22.865 165.324,33.064C165.55,33.233 165.775,33.515 166.113,33.459C166.169,33.571 166.226,33.628 166.282,33.741C166.451,33.91 166.62,34.135 166.789,34.304C169.494,36.783 172.424,38.981 174.96,41.629C175.298,41.967 175.861,42.193 175.805,42.644C153.773,25.852 129.487,19.315 102.158,25.852C113.428,31.599 117.203,43.77 113.822,53.462C110.441,63.38 100.806,69.578 90.156,68.507C85.085,68 80.689,65.915 77.027,62.365C71.674,57.181 69.589,50.814 70.321,43.038C68.462,44.841 66.884,46.362 65.419,47.884C52.741,61.182 43.162,76.509 35.386,93.019C34.822,94.258 35.104,94.653 36.174,95.216C48.233,100.964 60.911,103.218 74.209,101.809C83.338,100.851 92.015,98.203 100.073,93.808C114.329,85.975 124.641,74.593 131.065,59.604C131.684,58.196 132.53,57.125 134.276,57.181C135.798,57.238 136.587,57.97 137.263,59.773C139.742,66.479 140.531,73.41 139.517,80.453C137.77,92.793 131.797,102.654 121.767,110.092C118.724,112.346 115.4,114.093 111.85,115.502C111.963,115.671 112.019,115.84 112.132,115.896C114.949,118.037 117.541,120.404 119.908,123.052C120.302,123.503 120.584,123.447 120.978,123.109C121.936,122.263 122.894,121.474 123.908,120.686C124.303,120.348 124.585,119.784 125.543,119.84C121.767,125.306 117.147,129.476 111.625,132.688C106.102,135.9 100.13,137.646 93.537,138.492C104.694,147.169 116.752,149.818 129.938,145.873C143.067,141.985 151.744,132.969 156.928,120.066C156.928,120.742 156.985,121.024 156.928,121.249C156.027,126.489 154.111,131.392 151.125,135.787C146.053,143.225 139.235,148.409 130.67,151.283C130.107,151.452 129.6,151.621 129.431,152.41C127.965,159.622 123.739,164.919 117.485,168.581C116.414,169.201 115.851,169.877 115.513,171.117C114.78,173.878 114.724,173.822 111.85,173.371C109.934,173.033 108.018,172.3 106.046,172.582C102.552,173.033 99.115,173.146 95.622,172.808C93.649,172.639 91.734,172.019 89.818,171.962C85.93,171.906 82.042,172.526 77.985,173.315C78.436,173.54 78.661,173.653 78.943,173.709C82.154,174.442 85.254,175.456 88.127,176.921C93.762,179.795 99.51,182.218 105.708,183.739C106.441,183.908 107.286,183.908 107.793,184.359C108.469,184.922 107.737,185.824 107.849,186.557C107.849,186.726 107.906,186.895 107.906,187.064C108.131,190.332 109.258,193.375 110.892,196.136C113.259,200.249 115.569,204.363 117.034,208.927C117.428,210.223 117.766,211.462 118.217,213.04C125.092,203.912 128.191,193.882 127.571,182.612C124.81,183.739 122.443,184.979 119.964,186.387C119.739,184.303 120.471,182.669 121.598,181.203C123.627,178.555 126.388,176.921 129.431,175.681C132.811,174.329 136.192,172.977 139.517,171.455C154.505,164.412 167.24,154.438 177.439,141.365C184.37,132.462 189.441,122.658 192.428,111.783C194.794,103.218 195.64,94.484 195.02,85.637C194.4,75.776 191.864,66.366 187.863,57.35C187.694,56.956 187.3,56.561 187.525,55.998C187.92,56.167 188.089,56.561 188.258,56.9C190.174,59.999 191.864,63.154 193.273,66.479C193.442,66.817 193.442,67.718 194.231,67.042C194.682,67.099 194.738,67.155 194.851,67.211L194.851,67.211ZM124.979,152.804C123.739,152.973 122.781,153.198 121.767,153.311C113.878,153.875 106.328,152.748 99.228,149.141C93.706,146.324 88.973,142.549 85.141,137.703C84.352,136.688 84.127,135.618 84.803,134.435C85.423,133.364 86.324,132.969 87.564,133.082C98.27,134.096 108.131,131.617 117.259,125.982C118.612,125.137 118.612,125.081 117.541,123.841C112.132,117.586 105.483,112.966 97.876,109.81C97.143,109.529 96.58,109.529 95.903,109.923C94.326,110.825 92.635,111.614 91.114,112.628C76.238,122.432 68.067,136.181 66.94,154.044C66.884,155.002 67.11,155.621 67.898,156.241C75.9,162.609 84.859,166.609 95.058,167.736C101.933,168.469 108.638,167.68 114.836,164.412C119.513,161.82 122.95,158.101 124.979,152.804L124.979,152.804ZM111.174,46.362C111.174,36.22 102.947,28.049 92.804,28.049C82.774,28.049 74.491,36.333 74.491,46.306C74.491,56.336 82.774,64.619 92.748,64.619C102.891,64.619 111.174,56.449 111.174,46.362ZM63.898,152.522C64.01,150.156 64.292,148.183 64.63,146.155C66.095,138.548 68.969,131.617 73.364,125.25C73.702,124.743 74.097,124.348 73.139,123.954C67.391,121.7 61.531,120.291 55.333,120.291C54.657,120.291 54.319,120.517 54.093,121.136C52.797,124.799 52.572,128.574 53.079,132.35C53.868,137.984 56.291,142.943 59.615,147.564C60.911,149.254 62.207,150.832 63.898,152.522ZM92.748,108.007C84.521,105.81 76.632,105.303 68.744,107.838C63.954,109.416 59.897,112.064 56.854,116.178C56.685,116.46 56.291,116.685 56.46,117.079C56.572,117.361 56.911,117.248 57.136,117.248C63.334,117.643 69.251,118.995 74.942,121.418C75.787,121.756 76.182,121.531 76.689,120.911C78.097,119.164 79.732,117.53 81.366,116.009C84.746,112.966 88.409,110.374 92.748,108.007L92.748,108.007ZM116.301,90.314C113.259,92.962 110.216,95.047 106.948,97.188C111.061,98.879 114.949,100.513 119.119,102.203C118.161,98.146 117.259,94.315 116.301,90.314L116.301,90.314ZM125.261,81.355C123.232,83.665 121.316,85.862 119.175,87.722C118.555,88.285 118.555,88.567 119.175,89.131C121.373,90.934 123.57,92.85 125.768,94.653C126.05,94.878 126.331,95.611 126.895,95.216C127.402,94.822 128.022,94.315 127.853,93.526C127.796,93.244 127.74,93.019 127.684,92.737C127.458,91.779 127.289,90.765 127.064,89.807C126.5,87.102 125.881,84.341 125.261,81.355L125.261,81.355ZM92.297,104.063C97.199,105.753 101.876,106.091 106.666,105.81C107.398,105.753 107.286,105.415 107.004,104.964C106.046,103.161 105.145,101.358 104.187,99.555C103.961,99.048 103.679,98.935 103.172,99.217C99.791,101.133 96.298,102.654 92.297,104.063ZM131.684,72.452C132.642,76.678 134.784,80.566 132.53,84.905C130.67,83.27 128.811,81.636 126.895,80.002C126.557,79.721 126.782,79.495 126.951,79.27C128.585,77.129 130.107,74.931 131.684,72.452ZM216.883,37.629C222.236,41.742 226.462,46.87 229.561,52.899C230.688,55.04 229.561,57.069 227.138,57.069C215.361,56.956 204.712,60.393 195.076,67.155C194.907,67.211 194.851,67.211 194.851,67.211L194.625,66.986C194.794,66.76 194.907,66.535 195.076,66.366C200.711,59.942 207.754,55.716 215.925,53.35C217.953,52.786 220.038,52.448 222.179,51.941C218.066,46.306 213.107,41.855 207.247,38.417C200.88,34.698 194.062,32.557 186.68,31.825C179.862,31.205 173.157,31.768 166.564,33.684C166.508,33.571 166.451,33.515 166.395,33.402C170.227,30.867 174.453,29.345 178.904,28.5C192.878,25.852 205.613,28.895 216.883,37.629ZM95.903,34.079C91.903,35.825 90.1,38.53 90.719,41.742C91.283,44.841 94.1,47.208 97.256,47.32C101.087,47.433 103.623,45.405 104.637,41.517C106.61,44.785 106.215,51.377 101.707,55.547C97.481,59.435 90.1,60.111 86.042,56.9C88.522,56.505 90.043,54.927 90.1,52.899C90.156,50.927 88.578,49.18 86.381,48.842C84.239,48.504 82.436,49.743 81.591,52.11C79.619,50.138 79.112,43.996 81.647,39.882C84.634,35.093 90.888,32.444 95.903,34.079Z" fill="#ff191110" stroke="#00000000" stroke-width="1.0" stroke-miterlimit=""/>
	</svg>
