<?xml version="1.0" encoding="utf-8"?>
	<svg version="1.1" xmlns="http://www.w3.org/2000/svg" xmlns:xlink="http://www.w3.org/1999/xlink" x="0px" y="0px" width="240.0" height="240.0" xml:space="preserve">
		<path d="M120,20C155.53,20 186.733,38.53 204.471,66.453L204.01,65.737C203.395,66.326 202.869,67.001 202.45,67.743C200.807,63.971 197.045,61.333 192.667,61.333C187.552,61.333 183.279,64.933 182.241,69.736C181.097,69.057 179.761,68.667 178.333,68.667C174.099,68.667 170.667,72.099 170.667,76.333C170.667,76.445 170.669,76.557 170.674,76.667L170.674,76.667L202.261,76.667C202.326,76.532 202.389,76.395 202.449,76.257C202.528,76.396 202.61,76.533 202.696,76.667L202.696,76.667L210.149,76.666L210.149,76.666L210.223,76.821C216.49,89.892 220,104.536 220,120C220,175.228 175.228,220 120,220C64.772,220 20,175.228 20,120C20,64.772 64.772,20 120,20ZM125.566,84.436L107.347,84.436C95.423,100.577 81.47,115.332 65.489,128.703L64.287,129.703L64.287,134.333L78.74,129.031L78.74,136.074L91.898,123.729L91.898,129.901L95.644,129.901L97.497,145.887L104.377,129.031L106.996,134.333L126.585,119.363L126.585,126.651L152.852,147.627L143.823,123.729L158.277,136.074L158.277,129.901L162.561,133.495L164.371,131.225L191.402,147.182C164.082,129.493 142.137,108.577 125.566,84.436Z" fill="#000" stroke="#00000000" stroke-width="1.0" stroke-miterlimit=""/>
		<path d="M126.585,119.363L126.585,126.651L152.852,147.627L143.823,123.729L158.277,136.074L158.277,129.901L162.561,133.495L164.371,131.225L191.402,147.182C187.344,144.554 183.404,141.856 179.583,139.086C185.06,143.055 190.779,146.879 196.743,150.556C201.731,153.628 206.805,156.558 211.96,159.343C196.683,195.012 161.26,220 120,220C77.495,220 41.185,193.481 26.709,156.087C29.743,154.278 32.723,152.435 35.651,150.556C46.43,143.64 56.509,136.244 65.886,128.37C65.355,128.816 64.822,129.26 64.287,129.703L64.287,129.703L64.287,134.333L78.74,129.031L78.74,136.074L91.898,123.729L91.898,129.901L95.644,129.901L97.497,145.887L104.377,129.031L106.996,134.333L126.585,119.363Z" fill="#000" stroke="#00000000" stroke-width="1.0" stroke-miterlimit=""/>
		<path d="M163.517,29.94C181.148,38.475 195.893,52.035 205.892,68.759C205.283,67.741 204.655,66.733 204.01,65.737C203.395,66.326 202.869,67.001 202.45,67.743C200.807,63.971 197.045,61.333 192.667,61.333C187.552,61.333 183.279,64.933 182.241,69.736C181.097,69.057 179.761,68.667 178.333,68.667C174.099,68.667 170.667,72.099 170.667,76.333C170.667,76.445 170.669,76.557 170.674,76.667L170.674,76.667L202.261,76.667C202.326,76.532 202.389,76.395 202.449,76.257C202.528,76.396 202.61,76.533 202.696,76.667L202.696,76.667L210.149,76.666C209.986,76.327 209.821,75.99 209.654,75.653C209.957,76.264 210.253,76.879 210.544,77.497C204.645,88.51 193.031,96 179.667,96C160.337,96 144.667,80.33 144.667,61C144.667,47.662 152.127,36.067 163.103,30.16L163.517,29.94Z" fill="#000" stroke="#00000000" stroke-width="1.0" stroke-miterlimit=""/>
	</svg>
