<?xml version="1.0" encoding="utf-8"?>
	<svg version="1.1" xmlns="http://www.w3.org/2000/svg" xmlns:xlink="http://www.w3.org/1999/xlink" x="0px" y="0px" width="240.0" height="240.0" xml:space="preserve">
		<path d="M76.45,156.443C76.405,159.705 77.448,161.704 79.821,162.35C81.236,162.737 82.686,162.869 84.17,162.75C95.781,161.824 107.392,160.911 119.006,160.029C121.805,159.817 124.164,158.877 126.185,156.826C133.501,149.398 140.9,142.053 148.268,134.677C155.18,127.756 162.114,120.856 168.994,113.904C172.352,110.511 172.337,107.618 169.055,104.326C157.806,93.045 146.552,81.769 135.286,70.504C132.084,67.301 129.308,67.288 125.968,70.397C125.582,70.755 125.212,71.133 124.841,71.507C117.252,79.158 109.674,86.82 102.074,94.459C95.547,101.02 89.025,107.586 82.437,114.084C80.346,116.146 79.401,118.559 79.206,121.433C78.851,126.689 78.364,131.935 77.948,137.186C77.449,143.488 76.967,149.791 76.45,156.443M30,161.142L30,84.528C30.422,82.348 30.74,80.141 31.284,77.991C35.756,60.293 46.253,47.128 61.811,37.896C69.894,33.1 78.651,30.085 88.113,30.061C127.751,29.96 167.389,30.015 207.028,30.015C209.968,30.015 209.977,30.023 209.977,32.929C209.983,74.441 209.984,115.953 210,157.465C210,159.758 209.803,162.025 209.416,164.279C205.7,185.953 188.966,203.574 167.267,208.619C164.878,209.175 162.445,209.539 160.032,209.991L79.904,209.991C79.334,209.877 78.767,209.726 78.191,209.652C56.116,206.806 37.479,190.663 31.622,169.22C30.901,166.576 30.532,163.837 30,161.142" fill="#000" stroke="#00000000" stroke-width="1.0" stroke-miterlimit=""/>
	</svg>
