<?xml version="1.0" encoding="utf-8"?>
	<svg version="1.1" xmlns="http://www.w3.org/2000/svg" xmlns:xlink="http://www.w3.org/1999/xlink" x="0px" y="0px" width="240.0" height="240.0" xml:space="preserve">
		<path d="M45.547,42L45.894,42.003C67.144,42.361 88.407,42.313 109.659,42.016C118.34,41.894 123.933,48.214 124.828,54.816C125.246,57.901 126.801,58.557 129.529,58.551C154.861,58.498 180.193,58.519 205.526,58.522C209.945,58.522 209.945,58.528 209.952,63.051L209.952,63.334C209.959,70.428 209.871,70.61 203.016,70.614L202.461,70.614C178.099,70.614 153.737,70.617 129.376,70.613C120.441,70.611 115.423,66.684 113.321,58.074C112.348,54.087 112.204,53.839 108.295,53.825L107.818,53.824C87.727,53.817 67.636,53.818 47.545,53.823C42.56,53.824 42.211,54.168 42.21,59.074C42.207,104.11 42.208,149.145 42.207,194.18C42.207,198.837 42.203,198.883 37.613,198.833C30.88,198.76 30.093,199.509 30.074,195.817L30.074,195.495C30.079,194.55 30.119,193.342 30.124,191.799L30.125,191.24C30.068,169.305 30.106,147.37 30.106,125.435C30.106,102.917 30.319,80.396 30.002,57.883C29.875,48.837 35.995,41.836 45.894,42.003ZM203.507,89.434C209.731,89.446 209.968,89.944 209.976,96.752L209.977,97.588C209.977,120.689 210.045,143.79 209.947,166.891C209.896,178.697 205.115,188.126 194.972,194.506C190.358,197.407 185.279,198.856 179.785,198.849C161.246,198.824 142.708,198.84 124.169,198.84C105.241,198.842 86.314,198.846 67.387,198.841L67.387,198.841L66.945,198.84C63.327,198.83 63.295,198.641 63.273,194.817C63.27,194.337 63.268,193.885 63.267,193.46L63.267,192.963C63.281,186.99 63.842,186.757 70.353,186.748L71.174,186.748C106.699,186.747 142.227,186.5 177.747,186.886C189.557,187.015 198.054,177.818 197.946,166.566C197.712,142.205 197.872,117.841 197.877,93.478L197.877,93.478L197.878,92.832C197.892,89.453 198.121,89.452 201.918,89.437C202.297,89.436 202.659,89.434 203.003,89.434ZM139.642,105.933C143.971,115.615 140.335,127.329 131.029,132.444C128.121,134.042 127.688,135.819 128.128,138.746C129.124,145.359 129.776,152.022 130.664,158.652C130.964,160.891 130.074,161.656 127.952,161.588C125.528,161.509 123.1,161.569 120.673,161.569C118.247,161.572 115.817,161.49 113.396,161.599C111.447,161.687 110.801,160.948 111.06,159.026C112.005,152.012 112.767,144.972 113.815,137.974C114.202,135.392 113.57,133.998 111.196,132.656C103.071,128.066 99.588,120.785 100.738,111.646C101.802,103.183 106.786,97.5 114.871,94.794C124.577,91.545 135.429,96.51 139.642,105.933ZM120.907,103.875C115.156,103.9 110.466,108.666 110.425,114.527C110.386,120.3 115.118,124.995 120.968,124.987C126.772,124.979 131.462,120.273 131.468,114.449C131.474,108.701 126.63,103.851 120.907,103.875Z" fill="#000" stroke="#00000000" stroke-width="1.0" stroke-miterlimit=""/>
	</svg>
