<?xml version="1.0" encoding="utf-8"?>
	<svg version="1.1" xmlns="http://www.w3.org/2000/svg" xmlns:xlink="http://www.w3.org/1999/xlink" x="0px" y="0px" width="240.0" height="240.0" xml:space="preserve">
		<path d="M160.223,36.019C137.712,35.767 115.496,38.047 93.841,44.331C78.945,48.653 64.362,53.894 51.332,62.615C47.371,65.265 43.779,68.322 42.473,73.233C40.988,78.811 44.034,82.383 49.785,81.595C52.044,81.285 54.366,80.763 56.432,79.833C68.694,74.313 81.708,71.73 94.844,69.4C130.863,63.013 162.96,71.767 191.546,94.154C200.058,100.82 207.946,99.914 214.083,91C217.936,85.405 220.967,79.329 223.738,73.141C226.014,68.063 228.151,62.902 229.449,57.476C231.037,50.839 229.27,47.185 223.15,44.163C219.781,42.5 216.207,41.402 212.528,40.542C195.301,36.51 177.749,36.443 160.223,36.019M121.627,75.41C109.615,75.313 99.788,76.249 90.113,78.841C79.311,81.736 70.975,87.809 64.899,97.169C57.568,108.464 53.463,121.148 48.996,133.676C45.38,143.82 41.906,154.011 36.841,163.569C34.261,168.437 30.487,171.397 24.891,171.815C22.84,171.967 20.759,171.982 18.75,172.366C14.873,173.106 11.577,174.854 10.366,178.947C9.189,182.923 10.99,186.042 13.807,188.64C16.495,191.119 19.605,192.988 22.971,194.43C42.641,202.859 63.006,205.131 84.093,201.534C97.71,199.212 106.712,191.66 110.68,178.41C113.905,167.637 116.895,156.792 119.954,145.969C121.131,141.802 121.71,141.458 125.816,142.706C132.242,144.661 138.131,147.679 143.694,151.426C146.998,153.651 150.252,155.996 154.032,157.428C160.339,159.817 163.428,159.049 167.726,153.818C168.794,152.517 169.719,151.075 170.548,149.605C174.781,142.103 177.845,134.096 181.085,126.129C185.118,116.211 179.311,110.512 170.7,109.757C169.134,109.619 167.563,109.528 165.991,109.456C154.911,108.949 144.368,111.506 133.994,115.055C132.677,115.505 131.152,116.668 129.934,115.425C128.582,114.045 129.815,112.443 130.393,111.05C133.272,104.119 136.386,97.295 139.856,90.633C143.668,83.313 141.291,78.15 133.32,76.218C128.788,75.12 124.173,75.451 121.627,75.41" fill="#000" stroke="#00000000" stroke-width="1.0" stroke-miterlimit=""/>
	</svg>
