<?xml version="1.0" encoding="utf-8"?>
	<svg version="1.1" xmlns="http://www.w3.org/2000/svg" xmlns:xlink="http://www.w3.org/1999/xlink" x="0px" y="0px" width="192.0" height="192.0" xml:space="preserve">
		<path d="M16,78.1c0,0,35,3.3,62-27.5l66.8,65.3c0,0-32.4,32.4-36.8,58.1l-17.7-9.6l-28.2-20.1l23.7-34.4l-33.3,24.2l-19.8-25.5 c0,0,17.4-8.7,19.8-18.9c0,0-17.7,7.2-27.5,6.6L16,78.1L16,78.1z M80.4,46l68.9,66.2c0,0,8.4-6.9,2.7-17.4L97.5,41.2 C97.5,41.2,89.7,34.6,80.4,46L80.4,46z M160.9,19l-38.3,37.4l15.9,14.7l37.1-38C175.6,33.1,179.7,15.3,160.9,19L160.9,19z M163.5,35 c-2.6,0-4.8-2.1-4.8-4.8c0-2.6,2.1-4.8,4.8-4.8c2.6,0,4.8,2.1,4.8,4.8C168.3,32.9,166.1,35,163.5,35L163.5,35z" fill="#000" stroke="" stroke-width="" stroke-miterlimit=""/>
	</svg>
