<?xml version="1.0" encoding="utf-8"?>
	<svg version="1.1" xmlns="http://www.w3.org/2000/svg" xmlns:xlink="http://www.w3.org/1999/xlink" x="0px" y="0px" width="240.0" height="240.0" xml:space="preserve">
		<path d="M100.657,156.714C107.496,156.724 112.893,151.034 112.277,144.198C112.111,142.351 112.789,141.529 114.208,140.727C118.741,138.165 123.226,135.519 127.728,132.902C132.005,130.416 136.286,127.938 140.547,125.424C141.115,125.089 142.251,124.867 141.283,123.77C139.709,121.984 136.988,121.544 134.809,122.798C127.438,127.04 120.049,131.252 112.734,135.589C110.761,136.759 109.332,137.16 107.195,135.544C103.11,132.456 97.673,132.754 93.852,135.709C89.724,138.901 88.11,143.96 89.703,148.714C91.392,153.753 95.436,156.706 100.657,156.714M89.185,85.212C89.261,88.177 91.26,91.753 95.417,93.868C99.538,95.964 103.705,95.797 107.431,92.946C109.03,91.723 110.14,91.796 111.799,92.781C120.607,98.005 129.469,103.14 138.375,108.196C140.116,109.184 140.73,110.136 140.479,112.264C139.613,119.587 146.088,126.082 153.042,125.152C158.248,124.455 162.129,121.044 163.319,116.118C164.404,111.629 162.518,106.619 158.729,103.92C154.692,101.045 149.682,100.953 145.347,103.955C143.851,104.991 142.785,104.83 141.373,103.998C132.251,98.621 123.105,93.284 113.938,87.983C112.576,87.195 112.034,86.379 112.241,84.668C113.029,78.143 107.881,72.175 101.419,71.879C94.54,71.563 89.181,76.663 89.185,85.212M200.208,111.117C200.209,123.713 200.146,136.309 200.236,148.905C200.279,154.865 197.908,159.064 192.622,162.05C179.239,169.612 166.035,177.491 152.696,185.131C149.862,186.754 148.668,188.934 148.693,192.114C148.759,200.627 148.726,209.14 148.707,217.653C148.701,220.337 148.397,220.519 146.134,219.206C115.712,201.554 85.295,183.893 54.877,166.234C52.024,164.577 49.162,162.932 46.315,161.264C42.234,158.873 40.032,155.311 40.027,150.574C39.995,124.253 39.983,97.931 40.039,71.61C40.049,67.007 42.214,63.439 46.211,61.109C68.646,48.031 91.102,34.989 113.532,21.903C118.027,19.281 122.353,19.414 126.824,22.019C149.035,34.961 171.268,47.864 193.523,60.729C198.132,63.394 200.207,67.349 200.207,72.547C200.208,85.403 200.207,98.26 200.208,111.117" fill="#000" stroke="#00000000" stroke-width="1.0" stroke-miterlimit=""/>
	</svg>
