<?xml version="1.0" encoding="utf-8"?>
	<svg version="1.1" xmlns="http://www.w3.org/2000/svg" xmlns:xlink="http://www.w3.org/1999/xlink" x="0px" y="0px" width="240.0" height="240.0" xml:space="preserve">
		<path d="M0,0h240v240h-240z" fill="#000" stroke="#00000000" stroke-width="1.0" stroke-miterlimit=""/>
		<path d="M67.969,55.406L78.258,45.117C79.359,44.016 78.703,42.117 77.156,41.93L39.609,37.5C38.414,37.359 37.383,38.367 37.523,39.586L41.953,77.133C42.141,78.68 44.039,79.336 45.141,78.234L55.383,67.992L86.719,99.305C87.445,100.031 88.641,100.031 89.367,99.305L99.305,89.391C100.031,88.664 100.031,87.469 99.305,86.742L67.969,55.406ZM150.633,99.305C151.359,100.031 152.555,100.031 153.281,99.305L184.617,67.992L194.859,78.234C195.961,79.336 197.859,78.68 198.047,77.133L202.477,39.609C202.617,38.414 201.609,37.383 200.391,37.523L162.844,41.953C161.297,42.141 160.641,44.039 161.742,45.141L172.031,55.43L140.695,86.719C139.969,87.445 139.969,88.641 140.695,89.367L150.633,99.305L150.633,99.305ZM198.047,162.867C197.859,161.32 195.961,160.664 194.859,161.766L184.617,172.008L153.281,140.695C152.555,139.969 151.359,139.969 150.633,140.695L140.695,150.609C139.969,151.336 139.969,152.531 140.695,153.258L172.031,184.594L161.742,194.883C160.641,195.984 161.297,197.883 162.844,198.07L200.391,202.5C201.586,202.641 202.617,201.633 202.477,200.414L198.047,162.867ZM89.367,140.695C88.641,139.969 87.445,139.969 86.719,140.695L55.383,172.008L45.141,161.766C44.039,160.664 42.141,161.32 41.953,162.867L37.523,200.391C37.383,201.586 38.391,202.617 39.609,202.477L77.156,198.047C78.703,197.859 79.359,195.961 78.258,194.859L67.969,184.594L99.305,153.281C100.031,152.555 100.031,151.359 99.305,150.633L89.367,140.695L89.367,140.695Z" fill="#000" stroke="#00000000" stroke-width="1.0" stroke-miterlimit=""/>
	</svg>
