<?xml version="1.0" encoding="utf-8"?>
	<svg version="1.1" xmlns="http://www.w3.org/2000/svg" xmlns:xlink="http://www.w3.org/1999/xlink" x="0px" y="0px" width="240.0" height="240.0" xml:space="preserve">
		<path d="M24.597,148.419L27.258,139.71L27.258,132.21L40.887,129.468L40.887,122.21L27.258,124.952L27.258,113.581L47.097,113.581L50.161,131L37.984,136.726L37.984,145.113L51.532,138.742L53.306,148.419L76.129,148.419L76.129,141.161L66.613,141.161L65,132.452L77.5,126.565L77.5,118.097L63.629,124.629L61.613,113.581L77.5,113.581L77.5,106.323L60.242,106.323L57.5,91.081L43.145,91.081L45.806,106.323L27.258,106.323L27.258,98.823L39.758,98.419L39.758,91.161L2.258,92.371L2.258,99.629L12.742,99.306L12.742,106.323L0,106.323L0,113.581L12.742,113.581L12.742,127.855L0.806,130.274L0.806,137.532L12.742,135.113L12.742,139.629L9.516,148.419L24.597,148.419ZM75.726,103.903L73.065,91.968L61.855,91.968L64.516,103.903L75.726,103.903ZM82.661,97.694L158.145,97.29L158.145,91.161L82.661,91.565L82.661,97.694ZM96.532,114.952L96.532,110.919L143.548,110.919L143.548,114.952L157.903,114.952L157.903,103.984L150,103.984L151.613,99.226L137.339,99.226L135.645,103.984L127.984,103.984L126.855,99.226L112.5,99.226L113.71,103.984L104.839,103.984L103.629,99.226L89.355,99.226L90.484,103.984L82.258,103.984L82.258,114.952L96.532,114.952ZM118.387,148.661L127.903,145.677L137.581,148.661L156.29,148.661L156.29,144.871L142.823,141.161L155.806,137.129L155.806,126.726L105.887,126.726L107.5,123.5L158.226,123.5L158.226,117.048L110.806,117.048L113.145,112.452L98.79,112.452L96.452,117.048L81.613,117.048L81.613,123.5L93.226,123.5L80.645,148.581L94.919,148.581L100.484,137.452L111.774,140.919L98.065,144.871L98.065,148.661L118.387,148.661ZM126.452,136.565L113.387,132.935L138.952,132.935L126.452,136.565ZM203.226,148.5L203.226,119.468L240,119.468L240,112.29L203.226,112.29L203.226,104.79L237.258,104.79L237.258,97.532L203.226,97.532L203.226,91L188.79,91L188.79,112.29L160.081,112.29L160.081,119.468L188.79,119.468L188.79,148.5L203.226,148.5ZM238.226,145.194L227.903,125.194L213.387,125.194L223.629,145.194L238.226,145.194Z" fill="#000" stroke="#00000000" stroke-width="1.0" stroke-miterlimit=""/>
	</svg>
