<?xml version="1.0" encoding="utf-8"?>
	<svg version="1.1" xmlns="http://www.w3.org/2000/svg" xmlns:xlink="http://www.w3.org/1999/xlink" x="0px" y="0px" width="240.0" height="240.0" xml:space="preserve">
		<path d="M80.213,210.22C84.119,207.715 87.927,205.146 91.439,202.151C94.907,199.194 98.087,195.98 100.953,192.467C102.403,190.692 103.924,190.378 106.136,190.782C128.579,194.882 149.002,190.251 166.688,175.675C183.031,162.204 191.942,144.729 193.149,123.443C193.422,118.616 193.257,113.83 192.566,109.063C192.295,107.195 192.982,106.066 194.565,105.139C201.464,101.098 207.628,96.164 212.7,89.93C213.152,89.376 213.608,88.491 214.462,88.76C215.385,89.049 215.385,90.12 215.62,90.905C220.166,106.089 221.299,121.537 218.427,137.12C212.383,169.917 194.566,194.468 164.918,209.555C138.474,223.012 111.022,223.407 83.475,212.288C82.379,211.846 81.121,211.552 80.213,210.22" fill="#000" stroke="#00000000" stroke-width="1.0" stroke-miterlimit=""/>
		<path d="M20.005,115.468C19.984,79.395 43.328,43.631 78.796,28.746C79.604,28.407 80.582,27.376 81.345,28.195C82.067,28.969 81.033,29.92 80.704,30.753C77.252,39.508 75.575,48.516 76.872,57.926C77.164,60.047 76.456,61.456 74.809,62.79C36.337,93.923 39.275,153.602 81.19,180.67C82.143,181.285 83.096,181.901 84.068,182.482C85.055,183.072 85.429,183.717 84.552,184.733C79.134,191.008 72.821,196.212 65.763,200.538C64.524,201.299 63.613,200.601 62.672,199.958C48.144,190.028 37.093,177.088 29.502,161.246C23.076,147.839 19.853,133.667 20.005,115.468" fill="#000" stroke="#00000000" stroke-width="1.0" stroke-miterlimit=""/>
		<path d="M166.637,31.707C167.326,32.035 168.116,32.346 168.843,32.765C184.247,41.658 196.324,53.85 205.218,69.255C206.526,71.521 206.507,73.249 204.981,75.418C200.965,81.123 196.185,85.993 190.497,90.029C188.689,91.313 187.812,91.331 186.774,89.068C179.49,73.181 167.807,61.492 152.209,53.752C149.83,52.571 149.607,51.714 151.083,49.633C155.131,43.925 159.227,38.27 164.246,33.355C164.908,32.706 165.485,31.918 166.637,31.707" fill="#000" stroke="#00000000" stroke-width="1.0" stroke-miterlimit=""/>
		<path d="M90.936,47.474C91.262,38.642 94.058,30.646 99.059,23.385C99.871,22.206 100.95,21.576 102.316,21.356C117.87,18.854 133.179,19.753 148.23,24.56C150.504,25.286 150.635,26.1 149.013,27.803C143.909,33.158 139.584,39.13 135.792,45.465C134.754,47.2 133.617,47.73 131.664,47.477C118.615,45.784 105.835,46.689 93.541,51.761C91.728,52.509 90.834,52.082 90.929,50.026C90.969,49.177 90.936,48.325 90.936,47.474" fill="#000" stroke="#00000000" stroke-width="1.0" stroke-miterlimit=""/>
	</svg>
