<?xml version="1.0" encoding="utf-8"?>
	<svg version="1.1" xmlns="http://www.w3.org/2000/svg" xmlns:xlink="http://www.w3.org/1999/xlink" x="0px" y="0px" width="192.0" height="192.0" xml:space="preserve">
		<path d="M167.6,37.2c-0.1,4.2,0.3,9.4-0.1,14.5c-0.3,3.3-2.2,5.3-5.3,6.6c-3.6,1.7-7.6,1.8-11.3,3.2 c-2.6,0.9-3.6,1.9-3.6,4.6c0,9.5,0,19,0,28.6c0,7.7,0.1,15.3-0.2,23c-0.2,5.1-1.1,10.1-2.6,15.1c-0.9,3-2,5.9-3.3,8.6 c-1.8,3.9-4.3,7.5-7,10.9c-2.8,3.4-5.8,6.6-9.2,9.4c-0.8,0.6-5.2,4.2-6.9,5c-3.5,1.9-6.9,4-10.6,5.5c-4,1.6-8.2,2.3-12.5,3.1 c-4.6,0.9-9.2,0.6-13.8,0.6c-2.8,0-5.6-0.5-8.3-0.9c-3.9-0.7-7.4-2.4-11.1-3.7C55.7,169,50.6,165,45.4,161 c-6.7-5.2-11.3-11.8-14.9-19.3c-3.9-8.1-6.1-16.7-6.1-25.7c0-5.5,0.5-10.9,1.7-16.3c1.1-4.7,3.1-9,5-13.3 c2.3-5.2,5.8-9.5,9.5-13.7c2.8-3.2,6.1-5.9,9.6-8.4c3.3-2.4,7-4,10.6-5.9c4.3-2.2,9-3.2,13.7-4.2c5.2-1.1,10.4-1.2,15.7-0.8 c5.3,0.4,10.7,1.3,15.7,3.2c1.1,0.4,1.2,0.2,1.2-0.8c-0.1-5.9-0.1-11.7,0-17.6c0-2.4,0.7-4.7,2.1-6.7c1.7-2.5,4.3-3.3,7-4 c8.1-2.1,16.2-4,24.3-6.1c2.9-0.8,6-1.3,8.9-2.2c3.9-1.2,7.8-2,11.8-2.9c2.4-0.5,4.4,0.4,5.6,2.5c0.6,1,0.9,2.1,0.9,3.3 C167.6,26.7,167.6,31.4,167.6,37.2z" fill="" stroke="#000" stroke-width="16.0" stroke-miterlimit="10.0"/>
		<path d="M 88 92 C 100.150264496 92 110 101.849735504 110 114 C 110 126.150264496 100.150264496 136 88 136 C 75.8497355037 136 66 126.150264496 66 114 C 66 101.849735504 75.8497355037 92 88 92 Z" fill="" stroke="#000" stroke-width="16.0" stroke-miterlimit="10.0"/>
	</svg>
