<?xml version="1.0" encoding="utf-8"?>
	<svg version="1.1" xmlns="http://www.w3.org/2000/svg" xmlns:xlink="http://www.w3.org/1999/xlink" x="0px" y="0px" width="240.0" height="240.0" xml:space="preserve">
		<path d="M240,140.329C212.046,155.836 183.706,170.045 152.369,176.567C145.32,178.033 137.649,177.977 130.487,176.999C123.662,176.068 120.35,170.019 122.749,163.561C125,157.499 128.1,151.462 132.074,146.392C140.603,135.509 150.204,125.469 158.84,114.664C164.13,108.045 168.864,100.884 173.059,93.517C176.074,88.221 174.725,81.91 169.381,79.248C160.401,74.775 150.746,71.635 141.283,68.185C140.194,67.788 138.521,68.993 136.399,69.692C139.101,72.177 141.152,74.064 143.872,76.565C115.742,81.388 88.988,88.423 63.058,98.032C62.945,98.598 62.727,99.002 62.847,99.191C66.665,105.211 64.873,109.794 59.337,113.561C57.219,115.002 55.284,116.712 53.691,118.953C70.767,124.098 86.015,121.165 100.516,111.364C99.613,110.025 98.802,108.823 97.919,107.515C103.441,108.464 106.722,111.567 107.15,116.401C107.244,117.467 106.565,118.601 106.242,119.704C105.433,118.813 104.537,117.985 103.849,117.01C103.422,116.404 103.31,115.577 102.936,114.502C85.643,126.351 67.064,129.316 46.531,123.164C46.531,127.283 46.337,130.785 46.59,134.254C46.808,137.246 45.571,138.517 43.026,140.098C37.075,143.794 30.966,147.636 26.098,152.577C20.154,158.611 22.372,165.894 30.338,168.975C39.422,172.487 48.944,172.545 58.414,171.38C69.634,169.999 80.792,168.122 92.968,166.313C78.577,173.172 64.559,178.044 49.636,180.028C39.248,181.409 28.867,182.183 18.556,179.207C3.793,174.947 -2.789,163.743 1.097,148.831C4.741,134.845 13.411,123.686 22.846,113.379C54.249,79.069 93.932,61.633 139.896,58.21C150.614,57.413 161.472,58.821 171.507,63.483C185.666,70.062 191.505,83.932 184.678,97.963C180.152,107.267 173.901,115.821 167.749,124.219C161.671,132.515 154.692,140.147 148.228,148.167C146.322,150.534 144.599,153.112 143.189,155.802C140.512,160.905 142.348,164.394 148.13,163.818C160.258,162.608 172.594,161.655 184.309,158.565C201.507,154.029 218.239,147.72 235.163,142.147C236.798,141.609 238.389,140.938 240,140.329Z" fill="#000" stroke="#00000000" stroke-width="1.0" stroke-miterlimit=""/>
	</svg>
