<?xml version="1.0" encoding="utf-8"?>
	<svg version="1.1" xmlns="http://www.w3.org/2000/svg" xmlns:xlink="http://www.w3.org/1999/xlink" x="0px" y="0px" width="240.0" height="240.0" xml:space="preserve">
		<path d="M82.363,97.215L56.861,97.215L56.861,82.124C60.352,82.136 63.837,81.833 67.273,81.22C70.435,80.671 73.49,79.627 76.327,78.127C79.059,76.656 81.45,74.624 83.344,72.166C85.305,69.652 86.839,66.433 87.946,62.507L103.49,62.507L103.49,175.678L82.363,175.678L82.363,97.215ZM126.868,110.488C125.203,109.075 123.82,107.359 122.793,105.432C121.736,103.471 120.931,101.107 120.378,98.339C119.825,95.572 119.549,92.176 119.549,88.154C119.569,85.019 120.105,81.909 121.134,78.949C122.194,75.824 123.919,72.967 126.19,70.573C128.504,68.11 131.522,66.072 135.244,64.461C138.966,62.85 143.493,62.045 148.824,62.046C159.286,62.046 166.706,64.511 171.083,69.441C175.46,74.372 177.648,81.615 177.646,91.171C177.67,93.874 177.469,96.574 177.044,99.244C176.68,101.49 175.937,103.658 174.849,105.656C173.748,107.621 172.259,109.341 170.473,110.712C168.61,112.176 166.22,113.509 163.305,114.712L163.305,115.015C169.746,116.428 174.177,119.472 176.6,124.146C179.023,128.821 180.23,135.285 180.222,143.537C180.222,149.776 179.518,155.082 178.11,159.456C176.702,163.83 174.664,167.376 171.998,170.095C169.283,172.841 165.943,174.887 162.263,176.056C158.439,177.313 154.113,177.941 149.285,177.941C143.25,177.941 138.194,177.237 134.12,175.829C130.045,174.421 126.725,172.285 124.161,169.422C121.589,166.555 119.749,162.984 118.641,158.707C117.534,154.431 116.981,149.426 116.983,143.693C116.983,139.465 117.259,135.818 117.812,132.751C118.282,129.922 119.226,127.193 120.605,124.678C121.859,122.428 123.523,120.432 125.51,118.793C127.471,117.185 129.91,115.726 132.827,114.417C130.701,113.333 128.702,112.015 126.868,110.488ZM138.332,150.929C138.436,152.745 138.844,154.53 139.539,156.21C140.192,157.718 141.301,158.985 142.71,159.832C144.173,160.737 146.211,161.241 148.822,161.341C151.336,161.141 153.298,160.491 154.707,159.39C156.108,158.294 157.178,156.832 157.8,155.166C158.484,153.302 158.866,151.341 158.932,149.356C159.031,147.193 159.081,144.905 159.083,142.49C159.083,139.773 159.007,137.208 158.856,134.795C158.756,132.628 158.323,130.489 157.573,128.454C156.948,126.746 155.849,125.252 154.405,124.146C152.995,123.089 151.033,122.561 148.52,122.561C146.006,122.561 144.044,123.039 142.634,123.995C141.252,124.919 140.176,126.232 139.541,127.768C138.891,129.329 138.489,131.215 138.334,133.427C138.18,135.638 138.104,138.053 138.107,140.671L138.107,144.293C138.109,146.709 138.185,148.923 138.337,150.934L138.332,150.929ZM153.876,105.885C155.127,104.838 156.089,103.487 156.668,101.961C157.297,100.289 157.678,98.535 157.8,96.754C157.951,94.843 158.027,93.033 158.027,91.322C158.027,86.998 157.197,83.804 155.537,81.739C153.876,79.674 151.689,78.643 148.973,78.646C146.96,78.646 145.3,79.024 143.993,79.778C142.714,80.502 141.668,81.575 140.976,82.871C140.236,84.284 139.751,85.816 139.541,87.398C139.283,89.196 139.157,91.012 139.163,92.829C139.164,94.541 139.265,96.251 139.466,97.951C139.638,99.575 140.07,101.16 140.746,102.646C141.382,104.035 142.371,105.231 143.615,106.117C144.872,107.023 146.557,107.476 148.671,107.476C150.884,107.476 152.62,106.947 153.878,105.89L153.876,105.885Z" fill="#000" stroke="#00000000" stroke-width="1.0" stroke-miterlimit=""/>
		<path d="M120,20C64.771,20 20,64.771 20,120C20,175.229 64.771,220 120,220C175.229,220 220,175.229 220,120C220,64.771 175.229,20 120,20ZM33.415,120C33.415,72.18 72.18,33.415 120,33.415C140.651,33.385 160.628,40.766 176.298,54.217L54.217,176.298C40.766,160.628 33.385,140.651 33.415,120ZM120,206.585C99.349,206.615 79.372,199.234 63.702,185.783L185.783,63.702C199.234,79.372 206.615,99.349 206.585,120C206.585,167.82 167.82,206.585 120,206.585Z" fill="#000" stroke="#00000000" stroke-width="1.0" stroke-miterlimit=""/>
	</svg>
