<?xml version="1.0" encoding="utf-8"?>
	<svg version="1.1" xmlns="http://www.w3.org/2000/svg" xmlns:xlink="http://www.w3.org/1999/xlink" x="0px" y="0px" width="240.0" height="240.0" xml:space="preserve">
		<path d="M54.441,45.019C86.219,44.244 111.789,67.191 113.923,98.4C116.065,129.769 89.818,158.313 58.581,158.58C52.236,158.634 47.56,154.878 47.071,149.333C46.607,144.08 50.152,139.897 56.618,138.984C64.798,137.83 72.685,136.214 79.356,130.875C93.148,119.833 97.615,101.85 90.346,86.309C83.302,71.25 66.475,62.527 50.42,65.614C33.174,68.929 20.41,83.186 20.101,100.804C19.661,125.912 19.935,151.034 19.894,176.149C19.891,178.87 19.987,181.602 19.765,184.308C19.259,190.47 15.298,194.215 9.677,194.057C4.323,193.907 0.745,190.277 0.21,184.324C0.043,182.453 0.09,180.561 0.089,178.678C0.08,165.701 0.084,152.724 0.084,139.748L0.084,139.748L0.044,139.748C0.044,126.98 -0.068,114.212 0.066,101.447C0.391,70.776 24.564,45.749 54.441,45.019ZM229.506,45.184C235.261,44.811 239.658,48.794 239.847,55.23C240.104,64.004 239.911,72.791 239.911,81.572C239.919,89.308 240.125,97.051 239.882,104.78C238.963,134.012 215.336,157.046 184.881,158.559C156.408,159.974 130.167,137.756 126.927,109.279C124.934,91.775 126.064,74.185 126.128,56.637C126.155,49.463 130.811,44.981 136.762,45.178C142.332,45.362 146.354,49.785 146.471,56.928C146.72,72.188 146.43,87.457 146.651,102.718C146.929,121.996 161.391,136.916 180.968,138.471C199.121,139.911 216.333,126.763 219.352,108.525C220.366,102.401 219.932,96.023 219.984,89.759C220.076,78.678 219.878,67.592 220.101,56.515C220.236,49.803 224.057,45.539 229.506,45.184Z" fill="#000" stroke="#00000000" stroke-width="1.0" stroke-miterlimit=""/>
	</svg>
