<?xml version="1.0" encoding="utf-8"?>
	<svg version="1.1" xmlns="http://www.w3.org/2000/svg" xmlns:xlink="http://www.w3.org/1999/xlink" x="0px" y="0px" width="240.0" height="240.0" xml:space="preserve">
		<path d="M230,40.579C221.73,77.859 213.841,113.54 205.894,149.205C203.081,161.82 200.374,174.468 197.034,186.945C196.345,189.525 193.239,193.115 190.945,193.356C170.677,195.483 150.343,196.96 129.931,198.637C139.164,185.709 153.072,178.939 168.703,175.836C176.34,174.322 179.49,171.349 180.972,163.577C186.341,135.416 192.641,107.435 198.529,79.373C199.023,77.015 199.084,74.568 199.521,70.54C192.468,71.545 186.08,71.532 180.332,73.445C162.184,79.485 144.118,85.85 126.382,92.986C121.457,94.968 118.213,95.549 113.555,92.748C91.832,79.682 67.815,74.077 41.291,71.005C42.745,78.238 43.915,84.266 45.173,90.276C50.411,115.275 55.896,140.226 60.77,165.294C61.992,171.574 64.663,174.021 70.885,175.24C87.246,178.443 101.74,185.328 112.431,199.691C89.562,197.228 67.584,194.86 44.526,192.373C33.289,142.773 21.834,92.221 10,40C21.824,41.452 32.41,42.36 42.857,44.111C68.475,48.406 93.304,55.216 116.421,67.597C118.963,68.961 123.674,68.242 126.511,66.792C158.52,50.446 192.851,43.723 230,40.579" fill="#000" stroke="#00000000" stroke-width="1.0" stroke-miterlimit=""/>
	</svg>
