<?xml version="1.0" encoding="utf-8"?>
	<svg version="1.1" xmlns="http://www.w3.org/2000/svg" xmlns:xlink="http://www.w3.org/1999/xlink" x="0px" y="0px" width="240.0" height="240.0" xml:space="preserve">
		<path d="M227.943,147.344C225.189,143.213 220.54,140.2 213.996,138.305C207.452,136.411 198.501,135.463 187.143,135.463C176.816,135.463 169.068,135.807 163.902,136.496C156.669,132.018 151.505,128.746 148.41,126.68C137.735,118.071 128.266,102.923 120.004,81.238L120.004,80.717C120.351,80.029 120.695,79.511 121.037,79.164C124.827,64.016 126.892,51.967 127.234,43.016C127.922,29.934 125.857,20.639 121.037,15.131C118.283,12.377 114.667,11 110.189,11L105.537,11C102.436,11 99.596,12.292 97.018,14.875C94.441,17.458 92.634,20.471 91.598,23.914C88.497,34.242 87.464,44.055 88.5,53.353C89.189,58.861 91.428,67.812 95.217,80.205L95.738,81.238C90.23,102.24 83.689,119.971 76.115,134.43C73.702,139.25 70.086,146.309 65.266,155.607L59.582,166.455C53.727,169.209 48.563,172.137 44.09,175.238C34.104,181.435 26.012,188.149 19.816,195.381C14.649,201.925 11.721,207.607 11.033,212.426C9.656,215.869 9.656,218.797 11.033,221.209L11.033,222.242L19.816,227.926C22.57,229.303 25.153,229.992 27.566,229.992C34.798,229.992 42.716,225.602 51.32,216.822C59.924,208.042 69.563,194.186 80.238,175.254C80.585,175.254 81.188,175.081 82.047,174.734C82.906,174.387 83.51,174.213 83.857,174.213C103.482,168.358 127.236,163.883 155.119,160.787C163.381,164.918 172.85,168.19 183.525,170.603C192.822,173.015 201.085,174.222 208.311,174.222C215.538,174.222 221.046,172.327 224.836,168.537C226.902,166.124 228.623,161.993 230,156.144C230,152.013 229.311,149.085 227.934,147.361L227.943,147.344ZM25.517,218.086C25.864,214.296 28.015,209.647 31.969,204.139C35.924,198.631 41.003,193.294 47.205,188.127L50.303,186.574C52.369,184.85 54.264,183.643 55.988,182.955C43.247,202.922 33.09,214.627 25.517,218.07L25.517,218.086ZM106.586,22.889C106.933,22.542 107.277,22.113 107.619,21.601C107.96,21.088 108.478,20.829 109.172,20.824L111.238,21.857C112.962,23.922 113.824,26.506 113.824,29.607C113.824,32.708 113.306,36.839 112.271,42L112.271,45.098L111.238,49.75C110.549,53.881 109.861,57.153 109.172,59.566C105.041,44.418 104.179,32.196 106.586,22.898L106.586,22.889ZM84.898,161.803L82.312,162.836C83,160.424 85.066,156.119 88.508,149.922L91.607,144.238C100.557,125.989 106.41,111.701 109.164,101.373C116.396,117.209 125.521,129.947 136.537,139.586C139.638,142.687 142.221,144.582 144.287,145.27C127.074,147.683 107.277,153.191 84.898,161.795L84.898,161.803ZM218.127,160.771L213.475,160.771C204.866,160.771 193.505,157.843 179.393,151.988C180.082,150.611 181.633,149.922 184.045,149.922C202.294,149.922 213.654,151.988 218.127,156.119C218.816,157.154 219.16,158.016 219.16,158.705C219.16,159.393 218.816,160.082 218.127,160.771Z" fill="#000" stroke="#00000000" stroke-width="1.0" stroke-miterlimit=""/>
	</svg>
