<svg xmlns="http://www.w3.org/2000/svg" width="192" height="192" fill="none"><path stroke="#000" stroke-linecap="round" stroke-linejoin="round" stroke-width="10" d="M153.922 38.466a64.45 64.45 0 0 0-72.87 106.318m44.184-58.425.355.355m0 0a27.7 27.7 0 0 1 2.724-41.552 27.7 27.7 0 0 1 36.285 2.232m-39.009 39.32 2.523 2.523a6 6 0 0 1 0 8.485l-20.681 20.681M164.6 47.394q.711.72 1.389 1.471a28 28 0 0 0-1.389-1.47Zm0 0a45.32 45.32 0 0 0-42.534-12.29 45.32 45.32 0 0 0-34.93 41.17 45.32 45.32 0 0 0 13.176 35.008l7.121 7.121M171 54.836a83.58 83.58 0 0 0-93.283-28.4 83.583 83.583 0 0 0-42.63 125.586 83.6 83.6 0 0 0 14.68 16.661c2.269 1.972 5.656 1.73 7.782-.396l23.503-23.503m26.381-26.381-26.38 26.381"/></svg>