<svg width="192" height="192" viewBox="0 0 192 192" fill="none" xmlns="http://www.w3.org/2000/svg"><path d="M48 44H28a6 6 0 0 0-6 6v92a6 6 0 0 0 6 6h20a6 6 0 0 0 6-6V50a6 6 0 0 0-6-6ZM22 72h32m24 0h32m-6-28H84a6 6 0 0 0-6 6v92a6 6 0 0 0 6 6h20a6 6 0 0 0 6-6V50a6 6 0 0 0-6-6Zm39.561 20.813-17.537 5.442a6 6 0 0 0-3.985 7.4l18.663 64.47a5.999 5.999 0 0 0 7.541 4.062l17.537-5.442a6 6 0 0 0 3.985-7.399l-18.662-64.471a6 6 0 0 0-7.542-4.062Z" stroke="#000" stroke-width="12" stroke-linecap="round" stroke-linejoin="round"/></svg>