<svg xmlns="http://www.w3.org/2000/svg" width="192" height="192" fill="none"><path stroke="#000" stroke-linecap="round" stroke-linejoin="round" stroke-width="12" d="M59.757 38.243a6 6 0 0 1 8.486 0l8.514 8.514a6 6 0 0 1 0 8.486L57 75c-4 5-1 10-1 10l-8 14c-22-7-26-27-26-27l18-14zm72.486 0a6 6 0 0 0-8.486 0l-8.514 8.514a6 6 0 0 0 0 8.486L135 75c4 5 1 10 1 10l8 14c22-7 26-27 26-27l-18-14zm-50 105a6 6 0 0 1 0-8.486l9.514-9.514a6 6 0 0 1 8.486 0l9.514 9.514a6 6 0 0 1 0 8.486l-9.514 9.514a6 6 0 0 1-8.486 0zM120 61l-88 88m40-88 23 23m19 19 46 46"/></svg>