<svg width="192" height="192" viewBox="0 0 192 192" fill="none" xmlns="http://www.w3.org/2000/svg">
<path d="M45 170H147C150.314 170 153 167.314 153 164V52.4853C153 50.894 152.368 49.3679 151.243 48.2426L126.757 23.7574C125.632 22.6321 124.106 22 122.515 22H45C41.6863 22 39 24.6863 39 28V164C39 167.314 41.6863 170 45 170Z" stroke="black" stroke-width="12" stroke-linejoin="round"/>
<path d="M124.87 122.87C110.03 137.71 85.9699 137.71 71.1299 122.87C56.29 108.03 56.29 83.9697 71.1299 69.1298C85.9699 54.2899 110.03 54.2899 124.87 69.1298" stroke="black" stroke-width="12" stroke-linecap="round"/>
<path d="M98 113C88.6112 113 81 105.389 81 96M81 96C81 86.6112 88.6112 79 98 79M81 96H133.5" stroke="black" stroke-width="12" stroke-linecap="round"/>
</svg>
