<svg width="192" height="192" fill="none" xmlns="http://www.w3.org/2000/svg"><path d="M45 170h102a6 6 0 0 0 6-6V52.485a6 6 0 0 0-1.757-4.242l-24.486-24.486A5.998 5.998 0 0 0 122.515 22H45a6 6 0 0 0-6 6v136a6 6 0 0 0 6 6Z" stroke="#000" stroke-width="12" stroke-linejoin="round"/><path d="M83 96h49M90 81s-8 6-8 15 8 15 8 15" stroke="#000" stroke-width="12" stroke-linecap="round" stroke-linejoin="round"/><path d="M123.163 69.837a37 37 0 1 0 0 52.326" stroke="#000" stroke-width="12" stroke-linecap="round" stroke-linejoin="round"/></svg>