<svg xmlns="http://www.w3.org/2000/svg" width="192" height="192" fill="none" viewBox="0 0 192 192"><path stroke="#000" stroke-linecap="round" stroke-linejoin="round" stroke-width="10" d="m60 132 20.06-48.864a6 6 0 0 1 3.076-3.076L132 60m-72 72 48.864-20.06a6 6 0 0 0 3.076-3.076L132 60"/><path stroke="#000" stroke-linecap="round" stroke-linejoin="round" stroke-width="12" d="M96 170c40.869 0 74-33.131 74-74s-33.131-74-74-74-74 33.13-74 74 33.13 74 74 74"/><path stroke="#000" stroke-linecap="round" stroke-linejoin="round" stroke-width="6" d="M96 99a3 3 0 1 0 0-6 3 3 0 0 0 0 6"/></svg>