<svg xmlns="http://www.w3.org/2000/svg" width="192" height="192" fill="none" stroke="#000" stroke-linejoin="round" stroke-width="12" viewBox="0 0 192 192"><circle cx="96" cy="44" r="22"/><path d="M160.223 114.292C156.605 116.71 148 118 148 118s-12 2-20 10-10 20-10 20-2.318 11.431-6.444 15.556a21.997 21.997 0 0 1-31.112 0C76.318 159.431 74 148 74 148s-2-12-10-20-20-10-20-10-8.605-1.29-12.223-3.708a21.997 21.997 0 0 1-3.333-33.848 22 22 0 0 1 33.848 3.334C64.71 87.395 66 96 66 96s6 24 30 24 30-24 30-24 1.29-8.605 3.708-12.222a21.997 21.997 0 0 1 33.848-3.334 22 22 0 0 1-3.333 33.848z"/></svg>