<svg xmlns="http://www.w3.org/2000/svg" width="192" height="192" fill="none" stroke="#000" stroke-linecap="round" stroke-width="12" viewBox="0 0 192 192"><path d="m96 147-39.813-7.465c-3.71-.695-5.341-5.092-2.983-8.04v0a5 5 0 0 0-.37-6.66l-3.077-3.078A6 6 0 0 1 48 117.515V56c0-8 8-24 16-24 5.613 0 11.226-4.922 14.076-7.86C79.345 22.832 81.06 22 82.883 22H96m0 125 39.813-7.465c3.709-.695 5.341-5.092 2.983-8.04v0a5 5 0 0 1 .369-6.66l3.078-3.078a6 6 0 0 0 1.757-4.242V56c0-8-8-24-16-24-5.613 0-11.226-4.922-14.076-7.86-1.269-1.308-2.985-2.14-4.808-2.14H96M56 170l6-14m74 14-6-14"/><path stroke-linejoin="round" d="M144 58H48l24 32h48z"/><path stroke-width="6" d="M60 165h72M82 42h28"/><circle cx="76" cy="120" r="4" stroke-width="8"/><circle cx="116" cy="120" r="4" stroke-width="8"/></svg>