<svg width="192" height="192" viewBox="0 0 192 192" fill="none" xmlns="http://www.w3.org/2000/svg"><path d="M137 58c0-4.728-1.06-9.409-3.121-13.777-2.06-4.367-5.08-8.336-8.888-11.679-3.807-3.343-8.327-5.994-13.301-7.804C106.716 22.931 101.384 22 96 22s-10.716.931-15.69 2.74c-4.974 1.81-9.494 4.461-13.301 7.804-3.808 3.343-6.828 7.312-8.888 11.68C56.06 48.59 55 53.271 55 58" stroke="#000" stroke-width="12" stroke-linecap="round" stroke-linejoin="round"/><rect x="36" y="90" width="120" height="80" rx="6" stroke="#000" stroke-width="12" stroke-linecap="round" stroke-linejoin="round"/><path d="M55 58v6m82-6v6m-41 57v18" stroke="#000" stroke-width="12" stroke-linecap="round" stroke-linejoin="round"/></svg>