<svg xmlns="http://www.w3.org/2000/svg" width="191" height="192" fill="none"><ellipse cx="144.245" cy="124" stroke="#000" stroke-linecap="round" stroke-linejoin="round" stroke-width="12" rx="15.917" ry="18"/><path stroke="#000" stroke-linecap="round" stroke-linejoin="round" stroke-width="12" d="M145.373 105.449c-2.318-12.75-9.199-24.299-19.432-32.612S102.78 59.977 89.432 60s-26.26 4.612-36.462 12.96-17.042 19.92-19.314 32.678c-2.272 12.759.169 25.885 6.893 37.07s17.301 19.708 29.868 24.073a58.35 58.35 0 0 0 38.833-.214c12.515-4.502 22.991-13.143 29.584-24.4"/><path stroke="#000" stroke-linecap="round" stroke-linejoin="round" stroke-width="12" d="M89.531 82a34.5 34.5 0 0 0-14.96 3.403 33.66 33.66 0 0 0-11.873 9.508 32.6 32.6 0 0 0-6.34 13.651 32.2 32.2 0 0 0 .503 14.979"/><ellipse cx="135.292" cy="36" stroke="#000" stroke-linecap="round" stroke-linejoin="round" stroke-width="12" rx="13.927" ry="14"/><path stroke="#000" stroke-linecap="round" stroke-linejoin="round" stroke-width="12" d="M71.625 63s13.927-41 63.667-41"/></svg>