<svg width="191" height="192" fill="none" xmlns="http://www.w3.org/2000/svg"><ellipse cx="144.245" cy="124" rx="15.917" ry="18" stroke="#000" stroke-width="12" stroke-linecap="round" stroke-linejoin="round"/><path d="M145.373 105.449c-2.318-12.75-9.199-24.299-19.432-32.612C115.709 64.523 102.78 59.977 89.432 60c-13.348.023-26.26 4.612-36.462 12.96-10.203 8.348-17.042 19.92-19.314 32.678-2.272 12.759.169 25.885 6.893 37.07 6.724 11.184 17.301 19.708 29.868 24.073a58.353 58.353 0 0 0 38.833-.214c12.515-4.502 22.991-13.143 29.584-24.4" stroke="#000" stroke-width="12" stroke-linecap="round" stroke-linejoin="round"/><path d="M89.531 82a34.518 34.518 0 0 0-14.96 3.403 33.661 33.661 0 0 0-11.873 9.508 32.626 32.626 0 0 0-6.34 13.651 32.222 32.222 0 0 0 .503 14.979" stroke="#000" stroke-width="12" stroke-linecap="round" stroke-linejoin="round"/><ellipse cx="135.292" cy="36" rx="13.927" ry="14" stroke="#000" stroke-width="12" stroke-linecap="round" stroke-linejoin="round"/><path d="M71.625 63s13.927-41 63.667-41" stroke="#000" stroke-width="12" stroke-linecap="round" stroke-linejoin="round"/></svg>