<svg width="192" height="192" fill="none" xmlns="http://www.w3.org/2000/svg"><path d="M70.364 118c.56 2.299 1.764 4.509 3.557 6.505 2.562 2.853 6.227 5.153 10.58 6.639 4.352 1.486 9.218 2.099 14.047 1.769 4.83-.329 9.43-1.587 13.28-3.633 3.85-2.045 6.796-4.795 8.506-7.939 1.709-3.145 2.113-6.558 1.166-9.853-.946-3.295-3.206-6.341-6.524-8.793C111.659 100.243 106 97 96 96c-10-1-15.66-4.243-18.977-6.695s-5.577-5.498-6.523-8.793c-.947-3.295-.543-6.708 1.166-9.853 1.71-3.144 4.656-5.894 8.506-7.94 3.85-2.045 8.45-3.303 13.28-3.632 4.829-.33 9.695.283 14.048 1.77 4.352 1.485 8.017 3.785 10.579 6.638 1.793 1.996 2.996 4.206 3.557 6.505" stroke="#000" stroke-width="12" stroke-linecap="round" stroke-linejoin="round"/><path d="M116 24c-6.34-1.975-13.126-3-20-3-6.874 0-13.66 1.025-20 3m-3 20c.77-.282 1.548-.55 2.335-.803C81.886 41.087 88.909 40 96 40c7.092 0 14.114 1.086 20.665 3.197A62.68 62.68 0 0 1 119 44m-3 124c-6.34 1.975-13.126 3-20 3-6.874 0-13.66-1.025-20-3m-3-20c.77.282 1.548.549 2.335.803C81.886 150.914 88.909 152 96 152c7.092 0 14.114-1.086 20.665-3.197A62.865 62.865 0 0 0 119 148" stroke="#000" stroke-width="10" stroke-linecap="round" stroke-linejoin="round"/></svg>