<?xml version="1.0" encoding="UTF-8" standalone="no"?>
<svg
   width="192"
   height="192"
   fill="none"
   viewBox="0 0 192 192"
   version="1.1"
   id="svg2"
   sodipodi:docname="continuum_for_reddit.svg"
   inkscape:version="1.4.2 (f4327f4, 2025-05-13)"
   xmlns:inkscape="http://www.inkscape.org/namespaces/inkscape"
   xmlns:sodipodi="http://sodipodi.sourceforge.net/DTD/sodipodi-0.dtd"
   xmlns="http://www.w3.org/2000/svg"
   xmlns:svg="http://www.w3.org/2000/svg">
  <defs
     id="defs2" />
  <sodipodi:namedview
     id="namedview2"
     pagecolor="#ffffff"
     bordercolor="#000000"
     borderopacity="0.25"
     inkscape:showpageshadow="2"
     inkscape:pageopacity="0.0"
     inkscape:pagecheckerboard="1"
     inkscape:deskcolor="#d1d1d1"
     inkscape:zoom="2"
     inkscape:cx="100.75"
     inkscape:cy="12.25"
     inkscape:window-width="2560"
     inkscape:window-height="1369"
     inkscape:window-x="-8"
     inkscape:window-y="-8"
     inkscape:window-maximized="1"
     inkscape:current-layer="svg2" />
  <path
     id="path6-8"
     style="fill:none;fill-opacity:0.8;stroke:#000000;stroke-width:12;stroke-linecap:round;stroke-linejoin:round;stroke-miterlimit:12;stroke-dasharray:none"
     d="m 29.774237,151.90631 h 13.99736 m 104.456803,-0.0749 h 13.99736 m -118.454163,0.0749 c 12.350702,10.41298 28.14901,16.30109 44.158212,17.72695 18.099141,1.64939 36.847811,-2.28361 52.310361,-11.97023 2.79364,-1.74263 5.46971,-3.69331 7.98823,-5.8316"
     inkscape:label="shoulders" />
  <path
     id="rect6-9"
     style="fill-opacity:0.8;stroke:#000000;stroke-width:12;stroke-linecap:round;stroke-linejoin:round;stroke-miterlimit:12"
     d="m 40.630032,102.97391 c 2.216,0 4,2.676 4,6 0,3.324 -1.784,6 -4,6 -2.216,0 -4,-2.676 -4,-6 0,-3.324 1.784,-6 4,-6 z m 110.618668,0 c 2.216,0 4,2.676 4,6 0,3.324 -1.784,6 -4,6 -2.216,0 -4,-2.676 -4,-6 0,-3.324 1.784,-6 4,-6 z"
     inkscape:label="ears" />
  <path
     id="path3"
     style="fill:none;fill-opacity:0.8;stroke:#000000;stroke-width:10;stroke-linecap:round;stroke-linejoin:round;stroke-miterlimit:12;stroke-dasharray:none;stroke-opacity:1;paint-order:normal"
     d="m 145.64864,33.747036 c -0.87246,6.106058 -6.52967,10.348725 -12.63573,9.476263 -6.10606,-0.872465 -10.34872,-6.529675 -9.47626,-12.635733 0.87246,-6.106058 6.52967,-10.348726 12.63573,-9.476264 6.10606,0.872465 10.34872,6.529676 9.47626,12.635734 z M 95.939377,57.935677 101.35064,33.041566 c 0.66833,-3.074188 3.59766,-5.110134 6.71201,-4.665 l 15.474,2.211"
     sodipodi:nodetypes="ssssscccc"
     inkscape:label="antenna" />
  <path
     style="stroke:#000000;stroke-width:12;stroke-linecap:round;stroke-linejoin:round;stroke-opacity:1"
     d="m 89.955916,80.548541 c -9.46383,2.006503 -17.880141,8.879552 -21.284118,18.003278 -0.558099,1.428197 -1.037231,2.911131 -1.383166,4.422091"
     id="path10-8"
     inkscape:label="reflection" />
  <path
     id="path10"
     style="stroke:#000000;stroke-width:12;stroke-linecap:round;stroke-linejoin:round;stroke-opacity:1"
     inkscape:label="visor"
     d="m 94.587149,57.95626 c -11.593465,0.261997 -23.034835,4.629456 -31.84722,12.168543 -9.615942,8.104432 -16.071252,19.856388 -17.678054,32.335487 -0.647828,4.84499 -0.689928,9.84484 0.705011,14.57121 2.341287,8.37214 8.153805,15.42214 15.155622,20.4045 10.894096,7.7461 24.538204,11.06112 37.797726,10.51931 12.061126,-0.49315 24.182696,-4.24801 33.794786,-11.68238 6.60709,-5.11517 11.95278,-12.20134 13.90169,-20.42212 1.37176,-5.56533 0.87188,-11.3883 -0.20456,-16.959003 C 143.76079,86.768102 136.70098,75.675078 126.80874,68.260491 117.63348,61.295924 106.09846,57.62467 94.587149,57.95626 Z" />
</svg>
