<svg xmlns="http://www.w3.org/2000/svg" width="192" height="192" fill="none"><path stroke="#000" stroke-linecap="round" stroke-linejoin="round" stroke-width="12" d="M70.364 118c.56 2.299 1.764 4.509 3.557 6.505 2.562 2.853 6.227 5.153 10.58 6.639s9.218 2.099 14.047 1.769c4.83-.329 9.43-1.587 13.28-3.633 3.85-2.045 6.796-4.795 8.506-7.939s2.113-6.558 1.166-9.853c-.946-3.295-3.206-6.341-6.524-8.793S106 97 96 96s-15.66-4.243-18.977-6.695-5.577-5.498-6.523-8.793c-.947-3.295-.543-6.708 1.166-9.853s4.656-5.894 8.506-7.94c3.85-2.045 8.45-3.303 13.28-3.632 4.829-.33 9.695.283 14.048 1.77 4.352 1.485 8.017 3.785 10.579 6.638 1.793 1.996 2.996 4.206 3.557 6.505"/><path stroke="#000" stroke-linecap="round" stroke-linejoin="round" stroke-width="10" d="M116 24c-6.34-1.975-13.126-3-20-3s-13.66 1.025-20 3m-3 20q1.155-.423 2.335-.803C81.886 41.087 88.909 40 96 40c7.092 0 14.114 1.086 20.665 3.197A63 63 0 0 1 119 44m-3 124c-6.34 1.975-13.126 3-20 3s-13.66-1.025-20-3m-3-20q1.155.423 2.335.803C81.886 150.914 88.909 152 96 152c7.092 0 14.114-1.086 20.665-3.197A63 63 0 0 0 119 148"/></svg>