<?xml version="1.0" encoding="UTF-8" standalone="no"?>
<!-- Created with Inkscape (http://www.inkscape.org/) -->

<svg
   version="1.1"
   id="svg2"
   width="192"
   height="192"
   viewBox="0 0 192 192"
   sodipodi:docname="cookbook.png"
   xmlns:inkscape="http://www.inkscape.org/namespaces/inkscape"
   xmlns:sodipodi="http://sodipodi.sourceforge.net/DTD/sodipodi-0.dtd"
   xmlns="http://www.w3.org/2000/svg"
   xmlns:svg="http://www.w3.org/2000/svg">
  <defs
     id="defs6" />
  <sodipodi:namedview
     id="namedview4"
     pagecolor="#505050"
     bordercolor="#eeeeee"
     borderopacity="1"
     inkscape:showpageshadow="0"
     inkscape:pageopacity="0"
     inkscape:pagecheckerboard="0"
     inkscape:deskcolor="#505050"
     showgrid="false"
     showguides="true">
    <sodipodi:guide
       position="44.619648,176.00251"
       orientation="0,-1"
       id="guide297"
       inkscape:locked="false" />
    <sodipodi:guide
       position="78.893866,16.264849"
       orientation="0,-1"
       id="guide1075"
       inkscape:locked="false" />
    <sodipodi:guide
       position="36.081792,175.9221"
       orientation="1,0"
       id="guide1079"
       inkscape:locked="false" />
  </sodipodi:namedview>
  <g
     inkscape:groupmode="layer"
     inkscape:label="Image"
     id="g8">
    <path
       style="fill:none;stroke:#000000;stroke-width:12;stroke-linecap:round;stroke-linejoin:round;stroke-miterlimit:44;paint-order:stroke fill markers"
       d="M 46.130826,72.405934 H 83.505688"
       id="path382" />
    <path
       style="fill:none;stroke:#000000;stroke-width:12;stroke-linecap:round;stroke-linejoin:round;stroke-miterlimit:44;paint-order:stroke fill markers"
       d="M 64.245349,22 V 67.336469"
       id="path384" />
    <path
       style="fill:none;stroke:#000000;stroke-width:12;stroke-linecap:round;stroke-linejoin:round;stroke-miterlimit:44;paint-order:stroke fill markers"
       d="m 42.830215,22 v 60.885308 c 0,0 0.957868,11.428326 10.644373,11.428326"
       id="path427" />
    <path
       style="fill:none;stroke:#000000;stroke-width:12;stroke-linecap:round;stroke-linejoin:round;stroke-miterlimit:44;paint-order:stroke fill markers"
       d="m 86.351124,22 v 60.885308 c 0,0 -0.957868,11.428326 -10.644373,11.428326"
       id="path427-7" />
    <path
       style="fill:none;stroke:#000000;stroke-width:12;stroke-linecap:round;stroke-linejoin:bevel;stroke-miterlimit:57.5;paint-order:stroke fill markers"
       d="m 53.532442,94.449941 v 69.556209 c 0,0 0.392984,6.03709 6.814448,6.02956 6.421464,-0.008 6.421464,-0.008 6.421464,-0.008 h 2.502432 c 0,0 6.376324,0.27424 6.376324,-5.57758 0,-5.85182 0,-69.589327 0,-69.589327"
       id="path519" />
    <path
       style="fill:none;stroke:#000000;stroke-width:12;stroke-linecap:round;stroke-linejoin:round;stroke-miterlimit:57.5;paint-order:stroke markers fill"
       d="m 124.22743,21.922607 h 25.54232 c 0,0 4.54964,-0.0847 4.54964,4.467697 0,4.552401 0,134.644356 0,134.644356 0,0 0.24554,9.05668 -8.67359,9.05668 -8.91914,0 -15.06045,0 -15.06045,0 0,0 -8.16624,-0.0877 -8.16624,-9.34652 0,-9.25883 0,-43.9253 0,-43.9253 h -19.45906 c 0,0 -1.44239,-0.27232 -1.44239,-1.25297 0,-0.98065 0,-70.566693 0,-70.566693 0,0 4.88552,-23.07725 22.70977,-23.07725 z"
       id="path1077" />
  </g>
</svg>
