<svg width="192" height="192" fill="none" xmlns="http://www.w3.org/2000/svg"><path d="M61.556 56C34.526 56 22 78.004 22 94.612c0 29.383 25.403 40.455 40.406 40.456 38.354 0 59.795-54.58 64.253-59.05l14.294 26.116-14.576-9.936-11.463 8.375s46.419 34.494 48.967 34.494c2.548 0 6.119-3.265 6.119-7.098 0-.683-8.808-18.169-20.13-37.191C140.419 74.9 135.009 56 126.942 56c-12.313 0-26.183 64.589-65.245 64.589-15.002 0-25.473-9.37-25.473-25.836 0-16.892 14.294-24.984 25.332-24.984 16.135 0 36.236 17.173 36.236 17.173l10.186-7.946s-6.482-6.583-16.152-12.704C83.423 60.971 72.612 56 61.556 56Z" stroke="#000" stroke-width="12" stroke-linejoin="round"/></svg>