<svg xmlns="http://www.w3.org/2000/svg" width="192" height="192" fill="none" viewBox="0 0 192 192"><path stroke="#000" stroke-linecap="round" stroke-linejoin="round" stroke-width="12" d="M158.86 57C145 35 124.791 26.277 110.437 23.422a74 74 0 1 0 0 145.156C124.791 165.723 145 157 158.86 135"/><path stroke="#000" stroke-linecap="round" stroke-linejoin="round" stroke-width="12" d="M96 54a42 42 0 0 0 0 84m37.69-61.69C127.38 70 118 54 96 54m37.69 61.69C127.38 122 118 138 96 138m62.856-81a16 16 0 0 1-25.17 19.314M158.856 135a16 16 0 0 0-25.17-19.314"/></svg>