<?xml version="1.0" encoding="utf-8"?>
	<svg version="1.1" xmlns="http://www.w3.org/2000/svg" xmlns:xlink="http://www.w3.org/1999/xlink" x="0px" y="0px" width="240.0" height="240.0" xml:space="preserve">
		<path d="M68.799,61C104.144,61 137.804,95.082 137.804,95.082L122.665,106.856C122.665,106.856 92.783,81.407 68.799,81.407C52.39,81.407 31.142,93.398 31.142,118.434C31.142,142.837 46.709,156.724 69.01,156.724C127.075,156.725 147.693,61 165.996,61C177.987,61 186.028,89.011 200.077,112.543C216.907,140.735 230,166.651 230,167.663C230,173.344 224.692,178.182 220.905,178.182C217.117,178.182 148.114,127.06 148.114,127.06L165.155,114.647L186.823,129.373L165.575,90.666C158.948,97.292 127.075,178.184 70.062,178.184C47.761,178.182 10,161.772 10,118.224C10,93.609 28.618,61 68.799,61Z" fill="#000" stroke="#00000000" stroke-width="1.0" stroke-miterlimit=""/>
	</svg>
