<svg width="192" height="192" viewBox="0 0 192 192" fill="none" xmlns="http://www.w3.org/2000/svg"><path d="M137 106v16M59 96c0 3.343-1.243 6.602-3.556 9.32-2.312 2.717-5.577 4.756-9.337 5.831a22.414 22.414 0 0 1-11.622.16c-3.8-.97-7.142-2.919-9.559-5.571-2.416-2.652-3.786-5.875-3.916-9.216-.13-3.342.986-6.633 3.192-9.413 2.206-2.78 5.39-4.908 9.105-6.086a22.382 22.382 0 0 1 11.61-.48" stroke="#000" stroke-width="10" stroke-linecap="round" stroke-linejoin="round"/><ellipse cx="77.5" cy="96" rx="18.5" ry="16" stroke="#000" stroke-width="10" stroke-linecap="round" stroke-linejoin="round"/><ellipse cx="114.5" cy="96" rx="18.5" ry="16" stroke="#000" stroke-width="10" stroke-linecap="round" stroke-linejoin="round"/><ellipse cx="152" cy="96" rx="19" ry="16" stroke="#000" stroke-width="10" stroke-linecap="round" stroke-linejoin="round"/></svg>