<svg xmlns="http://www.w3.org/2000/svg" width="192" height="192" fill="none" viewBox="0 0 192 192"><path stroke="#000" stroke-linecap="round" stroke-linejoin="round" stroke-width="10" d="M137 106v16M59 96c0 3.343-1.243 6.602-3.556 9.32s-5.577 4.756-9.337 5.831a22.4 22.4 0 0 1-11.622.16c-3.8-.97-7.142-2.919-9.559-5.571s-3.786-5.875-3.916-9.216c-.13-3.342.986-6.633 3.192-9.413s5.39-4.908 9.105-6.086a22.4 22.4 0 0 1 11.61-.48"/><ellipse cx="77.5" cy="96" stroke="#000" stroke-linecap="round" stroke-linejoin="round" stroke-width="10" rx="18.5" ry="16"/><ellipse cx="114.5" cy="96" stroke="#000" stroke-linecap="round" stroke-linejoin="round" stroke-width="10" rx="18.5" ry="16"/><ellipse cx="152" cy="96" stroke="#000" stroke-linecap="round" stroke-linejoin="round" stroke-width="10" rx="19" ry="16"/></svg>