<svg xmlns="http://www.w3.org/2000/svg" width="192" height="192" fill="none"><path stroke="#000" stroke-linecap="round" stroke-linejoin="round" stroke-width="8" d="m65 96.815 8-2.63m-8 2.63V88m0 8.815L59.143 104M65 96.815l-8-2.63m8 2.63L70.856 104M96 96.815l8-2.63m-8 2.63V88m0 8.815L90.143 104M96 96.815l-8-2.63m8 2.63 5.856 7.185M127 96.815l8-2.63m-8 2.63V88m0 8.815L121.143 104M127 96.815l-8-2.63m8 2.63 5.856 7.185"/><path stroke="#000" stroke-linecap="round" stroke-linejoin="round" stroke-width="12" d="M48 72 22 96l26 24m96-48 26 24-26 24"/></svg>