<svg xmlns="http://www.w3.org/2000/svg" viewBox="0 0 24 24"><g data-name="Layer 2"><path d="M21 10.35v-5.8A1.54 1.54 0 0 0 19.45 3H4.55A1.54 1.54 0 0 0 3 4.55v5.8a1.65 1.65 0 0 1 0 3.3v5.8A1.54 1.54 0 0 0 4.55 21h14.9A1.54 1.54 0 0 0 21 19.45v-5.8a1.65 1.65 0 1 1 0-3.3zm-8.45 2.58a.21.21 0 0 1 .19-.2h1.2a.21.21 0 0 1 .2.2v1.19a.2.2 0 0 1-.2.2h-1.2a.2.2 0 0 1-.19-.2zm-1.34 4.12a.45.45 0 0 1-.45.45H6.89a.45.45 0 0 1-.45-.45v-3.87a.45.45 0 0 1 .45-.45h3.87a.45.45 0 0 1 .45.45zm0-6.11a.45.45 0 0 1-.45.45H6.89a.45.45 0 0 1-.45-.45V7.07a.45.45 0 0 1 .45-.44h3.87a.45.45 0 0 1 .45.44zm2.93 6.36a.2.2 0 0 1-.2.2h-1.2a.2.2 0 0 1-.19-.2v-1.2a.2.2 0 0 1 .19-.19h1.2a.21.21 0 0 1 .2.19zm1.39-1.39h-1.2a.19.19 0 0 1-.19-.2v-1.19a.2.2 0 0 1 .19-.2h1.2a.2.2 0 0 1 .19.2v1.19a.19.19 0 0 1-.19.2zm1.78 1.39a.19.19 0 0 1-.19.2h-1.2a.2.2 0 0 1-.2-.2v-1.2a.21.21 0 0 1 .2-.19h1.2a.2.2 0 0 1 .19.19zm0-3.18a.19.19 0 0 1-.19.2h-1.2a.2.2 0 0 1-.2-.2v-1.19a.21.21 0 0 1 .2-.2h1.2a.2.2 0 0 1 .19.2zm0-3.18a.45.45 0 0 1-.45.45H13a.45.45 0 0 1-.45-.45V7.07a.45.45 0 0 1 .45-.44h3.86a.45.45 0 0 1 .45.44z"/><rect x="7.87" y="8.06" width="1.9" height="1.9" rx=".45"/><rect x="13.98" y="8.06" width="1.9" height="1.9" rx=".45"/><rect x="7.87" y="14.16" width="1.9" height="1.9" rx=".45"/></g></svg>