<?xml version="1.0" encoding="UTF-8"?>
<svg id="Layer_1" data-name="Layer 1" xmlns="http://www.w3.org/2000/svg" width="192" height="192" viewBox="0 0 192 192">
  <defs>
    <style>
      .cls-1, .cls-2, .cls-3 {
        fill: none;
      }

      .cls-2 {
        stroke-width: 8px;
      }

      .cls-2, .cls-3 {
        stroke: #000;
        stroke-linejoin: round;
      }

      .cls-3 {
        stroke-width: 12px;
      }
    </style>
  </defs>
  <rect class="cls-1" width="192" height="192"/>
  <path class="cls-3" d="M162,83.9V41.37c.04-6.24-4.98-11.33-11.22-11.37-.05,0-.1,0-.15,0H41.37c-6.24-.04-11.33,4.98-11.37,11.22,0,.05,0,.1,0,.15v42.53c6.68,0,12.1,5.42,12.1,12.1s-5.42,12.1-12.1,12.1v42.53c-.04,6.24,4.98,11.33,11.22,11.37,.05,0,.1,0,.15,0h109.27c6.24,.04,11.33-4.98,11.37-11.22,0-.05,0-.1,0-.15v-42.53c-6.68,0-12.1-5.42-12.1-12.1s5.42-12.1,12.1-12.1Z"/>
  <g>
    <rect class="cls-2" x="60" y="57.49" width="23.7" height="23.7"/>
    <rect class="cls-2" x="108.38" y="57.49" width="23.7" height="23.7"/>
    <rect class="cls-2" x="60" y="104.89" width="23.7" height="23.7"/>
    <rect x="114.97" y="111.48" width="10.51" height="10.51" rx="5.26" ry="5.26"/>
    <rect x="104.46" y="100.96" width="10.51" height="10.51" rx="5.26" ry="5.26"/>
    <rect x="104.46" y="121.99" width="10.51" height="10.51" rx="5.26" ry="5.26"/>
    <rect x="125.49" y="121.99" width="10.51" height="10.51" rx="5.26" ry="5.26"/>
    <rect x="125.49" y="100.96" width="10.51" height="10.51" rx="5.26" ry="5.26"/>
  </g>
</svg>