<svg id="Layer_1" data-name="Layer 1" xmlns="http://www.w3.org/2000/svg" width="192" height="192"><defs><style>.cls-2,.cls-4{fill:none;stroke:#000;stroke-linejoin:round;stroke-width:8px}.cls-4{stroke-linecap:round}</style></defs><path style="fill:none" d="M0 0h192v192H0z"/><path d="M151 85.92V50.47c.03-5.2-4.15-9.44-9.35-9.47H50.47c-5.2-.03-9.44 4.15-9.47 9.35V85.91c5.57 0 10.08 4.51 10.08 10.08S46.57 106.07 41 106.07v35.44c-.03 5.2 4.15 9.44 9.35 9.47h91.18c5.2.03 9.44-4.15 9.47-9.35V106.07c-5.57 0-10.08-4.51-10.08-10.08s4.51-10.08 10.08-10.08Z" style="stroke-width:12px;stroke:#000;stroke-linejoin:round;fill:none"/><path class="cls-2" d="M69.24 67.38h17.61v17.61H69.24zM105.2 67.38h17.61v17.61H105.2zM69.24 102.6h17.61v17.61H69.24z"/><rect x="109.6" y="107.01" width="8.81" height="8.81" rx="4.4" ry="4.4"/><rect x="100.8" y="98.2" width="8.81" height="8.81" rx="4.4" ry="4.4"/><rect x="100.8" y="115.81" width="8.81" height="8.81" rx="4.4" ry="4.4"/><rect x="118.41" y="115.81" width="8.81" height="8.81" rx="4.4" ry="4.4"/><rect x="118.41" y="98.2" width="8.81" height="8.81" rx="4.4" ry="4.4"/><path class="cls-4" d="M20 42V20h22M172 150v22h-22M150 20h22v22M42 172H20v-22"/></svg>