<svg xmlns="http://www.w3.org/2000/svg" width="192" height="192" viewBox="0 0 24 24"><path d="M9.9 2.006a1.397 1.397 0 0 0-.458.033 1.495 1.495 0 0 0-.248 2.837l.383 1.71a5.34 5.34 0 0 0-1.305.79 1.421 1.421 0 0 0-.45-.296 1.557 1.557 0 0 0-1.15-.012 1.54 1.54 0 0 0-.815 1.97 1.798 1.798 0 0 0 .625.723 6.175 6.175 0 0 0-.367 1.29l-1.147-.153a1.494 1.494 0 0 0-.75-.688 1.03 1.03 0 0 0-.382-.102 1.494 1.494 0 0 0-.76 2.864 1.068 1.068 0 0 0 .382.103 1.484 1.484 0 0 0 1.29-.483l1.326.17a6.458 6.458 0 0 0 .705 2.202l-1.52 1.221a1.529 1.529 0 0 0-1.357.29 1.492 1.492 0 0 0-.213 2.1 1.512 1.512 0 0 0 .586.437 1.49 1.49 0 0 0 2.056-1.488l1.487-1.205a6.078 6.078 0 0 0 1.904 1.249l.142.058a1.675 1.675 0 0 0-.429.635 1.505 1.505 0 0 0 .853 1.85l.103.043a1.494 1.494 0 0 0 1.78-2.138 6.15 6.15 0 0 0 1.314-.187l.909 1.86a1.522 1.522 0 0 0-.138 1.384 1.51 1.51 0 1 0 1.964-1.96.926.926 0 0 0-.253-.076l-.91-1.86a5.947 5.947 0 0 0 1.173-.909l-1.206-1.205a4.275 4.275 0 1 1-.002-6.036L16.23 7.82a5.919 5.919 0 0 0-1.178-.911l.458-1.104a1.496 1.496 0 1 0-1.578-.652l-.457 1.104a5.911 5.911 0 0 0-2.253-.136l-.359-1.618a1.48 1.48 0 0 0 .366-1.328A1.507 1.507 0 0 0 9.9 2.005zm1.402 7.083a1.284 1.284 0 1 0 .499.098 1.28 1.28 0 0 0-.499-.098zm1.624 4.333a.853.853 0 1 0 .332.064.842.842 0 0 0-.332-.064z"/></svg>