<svg xmlns="http://www.w3.org/2000/svg" width="24" height="24" viewBox="0 0 24 24">
  <path d="M9.90076,2.00594a1.39655,1.39655,0,0,0-.45853.03331,1.49489,1.49489,0,0,0-.24848,2.8366l.38339,1.70948a5.34093,5.34093,0,0,0-1.30559.7907,1.42122,1.42122,0,0,0-.45-.2963,1.5567,1.5567,0,0,0-1.14933-.01195,1.53954,1.53954,0,0,0-.81546,1.97076,1.79752,1.79752,0,0,0,.625.72239,6.17456,6.17456,0,0,0-.36632,1.28937l-1.14762-.152a1.49373,1.49373,0,0,0-.75057-.68823,1.02915,1.02915,0,0,0-.38168-.10246,1.4943,1.4943,0,0,0-.75911,2.86393,1.06848,1.06848,0,0,0,.38169.10332,1.48427,1.48427,0,0,0,1.28937-.4833l1.32608.16992a6.45815,6.45815,0,0,0,.70531,2.203l-1.51906,1.221a1.529,1.529,0,0,0-1.35768.28861,1.49177,1.49177,0,0,0-.21347,2.10056,1.5121,1.5121,0,0,0,.58662.43719,1.48963,1.48963,0,0,0,2.05615-1.48747l1.48662-1.20568A6.0777,6.0777,0,0,0,9.7223,17.568c.04782.01964.09478.03843.14175.05807a1.67547,1.67547,0,0,0-.42865.63529,1.505,1.505,0,0,0,.85217,1.84951c.0316.01366.07173.03074.10332.04355a1.49387,1.49387,0,0,0,1.7795-2.13813,6.15043,6.15043,0,0,0,1.31413-.187l.90939,1.85891a1.52246,1.52246,0,0,0-.13833,1.385,1.51,1.51,0,1,0,1.96479-1.95967.92644.92644,0,0,0-.25361-.07685l-.90938-1.85891a5.9466,5.9466,0,0,0,1.17238-.90938L15.02407,15.0627a4.27536,4.27536,0,1,1-.0017-6.03526l1.20739-1.20739a5.9188,5.9188,0,0,0-1.17751-.9111l.45768-1.10407a1.49584,1.49584,0,1,0-1.578-.65151l-.45682,1.10407a5.91143,5.91143,0,0,0-2.25341-.13662L10.86309,4.5027a1.47927,1.47927,0,0,0,.36546-1.32779,1.50705,1.50705,0,0,0-1.32779-1.169Zm1.40123,7.083a1.28362,1.28362,0,1,0,.49867.0982A1.2802,1.2802,0,0,0,11.302,9.08892Zm1.62409,4.33261a.85292.85292,0,1,0,.33216.064A.842.842,0,0,0,12.92608,13.42153Z"/>
</svg>
