<svg xmlns="http://www.w3.org/2000/svg" xml:space="preserve" width="192" height="192" viewBox="0 0 50.8 50.8"><path d="M40.345 38.733a19.45 19.45 0 0 1-21.222 4.582 19.45 19.45 0 0 1-12.245-17.93 19.45 19.45 0 0 1 11.99-18.1 19.45 19.45 0 0 1 21.286 4.283" style="fill:none;stroke:#000;stroke-width:3.175;stroke-linecap:round;stroke-linejoin:round;stroke-dasharray:none;stroke-opacity:1;paint-order:stroke markers fill"/><path d="M31.454 29.685a6.645 6.645 0 0 1-7.25 1.565 6.645 6.645 0 0 1-4.183-6.125 6.645 6.645 0 0 1 4.096-6.183 6.645 6.645 0 0 1 7.272 1.463" style="display:inline;fill:none;stroke:#000;stroke-width:3.175;stroke-linecap:round;stroke-linejoin:round;stroke-dasharray:none;stroke-opacity:1;paint-order:stroke markers fill"/><path d="m40.154 11.568-8.765 8.837m8.956 18.262-8.764-8.837" style="display:inline;fill:none;stroke:#000;stroke-width:3.175;stroke-linecap:round;stroke-linejoin:miter;stroke-dasharray:none;stroke-opacity:1"/><path d="M26.504 13.731h.016v3.874h-.016z" style="fill:none;stroke:#000;stroke-width:1.5875;stroke-linecap:round;stroke-linejoin:round;stroke-dasharray:none;stroke-opacity:1;paint-order:stroke markers fill"/><path d="M25.112-19.095h.016v3.874h-.016z" style="fill:none;stroke:#000;stroke-width:1.5875;stroke-linecap:round;stroke-linejoin:round;stroke-dasharray:none;stroke-opacity:1;paint-order:stroke markers fill" transform="rotate(90)"/><path d="M26.504 32.441h.016v3.874h-.016z" style="fill:none;stroke:#000;stroke-width:1.5875;stroke-linecap:round;stroke-linejoin:round;stroke-dasharray:none;stroke-opacity:1;paint-order:stroke markers fill"/><path d="M36.56 6.29h.016v3.874h-.016z" style="fill:none;stroke:#000;stroke-width:1.5875;stroke-linecap:round;stroke-linejoin:round;stroke-dasharray:none;stroke-opacity:1;paint-order:stroke markers fill" transform="rotate(45)"/><path d="M1.034-29.235h.016v3.874h-.016z" style="display:inline;fill:none;stroke:#000;stroke-width:1.5875;stroke-linecap:round;stroke-linejoin:round;stroke-dasharray:none;stroke-opacity:1;paint-order:stroke markers fill" transform="scale(1 -1) rotate(45)"/><circle cx="26.488" cy="13.385" r="1.587" style="fill:#000;fill-opacity:1;stroke:none;stroke-width:1.24979;stroke-linecap:round;stroke-linejoin:round;stroke-dasharray:none;stroke-opacity:1;paint-order:stroke markers fill"/><circle cx="18.232" cy="16.892" r="1.587" style="fill:#000;fill-opacity:1;stroke:none;stroke-width:1.24979;stroke-linecap:round;stroke-linejoin:round;stroke-dasharray:none;stroke-opacity:1;paint-order:stroke markers fill"/><circle cx="14.815" cy="25.175" r="1.587" style="fill:#000;fill-opacity:1;stroke:none;stroke-width:1.24979;stroke-linecap:round;stroke-linejoin:round;stroke-dasharray:none;stroke-opacity:1;paint-order:stroke markers fill"/><circle cx="18.232" cy="33.457" r="1.587" style="fill:#000;fill-opacity:1;stroke:none;stroke-width:1.24979;stroke-linecap:round;stroke-linejoin:round;stroke-dasharray:none;stroke-opacity:1;paint-order:stroke markers fill"/><circle cx="26.461" cy="36.915" r="1.587" style="display:inline;fill:#000;fill-opacity:1;stroke:none;stroke-width:1.24979;stroke-linecap:round;stroke-linejoin:round;stroke-dasharray:none;stroke-opacity:1;paint-order:stroke markers fill"/></svg>