<svg xmlns="http://www.w3.org/2000/svg" width="192" height="192" fill="none"><path stroke="#000" stroke-linecap="round" stroke-linejoin="round" stroke-width="10" d="m96 21 8.321 11.795 11.09-9.24 4.985 13.548 13.104-6.055 1.309 14.376 14.224-2.457-2.457 14.224 14.376 1.309-6.055 13.104 13.547 4.985-9.239 11.09L171 96l-11.795 8.321 9.239 11.09-13.547 4.985 6.055 13.104-14.376 1.309 2.457 14.224-14.224-2.457-1.309 14.376-13.104-6.055-4.985 13.547-11.09-9.239L96 171l-8.321-11.795-11.09 9.239-4.985-13.547-13.104 6.055-1.309-14.376-14.224 2.457 2.457-14.224-14.376-1.309 6.055-13.104-13.547-4.985 9.24-11.09L21 96l11.795-8.321-9.24-11.09 13.548-4.985L31.048 58.5l14.376-1.309-2.457-14.224 14.224 2.457L58.5 31.048l13.104 6.055 4.985-13.547 11.09 9.24z"/></svg>