<svg width="192" height="192" viewBox="0 0 192 192" fill="none" xmlns="http://www.w3.org/2000/svg"><circle cx="96" cy="96" r="74" stroke="#000" stroke-width="12" stroke-linecap="round" stroke-linejoin="round"/><path d="M112.838 55.35a43.998 43.998 0 0 1 17.923 13.674c2.031 2.618 1.018 6.32-1.851 7.976l-8.661 5.002c-2.868 1.656-6.492.594-8.859-1.723A21.927 21.927 0 0 0 96 74c-12.15 0-22 9.85-22 22s9.85 22 22 22a21.927 21.927 0 0 0 15.39-6.279c2.366-2.316 5.989-3.378 8.857-1.722l8.662 5.001c2.87 1.657 3.883 5.358 1.852 7.976a44.003 44.003 0 0 1-69.668-.19 44.003 44.003 0 0 1 0-53.572 44 44 0 0 1 51.745-13.865Z" stroke="#000" stroke-width="10" stroke-linecap="round" stroke-linejoin="round"/></svg>