<svg width="192" height="192" viewBox="0 0 192 192" fill="none" xmlns="http://www.w3.org/2000/svg"><path d="M127 62a40.034 40.034 0 0 0-15.69 3.208 40.949 40.949 0 0 0-13.301 9.136 42.243 42.243 0 0 0-8.888 13.672A43.168 43.168 0 0 0 86 104.144c0 5.535 1.06 11.015 3.12 16.128a42.23 42.23 0 0 0 8.889 13.673 40.944 40.944 0 0 0 13.301 9.136A40.089 40.089 0 0 0 122.208 146" stroke="#000" stroke-width="12" stroke-linecap="round" stroke-linejoin="round"/><circle cx="119" cy="85" r="3" stroke="#000" stroke-width="6" stroke-linecap="round" stroke-linejoin="round"/><circle cx="111" cy="114" r="3" stroke="#000" stroke-width="6" stroke-linecap="round" stroke-linejoin="round"/><path d="m117.696 170-90.144-8.803c-4.012-.392-6.566-4.46-5.164-8.224L66.272 35.178a6.143 6.143 0 0 1 5.076-3.954l81.879-9.184c4.381-.491 7.842 3.634 6.577 7.84L117.696 170Zm0 0 50.461-49.474c3.695-3.623 1.505-9.895-3.65-10.452l-26.555-2.866M86 61l12 11m-30 45 17-5" stroke="#000" stroke-width="12" stroke-linecap="round" stroke-linejoin="round"/><path d="M146.5 63s-7-1-20-1" stroke="#000" stroke-width="12" stroke-linecap="round" stroke-linejoin="round"/></svg>