<svg xmlns="http://www.w3.org/2000/svg" width="192" height="192" viewBox="0 0 192 192"><path d="M129.604 164H85.733V69.088h68.253v55.242c0 3.311 2.689 6 6 6s6-2.689 6-6V69.088c0-6.623-5.377-12-12-12H85.733c-6.623 0-12 5.377-12 12V164c0 6.623 5.377 12 12 12h43.871c3.311 0 6-2.689 6-6s-2.689-6-6-6m6.025-7.484 9.414 9.414a6 6 0 0 0 8.485 0l20.715-20.715a6.004 6.004 0 0 0 0-8.485 6.005 6.005 0 0 0-8.486 0l-16.471 16.472-5.171-5.171a6.003 6.003 0 0 0-8.486 0 6.004 6.004 0 0 0 0 8.485m3.533-49.834h-8.534a6 6 0 0 0-6 6v8.534c0 3.311 2.689 6 6 6s6-2.689 6-6v-2.534h2.534c3.311 0 6-2.688 6-6s-2.689-6-6-6m-24.071 6a6 6 0 0 0-6-6h-8.534a6 6 0 0 0-6 6v8.534a6 6 0 0 0 6 6h8.534a6 6 0 0 0 6-6zm30.071-30.071a6 6 0 0 0-6-6h-8.534a6 6 0 0 0-6 6v8.534a6 6 0 0 0 6 6h8.534a6 6 0 0 0 6-6zm-30.071 0a6 6 0 0 0-6-6h-8.534a6 6 0 0 0-6 6v8.534a6 6 0 0 0 6 6h8.534a6 6 0 0 0 6-6zM41.144 16c-7.008 0-14.017 1.18-21.024 3.493A6 6 0 0 0 16 25.191c0 17.158.58 34.982 22.725 44.735a6 6 0 0 0 4.837 0c22.145-9.753 22.725-27.577 22.725-44.735a6 6 0 0 0-4.12-5.698C55.16 17.18 48.151 16 41.144 16m0 12c4.383 0 8.766.574 13.149 1.687-.042 10.69-.965 21.523-13.149 28.079-12.185-6.555-13.107-17.389-13.15-28.079C32.378 28.574 36.76 28 41.144 28"/></svg>