<svg width="192" height="192" fill="none" xmlns="http://www.w3.org/2000/svg"><circle cx="127" cy="134" r="36" stroke="#000" stroke-width="12" stroke-linecap="round" stroke-linejoin="round"/><path d="M133 98V28a6 6 0 0 0-6-6H39a6 6 0 0 0-6 6v124a6 6 0 0 0 6 6h60" stroke="#000" stroke-width="12" stroke-linecap="round" stroke-linejoin="round"/><path d="M68 43h-8a6 6 0 0 0-6 6v8a6 6 0 0 0 6 6h8a6 6 0 0 0 6-6v-8a6 6 0 0 0-6-6Zm0 38h-8a6 6 0 0 0-6 6v8a6 6 0 0 0 6 6h8a6 6 0 0 0 6-6v-8a6 6 0 0 0-6-6Zm38-38h-8a6 6 0 0 0-6 6v8a6 6 0 0 0 6 6h8a6 6 0 0 0 6-6v-8a6 6 0 0 0-6-6Zm6 38H98a6 6 0 0 0-6 6v4m-35 29h36m-29 18h26" stroke="#000" stroke-width="10" stroke-linecap="round" stroke-linejoin="round"/><path d="m114 137 8 8 18-18" stroke="#000" stroke-width="12" stroke-linecap="round" stroke-linejoin="round"/></svg>