<?xml version="1.0" encoding="UTF-8" standalone="no"?>
<svg
   width="100%"
   height="100%"
   viewBox="0 0 192 192"
   version="1.1"
   xml:space="preserve"
   style="fill-rule:evenodd;clip-rule:evenodd;stroke-linejoin:round;stroke-miterlimit:2;"
   id="svg493"
   sodipodi:docname="covid_cert.svg"
   inkscape:version="1.2.1 (9c6d41e410, 2022-07-14)"
   xmlns:inkscape="http://www.inkscape.org/namespaces/inkscape"
   xmlns:sodipodi="http://sodipodi.sourceforge.net/DTD/sodipodi-0.dtd"
   xmlns="http://www.w3.org/2000/svg"
   xmlns:svg="http://www.w3.org/2000/svg"><defs
   id="defs497" /><sodipodi:namedview
   id="namedview495"
   pagecolor="#ffffff"
   bordercolor="#000000"
   borderopacity="0.25"
   inkscape:showpageshadow="2"
   inkscape:pageopacity="0.0"
   inkscape:pagecheckerboard="0"
   inkscape:deskcolor="#d1d1d1"
   showgrid="false"
   inkscape:zoom="5.3489583"
   inkscape:cx="96.093476"
   inkscape:cy="95.906524"
   inkscape:window-width="1274"
   inkscape:window-height="1303"
   inkscape:window-x="1282"
   inkscape:window-y="36"
   inkscape:window-maximized="0"
   inkscape:current-layer="svg493" />
    <path
   d="M74.122,351.066C74.122,351.066 74.122,274.461 74.122,274.461C74.122,274.461 128.633,274.461 128.633,274.461C128.633,274.461 128.633,316.831 128.633,316.831C128.633,320.142 131.321,322.831 134.633,322.831C137.944,322.831 140.633,320.142 140.633,316.831L140.633,274.461C140.633,267.838 135.256,262.461 128.633,262.461L74.122,262.461C67.499,262.461 62.122,267.838 62.122,274.461C62.122,274.461 62.122,351.066 62.122,351.066C62.122,357.689 67.499,363.066 74.122,363.066L105.742,363.066C109.054,363.066 111.742,360.377 111.742,357.066C111.742,353.754 109.054,351.066 105.742,351.066L74.122,351.066ZM113.72,346.617L121.522,354.419C123.865,356.762 127.664,356.762 130.007,354.419L147.174,337.252C149.516,334.91 149.516,331.108 147.174,328.766C144.833,326.425 141.031,326.425 138.689,328.766L125.765,341.691C125.765,341.691 122.205,338.132 122.205,338.132C119.864,335.79 116.062,335.79 113.72,338.132C111.378,340.473 111.378,344.275 113.72,346.617ZM99.522,309.24C99.522,305.927 96.836,303.24 93.522,303.24L85.522,303.24C82.208,303.24 79.522,305.927 79.522,309.24L79.522,317.24C79.522,320.554 82.208,323.24 85.522,323.24L93.522,323.24C96.836,323.24 99.522,320.554 99.522,317.24L99.522,309.24ZM117.963,303.24L109.963,303.24C106.649,303.24 103.963,305.927 103.963,309.24L103.963,317.24C103.963,320.552 106.651,323.24 109.963,323.24C113.274,323.24 115.963,320.552 115.963,317.24L115.963,315.24C115.963,315.24 117.963,315.24 117.963,315.24C121.274,315.24 123.963,312.552 123.963,309.24C123.963,305.929 121.274,303.24 117.963,303.24ZM123.963,284.799C123.963,281.486 121.276,278.799 117.963,278.799L109.963,278.799C106.649,278.799 103.963,281.486 103.963,284.799L103.963,292.799C103.963,296.113 106.649,298.799 109.963,298.799L117.963,298.799C121.276,298.799 123.963,296.113 123.963,292.799L123.963,284.799ZM99.522,284.799C99.522,281.486 96.836,278.799 93.522,278.799L85.522,278.799C82.208,278.799 79.522,281.486 79.522,284.799L79.522,292.799C79.522,296.113 82.208,298.799 85.522,298.799L93.522,298.799C96.836,298.799 99.522,296.113 99.522,292.799L99.522,284.799ZM41.144,228C34.136,228 27.127,229.18 20.12,231.493C17.661,232.304 16,234.601 16,237.191C16,254.349 16.58,272.173 38.725,281.926C40.266,282.604 42.021,282.604 43.562,281.926C65.707,272.173 66.287,254.349 66.287,237.191C66.287,234.601 64.626,232.304 62.167,231.493C55.16,229.18 48.151,228 41.144,228ZM41.144,240C45.527,240 49.91,240.574 54.293,241.687C54.251,252.377 53.328,263.21 41.144,269.766C28.959,263.211 28.037,252.377 27.994,241.687C32.378,240.574 36.76,240 41.144,240Z"
   id="path487"
   style="fill-rule:evenodd;clip-rule:evenodd;stroke-linejoin:round;stroke-miterlimit:2"
   transform="translate(0,-212)"
   inkscape:label="covid_cert" />
</svg>
