<svg xmlns="http://www.w3.org/2000/svg" xml:space="preserve" style="fill-rule:evenodd;clip-rule:evenodd;stroke-linejoin:round;stroke-miterlimit:2" viewBox="0 0 192 192"><path d="M553.604 376h-43.871v-94.912h68.253v55.242c0 3.311 2.689 6 6 6 3.312 0 6-2.689 6-6v-55.242c0-6.623-5.377-12-12-12h-68.253c-6.623 0-12 5.377-12 12V376c0 6.623 5.377 12 12 12h43.871c3.311 0 6-2.689 6-6s-2.689-6-6-6Zm6.025-7.484 9.414 9.414a6 6 0 0 0 8.485 0l20.715-20.715a6.004 6.004 0 0 0 0-8.485 6.005 6.005 0 0 0-8.486 0l-16.471 16.472-5.171-5.171a6.003 6.003 0 0 0-8.486 0 6.004 6.004 0 0 0 0 8.485Zm3.533-49.834h-8.534a6 6 0 0 0-6 6v8.534c0 3.311 2.689 6 6 6 3.312 0 6-2.689 6-6v-2.534h2.534c3.311 0 6-2.688 6-6 0-3.311-2.689-6-6-6Zm-24.071 6a6 6 0 0 0-6-6h-8.534a6 6 0 0 0-6 6v8.534a6 6 0 0 0 6 6h8.534a6 6 0 0 0 6-6v-8.534Zm30.071-30.071a6 6 0 0 0-6-6h-8.534a6 6 0 0 0-6 6v8.534a6 6 0 0 0 6 6h8.534a6 6 0 0 0 6-6v-8.534Zm-30.071 0a6 6 0 0 0-6-6h-8.534a6 6 0 0 0-6 6v8.534a6 6 0 0 0 6 6h8.534a6 6 0 0 0 6-6v-8.534ZM465.144 228c-7.008 0-14.017 1.18-21.024 3.493a6 6 0 0 0-4.12 5.698c0 17.158.58 34.982 22.725 44.735a6.006 6.006 0 0 0 4.837 0c22.145-9.753 22.725-27.577 22.725-44.735a6 6 0 0 0-4.12-5.698C479.16 229.18 472.151 228 465.144 228Zm0 12c4.383 0 8.766.574 13.149 1.687-.042 10.69-.965 21.523-13.149 28.079-12.185-6.555-13.107-17.389-13.15-28.079 4.384-1.113 8.766-1.687 13.15-1.687Z" style="fill-rule:evenodd;clip-rule:evenodd;stroke-linejoin:round;stroke-miterlimit:2" transform="translate(-424 -212)"/></svg>