<svg xmlns="http://www.w3.org/2000/svg" width="192" height="192" fill="none"><circle cx="127" cy="134" r="36" stroke="#000" stroke-linecap="round" stroke-linejoin="round" stroke-width="12"/><path stroke="#000" stroke-linecap="round" stroke-linejoin="round" stroke-width="12" d="M133 98V28a6 6 0 0 0-6-6H39a6 6 0 0 0-6 6v124a6 6 0 0 0 6 6h60"/><path stroke="#000" stroke-linecap="round" stroke-linejoin="round" stroke-width="10" d="M68 43h-8a6 6 0 0 0-6 6v8a6 6 0 0 0 6 6h8a6 6 0 0 0 6-6v-8a6 6 0 0 0-6-6m0 38h-8a6 6 0 0 0-6 6v8a6 6 0 0 0 6 6h8a6 6 0 0 0 6-6v-8a6 6 0 0 0-6-6m38-38h-8a6 6 0 0 0-6 6v8a6 6 0 0 0 6 6h8a6 6 0 0 0 6-6v-8a6 6 0 0 0-6-6m6 38H98a6 6 0 0 0-6 6v4m-35 29h36m-29 18h26"/><path stroke="#000" stroke-linecap="round" stroke-linejoin="round" stroke-width="12" d="m114 137 8 8 18-18"/></svg>