<svg xmlns="http://www.w3.org/2000/svg" width="24" height="24" viewBox="0 0 24 24"><path d="m12.143 2.02.025.008 7.821 2.352a.585.585 0 0 1 .416.54v.351l-2.562.655a.14.14 0 0 0-.053.027l-.011.01-5.712 5.671a.14.14 0 0 1-.188.009l-.01-.01L8.673 8.43a.14.14 0 0 0-.189-.01l-.01.01-1.318 1.322a.14.14 0 0 0-.01.187l.01.01 4.712 4.724a.14.14 0 0 0 .189.01l.01-.01 8.339-8.358v7.254a5.147 5.147 0 0 1-.881 2.756 3.758 3.758 0 0 0-.66-.164l.04-.84.033.003h.018a.37.37 0 0 0 .37-.355.377.377 0 0 0-.351-.397l-.807-.045h-.034a.37.37 0 0 0-.354.355.377.377 0 0 0 .352.396l.033.002-.041.84a3.772 3.772 0 0 0-1.29.284l-.37-.735.029-.016.016-.008a.378.378 0 0 0 .144-.497.37.37 0 0 0-.498-.166l-.719.37-.016.009a.378.378 0 0 0-.145.497.37.37 0 0 0 .5.166l.029-.015.375.745a3.824 3.824 0 0 0-.973.938l-.722-.418.017-.029.008-.016a.37.37 0 0 0-.65-.355l-.404.701-.01.016a.37.37 0 0 0 .652.356l.016-.03.719.417a3.79 3.79 0 0 0-.31 1.062l-.852-.027.001-.033v-.017a.37.37 0 0 0-.36-.366.376.376 0 0 0-.39.36l-.03.81v.017a.37.37 0 0 0 .36.365.376.376 0 0 0 .39-.36v-.032l.85.026a3.82 3.82 0 0 0 .074.564 24.022 24.022 0 0 1-2.326 1.243.582.582 0 0 1-.478 0 25.153 25.153 0 0 1-4.014-2.357 13.935 13.935 0 0 1-2.806-2.606 5.613 5.613 0 0 1-1.346-3.363V4.942a.586.586 0 0 1 .395-.555l.02-.007 7.822-2.352a.583.583 0 0 1 .31-.007Z"/></svg>