<svg width="192" height="192" viewBox="0 0 192 192" fill="none" xmlns="http://www.w3.org/2000/svg">
<rect x="39" y="39" width="115" height="115" rx="6" stroke="black" stroke-width="8"/>
<rect x="80" y="80" width="32" height="32" rx="6" stroke="black" stroke-width="8"/>
<path d="M56 20L56 38" stroke="black" stroke-width="8" stroke-linecap="round" stroke-linejoin="round"/>
<path d="M56 154L56 173" stroke="black" stroke-width="8" stroke-linecap="round" stroke-linejoin="round"/>
<path d="M110 20L110 38" stroke="black" stroke-width="8" stroke-linecap="round" stroke-linejoin="round"/>
<path d="M110 154L110 173" stroke="black" stroke-width="8" stroke-linecap="round" stroke-linejoin="round"/>
<path d="M83 20L83 38" stroke="black" stroke-width="8" stroke-linecap="round" stroke-linejoin="round"/>
<path d="M83 154L83 173" stroke="black" stroke-width="8" stroke-linecap="round" stroke-linejoin="round"/>
<path d="M137 20L137 38" stroke="black" stroke-width="8" stroke-linecap="round" stroke-linejoin="round"/>
<path d="M137 155L137 173" stroke="black" stroke-width="8" stroke-linecap="round" stroke-linejoin="round"/>
<path d="M172.5 56.5H154.5" stroke="black" stroke-width="8" stroke-linecap="round" stroke-linejoin="round"/>
<path d="M38.5 56.5H19.5" stroke="black" stroke-width="8" stroke-linecap="round" stroke-linejoin="round"/>
<path d="M172.5 110.5L154.5 110.5" stroke="black" stroke-width="8" stroke-linecap="round" stroke-linejoin="round"/>
<path d="M38.5 110.5L19.5 110.5" stroke="black" stroke-width="8" stroke-linecap="round" stroke-linejoin="round"/>
<path d="M172.5 83.5L154.5 83.5" stroke="black" stroke-width="8" stroke-linecap="round" stroke-linejoin="round"/>
<path d="M38.5 83.5L19.5 83.5" stroke="black" stroke-width="8" stroke-linecap="round" stroke-linejoin="round"/>
<path d="M172.5 137.5L154.5 137.5" stroke="black" stroke-width="8" stroke-linecap="round" stroke-linejoin="round"/>
<path d="M37.5 137.5L19.5 137.5" stroke="black" stroke-width="8" stroke-linecap="round" stroke-linejoin="round"/>
<path d="M84 153L84 135" stroke="black" stroke-width="8" stroke-linecap="round" stroke-linejoin="round"/>
<path d="M84 39L84 57" stroke="black" stroke-width="8" stroke-linecap="round" stroke-linejoin="round"/>
<path d="M107 152L107 134.5" stroke="black" stroke-width="8" stroke-linecap="round" stroke-linejoin="round"/>
<path d="M107 40L107 57.5" stroke="black" stroke-width="8" stroke-linecap="round" stroke-linejoin="round"/>
<circle cx="84" cy="133" r="9" transform="rotate(-90 84 133)" fill="black"/>
<circle cx="9" cy="9" r="9" transform="matrix(4.37114e-08 1 1 -4.37114e-08 75 50)" fill="black"/>
<circle cx="107" cy="133" r="9" transform="rotate(-90 107 133)" fill="black"/>
<circle cx="9" cy="9" r="9" transform="matrix(4.37114e-08 1 1 -4.37114e-08 98 50)" fill="black"/>
<path d="M38.5 84.5H56.5" stroke="black" stroke-width="8" stroke-linecap="round" stroke-linejoin="round"/>
<path d="M152.5 84.5H134.5" stroke="black" stroke-width="8" stroke-linecap="round" stroke-linejoin="round"/>
<path d="M39.5 107.5H57" stroke="black" stroke-width="8" stroke-linecap="round" stroke-linejoin="round"/>
<path d="M151.5 107.5H134" stroke="black" stroke-width="8" stroke-linecap="round" stroke-linejoin="round"/>
<circle cx="58.5" cy="84.5" r="9" fill="black"/>
<circle cx="9" cy="9" r="9" transform="matrix(-1 0 0 1 141.5 75.5)" fill="black"/>
<circle cx="58.5" cy="107.5" r="9" fill="black"/>
<circle cx="9" cy="9" r="9" transform="matrix(-1 0 0 1 141.5 98.5)" fill="black"/>
</svg>
