<?xml version="1.0" encoding="UTF-8" standalone="no"?>
<svg
   width="192"
   height="192"
   viewBox="0 0 192 192"
   fill="none"
   version="1.1"
   id="svg14"
   sodipodi:docname="cpu_info.svg"
   inkscape:version="1.2.2 (b0a8486541, 2022-12-01)"
   xmlns:inkscape="http://www.inkscape.org/namespaces/inkscape"
   xmlns:sodipodi="http://sodipodi.sourceforge.net/DTD/sodipodi-0.dtd"
   xmlns="http://www.w3.org/2000/svg"
   xmlns:svg="http://www.w3.org/2000/svg">
  <defs
     id="defs18">
    <inkscape:path-effect
       effect="powerclip"
       id="path-effect5969"
       is_visible="true"
       lpeversion="1"
       inverse="true"
       flatten="false"
       hide_clip="false"
       message="Use fill-rule evenodd on &lt;b&gt;fill and stroke&lt;/b&gt; dialog if no flatten result after convert clip to paths." />
    <inkscape:path-effect
       effect="powerclip"
       id="path-effect3933"
       is_visible="true"
       lpeversion="1"
       inverse="true"
       flatten="true"
       hide_clip="false"
       message="Use fill-rule evenodd on &lt;b&gt;fill and stroke&lt;/b&gt; dialog if no flatten result after convert clip to paths." />
    <inkscape:path-effect
       effect="fillet_chamfer"
       id="path-effect3204"
       is_visible="true"
       lpeversion="1"
       nodesatellites_param="F,0,0,1,0,6,0,1 @ F,0,0,1,0,6,0,1 @ F,0,0,1,0,6,0,1 @ F,0,0,1,0,6,0,1"
       unit="px"
       method="auto"
       mode="F"
       radius="6"
       chamfer_steps="1"
       flexible="false"
       use_knot_distance="true"
       apply_no_radius="true"
       apply_with_radius="true"
       only_selected="false"
       hide_knots="false" />
    <filter
       id="mask-powermask-path-effect3828_inverse"
       inkscape:label="filtermask-powermask-path-effect3828"
       style="color-interpolation-filters:sRGB"
       height="100"
       width="100"
       x="-50"
       y="-50">
      <feColorMatrix
         id="mask-powermask-path-effect3828_primitive1"
         values="1"
         type="saturate"
         result="fbSourceGraphic" />
      <feColorMatrix
         id="mask-powermask-path-effect3828_primitive2"
         values="-1 0 0 0 1 0 -1 0 0 1 0 0 -1 0 1 0 0 0 1 0 "
         in="fbSourceGraphic" />
    </filter>
    <filter
       id="mask-powermask-path-effect3854_inverse"
       inkscape:label="filtermask-powermask-path-effect3854"
       style="color-interpolation-filters:sRGB"
       height="100"
       width="100"
       x="-50"
       y="-50">
      <feColorMatrix
         id="mask-powermask-path-effect3854_primitive1"
         values="1"
         type="saturate"
         result="fbSourceGraphic" />
      <feColorMatrix
         id="mask-powermask-path-effect3854_primitive2"
         values="-1 0 0 0 1 0 -1 0 0 1 0 0 -1 0 1 0 0 0 1 0 "
         in="fbSourceGraphic" />
    </filter>
    <filter
       id="mask-powermask-path-effect3872_inverse"
       inkscape:label="filtermask-powermask-path-effect3872"
       style="color-interpolation-filters:sRGB"
       height="100"
       width="100"
       x="-50"
       y="-50">
      <feColorMatrix
         id="mask-powermask-path-effect3872_primitive1"
         values="1"
         type="saturate"
         result="fbSourceGraphic" />
      <feColorMatrix
         id="mask-powermask-path-effect3872_primitive2"
         values="-1 0 0 0 1 0 -1 0 0 1 0 0 -1 0 1 0 0 0 1 0 "
         in="fbSourceGraphic" />
    </filter>
    <filter
       id="mask-powermask-path-effect3891_inverse"
       inkscape:label="filtermask-powermask-path-effect3891"
       style="color-interpolation-filters:sRGB"
       height="100"
       width="100"
       x="-50"
       y="-50">
      <feColorMatrix
         id="mask-powermask-path-effect3891_primitive1"
         values="1"
         type="saturate"
         result="fbSourceGraphic" />
      <feColorMatrix
         id="mask-powermask-path-effect3891_primitive2"
         values="-1 0 0 0 1 0 -1 0 0 1 0 0 -1 0 1 0 0 0 1 0 "
         in="fbSourceGraphic" />
    </filter>
    <clipPath
       clipPathUnits="userSpaceOnUse"
       id="clipPath3929">
      <circle
         style="display:none;fill:#ffffff;fill-opacity:1;stroke:none;stroke-width:12;stroke-dasharray:none"
         id="circle3931"
         clip-path="none"
         mask="none"
         r="6"
         cy="117.5"
         cx="117.5" />
    </clipPath>
    <clipPath
       clipPathUnits="userSpaceOnUse"
       id="clipPath5965">
      <path
         id="lpe_path-effect5969"
         style="fill:#000000;fill-opacity:1;stroke:none;stroke-width:12;stroke-dasharray:none"
         class="powerclip"
         d="M 53.303001,53.303001 H 138.697 V 138.697 H 53.303001 Z M 121.697,115.697 a 6,6 0 0 0 -6,-6 6,6 0 0 0 -6,6 6,6 0 0 0 6,6 6,6 0 0 0 6,-6 z" />
    </clipPath>
  </defs>
  <sodipodi:namedview
     id="namedview16"
     pagecolor="#ffffff"
     bordercolor="#666666"
     borderopacity="1.0"
     inkscape:showpageshadow="2"
     inkscape:pageopacity="0"
     inkscape:pagecheckerboard="0"
     inkscape:deskcolor="#d1d1d1"
     showgrid="false"
     inkscape:zoom="4"
     inkscape:cx="109"
     inkscape:cy="91.25"
     inkscape:window-width="1920"
     inkscape:window-height="1011"
     inkscape:window-x="0"
     inkscape:window-y="0"
     inkscape:window-maximized="1"
     inkscape:current-layer="svg14" />
  <path
     d="M 146.30053,40.379263 H 46.666342 a 5.8031579,5.8031579 0 0 0 -5.803158,5.803158 v 99.634189 a 5.8041316,5.8041316 0 0 0 5.803158,5.80413 h 99.634188 a 5.8041316,5.8041316 0 0 0 5.80413,-5.80413 V 46.183395 a 5.8041316,5.8041316 0 0 0 -5.80413,-5.804132 z"
     stroke="#000000"
     stroke-width="8"
     id="path2"
     style="stroke-width:12;stroke-dasharray:none" />
  <path
     d="m 57.306763,22 v 17.411421 m 0,112.209319 V 170 M 109.542,22 v 17.411421 m 0,112.209319 V 170 M 83.424868,22 v 17.411421 m 0,112.209319 V 170 M 135.66011,22 v 17.411421 m 0,113.177159 V 170 M 170,57.306763 h -17.41142 m -112.209317,0 H 22 m 148,52.236207 h -17.41142 m -112.209317,0 H 22 M 170,83.424868 h -17.41142 m -112.209317,0 H 22 m 148,52.235242 h -17.41142 m -113.177159,0 H 22"
     stroke="#000000"
     stroke-width="8"
     stroke-linecap="round"
     stroke-linejoin="round"
     id="path6"
     sodipodi:nodetypes="cccccccccccccccccccccccccccccccc"
     style="stroke-width:12;stroke-dasharray:none" />
  <path
     id="rect5961"
     clip-path="url(#clipPath5965)"
     d="M 64.303001,58.303001 H 127.697 c 3.324,0 6,2.676 6,6 V 127.697 c 0,3.324 -2.676,6 -6,6 H 64.303001 c -3.324,0 -6,-2.676 -6,-6 V 64.303001 c 0,-3.324 2.676,-6 6,-6 z"
     style="fill:#000000;fill-opacity:1;stroke:none;stroke-width:12;stroke-dasharray:none" />
</svg>
