<svg xmlns="http://www.w3.org/2000/svg" width="192" height="192" fill="none"><rect width="68" height="68" x="62" y="62" stroke="#000" stroke-linecap="round" stroke-linejoin="round" stroke-width="10" rx="6"/><rect width="118" height="118" x="37" y="37" stroke="#000" stroke-linecap="round" stroke-linejoin="round" stroke-width="12" rx="6"/><path stroke="#000" stroke-linecap="round" stroke-linejoin="round" stroke-width="12" d="M83 22v15m87 46h-15m-72 72v15M37 83H22m87-61v15m61 72h-15m-46 46v15m-72-61H22m113-87v15m35 98h-15m-20 20v15m-98-35H22M57 22v15m113 20h-15m-98 98v15M37 57H22"/><circle cx="109" cy="109" r="3" stroke="#000" stroke-linecap="round" stroke-linejoin="round" stroke-width="6"/></svg>