<svg xmlns="http://www.w3.org/2000/svg" width="192" height="192" fill="none" stroke="#000" stroke-linecap="round" stroke-width="8" viewBox="0 0 192 192"><path stroke-width="12" d="M40 146V46a6 6 0 0 1 6-6h100a6 6 0 0 1 6 6v100a6 6 0 0 1-6 6H46a6 6 0 0 1-6-6Z"/><path d="M54 21v18m117 15h-18M54 171v-18M21 54h18m43-33v36m89 25h-36m-53 89v-36M21 82h36m53-61v36m61 53h-36m-25 61v-36m-89-25h36m81-89v18m33 99h-18m-15 33v-18M21 138h18"/><path stroke-width="10" d="M80 106V86a6 6 0 0 1 6-6h20a6 6 0 0 1 6 6v20a6 6 0 0 1-6 6H86a6 6 0 0 1-6-6Z"/><circle cx="82" cy="60" r="4"/><circle cx="132" cy="82" r="4"/><circle cx="4" cy="4" r="4" transform="matrix(1 0 0 -1 78 136)"/><circle cx="4" cy="4" r="4" transform="matrix(0 1 1 0 56 78)"/><circle cx="110" cy="60" r="4"/><circle cx="132" cy="110" r="4"/><circle cx="4" cy="4" r="4" transform="matrix(1 0 0 -1 106 136)"/><circle cx="4" cy="4" r="4" transform="matrix(0 1 1 0 56 106)"/></svg>