<svg width="192" height="192" viewBox="0 0 192 192" fill="none" xmlns="http://www.w3.org/2000/svg"><rect x="37" y="37" width="118" height="118" rx="10" stroke="#000" stroke-width="12" stroke-linecap="round" stroke-linejoin="round"/><path d="M21 96h16m118 0h16M21 118h16m118 0h16M21 140h16m118 0h16M21 74h16m118 0h16M21 52h16m118 0h16M96 21v16m0 118v16m22-150v16m0 118v16m22-150v16m0 118v16M74 21v16m0 118v16M52 21v16m0 118v16" stroke="#000" stroke-width="10" stroke-linecap="round" stroke-linejoin="round"/></svg>