<svg xmlns="http://www.w3.org/2000/svg" width="192" height="192" fill="none" stroke="#000" stroke-linecap="round" stroke-linejoin="round" stroke-miterlimit="6" viewBox="0 0 192 192"><path stroke-width="12" d="M145.607 65.69c-1.706-7.918-8.525-15.425-17.282-17.407-3.987-1.089-8.955-1.823-12.037-2.044-7.66-.537-16.174-1.184-23.352-.895-6.696.454-13.176.844-19.918 2.18-18.41 2.823-18.49 14.408-20.737 22.544-3.871 18.118-3.835 39.147 1.37 57.038 1.852 9.275 7.848 14.942 13.024 16.094 17.857 4.846 40.41 4.43 56.823 1.65 8.799-1.482 13.321-4.213 17.125-8.399 1.495-1.635 3.526-5.442 4.979-9.68q.156-.847.964-.517L167.564 135c.582.241.909.858.777 1.468-5.34 17.06-15.446 25.277-31.797 29.277-9.7 2.46-20.072 3.731-31.114 4.124-14.911.53-30.004-.54-43.685-3.373-10.747-2.166-20.869-6.503-26.663-16.375-4.084-6.96-7.178-15.272-8.695-23.978-3.793-19.613-3.689-39.63-.117-59.693 1.625-9.277 4.7-17.881 9.185-25.138 7.338-11.867 20.75-14.617 34.11-16.932 18.386-3.004 36.494-3.217 55.08-.35 16.087 2.424 27.316 6.343 34.575 14.841 5.247 6.379 6.772 9.55 9.195 16.995a1.18 1.18 0 0 1-.715 1.312l-21.46 8.833a.467.467 0 0 1-.633-.32z"/><path stroke-width="8" d="m93.271 87.763 14.297 8.328-14.297 8.418z"/></svg>