<?xml version="1.0" standalone="no"?>
<!DOCTYPE svg PUBLIC "-//W3C//DTD SVG 20010904//EN"
 "http://www.w3.org/TR/2001/REC-SVG-20010904/DTD/svg10.dtd">
<svg version="1.0" xmlns="http://www.w3.org/2000/svg"
 width="192" height="192" viewBox="0 0 192 192"
 preserveAspectRatio="xMidYMid meet">
<metadata>
Created by potrace 1.16, written by Peter Selinger 2001-2019
</metadata>
<g transform="translate(0.000000,256.000000) scale(0.100000,-0.100000)"
fill="#000000" stroke="none">
<path d="M2550 1790 l0 -770 -355 0 c-312 0 -359 2 -381 16 -23 15 -26 15 -43
0 -11 -10 -35 -16 -63 -16 -44 0 -46 1 -44 28 1 15 7 36 13 47 16 30 2 168
-20 192 -9 11 -17 27 -17 36 0 22 -91 117 -113 117 -9 0 -26 9 -37 20 -21 21
-74 27 -85 10 -4 -6 -16 -3 -31 7 -21 13 -31 14 -63 4 -22 -6 -42 -18 -45 -26
-4 -12 -15 -14 -44 -9 -32 5 -43 2 -70 -21 -18 -15 -32 -33 -32 -41 0 -9 -11
-14 -29 -14 -30 0 -81 -47 -81 -76 0 -7 -11 -21 -26 -30 -27 -18 -54 -63 -54
-89 0 -9 -9 -28 -21 -44 -11 -15 -23 -46 -26 -69 l-6 -41 -198 -3 c-192 -3
-198 -2 -201 17 -4 29 -48 33 -55 6 -5 -20 -11 -21 -214 -21 l-209 0 0 -510 0
-510 1280 0 1280 0 0 1280 c0 704 -2 1280 -5 1280 -3 0 -5 -346 -5 -770z
m-1083 -519 c31 -16 73 -91 73 -129 0 -74 -38 -102 -138 -102 -43 0 -61 5 -78
21 -27 25 -48 16 -40 -17 6 -24 5 -24 -65 -24 l-72 0 6 49 c3 27 15 67 26 88
29 58 102 120 148 128 21 4 43 8 48 9 15 4 67 -9 92 -23z m53 -290 c0 -12 -20
-25 -27 -18 -7 7 6 27 18 27 5 0 9 -4 9 -9z m404 -185 c-6 -16 -24 -23 -24 -8
0 10 22 33 27 28 2 -2 1 -11 -3 -20z m-377 -428 c13 -12 23 -25 23 -30 0 -10
-65 23 -95 47 -19 16 -19 16 15 11 19 -4 44 -16 57 -28z"/>
<path d="M1340 1232 c0 -31 5 -43 25 -56 23 -15 25 -15 35 3 15 29 13 33 -25
64 l-35 28 0 -39z"/>
<path d="M974 2015 c-8 -19 -6 -20 24 -30 21 -6 23 -5 13 13 -16 29 -30 36
-37 17z"/>
<path d="M875 1925 c-20 -15 -20 -15 -1 -30 11 -8 33 -15 49 -15 25 0 28 3 25
28 -4 32 -41 42 -73 17z"/>
<path d="M1060 1870 c0 -5 -14 -13 -30 -19 -17 -5 -44 -19 -59 -31 -34 -23
-53 -26 -45 -6 7 18 -24 48 -45 44 -9 -2 -22 -16 -29 -31 -14 -30 -33 -30 -78
-1 -21 12 -22 11 -29 -22 -4 -22 -2 -41 6 -50 18 -21 -4 -40 -53 -47 -24 -3
-44 -11 -46 -16 -2 -6 -8 -8 -13 -5 -6 3 -7 -6 -3 -23 15 -70 7 -65 107 -60
51 2 137 7 192 9 55 3 108 8 118 13 32 14 50 66 55 156 l4 86 -26 5 c-14 3
-26 2 -26 -2z"/>
<path d="M760 1561 l-45 -6 34 -13 c38 -13 121 -16 121 -4 0 15 -24 32 -44 30
-12 0 -41 -4 -66 -7z"/>
<path d="M870 1560 c0 -19 51 -23 84 -7 l31 16 -57 0 c-32 1 -58 -3 -58 -9z"/>
<path d="M1893 1454 c-7 -19 11 -39 26 -30 16 10 13 33 -4 40 -9 3 -18 -1 -22
-10z"/>
<path d="M556 1415 c-57 -57 15 -160 112 -160 72 0 93 50 46 112 -44 58 -123
82 -158 48z m100 -83 c-4 -3 -14 2 -24 12 -16 18 -16 18 6 6 13 -6 21 -14 18
-18z"/>
<path d="M1773 1343 c-7 -3 -13 -13 -13 -23 0 -19 17 -30 38 -23 6 3 12 13 12
23 0 19 -17 30 -37 23z"/>
<path d="M680 1135 c0 -18 61 -85 78 -85 5 0 15 7 22 16 11 13 9 20 -16 44
-36 36 -84 50 -84 25z"/>
<path d="M1794 1086 c-9 -22 4 -36 32 -36 21 0 25 4 22 23 -4 26 -45 37 -54
13z"/>
</g>
</svg>
