<svg width="192" height="192" viewBox="0 0 192 192" fill="none" xmlns="http://www.w3.org/2000/svg">
<path fill-rule="evenodd" clip-rule="evenodd" d="M31 60C27.6863 60 25 62.6863 25 66V69C25 72.3137 27.6863 75 31 75H76C79.3137 75 82 72.3137 82 69V66C82 62.6863 79.3137 60 76 60H31Z" fill="black"/>
<path fill-rule="evenodd" clip-rule="evenodd" d="M102 117C98.6863 117 96 119.686 96 123V126C96 129.314 98.6863 132 102 132H162C165.314 132 168 129.314 168 126V123C168 119.686 165.314 117 162 117H102Z" fill="black"/>
<path fill-rule="evenodd" clip-rule="evenodd" d="M102 89C98.6863 89 96 91.6863 96 95V97C96 100.314 98.6863 103 102 103H133C136.314 103 139 100.314 139 97V95C139 91.6863 136.314 89 133 89H102Z" fill="black"/>
<path fill-rule="evenodd" clip-rule="evenodd" d="M60 89C56.6863 89 54 91.6863 54 95V97C54 100.314 56.6863 103 60 103H76C79.3137 103 82 100.314 82 97V95C82 91.6863 79.3137 89 76 89H60Z" fill="black"/>
</svg>
