<svg width="192" height="192" fill="none" xmlns="http://www.w3.org/2000/svg"><path d="M136 22H82c-11.046 0-20 8.954-20 20v107.351l-32 12.374 104.392 8.209c11.642.934 21.608-8.207 21.608-19.818V42c0-11.046-8.954-20-20-20Z" stroke="#000" stroke-width="12" stroke-linecap="round" stroke-linejoin="round"/><path d="M109 58v84m0-84s-5-4-11-4c-3.44 0-6.553 1.316-8.582 2.438C87.823 57.32 87 59.06 87 60.884V142m22-84s5-4 11-4c3.441 0 6.553 1.316 8.582 2.438 1.595.882 2.418 2.623 2.418 4.446V142" stroke="#000" stroke-width="12" stroke-linecap="round" stroke-linejoin="round"/></svg>