<?xml version="1.0" encoding="UTF-8" standalone="no"?>
<svg
   version="1.2"
   viewBox="0 0 840 842"
   width="192"
   height="192"
   id="svg31"
   xmlns="http://www.w3.org/2000/svg"
   xmlns:svg="http://www.w3.org/2000/svg"
   xmlns:rdf="http://www.w3.org/1999/02/22-rdf-syntax-ns#"
   xmlns:cc="http://creativecommons.org/ns#">
  <defs
     id="defs31" />
  <style
     id="style1">
		.s0 { fill: #074e27 } 
		.s1 { fill: #75b043 } 
		.s2 { fill: #fff229 } 
		.s3 { fill: #fcb712 } 
		.s4 { fill: none;stroke: #eb008b;stroke-miterlimit:10;stroke-width: .4 } 
		.s5 { fill: #fefefe } 
	</style>
  <g
     id="Layer 1"
     transform="matrix(0.54793363,0,0,0.56267877,181.09765,57.535855)"
     style="stroke-width:94.7759;stroke-dasharray:none">
    <g
       id="g31"
       style="stroke-width:94.7759;stroke-dasharray:none">
      <g
         id="&lt;Group&gt;"
         transform="matrix(1.5041035,0,0,1.5041035,-27.245187,-86.409329)"
         style="fill:none;stroke:#000000;stroke-width:63.0115;stroke-dasharray:none">
        <path
           style="color:#000000;fill:#000000;stroke:#000000;stroke-width:63.0115;stroke-linecap:round;stroke-linejoin:round;stroke-dasharray:none;stroke-opacity:1"
           d="m 378.80078,103.76758 c -123.43107,0 -255.0625,73.04101 -255.0625,73.04101 l -0.15625,0.0879 -0.0137,0.17774 c 0,0 -0.80078,10.32185 -0.80078,54.92578 0,152.20445 71.83819,280.20901 167.55859,338.88281 l 0.17969,0.11133 0.17578,-0.11719 c 142.83181,-93.78655 181.25,-264.63335 181.25,-457.27734 v -0.23242 l -0.21875,-0.0801 c 0,0 -6.64161,-2.38761 -21.56055,-4.76563 -14.91893,-2.37801 -38.13574,-4.7539 -71.35156,-4.7539 z m 0,0.66406 c 33.18412,0 56.36506,2.37412 71.24609,4.74609 14.55597,2.32017 20.93569,4.57006 21.2168,4.66993 C 471.23048,306.21833 432.8538,476.60067 290.49805,570.19922 195.10771,511.62335 123.43164,383.90052 123.43164,232 c 0,-44.22211 0.7798,-54.52275 0.79297,-54.69531 0.90762,-0.50248 131.83458,-72.87305 254.57617,-72.87305 z"
           id="&lt;Path&gt;" />
      </g>
    </g>
  </g>
  <metadata
     id="metadata31">
    <rdf:RDF>
      <cc:Work
         rdf:about="" />
    </rdf:RDF>
  </metadata>
  <path
     style="fill:none;stroke:#000000;stroke-width:52.625;stroke-linecap:round;stroke-linejoin:round;stroke-dasharray:none;stroke-opacity:1"
     d="m 158.83528,570.17347 5.1e-4,175.12655 h 81.20864"
     id="path1" />
  <path
     style="fill:none;stroke:#000000;stroke-width:52.625;stroke-linecap:round;stroke-linejoin:round;stroke-dasharray:none;stroke-opacity:1"
     d="M 312.62771,570.17347 V 745.29606"
     id="path2" />
  <path
     style="fill:none;stroke:#000000;stroke-width:52.625;stroke-linecap:round;stroke-linejoin:round;stroke-dasharray:none;stroke-opacity:1"
     d="m 402.06784,569.59153 49.09553,175.70453 49.55882,-174.54063"
     id="path3" />
  <path
     style="fill:none;stroke:#000000;stroke-width:52.625;stroke-linecap:round;stroke-linejoin:round;stroke-dasharray:none;stroke-opacity:1"
     d="m 681.16472,570.17332 -96.05044,3e-4 10e-4,175.014 -8e-5,-90.06321 h 96.04879 m -96.04871,90.39644 h 96.04871"
     id="path5" />
</svg>
