<svg xmlns="http://www.w3.org/2000/svg" width="192" height="192" fill="none"><circle cx="150" cy="94" r="21" stroke="#000" stroke-linecap="round" stroke-linejoin="round" stroke-width="10"/><circle cx="36" cy="53" r="4" stroke="#000" stroke-linecap="round" stroke-linejoin="round" stroke-width="8"/><circle cx="84" cy="53" r="4" stroke="#000" stroke-linecap="round" stroke-linejoin="round" stroke-width="8"/><path stroke="#000" stroke-linecap="round" stroke-linejoin="round" stroke-width="12" d="M104 83H28a6 6 0 0 0-6 6v46a6 6 0 0 0 6 6h76a6 6 0 0 0 6-6v-15a6 6 0 0 0-6-6H66l44-22v-3a6 6 0 0 0-6-6"/><path stroke="#000" stroke-linecap="round" stroke-linejoin="round" stroke-width="10" d="M141 112.5S141 95 165 81M36 53l24 30 24-30"/></svg>