<svg xmlns="http://www.w3.org/2000/svg" width="192" height="192" fill="none"><path stroke="#000" stroke-linecap="round" stroke-linejoin="round" stroke-width="14" d="M120.727 22c-37.471 0-77.433 22.824-77.433 22.824l-.047.027-.004.056S43 48.132 43 62.07c0 47.561 21.809 87.561 50.868 105.895l.054.035.054-.037C137.337 138.657 149 85.27 149 25.073V25l-.067-.026s-2.016-.746-6.545-1.489S130.811 22 120.727 22m0 .207c10.074 0 17.112.742 21.629 1.483 4.419.726 6.356 1.429 6.442 1.46-.011 60.112-11.661 113.354-54.878 142.602-28.959-18.304-50.718-58.215-50.718-105.682 0-13.818.236-17.037.24-17.091.276-.157 40.023-22.771 77.285-22.771Z"/></svg>