<?xml version="1.0" encoding="UTF-8" standalone="no"?>
<svg
   width="192"
   height="192"
   viewBox="0 0 50.799999 50.8"
   version="1.1"
   id="svg1"
   xmlns="http://www.w3.org/2000/svg"
   xmlns:svg="http://www.w3.org/2000/svg">
  <defs
     id="defs1" />
  <g
     id="layer1">
    <g
       id="Layer 1"
       transform="matrix(0.03156521,0,0,0.03244809,11.637372,3.5822871)"
       style="fill:none;stroke:#000000;stroke-width:99.2071;stroke-dasharray:none;stroke-opacity:1">
      <g
         id="g31"
         style="fill:none;stroke:#000000;stroke-width:99.2071;stroke-dasharray:none;stroke-opacity:1">
        <g
           id="&lt;Group&gt;"
           transform="matrix(1.5041035,0,0,1.5041035,-27.245187,-86.409329)"
           style="fill:none;stroke:#000000;stroke-width:65.9579;stroke-dasharray:none;stroke-opacity:1">
          <path
             style="color:#000000;fill:none;stroke:#000000;stroke-width:65.9579;stroke-linecap:round;stroke-linejoin:round;stroke-dasharray:none;stroke-opacity:1"
             d="m 378.80078,103.76758 c -123.43107,0 -255.0625,73.04101 -255.0625,73.04101 l -0.15625,0.0879 -0.0137,0.17774 c 0,0 -0.80078,10.32185 -0.80078,54.92578 0,152.20445 71.83819,280.20901 167.55859,338.88281 l 0.17969,0.11133 0.17578,-0.11719 c 142.83181,-93.78655 181.25,-264.63335 181.25,-457.27734 v -0.23242 l -0.21875,-0.0801 c 0,0 -6.64161,-2.38761 -21.56055,-4.76563 -14.91893,-2.37801 -38.13574,-4.7539 -71.35156,-4.7539 z m 0,0.66406 c 33.18412,0 56.36506,2.37412 71.24609,4.74609 14.55597,2.32017 20.93569,4.57006 21.2168,4.66993 C 471.23048,306.21833 432.8538,476.60067 290.49805,570.19922 195.10771,511.62335 123.43164,383.90052 123.43164,232 c 0,-44.22211 0.7798,-54.52275 0.79297,-54.69531 0.90762,-0.50248 131.83458,-72.87305 254.57617,-72.87305 z"
             id="&lt;Path&gt;" />
        </g>
      </g>
    </g>
    <path
       style="fill:none;stroke:#000000;stroke-width:3.175;stroke-linecap:round;stroke-linejoin:round;stroke-dasharray:none;stroke-opacity:1"
       d="m 9.5304238,34.796108 c 0,0 0,8.31117 0,9.048242 0,0.534661 0.5989292,1.134761 1.1335882,1.134761 0.685654,0 4.593948,4.9e-5 4.593948,4.9e-5"
       id="path4" />
    <path
       style="fill:none;stroke:#000000;stroke-width:3.175;stroke-linecap:round;stroke-linejoin:round;stroke-dasharray:none;stroke-opacity:1"
       d="M 19.776798,34.796108 V 44.97916"
       id="path6" />
    <path
       style="fill:none;stroke:#000000;stroke-width:3.175;stroke-linecap:round;stroke-linejoin:round;stroke-dasharray:none;stroke-opacity:1"
       d="M 24.452512,34.796108 27.972608,44.97916 31.492702,34.796108"
       id="path7" />
    <g
       id="g9"
       transform="matrix(0.06033202,0,0,0.06033141,1.1188703,8.8255253e-4)"
       style="fill:none;stroke:#000000;stroke-width:52.6257;stroke-dasharray:none;stroke-opacity:1">
      <path
         style="fill:none;stroke:#000000;stroke-width:52.6257;stroke-linecap:round;stroke-linejoin:round;stroke-dasharray:none;stroke-opacity:1"
         d="m 664.01228,576.73468 c 0,0 -60.87129,0 -69.22337,0 -11.9093,0 -18.29472,18.77922 -18.29472,30.68852 0,11.34545 0,110.56905 0,117.30729 0,9.06955 8.48375,20.85437 17.55306,20.78942 9.17207,-0.0657 71.44837,0 71.44837,0"
         id="path8" />
      <path
         style="fill:none;stroke:#000000;stroke-width:52.6257;stroke-linecap:round;stroke-linejoin:round;stroke-dasharray:none;stroke-opacity:1"
         d="m 578.47198,659.53335 h 66.75108"
         id="path9" />
    </g>
  </g>
</svg>
