<svg width="192" height="192" fill="none" xmlns="http://www.w3.org/2000/svg"><circle cx="150" cy="94" r="21" stroke="#000" stroke-width="10" stroke-linecap="round" stroke-linejoin="round"/><circle cx="36" cy="53" r="4" stroke="#000" stroke-width="8" stroke-linecap="round" stroke-linejoin="round"/><circle cx="84" cy="53" r="4" stroke="#000" stroke-width="8" stroke-linecap="round" stroke-linejoin="round"/><path d="M104 83H28a6 6 0 0 0-6 6v46a6 6 0 0 0 6 6h76a6 6 0 0 0 6-6v-15a6 6 0 0 0-6-6H66l44-22v-3a6 6 0 0 0-6-6Z" stroke="#000" stroke-width="12" stroke-linecap="round" stroke-linejoin="round"/><path d="M141 112.5S141 95 165 81M36 53l24 30 24-30" stroke="#000" stroke-width="10" stroke-linecap="round" stroke-linejoin="round"/></svg>