<svg width="192" height="192" viewBox="0 0 192 192" fill="none" xmlns="http://www.w3.org/2000/svg"><path d="M22 66s16 22 20 30 6 13 6 17m122-47s-16 22-20 30-6 13-6 17m-30 12v22m-36-22v22m-30-34c0 15.2 9.6 38 48 38s48-22.8 48-38" stroke="#000" stroke-width="12" stroke-linecap="round" stroke-linejoin="round"/><circle cx="96" cy="45" r="5" stroke="#000" stroke-width="10" stroke-linecap="round" stroke-linejoin="round"/><circle cx="96" cy="78" r="5" stroke="#000" stroke-width="10" stroke-linecap="round" stroke-linejoin="round"/><path d="M114 125a18.01 18.01 0 0 0-5.272-12.728 18.01 18.01 0 0 0-19.616-3.902 18.013 18.013 0 0 0-9.742 9.742A17.998 17.998 0 0 0 78 125" stroke="#000" stroke-width="12" stroke-linecap="round" stroke-linejoin="round"/><path d="M78 125a18 18 0 0 0-29.474-13.869m94.054-.693a18 18 0 0 0-28.576 14.935" stroke="#000" stroke-width="12" stroke-linecap="round" stroke-linejoin="round"/><circle cx="67" cy="64" r="5" stroke="#000" stroke-width="10" stroke-linecap="round" stroke-linejoin="round"/><circle cx="125" cy="64" r="5" stroke="#000" stroke-width="10" stroke-linecap="round" stroke-linejoin="round"/></svg>