<svg xmlns="http://www.w3.org/2000/svg" width="192" height="192" fill="none"><path stroke="#000" stroke-linecap="round" stroke-width="12" d="M154.201 98.466a51.5 51.5 0 0 1-26.891 54.699 51.495 51.495 0 0 1-74.724-37.882 51.5 51.5 0 0 1 5.27-31.637 51.5 51.5 0 0 1 54.726-26.839"/><path stroke="#000" stroke-linecap="round" stroke-width="12" d="M154.125 98.377a29.498 29.498 0 0 1-41.499-41.506"/><path stroke="#000" stroke-linecap="round" stroke-linejoin="round" stroke-width="12" d="M170 82.005a75.64 75.64 0 0 0-17.771-32.097 75.25 75.25 0 0 0-30.748-19.898 75 75 0 0 0-36.462-3 75.14 75.14 0 0 0-33.566 14.605A75.5 75.5 0 0 0 28.71 70.377a75.81 75.81 0 0 0 4.642 71.086A75.4 75.4 0 0 0 59.642 167"/></svg>