<svg width="192" height="192" fill="none" xmlns="http://www.w3.org/2000/svg"><path d="M22 76c0-11.14 4.214-21.822 11.716-29.699C41.217 38.425 51.39 34 62 34c10.609 0 20.783 4.425 28.284 12.301A41.735 41.735 0 0 1 96 53.875a41.723 41.723 0 0 1 5.716-7.574C109.217 38.425 119.391 34 130 34c10.609 0 20.783 4.425 28.284 12.301C165.786 54.178 170 64.861 170 76M22 76c0 44 74 82 74 82m74-82c0 44-74 82-74 82m8.137-42.651a15.432 15.432 0 0 1-3.443-8.729 15.375 15.375 0 0 1 1.379-7.458 15.647 15.647 0 0 1 4.789-5.938 15.979 15.979 0 0 1 7.067-3.016 16.093 16.093 0 0 1 7.677.62 15.876 15.876 0 0 1 6.474 4.108 15.575 15.575 0 0 1 2.92 4.337c-2.153 4.77-6.751 8.981-13.108 11.999-4.103 1.948-8.793 3.329-13.755 4.077Zm0 0a58.85 58.85 0 0 1-8.76.651c-8.143 0-16.057-1.662-22.516-4.728-5.32-2.525-9.407-5.885-11.861-9.71" stroke="#000" stroke-width="12" stroke-linecap="round" stroke-linejoin="round"/></svg>