<svg xmlns="http://www.w3.org/2000/svg" width="192" height="192" fill="none" viewBox="0 0 192 192"><path stroke="#000" stroke-linecap="round" stroke-linejoin="round" stroke-width="12" d="M96 80s-7.5-6-16-6H56v32c0 32 40 44 40 44"/><path stroke="#000" stroke-linecap="round" stroke-linejoin="round" stroke-width="10" d="m35 107 21-29m101 29-21-29m-74 52a15.999 15.999 0 1 0 4.141 31.455C74 159 77 152 77 141.355M130 130a16 16 0 0 1 12.029 5.45 16 16 0 0 1 1.558 18.999 16 16 0 0 1-17.728 7.006C118 159 115 152 115 141.355m-94-28.688a9.14 9.14 0 0 1 5.532-4.349 8.92 8.92 0 0 1 6.913.932 9.3 9.3 0 0 1 4.245 5.668 9.53 9.53 0 0 1-.91 7.082M171 112.667a9.14 9.14 0 0 0-5.532-4.349 8.92 8.92 0 0 0-6.913.932c-2.092 1.238-3.619 3.277-4.245 5.668a9.53 9.53 0 0 0 .911 7.082"/><path stroke="#000" stroke-linecap="round" stroke-linejoin="round" stroke-width="12" d="M96 80s7.5-6 16-6h24v32c0 32-40 44-40 44"/><circle cx="96" cy="104" r="4" stroke="#000" stroke-linecap="round" stroke-linejoin="round" stroke-width="8"/><path stroke="#000" stroke-linecap="round" stroke-linejoin="round" stroke-width="8" d="M96 104v20"/><path stroke="#000" stroke-linecap="round" stroke-linejoin="round" stroke-width="10" d="M134 68a38 38 0 0 0-38-38 38 38 0 0 0-38 38"/><path stroke="#000" stroke-linecap="round" stroke-linejoin="round" stroke-width="8" d="M88 56a4 4 0 1 0-8 0zm24 0a3.997 3.997 0 0 0-4-4 4 4 0 0 0-4 4z"/></svg>