<?xml version="1.0" encoding="UTF-8" standalone="no"?>
<!-- Created with Inkscape (http://www.inkscape.org/) -->

<svg
   width="192"
   height="192"
   viewBox="0 0 192 192"
   version="1.1"
   id="svg1"
   xmlns="http://www.w3.org/2000/svg"
   xmlns:svg="http://www.w3.org/2000/svg">
  <defs
     id="defs1" />
  <g
     id="layer1-3"
     transform="matrix(4.2625826,0,0,4.2599978,-12.764037,-12.771957)"
     style="stroke-width:2.81605;stroke-dasharray:none">
    <path
       id="path2284"
       style="fill:none;stroke:#000000;stroke-width:2.81605;stroke-linecap:round;stroke-linejoin:round;stroke-dasharray:none"
       d="m 22.798245,8.1619976 a 4.6114803,4.6114803 0 0 0 -4.611413,4.6115214 4.6114803,4.6114803 0 0 0 0.369279,1.790041 10.300286,10.366556 0 0 1 6.420313,2.266753 4.6114803,4.6114803 0 0 0 2.433343,-4.056794 4.6114803,4.6114803 0 0 0 -4.611522,-4.6115214 z" />
    <path
       id="path2286"
       style="fill:none;stroke:#000000;stroke-width:2.81605;stroke-linecap:round;stroke-linejoin:round;stroke-dasharray:none"
       d="m 33.2483,13.64785 a 6.4787997,6.4787997 0 0 0 -6.353826,5.235428 10.180523,10.07135 0 0 1 2.00038,5.994569 10.180523,10.07135 0 0 1 -0.0017,0.04256 6.4787997,6.4787997 0 0 0 4.355063,1.685087 6.4787997,6.4787997 0 0 0 6.478822,-6.478824 6.4787997,6.4787997 0 0 0 -6.478822,-6.478823 z" />
    <circle
       style="fill:none;stroke:#000000;stroke-width:2.81605;stroke-linecap:round;stroke-linejoin:round;stroke-dasharray:none"
       id="path2288"
       cx="29.759151"
       cy="37.397316"
       r="5.5073595" />
    <circle
       style="fill:none;stroke:#000000;stroke-width:2.81605;stroke-linecap:round;stroke-linejoin:round;stroke-dasharray:none"
       id="path2292"
       cx="39.349968"
       cy="29.830059"
       r="3.4284298" />
    <ellipse
       style="fill:none;stroke:#000000;stroke-width:2.81605;stroke-linecap:round;stroke-linejoin:round;stroke-dasharray:none"
       id="path2302-3"
       cx="18.553879"
       cy="24.92041"
       rx="10.300286"
       ry="10.366556" />
  </g>
</svg>
