<svg width="192" height="192" viewBox="0 0 192 192" fill="none" xmlns="http://www.w3.org/2000/svg"><path d="m96 125.784-9.835 8.708A5.998 5.998 0 0 1 82.187 136h-6.36a6 6 0 0 1-5.209-3.022l-16.974-29.687a6 6 0 0 1 1.635-7.797l11.225-8.323a6 6 0 0 0 2.286-3.53l5.924-26.93A6 6 0 0 1 80.574 52h30.852a6 6 0 0 1 5.86 4.711l5.924 26.93a6 6 0 0 0 2.286 3.53l11.225 8.323a6 6 0 0 1 1.635 7.797l-16.974 29.687a6 6 0 0 1-5.209 3.022h-6.36a5.997 5.997 0 0 1-3.977-1.508L96 125.784Zm0 0-11.762-11.868a5.998 5.998 0 0 1-1.738-4.223V97.978a6 6 0 0 0-.9-3.16l-10.35-16.71h49.5l-10.351 16.71a5.998 5.998 0 0 0-.899 3.16v11.715a6 6 0 0 1-1.738 4.223L96 125.784Z" stroke="#000" stroke-width="8" stroke-linecap="round" stroke-linejoin="round"/><path d="M30 61.917c0-2.1 1.098-4.047 2.894-5.134l60-33.916a6 6 0 0 1 6.212 0l60 33.916A6.002 6.002 0 0 1 162 61.917v68.165c0 2.1-1.098 4.048-2.894 5.135l-60 33.916a5.997 5.997 0 0 1-6.212 0l-60-33.916A6.002 6.002 0 0 1 30 130.082V61.917Z" stroke="#000" stroke-width="12" stroke-linecap="round" stroke-linejoin="round"/></svg>