<svg xmlns="http://www.w3.org/2000/svg" xmlns:xlink="http://www.w3.org/1999/xlink" width="192" height="192" viewBox="0 0 192 192" fill="none"><defs><rect id="path_0" x="0" y="0" width="192" height="192" /></defs><g opacity="1" transform="translate(0 0)  rotate(0 96 96)"><mask id="bg-mask-0" fill="white"><use xlink:href="#path_0"/></mask><g mask="url(#bg-mask-0)" ><path id="路径 1" fill-rule="evenodd" style="fill:#000000" transform="translate(16 16)  rotate(0 80 80)" opacity="1" d="M51.35,11.29C51.03,11.29 50.92,11.25 50.83,11.29C38.23,16.4 26.36,22.84 16.03,32.02C10.29,37.13 5.26,42.88 2.2,50.19C-1.13,58.16 -0.88,65.86 4.32,72.97C8.12,78.16 13.39,81.35 19.11,83.74C27.36,87.19 36.03,88.68 44.87,89.19C45.89,89.25 46.56,89.34 46.69,90.74C47.23,96.54 47.7,102.36 48.6,108.1C50.33,119.17 53.3,129.89 58.34,139.9C61.33,145.84 64.96,151.27 70.15,155.42C77.92,161.63 86.74,161.5 94.44,155.18C98.6,151.77 101.7,147.46 104.39,142.8C107.93,136.64 110.4,130.01 112.37,123.16C114.53,115.66 115.97,108.01 116.81,100.21C116.59,100.16 116.43,100.07 116.3,100.11C112.92,100.99 109.54,101.84 106.19,102.82C105.77,102.95 105.36,103.73 105.25,104.28C104.08,109.64 103.15,115.06 101.79,120.36C100.68,124.7 98.95,128.84 95.94,132.22C93.32,135.18 90.08,135.26 87.29,132.48C86.73,131.93 86.15,131.32 85.79,130.63C84.52,128.22 83.12,125.84 82.18,123.29C78.11,112.21 77.06,100.55 76.28,88.85C76.2,87.68 76.64,87.23 77.72,87.04C87.45,85.34 96.96,82.74 106.22,79.22C119.21,74.28 131.49,67.96 142.27,58.81C148.82,53.25 154.65,47.04 157.97,38.77C160.87,31.56 160.87,24.44 156.62,17.74C153.59,12.97 149.24,9.72 144.35,7.23C137.3,3.65 129.77,1.81 122.03,0.82C119.32,0.47 116.59,0.28 113.63,0C114.29,2.71 114.91,5.05 115.41,7.42C115.64,8.49 116.27,8.79 117.17,9.15C120.27,10.38 123.53,11.4 126.33,13.18C132.67,17.2 134.04,23.87 130.29,30.53C126.82,36.69 121.59,40.94 115.92,44.68C106.16,51.13 95.45,55.27 84.32,58.33C82.13,58.93 79.89,59.38 77.51,59.94C77.51,59.37 77.48,59.05 77.52,58.75C78.44,51.67 79.76,44.7 82.18,37.98C83.61,34.02 85.34,30.22 88.1,27.02C91.84,22.68 96.15,22.33 100.48,25.99C100.75,26.22 101.13,26.59 101.37,26.53C103.4,26.04 105.42,25.45 107.53,24.87C104.54,18.42 101.19,12.6 96.26,7.92C92.28,4.14 87.76,1.49 82.17,1.47C77.11,1.45 72.88,3.66 69.11,6.92C64.31,11.08 60.9,16.37 58.09,22.09C52.17,34.12 49.23,47.05 47.58,60.35C47.42,61.59 47.12,62.01 45.87,61.87C40.33,61.27 34.98,60 30.05,57.19C22.92,53.13 21.03,46.29 25.01,38.96C27.31,34.73 30.67,31.49 34.3,28.55C39.59,24.27 45.44,20.97 51.58,18.2C52.69,17.7 52.94,17.18 52.56,16.01C52.06,14.49 51.75,12.9 51.35,11.29Z " /></g></g></svg>
