<?xml version="1.0" encoding="utf-8"?>
	<svg version="1.1" xmlns="http://www.w3.org/2000/svg" xmlns:xlink="http://www.w3.org/1999/xlink" x="0px" y="0px" width="240.0" height="240.0" xml:space="preserve">
		<path d="M20,181.752C20,140.466 20,99.181 20,57.896C20.734,55.231 21.43,52.547 22.191,49.891C26.314,35.554 35.563,26.314 49.901,22.191C52.556,21.43 55.231,20.734 57.896,20C99.181,20 140.466,20 181.752,20C182.931,20.344 184.092,20.743 185.28,21.031C207.121,26.314 219.35,40.429 219.657,63.031C220.168,100.88 220.195,138.749 219.648,176.607C219.304,200.528 205.589,215.218 182.105,219.155C176.895,220.028 171.676,219.88 166.448,219.88C132.741,219.898 99.033,220.214 65.334,219.74C41.683,219.406 25.525,208.087 20.91,184.844C20.706,183.795 20.306,182.782 20,181.752ZM117.707,179.69C133.186,179.087 148.759,171.686 160.375,156.494C164.368,151.266 164.22,151.071 157.738,149.576C144.45,146.521 136.093,135.034 137.142,121.263C138.089,108.764 148.536,98.55 161.434,97.5C166.328,97.101 166.383,96.99 163.858,92.505C152.148,71.695 126.909,60.171 103.109,65.027C74.267,70.915 55.184,95.755 56.596,124.383C58.249,158.026 85.447,179.681 117.707,179.69ZM175.642,85.327C175.642,90.564 175.632,95.801 175.642,101.038C175.651,106.851 175.679,106.777 169.931,105.133C161.954,102.858 154.925,104.623 149.335,110.798C144.209,116.462 143.197,125.702 146.567,132.462C150.579,140.494 159.243,144.58 168.259,142.695C176.932,140.875 183.247,133.418 183.367,124.142C183.562,109.665 183.442,95.188 183.46,80.711C183.47,72.094 183.47,72.094 191.223,75.14C191.651,75.307 192.078,75.511 192.514,75.651C194.724,76.356 196.944,76.635 197.937,73.942C198.838,71.5 197.612,69.763 195.393,68.723C191.214,66.764 187.063,64.712 182.792,62.957C178.056,61.007 175.781,62.557 175.669,67.767C175.549,73.617 175.651,79.476 175.642,85.327Z" fill="#000" stroke="" stroke-width="" stroke-miterlimit=""/>
	</svg>
