<svg xmlns="http://www.w3.org/2000/svg" xmlns:xlink="http://www.w3.org/1999/xlink" width="192" height="192" viewBox="0 0 192 192" fill="none"><defs><rect id="path_0" x="0" y="0" width="192" height="192" /></defs><g opacity="1" transform="translate(0 0)  rotate(0 96 96)"><mask id="bg-mask-0" fill="white"><use xlink:href="#path_0"/></mask><g mask="url(#bg-mask-0)" ><path id="分组 1" fill-rule="evenodd" style="fill:#000000" transform="translate(24 16)  rotate(0 71.69342844832295 80)" opacity="1" d="M113.12 75.86C107.29 75.86 101.73 78.38 97.88 82.76C94.02 87.23 92.27 93.15 93.11 99L93.21 99.6C94.52 106.63 92.07 111.4 89.79 114.15C86.3 118.3 81.2 120.76 75.79 120.91C71.2 116.19 70.04 107.64 72.52 96.4C84.3 95.44 97.76 86.91 101.81 65.56C104.14 64.83 107.2 64.04 109 63.59C112.88 62.58 115.35 61.93 117.29 61.06C118.62 60.47 119.81 59.62 120.79 58.55C130.99 57.15 138.49 50.61 140.77 40.81L140.88 40.22C141.67 35.81 140.39 31.2 137.36 27.59C134.59 24.26 130.6 21.94 125.75 20.82C124.55 17.56 122.76 14.56 120.46 11.96C113.8 4.37 103.28 0 91.62 0C80.25 0 62.89 4.04 42.95 22.49C40.55 22.14 38.12 21.96 35.69 21.96C16.54 21.96 2.93 32.07 0.16 48.35C-0.39 51.58 0.52 54.88 2.65 57.36C4.78 59.85 7.91 61.25 11.18 61.19L13.73 60.94C10.53 69.44 7.4 81.58 9.42 95.76C13.81 126.7 38.89 160 83.59 160C88.31 160 93.23 159.63 98.23 158.9C103.86 157.83 109.26 155.8 114.2 152.9L114.22 152.89C131.51 145.29 142.11 128.53 143.36 106.63L143.39 106.02C143.4 97.07 138.09 89.88 130.38 87.4C127.33 80.24 120.89 75.86 113.12 75.86Z M96.7324 148.352C101.422 147.532 105.942 145.372 108.932 143.662L108.782 143.622C121.372 138.592 131.602 126.492 132.782 106.022C132.782 100.042 128.622 97.1423 124.312 97.1423C121.782 97.1123 119.352 98.0923 117.552 99.8723C115.752 101.652 114.742 104.072 114.752 106.602C115.002 125.092 100.292 135.642 86.1524 135.642L85.7724 135.642C99.8524 135.532 114.422 125.002 114.172 106.602C114.392 101.292 117.832 98.1723 121.652 97.3623L121.652 97.3723L121.672 97.3523L121.652 97.3523C121.592 96.2223 121.502 95.0923 121.342 93.9323C120.462 88.7823 116.872 86.5123 113.122 86.5123C110.302 86.4923 107.622 87.7223 105.802 89.8623C103.972 92.0123 103.182 94.8523 103.652 97.6223C107.442 117.832 91.2224 131.562 75.5824 131.562C74.2724 131.562 72.9624 131.482 71.6724 131.272C62.9824 125.292 57.7424 112.922 62.4124 93.0623L61.8524 92.2923L61.2424 92.4723C49.3624 122.102 65.9624 141.392 86.1524 145.512L85.5024 145.512C50.0524 145.512 29.0024 100.352 64.7224 72.4923C66.1024 71.5523 67.3724 71.1323 68.4724 71.1323C73.2424 71.1323 74.6924 78.8723 67.0524 84.8323C66.4924 85.2323 67.8924 85.8423 70.2824 85.8423C76.5724 85.8423 89.6924 81.7023 92.0624 58.9423C93.4724 55.5623 109.202 52.9923 113.012 51.3023C114.142 49.8423 104.212 49.5223 104.262 45.4423L104.562 45.1323C105.402 45.1323 108.132 47.0423 112.422 47.7823C113.722 48.0223 115.162 48.1623 116.612 48.1623C122.402 48.1623 128.682 45.9523 130.452 38.3723C131.052 34.9023 127.132 30.6623 118.412 30.6623L116.492 30.7323C117.732 21.0623 107.682 10.6623 91.6224 10.6623C79.2224 10.6623 63.2624 16.8523 46.1024 34.2723C44.0724 33.3823 40.1824 32.6423 35.6924 32.6423C25.7924 32.6423 12.9824 36.2823 10.6324 50.1423L11.1824 50.5323C12.8924 50.5323 18.1824 47.4823 22.5724 47.4823C25.3224 47.4823 27.7024 48.6623 28.6824 52.5223C28.2224 56.2923 16.8624 72.5323 19.9524 94.2623C23.0824 116.262 41.1624 149.352 83.6124 149.352C87.7524 149.352 92.1224 149.032 96.7324 148.352Z M94.388 33.377C94.388 30.287 96.878 27.787 99.918 27.787L101.458 28.017C100.268 27.107 98.818 26.617 97.318 26.617C95.458 26.627 93.668 27.367 92.348 28.697C91.038 30.027 90.308 31.817 90.318 33.687C90.318 37.577 93.448 40.737 97.308 40.737C99.348 40.737 101.278 39.827 102.588 38.267L99.918 38.967C96.878 38.967 94.388 36.467 94.388 33.377Z M97.882 31.05L99.342 32.47L100.792 31.05L100.062 29.75L99.3221 29.55L98.6021 29.75L97.882 31.05Z " /></g></g></svg>
