<svg width="192" height="192" viewBox="0 0 192 192" fill="none" xmlns="http://www.w3.org/2000/svg"><path d="M83.93 166.923a56.003 56.003 0 0 1-55.211-35.854M107 85a26 26 0 0 1 26-26M46.483 72A26 26 0 0 1 69 59" stroke="#000" stroke-width="12" stroke-linecap="round" stroke-linejoin="round"/><path d="M74 84a6 6 0 0 0-12 0h12Zm64 0a5.992 5.992 0 0 0-1.757-4.243A6.011 6.011 0 0 0 132 78a6 6 0 0 0-6 6h12Z" stroke="#000" stroke-width="8" stroke-linecap="round" stroke-linejoin="round"/><path d="M61 25H31a6 6 0 0 0-6 6v30m106-36h30a6 6 0 0 1 6 6v30m-36 106h30a6 6 0 0 0 6-6v-30m-83 0h17a6 6 0 0 0 6-6V85" stroke="#000" stroke-width="12" stroke-linecap="round" stroke-linejoin="round"/></svg>