<svg xmlns="http://www.w3.org/2000/svg" width="192" height="192" fill="none" stroke="#000" stroke-linecap="round" stroke-linejoin="round" stroke-width="8" viewBox="0 0 192 192"><path d="m120.457 143.5 12.995 18.558zm-5.305-97.368 20.821-14.58zA53.4 53.4 0 0 0 96 42.564c-29.512 0-53.436 23.924-53.436 53.436S66.488 149.436 96 149.436a53.44 53.44 0 0 0 24.457-5.936m15.516-111.947A76 76 0 0 0 96 20c-41.974 0-76 34.026-76 76s34.026 76 76 76a76 76 0 0 0 37.452-9.942"/><path d="M147.427 40.043a76 76 0 0 1 13.767 16.896l-55.97 39.19-12.466-17.804zm19.59 28.893-54.24 37.979 12.467 17.804 46.653-32.665a76 76 0 0 0-4.88-23.118m3.866 39.903-38.087 26.671 12.698 18.131.026-.019a76 76 0 0 0 25.363-44.783"/></svg>