<svg xmlns="http://www.w3.org/2000/svg" width="192" height="192" fill="none"><circle cx="96" cy="96" r="74" stroke="#000" stroke-linecap="round" stroke-linejoin="round" stroke-width="12"/><path stroke="#000" stroke-linecap="round" stroke-linejoin="round" stroke-width="10" d="M160.365 62c10.886 19.14-16.529 60.661-51.365 43.73 13.063 35.335 56 18.036 56 18.036M62 31.635C81.14 20.75 122.661 48.165 105.73 83c35.335-13.064 18.036-56 18.036-56M31.635 131C20.75 111.57 48.165 69.42 83 86.607c-13.064-35.87-56-18.308-56-18.308m104 92.066C111.57 171.251 69.42 143.836 86.607 109c-35.87 13.063-18.308 56-18.308 56"/></svg>