<svg xmlns="http://www.w3.org/2000/svg" width="192" height="192" fill="none"><path stroke="#000" stroke-linecap="round" stroke-linejoin="round" stroke-width="12" d="M136.001 24.885s25.005-11.021 33.006 10.02C177.009 55.944 134 70.975 134 70.975l-2 9.017L164.007 84"/><path stroke="#000" stroke-linecap="round" stroke-linejoin="round" stroke-width="12" d="M115.153 24.521A74 74 0 1 0 169.51 104.5"/><path stroke="#000" stroke-linecap="round" stroke-linejoin="round" stroke-width="10" d="M165 123.766s-42.937 17.299-56-18.036c14.542 7.068 27.791 3.95 37.5-3.474M62 31.635C81.14 20.75 122.661 48.165 105.73 83a40.5 40.5 0 0 0 6.27-2.922M31.635 131C20.75 111.57 48.165 69.42 83 86.607c-13.064-35.87-56-18.308-56-18.308m104 92.066C111.57 171.251 69.42 143.836 86.607 109c-35.87 13.063-18.308 56-18.308 56"/></svg>