<svg xmlns="http://www.w3.org/2000/svg" width="192" height="192" fill="none"><path stroke="#000" stroke-linecap="round" stroke-linejoin="round" stroke-width="12" d="M80 120h54a6 6 0 0 1 6 6v38a6 6 0 0 1-6 6H93c-8.93 0-17.772-1.914-26.022-5.633s-15.747-9.17-22.061-16.041c-6.315-6.872-11.324-15.029-14.74-24.007C26.758 115.34 25 105.718 25 96c0-19.626 10.43-38.448 28.996-52.326S97.744 22 124 22h35a6 6 0 0 1 6 6v62a6 6 0 0 1-6 6h-28c-7.354 0-14.636 1.009-21.43 2.969s-12.968 4.832-18.168 8.454c-5.2 3.621-9.325 7.921-12.14 12.652C76.449 124.807 75 129.878 75 135c0 4.596.776 9.148 2.284 13.394s3.717 8.105 6.503 11.355 6.093 5.828 9.732 7.587C97.16 169.095 101.06 170 105 170"/></svg>