<?xml version="1.0" encoding="utf-8"?>
<!-- Generator: Adobe Illustrator 25.4.1, SVG Export Plug-In . SVG Version: 6.00 Build 0)  -->
<svg version="1.1" id="Layer_1" xmlns="http://www.w3.org/2000/svg" xmlns:xlink="http://www.w3.org/1999/xlink" x="0px" y="0px"
	 width="192px" height="192px" viewBox="0 0 192 192" style="enable-background:new 0 0 192 192;" xml:space="preserve">
<style type="text/css">
	.st0{fill:none;stroke:#000000;stroke-width:12;stroke-linecap:round;stroke-linejoin:round;stroke-miterlimit:10;}
</style>
<path class="st0" d="M151.3,161.1H40.7c-6.4,0-11.8-4.9-12.3-11.3l-6.4-74c-0.6-7.2,5.1-13.4,12.3-13.4h123.3
	c7.2,0,12.9,6.2,12.3,13.4l-6.4,74C163,156.2,157.7,161.1,151.3,161.1z M160,62.4v-8.8c0-3.9-2.8-7.1-6.2-7.1h-58
	c-1.7,0-3.3-0.8-4.5-2.2L82,33.1c-1.2-1.4-2.8-2.2-4.5-2.2h-37c-3.4,0-6.2,3.2-6.2,7.1v24.2 M105.4,100.4l14.9,22.7 M120.3,100.4
	l-14.9,22.7 M88.9,101.4c-1.7-1-3.7-1.6-5.8-1.6c-6.3,0-11.4,5.1-11.4,11.4s5.1,11.4,11.4,11.4c2.1,0,4.1-0.6,5.8-1.6"/>
</svg>
