<svg xmlns="http://www.w3.org/2000/svg" width="192" height="192" fill="none" viewBox="0 0 192 192"><path stroke="#000" stroke-linecap="round" stroke-linejoin="round" stroke-width="12" d="m22.687 158.124 67.92-132.82c2.254-4.405 8.523-4.405 10.776 0l67.93 132.82c2.445 4.782-2.034 10.166-7.154 8.599l-64.398-19.714a6.04 6.04 0 0 0-3.532 0l-64.388 19.714c-5.12 1.567-9.6-3.817-7.154-8.599"/><path stroke="#000" stroke-linecap="round" stroke-linejoin="round" stroke-width="10" d="M62 86h28m11 34.5L88 72m0 0h16m-24.787 39.933A24.002 24.002 0 0 0 107.857 145a24.01 24.01 0 0 0 16.927-19.784 24.01 24.01 0 0 0-9.784-22.71"/></svg>