<svg xmlns="http://www.w3.org/2000/svg" width="192" height="192" fill="none" stroke="#000" stroke-linecap="round" viewBox="0 0 192 192"><path stroke-width="12" d="M23.38 157.384 90.663 26.39c2.232-4.345 8.442-4.345 10.674 0l67.292 130.994c2.423 4.716-2.014 10.027-7.086 8.481l-63.794-19.443a6 6 0 0 0-3.498 0l-63.785 19.443c-5.071 1.546-9.509-3.765-7.086-8.481z"/><path stroke-width="10" d="M62 86h28m-40 21 40-21m11 34.5L86 72m0 0h16m11 28.215a24.002 24.002 0 0 1 6.044 36.609 23.995 23.995 0 0 1-25.758 6.902A23.994 23.994 0 0 1 77.05 122.57 24 24 0 0 1 80.215 109"/></svg>