<svg width="192" height="192" viewBox="0 0 192 192" fill="none" xmlns="http://www.w3.org/2000/svg"><g clip-path="url(#try__a)" stroke="#000" stroke-linecap="round" stroke-linejoin="round"><path d="M61.378 62.807c2.296-21.051 21.137-36.289 42.162-34.1 21.024 2.19 36.334 20.984 34.26 42.058-2.075 21.075-20.753 36.511-41.8 34.545v15" stroke-width="12"/><path d="M100.934 147.242A4.933 4.933 0 0 1 96 152.173a4.933 4.933 0 0 1-4.934-4.931m9.868 0A4.933 4.933 0 0 0 96 142.311a4.933 4.933 0 0 0-4.934 4.931m9.868 0h22.037m-31.905 0H69.029m53.942 0c0 9.531 7.731 17.258 17.269 17.258 9.538 0 17.27-7.727 17.27-17.258m-34.539 0c0-9.532 7.731-17.259 17.269-17.259 9.538 0 17.27 7.727 17.27 17.259m0 0H171m-101.97 0c0 9.531-7.733 17.258-17.27 17.258-9.538 0-17.27-7.727-17.27-17.258m34.54 0c0-9.532-7.733-17.259-17.27-17.259-9.538 0-17.27 7.727-17.27 17.259m0 0H21" stroke-width="10"/><path d="M99.682 50.742V66.99L87.14 73.793" stroke-width="12"/></g><defs><clipPath id="try__a"><path fill="#fff" d="M0 0h192v192H0z"/></clipPath></defs></svg>
