<svg width="192" height="192" fill="none" xmlns="http://www.w3.org/2000/svg"><path d="M61.378 62.807c2.296-21.05 21.137-36.289 42.162-34.1 21.025 2.19 36.334 20.984 34.26 42.058-2.075 21.075-20.753 36.511-41.8 34.545v15" stroke="#000" stroke-width="12" stroke-linecap="round" stroke-linejoin="round"/><path d="M100.934 147.242A4.932 4.932 0 0 1 96 152.173a4.932 4.932 0 0 1-4.934-4.931m9.868 0A4.937 4.937 0 0 0 96 142.311a4.933 4.933 0 0 0-4.934 4.931m9.868 0h22.037m-31.905 0H69.029m53.942 0c0 9.531 7.731 17.258 17.269 17.258 9.538 0 17.27-7.727 17.27-17.258m-34.539 0c0-9.532 7.731-17.259 17.269-17.259 9.538 0 17.27 7.727 17.27 17.259m-88.481 0c0 9.531-7.732 17.258-17.269 17.258-9.538 0-17.27-7.727-17.27-17.258m34.539 0c0-9.532-7.732-17.259-17.269-17.259-9.538 0-17.27 7.727-17.27 17.259m123.02 0H171m-136.51 0H21" stroke="#000" stroke-width="10" stroke-linecap="round" stroke-linejoin="round"/><path d="M99.682 50.742V66.99L87.14 73.793" stroke="#000" stroke-width="12" stroke-linecap="round" stroke-linejoin="round"/></svg>