<svg xmlns="http://www.w3.org/2000/svg" width="192" height="192" fill="none"><path stroke="#000" stroke-linecap="round" stroke-linejoin="round" stroke-width="12" d="M78 53a6 6 0 0 1 6-6h22c6.627 0 12 5.373 12 12v2c0 6.627-5.373 12-12 12H84a6 6 0 0 1-6-6zm0 71a6 6 0 0 1 6-6h22c6.627 0 12 5.373 12 12v2c0 6.627-5.373 12-12 12H84a6 6 0 0 1-6-6zm43-99c6.172 0 12.284.905 17.986 2.664s10.884 4.337 15.248 7.587 7.826 7.109 10.188 11.355S168 55.404 168 60s-1.216 9.147-3.578 13.394-5.824 8.105-10.188 11.355-9.546 5.828-15.248 7.587S127.172 95 121 95m8 0c5.384 0 10.716.931 15.69 2.74s9.494 4.461 13.301 7.804 6.828 7.312 8.888 11.679C168.94 121.591 170 126.272 170 131s-1.061 9.409-3.121 13.777-5.08 8.336-8.888 11.679-8.327 5.995-13.301 7.804S134.384 167 129 167"/><path stroke="#000" stroke-linecap="round" stroke-linejoin="round" stroke-width="12" d="M121.5 25H22l14 14v56H22l14 18v40l-14 14h107M36 95h93"/></svg>