<svg width="192" height="192" fill="none" xmlns="http://www.w3.org/2000/svg"><circle cx="95" cy="104" r="16" stroke="#000" stroke-width="12" stroke-linecap="round" stroke-linejoin="round"/><path d="M167 39v122a6 6 0 0 1-6 6H39m72-95v41" stroke="#000" stroke-width="12" stroke-linecap="round" stroke-linejoin="round"/><path d="M95 120c8 0 16-7 16-7m34-88H31a6 6 0 0 0-6 6v114" stroke="#000" stroke-width="12" stroke-linecap="round" stroke-linejoin="round"/><path d="M47 53a6 6 0 0 1 6-6h86a6 6 0 0 1 6 6v86a6 6 0 0 1-6 6H53a6 6 0 0 1-6-6V53Z" stroke="#000" stroke-width="12" stroke-linecap="round" stroke-linejoin="round"/></svg>