<svg xmlns="http://www.w3.org/2000/svg" width="192" height="192" fill="none"><path stroke="#000" stroke-linecap="round" stroke-linejoin="round" stroke-width="12" d="M56 22h83c13.255 0 24 10.745 24 24v97M56 22a27 27 0 0 0 0 54"/><path stroke="#000" stroke-linecap="round" stroke-linejoin="round" stroke-width="12" d="M56 76h15.816M109 143v-27.816m0 0-30.908 30.908A27 27 0 0 1 59 154a26.997 26.997 0 0 1-27-27 27 27 0 0 1 7.908-19.092L71.816 76M109 115.184V82a6 6 0 0 0-6-6H71.816M109 143a27 27 0 0 0 7.908 19.092 27.003 27.003 0 0 0 38.184 0A27 27 0 0 0 163 143"/></svg>