<svg width="192" height="192" viewBox="0 0 192 192" fill="none" xmlns="http://www.w3.org/2000/svg"><path d="M89.567 170C133.989 170 170 133.989 170 89.567c0-28.33-14.646-53.238-36.779-67.567 8.14 12.573 12.866 27.562 12.866 43.654 0 44.422-36.011 80.433-80.432 80.433-16.093 0-31.082-4.726-43.655-12.866C36.33 155.354 61.238 170 89.567 170Z" stroke="#000" stroke-width="12" stroke-linecap="round" stroke-linejoin="round"/><path d="m74 68 7.641 15.483 17.087 2.483-12.364 12.051 2.918 17.017L74 107l-15.282 8.034 2.918-17.017-12.364-12.051 17.087-2.483L74 68Z" stroke="#000" stroke-width="10" stroke-linecap="round" stroke-linejoin="round"/></svg>