<?xml version="1.0" encoding="UTF-8" standalone="no"?>
<svg
   width="192"
   height="192"
   viewBox="0 0 50.799999 50.8"
   version="1.1"
   id="svg1"
   xml:space="preserve"
   xmlns="http://www.w3.org/2000/svg"
   xmlns:svg="http://www.w3.org/2000/svg"><defs
     id="defs1" /><g
     id="layer1"><path
       style="fill:none;stroke:#000000;stroke-width:3.175;stroke-linecap:round;stroke-linejoin:round;stroke-miterlimit:32;stroke-dasharray:none"
       d="m 6.9243013,12.775976 c -1.5005625,2.182488 -1.5773227,4.161725 0.4312989,6.951627"
       id="path3" /><path
       style="fill:none;stroke:#000000;stroke-width:3.175;stroke-linecap:round;stroke-linejoin:round;stroke-miterlimit:32;stroke-dasharray:none"
       d="M 20.566526,9.3563056 C 18.989242,7.2285557 16.736601,6.5926736 13.849157,7.5048759"
       id="path3-9" /><path
       style="fill:none;stroke:#000000;stroke-width:3.175;stroke-linecap:round;stroke-linejoin:round;stroke-miterlimit:32;stroke-dasharray:none"
       d="M 30.854111,43.65281 21.742914,37.61729 21.042053,30.611772 13.009101,19.025727 c -0.923875,-1.636959 -1.151767,-3.536191 0.808688,-5.71219 2.191621,-0.770742 3.564767,-0.312013 4.744293,0.862219 l 7.871214,10.131054"
       id="path4" /><path
       style="fill:none;stroke:#000000;stroke-width:3.175;stroke-linecap:round;stroke-linejoin:round;stroke-miterlimit:32;stroke-dasharray:none"
       d="m 26.433198,24.306741 c 1.518533,-1.239439 3.522374,-1.859089 5.553074,-1.104649 1.617373,-1.095735 3.666045,-1.517864 5.499068,-0.05389 1.069261,-0.511946 2.246351,-0.646665 3.369525,-0.242503 1.509549,1.095735 2.857359,2.676467 4.124301,4.257199"
       id="path5" /></g></svg>
