<svg xmlns="http://www.w3.org/2000/svg" width="192" height="192" fill="none"><circle cx="122" cy="123" r="11" stroke="#000" stroke-linecap="round" stroke-linejoin="round" stroke-width="10"/><path stroke="#000" stroke-linecap="round" stroke-linejoin="round" stroke-width="12" d="M96 61a32 32 0 0 0-32-32m32 32a32 32 0 0 1 32-32m-64 0H28a6 6 0 0 0-6 6v100a6 6 0 0 0 6 6h44m56-112h36a6 6 0 0 1 6 6v61"/><path stroke="#000" stroke-linecap="round" stroke-linejoin="round" stroke-width="10" d="M114 114 83 83m72 50-23 23 12.58 13.12a6.42 6.42 0 0 0 9.079 0l14.461-14.461a6.42 6.42 0 0 0 0-9.079z"/><path stroke="#000" stroke-linecap="round" stroke-linejoin="round" stroke-width="10" d="m132 156-35-10-14-63 64 16 8 34"/></svg>