<svg width="192" height="192" fill="none" xmlns="http://www.w3.org/2000/svg"><path d="M50.003 142.774 147 142.65l5-5.216M170 81v19c0 6.001-2.846 17-18.002 17C136.843 117 134 106.001 134 100V81m-40 36c9.941 0 18-8.059 18-18s-8.059-18-18-18-18 8.059-18 18 8.059 18 18 18ZM58 81a19.011 19.011 0 0 1-9.502 16.452c-2.888 1.667-5.165 2.544-8.5 2.544-3.334 0-5.61-.877-8.5-2.544A19.01 19.01 0 0 1 22.002 81m18 20.611L40 116.996m-.001-54.361L48 55.695h15.999L72 48.138h48l8.001 7.559H144l8.001 7.393v7.57" stroke="#000" stroke-width="12" stroke-linecap="round" stroke-linejoin="round"/></svg>