<svg xmlns="http://www.w3.org/2000/svg" width="192" height="192" fill="none"><path stroke="#000" stroke-linecap="round" stroke-linejoin="round" stroke-width="12" d="M93 22a74 74 0 0 1 52.326 21.674A74 74 0 0 1 167 96a74 74 0 0 1-74 74M33 22h60m-60 92h60M61 50h32M61 170h32M33 50V22m0 120v-28m28-36V50m0 120v-28M33 50l28 28m-28 64 28 28M33 22l28 28m-28 64 28 28m0-64h32m-32 64h32"/><path stroke="#000" stroke-linecap="round" stroke-linejoin="round" stroke-width="12" d="M93 50a45.998 45.998 0 0 1 42.498 63.603A46 46 0 0 1 93 142"/><path stroke="#000" stroke-linecap="round" stroke-linejoin="round" stroke-width="12" d="M93 78a18 18 0 0 1 0 36"/></svg>