<svg xmlns="http://www.w3.org/2000/svg" width="192" height="192" fill="none" viewBox="0 0 192 192"><path stroke="#000" stroke-linecap="round" stroke-linejoin="round" stroke-width="12" d="M85 66v13.002A6 6 0 0 1 79 85H66c-11 0-23-2.402-32.799-12.201-3.08-3.439-5.002-6.206-6.406-9.936A28 28 0 0 1 69.309 30.24c3.24 2.322 5.324 4.956 7.94 8.76C83.465 48.04 85 57 85 66m0 60v-13.002A6 6 0 0 0 79 107H66c-11 0-23 2.402-32.799 12.201-3.08 3.439-5.002 6.206-6.406 9.936a27.999 27.999 0 0 0 42.514 32.623c3.24-2.322 5.324-4.956 7.94-8.76C83.465 143.961 85 135 85 126m22-60v13.002A6 6 0 0 0 113 85h13c11 0 23-2.402 32.799-12.201 3.081-3.439 5.002-6.206 6.406-9.936a28 28 0 0 0-42.514-32.623c-3.24 2.322-5.324 4.956-7.94 8.76C108.535 48.04 107 57 107 66m0 60v-13.002a6 6 0 0 1 6-5.998h13c11 0 23 2.402 32.799 12.201 3.081 3.439 5.002 6.206 6.406 9.936a28.002 28.002 0 0 1-42.514 32.623c-3.24-2.322-5.324-4.956-7.94-8.76-6.216-9.039-7.751-18-7.751-27"/></svg>