<svg width="192" height="192" viewBox="0 0 192 192" fill="none" xmlns="http://www.w3.org/2000/svg"><path d="M84.536 64.732v13.551a6.254 6.254 0 0 1-6.254 6.251H64.733c-11.465 0-23.972-2.503-34.185-12.716-3.21-3.584-5.213-6.468-6.676-10.356a29.182 29.182 0 0 1 44.31-34.001c3.377 2.42 5.549 5.165 8.275 9.13 6.479 9.422 8.079 18.76 8.079 28.14Zm0 62.534v-13.551a6.252 6.252 0 0 0-6.254-6.251H64.733c-11.465 0-23.972 2.503-34.185 12.716-3.21 3.585-5.213 6.468-6.676 10.356a29.183 29.183 0 0 0 44.31 34.001c3.377-2.42 5.549-5.165 8.275-9.13 6.479-9.421 8.079-18.76 8.079-28.141Zm22.929-62.534v13.551a6.255 6.255 0 0 0 6.254 6.251h13.549c11.465 0 23.972-2.503 34.185-12.716 3.211-3.584 5.213-6.468 6.677-10.356a29.185 29.185 0 0 0-26.835-39.458 29.183 29.183 0 0 0-17.476 5.457c-3.377 2.42-5.549 5.165-8.275 9.13-6.479 9.422-8.079 18.76-8.079 28.14Zm0 62.534v-13.551a6.253 6.253 0 0 1 6.254-6.251h13.549c11.465 0 23.972 2.503 34.185 12.716 3.211 3.585 5.213 6.468 6.677 10.356a29.187 29.187 0 0 1-26.836 39.455 29.189 29.189 0 0 1-17.475-5.454c-3.377-2.42-5.549-5.165-8.275-9.13-6.479-9.421-8.079-18.76-8.079-28.141Z" stroke="#000" stroke-width="12" stroke-linecap="round" stroke-linejoin="round"/></svg>