<svg width="192" height="192" viewBox="0 0 192 192" fill="none" xmlns="http://www.w3.org/2000/svg"><path d="M82 63v13.002A5.998 5.998 0 0 1 76 82H63c-11 0-23-2.402-32.799-12.201-3.08-3.439-5.002-6.206-6.406-9.936A28 28 0 0 1 66.309 27.24c3.24 2.322 5.324 4.956 7.94 8.76C80.465 45.04 82 54 82 63Zm0 66v-13.002A5.998 5.998 0 0 0 76 110H63c-11 0-23 2.402-32.799 12.201-3.08 3.439-5.002 6.206-6.406 9.936a27.999 27.999 0 0 0 42.514 32.623c3.24-2.322 5.324-4.956 7.94-8.76C80.465 146.961 82 138 82 129Zm28-66v13.002A5.998 5.998 0 0 0 116 82h13c11 0 23-2.402 32.799-12.201 3.081-3.439 5.002-6.206 6.406-9.936a27.994 27.994 0 0 0-9.16-32.077 27.997 27.997 0 0 0-33.354-.546c-3.24 2.322-5.324 4.956-7.94 8.76C111.535 45.04 110 54 110 63Zm0 66v-13.002a5.998 5.998 0 0 1 6-5.998h13c11 0 23 2.402 32.799 12.201 3.081 3.439 5.002 6.206 6.406 9.936a27.993 27.993 0 0 1-1.511 23.062 28.002 28.002 0 0 1-41.003 9.561c-3.24-2.322-5.324-4.956-7.94-8.76-6.216-9.039-7.751-18-7.751-27Z" stroke="#000" stroke-width="12" stroke-linecap="round" stroke-linejoin="round"/></svg>