<svg xmlns="http://www.w3.org/2000/svg" width="192" height="192" fill="none" viewBox="0 0 192 192"><path stroke="#000" stroke-linecap="round" stroke-linejoin="round" stroke-width="10" d="m84 78 30 18-30 18z"/><path stroke="#000" stroke-linecap="round" stroke-linejoin="round" stroke-width="12" d="M125 164.102c-8.905 3.797-18.707 5.898-29 5.898-40.87 0-74-33.131-74-74s33.13-74 74-74 74 33.13 74 74a74 74 0 0 1-3.08 21.195"/><path stroke="#000" stroke-linecap="round" stroke-linejoin="round" stroke-width="12" d="M96 140a44.003 44.003 0 0 0 44-44 44 44 0 0 0-44-44m-58 0h58m-58 88h58"/><path stroke="#000" stroke-linecap="round" stroke-linejoin="round" stroke-miterlimit="6" stroke-width="10" d="M162 171h-12a6 6 0 0 1-6-6v-12m0 0h18m-18 0v-11.999a6 6 0 0 1 6-6h8M158 153a9 9 0 1 0 0-18m4 36a9 9 0 1 0 0-18"/></svg>