<svg xmlns="http://www.w3.org/2000/svg" width="192" height="192" fill="none"><path stroke="#000" stroke-linecap="round" stroke-linejoin="round" stroke-width="12" d="M102 59 86 31H52L22 59l6 9h18m56-9h34l34 28v14a6 6 0 0 1-6 6h-13m-49-48L52 98H36L26 88l33-31m92 50v33m0-33h-42a6 6 0 0 0-6 6v27h48m0 0 17 21h-51l-34-41v-13l-7-9V80"/><circle cx="123" cy="113" r="3" stroke="#000" stroke-linecap="round" stroke-linejoin="round" stroke-width="6"/><circle cx="131" cy="113" r="3" stroke="#000" stroke-linecap="round" stroke-linejoin="round" stroke-width="6"/></svg>