<?xml version="1.0" encoding="UTF-8" standalone="no"?>
<!-- Created with Inkscape (http://www.inkscape.org/) -->

<svg
   width="24mm"
   height="24mm"
   viewBox="0 0 24 24"
   version="1.1"
   id="svg5"
   inkscape:version="1.1 (c68e22c387, 2021-05-23)"
   sodipodi:docname="DarQ.svg"
   xmlns:inkscape="http://www.inkscape.org/namespaces/inkscape"
   xmlns:sodipodi="http://sodipodi.sourceforge.net/DTD/sodipodi-0.dtd"
   xmlns="http://www.w3.org/2000/svg"
   xmlns:svg="http://www.w3.org/2000/svg">
  <sodipodi:namedview
     id="namedview7"
     pagecolor="#ffffff"
     bordercolor="#666666"
     borderopacity="1.0"
     inkscape:pageshadow="2"
     inkscape:pageopacity="0.0"
     inkscape:pagecheckerboard="0"
     inkscape:document-units="mm"
     showgrid="true"
     inkscape:snap-nodes="false"
     inkscape:zoom="1.7959596"
     inkscape:cx="44.822835"
     inkscape:cy="53.174916"
     inkscape:window-width="1366"
     inkscape:window-height="705"
     inkscape:window-x="-8"
     inkscape:window-y="-8"
     inkscape:window-maximized="1"
     inkscape:current-layer="layer1"
     inkscape:object-paths="false"
     inkscape:snap-intersection-paths="true"
     inkscape:snap-smooth-nodes="false">
    <inkscape:grid
       type="xygrid"
       id="grid4839" />
  </sodipodi:namedview>
  <defs
     id="defs2">
    <inkscape:path-effect
       effect="spiro"
       id="path-effect4545"
       is_visible="true"
       lpeversion="1" />
    <inkscape:path-effect
       effect="spiro"
       id="path-effect3658"
       is_visible="true"
       lpeversion="1" />
    <inkscape:path-effect
       effect="spiro"
       id="path-effect3125"
       is_visible="true"
       lpeversion="1" />
    <inkscape:perspective
       sodipodi:type="inkscape:persp3d"
       inkscape:vp_x="0 : -124.5 : 1"
       inkscape:vp_y="0 : 999.99994 : 0"
       inkscape:vp_z="210 : -124.5 : 1"
       inkscape:persp3d-origin="105 : -174 : 1"
       id="perspective2281" />
  </defs>
  <g
     inkscape:label="Layer 1"
     inkscape:groupmode="layer"
     id="layer1">
    <g
       id="g4837"
       transform="matrix(1.8000139,0,0,1.7999867,-7.7336692,-9.8749677)">
      <ellipse
         style="fill:none;fill-opacity:1;fill-rule:evenodd;stroke:#000000;stroke-width:0.767035;stroke-linecap:round;stroke-linejoin:bevel;stroke-miterlimit:4;stroke-dasharray:none;stroke-opacity:1;paint-order:stroke markers fill"
         id="path3519"
         cx="10.886525"
         cy="12.082445"
         rx="4.6164804"
         ry="4.6164827" />
      <path
         style="fill:none;stroke:#000000;stroke-width:0.767035;stroke-linecap:butt;stroke-linejoin:miter;stroke-miterlimit:4;stroke-dasharray:none;stroke-opacity:1"
         d="M 10.886524,7.4659641 V 16.698929"
         id="path3656"
         inkscape:original-d="m 10.886524,7.4659641 c 2.6e-5,3.0776819 2.6e-5,6.1553359 0,9.2329649"
         inkscape:path-effect="#path-effect3658" />
      <path
         style="fill:none;fill-opacity:1;fill-rule:evenodd;stroke:#000000;stroke-width:0.854178;stroke-linecap:round;stroke-linejoin:bevel;stroke-miterlimit:4;stroke-dasharray:none;stroke-opacity:1;paint-order:stroke markers fill"
         d="M 10.030848,16.210168 C 8.3557123,15.848864 7.1127333,14.588543 6.7437453,12.877204 c -0.07648,-0.354722 -0.07513,-1.232592 0.0025,-1.602189 0.370554,-1.7648709 1.72863,-3.0668689 3.5023007,-3.3576829 l 0.228359,-0.03744 v 4.1947799 4.19478 l -0.09577,-0.0022 c -0.05267,-0.0012 -0.210289,-0.0269 -0.350266,-0.05709 z"
         id="path3777" />
      <path
         style="fill:none;fill-opacity:1;fill-rule:evenodd;stroke:#000000;stroke-width:0.854178;stroke-linecap:round;stroke-linejoin:bevel;stroke-miterlimit:4;stroke-dasharray:none;stroke-opacity:1;paint-order:stroke markers fill"
         d="m 9.7107713,15.662922 c -1.25083,-0.422457 -2.188398,-1.457431 -2.508325,-2.768922 -0.09143,-0.374794 -0.09279,-1.233093 -0.0025,-1.604252 0.184663,-0.759522 0.499267,-1.3255899 1.033807,-1.8601299 0.459341,-0.459342 0.967915,-0.769008 1.558105,-0.948716 l 0.2430917,-0.07402 v 3.6660919 c 0,3.47216 -0.0028,3.666053 -0.05157,3.665339 -0.02836,-3.77e-4 -0.151011,-0.03434 -0.272557,-0.07539 z"
         id="path3816" />
      <path
         style="fill:none;fill-opacity:1;fill-rule:evenodd;stroke:#000000;stroke-width:0.854178;stroke-linecap:round;stroke-linejoin:bevel;stroke-miterlimit:4;stroke-dasharray:none;stroke-opacity:1;paint-order:stroke markers fill"
         d="m 9.3146433,15.001273 c -0.333688,-0.194996 -0.547844,-0.36157 -0.799537,-0.621894 -0.378709,-0.391698 -0.616901,-0.787362 -0.813399,-1.351155 l -0.09756,-0.279925 -8e-5,-0.648245 c -7.9e-5,-0.630364 0.0023,-0.65556 0.08359,-0.913436 0.181844,-0.576308 0.407155,-0.959002 0.811658,-1.3786079 0.287474,-0.29821 0.540987,-0.494254 0.865241,-0.669102 l 0.228359,-0.123138 v 3.0522579 c 0,2.442573 -0.0074,3.05226 -0.0373,3.05226 -0.02051,0 -0.128949,-0.05356 -0.240965,-0.119015 z"
         id="path3855" />
      <path
         style="fill:none;fill-opacity:1;fill-rule:evenodd;stroke:#000000;stroke-width:0.854178;stroke-linecap:round;stroke-linejoin:bevel;stroke-miterlimit:4;stroke-dasharray:none;stroke-opacity:1;paint-order:stroke markers fill"
         d="m 8.8928723,14.112237 c -0.377079,-0.378512 -0.571857,-0.689533 -0.775654,-1.238569 l -0.09029,-0.243232 0.02017,-0.588901 c 0.0189,-0.552005 0.02571,-0.604618 0.10864,-0.839772 0.17307,-0.490705 0.351765,-0.76829 0.746906,-1.160242 l 0.233544,-0.2316599 0.0077,1.1377299 c 0.0042,0.625752 0.0042,1.648741 0,2.273308 l -0.0077,1.135579 z"
         id="path3894" />
      <path
         style="fill:none;fill-opacity:1;fill-rule:evenodd;stroke:#000000;stroke-width:0.854178;stroke-linecap:round;stroke-linejoin:bevel;stroke-miterlimit:4;stroke-dasharray:none;stroke-opacity:1;paint-order:stroke markers fill"
         d="m 8.5864583,12.858796 -0.09851,-0.22836 0.0085,-0.528559 c 0.0077,-0.473331 0.01626,-0.551656 0.08271,-0.749617 0.04081,-0.121582 0.08631,-0.241738 0.101104,-0.267014 0.01659,-0.02836 0.02724,0.346228 0.02779,0.977976 4.91e-4,0.563163 -0.0045,1.023933 -0.01112,1.023933 -0.0066,0 -0.05632,-0.102761 -0.110494,-0.228359 z"
         id="path3933" />
      <path
         style="fill:#000000;fill-opacity:1;stroke:#000000;stroke-width:0.264583px;stroke-linecap:butt;stroke-linejoin:miter;stroke-opacity:1"
         d="m 9.28125,12.006696 c -0.2989071,-0.05785 -0.6197895,0.0077 -0.872057,0.17815 -0.2522675,0.170451 -0.4328132,0.443702 -0.4906663,0.742609 -0.057853,0.298907 0.0077,0.619789 0.1781502,0.872057 0.170451,0.252267 0.4437015,0.432813 0.7426086,0.490666 0.2989071,0.05785 0.6197895,-0.0077 0.872057,-0.17815 0.2522675,-0.170451 0.4328135,-0.443702 0.4906665,-0.742609 0.05785,-0.298907 -0.0077,-0.619789 -0.17815,-0.872057 C 9.8534076,12.245095 9.5801571,12.064549 9.28125,12.006696 Z"
         id="path4543"
         inkscape:original-d="M 9.28125,12.006696 C 9.4283068,11.245271 8.9868717,13.529282 8.8392855,14.290178 8.6916996,15.051074 9.134193,12.768122 9.28125,12.006696 Z"
         inkscape:path-effect="#path-effect4545" />
    </g>
  </g>
</svg>
