<svg width="192" height="192" viewBox="0 0 192 192" fill="none" xmlns="http://www.w3.org/2000/svg"><path d="M22 26v42a6 6 0 0 0 6 6h42m100 92v-42a6 6 0 0 0-6-6h-42M48 47.34c9.194-9.044 20.645-15.547 33.204-18.858a75.26 75.26 0 0 1 38.341 0c12.559 3.31 24.011 9.814 33.205 18.857A72.721 72.721 0 0 1 170 74m-26 70.661c-9.194 9.043-20.645 15.546-33.204 18.856a75.24 75.24 0 0 1-38.341 0c-12.56-3.31-24.011-9.813-33.205-18.856A72.728 72.728 0 0 1 22 118m48-44L22 26m100 92 48 48" stroke="#000" stroke-width="12" stroke-linecap="round" stroke-linejoin="round"/></svg>