<svg width="192" height="192" fill="none" xmlns="http://www.w3.org/2000/svg"><path d="M111.561 126c10.054 0 5.529 7.038 22.118 7.038M155.796 126c-10.053 0-5.529 7.038-22.117 7.038" stroke="#000" stroke-width="6" stroke-linecap="round" stroke-linejoin="round"/><path d="M111.561 140.075c10.054 0 5.529-7.037 22.118-7.037m22.117 7.037c-10.053 0-5.529-7.037-22.117-7.037" stroke="#000" stroke-width="6" stroke-linecap="round" stroke-linejoin="round"/><circle cx="111.56" cy="133.037" stroke="#000" stroke-width="10" stroke-linecap="round" stroke-linejoin="round" r="5.027"/><circle cx="155.797" cy="133.037" stroke="#000" stroke-width="10" stroke-linecap="round" stroke-linejoin="round" r="5.027"/><path d="M77.9 123.981c5.027 8.706-3.33 8.307 4.965 22.673m17.153 15.635c-5.026-8.707-8.859-1.27-17.153-15.636" stroke="#000" stroke-width="6" stroke-linecap="round" stroke-linejoin="round"/><path d="M65.711 131.018c5.027 8.707 8.86 1.27 17.154 15.636m4.965 22.672c-5.028-8.706 3.33-8.307-4.965-22.673" stroke="#000" stroke-width="6" stroke-linecap="round" stroke-linejoin="round"/><circle cx="5.027" cy="5.027" r="5.027" transform="rotate(60 -67.649 124.096)" stroke="#000" stroke-width="10" stroke-linecap="round" stroke-linejoin="round"/><circle cx="5.027" cy="5.027" r="5.027" transform="rotate(60 -89.765 162.405)" stroke="#000" stroke-width="10" stroke-linecap="round" stroke-linejoin="round"/><path d="M62.82 93.82c-5.027 8.706-8.86 1.27-17.153 15.635m-4.964 22.673c5.026-8.707-3.33-8.308 4.964-22.674" stroke="#000" stroke-width="6" stroke-linecap="round" stroke-linejoin="round"/><path d="M50.631 86.782c-5.027 8.706 3.33 8.307-4.964 22.673M28.513 125.09c5.027-8.706 8.86-1.27 17.154-15.636" stroke="#000" stroke-width="6" stroke-linecap="round" stroke-linejoin="round"/><circle cx="5.027" cy="5.027" r="5.027" transform="rotate(120 6.26 62.588)" stroke="#000" stroke-width="10" stroke-linecap="round" stroke-linejoin="round"/><circle cx="5.027" cy="5.027" transform="rotate(120 -15.857 75.357)" stroke="#000" stroke-width="10" stroke-linecap="round" stroke-linejoin="round" r="5.027"/><path d="M37.165 51.605c10.053 0 5.529 7.037 22.117 7.037M81.4 51.605c-10.054 0-5.53 7.037-22.118 7.037M37.165 65.68c10.053 0 5.529-7.038 22.117-7.038M81.4 65.68c-10.054 0-5.53-7.038-22.118-7.038" stroke="#000" stroke-width="6" stroke-linecap="round" stroke-linejoin="round"/><circle cx="37.164" cy="58.642" stroke="#000" stroke-width="10" stroke-linecap="round" stroke-linejoin="round" r="5.027"/><circle cx="81.4" cy="58.642" stroke="#000" stroke-width="10" stroke-linecap="round" stroke-linejoin="round" r="5.027"/><path d="M105.131 22.353c5.027 8.707-3.33 8.307 4.964 22.673m17.154 15.637c-5.027-8.707-8.859-1.27-17.154-15.636M92.942 29.39c5.027 8.707 8.859 1.27 17.153 15.636M115.06 67.7c-5.027-8.707 3.33-8.307-4.965-22.673" stroke="#000" stroke-width="6" stroke-linecap="round" stroke-linejoin="round"/><circle cx="5.027" cy="5.027" transform="rotate(60 33.98 96.865)" stroke="#000" stroke-width="10" stroke-linecap="round" stroke-linejoin="round" r="5.027"/><circle cx="5.027" cy="5.027" r="5.027" transform="rotate(60 11.861 135.175)" stroke="#000" stroke-width="10" stroke-linecap="round" stroke-linejoin="round"/><path d="M164.448 66.588c-5.027 8.706-8.86 1.27-17.154 15.636m-4.965 22.672c5.027-8.706-3.329-8.307 4.965-22.673" stroke="#000" stroke-width="6" stroke-linecap="round" stroke-linejoin="round"/><path d="M152.258 59.55c-5.026 8.707 3.33 8.308-4.964 22.674M130.14 97.859c5.027-8.707 8.86-1.27 17.154-15.636" stroke="#000" stroke-width="6" stroke-linecap="round" stroke-linejoin="round"/><circle cx="5.027" cy="5.027" transform="rotate(120 64.935 78.31)" stroke="#000" stroke-width="10" stroke-linecap="round" stroke-linejoin="round" r="5.027"/><circle cx="5.027" cy="5.027" transform="rotate(120 42.817 91.079)" stroke="#000" stroke-width="10" stroke-linecap="round" stroke-linejoin="round" r="5.027"/><circle cx="62" cy="34" r="4" stroke="#000" stroke-width="8" stroke-linecap="round" stroke-linejoin="round"/><circle cx="27" cy="96" r="4" stroke="#000" stroke-width="8" stroke-linecap="round" stroke-linejoin="round"/><circle cx="163" cy="96" r="4" stroke="#000" stroke-width="8" stroke-linecap="round" stroke-linejoin="round"/><circle cx="4" cy="4" r="4" transform="matrix(-1 0 0 1 134 30)" stroke="#000" stroke-width="8" stroke-linecap="round" stroke-linejoin="round"/><circle cx="130" cy="158" r="4" stroke="#000" stroke-width="8" stroke-linecap="round" stroke-linejoin="round"/><circle cx="4" cy="4" r="4" transform="matrix(-1 0 0 1 66 154)" stroke="#000" stroke-width="8" stroke-linecap="round" stroke-linejoin="round"/></svg>