<svg xmlns="http://www.w3.org/2000/svg" width="192" height="192" fill="none" viewBox="0 0 192 192"><path stroke="#000" stroke-linecap="round" stroke-linejoin="round" stroke-width="12" d="M156 30H36a6 6 0 0 0-6 6v120a6 6 0 0 0 6 6h120a6 6 0 0 0 6-6V36a6 6 0 0 0-6-6Z"/><path stroke="#000" stroke-linecap="round" stroke-linejoin="round" stroke-width="12" d="M108 58H84a6 6 0 0 0-6 6v92a6 6 0 0 0 6 6h24a6 6 0 0 0 6-6V64a6 6 0 0 0-6-6Zm-78 76c26 0 42-22 48-38v24c-8 28-38 42-38 42m122-28c-26 0-42-22-48-38v24c8 28 38 42 38 42"/></svg>