<svg xmlns="http://www.w3.org/2000/svg" width="192" height="192" fill="none" stroke="#000" stroke-linejoin="round" stroke-width="10" viewBox="0 0 192 192"><circle cx="96" cy="96" r="74" stroke-width="12"/><ellipse cx="59" cy="95" rx="3" ry="5"/><ellipse cx="133" cy="95" rx="3" ry="5"/><path d="M128 120c0 3.152-.828 6.273-2.436 9.184-1.608 2.912-3.965 5.558-6.937 7.787-2.971 2.228-6.499 3.996-10.381 5.202S100.202 144 96 144s-8.364-.621-12.246-1.827-7.41-2.974-10.381-5.202c-2.972-2.229-5.329-4.875-6.937-7.787S64 123.152 64 120z"/><path stroke-linecap="round" d="M84 142s4-4 12-4 12 4 12 4"/></svg>