<?xml version="1.0" encoding="UTF-8" standalone="no"?>
<!-- Created with Inkscape (http://www.inkscape.org/) -->

<svg
   xmlns:dc="http://purl.org/dc/elements/1.1/"
   xmlns:cc="http://creativecommons.org/ns#"
   xmlns:rdf="http://www.w3.org/1999/02/22-rdf-syntax-ns#"
   xmlns:svg="http://www.w3.org/2000/svg"
   xmlns="http://www.w3.org/2000/svg"
   xmlns:sodipodi="http://sodipodi.sourceforge.net/DTD/sodipodi-0.dtd"
   xmlns:inkscape="http://www.inkscape.org/namespaces/inkscape"
   width="160px"
   height="160px"
   viewBox="0 0 160 160"
   version="1.1"
   id="SVGRoot"
   inkscape:version="0.92.4 (5da689c313, 2019-01-14)"
   sodipodi:docname="daylio.svg">
  <defs
     id="defs7703" />
  <sodipodi:namedview
     id="base"
     pagecolor="#ffffff"
     bordercolor="#666666"
     borderopacity="1.0"
     inkscape:pageopacity="0.0"
     inkscape:pageshadow="2"
     inkscape:zoom="3.94"
     inkscape:cx="4.1487282"
     inkscape:cy="93.265059"
     inkscape:document-units="px"
     inkscape:current-layer="layer1"
     showgrid="false"
     inkscape:window-width="1920"
     inkscape:window-height="1057"
     inkscape:window-x="-8"
     inkscape:window-y="-8"
     inkscape:window-maximized="1" />
  <metadata
     id="metadata7706">
    <rdf:RDF>
      <cc:Work
         rdf:about="">
        <dc:format>image/svg+xml</dc:format>
        <dc:type
           rdf:resource="http://purl.org/dc/dcmitype/StillImage" />
        <dc:title></dc:title>
      </cc:Work>
    </rdf:RDF>
  </metadata>
  <g
     inkscape:label="Layer 1"
     inkscape:groupmode="layer"
     id="layer1">
    <path
       id="path8288"
       style="color:#000000;font-style:normal;font-variant:normal;font-weight:normal;font-stretch:normal;font-size:medium;line-height:normal;font-family:sans-serif;font-variant-ligatures:normal;font-variant-position:normal;font-variant-caps:normal;font-variant-numeric:normal;font-variant-alternates:normal;font-feature-settings:normal;text-indent:0;text-align:start;text-decoration:none;text-decoration-line:none;text-decoration-style:solid;text-decoration-color:#000000;letter-spacing:normal;word-spacing:normal;text-transform:none;writing-mode:lr-tb;direction:ltr;text-orientation:mixed;dominant-baseline:auto;baseline-shift:baseline;text-anchor:start;white-space:normal;shape-padding:0;clip-rule:nonzero;display:inline;overflow:visible;visibility:visible;opacity:1;isolation:auto;mix-blend-mode:normal;color-interpolation:sRGB;color-interpolation-filters:linearRGB;solid-color:#000000;solid-opacity:1;vector-effect:none;fill:#001105;fill-opacity:1;fill-rule:nonzero;stroke:none;stroke-width:12.00042725;stroke-linecap:round;stroke-linejoin:round;stroke-miterlimit:4;stroke-dasharray:none;stroke-dashoffset:0;stroke-opacity:1;color-rendering:auto;image-rendering:auto;shape-rendering:auto;text-rendering:auto;enable-background:accumulate"
       d="m 80.068359,0.20117188 c -44.111709,0 -79.99999963,35.88829012 -79.99999963,80.00000012 0,44.111708 35.88829063,79.999998 79.99999963,79.999998 44.111711,0 80.000001,-35.88829 80.000001,-79.999998 0,-44.11171 -35.88829,-80.00000012 -80.000001,-80.00000012 z m 0,12.00000012 c 37.626201,0 68.000001,30.373803 68.000001,68 0,37.626198 -30.3738,67.998048 -68.000001,67.998048 -37.626197,0 -68,-30.37185 -68,-67.998048 0,-37.626197 30.373803,-68 68,-68 z M 39.92234,90.387918 c -3.44347,-0.06018 -7.1615,-2.094836 -7.76806,-6.812277 -0.26734,-2.079205 -0.43537,-7.862894 1.2832,-10.275106 1.82047,-2.55524 3.71305,-3.352504 6.68673,-3.352504 2.97368,0 4.74735,0.98541 6.33564,2.85602 1.94935,2.295858 2.00542,7.557558 1.57409,10.957129 -0.63735,5.023302 -4.62069,6.687748 -8.1116,6.626738 z m 80.46875,0 c -3.44347,-0.06018 -7.1615,-2.094836 -7.76806,-6.812277 -0.26734,-2.079205 -0.43537,-7.862894 1.2832,-10.275106 1.82047,-2.55524 3.71305,-3.352504 6.68673,-3.352504 2.97368,0 4.74735,0.98541 6.33564,2.85602 1.94935,2.295858 2.00542,7.557558 1.57409,10.957129 -0.63735,5.023302 -4.62069,6.687748 -8.1116,6.626738 z M 78.0625,137.08387 c -13.160092,-1.17063 -25.232392,-8.43363 -34.040211,-17.98596 -3.140248,-3.16359 -5.586206,-9.44728 -0.924943,-12.34511 5.715447,-2.89386 12.536554,-0.94385 18.696706,-1.54639 17.456968,0.14203 34.95432,-0.34198 52.384838,0.28994 5.01079,0.21969 7.75903,6.23899 4.78844,10.26563 -6.14842,9.24916 -16.10464,15.35385 -26.312521,19.27418 -4.698466,1.51186 -9.638827,2.44857 -14.592309,2.04771 z"
       inkscape:connector-curvature="0" />
  </g>
</svg>
