<?xml version="1.0" encoding="utf-8"?>
	<svg version="1.1" xmlns="http://www.w3.org/2000/svg" xmlns:xlink="http://www.w3.org/1999/xlink" x="0px" y="0px" width="240.0" height="240.0" xml:space="preserve">
		<path d="M160.761,21C169.771,54.677 153.677,89.18 123.943,104.563C167.249,100.665 208.377,128.313 220,171.711L220,171.711L190.679,179.574C181.99,147.181 148.702,127.946 116.309,136.635C83.916,145.324 64.681,178.611 73.37,211.005L73.37,211.005L44.049,218.868C32.403,175.447 54.204,130.95 93.659,112.678C60.211,114.214 29.033,92.412 20,58.735L20,58.735L43.475,52.431C50.422,78.336 77.061,93.719 102.967,86.773C128.872,79.826 144.255,53.187 137.309,27.282L137.309,27.282ZM86.437,25.218C97.258,22.307 108.193,25.746 115.621,33.105C119.312,36.75 122.178,41.312 123.622,46.676C127.978,62.862 118.349,79.528 102.164,83.861C85.979,88.194 69.312,78.588 64.979,62.403C63.535,57.039 63.764,51.651 65.117,46.653C67.845,36.566 75.617,28.13 86.437,25.218Z" fill="#000" stroke="#00000000" stroke-width="1.0" stroke-miterlimit=""/>
	</svg>
