<svg width="192" height="192" fill="none" xmlns="http://www.w3.org/2000/svg"><path d="M26.757 85.757 37 96l-10.243 10.243A5.998 5.998 0 0 0 25 110.485V161a6 6 0 0 0 6 6h130a6 6 0 0 0 6-6v-50.515a6 6 0 0 0-1.757-4.242L155 96l10.243-10.243A6 6 0 0 0 167 81.515V31a6 6 0 0 0-6-6H31a6 6 0 0 0-6 6v50.515a6 6 0 0 0 1.757 4.242Z" stroke="#000" stroke-width="12" stroke-linecap="round" stroke-linejoin="round"/><path d="M60 45v42h16c5.523 0 10-4.477 10-10V55c0-5.523-4.477-10-10-10H60Zm0 60h26l-26 42h26m17-60 13.714-42h4.572L135 87" stroke="#000" stroke-width="10" stroke-linecap="round" stroke-linejoin="round"/><path d="M106 79h26" stroke="#000" stroke-width="8" stroke-linecap="round" stroke-linejoin="round"/><path d="M106 147v-42l26 42v-42" stroke="#000" stroke-width="10" stroke-linecap="round" stroke-linejoin="round"/></svg>