<svg xmlns="http://www.w3.org/2000/svg" width="192" height="192" fill="none" stroke="#000" stroke-linejoin="round" viewBox="0 0 192 192"><path stroke-width="12.173" d="M48.099 66 48 126c27.287 0 36.68-4.737 36.68-30.79C84.68 68.566 71.43 66 48.099 66Zm61.495.296v59.309c27.386 0 34.406-2.664 34.406-15.394 0-11.843-11.519-16.152-34.357-16.152 22.838 0 32.38-1.316 32.38-14.046 0-12.829-9.59-13.717-32.429-13.717Z"/><path stroke-width="12" d="M22 142V50a6 6 0 0 1 6-6h136a6 6 0 0 1 6 6v92a6 6 0 0 1-6 6H28a6 6 0 0 1-6-6Z"/></svg>