<svg xmlns="http://www.w3.org/2000/svg" width="192" height="192" fill="none" stroke="#000" stroke-linecap="round" stroke-linejoin="round" stroke-width="12" viewBox="0 0 192 192"><path d="M34 42h124l-15.343 122.744a6 6 0 0 1-5.954 5.256H55.297a6 6 0 0 1-5.954-5.256z"/><path stroke-width="8" d="M130.184 87.668c1.859 3.866 2.816 8.009 2.816 12.193a5.14 5.14 0 0 1-5.139 5.139H64.139A5.14 5.14 0 0 1 59 99.861c0-4.184.957-8.327 2.816-12.193 1.86-3.865 4.585-7.378 8.021-10.336s7.515-5.305 12.004-6.907C86.33 68.825 91.14 68 96 68s9.67.824 14.159 2.425c4.489 1.602 8.568 3.948 12.004 6.907s6.161 6.47 8.021 10.336M78 71l-7-11m50 0-7 11"/><path d="m34 22 124 20"/><circle cx="82" cy="89" r="3" stroke-width="6"/><circle cx="110" cy="89" r="3" stroke-width="6"/></svg>