<svg xmlns="http://www.w3.org/2000/svg" width="192" height="192" fill="none"><path stroke="#000" stroke-linecap="round" stroke-linejoin="round" stroke-width="12" d="M72 136c0-15 8-13 8-25 0-24-37-30-37-30 0-59 42-59 42-59-32 43-3 57 20 51 0 26 35 22 35 63m0 0a34 34 0 0 1-9.958 24.042A34.02 34.02 0 0 1 106 170a34 34 0 0 1-24.042-9.958A34 34 0 0 1 72 136"/><path stroke="#000" stroke-linecap="round" stroke-linejoin="round" stroke-width="8" d="M138.913 76.47a4 4 0 0 1-5.226 5.225S121.217 77 123.217 59c0 17.47 13.531 12.243 15.696 17.47"/><path stroke="#000" stroke-linejoin="round" stroke-width="10" d="M118 134c-9.405 0-12 3.459-12 16 0-12.541-2.595-16-12-16 9.405 0 12-3.459 12-16 0 12.541 2.595 16 12 16Z"/></svg>