<svg xmlns="http://www.w3.org/2000/svg" width="192" height="192" fill="none" viewBox="0 0 192 192"><path stroke="#000" stroke-linecap="round" stroke-linejoin="round" stroke-width="10" d="M96 45v10m-7.51 43.25C96 100 106.5 100 106.5 100"/><circle cx="96" cy="96" r="74" stroke="#000" stroke-linecap="round" stroke-linejoin="round" stroke-width="12"/><path stroke="#000" stroke-linecap="round" stroke-linejoin="round" stroke-width="10" d="m154 54-30.97 30.97M54 154l69.03-69.03M88.494 98.25c-5.853-1.19-11.067-3.74-14.911-7.293s-6.125-7.931-6.52-12.518c-.397-4.587 1.11-9.153 4.31-13.056 3.2-3.904 7.931-6.95 13.53-8.708 5.597-1.76 11.781-2.144 17.682-1.1 5.901 1.043 11.223 3.463 15.218 6.92 3.996 3.455 6.463 7.774 7.057 12.349.449 3.453.14 8.156-1.83 10.126M145 95l-1 1m-9 9-20 20m8 16H99m-32-20c0 4.646 1.939 9.173 5.538 12.931"/></svg>