<svg width="192" height="192" viewBox="0 0 192 192" fill="none" xmlns="http://www.w3.org/2000/svg"><path d="M62 58c1.695 0 3.32.038 4.881.11a6.55 6.55 0 0 0 4.178-1.276C86.948 45.146 99 47 99 47c-8.815 4.407-11.394 12.652-5.716 17.954.24.224.513.418.792.59C109.75 75.31 114.678 92.12 142 101" stroke="#000" stroke-width="12" stroke-linecap="round" stroke-linejoin="round"/><path d="M105.265 102.735c2.095 2.096 3.227 4.36 2.529 5.059-.699.698-2.963-.434-5.059-2.529-2.095-2.096-3.227-4.36-2.529-5.059.699-.698 2.963.434 5.059 2.529Z" stroke="#000" stroke-width="8" stroke-linecap="round" stroke-linejoin="round"/><path d="M24 93c59-17 71 77 119 57 0 0-15-7-21.5-18.5" stroke="#000" stroke-width="10" stroke-linecap="round" stroke-linejoin="round"/><path d="M83 159c10.146 0 20.114-3.918 29-10.452M145 76c2.125 20.715-5.907 42.84-19 59.033" stroke="#000" stroke-width="12" stroke-linecap="round" stroke-linejoin="round"/><path d="M170 42c0 55-69 30-43-11 7 11 17 5 19 19 5-10 14-3 24-8ZM22 98a61.001 61.001 0 0 0 61 61M62 58a40 40 0 0 0-40 40" stroke="#000" stroke-width="12" stroke-linecap="round" stroke-linejoin="round"/></svg>