<svg width="192" height="192" viewBox="0 0 192 192" fill="none" xmlns="http://www.w3.org/2000/svg">
<path d="M152.95 83H39.05C29 83 29 83 29 89.2812V143.719C29 150 29 150 39.05 150H152.95C163 150 163 150 163 143.719V89.2812C163 83 163 83 152.95 83Z" stroke="black" stroke-width="12"/>
<path d="M28.7339 42.4248L22.2404 72.695C21.0413 78.2848 24.576 82.785 30.1659 82.785H161.841C167.431 82.785 170.966 78.2848 169.767 72.695L163.267 42.4248H28.7339Z" stroke="black" stroke-width="12" stroke-linejoin="round"/>
<path d="M112.5 132L142.5 132" stroke="black" stroke-width="8" stroke-linecap="round"/>
<path d="M139 121.5V109" stroke="black" stroke-width="6" stroke-linecap="round"/>
<path d="M116 121.5V109" stroke="black" stroke-width="6" stroke-linecap="round"/>
<path d="M132.5 109L139 102.5L146 109.5" stroke="black" stroke-width="6" stroke-linecap="round" stroke-linejoin="round"/>
<path d="M109.5 109L116 102.5L123 109.5" stroke="black" stroke-width="6" stroke-linecap="round" stroke-linejoin="round"/>
<path d="M85 106H46V133H85V106Z" stroke="black" stroke-width="6" stroke-linecap="round" stroke-linejoin="round"/>
<path d="M55 115H64" stroke="black" stroke-width="6" stroke-linecap="round" stroke-linejoin="round"/>
<path d="M55 124H68.5" stroke="black" stroke-width="6" stroke-linecap="round" stroke-linejoin="round"/>
</svg>
