<svg xmlns="http://www.w3.org/2000/svg" width="192" height="192" fill="none"><path stroke="#000" stroke-linecap="round" stroke-linejoin="round" stroke-width="12" d="M43.667 117.667c11.966 0 21.666-9.701 21.666-21.667s-9.7-21.667-21.666-21.667S22 84.033 22 96c0 11.966 9.7 21.667 21.667 21.667M65.334 96H96l37.554-37.554M96 96l37.554 37.554M162 22h-20.446a8 8 0 0 0-8 8v20.446a8 8 0 0 0 8 8H162a8 8 0 0 0 8-8V30a8 8 0 0 0-8-8m0 111.554h-20.446a8 8 0 0 0-8 8V162a8 8 0 0 0 8 8H162a8 8 0 0 0 8-8v-20.446a8 8 0 0 0-8-8"/></svg>