<svg xmlns="http://www.w3.org/2000/svg" width="192" height="192" fill="none"><circle cx="96" cy="113" r="27" stroke="#000" stroke-linecap="round" stroke-linejoin="round" stroke-width="12"/><path stroke="#000" stroke-linecap="round" stroke-linejoin="round" stroke-width="12" d="M119.383 58.25c-2.37-2.812-5.778-5.148-9.883-6.772C105.395 49.855 100.739 49 96 49s-9.395.855-13.5 2.478-7.513 3.96-9.883 6.772S69 64.253 69 67.5s1.248 6.438 3.617 9.25c2.37 2.812 5.778 5.148 9.883 6.772C86.605 85.145 91.26 86 96 86"/><path stroke="#000" stroke-linecap="round" stroke-linejoin="round" stroke-width="12" d="M22 96c0 40.869 33.13 74 74 74 11.174 0 21.769-2.477 31.267-6.911 3.515-1.641 7.355-2.638 11.216-2.265C163.218 163.218 170 170 170 170s-6.615-6.963-8.805-32.508c-.32-3.734.629-7.439 2.182-10.849C167.631 117.306 170 106.93 170 96c0-40.87-33.131-74-74-74S22 55.13 22 96"/></svg>