<svg width="192" height="192" fill="none" xmlns="http://www.w3.org/2000/svg"><path d="M43.667 117.667c11.966 0 21.666-9.701 21.666-21.667 0-11.966-9.7-21.667-21.666-21.667C31.7 74.333 22 84.033 22 96c0 11.966 9.7 21.667 21.667 21.667ZM65.334 96H96l37.554-37.554M96 96l37.554 37.554M162 22h-20.446a8 8 0 0 0-8 8v20.446a8 8 0 0 0 8 8H162a8 8 0 0 0 8-8V30a8 8 0 0 0-8-8Zm0 111.554h-20.446a8 8 0 0 0-8 8V162a8 8 0 0 0 8 8H162a8 8 0 0 0 8-8v-20.446a8 8 0 0 0-8-8Z" stroke="#000" stroke-width="12" stroke-linecap="round" stroke-linejoin="round"/></svg>