<svg xmlns="http://www.w3.org/2000/svg" width="192" height="192" fill="none"><path stroke="#000" stroke-linecap="round" stroke-linejoin="round" stroke-width="12" d="M22 57.797a16 16 0 0 1 13.648-15.826l115.999-17.243C161.315 23.291 170 30.781 170 40.554v110.892c0 9.773-8.685 17.263-18.353 15.826l-116-17.243A16 16 0 0 1 22 134.203z"/><path stroke="#000" stroke-linecap="round" stroke-linejoin="round" stroke-width="12" d="M59 66.051c0-3.697 3.311-6.514 6.96-5.922l62 10.054a6 6 0 0 1 5.04 5.922v39.79a6 6 0 0 1-5.04 5.922l-62 10.054c-3.649.592-6.96-2.225-6.96-5.922z"/></svg>