<svg xmlns="http://www.w3.org/2000/svg" width="192" height="192" fill="none" stroke="#000" stroke-linejoin="round" stroke-width="8" viewBox="0 0 192 192"><path d="M171.999 126.391c-.765-.519-1.544-1.017-2.291-1.56-4.913-3.562-9.302-3.71-13.997.135-3.452 2.828-6.441 6.233-9.741 9.263-3.664 3.362-7.209 6.936-11.23 9.8-7.071 5.037-14.621 5.207-22.223.937-4.478-2.514-8.052-6.128-11.628-9.758-3.113-3.159-6.246-6.303-9.473-9.339-1.145-1.077-2.516-1.978-3.919-2.683-3.538-1.776-6.974-1.016-10.132 1.02-1.737 1.121-3.332 2.524-4.827 3.974-4.08 3.958-8.007 8.081-12.121 12-3.159 3.008-6.716 5.468-10.908 6.811-6.946 2.227-13.239.52-18.894-3.693-3.214-2.395-6.05-5.316-9.058-7.997-.513-.457-1.037-.903-1.557-1.353v-15.721c2.489 2.445 4.966 4.904 7.47 7.334 2.54 2.464 4.99 5.045 7.688 7.318 5.872 4.948 10.98 4.976 16.784-.085 4.238-3.695 8.188-7.733 12.235-11.652 3.448-3.339 6.939-6.575 11.431-8.477 6.985-2.955 13.451-1.578 19.623 2.3 4.725 2.969 8.337 7.219 12.23 11.154 2.729 2.757 5.472 5.576 8.571 7.859 5.196 3.829 9.142 3.675 14.208-.373 3.178-2.541 6.036-5.497 9.026-8.28 3.282-3.055 6.386-6.334 9.857-9.146 6.99-5.662 14.668-6.819 22.877-2.789v13l-.001.001Z"/><path d="M160 36.001c-.021.387.023.791-.071 1.16-6.277 24.303-13.427 48.318-23.152 71.484-3.477 8.281-7.38 16.34-12.022 24.029-.71 1.177-1.528 1.492-2.798 1.25-3.209-.608-5.52-2.666-7.957-4.765.82-1.344 1.596-2.599 2.356-3.864 6.364-10.572 10.9-21.993 15.237-33.501 6.75-17.913 12.117-36.266 17.012-54.768.089-.333.116-.684.172-1.026l11.223.001ZM39.209 36c1.493 5.411 2.95 10.834 4.485 16.232 5.563 19.55 11.911 38.821 20.103 57.441.674 1.533 1.44 3.028 2.075 4.577.166.403.193 1.15-.053 1.393-2.49 2.448-5.049 4.823-7.735 7.357-.344-.614-.672-1.137-.939-1.69-6.062-12.532-10.841-25.581-15.401-38.714-5.205-14.994-9.816-30.17-13.626-45.587-.08-.326-.08-.673-.118-1.009h11.209Zm27.792 102.097L74.773 130c.901 1.208 1.699 2.537 2.74 3.622 2.706 2.814 5.295 5.816 8.338 8.204 5.116 4.013 10.19 3.972 15.558.339 1.032-.698 1.562-.557 2.484.172 2.36 1.864 4.861 3.541 7.305 5.295.229.164.455.336.802.592-4.953 4.482-10.429 7.421-17.073 7.748-5.633.277-10.633-1.526-15.196-4.757-5.102-3.613-9.131-8.292-12.73-13.118Z"/></svg>