<svg width="191" height="192" fill="none" xmlns="http://www.w3.org/2000/svg"><path d="M47.042 85.35c.247-1.764 2.493-2.348 3.56-.924l25.895 34.544-27.583-3.897c-3.264-.461-5.538-3.495-5.08-6.776l3.208-22.946Zm100.482 14.196c.246-1.764-1.752-2.948-3.168-1.875l-34.365 26.031 27.583 3.897c3.265.461 6.283-1.825 6.742-5.107l3.208-22.946Zm-36.947 34.337a19.11 19.11 0 0 0-.418-7.401 19.05 19.05 0 0 0-3.204-6.678 18.948 18.948 0 0 0-5.502-4.936 18.805 18.805 0 0 0-14.326-2.024 18.858 18.858 0 0 0-6.642 3.221 18.96 18.96 0 0 0-4.91 5.531 19.068 19.068 0 0 0-2.432 6.999l37.434 5.288Z" stroke="#000" stroke-width="10" stroke-linecap="round" stroke-linejoin="round"/><path d="m86.836 25.977 47.394 5.85M111.417 21l-3.819 29.783m0 0s-.658 10.433 21.632 13.091m-21.632-13.09s-2.647 10.195-27.783 7.197m49.415 5.893 35.481 4.232c3.421.408 5.834 3.6 5.332 7.054l-13.425 90.544c-.51 3.516-3.827 5.878-7.263 5.171L25.787 147.446c-3.147-.648-5.263-3.654-4.843-6.882l10.69-82.178c.437-3.359 3.454-5.739 6.773-5.343l41.408 4.938m49.415 5.893-49.415-5.893" stroke="#000" stroke-width="10" stroke-linecap="round" stroke-linejoin="round"/></svg>