<svg xmlns="http://www.w3.org/2000/svg" width="192" height="192" fill="none"><path stroke="#000" stroke-linecap="round" stroke-linejoin="round" stroke-width="12" d="M91.73 23.769a6.04 6.04 0 0 1 8.541 0l67.96 67.96a6.04 6.04 0 0 1 0 8.542l-67.96 67.96a6.04 6.04 0 0 1-8.542 0l-67.96-67.96a6.04 6.04 0 0 1 0-8.542l67.96-67.96Z"/><path stroke="#000" stroke-linecap="round" stroke-linejoin="round" stroke-width="12" d="M96 67.053 68.67 94.384a2.285 2.285 0 0 0 0 3.232l25.714 25.715c.892.892 2.34.892 3.232 0l25.715-25.715a2.286 2.286 0 0 0 0-3.232L73 44.054"/></svg>