<svg xmlns="http://www.w3.org/2000/svg" width="192" height="192" fill="none" viewBox="0 0 192 192"><path stroke="#000" stroke-width="6" d="M97.736 19c-8.432 0-15.23 6.872-15.23 15.31a15.21 15.21 0 0 0 15.232 15.25c8.434 0 15.292-6.802 15.292-15.248 0-8.439-6.858-15.308-15.292-15.308zm-12.39 79.938a9.024 9.024 0 0 0-8.886 7.14 9.002 9.002 0 1 0 17.59 3.813c1.048-4.867-2.03-9.722-6.89-10.77a9 9 0 0 0-1.814-.183zm38.806-49.982c-7.167 0-12.997 5.773-12.997 12.949 0 7.178 5.83 13.01 12.997 13.01 7.17 0 12.994-5.832 12.994-13.01 0-7.174-5.824-12.95-12.994-12.95zm-57.846 63.296c-3.563-.04-6.774 2.369-7.555 5.992-.895 4.14 1.728 8.24 5.863 9.137 4.132.891 8.237-1.732 9.127-5.873.896-4.134-1.726-8.241-5.863-9.137-.517-.111-1.063-.113-1.572-.12zm61.41-27.473c-6.09 0-11.06 4.917-11.06 11.012 0 6.104 4.971 11.074 11.06 11.074 6.096 0 11.003-4.97 11.003-11.074a10.984 10.984 0 0 0-11.002-11.012zm-67.878 47.562a6.5 6.5 0 0 0-6.408 5.144 6.487 6.487 0 0 0 12.695 2.783c.758-3.512-1.44-6.987-4.957-7.744a7 7 0 0 0-1.33-.183zm53.433-19a9.369 9.369 0 1 0 9.37 9.38 9.37 9.37 0 0 0-9.37-9.38zm-48.114 37.274c-2.723-.026-5.205 1.834-5.802 4.599a5.833 5.833 0 0 0 11.424 2.479 5.84 5.84 0 0 0-4.473-6.956 5.6 5.6 0 0 0-1.149-.12zm24.722-21.3a7.99 7.99 0 0 0 0 15.975 7.988 7.988 0 0 0 0-15.975zm-11.785 33.1a5.28 5.28 0 0 0-5.2 4.177c-.616 2.853 1.143 5.673 3.99 6.292a5.297 5.297 0 0 0 6.286-4.054 5.3 5.3 0 0 0-5.076-6.414z"/></svg>