<?xml version="1.0" encoding="UTF-8" standalone="no"?>
<svg
   width="192"
   height="192"
   viewBox="0 0 192 192"
   fill="none"
   version="1.1"
   id="svg14"
   sodipodi:docname="deutschlandcard.svg"
   inkscape:version="1.2.2 (b0a8486541, 2022-12-01)"
   xml:space="preserve"
   xmlns:inkscape="http://www.inkscape.org/namespaces/inkscape"
   xmlns:sodipodi="http://sodipodi.sourceforge.net/DTD/sodipodi-0.dtd"
   xmlns="http://www.w3.org/2000/svg"
   xmlns:svg="http://www.w3.org/2000/svg"><defs
     id="defs18"><inkscape:path-effect
       effect="powerclip"
       id="path-effect5969"
       is_visible="true"
       lpeversion="1"
       inverse="true"
       flatten="false"
       hide_clip="false"
       message="Use fill-rule evenodd on &lt;b&gt;fill and stroke&lt;/b&gt; dialog if no flatten result after convert clip to paths." /><inkscape:path-effect
       effect="powerclip"
       id="path-effect3933"
       is_visible="true"
       lpeversion="1"
       inverse="true"
       flatten="true"
       hide_clip="false"
       message="Use fill-rule evenodd on &lt;b&gt;fill and stroke&lt;/b&gt; dialog if no flatten result after convert clip to paths." /><inkscape:path-effect
       effect="fillet_chamfer"
       id="path-effect3204"
       is_visible="true"
       lpeversion="1"
       nodesatellites_param="F,0,0,1,0,6,0,1 @ F,0,0,1,0,6,0,1 @ F,0,0,1,0,6,0,1 @ F,0,0,1,0,6,0,1"
       unit="px"
       method="auto"
       mode="F"
       radius="6"
       chamfer_steps="1"
       flexible="false"
       use_knot_distance="true"
       apply_no_radius="true"
       apply_with_radius="true"
       only_selected="false"
       hide_knots="false" /><filter
       id="mask-powermask-path-effect3828_inverse"
       inkscape:label="filtermask-powermask-path-effect3828"
       style="color-interpolation-filters:sRGB"
       height="100"
       width="100"
       x="-50"
       y="-50"><feColorMatrix
         id="mask-powermask-path-effect3828_primitive1"
         values="1"
         type="saturate"
         result="fbSourceGraphic" /><feColorMatrix
         id="mask-powermask-path-effect3828_primitive2"
         values="-1 0 0 0 1 0 -1 0 0 1 0 0 -1 0 1 0 0 0 1 0 "
         in="fbSourceGraphic" /></filter><filter
       id="mask-powermask-path-effect3854_inverse"
       inkscape:label="filtermask-powermask-path-effect3854"
       style="color-interpolation-filters:sRGB"
       height="100"
       width="100"
       x="-50"
       y="-50"><feColorMatrix
         id="mask-powermask-path-effect3854_primitive1"
         values="1"
         type="saturate"
         result="fbSourceGraphic" /><feColorMatrix
         id="mask-powermask-path-effect3854_primitive2"
         values="-1 0 0 0 1 0 -1 0 0 1 0 0 -1 0 1 0 0 0 1 0 "
         in="fbSourceGraphic" /></filter><filter
       id="mask-powermask-path-effect3872_inverse"
       inkscape:label="filtermask-powermask-path-effect3872"
       style="color-interpolation-filters:sRGB"
       height="100"
       width="100"
       x="-50"
       y="-50"><feColorMatrix
         id="mask-powermask-path-effect3872_primitive1"
         values="1"
         type="saturate"
         result="fbSourceGraphic" /><feColorMatrix
         id="mask-powermask-path-effect3872_primitive2"
         values="-1 0 0 0 1 0 -1 0 0 1 0 0 -1 0 1 0 0 0 1 0 "
         in="fbSourceGraphic" /></filter><filter
       id="mask-powermask-path-effect3891_inverse"
       inkscape:label="filtermask-powermask-path-effect3891"
       style="color-interpolation-filters:sRGB"
       height="100"
       width="100"
       x="-50"
       y="-50"><feColorMatrix
         id="mask-powermask-path-effect3891_primitive1"
         values="1"
         type="saturate"
         result="fbSourceGraphic" /><feColorMatrix
         id="mask-powermask-path-effect3891_primitive2"
         values="-1 0 0 0 1 0 -1 0 0 1 0 0 -1 0 1 0 0 0 1 0 "
         in="fbSourceGraphic" /></filter><clipPath
       clipPathUnits="userSpaceOnUse"
       id="clipPath3929"><circle
         style="display:none;fill:#ffffff;fill-opacity:1;stroke:none;stroke-width:12;stroke-dasharray:none"
         id="circle3931"
         clip-path="none"
         mask="none"
         r="6"
         cy="117.5"
         cx="117.5" /></clipPath><clipPath
       clipPathUnits="userSpaceOnUse"
       id="clipPath5965"><circle
         style="display:none;fill:#000000;fill-opacity:1;stroke:none;stroke-width:12;stroke-dasharray:none"
         id="circle5967"
         cx="115.697"
         cy="115.697"
         r="6" /></clipPath></defs><sodipodi:namedview
     id="namedview16"
     pagecolor="#ffffff"
     bordercolor="#666666"
     borderopacity="1.0"
     inkscape:showpageshadow="2"
     inkscape:pageopacity="0"
     inkscape:pagecheckerboard="0"
     inkscape:deskcolor="#d1d1d1"
     showgrid="false"
     inkscape:zoom="2.8284271"
     inkscape:cx="28.284271"
     inkscape:cy="99.702057"
     inkscape:window-width="1920"
     inkscape:window-height="1011"
     inkscape:window-x="0"
     inkscape:window-y="0"
     inkscape:window-maximized="1"
     inkscape:current-layer="layer1" /><g
     transform="matrix(1.990626,0,0,1.990626,-715.53593,-957.4586)"
     id="layer1"
     style="stroke-width:2.36571"><path
       d="m 408.55054,490.52841 c -4.23642,0 -7.65182,3.45206 -7.65182,7.69084 10e-6,4.24242 3.41538,7.66044 7.65182,7.66044 4.23767,0 7.68218,-3.41802 7.68218,-7.66044 0,-4.23878 -3.44453,-7.69084 -7.68218,-7.69084 z m -6.22469,40.15652 c -2.10532,-0.0241 -4.00232,1.44743 -4.46357,3.58703 -0.52833,2.44648 1.01906,4.85162 3.46154,5.38055 2.44373,0.52772 4.84736,-1.01896 5.37449,-3.46544 0.52713,-2.44526 -1.01903,-4.88445 -3.46154,-5.41094 -0.30546,-0.0662 -0.61017,-0.0878 -0.91092,-0.0911 z"
       id="path2472"
       style="display:inline;fill:none;fill-opacity:1;fill-rule:nonzero;stroke:#000000;stroke-width:3.01413;stroke-dasharray:none;stroke-opacity:1" /><path
       d="m 421.81977,505.57571 c -3.60002,0 -6.52834,2.90124 -6.52834,6.50529 -10e-6,3.60649 2.92833,6.53569 6.52834,6.53569 3.60241,0 6.52834,-2.9292 6.52834,-6.53569 0,-3.60405 -2.92592,-6.50529 -6.52834,-6.50529 z m -29.05869,31.79691 c -1.78923,-0.0197 -3.40337,1.19117 -3.79555,3.00946 -0.44939,2.08048 0.8684,4.14149 2.94535,4.59018 2.0757,0.44868 4.13805,-0.8694 4.58501,-2.94866 0.44939,-2.07805 -0.86721,-4.1415 -2.94535,-4.59019 -0.25961,-0.0562 -0.53386,-0.0579 -0.78946,-0.0608 z"
       id="path2476"
       style="display:inline;fill:none;fill-opacity:1;fill-rule:nonzero;stroke:#000000;stroke-width:3.01413;stroke-dasharray:none;stroke-opacity:1" /><path
       d="m 423.61126,523.57166 c -3.05949,0 -5.55668,2.46958 -5.55668,5.53255 0,3.0654 2.49717,5.56293 5.55668,5.56293 3.06196,0 5.52631,-2.49754 5.52631,-5.56293 0,-3.06296 -2.46437,-5.53255 -5.52631,-5.53255 z m -34.09917,23.89328 c -1.52038,-0.0164 -2.88494,1.03903 -3.21862,2.58389 -0.38259,1.76675 0.72387,3.5092 2.48987,3.89101 1.76357,0.38181 3.50528,-0.72348 3.88664,-2.49269 0.38138,-1.76433 -0.72266,-3.51041 -2.48988,-3.89101 -0.22059,-0.0477 -0.45082,-0.0889 -0.66801,-0.0912 z"
       id="path2480"
       style="display:inline;fill:none;fill-opacity:1;fill-rule:nonzero;stroke:#000000;stroke-width:3.01413;stroke-dasharray:none;stroke-opacity:1" /><path
       d="m 416.35418,537.91979 c -2.60163,10e-6 -4.70647,2.10845 -4.70647,4.71178 -1e-5,2.60576 2.10485,4.71178 4.70647,4.71178 2.60161,0 4.70648,-2.10602 4.70648,-4.71178 -10e-6,-2.60333 -2.10486,-4.71178 -4.70648,-4.71178 z m -24.17003,18.72553 c -1.36804,-0.0135 -2.6153,0.92076 -2.91497,2.31028 -0.34373,1.59167 0.65708,3.15294 2.24695,3.49584 1.58746,0.34412 3.14943,-0.65782 3.49191,-2.2495 0.34372,-1.58802 -0.65591,-3.15172 -2.24696,-3.49583 -0.19844,-0.0427 -0.38149,-0.0588 -0.57693,-0.0608 z"
       id="path2484"
       style="display:inline;fill:none;fill-opacity:1;fill-rule:nonzero;stroke:#000000;stroke-width:3.01413;stroke-dasharray:none;stroke-opacity:1" /><path
       d="m 404.60318,545.94501 c -2.21056,0 -4.0081,1.7996 -4.0081,4.01262 0,2.21423 1.79757,4.0126 4.0081,4.0126 2.2117,0 4.00809,-1.79837 4.00809,-4.0126 1e-5,-2.21302 -1.79636,-4.01262 -4.00809,-4.01262 z m -5.92106,16.62802 c -1.23181,-0.013 -2.34139,0.84737 -2.61134,2.09751 -0.30971,1.43359 0.57452,2.85138 2.00405,3.16145 1.42956,0.30885 2.85063,-0.60554 3.1579,-2.03671 0.30972,-1.43116 -0.60362,-2.85382 -2.03441,-3.16145 -0.1787,-0.0386 -0.34022,-0.0589 -0.5162,-0.0608 z"
       id="path2488"
       style="display:inline;fill:none;fill-opacity:1;fill-rule:nonzero;stroke:#000000;stroke-width:3.01413;stroke-dasharray:none;stroke-opacity:1" /></g></svg>
