<svg width="191" height="192" fill="none" xmlns="http://www.w3.org/2000/svg"><ellipse cx="3.979" cy="4" rx="3.979" ry="4" transform="rotate(-5.026 1044.91 -780.347) skewX(-.052)" stroke="#000" stroke-width="8" stroke-linecap="round" stroke-linejoin="round"/><ellipse cx="4.974" cy="5" rx="4.974" ry="5" transform="rotate(-5.026 1651.085 -767.803) skewX(-.052)" stroke="#000" stroke-width="10" stroke-linecap="round" stroke-linejoin="round"/><ellipse cx="3.979" cy="4" rx="3.979" ry="4" transform="rotate(-5.026 1020.04 -1347.025) skewX(-.052)" stroke="#000" stroke-width="8" stroke-linecap="round" stroke-linejoin="round"/><path d="M40.623 97.307c4.215-10.363 11.525-19.603 21.21-26.638 12.653-9.191 28.5-13.991 44.585-13.505 16.087.486 31.316 6.224 42.85 16.147 11.535 9.922 18.588 23.35 19.847 37.785l-12.844 1.127c-6.548.575-11.391 6.369-10.819 12.94l.692 7.933M21.943 113.028c.716 8.214 7.932 14.291 16.116 13.572 8.185-.719 14.24-7.96 13.523-16.175-.716-8.214-7.931-14.29-16.116-13.572-8.185.718-14.24 7.96-13.523 16.175Zm0 0c2.636 30.243 56.636 32.995 56.636 32.995m19.155-88.61 6.915 79.327m19.019-21.654 1.728 19.832M55.757 44.114l13.758 20.773M136.772 37l-9.955 22.856m-78.236 61.823 54.339-4.771" stroke="#000" stroke-width="12" stroke-linecap="round" stroke-linejoin="round"/></svg>