<svg width="192" height="192" viewBox="0 0 192 192" fill="none" xmlns="http://www.w3.org/2000/svg"><path d="M137 58v20m0 23c18.225 0 33-14.775 33-33s-14.775-33-33-33-33 14.775-33 33c0 6.78 2.045 13.083 5.552 18.325L100 111l30.276-10.686c2.171.45 4.42.686 6.724.686Z" stroke="#000" stroke-width="12" stroke-linecap="round" stroke-linejoin="round"/><path d="M116 42V28a6 6 0 0 0-6-6H40a6 6 0 0 0-6 6v112a6 6 0 0 0 6 6h70a6 6 0 0 0 6-6v-34m0 64H34" stroke="#000" stroke-width="12" stroke-linecap="round" stroke-linejoin="round"/></svg>