<svg xmlns="http://www.w3.org/2000/svg" width="192" height="192" fill="none" viewBox="0 0 192 192"><path stroke="#000" stroke-linejoin="round" stroke-width="12" d="M99 54H54v28h33m6 56h45v-28h-33"/><path fill="#000" fill-rule="evenodd" d="M110.616 19.351A6.002 6.002 0 0 1 116 16h22a6 6 0 0 1 6 6v22c0 .918-.211 1.825-.616 2.649L109.258 116H95.884L132 42.604V28h-12.265l-15.746 32H90.615l20.001-40.649ZM88.011 132l-15.746 32H60v-14.604L96.116 76H82.742l-34.126 69.351A6 6 0 0 0 48 148v22a6 6 0 0 0 6 6h22a6 6 0 0 0 5.383-3.351L101.385 132H88.011Z" clip-rule="evenodd"/></svg>