<svg xmlns="http://www.w3.org/2000/svg" width="192" height="192" fill="none" stroke="#000" stroke-linecap="round" stroke-linejoin="round" stroke-width="6" viewBox="0 0 192 192"><rect width="85" height="148" x="52" y="22" stroke-width="12" rx="6"/><path d="M30 97h20m91 0h20M50 85H30l-3-10m114-2h12l9-9m-21 20h10"/><path stroke-width="8" d="M114 115h8m-19 11v8m-7.778-11.222-5.657 5.657m5.657-21.213-5.657-5.657M84 115h8m11-19v8m13.435-2.435-5.657 5.657m5.657 21.213-5.657-5.657"/><path d="M88 62h4m-5.757 4.243 2.828 2.828M82 68v4m-4.243-5.757L74.93 69.07M72 62h4m-1.071-7.071 2.828 2.828M82 52v4m7.071-1.071-2.828 2.828m-16.201 44.152a6.005 6.005 0 0 0 4.35-3.279 6.001 6.001 0 0 0-9.708-6.798"/><path stroke-width="8" d="M75.5 93 113 73"/><path d="M118.447 64.204a6.002 6.002 0 0 0-4.446 5.718 5.986 5.986 0 0 0 2.043 4.589 5.995 5.995 0 0 0 7.224.521M38 121h12m-6-12h6m91 0h6l7 12"/><circle cx="103" cy="115" r="11" stroke-width="10"/><circle cx="82" cy="62" r="6"/><circle cx="25" cy="69" r="6"/><circle cx="157" cy="127" r="6"/><circle cx="167" cy="97" r="6"/><circle cx="26" cy="97" r="4"/><circle cx="165" cy="60" r="4"/><circle cx="32" cy="121" r="4"/><circle cx="40" cy="109" r="2"/><circle cx="155" cy="84" r="2"/></svg>