<svg xmlns="http://www.w3.org/2000/svg" width="192" height="192" fill="none" stroke="#000" stroke-linecap="round" stroke-linejoin="round" stroke-width="12" viewBox="0 0 192 192"><path d="M96 170c35.346 0 64-28.654 64-64 0-28.93-19.196-53.378-45.546-61.3L104.66 27A9.996 9.996 0 0 0 96 22a10 10 0 0 0-8.66 5l-9.794 17.7C51.196 52.623 32 77.07 32 106c0 35.346 28.654 64 64 64Z"/><path d="M96 130c6.365 0 12.47-2.529 16.971-7.029a24.005 24.005 0 0 0 0-33.942A24.002 24.002 0 0 0 96 82m0 0H86a6 6 0 0 0-6 6v36a6 6 0 0 0 6 6h10"/></svg>