<svg xmlns="http://www.w3.org/2000/svg" width="192" height="192" viewBox="0 0 192 192"><g fill="none" stroke="#000" stroke-linejoin="round" stroke-width="12"><path fill="#000" stroke-width="3.78" d="M96.012 63.628c-3.316 0-6.122 2.715-6.122 6.098a6.12 6.12 0 0 0 6.122 6.122c3.38 0 6.098-2.803 6.098-6.122s-2.782-6.098-6.098-6.098z"/><path stroke-linecap="round" d="M83.435 122.372h25.13M87.48 90.962h8.54v31.41"/><path d="M54 46h84M60 22h72c5.54 0 10 4.46 10 10v128c0 5.54-4.46 10-10 10H60c-5.54 0-10-4.46-10-10V32c0-5.54 4.46-10 10-10zm-6 124h84"/></g></svg>