<?xml version="1.0" encoding="utf-8"?>
	<svg version="1.1" xmlns="http://www.w3.org/2000/svg" xmlns:xlink="http://www.w3.org/1999/xlink" x="0px" y="0px" width="200.0" height="200.0" xml:space="preserve">
		<path d="M100,8.3l69.3,23.1c3.4,1.1,5.7,4.3,5.7,7.9V100c0,33.8-25,64.3-75,91.7c-50-27.4-75-57.9-75-91.7V39.3 c0-3.6,2.3-6.8,5.7-7.9L100,8.3z M100,25.9L41.7,45.3V100l0.1,2.5c0.6,12.3,5.8,24,14.9,35.2c10,12.2,24.6,23.8,43.4,34.8 c18.8-11.1,33.3-22.6,43.4-34.8c9.8-11.9,15-24.4,15-37.7V45.3L100,25.9z" fill="#ff2c2c2c" stroke="#000" stroke-width="8.0" stroke-miterlimit="10.0"/>
	</svg>
