<?xml version="1.0" encoding="UTF-8" standalone="no"?>
<!-- Created with Inkscape (http://www.inkscape.org/) -->

<svg
   width="192"
   height="192"
   viewBox="0 0 50.800001 50.800001"
   version="1.1"
   id="svg1"
   xml:space="preserve"
   xmlns="http://www.w3.org/2000/svg"
   xmlns:svg="http://www.w3.org/2000/svg"><defs
     id="defs1"><style
       id="style11711">.cls-1{fill:#0071ce;}</style><style
       id="style11711-3">.cls-1{fill:#0071ce;}</style></defs><g
     id="layer1"><g
       id="g95"
       transform="matrix(0.97412728,0,0,0.97435687,-183.24878,-147.84064)"
       style="stroke-width:2.17263;stroke-dasharray:none"><path
         style="fill:none;fill-opacity:0.507895;fill-rule:evenodd;stroke:#000000;stroke-width:2.17263;stroke-linecap:round;stroke-linejoin:round;stroke-dasharray:none;stroke-opacity:1"
         d="m 210.16214,172.22536 c -1.24356,-0.62233 -2.82619,-1.53842 -4.41045,-2.79356 -0.33407,0.69618 -0.37066,1.30369 -0.19868,1.79424 0.12211,0.34571 0.35195,0.6464 0.65404,0.88562 0.32742,0.25854 0.73615,0.44676 1.18799,0.54849 0.85732,0.1938 1.85815,0.0806 2.7671,-0.43479"
         id="path95" /><path
         style="fill:none;fill-opacity:0.507895;fill-rule:evenodd;stroke:#000000;stroke-width:2.17263;stroke-linecap:round;stroke-linejoin:round;stroke-dasharray:none;stroke-opacity:1"
         d="m 214.19038,157.1625 c 1.90301,0.0513 3.81077,0.422 5.46645,1.14321 1.14652,0.50007 2.21634,1.16062 3.18506,1.9505 0.43747,0.35659 0.79768,0.70108 1.1945,1.09765 1.07022,0.0371 2.63429,-1.15599 3.36042,-2.27241 -1.24965,4.11126 -6.95219,8.96629 -10.9001,10.82404 -0.002,-5.2e-4 -0.003,-0.002 -0.004,-0.003 -0.70851,-0.54291 -1.50539,-0.81436 -2.3024,-0.81436 -0.79701,0 -1.59375,0.27145 -2.30226,0.81436 -0.001,5.1e-4 -0.002,0.002 -0.004,0.003 -3.94805,-1.85775 -9.65045,-6.71278 -10.9001,-10.82404 0.72599,1.11642 2.29006,2.30954 3.36029,2.27241 0.39694,-0.39644 0.75716,-0.74106 1.1945,-1.09765 0.96871,-0.78988 2.03853,-1.45043 3.18505,-1.9505 1.65582,-0.72121 3.56358,-1.09194 5.46645,-1.14321"
         id="path94" /><path
         style="fill:none;fill-opacity:0.507895;fill-rule:evenodd;stroke:#000000;stroke-width:2.17263;stroke-linecap:round;stroke-linejoin:round;stroke-dasharray:none;stroke-opacity:1"
         d="m 217.90493,180.18933 1.64632,0.95431 c -3.3615,1.89066 -4.27533,5.40134 -5.36087,8.82077 -1.0854,-3.41943 -1.99937,-6.93011 -5.36074,-8.82077 l 1.64633,-0.95431 a 0.8063609,0.80919525 0 0 0 0.52041,-0.79492 c -0.15084,-3.20237 0.71081,-4.61853 1.87306,-5.50769 0.41687,-0.31851 0.87195,-0.47845 1.32094,-0.47845 0.44899,0 0.90407,0.15994 1.32108,0.47845 1.16224,0.88916 2.0239,2.30532 1.87306,5.50769 a 0.8063609,0.80919525 0 0 0 0.52041,0.79492 z"
         id="path93" /><path
         style="fill:none;fill-opacity:0.507895;fill-rule:evenodd;stroke:#000000;stroke-width:2.17263;stroke-linecap:round;stroke-linejoin:round;stroke-dasharray:none;stroke-opacity:1"
         d="m 218.21848,172.22536 c 1.24369,-0.62233 2.82619,-1.53842 4.41059,-2.79356 0.33407,0.69618 0.37065,1.30369 0.19854,1.79424 -0.12197,0.34571 -0.35182,0.6464 -0.65403,0.88562 -0.32729,0.25854 -0.73603,0.44676 -1.18786,0.54849 -0.85732,0.1938 -1.85829,0.0806 -2.76724,-0.43479"
         id="path1-5-4" /><path
         style="fill:none;fill-opacity:0.507895;fill-rule:evenodd;stroke:#000000;stroke-width:2.17263;stroke-linecap:round;stroke-linejoin:round;stroke-dasharray:none;stroke-opacity:1"
         d="m 226.09389,165.16034 0.31387,0.59282 c 1.01046,2.0287 1.53548,4.04924 1.53548,6.32315 l -0.002,3.60833 0.0189,1.87053 c 0.0732,4.59215 1.06331,9.23829 3.30621,13.49017 l -4.69275,-3.79737 -3.32044,5.40719 -3.48836,-3.2954 -5.57432,9.07782 -5.57433,-9.07768 -3.48822,3.2954 -3.32045,-5.4072 -4.69288,3.79737 c 2.2429,-4.25188 3.23303,-8.89802 3.30635,-13.49016 l 0.0189,-1.87054 -0.002,-3.60833 c 0,-2.27404 0.52488,-4.29458 1.53561,-6.32314 l 0.31374,-0.59283"
         id="path92" /></g></g><style
     type="text/css"
     id="style11642">
	.st0{fill:#00C48C;}
	.st1{fill:#4F008C;}
</style><style
     type="text/css"
     id="style13782">
	.st0{fill:#8B7D6E;}
	.st1{fill:#004A6E;}
	.st2{fill:url(#SVGID_1_);}
	.st3{fill:url(#SVGID_00000101805771245684949860000012276154375448322482_);}
	.st4{fill:#004F71;}
	.st5{fill:#76777A;}
</style><style
     type="text/css"
     id="style14023">
	.st0{fill:#84B740;}
	.st1{fill:#259BD6;}
	.st2{fill:#27292D;}
</style><style
     type="text/css"
     id="style11395">
	.st0{fill:#84B740;}
	.st1{fill:#259BD6;}
	.st2{fill:#27292D;}
</style><style
     type="text/css"
     id="style20314">
	.st0{fill:none;}
	.st1{fill:#014A2A;}
	.st2{fill:#FE2728;}
	.st3{fill:#70BC1F;}
	.st4{fill:#FFFFFF;}
</style><style
     type="text/css"
     id="style1">
	.st0{fill:#FF007A;}
	.st1{fill-rule:evenodd;clip-rule:evenodd;fill:#FF007A;}
</style><style
     type="text/css"
     id="style11642-9">
	.st0{fill:#00C48C;}
	.st1{fill:#4F008C;}
</style><style
     type="text/css"
     id="style13782-9">
	.st0{fill:#8B7D6E;}
	.st1{fill:#004A6E;}
	.st2{fill:url(#SVGID_1_);}
	.st3{fill:url(#SVGID_00000101805771245684949860000012276154375448322482_);}
	.st4{fill:#004F71;}
	.st5{fill:#76777A;}
</style><style
     type="text/css"
     id="style14023-5">
	.st0{fill:#84B740;}
	.st1{fill:#259BD6;}
	.st2{fill:#27292D;}
</style><style
     type="text/css"
     id="style11395-8">
	.st0{fill:#84B740;}
	.st1{fill:#259BD6;}
	.st2{fill:#27292D;}
</style></svg>
