<svg width="192" height="192" viewBox="0 0 192 192" fill="none" xmlns="http://www.w3.org/2000/svg"><g clip-path="url(#dfndr_performance__a)" stroke="#000" stroke-linecap="round" stroke-linejoin="round"><circle cx="118" cy="82" r="3" stroke-width="6"/><path d="m109 115-7 24m14.785 13a24.003 24.003 0 0 0-41.57 0M96 79a85 85 0 0 0-60.104 24.896m120.208 0A85.011 85.011 0 0 0 138.5 90.388" stroke-width="10"/><path d="M96 170S22 136 22 40c0 0 18-18 74-18s74 18 74 18c0 96-74 130-74 130Z" stroke-width="12"/></g><defs><clipPath id="dfndr_performance__a"><path fill="#fff" d="M0 0h192v192H0z"/></clipPath></defs></svg>