<svg xmlns="http://www.w3.org/2000/svg" width="192" height="192" fill="none"><path stroke="#000" stroke-linecap="round" stroke-linejoin="round" stroke-width="12" d="M35 22h50M35 170h50M65 52h20m-20 88h20"/><circle cx="87" cy="96" r="16" stroke="#000" stroke-linecap="round" stroke-linejoin="round" stroke-width="12"/><path stroke="#000" stroke-linecap="round" stroke-linejoin="round" stroke-width="12" d="M85 140a44.003 44.003 0 0 0 31.113-75.113A44 44 0 0 0 85 52m-20 0a30 30 0 0 1-30-30m0 148a30 30 0 0 1 30-30"/><path stroke="#000" stroke-linecap="round" stroke-linejoin="round" stroke-width="12" d="M85 170a74 74 0 1 0 0-148"/></svg>