<svg xmlns="http://www.w3.org/2000/svg" width="192" height="192" fill="none"><path stroke="#000" stroke-linecap="round" stroke-linejoin="round" stroke-width="12" d="M124 28a6 6 0 0 1 6-6h20a6 6 0 0 1 6 6v20a6 6 0 0 1-6 6h-26zm0 58a6 6 0 0 1 6-6h20a6 6 0 0 1 6 6v20a6 6 0 0 1-6 6h-20a6 6 0 0 1-6-6zm0 52h26a6 6 0 0 1 6 6v20a6 6 0 0 1-6 6h-20a6 6 0 0 1-6-6z"/><circle cx="53" cy="50" r="24" stroke="#000" stroke-linecap="round" stroke-linejoin="round" stroke-width="12"/><path stroke="#000" stroke-linecap="round" stroke-linejoin="round" stroke-width="12" d="M53 74v88m0-66h71m-1-42L81 96m42 42L81 96m-44 56h16m-16-22h16"/></svg>