<svg width="192" height="192" viewBox="0 0 192 192" fill="none" xmlns="http://www.w3.org/2000/svg"><path d="M124 28a6 6 0 0 1 6-6h20a6 6 0 0 1 6 6v20a6 6 0 0 1-6 6h-26V28Zm0 58a6 6 0 0 1 6-6h20a6 6 0 0 1 6 6v20a6 6 0 0 1-6 6h-20a6 6 0 0 1-6-6V86Zm0 52h26a6 6 0 0 1 6 6v20a6 6 0 0 1-6 6h-20a6 6 0 0 1-6-6v-26Z" stroke="#000" stroke-width="12" stroke-linecap="round" stroke-linejoin="round"/><circle cx="53" cy="50" r="24" stroke="#000" stroke-width="12" stroke-linecap="round" stroke-linejoin="round"/><path d="M53 74v88m0-66h71m-1-42L81 96m42 42L81 96m-44 56h16m-16-22h16" stroke="#000" stroke-width="12" stroke-linecap="round" stroke-linejoin="round"/></svg>