<svg xmlns="http://www.w3.org/2000/svg" width="192" height="192" fill="none" viewBox="0 0 192 192"><path stroke="#000" stroke-linejoin="round" stroke-width="12" d="M37.231 22c-8.837 0-16.091 7.185-15.148 15.97 3.7 34.49 19.25 65.435 42.496 88.682 23.246 23.246 54.189 38.795 88.679 42.496 8.786.943 15.973-6.312 15.973-15.148v-16.096a16 16 0 0 0-11.402-15.326l-19.446-3.832a16 16 0 0 0-15.91 4.012l-9.681 9.681a124.37 124.37 0 0 1-54-54l9.681-9.681a16 16 0 0 0 4.012-15.912l-3.834-19.444A16 16 0 0 0 53.327 22H37.23z"/></svg>