<?xml version="1.0" encoding="utf-8"?>
	<svg version="1.1" xmlns="http://www.w3.org/2000/svg" xmlns:xlink="http://www.w3.org/1999/xlink" x="0px" y="0px" width="240.0" height="240.0" xml:space="preserve">
		<path d="M198.79,32.048C193.633,29.723 187.714,27.868 181.19,26.5C175.193,25.25 168.689,24.391 161.832,24L164.88,34.919C172.439,36.58 177.928,39.275 181.19,42.967C183.651,45.76 184.843,49.12 184.687,53.007C184.569,56.074 183.339,59.238 181.19,62.403C171.99,75.979 145.893,89.671 117.199,95.59C120.675,71.701 128.821,54.433 136.693,52.831C139.564,52.245 143.217,52.343 146.323,56.328C146.362,56.386 146.401,56.445 146.44,56.484L154.605,54.121C146.401,36.443 135.013,25.426 122.453,25.426C101.376,25.426 83.601,56.406 78.718,98.012C71.217,97.211 64.751,95.551 59.79,93.109C53.012,89.769 49.066,85.003 49.203,79.026C49.339,73.088 53.265,66.798 59.79,60.86C66.47,54.785 75.885,49.081 86.746,44.51L84.48,36.56C75.631,39.959 67.33,43.924 59.79,48.261C35.92,62.051 20,79.788 20,96.352C20,112.662 35.744,124.207 59.79,128.895C65.337,129.969 71.314,130.692 77.624,131.004C80.007,178.978 99.208,216.58 122.433,216.58C143.549,216.58 161.344,185.522 166.188,143.857L152.202,147.53C149.136,169.856 142.436,185.425 134.7,185.425C124.914,185.425 116.808,160.617 115.577,128.68C117.374,128.387 119.171,128.055 120.988,127.723C143.549,123.367 164.45,115.417 181.171,105.65C187.714,101.821 193.652,97.7 198.77,93.402C212.385,81.995 220.413,69.357 219.984,57.5C219.612,46.444 211.604,37.81 198.79,32.048Z" fill="#000" stroke="#00000000" stroke-width="1.0" stroke-miterlimit=""/>
	</svg>
