<?xml version="1.0" encoding="utf-8"?>
	<svg version="1.1" xmlns="http://www.w3.org/2000/svg" xmlns:xlink="http://www.w3.org/1999/xlink" x="0px" y="0px" width="240.0" height="240.0" xml:space="preserve">
		<path d="M53.19,57C56.926,57.048 60.665,57.018 64.402,57.019C84.86,57.025 105.317,57.029 125.775,57.035L126.217,57.035C129.76,57.042 129.776,57.188 130.191,60.957C130.868,61.526 131.686,61.368 132.458,61.371C136.2,61.386 139.948,61.514 143.682,61.342C147.485,61.166 150.927,62.164 154.23,63.879C154.915,64.235 155.597,64.195 156.331,64.122C165.225,63.233 171.758,71.429 168.987,79.981C167.111,85.776 159.499,89.444 153.747,87.267C152.235,86.695 151.374,86.883 150.726,88.538C149.709,91.141 148.426,93.64 147.252,96.18C146.529,97.745 145.371,98.636 143.579,98.598C142.201,98.57 140.822,98.59 139.444,98.591C138.374,98.591 137.372,98.623 136.847,99.86C136.503,100.671 135.638,100.466 134.93,100.514C132.476,100.679 129.991,100.183 127.56,100.783L127.106,100.909L127.106,100.909L127.348,102.391L127.348,102.391L127.59,103.874L127.59,103.874C128.261,104.36 129.057,104.372 129.831,104.485C130.408,104.569 131.206,104.511 131.51,104.862C132.91,106.473 134.661,106.435 136.399,106.319L136.833,106.289C137.122,106.27 137.41,106.252 137.695,106.242C139.608,106.179 140.322,106.941 140.201,108.774C140.146,109.596 140.005,110.51 140.909,111.059L141.298,111.177L141.298,111.177L140.909,111.059L140.909,111.059C143.128,110.89 145.341,110.784 147.55,111.131C148.585,111.023 149.409,110.371 150.12,109.776C152.233,108.008 154.601,107.608 157.264,107.701C161.061,107.833 164.865,107.705 168.668,107.698C169.876,107.695 171.017,107.705 171.559,106.251C171.901,105.331 172.846,105.527 173.623,105.523C181.756,105.488 189.889,105.445 198.022,105.426C199.282,105.422 200.357,105.076 201.543,104.561C203.78,103.591 206.242,103.719 208.599,104.51C208.9,104.61 209.135,104.889 209.428,105.033C212.092,106.34 213.754,105.329 213.739,102.419C213.72,98.942 215.578,97.633 218.894,98.76C219.861,99.088 219.911,99.856 219.916,100.661C219.931,102.628 219.934,104.596 219.935,106.563C219.944,124.73 219.954,142.897 219.951,161.063C219.95,162.082 220.303,163.468 219.126,163.877C217.599,164.411 215.896,164.34 214.311,163.828C213.766,163.652 213.72,163.003 213.711,162.468C213.698,161.616 213.695,160.763 213.713,159.911C213.743,158.478 213.631,157.326 211.645,157.39C209.875,157.447 208.93,157.965 208.983,159.889C209.081,163.427 209.085,166.967 209.129,170.507C209.782,170.548 210.434,170.586 211.086,170.627C211.292,170.64 211.504,170.644 211.714,170.649L211.965,170.657C212.961,170.698 213.852,170.884 213.821,172.493C213.773,174.882 213.376,175.318 210.93,175.331C210.347,175.334 209.763,175.25 209.18,175.205C206.473,176.872 203.758,176.318 201.042,175.237C201.183,173.387 201.253,171.534 201.288,169.681L201.308,168.29C201.284,170.607 201.218,172.923 201.042,175.237C195.665,175.271 190.289,175.324 184.912,175.333C183.235,175.335 181.722,175.729 180.199,176.475C177.617,177.738 174.694,177.995 171.94,177.903C168.789,177.8 165.513,177.615 162.576,176.015C161.854,175.622 160.948,175.407 160.122,175.393C155.923,175.323 151.723,175.348 147.524,175.336C146.149,175.332 145.454,175.992 145.48,177.382C145.485,177.644 145.481,177.906 145.48,178.169C145.464,182.549 145.287,182.743 140.97,182.746C126.599,182.753 112.229,182.726 97.859,182.767C94.997,182.776 93.035,181.795 91.833,179.028C90.584,176.152 88.898,173.469 87.506,170.651C86.735,169.089 85.621,168.512 83.901,168.53C77.208,168.601 70.51,168.404 63.824,168.636C58.926,168.807 55.24,167.238 53.011,162.773C51.977,160.703 50.418,160.301 48.114,160.119C42.764,159.697 37.414,159.646 32.065,159.621L28.498,159.605C26.715,159.595 24.932,159.58 23.149,159.546C21.832,159.521 20.517,159.234 20.261,157.55C20.598,158 20.98,158.33 21.406,158.563C20.98,158.33 20.598,157.999 20.262,157.55C20.255,156.076 20.247,154.603 20.24,153.137C20.346,153.061 20.414,152.973 20.458,152.879C20.414,152.973 20.346,153.061 20.24,153.136C20.002,152.703 19.99,152.244 20.004,151.786L20.017,151.394C20.019,151.329 20.021,151.264 20.021,151.2C20.021,132.885 20.025,114.57 20.04,96.255C20.043,92.573 20.604,92.017 24.255,92.018C31.275,92.02 38.294,92.035 45.315,92.054C46.095,92.056 46.9,91.981 47.606,92.406L47.78,92.523L47.78,92.523L47.906,92.63C47.906,92.63 48.051,92.548 48.052,92.548L48.136,92.736C48.106,92.675 48.078,92.613 48.052,92.548C50.847,91.534 53.726,92.152 56.569,92.137C63.622,92.099 70.676,92.114 77.729,92.086C78.308,92.083 78.887,91.908 79.466,91.812C79.136,89.875 79.708,88.36 81.486,87.362C83.367,86.305 83.515,84.651 83.545,82.957L83.554,82.321C83.56,81.897 83.572,81.475 83.614,81.064C83.064,78.772 83.478,78.154 85.76,78.141C91.312,78.11 96.864,78.131 102.416,78.134C105.298,78.135 105.509,77.942 105.493,74.991C105.482,73.171 105.408,71.351 105.363,69.531C105.364,69.53 105.363,69.53 105.363,69.529C105.009,69.193 104.656,68.857 104.304,68.52L104.305,68.521C104.303,68.521 104.216,68.553 104.216,68.553L104.191,68.465L104.191,68.465C103.346,68.396 102.502,68.268 101.658,68.269C88.889,68.288 76.119,68.322 63.349,68.358L63.127,68.358L63.127,68.358L62.682,68.357C61.867,68.361 61.062,68.42 60.351,68.898L60.16,69.038L60.16,69.038C60.05,69.511 59.726,69.79 59.352,70.023L59.226,70.1L59.226,70.1L58.417,70.447L58.417,70.447L57.615,70.794L57.615,70.794C56.109,71.123 54.613,71.217 53.12,70.768C52.639,70.526 52.159,70.284 51.684,70.047L51.683,70.046L51.547,69.91C50.92,69.213 51.116,68.29 51.013,67.477C50.661,64.674 50.632,61.857 50.866,59.04C50.985,57.612 51.726,56.981 53.19,57ZM146.703,151.222L146.622,151.639L146.622,151.639C145.286,152.035 143.913,151.934 142.561,151.852C140.938,151.755 140.081,152.304 140.227,154.047C140.324,155.214 140.012,156.129 138.599,156.166C136.889,155.761 135.182,155.802 133.476,156.194C132.351,157.099 131.727,158.908 129.743,158.255C129.049,158.756 128.312,159.193 128.683,160.296C129.042,161.364 129.734,161.992 130.829,162.008C133.255,162.045 135.681,162.012 138.109,161.983C139.748,161.962 141.387,161.866 143.027,161.872L143.381,161.873C144.018,161.879 144.66,161.964 144.858,162.824L144.854,162.823L145.128,168.631L145.128,168.631C145.431,170.508 146.614,171.043 148.38,170.881C149.552,170.773 150.742,170.871 151.923,170.849L152.049,170.848L152.049,170.848L152.306,170.848C152.78,170.845 153.259,170.8 153.523,170.327C153.96,169.544 153.217,169.14 152.813,168.681C149.395,164.793 147.6,160.246 147.288,155.104C147.217,153.913 147.03,152.758 146.622,151.64L146.703,151.222L146.703,151.222Z" fill="#ff151515" stroke="#00000000" stroke-width="1.0" stroke-miterlimit=""/>
	</svg>
