<svg width="192" height="192" viewBox="0 0 192 192" fill="none" xmlns="http://www.w3.org/2000/svg"><path d="m64 162 36-37m-26 26s2-82 96-97m-96 97s52.792-3.771 80.652-50.673L148 86l15.479-4.515C166.41 73.315 168.656 64.191 170 54" stroke="#000" stroke-width="12" stroke-linecap="round" stroke-linejoin="round"/><path d="M150 142v8c0 7.732-6.268 14-14 14h-20m34-106v-8c0-7.732-6.268-14-14-14H36c-7.732 0-14 6.268-14 14v100c0 7.732 6.268 14 14 14h2m10-45h5m-5-23h10M48 74h20M50 27v18m72-18v18" stroke="#000" stroke-width="12" stroke-linecap="round" stroke-linejoin="round"/></svg>