<?xml version="1.0" encoding="UTF-8"?>
<!-- Created with Inkscape (http://www.inkscape.org/) -->
<svg width="192" height="192" version="1.1" viewBox="0 0 192 192" xml:space="preserve" xmlns="http://www.w3.org/2000/svg"><g fill="none" stroke="#000" stroke-linecap="round" stroke-linejoin="round" stroke-miterlimit="15" stroke-width="12"><path d="m161.57 33.908-6.1917 123.99" style="paint-order:markers fill stroke"/><path d="m35.471 31.427 107.75-9.4285" style="paint-order:markers fill stroke"/><path d="m61.069 169.92 94.309-12.023" style="paint-order:markers fill stroke"/><path d="m35.471 31.427 2.323 122.3c0.22999 12.109 20.347 16.56 23.275 16.187" style="paint-order:markers fill stroke"/><path d="m60.626 42.74 100.94-8.8326" style="paint-order:markers fill stroke"/><path d="m60.626 42.74c-13.948 1.2205-25.155-11.314-25.155-11.314" style="paint-order:markers fill stroke"/><path d="m143.23 21.998 0.26475 13.492" style="paint-order:markers fill stroke"/><path d="m134.23 59.235-15.213 74.535" style="paint-order:markers fill stroke"/><path d="m121.5 121.62c-13.8 8.6577-25.142 14.948-33.433 12.947-8.2919-2.0015-6.8622-14.868-6.6716-17.823 0.19062-2.9546 6.481-25.257 22.969-29.736s22.736 7.1763 22.736 7.1763" style="paint-order:markers fill stroke"/></g></svg>
