<svg width="192" height="192" viewBox="0 0 192 192" fill="none" xmlns="http://www.w3.org/2000/svg"><path d="M81 100v28m53-28-9 28m9-28 9 28m-94 0v-28h12a6 6 0 0 1 6 6v16a6 6 0 0 1-6 6H49Zm46 0v-28h12a6 6 0 0 1 6 6v16a6 6 0 0 1-6 6H95Z" stroke="#000" stroke-width="8" stroke-linecap="round" stroke-linejoin="round"/><path d="M49 73s14-12 34-12c16.08 0 29.575 9.05 34.247 12.598a7.217 7.217 0 0 0 4.012 1.456C135.753 75.754 143 83 143 83" stroke="#000" stroke-width="10" stroke-linecap="round" stroke-linejoin="round"/><rect x="25" y="25" width="142" height="142" rx="6" stroke="#000" stroke-width="12" stroke-linecap="round" stroke-linejoin="round"/></svg>