<svg id="svg" version="1.1" xmlns="http://www.w3.org/2000/svg" xmlns:xlink="http://www.w3.org/1999/xlink" width="400" height="400" viewBox="0, 0, 400,400"><g id="svgg"><path id="path0" d="M105.580 49.013 L 100.000 54.275 100.000 100.528 L 100.000 146.782 94.141 150.210 C 81.547 157.579,65.450 179.157,62.514 192.608 C 61.720 196.244,60.607 201.328,60.040 203.906 C 59.452 206.578,55.093 212.625,49.903 217.969 C 35.061 233.248,29.521 259.219,36.287 281.801 C 40.077 294.452,63.948 315.625,74.420 315.625 C 76.356 315.625,78.375 316.328,78.906 317.188 C 79.437 318.047,84.401 318.750,89.936 318.750 L 100.000 318.750 100.050 331.641 C 100.103 345.418,100.834 347.178,108.835 352.792 L 113.764 356.250 231.959 356.250 C 358.553 356.250,354.682 356.481,361.328 348.543 C 364.878 344.303,365.637 153.630,362.109 152.279 C 360.801 151.777,360.335 148.957,360.698 143.734 C 360.995 139.446,360.631 135.938,359.888 135.938 C 358.486 135.938,352.748 131.452,328.906 111.720 C 254.590 50.212,246.137 43.750,240.008 43.750 C 236.598 43.750,233.999 44.699,233.123 46.265 C 231.829 48.576,231.638 48.576,230.751 46.265 C 229.887 44.015,223.547 43.750,170.473 43.750 L 111.160 43.750 105.580 49.013 M220.683 106.641 L 221.094 160.156 287.891 160.564 L 354.688 160.971 354.688 249.758 L 354.688 338.546 350.014 342.710 L 345.340 346.875 231.925 346.875 L 118.510 346.875 113.942 342.308 C 109.499 337.864,109.375 337.314,109.375 321.995 L 109.375 306.250 180.469 306.250 C 219.636 306.250,251.563 305.641,251.563 304.893 C 251.563 304.147,254.415 303.154,257.901 302.686 C 261.554 302.196,265.439 300.454,267.069 298.574 C 268.625 296.780,270.646 295.313,271.561 295.313 C 272.476 295.313,274.829 293.027,276.790 290.234 C 278.751 287.441,280.886 284.929,281.535 284.652 C 282.183 284.375,283.166 281.738,283.718 278.793 C 284.271 275.847,285.348 273.437,286.111 273.438 C 287.959 273.438,287.908 245.749,286.058 244.606 C 285.264 244.115,284.145 241.573,283.571 238.957 C 282.321 233.266,266.807 217.188,262.566 217.188 C 261.670 217.188,260.938 216.133,260.938 214.844 C 260.938 213.555,260.234 212.500,259.375 212.500 C 258.516 212.500,257.813 210.742,257.813 208.594 C 257.813 206.445,257.109 204.688,256.250 204.688 C 255.391 204.688,254.688 203.692,254.688 202.475 C 254.688 196.042,233.946 179.688,225.787 179.688 C 223.635 179.688,221.875 178.984,221.875 178.125 C 221.875 177.222,216.927 176.563,210.156 176.563 C 203.385 176.563,198.438 177.222,198.438 178.125 C 198.438 178.984,195.977 179.688,192.969 179.688 C 188.722 179.688,187.500 179.052,187.500 176.844 C 187.500 173.751,174.198 160.938,170.987 160.938 C 169.900 160.937,168.776 160.377,168.490 159.692 C 164.994 151.332,132.381 147.976,112.891 153.971 L 109.375 155.052 109.375 107.920 L 109.375 60.788 113.509 56.957 L 117.644 53.125 168.958 53.125 L 220.271 53.125 220.683 106.641 M247.514 60.156 C 249.663 62.305,251.980 64.097,252.663 64.139 C 253.347 64.181,256.719 66.989,260.156 70.378 C 263.594 73.767,266.921 76.545,267.551 76.551 C 268.180 76.557,271.997 79.727,276.033 83.594 C 280.069 87.461,283.915 90.625,284.579 90.625 C 285.244 90.625,288.106 92.978,290.940 95.855 C 293.775 98.731,298.192 102.423,300.756 104.058 C 305.583 107.137,309.285 110.196,321.843 121.484 C 325.906 125.137,329.717 128.125,330.311 128.125 C 330.906 128.125,333.084 129.707,335.152 131.641 C 341.420 137.501,343.544 139.063,345.247 139.063 C 346.142 139.063,346.875 139.766,346.875 140.625 C 346.875 141.636,328.385 142.188,294.531 142.188 L 242.188 142.188 242.188 99.219 C 242.188 75.586,242.507 56.250,242.898 56.250 C 243.288 56.250,245.366 58.008,247.514 60.156 M161.330 168.470 C 170.405 174.729,174.643 178.707,180.354 186.328 C 184.944 192.451,193.875 194.562,197.950 190.487 C 207.202 181.236,239.338 194.821,246.327 210.938 C 247.631 213.945,249.683 218.691,250.886 221.484 C 252.090 224.277,254.014 226.563,255.162 226.563 C 265.545 226.563,284.535 261.479,276.764 266.282 C 276.016 266.744,274.984 269.219,274.472 271.781 C 272.587 281.208,261.917 290.177,246.764 295.072 C 238.476 297.750,90.281 297.551,82.813 294.852 C 49.940 282.974,45.334 245.959,74.453 227.669 C 80.310 223.990,81.011 222.869,81.693 216.095 C 83.588 197.273,98.222 170.313,106.544 170.313 C 107.406 170.313,109.978 168.988,112.259 167.370 C 122.359 160.204,150.253 160.829,161.330 168.470 M71.875 213.281 C 71.875 215.430,71.172 217.188,70.313 217.188 C 69.453 217.188,68.750 215.430,68.750 213.281 C 68.750 211.133,69.453 209.375,70.313 209.375 C 71.172 209.375,71.875 211.133,71.875 213.281 M139.896 216.458 C 133.100 223.254,132.054 234.046,137.617 239.968 C 140.056 242.564,140.490 244.137,139.371 246.319 C 129.915 264.756,133.053 270.313,152.924 270.313 C 172.562 270.313,173.655 268.233,165.659 246.094 C 164.901 243.995,165.480 241.981,167.421 239.961 C 171.276 235.951,171.350 222.461,167.543 217.761 C 160.358 208.891,148.044 208.311,139.896 216.458 M157.813 225.833 C 157.813 226.950,158.627 228.136,159.623 228.468 C 162.872 229.551,155.839 235.938,151.397 235.938 C 148.406 235.938,146.975 234.951,146.297 232.422 C 144.721 226.539,145.166 224.953,148.770 223.620 C 153.114 222.013,157.813 223.163,157.813 225.833 M154.688 247.564 C 154.688 249.662,155.391 251.813,156.250 252.344 C 160.323 254.861,157.815 259.375,152.344 259.375 C 146.872 259.375,144.365 254.861,148.438 252.344 C 149.297 251.813,150.000 249.662,150.000 247.564 C 150.000 245.215,150.901 243.750,152.344 243.750 C 153.787 243.750,154.688 245.215,154.688 247.564 " stroke="none" fill="#000000" fill-rule="evenodd"></path></g></svg>