<svg xmlns="http://www.w3.org/2000/svg" xml:space="preserve" width="192" height="192" viewBox="0 0 50.8 50.8"><path d="M34.345 11.964h3.277a3 3 45 0 1 3 3v20.872a3 3 135 0 1-3 3h-3.277a3 3 45 0 1-3-3V14.964a3 3 135 0 1 3-3m-21.167 0h3.277a3 3 45 0 1 3 3v20.872a3 3 135 0 1-3 3h-3.277a3 3 45 0 1-3-3V14.964a3 3 135 0 1 3-3" style="fill:none;stroke:#000;stroke-width:2.46429;stroke-linecap:round;stroke-linejoin:round;stroke-dasharray:none;paint-order:markers fill stroke" transform="matrix(1.2864 0 0 1.29041 -7.274 -7.377)"/></svg>