<?xml version="1.0" encoding="UTF-8" standalone="no"?>
<svg
   width="192"
   height="192"
   viewBox="0 0 50.8 50.8"
   version="1.1"
   id="svg2630"
   sodipodi:docname="digiposte.svg"
   xml:space="preserve"
   inkscape:version="1.2 (dc2aedaf03, 2022-05-15)"
   xmlns:inkscape="http://www.inkscape.org/namespaces/inkscape"
   xmlns:sodipodi="http://sodipodi.sourceforge.net/DTD/sodipodi-0.dtd"
   xmlns:xlink="http://www.w3.org/1999/xlink"
   xmlns="http://www.w3.org/2000/svg"
   xmlns:svg="http://www.w3.org/2000/svg"><defs
     id="defs2634"><clipPath
       clipPathUnits="userSpaceOnUse"
       id="clipPath3252"><use
         x="0"
         y="0"
         xlink:href="#g3248"
         id="use3254" /></clipPath></defs><sodipodi:namedview
     id="namedview2632"
     pagecolor="#ffffff"
     bordercolor="#000000"
     borderopacity="0.25"
     inkscape:showpageshadow="2"
     inkscape:pageopacity="0.0"
     inkscape:pagecheckerboard="0"
     inkscape:deskcolor="#d1d1d1"
     showgrid="false"
     inkscape:zoom="1.9336837"
     inkscape:cx="1.8100168"
     inkscape:cy="28.96027"
     inkscape:window-width="1920"
     inkscape:window-height="974"
     inkscape:window-x="-11"
     inkscape:window-y="-11"
     inkscape:window-maximized="1"
     inkscape:current-layer="svg2630" /><g
     id="g3250"
     clip-path="url(#clipPath3252)"
     transform="translate(10.932474,2.7494845)"><g
       inkscape:label="Clip"
       id="g3248" /></g><style
     id="style2771">
		.s0 { fill: #ffcb05 } 
		.s1 { fill: #003da5 } 
	</style><g
     id="g2798"
     transform="matrix(0.05183584,0,0,0.05183584,6.7269495,24.475922)"
     style="fill:#000000;fill-opacity:1;stroke:#000000;stroke-opacity:1"><g
       id="g2781"
       transform="matrix(0.22516901,0,0,0.22516901,191.86109,192.62298)"
       style="fill:#000000;fill-opacity:1;stroke:#000000;stroke-opacity:1"><path
         id="path2774"
         class="s1"
         d="m 476.5,248.6 h 543.2 c 30.2,0 50.2,34.5 33.6,63.3 l -27.6,47.9 H 692 l -217.8,-99 c -6.8,-3.1 -5,-12.2 2.3,-12.2 z"
         style="fill:#000000;fill-opacity:1;stroke:#000000;stroke-opacity:1" /><path
         id="path2776"
         class="s1"
         d="m 692.1,402.3 h 543.5 c 6.3,0 12.3,4.9 12.3,12.3 0,6.5 -4.4,10.7 -8.9,11.9 L 255.6,692.8 c -6.4,1.8 -11,-6.5 -5.6,-10.8 z"
         style="fill:#000000;fill-opacity:1;stroke:#000000;stroke-opacity:1" /><g
         id="&lt;Group&gt;"
         style="fill:#000000;fill-opacity:1;stroke:#000000;stroke-opacity:1"><path
           id="path2778"
           class="s1"
           d="m 910.7,559.5 -42.8,74.3 c -18.5,32.1 -59.1,52 -93.7,52.7 l -356.8,6.6 z"
           style="fill:#000000;fill-opacity:1;stroke:#000000;stroke-opacity:1" /></g></g></g><path
     style="fill:none;fill-opacity:1;stroke:#000000;stroke-width:3.175;stroke-dasharray:none;stroke-opacity:1"
     d="m 20.936105,30.686667 v -3.142488 l 3.341053,-0.145753 c 4.165074,-0.181707 6.293646,-0.789784 7.989263,-2.282325 1.493712,-1.314818 2.080144,-2.737961 2.080144,-5.048059 0,-3.268485 -1.479333,-5.122064 -5.00276,-6.268373 -1.49129,-0.485175 -2.517259,-0.577605 -7.556059,-0.680728 L 15.957278,12.999618 V 23.247745 33.495874 H 13.467864 10.978452 V 20.289523 7.0831723 l 3.603097,-0.1932707 c 4.72168,-0.2532741 12.314658,0.010548 14.542293,0.5052885 4.058256,0.9012977 7.74627,3.5853069 9.286715,6.7585509 2.574217,5.302766 1.521881,11.771508 -2.516324,15.467917 -2.782627,2.547105 -6.132848,3.682026 -11.879118,4.024171 l -3.07901,0.183331 z"
     id="path3395" /></svg>
