<svg width="192" height="192" fill="none" xmlns="http://www.w3.org/2000/svg"><circle cx="84" cy="96" r="62" stroke="#000" stroke-width="12" stroke-linecap="round" stroke-linejoin="round"/><path d="M108 158a62.004 62.004 0 0 0 43.841-18.159 62.004 62.004 0 0 0 0-87.682A62.003 62.003 0 0 0 108 34m-24 0h24M84 158h24M71 62.419c-13.458 5.213-23 18.283-23 33.58 0 15.299 9.542 28.369 23 33.582V62.419Z" stroke="#000" stroke-width="12" stroke-linecap="round" stroke-linejoin="round"/><path d="M97 129.581c13.457-5.213 23-18.283 23-33.581 0-15.298-9.543-28.368-23-33.581v67.162Z" stroke="#000" stroke-width="12" stroke-linecap="round" stroke-linejoin="round"/></svg>