<?xml version="1.0" encoding="utf-8"?>
	<svg version="1.1" xmlns="http://www.w3.org/2000/svg" xmlns:xlink="http://www.w3.org/1999/xlink" x="0px" y="0px" width="240.0" height="240.0" xml:space="preserve">
		<path d="M209.576,89.725C208.873,92.28 207.959,94.764 206.834,97.155L206.858,97.155L206.717,97.46C198.725,115.412 177.843,150.66 177.843,150.66L177.749,150.426L171.656,161.582L201.045,161.582L144.892,240L157.641,186.659L134.486,186.659L142.524,151.387C136.009,153.027 128.345,155.301 119.229,158.371C119.229,158.371 106.925,165.941 83.746,143.793C83.746,143.793 68.114,129.357 77.184,125.724C81.027,124.201 95.886,122.255 107.581,120.568C123.353,118.318 133.08,117.123 133.08,117.123C133.08,117.123 84.402,117.896 72.848,115.974C61.294,114.076 46.669,93.827 43.529,76.039C43.529,76.039 38.701,66.266 53.888,70.883C69.098,75.5 132.025,88.882 132.025,88.882C132.025,88.882 50.208,62.563 44.771,56.141C39.334,49.719 28.741,21.033 30.123,3.432C30.123,3.432 30.733,-0.974 35.021,0.198C35.021,0.198 95.534,29.259 136.9,45.126C178.265,61.039 214.217,69.148 209.576,89.725Z" fill="#000" stroke="#00000000" stroke-width="1.0" stroke-miterlimit=""/>
	</svg>
