<svg xmlns="http://www.w3.org/2000/svg" width="192" height="192" fill="none" viewBox="0 0 192 192"><path stroke="#000" stroke-linecap="round" stroke-linejoin="round" stroke-width="12" d="m154.342 119.434-22.486 9.848c4.105-6.572 24.943-32.83 28.229-41.04l.819-1.648c.83-2.457 1.648-4.105 1.648-5.743 4.105-17.239-15.601-23.8-38.583-31.192l-4.924-1.648c-2.467-.82-5.753-2.457-9.029-3.276-21.344-7.39-50.898-20.525-63.213-26.268-2.467-.83-3.286-1.648-4.105-1.648L41.06 16h-2.467c-4.924 0-8.21 3.286-9.03 8.21-.409 6.156-3.929 23.63 13.404 33.272 17.344 9.647 62.115 11.183 62.115 19.393-.83.82-65.67-13.263-66.49-13.263-1.637 4.105-.818 7.391 0 8.21.839 5.884 4.728 19.914 20.526 26.063 15.07 5.867 48.42 0 49.25 5.948h-49.25c-1.649 6.572 5.743 13.134 8.21 15.601 8.21 7.392 16.41 11.497 23.8 10.667 2.468 0 4.925-.819 5.743-.819 1.649 0 13.964-3.922 15.602-3.922L98.52 139.141c-.819 1.637-.819 4.105.819 5.742 1.638 2.457 3.286 3.287 5.743 3.287h13.963L112.473 176l41.869-56.566Z"/></svg>
