<?xml version="1.0" encoding="UTF-8"?>
<svg id="SVGRoot" width="192px" height="192px" version="1.1" viewBox="0 0 192 192" xmlns="http://www.w3.org/2000/svg">
 <path d="m59.404 157.54c-15.023-2.6833-28.067-12.879-33.853-26.46-2.409-5.6551-3.8934-14.109-3.4589-19.7 0.9367-12.056 5.7973-22.322 14.384-30.381 6.6387-6.231 15.905-10.624 24.38-11.558l2.2039-0.2429 0.09493-17.644 0.09493-17.644 25.132 0.13946c23.804 0.1321 25.344 0.1805 29.154 0.91619 14.036 2.7108 24.946 8.3894 34.549 17.982 11.933 11.92 17.916 26.478 17.916 43.594 0 28.637-18.9 52.467-47.364 59.718-6.6911 1.7046-9.9503 1.8712-35.922 1.8363-19.428-0.026-24.98-0.13897-27.31-0.55515zm12.529-2.7101c8.8616-1.11 16.581-4.8834 23.366-11.421 5.5774-5.3744 9.3944-11.819 11.339-19.145 1.1531-4.3439 1.5656-12.744 0.84606-17.231-2.1533-13.428-10.943-24.961-23.581-30.941-10.85-5.1344-24.295-5.0264-35.173 0.2826-14.259 6.959-23.522 21.705-23.509 37.426 0.0097 10.677 4.5876 21.618 12.217 29.193 9.193 9.1278 21.741 13.433 34.494 11.836zm41.321-8e-3c4.6005-0.49882 11.82-2.2513 15.981-3.8792 7.8925-3.0878 14.342-7.3195 20.49-13.445 10.033-9.9948 15.596-22.151 16.584-36.238 1.1217-15.995-3.215-29.653-13.31-41.919-8.2619-10.038-20.833-17.618-33.819-20.39-5.7024-1.2175-8.5775-1.3439-30.555-1.3439h-22.093v31.346l2.8335 0.23257c9.4213 0.77327 18.123 4.1259 25.03 9.6439 19.676 15.718 22.613 43.783 6.6235 63.306-3.5774 4.368-9.3642 8.991-14.013 11.195-1.106 0.5243-2.0684 0.98569-2.1388 1.0253-0.07048 0.0396-0.01962 0.24736 0.11303 0.4616 0.3219 0.52029 23.482 0.52402 28.273 4e-3z" fill="none" stroke="#000" stroke-linecap="round" stroke-linejoin="round" stroke-width="12"/>
</svg>
