<svg xmlns="http://www.w3.org/2000/svg" width="192" height="192" fill="none" viewBox="0 0 192 192">
  <path stroke="#000" stroke-linecap="round" stroke-linejoin="round" stroke-width="12" d="M152.392 128.012 163 138h1a6 6 0 0 0 6-6v-32a6 6 0 0 0-6-6h-12m.392 34.012L152 94m.392 34.012V170v-23a9 9 0 0 0-9-9H96.847l-24.19-23.352M152 94h-31L71.123 45.31H57.126L34 22h-8.607l14.373 14.471 15.103 15.2v4.18a6 6 0 0 1-6 6h-18.38l-4.161 3.725L22 69.757v14.994a6 6 0 0 0 6 6h36.66a7.998 7.998 0 0 1 7.998 7.998V170"/>
</svg>
