<?xml version="1.0" encoding="UTF-8" standalone="no"?>
<svg
   viewBox="0 0 64 64"
   width="24px"
   height="24px"
   version="1.1"
   id="svg16"
   sodipodi:docname="disney_plus_hotstar.svg"
   inkscape:version="1.1.1 (3bf5ae0d25, 2021-09-20)"
   xmlns:inkscape="http://www.inkscape.org/namespaces/inkscape"
   xmlns:sodipodi="http://sodipodi.sourceforge.net/DTD/sodipodi-0.dtd"
   xmlns="http://www.w3.org/2000/svg"
   xmlns:svg="http://www.w3.org/2000/svg">
  <defs
     id="defs20">
    <inkscape:path-effect
       effect="simplify"
       id="path-effect8885"
       is_visible="true"
       lpeversion="1"
       steps="1"
       threshold="0.00961538"
       smooth_angles="360"
       helper_size="0"
       simplify_individual_paths="false"
       simplify_just_coalesce="false" />
    <inkscape:path-effect
       effect="simplify"
       id="path-effect8881"
       is_visible="true"
       lpeversion="1"
       steps="1"
       threshold="0.00961538"
       smooth_angles="360"
       helper_size="0"
       simplify_individual_paths="false"
       simplify_just_coalesce="false" />
    <inkscape:path-effect
       effect="simplify"
       id="path-effect8877"
       is_visible="true"
       lpeversion="1"
       steps="1"
       threshold="0.00961538"
       smooth_angles="360"
       helper_size="0"
       simplify_individual_paths="false"
       simplify_just_coalesce="false" />
    <inkscape:path-effect
       effect="simplify"
       id="path-effect8873"
       is_visible="true"
       lpeversion="1"
       steps="1"
       threshold="0.00961538"
       smooth_angles="360"
       helper_size="0"
       simplify_individual_paths="false"
       simplify_just_coalesce="false" />
    <inkscape:path-effect
       effect="simplify"
       id="path-effect8869"
       is_visible="true"
       lpeversion="1"
       steps="1"
       threshold="0.0277778"
       smooth_angles="360"
       helper_size="0"
       simplify_individual_paths="false"
       simplify_just_coalesce="false" />
    <inkscape:path-effect
       effect="simplify"
       id="path-effect8865"
       is_visible="true"
       lpeversion="1"
       steps="1"
       threshold="0.0277778"
       smooth_angles="360"
       helper_size="0"
       simplify_individual_paths="false"
       simplify_just_coalesce="false" />
    <inkscape:path-effect
       effect="simplify"
       id="path-effect8861"
       is_visible="true"
       lpeversion="1"
       steps="1"
       threshold="0.0277778"
       smooth_angles="360"
       helper_size="0"
       simplify_individual_paths="false"
       simplify_just_coalesce="false" />
    <inkscape:path-effect
       effect="simplify"
       id="path-effect8857"
       is_visible="true"
       lpeversion="1"
       steps="1"
       threshold="0.0277778"
       smooth_angles="360"
       helper_size="0"
       simplify_individual_paths="false"
       simplify_just_coalesce="false" />
    <inkscape:path-effect
       effect="skeletal"
       id="path-effect8624"
       is_visible="true"
       lpeversion="1"
       pattern="M 0,50.314465 C 0,22.540881 22.540881,0 50.314465,0 78.08805,0 100.62893,22.540881 100.62893,50.314465 c 0,27.773585 -22.54088,50.314465 -50.314465,50.314465 C 22.540881,100.62893 0,78.08805 0,50.314465 Z"
       copytype="single_stretched"
       prop_scale="1"
       scale_y_rel="false"
       spacing="0"
       normal_offset="0"
       tang_offset="0"
       prop_units="false"
       vertical_pattern="false"
       hide_knot="false"
       fuse_tolerance="0" />
    <inkscape:path-effect
       effect="skeletal"
       id="path-effect8620"
       is_visible="true"
       lpeversion="1"
       pattern="M 0,50.314465 C 0,22.540881 22.540881,0 50.314465,0 78.08805,0 100.62893,22.540881 100.62893,50.314465 c 0,27.773585 -22.54088,50.314465 -50.314465,50.314465 C 22.540881,100.62893 0,78.08805 0,50.314465 Z"
       copytype="single_stretched"
       prop_scale="1"
       scale_y_rel="false"
       spacing="0"
       normal_offset="0"
       tang_offset="0"
       prop_units="false"
       vertical_pattern="false"
       hide_knot="false"
       fuse_tolerance="0" />
    <inkscape:path-effect
       effect="skeletal"
       id="path-effect8616"
       is_visible="true"
       lpeversion="1"
       pattern="M 0,50.314465 C 0,22.540881 22.540881,0 50.314465,0 78.08805,0 100.62893,22.540881 100.62893,50.314465 c 0,27.773585 -22.54088,50.314465 -50.314465,50.314465 C 22.540881,100.62893 0,78.08805 0,50.314465 Z"
       copytype="single_stretched"
       prop_scale="1"
       scale_y_rel="false"
       spacing="0"
       normal_offset="0"
       tang_offset="0"
       prop_units="false"
       vertical_pattern="false"
       hide_knot="false"
       fuse_tolerance="0" />
    <inkscape:path-effect
       effect="skeletal"
       id="path-effect8612"
       is_visible="true"
       lpeversion="1"
       pattern="M 0,50.314465 C 0,22.540881 22.540881,0 50.314465,0 78.08805,0 100.62893,22.540881 100.62893,50.314465 c 0,27.773585 -22.54088,50.314465 -50.314465,50.314465 C 22.540881,100.62893 0,78.08805 0,50.314465 Z"
       copytype="single_stretched"
       prop_scale="1"
       scale_y_rel="false"
       spacing="0"
       normal_offset="0"
       tang_offset="0"
       prop_units="false"
       vertical_pattern="false"
       hide_knot="false"
       fuse_tolerance="0" />
    <inkscape:path-effect
       effect="skeletal"
       id="path-effect8608"
       is_visible="true"
       lpeversion="1"
       pattern="M 0,50.314465 C 0,22.540881 22.540881,0 50.314465,0 78.08805,0 100.62893,22.540881 100.62893,50.314465 c 0,27.773585 -22.54088,50.314465 -50.314465,50.314465 C 22.540881,100.62893 0,78.08805 0,50.314465 Z"
       copytype="single_stretched"
       prop_scale="1"
       scale_y_rel="false"
       spacing="0"
       normal_offset="0"
       tang_offset="0"
       prop_units="false"
       vertical_pattern="false"
       hide_knot="false"
       fuse_tolerance="0" />
    <inkscape:path-effect
       effect="skeletal"
       id="path-effect8604"
       is_visible="true"
       lpeversion="1"
       pattern="M 0,50.314465 C 0,22.540881 22.540881,0 50.314465,0 78.08805,0 100.62893,22.540881 100.62893,50.314465 c 0,27.773585 -22.54088,50.314465 -50.314465,50.314465 C 22.540881,100.62893 0,78.08805 0,50.314465 Z"
       copytype="single_stretched"
       prop_scale="1"
       scale_y_rel="false"
       spacing="0"
       normal_offset="0"
       tang_offset="0"
       prop_units="false"
       vertical_pattern="false"
       hide_knot="false"
       fuse_tolerance="0" />
    <inkscape:path-effect
       effect="skeletal"
       id="path-effect8600"
       is_visible="true"
       lpeversion="1"
       pattern="M 0,50.314465 C 0,22.540881 22.540881,0 50.314465,0 78.08805,0 100.62893,22.540881 100.62893,50.314465 c 0,27.773585 -22.54088,50.314465 -50.314465,50.314465 C 22.540881,100.62893 0,78.08805 0,50.314465 Z"
       copytype="single_stretched"
       prop_scale="1"
       scale_y_rel="false"
       spacing="0"
       normal_offset="0"
       tang_offset="0"
       prop_units="false"
       vertical_pattern="false"
       hide_knot="false"
       fuse_tolerance="0" />
    <inkscape:path-effect
       effect="skeletal"
       id="path-effect8596"
       is_visible="true"
       lpeversion="1"
       pattern="M 0,50.314465 C 0,22.540881 22.540881,0 50.314465,0 78.08805,0 100.62893,22.540881 100.62893,50.314465 c 0,27.773585 -22.54088,50.314465 -50.314465,50.314465 C 22.540881,100.62893 0,78.08805 0,50.314465 Z"
       copytype="single_stretched"
       prop_scale="1"
       scale_y_rel="false"
       spacing="0"
       normal_offset="0"
       tang_offset="0"
       prop_units="false"
       vertical_pattern="false"
       hide_knot="false"
       fuse_tolerance="0" />
    <inkscape:path-effect
       effect="skeletal"
       id="path-effect8592"
       is_visible="true"
       lpeversion="1"
       pattern="M 0,50.314465 C 0,22.540881 22.540881,0 50.314465,0 78.08805,0 100.62893,22.540881 100.62893,50.314465 c 0,27.773585 -22.54088,50.314465 -50.314465,50.314465 C 22.540881,100.62893 0,78.08805 0,50.314465 Z"
       copytype="single_stretched"
       prop_scale="1"
       scale_y_rel="false"
       spacing="0"
       normal_offset="0"
       tang_offset="0"
       prop_units="false"
       vertical_pattern="false"
       hide_knot="false"
       fuse_tolerance="0" />
    <inkscape:path-effect
       effect="skeletal"
       id="path-effect8588"
       is_visible="true"
       lpeversion="1"
       pattern="M 0,50.314465 C 0,22.540881 22.540881,0 50.314465,0 78.08805,0 100.62893,22.540881 100.62893,50.314465 c 0,27.773585 -22.54088,50.314465 -50.314465,50.314465 C 22.540881,100.62893 0,78.08805 0,50.314465 Z"
       copytype="single_stretched"
       prop_scale="1"
       scale_y_rel="false"
       spacing="0"
       normal_offset="0"
       tang_offset="0"
       prop_units="false"
       vertical_pattern="false"
       hide_knot="false"
       fuse_tolerance="0" />
    <clipPath
       id="clip1">
      <path
         d="m 39,86 h 66 v 28.53125 H 39 Z m 0,0"
         id="path2" />
    </clipPath>
    <clipPath
       id="a">
      <path
         clip-rule="evenodd"
         d="m 361.877,168.601 c -0.08,0.093 -0.134,0.187 -0.147,0.307 0,24.643 0,49.28 -0.013,73.929 0.2,1.31 0.922,2.507 1.891,3.402 0.04,0.014 0.134,0.034 0.174,0.047 0.501,0.522 1.21,0.776 1.878,1.016 0.234,-0.007 0.461,0.034 0.688,0.074 0.261,0.046 0.528,0.093 0.789,0.067 h 39.748 c 0.274,0.006 0.555,0.013 0.822,-0.101 0.021,-0.053 0.027,-0.14 0.041,-0.2 0.013,-0.06 0.033,-0.214 0.046,-0.294 0.843,-4.719 1.658,-9.458 2.56,-14.183 0.027,-0.201 0.054,-0.401 0.08,-0.602 -3.649,-0.02 -7.312,0 -10.961,-0.02 -0.882,-0.02 -1.798,0 -2.687,-0.1 -1.51,-0.074 -3.041,-0.02 -4.558,-0.161 -1.878,0 -3.743,-0.173 -5.621,-0.173 -1.477,-0.154 -2.968,-0.101 -4.452,-0.167 -0.969,-0.121 -1.965,-0.061 -2.94,-0.107 -1.598,-0.174 -3.222,-0.054 -4.813,-0.228 -1.697,0.02 -3.388,-0.133 -5.079,-0.173 0.02,-0.014 0.033,-0.067 0.033,-0.081 0.555,0.014 1.11,-0.026 1.678,-0.04 1.243,-0.16 2.506,-0.053 3.749,-0.227 1.304,0 2.594,-0.174 3.897,-0.174 1.15,-0.16 2.319,-0.067 3.475,-0.234 1.351,0 2.681,-0.173 4.037,-0.18 1.11,-0.147 2.24,-0.067 3.356,-0.214 0.635,0.007 1.276,-0.033 1.911,-0.087 0.655,-0.047 1.31,-0.093 1.972,-0.087 1.277,-0.153 2.58,-0.107 3.85,-0.247 -0.114,-0.495 -0.207,-0.989 -0.314,-1.484 -0.101,-0.314 -0.475,-0.24 -0.715,-0.287 -2.908,-0.415 -5.809,-0.829 -8.709,-1.23 0.127,-0.1 0.294,-0.1 0.461,-0.1 0.06,0 0.127,0.006 0.194,-0.007 2.259,-0.174 4.498,-0.381 6.75,-0.535 0.515,-0.033 1.009,-0.12 1.517,-0.14 -0.22,-0.695 -0.361,-1.464 -0.668,-2.105 -4.819,-0.736 -9.638,-1.397 -14.437,-2.186 1.243,-0.201 2.506,-0.294 3.756,-0.434 l 0.107,-0.034 c 3.991,-0.421 7.981,-0.889 11.971,-1.276 5.06,-0.027 10.099,-0.014 15.159,0 0.04,-0.007 0.087,-0.007 0.14,-0.007 0.154,0 0.308,0 0.328,-0.167 0.414,-2.179 0.815,-4.351 1.236,-6.524 0.575,-3.014 1.491,-5.995 2.894,-8.749 2.219,-4.424 5.715,-8.181 9.986,-10.674 3.983,-2.339 8.595,-3.462 13.187,-3.676 1.49,-0.133 2.994,-0.1 4.471,0.094 0.963,0.22 1.959,0.494 2.727,1.149 0.628,0.508 1.003,1.264 1.283,2.012 0.622,1.792 0.963,3.636 1.264,5.501 0.013,0.755 0.147,1.597 -0.261,2.286 -0.368,0.668 -1.123,0.996 -1.831,1.19 -2.594,0.675 -5.301,0.046 -7.894,0.675 -2.132,0.454 -4.117,1.637 -5.474,3.335 -1.591,1.985 -2.439,4.451 -2.907,6.924 -0.368,2.206 -0.822,4.398 -1.183,6.617 1.129,0.007 2.265,0 3.402,0 1.423,0 2.847,0 4.271,0.014 1.022,0 2.065,0.561 2.479,1.53 0.535,1.23 0.415,2.627 0.241,3.93 -0.207,1.464 -0.555,2.908 -1.217,4.251 -0.548,1.143 -1.463,2.186 -2.706,2.593 -0.649,0.254 -1.344,0.194 -2.032,0.194 -2.253,0 -4.505,0.034 -6.758,0 -0.361,1.658 -0.601,3.349 -0.929,5.026 -0.588,3.262 -1.169,6.53 -1.757,9.805 -0.014,0.107 -0.027,0.335 -0.027,0.455 0.615,0.04 1.23,0.033 1.844,0.027 0.448,-0.007 0.889,-0.007 1.337,0 7.86,0 15.734,-0.014 23.614,0 0.842,0.026 1.704,-0.174 2.446,-0.589 0.435,-0.167 0.709,-0.548 1.09,-0.768 0.381,-0.214 0.488,-0.655 0.808,-0.936 0.348,-0.621 0.709,-1.263 0.742,-1.985 0.04,0 0.141,-0.013 0.194,-0.027 -0.033,-24.69 0,-49.379 -0.02,-74.062 -0.04,-0.134 -0.087,-0.268 -0.134,-0.401 -31.781,0.013 -63.555,0 -95.33,0.013"
         id="path2-0" />
    </clipPath>
    <clipPath
       id="b">
      <path
         clip-rule="evenodd"
         d="M 97.374,152.52 H 457.428 V 260.797 H 97.374 Z"
         id="path5" />
    </clipPath>
    <clipPath
       id="c">
      <path
         clip-rule="evenodd"
         d="m 375.191,152.76 c -0.301,0.007 -0.582,0.154 -0.876,0.228 -1.717,0.655 -3.448,1.283 -5.166,1.938 -0.227,0.047 -0.348,0.241 -0.468,0.414 0.013,0.114 0.027,0.301 0.027,0.408 1.183,0.501 2.446,0.775 3.636,1.263 0.641,0.254 0.849,0.949 1.123,1.517 l 0.1,0.087 c 0.093,0.702 0.02,1.417 0.053,2.112 -0.046,2.086 0.04,4.198 -0.053,6.29 -3.91,0 -7.813,-0.027 -11.717,0 -0.067,0.24 0.054,0.441 0.308,0.374 1.604,-0.007 3.221,-0.007 4.825,0 2.6,0 5.2,0.007 7.8,-0.04 6.27,0 12.519,0.02 18.788,0 l 0.087,-0.04 c 0.288,0.067 0.568,0.04 0.862,0.04 11.349,0 22.705,0.02 34.068,0 3.569,0.02 7.151,0 10.727,0 5.908,0 11.824,0.053 17.732,0.027 0.174,-0.04 0.227,-0.161 0.16,-0.375 -1.737,0.007 -3.468,0.007 -5.2,0.007 -2.165,0 -4.331,0 -6.496,0.007 -0.074,-0.542 -0.034,-1.076 -0.047,-1.598 0,-2.145 -0.027,-4.297 -0.013,-6.436 0,-0.174 0.04,-0.328 0.133,-0.468 0.288,-0.568 0.495,-1.25 1.137,-1.504 1.203,-0.468 2.446,-0.795 3.642,-1.263 0.04,-0.274 0.02,-0.581 -0.22,-0.755 -1.604,-0.575 -3.202,-1.19 -4.799,-1.785 -0.495,-0.24 -1.043,-0.374 -1.578,-0.448 z m 52.327,8.916 c -0.795,-0.902 -0.849,-2.372 -0.053,-3.268 0.608,-0.688 1.59,-1.076 2.506,-0.835 0.682,0.2 1.35,0.641 1.651,1.316 0.588,1.15 0.127,2.707 -1.023,3.309 -0.367,0.207 -0.768,0.301 -1.169,0.301 -0.715,0 -1.417,-0.301 -1.912,-0.823 m -38.371,0.789 c -0.595,-0.2 -1.157,-0.501 -1.518,-1.029 -0.474,-0.709 -0.581,-1.664 -0.207,-2.44 0.274,-0.755 0.996,-1.263 1.758,-1.437 1.477,-0.347 3.128,0.969 3.008,2.507 0.013,1.343 -1.237,2.459 -2.533,2.459 -0.174,0 -0.341,-0.02 -0.508,-0.06"
         id="path8" />
    </clipPath>
    <clipPath
       id="d">
      <path
         clip-rule="evenodd"
         d="M 97.374,152.52 H 457.428 V 260.797 H 97.374 Z"
         id="path11" />
    </clipPath>
    <clipPath
       id="e">
      <path
         clip-rule="evenodd"
         d="m 430.586,171.589 c -0.221,0.066 -0.381,0.147 -0.454,0.133 -0.228,0.054 0.935,1.217 0.748,1.183 l 0.174,0.903 c 0.027,0.668 0.421,0.782 0.301,1.437 0.2,0.006 0.528,-0.174 0.681,-0.295 0.261,-0.274 0.602,-0.608 0.736,-1.142 0.113,-0.448 0.354,-1.658 -0.629,-2.166 -0.287,-0.154 -0.561,-0.207 -0.808,-0.207 -0.295,0 -0.548,0.073 -0.749,0.154"
         id="path14" />
    </clipPath>
    <clipPath
       id="f">
      <path
         clip-rule="evenodd"
         d="m 386.901,171.462 c -0.983,0.514 -0.742,1.717 -0.628,2.165 0.133,0.535 0.468,0.869 0.742,1.143 0.153,0.12 0.481,0.307 0.681,0.294 -0.12,-0.655 0.268,-0.769 0.294,-1.437 l 0.174,-0.902 c -0.187,0.04 0.983,-1.123 0.749,-1.177 -0.074,0.014 -0.241,-0.066 -0.455,-0.147 -0.2,-0.073 -0.454,-0.147 -0.748,-0.147 -0.248,0 -0.522,0.054 -0.809,0.208"
         id="path17" />
    </clipPath>
  </defs>
  <sodipodi:namedview
     id="namedview18"
     pagecolor="#ffffff"
     bordercolor="#666666"
     borderopacity="1.0"
     inkscape:pageshadow="2"
     inkscape:pageopacity="0.0"
     inkscape:pagecheckerboard="0"
     showgrid="false"
     inkscape:zoom="2.8284271"
     inkscape:cx="12.551145"
     inkscape:cy="40.835417"
     inkscape:window-width="1920"
     inkscape:window-height="1009"
     inkscape:window-x="-8"
     inkscape:window-y="-8"
     inkscape:window-maximized="1"
     inkscape:current-layer="svg16"
     showguides="false" />
  <linearGradient
     id="AQp1CkUOovhRSREXJZOJma"
     x1="32.005"
     x2="32.005"
     y1="17"
     y2="53"
     gradientUnits="userSpaceOnUse"
     spreadMethod="reflect">
    <stop
       offset="0"
       stop-color="#1a6dff"
       id="stop2" />
    <stop
       offset="1"
       stop-color="#c822ff"
       id="stop4" />
  </linearGradient>
  <linearGradient
     id="AQp1CkUOovhRSREXJZOJmb"
     x1="29.93"
     x2="29.93"
     y1="19"
     y2="41.8"
     gradientUnits="userSpaceOnUse"
     spreadMethod="reflect">
    <stop
       offset="0"
       stop-color="#6dc7ff"
       id="stop9" />
    <stop
       offset="1"
       stop-color="#e6abff"
       id="stop11" />
  </linearGradient>
  <path
     id="path2748"
     style="fill:#000000;stroke:none;stroke-width:1"
     d="m 6.4243825,41.038537 v 5.88395 5.88388 h 1.62424 l 6.3e-4,-2.42754 c 7.5e-4,-3.01824 0.0181,-3.21462 0.3429,-3.89289 0.73681,-1.53868 3.1368295,-1.6796 3.8682595,-0.22716 0.32967,0.65462 0.34271,0.80401 0.34296,3.92585 l 2.8e-4,2.62174 h 1.6272 l -0.0119,-3.0278 c -0.0136,-3.47231 -0.007,-3.40349 -0.40165,-4.18495 -0.62069,-1.22906 -2.04455,-1.8918 -3.37503,-1.83631 -0.7982895,0.0333 -1.5629595,0.32516 -2.1003695,0.9084 -0.13486,0.14635 -0.25455,0.26556 -0.26696,0.26606 -0.001,-2.14525 -0.004,-2.48101 -0.0361,-2.61816 -0.13393,-0.57102 -0.65415,-1.08655 -1.23722,-1.22611 -0.0988,-0.0236 -0.22407,-0.0443 -0.27841,-0.046 z m 20.7620605,2.97573 h -0.70619 v 1.483 h 0.70619 l 9e-4,2.93953 c 8.4e-4,2.85537 0.002,2.94328 0.0366,3.09449 0.13164,0.57103 0.64293,1.08656 1.21605,1.22611 0.0971,0.0236 0.22024,0.0444 0.27365,0.046 l 0.0971,0.003 v -3.65455 -3.65455 h 1.44769 v -0.7415 -0.7415 h -1.44769 v -2.96601 h -1.62425 z m 11.51095,-2.96601 v 2.96601 0 0 h -0.7062 v 1.483 h 0.7062 l 8.9e-4,2.93953 c 8.4e-4,2.85537 0.002,2.94328 0.0366,3.09449 0.13164,0.57103 0.64293,1.08656 1.21605,1.22611 0.0971,0.0236 0.22024,0.0444 0.27365,0.046 l 0.0971,0.003 v -7.3091 h 1.44769 v -0.7415 -0.7415 h -1.44769 v 0 0 -2.96601 z m 18.85886,2.71884 c -0.66576,0 -1.52416,0.34414 -1.95169,0.7824 -0.29507,0.30249 -0.27634,0.31244 -0.27634,-0.14682 v -0.38841 h -1.51831 v 4.40012 0 -4.40012 8.80024 l 0.0971,-0.003 c 0.0534,-0.002 0.17655,-0.0223 0.27365,-0.046 0.57311,-0.13955 1.0844,-0.65508 1.21605,-1.22611 0.0245,-0.10648 0.0306,-0.54693 0.0333,-1.57894 h 0.004 l 0.005,-0.47323 c 0.0258,-2.46169 0.0427,-2.59085 0.41419,-3.16566 0.31628,-0.48934 1.01732,-0.85963 1.62749,-0.85963 h 0.1431 v -0.84744 c 0,-0.80912 -0.003,-0.84743 -0.0671,-0.84743 z m -10.51903,0.0134 c -0.7197,-0.021 -1.46891,0.12086 -2.14299,0.44496 -1.09789,0.52786 -1.91972,1.48156 -2.31244,2.68332 -0.91715,2.8066 0.74124,5.59202 3.60427,6.05368 1.53822,0.24803 3.0135,-0.2996 3.68945,-1.36949 0.15185,-0.24036 0.15627,-0.22548 0.15627,0.52488 v 0.68854 h 0.81212 0.81212 v -4.39605 -4.39605 h -1.62424 v 0.61792 c 0,0.63046 -0.0147,0.69152 -0.12552,0.52082 -0.5519,-0.85022 -1.66954,-1.33756 -2.86904,-1.37253 z m -13.26794,3.5e-4 c -1.51739,0.1047 -2.57043,1.16955 -2.57043,2.59919 0,1.26052 0.65495,1.94457 2.46691,2.57643 1.18052,0.41166 1.51836,0.71835 1.51832,1.37825 -1e-4,0.76008 -0.45654,1.18415 -1.27115,1.18094 -0.78779,-0.003 -1.27562,-0.40718 -1.42597,-1.18122 -0.0245,-0.12606 -0.0516,-0.26498 -0.0603,-0.30868 l -0.0157,-0.0795 h -0.81143 -0.8115 v 0.10338 c 0,1.41978 1.01929,2.6277 2.45871,2.91373 2.07764,0.41286 3.78508,-1.04526 3.57717,-3.0549 -0.12904,-1.24723 -0.82689,-1.93658 -2.53361,-2.50271 -1.31945,-0.43767 -1.70164,-0.86487 -1.39369,-1.55797 0.42162,-0.94895 2.09326,-0.6357 2.09326,0.39227 0,0.0669 0.0288,0.0693 0.83019,0.0693 h 0.83019 l -0.0203,-0.15007 c -0.20578,-1.52216 -1.36024,-2.48203 -2.8607,-2.3785 z m -13.30622,0.006 c -1.88712,0.0381 -3.75202,1.1156 -4.43087,3.14235 -0.9155,2.73328 0.98413,5.71646 3.86282,6.06608 3.79723,0.46119 6.59417,-3.42011 4.85783,-6.74117 -0.82301,-1.57415 -2.34863,-2.37731 -3.91241,-2.46099 -0.12566,-0.007 -0.25156,-0.009 -0.37737,-0.006 z m 0.081,1.47176 c 0.12899,-2.8e-4 0.25926,0.008 0.3902,0.025 0.29931,0.0391 0.60225,0.12492 0.90192,0.26338 2.64441,1.22179 2.30803,5.07588 -0.51351,5.88346 -1.57882,0.4519 -3.32658,-0.54841 -3.77544,-2.16085 -0.5864,-2.10651 1.06213,-4.00733 2.99683,-4.01102 z m 26.36472,0.009 c 0.096,-0.003 0.19215,-4.7e-4 0.28792,0.006 1.34087,0.0914 2.62124,1.06286 2.8356,2.73146 0.21023,1.63646 -0.89359,3.17371 -2.49947,3.48097 -2.47047,0.47267 -4.38346,-2.21269 -3.22179,-4.5226 0.51482,-1.02369 1.393,-1.56223 2.31023,-1.67459 0.0955,-0.0117 0.19148,-0.0188 0.28751,-0.0213 z"
     sodipodi:nodetypes="ccccssccccssscsscccccccsscccccccccccccccccccssccccccccccccssscccccccssccssscsssscsssccccccsssssscssccccsssssssccssssssssssssssssssss" />
  <path
     d="m 33.409653,10.966667 c -8.17764,0 -14.32388,4.31519 -19.510001,9.9693 -0.0805,0.0868 0.008,0.23567 0.1256,0.24508 l 0.897541,0.34919 c 0.11449,0.009 0.20508,-0.0599 0.28488,-0.14398 4.95556,-5.34176 10.57448,-9.17289 18.2173,-9.17289 9.09359,0 16.05404,5.26764 19.52292,13.01495 0.0525,0.11626 0.15934,0.19914 0.28795,0.19914 h 0.9343 c 0.10979,0 0.19302,-0.11357 0.1501,-0.21444 -3.52536,-8.19028 -11.11906,-14.24635 -20.91059,-14.24635 z m -22.747891,10.95569 c -0.6937795,-0.0282 -1.4312195,-0.006 -2.2852195,0.0488 -3.41597,0.22114 -3.41345,1.92854 -2.58847,1.985 0.48777,0.0329 0.76394,0.0685 0.9098,0.0858 0.12233,0.0141 0.13995,-0.0153 0.18073,-0.0705 0.0345,-0.0471 0.0502,-0.12004 0.0674,-0.16239 0.0298,-0.0768 -0.005,-0.15398 -0.0735,-0.18379 -0.0706,-0.0312 -0.86384,-0.38289 -0.86384,-0.38289 0,0 4.2981795,-1.10219 9.6401505,1.48567 5.34197,2.58786 6.71893,5.95002 5.23209,7.60308 -1.48685,1.65312 -4.07434,2.48123 -7.269181,1.76445 -0.0549,-2.2585 0.0552,-3.91179 0.0552,-3.91179 0,0 2.974751,-0.11245 3.746401,0.43806 0.65873,0.47051 0.27209,0.78141 -0.16236,0.96492 -0.0753,0.0312 -0.0797,0.16603 -0.0122,0.20526 0.61638,0.34189 1.1046,0.4217 1.55002,-0.12257 0.49562,-0.60538 1.04721,-3.19424 -5.011531,-3.02956 -0.10979,-1.04614 0.22284,-1.76293 -0.6586,-2.80906 -0.88144,-1.05238 -0.88223,2.86111 -0.88223,2.86111 0,0 -2.2596995,0.32736 -4.1323695,1.65111 -1.87267,1.32376 3.8566695,4.51835 3.8566695,4.51835 0,0 0.10775,1.43279 0.93431,1.59901 0.82654,0.16468 0.77195,-1.04762 0.77195,-1.04762 0,0 4.956981,1.43309 8.264731,-1.48566 3.30306,-2.92194 0.21664,-7.60332 -4.19057,-9.75048 -3.305401,-1.61153 -4.997931,-2.16951 -7.079251,-2.25456 z m 15.190821,0.76583 c -0.284,-0.0259 -0.61626,0 -1.0017,0.11027 -1.54174,0.44071 -3.46928,2.47789 -2.09222,3.79846 0,0.60538 0.16446,1.76292 0.98944,0.71684 0.87988,0.38735 2.58867,0.1131 3.69126,-0.98945 1.10102,-1.10101 1.59673,-3.14243 -0.33084,-3.03268 0,0 -0.40393,-0.52604 -1.25594,-0.60344 z m -0.89448,1.15789 c 0,0 -1.4851,1.20983 -1.70625,1.87167 -0.16625,-0.82652 0.2743,-1.59718 1.70625,-1.87167 z m 2.08303,0.35842 c 0.9267,-0.11269 0.45841,1.09384 -0.26344,1.62353 -0.82655,0.60544 -1.65395,0.7723 -2.64361,0.49628 0,0 0.87825,-1.37803 2.41999,-1.98501 0.19272,-0.0757 0.35468,-0.11868 0.48706,-0.1348 z m 27.56036,2.49352 c -0.45013,0 -0.52002,0.006 -0.94349,0.006 -0.12233,0.006 -0.20597,0.1198 -0.1746,0.2359 0.13802,0.50657 0.33847,1.79804 0.40435,3.24094 h -3.14905 c -0.0973,0 -0.1791,0.0789 -0.1838,0.17462 l -0.0827,0.83624 c -0.006,0.13334 0.10868,0.2439 0.24199,0.22979 l 3.21339,0.009 c 0.0188,1.18259 0.0269,1.8929 -0.0735,3.1429 -0.0125,0.0832 0.0532,0.15462 0.13784,0.15933 0.50503,0.0312 0.8226,0.0704 1.01395,0.0735 0.0769,0 0.14076,-0.0582 0.14704,-0.13481 0.0298,-0.40153 0.10346,-1.66017 0.0674,-3.23482 l 3.2624,0.009 c 0.10194,0 0.18379,-0.0818 0.18379,-0.1838 v -0.90057 c 0.005,-0.0988 -0.0803,-0.17768 -0.18073,-0.17768 h -3.31447 c -0.069,-1.09632 -0.20265,-2.26709 -0.44417,-3.36658 -0.0125,-0.0612 -0.0629,-0.11169 -0.12561,-0.1164 z m -19.08732,0.69231 c -0.46728,-0.0241 0.0494,1.647 0.13172,2.01871 0.10979,0.49558 0.55139,2.36819 0.55139,3.13985 -0.55051,-0.82653 -1.43391,-2.48006 -2.20557,-3.25013 -0.77165,-0.77165 -0.98944,-0.11028 -0.98944,-0.11028 0,0 -0.77253,2.80778 -0.55139,4.62557 0.22115,1.81774 1.1566,0.55051 1.21306,0 0.0549,-0.5505 0.16542,-2.3686 0.16542,-2.86417 0.49562,1.10102 1.26626,2.37054 1.87167,2.97751 0.6054,0.60538 1.21404,0.21968 1.43362,-0.33084 0.22114,-0.5505 0.93603,-3.52531 -0.77195,-5.50778 -0.42661,-0.49564 -0.69277,-0.69044 -0.84853,-0.69844 z m 9.94036,1.0078 c -0.20428,-0.04 -0.50238,0.0735 -0.50238,0.0735 0,0 -2.80984,2.36748 -1.59903,5.06668 -0.82655,2.03735 -2.14812,4.95699 -0.22056,6.5003 0.49562,0.32936 0.33,-0.66102 0.49625,-1.21306 0.16625,-0.5521 0.71769,-3.3577 1.2682,-4.12935 1.32216,-0.10975 3.68834,-0.60685 4.07417,-4.18751 0.16782,-2.31337 -1.92271,-1.81904 -2.75083,-0.99251 -0.82655,0.82659 -2.25764,2.97751 -2.25764,2.97751 0.16625,-1.43191 0.54912,-1.81814 1.43055,-3.25012 0.37642,-0.61167 0.26555,-0.80547 0.0613,-0.84546 z m -15.65644,0.0182 c -1.01221,0 -2.27742,0.16368 -3.2961,0.824 -0.99122,0.66032 -0.71592,1.87496 -0.16541,1.9299 0.55051,0.0547 3.35716,0.16427 4.01902,0.60344 0.66187,0.43918 0.82704,0.77236 0.11028,1.21306 -0.71676,0.4407 -2.31258,0.66067 -2.97445,0.44111 -0.6603,-0.22114 -0.87997,-1.37732 0.33084,-0.77194 1.21237,0.60538 3.41365,-0.11093 1.9268,-0.6065 -1.48684,-0.49564 -2.69904,-0.38207 -3.4707,0.16844 -0.77165,0.55051 0.27805,1.70799 1.15792,2.09223 0.88144,0.38424 2.53461,0.49511 3.52584,-0.11028 0.99123,-0.60538 1.48635,-2.91946 -0.11028,-3.30529 -1.5982,-0.38423 -2.59009,-0.32972 -3.30528,-0.44111 -0.71676,-0.10975 -0.38396,-0.38488 0.77195,-0.49622 1.15591,-0.10981 1.98322,-0.16468 2.97445,-0.32778 0.99123,-0.16627 1.04578,-0.88299 0.27569,-1.04767 0,0 -0.75836,-0.16539 -1.77057,-0.16539 z m 12.06933,0.11028 c -0.77165,-0.0547 -2.42482,0.16486 -3.52583,0.38289 -1.10102,0.22114 0.7168,1.04767 0.7168,1.04767 0,0 -0.1649,0.55151 -0.38291,0.93733 -0.66029,0.10981 -0.60711,0.49382 -0.38597,0.98945 -0.44072,1.1559 -0.65917,2.58886 0.60653,3.02957 1.26727,0.44075 2.75196,-0.71438 3.35736,-1.21001 0.60541,-0.49558 -0.10984,-0.99074 -0.71681,-0.93427 -0.6054,0.0547 -2.36792,0.32777 -2.36792,0.32777 l 0.38598,-1.15483 c 0,0 1.15588,0.0547 2.09222,-0.0553 0.93633,-0.10981 0.27579,-1.15483 -0.0552,-1.15483 h -1.54083 l 0.2757,-0.77195 c 0,0 2.03539,-0.0541 2.69568,-0.16545 0.6603,-0.1098 -0.3832,-1.21329 -1.15485,-1.26817 z m -17.50054,0.15621 c -0.10478,0.0312 -0.2056,0.11981 -0.28794,0.2849 0,0 -0.27521,3.19449 -0.16542,5.17691 0.0549,0.82658 1.37541,0.99044 1.37541,0.16544 0,-0.82652 -0.054,-4.13217 -0.16541,-4.79402 -0.0823,-0.49521 -0.44227,-0.92604 -0.75664,-0.83323 z m 23.55666,1.45503 c 0.26108,-0.0365 0.34713,0.26749 0.003,1.19777 -0.55051,1.48684 -2.42306,1.70934 -2.42306,1.70934 0,0 1.21113,-1.98283 1.81653,-2.53334 0.22761,-0.20644 0.44682,-0.35201 0.60347,-0.37377 z m -35.800601,0.04 -0.10722,3.52579 c 0,0 -1.87318,-0.77295 -2.9192995,-1.70928 -1.04613,-0.93634 -0.71618,-1.09867 -0.22056,-1.21001 0.49562,-0.1098 2.4220995,-0.6065 3.2470795,-0.6065 z"
     id="path2-06"
     sodipodi:nodetypes="sccccscsscssssccccccsscccccccccscccccscscccsccscccscccssccccsccccccccccscsccccsscccscccccssscccscccccssscsssccsscscccccssscccccscccsscccsssccscsccccccc"
     style="fill:#000000;stroke:none;stroke-width:2.66666" />
</svg>
