<svg xmlns="http://www.w3.org/2000/svg" width="192" height="192" fill="none"><path stroke="#000" stroke-linecap="round" stroke-linejoin="round" stroke-width="12" d="m74.34 108.884 4.853 28.693a6 6 0 0 0 6.253 4.99l29.066-1.638a6 6 0 0 0 5.628-6.635l-3.612-33.41a6 6 0 0 0-7.197-5.228l-30.306 6.355a6 6 0 0 0-4.684 6.873Z"/><path stroke="#000" stroke-linecap="round" stroke-linejoin="round" stroke-width="12" d="M108.718 28.645A6 6 0 0 1 114.684 22h24.356a6 6 0 0 1 6 5.96l.919 135.999a6 6 0 0 1-6 6.041H57.525a6 6 0 0 1-5.98-5.507l-7.064-85.655a6 6 0 0 1 5.344-6.46l56.921-6.07a6 6 0 0 0 5.329-6.612z"/></svg>