<?xml version="1.0" encoding="UTF-8" standalone="no"?>
<svg
   id="Layer_1"
   width="192"
   height="192"
   viewBox="0 0 192 192"
   version="1.1"
   xml:space="preserve"
   xmlns="http://www.w3.org/2000/svg"
   xmlns:svg="http://www.w3.org/2000/svg"><defs
     id="defs4"><style
       id="style2">.cls-1,.cls-2,.cls-3{fill:none;}.cls-2{stroke-linecap:round;stroke-linejoin:round;}.cls-2,.cls-3{stroke:#000;stroke-width:8px;}.cls-3{stroke-miterlimit:10;}</style></defs><path
     id="path1916"
     style="display:inline;fill:none;stroke:#000000;stroke-width:8;stroke-linejoin:round;stroke-dasharray:none;stroke-opacity:1"
     d="m 94.88276,20.012284 c -6.020705,0.126603 -12.260265,1.730932 -16.879168,5.766036 -3.429518,2.982011 -5.806012,7.105181 -6.892344,11.499735 -0.546287,3.314025 -0.403937,6.693652 -0.51581,10.040251 -0.05687,3.423704 -0.108574,6.847493 -0.163318,10.271233 -2.057031,0.623008 -4.115035,1.2428 -6.172792,1.863401 0.07518,12.407174 0.147677,24.814365 0.220312,37.221552 6.14276,2.148448 12.283333,4.365728 18.654461,5.752288 4.100111,0.9575 8.289519,1.63721 12.512678,1.5356 10.155681,-0.16403 20.135811,-2.56861 29.721681,-5.79144 0.93724,-0.30289 1.8745,-0.60565 2.8118,-0.90832 V 59.426668 c -2.45823,-0.614741 -4.91534,-1.233854 -7.3734,-1.849256 -0.0535,-5.949963 0.14577,-11.909658 -0.2245,-17.851768 -0.33922,-4.215078 -2.16643,-8.249786 -4.82652,-11.507926 -3.93712,-4.767854 -9.97066,-7.401257 -16.038756,-8.013301 -1.60373,-0.18362 -3.221304,-0.229999 -4.834324,-0.192133 z m 1.09752,11.546219 c 3.599034,-0.01141 7.56382,0.536593 10.23556,3.18383 1.353,1.393198 2.41255,3.143383 2.86678,5.037089 0.33021,3.205956 0.15349,6.440951 0.20767,9.65925 5.7e-4,1.87957 0.001,3.75914 0.002,5.638711 -7.38595,-0.964194 -14.887196,-1.181463 -22.307716,-0.493568 -1.669554,0.17038 -3.339001,0.341069 -5.00496,0.544094 0.105995,-4.946922 0.03559,-9.901045 0.303095,-14.84247 0.126722,-1.891793 1.187278,-3.590084 2.363715,-5.020168 2.420425,-2.740553 6.248707,-3.483888 9.735216,-3.660597 0.532275,-0.03311 1.065758,-0.04075 1.598932,-0.04617 z m -3.67457,83.493337 c -5.523977,0.0804 -11.047988,0.15858 -16.571944,0.24051 -0.07184,18.89608 -0.14271,37.79216 -0.216269,56.68823 h 18.870065 c 0.05084,-5.66432 0.102689,-11.32863 0.155634,-16.99293 3.221789,5.59611 6.449384,11.18885 9.671514,16.78477 6.01251,0.0333 15.05623,0.25297 21.06724,0.0848 1.86424,-0.93864 -1.3893,-0.0853 0.0552,0.008 8.29888,-0.0415 16.83104,0.21884 25.12756,-0.0146 2.43039,-0.0514 4.87382,-0.37847 7.12906,-1.327 4.4438,-1.66591 8.19919,-5.19688 9.85545,-9.67645 1.82674,-4.61959 1.72495,-10.03854 -0.65188,-14.44503 -1.14152,-2.17013 -2.79687,-4.07156 -4.80821,-5.47727 2.59534,-2.27317 3.53383,-5.82184 3.60411,-9.15772 0.0852,-2.63042 0.0318,-5.40971 -1.35172,-7.74201 -2.90105,-5.41607 -9.03443,-8.63064 -15.08419,-8.71887 -8.23712,-0.36968 -16.4858,-0.19265 -24.72844,-0.23862 v 54.43276 c -2.52258,-4.6123 -5.29988,-9.08143 -7.9362,-13.6291 -2.84169,-4.81788 -5.71047,-9.61969 -8.50437,-14.46544 4.70504,-7.47408 9.56743,-14.85837 14.17181,-22.39999 1.74044,-2.09022 4.76747,-3.98807 2.59563,-3.93869 -5.93922,-0.10851 -16.07123,0.0423 -21.84271,4.6e-4 -2.79528,4.78602 -5.585715,9.57488 -8.379951,14.36153 -0.04854,-4.80268 -0.09869,-9.60536 -0.149569,-14.40802 -0.72376,0.0107 -1.458555,0.0214 -2.07781,0.0304 z m -55.670331,0.10711 c -4.301145,0.041 -8.602306,0.0808 -12.903438,0.12329 -0.07177,18.89945 -0.142723,37.7989 -0.21627,56.69834 7.53632,-0.0359 15.074995,0.0834 22.609683,-0.0899 3.377818,-0.0741 6.817144,-0.50062 9.887628,-1.99826 3.072935,-1.37434 6.133858,-2.9408 8.523252,-5.36543 3.144528,-2.94029 5.887112,-6.41046 7.412593,-10.47371 1.781707,-4.33832 2.073999,-9.13832 1.792893,-13.77292 -0.598595,-8.92174 -6.120902,-17.24346 -13.95853,-21.48562 -3.193558,-1.77101 -6.691181,-3.07 -10.354783,-3.35422 -4.250573,-0.40336 -8.529176,-0.28632 -12.793028,-0.28156 z m 110.839391,16.88784 c 0.8824,1.2241 0.62973,3.11237 -0.69455,3.9245 -1.08765,0.41786 -1.2335,0.28968 -3.4651,0.23421 v -4.96713 c 1.46834,0.0836 3.30569,0.0323 4.15965,0.80842 z m -104.941485,0.49516 c 3.318504,0.32692 6.842447,0.92064 9.450484,3.17082 1.772208,1.50318 2.942977,3.73281 2.926442,6.08213 0.05139,2.16453 0.125381,4.4113 -0.556768,6.49185 -1.254103,3.2815 -4.664743,5.08547 -7.931166,5.78713 -1.317786,0.28842 -2.659655,0.47652 -4.006222,0.55807 v -22.10213 l 0.102937,0.0107 z m 105.815675,17.42896 c 1.10108,0.89484 1.05994,2.56071 0.67609,3.80007 -1.26119,2.02454 -3.77708,1.6533 -5.70993,1.6532 v -6.33799 c 1.73953,0.0789 4.03114,-0.0815 5.03384,0.88472 z" /><circle
     style="fill:#000000;fill-opacity:1;stroke:#000000;stroke-width:0;stroke-linecap:square;stroke-linejoin:miter;stroke-dasharray:none;stroke-opacity:1"
     id="path1986"
     cx="95.966576"
     cy="71.820869"
     r="8.499999" /><path
     style="fill:#000000;fill-opacity:1;stroke:#000000;stroke-width:12;stroke-linecap:round;stroke-linejoin:miter;stroke-dasharray:none;stroke-opacity:1"
     d="M 96.090034,86.234646 96.336419,73.422641"
     id="path1988" /></svg>
