<svg width="192" height="192" viewBox="0 0 192 192" fill="none" xmlns="http://www.w3.org/2000/svg">
<path d="M171.264 121.565C171.816 123.802 170.81 126.119 168.793 127.235C160.966 131.565 147.75 135.572 128.606 130.782C126.5 130.23 124.486 129.678 122.563 129.126C118.219 127.23 113.857 125.298 109.739 123.406C104.082 120.807 106.192 114.436 112.411 114.719C125.56 115.318 142.065 114.803 163.132 111.616C165.511 111.256 167.888 112.33 168.862 114.53C169.654 116.32 170.561 118.721 171.264 121.565ZM23.923 132.951C23.4218 131.483 21.4732 129.651 20.0131 130.174L19.8828 130.22C17.9986 130.895 17.354 133.242 18.6037 134.805C20.9612 137.754 24.1823 141.942 24.9718 143.755V143.755C25.9821 146.511 29.2335 147.779 31.9356 146.632C40.7911 142.874 60.6683 136.113 86.4014 137.591V137.591C88.7625 137.727 90.4793 133.435 88.4358 132.245C86.5335 131.136 84.9599 130.291 84.2042 130.046C70.898 126.769 58.1855 125.623 50.3123 125.296C49.7162 125.271 49.1214 125.339 48.5466 125.499C39.5499 128.001 31.5308 131.558 27.451 133.508C25.9382 134.231 24.4649 134.537 23.923 132.951V132.951Z" fill="black"/>
<path d="M127.422 133.593L127.439 133.598L127.456 133.602C150.301 139.411 165.285 132.966 173.025 127.611C173.041 127.603 173.102 127.577 173.226 127.572C173.385 127.566 173.578 127.6 173.758 127.676C173.868 127.723 173.941 127.772 173.985 127.808C174.054 132.829 173.873 136.798 173.653 139.694C173.581 140.637 173.083 141.843 172.214 142.872C171.336 143.911 170.379 144.425 169.667 144.516C163.828 145.266 155.29 145.095 146.768 144.341C138.259 143.587 130.053 142.279 124.908 140.862C124.777 140.826 124.644 140.777 124.488 140.702C121.032 139.042 117.541 137.259 114.036 135.469C108.64 132.713 103.21 129.94 97.8181 127.571C88.7534 123.589 79.2409 120.471 68.6449 119.795L68.6363 119.794C62.1042 119.396 55.1114 120.491 48.6196 122.316C40.7695 124.458 33.6032 127.44 28.9416 129.579C27.6172 130.187 26.0962 129.49 25.6751 128.259C25.2943 127.093 24.9127 125.994 24.4947 124.947C23.9492 123.58 23.9064 122.06 24.2791 120.908C24.6299 119.823 25.255 119.245 26.0904 119.048C36.0456 116.703 49.6429 115.381 63.2566 115.011C63.4015 115.007 63.5539 115.015 63.7005 115.033C76.6248 116.69 85.9604 119.39 94.5524 122.416C97.4124 123.423 100.244 124.489 103.124 125.573C108.803 127.709 114.672 129.918 121.33 131.896L121.337 131.898L121.344 131.9C123.281 132.465 125.307 133.03 127.422 133.593Z" stroke="black" stroke-width="6"/>
<path d="M69.8513 74.0276C61.5387 74.0276 56.7886 85.6228 56.7886 93.8398C56.7886 97.2179 57.6108 98.6788 59.3464 98.6788C64.0051 98.6788 71.9523 85.1663 73.5966 76.7666V76.7666C73.8504 75.549 73.089 74.3173 71.8557 74.1564C71.252 74.0777 70.5934 74.0276 69.8513 74.0276ZM80.6396 104.018C80.1044 106.852 77.6282 108.904 74.7438 108.904H72.9592C70.1416 108.904 68.0152 106.365 68.8015 103.66C69.3234 101.864 69.9831 99.8862 70.811 97.6156C70.8327 97.5559 70.7888 97.4918 70.7253 97.4918V97.4918C70.6931 97.4918 70.6634 97.5086 70.6468 97.5362C66.8119 103.911 61.4315 110 54.5963 110C47.5625 110 44 105.435 44 95.9397C44 79.2318 52.678 63.9846 72.0437 63.9846V63.9846C74.1936 63.9846 76.2126 62.6737 76.6308 60.5649L77.888 54.2249C77.8893 54.2186 77.8899 54.2122 77.8899 54.2058V54.2058C77.8899 54.1584 77.8569 54.1178 77.8104 54.1091C76.9509 53.9478 75.8987 53.787 74.7641 53.6424C72.4638 53.3492 70.8221 51.1875 71.2963 48.9176L71.4603 48.1326C71.8623 46.2083 73.4608 44.7581 75.4187 44.5826C78.4869 44.3076 81.6393 44.1008 84.9857 44.0283C88.6548 43.9487 91.3446 47.3261 90.6637 50.9324L80.6396 104.018ZM153.334 103.908C152.865 106.789 150.377 108.904 147.459 108.904V108.904C143.791 108.904 140.996 105.619 141.583 101.999L144.848 81.8795C145.761 77.497 145.122 75.7623 143.112 75.7623C139.001 75.7623 131.694 86.5358 129.958 97.1266L128.852 103.918C128.384 106.793 125.9 108.904 122.988 108.904V108.904C119.319 108.904 116.527 105.612 117.127 101.992L120.458 81.8795C121.371 77.497 120.732 75.7623 118.722 75.7623C114.612 75.7623 107.486 86.4445 105.477 96.8527L104.106 104.088C103.576 106.882 101.135 108.904 98.2908 108.904V108.904C94.577 108.904 91.7808 105.524 92.4774 101.876L97.6157 74.9682C97.6192 74.9499 97.6209 74.9312 97.6209 74.9125V74.9125C97.6209 74.7699 97.5202 74.6474 97.3799 74.6218C96.5515 74.4706 95.5596 74.3206 94.4951 74.185C92.1949 73.8918 90.5532 71.7301 91.0274 69.4602L91.1956 68.6551C91.5958 66.7391 93.1786 65.2881 95.1272 65.1033C98.6161 64.7726 102.046 64.5683 105.587 64.537C108.397 64.5121 110.425 67.1315 109.638 69.8299C109.058 71.8213 108.378 73.8789 107.623 75.9137C107.601 75.9731 107.645 76.0362 107.709 76.0362V76.0362C107.741 76.0362 107.771 76.019 107.787 75.9912C111.799 69.1659 116.09 63.9846 123.838 63.9846C129.044 63.9846 132.516 66.7236 132.516 72.7494C132.516 73.8375 132.245 74.9255 131.794 76.7289C131.789 76.7521 131.795 76.777 131.812 76.7939V76.7939C131.844 76.8259 131.898 76.818 131.92 76.7783C135.932 69.5141 140.948 64.0759 148.684 64.0759C157.271 64.0759 159.098 70.2843 157.454 78.5927L153.334 103.908Z" fill="black"/>
</svg>
