<?xml version="1.0" encoding="utf-8"?>
	<svg version="1.1" xmlns="http://www.w3.org/2000/svg" xmlns:xlink="http://www.w3.org/1999/xlink" x="0px" y="0px" width="240.0" height="240.0" xml:space="preserve">
		<path d="M173.24,3.735C175.364,7.016 177.64,10.196 179.586,13.595C185.841,24.528 190.074,36.158 191.601,48.696C193.496,64.241 190.646,78.998 184.073,93.128C180.789,100.189 176.673,106.69 171.483,112.506C165.614,118.688 158.624,123.264 150.975,126.923C143.991,130.264 136.684,132.836 129.605,135.933C117.745,141.12 106.548,147.489 96.562,155.824C92.214,158.775 88.333,162.306 84.49,165.85C80.845,169.212 77.409,172.802 74.223,176.62C68.87,183.032 64.245,189.886 61.197,197.72C57.65,206.841 56.817,216.104 59.555,225.605C59.974,227.063 60.861,228.392 60.807,229.985C53.711,225.576 50.175,218.857 48.442,210.957C47.204,205.32 46.906,199.614 47.024,193.859C47.104,189.858 47.463,185.857 48.249,181.976C49.937,173.658 52.222,165.48 55.462,157.604C55.77,156.861 55.97,156.074 56.223,155.305C59.659,147.696 63.189,140.121 67.561,133C73.118,123.947 78.832,114.997 85.4,106.61C88.468,102.692 91.456,98.708 94.665,94.905C97.28,91.805 99.935,88.734 102.627,85.697C104.855,83.185 107.206,80.783 109.355,78.197C110.478,76.845 111.933,75.771 113.087,74.442C116.939,70.002 121.132,65.886 125.403,61.868C129.436,58.073 133.443,54.261 137.341,50.332C138.079,49.588 138.75,48.779 139.451,47.998C141.741,45.914 143.535,43.394 145.567,41.081C148.604,37.619 151.339,33.928 153.937,30.142C160.094,21.158 164.985,11.494 169.035,1.396C169.767,-0.427 169.781,-0.418 171.067,1.152C171.46,1.631 171.865,2.096 172.267,2.567C172.416,2.759 172.565,2.949 172.715,3.138C172.715,3.138 172.712,3.135 172.715,3.135C172.809,3.239 172.904,3.342 172.999,3.448L172.976,3.428C173.005,3.603 173.085,3.726 173.28,3.738L173.24,3.735Z" fill="#000" stroke="" stroke-width="" stroke-miterlimit=""/>
		<path d="M60.809,229.988C60.863,228.397 59.976,227.066 59.557,225.608C56.819,216.107 57.649,206.844 61.199,197.722C64.247,189.886 68.869,183.035 74.225,176.623C77.411,172.805 80.846,169.214 84.492,165.853C88.335,162.308 92.216,158.778 96.564,155.827C98.608,155.595 100.089,154.231 101.696,153.175C105.284,150.822 108.772,148.316 112.354,145.956C115.715,143.74 119.478,142.297 123.112,140.618C127.225,138.72 131.41,136.969 135.601,135.247C141.74,132.724 148.164,131.011 154.433,128.858C160.472,126.783 166.078,123.803 171.339,120.23C176.029,117.044 180.544,113.599 185.128,110.261C185.604,109.914 186.078,109.621 186.692,109.664C186.919,111.825 187.309,113.972 187.677,116.105C188.374,120.129 188.569,124.162 188.463,128.215C188.216,137.782 186.368,147.018 181.999,155.58C173.598,172.047 160.776,182.958 142.288,186.54C142.194,186.557 142.105,186.591 142.013,186.614C136.327,187.897 130.543,188.638 124.817,189.711C115.795,191.405 107.121,194.069 98.941,198.314C90.169,202.863 82.549,208.948 75.333,215.604C74.994,215.917 74.517,216.19 74.463,216.971C74.83,216.727 75.028,216.609 75.209,216.471C80.89,212.077 86.903,208.202 93.275,204.89C98.025,202.418 102.948,200.355 107.98,198.497C115.813,195.604 123.867,193.644 132.084,192.329C137.966,191.388 143.861,190.515 149.789,189.907C154.149,189.459 158.488,188.773 162.889,188.85C162.117,190.725 161.431,192.636 160.558,194.462C158.626,198.509 156.321,202.329 153.356,205.722C153.043,206.078 152.762,206.463 152.464,206.833C145.747,214.086 136.74,216.661 127.607,218.905C120.79,220.582 113.789,220.59 106.831,220.929C106.211,220.958 105.594,221.004 104.974,221.041C102.136,221.342 99.285,221.563 96.458,221.959C85.387,223.518 74.736,226.69 64.265,230.522C63.794,230.694 63.203,230.788 63.162,231.48C62.382,230.975 61.449,230.711 60.809,229.988Z" fill="#000" stroke="" stroke-width="" stroke-miterlimit=""/>
		<path d="M63.16,231.483C63.2,230.788 63.792,230.697 64.262,230.524C74.733,226.693 85.382,223.521 96.456,221.962C99.283,221.563 102.133,221.345 104.972,221.044C105.753,221.833 106.809,221.669 107.759,221.799C114.125,222.665 120.515,222.456 126.904,222.086C127.332,222.06 127.762,222.074 128.193,222.071L128.259,222.137C122.326,228.865 115.142,233.756 106.743,236.902C100.431,239.265 93.919,240.364 87.205,239.893C78.445,239.273 70.402,236.495 63.16,231.483Z" fill="#000" stroke="" stroke-width="" stroke-miterlimit=""/>
		<path d="M162.891,188.85C158.49,188.773 154.151,189.459 149.791,189.907C143.86,190.515 137.965,191.388 132.086,192.329C123.872,193.644 115.815,195.604 107.982,198.497C102.95,200.355 98.03,202.421 93.277,204.89C86.905,208.202 80.892,212.077 75.211,216.471C75.03,216.612 74.832,216.727 74.465,216.971C74.517,216.19 74.996,215.917 75.335,215.604C82.55,208.948 90.171,202.863 98.943,198.314C107.123,194.069 115.8,191.405 124.819,189.711C130.545,188.638 136.329,187.894 142.015,186.614C142.552,186.896 143.134,186.804 143.7,186.804C147.701,186.812 151.705,186.778 155.706,186.827C157.75,186.853 159.794,186.99 161.831,187.145C162.853,187.229 163.709,187.556 162.891,188.85Z" fill="#000" stroke="" stroke-width="" stroke-miterlimit=""/>
		<path d="M186.69,109.664C186.076,109.621 185.603,109.914 185.126,110.261C180.542,113.602 176.027,117.047 171.337,120.23C166.076,123.803 160.47,126.783 154.431,128.858C148.162,131.011 141.741,132.724 135.599,135.247C131.408,136.969 127.223,138.72 123.11,140.618C119.476,142.294 115.713,143.74 112.352,145.956C108.77,148.319 105.283,150.822 101.695,153.175C100.087,154.229 98.609,155.595 96.563,155.827C106.548,147.489 117.745,141.123 129.606,135.936C136.687,132.839 143.992,130.27 150.975,126.926C158.622,123.266 165.614,118.688 171.483,112.509C174.136,111.886 176.624,110.769 179.219,109.965C180.95,109.432 182.66,108.823 184.38,108.255C186.208,107.649 186.34,107.732 186.69,109.664Z" fill="#000" stroke="" stroke-width="" stroke-miterlimit=""/>
	</svg>
