<svg xmlns="http://www.w3.org/2000/svg" width="192" height="192" fill="none" viewBox="0 0 192 192"><path stroke="#000" stroke-linecap="round" stroke-linejoin="round" stroke-width="12" d="m72 125 16.695-55.72c.953-3.183 4.284-4.983 7.44-4.02l17.14 5.226a17.94 17.94 0 0 1 10.602 8.76 18.2 18.2 0 0 1 1.357 13.76 18.03 18.03 0 0 1-8.684 10.696 17.76 17.76 0 0 1-13.637 1.368L80.06 98.101"/><path stroke="#000" stroke-linecap="round" stroke-linejoin="round" stroke-width="12" d="M106 170H86c-35.2 0-64-28.8-64-64V86c0-35.2 28.8-64 64-64h20c35.2 0 64 28.8 64 64v20c0 35.2-28.8 64-64 64"/></svg>