<svg width="192" height="192" viewBox="0 0 192 192" fill="none" xmlns="http://www.w3.org/2000/svg"><path d="m72 125 16.695-55.72c.953-3.183 4.284-4.983 7.44-4.02l17.14 5.226a17.938 17.938 0 0 1 10.602 8.76 18.208 18.208 0 0 1 1.357 13.76 18.033 18.033 0 0 1-8.684 10.696 17.764 17.764 0 0 1-13.637 1.368L80.06 98.101" stroke="#000" stroke-width="12" stroke-linecap="round" stroke-linejoin="round"/><path d="M106 170H86c-35.2 0-64-28.8-64-64V86c0-35.2 28.8-64 64-64h20c35.2 0 64 28.8 64 64v20c0 35.2-28.8 64-64 64Z" stroke="#000" stroke-width="12" stroke-linecap="round" stroke-linejoin="round"/></svg>