<svg width="192" height="192" viewBox="0 0 192 192" fill="none" xmlns="http://www.w3.org/2000/svg"><path d="m99 78 44-44M67 46l24-24m-8 40 32-32" stroke="#000" stroke-width="12" stroke-linecap="round" stroke-linejoin="round"/><circle cx="51" cy="27" r="4" stroke="#000" stroke-width="8" stroke-linecap="round" stroke-linejoin="round"/><path d="m113 100 44 44m-12-76 24 24m-40-8 32 32" stroke="#000" stroke-width="12" stroke-linecap="round" stroke-linejoin="round"/><circle cx="164" cy="52" r="4" transform="rotate(90 164 52)" stroke="#000" stroke-width="8" stroke-linecap="round" stroke-linejoin="round"/><path d="m91 114-44 44m76-12-24 24m8-40-32 32" stroke="#000" stroke-width="12" stroke-linecap="round" stroke-linejoin="round"/><circle cx="139" cy="165" r="4" transform="rotate(180 139 165)" stroke="#000" stroke-width="8" stroke-linecap="round" stroke-linejoin="round"/><path d="M77 92 33 48m12 76-24-24m40 8L29 76" stroke="#000" stroke-width="12" stroke-linecap="round" stroke-linejoin="round"/><circle cx="26" cy="140" r="4" transform="rotate(-90 26 140)" stroke="#000" stroke-width="8" stroke-linecap="round" stroke-linejoin="round"/></svg>