<svg xmlns="http://www.w3.org/2000/svg" width="192" height="192" fill="none" viewBox="0 0 192 192"><path stroke="#000" stroke-linecap="round" stroke-linejoin="round" stroke-width="12" d="M117 128a53 53 0 0 0 37.477-15.523 53.003 53.003 0 0 0 0-74.954A53 53 0 0 0 117 22"/><path stroke="#000" stroke-linecap="round" stroke-linejoin="round" stroke-width="12" d="M22 70a6 6 0 0 1 6-6h76.515a6 6 0 0 1 4.242 1.757l17.486 17.486A6 6 0 0 1 128 87.485V164a6 6 0 0 1-6 6H28a6 6 0 0 1-6-6z"/><path stroke="#000" stroke-linecap="round" stroke-linejoin="round" stroke-width="12" d="M117 22H70a6 6 0 0 0-6 6v94a6 6 0 0 0 6 6h47"/></svg>