<svg xmlns="http://www.w3.org/2000/svg" width="192" height="192" fill="none"><path stroke="#000" stroke-linecap="round" stroke-linejoin="round" stroke-width="12" d="M117 125a49.997 49.997 0 0 0 50-50 50 50 0 0 0-50-50"/><path stroke="#000" stroke-linecap="round" stroke-linejoin="round" stroke-width="12" d="M25 73a6 6 0 0 1 6-6h70.515a6 6 0 0 1 4.242 1.757l17.486 17.486A6 6 0 0 1 125 90.485V161a6 6 0 0 1-6 6H31a6 6 0 0 1-6-6z"/><path stroke="#000" stroke-linecap="round" stroke-linejoin="round" stroke-width="12" d="M117 25H73a6 6 0 0 0-6 6v88a6 6 0 0 0 6 6h44"/></svg>