<svg width="192" height="192" viewBox="0 0 192 192" fill="none" xmlns="http://www.w3.org/2000/svg"><path d="M160 109s-28 23-64 10.203M149 131s-10 41-62 27.203" stroke="#000" stroke-width="10" stroke-linecap="round" stroke-linejoin="round"/><path d="M160 109c-3 30-38 32-38 32" stroke="#000" stroke-width="10" stroke-linecap="round" stroke-linejoin="round"/><ellipse cx="85.366" cy="43.098" rx="1" ry="3" transform="rotate(-30 85.366 43.098)" stroke="#000" stroke-width="6" stroke-linecap="round" stroke-linejoin="round"/><path d="M164 81c0-44-40-30-51-35-8-4-10-10-17-17s-11-7-15-7c-3 0-7 2-11 6 0 0-9.704-6.16-12-2-1.79 3.243 3 9 3 9s-12.855-.691-14 5c-1.23 6.118 13.206 9 13.206 9s-13.371 3.305-12 9c1.213 5.04 11.857 2.266 12.294 5 2.816 17.627 8.11 30.41-3.5 40-14 10-33 1-33 1" stroke="#000" stroke-width="12" stroke-linecap="round" stroke-linejoin="round"/><path d="M50 170s59 0 42.002-74" stroke="#000" stroke-width="12" stroke-linecap="round" stroke-linejoin="round"/><path d="M84 64c24 27.5 67.5 0 79.5 18h.5" stroke="#000" stroke-width="10" stroke-linecap="round" stroke-linejoin="round"/><path d="M84 64c15 19.5 38 12 48 33" stroke="#000" stroke-width="10" stroke-linecap="round" stroke-linejoin="round"/><path d="M132 46c-14 10-13 27-13 27" stroke="#000" stroke-width="8" stroke-linecap="round" stroke-linejoin="round"/></svg>