<svg xmlns="http://www.w3.org/2000/svg" width="192" height="192" fill="none" stroke="#000" stroke-linecap="round" stroke-linejoin="round" stroke-width="8" viewBox="0 0 192 192"><path d="M65 132c18-4 18 10 39 0m-26.804-22.25c.527.532.804 1.136.804 1.75l-8 6.5-4-6.5c0-.614.277-1.218.804-1.75.526-.532 1.284-.974 2.196-1.281a9.5 9.5 0 0 1 6 0c.912.307 1.67.749 2.196 1.281"/><path stroke-width="12" d="M96 170c33.689 0 61-27.311 61-61 0-10.208-2.507-19.83-6.94-28.284C152.139 37.208 144 25 144 25s-12.245 20.991-28.555 26.165A61 61 0 0 0 96 48c-4.022 0-7.954.39-11.758 1.132L64 22s.74 25.897-9.236 42.049C42.615 75.199 35 91.21 35 109c0 33.689 27.31 61 61 61"/><ellipse cx="111" cy="92.5" rx="6" ry="3.5"/><circle cx="70" cy="86" r="4"/></svg>