<svg xmlns="http://www.w3.org/2000/svg" width="192" height="192" fill="none" stroke="#000" stroke-linecap="round" stroke-linejoin="round" stroke-miterlimit="6" viewBox="0 0 192 192"><path stroke-width="10" d="m21 86.175 22.908 21.279c7.107-1.332 11.742-6.093 12.222-11.902.684-10.965-8.393-22.02-19.441-23.492-8.096-.447-14.4 5.07-15.689 14.115M63.914 48.15c-5.224 11.671.03 22.985 5.553 27.76 6.388 5.314 13.762 4.449 18.09-3.67 3.732-9.673.926-20.867-6.269-27.404-5.791-4.896-13.642-3.791-17.374 3.313zm93.956 23.739c-12.034 2.626-18.095 14.23-18.459 21.522-.254 8.305 5.158 13.736 14.031 11.895 9.92-3.014 16.95-11.955 17.546-21.712.293-7.578-4.779-13.33-13.118-11.705m-24.191-16.755c.537-2.746-.045-5.671-1.612-7.97-1.403-1.761-4.821-5.716-11.195-5.284-5.836.792-11.582 6.374-13.881 15.538-1.403 6.508-1.06 12.567 3.045 18.045 2.418 2.926 5.821 4.329 9.672 3.672 5.493-1.329 9.015-4.627 11.105-9.762l-8.956-4.388"/><path stroke-width="12" d="M97.757 97.493c-14.585-1.335-39.469 23.659-36.232 41.13.677 6.44 5.832 10.193 12.778 10.453 7.012.82 14.83-6.231 23.454-6.307 7.825.627 15.56 6.576 20.518 6.307 8.924.366 13.907-4.82 14.681-10.453 2.955-17.381-21.495-42.017-35.199-41.13"/></svg>