<svg xmlns="http://www.w3.org/2000/svg" width="192" height="192" fill="none"><path stroke="#000" stroke-linecap="round" stroke-linejoin="round" stroke-width="12" d="M56 80s-28 49-9 64l-7 26m16-90-1-13c6-17 0-18 7-29s19-16 34-16M56 80c-12 40 24 48 24 48 0 12-9 16-9 16 5 13 3 26 3 26M56 80c18-17 62-20 81-1"/><path stroke="#000" stroke-linecap="round" stroke-linejoin="round" stroke-width="10" d="M84 47v-3"/><path stroke="#000" stroke-linecap="round" stroke-linejoin="round" stroke-width="12" d="M137 93V66c-6-18-1-17-8-28s-23-16-33-16m41 71 5 12 .5 12M137 93c0 29-27 35-27 35 0 14 10 18 10 18l-8 24"/><path stroke="#000" stroke-linecap="round" stroke-linejoin="round" stroke-width="10" d="M150.991 164v-24M139 151.992h24"/></svg>