<svg width="192" height="192" viewBox="0 0 192 192" fill="none" xmlns="http://www.w3.org/2000/svg">
<path d="M166.409 116.897C159.047 103.313 152.716 93.6034 142.168 83.7414C138.776 80.5698 135.562 77.7355 132.217 75.1914C132.216 75.1911 132.216 75.1905 132.217 75.1906V75.1906C132.217 75.1907 132.218 75.1901 132.217 75.1898C132.211 75.1852 132.185 75.1671 132.144 75.1364C132.083 75.0907 132.023 75.0449 131.963 74.9992C130.721 74.0403 125.448 69.6042 127.322 64.7064C128.635 61.2726 133.834 59.0521 137.418 57.8962C138.388 57.5835 138.382 56.2896 137.377 56.1245C134.717 55.6876 130.636 55.2996 125.35 55.6388C116.568 56.2021 108.627 61.0733 106.43 62.2743C106.213 62.393 105.961 62.414 105.723 62.3467C100.793 60.9532 95.184 59.7204 88.6509 58.612C65.4875 54.6821 45.8837 60.9467 36.0466 67.7744C23.1532 76.7233 23.51 85.0618 22.447 89.2327C21.6822 92.2339 13.9044 98.1956 16.5483 101.444C18.1978 103.47 23.6869 100.719 28.115 98.8972C32.7706 96.9823 33.1293 95.9407 45.8527 94.0423C51.4391 93.2088 57.3051 92.9425 61.8158 92.8864C62.2053 92.8816 62.5577 93.1027 62.7303 93.4519C64.6739 97.3864 69.0468 104.575 76.3645 108.111C82.7231 111.184 90.0526 112.352 94.7781 112.795C95.8643 112.896 96.2351 111.401 95.2819 110.87C92.8698 109.527 89.9279 107.635 87.6771 105.384C84.5673 102.275 83.8151 97.5571 83.6528 94.8426C83.652 94.8279 83.6645 94.8163 83.6793 94.8177V94.8177C91.1913 96.2451 97.7529 97.2751 113.445 103.285C119.565 105.629 124.821 108.448 128.767 110.852C129.791 111.476 130.862 110.232 129.974 109.425C125.523 105.375 118.944 100.236 110.637 96.1391C97.2753 89.5487 86.3045 86.2926 71.104 85.5554C57.5945 84.9001 46.9757 86.1881 43.4782 86.6924C42.8449 86.7838 42.3117 86.278 42.4887 85.6632C43.1618 83.3237 45.6904 78.0454 55.1323 73.6163C66.0394 68.4999 83.1983 67.6436 102.891 72.6675C130.713 79.7651 140.202 91.8509 152.169 104.34C159.445 111.933 166.158 122.488 170.578 130.143C171.188 131.2 172.658 130.553 172.207 129.42C170.699 125.632 168.754 121.225 166.409 116.897Z" fill="black"/>
</svg>
