<svg id="Layer_1" data-name="Layer 1" xmlns="http://www.w3.org/2000/svg" viewBox="0 0 192 192"><path d="M125.19,30.49a.37.37,0,0,1,.24.1l41,41a.34.34,0,0,1,0,.48L73.05,165.41a.34.34,0,0,1-.48,0l-41-41a.34.34,0,0,1,0-.48L125,30.59a.37.37,0,0,1,.24-.1m0-12a12.25,12.25,0,0,0-8.72,3.62L23.11,115.47a12.34,12.34,0,0,0,0,17.44l41,41a12.31,12.31,0,0,0,17.44,0l93.36-93.36a12.34,12.34,0,0,0,0-17.44l-41-41a12.23,12.23,0,0,0-8.72-3.62Z"/><circle cx="126.42" cy="69.65" r="9.04"/><circle cx="87.49" cy="124.23" r="9.04"/><circle cx="56.49" cy="124.23" r="9.04"/><rect x="64.27" y="89.36" width="67.89" height="15.61" transform="translate(97.48 -40.99) rotate(45)"/></svg>