<svg width="192" height="192" fill="none" xmlns="http://www.w3.org/2000/svg"><path d="M146 127c0 5.647-1.293 11.238-3.806 16.455-2.513 5.217-6.196 9.958-10.839 13.951-4.643 3.993-10.155 7.16-16.221 9.321C109.068 168.888 102.566 170 96 170c-6.566 0-13.068-1.112-19.134-3.273-6.067-2.161-11.578-5.328-16.221-9.321-4.643-3.993-8.326-8.734-10.839-13.951C47.293 138.238 46 132.647 46 127M96 22S46 72 46 127M96 22s50 50 50 105" stroke="#000" stroke-width="12" stroke-linecap="round" stroke-linejoin="round"/><path d="M48 117s12 13 48 13 48-11 48-11m-96-14s8-13 32-13c26 0 15 13 64 11" stroke="#000" stroke-width="10" stroke-linecap="round" stroke-linejoin="round"/></svg>