<?xml version="1.0" encoding="utf-8"?>
	<svg version="1.1" xmlns="http://www.w3.org/2000/svg" xmlns:xlink="http://www.w3.org/1999/xlink" x="0px" y="0px" width="240.0" height="240.0" xml:space="preserve">
		<path d="M150.952,20.736C164.795,30.622 174.75,43.528 181.216,59.215C181.774,60.57 181.311,61.063 180.252,61.68C165.326,70.359 149.398,76.333 132.421,79.51C131.749,79.636 130.922,79.406 130.368,80.397C131.273,80.397 132.051,80.392 132.829,80.397C156.06,80.572 179.291,80.743 202.522,80.925C208.305,80.97 210.772,83.489 210.774,89.373C210.786,122.957 210.786,156.542 210.792,190.126C210.792,190.94 210.822,191.754 210.838,192.568C210.786,193.036 210.735,193.503 210.684,193.97C209.674,199.44 206.626,202.58 200.843,202.709C199.631,202.736 198.426,203.056 197.218,203.239C160.815,208.762 124.409,214.274 88.009,219.818C81.459,220.815 77.777,217.673 77.25,211.499C76.662,204.6 76.046,197.693 75.117,190.834C73.671,180.162 73.008,169.418 71.851,158.721C69.434,136.366 67.176,113.994 64.851,91.63C64.809,91.225 64.734,90.822 64.706,90.416C64.23,83.492 67.443,79.94 74.293,79.855C74.272,79.056 73.598,79.145 73.133,79.016C65.947,77.018 59.198,73.957 52.974,69.925C49.838,67.894 47.668,65.091 48.44,60.587C50.476,48.721 56.091,39.293 66.245,32.729C71.39,29.402 72.135,29.451 76.881,33.233C85.357,39.987 92.247,48.265 98.965,56.677C100.3,58.349 101.415,59.361 103.778,58.668C105.784,58.08 108.015,58.227 110.094,58.628C111.672,58.932 112.368,58.383 113.136,57.079C121.782,42.377 133.099,30.175 147.319,20.684C148.723,19.747 149.615,19.781 150.952,20.736ZM61.091,82.543C59.141,86.991 59.672,91.405 60.296,95.789L60.421,96.665C60.588,97.833 60.75,98.999 60.862,100.163C62.465,116.787 64.256,133.395 66.015,150.005C67.026,159.56 68.13,169.105 69.17,178.658C70.237,188.451 71.387,198.236 72.27,208.046C72.619,211.918 73.72,215.477 75.265,218.967L73.393,218.902L73.393,218.902C73.046,217.872 72.021,217.823 71.238,217.5C63.271,214.202 55.464,210.516 47.343,207.587C46.614,207.324 46.261,206.69 45.789,206.134C42.963,202.796 42.359,198.75 41.745,194.68L41.618,193.838C41.596,193.697 41.574,193.557 41.552,193.417C40.661,187.746 39.296,182.131 38.744,176.433C38.257,171.412 37.353,166.464 36.71,161.477C35.032,148.467 32.975,135.506 31.064,122.526C30.412,118.094 29.644,113.676 29.108,109.229C28.578,104.831 29.973,101.267 33.95,98.838C41.388,94.292 48.742,89.608 56.172,85.048C57.663,84.133 58.741,82.345 61.091,82.543ZM195.39,90.876C159.852,91.537 124.314,92.204 88.776,92.88C87.556,92.903 86.332,92.989 85.121,93.133C78.876,93.877 76.847,99.597 77.345,103.733C79.052,117.906 80.031,132.148 81.569,146.337C82.725,157.001 83.644,167.692 84.668,178.371C84.64,178.939 84.538,179.515 84.595,180.074C85.342,187.34 86.089,194.605 86.883,201.865C87.525,207.733 89.662,209.31 95.458,208.589C121.627,205.335 147.803,202.128 173.977,198.906C181.974,197.921 189.975,196.963 197.969,195.947C201.006,195.561 202.597,194.105 202.953,191.598C203.655,190.353 203.678,188.996 203.678,187.612C203.674,158.1 203.686,128.587 203.689,99.074C203.689,92.595 201.832,90.757 195.39,90.876ZM198.507,92.864C200.394,93.243 201.17,94.435 201.475,95.92C201.719,97.104 201.793,98.342 201.794,99.556C201.818,128.326 201.829,157.096 201.812,185.866C201.811,187.563 201.552,189.258 201.414,190.955C200.279,193.007 198.458,193.727 196.2,194.005C162.475,198.155 128.756,202.355 95.037,206.549C90.536,207.109 88.384,204.939 88.941,200.109C91.089,202.539 93.822,202.594 96.616,202.274C121.39,199.443 146.161,196.591 170.934,193.753C178.787,192.854 186.641,191.957 194.499,191.1C198.513,190.661 199.538,189.537 199.502,185.453C199.45,179.668 199.417,173.883 199.376,168.098C199.408,158.891 199.457,149.683 199.469,140.476C199.488,127.028 199.434,113.58 199.525,100.132C199.542,97.689 198.94,95.376 198.507,92.864ZM171.654,161.135C171.797,161.635 172.07,162.093 172.349,162.549L172.558,162.891C173.038,163.69 173.445,164.514 173.122,165.579C168.497,167.414 164.595,170.445 161.104,173.809C158.347,176.466 156.35,176.536 153.044,174.684C147.306,171.467 141.132,169.045 134.549,167.948C136.074,161.381 136.071,161.392 142.571,163.557C146.734,164.944 150.847,166.471 154.741,168.495C156.129,169.216 157.027,169.017 158.171,168.049C161.584,165.16 165.25,162.614 169.115,160.347C170.377,159.607 171.213,159.604 171.654,161.135ZM133.986,122.878C133.922,123.263 134.038,123.678 134.071,124.079C134.042,129.851 133.952,135.623 134.024,141.393C134.046,143.083 133.756,143.889 131.831,143.853C129.237,143.805 126.625,143.971 124.042,144.25C122.243,144.443 121.859,143.771 121.871,142.11C121.918,136.096 121.829,130.081 121.791,124.067C121.834,123.587 121.972,123.093 121.904,122.629C121.646,120.87 122.474,120.43 124.092,120.465C126.511,120.516 128.95,120.503 131.352,120.25C133.522,120.02 134.346,120.736 133.986,122.878ZM177.528,122.148C177.477,122.452 177.589,122.783 177.625,123.102C177.593,128.46 177.465,133.821 177.58,139.176C177.621,141.05 176.975,141.582 175.255,141.566C173.228,141.548 171.183,141.594 169.174,141.842C167.349,142.067 166.786,141.544 166.818,139.657C166.912,134.138 166.796,128.616 166.762,123.096C167.026,119.662 167.026,119.664 170.592,119.625C172.041,119.608 173.51,119.73 174.932,119.523C177.129,119.205 177.879,120.053 177.528,122.148ZM69.554,42.891C64.019,47.287 60.807,53.044 59.278,59.85C59.055,60.842 59.225,61.506 60.152,62.094C67.838,66.965 76.391,69.476 85.499,71.482C86.13,71.786 86.502,71.165 86.856,70.453C87.842,68.47 89.095,66.659 90.711,65.149C91.545,64.37 91.545,63.832 90.842,62.936C85.269,55.831 78.974,49.393 72.61,43.014C71.541,41.943 70.741,41.949 69.554,42.891ZM147.349,33.332C137.078,41.127 128.998,50.82 122.344,61.78C122.091,62.195 121.804,62.619 121.684,63.079C121.554,63.581 127.306,69.786 127.83,69.8C128.154,69.76 128.48,69.733 128.8,69.677C141.874,67.38 154.327,63.224 166.284,57.455C168.384,56.441 168.405,55.728 167.306,54.003C162.535,46.509 157.228,39.475 150.597,33.494C149.425,32.438 148.679,32.323 147.349,33.332Z" fill="#000" stroke="#00000000" stroke-width="1.0" stroke-miterlimit=""/>
	</svg>
