<svg width="24" height="24" xmlns="http://www.w3.org/2000/svg">
  <path fill="#000" d="M17.38 3c-1.301 0-2.375 1.074-2.375 2.375S16.079 7.75 17.38 7.75s2.375-1.074 2.375-2.375S18.681 3 17.38 3zm-10.72.935c-.519.02-1.04.143-1.537.378l-.52.244A4.04 4.04 0 0 0 2.665 9.89l4.352 9.422a2.236 2.236 0 0 0 2.947 1.092l4.674-2.141 1.612 3.469a.625.625 0 0 0 .83.302.625.625 0 0 0 .302-.83l-1.607-3.463 4.662-2.135a2.205 2.205 0 0 0 1.068-2.94L19.63 8.73a.625.625 0 0 0-.834-.295.625.625 0 0 0-.295.834l1.877 3.934a.938.938 0 0 1-.46 1.268l-4.67 2.14-4.816-10.37A3.997 3.997 0 0 0 6.66 3.938zm10.72.815c.355 0 .625.27.625.625S17.735 6 17.38 6s-.625-.27-.625-.625.27-.625.625-.625zm-10.66.432a2.716 2.716 0 0 1 2.582 1.582l4.814 10.37L9.45 19.27a.968.968 0 0 1-1.293-.479L3.805 9.368A2.769 2.769 0 0 1 5.141 5.69l.52-.244a2.738 2.738 0 0 1 1.059-.262z"/>
</svg>
