<svg xmlns="http://www.w3.org/2000/svg" width="192" height="192" fill="none"><path stroke="#000" stroke-linecap="round" stroke-linejoin="round" stroke-width="12" d="M45.087 129.719c-25.286-21.216-32.906-51.11 0-51.11M100.74 22H28a6 6 0 0 0-6 6v14c0 8.284 6.716 15 15 15h60.792C118.076 57 135 73.784 135 94v4c0 20.215-16.923 36.565-37.208 36.565a5.38 5.38 0 0 0-5.775 5.363V164a6 6 0 0 0 6 6h2.723c38.251 0 69.26-30.879 69.26-69v-9.977C170 52.904 138.991 22 100.74 22M22 121.075V164a6 6 0 0 0 6 6h34.173a6 6 0 0 0 6-6v-42.925L49.146 103.59a6 6 0 0 0-8.12 0z"/></svg>