<svg width="192" height="192" fill="none" xmlns="http://www.w3.org/2000/svg"><path d="M47 128c-24.095-20.286-33.109-48.87-1.752-48.87M100.034 25H31a6 6 0 0 0-6 6v12.81c0 8.284 6.716 15 15 15h57.224c19.33 0 35 15.67 35 35v3.415c0 19.329-15.67 34.999-35 34.999a5.504 5.504 0 0 0-5.503 5.504v22.306a6 6 0 0 0 6 6h2.313c36.451 0 66-29.549 66-66V91c0-36.45-29.549-66-66-66ZM25 119.735v40.782a6 6 0 0 0 6 6h32a6 6 0 0 0 6-6v-40.782l-17.933-16.536a6.001 6.001 0 0 0-8.134 0L25 119.735Z" stroke="#000" stroke-width="12" stroke-linecap="round" stroke-linejoin="round"/></svg>