<?xml version="1.0" encoding="utf-8"?>
	<svg version="1.1" xmlns="http://www.w3.org/2000/svg" xmlns:xlink="http://www.w3.org/1999/xlink" x="0px" y="0px" width="240.0" height="240.0" xml:space="preserve">
		<path d="M203.426,102.793C187.02,102.793 171.063,97.461 157.938,87.598L157.938,156.406C157.938,191.543 130.867,220 97.469,220C64.07,220 37,191.543 37,156.406C37,121.27 64.07,92.813 97.469,92.813C100.809,92.813 104.051,93.105 107.215,93.652L107.215,130.098C104.188,128.906 100.965,128.301 97.723,128.301C82.82,128.301 70.73,140.996 70.73,156.68C70.73,172.344 82.82,185.059 97.723,185.059C112.605,185.059 124.695,172.344 124.695,156.68L124.695,20L158.426,20C158.426,46.27 178.68,67.559 203.66,67.559L203.66,102.773L203.426,102.793" fill="#000" stroke="#00000000" stroke-width="1.0" stroke-miterlimit=""/>
	</svg>
