<svg width="192" height="192" fill="none" xmlns="http://www.w3.org/2000/svg"><path d="M25 138s83.858-34.7 141.801-47.32M25 138v23a5.993 5.993 0 0 0 2.62 4.958M25 138V31a6 6 0 0 1 6-6h65a71.001 71.001 0 0 1 70.801 65.68m0 0a70.979 70.979 0 0 1-4.621 31.034m0 0A71.003 71.003 0 0 1 96 167H31a5.968 5.968 0 0 1-3.38-1.042m134.56-44.244c-51.485 11.873-120.372 38.638-134.56 44.244" stroke="#000" stroke-width="12" stroke-linecap="round" stroke-linejoin="round"/><path d="M102.314 107.314A16 16 0 0 1 91 112h-4a6 6 0 0 1-6-6V86a6 6 0 0 1 6-6h4a16.001 16.001 0 0 1 11.314 27.314Z" stroke="#000" stroke-width="12" stroke-linecap="round" stroke-linejoin="round"/></svg>