<svg xmlns="http://www.w3.org/2000/svg" width="192" height="192" fill="none" viewBox="0 0 192 192"><path stroke="#000" stroke-linecap="round" stroke-linejoin="round" stroke-width="8" d="M96 106c1 0 2 1 2 4s-2 8-2 8-2-5-2-8 1-4 2-4m25.456 10.544c.707.707.707 2.122-1.414 4.243s-7.071 4.242-7.071 4.242 2.121-4.949 4.242-7.071 3.536-2.121 4.243-1.414M132 141c0 1-1 2-4 2s-8-2-8-2 5-2 8-2 4 1 4 2m-72 0c0 1 1 2 4 2s8-2 8-2-5-2-8-2-4 1-4 2m10.544-24.456c-.707.707-.707 2.121 1.414 4.243 2.122 2.121 7.071 4.242 7.071 4.242s-2.12-4.949-4.242-7.071-3.536-2.121-4.243-1.414"/><path stroke="#000" stroke-linecap="round" stroke-linejoin="round" stroke-width="10" d="M111 25v30m24-30v30m0 0-12-8-12 8"/><rect width="142" height="142" x="25" y="25" stroke="#000" stroke-linecap="round" stroke-linejoin="round" stroke-width="12" rx="24"/><path stroke="#000" stroke-linecap="round" stroke-linejoin="round" stroke-width="10" d="M25 121s23-39 71-39 71 39 71 39"/></svg>