<?xml version="1.0" encoding="UTF-8" standalone="no"?>
<svg
   version="1.1"
   viewBox="0 0 24 24"
   xml:space="preserve"
   id="svg147"
   sodipodi:docname="drastic.svg"
   width="24"
   height="24"
   inkscape:version="1.1.1 (3bf5ae0d25, 2021-09-20)"
   xmlns:inkscape="http://www.inkscape.org/namespaces/inkscape"
   xmlns:sodipodi="http://sodipodi.sourceforge.net/DTD/sodipodi-0.dtd"
   xmlns:xlink="http://www.w3.org/1999/xlink"
   xmlns="http://www.w3.org/2000/svg"
   xmlns:svg="http://www.w3.org/2000/svg"
   xmlns:rdf="http://www.w3.org/1999/02/22-rdf-syntax-ns#"
   xmlns:cc="http://creativecommons.org/ns#"
   xmlns:dc="http://purl.org/dc/elements/1.1/"><sodipodi:namedview
     id="namedview149"
     pagecolor="#ffffff"
     bordercolor="#666666"
     borderopacity="1.0"
     inkscape:pageshadow="2"
     inkscape:pageopacity="0.0"
     inkscape:pagecheckerboard="0"
     showgrid="false"
     showguides="false"
     inkscape:zoom="5.12"
     inkscape:cx="-40.917969"
     inkscape:cy="58.496094"
     inkscape:window-width="1920"
     inkscape:window-height="1009"
     inkscape:window-x="-8"
     inkscape:window-y="-8"
     inkscape:window-maximized="1"
     inkscape:current-layer="svg147" /><metadata
     id="metadata2"><rdf:RDF><cc:Work
         rdf:about=""><dc:format>image/svg+xml</dc:format><dc:type
           rdf:resource="http://purl.org/dc/dcmitype/StillImage" /></cc:Work></rdf:RDF></metadata><defs
     id="defs91"><linearGradient
       id="linearGradient7230"><stop
         stop-color="#f15a24"
         offset="0"
         id="stop4" /><stop
         stop-color="#f15a24"
         stop-opacity="0"
         offset="1"
         id="stop6" /></linearGradient><radialGradient
       id="radialGradient4297"
       cx="0"
       cy="0"
       r="1"
       fx="0.33908001"
       fy="-0.55274999"
       gradientTransform="matrix(135.72,53.102,32.823,-83.888,479.47,287.23)"
       gradientUnits="userSpaceOnUse"><stop
         stop-color="#ffff87"
         offset="0"
         id="stop9" /><stop
         stop-color="#ffff87"
         offset=".12648"
         id="stop11" /><stop
         stop-color="#ffc503"
         offset=".14449"
         id="stop13" /><stop
         stop-color="#ffc503"
         offset=".21612"
         id="stop15" /><stop
         stop-color="#ffc503"
         offset=".39528"
         id="stop17" /><stop
         stop-color="#ffc503"
         offset=".4406"
         id="stop19" /><stop
         stop-color="#ffc003"
         offset=".49983"
         id="stop21" /><stop
         stop-color="#ffc003"
         offset=".62818"
         id="stop23" /><stop
         stop-color="#ffc003"
         offset=".72864"
         id="stop25" /><stop
         stop-color="#ff8904"
         stop-opacity=".86935"
         offset=".84938"
         id="stop27" /><stop
         stop-color="#ff8904"
         offset=".98742"
         id="stop29" /><stop
         stop-color="#ff8904"
         offset="1"
         id="stop31" /></radialGradient><radialGradient
       id="radialGradient4331"
       cx="-0.042447001"
       cy="0.042661998"
       r="1"
       gradientTransform="matrix(97.003,-81.357,-81.357,-97.003,516.33,432.83)"
       gradientUnits="userSpaceOnUse"><stop
         stop-color="#ff0"
         offset="0"
         id="stop34" /><stop
         stop-color="#ffba05"
         offset=".66567"
         id="stop36" /><stop
         stop-color="#ffba05"
         offset="1"
         id="stop38" /></radialGradient><radialGradient
       id="radialGradient4351"
       cx="0"
       cy="0"
       r="1"
       gradientTransform="matrix(-12.353,-91.85,-91.85,12.353,493.83,420.5)"
       gradientUnits="userSpaceOnUse"><stop
         stop-color="#ff0"
         offset="0"
         id="stop41" /><stop
         stop-color="#ffba05"
         offset="1"
         id="stop43" /></radialGradient><radialGradient
       id="radialGradient4371"
       cx="0"
       cy="0"
       r="1"
       fx="-0.89201999"
       fy="-0.45199999"
       gradientTransform="matrix(58.797,44.174,44.174,-58.797,591.5,452.83)"
       gradientUnits="userSpaceOnUse"><stop
         stop-color="#ff0"
         offset="0"
         id="stop46" /><stop
         stop-color="#ffba05"
         offset="1"
         id="stop48" /></radialGradient><radialGradient
       id="radialGradient4391"
       cx="0"
       cy="0"
       r="1"
       gradientTransform="matrix(-63.936,-51.968,-51.968,63.936,480.5,419.5)"
       gradientUnits="userSpaceOnUse"><stop
         stop-color="#ff0"
         offset="0"
         id="stop51" /><stop
         stop-color="#ffba05"
         offset="1"
         id="stop53" /></radialGradient><radialGradient
       id="radialGradient4413"
       cx="-0.27680999"
       cy="-0.01256"
       r="1"
       gradientTransform="matrix(166.21,117.68,75.941,-107.26,545.45,466.23)"
       gradientUnits="userSpaceOnUse"><stop
         stop-color="#ff0"
         offset="0"
         id="stop56" /><stop
         stop-color="#ffee05"
         offset=".49699"
         id="stop58" /><stop
         stop-color="#ffba05"
         offset="1"
         id="stop60" /></radialGradient><radialGradient
       id="radialGradient4433"
       cx="0.069300003"
       cy="0.0013088"
       r="1"
       gradientTransform="matrix(92.166,1.56,1.3981,-82.601,484.17,431.17)"
       gradientUnits="userSpaceOnUse"><stop
         stop-color="#ff0"
         offset="0"
         id="stop63" /><stop
         stop-color="#ffba05"
         offset="1"
         id="stop65" /></radialGradient><radialGradient
       id="radialGradient4453"
       cx="0"
       cy="0"
       r="1"
       gradientTransform="matrix(112.47,78.731,51.056,-72.937,527.5,460.5)"
       gradientUnits="userSpaceOnUse"><stop
         stop-color="#ff0"
         offset="0"
         id="stop68" /><stop
         stop-color="#ffba05"
         offset="1"
         id="stop70" /></radialGradient><radialGradient
       id="radialGradient4475"
       cx="0.13237"
       cy="-0.0012055"
       r="1"
       fx="-0.080444001"
       fy="0.038791001"
       gradientTransform="matrix(64.042,-58.572,-66.76,-72.994,505.91,439.83)"
       gradientUnits="userSpaceOnUse"><stop
         stop-color="#ff0"
         offset="0"
         id="stop73" /><stop
         stop-color="#ffcf05"
         offset=".62977"
         id="stop75" /><stop
         stop-color="#ffcf05"
         offset="1"
         id="stop77" /></radialGradient><linearGradient
       id="linearGradient7248-9"
       x1="382.79999"
       x2="662.92999"
       y1="393.32001"
       y2="393.32001"
       gradientUnits="userSpaceOnUse"
       xlink:href="#linearGradient7230" /><clipPath
       id="clipPath4307-2"><path
         d="m 640.25,512.56 c 0.366,-0.686 1.015,-1.901 1.507,-3.229 0.237,-0.588 0.284,-0.774 0.375,-1.057 0.174,-0.52 0.277,-0.819 0.368,-1.099 0.09,-0.28 0.019,-0.115 0.107,-0.392 0.087,-0.277 0.181,-0.577 0.264,-0.852 0.082,-0.276 0.15,-0.659 0.224,-0.934 0.076,-0.276 0.167,-0.604 0.233,-0.881 0.066,-0.276 0.257,-1.337 0.312,-1.615 0.316,-1.599 0.241,-2.12 0.401,-3.701 0.16,-1.58 0.244,-3.151 0.26,-4.712 0.016,-1.563 -0.038,-3.115 -0.154,-4.66 -0.117,-1.545 -0.296,-3.081 -0.533,-4.61 -0.237,-1.528 -0.531,-3.049 -0.877,-4.562 -0.345,-1.513 -0.742,-3.02 -1.184,-4.518 -0.442,-1.5 -0.93,-2.992 -1.457,-4.478 -0.527,-1.485 -1.094,-2.964 -1.694,-4.438 -1.181,-2.896 -2.451,-5.732 -3.805,-8.51 -1.353,-2.778 -2.789,-5.5 -4.302,-8.169 -1.512,-2.671 -3.099,-5.288 -4.755,-7.858 -1.656,-2.571 -3.38,-5.093 -5.165,-7.574 -1.785,-2.48 -3.631,-4.918 -5.53,-7.318 -1.9,-2.4 -3.853,-4.762 -5.852,-7.09 -1.999,-2.328 -4.044,-4.624 -6.129,-6.89 -2.084,-2.267 -4.207,-4.506 -6.362,-6.72 -2.218,-2.28 -4.472,-4.518 -6.76,-6.714 -2.287,-2.197 -4.608,-4.353 -6.961,-6.47 -2.353,-2.117 -4.737,-4.196 -7.152,-6.237 -2.415,-2.041 -4.86,-4.046 -7.334,-6.016 -2.473,-1.969 -4.975,-3.904 -7.504,-5.806 -2.528,-1.902 -5.084,-3.771 -7.664,-5.609 -2.581,-1.838 -5.187,-3.645 -7.816,-5.423 -2.63,-1.778 -5.282,-3.527 -7.957,-5.247 -3.325,-2.142 -6.677,-4.217 -10.058,-6.225 -3.381,-2.007 -6.792,-3.946 -10.232,-5.813 -3.441,-1.867 -6.912,-3.661 -10.416,-5.38 -3.504,-1.719 -7.041,-3.362 -10.611,-4.924 -3.571,-1.563 -7.177,-3.046 -10.818,-4.446 -1.846,-0.709 -3.702,-1.398 -5.566,-2.064 -1.814,-0.648 -3.636,-1.274 -5.468,-1.88 -3.716,-1.228 -7.47,-2.37 -11.263,-3.42 -3.794,-1.049 -7.627,-2.009 -11.502,-2.872 -1.624,-0.362 -3.249,-0.695 -4.876,-1 -1.627,-0.304 -3.255,-0.578 -4.886,-0.823 -1.631,-0.244 -3.262,-0.457 -4.896,-0.638 -1.634,-0.181 -3.269,-0.33 -4.907,-0.445 -1.636,-0.116 -3.275,-0.197 -4.915,-0.245 -1.639,-0.046 -3.28,-0.058 -4.923,-0.034 -1.641,0.024 -3.285,0.085 -4.929,0.183 -1.645,0.097 -3.29,0.233 -4.937,0.408 -1.337,0.142 -2.664,0.317 -3.979,0.531 -1.315,0.214 -2.617,0.466 -3.906,0.759 -1.288,0.294 -2.562,0.627 -3.819,1.007 -1.256,0.38 -2.496,0.805 -3.717,1.278 -1.22,0.475 -2.422,0.997 -3.602,1.571 -1.179,0.575 -2.337,1.201 -3.471,1.884 -1.133,0.683 -2.244,1.421 -3.326,2.22 -1.084,0.798 -2.656,1.973 -3.685,2.893 l -3.143,-7.259 c -3.143,-7.26 1.5,-6 3.143,-8.5 1.644,-2.5 0.357,-9 0.217,-15 -0.14,-6 6.64,-11.5 9.64,-14.5 3,-3.001 10,-10.5 14.5,-11.82 4.5,-1.319 23.5,-16.18 30,-18.181 6.5,-1.999 13.5,-6.999 22,-8.499 8.5,-1.5 19,-3 27.5,-3 8.5,0 26.5,-0.5 38.5,0 12,0.5 27,3 33,4 6,1 20,2.5 27.5,4.5 7.5,2 23.5,8 27,11.5 3.5,3.5 28,13.999 33.5,20 5.5,6 24,39.5 25,45.5 1,6 14,47.499 17,53 3,5.5 0,39.499 0,45.5 0,6 -10,45 -10,45 l -13.5,28.5 -14,14.5 z"
         id="path81" /></clipPath><radialGradient
       id="radialGradient7556"
       cx="698.21002"
       cy="478.94"
       r="186.38"
       gradientTransform="matrix(1.2034,-0.41433,0.38181,1.1089,-338.27,245.75)"
       gradientUnits="userSpaceOnUse"><stop
         stop-color="#f15a24"
         stop-opacity="0"
         offset="0"
         id="stop84" /><stop
         stop-color="#f15a24"
         stop-opacity="0"
         offset=".68534"
         id="stop86" /><stop
         stop-color="#f14a24"
         offset="1"
         id="stop88" /></radialGradient></defs><path
     id="path7728"
     style="color:#000000;fill:#000000;stroke-width:1.49999;stroke-linecap:round;stroke-linejoin:round;-inkscape-stroke:none"
     d="M 18.889654,2.0425005 5.0602617,2.0456257 A 1.1633246,1.1584509 0 0 0 3.8989423,3.2006834 l -0.012517,7.5313546 a 1.1633246,1.1584509 0 0 0 1.1613178,1.161319 H 18.899049 a 1.1633246,1.1584509 0 0 0 1.161318,-1.158189 l -0.0063,-7.5344846 A 1.1633246,1.1584509 0 0 0 18.889654,2.0425005 Z M 7.6771398,4.0615047 h 8.6926722 a 0.76619386,0.76619386 0 0 1 0.766909,0.7669088 v 4.429286 A 0.76619386,0.76619386 0 0 1 16.369812,10.024609 H 7.5832328 A 0.76619386,0.76619386 0 0 1 6.8163248,9.2576995 l 0.0063,-4.404245 a 0.76619386,0.76619386 0 0 1 0.566574,-0.7418659 l 0.09077,-0.021912 a 0.76619386,0.76619386 0 0 1 0.197205,-0.028172 z M 4.9068802,12.854344 a 1.1633246,1.1584509 0 0 0 -1.1268858,0.873337 l -1.7435433,6.783227 a 1.1633246,1.1584509 0 0 0 1.1268858,1.44617 H 20.836663 a 1.1633246,1.1584509 0 0 0 1.126885,-1.44617 l -1.740413,-6.776967 a 1.1633246,1.1584509 0 0 0 -1.126886,-0.873337 z m 2.7608696,1.536947 h 8.7239732 a 0.76619386,0.76619386 0 0 1 0.748128,0.610397 l 0.851424,4.028617 a 0.76619386,0.76619386 0 0 1 -0.748127,0.926551 H 6.7286778 A 0.76619386,0.76619386 0 0 1 5.9805505,19.030305 L 6.8319758,15.0236 a 0.76619386,0.76619386 0 0 1 0.547791,-0.579094 l 0.09078,-0.02505 a 0.76619386,0.76619386 0 0 1 0.197205,-0.02818 z" /></svg>
