<svg xmlns="http://www.w3.org/2000/svg" width="192" height="192" fill="none" stroke="#000" stroke-linecap="round" stroke-linejoin="round" viewBox="0 0 192 192"><path stroke-width="12" d="M104.281 38A31.85 31.85 0 0 0 100 54c0 17.673 14.327 32 32 32s32-14.327 32-32-14.327-32-32-32c-11.845 0-22.186 6.435-27.719 16m0 0H42.874c-3.636 0-6.437 3.208-5.945 6.81l16.363 120.001A6 6 0 0 0 59.237 170h57.526a6 6 0 0 0 5.945-5.189L133.455 86M51 120h78"/><path stroke-width="10" d="m121 48 12 12 10-10"/></svg>