<svg xmlns="http://www.w3.org/2000/svg" width="192" height="192" fill="none"><path stroke="#000" stroke-linecap="round" stroke-linejoin="round" stroke-width="12" d="M138 70a41.99 41.99 0 0 0-25.927-38.803A42 42 0 0 0 54 70"/><circle cx="83" cy="52" r="3" stroke="#000" stroke-linecap="round" stroke-linejoin="round" stroke-width="6"/><circle cx="109" cy="52" r="3" stroke="#000" stroke-linecap="round" stroke-linejoin="round" stroke-width="6"/><path stroke="#000" stroke-linecap="round" stroke-linejoin="round" stroke-width="12" d="M34 72v48m124-48v48m-44 24v26m-36-26v26M72 34l-8-12m57 12 8-12m9 48v68a6 6 0 0 1-6 6H60a6 6 0 0 1-6-6V70"/><path stroke="#000" stroke-linecap="round" stroke-linejoin="round" stroke-width="10" d="M54 71h84"/><path stroke="#000" stroke-linecap="round" stroke-linejoin="round" stroke-width="8" d="M83 107h-6m10.043-8.957-4.479-4.479M115 107h-6m.435 13.435-4.478-4.478M96 88v6m13.436-.436-4.479 4.479M96 120v6m-8.957-10.043-4.478 4.478"/><circle cx="96" cy="107" r="11" stroke="#000" stroke-linecap="round" stroke-linejoin="round" stroke-width="8"/></svg>