<svg width="192" height="192" viewBox="0 0 192 192" fill="none" xmlns="http://www.w3.org/2000/svg"><path d="M138 70a41.994 41.994 0 0 0-25.927-38.803A42 42 0 0 0 54 70" stroke="#000" stroke-width="12" stroke-linecap="round" stroke-linejoin="round"/><circle cx="81" cy="53" r="3" stroke="#000" stroke-width="6" stroke-linecap="round" stroke-linejoin="round"/><circle cx="111" cy="53" r="3" stroke="#000" stroke-width="6" stroke-linecap="round" stroke-linejoin="round"/><path d="M34 72v48m124-48v48m-44 24v26m-36-26v26M72 34l-8-12m57 12 8-12m9 48v68a6 6 0 0 1-6 6H60a6 6 0 0 1-6-6V70" stroke="#000" stroke-width="12" stroke-linecap="round" stroke-linejoin="round"/><path d="M54 71h84" stroke="#000" stroke-width="10" stroke-linecap="round" stroke-linejoin="round"/><path d="M83 107h-6m10.043-8.957-4.478-4.478M115 107h-6m.435 13.435-4.478-4.479M96 88v6m13.435-.435-4.478 4.478M96 120v6m-8.957-10.044-4.478 4.479" stroke="#000" stroke-width="8" stroke-linecap="round" stroke-linejoin="round"/><circle cx="96" cy="107" r="11" stroke="#000" stroke-width="8" stroke-linecap="round" stroke-linejoin="round"/></svg>