<svg width="192" height="192" viewBox="0 0 192 192" fill="none" xmlns="http://www.w3.org/2000/svg"><path d="m113 145 24 24m-23-55 24-24m-59 55-24 24m23-55L54 90" stroke="#000" stroke-width="12" stroke-linecap="round" stroke-linejoin="round"/><path d="M35 91v48m121-48v48" stroke="#000" stroke-width="14" stroke-linecap="round" stroke-linejoin="round"/><circle cx="77" cy="56" r="3" stroke="#000" stroke-width="6" stroke-linejoin="round"/><circle cx="115" cy="56" r="3" stroke="#000" stroke-width="6" stroke-linejoin="round"/><path d="M138 70H54c1.514-8.906 10.216-36 42-36s40.486 27.094 42 36Z" stroke="#000" stroke-width="12" stroke-linejoin="round"/><path d="M74 37 64 22m55 15 10-15M54 90h84v80H54V90Z" stroke="#000" stroke-width="12" stroke-linecap="round" stroke-linejoin="round"/><circle cx="92" cy="126" r="3" stroke="#000" stroke-width="6" stroke-linejoin="round"/><circle cx="96" cy="130" r="22" stroke="#000" stroke-width="12" stroke-linejoin="round"/></svg>