<svg xmlns="http://www.w3.org/2000/svg" width="192" height="192" fill="none"><path stroke="#000" stroke-linecap="round" stroke-linejoin="round" stroke-width="12" d="M69.127 95.571h20.445a6 6 0 0 0 6-6V69.127m-5.29 47.6h20.445a6 6 0 0 0 6-6V90.282m-89.25 1.984 64.789-64.79c7.302-7.302 19.142-7.302 26.444 0l32.395 32.395a64.52 64.52 0 0 1 14.344 69.419 27.1 27.1 0 0 0-22.076-.59 27.11 27.11 0 0 0-16.737 25.049 27.1 27.1 0 0 0 2.654 11.7 64.51 64.51 0 0 1-69.419-14.344L27.477 118.71c-7.303-7.302-7.303-19.142 0-26.444"/></svg>