<svg width="192" height="192" viewBox="0 0 192 192" fill="none" xmlns="http://www.w3.org/2000/svg"><path d="M84 36v56a6 6 0 0 1-6 6H38" stroke="#000" stroke-width="10" stroke-linecap="round" stroke-linejoin="round"/><path d="m47 146 31-18M46 74l32 19m68-19-32 19m31 53-31-18" stroke="#000" stroke-width="8" stroke-linecap="round" stroke-linejoin="round"/><path d="M84 169v-41a6 6 0 0 0-6-6H38m70-86v56a6 6 0 0 0 6 6h40m-46 71v-41a6 6 0 0 1 6-6h40" stroke="#000" stroke-width="10" stroke-linecap="round" stroke-linejoin="round"/><path d="M96 22c-48 48-60 59-60 88m60-88c48 48 60 59 60 88m0 0a59.996 59.996 0 0 1-17.574 42.426 59.996 59.996 0 0 1-84.852 0A59.999 59.999 0 0 1 36 110" stroke="#000" stroke-width="12" stroke-linecap="round" stroke-linejoin="round"/></svg>