<svg xmlns="http://www.w3.org/2000/svg" width="192" height="192" fill="none" viewBox="0 0 192 192"><path stroke="#000" stroke-linecap="round" stroke-linejoin="round" stroke-miterlimit="16" stroke-width="12" d="m140.952 52.716.785-14.195c.358-6.488-4.378-12.051-10.579-12.426L63.79 22.02c-6.201-.375-11.519 4.58-11.877 11.069l-.785 14.195m89.824 5.432-.784 14.196c-.358 6.487-5.676 11.443-11.877 11.068l-14.601-.883m27.262-24.38c13.721 2.09 21.455.883 29.048.783M51.128 47.284l-.784 14.195c-.359 6.488 4.378 12.051 10.579 12.426l52.767 3.192M51.128 47.284C39.997 45.653 34.215 45.914 22 41.5m91.69 35.597c0 47.903-3.986 67.903-9.468 92.903"/><path stroke="#000" stroke-linecap="round" stroke-linejoin="round" stroke-width="12" d="M86 117c0 8.837-7.163 16-16 16m16-16c0-8.837-7.163-16-16-16s-16 7.163-16 16 7.163 16 16 16m16-16c13.03-1.194 19.655-.329 30 4.5M70 133l-3.69 21m-2.81 16 2.81-16m0 0c17.684 3.647 27.573 2.623 45.19-1.5"/><circle cx="97" cy="50" r="5" stroke="#000" stroke-width="10"/></svg>