<svg width="192" height="192" viewBox="0 0 192 192" fill="none" xmlns="http://www.w3.org/2000/svg"><path d="M114 40H76a6 6 0 0 0-6 6v100a6 6 0 0 0 6 6h38" stroke="#000" stroke-width="12" stroke-linecap="round" stroke-linejoin="round"/><path d="M110 68h-2a6 6 0 0 0-6 6v44a6 6 0 0 0 6 6h2m4 28a56 56 0 0 0 0-112" stroke="#000" stroke-width="12" stroke-linecap="round" stroke-linejoin="round"/><path d="M110 124a28 28 0 0 0 0-56m-88 6V62a6 6 0 0 1 6-6h12a6 6 0 0 1 6 6v12a6 6 0 0 1-6 6H28a6 6 0 0 1-6-6Zm0 56v-12a6 6 0 0 1 6-6h12a6 6 0 0 1 6 6v12a6 6 0 0 1-6 6H28a6 6 0 0 1-6-6Z" stroke="#000" stroke-width="12" stroke-linecap="round" stroke-linejoin="round"/></svg>