<svg width="192" height="192" viewBox="0 0 192 192" fill="none" xmlns="http://www.w3.org/2000/svg"><circle cx="96" cy="56" r="34" stroke="#000" stroke-width="12" stroke-linecap="round" stroke-linejoin="round"/><path d="M49 126h21a6 6 0 0 1 6 6v18m67-24h-21a6 6 0 0 0-6 6v18m0 0a20.006 20.006 0 0 1-5.858 14.142 20.005 20.005 0 0 1-28.284 0A20.001 20.001 0 0 1 76 150m-27-24a19.999 19.999 0 1 1 0-40m94 0a20.005 20.005 0 0 1 18.478 12.346 20.004 20.004 0 0 1-10.824 26.132A20.006 20.006 0 0 1 143 126" stroke="#000" stroke-width="12" stroke-linecap="round" stroke-linejoin="round"/></svg>