<svg width="192" height="192" viewBox="0 0 192 192" fill="none" xmlns="http://www.w3.org/2000/svg"><path d="m76.733 134.248 57.515-57.515a6 6 0 0 1 8.485 0l25.515 25.515a6 6 0 0 1 0 8.485l-57.515 57.515a6 6 0 0 1-8.485 0l-25.515-25.515a6 6 0 0 1 0-8.485Z" stroke="#000" stroke-width="12" stroke-linecap="round" stroke-linejoin="round"/><path d="m131.66 109.784 3.536-6.124 6.124 3.536-3.536 6.123-6.124-3.535Z" stroke="#000" stroke-width="10" stroke-linecap="round" stroke-linejoin="round"/><circle cx="79.51" cy="66.51" r="3" stroke="#000" stroke-width="6" stroke-linejoin="round"/><path d="m23.752 81.267 57.515-57.515a6 6 0 0 1 8.485 0l25.515 25.515a6 6 0 0 1 0 8.485l-57.515 57.515a6 6 0 0 1-8.485 0L23.752 89.752a6 6 0 0 1 0-8.485Z" stroke="#000" stroke-width="12" stroke-linecap="round" stroke-linejoin="round"/><path d="m52.68 81.804 3.535-6.124 6.124 3.536-3.535 6.124-6.124-3.536Z" stroke="#000" stroke-width="10" stroke-linecap="round" stroke-linejoin="round"/></svg>