<svg xmlns="http://www.w3.org/2000/svg" width="192" height="192" fill="none" viewBox="0 0 192 192"><path stroke="#000" stroke-linecap="round" stroke-linejoin="round" stroke-width="12" d="M64 46V28a6 6 0 0 1 6-6h76a6 6 0 0 1 6 6v112a6 6 0 0 1-6 6h-18"/><rect width="88" height="124" x="40" y="46" stroke="#000" stroke-linecap="round" stroke-linejoin="round" stroke-width="12" rx="6"/><circle cx="84" cy="108" r="5" stroke="#000" stroke-linecap="round" stroke-linejoin="round" stroke-width="10"/><path stroke="#000" stroke-linecap="round" stroke-linejoin="round" stroke-width="8" d="M84 81v6m19.092 1.908-4.243 4.243M111 108h-6m-1.908 19.092-4.243-4.243M84 129v6m-14.85-12.151-4.242 4.243M63 108h-6m12.15-14.85-4.242-4.242"/></svg>