<svg xmlns="http://www.w3.org/2000/svg" width="192" height="192" fill="none"><path stroke="#000" stroke-linecap="round" stroke-linejoin="round" stroke-width="12" d="M64 46V28a6 6 0 0 1 6-6h76a6 6 0 0 1 6 6v112a6 6 0 0 1-6 6h-18"/><rect width="88" height="124" x="40" y="46" stroke="#000" stroke-linecap="round" stroke-linejoin="round" stroke-width="12" rx="6"/><circle cx="84" cy="108" r="5" stroke="#000" stroke-linecap="round" stroke-linejoin="round" stroke-width="10"/><path stroke="#000" stroke-linecap="round" stroke-linejoin="round" stroke-width="8" d="M110 108h-4m-21.995 26.005v-4m-18.393-3.609 2.828-2.828m-2.83-33.951 2.828 2.828M62 108h-4m26.005-21.995v-4m15.548 10.45 2.828-2.829m-2.831 33.932 2.829 2.828"/></svg>