<svg xmlns="http://www.w3.org/2000/svg" width="192" height="192" fill="none"><path stroke="#000" stroke-linecap="round" stroke-linejoin="round" stroke-width="12" d="M62 120a24.003 24.003 0 0 0 24-24 24 24 0 0 0-24-24m62 48c6.365 0 12.47-2.529 16.971-7.029a24.005 24.005 0 0 0 0-33.942A24 24 0 0 0 124 72"/><rect width="148" height="108" x="22" y="42" stroke="#000" stroke-linecap="round" stroke-linejoin="round" stroke-width="12" rx="12"/><path stroke="#000" stroke-linecap="round" stroke-linejoin="round" stroke-width="12" d="M62 72H52a6 6 0 0 0-6 6v36a6 6 0 0 0 6 6h10m62-48h-10a6 6 0 0 0-6 6v36a6 6 0 0 0 6 6h10"/></svg>