<svg width="192" height="192" viewBox="0 0 50.8 50.8" xml:space="preserve"><path style="fill:none;stroke:#000;stroke-width:3.175;stroke-linecap:round;stroke-linejoin:round;stroke-dasharray:none;paint-order:fill markers stroke" d="M8.1785 23.6679c1.55753 3.52898 3.32873 5.32625 5.331 7.08192 7.76256 6.38593 15.82558 6.65478 23.94901 5.69358 2.06579-.4101 4.46155-1.54119 7.23187-4.40704M17.07668 18.3471c2.22033 2.30613 4.24793 4.30821 6.10695 6.01856 6.57529 6.04946 10.51224 7.9201 13.93627 7.21461 2.35095-1.4239 5.00436-2.6872 5.65672-6.87274.15683-1.00624.2286-2.15079.19799-3.46178m-9.44453 23.08117c5.39481-9.88065 3.94466-20.47134-4.0635-30.7194-2.05037-2.2073-4.37157-4.64198-7.77448-6.16973m-6.02106-1.617 1.40535 12.52644.0257-.0038c-.0093.0093-.01861.01856-.0279.02786l.002-.02403L5.82075 15.6709c1.46325 7.80937 5.1132 14.2506 9.45081 21.51736l.005-.05135c2.87063 4.85008 8.08342 7.82982 13.71934 7.84227 8.82734.00001 15.98332-7.15597 15.98331-15.98331-.00018-5.62748-2.95974-10.84022-7.79202-13.72425h.001c-7.26632-4.3376-13.70755-7.98757-21.51692-9.45082Z"/></svg>