<svg xmlns="http://www.w3.org/2000/svg" width="192" height="192" fill="none" stroke="#000" stroke-linecap="round" stroke-width="10" viewBox="0 0 192 192"><path stroke-width="8" d="M121 96h50M21 96h49m26-25v50"/><path d="M146 121a25.007 25.007 0 0 1-17.678-42.678 24.999 24.999 0 0 1 40.775 27.245A25.01 25.01 0 0 1 146 121zm-50 0a25.01 25.01 0 0 1-25-25M46 71H27a6 6 0 0 0-6 6v38a6 6 0 0 0 6 6h19"/><path d="M96 121h19a6 6 0 0 0 6-6V77a6 6 0 0 0-6-6H77a6 6 0 0 0-6 6v19m-25 25a25 25 0 0 0 0-50"/></svg>