<?xml version="1.0" encoding="utf-8"?>
<!-- Generator: Adobe Illustrator 25.4.1, SVG Export Plug-In . SVG Version: 6.00 Build 0)  -->
<svg version="1.1" id="Layer_1" xmlns="http://www.w3.org/2000/svg" xmlns:xlink="http://www.w3.org/1999/xlink" x="0px" y="0px"
	 width="192px" height="192px" viewBox="0 0 192 192" style="enable-background:new 0 0 192 192;" xml:space="preserve">
<style type="text/css">
	.st0{fill:none;stroke:#000000;stroke-width:12;stroke-linejoin:round;stroke-miterlimit:10;}
	.st1{fill:none;stroke:#000000;stroke-width:6;stroke-linejoin:round;stroke-miterlimit:10;}
</style>
<g>
	<path class="st0" d="M22,76.2v39.6h22.7c10.5-1.6,18-10.9,17.4-21c-0.5-9.3-7.8-17.2-17.4-18.6C37.2,76.2,29.6,76.2,22,76.2z
		 M76.3,76.2h39.9v39.6H95.2c-1.3,0-8-0.3-13.4-5.8c-5-5.2-5.3-11.5-5.4-12.9C76.4,90.1,76.3,83.2,76.3,76.2z M150.2,76.2
		c10.9,0,19.8,8.9,19.8,19.8s-8.9,19.8-19.8,19.8s-19.8-8.9-19.8-19.8S139.3,76.2,150.2,76.2z"/>
	<line class="st1" x1="22" y1="96" x2="62.2" y2="96"/>
	<line class="st1" x1="96.2" y1="76.2" x2="96.2" y2="115.8"/>
	<line class="st1" x1="130.4" y1="96" x2="170" y2="96"/>
</g>
</svg>
