<svg xmlns="http://www.w3.org/2000/svg" width="192" height="192" fill="none" stroke="#000" stroke-linecap="round" viewBox="0 0 192 192"><path stroke-width="12" d="M163.29 63.1 141 68.64v-19a15.12 15.12 0 0 0-21-13.94Q102.8 43 96.35 43t-24-7.42a15.12 15.12 0 0 0-21 13.93v19.2L28.71 63.1a5.31 5.31 0 0 0-6.59 5.52 40.62 40.62 0 0 0 30 36.21 44.86 44.86 0 0 0 88.11-.1 40.63 40.63 0 0 0 29.64-36.11 5.31 5.31 0 0 0-6.58-5.52zM116 69.5V76m-40-6.5V76m52.5 75.5 6.5-6m-71.5 6-6.5-6"/><path stroke-linejoin="round" stroke-width="8" d="M96 93.5c-8.086-11.437-1.925-11 0-11s8.078-.615 0 11"/></svg>