<?xml version="1.0" encoding="UTF-8" standalone="no"?>
<svg
   xmlns:dc="http://purl.org/dc/elements/1.1/"
   xmlns:cc="http://creativecommons.org/ns#"
   xmlns:rdf="http://www.w3.org/1999/02/22-rdf-syntax-ns#"
   xmlns:svg="http://www.w3.org/2000/svg"
   xmlns="http://www.w3.org/2000/svg"
   id="svg12"
   version="1.1"
   viewBox="0 0 192 192"
   height="192"
   width="192">
  <metadata
     id="metadata18">
    <rdf:RDF>
      <cc:Work
         rdf:about="">
        <dc:format>image/svg+xml</dc:format>
        <dc:type
           rdf:resource="http://purl.org/dc/dcmitype/StillImage" />
        <dc:title></dc:title>
      </cc:Work>
    </rdf:RDF>
  </metadata>
  <defs
     id="defs16" />
  <path
     style="display:inline;opacity:1;fill:none;stroke:#000000;stroke-width:12"
     id="path4"
     d="M 163.29,63.1 141,68.64 v -19 A 15.12,15.12 0 0 0 120,35.7 Q 102.8,43 96.35,43 q -6.45,0 -24,-7.42 a 15.12,15.12 0 0 0 -21,13.93 v 19.2 L 28.71,63.1 a 5.31,5.31 0 0 0 -6.59,5.52 40.62,40.62 0 0 0 30,36.21 44.86,44.86 0 0 0 88.11,-0.1 40.63,40.63 0 0 0 29.64,-36.11 5.31,5.31 0 0 0 -6.58,-5.52 z" />
  <path
     id="path828"
     d="M 116,69.5 V 76"
     style="display:inline;opacity:1;fill:none;stroke:#000000;stroke-width:12;stroke-linecap:round;stroke-linejoin:miter;stroke-miterlimit:4;stroke-dasharray:none;stroke-opacity:1" />
  <path
     style="display:inline;opacity:1;fill:none;stroke:#000000;stroke-width:12;stroke-linecap:round;stroke-linejoin:miter;stroke-miterlimit:4;stroke-dasharray:none;stroke-opacity:1"
     d="M 76,69.5 V 76"
     id="path830" />
  <path
     style="display:inline;opacity:1;fill:none;stroke:#000000;stroke-width:12;stroke-linecap:round;stroke-linejoin:miter;stroke-miterlimit:4;stroke-dasharray:none;stroke-opacity:1"
     d="m 128.5,151.5 6.5,-6"
     id="path832" />
  <path
     id="path834"
     d="m 63.5,151.5 -6.5,-6"
     style="display:inline;opacity:1;fill:none;stroke:#000000;stroke-width:12;stroke-linecap:round;stroke-linejoin:miter;stroke-miterlimit:4;stroke-dasharray:none;stroke-opacity:1" />
  <path
     id="path836"
     d="m 96,93.5 c -8.085762,-11.436913 -1.924618,-11 0,-11 1.924618,0 8.07812,-0.615045 0,11 z"
     style="opacity:1;fill:none;stroke:#000000;stroke-width:8;stroke-linecap:round;stroke-linejoin:round;stroke-miterlimit:4;stroke-dasharray:none;stroke-opacity:1" />
</svg>
