<svg width="192" height="192" viewBox="0 0 192 192" fill="none" xmlns="http://www.w3.org/2000/svg">
<path d="M52.6704 116.943V75.9341H61.4791C66.0219 75.9341 70.3786 77.8243 73.5909 81.189C76.8032 84.5537 78.6078 89.1173 78.6078 93.8757V99.0016C78.6078 103.76 76.8032 108.323 73.5909 111.688C70.3786 115.053 66.0219 116.943 61.4791 116.943H52.6704Z" stroke="black" stroke-width="12" stroke-linecap="round" stroke-linejoin="round"/>
<path d="M150.288 75.9351L140.5 116.943L130.713 75.9351L120.926 116.943L111.138 75.9351" stroke="black" stroke-width="12" stroke-linecap="round" stroke-linejoin="round"/>
<path d="M61.2889 143.876C86.3013 143.876 106.578 122.638 106.578 96.4382C106.578 70.2388 86.3013 49 61.2889 49C36.2765 49 16 70.2388 16 96.4382C16 122.638 36.2765 143.876 61.2889 143.876Z" stroke="black" stroke-width="12" stroke-linecap="round" stroke-linejoin="round"/>
<path d="M95.9968 65.9724C101.968 58.5079 109.987 53.1489 118.966 50.6233C127.944 48.0976 137.448 48.5276 146.185 51.8548C154.923 55.1821 162.471 61.2454 167.805 69.2214C173.139 77.1974 176 86.6996 176 96.4378C176 106.176 173.139 115.678 167.805 123.654C162.471 131.63 154.923 137.693 146.185 141.021C137.448 144.348 127.944 144.778 118.966 142.252C109.987 139.727 101.968 134.368 95.9968 126.903" stroke="black" stroke-width="12" stroke-linecap="round" stroke-linejoin="round"/>
</svg>
