<svg width="192" height="192" fill="none" xmlns="http://www.w3.org/2000/svg"><path d="M25.05 78.077c5.467-13.134 16.756-24.314 31.84-31.53 15.082-7.216 32.968-9.993 50.439-7.833 17.472 2.16 33.383 9.117 44.871 19.618C163.688 68.833 170 82.19 170 96 95.707 82 43.501 96 43.501 96M22 103.269c2.368 14.636 11.791 28.017 26.351 37.421 14.56 9.403 33.162 14.122 52.021 13.195 18.859-.926 36.557-7.428 49.492-18.181 5.284-4.393 9.61-9.36 12.88-14.704" stroke="#000" stroke-width="12" stroke-linecap="round" stroke-linejoin="round"/></svg>