<svg width="191" height="191" viewBox="0 0 191 191" fill="none" xmlns="http://www.w3.org/2000/svg">
<g clip-path="url(#clip0_3_2)">
<path d="M79.4105 30.8957L159.087 110.573C172.385 123.87 172.309 145.594 158.963 158.94C145.616 172.286 123.893 172.362 110.595 159.065L30.9184 79.3878C17.6207 66.0901 17.6969 44.3665 31.043 31.0204C44.3892 17.6743 66.1128 17.598 79.4105 30.8957Z" stroke="black" stroke-width="12" stroke-linejoin="round"/>
<path d="M159.087 79.3878L79.4104 159.065C66.1127 172.362 44.3892 172.286 31.0431 158.94C17.6969 145.594 17.6207 123.87 30.9184 110.573L110.595 30.8957C123.893 17.598 145.616 17.6743 158.963 31.0204C172.309 44.3665 172.385 66.0901 159.087 79.3878Z" stroke="black" stroke-width="12" stroke-linejoin="round"/>
</g>
<defs>
<clipPath id="clip0_3_2">
<rect width="191" height="191" fill="white"/>
</clipPath>
</defs>
</svg>
