<svg xmlns="http://www.w3.org/2000/svg" width="192" height="192" fill="none" stroke="#000" stroke-linecap="round" stroke-width="12" viewBox="0 0 192 192"><path d="M58 119H28a6 6 0 0 1-6-6V79a6 6 0 0 1 6-6h30m75 46h31a6 6 0 0 0 6-6V79a6 6 0 0 0-6-6h-10m-82 60v31a6 6 0 0 0 6 6h36a6 6 0 0 0 6-6v-31m-48 0a14 14 0 0 0-14-14m61-60a14 14 0 0 0 4.101 9.9c1.3 1.3 2.843 2.33 4.541 3.034M57 73a14 14 0 0 0 14-14"/><path d="M134 119a13.996 13.996 0 0 0-14 14M71 59V28a6 6 0 0 1 6-6h36a6 6 0 0 1 6 6v31"/></svg>