<svg width="192" height="192" viewBox="0 0 192 192" fill="none" xmlns="http://www.w3.org/2000/svg"><path d="M148 22h-14a6 6 0 0 0-6 6v16a6 6 0 0 0 6 6h20a6 6 0 0 0 6-6V34M52 22H38a6 6 0 0 0-6 6v16a6 6 0 0 0 6 6h20a6 6 0 0 0 6-6V34m-32 94V84a6 6 0 0 1 6-6h20a6 6 0 0 1 6 6v37m10 49h80a6 6 0 0 0 6-6V84a6 6 0 0 0-6-6h-20a6 6 0 0 0-6 6v50a6 6 0 0 1-6 6H83m-9 30a41.994 41.994 0 0 1-38.803-25.927A42 42 0 0 1 32 128m51 12a18.997 18.997 0 0 1-19-19" stroke="#000" stroke-width="12" stroke-linecap="round" stroke-linejoin="round"/><path d="M148 22a12 12 0 0 1 12 12M52 22a12 12 0 0 1 12 12" stroke="#000" stroke-width="12" stroke-linecap="round" stroke-linejoin="round"/></svg>