<svg xmlns="http://www.w3.org/2000/svg" width="192" height="192" fill="none" viewBox="0 0 192 192"><path stroke="#000" stroke-linecap="round" stroke-linejoin="round" stroke-width="12" d="M148 22h-14a6 6 0 0 0-6 6v16a6 6 0 0 0 6 6h20a6 6 0 0 0 6-6V34M52 22H38a6 6 0 0 0-6 6v16a6 6 0 0 0 6 6h20a6 6 0 0 0 6-6V34m-32 94V84a6 6 0 0 1 6-6h20a6 6 0 0 1 6 6v37m10 49h80a6 6 0 0 0 6-6V84a6 6 0 0 0-6-6h-20a6 6 0 0 0-6 6v50a6 6 0 0 1-6 6H83m-9 30a42 42 0 0 1-42-42m51 12a18.997 18.997 0 0 1-19-19"/><path stroke="#000" stroke-linecap="round" stroke-linejoin="round" stroke-width="12" d="M148 22a12 12 0 0 1 12 12M52 22a12 12 0 0 1 12 12"/></svg>