<svg width="192" height="192" fill="none" xmlns="http://www.w3.org/2000/svg"><path d="M25 47c0-12.15 9.85-22 22-22h98c12.15 0 22 9.85 22 22v98c0 12.15-9.85 22-22 22H47c-12.15 0-22-9.85-22-22V47Zm71 1v12m0 72v12" stroke="#000" stroke-width="12" stroke-linecap="round" stroke-linejoin="round"/><path d="M121.114 73.341c-1.633-4.218-5.424-7.881-10.669-10.307-5.245-2.427-11.585-3.45-17.839-2.88-6.253.57-11.995 2.694-16.154 5.978C72.293 69.415 70 73.633 70 78s.886 14 26 18 26 13.633 26 18c0 4.367-2.293 8.585-6.452 11.868-4.159 3.283-9.9 5.408-16.154 5.978-6.254.57-12.594-.453-17.839-2.88-5.245-2.426-9.037-6.089-10.67-10.307" stroke="#000" stroke-width="12" stroke-linecap="round" stroke-linejoin="round"/></svg>