<svg xmlns="http://www.w3.org/2000/svg" width="192" height="192" fill="none"><path stroke="#000" stroke-linecap="round" stroke-linejoin="round" stroke-width="12" d="M25 47c0-12.15 9.85-22 22-22h98c12.15 0 22 9.85 22 22v98c0 12.15-9.85 22-22 22H47c-12.15 0-22-9.85-22-22zm71 1v12m0 72v12"/><path stroke="#000" stroke-linecap="round" stroke-linejoin="round" stroke-width="12" d="M121.114 73.341c-1.633-4.218-5.424-7.881-10.669-10.307s-11.585-3.45-17.839-2.88-11.995 2.694-16.154 5.978S70 73.633 70 78s.886 14 26 18 26 13.633 26 18-2.293 8.585-6.452 11.868-9.9 5.408-16.154 5.978-12.594-.453-17.839-2.88-9.037-6.089-10.67-10.307"/></svg>