<svg version="1.0" xmlns="http://www.w3.org/2000/svg" width="256" height="256" viewBox="0 0 192 192"><path d="M82.1 19.1c-26.3 4.4-50.8 25.2-59.6 50.6-9.8 28.3-3 58.8 17.9 79.8 8.9 8.9 16.7 14.1 27.6 18.1 49.2 18.5 101.2-14.8 104.6-67.1 1.6-22.6-6.3-43.4-22.5-59.6-18.1-18-42.8-26-68-21.8zm15.4 12.4c12.6 3.3 24.9 13.2 36.6 29.5 3.7 5.2 7.9 10.7 9.1 12.2 3.8 4.5 9.7 7.8 13.8 7.8 3.4 0 3.8.3 4.4 3.1 1.1 5.7.7 7.4-2.3 9.2-1.7 1-5 1.7-7.8 1.7-9.9 0-17.4-6.4-32-27.4-12.4-17.7-20.5-26.1-30-30.8-9.2-4.6-9.4-4.8-8.8-5.9.9-1.4 10.4-1.1 17 .6zm44.9 16.7c7.7 7.8 16.1 20.7 14.5 22.3-1.5 1.4-4.5-1.4-11.3-10.4-4.1-5.3-9-11.6-11-14.1-4-5-4.3-6-2-6 .8 0 5.2 3.7 9.8 8.2zm-58.7-3.6c8.3 4 18.5 14.7 29.2 30.6 9.8 14.6 17.2 22.3 25.4 26.5 5.9 2.9 15 4.1 19.8 2.4 1.8-.6 3.4-.9 3.7-.6.3.3-.1 2.4-.7 4.7-2.7 9.1-14.5 15.8-25 14.4-6.5-.9-15.6-5.6-22.3-11.6-3.2-2.8-9.6-10.4-14.2-16.8-14.1-19.6-25.5-29-39.2-32.8-5.8-1.5-7.5-1.6-14.1-.5-4.1.7-7.7 1-8 .7-1.2-1.2 7.9-11.7 12.4-14.3 12.1-7.1 22.4-7.9 33-2.7zM65 73.4c8.8 4.4 13.4 8.9 24.8 24 16 21.2 23.2 27.6 37 32.6 5.4 2 7.5 2.2 15.7 1.7 8.7-.5 9.4-.4 8.6 1.1-1.8 3.3-6.7 7.1-12.6 9.9-5.4 2.5-7.1 2.8-16.6 2.8-10.5 0-10.6 0-19.5-4.4-9.2-4.6-11.8-6.9-32.4-28.8-9.4-10-16.4-13.8-25.6-13.8-4.9 0-6.8.5-10.2 2.7-2.3 1.6-4.4 2.8-4.7 2.8-1.2 0-.4-15.3.9-18.5 2.5-5.9 6.5-10.3 11.9-13 6.8-3.5 14.7-3.2 22.7.9zM52.1 110c5.4 2.8 10.4 7.5 20.1 18.7 4.4 5.1 10.7 11.4 13.9 13.9 7.6 5.8 18.7 10.9 27.2 12.5 3.7.7 6.7 1.6 6.7 2 0 1.7-11 4.1-21.1 4.6-20.5 1-36.2-5-50.4-19.2-8.3-8.3-14.5-18.1-14.5-22.9 0-3.5 2.4-8.1 5.2-10 3.1-2.2 8.1-2 12.9.4z"/></svg>