<?xml version="1.0" encoding="UTF-8" standalone="no"?>
<svg
   width="192"
   height="192"
   viewBox="0 0 192 192"
   fill="none"
   version="1.1"
   id="svg14"
   sodipodi:docname="easer.svg"
   inkscape:version="1.2.2 (b0a8486541, 2022-12-01)"
   xml:space="preserve"
   xmlns:inkscape="http://www.inkscape.org/namespaces/inkscape"
   xmlns:sodipodi="http://sodipodi.sourceforge.net/DTD/sodipodi-0.dtd"
   xmlns="http://www.w3.org/2000/svg"
   xmlns:svg="http://www.w3.org/2000/svg"><defs
     id="defs18"><inkscape:path-effect
       effect="powerclip"
       id="path-effect1193"
       is_visible="true"
       lpeversion="1"
       inverse="true"
       flatten="false"
       hide_clip="false"
       message="Use fill-rule evenodd on &lt;b&gt;fill and stroke&lt;/b&gt; dialog if no flatten result after convert clip to paths." /><inkscape:path-effect
       effect="powerclip"
       id="path-effect1183"
       is_visible="true"
       lpeversion="1"
       inverse="true"
       flatten="false"
       hide_clip="false"
       message="Use fill-rule evenodd on &lt;b&gt;fill and stroke&lt;/b&gt; dialog if no flatten result after convert clip to paths." /><inkscape:path-effect
       effect="powerclip"
       id="path-effect1173"
       is_visible="true"
       lpeversion="1"
       inverse="true"
       flatten="false"
       hide_clip="false"
       message="Use fill-rule evenodd on &lt;b&gt;fill and stroke&lt;/b&gt; dialog if no flatten result after convert clip to paths." /><inkscape:path-effect
       effect="powerclip"
       id="path-effect1162"
       is_visible="true"
       lpeversion="1"
       inverse="true"
       flatten="false"
       hide_clip="false"
       message="Use fill-rule evenodd on &lt;b&gt;fill and stroke&lt;/b&gt; dialog if no flatten result after convert clip to paths." /><inkscape:path-effect
       effect="powerclip"
       id="path-effect1111"
       is_visible="true"
       lpeversion="1"
       inverse="true"
       flatten="false"
       hide_clip="false"
       message="Use fill-rule evenodd on &lt;b&gt;fill and stroke&lt;/b&gt; dialog if no flatten result after convert clip to paths." /><inkscape:path-effect
       effect="powerclip"
       id="path-effect1022"
       is_visible="true"
       lpeversion="1"
       inverse="true"
       flatten="false"
       hide_clip="false"
       message="Use fill-rule evenodd on &lt;b&gt;fill and stroke&lt;/b&gt; dialog if no flatten result after convert clip to paths." /><inkscape:path-effect
       effect="powerclip"
       id="path-effect4294"
       is_visible="true"
       lpeversion="1"
       inverse="true"
       flatten="false"
       hide_clip="false"
       message="Use fill-rule evenodd on &lt;b&gt;fill and stroke&lt;/b&gt; dialog if no flatten result after convert clip to paths." /><inkscape:path-effect
       effect="powerclip"
       id="path-effect5969"
       is_visible="true"
       lpeversion="1"
       inverse="true"
       flatten="false"
       hide_clip="false"
       message="Use fill-rule evenodd on &lt;b&gt;fill and stroke&lt;/b&gt; dialog if no flatten result after convert clip to paths." /><inkscape:path-effect
       effect="powerclip"
       id="path-effect3933"
       is_visible="true"
       lpeversion="1"
       inverse="true"
       flatten="true"
       hide_clip="false"
       message="Use fill-rule evenodd on &lt;b&gt;fill and stroke&lt;/b&gt; dialog if no flatten result after convert clip to paths." /><inkscape:path-effect
       effect="fillet_chamfer"
       id="path-effect3204"
       is_visible="true"
       lpeversion="1"
       nodesatellites_param="F,0,0,1,0,6,0,1 @ F,0,0,1,0,6,0,1 @ F,0,0,1,0,6,0,1 @ F,0,0,1,0,6,0,1"
       unit="px"
       method="auto"
       mode="F"
       radius="6"
       chamfer_steps="1"
       flexible="false"
       use_knot_distance="true"
       apply_no_radius="true"
       apply_with_radius="true"
       only_selected="false"
       hide_knots="false" /><filter
       id="mask-powermask-path-effect3828_inverse"
       inkscape:label="filtermask-powermask-path-effect3828"
       style="color-interpolation-filters:sRGB"
       height="100"
       width="100"
       x="-50"
       y="-50"><feColorMatrix
         id="mask-powermask-path-effect3828_primitive1"
         values="1"
         type="saturate"
         result="fbSourceGraphic" /><feColorMatrix
         id="mask-powermask-path-effect3828_primitive2"
         values="-1 0 0 0 1 0 -1 0 0 1 0 0 -1 0 1 0 0 0 1 0 "
         in="fbSourceGraphic" /></filter><filter
       id="mask-powermask-path-effect3854_inverse"
       inkscape:label="filtermask-powermask-path-effect3854"
       style="color-interpolation-filters:sRGB"
       height="100"
       width="100"
       x="-50"
       y="-50"><feColorMatrix
         id="mask-powermask-path-effect3854_primitive1"
         values="1"
         type="saturate"
         result="fbSourceGraphic" /><feColorMatrix
         id="mask-powermask-path-effect3854_primitive2"
         values="-1 0 0 0 1 0 -1 0 0 1 0 0 -1 0 1 0 0 0 1 0 "
         in="fbSourceGraphic" /></filter><filter
       id="mask-powermask-path-effect3872_inverse"
       inkscape:label="filtermask-powermask-path-effect3872"
       style="color-interpolation-filters:sRGB"
       height="100"
       width="100"
       x="-50"
       y="-50"><feColorMatrix
         id="mask-powermask-path-effect3872_primitive1"
         values="1"
         type="saturate"
         result="fbSourceGraphic" /><feColorMatrix
         id="mask-powermask-path-effect3872_primitive2"
         values="-1 0 0 0 1 0 -1 0 0 1 0 0 -1 0 1 0 0 0 1 0 "
         in="fbSourceGraphic" /></filter><filter
       id="mask-powermask-path-effect3891_inverse"
       inkscape:label="filtermask-powermask-path-effect3891"
       style="color-interpolation-filters:sRGB"
       height="100"
       width="100"
       x="-50"
       y="-50"><feColorMatrix
         id="mask-powermask-path-effect3891_primitive1"
         values="1"
         type="saturate"
         result="fbSourceGraphic" /><feColorMatrix
         id="mask-powermask-path-effect3891_primitive2"
         values="-1 0 0 0 1 0 -1 0 0 1 0 0 -1 0 1 0 0 0 1 0 "
         in="fbSourceGraphic" /></filter><clipPath
       clipPathUnits="userSpaceOnUse"
       id="clipPath3929"><circle
         style="display:none;fill:#ffffff;fill-opacity:1;stroke:none;stroke-width:12;stroke-dasharray:none"
         id="circle3931"
         clip-path="none"
         mask="none"
         r="6"
         cy="117.5"
         cx="117.5" /></clipPath><clipPath
       clipPathUnits="userSpaceOnUse"
       id="clipPath5965"><circle
         style="display:none;fill:#000000;fill-opacity:1;stroke:none;stroke-width:12;stroke-dasharray:none"
         id="circle5967"
         cx="115.697"
         cy="115.697"
         r="6" /></clipPath><clipPath
       clipPathUnits="userSpaceOnUse"
       id="clipPath1107"><ellipse
         style="display:none;fill:#000000;fill-opacity:1;stroke:none;stroke-width:6.02823;stroke-linecap:round;stroke-linejoin:round;stroke-dasharray:none"
         id="ellipse1109"
         cy="506.26785"
         cx="409.97681"
         rx="3.6832211"
         ry="3.6813796"
         d="m 413.66003,506.26785 a 3.6832211,3.6813796 0 0 1 -3.68322,3.68138 3.6832211,3.6813796 0 0 1 -3.68322,-3.68138 3.6832211,3.6813796 0 0 1 3.68322,-3.68138 3.6832211,3.6813796 0 0 1 3.68322,3.68138 z" /><path
         id="lpe_path-effect1111"
         style="display:inline;fill:#000000;fill-opacity:1;stroke:none;stroke-width:6.02823;stroke-linecap:round;stroke-linejoin:round;stroke-dasharray:none"
         class="powerclip"
         d="m 395.17229,498.78621 h 29.60904 v 14.96328 h -29.60904 z m 18.48774,7.48164 a 3.6832211,3.6813796 0 0 0 -3.68322,-3.68138 3.6832211,3.6813796 0 0 0 -3.68322,3.68138 3.6832211,3.6813796 0 0 0 3.68322,3.68138 3.6832211,3.6813796 0 0 0 3.68322,-3.68138 z" /></clipPath><clipPath
       clipPathUnits="userSpaceOnUse"
       id="clipPath1158"><ellipse
         style="display:none;fill:#000000;stroke-width:3.01413;stroke-linecap:round;stroke-linejoin:round"
         id="ellipse1160"
         cx="390.61865"
         cy="531.35718"
         rx="3.0141273"
         ry="3.0156565"
         d="m 393.63278,531.35718 a 3.0141273,3.0156565 0 0 1 -3.01413,3.01565 3.0141273,3.0156565 0 0 1 -3.01412,-3.01565 3.0141273,3.0156565 0 0 1 3.01412,-3.01566 3.0141273,3.0156565 0 0 1 3.01413,3.01566 z" /><path
         id="lpe_path-effect1162"
         style="fill:#000000;stroke-width:3.01413;stroke-linecap:round;stroke-linejoin:round"
         class="powerclip"
         d="m 385.15463,505.73101 h 31.62866 v 32.07731 h -31.62866 z m 8.47815,25.62617 a 3.0141273,3.0156565 0 0 0 -3.01413,-3.01566 3.0141273,3.0156565 0 0 0 -3.01412,3.01566 3.0141273,3.0156565 0 0 0 3.01412,3.01565 3.0141273,3.0156565 0 0 0 3.01413,-3.01565 z" /></clipPath><clipPath
       clipPathUnits="userSpaceOnUse"
       id="clipPath1169"><ellipse
         style="display:none;fill:#000000;stroke-width:3.01413;stroke-linecap:round;stroke-linejoin:round"
         id="ellipse1171"
         cx="394.16336"
         cy="542.01111"
         rx="3.0141273"
         ry="3.0156565"
         d="m 397.17749,542.01111 a 3.0141273,3.0156565 0 0 1 -3.01413,3.01565 3.0141273,3.0156565 0 0 1 -3.01413,-3.01565 3.0141273,3.0156565 0 0 1 3.01413,-3.01566 3.0141273,3.0156565 0 0 1 3.01413,3.01566 z" /><path
         id="lpe_path-effect1173"
         style="fill:#000000;stroke-width:3.01413;stroke-linecap:round;stroke-linejoin:round"
         class="powerclip"
         d="m 388.4565,515.91079 h 34.93313 v 32.44997 H 388.4565 Z m 8.72099,26.10032 a 3.0141273,3.0156565 0 0 0 -3.01413,-3.01566 3.0141273,3.0156565 0 0 0 -3.01413,3.01566 3.0141273,3.0156565 0 0 0 3.01413,3.01565 3.0141273,3.0156565 0 0 0 3.01413,-3.01565 z" /></clipPath><clipPath
       clipPathUnits="userSpaceOnUse"
       id="clipPath1179"><ellipse
         style="display:none;fill:#000000;fill-opacity:1;stroke:none;stroke-width:3.01413;stroke-linecap:round;stroke-linejoin:round;stroke-opacity:1"
         id="ellipse1181"
         cx="393.32782"
         cy="553.53247"
         rx="3.0141273"
         ry="3.0156565"
         d="m 396.34195,553.53247 a 3.0141273,3.0156565 0 0 1 -3.01413,3.01566 3.0141273,3.0156565 0 0 1 -3.01413,-3.01566 3.0141273,3.0156565 0 0 1 3.01413,-3.01566 3.0141273,3.0156565 0 0 1 3.01413,3.01566 z" /><path
         id="lpe_path-effect1183"
         style="display:inline;fill:#000000;fill-opacity:1;stroke:none;stroke-width:3.01413;stroke-linecap:round;stroke-linejoin:round;stroke-opacity:1"
         class="powerclip"
         d="m 387.72947,521.85026 h 42.63385 v 38.08333 h -42.63385 z m 8.61248,31.68221 a 3.0141273,3.0156565 0 0 0 -3.01413,-3.01566 3.0141273,3.0156565 0 0 0 -3.01413,3.01566 3.0141273,3.0156565 0 0 0 3.01413,3.01566 3.0141273,3.0156565 0 0 0 3.01413,-3.01566 z" /></clipPath><clipPath
       clipPathUnits="userSpaceOnUse"
       id="clipPath1189"><ellipse
         style="display:none;fill:#000000;stroke-width:3.01413;stroke-linecap:round;stroke-linejoin:round"
         id="ellipse1191"
         cx="400.52704"
         cy="565.69629"
         rx="3.0141273"
         ry="3.0156565"
         d="m 403.54117,565.69629 a 3.0141273,3.0156565 0 0 1 -3.01413,3.01566 3.0141273,3.0156565 0 0 1 -3.01413,-3.01566 3.0141273,3.0156565 0 0 1 3.01413,-3.01566 3.0141273,3.0156565 0 0 1 3.01413,3.01566 z" /><path
         id="lpe_path-effect1193"
         style="fill:#000000;stroke-width:3.01413;stroke-linecap:round;stroke-linejoin:round"
         class="powerclip"
         d="m 394.71387,511.51187 h 38.74088 v 60.47281 h -38.74088 z m 8.8273,54.18442 a 3.0141273,3.0156565 0 0 0 -3.01413,-3.01566 3.0141273,3.0156565 0 0 0 -3.01413,3.01566 3.0141273,3.0156565 0 0 0 3.01413,3.01566 3.0141273,3.0156565 0 0 0 3.01413,-3.01566 z" /></clipPath></defs><sodipodi:namedview
     id="namedview16"
     pagecolor="#ffffff"
     bordercolor="#666666"
     borderopacity="1.0"
     inkscape:showpageshadow="2"
     inkscape:pageopacity="0"
     inkscape:pagecheckerboard="0"
     inkscape:deskcolor="#d1d1d1"
     showgrid="false"
     inkscape:zoom="2"
     inkscape:cx="27.25"
     inkscape:cy="99.5"
     inkscape:window-width="1920"
     inkscape:window-height="1011"
     inkscape:window-x="0"
     inkscape:window-y="0"
     inkscape:window-maximized="1"
     inkscape:current-layer="layer1" /><g
     transform="matrix(1.990626,0,0,1.990626,-715.53593,-957.4586)"
     id="layer1"
     style="stroke-width:2.36571"><path
       style="opacity:1;fill:none;stroke:#000000;stroke-width:6.02825;stroke-linecap:round;stroke-linejoin:round;stroke-dasharray:none;stroke-opacity:1"
       d="m 411.16161,510.67147 c -16.07442,2.48046 -14.19095,-9.9371 -14.19095,-18.63602 8.99962,0.0251 19.09344,-0.01 28.09307,0.0166 0,9.40601 1.90621,15.99656 -13.90212,18.6194 z"
       id="path1266"
       sodipodi:nodetypes="cccc" /><ellipse
       style="display:inline;opacity:1;fill:#000000;fill-opacity:1;stroke:none;stroke-width:6.02826;stroke-linecap:round;stroke-linejoin:round;stroke-dasharray:none"
       id="path4201"
       cx="411.16721"
       cy="501.1969"
       rx="2.9813507"
       ry="2.9833696" /><path
       style="opacity:1;fill:none;stroke:#000000;stroke-width:4.96327;stroke-linecap:butt;stroke-linejoin:miter;stroke-dasharray:none;stroke-opacity:1"
       d="m 400.17229,506.26785 h 19.60904"
       id="path4205"
       clip-path="url(#clipPath1107)"
       transform="matrix(1.2141617,0,0,1.2149839,-86.610941,-113.91039)"
       inkscape:path-effect="#path-effect1111"
       inkscape:original-d="m 400.17229,506.26785 h 19.60904" /><path
       style="fill:none;stroke:#000000;stroke-width:3.04701;stroke-linecap:butt;stroke-linejoin:miter;stroke-dasharray:none;stroke-opacity:1"
       d="m 410.22346,510.95538 c 0,0 2.00868,13.49075 -19.60482,20.40181"
       id="path4329"
       clip-path="url(#clipPath1158)"
       inkscape:path-effect="#path-effect1162"
       inkscape:original-d="m 410.22346,510.95538 c 0,0 2.00868,13.49075 -19.60482,20.40181"
       transform="matrix(0.98912568,0,0,0.9892936,4.8396947,5.2679079)" /><path
       style="fill:none;stroke:#000000;stroke-width:3.04701;stroke-linecap:butt;stroke-linejoin:miter;stroke-dasharray:none;stroke-opacity:1"
       d="m 408.81863,517.97335 c 0,0 45.90811,13.51554 -8.29163,47.72297"
       id="path4331"
       clip-path="url(#clipPath1189)"
       inkscape:path-effect="#path-effect1193"
       inkscape:original-d="m 408.81863,517.97335 c 0,0 45.90811,13.51554 -8.29163,47.72297"
       transform="matrix(0.98912568,0,0,0.9892936,4.8396947,5.2679079)" /><path
       style="fill:none;stroke:#000000;stroke-width:3.04701;stroke-linecap:butt;stroke-linejoin:miter;stroke-dasharray:none;stroke-opacity:1"
       d="m 417.09099,521.7074 c 0,0 -7.49741,12.22237 -22.92765,20.30375"
       id="path4366"
       clip-path="url(#clipPath1169)"
       inkscape:path-effect="#path-effect1173"
       inkscape:original-d="m 417.09099,521.7074 c 0,0 -7.49741,12.22237 -22.92765,20.30375"
       transform="matrix(0.98912568,0,0,0.9892936,4.8396947,5.2679079)" /><path
       style="fill:none;stroke:#000000;stroke-width:3.04701;stroke-linecap:butt;stroke-linejoin:miter;stroke-dasharray:none;stroke-opacity:1"
       d="m 424.08431,527.67803 c 0,0 -11.37676,17.57855 -30.75652,25.85446"
       id="path4368"
       clip-path="url(#clipPath1179)"
       inkscape:path-effect="#path-effect1183"
       inkscape:original-d="m 424.08431,527.67803 c 0,0 -11.37676,17.57855 -30.75652,25.85446"
       transform="matrix(0.98912568,0,0,0.9892936,4.8396947,5.2679079)" /><ellipse
       style="fill:none;stroke:#000000;stroke-width:3.01413;stroke-linecap:round;stroke-linejoin:round;stroke-dasharray:none;stroke-opacity:1"
       id="path316"
       cx="391.21063"
       cy="530.93616"
       rx="2.9813507"
       ry="2.9833696" /><ellipse
       style="fill:none;stroke:#000000;stroke-width:3.01413;stroke-linecap:round;stroke-linejoin:round;stroke-dasharray:none;stroke-opacity:1"
       id="path973"
       cx="394.7168"
       cy="541.47607"
       rx="2.9813507"
       ry="2.9833696" /><ellipse
       style="fill:none;stroke:#000000;stroke-width:3.01413;stroke-linecap:round;stroke-linejoin:round;stroke-opacity:1"
       id="path975"
       cx="393.89035"
       cy="552.87408"
       rx="2.9813507"
       ry="2.9833696" /><ellipse
       style="fill:none;stroke:#000000;stroke-width:3.01413;stroke-linecap:round;stroke-linejoin:round;stroke-opacity:1"
       id="path977"
       cx="401.01126"
       cy="564.90765"
       rx="2.9813507"
       ry="2.9833696" /></g></svg>
