<svg width="192" height="192" fill="none" xmlns="http://www.w3.org/2000/svg"><path d="M38.606 142.839A74.41 74.41 0 0 1 22.026 96c0-41.003 33.12-74 73.974-74 40.854 0 73.973 32.997 73.973 74a74.408 74.408 0 0 1-16.579 46.839" stroke="#000" stroke-width="12" stroke-linecap="round" stroke-linejoin="round"/><path d="M62.333 119.507a41.062 41.062 0 1 1 67.334 0" stroke="#000" stroke-width="12" stroke-linecap="round" stroke-linejoin="round"/><path d="M96 101a5 5 0 1 0 0-10 5 5 0 0 0 0 10Z" stroke="#000" stroke-width="10" stroke-linecap="round" stroke-linejoin="round"/><path d="M101.072 140.757h20.671L98.768 172h22.224m-34.244-31.243-16.49.104V172h16.49m-16.491-15.97h14.08" stroke="#000" stroke-width="8" stroke-linecap="round" stroke-linejoin="round"/></svg>