<svg width="192" height="192" viewBox="0 0 192 192" fill="none" xmlns="http://www.w3.org/2000/svg">
<g clip-path="url(#clip0_302_353)">
<path d="M80.118 143.82C82.5968 131.599 84.2166 124.787 90.3206 113.186" stroke="black" stroke-width="12" stroke-linecap="round"/>
<path d="M71.6305 169.88L90.881 160.249M71.5378 169.688L61.9063 150.438" stroke="black" stroke-width="10" stroke-linecap="round"/>
<path d="M112.629 46.8798C104.575 56.3888 104.799 64.5785 102.426 77.5137" stroke="black" stroke-width="12" stroke-linecap="round"/>
<path d="M121.116 20.8188L101.866 30.4503M121.209 21.0113L130.84 40.2618" stroke="black" stroke-width="10" stroke-linecap="round"/>
<path d="M47.9072 79.0923C60.7898 78.6301 67.2782 81.9258 78.5411 89.295" stroke="black" stroke-width="12" stroke-linecap="round"/>
<path d="M21.8464 70.605L31.4778 89.8555M22.0388 70.5122L41.2893 60.8808" stroke="black" stroke-width="10" stroke-linecap="round"/>
<path d="M144.847 111.603C134.266 103.468 127.325 101.937 114.213 101.401" stroke="black" stroke-width="12" stroke-linecap="round"/>
<path d="M170.908 120.091L161.277 100.84M170.716 120.183L151.465 129.815" stroke="black" stroke-width="10" stroke-linecap="round"/>
</g>
<defs>
<clipPath id="clip0_302_353">
<rect width="192" height="192" fill="white"/>
</clipPath>
</defs>
</svg>
