<svg width="192" height="192" viewBox="0 0 192 192" fill="none" xmlns="http://www.w3.org/2000/svg">
<path d="M124.255 108.101C155.325 97.6006 166.143 59.3547 139.602 35.2957C129.473 26.1139 115.358 22 100.783 22C67.0759 22 39.4119 48.469 36.5651 82.1989C36.4409 83.6703 36.9507 85.1248 37.951 86.1895C53.1243 102.339 74.454 112.389 98.078 112.389C107.222 112.389 116.022 110.884 124.255 108.101Z" stroke="black" stroke-width="12" stroke-linejoin="round"/>
<path d="M107.645 81.9346C120.178 77.896 124.541 63.186 113.836 53.9325C109.75 50.401 104.057 48.8188 98.1776 48.8188C84.5816 48.8188 73.423 58.9992 72.2747 71.9722C72.2246 72.5381 72.4302 73.0976 72.8337 73.5071C78.954 79.7184 87.5576 83.5839 97.0866 83.5839C100.775 83.5839 104.325 83.0048 107.645 81.9346Z" stroke="black" stroke-width="12" stroke-linejoin="round"/>
<path d="M91.349 139.421C111.18 139.876 130.805 132.392 143.084 118.682L164.402 132.233C151.417 154.469 127.081 169.164 99.5365 168.532C62.3069 167.677 32.2131 139.12 28.4626 102.99C46.1432 132.879 77.3762 139.1 91.349 139.421Z" stroke="black" stroke-width="12" stroke-linejoin="round"/>
</svg>
