<?xml version="1.0" encoding="UTF-8" standalone="no"?>
<svg
   width="192"
   height="192"
   viewBox="0 0 50.799999 50.8"
   version="1.1"
   id="svg1"
   xmlns="http://www.w3.org/2000/svg"
   xmlns:svg="http://www.w3.org/2000/svg">
  <defs
     id="defs1" />
  <g
     id="layer1"
     style="fill:none;stroke:#000000;stroke-width:3.175;stroke-linecap:round;stroke-linejoin:round;stroke-dasharray:none;stroke-opacity:1">
    <path
       d="m 41.276842,26.261643 h -17.95527 c -0.78951,0 -1.18426,1.406034 -1.18426,2.089444 0,1.65458 0.89716,3.22523 2.69149,4.68797 1.79433,1.46274 3.72025,2.2061 5.78971,2.2061 1.22015,0 2.58384,-0.2398 4.06714,-0.70738 1.49528,-0.4676 2.71543,-1.0551 3.68437,-1.73851 0.86127,-0.61148 1.55508,-0.92321 2.05749,-0.92321 0.65792,0 1.31585,0.40765 1.94984,1.22295 0.59703,0.70943 0.93463,1.072773 0.95698,2.000653 0,1.83442 -1.14837,3.6089 -3.43316,5.32342 -4.05517,3.0334 -8.72044,4.55609 -14.01969,4.55609 -5.34711,0 -9.832926,-1.55865 -13.445516,-4.67599 -1.78162,-1.56439 -3.2580398,-3.4467 -4.3542398,-5.55121 -1.48994,-2.80476 -2.2665101,-5.93463 -2.26086,-9.11217 0,-4.29231 1.30388,-8.14101 3.89968,-11.55807 2.2369298,-2.96145 5.0958998,-5.16756 8.5529798,-6.61831 2.595786,-1.10305 5.406906,-1.64259 8.445306,-1.64259 4.83273,0 8.94772,1.37882 12.33303,4.13645 1.7106,1.37881 3.08625,3.00941 4.12697,4.90378 1.19622,2.14616 1.79432,4.23236 1.79432,6.2826 0.0576,1.42997 -0.29963,2.84601 -1.02876,4.0765 -0.68184,1.0431 -1.579,1.041483 -2.66755,1.041483 z M 24.314432,19.63296 h 3.86379 c 1.62686,0 2.44029,-0.75535 2.44029,-2.25406 0.0529,-1.23398 -0.37139,-2.44082 -1.18426,-3.36911 -0.79173,-0.86973 -1.92429,-1.34741 -3.09821,-1.30687 -1.33447,-0.0468 -2.60091,0.59049 -3.36138,1.69054 -0.71615,0.90643 -1.11916,2.02144 -1.14837,3.17727 0,0.76734 0.17943,1.30688 0.55026,1.60662 0.37083,0.29974 1.01679,0.45561 1.93788,0.45561 z"
       id="path1"
       style="fill:none;stroke:#000000;stroke-width:3.175;stroke-linecap:round;stroke-linejoin:round;stroke-dasharray:none;stroke-opacity:1" />
  </g>
</svg>
