<svg xmlns="http://www.w3.org/2000/svg" width="192" height="192" fill="none" viewBox="0 0 192 192"><path stroke="#000" stroke-linecap="round" stroke-width="12" d="M80.118 143.82c2.479-12.221 4.099-19.033 10.203-30.634"/><path stroke="#000" stroke-linecap="round" stroke-width="10" d="m71.63 169.88 19.251-9.631m-19.343 9.439-9.631-19.25"/><path stroke="#000" stroke-linecap="round" stroke-width="12" d="M112.629 46.88c-8.054 9.509-7.83 17.699-10.203 30.634"/><path stroke="#000" stroke-linecap="round" stroke-width="10" d="m121.116 20.819-19.25 9.631m19.343-9.439 9.631 19.25"/><path stroke="#000" stroke-linecap="round" stroke-width="12" d="M47.907 79.093c12.883-.463 19.371 2.833 30.634 10.202"/><path stroke="#000" stroke-linecap="round" stroke-width="10" d="m21.846 70.605 9.632 19.25m-9.44-19.343 19.251-9.631"/><path stroke="#000" stroke-linecap="round" stroke-width="12" d="M144.847 111.603c-10.581-8.135-17.522-9.666-30.634-10.202"/><path stroke="#000" stroke-linecap="round" stroke-width="10" d="m170.908 120.091-9.631-19.251m9.439 19.343-19.251 9.632"/></svg>