<svg xmlns="http://www.w3.org/2000/svg" width="192" height="192" viewBox="0 0 50.8 50.8"><path d="M41.277 26.262H23.322c-.79 0-1.185 1.406-1.185 2.09 0 1.654.897 3.224 2.692 4.687 1.794 1.463 3.72 2.206 5.79 2.206 1.22 0 2.583-.24 4.067-.707 1.495-.468 2.715-1.055 3.684-1.739.861-.611 1.555-.923 2.058-.923.657 0 1.315.408 1.95 1.223.596.71.934 1.073.956 2 0 1.835-1.148 3.61-3.433 5.324-4.055 3.033-8.72 4.556-14.02 4.556-5.347 0-9.832-1.558-13.445-4.676a19.2 19.2 0 0 1-4.354-5.551A19.35 19.35 0 0 1 5.82 25.64c0-4.293 1.304-8.141 3.9-11.558 2.236-2.962 5.095-5.168 8.553-6.619 2.595-1.103 5.406-1.642 8.445-1.642 4.833 0 8.948 1.379 12.333 4.136a16.4 16.4 0 0 1 4.127 4.904c1.196 2.146 1.794 4.232 1.794 6.283a7.4 7.4 0 0 1-1.029 4.076c-.681 1.043-1.579 1.042-2.667 1.042m-16.963-6.629h3.864c1.627 0 2.44-.755 2.44-2.254a4.8 4.8 0 0 0-1.184-3.37 4 4 0 0 0-3.098-1.306 3.92 3.92 0 0 0-3.361 1.69 5.34 5.34 0 0 0-1.149 3.178c0 .767.18 1.307.55 1.606s1.017.456 1.938.456" style="fill:none;stroke:#000;stroke-width:3.175;stroke-linecap:round;stroke-linejoin:round;stroke-dasharray:none;stroke-opacity:1"/></svg>