<svg width="192" height="192" viewBox="0 0 192 192" fill="none" xmlns="http://www.w3.org/2000/svg"><path d="M44 96H32m16.686-11.314-8.485-8.485M88 96H76m3.799 19.799-8.485-8.485M60 68v12m19.8-3.799-8.486 8.485M60 112v12m-11.314-16.686-8.485 8.485" stroke="#000" stroke-width="12" stroke-linecap="round" stroke-linejoin="round"/><circle cx="60" cy="96" r="16" stroke="#000" stroke-width="12" stroke-linecap="round" stroke-linejoin="round"/><path d="M60 148v16a6 6 0 0 0 6 6h76a6 6 0 0 0 6-6V28a6 6 0 0 0-6-6H66a6 6 0 0 0-6 6v16" stroke="#000" stroke-width="12" stroke-linecap="round" stroke-linejoin="round"/></svg>