<svg xmlns="http://www.w3.org/2000/svg" width="192" height="192" fill="none"><path stroke="#000" stroke-linecap="round" stroke-linejoin="round" stroke-width="10" d="M110.021 120.979a17.01 17.01 0 0 0-18.527-3.685A17.005 17.005 0 0 0 81 133a17 17 0 0 0 10.494 15.706 17 17 0 0 0 18.527-3.685"/><path stroke="#000" stroke-linecap="round" stroke-linejoin="round" stroke-width="12" d="M58 28a6 6 0 0 1 6-6h64a6 6 0 0 1 6 6v136a6 6 0 0 1-6 6H64a6 6 0 0 1-6-6z"/><path stroke="#000" stroke-linecap="round" stroke-linejoin="round" stroke-width="10" d="M111 42H87a6 6 0 0 0-6 6v22a6 6 0 0 0 6 6h24"/><path stroke="#000" stroke-linecap="round" stroke-linejoin="round" stroke-width="12" d="M58 96h76"/><path stroke="#000" stroke-linecap="round" stroke-linejoin="round" stroke-width="10" d="M81 59h30"/></svg>