<svg xmlns="http://www.w3.org/2000/svg" width="192" height="192" fill="none"><path stroke="#000" stroke-linecap="round" stroke-linejoin="round" stroke-width="12" d="M146 122c0-5.57-2.212-10.911-6.151-14.849a20.995 20.995 0 0 0-29.698 0A21 21 0 0 0 104 122z"/><circle cx="125" cy="75" r="6" stroke="#000" stroke-linecap="round" stroke-linejoin="round" stroke-width="12"/><path stroke="#000" stroke-linecap="round" stroke-linejoin="round" stroke-width="12" d="M22 52c0-5.523 4.477-10 10-10h128c5.523 0 10 4.477 10 10v88c0 5.523-4.477 10-10 10H32c-5.523 0-10-4.477-10-10zm35 55h26M45 85h38"/></svg>