<svg xmlns="http://www.w3.org/2000/svg" width="192" height="192" fill="none"><path stroke="#000" stroke-linecap="round" stroke-linejoin="round" stroke-width="10" d="M153 78h15M24 78h19M32 60h21m93 0h14m-24-18h10M46 42h13m14 51s7-23 26-23 22 23 22 23"/><path stroke="#000" stroke-linecap="round" stroke-linejoin="round" stroke-width="10" d="M61 77c16-12 39-7 39-7s20-8 35 5"/><path stroke="#000" stroke-linecap="round" stroke-linejoin="round" stroke-width="10" d="M76 49s18 6 24 21c2-15 20-19 20-19"/><circle cx="96" cy="96" r="74" stroke="#000" stroke-linecap="round" stroke-linejoin="round" stroke-width="12"/><path stroke="#000" stroke-linecap="round" stroke-linejoin="round" stroke-width="10" d="M22 96h32.66M170 96h-31.088M24 114h49.059M168 114h-56.497M32 132h41.755M160 132h-46.947M46 150h31.328M146 150h-27.882M100 73c-22 65 8 96 8 96"/></svg>