<svg xmlns="http://www.w3.org/2000/svg" width="192" height="192" fill="none"><circle cx="53" cy="139" r="31" stroke="#000" stroke-linecap="round" stroke-linejoin="round" stroke-width="12"/><path stroke="#000" stroke-linecap="round" stroke-linejoin="round" stroke-width="12" d="M170 124c0-8.837-7.163-16-16-16-3.025 0-5.855.84-8.268 2.299-3.171 1.917-10.293 1.917-13.464 0A15.93 15.93 0 0 0 124 108c-8.837 0-16 7.163-16 16 0 3.025.84 5.855 2.299 8.268 1.917 3.171 1.917 10.293 0 13.464A15.93 15.93 0 0 0 108 154c0 8.837 7.163 16 16 16 3.025 0 5.855-.84 8.268-2.299 3.171-1.917 10.293-1.917 13.464 0A15.93 15.93 0 0 0 154 170c8.837 0 16-7.163 16-16 0-2.996-.807-5.879-2.318-8.362-1.922-3.157-1.95-10.15-.022-13.303A15.9 15.9 0 0 0 170 124m0-74a28 28 0 0 1-8.201 19.799l-6 6a28 28 0 0 1-39.598-39.598l6-6A28 28 0 0 1 170 50M38 32c-2.98 1.72-6.455 2.966-9.197 3.783C26.046 36.605 24 39.08 24 41.958c0 0 1 7.042 1 11.042s-1 11.042-1 11.042c0 2.878 2.046 5.353 4.803 6.175C31.545 71.034 35.02 72.279 38 74c6 3.464 11 10 15 10s9-6.536 15-10c2.98-1.72 6.455-2.966 9.197-3.783C79.954 69.395 82 66.92 82 64.042c0 0-1-7.042-1-11.042s1-11.042 1-11.042c0-2.878-2.046-5.353-4.803-6.175C74.455 34.966 70.98 33.721 68 32c-6-3.464-11-10-15-10s-9 6.536-15 10"/></svg>