<svg xmlns="http://www.w3.org/2000/svg" width="192" height="192" fill="none"><path stroke="#000" stroke-linecap="round" stroke-linejoin="round" stroke-width="12" d="M170 96a74 74 0 1 1-32-60.926"/><circle cx="26" cy="166" r="4" stroke="#000" stroke-linecap="round" stroke-linejoin="round" stroke-width="8"/><circle cx="166" cy="26" r="4" stroke="#000" stroke-linecap="round" stroke-linejoin="round" stroke-width="8"/><path stroke="#000" stroke-linecap="round" stroke-linejoin="round" stroke-width="12" d="m79.03 112.971 33.941-33.942A23.93 23.93 0 0 0 96 72c-13.255 0-24 10.745-24 24a23.93 23.93 0 0 0 7.03 16.971m0 0A23.93 23.93 0 0 0 96 120c9.419 0 17.571-5.426 21.5-13.323"/><path stroke="#000" stroke-linecap="round" stroke-linejoin="round" stroke-width="10" d="M166 26c-30 54 0 60-34 108"/></svg>