<svg width="192" height="192" fill="none" xmlns="http://www.w3.org/2000/svg"><path d="M170 96a74 74 0 1 1-32-60.926" stroke="#000" stroke-width="12" stroke-linecap="round" stroke-linejoin="round"/><circle cx="26" cy="166" r="4" stroke="#000" stroke-width="8" stroke-linecap="round" stroke-linejoin="round"/><circle cx="166" cy="26" r="4" stroke="#000" stroke-width="8" stroke-linecap="round" stroke-linejoin="round"/><path d="m79.03 112.971 33.941-33.942A23.928 23.928 0 0 0 96 72c-13.255 0-24 10.745-24 24a23.928 23.928 0 0 0 7.03 16.971Zm0 0A23.925 23.925 0 0 0 96 120c9.419 0 17.571-5.426 21.5-13.323" stroke="#000" stroke-width="12" stroke-linecap="round" stroke-linejoin="round"/><path d="M166 26c-30 54 0 60-34 108" stroke="#000" stroke-width="10" stroke-linecap="round" stroke-linejoin="round"/></svg>