<svg width="192" height="192" viewBox="0 0 192 192" fill="none" xmlns="http://www.w3.org/2000/svg"><path d="M48 96h26M22 67h52m0 87c13.23 0 19.95-1.085 23.206-1.95 1.825-.485 2.794-2.161 2.794-4.05V63m70-16v54.536c0 2.649-1.741 4.976-4.332 5.529-4.035.863-10.494 1.935-17.668 1.935h-2c-11.046 0-20-8.954-20-20V53M74 67c0-5.736-1.525-11.343-4.382-16.111-2.857-4.77-6.917-8.487-11.668-10.681-4.751-2.195-9.979-2.77-15.022-1.65-5.044 1.118-9.677 3.88-13.313 7.936-3.636 4.056-6.112 9.223-7.115 14.848-1.004 5.626-.489 11.457 1.48 16.756 1.967 5.299 5.3 9.828 9.575 13.015C37.831 94.299 42.858 96 48 96" stroke="#000" stroke-width="12" stroke-linecap="round" stroke-linejoin="round"/><path d="M100 125c0-5.736-1.525-11.343-4.382-16.112-2.857-4.769-6.917-8.486-11.668-10.68-4.751-2.195-9.979-2.77-15.022-1.65-5.044 1.118-9.677 3.88-13.313 7.936-3.636 4.056-6.112 9.223-7.115 14.848-1.004 5.626-.489 11.457 1.48 16.756 1.967 5.299 5.3 9.828 9.575 13.015C63.831 152.299 68.858 154 74 154" stroke="#000" stroke-width="12" stroke-linecap="round" stroke-linejoin="round"/></svg>