<svg xmlns="http://www.w3.org/2000/svg" width="192" height="192" fill="none" viewBox="0 0 192 192"><path stroke="#000" stroke-linecap="round" stroke-width="10" d="M60.084 101.929c0-4.397-1.415-8.671-4.027-12.161s-6.275-6.003-10.423-7.149a19.12 19.12 0 0 0-12.521.811c-3.974 1.672-7.298 4.637-9.46 8.436a20.4 20.4 0 0 0-2.497 12.584 20.2 20.2 0 0 0 5.493 11.544 19.4 19.4 0 0 0 11.22 5.747c4.256.601 8.586-.25 12.322-2.42m9.893-16.892H21m94.014.071c0 2.626-.505 5.227-1.487 7.654a20 20 0 0 1-4.237 6.488 19.5 19.5 0 0 1-6.34 4.336 19.16 19.16 0 0 1-14.957 0 19.5 19.5 0 0 1-6.34-4.336 20 20 0 0 1-4.236-6.488 20.4 20.4 0 0 1-1.487-7.654c0-2.626.505-5.227 1.487-7.654a20 20 0 0 1 4.236-6.488 19.5 19.5 0 0 1 6.34-4.336 19.2 19.2 0 0 1 7.479-1.522c2.566 0 5.107.517 7.478 1.522a19.5 19.5 0 0 1 6.34 4.336 20 20 0 0 1 4.237 6.488 20.4 20.4 0 0 1 1.487 7.654zm0-40v60m16.902-60 39.084 60m0-60-39.085 60"/></svg>