<svg width="192" height="192" viewBox="0 0 192 192" fill="none" xmlns="http://www.w3.org/2000/svg">
<path d="M59 104.471C59 100.542 57.7489 96.7147 55.4279 93.544C53.1069 90.3734 49.8367 88.0241 46.091 86.8365C42.3454 85.649 38.3189 85.6849 34.5951 86.9391C30.8712 88.1933 27.6434 90.6006 25.3794 93.8122C23.1154 97.0238 21.9328 100.873 22.0029 104.802C22.0731 108.73 23.3923 112.535 25.7695 115.664C28.1467 118.792 31.4584 121.083 35.2246 122.203C38.9909 123.324 43.0161 123.216 46.7169 121.896" stroke="black" stroke-width="12" stroke-linecap="round" stroke-linejoin="round"/>
<path d="M59 104.934H22" stroke="black" stroke-width="12" stroke-linecap="round"/>
<path d="M114 105C114 107.429 113.521 109.835 112.592 112.08C111.662 114.324 110.299 116.364 108.581 118.081C106.864 119.799 104.824 121.162 102.58 122.092C100.335 123.021 97.9295 123.5 95.5 123.5C93.0705 123.5 90.6649 123.021 88.4204 122.092C86.1758 121.162 84.1364 119.799 82.4185 118.081C80.7006 116.364 79.3379 114.324 78.4082 112.08C77.4785 109.835 77 107.429 77 105C77 102.571 77.4785 100.165 78.4082 97.9204C79.3379 95.6758 80.7006 93.6364 82.4185 91.9185C84.1364 90.2006 86.1758 88.8379 88.4204 87.9082C90.6649 86.9785 93.0705 86.5 95.5 86.5C97.9295 86.5 100.335 86.9785 102.58 87.9082C104.824 88.8379 106.864 90.2006 108.581 91.9185C110.299 93.6364 111.662 95.6758 112.592 97.9204C113.521 100.165 114 102.571 114 105L114 105Z" stroke="black" stroke-width="12" stroke-linecap="round" stroke-linejoin="round"/>
<path d="M114 68V123.5" stroke="black" stroke-width="12" stroke-linecap="round" stroke-linejoin="round"/>
<path d="M133 68L170 123.5" stroke="black" stroke-width="12" stroke-linecap="round" stroke-linejoin="round"/>
<path d="M170 68L133 123.5" stroke="black" stroke-width="12" stroke-linecap="round" stroke-linejoin="round"/>
</svg>
