<svg width="192" height="192" viewBox="0 0 192 192" fill="none" xmlns="http://www.w3.org/2000/svg"><path d="M96 96h75m0 0a75.004 75.004 0 0 0-55.589-72.444 74.999 74.999 0 1 0-29.2 146.802 75 75 0 0 0 47.289-9.406" stroke="#000" stroke-width="10" stroke-linecap="round" stroke-linejoin="round"/><path d="M145 96a48.997 48.997 0 0 0-36.318-47.33 49 49 0 1 0 11.818 89.765" stroke="#000" stroke-width="10" stroke-linecap="round" stroke-linejoin="round"/><path d="M119 96a23.001 23.001 0 0 0-42.919-11.5 23 23 0 0 0 31.419 31.419" stroke="#000" stroke-width="10" stroke-linecap="round" stroke-linejoin="round"/></svg>