<?xml version="1.0" encoding="UTF-8" standalone="no"?>
<svg
   xmlns:dc="http://purl.org/dc/elements/1.1/"
   xmlns:cc="http://creativecommons.org/ns#"
   xmlns:rdf="http://www.w3.org/1999/02/22-rdf-syntax-ns#"
   xmlns:svg="http://www.w3.org/2000/svg"
   xmlns="http://www.w3.org/2000/svg"
   xmlns:sodipodi="http://sodipodi.sourceforge.net/DTD/sodipodi-0.dtd"
   xmlns:inkscape="http://www.inkscape.org/namespaces/inkscape"
   width="192"
   height="192"
   viewBox="0 0 50.799999 50.800001"
   version="1.1"
   id="svg8"
   inkscape:version="1.0.1 (3bc2e813f5, 2020-09-07)"
   sodipodi:docname="efootball.svg">
  <defs
     id="defs2" />
  <sodipodi:namedview
     id="base"
     pagecolor="#ffffff"
     bordercolor="#666666"
     borderopacity="1.0"
     inkscape:pageopacity="0.0"
     inkscape:pageshadow="2"
     inkscape:zoom="2"
     inkscape:cx="-9.8630037"
     inkscape:cy="95.934364"
     inkscape:document-units="px"
     inkscape:current-layer="layer1"
     inkscape:document-rotation="0"
     showgrid="false"
     units="px"
     showguides="true"
     inkscape:guide-bbox="true"
     inkscape:window-width="1366"
     inkscape:window-height="705"
     inkscape:window-x="-8"
     inkscape:window-y="-8"
     inkscape:window-maximized="1">
    <sodipodi:guide
       position="23.505394,46.571391"
       orientation="0,-1"
       id="guide10" />
    <sodipodi:guide
       position="14.453435,4.2366368"
       orientation="0,-1"
       id="guide12" />
    <sodipodi:guide
       position="4.2404204,34.369847"
       orientation="1,0"
       id="guide14" />
    <sodipodi:guide
       position="46.571715,26.954547"
       orientation="1,0"
       id="guide16" />
    <sodipodi:guide
       position="9.3544335,44.448173"
       orientation="0,-1"
       id="guide18" />
    <sodipodi:guide
       position="6.3502952,28.484641"
       orientation="1,0"
       id="guide20" />
    <sodipodi:guide
       position="17.016016,6.35"
       orientation="0,-1"
       id="guide22" />
    <sodipodi:guide
       position="44.45,10.590568"
       orientation="1,0"
       id="guide24" />
  </sodipodi:namedview>
  <metadata
     id="metadata5">
    <rdf:RDF>
      <cc:Work
         rdf:about="">
        <dc:format>image/svg+xml</dc:format>
        <dc:type
           rdf:resource="http://purl.org/dc/dcmitype/StillImage" />
        <dc:title />
      </cc:Work>
    </rdf:RDF>
  </metadata>
  <g
     inkscape:label="Layer 1"
     inkscape:groupmode="layer"
     id="layer1">
    <path
       id="path31"
       style="fill:#000000;stroke-width:0.061971"
       d="m 26.616596,4.2287915 c -1.102984,-0.006 -2.444642,0.056516 -2.964022,0.1543096 -0.170426,0.032102 -0.504669,0.090418 -0.743257,0.1285901 -1.510943,0.2416722 -3.360724,0.7815577 -4.802869,1.4016415 -0.345984,0.1487528 -1.922304,0.9264224 -2.261915,1.116169 -0.543005,0.303384 -2.060581,1.3520527 -2.549957,1.7616956 -0.259965,0.2176096 -0.517262,0.4236928 -0.57223,0.457784 -0.05498,0.034091 -0.597596,0.5492739 -1.204897,1.1457447 -1.105954,1.086235 -1.7760257,1.873015 -2.5345283,2.974308 -0.78403,1.138357 -1.7646207,2.896786 -1.703829,3.055321 0.022146,0.0577 1.0756233,0.07025 4.6061283,0.05659 l 4.57655,-0.01666 0.685388,-0.664815 c 0.758091,-0.734909 1.197061,-1.089739 1.963583,-1.58424 0.988322,-0.637584 2.34563,-1.279211 3.271354,-1.548234 0.187451,-0.05448 0.494081,-0.1448 0.681532,-0.199316 0.187451,-0.05451 0.480244,-0.122858 0.65067,-0.151743 0.170426,-0.02887 0.505956,-0.08836 0.744542,-0.133727 0.570176,-0.108322 3.169568,-0.11221 3.810148,-0.0052 0.87576,0.146448 1.085432,0.189343 1.549522,0.313763 2.223264,0.596041 4.319459,1.807615 5.960188,3.444951 l 0.536222,0.534938 4.567551,-0.0013 c 2.511971,-0.0012 4.592088,-0.01833 4.622848,-0.03729 0.0582,-0.03596 -0.478759,-1.12403 -0.900139,-1.823418 -0.517782,-0.859398 -1.151978,-1.777836 -1.566239,-2.270918 -0.147707,-0.175851 -0.268753,-0.341691 -0.268753,-0.36777 0,-0.04211 -0.262138,-0.333607 -1.13546,-1.26019 C 40.430599,9.4321962 38.531026,7.9526585 36.882008,7.0063451 36.096843,6.5557677 34.416135,5.7474394 34.263898,5.7474394 c -0.04524,0 -0.109081,-0.025375 -0.141448,-0.056581 C 34.002647,5.5754613 32.125592,4.9815 31.33717,4.8100004 31.166744,4.7729265 30.91542,4.7157159 30.779083,4.6826953 30.087408,4.5151523 28.738673,4.3360202 27.600316,4.2596316 27.324921,4.2412165 26.984257,4.2307548 26.616596,4.228773 Z M 10.963223,21.493409 c -3.1371095,0.0057 -5.2453161,0.02015 -5.2915186,0.04501 -0.1009338,0.05399 -0.1395223,0.151447 -0.1697413,0.428209 -0.021405,0.197005 -0.069919,0.567351 -0.1080071,0.822981 -0.095083,0.637975 -0.097156,4.540759 -0.00259,5.143637 0.04007,0.255633 0.090731,0.617529 0.111877,0.80498 0.021146,0.187475 0.066437,0.375568 0.1003042,0.417921 0.048791,0.06109 3.5397626,0.07712 16.8158348,0.07716 h 16.755396 l 0.03727,-0.169741 c 0.0204,-0.09349 0.05207,-0.212483 0.07073,-0.263613 0.01863,-0.05114 0.05464,-0.204421 0.07971,-0.340766 0.02509,-0.136337 0.08895,-0.456765 0.141448,-0.712393 0.302864,-1.474276 0.270057,-3.63406 -0.07844,-5.143637 -0.07475,-0.323799 -0.150762,-0.664758 -0.168464,-0.757402 -0.01759,-0.09264 -0.06883,-0.198758 -0.114432,-0.236606 -0.08994,-0.07468 -18.768089,-0.133042 -28.179418,-0.115729 z m 5.485687,12.760078 -4.516112,0.0013 c -2.6033547,5.5e-4 -4.5547704,0.02537 -4.606128,0.05786 -0.074122,0.0469 -0.053013,0.126468 0.1234499,0.478359 1.0917012,2.177206 2.6862661,4.310997 4.4595321,5.967905 0.38189,0.356825 0.779548,0.71196 0.884707,0.78955 0.105192,0.07758 0.207159,0.162038 0.22632,0.187739 0.142485,0.19136 1.598362,1.232879 2.439369,1.744979 0.762497,0.464293 2.044726,1.105298 2.863719,1.432508 0.443092,0.177018 0.860246,0.344717 0.928428,0.37291 0.06816,0.02818 0.236569,0.08495 0.372912,0.126024 0.136319,0.04109 0.303472,0.09773 0.371628,0.124727 0.205441,0.08132 0.518963,0.16876 1.332203,0.371628 1.133143,0.282677 1.830681,0.401633 2.834143,0.483504 0.314522,0.02568 0.591317,0.06666 0.615952,0.0913 0.06097,0.06097 3.000762,0.0039 3.768999,-0.07331 0.34084,-0.03411 0.800756,-0.09145 1.022299,-0.128579 0.22154,-0.03713 0.557089,-0.09223 0.74454,-0.122172 1.965523,-0.313963 4.873638,-1.399298 6.724018,-2.508803 1.275636,-0.764893 2.706997,-1.798947 3.219921,-2.326215 0.16913,-0.173852 0.338231,-0.316328 0.375482,-0.316335 0.06577,0 1.098352,-1.054898 1.742412,-1.779695 0.389824,-0.4387 1.193355,-1.49686 1.612524,-2.124322 0.849627,-1.271808 1.615177,-2.726806 1.476225,-2.804568 -0.04787,-0.02665 -2.137383,-0.04161 -4.643416,-0.03214 l -4.555973,0.01669 -0.10673,0.155595 c -0.05899,0.08519 -0.17837,0.21828 -0.264902,0.295759 -0.08655,0.07749 -0.366748,0.329021 -0.622378,0.559371 -1.829719,1.648794 -4.026641,2.726743 -6.460409,3.169766 -0.195985,0.03568 -0.502591,0.09484 -0.681532,0.131153 -0.396447,0.08053 -3.270195,0.04127 -3.765142,-0.05144 -0.187475,-0.03511 -0.451321,-0.08466 -0.58766,-0.109303 -1.414404,-0.256432 -3.426206,-1.074553 -4.644705,-1.889 -0.07649,-0.05111 -0.248391,-0.165649 -0.381915,-0.25461 -0.517377,-0.344668 -1.256293,-0.966843 -1.768124,-1.490369 z" />
  </g>
</svg>
