<svg width="192" height="192" viewBox="0 0 192 192" fill="none" xmlns="http://www.w3.org/2000/svg"><path d="M130.58 59A47.805 47.805 0 0 0 100 48a47.804 47.804 0 0 0-30.58 11H35.9C48.695 36.881 72.61 22 100 22c27.39 0 51.305 14.881 64.1 37h-33.52ZM148 96a48.06 48.06 0 0 0-1.781-13H27.138A74.46 74.46 0 0 0 26 96c0 4.435.39 8.779 1.138 13H146.22A48.059 48.059 0 0 0 148 96Zm-48 74c27.39 0 51.305-14.881 64.1-37h-33.52A47.804 47.804 0 0 1 100 144a47.804 47.804 0 0 1-30.58-11H35.9c12.795 22.119 36.71 37 64.1 37Z" stroke="#000" stroke-width="12" stroke-linecap="round" stroke-linejoin="round"/></svg>