<?xml version="1.0" standalone="no"?>
<!DOCTYPE svg PUBLIC "-//W3C//DTD SVG 20010904//EN"
 "http://www.w3.org/TR/2001/REC-SVG-20010904/DTD/svg10.dtd">
<svg version="1.0" xmlns="http://www.w3.org/2000/svg"
 width="192" height="192" viewBox="0 0 192 192"
 preserveAspectRatio="xMidYMid meet">
<metadata>
Created by potrace 1.16, written by Peter Selinger 2001-2019
</metadata>
<g transform="translate(0.000000,180.000000) scale(0.100000,-0.100000)"
fill="#000000" stroke="none">
<path d="M0 900 l0 -900 900 0 900 0 0 900 0 900 -900 0 -900 0 0 -900z m1020
765 c60 -12 158 -46 169 -59 7 -9 1 -43 -24 -122 -43 -135 -44 -159 -7 -178
29 -15 181 -46 225 -46 36 0 77 -63 102 -156 16 -60 17 -75 5 -148 -7 -45 -19
-99 -27 -121 -25 -71 -95 -175 -154 -228 -56 -51 -57 -52 -42 -77 l15 -25 39
37 c43 41 85 53 155 45 155 -17 198 -215 65 -304 -40 -27 -122 -31 -174 -9
-36 14 -87 69 -87 92 0 17 -12 18 -27 3 -9 -9 -5 -21 14 -50 34 -51 26 -69
-31 -69 -46 0 -63 10 -93 56 -21 33 -33 30 -33 -10 0 -37 -12 -46 -60 -46 -50
0 -60 9 -60 52 l0 41 -20 -25 c-68 -87 -240 -74 -295 23 l-20 36 -28 -39 c-35
-49 -95 -77 -164 -78 l-53 0 0 -51 c0 -49 -22 -113 -43 -126 -6 -3 -21 7 -34
23 -18 23 -23 41 -23 92 l0 62 -49 0 c-46 0 -51 3 -71 35 -36 58 -26 71 52 67
l66 -4 3 74 c4 63 9 81 32 112 28 36 92 76 122 76 11 0 3 16 -26 52 -113 143
-154 331 -115 519 45 212 237 409 441 452 30 6 55 15 55 19 0 5 11 6 24 2 14
-3 33 -1 43 5 18 10 65 9 133 -4z"/>
<path d="M843 1633 c-18 -2 -33 -8 -33 -12 0 -4 -13 -8 -30 -9 -16 0 -44 -7
-62 -15 -18 -8 -41 -17 -50 -21 -17 -5 -16 -8 1 -48 20 -48 30 -52 47 -18 8
15 13 18 17 8 4 -10 8 -10 17 2 10 13 11 13 7 -1 -3 -9 4 -24 14 -33 17 -14
43 -16 186 -14 122 2 167 6 171 16 3 9 -25 12 -117 12 -101 0 -121 2 -121 15
0 13 21 15 130 15 80 0 130 4 130 10 0 6 -50 10 -130 10 -109 0 -130 2 -130
15 0 13 23 15 143 15 127 1 140 2 123 15 -15 11 -50 15 -143 15 -103 0 -123 2
-123 15 0 8 -3 14 -7 13 -5 0 -23 -3 -40 -5z"/>
<path d="M514 1467 c-110 -112 -174 -256 -174 -389 l0 -58 61 0 61 0 -4 -37
c-3 -33 0 -38 21 -41 30 -5 48 12 34 30 -7 8 -7 22 -2 36 7 19 16 22 63 22
l56 0 -6 29 c-12 58 47 212 88 229 13 6 9 31 -12 73 l-21 40 31 17 c49 28 31
44 -31 28 -23 -7 -27 -2 -49 43 -13 28 -28 51 -34 51 -6 0 -43 -33 -82 -73z
m-55 -218 c6 -18 11 -33 11 -34 0 0 -16 -1 -35 -2 -19 -1 -33 2 -30 7 2 4 9
19 14 34 14 35 27 33 40 -5z m76 -4 c0 -25 -4 -30 -27 -33 -26 -3 -28 -1 -28
33 0 34 2 36 28 33 23 -3 27 -8 27 -33z m65 7 c0 -32 -16 -53 -36 -45 -19 7
-18 23 1 23 9 0 15 9 15 25 0 14 5 25 10 25 6 0 10 -13 10 -28z"/>
<path d="M500 1245 c0 -8 5 -15 10 -15 6 0 10 7 10 15 0 8 -4 15 -10 15 -5 0
-10 -7 -10 -15z"/>
<path d="M790 1430 c0 -6 60 -10 160 -10 100 0 160 4 160 10 0 6 -60 10 -160
10 -100 0 -160 -4 -160 -10z"/>
<path d="M750 1371 c0 -10 13 -12 55 -9 82 7 89 24 10 23 -48 0 -65 -4 -65
-14z"/>
<path d="M1015 1376 c35 -18 65 -20 65 -6 0 6 -10 10 -22 10 -13 0 -34 3 -48
5 -22 5 -21 3 5 -9z"/>
<path d="M800 1279 c-103 -41 -152 -206 -95 -318 56 -111 186 -162 272 -106
46 30 20 90 -42 97 l-30 3 -2 159 c-1 119 -5 161 -15 167 -17 11 -57 10 -88
-2z"/>
<path d="M920 1111 l0 -129 163 -4 c161 -3 162 -3 183 21 17 20 26 23 58 17
39 -7 56 -30 37 -49 -21 -21 -11 -35 36 -46 37 -10 48 -9 55 1 5 7 7 56 5 108
-3 77 -9 106 -31 153 l-27 57 -240 0 -239 0 0 -129z m140 4 c0 -8 5 -15 10
-15 6 0 10 7 10 15 0 8 5 15 11 15 7 0 9 -10 4 -27 -8 -35 -22 -50 -34 -37
-16 15 -25 64 -12 64 6 0 11 -7 11 -15z m86 -2 c0 -10 -5 -21 -11 -25 -6 -5
-5 -8 3 -8 6 0 12 -4 12 -10 0 -5 -9 -10 -20 -10 -16 0 -20 7 -20 35 0 28 4
35 19 35 12 0 18 -7 17 -17z m67 2 c4 -8 2 -17 -3 -20 -5 -3 -7 -12 -4 -19 4
-9 -3 -13 -20 -13 -23 0 -26 4 -26 33 0 29 3 34 24 34 13 0 26 -7 29 -15z m62
-20 c0 -25 -4 -30 -25 -30 -14 0 -25 6 -24 13 1 6 2 21 3 33 1 15 7 20 23 17
17 -2 22 -10 23 -33z"/>
<path d="M582 931 c11 -28 24 -51 28 -51 4 0 15 9 24 19 14 16 16 26 9 48 -8
23 -16 29 -46 31 l-36 3 21 -50z"/>
<path d="M1277 948 l6 -31 -40 6 c-36 6 -43 4 -57 -18 -46 -70 -125 -115 -220
-124 l-60 -6 -10 -49 c-13 -57 -29 -67 -55 -34 -23 28 -37 18 -47 -31 -8 -36
-7 -36 56 -20 11 3 15 -4 15 -23 -1 -23 5 -30 32 -39 18 -6 46 -24 62 -40 l30
-29 3 32 3 33 114 0 114 0 66 61 c69 64 126 148 137 200 5 29 4 30 -51 48 -62
19 -76 37 -51 65 16 17 16 19 1 25 -9 3 -25 6 -36 6 -15 0 -17 -5 -12 -32z
m-1 -196 c-3 -6 -16 -8 -29 -4 -19 5 -20 3 -9 -10 8 -10 9 -18 3 -22 -6 -4
-18 5 -27 19 -19 29 -32 27 -13 -3 17 -27 4 -54 -23 -50 -13 2 -32 -6 -45 -20
-19 -19 -26 -21 -44 -12 -24 13 -22 48 3 64 13 8 23 8 37 -1 16 -10 18 -9 14
8 -7 25 14 25 22 -1 3 -11 11 -20 16 -20 12 0 11 6 -3 30 -11 16 -9 22 7 34
11 9 29 12 40 9 17 -5 18 -4 8 9 -7 8 -10 18 -6 22 10 10 57 -40 49 -52z
m-211 -94 c8 -30 -10 -39 -33 -16 -9 9 -12 8 -12 -5 0 -9 -4 -17 -10 -17 -5 0
-10 9 -10 19 0 11 -3 26 -6 35 -4 11 -1 16 10 16 9 0 16 -4 16 -10 0 -5 5 -10
10 -10 6 0 10 8 10 17 0 24 17 4 25 -29z"/>
<path d="M1090 686 c0 -8 4 -17 9 -20 11 -7 33 18 24 27 -12 12 -33 7 -33 -7z"/>
<path d="M356 949 c10 -12 58 -55 107 -96 48 -41 87 -79 87 -85 0 -6 -16 -28
-35 -49 -41 -46 -42 -50 -14 -75 21 -19 22 -19 64 30 l43 49 29 -21 c15 -11
39 -32 52 -46 32 -34 37 -33 44 10 6 34 3 40 -36 75 l-42 37 29 30 c28 30 28
31 10 56 -11 14 -22 26 -26 26 -3 0 -19 -16 -35 -35 l-29 -34 -44 39 c-33 28
-51 37 -68 33 -34 -8 -75 23 -69 53 4 22 1 24 -41 24 l-45 0 19 -21z"/>
<path d="M360 892 c0 -12 19 -26 26 -19 2 2 -2 10 -11 17 -9 8 -15 8 -15 2z"/>
<path d="M720 809 c-6 -10 -7 -20 -3 -22 20 -11 115 -28 121 -22 4 4 1 10 -5
12 -7 3 -33 15 -58 28 -43 21 -46 22 -55 4z"/>
<path d="M395 813 c11 -11 97 -34 103 -28 7 6 -33 23 -73 30 -26 5 -37 4 -30
-2z"/>
<path d="M400 783 c0 -12 49 -83 58 -82 4 0 17 13 30 29 l23 29 -41 11 c-23 6
-48 14 -56 17 -8 3 -14 1 -14 -4z"/>
<path d="M729 754 c13 -9 44 -18 70 -20 l46 -4 -40 14 c-22 7 -53 16 -70 20
l-30 7 24 -17z"/>
<path d="M570 638 c-18 -24 -21 -33 -11 -36 7 -2 22 -13 31 -22 22 -22 60 -43
66 -37 6 6 -43 121 -52 124 -5 1 -20 -12 -34 -29z"/>
<path d="M684 595 c9 -21 16 -39 16 -42 0 -2 4 -1 10 2 6 4 4 17 -5 35 -22 43
-38 47 -21 5z"/>
<path d="M775 600 c-19 -8 -19 -9 3 -9 12 -1 22 4 22 9 0 6 -1 10 -2 9 -2 0
-12 -4 -23 -9z"/>
<path d="M458 564 c33 -64 126 -142 147 -124 8 7 12 5 12 -4 0 -7 -8 -18 -18
-24 -14 -9 -17 -9 -13 1 2 7 -10 21 -28 31 -49 28 -87 66 -109 109 l-20 38
-28 -17 c-48 -29 -71 -81 -71 -164 l0 -73 -75 6 c-41 4 -75 5 -75 2 0 -2 12
-17 28 -34 21 -23 37 -30 72 -33 l45 -3 3 -62 c3 -57 5 -63 25 -64 17 -1 18
-2 5 -6 -20 -5 -24 -18 -9 -28 20 -12 41 40 41 102 l0 63 60 0 c72 0 114 16
154 59 24 25 31 42 34 90 4 57 3 59 -24 73 -20 9 -28 21 -27 35 4 33 -31 56
-93 61 l-56 5 20 -39z m58 -24 c9 0 14 -5 12 -12 -6 -18 -28 -22 -28 -5 0 8
-7 20 -15 27 -8 7 -15 17 -15 23 0 6 7 1 16 -11 8 -12 22 -22 30 -22z m-106
-226 c0 -2 -13 -4 -30 -4 -16 0 -30 4 -30 8 0 5 14 7 30 4 17 -2 30 -6 30 -8z"/>
<path d="M743 550 c-150 -91 -43 -315 130 -270 134 36 158 213 37 275 -42 22
-128 19 -167 -5z m145 -76 c28 -32 28 -66 -1 -100 -59 -68 -164 3 -125 84 15
32 55 54 83 46 11 -3 30 -17 43 -30z"/>
<path d="M779 447 c-14 -32 4 -75 35 -83 50 -12 91 39 66 85 -16 31 -86 30
-101 -2z"/>
<path d="M1365 551 c-50 -31 -68 -57 -73 -112 -6 -64 16 -110 67 -141 46 -29
124 -30 171 -2 97 57 95 211 -4 258 -46 22 -124 21 -161 -3z m138 -73 c24 -28
22 -90 -3 -113 -30 -27 -88 -25 -111 4 -65 79 47 186 114 109z"/>
<path d="M1410 470 c-45 -45 -6 -121 54 -106 51 13 55 90 6 116 -27 14 -37 13
-60 -10z"/>
<path d="M1010 416 l0 -146 40 0 40 0 0 40 c0 35 3 40 24 40 16 0 31 -12 50
-40 23 -36 31 -40 66 -40 22 0 40 3 40 8 0 4 -12 24 -26 45 l-25 38 25 30 c36
42 35 89 -3 131 -29 33 -31 33 -130 36 l-101 4 0 -146z m161 65 c20 -16 22
-23 13 -38 -13 -22 -56 -38 -78 -30 -16 6 -23 66 -9 80 13 13 51 7 74 -12z"/>
<path d="M1117 456 c-4 -9 -2 -18 4 -21 14 -9 51 5 46 18 -6 18 -44 20 -50 3z"/>
</g>
</svg>
