<svg xmlns="http://www.w3.org/2000/svg" width="192" height="192" fill="none"><path stroke="#000" stroke-linecap="round" stroke-linejoin="round" stroke-width="10" d="m91 61 5-5 5 5-5 5zm0 70 5-5 5 5-5 5z"/><path stroke="#000" stroke-linecap="round" stroke-linejoin="round" stroke-width="12" d="M96 22c-21.54 0-39 17.46-39 39 0 15.356 8.875 28.64 21.776 35C65.875 102.361 57 115.644 57 131c0 21.539 17.46 39 39 39s39-17.461 39-39c0-15.356-8.875-28.639-21.776-35C126.125 89.64 135 76.356 135 61c0-21.54-17.461-39-39-39"/></svg>