<svg width="192" height="192" viewBox="0 0 192 192" fill="none" xmlns="http://www.w3.org/2000/svg"><path d="M58 56H27a6 6 0 0 0-6 6v68a6 6 0 0 0 6 6h31m76-80h31a6 6 0 0 1 6 6v68a6 6 0 0 1-6 6h-31" stroke="#000" stroke-width="10" stroke-linecap="round" stroke-linejoin="round"/><circle cx="96" cy="96" r="54" stroke="#000" stroke-width="12" stroke-linecap="round" stroke-linejoin="round"/><path d="M104.761 93.188a13 13 0 1 0-6.729-25.114" stroke="#000" stroke-width="10" stroke-linecap="round" stroke-linejoin="round"/><path d="M111.491 118.302a12.998 12.998 0 0 0 9.192-15.921 12.998 12.998 0 0 0-15.922-9.193" stroke="#000" stroke-width="10" stroke-linecap="round" stroke-linejoin="round"/><path d="m93.064 61.123 2.07 7.728m13.459 50.228 2.071 7.727M81.473 64.229l2.07 7.727m13.459 50.229 2.07 7.727" stroke="#000" stroke-width="8" stroke-linecap="round" stroke-linejoin="round"/><path d="m78.681 100.176 26.08-6.988m-6.729-25.114L77.748 73.51a6 6 0 0 0-4.243 7.349l10.353 38.637a6 6 0 0 0 7.348 4.242l20.285-5.435" stroke="#000" stroke-width="10" stroke-linecap="round" stroke-linejoin="round"/></svg>