<?xml version="1.0" encoding="UTF-8" standalone="no"?>
<svg
   width="192"
   height="192"
   version="1.1"
   id="svg1"
   xml:space="preserve"
   xmlns="http://www.w3.org/2000/svg"
   xmlns:svg="http://www.w3.org/2000/svg"><defs
     id="defs1" /><ellipse
     style="opacity:1;fill:none;fill-opacity:1;stroke:#000000;stroke-width:12;stroke-linecap:round;stroke-linejoin:miter;stroke-dasharray:none;stroke-opacity:1"
     id="path3"
     cx="96"
     cy="95.999985"
     rx="74"
     ry="34.907433" /><ellipse
     style="opacity:1;fill:none;fill-opacity:1;stroke:#000000;stroke-width:12;stroke-linecap:round;stroke-linejoin:miter;stroke-dasharray:none;stroke-opacity:1"
     id="path3-3"
     cx="131.0948"
     cy="-35.047279"
     rx="73.971687"
     ry="34.920795"
     transform="matrix(0.50019138,0.86591488,-0.86613585,0.49980865,0,0)" /><ellipse
     style="opacity:1;fill:none;fill-opacity:1;stroke:#000000;stroke-width:12;stroke-linecap:round;stroke-linejoin:miter;stroke-dasharray:none;stroke-opacity:1"
     id="path3-3-2"
     cx="35.2033"
     cy="131.08403"
     rx="73.971687"
     ry="34.920795"
     transform="matrix(-0.50019138,0.86591488,0.86613585,0.49980865,0,0)" /><path
     style="opacity:1;fill:none;stroke:#000000;stroke-width:6;stroke-linecap:round;stroke-linejoin:miter;stroke-dasharray:none;stroke-opacity:1"
     d="M 90.52793,74.990905 V 117.00896"
     id="path4" /><path
     style="fill:none;stroke:#000000;stroke-width:6;stroke-linecap:round;stroke-linejoin:miter;stroke-dasharray:none;stroke-opacity:1"
     d="m 83.667252,81.925604 17.631818,10e-7 c 2.51289,2e-6 4.8349,1.341284 6.09135,3.5186 1.25645,2.177316 1.25645,4.859881 0,7.037197 -1.25645,2.177317 -3.57846,3.518599 -6.09135,3.518598 3.8846,-10e-7 7.03368,3.150659 7.03368,7.0372 0,3.88654 -3.14908,7.0372 -7.03368,7.0372 H 83.667252"
     id="path6" /><path
     style="fill:none;stroke:#000000;stroke-width:5.99999;stroke-linecap:square;stroke-linejoin:miter;stroke-dasharray:none;stroke-opacity:1"
     d="M 101.43092,95.999998 H 90.569083"
     id="path7" /><path
     style="opacity:1;fill:none;stroke:#000000;stroke-width:6;stroke-linecap:round;stroke-linejoin:miter;stroke-dasharray:none;stroke-opacity:1"
     d="m 98.387334,81.925605 -0.05324,-6.9347"
     id="path9-1" /><path
     style="fill:none;stroke:#000000;stroke-width:6;stroke-linecap:round;stroke-linejoin:miter;stroke-dasharray:none;stroke-opacity:1"
     d="m 98.387785,117.0091 -0.05324,-6.93471"
     id="path9-1-6" /></svg>
