<svg xmlns="http://www.w3.org/2000/svg" width="192" height="192" fill="none"><path stroke="#000" stroke-linecap="round" stroke-linejoin="round" stroke-width="10" d="M56 72v48m80-48v48M56 96h27m0 40v28.169l9.937 5.979a5.93 5.93 0 0 0 6.126 0l58-34.899a6.1 6.1 0 0 0 2.937-5.228V61.979a6.1 6.1 0 0 0-2.937-5.228L136 44.077M109 136V27.831l-9.937-5.979a5.93 5.93 0 0 0-6.126 0l-58 34.899A6.1 6.1 0 0 0 32 61.979v68.042a6.1 6.1 0 0 0 2.937 5.228L56 147.923M56 72l27-16m53 16-27-16m-53 64 27 16m53-16-27 16"/><circle cx="56" cy="148" r="4" stroke="#000" stroke-linecap="round" stroke-linejoin="round" stroke-width="8"/><circle cx="136" cy="44" r="4" stroke="#000" stroke-linecap="round" stroke-linejoin="round" stroke-width="8"/></svg>