<svg width="192" height="192" viewBox="0 0 192 192" fill="none" xmlns="http://www.w3.org/2000/svg"><path d="M101 110a6.999 6.999 0 1 0 0-14m0 0a7 7 0 1 0 0-14m-5-6v6m0 28v6M86 96h15" stroke="#000" stroke-width="8" stroke-linecap="round" stroke-linejoin="round"/><path d="M101 82H86v28h15" stroke="#000" stroke-width="8" stroke-linecap="round" stroke-linejoin="round"/><ellipse cx="96" cy="96" rx="75" ry="34" stroke="#000" stroke-width="10" stroke-linecap="round" stroke-linejoin="round"/><path d="M58.5 31.048C74.762 21.66 104.734 43.128 125.445 79c20.711 35.872 24.317 72.563 8.055 81.952-16.262 9.389-46.234-12.08-66.945-47.952-20.71-35.872-24.317-72.563-8.055-81.952Z" stroke="#000" stroke-width="10" stroke-linecap="round" stroke-linejoin="round"/><path d="M58.5 160.952c-16.262-9.389-12.656-46.08 8.055-81.952 20.71-35.872 50.683-57.34 66.945-47.952 16.262 9.389 12.656 46.08-8.055 81.952S74.762 170.341 58.5 160.952Z" stroke="#000" stroke-width="10" stroke-linecap="round" stroke-linejoin="round"/></svg>