<svg xmlns="http://www.w3.org/2000/svg" width="192" height="192" fill="none" viewBox="0 0 192 192"><path stroke="#000" stroke-linecap="round" stroke-linejoin="round" stroke-width="8" d="M101 110a6.999 6.999 0 1 0 0-14m0 0a7 7 0 1 0 0-14m-5-6v6m0 28v6M86 96h15"/><path stroke="#000" stroke-linecap="round" stroke-linejoin="round" stroke-width="8" d="M101 82H86v28h15"/><ellipse cx="96" cy="96" stroke="#000" stroke-linecap="round" stroke-linejoin="round" stroke-width="10" rx="75" ry="34"/><path stroke="#000" stroke-linecap="round" stroke-linejoin="round" stroke-width="10" d="M58.5 31.048C74.762 21.66 104.734 43.128 125.445 79s24.317 72.563 8.055 81.952S87.266 148.872 66.555 113 42.238 40.437 58.5 31.048"/><path stroke="#000" stroke-linecap="round" stroke-linejoin="round" stroke-width="10" d="M58.5 160.952c-16.262-9.389-12.656-46.08 8.055-81.952s50.683-57.34 66.945-47.952 12.656 46.08-8.055 81.952-50.683 57.341-66.945 47.952"/></svg>