<svg xmlns="http://www.w3.org/2000/svg" width="192" height="192" fill="none" viewBox="0 0 192 192"><path stroke="#000" stroke-linecap="round" stroke-linejoin="round" stroke-width="10" d="M58 56H27a6 6 0 0 0-6 6v68a6 6 0 0 0 6 6h31m76-80h31a6 6 0 0 1 6 6v68a6 6 0 0 1-6 6h-31"/><circle cx="96" cy="96" r="54" stroke="#000" stroke-linecap="round" stroke-linejoin="round" stroke-width="12"/><path stroke="#000" stroke-linecap="round" stroke-linejoin="round" stroke-width="10" d="M104.761 94.188a13 13 0 0 0 9.192-15.922 13 13 0 0 0-15.921-9.192m13.458 50.228a12.997 12.997 0 0 0 9.193-15.922 13 13 0 0 0-15.922-9.192"/><path stroke="#000" stroke-linecap="round" stroke-linejoin="round" stroke-width="8" d="m95.064 61.123 2.071 7.727m13.458 50.229 2.07 7.728M79.473 65.23l2.07 7.727m13.459 50.228 2.07 7.727"/><path stroke="#000" stroke-linecap="round" stroke-linejoin="round" stroke-width="10" d="m78.682 101.177 26.08-6.988m-6.73-25.115L77.748 74.51a6 6 0 0 0-4.243 7.348l10.353 38.637a6 6 0 0 0 7.348 4.243l20.285-5.435"/></svg>