<?xml version="1.0" encoding="utf-8"?>
	<svg version="1.1" xmlns="http://www.w3.org/2000/svg" xmlns:xlink="http://www.w3.org/1999/xlink" x="0px" y="0px" width="240.0" height="240.0" xml:space="preserve">
		<path d="M110.52,20.696C132.637,17.989 152.918,23.309 172.034,34.339C189.384,44.344 202.543,58.139 211.289,76.148C214.208,82.151 213.549,84.811 207.769,88.154C180.061,104.209 152.341,120.229 124.586,136.202C118.336,139.804 111.756,141.523 105.447,136.567C95.995,129.152 96.701,117.652 106.989,111.401C118.406,104.48 129.965,97.794 141.489,91.038C149.481,86.353 157.544,81.786 165.477,77.031C171.127,73.641 171.221,71.769 166.36,67.555C142.395,46.768 107.142,45.05 81.199,63.389C59.176,78.961 47.323,107.882 53.161,132.848C60.094,162.522 78.021,181.496 108.307,187.805C112.568,188.688 117.064,188.499 121.443,188.806C132.319,189.112 142.548,186.699 152.353,182.167C167.431,175.199 172.763,177.105 181.532,194.091C183.086,197.092 181.85,199.246 179.331,201.082C159.921,215.29 138.169,221.599 114.251,219.657C73.183,216.314 44.863,194.173 28.56,157.531C11.646,119.488 22.463,62.729 67.592,36.139C80.952,28.265 95.041,22.591 110.52,20.696ZM205.804,123.502C206.863,122.948 209.523,123.325 210.029,124.137L210.029,124.137L210.537,124.962L210.537,124.962L211.045,125.787C214.512,131.439 217.858,137.301 218.234,145.43C217.774,146.537 217.468,149.48 215.844,150.774C210.9,154.741 205.533,158.213 200.095,161.474C199.247,161.98 196.422,160.791 195.716,159.65C191.726,153.199 187.924,146.619 184.51,139.863C183.898,138.651 184.84,135.484 186.029,134.743C192.432,130.694 199.083,127.021 205.804,123.502Z" fill="#000" stroke="#00000000" stroke-width="1.0" stroke-miterlimit=""/>
	</svg>
