<svg width="192" height="192" viewBox="0 0 192 192" fill="none" xmlns="http://www.w3.org/2000/svg">
<path d="M170 56.7844C120.881 65.3598 116.118 137.583 83.5559 140.111C53.5538 141.558 43.9562 121.06 44.3963 80.9882M44.3963 80.9882H28.1716C24.7916 80.9882 22.0688 83.7794 22.258 87.1541C24.4078 125.502 37.1574 163.419 83.6609 162.568C134.008 159.589 134.09 94.4645 164.958 83.5544C167.767 82.5616 170 80.1045 170 77.1252V37.4181C170 33.5995 166.453 30.7468 162.799 31.8567C107.173 48.7551 97.7264 113.343 80.814 117.034C65.9863 118.585 66.0166 103.225 65.899 86.8561C65.8756 83.5947 63.2193 80.9882 59.9578 80.9882H44.3963ZM76.9641 65.921H92.4313C95.7451 65.921 98.4313 63.2347 98.4313 59.921V45.4771C98.4313 42.1633 95.7451 39.4771 92.4313 39.4771H76.9641C73.6504 39.4771 70.9641 42.1634 70.9641 45.4771V59.921C70.9641 63.2347 73.6504 65.921 76.9641 65.921Z" stroke="black" stroke-width="12" stroke-linecap="round" stroke-linejoin="round"/>
</svg>
