<svg xmlns="http://www.w3.org/2000/svg" width="192" height="192" fill="none"><path stroke="#000" stroke-linecap="round" stroke-linejoin="round" stroke-width="12" d="M22 85v20c0 4 0 54 52 54m96-93c-46 19-33 93-96 93"/><path stroke="#000" stroke-linecap="round" stroke-linejoin="round" stroke-width="12" d="M170 39c-66 20-54 96-96 96M46 85v16c0 6 0 34 28 34"/><path stroke="#000" stroke-linejoin="round" stroke-width="12" d="M94 39H70a6 6 0 0 0-6 6v24a6 6 0 0 0 6 6h24a6 6 0 0 0 6-6V45a6 6 0 0 0-6-6Z"/></svg>