<svg width="192" height="192" fill="none" xmlns="http://www.w3.org/2000/svg"><path d="M96 22c-14 0-16 34-28 46S22 82 22 96s34 16 46 28 14 46 28 46 16-34 28-46 46-14 46-28-34-16-46-28-14-46-28-46Z" stroke="#000" stroke-width="12" stroke-linecap="round" stroke-linejoin="round"/><path d="M148.326 43.674c-9.899-9.9-35.355 12.728-52.326 12.728-16.97 0-42.426-22.627-52.326-12.728-9.9 9.9 12.728 35.356 12.728 52.326 0 16.971-22.627 42.427-12.728 52.326 9.9 9.9 35.356-12.728 52.326-12.728 16.971 0 42.427 22.628 52.326 12.728 9.9-9.899-12.728-35.355-12.728-52.326 0-16.97 22.628-42.426 12.728-52.326Z" stroke="#000" stroke-width="12" stroke-linecap="round" stroke-linejoin="round"/></svg>