<svg xmlns="http://www.w3.org/2000/svg" width="192" height="192" fill="none"><path stroke="#000" stroke-linecap="round" stroke-linejoin="round" stroke-width="12" d="M82 90a6 6 0 0 1 6-6h76a6 6 0 0 1 6 6v12a6 6 0 0 1-6 6H88a6 6 0 0 1-6-6z"/><path stroke="#000" stroke-linecap="round" stroke-linejoin="round" stroke-width="12" d="M22 96c0 40.869 33.13 74 74 74 19.872 0 37.914-7.833 51.208-20.579 2.375-2.278 2.156-6.06-.283-8.27l-8.871-8.04c-2.481-2.248-6.3-2-8.799.228C120.418 141.214 108.768 146 96 146c-27.614 0-50-22.386-50-50s22.386-50 50-50c12.768 0 24.418 4.786 33.255 12.661 2.499 2.228 6.318 2.476 8.799.228l8.871-8.04c2.439-2.21 2.658-5.992.283-8.27C133.914 29.833 115.872 22 96 22c-40.87 0-74 33.13-74 74"/></svg>