<svg width="192" height="192" fill="none" xmlns="http://www.w3.org/2000/svg"><path d="M32 71.333V58.507c0-9.682 3.605-18.968 10.021-25.814C48.438 25.846 57.141 22 66.214 22H148.1c1.563 0 3.11.328 4.554.966a11.879 11.879 0 0 1 3.861 2.753 12.783 12.783 0 0 1 2.579 4.12 13.44 13.44 0 0 1 .906 4.858v23.939a13.44 13.44 0 0 1-.906 4.86 12.784 12.784 0 0 1-2.579 4.118 11.88 11.88 0 0 1-3.861 2.753 11.255 11.255 0 0 1-4.554.966H32Zm0 0v49.334m0-49.334h81.301c1.563 0 3.111.329 4.554.967a11.878 11.878 0 0 1 3.861 2.752 12.786 12.786 0 0 1 2.58 4.12 13.44 13.44 0 0 1 .906 4.859v23.938c0 1.668-.308 3.319-.906 4.859a12.784 12.784 0 0 1-2.58 4.12 11.877 11.877 0 0 1-3.861 2.752 11.253 11.253 0 0 1-4.554.967H32m0 0v12.826c0 9.683 3.605 18.968 10.021 25.814C48.438 166.154 57.141 170 66.214 170H148.1c1.563 0 3.11-.328 4.554-.967a11.877 11.877 0 0 0 3.861-2.752 12.787 12.787 0 0 0 2.579-4.119c.598-1.541.906-3.192.906-4.859v-23.939a13.44 13.44 0 0 0-.906-4.859 12.776 12.776 0 0 0-2.579-4.119 11.88 11.88 0 0 0-3.861-2.753 11.256 11.256 0 0 0-4.554-.966H32Z" stroke="#000" stroke-width="12" stroke-linecap="round" stroke-linejoin="round"/></svg>