<svg xmlns="http://www.w3.org/2000/svg" width="192" height="192" fill="none"><path stroke="#000" stroke-linecap="round" stroke-linejoin="round" stroke-width="12" d="M32 71.333V58.507c0-9.682 3.605-18.968 10.021-25.814C48.438 25.846 57.141 22 66.214 22H148.1c1.563 0 3.11.328 4.554.966a11.9 11.9 0 0 1 3.861 2.753 12.8 12.8 0 0 1 2.579 4.12 13.4 13.4 0 0 1 .906 4.858v23.939a13.4 13.4 0 0 1-.906 4.86 12.8 12.8 0 0 1-2.579 4.118 11.9 11.9 0 0 1-3.861 2.753 11.3 11.3 0 0 1-4.554.966zm0 0v49.334m0-49.334h81.301c1.563 0 3.111.329 4.554.967a11.9 11.9 0 0 1 3.861 2.752 12.8 12.8 0 0 1 2.58 4.12 13.4 13.4 0 0 1 .906 4.859v23.938c0 1.668-.308 3.319-.906 4.859a12.8 12.8 0 0 1-2.58 4.12 11.9 11.9 0 0 1-3.861 2.752 11.25 11.25 0 0 1-4.554.967H32m0 0v12.826c0 9.683 3.605 18.968 10.021 25.814C48.438 166.154 57.141 170 66.214 170H148.1c1.563 0 3.11-.328 4.554-.967a11.9 11.9 0 0 0 3.861-2.752 12.8 12.8 0 0 0 2.579-4.119c.598-1.541.906-3.192.906-4.859v-23.939a13.4 13.4 0 0 0-.906-4.859 12.8 12.8 0 0 0-2.579-4.119 11.9 11.9 0 0 0-3.861-2.753 11.3 11.3 0 0 0-4.554-.966z"/></svg>