<svg xmlns="http://www.w3.org/2000/svg" width="192" height="192" fill="none"><path stroke="#000" stroke-linecap="round" stroke-linejoin="round" stroke-width="12" d="m86.266 24.525-50 27.818A19.97 19.97 0 0 0 26 69.789v52.422a19.97 19.97 0 0 0 10.266 17.446l50 27.818a20.02 20.02 0 0 0 19.468 0l50-27.818A19.97 19.97 0 0 0 166 122.211V69.789c0-7.244-3.929-13.92-10.266-17.446l-50-27.818a20.02 20.02 0 0 0-19.468 0"/><path stroke="#000" stroke-linecap="round" stroke-linejoin="round" stroke-width="12" d="M96 60 64 78.234v35.532L96 132l32-18.234V78.234zm56-6-24 24M40 54l24 24m88 60-24-24m-88 24 24-24m32-89v35m0 72v35"/></svg>