<svg width="192" height="192" fill="none" xmlns="http://www.w3.org/2000/svg"><path d="m86.266 24.525-50 27.818A19.967 19.967 0 0 0 26 69.789v52.422a19.965 19.965 0 0 0 10.266 17.446l50 27.818a20.023 20.023 0 0 0 19.468 0l50-27.818A19.966 19.966 0 0 0 166 122.211V69.789c0-7.244-3.929-13.92-10.266-17.446l-50-27.818a20.025 20.025 0 0 0-19.468 0Z" stroke="#000" stroke-width="12" stroke-linecap="round" stroke-linejoin="round"/><path d="M96 60 64 78.234v35.532L96 132l32-18.234V78.234L96 60Zm56-6-24 24M40 54l24 24m88 60-24-24m-88 24 24-24m32-89v35m0 72v35" stroke="#000" stroke-width="12" stroke-linecap="round" stroke-linejoin="round"/></svg>