<svg xmlns="http://www.w3.org/2000/svg" width="192" height="192" fill="none"><path stroke="#000" stroke-linecap="round" stroke-linejoin="round" stroke-width="10" d="m118 153 10-10V98l16-16m-32 89h17c26 0 26-28 26-28v-6c0-6-4-10-4-10M51 162h23c26 0 26-18 26-18v-6c0-6-4-10-4-10m16-41 16-16V37l16-16m-55 8v29m-5-37 10 14m-40 93 4 8m17-8 4 8"/><path stroke="#000" stroke-linecap="round" stroke-linejoin="round" stroke-width="10" d="M56 109h91l10-10M60 87h26l8.243-8.243c1.125-1.125 1.773-2.68 1.7-4.27-1.105-24.244-18.295-28.32-29.464-28.384C60.892 46.071 57 50.958 57 56.546V61m3 26-4-4m4 4 29-29m-33 51c-18 0-18-16-18-16V73c0-4-4-8-4-8m17 97c-18 0-18-16-18-16v-20c0-4-4-8-4-8"/><ellipse cx="160" cy="96" stroke="#000" stroke-linecap="round" stroke-linejoin="round" stroke-width="10" rx="3" ry="9" transform="rotate(45 160 96)"/></svg>