<svg width="192" height="192" viewBox="0 0 192 192" fill="none" xmlns="http://www.w3.org/2000/svg">
<circle cx="68" cy="124" r="47" stroke="black" stroke-width="10"/>
<path d="M91.066 113.641C92.8687 121.726 91.0527 129.012 87.0098 129.913C82.9669 130.814 78.2281 124.99 76.4254 116.905C74.6227 108.819 76.4388 101.533 80.4816 100.632C84.5245 99.7307 89.2633 105.555 91.066 113.641Z" stroke="black" stroke-width="6"/>
<path d="M56.9046 121.257C58.7073 129.342 56.8913 136.628 52.8484 137.529C48.8055 138.431 44.0668 132.607 42.2641 124.521C40.4614 116.435 42.2774 109.15 46.3203 108.248C50.3631 107.347 55.1019 113.171 56.9046 121.257Z" stroke="black" stroke-width="6"/>
<path d="M134.333 116L150.284 114.398C154.258 114.081 157.414 110.925 157.731 106.951L158.76 94.0612C158.896 92.3581 159.565 90.7413 160.674 89.4409L169.061 79.5994C171.646 76.5649 171.646 72.1018 169.06 69.0672L160.674 59.2257C159.565 57.9254 158.896 56.3086 158.76 54.6055L157.731 41.7161C157.414 37.7418 154.258 34.5859 150.284 34.2687L137.394 33.2401C135.691 33.1042 134.075 32.4345 132.774 31.3264L122.933 22.9395C119.898 20.3535 115.435 20.3535 112.401 22.9395L102.559 31.3264C101.259 32.4345 99.6419 33.1042 97.9388 33.2401L85.0494 34.2687C81.0751 34.5859 77.9192 37.7418 77.602 41.7161L76 57.6667" stroke="black" stroke-width="10" stroke-linecap="round" stroke-linejoin="round"/>
<path d="M23 23H39M39 23H55M39 23V57" stroke="black" stroke-width="14" stroke-linecap="round" stroke-linejoin="round"/>
<path d="M112.818 54.7507C113.139 52.3797 114.492 50.2473 116.577 48.8227C118.663 47.3981 121.311 46.7979 123.939 47.1542C126.568 47.5105 128.96 48.7941 130.591 50.7226C132.222 52.6511 132.958 55.0665 132.637 57.4375C131.788 63.6954 121.757 61.9126 121 67.5M118.134 84L118 84.9909" stroke="black" stroke-width="8" stroke-linecap="round"/>
</svg>
