<svg width="192" height="192" viewBox="0 0 192 192" fill="none" xmlns="http://www.w3.org/2000/svg"><circle cx="67" cy="83" r="5" stroke="#000" stroke-width="10" stroke-linecap="round" stroke-linejoin="round"/><circle cx="125" cy="83" r="5" stroke="#000" stroke-width="10" stroke-linecap="round" stroke-linejoin="round"/><circle cx="96" cy="98" r="4" stroke="#000" stroke-width="8" stroke-linecap="round" stroke-linejoin="round"/><path d="M96 110a10.002 10.002 0 0 1-13.827 9.239A10.001 10.001 0 0 1 76 110m40 0a10.01 10.01 0 0 1-2.929 7.071A10.008 10.008 0 0 1 106 120a10.01 10.01 0 0 1-7.071-2.929A10.007 10.007 0 0 1 96 110m0-12v12" stroke="#000" stroke-width="8" stroke-linecap="round" stroke-linejoin="round"/><path d="M96 148c-54.5 0-60-40-60-40-1.795-9.875.438-15.72 3.446-19.164 0 0-2.602-.47-3.818-.878a20 20 0 1 1 21.754-31.74C66.355 51.24 78.8 48 96 48m0 100c54.5 0 60-40 60-40 1.795-9.875-.438-15.72-3.446-19.164 0 0 2.602-.47 3.818-.878A19.998 19.998 0 0 0 167.321 59a20.006 20.006 0 0 0-22.497-9.319 20.001 20.001 0 0 0-10.206 6.537C125.646 51.24 113.2 48 96 48" stroke="#000" stroke-width="12" stroke-linecap="round" stroke-linejoin="round"/></svg>