<svg xmlns="http://www.w3.org/2000/svg" width="192" height="192" fill="none" viewBox="0 0 192 192"><path stroke="#000" stroke-linecap="round" stroke-linejoin="round" stroke-width="10" d="M67 88a5 5 0 1 0 0-10 5 5 0 0 0 0 10m58 0a5 5 0 1 0 0-10 5 5 0 0 0 0 10"/><path stroke="#000" stroke-linecap="round" stroke-linejoin="round" stroke-width="8" d="M96 102a4 4 0 1 0 0-8 4 4 0 0 0 0 8"/><path stroke="#000" stroke-linecap="round" stroke-linejoin="round" stroke-width="10" d="M96 110a10 10 0 1 1-20 0m20 0a10 10 0 1 0 20 0m-20 0V98"/><path stroke="#000" stroke-linecap="round" stroke-linejoin="round" stroke-width="12" d="M96 148c-54.5 0-60-40-60-40-1.795-9.875.438-15.72 3.446-19.164 0 0-2.602-.47-3.818-.878a20 20 0 1 1 21.754-31.74C66.355 51.24 78.8 48 96 48m0 100c54.5 0 60-40 60-40 1.795-9.875-.438-15.72-3.446-19.164 0 0 2.602-.47 3.818-.878a20 20 0 0 0 12.337-11.884 19.995 19.995 0 0 0-7.983-23.955 20 20 0 0 0-26.108 4.099C125.646 51.24 113.2 48 96 48"/></svg>