<svg width="192" height="192" fill="none" xmlns="http://www.w3.org/2000/svg"><path d="M82 78a6 6 0 0 1 6-6h16a6 6 0 0 1 6 6v86a6 6 0 0 1-6 6H88a6 6 0 0 1-6-6V78Zm52 0a6 6 0 0 1 6-6h16a6 6 0 0 1 6 6v86a6 6 0 0 1-6 6h-16a6 6 0 0 1-6-6V78ZM30 78a6 6 0 0 1 6-6h16a6 6 0 0 1 6 6v86a6 6 0 0 1-6 6H36a6 6 0 0 1-6-6V78Z" stroke="#000" stroke-width="12" stroke-linecap="round" stroke-linejoin="round"/><circle cx="96" cy="36" r="14" stroke="#000" stroke-width="12" stroke-linecap="round" stroke-linejoin="round"/><circle cx="148" cy="36" r="14" stroke="#000" stroke-width="12" stroke-linecap="round" stroke-linejoin="round"/><circle cx="44" cy="36" r="14" stroke="#000" stroke-width="12" stroke-linecap="round" stroke-linejoin="round"/></svg>