<svg xmlns="http://www.w3.org/2000/svg" width="192" height="192" fill="none"><path stroke="#000" stroke-linecap="round" stroke-linejoin="round" stroke-width="12" d="M82 78a6 6 0 0 1 6-6h16a6 6 0 0 1 6 6v86a6 6 0 0 1-6 6H88a6 6 0 0 1-6-6zm52 0a6 6 0 0 1 6-6h16a6 6 0 0 1 6 6v86a6 6 0 0 1-6 6h-16a6 6 0 0 1-6-6zM30 78a6 6 0 0 1 6-6h16a6 6 0 0 1 6 6v86a6 6 0 0 1-6 6H36a6 6 0 0 1-6-6z"/><circle cx="96" cy="36" r="14" stroke="#000" stroke-linecap="round" stroke-linejoin="round" stroke-width="12"/><circle cx="148" cy="36" r="14" stroke="#000" stroke-linecap="round" stroke-linejoin="round" stroke-width="12"/><circle cx="44" cy="36" r="14" stroke="#000" stroke-linecap="round" stroke-linejoin="round" stroke-width="12"/></svg>