<svg xmlns="http://www.w3.org/2000/svg" width="192" height="192" fill="none" stroke="#000" stroke-linecap="round" stroke-linejoin="round" viewBox="0 0 192 192"><path stroke-width="10" d="M46 112s13 3 18 0 5.299-16 8-16 8 16 8 16 1 5 4 5 4-5 4-5 5.299-40 8-40 5.299 56 8 56 8-16 8-16 8 3 12 0 7.623-11 11-11 11 10 11 10"/><path stroke-width="12" d="M60.732 30C41.107 30 22 39.955 22 67.54c0 27.166 45.274 66.985 74 94.46 28.744-27.475 74-67.294 74-94.46C170 39.954 150.908 30 131.305 30 116 30 104.325 41.821 96 54.256 87.638 41.763 76 30 60.732 30"/></svg>