<svg width="192" height="192" viewBox="0 0 192 192" fill="none" xmlns="http://www.w3.org/2000/svg">
<path d="M77 52.1612C57.2202 59.3752 43.1201 78.14 43.1201 100.152C43.1201 101.503 43.1732 102.84 43.2773 104.164M77 52.1612C82.6056 50.1167 88.6674 49 94.9937 49C101.703 49 108.114 50.256 114 52.5425M77 52.1612L64 31M114 52.5425C133.247 60.0197 146.867 78.5175 146.867 100.152C146.867 101.503 146.814 102.84 146.71 104.164M114 52.5425L127.787 31M43.2773 104.164C49.4078 107.587 55.1324 110.464 60.5826 112.802M43.2773 104.164L28.9506 139M146.71 104.164C140.17 107.57 134.097 110.452 128.349 112.802M146.71 104.164L162.719 139M60.5826 112.802C84.7507 123.171 103.522 122.951 128.349 112.802M60.5826 112.802L50.8384 139M128.349 112.802L140.434 139M21 139H28.9506M28.9506 139L26.8747 144.048C23.2642 152.793 27.3112 157.531 31.9127 159.947C35.8918 162.035 40.7761 161.093 44.1674 156.444C44.437 156.075 44.6413 155.661 44.8008 155.233L50.8384 139M50.8384 139H140.434M140.434 139L148.027 155.462C148.155 155.739 148.301 156.009 148.482 156.254C151.974 160.995 158.829 160.618 160.867 159.947C165.15 158.536 167.214 154.367 166.998 149.171C166.97 148.5 166.785 147.846 166.504 147.236L162.719 139M162.719 139H171" stroke="black" stroke-width="10" stroke-linecap="round" stroke-linejoin="round"/>
<path d="M69 86C73.9399 88.4927 76.9659 88.8683 83 87M123 86C118.06 88.4927 115.034 88.8683 109 87" stroke="black" stroke-width="10" stroke-linecap="round"/>
</svg>
