<svg width="192" height="192" viewBox="0 0 192 192" fill="none" xmlns="http://www.w3.org/2000/svg">
<path d="M31.9127 159.947L34.2367 155.519L34.2367 155.519L31.9127 159.947ZM26.8747 144.048L31.4963 145.956L31.4989 145.949L26.8747 144.048ZM160.867 159.947L159.303 155.198L160.867 159.947ZM21 134C18.2386 134 16 136.239 16 139C16 141.761 18.2386 144 21 144V139V134ZM171 144C173.761 144 176 141.761 176 139C176 136.239 173.761 134 171 134V139V144ZM28.9506 139L33.5748 140.902L33.5748 140.902L28.9506 139ZM140.434 139L144.974 136.906L144.974 136.906L140.434 139ZM162.719 139L158.176 141.088L158.176 141.088L162.719 139ZM166.998 149.171L171.994 148.963L166.998 149.171ZM166.504 147.236L171.047 145.148L166.504 147.236ZM148.482 156.254L152.508 153.289L148.482 156.254ZM148.027 155.462L143.487 157.556L148.027 155.462ZM44.1674 156.444L48.2068 159.391L44.1674 156.444ZM44.8008 155.233L40.1144 153.49L44.8008 155.233ZM43.1201 100.152H48.1201C48.1201 74.7289 69.0399 54 94.9937 54V49V44C63.6495 44 38.1201 69.0745 38.1201 100.152H43.1201ZM94.9937 49V54C120.948 54 141.867 74.7289 141.867 100.152H146.867H151.867C151.867 69.0745 126.338 44 94.9937 44V49ZM43.2773 104.164L48.2619 103.772C48.168 102.579 48.1201 101.371 48.1201 100.152H43.1201H38.1201C38.1201 101.634 38.1783 103.102 38.2927 104.556L43.2773 104.164ZM146.867 100.152H141.867C141.867 101.371 141.819 102.579 141.726 103.772L146.71 104.164L151.695 104.556C151.809 103.102 151.867 101.634 151.867 100.152H146.867ZM43.2773 104.164L40.8399 108.53C60.9772 119.773 77.4369 125.587 94.4413 125.495C111.395 125.404 128.202 119.441 149.02 108.599L146.71 104.164L144.401 99.7297C124.063 110.322 108.959 115.417 94.3873 115.495C79.8662 115.574 65.1867 110.67 45.7148 99.7986L43.2773 104.164ZM44.1674 156.444L40.128 153.498C38.0651 156.325 35.8276 156.355 34.2367 155.519L31.9127 159.947L29.5887 164.374C35.956 167.716 43.4872 165.861 48.2068 159.391L44.1674 156.444ZM31.9127 159.947L34.2367 155.519C32.5269 154.622 31.4127 153.543 30.8904 152.356C30.4268 151.303 30.0813 149.383 31.4963 145.956L26.8747 144.048L22.253 142.14C20.0575 147.458 19.9303 152.279 21.738 156.385C23.487 160.358 26.6971 162.856 29.5887 164.374L31.9127 159.947ZM148.482 156.254L144.456 159.22C147.219 162.97 151.181 164.508 154.371 165.057C157.462 165.59 160.526 165.323 162.432 164.695L160.867 159.947L159.303 155.198C159.333 155.188 158.982 155.288 158.281 155.328C157.631 155.364 156.856 155.338 156.069 155.203C154.448 154.923 153.237 154.28 152.508 153.289L148.482 156.254ZM160.867 159.947L162.432 164.695C169.604 162.333 172.264 155.468 171.994 148.963L166.998 149.171L162.002 149.379C162.164 153.267 160.696 154.739 159.303 155.198L160.867 159.947ZM21 139V144H28.9506V139V134H21V139ZM26.8747 144.048L31.4989 145.949L33.5748 140.902L28.9506 139L24.3264 137.098L22.2505 142.146L26.8747 144.048ZM28.9506 139L33.5748 140.902L47.9015 106.066L43.2773 104.164L38.6531 102.262L24.3264 137.098L28.9506 139ZM60.5826 112.802L55.8962 111.059L46.1521 137.257L50.8384 139L55.5248 140.743L65.2689 114.545L60.5826 112.802ZM50.8384 139L46.1521 137.257L40.1144 153.49L44.8008 155.233L49.4871 156.976L55.5248 140.743L50.8384 139ZM50.8384 139V144H140.434V139V134H50.8384V139ZM128.349 112.802L123.809 114.896L135.893 141.094L140.434 139L144.974 136.906L132.889 110.708L128.349 112.802ZM140.434 139L135.893 141.094L143.487 157.556L148.027 155.462L152.567 153.368L144.974 136.906L140.434 139ZM162.719 139V144H171V139V134H162.719V139ZM166.504 147.236L171.047 145.148L167.262 136.912L162.719 139L158.176 141.088L161.961 149.323L166.504 147.236ZM162.719 139L167.262 136.912L151.253 102.076L146.71 104.164L142.167 106.252L158.176 141.088L162.719 139ZM166.998 149.171L171.994 148.963C171.933 147.511 171.539 146.218 171.047 145.148L166.504 147.236L161.961 149.323C161.994 149.395 162.006 149.437 162.009 149.449C162.012 149.46 162.005 149.436 162.002 149.379L166.998 149.171ZM148.482 156.254L152.508 153.289C152.554 153.352 152.579 153.395 152.587 153.408C152.593 153.42 152.587 153.41 152.567 153.368L148.027 155.462L143.487 157.556C143.699 158.016 144.007 158.61 144.456 159.22L148.482 156.254ZM44.1674 156.444L48.2068 159.391C48.8097 158.564 49.2107 157.719 49.4871 156.976L44.8008 155.233L40.1144 153.49C40.1047 153.516 40.0966 153.535 40.0907 153.549C40.0848 153.562 40.0815 153.569 40.0813 153.569C40.0807 153.57 40.0946 153.543 40.128 153.498L44.1674 156.444Z" fill="black"/>
<path d="M64 31L75.9601 50" stroke="black" stroke-width="12" stroke-linecap="round"/>
<path d="M127.787 31L115.827 50" stroke="black" stroke-width="12" stroke-linecap="round"/>
<path d="M69 86C73.9399 88.4927 76.9659 88.8683 83 87" stroke="black" stroke-width="10" stroke-linecap="round"/>
<path d="M123 86C118.06 88.4927 115.034 88.8683 109 87" stroke="black" stroke-width="10" stroke-linecap="round"/>
</svg>
