<svg xmlns="http://www.w3.org/2000/svg" width="192" height="192" fill="none" viewBox="0 0 192 192"><path stroke="#000" stroke-linecap="round" stroke-linejoin="round" stroke-width="12" d="M86 130H31a6 6 0 0 1-6-6V31a6 6 0 0 1 6-6h69a6 6 0 0 1 6 6v58"/><path stroke="#000" stroke-linecap="round" stroke-linejoin="round" stroke-width="12" d="M78 88H56a6 6 0 0 1-6-6V52a6 6 0 0 1 6-6h22M50 67h22m95 61v33a6 6 0 0 1-6 6H92a6 6 0 0 1-6-6v-33"/><path stroke="#000" stroke-linecap="round" stroke-linejoin="round" stroke-width="12" d="M97.86 97.86c24.023-23.248 41.789 2.735 41.789 15.519 0 27.059-29.487 44.81-47.649 51.621"/><path stroke="#000" stroke-linecap="round" stroke-linejoin="round" stroke-width="12" d="M167 126.5a40.5 40.5 0 0 0-11.862-28.638A40.5 40.5 0 0 0 126.5 86 40.5 40.5 0 0 0 86 126.5"/></svg>