<svg width="192" height="192" viewBox="0 0 192 192" fill="none" xmlns="http://www.w3.org/2000/svg"><path d="M86 130H31a6 6 0 0 1-6-6V31a6 6 0 0 1 6-6h69a6 6 0 0 1 6 6v58" stroke="#000" stroke-width="12" stroke-linecap="round" stroke-linejoin="round"/><path d="M78 88H56a6 6 0 0 1-6-6V52a6 6 0 0 1 6-6h22M50 67h22m95 61v33a6 6 0 0 1-6 6H92a6 6 0 0 1-6-6v-33" stroke="#000" stroke-width="12" stroke-linecap="round" stroke-linejoin="round"/><path d="M97.86 97.86c24.023-23.248 41.789 2.735 41.789 15.519 0 27.059-29.487 44.81-47.649 51.621" stroke="#000" stroke-width="12" stroke-linecap="round" stroke-linejoin="round"/><path d="M167 126.5a40.507 40.507 0 0 0-11.862-28.638A40.508 40.508 0 0 0 126.5 86 40.501 40.501 0 0 0 86 126.5" stroke="#000" stroke-width="12" stroke-linecap="round" stroke-linejoin="round"/></svg>