<svg width="192" height="192" viewBox="0 0 192 192" fill="none" xmlns="http://www.w3.org/2000/svg"><path d="M36 87 22 97l14 10m120 0 14-10-14-10m-35 39 20-60M59.917 96H104c0-4.747-1.349-9.387-3.876-13.334-2.527-3.947-6.12-7.023-10.322-8.84a22.11 22.11 0 0 0-13.29-1.365c-4.46.926-8.559 3.212-11.775 6.568-3.217 3.357-5.408 7.633-6.295 12.289a24.97 24.97 0 0 0 1.309 13.866c1.74 4.386 4.689 8.134 8.47 10.771C72.005 118.592 76.452 120 81 120c10.542 0 18.208-2.88 18.208-2.88" stroke="#000" stroke-width="12" stroke-linecap="round" stroke-linejoin="round"/></svg>