<svg xmlns="http://www.w3.org/2000/svg" width="192" height="192" fill="none"><path stroke="#000" stroke-linecap="round" stroke-linejoin="round" stroke-width="10" d="M74.76 29.117c8.596-3.523 18.084-5.454 28.083-5.454 19.39 0 37.208 7.688 50.087 21.709 8.744 9.481 14.708 21.269 17.451 34.191 3.769 17.865-9.988 34.668-28.244 34.668H78.952c-3.805 0-5.707 4.539-3.073 7.285 6.951 7.321 16.976 10.762 26.964 10.762 10.208 0 19.867-2.709 27.184-7.65 8.305-5.602 19.647-3.332 25.135 5.088 5.524 8.383 2.634 19.841-5.744 25.332-13.098 8.603-29.599 13.289-46.575 13.289-19.354 0-37.355-6.92-50.635-19.549C38.232 135.5 30.548 116.757 30.548 96c0-8.747 1.485-17.096 4.203-24.794m68.095-11.472c10.917 0 20.13 4.925 26.052 13.032 2.516 3.444.038 8.294-4.225 8.294H78.83c-4.38 0-6.855-5.112-4.07-8.494 6.538-7.938 16.513-12.832 28.086-12.832"/><path stroke="#000" stroke-linecap="round" stroke-linejoin="round" stroke-width="10" d="M78.692 40.007c-1.745-8.769-10.202-14.449-18.888-12.686-5.72 1.16-10.095 5.264-11.929 10.43-4.194-4.624-10.911-6.679-17.439-4.271-6.026 2.222-10.184 8.075-10.423 14.548A16.15 16.15 0 0 0 22.5 57.32c6.253 10.701 22.967 20.169 30.574 24.072 1.106.57 2.37.745 3.588.498a5.5 5.5 0 0 0 3.12-1.858c5.522-6.568 17.316-21.82 18.988-34.129a16.4 16.4 0 0 0-.077-5.897Z"/></svg>