<svg width="192" height="192" viewBox="0 0 192 192" fill="none" xmlns="http://www.w3.org/2000/svg"><path d="M72 92a6 6 0 0 1 6-6h36a6 6 0 0 1 6 6v22a6 6 0 0 1-6 6H78a6 6 0 0 1-6-6V92Zm39-20v11M81 72v11m30-12a14.997 14.997 0 0 0-9.26-13.858A14.998 14.998 0 0 0 81 71" stroke="#000" stroke-width="12" stroke-linecap="round" stroke-linejoin="round"/><path d="m36 49 60-27 60 27v43c0 52-52 78-60 78s-60-26-60-78V49Z" stroke="#000" stroke-width="12" stroke-linecap="round" stroke-linejoin="round"/></svg>
