<svg xmlns="http://www.w3.org/2000/svg" width="192" height="192" fill="none"><path stroke="#000" stroke-linecap="round" stroke-linejoin="round" stroke-width="10" d="M32.719 78a75 75 0 0 0-2.17 18c0 20.757 7.683 39.5 21.66 52.788 13.28 12.629 31.28 19.549 50.634 19.549 16.976 0 33.477-4.686 46.575-13.289 8.378-5.491 11.268-16.949 5.744-25.332-5.488-8.42-16.83-10.69-25.135-5.088-7.317 4.941-16.976 7.65-27.184 7.65-9.988 0-20.013-3.441-26.964-10.762-2.634-2.746-.732-7.285 3.073-7.285h63.185c18.256 0 32.013-16.803 28.244-34.668-2.743-12.922-8.707-24.71-17.451-34.19-12.879-14.022-30.697-21.71-50.087-21.71-12.493 0-24.189 3.015-34.343 8.382m34.346 27.69c10.917 0 20.13 4.924 26.052 13.031 2.516 3.444.038 8.294-4.225 8.294H78.83c-4.38 0-6.855-5.112-4.07-8.494 6.538-7.938 16.513-12.832 28.086-12.832Z"/><path stroke="#000" stroke-linecap="round" stroke-linejoin="round" stroke-width="10" d="m42.483 38.673 2.382-8.317a11.54 11.54 0 0 1 5.488-6.91 11.51 11.51 0 0 1 12.757 1.062 11.53 11.53 0 0 1 4.275 7.722c.17 1.505.044 3.03-.373 4.486l-2.381 8.316M25.174 74.707l35.067 10.07a5.76 5.76 0 0 0 7.125-3.956l7.41-25.874a5.77 5.77 0 0 0-3.95-7.134L35.76 37.742a5.76 5.76 0 0 0-7.125 3.955l-7.41 25.874a5.77 5.77 0 0 0 3.95 7.135Z"/></svg>