<svg width="192" height="192" viewBox="0 0 192 192" fill="none" xmlns="http://www.w3.org/2000/svg">
<g id="Identity">
<g id="Icon">
<path id="Polygon 3" d="M99 27.6603L153.684 59.2321C155.54 60.3038 156.684 62.2846 156.684 64.4282V127.572C156.684 129.715 155.54 131.696 153.684 132.768L99 164.34C97.1436 165.412 94.8564 165.412 93 164.34L38.316 132.768C36.4596 131.696 35.316 129.715 35.316 127.572V64.4282C35.316 62.2846 36.4596 60.3038 38.316 59.2321L93 27.6603C94.8564 26.5885 97.1436 26.5885 99 27.6603Z" stroke="black" stroke-width="12" stroke-linejoin="round"/>
<g id="Polygon 4">
<mask id="path-2-inside-1_2_323" fill="white">
<path d="M93.528 44.9477C95.3961 43.8674 97.7004 43.8734 99.5628 44.9636L138.681 67.8621C140.52 68.9385 141.65 70.9094 141.65 73.0402V76.0181C141.65 78.1712 140.496 80.1593 138.627 81.2275L109.286 97.9938C107.872 98.8015 107 100.305 107 101.933V101.933C107 105.416 110.763 107.6 113.787 105.872L134.839 93.8419C137.874 92.1077 141.65 94.299 141.65 97.7943V97.7943C141.65 99.4086 140.795 100.902 139.403 101.72L109.247 119.43C107.855 120.248 107 121.741 107 123.356V123.356C107 126.851 110.776 129.042 113.811 127.308L134.484 115.495C137.677 113.67 141.65 115.976 141.65 119.654V119.654C141.65 121.355 140.748 122.928 139.28 123.787L99.5628 147.036C97.7004 148.127 95.3961 148.133 93.528 147.052L53.8962 124.133C52.0419 123.06 50.9 121.081 50.9 118.939V73.0612C50.9 70.9192 52.042 68.9396 53.8962 67.8672L93.528 44.9477Z"/>
</mask>
<path d="M93.528 44.9477C95.3961 43.8674 97.7004 43.8734 99.5628 44.9636L138.681 67.8621C140.52 68.9385 141.65 70.9094 141.65 73.0402V76.0181C141.65 78.1712 140.496 80.1593 138.627 81.2275L109.286 97.9938C107.872 98.8015 107 100.305 107 101.933V101.933C107 105.416 110.763 107.6 113.787 105.872L134.839 93.8419C137.874 92.1077 141.65 94.299 141.65 97.7943V97.7943C141.65 99.4086 140.795 100.902 139.403 101.72L109.247 119.43C107.855 120.248 107 121.741 107 123.356V123.356C107 126.851 110.776 129.042 113.811 127.308L134.484 115.495C137.677 113.67 141.65 115.976 141.65 119.654V119.654C141.65 121.355 140.748 122.928 139.28 123.787L99.5628 147.036C97.7004 148.127 95.3961 148.133 93.528 147.052L53.8962 124.133C52.0419 123.06 50.9 121.081 50.9 118.939V73.0612C50.9 70.9192 52.042 68.9396 53.8962 67.8672L93.528 44.9477Z" stroke="black" stroke-width="24" mask="url(#path-2-inside-1_2_323)"/>
</g>
</g>
</g>
</svg>
