<svg width="192" height="192" viewBox="0 0 192 192" fill="none" xmlns="http://www.w3.org/2000/svg">
<g id="Identity">
<g id="Icon">
<path id="Polygon 3" d="M99 22.6603L158.014 56.7321C159.87 57.8038 161.014 59.7846 161.014 61.9282V130.072C161.014 132.215 159.87 134.196 158.014 135.268L99 169.34C97.1436 170.412 94.8564 170.412 93 169.34L33.9859 135.268C32.1295 134.196 30.9859 132.215 30.9859 130.072V61.9282C30.9859 59.7846 32.1295 57.8038 33.9859 56.7321L93 22.6603C94.8564 21.5885 97.1436 21.5885 99 22.6603Z" stroke="black" stroke-width="12" stroke-linejoin="round"/>
<g id="Polygon 4">
<mask id="path-2-inside-1_8_194" fill="white">
<path d="M93.5637 41.519C95.4318 40.4387 97.7361 40.4448 99.5985 41.5349L141.645 66.1477C143.484 67.2242 144.614 69.1951 144.614 71.3258V74.9466C144.614 77.0997 143.461 79.0878 141.591 80.156L110.149 98.1232C108.643 98.9834 107.714 100.584 107.714 102.318V102.318C107.714 106.027 111.722 108.353 114.942 106.512L137.361 93.7016C140.593 91.8549 144.614 94.1885 144.614 97.9107V97.9107C144.614 99.6298 143.704 101.22 142.222 102.091L110.107 120.952C108.625 121.822 107.714 123.413 107.714 125.132V125.132C107.714 128.854 111.735 131.188 114.967 129.341L136.983 116.761C140.383 114.818 144.614 117.273 144.614 121.19V121.19C144.614 123.001 143.654 124.677 142.09 125.592L99.5985 150.465C97.7361 151.555 95.4318 151.561 93.5637 150.481L50.9677 125.847C49.1134 124.775 47.9714 122.795 47.9714 120.653V71.3469C47.9714 69.2048 49.1134 67.2252 50.9677 66.1529L93.5637 41.519Z"/>
</mask>
<path d="M93.5637 41.519C95.4318 40.4387 97.7361 40.4448 99.5985 41.5349L141.645 66.1477C143.484 67.2242 144.614 69.1951 144.614 71.3258V74.9466C144.614 77.0997 143.461 79.0878 141.591 80.156L110.149 98.1232C108.643 98.9834 107.714 100.584 107.714 102.318V102.318C107.714 106.027 111.722 108.353 114.942 106.512L137.361 93.7016C140.593 91.8549 144.614 94.1885 144.614 97.9107V97.9107C144.614 99.6298 143.704 101.22 142.222 102.091L110.107 120.952C108.625 121.822 107.714 123.413 107.714 125.132V125.132C107.714 128.854 111.735 131.188 114.967 129.341L136.983 116.761C140.383 114.818 144.614 117.273 144.614 121.19V121.19C144.614 123.001 143.654 124.677 142.09 125.592L99.5985 150.465C97.7361 151.555 95.4318 151.561 93.5637 150.481L50.9677 125.847C49.1134 124.775 47.9714 122.795 47.9714 120.653V71.3469C47.9714 69.2048 49.1134 67.2252 50.9677 66.1529L93.5637 41.519Z" stroke="black" stroke-width="24" mask="url(#path-2-inside-1_8_194)"/>
</g>
</g>
</g>
</svg>
