<svg xmlns="http://www.w3.org/2000/svg" width="192" height="192" fill="none"><path stroke="#000" stroke-linecap="round" stroke-linejoin="round" stroke-width="12" d="M29 96c0 40.869 33.13 74 74 74 18.089 0 34.662-6.49 47.517-17.269l-21.352-21.353A43.8 43.8 0 0 1 103 140c-24.3 0-44-19.699-44-44s19.7-44 44-44a43.8 43.8 0 0 1 18.65 4.137L92.393 85.393a15 15 0 1 0 21.214 21.214l29.256-29.257 15.074-15.074c4.026-4.026 4.744-10.403 1.015-14.706a74.4 74.4 0 0 0-15.313-13.422C131.975 26.468 118.009 22 103 22c-40.87 0-74 33.13-74 74"/></svg>