<svg xmlns="http://www.w3.org/2000/svg" width="192" height="192" fill="none"><path stroke="#000" stroke-linecap="round" stroke-linejoin="round" stroke-width="12" d="M96 170c16.29 0 32.125-2.76 45.048-7.853 9.763-3.847 17.453-8.862 22.448-14.569l-15.91-18.561c-3.585 4.585-9.847 8.615-18.104 11.61C119.876 144.111 108.107 146 96 146"/><path stroke="#000" stroke-linecap="round" stroke-linejoin="round" stroke-width="12" d="M96 170a74 74 0 1 1 73.321-64H48.97q.29 1.478.666 2.941c2.734 10.632 8.76 20.026 17.143 26.727C75.162 142.368 85.434 146 96 146m33.941-85.355c-7.471-7.783-17.2-12.78-27.676-14.217s-21.114.767-30.265 6.27c-9.15 5.504-16.303 13.999-20.346 24.168A51 51 0 0 0 49.92 82h92.16c-2.248-8.029-6.406-15.384-12.139-21.355"/></svg>