<svg xmlns="http://www.w3.org/2000/svg" width="192" height="192" fill="none"><path stroke="#000" stroke-linecap="round" stroke-linejoin="round" stroke-width="12" d="M99 129v-13a6 6 0 0 1 6-6h13m-19 41v13a6 6 0 0 0 6 6h13m22 0h13a6 6 0 0 0 6-6v-13m0-22v-13a6 6 0 0 0-6-6h-13m0 0a11 11 0 0 0-22 0m41 41a11 11 0 0 0 0-22m-60 22a11 11 0 0 0 0-22m41 41a11 11 0 0 0-22 0"/><rect width="98" height="34" x="22" y="44" stroke="#000" stroke-linecap="round" stroke-linejoin="round" stroke-width="12" rx="6"/><path stroke="#000" stroke-linecap="round" stroke-linejoin="round" stroke-width="10" d="M79 100H63"/><path stroke="#000" stroke-linecap="round" stroke-linejoin="round" stroke-width="12" d="M76 122H49a6 6 0 0 1-6-6V28a6 6 0 0 1 6-6h44a6 6 0 0 1 6 6v60"/></svg>