<svg width="192" height="192" viewBox="0 0 192 192" fill="none" xmlns="http://www.w3.org/2000/svg"><path d="M112 38v58m-32 16v42m-42-42h58M80 38v36a6 6 0 0 1-6 6H38m74 0h42m-42 74v-36a6 6 0 0 1 6-6h36m-42-74a16.001 16.001 0 0 0-27.314-11.314A16 16 0 0 0 80 38m0 116a16.001 16.001 0 0 0 27.314 11.314A16.016 16.016 0 0 0 112 154M38 80a16.001 16.001 0 0 0-11.314 27.314A16.01 16.01 0 0 0 38 112m116 0c4.243 0 8.313-1.686 11.314-4.686a16.004 16.004 0 0 0 0-22.628A16.002 16.002 0 0 0 154 80m-58 32a16.001 16.001 0 0 0 16-16" stroke="#000" stroke-width="12" stroke-linecap="round" stroke-linejoin="round"/></svg>