<svg width="192" height="192" viewBox="0 0 192 192" fill="none" xmlns="http://www.w3.org/2000/svg"><path d="M131 110h-8.197a5.999 5.999 0 0 0-5.996 5.8l-.614 18.4a5.999 5.999 0 0 1-5.996 5.8H101m-20-30h16m-25 15h16m-25 15h16m-7-15-9 15m75-52V60a6 6 0 0 0-6-6H60a6 6 0 0 0-6 6v18" stroke="#000" stroke-width="10" stroke-linecap="round" stroke-linejoin="round"/><path d="M30 78h50l12 10h70" stroke="#000" stroke-width="10" stroke-linecap="round" stroke-linejoin="round"/><rect x="30" y="30" width="132" height="132" rx="6" stroke="#000" stroke-width="12" stroke-linecap="round" stroke-linejoin="round"/></svg>