<svg xmlns="http://www.w3.org/2000/svg" width="192" height="192" fill="none" viewBox="0 0 192 192"><path stroke="#000" stroke-linecap="round" stroke-linejoin="round" stroke-width="10" d="M131 112h-8.197a6 6 0 0 0-5.996 5.8l-.614 18.4a6 6 0 0 1-5.996 5.8H101m-20-30h16m-25 15h16m-25 15h16m-7-15-9 15m75-55V59a6 6 0 0 0-6-6H60a6 6 0 0 0-6 6v18"/><path stroke="#000" stroke-linecap="round" stroke-linejoin="round" stroke-width="10" d="M25 77h55l12 10h75"/><rect width="142" height="142" x="25" y="25" stroke="#000" stroke-linecap="round" stroke-linejoin="round" stroke-width="12" rx="6"/></svg>