<svg xmlns="http://www.w3.org/2000/svg" width="192" height="192" fill="none"><path stroke="#000" stroke-linecap="round" stroke-linejoin="round" stroke-width="12" d="M54.467 27.272c.391-3.117 3.083-5.408 6.187-5.266l53.653 2.467c3.473.16 6.075 3.278 5.647 6.767l-16.383 133.472c-.396 3.229-3.253 5.557-6.457 5.263l-53.69-4.937c-3.362-.309-5.8-3.376-5.376-6.763l16.42-131.003ZM79 43.804l14 .643M74.5 147.172l-3.186-.293M120 44l37.933 2.586a6 6 0 0 1 5.572 6.475l-3.014 36.927a6 6 0 0 1-6.5 5.49L114 92"/><path stroke="#000" stroke-linecap="round" stroke-linejoin="round" stroke-width="10" d="m142.5 66.25-4.5-.321"/></svg>