<svg width="192" height="192" viewBox="0 0 192 192" fill="none" xmlns="http://www.w3.org/2000/svg">
<path d="M31.2753 85.2548L22.7377 162.34C22.3441 165.893 25.126 169 28.7012 169H147.361C150.419 169 152.988 166.7 153.325 163.66L156.107 138.542C156.5 134.988 153.718 131.881 150.143 131.881H85.6483C81.9981 131.881 79.1936 128.649 79.7082 125.035L80.466 119.713C80.8871 116.756 83.4192 114.559 86.4061 114.559H153.391C156.449 114.559 159.018 112.259 159.354 109.22L161.862 86.5757C162.256 83.0223 159.474 79.9153 155.899 79.9153H37.2388C34.1807 79.9153 31.6119 82.2152 31.2753 85.2548Z" stroke="black" stroke-width="12"/>
<path d="M163.211 23H44.5696C41.541 23 38.9872 25.2571 38.6151 28.2628L35.3341 54.7628C34.891 58.3416 37.6825 61.5 41.2887 61.5H159.93C162.959 61.5 165.513 59.2429 165.885 56.2372L169.166 29.7372C169.609 26.1584 166.818 23 163.211 23Z" stroke="black" stroke-width="12"/>
</svg>
