<svg xmlns="http://www.w3.org/2000/svg" width="192" height="192" fill="none"><path stroke="#000" stroke-linecap="round" stroke-linejoin="round" stroke-width="10" d="M43 106c51 24 88.001 60 88.001 60M82.4 101.051l4.9 2.849m16.202 9.86 4.748 3.14m15.596 10.848 4.554 3.352m15 11.7 4.35 3.65M47.3 131.95l4.7 2.85m14.8 10.35 4.35 3.3"/><path stroke="#000" stroke-linecap="round" stroke-linejoin="round" stroke-width="12" d="M25 31a6 6 0 0 1 6-6h130a6 6 0 0 1 6 6v130a6 6 0 0 1-6 6H31a6 6 0 0 1-6-6z"/><path stroke="#000" stroke-linecap="round" stroke-linejoin="round" stroke-width="12" d="M25 151a76 76 0 0 1 76-76 76 76 0 0 1 66 38.317"/></svg>