<svg width="191" height="192" fill="none" xmlns="http://www.w3.org/2000/svg"><path d="M26.482 121.303c13.974 38.394 56.427 58.19 94.821 44.215 32.171-11.709 51.285-43.414 48.413-75.972-.77-8.8-8.546-15.304-17.347-14.534-8.8.77-15.3 8.524-14.53 17.325 1.629 18.479-9.219 36.473-27.478 43.119-12.55 4.568-25.863 2.779-36.414-3.723-3.75-2.311-2.675-7.583 1.466-9.09l27.183-9.894a5.998 5.998 0 0 0 3.872-4.692l2.16-13.553a6 6 0 0 0-1.993-5.475l-10.366-8.994a5.998 5.998 0 0 0-5.983-1.105l-27.182 9.893c-4.14 1.507-8.354-1.84-6.966-6.021 3.903-11.762 12.951-21.69 25.5-26.258a41.795 41.795 0 0 1 21.666-1.9c8.7 1.535 16.983-4.27 18.517-12.97 1.534-8.7-4.275-16.996-12.975-18.53a73.649 73.649 0 0 0-38.149 3.338c-38.394 13.974-58.19 56.427-44.215 94.821Z" stroke="#000" stroke-width="12" stroke-linecap="round" stroke-linejoin="round"/></svg>