<svg width="192" height="192" fill="none" xmlns="http://www.w3.org/2000/svg"><path d="M133 59h28a6 6 0 0 1 6 6v62a6 6 0 0 1-6 6h-28m0-74V31a6 6 0 0 0-6-6H65a6 6 0 0 0-6 6v28m74 0h-24m-50 74H31a6 6 0 0 1-6-6V65a6 6 0 0 1 6-6h28m0 74v28a6 6 0 0 0 6 6h62a6 6 0 0 0 6-6v-28m-74 0v-24m74 24h-24M59 59v24m50-24H89a6 6 0 0 0-6 6v12a6 6 0 0 1-6 6H59m50-24v18a6 6 0 0 0 6 6h12a6 6 0 0 1 6 6v14a6 6 0 0 1-6 6h-12a6 6 0 0 0-6 6v18m0 0H89a6 6 0 0 1-6-6v-12a6 6 0 0 0-6-6H59m0-26v26" stroke="#000" stroke-width="12" stroke-linecap="round" stroke-linejoin="round"/></svg>