<svg width="192" height="192" viewBox="0 0 50.8 50.8" xml:space="preserve" xmlns="http://www.w3.org/2000/svg"><path style="opacity:1;fill:none;fill-rule:evenodd;stroke:#000;stroke-width:1.5875;stroke-linecap:round;stroke-linejoin:round;stroke-miterlimit:0;paint-order:markers fill stroke" d="M21.58 20.696a2.455 2.379 0 0 1-2.456 2.378 2.455 2.379 0 0 1-2.455-2.378 2.455 2.379 0 0 1 2.455-2.379 2.455 2.379 0 0 1 2.455 2.379zM34.133 20.696a2.455 2.379 0 0 1-2.455 2.378 2.455 2.379 0 0 1-2.455-2.378 2.455 2.379 0 0 1 2.455-2.379 2.455 2.379 0 0 1 2.455 2.379z"/><path style="opacity:1;fill:none;fill-rule:evenodd;stroke:#000;stroke-width:2.11667;stroke-linecap:round;stroke-linejoin:round;stroke-miterlimit:0;paint-order:markers fill stroke" d="M31.022 25.499a5.622 4.63 0 0 1-5.622 4.629 5.622 4.63 0 0 1-5.622-4.63A5.622 4.63 0 0 1 25.4 20.87a5.622 4.63 0 0 1 5.622 4.63z"/><path style="opacity:1;fill:none;fill-rule:evenodd;stroke:#000;stroke-width:2.11667;stroke-linecap:round;stroke-linejoin:round;stroke-miterlimit:0;stroke-dasharray:none;paint-order:markers fill stroke" d="M22.294 25.499v0M28.574 25.499v0"/><path style="opacity:1;fill:none;fill-rule:evenodd;stroke:#000;stroke-width:1.5875;stroke-linecap:round;stroke-linejoin:round;stroke-miterlimit:0;stroke-dasharray:none;paint-order:markers fill stroke" d="M25.4 26.76v0"/><path style="opacity:1;fill:none;fill-rule:evenodd;stroke:#000;stroke-width:3.175;stroke-linecap:round;stroke-linejoin:round;stroke-miterlimit:0;stroke-dasharray:none;paint-order:markers fill stroke" d="M33.68 39.142c.414.9 3.175.157 2.878-.69m-22.37.042c0 .971 2.578 1.526 2.945.629m6.684.76c.363 1.265 2.954 1.086 3.18 0m17.982-6.29c-13.054 6.302-26.107 6.3-39.158 0m34.543-6.115c2.479 1.706 3.87 3.797 4.615 6.115m-34.797-6.115c-2.062 1.733-3.589 3.735-4.361 6.115m4.361-6.115c9.922 5.168 20.144 5.203 30.182 0m-30.182 0c-.188-9.913 6.054-17.44 15.218-17.44 9.088-.194 14.716 5.847 14.964 17.44"/></svg>