<svg xmlns="http://www.w3.org/2000/svg" width="192" height="192" fill="none" viewBox="0 0 192 192"><path stroke="#000" stroke-linecap="round" stroke-width="12" d="M66.954 88.753A28.001 28.001 0 0 0 94 124m0 8v-16m8 8-8-8m8 8-8 8m31.046-28.753a27.993 27.993 0 0 0-4.832-24.292A28.003 28.003 0 0 0 98 68m0-8v16m-8-8 8 8m-8-8 8-8m-2-38L78 40m18 130 18-18m56-56-18-18M22 96l18 18m56-92 18 18M96 170l-18-18m92-56-18 18M22 96l18-18m38-38H40m74 112h38m0-74V40M40 114v38M152 40h-38M40 152h38m74 0v-38M40 40v38"/></svg>