<svg xmlns="http://www.w3.org/2000/svg" width="192" height="192" fill="none" stroke="#000" stroke-linejoin="round" stroke-width="12" viewBox="0 0 192 192"><path d="M128 120a32.007 32.007 0 0 0-9.373-22.627 31.996 31.996 0 0 0-34.873-6.937A31.999 31.999 0 0 0 64 120h64Z"/><path stroke-linecap="round" d="M64 132a31.999 31.999 0 0 0 57.889 18.809M64 120v12"/><path d="M22 92c0-22 36-62 36-62s-32 50 2 54c-9 11.5-14 22-14 38 0 0-24-8-24-30Zm148 0c0-22-36-62-36-62s32 50-2 54c9 11.5 14 22 14 38 0 0 24-8 24-30Z"/></svg>