<svg xmlns="http://www.w3.org/2000/svg" width="192" height="192" fill="none" viewBox="0 0 192 192"><path stroke="#000" stroke-linecap="round" stroke-linejoin="round" stroke-width="12" d="M96 170a74 74 0 1 0-74-74"/><path stroke="#000" stroke-linecap="round" stroke-linejoin="round" stroke-width="12" d="M125 96c0-6.329-1.701-12.516-4.887-17.778-3.187-5.263-7.716-9.364-13.015-11.786s-11.13-3.056-16.756-1.821-10.792 4.282-14.848 8.758-6.818 10.177-7.937 16.384-.544 12.642 1.65 18.489 5.912 10.845 10.681 14.361C84.658 126.123 90.264 128 96 128m0 0c3.94 0 7.841-.414 11.481-1.218s6.946-1.983 9.732-3.468M22 96v68a6 6 0 0 0 6 6h68M67 96h58"/></svg>