<svg width="192" height="192" viewBox="0 0 192 192" fill="none" xmlns="http://www.w3.org/2000/svg"><path d="M96 170a74 74 0 1 0-74-74" stroke="#000" stroke-width="12" stroke-linecap="round" stroke-linejoin="round"/><path d="M125 96c0-6.329-1.701-12.516-4.887-17.778-3.187-5.263-7.716-9.364-13.015-11.786-5.299-2.422-11.13-3.056-16.756-1.821-5.625 1.235-10.792 4.282-14.848 8.758-4.056 4.475-6.818 10.177-7.937 16.384-1.119 6.207-.544 12.642 1.65 18.489 2.195 5.847 5.912 10.845 10.681 14.361C84.658 126.123 90.264 128 96 128m0 0c3.94 0 7.841-.414 11.481-1.218 3.639-.804 6.946-1.983 9.732-3.468M22 96v68a6 6 0 0 0 6 6h68M67 96h58" stroke="#000" stroke-width="12" stroke-linecap="round" stroke-linejoin="round"/></svg>