<svg xmlns="http://www.w3.org/2000/svg" width="192" height="192" fill="none"><path stroke="#000" stroke-linecap="round" stroke-linejoin="round" stroke-width="12" d="m97.828 82.467 48.965 38.864A27.43 27.43 0 0 1 157 142.601c0 15.14-12.367 27.399-27.64 27.399a27.68 27.68 0 0 1-18.811-7.348L40.854 96.997C36.608 92.824 34 87.101 34 80.749c0-12.554 10.244-21.746 22.909-22.82l13.292-.738c-3.464-2.77-11.504-9.269-13.665-11.152-2.868-2.474-4.73-6.093-4.768-10.155C51.657 28.241 58.175 22 65.886 22h60.122c7.86 0 14.416 5.945 13.782 14.512-.484 6.573-6.295 12.112-13.335 12.112-1.527 0-3.017-.259-4.396-.739L108.24 43.39l27.937 16.865c9.164 5.244 12.106 16.95 6.519 25.849-5.29 8.419-16.353 11.262-25.107 6.388z"/></svg>