<svg width="192" height="192" viewBox="0 0 192 192" fill="none" xmlns="http://www.w3.org/2000/svg"><path d="M22 96c0 40.869 33.175 74 74.1 74 27.617 0 51.705-15.088 64.45-37.46l-35.381-9.022c-7.3 7.688-17.624 12.482-29.07 12.482-14.492 0-27.187-7.687-34.22-19.201L170 90.535a73.505 73.505 0 0 0-5.917-24.022C152.674 40.317 126.529 22 96.1 22 55.176 22 22 55.13 22 96Z" stroke="#000" stroke-width="12" stroke-linecap="round" stroke-linejoin="round"/><path d="M130.058 71.778C122.975 60.5 110.414 53 96.1 53c-21.017 0-38.253 16.165-39.922 36.725l73.88-17.947Z" stroke="#000" stroke-width="12" stroke-linecap="round" stroke-linejoin="round"/></svg>