<svg width="192" height="192" viewBox="0 0 192 192" fill="none" xmlns="http://www.w3.org/2000/svg">
<path fill-rule="evenodd" clip-rule="evenodd" d="M158.331 100.874C158.331 97.1903 161.417 94.1591 165.166 94.1591C168.915 94.1591 172 97.1903 172 100.874C172 104.558 168.915 107.589 165.166 107.589C161.417 107.589 158.331 104.558 158.331 100.874Z" stroke="black" stroke-width="8"/>
<path d="M91.08 94.0599L103.708 95.0618L108.464 88.8304L115.4 103.379L124.941 90.2214L131.991 104.909L141.584 91.7086L148.512 106.538L153.298 100.001L158.182 100.236" stroke="black" stroke-width="8" stroke-linecap="round" stroke-linejoin="round"/>
<path fill-rule="evenodd" clip-rule="evenodd" d="M100.354 165.285C100.354 161.601 103.439 158.57 107.188 158.57C110.937 158.57 114.022 161.601 114.022 165.285C114.022 168.969 110.937 172 107.188 172C103.439 172 100.354 168.969 100.354 165.285Z" stroke="black" stroke-width="8"/>
<path d="M91.061 94.834L97.8043 125.431" stroke="black" stroke-width="8" stroke-linecap="round" stroke-linejoin="round"/>
<path d="M100.775 138.03L105.433 158.206" stroke="black" stroke-width="8" stroke-linecap="round" stroke-linejoin="round"/>
<path d="M82.6343 129.701L115.637 122.555" stroke="black" stroke-width="8" stroke-linecap="round" stroke-linejoin="round"/>
<path d="M85.0754 140.988L118.078 133.842" stroke="black" stroke-width="8" stroke-linecap="round" stroke-linejoin="round"/>
<path fill-rule="evenodd" clip-rule="evenodd" d="M20 130.986C20 127.302 23.0851 124.271 26.8343 124.271C30.5836 124.271 33.6687 127.302 33.6687 130.986C33.6687 134.669 30.5836 137.701 26.8343 137.701C23.0851 137.701 20 134.669 20 130.986Z" stroke="black" stroke-width="8"/>
<path d="M73.1936 104.302L90.9301 93.965" stroke="black" stroke-width="8" stroke-linecap="round" stroke-linejoin="round"/>
<path d="M33.679 127.204L43.9551 120.992" stroke="black" stroke-width="8" stroke-linecap="round" stroke-linejoin="round"/>
<path fill-rule="evenodd" clip-rule="evenodd" d="M42.3091 112.645C42.3091 103.791 49.724 96.5061 58.735 96.5061C67.746 96.5061 75.1609 103.791 75.1609 112.645C75.1609 121.499 67.746 128.784 58.735 128.784C49.724 128.784 42.3091 121.499 42.3091 112.645Z" stroke="black" stroke-width="8"/>
<path fill-rule="evenodd" clip-rule="evenodd" d="M28.3672 45.3687C28.3672 41.6849 31.4524 38.6537 35.2015 38.6537C38.9507 38.6537 42.0358 41.6849 42.0358 45.3687C42.0358 49.0523 38.9507 52.0836 35.2015 52.0836C31.4524 52.0836 28.3672 49.0523 28.3672 45.3687Z" stroke="black" stroke-width="8"/>
<path d="M44.7531 53.8143C53.9595 44.5766 65.291 52.6869 56.678 64.189C66.4186 54.7525 76.8858 63.1583 68.6309 74.4666C79.7656 64.1612 89.0046 76.047 80.5278 84.8691" stroke="black" stroke-width="8" stroke-linecap="round" stroke-linejoin="round"/>
<path d="M80.4869 84.9346L91.4619 94.3793" stroke="black" stroke-width="8" stroke-linecap="round" stroke-linejoin="round"/>
<path d="M40.5222 50.3236L44.622 53.6601" stroke="black" stroke-width="8" stroke-linecap="round" stroke-linejoin="round"/>
<path fill-rule="evenodd" clip-rule="evenodd" d="M113.869 26.7149C113.869 23.0312 116.954 20 120.703 20C124.452 20 127.538 23.0312 127.538 26.7149C127.538 30.3986 124.452 33.4298 120.703 33.4298C116.954 33.4298 113.869 30.3986 113.869 26.7149Z" stroke="black" stroke-width="8" stroke-linecap="round" stroke-linejoin="round"/>
<path fill-rule="evenodd" clip-rule="evenodd" d="M116.287 70.159L91.6901 59.4875L113.394 43.8943L116.287 70.159Z" stroke="black" stroke-width="8" stroke-linecap="round" stroke-linejoin="round"/>
<path d="M103.814 65.0354L91.2084 93.2342" stroke="black" stroke-width="8" stroke-linecap="round" stroke-linejoin="round"/>
<path d="M117.924 33.1426L112.96 44.8298" stroke="black" stroke-width="8" stroke-linecap="round" stroke-linejoin="round"/>
<path d="M100.896 38.4009L125.587 48.8416" stroke="black" stroke-width="8" stroke-linecap="round" stroke-linejoin="round"/>
</svg>
