<svg width="192" height="192" viewBox="0 0 192 192" fill="none" xmlns="http://www.w3.org/2000/svg"><path d="M57 117c0-7.732 6.268-14 14-14h8c7.732 0 14 6.268 14 14v4c0 7.732-6.268 14-14 14h-8c-7.732 0-14-6.268-14-14v-4Zm-35 39c0-6.627 5.373-12 12-12h2c6.627 0 12 5.373 12 12v2c0 6.627-5.373 12-12 12h-2c-6.627 0-12-5.373-12-12v-2Z" stroke="#000" stroke-width="12" stroke-linecap="round" stroke-linejoin="round"/><path d="M89.816 131.072a56.996 56.996 0 0 0 70.495-20.281 57 57 0 1 0-98.367-6.447" stroke="#000" stroke-width="12" stroke-linecap="round" stroke-linejoin="round"/></svg>