<svg xmlns="http://www.w3.org/2000/svg" width="192" height="192" fill="none" viewBox="0 0 192 192"><path stroke="#000" stroke-linecap="round" stroke-linejoin="round" stroke-width="12" d="M138 170v-26a6 6 0 0 1 6-6h26m-30 2 30 30"/><path stroke="#000" stroke-linecap="round" stroke-width="12" d="M60 68h72M97 56v12m-27 68s50-41 50-68"/><path stroke="#000" stroke-linecap="round" stroke-width="12" d="M82.803 90c9.686 15.795 26.052 31.658 35.299 40"/><path stroke="#000" stroke-linecap="round" stroke-linejoin="round" stroke-width="12" d="M59 160.086A74 74 0 0 0 96 170m74-74a74 74 0 0 0-9.914-37M133 31.914A74 74 0 0 0 96 22m-37 9.914A74 74 0 0 0 31.914 59M22 96c0 12.99 3.42 25.751 9.914 37"/></svg>