<svg xmlns="http://www.w3.org/2000/svg" width="192" height="192" viewBox="0 0 192 192"><g fill="none" stroke="#000" stroke-linecap="round" stroke-linejoin="round" stroke-width="8"><path d="M96.743 20s18.07 13.879 18.07 23.626v76.931s-2.12 1.17-2.12 3.673h8.857l4.529 9.69s-8.79 9.43-18.589 9.43v2.052h-3.215v16.296l1.995 4.106s-.299 3.273-3.073 6.196h-4.934M96.697 20s-18.07 13.879-18.07 23.626v76.931s2.12 1.17 2.12 3.673H71.89l-4.528 9.69s8.79 9.43 18.588 9.43v2.052h3.216v16.296l-1.996 4.106s.3 3.273 3.073 6.196h4.935M97.41 60.92v63.55"/><path stroke-width="8.86" d="M99.378 125.541a1.956 1.956 0 0 1-1.955 1.956 1.956 1.956 0 0 1-1.956-1.956 1.956 1.956 0 0 1 1.956-1.955 1.956 1.956 0 0 1 1.955 1.955z"/><path d="M81.355 124.237h30.906"/></g></svg>