<svg xmlns="http://www.w3.org/2000/svg" width="192" height="192" fill="none" stroke="#000" stroke-linecap="round" stroke-linejoin="round" stroke-width="10" viewBox="0 0 192 192"><path d="M96 21S76 35.374 76 45v73s4 3 4 6h-9l-7 12s10 9 20 9v4h4v12l-2 4s0 3 3 6h7m0-150s20 14.374 20 24v73s-4 3-4 6h9l7 12s-10 9-20 9v4h-4v12l2 4s0 3-3 6h-7"/><path stroke-width="8" d="M96 62v62m4 3a4.14 4.14 0 0 1-1.203 2.834 3.957 3.957 0 0 1-5.594 0A4.14 4.14 0 0 1 92 127a4.14 4.14 0 0 1 1.203-2.834A3.96 3.96 0 0 1 96 123c1.046 0 2.05.419 2.797 1.166A4.14 4.14 0 0 1 100 127"/><path d="M80 124h32"/></svg>