<svg width="192" height="192" viewBox="0 0 192 192" fill="none" xmlns="http://www.w3.org/2000/svg"><path d="m25 101-6-6m12 0-6-6" stroke="#000" stroke-width="6" stroke-linecap="round" stroke-linejoin="round"/><path d="M79 125h58c15 0 33-7 33-17 0-16-15-16-33-29s-25-21-49-21c-18 0-33 11-33 34 0 15 4 25-1 27s-17-12-17-12" stroke="#000" stroke-width="12" stroke-linecap="round" stroke-linejoin="round"/><path d="M40.142 104.485 34.485 96 26 104.485l8.485 5.657 5.657-5.657Z" stroke="#000" stroke-width="10" stroke-linecap="round" stroke-linejoin="round"/><circle cx="79" cy="125" r="7" stroke="#000" stroke-width="14" stroke-linejoin="round"/><circle cx="137" cy="125" r="7" stroke="#000" stroke-width="14" stroke-linejoin="round"/></svg>