<svg xmlns="http://www.w3.org/2000/svg" width="192" height="192" fill="none"><path stroke="#000" stroke-linecap="round" stroke-linejoin="round" stroke-width="12" d="M61.919 118.871 139.398 27H80.554L27.287 90.029a22.4 22.4 0 0 0-4.241 7.676 22.28 22.28 0 0 0 1.509 17.107 22.5 22.5 0 0 0 5.52 6.828 22.7 22.7 0 0 0 7.733 4.21 22.76 22.76 0 0 0 17.233-1.498 22.6 22.6 0 0 0 6.878-5.481m68.162-45.742L52.601 165h58.845l53.267-63.029a22.4 22.4 0 0 0 4.241-7.676 22.27 22.27 0 0 0-1.509-17.107 22.5 22.5 0 0 0-5.521-6.828 22.7 22.7 0 0 0-7.732-4.21 22.76 22.76 0 0 0-17.234 1.498 22.6 22.6 0 0 0-6.877 5.48Z"/></svg>