<svg xmlns="http://www.w3.org/2000/svg" width="192" height="192" fill="none" viewBox="0 0 192 192"><path stroke="#000" stroke-linecap="round" stroke-linejoin="round" stroke-width="12" d="M124.827 40.615a14 14 0 0 0-9.502-3.709 14 14 0 0 0-9.504 3.71C103.237 37.201 99.166 35 94.586 35s-8.652 2.202-11.236 5.615a14 14 0 0 0-9.503-3.709c-6.126 0-11.342 3.94-13.306 9.45a13.97 13.97 0 0 0-8.375-2.778c-7.81 0-14.14 6.401-14.14 14.297 0 1.324.178 2.606.511 3.823q-.255-.01-.511-.01c-7.81 0-14.14 6.4-14.14 14.296 0 4.588 2.137 8.671 5.46 11.287A14.32 14.32 0 0 0 22 99.813c0 6.288 4.016 11.628 9.596 13.542a14.35 14.35 0 0 0-2.055 7.426c0 7.896 6.331 14.297 14.14 14.297 1.668 0 3.268-.293 4.754-.829.544 7.393 6.649 13.22 14.1 13.22 3.234 0 6.214-1.1 8.596-2.947C72.015 151.559 77.96 157 85.16 157c4.626 0 8.732-2.246 11.312-5.718 2.58 3.472 6.687 5.718 11.312 5.718 5.348 0 10-3.002 12.403-7.429 2.588 3.361 6.626 5.523 11.164 5.523 7.575 0 13.758-6.022 14.123-13.59a14 14 0 0 0 5.673 1.199c7.81 0 14.141-6.401 14.141-14.297 0-2.839-.819-5.484-2.23-7.709A14.32 14.32 0 0 0 170 108.391a14.34 14.34 0 0 0-2.827-8.579m-42.346-59.197 42.346 59.198m-42.346-59.198v53.198a6 6 0 0 0 6 6h36.346"/></svg>