<svg width="192" height="192" viewBox="0 0 192 192" fill="none" xmlns="http://www.w3.org/2000/svg"><path d="M22 53a6 6 0 0 1 6-6h46.847a6 6 0 0 1 3.815 1.368l13.676 11.264A6 6 0 0 0 96.153 61H164a6 6 0 0 1 6 6v94a6 6 0 0 1-6 6H28a6 6 0 0 1-6-6V53Z" stroke="#000" stroke-width="12" stroke-linecap="round" stroke-linejoin="round"/><path d="M157 61V31a6 6 0 0 0-6-6H45a6 6 0 0 0-6 6v16m24 43-16 48m100-48-50 48m16-48 14 48M63 90h27m-33 24h21m-31 24h27" stroke="#000" stroke-width="12" stroke-linecap="round" stroke-linejoin="round"/></svg>