<svg xmlns="http://www.w3.org/2000/svg" width="192" height="192" fill="none" stroke="#000" stroke-linecap="round" stroke-linejoin="round" stroke-width="12" viewBox="0 0 192 192"><path d="M48 158h65.919c2.112 0 4.203-.414 6.154-1.218a16.094 16.094 0 0 0 5.217-3.468 16.003 16.003 0 0 0 3.486-5.191 15.933 15.933 0 0 0-3.486-17.437 16.094 16.094 0 0 0-5.217-3.468 16.153 16.153 0 0 0-6.154-1.218H39"/><path d="M47 158a16.006 16.006 0 0 1-12.694-6.26 16.001 16.001 0 0 1-2.76-13.881L48 104m98-35H61m0 0 11-23c4-8 8-12 16-12h47a35 35 0 1 1 0 70H22l18-35h21z"/></svg>