<svg width="192" height="192" fill="none" xmlns="http://www.w3.org/2000/svg"><path d="M129 55a33.008 33.008 0 0 0-9.665-23.334A33.014 33.014 0 0 0 96 22a33 33 0 0 0-33 33" stroke="#000" stroke-width="12" stroke-linecap="round" stroke-linejoin="round"/><path d="M160 86a64.001 64.001 0 0 0-128 0" stroke="#000" stroke-width="12" stroke-linecap="round" stroke-linejoin="round"/><path d="M63 55c0 18.5 17 29 33 45 16-16 33-26.5 33-45m-33 95v20m0-20a17.998 17.998 0 0 0-18-18 18.01 18.01 0 0 0-12.728 5.272 18.005 18.005 0 0 0-4.226 6.681C46.09 129.397 32 109.46 32 86m64 84s64-34 64-84" stroke="#000" stroke-width="12" stroke-linecap="round" stroke-linejoin="round"/></svg>