<svg xmlns="http://www.w3.org/2000/svg" width="192" height="192" fill="none"><path stroke="#000" stroke-linecap="round" stroke-linejoin="round" stroke-width="12" d="M129 55a33 33 0 0 0-9.665-23.334A33 33 0 0 0 96 22a33 33 0 0 0-33 33"/><path stroke="#000" stroke-linecap="round" stroke-linejoin="round" stroke-width="12" d="M160 86a64.001 64.001 0 0 0-128 0"/><path stroke="#000" stroke-linecap="round" stroke-linejoin="round" stroke-width="12" d="M63 55c0 18.5 17 29 33 45 16-16 33-26.5 33-45m-33 95v20m0-20a18 18 0 0 0-18-18 18 18 0 0 0-12.728 5.272 18 18 0 0 0-4.226 6.681C46.09 129.397 32 109.46 32 86m64 84s64-34 64-84"/></svg>