<svg xmlns="http://www.w3.org/2000/svg" width="192" height="192" fill="none"><path stroke="#000" stroke-linecap="round" stroke-linejoin="round" stroke-width="12" d="M100 22c-40.87 0-74 33.13-74 74 0 19.562 7.59 37.351 19.987 50.583L27 170h34l6.2-7.648C77.087 167.248 88.223 170 100 170c29.8 0 55.486-17.615 67.213-43h-30.565c-8.804 10.399-21.955 17-36.648 17a47.9 47.9 0 0 1-15.77-2.651c-8.576-2.981-16.046-8.328-21.629-15.257A47.8 47.8 0 0 1 52 96c0-26.51 21.49-48 48-48a47.8 47.8 0 0 1 21.717 5.182L82.946 101h34l24.16-29.798 17.025-20.997C144.58 33.027 123.578 22 100 22"/></svg>