<svg width="192" height="192" viewBox="0 0 192 192" fill="none" xmlns="http://www.w3.org/2000/svg"><path d="M74.963 50.628C74.484 35.548 69.355 22 57 22c-13 0-26 15-26 28 0 12.788 7.7 27.388 16.09 35.567m27.873-34.94c.025.788.037 1.58.037 2.373 0 16-1 39-16 39-3.597 0-7.834-2.459-11.91-6.433m27.873-34.94c-14.059 6.53-24.575 19.402-27.873 34.94m3.538 31.47C35.548 117.516 22 122.645 22 135c0 13 15 26 28 26 12.788 0 27.388-7.701 35.567-16.09m-34.94-27.873A74.76 74.76 0 0 1 53 117c16 0 39 1 39 16 0 3.597-2.459 7.835-6.433 11.91m-34.94-27.873c6.53 14.059 19.402 24.575 34.94 27.873m31.47-3.538C117.516 156.451 122.645 170 135 170c13 0 26-15 26-28 0-12.788-7.701-27.387-16.09-35.567m-27.873 34.939A74.724 74.724 0 0 1 117 139c0-16 1-39 16-39 3.597 0 7.835 2.459 11.91 6.433m-27.873 34.939c14.059-6.529 24.575-19.401 27.873-34.939m-3.538-31.47C156.451 74.484 170 69.355 170 57c0-13-15-26-28-26-12.788 0-27.387 7.7-35.567 16.09m34.939 27.873c-.787.025-1.578.037-2.372.037-16 0-39-1-39-16 0-3.597 2.459-7.834 6.433-11.91m34.939 27.873c-6.529-14.059-19.401-24.575-34.939-27.873" stroke="#000" stroke-width="12" stroke-linecap="round" stroke-linejoin="round"/></svg>