<svg width="192" height="192" xmlns="http://www.w3.org/2000/svg" viewBox="0 0 192 192"><defs><style>.a{fill:none;stroke:#000;stroke-linecap:round;stroke-linejoin:round;stroke-width:12px;}</style></defs><path class="a" d="M108.332,150.863l8.817-50H155a6,6,0,0,1,5.909,7.042l-1.352,7.667a6,6,0,0,1-5.909,4.958H125.681l30.651,30.333"/><polyline class="a" points="31 150.863 39.816 100.863 59.408 125.863 87.816 100.863 79 150.863"/><path class="a" d="M22,74.589,47.342,49.247c5.069-4.055,10.137-8.11,23.653-8.11h73.663"/><path class="a" d="M46.329,74.589l8.109-8.11c8.11-8.109,8.11-8.109,23.653-8.109h49.334m9.123,16.219L170,41.137"/></svg>