<svg width="192" height="192" viewBox="0 0 192 192" fill="none" xmlns="http://www.w3.org/2000/svg"><path d="M168 118h-36m-44 44A66.001 66.001 0 0 1 41.331 49.331 66 66 0 0 1 152.9 84H88" stroke="#000" stroke-width="12" stroke-linecap="round" stroke-linejoin="round"/><path d="M88 162h70.932a6.01 6.01 0 0 0 5.959-5.189l5.054-36.975a5.998 5.998 0 0 0-.389-3.074 4.007 4.007 0 0 0-.447-.784C167.164 113.19 154.742 95.055 152.9 84" stroke="#000" stroke-width="12" stroke-linecap="round" stroke-linejoin="round"/><path d="M132 118c-27 0-30-12-44-34m52 34-17-34" stroke="#000" stroke-width="12" stroke-linecap="round" stroke-linejoin="round"/></svg>