<svg xmlns="http://www.w3.org/2000/svg" width="192" height="192" fill="none" viewBox="0 0 192 192"><circle cx="66" cy="62" r="5" stroke="#000" stroke-linecap="round" stroke-linejoin="round" stroke-width="10"/><circle cx="126" cy="62" r="5" stroke="#000" stroke-linecap="round" stroke-linejoin="round" stroke-width="10"/><path stroke="#000" stroke-linecap="round" stroke-width="12" d="M79 140.342A21 21 0 0 0 117 128a21 21 0 0 0-38-12.342"/><path stroke="#000" stroke-linecap="round" stroke-linejoin="round" stroke-width="12" d="M50 86a16 16 0 0 0-16 16v52a16 16 0 0 0 16 16h92a16 16 0 0 0 16-16v-52a16 16 0 0 0-16-16m-92 0h92m-92 0a16 16 0 0 1-16-16V54a16 16 0 0 1 16-16h23.842a6 6 0 0 0 5.618-3.893l3.08-8.214A6 6 0 0 1 88.158 22h15.684a6 6 0 0 1 5.618 3.893l3.08 8.214A6 6 0 0 0 118.158 38H142a16 16 0 0 1 16 16v16a16 16 0 0 1-16 16M52 22v16m88-16v16"/></svg>