<svg width="192" height="192" fill="none" xmlns="http://www.w3.org/2000/svg"><path d="m100 130 20 20m-26.376-43.523a13.998 13.998 0 0 1 9.899 17.146 13.997 13.997 0 0 1-9.9 9.9 14.001 14.001 0 0 1-17.146-9.9" stroke="#000" stroke-width="12" stroke-linecap="round" stroke-linejoin="round"/><path d="M50 86a16 16 0 0 0-16 16v52a16.002 16.002 0 0 0 16 16h92c4.243 0 8.313-1.686 11.314-4.686 3-3.001 4.686-7.071 4.686-11.314v-52a16.002 16.002 0 0 0-16-16m-92 0h92m-92 0a16 16 0 0 1-16-16V54a16 16 0 0 1 16-16h92a16.002 16.002 0 0 1 16 16v16a16.002 16.002 0 0 1-16 16" stroke="#000" stroke-width="12"/><path d="M66 67a5 5 0 1 0 0-10 5 5 0 0 0 0 10Zm60 0a5 5 0 1 0 0-10 5 5 0 0 0 0 10Z" stroke="#000" stroke-width="10" stroke-linecap="round" stroke-linejoin="round"/><path d="M36 40 22 22m134 18 14-18" stroke="#000" stroke-width="12" stroke-linecap="round"/></svg>