<svg xmlns="http://www.w3.org/2000/svg" width="192" height="192" fill="none"><path stroke="#000" stroke-linecap="round" stroke-linejoin="round" stroke-width="12" d="M102 123.551V150c0 11.046 8.954 20 20 20h10c11.046 0 20-8.954 20-20v-26.449a12 12 0 0 0-6.807-10.818l-15.597-7.487a6 6 0 0 0-5.192 0l-15.597 7.487A12 12 0 0 0 102 123.551"/><path stroke="#000" stroke-linecap="round" stroke-linejoin="round" stroke-width="12" d="M136 107V42c0-11.046-8.954-20-20-20H66c-11.046 0-20 8.954-20 20v100c0 11.046 8.954 20 20 20h36M80 44h22"/></svg>