<svg width="192" height="192" fill="none" xmlns="http://www.w3.org/2000/svg"><path d="M102 123.551V150c0 11.046 8.954 20 20 20h10c11.046 0 20-8.954 20-20v-26.449a12 12 0 0 0-6.807-10.818l-15.597-7.487a5.997 5.997 0 0 0-5.192 0l-15.597 7.487A12 12 0 0 0 102 123.551Z" stroke="#000" stroke-width="12" stroke-linecap="round" stroke-linejoin="round"/><path d="M136 107V42c0-11.046-8.954-20-20-20H66c-11.046 0-20 8.954-20 20v100c0 11.046 8.954 20 20 20h36M80 44h22" stroke="#000" stroke-width="12" stroke-linecap="round" stroke-linejoin="round"/></svg>