<svg xmlns="http://www.w3.org/2000/svg" width="192" height="192" fill="none" stroke="#000" stroke-linecap="round" stroke-width="12" viewBox="0 0 192 192"><path d="M151.5 59A18.497 18.497 0 0 0 170 40.5 18.498 18.498 0 0 0 151.5 22m-74 37a18.5 18.5 0 1 0 0 37m0 0A18.5 18.5 0 0 0 59 114.5M152 59H78m63 37H78m46 37H96"/><path d="M152 22H28a6 6 0 0 0-6 6v126"/><path d="M22 151.5A18.497 18.497 0 0 0 40.5 170 18.498 18.498 0 0 0 59 151.5m0-36.5v37M168 49l-44 84"/><path d="M41 170h49a6 6 0 0 0 6-6v-31"/></svg>