<svg width="24" height="24" viewBox="0 0 24 24" fill="none" xmlns="http://www.w3.org/2000/svg">
<path d="M2 12.0559C2 17.0279 5.61111 21.162 10.3333 22L10.3333 14.8492H7.83333V12.0559H10.3333V9.82123C10.3333 7.30726 11.9444 5.91061 14.2222 5.91061C14.9444 5.91061 15.7222 6.02234 16.4444 6.13408V8.70391H15.1667C13.9444 8.70391 13.6667 9.31843 13.6667 10.1006V12.0559H16.3333L15.8889 14.8492H13.6667L13.6667 22C18.3889 21.162 22 17.0279 22 12.0559C22 6.52514 17.5 2 12 2C6.5 2 2 6.52514 2 12.0559Z" fill="#FFF1C0"/>
</svg>
