<svg xmlns="http://www.w3.org/2000/svg" width="192" height="192" viewBox="0 0 192 192"><g fill="none" stroke="#000" stroke-linecap="round" stroke-linejoin="round" stroke-width="8"><circle cx="101.605" cy="95.58" r="8.878"/><circle cx="68.956" cy="95.401" r="8.878"/><path d="M135.635 172s-3.54-19.069-10.433-33.824c0 0-3.685.51-6.448 6.785 0 0 4.89 9.717 5.892 27.039"/><path d="m82.947 141.442 17.286 18.563 25.427-23.138-8.398-9.746s-11.05 9.373-29.423 8.374zM90.539 172s1.466-19.128-2.094-24.417"/><path d="M118.766 125.752s6.19-10.185 0-48.303c0 0-13.347-10.485-67.276-5.145v35.317s1.033 27.99 18.567 27.99H87.89"/><path d="M122.889 121.11s18.651 6.546 24.288-29.677c0 0 1.3-8.92-10.72-7.138 0 0-7.136 6.387-14.786 21.27m20.405-22.302s6.262-20.166-21.006-44.83l4.308-12.984-32.895 3.723L80.916 20l-7.647 16.173-14.254-12.74-9.735 23.935-14.647-3.38 16.53 29.52m9.419 6.866h7.287m24.492 0h3.62M71.909 97.272l.783.659m32.208-1.287 2.087 1.853M61.67 113.01l28.892 3.21s-7.86 8.853-17.104 7.98c-9.243-.871-11.788-11.19-11.788-11.19"/></g></svg>