<svg width="192" height="192" viewBox="0 0 192 192" fill="none" xmlns="http://www.w3.org/2000/svg"><path d="M65 113v51a6 6 0 0 0 6 6h50a6 6 0 0 0 6-6v-51" stroke="#000" stroke-width="12" stroke-linecap="round" stroke-linejoin="round"/><circle cx="84" cy="149" r="3" stroke="#000" stroke-width="6" stroke-linecap="round" stroke-linejoin="round"/><circle cx="108" cy="149" r="3" stroke="#000" stroke-width="6" stroke-linecap="round" stroke-linejoin="round"/><path d="M127 113a30.997 30.997 0 0 0-19.137-28.64A30.999 30.999 0 0 0 65 113" stroke="#000" stroke-width="12" stroke-linecap="round" stroke-linejoin="round"/><path d="M96 63v16M84 63h24m-23 66h22m-22 0-4-40m26 40 4-40" stroke="#000" stroke-width="10" stroke-linecap="round" stroke-linejoin="round"/><circle cx="42" cy="42" r="20" stroke="#000" stroke-width="12" stroke-linecap="round" stroke-linejoin="round"/><path d="M62 42h108" stroke="#000" stroke-width="12" stroke-linecap="round" stroke-linejoin="round"/></svg>