<svg xmlns="http://www.w3.org/2000/svg" width="192" height="192" fill="none"><path stroke="#000" stroke-linecap="round" stroke-linejoin="round" stroke-width="10" d="M96 22v14m74 60h-14m-60 60v14M36 96H22m126.326-52.326-9.9 9.9m9.9 94.752-9.9-9.9m-84.852 0-9.9 9.9m9.9-94.752-9.9-9.9m24.007-16.041 5.358 12.934m91.328 27.114-12.934 5.358m-32.472 78.394 5.358 12.934m-83.752-45.406-12.934 5.358m96.686-96.686-5.358 12.934m45.406 83.752-12.934-5.358m-78.394 32.472-5.358 12.934M40.567 73.039l-12.934-5.358"/><circle cx="96" cy="96" r="74" stroke="#000" stroke-linecap="round" stroke-linejoin="round" stroke-width="12"/><circle cx="96" cy="96" r="30" stroke="#000" stroke-linecap="round" stroke-linejoin="round" stroke-width="10"/><circle cx="96" cy="96" r="5" stroke="#000" stroke-linecap="round" stroke-linejoin="round" stroke-width="10"/><path stroke="#000" stroke-linecap="round" stroke-linejoin="round" stroke-width="10" d="M125 67 96 96"/></svg>