<svg width="192" height="192" fill="none" xmlns="http://www.w3.org/2000/svg"><path d="M46 22H28a6 6 0 0 0-6 6v18m124-24h18a6.002 6.002 0 0 1 6 6v18m-24 124h18a6.003 6.003 0 0 0 4.243-1.757A6.003 6.003 0 0 0 170 164v-18M46 170H28a6 6 0 0 1-6-6v-18" stroke="#000" stroke-width="12" stroke-linecap="round" stroke-linejoin="round"/><path d="M110.248 45H61a5 5 0 0 0-5 5v92a5 5 0 0 0 5 5h70a5 5 0 0 0 5-5V70.49a5.002 5.002 0 0 0-1.487-3.558l-20.752-20.49A5 5 0 0 0 110.248 45Z" stroke="#000" stroke-width="12" stroke-linejoin="round"/><path d="M78 86h36m-36 20h16" stroke="#000" stroke-width="12" stroke-linecap="round"/></svg>