<svg width="192" height="192" viewBox="0 0 192 192" fill="none" xmlns="http://www.w3.org/2000/svg">
<path d="M43.973 19H25.2432C23.5874 19 21.9994 19.6578 20.8286 20.8286C19.6578 21.9994 19 23.5874 19 25.2432V43.973M148.027 19H166.757C168.413 19 170.001 19.6578 171.171 20.8286C172.342 21.9994 173 23.5874 173 25.2432V43.973M148.027 173H166.757C168.413 173 170.001 172.342 171.171 171.171C172.342 170.001 173 168.413 173 166.757V148.027M43.973 173H25.2432C23.5874 173 21.9994 172.342 20.8286 171.171C19.6578 170.001 19 168.413 19 166.757V148.027" stroke="black" stroke-width="12" stroke-linecap="round" stroke-linejoin="round"/>
<path d="M111.491 38H56C53.2386 38 51 40.2386 51 43V149.875C51 152.636 53.2386 154.875 56 154.875H135.375C138.136 154.875 140.375 152.636 140.375 149.875V66.8836C140.375 65.5575 139.848 64.2857 138.911 63.348L115.027 39.4645C114.089 38.5268 112.818 38 111.491 38Z" stroke="black" stroke-width="10"/>
<path d="M70 78H92.9592H115" stroke="black" stroke-width="10" stroke-linecap="round"/>
<path d="M70 114H100" stroke="black" stroke-width="10" stroke-linecap="round"/>
</svg>
