<svg width="192" height="192" viewBox="0 0 192 192" fill="none" xmlns="http://www.w3.org/2000/svg">
<path d="M56.8108 38H42.7027C41.4555 38 40.2593 38.4955 39.3774 39.3774C38.4955 40.2593 38 41.4555 38 42.7027V56.8108M135.189 38H149.297C150.545 38 151.741 38.4955 152.623 39.3774C153.505 40.2593 154 41.4555 154 42.7027V56.8108M135.189 154H149.297C150.545 154 151.741 153.505 152.623 152.623C153.505 151.741 154 150.545 154 149.297V135.189M56.8108 154H42.7027C41.4555 154 40.2593 153.505 39.3774 152.623C38.4955 151.741 38 150.545 38 149.297V135.189" stroke="black" stroke-width="12" stroke-linecap="round" stroke-linejoin="round"/>
<path d="M108.929 53H70.5C67.7386 53 65.5 55.2386 65.5 58V133C65.5 135.761 67.7386 138 70.5 138H125.5C128.261 138 130.5 135.761 130.5 133V74.5711C130.5 73.245 129.973 71.9732 129.036 71.0355L112.464 54.4645C111.527 53.5268 110.255 53 108.929 53Z" stroke="black" stroke-width="8"/>
<path d="M77 90H114" stroke="black" stroke-width="6" stroke-linecap="round"/>
<path d="M77 105H100" stroke="black" stroke-width="6" stroke-linecap="round"/>
</svg>
