<svg width="192" height="192" viewBox="0 0 192 192" fill="none" xmlns="http://www.w3.org/2000/svg">
<path d="M54 170H40C30.0589 170 22 161.941 22 152V138M138 170H152C161.941 170 170 161.941 170 152V138M170 54V40C170 30.0589 161.941 22 152 22H138M59 22H40C30.0589 22 22 30.0589 22 40V54" stroke="black" stroke-width="12" stroke-linecap="round" stroke-linejoin="round"/>
<path d="M60.2105 148H131.789C132.906 148 133.977 147.556 134.767 146.765C135.556 145.974 136 144.902 136 143.784V65.4219C136 64.3039 135.556 63.2317 134.767 62.441L117.584 45.2346C117.193 44.8432 116.729 44.5326 116.218 44.3208C115.707 44.109 115.16 43.9999 114.607 44H60.2105C59.0938 44 58.0229 44.4442 57.2332 45.2349C56.4436 46.0256 56 47.098 56 48.2162V143.784C56 144.902 56.4436 145.974 57.2332 146.765C58.0229 147.556 59.0938 148 60.2105 148Z" stroke="black" stroke-width="12" stroke-linejoin="round"/>
<path d="M76 90H115" stroke="black" stroke-width="12" stroke-linecap="round"/>
<path d="M76 110H96" stroke="black" stroke-width="12" stroke-linecap="round"/>
</svg>
