<svg xmlns="http://www.w3.org/2000/svg" width="192" height="192" fill="none" stroke="#000" stroke-linecap="round" stroke-linejoin="round" stroke-width="12" viewBox="0 0 192 192"><path stroke-width="8" d="m55 116 6-8.25-12-8.25 8-8.25L55 83"/><path d="M24 70s11.5-6 31-6 31 6 31 6l-7 90s-5 10-24 10-24-10-24-10z"/><path stroke-width="10" d="M32 134h48"/><path d="M24 22v47m41.5-5L104 45"/><path stroke-width="8" d="M125 65s4.5 4 10 4 10-4 10-4"/><circle cx="137" cy="55" r="33"/><circle cx="125" cy="48" r="3" stroke-width="6"/><circle cx="55" cy="151" r="3" stroke-width="6"/><circle cx="141" cy="48" r="3" stroke-width="6"/></svg>