<svg width="192" height="192" viewBox="0 0 192 192" fill="none" xmlns="http://www.w3.org/2000/svg"><circle cx="88" cy="122" r="3" stroke="#000" stroke-width="6" stroke-linecap="round" stroke-linejoin="round"/><circle cx="146" cy="65" r="3" stroke="#000" stroke-width="6" stroke-linecap="round" stroke-linejoin="round"/><circle cx="66" cy="122" r="3" stroke="#000" stroke-width="6" stroke-linecap="round" stroke-linejoin="round"/><circle cx="124" cy="65" r="3" stroke="#000" stroke-width="6" stroke-linecap="round" stroke-linejoin="round"/><circle cx="44" cy="122" r="3" stroke="#000" stroke-width="6" stroke-linecap="round" stroke-linejoin="round"/><circle cx="102" cy="65" r="3" stroke="#000" stroke-width="6" stroke-linecap="round" stroke-linejoin="round"/><path d="m78 79.594-51.117 9.191A5.933 5.933 0 0 0 22 94.625v50.441A5.933 5.933 0 0 0 27.933 151H42v19l17.348-19h44.719a5.933 5.933 0 0 0 5.933-5.934V101M78 79.594V92.85c0 4.5 3.62 8.149 8.087 8.149H110M78 79.594V30.15c0-5.024 4.468-8.851 9.388-8.043l75.826 12.622c3.913.643 6.786 4.049 6.786 8.043V92.85c0 4.5-3.621 8.149-8.087 8.149H152v16l-14.609-16H110" stroke="#000" stroke-width="12" stroke-linecap="round" stroke-linejoin="round"/></svg>