<svg xmlns="http://www.w3.org/2000/svg" width="192" height="192" fill="none" viewBox="0 0 192 192"><circle cx="96" cy="96" r="74" stroke="#000" stroke-linecap="round" stroke-linejoin="round" stroke-width="12"/><path stroke="#000" stroke-linecap="round" stroke-linejoin="round" stroke-width="10" d="M108 96c0-4.457-2.43-8.346-6.037-10.416M108 96c0 4.467-2.441 8.365-6.063 10.431M108 96h36c0 17.87-9.765 33.459-24.25 41.722l-17.813-31.291M84 96H48c0 17.87 9.765 33.459 24.25 41.722l17.813-31.291M84 96c0-4.457 2.43-8.346 6.037-10.416M84 96c0 4.467 2.441 8.365 6.063 10.431m-.026-20.847L72.148 54.336a47.8 47.8 0 0 1 47.704 0l-17.889 31.248m-11.926 0A11.95 11.95 0 0 1 96 84c2.17 0 4.206.576 5.963 1.584m-.026 20.847A11.95 11.95 0 0 1 96 108c-2.16 0-4.187-.571-5.937-1.569"/></svg>