<svg width="192" height="192" viewBox="0 0 192 192" fill="none" xmlns="http://www.w3.org/2000/svg"><path d="M96.767 23.764a5.962 5.962 0 0 1 8.466 0l49.014 49.303a6.05 6.05 0 0 1 .6 7.812L101 155 47.153 80.879a6.048 6.048 0 0 1 .6-7.812l49.014-49.303Z" stroke="#000" stroke-width="12" stroke-linecap="round" stroke-linejoin="round"/><path d="M109 144c-11 15-16 23-21.68 24.94m-.001-.001a19.846 19.846 0 0 1-17.467-2.31A19.96 19.96 0 0 1 63.668 160c-1.527-2.657-3.809-9.343-5.336-12a19.96 19.96 0 0 0-6.184-6.629 19.846 19.846 0 0 0-17.467-2.31A19.907 19.907 0 0 0 27 143.858" stroke="#000" stroke-width="12" stroke-linecap="round" stroke-linejoin="round"/></svg>