<svg width="192" height="192" viewBox="0 0 192 192" fill="none" xmlns="http://www.w3.org/2000/svg"><path d="M32 119v19a6 6 0 0 0 6 6h118.677c3.037 0 5.568-2.274 5.613-5.311.126-8.367-.971-25.07-10.29-38.689" stroke="#000" stroke-width="10" stroke-linecap="round" stroke-linejoin="round"/><path d="M172 63c-6 7-12-4-20 8" stroke="#000" stroke-width="8" stroke-linecap="round" stroke-linejoin="round"/><path d="M33 65c3 9 13 7 13 7" stroke="#000" stroke-width="10" stroke-linecap="round" stroke-linejoin="round"/><path d="M57.5 101C54 111 53 127 53 144" stroke="#000" stroke-width="8" stroke-linecap="round" stroke-linejoin="round"/><path d="M75 143s-2.5-32 11-57m53 57s2-25-9-49" stroke="#000" stroke-width="10" stroke-linecap="round" stroke-linejoin="round"/><path d="M48.347 91.796A15.936 15.936 0 0 0 38 88c-8.837 0-16 7.163-16 16s7.163 16 16 16 16-7.163 16-16c0-3.504-1.126-6.745-3.036-9.38m-2.617-2.824A20.909 20.909 0 0 1 44 79c0-11.598 9.402-21 21-21 8.409 0 15.663 4.942 19.017 12.08m-35.67 21.716a21.13 21.13 0 0 0 2.617 2.824m-2.617-2.824 2.617 2.824m0 0A20.922 20.922 0 0 0 65 100c11.098 0 20.185-8.609 20.948-19.513m-1.93-10.406a23.923 23.923 0 0 0 1.93 10.407m-1.93-10.407C84.5 57.25 95.052 47 108 47c13.255 0 24 10.745 24 24 0 2.739-.459 5.37-1.304 7.823m-44.748 1.664C89.626 89.024 98.115 95 108 95c9.612 0 17.904-5.65 21.736-13.81m.96-2.367C133.327 73.59 138.744 70 145 70c8.837 0 16 7.163 16 16s-7.163 16-16 16-16-7.163-16-16c0-1.676.258-3.292.736-4.81m.96-2.367c-.279.81-.6 1.6-.96 2.367" stroke="#000" stroke-width="12" stroke-linecap="round" stroke-linejoin="round"/></svg>