<svg id="Layer_1" data-name="Layer 1" xmlns="http://www.w3.org/2000/svg" width="192" height="192" viewBox="0 0 192 192"><defs><style>.cls-1,.cls-3,.cls-4{fill:none;}.cls-2{fill:#fff;}.cls-3,.cls-4{stroke:#000;stroke-linecap:round;}.cls-3{stroke-miterlimit:10;stroke-width:6px;}.cls-4{stroke-linejoin:round;stroke-width:12px;}</style></defs><rect class="cls-1" width="192" height="192"/><path class="cls-2" d="M23.9,112.67"/><path class="cls-3" d="M23.9,109V69.82a4.9,4.9,0,1,1,9.79,0"/><line class="cls-3" x1="19" y1="84.51" x2="30.02" y2="83.28"/><path class="cls-3" d="M50.83,89.41c-1.19,2.59-2.62,5.11-3.67,4.89-1.3-.26-.91-4.46-2.45-4.89-2-.57-4.29,6.38-7.34,6.12-2-.18-3.68-3.4-3.68-6.12,0-3.59,2.9-7.72,6.12-7.35,2.56.29,5,3.36,4.9,7.35"/><path class="cls-3" d="M54.51,77.16c.26,7.63.89,14.54,2.44,14.7,2.43.24,5.77-16.21,7.35-15.92s-.49,14.33,1.23,14.69c1.9.4,6.35-16.35,8.57-15.92,1.89.37.22,13,2.44,13.47,1.26.28,3.2-3.41,4.9-7.34"/><path class="cls-3" d="M85.11,72.27Q85,86.46,87.56,87q1.8.35,4.9-6.12"/><line class="cls-3" x1="84.87" y1="64.2" x2="86.59" y2="64.42"/><path class="cls-3" d="M97.36,49q-3.57,35.57,1.22,36.73,2.19.54,6.12-6.12"/><path class="cls-3" d="M104.7,77.16c1.73-3.93,3.69-7.63,4.9-7.34,2,.47.06,11.47,2.45,12.24,2.67.86,7.62-14,9.8-13.47,2.93.76.93,29.48-6.13,30.61-2.6.42-5.35-3-7.34-6.12"/><path class="cls-4" d="M36,143V105.78H51.7a11.47,11.47,0,0,1,7.16,10c.14,5.37-4,10.43-10,11.45H37.39"/><polyline class="cls-4" points="61.78 143 78.16 105.78 97.51 143"/><line class="cls-4" x1="66" y1="135.57" x2="90.9" y2="135.57"/><path class="cls-4" d="M109.76,143V105.78h15.75a11.61,11.61,0,0,1,0,21.47H114.06"/><path class="cls-4" d="M119.78,128.68a41.23,41.23,0,0,0,5.73,7.16,56.15,56.15,0,0,0,8.34,7.16"/><line class="cls-4" x1="145.81" y1="143" x2="145.81" y2="105.78"/><polyline class="cls-4" points="168.14 105.78 153.28 123.9 170 143"/></svg>