<svg width="192" height="192" viewBox="0 0 192 192" fill="none" xmlns="http://www.w3.org/2000/svg"><path d="M112 108H80m73.509 34.57a74.006 74.006 0 0 0 4.553-86.873A74.003 74.003 0 0 0 76.847 24.52M32.57 57.887a74 74 0 0 0 69.88 111.831" stroke="#000" stroke-width="12" stroke-linecap="round" stroke-linejoin="round"/><path d="M141.937 98.407a46.003 46.003 0 0 1-34.031 42.026 46.004 46.004 0 0 1-50.485-19.38 46 46 0 0 1 55.064-67.998" stroke="#000" stroke-width="12" stroke-linecap="round" stroke-linejoin="round"/><circle cx="51" cy="37" r="5" stroke="#000" stroke-width="10" stroke-linecap="round" stroke-linejoin="round"/><circle cx="135" cy="71" r="5" stroke="#000" stroke-width="10" stroke-linecap="round" stroke-linejoin="round"/><circle cx="96" cy="83" r="5" stroke="#000" stroke-width="10" stroke-linecap="round" stroke-linejoin="round"/><circle cx="131" cy="161" r="5" stroke="#000" stroke-width="10" stroke-linecap="round" stroke-linejoin="round"/></svg>