<svg xmlns="http://www.w3.org/2000/svg" width="192" height="192" fill="none"><path stroke="#000" stroke-linecap="round" stroke-linejoin="round" stroke-width="12" d="M84 115v36.538C84 161.734 75.734 170 65.538 170A5.54 5.54 0 0 1 60 164.462V110m24-27V52a6 6 0 0 1 6-6h59.538C159.734 46 168 37.734 168 27.538A5.54 5.54 0 0 0 162.462 22H66a6 6 0 0 0-6 6v52"/><path stroke="#000" stroke-linecap="round" stroke-linejoin="round" stroke-width="12" d="M28 89c42-28 98 28 130-8M22 116.161c42-28 98 30 130-6"/></svg>