<svg xmlns="http://www.w3.org/2000/svg" width="192" height="192" fill="none"><path stroke="#000" stroke-linecap="round" stroke-linejoin="round" stroke-width="12" d="M157.788 40h-40.971c-7.887 0-14.639 5.556-16.025 13.187l-14.534 80C84.476 142.994 92.148 152 102.283 152h39.518c5.914 0 10.978-4.167 12.018-9.891L158.744 115h-20.895l-2.216 12.066c-.525 2.856-3.054 4.934-6.007 4.934h-15.063c-3.806 0-6.684-3.385-6.008-7.066l11.022-60c.525-2.856 3.054-4.934 6.007-4.934h15.063c3.806 0 6.684 3.385 6.008 7.066L144.83 77h20.818l4.158-22.89c1.337-7.356-4.417-14.11-12.018-14.11"/><path stroke="#000" stroke-linecap="round" stroke-linejoin="round" stroke-width="12" d="M123 40H32L22 152h21l7.75-46h18.875l3.938-21H53.374l3-24h40.688"/></svg>