<svg width="192" height="192" viewBox="0 0 192 192" fill="none" xmlns="http://www.w3.org/2000/svg">
<rect width="192" height="192" fill="#1E1E1E"/>
<rect width="192" height="192" fill="white"/>
<path d="M17.375 25.25C17.375 21.9363 20.0613 19.25 23.375 19.25H171.375C174.689 19.25 177.375 21.9363 177.375 25.25V173.25C177.375 176.564 174.689 179.25 171.375 179.25H23.375C20.0613 179.25 17.375 176.564 17.375 173.25V25.25Z" fill="#D9D9D9"/>
<path d="M26.8484 88.5111L137.012 42.8798L168.108 117.952L57.9443 163.583L26.8484 88.5111Z" fill="#D9D9D9" stroke="black" stroke-width="12"/>
<mask id="path-3-inside-1_0_1" fill="white">
<path d="M46.5005 145.441C51.6384 143.212 55.6391 138.938 57.6223 133.559C59.6055 128.181 59.4089 122.138 57.0758 116.762C54.7426 111.385 50.4639 107.114 45.1811 104.888C39.8982 102.663 34.0439 102.665 28.906 104.894L33.3228 115.073C35.8812 113.963 38.7962 113.962 41.4267 115.07C44.0572 116.178 46.1877 118.305 47.3495 120.982C48.5113 123.659 48.6092 126.668 47.6216 129.346C46.6341 132.024 44.6421 134.153 42.0837 135.263L46.5005 145.441Z"/>
</mask>
<path d="M46.5005 145.441C51.6384 143.212 55.6391 138.938 57.6223 133.559C59.6055 128.181 59.4089 122.138 57.0758 116.762C54.7426 111.385 50.4639 107.114 45.1811 104.888C39.8982 102.663 34.0439 102.665 28.906 104.894L33.3228 115.073C35.8812 113.963 38.7962 113.962 41.4267 115.07C44.0572 116.178 46.1877 118.305 47.3495 120.982C48.5113 123.659 48.6092 126.668 47.6216 129.346C46.6341 132.024 44.6421 134.153 42.0837 135.263L46.5005 145.441Z" fill="black"/>
<path d="M46.5005 145.441L34.5749 150.616L39.7498 162.542L51.6754 157.367L46.5005 145.441ZM28.906 104.894L23.7311 92.9687L11.8055 98.1435L16.9804 110.069L28.906 104.894ZM33.3228 115.073L21.3972 120.248L26.5721 132.173L38.4977 126.999L33.3228 115.073ZM42.0837 135.263L36.9089 123.337L24.9832 128.512L30.1581 140.438L42.0837 135.263ZM51.6754 157.367C60.1556 153.687 66.6406 146.678 69.8195 138.057L45.4251 129.062C44.6375 131.198 43.1212 132.737 41.3257 133.516L51.6754 157.367ZM69.8195 138.057C72.9888 129.462 72.6331 119.956 69.0014 111.587L45.1501 121.936C46.1848 124.321 46.2223 126.9 45.4251 129.062L69.8195 138.057ZM69.0014 111.587C65.3698 103.217 58.6703 96.4644 50.2281 92.9079L40.1341 116.868C42.2576 117.763 44.1154 119.552 45.1501 121.936L69.0014 111.587ZM50.2281 92.9079C41.7603 89.3406 32.2114 89.2889 23.7311 92.9687L34.0809 116.82C35.8764 116.041 38.0362 115.985 40.1341 116.868L50.2281 92.9079ZM16.9804 110.069L21.3972 120.248L45.2484 109.898L40.8316 99.7194L16.9804 110.069ZM38.4977 126.999C37.7137 127.339 36.9342 127.284 36.3797 127.05L46.4738 103.09C40.6583 100.64 34.0486 100.587 28.1479 103.147L38.4977 126.999ZM36.3797 127.05C35.8509 126.827 35.5606 126.472 35.4239 126.157L59.2751 115.807C56.8149 110.138 52.2636 105.529 46.4738 103.09L36.3797 127.05ZM35.4239 126.157C35.2872 125.842 35.2259 125.387 35.4244 124.849L59.8189 133.844C61.9924 127.949 61.7354 121.477 59.2751 115.807L35.4239 126.157ZM35.4244 124.849C35.6326 124.284 36.1249 123.677 36.9089 123.337L47.2586 147.188C53.1593 144.628 57.6357 139.765 59.8189 133.844L35.4244 124.849ZM30.1581 140.438L34.5749 150.616L58.4262 140.267L54.0094 130.088L30.1581 140.438Z" fill="black" mask="url(#path-3-inside-1_0_1)"/>
<rect x="78.4751" y="85.043" width="29.7032" height="5.89332" rx="2.94666" transform="rotate(-23.2164 78.4751 85.043)" fill="#D9D9D9" stroke="black" stroke-width="5.89332"/>
<circle cx="38.2104" cy="124.981" r="10.8044" fill="#D9D9D9"/>
<circle cx="156.891" cy="77.1542" r="11" fill="#D9D9D9"/>
<rect x="86.9102" y="100.833" width="27.4131" height="6" rx="3" transform="rotate(-23.2164 86.9102 100.833)" fill="#D9D9D9" stroke="black" stroke-width="6"/>
<rect x="84.8311" y="85.063" width="45.7546" height="6" rx="3" transform="rotate(66.5219 84.8311 85.063)" fill="#D9D9D9" stroke="black" stroke-width="6"/>
<mask id="path-10-inside-2_0_1" fill="white">
<path d="M148.421 56.2046C143.172 58.4321 139.064 62.7505 137.001 68.2099C134.937 73.6693 135.088 79.8224 137.419 85.3156C139.75 90.8088 144.071 95.1922 149.431 97.5014C154.791 99.8106 160.751 99.8565 166 97.629L161.587 87.2301C158.973 88.3393 156.006 88.3164 153.337 87.1666C150.668 86.0168 148.516 83.8341 147.356 81.0989C146.195 78.3636 146.12 75.2998 147.147 72.5814C148.175 69.863 150.22 67.7127 152.834 66.6035L148.421 56.2046Z"/>
</mask>
<path d="M148.421 56.2046C143.172 58.4321 139.064 62.7505 137.001 68.2099C134.937 73.6693 135.088 79.8224 137.419 85.3156C139.75 90.8088 144.071 95.1922 149.431 97.5014C154.791 99.8106 160.751 99.8565 166 97.629L161.587 87.2301C158.973 88.3393 156.006 88.3164 153.337 87.1666C150.668 86.0168 148.516 83.8341 147.356 81.0989C146.195 78.3636 146.12 75.2998 147.147 72.5814C148.175 69.863 150.22 67.7127 152.834 66.6035L148.421 56.2046Z" fill="black"/>
<path d="M148.421 56.2046L160.388 51.1263L155.31 39.1592L143.343 44.2376L148.421 56.2046ZM166 97.629L171.078 109.596L183.045 104.518L177.967 92.5507L166 97.629ZM161.587 87.2301L173.554 82.1518L168.476 70.1847L156.509 75.2631L161.587 87.2301ZM152.834 66.6035L157.912 78.5706L169.879 73.4922L164.801 61.5252L152.834 66.6035ZM143.343 44.2376C134.74 47.8883 128.125 54.9217 124.84 63.614L149.161 72.8059C150.003 70.5794 151.604 68.9759 153.499 68.1717L143.343 44.2376ZM124.84 63.614C121.565 72.2802 121.846 81.898 125.452 90.3939L149.386 80.2373C148.329 77.7468 148.31 75.0584 149.161 72.8059L124.84 63.614ZM125.452 90.3939C129.057 98.8899 135.779 105.775 144.287 109.441L154.574 85.5623C152.363 84.6095 150.443 82.7277 149.386 80.2373L125.452 90.3939ZM144.287 109.441C152.821 113.117 162.475 113.247 171.078 109.596L160.922 85.662C159.027 86.4662 156.76 86.5041 154.574 85.5623L144.287 109.441ZM177.967 92.5507L173.554 82.1518L149.62 92.3085L154.033 102.707L177.967 92.5507ZM156.509 75.2631C157.249 74.949 157.975 75.0099 158.48 75.2275L148.193 99.1057C154.036 101.623 160.698 101.73 166.665 99.1972L156.509 75.2631ZM158.48 75.2275C158.96 75.4341 159.209 75.753 159.323 76.0205L135.389 86.1772C137.824 91.9152 142.376 96.5994 148.193 99.1057L158.48 75.2275ZM159.323 76.0205C159.436 76.288 159.492 76.6888 159.308 77.1773L134.987 67.9854C132.747 73.9107 132.954 80.4392 135.389 86.1772L159.323 76.0205ZM159.308 77.1773C159.113 77.6918 158.653 78.2564 157.912 78.5706L147.756 54.6365C141.788 57.1689 137.236 62.0341 134.987 67.9854L159.308 77.1773ZM164.801 61.5252L160.388 51.1263L136.454 61.2829L140.867 71.6819L164.801 61.5252Z" fill="black" mask="url(#path-10-inside-2_0_1)"/>
</svg>
