<svg width="192" height="192" viewBox="0 0 192 192" fill="none" xmlns="http://www.w3.org/2000/svg">
<path d="M27.4672 94.5332L32.7039 107.471C38.7203 106.451 44.3742 109.074 47.0856 115.773C49.797 122.472 47.5573 128.284 42.5227 131.729L47.7594 144.667M144.292 47.3328L149.529 60.2706C144.494 63.716 142.255 69.5281 144.966 76.2268C147.678 82.9256 153.331 85.5485 159.348 84.529L164.585 97.4668" stroke="#000" stroke-width="12" stroke-linecap="round" stroke-linejoin="round"/>
<path d="M27.4672 94.5332L24.4816 87.1571C23.2383 84.0854 24.7211 80.5891 27.7935 79.3477L133.492 36.6426C136.565 35.4012 140.063 36.885 141.307 39.9566L144.292 47.3328M164.585 97.4668L167.57 104.843C168.813 107.915 167.331 111.411 164.258 112.652L58.5593 155.357C55.4868 156.599 51.9883 155.115 50.745 152.043L47.7594 144.667" stroke="#000" stroke-width="12" stroke-linecap="round" stroke-linejoin="round"/>
<path d="M94.4205 116.056L87.6669 99.3715M97.6026 75.9436L80.9133 82.6865L87.6669 99.3715M87.6669 99.3715L101.99 93.5844" stroke="#000" stroke-width="10" stroke-linecap="round" stroke-linejoin="round"/>
</svg>
