<svg width="192" height="192" viewBox="0 0 192 192" fill="none" xmlns="http://www.w3.org/2000/svg">
<path d="M92.8378 122.332L85.1986 101.344M101.369 71.6891L77.5594 80.3552L85.1986 101.344M85.1986 101.344L106.627 93.5443M165.782 122.721C168.776 121.631 170.394 118.124 169.3 115.102L160.279 90.3154C154.204 90.8793 146.548 87.206 143.638 79.1679C140.728 71.1298 144.199 63.4067 149.22 59.932L140.199 35.1456C139.105 32.1232 135.6 30.481 132.606 31.5707L26.2556 70.2791C23.2615 71.3689 21.6323 74.8796 22.7371 77.8981L31.7587 102.685C37.8384 102.119 45.4616 105.804 48.3992 113.832C51.3368 121.86 47.8332 129.595 42.8173 133.068L51.8388 157.854C52.9436 160.873 56.4375 162.519 59.4316 161.429L112.607 142.075L165.782 122.721Z" stroke="#000" stroke-width="12" stroke-linecap="round" stroke-linejoin="round"/>
</svg>
