<svg width="192" height="192" viewBox="0 0 192 192" fill="none" xmlns="http://www.w3.org/2000/svg"><path d="M123 53a16.001 16.001 0 0 1 16 16m0 0v13m-16-29H59a6 6 0 0 0-6 6v17a6 6 0 0 0 6 6h80m-70 57a16.001 16.001 0 0 1-16-16m0 0v-13" stroke="#000" stroke-width="12" stroke-linecap="round" stroke-linejoin="round"/><path d="M68.762 139h63.952c3.472 0 6.286-3.134 6.286-7v-15c0-3.866-2.814-7-6.286-7H53" stroke="#000" stroke-width="12" stroke-linecap="round" stroke-linejoin="round"/><path d="M167 57v104a6 6 0 0 1-6 6H57m-32-32V31a6 6 0 0 1 6-6h104m32 32a32.003 32.003 0 0 0-32-32M25 135a32.003 32.003 0 0 0 32 32" stroke="#000" stroke-width="12" stroke-linecap="round" stroke-linejoin="round"/></svg>