<svg width="192" height="192" viewBox="0 0 192 192" fill="none" xmlns="http://www.w3.org/2000/svg">
<path d="M99.2185 61.2982C99.2185 56.8782 102.802 53.2952 107.222 53.2952C111.641 53.2952 115.225 56.8782 115.225 61.2982C115.225 65.7181 111.641 69.3012 107.222 69.3012C102.802 69.3012 99.2185 65.7181 99.2185 61.2982Z" stroke="black" stroke-width="8" stroke-linecap="round" stroke-linejoin="round"/>
<path d="M123.228 85.3073C123.228 80.8873 126.811 77.3042 131.231 77.3042C135.651 77.3042 139.234 80.8873 139.234 85.3073C139.234 89.7272 135.651 93.3103 131.231 93.3103C126.811 93.3103 123.228 89.7272 123.228 85.3073Z" stroke="black" stroke-width="8" stroke-linecap="round" stroke-linejoin="round"/>
<path d="M110.778 53.7398C110.778 53.7398 112.551 48.3955 114.335 45.2921C115.945 42.492 117.135 41.0847 119.226 38.6229C121.61 35.8154 122.87 34.0553 125.895 31.9537C129.023 29.7811 131.1 28.9048 134.787 27.9522C137.999 27.1225 139.918 27.1102 143.235 27.063C147.07 27.0085 149.377 26.741 153.017 27.9522C156.041 28.9588 157.796 29.7828 160.13 31.9537C162.812 34.4484 163.852 36.4857 165.021 39.9568C166.246 43.5917 166.018 45.9041 165.91 49.7383C165.807 53.4201 165.54 55.5202 164.576 59.0751C163.437 63.2781 162.747 65.8202 160.13 69.3012C158.137 71.9529 156.563 73.0954 153.906 75.0812C151.163 77.1312 149.447 78.0716 146.347 79.5273C143.662 80.7885 139.234 82.195 139.234 82.195" stroke="black" stroke-width="8" stroke-linecap="round" stroke-linejoin="round"/>
<path d="M124.117 90.6426C124.117 90.6426 121.673 96.2378 121.894 99.9795C122.123 103.875 123.706 105.826 125.451 109.316C127.196 112.806 129.026 114.281 130.786 117.764C132.793 121.736 133.988 124.057 134.787 128.435C135.599 132.876 135.237 135.503 134.787 139.995C134.347 144.399 134.471 147.115 132.564 151.11C130.964 154.463 129.751 156.43 126.784 158.668C123.014 161.513 115.224 162.225 115.224 162.225C115.224 162.225 121.909 158.603 121.894 154.667C121.885 152.41 118.856 151.437 119.671 149.332C120.543 147.076 123.763 148.841 125.451 147.108C127.781 144.716 126.574 141.994 126.784 138.661C126.927 136.408 127.834 134.879 126.784 132.881C125.374 130.196 120.45 132.699 119.671 129.769C118.903 126.882 123.651 126.495 124.117 123.544C124.722 119.709 121.531 118.059 119.671 114.652C118.029 111.646 117.054 109.988 115.224 107.093C112.62 111.26 111.16 113.597 108.555 117.764C105.951 121.931 111.323 123.451 109.889 126.656C108.332 130.136 103.988 128.71 101.441 131.547C98.2506 135.102 96.3247 138.462 97.4399 143.107C98.4162 147.173 105.076 146.961 104.554 151.11C104.092 154.772 97.9353 153.676 97.4399 157.335C97.0935 159.892 100.768 161.226 99.663 163.559C98.2507 166.541 94.1051 165.151 91.2154 163.559C87.3169 161.412 87.7804 157.303 87.2138 152.888C86.5668 147.847 87.8793 144.954 88.9923 139.995C90.0265 135.386 90.7987 132.822 92.5492 128.435C93.9021 125.044 94.77 123.174 96.5507 119.987C98.2657 116.918 99.5556 115.396 101.441 112.429C103.199 109.664 105.888 105.315 105.888 105.315L94.3276 114.652L88.103 120.432L82.7676 129.769L79.6553 139.995L78.3215 151.11C78.3215 151.11 77.0654 159.449 72.9861 160.447C69.4403 161.314 65.3503 160.004 64.5385 156.445C63.8099 153.251 68.6114 152.586 68.9846 149.332C69.4448 145.319 63.4708 143.89 64.5385 139.995C65.5953 136.14 70.6392 137.45 72.9861 134.215C75.7063 130.464 73.796 126.899 75.6538 122.655C77.6045 118.198 80.7178 118.242 84 114.652C86.6559 111.746 88.3941 110.324 91.5584 107.983C94.0236 106.158 96.0805 104.664 97.9934 103M36.9725 128.435C35.134 131.984 38.9982 135.51 42.7525 136.882C45.8893 138.029 48.1126 136.822 51.2001 135.549C54.6352 134.132 55.7633 131.968 58.7585 129.769C62.6798 126.889 63.6606 125.096 67.2063 121.766C70.9024 118.293 72.7247 115.679 75.6538 111.539C76.8952 109.785 78.2272 108.674 79.5 107.504M36.9725 128.435C38.6013 125.29 43.1219 128.896 45.8648 126.656C48.3914 124.593 46.589 120.716 49.4217 119.098M36.9725 128.435C36.9725 128.435 34.3282 123.372 34.7496 119.987C35.2315 116.115 38.3288 115.297 40.9742 112.429C43.4934 109.697 45.3319 108.537 48.5324 106.649C51.9493 104.633 54.0285 102.452 56.9802 101.758C59.9319 101.063 61.5868 100.674 64.5385 99.9795C67.4902 99.285 68.867 99.9795 68.867 99.9795M49.4217 119.098C52.3021 117.453 53.8179 119.655 56.9802 118.653C60.3765 117.577 61.2829 115.092 63.6494 112.429C64.9613 110.952 66.1892 109.867 67.2063 108.658M49.4217 119.098C49.4217 119.098 51.1866 114.483 53.4234 112.429C55.942 110.115 58.0665 109.511 61.4262 108.872C63.6452 108.449 67.2063 108.658 67.2063 108.658M85.8799 75.9704C86.7926 79.1972 84.1863 80.9349 82.7676 83.9734C82.0733 85.4606 81.641 86.7666 81.1188 87.9749M85.8799 75.9704C84.8013 72.1568 80.414 73.0716 76.9877 71.0797C73.8211 69.2388 72.6438 66.3506 68.9846 66.1889C65.7956 66.048 64.5812 69.7873 61.4262 69.3012C57.6626 68.7213 58.3456 63.4616 54.757 62.1874C52.139 61.2579 50.3112 61.413 47.6432 62.1874C45.0979 62.9262 43.9145 64.0659 41.8632 65.7443C39.6757 67.5343 39.7964 70.9569 36.9725 71.0797C34.1486 71.2024 32.4252 68.9034 31.6372 66.1889C30.4553 62.1181 34.7909 60.2187 37.8617 57.2967C40.3041 54.9727 41.7526 53.3951 44.9755 52.4059C48.1294 51.438 50.1316 52.1849 53.4232 52.4059C57.0982 52.6527 59.2008 52.7919 62.76 53.7398C66.3742 54.7023 68.2694 55.7014 71.6523 57.2967C75.8014 59.2533 77.6705 61.2499 81.8784 63.0766C85.404 64.6072 87.3996 65.7278 91.2154 66.1889C94.4951 66.5853 99.663 65.7443 99.663 65.7443M85.8799 75.9704C85.8799 75.9704 81.3629 77.7284 78.3215 78.1935C74.8888 78.7183 72.9012 78.2685 69.4294 78.1935C65.6064 78.1108 63.3237 78.2256 59.5 78.1935C54.8088 78.154 52.2849 76.1517 47.6432 76.8323C43.3932 77.4555 41.0382 78.114 36.9725 79.5C33.9511 80.53 31.6123 81.6586 29.4142 83.9734C25.7079 87.8767 24.0875 98.5297 29.4142 97.7564C31.9917 97.3823 32.2089 94.3279 34.7496 93.7549C37.543 93.125 39.2494 96.703 41.8632 95.5334C44.777 94.2295 42.454 89.9325 44.9755 87.9749C47.3432 86.1369 49.5499 86.9218 52.5341 86.6411C55.9914 86.316 57.9579 86.4684 61.4262 86.6411C65.965 86.8671 68.4468 87.7603 72.9861 87.9749C76.1586 88.1249 81.1188 87.9749 81.1188 87.9749M81.1188 87.9749C80.5033 89.3988 79.763 90.6871 78.3215 91.9765C75.4133 94.5779 71.0276 92.209 68.9846 95.5334C67.8836 97.325 68.3322 98.6079 68.867 99.9795M68.867 99.9795C69.3563 101.235 69.9177 102.564 69.4294 104.426C68.9523 106.244 68.1748 107.507 67.2063 108.658M85.1375 97.7564C85.6271 96.4699 86.2149 95.1782 87.2138 93.7549C89.4709 90.5391 90.9434 88.6369 94.3276 86.6411C97.1653 84.9676 99.5294 82.2394 102.331 83.9734C103.435 84.6571 104.047 85.5745 104.359 86.6411M85.1375 97.7564C84.4456 99.5745 83.95 101.382 82.7676 103.536C81.8089 105.283 80.6799 106.419 79.5 107.504M85.1375 97.7564C85.1375 97.7564 91.606 96.9704 95.217 95.0888C99.5278 92.8424 104.359 86.6411 104.359 86.6411M104.359 86.6411C104.707 87.829 106.906 90.5357 106.777 91.9765C106.476 95.3343 104.082 96.5322 101.886 99.0903C100.599 100.59 99.3313 101.836 97.9934 103M79.5 107.504L97.9934 103" stroke="black" stroke-width="6" stroke-linecap="round" stroke-linejoin="round"/>
<path d="M163.17 62.6347C171.113 78.6264 173.091 96.9276 168.746 114.247C164.402 131.567 154.021 146.768 139.47 157.117C124.92 167.467 107.154 172.285 89.3678 170.706C71.5818 169.127 54.9426 161.254 42.4426 148.503C29.9426 135.752 22.402 118.96 21.1768 101.146C19.9516 83.3323 25.1221 65.6658 35.7587 51.3235C46.3953 36.9813 61.7999 26.9045 79.2022 22.9053C96.6046 18.9061 114.863 21.2469 130.694 29.5067" stroke="black" stroke-width="8"/>
</svg>
