<svg width="192" height="192" fill="none" xmlns="http://www.w3.org/2000/svg"><path d="M96 105v40m0 0-18-22m18 22 18-22m47-40H25v78a6 6 0 0 0 6 6h130a6 6 0 0 0 6-6V89a6 6 0 0 0-6-6ZM25 59v24m135.163-57.94-130 18.233A5.983 5.983 0 0 0 25 49.209v15.815c0 3.631 3.226 6.423 6.837 5.916l130-18.233A5.983 5.983 0 0 0 167 46.791V30.976c0-3.631-3.226-6.423-6.837-5.916Z" stroke="#000" stroke-width="12" stroke-linecap="round" stroke-linejoin="round"/><path d="M96 36v24M59 42v24m74-35v24" stroke="#000" stroke-width="10" stroke-linecap="round" stroke-linejoin="round"/></svg>