<svg width="192" height="192" viewBox="0 0 192 192" fill="none" xmlns="http://www.w3.org/2000/svg"><path d="M96 103v44m-16-22 16 22 16-22" stroke="#000" stroke-width="10" stroke-linecap="round" stroke-linejoin="round"/><path d="M164 80H22v84a6 6 0 0 0 6 6h136a6 6 0 0 0 6-6V86a6 6 0 0 0-6-6ZM22 58v24m141.197-59.94-136 18.378A6 6 0 0 0 22 46.384v15.89c0 3.634 3.203 6.433 6.803 5.947l136.001-18.379A6 6 0 0 0 170 43.896v-15.89c0-3.634-3.203-6.433-6.803-5.947Z" stroke="#000" stroke-width="12" stroke-linecap="round" stroke-linejoin="round"/><path d="M96 33v24M59 39v24m74-35v24" stroke="#000" stroke-width="10" stroke-linecap="round" stroke-linejoin="round"/></svg>