<svg xmlns="http://www.w3.org/2000/svg" width="192" height="192" fill="none" viewBox="0 0 192 192"><path stroke="#000" stroke-linecap="round" stroke-width="12" d="M170 69h-11a6 6 0 0 0-6 6v30a6 6 0 0 1-6 6h-30a6 6 0 0 0-6 6v30a6 6 0 0 1-6 6H75a6 6 0 0 0-6 6v11"/><path stroke="#000" stroke-linecap="round" stroke-linejoin="round" stroke-width="12" d="M54.685 68.85c12.45-4.75 18.71-18.731 13.98-31.231S50.006 18.836 37.556 23.585c-12.45 4.748-18.708 18.73-13.979 31.23 4.73 12.5 18.657 18.783 31.107 14.034m0 0 14.274 37.72M54.685 68.85l21.853-3.506c3.054-.49 7.099-1.874 7.962-4.844l6.5-17M54.685 68.85 40.831 84.818a8 8 0 0 0-1.924 5.975l1.414 15.368m28.638.408-3.494 18.752a8 8 0 0 1-6.103 6.338L49 134m19.959-27.43 17.179-17.894a8 8 0 0 1 7.794-2.2L105.5 89.5"/></svg>