<svg width="192" height="192" viewBox="0 0 192 192" fill="none" xmlns="http://www.w3.org/2000/svg"><path d="m119.495 59.6 13.716 14.982a6.31 6.31 0 0 1 .167 8.348l-32.493 38.459c-2.552 3.021-7.233 3.034-9.802.028l-38.545-45.11a6.31 6.31 0 0 1 .022-8.237L91.3 23.22c2.5-2.893 6.988-2.97 9.587-.164l13.186 14.237m25.409 86.297-38.593 45.164c-2.559 2.995-7.219 2.995-9.778 0L52.518 123.59a6.31 6.31 0 0 1 0-8.212l38.593-45.164c2.56-2.995 7.219-2.995 9.778 0l38.593 45.164a6.312 6.312 0 0 1 0 8.212Z" stroke="#000" stroke-width="12" stroke-linecap="round" stroke-linejoin="round"/></svg>
