<?xml version="1.0" encoding="utf-8"?>
	<svg version="1.1" xmlns="http://www.w3.org/2000/svg" xmlns:xlink="http://www.w3.org/1999/xlink" x="0px" y="0px" width="240.0" height="240.0" xml:space="preserve">
		<path d="M207.662,112.257C209.691,103.78 205.032,93.353 196.919,87.691C189.716,82.66 185.025,82.171 169.889,84.912C169.914,83.433 171.158,82.858 171.894,82.016C173.93,79.689 176.17,77.53 178.089,75.116C180.087,72.598 182.575,71.855 185.663,71.824C200.898,71.688 212.699,79.962 217.445,94.485C218.262,96.979 219.085,97.319 221.263,95.915C230.366,90.067 235.898,81.905 237.73,71.236C237.835,70.63 237.921,70.017 238.07,69.423C238.107,69.281 238.373,69.194 238.893,68.823C240.267,72.486 240.106,76.156 239.722,79.733C238.373,92.158 232.197,101.589 221.412,107.876C219.394,109.052 218.497,110.636 217.433,112.61C214.339,118.347 214.264,123.928 216.647,129.838C217.253,131.342 217.123,133.142 216.603,134.937C215.607,132.084 214.617,129.238 213.621,126.385C212.773,123.959 211.795,123.662 209.889,125.723C205.886,130.048 200.916,132.944 195.192,134.448C194.277,134.689 193.317,135.314 192.247,134.64C192.736,133.359 194.017,133.254 194.933,132.703C200.044,129.627 203.794,125.407 206.207,119.943C206.968,118.223 206.64,117.053 205.186,115.939C191.739,105.605 167.055,109.139 160.322,130.376C159.772,132.115 159.858,134.052 159.499,135.865C157.884,144.12 152.928,149.467 144.97,151.929C142.773,152.61 141.504,153.043 141.851,155.946C142.402,160.574 139.289,165.147 134.79,166.88C132.804,167.647 131.9,168.829 131.294,170.735C128.008,181.051 124.636,191.335 121.275,201.62C120.997,202.468 121.034,203.848 120.019,203.897C118.676,203.959 118.837,202.412 118.546,201.527C115.186,191.348 111.857,181.162 108.602,170.946C107.965,168.953 107.092,167.623 104.945,166.837C101.702,165.649 99.648,163.068 98.466,159.788C97.829,158.006 98.188,156.67 99.586,155.37C100.966,154.089 101.801,153.476 102.971,155.723C104.654,158.972 107.736,160.308 110.632,159.559C113.763,158.749 115.817,156.045 115.941,152.406C115.991,150.989 115.824,149.559 115.749,147.981C117.408,148.093 117.798,149.423 118.348,150.389C121.22,155.389 120.007,161.775 115.341,165.376C113.732,166.614 113.509,167.672 114.141,169.516C116.084,175.24 117.822,181.032 120.236,186.806C122.191,180.655 124.153,174.504 126.096,168.353C126.647,166.601 125.174,166.032 124.165,165.228C118.423,160.655 119.091,150.63 124.753,147.158C123.714,150.407 123.175,153.167 124.691,155.785C126.226,158.421 128.361,159.986 131.492,159.696C136.232,159.256 138.045,155.444 137.358,147.524C138.769,147.115 139.017,148.421 139.592,149.12C140.248,149.931 140.817,150.525 141.857,149.708C142.773,148.99 142.866,148.26 142.092,147.356C139.345,144.139 136.659,140.877 134.468,137.245C133.837,136.199 132.81,136.274 131.733,136.311C128.435,136.422 125.551,137.678 122.569,139.231C123.54,136.063 125.378,133.526 128.051,131.639C129.666,130.5 131.009,129.541 130.007,127.189C129.543,126.106 132.996,121.942 134.141,121.96C135.539,121.985 135.527,123.328 135.892,124.194C138.509,130.407 141.925,136.131 146.065,141.453C147.525,143.334 148.175,143.124 149.029,141.057C152.309,133.111 149.642,123.798 142.445,118.056C141.566,117.35 139.462,116.998 140.663,115.147C141.727,113.507 143.051,111.917 145.477,112.87C148.373,114.009 151.189,115.283 153.348,117.623C154.58,118.953 155.248,118.569 156.504,117.344C160.335,113.6 162.08,109.85 158.126,105.123C157.439,104.3 157.296,103.031 156.839,101.991C155.997,100.073 156.238,98.489 157.878,97.016C159.252,95.785 160.36,94.256 161.647,92.926C162.179,92.375 162.649,91.391 163.627,91.793C164.549,92.165 164.289,93.204 164.444,93.978C165.155,97.536 166.244,100.958 167.996,104.157C168.615,105.283 169.221,105.902 170.663,105.351C184.264,100.129 196.535,102.338 207.662,112.257Z" fill="#000" stroke="" stroke-width="" stroke-miterlimit=""/>
		<path d="M105.924,120.432C105.924,119.151 105.862,118.755 105.936,118.384C106.165,117.202 107.39,115.729 106.543,114.937C105.46,113.928 103.808,114.918 102.483,115.351C94.73,117.895 89.34,125.748 89.501,134.157C89.55,136.651 86.438,141.639 84.265,142.647C83.17,143.155 82.756,142.412 82.347,141.694C81.054,139.417 80.398,136.911 80.07,134.349C78.442,121.632 68.541,111.874 55.763,110.593C48.127,109.825 40.992,111.131 34.68,115.865C33.04,117.09 32.762,118.241 33.61,120.036C36.134,125.413 39.723,129.776 44.958,132.722C45.806,133.198 46.957,133.322 47.384,134.652C46.091,135.191 44.996,134.528 43.888,134.207C38.313,132.579 33.517,129.634 29.618,125.345C28.083,123.656 27.192,123.78 26.444,125.89C25.423,128.755 24.365,131.601 22.997,134.392C22.632,130.853 23.275,127.406 24.711,124.219C25.744,121.923 25.633,120.16 24.439,117.92C20.293,110.16 20.342,110.172 13.442,104.467C2.978,95.822 -1.069,84.553 0.237,71.193C0.317,70.401 0.342,69.529 1.221,69.046C2.298,69.553 2.032,70.605 2.18,71.465C4.012,82.152 9.55,90.333 18.77,96.026C20.169,96.886 21.425,97.728 22.143,95.172C28.486,72.635 55.441,64.702 72.892,78.736C73.195,78.978 73.572,79.126 73.975,79.355C74.278,72.134 64.433,60.828 54.451,56.886C44.259,52.864 34.296,53.631 24.173,59.015C24.649,57.208 25.738,56.824 26.623,56.317C41.864,47.455 61.456,49.955 73.727,62.307C86.153,74.813 88.616,93.613 79.723,109.052C78.709,110.816 78.77,111.899 80.2,113.303C81.796,114.875 82.848,117.66 84.643,118.192C86.666,118.786 88.17,115.834 90.119,114.72C94.637,112.134 99.457,111.502 104.463,112.449C106.747,112.882 107.663,112.171 108.009,109.949C108.894,104.225 109.402,98.495 108.727,92.709C108.634,91.911 108.269,91.1 108.82,90.308C109.94,90.104 109.872,91.069 110.07,91.651C112.236,97.963 113.22,104.473 112.904,111.119C112.706,115.494 108.665,116.991 105.924,120.432ZM31.611,112.548C32.316,112.208 32.533,112.158 32.669,112.028C43.269,102.245 55.367,100.308 68.715,105.259C70.355,105.865 71.202,105.457 71.939,104.046C73.758,100.543 74.866,96.818 75.584,92.951C76.079,90.277 75.119,88.526 72.83,87.047C60.262,78.941 42.96,82.895 35.317,95.766C32.304,100.84 30.936,106.311 31.611,112.548Z" fill="#000" stroke="" stroke-width="" stroke-miterlimit=""/>
		<path d="M22.458,217.938C81.054,146.787 146.035,82.066 217.415,23C214.352,38.996 46.085,207.264 22.458,217.938Z" fill="#000" stroke="" stroke-width="" stroke-miterlimit=""/>
		<path d="M119.92,36.707C120.743,39.584 120.91,41.806 120.953,44.064C121.306,61.998 122.123,79.881 126.386,97.412C126.745,98.897 126.442,100.03 125.334,101.014C124.951,101.354 124.61,101.75 124.245,102.109C119.666,106.676 117.797,106.533 113.664,101.453C112.859,100.463 113.113,99.559 113.391,98.569C116.597,87.196 117.667,75.512 118.354,63.792C118.843,55.469 119.171,47.14 119.586,38.817C119.623,38.334 119.74,37.864 119.92,36.707Z" fill="#000" stroke="" stroke-width="" stroke-miterlimit=""/>
		<path d="M215.033,58.761C210.045,55.977 204.556,54.528 198.739,54.299C198.38,54.287 197.873,54.108 197.718,53.842C197.409,53.303 197.904,52.913 198.25,52.542C198.838,51.917 199.55,51.484 200.429,51.663C205.682,52.746 210.726,54.374 215.088,57.641C215.404,57.882 215.769,58.217 215.033,58.761Z" fill="#000" stroke="" stroke-width="" stroke-miterlimit=""/>
	</svg>
