<svg xmlns="http://www.w3.org/2000/svg" width="192" height="192" fill="none"><path stroke="#000" stroke-linecap="round" stroke-linejoin="round" stroke-width="12" d="M59 31a6 6 0 0 1 6-6h62a6 6 0 0 1 6 6v48c0 18.298-25.597 35.213-34.21 40.387a5.37 5.37 0 0 1-5.58 0C84.597 114.213 59 97.298 59 79z"/><path stroke="#000" stroke-linecap="round" stroke-linejoin="round" stroke-width="12" d="M59 74H31a6 6 0 0 0-6 6v81a6 6 0 0 0 6 6h130a6 6 0 0 0 6-6V80a6 6 0 0 0-6-6h-28m0 72H59"/><path stroke="#000" stroke-linecap="round" stroke-linejoin="round" stroke-width="10" d="m78 57 9-5m14 30H91l3.182 8h3.636zm13-25-9-5"/></svg>