<svg width="192" height="192" viewBox="0 0 192 192" fill="none" xmlns="http://www.w3.org/2000/svg"><rect x="77" y="77" width="38" height="38" rx="6" stroke="#000" stroke-width="12" stroke-linecap="round" stroke-linejoin="round"/><path d="M41.318 48.461A24 24 0 0 0 46 96a23.998 23.998 0 0 0-23.539 28.682 24.003 24.003 0 0 0 25.63 19.227M96 46a24 24 0 1 0-37.334 19.955M96 146a24.001 24.001 0 0 1-40.97 16.971 24.003 24.003 0 0 1-6.939-19.062m17.864-10.575a24.001 24.001 0 0 1-17.864 10.575" stroke="#000" stroke-width="12" stroke-linecap="round" stroke-linejoin="round"/><path d="M150.682 48.461a24.002 24.002 0 0 1 18.857 18.857 23.996 23.996 0 0 1-10.205 24.637A24.001 24.001 0 0 1 146 96a24 24 0 1 1-2.091 47.909M96 46a23.999 23.999 0 0 1 28.682-23.539 24.002 24.002 0 0 1 18.857 18.857 23.996 23.996 0 0 1-10.205 24.637M96 146a24 24 0 1 0 47.909-2.091m-17.864-10.575a23.997 23.997 0 0 0 17.864 10.575" stroke="#000" stroke-width="12" stroke-linecap="round" stroke-linejoin="round"/></svg>