<svg id="Layer_1" data-name="Layer 1" xmlns="http://www.w3.org/2000/svg" viewBox="0 0 24 24">
  <path d="M19.05984,9.40085H4.93994A1.32424,1.32424,0,0,0,3.61579,10.725v8.82494a1.32424,1.32424,0,0,0,1.32415,1.32415h14.1199A1.32424,1.32424,0,0,0,20.384,19.54994V10.725A1.32424,1.32424,0,0,0,19.05984,9.40085ZM11.99989,19.77077a4.6333,4.6333,0,1,1,4.6333-4.6333A4.63833,4.63833,0,0,1,11.99989,19.77077Zm0-8.42827a3.795,3.795,0,1,0,3.795,3.795A3.79936,3.79936,0,0,0,11.99989,11.3425Zm0,6.55245a2.7686,2.7686,0,0,1-2.68414-2.14H10.7074a1.43693,1.43693,0,1,0,.04833-1.32415H9.33741A2.75621,2.75621,0,1,1,11.99989,17.895ZM21.874,1.33007l-.00167.0025-.005-.00416.00333-.00334a.55683.55683,0,0,0-.4325-.19833.54527.54527,0,0,0-.42666.21583l-1.515,1.96082a1.30361,1.30361,0,0,0-.43583-.07917H4.93994a1.32871,1.32871,0,0,0-.43583.07917l-1.515-1.96165A.54927.54927,0,0,0,2.13,1.32424l.00333.00333-.00583.005-.00167-.0025a.55131.55131,0,0,0-.01.68666L3.70662,4.07588a1.32252,1.32252,0,0,0-.09.47167V7.63669A1.32425,1.32425,0,0,0,4.94078,8.96085H19.06067a1.32425,1.32425,0,0,0,1.32416-1.32416V4.54755a1.3052,1.3052,0,0,0-.09083-.47167l1.59082-2.05915A.55219.55219,0,0,0,21.874,1.33007ZM7.75326,7.85669A1.48916,1.48916,0,1,1,9.24241,6.36753,1.48908,1.48908,0,0,1,7.75326,7.85669Zm8.6041,0a1.48916,1.48916,0,1,1,1.48916-1.48916A1.48909,1.48909,0,0,1,16.35736,7.85669Z"/>
</svg>
