<?xml version="1.0" encoding="UTF-8" standalone="no"?>
<svg
   id="Layer_1"
   data-name="Layer 1"
   viewBox="0 0 24 24"
   version="1.1"
   sodipodi:docname="fdroid.svg"
   inkscape:version="1.1.1 (3bf5ae0d25, 2021-09-20)"
   xmlns:inkscape="http://www.inkscape.org/namespaces/inkscape"
   xmlns:sodipodi="http://sodipodi.sourceforge.net/DTD/sodipodi-0.dtd"
   xmlns="http://www.w3.org/2000/svg"
   xmlns:svg="http://www.w3.org/2000/svg">
  <defs
     id="defs7" />
  <sodipodi:namedview
     id="namedview5"
     pagecolor="#ffffff"
     bordercolor="#666666"
     borderopacity="1.0"
     inkscape:pageshadow="2"
     inkscape:pageopacity="0.0"
     inkscape:pagecheckerboard="0"
     showgrid="false"
     inkscape:zoom="34.708333"
     inkscape:cx="12"
     inkscape:cy="9.6806723"
     inkscape:window-width="2560"
     inkscape:window-height="1011"
     inkscape:window-x="0"
     inkscape:window-y="32"
     inkscape:window-maximized="1"
     inkscape:current-layer="Layer_1" />
  <path
     d="M 19.060398,9.40085 H 4.9393736 A 1.3243454,1.32424 0 0 0 3.6151182,10.725 v 8.82494 a 1.3243454,1.32424 0 0 0 1.3242554,1.32415 H 19.060398 a 1.3243454,1.32424 0 0 0 1.324266,-1.32415 V 10.725 A 1.3243454,1.32424 0 0 0 19.060398,9.40085 Z m -7.060512,10.36992 a 4.6336689,4.6333 0 1 1 4.633669,-4.6333 4.6386993,4.63833 0 0 1 -4.633669,4.6333 z m 0,-8.42827 a 3.7953021,3.795 0 1 0 3.795302,3.795 3.7996625,3.79936 0 0 0 -3.795302,-3.795 z m 0,6.55245 a 2.7688204,2.7686 0 0 1 -2.684354,-2.14 h 1.391761 a 1.4370444,1.43693 0 1 0 0.04833,-1.32415 H 9.3371937 a 2.7564294,2.75621 0 1 1 2.6626923,3.4642 z m 9.874896,-16.56488 -0.0017,0.0025 -0.005,-0.00416 0.0033,-0.00334 A 0.55687433,0.55683 0 0 0 21.438907,1.12674 0.54531341,0.54527 0 0 0 21.012213,1.34257 l -1.51512,1.96082 A 1.3037138,1.30361 0 0 0 19.061228,3.22422 H 4.9393736 A 1.3288158,1.32871 0 0 0 4.5035089,3.30339 L 2.9883883,1.34174 A 0.54931373,0.54927 0 0 0 2.1292099,1.32424 l 0.00333,0.00333 -0.00583,0.005 -0.00167,-0.0025 A 0.55135389,0.55131 0 0 0 2.1150388,2.01673 L 3.7059554,4.07588 A 1.3226253,1.32252 0 0 0 3.6159482,4.54755 V 7.63669 A 1.3243554,1.32425 0 0 0 4.9402137,8.96085 H 19.061228 A 1.3243554,1.32425 0 0 0 20.385494,7.63669 V 4.54755 A 1.3053039,1.3052 0 0 0 20.294656,4.07588 L 21.885603,2.01673 A 0.55223396,0.55219 0 0 0 21.874782,1.33007 Z M 7.7529176,7.85669 A 1.4892786,1.48916 0 1 1 9.2421861,6.36753 1.4891986,1.48908 0 0 1 7.7529176,7.85669 Z m 8.6047854,0 a 1.4892786,1.48916 0 1 1 1.489279,-1.48916 1.4892086,1.48909 0 0 1 -1.489279,1.48916 z"
     id="path2"
     style="stroke-width:1.00004" />
</svg>
