<svg xmlns="http://www.w3.org/2000/svg" width="192" height="192" stroke-width="12" viewBox="0 0 192 192"><path fill="none" stroke="#000" d="M34 102a 16 16 0 01 16 -16h92a 16 16 0 01 16 16v52a 16 16 0 01 -16 16H50a 16 16 0 01 -16 -16v-52zm0-48a 16 16 0 01 16 -16h92a 16 16 0 01 16 16v16a 16 16 0 01 -16 16H50a 16 16 0 01 -16 -16V54z"/><path fill="none" stroke="#000" stroke-linecap="round" d="M36 40 22 22m134 18 14-18M78.202 140.931a21.994 21.994 0 0 0 24.596 7.992 21.997 21.997 0 0 0 0-41.846 21.994 21.994 0 0 0-24.596 7.992"/><circle cx="66" cy="62" r="10"/><circle cx="126" cy="62" r="10"/></svg>