<svg xmlns="http://www.w3.org/2000/svg" width="192" height="192" stroke-width="12" viewBox="0 0 192 192"><path fill="none" stroke="#000" d="M34 102a16 16 0 0 1 16-16h92a16 16 0 0 1 16 16v52a16 16 0 0 1-16 16H50a16 16 0 0 1-16-16zm0-48a16 16 0 0 1 16-16h92a16 16 0 0 1 16 16v16a16 16 0 0 1-16 16H50a16 16 0 0 1-16-16z"/><path fill="none" stroke="#000" stroke-linecap="round" d="M36 40 22 22m134 18 14-18M78.202 140.931a21.99 21.99 0 0 0 24.596 7.992 21.997 21.997 0 0 0 0-41.846 21.99 21.99 0 0 0-24.596 7.992"/><circle cx="66" cy="62" r="10"/><circle cx="126" cy="62" r="10"/></svg>