<svg width="192" height="192" viewBox="0 0 192 192" fill="none" xmlns="http://www.w3.org/2000/svg"><path d="M50 86a16 16 0 0 0-16 16v52a16.002 16.002 0 0 0 16 16h92c4.243 0 8.313-1.686 11.314-4.686 3-3.001 4.686-7.071 4.686-11.314v-52a16.002 16.002 0 0 0-16-16m-92 0h92m-92 0a16 16 0 0 1-16-16V54a16 16 0 0 1 16-16h92a16.002 16.002 0 0 1 16 16v16a16.002 16.002 0 0 1-16 16" stroke="#000" stroke-width="12"/><circle cx="66" cy="62" r="5" stroke="#000" stroke-width="10" stroke-linecap="round" stroke-linejoin="round"/><circle cx="126" cy="62" r="5" stroke="#000" stroke-width="10" stroke-linecap="round" stroke-linejoin="round"/><path d="M36 40 22 22m134 18 14-18M79 140.342a20.996 20.996 0 0 0 23.481 7.629A20.998 20.998 0 0 0 117 128a20.992 20.992 0 0 0-14.519-19.971A20.996 20.996 0 0 0 79 115.658" stroke="#000" stroke-width="12" stroke-linecap="round"/></svg>