<svg xmlns="http://www.w3.org/2000/svg" width="192" height="192" fill="none" viewBox="0 0 192 192"><path stroke="#000" stroke-width="12" d="M34 102c0-8.837 7.163-16 16-16h92c8.837 0 16 7.163 16 16v52c0 8.837-7.163 16-16 16H50c-8.837 0-16-7.163-16-16v-52Zm0-48c0-8.837 7.163-16 16-16h92c8.837 0 16 7.163 16 16v16c0 8.837-7.163 16-16 16H50c-8.837 0-16-7.163-16-16V54Z"/><path stroke="#000" stroke-linecap="round" stroke-width="12" d="M36 40 22 22m134 18 14-18"/><circle cx="66" cy="62" r="9.5" fill="#000"/><circle cx="66" cy="62" r="9.5" stroke="#000"/><circle cx="66" cy="62" r="9.5" stroke="#000" stroke-opacity=".2"/><circle cx="126" cy="62" r="9.5" fill="#000"/><circle cx="126" cy="62" r="9.5" stroke="#000"/><circle cx="126" cy="62" r="9.5" stroke="#000" stroke-opacity=".2"/><path stroke="#000" stroke-linecap="round" stroke-width="12" d="M78.202 140.931a21.994 21.994 0 0 0 24.596 7.992 21.997 21.997 0 0 0 0-41.846 21.994 21.994 0 0 0-24.596 7.992"/></svg>