<svg width="192" height="192" viewBox="0 0 192 192" fill="none" xmlns="http://www.w3.org/2000/svg"><path d="M111 111a17.002 17.002 0 0 0-10.494-15.706 17.002 17.002 0 0 0-22.212 22.212A17.001 17.001 0 0 0 94 128" stroke="#000" stroke-width="12" stroke-linecap="round" stroke-linejoin="round"/><path d="M77 111a17.002 17.002 0 0 0-10.494-15.706A17 17 0 1 0 60 128m78-34 32 34m0-34-32 34m-116 0V66a6 6 0 0 1 6-6h24m59 68V66a6 6 0 0 1 6-6h21m-44 68h44m-27-34h27" stroke="#000" stroke-width="12" stroke-linecap="round" stroke-linejoin="round"/><path d="M43 112h32" stroke="#000" stroke-width="10" stroke-linecap="round" stroke-linejoin="round"/><path d="M22 94h38" stroke="#000" stroke-width="12" stroke-linecap="round" stroke-linejoin="round"/></svg>