<?xml version="1.0" encoding="UTF-8" standalone="no"?>
<!-- Created with Inkscape (http://www.inkscape.org/) -->

<svg
   width="192"
   height="192"
   viewBox="0 0 50.799999 50.8"
   version="1.1"
   id="svg5"
   inkscape:version="1.2 (dc2aedaf03, 2022-05-15)"
   sodipodi:docname="feeder2.svg"
   xmlns:inkscape="http://www.inkscape.org/namespaces/inkscape"
   xmlns:sodipodi="http://sodipodi.sourceforge.net/DTD/sodipodi-0.dtd"
   xmlns="http://www.w3.org/2000/svg"
   xmlns:svg="http://www.w3.org/2000/svg">
  <sodipodi:namedview
     id="namedview7"
     pagecolor="#ffffff"
     bordercolor="#000000"
     borderopacity="0.25"
     inkscape:showpageshadow="2"
     inkscape:pageopacity="0.0"
     inkscape:pagecheckerboard="0"
     inkscape:deskcolor="#d1d1d1"
     inkscape:document-units="px"
     showgrid="false"
     inkscape:zoom="3.659624"
     inkscape:cx="41.124443"
     inkscape:cy="65.443882"
     inkscape:window-width="2560"
     inkscape:window-height="1351"
     inkscape:window-x="2091"
     inkscape:window-y="-9"
     inkscape:window-maximized="1"
     inkscape:current-layer="layer1"
     showguides="true" />
  <defs
     id="defs2" />
  <g
     inkscape:label="Vrstva 1"
     inkscape:groupmode="layer"
     id="layer1">
    <g
       aria-label="F"
       id="text186"
       style="font-size:37.8354px;font-family:'Sonsie One';-inkscape-font-specification:'Sonsie One';fill-opacity:0;stroke:#000000;stroke-width:2.64583;stroke-linejoin:round">
      <path
         d="m 27.866314,20.94769 c 0.424909,-0.960665 0.868292,-1.533369 0.868292,-2.069124 0,-0.831344 -1.477945,-0.960664 -2.881993,-0.960664 -2.106072,0 -4.988065,0.0739 -7.075663,1.07151 -4.581631,2.216918 -5.431449,9.421901 -7.666841,13.948109 -1.2008309,2.457084 -1.9767521,2.900468 -4.1936701,2.900468 -0.5911781,0 -1.1269333,0.332537 -1.2008306,0.923715 0,1.477946 4.5262077,3.3808 9.3480037,3.3808 4.008927,0 6.872446,-0.332537 8.054802,-4.304515 0.68355,-2.327764 1.330151,-4.729425 1.976752,-7.038715 3.676389,0.221692 6.096524,3.177582 7.463624,3.177582 0.498806,0 0.905241,-0.295589 1.163882,-0.683549 0.886767,-1.293202 2.494032,-4.784848 2.494032,-5.874833 0,-0.886767 -1.311676,-1.219305 -2.660301,-1.219305 -2.881993,0 -6.004153,1.200831 -7.722264,2.106072 0.609652,-1.958277 1.274728,-3.787234 2.032175,-5.357551 z m 11.324755,-0.591178 c 0.314064,0.25864 0.720499,0.498806 1.256254,0.498806 0.221692,0 0.461858,-0.03695 0.720498,-0.110846 1.330151,-0.406435 3.805709,-6.151947 3.916555,-7.648367 0,-1.995226 -7.722264,-2.438609 -12.747278,-2.438609 -11.546448,0 -20.691234,4.600104 -20.691234,6.539907 0,0.461858 0.314063,0.572704 0.609652,0.572704 0.203218,0 0.775922,-0.12932 1.385574,-0.406435 3.25148,-1.459471 8.405814,-2.253866 11.250859,-2.253866 5.339077,0 10.825949,2.198443 14.29912,5.246706 z"
         id="path288" />
    </g>
  </g>
</svg>
