<svg xmlns="http://www.w3.org/2000/svg" width="192" height="192" fill="none" stroke="#000" stroke-linecap="round" stroke-linejoin="round" stroke-width="12" viewBox="0 0 192 192"><path stroke-width="10"/><path d="M78.72 113.92c0 .16.06.2.2.28.31.19.65.23.96.36.5.23.98.51 1.49.72.48.19.88.52 1.45.57.26.05.5.16.7.34.34.3.77.41 1.14.55.32.12.63.32.99.39.23.05.54.03.72.17.32.25.69.39 1.03.6.23.13.54-.05.68.16.19.28.54.33.76.41.65.23 1.26.49 1.9.75.55.23 1.11.39 1.64.69.45.24 1.04.25 1.56.47.19.09.3.27.51.29.5.03.97.18 1.41.43.14.09.28.25.46.28.5.1.99.23 1.48.44.46.18.94.38 1.42.45.26.04.32.3.57.3.45 0 .8.29 1.22.38.57.13 1.13.34 1.69.51.13.04.35-.02.4.05.35.45.92.23 1.38.45.49.26 1.14.37 1.71.56.51.19 1.03.38 1.58.4.09 0 .17.03.25.08.36.23.79.36 1.21.46.2.04.4.08.61.1.36.06.66.31 1.01.34.53.02.97.34 1.52.36.21.01.55-.02.72.15.36.35.86.33 1.26.43.87.23 1.79.18 2.69.47.51.19 1.09.12 1.66.25.92.21 1.91.14 2.88.2 1.8.11 3.6.07 5.39-.14.45-.06.88-.08 1.32-.19.64-.17 1.29-.27 1.94-.32.56-.05 1.08-.29 1.65-.23.04 0 .08-.01.11-.04.5-.3 1.07-.3 1.58-.48.37-.11.8-.1 1.11-.28.32-.2.67-.33 1.04-.4.57-.09.97-.57 1.55-.53.03 0 .05-.03.07-.04.39-.3.87-.46 1.31-.61q.705-.24 1.38-.57c.59-.3 1.16-.69 1.75-1.03.17-.1.42.05.55-.23.09-.23.3-.34.57-.4.29-.08.64-.19.76-.53.06-.15.17-.16.29-.15.17 0 .3-.07.39-.22.36-.55.99-.8 1.49-1.17.53-.36.94-.85 1.49-1.18.65-.38 1.12-.99 1.65-1.51.44-.46.86-.93 1.33-1.34.37-.32.54-.75.91-1.07.25-.23.65-.46.75-.8.16-.54.58-.77.95-1.1.13-.28.33-.51.57-.71l.14-.22c.19-.11.09-.4.29-.52.37-.24.51-.69.67-1.03.25-.53.56-1.04.85-1.53.32-.54.52-1.13.92-1.64.29-.39.49-.9.71-1.36.39-.8.79-1.59 1.21-2.36.25-.46.49-.94.71-1.42.21-.5.5-.97.73-1.45.23-.5.55-.96.73-1.45.23-.61.57-1.12.83-1.71.08-.2.06-.45.21-.6.3-.33.51-.7.64-1.12.23-.61.74-1.08.8-1.75l.05-.02c.22-.17.3-.46.43-.7.21-.38.3-.82.55-1.17.39-.54.62-1.16.91-1.74.2-.37.35-.78.55-1.11.34-.54.57-1.15.89-1.68q.345-.57.57-1.2c.11-.28.3-.55.47-.8.31-.48.53-1.03.93-1.45.17-.19.16-.44.36-.64.35-.35.53-.8.8-1.2.21-.3.35-.67.59-.9.45-.43.8-.97 1.11-1.46.3-.49.7-.93 1.06-1.36.58-.71 1.21-1.4 1.85-2.09.58-.62 1.16-1.23 1.74-1.85.34-.35.24-.42-.02-.67-.06-.08-.13-.08-.22-.11-.26-.08-.54-.13-.77-.27a5 5 0 0 0-.8-.46c-.42-.17-.91-.23-1.27-.48-.49-.38-1.11-.36-1.63-.64-.38-.2-.77-.34-1.19-.42-.32-.06-.65-.21-.96-.3-.42-.14-.87-.28-1.3-.4-.69-.17-1.36-.36-2.03-.58q-.69-.27-1.44-.24c-.11-.47-.49-.2-.75-.25-.34 0-.66-.17-.98-.23-1.04-.18-2.11-.22-3.16-.46-.83-.18-1.73-.08-2.6-.2-.52-.07-1.03-.03-1.56-.04 0-.2-.1-.25-.28-.25h-5.02c-.18 0-.29.06-.29.25-1.28-.07-2.53.22-3.81.21h-.76c-.18-.01-.26.07-.27.24-.73-.07-1.42.25-2.15.2-.05 0-.09.01-.13.04-.56.39-1.24.25-1.85.45-.48.16-1.06.14-1.52.31-.36.13-.77.23-1.14.38-.46.2-.93.3-1.43.29-.42.02-.52-.18-.57-.58-.05-.42-.02-.92-.23-1.25-.4-.63-.28-1.37-.63-2.03-.19-.34-.32-.71-.4-1.1-.02-.23.04-.55-.12-.68-.37-.26-.23-.68-.46-1.03-.25-.36-.26-.9-.46-1.35-.19-.46-.43-.97-.48-1.48-.02-.25-.31-.26-.29-.52.02-.42-.29-.76-.39-1.16-.14-.54-.44-1.05-.64-1.58-.16-.42-.33-.86-.53-1.23-.28-.57-.52-1.16-.86-1.72-.32-.49-.41-1.13-.75-1.67-.28-.44-.53-.91-.73-1.4-.33-.78-.81-1.45-1.19-2.2-.36-.73-.75-1.45-1.18-2.16-.4-.67-.75-1.38-1.22-2.03-.18-.26-.48-.53-.53-.82-.06-.44-.4-.75-.6-1-.29-.34-.3-.95-.86-1.07 0 0-.02-.06-.01-.08.05-.46-.59-.58-.54-1.05-.49-.17-.35-.89-.91-1.03 0 0-.02-.05-.01-.07.04-.46-.4-.71-.6-1.01-.25-.38-.54-.74-.85-1.07-.15-.16-.4-.3-.46-.49-.19-.69-.85-1.03-1.18-1.62-.31-.55-.84-.92-1.27-1.38-.41-.48-.9-.87-1.48-1.14-.54-.2-.96-.64-1.6-.67-.66-.04-1.29-.42-1.99-.4 0-.15-.05-.26-.23-.26H42.93c-.18 0-.22.11-.22.26-.46-.04-.71.34-.86.62-.34.6.15 1.71.81 1.97.27.1.42.3.62.48.1.1.19.26.34.24.27-.02.4.17.48.33.1.22.3.3.46.38.48.25.93.57 1.32.95.6.55 1.26.99 1.9 1.46.54.39.97.9 1.55 1.22.45.23.69.75 1.11.95.6.3.93.87 1.5 1.17.35.18.63.48.88.78.23.26.64.27.82.53.54.8 1.45 1.17 2.08 1.89.62.7 1.49 1.12 2.13 1.85.75.88 1.78 1.51 2.6 2.33.58.57 1.16 1.11 1.74 1.66.46.42.92.84 1.35 1.29.32.32.73.57 1.03.86.74.72 1.6 1.36 2.11 2.28l.12.14c.57.54 1.14 1.07 1.69 1.62.68.69 1.35 1.42 2.09 2.07.31.23.56.51.75.85.15.34.41.57.64.79.63.61 1.32 1.18 1.76 1.96.19.32.56.44.76.74.25.39.63.67.88 1.08.36.6.99 1.03 1.41 1.66.42.61.96 1.21 1.49 1.73.59.6 1.01 1.33 1.63 1.87.34.27.37.8.79.97.22.09.29.27.35.42.22.49.65.83.91 1.29s.71.74 1.01 1.19c.54.85 1.17 1.66 1.86 2.4.22.25.19.64.51.77.48.19.56.7.81 1.05.32.44.76.82 1 1.31.25.53.68.91.96 1.39.25.44.57.83.83 1.26.2.33.38.71.67 1 .3.3.4.77.75 1.06.32.26.39.68.69.98.3.34.43.85.77 1.18.3.28.45.67.65 1 .15.23.46.37.5.68.03.34.29.55.46.8.27.39.61.78.76 1.14.27.69.74 1.21 1.07 1.83.39.69.87 1.37 1.26 2.08.3.51.59 1.03.91 1.51.14.24.12.56.38.74.32.23.39.62.57.94.16.28.28.63.51.82.18.16.18.31.21.49-.05.28-.28.39-.49.53-.59.38-1.06.89-1.58 1.37-.34.31-.61.72-1 .94-.64.34-1.1.91-1.67 1.32-.69.51-1.39 1.02-2 1.63-.3.28-.75.33-.95.7-.16.32-.57.26-.76.51-.4.53-1.06.75-1.54 1.19-.28.26-.68.48-1.02.68-.22.12-.46.2-.64.37-.45.4-.95.74-1.48 1.03-.23.13-.54.22-.71.42-.32.34-.76.5-1.13.8-.36.31-.77.55-1.21.73-.57.22-1.01.62-1.53.88-.71.34-1.37.77-2.07 1.11-.18.09-.49.15-.59.4m20.37-14.61c.28.12.41-.1.57-.25l1.28-1.27 2.64-2.6c.76-.75 1.46-1.53 2.23-2.25 1.37-1.26 2.63-2.61 4-3.88.89-.83 1.69-1.75 2.68-2.49.85-.66 1.57-1.49 2.35-2.25l1.73-1.72c.59-.59 1.37-.98 1.92-1.62.04-.06.1-.11.17-.15.57-.22.97-.69 1.45-1.05.56-.4 1.12-.8 1.67-1.22.27-.22.63-.32.87-.56.68-.69 1.6-.99 2.4-1.47.84-.51 1.71-1 2.6-1.42.63-.3 1.19-.78 1.88-.92.78-.16 1.37-.69 2.11-.92.23-.07.51-.09.72-.25.43-.35 1.02-.35 1.51-.57.23-.12.48-.27.74-.3.6-.08 1.12-.36 1.69-.5.16-.04.29-.13.15-.32m16.46 41.87c-.17-.12-.28.03-.38.14-.31.27-.53.64-.79.96l-1.31 1.53c-.9.99-1.88 1.94-2.86 2.83-.76.7-1.62 1.29-2.44 1.92-.31.23-.62.48-.94.69-.34.24-.65.56-1.03.72-.72.31-1.36.75-2.02 1.14-1.17.64-2.37 1.2-3.61 1.68-.7.29-1.39.59-2.11.82-.57.19-1.13.43-1.71.57-.2.05-.4.03-.58.1-.58.21-1.18.34-1.78.49-.51.13-1.07.02-1.52.23-.68.32-1.46.02-2.1.45-.99-.01-1.99.11-2.98.19-1.76.13-3.52-.12-5.28-.16-.8-.03-1.55-.43-2.37-.31-.04 0-.09-.01-.12-.05-.26-.2-.57-.19-.87-.19-.62 0-1.21-.14-1.79-.25-.58-.12-1.16-.34-1.72-.53-.33-.11-.68-.05-.98-.19-.44-.21-.9-.36-1.37-.44-1.1-.23-2.12-.68-3.23-.87-.73-.12-1.37-.53-2.1-.68-.51-.12-1.02-.3-1.51-.46-.63-.21-1.25-.42-1.89-.58-1.02-.28-1.96-.71-2.95-1.03-1.19-.39-2.35-.86-3.53-1.26-.7-.23-1.33-.65-2.08-.76a2.5 2.5 0 0 1-.92-.35c-.56-.32-1.19-.43-1.76-.71-.48-.22-1.02-.34-1.48-.57-.78-.4-1.68-.52-2.39-1.08a.28.28 0 0 0-.17-.05c-.58-.06-1.09-.32-1.58-.57-1.09-.53-2.25-.88-3.32-1.46-.84-.47-1.78-.73-2.62-1.19-.2-.05-.37-.01-.58-.12-.35-.17-.68-.45-1.05-.54-.69-.2-1.22-.7-1.91-.91-.38-.11-.68-.45-1.05-.55-.45-.11-.83-.34-1.2-.54-.6-.35-1.25-.58-1.86-.95-.33-.21-.77-.28-1.05-.52-.44-.36-1.11-.34-1.41-.89-.73-.06-1.22-.62-1.85-.88-.74-.31-1.42-.78-2.12-1.18-.3-.17-.58-.48-.86-.53-.78-.16-1.3-.71-1.94-1.05-.75-.4-1.48-.83-2.17-1.31-.12-.07-.29-.05-.37-.15-.46-.51-1.11-.77-1.67-1.12-.56-.32-1.11-.66-1.66-1-.67-.42-1.37-.85-2.01-1.3-.42-.31-.96-.5-1.32-.85-.28-.25-.61-.34-.88-.57-.51-.41-1.09-.74-1.64-1.12-.25-.17-.58-.33-.75-.52-.33-.36-.78-.54-1.13-.84-.53-.45-1.19-.76-1.72-1.22-.31-.28-.76-.32-.99-.71-.08-.15-.23-.25-.44-.31-.34-.09-.58-.38-.86-.57-.43-.29-.8-.68-1.24-.97-.52-.36-.98-.83-1.52-1.15-.58-.35-.99-.9-1.58-1.23-.35-.22-.57-.62-.91-.78-.62-.27-.98-.81-1.54-1.14-.44-.28-.73-.79-1.19-1.03-.54-.29-.86-.79-1.34-1.12-.14-.1-.3-.11-.42-.27-.31-.38-.73-.66-1.09-.99-.37-.34-.84-.57-1.19-.98-.27-.3-.57-.7-.91-.83-.53-.2-.75-.67-1.17-.96-.51-.37-.89-.89-1.39-1.29-.32-.26-.69-.46-.94-.78-.37-.48-.85-.88-1.29-1.29-.57-.56-1.12-1.15-1.71-1.68-.46-.41-.88-.87-1.35-1.28-.44-.39-.82-.83-1.26-1.21-.57-.53-1.1-1.12-1.64-1.68-.54-.58-1.12-1.1-1.65-1.68-.46-.52-.91-1.15-1.8-.95-.44.09-.65.36-.81.72-.44.04-.26.39-.26.58v64.72c0 .26.03.51.01.76 0 .2.07.29.25.3-.11.6.29 1.07.38 1.62.06.39.31.72.46 1.09.22.5.64.93.94 1.4.27.41.6.76 1 1.04.41.3.84.62 1.28.88.53.3 1.03.68 1.52 1.02.15.09.32.12.48.26.46.42 1.04.72 1.6 1.01.38.19.73.46 1.14.63.92.38 1.7 1.06 2.63 1.43.53.19.93.57 1.47.73.12.04.27.06.37.12.76.53 1.61.83 2.43 1.24.17.09.38.09.52.2.44.35.94.57 1.49.67.09.02.18.03.28.11.23.17.52.3.78.45.3.17.69.07.96.36.1.12.34.27.54.3.8.15 1.54.53 2.28.82.23.09.53 0 .69.17.3.31.72.3 1.06.46.5.22 1.03.39 1.59.53.24.05.57.01.72.17.29.32.72.34 1.03.42.82.2 1.62.46 2.42.73.64.23 1.36.28 2.04.48.57.16 1.14.35 1.71.45.26.04.65-.06.8.08.43.43 1.03.18 1.52.42.48.23 1.14.32 1.76.28.11-.02.29-.04.34.02.46.45 1.17 0 1.6.47 1.03.09 2.06.13 3.07.43.65.19 1.37.09 2.05.25.84.2 1.74.14 2.61.23.57.05 1.13.02 1.69.04 0 .18.1.25.28.24h12.35c.18 0 .28-.06.28-.24 1.37.06 2.72-.26 4.08-.21h.76c.18.01.28-.06.27-.25.62-.04 1.23-.11 1.83-.23.96-.19 1.97-.15 2.93-.46.48-.16 1.02-.13 1.54-.26.59-.14 1.22-.3 1.87-.25.07 0 .19 0 .22-.04.32-.42.86-.22 1.28-.42.47-.2.97-.29 1.49-.26.06 0 .16 0 .22-.04.46-.26.95-.41 1.47-.46.69-.11 1.36-.28 2.02-.53.49-.18.99-.31 1.5-.4.11-.02.24-.02.29-.09.29-.3.71-.31 1.03-.4.67-.17 1.29-.42 1.95-.62.21-.06.46.01.65-.11.51-.36 1.07-.59 1.69-.69.1-.01.19-.02.28-.09.3-.18.58-.4.95-.45.53-.05 1.03-.32 1.49-.54.39-.2.82-.35 1.22-.55.31-.16.64-.36 1.02-.43.54-.09.89-.56 1.44-.67.41-.1.8-.27 1.16-.49.59-.33 1.19-.61 1.79-.89.37-.2.81-.36 1.12-.59.46-.32.96-.59 1.48-.82.67-.3 1.25-.72 1.91-1 .57-.27 1.09-.69 1.66-1.01.28-.16.55-.41.82-.55.31-.16.62-.34.92-.54.38-.26.84-.42 1.17-.75.3-.3.7-.4 1.01-.67.36-.31.85-.46 1.2-.8.11-.12.18-.23.34-.23.19-.02.33-.12.42-.29.11-.18.27-.31.46-.39.54-.19.82-.7 1.33-.96.3-.15.57-.43.85-.64.49-.34.96-.7 1.43-1.07.26-.21.49-.56.76-.64.57-.18.74-.8 1.28-1.03.18-.09.34-.21.49-.36.41-.46.91-.83 1.37-1.27.28-.3.67-.44.95-.76.32-.39.68-.75 1.07-1.08.34-.28.66-.6.96-.92l1.72-1.7c.57-.55 1.1-1.11 1.67-1.65.35-.32.65-.68.92-1.07.3-.41.64-.77 1.03-1.09.3-.24.39-.6.66-.85.41-.34.76-.73 1.04-1.18.31-.53.84-.86 1.12-1.39.21-.39.61-.64.85-1.03.24-.41.57-.78.88-1.15.34-.41.73-.84.96-1.3.24-.49.67-.8.91-1.29.25-.45.55-.87.88-1.27.23-.28.37-.6.56-.9.3-.46.62-.9.94-1.35.12-.19.15-.4.32-.59.31-.32.65-.71.57-1.24m-16.47-41.89c.01.09.04.2-.09.21-.29.03-.55.17-.8.23-.75.2-1.46.48-2.19.73-.64.23-1.24.57-1.87.72-.72.17-1.22.75-1.97.84-.24.01-.46.09-.66.23q-.3.27-.69.42c-.41.13-.79.32-1.15.56-.52.34-1.09.57-1.59.91-.2.14-.52.08-.61.23-.37.64-1.12.65-1.63 1.05-.55.43-1.2.75-1.75 1.16-.46.34-.94.66-1.37 1.03-.58.49-1.19.93-1.8 1.37-.32.22-.51.65-.84.75-.53.18-.8.62-1.15.94-.34.34-.73.69-1.07 1.06-.53.54-1.09 1.04-1.64 1.57-.41.38-.76.88-1.22 1.17-.68.46-1.19 1.07-1.76 1.6-.57.54-1.14 1.1-1.69 1.66-.64.65-1.35 1.23-1.95 1.91-.53.59-1.14 1.11-1.7 1.66-.57.56-1.1 1.15-1.71 1.69-.59.54-1.15 1.1-1.69 1.69-.44.46-.89.9-1.35 1.34-.46.43-.85.94-1.42 1.25"/></svg>
