<?xml version="1.0" encoding="utf-8"?>
	<svg version="1.1" xmlns="http://www.w3.org/2000/svg" xmlns:xlink="http://www.w3.org/1999/xlink" x="0px" y="0px" width="240.0" height="240.0" xml:space="preserve">
		<path d="M122.898,34L125.102,34.011L220,34.011L217.832,44.615C215.373,56.665 210.923,66.856 206.95,73.288L206.95,73.288L219.709,73.288L217.682,81.888C217.477,83.174 210.864,111.787 185.523,126.5C184.423,148.995 176.21,169.009 162.106,183.299C147.133,198.476 126.679,206.722 102.952,206.722C78.962,206.722 57.462,198.063 42.408,182.749C27.467,167.554 19.867,146.464 20.002,121.76C20.249,78.083 51.212,33.188 125.102,34.011ZM112.193,106.214L89.72,106.214C75.03,106.214 63.076,119.019 63.076,134.75C63.076,150.486 75.03,163.286 89.72,163.286L112.193,163.286C126.883,163.286 138.829,150.486 138.829,134.75C138.829,119.023 126.883,106.214 112.193,106.214ZM112.193,115.305C121.87,115.305 129.738,124.032 129.738,134.75C129.738,145.477 121.87,154.195 112.193,154.195L89.72,154.195C80.039,154.195 72.166,145.473 72.166,134.75C72.166,124.028 80.043,115.305 89.72,115.305L112.193,115.305ZM91.43,129.955C88.798,129.955 86.666,132.1 86.666,134.75C86.666,137.4 88.802,139.55 91.43,139.55C94.066,139.55 96.189,137.4 96.189,134.75C96.195,133.483 95.696,132.265 94.804,131.366C93.911,130.466 92.697,129.958 91.43,129.955ZM110.479,129.955L110.475,129.955C107.847,129.955 105.716,132.1 105.716,134.75C105.716,137.4 107.847,139.55 110.479,139.55C113.111,139.55 115.238,137.4 115.238,134.75C115.244,133.483 114.746,132.265 113.853,131.366C112.96,130.466 111.747,129.958 110.479,129.955ZM72.384,98.769C72.384,94.792 69.185,91.574 65.239,91.574C61.298,91.574 58.098,94.792 58.098,98.769C58.098,102.742 61.298,105.964 65.235,105.964C69.185,105.964 72.384,102.742 72.384,98.769ZM141.429,91.569C137.483,91.569 134.292,94.796 134.292,98.769C134.292,102.746 137.483,105.969 141.429,105.969C145.374,105.969 148.569,102.742 148.569,98.769C148.569,94.792 145.374,91.569 141.433,91.569L141.429,91.569Z" fill="#000" stroke="#00000000" stroke-width="1.0" stroke-miterlimit=""/>
	</svg>
