<svg xmlns="http://www.w3.org/2000/svg" width="192" height="192" fill="none" stroke="#000" stroke-linejoin="round" stroke-width="10" viewBox="0 0 192 192"><path stroke-linecap="round" d="M84.591 158.182C50.023 158.182 22 130.159 22 95.592 22 61.022 50.023 33 84.591 33c.542 0 82.987.347 82.987.347s-3.9 14.966-11.785 27.133c-.275.424 14.201.205 14.201.205s1.045 23.544-24.851 41.715c-3.393 31.365-28.285 55.782-60.552 55.782ZM115 117.5c0-9.583-8.046-18.5-17.985-18.5h-26.03C61.045 99 53 107.917 53 117.5S61.046 136 70.985 136h26.03c9.939 0 17.985-8.917 17.985-18.5ZM56 72a5 5 0 1 1 0 10 5 5 0 0 1 0-10Zm57 0a5 5 0 1 1 0 10 5 5 0 0 1 0-10Zm-57 0a5 5 0 1 1 0 10 5 5 0 0 1 0-10Zm16 41a5 5 0 1 1 0 10 5 5 0 0 1 0-10Zm23 0a5 5 0 1 1 0 10 5 5 0 0 1 0-10Z"/></svg>
