<?xml version="1.0" encoding="UTF-8" standalone="no"?>
<!-- Created with Inkscape (http://www.inkscape.org/) -->

<svg
   width="24"
   height="24"
   viewBox="0 0 6.3499999 6.3500002"
   version="1.1"
   id="svg5"
   sodipodi:docname="fennec.svg"
   inkscape:version="1.1.1 (3bf5ae0d25, 2021-09-20)"
   xmlns:inkscape="http://www.inkscape.org/namespaces/inkscape"
   xmlns:sodipodi="http://sodipodi.sourceforge.net/DTD/sodipodi-0.dtd"
   xmlns="http://www.w3.org/2000/svg"
   xmlns:svg="http://www.w3.org/2000/svg">
  <sodipodi:namedview
     id="namedview6"
     pagecolor="#ffffff"
     bordercolor="#666666"
     borderopacity="1.0"
     inkscape:pageshadow="2"
     inkscape:pageopacity="0.0"
     inkscape:pagecheckerboard="0"
     showgrid="false"
     inkscape:zoom="11.313709"
     inkscape:cx="3.049398"
     inkscape:cy="-4.7287766"
     inkscape:window-width="1920"
     inkscape:window-height="1009"
     inkscape:window-x="-8"
     inkscape:window-y="-8"
     inkscape:window-maximized="1"
     inkscape:current-layer="layer4"
     showguides="false" />
  <defs
     id="defs2" />
  <g
     inkscape:groupmode="layer"
     id="layer4"
     inkscape:label="Layer 1">
    <path
       id="path1160"
       style="color:#000000;fill:#000000;fill-opacity:1;stroke-width:3.78002;stroke-linejoin:round;stroke-miterlimit:4;stroke-dasharray:none"
       d="M 2.8632812 2.8476562 C 2.7253357 2.853526 2.5896993 2.8913583 2.4648438 2.9609375 C 2.1787301 3.1193679 2.0003149 3.4209976 2 3.7480469 L 2 5.6914062 L 2 15.052734 L 2.0019531 15.052734 C 2.0030731 15.28039 2.1227289 15.489716 2.3164062 15.609375 L 11.042969 20.894531 C 11.045569 20.896132 11.052003 20.89695 11.054688 20.898438 C 11.123205 20.938989 11.194371 20.971526 11.265625 21.001953 A 1.4571256 1.4571256 0 0 1 10.542969 19.744141 A 1.4571256 1.4571256 0 0 1 12 18.287109 A 1.4571256 1.4571256 0 0 1 13.457031 19.744141 A 1.4571256 1.4571256 0 0 1 12.728516 21.005859 C 12.805091 20.974068 12.879789 20.939529 12.949219 20.898438 C 12.951919 20.896936 12.957031 20.894531 12.957031 20.894531 L 21.683594 15.513672 C 21.874796 15.395811 21.993787 15.187458 21.998047 14.962891 L 22 14.962891 L 22 5.6914062 L 22 3.7480469 C 21.999966 3.4212916 21.822688 3.1197321 21.537109 2.9609375 C 21.396783 2.8824178 21.238885 2.8440253 21.078125 2.8476562 C 20.917321 2.8514208 20.759643 2.8974883 20.623047 2.9824219 L 12 8.3476562 L 3.3769531 2.9824219 C 3.2207301 2.8856386 3.0406405 2.8401097 2.8632812 2.8476562 z M 3 3.9296875 L 3.0097656 3.9355469 L 3 3.9414062 L 3 3.9296875 z M 21 3.9296875 L 21 14.048828 L 16.699219 11.525391 L 20.816406 4.0429688 L 21 3.9296875 z M 3 3.9648438 L 7.2011719 11.613281 L 3 14.078125 L 3 5.3671875 L 3 3.9648438 z M 9.0800781 14.519531 C 9.5781571 14.520187 9.9817665 14.923796 9.9824219 15.421875 C 9.9828437 15.920716 9.5789194 16.325514 9.0800781 16.326172 C 8.5804741 16.326594 8.1753591 15.921479 8.1757812 15.421875 C 8.1764382 14.923034 8.5812364 14.519109 9.0800781 14.519531 z M 14.892578 14.519531 C 15.390657 14.520187 15.794266 14.923796 15.794922 15.421875 C 15.795344 15.920717 15.391419 16.325514 14.892578 16.326172 C 14.392974 16.326594 13.987859 15.921479 13.988281 15.421875 C 13.988938 14.923034 14.393736 14.519109 14.892578 14.519531 z M 20.791016 15.085938 L 21 15.208984 L 21 15.25 L 20.791016 15.085938 z M 3.0546875 15.207031 L 3 15.25 L 3 15.240234 L 3.0546875 15.207031 z "
       transform="scale(0.26458334)" />
  </g>
</svg>
