<svg width="192" height="192" viewBox="0 0 192 192" fill="none" xmlns="http://www.w3.org/2000/svg"><path d="M96 48v38m0-38L62.066 27.823a6 6 0 0 0-6.132 0l-31 18.433A6 6 0 0 0 22 51.413v31.174a6 6 0 0 0 2.933 5.157L59 108m37-60 33.934-20.177a5.998 5.998 0 0 1 6.132 0l31 18.433A6 6 0 0 1 170 51.413v31.174a6 6 0 0 1-2.934 5.157L133 108M96 86l-37 22m37-22 37 22m-74 0v34.587a6 6 0 0 0 2.934 5.157l31 18.433a6.003 6.003 0 0 0 6.132 0l31-18.433a6 6 0 0 0 2.934-5.157V108" stroke="#000" stroke-width="12" stroke-linecap="round" stroke-linejoin="round"/></svg>