<svg width="192" height="192" viewBox="0 0 192 192" fill="none" xmlns="http://www.w3.org/2000/svg"><path d="m72 72 48 48-24 24V48l24 24-48 48" stroke="#000" stroke-width="10" stroke-linecap="round" stroke-linejoin="round"/><path d="M35.89 52.84a74 74 0 0 1 120.22 0m-120.22 0a73.997 73.997 0 0 0-11.712 25.339c-.776 3.128 1.325 6.166 4.482 6.82l8.06 1.667c6.303 1.304 12.513-2.596 14.074-8.84l2.174-8.697c1.654-6.617-2.532-13.28-9.21-14.662l-7.867-1.628Zm120.22 0a74.02 74.02 0 0 1 11.712 25.339c.776 3.128-1.325 6.166-4.482 6.82l-8.061 1.667c-6.302 1.304-12.511-2.596-14.073-8.84l-2.174-8.697c-1.654-6.617 2.532-13.28 9.211-14.662l7.867-1.628ZM39 109l-12.477 12.476a74.01 74.01 0 0 0 13.304 22.697M55 129l-15.173 15.173m0 0a73.985 73.985 0 0 0 27.854 20.194 73.997 73.997 0 0 0 97.795-42.891" stroke="#000" stroke-width="12" stroke-linecap="round" stroke-linejoin="round"/></svg>