<svg xmlns="http://www.w3.org/2000/svg" width="192" height="192" viewBox="0 0 192 192"><path d="m96 38-4.243-4.243A6 6 0 0 1 96 32v6zM30 148h132v12H30v-12zm134-2V46h12v100h-12zm-2-102H96V32h66v12zm-61.757-1.757-16 16-8.486-8.486 16-16 8.486 8.486zM80 60H30V48h50v12zm-52 2v50H16V62h12zm0 50v34H16v-34h12zm56.243-53.757-58 58-8.486-8.486 58-58 8.486 8.486zM22 106h66v12H22v-12zm68-2V38h12v66H90zm-2 2a2 2 0 0 0 2-2h12a14 14 0 0 1-14 14v-12zm74 42a2 2 0 0 0 2-2h12a14 14 0 0 1-14 14v-12zM30 160a14 14 0 0 1-14-14h12a2 2 0 0 0 2 2v12zm0-100a2 2 0 0 0-2 2H16a14 14 0 0 1 14-14v12zm134-14a2 2 0 0 0-2-2V32a14 14 0 0 1 14 14h-12z"/></svg>