<svg xmlns="http://www.w3.org/2000/svg" width="192" height="192" fill="none" stroke="#000" stroke-width="10" viewBox="0 0 192 192"><path stroke-width="12" d="M170 96c0 40.869-33.131 74-74 74s-74-33.131-74-74 33.13-74 74-74 74 33.13 74 74Z"/><path stroke-linecap="round" d="M43 148V46m0 0h61M70 88V78a6 6 0 0 1 6-6h62a6 6 0 0 0 6-6V41M70 164v-41a6 6 0 0 1 6-6h12m32-6v54m47-63h-17a6 6 0 0 0-6 6v42"/><circle cx="5" cy="5" r="5" transform="matrix(-1 0 0 1 116 41)"/><circle cx="5" cy="5" r="5" transform="matrix(-1 0 0 1 75 91)"/><circle cx="5" cy="5" r="5" transform="matrix(-1 0 0 1 101 112)"/><circle cx="5" cy="5" r="5" transform="matrix(-1 0 0 1 125 97)"/></svg>