<svg xmlns="http://www.w3.org/2000/svg" width="192" height="192" viewBox="0 0 192 192"><path d="m80 38 4.243-4.243A6 6 0 0 0 80 32v6zm16 16-4.243 4.243A6 6 0 0 0 96 60v-6zm58 94H38v12h116v-12zM28 138V54H16v84h12zm10-94h42V32H38v12zm37.757-1.757 16 16 8.486-8.486-16-16-8.486 8.486zM164 70v68h12V70h-12zM96 60h58V48H96v12zm-58 88c-5.523 0-10-4.477-10-10H16c0 12.15 9.85 22 22 22v-12zm116 12c12.15 0 22-9.85 22-22h-12c0 5.523-4.477 10-10 10v12zm22-90c0-12.15-9.85-22-22-22v12c5.523 0 10 4.477 10 10h12zM28 54c0-5.523 4.477-10 10-10V32c-12.15 0-22 9.85-22 22h12z"/></svg>