<svg width="192" height="192" viewBox="0 0 192 192" fill="none" xmlns="http://www.w3.org/2000/svg"><path d="m96 38-4.243-4.243A6 6 0 0 1 96 32v6ZM30 148h132v12H30v-12Zm134-2V46h12v100h-12Zm-2-102H96V32h66v12Zm-61.757-1.757-16 16-8.486-8.486 16-16 8.486 8.486ZM80 60H30V48h50v12Zm-52 2v50H16V62h12Zm0 50v34H16v-34h12Zm56.243-53.757-58 58-8.486-8.486 58-58 8.486 8.486ZM22 106h66v12H22v-12Zm68-2V38h12v66H90Zm-2 2a2 2 0 0 0 2-2h12c0 7.732-6.268 14-14 14v-12Zm74 42a2 2 0 0 0 2-2h12c0 7.732-6.268 14-14 14v-12ZM30 160c-7.732 0-14-6.268-14-14h12a2 2 0 0 0 2 2v12Zm0-100a2 2 0 0 0-2 2H16c0-7.732 6.268-14 14-14v12Zm134-14a2 2 0 0 0-2-2V32c7.732 0 14 6.268 14 14h-12Z" fill="#000"/></svg>