<svg xmlns="http://www.w3.org/2000/svg" width="192" height="192" fill="none"><path stroke="#000" stroke-linecap="round" stroke-linejoin="round" stroke-width="12" d="M25 31a6 6 0 0 1 6-6h33.292a6 6 0 0 1 5.366 3.317l11.684 23.366A6 6 0 0 0 86.708 55H161a6 6 0 0 1 6 6v100a6 6 0 0 1-6 6H31a6 6 0 0 1-6-6z"/><path stroke="#000" stroke-linecap="round" stroke-linejoin="round" stroke-width="12" d="M65 131V97a6 6 0 0 1 6-6h26m-32 20h16m48-20-15.757 15.757a6 6 0 0 0 0 8.486L129 131m38-69V39a6 6 0 0 0-6-6H74"/></svg>