<svg xmlns="http://www.w3.org/2000/svg" xml:space="preserve" width="192" height="192" viewBox="0 0 50.8 50.8"><path d="M23.4 43.945c-4.804-4-9.137-9.052-12.434-15.554-.643-1.268-.02-2.713 1.33-3.158 10.591-3.49 16.653-3.496 26.257-.011 1.336.485 1.884 1.943 1.219 3.199a110 110 0 0 1-1.827 3.32c-.71 1.228-2.33 1.574-3.625.988-3.25-1.472-7.006-2.272-10.485-2.512-1.417-.098-2.086.986-1.207 2.098 1.686 2.134 4.296 4.259 6.937 6.193 1.147.84 1.301 2.335.268 3.31a52 52 0 0 1-2.4 2.127c-1.092.91-2.941.91-4.033 0m21.483-30.879a56 56 0 0 1-1.031 3.242c-.464 1.343-1.939 2.052-3.3 1.643-10.584-3.179-19.9-3.143-30.484.008-1.363.405-2.836-.31-3.258-1.667a54 54 0 0 1-.91-3.252c-.337-1.381.58-2.894 1.944-3.295 11.715-3.447 23.43-3.426 35.146.035 1.363.403 2.273 1.917 1.893 3.286" style="font-variation-settings:&quot;wght&quot;700;opacity:1;fill:none;stroke:#000;stroke-width:3.175;stroke-linecap:round;stroke-linejoin:round;stroke-dasharray:none;paint-order:stroke fill markers"/></svg>