<?xml version="1.0" encoding="UTF-8" standalone="no"?>
<!-- Created with Inkscape (http://www.inkscape.org/) -->

<svg
   width="192"
   height="192"
   viewBox="0 0 50.799999 50.8"
   version="1.1"
   id="svg1"
   xml:space="preserve"
   sodipodi:docname="filmnet.svg"
   inkscape:version="1.4.2 (ebf0e940d0, 2025-05-08)"
   xmlns:inkscape="http://www.inkscape.org/namespaces/inkscape"
   xmlns:sodipodi="http://sodipodi.sourceforge.net/DTD/sodipodi-0.dtd"
   xmlns="http://www.w3.org/2000/svg"
   xmlns:svg="http://www.w3.org/2000/svg"><sodipodi:namedview
     id="namedview1"
     pagecolor="#505050"
     bordercolor="#eeeeee"
     borderopacity="1"
     inkscape:showpageshadow="0"
     inkscape:pageopacity="0"
     inkscape:pagecheckerboard="0"
     inkscape:deskcolor="#505050"
     inkscape:zoom="2.9904724"
     inkscape:cx="90.11954"
     inkscape:cy="106.33771"
     inkscape:window-width="1908"
     inkscape:window-height="1028"
     inkscape:window-x="0"
     inkscape:window-y="0"
     inkscape:window-maximized="1"
     inkscape:current-layer="svg1" /><defs
     id="defs1" /><path
     id="path6"
     style="font-variation-settings:'wght' 700;opacity:1;fill:none;stroke:#000000;stroke-width:3.175;stroke-linecap:round;stroke-linejoin:round;stroke-dasharray:none;paint-order:stroke fill markers"
     d="m 23.399653,43.945132 c -4.803422,-3.999265 -9.136615,-9.052573 -12.433542,-15.554345 -0.642817,-1.267682 -0.02085,-2.713144 1.329148,-3.157907 10.591768,-3.489507 16.653848,-3.49552 26.257345,-0.01098 1.33612,0.4848 1.884822,1.942726 1.218957,3.198615 -0.535792,1.010557 -1.190305,2.217568 -1.8265,3.32004 -0.709169,1.228932 -2.33098,1.574239 -3.624984,0.98821 -3.250781,-1.472216 -7.005783,-2.271308 -10.484857,-2.511538 -1.417644,-0.09789 -2.086393,0.985323 -1.207435,2.097955 1.685745,2.133908 4.296673,4.258536 6.93768,6.193041 1.146437,0.839751 1.300802,2.335255 0.267084,3.310712 -0.78449,0.740278 -1.585182,1.448383 -2.399355,2.12622 -1.092292,0.909385 -2.941257,0.909387 -4.033541,-3.3e-5 z M 44.882504,13.066188 c -0.29805,1.072482 -0.661841,2.172696 -1.030832,3.241365 -0.463843,1.343382 -1.938592,2.052545 -3.299833,1.643657 C 29.967889,14.772019 20.651471,14.807633 10.067712,17.95871 8.7054743,18.364249 7.2324243,17.649205 6.8101579,16.291911 6.4775158,15.222697 6.1612696,14.116875 5.8990673,13.039507 5.5630489,11.658836 6.4803288,10.145885 7.8438681,9.7447518 19.559171,6.298278 31.274473,6.3187052 42.989777,9.7803167 c 1.363062,0.4027543 2.273136,1.9170353 1.892727,3.2858713 z" /></svg>
