<svg width="192" height="192" viewBox="0 0 192 192" fill="none" xmlns="http://www.w3.org/2000/svg">
<path d="M109.421 89.054C109.421 90.687 108.089 92.0196 106.456 92.0196C104.823 92.0196 103.49 90.687 103.49 89.054C103.49 87.4209 104.823 86.0884 106.456 86.0884C108.089 86.0884 109.421 87.4209 109.421 89.054Z" fill="black"/>
<path d="M87.7422 89.0859C87.7422 90.7379 86.3942 92.0859 84.7422 92.0859C83.0902 92.0859 81.7422 90.7379 81.7422 89.0859C81.7422 87.4339 83.0902 86.0859 84.7422 86.0859C86.3942 86.0859 87.7422 87.4339 87.7422 89.0859Z" fill="black"/>
<path d="M97.9771 59.3025C106.218 52.1993 114.994 45.7343 124.227 39.9732L127.04 38.2995M127.04 38.2995C126.784 37.8411 126.517 37.3877 126.24 36.9398C126.218 36.8962 126.196 36.858 126.169 36.8198L126.087 36.6998C119.52 26.214 108.023 20 95.6537 20C95.4247 20 95.2501 20 94.9992 20C75.3813 20.4037 59.7011 36.4433 59.7393 56.0728L63.448 98.8233C63.508 99.6089 64.1243 100.242 64.9097 100.324C65.6896 100.405 66.4204 99.9308 66.6659 99.1834C66.6986 99.1125 69.1311 91.7146 77.5738 80.6669C82.9514 73.7491 88.9562 67.3442 95.5065 61.5285C118.719 82.4782 124.238 99.047 124.293 99.2161C124.516 99.8872 125.138 100.34 125.847 100.34C126.06 100.335 126.267 100.291 126.463 100.209L126.834 100.056C127.412 99.8272 127.81 99.287 127.859 98.6706L131.579 55.7782C131.589 49.6492 130.022 43.6313 127.04 38.2995Z" stroke="black" stroke-width="8" stroke-linecap="round" stroke-linejoin="round"/>
<path d="M113.106 60.71C118.495 65.5 123.545 70.6611 128.214 76.1549" stroke="black" stroke-width="6" stroke-linecap="round" stroke-linejoin="round"/>
<path d="M62.0625 78.5883V78.5555C62.2643 78.0973 67.1783 67.0987 80.3606 52.1011" stroke="black" stroke-width="6" stroke-linecap="round" stroke-linejoin="round"/>
<path d="M95.5396 61.0865C95.1142 61.0865 94.7051 60.9283 94.3997 60.6337C94.1652 60.41 88.6621 55.1126 88.6621 48.3748C88.6621 41.1243 91.6182 35.6577 95.5396 35.6577C99.461 35.6577 102.406 41.1243 102.406 48.3803C102.406 55.1235 96.9031 60.4209 96.6685 60.6392C96.3631 60.9283 95.9595 61.0865 95.5396 61.0865Z" stroke="black" stroke-width="8" stroke-linecap="round" stroke-linejoin="round"/>
<path d="M96.3416 159.13C96.5107 159.13 96.6798 159.152 96.8434 159.19C99.4504 159.807 100.89 166.719 101.163 172C107.064 164.979 119.848 146.784 119.706 121.181C119.505 107.951 108.624 97.383 95.3927 97.5849C82.4449 97.7813 72.0006 108.229 71.8042 121.181C71.8042 121.421 71.1552 137.002 82.0468 153.183C87.4353 161.181 90.2277 165.513 91.7712 168.159C92.3166 166.593 93.0147 164.466 93.8165 161.732C94.4491 159.55 95.5835 159.13 96.3471 159.13H96.3416Z" stroke="black" stroke-width="8" stroke-linecap="round" stroke-linejoin="round"/>
<path d="M139.318 112.31C134.759 117.421 128.236 120.335 121.391 120.318C109.057 120.288 98.9188 110.939 97.6299 98.9434" stroke="black" stroke-width="8" stroke-linecap="round" stroke-linejoin="round"/>
<path d="M52 112.31C60.8191 122.173 75.9593 123.019 85.8255 114.197C90.2533 110.234 93.0305 104.79 93.6688 98.9434" stroke="black" stroke-width="8" stroke-linecap="round" stroke-linejoin="round"/>
<path d="M96.6621 151.808C96.6621 151.808 109.359 144.023 108.95 127.629" stroke="black" stroke-width="6" stroke-linecap="round" stroke-linejoin="round"/>
<path d="M94.6123 137.826C99.63 134.367 102.564 128.6 102.395 122.506" stroke="black" stroke-width="6" stroke-linecap="round" stroke-linejoin="round"/>
</svg>
