<svg width="192" height="192" viewBox="0 0 192 192" fill="none" xmlns="http://www.w3.org/2000/svg">
<path d="M116.999 127.272C117.12 147.097 106.18 161.185 101.13 166.621L97.7872 170L93.0932 163.647C91.7724 161.599 89.3827 158.245 84.7714 152.052C75.4509 139.523 76.0063 127.458 76.0063 127.272C76.1743 117.244 85.1122 109.154 96.1923 109.002C107.515 108.846 116.826 117.028 116.999 127.272Z" stroke="black" stroke-width="12" stroke-linecap="round" stroke-linejoin="round"/>
<path d="M111 95C111 97.2026 109.203 99 107 99C104.797 99 103 97.2026 103 95C103 92.7973 104.797 91 107 91C109.203 91 111 92.7973 111 95Z" fill="black"/>
<path d="M89 95C89 97.2026 87.2027 99 85 99C82.7974 99 81 97.2026 81 95C81 92.7973 82.7974 91 85 91C87.2027 91 89 92.7973 89 95Z" fill="black"/>
<path d="M95.3618 58.7343C116.364 77.7701 121.358 92.8251 121.407 92.9788C121.61 93.5886 122.172 94 122.814 94C123.006 93.995 123.194 93.9554 123.371 93.881L123.707 93.7422C124.23 93.534 124.59 93.0433 124.634 92.4831L128 53.5094C128.009 47.9404 126.591 42.4723 123.893 37.6276M95.3618 58.7343C89.4353 64.0187 84.0022 69.8385 79.1365 76.1243C71.4976 86.1626 69.2967 92.8846 69.2671 92.9491C69.0451 93.6282 68.3838 94.0595 67.6782 93.9851C66.9676 93.9108 66.4099 93.3357 66.3557 92.6219L63.0001 53.7771C62.9655 35.9411 77.1528 21.3668 94.9029 21C95.1299 21 95.2878 21 95.4951 21C106.687 21 117.089 26.6463 123.031 36.174L123.105 36.2831C123.129 36.3178 123.149 36.3525 123.169 36.3922C123.42 36.7991 123.661 37.2111 123.893 37.6276M95.3618 58.7343C102.818 52.28 112.994 44.3832 121.348 39.1484L123.893 37.6276" stroke="black" stroke-width="12" stroke-linecap="round" stroke-linejoin="round"/>
<path d="M65 74V73.9703C65.1765 73.5551 69.4733 63.5893 81 50" stroke="black" stroke-width="6" stroke-linecap="round" stroke-linejoin="round"/>
<path d="M140.318 127.366C135.759 132.478 129.236 135.391 122.391 135.375C110.057 135.345 99.9188 125.995 98.6299 114" stroke="black" stroke-width="8" stroke-linecap="round" stroke-linejoin="round"/>
<path d="M53 127.366C61.8191 137.23 76.9593 138.076 86.8255 129.254C91.2533 125.291 94.0305 119.847 94.6688 114" stroke="black" stroke-width="8" stroke-linecap="round" stroke-linejoin="round"/>
</svg>
