<svg width="192" height="192" viewBox="0 0 192 192" fill="none" xmlns="http://www.w3.org/2000/svg">
<rect x="22" y="22" width="148" height="148" rx="6" stroke="black" stroke-width="12"/>
<path d="M141.96 88.179C142.702 91.6699 142.258 94.8741 141.173 97.1902C140.089 99.5029 138.537 100.663 137.032 100.983C135.526 101.303 133.636 100.874 131.706 99.2025C129.772 97.5281 128.063 94.7815 127.321 91.2906C126.579 87.7997 127.023 84.5955 128.109 82.2794C129.192 79.9667 130.744 78.8061 132.25 78.4861C133.755 78.1661 135.645 78.5952 137.576 80.2671C139.509 81.9415 141.218 84.6881 141.96 88.179Z" stroke="black" stroke-width="10"/>
<path d="M22.5 76.5C36 68 45.5 71 62.5 78C84.5687 85.5866 95.0639 83.2327 110.5 67.5C130.003 47.7389 144.187 46.5826 170 59" stroke="black" stroke-width="12" stroke-linecap="round"/>
<path d="M54 143C54 150.61 47.6314 157 39.5 157C31.3686 157 25 150.61 25 143C25 135.39 31.3686 129 39.5 129C47.6314 129 54 135.39 54 143Z" stroke="black" stroke-width="10"/>
<path d="M171.816 134.323C169.594 135.4 167.122 136 164.517 136C154.843 136 147 127.717 147 117.5C147 107.283 154.843 99 164.517 99C167.194 99 169.731 99.6342 172 100.768" stroke="black" stroke-width="10"/>
<path d="M63.9601 105.179C64.7021 108.67 64.2582 111.874 63.1728 114.19C62.089 116.503 60.5371 117.663 59.0317 117.983C57.5262 118.303 55.6364 117.874 53.7057 116.202C51.7721 114.528 50.0633 111.781 49.3213 108.291C48.5793 104.8 49.0232 101.595 50.1086 99.2794C51.1923 96.9667 52.7442 95.8061 54.2497 95.4861C55.7552 95.1661 57.645 95.5952 59.5757 97.2671C61.5093 98.9415 63.2181 101.688 63.9601 105.179Z" stroke="black" stroke-width="10"/>
<path d="M88 130.5C93.5 110.5 105.5 110.5 115.5 126M88 130.5C100.167 135.957 106.195 135.004 115.5 126M88 130.5C101.155 143.337 107.342 143.354 115.5 126" stroke="black" stroke-width="6" stroke-linecap="round" stroke-linejoin="round"/>
</svg>
