<svg xmlns="http://www.w3.org/2000/svg" width="192" height="192" fill="none" stroke="#000" stroke-width="12" viewBox="0 0 192 192"><path stroke-linejoin="round" d="M96 22c-16.89 0-33.782 6.437-46.67 19.31-25.773 25.746-25.773 67.489 0 93.235 7.114 7.105 13.336 10.905 19.99 14.968l.002.001.002.001C76.974 154.187 85.196 159.208 96 170c10.804-10.792 19.027-15.813 26.676-20.485h.002c6.655-4.065 12.878-7.865 19.992-14.97 25.773-25.747 25.773-67.489 0-93.235C129.782 28.437 112.891 22 96 22z"/><path d="M74 118V58a4 4 0 0 1 4-4h36a4 4 0 0 1 4 4v60a4 4 0 0 1-4 4H78a4 4 0 0 1-4-4z"/></svg>