<?xml version="1.0" encoding="UTF-8" standalone="no"?>
<svg
   width="192"
   height="192"
   fill="none"
   viewBox="0 0 192 192"
   version="1.1"
   id="svg139"
   sodipodi:docname="findroid.svg"
   xml:space="preserve"
   inkscape:version="1.2.2 (b0a8486541, 2022-12-01)"
   xmlns:inkscape="http://www.inkscape.org/namespaces/inkscape"
   xmlns:sodipodi="http://sodipodi.sourceforge.net/DTD/sodipodi-0.dtd"
   xmlns="http://www.w3.org/2000/svg"
   xmlns:svg="http://www.w3.org/2000/svg"><defs
     id="defs143"><inkscape:path-effect
       effect="fillet_chamfer"
       id="path-effect3422"
       is_visible="true"
       lpeversion="1"
       nodesatellites_param="F,0,0,1,0,6,0,1 @ F,0,0,1,0,6,0,1 @ F,0,0,1,0,6,0,1 @ F,0,0,1,0,6,0,1"
       unit="px"
       method="auto"
       mode="F"
       radius="6"
       chamfer_steps="1"
       flexible="false"
       use_knot_distance="true"
       apply_no_radius="true"
       apply_with_radius="true"
       only_selected="false"
       hide_knots="false" /></defs><sodipodi:namedview
     id="namedview141"
     pagecolor="#ffffff"
     bordercolor="#666666"
     borderopacity="1.0"
     inkscape:showpageshadow="2"
     inkscape:pageopacity="0.0"
     inkscape:pagecheckerboard="0"
     inkscape:deskcolor="#d1d1d1"
     showgrid="false"
     inkscape:zoom="0.67465096"
     inkscape:cx="-4.4467438"
     inkscape:cy="-111.1686"
     inkscape:window-width="1920"
     inkscape:window-height="1011"
     inkscape:window-x="0"
     inkscape:window-y="0"
     inkscape:window-maximized="1"
     inkscape:current-layer="svg139" /><g
     fill="#000000"
     id="g137"
     transform="matrix(8.0000096,0,0,8.0000096,-0.00269515,8.1972315e-4)"
     style="stroke-width:0.125"><path
       d="M 12.001,2 C 9.354,2 0.836,17.446 2.134,20.055 c 1.298,2.608 18.45,2.578 19.735,0 C 23.154,17.476 14.649,2 12,2 Z m 6.468,15.794 c -0.842,1.69 -12.08,1.71 -12.932,0 -0.85,-1.71 4.732,-11.832 6.464,-11.832 1.732,0 7.31,10.139 6.468,11.832 z"
       id="path135"
       style="stroke-width:0.125" /></g><path
     style="opacity:1;fill:#000000;fill-opacity:1;stroke-width:1"
     id="path1087"
     sodipodi:type="arc"
     sodipodi:cx="95.997421"
     sodipodi:cy="128.13141"
     sodipodi:rx="32.208469"
     sodipodi:ry="29.811129"
     sodipodi:start="3.1415927"
     sodipodi:end="0"
     sodipodi:arc-type="slice"
     d="m 64.431393,122.1776 c 2.590554,-11.8297 12.74895,-21.11729 25.595256,-23.346074 3.260918,-0.565756 8.680627,-0.565756 11.941551,0 12.8463,2.228784 23.0047,11.516374 25.59525,23.346074 0.70749,3.23073 -2.04385,5.95381 -5.35756,5.95381 H 101.99742 69.788952 c -3.313709,0 -6.065047,-2.72308 -5.357559,-5.95381 z"
     inkscape:path-effect="#path-effect3422" /><path
     style="fill:none;stroke:#000000;stroke-width:8;stroke-linecap:round;stroke-linejoin:miter;stroke-dasharray:none;stroke-opacity:1"
     d="m 75.768238,92.679883 5.1511,9.108807"
     id="path1154"
     sodipodi:nodetypes="cc" /><path
     style="fill:none;stroke:#000000;stroke-width:8;stroke-linecap:round;stroke-linejoin:miter;stroke-dasharray:none;stroke-opacity:1"
     d="m 116.21942,92.676355 -5.15111,9.108815"
     id="path1154-3"
     sodipodi:nodetypes="cc" /></svg>
