<svg xmlns="http://www.w3.org/2000/svg" width="192" height="192" fill="none" viewBox="0 0 192 192"><path stroke="#000" stroke-linecap="round" stroke-linejoin="round" stroke-width="12" d="M43 56s28 25 72 25c28 0 39-10 39-10M36 82c0 58 60 88 60 88s60-30 60-88"/><path stroke="#000" stroke-linecap="round" stroke-linejoin="round" stroke-width="12" d="M156 82a60.01 60.01 0 0 1-37.039 55.433 60 60 0 0 1-72.848-22.1A60 60 0 1 1 156 82"/><path stroke="#000" stroke-linecap="round" stroke-linejoin="round" stroke-width="8" d="M79 102c0-.394-.13-.784-.38-1.148-.252-.364-.62-.695-1.085-.973a6 6 0 0 0-1.622-.651A8 8 0 0 0 74 99a8 8 0 0 0-1.913.228 6 6 0 0 0-1.623.651c-.464.278-.832.609-1.083.973A2 2 0 0 0 69 102zm44 0c0-.394-.129-.784-.381-1.148-.251-.364-.619-.695-1.083-.973a6 6 0 0 0-1.623-.651A8 8 0 0 0 118 99a8 8 0 0 0-1.913.228 6 6 0 0 0-1.623.651c-.464.278-.832.609-1.083.973A2 2 0 0 0 113 102zm-36 16c0 .525.233 1.045.685 1.531.452.485 1.115.926 1.951 1.297.836.372 1.828.666 2.92.868S94.818 122 96 122s2.352-.103 3.444-.304c1.092-.202 2.084-.496 2.92-.868.836-.371 1.499-.812 1.951-1.297.452-.486.685-1.006.685-1.531z"/></svg>