<svg xmlns="http://www.w3.org/2000/svg" width="192" height="192" fill="none" viewBox="0 0 192 192"><path stroke="#000" stroke-linecap="round" stroke-linejoin="round" stroke-width="12" d="M150 76a54 54 0 1 0-108 0"/><circle cx="96" cy="76" r="16" stroke="#000" stroke-linecap="round" stroke-linejoin="round" stroke-width="12"/><path stroke="#000" stroke-linecap="round" stroke-linejoin="round" stroke-width="12" d="M42 76c0 23.189 14.998 42.489 29.186 55.559M150 76c0 23.189-14.998 42.489-29.186 55.559m0 0C143.836 134.588 160 141.704 160 150c0 11.046-28.654 20-64 20s-64-8.954-64-20c0-8.296 16.164-15.412 39.186-18.441m49.628 0C108.081 143.289 96 150 96 150s-12.08-6.711-24.814-18.441"/></svg>