<svg width="192" height="192" viewBox="0 0 192 192" fill="none" xmlns="http://www.w3.org/2000/svg"><path d="M108 22H52a6 6 0 0 0-6 6v108m62 0v34" stroke="#000" stroke-width="12" stroke-linecap="round" stroke-linejoin="round"/><path d="M77 170v-58a6 6 0 0 1 6-6h25m0-56H83a6 6 0 0 0-6 6v16a6 6 0 0 0 6 6h25m0-28a14.001 14.001 0 0 0 12.934-19.358A14.003 14.003 0 0 0 108 22m0 84a13.994 13.994 0 0 0 9.899-4.101 13.993 13.993 0 0 0 0-19.799A14.003 14.003 0 0 0 108 78m0 58a44.006 44.006 0 0 0 43.155-52.584 44.006 44.006 0 0 0-12.042-22.529" stroke="#000" stroke-width="12" stroke-linecap="round" stroke-linejoin="round"/></svg>