<svg xmlns="http://www.w3.org/2000/svg" width="192" height="192" fill="none"><path stroke="#000" stroke-linecap="round" stroke-linejoin="round" stroke-width="12" d="M108 22H52a6 6 0 0 0-6 6v108m62 0v34"/><path stroke="#000" stroke-linecap="round" stroke-linejoin="round" stroke-width="12" d="M77 170v-58a6 6 0 0 1 6-6h25m0-56H83a6 6 0 0 0-6 6v16a6 6 0 0 0 6 6h25m0-28a14 14 0 0 0 12.934-19.358A14 14 0 0 0 108 22m0 84a14 14 0 0 0 9.899-4.101 13.993 13.993 0 0 0 0-19.799A14 14 0 0 0 108 78m0 58a44.006 44.006 0 0 0 43.155-52.584 44 44 0 0 0-12.042-22.529"/></svg>