<svg width="192" height="192" viewBox="0 0 192 192" fill="none" xmlns="http://www.w3.org/2000/svg"><rect x="25" y="25" width="142" height="142" rx="12" stroke="#000" stroke-width="12" stroke-linecap="round" stroke-linejoin="round"/><path d="M167 99V87c0-6.627-5.373-12-12-12H37c-6.627 0-12 5.373-12 12v12" stroke="#000" stroke-width="12" stroke-linecap="round" stroke-linejoin="round"/><path d="M167 76V62c0-6.627-5.373-12-12-12H37c-6.627 0-12 5.373-12 12v14m142 23h-20.19a6 6 0 0 0-4.609 2.159l-16.402 19.682A6 6 0 0 1 121.19 123H70.81a6 6 0 0 1-4.61-2.159l-16.4-19.682A6 6 0 0 0 45.19 99H25" stroke="#000" stroke-width="12" stroke-linecap="round" stroke-linejoin="round"/></svg>