<svg width="192" height="192" fill="none" xmlns="http://www.w3.org/2000/svg"><path d="M170 96a77.012 77.012 0 0 0-16.675-47.852A60.997 60.997 0 0 1 96 130" stroke="#000" stroke-width="12" stroke-linecap="round" stroke-linejoin="round"/><path d="M170 96a73.996 73.996 0 0 1-74 74 74.017 74.017 0 0 1-25.5-4.532M119 22s-17.554 9.24-19.805 40.15a33.997 33.997 0 0 1 29.001 22.921 34.006 34.006 0 0 1-11.498 37.903 34.001 34.001 0 0 1-54.697-27.255C65.921 92.166 73.878 87 87 87l5-5c-12-5-16-12-24-16-4-12 0-21 0-21-8 3-18 15-18 15s-3.245-8.112-2.428-19.953A74 74 0 0 0 22.979 108M119 22c5.202 14.304 25.2 29.455 38.554 46M50 128l-21.6 16.2c-3.2 2.4-3.2 7.2 0 9.6L50 170m-28-42v42" stroke="#000" stroke-width="12" stroke-linecap="round" stroke-linejoin="round"/></svg>