<svg width="192" height="192" viewBox="0 0 192 192" fill="none" xmlns="http://www.w3.org/2000/svg">
<path d="M103 120C103 112.268 109.268 106 117 106H167V156C167 163.732 160.732 170 153 170H103V120Z" stroke="black" stroke-width="12"/>
<path d="M139 152H125V138H139C142.866 138 146 141.134 146 145C146 148.866 142.866 152 139 152Z" stroke="black" stroke-width="8" stroke-linejoin="round"/>
<path d="M137 138H125V124H137C140.866 124 144 127.134 144 131C144 134.866 140.866 138 137 138Z" stroke="black" stroke-width="8" stroke-linejoin="round"/>
<path fill-rule="evenodd" clip-rule="evenodd" d="M124.395 19.3203C123.576 17.6789 122.051 16.5026 120.255 16.1271C118.459 15.7516 116.591 16.2183 115.182 17.3938L119.027 22.0001C115.182 17.3938 115.181 17.395 115.179 17.3963L115.176 17.3992L115.167 17.4063L115.144 17.4259L115.073 17.4862C115.015 17.5358 114.935 17.6041 114.835 17.6906C114.636 17.8636 114.356 18.1097 114.008 18.4251C113.313 19.0555 112.34 19.9653 111.183 21.1245C108.875 23.4365 105.798 26.7746 102.711 30.8974C96.6476 38.9947 90 50.8452 90 64.2858C90 67.5995 92.6863 70.2858 96 70.2858C101.967 70.2858 107.561 71.9026 112.365 74.7273L112.3 74.7169C109.538 74.2747 106.838 75.7992 105.789 78.392C104.74 80.9848 105.622 83.9581 107.915 85.5599C113.335 89.3467 116.865 95.6228 116.865 102.727C116.865 104.549 116.633 106.316 116.196 108H128.445C128.721 106.283 128.865 104.522 128.865 102.727C128.865 97.8461 127.802 93.2128 125.898 89.0472L128.295 89.4311C130.581 89.7971 132.873 88.8156 134.186 86.9089C135.499 85.0022 135.597 82.5105 134.44 80.5059C127.809 69.0248 116.178 60.7743 102.513 58.7612C103.9 51.1487 107.918 43.9638 112.316 38.0898C114.159 35.6288 116.007 33.4807 117.635 31.7242C123.723 41.3784 131.303 49.2017 138.135 56.2521C140.307 58.4944 142.404 60.6586 144.353 62.7786C154.066 73.3428 161 83.4607 161 98.8832V108H168V143.5H173V98.8832C173 78.9554 163.623 66.0085 153.187 54.6569C150.833 52.0961 148.463 49.6428 146.121 47.2192L146.12 47.2181C137.874 38.6827 129.984 30.516 124.395 19.3203ZM103 164V167H146V176H96C53.4648 176 19 141.464 19 98.8832C19 74.3925 30.4061 52.5637 48.1688 38.4458C49.8967 37.0725 52.239 36.7587 54.2675 37.6288C56.2959 38.499 57.6828 40.4125 57.8784 42.611L58.7839 52.7845L67.3666 46.0981C69.1751 44.6892 71.6283 44.4339 73.688 45.4403C75.7478 46.4467 77.0541 48.5388 77.0541 50.8312C77.0541 60.9959 78.4738 66.4295 81.2235 70.3027C84.0641 74.3039 88.9854 77.6076 98.4656 81.8807C101.044 83.0427 102.46 85.847 101.866 88.6116C101.272 91.3763 98.8278 93.3507 96 93.3507C95.3303 93.3507 93.6767 93.6784 91.2215 94.7947C88.9032 95.8489 86.3365 97.3945 83.963 99.268C81.5774 101.151 79.5555 103.232 78.1736 105.291C77.0334 106.989 76.4716 108.452 76.3034 109.648C79.1563 117.805 86.9097 123.636 96 123.636C98.4549 123.636 100.811 123.211 103 122.43V134.889C100.745 135.378 98.4025 135.636 96 135.636C81.0966 135.636 68.5327 125.71 64.4962 112.125C64.3313 111.57 64.2476 110.994 64.2476 110.416C64.2476 105.965 65.9784 101.927 68.2106 98.6021C70.4579 95.2547 73.4348 92.2905 76.5279 89.849C78.103 88.6056 79.7518 87.4633 81.4159 86.4479C77.3731 83.8276 74.019 80.884 71.4386 77.2494C68.418 72.9945 66.7011 68.152 65.8249 62.5109L57.4712 69.0189C55.7383 70.369 53.4062 70.6641 51.3916 69.7883C49.377 68.9124 48.0021 67.0057 47.8074 64.8177L47.0283 56.0634C37.0427 67.5137 31 82.4895 31 98.8832C31 134.856 60.1108 164 96 164H103Z" fill="black"/>
</svg>
