<svg xmlns="http://www.w3.org/2000/svg" width="192" height="192" fill="none" viewBox="0 0 192 192"><path stroke="#000" stroke-linecap="round" stroke-linejoin="round" stroke-width="12" d="M170 96a77 77 0 0 0-16.675-47.852A60.997 60.997 0 0 1 96 130"/><path stroke="#000" stroke-linecap="round" stroke-linejoin="round" stroke-width="12" d="M170 96a73.996 73.996 0 0 1-74 74A73.998 73.998 0 0 1 47.572 40.047C46.755 51.887 50 60 50 60s10-12 18-15c0 0-4 9 0 21 8 4 12 11 24 16l-5 5c-13.122 0-21.078 5.166-24.999 8.719a34 34 0 0 0 35.111 34.263 34.001 34.001 0 0 0 18.692-61.619 34 34 0 0 0-16.609-6.212C101.446 31.239 119 22 119 22"/><path stroke="#000" stroke-linecap="round" stroke-linejoin="round" stroke-width="12" d="M119 22c5.202 14.304 25.2 29.455 38.554 46"/></svg>