<?xml version="1.0" encoding="UTF-8" standalone="no"?>
<svg
   width="24"
   height="24"
   viewBox="0 0 24 24"
   fill="none"
   version="1.1"
   id="svg4"
   sodipodi:docname="firefox.svg"
   inkscape:version="1.1.1 (3bf5ae0d25, 2021-09-20)"
   xmlns:inkscape="http://www.inkscape.org/namespaces/inkscape"
   xmlns:sodipodi="http://sodipodi.sourceforge.net/DTD/sodipodi-0.dtd"
   xmlns="http://www.w3.org/2000/svg"
   xmlns:svg="http://www.w3.org/2000/svg">
  <defs
     id="defs8" />
  <sodipodi:namedview
     id="namedview6"
     pagecolor="#ffffff"
     bordercolor="#666666"
     borderopacity="1.0"
     inkscape:pageshadow="2"
     inkscape:pageopacity="0.0"
     inkscape:pagecheckerboard="0"
     showgrid="false"
     inkscape:zoom="32.375"
     inkscape:cx="11.984556"
     inkscape:cy="12"
     inkscape:window-width="2560"
     inkscape:window-height="1015"
     inkscape:window-x="0"
     inkscape:window-y="32"
     inkscape:window-maximized="1"
     inkscape:current-layer="svg4" />
  <path
     d="M 20.983591,8.7123827 C 20.562227,7.69861 19.707591,6.6040191 19.038318,6.258001 c 0.477273,0.9241818 0.808546,1.9166999 0.982,2.9422635 l 0.0018,0.016264 C 18.925773,6.4844282 17.067318,5.3810737 15.548682,2.9817375 15.471864,2.860392 15.395046,2.7388011 15.320227,2.6104466 c -0.04282,-0.0733 -0.07709,-0.1393546 -0.106818,-0.2001546 -0.063,-0.1219545 -0.111545,-0.2508363 -0.144636,-0.3840454 9.1e-5,-0.00615 -0.0022,-0.012091 -0.0062,-0.016709 -0.0041,-0.00461 -0.0097,-0.00757 -0.01582,-0.00831 -0.006,-0.00164 -0.01227,-0.00164 -0.01827,0 -0.0013,0 -0.0033,0.00225 -0.0047,0.00275 -0.0015,5e-4 -0.0047,0.00275 -0.007,0.00375 l 0.0037,-0.00651 c -2.435636,1.4261 -3.262545,4.0656271 -3.337545,5.3866362 0.113091,-0.00775 0.225182,-0.017255 0.340727,-0.017255 0.864182,0.00166 1.712454,0.2321182 2.458636,0.6679182 0.746182,0.4358 1.363637,1.0614181 1.789637,1.8132363 -0.682091,-0.4724364 -1.515273,-0.6747454 -2.338,-0.5676909 3.487636,1.7438366 2.551909,7.7484726 -2.281546,7.5232906 -0.430363,-0.01773 -0.855636,-0.09973 -1.261727,-0.243455 -0.09491,-0.03554 -0.189818,-0.07436 -0.2847,-0.116545 -0.05479,-0.02509 -0.1095814,-0.05009 -0.1636269,-0.07809 l 0.00675,0.0043 c -0.047036,-0.02255 -0.094073,-0.046 -0.1411091,-0.07036 0.045282,0.02182 0.087818,0.04536 0.1343545,0.06609 -1.1841636,-0.612 -2.161909,-1.768818 -2.2839999,-3.172454 0,0 0.4475909,-1.668 3.2049634,-1.668 0.297999,0 1.150908,-0.831909 1.166181,-1.073091 C 12.025682,10.37691 10.338137,9.7051463 9.6801551,9.0571554 9.328637,8.7106373 9.1617551,8.5437554 9.0138915,8.41841 8.9339824,8.3507282 8.8504642,8.2874191 8.7637006,8.2287645 8.5427824,7.4554009 8.5333643,6.6369373 8.7364279,5.8586919 7.8419552,6.2919737 7.0471734,6.9062282 6.4023825,7.6625827 h -0.0045 C 6.0135916,7.1754555 6.0406098,5.5692192 6.062628,5.2337101 5.9489371,5.279401 5.8404189,5.3370192 5.7388734,5.4055919 5.3996189,5.6477192 5.0824735,5.919401 4.7911462,6.2174737 4.4591644,6.5540555 4.1559553,6.9178555 3.8847008,7.3050555 v 0.0015 -0.00175 c -0.6233454,0.8835818 -1.0655182,1.8818727 -1.301,2.9372815 l -0.013009,0.064 c -0.018264,0.08537 -0.1000728,0.518641 -0.1118364,0.611732 -0.074827,0.447363 -0.1226182,0.898727 -0.1431091,1.351818 v 0.05 c 0.00428,2.426545 0.9181,4.763272 2.5610545,6.548909 1.6429544,1.785636 3.8956544,2.890545 6.3134262,3.096454 2.417728,0.205909 4.824819,-0.502 6.746091,-1.984182 1.921273,-1.48209 3.217091,-3.630545 3.631727,-6.021363 0.01627,-0.125091 0.02955,-0.249 0.044,-0.375364 0.199728,-1.650727 -0.01645,-3.325272 -0.629,-4.8711992 z m -0.962,0.4981364 0.0017,0.010255 z"
     fill="#000000"
     id="path2"
     style="stroke-width:0.909091" />
</svg>
