<?xml version="1.0" encoding="UTF-8" standalone="no"?>
<svg
   xmlns:dc="http://purl.org/dc/elements/1.1/"
   xmlns:cc="http://creativecommons.org/ns#"
   xmlns:rdf="http://www.w3.org/1999/02/22-rdf-syntax-ns#"
   xmlns:svg="http://www.w3.org/2000/svg"
   xmlns="http://www.w3.org/2000/svg"
   id="svg4"
   version="1.1"
   viewBox="0 0 192 192"
   height="192"
   width="192">
  <metadata
     id="metadata10">
    <rdf:RDF>
      <cc:Work
         rdf:about="">
        <dc:format>image/svg+xml</dc:format>
        <dc:type
           rdf:resource="http://purl.org/dc/dcmitype/StillImage" />
        <dc:title></dc:title>
      </cc:Work>
    </rdf:RDF>
  </metadata>
  <defs
     id="defs8" />
  <path
     id="path817"
     d="M 51.612433,43.365711 C 23.185959,61.712612 16.810188,109.39885 36.041641,137.50137 c 19.231453,28.10252 48.811309,37.21644 77.903569,30.38789 29.09227,-6.82855 53.44903,-37.16823 52.87335,-70.125666 -0.57568,-32.957445 -33.95598,-46.185564 -48.08113,-75.540883 -9.96107,9.205169 -21.668387,21.960917 -23.026997,42.286 21.248767,0.916248 28.437457,12.123219 33.243997,19.22 l -17.893,-2.865 c 13.77585,11.005341 15.57944,27.923409 3.63298,41.121309 -11.94645,13.1979 -38.132711,9.47622 -44.735977,-11.34631 0.699514,-13.111453 17.001176,-21.447884 25.752,-23.064999 -24.937916,-10.492398 -24.97712,-23.502643 -24.946,-36.52 l -17.27,13.455 z"
     style="display:inline;opacity:1;fill:none;stroke:#000000;stroke-width:12;stroke-linecap:butt;stroke-linejoin:round;stroke-miterlimit:4;stroke-dasharray:none;stroke-opacity:1" />
</svg>
