<svg xmlns="http://www.w3.org/2000/svg" width="192" height="192" data-name="Layer 1" viewBox="0 0 192 192"><path d="M0 0h192v192H0z" style="fill:none"/><path d="M153 100h-36a20 20 0 0 0-20 20v36a20 20 0 0 0 20 20h36a20 20 0 0 0 20-20v-36a20 20 0 0 0-20-20Zm8 56a8 8 0 0 1-8 8h-36a8 8 0 0 1-8-8v-36a8 8 0 0 1 8-8h36a8 8 0 0 1 8 8ZM98.47 81.88C89 77.61 84.06 74.3 81.22 70.3s-4.17-9.3-4.17-19.47a6 6 0 0 0-9.68-4.73l-8.59 6.68-.9-10.17a6 6 0 0 0-9.71-4.16A77.14 77.14 0 0 0 96 176h1.39a28 28 0 0 1-7.31-12.26A65.15 65.15 0 0 1 47 56.06l.78 8.76A6 6 0 0 0 57.47 69l8.35-6.51a33.74 33.74 0 0 0 5.62 14.74 35.63 35.63 0 0 0 10 9.2 48.12 48.12 0 0 0-4.89 3.4 39.33 39.33 0 0 0-8.32 8.75 21.4 21.4 0 0 0-4 11.82 5.78 5.78 0 0 0 .25 1.7A32.93 32.93 0 0 0 89 134.89v-12.46a21 21 0 0 1-12.7-12.78 10.75 10.75 0 0 1 1.87-4.36 27.83 27.83 0 0 1 5.79-6 36.47 36.47 0 0 1 7.26-4.48A13.9 13.9 0 0 1 96 93.35a6 6 0 0 0 2.47-11.47Zm54.72-27.22c-2.36-2.56-4.73-5-7.07-7.44-8.25-8.54-16.14-16.7-21.73-27.9a6 6 0 0 0-9.27-1.87l-.07.06-.23.21-.8.72c-.66.63-1.6 1.53-2.71 2.68a89.65 89.65 0 0 0-8.12 9.69C97.33 38.89 91 50.63 91 64a6 6 0 0 0 6 6 32 32 0 0 1 30.41 22h12.45a44 44 0 0 0-36.37-33.52c1.33-7.65 5.19-14.81 9.39-20.61 1.67-2.31 3.34-4.34 4.83-6 6.08 9.6 13.62 17.38 20.42 24.4 2.18 2.24 4.27 4.41 6.22 6.53 8.44 9.17 14.78 18 16.3 30.28a28 28 0 0 1 12.35 7.31v-1.51C173 79 163.62 66 153.19 54.66Zm-38-37.18.18.21Z" style="fill-rule:evenodd"/><path d="M125.03 152v-28l20.94 28v-28" style="stroke:#000;stroke-linecap:round;stroke-linejoin:round;stroke-width:8px;fill-rule:evenodd;fill:none"/></svg>