<svg xmlns="http://www.w3.org/2000/svg" width="192" height="192" fill="none"><path stroke="#000" stroke-linecap="round" stroke-linejoin="round" stroke-width="12" d="M170 96a77 77 0 0 0-16.675-47.852A60.997 60.997 0 0 1 96 130"/><path stroke="#000" stroke-linecap="round" stroke-linejoin="round" stroke-width="12" d="M170 96a73.996 73.996 0 0 1-74 74 74 74 0 0 1-32.5-7.519M119 22s-17.554 9.24-19.805 40.15a34 34 0 0 1 29.001 22.921 34.01 34.01 0 0 1-11.498 37.903 34.001 34.001 0 0 1-54.697-27.255C65.921 92.166 73.878 87 87 87l5-5c-12-5-16-12-24-16-4-12 0-21 0-21-8 3-18 15-18 15s-3.245-8.112-2.428-19.953A74 74 0 0 0 22.979 108M119 22c5.202 14.304 25.2 29.455 38.554 46M22 149h26m-26 21v-36a6 6 0 0 1 6-6h20"/></svg>