<svg xmlns="http://www.w3.org/2000/svg" width="192" height="192" fill="none"><path stroke="#000" stroke-linecap="round" stroke-linejoin="round" stroke-width="12" d="M71.151 68.24C78.802 39.736 96 22 96 22s17.198 17.735 24.848 46.24m-49.697 0q0 .008-.003.014m.004-.014L48 48c-13.106 36.04 11.36 55.979 20.641 62.013C71.33 128.33 79.314 148.621 96 170c16.686-21.379 24.671-41.67 27.358-59.987C132.639 103.979 157.106 84.041 144 48l-23.152 20.24m-49.697 0L96 89.965m26.36 23.045L96 89.964m24.848-21.724.004.014m-.004-.014L96 89.965m0 0-9.885 8.642"/></svg>