<svg xmlns="http://www.w3.org/2000/svg" width="192" height="192" fill="none" viewBox="0 0 192 192"><path stroke="#000" stroke-linecap="round" stroke-width="14" d="M86.38 23.64c-26.284-4.785-35.552 17.764-33.472 50.47L58.94 169m20.943-79.657L35 75.806m124 45.162c-4.06 4.136-9.469 6.723-15.543 7.431-6.071.708-12.537-.493-18.574-3.452-6.039-2.96-11.378-7.542-15.347-13.17-3.967-5.63-6.384-12.052-6.944-18.453-.561-6.403.76-12.495 3.797-17.512 3.035-5.017 7.65-8.731 13.259-10.67 5.608-1.94 11.961-2.022 18.252-.232s12.241 5.368 17.094 10.285"/></svg>