<svg xmlns="http://www.w3.org/2000/svg" width="192" height="192" viewBox="0 0 192 192"><path d="M164.673 17.402c-.364 0-.738.067-1.106.211-20.66 8.091-40.992 16.769-61.701 24.741-19.19 7.477-20.493 13.294-19.705 29.312.158 3.209-1.13 4.782-3.997 5.887-16.002 6.17-31.957 12.46-47.925 18.718-4.52 1.771-6.336 4.03-5.911 7.943a3.07 3.07 0 0 0 3.036 2.741c.351 0 .709-.062 1.062-.194 16.245-6.096 32.308-12.696 48.544-18.822 16.908-6.476 14.952-8.879 14.888-21.558-.041-7.987 1.482-10.343 8.921-13.368 18.304-7.226 36.347-15.061 54.755-21.979a3 3 0 0 1 1.063-.195c1.606 0 3.034 1.306 3.039 3.042.02 6.217.057 12.234-.115 18.246-.034 1.194-1.222 2.982-2.311 3.425-18.256 7.427-36.657 14.502-54.863 22.046-9.736 4.034-10.355 6.31-9.861 13.278a3.05 3.05 0 0 0 3.029 2.84 2.264.444 0 0 0 1.132-.222l58.778-23.68a3 3 0 0 1 1.137-.223c1.606 0 3.041 1.296 3.044 3.039.008 6.696.021 13.044-.093 19.389-.012.657-1.172 1.566-1.986 1.896-17.157 6.961-34.31 13.933-51.527 20.741-14.404 5.696-14.44 5.605-14.525 21.102-.042 7.672-2.248 10.923-9.388 13.794q-10.925 4.392-21.857 8.767c-9.782 3.917-9.641 3.917-9.822 14.383-.046 2.623 1.006 3.282 2.566 3.282.423 0 .884-.049 1.37-.119a4 4 0 0 1 .549-.035c.787 0 1.703.171 2.517.171 1.394 0 2.488-.502 2.119-3.229-.467-3.453.785-5.145 4.129-6.276 5.648-1.91 11.115-4.363 16.638-6.636 17.827-7.335 20.087-10.763 20.314-29.905.015-1.251 1.257-3.145 2.398-3.626 20.055-8.457 40.193-16.716 60.249-25.169 2.404-1.013 4.383-3.982 4.396-6.592.122-24.729.072-49.385.062-74.119 0-1.743-1.432-3.047-3.04-3.047z"/><path d="M87.781 109.053c-.411 0-.832.085-1.242.27-10.91 4.919-22.285 8.74-33.312 13.416-.886.357-2.152 1.267-2.192 1.978-.141 2.53-.142 5.068-.125 7.751.011 1.736 1.437 3.026 3.039 3.026.364 0 .737-.067 1.105-.21 8.559-3.331 16.851-6.494 25.05-9.884 9.002-3.722 10.992-5.588 10.709-13.421-.061-1.701-1.474-2.927-3.032-2.927z"/></svg>