<svg xmlns="http://www.w3.org/2000/svg" width="192" height="192" fill="none" stroke="#000" stroke-linecap="round" stroke-linejoin="round" viewBox="0 0 192 192"><path stroke-width="6" d="M71 96a3 3 0 1 0-6 0 3 3 0 0 0 6 0"/><path stroke-width="8" d="M131 107V85a6 6 0 0 0-6-6H57a6 6 0 0 0-6 6v22a6 6 0 0 0 6 6h68a6 6 0 0 0 6-6m14-27-10.543 12.049a6 6 0 0 0 0 7.902L145 112"/><path stroke-width="12" d="M96 170c40.869 0 74-33.131 74-74s-33.131-74-74-74-74 33.13-74 74c0 16.482 5.389 31.706 14.5 44.005L31 162l22.273-5.574C65.342 164.975 80.084 170 96 170"/></svg>