<svg xmlns="http://www.w3.org/2000/svg" width="192" height="192" fill="none"><path stroke="#000" stroke-linecap="round" stroke-linejoin="round" stroke-width="12" d="m42 170-10-13 42-17c16-13 9.392-35 11-41s9-17-3-47"/><path stroke="#000" stroke-linecap="round" stroke-linejoin="round" stroke-width="12" d="M74 140c17-7 32-35 32-35l12-48"/><path stroke="#000" stroke-linecap="round" stroke-linejoin="round" stroke-width="12" d="M63 94c-1-22-3-26 7-36s27-14 33-14c18 0 15 26 28 26 6 0 12-12 14-22m6 122-18-4c6-39.5 15-44 9-51s-36-8-36-8"/><path stroke="#000" stroke-linecap="round" stroke-linejoin="round" stroke-width="10" d="M104.406 27.261c-1.088 4.085.087 7.95 2.624 8.635s5.476-2.073 6.564-6.157c1.088-4.085-.087-7.95-2.624-8.635s-5.476 2.073-6.564 6.157"/></svg>