<svg xmlns="http://www.w3.org/2000/svg" width="192" height="192" fill="none"><path stroke="#000" stroke-linecap="round" stroke-linejoin="round" stroke-width="12" d="m26 109 12 10-12 10m140-20-12 10 12 10M54 22c-5 17-16 32-16 45 0 22 25 29 25 53 0 22-18 25-16 50m91-148c5 17 16 32 16 45 0 22-25 29-25 53 0 22 18 25 16 50"/><path stroke="#000" stroke-linecap="round" stroke-linejoin="round" stroke-width="12" d="M54 22c-5 17-16 32-16 45 0 22 30 47 58 26m42-71c5 17 16 32 16 45 0 22-30 47-58 26"/><path stroke="#000" stroke-linecap="round" stroke-linejoin="round" stroke-width="12" d="M48 40s30-6 48 22m48-22s-30-6-48 22m-40 83s15 11 40 11m40-11s-15 11-40 11"/></svg>