<svg width="192" height="192" fill="none" xmlns="http://www.w3.org/2000/svg"><path d="M71 112h52" stroke="#000" stroke-width="12" stroke-linecap="round" stroke-linejoin="round"/><circle cx="71" cy="96" r="16" stroke="#000" stroke-width="12" stroke-linecap="round" stroke-linejoin="round"/><circle cx="123" cy="96" r="16" stroke="#000" stroke-width="12" stroke-linecap="round" stroke-linejoin="round"/><path d="M32 170C32 40 48.966 22 48.966 22l26.943 35m-15.966 98s11.976 7 38.922 7c26.945 0 44.909 0 56.885-26 13.972-31-10.978-114-10.978-114l-24.948 35" stroke="#000" stroke-width="12" stroke-linecap="round" stroke-linejoin="round"/><path d="m98 141-8-10h16l-8 10Z" stroke="#000" stroke-width="8" stroke-linecap="round" stroke-linejoin="round"/><path d="M133 159s1 5 1 11M40 65s30-8 58-8 57 8 57 8" stroke="#000" stroke-width="12" stroke-linecap="round" stroke-linejoin="round"/></svg>