<svg xmlns="http://www.w3.org/2000/svg" width="192" height="192" fill="none"><path stroke="#000" stroke-linecap="round" stroke-linejoin="round" stroke-width="12" d="M71 112h52"/><circle cx="71" cy="96" r="16" stroke="#000" stroke-linecap="round" stroke-linejoin="round" stroke-width="12"/><circle cx="123" cy="96" r="16" stroke="#000" stroke-linecap="round" stroke-linejoin="round" stroke-width="12"/><path stroke="#000" stroke-linecap="round" stroke-linejoin="round" stroke-width="12" d="M32 170C32 40 48.966 22 48.966 22l26.943 35m-15.966 98s11.976 7 38.922 7 44.909 0 56.885-26c13.972-31-10.978-114-10.978-114l-24.948 35"/><path stroke="#000" stroke-linecap="round" stroke-linejoin="round" stroke-width="8" d="m98 141-8-10h16z"/><path stroke="#000" stroke-linecap="round" stroke-linejoin="round" stroke-width="12" d="M133 159s1 5 1 11M40 65s30-8 58-8 57 8 57 8"/></svg>