<svg xmlns="http://www.w3.org/2000/svg" width="192" height="192" fill="none"><path stroke="#000" stroke-linecap="round" stroke-linejoin="round" stroke-width="12" d="M55.728 113s-6.014 29 18.043 29c24.058 0 24.058-32 24.058-32v-2.335M73.771 170c-63.151 0-64.154-95 8.02-95 5.832 0 11.134.466 16.038 1.174M73.771 170c34.024 0 49.193-24.452 50.079-56.939M73.771 170c-51.123 0-51.122-64 8.02-64 6.182 0 11.24.69 16.038 1.665m26.021 5.396c4.621.574 9.87.939 16.08.939 21.051 0 29.07-10 29.07-10l-15.036-10V79c-10.736 5.122-19.95 4.607-30.072 2.593m-.042 31.468c-10.657-1.324-17.972-3.761-26.02-5.396m0-31.491V66a43.95 43.95 0 0 1 12.917-31.113 44.19 44.19 0 0 1 43.217-11.22v28.917A18.07 18.07 0 0 0 141.935 48a18.07 18.07 0 0 0-12.759 5.272A17.98 17.98 0 0 0 123.892 66v15.593m-26.063-5.419c8.967 1.294 16.604 3.396 23.717 4.932m-23.717-4.932 23.717 4.932m0 0q1.182.255 2.346.487m-2.346-.487 2.346.487"/></svg>