<svg version="1.1" xmlns="http://www.w3.org/2000/svg" xmlns:xlink="http://www.w3.org/1999/xlink" width="1024" height="1514.53281" viewBox="-315.5,-115.5,1024,1514.53281"><g id="document" fill-opacity="0" fill="#ffffff" fill-rule="nonzero" stroke="#000000" stroke-width="0" stroke-linecap="butt" stroke-linejoin="miter" stroke-miterlimit="10" stroke-dasharray="" stroke-dashoffset="0" font-family="none" font-weight="none" font-size="none" text-anchor="none" style="mix-blend-mode: normal"><rect x="-315.5" y="-115.5" width="1024" height="1024" id="Shape 1 1" vector-effect="non-scaling-stroke"/></g><g fill="none" fill-rule="nonzero" stroke="none" stroke-width="none" stroke-linecap="none" stroke-linejoin="none" stroke-miterlimit="10" stroke-dasharray="" stroke-dashoffset="0" font-family="none" font-weight="none" font-size="none" text-anchor="none" style="mix-blend-mode: normal"><g id="stage"><g id="Layer2 1" fill="none" stroke="none" stroke-width="1" stroke-linecap="butt" stroke-linejoin="miter" font-family="sans-serif" font-weight="normal" font-size="12" text-anchor="start"/><g id="Layer3 1" stroke-linecap="round"><path d="M350.16984,324.74176c0,0 29.64081,33.50794 40.17368,57.44625c-13.65591,48.39617 -46.46402,137.32683 -120.89168,238.71234c-113.63719,154.7968 -186.69102,135.4307 -188.90479,135.21198c-8.55828,-0.84557 -83.03264,-5.12031 -97.66603,-223.87465c-9.49078,-141.87753 22.66043,-237.05297 46.43036,-286.42565c29.15612,-15.11131 70.07689,-21.32996 84.513,-23.15977c-1.38267,8.20143 -2.10416,16.64463 -2.10416,25.26587c0,79.04272 52.48393,149.46029 127.29686,149.46029c46.18668,0 86.66643,-35.29557 111.1181,-72.5838c0.01156,-0.01762 0.02311,-0.03525 0.03466,-0.05287z" id="Path 1" fill="#000000" stroke="#000000" stroke-width="0" stroke-linejoin="round"/><path d="M624.44666,1399.03281" id="Path 1" fill="none" stroke="#000000" stroke-width="1" stroke-linejoin="round"/><path d="M435.33373,373.05377c11.8034,12.67935 27.74524,-13.14067 27.74524,-13.14067c0,0 42.21367,-58.53161 -14.45047,-155.19559c-39.35491,-50.75836 -82.40378,-64.70161 -147.44646,-50.57273c-5.12051,-2.96674 -8.5997,-3.6499 -9.76662,-3.97944c1.36362,-25.66222 49.01288,-124.15278 103.89639,-157.23053c11.13929,-12.30269 2.33583,-13.03747 -0.54498,-13.76034c-83.67279,45.15433 -125.6869,162.71502 -125.6869,162.71502c0,0 -4.93691,-3.03554 -5.26556,-3.07577c-20.43028,-41.39533 -82.95555,-86.59154 -148.84783,-71.8263c-37.65276,8.43729 -74.79667,37.86032 -94.56076,61.68705c-17.87326,21.54723 -25.41351,48.57901 -26.07407,63.7414c-0.64892,14.79451 12.33935,14.5058 17.49725,13.2385c61.0165,-14.99182 80.28922,-21.87486 138.28663,-24.55811c0.33931,16.40267 -21.31113,143.47398 59.23061,171.01328c64.5828,22.08253 118.9204,-48.41425 136.04111,-80.91511c52.50203,48.34911 78.0965,89.13001 89.94642,101.85934z" id="Path 1" fill="#000000" stroke="#ff22a1" stroke-width="0" stroke-linejoin="miter"/></g></g></g></svg>