<?xml version="1.0" encoding="utf-8"?>
<!-- Generator: Adobe Illustrator 26.0.2, SVG Export Plug-In . SVG Version: 6.00 Build 0)  -->
<svg version="1.1" id="Layer_1" xmlns="http://www.w3.org/2000/svg" xmlns:xlink="http://www.w3.org/1999/xlink" x="0px" y="0px"
	 viewBox="0 0 192 192" style="enable-background:new 0 0 192 192;" xml:space="preserve">
<style type="text/css">
	.st0{fill:none;stroke:#000000;stroke-width:12;stroke-miterlimit:10;}
</style>
<g>
	<path d="M96,27.8c0.7,0,1.4,0.2,2,0.5l55.6,32.1c1.2,0.7,2,2,2,3.5v64.2c0,1.4-0.8,2.8-2,3.5L98,163.7c-0.6,0.4-1.3,0.5-2,0.5
		s-1.4-0.2-2-0.5l-55.6-32.1c-1.2-0.7-2-2-2-3.5V63.9c0-1.4,0.8-2.8,2-3.5L94,28.3C94.6,28,95.3,27.8,96,27.8 M96,15.8
		c-2.8,0-5.5,0.7-8,2.1L32.4,50c-5,2.9-8,8.1-8,13.9v64.2c0,5.7,3,11,8,13.9L88,174.1c2.5,1.4,5.2,2.1,8,2.1c2.8,0,5.5-0.7,8-2.1
		l55.6-32.1c5-2.9,8-8.1,8-13.9V63.9c0-5.7-3-11-8-13.9L104,17.9C101.5,16.5,98.8,15.8,96,15.8L96,15.8z"/>
</g>
<g>
	<path class="st0" d="M30,58l132,76 M30,134l132-76 M96,20v152"/>
</g>
</svg>
