<svg xmlns="http://www.w3.org/2000/svg" width="192" height="192" fill="none"><path stroke="#000" stroke-linecap="round" stroke-linejoin="round" stroke-width="12" d="M152 96h12a6 6 0 0 1 6 6v7l-16 31h-40v7H57l-35-31v-14a6 6 0 0 1 6-6h5l49-51h34m16 73h31"/><path stroke="#000" stroke-linecap="round" stroke-linejoin="round" stroke-width="12" d="M33 96h8l15 15h16l12-12V88L72 77H53m63-32 36 30v21h-37v-9h-10V65h8l10-11m-9 42-14 18v14l14 12"/><path stroke="#000" stroke-linecap="round" stroke-linejoin="round" stroke-width="12" d="M137 69h6v6h-6z"/></svg>