<svg width="192" height="192" viewBox="0 0 192 192" fill="none" xmlns="http://www.w3.org/2000/svg">
<path d="M80 134.789C80 155.342 90 170 90 170C66.876 167.046 49 147.246 49 123.26C49 120.266 49.319 117.338 49.8862 114.5L61 123.26C61 123.26 51.5946 107.54 66 87C80.4054 66.4604 98.8549 44.2235 101 22C107.397 30.7041 118.907 44.5578 121 57.0899C124.935 80.6503 80 102.206 80 134.789Z" stroke="black" stroke-width="12" stroke-linecap="round" stroke-linejoin="round"/>
<path d="M143 123.26C143 118.516 141 109.224 141 109.224C139.416 101.528 137.272 93.6431 134.562 85.6632C134.562 97.694 107.031 109.224 102 133C99.0503 146.94 110.454 168.03 110.5 168.095C129.362 161.968 143 144.211 143 123.26Z" stroke="black" stroke-width="12" stroke-linecap="round" stroke-linejoin="round"/>
</svg>
