<svg xmlns="http://www.w3.org/2000/svg" width="192" height="192" fill="none" stroke="#000" stroke-width="12" viewBox="0 0 192 192"><path d="M122.297 76.578H70.136c-8.025 0-8.025 0-8.025 5.639v21.633c0 1.494.842 2.925 2.347 3.982l11.355 7.98c1.505 1.057 2.347 2.488 2.347 3.982v44.567c0 5.639 0 5.639 8.025 5.639h20.062c8.025 0 8.025 0 8.025-5.639v-44.567c0-1.494.843-2.925 2.347-3.982l11.355-7.98c1.505-1.057 2.348-2.488 2.348-3.982V82.217c0-5.64 0-5.64-8.025-5.64z"/><path stroke-linecap="round" d="m129.891 58.092 11.035-15.548m-44.903-1.479L96.143 22M62.684 59.102 51.65 43.554"/></svg>