<svg xmlns="http://www.w3.org/2000/svg" fill="none" viewBox="0 0 192 192"><path stroke="#000" stroke-linecap="round" stroke-linejoin="round" stroke-miterlimit="6" stroke-width="8" d="M118.694 47.662a4.155 4.155 0 0 1 3.23.425 4.367 4.367 0 0 1 1.994 2.65l.002.006 7.941 30.157a38.427 38.427 0 0 1 1.178 4.5 40.026 40.026 0 0 1-1.305 20.67c-2.242 6.65-6.189 12.553-11.423 17.081-5.233 4.529-11.557 7.513-18.298 8.636-2.454.41-4.93.565-7.392.474l9.91-18.456c1.531-2.853.526-6.444-2.246-8.02-2.772-1.576-6.26-.54-7.792 2.312L82.59 130.091l-.696 1.305-5.428 10.002c-1.451 2.674-4.732 3.628-7.328 2.13-2.596-1.497-3.524-4.879-2.073-7.553l4.992-9.198 1.442-2.595 21.532-40.304c1.545-2.846.555-6.44-2.21-8.03-2.764-1.59-6.258-.571-7.802 2.274l-19.868 36.602a39.18 39.18 0 0 1-2.936-5.82 39.95 39.95 0 0 1-2.108-22.822c1.54-7.658 5.284-14.667 10.743-20.111 5.425-5.411 12.293-9.027 19.719-10.383l28.12-7.925Z" clip-rule="evenodd"/><circle cx="96" cy="96" r="74" stroke="#000" stroke-linecap="round" stroke-linejoin="round" stroke-miterlimit="6" stroke-width="12"/></svg>
