<svg xmlns="http://www.w3.org/2000/svg" xml:space="preserve" width="192" height="192" fill="none" viewBox="0 0 192 192"><g fill="#00000000" stroke="#000" style="stroke-width:12;stroke-dasharray:none"><path d="M122 22H70c-4.42 0-8 3.58-8 8v30.69c0 2.12.84 4.15 2.34 5.65l11.32 11.32c1.5 1.5 2.34 3.53 2.34 5.65V162c0 4.42 3.58 8 8 8h20c4.42 0 8-3.58 8-8V83.31c0-2.12.84-4.15 2.34-5.65l11.32-11.32c1.5-1.5 2.34-3.53 2.34-5.65V30c0-4.42-3.58-8-8-8z" style="stroke-width:12;stroke-dasharray:none"/><path d="M65 46h62" style="stroke-linecap:round;stroke-linejoin:round;stroke-width:12;stroke-dasharray:none"/><path stroke-width="8" d="M96 84.873V105" style="stroke-width:12;stroke-linecap:round;stroke-linejoin:round;stroke-dasharray:none"/></g></svg>