<svg xmlns="http://www.w3.org/2000/svg" width="192" height="192" fill="none"><path stroke="#000" stroke-linecap="round" stroke-linejoin="round" stroke-width="12" d="m133.504 111.024 34.678 34.678a6.21 6.21 0 0 1 0 8.78l-13.7 13.7a6.21 6.21 0 0 1-8.78 0l-34.678-34.678m22.48-52.528 34.678-34.678a6.21 6.21 0 0 0 0-8.78l-13.7-13.7a6.21 6.21 0 0 0-8.78 0l-34.678 34.678M37.518 168.183l-13.7-13.7a6.21 6.21 0 0 1 0-8.78L69.13 100.39a6.21 6.21 0 0 0 0-8.78L23.82 46.298a6.21 6.21 0 0 1 0-8.78l13.699-13.7a6.21 6.21 0 0 1 8.78 0l60.475 60.475c6.465 6.466 6.465 16.948 0 23.414l-60.475 60.475a6.21 6.21 0 0 1-8.78 0Z"/></svg>