<svg width="192" height="192" viewBox="0 0 192 192" fill="none" xmlns="http://www.w3.org/2000/svg">
<path d="M127.661 23.2279C134.52 20.1111 142.622 23.1324 145.759 29.976C148.896 36.8196 145.879 44.8941 139.021 48.0108L63.3385 82.4042C56.4801 85.5209 48.3774 82.4997 45.2405 75.6561C42.1037 68.8125 45.1205 60.738 51.9788 57.6213L127.661 23.2279Z" stroke="black" stroke-width="12" stroke-linejoin="round"/>
<path d="M110.558 83.8862C117.416 80.7695 125.519 83.7907 128.656 90.6343C131.793 97.4779 128.776 105.552 121.918 108.669L84.4822 125.681C77.6239 128.798 69.5212 125.777 66.3843 118.933C63.2474 112.09 66.2643 104.015 73.1226 100.898L110.558 83.8862Z" stroke="black" stroke-width="12" stroke-linejoin="round"/>
<path d="M94.3801 143.989C101.238 140.872 109.341 143.894 112.478 150.737C115.615 157.581 112.598 165.655 105.74 168.772C98.8814 171.889 90.7787 168.868 87.6418 162.024C84.5049 155.18 87.5218 147.106 94.3801 143.989Z" stroke="black" stroke-width="12" stroke-linejoin="round"/>
</svg>
