<svg xmlns="http://www.w3.org/2000/svg" width="192" height="192" fill="none" viewBox="0 0 192 192"><path stroke="#000" stroke-width="12" d="m68.38 101.086 74.158-43.344c9.048-5.29 12.148-17.002 6.924-26.163-5.224-9.16-16.794-12.299-25.842-7.01L49.462 67.913c-9.048 5.29-12.148 17.002-6.924 26.163 5.224 9.16 16.794 12.299 25.842 7.01Zm0 0 37.079-21.672c9.048-5.289 20.619-2.15 25.843 7.01s2.124 20.874-6.925 26.162l-37.078 21.672M68.38 101.086c-9.048 5.289-12.148 17.002-6.924 26.162s16.794 12.299 25.843 7.01m0 0c9.048-5.288 20.618-2.15 25.842 7.011s2.124 20.873-6.924 26.162-20.619 2.15-25.843-7.01-2.124-20.874 6.925-26.163Z"/></svg>