<svg width="192" height="192" viewBox="0 0 192 192" fill="none" xmlns="http://www.w3.org/2000/svg"><path d="M148.604 77.156a6.029 6.029 0 0 0 8.518 0l7.643-7.635a6.009 6.009 0 0 0 0-8.507l-34.071-34.029a6.029 6.029 0 0 0-8.518 0l-7.644 7.635a6.01 6.01 0 0 0 0 8.507M42.98 114.59a6.029 6.029 0 0 0-8.518 0l-7.378 7.368a6.011 6.011 0 0 0 0 8.508l34.072 34.029a6.029 6.029 0 0 0 8.518 0l7.377-7.369a6.01 6.01 0 0 0 0-8.507m26.611-73.51a6.029 6.029 0 0 0-8.518 0L75.269 94.96a6.01 6.01 0 0 0 0 8.508m41.17-15.596a6.01 6.01 0 0 1 0 8.507l-19.876 19.85a6.029 6.029 0 0 1-8.517 0m7.078-92.466 73.112 73.02a6.01 6.01 0 0 1 0 8.508l-12.777 12.761a6.029 6.029 0 0 1-8.518 0L73.829 45.03a6.01 6.01 0 0 1 0-8.507l12.777-12.761a6.028 6.028 0 0 1 8.518 0ZM45.059 73.949l73.112 73.021a6.01 6.01 0 0 1 0 8.507l-12.777 12.761a6.029 6.029 0 0 1-8.518 0l-73.112-73.02a6.01 6.01 0 0 1 0-8.508l12.777-12.76a6.028 6.028 0 0 1 8.518 0Z" stroke="#000" stroke-width="12" stroke-linejoin="round"/></svg>
