<svg width="192" height="192" viewBox="0 0 192 192" fill="none" xmlns="http://www.w3.org/2000/svg"><circle cx="54" cy="78" r="3" stroke="#000" stroke-width="6" stroke-linecap="round" stroke-linejoin="round"/><circle cx="118" cy="78" r="3" stroke="#000" stroke-width="6" stroke-linecap="round" stroke-linejoin="round"/><path d="M86 33h84m-14 28h14m-14 0s14-14 14-28" stroke="#000" stroke-width="12" stroke-linecap="round" stroke-linejoin="round"/><path d="M170 61c0 13.349-12.028 26.698-20.028 34.1a64.003 64.003 0 0 1-66.066 65.866A64.002 64.002 0 0 1 86 33" stroke="#000" stroke-width="12" stroke-linecap="round" stroke-linejoin="round"/><path d="M97 130a19 19 0 0 0 0-38m-22 0a19 19 0 0 0 0 38" stroke="#000" stroke-width="10" stroke-linecap="round" stroke-linejoin="round"/><circle cx="76" cy="111" r="3" stroke="#000" stroke-width="6" stroke-linecap="round" stroke-linejoin="round"/><circle cx="96" cy="111" r="3" stroke="#000" stroke-width="6" stroke-linecap="round" stroke-linejoin="round"/><path d="M75 92h22m-22 38h22" stroke="#000" stroke-width="10" stroke-linecap="round" stroke-linejoin="round"/></svg>