<?xml version="1.0" encoding="UTF-8" standalone="no"?>

<svg
   width="192"
   height="192"
   viewBox="0 0 11.52 11.52"
   version="1.1"
   id="svg2"
   xmlns="http://www.w3.org/2000/svg"
   xmlns:svg="http://www.w3.org/2000/svg">
  <defs
     id="defs1">
    <style
       id="style1">.a{fill:none;stroke:#000000;stroke-linecap:round;stroke-linejoin:round;}</style>
  </defs>
  <g
     id="g2"
     transform="matrix(0.22783867,0,0,0.22783867,0.29471791,0.29191709)"
     style="stroke-width:3.16006;stroke-dasharray:none">
    <path
       class="a"
       d="m 38.17,13.93 h 3.6 a 1.72,1.72 0 0 1 1.48,2.61 l -5.84,9.79 a 2.16,2.16 0 0 0 0.85,3 l 2.58,1.36 a 0.93,0.93 0 0 1 0.49,0.87 l -0.08,1.14 a 0.91,0.91 0 0 1 -0.91,0.85 H 35.25 A 5.22,5.22 0 0 1 30.71,25.76 L 37,14.59 a 1.31,1.31 0 0 1 1.17,-0.66 z"
       id="path1"
       style="stroke-width:3.16006;stroke-dasharray:none" />
    <path
       class="a"
       d="M 33,16.16 29.65,22 A 23.92,23.92 0 0 1 8.87,34.07 H 5.4 a 0.9,0.9 0 0 1 -0.9,-0.9 v -0.86 a 0.9,0.9 0 0 1 0.9,-0.9 h 2.82 a 15.41,15.41 0 0 0 13,-7.21 l 3.5,-5.59 a 5.24,5.24 0 0 1 4.43,-2.45 z"
       id="path2"
       style="stroke-width:3.16006;stroke-dasharray:none" />
  </g>
</svg>
