<svg xmlns="http://www.w3.org/2000/svg" width="192" height="192" viewBox="0 0 50.8 50.8"><path d="M96 22a74 74 0 0 0-74 74 74 74 0 0 0 17.527 47.75L96 96l-9.717 73.28A74 74 0 0 0 96 170a74 74 0 0 0 74-74 74 74 0 0 0-74-74z" style="fill:none;stroke:#000;stroke-width:12;stroke-linecap:round;stroke-linejoin:round;stroke-opacity:1" transform="scale(.26458)"/><path d="M96 51.31A44.69 44.69 0 0 0 51.31 96a44.69 44.69 0 0 0 10.602 28.822L96 96l-5.871 44.275a44.69 44.69 0 0 0 5.871.414A44.69 44.69 0 0 0 140.69 96 44.69 44.69 0 0 0 96 51.31z" style="fill:none;stroke:#000;stroke-width:12;stroke-linecap:round;stroke-linejoin:round;stroke-opacity:1" transform="scale(.26458)"/><path d="M96 72.484A23.515 23.515 0 0 0 72.484 96a23.515 23.515 0 0 0 5.565 15.178L96 96l-3.082 23.246a23.515 23.515 0 0 0 3.082.27A23.515 23.515 0 0 0 119.516 96 23.515 23.515 0 0 0 96 72.484z" style="fill:none;stroke:#000;stroke-width:12;stroke-linecap:round;stroke-linejoin:round;stroke-opacity:1" transform="scale(.26458)"/><circle cx="93.862" cy="83.913" r="2.138" style="fill:#000;fill-opacity:1;stroke:none;stroke-width:4.27502;stroke-linecap:round;stroke-linejoin:round;stroke-opacity:.505813" transform="translate(-59.607 -31.423) scale(.74269)"/><circle cx="93.862" cy="83.913" r="2.138" style="fill:#000;fill-opacity:1;stroke:none;stroke-width:4.27502;stroke-linecap:round;stroke-linejoin:round;stroke-opacity:.505813" transform="translate(-37.943 -51.13) scale(.74269)"/><circle cx="93.862" cy="83.913" r="2.138" style="fill:#000;fill-opacity:1;stroke:none;stroke-width:4.27502;stroke-linecap:round;stroke-linejoin:round;stroke-opacity:.505813" transform="translate(-53.448 -40.813) scale(.74269)"/><circle cx="93.862" cy="83.913" r="2.138" style="fill:#000;fill-opacity:1;stroke:none;stroke-width:4.27502;stroke-linecap:round;stroke-linejoin:round;stroke-opacity:.505813" transform="translate(-36.501 -35.333) scale(.74269)"/><circle cx="93.862" cy="83.913" r="2.138" style="fill:#000;fill-opacity:1;stroke:none;stroke-width:4.27502;stroke-linecap:round;stroke-linejoin:round;stroke-opacity:.505813" transform="translate(-40.535 -26.9) scale(.74269)"/></svg>