<svg xmlns="http://www.w3.org/2000/svg" width="192" height="192" stroke-linejoin="round" stroke-width="3.175" viewBox="0 0 50.8 50.8"><path fill="none" stroke="#000" d="M25.4 5.82A19.579 19.579 0 0 0 5.82 25.4a19.579 19.579 0 0 0 4.638 12.633L25.4 25.4l-2.571 19.388a19.579 19.579 0 0 0 2.57.19A19.579 19.579 0 0 0 44.98 25.4 19.579 19.579 0 0 0 25.4 5.82z"/><path fill="none" stroke="#000" d="M25.4 13.576A11.824 11.824 0 0 0 13.576 25.4a11.824 11.824 0 0 0 2.805 7.625L25.4 25.4l-1.554 11.714a11.824 11.824 0 0 0 1.554.11A11.824 11.824 0 0 0 37.224 25.4 11.824 11.824 0 0 0 25.4 13.576z"/><path fill="none" stroke="#000" d="M25.4 19.178a6.222 6.222 0 0 0-6.222 6.222 6.222 6.222 0 0 0 1.472 4.015L25.4 25.4l-.816 6.15a6.222 6.222 0 0 0 .816.072 6.222 6.222 0 0 0 6.222-6.222 6.222 6.222 0 0 0-6.222-6.222z"/><circle cx="93.862" cy="83.913" r="2.138" transform="translate(-59.607 -31.423) scale(.74269)"/><circle cx="93.862" cy="83.913" r="2.138" transform="translate(-37.943 -51.13) scale(.74269)"/><circle cx="93.862" cy="83.913" r="2.138" transform="translate(-53.448 -40.813) scale(.74269)"/><circle cx="93.862" cy="83.913" r="2.138" transform="translate(-36.501 -35.333) scale(.74269)"/><circle cx="93.862" cy="83.913" r="2.138" transform="translate(-40.535 -26.9) scale(.74269)"/></svg>