<svg xmlns="http://www.w3.org/2000/svg" width="192" height="192" fill="none"><circle cx="68" cy="78" r="3" stroke="#000" stroke-linecap="round" stroke-linejoin="round" stroke-width="6"/><path stroke="#000" stroke-linecap="round" stroke-linejoin="round" stroke-width="10" d="M67.5 55C56.178 55 47 64.094 47 75.311c0 8.39 5.133 15.59 12.457 18.689C62.6 86.78 69.849 81.726 78.29 81.726c2.854 0 5.573.578 8.043 1.623A20.1 20.1 0 0 0 88 75.31C88 64.094 78.822 55 67.5 55"/><path stroke="#000" stroke-linecap="round" stroke-linejoin="round" stroke-width="10" d="M132 139v7.084c0 1.841.845 3.581 2.293 4.718L160 171m11-71c0 35-61 43-61 43m61-43s-19 15-42 15-37-8-37-8m79-7-27-2s25-14.48 27-43m-85 48c2 3 6 4 6 4m0 0c13 5 51-48 79-52m0 0s-1-13-15-13-69.67 41.35-69.67 41.35M21 73c0-6 15-49 54-49h21c33 0 41 25 41 25"/></svg>