<svg xmlns="http://www.w3.org/2000/svg" width="192" height="192" fill="none"><path stroke="#000" stroke-linecap="round" stroke-linejoin="round" stroke-width="12" d="M27 92c0 28 10 44 6 78m0 0s48-8 64-8m0 0a69.998 69.998 0 0 0 49.497-119.498 70 70 0 0 0-76.285-15.174A70 70 0 0 0 27 92"/><path stroke="#000" stroke-linecap="round" stroke-linejoin="round" stroke-width="12" d="M139.747 93.222c.544 4.04.21 8.139-.984 12.062s-3.222 7.594-5.971 10.802-6.164 5.89-10.05 7.895a36.3 36.3 0 0 1-12.598 3.788 37.2 37.2 0 0 1-13.23-.896c-4.303-1.088-8.328-2.938-11.847-5.445-3.518-2.506-6.46-5.62-8.66-9.163-2.198-3.543-3.61-7.446-4.154-11.487L106 97z"/></svg>