<svg width="192" height="192" viewBox="0 0 192 192" fill="none" xmlns="http://www.w3.org/2000/svg"><path d="M27 92c0 28 10 44 6 78m0 0s48-8 64-8m0 0a69.998 69.998 0 0 0 49.497-119.498 69.996 69.996 0 0 0-76.285-15.174A70 70 0 0 0 27 92" stroke="#000" stroke-width="12" stroke-linecap="round" stroke-linejoin="round"/><path d="M139.747 93.222c.544 4.04.21 8.139-.984 12.062-1.193 3.923-3.222 7.594-5.971 10.802-2.749 3.207-6.164 5.89-10.05 7.895a36.308 36.308 0 0 1-12.598 3.788 37.204 37.204 0 0 1-13.23-.896c-4.303-1.088-8.328-2.938-11.847-5.445-3.518-2.506-6.46-5.62-8.66-9.163-2.198-3.543-3.61-7.446-4.154-11.487L106 97l33.747-3.778Z" stroke="#000" stroke-width="12" stroke-linecap="round" stroke-linejoin="round"/></svg>