<svg xmlns="http://www.w3.org/2000/svg" width="192" height="192" fill="none"><path stroke="#000" stroke-linejoin="round" stroke-width="12" d="M156 30H36c-3.74 0-6 2.26-6 6v120c0 3.74 2.26 6 6 6h48l6.784-35.311h-9.732c-.346 0-35.009-1.636-35.009-1.636l26.015-2.219L77 120.349l-13.425-1.934 12.773-1.072-.841-3.048-20.871-3.17s22.676-2.531 23.022-2.531h16.465L95.8 99.56c1.961-10.968 6.414-19.052 13.391-25.066 7.011-6.054 15.91-9.04 26.722-9.04 4.364 0 7.147 1.025 8.355 3.142.801 1.263 1.364 3.502 1.894 5.83.502 2.39.95 4.555.644 6.13-.387 2.341-3.129 3.156-8.124 3.156h-1.717c-9.007 0-14.484 5.178-16.324 15.678l-1.649 9.197h10.452c3.896 0 5.301 2.729 4.222 8.864-1.154 6.387-3.658 9.231-7.541 9.231h-10.438L108 162h48c3.74 0 6-2.26 6-6V36c0-3.746-2.254-5.996-6-6z"/></svg>