<svg xmlns="http://www.w3.org/2000/svg" width="192" height="192" fill="none" viewBox="0 0 192 192"><path stroke="#000" stroke-linecap="round" stroke-linejoin="round" stroke-width="12" d="M98.252 26c34.119 0 43.15-4 56.195-4s21.074 32 11.039 35-19.066-31-67.234-31m0 0c-34.12 0-70.245-8-70.245 0 0 4 18.063 6 18.063 26v82c0 26-20.07 24-20.07 30s16.056 6 42.147 6 40.14-1 40.14-7-22.077 2-22.077-29v-10.777C86.21 104 122.336 96 125.346 124c6.786 0 10.83-14.767 10.802-29 .028-14.233-4.016-29-10.802-29-3.01 28-40.14 19-39.136-1.223C88.217 24 98.252 26 98.252 26"/></svg>