<svg width="192" height="192" viewBox="0 0 192 192" fill="none" xmlns="http://www.w3.org/2000/svg"><path d="M69 142H28a6 6 0 0 1-6-6V36a6 6 0 0 1 6-6h114a6 6 0 0 1 6 6v39" stroke="#000" stroke-width="12" stroke-linecap="round" stroke-linejoin="round"/><path d="M22 53h126M70 99h100" stroke="#000" stroke-width="10" stroke-linecap="round" stroke-linejoin="round"/><path d="M70 82a6 6 0 0 1 6-6h88a6 6 0 0 1 6 6v74a6 6 0 0 1-6 6H76a6 6 0 0 1-6-6V82Z" stroke="#000" stroke-width="12" stroke-linecap="round" stroke-linejoin="round"/></svg>