<svg xmlns="http://www.w3.org/2000/svg" width="192" height="192" fill="none"><path stroke="#000" stroke-linecap="round" stroke-linejoin="round" stroke-width="12" d="M69 142H28a6 6 0 0 1-6-6V36a6 6 0 0 1 6-6h114a6 6 0 0 1 6 6v39"/><path stroke="#000" stroke-linecap="round" stroke-linejoin="round" stroke-width="10" d="M22 53h126M70 99h100"/><path stroke="#000" stroke-linecap="round" stroke-linejoin="round" stroke-width="12" d="M70 82a6 6 0 0 1 6-6h88a6 6 0 0 1 6 6v74a6 6 0 0 1-6 6H76a6 6 0 0 1-6-6z"/></svg>