<svg xmlns="http://www.w3.org/2000/svg" width="192" height="192" fill="none" viewBox="0 0 192 192"><path stroke="#000" stroke-linecap="round" stroke-linejoin="round" stroke-width="12" d="M96 48v10M47 84l10 4m88-4-10 4m-26 31 17 23m-54-8-6 8"/><circle cx="96" cy="101" r="20" stroke="#000" stroke-linecap="round" stroke-linejoin="round" stroke-width="12"/><path stroke="#000" stroke-linecap="round" stroke-linejoin="round" stroke-width="12" d="m95.923 150.568.077.202m0 0a30.01 30.01 0 0 1-56.077-.202 30.004 30.004 0 0 1 10.16-34.629A30 30 0 0 1 24.284 74.52a30 30 0 0 1 42.825-14.437 30 30 0 1 1 57.782 0 30 30 0 1 1 17.027 55.856 29.998 29.998 0 0 1-34.585 49.005A30 30 0 0 1 96 150.77"/></svg>