<svg xmlns="http://www.w3.org/2000/svg" width="192" height="192" fill="none"><path stroke="#000" stroke-linejoin="round" stroke-width="12" d="M30.492 51.021v81.856l38.746 21.715m34.052-130.99L62.547 46.318v76.852m32.954-19.713v-44.03l39.244-20.914M167 56.225 127.555 78.24v36.024l-34.946 19.315m-3.899 34.522 71.4-39.627V88.247"/><path stroke="#000" stroke-width="12" d="M160.409 101.653a5.6 5.6 0 0 0 5.592-5.604 5.6 5.6 0 0 0-5.592-5.604 5.6 5.6 0 0 0-5.592 5.604 5.6 5.6 0 0 0 5.592 5.604ZM30.592 65.73a5.6 5.6 0 0 0 5.592-5.604 5.6 5.6 0 0 0-5.592-5.604A5.6 5.6 0 0 0 25 60.126a5.6 5.6 0 0 0 5.592 5.604ZM95.5 33.208a5.6 5.6 0 0 0 5.593-5.604A5.6 5.6 0 0 0 95.501 22a5.6 5.6 0 0 0-5.592 5.604 5.6 5.6 0 0 0 5.592 5.604Zm32.355 14.31a5.6 5.6 0 0 0 5.592-5.604 5.6 5.6 0 0 0-5.592-5.604 5.6 5.6 0 0 0-5.592 5.604 5.6 5.6 0 0 0 5.592 5.604Zm32.554 18.212a5.6 5.6 0 0 0 5.592-5.604 5.6 5.6 0 0 0-5.592-5.604 5.6 5.6 0 0 0-5.592 5.604 5.6 5.6 0 0 0 5.592 5.604ZM95.5 101.653a5.6 5.6 0 0 0 5.593-5.604 5.6 5.6 0 0 0-5.592-5.604 5.6 5.6 0 0 0-5.592 5.604 5.6 5.6 0 0 0 5.592 5.604Zm0 68.347a5.6 5.6 0 0 0 5.593-5.604 5.6 5.6 0 0 0-5.592-5.604 5.6 5.6 0 0 0-5.592 5.604A5.6 5.6 0 0 0 95.5 170Zm0-33.221a5.6 5.6 0 0 0 5.593-5.604 5.6 5.6 0 0 0-5.592-5.604 5.6 5.6 0 0 0-5.592 5.604 5.6 5.6 0 0 0 5.592 5.604Zm-32.653 19.114a5.6 5.6 0 0 0 5.592-5.604 5.6 5.6 0 0 0-5.592-5.604 5.6 5.6 0 0 0-5.592 5.604 5.6 5.6 0 0 0 5.592 5.604Zm0-36.326a5.6 5.6 0 0 0 5.592-5.604 5.597 5.597 0 0 0-5.592-5.603 5.597 5.597 0 0 0-5.592 5.603 5.6 5.6 0 0 0 5.592 5.604Z"/></svg>