<svg width="192" height="192" viewBox="0 0 192 192" fill="none" xmlns="http://www.w3.org/2000/svg"><path d="M29 29v128a6 6 0 0 0 6 6h28m0-34V35a6 6 0 0 1 6-6h60" stroke="#000" stroke-width="10" stroke-linecap="round" stroke-linejoin="round"/><path d="M97 95V69a6 6 0 0 1 6-6h26m34 66v28a6 6 0 0 1-6 6H97m66-134v61a6 6 0 0 1-6 6h-21a6 6 0 0 0-6 6v21a6 6 0 0 1-6 6H97" stroke="#000" stroke-width="10" stroke-linecap="round" stroke-linejoin="round"/><circle cx="29" cy="29" r="5" stroke="#000" stroke-width="10" stroke-linecap="round" stroke-linejoin="round"/><circle cx="63" cy="163" r="5" stroke="#000" stroke-width="10" stroke-linecap="round" stroke-linejoin="round"/><circle cx="63" cy="129" r="5" stroke="#000" stroke-width="10" stroke-linecap="round" stroke-linejoin="round"/><circle cx="97" cy="129" r="5" stroke="#000" stroke-width="10" stroke-linecap="round" stroke-linejoin="round"/><circle cx="97" cy="95" r="5" stroke="#000" stroke-width="10" stroke-linecap="round" stroke-linejoin="round"/><circle cx="97" cy="163" r="5" stroke="#000" stroke-width="10" stroke-linecap="round" stroke-linejoin="round"/><circle cx="163" cy="129" r="5" stroke="#000" stroke-width="10" stroke-linecap="round" stroke-linejoin="round"/><circle cx="163" cy="29" r="5" stroke="#000" stroke-width="10" stroke-linecap="round" stroke-linejoin="round"/><circle cx="129" cy="29" r="5" stroke="#000" stroke-width="10" stroke-linecap="round" stroke-linejoin="round"/><circle cx="129" cy="63" r="5" stroke="#000" stroke-width="10" stroke-linecap="round" stroke-linejoin="round"/></svg>