<svg xmlns="http://www.w3.org/2000/svg" width="192" height="192" fill="none" viewBox="0 0 192 192"><path stroke="#000" stroke-linejoin="round" stroke-width="14" d="M95.004 23C85.985 39 77.856 51.3 72.16 59.498 61.172 75.28 53.29 84.474 49.284 100.553A78 78 0 0 0 47 118.801c0 3.177.722 24.306 18.296 38.777a51.3 51.3 0 0 0 32.013 11.413c3.857.079 18.988-.089 32.023-11.403a45 45 0 0 0 11.739-16.02 49 49 0 0 0 1.908-33.154 93 93 0 0 0-4.46-12.419c-7.13-16.01-15.527-22.687-25.159-36.497A145.6 145.6 0 0 1 95.004 23Z"/></svg>