<svg width="192" height="192" viewBox="0 0 192 192" fill="none" xmlns="http://www.w3.org/2000/svg"><path d="M102 96a6 6 0 0 0-6-6H28a6 6 0 0 0-6 6v68a6 6 0 0 0 6 6h67.999a6 6 0 0 0 6-6L102 96Z" stroke="#000" stroke-width="12" stroke-linecap="round" stroke-linejoin="round"/><path d="M34 89V62a6 6 0 0 1 6-6h90a6 6 0 0 1 6 6v90a6 6 0 0 1-6 6h-28" stroke="#000" stroke-width="12" stroke-linecap="round" stroke-linejoin="round"/><path d="M75 111H57a6 6 0 0 0-6 6v34m.001-20H73M44 53.5V28a6 6 0 0 1 6-6h114a6 6 0 0 1 6 6v114a6 6 0 0 1-6 6h-25.5" stroke="#000" stroke-width="12" stroke-linecap="round" stroke-linejoin="round"/></svg>