<svg xmlns="http://www.w3.org/2000/svg" width="192" height="192" fill="none" viewBox="0 0 192 192"><rect width="80" height="80" x="25" y="87" stroke="#000" stroke-linecap="round" stroke-linejoin="round" stroke-width="12" rx="6"/><path stroke="#000" stroke-linecap="round" stroke-linejoin="round" stroke-width="12" d="M37 87V62a6 6 0 0 1 6-6h87a6 6 0 0 1 6 6v87a6 6 0 0 1-6 6h-25"/><path stroke="#000" stroke-linecap="round" stroke-linejoin="round" stroke-width="12" d="M78 108H60a6 6 0 0 0-6 6v34m.001-20H76M49 56V31a6 6 0 0 1 6-6h106a6 6 0 0 1 6 6v106a6 6 0 0 1-6 6h-25"/></svg>