<?xml version="1.0" encoding="utf-8"?>
<!-- Generator: Adobe Illustrator 25.4.1, SVG Export Plug-In . SVG Version: 6.00 Build 0)  -->
<svg version="1.1" id="Layer_1" xmlns="http://www.w3.org/2000/svg" xmlns:xlink="http://www.w3.org/1999/xlink" x="0px" y="0px"
	 width="192px" height="192px" viewBox="0 0 192 192" style="enable-background:new 0 0 192 192;" xml:space="preserve">
<style type="text/css">
	.st0{fill:none;stroke:#000000;stroke-width:12;stroke-linecap:round;stroke-linejoin:round;stroke-miterlimit:10;}
</style>
<path class="st0" d="M147.6,58.7v14.8c0,6.1-4.9,11-11,11H55.4c-6.1,0-11-4.9-11-11V58.7C44.4,38.4,60.8,22,81.1,22H111
	C131.2,22,147.6,38.4,147.6,58.7z M147.6,111.9H74.3c-9.6,0-19,4.2-24.5,12.1c-3.3,4.8-5.3,10.5-5.4,16.6c-0.1,7.1,2.4,13.7,6.7,19
	c5.6,6.8,14.2,10.4,23,10.4h73.5"/>
</svg>
