<svg xmlns="http://www.w3.org/2000/svg" width="192" height="192" fill="none"><path stroke="#000" stroke-linecap="round" stroke-linejoin="round" stroke-width="12" d="M22 65c0-6.627 5.373-12 12-12h124c6.627 0 12 5.373 12 12v62c0 6.627-5.373 12-12 12H34c-6.627 0-12-5.373-12-12z"/><path stroke="#000" stroke-linecap="round" stroke-linejoin="round" stroke-miterlimit="6" stroke-width="10" d="M101 84v13.267m0 0 12-4.1m-12 4.1L108.416 108M101 97.267 93.584 108M101 97.267l-12-4.1"/><path stroke="#000" stroke-linecap="round" stroke-linejoin="round" stroke-width="12" d="M125 165h20M125 27h20m-10.002 0v138"/><path stroke="#000" stroke-linecap="round" stroke-linejoin="round" stroke-width="10" d="M58.416 99.355 73 119M58.416 99.355c14.168-3.27 13.332-24.172 0-26.355H46.175L46 118.998m12.416-19.643-12.337.062"/></svg>