<svg width="192" height="192" viewBox="0 0 192 192" fill="none" xmlns="http://www.w3.org/2000/svg"><path style="fill:none;stroke:#000;stroke-width:12;stroke-linecap:round;stroke-linejoin:miter;stroke-miterlimit:4;stroke-dasharray:none;stroke-opacity:1" d="m43.5 66.242 105-40v0m-37.283 111.39h39.8M111.217 116h39.8m-39.8-21.633h39.8M90.217 116A24.617 24.828 0 0 1 65.6 140.828 24.617 24.828 0 0 1 40.983 116 24.617 24.828 0 0 1 65.6 91.172 24.617 24.828 0 0 1 90.217 116ZM40.659 66.242h110.682A18.618 18.618 0 0 1 170 84.902v62.196a18.618 18.618 0 0 1-18.66 18.66H40.66A18.618 18.618 0 0 1 22 147.098V84.902a18.618 18.618 0 0 1 18.66-18.66z"/></svg>