<svg width="192" height="192" fill="none" xmlns="http://www.w3.org/2000/svg"><path d="M137.146 160 81.972 77.666c-2.382-3.555-7.632-3.555-10.015 0l-48.936 73.026c-2.666 3.979.2 9.308 5.007 9.308h109.118Zm0 0h26.826c4.815 0 7.68-5.347 4.996-9.324l-35.853-53.122c-2.384-3.533-7.608-3.533-9.992 0l-13.56 20.091M133.8 41.8C128.05 47.55 120 51 120 51s8.05 3.45 13.8 9.2C139.55 65.95 143 74 143 74s3.45-8.05 9.2-13.8C157.95 54.45 166 51 166 51s-8.05-3.45-13.8-9.2C146.45 36.05 143 28 143 28s-3.45 8.05-9.2 13.8Z" stroke="#000" stroke-width="12" stroke-linecap="round" stroke-linejoin="round"/></svg>