<svg width="192" height="192" fill="none" xmlns="http://www.w3.org/2000/svg"><path d="M149.966 43.412c-4.418 7.653-12.265 11.394-17.526 8.356-5.261-3.037-5.944-11.703-1.526-19.356 4.418-7.653 12.265-11.394 17.526-8.356 5.261 3.037 5.945 11.703 1.526 19.356Z" stroke="#000" stroke-width="10" stroke-linecap="round" stroke-linejoin="round"/><path d="M156.102 50.271c-8.536-2.287-16.73.616-18.302 6.484-1.572 5.868 4.072 12.48 12.608 14.767 8.535 2.287 16.729-.616 18.302-6.484 1.572-5.868-4.073-12.48-12.608-14.767Z" stroke="#000" stroke-width="10" stroke-linecap="round" stroke-linejoin="round"/><path d="M170 170c0-16 0-84-68-85.98M22 170s0-40 19.84-62M119 67s-9 5-9 17.02M32 24c0 18 14 32 14 32S32 70 32 88h50c0-18-14-32-14-32s14-14 14-32c0 0-7-2-25-2s-25 2-25 2Z" stroke="#000" stroke-width="12" stroke-linecap="round" stroke-linejoin="round"/><path d="M68.932 116.518c-.572 2.133-1.9 3.632-2.967 3.346-1.067-.286-1.469-2.248-.897-4.382.572-2.134 1.9-3.632 2.967-3.346 1.067.286 1.469 2.248.897 4.382Zm52.328 0c.572 2.133 1.901 3.632 2.967 3.346 1.067-.286 1.469-2.248.897-4.382-.572-2.134-1.9-3.632-2.967-3.346-1.067.286-1.468 2.248-.897 4.382Z" stroke="#000" stroke-width="8" stroke-linecap="round" stroke-linejoin="round"/><path d="M109.266 132a25.932 25.932 0 0 1-.605 7.715c-.583 2.473-1.531 4.749-2.791 6.699-1.26 1.95-2.807 3.535-4.552 4.665-1.746 1.129-3.655 1.781-5.62 1.919-1.965.137-3.947-.243-5.833-1.119-1.885-.875-3.638-2.23-5.157-3.985-1.519-1.756-2.775-3.878-3.696-6.246a25.896 25.896 0 0 1-1.673-7.555L109.266 132Z" stroke="#000" stroke-width="10" stroke-linecap="round" stroke-linejoin="round"/></svg>