<svg xmlns="http://www.w3.org/2000/svg" width="192" height="192" fill="none"><path stroke="#000" stroke-linecap="round" stroke-linejoin="round" stroke-width="12" d="M69.243 26.757A6 6 0 0 1 73.485 25H161a6 6 0 0 1 6 6v87.515a6 6 0 0 1-1.757 4.242l-42.486 42.486a6 6 0 0 1-4.242 1.757H31a6 6 0 0 1-6-6V73.485a6 6 0 0 1 1.757-4.242z"/><path stroke="#000" stroke-linecap="round" stroke-linejoin="round" stroke-width="10" d="m73 27 46 46m-92 0 46 46m46-46 46-46M27 165l46-46m46 0 47-47m-22 71H50m116-24h-47M73 73H26m93 0v46H73V73h45"/></svg>