<svg width="192" height="192" viewBox="0 0 192 192" fill="none" xmlns="http://www.w3.org/2000/svg"><path d="M37 80h59M37 21h118M37 53h118M37 112h59M53 37a16.001 16.001 0 0 1-27.314 11.314A16 16 0 1 1 53 37h0Zm0 59a16.001 16.001 0 1 1-32.002 0A16.001 16.001 0 0 1 53 96h0Zm0 59a16.001 16.001 0 0 1-27.314 11.314A16.007 16.007 0 0 1 21 155a16.001 16.001 0 0 1 27.314-11.314A16.007 16.007 0 0 1 53 155h0ZM171 37a16.001 16.001 0 0 1-27.314 11.314A16.01 16.01 0 0 1 139 37a16.001 16.001 0 0 1 32 0h0Zm0 59a16.001 16.001 0 0 1-32 0 16.001 16.001 0 0 1 32 0h0Zm0 59a16.002 16.002 0 0 1-27.314 11.314A16.016 16.016 0 0 1 139 155a16.002 16.002 0 0 1 27.314-11.314A16.016 16.016 0 0 1 171 155h0Z" stroke="#000" stroke-width="10" stroke-linecap="round" stroke-linejoin="round"/><circle cx="96" cy="37" r="16" stroke="#000" stroke-width="10" stroke-linecap="round" stroke-linejoin="round"/><circle cx="96" cy="96" r="16" stroke="#000" stroke-width="10" stroke-linecap="round" stroke-linejoin="round"/><circle cx="96" cy="155" r="16" stroke="#000" stroke-width="10" stroke-linecap="round" stroke-linejoin="round"/></svg>