<svg width="192" height="192" viewBox="0 0 192 192" fill="none" xmlns="http://www.w3.org/2000/svg"><path d="M22 136v12a6 6 0 0 0 6 6h136a6 6 0 0 0 6-6v-12" stroke="#000" stroke-width="12" stroke-linecap="round" stroke-linejoin="round"/><path d="M92 132H52" stroke="#000" stroke-width="10" stroke-linecap="round" stroke-linejoin="round"/><path d="M142 108H50m72 28v18m-72-46a28.002 28.002 0 0 0-28 28m100 0a28.001 28.001 0 0 0-28-28m76 28a28.001 28.001 0 0 0-28-28" stroke="#000" stroke-width="12" stroke-linecap="round" stroke-linejoin="round"/><circle cx="72" cy="55" r="21" stroke="#000" stroke-width="12" stroke-linecap="round" stroke-linejoin="round"/><circle cx="131" cy="70" r="14" stroke="#000" stroke-width="12" stroke-linecap="round" stroke-linejoin="round"/></svg>