<svg xmlns="http://www.w3.org/2000/svg" width="192" height="192" fill="none" viewBox="0 0 192 192"><path stroke="#000" stroke-linecap="round" stroke-linejoin="round" stroke-width="12" d="M22 136v12a6 6 0 0 0 6 6h136a6 6 0 0 0 6-6v-12"/><path stroke="#000" stroke-linecap="round" stroke-linejoin="round" stroke-width="10" d="M92 132H52"/><path stroke="#000" stroke-linecap="round" stroke-linejoin="round" stroke-width="12" d="M142 108H50m72 28v18m-72-46a28 28 0 0 0-28 28m100 0a28 28 0 0 0-28-28m76 28a28 28 0 0 0-28-28"/><circle cx="72" cy="55" r="21" stroke="#000" stroke-linecap="round" stroke-linejoin="round" stroke-width="12"/><circle cx="131" cy="70" r="14" stroke="#000" stroke-linecap="round" stroke-linejoin="round" stroke-width="12"/></svg>