<svg width="192" height="192" fill="none" xmlns="http://www.w3.org/2000/svg"><circle cx="85" cy="153" r="17" stroke="#000" stroke-width="12" stroke-linecap="round" stroke-linejoin="round"/><path d="M153 56a17.006 17.006 0 0 0 12.021-4.98 17.003 17.003 0 0 0 0-24.04A17.01 17.01 0 0 0 153 22m-52 91a17.012 17.012 0 0 0 12.021-4.979A17.013 17.013 0 0 0 118 96a17.006 17.006 0 0 0-10.494-15.706A17.006 17.006 0 0 0 101 79M57 22a17 17 0 1 0 0 34M39 79a17 17 0 1 0 0 34m18-91h96M39 79h62M57 56h96M39 113h62" stroke="#000" stroke-width="12" stroke-linecap="round" stroke-linejoin="round"/></svg>