<svg xmlns="http://www.w3.org/2000/svg" width="192" height="192" fill="none"><circle cx="85" cy="153" r="17" stroke="#000" stroke-linecap="round" stroke-linejoin="round" stroke-width="12"/><path stroke="#000" stroke-linecap="round" stroke-linejoin="round" stroke-width="12" d="M153 56a17 17 0 0 0 12.021-4.98 17.003 17.003 0 0 0 0-24.04A17 17 0 0 0 153 22m-52 91a17 17 0 0 0 12.021-4.979A17 17 0 0 0 118 96a17.01 17.01 0 0 0-10.494-15.706A17 17 0 0 0 101 79M57 22a17 17 0 1 0 0 34M39 79a17 17 0 1 0 0 34m18-91h96M39 79h62M57 56h96M39 113h62"/></svg>