<svg xmlns="http://www.w3.org/2000/svg" width="192" height="192" fill="none"><path stroke="#000" stroke-linecap="round" stroke-linejoin="round" stroke-width="8" d="m111.348 56.016-.012.016m0 0c.738.11 1.405.506 1.856 1.102.957 1.265.908 3.351.642 5.056-.244 1.56-.668 2.8-.668 2.8s-5.757.281-7.59-2.14a2.84 2.84 0 0 1-.549-2.101 2.82 2.82 0 0 1 1.098-1.866 2.84 2.84 0 0 1 2.005-.55 2.8 2.8 0 0 1 1.083-1.767c.6-.45 1.357-.644 2.103-.537zm28.316-13.016.012.016m0 0a2.86 2.86 0 0 0-1.856 1.102c-.957 1.265-.908 3.351-.642 5.056.244 1.56.668 2.8.668 2.8s5.757.281 7.59-2.14a2.84 2.84 0 0 0 .549-2.101 2.82 2.82 0 0 0-1.098-1.866 2.84 2.84 0 0 0-2.005-.55 2.8 2.8 0 0 0-1.083-1.767 2.84 2.84 0 0 0-2.103-.537l-.02.002Z"/><path stroke="#000" stroke-linecap="round" stroke-linejoin="round" stroke-width="10" d="M171 102a22 22 0 0 0-6.444-15.556A22 22 0 0 0 149 80m0 0c-7.485 0-14.76 1.598-20.698 4.546s-10.206 7.082-12.143 11.76"/><path stroke="#000" stroke-linecap="round" stroke-linejoin="round" stroke-width="10" d="M151 102a22 22 0 0 0-12.633-19.906M151 102v38h20v-38"/><path stroke="#000" stroke-linecap="round" stroke-linejoin="round" stroke-width="8" d="M132 112v28"/><path stroke="#000" stroke-linecap="round" stroke-linejoin="round" stroke-width="10" d="M151 129s-3 11-19 11c-6 0-17 0-17-14 0-18 27-13 36-20M21 140l29.219-75.625m0 0L76 140h22L68 52H55zM33 110h32"/></svg>