<svg width="192" height="192" viewBox="0 0 192 192" fill="none" xmlns="http://www.w3.org/2000/svg"><path d="M50 96v-2a6 6 0 0 1 6-6h10m68-2h6m2 10v4a6 6 0 0 1-6 6h-2m-82 0h12m78-10a45.999 45.999 0 0 0-81.444-29.322" stroke="#000" stroke-width="10" stroke-linecap="round" stroke-linejoin="round"/><path d="M133 86a10.002 10.002 0 0 0-9.239 13.827A10.006 10.006 0 0 0 133 106M50 96a46 46 0 0 0 81.444 29.322" stroke="#000" stroke-width="10" stroke-linecap="round" stroke-linejoin="round"/><circle cx="96" cy="96" r="74" stroke="#000" stroke-width="12" stroke-linecap="round" stroke-linejoin="round"/></svg>