<?xml version="1.0" encoding="UTF-8"?>
<svg id="Layer_1" data-name="Layer 1" xmlns="http://www.w3.org/2000/svg" width="192" height="192" viewBox="0 0 192 192">
  <path d="m100.109,117.688c7.483-.003,14.358-.007,17.083-.009.489.043.983.023,1.465.141,2.452.597,4.941.962,7.341,1.924,2.373.952,4.81,2.123,6.018,6.269v3.581c-.619,2.476-1.895,3.745-3.29,4.742-3.516,2.514-7.249,3.502-11.032,3.532-14.135.111-28.271.052-42.407.041-3.307-.002-6.577-.623-9.737-2.248-2.172-1.116-4.415-2.214-5.498-6.067,0-1.232,0-2.465,0-3.697.155-.465.276-.972.47-1.387,1.011-2.161,2.469-3.176,3.967-4.046,3.336-1.937,6.802-2.609,10.316-2.785.246.005.491.015.737.015,3.095.001,10.448,0,18.209-.003" fill="none" stroke="#000" stroke-linejoin="round" stroke-width="8"/>
  <path d="m60.052,129.594c1.083,3.853,3.326,4.951,5.498,6.067,3.16,1.624,6.43,2.245,9.737,2.248,14.136.011,28.271.07,42.407-.041,3.783-.03,7.517-1.018,11.032-3.532,1.395-.997,2.671-2.266,3.29-4.742v3.928c-.042.414-.085.828-.126,1.243-.952,9.516-4.064,16.437-9.388,20.44-1.587,1.193-3.396,1.586-5.104,2.346h-42.729c-.252-.069-.504-.14-.756-.208-5.788-1.566-9.999-6.681-12.434-15.432-.726-2.608-.965-5.583-1.427-8.389,0-1.309,0-2.619,0-3.928Z" fill="none" stroke="#000" stroke-linejoin="round" stroke-width="8"/>
  <path d="m88.35,86.799,5.235,5.145,2.412,15.775-.631,21.352M56.338,52.474c5.088,3.451,11.679,7.066,17.198,11.905,5.526,4.846,9.979,10.914,14.017,15.45-2.681-11.345-16.894-24.939-31.215-27.355Zm46.187,34.144c7.592-9.774,18.148-13.293,29.989-15.161-11.014-3.109-28.753,5.916-29.989,15.161Z" fill="none" stroke="#000" stroke-linecap="round" stroke-linejoin="round" stroke-width="8"/>
  <path d="m95.366,129.071c-2.043.388-2.487-.323-2.265-2.422.651-6.162.997-12.356,1.462-18.538-.004-.098-.009-.196-.013-.294-.59-5.177-.832-10.43-1.939-15.494-.449-2.054-4.261-5.524-4.261-5.524-4.636-.088-9.277-.06-13.906-.287-10.202-.501-20.096-2.185-28.565-8.506-5.57-4.158-9.269-9.866-12.842-15.69-3.354-5.466-6.857-10.84-10.295-16.254-3.072-4.206-6.994-7.355-11.743-9.666,23.223-3.644,45.764-3.333,65.917,11.245,10.015,7.765,13.367,18.495,13.449,30.595.018,2.678.461,4.84,2.267,7.048,1.781,2.177,2.697,5.06,4,7.629.245.483.521.95.783,1.424.085.864.17,1.728.255,2.592.159.003.318.007.477.01.359-2.771.719-5.542,1.078-8.313.922-3.718,1.552-7.539,2.82-11.134,4.437-12.575,12.129-18.122,25.468-18.722,2.252,0,4.504,0,6.757,0,6.202.14,12.432.706,18.598.298,6.142-.407,11.475-3.532,16.536-6.936.375-.253.768-.48,1.596-.994-.491,2.067-.798,3.697-1.267,5.279-3.91,13.212-10.613,24.583-22.602,31.957-11.549,7.103-23.726,7.803-36.197,2.2-1.74-.782-3.651-1.237-5.525-1.652-2.135-.474-3.635.772-3.948,2.645-.898,5.371-1.482,10.795-2.19,16.198-.008.132-.017.264-.025.395.344,4.56.689,9.121,1.033,13.681-.012,2.411-.023,4.822-.034,7.233-1.626,0-3.253-.002-4.879-.002" fill="none" stroke="#000" stroke-linecap="round" stroke-linejoin="round" stroke-width="8"/>
  <path d="m56.338,52.474c14.321,2.416,28.534,16.01,31.215,27.355-4.038-4.537-8.491-10.605-14.017-15.45-5.518-4.839-12.11-8.454-17.198-11.905Z" fill="none" stroke="#000" stroke-linejoin="round" stroke-width="8"/>
  <path d="m102.526,86.618c1.236-9.245,18.975-18.269,29.989-15.161-11.841,1.867-22.397,5.387-29.989,15.161Z" fill="none" stroke="#000" stroke-linejoin="round" stroke-width="8"/>
</svg>