<?xml version="1.0" encoding="UTF-8" standalone="no"?>
<svg
   version="1.0"
   width="192"
   height="192"
   viewBox="0 0 144 144"
   preserveAspectRatio="xMidYMid"
   id="svg1493"
   sodipodi:docname="forecastie.svg"
   inkscape:version="1.2.2 (b0a8486541, 2022-12-01)"
   xmlns:inkscape="http://www.inkscape.org/namespaces/inkscape"
   xmlns:sodipodi="http://sodipodi.sourceforge.net/DTD/sodipodi-0.dtd"
   xmlns="http://www.w3.org/2000/svg"
   xmlns:svg="http://www.w3.org/2000/svg">
  <defs
     id="defs1497" />
  <sodipodi:namedview
     id="namedview1495"
     pagecolor="#ffffff"
     bordercolor="#000000"
     borderopacity="0.25"
     inkscape:showpageshadow="2"
     inkscape:pageopacity="0.0"
     inkscape:pagecheckerboard="0"
     inkscape:deskcolor="#d1d1d1"
     inkscape:document-units="pt"
     showgrid="false"
     inkscape:zoom="3.7382812"
     inkscape:cx="48.952978"
     inkscape:cy="63.398119"
     inkscape:window-width="1920"
     inkscape:window-height="1012"
     inkscape:window-x="0"
     inkscape:window-y="0"
     inkscape:window-maximized="1"
     inkscape:current-layer="svg1493" />
  <path
     d="m 78.909797,36.133091 c 7.531501,1.574658 13.547518,4.903937 18.645059,10.302767 3.673904,3.869162 6.061934,7.783313 7.623344,12.50729 l 1.19402,3.59922 c 0.32288,1.035419 2.17373,0.539883 3.26059,0.809824 6.01601,1.529669 10.51654,4.454035 13.73121,8.90807 3.30651,4.589006 4.13314,7.333411 4.13314,13.407097 0.0459,4.544015 -0.0918,5.48881 -1.14809,7.963274 -3.12282,7.288417 -8.72552,12.147367 -16.30295,14.081947 -3.35244,0.85481 -5.00569,0.8998 -35.912397,0.8998 -30.309701,0 -32.651815,-0.045 -35.958327,-0.85481 -10.241006,-2.47446 -17.405117,-8.998048 -20.849401,-18.940894 -0.642933,-1.88959 -0.826628,-3.734191 -0.826628,-8.098247 0.04592,-4.993918 0.183695,-5.983703 1.239942,-8.728109 1.836952,-4.544015 4.087217,-7.918284 7.347807,-10.88764 3.444284,-3.194308 7.118187,-5.173879 12.169804,-6.613567 3.673903,-1.034776 3.811674,-1.079766 5.648626,-3.734191 5.419007,-7.648343 12.950509,-12.687251 21.905648,-14.576841 5.143464,-1.079766 9.001063,-1.079766 14.098603,-0.04499 z"
     id="path1489"
     style="fill:none;stroke:#000000;stroke-width:9.00002;stroke-dasharray:none"
     sodipodi:nodetypes="cccccccccsccccccccc" />
</svg>
