<svg xmlns="http://www.w3.org/2000/svg" width="192" height="192" fill="none" stroke="#000" stroke-linejoin="round" stroke-width="8" viewBox="0 0 192 192"><path d="m104.654 117.075 16.229-.008c.464.041.934.022 1.391.134 2.33.567 4.694.914 6.974 1.828 2.255.904 4.57 2.016 5.717 5.955v3.402c-.588 2.352-1.8 3.558-3.125 4.505-3.34 2.388-6.887 3.327-10.48 3.355-13.429.106-26.858.05-40.287.039-3.141-.002-6.248-.592-9.25-2.135-2.063-1.061-4.194-2.104-5.223-5.764v-3.512c.147-.442.262-.924.447-1.318.96-2.053 2.345-3.017 3.768-3.843 3.17-1.841 6.462-2.479 9.8-2.646.234.005.467.014.7.014 2.94.001 9.926 0 17.299-.003"/><path d="M66.6 128.386c1.029 3.66 3.16 4.703 5.223 5.764 3.002 1.542 6.109 2.132 9.25 2.135 13.43.011 26.858.067 40.287-.039 3.593-.028 7.141-.967 10.48-3.355 1.325-.947 2.537-2.153 3.125-4.505v3.732l-.119 1.18c-.905 9.04-3.861 15.615-8.919 19.418-1.507 1.134-3.226 1.507-4.849 2.229H80.486l-.718-.198c-5.499-1.487-9.499-6.347-11.812-14.66-.69-2.478-.917-5.304-1.356-7.969z"/><path stroke-linecap="round" d="m93.483 87.731 4.973 4.888 2.292 14.986-.6 20.284M63.072 55.122c4.833 3.279 11.095 6.713 16.338 11.31 5.25 4.604 9.48 10.368 13.316 14.677-2.547-10.777-16.05-23.691-29.654-25.987m43.877 32.437c7.213-9.285 17.241-12.628 28.49-14.403-10.464-2.953-27.316 5.62-28.49 14.403"/><path d="M100.148 127.889c-1.94.369-2.362-.307-2.152-2.301.619-5.854.948-11.738 1.39-17.611l-.013-.279c-.56-4.918-.79-9.908-1.842-14.72-.427-1.95-4.048-5.247-4.048-5.247-4.404-.084-8.813-.057-13.21-.273-9.692-.476-19.092-2.075-27.137-8.08-5.292-3.95-8.806-9.373-12.2-14.906-3.186-5.192-6.514-10.298-9.78-15.441-2.919-3.996-6.644-6.987-11.156-9.183 22.062-3.461 43.475-3.166 62.62 10.683 9.515 7.377 12.7 17.57 12.777 29.065.017 2.544.438 4.598 2.154 6.696 1.692 2.068 2.562 4.807 3.8 7.247.233.46.495.903.744 1.353l.242 2.462.453.01 1.024-7.897c.876-3.532 1.475-7.162 2.679-10.578 4.215-11.946 11.523-17.215 24.195-17.785h6.419c5.892.133 11.81.67 17.668.283 5.835-.387 10.901-3.356 15.709-6.59.356-.24.729-.455 1.516-.944-.466 1.964-.758 3.512-1.204 5.015-3.714 12.552-10.082 23.354-21.471 30.36-10.972 6.747-22.54 7.412-34.387 2.09-1.653-.744-3.469-1.176-5.249-1.57-2.028-.45-3.453.733-3.751 2.512-.853 5.103-1.408 10.256-2.08 15.389l-.024.375.981 12.997-.032 6.871-4.635-.002"/><path d="M63.072 55.122c13.605 2.296 27.107 15.21 29.654 25.987-3.836-4.31-8.067-10.074-13.316-14.677-5.242-4.597-11.505-8.031-16.338-11.31zm43.878 32.437c1.174-8.783 18.026-17.355 28.489-14.403-11.249 1.774-21.277 5.118-28.489 14.403z"/></svg>