<svg width="192" height="192" fill="none" xmlns="http://www.w3.org/2000/svg"><path d="M51 149a71.005 71.005 0 0 1 28.003-56.5m0 0a70.997 70.997 0 0 1 37.004-14.247C119.309 77.973 122 80.686 122 84v16c0 3.314-2.699 5.957-5.981 6.418a43.006 43.006 0 0 0-24.425 12.176A43.004 43.004 0 0 0 79 149v15a6 6 0 0 1-6 6H57a6 6 0 0 1-6-6V93a71 71 0 0 1 71-71h17a6 6 0 0 1 6 6v16a6 6 0 0 1-6 6h-17a42.997 42.997 0 0 0-39.727 26.545 43 43 0 0 0-3.27 15.955Z" stroke="#000" stroke-width="12" stroke-linecap="round" stroke-linejoin="round"/></svg>