<?xml version="1.0" encoding="UTF-8" standalone="no"?>
<svg
   width="192"
   height="192"
   fill="none"
   viewBox="0 0 192 192"
   version="1.1"
   id="svg1"
   sodipodi:docname="nextcloud_notes.svg"
   inkscape:version="1.4.2 (ebf0e940d0, 2025-05-08)"
   xmlns:inkscape="http://www.inkscape.org/namespaces/inkscape"
   xmlns:sodipodi="http://sodipodi.sourceforge.net/DTD/sodipodi-0.dtd"
   xmlns="http://www.w3.org/2000/svg"
   xmlns:svg="http://www.w3.org/2000/svg">
  <defs
     id="defs1">
    <inkscape:path-effect
       effect="bend_path"
       id="path-effect2"
       is_visible="true"
       lpeversion="1"
       bendpath="m -132.37374,-30.076732 c 0,0 -4.91632,24.6077942 1.1531,37.6614563 8.85505,19.0447967 31.226295,27.9305237 49.089441,16.0553957 11.55375,-7.680746 20.583235,-25.7581418 30.123323,-46.204206 6.442399,-13.807181 12.186088,-25.748587 19.67571,-31.005377 10.105932,-7.093117 21.11304,-4.98661 31.97408885,4.099347 C 8.9426528,-41.689465 12.334187,-31.345281 10.671976,-12.051139 10.376388,-8.6201043 7.5302159,2.6904744 7.5302159,2.6904744"
       prop_scale="0"
       scale_y_rel="false"
       vertical="false"
       hide_knot="false"
       bendpath-nodetypes="cssssssc" />
  </defs>
  <sodipodi:namedview
     id="namedview1"
     pagecolor="#ffffff"
     bordercolor="#000000"
     borderopacity="0.25"
     inkscape:showpageshadow="2"
     inkscape:pageopacity="0.0"
     inkscape:pagecheckerboard="0"
     inkscape:deskcolor="#d1d1d1"
     inkscape:zoom="1.9880071"
     inkscape:cx="24.647799"
     inkscape:cy="29.677962"
     inkscape:window-width="1920"
     inkscape:window-height="1011"
     inkscape:window-x="0"
     inkscape:window-y="0"
     inkscape:window-maximized="1"
     inkscape:current-layer="svg1" />
  <g
     id="g1"
     transform="matrix(0.93940867,0,0,0.93757533,3.4285917,6.6625364)"
     style="stroke-width:1.06554">
    <path
       stroke="#000000"
       stroke-linejoin="round"
       stroke-width="12.7865"
       d="m 93.054272,104.17875 c -2.135126,-2.13426 -2.135126,-5.595509 0,-7.729771 L 148.69907,40.82231 c 2.13395,-2.133307 5.59308,-2.133307 7.72702,0 l 19.32213,19.316688 c 2.13451,2.13416 2.13451,5.594701 0,7.728861 l -55.6448,55.626671 c -2.13395,2.13331 -5.59308,2.13331 -7.72703,0 z m -18.433205,10.78179 -9.320886,36.33093 36.780799,-9.85462 -27.459913,-26.47722 z"
       id="path1"
       sodipodi:nodetypes="cccccccccccccc" />
    <path
       style="fill:none;stroke:#000000;stroke-width:29.0867;stroke-linecap:round;stroke-linejoin:round;stroke-dasharray:none"
       d="m -132.34476,-30.314537 -1.7294,14.188929 c -0.24753,4.105739 -0.27507,8.2321846 0.11359,12.3269743 l 1e-5,6.8e-6 c 0.37051,3.90359513 1.08671,7.8277506 2.73992,11.3833448 l 0,6.4e-6 c 4.1657,8.9592777 11.83817,16.3668417 21.16668,19.6226697 l 1e-5,-1e-6 c 9.19154,3.20802 19.815467,1.822317 27.922751,-3.567273 6.769069,-4.499968 11.588516,-11.373081 15.816785,-18.3151087 5.437722,-8.9277251 9.886493,-18.4161723 14.306538,-27.8890973 2.955088,-6.333268 5.885424,-12.694835 9.445146,-18.709085 2.735455,-4.621626 5.834768,-9.210986 10.230564,-12.296292 l 1.3e-5,-3e-6 c 4.535229,-3.183173 10.219894,-4.809281 15.703863,-4.017476 6.075161,0.877164 11.562236,4.178304 16.27021285,8.116826 4.49406515,3.759571 7.93250355,8.782774 9.62612945,14.391929 2.2357777,7.404721 2.0678337,15.320699 1.4039237,23.027048 0,5e-6 -1e-6,9e-6 -1e-6,1.4e-5 -0.108604,1.260601 -0.366354,2.5034663 -0.614277,3.7442097 -0.327467,1.6388236 -0.6899601,3.2704693 -1.0642346,4.8992406 L 7.5861385,2.4574177"
       id="path2"
       inkscape:path-effect="#path-effect2"
       inkscape:original-d="M -132.37374,-30.076732 H -15.27686"
       transform="matrix(-0.00725057,0.45845499,0.42126674,0.01557726,43.717517,146.23591)"
       sodipodi:nodetypes="cc"
       inkscape:transform-center-x="2.8967872"
       inkscape:transform-center-y="-1.0322964" />
  </g>
</svg>
