<svg xmlns="http://www.w3.org/2000/svg" width="192" height="192" fill="none"><path stroke="#000" stroke-linecap="round" stroke-linejoin="round" stroke-miterlimit="1.5" stroke-width="12" d="M22 80v70c0 6.627 5.373 12 12 12h130a6 6 0 0 0 6-6V86a6 6 0 0 0-6-6zm0 0V53c0-8.837 7.163-16 16-16h68"/><path stroke="#000" stroke-linecap="round" stroke-linejoin="round" stroke-width="12" d="m47 58 84.995-29.564c3.606-1.254 7.451 1.135 7.925 4.923L142 50M45 80l105.509-27.077c3.795-.975 7.491 1.892 7.491 5.811V80"/></svg>