<?xml version="1.0" encoding="UTF-8" standalone="no"?>
<svg
   width="192"
   height="192"
   fill="none"
   version="1.1"
   id="svg1"
   sodipodi:docname="fossify_paint.svg"
   inkscape:version="1.4.2 (ebf0e940d0, 2025-05-08)"
   xmlns:inkscape="http://www.inkscape.org/namespaces/inkscape"
   xmlns:sodipodi="http://sodipodi.sourceforge.net/DTD/sodipodi-0.dtd"
   xmlns="http://www.w3.org/2000/svg"
   xmlns:svg="http://www.w3.org/2000/svg">
  <defs
     id="defs1">
    <inkscape:path-effect
       effect="bend_path"
       id="path-effect2"
       is_visible="true"
       lpeversion="1"
       bendpath="m -132.37374,-30.076732 c 0,0 -4.91632,24.6077942 1.1531,37.6614563 8.85505,19.0447967 31.226295,27.9305237 49.089441,16.0553957 11.55375,-7.680746 20.583235,-25.7581418 30.123323,-46.204206 6.442399,-13.807181 12.186088,-25.748587 19.67571,-31.005377 10.105932,-7.093117 21.11304,-4.98661 31.97408885,4.099347 C 8.9426528,-41.689465 12.334187,-31.345281 10.671976,-12.051139 10.376388,-8.6201043 7.5302159,2.6904744 7.5302159,2.6904744"
       prop_scale="0"
       scale_y_rel="false"
       vertical="false"
       hide_knot="false"
       bendpath-nodetypes="cssssssc" />
  </defs>
  <sodipodi:namedview
     id="namedview1"
     pagecolor="#ffffff"
     bordercolor="#000000"
     borderopacity="0.25"
     inkscape:showpageshadow="2"
     inkscape:pageopacity="0.0"
     inkscape:pagecheckerboard="0"
     inkscape:deskcolor="#d1d1d1"
     inkscape:zoom="3.949102"
     inkscape:cx="101.79529"
     inkscape:cy="85.082634"
     inkscape:window-width="1920"
     inkscape:window-height="1011"
     inkscape:window-x="0"
     inkscape:window-y="0"
     inkscape:window-maximized="1"
     inkscape:current-layer="g2" />
  <g
     id="g5"
     transform="matrix(0.94217981,0,0,0.94017468,5.2222443,-28.51543)"
     style="stroke-width:1.0625">
    <g
       id="g6"
       transform="matrix(0.9610496,0,0,0.95949948,0.68802218,5.3572297)"
       style="stroke-width:1.10645">
      <g
         id="g3"
         transform="matrix(-0.70710678,0.70975965,-0.70446383,-0.70710678,266.1322,99.196758)"
         style="stroke-width:1.10645">
        <g
           id="g4"
           transform="matrix(-0.6315639,-0.6315639,0.6315639,-0.6315639,148.32358,202.94557)"
           style="stroke-width:1.23879">
          <g
             id="g2"
             transform="translate(-0.00221129,0.49767677)">
            <g
               id="g7"
               transform="matrix(0.93324459,5.2073697e-6,-5.2073611e-6,0.9304634,-0.05238222,-3.810117)"
               style="stroke-width:1.32938">
              <path
                 style="fill:none;stroke:#000000;stroke-width:27.2976;stroke-linecap:round;stroke-linejoin:round;stroke-dasharray:none"
                 d="m -132.34476,-30.314537 -1.7294,14.188929 c -0.24753,4.105739 -0.27507,8.2321846 0.11359,12.3269743 l 1e-5,6.8e-6 c 0.37051,3.90359513 1.08671,7.8277506 2.73992,11.3833448 l 0,6.4e-6 c 4.1657,8.9592777 11.83817,16.3668417 21.16668,19.6226697 l 1e-5,-1e-6 c 9.19154,3.20802 19.815467,1.822317 27.922751,-3.567273 6.769069,-4.499968 11.588516,-11.373081 15.816785,-18.3151087 5.437722,-8.9277251 9.886493,-18.4161723 14.306538,-27.8890973 2.955088,-6.333268 5.885424,-12.694835 9.445146,-18.709085 2.735455,-4.621626 5.834768,-9.210986 10.230564,-12.296292 l 1.3e-5,-3e-6 c 4.535229,-3.183173 10.219894,-4.809281 15.703863,-4.017476 6.075161,0.877164 11.562236,4.178304 16.27021285,8.116826 4.49406515,3.759571 7.93250355,8.782774 9.62612945,14.391929 2.2357777,7.404721 2.0678337,15.320699 1.4039237,23.027048 0,5e-6 -1e-6,9e-6 -1e-6,1.4e-5 -0.108604,1.260601 -0.366354,2.5034663 -0.614277,3.7442097 -0.327467,1.6388236 -0.6899601,3.2704693 -1.0642346,4.8992406 L 7.5861385,2.4574177"
                 id="path2"
                 inkscape:path-effect="#path-effect2"
                 inkscape:original-d="M -132.37374,-30.076732 H -15.27686"
                 transform="matrix(0.14369041,-0.59265612,-0.5408457,-0.14603618,29.980517,68.651528)"
                 sodipodi:nodetypes="cc" />
              <g
                 id="g1"
                 transform="matrix(-0.73907538,-0.73688352,0.73664532,-0.73444647,165.29951,239.00067)"
                 style="stroke-width:1.27587">
                <path
                   stroke="#000000"
                   stroke-linecap="round"
                   stroke-linejoin="round"
                   stroke-width="15.3106"
                   d="m 142.7359,142.60876 c 7e-5,3.32652 -2.69662,6.02321 -6.02314,6.02314 h -27.70303 c -3.32652,8e-5 -6.02321,-2.69662 -6.02313,-6.02314 V 17.64178 c 8e-4,-1.597959 0.63585,-3.130256 1.76564,-4.260318 l 13.8494,-13.84939335 c 2.35201,-2.35279315 6.16611,-2.35310995 8.51851,-7.0711e-4 L 140.97167,13.382876 c 1.12925,1.12925 1.76352,2.66155 1.76423,4.258904 z"
                   id="path1"
                   sodipodi:nodetypes="cccccccsscc" />
                <path
                   style="fill:none;stroke:#000000;stroke-width:15.3106;stroke-linecap:square;stroke-linejoin:round"
                   d="M 104.07927,42.109711 H 142.1686"
                   id="path3" />
              </g>
            </g>
          </g>
        </g>
      </g>
    </g>
  </g>
</svg>
