<svg width="192" height="192" fill="none" xmlns="http://www.w3.org/2000/svg"><path d="M22 80v70c0 6.627 5.373 12 12 12h130a6 6 0 0 0 6-6V86a6 6 0 0 0-6-6H22Zm0 0V53c0-8.837 7.163-16 16-16h68" stroke="#000" stroke-width="12" stroke-miterlimit="1.5" stroke-linecap="round" stroke-linejoin="round"/><path d="m47 58 84.995-29.564c3.606-1.254 7.451 1.135 7.925 4.923L142 50M45 80l105.509-27.077c3.795-.975 7.491 1.892 7.491 5.811V80" stroke="#000" stroke-width="12" stroke-linecap="round" stroke-linejoin="round"/></svg>