<svg width="192" height="192" viewBox="0 0 192 192" fill="none" xmlns="http://www.w3.org/2000/svg"><rect x="79" y="85" width="40" height="36" rx="6" stroke="#000" stroke-width="10" stroke-linecap="round" stroke-linejoin="round"/><path d="M79 103h38" stroke="#000" stroke-width="8" stroke-linecap="round" stroke-linejoin="round"/><path d="M48 142a25.991 25.991 0 0 1-19.548-8.857 26 26 0 0 1 22.15-43.012A14 14 0 0 1 67.318 69.05 39.997 39.997 0 0 1 98.78 45.341a40 40 0 0 1 44.907 44.66 25.99 25.99 0 0 1 14.759 4.38A25.999 25.999 0 0 1 144 142m-96 0h96" stroke="#000" stroke-width="12" stroke-linecap="round" stroke-linejoin="round"/></svg>