<svg width="192" height="192" fill="none" xmlns="http://www.w3.org/2000/svg"><path d="M96 22c-40.317 0-73 31.94-73 71.338 0 39.399 7.627 57.497 7.627 57.497S42.612 170 96 170c53.388 0 66.463-19.165 66.463-19.165S169 132.737 169 93.338 136.317 22 96 22Z" stroke="#000" stroke-width="12"/><path d="M45 92s27 11 51 11 51-11 51-11c0 26-5 41-5 41s-22 9-46 9-46-9-46-9-5-15-5-41Z" stroke="#000" stroke-width="12" stroke-linecap="round" stroke-linejoin="round"/><path d="m76 104-9 31" stroke="#000" stroke-width="12" stroke-linecap="round"/><path d="m96 106-9 31" stroke="#000" stroke-width="10" stroke-linecap="round"/></svg>