<svg width="192" height="192" fill="none" xmlns="http://www.w3.org/2000/svg"><path d="M96 22c-40.317 0-73 31.94-73 71.338 0 39.399 7.627 57.497 7.627 57.497S42.612 170 96 170c53.388 0 66.463-19.165 66.463-19.165S169 132.737 169 93.338 136.317 22 96 22Z" stroke="#000" stroke-width="12"/><path d="m146.93 91.483 5.992-.317a6 6 0 0 0-8.487-5.14l2.495 5.457Zm-101.86 0 2.495-5.456a6 6 0 0 0-8.487 5.14l5.992.316Zm4.525 40.949-5.723 1.801a6 6 0 0 0 3.464 3.757l2.259-5.558Zm93.547-.303 2.294 5.544a5.998 5.998 0 0 0 3.508-4.013l-5.802-1.531ZM96 103v6c24.549 0 45.645-8.502 53.425-12.06l-2.495-5.457-2.495-5.456C137.302 89.289 118.042 97 96 97v6Zm51-8.87h6c0-.994-.026-1.982-.078-2.964l-5.992.317-5.991.317c.04.77.061 1.547.061 2.33h6ZM45.07 91.482l-2.495 5.457C50.355 100.498 71.45 109 96 109V97c-22.042 0-41.302-7.711-48.435-10.973l-2.495 5.456Zm0 0-5.992-.317c-.052.982-.078 1.97-.078 2.963h12c0-.782.02-1.558.062-2.329l-5.992-.317Zm4.525 40.949-2.259 5.558C57.18 141.989 75.356 148 96 148v-12c-18.481 0-35.031-5.423-44.146-9.127l-2.259 5.559ZM45 94.129h-6c0 21.834 3.224 34.871 4.872 40.104l5.723-1.801 5.723-1.802C54.044 126.583 51 114.762 51 94.13h-6ZM96 142v6c21.188 0 39.781-6.331 49.436-10.327l-2.294-5.544-2.294-5.544C131.911 130.283 114.975 136 96 136v6Zm47.142-9.871 5.802 1.531c1.419-5.378 4.056-18.242 4.056-39.53h-12c0 20.286-2.512 32.12-3.659 36.469l5.801 1.53Z" fill="#000"/><path d="m76 104-9 31" stroke="#000" stroke-width="12" stroke-linecap="round"/><path d="m96 106-9 31" stroke="#000" stroke-width="10" stroke-linecap="round"/></svg>