<svg xmlns="http://www.w3.org/2000/svg" width="192" height="192" fill="none" viewBox="0 0 192 192">
  <path stroke="#000" stroke-width="12" d="M96 22c-40.317 0-73 31.94-73 71.338 0 39.399 7.627 57.497 7.627 57.497S42.612 170 96 170c53.388 0 66.463-19.165 66.463-19.165S169 132.737 169 93.338 136.317 22 96 22Z"/>
  <path stroke="#000" stroke-linejoin="round" stroke-width="12" d="M96 102c-31.83 0-55-12-55-12s-1.7 9.71-2 16c-.484 10.172 2 26 2 26s23.17 12 55 12c31.831 0 55-12 55-12s2.485-15.828 2-26c-.299-6.29-2-16-2-16s-23.169 12-55 12Z"/>
  <path stroke="#000" stroke-width="10" d="M60 97.5 49.5 135"/>
  <path stroke="#000" stroke-width="8" d="M71 100.5 60.5 138"/>
</svg>
