<svg xmlns="http://www.w3.org/2000/svg" width="192" height="192" fill="none" stroke="#000" stroke-linecap="round" stroke-width="12" viewBox="0 0 192 192"><path d="M170 96c0-9.254-2.968-18.222-8.399-25.376-5.43-7.153-12.987-12.05-21.383-13.855-8.395-1.806-17.11-.408-24.66 3.954-7.549 4.363-13.466 11.42-16.742 19.97-3.275 8.55-3.708 18.063-1.223 26.918s7.733 16.506 14.851 21.648c7.117 5.141 15.664 7.455 24.183 6.548s16.483-4.979 22.536-11.523M50 96h120M50 136h9"/><path d="M32.837 67.716c4.303-4.652 9.6-8.084 15.422-9.994a34.33 34.33 0 0 1 17.96-.953c5.967 1.283 11.55 4.138 16.254 8.31 4.703 4.174 8.382 9.536 10.71 15.614 2.33 6.077 3.235 12.681 2.639 19.228-.597 6.546-2.677 12.832-6.058 18.302s-7.956 9.953-13.322 13.054S65.085 136 59 136"/><path d="M50 136c-7.426 0-14.548-2.107-19.799-5.858S22 121.304 22 116s2.95-10.391 8.201-14.142S42.574 96 50 96"/></svg>