<svg xmlns="http://www.w3.org/2000/svg" width="192" height="192" viewBox="0 0 192 192"><path d="M96 28a68 68 0 1 1-68 68 68.07 68.07 0 0 1 68-68m0-12a80 80 0 1 0 80 80 80 80 0 0 0-80-80"/><path d="m93.66 114.86 11.28-42.31a8.83 8.83 0 0 1 8.52-6.55A8.83 8.83 0 0 1 122 76.91l-2.87 11.78a.6.6 0 0 0 1 .58l22.67-21.51a6.39 6.39 0 0 1 8.92 9.16L140 88.68a1.66 1.66 0 0 0-.44 1.56l5.67 24a9.55 9.55 0 0 1-9.3 11.76 9.56 9.56 0 0 1-9.39-7.78l-3-15.86a.61.61 0 0 0-1-.35l-1.39 1.2a33.25 33.25 0 0 0-10 15.09l-.49 1.54a8.86 8.86 0 0 1-17-4.98m-55.04.14 10-39.92A12 12 0 0 1 60.24 66h28.3a6 6 0 0 1 0 12H66.87l-4 14h9.42a6.5 6.5 0 0 1 6.43 7.49 6.51 6.51 0 0 1-6.43 5.51H59.87l-4.17 14.59a8.84 8.84 0 0 1-8.5 6.41 8.84 8.84 0 0 1-8.58-11"/></svg>