<svg width="192" height="192" fill="none" xmlns="http://www.w3.org/2000/svg"><path d="M149 170S43 158 43 80c0-28 11-58 11-58l42.07 65.54M149 170s-53-32-53-80c0-.817.024-1.637.07-2.46M149 170l-5.833-40M96.07 87.54C97.72 58.173 128 26 128 26l5.76 39.5" stroke="#000" stroke-width="12" stroke-linecap="round" stroke-linejoin="round"/><path d="M121 89v17a6 6 0 0 0 6 6h3m-9-23v-9m0 9h15.066a6.001 6.001 0 0 1 5.503 3.608L150 112l10-23m-39 0h-6" stroke="#000" stroke-width="10" stroke-miterlimit="6" stroke-linecap="round" stroke-linejoin="round"/></svg>