<?xml version="1.0" encoding="UTF-8"?><svg id="Layer_1" xmlns="http://www.w3.org/2000/svg" width="192" height="192" viewBox="0 0 192 192"><defs><style>.cls-1,.cls-2{fill:none;}.cls-2{stroke:#000;stroke-linecap:round;stroke-linejoin:round;stroke-width:12px;}</style></defs><rect class="cls-1" width="192" height="192"/><path class="cls-2" d="M56.99,33.26s103.03-5.02,112.23,15.43c9.2,20.45-67.16,7.36-56.12,74.62,0,0,23.89-8.3,44.89-46.3,4.98-9.01-25.57,62.97-66.97,82.29,0,0-5.87-5.22-7.73-33.25-1.44-21.77-14.67-41.19-34.73-49.76-.56-.24-1.12-.47-1.7-.7,0,0-2.95,18.11,19.13,60.43,22.08,42.32-45.8-67.82-43.96-88.5,1.84-20.68,44.16,12.44,60.72,14.28,16.56,1.84,40.48-11.96,40.48-13.8s-29.44-14.72-66.24-14.72Z"/></svg>