<svg xmlns="http://www.w3.org/2000/svg" width="192" height="192" fill="none" stroke="#000" stroke-width="12" viewBox="0 0 192 192"><path stroke-linecap="round" d="M140 110v34m0 0-22 26m52-42-30 16m0 0 22 26m-52-42 30 16M76 22H28a6 6 0 0 0-6 6v48a6 6 0 0 0 6 6h48a6 6 0 0 0 6-6V28a6 6 0 0 0-6-6ZM52 155a15 15 0 1 1-15-15m15-15a15 15 0 1 0-15 15m30 0a15.002 15.002 0 0 1 2.926 29.712A15.002 15.002 0 0 1 52 155m15-15a15.002 15.002 0 0 0 2.926-29.712A15 15 0 0 0 52 125"/><circle cx="140" cy="52" r="30"/></svg>