<svg width="192" height="192" viewBox="0 0 192 192" fill="none" xmlns="http://www.w3.org/2000/svg"><path d="M140 111v31m0 0-21 25m48-41-27 16m0 0 21 25m-48-41 27 16" stroke="#000" stroke-width="12" stroke-linecap="round" stroke-linejoin="round"/><circle cx="139" cy="53" r="28" stroke="#000" stroke-width="12" stroke-linejoin="round"/><path d="M75 25H31a6 6 0 0 0-6 6v44a6 6 0 0 0 6 6h44a6 6 0 0 0 6-6V31a6 6 0 0 0-6-6ZM53 153a14 14 0 1 1-14-14m15-14a14 14 0 1 0-14 14" stroke="#000" stroke-width="12" stroke-linecap="round" stroke-linejoin="round"/><path d="M67 138a14.002 14.002 0 0 1 12.934 8.642 14.002 14.002 0 0 1-10.203 19.089A13.999 13.999 0 0 1 53 152" stroke="#000" stroke-width="12" stroke-linecap="round" stroke-linejoin="round"/><path d="M67 139a14.002 14.002 0 0 0 12.934-8.642 14.002 14.002 0 0 0-10.203-19.089A13.999 13.999 0 0 0 53 125" stroke="#000" stroke-width="12" stroke-linecap="round" stroke-linejoin="round"/></svg>