<svg width="192" height="192" viewBox="0 0 192 192" fill="none" xmlns="http://www.w3.org/2000/svg">
<path d="M147.578 10C153.653 10 158.578 14.9249 158.578 21V162.578C158.578 167.27 155.287 171.19 150.888 172.164C150.4 177.677 145.774 182 140.134 182H133.811C128.252 182 123.676 177.8 123.079 172.4H73.7954C73.1982 177.8 68.6218 182 63.063 182H56.3022C50.2271 182 45.3022 177.075 45.3022 171V170.718L43.2544 170.032C38.7703 168.53 35.7476 164.331 35.7476 159.602V21C35.7476 14.9249 40.6724 10 46.7476 10H147.578Z" stroke="black" stroke-width="12"/>
<path d="M67.1997 102V118.64" stroke="black" stroke-width="12" stroke-linecap="round"/>
<path d="M67.1997 34V53.2" stroke="black" stroke-width="12" stroke-linecap="round"/>
<path d="M38 80H158.5" stroke="black" stroke-width="12"/>
</svg>
