<svg width="192" height="192" viewBox="0 0 192 192" fill="none" xmlns="http://www.w3.org/2000/svg">
<path d="M134 29.5C139.523 29.5 144 33.9772 144 39.5V149C144 152.749 141.42 155.894 137.939 156.761C137.438 161.117 133.741 164.5 129.25 164.5H124.25C119.842 164.5 116.196 161.24 115.59 157H77.4102C76.8035 161.24 73.158 164.5 68.75 164.5H63.8584C58.8461 164.5 54.7535 160.56 54.5107 155.607L53.8379 155.383C49.7546 154.022 47.0001 150.201 47 145.896V39.5C47 33.9772 51.4772 29.5 57 29.5H134Z" stroke="black" stroke-width="10"/>
<path d="M50 80L142 80" stroke="black" stroke-width="10" stroke-linecap="round"/>
<path d="M66 96V109" stroke="black" stroke-width="10" stroke-linecap="round"/>
<path d="M66 49V64" stroke="black" stroke-width="10" stroke-linecap="round"/>
</svg>
