<svg width="192" height="192" viewBox="0 0 192 192" fill="none" xmlns="http://www.w3.org/2000/svg">
<path d="M67 108V124.64" stroke="black" stroke-width="12" stroke-linecap="round" stroke-linejoin="round"/>
<path d="M67 42V61.2" stroke="black" stroke-width="12" stroke-linecap="round" stroke-linejoin="round"/>
<path d="M138 22C144.075 22 149 26.9249 149 33V151.624C149 155.844 146.181 159.404 142.323 160.528C141.566 165.329 137.412 169 132.398 169H126.849C121.966 169 117.897 165.517 116.989 160.9H76.1943C75.2862 165.517 71.218 169 66.335 169H60.8896C55.3018 169 50.7162 164.716 50.2334 159.254L49.5557 159.03C45.0466 157.544 42.0001 153.332 42 148.584V33C42 26.9249 46.9249 22 53 22H138Z" stroke="black" stroke-width="12" stroke-linecap="round" stroke-linejoin="round"/>
<path d="M43 84L147 84" stroke="black" stroke-width="12" stroke-linecap="round" stroke-linejoin="round"/>
</svg>
