<svg width="192" height="192" viewBox="0 0 192 192" fill="none" xmlns="http://www.w3.org/2000/svg"><path d="M170 96a73.997 73.997 0 0 0-74-74m38 74a37.995 37.995 0 0 0-11.13-26.87A38.008 38.008 0 0 0 96 58m-4.335 100.537 18.168-24.183a11.69 11.69 0 0 1 8.547-4.626l21.791-1.506c6.424-.444 11.996 4.344 12.445 10.695l1.355 19.164c.45 6.351-4.438 11.91-10.877 11.919-82.233.114-113.872-62.181-121.007-118.357-.803-6.316 4.075-11.83 10.499-12.274l19.386-1.34c6.424-.445 11.996 4.344 12.445 10.694l1.523 21.542a11.453 11.453 0 0 1-3.444 9.01l-21.695 21.152" stroke="#000" stroke-width="12" stroke-linecap="round" stroke-linejoin="round"/></svg>