<svg width="192" height="192" fill="none" xmlns="http://www.w3.org/2000/svg"><path d="M63.053 154a21.998 21.998 0 0 1-27.472 9.325 21.998 21.998 0 0 1-12.831-26.019" stroke="#000" stroke-width="12" stroke-linecap="round" stroke-linejoin="round"/><path d="M22.75 137.31c7.056-26.335 26.267-68.118 37.587-91.666C65.56 34.777 76.599 28 88.657 28H170m0 0c0 47-47 47-47 47s-11 36-41 36c0 0-11 28.5-18.95 43" stroke="#000" stroke-width="12" stroke-linecap="round" stroke-linejoin="round"/><path d="M41 88c17-14 24-13 82-13M22.75 137.31S32 111 82 111" stroke="#000" stroke-width="12" stroke-linecap="round" stroke-linejoin="round"/></svg>