<svg width="192" height="192" viewBox="0 0 192 192" fill="none" xmlns="http://www.w3.org/2000/svg">
<path d="M102.5 53.9249V65.9047C102.5 71.1185 108.692 73.8512 112.544 70.3373L129.044 55.2846C130.29 54.1478 131 52.5389 131 50.852V36.846C131 31.4505 124.434 28.7967 120.685 32.6771L104.185 49.756C103.104 50.8747 102.5 52.3694 102.5 53.9249Z" stroke="black" stroke-width="6" stroke-linejoin="round"/>
<path d="M131 141.425V153.405C131 158.618 124.808 161.351 120.956 157.837L104.456 142.785C103.21 141.648 102.5 140.039 102.5 138.352V124.346C102.5 118.951 109.066 116.297 112.815 120.177L129.315 137.256C130.396 138.375 131 139.869 131 141.425Z" stroke="black" stroke-width="6" stroke-linejoin="round"/>
<path d="M64 47.5751V35.5953C64 30.3815 70.192 27.6488 74.0438 31.1627L90.5438 46.2154C91.7899 47.3522 92.5 48.9611 92.5 50.648V64.654C92.5 70.0495 85.9337 72.7033 82.1849 68.8229L65.6849 51.744C64.6041 50.6253 64 49.1306 64 47.5751Z" stroke="black" stroke-width="6" stroke-linejoin="round"/>
<path d="M92.5 135.075V123.095C92.5 117.882 86.308 115.149 82.4562 118.663L65.9562 133.715C64.7101 134.852 64 136.461 64 138.148V152.154C64 157.549 70.5663 160.203 74.3151 156.323L90.8151 139.244C91.8959 138.125 92.5 136.631 92.5 135.075Z" stroke="black" stroke-width="6" stroke-linejoin="round"/>
<path d="M55.9249 89.5H67.9047C73.1185 89.5 75.8512 83.308 72.3373 79.4562L57.2846 62.9562C56.1478 61.7101 54.5389 61 52.852 61H38.846C33.4505 61 30.7967 67.5663 34.6771 71.3151L51.756 87.8151C52.8747 88.8959 54.3694 89.5 55.9249 89.5Z" stroke="black" stroke-width="6" stroke-linejoin="round"/>
<path d="M143.425 61H155.405C160.618 61 163.351 67.192 159.837 71.0438L144.785 87.5438C143.648 88.7899 142.039 89.5 140.352 89.5H126.346C120.951 89.5 118.297 82.9337 122.177 79.1849L139.256 62.6849C140.375 61.6041 141.869 61 143.425 61Z" stroke="black" stroke-width="6" stroke-linejoin="round"/>
<path d="M49.5751 128H37.5953C32.3815 128 29.6488 121.808 33.1627 117.956L48.2154 101.456C49.3522 100.21 50.9611 99.5 52.648 99.5H66.654C72.0495 99.5 74.7033 106.066 70.8229 109.815L53.744 126.315C52.6253 127.396 51.1306 128 49.5751 128Z" stroke="black" stroke-width="6" stroke-linejoin="round"/>
<path d="M137.075 99.5H125.095C119.882 99.5 117.149 105.692 120.663 109.544L135.715 126.044C136.852 127.29 138.461 128 140.148 128H154.154C159.549 128 162.203 121.434 158.323 117.685L141.244 101.185C140.125 100.104 138.631 99.5 137.075 99.5Z" stroke="black" stroke-width="6" stroke-linejoin="round"/>
</svg>
