<svg width="192" height="192" viewBox="0 0 192 192" fill="none" xmlns="http://www.w3.org/2000/svg"><ellipse cx="103.348" cy="132.799" rx="1.5" ry="3" transform="rotate(60 103.348 132.799)" stroke="#000" stroke-width="6" stroke-linejoin="round"/><ellipse cx="123.348" cy="126.799" rx="1.5" ry="3" transform="rotate(60 123.348 126.799)" stroke="#000" stroke-width="6" stroke-linejoin="round"/><ellipse cx="138.348" cy="114.799" rx="1.5" ry="3" transform="rotate(60 138.348 114.799)" stroke="#000" stroke-width="6" stroke-linejoin="round"/><path d="M35.18 35.18a45 45 0 0 1 63.64 0L107 43s0 12-26 38-34 29-34 29L35.18 98.82a45 45 0 0 1 0-63.64ZM83.5 152c6.1 10.565 20.5 18 36.5 18s24 0 38-12c12-12 12-22 12-30s0-22-6.163-27M83.5 152s61.5 0 80.337-51M83.5 152c-6.35-11-1.5-24 26.5-42 14-8 41-18 53.837-9M149 58l13-16-24 3s-70.333 69.333-97 108c26.4-33.6 108-95 108-95Z" stroke="#000" stroke-width="12" stroke-linecap="round" stroke-linejoin="round"/><path d="M59 94 22 57m104 115-17-23m33 18-17-23m30 13-17-23m28 10-17-23M71 83 34 46m49 24L46 33m50 27L59 23" stroke="#000" stroke-width="6" stroke-linecap="round" stroke-linejoin="round"/></svg>