<svg xmlns="http://www.w3.org/2000/svg" width="192" height="192" fill="none" viewBox="0 0 192 192"><path stroke="#000" stroke-linecap="round" stroke-linejoin="round" stroke-width="12" d="M96 22H70a6 6 0 0 0-6 6v136a6 6 0 0 0 6 6h26m0-148h26a6 6 0 0 1 6 6v99m-32 43h18"/><path stroke="#000" stroke-linecap="round" stroke-linejoin="round" stroke-width="10" d="M64 114H28l36 36m64-36h36l-6 6M64 78H28l36 36m64-36h36l-36 36M64 42H28l36 36m64-36h36l-36 36"/><circle cx="96" cy="96" r="5" stroke="#000" stroke-linecap="round" stroke-linejoin="round" stroke-width="10"/><circle cx="96" cy="134" r="5" stroke="#000" stroke-linecap="round" stroke-linejoin="round" stroke-width="10"/><circle cx="96" cy="58" r="5" stroke="#000" stroke-linecap="round" stroke-linejoin="round" stroke-width="10"/><path stroke="#000" stroke-linecap="round" stroke-linejoin="round" stroke-miterlimit="6" stroke-width="10" d="M143.224 137.103a2.884 2.884 0 0 1 5.552 0l2.248 7.215c.391 1.253 1.512 2.102 2.776 2.102h7.276c2.827 0 4.003 3.773 1.715 5.506l-5.886 4.459c-1.023.775-1.451 2.149-1.06 3.403l2.248 7.214c.874 2.804-2.204 5.136-4.492 3.403l-5.885-4.459a2.824 2.824 0 0 0-3.432 0l-5.885 4.459c-2.288 1.733-5.366-.599-4.492-3.403l2.248-7.214c.391-1.254-.037-2.628-1.06-3.403l-5.886-4.459c-2.288-1.733-1.112-5.506 1.715-5.506h7.276c1.264 0 2.385-.849 2.776-2.102z"/></svg>