<svg width="192" height="192" viewBox="0 0 192 192" fill="none" xmlns="http://www.w3.org/2000/svg"><circle cx="73" cy="74" r="5" stroke="#000" stroke-width="10" stroke-linecap="round" stroke-linejoin="round"/><path d="M96 101a6.998 6.998 0 0 1-9.679 6.467 7.004 7.004 0 0 1-3.383-2.967" stroke="#000" stroke-width="8" stroke-linecap="round" stroke-linejoin="round"/><path d="M109.062 104.5a7.004 7.004 0 0 1-7.874 3.261A6.998 6.998 0 0 1 96 101" stroke="#000" stroke-width="8" stroke-linecap="round" stroke-linejoin="round"/><path d="M93 84s1-1 3-1 3 1 3 1-1 2-3 2-3-2-3-2Z" stroke="#000" stroke-width="6" stroke-linecap="round" stroke-linejoin="round"/><circle cx="119" cy="74" r="5" stroke="#000" stroke-width="10" stroke-linecap="round" stroke-linejoin="round"/><path d="M60 128a20.989 20.989 0 0 0-14.85 6.151A20.998 20.998 0 0 0 60 170" stroke="#000" stroke-width="12" stroke-linecap="round" stroke-linejoin="round"/><path d="M40 142c-28-57 1-88 1-88s3-32 17-32 20 24 20 24 8-4 18-4m0 0c10 0 18 4 18 4s6-24 20-24 17 32 17 32 24.269 25.943 6.969 74H60" stroke="#000" stroke-width="12" stroke-linecap="round" stroke-linejoin="round"/><path d="M60 149h94" stroke="#000" stroke-width="10" stroke-linecap="round" stroke-linejoin="round"/><path d="M60 170h93" stroke="#000" stroke-width="12" stroke-linecap="round" stroke-linejoin="round"/></svg>