<svg width="192" height="192" fill="none" xmlns="http://www.w3.org/2000/svg"><path d="M27.002 104.516a65.584 65.584 0 0 0 5.059 24.741 65.968 65.968 0 0 0 14.411 21.412 66.513 66.513 0 0 0 21.568 14.307A66.9 66.9 0 0 0 93.482 170a68.65 68.65 0 0 0 27.369-5.709c8.677-3.769 16.561-9.294 23.202-16.258 6.641-6.964 11.909-15.232 15.503-24.332A78.18 78.18 0 0 0 165 95c0-9.85-1.85-19.602-5.444-28.701-3.594-9.1-8.862-17.368-15.503-24.332-6.641-6.964-14.525-12.489-23.202-16.258A69.223 69.223 0 0 0 109.888 22m-82.886 82.516A68.273 68.273 0 0 1 27 104m.002.516L27 105m.002-.484c.13-15.473 6.482-30.285 17.7-41.235C56.036 52.216 71.409 46 87.438 46c13.358 0 26.168 5.584 35.613 15.523 9.446 9.94 14.752 23.42 14.752 37.477 0 11.67-4.67 22.861-12.981 31.113C116.51 138.364 105.236 143 93.482 143c-10.42 0-20.411-4.004-27.779-11.13-7.367-7.126-11.506-16.792-11.506-26.87a31.883 31.883 0 0 1 9.441-22.627A32.353 32.353 0 0 1 86.431 73c5.321 0 10.495 1.634 14.717 4.65 4.222 3.015 7.257 7.242 8.634 12.027a21.05 21.05 0 0 1-1.016 14.433c-2.037 4.576-5.639 8.399-10.248 10.876" stroke="#000" stroke-width="12" stroke-linecap="round" stroke-linejoin="round"/></svg>