<svg xmlns="http://www.w3.org/2000/svg" width="192" height="192" fill="none"><path stroke="#000" stroke-linecap="round" stroke-linejoin="round" stroke-width="12" d="M27.002 104.516a65.6 65.6 0 0 0 5.059 24.741 66 66 0 0 0 14.411 21.412 66.5 66.5 0 0 0 21.568 14.307A66.9 66.9 0 0 0 93.482 170a68.65 68.65 0 0 0 27.369-5.709c8.677-3.769 16.561-9.294 23.202-16.258s11.909-15.232 15.503-24.332A78.2 78.2 0 0 0 165 95c0-9.85-1.85-19.602-5.444-28.701s-8.862-17.368-15.503-24.332-14.525-12.489-23.202-16.258A69 69 0 0 0 109.888 22m-82.886 82.516L27 104m.002.516L27 105m.002-.484c.13-15.473 6.482-30.285 17.7-41.235C56.036 52.216 71.409 46 87.438 46c13.358 0 26.168 5.584 35.613 15.523S137.803 84.943 137.803 99c0 11.67-4.67 22.861-12.981 31.113S105.236 143 93.482 143c-10.42 0-20.411-4.004-27.779-11.13S54.197 115.078 54.197 105a31.88 31.88 0 0 1 9.441-22.627A32.35 32.35 0 0 1 86.431 73c5.321 0 10.495 1.634 14.717 4.65 4.222 3.015 7.257 7.242 8.634 12.027a21.05 21.05 0 0 1-1.016 14.433c-2.037 4.576-5.639 8.399-10.248 10.876"/></svg>