<svg xmlns="http://www.w3.org/2000/svg" width="192" height="192" viewBox="0 0 192 192" style="enable-background:new 0 0 192 192" xml:space="preserve"><path d="M170 36v120c0 7.7-6.3 14-14 14H36c-7.7 0-14-6.3-14-14V36c0-7.7 6.3-14 14-14h120c7.7 0 14 6.3 14 14zm-14-14H75.5v21H170v-7c0-7.7-6.3-14-14-14zm-33.3 21V22m7.1 106.5c-.9 0-3.8 0-6.7-2.1-3-2.2-3.8-5.3-4-6.1-.8-2.6-1.5-5.5-2.1-8.5a108 108 0 0 1-1.2-7.2c-.3-2.3-.8-4.7-1.4-7.3-.5-1.9-.9-3.7-1.5-5.4-.2-.9-.9-3.1-3-5-2-1.8-4.1-2.3-5-2.4-1.4-.1-2.9-.2-4.4-.3-1.5-.1-3-.1-4.4-.1-1 0-2.4 0-4 .4-1.6.3-2.9.9-3.8 1.3-1 .6-2.5 1.6-3.9 3.1-1.6 1.6-2.5 3.2-3.9 5.7-.7 1.3-1.6 3-2.6 5.1-1.8 3.9-3.5 7.8-5.3 11.6-.5 1.2-1.3 3-2.4 5.1-2.2 4.2-4 7.4-7.3 9.6-1.3.9-3.9 2.2-7.8 2.5m33.3-22.7H61.7m74.2-21.6c-1 0-2.4.1-4.1.6-2 .6-3.5 1.6-4.3 2.3-1 .9-2.3 2.1-3.5 3.7-.9 1.2-1.5 2.2-2.4 3.9-.4.7-1.1 2-2.4 4.6-1.2 2.4-2.2 4.7-3.2 7-.7 1.8-1.5 3.8-2.4 5.8-.8 1.8-1.7 3.5-2.5 5.1-.3.6-.8 1.4-1.4 2.3-1.6 2.4-3.4 5.1-6.5 7-1.2.7-3.5 1.8-6.9 2" style="fill:none;stroke:#000;stroke-width:12;stroke-linecap:round;stroke-linejoin:round;stroke-miterlimit:10"/></svg>