<svg width="192" height="192" viewBox="0 0 192 192" fill="none" xmlns="http://www.w3.org/2000/svg"><path d="M93.757 46.757A6 6 0 0 0 92 51l-7.796 43.447A5.999 5.999 0 0 0 90 102h17l8.796-49.447a6.01 6.01 0 0 0-1.036-5.206A6 6 0 0 0 110 45H98a6 6 0 0 0-4.243 1.757Z" stroke="#000" stroke-width="12" stroke-linecap="round" stroke-linejoin="round"/><path d="M48 170h43a28.996 28.996 0 0 0 28.012-21.494L123.647 123m0 0L142 22h-39a33 33 0 0 0-31.876 24.459l-9.51 53.882A18.002 18.002 0 0 0 79 123h44.647Z" stroke="#000" stroke-width="12" stroke-linecap="round" stroke-linejoin="round"/></svg>