<?xml version="1.0" encoding="UTF-8" standalone="no"?>
<svg version="1.1" width="192" height="192" xmlns="http://www.w3.org/2000/svg">
    <path
        d="m 58.196138,43.871156 c 4.591737,-4.922287 8.807671,-10.182167 12.612299,-15.735344 2.08495,-3.195802 4.812006,-5.922859 8.007809,-8.007809 1.862825,-1.169632 3.975456,-1.882987 6.166013,-2.08203 1.956156,-0.214848 3.916962,0.36186 5.44531,1.601562 2.065268,1.322953 3.150085,3.74414 2.762694,6.166013 -1.187211,3.383825 -2.73071,6.631885 -4.60449,9.689448 l -8.80859,13.893549 m 6.326169,-10.009761 c 3.709266,-5.797541 8.04633,-11.168518 12.932611,-16.015618 3.543497,-2.013002 7.844527,-2.177278 11.531247,-0.44043 10.12988,4.003905 0.88086,18.337883 -1.88184,22.942373 0,0 -12.412101,20.019522 -18.417958,30.109361 -3.407387,3.904518 -9.446404,3.997713 -12.97265,0.200195 -1.641601,-1.721679 -4.924802,-6.68652 -3.403319,-9.168941 M 110.52717,42.790102 c 2.60564,-3.329736 5.8964,-6.060654 9.64941,-8.007809 3.14244,-1.723661 6.9474,-1.723661 10.08983,0 6.32617,2.762695 3.64356,11.651362 1.88184,14.974603 -1.76172,3.323241 -13.81347,19.779288 -18.77831,26.946277 -2.23501,2.297738 -4.9777,4.039346 -8.00781,5.084958 -1.96931,0.726739 -4.01832,1.142723 -5.885737,0.200195 -2.157363,-1.111602 -3.877935,-2.916793 -4.884764,-5.124997 -1.099816,-2.722549 -0.8539,-5.652228 0.245916,-8.374778 m 51.836115,-1.989078 c 0,0 -2.5137,20.814046 -2.95413,24.337482 -0.64062,8.648434 -7.04687,17.657215 -13.05273,25.184565 -3.26121,3.96392 -6.82179,7.67174 -10.65038,11.09081 v 9.3291 H 69.727383 V 122.50784 C 60.518403,110.25589 48.46665,100.28617 43.02134,86.913129 36.655132,71.257863 46.499412,53.903036 58.391008,43.653041 l -0.154831,0.218115 c 8.433867,1.082542 16.678962,3.318957 24.503895,6.646482 5.254262,2.384396 7.45861,8.669521 4.844724,13.81347 -2.282225,4.60449 -9.969722,4.003904 -17.256828,1.841796 l -8.76855,-3.243163 -1.601562,4.284178 M 132.02813,49.796935 c 4.08317,-4.314749 10.75869,-4.86673 15.49511,-1.281249 6.72656,4.003904 2.20215,14.053704 -1.72168,19.218741 l -12.69237,16.656242 c -3.24287,4.206494 -9.33039,4.878847 -13.41308,1.481445 -3.76367,-3.123046 -4.28418,-11.090815 -0.96094,-16.856438 M 57.755709,136.44143 h 73.671841 v 23.02245 H 57.755709 Z m 11.73144,23.02245 h 50.168921 v 14.53417 H 69.246914 Z"
        fill="none"
        stroke="#000000"
        stroke-linecap="round"
        stroke-linejoin="round"
        stroke-width="6" />
</svg>
