<svg xmlns="http://www.w3.org/2000/svg" width="192" height="192" fill="none" viewBox="0 0 192 192"><path stroke="#000" stroke-linecap="round" stroke-linejoin="round" stroke-width="10" d="M60.406 45.738c4.371-4.737 8.32-9.764 11.943-15.107 1.984-3.075 4.305-5.277 7.347-7.284 1.773-1.125 6.345-2.836 9.574-1.841s9.478 6.78 1.997 16.215m-30.86 8.017C49.158 55.62 39.866 72.2 45.897 87.194c4.952 12.294 15.642 21.6 24.23 32.686a5.8 5.8 0 0 1 1.192 3.546v5.506c0 3.273 2.627 5.926 5.868 5.926h36.131c3.242 0 5.869-2.653 5.869-5.926v-.401c0-1.686.719-3.286 1.933-4.444a96 96 0 0 0 8.205-8.88c5.717-7.244 11.815-15.913 12.424-24.236.42-3.39 2.812-23.421 2.812-23.421M60.406 45.738c8 1.038 13.344 1.573 20.779 4.77M91.267 37.72 81.185 50.508M91.267 37.72s9.458-15.72 18.512-10.712-.395 20.714-.395 20.714m-28.199 2.785c5.001 2.293 5.171 7.932 3.178 11.499-1.994 3.566-9.27 5.646-16.207 3.566l-.885-.29c-2.317-.761-4.817.457-5.67 2.762M73.4 66.397c-1.448 2.389 1.993 8.541 5.482 10.575s11.416 2.599 17.106-7.043m13.397-22.206s-7.707 12.565-13.397 22.206m13.397-22.206s9.864-15.215 18.336-11.715c8.473 3.5 2.674 14.8.997 18m0 0s-10.641 15.782-15.54 22.902l-.085.119c-.565.744-6.682 8.466-14.277 4.476-7.974-4.188-2.828-11.576-2.828-11.576m32.73-15.922c1.877-2.005 7.475-12 16.446-6s-.601 19.543-.601 19.543m0 0-12.911 17.218c-3.086 4.048-8.882 4.696-12.768 1.426-3.582-3.005-4.077-10.674-.914-16.222m-41.106 87.041h36.114c3.241 0 5.869 2.654 5.869 5.926v2.135c0 3.273-2.628 5.926-5.869 5.926h-36.15c-3.279 0-5.922-2.713-5.867-6.024l.035-2.135c.053-3.234 2.664-5.828 5.867-5.828Zm-11.07 0h58.389c3.241 0 5.868-2.653 5.868-5.925v-10.304c0-3.273-2.627-5.926-5.868-5.926h-58.39c-3.241 0-5.869 2.653-5.869 5.926v10.304c0 3.272 2.628 5.925 5.87 5.925"/></svg>