<svg xmlns="http://www.w3.org/2000/svg" width="192" height="192" fill="none" viewBox="0 0 192 192"><path stroke="#000" stroke-linecap="round" stroke-linejoin="round" stroke-miterlimit="6" stroke-width="10" d="M41 122.999V87l28 35.999V87"/><path stroke="#000" stroke-linecap="round" stroke-linejoin="round" stroke-width="12" d="M60.5 42 46 68.257M71 44l17-22c4.051 0 11.524 4.232 20 10.157 15.764 12.315 30.151 26.114 39.734 33.313 2.757 2.071 3.736 5.966 1.953 8.917C141.693 87.614 122 121.654 122 136v4"/><path stroke="#000" stroke-linecap="round" stroke-linejoin="round" stroke-width="10" d="M60 147a6 6 0 0 1 6-6h60a6 6 0 0 1 6 6v18a6 6 0 0 1-6 6H66a6 6 0 0 1-6-6zm20-6v30m32-30v30"/><path stroke="#000" stroke-linecap="round" stroke-linejoin="round" stroke-width="12" d="M106 32 90 53m30 30 17-25m-17 25c-14 22 8.28 32 15.78 16M120 83c-12 20.467-34 8-18-12.5L122 44"/><path stroke="#000" stroke-linecap="round" stroke-linejoin="round" stroke-width="12" d="M60.5 42s43 11.5 39.5 29c-1.594 7.704-7.211 9.594-13 9.296"/></svg>