<svg xmlns="http://www.w3.org/2000/svg" width="192" height="192" viewBox="0 0 192 192"><path fill="none" stroke="#000" stroke-linecap="round" stroke-linejoin="round" stroke-width="6" d="M58.685 44.538a133 133 0 0 0 12.449-15.534 27.15 27.15 0 0 1 7.903-7.905 13.8 13.8 0 0 1 6.086-2.056 7.27 7.27 0 0 1 5.375 1.581 6.09 6.09 0 0 1 2.727 6.088 50 50 0 0 1-4.545 9.565l-8.694 13.716m6.244-9.882a92.5 92.5 0 0 1 12.764-15.81 12.37 12.37 0 0 1 11.382-.435c9.998 3.952.87 18.103-1.858 22.648 0 0-12.25 19.764-18.178 29.725-3.363 3.854-9.324 3.946-12.804.197-1.62-1.7-4.861-6.6-3.36-9.051m36.16-23.914a29.1 29.1 0 0 1 9.524-7.905 10.35 10.35 0 0 1 9.959 0c6.244 2.727 3.596 11.502 1.857 14.783-1.738 3.28-13.634 19.526-18.534 26.601a20.2 20.2 0 0 1-7.904 5.02c-1.943.717-3.966 1.128-5.809.198a10.67 10.67 0 0 1-4.821-5.06c-1.086-2.688-.843-5.58.242-8.267m51.163-1.964s-2.481 20.548-2.916 24.026c-.632 8.538-6.955 17.431-12.883 24.862a99 99 0 0 1-10.512 10.95v9.209H70.067v-13.755c-9.09-12.096-20.985-21.938-26.36-35.14-6.283-15.455 3.433-32.587 15.17-42.706l-.152.215A91.6 91.6 0 0 1 82.91 51.1c5.186 2.353 7.362 8.558 4.782 13.636-2.253 4.546-9.84 3.953-17.033 1.819l-8.654-3.202-1.581 4.23m71.134-17.195a11.5 11.5 0 0 1 15.294-1.265c6.639 3.953 2.173 13.874-1.7 18.973L132.625 84.54c-3.2 4.153-9.21 4.817-13.239 1.463-3.715-3.083-4.228-10.95-.948-16.641M58.25 135.924h72.715v22.728H58.25zm11.58 22.728h49.517V173H69.592z"/></svg>