<svg width="192" height="192" viewBox="0 0 192 192" fill="none" xmlns="http://www.w3.org/2000/svg"><path d="m128 114-29.317 14.658a5.997 5.997 0 0 1-5.366 0L64 114m50-13-15.317 7.658a5.997 5.997 0 0 1-5.366 0L78 101m26-15-5.317 2.658a6 6 0 0 1-5.366 0L88 86m16 0-5.317-2.658a6 6 0 0 0-5.366 0L88 86" stroke="#000" stroke-width="10" stroke-linecap="round" stroke-linejoin="round"/><path d="M96 30 77 60l-9-6-46 69 74 37m0-130 30 47 9-6 35 52-74 37" stroke="#000" stroke-width="12" stroke-linecap="round" stroke-linejoin="round"/></svg>