<?xml version="1.0" encoding="UTF-8"?>
<svg width="24" height="24" fill="none" version="1.1" viewBox="0 0 24 24" xmlns="http://www.w3.org/2000/svg">
 <path d="m15.975 14.739c-0.50193-0.01974-0.9817-0.21333-1.3841-0.55849-0.3055-0.26207-0.56581-0.71752-0.65104-1.139-0.07039-0.3481-0.06392-0.73762 0.01793-1.0811 0.11892-0.49901 0.43338-0.95225 0.85982-1.2393 0.56423-0.3798 1.335-0.48054 1.9525-0.25518 0.10904 0.03979 0.27497 0.12136 0.37163 0.18267 0.08234 0.05223 0.22836 0.17243 0.28392 0.23372l0.04095 0.04517 0.0031-0.28968 0.0031-0.28968 1.0116 6e-3v4.3756l-1.012 6e-3v-0.30431c0-0.16737-0.0024-0.30431-0.0055-0.30431-3e-3 0-0.05175 0.04607-0.10823 0.10237-0.25992 0.2591-0.61634 0.43002-1.0152 0.48686-0.13431 0.01914-0.25933 0.02676-0.36854 0.02247zm0.45552-0.9396c0.29378-0.03813 0.61722-0.2196 0.79908-0.44834 0.09398-0.1182 0.19453-0.29807 0.23645-0.42296 0.03257-0.09703 0.06437-0.29382 0.06477-0.40079 2.65e-4 -0.09438-0.03075-0.27973-0.06405-0.38176-0.06791-0.20802-0.22323-0.4351-0.40153-0.58701-0.11029-0.09397-0.34836-0.21606-0.4877-0.2501-0.27558-0.06733-0.56143-0.059-0.80493 0.02346-0.11825 0.04004-0.303 0.14-0.40875 0.22115-0.24812 0.19039-0.423 0.48422-0.46595 0.78289-0.01934 0.13449-0.0078 0.38808 0.02345 0.51611 0.03509 0.14365 0.14826 0.36104 0.25544 0.4907 0.19049 0.23044 0.51655 0.41258 0.81576 0.45569 0.09722 0.01401 0.33342 0.01453 0.43797 9.53e-4zm-12.886 0.92165c-0.0027-8e-3 -0.12402-0.43318-0.26963-0.94474-0.68864-2.4194-0.97939-3.4401-0.99983-3.5099-0.01225-0.04183-0.03339-0.11553-0.04697-0.16379-0.01359-0.04826-0.03473-0.12197-0.04699-0.16379-0.09897-0.33761-0.18585-0.65926-0.18045-0.66801 0.0037-6e-3 0.22972-0.01057 0.52684-0.01057 0.40592 0 0.52135 0.0032 0.52504 0.01462 0.0026 8e-3 0.08194 0.30156 0.17631 0.65225 0.09437 0.3507 0.18087 0.67185 0.19222 0.71368 0.01136 0.04183 0.08161 0.30243 0.15611 0.57913 0.18316 0.68022 0.29212 1.0824 0.34076 1.2577 0.03798 0.13687 0.12466 0.46557 0.14896 0.56486 0.01394 0.05695 0.02826 0.04692 0.05149-0.03605 0.02854-0.10194 0.07285-0.25056 0.42104-1.4121 0.17746-0.592 0.35086-1.1711 0.38536-1.287 0.03449-0.11583 0.09509-0.31852 0.13467-0.45043 0.03958-0.13191 0.09353-0.31355 0.11988-0.40364 0.02636-0.09009 0.05291-0.17038 0.05902-0.17842 0.0086-0.01129 0.12252-0.01462 0.49962-0.01462 0.3769 0 0.49114 0.0033 0.49998 0.01462 0.0063 8e-3 0.05722 0.16994 0.11316 0.35976 0.05593 0.18982 0.1064 0.3583 0.11214 0.37439 0.0057 0.01609 0.0508 0.16614 0.10013 0.33344 0.04932 0.1673 0.14401 0.48583 0.21042 0.70782 0.06641 0.222 0.18746 0.62739 0.269 0.90087 0.29591 0.99243 0.33293 1.1115 0.34566 1.1115 0.0054 0 0.01329-0.01974 0.01758-0.04387 0.0043-0.02413 0.03575-0.14654 0.06993-0.27202s0.12002-0.444 0.19076-0.70782c0.19602-0.73109 0.3661-1.3632 0.48168-1.79 0.05749-0.21235 0.14034-0.52034 0.18412-0.68443l0.07959-0.29834 0.50198-0.0031c0.27609-0.0017 0.50593 9.53e-4 0.51076 0.0059 0.0048 0.0049-0.0089 0.06945-0.03051 0.14345-0.02161 0.074-0.06647 0.23194-0.0997 0.35099-0.03322 0.11904-0.09915 0.35333-0.1465 0.52063-0.19268 0.68081-0.28852 1.0198-0.36215 1.2811-0.07363 0.26126-0.19539 0.69202-0.44315 1.5677-0.06099 0.21556-0.14345 0.50776-0.18324 0.64933-0.08537 0.30369-0.25529 0.90369-0.26427 0.93316-0.0059 0.01931-0.03777 0.02041-0.51023 0.01755l-0.50396-3e-3 -0.07481-0.25154c-0.04114-0.13835-0.12258-0.41212-0.18097-0.60838-0.05839-0.19626-0.11294-0.38053-0.12123-0.40948-0.0083-0.02896-0.0819-0.2764-0.16358-0.54988-0.08169-0.27348-0.17116-0.57357-0.19882-0.66688-0.02767-0.0933-0.12262-0.41183-0.21101-0.70782-0.08839-0.296-0.16598-0.56319-0.17242-0.59375-0.0064-0.03056-0.01593-0.05557-0.02109-0.05557-0.0091 0-0.05381 0.13452-0.1283 0.38609-0.05853 0.19767-0.19454 0.6551-0.26437 0.88917-0.03552 0.11904-0.099 0.33227-0.14108 0.47383-0.04207 0.14156-0.1071 0.36005-0.1445 0.48553-0.0374 0.12548-0.13978 0.47032-0.22752 0.76632-0.08774 0.296-0.16935 0.56977-0.18136 0.60838-0.01201 0.03861-0.03062 0.10179-0.04135 0.14039-0.01073 0.03861-0.02493 0.07678-0.03154 0.08482-0.0093 0.01129-0.12781 0.01462-0.51989 0.01462-0.39589 0-0.50894-0.0032-0.51276-0.01462zm7.4758-0.0085c-0.24888-0.03955-0.43348-0.09743-0.64038-0.2008-0.24622-0.12301-0.39969-0.23579-0.58185-0.42757-0.30562-0.32175-0.50207-0.73705-0.56799-1.2007-0.01934-0.13602-0.02228-0.43164-0.0058-0.58716 0.04446-0.4206 0.233-0.89752 0.49332-1.2478 0.29481-0.39676 0.70733-0.64536 1.2325-0.74278 0.17845-0.0331 0.63129-0.02927 0.84717 0.0072 0.70903 0.11968 1.2115 0.49934 1.4877 1.1241 0.10097 0.2284 0.15896 0.44958 0.19898 0.75889 0.01238 0.09572 0.01532 0.57246 0.0037 0.60272-0.0064 0.01659-0.1705 0.01838-1.6847 0.01838-1.5705 0-1.6776 0.0013-1.6776 0.01987 0 0.04145 0.06184 0.22014 0.11062 0.3196 0.16305 0.33253 0.44198 0.56212 0.78682 0.64764 0.15656 0.03883 0.20214 0.04403 0.38228 0.04362 0.36747-8.47e-4 0.66707-0.13275 0.9014-0.39685 0.08104-0.09134 0.17006-0.22391 0.20121-0.29965 0.01294-0.03147 0.02951-0.05337 0.0404-0.0534 0.01559 0 0.73416 0.42958 0.76378 0.45665 0.01421 0.01299-0.10747 0.21754-0.21203 0.35643-0.23835 0.31661-0.57114 0.56943-0.91535 0.6954-0.074 0.02708-0.21089 0.06496-0.30419 0.08418-0.15341 0.0316-0.19595 0.0354-0.44458 0.03969-0.23006 4e-3 -0.29786 0.0011-0.41534-0.01757zm1.5034-2.7484c0-0.0058-0.01056-0.04466-0.02347-0.08644-0.12212-0.3954-0.41428-0.63992-0.85617-0.71659-0.13699-0.02377-0.40327-0.0242-0.54781-8.73e-4 -0.34405 0.05549-0.62121 0.22629-0.78992 0.48679-0.05881 0.09081-0.13425 0.25877-0.13425 0.2989v0.02868h1.1758c0.68378 0 1.1758-0.0044 1.1758-0.01047zm6.5869 0.57802v-2.1938h0.9941l0.0062 0.64716 0.06313-0.10421c0.08356-0.13795 0.25278-0.30676 0.37834-0.37744 0.19183-0.10799 0.40551-0.15658 0.68754-0.15636 0.20201 1.46e-4 0.3484 0.02052 0.49723 0.06914 0.12534 0.04095 0.26324 0.10439 0.26324 0.12109 0 0.0074-0.0076 0.03011-0.01693 0.05039-0.0093 0.02028-0.09134 0.22377-0.18228 0.4522-0.09094 0.22843-0.17032 0.42047-0.1764 0.42674-0.0071 0.0074-0.02024 0.0056-0.03709-0.0049-0.18565-0.11652-0.43674-0.16735-0.69553-0.14079-0.42151 0.04325-0.65583 0.25888-0.74354 0.6842-0.02326 0.11277-0.02437 0.16394-0.03092 1.4156l-0.0068 1.2987-0.50016 3e-3 -0.50016 0.0031z" fill="#000" stroke-width=".0117"/>
</svg>
