<?xml version="1.0" encoding="UTF-8" standalone="no"?>
<svg
   width="192"
   height="192"
   fill="none"
   viewBox="0 0 192 192"
   version="1.1"
   id="svg1"
   xml:space="preserve"
   xmlns="http://www.w3.org/2000/svg"
   xmlns:svg="http://www.w3.org/2000/svg"><defs
     id="defs1" /><path
     style="fill:none;fill-opacity:1;stroke:#000000;stroke-width:9.11407;stroke-linecap:round;stroke-linejoin:round;stroke-dasharray:none;stroke-opacity:1"
     d="m 234.124,55.807043 h 95.04462 a 6,6 45 0 1 6,6 v 73.706307 a 12,12 135 0 1 -12,12 l -83.04462,0 a 12,12 45 0 1 -12,-12 V 61.807043 a 6,6 135 0 1 6,-6 z"
     id="path2"
     transform="matrix(1.3172669,0,0,1.316023,-275.00342,-24.128128)" /><path
     id="path3"
     style="stroke:#000000;stroke-width:12;stroke-linecap:round;stroke-linejoin:round"
     d="m 65.976461,47.662209 c 0,-14.172855 14.897031,-25.662224 30.023575,-25.662224 15.126524,0 30.023554,11.489369 30.023554,25.662224" /><circle
     style="fill:none;fill-opacity:1;stroke:#000000;stroke-width:8;stroke-linecap:round;stroke-linejoin:round;stroke-dasharray:none;stroke-opacity:1"
     id="path4"
     cx="66.000031"
     cy="72.332993"
     r="4.0000634" /><circle
     style="fill:none;fill-opacity:1;stroke:#000000;stroke-width:8;stroke-linecap:round;stroke-linejoin:round;stroke-dasharray:none;stroke-opacity:1"
     id="circle4"
     cx="126.00003"
     cy="72.332993"
     r="4.0000634" /><path
     style="fill:none;fill-opacity:1;stroke:#000000;stroke-width:10;stroke-linecap:round;stroke-linejoin:round;stroke-dasharray:none;stroke-opacity:1"
     d="M 26.432226,143.9166 H 166.61984"
     id="path5" /></svg>
