<svg xmlns="http://www.w3.org/2000/svg" xml:space="preserve" width="192" height="192" fill="none"><path d="M234.124 55.807h95.045a6 6 45 0 1 6 6v73.706a12 12 135 0 1-12 12h-83.045a12 12 45 0 1-12-12V61.807a6 6 135 0 1 6-6" style="fill:none;fill-opacity:1;stroke:#000;stroke-width:9.11407;stroke-linecap:round;stroke-linejoin:round;stroke-dasharray:none;stroke-opacity:1" transform="matrix(1.31727 0 0 1.31602 -275.003 -24.128)"/><path d="M65.976 47.662C65.976 33.49 80.873 22 96 22s30.024 11.49 30.024 25.662" style="stroke:#000;stroke-width:12;stroke-linecap:round;stroke-linejoin:round"/><circle cx="66" cy="72.333" r="4" style="fill:none;fill-opacity:1;stroke:#000;stroke-width:8;stroke-linecap:round;stroke-linejoin:round;stroke-dasharray:none;stroke-opacity:1"/><circle cx="126" cy="72.333" r="4" style="fill:none;fill-opacity:1;stroke:#000;stroke-width:8;stroke-linecap:round;stroke-linejoin:round;stroke-dasharray:none;stroke-opacity:1"/><path d="M26.432 143.917H166.62" style="fill:none;fill-opacity:1;stroke:#000;stroke-width:10;stroke-linecap:round;stroke-linejoin:round;stroke-dasharray:none;stroke-opacity:1"/></svg>