<svg width="192" height="192" viewBox="0 0 192 192" fill="none" xmlns="http://www.w3.org/2000/svg"><path d="M26 143h140M25 55a6 6 0 0 1 6-6h130a6 6 0 0 1 6 6v99c0 8.837-7.163 16-16 16H41c-8.837 0-16-7.163-16-16V55Z" stroke="#000" stroke-width="12" stroke-linecap="round" stroke-linejoin="round"/><circle cx="65" cy="74" r="4" stroke="#000" stroke-width="8" stroke-linecap="round" stroke-linejoin="round"/><circle cx="127" cy="74" r="4" stroke="#000" stroke-width="8" stroke-linecap="round" stroke-linejoin="round"/><path d="M127 49c0-3.546-.802-7.057-2.36-10.333-1.558-3.275-3.841-6.252-6.72-8.759-2.878-2.507-6.296-4.496-10.057-5.853A35.024 35.024 0 0 0 96 22c-4.071 0-8.102.698-11.863 2.055-3.761 1.357-7.179 3.346-10.057 5.853-2.879 2.507-5.162 5.484-6.72 8.76C65.802 41.942 65 45.453 65 49" stroke="#000" stroke-width="12" stroke-linecap="round" stroke-linejoin="round"/></svg>