<svg xmlns="http://www.w3.org/2000/svg" width="192" height="192" fill="none"><path stroke="#000" stroke-linecap="round" stroke-linejoin="round" stroke-width="12" d="M22.018 88.46c-.27-3.485 2.504-6.46 6.021-6.46h135.922c3.517 0 6.291 2.975 6.021 6.46l-5.11 66c-.242 3.126-2.866 5.54-6.021 5.54H33.149c-3.155 0-5.779-2.414-6.02-5.54l-5.11-66ZM100 82V58a6 6 0 0 0-6-6H42a6 6 0 0 0-6 6v24"/><path stroke="#000" stroke-linecap="round" stroke-linejoin="round" stroke-width="12" d="M156 82V38a6 6 0 0 0-6-6H80a6 6 0 0 0-6 6v14m22 56v29"/><circle cx="96" cy="108" r="5" stroke="#000" stroke-linecap="round" stroke-linejoin="round" stroke-width="10"/></svg>