<svg xmlns="http://www.w3.org/2000/svg" width="192" height="192" fill="none"><path stroke="#000" stroke-linecap="round" stroke-linejoin="round" stroke-width="10" d="M76 116c0 8.471.791 14.79 2.888 21.311M76 116c-8.471 0-14.79-.791-21.31-2.888M76 116c1.912 0 3.795-.274 5.598-.799m31.514-60.512c8.293-4.257 18.562-7.07 35.921-11.722-4.651 17.36-7.465 27.628-11.722 35.921M113.112 54.69C110.258 45.814 104.986 36.564 96 21c-8.986 15.564-14.258 24.814-17.112 33.69m34.224 0C115.209 61.21 116 67.528 116 76c0 1.912-.274 3.795-.799 5.598m22.11-2.71c-3.128 6.094-7.037 11.122-13.027 17.112a20 20 0 0 1-4.522 3.392m17.549-20.504C146.186 81.742 155.436 87.014 171 96c-15.564 8.986-24.814 14.258-33.689 17.112m0 0c4.257 8.293 7.071 18.562 11.722 35.921-17.359-4.651-27.628-7.465-35.921-11.722m24.199-24.199C130.79 115.209 124.471 116 116 116c-1.912 0-3.795-.274-5.598-.799m2.71 22.11c-6.094-3.128-11.122-7.037-17.112-13.027a20 20 0 0 1-3.392-4.522m20.504 17.549C110.258 146.186 104.986 155.436 96 171c-8.986-15.564-14.258-24.814-17.112-33.689m0 0c-8.293 4.257-18.562 7.071-35.921 11.722 4.651-17.359 7.465-27.628 11.722-35.921m0 0C45.814 110.258 36.564 104.986 21 96c15.564-8.986 24.814-14.258 33.69-17.112m0 0c-4.258-8.293-7.072-18.562-11.723-35.921 17.36 4.651 27.628 7.465 35.921 11.722M54.69 78.89C61.21 76.791 67.53 76 76 76c1.912 0 3.795.274 5.598.8m-2.71-22.11C84.982 57.817 90.01 61.725 96 67.715a20 20 0 0 1 3.392 4.522m-17.794 4.561C75.77 81.18 72 88.15 72 96s3.77 14.822 9.598 19.201m0-38.401A23.9 23.9 0 0 1 96 72q1.728.001 3.392.238M81.598 115.2a23.9 23.9 0 0 0 11.01 4.561m0 0q1.663.237 3.392.238a23.9 23.9 0 0 0 14.402-4.799m0 0c4.973-3.737 8.448-9.361 9.36-15.809m0 0q.237-1.663.238-3.392a23.9 23.9 0 0 0-4.799-14.402m0 0c-3.737-4.973-9.361-8.448-15.809-9.36"/></svg>