<svg xmlns="http://www.w3.org/2000/svg" width="192" height="192" fill="none" viewBox="0 0 192 192"><path stroke="#000" stroke-linecap="round" stroke-linejoin="round" stroke-width="12" d="M47 95.58c0 27.032 21.938 48.947 49 48.947 7.568 0 10.5-24.973 5.217-38.162M82.541 22.5C48.058 29.058 22 59.175 22 95.337c0 40.959 33.43 74.163 74.667 74.163 36.408 0 66.73-25.882 73.333-60.132-3.5-10.792-14.5-18.284-23-21.78l-42 10.988-3.783 7.789m0 0s-3.867.433-6.217 1.201c-2.423.792-6.891 2.808-6.891 2.808m19.135-77.726 4.558 11.686a55 55 0 0 0-15.135-2.115c-8.9 0-17.301 2.119-24.72 5.877 7.264 4.92 8.744 5.1 8.576 5.076-11.063 4.181-20.055 12.534-25.028 23.124 12.379-1.838 27.046-10.023 43.695 1.503l46.414-11.526 2-22.955C136 35.144 124 32.648 107.244 32.648"/></svg>