<svg width="192" height="192" viewBox="0 0 192 192" fill="none" xmlns="http://www.w3.org/2000/svg"><path d="M59 81v30M44 96h30M59 59h74m-74 0a37 37 0 1 0 24.504 64.723c1.202-1.063 2.724-1.723 4.328-1.723h16.336c1.604 0 3.126.66 4.328 1.723a37.005 37.005 0 0 0 43.004 4.32A37.005 37.005 0 0 0 165.043 77.5 36.995 36.995 0 0 0 133 59" stroke="#000" stroke-width="12" stroke-linecap="round" stroke-linejoin="round"/><circle cx="142" cy="87" r="4" stroke="#000" stroke-width="8" stroke-linecap="round" stroke-linejoin="round"/><circle cx="124" cy="105" r="4" stroke="#000" stroke-width="8" stroke-linecap="round" stroke-linejoin="round"/></svg>