<svg width="192" height="192" viewBox="0 0 192 192" fill="none" xmlns="http://www.w3.org/2000/svg"><circle cx="51" cy="116" r="4" stroke="#000" stroke-width="8" stroke-linecap="round" stroke-linejoin="round"/><circle cx="68" cy="133" r="4" stroke="#000" stroke-width="8" stroke-linecap="round" stroke-linejoin="round"/><circle cx="85" cy="116" r="4" stroke="#000" stroke-width="8" stroke-linecap="round" stroke-linejoin="round"/><circle cx="68" cy="99" r="4" stroke="#000" stroke-width="8" stroke-linecap="round" stroke-linejoin="round"/><rect x="22" y="68" width="148" height="96" rx="6" stroke="#000" stroke-width="12" stroke-linecap="round" stroke-linejoin="round"/><path d="M159 68V52a6 6 0 0 0-6-6H39a6 6 0 0 0-6 6v16m83 29h28m-28 19h28m-28 19h28m5-89V33a6 6 0 0 0-6-6H49a6 6 0 0 0-6 6v13" stroke="#000" stroke-width="10" stroke-linecap="round" stroke-linejoin="round"/></svg>