<svg width="192" height="192" viewBox="0 0 192 192" fill="none" xmlns="http://www.w3.org/2000/svg"><circle cx="137" cy="87" r="3" stroke="#000" stroke-width="6" stroke-linecap="round" stroke-linejoin="round"/><circle cx="147" cy="106" r="3" stroke="#000" stroke-width="6" stroke-linecap="round" stroke-linejoin="round"/><circle cx="127" cy="106" r="3" stroke="#000" stroke-width="6" stroke-linecap="round" stroke-linejoin="round"/><path d="M61 87v22M50 98h22" stroke="#000" stroke-width="10" stroke-linecap="round" stroke-linejoin="round"/><path d="M22 126a19.998 19.998 0 0 0 20 20c3.51 0 6.96-.924 10-2.679l44-27.833m3-33.076A17.996 17.996 0 0 1 108 98a17.997 17.997 0 0 1-9 15.588M33.375 57.153a11 11 0 0 1 16.125-6.68M99 113.59l-3 1.898M49.5 50.47 96 80.474m3 1.936-3-1.936M22 125.73l11.37-68.58M170 126a20.001 20.001 0 0 1-30 17.321l-44-27.833m62.625-58.335a10.997 10.997 0 0 0-11.344-8.13 11 11 0 0 0-4.781 1.45m0-.003L96 80.474m74 45.256-11.37-68.58M45 49h102" stroke="#000" stroke-width="12" stroke-linecap="round" stroke-linejoin="round"/></svg>