<?xml version="1.0" encoding="utf-8"?>
	<svg version="1.1" xmlns="http://www.w3.org/2000/svg" xmlns:xlink="http://www.w3.org/1999/xlink" x="0px" y="0px" width="240.0" height="240.0" xml:space="preserve">
		<path d="M113.313,149.396H87.214V220H39V20H117.709C141.427,20 159.971,25.266 173.341,35.797C186.711,46.328 193.396,61.209 193.396,80.44C193.396,94.359 190.557,105.897 184.879,115.055C179.293,124.212 170.502,131.63 158.505,137.308L200.264,217.94V220H148.615L113.313,149.396ZM87.214,112.17H117.709C126.866,112.17 133.734,109.789 138.313,105.027C142.984,100.174 145.319,93.443 145.319,84.835C145.319,76.227 142.984,69.496 138.313,64.643C133.643,59.698 126.775,57.225 117.709,57.225H87.214V112.17Z" fill="#000" stroke="" stroke-width="" stroke-miterlimit=""/>
	</svg>
