<svg width="192" height="192" viewBox="0 0 192 192" fill="none" xmlns="http://www.w3.org/2000/svg"><path d="M105 87h65c0 35.898-29.102 65-65 65-35.9 0-65-29.102-65-65 0-35.9 29.1-65 65-65 17.95 0 34.2 7.276 45.962 19.038" stroke="#000" stroke-width="12" stroke-linecap="round" stroke-linejoin="round"/><path d="m53.649 116.873-31.075 37.998a6 6 0 0 0 .83 8.43l7.643 6.294a6 6 0 0 0 8.534-.927l30.518-38.882a6 6 0 0 1 4.093-2.263l12.407-1.304a6.005 6.005 0 0 0 4.036-2.191l11.556-14.272a6 6 0 0 0 1.305-4.403l-1.008-9.583a2.849 2.849 0 0 0-5.048-1.495l-5.763 7.117a6 6 0 0 1-8.347.96l-4.95-3.851a6 6 0 0 1-1.127-8.323l5.54-7.429a2.902 2.902 0 0 0-2.63-4.62l-9.105.956a6 6 0 0 0-4.036 2.191L55.02 96.097a6 6 0 0 0-1.304 4.403l1.255 11.947a6.002 6.002 0 0 1-1.322 4.426Z" stroke="#000" stroke-width="8" stroke-linejoin="round"/></svg>