<svg xmlns="http://www.w3.org/2000/svg" width="192" height="192" fill="none" stroke="#000" stroke-linecap="round" stroke-linejoin="round" stroke-width="12" viewBox="0 0 192 192"><path stroke-width="8" d="M116.55 112.62v1.9c0 7.12-.09 26.16 6.77 33a8.2 8.2 0 0 0 6 2.52h.18c.24 0 5.18.69 7.55-5.78a23.4 23.4 0 0 1 3.81-6.83v0a24.15 24.15 0 0 0 4.42-8.57c1.9-6.77 0-13.17-5.68-18.94-6.37-6.37-12.22-8.48-16.44-9a9.4 9.4 0 0 0-2.48 0 3.36 3.36 0 0 0-1.79.8h0A4.73 4.73 0 0 0 117 105a67 67 0 0 0-.46 7.65"/><path stroke-width="8" d="M138.11 141.88c-.82-3.25-7.24-28.08-20.5-38.73m6.97-66.53c-7.48 6.58-8.48 25.8-8.84 33l-.09 1.38a85 85 0 0 0 .22 10.91 4.9 4.9 0 0 0 1.13 2.7h0a5.44 5.44 0 0 0 3.94 2C126 86.87 134 85.05 141.27 74c3.88-6.23 5.42-11.82 4.33-16.7a13.6 13.6 0 0 0-3.54-6.62 11 11 0 0 1-.8-.87l-.17-.21a12.9 12.9 0 0 1-2.56-5.6c-1.75-8.62-7.48-9.44-7.72-9.52h-.7a8 8 0 0 0-5.53 2.2"/><path stroke-width="8" d="M116.19 83.29c16.6-13.71 22.35-34.37 23-37.08"/><path d="M46 56.82c-.09 4.79 1.71 9.57 5.14 14.08A36.9 36.9 0 0 0 66 82.08C79.9 88 89.42 87 94.6 85.39a9.92 9.92 0 0 0 5.65-4.6h0a10 10 0 0 0 1.09-3 38.7 38.7 0 0 0 .65-7c-.46-26.62-9.21-45.2-22.65-48.45a11.6 11.6 0 0 0-2.82-.34 9.67 9.67 0 0 0-5.12 1.44c-3.68 2.31-5.8 6.76-6.87 9.65a10.4 10.4 0 0 1-2 3.37h0a16.7 16.7 0 0 1-4.77 3.58C50.21 44 46 49.84 46 56.82"/><path d="M98.44 83.12a89.9 89.9 0 0 0-38.72-44.25M61.84 112c-10.2 6.68-15.43 14.25-14.89 21.83.42 6.34 4.91 12.43 12.21 16.74a15 15 0 0 1 3.51 2.87h0a17.1 17.1 0 0 1 3.14 5.08c1.73 4.35 5.62 11.48 12.63 11.48 10.19 0 16.42-14.16 16.51-14.34v-.09c.53-1.06 11.65-25.46 7-47.36a9.5 9.5 0 0 0-1.17-2.9h0a7.25 7.25 0 0 0-5.35-3.46 29 29 0 0 0-3.76-.23c-6.59 0-16.83 1.92-29.86 10.37"/><path d="M60.87 151.74c3.34-2.07 24.25-15.85 38.05-48.51"/></svg>