<svg xmlns="http://www.w3.org/2000/svg" width="192" height="192" fill="none"><path stroke="#000" stroke-linecap="round" stroke-linejoin="round" stroke-width="12" d="M44.328 116.293C40.811 105.738 39 94.425 39 83a61.001 61.001 0 0 1 113.198-31.566C141.306 62.624 132 78 132 78s-9-10-25-10c-11 0-32 10-32 34s18 37 30 37 13-9.5 13-12c0-10-12-16-12-16l37-7c-3.423 18.826-3.917 34.723 6.038 53.958a71 71 0 0 1-13.25 6.942A72.7 72.7 0 0 1 109 170c-9.192 0-18.295-2.25-26.788-6.622-8.493-4.373-16.21-10.781-22.71-18.86s-11.656-17.669-15.174-28.225"/></svg>