<svg width="192" height="192" fill="none" xmlns="http://www.w3.org/2000/svg"><path d="M94 22v94m40-94v94" stroke="#000" stroke-width="12" stroke-linecap="round" stroke-linejoin="round"/><path d="M114 92v24m0-76v24" stroke="#000" stroke-width="10" stroke-linecap="round" stroke-linejoin="round"/><path d="M80 102h14m40-40h32m-32 40h32" stroke="#000" stroke-width="12" stroke-linecap="round" stroke-linejoin="round"/><path d="M153 82h10" stroke="#000" stroke-width="10" stroke-linecap="round" stroke-linejoin="round"/><path d="M134 116a54.002 54.002 0 0 1-36.642 51.134A54 54 0 1 1 93.976 63.84" stroke="#000" stroke-width="12" stroke-linecap="round" stroke-linejoin="round"/><path d="M94 116a14 14 0 1 1-14-14" stroke="#000" stroke-width="12" stroke-linecap="round" stroke-linejoin="round"/><path d="M97 145.445a34.001 34.001 0 0 1-27 3.051m23.182-63.837A34 34 0 0 0 70 83.504M49.016 130a34 34 0 0 1 0-28" stroke="#000" stroke-width="10" stroke-linecap="round" stroke-linejoin="round"/></svg>