<?xml version="1.0" encoding="UTF-8" standalone="no"?>
<!-- Created with Inkscape (http://www.inkscape.org/) -->

<svg
   width="192"
   height="192"
   viewBox="0 0 50.799999 50.8"
   version="1.1"
   id="svg5"
   xml:space="preserve"
   xmlns="http://www.w3.org/2000/svg"
   xmlns:svg="http://www.w3.org/2000/svg"><defs
     id="defs2" /><g
     id="layer1"><path
       id="path1165"
       style="opacity:1;fill:none;fill-rule:evenodd;stroke:#000000;stroke-width:3.175;stroke-linecap:round;stroke-linejoin:round;stroke-miterlimit:0"
       d="m 18.254263,21.872402 a 8.9958057,8.9959211 0 0 1 2.779857,-0.440291 m 3.572129,-8e-4 h -3.439582 m -8.41323,12.673031 a 8.9958057,8.9959211 0 0 1 0.06261,-7.173957 m 12.434376,11.698843 a 8.9958057,8.9959211 0 0 1 -7.160758,0.437976 m 24.508251,-17.635891 -3.175,-3e-6 M 24.606248,26.987561 H 20.88029 m 3.725958,3.571904 a 3.5719032,3.5719054 0 0 1 -3.565669,3.5719 3.5719032,3.5719054 0 0 1 -3.578115,-3.559431 3.5719032,3.5719054 0 0 1 3.553179,-3.584325 m 3.590606,-11.112546 h -3.725958 m 23.305125,11.1125 -8.466667,-3e-6 m 8.466667,-11.112496 -8.466667,-3e-6 m 7.8e-5,14.551922 A 14.552121,14.552121 0 0 1 21.192104,44.979082 14.552121,14.552121 0 0 1 6.6146736,30.477779 14.552121,14.552121 0 0 1 21.090511,15.875061 M 24.606249,5.8208944 V 30.844798 M 35.718749,5.8208946 V 30.844797 m -5.55625,-6.50307 v 6.247628 m 0,-20.138252 v 6.247628" /></g></svg>
