<svg xmlns="http://www.w3.org/2000/svg" width="192" height="192" viewBox="0 0 50.8 50.8"><path fill="none" stroke="#000" stroke-linecap="round" stroke-width="3.175" d="M18.254 21.872a9 9 0 0 1 2.78-.44m3.572 0h-3.44m-8.413 12.672a9 9 0 0 1 .063-7.174m12.434 11.7a9 9 0 0 1-7.16.437m24.508-17.636h-3.175m-14.817 5.557H20.88m3.726 3.571a3.572 3.572 0 0 1-7.144.012 3.57 3.57 0 0 1 3.554-3.583m3.59-11.113H20.88m23.305 11.113H35.72m8.466-11.113H35.72m0 14.552a14.552 14.552 0 0 1-29.105.051A14.55 14.55 0 0 1 21.09 15.875m3.515-10.054v25.024M35.72 5.82v25.024m-5.557-6.503v6.247m0-20.138v6.25"/></svg>