<svg width="192" height="192" viewBox="0 0 192 192" fill="none" xmlns="http://www.w3.org/2000/svg"><path d="M102 80a16.001 16.001 0 0 0-11.314 27.314A16.01 16.01 0 0 0 102 112m63-2a29.991 29.991 0 0 0-8.787-21.213A30.002 30.002 0 0 0 135 80" stroke="#000" stroke-width="12" stroke-linecap="round" stroke-linejoin="round"/><path d="M96 59a37 37 0 1 0 33.362 53H102m0-32h33M96 59c24 0 34 21 34 21M96 22c14 0 61 4 61 33m3.09 78c4.91-10 4.91-19 4.91-23.5" stroke="#000" stroke-width="12" stroke-linecap="round" stroke-linejoin="round"/><path d="M96 22a74 74 0 1 0 64.086 111M132 80a24.999 24.999 0 0 0 25-25" stroke="#000" stroke-width="12" stroke-linecap="round" stroke-linejoin="round"/></svg>