<svg xmlns="http://www.w3.org/2000/svg" width="192" height="192" fill="none" viewBox="0 0 192 192"><path stroke="#000" stroke-linecap="round" stroke-linejoin="round" stroke-width="12" d="M82 28a6 6 0 0 1 6-6h68a6 6 0 0 1 6 6v136a6 6 0 0 1-6 6H88a6 6 0 0 1-6-6z"/><path stroke="#000" stroke-linecap="round" stroke-linejoin="round" stroke-width="10" d="M101 50a6 6 0 0 1 6-6h30a6 6 0 0 1 6 6v22a6 6 0 0 1-6 6h-30a6 6 0 0 1-6-6zM58 61v90c0 17-13 20-18 20s-18-3-18-18c0-11.188 19.992-46.713 22.698-51.471a6 6 0 0 0 .495-1.123zm0 0h23m-23 0V48.416c0-.931.217-1.85.633-2.683l4.709-9.416A6 6 0 0 1 68.708 33H81"/></svg>