<svg width="192" height="192" viewBox="0 0 192 192" fill="none" xmlns="http://www.w3.org/2000/svg">
<path d="M22 95.9274C21.9801 59.3612 46.2735 27.47 83.8801 22.5595C87.2793 22.1157 90.1599 24.8706 90.1599 28.2986V50.5837C90.1599 53.6274 87.8635 56.1433 84.9069 56.8661C66.7125 61.3144 53.9658 77.1353 53.9841 95.9259C54.006 118.158 72.5849 136.167 95.4885 136.157C114.828 136.148 131.094 122.287 135.688 104.849C136.46 101.92 138.967 99.6451 141.996 99.6451H163.626C167.082 99.6451 169.846 102.57 169.363 105.992C164.013 143.877 132.112 169.384 95.4887 169.394C54.9209 169.405 22.022 136.516 22 95.9274Z" stroke="black" stroke-width="11.9997" stroke-linecap="round" stroke-linejoin="round"/>
<mask id="path-2-inside-1_31_156" fill="white">
<rect x="93" y="55" width="43" height="43" rx="6"/>
</mask>
<rect x="93" y="55" width="43" height="43" rx="6" stroke="black" stroke-width="24" mask="url(#path-2-inside-1_31_156)"/>
</svg>
