<svg width="192" height="192" viewBox="0 0 192 192" fill="none" xmlns="http://www.w3.org/2000/svg">
<path fill-rule="evenodd" clip-rule="evenodd" d="M50.4348 106.708L59.6364 112.623V117.818C59.6364 119.425 60.9388 120.727 62.5455 120.727H72.2424L88.7057 131.311C87.8481 131.817 87.2727 132.75 87.2727 133.818V145.455C87.2727 147.061 88.5752 148.364 90.1818 148.364H101.818C103.425 148.364 104.727 147.061 104.727 145.455V133.818C104.727 132.75 104.152 131.817 103.294 131.311L119.758 120.727H129.455C131.061 120.727 132.364 119.425 132.364 117.818V112.623L141.565 106.708C141.908 106.488 142.237 106.251 142.551 105.999C142.547 106.06 142.545 106.12 142.545 106.182V117.818C142.545 119.425 143.848 120.727 145.455 120.727H157.091C158.698 120.727 160 119.425 160 117.818V106.182C160 104.575 158.698 103.273 157.091 103.273H145.455C145.299 103.273 145.147 103.285 144.999 103.308C146.226 101.439 146.909 99.2253 146.909 96.9198V27.6364C146.909 21.2098 141.699 16 135.273 16H56.7273C50.3007 16 45.0909 21.2098 45.0909 27.6364V96.9198C45.0909 99.2253 45.7735 101.439 47.0013 103.308C46.8528 103.285 46.7005 103.273 46.5455 103.273H34.9091C33.3024 103.273 32 104.575 32 106.182V117.818C32 119.425 33.3024 120.727 34.9091 120.727H46.5455C48.1521 120.727 49.4545 119.425 49.4545 117.818V106.182C49.4545 106.12 49.4526 106.06 49.4489 105.999C49.7631 106.251 50.092 106.488 50.4348 106.708ZM134.909 96.7213V28H57.0909V96.7213L96 121.734L134.909 96.7213Z" fill="black"/>
<path d="M34.9091 130.909C33.3024 130.909 32 132.212 32 133.818V145.455C32 147.061 33.3024 148.364 34.9091 148.364H46.5455C48.1521 148.364 49.4545 147.061 49.4545 145.455V133.818C49.4545 132.212 48.1521 130.909 46.5455 130.909H34.9091Z" fill="black"/>
<path d="M59.6364 133.818C59.6364 132.212 60.9388 130.909 62.5455 130.909H74.1818C75.7885 130.909 77.0909 132.212 77.0909 133.818V145.455C77.0909 147.061 75.7885 148.364 74.1818 148.364H62.5455C60.9388 148.364 59.6364 147.061 59.6364 145.455V133.818Z" fill="black"/>
<path d="M49.4545 161.455C49.4545 159.848 50.757 158.545 52.3636 158.545H141.091C142.698 158.545 144 159.848 144 161.455V173.091C144 174.698 142.698 176 141.091 176H52.3636C50.757 176 49.4545 174.698 49.4545 173.091V161.455Z" fill="black"/>
<path d="M117.818 130.909C116.212 130.909 114.909 132.212 114.909 133.818V145.455C114.909 147.061 116.212 148.364 117.818 148.364H129.455C131.061 148.364 132.364 147.061 132.364 145.455V133.818C132.364 132.212 131.061 130.909 129.455 130.909H117.818Z" fill="black"/>
<path d="M142.545 133.818C142.545 132.212 143.848 130.909 145.455 130.909H157.091C158.698 130.909 160 132.212 160 133.818V145.455C160 147.061 158.698 148.364 157.091 148.364H145.455C143.848 148.364 142.545 147.061 142.545 145.455V133.818Z" fill="black"/>
<path fill-rule="evenodd" clip-rule="evenodd" d="M96 48.7273C86.1593 48.7273 78.1818 56.7047 78.1818 66.5455C78.1818 76.3861 86.1593 84.3636 96 84.3636C104.465 84.3636 111.552 78.4601 113.367 70.5455H96C93.7909 70.5455 92 68.7546 92 66.5455C92 64.3363 93.7909 62.5455 96 62.5455H117.818C120.027 62.5455 121.818 64.3363 121.818 66.5455C121.818 80.8044 110.259 92.3636 96 92.3636C81.741 92.3636 70.1818 80.8044 70.1818 66.5455C70.1818 52.2865 81.741 40.7273 96 40.7273C103.128 40.7273 109.589 43.6214 114.256 48.2893C115.818 49.8514 115.818 52.3841 114.256 53.9461C112.694 55.5082 110.161 55.5082 108.599 53.9461C105.371 50.7173 100.922 48.7273 96 48.7273Z" fill="black"/>
</svg>
