<svg xmlns="http://www.w3.org/2000/svg" width="192" height="192" fill="none" viewBox="0 0 192 192"><path stroke="#000" stroke-linecap="round" stroke-linejoin="round" stroke-width="12" d="M32 53.566v84.868a5.97 5.97 0 0 0 3.544 5.466l58.092 25.602a5.86 5.86 0 0 0 4.728 0l58.092-25.602a5.97 5.97 0 0 0 3.544-5.466V53.566a5.97 5.97 0 0 0-3.544-5.466L98.364 22.498a5.86 5.86 0 0 0-4.728 0L35.544 48.1A5.97 5.97 0 0 0 32 53.566"/><path stroke="#000" stroke-linecap="round" stroke-linejoin="round" stroke-width="12" d="M158 84 98.47 57.115a6 6 0 0 0-4.94 0l-20 9.032A6 6 0 0 0 70 71.616v48.768a6 6 0 0 0 3.53 5.468l20 9.033a6 6 0 0 0 4.94 0l20-9.033a6 6 0 0 0 3.53-5.468V109"/></svg>