<svg xmlns="http://www.w3.org/2000/svg" width="192" height="192" fill="none" stroke-linecap="round" stroke-width="12" viewBox="0 0 192 192"><path stroke="#000" stroke-linejoin="round" d="M84 96h36c0 19.882-16.118 36-36 36s-36-16.118-36-36 16.118-36 36-36c9.941 0 18.941 4.03 25.456 10.544"/><path fill="#000" d="M145.315 66.564a6 6 0 0 0-10.815 5.2zM134.5 120.235a6 6 0 0 0 10.815 5.201zm-16.26-68.552a6 6 0 1 0 7.344-9.49zm7.344 98.124a6 6 0 0 0-7.344-9.49zM84 152a56 56 0 0 1-56-56H16a68 68 0 0 0 68 68zM28 96a56 56 0 0 1 56-56V28a68 68 0 0 0-68 68zm106.5-24.235C138.023 79.09 140 87.306 140 96h12c0-10.532-2.399-20.522-6.685-29.436l-10.815 5.2zM140 96c0 8.694-1.977 16.909-5.5 24.235l10.815 5.201C149.601 116.522 152 106.532 152 96zM84 40c12.903 0 24.772 4.357 34.24 11.683l7.344-9.49A67.73 67.73 0 0 0 84 28zm34.24 100.317C108.772 147.643 96.903 152 84 152v12a67.73 67.73 0 0 0 41.584-14.193z"/><path stroke="#000" d="M161.549 58.776C166.965 70.04 170 82.666 170 96s-3.035 25.96-8.451 37.223"/></svg>