<svg width="192" height="192" viewBox="0 0 192 192" fill="none" xmlns="http://www.w3.org/2000/svg"><path d="M51.843 112.136C58.426 130.145 75.712 143 96 143c20.288 0 37.574-12.855 44.157-30.864m-88.314 0A46.909 46.909 0 0 1 49 96c0-5.67 1.004-11.104 2.843-16.136C58.426 61.854 75.712 49 96 49c20.288 0 37.574 12.855 44.157 30.864A46.918 46.918 0 0 1 143 96a46.918 46.918 0 0 1-2.843 16.136m-88.314 0c-3.125-2.796-9.179-8.568-15.022-16.136m103.336 16.136c3.125-2.796 9.179-8.568 15.022-16.136M36.821 96C29.233 86.171 22 73.312 22 60c0-28 33.5-36 74-36s74 8 74 36c0 13.312-7.233 26.171-14.821 36M36.821 96C29.233 105.829 22 118.688 22 132c0 28 33.5 36 74 36s74-8 74-36c0-13.312-7.233-26.171-14.821-36" stroke="#000" stroke-width="12" stroke-linecap="round" stroke-linejoin="round"/><ellipse cx="96" cy="96" rx="23" ry="17" stroke="#000" stroke-width="12" stroke-linecap="round" stroke-linejoin="round"/></svg>