<?xml version="1.0" encoding="UTF-8" standalone="no"?>
<svg
   viewBox="0 0 64 64"
   width="24px"
   height="24px"
   version="1.1"
   id="svg16"
   sodipodi:docname="geekbench.svg"
   inkscape:version="1.1.1 (3bf5ae0d25, 2021-09-20)"
   xmlns:inkscape="http://www.inkscape.org/namespaces/inkscape"
   xmlns:sodipodi="http://sodipodi.sourceforge.net/DTD/sodipodi-0.dtd"
   xmlns="http://www.w3.org/2000/svg"
   xmlns:svg="http://www.w3.org/2000/svg">
  <defs
     id="defs20">
    <inkscape:path-effect
       effect="simplify"
       id="path-effect8885"
       is_visible="true"
       lpeversion="1"
       steps="1"
       threshold="0.00961538"
       smooth_angles="360"
       helper_size="0"
       simplify_individual_paths="false"
       simplify_just_coalesce="false" />
    <inkscape:path-effect
       effect="simplify"
       id="path-effect8881"
       is_visible="true"
       lpeversion="1"
       steps="1"
       threshold="0.00961538"
       smooth_angles="360"
       helper_size="0"
       simplify_individual_paths="false"
       simplify_just_coalesce="false" />
    <inkscape:path-effect
       effect="simplify"
       id="path-effect8877"
       is_visible="true"
       lpeversion="1"
       steps="1"
       threshold="0.00961538"
       smooth_angles="360"
       helper_size="0"
       simplify_individual_paths="false"
       simplify_just_coalesce="false" />
    <inkscape:path-effect
       effect="simplify"
       id="path-effect8873"
       is_visible="true"
       lpeversion="1"
       steps="1"
       threshold="0.00961538"
       smooth_angles="360"
       helper_size="0"
       simplify_individual_paths="false"
       simplify_just_coalesce="false" />
    <inkscape:path-effect
       effect="simplify"
       id="path-effect8869"
       is_visible="true"
       lpeversion="1"
       steps="1"
       threshold="0.0277778"
       smooth_angles="360"
       helper_size="0"
       simplify_individual_paths="false"
       simplify_just_coalesce="false" />
    <inkscape:path-effect
       effect="simplify"
       id="path-effect8865"
       is_visible="true"
       lpeversion="1"
       steps="1"
       threshold="0.0277778"
       smooth_angles="360"
       helper_size="0"
       simplify_individual_paths="false"
       simplify_just_coalesce="false" />
    <inkscape:path-effect
       effect="simplify"
       id="path-effect8861"
       is_visible="true"
       lpeversion="1"
       steps="1"
       threshold="0.0277778"
       smooth_angles="360"
       helper_size="0"
       simplify_individual_paths="false"
       simplify_just_coalesce="false" />
    <inkscape:path-effect
       effect="simplify"
       id="path-effect8857"
       is_visible="true"
       lpeversion="1"
       steps="1"
       threshold="0.0277778"
       smooth_angles="360"
       helper_size="0"
       simplify_individual_paths="false"
       simplify_just_coalesce="false" />
    <inkscape:path-effect
       effect="skeletal"
       id="path-effect8624"
       is_visible="true"
       lpeversion="1"
       pattern="M 0,50.314465 C 0,22.540881 22.540881,0 50.314465,0 78.08805,0 100.62893,22.540881 100.62893,50.314465 c 0,27.773585 -22.54088,50.314465 -50.314465,50.314465 C 22.540881,100.62893 0,78.08805 0,50.314465 Z"
       copytype="single_stretched"
       prop_scale="1"
       scale_y_rel="false"
       spacing="0"
       normal_offset="0"
       tang_offset="0"
       prop_units="false"
       vertical_pattern="false"
       hide_knot="false"
       fuse_tolerance="0" />
    <inkscape:path-effect
       effect="skeletal"
       id="path-effect8620"
       is_visible="true"
       lpeversion="1"
       pattern="M 0,50.314465 C 0,22.540881 22.540881,0 50.314465,0 78.08805,0 100.62893,22.540881 100.62893,50.314465 c 0,27.773585 -22.54088,50.314465 -50.314465,50.314465 C 22.540881,100.62893 0,78.08805 0,50.314465 Z"
       copytype="single_stretched"
       prop_scale="1"
       scale_y_rel="false"
       spacing="0"
       normal_offset="0"
       tang_offset="0"
       prop_units="false"
       vertical_pattern="false"
       hide_knot="false"
       fuse_tolerance="0" />
    <inkscape:path-effect
       effect="skeletal"
       id="path-effect8616"
       is_visible="true"
       lpeversion="1"
       pattern="M 0,50.314465 C 0,22.540881 22.540881,0 50.314465,0 78.08805,0 100.62893,22.540881 100.62893,50.314465 c 0,27.773585 -22.54088,50.314465 -50.314465,50.314465 C 22.540881,100.62893 0,78.08805 0,50.314465 Z"
       copytype="single_stretched"
       prop_scale="1"
       scale_y_rel="false"
       spacing="0"
       normal_offset="0"
       tang_offset="0"
       prop_units="false"
       vertical_pattern="false"
       hide_knot="false"
       fuse_tolerance="0" />
    <inkscape:path-effect
       effect="skeletal"
       id="path-effect8612"
       is_visible="true"
       lpeversion="1"
       pattern="M 0,50.314465 C 0,22.540881 22.540881,0 50.314465,0 78.08805,0 100.62893,22.540881 100.62893,50.314465 c 0,27.773585 -22.54088,50.314465 -50.314465,50.314465 C 22.540881,100.62893 0,78.08805 0,50.314465 Z"
       copytype="single_stretched"
       prop_scale="1"
       scale_y_rel="false"
       spacing="0"
       normal_offset="0"
       tang_offset="0"
       prop_units="false"
       vertical_pattern="false"
       hide_knot="false"
       fuse_tolerance="0" />
    <inkscape:path-effect
       effect="skeletal"
       id="path-effect8608"
       is_visible="true"
       lpeversion="1"
       pattern="M 0,50.314465 C 0,22.540881 22.540881,0 50.314465,0 78.08805,0 100.62893,22.540881 100.62893,50.314465 c 0,27.773585 -22.54088,50.314465 -50.314465,50.314465 C 22.540881,100.62893 0,78.08805 0,50.314465 Z"
       copytype="single_stretched"
       prop_scale="1"
       scale_y_rel="false"
       spacing="0"
       normal_offset="0"
       tang_offset="0"
       prop_units="false"
       vertical_pattern="false"
       hide_knot="false"
       fuse_tolerance="0" />
    <inkscape:path-effect
       effect="skeletal"
       id="path-effect8604"
       is_visible="true"
       lpeversion="1"
       pattern="M 0,50.314465 C 0,22.540881 22.540881,0 50.314465,0 78.08805,0 100.62893,22.540881 100.62893,50.314465 c 0,27.773585 -22.54088,50.314465 -50.314465,50.314465 C 22.540881,100.62893 0,78.08805 0,50.314465 Z"
       copytype="single_stretched"
       prop_scale="1"
       scale_y_rel="false"
       spacing="0"
       normal_offset="0"
       tang_offset="0"
       prop_units="false"
       vertical_pattern="false"
       hide_knot="false"
       fuse_tolerance="0" />
    <inkscape:path-effect
       effect="skeletal"
       id="path-effect8600"
       is_visible="true"
       lpeversion="1"
       pattern="M 0,50.314465 C 0,22.540881 22.540881,0 50.314465,0 78.08805,0 100.62893,22.540881 100.62893,50.314465 c 0,27.773585 -22.54088,50.314465 -50.314465,50.314465 C 22.540881,100.62893 0,78.08805 0,50.314465 Z"
       copytype="single_stretched"
       prop_scale="1"
       scale_y_rel="false"
       spacing="0"
       normal_offset="0"
       tang_offset="0"
       prop_units="false"
       vertical_pattern="false"
       hide_knot="false"
       fuse_tolerance="0" />
    <inkscape:path-effect
       effect="skeletal"
       id="path-effect8596"
       is_visible="true"
       lpeversion="1"
       pattern="M 0,50.314465 C 0,22.540881 22.540881,0 50.314465,0 78.08805,0 100.62893,22.540881 100.62893,50.314465 c 0,27.773585 -22.54088,50.314465 -50.314465,50.314465 C 22.540881,100.62893 0,78.08805 0,50.314465 Z"
       copytype="single_stretched"
       prop_scale="1"
       scale_y_rel="false"
       spacing="0"
       normal_offset="0"
       tang_offset="0"
       prop_units="false"
       vertical_pattern="false"
       hide_knot="false"
       fuse_tolerance="0" />
    <inkscape:path-effect
       effect="skeletal"
       id="path-effect8592"
       is_visible="true"
       lpeversion="1"
       pattern="M 0,50.314465 C 0,22.540881 22.540881,0 50.314465,0 78.08805,0 100.62893,22.540881 100.62893,50.314465 c 0,27.773585 -22.54088,50.314465 -50.314465,50.314465 C 22.540881,100.62893 0,78.08805 0,50.314465 Z"
       copytype="single_stretched"
       prop_scale="1"
       scale_y_rel="false"
       spacing="0"
       normal_offset="0"
       tang_offset="0"
       prop_units="false"
       vertical_pattern="false"
       hide_knot="false"
       fuse_tolerance="0" />
    <inkscape:path-effect
       effect="skeletal"
       id="path-effect8588"
       is_visible="true"
       lpeversion="1"
       pattern="M 0,50.314465 C 0,22.540881 22.540881,0 50.314465,0 78.08805,0 100.62893,22.540881 100.62893,50.314465 c 0,27.773585 -22.54088,50.314465 -50.314465,50.314465 C 22.540881,100.62893 0,78.08805 0,50.314465 Z"
       copytype="single_stretched"
       prop_scale="1"
       scale_y_rel="false"
       spacing="0"
       normal_offset="0"
       tang_offset="0"
       prop_units="false"
       vertical_pattern="false"
       hide_knot="false"
       fuse_tolerance="0" />
  </defs>
  <sodipodi:namedview
     id="namedview18"
     pagecolor="#ffffff"
     bordercolor="#666666"
     borderopacity="1.0"
     inkscape:pageshadow="2"
     inkscape:pageopacity="0.0"
     inkscape:pagecheckerboard="0"
     showgrid="false"
     inkscape:zoom="8"
     inkscape:cx="7.0625"
     inkscape:cy="16.8125"
     inkscape:window-width="1920"
     inkscape:window-height="1009"
     inkscape:window-x="-8"
     inkscape:window-y="-8"
     inkscape:window-maximized="1"
     inkscape:current-layer="svg16"
     showguides="true" />
  <linearGradient
     id="AQp1CkUOovhRSREXJZOJma"
     x1="32.005"
     x2="32.005"
     y1="17"
     y2="53"
     gradientUnits="userSpaceOnUse"
     spreadMethod="reflect">
    <stop
       offset="0"
       stop-color="#1a6dff"
       id="stop2" />
    <stop
       offset="1"
       stop-color="#c822ff"
       id="stop4" />
  </linearGradient>
  <linearGradient
     id="AQp1CkUOovhRSREXJZOJmb"
     x1="29.93"
     x2="29.93"
     y1="19"
     y2="41.8"
     gradientUnits="userSpaceOnUse"
     spreadMethod="reflect">
    <stop
       offset="0"
       stop-color="#6dc7ff"
       id="stop9" />
    <stop
       offset="1"
       stop-color="#e6abff"
       id="stop11" />
  </linearGradient>
  <path
     style="fill:none;stroke:#000000;stroke-width:0.999999;stroke-linecap:butt;stroke-linejoin:miter;stroke-miterlimit:4;stroke-dasharray:none;stroke-opacity:1"
     d="M 30.848595,17.690955 H 44.617021 Z"
     id="path16514" />
  <path
     id="rect16756"
     style="fill:#000000;stroke:#ffffff;stroke-width:0;stroke-linecap:butt;stroke-linejoin:miter;stroke-miterlimit:4;stroke-dasharray:none;paint-order:markers fill stroke"
     d="M 19.178181,7.3866672 V 38.908727 c 0.172603,0.0076 0.225971,0.0064 0.426958,0.01563 0.816641,0.03768 1.772349,0.08772 2.514892,0.124962 0.64204,0.03219 2.645883,0.234573 3.592703,0.390512 0.399761,0.06583 1.319098,0.197508 2.10876,0.369684 0.142037,0.03094 0.460124,0.07483 0.812264,0.109342 0.140586,0.01352 0.30725,0.02111 0.494648,0.03645 0.128622,0.0095 0.251415,0.01242 0.380097,0.02082 V 7.3866672 Z m 26.78386,4.6184448 v 26.856754 c 0.702392,9.73e-4 1.821397,-0.02238 2.889781,-0.01561 1.456568,0.0086 2.785574,0.04944 3.196985,0.06248 1.227599,0.03879 2.852204,0.09442 4.248762,0.270756 v -27.17438 z m -11.454995,7.81543 v 20.145167 c 0.0054,-3.92e-4 0.01022,3.95e-4 0.01562,0 0.360236,-0.03004 0.703623,-0.06028 1.03095,-0.09893 0.149213,-0.02098 0.28923,-0.04198 0.359268,-0.05727 0.789722,-0.1722 1.709174,-0.303853 2.108762,-0.369684 0.946854,-0.155944 2.951638,-0.358266 3.592702,-0.390512 0.741968,-0.0372 1.698646,-0.08732 2.514893,-0.124962 0.335401,-0.01553 0.457926,-0.01552 0.713334,-0.02603 V 19.820542 Z M 7.7492203,26.323854 v 12.824388 c 1.3238831,-0.147499 2.7971067,-0.203488 3.9363527,-0.239515 0.40936,-0.01286 1.739822,-0.05428 3.196985,-0.06248 1.103079,-0.0065 2.292271,0.01781 2.988712,0.01561 0.04,-1.47e-4 0.161061,0.0046 0.208273,0.0052 V 26.323854 Z" />
  <path
     id="path16734"
     style="color:#000000;fill:#000000;stroke:#ffffff;stroke-width:0;stroke-miterlimit:4;stroke-dasharray:none"
     d="m 14.891678,40.177219 c -1.436939,0.008 -2.754475,0.04972 -3.164855,0.06261 -1.659232,0.05246 -4.1688884,0.177767 -5.3978263,0.485213 -0.3956667,0.099 -0.6381011,0.285489 -0.780829,0.500983 -0.1427278,0.215496 -0.1859431,0.45582 -0.2014203,0.661552 -0.055545,0.738309 0.063414,1.157106 0.3197633,1.483233 0.2563377,0.326128 0.6367552,0.556177 1.1038316,0.949756 0.5013838,0.422481 0.8372288,0.726881 1.0662504,1.000122 0.2290102,0.273229 0.3522119,0.513734 0.4343881,0.820508 0.6704469,2.502984 0.9790444,4.461141 1.4899518,6.031297 0.5109074,1.570155 1.2298514,2.754224 2.7109864,3.682548 0.418935,0.262577 1.128993,0.446637 2.013908,0.570364 0.884927,0.123726 1.943376,0.184471 3.049067,0.187265 2.211392,0.0057 4.610416,-0.219863 6.187003,-0.642297 1.53538,-0.411406 3.157601,-1.991725 4.259186,-4.749735 0.299278,-0.74928 0.541245,-1.81763 0.751596,-2.808193 0.210339,-0.990564 0.390831,-1.906708 0.553655,-2.32579 0.662144,-1.704282 2.615374,-1.598782 2.615374,-1.598782 h 0.0023 0.0023 c 0,0 1.886451,-0.08565 2.540885,1.598782 0.162813,0.419083 0.343315,1.335226 0.553655,2.32579 0.210351,0.990562 0.452317,2.058913 0.751597,2.808193 1.101584,2.75801 2.723566,4.338329 4.258945,4.749735 1.5766,0.422434 3.975851,0.647876 6.187244,0.642297 1.10569,-0.0023 2.163911,-0.06353 3.048826,-0.187265 0.884916,-0.123727 1.595213,-0.307788 2.014147,-0.570364 1.481124,-0.928324 2.200078,-2.112393 2.710974,-3.682548 0.510907,-1.570155 0.819289,-3.528313 1.489735,-6.031297 0.08212,-0.306774 0.205595,-0.547279 0.434616,-0.820508 0.229011,-0.273241 0.564639,-0.577641 1.066012,-1.000122 0.467075,-0.393579 0.847494,-0.623627 1.103831,-0.949756 0.256349,-0.326126 0.375536,-0.744923 0.319992,-1.483233 -0.01552,-0.205732 -0.05862,-0.446056 -0.20141,-0.661552 -0.142727,-0.215494 -0.385161,-0.401996 -0.780828,-0.500983 -1.228938,-0.307446 -3.738606,-0.432781 -5.397826,-0.485213 -0.410392,-0.01301 -1.727916,-0.05417 -3.164855,-0.06261 -1.07801,-0.0068 -2.254904,0.01847 -2.98572,0.01552 -0.183902,-9.24e-4 -0.852068,0.0276 -1.665619,0.06524 -0.813551,0.03752 -1.768187,0.08441 -2.509553,0.121583 -0.390034,0.01961 -2.660096,0.244372 -3.444711,0.373597 -0.436133,0.07185 -1.32788,0.200085 -2.040596,0.355496 -0.137915,0.03011 -0.304947,0.05611 -0.482655,0.08053 -0.359513,0.04255 -0.720506,0.07243 -1.081557,0.102535 -0.34099,0.02475 -0.687693,0.04995 -1.01682,0.06455 -0.907783,0.04015 -1.660726,0.04688 -1.661672,0.04688 0,0 -0.797298,-0.0068 -1.748912,-0.04688 -0.381159,-0.01608 -0.782449,-0.04277 -1.171603,-0.07151 -0.17528,-0.01449 -0.350901,-0.02532 -0.525804,-0.0422 -0.374076,-0.03661 -0.719764,-0.07939 -0.969954,-0.1339 -0.712715,-0.155399 -1.604462,-0.283665 -2.040595,-0.355485 -0.784616,-0.129224 -3.054917,-0.354048 -3.444939,-0.373597 -0.741366,-0.03718 -1.695774,-0.08406 -2.509325,-0.121594 -0.813552,-0.03752 -1.481945,-0.06592 -1.665848,-0.06524 -0.730815,0.0023 -1.907481,-0.02189 -2.985491,-0.01552 z m 3.641478,2.024821 c 0.258072,0.0023 0.517888,0.01027 0.778274,0.02133 2.083116,0.09284 4.196433,0.489533 5.663288,1.522674 1.291759,0.909825 1.686331,2.771126 1.498072,4.666645 -0.188258,1.89553 -0.961353,3.816893 -1.9624,4.817938 -0.826656,0.826668 -2.175339,1.237197 -3.52684,1.430792 -1.351512,0.193597 -2.703173,0.172121 -3.534517,0.149207 -1.101322,-0.03034 -3.609998,0.07163 -4.858315,-1.65054 -0.756272,-1.043354 -1.428692,-2.965551 -1.712483,-4.809356 -0.125221,-0.81354 -0.317095,-2.816521 -0.109037,-3.72014 0.150472,-0.653624 0.448304,-1.12086 0.941168,-1.459556 0.492875,-0.338696 1.185711,-0.547667 2.122282,-0.664116 1.176187,-0.146242 2.893964,-0.324726 4.700531,-0.304903 z m 26.612956,0 c 1.806567,-0.01984 3.524114,0.158662 4.700302,0.304903 0.936559,0.11645 1.629406,0.325421 2.122271,0.664117 0.492875,0.338696 0.790694,0.805932 0.941177,1.459556 0.208037,0.90362 0.0162,2.906601 -0.109036,3.720141 -0.28379,1.843805 -0.956221,3.766001 -1.712483,4.809361 -1.248316,1.722179 -3.757003,1.62018 -4.858325,1.65053 -0.831333,0.02292 -2.183221,0.04437 -3.534734,-0.149207 -1.351512,-0.193596 -2.699956,-0.604124 -3.526613,-1.430792 -1.001045,-1.001045 -1.774153,-2.922408 -1.9624,-4.817938 -0.188258,-1.895519 0.206314,-3.75682 1.498073,-4.666645 1.466856,-1.033141 3.580173,-1.429857 5.663277,-1.522674 0.260398,-0.01164 0.520431,-0.01847 0.778514,-0.02133 z" />
  <path
     style="fill:none;stroke:#000000;stroke-width:0.999999;stroke-linecap:butt;stroke-linejoin:miter;stroke-miterlimit:4;stroke-dasharray:none;stroke-opacity:1"
     d="m 30.841613,38.580698 h 2.332323 z"
     id="path17776" />
  <path
     style="fill:none;stroke:#000000;stroke-width:0.999999;stroke-linecap:butt;stroke-linejoin:miter;stroke-miterlimit:4;stroke-dasharray:none;stroke-opacity:1"
     d="m 57.634822,38.580697 h 1.031845 z"
     id="path17778" />
  <path
     style="fill:none;stroke:#000000;stroke-width:0.999999;stroke-linecap:butt;stroke-linejoin:miter;stroke-miterlimit:4;stroke-dasharray:none;stroke-opacity:1"
     d="M 5.3488785,38.580698 H 6.4112497 Z"
     id="path17862" />
  <path
     style="fill:none;stroke:#000000;stroke-width:0.999999;stroke-linecap:butt;stroke-linejoin:miter;stroke-miterlimit:4;stroke-dasharray:none;stroke-opacity:1"
     d="m 30.841613,28.327984 h 2.332323 z"
     id="path18104" />
  <path
     style="fill:none;stroke:#000000;stroke-width:0.999999;stroke-linecap:butt;stroke-linejoin:miter;stroke-miterlimit:4;stroke-dasharray:none;stroke-opacity:1"
     d="m 57.634822,28.327983 h 1.031845 z"
     id="path18106" />
  <path
     style="fill:none;stroke:#000000;stroke-width:0.999999;stroke-linecap:butt;stroke-linejoin:miter;stroke-miterlimit:4;stroke-dasharray:none;stroke-opacity:1"
     d="M 5.3488785,28.327984 H 6.4112497 Z"
     id="path18108" />
  <path
     style="fill:none;stroke:#000000;stroke-width:0.999999;stroke-linecap:butt;stroke-linejoin:miter;stroke-miterlimit:4;stroke-dasharray:none;stroke-opacity:1"
     d="M 5.3488784,17.690955 H 17.842784 Z"
     id="path18190" />
  <path
     style="fill:none;stroke:#000000;stroke-width:0.999999;stroke-linecap:butt;stroke-linejoin:miter;stroke-miterlimit:4;stroke-dasharray:none;stroke-opacity:1"
     d="m 57.634822,17.69303 h 1.031845 z"
     id="path18192" />
</svg>
