<svg xmlns="http://www.w3.org/2000/svg" width="192" height="192" fill="none" viewBox="0 0 192 192"><circle cx="4" cy="4" r="4" stroke="#000" stroke-linecap="round" stroke-linejoin="round" stroke-width="8" transform="matrix(-1 0 0 1 118 24)"/><circle cx="4" cy="4" r="4" stroke="#000" stroke-linecap="round" stroke-linejoin="round" stroke-width="8" transform="matrix(-1 0 0 1 157 59)"/><circle cx="4" cy="4" r="4" stroke="#000" stroke-linecap="round" stroke-linejoin="round" stroke-width="8" transform="matrix(-1 0 0 1 160 94)"/><circle cx="4" cy="4" r="4" stroke="#000" stroke-linecap="round" stroke-linejoin="round" stroke-width="8" transform="matrix(-1 0 0 1 114 94)"/><circle cx="4" cy="4" r="4" stroke="#000" stroke-linecap="round" stroke-linejoin="round" stroke-width="8" transform="matrix(-1 0 0 1 116 51)"/><circle cx="4" cy="4" r="4" stroke="#000" stroke-linecap="round" stroke-linejoin="round" stroke-width="8" transform="matrix(-1 0 0 1 136 80)"/><circle cx="4" cy="4" r="4" stroke="#000" stroke-linecap="round" stroke-linejoin="round" stroke-width="8" transform="matrix(-1 0 0 1 139 34)"/><path stroke="#000" stroke-linecap="round" stroke-linejoin="round" stroke-width="8" d="m114 28-4 66v32m22-45-22 17m22-17 3-43m-3 43-2 38m2-37 24 16m-42-70 21 10 18 25 3 32v26"/><circle cx="78" cy="28" r="4" stroke="#000" stroke-linecap="round" stroke-linejoin="round" stroke-width="8"/><circle cx="39" cy="63" r="4" stroke="#000" stroke-linecap="round" stroke-linejoin="round" stroke-width="8"/><circle cx="36" cy="98" r="4" stroke="#000" stroke-linecap="round" stroke-linejoin="round" stroke-width="8"/><circle cx="82" cy="98" r="4" stroke="#000" stroke-linecap="round" stroke-linejoin="round" stroke-width="8"/><circle cx="80" cy="55" r="4" stroke="#000" stroke-linecap="round" stroke-linejoin="round" stroke-width="8"/><circle cx="60" cy="84" r="4" stroke="#000" stroke-linecap="round" stroke-linejoin="round" stroke-width="8"/><circle cx="57" cy="38" r="4" stroke="#000" stroke-linecap="round" stroke-linejoin="round" stroke-width="8"/><path stroke="#000" stroke-linecap="round" stroke-linejoin="round" stroke-width="8" d="m78 28 4 66v32M60 81l22 17M60 81l-3-43m3 43 2 38m-2-37L36 98m42-70L57 38 39 63l-3 32v26"/><path stroke="#000" stroke-linecap="round" stroke-linejoin="round" stroke-width="12" d="M22 125c10 19 2 39 34 39m114-39c-10 19-2 39-34 39m-52-38c0 10 4 38-28 38m52-38c0 10-4 38 28 38"/><path stroke="#000" stroke-linecap="round" stroke-linejoin="round" stroke-width="12" d="M22 125s10-5 34-5c16 0 24 7 40 7m74-2s-10-5-34-5c-16 0-24 7-40 7"/></svg>