<svg xmlns="http://www.w3.org/2000/svg" width="192" height="192" fill="none"><path stroke="#000" stroke-linecap="round" stroke-linejoin="round" stroke-width="12" d="M22 82v42m71-74v24m73 9 3.571 8.927a6 6 0 0 1 .429 2.228v27.69a6 6 0 0 1-.429 2.228L166 133M46 122V84h10l12-10h60v12h12v46a6 6 0 0 1-6 6h-19"/><path stroke="#000" stroke-linecap="round" stroke-linejoin="round" stroke-miterlimit="6" stroke-width="10" d="M80.224 105.103a2.884 2.884 0 0 1 5.552 0l2.248 7.215c.391 1.253 1.512 2.102 2.776 2.102h7.276c2.827 0 4.003 3.773 1.715 5.506l-5.886 4.459c-1.023.775-1.45 2.149-1.06 3.403l2.248 7.214c.874 2.804-2.204 5.136-4.492 3.403l-5.885-4.459a2.82 2.82 0 0 0-3.432 0l-5.886 4.459c-2.287 1.733-5.365-.599-4.491-3.403l2.248-7.214c.39-1.254-.037-2.628-1.06-3.403l-5.886-4.459c-2.288-1.733-1.112-5.506 1.715-5.506H75.2c1.264 0 2.385-.849 2.776-2.102z"/><path stroke="#000" stroke-linecap="round" stroke-linejoin="round" stroke-width="12" d="M67 50h52m-97 53h24m94-10h29m-29 30h29"/></svg>