<svg xmlns="http://www.w3.org/2000/svg" width="192" height="192" fill="none"><path stroke="#000" stroke-linecap="round" stroke-linejoin="round" stroke-width="10" d="m113.75 57.232-15.264 78.531m8.556-85.947 13.798 12.87m-38.773 10.8 4.554 8.016 2.455 18.814 16.374-.383 10.73 7.689 10.143-10.253 9.407-1.228-7.881-6.625.354-7.062-35.72-4.906z"/><path stroke="#000" stroke-linecap="round" stroke-linejoin="round" stroke-width="12" d="M69.59 31.708c1.265-6.503 7.563-10.75 14.068-9.485l72.631 14.113c6.505 1.264 10.753 7.56 9.488 14.063L144.41 160.292c-1.265 6.503-7.563 10.749-14.068 9.485l-72.63-14.113c-6.506-1.264-10.754-7.56-9.49-14.063l21.37-109.893ZM49.035 135.586 24.443 64.762c-1.455-4.19.793-8.759 5.02-10.202L66 42.084"/></svg>