<svg xmlns="http://www.w3.org/2000/svg" width="192" height="192" fill="none" viewBox="0 0 192 192"><path stroke="#000" stroke-linecap="round" stroke-linejoin="round" stroke-width="12" d="M121 165.671A73.9 73.9 0 0 1 96 170c-40.87 0-74-33.13-74-74s33.131-74 74-74 74 33.131 74 74c0 8.4-1.4 16.474-3.979 24"/><path stroke="#000" stroke-linecap="round" stroke-linejoin="round" stroke-width="12" d="M24.5 88C48 93 54 114 36 135m100-98.5s-12 20 3 33.5 27.5 6 27.5 6"/><path stroke="#000" stroke-linecap="round" stroke-linejoin="round" stroke-miterlimit="6" stroke-width="10" d="M150.224 137.103a2.884 2.884 0 0 1 5.552 0l2.248 7.215c.391 1.253 1.512 2.102 2.776 2.102h7.276c2.827 0 4.003 3.773 1.715 5.506l-5.886 4.459c-1.023.775-1.451 2.149-1.06 3.403l2.248 7.214c.874 2.804-2.204 5.136-4.492 3.403l-5.885-4.459a2.824 2.824 0 0 0-3.432 0l-5.885 4.459c-2.288 1.733-5.366-.599-4.492-3.403l2.248-7.214c.391-1.254-.037-2.628-1.06-3.403l-5.886-4.459c-2.288-1.733-1.112-5.506 1.715-5.506h7.276c1.264 0 2.385-.849 2.776-2.102z"/><path stroke="#000" stroke-linecap="round" stroke-linejoin="round" stroke-width="12" d="M24.5 77c4-13.5 17.689-25.892 32-20.5s1.622 32.015 19.811 40.507c18.189 8.493 32.507-4.303 26.189-25.24C96.182 50.832 116.15 50.83 104 44.5S91.79 38.094 84.5 23m-28 134c-1.296-8.115-5.606-21.285 18.5-17 17 3.022 29.498 6.514 44-3.5q.504-.348 1-.677"/></svg>