<svg xmlns="http://www.w3.org/2000/svg" width="192" height="192" fill="none" viewBox="0 0 192 192"><path stroke="#000" stroke-linecap="round" stroke-linejoin="round" stroke-width="12" d="M46.13 72.406h37.376M64.245 22v45.336M42.83 22v60.885s.958 11.429 10.645 11.429M86.351 22v60.885s-.958 11.429-10.644 11.429m-22.175.136v69.556s.393 6.037 6.815 6.03l6.421-.008h2.503s6.376.274 6.376-5.578V94.86m48.58-72.937h25.543s4.55-.085 4.55 4.467v134.645s.245 9.056-8.674 9.056h-15.06s-8.167-.087-8.167-9.346V116.82H102.96s-1.442-.273-1.442-1.253V45s4.885-23.077 22.71-23.077z"/></svg>