<svg xmlns="http://www.w3.org/2000/svg" width="192" height="192" fill="none"><path stroke="#000" stroke-linecap="round" stroke-linejoin="round" stroke-width="12" d="M96 22v54m47 9c-46.857 46.857-63.638 68.582-73.35 78.132m0 0C64.233 168.461 61.015 170 56 170a17 17 0 1 1 13.65-6.868"/><path stroke="#000" stroke-linecap="round" stroke-linejoin="round" stroke-width="12" d="M49 85c46.857 46.857 63.638 68.582 73.349 78.132m0 0C127.768 168.461 130.986 170 136 170a17 17 0 0 0 16.673-13.683 16.998 16.998 0 0 0-21.608-19.585 17 17 0 0 0-8.716 26.4M72 37v24m48-24v24M48 45v8m96-8v8"/></svg>