<svg width="192" height="192" viewBox="0 0 192 192" fill="none" xmlns="http://www.w3.org/2000/svg"><path d="M67.632 27.633c-18.055 7.5-32.5 21.944-40 40l96.736 96.735c18.055-7.5 32.499-21.944 40-40L67.632 27.633ZM22.026 94.026A75.32 75.32 0 0 0 22 96c0 40.869 33.13 74 74 74 .66 0 1.318-.009 1.974-.026l-18.987-18.987m90.987-53.013c.017-.656.026-1.314.026-1.974 0-40.87-33.131-74-74-74-.66 0-1.318.009-1.974.026l18.987 18.987" stroke="#000" stroke-width="12" stroke-linecap="round" stroke-linejoin="round"/></svg>