<svg width="192" height="192" viewBox="0 0 50.8 50.8" xmlns="http://www.w3.org/2000/svg"><path style="fill:none;stroke:#000;stroke-width:3.175;stroke-linecap:round;stroke-linejoin:round;stroke-miterlimit:4;stroke-dasharray:none;stroke-opacity:1" d="M19.494 7.144a19.226 19.226 0 0 0-12.35 12.35m36.512 0A19.224 19.224 0 0 0 31.307 7.146M7.146 31.306a19.224 19.224 0 0 0 12.348 12.35m11.813-.002a19.222 19.222 0 0 0 12.347-12.347M25.4 5.82c5.41 17.6 1.986 14.176 19.58 19.58-17.594 5.41-14.17 1.986-19.58 19.58-5.404-17.594-1.98-14.17-19.58-19.58 17.6-5.404 14.176-1.98 19.58-19.58Z"/></svg>