<svg width="192" height="192" viewBox="0 0 192 192" fill="none" xmlns="http://www.w3.org/2000/svg">
<path d="M76.088 25.9153C82.3982 23.3334 89.1651 22.0029 96 22C102.835 22.0029 109.602 23.3334 115.912 25.9153C122.222 28.4971 127.951 32.2793 132.77 37.0446C142.53 46.6963 148.006 59.7543 148 73.3639C148 82.9896 145.365 91.985 141.887 100.158C129.646 128.924 117.99 143.839 100.937 167.49C98.5247 170.837 93.4753 170.837 91.0629 167.49C74.0103 143.839 62.3538 128.924 50.1128 100.158C46.635 91.985 44 82.9896 44 73.3639C43.9945 59.7543 49.4702 46.6963 59.23 37.0446C64.0488 32.2793 69.7779 28.4971 76.088 25.9153Z" stroke="black" stroke-width="12"/>
<path d="M74.2594 52.069C71.5032 54.9254 69.3649 58.2832 67.9327 61.9191C66.5635 65.395 65.8396 69.125 65.8376 72.9142C65.8356 76.9122 66.6375 80.9761 68.3334 84.8766C69.9554 88.607 72.2444 91.8411 75 94.5C77.8565 97.2563 81.2143 99.3945 84.8502 100.827C88.326 102.196 92.056 102.92 95.8451 102.922C98.2229 102.923 100.624 102.64 103 102.053M116.412 49.8008C119.167 52.4598 121.456 55.6939 123.078 59.4242C124.156 61.9031 124.873 64.448 125.252 67" stroke="black" stroke-width="12" stroke-linecap="round"/>
<path d="M96 46V69.5359C96 71.6795 97.1436 73.6603 99 74.7321L118.785 87" stroke="black" stroke-width="12" stroke-linecap="round" stroke-linejoin="round"/>
</svg>
