<svg width="192" height="192" viewBox="0 0 192 192" fill="none" xmlns="http://www.w3.org/2000/svg">
<path d="M76.088 24.9568C82.3982 22.3476 89.1651 21.0029 96 21C102.835 21.0029 109.602 22.3476 115.912 24.9568C122.222 27.5661 127.951 31.3884 132.77 36.2043C142.53 45.9584 148.006 59.155 148 72.9089C148 82.6369 145.365 91.7277 141.887 99.9871C129.646 129.058 117.99 144.132 100.937 168.034C98.5247 171.416 93.4753 171.416 91.0629 168.034C74.0103 144.132 62.3538 129.058 50.1128 99.9871C46.635 91.7277 44 82.6369 44 72.9089C43.9945 59.155 49.4702 45.9584 59.23 36.2043C64.0488 31.3884 69.7779 27.5661 76.088 24.9568Z" stroke="black" stroke-width="12"/>
<path d="M74.2594 52.069C71.5032 54.9254 69.3649 58.2832 67.9327 61.9191C66.5635 65.395 65.8396 69.125 65.8376 72.9142C65.8356 76.9122 66.6375 80.9761 68.3334 84.8766C69.9554 88.607 72.2444 91.8411 75 94.5C77.8565 97.2563 81.2143 99.3945 84.8502 100.827C88.326 102.196 92.056 102.92 95.8451 102.922C98.2229 102.923 100.624 102.64 103 102.053M116.412 49.8008C119.167 52.4598 121.456 55.6939 123.078 59.4242C124.156 61.9031 124.873 64.448 125.252 67" stroke="black" stroke-width="12" stroke-linecap="round"/>
<path d="M96 46V69.5359C96 71.6795 97.1436 73.6603 99 74.7321L118.785 87" stroke="black" stroke-width="12" stroke-linecap="round" stroke-linejoin="round"/>
</svg>
