<svg width="192" height="192" fill="none" xmlns="http://www.w3.org/2000/svg"><path d="M76.088 25.915A52.653 52.653 0 0 1 96 22a52.652 52.652 0 0 1 19.912 3.915 51.946 51.946 0 0 1 16.858 11.13c9.76 9.651 15.236 22.71 15.23 36.319 0 9.626-2.635 18.621-6.113 26.794-12.241 28.766-23.897 43.681-40.95 67.332-2.412 3.347-7.462 3.347-9.874 0-17.053-23.651-28.71-38.566-40.95-67.332C46.635 91.985 44 82.99 44 73.364c-.005-13.61 5.47-26.668 15.23-36.32a51.943 51.943 0 0 1 16.858-11.129Z" stroke="#000" stroke-width="12"/><path d="M74.26 53.069a30.044 30.044 0 0 0-6.328 9.85 29.901 29.901 0 0 0 .4 22.957A29.909 29.909 0 0 0 75 95.5a30.057 30.057 0 0 0 9.85 6.327 30.059 30.059 0 0 0 10.995 2.095 29.762 29.762 0 0 0 7.155-.869m13.412-52.252a29.919 29.919 0 0 1 6.666 9.623A30.046 30.046 0 0 1 125.252 68" stroke="#000" stroke-width="12" stroke-linecap="round"/><path d="M96 47v23.536a6 6 0 0 0 3 5.196L118.785 88" stroke="#000" stroke-width="12" stroke-linecap="round" stroke-linejoin="round"/></svg>