<svg xmlns="http://www.w3.org/2000/svg" width="192" height="192" fill="none"><path stroke="#000" stroke-width="12" d="M76.088 25.915A52.7 52.7 0 0 1 96 22a52.7 52.7 0 0 1 19.912 3.915 52 52 0 0 1 16.858 11.13c9.76 9.651 15.236 22.71 15.23 36.319 0 9.626-2.635 18.621-6.113 26.794-12.241 28.766-23.897 43.681-40.95 67.332-2.412 3.347-7.462 3.347-9.874 0-17.053-23.651-28.71-38.566-40.95-67.332C46.635 91.985 44 82.99 44 73.364c-.005-13.61 5.47-26.668 15.23-36.32a51.9 51.9 0 0 1 16.858-11.129Z"/><path stroke="#000" stroke-linecap="round" stroke-width="12" d="M74.26 53.069a30 30 0 0 0-6.328 9.85 29.9 29.9 0 0 0 .4 22.957A29.9 29.9 0 0 0 75 95.5a30.1 30.1 0 0 0 9.85 6.327 30.1 30.1 0 0 0 10.995 2.095 29.8 29.8 0 0 0 7.155-.869m13.412-52.252a29.9 29.9 0 0 1 6.666 9.623A30 30 0 0 1 125.252 68"/><path stroke="#000" stroke-linecap="round" stroke-linejoin="round" stroke-width="12" d="M96 47v23.536a6 6 0 0 0 3 5.196L118.785 88"/></svg>