<svg width="192" height="192" viewBox="0 0 192 192" fill="none" xmlns="http://www.w3.org/2000/svg">
<path fill-rule="evenodd" clip-rule="evenodd" d="M109.945 25.1973C114.558 22.6421 120.369 24.3103 122.924 28.9234L134.152 49.1943L156.426 55.5884C161.494 57.0435 164.424 62.332 162.969 67.4008L156.575 89.6741L167.803 109.945C170.358 114.558 168.69 120.369 164.077 122.924L143.806 134.152L137.412 156.426C135.957 161.494 130.668 164.424 125.599 162.969L103.326 156.574L83.0552 167.803C78.4422 170.358 72.6312 168.69 70.076 164.077L58.8478 143.806L36.5746 137.412C31.5059 135.957 28.5765 130.668 30.0316 125.599L36.4257 103.326L25.1973 83.0552C22.6421 78.4422 24.3103 72.6312 28.9234 70.076L49.1944 58.8476L55.5884 36.5747C57.0435 31.506 62.3321 28.5765 67.4008 30.0316L89.6738 36.4256L109.945 25.1973ZM127.515 58.733C137.107 66.6201 143.372 77.9376 144.965 90.2508L151.995 65.7607L127.515 58.733ZM145.132 91.7179C145.723 97.7117 145.207 103.916 143.434 110.055C141.676 116.142 138.837 121.624 135.186 126.352L157.477 114.005L145.132 91.7179ZM134.271 127.5C126.385 137.1 115.064 143.369 102.747 144.964L127.24 151.995L134.271 127.5ZM101.284 145.131C95.2873 145.723 89.0798 145.208 82.9376 143.434C76.8558 141.677 71.3783 138.842 66.653 135.196L78.995 157.477L101.284 145.131ZM65.4885 134.268C55.8959 126.386 49.6293 115.074 48.0309 102.765L41.0049 127.24L65.4885 134.268ZM47.8601 101.268C47.2704 95.2761 47.786 89.0742 49.5587 82.9375C51.3146 76.8588 54.1481 71.3839 57.7914 66.6603L35.5229 78.995L47.8601 101.268ZM58.7362 65.4741C66.6193 55.8883 77.928 49.6268 90.2325 48.0302L65.7607 41.0049L58.7362 65.4741ZM91.7341 47.8591C97.7229 47.2708 103.922 47.7868 110.055 49.5586C116.139 51.3161 121.619 54.1531 126.345 57.8011L114.005 35.5229L91.7341 47.8591ZM131.905 106.725C137.554 87.1689 126.281 66.7363 106.725 61.0872C87.1691 55.4382 66.7364 66.7118 61.0874 86.2677C55.4383 105.824 66.712 126.256 86.2678 131.905C105.824 137.554 126.256 126.281 131.905 106.725Z" fill="black"/>
</svg>
