<svg xmlns="http://www.w3.org/2000/svg" width="192" height="192" fill="none"><g clip-path="url(#a)"><path fill="#000" fill-rule="evenodd" d="M122.323 62.946a13.103 13.103 0 0 1-.531-.387c-4.068-3.14-8.796-5.587-14.08-7.117a42.059 42.059 0 0 0-15.821-1.473c-.216.022-.431.037-.646.047-.213.04-.43.073-.647.101a42.345 42.345 0 0 0-27.223 15.071c-.144.176-.292.346-.444.511a12.16 12.16 0 0 1-.372.51 42.294 42.294 0 0 0-7.115 14.08c-1.537 5.336-1.98 10.686-1.472 15.833.021.222.037.443.047.662.066.36.116.722.15 1.087a42.427 42.427 0 0 0 15.033 26.779c.134.11.266.223.395.338.216.146.428.3.637.461 3.939 3.047 8.515 5.445 13.627 6.982.145.036.29.076.435.117a41.992 41.992 0 0 0 15.853 1.471c.229-.022.455-.038.682-.047.191-.035.382-.064.575-.088a42.405 42.405 0 0 0 27.246-15.095c.127-.153.255-.302.387-.448.126-.183.257-.363.394-.54a42.165 42.165 0 0 0 7.128-14.09l.002-.009a41.957 41.957 0 0 0 1.47-15.836c-.02-.2-.035-.401-.044-.6-.04-.219-.075-.439-.104-.66-1.373-10.638-6.797-20.428-15.088-27.25-.162-.133-.32-.27-.474-.41Zm26.248 74.889 21.171-11.73c5.867-3.251 7.99-10.642 4.741-16.509l-11.728-21.183 6.677-23.263c1.852-6.448-1.874-13.176-8.323-15.028l-23.271-6.682-11.73-21.178a12.146 12.146 0 0 0-16.514-4.74L88.421 29.254 65.155 22.57a12.148 12.148 0 0 0-15.031 8.326l-6.676 23.271-21.186 11.74c-5.868 3.25-7.99 10.644-4.738 16.513l11.733 21.173-6.684 23.265a12.148 12.148 0 0 0 8.322 15.03l23.293 6.69 11.72 21.16a12.151 12.151 0 0 0 16.514 4.74l21.168-11.728 23.274 6.68c6.448 1.852 13.176-1.876 15.028-8.324l6.679-23.271Zm-18.356 19.919 7.823-27.252a54.365 54.365 0 0 1-7.441 7.445 54.626 54.626 0 0 1-17.378 9.628 54.34 54.34 0 0 1-10.256 2.357l27.252 7.822Zm-28.877-7.645a54.13 54.13 0 0 1-20.416-1.89l-.003-.001v.011l-.003-.001-.036-.01a54.787 54.787 0 0 1-11.19-4.636 53.446 53.446 0 0 1-6.887-4.523l13.731 24.793 24.804-13.743ZM28.15 76.532l13.732 24.782a53.85 53.85 0 0 1-.007-10.478 54.812 54.812 0 0 1 2.142-10.735 54.835 54.835 0 0 1 3.363-8.432 54.216 54.216 0 0 1 5.552-8.869L28.15 76.532Zm6.098 53.68 27.241 7.824a54.299 54.299 0 0 1-7.425-7.417 54.646 54.646 0 0 1-9.654-17.423 54.226 54.226 0 0 1-2.339-10.128l-.007-.058.007-.027h-.01l.003.027-7.816 27.202Zm94.965-77.271a53.916 53.916 0 0 0-8.893-5.571 54.876 54.876 0 0 0-10.225-3.875 54.667 54.667 0 0 0-8.906-1.62 53.857 53.857 0 0 0-10.49.005l24.783-13.732 13.731 24.793Zm-75.224 8.535a54.185 54.185 0 0 1 7.393-7.404A54.539 54.539 0 0 1 89.03 42.07l.012-.001h-.011L61.8 34.246l-7.812 27.23Zm83.948-.08a54.373 54.373 0 0 0-7.422-7.42l27.241 7.823-7.822 27.252a54.21 54.21 0 0 0-2.355-10.255 54.632 54.632 0 0 0-9.642-17.4Zm1.113 67.826a53.915 53.915 0 0 0 5.589-8.919 54.695 54.695 0 0 0 3.868-10.209 54.14 54.14 0 0 0 1.616-19.419l13.731 24.805-24.804 13.742Z" clip-rule="evenodd"/></g><defs><clipPath id="a"><path fill="#fff" d="M0 0h192v192H0z"/></clipPath></defs></svg>