<svg width="192" height="192" viewBox="0 0 192 192" fill="none" xmlns="http://www.w3.org/2000/svg"><path d="M104.422 30.482a5.06 5.06 0 0 1 7.156 0l56.94 56.94a5.06 5.06 0 0 1 0 7.156l-56.94 56.94a5.06 5.06 0 0 1-7.156 0l-56.94-56.94a5.06 5.06 0 0 1 0-7.156l56.94-56.94ZM98 113l32-32" stroke="#000" stroke-width="12" stroke-linecap="round" stroke-linejoin="round"/><path d="M83.711 84.12c.16-.16.418-.16.578 0l4.591 4.591c.16.16.16.418 0 .578l-4.59 4.591a.408.408 0 0 1-.578 0l-4.592-4.59a.408.408 0 0 1 0-.578l4.591-4.591Zm22-22a.41.41 0 0 1 .578 0l4.591 4.591c.16.16.16.418 0 .578l-4.591 4.591a.41.41 0 0 1-.578 0l-4.591-4.591a.407.407 0 0 1 0-.578l4.591-4.591Z" stroke="#000" stroke-width="10" stroke-linecap="round" stroke-linejoin="round"/><path d="M22 161h148m-148 0 20-40 20 40" stroke="#000" stroke-width="12" stroke-linecap="round" stroke-linejoin="round"/></svg>