<svg xmlns="http://www.w3.org/2000/svg" width="192" height="192" fill="none"><path stroke="#000" stroke-linecap="round" stroke-linejoin="round" stroke-width="12" d="M79.861 22a78 78 0 0 0-18.43 11.163A77.3 77.3 0 0 0 41.02 58.688a76.7 76.7 0 0 0-7.978 31.61 76.7 76.7 0 0 0 5.877 32.059 77.2 77.2 0 0 0 18.686 26.795 77.9 77.9 0 0 0 28.162 16.752 78.32 78.32 0 0 0 55.007-1.883M108.203 88.08l37.452-16.002c2.937-1.255 6.401-.144 7.653 2.776a45.6 45.6 0 0 1 3.469 22.466 45.72 45.72 0 0 1-11.251 25.759 46.3 46.3 0 0 1-24.264 14.434 46.57 46.57 0 0 1-28.194-2.294 46.16 46.16 0 0 1-21.57-18.164 45.62 45.62 0 0 1-6.874-27.234 45.7 45.7 0 0 1 10.397-26.11 46.2 46.2 0 0 1 17.188-12.922"/></svg>