<svg xmlns="http://www.w3.org/2000/svg" width="192" height="192" fill="none" stroke="#000" viewBox="0 0 192 192"><path stroke-width="12" d="M148.326 43.674c-28.899-28.899-75.753-28.899-104.652 0s-28.899 75.753 0 104.652 75.753 28.899 104.652 0 28.899-75.753 0-104.652z"/><path stroke-width="10" d="M134.891 38.11c-21.479-21.48-56.303-21.48-77.782 0-21.479 21.478-21.479 56.302 0 77.781s56.303 21.479 77.782 0 21.479-56.303 0-77.782z"/><path stroke-width="8" d="M121.456 32.544c-14.059-14.059-36.853-14.059-50.912 0s-14.059 36.853 0 50.912 36.853 14.059 50.912 0 14.059-36.853 0-50.912z"/></svg>