<svg width="192" height="192" fill="none" xmlns="http://www.w3.org/2000/svg"><path d="M25 31a6 6 0 0 1 6-6h130a6 6 0 0 1 6 6v130a6 6 0 0 1-6 6H31a6 6 0 0 1-6-6V31Z" stroke="#000" stroke-width="12" stroke-linecap="round" stroke-linejoin="round"/><path d="m82 25 9.977 67.118c.539 3.625-2.301 6.859-5.946 7.24C38.672 104.312 25 159 25 159" stroke="#000" stroke-width="12" stroke-linecap="round" stroke-linejoin="round"/><path d="m143 25-15.748 98.196c-.629 3.921-4.848 6.145-8.63 4.933C71.107 112.893 25 159 25 159" stroke="#000" stroke-width="12" stroke-linecap="round" stroke-linejoin="round"/></svg>