<svg width="192" height="192" viewBox="0 0 192 192" fill="none" xmlns="http://www.w3.org/2000/svg"><path d="M74 21h44v150H74V21Z" stroke="#000" stroke-width="10" stroke-linecap="round" stroke-linejoin="round"/><path d="m74 171-29.102-19.687a6 6 0 0 1-1.656-8.259L118 29" stroke="#000" stroke-width="10" stroke-linecap="round" stroke-linejoin="round"/><path d="m118 171 29.102-19.687a6 6 0 0 0 1.656-8.259L74 29" stroke="#000" stroke-width="10" stroke-linecap="round" stroke-linejoin="round"/><path d="M74 21 44.898 40.687a6 6 0 0 0-1.656 8.259L118 163" stroke="#000" stroke-width="10" stroke-linecap="round" stroke-linejoin="round"/><path d="m118 21 29.102 19.687a6 6 0 0 1 1.656 8.259L74 163" stroke="#000" stroke-width="10" stroke-linecap="round" stroke-linejoin="round"/></svg>