<svg width="192" height="192" fill="none" xmlns="http://www.w3.org/2000/svg"><path d="M69 60H57c-8.837 0-16 7.163-16 16v12c0 8.837 7.163 16 16 16h22a6 6 0 0 0 6-6V76c0-8.837-7.163-16-16-16Zm0 110H57c-8.837 0-16-7.163-16-16v-12c0-8.837 7.163-16 16-16h22a6 6 0 0 1 6 6v22c0 8.837-7.163 16-16 16Zm54-110h12c8.837 0 16 7.163 16 16v12c0 8.837-7.163 16-16 16h-22a6 6 0 0 1-6-6V76c0-8.837 7.163-16 16-16Zm0 110h12c8.837 0 16-7.163 16-16v-12c0-8.837-7.163-16-16-16h-22a6 6 0 0 0-6 6v22c0 8.837 7.163 16 16 16Zm1.713-132a31.996 31.996 0 0 0-39.959-13.564A32 32 0 0 0 69.287 38" stroke="#000" stroke-width="12" stroke-linecap="round" stroke-linejoin="round"/></svg>