<svg xmlns="http://www.w3.org/2000/svg" width="192" height="192" fill="none" viewBox="0 0 192 192"><path stroke="#000" stroke-linecap="round" stroke-linejoin="round" stroke-width="12" d="M134.637 51.647A40.001 40.001 0 0 1 71.65 93.734 40 40 0 0 1 96 22"/><path stroke="#000" stroke-linecap="round" stroke-linejoin="round" stroke-width="12" d="M57.363 144.8c1.932 6.13 5.844 11.677 11.293 16.015 5.45 4.338 12.218 7.294 19.54 8.532 7.323 1.238 14.907.709 21.894-1.526 6.987-2.236 13.099-6.089 17.644-11.123 4.545-5.035 7.342-11.05 8.073-17.365.732-6.316-.63-12.679-3.932-18.371s-8.412-10.484-14.752-13.835S103.466 102 96 102m0-80h48"/></svg>