<svg width="192" height="192" viewBox="0 0 192 192" fill="none" xmlns="http://www.w3.org/2000/svg"><path d="m84 97 12 12m0 0 12-12m-12 12V81" stroke="#000" stroke-width="8" stroke-linecap="round" stroke-linejoin="round"/><path d="m95 52-65 65m132-42-65 65M75 30l65 65m-88 2 65 65" stroke="#000" stroke-width="10" stroke-linecap="round" stroke-linejoin="round"/><path d="M156 30H36a6 6 0 0 0-6 6v120a6 6 0 0 0 6 6h120a6 6 0 0 0 6-6V36a6 6 0 0 0-6-6Z" stroke="#000" stroke-width="12" stroke-linecap="round" stroke-linejoin="round"/></svg>