<svg width="192" height="192" fill="none" xmlns="http://www.w3.org/2000/svg"><path d="M70 53a24 24 0 0 0-48 0m136 29a11.998 11.998 0 0 0 12 12m-32-24a23.997 23.997 0 0 0-19.318-23.539A24 24 0 1 0 127.267 90M22 139a24.002 24.002 0 0 0 24 24 24.003 24.003 0 0 0 24-24" stroke="#000" stroke-width="12" stroke-linecap="round" stroke-linejoin="round"/><circle cx="114" cy="139" r="24" stroke="#000" stroke-width="12" stroke-linecap="round" stroke-linejoin="round"/><path d="M22 53v86m48-86v6m88-30v53M90 70h48m20-21h12M70 139v-39a6 6 0 0 0-6-6H54" stroke="#000" stroke-width="12" stroke-linecap="round" stroke-linejoin="round"/></svg>