<svg xmlns="http://www.w3.org/2000/svg" width="192" height="192" fill="none"><path stroke="#000" stroke-linecap="round" stroke-linejoin="round" stroke-width="12" d="M70 53a24 24 0 0 0-48 0m136 29a12 12 0 0 0 12 12m-32-24a24 24 0 0 0-19.318-23.539A24 24 0 1 0 127.267 90M22 139a24 24 0 0 0 24 24 24.003 24.003 0 0 0 24-24"/><circle cx="114" cy="139" r="24" stroke="#000" stroke-linecap="round" stroke-linejoin="round" stroke-width="12"/><path stroke="#000" stroke-linecap="round" stroke-linejoin="round" stroke-width="12" d="M22 53v86m48-86v6m88-30v53M90 70h48m20-21h12M70 139v-39a6 6 0 0 0-6-6H54"/></svg>