<svg xmlns="http://www.w3.org/2000/svg" width="192" height="192" fill="none" viewBox="0 0 192 192"><path stroke="#000" stroke-linejoin="round" stroke-width="12" d="M101 78c2-18 12-27.5 23-26s15 12 15 19-4 25-21 25c0 0-19 0-17-18Z"/><path stroke="#000" stroke-linecap="round" stroke-linejoin="round" stroke-width="12" d="M129.185 25c-14.501 0-53.707 0-56.93 49.485-2.147 40.879 28.245 48.409 40.818 48.409 21.482 0 27.927-6.455 27.927-6.455s0 41.417-27.927 41.417c-25.78 0-39.743-10.22-48.336-18.826S51.31 167 78.7 167"/><rect width="142" height="142" x="25" y="25" stroke="#000" stroke-linecap="round" stroke-linejoin="round" stroke-width="12" rx="6"/></svg>