<svg xmlns="http://www.w3.org/2000/svg" width="192" height="192" fill="none" viewBox="0 0 192 192"><path stroke="#000" stroke-width="12" d="M101.001 22c8.284 0 15 6.716 15 15 0 10.826 11.719 17.593 21.094 12.18 7.175-4.142 16.348-1.684 20.491 5.49l5 8.66c4.142 7.174 1.684 16.348-5.491 20.49-9.376 5.413-9.375 18.946 0 24.36 7.175 4.142 9.633 13.316 5.491 20.49l-5 8.66c-4.143 7.174-13.316 9.632-20.491 5.49-9.375-5.413-21.094 1.354-21.094 12.18 0 8.284-6.716 15-15 15h-10c-8.285 0-15-6.716-15-15 0-10.826-11.72-17.593-21.096-12.18-7.174 4.142-16.348 1.684-20.49-5.49l-5-8.66c-4.142-7.174-1.684-16.348 5.49-20.49 9.375-5.414 9.376-18.947 0-24.36-7.174-4.142-9.633-13.316-5.491-20.49l5-8.66c4.142-7.175 13.316-9.632 20.49-5.49 9.377 5.413 21.097-1.354 21.097-12.18 0-8.284 6.715-15 15-15z"/><path stroke="#000" stroke-width="12" d="M114 96c0 9.941-8.059 18-18 18s-18-8.059-18-18 8.059-18 18-18 18 8.059 18 18Z"/></svg>