<svg width="192" height="192" viewBox="0 0 192 192" fill="none" xmlns="http://www.w3.org/2000/svg">
<path d="M101 22L101.001 16H101V22ZM137.095 49.1797L140.095 54.3759L140.095 54.3758L137.095 49.1797ZM157.585 54.6699L162.782 51.6699L162.782 51.6698L157.585 54.6699ZM162.585 63.3301L167.782 60.3301L167.782 60.3301L162.585 63.3301ZM157.095 83.8203L160.095 89.0166L160.095 89.0165L157.095 83.8203ZM157.095 108.18L154.095 113.376L154.095 113.376L157.095 108.18ZM162.585 128.67L167.782 131.67L167.782 131.67L162.585 128.67ZM157.585 137.33L162.782 140.33L162.782 140.33L157.585 137.33ZM137.095 142.82L134.095 148.016L134.095 148.016L137.095 142.82ZM116 155H122V155H116ZM101 170V176H101.001L101 170ZM54.9048 142.82L57.9048 148.016L57.9048 148.016L54.9048 142.82ZM34.4146 137.33L29.2184 140.33L29.2184 140.33L34.4146 137.33ZM29.4146 128.67L24.2184 131.67L24.2184 131.67L29.4146 128.67ZM34.9048 108.18L37.9048 113.376L37.905 113.376L34.9048 108.18ZM34.9048 83.8203L31.9048 89.0165L31.905 89.0166L34.9048 83.8203ZM29.4136 63.3301L24.2174 60.3301L24.2174 60.3301L29.4136 63.3301ZM34.4136 54.6699L39.6097 57.6699L39.6097 57.6699L34.4136 54.6699ZM54.9048 49.1797L51.9048 54.3758L51.905 54.3759L54.9048 49.1797ZM76.0005 37L70.0005 37V37H76.0005ZM101 22L101 28C105.971 28.0002 110 32.0298 110 37H116H122C122 25.402 112.598 16.0004 101.001 16L101 22ZM137.095 49.1797L140.095 54.3758C144.4 51.8906 149.904 53.3654 152.389 57.67L157.585 54.6699L162.782 51.6698C156.983 41.626 144.139 38.1846 134.095 43.9835L137.095 49.1797ZM157.585 54.6699L152.389 57.6699L157.389 66.3301L162.585 63.3301L167.782 60.3301L162.782 51.6699L157.585 54.6699ZM162.585 63.3301L157.389 66.3301C159.875 70.6348 158.4 76.1389 154.095 78.6242L157.095 83.8203L160.095 89.0165C170.139 83.2174 173.581 70.3742 167.782 60.3301L162.585 63.3301ZM157.095 108.18L154.095 113.376C158.4 115.861 159.875 121.365 157.389 125.67L162.585 128.67L167.782 131.67C173.581 121.626 170.139 108.783 160.095 102.984L157.095 108.18ZM162.585 128.67L157.389 125.67L152.389 134.33L157.585 137.33L162.782 140.33L167.782 131.67L162.585 128.67ZM157.585 137.33L152.389 134.33C149.904 138.635 144.4 140.109 140.095 137.624L137.095 142.82L134.095 148.016C144.139 153.815 156.983 150.374 162.782 140.33L157.585 137.33ZM116 155H110C110 159.97 105.971 164 101 164L101 170L101.001 176C112.598 176 122 166.598 122 155H116ZM101 170V164H91.0005V170V176H101V170ZM91.0005 170V164C86.0299 164 82.0005 159.971 82.0005 155H76.0005H70.0005C70.0005 166.598 79.4025 176 91.0005 176V170ZM54.9048 142.82L51.9048 137.624C47.6001 140.109 42.096 138.635 39.6107 134.33L34.4146 137.33L29.2184 140.33C35.0175 150.374 47.8607 153.815 57.9048 148.016L54.9048 142.82ZM34.4146 137.33L39.6107 134.33L34.6107 125.67L29.4146 128.67L24.2184 131.67L29.2184 140.33L34.4146 137.33ZM29.4146 128.67L34.6107 125.67C32.1254 121.365 33.6002 115.861 37.9048 113.376L34.9048 108.18L31.9048 102.984C21.8606 108.783 18.4194 121.626 24.2184 131.67L29.4146 128.67ZM34.9048 83.8203L37.9048 78.6242C33.5997 76.1386 32.1248 70.6342 34.6098 66.33L29.4136 63.3301L24.2174 60.3301C18.4183 70.3747 21.8612 83.2178 31.9048 89.0165L34.9048 83.8203ZM29.4136 63.3301L34.6097 66.3301L39.6097 57.6699L34.4136 54.6699L29.2174 51.6699L24.2174 60.3301L29.4136 63.3301ZM34.4136 54.6699L39.6097 57.6699C42.0949 53.3655 47.5999 51.8904 51.9048 54.3758L54.9048 49.1797L57.9048 43.9835C47.8609 38.1847 35.0165 41.6255 29.2174 51.6699L34.4136 54.6699ZM76.0005 37L82.0005 37C82.0005 32.0294 86.0299 28 91.0005 28V22V16C79.4025 16 70.0005 25.402 70.0005 37L76.0005 37ZM91.0005 22V28H101V22V16H91.0005V22ZM54.9048 49.1797L51.905 54.3759C65.2806 62.0978 82.0005 52.4451 82.0005 37H76.0005H70.0005C70.0005 43.2072 63.2808 47.0871 57.9046 43.9834L54.9048 49.1797ZM34.9048 108.18L37.905 113.376C51.2798 105.653 51.2812 86.3465 37.9046 78.6241L34.9048 83.8203L31.905 89.0166C37.2802 92.1197 37.2808 99.8794 31.9046 102.984L34.9048 108.18ZM76.0005 155H82.0005C82.0005 139.555 65.2807 129.902 51.9048 137.624L54.9048 142.82L57.9048 148.016C63.2806 144.913 70.0005 148.792 70.0005 155H76.0005ZM137.095 142.82L140.095 137.624C126.719 129.901 110 139.556 110 155H116H122C122 148.792 128.72 144.913 134.095 148.016L137.095 142.82ZM157.095 83.8203L154.095 78.6241C140.719 86.3465 140.72 105.653 154.095 113.376L157.095 108.18L160.095 102.984C154.719 99.8794 154.72 92.1197 160.095 89.0166L157.095 83.8203ZM116 37H110C110 52.4442 126.719 62.0982 140.095 54.3759L137.095 49.1797L134.095 43.9835C128.72 47.0868 122 43.2074 122 37H116Z" fill="black"/>
<circle cx="96" cy="96" r="18" stroke="black" stroke-width="12"/>
</svg>
