<?xml version="1.0" encoding="utf-8"?>
	<svg version="1.1" xmlns="http://www.w3.org/2000/svg" xmlns:xlink="http://www.w3.org/1999/xlink" x="0px" y="0px" width="240.0" height="240.0" xml:space="preserve">
		<path d="M176.277,127.154L176.277,171.515L127.169,171.515L127.169,157.177L160.6,157.177L160.6,140.808L127.169,140.808L127.169,96.477L160.6,96.477L160.6,81.446L127.169,81.446L127.169,67.1L176.277,67.1L176.277,111.431L142.854,111.431L142.854,126.462L176.277,126.462L176.277,127.154ZM120,20C175.231,20 220,64.769 220,120C220,175.231 175.231,220 120,220C64.769,220 20,175.231 20,120C20,64.769 64.769,20 120,20ZM120,39.831C75.723,39.831 39.846,75.723 39.846,120C39.846,164.277 75.723,200.162 120,200.162C164.277,200.162 200.162,164.277 200.162,120C200.162,75.723 164.277,39.831 120.008,39.831L120,39.831ZM112.785,67.1L112.785,81.446L79.362,81.446L79.362,96.477L112.785,96.477L112.785,140.808L79.362,140.808L79.362,157.177L112.785,157.177L112.785,171.515L63.692,171.515L63.692,126.462L97.115,126.462L97.115,111.431L63.692,111.431L63.692,67.1L112.792,67.1L112.785,67.1Z" fill="#000" stroke="#00000000" stroke-width="1.0" stroke-miterlimit=""/>
	</svg>
