<svg width="192" height="192" viewBox="0 0 192 192" fill="none" xmlns="http://www.w3.org/2000/svg"><circle cx="81" cy="54" r="3" stroke="#000" stroke-width="6" stroke-linecap="round" stroke-linejoin="round"/><circle cx="111" cy="54" r="3" stroke="#000" stroke-width="6" stroke-linecap="round" stroke-linejoin="round"/><path d="M56 72v66a6 6 0 0 0 6 6h68a6 6 0 0 0 6-6V72m0 0H56" stroke="#000" stroke-width="10" stroke-linecap="round" stroke-linejoin="round"/><path d="M136 90s1 20-25 20c-18 0-31-14-31-14m-24-6s-1 20 25 20c18 0 14-14 31-14m1 48v27m9-150-9 13M79 144v27M70 21l9 13m57 38a40.003 40.003 0 0 0-40-40 40 40 0 0 0-40 40" stroke="#000" stroke-width="10" stroke-linecap="round" stroke-linejoin="round"/></svg>