<?xml version="1.0" encoding="UTF-8" standalone="no"?>
<!-- Created with Inkscape (http://www.inkscape.org/) -->

<svg
   width="24"
   height="24"
   version="1.1"
   viewBox="0 0 24 24"
   id="svg4"
   sodipodi:docname="github.svg"
   inkscape:version="1.1.1 (3bf5ae0d25, 2021-09-20)"
   xmlns:inkscape="http://www.inkscape.org/namespaces/inkscape"
   xmlns:sodipodi="http://sodipodi.sourceforge.net/DTD/sodipodi-0.dtd"
   xmlns="http://www.w3.org/2000/svg"
   xmlns:svg="http://www.w3.org/2000/svg">
  <defs
     id="defs8" />
  <sodipodi:namedview
     id="namedview6"
     pagecolor="#ffffff"
     bordercolor="#666666"
     borderopacity="1.0"
     inkscape:pageshadow="2"
     inkscape:pageopacity="0.0"
     inkscape:pagecheckerboard="0"
     showgrid="false"
     inkscape:zoom="32.375"
     inkscape:cx="11.984556"
     inkscape:cy="12"
     inkscape:window-width="2560"
     inkscape:window-height="1015"
     inkscape:window-x="0"
     inkscape:window-y="32"
     inkscape:window-maximized="1"
     inkscape:current-layer="svg4" />
  <path
     d="m 10.730534,22 a 1.4169057,1.4169057 0 0 1 -1.4149053,-1.402906 329.5083,329.5083 0 0 1 -0.007,-0.881952 C 5.5708196,20.527094 4.7829124,17.913237 4.7829124,17.913237 4.1709502,16.360332 3.2900069,15.947333 3.2900069,15.947333 2.0701008,15.11438 3.3829979,15.13038 3.3829979,15.13038 4.7319037,15.22537 5.440902,16.515286 5.440902,16.515286 6.6398082,18.56919 8.5867126,17.975191 9.3517107,17.632192 9.4737014,16.76424 9.8216823,16.172287 10.204663,15.836287 7.2208523,15.496306 4.0840416,14.343382 4.0840416,9.1946673 c 0,-1.4669056 0.5239715,-2.6668118 1.3829058,-3.6058095 -0.1379906,-0.339981 -0.5999713,-1.706905 0.1319906,-3.5568096 0,0 1.1279064,-0.360981 3.6958092,1.3779058 A 12.870878,12.870878 0 0 1 12.658557,2.9569823 c 1.141906,0.006 2.289903,0.1539906 3.36381,0.4529717 2.565903,-1.739905 3.691809,-1.3789058 3.691809,-1.3789058 0.732962,1.8499046 0.271981,3.2168104 0.133991,3.5568096 0.861952,0.9389068 1.380905,2.1389039 1.380905,3.6058095 0,5.1627147 -3.14181,6.2976207 -6.134621,6.6306207 0.481971,0.41498 0.911907,1.234906 0.911907,2.487903 0,0.866952 -0.004,1.652905 -0.008,2.283903 A 1.4129057,1.4129057 0 0 1 14.586452,22 Z"
     stroke-width="0.999907"
     id="path2" />
</svg>
