<?xml version="1.0" encoding="UTF-8" standalone="no"?>
<!-- Created with Inkscape (http://www.inkscape.org/) -->

<svg
   width="192"
   height="192"
   viewBox="0 0 192 192"
   version="1.1"
   id="svg5"
   xmlns="http://www.w3.org/2000/svg"
   xmlns:svg="http://www.w3.org/2000/svg">
  <defs
     id="defs2">
    <marker
       style="overflow:visible"
       id="Arrow1Lstart"
       refX="0.0"
       refY="0.0"
       orient="auto">
      <path
         transform="scale(0.8) translate(12.5,0)"
         style="fill-rule:evenodd;stroke:#000000;stroke-width:1.0pt"
         d="M 0.0,0.0 L 5.0,-5.0 L -12.5,0.0 L 5.0,5.0 L 0.0,0.0 z "
         id="path2800" />
    </marker>
  </defs>
  <g
     id="layer1">
    <g
       id="g909"
       transform="matrix(1.6525236,0,0,1.6525236,-17.464136,-11.183862)"
       style="fill:none;stroke:#000000;stroke-width:0.849905;stroke-miterlimit:4;stroke-dasharray:none;stroke-opacity:1">
      <g
         transform="matrix(0.89896086,0,0,0.8964528,8.2085936,6.999111)"
         id="g860"
         style="fill:none;stroke:#000000;stroke-width:0.946752;stroke-miterlimit:4;stroke-dasharray:none;stroke-opacity:1">
        <g
           fill="#609926"
           id="g12"
           transform="matrix(1.1014629,0,0,1.0605772,-11.727704,-176.388)"
           style="fill:none;fill-opacity:1;stroke:#000000;stroke-width:0.875952;stroke-miterlimit:4;stroke-dasharray:none;stroke-opacity:1">
          <ellipse
             transform="matrix(0.6978,-0.71629,0.71687,0.6972,0,0)"
             cx="-113.63"
             cy="169.32001"
             rx="8.7325459"
             ry="8.723011"
             id="ellipse4"
             style="fill:#000000;fill-opacity:1;stroke:none;stroke-width:10.5115;stroke-miterlimit:4;stroke-dasharray:none;stroke-opacity:1" />
          <ellipse
             transform="matrix(0.6978,-0.71629,0.71687,0.6972,0,0)"
             cx="-163.66"
             cy="218.21001"
             rx="8.7325459"
             ry="8.723011"
             id="ellipse6"
             style="fill:#000000;fill-opacity:1;stroke:none;stroke-width:10.5115;stroke-miterlimit:4;stroke-dasharray:none;stroke-opacity:1" />
          <ellipse
             transform="matrix(0.6978,-0.71629,0.71687,0.6972,0,0)"
             cx="-118.23"
             cy="215.12"
             rx="8.7325459"
             ry="8.723011"
             id="ellipse8"
             style="fill:#000000;fill-opacity:1;stroke:none;stroke-width:10.5115;stroke-miterlimit:4;stroke-dasharray:none;stroke-opacity:1" />
        </g>
        <path
           d="M 98.498783,109.80423 H 80.924779 C 72.435668,109.79371 67.510498,106.76861 67.438533,97.9716 L 67.101215,72.497681 66.852205,48.977523 c 0.0064,-9.782981 -4.166,-13.761783 -12.64036,-13.786826 H 34.362976"
           fill="none"
           stroke="#609926"
           stroke-width="9.43075"
           id="path16"
           style="fill:none;stroke:#000000;stroke-width:8.08909;stroke-miterlimit:4;stroke-dasharray:none;stroke-opacity:1" />
        <g
           fill="#609926"
           id="g24"
           transform="matrix(1.1014629,0,0,1.0605772,-11.727704,-176.388)"
           style="fill:none;fill-opacity:1;stroke:#000000;stroke-width:0.875952;stroke-miterlimit:4;stroke-dasharray:none;stroke-opacity:1">
          <ellipse
             transform="matrix(0.6978,-0.71629,0.71687,0.6972,0,0)"
             id="ellipse18"
             style="fill:#000000;fill-opacity:1;stroke:none;stroke-width:10.5115;stroke-miterlimit:4;stroke-dasharray:none;stroke-opacity:1"
             ry="8.723011"
             rx="8.7325459"
             cy="211.74001"
             cx="-72.341003" />
          <ellipse
             transform="matrix(0.6978,-0.71629,0.71687,0.6972,0,0)"
             cx="-122.47"
             cy="260.53"
             rx="8.7325459"
             ry="8.723011"
             id="ellipse20"
             style="fill:#000000;fill-opacity:1;stroke:none;stroke-width:10.5115;stroke-miterlimit:4;stroke-dasharray:none;stroke-opacity:1" />
        </g>
      </g>
    </g>
    <path
       style="fill:none;stroke:#000000;stroke-width:12;stroke-linecap:butt;stroke-linejoin:miter;stroke-miterlimit:4;stroke-dasharray:none;stroke-opacity:1"
       d="M 144.54955,53.605296 144.39177,162.16045"
       id="path1627" />
    <path
       style="fill:none;stroke:#000000;stroke-width:12;stroke-linecap:butt;stroke-linejoin:miter;stroke-miterlimit:4;stroke-dasharray:none;stroke-opacity:1"
       d="M 47.081512,16 V 158.70006"
       id="path1841" />
  </g>
</svg>
