<svg xmlns="http://www.w3.org/2000/svg" width="192" height="192" fill="none" viewBox="0 0 192 192"><path stroke="#000" stroke-linecap="round" stroke-linejoin="round" stroke-width="12" d="M25 44.446a6 6 0 0 1 2.977-5.182l17.968-10.482a6 6 0 0 1 6.094.028l40.89 24.36a6 6 0 0 0 6.142 0l40.89-24.36a6 6 0 0 1 6.094-.028l17.968 10.482A6 6 0 0 1 167 44.446V68.59a6 6 0 0 1-2.929 5.155l-41.142 24.51A6 6 0 0 0 120 103.41v46.379a6 6 0 0 1-2.672 4.992l-18 12a6 6 0 0 1-6.656 0l-18-12A6 6 0 0 1 72 149.789V103.41a6 6 0 0 0-2.93-5.155l-41.14-24.51A6 6 0 0 1 25 68.59zM96 84v82m0-82L31 47m65 37 65-37"/></svg>