<svg xmlns="http://www.w3.org/2000/svg" width="192" height="192" fill="none"><path stroke="#000" stroke-linecap="round" stroke-linejoin="round" stroke-width="12" d="M40.922 67.36a30.33 30.33 0 0 1 17.71-1.764 30.55 30.55 0 0 1 15.688 8.477L96 96l-21.674 21.92a30.54 30.54 0 0 1-15.694 8.484 30.33 30.33 0 0 1-17.71-1.764 30.73 30.73 0 0 1-13.756-11.417A31.25 31.25 0 0 1 22 96a31.25 31.25 0 0 1 5.166-17.223A30.73 30.73 0 0 1 40.922 67.36m71.334 45.08 5.418 5.48a30.54 30.54 0 0 0 15.694 8.484 30.33 30.33 0 0 0 17.71-1.764 30.72 30.72 0 0 0 13.756-11.417A31.25 31.25 0 0 0 170 96a31.25 31.25 0 0 0-5.166-17.223 30.73 30.73 0 0 0-13.756-11.417 30.33 30.33 0 0 0-17.71-1.764 30.55 30.55 0 0 0-15.688 8.477l-5.42 5.482"/></svg>