<svg width="192" height="192" viewBox="0 0 192 192" fill="none" xmlns="http://www.w3.org/2000/svg"><path d="M41.41 68.284a29.66 29.66 0 0 1 17.232-1.708 29.77 29.77 0 0 1 15.264 8.205L95 96l-21.088 21.213a29.77 29.77 0 0 1-15.27 8.211 29.662 29.662 0 0 1-17.232-1.708 29.855 29.855 0 0 1-13.384-11.049A30.126 30.126 0 0 1 23 96c0-5.933 1.75-11.734 5.026-16.667a29.863 29.863 0 0 1 13.384-11.05ZM112 111.91l5.349 5.303a30.334 30.334 0 0 0 15.492 8.211 30.498 30.498 0 0 0 17.481-1.708 30.195 30.195 0 0 0 13.579-11.049A29.824 29.824 0 0 0 169 96a29.824 29.824 0 0 0-5.099-16.667 30.204 30.204 0 0 0-13.579-11.05 30.496 30.496 0 0 0-17.481-1.707 30.338 30.338 0 0 0-15.486 8.205l-5.35 5.304" stroke="#000" stroke-width="14" stroke-linecap="round" stroke-linejoin="round"/></svg>