<svg viewBox="0 0 192 192" xmlns="http://www.w3.org/2000/svg" xmlns:xlink="http://www.w3.org/1999/xlink" width="192.000000" height="192.000000" fill="none">
	<rect id="gizmoVR" width="192.000000" height="192.000000" x="0.000000" y="0.000000" />
	<path id="矢量 34" d="M67 133C72.2113 137.241 86.907 144.77 104 140.952" stroke="rgb(0,0,0)" stroke-linecap="round" stroke-linejoin="round" stroke-width="10" />
	<path id="矢量 36" d="M74 99.9579C74.0239 88.3599 83.6691 78.9768 95.5432 79.0001C107.417 79.0233 117.024 88.4442 117 100.042C116.976 111.64 107.331 121.023 95.4568 121C83.5827 120.977 73.9762 111.556 74 99.9579ZM101.907 86.3079C107.844 86.3079 112.657 91.0089 112.657 96.8079C112.657 102.607 107.844 107.308 101.907 107.308C95.9698 107.308 91.1569 102.607 91.1569 96.8079C91.1569 91.0089 95.9698 86.3079 101.907 86.3079Z" fill-rule="evenodd" stroke="rgb(0,0,0)" stroke-linejoin="round" stroke-width="6" />
	<path id="矢量 35" d="M30 116.72L30.1191 167L161.814 167L162 116.712C162 87.4918 149.913 67.2868 127.357 57.6931C118.609 53.9723 108.287 51.8481 96.4838 51.4124C82.9515 50.9024 71.3038 53.0144 61.6535 57.6931C56.6959 60.0965 52.2652 63.1775 48.3776 66.928C32.393 82.3466 30 104.747 30 116.72ZM61.6535 57.6931L48.3776 29.7687M127.357 57.6931L141.029 29.7687M141.557 25C143.017 25 144.201 26.1861 144.201 27.6493C144.201 29.1124 143.017 30.2985 141.557 30.2985C140.097 30.2985 138.914 29.1124 138.914 27.6493C138.914 26.1861 140.097 25 141.557 25ZM47.4473 25C48.9073 25 50.0909 26.1861 50.0909 27.6493C50.0909 29.1124 48.9073 30.2985 47.4473 30.2985C45.9874 30.2985 44.8038 29.1124 44.8038 27.6493C44.8038 26.1861 45.9874 25 47.4473 25Z" fill-rule="evenodd" stroke="rgb(0,0,0)" stroke-linecap="round" stroke-linejoin="round" stroke-width="12" />
</svg>
