<svg xmlns="http://www.w3.org/2000/svg" width="192" height="192" fill="none" viewBox="0 0 192 192"><path stroke="#000" stroke-linecap="round" stroke-linejoin="round" stroke-miterlimit="10" stroke-width="12" d="M96 170c40.869 0 74-33.131 74-74s-33.131-74-74-74-74 33.13-74 74 33.13 74 74 74"/><path stroke="#000" stroke-linecap="round" stroke-linejoin="round" stroke-miterlimit="10" stroke-width="6" d="M77.2 150.2a3 3 0 1 0 0-6 3 3 0 0 0 0 6m39.1 0a3 3 0 1 0 0-6 3 3 0 0 0 0 6"/><path stroke="#000" stroke-linecap="round" stroke-linejoin="round" stroke-miterlimit="10" stroke-width="12" d="M51.8 155.4c4-20.7 22.3-36.4 44.2-36.4s40.2 15.6 44.2 36.4m-68.8-29.1-9.1-13.8m58.2 13.8 9.1-13.8"/><path stroke="#000" stroke-linecap="round" stroke-linejoin="round" stroke-miterlimit="10" stroke-width="10" d="M84 90.7h-4a6 6 0 0 1-6-6v-27a6 6 0 0 1 6-6h4m23 39h4a6 6 0 0 0 6-6v-27a6 6 0 0 0-6-6h-4M74 71.2h-8m51 0h8"/></svg>