<svg id="Layer_1" data-name="Layer 1" xmlns="http://www.w3.org/2000/svg" viewBox="0 0 24 24">
  <g>
    <path d="M19.01844,9.32571l2.16345-.83824a9.95559,9.95559,0,0,0-5.60577-5.64413L14.72291,5.0007A7.62845,7.62845,0,0,1,19.01844,9.32571Z"/>
    <path d="M11.92516,19.68076A7.60709,7.60709,0,0,1,9.08907,5.01567L8.22463,2.86346A9.92639,9.92639,0,1,0,21.15756,15.72435l-2.15783-.85321A7.6072,7.6072,0,0,1,11.92516,19.68076Z"/>
    <path d="M6.884,12.0748a5.04117,5.04117,0,1,0,5.04117-5.0407A5.04115,5.04115,0,0,0,6.884,12.0748Zm7.837,0a2.79587,2.79587,0,1,1-2.79587-2.7954A2.79587,2.79587,0,0,1,14.721,12.0748Z"/>
    <circle cx="11.92516" cy="3.30979" r="1.30976"/>
    <circle cx="20.69024" cy="12.15749" r="1.30976"/>
  </g>
</svg>
