<svg xmlns="http://www.w3.org/2000/svg" width="192" height="192" fill="none"><circle cx="89" cy="139" r="5" stroke="#000" stroke-linecap="round" stroke-linejoin="round" stroke-width="10"/><circle cx="115" cy="113" r="5" stroke="#000" stroke-linecap="round" stroke-linejoin="round" stroke-width="10"/><path stroke="#000" stroke-linecap="round" stroke-linejoin="round" stroke-width="8" d="m67 65 48 48M89 87v52"/><circle cx="89" cy="87" r="5" stroke="#000" stroke-linecap="round" stroke-linejoin="round" stroke-width="10"/><path stroke="#000" stroke-linecap="round" stroke-linejoin="round" stroke-width="12" d="M146.228 104.541a52 52 0 0 1 1.75 14.959M45.772 104.541A52 52 0 0 0 73 164.637a52 52 0 0 0 27 5.209M96 22s-47 66-50.23 82.54M96 22s47 66 50.229 82.54"/><path stroke="#000" stroke-linecap="round" stroke-linejoin="round" stroke-miterlimit="6" stroke-width="10" d="M131 171a18 18 0 1 0 0-36m0 35.999h-6a6 6 0 0 1-6-6V141a6 6 0 0 1 6-6h6"/></svg>