<?xml version="1.0" encoding="UTF-8" standalone="no"?>
<svg
   width="24"
   height="24"
   viewBox="0 0 24 24"
   fill="none"
   version="1.1"
   id="svg8"
   sodipodi:docname="gmail.svg"
   inkscape:version="1.1.1 (3bf5ae0d25, 2021-09-20)"
   xmlns:inkscape="http://www.inkscape.org/namespaces/inkscape"
   xmlns:sodipodi="http://sodipodi.sourceforge.net/DTD/sodipodi-0.dtd"
   xmlns="http://www.w3.org/2000/svg"
   xmlns:svg="http://www.w3.org/2000/svg">
  <defs
     id="defs12" />
  <sodipodi:namedview
     id="namedview10"
     pagecolor="#ffffff"
     bordercolor="#666666"
     borderopacity="1.0"
     inkscape:pageshadow="2"
     inkscape:pageopacity="0.0"
     inkscape:pagecheckerboard="true"
     showgrid="false"
     inkscape:zoom="22.627417"
     inkscape:cx="5.6347572"
     inkscape:cy="13.34664"
     inkscape:window-width="2560"
     inkscape:window-height="1011"
     inkscape:window-x="0"
     inkscape:window-y="32"
     inkscape:window-maximized="1"
     inkscape:current-layer="svg8" />
  <path
     style="color:#000000;fill:#000000;-inkscape-stroke:none"
     d="M 5.0664062,4.265625 C 3.5317632,4.1790017 2,5.3717038 2,7.0800781 v 1.6367188 8.7949221 c 0,1.219247 1.0098203,2.226562 2.2265625,2.226562 H 8.0917969 V 13.785156 L 12,16.716797 15.908203,13.785156 v 5.953125 h 3.865234 C 20.992595,19.738281 22,18.728588 22,17.511719 V 7.0800781 C 22,4.8013476 19.276988,3.4394357 17.455078,4.8066406 L 12,8.8984375 6.5449219,4.8066406 C 6.0891721,4.4652141 5.5779539,4.2944994 5.0664062,4.265625 Z M 4.4453125,6.2890625 C 4.7059085,6.1588232 5.0422074,6.1808383 5.3457031,6.4082031 L 12,11.398438 18.654297,6.4082031 V 6.40625 C 19.258263,5.9530192 20,6.3233515 20,7.0800781 V 17.511719 c 0,0.137241 -0.08776,0.226562 -0.226563,0.226562 H 17.908203 V 9.7851563 L 12,14.216797 6.0917969,9.7851563 V 17.738281 H 4.2265625 C 4.0891954,17.738281 4,17.650696 4,17.511719 V 8.7167969 7.0800781 C 4,6.701266 4.1847165,6.4193018 4.4453125,6.2890625 Z"
     id="path6" />
</svg>
