<svg xmlns="http://www.w3.org/2000/svg" width="192" height="192" fill="none"><path stroke="#000" stroke-linejoin="round" stroke-width="12" d="M164 144V28a6 6 0 0 0-6-6h-28.949a25 25 0 0 0-16.004 5.794L96 42 78.953 27.794A25 25 0 0 0 62.95 22H34a6 6 0 0 0-6 6v116a6 6 0 0 0 6 6h28.949a25 25 0 0 1 16.004 5.794L96 170l17.047-14.206A25 25 0 0 1 129.051 150H158a6 6 0 0 0 6-6Z"/><path stroke="#000" stroke-linecap="round" stroke-linejoin="round" stroke-width="12" d="M96 132v-10"/><path stroke="#000" stroke-width="12" d="M96 100c8.837 0 16-7.163 16-16s-7.163-16-16-16-16 7.163-16 16 7.163 16 16 16Z"/><path stroke="#000" stroke-linecap="round" stroke-width="12" d="M134 84c0 20.987-17.013 38-38 38s-38-17.013-38-38"/></svg>