<svg xmlns="http://www.w3.org/2000/svg" width="192" height="192" fill="none" viewBox="0 0 192 192"><path stroke="#000" stroke-linecap="round" stroke-linejoin="round" stroke-width="12" d="M32 82.649V132.5c0 25.5 36 33 64 33s64-7.5 64-33V82.649c0-1.39.482-2.735 1.364-3.808l7.217-8.786a6 6 0 0 0 .246-7.296l-4.262-5.967a6 6 0 0 0-7.714-1.803l-8.344 4.466c-2.283 1.22-5.077.825-7.037-.865a82 82 0 0 0-9.859-7.314c-1.885-1.185-3.072-3.246-3.01-5.472l.28-10.04a6 6 0 0 0-3.87-5.776l-5.629-2.135a6 6 0 0 0-7.39 2.728l-3.968 7.245c-1.215 2.217-3.687 3.408-6.205 3.183a66 66 0 0 0-11.639 0c-2.517.225-4.99-.966-6.204-3.183l-3.968-7.245a6 6 0 0 0-7.39-2.728l-5.63 2.135a6 6 0 0 0-3.869 5.777l.28 10.04c.062 2.225-1.124 4.286-3.01 5.47a82 82 0 0 0-9.86 7.315c-1.96 1.69-4.754 2.086-7.036.865l-8.344-4.466a6 6 0 0 0-7.714 1.803l-4.262 5.967a6 6 0 0 0 .246 7.296l7.217 8.786A6 6 0 0 1 32 82.649"/><path stroke="#000" stroke-width="10" d="M63.5 104c6.904 0 12.5-5.596 12.5-12.5S70.404 79 63.5 79 51 84.596 51 91.5 56.596 104 63.5 104Zm65 0c6.904 0 12.5-5.596 12.5-12.5S135.404 79 128.5 79 116 84.596 116 91.5s5.596 12.5 12.5 12.5Z"/><path stroke="#000" stroke-linecap="round" stroke-width="12" d="M96 94v12"/><path stroke="#000" stroke-linecap="round" stroke-linejoin="round" stroke-width="10" d="m33 122.5 19.5 2L54 137l25.5 2.5L83 126h26l3.5 13.5L138 137l1.5-12.5 19.5-2"/></svg>