<svg width="192" height="192" viewBox="0 0 192 192" fill="none" xmlns="http://www.w3.org/2000/svg"><path d="M71 56v61m63.44-44-31.72 53.5M105 50l6 3.706v6.588L105 64l-6-3.706v-6.588L105 50ZM78.271 157 83 161.934l-1.667 6.118L74.729 170 70 165.066l1.667-6.118L78.271 157Z" stroke="#000" stroke-width="12" stroke-linecap="round" stroke-linejoin="round"/><path d="M134.445 73a34.006 34.006 0 0 0 1.967-30.011 34.003 34.003 0 0 0-38.045-20.336A34 34 0 0 0 71 56m0 62a17 17 0 0 0 31.722 8.5" stroke="#000" stroke-width="12" stroke-linecap="round" stroke-linejoin="round"/></svg>