<svg xmlns="http://www.w3.org/2000/svg" width="192" height="192" fill="none" viewBox="0 0 192 192"><g stroke="#000" stroke-linejoin="round" clip-path="url(#a)"><path stroke-linecap="round" stroke-width="12" d="M167 96a71 71 0 0 1-142 0m137-71c0 4.99-1.707 9.932-5.024 14.542s-8.178 8.8-14.307 12.328c-6.129 3.529-13.404 6.328-21.412 8.237C113.25 62.017 104.667 63 96 63s-17.25-.983-25.257-2.893-15.283-4.708-21.412-8.237-10.99-7.718-14.307-12.328S30 29.99 30 25zm5 71H25"/><circle cx="57" cy="118" r="4" stroke-width="8"/><circle cx="96" cy="118" r="4" stroke-width="8"/><circle cx="76" cy="139" r="4" stroke-width="8"/><circle cx="116" cy="139" r="4" stroke-width="8"/><circle cx="135" cy="118" r="4" stroke-width="8"/><rect width="142" height="142" x="25" y="25" stroke-linecap="round" stroke-width="12" rx="6"/></g><defs><clipPath id="a"><path fill="#fff" d="M0 0h192v192H0z"/></clipPath></defs></svg>