<svg xmlns="http://www.w3.org/2000/svg" width="192" height="192" fill="none"><path stroke="#000" stroke-linecap="round" stroke-linejoin="round" stroke-width="12" d="M70.372 69.322 115.63 96l-45.258 26.678m0-53.356v53.356m0-53.356C43.807 53.512 32 82.167 32 99.952m38.372 22.726c0 17.786 11.806 37.291 38.371 21.482m6.884-48.165c26.916-15.2 7.47-39.835-7.868-48.728m0 0-37.34-21.759C53.367 15.57 32 27.928 32 47.728v96.543c0 19.801 21.366 32.158 38.42 22.221l38.323-22.332m-.984-96.893 45.499 26.513c16.989 9.9 16.989 34.54 0 44.44l-44.515 25.94"/></svg>