<svg width="192" height="192" viewBox="0 0 192 192" fill="none" xmlns="http://www.w3.org/2000/svg"><g clip-path="url(#good_pizza_great_pizza__a)" stroke="#000" stroke-linejoin="round"><path d="M170 96a74.002 74.002 0 0 1-74 74 73.997 73.997 0 0 1-74-74m142.367-57.545c2.407-3.375 4.057-6.908 4.923-10.511.774-3.222-1.976-5.944-5.29-5.944H28c-3.314 0-6.064 2.722-5.29 5.944.866 3.603 2.517 7.136 4.923 10.511 3.719 5.217 9.17 9.958 16.041 13.95 6.872 3.993 15.03 7.16 24.007 9.322C76.66 63.887 86.282 65 96 65s19.34-1.112 28.319-3.273c8.978-2.161 17.135-5.328 24.007-9.321 6.871-3.993 12.322-8.734 16.041-13.95Z" stroke-width="12"/><path d="M170 164V28a6 6 0 0 0-6-6H28a6 6 0 0 0-6 6v136a6 6 0 0 0 6 6h136a6 6 0 0 0 6-6Zm0-74H22" stroke-width="12" stroke-linecap="round"/><circle cx="56" cy="120" r="5" stroke-width="10"/><circle cx="96" cy="120" r="5" stroke-width="10"/><circle cx="76" cy="142" r="5" stroke-width="10"/><circle cx="116" cy="142" r="5" stroke-width="10"/><circle cx="136" cy="120" r="5" stroke-width="10"/></g><defs><clipPath id="good_pizza_great_pizza__a"><path fill="#fff" d="M0 0h192v192H0z"/></clipPath></defs></svg>