<svg width="192" height="192" viewBox="0 0 192 192" fill="none" xmlns="http://www.w3.org/2000/svg"><path d="M114.142 164.142A20 20 0 0 0 120 150v-8a6 6 0 0 0-6-6H86a6 6 0 0 0-6 6v8a20 20 0 0 0 34.142 14.142Zm-79.796-90.62A20 20 0 0 1 42 72h8a6 6 0 0 1 6 6v28a6 6 0 0 1-6 6h-8a20.002 20.002 0 0 1-20-20 20 20 0 0 1 12.346-18.478Zm79.796-45.664A19.999 19.999 0 0 1 120 42v30h30a20 20 0 0 1 0 40H86a6 6 0 0 1-6-6V42a20 20 0 0 1 34.142-14.142Z" stroke="#000" stroke-width="12" stroke-linecap="round" stroke-linejoin="round"/></svg>