<svg width="24" height="24" viewBox="0 0 24 24" fill="none" xmlns="http://www.w3.org/2000/svg">
<path d="M22 12C22 17.5229 17.5229 22 12 22C11.8091 22 11.6196 21.9946 11.4316 21.9841L15.854 14.3245C15.9368 14.1875 16.0126 14.0457 16.0807 13.8996L19.5 12L16.0805 10.1003C15.7891 9.47554 15.3585 8.9288 14.8286 8.5H21.3706C21.7778 9.58936 22 10.7686 22 12Z" fill="black"/>
<path fill-rule="evenodd" clip-rule="evenodd" d="M15.0308 13.75C15.3286 13.2351 15.5 12.6377 15.5 12C15.5 10.0669 13.9331 8.5 12 8.5C10.0669 8.5 8.5 10.0669 8.5 12C8.5 12.2437 8.5249 12.4817 8.57227 12.7112C8.64453 13.0618 8.76953 13.3933 8.93799 13.6968L8.96875 13.75C9.57373 14.7961 10.7046 15.5 12 15.5C13.2681 15.5 14.3789 14.8259 14.9927 13.8164L15.0308 13.75ZM13.25 11.5C13.25 11.9142 12.9142 12.25 12.5 12.25C12.0858 12.25 11.75 11.9142 11.75 11.5C11.75 11.0858 12.0858 10.75 12.5 10.75C12.9142 10.75 13.25 11.0858 13.25 11.5Z" fill="black"/>
<path d="M13.6152 16.2014L10.3462 21.8638C5.61035 21.0757 2 16.9595 2 12H6.80354L8.06787 14.1897C8.83691 15.5679 10.3096 16.5 12 16.5C12.5693 16.5 13.1138 16.3943 13.6152 16.2014Z" fill="black"/>
<path d="M6.22614 11L3.63672 6.51538C2.77446 7.82768 2.21266 9.35515 2.04937 11H6.22614Z" fill="black"/>
<path d="M12 2C8.89404 2 6.11865 3.41577 4.28467 5.63721L7.5542 11.2998C7.89062 9.14697 9.75293 7.5 12 7.5H20.9326C19.2856 4.2373 15.9043 2 12 2Z" fill="black"/>
</svg>
