<svg xmlns="http://www.w3.org/2000/svg" width="192" height="192" fill="none" viewBox="0 0 192 192"><path stroke="#000" stroke-linejoin="round" stroke-width="12" d="m29.56 78.961-7.14 56.232c-1.441 11.347 12.302 18.085 20.39 9.997L70 118h52l27.19 27.19c8.088 8.088 21.831 1.35 20.39-9.997l-7.14-56.232C159.902 58.978 142.901 44 122.758 44H69.242C49.099 44 32.098 58.978 29.56 78.961Z"/><path stroke="#000" stroke-linecap="round" stroke-width="12" d="M66 69v12m0 12V81m0 0H54m12 0h12"/><circle cx="126" cy="69" r="6" fill="#000"/><circle cx="126" cy="93" r="6" fill="#000"/><circle cx="138" cy="81" r="6" fill="#000" transform="rotate(90 138 81)"/><circle cx="114" cy="81" r="6" fill="#000" transform="rotate(90 114 81)"/></svg>