<svg width="192" height="192" viewBox="0 0 50.8 50.8" xml:space="preserve" xmlns="http://www.w3.org/2000/svg"><g fill="none" stroke="#000" stroke-linecap="round" stroke-linejoin="round"><path stroke-width="3.175" d="M5.826 8.775h39.148v33.25H5.826z"/><path d="M29.854 42.025v-3.458h7.106v3.458" stroke-width="2.117"/><path d="M18.824 32.006h13.192" stroke-width="3.175"/><circle cx="25.4" cy="20.695" r="1.938" stroke-width="2.117"/><path d="M18.824 32.006v-2.068m13.192 2.068v-2.068m-13.208 0s.957-3.572 6.592-3.572 6.616 3.572 6.616 3.572" stroke-width="3.175"/><g stroke-width="2.117"><path d="m13.123 32.014 2.814-.008m-2.814.008v-1.6s.775-2.683 3.506-2.683"/><ellipse cx="17.886" cy="24.214" rx="1.044" ry="1.054"/><path d="m37.677 32.014-2.814-.008m2.814.008v-1.6s-.775-2.683-3.506-2.683"/></g><path d="M31.869 24.214a1.044 1.054 0 0 0 1.044 1.054 1.044 1.054 0 0 0 1.045-1.054 1.044 1.054 0 0 0-1.045-1.054 1.044 1.054 0 0 0-1.044 1.054z" stroke-width="2.117"/></g></svg>