<svg width="192" height="192" viewBox="0 0 192 192" fill="none" xmlns="http://www.w3.org/2000/svg"><path d="M63.68 87.8a8 8 0 1 0 0-16 8 8 0 0 0 0 16Zm16.19 15.78a8 8 0 1 0 0-16 8 8 0 0 0 0 16Zm-31.9 0a8 8 0 1 0 0-16 8 8 0 0 0 0 16Zm15.55 16a8 8 0 1 0 0-16 8 8 0 0 0 0 16Z" fill="#000"/><path d="M33.53 62.16h42.33s25.66.57 29.33 20.9l9 48m-80-2 29.41.1 21.24 21" stroke="#000" stroke-width="12" stroke-linecap="round" stroke-linejoin="round"/><path d="M157.87 109.93 56 167.88a16.004 16.004 0 0 1-16.01-.006A15.997 15.997 0 0 1 32 154V38.05a16 16 0 0 1 24-13.93l101.9 57.95a16 16 0 0 1 0 27.86h-.03Z" stroke="#000" stroke-width="12"/></svg>