<svg width="192" height="192" viewBox="0 0 192 192" fill="none" xmlns="http://www.w3.org/2000/svg"><circle cx="152" cy="152" r="15" stroke="#000" stroke-width="12" stroke-linecap="round" stroke-linejoin="round"/><circle cx="96" cy="103" r="24" stroke="#000" stroke-width="12" stroke-linecap="round" stroke-linejoin="round"/><path d="M25 120v17c0 16.569 13.431 30 30 30h41M25 88V73c0-16.569 13.431-30 30-30h10.087a6 6 0 0 0 4.884-2.515l9.236-12.945A6 6 0 0 1 84.11 25h23.782a6 6 0 0 1 4.902 2.54l9.236 12.945A6 6 0 0 0 126.913 43H137c16.569 0 30 13.431 30 30v23" stroke="#000" stroke-width="12" stroke-linecap="round" stroke-linejoin="round"/></svg>