<?xml version="1.0" encoding="UTF-8" standalone="no"?>
<svg
   width="24"
   height="24"
   viewBox="0 0 24 24"
   fill="none"
   version="1.1"
   id="svg10"
   sodipodi:docname="google_play_store.svg"
   inkscape:version="1.1.1 (3bf5ae0d25, 2021-09-20)"
   xmlns:inkscape="http://www.inkscape.org/namespaces/inkscape"
   xmlns:sodipodi="http://sodipodi.sourceforge.net/DTD/sodipodi-0.dtd"
   xmlns="http://www.w3.org/2000/svg"
   xmlns:svg="http://www.w3.org/2000/svg">
  <path
     id="path4"
     style="fill:#000000;stroke-width:1.22737"
     d="M 5.0919488,2.0000603 C 4.9691759,2.0012803 4.8546759,2.0218923 4.748151,2.0586623 L 13.98381,11.294322 16.841629,8.4365025 5.9729307,2.2618155 C 5.657651,2.081509 5.3580189,1.9974107 5.0919488,2.0000603 Z M 4.0820427,2.8068131 C 4.0302739,2.9806955 4,3.1793977 4,3.4025992 V 20.600303 c 0,0.223691 0.031766,0.419739 0.083996,0.593833 l 9.192684,-9.192685 z m 13.6620563,6.1414793 -3.05316,3.0531586 3.05316,3.053159 3.404769,-1.933862 c 0.544216,-0.306842 0.817861,-0.712179 0.818474,-1.119297 -6.13e-4,-0.406994 -0.274257,-0.812577 -0.818474,-1.119297 z M 13.98381,12.708581 4.7501043,21.942287 c 0.3369592,0.115678 0.7628723,0.06183 1.2228264,-0.2012 L 16.841629,15.5664 Z" />
  <defs
     id="defs14" />
  <sodipodi:namedview
     id="namedview12"
     pagecolor="#ffffff"
     bordercolor="#666666"
     borderopacity="1.0"
     inkscape:pageshadow="2"
     inkscape:pageopacity="0.0"
     inkscape:pagecheckerboard="true"
     showgrid="true"
     inkscape:zoom="17.354167"
     inkscape:cx="7.9807922"
     inkscape:cy="14.636254"
     inkscape:window-width="2560"
     inkscape:window-height="1011"
     inkscape:window-x="0"
     inkscape:window-y="32"
     inkscape:window-maximized="1"
     inkscape:current-layer="svg10">
    <inkscape:grid
       type="xygrid"
       id="grid929"
       empspacing="1" />
  </sodipodi:namedview>
</svg>
