<?xml version="1.0" encoding="UTF-8" standalone="no"?>
<svg
   width="24"
   height="24"
   viewBox="0 0 24 24"
   fill="none"
   version="1.1"
   id="svg10"
   sodipodi:docname="google_tv.svg"
   inkscape:version="1.1.1 (3bf5ae0d25, 2021-09-20)"
   xmlns:inkscape="http://www.inkscape.org/namespaces/inkscape"
   xmlns:sodipodi="http://sodipodi.sourceforge.net/DTD/sodipodi-0.dtd"
   xmlns="http://www.w3.org/2000/svg"
   xmlns:svg="http://www.w3.org/2000/svg">
  <defs
     id="defs14" />
  <sodipodi:namedview
     id="namedview12"
     pagecolor="#ffffff"
     bordercolor="#666666"
     borderopacity="1.0"
     inkscape:pageshadow="2"
     inkscape:pageopacity="0.0"
     inkscape:pagecheckerboard="0"
     showgrid="false"
     inkscape:zoom="17.354167"
     inkscape:cx="-1.8727491"
     inkscape:cy="16.307323"
     inkscape:window-width="2560"
     inkscape:window-height="1011"
     inkscape:window-x="0"
     inkscape:window-y="32"
     inkscape:window-maximized="1"
     inkscape:current-layer="svg10" />
  <g
     id="g835"
     transform="translate(0,-0.35295)">
    <path
       d="M 9.64706,5 C 8.02269,5 6.70588,6.31681 6.70588,7.94118 V 8.52941 H 19.0589 c 1.1521,0 2.1937,0.47319 2.9411,1.23582 V 7.35294 C 22,6.05345 20.9466,5 19.6471,5 Z"
       fill="#000000"
       id="path2" />
    <path
       d="m 22,12.626 v 4.7269 c 0,1.2995 -1.0534,2.353 -2.3529,2.353 h -2.4123 c 0.7626,-0.7474 1.2358,-1.789 1.2358,-2.9411 V 9.70588 h 0.5883 c 1.6173,0 2.9298,1.30542 2.9411,2.92012 z"
       fill="#000000"
       id="path4" />
    <path
       d="M 4.35294,19.7059 H 14.374 c 1.6147,-0.0114 2.9201,-1.3238 2.9201,-2.9411 V 16.1765 H 4.94118 C 3.78901,16.1765 2.74736,15.7033 2,14.9406 v 2.4123 c 0,1.2995 1.05345,2.353 2.35294,2.353 z"
       fill="#000000"
       id="path6" />
    <path
       d="M 2,12.0621 V 7.35294 C 2,6.05345 3.05345,5 4.35294,5 H 6.7653 C 6.00263,5.74736 5.52941,6.78901 5.52941,7.94118 V 15 H 4.94118 C 3.31792,15 2.00179,13.685 2,12.0621 Z"
       fill="#000000"
       id="path8" />
  </g>
</svg>
