<svg width="24" height="24" viewBox="0 0 24 24" fill="none" xmlns="http://www.w3.org/2000/svg">
<path d="M6.90605 7.10088L9.2166 8.40219C9.76405 8.71053 9.94383 9.37948 9.63239 9.91093L9.63175 9.91202L6.26733 15.5989L6.26286 15.6066C5.75666 16.4799 5.56535 17.4446 5.65351 18.374L3.96885 17.4267L3.96765 17.426C2.07353 16.3525 1.44505 14.0136 2.52103 12.2016L5.30946 7.50829L5.31154 7.50476C5.61891 6.98256 6.32861 6.77897 6.90482 7.10019L6.90605 7.10088Z" fill="#FFF1C0"/>
<path d="M12.8186 19.0231C12.0137 20.387 10.2384 20.889 8.80398 20.1471C7.93474 19.5473 7.51892 18.5379 7.66115 17.5604L7.72751 17.598C9.39525 18.5408 11.5261 17.9854 12.5001 16.337L16.5267 9.52345L16.5665 9.55929L16.6617 9.6131C17.3861 10.0226 17.6132 10.8994 17.2118 11.5789L12.8186 19.0231Z" fill="#FFF1C0"/>
<path d="M8.71179 15.8568L8.50737 15.7408L11.3548 10.9278L11.3563 10.9252C12.2437 9.41471 11.7066 7.50904 10.1981 6.65944L9.7741 6.42062L9.96013 6.10545L9.96072 6.10445C11.0651 4.24262 13.521 3.59031 15.4464 4.67545L15.4475 4.67605L17.2731 5.71171C16.5276 6.09273 15.8798 6.68524 15.4261 7.45435L10.778 15.3195C10.3656 16.0176 9.44298 16.2696 8.71179 15.8568Z" fill="#FFF1C0"/>
<path d="M17.6578 7.85074C18.4316 7.16372 19.5645 7.00759 20.5098 7.54056C21.9473 8.35227 22.4213 10.1268 21.6048 11.5103L18.5362 16.7063C18.1267 17.3994 17.2051 17.6532 16.4674 17.242L16.4656 17.2411L16.261 17.1254L18.9343 12.5954C19.2161 12.1183 19.3682 11.6049 19.4026 11.093C19.4858 9.85274 18.878 8.6207 17.7479 7.93175L17.6578 7.85074Z" fill="#FFF1C0"/>
</svg>
