<svg version="1.0" xmlns="http://www.w3.org/2000/svg" width="256" height="256" viewBox="0 0 192 192"><path d="M45 23.9c-.5 1.1-1 6.3-1 11.5V45H33.9c-5.5 0-10.9.5-12 1-1.8 1-1.9 2.3-1.9 17.3 0 13.5.3 16.9 1.9 20.2C25.3 90.9 33 96.7 41 97.7c3.5.5 3.8.9 4.4 4.2.3 2 1.9 6.4 3.6 9.8 6 11.9 19.5 21.4 34.1 23.7l6.9 1V158H79.6c-5.7 0-11.2.3-12.1.6-2.7 1.1-3.8 5.3-2 8L67 169h57l1.5-2.4c1.8-2.7.7-6.9-2-8-.9-.3-6.4-.6-12.1-.6H101v-14.9c0-17.5-.3-18.1-8.3-18.1-15.5 0-29.8-9-34.8-21.8-2.2-5.4-2.3-7.3-2.7-38L54.8 33H136v28.2c0 15.6-.4 30.9-1 34.2-1.9 11.5-8.4 20.2-19.1 25.7-6.5 3.2-7.9 5.7-5.5 9.4 6.4 9.8 32.2-11.1 35.1-28.4.6-3.6.9-3.9 4.4-4.4 8.1-1 15.8-6.8 19.2-14.2 1.6-3.3 1.9-6.7 1.9-20.2 0-15-.1-16.3-1.9-17.3-1.1-.5-6.5-1-12-1H147v-9.6c0-5.2-.5-10.4-1-11.5-1-1.8-2.7-1.9-50.5-1.9S46 22.1 45 23.9zm-1 48.2v15l-2.2-.6C38 85.3 35 83 33 79.7c-1.6-2.6-2-5.1-2-13V57h13v15.1zm116-5.4c0 7.9-.4 10.4-2 13-2 3.3-5 5.6-8.7 6.8l-2.3.6V57h13v9.7z"/><path d="M93.3 52.8c-.7.4-1.9 2.8-2.8 5.2-2.4 6.9-3.9 8-10.6 8-4.9 0-6 .3-6.9 2.1-1.7 3.1-.4 6.5 3.4 8.8 5.8 3.7 6.1 4.4 4.1 11.1-1.8 5.8-1.8 6.1 0 8 2.5 2.8 5.2 2.5 10.5-1 2.5-1.6 5-3 5.6-3 .6 0 2.8 1.3 5 3 6 4.5 11.4 3.7 11.4-1.7 0-1.2-.6-4.3-1.2-6.9-1.2-4.5-1.2-4.6 1.7-7.1 1.7-1.4 4.1-3.4 5.3-4.5 1.9-1.5 2.2-2.5 1.7-4.6-.9-3.6-2.1-4.2-8.1-4.2s-7.8-1.2-9.4-6.5c-2.1-6.6-5.8-9.2-9.7-6.7z"/></svg>