<svg width="192" height="192" viewBox="0 0 192 192" fill="none" xmlns="http://www.w3.org/2000/svg">
    <path d="M43 32.965V159.032C42.9999 160.956 43.4894 162.847 44.4194 164.514C45.3493 166.181 46.687 167.565 48.2979 168.528C49.9089 169.491 51.7365 169.999 53.5971 170C55.4578 170.001 57.286 169.496 58.8982 168.535L164.706 105.476C166.315 104.516 167.652 103.136 168.581 101.472C169.511 99.8086 170 97.9213 170 96C170 94.0787 169.511 92.1914 168.581 90.5279C167.652 88.8644 166.315 87.4835 164.706 86.5242L58.8982 23.4648C57.2861 22.504 55.458 21.9988 53.5974 22C51.7368 22.0012 49.9093 22.5087 48.2983 23.4715C46.6874 24.4344 45.3498 25.8187 44.4197 27.4854C43.4897 29.1521 43.0001 31.0426 43 32.967V32.965Z" stroke="black" stroke-width="12"/>
    <path d="M43 37L131 125.5M43 155L131 66.5L43 155Z" stroke="black" stroke-width="11.4894"/>
</svg>
