<svg width="192" height="192" viewBox="0 0 192 192" fill="none" xmlns="http://www.w3.org/2000/svg"><path d="M114 121h15M76 99v36m53-36h-9a6 6 0 0 0-6 6v30m-75-14h14a6 6 0 0 0 6-6v-10a6 6 0 0 0-6-6h-8a6 6 0 0 0-6 6v30m37-36h14a6 6 0 0 1 6 6v24a6 6 0 0 1-6 6H76" stroke="#000" stroke-width="10" stroke-linecap="round" stroke-linejoin="round"/><path d="M40 157v7a6 6 0 0 0 6 6h100a6 6 0 0 0 6-6V64.485a6 6 0 0 0-1.757-4.242l-36.486-36.486A5.998 5.998 0 0 0 109.515 22H46a6 6 0 0 0-6 6v49" stroke="#000" stroke-width="12" stroke-linecap="round" stroke-linejoin="round"/><path d="M150 64h-34a6 6 0 0 1-6-6V24" stroke="#000" stroke-width="12" stroke-linecap="round" stroke-linejoin="round"/></svg>