<svg xmlns="http://www.w3.org/2000/svg" width="192" height="192" viewBox="0 0 192 192"><path d="m28.828 169.172-4.242-4.243 4.242 4.243zm19.657-19.657-4.242-4.243 4.242 4.243zM34 68h84V56H34v12zm90 6v60h12V74h-12zm-96 72V74H16v72h12zm-12 0v20.343h12V146H16zm17.071 27.414 19.657-19.657-8.485-8.485-19.657 19.657 8.485 8.485zM56.971 152H118v-12H56.97v12zM16 166.343c0 8.909 10.771 13.371 17.071 7.071l-8.485-8.485A3.414 1.414 0 0 0 28 166.343H16zM124 134a6 6 0 0 1-6 6v12a18 18 0 0 0 18-18h-12zm-6-66a6 6 0 0 1 6 6h12a18 18 0 0 0-18-18v12zm-65.272 85.757A6 6 0 0 1 56.97 152v-12a17.999 17.999 0 0 0-12.728 5.272l8.485 8.485zM34 56a18 18 0 0 0-18 18h12a6 6 0 0 1 6-6V56z"/><path d="M74 28h84V16H74v12zm90 6v60h12V34h-12zM68 64V34H56v30h12zm62 48h28v-12h-28v12zm34-18a6 6 0 0 1-6 6v12a18 18 0 0 0 18-18h-12zm-6-66a6 6 0 0 1 6 6h12a18 18 0 0 0-18-18v12zM74 16a18 18 0 0 0-18 18h12a6 6 0 0 1 6-6V16z"/></svg>