<?xml version="1.0" encoding="UTF-8" standalone="no"?>
<svg
   xmlns:dc="http://purl.org/dc/elements/1.1/"
   xmlns:cc="http://creativecommons.org/ns#"
   xmlns:rdf="http://www.w3.org/1999/02/22-rdf-syntax-ns#"
   xmlns:svg="http://www.w3.org/2000/svg"
   xmlns="http://www.w3.org/2000/svg"
   width="192"
   height="192"
   viewBox="0 0 192 192"
   version="1.1"
   id="svg4">
  <metadata
     id="metadata10">
    <rdf:RDF>
      <cc:Work
         rdf:about="">
        <dc:format>image/svg+xml</dc:format>
        <dc:type
           rdf:resource="http://purl.org/dc/dcmitype/StillImage" />
        <dc:title></dc:title>
      </cc:Work>
    </rdf:RDF>
  </metadata>
  <defs
     id="defs8" />
  <path
     d="m 64,88.164671 22.112734,-0.06665 m 0,1.65e-4 A 22.009499,21.987608 0 0 1 68.55898,109.71977 22.009499,21.987608 0 0 1 43.862623,96.823371 22.009499,21.987608 0 0 1 51.61378,70.082885 22.009499,21.987608 0 0 1 79.386764,72.365324"
     style="display:inline;opacity:1;fill:none;stroke:#000000;stroke-width:12;stroke-linecap:round;stroke-linejoin:miter;stroke-miterlimit:4;stroke-dasharray:none;stroke-opacity:1"
     id="path823" />
  <path
     d="m 98.949212,146.13687 9.265838,23.78345 M 93.285455,46.066027 h 64.238275 c 6.91213,0 12.47677,5.09313 12.47677,11.419566 V 158.57977 c 0,6.32645 -5.56464,11.41958 -12.47677,11.41958 v 0 H 108.0005 M 129.99894,146.01225 83.999393,22.080136 M 129.99894,146.01225 H 34.476653 C 27.564588,146.01225 22,140.91917 22,134.59279 V 33.4996 c 0,-6.326383 5.564588,-11.419464 12.476653,-11.419464 v 0 h 49.52274"
     style="display:inline;opacity:1;fill:none;stroke:#000000;stroke-width:12;stroke-linecap:round;stroke-linejoin:miter;stroke-miterlimit:4;stroke-dasharray:none;stroke-opacity:1"
     id="path857" />
</svg>
