<svg xmlns="http://www.w3.org/2000/svg" width="192" height="192" fill="none" stroke="#000" stroke-width="12" viewBox="0 0 192 192"><path stroke-linejoin="round" d="M79.74 29.89a15.84 15.84 0 0 0-5.89-6.18 11.19 11.19 0 0 0-9.38-1.14c-8 2.72-45.86 29.09-25.57 82.31s60.73 62.49 65.53 63.29c4.47.74 24.75 7.17 47.92-9.53a15.49 15.49 0 0 0 6.55-14.26 9.25 9.25 0 0 0-2.37-5.46l-17.9-19.34a12.08 12.08 0 0 0-13.67-3 16.2 16.2 0 0 0-4.91 3.06l-26.33 23.27s-29.41-20.77-39-56.73l30.13-16.51a16.1 16.1 0 0 0 7.41-8.28l.28-.79a11.77 11.77 0 0 0-1-9.17z"/><path d="M59.68 26.25a117.6 117.6 0 0 0 .8 26.69c6.16 42.4 36.62 86.54 78 98a82.2 82.2 0 0 0 16.17 2.8"/></svg>