<?xml version="1.0" encoding="UTF-8" standalone="no"?>
<!-- Created with Inkscape (http://www.inkscape.org/) -->

<svg
    width="192"
    height="192"
    viewBox="0 0 50.799999 50.8"
    version="1.1"
    id="svg5"
    xml:space="preserve"
    xmlns="http://www.w3.org/2000/svg"
    xmlns:svg="http://www.w3.org/2000/svg"><defs
     id="defs2" /><g
    id="layer2"
    style="display:inline;stroke-width:1.00012;stroke-dasharray:none"
    transform="matrix(0.99994515,0,0,1.0012996,0.02753343,-0.09107201)"><ellipse
       style="fill:#000000;fill-opacity:1;stroke:none;stroke-width:4.2307;stroke-linecap:round;stroke-linejoin:round;stroke-dasharray:none"
       id="path1091"
       cx="16.045729"
       cy="21.175163"
       rx="2.1167827"
       ry="2.1139195" /><ellipse
    style="display:inline;fill:#000000;fill-opacity:1;stroke:none;stroke-width:4.2307;stroke-linecap:round;stroke-linejoin:round;stroke-dasharray:none"
    id="path1091-5"
    cx="20.335661"
    cy="25.35066"
    rx="2.1167827"
    ry="2.1139195" /><ellipse
    style="display:inline;fill:#000000;fill-opacity:1;stroke:none;stroke-width:4.2307;stroke-linecap:round;stroke-linejoin:round;stroke-dasharray:none"
    id="path1091-4"
    cx="11.884525"
    cy="25.350658"
    rx="2.1167827"
    ry="2.1139195" /><ellipse
    style="display:inline;fill:#000000;fill-opacity:1;stroke:none;stroke-width:4.2307;stroke-linecap:round;stroke-linejoin:round;stroke-dasharray:none"
    id="path1091-57"
    cx="16.004454"
    cy="29.576227"
    rx="2.1167827"
    ry="2.1139195" /><path
    style="fill:none;fill-opacity:1;stroke:#000000;stroke-width:3.175;stroke-linecap:round;stroke-linejoin:round;stroke-dasharray:none;stroke-opacity:1"
    d="M 8.0598968,16.5083 H 19.272133 c 0,0 6.797535,0.149396 7.768611,5.527666 l 2.390342,12.698692"
    id="path1419" /><path
    style="fill:none;fill-opacity:1;stroke:#000000;stroke-width:3.175;stroke-linecap:round;stroke-linejoin:round;stroke-dasharray:none;stroke-opacity:1"
    d="m 8.239857,34.200689 7.79089,0.02641 5.625287,5.546058"
    id="path1517" /><path
    d="M 40.975279,29.14469 14.01953,44.474648 C 11.19378,46.080669 7.6854051,44.040732 7.6854051,40.789002 V 10.129087 c 0,-3.2517291 3.5083749,-5.2916666 6.3341249,-3.6856458 L 40.975279,21.773399 c 2.8575,1.624541 2.8575,5.744104 0,7.368645 z"
    style="display:inline;fill:none;stroke:#000000;stroke-width:3.17303;stroke-miterlimit:10;stroke-dasharray:none"
    id="path4062" /></g></svg>
