<svg xmlns="http://www.w3.org/2000/svg" width="192" height="192" viewBox="0 0 192 192"><defs><style>.cls-1,.cls-2{fill:none;stroke:#000;stroke-width:12px;}.cls-1{stroke-linecap:round;stroke-linejoin:round;}.cls-2{stroke-miterlimit:10;}</style></defs><path d="M60.68,87.8a8,8,0,1,0-8-8A8,8,0,0,0,60.68,87.8Zm16.19,15.78a8,8,0,1,0-8-8A8,8,0,0,0,76.87,103.58Zm-31.9,0a8,8,0,1,0-8-8A8,8,0,0,0,45,103.58Zm15.55,16a8,8,0,1,0-8-8A8,8,0,0,0,60.52,119.55Z"/><path class="cls-1" d="M30.53,62.16H72.86s25.66.57,29.33,20.9l9,48m-80-2,29.41.1,21.24,21"/><path class="cls-2" d="M154.87,109.93,53,167.88A16,16,0,0,1,29,154V38.05A16,16,0,0,1,53,24.12l101.9,57.95a16,16,0,0,1,0,27.86Z"/></svg>
