<svg width="192" height="192" viewBox="0 0 192 192" fill="none" xmlns="http://www.w3.org/2000/svg"><path d="M96 104h26c0 14.359-11.641 26-26 26s-26-11.641-26-26 11.64-26 26-26c7.18 0 13.68 2.91 18.385 7.615" stroke="#000" stroke-width="12" stroke-linecap="round" stroke-linejoin="round"/><path d="M22 37v111a6 6 0 0 0 6 6h136a6 6 0 0 0 6-6V37" stroke="#000" stroke-width="12" stroke-linecap="round" stroke-linejoin="round"/><path d="m22 37 18.5 18L59 37l18.5 18L96 37l18.5 18L133 37l18.5 18L170 37" stroke="#000" stroke-width="12" stroke-linecap="round" stroke-linejoin="round"/></svg>