<svg xmlns="http://www.w3.org/2000/svg" width="192" height="192" fill="none"><path stroke="#000" stroke-linecap="round" stroke-linejoin="round" stroke-width="12" d="M59 59.5a18.5 18.5 0 1 1-37 0m74 0a18.5 18.5 0 1 1-37 0"/><path stroke="#000" stroke-linecap="round" stroke-linejoin="round" stroke-width="12" d="M133 59.5a18.504 18.504 0 0 1-25.58 17.092A18.5 18.5 0 0 1 97.408 66.58 18.5 18.5 0 0 1 96 59.5m74 0a18.504 18.504 0 0 1-25.58 17.092 18.5 18.5 0 0 1-10.012-10.012A18.5 18.5 0 0 1 133 59.5m37 0-17.29-31.394A6 6 0 0 0 147.455 25H44.545a6 6 0 0 0-5.255 3.106L22 59.5"/><path stroke="#000" stroke-linecap="round" stroke-linejoin="round" stroke-width="12" d="M35 78v83a6 6 0 0 0 6 6h110a6 6 0 0 0 6-6V78M69 25 59 59.5M123 25l10 34.5M96 25v34.5"/><path stroke="#000" stroke-linecap="round" stroke-linejoin="round" stroke-width="10" d="M96 122h24c0 13.254-10.746 24-24 24s-24-10.746-24-24 10.745-24 24-24a23.93 23.93 0 0 1 16.971 7.029"/></svg>