<svg xmlns="http://www.w3.org/2000/svg" width="192" height="192" fill="none" stroke="#000" stroke-linecap="round" stroke-linejoin="round" stroke-width="12" viewBox="0 0 192 192"><path stroke-width="10" d="m80 91 16 11 24-16"/><path d="M52.699 71a50 50 0 0 0 7.946 60.355C72 142.711 62.723 156.13 74 164.105 81.262 169.241 88.276 170 96 170m43.301-99a49.994 49.994 0 0 1-7.946 60.355C120 142.711 129.277 156.13 118 164.105c-7.262 5.136-14.276 5.895-22 5.895"/><path d="M46.428 89.474a50 50 0 0 1 14.217-28.83C72 49.29 62.723 35.87 74 27.895 81.262 22.76 88.276 22 96 22m49.572 67.474a50 50 0 0 0-14.217-28.83C120 49.29 129.277 35.87 118 27.895 110.738 22.76 103.724 22 96 22"/><circle cx="96" cy="96" r="50"/></svg>