<svg xmlns="http://www.w3.org/2000/svg" width="192" height="192" data-name="Layer 1" viewBox="0 0 192 192"><path d="M0 0h192v192H0z" style="fill:none"/><path d="M133.26 62.86c3.5 3.92 13.15 16.27 13.15 33.14 0 19.61-11.51 32.3-14.2 35.08a55.53 55.53 0 0 0-8.46 16.72c-2.13 7-1.61 10.73-4.63 14.8-3.74 5.05-10 6.75-14.8 7.4H87.67c-4.89-.67-11.1-2.41-14.8-7.4-3-4-2.48-7.74-4.62-14.8a56 56 0 0 0-8.31-16.57c-2.5-2.58-14.35-15.33-14.35-35.23a51.44 51.44 0 0 1 12.53-33.27A50.2 50.2 0 0 0 68.25 44.2c1.9-6.62 1.41-10.58 4.62-14.8 3.79-5 10-6.72 14.8-7.4h16.65c4.84.68 11 2.43 14.8 7.4 3.18 4.17 2.76 8.09 4.63 14.8a54.55 54.55 0 0 0 9.51 18.66Z" style="stroke-width:12px;stroke:#000;stroke-miterlimit:10;fill:none"/><path d="M96 63.76A32.24 32.24 0 1 1 63.76 96 32.27 32.27 0 0 1 96 63.76m0-8A40.24 40.24 0 1 0 136.24 96 40.25 40.25 0 0 0 96 55.76Z"/><path d="m82 86 14 10m0 0 21-14" style="fill:none;stroke:#000;stroke-miterlimit:10;stroke-linecap:round;stroke-width:8px"/></svg>