<svg width="192" height="192" viewBox="0 0 192 192" fill="none" xmlns="http://www.w3.org/2000/svg">
    <path d="M30 32.965V159.032C29.9999 160.956 30.5087 162.847 31.4753 164.514C32.4418 166.181 33.8321 167.565 35.5065 168.528C37.1809 169.491 39.0804 169.999 41.0143 170C42.9483 170.001 44.8485 169.496 46.5241 168.535L156.497 105.476C158.17 104.516 159.559 103.136 160.525 101.472C161.491 99.8086 162 97.9213 162 96C162 94.0787 161.491 92.1914 160.525 90.5279C159.559 88.8644 158.17 87.4835 156.497 86.5242L46.5241 23.4648C44.8485 22.504 42.9484 21.9988 41.0146 22C39.0808 22.0012 37.1813 22.5087 35.5069 23.4715C33.8326 24.4344 32.4423 25.8187 31.4756 27.4854C30.509 29.1521 30.0001 31.0426 30 32.967V32.965Z" stroke="black" stroke-width="12"/>
    <path d="M30 36.6383L120 125.681M30 155.362L120 66.3191L30 155.362Z" stroke="black" stroke-width="11.4894"/>
</svg>
