<svg xmlns="http://www.w3.org/2000/svg" width="192" height="192" fill="none"><path stroke="#000" stroke-linecap="round" stroke-linejoin="round" stroke-width="12" d="M122.869 66.246A36 36 0 0 0 125 54c0-1.717-.121-3.428-.36-5.115m10.062 55.641a36 36 0 0 0 11.671-4.277A36.4 36.4 0 0 0 151.099 97M83.167 57.72a36 36 0 0 0-9.54-7.969 37 37 0 0 0-4.083-2.028m-.413 78.031A36 36 0 0 0 67 138c0 1.717.121 3.428.36 5.115m-10.062-55.64a36 36 0 0 0-11.671 4.276 36.5 36.5 0 0 0-4.726 3.25m67.933 39.279a36 36 0 0 0 9.539 7.969 37 37 0 0 0 4.083 2.028M69.544 47.723a35.7 35.7 0 0 0-7.588-2.249c-4.066-.722-8.152-.7-12.026.066-3.873.766-7.458 2.26-10.549 4.398S33.753 54.816 31.914 58s-2.942 6.751-3.248 10.498.192 7.597 1.466 11.335c1.273 3.737 3.297 7.287 5.955 10.447A35.5 35.5 0 0 0 40.901 95m28.643-47.277a35.5 35.5 0 0 1 1.587-5.969c1.407-3.882 3.47-7.41 6.07-10.381s5.687-5.329 9.084-6.937S93.323 22 97 22s7.318.828 10.715 2.436 6.484 3.965 9.084 6.937c2.6 2.971 4.663 6.499 6.07 10.381a35.6 35.6 0 0 1 1.771 7.13M40.901 95a35.5 35.5 0 0 0-4.814 4.72c-2.658 3.16-4.682 6.71-5.955 10.447-1.274 3.738-1.772 7.589-1.466 11.336s1.41 7.313 3.248 10.497 4.376 5.924 7.467 8.062 6.676 3.632 10.55 4.398c3.873.766 7.96.788 12.025.066a35.4 35.4 0 0 0 5.404-1.411m0 0c.346 2.442.94 4.835 1.771 7.131 1.407 3.882 3.47 7.41 6.07 10.381s5.687 5.329 9.084 6.937S91.323 170 95 170s7.318-.828 10.715-2.436 6.484-3.965 9.084-6.937c2.6-2.971 4.663-6.499 6.07-10.381.699-1.93 1.23-3.93 1.587-5.969m0 0a35.6 35.6 0 0 0 7.588 2.249c4.066.722 8.152.7 12.026-.066 3.873-.766 7.458-2.26 10.549-4.398s5.628-4.878 7.467-8.062 2.942-6.751 3.248-10.497c.306-3.747-.192-7.598-1.466-11.336-1.273-3.737-3.297-7.287-5.955-10.447a35.6 35.6 0 0 0-4.814-4.72m0 0a35.6 35.6 0 0 0 4.814-4.72c2.658-3.16 4.682-6.71 5.955-10.447 1.274-3.738 1.772-7.59 1.466-11.335-.306-3.747-1.41-7.314-3.248-10.498s-4.376-5.924-7.467-8.062-6.676-3.632-10.549-4.398c-3.874-.766-7.96-.788-12.026-.066a35.4 35.4 0 0 0-5.404 1.41"/></svg>