<?xml version="1.0" encoding="utf-8"?>
<!-- Generator: Adobe Illustrator 25.4.1, SVG Export Plug-In . SVG Version: 6.00 Build 0)  -->
<svg version="1.1" id="Layer_1" xmlns="http://www.w3.org/2000/svg" xmlns:xlink="http://www.w3.org/1999/xlink" x="0px" y="0px"
	 width="192px" height="192px" viewBox="0 0 192 192" style="enable-background:new 0 0 192 192;" xml:space="preserve">
<style type="text/css">
	.st0{fill:none;stroke:#000000;stroke-width:12;stroke-linecap:round;stroke-miterlimit:10;}
</style>
<path class="st0" d="M34.1,75.9l56.4-51.7c3.2-2.9,8.1-2.9,11.3,0l56.4,51.7c3.2,3,3.6,7.9,0.9,11.3l-56.4,71.5
	c-3.3,4.2-9.8,4.2-13.1,0L33.2,87.3C30.5,83.8,30.9,78.9,34.1,75.9z M96.2,161.9V22 M132.6,120.9l-36.4-3.2l-36.4,3.2 M160.9,81.4
	l-64.7-6.2l-64.7,6.2 M45.9,139.3 M31.1,147.9c0.4-0.6,3.9-5.6,10.4-6.2c6.3-0.5,10.4,3.4,11,4c6,6.3,11.9,12.6,17.9,18.9
	c0.4,0.5,5.9,6.5,14.2,5.3c7.6-1.1,11.2-7.3,11.6-8"/>
</svg>
