<svg xmlns="http://www.w3.org/2000/svg" width="192" height="192" fill="none" stroke="#000" stroke-linecap="round" stroke-linejoin="round" stroke-width="12" viewBox="0 0 192 192"><path d="m28.828 168.878 19.657-19.618c2.548-2.063 5.34-3.122 8.515-3.508h61c7.012-.037 12-4.984 12-11.976v-59.88c0-6.963-4.86-11.977-12-11.977H34c-6.976 0-12 4.977-12 11.976v91.817c.15 3.678 4.016 5.972 6.828 3.166z"/><path d="M130 105.832h28c7.012-.038 12-4.984 12-11.976V33.975c0-6.962-4.86-11.976-12-11.976H74c-6.976 0-12 4.976-12 11.976v27.944"/></svg>