<svg id="Layer_1" data-name="Layer 1" xmlns="http://www.w3.org/2000/svg" viewBox="0 0 24 24">
  <g>
    <path d="M12,7.5h8.9A9.83609,9.83609,0,0,0,12,2,9.94149,9.94149,0,0,0,4.30005,5.60011l3.3,5.69972A4.50982,4.50982,0,0,1,12,7.5Z"/>
    <path d="M21.4,8.5H14.8a4.48436,4.48436,0,0,1,1.56445,4.60963h5.57111A9.97534,9.97534,0,0,0,22,11.99979,10.29911,10.29911,0,0,0,21.4,8.5Z"/>
    <path d="M3.6,6.5A10.40128,10.40128,0,0,0,2,11.99979a10.16793,10.16793,0,0,0,.06226,1.10986h5.4Z"/>
    <path d="M11.98523,18.24a.3488.3488,0,0,0-.16345.29126.31857.31857,0,0,0,.133.26074.48491.48491,0,0,0,.31037.1045.63758.63758,0,0,0,.45044-.187.58452.58452,0,0,0,.19732-.439.81835.81835,0,0,0-.52166-.14844A.677.677,0,0,0,11.98523,18.24Z"/>
    <path d="M8.67969,13.10941h6.64062a3.50056,3.50056,0,1,0-6.64062,0Z"/>
    <path d="M7,20.66021a9.96922,9.96922,0,0,0,14.752-6.5547H2.24805A10.00216,10.00216,0,0,0,7,20.66021Zm6.74768-3.60743h.38263v.29541h.01733a.71348.71348,0,0,1,.28089-.26074.80354.80354,0,0,1,.393-.10425.78881.78881,0,0,1,.60254.22388.89315.89315,0,0,1,.21131.637V19.1834h-.40082V17.87017a.4701.4701,0,0,0-.52606-.522.50213.50213,0,0,0-.4.19361.70318.70318,0,0,0-.16089.46313V19.1834h-.4Zm-.99988.43262a.56537.56537,0,0,0-.387-.14575.61344.61344,0,0,0-.5304.28247l-.35211-.22168a.98152.98152,0,0,1,.86078-.41724.99151.99151,0,0,1,.69995.23682.84128.84128,0,0,1,.25653.65015V19.1834H12.913v-.29565h-.01739a.76218.76218,0,0,1-.66077.36523.85682.85682,0,0,1-.58868-.20874.66577.66577,0,0,1-.23737-.52173.63362.63362,0,0,1,.25043-.52637,1.05142,1.05142,0,0,1,.66687-.1958,1.17793,1.17793,0,0,1,.58691.13062v-.09131A.4542.4542,0,0,0,12.7478,17.4854ZM8.8255,16.47026A1.55536,1.55536,0,0,1,9.98193,16a1.44038,1.44038,0,0,1,1.14423.50928l-.28693.27832a1.06344,1.06344,0,0,0-.8573-.4043,1.17448,1.17448,0,0,0-.86517.34766,1.33987,1.33987,0,0,0,0,1.79151,1.17561,1.17561,0,0,0,.86517.3479,1.21961,1.21961,0,0,0,.94428-.45654l.29126.28271a1.51348,1.51348,0,0,1-.54346.41089,1.66543,1.66543,0,0,1-.69208.14551A1.64217,1.64217,0,0,1,8.8255,16.47026Z"/>
  </g>
</svg>
