<svg width="192" height="192" fill="none" xmlns="http://www.w3.org/2000/svg"><path d="M82.623 29.871a15.853 15.853 0 0 0-5.9-6.18 11.22 11.22 0 0 0-9.397-1.14c-8.013 2.72-47.95 29.093-27.624 82.321 20.325 53.227 56.83 62.498 61.638 63.298 4.477.74 30.81 7.171 54.02-9.531a15.48 15.48 0 0 0 6.562-14.262 9.248 9.248 0 0 0-2.375-5.461l-17.931-19.342a12.117 12.117 0 0 0-13.694-3.001 16.216 16.216 0 0 0-4.918 3.061l-27.378 24.273s-29.461-20.773-39.068-56.738l31.184-17.512a16.11 16.11 0 0 0 7.423-8.281l.28-.79a11.754 11.754 0 0 0-1.001-9.172l-11.82-21.543Z" stroke="#000" stroke-width="12" stroke-linejoin="round"/><path d="M65.68 24.25a117.6 117.6 0 0 0 .8 26.69c6.16 42.4 36.62 86.54 78 98a82.254 82.254 0 0 0 16.17 2.8" stroke="#000" stroke-width="12"/></svg>