<svg xmlns="http://www.w3.org/2000/svg" width="192" height="192" viewBox="0 0 192 192"><path d="m121.291 73.246 5.828 3.365c4.666 2.694 6.265 8.66 3.571 13.326l-31.122 53.904c-5.266 9.122-16.93 12.247-26.05 6.981-9.122-5.267-12.248-16.93-6.981-26.052l.696-1.206-10.392-6-.697 1.206c-8.58 14.861-3.488 33.864 11.373 42.444s33.864 3.488 42.444-11.373l31.121-53.904c6.008-10.405 2.442-23.71-7.963-29.718l-5.441-3.141z"/><path fill="none" stroke="#000" stroke-width="12" d="M83.409 83.547c4.35-7.535 1.768-17.17-5.767-21.522l-14.099-8.14c-6.661-3.846-15.18-1.563-19.026 5.099L26.41 90.345c-9.615 16.655-3.909 37.951 12.746 47.566l31.361 18.107c-11.991-6.923-16.1-22.256-9.176-34.248z"/><path d="M129.143 34.975c-19.524-11.273-44.49-4.583-55.761 14.941l-4.701 8.142 10.392 6 4.7-8.142c7.96-13.785 25.586-18.508 39.37-10.55l10.117 5.842a30.94 30.94 0 0 0-15.198 13.246l-30.425 52.698c-2.694 4.666-8.66 6.264-13.326 3.57l-9.576-5.528-3 5.196-3 5.196 9.576 5.529c10.405 6.007 23.71 2.442 29.718-7.963l30.425-52.698c5.266-9.121 16.93-12.247 26.051-6.98l6-10.393z"/><path d="m91.009 123.311-5.197-3 3-5.196 29.25-50.66c8.58-14.862 27.582-19.953 42.443-11.374 14.861 8.58 19.953 27.583 11.373 42.444l-22.285 38.599c-5.503 9.531-17.691 12.797-27.223 7.294l-12.062-6.964 6-10.392 12.062 6.964a7.93 7.93 0 0 0 10.83-2.902l22.286-38.6c5.266-9.12 2.141-20.784-6.981-26.05s-20.785-2.141-26.051 6.98l-24.026 41.615-5.196-3z"/></svg>