<svg xmlns="http://www.w3.org/2000/svg" width="192" height="192" fill="none" viewBox="0 0 192 192"><path stroke="#000" stroke-linecap="round" stroke-linejoin="round" stroke-width="12" d="M44 170a16.001 16.001 0 1 1 0-32.002A16.001 16.001 0 0 1 44 170h0Zm0-90a16.001 16.001 0 1 1 0 32.002A16.001 16.001 0 0 1 44 80h0Zm64 32a16.002 16.002 0 0 0 11.314-27.314A16.007 16.007 0 0 0 108 80m-64 0h64m-64 32h64M44 22a16.001 16.001 0 0 0-11.314 27.314A16 16 0 0 0 44 54m104 0a16.001 16.001 0 0 1-11.314-27.314A16.007 16.007 0 0 1 148 22a16.001 16.001 0 0 1 11.314 27.314A16.007 16.007 0 0 1 148 54h0ZM44 22h104M44 54h104"/></svg>