<?xml version="1.0" encoding="UTF-8" standalone="no"?>
<svg
   width="24"
   height="24"
   viewBox="0 0 24 24"
   fill="none"
   version="1.1"
   id="svg6"
   sodipodi:docname="chrome.svg"
   inkscape:version="1.1.1 (3bf5ae0d25, 2021-09-20)"
   xmlns:inkscape="http://www.inkscape.org/namespaces/inkscape"
   xmlns:sodipodi="http://sodipodi.sourceforge.net/DTD/sodipodi-0.dtd"
   xmlns="http://www.w3.org/2000/svg"
   xmlns:svg="http://www.w3.org/2000/svg">
  <defs
     id="defs10" />
  <sodipodi:namedview
     id="namedview8"
     pagecolor="#ffffff"
     bordercolor="#666666"
     borderopacity="1.0"
     inkscape:pageshadow="2"
     inkscape:pageopacity="0.0"
     inkscape:pagecheckerboard="true"
     showgrid="true"
     inkscape:zoom="24.542498"
     inkscape:cx="9.0659069"
     inkscape:cy="13.772029"
     inkscape:window-width="2560"
     inkscape:window-height="1011"
     inkscape:window-x="0"
     inkscape:window-y="32"
     inkscape:window-maximized="1"
     inkscape:current-layer="svg6">
    <inkscape:grid
       type="xygrid"
       id="grid907"
       empspacing="1" />
  </sodipodi:namedview>
  <path
     fill-rule="evenodd"
     clip-rule="evenodd"
     d="M22 12C22 17.5229 17.5229 22 12 22C11.8091 22 11.6196 21.9946 11.4316 21.9841L15.854 14.3245C16.2642 13.646 16.5 12.8506 16.5 12C16.5 10.5864 15.8481 9.32495 14.8286 8.5H21.3706C21.7778 9.58936 22 10.7686 22 12ZM15.0308 13.75C15.3286 13.2351 15.5 12.6377 15.5 12C15.5 10.0669 13.9331 8.5 12 8.5C10.0669 8.5 8.5 10.0669 8.5 12C8.5 12.2437 8.5249 12.4817 8.57227 12.7112C8.64453 13.0618 8.76953 13.3933 8.93799 13.6968L8.96875 13.75C9.57373 14.7961 10.7046 15.5 12 15.5C13.2681 15.5 14.3789 14.8259 14.9927 13.8164L15.0308 13.75ZM13.6152 16.2014L10.3462 21.8638C5.61035 21.0757 2 16.9595 2 12C2 9.97461 2.60205 8.09009 3.63672 6.51538L8.06787 14.1897C8.83691 15.5679 10.3096 16.5 12 16.5C12.5693 16.5 13.1138 16.3943 13.6152 16.2014ZM12 2C8.89404 2 6.11865 3.41577 4.28467 5.63721L7.5542 11.2998C7.89062 9.14697 9.75293 7.5 12 7.5H20.9326C19.2856 4.2373 15.9043 2 12 2Z"
     fill="black"
     id="path4" />
</svg>
