<svg width="192" height="192" viewBox="0 0 192 192" fill="none" xmlns="http://www.w3.org/2000/svg">
<path d="M29.5605 78.9611L22.4199 135.193C20.979 146.54 34.7219 153.278 42.8096 145.19L70 118H122L149.19 145.19C157.278 153.278 171.021 146.54 169.58 135.193L162.44 78.9611C159.902 58.9784 142.901 44 122.758 44H69.2418C49.0987 44 32.098 58.9784 29.5605 78.9611Z" stroke="black" stroke-width="12" stroke-linejoin="round"/>
<path d="M66 69V81M66 93V81M66 81H54M66 81H78" stroke="black" stroke-width="12" stroke-linecap="round"/>
<circle cx="126" cy="69" r="6" fill="black"/>
<circle cx="126" cy="93" r="6" fill="black"/>
<circle cx="138" cy="81" r="6" transform="rotate(90 138 81)" fill="black"/>
<circle cx="114" cy="81" r="6" transform="rotate(90 114 81)" fill="black"/>
</svg>
