<svg width="192" height="192" viewBox="0 0 192 192" fill="none" xmlns="http://www.w3.org/2000/svg"><path d="M115 112c0-1.051-.491-2.091-1.446-3.061-.955-.971-2.355-1.853-4.119-2.596-1.764-.743-3.859-1.332-6.164-1.734A42.679 42.679 0 0 0 96 104a42.68 42.68 0 0 0-7.271.609c-2.305.402-4.4.991-6.164 1.734-1.764.743-3.164 1.625-4.119 2.596-.955.97-1.446 2.01-1.446 3.061m61 0c0-.788-.285-1.568-.837-2.296-.553-.728-1.363-1.389-2.385-1.947-1.021-.557-2.234-.999-3.568-1.3A19.208 19.208 0 0 0 127 106c-1.445 0-2.875.155-4.21.457-1.334.301-2.547.743-3.568 1.3-1.022.558-1.832 1.219-2.385 1.947-.552.728-.837 1.508-.837 2.296m-40 0c0-.788-.284-1.568-.837-2.296-.553-.728-1.363-1.389-2.385-1.947-1.021-.557-2.234-.999-3.569-1.3A19.204 19.204 0 0 0 65 106c-1.444 0-2.875.155-4.21.457-1.334.301-2.547.743-3.568 1.3-1.022.558-1.832 1.219-2.385 1.947-.553.728-.837 1.508-.837 2.296m0 0h84" stroke="#000" stroke-width="8" stroke-linecap="round" stroke-linejoin="round"/><circle cx="96" cy="78" r="5" stroke="#000" stroke-width="10" stroke-linecap="round" stroke-linejoin="round"/><circle cx="127" cy="86" r="4" stroke="#000" stroke-width="8" stroke-linecap="round" stroke-linejoin="round"/><circle cx="65" cy="86" r="4" stroke="#000" stroke-width="8" stroke-linecap="round" stroke-linejoin="round"/><path d="M116 161h20" stroke="#000" stroke-width="12" stroke-linecap="round" stroke-linejoin="round"/><rect x="25" y="25" width="142" height="142" rx="6" stroke="#000" stroke-width="12" stroke-linecap="round" stroke-linejoin="round"/></svg>