<svg xmlns="http://www.w3.org/2000/svg" width="192" height="192" fill="none"><circle cx="154" cy="154" r="16" stroke="#000" stroke-linecap="round" stroke-linejoin="round" stroke-width="12"/><circle cx="96" cy="103" r="27" stroke="#000" stroke-linecap="round" stroke-linejoin="round" stroke-width="12"/><path stroke="#000" stroke-linecap="round" stroke-linejoin="round" stroke-width="12" d="M22 120v20c0 16.569 13.431 30 30 30h44M22 88V70c0-16.569 13.431-30 30-30h13.087a6 6 0 0 0 4.884-2.515l9.236-12.945A6 6 0 0 1 84.11 22h23.782a6 6 0 0 1 4.902 2.54l9.236 12.945A6 6 0 0 0 126.913 40H140c16.569 0 30 13.431 30 30v26"/></svg>