<svg xmlns="http://www.w3.org/2000/svg" width="192" height="192" viewBox="0 0 192 192"><path fill="none" stroke="#000" stroke-linecap="round" stroke-width="12" d="m34.1 75.9 56.4-51.7c3.2-2.9 8.1-2.9 11.3 0l56.4 51.7c3.2 3 3.6 7.9.9 11.3l-56.4 71.5c-3.3 4.2-9.8 4.2-13.1 0L33.2 87.3c-2.7-3.5-2.3-8.4.9-11.4zm62.1 86V22m36.4 98.9-36.4-3.2-36.4 3.2m101.1-39.5-64.7-6.2-64.7 6.2m-.4 66.5c.4-.6 3.9-5.6 10.4-6.2 6.3-.5 10.4 3.4 11 4 6 6.3 11.9 12.6 17.9 18.9.4.5 5.9 6.5 14.2 5.3 7.6-1.1 11.2-7.3 11.6-8"/></svg>