<svg xmlns="http://www.w3.org/2000/svg" width="192" height="192" stroke-width="12" viewBox="0 0 192 192"><path d="M60.68 87.8a8 8 0 1 0-8-8 8 8 0 0 0 8 8m16.19 15.78a8 8 0 1 0-8-8 8 8 0 0 0 8 8m-31.9 0a8 8 0 1 0-8-8 8 8 0 0 0 8 8m15.55 16a8 8 0 1 0-8-8 8 8 0 0 0 8 8"/><path fill="none" stroke="#000" stroke-linecap="round" stroke-linejoin="round" d="M30.53 62.16h42.33s25.66.57 29.33 20.9l9 48m-80-2 29.41.1 21.24 21"/><path fill="none" stroke="#000" d="M154.87 109.93 53 167.88A16 16 0 0 1 29 154V38.05a16 16 0 0 1 24-13.93l101.9 57.95a16 16 0 0 1 0 27.86z"/></svg>