<svg width="192" height="192" viewBox="0 0 192 192" fill="none" xmlns="http://www.w3.org/2000/svg"><path d="M22 59.5a18.5 18.5 0 1 0 37 0 18.5 18.5 0 1 0 37 0" stroke="#000" stroke-width="12" stroke-linecap="round" stroke-linejoin="round"/><path d="M96 59.5a18.5 18.5 0 0 0 11.42 17.092A18.503 18.503 0 0 0 133 59.5a18.496 18.496 0 0 0 28.776 15.38A18.505 18.505 0 0 0 170 59.5l-17.29-31.394A6.003 6.003 0 0 0 147.455 25H44.545a6 6 0 0 0-5.255 3.106L22 59.5" stroke="#000" stroke-width="12" stroke-linecap="round" stroke-linejoin="round"/><path d="M35 78v83a6.002 6.002 0 0 0 6 6h110a6.003 6.003 0 0 0 4.243-1.757A6.003 6.003 0 0 0 157 161V78M69 25 59 59.5M123 25l10 34.5M96 25v34.5" stroke="#000" stroke-width="12" stroke-linecap="round" stroke-linejoin="round"/><path d="M96 122h26c0 14.359-11.641 26-26 26s-26-11.641-26-26c0-14.358 11.64-26 26-26a25.925 25.925 0 0 1 18.385 7.615" stroke="#000" stroke-width="10" stroke-linecap="round" stroke-linejoin="round"/></svg>