<svg xmlns="http://www.w3.org/2000/svg" width="192" height="192" fill="none"><circle cx="84" cy="99" r="3" stroke="#000" stroke-linecap="round" stroke-linejoin="round" stroke-width="6"/><circle cx="69" cy="84" r="3" stroke="#000" stroke-linecap="round" stroke-linejoin="round" stroke-width="6"/><circle cx="69" cy="114" r="3" stroke="#000" stroke-linecap="round" stroke-linejoin="round" stroke-width="6"/><circle cx="54" cy="99" r="3" stroke="#000" stroke-linecap="round" stroke-linejoin="round" stroke-width="6"/><path stroke="#000" stroke-linecap="round" stroke-linejoin="round" stroke-width="10" d="M35 133h28l19 20M34 65h41.86c6.14 0 26.45.1 29.14 21l9 48"/><path stroke="#000" stroke-width="12" d="M157.843 109.926 55.995 167.857A15.997 15.997 0 0 1 32 153.982V38.069A15.993 15.993 0 0 1 47.978 22c2.814-.003 5.58.736 8.017 2.143l101.878 57.931a15.994 15.994 0 0 1 0 27.852z"/></svg>