<svg width="192" height="192" viewBox="0 0 192 192" fill="none" xmlns="http://www.w3.org/2000/svg"><path d="m29 163 86-86m38 4v80a6 6 0 0 1-6 6H31a6 6 0 0 1-6-6V45a6 6 0 0 1 6-6h80" stroke="#000" stroke-width="12" stroke-linecap="round" stroke-linejoin="round"/><path d="M97 167v-29c0-24 27-30 40-30 4.297 0 10.124.437 16 1.889" stroke="#000" stroke-width="12" stroke-linecap="round" stroke-linejoin="round"/><path d="M61 75h16" stroke="#000" stroke-width="8" stroke-linecap="round" stroke-linejoin="round"/><circle cx="137" cy="55" r="30" stroke="#000" stroke-width="12" stroke-linecap="round" stroke-linejoin="round"/><path d="M77 75a16 16 0 1 1-8-13.856" stroke="#000" stroke-width="8" stroke-linecap="round" stroke-linejoin="round"/></svg>