<svg width="192" height="192" viewBox="0 0 192 192" fill="none" xmlns="http://www.w3.org/2000/svg">
<g clip-path="url(#clip0_19_158)">
<path d="M135.214 33.2444C121.118 24.4362 104.467 20.6303 87.9439 22.4398C71.4209 24.2494 55.9882 31.5691 44.1327 43.2195C32.2772 54.8698 24.6893 70.1724 22.5916 86.6613C20.494 103.15 24.0088 119.865 32.5696 134.113C41.1305 148.36 54.2388 159.311 69.7825 165.2C85.3261 171.089 102.4 171.573 118.252 166.575C134.105 161.577 147.813 151.387 157.168 137.648C166.522 123.908 170.979 107.419 169.82 90.838" stroke="black" stroke-width="12" stroke-linecap="round"/>
<path d="M67.7157 90.3431L96 118.627L169.539 45.0883" stroke="black" stroke-width="12" stroke-linecap="round" stroke-linejoin="round"/>
</g>
<defs>
<clipPath id="clip0_19_158">
<rect width="192" height="192" fill="white"/>
</clipPath>
</defs>
</svg>
