<svg width="192" height="192" viewBox="0 0 192 192" fill="none" xmlns="http://www.w3.org/2000/svg"><path d="M65.896 88.978 88 88.911a22.001 22.001 0 0 1-42.233 8.73 22.004 22.004 0 0 1 22.036-30.567 22 22 0 0 1 13.474 6.094" stroke="#000" stroke-width="10" stroke-linecap="round" stroke-linejoin="round"/><path d="M31 144h82.3c3.908 0 6.773-3.677 5.818-7.467l-26.975-107A6 6 0 0 0 86.325 25H31a6 6 0 0 0-6 6v107a6 6 0 0 0 6 6Z" stroke="#000" stroke-width="12" stroke-linecap="round" stroke-linejoin="round"/><path d="M97 46h64a6 6 0 0 1 6 6v109a6 6 0 0 1-6 6h-60.675a6 6 0 0 1-5.693-4.103L89 146" stroke="#000" stroke-width="12" stroke-linecap="round" stroke-linejoin="round"/></svg>