<svg width="192" height="192" viewBox="0 0 192 192" fill="none" xmlns="http://www.w3.org/2000/svg">
    <path d="M30 32.965V159.032C29.9999 160.956 30.5395 162.847 31.5647 164.514C32.5898 166.181 34.0644 167.565 35.8402 168.528C37.6161 169.491 39.6308 169.999 41.6819 170C43.733 170.001 45.7484 169.496 47.5255 168.535L164.164 105.476C165.938 104.516 167.411 103.136 168.436 101.472C169.461 99.8086 170 97.9213 170 96C170 94.0787 169.461 92.1914 168.436 90.5279C167.411 88.8644 165.938 87.4835 164.164 86.5242L47.5255 23.4648C45.7484 22.504 43.7332 21.9988 41.6821 22C39.6311 22.0012 37.6165 22.5087 35.8407 23.4715C34.0649 24.4344 32.5903 25.8187 31.5651 27.4854C30.5399 29.1521 30.0001 31.0426 30 32.967V32.965Z" stroke="black" stroke-width="12"/>
    <path d="M30 37L128 125.5M30 155L128 66.5L30 155Z" stroke="black" stroke-width="11.4894"/>
</svg>
