<svg width="24" height="24" viewBox="0 0 24 24" fill="none" xmlns="http://www.w3.org/2000/svg">
<path d="M6.66437 16.6348V21H16.3362V16.6348H6.66437ZM6.66437 13.3594L2.29913 17.7246V19.707C2.29913 20.4215 2.87769 21 3.5921 21H6.66437V16.6348V13.3594Z" fill="black"/>
<path d="M15.7796 4.24414L12.7073 7.31641L17.3362 11.9453V16.6348V21H20.4085C21.123 21 21.7015 20.4215 21.7015 19.707V10.7012C21.7015 10.3582 21.5651 10.0296 21.3226 9.78711L15.7796 4.24414Z" fill="black"/>
<path d="M2.67741 9.78718L11.0857 1.37888C11.5909 0.873706 12.4099 0.873706 12.9151 1.37888L15.0726 3.53645L12.0005 6.60871L6.66436 11.9447L2.29852 16.3106V10.7019C2.29852 10.3588 2.4348 10.0297 2.67741 9.78718V9.78718Z" fill="black"/>
</svg>
