<?xml version="1.0" encoding="utf-8"?>
<!-- Generator: Adobe Illustrator 25.4.1, SVG Export Plug-In . SVG Version: 6.00 Build 0)  -->
<svg version="1.1" id="Layer_1" xmlns="http://www.w3.org/2000/svg" xmlns:xlink="http://www.w3.org/1999/xlink" x="0px" y="0px"
	 viewBox="0 0 192 192" style="enable-background:new 0 0 192 192;" xml:space="preserve">
<style type="text/css">
	.st0{fill:none;stroke:#000000;stroke-width:12;stroke-miterlimit:10;}
</style>
<path class="st0" d="M168.5,97.6c0,22.5-8.1,41.5-22,54.4c-12.2,11.3-29,17.9-49,17.9c-28.9,0-53.9-16.6-66.1-40.8
	c-5-10-7.9-21.3-7.9-33.2s2.9-23.2,7.9-33.2C43.5,38.6,68.5,22,97.5,22c20,0,36.7,7.3,49.5,19.2l-20.9,20.4c-5.3-5-14.7-11-28.6-11
	c-19.6,0-36.2,12.9-42.2,30.7c-1.5,4.6-2.4,9.5-2.4,14.6s0.9,10,2.5,14.6c5.9,17.8,22.5,30.7,42.1,30.7c11,0,19.4-3,25.7-7.4
	c9.9-6.9,14.3-17.2,15.1-24H97.5V82.5H167C168,87.1,168.5,91.6,168.5,97.6z"/>
</svg>
