<?xml version="1.0" encoding="UTF-8" standalone="no"?>
<svg
   width="24"
   height="24"
   viewBox="0 0 24 24"
   fill="none"
   version="1.1"
   id="svg6"
   sodipodi:docname="google_play_games.svg"
   inkscape:version="1.1.1 (3bf5ae0d25, 2021-09-20)"
   xmlns:inkscape="http://www.inkscape.org/namespaces/inkscape"
   xmlns:sodipodi="http://sodipodi.sourceforge.net/DTD/sodipodi-0.dtd"
   xmlns="http://www.w3.org/2000/svg"
   xmlns:svg="http://www.w3.org/2000/svg">
  <defs
     id="defs10" />
  <sodipodi:namedview
     id="namedview8"
     pagecolor="#ffffff"
     bordercolor="#666666"
     borderopacity="1.0"
     inkscape:pageshadow="2"
     inkscape:pageopacity="0.0"
     inkscape:pagecheckerboard="true"
     showgrid="true"
     inkscape:zoom="34.708333"
     inkscape:cx="7.8223289"
     inkscape:cy="13.42617"
     inkscape:window-width="2560"
     inkscape:window-height="1011"
     inkscape:window-x="0"
     inkscape:window-y="32"
     inkscape:window-maximized="1"
     inkscape:current-layer="svg6">
    <inkscape:grid
       type="xygrid"
       id="grid907"
       empspacing="1" />
  </sodipodi:namedview>
  <path
     fill-rule="evenodd"
     clip-rule="evenodd"
     d="m 3.4669376,8.5536991 -1.43644,8.5738199 c -0.33033,1.9716 2.10287,3.1686 3.46316,1.7037 l 3.28302,-3.5356 h 3.2233304 3.2233 l 3.283,3.5356 c 1.3603,1.4649 3.7935,0.2679 3.4632,-1.7037 l -1.4364,-8.5738199 c -0.3903,-2.32952 -2.4066,-4.03608 -4.7686,-4.03608 h -3.7645 -3.7645404 c -2.36198,0 -4.37824,1.70656 -4.76853,4.03608 z m 4.1009,-1.31626 h 1.20874 v 1.61166 H 10.388108 V 10.057819 H 8.7765776 v 1.6117 h -1.20874 v -1.6117 h -1.6118 V 8.8490991 h 1.6118 z m 8.6622704,0.7052 c 0,0.38942 -0.3157,0.7051 -0.7051,0.7051 -0.3894,0 -0.7051,-0.31568 -0.7051,-0.7051 0,-0.38942 0.3157,-0.7051 0.7051,-0.7051 0.3894,0 0.7051,0.31568 0.7051,0.7051 z m -0.7051,3.7270799 c 0.3894,0 0.7051,-0.3157 0.7051,-0.7051 0,-0.3894 -0.3157,-0.7051 -0.7051,-0.7051 -0.3894,0 -0.7051,0.3157 -0.7051,0.7051 0,0.3894 0.3157,0.7051 0.7051,0.7051 z m -0.8058,-2.1154999 c 0,0.3894 -0.3156,0.7050999 -0.7051,0.7050999 -0.3894,0 -0.7051,-0.3156999 -0.7051,-0.7050999 0,-0.38944 0.3157,-0.70512 0.7051,-0.70512 0.3895,0 0.7051,0.31568 0.7051,0.70512 z m 2.3172,0.7050999 c 0.3894,0 0.7051,-0.3156999 0.7051,-0.7050999 0,-0.38944 -0.3157,-0.70512 -0.7051,-0.70512 -0.3895,0 -0.7051,0.31568 -0.7051,0.70512 0,0.3894 0.3156,0.7050999 0.7051,0.7050999 z"
     fill="#000000"
     id="path4" />
</svg>
