<svg width="192" height="192" viewBox="0 0 192 192" fill="none" xmlns="http://www.w3.org/2000/svg"><path d="M60.561 87.797a7.991 7.991 0 1 0 0-15.982 7.991 7.991 0 0 0 0 15.982ZM76.756 103.581a7.99 7.99 0 1 0 0-15.982 7.991 7.991 0 1 0 0 15.982ZM44.852 103.581a7.99 7.99 0 1 0 0-15.982 7.991 7.991 0 1 0 0 15.982ZM60.405 119.555a7.991 7.991 0 1 0 0-15.983 7.991 7.991 0 0 0 0 15.983Z" fill="#000"/><path d="M30.414 62.164H72.74s25.662.565 29.328 20.896l9.023 48.004M31.093 129.045l29.412.1 21.235 20.966" stroke="#000" stroke-width="12" stroke-linecap="round" stroke-linejoin="round"/><path d="m154.673 109.933-101.761 57.95C42.245 173.954 29 166.243 29 153.951V38.049c0-12.292 13.245-20.003 23.912-13.932l101.761 57.95c10.787 6.142 10.787 21.714 0 27.856v.01Z" stroke="#000" stroke-width="12" stroke-miterlimit="10"/></svg>