<svg id="Layer_1" data-name="Layer 1" xmlns="http://www.w3.org/2000/svg" width="192" height="192" viewBox="0 0 192 192"><defs><style>.cls-1,.cls-2{fill:none;}.cls-2{stroke:#000;stroke-linejoin:round;stroke-width:12px;}</style></defs><rect class="cls-1" width="192" height="192"/><path d="M153.58,40A10.43,10.43,0,0,1,164,50.42v91.16A10.43,10.43,0,0,1,153.58,152H38.42A10.43,10.43,0,0,1,28,141.58V50.42A10.43,10.43,0,0,1,38.42,40H153.58m0-12H38.42A22.42,22.42,0,0,0,16,50.42v91.16A22.42,22.42,0,0,0,38.42,164H153.58A22.42,22.42,0,0,0,176,141.58V50.42A22.42,22.42,0,0,0,153.58,28Z"/><polyline class="cls-2" points="24 85.5 128 110.29 171 87.5"/><polyline class="cls-2" points="170 80.5 155.43 70.29 37.71 70.29 24 78.5"/><polyline class="cls-2" points="170 62.21 155.43 52 37.71 52 24 60.21"/></svg>