<svg xmlns="http://www.w3.org/2000/svg" width="192" height="192" fill="none"><path stroke="#000" stroke-linecap="round" stroke-linejoin="round" stroke-width="12" d="M100.39 33.828a6.184 6.184 0 0 0-8.78 0L23.818 101.99a6.267 6.267 0 0 0 0 8.828l7.776 7.818a6.184 6.184 0 0 0 8.78 0L91.61 67.121a6.185 6.185 0 0 1 8.78 0l51.236 51.515a6.184 6.184 0 0 0 8.78 0l7.776-7.818a6.267 6.267 0 0 0 0-8.828z"/><path stroke="#000" stroke-linecap="round" stroke-linejoin="round" stroke-width="12" d="M128.861 141.525a6.266 6.266 0 0 1 0 8.828l-7.776 7.819a6.186 6.186 0 0 1-8.78 0l-28.471-28.627a6.267 6.267 0 0 1 0-8.828l7.776-7.818a6.184 6.184 0 0 1 8.78 0z"/></svg>