<svg xmlns="http://www.w3.org/2000/svg" width="192" height="192" fill="none" viewBox="0 0 192 192"><g stroke="#000" stroke-linecap="round" stroke-linejoin="round" stroke-width="12"><path d="M45.877 59.33a31.2 31.2 0 0 1 7.494-8.78s8.303-6.339 18.49-12.485c10.197-6.147 19.24-10.33 19.585-10.532a33.75 33.75 0 0 1 25.042 0c.405 0 9.387 4.385 19.574 10.532 10.197 6.146 17.822 12.222 18.43 12.485a36.53 36.53 0 0 1 12.425 22.48c0 .406 1.083 10.734 1.083 22.957 0 12.222-1.013 22.54-1.083 22.956a36.53 36.53 0 0 1-12.425 22.48s-8.304 6.34-18.49 12.486c-10.198 6.147-19.24 10.329-19.585 10.531a30.8 30.8 0 0 1-12.557 2.43v-.01a30.8 30.8 0 0 1-12.556-2.43c-.405 0-9.448-4.384-19.574-10.531a232 232 0 0 1-18.501-12.476 31.5 31.5 0 0 1-7.352-8.78"/><path d="M20.005 116.24V75.723H47m8.497 20.254c0-27.007 40.505-27.007 40.505 0s-40.505 27.006-40.505 0m88.16 15.533a20.25 20.25 0 0 1-13.023 4.73v-.01a20.253 20.253 0 1 1 12.283-36.384"/></g></svg>