<svg xmlns="http://www.w3.org/2000/svg" xml:space="preserve" width="192" height="192" fill="none" viewBox="0 0 192 192"><g fill="#fff" style="fill:none;fill-opacity:1;stroke:#000;stroke-width:1.18504;stroke-linecap:round;stroke-linejoin:round;stroke-dasharray:none;stroke-opacity:1"><path d="M4.667 6.381c.19-.332.441-.626.74-.867 0 0 .82-.626 1.826-1.233 1.007-.607 1.9-1.02 1.934-1.04a3.333 3.333 0 0 1 2.473 0c.04 0 .927.433 1.933 1.04 1.007.607 1.76 1.207 1.82 1.233a3.607 3.607 0 0 1 1.227 2.22c0 .04.107 1.06.107 2.267 0 1.207-.1 2.226-.107 2.267a3.607 3.607 0 0 1-1.227 2.22s-.82.626-1.826 1.233c-1.007.607-1.9 1.02-1.934 1.04a3.04 3.04 0 0 1-1.24.24V17a3.04 3.04 0 0 1-1.24-.24c-.04 0-.933-.433-1.933-1.04a22.95 22.95 0 0 1-1.827-1.232 3.107 3.107 0 0 1-.726-.867" style="fill:none;fill-opacity:1;stroke:#000;stroke-width:1.18504;stroke-linecap:round;stroke-linejoin:round;stroke-dasharray:none;stroke-opacity:1" transform="translate(-1.382 -5.286) scale(10.12627)"/><path d="M2.112 12.001V8h2.666" style="fill:none;fill-opacity:1;stroke:#000;stroke-width:1.18504;stroke-linecap:round;stroke-linejoin:round;stroke-dasharray:none;stroke-opacity:1" transform="translate(-1.382 -5.286) scale(10.12627)"/><path d="M5.617 10c0-2.667 4-2.667 4 0s-4 2.667-4 0z" clip-rule="evenodd" style="fill:none;fill-opacity:1;stroke:#000;stroke-width:1.18504;stroke-linecap:round;stroke-linejoin:round;stroke-dasharray:none;stroke-opacity:1" transform="translate(-1.382 -5.286) scale(10.12627)"/><path d="M14.323 11.534a2 2 0 0 1-1.286.467V12a2 2 0 1 1 1.213-3.593" style="fill:none;fill-opacity:1;stroke:#000;stroke-width:1.18504;stroke-linecap:round;stroke-linejoin:round;stroke-dasharray:none;stroke-opacity:1" transform="translate(-1.382 -5.286) scale(10.12627)"/></g></svg>