<svg width="192" height="192" viewBox="0 0 192 192" fill="none" xmlns="http://www.w3.org/2000/svg"><path d="M22 113V85a6 6 0 0 1 6-6h16m100.021 4.98a17.004 17.004 0 0 0-18.527-3.686 17.001 17.001 0 0 0 0 31.412 17 17 0 0 0 18.527-3.685" stroke="#000" stroke-width="12" stroke-linecap="round" stroke-linejoin="round"/><circle cx="78" cy="96" r="17" stroke="#000" stroke-width="12" stroke-linecap="round" stroke-linejoin="round"/><path d="M35 56c6-10 42-34 62-34m0 148c-20 0-56-24-62-34-.39-.65-.763-1.317-1.12-2M97 22c20 0 56 24 62 34s8 24 8 40-2 30-8 40-42 34-62 34" stroke="#000" stroke-width="12" stroke-linecap="round" stroke-linejoin="round"/></svg>