<svg xmlns="http://www.w3.org/2000/svg" width="192" height="192" fill="none" stroke="#000" stroke-linecap="round" stroke-linejoin="round" stroke-width="12" viewBox="0 0 192 192"><path d="M96 22c-20 0-56 24-62 34s-8 24-8 40 2 30 8 40 42 34 62 34m0-148c20 0 56 24 62 34s8 24 8 40-2 30-8 40-42 34-62 34"/><path d="M71.442 53.43c12.38-2.11 35.075 4.22 35.075 4.22S131.342 63.885 141 71.857l-11.258 39.841c-9.157 30.081-45.97 29.301-45.97 29.301s-29.867-16.88-22.646-47.476z"/><path stroke-width="8" d="M81 80.533c3.84-.99 7.68-.99 12 3.467m14 3.533c3.84-.99 7.68-.99 12 3.467m-39 13s2 8 12.5 10.5 16-2.5 16-2.5"/></svg>