<svg xmlns="http://www.w3.org/2000/svg" width="192" height="192" fill="none"><path stroke="#000" stroke-width="12" d="M38 34a6 6 0 1 0 0-12 6 6 0 0 0 0 12Zm-10 98a6 6 0 1 0 0-12 6 6 0 0 0 0 12Zm114 38a6 6 0 1 0 0-12 6 6 0 0 0 0 12Zm22-84a6 6 0 1 0 0-12 6 6 0 0 0 0 12Z"/><path stroke="#000" stroke-width="10" d="M101 33a5 5 0 1 0 0-10 5 5 0 0 0 0 10Zm8 35a5 5 0 1 0 0-10 5 5 0 0 0 0 10Z"/><path stroke="#000" stroke-linecap="round" stroke-width="10" d="M140 162 28 124l10-96h63l7 35 56 15m0 2-22 82"/></svg>