<svg xmlns="http://www.w3.org/2000/svg" width="192" height="192" viewBox="0 0 50.8 50.8"><g fill="none" stroke="#000" stroke-linecap="round" stroke-linejoin="round" stroke-width="2.042"><path stroke-width="1.588" d="m34.491 13.972-1.415 1.415-1.23-1.23-2.532 2.532-.936-.935-6.669 6.67.55.55-2.385 2.385 1.5 1.5-1.657 1.658 2.569 2.568 1.657-1.657 1.5 1.5 2.386-2.385.55.55 6.67-6.669-.936-.936 2.532-2.532-1.23-1.23 1.415-1.416zm-3.536 2.29 3.63 3.631m-7.104-2.398 5.956 5.956m-11.584.107 5.386 5.387"/><path stroke-width="1.587" d="m27.664 20.757-2.704 2.704m5.099-.31-2.704 2.704"/><path stroke-width="1.588" d="m15.39 35.44-3.686 3.628"/><path stroke-width="2.117" d="m9.739 38.547 2.515 2.515"/><path d="M31.34 15.15h17.798M31.34 17.995h17.798M31.34 20.84h17.798" transform="matrix(.67322 .67322 -.79832 .79832 24.515 -4.216)"/><path d="M31.34 15.15h17.798M31.34 17.995h17.798M31.34 20.84h17.798" transform="matrix(.67322 .67322 -.79832 .79832 .837 -27.894)"/><path stroke-width="2.117" d="M10.904 30.523a6.63 6.63 0 0 1 9.374 9.374z"/></g></svg>