<svg width="192" height="192" viewBox="0 0 192 192" fill="none" xmlns="http://www.w3.org/2000/svg"><ellipse cx="92" cy="78.5" rx="29" ry="14.5" stroke="#000" stroke-width="10" stroke-linecap="round" stroke-linejoin="round"/><ellipse cx="92" cy="78.5" rx="3" ry="1.5" stroke="#000" stroke-width="6" stroke-linecap="round" stroke-linejoin="round"/><path d="m98.962 157.319 68-38.595a5.998 5.998 0 0 0 3.038-5.218V78.494a6 6 0 0 0-3.038-5.219l-68-38.594a6 6 0 0 0-5.924 0l-68 38.594A6 6 0 0 0 22 78.494v35.012c0 2.16 1.16 4.153 3.038 5.218l68 38.595a5.997 5.997 0 0 0 5.924 0Z" stroke="#000" stroke-width="12" stroke-linecap="round" stroke-linejoin="round"/><path d="M97 110.625h13l39-22L140.625 84" stroke="#000" stroke-width="10" stroke-linecap="round" stroke-linejoin="round"/></svg>
