<svg xmlns="http://www.w3.org/2000/svg" width="192" height="192" fill="none"><path stroke="#000" stroke-linecap="round" stroke-linejoin="round" stroke-width="10" d="M137.279 136.892c-11.182 17.178-35.781 45.866-78.63 22.022-4.154-2.311-6.207-7.1-5.424-11.788l.713-4.272m83.341-5.962-15.305-18.009 19.01-10.986m-3.705 28.995 28.718-18.009-25.013-10.986m-87.046 34.957c-25.013-25.968-2.001-65.92 21.078-76.067m-21.078 76.067c3.02-5.4 4.232-13.657 23.037.113 1.342-4.557 9.315-9.949 15.775-12.098m48.234-22.972c-6.489-13.343-8.734-17.063-16.008-23.97m16.008 23.97C151.105 99.797 171 70.169 171 24c-18.413 0-41.626 19.166-50.93 27.99M58.855 75.13l-6.918-14.175c-18.01 11.985-40.021 32.959-27.014 62.922m62.033-59.926c4.621-8.077 9.678-15.625 14.007-20.974 6.928.183 13.521 4.173 19.107 9.013M86.956 63.95c-10.54 18.422-18.076 38.959-5.003 49.939 9.17-10.707 30.479-20.016 43.023-29.963m-38.02-19.975c-4.08.291-8.182 1.316-11.94 2.836m49.96 17.14c6.434-5.103 10.026-8.921 11.005-13.984-2.676-4.796-9.178-12.12-15.911-17.953M75.016 66.787C70.609 55.562 59.247 31.29 49.06 24c-3.918 10.8-11.306 32.012-10.13 42.947m70.036 64.92c-5.338-3.511-11.674-2.51-16.217-.998m0 0 2.21 13.982"/></svg>