<svg width="192" height="192" fill="none" xmlns="http://www.w3.org/2000/svg"><path d="M107.5 115.712 96.278 143m9.364-103.37 13.068 9.652a6.001 6.001 0 0 1 2.387 4.072l7.697 60.728a6.002 6.002 0 0 1-.446 3.137l-18.716 43.272a5.986 5.986 0 0 1-1.765 2.308l-8.63 6.888a6 6 0 0 1-6.8.473l-12.196-7.222a5.995 5.995 0 0 1-2.556-3.043l-16.082-42.587a6 6 0 0 1-.275-3.271l13.316-68.062a6 6 0 0 1 .648-1.77l11.229-20.132c2.338-4.191 8.407-4.077 10.586.199l6.754 13.255a6 6 0 0 0 1.781 2.102Z" stroke="#000" stroke-width="10" stroke-linecap="round" stroke-linejoin="round"/></svg>