<svg xmlns="http://www.w3.org/2000/svg" width="192" height="192" fill="none" viewBox="0 0 192 192"><path stroke="#000" stroke-linecap="round" stroke-linejoin="round" stroke-width="12" d="m165 170 5-58.859c-2.177 3.241-5.796 8.827-10.688 16.571q-6.519 10.808-10.326 14.59c-2.718 2.88-5.436 3.602-7.967 2.7-1.452-.538-2.54-1.44-3.26-2.88-.547-1.441-.907-3.422-.907-5.761 0-3.244 1.086-10.808 2.894-22.516l1.091-6.302c.182-1.443 0-2.522-.547-2.883-2.712-1.978-9.776-1.44-21.552 1.804m0 0c-6.738 36.536.446 49.564.446 49.564m-.446-49.564c-3.62 8.646-10.483 21.786-16.255 30.075 0 0-17.483 30.461-26.676 26.116s-.173-22.509.193-26.294c0 0-12.505 12.783-24.645 23.053s-20.654 13.147-25.906 8.283c-3.441-3.241-4.348-8.644-2.537-16.389.726-3.061 1.814-6.305 3.26-9.545q2.174-4.594 4.348-7.568c6.159-8.283 12.678-14.049 20.107-17.831 0 0 6.958-3.123 9.415-3.244 2.458-.12 2.537.361 3.444 1.083.902.899 1.627 2.184 1.627 3.241s-.36 2.522-1.267 3.421-5.07 2.162-5.07 2.162m59.962-16.563c-18.933 5.222-27.59 7.739-27.59 7.739m27.59-7.739c1.091-6.122 6.7-37.464 6.7-37.464"/><path stroke="#000" stroke-linecap="round" stroke-linejoin="round" stroke-width="12" d="M125.435 71.379c-.63-1.829-4.897-7.48-.002-21.474 1.565-4.695 3.652-9.218 6.262-13.742 5.217-8.697 10.61-13.392 16.346-14.089 3.306-.348 6.262.52 8.697 2.782l.172.171c1.739 1.914 2.781 4.35 2.781 7.48v.174c0 6.609-4.524 13.266-13.732 21.96-9.209 8.693-10.586 8.883-20.524 16.738m0 0C115.5 77.5 104 87 95 87c-6.5 0-12-4.5-12-12.5S89 49 108 40m17.435 31.379s6.599 20.311 31.606 2.87C166 68 170 58.681 170 58.681m-98.044-8.084S61 72 63.084 85.04M22 61.73 28.087 92C31.217 86.954 66 22.477 66 22.477"/></svg>