<svg width="192" height="192" fill="none" xmlns="http://www.w3.org/2000/svg"><path d="M102.5 63 98 74l8-1m44.039 5.364c.443-7.863-1.363-11.345-1.363-11.345s-2.187 3.257-2.631 11.12c-.443 7.862 1.28 12.842 1.28 12.842s2.271-4.755 2.714-12.617ZM160 104l2 16-7-4-1 9" stroke="#000" stroke-width="10" stroke-linecap="round" stroke-linejoin="round"/><ellipse cx="115" cy="48" rx="4" ry="1" stroke="#000" stroke-width="8" stroke-linecap="round" stroke-linejoin="round"/><path d="M89.436 53.146c-2.06 1.265-4.375 1.106-5.168-.355-.793-1.46.234-3.671 2.296-4.937 2.06-1.265 4.375-1.106 5.168.355.793 1.46-.234 3.671-2.296 4.937Z" stroke="#000" stroke-width="6" stroke-linecap="round" stroke-linejoin="round"/><path d="M60 96s0-11-3-22l3-4v-8l4-5 1-9s10-26 35-26c15 0 23 3 23 3 6 7 15 14 15 14l7 31-3 26-7 18-12 13-8 13H90l-5-9-15-12-3-20-7-3Z" stroke="#000" stroke-width="12" stroke-linecap="round" stroke-linejoin="round"/><path d="M93 92.538 104 92l6 4 2 10-7.278 8h-8.055l-7.834-7.731L93 92.539Z" stroke="#000" stroke-width="10" stroke-linecap="round" stroke-linejoin="round"/><path d="m22 170 54-16m94-2-33-3m0 0s-13 18-36 18c-15 0-25-13-25-13m61-5-11-23m-50 28 13-15" stroke="#000" stroke-width="12" stroke-linecap="round" stroke-linejoin="round"/><ellipse cx="105" cy="172" rx="3" ry="1" stroke="#000" stroke-width="6" stroke-linecap="round" stroke-linejoin="round"/></svg>