<svg xmlns="http://www.w3.org/2000/svg" width="192" height="192" fill="none"><path stroke="#000" stroke-linecap="round" stroke-linejoin="round" stroke-width="10" d="M102.5 63 98 74l8-1m44.039 5.364c.443-7.863-1.363-11.345-1.363-11.345s-2.187 3.257-2.631 11.12 1.28 12.842 1.28 12.842 2.271-4.755 2.714-12.617M160 104l2 16-7-4-1 9"/><ellipse cx="115" cy="48" stroke="#000" stroke-linecap="round" stroke-linejoin="round" stroke-width="8" rx="4" ry="1"/><path stroke="#000" stroke-linecap="round" stroke-linejoin="round" stroke-width="6" d="M89.436 53.146c-2.06 1.265-4.375 1.106-5.168-.355-.793-1.46.234-3.671 2.296-4.937 2.06-1.265 4.375-1.106 5.168.355.793 1.46-.234 3.671-2.296 4.937"/><path stroke="#000" stroke-linecap="round" stroke-linejoin="round" stroke-width="12" d="M60 96s0-11-3-22l3-4v-8l4-5 1-9s10-26 35-26c15 0 23 3 23 3 6 7 15 14 15 14l7 31-3 26-7 18-12 13-8 13H90l-5-9-15-12-3-20z"/><path stroke="#000" stroke-linecap="round" stroke-linejoin="round" stroke-width="10" d="M93 92.538 104 92l6 4 2 10-7.278 8h-8.055l-7.834-7.731L93 92.539Z"/><path stroke="#000" stroke-linecap="round" stroke-linejoin="round" stroke-width="12" d="m22 170 54-16m94-2-33-3m0 0s-13 18-36 18c-15 0-25-13-25-13m61-5-11-23m-50 28 13-15"/><ellipse cx="105" cy="172" stroke="#000" stroke-linecap="round" stroke-linejoin="round" stroke-width="6" rx="3" ry="1"/></svg>