<svg width="192" height="192" viewBox="0 0 192 192" fill="none" xmlns="http://www.w3.org/2000/svg"><path d="M30 36a6 6 0 0 1 6-6h120a6 6 0 0 1 6 6v120a6 6 0 0 1-6 6H36a6 6 0 0 1-6-6V36Z" stroke="#000" stroke-width="11.901" stroke-linecap="round" stroke-linejoin="round"/><path d="M127 100h15M89 78v36m53-36h-9a6 6 0 0 0-6 6v30m-75-14h14a6 6 0 0 0 6-6V84a6 6 0 0 0-6-6h-8a6 6 0 0 0-6 6v30m37-36h14a6 6 0 0 1 6 6v24a6 6 0 0 1-6 6H89" stroke="#000" stroke-width="10" stroke-linecap="round" stroke-linejoin="round"/></svg>