<svg xmlns="http://www.w3.org/2000/svg" width="192" height="192" fill="none" stroke="#000" stroke-linecap="round" stroke-linejoin="round" stroke-width="10" viewBox="0 0 192 192"><path stroke-width="8" d="M64.025 83.473v6.55"/><path d="M159.599 142.865c-67.195-54.53-127.296-.338-127.296-.338s-25.596-47.95.54-92.074c0 0 59.856 51.055 126.307-.014m.57 92.229s25.69-47.954-.445-92.078"/><path d="M63.036 83.952s-11.597-.534-25.231-7.72c0 0-7.116 19.352 0 41.82 0 0 15.446-9.391 25.151-9.391"/><path stroke-width="8" d="M63.952 99.612v9.133"/><path stroke-width="6" d="M64.933 98.573H56.56m8.387 2.515v-2.264"/><path d="M83.365 105.353V87.278m25.512 18.235V87.51"/><path stroke-width="8" d="m84.17 86.707 12.283 12.907 11.595-12.712"/><path d="M153.68 117.665s8.565-20.102-.605-43.136m-22.409 9.245s2.916 11.863-.068 25.09"/><path stroke-width="8" d="M131.162 82.905s9.344 4.85 12.679 20.155c0 0 7.289-15.665 8.284-28.914"/></svg>