<svg xmlns="http://www.w3.org/2000/svg" width="192" height="192" viewBox="0 0 50.8 50.8"><g fill="none" stroke="#000" stroke-linecap="round" stroke-linejoin="round"><path stroke-width="2.83" d="M34.925 15.875c5.556 1.587 5.556 8.731 5.556 8.731h2.381v5.556h-2.38c-4.763 7.938-8.732 7.144-8.732 7.144l-.794 3.175h-4.762V38.1h-8.732v2.381h-3.968s-5.557-5.556-5.557-14.287 5.557-10.319 5.557-10.319m17.462-5.556v5.556h3.969s.794-5.556-3.969-5.556M19.05 15.081s0-3.175 3.175-3.175 3.175 3.175 3.175 3.175m-7.938 1.588h9.526" transform="matrix(1.12128 0 0 1.12287 -3.08 -3.121)"/><path stroke-width="1.886" d="M22.225 20.637v10.32m3.175-7.144s0-2.382-3.175-2.382-3.175 2.381-3.175 2.381 0 2.382 3.175 2.382 3.175 2.381 3.175 2.381 0 1.588-3.175 1.588-3.175-1.588-3.175-1.588m12.7-3.969s.794-1.587 2.381-1.587c1.588 0 2.381 1.587 2.381 1.587" transform="matrix(1.12128 0 0 1.12287 -3.08 -3.121)"/></g></svg>