<svg xmlns="http://www.w3.org/2000/svg" width="192" height="192" fill="none" viewBox="0 0 192 192"><path stroke="#000" stroke-linejoin="round" stroke-width="12" d="M74.542 36.893A38 38 0 0 1 92.909 53L73.164 64.4A15.2 15.2 0 0 0 44.8 72v48A15.202 15.202 0 0 0 60 135.2 15.198 15.198 0 0 0 75.2 120v-7.2H64V90h34v30a38 38 0 1 1-76 0V72a38 38 0 0 1 52.542-35.107zm53.351 97.649A37.994 37.994 0 0 1 125 120V36h22.8v84a15.198 15.198 0 0 0 15.2 15.2h7V158h-7a37.994 37.994 0 0 1-26.87-11.13 37.99 37.99 0 0 1-8.237-12.328z"/></svg>