<svg xmlns="http://www.w3.org/2000/svg" width="192" height="192" fill="none" stroke="#000" stroke-linejoin="round" stroke-width="12" viewBox="0 0 192 192"><path d="M51.228 94.967c-3.011 3.367-2.245 9.33-1.903 11.218 1.401 7.728 14.49 16.2 24.83 15.25 8.572-.787 16.561-11.65 12.886-19.42-3.82-8.074-29.847-13.718-35.813-7.048Z"/><path d="M96.023 26.718c-14.106 0-36.371-1.61-54.341-4.718-6.245 3.138-11.753 8.218-15.881 12.77-1.852 21.15-.241 39.96 2.255 56.182 3.147 20.455 8.095 39.087 14.803 55.548C58.852 160.632 80.166 170 96 170m.024-143.282c14.107 0 36.325-1.579 54.295-4.687 6.245 3.138 11.753 8.218 15.88 12.769 1.853 21.15.242 39.96-2.254 56.183-3.147 20.455-8.095 39.087-14.803 55.548C133.148 160.663 111.83 170 95.999 170"/><path d="M140.725 94.967c3.012 3.367 2.246 9.33 1.903 11.218-1.401 7.728-14.49 16.2-24.83 15.25-8.572-.787-16.561-11.65-12.886-19.42 3.82-8.074 29.847-13.718 35.813-7.048z"/></svg>