<svg xmlns="http://www.w3.org/2000/svg" width="192" height="192" fill="none"><path stroke="#000" stroke-linecap="round" stroke-linejoin="round" stroke-width="12" d="m87 106-16.186-6.937a6 6 0 0 0-7.509 2.428l-8.154 13.59a12 12 0 0 0 .69 13.374l16.25 21.667a12 12 0 0 1 2.308 8.688L73 170m43 0v-5.395c0-2.965 1.113-5.81 2.918-8.161 2.62-3.412 6.177-8.663 6.998-12.944"/><path stroke="#000" stroke-linecap="round" stroke-linejoin="round" stroke-width="12" d="M116 170c39 0 59-53 48-90l-10 14s2-20-25-43c0 0 0 15-10 15-18.5 0-17-44-34-44 0 0-3 33-17 33-13 0-10.5-20-10.5-20C25 63 38 101 38 101l-10-8c-5 75 45 77 45 77m7.5-95L78 80m21.5 3L97 88m20.5 5L106 115m29.5-10-9.5 18"/></svg>