<svg width="192" height="192" viewBox="0 0 192 192" fill="none" xmlns="http://www.w3.org/2000/svg"><path d="M122.799 67.29a27.002 27.002 0 0 0-38.156-27.785 27 27 0 0 0-15.38 28.253M159 71c2.913 0 5.722.457 8.014 2.72 2.292 2.263 3.452 5.142 2.811 8.931l-14.074 50.577C153.631 141.187 145.424 153 128 153M33 71c-2.913 0-5.722.452-8.014 2.716-2.292 2.262-3.452 5.14-2.811 8.931l14.074 50.577c2.12 7.959 10.326 19.772 27.751 19.772M33 71h126m-95 82h64" stroke="#000" stroke-width="12" stroke-linecap="round" stroke-linejoin="round"/><path d="M110.115 92H84.949c-.782 0-1.555.152-2.277.447a5.954 5.954 0 0 0-1.93 1.272 5.865 5.865 0 0 0-1.29 1.905A5.803 5.803 0 0 0 79 97.87v28.26c0 1.557.627 3.05 1.742 4.151A5.988 5.988 0 0 0 84.95 132h22.115c.781 0 1.554-.152 2.275-.447a5.938 5.938 0 0 0 1.927-1.273 5.862 5.862 0 0 0 1.286-1.904c.297-.712.45-1.475.448-2.246l-.018-8.256a5.846 5.846 0 0 0-1.75-4.152 6.005 6.005 0 0 0-4.211-1.718h-9.066" stroke="#000" stroke-width="10" stroke-linecap="round" stroke-linejoin="round"/></svg>