<svg width="192" height="192" viewBox="0 0 192 192" fill="none" xmlns="http://www.w3.org/2000/svg"><path d="M24 30a6 6 0 0 1 6-6h48a6 6 0 0 1 6 6v48a6 6 0 0 1-6 6H30a6 6 0 0 1-6-6V30Zm84 0a6 6 0 0 1 6-6h48a6 6 0 0 1 6 6v48a6 6 0 0 1-6 6h-48a6 6 0 0 1-6-6V30Zm0 84a6 6 0 0 1 6-6h48a6 6 0 0 1 6 6v48a6 6 0 0 1-6 6h-48a6 6 0 0 1-6-6v-48Zm-84 0a6 6 0 0 1 6-6h48a6 6 0 0 1 6 6v48a6 6 0 0 1-6 6H30a6 6 0 0 1-6-6v-48Z" stroke="#000" stroke-width="10" stroke-linecap="round" stroke-linejoin="round"/><path d="M42 54h24" stroke="#000" stroke-width="8" stroke-linecap="round" stroke-linejoin="round"/><circle cx="138" cy="54" r="12" stroke="#000" stroke-width="8" stroke-linecap="round" stroke-linejoin="round"/><circle cx="54" cy="138" r="12" stroke="#000" stroke-width="8" stroke-linecap="round" stroke-linejoin="round"/><path d="M126.409 134.894A12.003 12.003 0 0 0 132 148.392a11.997 11.997 0 0 0 14.485-1.907M148.392 132A11.999 11.999 0 0 0 138 126" stroke="#000" stroke-width="8" stroke-linecap="round" stroke-linejoin="round"/></svg>