<svg width="192" height="192" viewBox="0 0 192 192" fill="none" xmlns="http://www.w3.org/2000/svg"><circle cx="45" cy="73" r="23" stroke="#000" stroke-width="12" stroke-linecap="round" stroke-linejoin="round"/><path d="M131 69.5a19.499 19.499 0 0 0-37.516-7.462A19.5 19.5 0 0 0 92 69.5" stroke="#000" stroke-width="12" stroke-linecap="round" stroke-linejoin="round"/><path d="M170 69.5a19.499 19.499 0 0 0-33.289-13.789A19.512 19.512 0 0 0 131 69.5M68 99a22.999 22.999 0 0 1-39.264 16.263M68 51v48m24-49v46m39-26v26m39-26v26M22 149c74-11 148-4 148-4" stroke="#000" stroke-width="12" stroke-linecap="round" stroke-linejoin="round"/></svg>