<svg width="192" height="192" fill="none" xmlns="http://www.w3.org/2000/svg"><path d="M40 27.834a77.522 77.522 0 0 1 82.48 15.09 77.452 77.452 0 0 1 24.479 59.066A77.464 77.464 0 0 1 101.507 170M49.845 50.59a52.717 52.717 0 0 1 55.684 10.424 52.661 52.661 0 0 1 11.239 61.738 52.67 52.67 0 0 1-25.106 24.493M59.694 73.354a27.908 27.908 0 0 1 28.883 5.75 27.883 27.883 0 0 1 8.812 21.265 27.87 27.87 0 0 1-10.184 20.642 27.887 27.887 0 0 1-5.392 3.47" stroke="#000" stroke-width="12" stroke-linecap="round" stroke-linejoin="round"/></svg>