<svg width="192" height="192" xmlns="http://www.w3.org/2000/svg"><path style="fill:none;stroke:#000;stroke-width:8;stroke-linecap:round;stroke-linejoin:round;stroke-miterlimit:57.5;stroke-dasharray:none;paint-order:stroke markers fill" d="M103.793 48.641a53.058 53.058 0 0 1 64.244 29.753 53.058 53.058 0 0 1-22.523 67.12"/><path style="fill:none;stroke:#000;stroke-width:8;stroke-linecap:round;stroke-linejoin:round;stroke-miterlimit:57.5;stroke-dasharray:none;paint-order:stroke markers fill" d="M107.916 58.832a41.722 41.722 0 0 1 49.732 23.402 41.722 41.722 0 0 1-16.62 52.391"/><path style="fill:none;stroke:#000;stroke-width:8;stroke-linecap:round;stroke-linejoin:round;stroke-miterlimit:57.5;stroke-dasharray:none;paint-order:stroke markers fill" d="M113.101 71a29.191 29.191 0 0 1 33.771 16.543 29.191 29.191 0 0 1-10.554 36.094M72.49 104.027a26.568 26.568 0 0 1-25.731 21.496 26.568 26.568 0 0 1-26.287-20.815A26.568 26.568 0 0 1 35.5 74.734a26.568 26.568 0 0 1 32.406 8.607M76.285 125.375l23.93-53.218 23.946 53.218M87.96 104.005h14.544"/><path style="fill:none;stroke:#000;stroke-width:8.07566;stroke-linecap:round;stroke-linejoin:round;stroke-miterlimit:57.5;stroke-dasharray:none;paint-order:stroke markers fill" d="M72.44 104.043H43.036"/></svg>