<svg xmlns="http://www.w3.org/2000/svg" xml:space="preserve" width="192" height="192" viewBox="0 0 50.8 50.8"><g style="display:inline;stroke-width:1.00012;stroke-dasharray:none"><rect width="26.033" height="34.743" x="10.186" y="10.236" ry="0" style="fill:none;stroke:#000;stroke-width:3.175;stroke-linecap:round;stroke-linejoin:round;stroke-dasharray:none"/><path d="m10.186 10.236 4.455-4.416h25.85v34.525L36.22 44.98" style="fill:none;stroke:#000;stroke-width:3.175;stroke-linecap:round;stroke-linejoin:round;stroke-dasharray:none"/><path d="M26.484 18.887s-.645-3.251-3.175-3.251c0 0-3.28 0-3.28 3.51 0 0-.31 2.528 3.796 4.464 0 0 2.685 1.187 2.685 3.896 0 0 .062 3.492-3.966 3.027" style="fill:none;stroke:#000;stroke-width:3.175;stroke-linecap:round;stroke-linejoin:round;stroke-dasharray:none"/><path d="M19.885 35.256s.646 3.251 3.176 3.251c0 0 3.279 0 3.279-3.51 0 0 .31-2.528-3.796-4.464 0 0-2.685-1.187-2.685-3.897 0 0-.06-3.388 3.79-3.044" style="fill:none;stroke:#000;stroke-width:3.175;stroke-linecap:round;stroke-linejoin:round;stroke-dasharray:none;stroke-opacity:1"/><ellipse cx="6.318" cy="35.077" rx="3.068" ry="3.553" style="fill:none;stroke:#000;stroke-width:3.175;stroke-linecap:round;stroke-linejoin:round;stroke-opacity:1" transform="rotate(-30.368)"/></g></svg>