<?xml version="1.0" encoding="utf-8"?>
<svg
	version="1.1"
	xmlns="http://www.w3.org/2000/svg"
	xmlns:xlink="http://www.w3.org/1999/xlink"
	x="0%" y="0%"
	width="100%" height="100%"
	viewBox="0 0 24.0 24.0"
	enable-background="new 0 0 24.0 24.0"
	xml:space="preserve">
	<path
		fill="#030303"
		stroke="#000000"
		fill-opacity="1.000"
		stroke-opacity="1.000"
		fill-rule="nonzero"
		stroke-width="0.033651907"
		stroke-linejoin="miter"
		stroke-linecap="square"
		d="M18.76,21.17C19.45,21.48,19.42,22.05,18.76,22.04L5.05,22.04C4.50,22.04,4.41,21.53,4.77,21.16L7.23,17.21C7.57,16.71,8.00,16.71,8.57,16.97L18.76,21.17z"/>
	<path
		fill="#030303"
		stroke="#000000"
		fill-opacity="1.000"
		stroke-opacity="1.000"
		fill-rule="nonzero"
		stroke-width="0.033651907"
		stroke-linejoin="miter"
		stroke-linecap="square"
		d="M5.71,11.69C5.27,11.51,5.14,11.16,5.46,10.60L10.56,2.39C10.62,2.32,10.70,1.99,11.22,1.99L18.62,1.99C19.17,1.99,19.47,2.20,19.47,2.76L19.47,15.56C19.47,15.96,19.21,16.37,18.59,16.17L14.90,14.66C14.34,14.40,13.94,14.24,13.94,13.57L13.94,7.05L13.44,7.05L9.96,12.54C9.69,12.99,9.42,13.21,8.77,12.92z"/>
</svg>