<svg width="192" height="192" viewBox="0 0 192 192" fill="none" xmlns="http://www.w3.org/2000/svg"><path d="M22 62V28a6 6 0 0 1 6-6h34m108 40V28a6 6 0 0 0-6-6h-34M22 130v34a6 6 0 0 0 6 6h34m108-40v34a6 6 0 0 1-6 6h-34M96 64c-13 0-32.43 8-74 32 41.57 24 61 32 74 32s32.431-8 74-32c-41.569-24-61-32-74-32Z" stroke="#000" stroke-width="12" stroke-linecap="round" stroke-linejoin="round"/><circle cx="96" cy="96" r="32" stroke="#000" stroke-width="12" stroke-linecap="round" stroke-linejoin="round"/><circle cx="96" cy="96" r="5" stroke="#000" stroke-width="10" stroke-linecap="round" stroke-linejoin="round"/></svg>