<svg width="192" height="192" viewBox="0 0 192 192" fill="none" xmlns="http://www.w3.org/2000/svg"><path d="M101 64s7-57.39 50-38c-37 24 13 94.44-32.5 109-12.5 4-45.5 8-57.5-8 0 0-2.397-4.185-2-7 .268-1.904 3-7 3-7s-3-4.026-3-7 3-7 3-7-4-3.852-4-7c0-3.149 4-7 4-7s-3-4.026-3-7 3-7 3-7c6.03-8.037 12.065-11.001 19-12 10.957-1.225 20 5 20 5Z" stroke="#000" stroke-width="12" stroke-linecap="round" stroke-linejoin="round"/><path d="M140.995 46.377a70 70 0 1 1-31.399-15.044" stroke="#000" stroke-width="12" stroke-linecap="round" stroke-linejoin="round"/></svg>