<svg width="191" height="192" fill="none" xmlns="http://www.w3.org/2000/svg"><path d="m69.361 128.206-9.55-5.622v-10.897M85.314 64.85l12.698-7.473 12.698 7.473m15.954 63.356 9.551-5.622v-10.897m-52.278-3.488 12.064 34.878m0 0L59.811 165l-23.123-12.955m59.314-8.968 12.064-34.878m-12.064 34.878L132.194 165l23.123-12.955m-59.32-64.56-36.504-7.083m0 0-1.058-42.03L81.315 25M59.493 80.402l24.44 27.795m-24.44-27.795-37.25 20.106L22 126.835m74.002-39.35 36.505-7.083m0 0 1.058-42.03L110.685 25m21.822 55.402-24.441 27.795m24.441-27.795 37.25 20.106.243 26.327" stroke="#000" stroke-width="12" stroke-linecap="round" stroke-linejoin="round"/></svg>