<?xml version="1.0" encoding="UTF-8" standalone="no"?>
<!-- Created with Inkscape (http://www.inkscape.org/) -->

<svg
   width="24"
   height="24"
   viewBox="0 0 6.3499999 6.3500002"
   version="1.1"
   id="svg8"
   inkscape:version="1.1.1 (3bf5ae0d25, 2021-09-20)"
   sodipodi:docname="hago.svg"
   xmlns:inkscape="http://www.inkscape.org/namespaces/inkscape"
   xmlns:sodipodi="http://sodipodi.sourceforge.net/DTD/sodipodi-0.dtd"
   xmlns="http://www.w3.org/2000/svg"
   xmlns:svg="http://www.w3.org/2000/svg"
   xmlns:rdf="http://www.w3.org/1999/02/22-rdf-syntax-ns#"
   xmlns:cc="http://creativecommons.org/ns#"
   xmlns:dc="http://purl.org/dc/elements/1.1/">
  <defs
     id="defs2">
    <marker
       inkscape:stockid="Arrow1Lend"
       orient="auto"
       refY="0.0"
       refX="0.0"
       id="Arrow1Lend"
       style="overflow:visible;"
       inkscape:isstock="true">
      <path
         id="path844"
         d="M 0.0,0.0 L 5.0,-5.0 L -12.5,0.0 L 5.0,5.0 L 0.0,0.0 z "
         style="fill-rule:evenodd;stroke:#000000;stroke-width:1.0pt;"
         transform="scale(0.8) rotate(180) translate(12.5,0)" />
    </marker>
    <marker
       inkscape:stockid="Arrow1Lstart"
       orient="auto"
       refY="0.0"
       refX="0.0"
       id="Arrow1Lstart"
       style="overflow:visible"
       inkscape:isstock="true">
      <path
         id="path841"
         d="M 0.0,0.0 L 5.0,-5.0 L -12.5,0.0 L 5.0,5.0 L 0.0,0.0 z "
         style="fill-rule:evenodd;stroke:#000000;stroke-width:1.0pt"
         transform="scale(0.8) translate(12.5,0)" />
    </marker>
    <pattern
       y="0"
       x="0"
       height="6"
       width="6"
       patternUnits="userSpaceOnUse"
       id="EMFhbasepattern" />
    <pattern
       y="0"
       x="0"
       height="6"
       width="6"
       patternUnits="userSpaceOnUse"
       id="EMFhbasepattern-1" />
    <pattern
       y="0"
       x="0"
       height="6"
       width="6"
       patternUnits="userSpaceOnUse"
       id="EMFhbasepattern-6" />
    <pattern
       y="0"
       x="0"
       height="6"
       width="6"
       patternUnits="userSpaceOnUse"
       id="EMFhbasepattern-15" />
    <pattern
       y="0"
       x="0"
       height="6"
       width="6"
       patternUnits="userSpaceOnUse"
       id="EMFhbasepattern-17" />
    <pattern
       y="0"
       x="0"
       height="6"
       width="6"
       patternUnits="userSpaceOnUse"
       id="EMFhbasepattern-2" />
    <pattern
       y="0"
       x="0"
       height="6"
       width="6"
       patternUnits="userSpaceOnUse"
       id="EMFhbasepattern-3" />
    <pattern
       y="0"
       x="0"
       height="6"
       width="6"
       patternUnits="userSpaceOnUse"
       id="EMFhbasepattern-61" />
    <pattern
       y="0"
       x="0"
       height="6"
       width="6"
       patternUnits="userSpaceOnUse"
       id="EMFhbasepattern-4" />
    <pattern
       y="0"
       x="0"
       height="6"
       width="6"
       patternUnits="userSpaceOnUse"
       id="EMFhbasepattern-37" />
    <pattern
       y="0"
       x="0"
       height="6"
       width="6"
       patternUnits="userSpaceOnUse"
       id="EMFhbasepattern-12" />
    <pattern
       y="0"
       x="0"
       height="6"
       width="6"
       patternUnits="userSpaceOnUse"
       id="EMFhbasepattern-44" />
    <pattern
       y="0"
       x="0"
       height="6"
       width="6"
       patternUnits="userSpaceOnUse"
       id="EMFhbasepattern-5" />
    <pattern
       y="0"
       x="0"
       height="6"
       width="6"
       patternUnits="userSpaceOnUse"
       id="EMFhbasepattern-157" />
    <pattern
       y="0"
       x="0"
       height="6"
       width="6"
       patternUnits="userSpaceOnUse"
       id="EMFhbasepattern-7" />
    <pattern
       y="0"
       x="0"
       height="6"
       width="6"
       patternUnits="userSpaceOnUse"
       id="EMFhbasepattern-8" />
    <pattern
       y="0"
       x="0"
       height="6"
       width="6"
       patternUnits="userSpaceOnUse"
       id="EMFhbasepattern-43" />
    <pattern
       y="0"
       x="0"
       height="6"
       width="6"
       patternUnits="userSpaceOnUse"
       id="EMFhbasepattern-63" />
    <pattern
       y="0"
       x="0"
       height="6"
       width="6"
       patternUnits="userSpaceOnUse"
       id="EMFhbasepattern-82" />
    <pattern
       y="0"
       x="0"
       height="6"
       width="6"
       patternUnits="userSpaceOnUse"
       id="EMFhbasepattern-70" />
    <pattern
       y="0"
       x="0"
       height="6"
       width="6"
       patternUnits="userSpaceOnUse"
       id="EMFhbasepattern-46" />
    <pattern
       y="0"
       x="0"
       height="6"
       width="6"
       patternUnits="userSpaceOnUse"
       id="EMFhbasepattern-465" />
    <pattern
       y="0"
       x="0"
       height="6"
       width="6"
       patternUnits="userSpaceOnUse"
       id="EMFhbasepattern-30" />
  </defs>
  <sodipodi:namedview
     id="base"
     pagecolor="#ffffff"
     bordercolor="#666666"
     borderopacity="1.0"
     inkscape:pageopacity="0.0"
     inkscape:pageshadow="2"
     inkscape:zoom="22.627417"
     inkscape:cx="12.352272"
     inkscape:cy="11.689359"
     inkscape:document-units="px"
     inkscape:current-layer="layer2"
     showgrid="false"
     units="px"
     inkscape:window-width="1920"
     inkscape:window-height="1017"
     inkscape:window-x="-8"
     inkscape:window-y="-8"
     inkscape:window-maximized="1"
     inkscape:pagecheckerboard="0" />
  <metadata
     id="metadata5">
    <rdf:RDF>
      <cc:Work
         rdf:about="">
        <dc:format>image/svg+xml</dc:format>
        <dc:type
           rdf:resource="http://purl.org/dc/dcmitype/StillImage" />
      </cc:Work>
    </rdf:RDF>
  </metadata>
  <g
     inkscape:groupmode="layer"
     id="layer2"
     inkscape:label="Layer 2">
    <path
       id="path4634"
       d="M 3.1765562,2.6014496 H 1.5331439 c -0.1276135,0 -0.267677,0.068763 -0.3766153,0.1687832 -0.099601,0.090643 -0.17118876,0.2094162 -0.17118876,0.3219383 0,0.6782586 0.22098916,1.2940043 0.62250466,1.7315913 0.3735027,0.400078 0.9057442,0.650128 1.5687117,0.650128 0.6629674,0 1.1952091,-0.25005 1.5655994,-0.650128 0.4046279,-0.437587 0.6225045,-1.0533327 0.6225045,-1.7315913 0,-0.1125221 -0.068476,-0.2312954 -0.1711887,-0.3219383 C 5.0845332,2.6702131 4.9475821,2.6014496 4.8168561,2.6014496 Z M 1.5331439,2.2545062 h 3.2837122 c 0.2178767,0 0.4419781,0.1031454 0.6100544,0.2594261 0.1680762,0.1562808 0.2832398,0.365697 0.2832398,0.5782388 0,0.7657758 -0.2521144,1.4659133 -0.7127678,1.9660123 -0.4357534,0.471967 -1.0551455,0.76265 -1.8208263,0.76265 -0.7656807,0 -1.3850728,-0.290683 -1.8208261,-0.76265 C 0.89196414,4.5580844 0.63984974,3.8579469 0.63984974,3.0921711 c 0,-0.2125418 0.1151634,-0.421958 0.2863521,-0.5782388 C 1.0942781,2.3576516 1.3183798,2.2545062 1.5331439,2.2545062 Z M 1.3214923,0.52916667 h 0.2054265 c 0.06225,0 0.1151634,0.053135 0.1151634,0.1156478 v 0.3313152 h 0.3299274 c 0.06225,0 0.1120509,0.05001 0.1120509,0.11564773 v 0.203165 c 0,0.065638 -0.0498,0.1156477 -0.1120509,0.1156477 H 1.6420822 v 0.3313153 c 0,0.062512 -0.052913,0.1156478 -0.1151634,0.1156478 H 1.3214923 c -0.06225,0 -0.1151633,-0.053135 -0.1151633,-0.1156478 V 1.4105901 H 0.87951404 c -0.065363,0 -0.1151634,-0.05001 -0.1151634,-0.1156477 v -0.203165 c 0,-0.065638 0.0498,-0.11564773 0.1151634,-0.11564773 H 1.206329 v -0.3313152 c 0,-0.062512 0.052913,-0.1156478 0.1151633,-0.1156478 z m 3.6416522,0.3875763 c -0.1774136,0 -0.3237023,0.14690393 -0.3237023,0.32818963 0,0.1781601 0.1462887,0.3250639 0.3237023,0.3250639 0.1805264,0 0.3268152,-0.1469038 0.3268152,-0.3250639 0,-0.1812857 -0.1462888,-0.32818963 -0.3268152,-0.32818963 z m 0,-0.3344409 c 0.3641654,0 0.6598551,0.2969335 0.6598551,0.66263053 0,0.365697 -0.2956897,0.6595048 -0.6598551,0.6595048 -0.3610526,0 -0.6567423,-0.2938078 -0.6567423,-0.6595048 0,-0.36569703 0.2956897,-0.66263053 0.6567423,-0.66263053 z"
       style="fill:#000000;fill-opacity:1;fill-rule:nonzero;stroke:none;stroke-width:0.08247651"
       inkscape:connector-curvature="0" />
  </g>
</svg>
