<svg xmlns="http://www.w3.org/2000/svg" width="192" height="192" fill="none" xmlns:v="https://vecta.io/nano"><path fill-rule="evenodd" d="M48 22a6 6 0 1 0-12 0v10H26a6 6 0 1 0 0 12h10v10a6 6 0 1 0 12 0V44h10a6 6 0 1 0 0-12H48V22zm102 6c-5.523 0-10 4.477-10 10s4.477 10 10 10 10-4.477 10-10-4.477-10-10-10zm-22 10c0-12.15 9.85-22 22-22s22 9.85 22 22-9.85 22-22 22-22-9.85-22-22zM30.136 93.722C30.626 86.049 38.071 80 47.898 80H96h48.102c9.827 0 17.272 6.049 17.762 13.722A67.33 67.33 0 0 1 162 98c0 36.451-29.549 66-66 66s-66-29.549-66-66a67.11 67.11 0 0 1 .136-4.278zM47.898 68c-13.907 0-28.714 8.943-29.737 24.957C18.054 94.625 18 96.307 18 98c0 43.078 34.922 78 78 78s78-34.922 78-78c0-1.694-.054-3.375-.161-5.043C172.816 76.943 158.009 68 144.102 68H96 47.898z" fill="#000"/></svg>