<svg xmlns="http://www.w3.org/2000/svg" width="192" height="192" fill="none"><circle cx="96" cy="48" r="6" stroke="#000" stroke-linecap="round" stroke-linejoin="round" stroke-width="12"/><path stroke="#000" stroke-linecap="round" stroke-linejoin="round" stroke-width="10" d="M72 25c-13.825 4.801-32 19.117-32 35 0 37 52 34 56 51 4-17 56-14 56-51 0-15.883-18.175-30.199-32-35m-48 0c-8.403 3.788-16 12.882-16 22.61C56 72.683 92 78 96 82c4-4 40-9.317 40-34.39 0-9.728-7.597-18.822-16-22.61m-48 0c-21.546 5.946-51 18.728-51 47 0 46 75 30 75 83 0-53 75-37 75-83 0-28.273-29.454-41.054-51-47"/><path stroke="#000" stroke-linecap="round" stroke-linejoin="round" stroke-width="10" d="M51.962 149c.083 1.093.03 2.194-.162 3.281a13.5 13.5 0 0 1-2.328 5.497 14.6 14.6 0 0 1-4.551 4.111 15.7 15.7 0 0 1-5.963 1.991 16 16 0 0 1-6.312-.483 15.3 15.3 0 0 1-5.536-2.871 14.1 14.1 0 0 1-3.773-4.748A13.2 13.2 0 0 1 22 150c0-5.304 2.74-10.391 7.615-14.142C34.491 132.107 41.105 130 48 130c26 0 48 37 48 37s22-37 48-37c6.896 0 13.509 2.107 18.385 5.858S170 144.696 170 150c0 1.993-.456 3.963-1.337 5.778a14.1 14.1 0 0 1-3.773 4.748 15.3 15.3 0 0 1-5.536 2.871 16 16 0 0 1-6.312.483 15.7 15.7 0 0 1-5.963-1.991 14.6 14.6 0 0 1-4.551-4.111 13.5 13.5 0 0 1-2.328-5.497 13 13 0 0 1-.162-3.281"/></svg>