<?xml version="1.0" encoding="utf-8"?>
	<svg version="1.1" xmlns="http://www.w3.org/2000/svg" xmlns:xlink="http://www.w3.org/1999/xlink" x="0px" y="0px" width="240.0" height="240.0" xml:space="preserve">
		<path d="M120,161.667C99.167,161.667 80.833,145 73.333,120C66.667,120 61.667,110.833 61.667,99.167C61.667,95.833 62.5,92.5 63.333,90C62.5,85.833 61.667,82.5 61.667,78.333C61.667,45.833 87.5,20 120,20C152.5,20 178.333,45.833 178.333,78.333C178.333,81.667 178.333,85.833 176.667,90C177.5,92.5 178.333,95.833 178.333,99.167C178.333,110.833 173.333,120 166.667,120C159.167,145 140.833,161.667 120,161.667L120,161.667ZM79.167,109.167L80.833,114.167C86.667,137.5 102.5,153.333 120,153.333C137.5,153.333 153.333,137.5 159.167,114.167L160.833,108.333L165.833,111.667C167.5,111.667 170,107.5 170,99.167C170,96.667 170,93.333 169.167,90.833L169.167,89.167C170,85 170.833,81.667 170.833,78.333C170.833,50.833 148.333,28.333 120.833,28.333C93.333,28.333 70.833,50.833 70.833,78.333C70.833,81.667 70.833,85 72.5,89.167L72.5,90.833C71.667,93.333 71.667,95.833 71.667,99.167C71.667,107.5 75,111.667 75.833,111.667L79.167,109.167ZM76,91L66.5,91L66.5,72C67.02,64.465 68.52,58.465 71,54C73.48,49.535 78.647,43.535 86.5,36C95.788,31.795 103.121,28.962 108.5,27.5C113.879,26.038 121.879,24.705 132.5,23.5C143.273,27.444 150.94,31.611 155.5,36C160.06,40.389 165.727,49.056 172.5,62L172.5,87.5C166.105,91.885 162.272,93.051 161,91C159.067,87.883 162.383,69.964 161,69C159.706,68.098 155.258,74.419 154,74C143.336,70.444 137.312,75.44 132.5,72C122.2,64.637 113.529,55.876 108.5,54C104.555,52.528 105.421,59.565 101.5,62C96.393,65.172 86.758,64.211 84.5,64C73.724,62.995 70.89,71.995 76,91Z" fill="#000" stroke="#00000000" stroke-width="1.0" stroke-miterlimit=""/>
		<path d="M220,220L20,220L20,210C20,186.667 35,166.667 56.667,159.167L80.833,150.833L82.5,152.5C85,155 88.333,159.167 90.833,162.5C99.167,173.333 110,186.667 120,186.667C130,186.667 140.833,173.333 149.167,162.5C152.5,159.167 155,155 157.5,152.5L159.167,150.833L183.333,159.167C205,166.667 220,187.5 220,210L220,220L220,220ZM83.333,95.833L77.5,95C77.5,95 71.667,94.167 66.667,94.167L66.667,85.833L73.333,85.833C73.333,78.333 73.333,67.5 77.5,63.333C79.167,61.667 80.833,60.833 83.333,60.833C88.333,60.833 95.833,60.833 100,56.667C101.667,55 102.5,51.667 102.5,48.333L110.833,48.333C111.667,52.5 132.5,69.167 156.667,69.167L160.833,69.167L160.833,73.333C160.833,77.5 162.5,82.5 163.333,85.833L171.667,85L172.5,93.333L158.333,94.167L157.5,91.667C157.5,91.667 154.167,84.167 153.333,77.5C136.667,77.5 118.333,68.333 109.167,60C108.333,61.667 107.5,62.5 106.667,63.333C100,70 89.167,70 84.167,70C83.333,72.5 82.5,81.667 83.333,90.833L83.333,95.833L83.333,95.833Z" fill="#000" stroke="#00000000" stroke-width="1.0" stroke-miterlimit=""/>
		<path d="M101.667,115.833C93.333,115.833 86.667,109.167 86.667,100.833C86.667,92.5 93.333,85.833 101.667,85.833C110,85.833 116.667,92.5 116.667,100.833C116.667,109.167 109.167,115.833 101.667,115.833ZM101.667,95C98.333,95 95,97.5 95,101.667C95,105.833 97.5,108.333 101.667,108.333C105.833,108.333 108.333,105.833 108.333,101.667C108.333,97.5 105,95 101.667,95ZM139.167,115.833C130.833,115.833 124.167,109.167 124.167,100.833C124.167,92.5 130.833,85.833 139.167,85.833C147.5,85.833 154.167,92.5 154.167,100.833C154.167,109.167 146.667,115.833 139.167,115.833L139.167,115.833ZM139.167,95C135.833,95 132.5,97.5 132.5,101.667C132.5,105.833 135,108.333 139.167,108.333C143.333,108.333 145.833,105.833 145.833,101.667C145.833,97.5 142.5,95 139.167,95Z" fill="#000" stroke="#00000000" stroke-width="1.0" stroke-miterlimit=""/>
		<path d="M114.167,105L110,97.5C110.833,97.5 115,95 120,95C125,95 130,97.5 130,97.5L125.833,105C125.833,105 123.333,103.333 119.167,103.333C115,103.333 114.167,105 114.167,105L114.167,105ZM99.167,84.167L91.667,80.833L96.667,70L105,70L108.333,64.167L115.833,67.5L110,78.333L101.667,78.333L99.167,84.167ZM76.192,94.167L80.808,87.225L93.292,95.55L88.667,102.483L76.192,94.167ZM147.15,95.583L159.633,87.258L164.25,94.2L151.767,102.517L147.15,95.583Z" fill="#000" stroke="#00000000" stroke-width="1.0" stroke-miterlimit=""/>
	</svg>
