<?xml version="1.0" encoding="utf-8"?>
	<svg version="1.1" xmlns="http://www.w3.org/2000/svg" xmlns:xlink="http://www.w3.org/1999/xlink" x="0px" y="0px" width="240.0" height="240.0" xml:space="preserve">
		<path d="M198.335,28C198.591,28.141 198.604,28.362 198.584,28.587L198.566,28.754L198.566,28.754C197.87,35.332 197.182,41.911 196.465,48.487C196.382,49.25 196.303,50.014 196.226,50.778L195.995,53.069C195.609,56.889 195.184,60.703 194.349,64.464C187.8,93.965 163.947,117.706 134.444,124.116C128.595,125.386 122.668,125.657 116.713,125.847C110.255,126.053 103.979,127.319 97.961,129.739C97.66,129.796 97.34,129.804 97.124,130.074C96.385,130.18 95.729,130.494 95.102,130.881C94.657,131.045 94.2,131.181 93.77,131.377C84.493,135.627 76.556,141.654 69.99,149.458C65.959,154.249 62.552,159.449 60.145,165.262L59.921,165.824L59.921,165.824C59.567,166.231 59.408,166.724 59.305,167.241L59.098,167.84L59.098,167.84C58.828,168.056 58.802,168.371 58.758,168.679C56.793,173.355 55.687,178.256 55.131,183.271C54.104,192.531 53.151,201.799 52.224,211.069C52.096,212.342 51.732,212.843 50.346,212.77C47.784,212.636 45.207,212.667 42.641,212.761C41.464,212.803 41.3,212.337 41.409,211.347C42.146,204.638 42.858,197.926 43.568,191.214C43.888,188.19 44.185,185.165 44.493,182.141C45.598,174.914 47.394,167.869 50.576,161.267C61.864,137.848 80.024,122.817 105.387,116.699C110.591,115.444 115.914,115.118 121.253,114.992C139.879,114.553 155.3,107.02 167.909,93.564C176.822,84.052 182.444,72.795 184.456,59.878C185.297,54.477 185.72,49.011 186.302,43.571C186.818,38.746 187.313,33.919 187.764,29.087C187.849,28.178 188.257,28.027 189.052,28.033C192.146,28.054 195.24,28.016 198.335,28ZM168.173,28.019C170.744,28.103 173.318,28.045 175.891,28.047C177.612,28.049 177.589,28.049 177.395,29.827C176.924,34.132 176.515,38.445 176.012,42.746C175.349,48.418 175.061,54.138 174.07,59.765C171.408,74.876 163.388,86.56 150.865,95.197C142.132,101.221 132.379,104.158 121.754,104.364C93.72,104.908 71.127,116.712 53.28,137.956C44.029,148.968 37.976,161.642 35.008,175.745C33.83,181.342 33.317,187.029 32.852,192.719C32.172,198.942 31.466,205.163 30.841,211.392C30.74,212.397 30.5,212.788 29.42,212.759C26.668,212.681 23.913,212.688 21.16,212.754C20.092,212.779 19.876,212.429 20.057,211.437C20.269,210.275 20.315,209.083 20.432,207.903L20.482,207.011L20.482,207.011L20.699,205.35L20.699,205.35C21.692,195.979 22.683,186.608 23.679,177.238C24.594,168.624 25.522,160.01 26.429,151.396C27.331,142.828 28.206,134.257 29.107,125.689C29.918,117.974 30.755,110.26 31.567,102.545C32.374,94.876 33.158,87.205 33.964,79.537C34.775,71.821 35.608,64.107 36.42,56.391C37.228,48.723 38.021,41.052 38.825,33.383C38.978,31.916 39.205,30.454 39.297,28.983C39.352,28.12 39.778,28.025 40.491,28.033C43.302,28.063 46.114,28.075 48.924,28.028C49.807,28.013 50.091,28.273 49.991,29.166C49.529,33.329 49.117,37.497 48.679,41.662C47.969,48.432 47.251,55.2 46.538,61.969C45.719,69.731 44.9,77.494 44.084,85.257L41.672,108.263L41.672,108.263C40.861,115.979 40.044,123.694 39.231,131.41C38.905,134.513 38.584,137.617 38.475,140.811C39.676,139.121 40.861,137.421 42.081,135.746C44.382,132.585 46.873,129.575 49.571,126.747C50.349,125.932 50.688,125.052 50.801,123.973C52.015,112.28 53.258,100.589 54.48,88.896C55.757,76.682 57.009,64.466 58.29,52.253C59.1,44.536 59.961,36.826 60.749,29.108C60.839,28.228 61.141,28.014 61.97,28.028C64.733,28.073 67.497,28.085 70.26,28.023C71.244,28.001 71.573,28.204 71.451,29.272C70.869,34.379 70.373,39.496 69.837,44.608C69.029,52.325 68.214,60.04 67.401,67.756C66.587,75.471 65.771,83.187 64.957,90.902C64.157,98.475 63.356,106.049 62.561,113.623C62.531,113.904 62.557,114.191 62.557,114.484C63.094,114.659 63.352,114.228 63.661,113.996C66.597,111.793 69.618,109.715 72.8,107.889C73.688,107.379 74.076,106.771 74.174,105.786C74.753,99.96 75.369,94.138 75.981,88.315C76.792,80.6 77.611,72.885 78.425,65.169L80.832,42.306L80.832,42.306C81.302,37.856 81.801,33.41 82.228,28.956C82.303,28.174 82.615,28.03 83.296,28.035C86.202,28.06 89.109,28.075 92.014,28.029C92.897,28.014 93.001,28.335 92.916,29.12C92.047,37.165 91.213,45.213 90.373,53.261C89.572,60.93 88.783,68.6 87.978,76.268C87.172,83.937 86.353,91.604 85.538,99.272L85.46,99.838L85.46,99.838C85.301,101.397 85.38,101.475 86.8,100.888C92.088,98.703 97.54,97.047 103.12,95.799C109.933,94.276 116.85,93.717 123.811,93.584C132.377,93.42 140.074,90.655 146.886,85.561C156.091,78.677 161.941,69.622 163.615,58.15C164.433,52.549 164.859,46.891 165.451,41.258C165.87,37.282 166.295,33.306 166.664,29.325C166.758,28.311 167.134,27.986 168.173,28.019ZM219.98,29.086C219.223,35.603 218.49,42.123 217.797,48.647C217.271,53.594 216.846,58.551 216.322,63.498L215.915,67.204L215.915,67.204L215.065,74.612C214.925,75.847 214.788,77.082 214.657,78.318C214.226,82.367 213.896,86.428 213.475,90.478C213.05,94.573 212.555,98.66 212.114,102.754C211.79,105.767 211.514,108.785 211.196,111.798L209.821,124.509L209.821,124.509C209.503,127.523 209.227,130.542 208.908,133.557C208.459,137.792 207.98,142.025 207.53,146.26C207.214,149.226 206.923,152.194 206.625,155.162C206.108,160.309 205.609,165.457 205.076,170.602C204.368,177.419 203.644,184.235 202.909,191.049C202.356,196.178 201.747,201.3 201.221,206.431C201.037,208.22 200.91,210.013 200.668,211.797C200.569,212.526 200.37,212.751 199.644,212.743C196.643,212.708 193.641,212.72 190.64,212.734C189.876,212.737 189.587,212.569 189.953,211.739C190.376,210.782 190.181,209.7 190.303,208.682C191.152,201.615 191.864,194.532 192.613,187.454C193.44,179.644 194.263,171.834 195.081,164.024C195.885,156.355 196.677,148.686 197.48,141.017C198.289,133.301 199.107,125.587 199.918,117.871C200.538,111.958 201.154,106.045 201.772,100.131C199.167,103.494 196.74,106.895 194.015,110.067C192.991,111.259 192.038,112.532 190.889,113.592C189.702,114.687 189.351,115.987 189.196,117.501C188.098,128.248 186.95,138.991 185.829,149.737C184.837,159.252 183.869,168.769 182.87,178.284L181.865,187.797L181.865,187.797L179.839,206.823L179.839,206.823C179.663,208.48 179.494,210.137 179.349,211.797C179.288,212.492 179.003,212.755 178.268,212.745C175.363,212.704 172.456,212.697 169.551,212.747C168.634,212.762 168.553,212.351 168.632,211.618C169.432,204.141 170.218,196.662 171.007,189.184C171.826,181.421 172.645,173.658 173.463,165.896C174.281,158.133 175.101,150.371 175.913,142.608C176.482,137.174 177.039,131.738 177.617,126.151C176.728,126.42 176.238,126.951 175.681,127.359C172.914,129.387 170.082,131.317 167.113,133.036C166.384,133.458 166.081,133.961 165.993,134.828C165.013,144.44 163.964,154.044 162.958,163.653C161.862,174.115 160.792,184.579 159.706,195.041C159.136,200.533 158.547,206.022 157.988,211.515C157.904,212.331 157.717,212.784 156.714,212.758C153.905,212.679 151.093,212.705 148.283,212.745C147.443,212.758 147.103,212.601 147.208,211.642C148.43,200.429 149.625,189.212 150.803,177.994C151.804,168.48 152.774,158.962 153.758,149.447C154.057,146.559 154.276,143.659 154.698,140.789C154.921,139.274 154.385,139.451 153.388,139.869C148.113,142.083 142.659,143.731 137.079,144.981C130.266,146.509 123.349,147.025 116.389,147.205C95.998,147.734 78.482,164.144 76.507,184.459C75.628,193.507 74.611,202.541 73.681,211.584C73.6,212.373 73.404,212.767 72.496,212.75C69.591,212.697 66.684,212.711 63.778,212.744C63.002,212.753 62.822,212.499 62.904,211.744C63.927,202.376 64.872,192.999 65.934,183.636C67.354,171.124 72.858,160.591 81.787,151.831C89.862,143.909 99.497,138.93 110.682,137.061C113.502,136.59 116.358,136.446 119.219,136.407C137.293,136.159 153.627,130.532 168.294,120.125C184.797,108.417 196.397,92.98 202.75,73.696C204.844,67.338 205.964,60.788 206.629,54.143C207.468,45.76 208.37,37.384 209.226,29.003C209.298,28.297 209.563,28.024 210.296,28.031C213.201,28.065 216.108,28.066 219.013,28.031C219.819,28.022 220.079,28.227 219.98,29.086Z" fill="#000" stroke="#00000000" stroke-width="1.0" stroke-miterlimit=""/>
	</svg>
