<svg xmlns="http://www.w3.org/2000/svg" width="192" height="192" fill="none"><path stroke="#000" stroke-linecap="round" stroke-linejoin="round" stroke-width="12" d="M51 84v32M22 55V43a6 6 0 0 1 6-6h10m42 18V43a6 6 0 0 0-6-6H64m89 57v22"/><circle cx="153" cy="54" r="17" stroke="#000" stroke-linecap="round" stroke-linejoin="round" stroke-width="12"/><path stroke="#000" stroke-linecap="round" stroke-linejoin="round" stroke-width="12" d="M80 55a29 29 0 1 1-58 0m29 61c0 5.647 1.32 11.238 3.882 16.455s6.32 9.958 11.056 13.951 10.358 7.16 16.545 9.321S95.303 159 102 159s13.329-1.112 19.517-3.273 11.81-5.328 16.545-9.321 8.493-8.734 11.056-13.951S153 121.647 153 116"/></svg>