<svg xmlns="http://www.w3.org/2000/svg" xml:space="preserve" width="192" height="192" viewBox="0 0 50.8 50.8"><g style="stroke-width:5.69055;stroke-dasharray:none"><path d="M28.496 5.528C24.152 6.61 19.91 8.31 15.664 9.758a7.43 7.43 0 0 0-5.03 7.035v21.772c0 4.04 3.204 4.224 7.26 2.84V20.442a7.43 7.43 0 0 1 5.03-7.034l9.592-3.273c0-2.905-2.163-4.714-4.02-4.607M17.894 41.405c0 2.75 2.563 4.716 5.03 3.875l11.822-4.034a7.43 7.43 0 0 0 5.03-7.034V12.975c0-4.04-3.204-4.224-7.26-2.84" style="opacity:1;fill:none;stroke:#000;stroke-width:3.41433;stroke-linecap:round;stroke-linejoin:round;stroke-dasharray:none;paint-order:stroke fill markers" transform="matrix(.9285 0 0 .93132 1.997 2.629)"/><path d="M26.917 5.948V3.43M10.634 25.445l7.26 4.194M28.253 11.59v31.87M34.02 9.774v31.72" style="fill:none;stroke:#000;stroke-width:3.41433;stroke-linecap:round;stroke-linejoin:round;stroke-dasharray:none;paint-order:stroke fill markers" transform="matrix(.9285 0 0 .93132 1.997 2.629)"/></g></svg>