<svg width="192" height="192" viewBox="0 0 192 192" fill="none" xmlns="http://www.w3.org/2000/svg"><path d="m40.236 162.962 23.892-136A6 6 0 0 1 70.038 22h17.816c3.729 0 6.555 3.366 5.91 7.038l-12.622 71.847 33.257-27.021a5.995 5.995 0 0 0 2.125-3.619l7.604-43.283a6 6 0 0 1 5.91-4.962h17.816c3.729 0 6.555 3.366 5.91 7.038l-23.892 136a6.001 6.001 0 0 1-5.91 4.962h-17.816c-3.729 0-6.555-3.365-5.91-7.038l9.753-55.516-33.257 27.021a6 6 0 0 0-2.126 3.619l-4.734 26.952a6 6 0 0 1-5.91 4.962H46.146c-3.729 0-6.555-3.365-5.91-7.038Z" stroke="#000" stroke-width="12" stroke-linecap="round" stroke-linejoin="round"/></svg>