<svg xmlns="http://www.w3.org/2000/svg" width="192" height="192" fill="none" viewBox="0 0 192 192"><path stroke="#000" stroke-linejoin="round" stroke-width="12" d="M138 22H61c-6.627 0-12 5.373-12 12v124c0 6.627 5.373 12 12 12h77c6.627 0 12-5.373 12-12V34c0-6.627-5.373-12-12-12Z"/><path stroke="#000" stroke-linecap="round" stroke-width="12" d="M42 50h14M42 72h14"/><path stroke="#000" stroke-linecap="round" stroke-width="10" d="M76 44h54M76 62h54M76 80h54"/><path stroke="#000" stroke-linecap="round" stroke-width="12" d="M80 138c18.556 7.808 28.858 8.189 47 0m-85-18h14m-14 22h14"/><circle cx="81" cy="112" r="5" stroke="#000" stroke-width="10"/><circle cx="126" cy="112" r="5" stroke="#000" stroke-width="10"/></svg>