<svg width="192" height="192" viewBox="0 0 192 192" fill="none" xmlns="http://www.w3.org/2000/svg">
<path d="M138 22H61C54.3726 22 49 27.3726 49 34V158C49 164.627 54.3726 170 61 170H138C144.627 170 150 164.627 150 158V34C150 27.3726 144.627 22 138 22Z" stroke="black" stroke-width="12" stroke-linejoin="round"/>
<path d="M42 50H56M42 72H56" stroke="black" stroke-width="12" stroke-linecap="round"/>
<path d="M76 44H130M76 62H130M76 80H130" stroke="black" stroke-width="10" stroke-linecap="round"/>
<path d="M80 138C98.5557 145.808 108.858 146.189 127 138" stroke="black" stroke-width="12" stroke-linecap="round"/>
<path d="M42 120H56M42 142H56" stroke="black" stroke-width="12" stroke-linecap="round"/>
<circle cx="81" cy="112" r="5" stroke="black" stroke-width="10"/>
<circle cx="126" cy="112" r="5" stroke="black" stroke-width="10"/>
</svg>
