<svg width="192" height="192" fill="none" xmlns="http://www.w3.org/2000/svg"><path d="M59 90a17 17 0 0 1 0-34h72a33.998 33.998 0 0 0 34-34H61.5m0 .004A33.995 33.995 0 0 0 31.555 39a34 34 0 0 0 48.83 44.932c2.25-1.561 2.61-4.58 2.018-7.253a16.996 16.996 0 0 1 4.576-15.7 17 17 0 0 1 8.018-4.501c.002-.159.003-.318.003-.478m42.746 46.676A16.995 16.995 0 0 1 150 119a17 17 0 0 1-17 17H97m40.746-33.324A16.97 16.97 0 0 0 133 102m4.746.676a34.005 34.005 0 0 1 26.601 26.691 34.004 34.004 0 0 1-22.418 38.829 33.986 33.986 0 0 1-11.429 1.8m7.246-67.32a33.997 33.997 0 0 0-26.132 5.392c-2.249 1.561-2.609 4.58-2.017 7.253a17 17 0 0 1-12.594 20.201c-.002.159-.003.318-.003.478m0 0H61a33.993 33.993 0 0 0-24.042 9.958A34.012 34.012 0 0 0 27 170h103.5" stroke="#000" stroke-width="12" stroke-linecap="round" stroke-linejoin="round"/></svg>