<svg xmlns="http://www.w3.org/2000/svg" width="192" height="192" fill="none"><path stroke="#000" stroke-linecap="round" stroke-linejoin="round" stroke-width="12" d="M29 75V37a15 15 0 0 1 30 0v38a34 34 0 0 0 34 34 15 15 0 1 1 0 30 63.99 63.99 0 0 1-59.128-39.508A64 64 0 0 1 29 75m0 0v80a14.999 14.999 0 0 0 30 0v-25"/><path stroke="#000" stroke-linecap="round" stroke-linejoin="round" stroke-width="12" d="M163 117v38a14.995 14.995 0 0 1-9.26 13.858 14.995 14.995 0 0 1-16.347-3.251A15.02 15.02 0 0 1 133 155v-38a34 34 0 0 0-9.958-24.042A34 34 0 0 0 99 83a15 15 0 0 1 0-30 64 64 0 0 1 64 64m0 0V37a15 15 0 0 0-9.26-13.858A15 15 0 0 0 133 37v25"/></svg>