<svg xmlns="http://www.w3.org/2000/svg" width="192" height="192" fill="none" viewBox="0 0 192 192"><path stroke="#000" stroke-linecap="round" stroke-linejoin="round" stroke-width="10" d="M21 118v24m28-24v24m28-24v24m49-38v38"/><ellipse cx="109" cy="123" stroke="#000" stroke-linecap="round" stroke-linejoin="round" stroke-width="10" rx="17" ry="19"/><path stroke="#000" stroke-linecap="round" stroke-linejoin="round" stroke-width="10" d="m141 104 30 38m0-38-30 38M21 118a14 14 0 0 1 28 0m0 0a14 14 0 0 1 28 0M37 46l.298 18.995M37 84l.298-19.005M61 46v18.995M61 84V64.995m-23.702 0H61M95 84H84a6 6 0 0 1-6-6V52.006a6 6 0 0 1 5.996-6L94 46"/><path stroke="#000" stroke-linecap="round" stroke-width="10" d="M78 64h17"/><circle cx="139" cy="65" r="19" stroke="#000" stroke-linecap="round" stroke-linejoin="round" stroke-width="10"/><circle cx="139" cy="65" r="3" stroke="#000" stroke-linecap="round" stroke-linejoin="round" stroke-width="6"/><path stroke="#000" stroke-linecap="round" stroke-linejoin="round" stroke-width="10" d="M94 64a9 9 0 0 0 0-18m1 38a10 10 0 0 0 0-20"/></svg>