<svg xmlns="http://www.w3.org/2000/svg" width="192" height="192" fill="none"><path stroke="#000" stroke-linecap="round" stroke-linejoin="round" stroke-width="10" d="M21 117v26m25-26v26m25-26v26m52-38v38"/><ellipse cx="106" cy="124" stroke="#000" stroke-linecap="round" stroke-linejoin="round" stroke-width="10" rx="17" ry="19"/><path stroke="#000" stroke-linecap="round" stroke-linejoin="round" stroke-width="10" d="m141 105 30 38m0-38-30 38M21 117.5A12.5 12.5 0 0 1 33.5 105a12.49 12.49 0 0 1 11.548 7.716c.629 1.517.952 3.142.952 4.784m0 0A12.5 12.5 0 0 1 58.5 105a12.49 12.49 0 0 1 11.549 7.716c.628 1.517.951 3.142.951 4.784M35 47l.298 18.995M35 85l.298-19.005M60 47v18.995M60 85V65.995m-24.702 0H60M95 85H85a6 6 0 0 1-6-6V53.006a6 6 0 0 1 5.996-6L94 47"/><path stroke="#000" stroke-linecap="round" stroke-width="10" d="M79 65h16"/><circle cx="141" cy="66" r="19" stroke="#000" stroke-linecap="round" stroke-linejoin="round" stroke-width="10"/><circle cx="141" cy="66" r="3" stroke="#000" stroke-linecap="round" stroke-linejoin="round" stroke-width="6"/><path stroke="#000" stroke-linecap="round" stroke-linejoin="round" stroke-width="10" d="M94 65a9 9 0 0 0 0-18m1 38a10 10 0 0 0 0-20"/></svg>