<?xml version="1.0" encoding="UTF-8" standalone="no"?>
<svg
   width="192"
   height="192"
   viewBox="0 0 192 192"
   fill="none"
   version="1.1"
   id="svg13"
   sodipodi:docname="headphones.svg"
   xml:space="preserve"
   inkscape:version="1.2.2 (732a01da63, 2022-12-09)"
   xmlns:inkscape="http://www.inkscape.org/namespaces/inkscape"
   xmlns:sodipodi="http://sodipodi.sourceforge.net/DTD/sodipodi-0.dtd"
   xmlns="http://www.w3.org/2000/svg"
   xmlns:svg="http://www.w3.org/2000/svg"><sodipodi:namedview
     id="namedview15"
     pagecolor="#ffffff"
     bordercolor="#000000"
     borderopacity="0.25"
     inkscape:showpageshadow="2"
     inkscape:pageopacity="0.0"
     inkscape:pagecheckerboard="0"
     inkscape:deskcolor="#d1d1d1"
     showgrid="true"
     inkscape:zoom="4"
     inkscape:cx="43.125"
     inkscape:cy="99.5"
     inkscape:window-width="1920"
     inkscape:window-height="1009"
     inkscape:window-x="-8"
     inkscape:window-y="-8"
     inkscape:window-maximized="1"
     inkscape:current-layer="svg13"><inkscape:grid
       type="xygrid"
       id="grid1074" /></sodipodi:namedview><path
     d="m 23.249195,117.02743 16.453825,-9.49932 10.92722,2.92779 17.998715,31.17477 -2.927791,10.92822 -16.716807,9.65031 C 42.129477,156.56782 36.348335,149.73626 31.918576,142.04264 11.486034,106.65117 23.611169,60.602133 59.002642,40.167592 c 24.241769,-13.995993 49.752938,-13.995993 73.994708,0 35.39148,20.434541 47.51661,66.483578 27.08407,101.875048 -4.43006,7.69341 -10.21116,14.52491 -17.06578,20.16656 l -16.71681,-9.65031 -2.92779,-10.92822 17.99872,-31.17477 10.92722,-2.92779 16.45382,9.49932"
     stroke="#000000"
     stroke-width="12"
     stroke-linecap="round"
     stroke-linejoin="round"
     id="path2"
     clip-path="none"
     sodipodi:nodetypes="cccccccccccccccc"
     sodipodi:insensitive="true"
     style="display:inline;stroke-width:12;stroke-dasharray:none" /><defs
     id="defs11"><clipPath
       clipPathUnits="userSpaceOnUse"
       id="clipPath851"><g
         id="g855"><path
           fill="#ffffff"
           d="M 0,0 H 192 V 192 H 0 Z"
           id="path853" /></g></clipPath><clipPath
       id="a"><path
         fill="#fff"
         d="M0 0h192v192H0z"
         id="path1136" /></clipPath></defs></svg>
