<svg width="192" height="192" viewBox="0 0 192 192" fill="none" xmlns="http://www.w3.org/2000/svg">
<path d="M169.803 95.6221L169.803 95.6321C171.454 117.593 162.438 130.443 155.31 140.602C154.74 141.413 154.183 142.207 153.644 142.988L153.607 143.028C148.103 148.975 142.26 155.288 133.712 160.378C125.1 165.506 113.437 169.549 96.3551 169.927L96.3053 169.929L96.2555 169.93C81.7861 170.491 71.3191 167.602 63.0548 163.347C54.7443 159.068 48.387 153.283 42.0987 147.343C34.0817 138.471 29.4208 131.751 26.551 124.343C23.6534 116.863 22.3926 108.196 22.0001 95.0952C22.022 79.8933 27.7719 64.7691 38.2442 50.818L38.2999 50.7438L38.3533 50.6679C52.3109 30.8238 74.693 23.5862 96.7956 22.031C118.236 21.3479 135.685 32.1224 148.061 44.5732C155.968 53.1272 160.954 60.8028 164.185 68.7197C167.434 76.6813 169.037 85.1991 169.803 95.6221Z" stroke="black" stroke-width="12"/>
<path d="M54 77C64.4586 88.6862 79.4049 96 96 96C112.595 96 127.541 88.6862 138 77" stroke="black" stroke-width="12" stroke-linecap="round" stroke-linejoin="round"/>
<path d="M73 69C74.2384 71.8577 77.1929 73.8689 80.6406 73.8689C84.0884 73.8689 87.0429 71.8577 88.2812 69" stroke="black" stroke-width="12" stroke-linecap="round" stroke-linejoin="round"/>
<path d="M103 69C104.238 71.8577 107.193 73.8689 110.641 73.8689C114.088 73.8689 117.043 71.8577 118.281 69" stroke="black" stroke-width="12" stroke-linecap="round" stroke-linejoin="round"/>
</svg>
