<svg width="192" height="192" fill="none" xmlns="http://www.w3.org/2000/svg"><path d="M142 80.2c0 21.546-25.836 47.958-46 63.8-20.164-15.842-46-42.254-46-63.8 0-3.178.611-6.325 1.799-9.26a24.248 24.248 0 0 1 5.122-7.852 23.601 23.601 0 0 1 7.666-5.246A23.149 23.149 0 0 1 73.63 56c3.103 0 6.176.626 9.043 1.842a23.602 23.602 0 0 1 7.666 5.246 24.248 24.248 0 0 1 5.123 7.851 24.6 24.6 0 0 1 .814 2.348 24.27 24.27 0 0 1 .869-2.547 23.924 23.924 0 0 1 5.054-7.746 23.283 23.283 0 0 1 7.564-5.176A22.834 22.834 0 0 1 118.685 56c3.062 0 6.094.618 8.922 1.818a23.283 23.283 0 0 1 7.564 5.175 23.912 23.912 0 0 1 5.054 7.747A24.372 24.372 0 0 1 142 79.877" stroke="#000" stroke-width="10" stroke-linecap="round" stroke-linejoin="round"/><circle cx="96" cy="96" r="74" stroke="#000" stroke-width="12" stroke-linecap="round" stroke-linejoin="round"/><path d="M25 81h24m10 24h19.5L85 89l12 24 9-19 5 11h22m10-24h24" stroke="#000" stroke-width="10" stroke-linecap="round" stroke-linejoin="round"/></svg>