<svg xmlns="http://www.w3.org/2000/svg" width="192" height="192" fill="none"><path stroke="#000" stroke-linecap="round" stroke-linejoin="round" stroke-width="10" d="M142 80.2c0 21.546-25.836 47.958-46 63.8-20.164-15.842-46-42.254-46-63.8 0-3.178.611-6.325 1.799-9.26a24.3 24.3 0 0 1 5.122-7.852 23.6 23.6 0 0 1 7.666-5.246A23.15 23.15 0 0 1 73.63 56c3.103 0 6.176.626 9.043 1.842a23.6 23.6 0 0 1 7.666 5.246 24.3 24.3 0 0 1 5.123 7.851 25 25 0 0 1 .814 2.348 24 24 0 0 1 .869-2.547 23.9 23.9 0 0 1 5.054-7.746 23.3 23.3 0 0 1 7.564-5.176A22.8 22.8 0 0 1 118.685 56c3.062 0 6.094.618 8.922 1.818a23.3 23.3 0 0 1 7.564 5.175 23.9 23.9 0 0 1 5.054 7.747A24.4 24.4 0 0 1 142 79.877"/><circle cx="96" cy="96" r="74" stroke="#000" stroke-linecap="round" stroke-linejoin="round" stroke-width="12"/><path stroke="#000" stroke-linecap="round" stroke-linejoin="round" stroke-width="10" d="M25 81h24m10 24h19.5L85 89l12 24 9-19 5 11h22m10-24h24"/></svg>