<svg xmlns="http://www.w3.org/2000/svg" width="192" height="192" fill="none" stroke="#000" stroke-linecap="round" stroke-linejoin="round" stroke-width="12" viewBox="0 0 192 192"><path d="m94.721 171.955 16.111-27.44 15.829-7.842 16.078 5.102-6.385-17.322s6.997-5.953 9.318-16.081l24.844-14.167-26.249-14.444s-1.682-8.785-7.636-14.355l3.792-17.332-18.632 5.651s-3.328-4.663-9.629-6.113l-16.76-27.567L79.84 48.56s-5.885 1.132-12.012 5.007l-17.71-7.334 5.95 17.505s-4.26 6.37-6.056 14.493L21.484 94.132l27.276 15.372s.46 7.806 6.19 13.923l-5.966 16.166 17.125-4.183s9.208 8.919 16.532 9.341z"/><path d="m94.812 93.48.255 8.375c.162 5.298-31.408-3.958-16.647-24.166 15.966-21.856 34.826-2.688 36.796.47 2.151 3.448 13.756 32.532-13.434 40.645-18.074 5.393-22.778 5.173-22.778 5.173"/></svg>