<svg width="192" height="192" fill="none" xmlns="http://www.w3.org/2000/svg"><path d="M109 47c0 14.378-13.622 28-28 28 14.378 0 28 13.622 28 28 0-14.378 13.622-28 28-28-14.378 0-28-13.622-28-28Z" stroke="#000" stroke-width="12" stroke-linecap="round" stroke-linejoin="round"/><path d="M55 45c0 6.135-3.865 10-10 10 6.135 0 10 3.865 10 10 0-6.135 3.865-10 10-10-6.135 0-10-3.865-10-10Z" stroke="#000" stroke-width="8" stroke-linecap="round" stroke-linejoin="round"/><path d="M25 31a6 6 0 0 1 6-6h130a6 6 0 0 1 6 6v130a6 6 0 0 1-6 6H31a6 6 0 0 1-6-6V31Z" stroke="#000" stroke-width="12" stroke-linecap="round" stroke-linejoin="round"/><path d="M166.5 108.088A97.015 97.015 0 0 0 138 95.277M25 148.195a96.96 96.96 0 0 1 19.41-27.784A96.986 96.986 0 0 1 83.5 96.594" stroke="#000" stroke-width="12" stroke-linecap="round" stroke-linejoin="round"/></svg>