<svg xmlns="http://www.w3.org/2000/svg" width="192" height="192" fill="none"><path stroke="#000" stroke-linecap="round" stroke-linejoin="round" stroke-width="12" d="M109 47c0 14.378-13.622 28-28 28 14.378 0 28 13.622 28 28 0-14.378 13.622-28 28-28-14.378 0-28-13.622-28-28"/><path stroke="#000" stroke-linecap="round" stroke-linejoin="round" stroke-width="8" d="M55 45c0 6.135-3.865 10-10 10 6.135 0 10 3.865 10 10 0-6.135 3.865-10 10-10-6.135 0-10-3.865-10-10"/><path stroke="#000" stroke-linecap="round" stroke-linejoin="round" stroke-width="12" d="M25 31a6 6 0 0 1 6-6h130a6 6 0 0 1 6 6v130a6 6 0 0 1-6 6H31a6 6 0 0 1-6-6z"/><path stroke="#000" stroke-linecap="round" stroke-linejoin="round" stroke-width="12" d="M166.5 108.088A97 97 0 0 0 138 95.277M25 148.195a97 97 0 0 1 19.41-27.784A97 97 0 0 1 83.5 96.594"/></svg>