<svg width="192" height="192" viewBox="0 0 192 192" fill="none" xmlns="http://www.w3.org/2000/svg">
<path fill-rule="evenodd" clip-rule="evenodd" d="M98 140C98.2474 140 98.4943 139.998 98.7409 139.995C98.2699 142.312 97.8718 144.579 97.5452 146.786C97.1815 149.245 96.9032 151.651 96.7132 153.987C61.961 153.302 34 124.916 34 90C34 82.6713 35.2318 75.6304 37.4997 69.0729C38.8516 69.1529 40.0602 69.3145 41.1498 69.5295C44.7345 70.237 47.6374 71.6303 50.7441 73.6218C48.966 78.753 48 84.2637 48 90C48 117.614 70.3858 140 98 140ZM60.9584 56.4149C70.106 46.332 83.3135 40 98 40C125.614 40 148 62.3858 148 90C148 109.468 136.874 126.337 120.633 134.596C119.116 139.932 118.023 145.025 117.33 149.714C117.261 150.178 117.197 150.636 117.136 151.09C143.135 142.955 162 118.68 162 90C162 54.6538 133.346 26 98 26C77.5565 26 59.3518 35.5853 47.635 50.5068C52.9675 51.9021 57.2965 54.1175 60.9584 56.4149Z" fill="black"/>
<path d="M20.5 61.5C63 51 58.5 84.5 93.5 77C97 75 92.5 92.5 103.5 90.5C103.5 90.5 102 101 109.5 95.5C111 97.5 107.5 106.5 120.5 106.5C110.5 127 103.5 162.5 108 171.5" stroke="black" stroke-width="8" stroke-linecap="round" stroke-linejoin="round"/>
</svg>
