<svg width="192" height="192" fill="none" xmlns="http://www.w3.org/2000/svg"><path d="M161.719 160s17.903-16 3.979-27c-13.925-11-29.838 16-41.774 16C111.989 149 110 129 110 129" stroke="#000" stroke-width="10" stroke-linecap="round" stroke-linejoin="round"/><path d="M66.873 81.613c3.56 12.413 21.808 20.218 35.971 26.033 8.93-12.437 20.269-28.726 16.71-41.139a14.216 14.216 0 0 0-2.498-4.877 14.072 14.072 0 0 0-4.151-3.553 13.879 13.879 0 0 0-5.171-1.686 13.75 13.75 0 0 0-10.218 2.93 13.879 13.879 0 0 0-3.492 4.17 14.065 14.065 0 0 0-1.722 6.796 14.256 14.256 0 0 0-5.054-4.795 14.066 14.066 0 0 0-5.24-1.709 13.934 13.934 0 0 0-10.356 2.97 14.068 14.068 0 0 0-3.54 4.226 14.255 14.255 0 0 0-1.659 5.283 14.387 14.387 0 0 0 .472 5.534" stroke="#000" stroke-width="12" stroke-linecap="round" stroke-linejoin="round"/><path d="m155.803 158.301-.012.018m0 0c-1.598 2.337-2.301 8.427-1.382 11.681 3.299-.169 9.407-2.31 11.023-4.643a3.203 3.203 0 0 0 .529-2.319 3.145 3.145 0 0 0-.41-1.131 2.953 2.953 0 0 0-1.868-1.369 2.914 2.914 0 0 0-1.173-.029 2.988 2.988 0 0 0-1.378.64 3.254 3.254 0 0 0 .13-1.54 3.173 3.173 0 0 0-.416-1.146 3.051 3.051 0 0 0-.811-.889 2.965 2.965 0 0 0-2.27-.528 3.032 3.032 0 0 0-1.115.442c-.335.218-.627.5-.859.831Zm0 0a.153.153 0 0 0-.011.016" stroke="#000" stroke-width="10" stroke-linecap="round" stroke-linejoin="round"/><path d="M56.226 44.476c-.883-3.095.898-6.324 3.978-7.212l41.77-12.037c3.08-.887 6.293.903 7.176 3.998l24.624 86.299c.883 3.095-.898 6.324-3.978 7.212l-41.77 12.037c-3.08.887-6.293-.903-7.176-3.998L56.226 44.476Z" stroke="#000" stroke-width="12" stroke-linecap="round" stroke-linejoin="round"/><path d="M37 117s-16-5-16-26 15-30 15-30c5.5 22 25 15.5 25 15.5s-19 5.5-12.5 23C33 102 37 117 37 117Zm84.684-58.04c1.93-.68 18.946-7.32 10.939-27.174 0 0 17.425-1.536 29.769 15.453 12.343 16.99 2.338 30.44 2.338 30.44s-5.581-14.487-19.59-7.399c-4.741-16.952-21.553-11.946-23.456-11.32Zm0 0c-.114.04-.176.06-.176.06s.061-.022.176-.06Z" stroke="#000" stroke-width="10" stroke-linecap="round" stroke-linejoin="round"/></svg>