<svg xmlns="http://www.w3.org/2000/svg" width="192" height="192" fill="none"><path stroke="#000" stroke-linecap="round" stroke-linejoin="round" stroke-width="10" d="M161.719 160s17.903-16 3.979-27c-13.925-11-29.838 16-41.774 16S110 129 110 129"/><path stroke="#000" stroke-linecap="round" stroke-linejoin="round" stroke-width="12" d="M66.873 81.613c3.56 12.413 21.808 20.218 35.971 26.033 8.93-12.437 20.269-28.726 16.71-41.139a14.2 14.2 0 0 0-2.498-4.877 14.1 14.1 0 0 0-4.151-3.553 13.9 13.9 0 0 0-5.171-1.686 13.75 13.75 0 0 0-10.218 2.93 13.9 13.9 0 0 0-3.492 4.17 14.1 14.1 0 0 0-1.722 6.796 14.26 14.26 0 0 0-5.054-4.795 14.1 14.1 0 0 0-5.24-1.709 13.93 13.93 0 0 0-10.356 2.97 14.1 14.1 0 0 0-3.54 4.226 14.3 14.3 0 0 0-1.659 5.283 14.4 14.4 0 0 0 .472 5.534"/><path stroke="#000" stroke-linecap="round" stroke-linejoin="round" stroke-width="10" d="m155.803 158.301-.012.018m0 0c-1.598 2.337-2.301 8.427-1.382 11.681 3.299-.169 9.407-2.31 11.023-4.643a3.2 3.2 0 0 0 .529-2.319 3.2 3.2 0 0 0-.41-1.131 2.95 2.95 0 0 0-1.868-1.369 2.9 2.9 0 0 0-1.173-.029 3 3 0 0 0-1.378.64 3.25 3.25 0 0 0 .13-1.54 3.2 3.2 0 0 0-.416-1.146 3.1 3.1 0 0 0-.811-.889 2.97 2.97 0 0 0-2.27-.528 3 3 0 0 0-1.115.442c-.335.218-.627.5-.859.831m0 0-.011.016"/><path stroke="#000" stroke-linecap="round" stroke-linejoin="round" stroke-width="12" d="M56.226 44.476c-.883-3.095.898-6.324 3.978-7.212l41.77-12.037c3.08-.887 6.293.903 7.176 3.998l24.624 86.299c.883 3.095-.898 6.324-3.978 7.212l-41.77 12.037c-3.08.887-6.293-.903-7.176-3.998z"/><path stroke="#000" stroke-linecap="round" stroke-linejoin="round" stroke-width="10" d="M37 117s-16-5-16-26 15-30 15-30c5.5 22 25 15.5 25 15.5s-19 5.5-12.5 23C33 102 37 117 37 117m84.684-58.04c1.93-.68 18.946-7.32 10.939-27.174 0 0 17.425-1.536 29.769 15.453s2.338 30.44 2.338 30.44-5.581-14.487-19.59-7.399c-4.741-16.952-21.553-11.946-23.456-11.32m0 0c-.114.04-.176.06-.176.06s.061-.022.176-.06"/></svg>