<svg xmlns="http://www.w3.org/2000/svg" width="192" height="192" fill="none" stroke="#000" stroke-linecap="round" stroke-linejoin="round" viewBox="0 0 192 192"><path stroke-width="14" d="M90 97v40c0 3.713-1.896 7.274-5.272 9.899C81.352 149.525 76.774 151 72 151s-9.352-1.475-12.728-4.101S54 140.713 54 137V97m87.191 5.75s-4.889-2.757-6.941-3.941A13.498 13.498 0 0 0 114 110.5a13.5 13.5 0 0 0 13.5 13.5m-13.691 21.25s4.889 2.756 6.941 3.941A13.498 13.498 0 0 0 141 137.5a13.5 13.5 0 0 0-13.5-13.5"/><path stroke-width="12" d="M22 41v32m24-15H22m64-1H68m102 0h-18M86 41H68m102 0h-18M86 73H68m102 0h-18M46 41v32m22-32v32m84-32v32m-30-32h-14m14 20h-14m14 0 10 12m-24-32v32m14-12a10 10 0 1 0 0-20"/></svg>