<svg xmlns="http://www.w3.org/2000/svg" width="192" height="192" fill="none" viewBox="0 0 192 192"><path stroke="#000" stroke-linecap="round" stroke-linejoin="round" stroke-width="14" d="M96 96s24-10 24-27V56c0-4 0-16 13-16 3.983 0 17.683 4.137 20.126 4.885.252.077.493.17.733.28C160.291 48.076 168 50.256 168 64l1 32m-73 0s-24 10-24 27v13c0 4 0 16-13 16-3.983 0-17.683-4.137-20.126-4.885a6 6 0 0 1-.733-.279C31.709 143.923 24 141.743 24 128l-1-32m97 23v17c0 4 0 16 13 16 3.983 0 17.683-4.137 20.126-4.885.252-.077.493-.17.733-.279C160.291 143.923 168 141.743 168 128l1-32M72 73V56c0-4 0-16-13-16-3.983 0-17.683 4.137-20.126 4.885-.252.077-.493.17-.733.28C31.709 48.076 24 50.256 24 64l-1 32"/></svg>