<svg width="192" height="192" viewBox="0 0 192 192" fill="none" xmlns="http://www.w3.org/2000/svg"><path d="M53 43c-16.016 0-29 12.984-29 29 0 9.98 5.041 18.782 12.716 24C29.041 101.218 24 110.02 24 120c0 16.016 12.984 29 29 29 5.203 0 10.085-1.37 14.306-3.769C69.356 159.242 81.421 170 96 170c14.579 0 26.645-10.758 28.694-24.769A28.864 28.864 0 0 0 139 149c16.016 0 29-12.984 29-29 0-9.98-5.041-18.782-12.716-24C162.959 90.782 168 81.98 168 72c0-16.016-12.984-29-29-29m-22-12c-5.282-5.545-12.738-9-21-9-8.263 0-15.718 3.455-21 9" stroke="#000" stroke-width="12" stroke-linecap="round" stroke-linejoin="round"/><circle cx="96" cy="96" r="14" stroke="#000" stroke-width="12" stroke-linecap="round" stroke-linejoin="round"/><path d="M106 64.608C102.96 63.554 99.51 63 96 63s-6.96.554-10 1.608m25-16.393C106.439 46.11 101.266 45 96 45s-10.44 1.109-15 3.215" stroke="#000" stroke-width="10" stroke-linecap="round" stroke-linejoin="round"/></svg>