<svg xmlns="http://www.w3.org/2000/svg" width="192" height="192" fill="none"><path stroke="#000" stroke-linecap="round" stroke-linejoin="round" stroke-width="12" d="M82 52a30 30 0 1 0-30 30m88 0a30 30 0 1 0-30-30m0 88a29.995 29.995 0 0 0 18.519 27.716 30 30 0 0 0 39.197-39.197A29.995 29.995 0 0 0 140 110m-88 0a30 30 0 0 0-27.716 18.519 30.003 30.003 0 0 0 21.863 40.905A30.002 30.002 0 0 0 82 140"/><path stroke="#000" stroke-linecap="round" stroke-linejoin="round" stroke-width="12" d="M82 52v24a6 6 0 0 1-6 6H52m30 58v-24a6 6 0 0 0-6-6H52m88-28h-24a6 6 0 0 1-6-6V52m0 88v-24a6 6 0 0 1 6-6h24"/></svg>