<svg xmlns="http://www.w3.org/2000/svg" width="192" height="192" fill="none" viewBox="0 0 192 192"><path stroke="#000" stroke-linecap="round" stroke-linejoin="round" stroke-width="12" d="M96 68.918A39.8 39.8 0 0 0 90 90a39.8 39.8 0 0 0 6 21.082m0-42.164C103.057 57.561 115.645 50 130 50c22.091 0 40 17.909 40 40 0 18.57-12.654 34.184-29.809 38.69M96 68.918C88.943 57.561 76.355 50 62 50c-22.091 0-40 17.909-40 40 0 18.57 12.654 34.184 29.81 38.69M96 111.082C103.057 122.439 115.645 130 130 130a40 40 0 0 0 10.191-1.31M96 111.082C88.943 122.439 76.355 130 62 130c-3.522 0-6.937-.455-10.19-1.31m0 0a45 45 0 0 0 6.006 4.766C67.943 140.207 81.678 144 96 144s28.057-3.793 38.184-10.544a45 45 0 0 0 6.007-4.766M130 96v8"/><circle cx="130" cy="76" r="3" stroke="#000" stroke-linecap="round" stroke-linejoin="round" stroke-width="6"/><path stroke="#000" stroke-linecap="round" stroke-linejoin="round" stroke-width="10" d="M49 76v28m20-28v28M49 90h20"/></svg>