<?xml version="1.0" encoding="utf-8"?>
<!-- Generator: Adobe Illustrator 16.0.0, SVG Export Plug-In . SVG Version: 6.00 Build 0)  -->
<!DOCTYPE svg PUBLIC "-//W3C//DTD SVG 1.1//EN" "http://www.w3.org/Graphics/SVG/1.1/DTD/svg11.dtd">
<svg version="1.1" xmlns="http://www.w3.org/2000/svg" xmlns:xlink="http://www.w3.org/1999/xlink" x="0px" y="0px" width="192px"
	 height="192px" viewBox="0 0 192 192" enable-background="new 0 0 192 192" xml:space="preserve">
<g id="图层_1" display="none">
	
		<image display="inline" overflow="visible" width="512" height="512" xlink:href="unnamed.png"  transform="matrix(0.36 0 0 0.36 3.3599 3.8398)">
	</image>
	<circle display="inline" fill="none" cx="100.219" cy="96.634" r="28.432"/>
</g>
<g id="图层_2">
	<g>
		<path fill="none" stroke="#000000" stroke-width="12" stroke-linecap="round" stroke-linejoin="round" d="M136.66,31.288
			C126.023,25.371,113.774,22,100.739,22c-40.87,0-74.001,33.131-74.001,74s33.131,74,74.001,74
			c27.696,0,51.839-15.216,64.524-37.744"/>
		<path fill="none" stroke="#000000" stroke-width="12" stroke-linecap="round" stroke-linejoin="round" d="M101.536,145.122
			c27.304,0,49.439-22.137,49.439-49.44c0-27.305-22.136-49.44-49.439-49.44c-27.305,0-49.441,22.135-49.441,49.44
			c0,0.604,0.011,1.205,0.032,1.804"/>
		
			<circle fill="none" stroke="#000000" stroke-width="12" stroke-linecap="round" stroke-linejoin="round" cx="101.887" cy="95.683" r="23.609"/>
		
			<line fill="none" stroke="#000000" stroke-width="12" stroke-linecap="round" stroke-linejoin="round" x1="136.66" y1="31.288" x2="136.66" y2="60.89"/>
	</g>
</g>
</svg>
