<svg xmlns="http://www.w3.org/2000/svg" width="192" height="192" fill="none" stroke="#000" stroke-linecap="round" stroke-width="12" viewBox="0 0 192 192"><path d="M70.21 96.54a18 18 0 1 0 25.4 24.65"/><path stroke-linejoin="round" d="m63.44 66.1-5-4a8.71 8.71 0 0 0-11.54.69l-6.94 6.94L33 76.69a8.7 8.7 0 0 0-.69 11.53l4 5a6.71 6.71 0 0 1 .84 5.8 6.61 6.61 0 0 1-3.64 4.73l-6 2.39a8.7 8.7 0 0 0-5.17 10.33l2.5 9.53 2.54 9.48a8.7 8.7 0 0 0 9.62 6.35l6.34-.91a6.69 6.69 0 0 1 5.44 2.16 6.63 6.63 0 0 1 2.28 5.52l-.89 6.4a8.7 8.7 0 0 0 6.36 9.65l9.47 2.51 9.48 2.54a8.7 8.7 0 0 0 10.33-5.17l2.38-5.95a6.75 6.75 0 0 1 4.6-3.64 6.63 6.63 0 0 1 5.92.8l5.06 4a8.7 8.7 0 0 0 11.53-.69l6.94-6.94 6.94-6.94a8.7 8.7 0 0 0 .69-11.53l-4-5"/><path stroke-width="10" d="M136.42 74.74a13.55 13.55 0 1 0-19.16 0 13.55 13.55 0 0 0 19.16 0z"/><path stroke-width="10" d="m86.77 68.71 4.45 1.78a5 5 0 0 1 2.71 3.43 5 5 0 0 1-.59 4.43l-3 3.78a6.51 6.51 0 0 0 .52 8.62l5.18 5.19 5.19 5.18a6.51 6.51 0 0 0 8.62.52l3.77-3A5 5 0 0 1 118 98a4.94 4.94 0 0 1 3.54 2.73l1.78 4.46a6.52 6.52 0 0 0 7.68 3.91l7.08-1.9 7.09-1.9a6.49 6.49 0 0 0 4.75-7.21l-.68-4.74a5 5 0 0 1 1.62-4.07 5 5 0 0 1 4.13-1.7l4.76.69a6.5 6.5 0 0 0 7.25-4.76l1.9-7.08 1.9-7.09a6.5 6.5 0 0 0-3.87-7.72l-4.45-1.78a5 5 0 0 1-2.71-3.44 4.93 4.93 0 0 1 .59-4.42l3-3.78a6.51 6.51 0 0 0-.51-8.63l-5.19-5.18-5.18-5.19a6.51 6.51 0 0 0-8.63-.51l-3.76 3a5 5 0 0 1-4.33.63 5 5 0 0 1-3.54-2.72l-1.79-4.47a6.5 6.5 0 0 0-7.72-3.87l-7.09 1.9-7.13 1.84a6.51 6.51 0 0 0-4.76 7.21l.69 4.74A5 5 0 0 1 102.8 41a5 5 0 0 1-4.13 1.7l-4.76-.68a6.49 6.49 0 0 0-7.21 4.75l-1.9 7.13-1.9 7.1a6.52 6.52 0 0 0 3.87 7.71z"/></svg>