<svg width="192" height="192" viewBox="0 0 192 192" fill="none" xmlns="http://www.w3.org/2000/svg"><path d="M113 49v22.5H64.5a9 9 0 0 1-9-9V58a9 9 0 0 1 9-9H113Zm0 74v22.5H64.5a9 9 0 0 1-9-9V132a9 9 0 0 1 9-9H113Zm0-37v22.5H64.5a9 9 0 0 1-9-9V95a9 9 0 0 1 9-9H113Z" stroke="#000" stroke-width="6" stroke-linecap="round" stroke-linejoin="round"/><mask id="a" fill="#fff"><rect x="16" y="16" width="160" height="160" rx="6"/></mask><rect x="16" y="16" width="160" height="160" rx="6" stroke="#000" stroke-width="16" mask="url(#a)"/><path stroke="#000" stroke-width="6" stroke-linejoin="round" d="M64 129.4h11.796v9.83H64zm0-74h11.796v9.83H64zm0 37h11.796v9.83H64z"/><path d="M168 169.5h-54.5v-146H168v146Z" stroke="#000" stroke-width="12" stroke-linecap="round" stroke-linejoin="round"/></svg>