<svg width="192" height="192" fill="none" xmlns="http://www.w3.org/2000/svg"><path d="M86 28a4 4 0 1 0 0-8 4 4 0 0 0 0 8Zm35 57a4 4 0 1 0 0-8 4 4 0 0 0 0 8Z" stroke="#000" stroke-width="8" stroke-linecap="round" stroke-linejoin="round"/><path d="M121 170a6 6 0 1 0 0-12 6 6 0 0 0 0 12Z" stroke="#000" stroke-width="12" stroke-linecap="round" stroke-linejoin="round"/><path d="M156 28a4 4 0 1 0 0-8 4 4 0 0 0 0 8Z" stroke="#000" stroke-width="8" stroke-linecap="round" stroke-linejoin="round"/><path d="M148.221 46a35 35 0 0 1-54.442 0M121 103v35M46 79v59m48-59v59m-48-29h46" stroke="#000" stroke-width="12" stroke-linecap="round" stroke-linejoin="round"/></svg>