<svg xmlns="http://www.w3.org/2000/svg" width="192" height="192" fill="none"><path stroke="#000" stroke-linecap="round" stroke-linejoin="round" stroke-width="8" d="M86 28a4 4 0 1 0 0-8 4 4 0 0 0 0 8m35 57a4 4 0 1 0 0-8 4 4 0 0 0 0 8"/><path stroke="#000" stroke-linecap="round" stroke-linejoin="round" stroke-width="12" d="M121 170a6 6 0 1 0 0-12 6 6 0 0 0 0 12"/><path stroke="#000" stroke-linecap="round" stroke-linejoin="round" stroke-width="8" d="M156 28a4 4 0 1 0 0-8 4 4 0 0 0 0 8"/><path stroke="#000" stroke-linecap="round" stroke-linejoin="round" stroke-width="12" d="M148.221 46a35 35 0 0 1-54.442 0M121 103v35M46 79v59m48-59v59m-48-29h46"/></svg>