<?xml version="1.0" encoding="UTF-8" standalone="no"?>
<svg width="192" height="192" viewBox="0 0 192 192" fill="none" version="1.1" id="svg6"
    sodipodi:docname="hijri_calendar.svg" inkscape:version="1.1.1 (3bf5ae0d25, 2021-09-20)"
    xmlns:inkscape="http://www.inkscape.org/namespaces/inkscape" xmlns:sodipodi="http://sodipodi.sourceforge.net/DTD/sodipodi-0.dtd"
    xmlns="http://www.w3.org/2000/svg">
  <defs
     id="defs10">
    <pattern
       id="EMFhbasepattern" width="6"
       height="6"
       x="0"
       y="0" />
    <pattern
       id="EMFhbasepattern-1" width="6"
       height="6"
       x="0"
       y="0" />
    <pattern
       id="EMFhbasepattern-6" width="6"
       height="6"
       x="0"
       y="0" />
    <pattern
       id="EMFhbasepattern-8" width="6"
       height="6"
       x="0"
       y="0" />
  </defs>
  <sodipodi:namedview
     id="namedview8"
     pagecolor="#ffffff"
     bordercolor="#666666"
     borderopacity="1.0"
     inkscape:pageshadow="2"
     inkscape:pageopacity="0.0"
     inkscape:pagecheckerboard="0"
     showgrid="true"
     inkscape:zoom="3.9725552"
     inkscape:cx="111.89272"
     inkscape:cy="97.795998"
     inkscape:window-width="1920"
     inkscape:window-height="1017"
     inkscape:window-x="-8"
     inkscape:window-y="-8"
     inkscape:window-maximized="1"
     inkscape:current-layer="svg6">
    <inkscape:grid
       type="xygrid"
       id="grid23652" />
  </sodipodi:namedview>
  <path
     id="rect3675"
     style="font-variation-settings:normal;opacity:1;fill:none;fill-opacity:1;stroke:#000000;stroke-width:12;stroke-linecap:round;stroke-linejoin:round;stroke-miterlimit:4;stroke-dasharray:none;stroke-dashoffset:0;stroke-opacity:1;paint-order:markers fill stroke;stop-color:#000000;stop-opacity:1"
     d="M 48 30 C 38.028 30 30 38.028 30 48 L 30 144 C 30 153.972 38.028 162 48 162 L 128.1543 162 L 162 128.1543 L 162 48 C 162 38.028 153.972 30 144 30 L 48 30 z " />
  <path
     style="fill:none;stroke:#000000;stroke-width:12;stroke-linecap:round;stroke-linejoin:round;stroke-miterlimit:4;stroke-dasharray:none;stroke-opacity:1"
     d="M 140,125.12253 C 140,87.654755 100.70902,90.197419 96.000005,66.875047 91.290975,90.197419 52.000002,87.654755 52.000002,125.12253"
     id="path3801" />
</svg>
