<svg width="192" height="192" viewBox="0 0 192 192" fill="none" xmlns="http://www.w3.org/2000/svg">
<rect x="0.5" y="0.5" width="191" height="191" stroke="black"/>
<path d="M68.5831 22.7066L54.1411 95.4996M54.1411 95.4996H135.603C138.739 95.4996 141.101 98.3522 140.516 101.433L126.351 176M54.1411 95.4996L38 176" stroke="black" stroke-width="12" stroke-linecap="round" stroke-linejoin="round"/>
<line x1="6" y1="-6" x2="60.6912" y2="-6" transform="matrix(-0.213764 0.976885 -0.976157 -0.217067 153 16)" stroke="black" stroke-width="12" stroke-linecap="round"/>
<line x1="5" y1="-5" x2="61.6912" y2="-5" transform="matrix(-0.213764 0.976885 -0.976157 -0.217067 113.827 111)" stroke="black" stroke-width="10" stroke-linecap="round"/>
<line x1="5" y1="-5" x2="61.6912" y2="-5" transform="matrix(-0.213764 0.976885 -0.976157 -0.217067 90.0659 111)" stroke="black" stroke-width="10" stroke-linecap="round"/>
<line x1="5" y1="-5" x2="61.6912" y2="-5" transform="matrix(-0.213764 0.976885 -0.976157 -0.217067 67.2563 111)" stroke="black" stroke-width="10" stroke-linecap="round"/>
<line x1="5" y1="-5" x2="61.6912" y2="-5" transform="matrix(-0.213764 0.976885 -0.976157 -0.217067 132.827 16)" stroke="black" stroke-width="10" stroke-linecap="round"/>
<line x1="5" y1="-5" x2="61.6912" y2="-5" transform="matrix(-0.213764 0.976885 -0.976157 -0.217067 109.066 16)" stroke="black" stroke-width="10" stroke-linecap="round"/>
<line x1="5" y1="-5" x2="61.6912" y2="-5" transform="matrix(-0.213764 0.976885 -0.976157 -0.217067 86.2563 16)" stroke="black" stroke-width="10" stroke-linecap="round"/>
</svg>
