<svg width="192" height="192" viewBox="0 0 192 192" fill="none" xmlns="http://www.w3.org/2000/svg">
<rect x="0.5" y="0.5" width="191" height="191" stroke="black"/>
<path d="M67.9836 25L53.3525 91.9553M53.3525 91.9553H135.846C139.019 91.9553 141.39 94.8732 140.74 97.9793L126.508 166M53.3525 91.9553L37 166" stroke="black" stroke-width="12" stroke-linecap="round" stroke-linejoin="round"/>
<line x1="6" y1="-6" x2="57.9382" y2="-6" transform="matrix(-0.224907 0.97438 -0.978494 -0.206276 151.38 20)" stroke="black" stroke-width="12" stroke-linecap="round" stroke-linejoin="round"/>
<line x1="5" y1="-5" x2="51.9923" y2="-5" transform="matrix(-0.252318 0.967644 -0.98303 -0.183442 128.38 20)" stroke="black" stroke-width="10" stroke-linecap="round" stroke-linejoin="round"/>
<line x1="5" y1="-5" x2="51.9923" y2="-5" transform="matrix(-0.252318 0.967644 -0.98303 -0.183442 107.38 20)" stroke="black" stroke-width="10" stroke-linecap="round" stroke-linejoin="round"/>
<line x1="5" y1="-5" x2="51.9923" y2="-5" transform="matrix(-0.252318 0.967644 -0.98303 -0.183442 87.3804 20)" stroke="black" stroke-width="10" stroke-linecap="round" stroke-linejoin="round"/>
<line x1="5" y1="-5" x2="51.9923" y2="-5" transform="matrix(-0.252318 0.967644 -0.98303 -0.183442 111.38 107)" stroke="black" stroke-width="10" stroke-linecap="round" stroke-linejoin="round"/>
<line x1="5" y1="-5" x2="51.9923" y2="-5" transform="matrix(-0.252318 0.967644 -0.98303 -0.183442 90.3804 107)" stroke="black" stroke-width="10" stroke-linecap="round" stroke-linejoin="round"/>
<line x1="5" y1="-5" x2="51.9923" y2="-5" transform="matrix(-0.252318 0.967644 -0.98303 -0.183442 70.3804 107)" stroke="black" stroke-width="10" stroke-linecap="round" stroke-linejoin="round"/>
</svg>
