<svg xmlns="http://www.w3.org/2000/svg" width="192" height="192" fill="none" viewBox="0 0 192 192"><path stroke="#000" stroke-linecap="round" stroke-linejoin="round" stroke-width="12" d="M165 170h-28l28-32v-12a6 6 0 0 0-6-6h-16a6 6 0 0 0-6 6v10"/><circle cx="76" cy="150" r="20" stroke="#000" stroke-linecap="round" stroke-linejoin="round" stroke-width="12"/><path stroke="#000" stroke-linecap="round" stroke-linejoin="round" stroke-width="12" d="m60 132-19.757-19.757a6.001 6.001 0 0 1 0-8.486L108 36l24 24m-3-38 14 14m-35 0H80"/><path stroke="#000" stroke-linecap="round" stroke-linejoin="round" stroke-width="10" d="M21 88c11 0 23 12 23 12m7-30 12 12"/><circle cx="150" cy="76" r="20" stroke="#000" stroke-linecap="round" stroke-linejoin="round" stroke-width="12"/><circle cx="43" cy="55" r="14" stroke="#000" stroke-linecap="round" stroke-linejoin="round" stroke-width="12"/><path stroke="#000" stroke-linecap="round" stroke-linejoin="round" stroke-width="12" d="m89 133 44-44m-13-43 14-14m-94 94 6-6"/></svg>