<?xml version="1.0" encoding="UTF-8" standalone="no"?>
<!-- Created with Inkscape (http://www.inkscape.org/) -->

<svg
   width="192"
   height="192"
   viewBox="0 0 192 192"
   version="1.1"
   xml:space="preserve"
   xmlns="http://www.w3.org/2000/svg"
   xmlns:svg="http://www.w3.org/2000/svg">
  <g style="fill:none;stroke:#000;stroke-width:12;stroke-linecap:round;stroke-linejoin:round">
    <path
     d="M 118,110.54545 118,156 A 7,7 135 0 1 111,163 H 99 A 7,7 45 0 1 92,156 V 124 A 7.2866927,7.2866927 61.235596 0 0 88.625354,117.8525 L 74.640138,108.95282 A 8.6428571,8.6428571 0 0 0 65.359862,108.95282 L 51.374646,117.8525 A 7.2866927,7.2866927 118.7644 0 0 48,124 L 48,156 A 7,7 135 0 1 41,163 H 29 A 7,7 45 0 1 22,156 L 22,36 A 7,7 135 0 1 29,29 H 41 A 7,7 45 0 1 48,36 V 90 L 65.359862,78.952815 A 8.6428578,8.6428578 180 0 1 74.640138,78.952815 L 114.62535,104.39795 A 7.2866921,7.2866921 61.235594 0 1 118,110.54545 Z M 163,163 H 151 A 7,7 45 0 1 144,156 V 83 A 7,7 135 0 1 151,76 H 163 A 7,7 45 0 1 170,83 V 156 A 7,7 135 0 1 163,163 Z" />
    <circle cx="157" cy="42" r="13" />
  </g>
</svg>
