<svg xmlns="http://www.w3.org/2000/svg" xml:space="preserve" width="192" height="192" viewBox="0 0 192 192"><g style="fill:none;stroke:#000;stroke-width:12;stroke-linecap:round;stroke-linejoin:round"><path d="M118 110.545V156a7 7 135 0 1-7 7H99a7 7 45 0 1-7-7v-32a7.29 7.29 61.236 0 0-3.375-6.147l-13.985-8.9a8.64 8.64 0 0 0-9.28 0l-13.985 8.9A7.29 7.29 118.764 0 0 48 124v32a7 7 135 0 1-7 7H29a7 7 45 0 1-7-7V36a7 7 135 0 1 7-7h12a7 7 45 0 1 7 7v54l17.36-11.047a8.64 8.64 180 0 1 9.28 0l39.985 25.445a7.29 7.29 61.236 0 1 3.375 6.147M163 163h-12a7 7 45 0 1-7-7V83a7 7 135 0 1 7-7h12a7 7 45 0 1 7 7v73a7 7 135 0 1-7 7"/><circle cx="157" cy="42" r="13"/></g></svg>