<?xml version="1.0" encoding="UTF-8" standalone="no"?>
<!-- Created with Inkscape (http://www.inkscape.org/) -->

<svg
   width="192"
   height="192"
   viewBox="0 0 192 192"
   version="1.1"
   xml:space="preserve"
   xmlns="http://www.w3.org/2000/svg"
   xmlns:svg="http://www.w3.org/2000/svg">
  <g style="fill:none;stroke:#000;stroke-width:12;stroke-linecap:round;stroke-linejoin:round">
    <path
     d="M 74,78 114,109 A 9,9 0 0 1 118,116 V 159 A 8,8 0 0 1 110,167 H 99 A 8,8 0 0 1 92,159 V 127 A 9,9 0 0 0 88,121 L 74,110 A 7,7 0 0 0 66,110 L 52,121 A 9,9 0 0 0 48,127 V 159 A 8,8 0 0 1 40,167 H 30 A 8,8 0 0 1 22,159 V 44 A 8,8 0 0 1 30,36 H 40 A 8,8 0 0 1 48,44 V 92 L 66,78 A 7,7 0 0 1 74,78 Z
     M 162,167 H 152 A 8,8 0 0 1 144,159 V 93 A 8,8 0 0 1 152,85 H 162 A 8,8 0 0 1 170,93 V 159 A 8,8 0 0 1 162,167 Z" />
    <circle cx="157" cy="49" r="13" />
  </g>
</svg>
