<svg width="192" height="192" viewBox="0 0 192 192" fill="none" xmlns="http://www.w3.org/2000/svg"><path d="M151 22H91c-5.523 0-10 4.477-10 10v128c0 5.523 4.477 10 10 10h60c5.523 0 10-4.477 10-10V32c0-5.523-4.477-10-10-10Z" stroke="#000" stroke-width="12" stroke-linecap="round" stroke-linejoin="round"/><path d="M109 84h18a6 6 0 0 1 6 6v18h-18a6 6 0 0 1-6-6V84Zm0-8v8m-8 0h8m24 24v8m0-8h8" stroke="#000" stroke-width="10" stroke-linecap="round" stroke-linejoin="round"/><path d="M35 96c0 8-10 16-10 16l16 26s9.163-2.549 14 0c3.422 1.803 4.904 8.937 5.538 14.172.391 3.232 3.058 5.828 6.313 5.828H81M35 96c0-8-10-16-10-16l16-26s9.163 2.548 14 0c3.422-1.803 4.904-8.937 5.538-14.172C60.929 36.596 63.596 34 66.85 34H81" stroke="#000" stroke-width="12" stroke-linecap="round" stroke-linejoin="round"/></svg>