<svg width="192" height="192" xmlns="http://www.w3.org/2000/svg" fill="none">
 <title>ні</title>
 <g>
  <title>Layer 1</title>
  <path stroke="black" stroke-width="12" opacity="undefined" d="m16,60.5c0,-3.26027 2.73973,-6 6,-6l148,0c3.26027,0 6,2.73973 6,6l0,70.99999c0,3.26027 -2.73973,6 -6,6l-148,0c-3.26027,0 -6,-2.73973 -6,-6l0,-70.99999z" id="svg_1"/>
  <path d="m73.74843,81.49599c0,-0.80945 -0.52599,-1.21418 -1.57541,-1.21418l0,-1.21418l11.02786,0l0,1.21418c-0.34321,0.00321 -0.67381,0.12286 -0.93092,0.33727c-0.23819,0.17892 -0.35805,0.47218 -0.35805,0.87691l0,30.62436c0,0.40473 0.11986,0.72 0.35805,0.94436c0.28644,0.17892 0.5964,0.26982 0.93092,0.26982l0,1.21418l-11.02786,0l0,-1.21418c1.05078,0 1.57541,-0.40473 1.57541,-1.21418l0,-12.68017l-23.05826,0l0,12.68145c0,0.40473 0.11986,0.72 0.35805,0.94436c0.28644,0.17908 0.5964,0.26982 0.93092,0.26982l0,1.21418l-10.81303,0l0,-1.21418c0.9062,0 1.36058,-0.40473 1.36058,-1.21418l0,-30.62565c0,-0.80945 -0.45302,-1.21418 -1.36058,-1.21418l0,-1.21418l10.81303,0l0,1.21418c-0.34321,0.00321 -0.67381,0.12286 -0.93092,0.33727c-0.23819,0.17892 -0.35805,0.47218 -0.35805,0.87691l0,11.46727l23.05826,0l0,-11.46727l0,0l0,0.00001zm22.29408,31.83855c1.24208,0 1.86185,-0.40473 1.86185,-1.21418l0,-30.62436c0,-0.80945 -0.62113,-1.21418 -1.86185,-1.21418l0,-1.21418l11.88718,0l0,1.21418c-1.24225,0 -1.86185,0.40473 -1.86185,1.21418l0,30.62436c0,0.80945 0.61959,1.21418 1.86185,1.21418l0,1.21418l-11.88718,0l0,-1.21418zm43.82501,-1.21418c0,0.80945 0.52599,1.21418 1.57541,1.21418l0,1.21418l-11.02786,0l0,-1.21418c0.31099,0.00723 0.61499,-0.08817 0.85931,-0.26982c0.28644,-0.22437 0.42966,-0.53964 0.42966,-0.94436l0,-26.84562l-11.81557,0c-0.42966,0 -0.85931,0.11291 -1.28897,0.33727c-0.38158,0.22437 -0.57288,0.65254 -0.57288,1.28164l-1.28897,0l0,-9.44364l1.28897,0c0,0.62909 0.18994,1.05727 0.57288,1.28164c0.42966,0.22437 0.85931,0.33727 1.28897,0.33727l31.79461,0c0.42966,0 0.83579,-0.11291 1.21736,-0.33727c0.42966,-0.22437 0.64295,-0.65254 0.64295,-1.28164l1.29051,0l0,9.44364l-1.28897,0c0,-0.62909 -0.21483,-1.05727 -0.64449,-1.28164c-0.36333,-0.21971 -0.78583,-0.33679 -1.21736,-0.33727l-11.81557,0l0,26.84691l0,-0.00128l0.00001,-0.00001z" fill="#000000" id="svg_2" stroke-width="3" stroke="#000000"/>
 </g>

</svg>