<?xml version="1.0" encoding="UTF-8" standalone="no"?>
<!-- Created with Inkscape (http://www.inkscape.org/) -->

<svg
   width="192"
   height="192"
   viewBox="0 0 192 192"
   version="1.1"
   id="svg5"
   xml:space="preserve"
   sodipodi:docname="hj_lite.svg"
   inkscape:version="1.3 (0e150ed6c4, 2023-07-21)"
   xmlns:inkscape="http://www.inkscape.org/namespaces/inkscape"
   xmlns:sodipodi="http://sodipodi.sourceforge.net/DTD/sodipodi-0.dtd"
   xmlns="http://www.w3.org/2000/svg"
   xmlns:svg="http://www.w3.org/2000/svg"><sodipodi:namedview
     id="namedview1"
     pagecolor="#505050"
     bordercolor="#ffffff"
     borderopacity="1"
     inkscape:showpageshadow="0"
     inkscape:pageopacity="0"
     inkscape:pagecheckerboard="1"
     inkscape:deskcolor="#d1d1d1"
     inkscape:zoom="4"
     inkscape:cx="97.125"
     inkscape:cy="94.25"
     inkscape:window-width="1890"
     inkscape:window-height="1026"
     inkscape:window-x="12"
     inkscape:window-y="36"
     inkscape:window-maximized="1"
     inkscape:current-layer="svg5" /><defs
     id="defs2"><rect
       x="176"
       y="102.04328"
       width="72.761158"
       height="65.956715"
       id="rect9" /></defs><g
     id="layer1"
     style="display:inline"><path
       id="path28"
       style="display:inline;fill:none;fill-opacity:0.999846;stroke:#000000;stroke-width:10;stroke-linecap:round;stroke-linejoin:round;stroke-miterlimit:6;stroke-dasharray:none"
       d="m 155.89476,20.935221 c -2.12338,7.860941 -4.31931,16.796614 -6.6021,27.019385 -5.85505,-7.152715 -18.27996,-8.62826 -22.7128,-6.969849 2.48687,-5.673535 5.65717,-19.984757 10.63246,-19.9831 m -26.54371,-0.02837 C 104.11178,34.499119 98.312499,67.639208 91.233953,93.687093 81.228441,88.858088 79.015419,87.733637 70.128776,86.565111 76.304169,66.589832 83.165611,44.775326 88.891596,21.012231 M 28.84939,21 H 163.15061 C 167.49917,21 171,24.500828 171,28.84939 v 134.30124 c 0,4.34856 -3.50083,7.84939 -7.84939,7.84939 H 28.84939 C 24.500828,171.00002 21,167.49919 21,163.15063 V 28.84939 C 21,24.500828 24.500828,21 28.84939,21 Z m 51.702545,150.01 c 2.627974,-8.61423 9.977469,-29.02089 9.977469,-29.02089 v 0 c 0,0 12.215966,0.26248 18.401826,8.17347 -3.53812,5.1032 -5.72841,12.30955 -9.684044,20.79536 m -59.511652,0.0487 c 7.000886,-21.27358 23.936221,-46.31354 23.48891,-69.48237 v 0 c 8.673909,0.35537 17.996596,-0.34415 24.18246,7.56685 -3.923295,12.3553 0.991214,-2.21715 -26.721972,61.90859 M 121.57952,55.081014 c 9.60733,-0.767652 15.92893,0.939788 22.20926,6.072785 -5.37597,14.986026 -13.73555,31.42379 -28.77751,75.838931 C 107.9682,130.52937 99.676363,128.3924 95.535088,127.47229 106.89903,104.4322 113.39523,79.538181 121.57952,55.081014 Z"
       sodipodi:nodetypes="ccccccccssssssssscsscccccccccccc" /><path
       style="display:inline;fill:none;fill-opacity:0.999846;stroke:#000000;stroke-width:6;stroke-linecap:round;stroke-linejoin:round;stroke-miterlimit:6;stroke-dasharray:none"
       d="M 72.841004,20.982048 C 45.042366,63.060705 30.203559,105.94848 22.774391,149.29886"
       id="path29" /><path
       style="display:inline;fill:none;fill-opacity:0.999846;stroke:#000000;stroke-width:6;stroke-linecap:round;stroke-linejoin:round;stroke-miterlimit:6;stroke-dasharray:none"
       d="M 20.119293,49.366082 C 38.476147,72.774449 48.880181,92.835184 46.108429,120.70704"
       id="path30" /><path
       style="display:inline;fill:none;fill-opacity:0.999846;stroke:#000000;stroke-width:6;stroke-linecap:round;stroke-linejoin:round;stroke-miterlimit:6;stroke-dasharray:none"
       d="m 128.25846,119.6613 c 24.18762,7.44373 33.67578,22.52381 42.49348,33.59168"
       id="path32" /><path
       style="display:inline;fill:none;fill-opacity:0.999846;stroke:#000000;stroke-width:6;stroke-linecap:round;stroke-linejoin:round;stroke-miterlimit:6;stroke-dasharray:none"
       d="m 147.05283,114.32114 c 10.68675,-10.02892 16.5631,-14.02394 21.99688,-14.691348"
       id="path33" /><path
       style="display:inline;fill:none;fill-opacity:0.999846;stroke:#000000;stroke-width:6;stroke-linecap:round;stroke-linejoin:round;stroke-miterlimit:6;stroke-dasharray:none"
       d="M 24.86832,143.34106 C 64.168599,112.96604 116.5485,114.89218 168.70878,126.1566"
       id="path34" /><path
       style="display:inline;fill:none;fill-opacity:0.999846;stroke:#000000;stroke-width:6;stroke-linecap:round;stroke-linejoin:round;stroke-miterlimit:6;stroke-dasharray:none"
       d="m 55.946557,23.100296 22.4496,30.02887"
       id="path35" /></g></svg>
