<svg xmlns="http://www.w3.org/2000/svg" width="192" height="192" fill="none"><path stroke="#000" stroke-linecap="round" stroke-linejoin="round" stroke-width="12" d="M102 72H90a6 6 0 0 0-6 6v12a6 6 0 0 1-6 6H66a6 6 0 0 0-6 6v12a6 6 0 0 0 6 6h12a6 6 0 0 1 6 6v12a6 6 0 0 0 6 6h12a6 6 0 0 0 6-6v-12a6 6 0 0 1 6-6h12a6 6 0 0 0 6-6v-12a6 6 0 0 0-6-6h-12a6 6 0 0 1-6-6V78a6 6 0 0 0-6-6"/><path stroke="#000" stroke-linecap="round" stroke-linejoin="round" stroke-width="12" d="M156 110a60 60 0 0 1-17.574 42.426 59.99 59.99 0 0 1-65.387 13.007A60.01 60.01 0 0 1 36 110m120 0c0-46-50-70-60-88-10 18-60 42-60 88"/></svg>