<svg width="192" height="192" fill="none" xmlns="http://www.w3.org/2000/svg"><path d="M102 72H90a6 6 0 0 0-6 6v12a6 6 0 0 1-6 6H66a6 6 0 0 0-6 6v12a6 6 0 0 0 6 6h12a6 6 0 0 1 6 6v12a6 6 0 0 0 6 6h12a6 6 0 0 0 6-6v-12a6 6 0 0 1 6-6h12a6 6 0 0 0 6-6v-12a6 6 0 0 0-6-6h-12a6 6 0 0 1-6-6V78a6 6 0 0 0-6-6Z" stroke="#000" stroke-width="12" stroke-linecap="round" stroke-linejoin="round"/><path d="M156 110a60.008 60.008 0 0 1-17.574 42.426 59.993 59.993 0 0 1-65.387 13.007A60.006 60.006 0 0 1 36 110m120 0c0-46-50-70-60-88-10 18-60 42-60 88" stroke="#000" stroke-width="12" stroke-linecap="round" stroke-linejoin="round"/></svg>