<svg xmlns="http://www.w3.org/2000/svg" xmlns:xlink="http://www.w3.org/1999/xlink" width="192" height="192" viewBox="0 0 192 192" fill="none"><defs><rect id="path_0" x="0" y="0" width="192" height="192" /><rect id="path_1" x="0" y="0" width="160" height="160" /></defs><g opacity="1" transform="translate(0 0)  rotate(0 96 96)"><mask id="bg-mask-0" fill="white"><use xlink:href="#path_0"/></mask><g mask="url(#bg-mask-0)" ><g opacity="1" transform="translate(16 16)  rotate(0 80 80)"><mask id="bg-mask-1" fill="white"><use xlink:href="#path_1"/></mask><g mask="url(#bg-mask-1)" ><path id="分组 1" fill-rule="evenodd" style="fill:#000000" transform="translate(38.310057591990216 2.667233280923616)  rotate(0 57.94788360595703 60.207477109538196)" opacity="1" d="M55.32 36.34C48.82 30.36 41.11 28.8 34.28 35.05C23.86 44.56 13.67 54.45 4.47 65.11C-1.72 72.29 -1.61 80.85 5.62 88.19C14.24 96.92 22.74 105.78 31.55 114.3C39.09 121.6 47.23 121.45 55.07 114.13C61.31 108.3 67.67 102.52 73.36 96.16C78.24 90.7 82.46 90.43 87.05 95.94C93.44 103.62 99.72 111.37 107.12 120.41C118.78 102.48 118.55 99.69 108.04 88.87C95.55 76.03 95.55 76.03 108.07 62.77C108.58 62.23 109.03 61.62 109.6 61.16C117.36 54.85 117.12 47.73 112.78 39.36C101.45 17.51 82.54 6.35 59.64 0.64C51.11 -1.49 47.43 1.65 47.8 10.94C48.09 18.12 52.43 19.47 57.64 20.69C70.76 23.74 81.52 30.22 89.86 41.08C95.26 48.12 90.48 51.53 86.33 55.95C81.73 60.85 78.31 59.39 74.32 55.18C68.2 48.7 61.89 42.37 55.32 36.34Z M43.7113 56.788C36.2514 57.858 30.2913 69.388 23.6813 76.408C30.5813 82.678 37.5113 93.898 44.3614 93.838C51.3413 93.788 58.2313 82.648 66.6313 75.028L66.6313 75.028C57.7413 67.468 49.8313 55.908 43.7113 56.788Z " /><path id="路径 3" fill-rule="evenodd" style="fill:#000000" transform="translate(5.329991332805616 4.853191313170533)  rotate(0 67.25375433359719 75.27756886604149)" opacity="1" d="M0.85,60.15C-3.56,96.53 9.25,123.81 38.57,140.4C70.45,158.46 112.73,151.9 134.51,124.94C130.39,120.87 126.21,116.73 121.17,111.76L121.17,111.76C118.21,114.22 116.25,115.85 114.28,117.46C90.73,136.81 57.86,135.34 36.25,113.98C15.55,93.51 13.42,59.77 33.38,37.25C40.6,29.11 51.69,23.63 61.99,19.21C71.24,15.25 68.89,8.63 68,2.65C67.78,1.24 60.25,-0.66 56.72,0.23C26.73,7.75 4.24,32.22 0.85,60.15Z " /></g></g></g></g></svg>
