<?xml version="1.0" encoding="UTF-8" standalone="no"?>
<svg
   viewBox="0 0 64 64"
   width="24px"
   height="24px"
   version="1.1"
   id="svg16"
   sodipodi:docname="clash_of_clans.svg"
   inkscape:version="1.1.1 (3bf5ae0d25, 2021-09-20)"
   xmlns:inkscape="http://www.inkscape.org/namespaces/inkscape"
   xmlns:sodipodi="http://sodipodi.sourceforge.net/DTD/sodipodi-0.dtd"
   xmlns="http://www.w3.org/2000/svg"
   xmlns:svg="http://www.w3.org/2000/svg">
  <defs
     id="defs20">
    <inkscape:path-effect
       effect="simplify"
       id="path-effect8885"
       is_visible="true"
       lpeversion="1"
       steps="1"
       threshold="0.00961538"
       smooth_angles="360"
       helper_size="0"
       simplify_individual_paths="false"
       simplify_just_coalesce="false" />
    <inkscape:path-effect
       effect="simplify"
       id="path-effect8881"
       is_visible="true"
       lpeversion="1"
       steps="1"
       threshold="0.00961538"
       smooth_angles="360"
       helper_size="0"
       simplify_individual_paths="false"
       simplify_just_coalesce="false" />
    <inkscape:path-effect
       effect="simplify"
       id="path-effect8877"
       is_visible="true"
       lpeversion="1"
       steps="1"
       threshold="0.00961538"
       smooth_angles="360"
       helper_size="0"
       simplify_individual_paths="false"
       simplify_just_coalesce="false" />
    <inkscape:path-effect
       effect="simplify"
       id="path-effect8873"
       is_visible="true"
       lpeversion="1"
       steps="1"
       threshold="0.00961538"
       smooth_angles="360"
       helper_size="0"
       simplify_individual_paths="false"
       simplify_just_coalesce="false" />
    <inkscape:path-effect
       effect="simplify"
       id="path-effect8869"
       is_visible="true"
       lpeversion="1"
       steps="1"
       threshold="0.0277778"
       smooth_angles="360"
       helper_size="0"
       simplify_individual_paths="false"
       simplify_just_coalesce="false" />
    <inkscape:path-effect
       effect="simplify"
       id="path-effect8865"
       is_visible="true"
       lpeversion="1"
       steps="1"
       threshold="0.0277778"
       smooth_angles="360"
       helper_size="0"
       simplify_individual_paths="false"
       simplify_just_coalesce="false" />
    <inkscape:path-effect
       effect="simplify"
       id="path-effect8861"
       is_visible="true"
       lpeversion="1"
       steps="1"
       threshold="0.0277778"
       smooth_angles="360"
       helper_size="0"
       simplify_individual_paths="false"
       simplify_just_coalesce="false" />
    <inkscape:path-effect
       effect="simplify"
       id="path-effect8857"
       is_visible="true"
       lpeversion="1"
       steps="1"
       threshold="0.0277778"
       smooth_angles="360"
       helper_size="0"
       simplify_individual_paths="false"
       simplify_just_coalesce="false" />
    <inkscape:path-effect
       effect="skeletal"
       id="path-effect8624"
       is_visible="true"
       lpeversion="1"
       pattern="M 0,50.314465 C 0,22.540881 22.540881,0 50.314465,0 78.08805,0 100.62893,22.540881 100.62893,50.314465 c 0,27.773585 -22.54088,50.314465 -50.314465,50.314465 C 22.540881,100.62893 0,78.08805 0,50.314465 Z"
       copytype="single_stretched"
       prop_scale="1"
       scale_y_rel="false"
       spacing="0"
       normal_offset="0"
       tang_offset="0"
       prop_units="false"
       vertical_pattern="false"
       hide_knot="false"
       fuse_tolerance="0" />
    <inkscape:path-effect
       effect="skeletal"
       id="path-effect8620"
       is_visible="true"
       lpeversion="1"
       pattern="M 0,50.314465 C 0,22.540881 22.540881,0 50.314465,0 78.08805,0 100.62893,22.540881 100.62893,50.314465 c 0,27.773585 -22.54088,50.314465 -50.314465,50.314465 C 22.540881,100.62893 0,78.08805 0,50.314465 Z"
       copytype="single_stretched"
       prop_scale="1"
       scale_y_rel="false"
       spacing="0"
       normal_offset="0"
       tang_offset="0"
       prop_units="false"
       vertical_pattern="false"
       hide_knot="false"
       fuse_tolerance="0" />
    <inkscape:path-effect
       effect="skeletal"
       id="path-effect8616"
       is_visible="true"
       lpeversion="1"
       pattern="M 0,50.314465 C 0,22.540881 22.540881,0 50.314465,0 78.08805,0 100.62893,22.540881 100.62893,50.314465 c 0,27.773585 -22.54088,50.314465 -50.314465,50.314465 C 22.540881,100.62893 0,78.08805 0,50.314465 Z"
       copytype="single_stretched"
       prop_scale="1"
       scale_y_rel="false"
       spacing="0"
       normal_offset="0"
       tang_offset="0"
       prop_units="false"
       vertical_pattern="false"
       hide_knot="false"
       fuse_tolerance="0" />
    <inkscape:path-effect
       effect="skeletal"
       id="path-effect8612"
       is_visible="true"
       lpeversion="1"
       pattern="M 0,50.314465 C 0,22.540881 22.540881,0 50.314465,0 78.08805,0 100.62893,22.540881 100.62893,50.314465 c 0,27.773585 -22.54088,50.314465 -50.314465,50.314465 C 22.540881,100.62893 0,78.08805 0,50.314465 Z"
       copytype="single_stretched"
       prop_scale="1"
       scale_y_rel="false"
       spacing="0"
       normal_offset="0"
       tang_offset="0"
       prop_units="false"
       vertical_pattern="false"
       hide_knot="false"
       fuse_tolerance="0" />
    <inkscape:path-effect
       effect="skeletal"
       id="path-effect8608"
       is_visible="true"
       lpeversion="1"
       pattern="M 0,50.314465 C 0,22.540881 22.540881,0 50.314465,0 78.08805,0 100.62893,22.540881 100.62893,50.314465 c 0,27.773585 -22.54088,50.314465 -50.314465,50.314465 C 22.540881,100.62893 0,78.08805 0,50.314465 Z"
       copytype="single_stretched"
       prop_scale="1"
       scale_y_rel="false"
       spacing="0"
       normal_offset="0"
       tang_offset="0"
       prop_units="false"
       vertical_pattern="false"
       hide_knot="false"
       fuse_tolerance="0" />
    <inkscape:path-effect
       effect="skeletal"
       id="path-effect8604"
       is_visible="true"
       lpeversion="1"
       pattern="M 0,50.314465 C 0,22.540881 22.540881,0 50.314465,0 78.08805,0 100.62893,22.540881 100.62893,50.314465 c 0,27.773585 -22.54088,50.314465 -50.314465,50.314465 C 22.540881,100.62893 0,78.08805 0,50.314465 Z"
       copytype="single_stretched"
       prop_scale="1"
       scale_y_rel="false"
       spacing="0"
       normal_offset="0"
       tang_offset="0"
       prop_units="false"
       vertical_pattern="false"
       hide_knot="false"
       fuse_tolerance="0" />
    <inkscape:path-effect
       effect="skeletal"
       id="path-effect8600"
       is_visible="true"
       lpeversion="1"
       pattern="M 0,50.314465 C 0,22.540881 22.540881,0 50.314465,0 78.08805,0 100.62893,22.540881 100.62893,50.314465 c 0,27.773585 -22.54088,50.314465 -50.314465,50.314465 C 22.540881,100.62893 0,78.08805 0,50.314465 Z"
       copytype="single_stretched"
       prop_scale="1"
       scale_y_rel="false"
       spacing="0"
       normal_offset="0"
       tang_offset="0"
       prop_units="false"
       vertical_pattern="false"
       hide_knot="false"
       fuse_tolerance="0" />
    <inkscape:path-effect
       effect="skeletal"
       id="path-effect8596"
       is_visible="true"
       lpeversion="1"
       pattern="M 0,50.314465 C 0,22.540881 22.540881,0 50.314465,0 78.08805,0 100.62893,22.540881 100.62893,50.314465 c 0,27.773585 -22.54088,50.314465 -50.314465,50.314465 C 22.540881,100.62893 0,78.08805 0,50.314465 Z"
       copytype="single_stretched"
       prop_scale="1"
       scale_y_rel="false"
       spacing="0"
       normal_offset="0"
       tang_offset="0"
       prop_units="false"
       vertical_pattern="false"
       hide_knot="false"
       fuse_tolerance="0" />
    <inkscape:path-effect
       effect="skeletal"
       id="path-effect8592"
       is_visible="true"
       lpeversion="1"
       pattern="M 0,50.314465 C 0,22.540881 22.540881,0 50.314465,0 78.08805,0 100.62893,22.540881 100.62893,50.314465 c 0,27.773585 -22.54088,50.314465 -50.314465,50.314465 C 22.540881,100.62893 0,78.08805 0,50.314465 Z"
       copytype="single_stretched"
       prop_scale="1"
       scale_y_rel="false"
       spacing="0"
       normal_offset="0"
       tang_offset="0"
       prop_units="false"
       vertical_pattern="false"
       hide_knot="false"
       fuse_tolerance="0" />
    <inkscape:path-effect
       effect="skeletal"
       id="path-effect8588"
       is_visible="true"
       lpeversion="1"
       pattern="M 0,50.314465 C 0,22.540881 22.540881,0 50.314465,0 78.08805,0 100.62893,22.540881 100.62893,50.314465 c 0,27.773585 -22.54088,50.314465 -50.314465,50.314465 C 22.540881,100.62893 0,78.08805 0,50.314465 Z"
       copytype="single_stretched"
       prop_scale="1"
       scale_y_rel="false"
       spacing="0"
       normal_offset="0"
       tang_offset="0"
       prop_units="false"
       vertical_pattern="false"
       hide_knot="false"
       fuse_tolerance="0" />
    <clipPath
       id="clip1">
      <path
         d="m 39,86 h 66 v 28.53125 H 39 Z m 0,0"
         id="path2" />
    </clipPath>
    <clipPath
       id="a">
      <path
         clip-rule="evenodd"
         d="m 361.877,168.601 c -0.08,0.093 -0.134,0.187 -0.147,0.307 0,24.643 0,49.28 -0.013,73.929 0.2,1.31 0.922,2.507 1.891,3.402 0.04,0.014 0.134,0.034 0.174,0.047 0.501,0.522 1.21,0.776 1.878,1.016 0.234,-0.007 0.461,0.034 0.688,0.074 0.261,0.046 0.528,0.093 0.789,0.067 h 39.748 c 0.274,0.006 0.555,0.013 0.822,-0.101 0.021,-0.053 0.027,-0.14 0.041,-0.2 0.013,-0.06 0.033,-0.214 0.046,-0.294 0.843,-4.719 1.658,-9.458 2.56,-14.183 0.027,-0.201 0.054,-0.401 0.08,-0.602 -3.649,-0.02 -7.312,0 -10.961,-0.02 -0.882,-0.02 -1.798,0 -2.687,-0.1 -1.51,-0.074 -3.041,-0.02 -4.558,-0.161 -1.878,0 -3.743,-0.173 -5.621,-0.173 -1.477,-0.154 -2.968,-0.101 -4.452,-0.167 -0.969,-0.121 -1.965,-0.061 -2.94,-0.107 -1.598,-0.174 -3.222,-0.054 -4.813,-0.228 -1.697,0.02 -3.388,-0.133 -5.079,-0.173 0.02,-0.014 0.033,-0.067 0.033,-0.081 0.555,0.014 1.11,-0.026 1.678,-0.04 1.243,-0.16 2.506,-0.053 3.749,-0.227 1.304,0 2.594,-0.174 3.897,-0.174 1.15,-0.16 2.319,-0.067 3.475,-0.234 1.351,0 2.681,-0.173 4.037,-0.18 1.11,-0.147 2.24,-0.067 3.356,-0.214 0.635,0.007 1.276,-0.033 1.911,-0.087 0.655,-0.047 1.31,-0.093 1.972,-0.087 1.277,-0.153 2.58,-0.107 3.85,-0.247 -0.114,-0.495 -0.207,-0.989 -0.314,-1.484 -0.101,-0.314 -0.475,-0.24 -0.715,-0.287 -2.908,-0.415 -5.809,-0.829 -8.709,-1.23 0.127,-0.1 0.294,-0.1 0.461,-0.1 0.06,0 0.127,0.006 0.194,-0.007 2.259,-0.174 4.498,-0.381 6.75,-0.535 0.515,-0.033 1.009,-0.12 1.517,-0.14 -0.22,-0.695 -0.361,-1.464 -0.668,-2.105 -4.819,-0.736 -9.638,-1.397 -14.437,-2.186 1.243,-0.201 2.506,-0.294 3.756,-0.434 l 0.107,-0.034 c 3.991,-0.421 7.981,-0.889 11.971,-1.276 5.06,-0.027 10.099,-0.014 15.159,0 0.04,-0.007 0.087,-0.007 0.14,-0.007 0.154,0 0.308,0 0.328,-0.167 0.414,-2.179 0.815,-4.351 1.236,-6.524 0.575,-3.014 1.491,-5.995 2.894,-8.749 2.219,-4.424 5.715,-8.181 9.986,-10.674 3.983,-2.339 8.595,-3.462 13.187,-3.676 1.49,-0.133 2.994,-0.1 4.471,0.094 0.963,0.22 1.959,0.494 2.727,1.149 0.628,0.508 1.003,1.264 1.283,2.012 0.622,1.792 0.963,3.636 1.264,5.501 0.013,0.755 0.147,1.597 -0.261,2.286 -0.368,0.668 -1.123,0.996 -1.831,1.19 -2.594,0.675 -5.301,0.046 -7.894,0.675 -2.132,0.454 -4.117,1.637 -5.474,3.335 -1.591,1.985 -2.439,4.451 -2.907,6.924 -0.368,2.206 -0.822,4.398 -1.183,6.617 1.129,0.007 2.265,0 3.402,0 1.423,0 2.847,0 4.271,0.014 1.022,0 2.065,0.561 2.479,1.53 0.535,1.23 0.415,2.627 0.241,3.93 -0.207,1.464 -0.555,2.908 -1.217,4.251 -0.548,1.143 -1.463,2.186 -2.706,2.593 -0.649,0.254 -1.344,0.194 -2.032,0.194 -2.253,0 -4.505,0.034 -6.758,0 -0.361,1.658 -0.601,3.349 -0.929,5.026 -0.588,3.262 -1.169,6.53 -1.757,9.805 -0.014,0.107 -0.027,0.335 -0.027,0.455 0.615,0.04 1.23,0.033 1.844,0.027 0.448,-0.007 0.889,-0.007 1.337,0 7.86,0 15.734,-0.014 23.614,0 0.842,0.026 1.704,-0.174 2.446,-0.589 0.435,-0.167 0.709,-0.548 1.09,-0.768 0.381,-0.214 0.488,-0.655 0.808,-0.936 0.348,-0.621 0.709,-1.263 0.742,-1.985 0.04,0 0.141,-0.013 0.194,-0.027 -0.033,-24.69 0,-49.379 -0.02,-74.062 -0.04,-0.134 -0.087,-0.268 -0.134,-0.401 -31.781,0.013 -63.555,0 -95.33,0.013"
         id="path2-0" />
    </clipPath>
    <clipPath
       id="b">
      <path
         clip-rule="evenodd"
         d="M 97.374,152.52 H 457.428 V 260.797 H 97.374 Z"
         id="path5" />
    </clipPath>
    <clipPath
       id="c">
      <path
         clip-rule="evenodd"
         d="m 375.191,152.76 c -0.301,0.007 -0.582,0.154 -0.876,0.228 -1.717,0.655 -3.448,1.283 -5.166,1.938 -0.227,0.047 -0.348,0.241 -0.468,0.414 0.013,0.114 0.027,0.301 0.027,0.408 1.183,0.501 2.446,0.775 3.636,1.263 0.641,0.254 0.849,0.949 1.123,1.517 l 0.1,0.087 c 0.093,0.702 0.02,1.417 0.053,2.112 -0.046,2.086 0.04,4.198 -0.053,6.29 -3.91,0 -7.813,-0.027 -11.717,0 -0.067,0.24 0.054,0.441 0.308,0.374 1.604,-0.007 3.221,-0.007 4.825,0 2.6,0 5.2,0.007 7.8,-0.04 6.27,0 12.519,0.02 18.788,0 l 0.087,-0.04 c 0.288,0.067 0.568,0.04 0.862,0.04 11.349,0 22.705,0.02 34.068,0 3.569,0.02 7.151,0 10.727,0 5.908,0 11.824,0.053 17.732,0.027 0.174,-0.04 0.227,-0.161 0.16,-0.375 -1.737,0.007 -3.468,0.007 -5.2,0.007 -2.165,0 -4.331,0 -6.496,0.007 -0.074,-0.542 -0.034,-1.076 -0.047,-1.598 0,-2.145 -0.027,-4.297 -0.013,-6.436 0,-0.174 0.04,-0.328 0.133,-0.468 0.288,-0.568 0.495,-1.25 1.137,-1.504 1.203,-0.468 2.446,-0.795 3.642,-1.263 0.04,-0.274 0.02,-0.581 -0.22,-0.755 -1.604,-0.575 -3.202,-1.19 -4.799,-1.785 -0.495,-0.24 -1.043,-0.374 -1.578,-0.448 z m 52.327,8.916 c -0.795,-0.902 -0.849,-2.372 -0.053,-3.268 0.608,-0.688 1.59,-1.076 2.506,-0.835 0.682,0.2 1.35,0.641 1.651,1.316 0.588,1.15 0.127,2.707 -1.023,3.309 -0.367,0.207 -0.768,0.301 -1.169,0.301 -0.715,0 -1.417,-0.301 -1.912,-0.823 m -38.371,0.789 c -0.595,-0.2 -1.157,-0.501 -1.518,-1.029 -0.474,-0.709 -0.581,-1.664 -0.207,-2.44 0.274,-0.755 0.996,-1.263 1.758,-1.437 1.477,-0.347 3.128,0.969 3.008,2.507 0.013,1.343 -1.237,2.459 -2.533,2.459 -0.174,0 -0.341,-0.02 -0.508,-0.06"
         id="path8" />
    </clipPath>
    <clipPath
       id="d">
      <path
         clip-rule="evenodd"
         d="M 97.374,152.52 H 457.428 V 260.797 H 97.374 Z"
         id="path11" />
    </clipPath>
    <clipPath
       id="e">
      <path
         clip-rule="evenodd"
         d="m 430.586,171.589 c -0.221,0.066 -0.381,0.147 -0.454,0.133 -0.228,0.054 0.935,1.217 0.748,1.183 l 0.174,0.903 c 0.027,0.668 0.421,0.782 0.301,1.437 0.2,0.006 0.528,-0.174 0.681,-0.295 0.261,-0.274 0.602,-0.608 0.736,-1.142 0.113,-0.448 0.354,-1.658 -0.629,-2.166 -0.287,-0.154 -0.561,-0.207 -0.808,-0.207 -0.295,0 -0.548,0.073 -0.749,0.154"
         id="path14" />
    </clipPath>
    <clipPath
       id="f">
      <path
         clip-rule="evenodd"
         d="m 386.901,171.462 c -0.983,0.514 -0.742,1.717 -0.628,2.165 0.133,0.535 0.468,0.869 0.742,1.143 0.153,0.12 0.481,0.307 0.681,0.294 -0.12,-0.655 0.268,-0.769 0.294,-1.437 l 0.174,-0.902 c -0.187,0.04 0.983,-1.123 0.749,-1.177 -0.074,0.014 -0.241,-0.066 -0.455,-0.147 -0.2,-0.073 -0.454,-0.147 -0.748,-0.147 -0.248,0 -0.522,0.054 -0.809,0.208"
         id="path17" />
    </clipPath>
  </defs>
  <sodipodi:namedview
     id="namedview18"
     pagecolor="#ffffff"
     bordercolor="#666666"
     borderopacity="1.0"
     inkscape:pageshadow="2"
     inkscape:pageopacity="0.0"
     inkscape:pagecheckerboard="0"
     showgrid="false"
     inkscape:zoom="11.313709"
     inkscape:cx="17.456699"
     inkscape:cy="14.18633"
     inkscape:window-width="1920"
     inkscape:window-height="1009"
     inkscape:window-x="-8"
     inkscape:window-y="-8"
     inkscape:window-maximized="1"
     inkscape:current-layer="svg16"
     showguides="false" />
  <linearGradient
     id="AQp1CkUOovhRSREXJZOJma"
     x1="32.005"
     x2="32.005"
     y1="17"
     y2="53"
     gradientUnits="userSpaceOnUse"
     spreadMethod="reflect">
    <stop
       offset="0"
       stop-color="#1a6dff"
       id="stop2" />
    <stop
       offset="1"
       stop-color="#c822ff"
       id="stop4" />
  </linearGradient>
  <linearGradient
     id="AQp1CkUOovhRSREXJZOJmb"
     x1="29.93"
     x2="29.93"
     y1="19"
     y2="41.8"
     gradientUnits="userSpaceOnUse"
     spreadMethod="reflect">
    <stop
       offset="0"
       stop-color="#6dc7ff"
       id="stop9" />
    <stop
       offset="1"
       stop-color="#e6abff"
       id="stop11" />
  </linearGradient>
  <path
     id="path24141"
     style="color:#000000;fill:#000000;stroke-width:2.66667px;-inkscape-stroke:none"
     d="m 40.384006,5.3453634 c -0.95455,-0.0252 -1.61176,-0.0326 -2.08648,0.20643 -0.23736,0.11952 -0.42016,0.31252 -0.52902,0.56823 -0.10885,0.25571 -0.15271,0.56846 -0.15685,0.96185 l -0.23159,21.9575596 c -1.43729,0.29537 -2.90634,0.56398 -4.40749,0.77318 -1.76113,0.24543 -3.50224,0.40311 -5.21693,0.52532 l -2.80934,-16.44468 c -0.0506,-0.29629 -0.11729,-0.53888 -0.24046,-0.73841 -0.12317,-0.19952 -0.3099,-0.34582 -0.54678,-0.42617 -0.23688,-0.0804 -0.52168,-0.10864 -0.88416,-0.10284 -0.36249,0.006 -0.80233,0.0459 -1.35103,0.10284 -1.10242,0.11445 -1.77216,0.25091 -2.19154,0.56305 -0.20969,0.15607 -0.34655,0.36405 -0.41212,0.60375 -0.0652,0.23848 -0.0674,0.50467 -0.04,0.81239 v 0.002 c 5e-5,5.7e-4 -5e-5,0.002 0,0.002 8e-4,0.0111 0.39776,5.89215 1.92444,15.87423 -6.35682,0.0246 -11.02872,-0.51718 -11.02872,-0.51718 a 1.0417579,1.0417579 0 0 0 -1.1579203,0.9108 1.0417579,1.0417579 0 0 0 0.91079,1.15792 c 0,0 4.9248303,0.5749 11.5991803,0.52902 0.0382,0.23882 0.0678,0.4481 0.10728,0.69105 1.90076,11.70736 3.27251,16.12357 3.27251,16.12357 l 0.004,0.0163 0.008,0.0148 c 0.15448,0.29983 0.32698,0.52715 0.54234,0.67995 0.21535,0.15281 0.46905,0.2214 0.74802,0.22049 0.55794,-0.002 1.23039,-0.24974 2.19376,-0.62299 0.96654,-0.37447 1.57864,-0.65186 1.9311,-1.09799 0.35245,-0.44612 0.38054,-1.02203 0.2375,-1.85933 l -2.46456,-14.42849 c 1.69236,-0.12503 3.41151,-0.28575 5.15182,-0.52828 1.39036,-0.19376 2.76186,-0.43032 4.09749,-0.69623 l -0.10581,10.04542 c -0.003,0.28413 0.0564,0.52716 0.18645,0.72286 0.13003,0.19571 0.32345,0.33446 0.55714,0.4358 0.46736,0.20267 1.10854,0.28049 1.94811,0.39583 0.83957,0.11535 1.55871,0.22629 2.13013,0.11691 0.28571,-0.0547 0.54067,-0.17223 0.72509,-0.38326 0.18442,-0.21104 0.28904,-0.50201 0.31815,-0.87233 10e-4,-0.0131 0.46543,-4.31573 0.66294,-12.02091 6.1853,-1.73197 10.58257,-3.62176 10.58257,-3.62176 a 1.0417579,1.0417579 0 0 0 0.5416,-1.37027 1.0417579,1.0417579 0 0 0 -0.57341,-0.55417 1.0417579,1.0417579 0 0 0 -0.79686,0.0126 c 0,0 -4.0052,1.72304 -9.70433,3.36056 0.0248,-1.46152 0.0414,-3.00215 0.0414,-4.66793 0,-6.48313 -0.54666,-16.0772896 -0.54677,-16.0791796 -0.0154,-0.30117 -0.0825,-0.54988 -0.22197,-0.74654 -0.13944,-0.19667 -0.34588,-0.32729 -0.59339,-0.4099 -0.49501,-0.16521 -1.17401,-0.17319 -2.12494,-0.19829 z m -1.36657,40.5730696 c -0.0713,-10e-4 -0.14212,9.8e-4 -0.21161,0.007 -0.27795,0.0227 -0.54773,0.11326 -0.75764,0.31667 -0.20992,0.2034 -0.35042,0.50619 -0.4173,0.91893 l -0.58599,3.61582 c -0.0722,0.44593 -0.0532,0.79889 0.054,1.08319 0.1072,0.2843 0.30632,0.48905 0.54455,0.62668 0.47646,0.27528 1.10203,0.32686 1.72985,0.44911 0.62901,0.12249 1.25303,0.30803 1.8031,0.22789 0.27504,-0.0401 0.53679,-0.15948 0.72953,-0.39066 0.19274,-0.23118 0.31421,-0.55823 0.3692,-1.00476 l 0.41804,-3.39904 c 0.10371,-0.84214 -0.12543,-1.37456 -0.55196,-1.67361 -0.42652,-0.29906 -0.99164,-0.38337 -1.57891,-0.50387 -0.50762,-0.10415 -1.04581,-0.26486 -1.54488,-0.27301 z m -8.58637,5.53434 c -0.52252,0.004 -1.12369,0.21061 -1.77646,0.41433 -0.65678,0.20497 -1.22102,0.38451 -1.60555,0.70881 -0.19226,0.16215 -0.33741,0.36815 -0.39954,0.61854 -0.0621,0.2504 -0.0426,0.53608 0.0547,0.86419 l 1.08763,3.66613 c 0.10021,0.33762 0.26529,0.58598 0.48463,0.74062 0.21934,0.15464 0.48157,0.20849 0.7495,0.20051 0.53587,-0.0159 1.12176,-0.26003 1.6899,-0.51496 0.5506,-0.24705 1.08707,-0.40238 1.47607,-0.70215 0.1945,-0.14988 0.35167,-0.34579 0.42321,-0.59782 0.0716,-0.25204 0.0592,-0.54808 -0.0385,-0.90414 l -0.98775,-3.59954 c -0.0861,-0.3139 -0.23565,-0.54878 -0.44171,-0.69624 -0.20605,-0.14746 -0.45494,-0.20041 -0.71621,-0.19828 z" />
</svg>
