<svg xmlns="http://www.w3.org/2000/svg" width="192" height="192" fill="none"><path stroke="#000" stroke-linecap="round" stroke-linejoin="round" stroke-width="12" d="M170 162V30a6 6 0 0 0-6-6h-14a6 6 0 0 0-6 6v56.782c-10.658 3.647-30.261 7.003-56-3.124V30a6 6 0 0 0-6-6H68a6 6 0 0 0-6 6v45.924c-16.787-3.118-26.26-2.578-40 1.254l6.348 24.007c14.495-3.55 22.367-.939 33.652 1.354V162a6 6 0 0 0 6 6h14a6 6 0 0 0 6-6v-51.727c25.739 10.126 45.342 6.771 56 3.123V162a6 6 0 0 0 6 6h14a6 6 0 0 0 6-6"/></svg>