<svg width="192" height="192" viewBox="0 0 192 192" fill="none" xmlns="http://www.w3.org/2000/svg"><path d="m131.54 22.064-29.133 4.201c-3.386.489-5.71 3.659-5.118 7.02 2.968 16.828 6.626 34.072 10.341 50.141.691 2.986-.931 6.031-3.849 6.988-4.629 1.518-11.21 3.425-18.298 4.684-3.073.546-5.958-1.49-6.64-4.528-3.215-14.302-6.336-29.433-8.875-44.113-.643-3.72-4.465-6.01-8.045-4.785L38.102 49.82c-2.835.97-4.55 3.85-4 6.788 8.024 42.875 24.394 93.181 29.827 109.328 1.01 3.002 4.162 4.66 7.235 3.868l20.014-5.151a6.135 6.135 0 0 0 4.38-7.583 1317.63 1317.63 0 0 1-3.913-14.419c-.903-3.4 1.282-6.845 4.726-7.602a301.302 301.302 0 0 0 16.557-4.161c3.332-.936 6.82.996 7.722 4.329a1344.186 1344.186 0 0 0 4.481 16.177c.893 3.14 4.123 4.983 7.297 4.192l20.908-5.214c3.283-.819 5.286-4.115 4.489-7.396-4.418-18.18-17.408-74.486-19.189-114.972-.162-3.679-3.442-6.466-7.096-5.939Z" stroke="#000" stroke-width="12" stroke-linecap="round" stroke-linejoin="round"/></svg>