<svg id="Layer_1" data-name="Layer 1" xmlns="http://www.w3.org/2000/svg" xmlns:xlink="http://www.w3.org/1999/xlink" viewBox="0 0 24 24">
  <defs>
    <style>
      .cls-1 {
        fill: #fff;
        fill-rule: evenodd;
      }

      .cls-2 {
        mask: url(#mask);
      }
    </style>
    <mask id="mask" x="2" y="3.14" width="20" height="17.73" maskUnits="userSpaceOnUse">
      <g id="mask-2">
        <path id="path-1" class="cls-1" d="M4.22,20.47V13.72H2.47A.47.47,0,0,1,2,13.25a.51.51,0,0,1,.13-.33l9.45-9.61h0a.59.59,0,0,1,.83,0h0l4.93,5V7.38h0a.39.39,0,0,1,.39-.4h1.64a.4.4,0,0,1,.39.4v3.39l2.1,2.15a.47.47,0,0,1,0,.67.51.51,0,0,1-.33.13H19.77v6.75a.39.39,0,0,1-.39.39H4.62a.39.39,0,0,1-.4-.39Zm10.43-8.24a.72.72,0,0,0,.07-.33.76.76,0,1,0-.76.76.73.73,0,0,0,.33-.08l1.09,1.09v1.06L14,16.1v-1a.77.77,0,0,0,.5-.72.76.76,0,0,0-.76-.76.75.75,0,0,0-.75.76.77.77,0,0,0,.5.72v1.5l-1.26,1.27V10.43l1-1a.66.66,0,0,0,.32.08.76.76,0,1,0-.76-.76.69.69,0,0,0,.08.32L12,10,11.06,9a.69.69,0,0,0,.08-.32.76.76,0,1,0-.76.76.73.73,0,0,0,.33-.08l1,1v5.31L9.93,13.92V12.46a.75.75,0,0,0,.5-.71.76.76,0,1,0-1.51,0,.75.75,0,0,0,.5.71v.95L8,12V10.59a.77.77,0,0,0,.5-.72.75.75,0,0,0-.75-.76A.76.76,0,0,0,7,9.87a.77.77,0,0,0,.5.72v1.62l1.57,1.56h-.9a.77.77,0,0,0-.72-.5.76.76,0,0,0,0,1.51.77.77,0,0,0,.72-.5h1.4l2.17,2.18v3.79l-1.16-1.16V17.63a.77.77,0,0,0,.51-.72.76.76,0,0,0-1.52,0,.77.77,0,0,0,.51.72v.95L8.39,16.89a.76.76,0,1,0-.68.43A.72.72,0,0,0,8,17.24l1.69,1.7h-.9a.74.74,0,0,0-.71-.51.76.76,0,1,0,0,1.52.74.74,0,0,0,.71-.51h1.41l1.41,1.42h.71l1.47-1.47h1.35a.74.74,0,0,0,.71.51.76.76,0,0,0,0-1.52.74.74,0,0,0-.71.51H13.61l-1.36,1.36V18.59L13.87,17h2.61a.76.76,0,1,0,0-.5H14.37l1.51-1.52V13.67L17,12.58a.73.73,0,0,0,.33.08.76.76,0,1,0-.76-.76.88.88,0,0,0,.07.33l-.73.73V10.64a.77.77,0,0,0,.51-.72.76.76,0,0,0-1.52,0,.77.77,0,0,0,.51.72V13ZM8.11,19.5a.3.3,0,0,1-.3-.31.3.3,0,1,1,.6,0A.3.3,0,0,1,8.11,19.5Zm2.22-2.28a.3.3,0,0,1-.3-.31.3.3,0,1,1,.6,0A.3.3,0,0,1,10.33,17.22Zm-2.62-.36a.3.3,0,0,1-.31-.3.31.31,0,1,1,.61,0A.3.3,0,0,1,7.71,16.86Zm-.26-2.53a.31.31,0,0,1,0-.61.31.31,0,1,1,0,.61Zm6.31.35a.3.3,0,1,1,.31-.3A.3.3,0,0,1,13.76,14.68ZM17.19,17a.3.3,0,1,1,.31-.3A.3.3,0,0,1,17.19,17Zm-1.31,2.43a.3.3,0,1,1,.31-.3A.3.3,0,0,1,15.88,19.44ZM17.3,12.2a.3.3,0,0,1-.31-.3.31.31,0,1,1,.61,0A.3.3,0,0,1,17.3,12.2Zm-1.67-2a.3.3,0,0,1-.3-.31.3.3,0,0,1,.6,0A.3.3,0,0,1,15.63,10.23ZM13.61,9a.31.31,0,1,1,.3-.3A.3.3,0,0,1,13.61,9ZM10.38,9a.31.31,0,1,1,.3-.3A.3.3,0,0,1,10.38,9ZM7.76,10.18a.31.31,0,0,1-.31-.31.31.31,0,0,1,.61,0A.31.31,0,0,1,7.76,10.18Zm1.92,1.87a.31.31,0,1,1,.3-.3A.31.31,0,0,1,9.68,12.05ZM14,12.2a.3.3,0,0,1-.3-.3.31.31,0,1,1,.61,0A.3.3,0,0,1,14,12.2Z"/>
      </g>
    </mask>
  </defs>
  <g class="cls-2">
    <g id="fill_black" data-name="fill/black">
      <rect id="Rectangle-2" x="2" y="3.14" width="20" height="17.73"/>
    </g>
  </g>
</svg>
