<svg xmlns="http://www.w3.org/2000/svg" width="192" height="192" fill="none"><path stroke="#000" stroke-linecap="round" stroke-linejoin="round" stroke-width="10" d="M115 110a18.997 18.997 0 0 1-19 19 18.997 18.997 0 0 1-19-19z"/><path stroke="#000" stroke-linecap="round" stroke-linejoin="round" stroke-width="12" d="M113.893 148C127.571 141.347 137 127.302 137 111.053 137 88.38 118.644 70 96 70s-41 18.38-41 41.053c0 16.249 9.429 30.294 23.107 36.947"/><path stroke="#000" stroke-linecap="round" stroke-linejoin="round" stroke-width="12" d="M34.624 148C26.654 137.151 22 124.075 22 110c0-37.555 33.13-68 74-68s74 30.445 74 68c0 14.075-4.653 27.151-12.624 38M35 148h122"/></svg>