<svg width="192" height="192" viewBox="0 0 192 192" fill="none" xmlns="http://www.w3.org/2000/svg"><path d="M131.924 30H90.778a21.946 21.946 0 0 0-19.061 11.085l-19.93 34.95a6.01 6.01 0 0 0-.01 5.936L67.06 109m68.015 51.177 20.573-35.709a22.042 22.042 0 0 0-.049-22.085l-20.24-34.77a5.984 5.984 0 0 0-5.124-2.978l-31.001-.25M171 94.177l-20.573-35.709a21.945 21.945 0 0 0-19.111-11l-40.17.18a5.985 5.985 0 0 0-5.133 2.958l-15.717 26.78M60.076 162h41.146c7.878 0 15.152-4.23 19.061-11.085l19.93-34.951a6.01 6.01 0 0 0 .011-5.934L124.939 83M56.925 31.823 36.35 67.532a22.04 22.04 0 0 0 .05 22.085l20.24 34.771a5.986 5.986 0 0 0 5.123 2.977l31.001.25M21 97.823l20.573 35.709a21.946 21.946 0 0 0 19.11 11l40.17-.18a5.982 5.982 0 0 0 5.134-2.958l15.717-26.779" stroke="#000" stroke-width="10" stroke-linecap="round" stroke-linejoin="round"/></svg>