<svg width="192" height="192" viewBox="0 0 192 192" fill="none" xmlns="http://www.w3.org/2000/svg"><path d="M94.788 59.502c.67-.67 1.755-.67 2.424 0l19.286 19.286c.669.67.669 1.755 0 2.424l-19.286 19.286a1.714 1.714 0 0 1-2.424 0L75.502 81.212a1.714 1.714 0 0 1 0-2.424l19.286-19.286Z" stroke="#000" stroke-width="10" stroke-linecap="round" stroke-linejoin="round"/><circle cx="132" cy="132" r="4" stroke="#000" stroke-width="8" stroke-linecap="round" stroke-linejoin="round"/><circle cx="149" cy="149" r="4" stroke="#000" stroke-width="8" stroke-linecap="round" stroke-linejoin="round"/><circle cx="150" cy="113" r="4" stroke="#000" stroke-width="8" stroke-linecap="round" stroke-linejoin="round"/><circle cx="113" cy="150" r="4" stroke="#000" stroke-width="8" stroke-linecap="round" stroke-linejoin="round"/><path d="M23.816 92.233 96 22l72.184 70.233a6 6 0 0 1 1.816 4.3V164a6 6 0 0 1-6 6H28a6 6 0 0 1-6-6V96.534a6 6 0 0 1 1.816-4.3Z" stroke="#000" stroke-width="12" stroke-linecap="round" stroke-linejoin="round"/><path d="m22 96 56 56M38 80l56 56m-72-8 42 42m90-90-90 90" stroke="#000" stroke-width="10" stroke-linecap="round" stroke-linejoin="round"/></svg>