<svg xmlns="http://www.w3.org/2000/svg" xml:space="preserve" id="图层_1" width="192" height="192" x="0" y="0" style="enable-background:new 0 0 192 192" version="1.1"><style>.st0{fill:none;stroke:#000;stroke-width:12;stroke-linecap:round;stroke-linejoin:round}</style><path d="m36 130 134-69-33-1-6-10-35 18-6-12-9 19-56 30" class="st0"/><path d="M111.8 163.3c-26.6 5.7-55.5-4-72.9-25.1C21.6 117.1 17.1 86.7 28 61.7c6.3-14.6 17.3-26.9 31-34.8M167.5 110.2c-1 3.8-2.4 7.6-4 11.2" class="st0"/><path d="M130.4 156h22m-22 0c-7.7 0-14-6.3-14-14s6.3-14 14-14c6.2 0 11.7 4.1 13.4 10.1 3.8-4.8 10.7-5.5 15.4-1.8 4.3 3.4 5.4 9.4 2.6 14.2-2 3.4-5.6 5.5-9.5 5.5" style="fill:none;stroke:#000;stroke-width:10;stroke-linecap:round;stroke-linejoin:round"/></svg>