<svg width="192" height="192" viewBox="0 0 192 192" fill="none" xmlns="http://www.w3.org/2000/svg"><path d="M43 96h27m29 0h50" stroke="#000" stroke-width="10" stroke-linecap="round" stroke-linejoin="round"/><ellipse cx="96" cy="96" rx="54" ry="74" stroke="#000" stroke-width="12" stroke-linecap="round" stroke-linejoin="round"/><path d="M149 96c0 8.665-1.506 17.203-4.391 24.893-2.885 7.689-7.064 14.305-12.184 19.287-5.12 4.983-11.031 8.186-17.233 9.339-6.203 1.154-12.515.224-18.403-2.711-5.888-2.936-11.18-7.79-15.428-14.153-4.248-6.363-7.327-14.048-8.979-22.406-1.651-8.358-1.826-17.143-.508-25.614 1.317-8.472 4.087-16.38 8.076-23.056" stroke="#000" stroke-width="10" stroke-linecap="round" stroke-linejoin="round"/><path d="M85 129.775c4.257-3.423 7.791-8.346 10.249-14.275C97.706 109.571 99 102.846 99 96s-1.294-13.571-3.751-19.5C92.79 70.571 89.257 65.648 85 62.225 80.743 58.802 75.915 57 71 57c-4.915 0-9.743 1.802-14 5.225-4.257 3.423-7.791 8.346-10.249 14.275C44.294 82.429 43 89.154 43 96" stroke="#000" stroke-width="10" stroke-linecap="round" stroke-linejoin="round"/></svg>