<svg width="192" height="192" viewBox="0 0 192 192" fill="none" xmlns="http://www.w3.org/2000/svg"><circle cx="78" cy="134" r="5" stroke="#000" stroke-width="10" stroke-linecap="round" stroke-linejoin="round"/><circle cx="112" cy="126" r="5" stroke="#000" stroke-width="10" stroke-linecap="round" stroke-linejoin="round"/><path d="M22.407 72.382A6 6 0 0 1 28.395 66h135.21a6 6 0 0 1 5.988 6.382l-5.234 82a6 6 0 0 1-5.988 5.618H33.629a6 6 0 0 1-5.988-5.618l-5.234-82ZM160 66V48a6 6 0 0 0-6-6H86.485a6 6 0 0 1-4.242-1.757l-8.486-8.486A6 6 0 0 0 69.515 30H38a6 6 0 0 0-6 6v30" stroke="#000" stroke-width="12" stroke-linecap="round" stroke-linejoin="round"/><path d="M117 89v37M83 97v37" stroke="#000" stroke-width="10" stroke-linecap="round" stroke-linejoin="round"/><path d="m116 89-32 8" stroke="#000" stroke-width="12" stroke-linecap="round" stroke-linejoin="round"/></svg>