<svg width="192" height="192" viewBox="0 0 192 192" fill="none" xmlns="http://www.w3.org/2000/svg"><circle cx="83" cy="72" r="6" stroke="#000" stroke-width="12" stroke-linejoin="round"/><circle cx="88" cy="127" r="17" stroke="#000" stroke-width="12" stroke-linejoin="round"/><circle cx="34" cy="52" r="5" stroke="#000" stroke-width="10" stroke-linejoin="round"/><circle cx="118" cy="34" r="5" stroke="#000" stroke-width="10" stroke-linejoin="round"/><circle cx="143" cy="76" r="4" stroke="#000" stroke-width="8" stroke-linejoin="round"/><circle cx="170" cy="96" r="3" stroke="#000" stroke-width="6" stroke-linejoin="round"/><path d="M170 144v-32m-46 46v-14m0 0v-32s3.5-2 12-2c11.5 0 15 5.5 15 16s-4.5 18-15 18h-12Zm-102 0V96m31 48v-22c0-6-3-12-10-12s-21 8-21 8" stroke="#000" stroke-width="12" stroke-linecap="round" stroke-linejoin="round"/></svg>