<svg xmlns="http://www.w3.org/2000/svg" width="192" height="192" fill="none"><path stroke="#000" stroke-linecap="round" stroke-linejoin="round" stroke-width="14" d="M169 128a73 73 0 0 0-21.381-51.619A73.001 73.001 0 0 0 23 128"/><path stroke="#000" stroke-linecap="round" stroke-linejoin="round" stroke-width="14" d="M126 128c0-4.202-.776-8.363-2.284-12.246-1.507-3.882-3.717-7.41-6.503-10.381s-6.093-5.329-9.732-6.937A28.4 28.4 0 0 0 96 96c-3.94 0-7.84.828-11.48 2.436s-6.947 3.965-9.733 6.937c-2.786 2.971-4.996 6.499-6.503 10.381A33.9 33.9 0 0 0 66 128m-43 0h43m60 0h43"/></svg>