<svg xmlns="http://www.w3.org/2000/svg" width="192" height="192" fill="none"><path stroke="#000" stroke-linecap="round" stroke-linejoin="round" stroke-width="12" d="M82.394 24.664a35 35 0 0 1 13.605 10.063 35 35 0 0 1 29.288-12.653 35 35 0 0 1 26.812 15.481 35.01 35.01 0 0 1 4.041 30.695 35 35 0 0 1-8.394 13.499l-47.524 47.069a6 6 0 0 1-8.444 0L44.25 81.748a35 35 0 0 1 38.143-57.084Z"/><path stroke="#000" stroke-linecap="round" stroke-linejoin="round" stroke-width="12" d="M82.394 167.336a35 35 0 0 0 13.605-10.063 35 35 0 0 0 13.604 10.063 35.01 35.01 0 0 0 30.894-2.025 35 35 0 0 0 17.201-25.743 35 35 0 0 0-9.952-29.317l-47.524-47.07a6 6 0 0 0-8.444 0l-47.527 47.07a34.999 34.999 0 0 0 22.46 59.674 35 35 0 0 0 15.683-2.589"/></svg>