<svg xmlns="http://www.w3.org/2000/svg" width="192" height="192" fill="none" viewBox="0 0 192 192"><path stroke="#000" stroke-linejoin="round" stroke-width="12" d="M108.485 36h-20.17c-5.321 0-8.01 6.413-4.278 10.207l44.826 45.586a6 6 0 0 1 0 8.414l-44.826 45.586C80.306 149.587 82.994 156 88.315 156h20.17a6 6 0 0 0 4.278-1.793L170 96l-57.237-58.207A6 6 0 0 0 108.485 36Z"/><path stroke="#000" stroke-linecap="round" stroke-linejoin="round" stroke-width="12" d="m82 119.46-19.065-19.236a6 6 0 0 1 0-8.448l14.88-15.012a6 6 0 0 0 0-8.447L67.886 58.3a6 6 0 0 0-8.523 0L22 96l41.625 42"/></svg>