<svg xmlns="http://www.w3.org/2000/svg" width="192" height="192" fill="none"><path stroke="#000" stroke-linecap="round" stroke-linejoin="round" stroke-width="12" d="M56.743 95 75.12 76.743a5.97 5.97 0 0 0 0-8.486l-9.577-9.514a6.07 6.07 0 0 0-8.541 0L37.617 78m0 0L23.77 91.757a5.97 5.97 0 0 0 0 8.486L61.272 137.5M37.617 78l41.774 41.5M75.868 36h33.736a6.06 6.06 0 0 1 4.271 1.757l54.356 54a5.97 5.97 0 0 1 0 8.486l-54.356 54a6.06 6.06 0 0 1-4.271 1.757H75.868l56.125-55.757a5.97 5.97 0 0 0 0-8.486z"/></svg>