<svg xmlns="http://www.w3.org/2000/svg" width="192" height="192" fill="none"><path stroke="#000" stroke-linecap="round" stroke-linejoin="round" stroke-width="12" d="M40 72 22 96l18 24 4 28 28 4 24 18 24-18 28-4 4-28 18-24-18-24-4-28-28-4-24-18-24 18-28 4z"/><path stroke="#000" stroke-linecap="round" stroke-linejoin="round" stroke-width="12" d="M102 57H90a6 6 0 0 0-6 6v15a6 6 0 0 1-6 6H63a6 6 0 0 0-6 6v12a6 6 0 0 0 6 6h15a6 6 0 0 1 6 6v15a6 6 0 0 0 6 6h12a6 6 0 0 0 6-6v-15a6 6 0 0 1 6-6h15a6 6 0 0 0 6-6V90a6 6 0 0 0-6-6h-15a6 6 0 0 1-6-6V63a6 6 0 0 0-6-6"/></svg>