<?xml version="1.0" encoding="utf-8"?>
<!-- Generator: Adobe Illustrator 25.4.1, SVG Export Plug-In . SVG Version: 6.00 Build 0)  -->
<svg version="1.1" id="Layer_1" xmlns="http://www.w3.org/2000/svg" xmlns:xlink="http://www.w3.org/1999/xlink" x="0px" y="0px"
	 width="192px" height="192px" viewBox="0 0 192 192" style="enable-background:new 0 0 192 192;" xml:space="preserve">
<style type="text/css">
	.st0{fill:none;stroke:#000000;stroke-width:12;stroke-linejoin:round;stroke-miterlimit:10;}
</style>
<path class="st0" d="M25.7,22h140.6v64.9c-0.2,7.7-1.7,29.8-17.7,50.8c-18.2,23.7-43,30.3-51.3,32.1c-0.8,0.2-1.6,0.2-2.4,0
	c-8.1-1.6-31.3-7.5-49.3-29.2c-18.7-22.3-19.8-46.8-19.9-53.7C25.7,65.2,25.7,43.6,25.7,22z"/>
<g>
	<path d="M75.5,131c-0.7,0-1.4,0.4-1.9,1.1c-0.8,1.1-0.6,2.8,0.6,3.6c3.7,2.7,8.2,4.4,13.6,5.1c2.5,0.3,5,0.3,7.5,0
		c2.4-0.3,5-0.9,7.3-1.7c4.7-1.6,9.2-4.4,12.6-8c3.7-3.8,6.2-8.1,7.3-12.5l0,0c0.2-0.8,0.1-1.4-0.4-1.9c-0.9-1.1-2.2-1.2-3.2-0.4
		l-0.1,0.1c-3.8,3.1-6.8,5.4-9.8,7.2c-1.9,1.2-3.6,2-5,2.7c-1.4,0.8-3.1,1.4-5.1,2.1c-1.3,0.6-2.8,0.9-4.2,1.3
		c-0.4,0.1-0.7,0.2-1.1,0.3c-1.9,0.4-3.8,0.7-5.6,0.9c-3.3,0.4-7,0.5-12,0.3h-0.4C75.7,131,75.6,131,75.5,131z"/>
	<path d="M54.8,83.5c-0.4,0-0.8,0.1-1.1,0.3c-0.7,0.3-1.2,0.9-1.3,1.5c-1.4,4.3-1.6,9.3-0.6,14.6c0.5,2.4,1.3,4.8,2.3,7.1
		c1.1,2,2.3,4.3,4,6.5c3,4,7,7.2,11.6,9.5c4.9,2.4,9.6,3.5,14.2,3.1c0.7-0.1,1.3-0.5,1.7-1.1c0.4-0.5,0.5-1.1,0.4-1.7
		c-0.1-0.6-0.5-1.1-1-1.3l0,0l-0.1-0.1c-3.5-2.3-6.8-4.5-9.9-7.1c-1.4-1.3-2.9-2.5-4.1-3.9c-1.3-1.3-2.5-2.8-3.7-4.2
		c-1-1.3-1.8-2.6-2.6-4c-0.2-0.3-0.3-0.5-0.5-0.8c-1.1-1.7-1.9-3.4-2.6-5c-1.7-3.7-2.9-7.5-4-11.3l-0.3-0.3
		c-0.2-0.9-0.8-1.4-1.6-1.7C55.3,83.5,55,83.5,54.8,83.5z"/>
	<path d="M93.4,49c-4.7,0-9.5,1.3-14,4c-2.5,1.4-4.4,2.9-6.1,4.4c-2,1.9-3.6,3.7-4.9,5.7c-2.8,4.1-4.7,8.9-5.5,13.9
		c-0.7,5.2-0.2,10.1,1.5,14.4l0,0c0.2,0.7,0.8,1.2,1.5,1.3c1.2,0.3,2.4-0.5,2.8-1.6v-0.1c1.2-4.7,2.4-8.4,3.7-11.6
		c0.8-1.8,1.6-3.8,2.4-5.1c0.8-1.5,1.7-3.1,2.9-4.7c0.7-1.2,1.5-2.1,2.4-3.2c0.3-0.4,0.7-0.8,1-1.3c1.1-1.3,2.4-2.7,4-4
		c2.9-2.7,6.3-5.1,9.5-7.2l0.2-0.1c0.7-0.5,1.1-1.3,1.1-2.1C96,50.3,94.9,49,93.4,49z"/>
	<path d="M140.7,77c-1.4-4.4-4.2-8.7-8.1-12.1c-2.1-1.9-4.1-3.4-6.1-4.4c-2.4-1.3-4.6-2.2-6.9-2.9c-4.7-1.3-9.9-1.7-14.9-0.9
		c-5.1,1-9.7,3-13.2,5.9l0,0c-0.6,0.4-0.9,1.2-0.8,1.8c0.1,1.3,1.2,2.1,2.4,2.1h0.1c4.8-0.3,8.7-0.4,12.1-0.1c2,0.1,4,0.5,5.6,0.7
		c1.7,0.3,3.5,0.7,5.4,1.3c1.3,0.3,2.5,0.8,3.8,1.3c0.5,0.2,1,0.4,1.4,0.6c1.5,0.7,3.3,1.4,5.1,2.5c3.5,1.9,6.7,4.4,9.8,6.8l0.2,0.2
		c0.7,0.5,1.5,0.7,2.3,0.4C140.4,79.8,141.2,78.2,140.7,77z"/>
	<path d="M124.1,82c1.6,4,2.9,7.8,3.9,11.6c0.5,1.9,0.8,3.8,1.1,5.6c0.3,1.8,0.4,3.7,0.5,5.5c0.1,1.4,0,2.9-0.1,4.2
		c0,0.5-0.1,0.9-0.1,1.3c-0.2,1.9-0.5,3.9-0.9,5.6c-0.8,4-2.1,7.9-3.5,11.5l-0.1,0.2c-0.3,0.9-0.2,1.6,0.4,2.4
		c0.9,1.2,2.4,1.3,3.6,0.6c3.9-2.7,6.8-6.6,9.1-11.4c1.1-2.2,1.8-4.5,2.3-7.1c0.6-2.7,0.8-5.2,0.7-7.5c-0.1-5-1.3-10-3.8-14.5
		c-2.4-4.6-5.8-8.3-9.7-10.7c-0.7-0.4-1.3-0.5-2-0.3c-0.6,0.2-1,0.7-1.3,1.2C123.9,80.7,123.8,81.3,124.1,82L124.1,82L124.1,82z"/>
</g>
</svg>
