<svg xmlns="http://www.w3.org/2000/svg" width="192" height="192" viewBox="0 0 192 192"><path fill="none" stroke="#000" stroke-linejoin="round" stroke-width="12" d="M25.7 22h140.6v64.9c-.2 7.7-1.7 29.8-17.7 50.8-18.2 23.7-43 30.3-51.3 32.1q-1.2.3-2.4 0c-8.1-1.6-31.3-7.5-49.3-29.2-18.7-22.3-19.8-46.8-19.9-53.7z"/><path d="M75.5 131c-.7 0-1.4.4-1.9 1.1-.8 1.1-.6 2.8.6 3.6 3.7 2.7 8.2 4.4 13.6 5.1q3.75.45 7.5 0c2.4-.3 5-.9 7.3-1.7 4.7-1.6 9.2-4.4 12.6-8 3.7-3.8 6.2-8.1 7.3-12.5.2-.8.1-1.4-.4-1.9-.9-1.1-2.2-1.2-3.2-.4l-.1.1c-3.8 3.1-6.8 5.4-9.8 7.2-1.9 1.2-3.6 2-5 2.7-1.4.8-3.1 1.4-5.1 2.1-1.3.6-2.8.9-4.2 1.3-.4.1-.7.2-1.1.3-1.9.4-3.8.7-5.6.9-3.3.4-7 .5-12 .3h-.4a.025.05 0 0 0-.1-.2M54.8 83.5c-.4 0-.8.1-1.1.3-.7.3-1.2.9-1.3 1.5-1.4 4.3-1.6 9.3-.6 14.6.5 2.4 1.3 4.8 2.3 7.1 1.1 2 2.3 4.3 4 6.5 3 4 7 7.2 11.6 9.5 4.9 2.4 9.6 3.5 14.2 3.1.7-.1 1.3-.5 1.7-1.1.4-.5.5-1.1.4-1.7s-.5-1.1-1-1.3l-.1-.1c-3.5-2.3-6.8-4.5-9.9-7.1-1.4-1.3-2.9-2.5-4.1-3.9-1.3-1.3-2.5-2.8-3.7-4.2-1-1.3-1.8-2.6-2.6-4-.2-.3-.3-.5-.5-.8-1.1-1.7-1.9-3.4-2.6-5-1.7-3.7-2.9-7.5-4-11.3l-.3-.3c-.2-.9-.8-1.4-1.6-1.7-.3-.1-.6-.1-.8-.1M93.4 49c-4.7 0-9.5 1.3-14 4-2.5 1.4-4.4 2.9-6.1 4.4-2 1.9-3.6 3.7-4.9 5.7-2.8 4.1-4.7 8.9-5.5 13.9-.7 5.2-.2 10.1 1.5 14.4.2.7.8 1.2 1.5 1.3 1.2.3 2.4-.5 2.8-1.6V91c1.2-4.7 2.4-8.4 3.7-11.6.8-1.8 1.6-3.8 2.4-5.1.8-1.5 1.7-3.1 2.9-4.7.7-1.2 1.5-2.1 2.4-3.2.3-.4.7-.8 1-1.3 1.1-1.3 2.4-2.7 4-4 2.9-2.7 6.3-5.1 9.5-7.2l.2-.1c.7-.5 1.1-1.3 1.1-2.1.1-1.4-1-2.7-2.5-2.7m47.3 28c-1.4-4.4-4.2-8.7-8.1-12.1-2.1-1.9-4.1-3.4-6.1-4.4-2.4-1.3-4.6-2.2-6.9-2.9-4.7-1.3-9.9-1.7-14.9-.9-5.1 1-9.7 3-13.2 5.9-.6.4-.9 1.2-.8 1.8.1 1.3 1.2 2.1 2.4 2.1h.1c4.8-.3 8.7-.4 12.1-.1 2 .1 4 .5 5.6.7 1.7.3 3.5.7 5.4 1.3 1.3.3 2.5.8 3.8 1.3.5.2 1 .4 1.4.6 1.5.7 3.3 1.4 5.1 2.5 3.5 1.9 6.7 4.4 9.8 6.8l.2.2c.7.5 1.5.7 2.3.4 1.5-.4 2.3-2 1.8-3.2m-16.6 5c1.6 4 2.9 7.8 3.9 11.6.5 1.9.8 3.8 1.1 5.6s.4 3.7.5 5.5c.1 1.4 0 2.9-.1 4.2 0 .5-.1.9-.1 1.3-.2 1.9-.5 3.9-.9 5.6-.8 4-2.1 7.9-3.5 11.5l-.1.2c-.3.9-.2 1.6.4 2.4.9 1.2 2.4 1.3 3.6.6 3.9-2.7 6.8-6.6 9.1-11.4 1.1-2.2 1.8-4.5 2.3-7.1.6-2.7.8-5.2.7-7.5-.1-5-1.3-10-3.8-14.5-2.4-4.6-5.8-8.3-9.7-10.7-.7-.4-1.3-.5-2-.3-.6.2-1 .7-1.3 1.2s-.4 1.1-.1 1.8"/></svg>