<svg width="192" height="192" viewBox="0 0 192 192" fill="none" xmlns="http://www.w3.org/2000/svg"><path d="M62.854 120.789c1.655.329 3.363.273 4.993-.164l56-15a11 11 0 0 0 6.679-16.125L124.053 77a22.005 22.005 0 0 0-24.747-10.25l-30 8A22 22 0 0 0 53 96l1 14a10.999 10.999 0 0 0 8.854 10.789Z" stroke="#000" stroke-width="10" stroke-linecap="round" stroke-linejoin="round"/><path d="m26 134-4-77m26.659 94.387A18.003 18.003 0 0 1 26 134m59.856 12A16 16 0 1 1 56 154m96 2-9-30m-58 17-3-6m-33.34 14.39 108-29M167.588 96s2.193 5.068 2.373 7.823a18 18 0 0 1-13.302 18.564M22 57a10 10 0 0 1 15-8.66l22.147 7.9a6 6 0 0 0 3.79.255l30.547-7.969a6 6 0 0 0 3.272-2.189l19.466-21.115" stroke="#000" stroke-width="12" stroke-linecap="round" stroke-linejoin="round"/><path d="M116.222 25.222a10.996 10.996 0 0 1 13.889-1.368 10.993 10.993 0 0 1 3.415 3.646L167.59 96" stroke="#000" stroke-width="12" stroke-linecap="round" stroke-linejoin="round"/><path d="m62 37 23-6m-9 61 2 7m25-14 2 7" stroke="#000" stroke-width="10" stroke-linecap="round" stroke-linejoin="round"/></svg>