<svg width="192" height="192" fill="none" xmlns="http://www.w3.org/2000/svg"><path d="M35 21h10v10H35V21Zm0 47h10v10H35V68Zm0 46h10v10H35v-10Zm0 47h10v10H35v-10Z" stroke="#000" stroke-width="10" stroke-linecap="round" stroke-linejoin="round"/><path d="M156 164V28a6 6 0 0 0-6-6h-16a6 6 0 0 0-6 6v52a6 6 0 0 1-6 6h-12a6 6 0 0 1-6-6V28a6 6 0 0 0-6-6H82a6 6 0 0 0-6 6v136a6 6 0 0 0 6 6h16a6 6 0 0 0 6-6v-44a6 6 0 0 1 6-6h12a6 6 0 0 1 6 6v44a6 6 0 0 0 6 6h16a6 6 0 0 0 6-6Z" stroke="#000" stroke-width="12" stroke-linecap="round" stroke-linejoin="round"/></svg>