<svg xmlns="http://www.w3.org/2000/svg" width="192" height="192" fill="none"><path stroke="#000" stroke-linecap="round" stroke-linejoin="round" stroke-width="10" d="M35 21h10v10H35zm0 47h10v10H35zm0 46h10v10H35zm0 47h10v10H35z"/><path stroke="#000" stroke-linecap="round" stroke-linejoin="round" stroke-width="12" d="M156 164V28a6 6 0 0 0-6-6h-16a6 6 0 0 0-6 6v52a6 6 0 0 1-6 6h-12a6 6 0 0 1-6-6V28a6 6 0 0 0-6-6H82a6 6 0 0 0-6 6v136a6 6 0 0 0 6 6h16a6 6 0 0 0 6-6v-44a6 6 0 0 1 6-6h12a6 6 0 0 1 6 6v44a6 6 0 0 0 6 6h16a6 6 0 0 0 6-6"/></svg>