<svg width="192" height="192" viewBox="0 0 192 192" fill="none" xmlns="http://www.w3.org/2000/svg"><path d="M33 61.436v69.127a6 6 0 0 0 2.965 5.176l57 33.422a6 6 0 0 0 6.07 0l57-33.422a6 6 0 0 0 2.965-5.176V61.436a6.001 6.001 0 0 0-2.963-5.175l-57-33.449a6 6 0 0 0-6.074 0l-57 33.45A6 6 0 0 0 33 61.435Z" stroke="#000" stroke-width="12" stroke-linecap="round" stroke-linejoin="round"/><path d="M86 96H53m33-46v116m20-140v116m0-92 34 19m-34 73 34-19M53 70v52" stroke="#000" stroke-width="10" stroke-linecap="round" stroke-linejoin="round"/></svg>