<svg width="192" height="192" viewBox="0 0 192 192" fill="none" xmlns="http://www.w3.org/2000/svg"><path d="M54 23.876a14 14 0 0 0-14 24.248m29 118.661A24.004 24.004 0 0 1 36.215 158 23.999 23.999 0 0 1 33 146V97a14 14 0 1 1 28 0v41.991m0 0-7 4.129m7-4.129 66.527-39.245M33 131a13.998 13.998 0 0 0 21 12.124m73.527-43.378L40 48.12m87.527 51.626C146 110 145 121.953 132.883 129.151M54 23.88l99.444 58.636c13.121 7.736 13.123 26.716.003 34.455l-20.564 12.18m0 0L69 166.78" stroke="#000" stroke-width="12" stroke-linecap="round" stroke-linejoin="round"/></svg>