<svg xmlns="http://www.w3.org/2000/svg" width="192" height="192" fill="none"><circle cx="96" cy="71" r="49" stroke="#000" stroke-linecap="round" stroke-linejoin="round" stroke-width="12"/><ellipse cx="123.5" cy="69" stroke="#000" stroke-linecap="round" stroke-linejoin="round" stroke-width="6" rx="2.5" ry="8"/><path stroke="#000" stroke-linecap="round" stroke-linejoin="round" stroke-width="12" d="M50 90H30a6 6 0 0 0-6 6v68a6 6 0 0 0 6 6h132a6 6 0 0 0 6-6V96a6 6 0 0 0-6-6h-20"/><path stroke="#000" stroke-linecap="round" stroke-linejoin="round" stroke-width="10" d="M136 150H56m32-30s17-20 17-37c0-11-16-7-16-20s17-10 17-23-10-17-10-17m-8 97c0-30-14-24-15-39S53 71 53 51"/></svg>