<svg width="192" height="192" viewBox="0 0 192 192" fill="none" xmlns="http://www.w3.org/2000/svg"><path d="m25.157 137.248 4.341 4.069a9.908 9.908 0 0 0 13.672-.107l18.31-17.705a5.95 5.95 0 0 1 4.135-1.674h60.77c1.542 0 3.024.6 4.135 1.674l18.31 17.705a9.908 9.908 0 0 0 13.672.107l4.341-4.069a9.999 9.999 0 0 0 3.089-8.459l-7.077-60.405C161.559 57.331 152.23 49 141.145 49h-90.29c-11.085 0-20.414 8.33-21.71 19.384l-7.077 60.405a10 10 0 0 0 3.088 8.459ZM53 85h26M66 72v26" stroke="#000" stroke-width="12" stroke-linecap="round" stroke-linejoin="round"/><circle cx="126" cy="71" r="3" stroke="#000" stroke-width="6" stroke-linecap="round" stroke-linejoin="round"/><circle cx="126" cy="99" r="3" stroke="#000" stroke-width="6" stroke-linecap="round" stroke-linejoin="round"/><circle cx="112" cy="85" r="3" stroke="#000" stroke-width="6" stroke-linecap="round" stroke-linejoin="round"/><circle cx="140" cy="85" r="3" stroke="#000" stroke-width="6" stroke-linecap="round" stroke-linejoin="round"/></svg>