<svg xmlns="http://www.w3.org/2000/svg" width="192" height="192" fill="none"><path stroke="#000" stroke-linecap="round" stroke-linejoin="round" stroke-width="12" d="M170 86h-10m-7.281-41.72-7.071 7.072M111 37V27M76.352 51.352 69.28 44.28m65.15 59.033a29.1 29.1 0 0 0 5.231-12.582 29.06 29.06 0 0 0-1.073-13.576 29.14 29.14 0 0 0-7.142-11.612 29.3 29.3 0 0 0-11.654-7.115 29.4 29.4 0 0 0-13.627-1.069 29.34 29.34 0 0 0-12.629 5.212 29.2 29.2 0 0 0-8.877 10.355 29 29 0 0 0-2.566 7.248m0 0a42.04 42.04 0 0 1 16.985 14.602 41.9 41.9 0 0 1 5.626 12.323M82.093 80.174a42.23 42.23 0 0 0-26.218-3.227 42.13 42.13 0 0 0-21.548 11.475 41.9 41.9 0 0 0-11.518 21.469 41.8 41.8 0 0 0 2.395 24.225 41.97 41.97 0 0 0 15.5 18.818A42.2 42.2 0 0 0 64.085 160h57.638c4.815 0 9.555-1.183 13.801-3.444a29.24 29.24 0 0 0 10.542-9.519 29.1 29.1 0 0 0 4.793-13.346 29.06 29.06 0 0 0-2.088-14.021 29.2 29.2 0 0 0-8.475-11.385 29.3 29.3 0 0 0-12.861-6.061 29.37 29.37 0 0 0-22.731 4.875m0 0a41.8 41.8 0 0 1 1.466 10.972"/></svg>