<svg xmlns="http://www.w3.org/2000/svg" width="192" height="192" fill="none"><path stroke="#000" stroke-linecap="round" stroke-linejoin="round" stroke-width="12" d="M25 49c0-13.255 10.745-24 24-24h94c13.255 0 24 10.745 24 24v94c0 13.255-10.745 24-24 24H49c-13.255 0-24-10.745-24-24z"/><path stroke="#000" stroke-linecap="round" stroke-linejoin="round" stroke-width="12" d="M141 103V63c0-6.627-5.373-12-12-12H63c-6.627 0-12 5.373-12 12v20"/><path stroke="#000" stroke-linecap="round" stroke-linejoin="round" stroke-width="12" d="M25 83h58.116a6 6 0 0 1 4.686 2.252l12.397 15.496a6 6 0 0 0 4.685 2.252H167"/></svg>