<svg xmlns="http://www.w3.org/2000/svg" width="192" height="192" fill="none"><path stroke="#000" stroke-linecap="round" stroke-linejoin="round" stroke-width="12" d="M40.6 40.973 24.278 72.512a20.36 20.36 0 0 0 2.82 22.835l53.705 60.796c8.076 9.143 22.317 9.143 30.394 0l53.705-60.796a20.36 20.36 0 0 0 2.82-22.835L151.4 40.973A20.29 20.29 0 0 0 133.383 30H58.617A20.29 20.29 0 0 0 40.6 40.973"/><path stroke="#000" stroke-linecap="round" stroke-linejoin="round" stroke-width="12" d="M65 62 55 81l41 46 41-46-10-19zM55 81s-7.196 15.463-11.537 31M137 81s11.679-14.186 18.256-29"/></svg>