<?xml version="1.0" encoding="utf-8"?>
	<svg version="1.1" xmlns="http://www.w3.org/2000/svg" xmlns:xlink="http://www.w3.org/1999/xlink" x="0px" y="0px" width="240.0" height="240.0" xml:space="preserve">
		<path d="M75.73,157.663C84.549,157.677 91.581,164.788 91.496,173.608C91.413,182.271 84.322,189.193 75.592,189.134C66.932,189.076 59.853,181.943 59.912,173.336C59.971,164.684 67.071,157.649 75.73,157.663ZM137.543,51.086C138.892,51.48 139.097,52.636 139.306,53.823C140.713,61.79 139.852,69.496 136.746,76.963L136.705,77.059L136.705,77.059L136.618,77.251C136.234,78.083 135.806,78.887 137.291,79.505C148.427,84.144 159.42,89.164 171.406,91.382C177.835,92.572 184.194,92.63 190.538,90.863C194.685,89.707 198.719,90.144 202.482,92.243C203.71,92.929 204.574,92.794 205.598,91.949C207.577,90.317 209.581,88.733 211.028,86.159C206.485,85.957 203.617,83.927 202.755,79.698C202.143,76.696 203.545,73.736 206.098,72.378C210.698,69.93 214.061,72.418 217.393,75.632C218.342,72.347 217.925,69.458 216.716,66.599C216.476,66.031 215.687,65.214 216.71,64.778C217.602,64.398 217.827,65.437 218.156,65.989C219.828,68.797 220.273,71.911 219.85,75.061L219.792,75.493L219.792,75.493L219.615,76.788C218.534,84.555 217.025,92.171 210.087,97.395C209.61,97.754 209.037,98.15 209.42,98.94C211.404,103.038 211.554,107.582 212.562,111.918C212.78,118.118 212.213,124.199 210.076,130.089C209.328,132.151 208.401,132.938 205.956,132.498C195.141,130.555 184.531,138.296 182.472,149.229C181.999,151.739 182.003,154.152 182.544,156.601C182.765,157.605 182.947,158.56 181.819,159.163C168.04,167.901 152.918,172.726 136.777,174.49C124.049,175.881 111.417,175.19 98.886,172.512C97.277,172.169 96.547,171.647 96.235,169.858C93.946,156.727 80.551,149.193 68.125,154.031C66.344,154.725 65.258,154.63 63.996,153.15C63.373,152.42 62.743,151.696 62.115,150.971L61.174,149.883C58.519,146.796 55.959,143.643 54.106,139.928C53.233,138.178 53.038,137.36 55.297,136.867C58.974,136.064 62.317,134.341 65.366,132.174C70.419,128.58 72.436,123.625 71.647,117.456C71.396,115.489 70.778,115.35 69.11,116.245C62.188,119.963 54.781,121.807 46.903,121.282C37.32,120.643 28.853,117.141 21.497,110.959C20.583,110.191 19.872,109.398 20.019,108.021C21.298,96.052 24.078,84.584 31.156,74.557C33.289,71.534 33.665,71.476 36.768,73.385C43.189,77.337 50.241,78.993 57.686,79.384C59.247,79.466 60.122,78.942 60.87,77.594C62.783,74.148 65.044,70.94 67.679,67.981C75.615,59.071 85.434,56.877 96.682,59.721C100.231,60.617 103.755,61.659 106.993,63.405C108.443,64.186 109.841,63.954 111.197,63.613L111.648,63.497C112.097,63.38 112.541,63.261 112.981,63.176C121.213,61.577 128.615,58.163 134.767,52.32C135.551,51.574 136.302,50.724 137.543,51.086ZM218.486,149.962C219.359,155.015 218.066,159.271 215.112,163.227C206.612,171.738 195.312,170.539 188.762,160.43C185.142,151.643 187.34,143.777 194.708,139.154C203.924,133.372 216.635,139.249 218.486,149.962ZM209.16,76.139C207.398,76.206 206.679,77.39 206.595,78.95C206.493,80.857 208.377,82.759 210.288,82.719C211.774,82.686 213.203,82.441 213.077,80.401C213.063,78.218 211.118,76.063 209.16,76.139Z" fill="#000" stroke="#00000000" stroke-width="1.0" stroke-miterlimit=""/>
	</svg>
