<svg xmlns="http://www.w3.org/2000/svg" width="192" height="192" fill="none"><path stroke="#000" stroke-linecap="round" stroke-linejoin="round" stroke-width="10" d="M80 57.5V33l16-12 14.666 11M80 57.5l16 16 16-16m-32 0V80H57.5M112 57.5l17.234-17.361 19.799 2.828 2.593 18.149M112 57.5v22.59h22.41m0 0h.09m-.09 0 .09-.09H159l12 16-11 14.666M134.41 80.09 118.5 96l16 16m-77-32 16 16-15.91 15.91M57.5 80 40.14 62.766l2.828-19.799 18.149-2.593M112 134.5V159l-16 12-14.666-11M112 134.5l-16-16-16 16m32 0V112h22.5M80 134.5l-17.234 17.361-19.799-2.828-2.593-18.149M80 134.5v-22.59H57.59m0 0h-.09m.09 0-.09.09H33L21 96l11-14.666M134.5 112l17.361 17.234-2.828 19.799-18.149 2.593"/></svg>