<svg xmlns="http://www.w3.org/2000/svg" width="192" height="192" fill="none" stroke="#000" stroke-linecap="round" stroke-linejoin="round" stroke-width="10" viewBox="0 0 192 192"><path d="m96 73.5-16-16V33l16-12 16 12v2M96 73.5l16-16m-16 16V96"/><path d="m96 73.5-16-16V33l16-12 16 12v4M96 73.5l16-16m-16 16V96m15.91-15.91V57.463l17.324-17.324 19.799 2.828 2.828 19.799-2.828 2.828M111.91 80.09h22.627m-22.627 0L96 96m22.5 0 16-16H159l12 16-12 16h-4m-36.5-16 16 16m-16-16H96m15.91 15.91h22.627l17.324 17.324-2.828 19.799-19.799 2.828-2.828-2.828M111.91 111.91v22.627m0-22.627L96 96m0 22.5 16 16V159l-16 12-16-12v-4m16-36.5-16 16m16-16V96m-15.91 15.91v22.627l-17.324 17.324-19.8-2.828-2.828-19.799 2.829-2.828M80.09 111.91H57.463m22.627 0L96 96m-22.5 0-16 16H33L21 96l12-16h4m36.5 16-16-16m16 16H96M80.09 80.09H57.463L40.139 62.766l2.828-19.8 19.799-2.828 2.828 2.829M80.09 80.09V57.463m0 22.627L96 96"/></svg>