<?xml version="1.0" encoding="utf-8"?>
	<svg version="1.1" xmlns="http://www.w3.org/2000/svg" xmlns:xlink="http://www.w3.org/1999/xlink" x="0px" y="0px" width="192.0" height="192.0" xml:space="preserve">
		<path d="M145.73,82.15c4.22-5.61,6.5-12.44,6.49-19.46c0-17.92-14.52-32.44-32.44-32.44 c-16.07,0-29.41,11.69-31.98,27.03" fill="#000" stroke="" stroke-width="" stroke-miterlimit=""/>
		<path d="M111.14,95.12L85.33,52.4c-2.52-4.17-8.57-4.17-11.1-0.01L16.94,146.9c-2.62,4.32,0.5,9.85,5.55,9.85h113.95 c5.04,0,8.16-5.5,5.56-9.83l-3.83-6.39" fill="#000" stroke="" stroke-width="" stroke-miterlimit=""/>
		<path d="M111.14,95.12l16.02-25.63c2.56-4.11,8.56-4.05,11.06,0.09l36.84,61.12c2.61,4.32-0.51,9.84-5.56,9.84h-31.33" fill="#000" stroke="" stroke-width="" stroke-miterlimit=""/>
	</svg>
