<svg xmlns="http://www.w3.org/2000/svg" width="192" height="192" fill="none" viewBox="0 0 192 192"><path stroke="#000" stroke-linejoin="round" stroke-width="8" d="M96 20c23.12 0 41.999 20 41.999 39.04 0 1.68-.319 3.28-.48 4.88-.16 1.52-.479 2.8-.8 4.24C130.16 70.88 116.32 74 95.999 74c-20.32 0-34.16-3.12-40.719-5.92a66.42 66.42 0 0 1-.8-4.24c-.16-1.6-.48-3.12-.48-4.88C54 40 72.88 20 96 20ZM77.98 141.2c6.24.56 13.12.8 18 .8 4.879 0 11.759-.24 17.999-.8l-3.04 18.64c-.16 1.28-.8 2.56-1.84 3.44l-2.8 2.56c-.16.16-.4.32-.56.56l-2.96 3.52c-1.04 1.28-2.8 2.08-4.64 2.08h-4.4c-1.84 0-3.6-.8-4.72-2.16l-2.96-3.52c-.16-.16-.32-.4-.56-.56l-2.8-2.56c-.96-.88-1.68-2.16-1.84-3.44l-2.88-18.56ZM57.47 79.28C68.75 82.88 85.308 84 96.028 84c10.72 0 27.28-1.12 38.56-4.72-4.56 12.08-12.56 17.44-14.48 28.72-.88 4.88-1.52 11.76-1.04 16.8.32 3.2-2.16 6-5.36 6.32-5.2.56-11.04.88-17.68.88-6.64 0-12.48-.32-17.68-.88-3.2-.32-5.6-3.12-5.36-6.32.48-5.04-.24-11.92-1.04-16.8-1.92-11.28-9.84-16.64-14.48-28.72Z"/></svg>