<?xml version="1.0" encoding="UTF-8" standalone="no"?>
<!-- Created with Inkscape (http://www.inkscape.org/) -->

<svg
   width="192mm"
   height="192mm"
   viewBox="0 0 192 192"
   version="1.1"
   id="svg21311"
   xml:space="preserve"
   inkscape:version="1.2.2 (b0a8486541, 2022-12-01)"
   sodipodi:docname="hue.svg"
   xmlns:inkscape="http://www.inkscape.org/namespaces/inkscape"
   xmlns:sodipodi="http://sodipodi.sourceforge.net/DTD/sodipodi-0.dtd"
   xmlns="http://www.w3.org/2000/svg"
   xmlns:svg="http://www.w3.org/2000/svg"><sodipodi:namedview
     id="namedview21313"
     pagecolor="#ffffff"
     bordercolor="#000000"
     borderopacity="0.25"
     inkscape:showpageshadow="2"
     inkscape:pageopacity="0.0"
     inkscape:pagecheckerboard="0"
     inkscape:deskcolor="#d1d1d1"
     inkscape:document-units="mm"
     showgrid="false"
     inkscape:zoom="0.8829419"
     inkscape:cx="361.85846"
     inkscape:cy="323.35083"
     inkscape:window-width="2031"
     inkscape:window-height="1074"
     inkscape:window-x="26"
     inkscape:window-y="23"
     inkscape:window-maximized="0"
     inkscape:current-layer="layer1" /><defs
     id="defs21308" /><g
     inkscape:label="Layer 1"
     inkscape:groupmode="layer"
     id="layer1"><path
       d="m 39.999997,61.999997 c -2.206001,0 -4.000002,1.794002 -4.000002,4.000003 v 26 c 0,1.104 0.896001,2 2.000001,2 h 3.999999 c 1.104,0 2.000001,-0.896 2.000001,-2 v -1.54688 c 0.02797,-0.52599 0.497907,-1.50543 1.253907,-2.52343 0.746,-0.994 1.66647,-1.91657 2.730467,-2.72656 1.958,-1.476 4.015159,-2.28907 5.785157,-2.28907 0.218003,0 0.434343,0.009 0.652346,0.0351 2.277997,0.19401 4.379687,1.314 5.679686,3 1.537999,1.952 1.866999,4.3725 1.875001,6.0625 0.006,1.1 0.9,1.98828 1.999997,1.98828 h 4.02344 c 1.104,0 2.000001,-0.896 2.000001,-2 0,-0.20598 -0.02646,-0.37754 -0.05858,-0.51953 -0.268006,-3.938 -1.721847,-7.62669 -4.089846,-10.30469 -2.686,-3.116 -6.792748,-5.05015 -10.968748,-5.16015 -0.172006,-0.01 -0.39128,-0.0155 -0.613281,-0.0155 -4.395999,0 -8.001533,2.21566 -10.269533,4.09766 V 66.000125 c 0,-2.204002 -1.794002,-4.000003 -3.999999,-4.000003 z m 0,2.000005 c 1.104,0 1.999998,0.896001 1.999998,2.000001 V 85.21484 c 0.922,-1.318 2.002658,-2.49725 3.222656,-3.53125 C 47.650653,79.65359 50.791528,78 54.269528,78 c 0.185991,0 0.370583,0.006 0.558592,0.0155 3.548001,0.092 7.135344,1.71237 9.527346,4.48437 2.283999,2.584 3.391563,5.97506 3.601561,9.28906 0.0079,0.072 0.04297,0.13694 0.04297,0.21094 h -4.019531 c -0.01587,-2.644 -0.702969,-5.24953 -2.292968,-7.26953 -1.652001,-2.144 -4.24125,-3.53353 -7.031251,-3.76953 -0.29401,-0.034 -0.588813,-0.0469 -0.882811,-0.0469 -2.434001,0 -4.900094,1.11922 -6.996095,2.69922 -1.174001,0.894 -2.247001,1.951 -3.125,3.125 -0.857998,1.154 -1.590437,2.52075 -1.648437,3.71875 v 1.54687 H 38.003901 V 66.003783 c -0.0042,-1.107998 0.892097,-2.003905 1.996097,-2.003905 z M 139.07031,74.51172 c -1.43,0 -2.80203,0.16248 -4.08203,0.48047 -2.188,0.53 -4.29219,1.55487 -6.24219,3.04687 -3.458,2.696 -6.07091,6.555 -7.37891,10.875 -0.29601,0.956 -0.53093,1.97594 -0.71093,3.08594 h -0.65626 C 117.79399,92 116,93.794 116,96 c 0,2.206 1.79399,4 3.99999,4 h 0.55079 c 0.094,0.65 0.20957,1.26728 0.35157,1.86328 1.142,4.728 4.0374,8.82228 7.9414,11.23828 1.92,1.22 4.17782,2.10678 6.50782,2.55078 l 1.6289,0.2383 c 0.06,0.008 0.12159,0.0155 0.18361,0.0197 l 1.55469,0.0821 0.37111,0.004 c 0.904,0 1.76606,-0.0302 2.66406,-0.0664 4.016,-0.042 8.43069,-1.0215 12.05469,-2.6875 1.542,-0.708 2.36256,-2.38772 1.97656,-4.01172 -0.37799,-1.586 -1.78215,-2.69531 -3.41015,-2.69531 -0.27201,0 -0.5445,0.0299 -0.8125,0.0937 -1.666,0.396 -3.38544,0.81097 -5.02344,1.04297 -1.46,0.18599 -3.10772,0.29212 -5.01172,0.32814 -0.382,0.006 -0.77778,0.0117 -1.17578,0.0117 -0.488,0 -0.97722,-0.006 -1.44922,-0.0155 l -1.08984,-0.043 -1.10938,-0.14842 c -1.288,-0.23199 -2.55759,-0.70825 -3.68359,-1.40625 -2.224,-1.368 -3.88169,-3.63654 -4.67969,-6.39453 H 152 c 3.308,0 6,-2.69201 6,-6 0,-0.0359 -0.002,-0.0734 -0.004,-0.10938 -0.27202,-5 -1.79235,-9.3445 -4.40235,-12.5625 -2.898,-3.626 -7.18772,-6.04691 -11.76172,-6.62891 -0.932,-0.12601 -1.86572,-0.19139 -2.76172,-0.19139 z M 81.999998,76 c -2.206,0 -4.000002,1.794 -4.000002,4 v 12 c 0,1.104 0.896001,2 2.000001,2 h 3.999999 c 1.104,0 2.000001,-0.896 2.000001,-2 V 80 c 0,-2.206 -1.794002,-4 -3.999999,-4 z m 25.999992,0 C 105.79399,76 104,77.794 104,80 v 12 c 0,1.104 0.896,2 2,2 h 4 c 1.104,0 2,-0.896 2,-2 V 80 c 0,-2.206 -1.794,-4 -4.00001,-4 z m 31.07032,0.51172 c 0.846,0 1.68581,0.0619 2.50781,0.17186 4.032,0.51199 7.88084,2.67225 10.46485,5.90624 2.63,3.242 3.74293,7.39816 3.96093,11.41016 0,2.208 -1.79,4 -4,4 h -26.08984 c 0.10401,0.84 0.26445,1.66675 0.48047,2.46875 0.9,3.18 2.85222,5.951 5.57422,7.625 1.354,0.84 2.87874,1.40741 4.46875,1.69141 l 1.20312,0.16013 1.22266,0.0508 c 0.484,0.01 0.98628,0.0155 1.48828,0.0155 0.406,0 0.81294,-0.006 1.21093,-0.0117 1.8,-0.034 3.54591,-0.12964 5.25391,-0.34764 1.702,-0.24 3.42494,-0.64822 5.21094,-1.07422 0.118,-0.028 0.23165,-0.043 0.34764,-0.043 0.682,0 1.29884,0.46625 1.46485,1.15625 0.17,0.71 -0.19594,1.42475 -0.83594,1.71875 l -0.0314,0.0117 c -3.398,1.562 -7.51288,2.46782 -11.29688,2.50782 -0.874,0.034 -1.71184,0.0625 -2.58984,0.0625 h -0.26563 l -1.55078,-0.082 -1.54687,-0.22265 c -2.05,-0.388 -4.04813,-1.15516 -5.82813,-2.28516 -3.612,-2.236 -6.08687,-6.02609 -7.04687,-9.99609 -0.26801,-1.13 -0.42172,-2.26434 -0.51172,-3.40234 h -2.33594 c -1.104,0 -2,-0.89601 -2,-2.00001 0,-1.104 0.896,-1.99999 2,-1.99999 h 2.41015 c 0.15402,-1.52601 0.4171,-3.03782 0.8711,-4.50782 1.158,-3.828 3.45969,-7.35328 6.67969,-9.86328 1.618,-1.238 3.48981,-2.20731 5.50781,-2.69531 1.19,-0.29802 2.40156,-0.42578 3.60156,-0.42578 z M 81.999998,78 c 1.104,0 1.999998,0.896 1.999998,2 V 92 H 79.999997 V 80 c 0,-1.104 0.896001,-2 2.000001,-2 z m 25.999992,0 C 109.10399,78 110,78.896 110,80 v 12 h -4 V 80 c 0,-1.104 0.89599,-2 1.99999,-2 z m 31.1172,1.51172 c -2.64,0 -5.17573,0.90022 -7.26172,2.57422 -2.61201,2.056 -4.50701,5.07147 -5.37501,8.35546 -0.32398,1.15601 -0.49565,2.3546 -0.59765,3.5586 H 152 c 0.146,-3.346 -0.58041,-6.77416 -2.56641,-9.41016 -1.904,-2.688 -4.99497,-4.40234 -8.29297,-4.90234 -0.678,-0.118 -1.35344,-0.17579 -2.02343,-0.17579 z m 0,2 c 0.55799,0 1.12168,0.0485 1.67968,0.14453 2.942,0.446 5.47791,1.93393 7.00391,4.08593 1.25,1.66 1.99378,3.82791 2.17578,6.25391 h -21.8125 c 0.0698,-0.35456 0.15054,-0.6889 0.24219,-1.01172 0.786,-2.974 2.4475,-5.56413 4.6875,-7.32813 1.754,-1.40799 3.83144,-2.14453 6.02344,-2.14453 z M 37.999996,98 c -1.104,0 -2.000001,0.896 -2.000001,2 v 12 c 0,2.206 1.794001,4 4.000002,4 2.205997,0 3.999999,-1.794 3.999999,-4 v -12 c 0,-1.104 -0.896001,-2 -2.000001,-2 z m 26.000002,0 c -1.104,0 -2.000002,0.896 -2.000002,2 v 12 c 0,2.206 1.793999,4 3.999999,4 2.206001,0 4.000003,-1.794 4.000003,-4 v -12 c 0,-1.104 -0.896001,-2 -2.000001,-2 z m 15.996095,0 c -1.104,0 -2.000002,0.896 -2.000002,2 v 1 c 0,0.092 0.0076,0.1759 0.0155,0.25391 -0.01209,0.10401 -0.01776,0.22348 -0.01172,0.35546 0.08398,2.152 0.502095,4.11222 1.246095,5.82422 0.829999,1.934 2.148688,3.66038 3.804688,4.98438 2.763999,2.19999 6.309158,3.4004 10.535158,3.5664 0.22998,0.0121 0.49553,0.0197 0.76953,0.0197 1.794,0 3.57,-0.31302 5,-0.875 1.599998,-0.59001 3.182058,-1.50122 4.664058,-2.69922 0.214,2.006 1.91456,3.57422 3.97657,3.57422 2.206,0 3.99999,-1.79401 3.99999,-4 v -12 C 111.99796,98.89794 111.104,98.00004 110,98.00004 h -4 c -1.104,0 -2,0.896 -2,2 v 2.41015 c -0.066,0.37801 -0.43582,1.24307 -1.25782,2.28907 -0.732,0.94 -1.62384,1.80762 -2.58984,2.51562 -1.697998,1.24 -3.417378,1.8711 -5.109378,1.8711 -0.30999,0 -0.62359,-0.0204 -0.93359,-0.0625 -2.658,-0.244 -4.83503,-1.0645 -6.207029,-2.3125 -1.652001,-1.45999 -1.946253,-3.58899 -1.90625,-5.12499 0.002,-0.116 0.002,-0.20315 0,-0.28517 -0.002,-0.0321 -0.0038,-0.0656 -0.0079,-0.10155 0.006,-0.062 0.0079,-0.12923 0.0079,-0.19922 v -1 c 0,-1.104 -0.896001,-2 -2.000001,-2 z m -41.996097,2 h 3.999999 v 12 c 0,1.104 -0.895998,2 -1.999998,2 -1.104,0 -2.000001,-0.896 -2.000001,-2 z m 26.000002,0 h 3.999999 v 12 c 0,1.104 -0.896002,2 -2.000002,2 -1.104,0 -1.999997,-0.896 -1.999997,-2 z m 15.999999,0 h 3.999999 v 1 c 0,0.074 -0.03515,0.13704 -0.04297,0.20704 0.0079,0.06 0.04097,0.10798 0.04297,0.16796 0.002,0.042 0.002,0.085 0,0.12499 v 0.0314 c -0.06799,2.586 0.692594,5.01016 2.558596,6.66016 1.838,1.672 4.535154,2.5605 7.28516,2.8125 0.40399,0.054 0.80321,0.0821 1.19921,0.0821 2.256,0 4.36297,-0.84981 6.292978,-2.25781 1.11199,-0.816 2.13046,-1.80054 2.98046,-2.89454 0.832,-1.05999 1.5896,-2.38634 1.6836,-3.40234 v -2.53138 h 4 v 12 c 0,1.104 -0.89601,2 -2.00001,2 -1.104,0 -1.99999,-0.896 -1.99999,-2 v -4.58203 c -0.89401,1.254 -1.93682,2.38709 -3.13282,3.37109 -1.25,1.024 -2.66219,1.89456 -4.242178,2.47657 -1.31201,0.516 -2.87954,0.73437 -4.26954,0.73437 -0.23599,0 -0.46931,-0.004 -0.69531,-0.0155 -3.187999,-0.124 -6.577279,-0.9109 -9.363278,-3.1289 -1.376001,-1.1 -2.512751,-2.57866 -3.218752,-4.22266 -0.715997,-1.644 -1.016031,-3.39756 -1.082029,-5.10156 -0.0042,-0.10402 0.03477,-0.19299 0.04687,-0.29295 -0.006,-0.084 -0.04297,-0.15429 -0.04297,-0.2383 z m 45.679683,35.99609 c -2.014,-0.074 -4.03025,1.20838 -4.15624,3.73438 -0.062,1.25 0.51027,2.65159 1.98827,3.18359 l 2.30079,0.83594 c 0.572,0.24401 0.58946,0.48769 0.60547,0.67969 0.028,0.35399 -0.31752,0.62478 -0.76954,0.80078 -0.598,0.23399 -2.36862,0.25107 -3.89062,-0.21093 v 2.89453 c 0.5,0.082 1.99006,0.40618 3.91406,0.24219 1.692,-0.144 3.81166,-1.14078 3.84766,-3.80078 0.0159,-1.146 -0.338,-2.48072 -2,-3.13672 l -2.4961,-0.88672 v -0.004 c -0.27201,-0.10801 -0.492,-0.35032 -0.49999,-0.57031 -0.0181,-0.436 0.33698,-0.84341 1.12499,-0.94141 0.70601,-0.088 1.34694,-0.0953 2.71094,0.22266 v -2.86719 c -1.218,-0.168 -2.05769,-0.15379 -2.67969,-0.17579 z m -50.76562,0.004 v 12 h 3.124997 v -4.8164 h 3.359377 v 4.8164 h 3.121096 v -12 h -3.125001 l 0.0038,4.46485 h -3.359397 v -4.46485 z m 13.019532,0 v 12 h 3.121092 v -12 z m 6.58594,0 v 12 h 6.339838 v -2.72265 h -3.218748 v -9.27735 z m 8.999998,0 v 12 h 2.62109 v -12 z m -36.335938,0.008 c -1.134002,-0.0299 -1.275035,0.0181 -4.707035,0.0703 v 2.27344 0.35936 9.28906 h 3.101564 v -2.55078 c 0.614003,0.002 1.278814,0.0125 1.632812,-0.0197 4.208002,-0.216 4.788688,-3.67328 4.804687,-4.61328 0.02797,-1.63399 -0.553251,-2.76199 -1.281248,-3.5 -0.756001,-0.766 -1.806781,-1.26459 -3.55078,-1.30859 z m 47.035158,0 c -1.126,-0.028 -1.26388,0.0181 -4.67188,0.0703 v 2.05469 0.55859 9.22656 h 3.07812 v -2.53515 c 0.612,0.002 1.2751,0.0144 1.6211,-0.0155 4.178,-0.214 4.75744,-3.65194 4.77344,-4.58594 0.0261,-1.624 -0.54944,-2.74065 -1.27344,-3.47265 -0.75,-0.76 -1.79734,-1.25678 -3.52734,-1.30079 z m -0.45313,2.66016 c 1.09106,0.12299 1.95153,0.76593 1.89453,2.08593 -0.07,1.56601 -1.38115,2.08723 -3.03516,1.94923 l -0.004,0.008 v -3.99999 h 0.004 c 0.38901,-0.069 0.77694,-0.084 1.14063,-0.043 z m -47.03906,0.0155 c 1.098562,0.12385 1.968654,0.77256 1.910155,2.10156 -0.06799,1.578 -1.390591,2.10484 -3.058594,1.96485 v -4.01954 c 0.391502,-0.0695 0.782252,-0.0881 1.148439,-0.0469 z"
       id="path22650"
       style="stroke-width:1.99999"
       sodipodi:nodetypes="cssssscccscccssscccscscccsccscccccccscccccccccccccssscccccccccccscccscccccsscccccssssssssssssssssccccsccccccscccsccccsccccccsssccccccssccssssccsssccccccsssccccccsssssssssssssssssscsscccccsccsscssscccscccccssccccssscccssscccsccccccscccccssscccscccccscccccccccccccccccccccccccccccccccccccccccccccccccccccccccccccccccccccccccccccccccccccccc" /></g></svg>
