<svg width="192" height="192" viewBox="0 0 192 192" fill="none" xmlns="http://www.w3.org/2000/svg">
<g id="Hungerbox">
<g id="Icon">
<path id="Ellipse 19" d="M144.523 151.548C155.495 141.153 162.236 127.501 163.699 112.99C164.031 109.693 161.314 107 158 107H97.5L37 107C33.6863 107 30.9688 109.694 31.3011 112.991C32.7637 127.501 39.5057 141.154 50.4776 151.548C62.9488 163.363 79.8633 170 97.5002 170C115.137 170 132.052 163.362 144.523 151.548Z" stroke="black" stroke-width="12" stroke-linejoin="round"/>
<path id="Rectangle 11" d="M79.7175 32.5221C78.8598 29.3213 80.7593 26.0313 83.9601 25.1736L98.449 21.2914C101.65 20.4337 104.94 22.3332 105.797 25.534L109.68 40.0229C110.537 43.2237 108.638 46.5137 105.437 47.3714L90.9482 51.2536C87.7474 52.1113 84.4574 50.2118 83.5998 47.011L79.7175 32.5221Z" stroke="black" stroke-width="10" stroke-linejoin="round"/>
<path id="Polygon 5" d="M124.692 60.3589C125.893 55.8998 131.471 54.413 134.733 57.6824L148.576 71.5584C151.857 74.8469 150.317 80.4557 145.817 81.6084L126.931 86.4462C122.482 87.586 118.454 83.5078 119.649 79.0728L124.692 60.3589Z" stroke="black" stroke-width="10" stroke-linejoin="round"/>
<circle id="Ellipse 18" cx="57.5" cy="74.5" r="14.5" stroke="black" stroke-width="10" stroke-linejoin="round"/>
</g>
</g>
</svg>
