<svg xmlns="http://www.w3.org/2000/svg" width="192" height="192" fill="none"><path stroke="#000" stroke-linejoin="round" stroke-width="12" d="M131.5 25a8.875 8.875 0 0 0-8.875 8.875v36.61c0 6.656-1.109 8.874-8.875 8.874h-35.5c-6.656 0-8.875-2.218-8.875-8.875V33.875A8.875 8.875 0 0 0 60.5 25H33.875A8.875 8.875 0 0 0 25 33.875v124.25A8.875 8.875 0 0 0 33.875 167H60.5a8.875 8.875 0 0 0 8.875-8.875v-36.609c0-6.657 2.219-8.875 8.875-8.875h35.5c7.766 0 8.875 2.218 8.875 8.875v36.609A8.874 8.874 0 0 0 131.5 167h26.625a8.874 8.874 0 0 0 8.875-8.875V33.875A8.875 8.875 0 0 0 158.125 25z"/></svg>