<svg xmlns="http://www.w3.org/2000/svg" width="192" height="192" fill="none"><path stroke="#000" stroke-linecap="round" stroke-linejoin="round" stroke-width="12" d="m84.943 131.244-4.947 15.125m-36.824-16.067-4.947 15.125m81.068 9.447L114.346 170m-62.778-58.936-11.418-3.686c-3.154-1.018-4.88-4.383-3.855-7.515l14.84-45.377c1.025-3.133 4.411-4.847 7.564-3.83l5.71 1.844c3.152 1.018 6.539-.697 7.563-3.83l3.71-11.343c1.025-3.133 4.412-4.847 7.564-3.83l9.516 3.072c3.153 1.018 6.54-.696 7.564-3.829l2.164-6.617c1.024-3.133 4.411-4.847 7.564-3.83l19.03 6.144c3.153 1.018 4.879 4.382 3.854 7.515l-2.164 6.617c-1.024 3.133.701 6.497 3.854 7.515l9.515 3.072c3.153 1.018 4.879 4.382 3.854 7.515l-3.71 11.344c-1.024 3.133.701 6.497 3.854 7.515l5.709 1.843c3.154 1.018 4.879 4.382 3.855 7.515l-14.84 45.377c-1.025 3.132-4.411 4.847-7.564 3.829l-11.419-3.686c-3.153-1.018-4.878-4.383-3.854-7.515l5.565-17.016c1.025-3.133-.701-6.498-3.854-7.515l-8.563-2.765c-3.153-1.018-6.54.697-7.564 3.829l-1.855 5.672c-1.025 3.133-4.411 4.847-7.564 3.829l-9.516-3.071c-3.153-1.018-4.878-4.383-3.854-7.515l1.855-5.672c1.025-3.133-.7-6.498-3.854-7.515l-8.563-2.765c-3.153-1.018-6.54.697-7.564 3.83l-5.565 17.016c-1.025 3.132-4.411 4.846-7.564 3.829"/></svg>