<svg width="192" height="192" fill="none" xmlns="http://www.w3.org/2000/svg"><path d="M140.234 65.364a53.006 53.006 0 0 1 28.28 35.173 53.005 53.005 0 0 1-26.632 59.259 52.994 52.994 0 0 1-64.02-11.058" stroke="#000" stroke-width="12" stroke-linecap="round" stroke-linejoin="round"/><circle cx="147" cy="33" r="6" stroke="#000" stroke-width="12" stroke-linecap="round" stroke-linejoin="round"/><path d="M23.477 71.81c-3.67-7.872-.265-17.23 7.607-20.9L79.19 28.477c7.872-3.67 17.23-.265 20.901 7.607l22.432 48.106c3.671 7.872.265 17.23-7.607 20.901L66.81 127.523c-7.872 3.671-17.23.265-20.9-7.607L23.477 71.81Z" stroke="#000" stroke-width="12" stroke-linecap="round" stroke-linejoin="round"/></svg>