<svg xmlns="http://www.w3.org/2000/svg" width="192" height="192" fill="none" stroke="#000" stroke-linecap="round" stroke-linejoin="round" viewBox="0 0 192 192"><path stroke-width="12" d="M22 170c13-5 24.17 2 26-7 .467-2.296-1.406-4.125 0-6 1.874-2.499 5.943 2.351 8 0 1.8-2.057-1.8-4.943 0-7 2.057-2.351 8 0 8 0s4.803 1.612 8 2c6.251.758 10.668 1.35 16-2 7.74-4.864 8-24 8-24s.546 14.431 7 19c5.456 3.863 14.206-3.589 17 2 1.397 2.794-2.209 5.791 0 8s19.334-10.205 22-2c.845 2.6-2.373 5.644 0 7 1.356.775 2.644-.775 4 0 2.373 1.356-1.814 4.955 0 7 2.39 2.693 5.401-5.095 9-5 6.637.175 9.142 4.876 15 8"/><path stroke-width="10" d="m76 101-8.058-26.86a6 6 0 0 1 1.191-5.629L73 64v-7s-.423-24.889 23-36m20 80 8.058-26.86a6 6 0 0 0-1.191-5.629L119 64v-7s.423-24.889-23-36m-20 80 10-7 10 12 10-12 10 7"/><circle cx="96" cy="55" r="4" stroke-width="8"/></svg>