<svg width="192" height="192" viewBox="0 0 192 192" fill="none" xmlns="http://www.w3.org/2000/svg"><path d="M170 102A73.999 73.999 0 0 0 43.674 49.674 74 74 0 0 0 22 102" stroke="#000" stroke-width="12" stroke-linecap="round" stroke-linejoin="round"/><circle cx="96" cy="81" r="4" stroke="#000" stroke-width="8" stroke-linecap="round" stroke-linejoin="round"/><path d="M96 135a27.998 27.998 0 0 1-28 28c-20 0-46-10-46-61" stroke="#000" stroke-width="12" stroke-linecap="round" stroke-linejoin="round"/><path d="M96 135a27.998 27.998 0 0 0 28 28c20 0 46-10 46-61" stroke="#000" stroke-width="12" stroke-linecap="round" stroke-linejoin="round"/><path d="M96 49s-26 9-26 53c-16 16-6 35-6 35l14-11 6 8h12m0-85s26 9 26 53c16 16 6 35 6 35l-14-11-6 8H96" stroke="#000" stroke-width="10" stroke-linecap="round" stroke-linejoin="round"/></svg>