<svg xmlns="http://www.w3.org/2000/svg" width="192" height="192" fill="none" stroke="#000" stroke-linecap="round" stroke-linejoin="round" stroke-width="12" viewBox="0 0 192 192"><path d="M68.052 132.227a58.541 58.541 0 1 1 15.312 5.575"/><path stroke-width="8" d="M72.165 88.827c9.413 0 17.043-7.63 17.043-17.043s-7.63-17.043-17.043-17.043-17.042 7.63-17.042 17.043 7.63 17.043 17.042 17.043m45.408-2.717c9.412 0 17.043-7.63 17.043-17.042s-7.631-17.043-17.043-17.043c-9.413 0-17.043 7.63-17.043 17.043s7.63 17.043 17.043 17.043z"/><path stroke-width="8" d="M107.612 82.815a7.319 7.319 0 1 1 7.338 3.114M73.39 88.65a7.318 7.318 0 1 1 7.332-2.172"/><path d="m68.052 132.227-10.73 32.2L72.633 170l10.73-32.198"/></svg>