<?xml version="1.0" encoding="UTF-8"?>
<!-- Created with Inkscape (http://www.inkscape.org/) -->
<svg width="192" height="192" version="1.1" viewBox="0 0 50.8 50.8" xml:space="preserve" xmlns="http://www.w3.org/2000/svg"><g fill="none" stroke="#000" stroke-dashoffset="669.6" stroke-linecap="round" stroke-linejoin="round" stroke-miterlimit="15"><path d="m12.581 9.5833c-3.4968 0.098438-3.497 3.743-3.4477 5.1221 0.049318 1.3791 1.1329 5.6644 1.8717 6.7478 0.73878 1.0834 1.7237 6.2057 1.8715 7.1416 0.14776 0.93585 2.315 4.3342 4.4328 7.0431 2.1179 2.7089 6.2554 9.654 9.8017 9.6047 3.5463-0.04932 8.5211-5.4184 11.033-12.806 2.512-7.3878 3.2017-15.958 2.5613-18.765-0.64034-2.8075-4.679-8.6195-9.2107-8.0776-4.5317 0.5419-6.0585 4.1373-6.5018 4.8761-0.44326 0.73878-1.6257 4.1373-3.251 4.2358-1.6253 0.09843-5.9104-5.1223-9.161-5.1223" stroke-width="2.6458" style="paint-order:markers fill stroke"/><g stroke-width="1.5875"><path d="m26.092 24.065c-0.34473-2.6597 0.83741-4.9991 8.5213-4.8021" style="paint-order:markers fill stroke"/><path d="m26.092 24.065c3.4238-0.02466 7.6834-3.9402 8.5213-4.8021" style="paint-order:markers fill stroke"/><path d="m13.771 21.658c3.0044 0 7.9879 4.1e-5 7.9387 2.8011-2.2904 1.2806-5.7221 1.2438-7.9387-2.8011z" style="paint-order:markers fill stroke"/><path d="m27.845 29.371c0 1.3235 0.1163 2.3034-0.54544 2.2337-0.66174-0.06973-1.8826 0.24383-2.2658 0.76622-0.38318 0.52239-1.5162 0.92688-2.179 0.30161-0.71707-0.67641 0.92455-9.2402 0.92455-9.2402" style="paint-order:markers fill stroke"/><path d="m15.244 16.858c3.9705 2.8209 7.4881 5.9553 10.727-1.8459 3.2391-7.8012 10.006-4.8432 12.246-0.22204" style="paint-order:markers fill stroke"/><path d="m35.672 14.63c-1.9156-2.1244-4.3993-4.2835-9.1121 3.8313" style="paint-order:markers fill stroke"/><path d="m32.31 28.991c1.4087-0.78944 2.2523-0.68561 3.0064 0.25759" style="paint-order:markers fill stroke"/><path d="m19.528 29.003c-1.8459 2.3113-2.6121 2.703-4.7367 1.6083" style="paint-order:markers fill stroke"/><path d="m33.808 30.611c-0.52239 0.51403-2.2987 3.4067-3.4546 5.2527-1.1559 1.846-3.0906 3.3436-4.5949 3.4132-1.5043 0.06959-4.4707-4.3181-7.3615-6.5819 5.0855 2.6601 5.6789 3.5741 7.3572 3.3303 1.6784-0.24383 7.1825-4.1597 8.0537-5.4142z" style="paint-order:markers fill stroke"/></g></g></svg>
