<?xml version="1.0" encoding="UTF-8"?>
<!-- Created with Inkscape (http://www.inkscape.org/) -->
<svg width="192" height="192" version="1.1" viewBox="0 0 50.8 50.8" xml:space="preserve" xmlns="http://www.w3.org/2000/svg"><g stroke="#000" stroke-dashoffset="669.6" stroke-linecap="round" stroke-linejoin="round" stroke-miterlimit="15"><g fill="none"><path d="m18.755 19.615c-1.531 1.2148-0.79567 2.4017-0.65893 2.912 0.13828 0.51606 0.88706 2.181 1.0377 2.5471 0.15749 0.38291 0.26075 1.7808 0.43436 2.2584s0.91204 1.9979 1.3464 2.3452c0.43436 0.34739 2.7022 3.6918 3.605 4.4301 0.90277 0.73826 2.2584 0.73826 3.4312-0.43436 1.1728-1.1726 4.2132-8.252 3.8223-11.118-0.39088-2.8664-2.2586-5.1249-4.0829-4.9078-1.8243 0.2171-2.0847 1.0422-2.5625 1.7806s-0.60797 1.8241-1.6505 1.9979-1.5481-0.94244-2.1104-1.423c-0.70285-0.60073-1.6935-1.0717-2.6118-0.3878z" stroke-width="2.1167" style="paint-order:markers fill stroke"/><g stroke-width="1.5875"><path d="m25.943 24.886c0-0.96269 0.58946-2.0099 3.483-2.005" style="paint-order:markers fill stroke"/><path d="m18.782 24.258c3.1273 0.08794 3.9683-0.2363 4.89 0.75456 0.36268 0.38989-0.07602 4.3432 0.20631 4.5278 0.28233 0.18461 0.81441 0.03258 1.0533-0.23888 0.23888-0.27145 0.85777-0.15204 0.95553-0.21718 0.09776-0.06515 0.27146-0.20635 0.24975-0.83611" style="paint-order:markers fill stroke"/><path d="m9.8977 11.313c3.8221 1.8241 8.8571 8.3021 8.8571 8.3021" style="paint-order:markers fill stroke"/><path d="m9.8977 11.313c2.504 3.0762 6.3387 12.981 6.3387 12.981" style="paint-order:markers fill stroke"/><path d="m7.1223 22.818c3.2358-0.13741 9.114 1.4752 9.114 1.4752" style="paint-order:markers fill stroke"/><path d="m7.1223 22.818c5.6685 3.767 13.792 6.8594 13.792 6.8594" style="paint-order:markers fill stroke"/><path d="m20.914 29.677s-4.7418 2.2949-5.4214 2.5009c-0.86042 0.26077-3.9585 1.0089-6.6948 2.2903 4.5607 0.11856 9.36-0.22882 11.01-0.70659 1.6505-0.47776 3.4306-1.1058 3.4306-1.1058" style="paint-order:markers fill stroke"/><path d="m23.696 33.225c-0.17412 1.1401-2.1714 3.8105-5.4506 6.7422 4.9298-2.2369 7.3958-4.543 7.8241-5.3552" style="paint-order:markers fill stroke"/><path d="m18.755 19.615c-0.71681-4.8419 3.0757-11.045 3.0757-11.045-0.17235 4.0845-0.70641 4.9751-0.61428 6.265 0.09213 1.2898 0.76874 2.7025 0.94108 2.9175" style="paint-order:markers fill stroke"/><path d="m22.157 17.752c2.325-4.6066 6.2148-6.9714 6.952-7.5242 0.73716-0.55278 3.1019-2.3646 3.6548-2.7639-0.55278 2.0576-2.7335 5.0058-3.5627 5.6814-0.82917 0.67566-2.8513 3.488-2.5081 4.7264" style="paint-order:markers fill stroke"/><path d="m38.321 16.186c-3.962-1.0442-10.105-0.032032-10.631 1.4613" style="paint-order:markers fill stroke"/><path d="m30.174 18.834c1.4514-1.6961 5.8437-3.1631 8.1469-2.6482" style="paint-order:markers fill stroke"/><path d="m43.88 25.73c-5.0675-4.4321-11.563-6.9036-13.706-6.8962" style="paint-order:markers fill stroke"/><path d="m43.88 25.73c-6.2663-2.743-8.2416-3.7585-12.101-2.0295" style="paint-order:markers fill stroke"/><path d="m31.779 23.701c2.3486 1.2564 6.6541 7.1275 6.2548 12.256-2.918-5.5858-1.1191-4.0039-5.0284-7.0232" style="paint-order:markers fill stroke"/><path d="m30.447 43.205c3.0607-5.4668 2.5585-14.271 2.5585-14.271" style="paint-order:markers fill stroke"/><path d="m30.447 43.205c0.24576-6.2348-0.49686-9.6632-1.5844-10.913" style="paint-order:markers fill stroke"/></g></g><g stroke-width=".87136"><ellipse cx="8.5312" cy="9.9244" rx=".55608" ry=".55608" style="paint-order:markers fill stroke"/><ellipse cx="22.51" cy="6.8066" rx=".55608" ry=".55608" style="paint-order:markers fill stroke"/><ellipse cx="33.987" cy="6.0304" rx=".55608" ry=".55608" style="paint-order:markers fill stroke"/><ellipse cx="5.2251" cy="22.393" rx=".55608" ry=".55608" style="paint-order:markers fill stroke"/><ellipse cx="6.906" cy="34.938" rx=".55608" ry=".55608" style="paint-order:markers fill stroke"/><ellipse cx="16.727" cy="41.149" rx=".55608" ry=".55608" style="paint-order:markers fill stroke"/><ellipse cx="29.895" cy="45.03" rx=".55608" ry=".55608" style="paint-order:markers fill stroke"/><ellipse cx="38.52" cy="37.758" rx=".55608" ry=".55608" style="paint-order:markers fill stroke"/><ellipse cx="45.575" cy="26.662" rx=".55608" ry=".55608" style="paint-order:markers fill stroke"/><ellipse cx="40.161" cy="16.489" rx=".55608" ry=".55608" style="paint-order:markers fill stroke"/></g></g></svg>
