<?xml version="1.0" encoding="UTF-8"?>
<!-- Created with Inkscape (http://www.inkscape.org/) -->
<svg width="192" height="192" version="1.1" viewBox="0 0 50.8 50.8" xml:space="preserve" xmlns="http://www.w3.org/2000/svg"><g fill="none" stroke="#000" stroke-dashoffset="669.6" stroke-linecap="round" stroke-linejoin="round" stroke-miterlimit="15"><path d="m12.707 9.7442c-3.4613 0.097437-3.4615 3.705-3.4126 5.0701 0.048816 1.3651 1.1214 5.6068 1.8527 6.6792 0.73127 1.0724 1.7062 6.1426 1.8525 7.069 0.14625 0.92634 2.2914 4.2902 4.3878 6.9715 2.0964 2.6814 6.1918 9.5559 9.7021 9.5071 3.5103-0.04881 8.4345-5.3633 10.921-12.676 2.4865-7.3127 3.1691-15.795 2.5353-18.574-0.63383-2.779-4.6315-8.5319-9.1171-7.9955-4.4856 0.53639-5.997 4.0953-6.4357 4.8266-0.43876 0.73127-1.6092 4.0953-3.218 4.1927-1.6088 0.09743-5.8503-5.0702-9.0679-5.0702" stroke-width="3.0505" style="paint-order:markers fill stroke"/><path d="m26.082 24.079c-0.34123-2.6327 0.8289-4.9483 8.4347-4.7533" stroke-width="1.5875" style="paint-order:markers fill stroke"/><path d="m26.082 24.079c3.389-0.0244 7.6053-3.9001 8.4347-4.7533" stroke-width="1.5875" style="paint-order:markers fill stroke"/><g stroke-width="1.5875"><path d="m13.886 21.696c2.9739 0 7.9067 4.1e-5 7.858 2.7727-2.2671 1.2676-5.664 1.2312-7.858-2.7727z" style="paint-order:markers fill stroke"/><path d="m27.817 29.331c0 1.31 0.11511 2.28-0.5399 2.211-0.65502-0.06903-1.8635 0.24135-2.2428 0.75844-0.37928 0.51708-1.5008 0.91746-2.1569 0.29854-0.70979-0.66954 0.91515-9.1463 0.91515-9.1463" style="paint-order:markers fill stroke"/><path d="m15.343 16.945c3.9301 2.7923 7.412 5.8948 10.618-1.8271 3.2062-7.7219 9.9039-4.794 12.121-0.21978" style="paint-order:markers fill stroke"/></g><path d="m35.564 14.74c-1.8962-2.1029-4.3546-4.2399-9.0195 3.7923" stroke-width="1.5875" style="paint-order:markers fill stroke"/><path d="m32.236 28.954c1.3944-0.78142 2.2294-0.67865 2.9759 0.25497" stroke-width="1.5875" style="paint-order:markers fill stroke"/><path d="m19.584 28.967c-1.8271 2.2878-2.5856 2.6756-4.6885 1.592" stroke-width="1.5875" style="paint-order:markers fill stroke"/><path d="m33.719 30.559c-0.51708 0.5088-2.2753 3.372-3.4195 5.1993s-3.0592 3.3096-4.5482 3.3785c-1.489 0.06889-4.4253-4.2743-7.2867-6.5151 5.0339 2.6331 5.6211 3.5378 7.2825 3.2964 1.6613-0.24135 7.1095-4.1174 7.9719-5.3592z" stroke-width="1.5875" style="paint-order:markers fill stroke"/></g></svg>
