<svg width="192" height="192" viewBox="0 0 192 192" fill="none" xmlns="http://www.w3.org/2000/svg"><path d="M68 108c0-15 12-22 28-38 16 16 28 23 28 38M96 70c-25-25 0-48 0-48" stroke="#000" stroke-width="12" stroke-linecap="round" stroke-linejoin="round"/><path d="M96 22C78.403 39.597 61.41 52.508 49.678 66.8M34 108c0-16.878 6.077-29.502 15.678-41.2M96 136c-30.588 0-67.572-41.117-46.322-69.2M96 22c32 32 62 48.5 62 86" stroke="#000" stroke-width="12" stroke-linecap="round" stroke-linejoin="round"/><path d="M96 70c33 32 67 58 43.841 81.841m0 0A62.004 62.004 0 0 0 158 108m-18.159 43.841a62.004 62.004 0 0 1-87.682 0A62.003 62.003 0 0 1 34 108" stroke="#000" stroke-width="12" stroke-linecap="round" stroke-linejoin="round"/><path d="M124 108a28 28 0 0 1-56 0" stroke="#000" stroke-width="12" stroke-linecap="round" stroke-linejoin="round"/></svg>