<?xml version="1.0" encoding="utf-8"?>
	<svg version="1.1" xmlns="http://www.w3.org/2000/svg" xmlns:xlink="http://www.w3.org/1999/xlink" x="0px" y="0px" width="240.0" height="240.0" xml:space="preserve">
		<path d="M120,33C148.559,33 172.482,53.538 177.482,80.831C172.369,79.615 167.041,78.974 161.564,78.974C132.92,78.972 107.279,96.739 97.221,123.559C96.226,126.211 97.571,129.167 100.223,130.162C102.875,131.156 105.832,129.811 106.826,127.159C115.384,104.344 137.197,89.23 161.564,89.231C168.374,89.224 175.132,90.409 181.533,92.733L181.533,92.733L181.708,92.795C183.282,93.374 184.83,94.021 186.349,94.733L186.324,94.722L186.349,94.733L186.473,94.791L186.473,94.791L186.994,95.04L186.413,94.764L186.992,95.04C195.322,99.078 202.578,105.03 208.168,112.409L208.498,112.85L208.241,112.504L208.668,113.076L208.668,113.076L209.031,113.576L208.917,113.421L209.236,113.867L209.146,113.735L209.352,114.027L209.879,114.787L210.036,115.016C215.497,123.117 218.837,132.465 219.744,142.201L219.794,142.768L219.859,143.595C219.929,144.611 219.973,145.629 219.991,146.648L220,147.667L219.992,148.618C219.492,179.955 194.33,205.295 163.072,206.087L163.072,206.087L161.564,206.108C160.81,206.108 160.056,206.092 159.308,206.062L159.308,206.062L153.338,205.836L153.369,206.108L78.436,206.108C46.164,206.108 20,179.944 20,147.667C20,123.156 35.291,101.249 58.297,92.795L58.297,92.795L61.467,91.631L61.646,88.256C63.303,57.349 88.908,33 120,33Z" fill="#000" stroke="#00000000" stroke-width="1.0" stroke-miterlimit=""/>
	</svg>
