<?xml version="1.0" encoding="utf-8"?>
	<svg version="1.1" xmlns="http://www.w3.org/2000/svg" xmlns:xlink="http://www.w3.org/1999/xlink" x="0px" y="0px" width="240.0" height="240.0" xml:space="preserve">
		<path d="M184.275,30.046L55.725,30.046C42.433,29.231 30.961,39.26 30,52.535L30,187.465C30.961,200.74 42.433,210.769 55.725,209.954L184.275,209.954C197.567,210.769 209.039,200.74 210,187.465L210,52.535C209.039,39.26 197.567,29.231 184.275,30.046L184.275,30.046ZM50.775,64.304C51.297,56.49 57.945,50.509 65.775,50.811L87.45,50.811C90.613,50.64 93.324,53.048 93.525,56.208C93.324,59.368 90.613,61.776 87.45,61.605L69.15,61.605C67.598,61.502 66.068,62.022 64.9,63.049C63.732,64.076 63.021,65.525 62.925,67.077L62.925,86.117C62.724,89.277 60.013,91.686 56.85,91.515C55.337,91.617 53.846,91.114 52.706,90.115C51.566,89.116 50.871,87.705 50.775,86.192L50.775,64.304ZM87.45,189.189L66,189.189C58.17,189.491 51.522,183.51 51,175.696L51,153.808C51.096,152.295 51.791,150.884 52.931,149.885C54.071,148.886 55.562,148.383 57.075,148.485C60.238,148.314 62.949,150.723 63.15,153.883L63.15,172.923C63.246,174.475 63.957,175.924 65.125,176.951C66.293,177.978 67.823,178.498 69.375,178.395L87.45,178.395C89.379,178.395 91.163,179.423 92.127,181.093C93.092,182.763 93.092,184.821 92.127,186.491C91.163,188.161 89.379,189.19 87.45,189.189L87.45,189.189ZM88.275,145.112L88.275,143.088C88.275,137.091 99.375,131.544 109.125,128.096C111.658,126.276 112.592,122.946 111.375,120.075C106.194,115.341 103.139,108.721 102.9,101.709C102.783,97.208 104.573,92.866 107.83,89.754C111.086,86.642 115.506,85.049 120,85.368C124.514,85.053 128.954,86.64 132.245,89.745C135.536,92.849 137.378,97.187 137.325,101.709C137.033,108.89 133.807,115.637 128.4,120.375C126.225,125.547 129.3,128.396 129.75,128.396C139.575,131.169 151.125,137.091 151.5,143.388L151.5,145.412C151.5,153.358 135.075,154.932 120,154.932C104.925,154.932 88.275,152.608 88.275,145.112L88.275,145.112ZM189.15,175.696C189.161,179.347 187.538,182.812 184.725,185.141C181.77,187.764 177.952,189.206 174,189.189L152.55,189.189C150.621,189.189 148.837,188.161 147.873,186.491C146.908,184.821 146.908,182.763 147.873,181.093C148.837,179.423 150.621,178.395 152.55,178.395L170.85,178.395C172.402,178.498 173.932,177.978 175.1,176.951C176.268,175.924 176.979,174.475 177.075,172.923L177.075,153.883C177.418,150.809 180.018,148.484 183.113,148.484C186.207,148.484 188.807,150.809 189.15,153.883L189.15,175.696ZM189.15,86.117C188.679,89.106 186.102,91.307 183.075,91.307C180.048,91.307 177.471,89.106 177,86.117L177,67.077C176.904,65.525 176.193,64.076 175.025,63.049C173.857,62.022 172.327,61.502 170.775,61.605L152.55,61.605C149.387,61.776 146.676,59.368 146.475,56.208C146.676,53.048 149.387,50.64 152.55,50.811L173.925,50.811C177.897,50.804 181.737,52.243 184.725,54.859C187.557,57.18 189.207,60.643 189.225,64.304L189.15,86.117Z" fill="#000" stroke="#00000000" stroke-width="1.0" stroke-miterlimit=""/>
	</svg>
