<?xml version="1.0" encoding="utf-8"?>
	<svg version="1.1" xmlns="http://www.w3.org/2000/svg" xmlns:xlink="http://www.w3.org/1999/xlink" x="0px" y="0px" width="240.0" height="240.0" xml:space="preserve">
		<path d="M63,117l57.5,-34l57,34l0,65l-57,32.5l-59.5,-32.5z" fill="#000" stroke="#00000000" stroke-width="1.0" stroke-miterlimit=""/>
		<path d="M117.948,78.187C119.416,77.34 121.222,77.34 122.689,78.187L122.689,78.187L180.265,111.432C180.403,111.511 180.534,111.604 180.662,111.697C180.699,111.723 180.74,111.744 180.777,111.773C180.99,111.936 181.182,112.12 181.362,112.315C181.412,112.37 181.462,112.426 181.509,112.484C181.691,112.699 181.858,112.922 181.999,113.164C181.999,113.164 182.001,113.164 182.001,113.166C182.003,113.166 182.003,113.168 182.003,113.168C182.144,113.412 182.253,113.672 182.348,113.937C182.373,114.003 182.398,114.071 182.418,114.14C182.497,114.396 182.561,114.656 182.596,114.925C182.602,114.964 182.6,115.006 182.604,115.045C182.621,115.208 182.638,115.369 182.638,115.535L182.638,115.535L182.638,182.018C182.638,183.713 181.734,185.277 180.271,186.123L180.271,186.123L122.694,219.365C122.551,219.446 122.404,219.514 122.255,219.58C122.218,219.599 122.183,219.62 122.144,219.636C121.894,219.74 121.635,219.814 121.375,219.874C121.305,219.888 121.234,219.903 121.162,219.915C120.883,219.965 120.602,220 120.321,220C120.038,220 119.759,219.965 119.48,219.915C119.407,219.903 119.337,219.89 119.267,219.874C119.006,219.816 118.748,219.74 118.498,219.636C118.459,219.62 118.423,219.597 118.386,219.58C118.237,219.514 118.091,219.448 117.948,219.365L117.948,219.365L60.371,186.123C58.903,185.275 58,183.709 58,182.016L58,182.016L58,115.533C58,115.367 58.017,115.206 58.033,115.043C58.037,115.001 58.035,114.962 58.041,114.923C58.076,114.654 58.141,114.394 58.219,114.137C58.24,114.069 58.262,114.003 58.287,113.935C58.382,113.668 58.492,113.41 58.632,113.166C58.635,113.166 58.635,113.164 58.635,113.164C58.635,113.164 58.637,113.164 58.637,113.162C58.777,112.92 58.945,112.697 59.126,112.482C59.174,112.424 59.224,112.368 59.273,112.315C59.455,112.12 59.647,111.936 59.86,111.773C59.897,111.744 59.939,111.721 59.976,111.694C60.104,111.601 60.232,111.511 60.371,111.43L60.371,111.43ZM67.483,123.746L67.483,179.282L115.577,207.049L115.577,151.514L94.729,139.477L94.729,157.018C94.729,159.636 92.607,161.759 89.988,161.759C87.37,161.759 85.247,159.636 85.247,157.018L85.247,157.018L85.247,134.002L67.483,123.746ZM173.155,123.748L125.06,151.514L125.06,207.049L173.155,179.282L173.155,123.748ZM146.565,102.921L98.472,130.689L120.319,143.3L168.412,115.535L146.565,102.921ZM120.319,87.767L72.226,115.535L88.992,125.214L137.085,97.446L120.319,87.767ZM74.774,20L74.774,88.877C74.774,90.968 73.077,92.665 70.986,92.665C68.894,92.665 67.197,90.968 67.197,88.877L67.197,20L74.774,20ZM169.987,20L169.987,86.767C169.987,88.86 168.292,90.557 166.198,90.557C164.106,90.557 162.41,88.86 162.41,86.769L162.41,20L169.987,20ZM153.584,20L153.584,77.821C153.584,79.915 151.887,81.61 149.796,81.61C147.704,81.61 146.007,79.913 146.007,77.821L146.007,20L153.584,20ZM91.615,20L91.615,77.821C91.615,79.915 89.918,81.61 87.826,81.61C85.735,81.61 84.038,79.913 84.038,77.821L84.038,20L91.615,20Z" fill="#000" stroke="#00000000" stroke-width="1.0" stroke-miterlimit=""/>
	</svg>
