<?xml version="1.0" encoding="utf-8"?>
	<svg version="1.1" xmlns="http://www.w3.org/2000/svg" xmlns:xlink="http://www.w3.org/1999/xlink" x="0px" y="0px" width="240.0" height="240.0" xml:space="preserve">
		<path d="M193.024,184.618C194.123,184.218 195.123,184.018 195.923,184.318C196.722,184.518 197.122,185.217 197.122,186.317C197.122,187.416 196.522,188.616 195.423,190.015C194.423,191.214 192.824,192.814 190.525,194.913C188.226,196.912 184.628,199.51 179.831,202.509C175.033,205.507 169.836,208.306 164.138,210.805C158.441,213.303 151.445,215.502 143.149,217.301C134.853,219.1 126.357,220 117.562,220C108.666,220 99.871,218.801 90.975,216.502C82.079,214.203 74.383,211.304 67.687,208.006C60.99,204.708 54.593,200.71 48.396,196.412C42.299,192.014 37.302,188.116 33.604,184.718C29.906,181.219 26.807,178.021 24.208,174.923C23.609,174.223 23.209,173.623 23.109,173.123C22.909,172.524 23.009,172.124 23.209,171.824C23.409,171.524 23.709,171.224 24.108,171.024C24.508,170.825 24.908,170.725 25.408,170.825C25.908,170.825 26.307,171.024 26.707,171.324C41,180.02 52.094,186.217 60.19,189.815C89.076,202.909 118.861,206.207 149.346,199.81C163.539,196.712 178.031,191.714 193.024,184.618L193.024,184.618ZM216.112,171.824C216.912,173.023 217.012,175.622 216.412,179.62C215.813,183.618 214.713,187.416 213.214,191.014C210.715,197.211 207.517,201.809 203.719,204.808C202.419,205.807 201.52,206.207 200.82,205.807C200.12,205.407 200.12,204.508 200.82,203.108C202.419,199.71 204.019,195.212 205.818,189.515C207.617,183.818 207.817,180.12 206.517,178.521C206.117,178.021 205.618,177.521 204.818,177.221C204.019,176.922 203.019,176.622 201.82,176.522C200.62,176.422 199.521,176.322 198.521,176.222C197.522,176.122 196.222,176.122 194.623,176.222C193.024,176.322 191.825,176.422 191.125,176.422C190.425,176.522 189.226,176.622 187.627,176.722C186.027,176.822 185.228,176.922 185.128,176.922C184.728,177.021 184.228,177.021 183.629,177.121C183.129,177.121 182.729,177.221 182.429,177.221C182.129,177.221 181.83,177.321 181.53,177.321C181.23,177.321 180.93,177.421 180.73,177.421L179.631,177.421L179.331,177.321L179.131,177.121L178.931,176.822C178.531,175.622 180.23,174.123 184.128,172.324C188.027,170.525 191.925,169.425 195.623,169.025C199.021,168.526 203.019,168.426 207.717,168.926C212.314,169.625 215.113,170.525 216.112,171.824L216.112,171.824ZM172.134,122.449C172.134,124.748 172.634,127.146 173.634,129.545C174.633,132.044 175.833,134.143 177.232,136.042C178.631,137.941 180.031,139.64 181.43,141.139C182.829,142.739 184.029,143.938 185.128,144.738L186.627,145.937L161.34,170.925C158.341,168.126 155.443,165.327 152.544,162.529C149.646,159.63 147.447,157.531 146.048,156.032L143.949,153.833C143.149,153.033 142.249,151.834 141.15,150.135C138.351,154.533 134.653,158.331 130.255,161.529C125.858,164.728 121.06,167.126 116.062,168.626C110.965,170.125 105.768,170.925 100.47,171.224C95.073,171.424 89.976,170.625 85.178,168.926C80.28,167.126 75.983,164.728 72.084,161.629C68.186,158.531 65.088,154.333 62.789,149.035C60.49,143.738 59.391,137.641 59.291,130.945C59.291,124.748 60.29,118.951 62.389,113.753C64.488,108.556 67.187,104.258 70.385,100.76C73.684,97.261 77.582,94.263 82.279,91.464C86.877,88.766 91.475,86.667 95.973,85.067C100.47,83.568 105.268,82.269 110.465,81.169C115.663,80.17 120.16,79.47 123.759,79.07C127.457,78.771 131.155,78.471 134.853,78.371L134.853,64.178C134.853,59.38 134.053,55.782 132.554,53.383C130.055,49.485 125.558,47.486 119.061,47.486C118.661,47.486 117.962,47.486 117.262,47.586C116.462,47.686 114.963,48.086 112.764,48.886C110.565,49.685 108.466,50.785 106.467,52.184C104.568,53.583 102.469,55.782 100.17,58.781C97.972,61.879 96.172,65.377 94.773,69.475L61.99,66.477C61.99,61.979 62.789,57.581 64.488,53.183C66.087,48.786 68.586,44.588 71.985,40.59C75.283,36.592 79.381,32.994 84.078,29.995C88.776,26.997 94.373,24.498 100.97,22.699C107.467,20.9 114.563,20 122.159,20C129.556,20 136.352,20.9 142.349,22.799C148.346,24.698 153.144,26.897 156.842,29.695C160.54,32.494 163.439,35.492 165.838,38.991C168.236,42.489 169.936,45.687 170.835,48.586C171.735,51.484 172.234,54.283 172.234,56.782L172.134,122.449L172.134,122.449ZM97.172,124.748C97.172,131.144 99.771,136.042 104.968,139.54C109.866,142.839 115.063,143.638 120.46,142.039C126.657,140.14 130.955,135.642 133.154,128.346C134.153,124.948 134.753,121.249 134.753,117.051L134.753,98.961C130.355,99.16 126.257,99.56 122.359,100.26C118.461,100.96 114.563,102.259 110.465,103.958C106.367,105.757 103.169,108.356 100.77,111.854C98.371,115.352 97.172,119.75 97.172,124.748L97.172,124.748Z" fill="#000" stroke="#00000000" stroke-width="1.0" stroke-miterlimit=""/>
	</svg>
