<?xml version="1.0" encoding="utf-8"?>
	<svg version="1.1" xmlns="http://www.w3.org/2000/svg" xmlns:xlink="http://www.w3.org/1999/xlink" x="0px" y="0px" width="240.0" height="240.0" xml:space="preserve">
		<path d="M129.614,185.499C150.936,173.562 165.349,150.755 165.349,124.581C165.349,86.05 134.113,54.814 95.581,54.814C57.05,54.814 25.814,86.05 25.814,124.581C25.814,150.807 40.284,173.653 61.676,185.571" fill="#00000000" stroke="#000" stroke-width="10.0" stroke-miterlimit=""/>
		<path d="M95.581,124.581m-39.535,0a39.535,39.535 0,1 1,79.07 0a39.535,39.535 0,1 1,-79.07 0" fill="#00000000" stroke="#000" stroke-width="16.0" stroke-miterlimit=""/>
		<path d="M135.116,114.116l78.488,0l0,20.349l-9.302,0l0,31.395l-25.581,0l0,-31.395l-43.605,0" fill="#00000000" stroke="#000" stroke-width="16.0" stroke-miterlimit=""/>
	</svg>
