<?xml version="1.0" encoding="utf-8"?>
	<svg version="1.1" xmlns="http://www.w3.org/2000/svg" xmlns:xlink="http://www.w3.org/1999/xlink" x="0px" y="0px" width="240.0" height="240.0" xml:space="preserve">
		<path d="M147.529,121.887H147.743C147.743,120.321 147.742,118.755 147.741,117.19C147.739,110.935 147.736,104.686 147.776,98.455C147.787,95.977 146.474,94.62 144.148,94.593C138.354,94.532 132.559,94.542 126.764,94.552C124.188,94.557 121.613,94.562 119.037,94.56C117.514,94.56 116.503,95.47 115.504,96.369C115.225,96.62 114.948,96.869 114.661,97.098C113.906,97.7 114.371,98.247 115.197,98.324C116.046,98.401 116.905,98.401 117.761,98.4L117.921,98.4C119.48,98.4 120.624,98.587 120.104,100.72C119.644,102.61 121.081,102.608 122.234,102.606C122.342,102.606 122.448,102.606 122.55,102.608C125.94,102.66 129.33,102.656 132.72,102.652C133.969,102.651 135.218,102.65 136.467,102.651C137.288,102.651 138.103,102.651 138.924,102.662C140.467,102.684 141.944,102.826 141.894,104.927C141.845,107.039 140.303,107.055 138.799,107.072C137.128,107.089 135.453,107.093 133.78,107.096C133.361,107.097 132.942,107.098 132.523,107.099C130.794,107.105 129.443,107.477 129.508,109.654C129.569,111.656 130.827,112.012 132.446,112.012C133.613,112.014 134.78,112.02 135.945,112.026C137.692,112.034 139.438,112.043 141.183,112.039C142.786,112.034 144.099,112.28 144.148,114.332C144.198,116.482 142.901,116.897 141.145,116.897C139.647,116.897 138.147,116.908 136.647,116.919C135.145,116.93 133.642,116.941 132.14,116.941C130.356,116.941 129.492,117.767 129.404,119.578C129.322,121.198 129.558,122.117 131.494,121.345C133.989,120.35 136.533,120.733 138.995,121.471C144.061,122.987 145.74,129.141 142.721,134.426C138.765,141.352 132.348,145.22 125.444,148.453C116.094,152.836 106.088,153.809 95.923,154.023C83.241,154.291 70.883,152.65 59.022,148.038C54.612,146.325 50.372,144.181 46.942,140.789C45.854,139.711 44.836,139.41 43.315,140.094C34.053,144.252 24.249,146.686 14.396,148.924C14.211,148.966 14.017,149.021 13.819,149.078C12.666,149.409 11.375,149.779 11.015,147.687C10.413,144.175 11.152,142.441 13.488,142.118C21.366,141.029 29.042,139.191 36.148,135.509C39.775,133.633 43.359,131.63 46.351,128.775C46.426,128.704 46.506,128.633 46.587,128.562C47.051,128.154 47.551,127.715 47.183,126.975C46.855,126.313 46.116,126.28 45.492,126.324C41.917,126.565 38.34,126.478 34.762,126.391C30.795,126.294 26.829,126.197 22.865,126.548C21.618,126.657 20.556,127.073 19.703,127.954C15.726,132.063 10.862,134.891 5.916,137.616C3.706,138.83 1.901,138.185 0.872,135.876C0.34,134.681 1.048,134.201 1.767,133.712C1.862,133.648 1.956,133.584 2.048,133.518C6.485,130.317 10.566,126.712 14.172,122.598C15.104,121.536 15.884,120.34 16.661,119.148C16.829,118.891 16.996,118.635 17.164,118.38C18.308,116.651 17.629,115.869 15.731,115.853C11.453,115.82 7.18,115.809 2.902,115.798C1.408,115.792 0.188,115.497 0.03,113.653C-0.156,111.552 0.506,110.354 2.858,110.382C5.203,110.407 7.548,110.398 9.894,110.39C12.644,110.38 15.395,110.37 18.144,110.414C20.294,110.447 21.836,109.911 22.564,107.69C23.078,106.136 24.276,105.425 25.945,105.485C27.13,105.526 28.319,105.5 29.509,105.474L29.764,105.469C29.903,105.466 30.043,105.461 30.183,105.457C32.211,105.395 34.178,105.335 32.975,108.642C32.641,109.556 33.358,110.19 34.321,110.278C35.317,110.365 36.318,110.387 37.319,110.387C49.054,110.393 60.794,110.398 72.529,110.387C74.291,110.382 75.774,110.469 75.823,112.898C75.872,115.289 74.679,115.825 72.612,115.814C66.499,115.787 60.39,115.796 54.279,115.805C51.929,115.809 49.578,115.813 47.227,115.814C45.809,115.814 44.391,115.813 42.973,115.811C39.662,115.808 36.349,115.804 33.035,115.82C32.908,115.82 32.78,115.819 32.651,115.818C31.77,115.812 30.857,115.805 30.065,116.082C28.412,116.657 27.083,118.068 27.225,119.699C27.346,121.034 28.548,120.903 29.607,120.788C29.897,120.756 30.177,120.726 30.42,120.727C37.05,120.764 43.677,120.766 50.306,120.768C54.595,120.77 58.884,120.771 63.174,120.782C63.377,120.783 63.6,120.759 63.827,120.734C64.555,120.654 65.33,120.569 65.663,121.307C66.003,122.053 65.41,122.656 64.87,123.207C64.74,123.338 64.614,123.467 64.504,123.594C64.187,123.962 63.871,124.33 63.555,124.699C61.741,126.815 59.924,128.935 57.972,130.919C56.675,132.243 56.675,133.354 57.676,134.738C60.712,138.923 64.881,141.648 69.521,143.639C79.281,147.83 89.429,149.46 100.103,148.754C107.795,148.245 115.29,147.255 122.418,144.268C127.533,142.129 131.883,138.852 135.472,134.634C136.971,132.878 138.306,130.908 136.73,128.485C135.308,126.291 132.424,125.552 129.656,126.592C129.619,126.606 129.581,126.619 129.544,126.633C129.152,126.778 128.749,126.927 128.42,127.166C125.98,128.961 123.633,129.311 121.1,127.194C119.989,126.269 118.457,126.039 116.947,126.143C112.921,126.428 111.219,129.776 113.528,133.102C115.29,135.641 117.281,138.015 119.83,139.848C121.237,140.854 121.171,141.489 119.458,142.173L119.312,142.231C115.233,143.859 115.142,143.896 111.898,140.625C109.781,138.491 107.816,136.226 106.312,133.6C104.567,130.558 104.496,127.407 106.372,124.546C108.26,121.668 111.34,120.743 114.71,120.842C115.128,120.851 115.543,120.921 115.96,120.991C116.263,121.042 116.566,121.093 116.871,121.121C116.952,121.128 117.034,121.137 117.117,121.145C118.147,121.248 119.302,121.364 119.398,119.906C119.491,118.522 119.147,117.04 117.292,116.99C115.29,116.934 113.287,116.922 111.286,116.91C110.012,116.902 108.739,116.895 107.466,116.876C107.376,116.874 107.286,116.874 107.195,116.873C106.202,116.867 105.172,116.861 104.611,115.749C103.724,113.992 104.704,112.132 106.689,112.061C109.539,111.961 112.393,111.973 115.247,111.985C115.67,111.987 116.092,111.989 116.515,111.99C118.244,111.996 119.568,111.656 119.612,109.501C119.655,107.225 118.162,107.088 116.515,107.066C115.959,107.057 115.403,107.057 114.847,107.056C114.402,107.055 113.957,107.055 113.512,107.05C109.906,107.012 109.802,106.765 110.946,103.237C111.079,102.825 111.323,102.389 111.568,101.951C112.145,100.918 112.73,99.871 111.892,99.095C111.272,98.524 110.442,99.062 109.568,99.627C109.061,99.956 108.539,100.294 108.035,100.43C107.815,100.491 107.604,100.589 107.392,100.688C107.188,100.782 106.984,100.877 106.772,100.939C106.532,101.009 106.273,101.13 106.009,101.254C105.204,101.63 104.357,102.026 103.916,101.054C103.38,99.872 103.101,98.116 104.474,97.016C108.801,93.548 112.494,89.625 114.294,84.22C114.595,83.317 115.415,83.082 116.274,83.049C117.363,83.011 118.452,83 119.546,83C123.518,83 123.589,83.027 122.429,86.747C121.707,89.07 123.081,89.058 124.441,89.047C124.555,89.046 124.669,89.045 124.782,89.045C132.698,89.073 140.614,89.067 148.531,89.062C150.084,89.062 151.627,89.105 153.082,89.74C155.615,90.851 157.235,92.623 157.235,95.561C157.233,99.982 157.235,104.403 157.237,108.824C157.242,119.872 157.247,130.919 157.196,141.965C157.175,145.92 153.646,148.771 149.647,148.486C147.534,148.335 147.535,146.887 147.535,145.418V145.362C147.527,139.493 147.528,133.626 147.529,127.76C147.529,125.802 147.529,123.845 147.529,121.887Z" fill="#000" stroke="" stroke-width="" stroke-miterlimit=""/>
		<path d="M209.223,157.213C207.17,157.212 205.117,157.212 203.064,157.212C201.604,157.213 200.144,157.214 198.684,157.215C189.953,157.22 181.227,157.225 172.504,157.207C168.981,157.201 168.827,156.999 168.827,153.164C168.827,149.389 168.992,149.192 172.564,149.181C176.002,149.174 179.44,149.175 182.877,149.176C187.173,149.178 191.469,149.18 195.766,149.165C199.103,149.154 199.388,148.858 199.421,145.614C199.433,144.334 199.422,143.054 199.411,141.774C199.392,139.685 199.374,137.598 199.459,135.515C199.563,133.009 198.507,132.123 196.083,132.15C192.937,132.187 189.791,132.179 186.645,132.171C183.15,132.162 179.654,132.153 176.158,132.205C173.625,132.249 172.515,131.423 172.597,128.747C172.668,126.543 173.418,125.634 175.661,125.662C181.472,125.729 187.284,125.708 193.096,125.687C193.926,125.684 194.756,125.681 195.585,125.678C199.196,125.667 199.431,125.437 199.421,121.761C199.407,118.325 199.603,116.7 198.884,115.933C198.171,115.174 196.561,115.256 192.959,115.256C191.838,115.256 190.716,115.254 189.594,115.253C187.349,115.249 185.104,115.245 182.86,115.256C181.164,115.267 179.753,115.032 179.709,112.838C179.676,111.241 178.774,111.334 177.69,111.968C176.991,112.377 176.286,112.777 175.581,113.177C174.07,114.035 172.559,114.892 171.103,115.836C169.402,116.941 168.401,116.569 167.35,114.901C165.72,112.311 164.794,111.295 164.979,110.557C165.163,109.827 166.434,109.37 169.189,107.931C177.373,103.653 184.835,98.329 191.592,92.054C193.229,90.53 194.638,88.748 196.038,86.977C196.332,86.606 196.625,86.235 196.92,85.867C199.53,82.612 205.471,82.502 208.054,85.719C216.014,95.627 225.943,102.958 237.514,108.117C240.408,109.402 240.611,109.9 238.969,112.51L238.965,112.517C236.524,116.4 236.521,116.404 232.404,114.343C232.091,114.186 231.775,114.033 231.458,113.881C230.626,113.479 229.792,113.077 229.007,112.597C228.899,112.531 228.791,112.464 228.684,112.398C226.884,111.28 225.264,110.273 224.783,113.872C224.598,115.238 223.283,115.236 222.168,115.234C222.064,115.234 221.962,115.233 221.862,115.234C221.101,115.239 220.341,115.245 219.58,115.251C216.155,115.279 212.731,115.306 209.306,115.234C206.883,115.185 205.871,116.126 205.876,118.599C205.89,122.723 205.809,124.471 206.631,125.198C207.439,125.913 209.117,125.643 212.611,125.673C215.684,125.699 218.757,125.694 221.831,125.689C223.944,125.686 226.057,125.682 228.17,125.689C231.644,125.7 232.125,126.121 232.098,128.972C232.071,131.751 231.589,132.15 228.033,132.161C225.23,132.169 222.428,132.168 219.626,132.167C216.424,132.167 213.221,132.166 210.018,132.178C206.221,132.189 205.925,132.478 205.898,136.166C205.887,137.489 205.895,138.813 205.902,140.136C205.914,142.089 205.925,144.041 205.876,145.992C205.816,148.333 206.817,149.225 209.142,149.203C217.146,149.132 225.155,149.165 233.159,149.203C233.391,149.204 233.637,149.19 233.888,149.175C235.047,149.109 236.307,149.037 236.721,150.417C237.317,152.403 237.427,154.603 236.666,156.572C236.355,157.375 235.421,157.303 234.566,157.236C234.337,157.219 234.113,157.201 233.909,157.201C225.682,157.214 217.451,157.214 209.223,157.213ZM199.152,109.283C200.385,109.283 201.618,109.282 202.851,109.282C204.238,109.282 205.626,109.283 207.014,109.283C211.173,109.285 215.332,109.287 219.488,109.271C219.618,109.271 219.757,109.279 219.9,109.288C220.518,109.324 221.197,109.365 221.468,108.751C221.834,107.924 221.197,107.555 220.626,107.225C220.472,107.135 220.322,107.049 220.199,106.957C214.433,102.646 209.055,97.914 204.339,92.465C203.458,91.447 202.796,91.458 201.921,92.454C197.035,98.012 191.4,102.722 185.366,106.979C185.263,107.052 185.145,107.124 185.024,107.199C184.492,107.527 183.889,107.9 184.08,108.56C184.313,109.366 185.081,109.322 185.772,109.282C185.925,109.273 186.075,109.265 186.214,109.266C190.528,109.287 194.839,109.285 199.152,109.283Z" fill="#000" stroke="" stroke-width="" stroke-miterlimit=""/>
		<path d="M17.525,98.362V98.34C18.683,98.34 19.841,98.335 20.999,98.33C23.842,98.318 26.687,98.305 29.528,98.368C31.761,98.417 32.844,97.7 32.855,95.255C32.871,91.316 33.002,91.31 36.859,91.288C37.162,91.285 37.465,91.286 37.768,91.287C37.919,91.288 38.07,91.288 38.222,91.288L38.255,91.288C42.752,91.299 42.84,91.299 43.134,95.763C43.288,98.05 44.59,98.362 46.428,98.357C54.065,98.329 61.703,98.335 69.34,98.368C69.555,98.368 69.778,98.361 70.004,98.354C71.365,98.312 72.845,98.265 73.328,99.883C74.001,102.137 74.11,104.55 73.164,106.809C72.863,107.52 71.961,107.559 71.222,107.564C69.586,107.581 67.95,107.575 66.314,107.553C65.242,107.537 64.17,107.263 64.077,106.027C63.875,103.324 62.08,103.187 60.028,103.193C51.133,103.212 42.238,103.218 33.343,103.224C29.781,103.226 26.219,103.228 22.657,103.231C21.207,103.234 19.755,103.238 18.302,103.242C16.846,103.246 15.388,103.25 13.931,103.253C12.328,103.259 11.042,103.631 10.895,105.578C10.785,107.055 9.79,107.455 8.455,107.581C2.688,108.122 0.817,105.846 2.278,100.058C2.661,98.537 3.739,98.373 4.975,98.368C8.114,98.359 11.25,98.36 14.387,98.362C15.433,98.362 16.479,98.362 17.525,98.362Z" fill="#000" stroke="" stroke-width="" stroke-miterlimit=""/>
		<path d="M96.448,108.259C99.643,111.257 100.469,115.037 99.971,118.221C100.039,124.505 98.829,130.046 97.65,135.442C97.207,137.469 96.769,139.476 96.404,141.494C96.163,142.84 95.31,143.497 93.937,143.573C90.375,143.776 86.874,143.289 83.378,142.72C81.31,142.381 80.889,141.484 82.043,139.547C85.763,133.31 89.188,126.936 91.234,119.885C92.181,116.618 91.387,113.998 89.325,111.569C87.005,108.833 84.281,106.59 80.949,105.195C78.854,104.32 78.919,103.023 79.866,101.295C79.912,101.21 79.957,101.127 80.003,101.043C80.815,99.545 81.52,98.244 83.723,99.462C88.264,101.973 92.651,104.692 96.448,108.259Z" fill="#000" stroke="" stroke-width="" stroke-miterlimit=""/>
		<path d="M37.691,89.002V89.023C27.685,89.023 17.679,89.023 7.678,89.018C6.863,89.018 6.042,89.007 5.227,88.936C3.706,88.805 3.323,87.782 3.345,86.447C3.361,85.188 3.848,84.318 5.205,84.22C6.201,84.149 7.202,84.138 8.203,84.138C21.3,84.134 34.397,84.135 47.495,84.137C54.043,84.137 60.592,84.138 67.141,84.138C67.371,84.138 67.603,84.141 67.834,84.144C68.24,84.149 68.646,84.154 69.05,84.143C70.817,84.094 72.097,84.532 72.037,86.693C71.977,88.739 70.664,89.002 69.072,89.002H37.691Z" fill="#000" stroke="" stroke-width="" stroke-miterlimit=""/>
		<path d="M93.911,96.656C93.827,96.652 93.762,96.65 93.724,96.65C90.512,96.858 88.1,96.294 86.305,94.16C83.591,90.949 84.631,86.583 88.772,84.762C91.251,83.673 93.959,83.18 96.716,84.116C100.217,85.303 102.045,87.913 101.634,91.283C101.279,94.172 98.74,96.349 95.354,96.639C94.788,96.69 94.218,96.668 93.911,96.656Z" fill="#000" stroke="" stroke-width="" stroke-miterlimit=""/>
		<path d="M178.768,141.018C178.981,137.736 181.865,135.537 185.962,135.531C190.788,135.52 193.753,137.758 193.621,141.303C193.496,144.684 190.033,146.976 185.514,146.681C181.471,146.413 178.577,143.984 178.768,141.018Z" fill="#000" stroke="" stroke-width="" stroke-miterlimit=""/>
		<path d="M221.133,146.641C220.86,146.675 220.586,146.708 220.314,146.746C220.016,146.702 219.717,146.663 219.42,146.625C218.812,146.546 218.206,146.468 217.611,146.336C214.848,145.696 213.054,143.721 213.016,141.347C212.977,138.836 214.766,136.478 217.414,135.816C219.362,135.329 221.381,135.329 223.328,135.859C226.096,136.614 227.727,138.797 227.617,141.401C227.513,143.841 225.779,145.729 222.994,146.353C222.382,146.489 221.757,146.566 221.133,146.641Z" fill="#000" stroke="" stroke-width="" stroke-miterlimit=""/>
		<path d="M23.152,95.545C22.699,95.542 22.246,95.539 21.793,95.539C21.406,95.541 21.02,95.544 20.633,95.547C19.57,95.555 18.505,95.563 17.438,95.539C16.108,95.512 15.091,94.937 15.003,93.509C14.91,92.016 15.972,91.376 17.257,91.338C20.244,91.25 23.237,91.267 26.229,91.294C27.493,91.305 28.292,91.923 28.292,93.291C28.292,94.713 27.57,95.501 26.142,95.534C25.145,95.556 24.149,95.55 23.152,95.545Z" fill="#000" stroke="" stroke-width="" stroke-miterlimit=""/>
		<path d="M56.496,95.562C56.091,95.559 55.685,95.556 55.28,95.556V95.523C54.833,95.523 54.386,95.526 53.939,95.529C52.852,95.537 51.764,95.545 50.679,95.506C49.371,95.463 48.758,94.702 48.753,93.395C48.742,92.043 49.437,91.37 50.728,91.359C53.617,91.332 56.505,91.316 59.388,91.387C60.827,91.425 61.828,92.229 61.834,93.739C61.845,95.359 60.554,95.506 59.339,95.545C58.393,95.575 57.444,95.568 56.496,95.562Z" fill="#000" stroke="" stroke-width="" stroke-miterlimit=""/>
	</svg>
