<?xml version="1.0" encoding="utf-8"?>
	<svg version="1.1" xmlns="http://www.w3.org/2000/svg" xmlns:xlink="http://www.w3.org/1999/xlink" x="0px" y="0px" width="240.0" height="240.0" xml:space="preserve">
		<path d="M46.233,219.009C48.054,218.345 49.794,217.398 51.486,216.434L159.594,155.02C158.637,155.53 157.678,156.036 156.716,156.538C152.653,151.843 148.375,147.351 143.979,142.96C142.801,141.782 141.597,141.37 139.974,141.376C125.845,141.424 111.716,141.418 97.587,141.386C96.326,141.397 95.136,141.621 93.94,141.94C93.939,141.943 93.938,141.946 93.937,141.948L73.147,166.5C73.147,166.5 61.994,175.5 51.989,171C41.984,166.5 43.716,155.585 43.716,155.585C44.735,149.618 45.77,143.654 46.804,137.69C47.994,130.832 49.184,123.975 50.35,117.111C51.365,111.13 52.329,105.14 53.294,99.15C53.668,96.829 54.042,94.508 54.419,92.188C54.469,92.059 54.525,91.931 54.582,91.803C54.701,91.533 54.821,91.261 54.879,90.978C56.453,83.306 59.318,76.238 64.623,70.338C71.482,62.703 80.445,59.876 90.328,59.577C95.801,59.419 101.284,59.452 106.767,59.485C109.292,59.5 111.817,59.516 114.341,59.512C114.443,59.513 114.545,59.514 114.646,59.514L49.708,22.559C48.006,21.595 46.212,20.83 44.279,20.39C37.544,18.854 32.516,21.906 30.696,28.598C30.075,30.874 30,33.171 30,35.484L30.011,202.08L30.009,202.584C30.003,204.731 29.997,206.888 30.225,209.019C31.173,217.896 37.849,222.066 46.233,219.009ZM189.775,137.874L189.344,138.119L189.772,137.869C189.303,132.319 188.298,126.851 187.294,121.383L187.294,121.383C186.752,118.432 186.209,115.481 185.751,112.517C185.542,111.154 185.278,109.799 185.015,108.443L185.014,108.443C184.402,105.294 183.789,102.144 183.856,98.9L183.859,98.902C186.988,100.674 190.119,102.446 193.25,104.219C196.381,105.991 199.511,107.763 202.641,109.535C202.772,109.607 202.895,109.695 203.017,109.782L203.085,109.83C211.7,115.666 211.737,124.323 203.15,130.143C201.928,130.972 200.64,131.705 199.353,132.437L199.352,132.437L199.349,132.439C199.091,132.585 198.834,132.732 198.577,132.879C196.415,134.118 194.244,135.346 192.071,136.575L192.067,136.577L192.058,136.582C191.297,137.013 190.536,137.443 189.775,137.874Z" fill="#000" stroke="" stroke-width="" stroke-miterlimit=""/>
		<path d="M124.493,59.571C131.26,59.608 138.028,59.645 144.795,59.705C151.568,59.764 158.067,61.001 163.978,64.518C174.354,70.692 180.255,79.89 182.225,91.706C182.347,92.428 182.446,93.155 182.545,93.882C182.59,94.206 182.634,94.531 182.68,94.854C182.241,95.261 182.236,95.802 182.241,96.337C182.332,102.173 180.838,107.661 177.861,112.598C171.008,123.97 161.28,131.01 147.579,131.203C135.2,131.38 122.811,131.449 110.438,131.139C105.662,131.021 101.941,132.14 99.071,135.973C98.471,136.776 97.715,137.448 96.958,138.119L96.958,138.12C95.733,139.208 94.506,140.297 93.937,141.948L73.147,166.5C73.147,166.5 61.994,175.5 51.989,171C41.984,166.5 43.716,155.585 43.716,155.585C44.735,149.618 45.77,143.654 46.805,137.69C47.994,130.832 49.184,123.975 50.35,117.111C51.365,111.13 52.329,105.14 53.294,99.15L53.296,99.139C53.669,96.822 54.043,94.505 54.419,92.188C54.469,92.059 54.525,91.932 54.582,91.804L54.582,91.803L54.582,91.803L54.582,91.803L54.582,91.803C54.701,91.533 54.821,91.261 54.879,90.978C56.453,83.306 59.318,76.238 64.624,70.338C71.482,62.703 80.445,59.876 90.328,59.577C95.801,59.419 101.284,59.452 106.767,59.485H106.767H106.767H106.767H106.767H106.768H106.768H106.768H106.768C109.293,59.5 111.817,59.516 114.341,59.512C117.725,59.534 121.109,59.552 124.493,59.571ZM85.034,91.937C84.272,92.702 82.742,92.702 79.672,92.702H79.672C73.059,92.702 73.059,92.702 73.14,99.411C73.14,99.423 73.14,99.436 73.14,99.449C73.141,99.467 73.141,99.484 73.142,99.502C73.144,99.562 73.147,99.621 73.14,99.678C72.893,101.279 73.482,101.895 75.185,101.815C76.633,101.744 78.084,101.758 79.534,101.771C80.937,101.784 82.34,101.798 83.741,101.734C85.422,101.659 85.898,102.259 85.829,103.871C85.773,105.121 85.788,106.375 85.802,107.627V107.628V107.628V107.628V107.628V107.628C85.818,109.051 85.834,110.473 85.748,111.891C85.631,113.834 86.369,114.252 88.185,114.247L88.371,114.246C91.564,114.239 93.178,114.235 93.993,113.426C94.826,112.599 94.824,110.93 94.818,107.555V107.554V107.286C94.813,104.537 94.81,103.157 95.499,102.465C96.193,101.768 97.589,101.769 100.392,101.772H100.392C103.935,101.775 105.694,101.776 106.556,100.897C107.406,100.031 107.385,98.31 107.344,94.892L107.341,94.672C107.32,92.895 106.661,92.627 105.151,92.681C103.864,92.726 102.576,92.715 101.288,92.704H101.288H101.287H101.287H101.287H101.287C99.811,92.691 98.336,92.679 96.863,92.75C95.177,92.831 94.722,92.21 94.791,90.614C94.844,89.457 94.827,88.296 94.81,87.135V87.135V87.135V87.135V87.134C94.789,85.706 94.768,84.279 94.877,82.861C95.048,80.65 94.176,80.206 92.152,80.233L91.934,80.235C88.895,80.271 87.359,80.288 86.584,81.065C85.791,81.858 85.791,83.443 85.791,86.647C85.791,89.664 85.791,91.178 85.034,91.937ZM146.074,115.302C142.652,115.35 140.136,113.064 139.965,109.755C139.836,107.217 143.161,104.074 145.977,104.069C148.927,104.063 151.588,106.708 151.631,109.69C151.679,112.748 149.195,115.259 146.074,115.302ZM127.766,97.274C127.787,100.567 130.1,102.843 133.43,102.848C136.589,102.853 138.977,100.492 139.015,97.323C139.052,94.035 136.632,91.599 133.345,91.626C130.33,91.653 127.744,94.271 127.766,97.274ZM146.053,79.178C149.179,79.21 151.658,81.678 151.642,84.741C151.626,87.707 148.997,90.373 146.047,90.416C142.947,90.459 140.367,87.798 140.415,84.602C140.463,81.416 142.829,79.146 146.053,79.178ZM158.431,102.853C161.558,102.875 164.01,100.476 164.059,97.349C164.107,94.196 161.794,91.749 158.656,91.637C155.524,91.524 152.81,94.142 152.82,97.264C152.831,100.283 155.39,102.837 158.431,102.853Z" fill="#000" stroke="" stroke-width="" stroke-miterlimit=""/>
	</svg>
