<?xml version="1.0" encoding="utf-8"?>
	<svg version="1.1" xmlns="http://www.w3.org/2000/svg" xmlns:xlink="http://www.w3.org/1999/xlink" x="0px" y="0px" width="240.0" height="240.0" xml:space="preserve">
		<path d="M30.029,120C30.025,149.462 30.017,178.925 30,208.388C29.997,209.704 30.296,210 31.612,210C61.075,209.983 90.538,209.975 120,209.971V120H209.944C209.951,102.17 209.964,84.34 209.977,66.511L209.977,66.379C209.985,55.245 209.993,44.111 210,32.978C210,30.003 209.997,30 207.022,30C178.015,30.007 149.007,30.014 120,30.021V120H30.029ZM182.188,61.589C181.849,60.887 181.278,60.355 180.7,59.818L180.7,59.818C180.347,59.49 179.991,59.159 179.686,58.787C178.721,57.608 177.898,57.629 176.824,58.748C175.346,60.287 173.833,61.791 172.32,63.295L172.319,63.295C171.051,64.556 169.783,65.816 168.535,67.097C167.596,68.061 166.874,68.107 165.917,67.118C163.724,64.841 161.479,62.616 159.219,60.406C158.754,59.95 158.368,59.555 158.042,59.219C157.141,58.295 156.687,57.828 156.227,57.823C155.759,57.817 155.284,58.288 154.327,59.239C153.998,59.567 153.611,59.951 153.148,60.392C152.106,61.384 152.057,62.099 153.116,63.119C154.56,64.511 155.975,65.935 157.39,67.358L157.39,67.358C158.74,68.717 160.091,70.076 161.468,71.408C162.496,72.404 162.542,73.143 161.486,74.15C159.201,76.332 156.981,78.588 154.77,80.844C154.332,81.292 153.951,81.663 153.628,81.979C152.707,82.878 152.249,83.326 152.246,83.776C152.243,84.223 152.685,84.673 153.567,85.568C153.897,85.903 154.289,86.301 154.742,86.785C155.911,88.035 156.674,87.803 157.734,86.701C159.185,85.193 160.67,83.718 162.154,82.243L162.156,82.242C163.412,80.994 164.668,79.747 165.903,78.479C166.839,77.518 167.557,77.459 168.518,78.458C170.749,80.777 173.041,83.041 175.339,85.297C175.759,85.71 176.112,86.071 176.414,86.38C177.311,87.299 177.762,87.76 178.219,87.766C178.68,87.772 179.148,87.311 180.087,86.384C180.392,86.085 180.745,85.736 181.164,85.339C182.315,84.248 182.396,83.47 181.206,82.333C179.778,80.975 178.39,79.575 177.002,78.175L177.002,78.174C175.711,76.872 174.42,75.57 173.097,74.301C171.957,73.207 171.897,72.418 173.072,71.296C175.186,69.278 177.242,67.199 179.297,65.121C179.958,64.452 180.62,63.783 181.284,63.116C181.338,63.061 181.394,63.007 181.45,62.953C181.811,62.606 182.185,62.246 182.188,61.589ZM70.518,153.299H70.504C70.504,153.82 70.5,154.341 70.497,154.863V154.863C70.489,156.096 70.481,157.329 70.518,158.561C70.557,159.902 69.976,160.479 68.645,160.465C66.201,160.439 63.76,160.452 61.316,160.465L60.751,160.468C60.282,160.471 59.864,160.469 59.49,160.466C57.987,160.456 57.211,160.451 56.815,160.836C56.393,161.246 56.4,162.097 56.416,163.856C56.418,164.149 56.421,164.466 56.422,164.812C56.425,166.881 56.633,167.064 58.794,167.075L59.672,167.08C62.597,167.096 65.521,167.113 68.445,167.071C69.916,167.05 70.574,167.606 70.535,169.137C70.478,171.294 70.496,173.454 70.514,175.614C70.518,176.086 70.522,176.559 70.525,177.032C70.528,177.502 70.524,177.918 70.52,178.288C70.507,179.616 70.5,180.336 70.854,180.727C71.273,181.188 72.195,181.192 74.204,181.202C74.418,181.203 74.644,181.204 74.882,181.206C76.547,181.217 77.184,180.551 77.156,178.908C77.121,176.985 77.13,175.062 77.14,173.139V173.138V173.138C77.147,171.787 77.154,170.435 77.145,169.085C77.138,167.701 77.715,167.054 79.141,167.078C81.522,167.117 83.9,167.1 86.28,167.083H86.28L87.035,167.078C87.53,167.075 87.969,167.078 88.358,167.08C89.88,167.09 90.646,167.095 91.034,166.715C91.427,166.33 91.433,165.551 91.446,163.984C91.449,163.589 91.453,163.145 91.463,162.644C91.498,160.912 90.777,160.409 89.165,160.444C87.308,160.483 85.452,160.474 83.595,160.465H83.593C82.117,160.458 80.641,160.451 79.165,160.468C77.754,160.486 77.135,159.888 77.149,158.487C77.173,155.914 77.159,153.341 77.138,150.768C77.133,150.178 77.138,149.662 77.142,149.212C77.156,147.73 77.163,146.961 76.782,146.564C76.371,146.136 75.508,146.141 73.713,146.152C73.267,146.154 72.762,146.157 72.193,146.154C71,146.147 70.5,146.672 70.521,147.851C70.537,149.037 70.531,150.221 70.525,151.405C70.521,152.036 70.518,152.667 70.518,153.299Z" fill="#000" stroke="" stroke-width="" stroke-miterlimit=""/>
		<path d="M120,120h90v90h-90z" fill="#000" stroke="" stroke-width="" stroke-miterlimit=""/>
		<path d="M30,30h90v90h-90z" fill="#000" stroke="" stroke-width="" stroke-miterlimit=""/>
		<path d="M181.771,162.482C176.921,162.492 172.071,162.485 167.221,162.485C161.79,162.485 156.356,162.492 150.925,162.485C148.63,162.478 148.468,162.337 148.472,160.145C148.483,155.013 147.983,155.601 152.914,155.59C163.078,155.569 173.247,155.58 183.411,155.587C185.843,155.587 185.966,155.71 185.966,158.188C185.963,162.922 186.332,162.471 181.771,162.482Z" fill="#000" stroke="" stroke-width="" stroke-miterlimit=""/>
		<path d="M181.599,179.003C176.741,179.02 171.881,179.006 167.024,179.006C161.583,179.003 156.138,178.961 150.693,179.027C149.021,179.049 148.405,178.447 148.437,176.771C148.532,171.488 147.94,172.125 152.991,172.115C163.121,172.09 173.247,172.104 183.372,172.111C185.843,172.115 185.963,172.231 185.963,174.684C185.963,179.499 186.339,178.989 181.599,179.003Z" fill="#000" stroke="" stroke-width="" stroke-miterlimit=""/>
		<path d="M60.777,70.578C65.223,70.56 69.671,70.574 74.117,70.574C79.15,70.574 84.179,70.62 89.216,70.553C90.881,70.528 91.507,71.109 91.475,72.795C91.37,78.074 91.989,77.413 86.91,77.427C77.548,77.455 68.186,77.437 58.824,77.43C56.575,77.427 56.399,77.261 56.399,75.051C56.399,70.032 55.998,70.599 60.777,70.578Z" fill="#000" stroke="" stroke-width="" stroke-miterlimit=""/>
	</svg>
