<?xml version="1.0" encoding="utf-8"?>
	<svg version="1.1" xmlns="http://www.w3.org/2000/svg" xmlns:xlink="http://www.w3.org/1999/xlink" x="0px" y="0px" width="240.0" height="240.0" xml:space="preserve">
		<path d="M206.842,65.934L131.513,65.934L104.539,36L33.158,36C25.921,36 20,41.921 20,49.158L20,189.947C20,197.184 25.921,203.105 33.158,203.105L206.842,203.105C214.079,203.105 220,197.184 220,189.947L220,79.092C220,71.855 214.079,65.934 206.842,65.934ZM131.184,131.724L131.184,163.303L111.447,163.303L111.447,131.724C105.855,128.434 102.237,122.184 102.237,115.276C102.237,104.75 110.789,96.197 121.316,96.197C131.842,96.197 140.395,104.75 140.395,115.276C140.395,122.513 136.776,128.434 131.184,131.724Z" fill="#000" stroke="#00000000" stroke-width="1.0" stroke-miterlimit=""/>
	</svg>
