<?xml version="1.0" encoding="utf-8"?>
	<svg version="1.1" xmlns="http://www.w3.org/2000/svg" xmlns:xlink="http://www.w3.org/1999/xlink" x="0px" y="0px" width="240.0" height="240.0" xml:space="preserve">
		<path d="M115.422,3.314C128.368,4.484 140.168,8.914 150.563,16.701C163.271,26.219 172.005,38.607 176.346,53.967C177.937,59.598 178.972,65.33 178.975,71.196C178.997,125.983 178.997,180.769 179,235.555C179,236.098 178.955,236.641 178.914,237.582C175.8,237.329 172.751,237.252 169.755,236.808C159.371,235.271 149.698,231.771 140.887,225.995C132.401,220.432 125.465,213.383 120.188,204.689C114.594,195.475 111.474,185.45 109.862,174.846C108.421,165.368 109.092,155.847 108.904,146.342C108.884,145.308 108.902,144.273 108.902,143.301C107.972,143.171 107.048,143.053 106.13,142.94C106.7,142.965 107.27,142.981 107.842,142.991L107.842,142.991L109,143L109,73L39,73L39.007,73.916C38.944,69.565 39.306,65.195 40.111,60.796C43.687,41.244 53.805,25.894 70.142,14.818C83.759,5.586 98.998,1.831 115.422,3.314Z" fill="#000" stroke="#00000000" stroke-width="1.0" stroke-miterlimit=""/>
		<path d="M109,73L109,143L107.842,142.991C69.716,142.372 39,111.273 39,73L39,73L109,73Z" fill="#000" stroke="#00000000" stroke-width="1.0" stroke-miterlimit=""/>
	</svg>
