<?xml version="1.0" encoding="utf-8"?>
	<svg version="1.1" xmlns="http://www.w3.org/2000/svg" xmlns:xlink="http://www.w3.org/1999/xlink" x="0px" y="0px" width="240.0" height="240.0" xml:space="preserve">
		<path d="M209.229,67.313C212.665,75.957 211.998,78.67 204.396,85.118C202.031,87.117 199.384,88.816 196.746,90.458C195.226,91.415 193.555,93.199 191.734,92.279C189.791,91.294 190.617,88.91 190.608,87.135C190.552,71.405 190.458,55.674 190.636,39.943C190.692,35.457 189.069,33.936 184.62,34.002C171.386,34.208 158.142,34.199 144.899,34.011C140.572,33.955 138.995,35.645 139.239,39.812C139.436,43.228 139.267,46.664 139.267,50.089C139.258,68.007 139.183,85.915 139.314,103.824C139.342,107.85 137.944,109.906 133.823,110.215C129.478,110.535 125.169,111.276 120.824,111.642C113.756,112.243 113.728,112.186 113.719,105.25C113.709,83.447 113.644,61.634 113.775,39.831C113.803,35.701 112.592,33.936 108.2,34.002C94.496,34.199 80.784,34.162 67.08,34.03C63.288,33.993 61.693,35.354 61.833,39.221C62.021,44.514 61.871,49.808 61.871,55.111C61.871,72.709 61.89,90.317 61.824,107.916C61.815,109.765 62.519,112.186 59.496,112.712C49.557,114.458 40.668,104.406 43.963,94.851C45.296,90.984 43.644,90.683 40.753,91.425C35.816,92.692 31.705,95.592 27.791,98.68C16.772,107.4 17.523,118.578 29.527,125.965C32.869,128.02 36.463,129.541 40.208,130.62C47.867,132.826 55.704,134.215 63.664,134.516C91.033,135.548 118.139,133.492 144.833,127.101C165.125,122.239 184.582,115.331 201.336,102.388C208.028,97.216 214.016,91.275 218.155,83.794C222.698,75.563 218.522,67.988 209.229,67.313ZM190.57,142.559C190.57,134.412 190.636,127.87 190.552,121.328C190.486,116.598 189.735,116.072 185.755,118.24C172.822,125.289 159.034,130.151 144.964,134.253C140.825,135.454 139.22,137.406 139.201,141.761C139.164,151.579 137.502,161.04 130.397,168.605C128.098,171.055 128.792,173.345 130.51,175.729C135.973,183.303 142.74,189.357 150.999,193.778C160.582,198.912 168.035,198.114 176.144,190.709C183.306,184.176 187.248,175.804 189.472,166.54C191.509,158.093 190.167,149.477 190.57,142.559ZM145.584,204.356C137.728,199.156 130.163,193.966 123.808,187.245C117.267,180.319 113.24,172.35 113.681,162.476C113.935,156.882 113.7,151.269 113.719,145.657C113.728,143 112.836,141.48 109.805,142.015C95.219,144.568 80.587,146.633 65.71,146.182C63.57,146.116 62.321,147.093 61.918,149.402C59.13,165.358 67.024,184.204 81.093,192.689C100.973,204.694 122.964,206.402 145.584,204.356Z" fill="#000" stroke="" stroke-width="" stroke-miterlimit=""/>
	</svg>
