<?xml version="1.0" encoding="utf-8"?>
	<svg version="1.1" xmlns="http://www.w3.org/2000/svg" xmlns:xlink="http://www.w3.org/1999/xlink" x="0px" y="0px" width="240.0" height="240.0" xml:space="preserve">
		<path d="M156.3,163.93L119.972,200.325L83.642,163.93C63.971,144.227 63.971,112.283 83.642,92.584L84.366,91.867C104.033,72.163 135.92,72.163 155.583,91.867L156.3,92.584C175.975,112.283 175.975,144.227 156.3,163.93M123.087,70.17C123.845,59.706 128.86,31.793 143.91,34.034C158.971,36.284 152.197,59.706 123.087,70.17" fill="#ffffffff" stroke="#00000000" stroke-width="1.0" stroke-miterlimit=""/>
		<path d="M166.128,82.746L165.411,82.034C160.826,77.443 155.68,73.642 150.126,70.671C160.633,61.83 166.509,50.771 165.453,40.072C164.422,29.653 156.78,21.888 145.954,20.272C144.718,20.093 143.472,20.002 142.223,20C132.488,20 125.196,25.337 119.952,33.247C114.702,25.337 107.416,20 97.675,20C96.464,20 95.225,20.09 93.943,20.272C83.132,21.894 75.478,29.653 74.458,40.073C73.395,50.777 79.273,61.832 89.796,70.683C84.253,73.646 79.129,77.443 74.575,81.998L73.822,82.746C61.682,94.902 55,111.067 55,128.256C55,145.451 61.682,161.609 73.818,173.765L119.971,220L166.12,173.772C178.256,161.61 184.948,145.451 184.948,128.256C184.948,111.067 178.257,94.902 166.127,82.746" fill="#000" stroke="#00000000" stroke-width="1.0" stroke-miterlimit=""/>
		<path d="M116.814,70.17C116.058,59.706 111.043,31.793 95.983,34.034C80.936,36.284 87.709,59.706 116.814,70.17" fill="#000" stroke="#00000000" stroke-width="1.0" stroke-miterlimit=""/>
		<path d="M156.3,163.93L119.972,200.325L83.642,163.93C63.971,144.227 63.971,112.283 83.642,92.584L84.366,91.867C104.033,72.163 135.92,72.163 155.583,91.867L156.3,92.584C175.975,112.283 175.975,144.227 156.3,163.93" fill="#000" stroke="#00000000" stroke-width="1.0" stroke-miterlimit=""/>
		<path d="M123.087,70.17C123.845,59.706 128.86,31.793 143.91,34.034C158.971,36.284 152.197,59.706 123.087,70.17" fill="#000" stroke="#00000000" stroke-width="1.0" stroke-miterlimit=""/>
	</svg>
