<?xml version="1.0" encoding="utf-8"?>
	<svg version="1.1" xmlns="http://www.w3.org/2000/svg" xmlns:xlink="http://www.w3.org/1999/xlink" x="0px" y="0px" width="240.0" height="240.0" xml:space="preserve">
		<path d="M20.16,61.008C20.177,55.224 22.344,53.023 28.02,53.023C89.233,53.012 150.446,53.006 211.659,53L212.14,53C217.679,53 219.92,55.246 219.949,60.745L220,178.96C220,184.813 217.794,186.991 211.895,186.991L28.477,186.956C22.132,186.956 20,184.796 20,178.377L20.16,61.008ZM204.918,79.357C209.702,77.539 211.091,74.098 210.583,69.136C210.12,64.615 209.771,63.878 205.198,63.878L33.556,63.883C31.275,63.878 30.023,65.067 29.977,67.382C29.964,68.13 29.973,68.879 29.982,69.628C29.997,70.875 30.012,72.121 29.926,73.361C29.812,75.076 30.383,76.133 31.898,77.036C34.021,78.308 36.091,79.662 38.162,81.016C39.582,81.945 41.001,82.873 42.438,83.775C49.996,88.518 57.556,93.257 65.115,97.996C82.822,109.095 100.527,120.195 118.205,131.339C119.977,132.459 121.177,132.522 122.984,131.367C135.468,123.371 157.802,109.221 177.309,96.863C188.089,90.034 198.005,83.751 204.918,79.357Z" fill="#000" stroke="" stroke-width="" stroke-miterlimit=""/>
	</svg>
