<?xml version="1.0" encoding="utf-8"?>
	<svg version="1.1" xmlns="http://www.w3.org/2000/svg" xmlns:xlink="http://www.w3.org/1999/xlink" x="0px" y="0px" width="240.0" height="240.0" xml:space="preserve">
		<path d="M119.96,145.797C94.712,145.7 70.025,141.983 45.84,134.666C34.401,131.207 23.207,127.184 12.386,122.122C11.506,121.711 10.077,121.734 10.003,120.535C9.926,119.295 11.359,119.182 12.215,118.765C21.955,114.026 32.104,110.379 42.425,107.103C59.696,101.62 77.315,97.884 95.334,96.2C110.16,94.814 124.999,94.572 139.901,95.771C163.235,97.648 185.858,102.506 207.851,110.439C214.57,112.862 221.174,115.563 227.659,118.555C228.558,118.969 229.936,119.201 229.997,120.285C230.075,121.644 228.538,121.832 227.584,122.268C206.133,132.085 183.763,138.887 160.459,142.594C147.045,144.728 133.554,145.887 119.96,145.797" fill="#000" stroke="#00000000" stroke-width="1.0" stroke-miterlimit=""/>
	</svg>
