<?xml version="1.0" encoding="utf-8"?>
	<svg version="1.1" xmlns="http://www.w3.org/2000/svg" xmlns:xlink="http://www.w3.org/1999/xlink" x="0px" y="0px" width="240.0" height="240.0" xml:space="preserve">
		<path d="M50.868,108.257C52.032,106.628 51.101,102.673 49.472,102.673C47.611,102.673 47.378,106.628 47.844,107.792L47.844,108.024C46.68,107.326 43.19,105.465 39.933,105.93C39.7,105.93 39.235,106.395 39.467,107.094C39.933,108.257 41.096,110.118 45.051,110.351C45.517,110.351 47.611,110.351 47.378,110.816C40.165,117.331 21.319,138.271 20.156,151.766C18.294,168.519 33.418,181.781 49.705,181.781C65.992,181.781 81.813,168.053 79.254,151.766C76.695,135.014 56.22,113.143 50.636,108.955C50.17,109.188 50.636,108.49 50.868,108.257Z" fill="#000" stroke="#00000000" stroke-width="1.0" stroke-miterlimit=""/>
		<path d="M142.308,84.524C143.936,84.99 145.333,85.222 146.961,85.222C150.684,85.455 154.174,84.99 157.664,84.059C165.342,81.965 176.51,77.312 181.862,69.866C183.258,68.005 183.956,66.609 183.956,65.911C184.189,65.445 184.189,64.515 184.189,63.817C184.189,60.559 181.629,58 178.372,58C176.278,58 174.184,59.396 173.02,61.257C161.387,79.871 146.961,82.663 141.842,83.361C141.842,83.594 141.842,84.524 142.308,84.524L142.308,84.524Z" fill="#000" stroke="#00000000" stroke-width="1.0" stroke-miterlimit=""/>
		<path d="M217.926,146.415C216.53,146.648 213.272,146.415 213.272,146.415C200.708,146.415 186.748,142.692 177.441,134.781C171.624,129.663 175.58,126.871 177.441,125.707C182.327,122.45 189.54,117.098 194.891,110.584C200.708,103.138 204.431,92.435 205.362,87.084C206.06,81.5 207.688,71.96 205.129,63.119C204.664,61.49 203.5,58.931 200.475,58.465C198.614,58.465 197.451,59.163 195.124,63.119C187.679,73.589 178.604,82.43 160.456,86.851C154.639,88.247 148.823,88.48 145.565,88.48C135.328,88.247 131.605,82.663 129.511,79.871C126.254,75.916 124.392,72.426 120.437,69.401C103.917,57.069 87.863,63.351 84.14,65.213C67.621,73.124 64.828,87.084 62.036,94.297C60.873,96.623 59.477,98.485 57.15,100.346C54.824,102.207 49.472,106.395 46.68,111.049C46.68,111.049 46.215,112.212 47.378,111.514C49.938,110.118 56.22,108.024 63.2,111.514C71.576,115.702 73.437,121.984 83.442,134.781C93.447,147.578 109.501,163.632 138.12,169.682C159.758,174.335 177.441,170.845 191.634,165.727C193.961,165.029 201.406,161.073 202.104,160.84C207.921,157.583 213.505,153.628 218.624,149.44C221.416,147.346 219.322,146.182 217.926,146.415L217.926,146.415ZM77.858,97.554C75.531,98.019 72.972,96.391 72.507,93.831C72.041,91.505 73.67,88.945 75.997,88.48C78.323,88.015 80.883,89.643 81.348,91.97C81.813,94.762 80.185,97.089 77.858,97.554L77.858,97.554Z" fill="#000" stroke="#00000000" stroke-width="1.0" stroke-miterlimit=""/>
	</svg>
