<?xml version="1.0" encoding="utf-8"?>
	<svg version="1.1" xmlns="http://www.w3.org/2000/svg" xmlns:xlink="http://www.w3.org/1999/xlink" x="0px" y="0px" width="240.0" height="240.0" xml:space="preserve">
		<path d="M53.925,203.858C49.481,203.719 42.572,203.048 35.802,201.474C33.013,200.826 30.224,199.831 27.69,198.5C22.378,195.723 20.931,190.874 23.396,185.249C25.352,180.77 29.414,179.324 35.154,181.534C41.82,184.115 48.347,186.754 55.754,186.557C68.183,186.221 74.536,176.789 72.696,162.914C72.233,159.419 69.977,161.178 68.426,162.115C62.64,165.598 56.46,167.057 49.678,166.953C32.585,166.675 20.642,156.444 20.052,139.467C19.392,120.488 25.039,103.244 38.753,89.426C48.509,79.601 60.799,79.196 71.412,88.257C74.282,90.711 75.752,91.451 77.592,87.343C79.339,83.443 82.834,81.603 87.151,82.806C91.884,84.126 94.442,87.783 93.713,92.435C91.132,108.903 92.023,125.522 91.028,142.036C90.461,151.491 90.461,160.911 90.356,170.355C90.09,193.304 79.409,203.928 53.925,203.858ZM72.974,120.511C72.8,119.053 72.65,116.553 72.187,114.111C70.984,107.862 68.229,102.434 61.355,101.439C54.886,100.501 50.673,104.529 47.363,109.748C41.727,118.647 41.091,128.623 41.253,138.634C41.346,144.154 43.151,149.478 49.585,151.04C55.95,152.579 60.857,149.836 64.792,145.115C70.474,138.31 72.523,130.209 72.974,120.511Z" fill="#000" stroke="" stroke-width="" stroke-miterlimit=""/>
		<path d="M171.424,138.807C170.765,132.512 172.234,125.452 172.385,118.335C172.477,113.926 171.656,111.843 166.297,112.005C156.727,112.306 151.704,104.992 155.396,97.319C157.548,92.84 161.657,91.567 165.997,91.741C171.112,91.937 172.697,89.553 173.044,84.947C173.878,74.15 175.475,63.48 180.914,53.84C185.67,45.391 192.105,39.744 202.636,40.577C211.952,41.318 219.544,48.991 219.984,58.364C220.215,63.318 217.947,66.535 213.376,67.97C209.036,69.336 205.379,68.387 203.169,63.966C202.393,62.427 201.606,60.656 199.454,60.899C197.428,61.119 196.688,62.866 196.098,64.498C193.633,71.245 192.498,78.258 192.14,85.41C191.978,88.697 193.366,90.421 196.838,90.514C199.326,90.583 201.815,91 204.268,91.417C209.788,92.342 211.999,95.884 211.929,101.242C211.86,106.623 208.967,109.32 203.84,109.991C203.643,110.014 203.458,110.037 203.273,110.072C189.976,112.387 189.779,112.41 191.48,126.112C192.765,136.458 191.341,146.897 193.1,157.231C193.876,161.814 190.08,163.909 186.457,165.598C182.824,167.3 179.629,166.397 176.979,163.666C173.334,159.905 171.702,155.194 171.447,150.045C171.285,146.607 171.424,143.136 171.424,138.807Z" fill="#000" stroke="" stroke-width="" stroke-miterlimit=""/>
		<path d="M136.544,94.796C135.641,102.434 134.333,110.246 134.449,118.173C134.588,127.987 134.044,137.789 135.433,147.614C136.671,156.352 132.945,162.103 126.73,162.821C120.573,163.527 114.185,157.254 113.768,149.177C112.808,130.29 114.463,111.426 114.926,92.551C115.099,85.364 118.698,82.621 124.635,82.957C131.625,83.35 136.555,88.165 136.544,94.796Z" fill="#000" stroke="" stroke-width="" stroke-miterlimit=""/>
		<path d="M108.977,60.124C109.105,54.546 108.352,48.933 109.533,43.401C110.794,37.452 114.335,35.45 119.59,38.239C127.575,42.498 135.491,46.931 143.163,51.722C149.459,55.657 149.54,62.253 143.314,66.199C135.676,71.037 127.783,75.516 119.763,79.693C113.78,82.806 109.567,80.214 109.058,73.409C108.711,69 108.977,64.556 108.977,60.124Z" fill="#000" stroke="" stroke-width="" stroke-miterlimit=""/>
	</svg>
