<?xml version="1.0" encoding="utf-8"?>
	<svg version="1.1" xmlns="http://www.w3.org/2000/svg" xmlns:xlink="http://www.w3.org/1999/xlink" x="0px" y="0px" width="240.0" height="240.0" xml:space="preserve">
		<path d="M68.827,35.079C71.558,35.525 74.355,35.646 77.044,36.258C82.778,37.565 86.212,41.856 86.396,47.765C86.492,50.824 86.431,53.887 86.417,57.241L86.415,58.371L89.626,58.371C98.776,58.371 107.927,58.433 117.076,58.332C119.517,58.305 120.483,58.965 119.891,61.518C119.412,63.579 119.297,65.723 118.913,67.811C117.765,74.067 114.183,77.123 107.818,77.188C101.626,77.251 95.432,77.275 89.242,77.158C87.137,77.118 86.28,77.619 86.367,79.914C86.526,84.089 86.439,88.274 86.422,92.768L86.419,94.126L120.421,94.126C119.477,98.488 119.024,102.463 117.717,106.135C116.149,110.548 112.527,112.735 107.793,112.776C103.288,112.816 98.782,112.811 94.276,112.809L89.77,112.809L86.548,112.809C86.49,113.974 86.407,114.87 86.406,115.765C86.391,138.225 86.432,160.685 86.315,183.144C86.3,185.887 87.164,186.495 89.766,186.489C120.821,186.422 151.876,186.418 182.931,186.417L206.222,186.417L206.66,186.417C210.457,186.422 210.434,186.577 209.421,190.542C208.758,193.137 208.051,195.72 207.35,198.305C205.917,203.593 203.791,205.225 198.229,205.226C172.441,205.231 146.654,205.225 120.868,205.22C95.265,205.215 69.663,205.218 44.06,205.195C34.46,205.186 30.046,200.731 30.034,191.073C30.018,178.626 30.01,166.179 30.005,153.733L30,135.063L30.001,134.44C30.015,131.321 30.23,131.355 33.611,131.866C35.53,132.157 37.45,132.432 39.37,132.713C46.233,133.717 50.221,138.189 50.253,145.188C50.298,154.949 50.272,164.71 50.258,174.47L50.251,181.79L50.252,182.258C50.265,186.243 50.522,186.421 54.702,186.44L56.883,186.441C59.471,186.435 62.06,186.412 64.647,186.465C66.132,186.496 66.832,186.059 66.813,184.436C66.545,160.87 66.316,137.303 66.068,113.736C66.067,113.565 65.949,113.396 65.725,112.798C59.228,112.798 52.773,112.808 46.319,112.796C37.918,112.78 34.4,109.938 32.644,101.773C32.43,100.779 32.262,99.775 32.021,98.789C30.989,94.564 31.1,94.084 33.564,94.065L33.878,94.064C34.475,94.067 35.193,94.087 36.046,94.085C45.103,94.071 54.162,94.025 63.218,94.126C65.312,94.149 66.216,93.686 66.139,91.393C65.986,86.793 66.094,82.183 66.094,77.2L64.574,77.2C64.324,77.2 64.075,77.2 63.827,77.2L59.478,77.2C58.766,77.2 58.058,77.2 57.35,77.199C52.821,77.195 48.291,77.258 43.764,77.166C37.577,77.041 33.819,73.738 32.715,67.645C32.353,65.646 32.041,63.631 31.557,61.661C30.972,59.275 31.624,58.332 34.242,58.363C43.76,58.474 53.281,58.399 62.801,58.394L62.953,58.394L62.953,58.394L65.089,58.394L65.341,58.394L65.341,58.394L65.875,58.394L65.875,58.394C65.946,57.255 66.056,56.288 66.059,55.322C66.076,49.407 66.13,43.491 66.036,37.577C66.003,35.461 66.765,34.743 68.827,35.079ZM121.914,140.932C121.874,147.943 122.097,154.967 121.731,161.96C121.471,166.951 118.422,170.51 113.609,171.686C110.306,172.493 106.728,172.176 102.998,172.377C102.998,164.342 102.701,157.138 103.104,149.974C103.367,145.278 106.333,141.91 110.916,140.58C113.811,139.738 116.898,139.558 119.897,139.077C121.358,138.843 121.921,139.548 121.914,140.932ZM204.53,134.42C204.466,137.89 204.488,141.362 204.5,144.833L204.505,147.437L204.487,147.437C204.487,151.406 204.553,155.378 204.472,159.345C204.313,167.249 199.454,172.094 191.611,172.218C188.196,172.272 184.775,172.326 181.366,172.171C180.412,172.128 179.167,171.559 178.676,170.82C178.38,170.374 179.043,168.87 179.683,168.294C184.156,164.262 185.657,159.151 185.517,153.341C185.445,150.388 185.474,147.432 185.516,144.478C185.605,138.329 188.7,134.436 194.722,133.055C197.055,132.52 199.466,132.339 201.818,131.875C204.016,131.441 204.566,132.432 204.53,134.42ZM202.362,51.867C202.366,67.948 202.372,84.03 202.322,100.111C202.295,108.651 197.681,113.233 189.083,113.285C179.009,113.345 168.934,113.395 158.862,113.281C156.411,113.254 155.735,113.998 155.753,116.423C155.855,130.286 155.802,144.149 155.783,158.012C155.772,166.501 152.122,170.606 143.761,171.59C135.493,172.564 135.486,172.564 135.479,164.207L135.474,151.037L135.474,151.037L135.476,137.867L135.44,137.867C135.44,127.885 135.414,117.904 135.448,107.922C135.478,99.258 140.153,94.625 148.864,94.602C159.03,94.576 169.197,94.599 179.363,94.583C183.032,94.577 183.498,94.104 183.506,90.41C183.52,84.217 183.522,78.025 183.494,71.833C183.479,68.475 183.031,68.052 179.603,68.048C169.529,68.036 159.452,67.876 149.383,68.096C142.022,68.256 136.056,63.671 136.001,55.859C135.955,49.182 135.576,49.18 142.236,49.177C154.713,49.17 167.193,49.354 179.665,49.082C185.356,48.958 191.052,48.109 196.698,47.27C200.995,46.63 202.361,47.5 202.362,51.867Z" fill="#000" stroke="#00000000" stroke-width="1.0" stroke-miterlimit=""/>
	</svg>
