<?xml version="1.0" encoding="utf-8"?>
	<svg version="1.1" xmlns="http://www.w3.org/2000/svg" xmlns:xlink="http://www.w3.org/1999/xlink" x="0px" y="0px" width="240.0" height="240.0" xml:space="preserve">
		<path d="M157.356,153.107L202.707,126.803C204.522,125.896 206.336,123.175 206.336,121.361V118.639C206.336,115.918 205.429,114.104 202.707,113.197L157.356,86.893L127.424,119.546L157.356,153.107V153.107ZM120.168,111.383L147.379,80.544L46.698,20.68C44.884,19.773 43.07,19.773 41.256,20.68L120.168,111.383ZM120.168,128.617L41.256,219.32C43.07,220.227 44.884,220.227 46.698,219.32L147.379,160.363L120.168,128.617ZM34,29.751V209.342L112.912,119.546L34,29.751Z" fill="#000" stroke="" stroke-width="" stroke-miterlimit=""/>
	</svg>
