<?xml version="1.0" encoding="utf-8"?>
	<svg version="1.1" xmlns="http://www.w3.org/2000/svg" xmlns:xlink="http://www.w3.org/1999/xlink" x="0px" y="0px" width="240.0" height="240.0" xml:space="preserve">
		<path d="M20.455,182.52C19.411,178.649 20.211,175.201 22.364,171.801C46.576,133.582 70.717,95.31 94.906,57.068C99.839,49.271 109.067,49.301 114.054,57.08C116.673,61.166 119.214,65.294 121.791,69.404C120.675,70.4 119.232,70.394 117.89,70.609C112.068,71.545 107.439,74.385 104.528,79.526C100.662,86.351 99.887,93.437 104.176,100.392C108.041,106.65 114.06,108.851 121.158,108.803C129.581,108.744 138.004,108.768 146.433,108.75C153.835,120.334 161.244,131.912 168.647,143.496C170.526,146.437 170.532,146.443 172.369,143.55C173.962,141.045 175.459,138.468 177.159,136.034C181.531,129.777 190.622,129.729 194.756,136.112C202.725,148.412 210.599,160.777 218.306,173.245C222.9,180.671 217.632,189.458 208.732,189.476C183.458,189.517 158.178,189.5 132.904,189.488C98.211,189.476 63.523,189.44 28.83,189.428C28.246,189.428 27.661,189.589 27.076,189.678C25.937,188.855 24.798,188.032 23.659,187.209C23.044,186.541 22.436,185.879 21.821,185.211C21.368,184.316 20.909,183.415 20.455,182.52Z" fill="#000" stroke="" stroke-width="" stroke-miterlimit=""/>
		<path d="M179.363,65.985C179.482,66.176 179.595,66.373 179.709,66.564C186.545,80.606 181.271,94.881 171.417,101.734C166.848,104.914 161.777,106.691 156.212,106.936C153.552,107.049 150.879,106.996 148.213,107.031C147.091,107.043 145.862,106.978 146.429,108.755C138.006,108.767 129.578,108.743 121.155,108.809C114.056,108.863 108.038,106.656 104.172,100.398C99.877,93.443 100.659,86.356 104.524,79.532C107.435,74.396 112.064,71.557 117.886,70.614C119.228,70.4 120.672,70.406 121.787,69.409C125.593,70.871 126.625,70.441 128.474,66.892C133.449,57.36 141.556,52.421 152.018,51.001C163.567,50.924 172.747,55.278 178.879,65.341C179.046,65.556 179.202,65.771 179.363,65.985Z" fill="#000" stroke="" stroke-width="" stroke-miterlimit=""/>
	</svg>
