<?xml version="1.0" encoding="utf-8"?>
	<svg version="1.1" xmlns="http://www.w3.org/2000/svg" xmlns:xlink="http://www.w3.org/1999/xlink" x="0px" y="0px" width="240.0" height="240.0" xml:space="preserve">
		<path d="M159.037,120.17C159.772,140.977 141.126,159.498 119.73,158.999C98.071,158.493 81.518,141.732 81.199,119.671C80.894,99.065 99.138,80.461 120.756,81.008C142.18,81.555 159.044,98.337 159.037,120.17Z" fill="#000" stroke="" stroke-width="" stroke-miterlimit=""/>
		<path d="M20.226,80.052C19.395,70.823 20.739,60.007 26.226,50.106C36.807,31.031 52.84,20.547 74.929,20.09C81.505,19.951 88.087,20.139 94.662,20.042C97.136,20.007 98.21,20.845 98.168,23.43C98.064,30.587 98.078,37.745 98.161,44.895C98.189,47.306 97.177,48.096 94.849,48.131C87.47,48.228 80.098,47.875 72.719,48.602C60.448,49.808 49.951,60.326 48.745,72.631C48.045,79.782 48.281,86.925 48.315,94.069C48.329,97.118 47.283,98.108 44.29,98.032C37.486,97.866 30.668,97.9 23.864,98.018C21.224,98.06 20.081,97.194 20.184,94.436C20.337,90.3 20.226,86.142 20.226,80.052Z" fill="#000" stroke="" stroke-width="" stroke-miterlimit=""/>
		<path d="M220.033,82.248C220.033,86.288 219.922,90.334 220.068,94.374C220.165,97.118 219.021,98.018 216.382,97.977C209.688,97.866 202.981,97.824 196.288,97.998C193.184,98.074 192.006,97.097 192.041,93.861C192.11,86.711 192.276,79.567 191.583,72.41C190.419,60.367 179.811,49.752 167.79,48.581C160.521,47.875 153.26,48.103 145.992,48.11C143.137,48.11 142.119,47.105 142.174,44.265C142.313,37.336 142.223,30.407 142.223,23.478C142.223,21.746 142.389,20.125 144.71,20.173C154.854,20.409 165.046,19.252 175.134,20.935C200.099,25.1 219.971,48.623 220.033,73.934C220.047,76.705 220.04,79.477 220.033,82.248Z" fill="#000" stroke="" stroke-width="" stroke-miterlimit=""/>
		<path d="M80.52,219.854C72.601,220.402 63.191,219.466 54.107,215.725C34.146,207.507 20.323,187.144 20.302,165.581C20.295,159.006 20.399,152.423 20.26,145.855C20.198,142.979 21.3,142.002 24.12,142.058C30.806,142.189 37.506,142.21 44.192,142.051C47.179,141.982 48.232,142.993 48.239,146.035C48.26,153.296 47.497,160.599 48.668,167.805C51.024,182.328 61.972,191.682 76.744,191.959C82.627,192.07 88.516,192.063 94.398,191.959C97.032,191.911 98.147,192.804 98.105,195.548C97.988,202.47 97.988,209.392 98.105,216.314C98.154,219.065 97.018,219.979 94.392,219.896C90.352,219.764 86.313,219.854 80.52,219.854Z" fill="#000" stroke="" stroke-width="" stroke-miterlimit=""/>
		<path d="M208.976,186.776C208.948,199.449 199.331,208.852 186.423,208.824C173.75,208.796 164.347,199.179 164.375,186.271C164.403,173.598 174.02,164.195 186.928,164.223C199.601,164.244 209.003,173.868 208.976,186.776Z" fill="#000" stroke="" stroke-width="" stroke-miterlimit=""/>
	</svg>
