<?xml version="1.0" encoding="utf-8"?>
	<svg version="1.1" xmlns="http://www.w3.org/2000/svg" xmlns:xlink="http://www.w3.org/1999/xlink" x="0px" y="0px" width="240.0" height="240.0" xml:space="preserve">
		<path d="M37.426,128.281C26.345,128.281 15.5,128.284 4.653,128.278C3.223,128.278 1.298,128.785 0.494,128.061C-0.427,127.238 0.224,125.276 0.213,123.813C0.18,118.808 0.246,113.8 0.169,108.795C0.149,107.591 0.513,107.391 1.626,107.393C14.605,107.435 27.586,107.399 40.564,107.449C41.841,107.455 42.253,107.246 42.242,105.841C42.164,96.802 42.219,87.763 42.178,78.724C42.172,77.67 42.395,77.339 43.516,77.347C50.841,77.403 58.163,77.397 65.489,77.353C66.468,77.347 66.707,77.597 66.701,78.571C66.662,87.749 66.701,96.927 66.646,106.105C66.64,107.238 66.977,107.443 68.023,107.441C81.327,107.407 94.631,107.443 107.934,107.379C109.331,107.374 109.562,107.774 109.545,109.057C109.473,114.988 109.481,120.925 109.54,126.857C109.551,127.978 109.325,128.314 108.132,128.309C96.867,128.256 85.603,128.278 74.338,128.278C73.829,128.278 73.323,128.278 72.814,128.278C72.561,128.796 72.975,129.091 73.15,129.411C77.941,138.18 82.748,146.94 87.561,155.698C88.752,157.865 90.246,159.805 92.093,161.46C94.539,163.649 97.343,164.837 100.687,164.732C103.28,164.648 105.878,164.757 108.474,164.693C109.367,164.67 109.534,164.96 109.529,165.786C109.495,172.043 109.487,178.302 109.534,184.559C109.54,185.48 109.217,185.6 108.421,185.594C103.6,185.561 98.765,185.82 93.96,185.525C84.679,184.96 77.165,180.773 71.286,173.612C68.922,170.73 67.108,167.514 65.55,164.136C62.317,157.123 59.059,150.123 55.81,143.118C55.584,142.631 55.331,142.155 54.997,141.487C54.664,142.13 54.402,142.595 54.174,143.076C50.546,150.721 46.993,158.402 43.274,166.003C38.962,174.817 32.474,181.299 22.895,184.281C20.138,185.138 17.326,185.619 14.421,185.589C10.112,185.544 5.799,185.55 1.487,185.6C0.519,185.611 0.146,185.466 0.157,184.353C0.224,178.28 0.205,172.21 0.169,166.137C0.163,165.263 0.344,164.946 1.292,164.971C3.933,165.04 6.578,164.943 9.219,165.007C12.301,165.082 14.919,163.989 17.225,162.033C19.228,160.336 20.836,158.311 22.105,156.021C27.088,147.038 32.048,138.046 37.017,129.057C37.139,128.868 37.231,128.668 37.426,128.281Z" fill="#000" stroke="" stroke-width="" stroke-miterlimit=""/>
		<path d="M239.971,136.007C239.971,147.271 239.954,158.536 239.999,169.8C240.004,170.919 239.682,171.147 238.624,171.141C230.837,171.097 223.048,171.155 215.261,171.077C213.961,171.064 213.775,171.464 213.795,172.613C213.864,176.553 213.797,180.492 213.839,184.434C213.847,185.299 213.675,185.611 212.723,185.605C206.419,185.558 200.115,185.564 193.811,185.603C192.915,185.608 192.648,185.388 192.659,184.468C192.712,180.389 192.654,176.308 192.704,172.229C192.715,171.308 192.451,171.091 191.552,171.094C183.67,171.13 175.792,171.086 167.91,171.15C166.708,171.158 166.505,170.808 166.508,169.692C166.541,147.488 166.533,125.285 166.536,103.078C166.536,97.119 170.433,93.074 176.387,92.979C181.392,92.899 186.4,92.927 191.405,92.982C192.42,92.993 192.726,92.782 192.709,91.714C192.64,87.31 192.707,82.906 192.659,78.504C192.648,77.597 192.89,77.353 193.803,77.358C200.107,77.4 206.411,77.4 212.715,77.355C213.653,77.35 213.85,77.636 213.842,78.518C213.797,82.875 213.875,87.234 213.789,91.588C213.764,92.801 214.145,92.999 215.252,92.985C220.165,92.921 225.079,92.96 229.992,92.96C231.775,92.96 233.505,93.258 235.102,94.07C238.474,95.789 239.932,98.719 239.949,102.355C240.004,113.572 239.971,124.79 239.971,136.007ZM192.684,116.738C192.684,115.859 192.718,114.977 192.676,114.101C192.609,112.64 193.316,110.632 192.395,109.867C191.51,109.132 189.574,109.705 188.102,109.627C187.315,109.586 187.09,109.842 187.103,110.626C187.148,113.447 187.09,116.271 187.134,119.095C187.156,120.555 186.486,122.564 187.412,123.326C188.303,124.061 190.233,123.529 191.708,123.554C191.755,123.554 191.802,123.549 191.847,123.557C192.523,123.666 192.709,123.368 192.698,122.709C192.662,120.719 192.684,118.73 192.684,116.738ZM219.389,116.602C219.389,115.77 219.42,114.935 219.381,114.104C219.314,112.643 220.024,110.634 219.1,109.872C218.212,109.138 216.276,109.708 214.807,109.625C214.012,109.58 213.797,109.842 213.808,110.623C213.853,113.444 213.797,116.268 213.839,119.092C213.861,120.555 213.194,122.561 214.115,123.326C214.999,124.061 216.936,123.49 218.404,123.568C219.189,123.61 219.428,123.362 219.406,122.572C219.353,120.583 219.389,118.594 219.389,116.602ZM187.123,147.333C187.123,148.212 187.09,149.094 187.131,149.97C187.198,151.431 186.489,153.439 187.415,154.201C188.305,154.936 190.239,154.363 191.711,154.446C192.512,154.491 192.715,154.218 192.704,153.445C192.662,150.624 192.718,147.8 192.673,144.976C192.651,143.516 193.319,141.507 192.398,140.745C191.51,140.013 189.577,140.544 188.105,140.522C188.058,140.522 188.01,140.528 187.966,140.522C187.298,140.419 187.098,140.703 187.112,141.368C187.148,143.354 187.123,145.343 187.123,147.333ZM219.389,147.472C219.389,146.64 219.423,145.805 219.381,144.973C219.311,143.513 220.024,141.507 219.094,140.742C218.201,140.01 216.268,140.581 214.799,140.5C213.995,140.455 213.797,140.734 213.808,141.504C213.85,144.325 213.795,147.149 213.839,149.973C213.861,151.433 213.191,153.442 214.117,154.204C215.005,154.936 216.938,154.405 218.413,154.427C218.46,154.427 218.507,154.421 218.552,154.427C219.222,154.53 219.417,154.24 219.406,153.578C219.364,151.545 219.389,149.508 219.389,147.472Z" fill="#000" stroke="" stroke-width="" stroke-miterlimit=""/>
		<path d="M141.247,114.652C135.201,114.652 129.184,114.652 123.166,114.652C120.921,114.652 120.921,114.652 120.921,112.426C120.921,106.539 120.949,100.655 120.893,94.768C120.882,93.722 121.152,93.48 122.184,93.486C133.538,93.527 144.894,93.572 156.248,93.486C162.218,93.441 164.51,97.242 163.311,102.525C161.2,111.82 158.824,121.053 156.543,130.309C156.348,131.094 156.387,131.806 156.645,132.582C158.69,138.672 160.705,144.77 162.705,150.874C163.336,152.797 162.766,153.681 160.73,153.823C159.208,153.929 157.667,153.94 156.145,153.845C154.937,153.77 154.531,154.054 154.539,155.381C154.606,164.974 154.553,174.569 154.603,184.161C154.609,185.285 154.384,185.628 153.193,185.611C147.309,185.541 141.422,185.55 135.535,185.605C134.503,185.614 134.236,185.372 134.242,184.323C134.289,175.009 134.244,165.691 134.3,156.377C134.306,155.209 134.013,154.928 132.864,154.953C129.111,155.033 125.356,154.955 121.603,155.003C120.704,155.014 120.323,154.894 120.334,153.843C120.39,148.003 120.387,142.164 120.337,136.324C120.328,135.356 120.665,135.197 121.516,135.217C123.973,135.267 126.43,135.258 128.886,135.228C131.69,135.194 133.883,133.951 134.943,131.364C137.143,125.997 139.155,120.552 141.238,115.139C141.286,115.019 141.247,114.869 141.247,114.652Z" fill="#000" stroke="" stroke-width="" stroke-miterlimit=""/>
		<path d="M134.272,71.346C134.272,69.123 134.3,66.9 134.261,64.677C134.239,63.534 134.614,62.602 135.413,61.809C137.65,59.595 139.864,57.355 142.131,55.168C143.728,53.627 145.731,53.599 147.348,55.143C149.724,57.414 152.033,59.759 154.356,62.085C155.11,62.839 155.435,63.748 155.427,64.842C155.394,69.196 155.391,73.547 155.427,77.901C155.438,79.144 155.051,80.174 154.194,81.031C151.935,83.289 149.682,85.554 147.384,87.774C145.823,89.282 143.712,89.307 142.148,87.81C139.875,85.632 137.663,83.39 135.432,81.167C134.639,80.377 134.261,79.42 134.269,78.29C134.283,75.978 134.272,73.661 134.272,71.346Z" fill="#000" stroke="" stroke-width="" stroke-miterlimit=""/>
	</svg>
