<?xml version="1.0" encoding="utf-8"?>
	<svg version="1.1" xmlns="http://www.w3.org/2000/svg" xmlns:xlink="http://www.w3.org/1999/xlink" x="0px" y="0px" width="240.0" height="240.0" xml:space="preserve">
		<path d="M169.762,30.034C190.687,30.065 206.103,43.128 209.593,63.699C209.855,65.248 209.928,66.846 209.929,68.42C209.956,102.697 210.077,136.975 209.923,171.252C209.84,189.624 197.607,204.633 179.762,208.953C176.573,209.725 173.32,209.935 170.039,209.935C136.711,209.934 103.383,210 70.055,209.954C49.466,209.927 33.935,196.873 30.453,176.741C30.089,174.634 30.036,172.461 30.026,170.3L30.023,168.862L30.023,168.862C29.987,152.514 30.004,136.167 30.004,119.819L30.054,119.819C30.054,103.156 29.994,86.491 30.07,69.827C30.166,49.295 43.292,33.823 63.476,30.403C65.745,30.018 68.096,30.015 70.409,30.014C103.527,30 136.644,29.984 169.762,30.034ZM69.759,152.303C62.025,152.259 55.975,155.211 52.169,161.942C44.973,174.67 54.302,189.889 69.297,189.917C102.393,189.977 135.491,189.926 168.587,189.959C170.816,189.961 172.994,189.746 175.166,189.322C184.448,187.51 191.334,177.483 189.577,168.34C187.622,158.174 180.676,152.405 169.998,152.354C153.345,152.276 136.69,152.334 120.036,152.333C103.277,152.333 86.518,152.399 69.759,152.303ZM170.996,100.464C160.588,100.529 151.86,109.274 151.822,119.675C151.784,130.206 160.618,139.001 171.193,138.96C181.675,138.919 190.276,130.29 190.298,119.792C190.321,109.199 181.534,100.4 170.996,100.464ZM119.935,100.603C109.603,100.474 100.77,109.174 100.655,119.593C100.54,129.928 109.261,138.773 119.649,138.858C130.03,138.943 138.833,130.271 138.913,119.879C138.993,109.478 130.384,100.734 119.935,100.603ZM68.438,100.644C58.158,100.698 49.552,109.241 49.395,119.549C49.237,129.847 58.012,138.756 68.377,138.822C78.73,138.888 87.55,130.135 87.573,119.775C87.595,109.405 78.779,100.591 68.438,100.644ZM68.446,49.159C58.061,49.182 49.339,57.834 49.219,68.23C49.097,78.741 57.837,87.616 68.364,87.673C78.927,87.729 87.707,79.022 87.729,68.468C87.751,57.932 78.967,49.136 68.446,49.159ZM119.895,49.173C109.378,49.111 100.489,57.972 100.527,68.481C100.564,78.902 109.263,87.612 119.684,87.662C130.274,87.713 139.035,78.971 139.013,68.375C138.991,57.934 130.331,49.237 119.895,49.173ZM169.709,54.93C165.872,51.076 161.748,50.125 157.412,52.113C152.737,54.257 150.554,58.09 150.357,64.574C150.197,66.896 151.832,69.89 154.202,72.563C158.262,77.144 162.821,81.212 167.491,85.146C170.037,87.291 172.234,87.226 174.85,85.015C179.111,81.414 183.274,77.696 187.065,73.589C188.351,72.197 189.578,70.756 190.451,69.051C193.183,63.715 191.724,56.939 187.079,53.42C182.416,49.888 177.152,50.4 172.374,55.07C171.175,56.24 170.725,55.95 169.709,54.93Z" fill="#ff010101" stroke="#00000000" stroke-width="1.0" stroke-miterlimit=""/>
	</svg>
