<?xml version="1.0" encoding="utf-8"?>
	<svg version="1.1" xmlns="http://www.w3.org/2000/svg" xmlns:xlink="http://www.w3.org/1999/xlink" x="0px" y="0px" width="240.0" height="240.0" xml:space="preserve">
		<path d="M85.631,23.62C98.134,30.766 110.687,37.832 123.369,44.654C146.741,57.225 169.543,70.77 192.293,84.408L202.528,90.548L202.528,90.548C207.744,93.676 212.944,96.835 218.239,99.822C233.831,108.616 234.26,130.43 218.913,139.6C199.679,151.093 180.411,162.529 161.111,173.912C136.208,188.599 110.838,202.462 85.549,216.468C74.907,222.362 64.475,220.785 56.654,212.443C52.906,208.445 51.09,203.647 51.086,198.189C51.045,146.111 51.003,94.034 51,41.956C51,29.471 60.684,19.993 73.65,20.02C77.789,19.802 81.721,21.385 85.631,23.62ZM97.305,90.614C97.279,99.577 97.297,108.54 97.297,117.503L97.263,117.503C97.263,126.572 97.303,135.642 97.237,144.711L97.237,145.186C97.257,147.253 97.592,147.954 100.149,146.545C116.124,137.733 131.822,128.447 147.539,119.193C150.66,117.355 150.672,116.978 147.484,115.154C131.931,106.248 116.375,97.348 100.819,88.451C97.737,86.688 97.316,86.926 97.305,90.614Z" fill="#000" stroke="#00000000" stroke-width="1.0" stroke-miterlimit=""/>
	</svg>
