<?xml version="1.0" encoding="utf-8"?>
	<svg version="1.1" xmlns="http://www.w3.org/2000/svg" xmlns:xlink="http://www.w3.org/1999/xlink" x="0px" y="0px" width="240.0" height="240.0" xml:space="preserve">
		<path d="M119.748,219.977C119.748,219.97 119.748,219.97 119.748,219.962C141.629,219.962 163.518,220.069 185.399,219.924C199.5,219.832 211.067,208.205 211.403,194.141C211.502,189.942 211.273,185.735 211.472,181.544C211.861,173.169 208.647,166.183 203.524,159.854C197.393,152.272 189.514,146.874 180.91,142.652C154.272,129.582 126.199,125.711 96.966,130.49C78.154,133.567 60.41,139.553 45.08,151.326C33.872,159.93 26.718,170.634 28.192,185.575C28.413,187.843 28.215,190.156 28.23,192.439C28.344,208.609 39.736,219.932 55.998,219.962C77.253,220.008 98.5,219.977 119.748,219.977ZM119.389,20C96.049,19.992 77.894,38.003 77.856,61.213C77.81,84.605 96.11,103.051 119.366,103.059C142.354,103.066 160.937,84.552 160.96,61.617C160.983,38.163 142.851,20.008 119.389,20Z" fill="#000" stroke="" stroke-width="" stroke-miterlimit=""/>
	</svg>
