<?xml version="1.0" encoding="utf-8"?>
	<svg version="1.1" xmlns="http://www.w3.org/2000/svg" xmlns:xlink="http://www.w3.org/1999/xlink" x="0px" y="0px" width="240.0" height="240.0" xml:space="preserve">
		<path d="M200.051,120.078C200.051,132.532 199.877,144.985 200.129,157.429C200.251,163.426 198.408,167.606 192.812,170.413C186.225,173.706 179.976,177.687 173.528,181.284C167.74,184.517 166.775,183.892 166.775,177.044C166.758,152.867 166.541,128.682 166.915,104.514C167.027,97.44 165.055,92.738 158.554,89.566C152.202,86.455 146.197,82.623 140.079,79.042C136.976,77.226 135.881,78.365 135.89,81.597C135.916,87.385 135.829,93.182 135.89,98.969C135.925,102.767 134.161,104.583 130.372,104.566C122.846,104.54 115.311,104.522 107.785,104.566C104.518,104.583 103.058,102.819 102.771,99.804C102.649,98.509 102.667,97.205 102.667,95.902C102.658,73.029 102.658,50.156 102.667,27.282C102.667,19.061 103.71,18.34 110.992,22.477C131.241,34 151.394,45.689 171.573,57.334C179.09,61.67 186.485,66.224 194.107,70.369C198.504,72.768 200.112,76.227 200.077,80.998C199.999,94.016 200.051,107.051 200.051,120.078Z" fill="#000" stroke="" stroke-width="" stroke-miterlimit=""/>
		<path d="M39.05,119.705C39.05,106.669 39.137,93.633 39.007,80.607C38.963,75.957 40.415,72.69 44.734,70.387C52.008,66.502 59.021,62.131 66.156,57.994C70.866,55.265 72.273,56.039 72.282,61.627C72.326,86.968 72.386,112.318 72.23,137.659C72.195,142.977 73.62,146.662 78.687,149.191C85.405,152.545 91.775,156.604 98.266,160.41C101.49,162.296 102.725,161.253 102.681,157.734C102.612,152.667 102.612,147.592 102.681,142.525C102.759,136.92 104.384,135.086 109.842,134.947C116.499,134.782 123.164,134.8 129.821,134.93C134.618,135.026 135.852,136.407 135.861,141.37C135.896,165.842 135.896,190.322 135.861,214.794C135.852,220.391 134.549,221.243 129.76,218.497C106.149,204.966 82.598,191.339 59.021,177.747C54.258,175.001 49.548,172.133 44.708,169.526C40.701,167.362 38.937,164.251 38.989,159.68C39.128,146.349 39.05,133.027 39.05,119.705Z" fill="#000" stroke="" stroke-width="" stroke-miterlimit=""/>
	</svg>
