<?xml version="1.0" encoding="utf-8"?>
	<svg version="1.1" xmlns="http://www.w3.org/2000/svg" xmlns:xlink="http://www.w3.org/1999/xlink" x="0px" y="0px" width="240.0" height="240.0" xml:space="preserve">
		<path d="M168.78,30C191.451,30 210,48.809 210,71.798L210,71.798L210,168.202C210,191.191 191.451,210 168.78,210L168.78,210L71.22,210C48.549,210 30,191.191 30,168.202L30,168.202L30,71.798C30,48.809 48.549,30 71.22,30L71.22,30ZM117.972,86.589C116.438,86.365 114.874,86.667 113.528,87.448C111.871,88.426 111.012,89.92 110.962,91.861C110.925,93.446 110.936,95.03 110.925,96.616L110.925,96.616L110.925,129.676C111.193,130.723 110.552,130.916 109.751,130.955C109.601,131.076 109.409,131.131 109.219,131.108C107.502,131.829 105.686,132.297 104.066,133.242C102.095,134.35 100.276,135.719 98.658,137.311C96.492,139.516 94.796,142.023 93.374,144.74C92.496,146.849 91.843,149.052 91.651,151.315C91.461,153.546 91.587,155.794 92.026,157.988C92.585,160.768 93.706,163.297 95.101,165.721C95.46,166.214 95.798,166.73 96.185,167.201C103.452,176.07 112.745,178.879 123.704,176.58C126.828,175.924 129.65,174.478 132.343,172.774C133.089,172.173 133.852,171.592 134.577,170.965C138.343,167.717 140.783,163.623 142.106,158.816C142.131,158.611 142.141,158.413 142.181,158.204C143.537,151.34 141.935,145.211 137.743,139.72C136.88,138.569 135.804,137.618 134.819,136.586C131.607,133.822 127.811,131.847 123.724,130.813C123.364,130.723 123.135,130.661 123.135,130.172C123.166,125.235 123.176,120.297 123.176,115.36C123.168,113.567 123.174,111.772 123.137,109.979C123.127,109.471 123.291,109.339 123.78,109.339C124.514,109.344 125.249,109.346 125.984,109.346L130.392,109.339C132.953,109.335 134.444,107.849 134.479,105.247C134.493,103.893 134.437,102.539 134.493,101.189C134.608,98.397 133.069,97.113 130.39,96.992C128.219,96.892 126.041,96.978 123.864,96.955C123.625,96.95 123.166,97.216 123.176,96.616C123.168,95.266 123.106,93.914 123.157,92.566C123.293,89.145 121.096,86.975 117.972,86.589ZM108.695,144.889C114.448,140.866 122.857,141.635 127.552,146.596C128.879,147.999 129.835,149.622 130.218,151.551C130.29,151.979 130.359,152.402 130.425,152.82C130.433,153.056 130.439,153.292 130.447,153.528C130.534,156.722 129.2,159.29 126.944,161.38C124.431,163.708 121.399,164.835 118.026,165.025C114.252,165.234 110.806,164.323 107.863,161.865C104.66,159.188 103.153,155.813 104.042,151.549C104.672,148.669 106.352,146.527 108.695,144.889ZM75.884,65.675C73.714,61.969 68.397,61.581 65.785,64.989C64.901,66.149 63.912,67.223 62.968,68.333C62.852,68.5 62.743,68.674 62.622,68.835C57.809,75.222 54.334,82.25 52.642,90.141C52.457,91.009 52.356,91.901 52.003,92.727C52.164,93.166 52.051,93.617 51.985,94.035C51.078,99.954 51.492,105.822 52.644,111.657C53.434,115.653 54.909,119.417 56.525,123.131C57.094,124.251 57.638,125.384 58.236,126.487C60.385,130.452 63.182,133.925 66.202,137.233C67.826,139.031 69.909,139.442 72.178,138.799C74.448,138.155 75.897,136.617 76.461,134.262C76.83,132.725 76.469,131.296 75.886,129.894C75.337,129.141 74.752,128.42 74.157,127.705L72.966,126.278C72.175,125.323 71.402,124.351 70.715,123.306C67.558,118.51 65.311,113.352 64.281,107.663C64.263,107.518 64.253,107.371 64.252,107.224C63.673,104.744 63.687,102.221 63.724,99.701C63.802,95.741 64.552,91.824 65.942,88.123C66.251,86.825 66.812,85.631 67.385,84.444C69.466,80.135 72.069,76.189 75.396,72.758C76.83,70.584 77.032,68.291 76.041,65.884C75.984,65.818 75.931,65.748 75.884,65.675ZM169.773,62.667C167.947,62.521 166.424,63.246 164.998,64.291C162.685,67.04 162.768,70.074 164.66,72.916C165.748,73.811 166.599,74.929 167.451,76.032C169.707,78.907 171.583,82.069 173.03,85.437L173.03,85.437L173.203,85.824C173.525,86.373 173.753,86.974 173.877,87.6C175.008,90.469 175.748,93.481 176.078,96.553C176.461,100.133 176.472,103.726 175.765,107.279C175.544,108.386 175.357,109.523 174.907,110.579C174.825,111.691 174.439,112.729 174.064,113.753C172.675,117.543 170.799,121.131 168.483,124.422C167.595,125.695 166.616,126.9 165.554,128.027C163.621,130.069 162.943,132.408 163.755,135.148C164.388,136.508 165.276,137.631 166.624,138.333C169.223,139.687 171.731,139.215 174.204,136.901C174.363,136.719 174.522,136.535 174.683,136.354L174.683,136.354L175.423,135.49L175.874,134.932L176.144,134.617C176.385,134.289 176.62,133.954 176.869,133.635C180.725,128.684 183.772,123.277 185.833,117.312C187.162,113.465 187.865,109.484 188.357,105.454C188.364,105.13 188.353,104.806 188.376,104.484C188.876,97.566 187.952,90.618 185.664,84.081C184.444,80.557 182.786,77.242 180.983,73.997C180.913,73.907 180.839,73.819 180.777,73.723C178.596,70.344 176.249,67.098 173.419,64.237C172.409,63.215 171.167,62.78 169.773,62.667ZM92.995,76.051C90.697,74.776 88.349,74.814 86.162,76.35C84.971,77.184 84.176,78.45 83.322,79.608C81.366,82.27 79.707,85.144 78.376,88.177C77.625,89.969 77.055,91.834 76.676,93.742C76.234,95.96 75.973,98.211 75.894,100.472C75.835,102.746 76.154,104.982 76.453,107.22C76.772,108.378 77.059,109.546 77.415,110.689C78.809,115.145 81.074,119.112 83.928,122.767C84.703,123.76 85.458,124.809 86.455,125.509C89.911,127.935 94.951,125.894 95.857,121.73C96.325,119.569 95.725,117.609 94.322,115.91C91.65,113.158 89.742,109.741 88.79,106.002C87.972,102.877 87.819,99.755 88.605,96.608C88.65,96.348 88.679,96.085 88.739,95.832C89.627,92.127 91.439,88.921 93.945,86.129C94.984,84.963 95.725,83.684 95.995,82.135L95.995,82.135L95.995,81.694C96.109,79.186 95.15,77.249 92.995,76.051ZM155.138,77.796C153.553,75.892 151.707,74.979 149.312,75.238C147.679,75.416 146.282,76.07 145.243,77.474C144.204,78.879 143.825,80.417 143.871,82.118C144.39,84.24 145.855,85.738 147.131,87.391C149.268,90.164 150.878,93.234 151.443,96.773C152.09,99.324 152.042,101.895 151.568,104.455C150.806,108.641 148.86,112.511 145.969,115.597C145.869,115.743 145.76,115.882 145.643,116.015C143.374,118.284 143.421,122.433 145.771,124.792C147.935,126.964 152.304,127.033 154.392,124.694C155.899,123.023 157.277,121.238 158.514,119.352C160.328,116.566 161.653,113.536 162.729,110.401C162.762,110.202 162.793,110 162.861,109.793C164.223,104.869 164.53,99.893 163.605,94.85C163.151,92.411 162.352,90.085 161.502,87.769C161.307,87.516 161.17,87.221 161.103,86.906L161.103,86.906L160.497,85.652C158.942,82.879 157.149,80.25 155.138,77.796Z" fill="#000" stroke="#00000000" stroke-width="1.0" stroke-miterlimit=""/>
	</svg>
