<?xml version="1.0" encoding="utf-8"?>
	<svg version="1.1" xmlns="http://www.w3.org/2000/svg" xmlns:xlink="http://www.w3.org/1999/xlink" x="0px" y="0px" width="240.0" height="240.0" xml:space="preserve">
		<path d="M37.287,128.993C32.433,141.046 27.706,152.769 22.99,164.495C17.656,177.761 18.789,180.467 31.89,185.808C32.403,186.017 32.937,186.187 33.421,186.448C37.423,188.61 38.536,187.026 38.508,182.947C38.395,166.529 38.477,150.11 38.431,133.692C38.428,132.314 38.942,130.778 37.287,128.993M164.907,32.233C170.291,45.523 175.669,58.815 181.045,72.109L213.288,151.874C215.157,156.495 217.215,161.045 218.928,165.722C221.397,172.457 219.655,177.023 213.146,179.681C183.579,191.76 153.946,203.68 124.315,215.604C122.63,216.282 120.757,216.496 119.936,216.695C113.337,216.96 110.711,213.454 108.847,208.852C100.188,187.459 91.485,166.085 82.808,144.7C73.644,122.118 64.504,99.526 55.327,76.948C51.562,67.682 53.208,63.24 62.442,59.476C91.163,47.763 119.919,36.136 148.701,24.577C157.206,21.161 161.21,23.11 164.907,32.233ZM60.34,147.208C61.602,147.386 61.704,148.42 62.028,149.214C69.394,167.33 76.699,185.471 84.133,203.559C85.699,207.368 84.949,209.003 80.632,209.052C61.308,209.271 59.036,209.336 59.532,189.52C59.839,177.35 59.558,165.167 59.624,152.989C59.636,151.064 59.013,148.983 60.34,147.208ZM88.943,70.391C83.355,70.307 78.594,74.798 78.471,80.271C78.345,85.763 82.896,90.434 88.505,90.569C94.32,90.709 98.672,86.534 98.778,80.718C98.884,74.887 94.683,70.477 88.943,70.391Z" fill="#000" stroke="#00000000" stroke-width="1.0" stroke-miterlimit=""/>
	</svg>
