<?xml version="1.0" encoding="utf-8"?>
	<svg version="1.1" xmlns="http://www.w3.org/2000/svg" xmlns:xlink="http://www.w3.org/1999/xlink" x="0px" y="0px" width="240.0" height="240.0" xml:space="preserve">
		<path d="M204.299,105.901C207.061,105.901 209.299,108.139 209.299,110.901L209.299,215C209.299,217.761 207.061,220 204.299,220L35,220C32.239,220 30,217.761 30,215L30,110.901C30,108.139 32.239,105.901 35,105.901L204.299,105.901ZM109.91,150.155L100.619,150.155L100.619,176.398C100.619,187.726 105.672,193.431 115.778,193.431C120.994,193.431 125.395,191.231 128.981,186.83L128.981,192.29L138.272,192.29L138.272,150.155L128.981,150.155L128.981,175.909C128.166,178.924 126.781,181.288 124.906,183.081C123.032,184.792 121.076,185.689 119.038,185.689C115.778,185.689 113.496,184.874 112.029,183.325C110.562,181.695 109.91,179.25 109.91,175.827L109.91,150.155ZM157.343,132.958L148.052,132.958L148.052,192.29L156.691,192.29L156.691,187.808C159.625,191.557 163.863,193.431 169.405,193.431C175.599,193.431 180.489,191.231 184.075,186.83C187.335,182.755 188.965,177.457 188.965,171.019C188.965,164.825 187.335,159.69 184.156,155.615C180.652,151.214 175.925,149.014 169.894,149.014C165.004,149.014 160.766,151.296 157.343,155.941L157.343,132.958ZM62.885,132.958L53.594,132.958L53.594,192.29L62.885,192.29L62.885,168.737C62.885,165.151 63.7,162.298 65.412,160.016C67.042,157.734 69.324,156.593 72.258,156.593C75.436,156.593 77.8,157.571 79.43,159.609C80.815,161.483 81.548,164.254 81.548,167.84L81.548,192.29L90.839,192.29L90.839,166.21C90.839,160.587 89.617,156.349 87.253,153.496C84.727,150.481 80.896,149.014 75.762,149.014C73.073,149.014 70.709,149.503 68.672,150.562C66.39,151.703 64.434,153.415 62.885,155.778L62.885,132.958ZM167.694,156.512C171.85,156.512 174.947,157.897 176.903,160.668C178.533,163.032 179.43,166.455 179.43,171.019C179.43,175.583 178.615,179.087 177.066,181.532C175.11,184.466 172.095,185.933 168.02,185.933C164.352,185.933 161.581,184.466 159.625,181.614C157.832,179.006 157.017,175.583 157.017,171.508L157.017,170.856C157.017,166.373 158.077,162.787 160.277,160.179C162.233,157.734 164.678,156.512 167.694,156.512ZM108.647,34.914C115.004,34.914 120.139,36.952 124.051,41.19C127.881,45.346 129.837,50.644 129.837,57.164C129.837,63.602 127.881,68.9 124.132,72.975C120.22,77.213 115.004,79.332 108.647,79.332C102.209,79.332 97.074,77.213 93.162,72.975C89.332,68.9 87.457,63.602 87.457,57.164C87.457,50.644 89.332,45.346 93.244,41.19C97.074,36.952 102.209,34.914 108.647,34.914ZM60.644,20C74.662,20 81.752,25.949 81.752,37.848C81.752,49.829 74.662,55.86 60.481,55.86L60.481,55.86L46.055,55.86L46.055,78.191L36.52,78.191L36.52,20ZM157.873,34.914C159.91,34.914 161.703,35.24 163.17,35.974L163.17,35.974L163.17,45.265C161.051,44.613 159.095,44.368 157.139,44.368C154.694,44.368 152.494,45.265 150.538,47.221C148.256,49.421 147.196,52.274 147.196,55.86L147.196,55.86L147.196,78.191L137.987,78.191L137.987,36.055L147.196,36.055L147.196,42.086C148.337,39.967 149.641,38.337 151.19,37.196C153.064,35.648 155.265,34.914 157.873,34.914ZM190.228,34.914C200.742,34.914 206.039,40.619 206.039,52.192L206.039,52.192L206.039,78.191L196.748,78.191L196.748,53.007C196.748,46.08 193.57,42.657 187.213,42.657C184.931,42.657 182.893,43.472 181.182,45.102C179.226,46.895 178.085,49.503 177.759,52.844L177.759,52.844L177.759,78.191L168.468,78.191L168.468,36.055L177.759,36.055L177.759,40.945C179.389,38.989 181.263,37.441 183.301,36.463C185.42,35.403 187.702,34.914 190.228,34.914ZM108.647,42.494C104.735,42.494 101.801,43.961 99.682,47.058C97.889,49.666 96.993,53.089 96.993,57.164C96.993,61.239 97.889,64.58 99.682,67.188C101.801,70.204 104.735,71.752 108.647,71.752C112.478,71.752 115.493,70.204 117.612,67.188C119.405,64.499 120.383,61.157 120.383,57.164C120.383,53.089 119.405,49.666 117.612,47.058C115.493,43.961 112.478,42.494 108.647,42.494ZM59.91,28.15L46.055,28.15L46.055,47.71L59.91,47.71C64.148,47.71 67.245,46.895 69.201,45.428C71.157,43.879 72.135,41.353 72.135,37.848C72.135,34.344 71.076,31.899 69.12,30.432C67.164,28.883 64.067,28.15 59.91,28.15L59.91,28.15Z" fill="#000" stroke="#00000000" stroke-width="1.0" stroke-miterlimit=""/>
	</svg>
