<?xml version="1.0" encoding="utf-8"?>
	<svg version="1.1" xmlns="http://www.w3.org/2000/svg" xmlns:xlink="http://www.w3.org/1999/xlink" x="0px" y="0px" width="240.0" height="240.0" xml:space="preserve">
		<path d="M119.767,190.572V190.622C114.49,190.622 109.213,190.625 103.936,190.628C93.384,190.635 82.833,190.641 72.287,190.622C45.684,190.563 24.601,172.745 20.587,146.999C16.74,122.393 32.127,98.752 57.156,91.009C60.216,90.055 62.046,88.451 63.413,85.509C73.96,62.842 91.669,50.229 116.796,50.003C141.922,49.777 159.936,62.016 170.749,84.565C172.559,88.343 175.294,89.15 178.688,89.947C200.765,95.102 214.44,108.757 219.045,130.952C225.105,160.172 201.503,189.854 171.664,190.504C159.736,190.761 147.794,190.696 135.855,190.631C130.491,190.602 125.128,190.572 119.767,190.572ZM107.388,169.41C110.241,171.988 113.921,173.011 118.151,173.208C122.519,172.923 126.681,171.309 130.075,167.925C130.807,167.191 131.539,166.458 132.27,165.725C135.919,162.07 139.569,158.412 143.199,154.741C144.101,153.83 145.008,152.923 145.916,152.016C148.586,149.348 151.26,146.677 153.785,143.88C156.176,141.233 156.304,138.174 153.618,135.586C151.09,133.146 148.237,133.52 145.669,135.635C144.234,136.814 142.929,138.15 141.627,139.482C141.332,139.785 141.037,140.087 140.74,140.387C138.725,142.43 136.721,144.484 134.718,146.537C130.911,150.44 127.105,154.343 123.218,158.165C119.096,162.218 116.557,162.1 112.356,158.027C111.164,156.874 109.998,155.695 108.832,154.516C107.014,152.679 105.197,150.842 103.286,149.104C100.708,146.763 97.658,146.202 94.933,148.77C92.217,151.337 92.444,154.486 94.854,157.063C98.858,161.343 103.04,165.485 107.388,169.41Z" fill="#000" stroke="" stroke-width="" stroke-miterlimit=""/>
	</svg>
