<?xml version="1.0" encoding="utf-8"?>
	<svg version="1.1" xmlns="http://www.w3.org/2000/svg" xmlns:xlink="http://www.w3.org/1999/xlink" x="0px" y="0px" width="240.0" height="240.0" xml:space="preserve">
		<path d="M189.091,20H66.947C54.706,20 44.786,29.92 44.786,42.161V67.582H57.47C68.223,67.582 76.938,76.298 76.938,87.05C76.938,97.803 68.223,106.519 57.47,106.519H44.786V138.601H57.47C68.223,138.601 76.938,147.316 76.938,158.069C76.938,168.822 68.223,177.538 57.47,177.538H44.786V197.839C44.786,210.08 54.706,220 66.947,220H189.091C201.332,220 211.252,210.08 211.252,197.839V42.161C211.252,29.92 201.332,20 189.091,20ZM162.961,133.198C155.365,141.581 146.282,148.163 137.195,154.747L136.23,155.447C133.006,157.786 129.25,157.609 125.778,155.022C120.269,150.912 114.795,146.749 109.427,142.427C104.219,138.246 99.507,133.552 95.592,128.078C87.921,117.325 88.134,102.285 96.336,92.241C101.013,86.519 107.248,84.11 114.6,84.411C120.747,84.659 126.097,86.714 130.401,91.196C130.596,91.391 130.791,91.586 131.004,91.763C131.047,91.806 131.11,91.829 131.216,91.869C131.285,91.895 131.371,91.927 131.482,91.975C134.812,88.574 138.533,85.97 143.262,85.031C158.338,81.984 168.931,90.469 171.907,104.004C174.44,115.394 170.525,124.854 162.961,133.198ZM37.893,95.943H57.468C62.392,95.943 66.36,91.958 66.36,87.051C66.36,82.126 62.375,78.158 57.468,78.158H37.893C32.968,78.158 29,82.144 29,87.051C29,91.958 32.986,95.943 37.893,95.943ZM57.485,149.159C62.392,149.159 66.378,153.127 66.378,158.052C66.378,162.977 62.392,166.962 57.468,166.945H37.893C32.986,166.945 29,162.959 29,158.052C29,153.145 32.968,149.159 37.893,149.159H57.485Z" fill="#000" stroke="" stroke-width="" stroke-miterlimit=""/>
	</svg>
