<?xml version="1.0" encoding="utf-8"?>
	<svg version="1.1" xmlns="http://www.w3.org/2000/svg" xmlns:xlink="http://www.w3.org/1999/xlink" x="0px" y="0px" width="240.0" height="240.0" xml:space="preserve">
		<path d="M202.174,143.639C204.148,143.638 206.05,144.384 207.498,145.726C208.946,147.069 209.832,148.909 209.981,150.878L210,151.465V194.348C210,198.364 208.457,202.226 205.689,205.135C202.921,208.045 199.141,209.78 195.131,209.98L194.348,210H45.652C41.637,210 37.774,208.457 34.865,205.689C31.955,202.921 30.22,199.141 30.02,195.13L30,194.348V151.465C29.991,149.434 30.772,147.479 32.177,146.013C33.583,144.547 35.503,143.685 37.532,143.609C39.562,143.533 41.541,144.249 43.053,145.605C44.564,146.961 45.489,148.852 45.633,150.878L45.652,151.465V194.348H194.348V151.465C194.348,150.437 194.55,149.419 194.944,148.47C195.337,147.52 195.913,146.658 196.64,145.931C197.367,145.204 198.23,144.628 199.179,144.234C200.129,143.841 201.146,143.639 202.174,143.639V143.639ZM194.348,30C198.364,30 202.226,31.543 205.135,34.311C208.045,37.079 209.78,40.859 209.981,44.87L210,45.652V88.535C210.009,90.566 209.228,92.521 207.823,93.987C206.417,95.452 204.497,96.315 202.468,96.391C200.438,96.467 198.459,95.751 196.947,94.395C195.436,93.039 194.511,91.148 194.367,89.122L194.348,88.535V45.652H45.652V88.535C45.661,90.566 44.881,92.521 43.475,93.987C42.07,95.452 40.149,96.315 38.12,96.391C36.09,96.467 34.111,95.751 32.599,94.395C31.088,93.039 30.163,91.148 30.02,89.122L30,88.531V45.652C30,41.636 31.544,37.774 34.311,34.865C37.079,31.955 40.859,30.22 44.87,30.02L45.652,30H194.348Z" fill="#000" stroke="" stroke-width="" stroke-miterlimit=""/>
		<path d="M97.843,120.835C97.843,125.21 97.07,129.045 95.524,132.341C93.978,135.637 91.76,138.18 88.871,139.97C86.002,141.761 82.706,142.656 78.983,142.656C75.3,142.656 72.014,141.771 69.125,140.001C66.236,138.231 63.998,135.708 62.411,132.432C60.824,129.136 60.02,125.352 60,121.079V118.882C60,114.508 60.783,110.662 62.35,107.346C63.937,104.009 66.165,101.456 69.034,99.686C71.923,97.895 75.219,97 78.922,97C82.625,97 85.91,97.895 88.779,99.686C91.668,101.456 93.896,104.009 95.463,107.346C97.05,110.662 97.843,114.497 97.843,118.851V120.835ZM88.566,118.821C88.566,114.162 87.731,110.622 86.063,108.2C84.395,105.779 82.014,104.569 78.922,104.569C75.849,104.569 73.479,105.769 71.811,108.17C70.142,110.55 69.298,114.05 69.278,118.668V120.835C69.278,125.372 70.112,128.892 71.78,131.395C73.449,133.897 75.849,135.149 78.983,135.149C82.055,135.149 84.415,133.948 86.063,131.547C87.711,129.126 88.545,125.606 88.566,120.988V118.821Z" fill="#000" stroke="" stroke-width="" stroke-miterlimit=""/>
		<path d="M139.379,127.244C139.034,132.025 137.263,135.789 134.069,138.536C130.895,141.283 126.704,142.656 121.495,142.656C115.799,142.656 111.312,140.744 108.037,136.919C104.781,133.073 103.154,127.804 103.154,121.11V118.394C103.154,114.121 103.906,110.357 105.412,107.102C106.918,103.846 109.064,101.354 111.851,99.625C114.659,97.875 117.915,97 121.617,97C126.745,97 130.875,98.373 134.008,101.12C137.141,103.867 138.952,107.722 139.44,112.687H130.285C130.061,109.818 129.257,107.743 127.874,106.461C126.511,105.159 124.425,104.508 121.617,104.508C118.566,104.508 116.277,105.606 114.751,107.804C113.245,109.981 112.472,113.368 112.431,117.966V121.323C112.431,126.125 113.154,129.635 114.598,131.852C116.063,134.07 118.362,135.179 121.495,135.179C124.324,135.179 126.429,134.538 127.813,133.256C129.217,131.954 130.02,129.95 130.224,127.244H139.379Z" fill="#000" stroke="" stroke-width="" stroke-miterlimit=""/>
		<path d="M161.841,125.779H154.547V142.046H145.392V97.61H161.902C167.152,97.61 171.2,98.78 174.049,101.12C176.897,103.46 178.321,106.766 178.321,111.039C178.321,114.07 177.66,116.603 176.338,118.638C175.036,120.652 173.052,122.259 170.387,123.46L180,141.619V142.046H170.173L161.841,125.779ZM154.547,118.363H161.933C164.232,118.363 166.012,117.783 167.274,116.624C168.535,115.444 169.166,113.826 169.166,111.771C169.166,109.675 168.566,108.027 167.365,106.827C166.185,105.627 164.364,105.026 161.902,105.026H154.547V118.363Z" fill="#000" stroke="" stroke-width="" stroke-miterlimit=""/>
	</svg>
