<?xml version="1.0" encoding="utf-8"?>
	<svg version="1.1" xmlns="http://www.w3.org/2000/svg" xmlns:xlink="http://www.w3.org/1999/xlink" x="0px" y="0px" width="240.0" height="240.0" xml:space="preserve">
		<path d="M31.014,121.193C31.014,103.997 30.962,86.802 31.058,69.606C31.079,66.027 30.924,62.406 31.604,58.854C32.286,55.284 33.401,51.856 35.101,48.625C38.17,42.795 42.531,38.224 48.183,34.825C51.55,32.801 55.178,31.515 58.966,30.646C61.417,30.084 63.947,30.023 66.449,30.021C102.049,29.992 137.65,30.002 173.253,30C179.16,30 184.808,31.147 190.032,33.959C194.183,36.193 197.815,39.077 200.8,42.785C203.779,46.487 205.936,50.597 207.239,55.13C207.981,57.709 208.524,60.35 208.552,63.081C208.934,99.633 208.621,136.188 208.703,172.74C208.709,175.054 208.342,177.351 208.046,179.653C207.629,182.904 206.733,185.98 205.524,189.013C204.411,191.803 202.797,194.275 200.957,196.578C198.343,199.849 195.272,202.671 191.637,204.823C187.621,207.198 183.344,208.817 178.695,209.449C174.994,209.952 171.279,209.998 167.559,209.996C134.442,209.994 101.323,210.017 68.207,209.973C63.068,209.967 57.993,209.359 53.164,207.363C47.764,205.127 43.211,201.785 39.418,197.338C36.16,193.517 33.876,189.204 32.581,184.373C31.815,181.515 31.486,178.576 31.182,175.635C30.922,173.124 31.02,170.611 31.018,168.099C31.006,152.464 31.014,136.828 31.014,121.193ZM120.453,186.88C157.88,187.152 188.334,156.4 188.244,119.16C188.154,81.409 157.999,51.371 120.531,51.293C82.899,51.214 52.757,81.557 52.599,118.942C52.438,156.456 83.166,187.238 120.453,186.88Z" fill="#000" stroke="" stroke-width="" stroke-miterlimit=""/>
		<path d="M120.432,56.924C154.708,56.744 182.815,84.88 182.744,119.303C182.674,153.662 154.752,181.654 120.288,181.515C85.685,181.377 58.154,153.8 58.058,119.347C57.963,84.776 85.758,56.886 120.432,56.924ZM110.836,116.261C110.648,114.324 111.03,112.419 111.243,110.523C111.365,109.42 111.279,108.293 111.537,107.213C111.969,105.411 111.976,103.562 112.162,101.739C112.337,100.008 112.508,98.263 112.712,96.541C113.056,93.646 113.188,90.729 113.7,87.851C113.883,86.821 113.623,86.569 112.605,86.567C107.923,86.557 103.242,86.573 98.562,86.555C97.672,86.551 97.29,86.901 97.326,87.809C97.404,89.813 97.022,91.797 96.806,93.772C96.607,95.592 96.434,97.428 96.254,99.245C96.067,101.164 95.832,103.09 95.686,105.018C95.587,106.334 95.558,107.68 95.344,108.989C94.972,111.278 94.87,113.59 94.633,115.891C94.475,117.438 94.385,118.999 94.167,120.532C93.733,123.582 93.55,126.656 93.191,129.712C92.746,133.484 92.392,137.273 92.069,141.058C91.781,144.435 91.242,147.792 91.167,151.19C91.152,151.856 91.291,152.099 91.977,152.097C96.627,152.078 101.276,152.082 105.925,152.093C106.548,152.095 106.777,151.866 106.903,151.228C107.18,149.814 107.107,148.367 107.352,146.967C107.673,145.117 107.792,143.25 107.967,141.395C108.128,139.692 108.363,137.995 108.514,136.291C108.627,135.031 108.625,133.744 108.862,132.502C109.229,130.594 109.324,128.661 109.506,126.74C109.662,125.068 109.907,123.406 110.044,121.73C110.134,120.629 110.236,119.492 110.39,118.352C110.746,118.484 110.673,118.707 110.685,118.875C110.857,121.657 111.644,124.256 113.186,126.574C114.892,129.14 116.727,131.623 118.462,134.172C122.289,139.797 126.055,145.461 129.942,151.046C130.49,151.835 131.05,152.111 131.971,152.105C137.513,152.07 143.054,152.09 148.594,152.088C149.104,152.088 149.612,152.093 150.122,152.078C150.711,152.061 150.893,151.814 150.512,151.302C150.077,150.716 149.639,150.131 149.194,149.552C146.847,146.506 144.476,143.477 142.152,140.412C138.405,135.473 134.689,130.512 130.962,125.559C129.833,124.057 128.732,122.529 128.096,120.742C127.823,119.976 127.45,119.191 127.582,118.348C127.865,116.55 128.593,114.956 129.858,113.609C131.908,111.427 134.079,109.369 136.2,107.259C142.81,100.678 149.419,94.099 156.138,87.629C156.352,87.425 156.793,87.26 156.661,86.92C156.531,86.588 156.094,86.739 155.792,86.739C150.059,86.731 144.327,86.748 138.596,86.716C137.696,86.71 137.027,86.987 136.397,87.616C134.075,89.93 131.723,92.21 129.331,94.453C124.966,98.544 120.661,102.704 116.448,106.952C113.851,109.566 111.791,112.579 110.836,116.261Z" fill="#000" stroke="" stroke-width="" stroke-miterlimit=""/>
	</svg>
