<?xml version="1.0" encoding="utf-8"?>
	<svg version="1.1" xmlns="http://www.w3.org/2000/svg" xmlns:xlink="http://www.w3.org/1999/xlink" x="0px" y="0px" width="240.0" height="240.0" xml:space="preserve">
		<path d="M46.855,49.701C46.855,46.325 46.947,43.202 46.773,40.094C46.739,39.511 45.648,38.566 45.031,38.556C44.39,38.545 43.202,39.433 43.171,39.98C42.993,43.173 43.083,46.381 43.083,49.701L46.855,49.701ZM43.303,63.534L43.303,75.082C44.584,75.018 45.608,74.966 46.608,74.916L46.608,63.534L43.303,63.534ZM30.18,27.414L59.524,27.414L59.524,113.46L46.871,113.46C46.871,111.29 46.87,109.071 46.871,106.853C46.873,101.838 46.767,96.821 46.925,91.811C47.007,89.196 46.262,88.056 43.2,89.006C43.158,89.891 42.942,90.951 43.083,91.962C44.099,99.229 41.181,105.652 38.758,112.164C38.506,112.841 37.438,113.62 36.721,113.648C33.006,113.798 29.282,113.718 25,113.718C26.504,109.758 27.966,106.175 29.206,102.516C29.761,100.882 30.134,99.097 30.139,97.379C30.2,75.356 30.18,53.332 30.18,31.309L30.18,27.414ZM190.538,165.6C190.662,166.788 190.789,168.009 190.952,169.561L210.491,169.561L210.491,179.553L190.907,179.553L190.907,183.543L210.645,183.543L210.645,193.698L190.933,193.698L190.933,197.543L211.245,197.543C211.598,201.048 211.91,204.146 212.265,207.667L190.867,207.667C190.772,209.704 190.694,211.345 190.608,213.181L177.396,213.181C177.294,211.495 177.19,209.772 177.067,207.734L155.816,207.734C156.093,204.5 156.238,201.596 156.684,198.739C156.759,198.262 158.133,197.687 158.917,197.671C163.831,197.572 168.749,197.617 173.666,197.615L177.021,197.615L177.021,197.615L177.021,193.714L157.346,193.714L157.346,183.592L177.08,183.592L177.08,179.778L157.707,179.778L157.707,169.694L176.932,169.694C177.12,168.237 177.278,167.025 177.463,165.6L190.538,165.6ZM167.125,153.908C167.461,153.884 167.857,154.159 168.165,154.379C172.28,157.31 176.384,160.255 180.474,163.184C173.645,165.392 166.391,166.303 159.034,166.446C158.41,166.459 157.276,165.505 157.213,164.912C156.869,161.614 156.783,158.289 156.596,154.759C160.173,154.462 163.646,154.157 167.125,153.908ZM167.308,120.69C170.572,122.594 173.604,124.361 176.748,126.194C176.392,127.138 176.096,127.925 175.652,129.107L210.284,129.107C209.598,137.747 206.495,144.676 201.157,150.624C200.696,151.137 199.526,151.407 198.816,151.238C194.826,150.29 190.875,149.172 186.366,147.966C189.854,144.915 192.813,142.327 195.771,139.739C195.471,139.359 195.17,138.978 194.868,138.596L173.355,138.596C181.336,150.055 192.663,152.965 204.831,154.18L205.768,154.27C207.647,154.444 209.543,154.583 211.449,154.71L211.344,156.393L211.344,156.393L211.136,159.706C210.999,161.894 210.864,164.046 210.73,166.191C195.286,166.808 175.741,161.905 164.858,147.738C164.356,148.343 163.878,148.919 163.298,149.618C160.263,147.852 157.236,146.09 153.872,144.132C158.372,136.28 162.788,128.577 167.308,120.69ZM192.608,27.004L203.606,27.004L203.606,99.962L215,99.962C213.43,104.414 212.038,108.476 210.533,112.496C210.349,112.987 209.566,113.566 209.054,113.572C202.791,113.646 196.526,113.621 189.924,113.621L189.924,109.836C189.922,87.908 189.874,65.979 189.976,44.051C189.989,41.364 189.305,40.549 186.553,40.581C173.97,40.726 161.385,40.643 148.801,40.642L145.248,40.642C146.567,36.259 147.667,32.205 149.086,28.265C149.329,27.593 150.93,27.062 151.908,27.057C165.475,26.979 179.042,27.004 192.608,27.004ZM142.242,49.573L142.242,99.961L154.745,99.961C153.111,104.561 151.711,108.62 150.187,112.631C150.011,113.092 149.147,113.565 148.598,113.57C142.136,113.635 135.673,113.612 128.824,113.612L128.824,109.564L128.825,68.253L128.825,67.76C128.82,63.158 128.652,63.146 123.552,62.807L123.552,49.573L142.242,49.573ZM172.939,45.895L172.939,65.399L185.589,65.399L185.589,78.947L173.081,78.947L173.081,113.463L159.567,113.463L159.567,79.228L148.645,79.228L148.645,65.417L159.458,65.417L159.458,45.895L172.939,45.895ZM143.928,27.221C142.065,33.051 140.348,38.52 138.525,43.953C138.368,44.421 137.512,44.936 136.971,44.947C132.966,45.031 128.957,44.993 124.482,44.993C126.322,39.233 127.935,34.003 129.714,28.832C129.951,28.145 131.021,27.32 131.734,27.293C135.632,27.143 139.537,27.221 143.928,27.221ZM94.01,101.458C92.864,105.414 91.912,108.895 90.807,112.326C90.623,112.896 89.776,113.642 89.229,113.648C80.811,113.731 72.392,113.706 63.634,113.706C64.759,109.798 65.716,106.21 66.879,102.69C67.066,102.124 68.167,101.517 68.852,101.511C77.085,101.429 85.32,101.458 94.01,101.458ZM113.52,67.126C112.034,72.894 110.599,78.469 109.078,84.377C110.781,84.499 112.04,84.589 113.527,84.696L113.527,113.571L93.283,113.571C94.416,109.745 95.363,105.992 96.723,102.396C97.014,101.625 98.801,101.42 100.09,100.873L100.09,96.898L63.637,96.898C65.077,91.311 66.391,86.214 67.78,80.823C66.381,80.686 65.178,80.569 63.756,80.43L63.756,67.126L113.52,67.126ZM81.048,84.571C84.764,84.571 88.373,84.401 91.957,84.624C94.862,84.806 96.13,83.786 95.825,80.599C92.108,80.599 88.4,80.764 84.717,80.544C82.013,80.382 80.964,81.464 81.048,84.571ZM113.596,60.853L104.771,60.853C105.076,62.36 105.301,63.472 105.625,65.069C101.248,65.069 97.07,65.149 92.904,64.97C92.381,64.947 92.018,63.46 91.402,62.827C90.637,62.041 89.781,61.141 88.793,60.823C87.304,60.345 86.404,61.241 86.233,62.807C86.036,64.612 85.034,65.186 83.232,65.12C79.609,64.989 75.978,65.082 72.021,65.082C72.268,63.646 72.472,62.458 72.743,60.885L63.759,60.885L63.759,48.681L76.076,48.681C76.456,47.315 76.787,46.122 77.223,44.553L63.611,44.553C63.611,40.664 63.506,37.068 63.705,33.489C63.743,32.813 64.996,32.205 65.996,31.282C65.813,30.376 65.534,28.983 65.186,27.257C69.39,27.257 73.402,27.194 77.407,27.323C78.031,27.343 78.815,28.125 79.188,28.755C79.699,29.614 79.887,30.665 80.444,32.319C80.838,30.868 81.107,30.163 81.21,29.435C81.443,27.789 82.252,27.143 83.98,27.198C87.697,27.318 91.421,27.235 95.453,27.235C95.129,28.913 94.862,30.294 94.569,31.814C96.784,32.536 98.447,32.48 98.755,29.652C98.962,27.752 99.971,27.104 101.923,27.194C105.528,27.363 109.145,27.243 112.654,27.243C113.151,33.053 113.62,38.536 114.126,44.459C107.062,44.459 100.613,44.606 94.176,44.393C91.303,44.297 90.254,45.369 90.401,48.468L113.596,48.468L113.596,60.853ZM114.408,161.356C114.582,161.357 114.756,161.491 115.111,161.639L115.111,174.764L95.674,174.764L95.674,194.509C95.674,199.641 95.674,199.81 100.473,199.815L116.051,199.815C114.055,204.342 112.329,208.465 110.366,212.472C110.089,213.038 108.658,213.26 107.758,213.267C100.089,213.325 92.419,213.226 84.751,213.336C82.599,213.368 82.095,212.55 82.109,210.575C82.182,200.053 82.148,189.53 82.151,179.006L82.151,174.698L65.272,174.698C69.01,170.125 72.324,166.021 75.719,161.985C76.089,161.546 76.922,161.294 77.54,161.294C89.829,161.282 102.119,161.318 114.408,161.356ZM62.139,161.452C61.195,165.477 60.336,169.266 59.416,173.04C56.37,185.548 53.344,198.061 50.169,210.535C49.906,211.567 48.631,213.026 47.736,213.093C43.938,213.379 40.106,213.214 35.813,213.214C38.774,200.387 41.654,187.913 44.654,174.914L27.628,174.914L27.628,161.452L62.139,161.452ZM86.76,120.761C83.605,125.524 80.788,129.775 77.509,134.724L93.065,134.724C93.187,135.013 93.309,135.302 93.43,135.59C83.704,147.496 73.977,159.401 64.251,171.306L63.009,170.87C64.795,163.384 66.581,155.896 68.486,147.913L57.656,147.913C58.44,145.204 59.081,142.966 59.737,140.734C61.426,134.987 63.038,129.214 64.888,123.518C65.238,122.44 66.514,120.917 67.411,120.883C73.585,120.652 79.772,120.761 86.76,120.761ZM51.157,126.571C50.317,129.423 49.587,131.9 48.745,134.759L58.323,134.759C57.077,139.155 55.998,143.2 54.723,147.181C54.548,147.726 53.417,148.218 52.689,148.281C50.838,148.443 48.962,148.404 47.101,148.34C45.457,148.284 43.95,148.195 43.527,150.377C43.445,150.799 42.509,151.328 41.958,151.34C37.963,151.422 33.966,151.383 29.519,151.383C31.507,145.098 33.362,139.243 35.212,133.386C37.304,126.766 37.363,126.576 44.022,126.571L51.157,126.571ZM111.524,134.798C110.519,139.502 109.606,143.771 108.663,148.179L86.913,148.179C90.597,143.678 94.031,139.467 97.494,135.282C97.712,135.019 98.165,134.821 98.511,134.818C102.7,134.786 106.891,134.798 111.524,134.798ZM130.461,213.378L130.461,197.509C130.461,193.672 130.358,189.832 130.501,186C130.581,183.884 129.829,183.231 127.78,183.395C125.652,183.565 123.5,183.432 121.191,183.432L121.191,173.411L130.271,173.411L130.271,160.1L121.127,160.1L121.127,150.077L152.029,150.077L152.029,159.89L144.244,159.89L144.244,173.176L152.16,173.176L152.16,183.473L144.02,183.473C144.02,189.844 143.971,195.826 144.107,201.804C144.119,202.309 145.338,203.127 146.061,203.208C147.891,203.409 149.758,203.275 152.219,203.275C150.808,206.67 149.646,209.652 148.293,212.546C148.07,213.022 147.018,213.333 146.344,213.342C141.233,213.407 136.12,213.378 130.461,213.378M151.508,142.75C146.965,142.75 142.567,142.861 138.178,142.706C135.789,142.622 133.851,142.812 133.505,145.797L119.846,145.797C120.336,144.163 120.767,142.62 121.263,141.098C122.752,136.524 124.306,131.972 125.745,127.383C126.215,125.884 126.86,125.11 128.61,125.177C132.322,125.318 136.044,125.22 140.066,125.22C139.313,127.716 138.646,129.923 137.857,132.537L151.508,132.537L151.508,142.75Z" fill="#000" stroke="#00000000" stroke-width="1.0" stroke-miterlimit=""/>
	</svg>
