<?xml version="1.0" encoding="utf-8"?>
	<svg version="1.1" xmlns="http://www.w3.org/2000/svg" xmlns:xlink="http://www.w3.org/1999/xlink" x="0px" y="0px" width="240.0" height="240.0" xml:space="preserve">
		<path d="M105.485,47.007C105.485,47.007 89.519,46.281 79.338,59.439C69.152,72.597 76.802,92.696 81.631,103.064C86.46,113.432 111.941,154.116 112.877,155.011C113.806,155.908 114.925,155.53 114.986,154.725C115.048,153.927 117.897,95.611 115.604,81.232C113.311,66.853 106.523,48.585 105.485,47.007L105.485,47.007ZM50.305,74.117C48.48,74.312 35.384,87.373 34.203,100.143C33.017,112.912 38.483,121.41 53.743,131.576C69.106,142.47 105.615,162.509 106.285,160.783C106.957,159.061 92.138,132.731 80.011,113.58C67.885,94.43 52.122,73.922 50.305,74.117ZM55.215,191.905C66.264,196.845 83.477,185.751 88.238,182.524C92.666,179.141 100.846,172.922 100.846,172.922L38.24,174.598C38.24,174.598 44.166,186.964 55.215,191.905ZM56.788,141.313C45.583,135.704 22.531,122.82 21.629,123.066C20.727,123.312 17.254,139.341 24.464,151.422C31.673,163.502 45.713,167.197 52.156,168.184C59.4,169.216 101.992,168.755 101.707,167.898C101.455,167.151 68,146.917 56.788,141.313ZM160.659,59.439C150.479,46.281 134.513,47.007 134.513,47.007C133.476,48.584 126.686,66.853 124.393,81.232C122.1,95.612 124.956,153.927 125.017,154.726C125.079,155.53 126.191,155.908 127.126,155.011C128.055,154.116 153.543,113.432 158.373,103.064C163.195,92.696 170.845,72.598 160.659,59.439ZM218.368,123.066C217.466,122.819 194.414,135.705 183.209,141.313C172.005,146.916 138.542,167.151 138.297,167.898C138.006,168.754 180.598,169.216 187.842,168.184C194.285,167.197 208.324,163.502 215.534,151.421C222.75,139.341 219.27,123.312 218.368,123.066L218.368,123.066ZM151.761,182.524C156.521,185.751 173.741,196.845 184.79,191.905C195.839,186.964 201.767,174.598 201.767,174.598L139.16,172.922C139.16,172.922 147.339,179.142 151.761,182.524L151.761,182.524ZM205.802,100.143C204.615,87.373 191.518,74.312 189.7,74.117C187.876,73.922 172.113,94.43 159.987,113.58C147.86,132.731 133.042,159.062 133.713,160.783C134.385,162.509 170.899,142.47 186.255,131.576C201.515,121.41 206.989,112.912 205.802,100.143Z" fill="#000" stroke="#00000000" stroke-width="1.0" stroke-miterlimit=""/>
	</svg>
