<?xml version="1.0" encoding="utf-8"?>
	<svg version="1.1" xmlns="http://www.w3.org/2000/svg" xmlns:xlink="http://www.w3.org/1999/xlink" x="0px" y="0px" width="240.0" height="240.0" xml:space="preserve">
		<path d="M22.112,128.235C22.112,130.126 22.1,132.02 22.118,133.911C22.133,135.372 22.399,135.593 23.821,135.127C25.847,134.464 27.926,133.959 29.874,133.065C31.027,132.537 32.004,132.498 32.41,134.027C32.524,134.455 32.772,134.843 32.945,135.255C34.232,138.32 34.633,137.591 31.642,139.653C26.151,143.435 20.069,145.992 13.7,147.889C12.323,148.298 10.939,148.696 9.553,149.075C8.552,149.35 7.976,148.959 7.665,147.952C6.975,145.72 6.231,143.507 5.475,141.299C5.09,140.178 5.242,139.536 6.593,139.327C8.155,139.085 9.676,138.589 11.229,138.284C12.078,138.117 12.4,137.693 12.394,136.859C12.376,134.021 12.367,131.183 12.403,128.345C12.415,127.323 12.089,127.111 11.178,127.565C9.087,128.608 6.906,129.445 4.722,130.275C3.722,130.655 2.99,130.505 2.389,129.639C1.738,128.698 1.114,127.739 0.429,126.822C-0.273,125.884 -0.132,125.28 0.928,124.706C3.378,123.383 5.795,121.997 8.071,120.381C13.099,116.808 17.47,112.565 21.106,107.579C21.38,107.203 21.861,106.764 21.601,106.265C21.372,105.82 20.792,106.014 20.362,106.008C19.017,105.987 17.67,106.047 16.329,105.987C15.16,105.936 14.638,106.513 14.345,107.567C13.801,109.527 13.129,111.451 12.597,113.414C12.316,114.454 11.71,114.722 10.829,114.346C7.904,113.097 5.006,111.783 2.09,110.516C1.212,110.137 1.2,109.596 1.615,108.858C4.047,104.52 6.473,100.179 8.352,95.561C8.684,94.742 9.257,94.503 10.157,94.874C12.039,95.647 13.963,96.32 15.866,97.043C16.86,97.422 17.524,97.939 16.935,99.167C16.49,100.096 16.866,100.571 17.906,100.565C19.997,100.55 22.088,100.529 24.18,100.574C25.094,100.595 25.494,100.093 25.853,99.373C27.161,96.738 28.087,93.957 28.942,91.154C29.291,90.013 29.769,89.831 30.889,90.201C33.617,91.104 36.38,91.928 39.168,92.618C40.691,92.995 40.796,93.858 40.428,95.05C40.004,96.424 39.55,97.793 39.048,99.14C38.69,100.105 38.923,100.565 39.983,100.559C42.125,100.547 44.264,100.535 46.406,100.562C47.56,100.577 48.169,99.755 48.88,99.077C52.42,95.698 51.025,95.752 55.384,98.408C56.743,99.235 58.036,100.168 59.405,100.977C60.331,101.524 60.507,102.172 59.996,103.08C57.848,106.892 55.697,110.704 53.561,114.525C53.164,115.236 52.704,115.469 51.858,115.174C49.896,114.486 47.909,113.844 45.901,113.312C44.506,112.945 44.494,112.117 44.88,111.048C45.319,109.835 45.773,108.625 46.239,107.421C46.615,106.453 46.293,106.002 45.262,106.005C42.475,106.011 39.688,106.014 36.897,106.005C36.186,106.002 35.648,106.295 35.257,106.871C34.949,107.322 34.74,107.878 34.352,108.234C32.052,110.322 32.365,112.401 33.889,114.881C35.714,117.85 37.444,120.853 39.78,123.47C40.584,124.369 41.184,124.303 41.976,123.523C43.571,121.946 45.173,120.372 46.35,118.448C47.007,117.375 47.658,117.175 48.76,117.913C50.66,119.186 52.662,120.3 54.601,121.516C55.886,122.322 55.966,122.857 54.921,123.989C52.973,126.102 50.646,127.685 48.02,128.859C46.493,129.54 46.493,129.731 47.846,130.747C51.67,133.618 55.733,136.125 59.874,138.509C61.58,139.488 61.589,139.611 60.286,141.129C58.44,143.279 56.629,145.46 54.753,147.581C53.481,149.018 53.236,149.729 51.016,148.155C45.211,144.032 39.947,139.381 35.654,133.693C32.306,129.256 29.829,124.33 27.833,119.159C27.009,117.023 27.095,117.214 25.157,118.445C22.525,120.115 21.697,122.317 22.091,125.247C22.223,126.227 22.112,127.24 22.112,128.235Z" fill="#000" stroke="" stroke-width="" stroke-miterlimit=""/>
		<path d="M147.517,113.829C147.517,106.71 147.514,99.594 147.517,92.475C147.517,89.924 147.669,89.822 150.098,90.3C152.38,90.748 154.66,91.304 156.966,91.498C158.687,91.641 158.956,92.421 158.947,93.894C158.896,100.864 158.923,107.83 158.923,114.8C158.923,121.77 158.959,128.74 158.893,135.706C158.878,137.188 159.287,137.815 160.829,137.678C162.063,137.567 163.32,137.585 164.56,137.672C165.97,137.771 166.35,137.146 166.344,135.826C166.305,127.562 166.323,119.299 166.326,111.036C166.326,109.145 166.299,107.251 166.341,105.363C166.376,103.749 166.684,103.606 168.229,103.932C170.699,104.449 173.179,104.986 175.682,105.276C177.14,105.443 177.481,106.056 177.478,107.379C177.445,118.131 177.46,128.883 177.46,139.635C177.46,141.875 177.457,144.116 177.454,146.354C177.454,147.041 177.355,147.686 176.513,147.811C173.627,148.251 170.738,148.66 167.855,149.117C166.738,149.293 166.287,148.869 166.323,147.761C166.359,146.616 166.311,145.472 166.32,144.325C166.329,143.447 165.913,143.07 165.044,143.07C157.229,143.079 149.414,143.076 141.598,143.07C140.81,143.07 140.418,143.384 140.386,144.215C140.344,145.251 140.711,146.392 140.165,147.301C139.525,148.361 138.238,147.805 137.261,148.027C135.238,148.484 133.18,148.833 131.118,149.063C129.048,149.293 128.977,149.153 128.977,146.978C128.974,140.707 128.974,134.434 128.974,128.163C128.974,120.697 128.971,113.229 128.977,105.763C128.979,103.591 129.165,103.51 131.325,103.98C133.694,104.493 136.075,105.025 138.48,105.279C139.964,105.437 140.421,105.954 140.415,107.4C140.371,116.709 140.392,126.018 140.395,135.327C140.395,137.654 140.398,137.654 142.668,137.657C143.714,137.66 144.762,137.6 145.802,137.669C147.101,137.756 147.549,137.218 147.541,135.93C147.496,129.857 147.523,123.783 147.523,117.713C147.517,116.416 147.517,115.123 147.517,113.829Z" fill="#000" stroke="" stroke-width="" stroke-miterlimit=""/>
		<path d="M109.116,121.606C106.179,121.606 103.243,121.597 100.306,121.614C99.831,121.617 99.177,121.393 98.926,121.889C98.639,122.457 99.221,122.887 99.553,123.284C104.049,128.635 109.349,133.021 115.476,136.39C117,137.23 118.544,138.034 120.11,138.792C121.069,139.258 121.248,139.76 120.525,140.603C118.32,143.166 116.139,145.747 113.965,148.334C113.248,149.186 112.507,149.213 111.625,148.588C104.7,143.698 98.875,137.821 95.009,130.171C94.797,129.749 94.743,129.059 94.131,129.119C93.626,129.17 93.698,129.839 93.521,130.224C91.272,135.204 87.463,138.783 83.089,141.84C79.119,144.612 74.823,146.787 70.408,148.758C69.111,149.338 68.379,149.138 67.614,147.895C65.583,144.597 65.708,145.2 68.63,142.993C75.367,137.902 80.989,131.915 83.815,123.73C84.425,121.967 84.192,121.603 82.339,121.6C77.61,121.591 72.881,121.6 68.152,121.597C65.971,121.594 65.932,121.549 65.932,119.311C65.932,119.012 65.947,118.714 65.941,118.415C65.911,117.16 66.494,116.664 67.77,116.676C72.947,116.718 78.124,116.697 83.301,116.688C85.195,116.685 85.267,116.613 85.273,114.785C85.282,112.595 85.225,110.403 85.294,108.216C85.333,106.982 84.885,106.549 83.651,106.561C79.465,106.62 75.283,106.594 71.104,106.585C69.278,106.579 69.129,106.438 69.135,104.634C69.147,101.389 68.723,101.497 72.29,101.5C75.973,101.503 79.657,101.509 83.34,101.497C85.151,101.491 85.264,101.369 85.27,99.522C85.279,96.834 85.255,94.145 85.282,91.459C85.297,89.906 85.554,89.837 87.084,90.148C89.796,90.703 92.53,91.202 95.275,91.549C96.563,91.71 97.005,92.269 96.996,93.458C96.978,95.549 97.035,97.64 96.984,99.728C96.951,100.998 97.444,101.542 98.735,101.512C101.023,101.461 103.314,101.467 105.603,101.512C106.881,101.536 107.876,101.112 108.787,100.197C111.336,97.643 110.822,97.816 113.376,100.185C114.251,100.998 115.115,101.829 116.062,102.549C117.158,103.382 117.203,104.487 116.991,105.641C116.794,106.722 115.85,106.579 115.07,106.582C109.893,106.594 104.715,106.588 99.538,106.588C96.993,106.588 96.993,106.591 96.993,109.133C96.993,111.126 97.029,113.115 96.981,115.105C96.954,116.231 97.336,116.73 98.528,116.715C102.012,116.667 105.498,116.634 108.982,116.727C110.538,116.769 111.198,115.684 111.903,114.731C113.854,112.099 113.663,112.27 115.975,114.66C116.943,115.66 117.893,116.679 118.864,117.68C119.36,118.191 119.754,118.752 119.91,119.458C120.256,121.014 119.82,121.591 118.219,121.6C115.189,121.617 112.151,121.606 109.116,121.606Z" fill="#000" stroke="" stroke-width="" stroke-miterlimit=""/>
		<path d="M211.565,99.349C215.786,99.349 220.004,99.37 224.225,99.331C225.17,99.322 225.648,98.474 226.182,97.84C228.659,94.898 228.644,94.895 231.473,97.5C233.044,98.949 234.619,100.398 236.223,101.808C237.098,102.575 237.34,103.355 236.372,104.159C235.004,105.291 234.756,106.737 234.789,108.422C234.87,112.751 234.783,117.082 234.837,121.411C234.852,122.624 234.58,123.377 233.254,123.625C230.917,124.061 228.608,124.626 226.281,125.098C225.095,125.34 224.536,124.65 224.632,123.589C224.79,121.83 223.927,121.564 222.412,121.579C215.296,121.641 208.18,121.608 201.064,121.603C200.063,121.603 199.2,121.507 198.751,122.854C198.456,123.745 197.159,123.7 196.266,123.906C194.482,124.318 192.675,124.623 190.888,125.017C189.475,125.331 189.027,125.059 189.024,123.604C189.006,114.746 189.003,105.889 189.027,97.028C189.03,95.349 189.374,95.143 190.874,95.8C192.786,96.639 194.674,97.524 196.574,98.387C197.207,98.674 197.822,99.017 198.483,99.232C200.684,99.947 202.077,99.361 203.167,97.282C204.207,95.301 205.109,93.249 205.808,91.124C206.19,89.962 206.707,89.828 207.786,90.231C209.874,91.014 212.025,91.626 214.134,92.355C215.867,92.956 216.016,93.562 214.982,95.086C213.979,96.565 212.784,97.867 211.373,98.991C211.439,99.11 211.502,99.229 211.565,99.349ZM211.777,107.711C215.505,107.711 219.23,107.711 222.959,107.711C223.783,107.711 224.605,107.75 224.581,106.537C224.557,105.452 223.837,105.405 223.042,105.405C215.538,105.405 208.033,105.405 200.532,105.408C199.749,105.408 199.008,105.44 198.979,106.531C198.946,107.744 199.77,107.711 200.595,107.711C204.323,107.711 208.048,107.711 211.777,107.711ZM211.759,115.861C215.493,115.861 219.224,115.861 222.959,115.861C223.807,115.861 224.587,115.819 224.578,114.645C224.569,113.462 223.765,113.456 222.932,113.456C215.514,113.456 208.099,113.453 200.681,113.459C199.878,113.459 199.017,113.399 198.982,114.594C198.943,115.876 199.83,115.858 200.708,115.858C204.392,115.864 208.075,115.861 211.759,115.861Z" fill="#000" stroke="" stroke-width="" stroke-miterlimit=""/>
		<path d="M208.945,131.103C208.945,128.614 208.957,126.126 208.939,123.634C208.93,122.454 209.291,122.078 210.576,122.391C212.446,122.845 214.379,123.054 216.294,123.296C218.242,123.541 218.484,123.885 218.98,125.722C219.661,128.256 221.486,130.081 223.332,131.832C223.843,132.316 224.234,131.718 224.611,131.449C226.63,130.021 228.112,128.064 229.597,126.14C230.251,125.292 230.768,125.134 231.691,125.642C233.609,126.693 235.584,127.637 237.52,128.659C238.7,129.283 238.75,129.749 237.675,130.637C235.339,132.563 232.587,133.717 229.779,134.747C229.28,134.93 228.557,134.956 228.507,135.584C228.465,136.104 229.125,136.292 229.528,136.561C232.345,138.458 235.372,139.954 238.479,141.305C240.397,142.138 240.429,142.371 239.01,143.844C237.63,145.278 236.226,146.688 234.885,148.161C234.135,148.986 233.454,149.168 232.426,148.564C227.628,145.75 223.111,142.628 219.947,137.908C219.777,137.654 219.685,137.149 219.213,137.376C218.848,137.55 218.929,137.98 218.914,138.317C218.821,140.651 219.072,142.996 218.705,145.323C218.352,147.569 217.175,148.648 214.949,149.144C212.482,149.694 210.002,149.571 207.52,149.592C206.785,149.598 206.113,149.523 205.963,148.585C205.539,145.891 203.651,144.746 201.225,144.373C200.069,144.197 199.507,143.763 199.498,142.604C199.495,142.273 199.6,141.822 199.235,141.657C198.775,141.451 198.545,141.935 198.267,142.186C195.719,144.46 192.854,146.225 189.717,147.56C188.379,148.128 185.398,146.36 185.239,144.905C185.159,144.179 185.771,143.88 186.222,143.521C189.207,141.155 191.886,138.509 193.81,135.189C194.473,134.045 195.782,132.701 195.199,131.593C194.62,130.484 192.833,131.252 191.585,131.177C189.947,131.079 188.301,131.127 186.658,131.156C185.598,131.177 185.069,130.744 185.123,129.654C185.144,129.256 185.147,128.856 185.12,128.459C185.045,127.309 185.574,126.843 186.715,126.86C189.153,126.896 191.597,126.78 194.031,126.899C195.701,126.983 197.007,126.427 198.256,125.412C200.362,123.697 200.389,123.721 202.572,125.184C204.144,126.239 205.688,127.326 207.269,128.366C208.171,128.961 208.132,129.645 207.293,130.081C205.551,130.986 204.867,132.563 204.153,134.236C203.331,136.16 202.106,137.875 200.804,139.515C200.17,140.313 200.356,140.618 201.348,140.609C203.239,140.591 205.133,140.573 207.024,140.612C208.356,140.639 208.942,140.017 208.936,138.724C208.927,136.184 208.933,133.645 208.933,131.106C208.939,131.103 208.942,131.103 208.945,131.103Z" fill="#000" stroke="" stroke-width="" stroke-miterlimit=""/>
	</svg>
