<?xml version="1.0" encoding="utf-8"?>
	<svg version="1.1" xmlns="http://www.w3.org/2000/svg" xmlns:xlink="http://www.w3.org/1999/xlink" x="0px" y="0px" width="240.0" height="240.0" xml:space="preserve">
		<path d="M170.968,95.215C171.215,91.948 172.879,91.628 175.461,91.716C178.386,91.816 178.33,93.765 178.134,95.734C176.852,108.597 175.526,121.456 174.199,134.315C173.646,139.673 172.983,145.021 172.499,150.384C172.145,154.312 172.78,154.957 176.881,154.963C196.175,154.991 215.467,154.94 234.76,155.028C235.038,155.029 235.337,155.007 235.648,154.977L235.917,154.95C235.962,154.945 236.007,154.941 236.053,154.936L236.327,154.908C238.158,154.727 240.08,154.691 239.997,157.854C239.908,161.308 237.549,162.113 234.556,162.103C223.531,162.069 212.508,162.089 201.483,162.089C199.925,162.089 198.367,162.086 196.809,162.083L187.462,162.058C181.231,162.046 175,162.052 168.77,162.147C165.386,162.199 164.265,160.997 164.611,157.729C165.97,144.874 167.219,132.006 168.532,119.146C169.347,111.168 170.363,103.208 170.968,95.215ZM238.127,84.589C237.744,88.314 235.384,90.904 233.907,93.992C233.794,94.228 233.676,94.46 233.563,94.684L233.452,94.906C232.749,96.335 232.417,97.461 235.331,97.813C237.265,98.046 237.335,99.497 237.187,100.913L237.153,101.216C237.111,101.567 237.062,101.91 237.033,102.226C236.383,109.261 235.631,116.285 234.866,123.308L234.348,127.949L234.348,127.949L233.285,137.227C232.933,140.319 232.589,143.413 232.272,146.51C231.925,149.904 230.203,151.438 226.845,151.298C225.649,151.248 224.429,151.43 223.254,151.263C222.837,151.203 222.356,151.239 221.868,151.278L221.602,151.298C220.226,151.4 218.879,151.389 218.842,149.188L218.838,148.873C218.817,146.497 219.065,143.925 222.736,144.117C224.562,144.213 225.695,143.298 225.648,141.304C225.6,139.264 224.164,139.102 222.644,139.095C219.407,139.081 216.17,139.138 212.934,139.076C210.831,139.035 209.859,139.907 209.885,142.056C209.897,143.011 209.838,143.968 209.766,144.925L209.652,146.36C209.633,146.599 209.616,146.838 209.6,147.077C209.421,149.716 208.093,150.815 205.373,150.709C202.904,150.612 201.971,149.84 202.28,147.227C203.212,139.368 203.172,139.085 196.038,139.074L194.668,139.073L194.668,139.073L194.126,139.074C187.077,139.091 187.023,139.468 186.159,147.409C186.147,147.519 186.136,147.63 186.125,147.74L186.094,148.067C185.938,149.641 185.716,151.046 183.452,151.28C179.834,151.653 178.711,150.889 179.081,147.23C180.659,131.624 182.39,116.034 184.008,100.432C184.233,98.257 185.41,97.601 187.362,97.614C190.478,97.637 193.596,97.581 196.712,97.603C198.561,97.615 199.785,97.21 199.253,94.913C199.212,94.738 199.158,94.549 199.102,94.355L199.036,94.119C198.754,93.09 198.578,91.985 200.274,91.822C202.304,91.628 205.168,90.764 205.863,93.528C206.909,97.685 209.644,97.854 212.945,97.62C213.66,97.569 214.379,97.565 215.099,97.573L216.539,97.597L217.259,97.603C223.833,97.601 225.526,96.406 227.687,90.199C228.452,88.002 227.34,87.866 226.208,87.945L226.002,87.961C225.66,87.991 225.327,88.031 225.054,88.028C215.584,87.946 206.114,87.976 196.645,87.972C195.206,87.971 193.758,88.075 192.332,87.943C192.007,87.913 191.657,87.92 191.302,87.933L191.035,87.944C189.473,88.007 187.893,88.035 187.872,85.397C187.844,81.861 188.839,80.879 192.658,80.865C199.61,80.839 206.563,80.858 213.515,80.858C220.588,80.858 227.661,80.932 234.732,80.821C237.536,80.778 238.44,81.551 238.127,84.589ZM222.096,122.598L219.585,122.598L218.648,122.598C211.872,122.608 211.905,122.846 211.386,128.354C211.159,130.761 211.885,132.009 214.452,131.956C217.439,131.896 220.431,131.877 223.417,131.963C226.054,132.038 226.931,130.641 227.165,128.247C227.707,122.714 227.668,122.61 222.096,122.598ZM191.003,122.642C189.762,122.654 188.759,122.938 188.381,124.488C186.986,130.198 188.249,131.954 193.962,131.962L196.113,131.961L196.113,131.961C204.23,131.944 204.173,131.94 204.642,125.587C204.79,123.579 204.102,122.636 202.114,122.634L196.559,122.623C194.707,122.621 192.855,122.624 191.003,122.642ZM190.3,107.89C190.375,109.294 190.008,110.723 189.821,112.138C189.525,114.374 190.384,115.522 192.749,115.481C195.845,115.43 198.948,115.373 202.039,115.515C204.567,115.632 205.63,114.545 206.051,112.106C207.117,105.937 206.6,105.201 200.482,105.193C199.767,105.193 199.052,105.193 198.338,105.197C196.552,105.201 194.761,105.272 192.979,105.182C190.995,105.081 190.192,105.839 190.3,107.89ZM219.21,105.22L215.5,105.226C214.499,105.23 213.745,105.433 213.433,106.692C211.658,113.862 212.871,115.486 220.182,115.484C220.301,115.484 220.421,115.484 220.541,115.481C221.977,115.477 223.418,115.404 224.848,115.493C227.313,115.648 228.732,114.806 228.719,112.095C228.714,110.792 229.051,109.489 229.209,108.183C229.443,106.254 228.642,105.219 226.63,105.223L222.92,105.224L222.92,105.224L219.21,105.22ZM123.248,79.736C123.738,77.85 125.266,77.94 126.756,78.048L127.087,78.071C127.47,78.097 127.846,78.115 128.195,78.09C129.703,77.98 130.295,78.774 130.274,80.295C130.249,82.13 131.343,82.392 132.534,82.416L132.811,82.418C132.857,82.418 132.903,82.418 132.949,82.417L133.225,82.413C133.363,82.411 133.499,82.41 133.632,82.41C141.065,82.443 148.498,82.393 155.93,82.457C157.698,82.471 160.128,81.78 160.056,84.925C159.992,87.735 159.228,89.626 155.685,89.6C137.942,89.471 120.199,89.602 102.457,89.489C99.073,89.468 97.073,89.767 97.437,94.066C97.724,97.463 96.838,100.962 96.466,104.413C96.391,105.119 96.027,105.994 96.658,106.451C97.574,107.117 98.187,106.135 98.766,105.639C101.043,103.693 103.251,101.667 105.513,99.704C106.234,99.078 106.981,98.422 107.83,98.014C111.815,96.102 114.518,97.819 114.077,102.139C112.373,118.819 110.558,135.487 108.79,152.158C108.563,154.302 108.312,156.445 108.179,158.596C107.952,162.256 105.476,162.322 102.799,162.02C99.841,161.684 100.895,159.564 101.068,157.894C102.68,142.289 104.308,126.686 105.919,111.081C105.965,110.63 105.861,110.164 105.752,108.702C102.1,111.98 98.824,114.434 96.174,117.439C93.639,120.314 94.584,124.341 94.165,127.835C92.922,138.176 91.986,148.558 91.118,158.938C90.857,162.044 89.039,162.073 87.034,162.067L86.569,162.066C86.465,162.067 86.361,162.068 86.257,162.069C83.65,162.114 83.804,160.44 83.981,158.652C85.299,145.304 86.585,131.954 87.914,118.608C88.994,107.765 90.208,96.934 91.163,86.081C91.41,83.274 92.547,82.375 95.213,82.407C103.005,82.497 110.798,82.425 118.59,82.437C118.652,82.437 118.713,82.437 118.774,82.437L119.136,82.437C120.994,82.432 122.585,82.282 123.248,79.736ZM147.956,100.368C147.871,97.235 149.54,96.58 152.28,96.684C155.199,96.795 155.208,98.555 155.114,100.486L155.099,100.792L155.099,100.792L155.091,100.945C155.076,101.259 155.044,101.573 155.005,101.887L154.955,102.262L154.955,102.262L154.847,103.011C154.566,105.001 154.428,106.938 156.836,108.679C158.055,109.561 158.101,113.14 155.818,114.307C153.641,115.421 153.357,117.101 153.164,118.965C151.874,131.344 150.616,143.727 149.421,156.116C148.947,161.037 147.976,162.054 142.908,162.079C135.72,162.111 128.53,162.118 121.342,162.064C119.548,162.05 117.197,162.667 117.191,159.577C117.185,156.691 118.553,155.05 121.53,155.029C127.16,154.989 132.795,154.868 138.421,155.026C141.493,155.111 142.714,153.824 142.973,150.896C143.93,140.048 144.914,129.201 146.078,118.375C146.382,115.554 145.736,114.404 142.757,114.512C137.611,114.699 132.456,114.629 127.304,114.66C125.357,114.672 124.429,114.863 125.598,117.32C129.249,124.996 132.526,132.85 136.05,140.588C137.11,142.914 136.403,144.056 134.18,144.973C132.022,145.864 130.479,146.197 129.334,143.496C125.356,134.125 121.099,124.871 117.187,115.473C115.082,110.415 117.204,107.566 122.62,107.558C125.855,107.554 129.09,107.557 132.325,107.557L132.325,107.557L132.325,107.542C136.159,107.542 139.995,107.474 143.826,107.566C146.188,107.623 147.417,106.755 147.462,104.28C147.485,102.972 147.992,101.666 147.956,100.368ZM45.768,81.566C35.703,81.566 25.636,81.6 15.57,81.544C12.524,81.528 10.767,82.699 10.71,85.904C10.646,89.547 13.409,88.591 15.345,88.614C22.894,88.703 30.445,88.647 37.994,88.663C39.704,88.667 41.675,88.6 41.442,91.118C40.945,96.479 40.281,101.825 39.682,107.177C39.461,109.15 38.17,109.699 36.4,109.688C33.165,109.669 29.929,109.693 26.694,109.7C21.9,109.711 17.107,109.702 12.314,109.74C9.292,109.763 8.016,111.626 7.941,114.358C7.852,117.519 10.378,116.721 12.112,116.744C18.342,116.827 24.574,116.758 30.806,116.804C31.809,116.811 33.182,116.356 33.652,117.656C34.017,118.664 32.936,119.333 32.371,120.07C24.651,130.153 16.917,140.227 9.189,150.304C7.454,152.566 5.977,154.936 2.632,155.389C0.671,155.655 0.112,157.745 0.007,159.646C-0.049,160.664 0.204,161.482 1.319,161.92C4.61,163.21 9.628,161.702 11.82,158.807C21.22,146.389 30.683,134.019 40.04,121.568C41.847,119.162 42.895,118.925 44.532,121.784C50.127,131.558 55.934,141.21 61.645,150.917C63.679,154.377 63.351,154.971 59.37,155.013C55.655,155.052 51.94,154.993 48.226,155.037C45.209,155.073 43.932,156.939 43.889,159.682C43.839,162.825 46.356,162.025 48.092,162.046C54.322,162.123 60.554,162.064 66.785,162.063C71.289,162.062 73.215,159.68 72.09,155.338C71.826,154.319 71.229,153.366 70.683,152.443C64.229,141.505 57.828,130.535 51.235,119.681C49.598,116.987 50.616,116.747 53.002,116.766C59.473,116.818 65.947,116.677 72.414,116.825C75.536,116.897 76.713,115.619 76.73,112.596C76.748,109.359 74.551,109.711 72.529,109.705C65.338,109.686 58.147,109.603 50.959,109.742C47.976,109.799 46.503,109.218 47.078,105.732C47.837,101.135 48.346,96.466 48.5,91.811C48.586,89.204 49.463,88.579 51.865,88.612C59.772,88.721 67.684,88.571 75.591,88.693C78.542,88.739 79.645,87.598 79.653,84.684C79.662,81.625 77.795,81.546 75.608,81.55C65.661,81.566 55.715,81.557 45.768,81.566L45.768,81.566Z" fill="#000" stroke="#00000000" stroke-width="1.0" stroke-miterlimit=""/>
		<path d="M173,81l7,0l-1,8l-7,0z" fill="#000" stroke="#00000000" stroke-width="1.0" stroke-miterlimit=""/>
	</svg>
