<?xml version="1.0" encoding="utf-8"?>
	<svg version="1.1" xmlns="http://www.w3.org/2000/svg" xmlns:xlink="http://www.w3.org/1999/xlink" x="0px" y="0px" width="240.0" height="240.0" xml:space="preserve">
		<path d="M30,120H210V178.533C210,189.472 208.855,193.44 206.727,197.441C204.633,201.395 201.397,204.628 197.441,206.719C193.44,208.863 189.472,210 178.541,210H61.451C50.52,210 46.552,208.855 42.551,206.727C38.596,204.63 35.363,201.392 33.273,197.433C31.137,193.44 30,189.472 30,178.541V120Z" fill="#000" stroke="" stroke-width="" stroke-miterlimit=""/>
		<path d="M61.467,30H178.533C189.472,30 193.44,31.146 197.441,33.273C201.45,35.416 204.584,38.558 206.719,42.559C208.863,46.56 210,50.528 210,61.459V120H30V61.467C30,50.528 31.146,46.56 33.273,42.559C35.368,38.601 38.607,35.365 42.567,33.273C46.56,31.137 50.528,30 61.459,30H61.467Z" fill="#000" stroke="" stroke-width="" stroke-miterlimit=""/>
		<path d="M97.5,30H142.5V88.5H210V151.5H142.5V210H97.5V151.5H30V88.5H97.5V30ZM147,138V102H93V138H147Z" fill="#000" stroke="" stroke-width="" stroke-miterlimit=""/>
	</svg>
