<?xml version="1.0" encoding="utf-8"?>
	<svg version="1.1" xmlns="http://www.w3.org/2000/svg" xmlns:xlink="http://www.w3.org/1999/xlink" x="0px" y="0px" width="240.0" height="240.0" xml:space="preserve">
		<path d="M62.264,48.489C62.161,54.407 62.236,60.331 62.338,66.251C62.445,72.508 67.389,77.184 73.669,77.604C80.235,78.043 85.359,76.193 88.065,69.798C88.582,68.577 88.885,67.178 88.918,65.853C89.064,60.026 89.157,54.194 89.095,48.366C89.07,46.002 89.695,44.934 92.296,44.943C111.244,45.006 130.192,44.977 149.139,44.907C151.674,44.898 152.693,45.727 152.617,48.405C152.455,54.139 152.549,59.881 152.614,65.62C152.689,72.281 157.959,77.585 164.653,77.43C167.675,77.36 170.887,77.08 173.644,75.974C177.183,74.553 179.249,71.622 179.245,67.419C179.238,60.864 179.574,54.307 179.608,47.751C179.619,45.743 180.308,44.948 182.281,44.989C188.196,45.112 194.119,45.036 200.028,45.295C204.58,45.495 209.178,50.223 209.519,54.773C209.764,58.038 209.979,61.315 209.981,64.587C210.009,106.401 210.005,148.214 209.975,190.027C209.972,193.117 209.772,196.212 209.535,199.295C209.089,205.132 205.098,209.406 199.269,209.662C191.085,210.023 182.882,210.037 174.688,210.06C156.286,210.111 137.885,210.076 119.484,210.076C94.523,210.076 69.562,210.091 44.602,210.07C34.42,210.062 30.006,205.792 30.003,195.699C29.988,151.153 30.034,106.606 30.086,62.06C30.088,59.423 30.252,56.78 30.475,54.152C30.811,50.193 35.872,45.412 40.009,45.277C46.287,45.072 52.572,45.106 58.851,44.905C61.514,44.819 62.307,45.948 62.264,48.489ZM46.781,92.081L46.339,92.081C42.867,92.087 42.714,92.229 42.707,95.604L42.707,96.033L42.707,96.033C42.709,128.546 42.718,161.058 42.731,193.571C42.732,197.277 42.75,197.298 46.507,197.299C71.006,197.306 95.504,197.302 120.002,197.308C144.591,197.308 169.182,197.27 193.77,197.363C196.463,197.372 197.382,196.704 197.374,193.871C197.277,161.176 197.309,128.482 197.296,95.786C197.295,92.314 197.268,92.095 194.136,92.081L193.498,92.08L193.498,92.08C144.592,92.078 95.687,92.078 46.781,92.081ZM110.109,110.813C114.793,110.819 116.852,113.141 116.49,117.874C116.259,120.881 115.201,123.479 113.156,125.736C110.284,128.906 107.513,132.167 104.709,135.397C104.064,136.141 103.456,136.916 102.646,137.901C104.016,138.442 105.176,138.856 106.299,139.352C115.476,143.399 119.365,151.293 119.173,159.132C118.917,169.566 112.92,178.043 103.706,181.117C93.007,184.686 82.73,183.308 73.117,177.439C69.565,175.271 69.019,172.718 70.975,169.121C71.061,168.961 71.18,168.82 71.27,168.662C75.688,160.941 75.973,160.86 84.115,164.377C87.788,165.963 91.567,166.641 95.527,165.484C98.949,164.484 100.88,162.372 100.937,159.484C100.999,156.391 99.276,153.999 95.702,153.096C92.913,152.39 89.965,152.343 87.112,151.861C80.847,150.802 78.454,144.5 82.472,139.57C85.69,135.622 89.047,131.787 92.332,127.894C92.719,127.435 93.046,126.925 93.697,126.032L90.397,126.033C88.77,126.033 87.173,126.034 85.596,126.034L82.465,126.034C80.909,126.034 79.364,126.033 77.819,126.03C72.858,126.023 71.39,124.525 71.374,119.486L71.373,118.904C71.389,111.507 72.284,110.809 80.066,110.809C90.081,110.809 100.095,110.801 110.109,110.813ZM148.057,110.791C149.689,110.897 151.335,110.799 152.974,110.812C157.043,110.843 158.785,112.417 159.156,116.445C159.239,117.348 159.199,118.265 159.199,119.176C159.201,133.842 159.277,148.509 159.135,163.173C159.107,166.014 159.973,166.888 162.703,166.614C164.867,166.397 167.074,166.507 169.256,166.603C172.035,166.725 173.773,168.482 174.03,171.248C174.039,171.339 174.039,171.43 174.04,171.522C174.093,179.199 175.034,182.175 164.473,181.861C154.007,181.549 143.524,181.797 133.048,181.79C128.233,181.787 126.627,180.205 126.594,175.477C126.537,167.44 127.277,166.59 135.089,166.57L135.916,166.569C141.143,166.564 141.387,166.402 141.399,161.3L141.4,160.511L141.4,160.511C141.4,152.586 141.401,144.661 141.402,136.736L141.402,133.872C135.568,139.398 133.651,139.283 128.749,133.608C125.577,129.935 125.691,127.6 129.263,124.224C132.97,120.721 136.725,117.269 140.421,113.753C142.576,111.703 145.027,110.592 148.057,110.791ZM81.512,32.42C82.683,34.128 83.966,36.123 84.133,38.081C84.519,42.599 84.256,47.172 84.256,51.723L84.304,51.723C84.304,56.183 84.329,60.643 84.297,65.103C84.264,69.551 80.826,72.719 75.878,72.925C70.91,73.132 67.234,70.497 67.126,66.046C66.893,56.413 66.826,46.769 67.029,37.137C67.117,32.994 70.288,30.501 74.49,30.48C77.006,30.467 79.818,29.947 81.512,32.42ZM174.08,36.07C174.398,38.217 174.474,40.416 174.485,42.592L174.493,48.057L174.493,48.057L174.466,58.986C174.464,60.808 174.465,62.629 174.473,64.451C174.492,68.726 171.803,72.808 165.981,72.48C160.157,72.153 157.406,69.942 157.219,64.42C157.143,62.145 157.189,59.867 157.186,57.59C157.181,55.315 157.184,53.039 157.184,50.763C157.251,50.763 157.318,50.762 157.385,50.761C157.385,46.031 157.208,41.291 157.44,36.572C157.632,32.644 160.811,30.152 165.164,30.009C170.246,29.842 173.469,31.956 174.08,36.07Z" fill="#000" stroke="#00000000" stroke-width="1.0" stroke-miterlimit=""/>
	</svg>
