<?xml version="1.0" encoding="utf-8"?>
	<svg version="1.1" xmlns="http://www.w3.org/2000/svg" xmlns:xlink="http://www.w3.org/1999/xlink" x="0px" y="0px" width="240.0" height="240.0" xml:space="preserve">
		<path d="M21.608,97.562C21.194,97.875 20.739,98.219 20,97.751C20.343,96.152 21.486,95.111 22.606,94.089C22.791,93.921 22.975,93.753 23.155,93.583C32.877,84.463 44.79,79.654 57.41,76.242C60.25,75.474 61.591,75.376 62.225,74.655C62.866,73.927 62.783,72.561 62.794,69.22C62.832,57.898 64.245,46.856 69.498,36.619C76.657,22.674 89.928,18.341 104.06,25.199C113.284,29.674 120.514,36.515 127.015,44.238C132.607,50.876 137.351,58.112 141.607,65.665C141.751,65.921 141.942,66.185 142.137,66.454C142.743,67.292 143.387,68.182 142.773,69.044C142.252,69.781 141.348,69.47 140.466,69.166C140.115,69.046 139.767,68.926 139.448,68.875C137.534,68.569 135.626,68.221 133.72,67.874C131.595,67.487 129.471,67.1 127.338,66.771C125.41,66.47 123.997,65.544 122.704,64.164C118.323,59.492 113.629,55.198 107.746,52.432C105.079,51.178 102.296,50.444 99.338,50.263C93.472,49.907 89.107,52.322 86.138,57.318C83.925,61.042 82.638,65.101 81.789,69.335C81.335,71.602 82.047,72.172 84.314,72.051C105.845,70.912 127.07,72.988 147.949,78.4C157.228,80.799 166.32,83.756 175.067,87.673C177.483,88.757 178.436,88.083 179.279,85.827C183.447,74.68 186.712,63.342 187.271,51.369C187.312,50.504 187.271,49.636 187.231,48.768C187.212,48.362 187.193,47.957 187.183,47.552C187.175,47.292 187.148,47.031 187.12,46.766C187.025,45.877 186.926,44.947 187.572,43.926C188.785,45.027 189.099,46.368 189.403,47.661C189.442,47.828 189.481,47.995 189.522,48.16C192.354,59.591 191.225,70.945 188.739,82.256C188.191,84.748 187.632,87.256 186.767,89.644C185.934,91.945 186.4,93.199 188.613,94.442C197.069,99.191 204.891,104.806 211.228,112.282C213.835,115.366 215.993,118.718 217.67,122.388C222.375,132.685 219.828,144.012 211.184,151.34C203.018,158.269 193.252,161.621 183.02,163.883C173.095,166.08 163.012,166.633 152.873,166.414C152.718,166.41 152.55,166.419 152.379,166.428C151.77,166.46 151.118,166.494 150.836,165.981C150.456,165.296 150.955,164.857 151.433,164.435C151.597,164.291 151.759,164.148 151.882,163.998C152.835,162.842 153.804,161.697 154.773,160.552C156.57,158.429 158.367,156.306 160.065,154.107C161.478,152.272 163.077,151.171 165.372,150.678C171.836,149.292 177.981,147.03 183.332,143.021C192.666,136.026 193.778,127.054 186.465,117.967C185.036,116.193 183.557,114.467 181.799,112.994L181.775,112.974C178.912,110.573 178.897,110.56 177.269,113.849C171.551,125.4 164.715,136.256 156.877,146.471C145.791,160.915 133.298,173.995 118.684,184.933C116.723,186.401 116.63,187.463 118.142,189.282C126.966,199.918 136.206,210.057 148.793,216.438C148.893,216.487 149.011,216.532 149.132,216.577C149.629,216.764 150.193,216.976 149.894,217.676C149.626,218.305 148.95,218.144 148.379,218.008C148.309,217.991 148.24,217.975 148.174,217.961C141.596,216.526 135.592,213.738 129.951,210.117C122.929,205.609 116.701,200.149 111.109,193.992C109.482,192.201 108.19,192.157 106.212,193.346C96.611,199.113 86.5,203.479 75.216,204.87C59.332,206.831 47.693,197.821 45.88,181.915C44.445,169.295 47.841,157.541 52.371,146.011C55.071,139.132 58.429,132.559 62.208,126.211C62.305,126.047 62.391,125.861 62.478,125.672C62.752,125.074 63.038,124.451 63.742,124.463C64.529,124.476 64.691,125.156 64.846,125.804C64.891,125.994 64.936,126.181 64.996,126.348C65.538,127.842 66.07,129.341 66.603,130.84C67.625,133.718 68.648,136.597 69.739,139.449C70.446,141.284 70.276,142.966 69.712,144.762C67.921,150.442 66.853,156.237 67.077,162.235C67.176,164.815 67.625,167.307 68.463,169.728C70.878,176.7 76.076,180.31 83.438,180.096C87.294,179.981 90.98,178.979 94.644,177.823C96.896,177.117 96.983,176.185 95.751,174.323C83.328,155.531 74.674,135.051 68.77,113.367C66.42,104.745 64.678,95.987 63.709,87.103C63.44,84.627 62.553,83.817 60.05,84.249C46.598,86.566 33.441,89.694 21.846,97.389C21.767,97.442 21.688,97.501 21.608,97.562ZM165.61,101.826C141.51,89.025 115.745,82.765 88.529,82.195C88.025,82.195 87.521,82.2 87.018,82.204C85.883,82.213 84.746,82.222 83.605,82.184C81.337,82.102 80.17,83.05 80.329,85.41C80.432,86.91 80.517,88.412 80.601,89.915C80.629,90.411 80.657,90.907 80.685,91.403C82.312,119.293 90.44,145.195 104.49,169.284C106.368,172.505 106.467,172.532 109.698,170.571C126.147,160.581 140.043,147.693 152.197,132.866C158.737,124.885 164.285,116.226 169.302,107.216C170.31,105.408 170.217,104.198 168.223,103.31C167.677,103.068 167.165,102.754 166.654,102.439C166.31,102.227 165.965,102.015 165.61,101.826Z" fill="#000" stroke="" stroke-width="" stroke-miterlimit=""/>
	</svg>
