<?xml version="1.0" encoding="utf-8"?>
	<svg version="1.1" xmlns="http://www.w3.org/2000/svg" xmlns:xlink="http://www.w3.org/1999/xlink" x="0px" y="0px" width="240.0" height="240.0" xml:space="preserve">
		<path d="M174.007,189.274C173.634,192.019 173.582,194.703 172.868,197.195C171.356,202.474 169.876,207.823 167.622,212.798C166.497,215.282 164.042,217.713 161.578,218.931C154.702,222.329 147.902,217.214 148.345,209.368C148.415,208.14 148.616,206.917 148.821,205.139C146.614,207.828 144.807,210.194 142.824,212.402C140.144,215.389 137.106,217.872 133.027,218.787C126.217,220.313 120.424,214.875 121.82,208.056C122.291,205.755 123.281,203.562 124.172,200.901C123.043,201.47 122.217,202.017 121.311,202.32C115.804,204.159 110.347,206.222 104.732,207.65C101.171,208.56 97.531,207.697 94.809,204.91C90.795,200.803 91.183,194.483 95.771,190.693C97.47,189.288 99.621,188.416 101.605,187.375C106.473,184.826 111.37,182.334 116.238,179.781C116.807,179.482 117.241,178.922 117.937,178.306C112.9,178.04 108.177,178.021 103.51,177.498C87.379,175.701 72.35,170.871 59.584,160.448C45.073,148.597 36.564,133.139 33.992,114.735C29.549,82.94 40.023,56.854 65.535,37.208C82.45,24.186 101.946,18.73 123.085,20.247C143.127,21.684 161.139,28.634 175.538,43.215C187.496,55.323 193.82,70.184 196.373,86.861C199.02,104.154 195.361,120.415 188.607,136.168C185.825,142.66 182.562,148.952 179.571,155.356C176.177,162.614 177.013,165.722 184.145,169.302C188.271,171.375 192.836,172.584 197.218,174.128C198.824,174.693 200.57,174.917 202.1,175.622C206.077,177.447 208.122,180.724 207.837,184.388C207.529,188.346 204.677,191.641 200.602,192.92C195.113,194.637 189.671,194.059 184.285,192.593C180.952,191.683 177.68,190.469 174.007,189.274ZM152.835,183.566C153.073,183.594 153.307,183.622 153.545,183.65C153.825,184.486 154.194,185.302 154.371,186.161C155.608,192.187 155.51,198.185 154.138,204.201C153.624,206.451 153.227,208.831 153.405,211.104C153.708,214.987 157.694,216.602 160.551,213.951C162.31,212.318 163.748,210.124 164.747,207.916C168.219,200.257 169.129,192.094 168.975,183.762C168.961,182.899 169.274,182.026 169.438,181.153C170.268,181.452 171.183,181.615 171.916,182.068C178.782,186.334 186.119,189.176 194.31,189.013C196.476,188.971 198.852,188.444 200.733,187.417C204.065,185.592 203.883,182.105 200.556,180.29C199.351,179.631 197.97,179.216 196.616,178.917C190.647,177.615 184.962,175.575 179.706,172.457C173.172,168.579 171.3,163.006 174.044,155.935C174.296,155.281 174.576,154.637 174.875,154.007C177.876,147.692 181.046,141.452 183.865,135.052C191.589,117.535 194.805,99.454 190.254,80.471C185.48,60.56 174.726,44.97 156.663,34.991C142.072,26.931 126.315,23.477 109.657,25.288C80.807,28.42 59.103,42.553 45.572,68.364C37.353,84.037 35.883,100.84 39.5,118.044C43.453,136.849 53.479,151.641 69.941,161.694C85.176,171.001 101.993,173.97 119.631,173.041C120.564,172.99 121.498,172.85 122.422,172.901C125.218,173.055 126.478,175.011 124.989,177.34C123.673,179.398 121.955,181.274 120.14,182.927C115.141,187.463 108.868,189.694 102.744,192.192C101.194,192.822 99.472,193.648 98.501,194.903C97.587,196.089 97.059,198.026 97.255,199.515C97.507,201.452 99.141,202.679 101.25,202.819C102.329,202.889 103.505,203.09 104.49,202.777C109.507,201.19 114.641,199.823 119.416,197.671C125.33,195.011 130.539,191.16 134.684,186.03C135.015,185.62 135.682,185.48 136.191,185.209C136.345,185.755 136.579,186.297 136.625,186.852C136.663,187.3 136.471,187.762 136.378,188.22C135.234,193.769 131.986,198.278 129.181,203.025C128.126,204.808 127.09,206.726 126.651,208.719C125.787,212.668 128.929,215.324 132.681,213.872C134.371,213.218 136.051,212.178 137.349,210.917C144.537,203.94 149.433,195.589 151.86,185.83C152.051,185.041 152.504,184.318 152.835,183.566Z" fill="#000" stroke="" stroke-width="" stroke-miterlimit=""/>
		<path d="M161.568,103.468C160.574,124.051 147.496,138.049 131.323,141.82C119.416,144.597 108.494,142.189 98.627,135.006C96.247,133.274 95.71,131.001 97.096,128.975C98.515,126.898 101.05,126.562 103.463,128.327C109.521,132.756 116.233,134.819 123.762,134.6C141.008,134.096 155.188,117.857 153.041,100.723C152.639,97.521 151.608,94.375 150.656,91.272C149.829,88.583 150.502,86.273 152.709,85.372C154.982,84.438 157.167,85.489 158.301,88.074C160.719,93.577 161.643,99.36 161.568,103.468Z" fill="#000" stroke="" stroke-width="" stroke-miterlimit=""/>
		<path d="M101.414,109.027C100.191,109.629 98.73,109.983 97.778,110.88C89.003,119.113 80.317,127.435 71.607,135.739C71.047,136.275 70.567,136.896 69.993,137.414C68.14,139.099 65.642,139.099 63.906,137.447C62.268,135.888 62.179,133.82 63.99,131.86C67.57,127.981 71.122,124.042 74.982,120.453C82.375,113.577 89.923,106.87 97.531,100.238C99.057,98.908 101.031,97.815 102.982,97.302C106.17,96.462 108.863,98.432 109.61,101.601C110.399,104.952 108.462,108.355 105.152,109.251C104.046,109.549 102.861,109.563 101.713,109.708C101.61,109.479 101.512,109.251 101.414,109.027Z" fill="#000" stroke="" stroke-width="" stroke-miterlimit=""/>
		<path d="M159.701,66.333C156.303,64.462 153.858,66.945 151.402,68.854C142.394,75.85 133.442,82.922 124.541,90.058C122.824,91.435 121.213,91.967 119.234,90.931C116.569,89.54 116.331,86.399 118.945,84.21C125.367,78.823 131.794,73.428 138.422,68.298C143.822,64.121 149.503,60.308 155.099,56.387C156.294,55.547 157.596,54.767 158.959,54.277C162.749,52.914 166.114,54.581 167.104,58.142C168.061,61.605 165.965,65.008 162.273,65.937C161.517,66.133 160.733,66.179 159.701,66.333Z" fill="#000" stroke="" stroke-width="" stroke-miterlimit=""/>
	</svg>
