<?xml version="1.0" encoding="utf-8"?>
	<svg version="1.1" xmlns="http://www.w3.org/2000/svg" xmlns:xlink="http://www.w3.org/1999/xlink" x="0px" y="0px" width="240.0" height="240.0" xml:space="preserve">
		<path d="M94.818,113.406C94.782,113.407 94.737,113.411 94.686,113.416C94.441,113.442 94.059,113.481 93.839,113.159C93.589,112.79 93.835,112.45 94.059,112.141C94.09,112.099 94.12,112.057 94.148,112.016C94.4,111.655 94.66,111.3 94.921,110.944C95.091,110.713 95.261,110.481 95.429,110.248C95.739,109.816 96.051,109.385 96.363,108.955L96.364,108.953C97.261,107.716 98.158,106.479 99.002,105.208C99.585,104.335 99.672,103.301 98.766,102.577C97.805,101.809 96.815,102.093 96,102.919C95.601,103.319 95.262,103.783 94.927,104.241L94.862,104.331C94.216,105.219 93.575,106.111 92.935,107.003C92.197,108.031 91.459,109.06 90.713,110.08C89.09,112.3 89.069,112.3 86.9,110.757C86.163,110.234 85.427,109.709 84.691,109.184L84.69,109.183C83.256,108.16 81.822,107.137 80.379,106.125C79.429,105.459 78.414,105.084 77.381,105.943C76.391,106.765 76.515,107.937 77.857,108.996C79.18,110.037 80.548,111.022 81.916,112.006C82.565,112.473 83.214,112.94 83.858,113.413C83.902,113.446 83.948,113.478 83.994,113.51C84.302,113.727 84.636,113.961 84.564,114.385C84.484,114.836 84.074,114.896 83.702,114.95C83.649,114.958 83.596,114.966 83.545,114.974C83.085,115.052 82.621,115.12 82.158,115.188L82.157,115.188C81.541,115.279 80.924,115.369 80.314,115.484C79.036,115.727 77.857,116.193 78.16,117.813C78.447,119.363 79.641,119.545 80.969,119.348C81.536,119.264 82.105,119.187 82.674,119.11L82.677,119.109C83.85,118.951 85.022,118.792 86.183,118.569C87.996,118.22 88.178,119.295 88.371,120.435C88.401,120.612 88.431,120.792 88.468,120.967C88.77,122.419 88.272,123.132 86.78,123.289C85.669,123.404 84.564,123.571 83.457,123.739C82.885,123.825 82.313,123.912 81.74,123.991C80.383,124.18 79.076,124.566 79.302,126.265C79.528,127.976 80.947,127.983 82.268,127.834C84.073,127.63 85.874,127.382 87.671,127.095C88.901,126.899 89.476,127.404 89.644,128.591C89.873,130.21 90.135,131.825 90.422,133.434C90.633,134.609 91.325,135.322 92.58,135.111C93.897,134.889 94.359,133.972 94.185,132.702C94.148,132.437 94.111,132.172 94.074,131.906L94.073,131.897C93.894,130.605 93.716,129.313 93.49,128.027C93.271,126.793 93.759,126.218 94.967,126.065C96.494,125.874 98.016,125.641 99.54,125.407L100.185,125.308C101.462,125.112 102.725,124.697 102.55,123.125C102.361,121.433 100.96,121.349 99.621,121.495L99.274,121.532C97.703,121.701 96.126,121.871 94.578,122.179C92.693,122.554 92.493,121.382 92.263,120.025C92.027,118.609 92.267,117.641 93.923,117.46C95.607,117.274 97.289,117.023 98.962,116.768C100.24,116.572 101.455,116.175 101.218,114.534C100.989,112.944 99.792,112.78 98.46,112.962C97.689,113.067 96.921,113.157 96.091,113.255C95.685,113.302 95.262,113.352 94.818,113.406Z" fill="#000" stroke="" stroke-width="" stroke-miterlimit=""/>
		<path d="M168.19,104.59C168.304,105.573 168.414,106.51 169.252,106.332C169.768,106.262 170.251,106.196 170.71,106.133C172.346,105.909 173.661,105.729 174.983,105.575C176.125,105.433 177.297,105.448 177.581,106.867C177.89,108.406 176.769,108.872 175.547,109.083C173.997,109.349 172.436,109.578 170.871,109.764C169.521,109.924 168.946,110.535 169.212,111.947C169.437,113.158 169.588,114.385 169.74,115.61C169.781,115.949 169.823,116.288 169.867,116.626C170.019,117.798 169.914,118.915 168.469,119.13C167.05,119.341 166.548,118.329 166.348,117.165C166.09,115.669 165.838,114.17 165.718,112.664C165.58,110.968 164.721,110.517 163.164,110.815C161.738,111.088 160.293,111.277 158.848,111.448C157.619,111.594 156.389,111.437 156.21,109.935C156.043,108.534 157.131,108.112 158.303,107.937C158.744,107.871 159.185,107.798 159.626,107.725C160.621,107.561 161.617,107.397 162.618,107.311C164.216,107.176 164.911,106.507 164.627,104.844C164.307,102.963 163.946,102.657 161.93,102.923C161.477,102.983 161.024,103.047 160.572,103.112C159.524,103.261 158.478,103.409 157.426,103.509C156.341,103.61 155.224,103.454 155.075,102.104C154.922,100.729 155.897,100.212 157.095,100.026C157.314,99.991 157.535,99.96 157.756,99.93C158.197,99.868 158.639,99.807 159.07,99.71C159.25,99.67 159.456,99.658 159.664,99.647C160.231,99.616 160.816,99.584 160.933,98.964C161.046,98.371 160.512,98.056 160.003,97.756C159.837,97.658 159.673,97.561 159.536,97.457C158.751,96.864 157.95,96.29 157.15,95.717C156.423,95.195 155.696,94.674 154.98,94.139C154.023,93.422 153.383,92.512 154.256,91.362C155.119,90.223 156.156,90.565 157.135,91.268C157.734,91.699 158.337,92.127 158.94,92.555C160.512,93.671 162.085,94.788 163.608,95.969C164.783,96.882 165.54,96.831 166.395,95.558C167.496,93.921 168.669,92.333 169.841,90.744C170.253,90.186 170.666,89.627 171.075,89.066C171.544,88.426 172.054,87.807 172.912,87.691C173.567,87.604 174.124,87.822 174.466,88.404C174.921,89.172 174.761,89.951 174.291,90.631C173.642,91.569 172.979,92.498 172.317,93.426C171.677,94.324 171.036,95.221 170.409,96.126C170.336,96.231 170.247,96.337 170.157,96.445C169.838,96.829 169.497,97.238 169.747,97.708C170.047,98.273 170.568,98.148 171.072,98.028C171.24,97.987 171.407,97.948 171.562,97.934C172.216,97.878 172.867,97.784 173.518,97.691C173.708,97.664 173.898,97.636 174.088,97.61C175.23,97.454 176.22,97.679 176.467,98.964C176.737,100.372 175.783,100.954 174.608,101.158C172.885,101.451 171.148,101.665 169.415,101.879L169.386,101.882C167.853,102.069 167.987,103.056 168.124,104.062C168.136,104.154 168.149,104.246 168.16,104.338C168.17,104.422 168.18,104.506 168.19,104.59Z" fill="#000" stroke="" stroke-width="" stroke-miterlimit=""/>
		<path d="M145.558,200.231C146.409,206.788 146.795,213.385 146.799,220H86.759C90.008,211.434 93.436,202.949 98.007,194.976C101.34,189.169 105.069,183.663 110.011,179.064C110.098,178.983 110.205,178.903 110.316,178.821C110.716,178.525 111.16,178.196 110.855,177.667C110.638,177.287 110.152,177.409 109.7,177.523C109.568,177.557 109.438,177.589 109.319,177.608C99.84,179.122 90.314,180.083 80.712,179.853C71.582,179.632 62.587,178.493 53.916,175.4C37.326,169.479 27.305,157.85 23.565,140.697C20.966,128.776 21.84,116.936 24.456,105.164C30.06,79.958 41.86,57.718 57.216,37.203C58.126,35.988 58.842,35.915 59.992,36.926C62.904,39.488 65.833,42.031 68.761,44.574L68.762,44.575C72.196,47.557 75.63,50.539 79.038,53.552C80.26,54.633 81.403,54.935 82.989,54.593C95.628,51.857 108.276,49.154 120.922,46.452C124.994,45.582 129.067,44.711 133.139,43.84C135.908,43.247 136.003,43.123 136.257,40.274C136.377,38.931 136.495,37.589 136.614,36.246L136.617,36.215C137.036,31.469 137.455,26.725 137.906,21.982C138.128,19.675 138.288,19.591 140.26,20.665C155.867,29.158 170.425,39.186 183.947,50.703C191.996,57.558 199.484,64.967 205.86,73.449C211.147,80.482 215.069,88.117 216.539,96.882C218.788,110.258 215.309,122.11 206.958,132.626C199.634,141.85 190.275,148.586 180.144,154.371C166.128,162.38 150.961,167.413 135.504,171.71C135.297,171.768 135.058,171.805 134.815,171.843C134.082,171.957 133.306,172.077 133.219,172.798C133.153,173.338 133.732,173.572 134.324,173.811C134.617,173.93 134.914,174.05 135.137,174.21C137.473,175.88 139.099,178.118 140.373,180.632C143.495,186.793 144.681,193.484 145.558,200.231ZM61.909,118.391C61.92,102.843 74.604,90.107 90.098,90.085C105.84,90.067 118.55,102.773 118.532,118.511C118.514,134.289 105.829,146.937 90.069,146.894C74.481,146.85 61.898,134.114 61.909,118.391ZM165.897,78.452C151.48,78.434 139.767,90.165 139.774,104.618C139.781,118.981 151.429,130.748 165.704,130.817C180.153,130.887 192.005,119.042 191.987,104.549C191.968,90.278 180.164,78.47 165.897,78.452Z" fill="#000" stroke="" stroke-width="" stroke-miterlimit=""/>
	</svg>
