<?xml version="1.0" encoding="utf-8"?>
	<svg version="1.1" xmlns="http://www.w3.org/2000/svg" xmlns:xlink="http://www.w3.org/1999/xlink" x="0px" y="0px" width="240.0" height="240.0" xml:space="preserve">
		<path d="M154.074,25.971C167.247,30.719 178.898,38.002 189.011,47.706C201.222,59.424 209.958,73.334 215.142,89.449C217.816,97.761 219.366,106.287 219.722,115.021C219.82,117.422 219.847,119.828 219.993,122.226C220.066,123.424 219.589,123.666 218.476,123.665C193.73,123.635 168.984,123.642 144.238,123.642L132.009,123.642L132.009,139.96L182.328,139.96L182.328,158.839L132.047,158.839L132.047,198.783C134.859,198.162 137.587,197.72 140.22,196.954C168.984,188.583 187.834,170.094 196.637,141.427C196.978,140.32 197.422,139.914 198.624,139.928C204.498,139.999 210.372,139.96 216.246,139.961L218.006,139.961C217.507,142.08 217.106,144.048 216.577,145.981C212.147,162.162 204.214,176.41 192.687,188.585C178.64,203.422 161.595,213.153 141.659,217.607C129.79,220.259 117.791,220.7 105.694,218.963C92.377,217.051 79.974,212.657 68.488,205.741C55.04,197.643 44.079,186.927 35.634,173.673C28.623,162.67 23.923,150.739 21.669,137.893C17.568,114.525 20.963,92.321 32.531,71.533C43.065,52.603 58.275,38.58 77.838,29.332C87.126,24.942 96.914,22.179 107.122,20.857C123.197,18.776 138.857,20.485 154.074,25.971ZM107.993,123.732L40.508,123.732C40.63,125.812 40.817,127.862 41.071,129.882C42.244,139.212 44.835,147.897 48.882,155.919C52.558,163.206 57.434,169.946 63.539,176.124C75.809,188.543 90.669,196.083 108.009,198.714L108.009,158.799L57.72,158.799L57.72,139.961L107.993,139.961L107.993,123.732ZM138.617,104.679L198.133,104.679L198.133,104.679C194.486,86.963 186.008,72.265 172.593,60.214C161.255,75.054 150.004,89.777 138.617,104.679ZM67.474,60.198C65.949,61.576 64.486,62.986 63.087,64.429C55.526,72.229 49.809,80.993 45.951,90.85C45.232,92.689 44.577,94.566 43.987,96.481C43.169,99.133 42.476,101.86 41.907,104.663L101.446,104.663L101.446,104.663C91.955,92.241 82.572,79.959 73.14,67.614ZM113.663,40.627C109.443,40.963 105.311,41.622 101.255,42.607L100.387,42.823C95.186,44.15 90.109,46.017 85.131,48.432C94.303,60.434 103.411,72.35 112.578,84.343C115.06,87.591 117.546,90.843 120.038,94.105L125.051,87.546C135.06,74.452 144.973,61.483 154.948,48.432C143.967,43.189 132.625,40.469 120.81,40.371L120.022,40.368C117.918,40.371 115.798,40.458 113.663,40.627Z" fill="#000" stroke="#00000000" stroke-width="1.0" stroke-miterlimit=""/>
	</svg>
