<?xml version="1.0" encoding="utf-8"?>
	<svg version="1.1" xmlns="http://www.w3.org/2000/svg" xmlns:xlink="http://www.w3.org/1999/xlink" x="0px" y="0px" width="240.0" height="240.0" xml:space="preserve">
		<path d="M198.614,173.768l-12.111,16.155l18.907,22.34l11.499,-8.912z" fill="#ff040000" stroke="#00000000" stroke-width="1.0" stroke-miterlimit=""/>
		<path d="M59.825,20C59.825,20 67.35,32.91 96.416,33.545C103.165,32.016 110.196,31.17 117.415,31.17C121.152,31.17 124.838,31.387 128.462,31.81C166.042,45.969 167.178,77.492 167.197,78.121L167.198,78.131L167.088,78.145C167.176,78.15 167.221,78.154 167.221,78.154C170.019,99.012 155.252,117.307 155.252,117.307C155.252,117.307 146.81,106.044 139.073,106.514C131.336,106.984 132.512,116.837 136.721,122.222C140.097,126.536 144.953,129.667 146.782,130.759C150.96,128.434 155.13,125.388 159.226,121.517C195.917,86.847 164.159,44.118 163.402,43.11C192.292,59.259 211.83,90.145 211.83,125.585C211.83,177.719 169.549,220 117.415,220C65.281,220 23,177.719 23,125.585C23,99.394 33.694,75.693 50.93,58.588L51.454,58.072L51.383,57.978C51.383,57.978 49.032,24.209 59.825,20ZM171.854,135.344C160.966,135.344 152.148,144.162 152.148,155.05C152.148,165.938 160.966,174.756 171.854,174.756C171.995,174.733 172.112,174.709 172.206,174.709L173.335,173.862L190.854,159.824C191.254,158.295 191.56,156.72 191.56,155.05C191.56,144.162 182.741,135.344 171.854,135.344ZM118.215,46.878C94.058,46.878 74.476,66.461 74.476,90.617C74.476,104.628 81.063,117.1 91.31,125.105L91.646,125.363C101.239,133.174 115.015,138.628 129.846,136.543C123.307,120.492 128.538,105.832 128.538,105.832C135.167,85.135 151.034,79.82 160.256,78.515L160.397,79.011C159.343,75.172 157.779,71.544 155.783,68.205C153.939,64.907 151.751,62.186 149.389,59.938C141.456,51.877 130.419,46.878 118.215,46.878ZM119.202,70.159C123.54,70.159 127.056,73.675 127.056,78.013C127.056,82.351 123.54,85.867 119.202,85.867C114.864,85.867 111.348,82.351 111.348,78.013C111.348,73.675 114.864,70.159 119.202,70.159Z" fill="#000" stroke="#00000000" stroke-width="1.0" stroke-miterlimit=""/>
	</svg>
