<?xml version="1.0" encoding="utf-8"?>
	<svg version="1.1" xmlns="http://www.w3.org/2000/svg" xmlns:xlink="http://www.w3.org/1999/xlink" x="0px" y="0px" width="240.0" height="240.0" xml:space="preserve">
		<path d="M126.952,20.105L127.958,20.2L127.958,20.2L130.975,20.483C139.358,21.273 147.735,22.168 155.776,24.788C162.893,27.107 169.858,29.883 176.109,34.232C178.721,36.049 179.836,38.262 179.841,41.256C179.849,46.748 179.843,52.24 179.844,57.732C179.846,58.577 179.907,59.427 179.837,60.265C179.062,69.665 179.521,78.734 186.599,86.074C198.43,108.299 199.048,130.893 186.984,152.946C174.354,176.029 154.107,187.768 127.798,188.807C121.515,189.056 117.662,184.348 119.116,178.664C119.982,175.28 123.004,173.272 126.439,173.483C130.002,173.702 133.403,172.709 136.881,171.964C143.573,170.532 149.7,167.987 155.424,164.348C181.4,147.832 186.695,113.036 170.003,89.819C160.866,77.111 148.591,69.608 132.792,67.648C123.389,66.481 114.261,67.617 105.934,71.226C96.227,75.432 88.077,82.24 82.246,91.486C76.695,100.285 74.079,109.829 73.811,120.143C73.692,124.685 70.133,127.639 67.049,127.978C63.058,128.415 59.221,126.028 58.256,122.309C57.526,119.495 57.899,116.606 58.251,113.796C59.187,106.312 60.647,98.945 63.891,92.038C69.652,79.771 77.857,69.731 89.429,62.367C95.03,58.802 100.893,56.059 107.171,54.209C110.833,53.129 114.737,52.802 118.477,52.136C124,51.155 129.336,51.192 134.752,51.77C141.904,52.533 148.643,54.734 155.181,57.784C157.732,58.975 160.342,59.889 162.511,61.774C163.325,62.48 163.94,61.846 163.946,60.95C163.978,55.986 163.979,51.022 163.918,46.059C163.908,45.184 163.266,44.851 162.593,44.571L162.323,44.46C162.189,44.405 162.057,44.35 161.931,44.29C148.196,37.717 133.754,35.241 118.577,36.439C102.561,37.701 88.281,43.602 75.359,52.742C70.602,56.107 66.413,60.391 62.545,64.883C47.371,82.507 40.34,103.046 42.13,126.085C44.198,152.704 56.499,173.955 78.49,189.328C92.696,199.258 108.623,203.583 125.884,204.128C133.806,204.377 141.214,202.733 148.71,200.805C160.958,197.656 171.4,191.25 181.072,183.325C187.791,177.82 192.9,171.009 197.443,163.73C199.542,160.367 202.311,157.958 206.292,158.192C212.594,158.563 214.999,165.396 212.337,169.906C207.61,177.915 202.145,185.408 195.334,191.845C182.224,204.234 167.098,213.024 149.442,216.996C138.47,219.465 127.364,220.805 116.026,219.479C97.144,217.271 79.95,210.912 64.926,199.18C44.908,183.548 32.15,163.291 27.753,138.216C21.69,103.643 31.419,73.746 55.915,48.788C65.657,38.863 77.308,31.482 90.425,26.715C97.447,24.163 104.61,21.754 112.127,21.252C117.072,20.922 121.933,19.626 126.952,20.105ZM167.193,120.078C167.031,142.638 149.091,160.721 126.477,160.416C104.099,160.341 86.017,142.32 86.326,119.937C86.666,95.204 105.332,80.789 122.907,80.057C148.686,78.981 167.362,96.581 167.193,120.078ZM96.256,125.265C94.75,125.599 93.98,126.682 93.866,128.365C93.959,128.751 94.042,129.274 94.212,129.767C98.292,141.603 106.146,149.505 118.328,152.904C120.251,153.44 121.354,152.303 122.042,150.884C122.733,149.455 122.041,148.174 120.694,147.423C119.881,146.968 118.952,146.698 118.048,146.432C111.835,144.596 107.534,140.384 103.748,135.355C101.93,132.942 100.77,130.343 99.865,127.532C99.32,125.838 98.126,124.85 96.256,125.265ZM107.387,122.198C105.545,122.949 105.086,124.346 105.693,126.309C106.68,129.493 108.296,132.283 110.54,134.693C113.637,138.021 117.196,140.63 121.857,141.321C123.594,141.405 124.731,140.504 125.1,138.919C125.488,137.255 124.635,136.122 123.011,135.56C120.107,134.553 117.419,133.201 115.216,130.963C113.314,129.031 112.326,126.65 111.374,124.187C110.699,122.441 109.346,121.401 107.387,122.198ZM126.793,108.86C120.803,108.815 116.003,113.884 115.838,120.045C115.68,125.932 121.829,131.885 126.567,131.783C132.218,131.662 137.506,126.209 137.544,120.176C137.582,113.892 132.846,108.906 126.793,108.86ZM126.763,116.57C128.904,116.559 130.072,118.204 129.92,120.107C129.787,121.772 129.103,123.686 126.704,123.524C124.567,123.379 123.57,122.099 123.446,120.305C123.548,117.905 124.705,116.581 126.763,116.57ZM128.512,100.713C127.78,102.774 129.031,103.918 130.815,104.905C132.7,105.948 135,106.141 136.573,107.768C139.038,110.319 141.489,112.841 142.349,116.505C142.685,117.934 143.859,118.728 145.476,118.249C147.047,117.783 147.988,116.775 148.039,115.105C147.998,114.857 147.961,114.65 147.932,114.442C147.095,108.562 138.551,99.823 132.734,98.912C130.954,98.633 129.191,98.801 128.512,100.713ZM131.333,89.578C130.943,91.432 131.927,92.655 133.655,93.141C143.77,95.984 150.112,102.676 153.528,112.419C154.095,114.037 155.08,115.496 157.034,114.946C159.338,114.296 160.122,112.604 159.299,110.266C156.763,103.059 152.689,96.958 146.353,92.553C142.708,90.019 138.824,87.943 134.958,87.359C132.722,87.273 131.651,88.07 131.333,89.578Z" fill="#000" stroke="#00000000" stroke-width="1.0" stroke-miterlimit=""/>
	</svg>
