<?xml version="1.0" encoding="utf-8"?>
	<svg version="1.1" xmlns="http://www.w3.org/2000/svg" xmlns:xlink="http://www.w3.org/1999/xlink" x="0px" y="0px" width="240.0" height="240.0" xml:space="preserve">
		<path d="M219.98,197.316C219.98,192.775 219.936,188.234 219.999,183.694C220.03,181.502 219.016,180.747 216.923,180.757C214.926,180.767 213.696,181.297 213.704,183.563C213.734,192.645 213.739,201.727 213.703,210.807C213.694,213.221 215.009,213.766 217.114,213.772C219.351,213.776 220.026,212.689 219.998,210.642C219.936,206.201 219.979,201.759 219.98,197.316M109.044,180.76C110.81,180.753 112.041,181.256 112.793,182.983C116.897,192.401 121.026,201.809 125.218,211.189C126.279,213.565 125.167,213.718 123.892,213.724L123.25,213.724C123.109,213.725 122.969,213.729 122.835,213.738C120.568,214.072 119.125,213.081 118.58,210.963C117.653,207.355 115.383,206.048 111.785,206.569C110.528,206.751 109.207,206.719 107.939,206.576C103.558,206.08 99.987,206.679 98.643,211.809C98.169,213.615 94.708,214.473 93.028,213.599C91.855,212.988 92.15,212.214 92.529,211.49L92.634,211.294C92.721,211.132 92.806,210.973 92.873,210.821C95.96,203.762 99.098,196.725 102.226,189.683C103.229,187.426 104.291,185.194 105.242,182.916C105.975,181.165 107.304,180.766 109.044,180.76ZM126.153,180.964C128.321,179.872 131.258,181.031 132.003,183.221C133.847,188.645 135.587,194.104 137.401,199.538C137.732,200.534 137.819,201.679 139.339,202.793C140.792,198.459 142.139,194.461 143.47,190.458C144.281,188.021 145.097,185.586 145.852,183.132C146.358,181.487 147.352,180.772 149.113,180.759C150.968,180.745 152.035,181.424 152.624,183.214C154.509,188.936 156.48,194.63 158.448,200.324C158.695,201.035 158.727,202.17 159.603,202.216C160.765,202.277 160.718,200.999 160.976,200.226C162.788,194.792 164.523,189.332 166.327,183.896C167.268,181.057 169.519,179.988 172.306,180.853C173.592,181.253 173.4,182.103 173.1,182.961C169.744,192.564 166.355,202.156 162.997,211.759C162.382,213.519 161.031,213.712 159.446,213.725C157.713,213.739 156.711,212.994 156.162,211.355C154.376,206.016 152.537,200.695 150.681,195.379C150.398,194.571 150.293,193.31 149.347,193.239C148.085,193.145 148.081,194.556 147.771,195.412C145.922,200.519 144.105,205.639 142.342,210.777C141.699,212.655 140.733,213.761 138.528,213.747C136.221,213.732 135.565,212.35 134.94,210.54C131.974,201.951 128.895,193.402 125.958,184.803C125.546,183.6 124.081,182.007 126.153,180.964ZM108.931,190.077L108.782,190.08C107.875,190.145 107.674,191.112 107.366,191.811C106.612,193.525 105.906,195.261 105.191,196.992C103.504,201.077 103.635,201.278 107.992,201.327L108.435,201.328L108.435,201.328L108.878,201.327L108.878,201.317L110.259,201.327C110.489,201.327 110.719,201.323 110.948,201.313C113.941,201.183 114.225,200.73 113.014,197.913C112.117,195.83 111.197,193.758 110.232,191.707C109.95,191.108 109.8,190.222 109.066,190.092L108.931,190.077ZM87.254,192.707C87.306,192.706 87.358,192.706 87.409,192.706C87.409,189.645 87.402,186.584 87.411,183.523C87.417,181.722 86.624,180.859 84.738,180.766C82.312,180.648 81.344,181.65 81.36,184.053C81.395,189.482 81.532,194.927 81.196,200.339C80.815,206.479 76.487,209.502 70.856,207.999C67.391,207.073 65.463,204.342 65.374,199.823C65.268,194.393 65.311,188.96 65.331,183.529C65.339,181.714 64.63,180.704 62.714,180.797C61.195,180.87 59.139,180.388 59.137,182.762C59.133,189.76 58.366,196.807 59.557,203.749C60.792,210.946 66.201,214.706 74.049,214.302C81.716,213.907 86.553,209.683 87.205,202.472C87.497,199.242 87.254,195.963 87.254,192.707M192.824,213.743C195.985,213.743 199.146,213.702 202.307,213.757C204.43,213.795 205.341,212.88 205.315,210.729C205.289,208.598 204.187,208.04 202.3,208.06C198.053,208.107 193.804,207.997 189.558,208.09C187.407,208.137 186.443,207.254 186.487,205.148C186.508,204.161 186.501,203.173 186.496,202.185C186.486,200.208 187.443,199.341 189.434,199.402C191.704,199.471 193.978,199.37 196.249,199.395C198.159,199.415 198.871,198.432 198.869,196.625C198.868,194.869 198.279,193.757 196.335,193.759C194.161,193.761 191.982,193.629 189.817,193.751C187.123,193.903 186.428,192.526 186.445,190.13C186.461,187.777 187.105,186.361 189.796,186.427C193.646,186.519 197.501,186.412 201.352,186.432C203.273,186.442 204.617,185.971 204.649,183.658C204.681,181.411 203.551,180.756 201.515,180.771C195.49,180.821 189.464,180.816 183.438,180.776C181.487,180.763 180.492,181.53 180.496,183.558C180.517,192.647 180.522,201.735 180.495,210.824C180.489,213.006 181.588,213.792 183.638,213.757C186.699,213.706 189.761,213.744 192.824,213.743M48.652,197.289C48.652,192.743 48.592,188.195 48.677,183.65C48.719,181.403 47.664,180.74 45.592,180.755C43.608,180.769 42.333,181.244 42.384,183.55C42.442,186.217 42.349,188.887 42.363,191.556C42.373,193.403 41.5,194.274 39.657,194.265C36.198,194.25 32.738,194.224 29.281,194.287C27.064,194.328 26.32,193.168 26.338,191.152C26.361,188.681 26.265,186.208 26.327,183.739C26.387,181.333 25.107,180.747 22.962,180.754C20.771,180.761 19.99,181.717 20,183.817C20.047,192.811 20.05,201.807 20.002,210.801C19.991,212.962 20.911,213.794 23.034,213.798C25.241,213.802 26.365,212.989 26.322,210.678C26.274,208.11 26.359,205.54 26.365,202.971C26.369,201.005 27.328,200.098 29.293,200.118C32.752,200.152 36.211,200.141 39.67,200.129C41.511,200.123 42.379,201.006 42.366,202.852C42.348,205.422 42.451,207.994 42.377,210.561C42.313,212.793 43.192,213.799 45.506,213.803C47.775,213.806 48.724,212.934 48.676,210.633C48.582,206.187 48.648,201.737 48.652,197.289M96.448,140.904C92.507,140.904 88.563,140.809 84.624,140.922C73.087,141.256 61.554,141.696 50.016,142.036C47.72,142.103 47.455,142.843 48.686,144.674C51.247,148.482 54.254,151.868 57.984,154.534C64.505,159.195 71.375,159.901 78.601,156.126C85.264,152.646 91.633,148.69 97.764,144.355C99.088,143.42 101.655,142.534 101.225,141.193C100.622,139.321 98.087,140.774 96.448,140.904M142.885,140.483C142.886,140.437 142.888,140.39 142.889,140.343C142.199,140.343 141.501,140.28 140.819,140.359C139.896,140.464 138.501,139.868 138.192,141.007C137.91,142.044 139.279,142.493 140.051,143.043C146.646,147.747 153.48,152.072 160.635,155.877C164.548,157.958 168.578,159.199 173.138,158.331C181.272,156.783 186.391,151.345 190.838,144.996C192.392,142.777 192.032,142.159 189.3,142.064C173.829,141.526 158.357,141.008 142.885,140.483M31.715,97.462C32.01,94.951 33.15,94.566 35.328,95.772C43.277,100.177 51.347,104.367 59.252,108.85C72.999,116.649 86.809,124.351 100.004,133.08C100.937,133.698 102.209,134.035 102.524,135.418C101.597,136.327 100.449,135.959 99.424,135.961C87.271,135.994 75.119,136.029 62.967,135.979C44.411,135.903 30.297,121.013 31.15,102.45C31.226,100.782 31.52,99.124 31.715,97.462ZM56.005,51.237C57.578,49.35 58.589,49.369 60.074,51.332C65.142,58.03 70.17,64.756 74.898,71.698C86.593,88.871 97.184,106.687 106.076,125.486C106.16,125.665 106.262,125.839 106.322,126.025C106.611,126.924 107.679,127.883 106.901,128.723C106.06,129.632 105.072,128.588 104.252,128.184C100.708,126.436 97.161,124.688 93.691,122.8C81.362,116.095 69.096,109.272 58.015,100.574C54.449,97.774 50.906,94.917 48.268,91.12C45.293,86.838 44.005,82.047 43.709,76.922C43.988,71.907 45.349,67.195 47.762,62.8C50.054,58.625 52.959,54.89 56.005,51.237ZM99.982,26.931C107.446,25.252 107.446,25.253 110.273,32.523C114.113,42.399 115.215,52.821 116.376,63.227C117.21,70.703 116.98,78.217 117.064,85.717C117.25,97.778 116.529,109.793 115.268,121.78C115.256,121.894 115.252,122.014 115.25,122.138L115.249,122.515C115.247,123.191 115.195,123.866 114.396,124.066C113.349,124.327 112.923,123.225 112.451,122.522C101.578,106.357 91.183,89.914 83.717,71.825C81.142,65.587 79.242,59.124 79.145,52.316C78.968,39.948 86.578,30.218 98.539,27.267C99.018,27.148 99.5,27.039 99.982,26.931ZM204.571,95.561C206.829,94.271 207.63,94.873 208.159,97.209C212.554,116.612 197.26,135.913 177.379,135.978C171.454,135.997 165.527,135.981 159.601,135.981L159.601,135.981L149.971,135.987C146.761,135.986 143.551,135.979 140.341,135.95C139.355,135.941 137.844,136.551 137.505,135.208C137.245,134.181 138.677,133.782 139.467,133.266C154.447,123.488 170,114.676 185.63,105.998C191.933,102.499 198.311,99.134 204.571,95.561ZM178.893,52.512C181.51,49.143 181.828,49.058 184.613,52.23C190.86,59.343 195.694,67.131 195.942,76.993C196.108,86.807 190.612,93.464 183.541,99.165C171.718,108.698 158.542,116.101 145.2,123.225C141.977,124.947 138.725,126.614 135.46,128.255C134.72,128.626 133.851,129.497 133.052,128.704C132.289,127.947 133.032,127.007 133.383,126.248C137.734,116.825 142.611,107.675 147.832,98.708C157.188,82.64 167.482,67.2 178.893,52.512ZM131.441,28.244C132.348,26.384 133.591,25.706 135.722,26.115C141.677,27.257 147.504,28.526 152.228,32.783C159.922,39.715 161.593,48.429 160.042,58.164C158.913,65.256 156.279,71.841 153.26,78.303C146.006,93.83 136.939,108.29 127.376,122.46C126.908,123.152 126.542,124.298 125.481,124.033C124.449,123.775 124.553,122.575 124.475,121.757C123.96,116.357 123.259,110.956 123.138,105.545C122.985,98.736 122.022,91.955 122.392,87.104C122.537,70.594 123.491,56.144 126.674,41.909C127.734,37.168 129.312,32.615 131.441,28.244Z" fill="#000" stroke="#00000000" stroke-width="1.0" stroke-miterlimit=""/>
	</svg>
