<?xml version="1.0" encoding="utf-8"?>
	<svg version="1.1" xmlns="http://www.w3.org/2000/svg" xmlns:xlink="http://www.w3.org/1999/xlink" x="0px" y="0px" width="240.0" height="240.0" xml:space="preserve">
		<path d="M16.913,145.567H0.945V94.449H16.913V145.567ZM0,81.268C0,79 0.819,77.142 2.457,75.693C4.094,74.244 6.22,73.52 8.835,73.52C11.449,73.52 13.575,74.244 15.213,75.693C16.85,77.142 17.669,79 17.669,81.268C17.669,83.535 16.85,85.394 15.213,86.842C13.575,88.291 11.449,89.016 8.835,89.016C6.22,89.016 4.094,88.291 2.457,86.842C0.819,85.394 0,83.535 0,81.268Z" fill="#000" stroke="" stroke-width="" stroke-miterlimit=""/>
		<path d="M27.496,145.567V76.78H49.653C55.732,76.78 61.197,78.165 66.047,80.937C70.898,83.677 74.677,87.567 77.386,92.606C80.126,97.614 81.512,103.236 81.543,109.472V112.638C81.543,118.937 80.205,124.591 77.528,129.598C74.882,134.575 71.134,138.48 66.284,141.315C61.465,144.118 56.079,145.535 50.126,145.567H27.496ZM44.079,89.583V132.811H49.842C54.598,132.811 58.252,131.126 60.803,127.756C63.354,124.354 64.63,119.315 64.63,112.638V109.661C64.63,103.016 63.354,98.008 60.803,94.638C58.252,91.268 54.535,89.583 49.653,89.583H44.079Z" fill="#000" stroke="" stroke-width="" stroke-miterlimit=""/>
		<path d="M118.11,145.567C117.543,144.528 117.039,143 116.598,140.984C113.669,144.669 109.575,146.512 104.315,146.512C99.496,146.512 95.402,145.063 92.032,142.165C88.661,139.236 86.976,135.567 86.976,131.157C86.976,125.614 89.024,121.425 93.118,118.591C97.213,115.756 103.165,114.339 110.976,114.339H115.89V111.646C115.89,106.953 113.858,104.606 109.795,104.606C106.016,104.606 104.126,106.465 104.126,110.181H88.205C88.205,105.236 90.299,101.22 94.488,98.134C98.709,95.047 104.079,93.504 110.598,93.504C117.118,93.504 122.268,95.094 126.047,98.276C129.827,101.457 131.764,105.819 131.858,111.362V133.992C131.921,138.685 132.646,142.276 134.031,144.764V145.567H118.11ZM108.142,135.173C110.126,135.173 111.764,134.748 113.055,133.898C114.378,133.047 115.323,132.087 115.89,131.016V122.843H111.26C105.717,122.843 102.945,125.331 102.945,130.307C102.945,131.756 103.433,132.937 104.409,133.85C105.386,134.732 106.63,135.173 108.142,135.173Z" fill="#000" stroke="" stroke-width="" stroke-miterlimit=""/>
		<path d="M157.512,145.567H141.543V94.449H157.512V145.567ZM140.598,81.268C140.598,79 141.417,77.142 143.055,75.693C144.693,74.244 146.819,73.52 149.433,73.52C152.047,73.52 154.173,74.244 155.811,75.693C157.449,77.142 158.268,79 158.268,81.268C158.268,83.535 157.449,85.394 155.811,86.842C154.173,88.291 152.047,89.016 149.433,89.016C146.819,89.016 144.693,88.291 143.055,86.842C141.417,85.394 140.598,83.535 140.598,81.268Z" fill="#000" stroke="" stroke-width="" stroke-miterlimit=""/>
		<path d="M184.157,145.567H168.189V73H184.157V145.567Z" fill="#000" stroke="" stroke-width="" stroke-miterlimit=""/>
		<path d="M214.441,123.268L222.945,94.449H240L219.165,154.118L218.268,156.291C215.307,162.906 210.079,166.213 202.583,166.213C200.504,166.213 198.315,165.898 196.016,165.268V153.882H198.094C200.331,153.882 202.031,153.551 203.197,152.89C204.394,152.26 205.276,151.11 205.843,149.441L207.118,146.039L189.354,94.449H206.362L214.441,123.268Z" fill="#000" stroke="" stroke-width="" stroke-miterlimit=""/>
	</svg>
