<?xml version="1.0" encoding="utf-8"?>
	<svg version="1.1" xmlns="http://www.w3.org/2000/svg" xmlns:xlink="http://www.w3.org/1999/xlink" x="0px" y="0px" width="240.0" height="240.0" xml:space="preserve">
		<path d="M24.256,117.82C20.05,110.452 18.906,101.726 21.071,93.523C23.235,85.319 28.535,78.294 35.828,73.959C39.476,71.835 43.51,70.457 47.695,69.907C51.881,69.356 56.133,69.643 60.207,70.751C64.28,71.86 68.092,73.767 71.421,76.362C74.751,78.957 77.531,82.188 79.6,85.867L88.08,100.555L117.88,83.349L109.687,69.159C106.447,63.545 104.943,57.097 105.367,50.629C105.791,44.161 108.123,37.964 112.069,32.822C116.015,27.68 121.397,23.823 127.535,21.739C133.673,19.656 140.29,19.439 146.551,21.117C152.812,22.794 158.435,26.291 162.709,31.164C166.982,36.037 169.715,42.068 170.561,48.495C171.407,54.921 170.329,61.454 167.462,67.267C164.595,73.08 160.069,77.913 154.455,81.154L140.264,89.347L156.651,117.729L170.841,109.536C176.455,106.295 182.903,104.791 189.371,105.215C195.839,105.639 202.036,107.972 207.178,111.917C212.321,115.863 216.177,121.245 218.261,127.383C220.344,133.521 220.561,140.139 218.883,146.4C217.206,152.66 213.709,158.283 208.836,162.557C203.963,166.831 197.932,169.563 191.505,170.409C185.079,171.255 178.546,170.177 172.733,167.31C166.919,164.443 162.087,159.917 158.846,154.304L150.653,140.113L120.852,157.318L129.332,172.006C131.484,175.637 132.892,179.661 133.475,183.841C134.057,188.022 133.803,192.277 132.726,196.359C131.649,200.44 129.771,204.267 127.202,207.616C124.632,210.965 121.423,213.77 117.759,215.867C110.359,220.016 101.625,221.093 93.438,218.866C85.251,216.638 78.266,211.285 73.988,203.959L73.701,203.462C69.366,195.932 68.195,186.991 70.443,178.598C72.692,170.206 78.177,163.048 85.696,158.694L98.468,151.321L82.082,122.939L69.31,130.313C61.78,134.647 52.839,135.819 44.446,133.57C36.054,131.321 28.896,125.836 24.542,118.317L24.256,117.82ZM73.889,108.748L65.409,94.06C64.421,92.239 63.077,90.636 61.455,89.347C59.834,88.058 57.969,87.109 55.972,86.557C53.975,86.005 51.888,85.862 49.834,86.136C47.781,86.409 45.804,87.094 44.021,88.15C40.483,90.303 37.922,93.75 36.882,97.759C35.841,101.768 36.402,106.025 38.446,109.627L38.733,110.124C40.915,113.878 44.494,116.615 48.688,117.739C52.882,118.863 57.35,118.281 61.117,116.122L73.889,108.748ZM96.273,114.746L112.659,143.127L142.46,125.922L126.074,97.54L96.273,114.746ZM106.661,165.511L93.89,172.885C90.136,175.067 87.398,178.646 86.274,182.84C85.15,187.034 85.732,191.502 87.892,195.269L88.178,195.766C90.276,199.337 93.682,201.952 97.674,203.055C101.667,204.159 105.932,203.664 109.566,201.676C111.371,200.66 112.953,199.291 114.217,197.649C115.481,196.008 116.4,194.128 116.921,192.123C117.441,190.118 117.552,188.029 117.246,185.98C116.94,183.931 116.224,181.965 115.141,180.199L106.661,165.511ZM164.844,131.92L173.037,146.111C174.657,148.917 177.074,151.18 179.98,152.614C182.887,154.047 186.153,154.586 189.366,154.163C192.58,153.74 195.595,152.374 198.032,150.237C200.468,148.1 202.217,145.289 203.055,142.159C203.894,139.028 203.786,135.719 202.744,132.65C201.702,129.581 199.774,126.89 197.203,124.917C194.632,122.944 191.533,121.778 188.299,121.566C185.065,121.354 181.841,122.106 179.035,123.727L164.844,131.92ZM132.071,75.156L146.262,66.963C149.069,65.343 151.332,62.926 152.765,60.02C154.199,57.113 154.738,53.847 154.315,50.633C153.892,47.42 152.526,44.405 150.389,41.968C148.252,39.532 145.441,37.783 142.31,36.944C139.18,36.106 135.871,36.214 132.802,37.256C129.733,38.298 127.042,40.226 125.069,42.797C123.096,45.368 121.93,48.467 121.718,51.701C121.506,54.935 122.258,58.159 123.878,60.965L132.071,75.156Z" fill="#000" stroke="" stroke-width="" stroke-miterlimit=""/>
	</svg>
