<?xml version="1.0" encoding="utf-8"?>
	<svg version="1.1" xmlns="http://www.w3.org/2000/svg" xmlns:xlink="http://www.w3.org/1999/xlink" x="0px" y="0px" width="240.0" height="240.0" xml:space="preserve">
		<path d="M97.436,119.268L97.594,119.268L97.594,139.934C97.594,144.402 97.58,148.871 97.599,153.339C97.614,156.828 97.906,156.975 101.026,155.185C101.268,155.046 101.503,154.893 101.744,154.754C120.862,143.77 139.982,132.789 159.092,121.793C159.862,121.35 161.123,121.104 161.042,120.065C160.969,119.109 159.747,118.848 158.957,118.391C147.194,111.597 135.435,104.801 123.659,98.032C115.592,93.395 107.506,88.795 99.418,84.196C98.537,83.695 97.401,82.441 97.413,84.925C97.465,96.373 97.436,107.821 97.436,119.268L97.436,119.268ZM220,113.154C212.322,119.793 205.608,127.412 198.323,134.454C190.902,141.629 183.761,149.096 176.329,156.261C174.452,158.072 174.246,159.218 176.233,160.879C177.293,161.766 178.017,163.061 179.092,163.923C181.313,165.705 180.822,167.15 179.02,168.928C171.338,176.508 163.578,184.02 156.154,191.849C147.96,200.489 139.381,208.739 131.085,217.272C127.836,220.614 127.601,220.526 124.304,217.211C110.656,203.489 96.931,189.845 83.274,176.132C81.929,174.782 80.887,174.649 79.576,176.088C78.452,177.322 77.095,178.346 76.002,179.603C74.246,181.621 72.865,181.464 70.991,179.557C61.922,170.33 52.763,161.19 43.568,152.088C36.364,144.956 29.043,137.941 21.811,130.837C19.312,128.383 19.442,127.959 21.939,125.47C33.858,113.588 45.731,101.661 57.634,89.764C59.608,87.791 61.585,85.815 63.676,83.971C65.382,82.467 65.908,81.197 63.844,79.535C62.403,78.374 61.268,76.838 59.855,75.635C58.115,74.155 58.088,73.02 59.791,71.365C65.927,65.401 71.925,59.292 77.977,53.241C88.44,42.774 98.901,32.305 109.374,21.846C111.859,19.365 112.02,19.403 114.46,21.853C128.566,36.02 142.699,50.16 156.768,64.364C158.049,65.657 158.896,65.829 160.131,64.426C161.42,62.963 162.975,61.731 164.238,60.246C165.754,58.467 166.877,58.6 168.507,60.249C178.907,70.772 189.3,81.307 199.904,91.622C205.77,97.328 211.621,103.047 217.411,108.828C218.192,109.607 219.134,110.226 220,110.919L220,113.154Z" fill="#000" stroke="#00000000" stroke-width="1.0" stroke-miterlimit=""/>
	</svg>
