<?xml version="1.0" encoding="utf-8"?>
	<svg version="1.1" xmlns="http://www.w3.org/2000/svg" xmlns:xlink="http://www.w3.org/1999/xlink" x="0px" y="0px" width="240.0" height="240.0" xml:space="preserve">
		<path d="M149.196,30C149.863,30.77 150.878,30.75 151.725,31.098C160.065,34.509 167.071,39.81 173.334,46.205C179.298,52.296 184.153,59.193 188.29,66.609C189.497,68.772 191.38,70.295 192.994,72.054C199.891,79.576 205.619,87.887 210.129,97.024C215.405,107.716 218.663,119.001 219.699,130.894C220.871,144.334 218.675,157.168 212.513,169.221C207.998,178.054 201.488,185.207 193.543,191.092C184.336,197.912 174.063,202.522 163.075,205.594C153.192,208.356 143.108,209.855 132.853,210.401C114.676,211.366 96.798,209.752 79.348,204.431C64.126,199.789 50.276,192.653 39.038,181.123C30.306,172.166 24.2,161.687 21.612,149.348C18.911,136.481 19.687,123.741 23.317,111.145C27.136,97.897 33.691,86.122 42.58,75.622C43.258,74.819 43.447,73.937 43.577,72.933C44.852,63.106 47.688,53.727 51.79,44.717C53.218,41.58 54.833,38.547 56.474,35.519C57.76,33.149 59.62,31.42 61.842,30.003C63.612,30.003 65.383,30.003 67.154,30.003C67.626,30.632 68.376,30.596 69.028,30.738C78.371,32.771 87.24,36.026 95.42,41.026C96.341,41.589 97.164,41.681 98.191,41.427C104.607,39.827 111.15,39.134 117.74,38.877C121.476,38.729 125.206,38.963 128.922,39.37C129.645,39.45 130.273,39.334 130.855,38.871C134.34,36.088 138.28,34.082 142.317,32.249C144.011,31.482 145.723,30.753 147.428,30.009C148.016,30 148.606,30 149.196,30ZM93.487,144.198C97.684,144.337 102.102,144.077 106.516,143.814C117.058,143.186 127.594,142.436 138.141,141.852C146.826,141.371 155.515,140.952 164.129,139.706C170.914,138.724 177.601,137.342 183.713,134.025C189.583,130.838 193.192,126.075 194.068,119.34C194.756,114.067 193.995,108.941 192.616,103.885C189.332,91.836 182.349,82.238 172.422,74.905C155.066,62.085 135.529,56.953 114.133,59.824C96.069,62.247 80.827,70.257 69.246,84.52C60.115,95.767 55.653,108.642 56.84,123.265C57.619,132.857 63.04,139.361 72.507,142.067C79.298,144.003 86.251,144.337 93.487,144.198ZM92.605,165.75C92.572,165.845 92.498,165.942 92.513,166.025C93.472,171.307 95.408,176.203 98.463,180.627C99.257,181.775 100.372,181.884 101.567,181.138C104.979,179.01 107.85,176.298 110.309,173.128C110.979,172.266 110.79,171.933 109.748,171.703C104.117,170.463 98.711,168.578 93.552,165.995C93.263,165.851 92.982,165.6 92.605,165.75ZM167.408,162.241C167.449,161.563 167.405,161.191 167.257,161.111C166.832,160.881 166.626,161.256 166.395,161.471C162.585,165.004 158.159,167.483 153.289,169.227C151.864,169.737 151.84,169.864 153.018,170.888C155.526,173.066 158.339,174.754 161.426,175.985C163.028,176.625 163.946,176.286 164.61,174.695C166.269,170.708 167.21,166.556 167.408,162.241Z" fill="#000" stroke="" stroke-width="" stroke-miterlimit=""/>
		<path d="M108.12,100.695C108.037,94.371 108.551,88.613 110.183,82.994C110.442,82.1 110.776,81.22 111.163,80.373C112.688,77.021 114.819,75.917 118.502,76.395C123.605,77.056 128.267,78.992 132.812,81.256C139.529,84.599 145.898,88.471 151.245,93.828C151.868,94.45 152.455,95.12 152.989,95.823C155.433,99.019 155.465,100.961 153.039,104.198C150.236,107.937 146.656,110.865 142.879,113.544C136.72,117.918 130.218,121.663 122.979,123.986C121.719,124.39 120.417,124.688 119.116,124.924C115.483,125.585 113.299,124.526 111.587,121.256C109.944,118.116 109.283,114.678 108.784,111.219C108.256,107.568 107.975,103.891 108.12,100.695Z" fill="#000" stroke="" stroke-width="" stroke-miterlimit=""/>
	</svg>
