<?xml version="1.0" encoding="utf-8"?>
	<svg version="1.1" xmlns="http://www.w3.org/2000/svg" xmlns:xlink="http://www.w3.org/1999/xlink" x="0px" y="0px" width="240.0" height="240.0" xml:space="preserve">
		<path d="M132.679,119.994C132.679,132.103 132.713,144.211 132.667,156.319C132.645,162.208 128.891,167.104 123.49,168.529C117.788,170.034 112.103,167.672 109.116,162.566C108.042,160.726 107.537,158.744 107.537,156.608C107.548,132.205 107.503,107.801 107.565,83.397C107.582,76.401 113.131,71.096 120.105,71.096C127.085,71.096 132.605,76.389 132.656,83.386C132.735,95.591 132.673,107.795 132.679,119.994Z" fill="#000" stroke="" stroke-width="" stroke-miterlimit=""/>
		<path d="M63.187,94.375C63.187,87.089 63.148,79.802 63.199,72.516C63.25,65.576 68.23,60.095 74.711,59.709C82.008,59.278 87.483,63.832 88.437,71.136C88.608,72.448 88.789,73.771 88.789,75.089C88.818,88.145 88.84,101.202 88.789,114.258C88.772,118.512 87.966,122.556 84.672,125.668C80.765,129.359 76.153,130.257 71.275,128.377C66.271,126.446 63.329,122.578 63.227,117.081C63.091,109.516 63.193,101.94 63.193,94.375C63.193,94.375 63.193,94.375 63.187,94.375Z" fill="#000" stroke="" stroke-width="" stroke-miterlimit=""/>
		<path d="M151.783,145.256C151.783,138.168 151.755,131.08 151.795,123.992C151.84,116.274 157.054,110.834 164.334,110.817C171.661,110.805 176.971,116.223 176.988,123.873C177.022,138.333 177.027,152.786 176.988,167.246C176.965,174.89 171.638,180.308 164.312,180.279C157.144,180.251 151.903,174.844 151.789,167.359C151.789,167.172 151.783,166.979 151.783,166.791C151.783,159.618 151.783,152.44 151.783,145.256Z" fill="#000" stroke="" stroke-width="" stroke-miterlimit=""/>
		<path d="M63.202,160.652C63.202,158.284 63.145,155.921 63.213,153.553C63.401,147.187 68.381,141.922 74.572,141.479C81.404,140.991 87.174,145.102 88.242,151.616C89.258,157.807 89.281,164.088 88.213,170.273C87.1,176.707 81.194,180.825 74.424,180.274C68.302,179.78 63.372,174.424 63.213,168.035C63.151,165.576 63.202,163.111 63.202,160.652Z" fill="#000" stroke="" stroke-width="" stroke-miterlimit=""/>
		<path d="M45.253,120.006C45.253,122.459 45.315,124.918 45.241,127.372C45.031,134.272 39.698,139.383 32.753,139.4C25.898,139.423 20.309,134.255 20.111,127.502C19.963,122.499 19.963,117.484 20.111,112.481C20.309,105.728 25.904,100.566 32.764,100.588C39.71,100.617 45.037,105.728 45.247,112.628C45.31,115.093 45.253,117.552 45.253,120.006Z" fill="#000" stroke="" stroke-width="" stroke-miterlimit=""/>
		<path d="M176.989,79.064C176.989,81.427 177.029,83.789 176.984,86.146C176.842,93.149 171.452,98.481 164.512,98.527C157.288,98.572 151.938,93.41 151.808,86.135C151.722,81.415 151.717,76.69 151.813,71.965C151.955,64.991 157.441,59.704 164.398,59.709C171.355,59.715 176.819,65.019 176.984,71.976C177.035,74.339 176.989,76.701 176.989,79.064Z" fill="#000" stroke="" stroke-width="" stroke-miterlimit=""/>
		<path d="M132.674,39.31C132.674,41.763 132.731,44.222 132.663,46.675C132.481,53.462 127.034,58.727 120.214,58.761C113.234,58.795 107.691,53.525 107.56,46.607C107.469,41.791 107.469,36.975 107.56,32.159C107.685,25.452 113.279,20.051 120.004,20C126.847,19.949 132.509,25.395 132.668,32.228C132.725,34.584 132.674,36.947 132.674,39.31Z" fill="#000" stroke="" stroke-width="" stroke-miterlimit=""/>
		<path d="M107.537,200.719C107.537,198.266 107.486,195.807 107.548,193.353C107.73,186.453 113.273,181.194 120.258,181.245C127.062,181.296 132.525,186.578 132.65,193.376C132.741,198.192 132.741,203.008 132.65,207.824C132.525,214.639 126.795,220.074 119.946,220C113.227,219.926 107.701,214.514 107.542,207.795C107.486,205.439 107.537,203.076 107.537,200.719Z" fill="#000" stroke="" stroke-width="" stroke-miterlimit=""/>
		<path d="M220.102,120.142C220.102,122.317 220.142,124.492 220.097,126.667C219.943,133.999 214.435,139.44 207.279,139.36C200.248,139.287 195.063,133.891 195,126.525C194.96,121.988 194.932,117.45 195.012,112.912C195.131,106.023 200.486,100.713 207.279,100.645C214.173,100.571 219.801,105.87 220.074,112.77C220.171,115.224 220.091,117.683 220.091,120.142C220.091,120.142 220.097,120.142 220.102,120.142Z" fill="#000" stroke="" stroke-width="" stroke-miterlimit=""/>
	</svg>
