<?xml version="1.0" encoding="utf-8"?>
	<svg version="1.1" xmlns="http://www.w3.org/2000/svg" xmlns:xlink="http://www.w3.org/1999/xlink" x="0px" y="0px" width="240.0" height="240.0" xml:space="preserve">
		<path d="M69.13,108.261C90.742,108.261 108.261,90.742 108.261,69.13C108.261,47.519 90.742,30 69.13,30C47.519,30 30,47.519 30,69.13C30,90.742 47.519,108.261 69.13,108.261ZM69.13,210C90.742,210 108.261,192.481 108.261,170.87C108.261,149.258 90.742,131.739 69.13,131.739C47.519,131.739 30,149.258 30,170.87C30,192.481 47.519,210 69.13,210ZM170.87,210C192.481,210 210,192.481 210,170.87C210,149.258 192.481,131.739 170.87,131.739C149.258,131.739 131.739,149.258 131.739,170.87C131.739,192.481 149.258,210 170.87,210ZM206.791,33.209C210.972,37.391 211.067,44.111 207.076,48.408L206.791,48.704L186.364,69.13L206.791,89.557C211.07,93.836 211.07,100.773 206.791,105.052C202.609,109.233 195.889,109.328 191.592,105.337L191.296,105.052L170.87,84.625L150.443,105.052C146.164,109.331 139.227,109.331 134.948,105.052C130.767,100.87 130.672,94.15 134.663,89.853L134.948,89.557L155.375,69.13L134.948,48.704C130.669,44.425 130.669,37.488 134.948,33.209C139.13,29.028 145.85,28.933 150.147,32.924L150.443,33.209L170.87,53.636L191.296,33.209C195.575,28.93 202.512,28.93 206.791,33.209Z" fill="#000" stroke="#00000000" stroke-width="1.0" stroke-miterlimit=""/>
	</svg>
