<?xml version="1.0" encoding="utf-8"?>
	<svg version="1.1" xmlns="http://www.w3.org/2000/svg" xmlns:xlink="http://www.w3.org/1999/xlink" x="0px" y="0px" width="240.0" height="240.0" xml:space="preserve">
		<path d="M39.167,21.981C45.749,14.809 54.057,13.875 62.808,16.741C70.644,19.307 75.146,26.648 75.175,36.409C75.261,66.423 75.205,96.437 75.205,126.451C75.22,155.928 75.052,185.41 75.337,214.885C75.408,222.146 73.038,225.045 65.613,224.75C55.766,224.361 54.482,223.721 54.472,214.576C54.444,187.643 54.436,160.71 54.435,133.778L54.435,52.981C54.435,50.569 54.45,48.156 54.364,45.748C54.358,45.566 54.354,45.38 54.35,45.193L54.341,44.817C54.301,43.497 54.149,42.161 52.844,41.433C50.634,40.199 49.316,42.086 48.13,43.384C42.173,49.908 36.08,56.334 30.506,63.176C25.554,69.25 22.045,66.125 18.121,62.196C17.855,61.931 17.58,61.67 17.3,61.413L17.018,61.157L17.018,61.157L16.735,60.903C16.545,60.734 16.354,60.566 16.165,60.399L15.88,60.148C15.833,60.106 15.786,60.065 15.739,60.023L15.458,59.773C12.295,56.939 9.821,54.089 14.958,48.819C23.362,40.199 31.022,30.86 39.167,21.981ZM174.616,23.162C181.782,15.521 191.401,12.909 199.352,16.763C208.057,20.983 212.087,28.183 211.999,38.178C211.735,67.382 211.904,96.588 211.904,125.793C211.91,154.194 211.915,182.596 211.908,210.997L211.908,210.997L211.908,211.775C211.893,224.243 211.462,224.578 202.209,224.635C201.999,224.636 201.793,224.637 201.591,224.637L200.997,224.637C191.674,224.615 191.105,223.386 191.103,210.453C191.098,157.669 191.103,104.887 191.097,52.103C191.097,49.693 191.19,47.267 190.973,44.874C190.561,40.337 188.305,39.761 185.342,42.868C179.618,48.871 173.964,54.958 168.568,61.255C164.162,66.399 160.386,67.991 154.734,62.377C154.278,61.924 153.83,61.484 153.396,61.053L153.075,60.732C149.092,56.733 146.659,53.446 152.59,47.604C160.389,39.922 167.112,31.162 174.616,23.162Z" fill="#000" stroke="#00000000" stroke-width="1.0" stroke-miterlimit=""/>
	</svg>
