<?xml version="1.0" encoding="utf-8"?>
	<svg version="1.1" xmlns="http://www.w3.org/2000/svg" xmlns:xlink="http://www.w3.org/1999/xlink" x="0px" y="0px" width="240.0" height="240.0" xml:space="preserve">
		<path d="M217.9,168.498C219.1,168.498 220,168.798 220,170.098C219.687,174.712 218.606,179.241 216.8,183.498C214.612,189.174 209.864,193.477 204,195.097C197.102,196.895 190.084,198.198 183.001,198.997C175.401,199.997 167.701,200.697 160.101,201.297L160.101,201.297L145.101,202.197C136.101,202.897 126.802,202.997 118.102,202.897C117.377,202.889 116.652,202.881 115.927,202.874L111.577,202.83C105.052,202.76 98.527,202.647 92.002,202.197C79.602,201.397 67.102,200.497 54.803,198.797C48.529,198.019 42.314,196.816 36.203,195.197C29.926,193.536 24.896,188.844 22.803,182.698C21.326,178.617 20.483,174.334 20.303,169.998C20.203,168.698 20.603,168.698 21.503,168.698L38.203,168.698C39.294,168.607 39.393,168.929 39.402,169.59L39.403,169.798C39.647,173.047 41.112,176.084 43.503,178.298C45.735,180.021 48.399,181.094 51.203,181.398C59.303,182.698 67.402,183.698 75.602,184.398C86.302,185.298 97.002,185.998 107.702,185.998C109.936,185.998 112.277,186.005 114.635,186.014L116.404,186.021C122.008,186.043 127.577,186.063 131.901,185.998C138.501,185.898 145.201,185.198 151.901,185.198C164.101,184.498 176.401,183.198 188.501,181.298C190.708,180.975 192.841,180.264 194.8,179.198C198.01,177.245 200.064,173.847 200.3,170.098C200.5,168.498 200.9,168.498 202.1,168.498ZM67.302,76.299C73.969,75.396 80.744,75.7 87.302,77.199C90.108,77.786 92.763,78.943 95.102,80.599C98.363,82.854 100.219,86.641 100.002,90.599L100.002,90.599L100.002,150.598C99.871,155.568 96.69,159.943 92.002,161.598C91.602,161.798 90.802,161.798 90.802,162.298C91.479,162.551 92.225,162.551 92.902,162.298L92.902,162.298L99.002,162.298C100.802,162.298 101.502,162.998 101.502,164.698L101.502,164.698L101.502,169.798C101.502,171.298 100.802,171.998 99.302,171.998C95.738,172.196 92.166,172.196 88.602,171.998C84.826,171.975 81.655,169.147 81.202,165.398C80.902,164.298 80.202,164.298 79.202,164.298C71.407,165.172 63.521,163.893 56.403,160.598C52.223,158.688 49.671,154.382 50.003,149.798L50.003,149.798L50.003,90.599C50.095,85.827 52.941,81.539 57.303,79.599C60.364,77.802 63.773,76.677 67.302,76.299ZM127.002,78.299C130.001,78.299 130.001,78.799 130.101,81.799L130.101,81.799L130.101,159.598C130.101,162.452 129.649,162.591 127.367,162.598L113.802,162.598C111.602,162.598 111.002,161.998 111.002,159.798L111.002,159.798L111.002,120.599C111.002,107.266 111.035,94.199 111.102,81.399C111.102,78.799 111.602,78.299 114.202,78.299L114.202,78.299ZM36.203,103.499C38.658,103.499 38.795,103.856 38.802,105.749L38.803,158.798C38.833,159.331 38.833,159.865 38.803,160.398C38.806,160.912 38.589,161.403 38.207,161.747C37.825,162.091 37.314,162.255 36.803,162.198L36.803,162.198L22.103,162.198C20.503,162.198 20.003,161.598 20.003,159.898L20.003,159.898L20.004,105.933C20.011,103.955 20.148,103.593 22.603,103.499L22.603,103.499ZM217,78.299C219.2,78.299 220,78.799 220,80.599C220,107.266 219.933,133.532 219.8,159.398C219.8,161.698 219.2,162.198 217,162.198L217,162.198L203.6,162.198C201.149,162.198 201.009,161.754 201.001,159.943L201,81.099C201,78.447 201.359,78.307 203.438,78.3ZM154.201,78.199C155.901,78.199 156.401,78.599 156.901,80.299C159.701,89.099 162.501,97.899 165.001,106.799L165.001,106.799L165.001,108.099C166.301,104.099 167.401,100.299 168.501,96.599L168.501,96.599L173.601,80.299C174.067,78.433 174.447,78.308 175.959,78.3L190.3,78.299C192.5,78.299 193.3,79.299 192.5,81.399L192.5,81.399L178.801,119.399L174.801,130.398C174.645,131.258 174.645,132.139 174.801,132.998L174.801,132.998L174.8,159.606C174.784,161.963 174.474,162.091 172.463,162.098L158.901,162.098C156.601,162.098 156.001,161.598 156.001,159.198L156.001,159.198L156.001,138.498C156.116,133.294 155.163,128.121 153.201,123.299C148.601,111.199 144.301,98.899 139.901,86.599L139.901,86.599L137.901,81.199C137.201,79.299 138.001,78.199 140.001,78.199L140.001,78.199ZM78.202,87.299C75.987,86.62 73.618,86.62 71.402,87.299C70.082,87.706 69.11,88.833 68.902,90.199C68.835,90.898 68.835,91.601 68.902,92.299L68.902,92.299L68.902,150.298C68.962,151.537 69.638,152.663 70.702,153.298C72.411,154.23 74.388,154.548 76.302,154.198C80.002,153.798 80.902,152.698 80.902,149.098L80.902,149.098L80.702,148.798L80.702,90.599C80.883,89.008 79.783,87.556 78.202,87.299ZM36.603,78.199C38.103,78.199 38.803,78.899 38.803,80.499L38.803,80.499L38.803,94.999C38.803,96.599 38.203,97.299 36.603,97.299L36.603,97.299L22.103,97.299C21.548,97.359 20.994,97.171 20.59,96.786C20.185,96.401 19.971,95.857 20.003,95.299L20.003,95.299L20.003,80.599C20.003,78.999 20.603,78.299 22.203,78.199L22.203,78.199ZM133.701,38C141.301,38.3 149.901,38.8 156.301,39.2C162.701,39.6 169.001,40.1 175.401,40.8C184.104,41.68 192.751,43.049 201.3,44.9C209.741,46.523 216.327,53.149 217.9,61.6C218.555,64.496 218.99,67.438 219.2,70.399C219.3,71.999 218.9,71.999 217.7,71.999L201.7,71.999C200.7,71.999 200,71.699 200,70.599C199.477,64.978 195.105,60.481 189.5,59.8C182.701,58.7 176.101,57.9 169.501,57.2C159.901,56.2 150.801,55.2 140.801,55.2L140.801,55.2L100.602,55.2C84.263,55.708 67.969,57.177 51.803,59.6C50.204,59.815 48.631,60.183 47.103,60.7C42.75,62.191 39.689,66.114 39.303,70.699C39.203,72.299 38.803,72.299 37.603,72.299L21.603,72.299C20.703,72.299 20.003,72.099 20.003,70.599C20.239,66.145 21.184,61.756 22.803,57.6C25.013,51.785 29.89,47.392 35.903,45.8C42.87,44.01 49.954,42.706 57.103,41.9C64.903,40.6 72.802,40.6 80.602,39.6L80.602,39.6L96.002,38Z" fill="#000" stroke="#00000000" stroke-width="1.0" stroke-miterlimit=""/>
	</svg>
