<?xml version="1.0" encoding="utf-8"?>
	<svg version="1.1" xmlns="http://www.w3.org/2000/svg" xmlns:xlink="http://www.w3.org/1999/xlink" x="0px" y="0px" width="240.0" height="240.0" xml:space="preserve">
		<path d="M189.23,38.692C207.954,48.43 220.029,69.383 219.987,89.112C220.316,108.209 214.197,121.996 202.71,133.512C180.106,156.178 157.476,178.816 134.816,201.424C124.827,211.392 115.427,211.58 105.539,201.759C83.181,179.555 60.684,157.482 38.764,134.852C22.065,117.613 15.604,97.125 23.088,73.517C30.33,50.676 46.345,37.167 69.425,32.318C85.858,28.863 101.309,32.341 114.954,42.28C118.759,45.05 121.329,45.309 125.452,42.498C145.833,28.608 167.239,27.258 189.23,38.692ZM126.842,62.915C121.173,69.188 118.238,67.992 113.452,62.721C104.855,53.249 94.061,47.988 81.051,47.898C62.494,47.835 47.093,57.76 40.11,74.319C33.202,90.699 36.787,109.413 49.43,122.217C71.169,144.227 93.02,166.125 114.687,188.206C118.502,192.093 121.348,192.26 125.267,188.302C147.431,165.902 169.934,143.833 191.973,121.311C201.14,111.942 205.563,100.182 203.747,87.009C201.205,68.579 191.246,55.415 173.194,49.86C155.24,44.335 139.242,49.202 126.842,62.915ZM102.325,66.233C106.481,69.823 110.677,73.452 114.297,77.553C118.678,82.515 122.264,82.505 126.477,77.458C129.352,74.012 132.719,70.963 135.995,67.87C149.709,54.923 171.749,54.773 184.2,67.49C197.709,81.285 197.71,101.938 183.795,116.073C164.656,135.511 145.159,154.599 126.031,174.05C121.954,178.194 119.207,178.416 115.019,174.153C95.725,154.516 76.196,135.109 56.676,115.693C49.895,108.95 46.627,100.909 46.777,91.349C47.264,77.667 53.295,67 65.809,61.45C78.53,55.808 91.245,56.664 102.325,66.233ZM147.657,78.974C140.286,85.727 133.115,92.751 126.414,100.161C121.812,105.248 118.674,104.59 114.292,99.941C107.099,92.309 99.69,84.791 91.682,78.044C84.318,71.839 73.325,73.114 67.24,79.77C60.799,86.812 60.736,96.769 67.934,104.159C83.813,120.465 100.078,136.392 116.093,152.568C119.218,155.725 121.719,155.842 124.903,152.619C140.899,136.428 157.02,120.357 173.097,104.247C176.486,100.85 177.896,96.716 177.713,93.098C177.707,84.533 174.606,78.931 167.8,75.678C160.366,72.122 153.443,73.673 147.657,78.974ZM165.137,86.767C168.923,90.836 167.349,95.143 163.801,98.71C157.547,104.999 151.277,111.272 145.002,117.54L126.175,136.341L126.175,136.341C125.116,137.4 124.113,138.531 122.96,139.48C122.04,140.24 120.933,140.775 119.714,141.531C118.188,140.305 116.74,139.342 115.531,138.139C102.784,125.446 90.06,112.732 77.365,99.987C73.549,96.153 70.78,91.763 75.465,86.986C80.463,81.889 84.823,84.776 88.909,88.927C97.147,97.297 105.712,105.349 113.745,113.902C118.146,118.589 121.464,119.008 126.01,114.089C133.128,106.389 140.768,99.173 148.199,91.764C149.79,90.177 151.347,88.536 153.078,87.111C156.976,83.904 161.381,82.729 165.137,86.767Z" fill="#000" stroke="#00000000" stroke-width="1.0" stroke-miterlimit=""/>
	</svg>
