<?xml version="1.0" encoding="utf-8"?>
	<svg version="1.1" xmlns="http://www.w3.org/2000/svg" xmlns:xlink="http://www.w3.org/1999/xlink" x="0px" y="0px" width="240.0" height="240.0" xml:space="preserve">
		<path d="M196.636,185.594C176.019,206.211 147.069,214.11 120.048,214.11C93.026,214.11 64.076,206.211 43.461,185.594C57.025,193.062 67.604,196.69 75.199,196.478C84.624,196.216 99.573,191.876 120.048,183.459C140.171,193.447 154.333,198.556 162.534,198.784C171.352,199.03 182.719,194.634 196.636,185.594Z" fill="#000" stroke="#00000000" stroke-width="1.0" stroke-miterlimit=""/>
		<path d="M164.848,101.466C154.411,101.545 146.428,104.189 136.967,109.701C131.54,112.86 126.899,114.248 120.024,114.248C113.148,114.248 108.507,112.86 103.08,109.701C93.621,104.189 85.636,101.545 75.199,101.466C49.171,101.264 27.621,122.607 27.259,148.971C27.621,175.336 49.171,196.678 75.199,196.477C85.636,196.398 93.621,192.572 103.08,187.064C108.507,183.9 113.148,181.407 120.024,181.407C126.899,181.407 131.539,183.901 136.967,187.064C146.428,192.571 154.411,196.397 164.848,196.477C190.876,196.678 212.426,175.336 212.789,148.971C212.426,122.607 190.876,101.265 164.848,101.466Z" fill="#000" stroke="#00000000" stroke-width="1.0" stroke-miterlimit=""/>
		<path d="M177.105,61.072C177.105,61.072 184.437,58.598 187.755,52.941C189.521,49.936 190.879,43.067 186.235,34.5C180.498,23.914 170.241,31.742 158.498,45.166C158.498,45.166 141.272,39.567 120.048,39.567C98.823,39.567 81.597,45.166 81.597,45.166C69.855,31.742 59.597,23.914 53.859,34.5C49.217,43.068 50.575,49.936 52.339,52.941C55.659,58.597 62.991,61.072 62.991,61.072L51.506,100.466L120.048,112.766L188.604,100.515L177.105,61.072Z" fill="#000" stroke="#00000000" stroke-width="1.0" stroke-miterlimit=""/>
		<path d="M92.071,66.796C90.154,66.796 88.315,67.557 86.959,68.913C85.603,70.269 84.841,72.108 84.841,74.025L84.841,81.254C84.841,85.246 88.078,88.483 92.07,88.483C96.063,88.483 99.299,85.246 99.299,81.254L99.299,74.025C99.299,70.033 96.063,66.796 92.071,66.796L92.071,66.796ZM147.976,66.796C146.059,66.796 144.22,67.557 142.864,68.913C141.509,70.269 140.747,72.108 140.748,74.025L140.748,81.254C140.749,85.245 143.985,88.481 147.976,88.481C151.968,88.481 155.204,85.245 155.205,81.254L155.205,74.025C155.205,72.108 154.443,70.269 153.088,68.913C151.732,67.557 149.893,66.796 147.976,66.796Z" fill="#000" stroke="#00000000" stroke-width="1.0" stroke-miterlimit=""/>
		<path d="M182.968,102.593L169.768,55.192L175.052,53.327C176.528,52.783 180.708,50.694 182.477,47.542C182.507,47.491 185.243,42.418 180.862,33.954C180.134,32.547 179.524,32.069 179.388,32.055C178.708,31.987 174.709,32.313 163.097,46.212L160.446,49.383L156.534,48.052C156.377,47.999 139.914,42.513 120.025,42.513C100.135,42.513 83.674,47.999 83.51,48.056L79.602,49.375L76.951,46.212C65.335,32.308 61.337,31.983 60.661,32.055C60.521,32.07 59.914,32.547 59.187,33.954C54.804,42.418 57.542,47.491 57.57,47.541C59.405,50.816 63.875,52.931 64.973,53.319L70.279,55.193L57.079,102.595L42.658,109.47L55.83,62.165C52.89,60.364 49.359,57.534 47.06,53.433C44.162,48.266 43.016,38.979 48.486,28.414C51.728,22.151 56.182,20.424 59.348,20.076C67.658,19.167 75.868,26.563 83.611,35.45C90.124,33.649 103.922,30.463 120.024,30.463C136.125,30.463 149.923,33.649 156.438,35.45C164.183,26.564 172.398,19.172 180.699,20.076C183.865,20.424 188.32,22.151 191.56,28.414C197.033,38.979 195.885,48.266 192.985,53.433C190.689,57.534 187.157,60.365 184.216,62.165L197.387,109.47L182.968,102.593L182.968,102.593ZM200.873,181.679C198.518,179.329 194.334,179.009 192.353,181.679C175.828,203.968 137.046,207.947 120.024,207.947C103.001,207.947 64.218,203.968 47.695,181.679C45.714,179.009 41.528,179.329 39.176,181.679C36.822,184.032 36.845,187.727 39.261,190.015C58.597,208.307 87.415,219.998 120.024,219.998C152.633,219.998 181.45,208.305 200.783,190.015C203.204,187.727 203.225,184.032 200.873,181.679Z" fill="#000" stroke="#00000000" stroke-width="1.0" stroke-miterlimit=""/>
		<path d="M165.78,202.847L165.364,202.847C152.793,202.75 143.432,197.96 134.161,192.632C128.907,189.611 125.332,187.778 119.999,187.778C114.667,187.778 111.092,189.611 105.838,192.632C96.567,197.96 87.206,202.75 74.635,202.847L74.219,202.847C44.693,202.85 20.413,178.958 20,149.4L20,149.232C20.413,119.674 44.695,95.783 74.219,95.783L74.637,95.785C87.208,95.88 96.569,100.672 105.839,106.001C111.093,109.021 114.668,110.855 120.001,110.855C125.333,110.855 128.908,109.021 134.163,106.001C143.432,100.672 152.793,95.88 165.365,95.785L165.781,95.783C195.306,95.783 219.589,119.672 220,149.232L220,149.4C219.587,178.958 195.305,202.847 165.78,202.847ZM119.999,175.727C128.276,175.727 133.802,178.526 140.167,182.185C149.795,187.721 156.676,190.732 165.454,190.798L165.78,190.8C188.717,190.8 207.582,172.266 207.95,149.315C207.583,126.365 188.714,107.831 165.78,107.831C165.671,107.831 165.561,107.831 165.454,107.834C156.674,107.898 149.793,110.911 140.167,116.445C133.802,120.105 128.275,122.904 119.999,122.904C111.724,122.904 106.197,120.105 99.833,116.445C90.205,110.911 83.324,107.898 74.543,107.834C74.437,107.831 74.325,107.831 74.219,107.831C51.281,107.831 32.413,126.367 32.049,149.315C32.413,172.263 51.283,190.8 74.219,190.8L74.543,190.798C83.322,190.732 90.205,187.721 99.833,182.185C106.197,178.526 111.723,175.727 119.999,175.727L119.999,175.727Z" fill="#000" stroke="#00000000" stroke-width="1.0" stroke-miterlimit=""/>
	</svg>
