<?xml version="1.0" encoding="utf-8"?>
	<svg version="1.1" xmlns="http://www.w3.org/2000/svg" xmlns:xlink="http://www.w3.org/1999/xlink" x="0px" y="0px" width="240.0" height="240.0" xml:space="preserve">
		<path d="M21.026,77.375C20.678,63.164 23.835,50.423 31.636,39.021C33.097,36.881 34.802,34.863 36.628,33.028C44.56,25.027 51.927,25.053 59.911,33.037C70.878,43.995 81.827,54.962 92.76,65.956C99.891,73.131 100.03,80.758 92.855,88.038C86.35,94.639 79.618,101.022 72.817,107.31C70.147,109.78 70.26,111.433 72.817,113.964C91.038,132.01 109.171,150.144 127.218,168.364C129.557,170.73 130.992,171.008 133.445,168.451C140.968,160.615 148.726,153.005 156.449,145.352C162.267,139.577 168.199,139.481 173.817,145.404C186.28,158.537 198.621,171.782 210.919,185.063C215.154,189.637 215.041,195.317 210.988,199.97C197.569,215.381 180.305,221.051 160.397,219.843C130.218,217.999 104.666,205.031 81.836,186.211C57.997,166.555 39.003,143.082 28.07,113.772C23.644,101.901 20.713,89.681 21.026,77.375Z" fill="#000" stroke="" stroke-width="" stroke-miterlimit=""/>
		<path d="M170.468,113.494C157.866,113.494 145.256,113.52 132.653,113.485C126.339,113.468 124.643,111.789 124.643,105.484C124.635,80.419 124.643,55.345 124.696,30.28C124.704,22.792 127.566,20 134.932,20C178.174,20.026 215.928,56.137 218.059,99.492C218.12,100.796 218.303,102.083 218.39,103.388C218.764,109.572 215.415,113.346 209.162,113.39C196.264,113.485 183.366,113.416 170.477,113.416C170.468,113.442 170.468,113.468 170.468,113.494Z" fill="#000" stroke="" stroke-width="" stroke-miterlimit=""/>
	</svg>
