<?xml version="1.0" encoding="utf-8"?>
	<svg version="1.1" xmlns="http://www.w3.org/2000/svg" xmlns:xlink="http://www.w3.org/1999/xlink" x="0px" y="0px" width="240.0" height="240.0" xml:space="preserve">
		<path d="M44.075,94.729C43.454,95.602 42.831,96.48 42.218,97.373C43.898,98.305 45.069,97.813 46.135,97.366C46.384,97.261 46.629,97.158 46.872,97.077C59.875,92.902 73.149,91.421 86.745,92.841C90.527,93.234 94.17,94.192 97.561,95.892C104.376,99.299 108.089,104.747 108.089,112.512C108.089,118.316 107.152,124.011 106.215,129.703C106.023,130.866 105.832,132.03 105.648,133.194C105.126,136.523 105.84,138.719 109.074,140.166C110.651,140.873 112.154,141.731 113.659,142.59C115.922,143.882 118.19,145.177 120.717,145.962C124.055,146.99 127.097,146.973 129.215,143.774C131.359,140.541 131.246,137.212 129.006,134.03C127.106,131.329 124.387,129.647 121.388,128.47C118.652,127.389 117.606,125.698 118.19,122.744C118.686,120.224 119.02,117.676 119.355,115.128C119.472,114.229 119.59,113.331 119.715,112.434C119.985,110.499 120.726,109.601 122.914,110.29C132.788,113.41 140.676,124.574 140.336,134.928C140.135,141.221 137.233,145.979 132.387,149.683C130.435,151.182 129.851,152.315 132.422,153.771C159.048,168.848 187.033,175.071 217.206,166.774C224.387,164.804 230.906,161.318 236.981,156.995C237.144,156.878 237.31,156.726 237.48,156.569C238.082,156.015 238.739,155.409 239.534,156.15C240.328,156.891 239.988,158.128 239.404,158.974C238.41,160.394 237.364,161.798 236.153,163.027C217.319,182.131 194.476,187.587 168.722,182.427C147.029,178.078 127.228,168.875 108.176,157.911C102.825,154.825 102.677,154.878 101.761,161.144L101.583,162.356C100.944,166.683 100.307,171.005 99.757,175.341C99.373,178.278 97.979,179.717 94.876,179.525C84.531,178.88 74.404,177.259 65.122,172.361C56.868,168.012 51.526,161.623 51.77,151.714C51.988,143.077 56.372,137.29 64.189,134.03C70.186,131.529 76.53,131.041 82.954,131.224C87.73,131.363 88.645,130.222 88.68,124.496C88.701,120.809 86.372,121.031 84.294,121.229C83.857,121.271 83.431,121.312 83.041,121.315C59.457,121.541 43.194,134.353 36.701,157.728C36.26,159.319 35.918,160.937 35.575,162.554C35.287,163.913 34.999,165.273 34.653,166.617C32.587,174.574 25.929,179.647 17.762,179.647C14.974,179.647 13.57,179.037 14.974,175.838C20.759,162.663 22.563,148.66 24.367,134.655C25.004,129.714 25.64,124.773 26.452,119.868C26.469,119.761 26.49,119.65 26.512,119.535C26.675,118.675 26.872,117.639 25.772,117.201C25.019,116.907 24.437,117.445 23.895,117.946C23.779,118.053 23.664,118.16 23.549,118.256C19.767,121.41 15.976,124.539 11.479,126.692C8.498,128.121 5.439,128.644 2.188,128.147C1.325,128.017 0.34,127.842 0.061,126.919C-0.207,126.042 0.453,125.605 1.069,125.197C1.194,125.114 1.317,125.033 1.43,124.949C13.823,115.772 22.05,103.152 30.034,90.34C30.177,90.11 30.345,89.876 30.516,89.637C31.221,88.656 31.979,87.601 31.271,86.444C30.635,85.409 29.501,85.512 28.39,85.613C27.994,85.649 27.602,85.685 27.236,85.669C26.294,85.63 25.351,85.628 24.409,85.627C23.032,85.624 21.656,85.622 20.29,85.503C17.361,85.25 15,83.899 13.875,81.041C13.783,80.807 13.682,80.569 13.58,80.327C12.935,78.805 12.237,77.16 13.448,75.716C14.361,74.628 15.419,75.09 16.477,75.552C16.945,75.756 17.412,75.96 17.867,76.029C23.457,76.888 29.033,76.469 34.607,76.05L36.056,75.942C38.069,75.794 38.941,74.19 39.682,72.578C40.224,71.406 40.775,70.237 41.326,69.067C42.873,65.782 44.422,62.493 45.791,59.139C46.985,56.219 48.502,55.191 51.352,56.978C51.866,57.302 52.423,57.562 52.978,57.821C53.213,57.931 53.448,58.04 53.679,58.154L53.699,58.164C62.673,62.599 62.739,62.632 58.638,71.776C57.426,74.487 58.437,75.315 60.877,75.167C66.425,74.838 71.982,74.658 77.539,74.478C87.899,74.143 98.262,73.807 108.568,72.508C108.968,72.457 109.413,72.337 109.873,72.212C111.539,71.76 113.403,71.255 114.024,73.816C114.739,76.77 113.03,78.679 110.119,79.629C104.01,81.633 97.709,82.514 91.338,82.845L89.559,82.939C78.298,83.536 67.03,84.133 55.762,84.44C52.136,84.536 49.809,85.799 48.014,88.841C46.822,90.862 45.457,92.784 44.075,94.729ZM44.209,111.684C43.146,117.018 42.118,122.369 41.865,128.505C42.36,128.226 42.727,128.038 43.007,127.895C43.417,127.686 43.639,127.572 43.8,127.407C54.206,116.225 67.671,111.684 82.296,109.584C82.871,109.501 83.55,109.519 84.24,109.538C86.099,109.588 88.036,109.641 88.24,107.727C88.486,105.411 86.075,104.495 83.907,103.672C83.465,103.505 83.033,103.34 82.636,103.169C81.982,102.89 81.25,102.751 80.535,102.655C68.9,101.025 57.823,102.725 47.443,108.381C46.048,109.139 44.549,109.985 44.209,111.684ZM76.597,144.846C76.868,144.871 77.133,144.894 77.394,144.915C78.036,144.969 78.65,145.021 79.264,145.108C85.095,145.918 85.6,146.572 84.746,152.28C84.48,154.068 84.199,155.855 83.918,157.642L83.917,157.646C83.481,160.422 83.045,163.199 82.663,165.981C82.262,168.892 80.789,169.528 78.148,168.63C73.93,167.21 70.183,165.127 67.725,161.31C65.415,157.719 64.509,153.832 66.74,149.849C68.893,145.997 72.571,144.96 76.597,144.846Z" fill="#000" stroke="" stroke-width="" stroke-miterlimit=""/>
		<path d="M208.124,158.582C200.847,160.011 193.508,160.604 185.281,160.595C173.35,160.839 161.061,158.8 149.4,153.265C145.87,151.592 144.563,149.596 145.234,145.5C147.561,131.224 149.574,116.887 151.474,102.542C151.927,99.151 153.391,97.269 156.573,96.458C157.938,96.112 159.298,95.731 160.659,95.35C163.342,94.597 166.027,93.844 168.757,93.364C172.008,92.798 174.439,91.429 176.165,88.693C176.326,88.436 176.545,88.192 176.765,87.948C177.341,87.306 177.925,86.657 177.49,85.73C176.989,84.672 175.917,84.758 174.938,84.838C174.74,84.854 174.546,84.87 174.361,84.876C171.18,84.989 167.998,85.126 164.817,85.263L164.813,85.264C161.633,85.401 158.454,85.538 155.274,85.651C153.696,85.703 152.075,85.669 150.515,85.433C147.369,84.954 145.251,83.098 144.258,80.1C143.761,78.592 143.212,76.779 144.24,75.489C145.062,74.452 146.04,74.931 147.003,75.403C147.408,75.602 147.81,75.799 148.197,75.881C152.648,76.814 157.109,76.531 161.569,76.247C162.733,76.173 163.897,76.099 165.061,76.047C167.223,75.951 167.772,74.678 166.831,72.761C166.77,72.63 166.709,72.5 166.665,72.36C166.342,71.295 165.73,70.204 165.122,69.12C163.874,66.896 162.642,64.701 163.955,62.808C165.778,60.183 168.99,59.165 172.195,58.148C173.555,57.717 174.914,57.286 176.165,56.734C178.207,55.836 178.524,57.705 178.757,59.084L178.771,59.165C179.09,61.045 179.367,62.931 179.645,64.818L179.645,64.821C179.936,66.799 180.227,68.777 180.566,70.748C180.612,71.017 180.648,71.295 180.684,71.574C180.884,73.144 181.093,74.771 183.216,75.193C185.612,75.672 187.408,74.748 188.828,72.805C190.017,71.179 191.231,69.57 192.444,67.961L192.446,67.958C194.718,64.945 196.991,61.932 199.104,58.808C200.986,56.019 202.816,55.13 205.876,56.951C208.603,58.572 211.514,59.923 214.408,61.239C217.075,62.46 217.092,63.863 215.123,65.771C213.257,67.584 211.462,69.475 209.684,71.384C209.565,71.513 209.426,71.643 209.284,71.776C208.659,72.361 207.973,73.003 208.612,73.877C208.978,74.382 210.198,74.487 211,74.426C214.028,74.186 217.053,73.914 220.078,73.642L220.085,73.641C223.11,73.369 226.136,73.097 229.163,72.857C229.53,72.828 229.93,72.739 230.337,72.648C231.788,72.325 233.327,71.981 233.756,74.295C234.192,76.631 233.224,78.601 230.88,79.568C226.017,81.581 220.875,82.444 215.672,82.888C215.355,82.915 215.038,82.943 214.721,82.97L214.332,83.004L214.325,83.005C209.871,83.39 205.4,83.776 200.943,83.682C196.698,83.594 193.848,85.695 191.086,88.336C191.004,88.413 190.917,88.492 190.829,88.571C190.264,89.08 189.637,89.645 190.014,90.488C190.363,91.266 191.16,91.256 191.896,91.246C192.042,91.244 192.186,91.242 192.323,91.246C197.108,91.412 201.875,91.778 206.503,93.059C215.576,95.569 219.942,101.47 218.8,110.778C217.651,120.202 216.28,129.6 214.91,138.996L214.909,139.001C214.191,143.923 213.473,148.846 212.787,153.771C212.395,156.595 210.991,158.015 208.124,158.582ZM163.332,148.376C168.666,150.302 174.235,151.025 179.891,151.147C184.397,151.252 188.798,150.529 193.182,149.579C197.174,148.725 197.341,145.738 197.499,142.896C197.53,142.344 197.56,141.797 197.618,141.273C197.922,138.566 195.684,138.178 193.774,137.847C193.677,137.83 193.58,137.813 193.485,137.796C193.399,137.781 193.313,137.766 193.229,137.75C193.187,137.742 193.145,137.734 193.104,137.726C185.19,136.157 177.32,136.331 169.607,138.902C166.862,139.817 164.186,140.933 162.129,143.086C159.619,145.718 159.889,147.138 163.332,148.376ZM186.844,117.611C190.321,117.55 193.772,117.811 197.163,118.665C199.315,119.205 200.876,119.964 200.492,122.727C200.126,125.367 198.854,126.544 196.248,126.587C191.768,126.666 187.306,126.77 182.852,127.468C176.952,128.383 171.269,129.891 165.927,132.61C165.703,132.725 165.476,132.871 165.246,133.018C164.464,133.52 163.645,134.047 162.763,133.481C161.894,132.923 162.058,132.037 162.22,131.161C162.276,130.859 162.331,130.559 162.345,130.274C162.563,125.681 165.177,122.849 169.117,121.018C174.738,118.404 180.691,117.454 186.844,117.611ZM199.758,102.899C195.949,98.759 190.929,98.428 184.585,98.524C184.414,98.537 184.166,98.547 183.862,98.56C182.957,98.598 181.551,98.657 180.175,98.872C177.9,99.23 175.616,99.683 173.403,100.319C166.744,102.228 164.347,105.984 165.097,112.852C165.263,114.438 165.794,115.048 167.258,114.203C176.863,108.677 187.461,107.666 198.216,107.283C198.331,107.278 198.449,107.276 198.571,107.273C199.588,107.251 200.765,107.226 201.1,105.941C201.421,104.711 200.545,103.757 199.773,102.915L199.758,102.899Z" fill="#000" stroke="" stroke-width="" stroke-miterlimit=""/>
		<path d="M127.463,80.518C135.516,84.44 141.939,94.166 141.939,103.213C141.931,103.336 141.922,103.49 141.912,103.669C141.882,104.21 141.839,104.971 141.748,105.731C141.434,108.364 140.24,108.616 138.375,106.917C134.287,103.195 129.686,100.223 124.726,97.809C122.713,96.824 122.138,95.299 122.469,93.19C123.027,89.625 123.532,86.052 124.029,82.479C124.334,80.291 125.075,79.359 127.463,80.518Z" fill="#000" stroke="" stroke-width="" stroke-miterlimit=""/>
	</svg>
