<?xml version="1.0" encoding="utf-8"?>
	<svg version="1.1" xmlns="http://www.w3.org/2000/svg" xmlns:xlink="http://www.w3.org/1999/xlink" x="0px" y="0px" width="240.0" height="240.0" xml:space="preserve">
		<path d="M73.571,121.782C71.409,119.418 72.28,116.511 72.272,113.878C72.199,87.859 72.235,61.842 72.223,35.823C72.215,18.578 73.434,20.169 56.149,20.132C45.22,20.108 45.075,20.271 45.072,31.211C45.063,87.726 44.995,144.241 45.104,200.755C45.145,222.02 42.246,219.3 64.419,219.629C70.282,219.717 72.357,217.276 72.277,211.605C72.083,197.534 72.31,183.456 72.195,169.382C72.154,164.455 73.457,160.334 76.732,156.51C84.776,147.113 92.474,137.425 100.415,127.938C105.138,122.296 105.468,122.343 109.222,128.617C123.786,152.962 138.192,177.403 152.873,201.674C165.981,223.346 158.333,219.128 184.367,219.498C187.823,219.547 192.58,221.323 194.496,217.887C196.365,214.541 192.562,211.3 190.776,208.296C170.286,173.83 149.794,139.363 129.044,105.053C125.87,99.804 125.779,95.951 130.195,91.524C133.942,87.767 136.989,83.316 140.383,79.203C155.045,61.435 169.727,43.685 184.376,25.906C185.427,24.629 187.155,23.33 186.487,21.533C185.744,19.536 183.552,20.191 181.943,20.168C175.755,20.08 169.547,20.419 163.38,20.039C157.469,19.677 153.427,21.825 149.784,26.503C126.064,56.964 102.127,87.26 78.231,117.584C76.966,119.188 76.091,121.328 73.571,121.782" fill="#000" stroke="#00000000" stroke-width="1.0" stroke-miterlimit=""/>
	</svg>
