<?xml version="1.0" encoding="utf-8"?>
	<svg version="1.1" xmlns="http://www.w3.org/2000/svg" xmlns:xlink="http://www.w3.org/1999/xlink" x="0px" y="0px" width="240.0" height="240.0" xml:space="preserve">
		<path d="M30.002,120.01C30.002,97.601 29.997,75.186 30.002,52.777C30.002,42.152 35.636,34.294 45.718,30.917C48.041,30.137 50.506,30.006 52.922,30.006C97.84,29.989 142.757,30.011 187.679,30.049C200.43,30.06 209.973,39.648 209.99,52.448C210.012,74.308 209.995,96.173 209.973,118.033C209.968,124.98 205.361,129.872 198.963,129.795C192.671,129.724 188.195,124.881 188.19,118.077C188.174,96.948 188.135,75.818 188.223,54.682C188.234,52.415 187.679,51.816 185.379,51.822C141.834,51.921 98.284,51.943 54.74,51.888C52.423,51.882 51.923,52.492 51.923,54.748C51.983,98.2 51.978,141.651 51.868,185.102C51.862,187.759 52.73,188.149 55.075,188.138C76.666,188.056 98.257,188.078 119.842,188.1C124.471,188.105 127.914,190.203 129.896,194.425C131.829,198.544 131.28,202.448 128.469,205.984C126.421,208.565 123.653,209.954 120.38,209.96C97.235,209.998 74.09,210.097 50.945,209.921C39.42,209.833 30.074,199.867 30.046,188.061C29.997,165.378 30.03,142.688 30.03,120.005C30.024,120.01 30.013,120.01 30.002,120.01Z" fill="#000" stroke="" stroke-width="" stroke-miterlimit=""/>
		<path d="M170.229,206.731C159.109,206.121 148.709,200.301 142.521,188.171C136.178,175.728 137.524,163.631 145.53,152.303C146.633,150.738 146.732,150.024 145.315,148.624C131.994,135.435 118.744,122.163 105.527,108.863C104.412,107.743 103.616,107.551 102.101,108.21C97.4,110.252 91.827,108.484 89.01,104.311C86.023,99.88 86.577,93.927 90.328,90.232C94.029,86.58 99.888,86.02 104.187,88.903C108.498,91.797 110.414,97.48 108.207,102.17C107.279,104.13 107.828,104.986 109.107,106.26C122.209,119.285 135.283,132.343 148.297,145.461C149.631,146.807 150.356,146.982 152.02,145.769C163.639,137.291 176.203,135.967 188.827,142.798C201.649,149.739 207.606,161.127 206.657,175.723C205.52,193.053 190.304,206.747 170.229,206.731ZM172.804,154.038C162.563,153.995 154.118,162.374 154.074,172.62C154.024,182.856 162.409,191.307 172.661,191.35C182.897,191.394 191.347,183.015 191.391,172.763C191.435,162.533 183.05,154.088 172.804,154.038Z" fill="#000" stroke="" stroke-width="" stroke-miterlimit=""/>
	</svg>
