<?xml version="1.0" encoding="utf-8"?>
	<svg version="1.1" xmlns="http://www.w3.org/2000/svg" xmlns:xlink="http://www.w3.org/1999/xlink" x="0px" y="0px" width="240.0" height="240.0" xml:space="preserve">
		<path d="M31.434,30C76.649,30.043 121.865,30.036 167.08,30.036L167.069,30.102L167.069,30.102L167.08,30.036C167.011,30.427 166.971,30.826 166.868,31.208C164.066,41.678 161.263,52.148 158.449,62.616C157.931,64.543 158.001,66.053 158.646,67.122L158.733,67.259C159.427,68.288 160.691,68.876 162.513,69.001C162.755,69.017 163.008,69.026 163.27,69.026C177.814,69.029 192.358,69.029 206.902,69.017C207.261,69.016 207.649,69.113 208.029,69.014C208.533,69.009 209.191,69.005 210,69L209.977,69L209.975,75.542C209.963,120.019 209.97,164.497 210,208.975C210,210.17 209.457,209.99 208.725,209.99C181.748,209.982 154.771,209.984 127.795,209.984C127.63,209.529 127.712,209.093 127.818,208.661L127.91,208.291C127.925,208.23 127.938,208.168 127.951,208.107C130.6,194.91 133.259,181.714 135.912,168.518C139.027,153.024 142.152,137.531 145.227,122.029C145.487,120.718 145.98,120.324 147.36,120.33C162.401,120.393 177.442,120.369 192.482,120.369L194.96,120.369L194.96,120.369C180.505,107.443 166.156,94.613 151.826,81.799L134.633,66.426C128.901,61.3 123.167,56.173 117.424,51.038C115.239,63.551 113.096,75.725 111.012,87.91C110.8,89.145 110.326,89.453 109.093,89.452C88.356,89.424 67.619,89.451 46.882,89.481C46.375,89.482 45.809,89.283 45.268,89.715C45.668,90.165 46.021,90.576 46.388,90.975C55.13,100.442 63.883,109.899 72.599,119.389C73.274,120.124 73.947,120.391 74.919,120.388C84.413,120.357 93.907,120.369 103.401,120.37C105.241,120.37 105.23,120.37 104.869,122.157C103.108,130.854 101.352,139.553 99.597,148.252C96.135,165.404 92.654,182.553 89.229,199.713C88.548,203.127 87.642,206.503 87.309,209.984L30.03,209.984L30.03,206.109C30.03,147.9 30.035,89.69 30,31.48C30,30.306 30.176,30 31.434,30ZM208.895,30.016C209.73,30.014 209.994,30.111 209.993,31.064L209.977,68.979C185.124,46.541 171.087,33.725 167.865,30.53L167.674,30.339C167.615,30.28 167.561,30.225 167.512,30.175L167.43,30.09L167.43,30.09L167.381,30.036L181.218,30.037C190.444,30.037 199.669,30.035 208.895,30.016Z" fill="#000" stroke="#00000000" stroke-width="1.0" stroke-miterlimit=""/>
	</svg>
