<?xml version="1.0" encoding="utf-8"?>
	<svg version="1.1" xmlns="http://www.w3.org/2000/svg" xmlns:xlink="http://www.w3.org/1999/xlink" x="0px" y="0px" width="240.0" height="240.0" xml:space="preserve">
		<path d="M146.281,28L153.978,71.871C168.448,82.819 178.333,100.574 178.333,120C178.333,139.226 168.651,156.815 154.424,167.788L153.978,168.129L146.281,212L93.052,212L85.355,168.129C70.885,157.181 61,139.426 61,120C61,100.774 70.682,83.185 84.909,72.212L85.355,71.871L93.052,28L146.281,28ZM119.667,62C103.717,62 89.212,68.516 78.697,79.031C68.183,89.545 61.667,104.05 61.667,120C61.667,135.95 68.183,150.455 78.697,160.969C89.212,171.484 103.717,178 119.667,178C135.617,178 150.122,171.484 160.636,160.969C171.15,150.455 177.667,135.95 177.667,120C177.667,104.05 171.15,89.545 160.636,79.031C150.122,68.516 135.617,62 119.667,62Z" fill="#00000000" stroke="#000" stroke-width="16.0" stroke-miterlimit=""/>
	</svg>
