<?xml version="1.0" encoding="utf-8"?>
	<svg version="1.1" xmlns="http://www.w3.org/2000/svg" xmlns:xlink="http://www.w3.org/1999/xlink" x="0px" y="0px" width="240.0" height="240.0" xml:space="preserve">
		<path d="M239.999,94.754C239.183,96.242 238.271,97.682 237.569,99.224C236.519,101.522 235.367,103.394 232.331,103.226C230.159,103.112 230.321,105.164 230.105,106.526C228.593,116.096 227.171,125.684 225.719,135.26C225.119,139.208 224.567,143.168 223.889,147.104C223.043,151.994 219.929,154.664 215.033,154.754C212.135,154.808 209.237,154.748 206.339,154.76C204.359,154.766 203.855,153.884 204.635,152.108C205.883,149.276 207.503,146.828 210.731,145.958C212.183,145.568 213.269,144.77 213.527,143.174C214.313,138.386 215.087,133.592 215.993,128C214.415,129.956 213.245,131.168 212.345,132.56C207.551,139.982 200.393,144.23 192.425,147.266C180.371,151.85 167.933,154.7 154.943,154.19C144.725,153.788 134.927,151.586 126.113,146.126C124.493,145.124 123.383,145.172 121.889,146.348C116.879,150.266 111.413,153.314 105.053,154.496C102.965,154.886 100.871,154.976 98.784,154.73C89.537,153.632 84.815,146.636 87.282,137.576C89.939,127.832 98.724,123.338 109.043,124.334C114.389,124.85 119.321,126.884 123.767,129.914C125.303,130.958 126.455,131.018 128.009,129.842C132.053,126.782 136.247,123.92 140.477,120.92C139.511,120.116 138.593,120.53 137.765,120.53C123.371,120.5 108.971,120.536 94.577,120.476C92.892,120.47 90.485,121.286 90.534,118.052C90.605,113.138 91.368,111.986 94.92,111.974C101.819,111.956 108.713,111.974 115.613,111.962C119.741,111.956 119.741,111.944 120.353,106.286C120.677,103.31 119.411,101.474 116.567,100.76C114.203,100.172 111.797,100.346 109.403,100.334C104.603,100.31 99.803,100.298 95.009,100.334C93.245,100.346 92.334,99.776 92.759,97.844C92.934,97.07 92.981,96.26 93.03,95.462C93.203,92.792 94.476,91.676 97.271,91.73C104.567,91.874 111.869,91.718 119.165,91.808C121.499,91.838 123.101,91.436 123.023,88.64C122.999,87.752 123.299,86.66 124.325,86.492C127.097,86.036 129.905,86.09 132.683,86.444C134.033,86.612 134.027,87.89 133.793,88.838C133.139,91.526 134.573,91.82 136.715,91.802C144.713,91.742 152.711,91.766 160.709,91.784C164.567,91.79 164.393,91.88 163.097,95.39C161.615,99.41 159.149,100.658 154.949,100.424C148.373,100.058 141.755,100.4 135.161,100.292C132.929,100.256 131.801,101.024 131.579,103.256C131.381,105.242 131.189,107.252 130.721,109.184C130.181,111.428 131.039,112.01 133.127,111.986C139.727,111.914 146.321,111.962 152.921,111.962C154.859,111.962 156.863,111.914 157.745,114.116C158.639,116.348 158.195,118.49 156.677,120.29C155.789,121.346 154.667,122.234 153.551,123.062C147.521,127.514 141.503,131.99 135.383,136.316C133.361,137.744 133.619,138.416 135.629,139.496C142.205,143.036 149.351,144.518 156.653,144.962C171.431,145.862 186.005,144.566 200.117,139.694C201.503,139.214 202.835,138.578 204.149,137.786C201.767,137.768 199.433,137.918 197.141,137.318C191.081,135.728 186.689,132.272 185.147,126.008C183.821,120.608 185.843,116.174 189.929,112.652C194.633,108.596 201.989,108.512 206.825,112.412C210.071,115.028 211.271,118.442 210.545,122.654C212.363,119.9 214.799,117.854 217.139,115.646C219.389,113.528 218.783,109.808 217.955,106.826C217.277,104.372 215.165,103.232 212.633,103.202C206.333,103.13 200.039,103.142 193.739,103.106C189.851,103.088 189.671,102.854 190.331,98.936C190.463,98.15 190.673,97.358 190.691,96.566C190.739,94.262 191.939,93.482 194.147,93.5C201.845,93.566 209.549,93.38 217.235,93.59C220.283,93.674 221.783,92.66 221.783,89.666C221.783,86.972 222.995,85.832 225.677,86.18C226.367,86.27 227.075,86.192 227.777,86.192C232.697,86.192 232.745,86.198 232.403,91.118C232.283,92.84 232.979,93.512 234.605,93.506C236.405,93.494 238.205,93.524 240.005,93.53C239.999,93.956 239.999,94.358 239.999,94.754ZM194.003,117.926C194.219,118.754 194.339,119.12 194.411,119.498C194.897,122.258 196.799,123.068 199.247,122.762C201.635,122.468 203.153,120.914 203.081,118.526C203.009,116.084 201.245,114.902 198.899,114.626C194.477,114.104 190.523,116.834 189.719,120.962C188.765,125.864 191.321,130.58 195.659,131.696C200.387,132.908 206.585,130.94 208.763,125.594C203.423,129.758 198.467,130.112 194.795,126.596C192.323,124.226 191.915,121.118 194.003,117.926ZM104.339,133.766C102.923,133.712 101.567,133.928 100.301,134.612C97.614,136.064 96.137,139.142 96.99,141.578C97.925,144.242 100.445,145.304 103.907,144.488C107.753,143.582 111.095,141.614 114.377,139.52C115.553,138.77 115.619,138.032 114.365,137.318C111.233,135.548 108.047,133.91 104.339,133.766Z" fill="#000" stroke="" stroke-width="" stroke-miterlimit=""/>
		<path d="M0,148.754C2.064,147.968 4.14,148.826 6.222,148.7C10.44,148.442 14.208,147.284 17.676,143.876C14.634,143.102 11.994,143.552 9.408,143.444C8.01,143.384 6.612,143.45 5.208,143.42C3.786,143.39 2.25,143.468 2.352,141.338C2.442,139.514 2.784,137.918 5.16,137.924C9.258,137.942 13.356,137.924 17.454,137.894C18.756,137.882 20.256,137.99 20.196,136.034C20.142,134.216 18.678,134.48 17.532,134.462C14.736,134.414 11.934,134.456 9.138,134.432C7.53,134.42 5.79,134.612 5.934,132.08C6.06,129.878 7.014,128.828 9.306,128.9C12.3,128.996 15.3,128.912 18.3,128.918C19.716,128.918 21.114,128.972 21.912,127.412C22.464,126.332 23.574,126.446 24.564,126.434C27.264,126.41 29.964,126.41 32.658,126.434C33.852,126.44 35.088,126.338 35.61,127.862C35.916,128.756 36.774,128.888 37.602,128.888C42.102,128.894 46.596,128.894 51.096,128.864C51.57,128.858 52.2,128.768 52.5,128.462C56.628,124.268 61.758,127.322 66.342,126.5C69.354,130.832 73.872,128.246 77.676,128.918C79.056,129.164 80.01,129.53 79.776,131.132C79.542,132.728 79.428,134.432 77.148,134.426C74.352,134.42 71.55,134.432 68.754,134.468C67.968,134.474 67.11,134.348 66.522,135.05C66.042,135.626 65.988,136.364 66.12,137.048C66.3,137.966 67.122,137.9 67.806,137.9C71.406,137.924 75,137.888 78.6,137.942C79.932,137.966 81.696,137.666 81.492,139.904C81.324,141.716 81.12,143.54 78.486,143.462C74.994,143.354 71.49,143.42 67.992,143.468C67.152,143.48 65.982,143.036 65.568,144.074C65.148,145.124 66.048,145.94 66.732,146.654C69.138,149.162 72.21,150.596 75.336,151.97C76.824,152.624 78.546,152.846 79.728,154.304C71.004,155.024 62.256,155.978 54.762,149.84C53.856,149.102 52.89,148.118 52.56,147.056C51.498,143.642 49.092,143.102 46.032,143.42C44.646,143.564 43.236,143.504 41.838,143.432C36.63,143.18 32.292,144.152 27.546,147.392C19.38,152.966 9.846,155.288 0.012,150.554C0,149.954 0,149.354 0,148.754ZM42.42,137.906C42.42,137.888 42.42,137.87 42.42,137.846C44.916,137.846 47.412,137.87 49.908,137.834C51.18,137.816 51.552,136.886 51.69,135.818C51.804,134.912 51.294,134.504 50.478,134.504C45.588,134.492 40.698,134.486 35.808,134.534C34.488,134.546 34.224,135.596 34.212,136.652C34.194,138.014 35.268,137.888 36.138,137.9C38.226,137.93 40.326,137.906 42.42,137.906Z" fill="#000" stroke="" stroke-width="" stroke-miterlimit=""/>
		<path d="M43.387,124.826C33.199,124.826 23.011,124.832 12.817,124.82C9.001,124.814 8.917,124.724 9.583,120.89C10.339,116.564 11.227,112.256 11.917,107.924C12.247,105.842 13.321,105.014 15.337,105.02C24.025,105.05 32.731,104.75 41.407,105.116C51.697,105.554 61.963,104.576 72.241,104.996C74.533,105.092 76.837,105.026 79.135,105.038C80.785,105.05 81.499,105.782 81.169,107.492C80.197,112.49 79.207,117.482 78.349,122.504C77.941,124.88 76.315,124.832 74.557,124.832C64.165,124.82 53.773,124.826 43.387,124.826ZM32.893,109.352C32.893,109.376 32.893,109.4 32.893,109.43C30.907,109.43 28.915,109.37 26.929,109.448C25.501,109.502 25.297,110.684 25.111,111.794C24.961,112.712 25.471,113.114 26.281,113.12C30.163,113.138 34.039,113.15 37.921,113.108C39.415,113.09 39.571,111.878 39.685,110.78C39.859,109.16 38.605,109.4 37.669,109.37C36.079,109.316 34.483,109.352 32.893,109.352ZM30.625,120.962C30.625,120.944 30.625,120.92 30.625,120.902C32.611,120.902 34.603,120.95 36.589,120.884C38.023,120.836 38.287,119.75 38.389,118.58C38.461,117.764 38.227,117.146 37.321,117.14C33.343,117.128 29.365,117.074 25.387,117.212C23.947,117.26 23.923,118.706 23.887,119.756C23.839,121.1 24.991,120.926 25.843,120.944C27.439,120.992 29.029,120.962 30.625,120.962ZM59.761,113.15C59.761,113.144 59.761,113.132 59.761,113.126C61.453,113.126 63.151,113.144 64.843,113.12C66.271,113.102 66.625,112.058 66.823,110.924C67.009,109.88 66.427,109.406 65.491,109.4C61.903,109.382 58.315,109.364 54.733,109.448C53.545,109.478 53.059,110.396 53.005,111.512C52.939,112.91 53.893,113.132 54.979,113.144C56.575,113.162 58.165,113.15 59.761,113.15ZM59.113,117.092C59.113,117.11 59.113,117.134 59.113,117.152C57.217,117.152 55.321,117.11 53.431,117.17C52.369,117.206 51.829,117.884 51.817,118.946C51.811,119.768 52.237,120.35 53.041,120.362C56.731,120.398 60.415,120.416 64.105,120.326C65.209,120.296 65.497,119.246 65.533,118.334C65.587,116.966 64.465,117.128 63.607,117.104C62.107,117.062 60.607,117.092 59.113,117.092Z" fill="#000" stroke="" stroke-width="" stroke-miterlimit=""/>
		<path d="M173.916,112.76C180.876,114.158 181.032,114.44 179.904,121.544C178.914,127.754 177.906,133.97 177.096,140.204C176.778,142.628 175.662,143.654 173.31,143.942C165.792,144.86 165.498,144.608 166.626,137.102C167.55,130.982 168.468,124.856 169.458,118.748C169.746,116.96 169.698,115.892 167.454,116.852C166.002,117.47 165.336,116.798 165.534,115.322C165.954,112.154 166.422,108.998 166.902,105.836C167.028,105.014 167.526,104.366 168.186,103.874C173.01,100.226 175.53,95.012 177.852,89.672C179.094,86.81 185.094,84.926 187.68,86.66C189.006,87.548 188.166,88.682 187.848,89.618C185.004,97.94 180.948,105.554 174.618,111.806C174.414,112.016 174.264,112.28 173.916,112.76Z" fill="#000" stroke="" stroke-width="" stroke-miterlimit=""/>
		<path d="M56.47,96.434C54.814,95.756 53.494,96.134 52.228,95.978C51.172,95.846 49.546,96.452 49.636,94.478C49.708,92.822 50.932,92.384 52.372,92.372C54.766,92.354 57.166,92.348 59.56,92.342C61.06,92.336 62.56,92.288 64.054,92.36C65.29,92.42 66.934,91.85 67.564,93.302C68.104,94.55 67.174,95.816 66.472,96.896C63.46,101.546 58.744,103.514 53.602,104.21C47.23,105.074 40.858,104.75 34.702,102.476C32.656,101.72 31.708,100.832 32.116,98.33C33.376,90.62 33.244,90.596 25.414,90.596C22.018,90.596 18.628,90.62 15.232,90.566C14.206,90.548 12.79,90.788 12.754,89.156C12.73,87.782 13.534,86.9 14.998,86.906C22.882,86.936 30.784,86.684 38.644,87.14C44.296,87.47 45.988,90.584 44.812,96.68C43.876,101.504 43.894,101.57 48.754,100.496C51.55,99.878 54.358,99.128 56.47,96.434Z" fill="#000" stroke="" stroke-width="" stroke-miterlimit=""/>
		<path d="M63.617,86.426C68.105,86.54 72.611,86.012 77.081,86.852C82.445,87.86 84.467,90.422 83.267,95.72C81.095,105.308 83.195,103.646 73.607,103.784C68.435,103.856 68.435,103.796 69.431,98.786C71.135,90.158 71.075,90.086 62.165,90.086C58.967,90.086 55.763,90.116 52.565,90.062C51.563,90.044 50.141,90.416 50.189,88.64C50.225,87.188 51.125,86.456 52.523,86.444C56.213,86.408 59.915,86.426 63.617,86.426Z" fill="#000" stroke="" stroke-width="" stroke-miterlimit=""/>
		<path d="M1.43,99.962C6.734,100.004 11.996,100.25 17.042,98.318C17.972,97.964 18.872,97.538 19.646,96.404C17.996,95.63 16.316,96.188 14.75,95.972C13.88,95.852 12.788,95.954 12.818,94.652C12.842,93.596 13.28,92.522 14.48,92.504C19.562,92.42 24.644,92.39 29.726,92.48C31.166,92.504 31.028,93.716 30.734,94.748C29.876,97.706 27.86,99.872 25.28,101.228C17.162,105.5 9.2,104.156 1.43,99.962Z" fill="#000" stroke="" stroke-width="" stroke-miterlimit=""/>
	</svg>
