<?xml version="1.0" encoding="utf-8"?>
	<svg version="1.1" xmlns="http://www.w3.org/2000/svg" xmlns:xlink="http://www.w3.org/1999/xlink" x="0px" y="0px" width="240.0" height="240.0" xml:space="preserve">
		<path d="M133.299,74.35C133.299,98.292 152.708,117.701 176.65,117.701C200.591,117.701 220,98.292 220,74.35C220,50.409 200.591,31 176.65,31C152.708,31 133.299,50.409 133.299,74.35Z" fill="#000" stroke="#00000000" stroke-width="1.0" stroke-miterlimit=""/>
		<path d="M162.551,55.732C194.702,78.424 206.861,120.351 191.839,156.724L204.045,156.724C206.934,156.748 209.265,159.094 209.271,161.983C209.264,164.885 206.913,167.236 204.011,167.243L172.422,167.243C169.518,167.255 167.169,169.609 167.163,172.513C167.163,173.908 167.717,175.245 168.703,176.232C169.69,177.218 171.027,177.772 172.422,177.772L182.952,177.772C185.858,177.778 188.211,180.136 188.211,183.043C188.205,185.945 185.854,188.296 182.952,188.302L168.971,188.302C139.616,213.662 96.738,215.699 65.11,193.236C33.483,170.773 21.283,129.616 35.558,93.546L25.029,93.546C22.215,93.417 20,91.098 20,88.281C20,85.464 22.215,83.145 25.029,83.016L46.11,83.016C48.728,83.017 50.947,81.093 51.318,78.502C51.689,75.911 50.098,73.442 47.586,72.708L47.752,72.497L35.558,72.497C33.62,72.586 31.789,71.603 30.793,69.937C29.797,68.272 29.797,66.193 30.793,64.528C31.789,62.862 33.62,61.879 35.558,61.968L57.583,61.968C86.822,35.629 130.399,33.041 162.551,55.732ZM113.005,79.943C95.663,79.943 84.967,93.257 84.268,109.956C83.791,110.937 83.552,112.017 83.569,113.107L83.569,113.573C82.337,115.574 81.691,117.881 81.705,120.231L81.705,121.518C79.153,122.527 75.425,127.188 72.751,133.701C69.422,141.956 68.79,149.756 71.464,151.154C73.328,152.197 76.357,149.878 79.153,145.684C80.358,150.433 83.048,154.674 86.831,157.789C82.759,159.298 80.074,161.861 80.074,164.646C80.074,169.306 87.297,173.145 96.14,173.145C104.162,173.145 110.797,170.116 112.073,166.044L113.937,166.044C115.225,170.116 121.849,173.145 129.882,173.145C138.836,173.145 145.937,169.417 145.937,164.646C145.937,161.861 143.263,159.298 139.191,157.789C142.974,154.674 145.664,150.433 146.869,145.684C149.665,149.878 152.572,152.197 154.547,151.154C157.343,149.756 156.766,141.845 153.271,133.701C150.597,127.298 146.991,122.527 144.195,121.495C144.195,121.14 144.306,120.674 144.306,120.208C144.318,117.86 143.677,115.555 142.453,113.551L142.453,113.085C142.47,111.994 142.231,110.915 141.754,109.934C141.055,93.257 130.348,79.943 113.005,79.943Z" fill="#000" stroke="#00000000" stroke-width="1.0" stroke-miterlimit=""/>
	</svg>
