<?xml version="1.0" encoding="utf-8"?>
	<svg version="1.1" xmlns="http://www.w3.org/2000/svg" xmlns:xlink="http://www.w3.org/1999/xlink" x="0px" y="0px" width="240.0" height="240.0" xml:space="preserve">
		<path d="M138.538,128.349C137.226,128.876 135.862,129.425 134.425,130.02C150.441,138.14 159.222,151.957 167.947,165.689C169.146,167.576 170.344,169.461 171.559,171.329C179.477,183.496 187.204,195.781 194.931,208.066C196.406,210.411 197.881,212.757 199.357,215.101C199.538,215.387 199.772,215.675 200.01,215.969C200.782,216.921 201.604,217.933 200.85,219.158C200.237,220.152 199.045,220.039 197.91,219.931C197.563,219.899 197.221,219.866 196.903,219.866C192.385,219.881 187.867,219.875 183.349,219.868C175.217,219.857 167.086,219.845 158.959,219.959C155.265,220.01 153.055,218.728 151.174,215.548C144.453,204.208 137.637,192.927 130.821,181.645C127.682,176.449 124.542,171.252 121.411,166.049C118.215,160.745 114.689,155.676 110.709,150.928C103.16,141.937 92.997,141.608 82.514,142.544C80.355,142.738 80.093,144.644 80.068,146.39C80.018,150.894 80.018,155.389 80.018,159.884C80.015,166.478 80.016,173.071 80.017,179.664C80.02,191.2 80.022,202.736 80.001,214.274C79.992,219.444 79.562,219.866 74.493,219.883C64.381,219.925 54.261,219.908 44.14,219.891C38.211,219.883 38.008,219.681 38.008,213.667C38,155.433 38,97.207 38,38.981V38.698C38,37.024 38.007,35.35 38.014,33.676C38.028,30.569 38.041,27.463 38.008,24.36C37.975,21.543 39.206,20.219 42.057,20.261C51.678,20.417 61.304,20.292 70.93,20.167C88.991,19.932 107.048,19.698 125.055,21.316C140.32,22.69 154.995,26.595 166.246,38.327C169.501,41.717 172.301,45.403 174.064,49.729C184.792,76.11 179.2,110.057 145.81,125.297C143.486,126.359 141.113,127.313 138.538,128.349ZM80.043,73.998C80.041,76.285 80.04,78.572 80.04,80.859C80.04,82.928 80.04,84.998 80.039,87.067C80.037,93.28 80.036,99.494 80.049,105.713C80.049,107.932 80.259,110.242 83.161,110.276C85.008,110.295 86.859,110.344 88.71,110.392C97.522,110.623 106.345,110.855 114.897,107.906C127.599,103.521 135.982,90.288 134.7,76.853C133.334,62.498 125.566,54.967 110.039,52.791C104.118,51.962 98.184,52.044 92.25,52.127C89.487,52.165 86.724,52.203 83.962,52.15C80.698,52.091 80.023,54.123 80.032,56.847C80.05,62.564 80.046,68.281 80.043,73.998Z" fill="#000" stroke="" stroke-width="" stroke-miterlimit=""/>
	</svg>
