<?xml version="1.0" encoding="utf-8"?>
	<svg version="1.1" xmlns="http://www.w3.org/2000/svg" xmlns:xlink="http://www.w3.org/1999/xlink" x="0px" y="0px" width="240.0" height="240.0" xml:space="preserve">
		<path d="M100,140.001L99.972,141.433C99.969,141.672 99.966,141.91 99.966,142.149C99.965,174.766 99.965,207.383 99.966,240L0,240C0.007,207.577 0.013,175.154 0.023,142.731L0.033,141.821L0.033,141.821L0.076,140L0.076,140C33.385,140 66.692,140 100,140.001ZM46.672,168.86C45.282,168.744 44.734,169.098 44.776,170.635C44.887,174.665 44.736,178.703 44.851,182.733C44.896,184.329 44.337,184.698 42.857,184.667C38.763,184.582 34.665,184.672 30.57,184.616C29.397,184.6 28.924,184.948 28.994,186.165C29.079,187.656 29.104,189.163 28.989,190.65C28.872,192.152 29.313,192.699 30.916,192.653C34.943,192.537 38.978,192.678 43.007,192.581C44.496,192.545 44.924,193.03 44.842,194.47C44.727,196.479 44.813,198.501 44.813,200.518C44.813,201.103 44.802,201.689 44.815,202.274C44.86,204.218 44.161,206.883 45.156,207.922C45.91,208.71 47.194,208.63 48.545,208.49L49.024,208.439C49.744,208.364 50.467,208.298 51.124,208.362C52.458,208.492 52.754,207.919 52.734,206.689C52.669,202.656 52.798,198.619 52.668,194.59C52.613,192.895 53.188,192.503 54.761,192.581C57.291,192.706 59.831,192.632 62.366,192.608C62.833,192.604 63.336,192.639 63.849,192.682L64.619,192.747C65.987,192.858 67.307,192.906 68.024,192.275C69.318,191.138 68.269,188.472 68.471,186.485C68.615,185.064 68.181,184.556 66.665,184.6C62.832,184.712 58.991,184.544 55.16,184.678C53.294,184.743 52.54,184.382 52.652,182.278C52.856,178.451 52.626,174.602 52.75,170.768C52.802,169.159 52.247,168.738 50.764,168.86C49.408,168.973 48.028,168.973 46.672,168.86Z" fill="#000" stroke="#00000000" stroke-width="1.0" stroke-miterlimit=""/>
		<path d="M192.457,205.708C198.896,205.708 205.335,205.678 211.774,205.733C213.086,205.744 213.687,205.426 213.587,204.007C213.483,202.52 213.51,201.017 213.581,199.525C213.638,198.324 213.319,197.799 211.968,197.803C199.024,197.848 186.081,197.842 173.137,197.81C171.989,197.808 171.473,198.096 171.542,199.331C171.628,200.886 171.647,202.456 171.537,204.007C171.437,205.423 172.02,205.745 173.334,205.733C179.708,205.677 186.082,205.708 192.457,205.708M192.715,179.465C187.575,179.465 182.435,179.428 177.297,179.486C175.441,179.507 173.045,178.663 171.876,179.907C170.808,181.044 171.728,183.394 171.54,185.193C171.365,186.866 171.88,187.403 173.656,187.389C185.04,187.303 196.425,187.365 207.809,187.326C209.667,187.32 212.102,188.159 213.23,186.905C214.328,185.686 213.42,183.291 213.582,181.423C213.711,179.928 213.223,179.408 211.645,179.43C205.336,179.518 199.025,179.466 192.715,179.465M140,239.962C140,207.397 140,174.832 140.001,142.267C140.001,141.552 140.023,140.838 140.035,140.123C140.035,140.123 140.024,140.133 140.024,140.133C153.875,140.118 167.726,140.109 181.576,140.085C185.931,140.077 190.286,140.029 194.641,140C195.547,140.031 196.452,140.09 197.358,140.09C211.559,140.097 225.761,140.096 239.963,140.097C239.963,172.865 239.952,205.634 240,238.402C240.002,239.738 239.738,240.002 238.401,240C205.601,239.952 172.801,239.962 140,239.962" fill="#000" stroke="#00000000" stroke-width="1.0" stroke-miterlimit=""/>
		<path d="M1.844,0C34.299,0.056 66.753,0.042 99.207,0.044C99.467,0.044 99.726,0.071 99.986,0.085C99.991,0.324 99.995,0.563 100,0.801C99.981,1.385 99.945,1.969 99.945,2.553L99.956,51.276L99.956,51.276L99.968,99.99L50.026,99.99C33.375,99.99 16.724,99.989 0.073,99.989C0.056,93.746 0.026,87.503 0.025,81.26C0.019,54.854 0.031,28.448 0,2.041C-0.002,0.66 0.154,-0.003 1.844,0ZM68.007,46.172L67.832,46.172C61.924,46.257 56.015,46.206 50.107,46.206C44.133,46.206 38.16,46.239 32.187,46.181C30.845,46.168 30.307,46.573 30.4,47.945C30.493,49.303 30.517,50.68 30.395,52.032C30.248,53.652 30.829,54.124 32.457,54.113C42.975,54.045 53.494,54.099 64.012,54.059C64.493,54.057 65.011,54.112 65.536,54.172L65.986,54.224C67.337,54.377 68.665,54.471 69.425,53.634C70.092,52.899 70.026,51.746 69.905,50.539L69.855,50.054C69.788,49.406 69.731,48.756 69.786,48.159C69.928,46.636 69.386,46.15 67.832,46.172Z" fill="#000" stroke="#00000000" stroke-width="1.0" stroke-miterlimit=""/>
		<path d="M240,0L240,100L140,100L140,0L240,0ZM179.069,33.608C178.303,32.822 177.854,32.778 177.092,33.594C175.816,34.963 174.413,36.214 173.064,37.515C172.842,38.062 173.245,38.331 173.556,38.652C176.79,42 179.928,45.449 183.297,48.653C184.654,49.945 184.392,50.743 183.319,51.811C181.205,53.916 179.07,56.002 176.999,58.148C176.617,58.544 176.141,58.929 175.658,59.313L175.297,59.6C174.216,60.464 173.215,61.333 173.291,62.32C173.408,63.816 175.757,65.097 177.026,66.559C177.824,67.479 178.305,67.414 179.139,66.554C182.434,63.153 185.848,59.868 189.143,56.469C190.01,55.574 190.488,55.515 191.383,56.448C194.791,60.004 198.316,63.448 201.723,67.004C202.147,67.446 202.453,67.366 202.872,67.36C204.124,66.056 205.317,64.688 206.648,63.469C207.568,62.625 207.617,62.109 206.673,61.201C203.36,58.01 200.202,54.656 196.855,51.501C195.625,50.342 195.798,49.747 196.918,48.678C200.245,45.502 203.421,42.167 206.727,38.968C207.594,38.129 207.648,37.632 206.726,36.842C205.647,35.916 204.624,34.903 203.705,33.819C202.843,32.804 202.276,32.754 201.299,33.772C198.069,37.138 194.681,40.352 191.453,43.719C190.481,44.733 189.986,44.641 189.062,43.684C185.779,40.279 182.371,36.995 179.069,33.608Z" fill="#000" stroke="#00000000" stroke-width="1.0" stroke-miterlimit=""/>
	</svg>
