<?xml version="1.0" encoding="utf-8"?>
	<svg version="1.1" xmlns="http://www.w3.org/2000/svg" xmlns:xlink="http://www.w3.org/1999/xlink" x="0px" y="0px" width="240.0" height="240.0" xml:space="preserve">
		<path d="M190.858,63.461C192.074,63.461 192.971,63.461 193.864,63.461C207.402,63.426 220.941,63.316 234.475,63.386C241.094,63.421 239.873,62.882 239.893,68.834C239.953,88.275 239.913,107.71 239.913,127.151C239.913,143.431 239.744,159.712 239.998,175.987C240.102,182.671 236.568,186.57 229.515,186.35C219.47,186.041 209.411,186.231 199.362,186.3C197.084,186.315 195.2,185.697 193.41,184.286C188.844,180.687 184.178,177.223 179.572,173.674C178.919,173.17 178.401,172.502 177.484,171.565C178.575,171.336 179.104,171.132 179.627,171.127C185.773,171.107 191.92,171.132 198.071,171.097C199.482,171.087 200.304,171.535 200.907,172.941C201.231,173.694 202.433,174.526 203.25,174.541C209.895,174.671 216.539,174.661 223.184,174.586C225.686,174.556 226.968,173.19 226.983,170.638C227.012,165.653 226.908,160.674 226.913,155.689C226.938,129.938 226.978,104.186 227.012,78.435C227.012,77.448 227.012,76.461 227.012,75.289C223.124,75.289 219.436,75.289 215.388,75.289C215.388,76.257 215.388,77.219 215.388,78.176C215.388,104.176 215.353,130.182 215.443,156.182C215.453,158.715 214.74,159.612 212.208,159.402C209.815,159.203 207.387,159.268 204.985,159.388C202.996,159.487 202.418,158.685 202.433,156.761C202.507,146.876 202.467,136.991 202.467,127.106C202.467,110.826 202.467,94.541 202.467,78.26C202.467,77.353 202.467,76.441 202.467,75.319C198.659,75.319 194.98,75.319 190.997,75.319C190.953,76.301 190.868,77.338 190.863,78.375C190.853,104.211 190.858,130.047 190.858,155.883C190.858,159.358 190.853,159.358 187.453,159.363C185.046,159.368 182.633,159.288 180.225,159.383C178.486,159.452 177.892,158.774 177.927,157.05C178.012,152.733 177.952,148.411 177.952,144.089C177.952,115.183 177.952,86.276 177.952,57.364C177.952,54.069 177.957,54.069 181.232,54.064C183.475,54.064 185.729,54.209 187.957,54.024C190.359,53.825 191.042,54.847 190.888,57.06C190.748,59.049 190.858,61.043 190.858,63.461Z" fill="#000" stroke="" stroke-width="" stroke-miterlimit=""/>
		<path d="M75.117,54.074C86.906,54.074 98.699,54.129 110.488,54.024C112.836,54.005 113.679,54.618 113.664,57.075C113.574,74.597 113.579,92.113 113.664,109.635C113.674,111.967 112.911,112.615 110.653,112.61C91.566,112.541 72.475,112.571 53.383,112.571C48.742,112.571 44.091,112.466 39.455,112.615C37.132,112.69 36.29,112.052 36.305,109.57C36.405,92.053 36.39,74.532 36.315,57.015C36.305,54.777 36.883,54 39.246,54.019C51.204,54.134 63.163,54.074 75.117,54.074ZM100.638,89.341C83.441,89.341 66.473,89.341 49.48,89.341C49.48,93.255 49.48,97.008 49.48,100.712C66.652,100.712 83.605,100.712 100.638,100.712C100.638,96.879 100.638,93.245 100.638,89.341ZM49.475,65.923C49.475,69.881 49.475,73.625 49.475,77.308C66.642,77.308 83.601,77.308 100.554,77.308C100.554,73.43 100.554,69.736 100.554,65.923C83.496,65.923 66.598,65.923 49.475,65.923Z" fill="#000" stroke="" stroke-width="" stroke-miterlimit=""/>
		<path d="M141.633,75.299C141.633,76.436 141.633,77.418 141.633,78.405C141.633,96.51 141.633,114.619 141.633,132.724C141.633,135.959 141.628,135.959 138.288,135.969C135.961,135.974 133.633,135.884 131.315,135.994C129.386,136.089 128.658,135.381 128.693,133.412C128.792,128.347 128.728,123.278 128.728,118.213C128.728,99.859 128.773,81.501 128.678,63.147C128.663,60.639 129.361,59.662 131.913,59.911C133.887,60.106 135.906,60.071 137.885,59.921C140.367,59.732 142.256,60.026 141.668,63.326C145.581,63.326 149.275,63.326 153.318,63.326C153.318,60.983 153.377,58.765 153.298,56.552C153.238,54.797 153.796,53.95 155.72,54.039C158.457,54.164 161.203,54.154 163.94,54.044C165.735,53.975 166.278,54.757 166.223,56.412C166.148,58.635 166.203,60.868 166.203,62.937C166.567,63.186 166.692,63.346 166.826,63.356C170.58,63.675 170.58,63.675 170.585,67.498C170.585,69.078 170.475,70.664 170.615,72.229C170.799,74.317 170.191,75.449 167.888,75.115C167.489,75.055 167.071,75.165 166.437,75.22C166.437,99.281 166.437,123.308 166.437,147.344C166.557,147.429 166.682,147.594 166.816,147.604C170.585,147.938 170.585,147.933 170.59,151.731C170.59,153.311 170.49,154.896 170.62,156.461C170.789,158.515 170.246,159.707 167.913,159.378C167.454,159.313 166.966,159.472 166.213,159.562C166.213,161.142 166.213,162.613 166.213,164.083C166.213,170.479 166.108,176.874 166.263,183.27C166.323,185.742 165.46,186.475 163.113,186.305C160.715,186.131 158.292,186.166 155.89,186.3C153.911,186.41 153.278,185.627 153.298,183.713C153.367,176.57 153.328,169.427 153.323,162.284C153.323,161.396 153.248,160.509 153.198,159.358C148.517,159.358 144.051,159.358 139.585,159.358C136.843,159.358 134.101,159.278 131.365,159.383C129.475,159.457 128.598,158.864 128.708,156.845C128.832,154.612 128.817,152.359 128.713,150.121C128.628,148.267 129.371,147.653 131.195,147.678C137.591,147.753 143.986,147.708 150.382,147.708C151.269,147.708 152.161,147.708 153.188,147.708C153.188,123.427 153.188,99.456 153.188,75.295C149.395,75.299 145.706,75.299 141.633,75.299Z" fill="#000" stroke="" stroke-width="" stroke-miterlimit=""/>
		<path d="M109.322,136.074C109.322,139.972 109.322,143.676 109.322,147.339C109.526,147.474 109.656,147.628 109.791,147.638C113.619,147.913 113.619,147.913 113.619,151.751C113.619,152.833 113.619,153.909 113.619,154.991C113.619,159.198 113.619,159.198 109.197,159.517C109.197,160.594 109.197,161.715 109.197,162.832C109.197,167.732 109.237,172.637 109.187,177.537C109.133,182.911 105.868,186.246 100.464,186.265C85.759,186.32 71.059,186.315 56.354,186.236C55.028,186.231 53.468,185.827 52.421,185.054C47.277,181.261 42.267,177.288 37.222,173.355C36.863,173.076 36.644,172.622 36.076,171.879C37.023,171.635 37.661,171.336 38.309,171.331C44.206,171.251 50.103,171.147 56,171.246C56.867,171.261 57.725,172.303 58.577,172.876C59.449,173.46 60.312,174.551 61.184,174.561C71.567,174.681 81.951,174.666 92.334,174.611C94.757,174.601 96.192,173.255 96.247,171.007C96.337,167.273 96.272,163.54 96.272,159.378C95.205,159.378 94.258,159.378 93.306,159.378C75.446,159.378 57.585,159.378 39.725,159.378C36.365,159.378 36.36,159.373 36.36,155.913C36.36,154.253 36.504,152.573 36.33,150.933C36.066,148.456 36.893,147.653 39.485,147.668C57.346,147.778 75.206,147.728 93.067,147.728C94.044,147.728 95.021,147.728 96.142,147.728C96.142,143.785 96.142,140.082 96.142,135.979C95.19,135.979 94.233,135.979 93.276,135.979C75.415,135.979 57.555,135.979 39.695,135.979C36.37,135.979 36.37,135.969 36.365,132.719C36.365,130.64 36.43,128.562 36.35,126.488C36.285,124.878 36.918,124.265 38.533,124.305C41.853,124.38 45.178,124.325 48.503,124.325C69.105,124.325 89.707,124.325 110.309,124.325C113.619,124.325 113.619,124.33 113.629,127.62C113.634,129.449 113.524,131.283 113.659,133.098C113.813,135.211 113.11,136.278 110.862,135.994C110.454,135.934 110.035,136.024 109.322,136.074Z" fill="#000" stroke="" stroke-width="" stroke-miterlimit=""/>
		<path d="M11.71,89.182C10.055,89.182 8.739,89.182 7.423,89.182C0.056,89.177 0.056,89.177 0.056,81.705C0.056,81.206 0.106,80.703 0.046,80.209C-0.198,78.211 0.514,77.408 2.663,77.448C9.138,77.567 15.623,77.558 22.098,77.453C24.067,77.423 24.82,78.146 24.775,80.03C24.691,83.764 24.616,87.502 24.611,91.236C24.596,121.723 24.606,152.209 24.601,182.696C24.601,186.27 24.596,186.27 21.091,186.27C18.764,186.27 16.436,186.181 14.113,186.3C12.214,186.395 11.64,185.568 11.68,183.798C11.755,180.309 11.7,176.819 11.7,173.33C11.7,146.417 11.7,119.499 11.7,92.587C11.71,91.605 11.71,90.623 11.71,89.182Z" fill="#000" stroke="" stroke-width="" stroke-miterlimit=""/>
		<path d="M12.413,54.074C15.643,54.074 18.873,54.144 22.103,54.044C23.863,53.989 24.72,54.488 24.636,56.402C24.526,58.88 24.571,61.372 24.621,63.854C24.646,65.23 24.028,65.799 22.692,65.799C15.818,65.784 8.944,65.784 2.07,65.803C0.599,65.808 0.001,65.175 0.046,63.69C0.121,61.208 0.126,58.72 0.046,56.238C-0.004,54.628 0.629,54.019 2.234,54.054C5.619,54.124 9.013,54.074 12.413,54.074Z" fill="#000" stroke="" stroke-width="" stroke-miterlimit=""/>
	</svg>
