<?xml version="1.0" encoding="utf-8"?>
	<svg version="1.1" xmlns="http://www.w3.org/2000/svg" xmlns:xlink="http://www.w3.org/1999/xlink" x="0px" y="0px" width="240.0" height="240.0" xml:space="preserve">
		<path d="M111.312,175.386C113.088,179.475 114.009,183.809 114.903,188.145C115.653,191.777 117.366,193.554 120.238,193.55C123.12,193.546 124.778,191.706 125.466,188.102C126.297,183.758 127.22,179.424 129.044,175.352C132.433,180.289 135.13,185.638 138.154,190.791C144.565,201.716 150.804,212.743 157.106,223.734C157.332,224.127 157.467,224.573 157.645,224.994C156.503,224.79 155.521,224.077 154.3,224.082C142.881,224.128 131.463,224.145 120.044,224.171C109.725,224.142 99.405,224.122 89.085,224.073C87.141,224.064 85.213,224.103 83.319,224.59C83.701,221.443 85.917,219.19 87.374,216.604C94.074,204.717 100.962,192.936 107.801,181.127C108.925,179.186 110.139,177.298 111.312,175.386" fill="#000" stroke="#00000000" stroke-width="1.0" stroke-miterlimit=""/>
		<path d="M184.413,197.407C192.823,197.407 201.233,197.419 209.644,197.392C210.844,197.389 211.921,197.611 212.996,198.167C219.767,201.673 226.541,205.173 233.361,208.581C234.853,209.327 235.059,210.124 234.312,211.504C229.585,220.234 223.152,227.318 214.517,232.342C208.529,235.826 202.049,237.787 195.262,238.913C194.034,239.116 193.368,238.529 192.671,237.759C186.73,231.2 180.781,224.648 174.843,218.087C169.061,211.699 163.287,205.303 157.516,198.905C157.223,198.581 156.693,198.264 156.987,197.748C157.315,197.168 157.971,197.418 158.481,197.417C167.125,197.402 175.769,197.407 184.413,197.407" fill="#000" stroke="#00000000" stroke-width="1.0" stroke-miterlimit=""/>
		<path d="M56.383,197.399C64.796,197.399 73.208,197.39 81.62,197.415C82.265,197.417 83.184,197.027 83.495,197.856C83.736,198.497 82.933,198.878 82.533,199.322C78.171,204.164 73.784,208.982 69.433,213.834C62.962,221.052 56.514,228.292 50.056,235.522C50.005,235.58 49.938,235.628 49.897,235.692C47.231,240.007 43.398,238.715 39.671,237.789C32.725,236.065 26.361,233.077 20.668,228.74C14.397,223.964 9.615,217.928 5.953,210.974C5.468,210.054 5.81,209.503 6.62,209.089C14.105,205.269 21.582,201.434 29.094,197.667C29.738,197.344 30.612,197.41 31.379,197.409C39.713,197.392 48.048,197.399 56.383,197.399" fill="#000" stroke="#00000000" stroke-width="1.0" stroke-miterlimit=""/>
		<path d="M133.501,172.143C143.149,172.143 152.489,172.15 161.828,172.132C162.821,172.13 163.626,172.56 164.454,172.988C172.736,177.279 181.022,181.562 189.298,185.868C192.798,187.689 196.274,189.557 199.741,191.787L197.589,191.787C183.109,191.787 168.628,191.766 154.147,191.81C152.139,191.816 150.66,191.516 149.165,189.762C144.287,184.038 139.082,178.595 134.009,173.038C133.865,172.88 133.79,172.659 133.501,172.143" fill="#000" stroke="#00000000" stroke-width="1.0" stroke-miterlimit=""/>
		<path d="M107.171,172.144C104.244,175.48 101.733,178.513 99.037,181.37C96.108,184.475 93.197,187.591 90.471,190.875C89.858,191.613 89.112,191.797 88.202,191.796C72.553,191.783 56.905,191.786 40.648,191.786C42.457,190.708 43.765,189.833 45.154,189.118C52.345,185.414 59.56,181.757 66.756,178.065C68.206,177.321 69.644,176.544 71.032,175.691C75.378,173.021 79.95,171.777 85.173,172.05C92.314,172.425 99.489,172.144 107.171,172.144" fill="#000" stroke="#00000000" stroke-width="1.0" stroke-miterlimit=""/>
		<path d="M83.319,224.59C85.213,224.103 87.141,224.064 89.085,224.073C99.405,224.122 109.725,224.142 120.044,224.171C120.056,229.109 120.067,234.047 120.079,238.985C108.565,239.015 97.051,239.1 85.538,239.038C82.608,239.023 80.3,236.682 79.878,233.757C79.389,230.367 79.702,227.206 82.758,224.96C83.038,224.943 83.276,224.87 83.325,224.541L83.319,224.59Z" fill="#000" stroke="#00000000" stroke-width="1.0" stroke-miterlimit=""/>
		<path d="M120.079,238.985C120.067,234.047 120.056,229.109 120.044,224.171C131.463,224.146 142.881,224.128 154.3,224.082C155.522,224.077 156.504,224.791 157.645,224.994C159.019,226.387 160.297,227.79 160.527,229.906C161.187,235.968 158.41,239.335 152.306,239.167C141.57,238.872 130.821,239.021 120.079,238.985" fill="#000" stroke="#00000000" stroke-width="1.0" stroke-miterlimit=""/>
		<path d="M178.143,78.961C180.805,98.548 174.98,115.55 161.601,130.048C155.475,136.687 149.269,143.266 143.433,150.155C137.104,157.627 132.069,165.941 129.044,175.352C127.22,179.425 126.297,183.758 125.466,188.102C124.778,191.706 123.12,193.546 120.238,193.55C117.365,193.554 115.653,191.777 114.903,188.145C114.009,183.808 113.088,179.475 111.312,175.386C108.084,165.54 102.677,156.945 96.047,149.087C89.266,141.052 81.697,133.721 75.001,125.599C49.545,94.72 60.785,43.75 104.013,31.165C138.094,21.243 173.389,43.986 178.143,78.961ZM109.335,63.33C107.796,63.368 107.546,63.952 107.584,65.284C107.666,68.239 107.448,71.21 107.66,74.152C107.831,76.511 106.932,77.025 104.755,76.963C101.898,76.881 98.994,76.528 96.166,77.346C86.485,80.144 81.675,90.539 85.369,100.671C87.785,107.297 93.474,111.263 100.561,111.263C104.841,111.264 109.123,111.195 113.4,111.299C115.017,111.338 115.525,110.889 115.505,109.224C115.415,101.909 115.467,94.593 115.467,87.278L115.466,68.507C115.454,63.124 115.193,63.185 109.335,63.33ZM145.401,79.092C145.506,86.333 145.389,93.575 145.483,100.816C145.507,102.647 145.17,103.498 143.104,103.343C140.626,103.157 138.124,103.322 135.633,103.294C132.672,103.261 130.536,101.112 130.526,98.145C130.507,92.928 130.521,87.711 130.521,82.494L130.521,81.722C130.509,76.743 130.256,76.803 124.871,76.74C123.161,76.72 122.595,77.118 122.622,78.922C122.728,86.084 122.679,93.248 122.662,100.412C122.649,106.136 127.488,111.177 133.248,111.248C139.32,111.323 145.395,111.221 151.467,111.294C152.982,111.312 153.475,110.894 153.444,109.323C153.343,104.264 153.407,99.201 153.406,94.14L153.406,81.693C153.394,76.746 153.139,76.817 147.724,76.735C145.848,76.705 145.375,77.261 145.401,79.092ZM102.107,84.716C107.346,84.81 107.597,84.74 107.609,89.577L107.609,94.07C107.609,96.478 107.5,98.894 107.647,101.294C107.752,103.007 107.098,103.481 105.52,103.32C104.444,103.21 103.347,103.299 102.259,103.299C97.19,103.3 93.845,99.644 93.946,94.541C93.985,92.544 94.176,90.666 95.164,88.95C96.692,86.296 98.805,84.656 102.107,84.716Z" fill="#000" stroke="#00000000" stroke-width="1.0" stroke-miterlimit=""/>
	</svg>
