<?xml version="1.0" encoding="utf-8"?>
	<svg version="1.1" xmlns="http://www.w3.org/2000/svg" xmlns:xlink="http://www.w3.org/1999/xlink" x="0px" y="0px" width="240.0" height="240.0" xml:space="preserve">
		<path d="M92.846,187.791C108.785,187.788 121.333,175.306 121.412,159.374C121.489,143.607 108.746,130.855 92.914,130.856C77.162,130.856 64.253,143.67 64.243,159.314C64.233,174.975 77.108,187.794 92.846,187.791M190.289,145.552C192.632,137.591 193.96,129.499 193.578,121.203C192.895,106.375 187.304,94.452 173.583,87.259C167.825,84.242 162.2,80.971 156.492,77.857C153.609,76.285 153.504,76.35 153.502,79.649C153.49,102.156 153.552,124.664 153.471,147.171C153.441,155.615 154.015,164.073 152.235,172.474C147.092,196.743 125.588,216.6 101.027,219.527C67.211,223.556 38.002,201.482 32.686,167.879C27.547,135.397 51.929,103.2 84.591,99.142C96.613,97.647 108.029,99.352 118.95,104.538C122.199,106.08 122.353,106.019 122.324,102.39C122.109,76.276 121.869,50.162 121.637,24.048C121.633,23.532 121.663,23.012 121.617,22.5C121.387,19.897 122.267,19.416 124.6,20.643C137.846,27.61 151.067,34.631 164.434,41.362C174.02,46.19 182.871,51.987 190.323,59.717C201.988,71.817 208.853,86 207.876,103.187C207.098,116.851 201.738,128.973 194.544,140.387C193.399,142.203 192.19,143.98 191.011,145.775C190.77,145.701 190.53,145.626 190.289,145.552" fill="#000" stroke="#00000000" stroke-width="1.0" stroke-miterlimit=""/>
	</svg>
