<?xml version="1.0" encoding="utf-8"?>
	<svg version="1.1" xmlns="http://www.w3.org/2000/svg" xmlns:xlink="http://www.w3.org/1999/xlink" x="0px" y="0px" width="240.0" height="240.0" xml:space="preserve">
		<path d="M153.718,100.478L153.709,100.478C153.709,92.507 153.692,84.535 153.722,76.563C153.729,74.675 153.336,73.359 151.03,73.376C143.926,73.43 136.82,73.406 129.715,73.393C128.107,73.39 127.316,74.101 127.336,75.745C127.365,78.171 127.393,80.599 127.321,83.023C127.264,84.94 128.139,85.651 129.991,85.61C132.935,85.544 135.885,85.671 138.828,85.58C140.795,85.519 141.722,86.289 141.72,88.276C141.704,100.493 141.709,112.71 141.713,124.926C141.714,126.744 140.905,127.599 139.016,127.554C136.072,127.483 133.123,127.625 130.18,127.524C128.019,127.449 127.217,128.364 127.313,130.461C127.416,132.71 127.38,134.967 127.329,137.219C127.291,138.958 128.027,139.747 129.799,139.744C141.756,139.719 153.713,139.719 165.67,139.744C167.453,139.747 168.162,138.933 168.125,137.203C168.074,134.865 168.061,132.524 168.131,130.186C168.187,128.317 167.418,127.489 165.519,127.537C162.836,127.604 160.148,127.558 157.462,127.542C153.984,127.521 153.739,127.316 153.727,123.872C153.699,116.074 153.718,108.276 153.718,100.478M20,169.014L20,28.54C22.394,22.462 26.809,19.987 33.368,20C91.286,20.112 149.204,20.062 207.122,20.068C215.489,20.069 219.932,24.534 219.933,32.937C219.943,76.983 219.923,121.028 219.994,165.073C219.998,167.703 219.26,169.604 217.38,171.471C201.135,187.596 184.98,203.811 168.798,220L168.278,220C168.23,218.703 168.141,217.407 168.14,216.11C168.132,202.166 168.138,188.223 168.139,174.279C168.139,169.042 168.138,169.042 162.901,169.041C115.267,169.031 67.634,169.022 20,169.014" fill="#000" stroke="#00000000" stroke-width="1.0" stroke-miterlimit=""/>
	</svg>
