<?xml version="1.0" encoding="utf-8"?>
	<svg version="1.1" xmlns="http://www.w3.org/2000/svg" xmlns:xlink="http://www.w3.org/1999/xlink" x="0px" y="0px" width="240.0" height="240.0" xml:space="preserve">
		<path d="M230,96.625L182.749,96.625L182.749,112.124L214.502,112.124L214.502,135.749L182.749,135.749L182.749,167.502L159.124,167.502L159.124,73L230,73L230,96.625L230,96.625ZM72.749,73C77.18,73 80.871,74.475 83.822,77.426C86.772,80.376 88.247,84.067 88.247,88.498L88.247,96.625L33.61,96.625L33.61,143.876L64.622,143.876L64.622,120.251L88.247,120.251L88.247,152.003C88.247,156.435 86.772,160.125 83.822,163.076C80.871,166.026 77.18,167.502 72.749,167.502L25.498,167.502C21.067,167.502 17.376,166.026 14.426,163.076C11.475,160.125 10,156.435 10,152.003L10,88.514C10,84.083 11.475,80.392 14.426,77.442C17.376,74.491 21.067,73.016 25.498,73.016L72.749,73.016L72.749,73ZM111.873,73L135.498,73L135.498,167.502L111.873,167.502L111.873,73L111.873,73Z" fill="#000" stroke="#00000000" stroke-width="1.0" stroke-miterlimit=""/>
	</svg>
