<?xml version="1.0" encoding="utf-8"?>
	<svg version="1.1" xmlns="http://www.w3.org/2000/svg" xmlns:xlink="http://www.w3.org/1999/xlink" x="0px" y="0px" width="240.0" height="240.0" xml:space="preserve">
		<path d="M120,20C175,20 220,65 220,120C220,175 175,220 120,220C65,220 20,175 20,120C20,65 65,20 120,20ZM168.182,86.364C171.818,77.273 162.727,68.182 154.091,72.273L154.091,72.273L100.455,94.545C97.727,95.909 95.455,97.727 94.545,100.455L94.545,100.455L72.273,154.091C68.182,162.727 77.273,171.818 86.364,168.182L86.364,168.182L140,145.909C142.727,144.545 145,142.727 145.909,140L145.909,140ZM120,106.364C127.727,106.364 133.636,112.273 133.636,120C133.636,127.727 127.727,133.636 120,133.636C112.273,133.636 106.364,127.727 106.364,120C106.364,112.273 112.273,106.364 120,106.364Z" fill="#000" stroke="#00000000" stroke-width="1.0" stroke-miterlimit=""/>
	</svg>
