<?xml version="1.0" encoding="utf-8"?>
	<svg version="1.1" xmlns="http://www.w3.org/2000/svg" xmlns:xlink="http://www.w3.org/1999/xlink" x="0px" y="0px" width="240.0" height="240.0" xml:space="preserve">
		<path d="M119.971,20C175.09,19.992 220.021,64.72 220,119.574C219.978,175.634 175.391,220.069 119.231,219.999C64.628,219.932 20.008,174.981 20,120.03C19.991,64.739 64.697,20.008 119.971,20ZM177.686,81.644C177.842,81.27 177.998,80.897 178.154,80.523C177.122,79.791 176.097,79.048 175.055,78.328C164.254,70.86 152.536,65.283 140.066,61.211C121.783,55.241 103.089,54.201 84.115,56.418C81.317,56.744 79.251,58.063 79.254,61.197C79.257,65.683 79.167,70.198 79.69,74.632C79.825,75.779 82.023,77.427 83.394,77.555C89.217,78.095 95.085,78.166 100.938,78.382C108.768,78.67 113.722,83.578 113.566,91.293C113.309,104.07 112.845,116.844 112.498,129.62C112.075,145.191 111.63,160.762 111.297,176.335C111.121,184.602 114.342,191.104 121.91,194.976C125.279,196.7 127.598,195.236 127.849,191.432C127.919,190.371 127.867,189.302 127.866,188.237C127.83,156.015 127.774,123.794 127.768,91.573C127.766,82.527 133.435,77.601 142.405,78.623C146.106,79.045 149.818,79.372 153.53,79.683C161.58,80.356 169.634,80.992 177.686,81.644L177.686,81.644Z" fill="#000" stroke="#00000000" stroke-width="1.0" stroke-miterlimit=""/>
	</svg>
