<?xml version="1.0" encoding="utf-8"?>
	<svg version="1.1" xmlns="http://www.w3.org/2000/svg" xmlns:xlink="http://www.w3.org/1999/xlink" x="0px" y="0px" width="240.0" height="240.0" xml:space="preserve">
		<path d="M111.054,219.539C87.536,217.46 65.097,206.847 49.047,190.291C32.944,173.635 24.77,157.332 20.859,134.02C19.84,127.977 19.693,113.553 20.606,107.61C22.791,92.933 27.668,79.015 34.317,68.302C53.158,37.922 84.798,20 119.536,20C134.366,20 147.724,22.692 160.576,28.328C171.802,33.258 184.141,42.039 192.422,51.033C205.367,65.098 212.023,77.083 216.9,95.165C220.764,109.436 220.857,129.496 217.2,143.667C213.089,159.364 207.499,170.583 197.446,183.029C188.711,193.895 179.524,201.563 167.431,208.066C154.733,214.928 143,218.326 128.17,219.545C120.908,220.152 118.116,220.152 111.054,219.545L111.054,219.539ZM128.983,168.658C131.475,167.592 133.4,164.594 133.4,161.696C133.4,156.719 134.366,151.083 135.639,148.591C138.23,143.514 141.681,141.735 152.141,140.11C156.205,139.503 160.369,138.644 161.389,138.231C164.28,136.965 166.672,134.527 168.244,131.122C169.663,128.024 169.717,127.724 169.717,119.796C169.663,111.008 169.364,109.083 166.319,101.208C161.788,89.375 149.909,77.596 138.124,73.326C134.68,72.219 131.168,71.338 127.61,70.687C122.027,69.775 120.961,69.721 116.138,70.281C106.591,71.394 100.694,73.279 94.092,77.237C89.928,79.775 89.628,80.035 84.598,85.005C77.229,92.267 73.425,99.329 71.087,109.896C67.023,128.43 74.391,147.985 89.828,159.77C96.277,164.694 105.724,168.658 112.58,169.318C118.47,169.924 126.804,169.571 128.983,168.651L128.983,168.658Z" fill="#000" stroke="#00000000" stroke-width="1.0" stroke-miterlimit=""/>
	</svg>
