<?xml version="1.0" encoding="utf-8"?>
	<svg version="1.1" xmlns="http://www.w3.org/2000/svg" xmlns:xlink="http://www.w3.org/1999/xlink" x="0px" y="0px" width="240.0" height="240.0" xml:space="preserve">
		<path d="M203.241,124.411C205.379,130.049 207.418,135.706 207.478,142.527C207.136,153.381 202.143,162.736 193.604,170.156C182.599,179.707 169.896,184.042 155.319,180.905C139.453,177.49 129.987,162.617 134.078,146.909C138.795,128.786 151.333,118.609 169.16,114.432C171.625,113.852 172.852,113.593 173.237,112.88C173.612,112.184 173.188,111.057 172.33,108.781C171.357,106.205 170.376,103.632 169.395,101.058C167.259,95.456 165.124,89.855 163.068,84.225C162.114,81.62 160.917,80.942 158.181,81.982C134.157,91.112 110.107,100.177 86.005,109.104C82.893,110.255 83.005,111.814 83.959,114.333C86.199,120.236 88.389,126.159 90.579,132.082C94.725,143.292 98.871,154.502 103.352,165.577C111.002,184.496 102.49,200.593 90.208,210.164C79.499,218.512 67.336,221.998 53.851,218.861C38.024,215.177 28.946,200.679 32.939,184.924C37.34,167.571 49.246,157.46 66.119,152.921C69.798,151.933 71.567,151.687 72.066,150.758C72.551,149.857 71.838,148.312 70.513,144.823C66.766,134.939 63.014,125.057 59.263,115.175C54.513,102.665 49.764,90.155 45.023,77.64C44.404,76.009 43.819,74.344 43.424,72.647C41.99,66.47 44.793,60.866 50.733,58.623C84.183,45.986 117.659,33.395 151.155,20.864C157.845,18.358 163.963,21.403 166.884,28.718C169.744,35.887 172.468,43.116 175.19,50.342C176.093,52.737 176.995,55.132 177.902,57.524C181.696,67.53 185.484,77.537 189.273,87.544C193.926,99.833 198.578,112.123 203.241,124.411ZM73.573,86.442C73.994,87.178 74.744,87.382 76.263,87.225C76.569,87.122 76.924,87.006 77.315,86.878C78.348,86.542 79.627,86.125 80.881,85.652C85.823,83.795 90.765,81.939 95.707,80.083C112.272,73.863 128.837,67.644 145.374,61.346C149.723,59.69 151.829,59.355 152.415,58.229C153.002,57.1 152.059,55.176 150.314,50.328C149.196,47.229 147.676,46.973 144.887,48.058C138.458,50.56 131.997,52.971 125.536,55.382C122.159,56.642 118.783,57.902 115.41,59.175C101.287,64.504 87.17,69.845 73.06,75.219C72.854,75.298 72.626,75.369 72.392,75.441C71.319,75.771 70.123,76.14 70.35,77.555C70.85,80.686 71.994,83.666 73.573,86.442Z" fill="#000" stroke="" stroke-width="" stroke-miterlimit=""/>
	</svg>
