<?xml version="1.0" encoding="utf-8"?>
	<svg version="1.1" xmlns="http://www.w3.org/2000/svg" xmlns:xlink="http://www.w3.org/1999/xlink" x="0px" y="0px" width="240.0" height="240.0" xml:space="preserve">
		<path d="M78.024,30C80.282,30 82.54,30 84.802,30C85.282,30.102 85.761,30.272 86.245,30.297C96.877,30.9 107.505,31.575 118.145,32.05C127.975,32.491 134.257,37.725 136.116,47.347C138.284,58.564 140.445,69.786 142.618,81.004C143.085,83.419 143.586,85.825 144.069,88.236C144.876,86.182 145.288,84.183 145.695,82.184C147.838,71.679 149.888,61.153 152.146,50.67C153.984,42.126 161.564,36.32 169.726,36.829C182.96,37.657 196.194,38.45 209.432,39.21C216.027,39.592 219.991,43.624 219.991,50.203C220.004,99.522 220.004,148.84 219.991,198.159C219.991,205.031 215.794,209.182 208.88,209.194C199.424,209.211 189.967,209.207 180.511,209.199C173.071,209.19 169.022,205.137 169.017,197.654C169.005,184.106 169.013,170.563 169.013,157.015C169.013,156.145 169.013,155.275 169.013,154.401C167.727,159.218 166.751,164.048 165.775,168.878C163.648,179.387 161.543,189.9 159.379,200.4C158.216,206.054 154.37,209.148 148.607,209.194C147.758,209.203 146.913,209.203 146.064,209.194C140.479,209.152 137.1,206.741 135.335,201.381C131.358,189.323 127.428,177.248 123.463,165.181C123.285,164.634 123.302,163.963 122.559,163.437C122.559,164.404 122.542,165.173 122.564,165.941C122.835,176.445 123.166,186.95 123.366,197.455C123.51,205.022 119.351,209.182 111.842,209.19C103.587,209.199 95.328,209.194 87.073,209.194C73.945,209.194 60.822,209.177 47.694,209.203C44.316,209.211 41.455,208.146 39.29,205.506C35.908,201.385 36.06,196.326 39.744,191.78C48.81,180.601 57.906,169.447 66.984,158.276C68.763,156.085 68.746,156.06 66.152,154.766C53.403,148.391 40.687,141.952 27.882,135.692C24.121,133.862 21.239,131.473 20,127.39C20,125.976 20,124.567 20,123.154C21.35,119.126 24.295,116.834 28.026,114.996C41.493,108.358 54.858,101.512 68.258,94.743C71.025,93.346 71.025,93.334 68.478,91.407C65.049,88.813 61.577,86.271 58.194,83.618C53.394,79.854 53.721,74.578 58.865,71.318C63.033,68.678 67.116,65.894 71.36,63.381C73.283,62.24 73.695,60.962 73.249,58.874C72.184,53.917 71.314,48.913 70.384,43.926C69.03,36.672 71.174,32.771 78.024,30Z" fill="#000" stroke="" stroke-width="" stroke-miterlimit=""/>
	</svg>
