<?xml version="1.0" encoding="utf-8"?>
	<svg version="1.1" xmlns="http://www.w3.org/2000/svg" xmlns:xlink="http://www.w3.org/1999/xlink" x="0px" y="0px" width="240.0" height="240.0" xml:space="preserve">
		<path d="M52.459,131.679C54.067,130.165 54.784,128.536 54.523,126.45C53.961,121.95 53.521,117.433 52.893,112.938C51.936,106.091 54.311,103.192 61.231,102.386C75.394,100.739 89.534,98.92 103.691,97.196C119.867,95.227 136.043,93.285 152.219,91.339C155.617,90.932 159.016,90.41 162.432,90.226C167.115,89.97 169.774,92.262 170.397,96.857C171.171,102.542 171.983,108.232 172.528,113.939C172.767,116.426 173.841,117.177 176.116,116.854C177.857,116.609 179.626,116.537 181.35,116.203C183.369,115.814 184.003,116.81 184.209,118.562C185.149,126.561 186.117,134.554 187.08,142.553C187.68,147.515 188.248,152.483 188.932,157.433C189.071,158.429 188.893,159.97 190.406,160.065C191.741,160.148 193.287,160.12 194.133,158.735C195.529,156.449 197.682,155.247 200.085,154.43C201.526,153.94 202.143,153.273 201.242,151.804C200.686,150.892 200.814,150.007 201.659,149.323C202.199,148.884 202.866,148.784 203.478,149.151C204.396,149.707 204.685,150.586 204.318,151.554C203.578,153.489 204.835,153.556 206.137,153.584C208.813,153.645 211.271,154.279 213.263,156.204C214.425,157.328 215.877,157.005 217.229,156.888C220.105,156.632 219.71,158.763 219.843,160.415C219.966,161.967 220.628,163.669 217.857,163.997C201.225,165.944 184.604,168.047 167.983,170.105C150.544,172.269 133.106,174.466 115.661,176.608C98.306,178.733 80.939,180.785 63.584,182.899C50.812,184.457 38.046,186.036 25.286,187.661C20.836,188.228 20.546,188.044 20.046,183.756C19.829,181.909 20.352,180.885 22.337,180.869C24.006,180.852 25.347,180.235 26.393,178.849C27.238,177.726 28.451,176.869 29.769,176.48C32.139,175.773 32.256,174.232 32,172.163C29.407,151.398 26.882,130.633 24.329,109.862C23.862,106.102 23.422,102.33 22.894,98.57C22.287,94.214 23.917,90.343 25.525,86.516C26.598,83.968 28.022,81.548 29.447,79.173C31.226,76.203 33.196,73.555 33.691,69.778C34.23,65.65 37.612,62.78 40.827,60.182C45.889,56.094 51.513,53.218 57.999,52.15C59.496,51.905 60.942,51.961 62.405,52.311C66.226,53.218 67.606,55.677 66.143,59.365C64.252,64.137 60.575,67.436 56.442,70.167C50.907,73.827 45.072,76.842 38.091,76.197C37.012,76.097 36.361,76.664 35.777,77.438C29.975,85.142 26.587,93.324 28.011,103.448C30.948,124.252 33.246,145.146 35.805,166.005C36.077,168.208 36.4,170.405 36.639,172.614C36.8,174.155 37.64,174.933 39.12,175.111C41.006,175.339 42.691,175.996 44.182,177.208C45.711,178.46 47.475,177.737 48.954,177.281C50.373,176.841 49.472,175.3 49.361,174.327C47.887,161.544 46.412,148.761 44.744,136.001C44.426,133.575 45.289,132.847 47.397,132.569C50.267,132.185 50.596,131.567 49.605,128.875C49.477,128.53 49.249,128.224 49.105,127.885C48.788,127.123 48.888,126.427 49.522,125.871C50.067,125.398 50.685,125.309 51.319,125.665C52.047,126.077 52.303,126.739 52.175,127.551C51.981,128.869 51.43,130.21 52.459,131.679Z" fill="#000" stroke="" stroke-width="" stroke-miterlimit=""/>
	</svg>
