<?xml version="1.0" encoding="utf-8"?>
	<svg version="1.1" xmlns="http://www.w3.org/2000/svg" xmlns:xlink="http://www.w3.org/1999/xlink" x="0px" y="0px" width="240.0" height="240.0" xml:space="preserve">
		<path d="M155.115,81.121H84.909C82.808,81.121 81.097,82.832 81.097,84.934V155.14C81.097,157.241 82.808,158.952 84.909,158.952H155.115C157.217,158.952 158.927,157.241 158.927,155.14V84.934C158.927,82.832 157.217,81.121 155.115,81.121Z" fill="#000" stroke="" stroke-width="" stroke-miterlimit=""/>
		<path d="M206.212,89.479C208.314,89.479 210.024,87.768 210.024,85.667V76.576C210.024,74.475 208.314,72.764 206.212,72.764H197.024V46.788C197.024,44.711 195.338,43.025 193.261,43.025H167.285V33.812C167.285,31.711 165.574,30 163.473,30H154.358C152.256,30 150.546,31.711 150.546,33.812V43.025H89.454V33.812C89.454,31.711 87.744,30 85.642,30H76.527C74.426,30 72.715,31.711 72.715,33.812V43.025H46.764C44.686,43.025 43,44.711 43,46.788V72.74H33.812C31.711,72.74 30,74.45 30,76.552V85.642C30,87.744 31.711,89.454 33.812,89.454H43V150.546H33.812C31.711,150.546 30,152.256 30,154.358V163.448C30,165.55 31.711,167.26 33.812,167.26H43V193.212C43,195.289 44.686,196.975 46.764,196.975H72.715V206.188C72.715,208.289 74.426,210 76.527,210H85.642C87.744,210 89.454,208.289 89.454,206.188V196.975H150.546V206.188C150.546,208.289 152.256,210 154.358,210H163.473C165.574,210 167.285,208.289 167.285,206.188V196.975H193.236C195.314,196.975 197,195.289 197,193.212V167.309H206.188C208.289,167.309 210,165.599 210,163.497V154.407C210,152.305 208.289,150.595 206.188,150.595H197V89.503H206.212V89.479ZM175.667,171.879C175.667,173.98 173.956,175.691 171.854,175.691H68.17C66.068,175.691 64.358,173.98 64.358,171.879V68.194C64.358,66.093 66.068,64.382 68.17,64.382H171.854C173.956,64.382 175.667,66.093 175.667,68.194V171.879Z" fill="#000" stroke="" stroke-width="" stroke-miterlimit=""/>
	</svg>
