<?xml version="1.0" encoding="utf-8"?>
	<svg version="1.1" xmlns="http://www.w3.org/2000/svg" xmlns:xlink="http://www.w3.org/1999/xlink" x="0px" y="0px" width="240.0" height="240.0" xml:space="preserve">
		<path d="M218.161,115.534L200.391,97.758C199.808,97.174 199.115,96.711 198.353,96.395C197.591,96.078 196.773,95.916 195.948,95.916C195.123,95.916 194.306,96.078 193.543,96.395C192.781,96.711 192.088,97.174 191.505,97.758L175.571,113.692H155.467L162.603,101.357C162.666,101.253 162.666,101.131 162.713,101.022C162.907,100.636 163.013,100.229 163.126,99.8C163.236,99.386 163.345,98.995 163.37,98.578C163.377,98.45 163.442,98.346 163.442,98.215C163.442,97.952 163.327,97.726 163.295,97.469C163.256,97.033 163.169,96.602 163.035,96.185C162.9,95.822 162.73,95.473 162.528,95.142C162.336,94.779 162.105,94.437 161.839,94.124C161.564,93.824 161.257,93.555 160.924,93.322C160.698,93.147 160.551,92.915 160.301,92.768C160.179,92.702 160.044,92.702 159.919,92.639C159.577,92.467 159.207,92.382 158.825,92.273C158.384,92.151 157.958,92.025 157.507,92C157.384,91.994 157.287,91.935 157.165,91.935H142.91L152.413,75.465L174.183,69.639C175.791,69.205 177.162,68.151 177.995,66.709C178.828,65.266 179.056,63.552 178.628,61.943L172.122,37.654C171.69,36.046 170.637,34.675 169.194,33.842C167.752,33.009 166.038,32.783 164.429,33.213L140.141,39.722C138.532,40.155 137.161,41.208 136.329,42.651C135.496,44.094 135.27,45.808 135.699,47.418L141.541,69.181L132.022,85.664L124.909,73.307C124.843,73.191 124.724,73.128 124.658,73.019C124.432,72.68 124.15,72.411 123.859,72.116C123.54,71.794 123.236,71.484 122.86,71.239C122.763,71.177 122.706,71.073 122.603,71.014C122.39,70.892 122.149,70.885 121.927,70.788C121.51,70.589 121.072,70.44 120.62,70.343C120.253,70.281 119.881,70.255 119.508,70.265C119.085,70.265 118.678,70.271 118.259,70.35C117.858,70.444 117.467,70.578 117.093,70.751C116.836,70.854 116.558,70.867 116.313,71.014C116.197,71.08 116.129,71.199 116.019,71.271C115.693,71.484 115.427,71.762 115.148,72.038C114.819,72.364 114.497,72.674 114.246,73.056C114.183,73.153 114.086,73.21 114.027,73.307L106.898,85.651L97.394,69.181L103.227,47.418C103.656,45.808 103.43,44.094 102.597,42.651C101.765,41.208 100.393,40.155 98.785,39.722L74.497,33.213C72.888,32.783 71.174,33.009 69.731,33.842C68.289,34.675 67.236,36.046 66.804,37.654L60.301,61.943C59.871,63.552 60.098,65.266 60.93,66.709C61.763,68.152 63.134,69.206 64.743,69.639L86.512,75.465L96.022,91.941L81.77,91.922C81.632,91.922 81.523,91.988 81.388,91.994C80.99,92.019 80.614,92.132 80.223,92.235C79.784,92.332 79.356,92.476 78.948,92.664C78.844,92.721 78.735,92.715 78.625,92.774C78.419,92.89 78.303,93.087 78.112,93.228C77.726,93.501 77.37,93.814 77.05,94.162C76.82,94.441 76.617,94.741 76.442,95.058C76.223,95.433 76.019,95.794 75.878,96.216C75.75,96.605 75.7,96.99 75.646,97.397C75.609,97.679 75.477,97.924 75.477,98.218C75.477,98.362 75.549,98.478 75.555,98.613C75.584,98.992 75.687,99.352 75.784,99.728C75.894,100.188 76.01,100.624 76.22,101.034C76.27,101.131 76.27,101.247 76.323,101.347L83.452,113.692H64.433L48.502,97.758C47.918,97.174 47.226,96.711 46.463,96.395C45.701,96.078 44.884,95.916 44.058,95.916C43.233,95.916 42.416,96.078 41.653,96.395C40.891,96.711 40.199,97.174 39.615,97.758L21.839,115.534C20.662,116.712 20,118.311 20,119.977C20,121.643 20.662,123.241 21.839,124.42L39.615,142.196C40.794,143.374 42.392,144.035 44.058,144.035C45.725,144.035 47.323,143.374 48.502,142.196L64.433,126.262H83.452L76.317,138.597C76.251,138.713 76.251,138.847 76.195,138.963C76.016,139.317 75.919,139.706 75.815,140.091C75.681,140.518 75.592,140.958 75.549,141.403C75.543,141.523 75.48,141.62 75.48,141.742C75.48,141.986 75.593,142.193 75.624,142.428C75.674,142.901 75.74,143.349 75.894,143.8C76.016,144.154 76.195,144.461 76.376,144.786C76.583,145.159 76.802,145.51 77.084,145.842C77.36,146.149 77.67,146.387 77.993,146.638C78.218,146.813 78.371,147.045 78.622,147.192C78.747,147.258 78.882,147.258 79.004,147.32C79.346,147.493 79.712,147.577 80.085,147.684C80.539,147.812 80.975,147.934 81.435,147.953C81.545,147.959 81.642,148.022 81.761,148.022H96.019L85.97,165.425L64.198,171.258C62.589,171.691 61.218,172.744 60.385,174.187C59.553,175.63 59.326,177.344 59.756,178.954L66.259,203.236C66.693,204.843 67.747,206.213 69.19,207.046C70.632,207.878 72.345,208.105 73.955,207.677L98.243,201.171C99.851,200.739 101.222,199.686 102.055,198.244C102.888,196.801 103.114,195.088 102.685,193.478L96.855,171.709L106.901,154.306L114.014,166.65C114.08,166.766 114.193,166.829 114.265,166.938C114.484,167.267 114.775,167.546 115.064,167.84C115.383,168.166 115.687,168.479 116.063,168.717C116.16,168.783 116.216,168.883 116.32,168.943C116.526,169.065 116.764,169.071 116.984,169.162C117.419,169.356 117.842,169.526 118.309,169.616C118.675,169.685 119.032,169.688 119.408,169.688C119.837,169.695 120.244,169.688 120.67,169.604C121.078,169.526 121.444,169.369 121.823,169.209C122.089,169.106 122.359,169.093 122.609,168.946C122.725,168.88 122.794,168.758 122.913,168.683C123.239,168.47 123.502,168.191 123.781,167.909C124.107,167.59 124.426,167.283 124.664,166.91C124.733,166.807 124.836,166.75 124.896,166.647L132.025,154.302L142.071,171.706L136.235,193.475C135.805,195.085 136.032,196.799 136.866,198.242C137.699,199.684 139.071,200.737 140.68,201.168L164.958,207.674C166.568,208.105 168.283,207.879 169.726,207.046C171.169,206.213 172.222,204.842 172.655,203.233L179.164,178.951C179.593,177.341 179.367,175.627 178.534,174.184C177.702,172.741 176.331,171.688 174.722,171.255L152.952,165.422L142.901,148.013L157.15,148.031C157.284,148.031 157.394,147.966 157.522,147.959C157.942,147.934 158.334,147.818 158.744,147.715C159.164,147.596 159.568,147.499 159.95,147.302C160.059,147.245 160.188,147.245 160.298,147.186C160.523,147.057 160.658,146.844 160.868,146.681C161.225,146.418 161.563,146.155 161.854,145.82C162.114,145.516 162.309,145.194 162.506,144.849C162.713,144.498 162.904,144.154 163.038,143.762C163.176,143.355 163.229,142.951 163.286,142.531C163.323,142.255 163.446,142.017 163.446,141.736C163.446,141.601 163.38,141.482 163.367,141.353C163.342,140.956 163.239,140.58 163.135,140.194C163.016,139.759 162.913,139.336 162.709,138.938C162.653,138.835 162.659,138.713 162.6,138.606L155.471,126.262H175.568L191.502,142.196C192.681,143.374 194.279,144.035 195.945,144.035C197.611,144.035 199.209,143.374 200.388,142.196L218.158,124.42C218.742,123.837 219.205,123.144 219.521,122.382C219.837,121.62 220,120.803 220,119.977C220,119.152 219.838,118.335 219.523,117.573C219.207,116.81 218.744,116.117 218.161,115.534ZM44.069,128.862L35.183,119.969L44.069,111.086L52.956,119.975L44.069,128.862ZM146.287,104.492L140.974,113.695H130.352L135.665,104.492H146.287ZM161.616,46.995L164.868,59.13L152.724,62.369L149.472,50.234L161.616,46.995ZM119.461,89.006L124.78,98.209L119.468,107.411L114.155,98.202L119.461,89.006ZM86.212,62.372L74.074,59.12L77.332,46.986L89.469,50.237L86.212,62.372ZM92.646,104.498L103.273,104.492L108.589,113.695H97.952L92.646,104.498ZM92.652,135.461L97.958,126.262H108.589L103.273,135.468L92.652,135.461ZM76.786,193.904L73.535,181.77L85.67,178.522L88.921,190.659L76.786,193.904ZM119.468,150.941L114.155,141.748L119.468,132.542L124.78,141.742L119.468,150.941ZM153.272,178.515L165.41,181.77L162.152,193.904L150.014,190.653L153.272,178.515ZM130.349,126.262H140.977L146.284,135.461L135.662,135.468L130.349,126.262ZM195.947,128.862L187.063,119.969L195.947,111.086L204.833,119.975L195.947,128.862Z" fill="#000" stroke="" stroke-width="" stroke-miterlimit=""/>
	</svg>
