<?xml version="1.0" encoding="utf-8"?>
	<svg version="1.1" xmlns="http://www.w3.org/2000/svg" xmlns:xlink="http://www.w3.org/1999/xlink" x="0px" y="0px" width="240.0" height="240.0" xml:space="preserve">
		<path d="M98.863,10C101.429,12.566 107.033,17.562 115.673,24.987C115.987,25.888 116.144,26.405 116.144,26.538L116.416,26.538C120.105,23.387 121.95,21.542 121.95,21.003C121.95,17.988 122.265,14.725 122.896,11.214L123.436,11.214C123.436,11.663 124.516,14.34 126.676,19.245L126.948,19.245C129.469,16.95 131.224,14.114 132.215,10.739L132.686,10.739L132.686,11.011C134.532,21.587 135.455,27.258 135.455,28.024C136.221,27.618 137.976,27.19 140.721,26.741C143.872,24.759 146.303,22.936 148.014,21.271C148.014,21.407 148.081,21.474 148.217,21.474C143.672,38.89 139.756,47.598 136.47,47.598C132.599,49.309 129.922,51.469 128.439,54.079L128.167,54.079L128.707,55.09C128.482,55.81 128.145,56.485 127.696,57.116L128.167,57.319C131.001,53.673 132.509,51.849 132.69,51.849L133.701,58.062C133.701,58.422 133.544,59.006 133.23,59.816C133.23,61.481 133.815,62.988 134.984,64.339C138.135,61.908 139.71,57.317 139.71,50.566C140.79,47.686 142.455,45.009 144.704,42.535L144.977,43.075L144.977,44.561C145.247,48.703 147.587,54.215 151.997,61.099C152.492,61.908 152.74,63.168 152.74,64.879L152.74,65.082C155.081,65.082 157.601,62.674 160.3,57.859L160.503,58.33C160.503,62.111 160.099,66.791 159.289,72.37L159.492,72.37C163.274,71.066 167.706,68.321 172.79,64.136L173.33,64.339C164.375,82.924 159.268,92.869 158.006,94.174C156.025,95.389 155.034,96.133 155.034,96.403C155.348,101.757 155.505,105.448 155.505,107.476L155.505,108.962C155.505,113.867 155.168,118.704 154.494,123.473C156.34,122.799 157.511,122.462 158.006,122.462C158.548,122.823 159.043,123.003 159.492,123.003C160.258,123.003 161.114,122.666 162.058,121.992L162.529,122.264C162.169,128.43 161.337,131.513 160.032,131.513L159.289,132.524L159.289,132.796C159.289,133.698 160.706,135.273 163.54,137.523C163.54,138.963 164.868,140.313 167.523,141.575C172.834,145.129 175.759,147.537 176.298,148.798C177.513,155.325 178.841,158.588 180.281,158.588C182.755,161.468 184.195,164.551 184.601,167.837C187.257,171.391 188.584,174.068 188.584,175.868L188.584,176.141C188.584,180.415 187.257,183.002 184.601,183.904C182.98,185.073 181.539,186.581 180.281,188.427L179.81,188.63L177.313,188.159L176.842,188.431L176.302,188.159C175.176,188.341 174.253,188.431 173.533,188.431C172.047,187.441 170.81,186.945 169.822,186.945C169.597,187.576 168.832,187.891 167.528,187.891L166.314,187.891C165.28,186.091 164.604,185.191 164.288,185.191C162.983,185.191 162.24,184.021 162.058,181.679C160.348,180.15 159.492,178.979 159.492,178.167L159.492,177.627C159.492,177.537 159.829,177.133 160.503,176.413L160.503,176.141C158.522,173.26 157.531,170.245 157.531,167.094C150.645,162.189 146.887,158.678 146.26,156.562C146.26,156.291 146.012,155.548 145.517,154.332C144.975,154.332 144.547,155.997 144.233,159.326L143.961,159.326C142.927,159.326 142.004,158.922 141.192,158.112C140.561,159.103 139.977,159.599 139.438,159.599C143.22,162.66 147.315,165 151.725,166.619C153.389,167.653 154.222,168.328 154.222,168.645L154.222,168.848C152.736,170.063 151.408,172.314 150.238,175.601C150.014,175.601 149.586,176.028 148.955,176.884C149.811,177.333 150.982,177.67 152.468,177.895C153.818,177.895 154.922,177.399 155.777,176.408L156.991,176.408C157.576,176.408 158.093,177.308 158.542,179.108L158.542,180.392C158.542,181.247 156.786,181.675 153.276,181.675L152.736,181.675C151.474,181.675 149.809,181.247 147.741,180.392C150.262,185.118 151.522,188.966 151.522,191.935C155.392,196.886 158.048,200.554 159.488,202.938C159.759,202.938 160.096,203.275 160.499,203.949L160.499,205.436L159.013,205.436C158.788,205.436 158.36,205.863 157.73,206.719C158.856,208.519 159.44,209.756 159.484,210.43C159.078,211.51 158.673,212.094 158.27,212.184C157.368,211.553 156.604,211.238 155.976,211.238L155.773,211.238C155.502,211.238 155.165,211.822 154.762,212.992L151.725,212.179L151.522,212.179L151.522,212.451C151.746,212.451 154.154,214.635 158.745,219.001C159.059,219.001 159.982,219.653 161.514,220.958C164.123,221.004 165.721,222.601 166.305,225.749C166.619,225.795 166.776,225.952 166.776,226.22L166.776,227.503C165.921,228.854 164.908,229.529 163.739,229.529C162.973,229.529 162.141,229.438 161.242,229.257C157.731,229.571 154.22,229.819 150.709,230C149.134,229.819 147.649,229.728 146.255,229.728L134.984,229.728C134.803,229.728 134.712,229.66 134.712,229.525C134.398,229.66 134.15,229.728 133.969,229.728C129.467,229.728 127.216,228.4 127.216,225.745L127.216,225.472C127.216,224.571 127.532,221.894 128.162,217.441C126.676,217.441 125.933,216.361 125.933,214.201C125.933,213.617 124.425,209.364 121.41,201.444L121.41,198.947C121.321,193.186 119.228,189.496 115.133,187.874C116.979,190.754 117.902,192.847 117.902,194.151L117.902,195.637C117.271,198.158 116.101,199.418 114.39,199.418L114.118,199.418C112.631,199.418 111.888,198.427 111.888,196.445L111.888,196.173C113.239,195.228 113.915,194.396 113.915,193.676C113.644,192.101 113.059,190.413 112.161,188.613L111.888,188.613C110.808,189.197 109.885,190.638 109.119,192.933C109.479,193.653 109.659,194.733 109.659,196.173C108.49,198.558 107.658,202.406 107.162,207.717C104.821,212.846 103.65,216.357 103.65,218.249L103.65,218.992L103.11,218.992C102.885,218.946 101.894,217.843 100.138,215.683C99.282,216.178 98.854,216.695 98.854,217.234C98.854,220.428 99.102,223.6 99.598,226.751C99.598,228.911 96.853,229.991 91.363,229.991L89.812,229.991C86.212,229.991 83.715,229.744 82.321,229.248C81.915,229.562 80.407,229.81 77.798,229.991C74.964,229.81 72.219,229.719 69.564,229.719L68.553,229.719C68.057,229.719 67.72,229.067 67.542,227.762C67.542,225.242 68.554,223.554 70.579,222.699C70.668,221.754 72.424,219.414 75.845,215.679C75.261,214.014 74.405,213.182 73.279,213.182C73.279,214.711 72.447,215.476 70.782,215.476L70.311,214.733L70.311,213.92C70.311,210.499 71.391,206.674 73.551,202.446C77.062,191.421 78.818,185.818 78.818,185.636C80.482,183.387 81.315,181.79 81.315,180.845L78.342,179.091C76.361,179.811 74.673,180.982 73.279,182.603C72.559,182.693 71.322,183.796 69.568,185.913L69.296,185.913C68.034,185.913 67.202,184.742 66.799,182.4L66.056,182.4C65.606,182.4 64.594,182.648 63.019,183.144L62.747,183.144L62.003,182.603C61.148,183.37 60.496,183.797 60.046,183.887C58.966,183.391 57.616,183.144 55.994,183.144L55.523,183.144L53.769,183.416C53.32,183.102 52.825,180.425 52.283,175.384C51.428,174.935 51,174.26 51,173.358L51,172.075C51,170.229 51.743,168.158 53.229,165.863C53.229,161.903 54.489,158.887 57.009,156.816L56.737,156.346L56.737,150.811C56.737,146.805 57.502,144.802 59.031,144.802C59.256,144.353 61.664,142.102 66.254,138.05L63.554,135.013C65.041,132.763 66.705,131.098 68.549,130.018C68.73,130.018 68.821,129.928 68.821,129.746L68.821,128.735C68.821,128.015 67.965,126.598 66.254,124.484L66.254,124.013L66.527,121.516C66.345,120.615 66.254,119.76 66.254,118.95L66.795,118.747C68.595,119.827 70.598,120.57 72.804,120.976C75.278,120.795 77.37,120.704 79.081,120.704L80.295,120.704C83.849,117.599 85.852,115.439 86.304,114.224C85.99,113.682 85.833,113.187 85.833,112.738C85.833,112.378 86.666,111.207 88.331,109.226C89.995,103.825 90.828,100.134 90.828,98.153C90.828,97.611 89.32,93.359 86.304,85.395L86.101,83.909C86.237,80.038 86.304,76.618 86.304,73.649C86.304,69.778 85.134,65.435 82.792,60.619L83.064,60.619C87.88,64.444 90.895,66.357 92.111,66.357L94.608,52.316C94.922,49.842 95.079,47.502 95.079,45.296L95.351,45.296C95.575,45.342 96.499,47.254 98.12,51.033C100.145,54.993 101.9,57.918 103.386,59.807L107.637,48.061C104.443,43.38 102.846,37.125 102.846,29.294C102.037,23.534 100.709,17.503 98.863,11.201C98.682,11.201 98.525,10.864 98.392,10.19L98.863,10ZM149.759,98.702L149.219,98.429C147.373,100.5 146.45,102.165 146.45,103.424L146.45,106.193C146.45,106.463 146.697,106.711 147.193,106.936C148.722,104.102 149.734,102.685 150.23,102.685C150.996,102.685 151.828,103.945 152.727,106.465L152.727,106.936C152.053,109.502 151.378,112.854 150.701,116.993C150.701,117.129 151.128,117.713 151.984,118.747C151.802,118.747 151.712,118.815 151.712,118.95L149.482,117.736L149.21,117.736L148.938,119.49L148.938,119.762L149.21,120.976C149.029,120.976 148.938,121.067 148.938,121.249C149.12,121.249 149.21,121.339 149.21,121.521L150.493,121.249L152.247,122.259L151.504,123.746L151.504,124.018C152.314,124.018 152.718,124.085 152.718,124.221C153.709,124.221 154.204,122.893 154.204,120.238C154.746,117.807 155.017,113.711 155.017,107.951C154.835,100.615 154.564,96.948 154.204,96.948C154.386,96.634 154.477,96.297 154.477,95.937L154.006,95.665L153.466,95.665C152.7,95.665 151.463,96.677 149.755,98.702L149.759,98.702ZM136.734,112.47C136.734,113.639 137.138,114.562 137.948,115.239L138.691,115.239C139.232,115.239 140.583,111.391 142.743,103.696C145.712,100.41 147.197,98.406 147.197,97.686L147.197,97.414C146.791,96.605 146.139,96.2 145.24,96.2L144.7,96.2C139.389,102.007 136.734,107.43 136.734,112.47L136.734,112.47ZM135.718,104.979C135.854,105.61 135.921,106.194 135.921,106.733L136.734,106.733C136.734,106.327 137.634,104.571 139.434,101.466L139.231,101.466C136.889,101.873 135.718,103.043 135.718,104.979L135.718,104.979ZM148.748,108.219L148.748,109.973L149.219,109.973C149.49,109.973 149.737,109.725 149.962,109.23L149.962,108.69C149.962,108.376 149.805,108.219 149.491,108.219L148.748,108.219ZM147.193,112.742C147.057,114.813 146.99,116.05 146.99,116.453C147.125,116.453 147.193,116.544 147.193,116.725C149.217,115.735 150.23,114.564 150.23,113.213L150.23,112.941L148.947,113.952L148.744,113.952C148.608,113.952 148.181,113.547 147.461,112.738L147.188,112.738L147.193,112.742ZM90.629,120.505L87.592,120.505C87.007,120.505 86.332,120.168 85.566,119.495C85.252,119.676 85.004,119.767 84.823,119.767C86.487,125.616 87.658,128.789 88.335,129.284C89.144,129.284 90.224,129.869 91.575,131.038C91.575,130.364 93.758,129.847 98.124,129.487L98.595,130.299L98.595,131.785C98.371,131.785 97.966,132.19 97.381,132.999C94.815,134.169 91.89,135.001 88.607,135.496L88.607,135.769C88.878,137.569 90.79,140.673 94.344,145.083C94.526,145.083 94.616,144.992 94.616,144.811L95.83,145.083L97.113,144.811L97.386,145.282C95.044,150.051 93.784,152.887 93.605,153.788L94.616,154.06C95.967,154.06 99.635,151.563 105.62,146.569L106.631,146.569C106.631,146.975 107.554,148.303 109.4,150.552L109.672,151.835C111.518,151.835 113.589,150.912 115.885,149.066C117.414,147.22 118.179,145.217 118.179,143.057C113.092,140.851 110.257,139.186 109.672,138.063C113.094,134.552 115.097,132.212 115.681,131.042L115.141,130.77C111.631,131.084 109.875,131.421 109.875,131.781L109.132,131.781C108.637,131.6 108.389,131.104 108.389,130.295L108.389,129.483C109.918,128.987 111.178,128.74 112.169,128.74L113.383,128.74C114.103,128.74 114.936,129.167 115.88,130.023C117.994,129.438 119.434,128.267 120.2,126.51C120.696,125.206 120.943,124.035 120.943,122.998L120.943,121.987C120.943,119.513 119.346,117.938 116.152,117.261C116.152,116.947 115.32,116.61 113.655,116.25C110.28,119.084 102.607,120.501 90.637,120.501L90.629,120.505ZM149.759,126.783L149.487,127.254L149.759,128.537C149.399,128.583 149.219,128.74 149.219,129.008L149.219,130.018C149.579,130.514 151.582,131.437 155.228,132.788L155.768,132.788C156.082,132.788 156.239,132.608 156.239,132.248L156.239,131.505C156.239,129.751 154.079,128.175 149.759,126.778L149.759,126.783ZM143.754,139.268C146.274,147.459 148.434,151.554 150.234,151.554L151.72,151.827C152.754,151.827 153.519,151.49 154.014,150.816L153.742,150.345L153.742,149.533L154.014,149.533C154.959,150.883 155.544,151.559 155.768,151.559L155.768,151.287C155.408,149.893 155.228,149.06 155.228,148.79L155.768,148.79C158.334,151.984 159.999,154.414 160.762,156.082C160.762,156.802 161.685,157.387 163.532,157.836L163.735,157.836C166.929,156.845 169.449,154.842 171.295,151.827C171.609,151.421 171.766,151.084 171.766,150.816C171.766,150.096 171.518,149.016 171.023,147.576L171.563,147.303C173.049,148.879 174.286,150.971 175.274,153.581C176.443,155.156 177.028,156.079 177.028,156.35L177.3,156.35L177.3,156.078C176.174,149.733 174.757,146.56 173.049,146.56C161.753,138.055 154.148,133.803 150.234,133.803C146.948,135.018 144.788,136.841 143.754,139.272L143.754,139.268ZM89.614,135.488L90.357,135.488L90.357,136.3L89.346,136.3C89.527,135.94 89.618,135.669 89.618,135.488L89.614,135.488ZM59.036,146.02C59.217,146.38 59.308,146.651 59.308,146.833C59.622,146.833 60.454,146.653 61.805,146.293C61.131,147.059 60.794,147.486 60.794,147.576C60.794,149.151 62.211,150.659 65.045,152.099C65.54,153.225 66.283,154.216 67.274,155.071C68.308,155.071 69.14,152.911 69.771,148.591L70.583,148.591C70.897,150.166 71.213,150.999 71.529,151.088C72.52,151.088 73.78,149.243 75.31,145.554C74.048,142.36 71.956,140.763 69.032,140.763C68.177,140.221 67.345,139.569 66.535,138.806C61.541,142.855 59.044,145.263 59.044,146.029L59.036,146.02ZM83.609,155.81C83.609,157.835 82.258,159.77 79.556,161.616C79.916,162.247 80.096,163.147 80.096,164.316L80.096,165.327C80.096,166.183 79.916,167.195 79.556,168.364L79.556,168.636L79.828,168.636C81.269,166.701 83.856,163.596 87.592,159.322C85.072,158.691 83.812,157.521 83.812,155.81L83.609,155.81L83.609,155.81ZM142.199,215.48L142.199,216.694C142.199,216.965 142.446,217.212 142.942,217.437L143.214,217.437C143.709,216.222 143.957,215.231 143.957,214.465L143.214,213.925L142.942,213.925C142.446,214.106 142.199,214.623 142.199,215.476L142.199,215.48ZM83.336,216.223L83.336,216.495C83.921,217.486 84.326,217.981 84.55,217.981L84.823,217.981C85.183,216.901 85.363,216.137 85.363,215.687L85.363,215.216C85.363,214.902 85.183,214.745 84.823,214.745L84.079,214.745C83.584,214.881 83.336,215.376 83.336,216.232L83.336,216.223ZM129.441,224.997C129.891,226.077 130.386,226.73 130.927,226.954L131.2,226.954L131.2,226.483L131.472,226.483C132.192,227.157 132.596,227.494 132.686,227.494L133.226,227.494L132.954,226.954L132.954,226.751L133.226,226.751L134.98,227.965L134.98,227.494C135.835,227.676 136.33,227.766 136.466,227.766C140.155,227.182 142,226.326 142,225.2L142,224.997C140.966,219.822 139.458,217.234 137.477,217.234C136.126,217.234 135.023,217.143 134.167,216.962C131.693,216.962 130.456,217.974 130.456,219.999C130.186,219.999 129.849,221.664 129.446,224.993L129.441,224.997ZM85.833,222.703C85.833,224.685 86.509,226.102 87.86,226.954L87.86,226.483C87.949,226.483 88.354,226.911 89.074,227.766L89.614,227.494L90.357,227.494L90.357,227.222C91.212,227.896 92.449,228.233 94.068,228.233C94.338,228.233 94.923,227.896 95.822,227.222L96.362,227.494C96.632,226.639 97.128,226.211 97.848,226.211L97.848,224.457L97.576,221.96C97.757,221.96 97.848,221.869 97.848,221.688C97.577,221.688 97.172,220.271 96.634,217.437L95.623,217.437C94.272,218.292 93.101,219.305 92.111,220.474L90.085,217.705L88.871,217.433L87.86,217.433C86.509,218.602 85.833,220.357 85.833,222.699L85.833,222.703Z" fill="#000" stroke="#00000000" stroke-width="1.0" stroke-miterlimit=""/>
	</svg>
