<?xml version="1.0" encoding="utf-8"?>
	<svg version="1.1" xmlns="http://www.w3.org/2000/svg" xmlns:xlink="http://www.w3.org/1999/xlink" x="0px" y="0px" width="240.0" height="240.0" xml:space="preserve">
		<path d="M197.15,82.63C198.921,84.131 198.996,86.43 199.912,88.32C203.968,96.704 205.546,105.671 206.176,114.776C207.234,130.048 204.34,144.729 197.283,158.291C181.95,187.759 157.405,203.575 124.349,206.214C122.629,206.351 122.073,206.808 122.109,208.524C122.188,212.302 122.076,216.085 122.041,219.865L121.378,130.906C126.218,130.239 129.953,126.107 130,121.094C130.152,120.983 130.319,120.879 130.499,120.775C152.108,108.307 173.712,95.827 195.324,83.363C195.887,83.039 196.539,82.871 197.15,82.63ZM131.032,34.298C152.383,37.086 170.33,46.748 184.638,62.893C187.743,66.397 191.007,69.883 192.693,74.422C176.18,83.938 159.677,93.474 143.147,102.962C137.388,106.267 131.568,109.466 125.765,112.694L125.659,112.754C124.05,111.648 122.101,111 120,111C117.757,111 115.686,111.739 114.017,112.986L114.186,113.084C100.261,104.991 86.331,96.909 72.405,88.82L72.193,88.697L71.989,88.579C70.653,87.805 69.818,87.349 69.165,87.293L69.068,87.287C68.083,87.263 67.495,88.212 66.111,90.444C65.566,91.323 65.141,92.009 64.852,92.569C63.842,94.527 64.504,94.941 67.543,96.697L73.549,100.166L73.549,100.166L78.397,102.962L71.434,98.942L81.96,105.018C91.306,110.406 100.655,115.787 110.001,121.173L110,121C110,125.481 112.947,129.273 117.008,130.545L117.581,207.158C117.352,206.526 116.813,206.276 115.777,206.225C98.406,205.356 82.599,199.89 68.682,189.447C47.051,173.217 35.373,151.393 33.663,124.492C32.589,107.604 36.575,91.697 45.064,76.977C62.821,46.186 96.644,29.807 131.032,34.298Z" fill="#000" stroke="#00000000" stroke-width="1.0" stroke-miterlimit=""/>
		<path d="M192.693,74.422C191.007,69.884 187.743,66.397 184.638,62.893C170.33,46.748 152.383,37.086 131.032,34.298C96.645,29.807 62.821,46.186 45.064,76.977C36.575,91.696 32.59,107.604 33.663,124.492C35.373,151.393 47.051,173.217 68.682,189.447C82.599,199.889 98.405,205.356 115.778,206.224C117.27,206.299 117.732,206.786 117.716,208.231C117.672,212.109 117.751,215.987 117.781,219.864C104.726,219.536 92.161,216.929 80.175,211.7C67.356,206.108 56.036,198.312 46.733,187.869C42.368,182.97 38.548,177.603 34.887,172.075C30.505,165.457 27.435,158.417 24.898,151.04C22.315,143.525 21.054,135.773 20.37,127.841C18.69,108.372 22.775,90.152 31.749,72.976C38.949,59.198 49.053,47.868 61.663,38.761C73.483,30.226 86.581,24.579 100.849,21.834C111.239,19.835 121.682,19.415 132.3,20.847C144.533,22.496 156.037,26.017 166.893,31.745C180.655,39.005 192.046,49.032 201.055,61.715C205.074,67.373 204.984,67.414 198.792,70.834C196.728,71.975 194.724,73.223 192.693,74.422" fill="#000" stroke="#00000000" stroke-width="1.0" stroke-miterlimit=""/>
		<path d="M122.041,219.865C122.076,216.085 122.188,212.302 122.109,208.524C122.073,206.808 122.629,206.351 124.349,206.214C157.405,203.575 181.95,187.759 197.283,158.291C204.34,144.729 207.234,130.048 206.176,114.776C205.546,105.671 203.968,96.704 199.912,88.32C198.996,86.43 198.921,84.131 197.15,82.63C200.472,79.802 204.484,78.113 208.208,75.948C209.753,75.05 209.931,76.546 210.333,77.366C214.101,85.048 216.547,93.197 218.133,101.551C219.485,108.676 220.285,115.926 219.906,123.21C219.227,136.209 216.683,148.792 211.237,160.71C208.479,166.743 205.335,172.554 201.395,177.889C186.987,197.403 168.274,210.728 144.678,216.838C137.279,218.753 129.71,219.777 122.041,219.865" fill="#000" stroke="#00000000" stroke-width="1.0" stroke-miterlimit=""/>
		<path d="M71.42,88.252L71.792,88.465C71.985,88.576 72.189,88.695 72.405,88.82C86.275,96.877 100.149,104.927 114.018,112.987C111.579,114.81 110,117.721 110,121L110.001,121.173L96.384,113.328C86.767,107.789 77.152,102.249 67.543,96.697C63.635,94.439 63.658,94.401 66.111,90.444C68.299,86.916 68.498,86.595 71.42,88.252Z" fill="#000" stroke="#00000000" stroke-width="1.0" stroke-miterlimit=""/>
	</svg>
