<?xml version="1.0" encoding="utf-8"?>
	<svg version="1.1" xmlns="http://www.w3.org/2000/svg" xmlns:xlink="http://www.w3.org/1999/xlink" x="0px" y="0px" width="240.0" height="240.0" xml:space="preserve">
		<path d="M210.559,156.393C214.359,156.381 216.699,155.568 218.844,153.985L218.844,153.792C217.153,152.042 210.837,151.325 209.981,149.264C209.523,148.162 211.683,142.151 211.233,139.438C210.329,133.981 209.487,129.539 207.188,125.565C203.042,118.402 198.078,112.239 193.893,105.237C190.262,99.163 187.988,92.011 184.258,86.066C175.395,71.937 162.407,61.059 145.916,54.563C141.74,52.918 137.376,52.328 132.235,51.48C128.493,50.862 125.478,52.538 122.023,51.961C113.356,50.516 104.358,52.321 97.746,55.045C88.651,58.789 81.419,64.577 74.239,70.266C71.992,72.417 69.743,74.569 67.496,76.721C69.088,72.934 72.283,69.65 74.432,66.22C80.06,57.232 86.362,41.964 83.392,27.395C83.015,25.548 83.263,23.43 82.717,22L82.428,22L77.9,32.501C73.923,41.628 69.612,50.228 64.702,58.416C61.446,63.845 57.962,69.589 55.935,76.143C55.389,78.776 54.843,81.41 54.297,84.042C53.421,87.513 52.556,91.218 52.659,95.603C52.595,95.635 52.531,95.667 52.466,95.699C52.29,93.853 51.835,91.412 52.177,89.245L52.274,84.813C50.814,75.69 48.843,68.364 43.603,63.137C42.585,62.121 37.897,57.564 36.089,58.224C35.501,58.707 35.883,60.331 36.089,61.017C37.052,63.393 38.016,65.77 38.979,68.146L48.228,91.942C49.234,94.822 49.359,100.001 52.274,100.902C52.529,108.93 50.559,114.449 48.709,120.651C45.511,131.376 45.032,140.039 35.029,144.158C32.913,145.029 29.56,146.053 26.358,145.411C24.271,144.736 22.184,144.061 20.096,143.387L20,143.483C20.717,149.009 29.234,151.644 35.125,152.54C38.284,153.019 41.168,151.71 43.988,151.48C43.329,155.12 39.943,164.13 44.856,165.738C44.856,168.407 44.349,170.235 43.988,172.578C44.181,174.023 44.373,175.468 44.566,176.913C45.5,181.661 45.684,186.388 47.745,189.919L48.035,190.016C49.117,180.867 56.309,173.572 62.389,169.303L69.904,179.226C76.456,187.503 87.38,196.319 99.094,199.264C98.649,199.82 98.102,200.031 97.746,200.709C98.857,203.282 106.124,206.98 109.21,207.838C111.04,208.063 112.871,208.287 114.702,208.512C117.639,209.675 120.072,212.844 122.602,214.1C125.234,213.218 126.402,210.551 129.153,210.054C130.428,209.823 131.269,211.025 132.042,211.403C134.997,212.301 137.952,213.201 140.906,214.1C138.095,216.096 132.662,213.943 129.345,213.907L129.345,214.004C139.829,222.552 154.637,218.768 164.123,212.462C165.601,211.48 168.083,211.083 169.133,209.668C170.04,208.446 170.068,206.587 170.674,205.044C171.413,203.471 172.151,201.897 172.89,200.324C173.115,199.265 173.34,198.204 173.564,197.144C174.143,196.374 174.721,195.603 175.299,194.832L175.781,190.786C176.519,190.208 177.258,189.63 177.997,189.052C179.474,187.479 180.951,185.904 182.428,184.331C187.331,177.872 191.875,167.454 191.966,156.393L192.062,156.393C199.832,161.418 206.738,165.79 219.808,165.545L219.808,165.353L220,165.063C216.973,161.916 213.185,159.994 210.559,156.393L210.559,156.393ZM81.272,29.033C82.867,30.315 81.757,41.871 80.983,43.484C77.774,43.501 76.666,44.598 74.432,45.218L81.272,29.033ZM41.002,68.243L38.497,61.306C41.473,62.12 44.139,65.694 45.241,68.436C44.044,67.896 42.549,68.188 41.002,68.243ZM61.811,163.329C63.867,159.83 65.922,156.329 67.977,152.828L67.977,152.732C66.255,153.715 63.769,157.774 62.486,159.476C58.861,164.283 54.923,169.404 49.769,172.674C49.757,165.791 51.3,160.392 52.659,154.948C53.155,152.961 52.89,150.604 53.623,148.878C56.031,144.801 58.44,140.721 60.848,136.644C63.53,132.161 65.545,126.966 67.495,121.807L67.495,121.518C66.363,122.381 65.977,124.273 65.279,125.564L58.921,137.222L58.921,137.414C57.594,135.654 58.609,126.789 59.017,124.505C59.591,121.299 60.186,111.386 61.619,109.572C62.383,108.605 66.754,107.53 68.17,106.971C73.272,104.957 83.817,102.73 87.149,99.36C87.879,100.196 86.614,102.614 86.281,103.31C84.417,107.21 83.313,112.075 82.139,116.701C81.003,121.174 80.977,126.712 80.116,131.634L80.116,136.161C80.117,140.65 80.367,145.414 79.249,148.878C77.814,153.326 66.691,162.098 61.811,163.329L61.811,163.329ZM87.341,153.31C88.24,158.3 89.432,161.741 94.085,163.041C95.411,163.411 97.527,163.455 98.806,162.944C103.598,161.03 106.68,150.124 102.852,144.736C101.487,142.814 98.465,143.027 96.108,142.039L95.915,142.039L104.586,136.644C108.509,133.921 111.784,130.506 115.473,127.588C117.345,126.106 120.185,124.404 121.253,122.193C121.349,122.128 121.445,122.064 121.542,122C120.803,125.243 120.065,128.487 119.326,131.73C117.753,137.028 116.179,142.328 114.606,147.626C113.771,149.681 112.936,151.737 112.101,153.792L108.632,160.247C121.408,155.27 130.135,146.728 136.956,135.777C139.398,131.857 142.305,127.369 143.025,121.904C145.205,123.269 147.93,126.699 149.576,128.744C152.903,132.876 157.478,136.143 159.885,141.172C158.969,141.756 156.622,143.216 154.971,142.713C154.425,142.296 153.88,141.878 153.334,141.46C151.804,140.964 149.567,141.946 148.42,142.231C141.977,143.836 139.846,143.974 140.039,152.25C140.232,153.631 140.424,155.013 140.616,156.393C141.099,158.125 142.015,160.02 143.025,161.307C144.784,163.547 150.181,163.796 152.851,162.174C157.295,159.475 156.89,152.194 156.801,145.218C158.159,144.553 159.48,143.221 161.04,142.809C163.908,144.632 163.438,149.391 162.582,153.118C161.477,157.928 160.424,162.69 158.632,166.798L154.104,174.601C156.387,174.692 158.651,172.292 160.463,171.326C160.526,171.39 160.591,171.454 160.655,171.518C147.315,189.36 108.203,192.298 88.882,177.684C84.029,174.013 81.372,168.523 79.345,161.981C78.694,159.881 77.448,156.47 78.478,153.985C79.086,152.515 80.567,151.899 81.849,151.095C83.103,152.861 83.45,155.151 85.029,156.586L85.125,156.586C86.517,154.244 85.504,149.543 86.859,147.048L87.148,146.952C87.834,148.827 86.928,151.013 87.341,153.31L87.341,153.31ZM111.811,194.447C112.982,194.543 113.807,195.31 114.413,195.988L114.413,196.374L112.004,195.699C111.876,195.314 111.747,194.929 111.619,194.544C111.683,194.511 111.747,194.479 111.811,194.447ZM111.33,191.749L111.137,191.942C110.676,191.652 110.429,191.501 110.366,190.786C110.81,191.037 111.082,191.303 111.33,191.749ZM83.295,174.312C77.364,173.942 70.027,167.722 70,161.499C70.867,160.632 71.734,159.765 72.601,158.898C74.361,159.74 74.501,162.656 75.492,164.293C77.711,167.96 81.388,170.29 83.295,174.312L83.295,174.312ZM90.906,194.255C82.101,189.449 75.23,183.348 69.326,175.661C67.458,173.23 64.56,170.825 63.931,167.279C65.472,165.706 67.014,164.132 68.555,162.558C69.526,163.172 69.348,164.994 69.807,166.124C70.727,168.382 72.505,170.616 74.336,172C76.138,173.363 78.39,174.795 80.79,175.468C82.46,175.822 84.13,176.175 85.8,176.528C87.02,177.588 88.241,178.647 89.46,179.707C92.549,181.908 96.19,183.74 99.961,185.198C102.016,185.776 104.072,186.355 106.127,186.933C107.026,187.061 107.925,187.19 108.825,187.318C109.731,187.905 109.508,191.423 109.21,192.617C107.833,198.134 104.106,197.502 99.865,195.025C93.119,191.086 87,185.683 82.428,179.515L82.138,179.418C82.674,181.861 85.317,183.542 86.859,185.102C90.14,188.422 93.3,191.808 97.36,194.351L101.406,196.47L104.008,197.434C100.946,200.024 93.094,195.449 90.906,194.255L90.906,194.255ZM104.201,199.553L104.201,200.035L102.563,200.131C102.897,199.563 103.371,199.408 103.815,198.975C104.059,199.153 104.075,199.259 104.201,199.553L104.201,199.553ZM114.509,205.911C113.501,206.275 112.056,205.881 111.233,205.719C108.88,205.255 106.703,205.129 104.971,204.081L101.407,201.672C101.342,201.576 101.278,201.48 101.214,201.383L102.948,201.48C103.878,201.226 105.029,199.931 106.223,200.131C108.192,200.46 109.906,201.946 111.619,202.635C110.642,203.192 108.171,202.971 107.09,202.635L106.994,202.732C109.035,205.376 116.947,202.334 117.495,200.227C118.527,196.259 112.105,195.176 112.293,190.593C114.447,191.167 119.458,196.711 118.748,199.939C118.423,201.413 117.124,202.684 116.339,203.792C115.839,204.499 115.371,205.6 114.509,205.911L114.509,205.911ZM117.785,205.044C117.094,206.126 118.656,208.271 118.94,208.705C113.175,205.989 120.02,200.574 121.927,198.108C124.565,198.323 125.412,200.965 126.744,202.539L126.744,202.925C124.921,202.289 124.108,200.725 121.927,200.42C121.06,201.576 120.193,202.732 119.326,203.889C118.987,204.321 118.05,204.628 117.785,205.044L117.785,205.044ZM122.505,211.884C119.041,209.361 120.131,206.456 122.312,203.696C126.154,203.777 126.153,211.611 122.505,211.884ZM126.262,209.09L126.166,209.09C126.428,208.158 126.946,208.028 127.515,207.452C127.579,207.613 127.643,207.774 127.707,207.935C127.251,208.455 126.941,208.771 126.262,209.09L126.262,209.09ZM133.102,187.703C128.914,188.765 124.42,192.441 123.661,196.855C122.94,197.317 121.773,197.417 120.867,197.723L120.771,197.723C120.208,191.867 115.612,190.579 112.197,187.607C118.883,188.247 126.186,187.696 133.102,187.607L133.102,187.703ZM152.081,181.056L159.114,175.757C159.94,175.331 160.924,175.487 162.004,175.276C163.828,174.918 165.606,174.246 166.725,173.156C166.821,173.188 166.917,173.22 167.014,173.252L167.206,173.252C163.135,181.631 157.46,188.429 150.54,193.965C149.229,195.013 146.594,199.468 143.892,198.397L143.7,198.397C143.667,198.333 143.635,198.269 143.604,198.204C147.457,194.631 151.697,190.523 153.815,185.295L153.623,185.102C150.203,189.723 147.466,194.549 142.544,197.723C141.462,197.648 141.064,197.177 140.328,196.855C139.429,196.502 138.529,196.149 137.63,195.796C136.545,194.932 135.654,189.148 135.414,187.222C141.74,186.32 147.636,184.026 152.081,181.056L152.081,181.056ZM146.879,200.805L144.856,203.021C144.631,201.865 144.406,200.709 144.182,199.553C145.562,199.489 146.674,199.658 146.879,200.805ZM166.05,208.319C164.456,212.298 156.06,214.756 151.6,216.22C150.973,215.464 151.184,214.499 150.154,214.1C150.122,214.036 150.09,213.972 150.058,213.907C151.696,213.33 153.334,212.751 154.971,212.173L155.068,211.981L155.068,211.884C153.146,212.219 151.015,213.665 148.806,213.04C147.027,212.236 147.355,209.616 146.59,208.994C145.659,208.93 144.727,208.866 143.797,208.802C141.581,208.287 139.364,207.774 137.149,207.26C137.117,207.196 137.084,207.132 137.053,207.068C138.401,206.843 139.75,206.618 141.099,206.394C142.993,205.847 144.888,205.302 146.783,204.756C148.827,203.887 150.835,202.717 152.563,201.48L155.357,199.361C157.601,198.351 160.923,199.091 163.738,198.589C164.605,198.397 165.473,198.204 166.339,198.012C166.375,201.095 167.078,205.753 166.05,208.319L166.05,208.319ZM167.11,189.148C166.272,190.528 166.173,191.974 164.798,192.809C162.143,194.421 158.005,194.241 155.55,195.988C153.167,197.683 151.857,200.998 148.709,201.865L149.673,199.649C149.383,199.136 149.095,198.621 148.805,198.108C150.718,195.439 153.206,193.687 155.742,191.653C158.968,189.067 161.708,185.324 164.123,181.923C165.263,180.318 166.819,178.629 167.399,176.528C169.245,177.754 167.738,181.433 167.977,183.368C168.202,184.749 168.426,186.13 168.651,187.511C168.138,188.056 167.624,188.603 167.11,189.148L167.11,189.148ZM162.1,173.541L161.522,173.541C162.936,168.511 167.875,167.074 169.615,163.329C169.518,164.26 169.422,165.192 169.326,166.123C169.23,167.119 169.133,168.114 169.037,169.109C168.179,171.253 164.31,172.695 162.1,173.541L162.1,173.541ZM173.083,183.753L173.083,182.597C173.401,181.744 174.153,181.548 174.817,181.056L175.492,181.152C176.273,182.357 176.829,184.237 176.84,186.162C176.52,186.451 176.198,186.74 175.877,187.029L175.588,187.125C174.916,185.308 174.828,184.516 173.083,183.753L173.083,183.753ZM170.097,192.135C167.198,189.522 171.204,186.218 172.601,184.813L173.757,184.813C175.691,187.74 173.686,192.104 170.097,192.135ZM170.289,179.033C169.015,175.757 169.516,168.865 170.578,165.738C171.523,166.965 173.677,174.798 173.661,177.009C172.697,177.879 171.622,178.51 170.289,179.033ZM171.06,200.42C170.904,200.676 171.031,200.555 170.771,200.709L170.675,200.709L170.771,197.434L171.06,197.241C171.252,197.305 171.445,197.369 171.638,197.434C171.858,198.533 171.535,199.701 171.06,200.42ZM168.941,194.736L169.133,193.098C171.378,192.547 173.287,192.856 174.239,190.882L174.624,190.979L174.817,190.979C174.152,193.066 171.609,194.672 168.941,194.736L168.941,194.736ZM175.299,190.016L174.721,190.016C175.242,188.514 176.915,188.055 177.419,186.643C178.096,184.745 176.519,182.049 176.069,180.574C175.267,180.414 174.464,180.253 173.661,180.093C174.303,179.707 174.946,179.321 175.588,178.937C175.717,178.969 175.845,179.001 175.973,179.033C177.744,179.855 178.916,184.257 178.96,186.74C177.739,187.831 176.519,188.924 175.299,190.016L175.299,190.016ZM180.694,183.175L180.502,183.368C179.956,182.304 179.503,181.174 179.538,179.515C181.528,177.684 183.52,175.853 185.511,174.023L185.993,174.023C184.777,176.484 182.775,181.776 180.694,183.175ZM189.557,160.15C189.333,161.756 189.108,163.362 188.883,164.967C187.721,168.163 181.035,171.969 178.381,174.216C178.286,174.248 178.189,174.28 178.093,174.312C176.936,170.523 175.781,166.733 174.625,162.944C174.275,161.876 173.176,159.753 173.661,158.224C174.946,156.072 176.23,153.921 177.515,151.769C178.887,149.429 179.485,146.336 180.501,143.676L186.281,150.324C187.372,151.673 189.475,152.573 190.231,154.177C191.088,155.995 189.867,158.629 189.557,160.15L189.557,160.15Z" fill="#ff040000" stroke="#00000000" stroke-width="1.0" stroke-miterlimit=""/>
	</svg>
