<?xml version="1.0" encoding="utf-8"?>
	<svg version="1.1" xmlns="http://www.w3.org/2000/svg" xmlns:xlink="http://www.w3.org/1999/xlink" x="0px" y="0px" width="240.0" height="240.0" xml:space="preserve">
		<path d="M109.943,20L120.397,20L124.344,20.765C120.053,31.594 117.063,42.673 115.73,54.363C116.318,54.232 116.565,54.253 116.632,54.151C117.216,53.276 117.765,52.378 118.327,51.488C123.442,43.388 130.137,37.117 139.151,33.8C152.9,28.74 165.781,31.567 177.849,39.029C192.329,47.983 202.067,61.106 208.672,76.683C211.047,82.286 212.74,88.186 214.891,94.371C205.921,94.029 197.754,93.765 189.643,95.29C190.342,95.804 191.104,95.982 191.773,96.341C196.212,98.72 201.108,100.532 204.971,103.651C218.786,114.806 222.095,129.884 218.848,146.687C215.418,164.433 205.644,178.52 192.45,190.271C187.916,194.309 182.86,197.748 177.637,201.773C174.446,188.873 170.014,177.355 163.58,166.28C163.304,166.931 163.172,167.087 163.188,167.228C163.286,168.102 163.423,168.973 163.536,169.846C165.195,182.53 163.172,194.357 154.843,204.365C145.625,215.441 133.219,219.807 119.344,219.993C97.414,220.285 78.737,211.66 62.189,197.655C61.832,197.353 61.6,196.901 61.247,196.436C70.654,190.473 79.176,183.721 86.346,175.267C85.272,175.241 84.396,175.516 83.564,175.892C73.883,180.263 63.897,181.971 53.55,178.858C39.121,174.516 30.346,164.106 25.005,150.442C19.12,135.383 18.774,119.821 22.151,104.171C23.531,97.77 25.694,91.541 27.653,84.7C37.039,92.646 46.452,98.946 57.037,103.417C56.626,102.356 55.975,101.588 55.329,100.815C47.528,91.482 43.107,80.953 44.479,68.5C45.837,56.17 52.095,46.543 61.183,38.645C71.84,29.382 84.416,24.264 98.088,21.707C102.01,20.973 105.99,20.56 109.943,20ZM99.469,121.082C99.474,133.429 108.769,142.787 121.011,142.771C132.886,142.756 142.393,133.1 142.398,121.049C142.402,108.851 132.875,99.209 120.841,99.233C108.655,99.256 99.463,108.654 99.469,121.082L99.469,121.082Z" fill="#000" stroke="#00000000" stroke-width="1.0" stroke-miterlimit=""/>
	</svg>
