<?xml version="1.0" encoding="utf-8"?>
	<svg version="1.1" xmlns="http://www.w3.org/2000/svg" xmlns:xlink="http://www.w3.org/1999/xlink" x="0px" y="0px" width="240.0" height="240.0" xml:space="preserve">
		<path d="M240.003,100L208.663,170H198.983L210.613,145.5L190.003,100H200.203L215.103,134.9H215.303L229.783,100H240.003ZM109.833,121.66V150H100.003V80H126.073C132.255,79.846 138.272,82.007 142.943,86.06C147.523,89.83 150.093,95.21 150.003,100.84C150.038,103.69 149.42,106.51 148.196,109.084C146.972,111.658 145.175,113.918 142.943,115.69C138.393,119.67 132.763,121.65 126.073,121.65H109.833V121.66ZM109.813,88.62V113.06H126.293C129.943,113.16 133.473,111.84 136.023,109.44C138.543,107.19 139.973,104.11 139.973,100.88C139.973,97.66 138.543,94.58 136.023,92.33C134.73,91.095 133.203,90.131 131.532,89.494C129.861,88.856 128.08,88.56 126.293,88.62H109.813V88.62ZM169.723,100C175.993,100 180.943,101.74 184.573,105.22C188.193,108.7 190.003,113.48 190.003,119.54V148.47H181.893V141.95H181.523C178.013,147.32 173.343,150 167.523,150C162.543,150 158.383,148.47 155.023,145.4C153.402,143.962 152.113,142.189 151.246,140.203C150.379,138.217 149.955,136.066 150.003,133.9C150.003,129.05 151.773,125.19 155.303,122.32C158.833,119.45 163.553,118.02 169.453,118.01C174.483,118.01 178.633,118.97 181.883,120.88V118.87C181.899,117.394 181.594,115.932 180.99,114.586C180.385,113.239 179.496,112.039 178.383,111.07C176.176,108.979 173.244,107.824 170.203,107.85C165.463,107.85 161.713,109.93 158.963,114.08L151.493,109.2C155.593,103.07 161.673,100 169.723,100V100ZM158.753,134.1C158.742,135.212 158.991,136.311 159.481,137.309C159.971,138.308 160.687,139.178 161.573,139.85C163.443,141.38 165.773,142.19 168.163,142.15C171.733,142.14 175.163,140.65 177.693,138.03C179.028,136.799 180.093,135.303 180.82,133.639C181.546,131.974 181.918,130.176 181.913,128.36C179.263,126.16 175.583,125.07 170.853,125.07C167.403,125.07 164.533,125.94 162.233,127.67C159.913,129.41 158.753,131.54 158.753,134.1ZM40.813,80C50.908,79.872 60.671,83.599 68.113,90.42L56.473,101.84C52.227,97.888 46.613,95.737 40.813,95.84C35.754,95.871 30.829,97.476 26.724,100.433C22.618,103.389 19.535,107.551 17.903,112.34C16.192,117.303 16.192,122.697 17.903,127.66C19.535,132.449 22.618,136.611 26.724,139.567C30.829,142.524 35.754,144.129 40.813,144.16C46.323,144.16 51.043,142.78 54.713,140.35C59.003,137.55 61.943,133.15 62.853,128.18H40.813V112.78H79.303C79.773,115.47 80.003,118.18 80.003,120.91C80.003,133.08 75.563,143.38 67.863,150.34C61.103,156.46 51.823,160 40.813,160C33.297,160.031 25.919,157.99 19.487,154.102C13.055,150.214 7.819,144.629 4.353,137.96C1.497,132.404 0.008,126.247 0.008,120C0.008,113.753 1.497,107.596 4.353,102.04C7.818,95.372 13.052,89.788 19.482,85.9C25.912,82.012 33.289,79.971 40.803,80H40.813Z" fill="#000" stroke="" stroke-width="" stroke-miterlimit=""/>
	</svg>
