<?xml version="1.0" encoding="utf-8"?>
	<svg version="1.1" xmlns="http://www.w3.org/2000/svg" xmlns:xlink="http://www.w3.org/1999/xlink" x="0px" y="0px" width="240.0" height="240.0" xml:space="preserve">
		<path d="M86.296,119.999C86.296,138.628 101.368,153.7 119.997,153.7C138.626,153.7 153.698,138.628 153.698,119.999C153.698,101.37 138.626,86.298 119.997,86.298C101.368,86.298 86.296,101.346 86.296,119.999ZM213.263,84.039L156.943,86.947C172.231,104.807 172.471,130.576 159.611,150.335L114.42,219.852C133.169,220.861 152.496,216.751 169.995,206.583C213.263,181.584 230.81,129.157 213.263,84.039V84.039ZM73.916,139.205L36.298,65.217C26.009,80.938 20,99.808 20,119.999C20,169.997 56.609,211.414 104.468,218.746L130.165,168.411C106.944,172.786 84.517,160.046 73.916,139.205V139.205ZM126.439,70.578L209.225,74.928C200.763,58.15 187.446,43.559 169.947,33.391C154.106,24.233 136.703,19.882 119.636,20.002C90.19,20.123 61.417,33.271 42.211,57.141L73.027,104.471C80.719,82.38 103.026,69.207 126.439,70.578Z" fill="#000" stroke="" stroke-width="" stroke-miterlimit=""/>
	</svg>
