<?xml version="1.0" encoding="utf-8"?>
	<svg version="1.1" xmlns="http://www.w3.org/2000/svg" xmlns:xlink="http://www.w3.org/1999/xlink" x="0px" y="0px" width="240.0" height="240.0" xml:space="preserve">
		<path d="M164.001,84.994C165.903,85.504 167.251,86.942 169.199,87.395C169.199,90.384 168.293,91.12 167.183,92.966C166.504,94.098 164.715,96.884 164.409,98.186C162.416,98.141 162.439,97.88 161.318,96.884C159.812,95.548 155.237,95.355 150.821,93.396C148.5,92.366 145.465,91.97 143.2,90.633C142.419,90.18 143.031,90.599 142.544,90.078L141.525,88.709C140.789,87.599 140.97,86.84 140.845,85.402C138.082,85.402 136.407,83.84 133.859,84.043C133.01,84.111 133.248,83.749 132.851,85.402C133.542,86.342 134.991,86.942 136.181,87.667C137.585,88.527 138.423,89.128 139.419,90.418C140.778,92.173 142.295,93.328 144.231,94.393C146.292,95.525 148.183,95.774 149.927,97.484C151.535,99.069 158.793,104.108 160.809,104.572C160.718,105.648 160.616,105.659 160.413,106.565H155.623V111.355L143.065,103.916C141.695,102.942 140.189,103.882 138.57,103.44C137.993,103.282 136.249,102.217 135.433,102.081C134.663,101.945 133.022,102.749 132.07,102.976C133.792,99.726 133.361,102.353 135.49,101.142C136.894,100.349 135.785,100.021 135.649,99.454C135.332,98.13 135.762,98.401 135.83,97.575C135.943,96.227 136,96.714 134.517,96.544C133.158,96.386 132.275,96.94 131.097,97.088C129.829,97.246 130.44,96.782 129.33,96.748C128.832,96.737 128.821,96.805 128.085,96.975C127.949,95.31 127.836,95.355 126.907,94.563L124.767,92.932C124.722,92.91 124.597,92.887 124.541,92.876L124.099,92.762C122.933,92.264 122.197,90.837 120.985,90.101C119.626,89.274 117.441,88.131 117.067,86.478C116.592,84.383 118.857,85.719 113.716,83.001L111.643,85.323C110.557,84.621 111.191,84.587 109.718,84.202L110.522,82.209C107.476,82.922 108.518,80.669 105.529,82.039L104.555,82.288C103.377,82.299 103.377,81.948 102.132,81.813C101.905,84.496 101.033,84.168 98.633,84.7C95.587,85.379 97.58,86.206 93.741,86.206C93.288,85.266 93.39,84.745 92.938,83.805C91.884,84.19 92.326,83.862 91.477,85.108C91.443,85.153 91.386,85.266 91.352,85.323L91.137,85.697C90.865,86.059 92.36,85.606 90.537,86.206C89.212,86.829 89.155,86.353 87.842,87.101C86.223,88.029 85.011,90.147 84.151,90.6L81.592,91.234C80.652,91.551 80.731,91.879 79.361,92.196V93.792C81.456,93.792 81.32,93.351 81.761,94.993C80.878,96.204 81.071,95.797 78.965,95.797L81.037,98.118C80.199,99.295 78.874,100.303 78.908,101.322C78.908,101.334 79.236,102.137 79.361,102.59C77.787,102.953 76.541,103.825 74.967,104.187L75.364,105.387H73.371V107.788C77.322,107.878 72.442,108.988 76.971,108.988C76.915,111.705 77.277,111.117 76.688,113.879C76.507,114.717 76.564,115.329 76.564,116.178C80.018,116.099 76.451,115.703 79.361,115.374C79.791,117.231 80.436,118.386 81.354,119.768C79.349,121.104 79.428,121.183 77.017,120.107C73.96,118.737 74.741,119.507 72.567,120.968C71.095,118.771 71.548,120.809 71.763,118.171H70.562L70.075,120.266C69.814,121.942 69.18,122.112 66.961,122.168C66.961,123.674 66.474,126.245 66.995,127.569C67.38,128.543 67.052,126.935 67.425,128.351C67.72,129.46 67.154,129.245 67.289,130.592L67.697,133.706C67.697,133.831 67.686,134.193 67.697,134.306L68.263,136.888C69.52,140.308 68.897,139.391 68.161,142.539C66.961,142.255 65.104,142.188 64.164,141.734C63.27,143.897 65.603,142.142 64.062,143.648C63.032,144.645 63.496,143.84 62.511,143.886C60.518,143.988 61.922,144.271 59.771,144.531C54.075,145.222 50.837,142.754 47.836,143.773C45.028,144.735 44.337,144.543 40.601,144.543C40.103,146.683 39.208,148.427 37,148.936V150.533C39.095,150.703 40.046,151.337 42.594,151.337L43.624,153.466C43.76,154.009 43.454,155.47 43.285,156.41C42.764,159.218 42.175,159.569 44.19,160.916C43.692,162.796 43.318,161.403 43.432,163.283C43.488,164.155 44.145,164.879 44.587,165.717C46.908,165.717 47.667,165.978 49.376,166.114L50.316,163.973C50.724,162.785 49.376,163.067 51.765,162.513C52.15,163.305 52.343,163.939 52.569,164.913C54.687,164.913 54.993,165.185 56.567,165.309C56.567,170.065 58.163,168.808 58.163,172.5H56.567C57.314,174.051 56.748,173.768 56.872,174.809L57.484,176.757C57.518,176.848 57.563,176.95 57.608,177.04C58.186,178.49 58.265,178.49 58.174,180.505C58.061,183.03 57.28,182.453 58.571,182.872V183.676C56.929,183.812 57.733,183.223 56.951,184.525C56.012,186.088 57.948,186.495 58.944,186.891L60.96,187.673C60.79,189.722 60.643,188.171 60.212,190.153C60.133,190.503 60.11,191.059 60.065,191.455C59.952,192.293 60.077,192.111 59.737,192.553C59.703,192.598 56.396,195.52 56.17,195.667C56.68,196.731 56.533,196.097 56.566,197.66C57.347,197.456 57.132,197.456 57.427,197.32L60.156,195.656C61.062,196.131 61.673,196.188 62.363,197.048C63.541,198.509 62.16,198.328 64.153,198.86C64.153,198.69 64.051,197.807 64.051,197.773C64.085,196.901 64.617,196.482 64.923,196.233L66.587,194.501C66.599,194.489 67.38,193.085 67.64,193.549L71.23,192.36C72.951,191.885 71.445,192.315 72.77,192.587C74.197,192.893 73.698,192.009 75.068,192.802C76.133,193.425 75.578,194.24 75.34,195.248C77.786,195.305 78.035,196.901 77.22,198.69C76.189,200.955 76.54,201.849 76.54,204.827C81.67,204.827 78.318,206.027 84.931,206.027V204.827H86.131C86.414,205.993 86.075,205.405 86.935,206.027V204.035H89.732L90.762,206.197C91.532,207.284 91.555,208.643 92.563,209.583C93.808,210.749 96.594,211.531 97.137,213.093C97.885,215.21 96.333,215.629 96.82,217.713C97.228,219.479 97.262,218.732 98.111,220C100.624,220 102.062,219.151 103.931,219.377C105.663,219.581 108.29,220.419 107.69,217.611C109.525,218.46 111.416,216.195 111.891,215.459C113.476,212.968 117.994,209.48 120.701,207.861C121.123,207.612 121.538,207.352 121.946,207.08C123.633,205.959 123.248,206.435 126.057,206.435C126.226,205.948 125.626,206.197 126.068,205.517C126.883,204.295 126.227,205.212 127.461,204.668C129.046,203.966 129.601,204.204 129.657,202.041C133.043,202.834 132.998,201.384 132.851,199.641L135.251,198.836C136.1,199.176 135.489,199.006 135.942,199.346C137.074,200.206 134.957,199.267 136.848,200.037C138.376,199.063 143.642,198.678 148.737,195.949C150.538,194.975 156.55,194.137 158.124,194.341C161.193,194.737 161.08,193.707 163.99,193.639C166.707,193.571 168.723,193.605 170.931,193.345C172.822,193.13 174.871,194.205 176.841,194.398C177.985,194.511 179.219,194.432 180.408,194.511C182.005,194.613 181.971,195.213 182.378,193.651C185.005,193.651 186.817,194.455 189.071,193.515C190.441,192.949 189.682,193.277 190.837,192.971C192.513,192.541 194.075,191.194 195.751,190.639C196.702,190.321 197.121,190.356 197.914,190.005C200.178,188.997 201.028,186.257 201.435,183.086C201.662,181.274 198.401,175.058 197.314,171.536C196.17,167.788 194.019,164.357 191.969,161.3C191.007,159.873 190.973,159.67 190.225,157.858C189.625,156.397 188.98,156.182 188.096,154.789C187.326,153.566 186.794,152.808 186.058,151.63C184.768,149.547 185.288,150.124 183.578,149.32C184.45,148.018 185.164,148.075 185.571,146.524C184.745,146.331 184.564,146.297 183.805,145.901C181.823,144.859 182.978,143.681 181.903,142.209C180.951,140.907 179.74,141.938 177.532,138.597C177.487,138.53 177.418,138.428 177.373,138.348C176.139,136.514 175.992,137.069 175.992,134.136C173.784,134.136 173.082,133.445 172.844,131.294C172.459,127.863 173.467,128.146 169.594,128.146C167.816,124.443 165.37,120.31 162.007,117.762C160.762,116.811 160.037,115.781 158.814,114.966C159.199,114.173 159.391,113.539 159.618,112.565C165.642,112.565 164.408,113.199 164.408,106.971L165.902,108.274C166.094,108.534 166.049,108.568 166.366,108.998L168.857,112.497C169.582,113.494 171.315,114.683 172.39,114.162C174.394,113.177 174.089,108.285 173.024,106.338C171.813,104.096 172.028,103.099 169.775,101.605C168.676,100.88 166.819,99.669 165.608,99.385C165.959,98.083 167.691,95.434 168.427,94.211C169.254,92.829 170.42,90.259 171.598,89.398C172.13,90.191 172.323,90.508 172.798,91.391C175.278,91.188 173.647,90.033 176.252,91.493C183.272,95.4 178.392,93.577 185.695,93.282C187.417,93.215 187.779,92.569 189.489,92.093L195.297,89.919C196.588,89.274 197.517,88.923 198.943,88.379C205.465,85.888 201.412,78.12 198.275,74.712C196.588,72.878 190.711,68.394 189.817,67.194C188.424,65.314 184.959,64.295 181.992,64.238C182.49,63.287 182.909,62.88 183.193,61.838C180.52,61.611 160.92,53.153 156.957,51.319C151.94,48.997 147.343,46.053 141.919,45.193C137.56,44.502 135.08,40.969 130.709,40.029C128.003,39.452 124.515,39.202 122.364,37.595C122.364,37.595 121.152,36.496 121.107,36.451C116.861,31.933 120.292,32.239 110.191,23.395C108.493,21.912 102.186,18.572 98.098,20.678C94.656,22.455 91.112,23.735 87.737,25.898C86.48,26.702 85.993,27.573 84.816,28.559L78.883,33.417C77.128,34.73 74.693,37.3 72.553,37.867L94.588,55.78C95.799,56.754 96.456,57.784 97.724,58.633C97.77,56.346 97.928,57.331 98.925,55.837C105.198,55.837 102.152,55.757 105.549,57.694C106.534,58.26 106.975,58.317 107.315,57.433H108.515C108.595,60.989 112.864,61.951 115.615,63.117C117.302,63.831 119.895,64.159 121.492,65.235C125.24,67.771 129.622,68.473 131.966,70.33L137.922,74.757C140.447,76.388 145.78,79.287 148.543,79.717C152.02,80.261 153.933,80.136 157.296,81.348C159.833,82.276 162.663,82.944 164.033,84.994L164.001,84.994Z" fill="#000" stroke="" stroke-width="" stroke-miterlimit=""/>
		<path d="M182.368,117.752C183.772,117.424 183.681,117.356 185.561,117.356C186.127,114.933 189.852,110.064 185.878,106.656C184.134,105.172 179.628,104.142 177.748,103.598C176.537,103.247 175.359,103.372 173.977,103.372C174.17,103.734 174.804,104.833 174.906,105.263C175.246,106.576 174.091,107.267 175.042,109.475C176.638,113.201 178.405,115.103 182.357,117.753L182.368,117.752ZM186.761,127.343C186.965,129.789 189.32,134.318 191.958,134.533C193.351,132.45 194.483,128.702 189.92,127.354C188.018,126.788 188.708,127.139 186.761,127.343ZM150.413,91.788C150.198,89.241 146.971,86.591 142.419,86.591C142.997,88.742 146.994,91.788 150.413,91.788ZM195.559,133.333C196.442,132.314 196.827,130.74 197.156,129.336C196.08,130.129 195.706,131.488 195.559,133.333ZM163.594,85.798H163.197L163.526,86.262L163.594,85.798Z" fill="#000" stroke="" stroke-width="" stroke-miterlimit=""/>
	</svg>
