<?xml version="1.0" encoding="utf-8"?>
	<svg version="1.1" xmlns="http://www.w3.org/2000/svg" xmlns:xlink="http://www.w3.org/1999/xlink" x="0px" y="0px" width="240.0" height="240.0" xml:space="preserve">
		<path d="M78.218,111.257C78.393,108.927 78.424,105.986 78.947,103.141C79.074,102.427 80.826,101.436 81.729,101.524C90.401,102.387 97.788,98.076 105.675,95.816C106.175,95.674 106.714,95.531 107.142,95.246C114.117,90.577 119.214,94.746 124.12,99.011C127.101,101.595 126.752,103.949 123.597,106.287C120.442,108.626 117.311,110.996 113.205,114.079C121.267,116.766 128.448,119.16 135.621,121.554C136.034,121.213 136.454,120.864 136.866,120.523C132.11,108.729 127.346,96.942 122.59,85.147C122.178,85.211 121.766,85.274 121.346,85.338C121.092,86.368 120.585,87.399 120.617,88.421C120.736,92.448 118.342,92.471 115.401,91.98C114.038,91.75 112.524,91.465 111.24,91.822C103.646,93.914 96.092,96.165 88.546,98.416C87.698,98.67 86.985,99.558 86.16,99.637C84.845,99.772 82.665,99.954 82.269,99.28C79.692,94.929 77.497,90.347 75.396,86.257C88.229,81.573 100.793,77.102 113.253,72.37C116.241,71.237 118.691,69.168 122.17,71.435C124.485,72.941 126.086,73.932 122.654,76.706C124.295,76.849 125.119,76.951 125.951,76.991C131.642,77.308 132.189,78.141 133.822,83.507C136.105,91.021 138.935,98.369 141.685,106.248C154.439,103.949 166.685,101.706 178.947,99.55C181.944,99.027 181.658,96.577 181.872,94.675C182.855,85.924 183.648,77.142 184.48,68.375C184.789,65.102 184.948,61.812 185.312,58.546C185.843,53.838 188.348,52.38 192.684,54.155C193.778,54.607 194.848,55.122 195.854,55.74C202.529,59.862 203.662,59.157 198.985,66.679C196.401,70.84 196.37,76.722 195.68,81.898C194.665,89.451 194.134,97.069 193.302,104.654C193.056,106.913 193.231,108.364 195.743,109.561C201.118,112.129 203.456,117.432 202.481,123.813C202.005,126.912 201.157,129.956 200.412,133.316C201.371,133.863 202.457,134.49 203.995,135.369C197.4,134.244 199.033,140.133 196.156,142.884C206.785,144.849 209.639,153.917 213.982,161.035C218.159,167.876 215.48,176 209.203,181.604C207.681,182.968 206.817,185.076 205.659,186.844C202.655,191.417 200.476,196.942 196.481,200.358C188.546,207.151 179.637,212.827 171.053,218.843C169.951,219.612 168.342,219.984 166.963,219.984C150.254,220.008 133.545,219.929 116.836,219.857C116.463,219.857 116.099,219.675 114.87,219.358C118.492,215.339 121.497,211.241 125.238,207.999C132.538,201.674 133.878,194.596 130.271,185.75C126.458,176.397 123.454,166.711 120.014,157.207C116.566,147.695 109.25,144.041 99.746,147.116C82.007,152.863 64.331,158.784 46.56,164.42C39.981,166.504 36.208,170.785 34.575,177.284C32.641,184.997 30.675,192.709 28.757,200.311C25.824,197.838 26.435,189.967 31.397,177.047C34.084,170.056 33.156,167.123 48.28,160.441C46.528,158.166 44.539,156.026 43.072,153.584C40.48,149.272 41.178,146.379 44.214,142.416C45.244,141.069 45.379,138.619 45.133,136.788C43.659,125.961 37.833,117.257 31.111,109.038C29.233,106.739 27.275,104.496 25,101.809C36.589,107.183 45.664,122.378 48.248,140.26C53.836,140.205 57.609,143.613 60.883,147.647C62.262,149.352 63.435,149.819 65.52,148.979C68.413,147.806 71.465,147.013 74.58,146.007C75.143,140.316 74.485,134.188 80.271,130.376C77.275,129.591 74.477,128.854 71.861,128.164C78.662,124.629 85.233,121.213 92.684,117.337C88.8,115.26 86.184,113.857 82.744,112.018C87.381,110.251 91.233,108.752 95.125,107.349C95.656,107.159 96.394,107.389 96.996,107.563C98.827,108.095 101.173,109.704 102.338,109.077C104.946,107.666 106.967,105.154 109.226,103.085C109.044,102.784 108.854,102.483 108.672,102.181C98.827,105.13 89.006,108.047 78.218,111.257ZM143.73,154.012C149.176,142.654 156.928,132.968 169.983,131.137C178.139,129.995 180.786,126.428 181.151,119.295C181.167,118.906 181.317,118.518 181.349,118.129C181.674,113.992 179.811,112.034 175.769,112.359C171.314,112.724 166.86,113.088 162.421,113.595C146.972,115.347 146.972,115.371 140.607,122.093C143.334,122.386 145.989,122.663 148.645,122.949C148.724,123.266 148.803,123.575 148.89,123.892C146.425,124.899 144.047,126.238 141.487,126.856C130.422,129.512 119.467,128.188 108.886,124.629C104.066,123.012 100.198,122.774 95.775,125.683C92.7,127.705 88.808,128.465 85.114,129.853C92.058,131.906 91.741,137.993 92.351,144.033C96.156,143.843 99.802,143.375 103.408,143.573C106.872,143.764 110.423,144.255 113.697,145.341C117.763,146.688 121.576,148.797 125.515,150.533C127.647,151.468 129.819,152.308 131.967,153.196C131.896,153.434 131.825,153.664 131.753,153.901C128.289,153.022 124.826,152.15 120.728,151.103C125.713,165.197 130.445,178.576 135.296,192.313C136.24,191.172 137.056,190.347 137.698,189.396C143.873,180.281 150.032,171.149 156.167,162.002C156.444,161.59 156.595,161.035 156.658,160.528C157.348,155.217 160.518,151.452 164.379,148.115C167.161,145.706 170.157,143.502 172.685,140.855C174.54,138.92 175.801,136.424 177.806,133.467C161.937,134.561 152.655,143.867 143.73,154.012ZM190.528,146.649C191.764,144.604 192.597,143.288 193.381,141.94C197.432,134.997 199.968,127.617 199.572,119.477C199.358,115.086 195.759,111.487 191.55,111.122C187.682,110.782 185.574,112.7 184.306,117.804C183.989,119.073 183.759,120.373 183.608,121.673C182.689,129.67 180.438,137.161 174.762,143.129C172.051,145.975 168.96,148.456 165.988,151.04C159.131,157.001 157.34,164.563 159.163,173.131C160.954,181.557 166.971,185.98 174.683,188.27C186.921,191.893 204.169,185.266 210.59,174.225C212.088,171.649 213.134,167.472 212.088,165.006C209.631,159.244 205.929,153.981 202.386,148.741C201.585,147.56 199.453,146.982 197.836,146.728C195.672,146.395 193.421,146.649 190.528,146.649ZM107.586,87.248C113.578,86.765 114.093,86.075 112.873,80.368C107.007,81.533 107.007,81.533 107.586,87.248ZM96.314,90.585C102.41,89.412 102.497,89.277 101.363,83.467C99.065,84.228 96.806,84.973 94.325,85.797C95.07,87.589 95.648,88.984 96.314,90.585ZM75.277,149.439C71.37,150.327 68.421,150.992 65.465,151.666C65.354,152.063 65.243,152.459 65.132,152.855C66.321,153.347 67.771,154.528 68.643,154.195C70.839,153.37 74.184,153.989 75.277,149.439ZM90.639,92.448C90.044,90.752 89.513,89.23 88.919,87.533C87.009,88.239 85.51,88.794 83.727,89.46C84.615,91.29 85.265,92.646 85.97,94.112C87.659,93.51 88.99,93.034 90.639,92.448Z" fill="#000" stroke="" stroke-width="" stroke-miterlimit=""/>
		<path d="M116.851,55.114C115.567,59.727 114.187,63.793 113.347,67.971C112.554,71.934 110.073,72.544 106.721,72.338C99.618,71.902 93.238,73.828 87.887,78.616C84.527,81.62 82.751,80.938 80.769,77.157C78.177,72.211 74.951,67.535 71.543,63.096C68.745,59.442 68.555,58.38 72.209,55.605C73.453,54.662 74.682,53.703 76.132,52.577C78.296,55.938 81.094,55.035 84.059,54.02C89.401,52.197 94.855,50.683 100.173,48.789C101.759,48.226 102.94,46.181 104.485,45.935C107.307,45.491 111.27,44.707 112.959,46.157C117.881,50.374 122.526,50.596 128.463,48.813C142.794,44.5 157.339,40.894 171.749,36.812C173.58,36.297 175.538,34.997 176.671,33.483C178.986,30.391 181.483,29.71 184.804,31.501C189.076,33.808 193.452,35.956 197.597,38.484C198.778,39.206 200.205,41.338 199.888,42.257C199.389,43.676 197.605,45.38 196.163,45.586C190.709,46.371 185.05,45.999 179.707,47.164C163.934,50.604 148.271,54.567 132.569,58.332C132.188,58.419 131.839,58.625 131.483,58.792C124.412,62.121 124.42,62.121 118.832,56.739C118.396,56.319 117.889,55.962 116.851,55.114ZM105.119,55.336C104.81,54.995 104.501,54.654 104.184,54.313C97.367,56.691 90.551,59.077 83.726,61.455C83.686,61.939 83.647,62.422 83.599,62.914C84.867,63.215 86.302,64.055 87.38,63.722C92.493,62.137 97.55,60.346 102.512,58.356C103.613,57.92 104.263,56.374 105.119,55.336ZM87.317,71.442C87.721,71.649 88.133,71.863 88.537,72.069C93.198,70.372 97.827,68.573 102.535,67.02C104.985,66.211 105.024,64.824 104.018,62.24C98.81,64.293 93.689,66.203 88.688,68.399C87.935,68.74 87.761,70.396 87.317,71.442Z" fill="#000" stroke="" stroke-width="" stroke-miterlimit=""/>
		<path d="M185.053,59.513C179.084,66.592 179.298,74.7 178.981,82.706C178.775,87.795 178.466,92.884 178.133,99.161C166.227,94.326 155.241,95.721 145.714,101.92C140.522,91.56 135.671,81.866 130.82,72.18C129.346,69.231 132.683,62.692 135.917,62.097C144.239,60.568 152.586,59.157 160.853,57.381C165.038,56.486 169.025,54.718 173.195,53.735C174.804,53.354 176.92,53.6 178.363,54.385C180.638,55.598 182.524,57.516 185.053,59.513ZM160.156,73.48C169.77,73.171 170.698,72.259 168.906,64.919C165.752,65.506 162.597,66.1 159.141,66.75C159.522,69.239 159.847,71.379 160.156,73.48ZM151.991,68.217C148.979,68.874 146.134,69.501 142.995,70.19C143.875,72.576 144.58,74.51 145.405,76.753C148.107,76.191 150.581,75.683 153.188,75.136C152.99,73.242 152.879,71.815 152.681,70.404C152.594,69.786 152.316,69.2 151.991,68.217ZM161.86,87.953C168.978,87.629 169.453,86.994 168.256,79.282C165.886,79.662 163.524,80.051 160.893,80.471C161.25,83.205 161.559,85.591 161.86,87.953ZM154.552,81.66C151.841,82.278 149.74,82.754 147.442,83.277C148.203,85.924 148.845,88.144 149.59,90.704C151.785,90.292 153.767,89.927 156.034,89.499C155.535,86.828 155.083,84.458 154.552,81.66Z" fill="#000" stroke="" stroke-width="" stroke-miterlimit=""/>
		<path d="M66.897,219.247C59.748,219.2 56.981,217.321 55.007,211.463C51.948,202.388 48.968,193.288 46.09,184.149C43.903,177.205 46.574,171.847 53.438,169.54C68.364,164.523 83.313,159.585 98.294,154.734C104.167,152.831 109.565,155.209 111.793,160.964C115.494,170.507 118.99,180.138 122.248,189.832C124.483,196.49 121.621,201.944 114.971,204.171C100.164,209.125 85.318,213.936 70.464,218.74C69.006,219.215 67.373,219.184 66.897,219.247ZM101.48,155.614C100.791,155.701 99.832,155.677 98.976,155.954C83.535,161.035 68.062,166.037 52.693,171.34C47.747,173.044 45.654,177.855 47.232,182.928C50.18,192.44 53.264,201.92 56.45,211.352C58.353,216.98 62.926,219.54 68.562,217.773C84.201,212.866 99.792,207.785 115.328,202.562C120.496,200.826 122.826,195.888 121.082,190.815C117.714,181.026 114.139,171.3 110.548,161.582C109.066,157.571 105.967,155.669 101.48,155.614Z" fill="#000" stroke="" stroke-width="" stroke-miterlimit=""/>
		<path d="M63.091,94.025C69.551,92.598 73.704,96.363 77.604,100.128C76.542,102.625 75.48,104.797 74.679,107.064C71.271,116.79 65.073,122.013 55.672,122.338C60.864,113.389 63.638,104.068 63.186,93.977L63.091,94.025Z" fill="#000" stroke="" stroke-width="" stroke-miterlimit=""/>
		<path d="M63.197,93.986C62.825,93.407 62.04,92.733 62.151,92.273C63.451,86.852 60.962,83.174 56.84,80.17C56.539,79.948 56.325,79.599 56.103,79.298C56.032,79.203 56.063,79.044 56,78.529C61.319,77.285 66.566,76.944 71.457,79.932C75.903,82.651 75.975,87.201 71.567,89.983C68.944,91.639 65.948,92.702 63.102,94.033C63.094,94.025 63.197,93.986 63.197,93.986Z" fill="#000" stroke="" stroke-width="" stroke-miterlimit=""/>
		<path d="M52.461,63.976C57.296,63.976 61.933,63.73 66.522,64.103C68.29,64.245 70.224,65.49 71.572,66.774C73.878,68.97 73.831,73.48 71.881,75.382C69.907,77.308 66.332,76.96 63.748,74.55C60.158,71.213 56.591,67.852 52.461,63.976Z" fill="#000" stroke="" stroke-width="" stroke-miterlimit=""/>
		<path d="M26.641,97.227C45.45,73.052 44.626,70.737 46.488,43.272C52.188,63.278 43.468,86.479 26.641,97.227Z" fill="#000" stroke="" stroke-width="" stroke-miterlimit=""/>
		<path d="M59.469,42.321C66.753,40.902 76.741,40.648 85.119,36.844C93.41,33.079 100.068,25.731 107.392,20C100.702,36.416 79.348,45.793 59.469,42.321Z" fill="#000" stroke="" stroke-width="" stroke-miterlimit=""/>
		<path d="M101.483,155.613C105.962,155.669 109.069,157.571 110.551,161.582C114.142,171.3 117.709,181.025 121.085,190.815C122.837,195.895 120.499,200.826 115.331,202.562C99.795,207.785 84.204,212.866 68.565,217.772C62.929,219.54 58.355,216.98 56.453,211.352C53.267,201.92 50.183,192.44 47.235,182.928C45.657,177.847 47.758,173.044 52.696,171.339C68.065,166.037 83.538,161.035 98.979,155.954C99.842,155.677 100.802,155.7 101.483,155.613ZM83.498,186.986C82.618,189.237 82.317,192.051 80.748,193.581C77.474,196.775 77.276,191.044 74.953,190.886C73.725,193.486 74.28,195.38 76.555,196.664C79.709,198.448 82.349,197.084 85.472,192.012C88.872,193.002 92.098,192.971 93.604,189.047C94.31,187.2 94.714,184.989 91.932,183.998C89.8,190.26 89.8,190.26 83.498,186.986ZM100.675,178.204C100.675,178.212 100.675,178.212 100.675,178.219C102.902,178.219 105.153,178.378 107.357,178.132C108.062,178.053 109.164,176.88 109.148,176.246C109.124,175.525 108.023,174.225 107.412,174.24C102.966,174.336 98.519,174.637 94.088,175.049C93.485,175.104 92.978,176.159 92.423,176.753C93.073,177.237 93.7,178.085 94.389,178.148C96.466,178.323 98.574,178.204 100.675,178.204ZM72.409,183.491C70.325,183.491 68.779,183.007 68.105,183.57C64.435,186.629 60.979,189.943 57.412,193.208C60.345,195.483 66.234,191.75 72.409,183.491Z" fill="#ffffffff" stroke="" stroke-width="" stroke-miterlimit=""/>
		<path d="M83.495,186.986C89.796,190.26 89.796,190.26 91.928,183.99C94.711,184.981 94.314,187.193 93.601,189.039C92.095,192.963 88.877,193.003 85.468,192.004C82.345,197.077 79.706,198.44 76.551,196.657C74.276,195.373 73.721,193.47 74.95,190.878C77.272,191.037 77.463,196.776 80.744,193.573C82.314,192.051 82.615,189.238 83.495,186.986Z" fill="#000" stroke="" stroke-width="" stroke-miterlimit=""/>
		<path d="M100.673,178.204C98.573,178.204 96.464,178.323 94.388,178.14C93.698,178.077 93.08,177.237 92.422,176.745C92.977,176.151 93.484,175.097 94.086,175.041C98.517,174.629 102.964,174.328 107.411,174.233C108.021,174.217 109.123,175.517 109.147,176.238C109.17,176.88 108.061,178.045 107.355,178.124C105.152,178.37 102.909,178.212 100.673,178.212C100.673,178.212 100.673,178.204 100.673,178.204Z" fill="#000" stroke="" stroke-width="" stroke-miterlimit=""/>
		<path d="M72.411,183.491C66.236,191.758 60.347,195.483 57.406,193.208C60.973,189.943 64.429,186.629 68.099,183.57C68.781,183.007 70.326,183.491 72.411,183.491Z" fill="#000" stroke="" stroke-width="" stroke-miterlimit=""/>
	</svg>
