<?xml version="1.0" encoding="utf-8"?>
	<svg version="1.1" xmlns="http://www.w3.org/2000/svg" xmlns:xlink="http://www.w3.org/1999/xlink" x="0px" y="0px" width="240.0" height="240.0" xml:space="preserve">
		<path d="M119.897,199.471C92.019,199.471 64.137,199.466 36.259,199.477C30.594,199.477 25.593,198.093 22.196,193.103C20.773,191.016 20.007,188.748 20.007,186.196C20.013,148.112 19.985,110.027 20.013,71.943C20.018,63.891 25.763,58.265 33.861,58.254C55.216,58.226 76.578,58.214 97.934,58.282C100.378,58.288 102.204,57.63 103.922,55.827C108.283,51.239 112.865,46.861 117.299,42.342C118.859,40.754 120.6,40.051 122.845,40.057C149.872,40.113 176.904,40.352 203.931,40C213.452,39.875 220.001,45.892 219.928,56.105C219.639,97.212 219.809,138.324 219.82,179.431C219.82,181.507 220.098,183.593 219.967,185.652C219.423,194.045 213.628,199.307 204.668,199.437C197.109,199.545 189.55,199.466 181.985,199.466C161.287,199.471 140.595,199.471 119.897,199.471Z" fill="#000" stroke="" stroke-width="" stroke-miterlimit=""/>
	</svg>
