<?xml version="1.0" encoding="utf-8"?>
	<svg version="1.1" xmlns="http://www.w3.org/2000/svg" xmlns:xlink="http://www.w3.org/1999/xlink" x="0px" y="0px" width="240.0" height="240.0" xml:space="preserve">
		<path d="M215.021,93.064C209.88,98.751 203.732,103.055 196.784,106.233C195.962,106.607 195.739,107.104 195.739,107.959C195.761,124.043 195.724,140.128 195.771,156.213C195.786,161.434 194.983,166.491 193.356,171.435C193.268,171.705 193.217,171.986 193.15,172.262C192.268,174.127 191.485,176.048 190.489,177.851C184.476,188.73 175.515,195.974 163.567,199.475C159.3,200.725 154.927,201.182 150.486,201.177C129.982,201.16 109.475,201.167 88.971,201.171C78.832,201.173 69.691,198.167 61.595,192.066C58.394,189.655 55.625,186.786 53.167,183.619C50.272,179.69 47.973,175.446 46.457,170.797C45.305,167.264 44.621,163.648 44.35,159.928C44.193,157.789 44.204,155.659 44.202,153.524C44.185,138.371 44.183,123.217 44.213,108.063C44.215,107.078 43.945,106.562 43.016,106.141C37.157,103.483 31.922,99.878 27.256,95.46C26.046,94.315 24.995,93.002 23.873,91.767C23.13,90.351 22.104,89.107 21.441,87.638C19.261,82.818 19.432,78.23 22.8,73.996C24.828,71.448 27.659,70.08 30.688,69.151C35.579,67.648 40.628,67.395 45.69,67.628C50.356,67.842 54.934,68.701 59.411,70.059C59.751,70.161 60.12,70.487 60.494,70.097C60.893,70.087 61.116,69.772 61.392,69.56C65.329,66.534 69.644,64.228 74.346,62.622C79.787,60.764 85.397,60.181 91.108,60.286C91.607,60.297 92.106,60.314 92.604,60.314C110.837,60.316 129.07,60.316 147.302,60.314C147.838,60.314 148.371,60.284 148.906,60.269C149.938,60.28 150.97,60.286 152.002,60.305C157.535,60.408 162.88,61.434 168.03,63.492C172.194,65.155 175.967,67.474 179.502,70.202C180.393,70.36 181.145,69.853 181.945,69.639C187.699,68.099 193.547,67.382 199.493,67.609C203.673,67.768 207.805,68.309 211.679,70.022C216.008,71.937 219.072,74.962 219.845,79.831C220.372,83.144 219.501,86.184 217.85,89.047C217.027,90.475 215.989,91.743 215.021,93.064ZM120.042,132.863C108.839,132.863 97.636,132.863 86.434,132.863C85.183,132.863 83.941,132.923 82.699,133.084C70.865,134.611 62.019,146.297 63.766,158.115C65.471,169.645 74.667,177.617 86.313,177.622C108.79,177.63 131.267,177.624 153.745,177.626C154.782,177.626 155.809,177.564 156.842,177.45C169.16,176.099 178.265,164.016 176.17,151.783C174.25,140.572 165.143,132.876 153.76,132.868C142.519,132.855 131.279,132.863 120.042,132.863ZM86.667,129.384C100.024,129.371 110.921,118.549 110.938,105.284C110.955,91.942 100.065,81.086 86.667,81.088C73.261,81.09 62.392,91.929 62.4,105.284C62.409,118.541 73.34,129.399 86.667,129.384ZM153.587,129.386C166.985,129.384 177.819,118.556 177.819,105.171C177.819,91.884 166.948,81.086 153.574,81.088C140.159,81.09 129.32,91.916 129.34,105.291C129.357,118.585 140.23,129.388 153.587,129.386ZM37.626,77.245C36.307,77.245 34.984,77.176 33.671,77.26C31.391,77.405 29.119,77.677 27.04,78.739C24.781,79.893 24.096,81.364 24.614,83.825C25.126,86.251 26.271,88.375 27.794,90.291C32.068,95.672 37.583,99.479 43.59,102.655C44.534,103.154 44.3,102.376 44.324,101.976C44.801,93.769 47.39,86.287 52.043,79.519C52.495,78.861 52.386,78.671 51.645,78.549C47.003,77.786 42.356,77.054 37.626,77.245ZM195.788,102.845C195.96,102.815 196.075,102.822 196.163,102.777C202.172,99.668 207.666,95.882 211.985,90.591C213.741,88.439 215.025,86.043 215.507,83.246C215.824,81.414 215.126,80.127 213.666,79.146C212.921,78.647 212.103,78.296 211.24,78.048C209.411,77.523 207.537,77.315 205.645,77.213C199.91,76.9 194.249,77.497 188.617,78.517C187.455,78.726 187.448,78.718 188.112,79.694C191.341,84.439 193.557,89.617 194.789,95.223C195.335,97.728 195.572,100.274 195.788,102.845Z" fill="#000" stroke="" stroke-width="" stroke-miterlimit=""/>
		<path d="M179.5,70.204C175.963,67.476 172.192,65.157 168.027,63.494C162.878,61.436 157.533,60.408 152,60.307C150.968,60.288 149.936,60.284 148.904,60.271C150.403,55.436 151.865,50.59 153.407,45.768C155.266,39.957 161.691,37.636 166.646,39.852C169.214,41 171.104,42.88 171.946,45.565C174.52,53.764 176.991,61.991 179.5,70.204Z" fill="#000" stroke="" stroke-width="" stroke-miterlimit=""/>
		<path d="M91.106,60.29C85.395,60.185 79.787,60.768 74.344,62.626C69.642,64.232 65.327,66.541 61.39,69.564C61.113,69.776 60.891,70.089 60.492,70.102C61.908,65.545 63.329,60.993 64.739,56.434C65.779,53.064 66.783,49.683 67.841,46.319C69.507,41.023 74.237,38.066 79.633,39.268C82.963,40.008 85.427,42.193 86.523,45.49C88.155,50.389 89.588,55.353 91.106,60.29Z" fill="#000" stroke="" stroke-width="" stroke-miterlimit=""/>
		<path d="M93.515,150.832C95.896,150.822 97.816,152.691 97.857,155.064C97.9,157.449 95.925,159.436 93.525,159.427C91.163,159.417 89.254,157.5 89.249,155.13C89.243,152.753 91.14,150.843 93.515,150.832Z" fill="#000" stroke="" stroke-width="" stroke-miterlimit=""/>
		<path d="M142.181,155.068C142.202,152.687 144.103,150.822 146.495,150.832C148.868,150.843 150.78,152.757 150.775,155.121C150.771,157.522 148.788,159.468 146.388,159.427C144.024,159.385 142.157,157.451 142.181,155.068Z" fill="#000" stroke="" stroke-width="" stroke-miterlimit=""/>
		<path d="M74.676,94.295C73.794,96.616 73.809,98.745 75.346,100.653C76.327,101.873 77.609,102.593 79.185,102.745C82.363,103.053 85.187,100.775 85.483,97.67C85.611,96.306 85.312,95.045 84.549,93.906C83.811,92.803 82.791,92.053 81.536,91.619C80.26,91.178 78.965,91.375 77.669,91.572C85.202,86.582 95.129,88.608 100.062,96.068C104.97,103.49 102.96,113.483 95.557,118.459C88.198,123.408 78.134,121.438 73.138,114.072C68.999,107.973 69.723,97.736 74.676,94.295Z" fill="#000" stroke="" stroke-width="" stroke-miterlimit=""/>
		<path d="M141.936,94.246C139.643,98.591 143.142,103.149 147.414,102.762C150.638,102.468 153.043,99.539 152.611,96.377C152.161,93.09 149.133,90.852 145.921,91.435C145.611,91.49 145.305,91.561 144.968,91.629C145.005,91.158 145.384,91.107 145.634,90.961C151.112,87.734 158.246,88.075 163.357,92.036C168.871,96.31 170.892,102.012 169.406,108.819C168.053,115.022 162.792,119.866 156.546,120.928C149.66,122.099 142.975,118.952 139.59,112.943C136.247,107.012 136.971,99.608 141.401,94.469C141.515,94.338 141.656,94.233 141.787,94.115C141.832,94.165 141.883,94.207 141.936,94.246Z" fill="#000" stroke="" stroke-width="" stroke-miterlimit=""/>
	</svg>
