<?xml version="1.0" encoding="utf-8"?>
	<svg version="1.1" xmlns="http://www.w3.org/2000/svg" xmlns:xlink="http://www.w3.org/1999/xlink" x="0px" y="0px" width="240.0" height="240.0" xml:space="preserve">
		<path d="M237.505,61.845C238.09,61.893 238.631,62.478 240,63.291C238.123,65.274 236.558,67.102 234.817,68.74C223.263,79.601 211.77,90.526 200.035,101.189C196.194,104.68 194.975,108.056 196.39,113.272C201.565,132.337 206.277,151.527 211.137,170.677C211.749,173.092 212.205,175.547 213.128,179.797C203.07,179.797 193.779,179.883 184.491,179.777C171.295,179.625 173.077,180.803 170.306,168.427C167.667,156.628 165.169,144.8 162.479,132.388C150.744,140.54 142.891,149.312 139.911,163.211C136.642,178.46 138.077,179.814 129.47,179.849L128.779,179.849C127.355,179.845 125.677,179.817 123.691,179.813L122.672,179.813C121.452,179.815 120.124,179.829 118.677,179.862C112.523,180.004 106.362,179.883 99.136,179.883C99.741,176.423 99.984,174.016 100.594,171.709C109.668,137.271 118.86,102.865 127.827,68.4C129.129,63.396 131.373,61.108 136.808,61.312C146.554,61.675 156.324,61.414 167.227,61.414C163.303,77.142 159.78,91.267 156.255,105.394C156.693,105.659 157.133,105.922 157.572,106.189C159.95,103.94 161.947,102.141 164.078,100.218L164.507,99.832C169.384,95.431 175.129,90.198 187.755,77.456C206.323,58.718 218.835,60.334 237.505,61.845ZM39.594,61.169C63.479,61.552 87.374,61.348 111.267,61.402C113.748,61.409 116.229,61.661 120.497,61.9C118.008,70.65 116.01,78.733 113.207,86.527C112.723,87.874 108.845,88.548 106.514,88.594C93.883,88.845 81.241,89.061 68.616,88.741C62.889,88.597 60.179,90.8 59.208,96.22C58.375,100.868 57.105,105.44 55.687,111.502C65.476,111.502 73.914,111.706 82.334,111.433C88.226,111.244 89.295,113.368 87.836,118.881C82.561,138.829 82.716,138.74 61.873,138.97C46.029,139.145 48.954,136.834 44.566,152.065C42.405,159.569 40.521,167.156 38.16,174.594C37.559,176.485 35.669,179.344 34.289,179.393C23.158,179.785 12.007,179.613 0,179.613C0.909,175.18 1.423,171.836 2.288,168.584C11.08,135.511 20.081,102.495 28.626,69.361C30.263,63.013 33.179,61.067 39.594,61.169Z" fill="#000" stroke="#00000000" stroke-width="1.0" stroke-miterlimit=""/>
	</svg>
