<?xml version="1.0" encoding="utf-8"?>
	<svg version="1.1" xmlns="http://www.w3.org/2000/svg" xmlns:xlink="http://www.w3.org/1999/xlink" x="0px" y="0px" width="240.0" height="240.0" xml:space="preserve">
		<path d="M66.584,122.606C66.584,122.606 78.534,120.166 80.242,121.63L86.095,165.041L76.339,166.258L66.584,122.606ZM71.219,98.706L78.048,98.706L79.997,115.536L73.654,115.536L71.219,98.706L71.219,98.706ZM63.412,100.415L69.751,99.864L71.705,116.328L66.158,117.24L63.412,100.415L63.412,100.415ZM79.997,79.91C79.997,79.91 93.901,78.447 94.387,79.91L101.216,161.856L90.605,161.856L79.997,79.91ZM104.388,123.097L117.801,123.097L117.801,167.24L108.046,167.24L104.388,123.097ZM111.092,100.656L117.801,100.656L117.801,117.24L111.092,117.24L111.092,100.656ZM102.925,100.656L108.777,100.656L108.777,117.24L102.925,117.24L102.925,100.656ZM22.196,134.07L18.534,67C16.352,68.949 0,74.315 0,74.315C5.594,93.585 13.172,173.824 13.172,173.824C51.583,175.046 67.561,158.229 68.533,154.313C69.121,151.991 69.121,149.56 68.533,147.238C59.264,131.876 22.196,134.07 22.196,134.07ZM33.793,163.1L31.383,143.998L49.13,151.464L33.793,163.1ZM190.732,147.242C181.463,131.876 144.391,134.07 144.391,134.07L140.716,67C138.538,68.949 122.212,74.315 122.212,74.315C127.806,93.581 135.384,173.824 135.384,173.824C173.782,175.046 189.773,158.229 190.732,154.313C191.319,151.992 191.319,149.563 190.732,147.242ZM155.988,163.104L153.578,144.002L171.325,151.468L155.988,163.104ZM188.779,122.606C188.779,122.606 200.729,120.166 202.437,121.63L208.277,165.045L198.521,166.263L188.779,122.606ZM193.413,98.706L200.242,98.706L202.192,115.536L195.853,115.536L193.413,98.706L193.413,98.706ZM185.607,100.415L191.95,99.864L193.899,116.328L188.353,117.24L185.607,100.415ZM202.192,79.91C202.192,79.91 216.096,78.447 216.582,79.91L223.411,161.856L212.804,161.856L202.192,79.91ZM226.583,123.097L239.996,123.097L239.996,167.24L230.24,167.24L226.583,123.097ZM233.291,100.656L240,100.656L240,117.24L233.291,117.24L233.291,100.656ZM225.119,100.656L230.972,100.656L230.972,117.24L225.119,117.24L225.119,100.656Z" fill="#000" stroke="#00000000" stroke-width="1.0" stroke-miterlimit=""/>
	</svg>
