<?xml version="1.0" encoding="utf-8"?>
	<svg version="1.1" xmlns="http://www.w3.org/2000/svg" xmlns:xlink="http://www.w3.org/1999/xlink" x="0px" y="0px" width="240.0" height="240.0" xml:space="preserve">
		<path d="M69.593,216.495L50.081,216.495L50.081,140.885C43.577,156.612 36.261,170.154 28.13,181.536C25.986,174.022 23.268,166.683 20,159.584C32.461,143.324 42.485,123.545 50.081,100.235L24.065,100.235L24.065,80.724L50.081,80.724L50.081,52.268C43.031,52.815 35.447,53.081 27.317,53.081C26.771,46.044 25.959,39.806 24.878,34.381C48.722,33.302 70.674,31.942 90.732,30.316L93.983,49.015C85.829,49.564 77.695,50.378 69.593,51.454L69.593,80.723L92.357,80.723L92.357,100.234L69.593,100.234L69.593,118.933L70.406,118.12C79.616,124.09 89.106,131.408 98.862,140.071L88.293,156.331L69.594,139.258L69.594,216.495L69.593,216.495ZM178.539,23L199.677,30.317C195.61,36.82 191.545,43.324 187.482,49.829C184.23,54.173 182.058,57.425 180.977,59.585L206.994,59.585L206.994,140.885L178.539,140.885L178.539,183.975C177.993,190.479 181.245,193.731 188.295,193.731L191.546,193.731C196.957,193.731 200.21,190.757 201.302,184.787C201.302,183.708 201.569,181.269 202.115,177.47C202.648,170.433 202.927,165.008 202.927,161.21C205.087,161.757 208.072,162.836 211.871,164.462C215.656,166.088 218.375,167.18 220,167.713C219.452,176.936 218.374,185.879 216.747,194.544C214.574,207.551 206.178,213.776 191.544,213.244L183.414,213.244C166.062,213.777 157.665,205.646 158.211,188.853L158.211,140.885L141.139,140.885L141.139,148.203C141.673,178.564 126.225,201.581 94.798,217.309C88.294,209.178 83.95,203.487 81.79,200.236C107.807,188.853 120.814,171.247 120.814,147.391L120.814,140.886L99.676,140.886L99.676,59.586L125.692,59.586C124.067,56.88 121.081,52.002 116.749,44.952C112.405,38.448 109.432,33.569 107.807,30.317L126.506,23C136.261,37.101 142.487,47.124 145.206,53.081L126.506,59.585L159.026,59.585C161.732,54.706 166.064,46.577 172.035,35.195C174.741,29.783 176.913,25.718 178.539,23ZM186.665,79.096L120.813,79.096L120.813,121.372L186.665,121.372L186.665,79.096Z" fill="#000" stroke="#00000000" stroke-width="1.0" stroke-miterlimit=""/>
	</svg>
