<?xml version="1.0" encoding="utf-8"?>
	<svg version="1.1" xmlns="http://www.w3.org/2000/svg" xmlns:xlink="http://www.w3.org/1999/xlink" x="0px" y="0px" width="240.0" height="240.0" xml:space="preserve">
		<path d="M46.771,164.146C46.485,172.925 48.99,175.662 55.057,175.765C58.339,175.821 60.83,174.804 62.195,171.628C62.475,170.977 62.837,170.055 63.6,170.041C64.68,170.021 64.529,171.231 64.904,171.907C66.338,174.493 67.512,177.26 69.212,179.654C76.805,190.344 87.536,196.557 99.969,199.545C116.124,203.427 132.235,203.054 147.954,196.933C160.293,192.127 169.599,184.071 175.114,171.873C175.409,171.221 175.375,170.19 176.184,170.051C177.204,169.876 177.417,170.994 177.837,171.643C180.438,175.657 184.918,176.996 189.274,174.965C191.721,173.823 193.246,171.985 193.314,169.16C193.374,166.659 193.226,164.174 192.953,161.682C192.069,153.644 189.58,145.95 187.976,138.066C187.58,136.121 187.838,135.053 189.816,134.184C192.893,132.833 193.255,130.823 190.943,128.312C189.596,126.852 189.311,125.334 189.491,123.496C190.923,108.906 188.063,95.348 179.79,83.077C177.714,79.997 177.88,79.71 181.192,78.059C188.837,74.247 196.019,69.686 202.451,64.065C206.667,60.38 209.6,55.828 209.966,49.993C210.498,41.494 204.79,36.609 196.444,38.35C191.024,39.481 186.394,42.077 182.501,45.916C176.486,51.85 171.496,58.635 166.87,65.674C163.989,70.058 163.983,70.172 159.354,67.507C152.9,63.793 146.173,60.772 138.791,59.469C118.011,55.801 97.897,56.685 79.299,68.153C76.17,70.081 75.745,69.792 73.665,66.545C68.817,58.975 63.548,51.701 57.027,45.487C52.365,41.044 46.828,38.06 40.167,38.097C33.786,38.133 30.06,42.089 30,48.41C29.938,55.167 33.142,60.315 38.042,64.487C44.472,69.963 51.539,74.521 59.146,78.222C62.056,79.638 62.193,80.068 60.44,82.65C52.258,94.704 49.198,108.067 50.368,122.463C50.565,124.883 50.567,126.893 48.684,128.801C46.874,130.634 47.166,132.985 49.448,133.805C52.688,134.969 52.315,136.887 51.749,139.441C49.77,148.368 46.951,157.144 46.771,164.146" fill="#000" stroke="#00000000" stroke-width="1.0" stroke-miterlimit=""/>
	</svg>
