<?xml version="1.0" encoding="utf-8"?>
	<svg version="1.1" xmlns="http://www.w3.org/2000/svg" xmlns:xlink="http://www.w3.org/1999/xlink" x="0px" y="0px" width="240.0" height="240.0" xml:space="preserve">
		<path d="M55.234,73.107L55.234,184.495L166.814,184.495L166.814,219.836C165.234,219.907 163.903,220.018 162.572,220.019C117.825,220.033 73.078,220.041 28.331,220.038C20.878,220.037 20.005,219.185 20.003,211.918C19.997,167.162 20.002,122.407 20.002,77.651L20.002,73.107L55.234,73.107ZM212.283,20.003C218.892,20.004 219.996,21.066 219.997,27.496C220.004,72.668 219.998,117.839 219.987,163.011C219.986,164.206 219.854,165.401 219.769,166.844L184.755,166.844L184.755,55.53L73.177,55.53L73.177,20.002L77.613,20.002C122.504,20 167.393,19.998 212.283,20.003Z" fill="#000" stroke="#00000000" stroke-width="1.0" stroke-miterlimit=""/>
	</svg>
