<?xml version="1.0" encoding="utf-8"?>
	<svg version="1.1" xmlns="http://www.w3.org/2000/svg" xmlns:xlink="http://www.w3.org/1999/xlink" x="0px" y="0px" width="240.0" height="240.0" xml:space="preserve">
		<path d="M54.661,116.309C54.523,119.025 55.049,121.644 55.271,124.283C55.374,125.504 55.598,126.721 55.852,127.923C60.038,147.775 71.304,162.089 89.506,171.018C91.124,171.811 91.797,171.5 92.419,169.864C93.66,166.593 95.108,163.402 96.449,160.169C98.525,155.164 98.517,155.161 93.927,152.459C78.107,143.145 70.108,125.041 74.229,107.25C77.226,94.315 84.885,84.861 96.725,78.875C98.279,78.089 98.555,77.452 97.855,75.893C95.995,71.754 94.219,67.571 92.577,63.341C91.832,61.421 91.119,60.947 89.103,61.974C66.852,73.311 55.805,91.674 54.661,116.309M148.206,194.686C137.681,199.041 126.706,201.527 115.335,201.473C71.769,201.265 37.056,169.952 31.069,129.572C27.177,103.313 33.878,79.794 51.7,59.798C65.899,43.868 83.713,34.756 104.856,32.088C115.984,30.683 126.942,31.586 137.752,34.522C138.658,34.768 139.597,34.89 140.522,35.068C139.777,37.499 139.138,39.972 138.245,42.348C137.699,43.801 138.116,44.286 139.465,44.759C151.757,49.077 162.388,55.901 171.07,65.707C187.839,84.645 193.941,106.652 189.114,131.341C184.551,154.68 171.078,171.822 150.4,183.357C148.697,184.307 147.858,185.294 148.031,187.304C148.241,189.752 148.161,192.224 148.206,194.686" fill="#000" stroke="#00000000" stroke-width="1.0" stroke-miterlimit=""/>
		<path d="M148.206,194.686C148.161,192.225 148.241,189.752 148.031,187.304C147.858,185.294 148.697,184.307 150.4,183.357C171.078,171.822 184.551,154.679 189.114,131.342C193.941,106.653 187.839,84.644 171.07,65.706C162.388,55.901 151.757,49.077 139.465,44.76C138.116,44.286 137.699,43.801 138.245,42.349C139.137,39.971 139.776,37.499 140.522,35.068C141.206,33.009 142,30.975 142.543,28.877C142.989,27.153 143.533,26.615 145.469,27.27C160.682,32.417 173.67,40.973 184.424,52.817C202.529,72.756 210.722,96.358 208.862,123.137C206.952,150.621 194.756,172.968 173.385,190.326C172.283,191.22 171.204,192.147 170.061,192.987C166.743,195.428 166.686,195.434 168.369,199.246C170.348,203.729 173.036,207.698 177.314,210.308C178.63,211.11 178.896,211.731 178.034,213.135C175.563,217.159 173.171,221.239 170.947,225.404C170.034,227.113 169.406,227.507 167.672,226.306C156.801,218.783 150.309,208.594 148.496,195.465C148.459,195.197 148.305,194.945 148.206,194.686" fill="#000" stroke="#00000000" stroke-width="1.0" stroke-miterlimit=""/>
		<path d="M54.661,116.309C55.805,91.674 66.852,73.311 89.103,61.974C91.119,60.947 91.832,61.421 92.577,63.341C94.219,67.571 95.995,71.754 97.855,75.893C98.555,77.452 98.279,78.089 96.725,78.875C84.885,84.861 77.226,94.315 74.229,107.25C70.108,125.041 78.107,143.145 93.927,152.459C98.517,155.161 98.525,155.164 96.449,160.169C95.108,163.402 93.66,166.593 92.419,169.864C91.797,171.5 91.124,171.811 89.506,171.018C71.304,162.089 60.038,147.775 55.852,127.923C55.598,126.721 55.374,125.504 55.271,124.283C55.049,121.644 54.523,119.025 54.661,116.309" fill="#000" stroke="#00000000" stroke-width="1.0" stroke-miterlimit=""/>
	</svg>
