<?xml version="1.0" encoding="utf-8"?>
	<svg version="1.1" xmlns="http://www.w3.org/2000/svg" xmlns:xlink="http://www.w3.org/1999/xlink" x="0px" y="0px" width="240.0" height="240.0" xml:space="preserve">
		<path d="M113.299,210C102.872,210 92.445,210 82.017,210C81.641,209.725 81.285,209.416 80.883,209.183C73.949,205.133 68.086,199.848 63.526,193.283C61.458,190.304 59.356,188.072 55.507,188.202C55.056,188.216 54.591,188.022 54.141,187.899C47.084,186.011 41.537,182.279 38.889,175.155C37.519,171.464 38.632,169.693 42.523,169.21C45.957,168.784 48.957,167.421 51.496,165.132C57.726,159.519 61.223,152.296 63.209,144.32C64.184,140.4 64.896,136.407 66.452,132.671C67.096,131.125 66.748,130.311 65.484,129.308C59.451,124.508 55.151,118.468 53.081,110.996C50.26,100.818 51.866,90.99 56.623,81.865C66.649,62.631 83.155,51.08 103.393,44.791C115.546,41.012 128.213,39.991 140.943,41.199C154.924,42.526 167.626,47.358 178.578,56.204C191.336,66.511 193.988,80.295 187.91,94.649C187.396,95.86 187.621,96.374 188.738,96.959C195.879,100.702 202.408,105.336 208.455,110.668C209.596,111.672 210.237,112.718 210.113,114.295C209.965,116.218 209.986,118.158 209.986,120.088C209.979,138.541 210.032,156.99 209.962,175.443C209.92,186.184 205.398,194.9 197.372,201.851C192.389,206.169 186.452,208.577 180.078,210.004C178.321,210.004 176.564,210.004 174.806,210.004C175.44,209.715 176.06,209.384 176.711,209.141C180.511,207.729 184.156,205.996 187.618,203.894C188.121,203.587 188.811,203.418 188.966,202.679C187.403,201.64 185.723,201.573 184.012,201.612C180.568,201.686 177.236,201.129 174.116,199.615C172.996,199.069 171.919,198.309 171.838,196.928C171.757,195.488 172.894,194.78 173.968,194.167C174.725,193.738 175.553,193.41 176.384,193.135C179.779,192.012 183.293,191.864 186.811,192.1C188.216,192.195 189.072,191.685 189.967,190.692C194.851,185.272 196.101,178.898 195.115,171.879C194.964,170.798 194.464,170.369 193.407,170.323C188.002,170.073 183.138,168.133 178.529,165.453C170.809,160.966 164.27,155.039 158.097,148.665C157.628,148.183 157.283,147.517 156.35,147.303C156.209,148.546 156.065,149.747 155.934,150.947C155.325,156.476 154.772,162.019 153.075,167.354C152.163,170.228 151.381,170.598 148.536,169.735C148.145,169.615 147.747,169.502 147.373,169.34C140.732,166.414 134.618,162.621 129.273,157.723C124.096,152.979 120.18,147.179 116.352,141.351C115.518,140.08 114.915,140.041 113.785,140.96C104.96,148.155 98.494,157.04 94.462,167.692C92.962,171.654 92.254,175.714 93.047,179.923C93.828,184.071 94.66,188.205 97.758,191.442C98.745,192.47 99.71,192.949 101.15,192.709C102.467,192.488 103.837,192.399 105.171,192.473C108.51,192.657 111.845,192.988 114.873,194.6C115.972,195.185 117.088,195.872 117.116,197.294C117.148,198.812 115.965,199.502 114.817,200.129C114.253,200.436 113.658,200.7 113.049,200.9C109.957,201.918 106.781,202.376 103.534,202.172C102.094,202.08 100.798,202.443 99.283,202.925C100.491,204.105 101.84,204.661 103.083,205.383C106.33,207.26 109.929,208.377 113.299,210ZM93.635,73.128C93.645,67.822 90.768,64.215 85.979,63.582C84.405,63.374 82.82,63.398 81.253,63.677C71.872,65.342 62.776,74.59 61.23,84.024C60.015,91.426 65.061,96.6 72.456,95.515C78.858,94.575 83.912,91.261 88.029,86.436C91.289,82.608 93.582,78.326 93.635,73.128ZM144.482,45.523C139.626,45.439 135.034,46.421 130.984,49.207C124.621,53.58 124.462,60.729 130.565,65.487C133.389,67.688 136.598,69.11 140.084,69.79C147.162,71.171 153.98,70.632 160.097,66.385C162.939,64.413 164.742,61.726 164.513,58.095C164.249,53.94 161.65,51.274 158.371,49.214C154.145,46.558 149.458,45.446 144.482,45.523ZM184.321,119.363C183.205,117.443 182.261,115.144 180.546,113.376C179.758,112.563 178.8,113.32 178.014,113.827C177.356,114.253 176.979,114.887 177.391,115.616C178.416,117.443 179.49,119.25 180.62,121.018C181.089,121.75 181.867,121.863 182.635,121.43C183.378,121.011 184.293,120.726 184.321,119.363ZM186.61,111.14C185.202,111.193 183.864,112.682 184.371,113.767C184.934,114.971 185.635,116.123 186.403,117.211C187.096,118.194 188.033,117.852 188.889,117.359C189.678,116.905 190.474,116.355 189.942,115.306C189.315,114.066 188.551,112.897 187.808,111.721C187.551,111.309 187.118,111.108 186.61,111.14Z" fill="#000" stroke="" stroke-width="" stroke-miterlimit=""/>
		<path d="M73.935,210C69.6,210 65.265,210 60.93,210C60.306,209.852 59.687,209.694 59.06,209.56C46.22,206.781 37.314,199.323 32.352,187.152C31.155,184.212 30.718,181.078 30,178.014C30,139.358 30,100.695 30,62.032C30.18,61.296 30.394,60.563 30.535,59.82C33.839,42.079 48.308,30.021 66.388,30.014C102.17,30 137.956,30.014 173.739,30C176.211,30 178.641,30.24 181.071,30.683C198.534,33.877 210.454,49.763 210.053,65.522C209.891,71.843 210.028,78.171 210.025,84.496C210.025,91.113 210.028,97.733 210.011,104.35C210.011,104.833 210.278,105.519 209.644,105.745C209.172,105.914 208.834,105.375 208.479,105.09C203.925,101.392 199.185,97.962 194.076,95.067C193.16,94.55 192.882,93.99 193.213,92.933C193.752,91.204 194.22,89.437 194.53,87.655C196.03,79.009 195.167,70.73 190.427,63.127C187.769,58.859 184.391,55.232 180.437,52.129C170.819,44.59 159.786,40.23 147.929,37.832C139.129,36.054 130.234,36.131 121.345,37.138C111.661,38.237 102.111,39.92 93.103,43.9C77.291,50.883 64.06,60.951 54.929,75.872C49.457,84.816 46.893,94.606 47.696,105.065C48.478,115.253 52.943,123.796 60.514,130.667C61.613,131.663 61.919,132.554 61.451,134.016C60.63,136.576 60.007,139.206 59.447,141.837C58.26,147.419 55.971,152.521 52.806,157.223C49.932,161.491 46.333,164.79 40.85,165.245C40.16,165.301 39.477,165.544 38.814,165.776C35.413,166.974 33.507,170.52 34.215,174.063C35.339,179.697 38.445,183.993 42.956,187.402C46.903,190.385 51.478,191.748 56.239,192.618C57.433,192.836 58.25,193.375 58.919,194.361C61.328,197.907 64.141,201.112 67.18,204.14C69.3,206.26 71.787,207.929 73.935,210Z" fill="#000" stroke="" stroke-width="" stroke-miterlimit=""/>
		<path d="M111.089,178.898C111.092,176.327 111.057,173.753 111.099,171.182C111.155,167.505 113.765,164.769 117.283,164.635C120.847,164.498 123.724,166.956 123.981,170.625C124.358,176.049 124.315,181.493 124.023,186.916C123.801,191.054 121.079,193.396 117.149,193.237C113.536,193.093 111.113,190.307 111.092,186.258C111.078,183.807 111.089,181.352 111.089,178.898Z" fill="#000" stroke="" stroke-width="" stroke-miterlimit=""/>
		<path d="M178.465,179.06C178.465,181.638 178.497,184.215 178.454,186.79C178.394,190.635 175.81,193.223 172.07,193.245C168.358,193.266 165.615,190.632 165.58,186.867C165.527,181.595 165.523,176.324 165.583,171.055C165.625,167.351 168.478,164.6 172.084,164.632C175.732,164.667 178.384,167.372 178.465,171.15C178.468,171.267 178.468,171.386 178.468,171.503C178.465,174.021 178.465,176.542 178.465,179.06Z" fill="#000" stroke="" stroke-width="" stroke-miterlimit=""/>
		<path d="M91.606,74.431C91.659,75.533 91.444,76.748 91.043,77.914C88.57,85.077 83.767,89.936 76.587,92.384C75.548,92.74 74.417,92.923 73.318,92.982C67.261,93.313 63.483,88.971 64.557,82.981C66.142,74.163 75.227,66.078 83.492,66.124C88.458,66.155 91.613,69.328 91.606,74.431Z" fill="#000" stroke="" stroke-width="" stroke-miterlimit=""/>
		<path d="M144.964,69.138C140.544,68.973 136.354,68.092 132.684,65.49C130.726,64.103 129.201,62.359 128.501,60.018C127.589,56.975 128.856,53.619 131.927,51.474C137.28,47.731 143.21,47.315 149.383,48.805C152.447,49.544 155.219,50.893 157.455,53.175C161.237,57.035 160.973,61.972 156.772,65.392C153.335,68.191 149.232,68.966 144.964,69.138Z" fill="#000" stroke="" stroke-width="" stroke-miterlimit=""/>
	</svg>
