<?xml version="1.0" encoding="utf-8"?>
	<svg version="1.1" xmlns="http://www.w3.org/2000/svg" xmlns:xlink="http://www.w3.org/1999/xlink" x="0px" y="0px" width="240.0" height="240.0" xml:space="preserve">
		<path d="M228.091,103C230.413,103.295 232.753,103.428 235.064,103.857C236.062,104.042 236.383,104.451 236.331,105.397C236.274,106.417 236.277,107.447 236.336,108.467C236.391,109.431 235.943,109.579 235.13,109.406C233.036,108.96 230.948,108.47 228.838,108.126C225.899,107.645 222.938,107.452 220.006,108.195C218.473,108.584 216.811,109.032 216.571,110.902C216.326,112.816 217.903,113.576 219.302,114.284C221.915,115.609 224.733,116.438 227.469,117.464C230.168,118.474 232.882,119.457 235.368,120.945C236.183,121.433 236.951,121.983 237.641,122.636C241.026,125.838 240.734,130.731 236.993,133.519C234.442,135.421 231.466,136.268 228.39,136.704C221.368,137.702 214.348,137.444 207.337,136.464C206.332,136.322 205.909,135.902 205.985,134.859C206.07,133.717 206.032,132.566 205.995,131.42C205.966,130.533 206.28,130.397 207.11,130.64C212.052,132.091 217.116,132.606 222.257,132.447C223.71,132.403 225.127,132.133 226.429,131.457C229.084,130.08 229.245,127.359 226.758,125.739C224.319,124.149 221.529,123.345 218.842,122.312C216.153,121.277 213.421,120.334 210.935,118.848C210.126,118.362 209.318,117.845 208.613,117.228C204.891,113.975 205.141,109.319 209.197,106.489C211.904,104.602 215.041,103.904 218.243,103.438C219.461,103.26 220.687,103.146 221.91,103.002C223.968,103 226.03,103 228.091,103Z" fill="#000" stroke="" stroke-width="" stroke-miterlimit=""/>
		<path d="M159.023,120.163C159.023,115.002 159.05,109.84 159,104.679C158.988,103.5 159.374,103.126 160.558,103.136C167.853,103.191 175.153,103.035 182.443,103.235C187.737,103.382 192.92,104.251 197.555,107.175C207.324,113.336 207.512,126.549 197.909,132.962C193.94,135.614 189.468,136.612 184.832,136.966C176.646,137.593 168.437,137.1 160.241,137.254C159.208,137.274 159.008,136.773 159.01,135.894C159.035,130.65 159.023,125.405 159.023,120.163ZM170.435,120.138C170.435,123.701 170.46,127.267 170.421,130.83C170.408,131.868 170.743,132.343 171.839,132.289C173.031,132.229 174.229,132.267 175.425,132.279C178.565,132.314 181.673,132.168 184.711,131.209C193.323,128.495 194.517,120.292 191.79,114.745C190.107,111.318 186.991,109.691 183.453,108.735C179.654,107.71 175.764,108.042 171.899,107.948C170.735,107.92 170.403,108.346 170.418,109.446C170.465,113.009 170.435,116.575 170.435,120.138Z" fill="#000" stroke="" stroke-width="" stroke-miterlimit=""/>
		<path d="M145.549,103.198C147.564,103.198 149.582,103.178 151.598,103.201C154.082,103.228 155.54,104.572 155.607,107.056C155.684,109.919 155.684,112.784 155.607,115.646C155.543,118.011 154.062,119.442 151.662,119.472C147.589,119.521 143.513,119.529 139.44,119.467C136.877,119.427 135.537,117.979 135.522,115.411C135.505,112.63 135.5,109.847 135.525,107.066C135.545,104.686 136.973,103.25 139.375,103.208C141.433,103.171 143.491,103.198 145.549,103.198ZM145.598,106.241C143.704,106.241 141.81,106.269 139.915,106.229C138.967,106.209 138.588,106.563 138.603,107.524C138.645,110.02 138.645,112.519 138.603,115.015C138.585,116.069 139.006,116.476 140.064,116.466C143.729,116.433 147.393,116.433 151.058,116.466C151.997,116.473 152.413,116.146 152.403,115.188C152.373,112.61 152.373,110.03 152.405,107.452C152.415,106.553 152.056,106.212 151.157,106.229C149.305,106.269 147.45,106.241 145.598,106.241Z" fill="#000" stroke="" stroke-width="" stroke-miterlimit=""/>
		<path d="M145.483,137.214C143.383,137.211 141.281,137.234 139.181,137.206C137.086,137.179 135.613,135.753 135.581,133.653C135.536,130.748 135.536,127.841 135.578,124.934C135.613,122.582 137.037,121.188 139.382,121.175C143.46,121.153 147.536,121.153 151.614,121.175C153.969,121.188 155.304,122.245 155.492,124.583C155.742,127.68 155.757,130.803 155.479,133.901C155.279,136.142 153.937,137.192 151.659,137.211C149.601,137.229 147.543,137.216 145.483,137.214ZM145.589,124.132C143.695,124.132 141.801,124.149 139.907,124.125C138.98,124.112 138.552,124.469 138.562,125.427C138.592,127.965 138.592,130.503 138.56,133.039C138.547,134.039 138.98,134.44 139.964,134.436C143.67,134.418 147.377,134.413 151.082,134.441C152.142,134.448 152.587,133.97 152.587,132.965C152.585,130.469 152.575,127.97 152.595,125.474C152.602,124.471 152.127,124.1 151.149,124.117C149.296,124.157 147.442,124.132 145.589,124.132Z" fill="#000" stroke="" stroke-width="" stroke-miterlimit=""/>
		<path d="M113.805,111.258C113.802,109.173 113.8,107.086 113.805,105.001C113.807,103.213 113.82,103.201 115.568,103.198C118.737,103.196 121.909,103.292 125.074,103.176C129.937,102.995 132.23,106.162 132.636,110.171C132.768,111.476 132.681,112.784 132.384,114.071C131.624,117.36 129.194,119.417 125.804,119.474C122.266,119.534 118.727,119.469 115.189,119.502C114.184,119.511 113.782,119.128 113.797,118.13C113.832,115.839 113.807,113.549 113.805,111.258ZM117.041,111.246C117.041,112.514 117.093,113.786 117.024,115.052C116.967,116.107 117.318,116.51 118.423,116.478C120.768,116.409 123.118,116.466 125.465,116.453C127.634,116.443 128.823,115.542 129.43,113.482C129.908,111.86 129.853,110.238 129.276,108.661C128.739,107.19 127.711,106.264 126.052,106.254C123.417,106.236 120.78,106.259 118.146,106.234C117.363,106.227 117.019,106.524 117.036,107.316C117.066,108.626 117.046,109.936 117.041,111.246Z" fill="#000" stroke="" stroke-width="" stroke-miterlimit=""/>
		<path d="M71.68,111.322C71.68,109.029 71.705,106.734 71.668,104.441C71.653,103.559 71.962,103.186 72.881,103.19C77.415,103.215 81.949,103.223 86.483,103.19C87.689,103.183 87.632,103.926 87.647,104.743C87.664,105.605 87.597,106.268 86.436,106.254C83.016,106.214 79.592,106.301 76.174,106.214C74.788,106.179 74.758,106.885 74.788,107.89C74.815,108.826 74.661,109.671 76.132,109.601C78.517,109.488 80.914,109.634 83.301,109.547C84.542,109.502 84.695,110.077 84.722,111.097C84.752,112.206 84.396,112.642 83.249,112.615C80.859,112.558 78.467,112.627 76.078,112.585C75.122,112.568 74.763,112.895 74.785,113.865C74.859,116.879 74.468,116.428 77.313,116.453C80.28,116.478 83.249,116.508 86.215,116.436C87.426,116.406 87.652,116.929 87.664,117.976C87.676,119.058 87.372,119.526 86.198,119.511C81.83,119.462 77.46,119.469 73.091,119.506C72.027,119.516 71.628,119.162 71.658,118.08C71.725,115.829 71.68,113.573 71.68,111.322Z" fill="#000" stroke="" stroke-width="" stroke-miterlimit=""/>
		<path d="M106.35,114.502C106.35,112.831 106.35,111.491 106.35,110.149C106.35,108.388 106.345,106.63 106.352,104.87C106.357,103.386 107.903,102.554 109.22,103.312C109.611,103.537 109.619,103.911 109.621,104.275C109.629,108.983 109.626,113.69 109.624,118.395C109.624,118.808 109.624,119.306 109.118,119.395C108.229,119.551 107.328,119.658 106.57,118.917C104.453,116.854 102.316,114.814 100.182,112.766C98.587,111.236 96.985,109.711 95.346,108.143C94.902,108.584 95.061,109.052 95.058,109.46C95.041,112.325 94.994,115.193 95.073,118.055C95.108,119.365 94.457,119.511 93.399,119.509C92.35,119.506 91.703,119.375 91.723,118.06C91.787,113.722 91.735,109.384 91.76,105.045C91.763,104.439 91.431,103.557 92.245,103.314C93.08,103.067 94.048,102.946 94.838,103.592C95.346,104.008 95.826,104.456 96.299,104.912C99.315,107.816 102.324,110.728 105.34,113.635C105.572,113.863 105.83,114.059 106.35,114.502Z" fill="#000" stroke="" stroke-width="" stroke-miterlimit=""/>
		<path d="M44.484,114.185C44.484,111.617 44.484,109.049 44.484,106.482C44.484,105.949 44.482,105.417 44.484,104.884C44.494,103.228 44.541,103.25 46.24,103.176C47.46,103.121 47.797,103.607 47.785,104.753C47.738,109.054 47.777,113.358 47.755,117.662C47.753,118.271 48.045,119.13 47.208,119.373C46.351,119.62 45.41,119.7 44.655,118.957C43.276,117.602 41.894,116.253 40.505,114.913C38.175,112.665 35.837,110.421 33.49,108.16C33.027,108.619 33.205,109.094 33.2,109.512C33.183,112.38 33.133,115.25 33.215,118.117C33.254,119.504 32.469,119.499 31.479,119.507C30.486,119.514 29.85,119.385 29.869,118.122C29.931,113.821 29.874,109.517 29.912,105.214C29.916,104.55 29.483,103.552 30.464,103.297C31.432,103.047 32.455,103.022 33.329,103.894C35.832,106.388 38.402,108.817 40.953,111.266C42.015,112.286 43.092,113.291 44.162,114.301C44.266,114.262 44.375,114.225 44.484,114.185Z" fill="#000" stroke="" stroke-width="" stroke-miterlimit=""/>
		<path d="M3.292,108.158C3.292,111.399 3.292,114.502 3.292,117.605C3.292,119.383 2.393,119.989 0.622,119.447C0.119,119.293 0.008,118.944 0.008,118.513C0.003,113.722 -0.014,108.933 0.025,104.142C0.033,103.163 1.972,102.762 3.051,103.498C3.353,103.703 3.604,103.988 3.868,104.246C7.09,107.356 10.307,110.466 13.528,113.573C13.783,113.819 14.068,114.036 14.355,114.282C14.744,113.816 14.588,113.348 14.59,112.922C14.608,110.097 14.637,107.271 14.585,104.449C14.561,103.106 15.403,103.201 16.304,103.188C17.215,103.176 17.904,103.228 17.891,104.456C17.847,108.876 17.884,113.299 17.862,117.721C17.859,118.291 18.169,119.1 17.411,119.353C16.557,119.638 15.623,119.685 14.865,118.957C13.828,117.964 12.768,116.991 11.738,115.99C9.41,113.729 7.095,111.454 4.767,109.195C4.391,108.831 4.064,108.388 3.292,108.158Z" fill="#000" stroke="" stroke-width="" stroke-miterlimit=""/>
		<path d="M59.744,103.198C62.255,103.198 64.768,103.24 67.279,103.181C68.49,103.151 68.579,103.805 68.589,104.733C68.599,105.694 68.428,106.308 67.249,106.256C65.729,106.189 64.201,106.281 62.681,106.229C61.718,106.194 61.376,106.546 61.386,107.509C61.425,110.988 61.406,114.467 61.398,117.946C61.396,119.425 61.307,119.494 59.744,119.494C58.145,119.494 58.065,119.432 58.063,117.986C58.055,114.549 58.016,111.109 58.085,107.673C58.11,106.511 57.701,106.164 56.589,106.224C55.193,106.298 53.786,106.179 52.392,106.261C51.174,106.33 50.867,105.83 50.852,104.686C50.835,103.456 51.322,103.151 52.459,103.181C54.886,103.24 57.315,103.196 59.744,103.198Z" fill="#000" stroke="" stroke-width="" stroke-miterlimit=""/>
		<path d="M22.232,111.238C22.232,108.988 22.284,106.737 22.212,104.488C22.17,103.161 22.963,103.193 23.889,103.186C24.837,103.178 25.565,103.208 25.551,104.508C25.496,109.089 25.503,113.673 25.545,118.256C25.558,119.623 24.684,119.477 23.807,119.497C22.906,119.516 22.183,119.469 22.215,118.236C22.274,115.904 22.232,113.571 22.232,111.238Z" fill="#000" stroke="" stroke-width="" stroke-miterlimit=""/>
	</svg>
