<?xml version="1.0" encoding="utf-8"?>
	<svg version="1.1" xmlns="http://www.w3.org/2000/svg" xmlns:xlink="http://www.w3.org/1999/xlink" x="0px" y="0px" width="240.0" height="240.0" xml:space="preserve">
		<path d="M162.187,114.024C168.841,114.394 174.384,117.351 174.384,117.351L174.384,114.394C174.384,108.111 169.21,102.936 162.927,102.936C156.644,102.936 151.838,108.111 151.838,114.394C151.838,114.394 155.165,113.654 162.187,114.024L162.187,114.024ZM74.591,43.43C74.961,35.299 75.33,27.537 75.33,27.537L43.914,59.693C43.914,59.693 54.262,58.215 60.546,57.845C67.199,57.475 73.852,57.475 73.852,57.475C73.852,57.475 74.222,51.561 74.591,43.43L74.591,43.43ZM135.946,36.408C135.946,36.408 182.885,34.19 193.974,45.278C201.366,53.04 199.148,57.475 199.888,70.411C200.627,83.347 203.953,114.394 202.105,139.158C199.888,171.313 192.126,202.73 183.625,211.97C174.755,221.21 138.903,222.689 127.075,215.296C118.205,209.752 118.574,182.401 125.227,174.269C131.88,165.768 151.1,169.095 151.1,169.095L149.991,182.031C149.991,182.031 141.49,180.553 138.163,183.879C134.837,187.205 136.685,196.446 139.641,198.293C142.598,200.141 160.709,201.25 167.731,196.815C174.754,192.75 170.688,170.573 168.471,164.29C166.623,158.007 157.382,156.159 157.382,156.159C157.382,156.159 139.272,155.789 130.402,151.354C121.531,146.919 120.792,125.851 120.792,125.851C120.792,125.851 120.052,159.116 110.813,161.703C101.573,164.29 56.85,153.941 53.154,149.136C46.871,140.635 38,92.217 38,79.281C38,66.345 46.131,65.605 50.936,64.496C55.741,63.387 75.7,65.236 79.396,62.278C82.722,59.322 79.766,34.189 82.722,29.383C86.049,24.579 89.005,19.035 111.182,20.143C133.728,21.621 135.946,36.406 135.946,36.406L135.946,36.408Z" fill="#000" stroke="#00000000" stroke-width="1.0" stroke-miterlimit=""/>
	</svg>
