<?xml version="1.0" encoding="utf-8"?>
	<svg version="1.1" xmlns="http://www.w3.org/2000/svg" xmlns:xlink="http://www.w3.org/1999/xlink" x="0px" y="0px" width="240.0" height="240.0" xml:space="preserve">
		<path d="M120.728,20C120.728,20 159.645,34.224 158.495,96.89C158.495,96.89 166.948,87.661 166.948,68.824C166.948,68.824 207.319,96.636 207.319,163.535C207.312,186.861 199.071,204.422 187.373,217.397C182.952,191.356 157.155,175.041 155.611,174.085L155.539,174.041C163.476,145.862 163.088,118.042 158.869,100.933C154.636,83.823 136.955,89.651 136.955,89.651C115.563,91.845 131.452,117.661 131.452,117.661C145.033,136.111 145.993,169.758 145.993,169.758C132.341,162.068 103.322,167.451 103.322,167.451C112.353,123.623 106.335,107.918 104.669,98.95C103.004,89.983 91.984,89.722 86.854,89.722C81.725,89.722 79.164,88.692 74.042,94.59C68.913,100.488 76.088,115.608 76.088,115.608C90.573,133.931 92.746,171.487 92.746,171.487C65.032,179.692 55.169,212.789 53.334,220C41.114,207.237 32.006,189.175 32.006,163.543C32.006,163.543 32.003,163.443 32.001,163.249L32,162.841C32.025,157.554 33.31,123.463 61.61,97.278C61.61,97.278 56.615,117.273 68.144,126.121C68.144,126.121 64.298,58.064 105.05,47.297C105.05,47.297 100.436,71.519 105.05,84.973C105.05,84.973 124.862,76.895 120.728,20ZM91.081,192.752C97.662,192.752 102.997,198.087 102.997,204.669C102.997,211.25 97.662,216.585 91.081,216.585C84.499,216.585 79.164,211.25 79.164,204.669C79.164,198.087 84.499,192.752 91.081,192.752ZM147.454,192.766C154.031,192.762 159.366,198.091 159.37,204.669C159.374,211.246 154.045,216.581 147.468,216.585C143.213,216.588 139.28,214.32 137.15,210.637C135.02,206.953 135.018,202.413 137.143,198.727C139.268,195.041 143.199,192.769 147.454,192.766ZM60.446,66.904C60.446,66.904 60.463,66.952 60.494,67.043L60.538,67.172C61.18,69.083 64.85,80.711 60.446,84.585C55.641,88.819 53.144,91.126 53.144,91.126C53.144,91.126 53.011,87.445 52.981,83.557L52.976,82.908C52.975,82.691 52.975,82.475 52.975,82.258L52.975,81.612C52.98,79.575 53.025,77.642 53.144,76.323C53.532,72.09 60.446,66.904 60.446,66.904Z" fill="#000" stroke="#00000000" stroke-width="1.0" stroke-miterlimit=""/>
	</svg>
