<?xml version="1.0" encoding="utf-8"?>
	<svg version="1.1" xmlns="http://www.w3.org/2000/svg" xmlns:xlink="http://www.w3.org/1999/xlink" x="0px" y="0px" width="240.0" height="240.0" xml:space="preserve">
		<path d="M219.712,29.607C219.794,29.69 219.918,29.772 220,29.854C218.558,32.079 217.116,34.263 215.838,36.529C205.62,55.194 203.478,74.848 208.999,95.326C216.251,122.314 212.171,147.531 197.256,171.099C196.514,172.294 195.608,173.406 194.701,174.642C193.465,173.942 192.435,173.365 191.817,172.994C185.389,179.422 179.044,185.726 172.452,192.318C174.223,195.244 174.182,195.244 171.257,197.263C139.448,218.853 96.267,217.988 65.365,195.12C63.181,193.513 61.08,191.783 59.102,190.217C66.436,182.842 73.564,175.672 80.775,168.421C82.835,169.822 84.936,171.47 87.202,172.788C107.598,184.819 128.611,185.891 149.378,174.56C170.227,163.188 180.981,144.852 181.681,121.078C182.093,107.234 177.684,94.626 169.32,83.542C168.002,81.812 167.878,80.864 169.567,79.257C185.678,63.311 201.706,47.283 217.775,31.297C218.393,30.72 219.052,30.184 219.712,29.607ZM119.835,28C142.909,27.959 163.222,35.664 180.692,50.497C173.358,57.873 166.189,65.042 159.308,71.964C154.281,69.162 149.295,65.866 143.898,63.559C118.352,52.516 88.315,60.51 71.092,82.718C54.116,104.556 53.91,135.293 70.721,157.378C71.998,159.067 72.04,159.974 70.474,161.498C54.487,177.32 38.583,193.225 22.637,209.129C21.895,209.871 21.154,210.571 20,211.025C20.494,210.201 21.03,209.377 21.525,208.552C33.721,189.393 37.058,168.668 31.207,146.83C24.162,120.584 27.211,95.903 40.931,72.5C42.167,70.357 43.692,68.379 45.134,66.196C46.411,66.855 47.524,67.432 48.142,67.761C54.652,61.292 60.915,55.03 67.466,48.519C67.136,47.984 66.518,46.995 65.694,45.676C81.805,33.769 99.975,28.042 119.835,28ZM117.322,80.452L117.322,92.03C117.322,96.274 117.281,100.559 117.363,104.803C117.363,106.039 117.033,106.616 115.797,107.028C109.74,109.047 106.032,114.074 105.909,120.172C105.785,126.558 109.328,131.626 115.55,133.975C116.58,134.346 117.363,134.593 117.322,136.035C117.239,147.778 117.281,159.48 117.281,171.222C117.075,171.222 116.869,171.264 116.869,171.222C115.097,165.33 110.853,162.158 105.249,159.974C90.499,154.247 81.557,143.41 78.302,127.918C78.096,126.847 77.684,125.734 79.415,125.281C79.745,125.199 79.909,123.756 79.868,122.974C79.374,111.766 82.711,101.878 90.251,93.555C97.338,85.685 106.321,81.523 117.322,80.452ZM122.802,69.286C124.862,76.126 129.806,78.845 135.575,81.194C150.696,87.209 159.267,98.705 162.11,114.527L161.244,114.527C160.874,115.804 160.132,117.123 160.132,118.4C160.255,139.949 146.576,156.43 125.48,159.974C124.574,160.139 123.585,160.139 122.513,160.221C122.431,159.48 122.307,158.944 122.307,158.408C122.307,151.115 122.307,143.781 122.266,136.488C122.266,135.128 122.472,134.346 123.955,133.769C130.383,131.338 133.803,126.435 133.721,120.089C133.721,113.909 130.218,109.294 123.832,106.74C123.214,106.492 122.431,105.586 122.431,105.009C122.349,93.596 122.39,82.182 122.39,70.769C122.39,70.481 122.555,70.192 122.802,69.286Z" fill="#000" stroke="#00000000" stroke-width="1.0" stroke-miterlimit=""/>
	</svg>
