<?xml version="1.0" encoding="utf-8"?>
	<svg version="1.1" xmlns="http://www.w3.org/2000/svg" xmlns:xlink="http://www.w3.org/1999/xlink" x="0px" y="0px" width="240.0" height="240.0" xml:space="preserve">
		<path d="M120.185,34.007C146.712,34.007 173.24,33.993 199.767,34.013C212.157,34.02 219.92,41.783 219.927,54.147C219.94,72.63 220.123,91.113 219.868,109.59C219.536,133.886 210.774,154.966 194.424,172.842C177.343,191.514 156.035,202.318 130.969,204.909C100.853,208.021 74.189,199.415 51.68,178.975C33.178,162.181 22.882,141.128 20.266,116.323C19.927,113.093 20.018,109.805 20.018,106.549C19.999,88.934 19.992,71.325 20.012,53.71C20.025,41.973 27.913,34.033 39.624,34.02C66.477,33.987 93.331,34.007 120.185,34.007ZM182.608,96.28C182.628,94.329 182.419,92.64 181.669,91.009C177.944,82.899 167.283,80.707 160.178,86.983C148.298,97.487 136.613,108.206 124.993,118.998C122.762,121.072 121.359,121.281 119.115,119.135C113.08,113.348 106.869,107.743 100.684,102.113C94.903,96.848 89.097,91.609 83.238,86.429C80.583,84.08 77.281,83.18 73.843,83.44C68.337,83.858 64.005,86.448 62.054,91.798C60.11,97.135 61.551,101.761 65.786,105.629C80.465,119.03 95.079,132.503 109.766,145.897C111.834,147.782 113.843,149.805 116.538,150.914C123.695,153.863 129.045,150.764 134.153,146.06C148.611,132.744 163.186,119.546 177.702,106.288C180.703,103.561 182.863,100.39 182.608,96.28Z" fill="#000" stroke="" stroke-width="" stroke-miterlimit=""/>
	</svg>
