<?xml version="1.0" encoding="utf-8"?>
	<svg version="1.1" xmlns="http://www.w3.org/2000/svg" xmlns:xlink="http://www.w3.org/1999/xlink" x="0px" y="0px" width="240.0" height="240.0" xml:space="preserve">
		<path d="M179.155,31.907C179.155,90.394 179.155,148.876 179.155,207.363C178.971,208.203 178.777,209.037 178.603,209.876C175.605,224.533 159.283,233.437 144.019,228.739C132.7,225.255 125.641,215.962 125.631,204.348C125.595,166.464 125.6,128.579 125.574,90.699C125.574,89.644 125.866,88.537 125.262,87.52C124.311,87.431 123.887,88.12 123.329,88.542C116.577,93.639 109.922,98.848 103.083,103.846C91.948,111.985 75.994,110.677 66.756,101.005C57.344,91.144 57.799,76.478 67.912,67.33C70.383,65.094 73.13,63.11 75.805,61.071C95.661,45.926 115.488,30.772 135.401,15.707C146.47,7.333 161.958,8.304 171.8,17.766C175.948,21.751 177.968,26.637 179.155,31.907Z" fill="#000" stroke="" stroke-width="" stroke-miterlimit=""/>
	</svg>
