<?xml version="1.0" encoding="utf-8"?>
	<svg version="1.1" xmlns="http://www.w3.org/2000/svg" xmlns:xlink="http://www.w3.org/1999/xlink" x="0px" y="0px" width="240.0" height="240.0" xml:space="preserve">
		<path d="M120.11,85.677C121.09,84.022 121.823,82.804 122.535,81.575C126.372,74.95 130.178,68.307 134.044,61.7C141.841,48.372 159.01,46.219 169.348,57.397C171.403,59.619 172.892,62.407 174.429,65.058C191.848,95.096 209.104,125.229 226.667,155.183C234.99,169.377 226.755,185.775 212.682,188.509C210.886,188.858 209.015,188.935 207.178,188.94C171.137,189.025 135.095,189.132 99.054,189.126C76.761,189.122 54.468,188.955 32.175,188.828C20.869,188.763 12.262,181.592 10.315,170.5C9.397,165.265 10.525,160.344 13.195,155.718C28.877,128.542 44.518,101.342 60.177,74.152C62.838,69.532 65.384,64.838 68.223,60.329C75.236,49.185 90.146,46.602 100.409,54.823C102.544,56.534 104.386,58.816 105.815,61.167C110.251,68.468 114.422,75.93 118.698,83.327C119.065,83.963 119.454,84.587 120.11,85.677" fill="#000" stroke="#00000000" stroke-width="1.0" stroke-miterlimit=""/>
	</svg>
