<?xml version="1.0" encoding="utf-8"?>
	<svg version="1.1" xmlns="http://www.w3.org/2000/svg" xmlns:xlink="http://www.w3.org/1999/xlink" x="0px" y="0px" width="240.0" height="240.0" xml:space="preserve">
		<path d="M40.016,120.158C40.01,120.158 40.01,120.158 40.003,120.158C40.003,150.847 39.99,181.53 40.016,212.219C40.022,218.054 41.91,219.941 47.674,219.954C60.929,219.992 74.191,220.012 87.453,219.992C93.891,219.986 95.643,218.234 95.643,211.776C95.637,150.616 95.624,89.455 95.598,28.295C95.598,22.075 93.557,20.034 87.311,20.021C74.589,19.989 61.866,20.002 49.138,20.008C41.788,20.014 40.022,21.754 40.022,29.052C40.01,59.421 40.016,89.789 40.016,120.158ZM200.87,90.027C200.652,87.838 200.504,83.864 199.837,79.981C196.248,59.093 185.407,42.943 167.504,31.665C156.303,24.604 143.998,21.003 130.685,21.221C126.673,21.285 123.868,23.943 123.656,27.672C123.45,31.184 126.243,34.091 130.261,34.534C131.641,34.682 133.028,34.81 134.414,34.932C167.536,37.885 190.645,65.936 186.273,98.866C183.5,119.734 171.786,134.517 152.503,143.189C145.66,146.27 138.465,147.528 131.006,147.734C126.756,147.849 123.579,151.001 123.617,154.692C123.662,158.64 126.557,161.406 131.031,161.49C133.477,161.534 135.942,161.297 138.381,161.034C173.557,157.227 200.8,127.032 200.87,90.027Z" fill="#000" stroke="" stroke-width="" stroke-miterlimit=""/>
	</svg>
