<?xml version="1.0" encoding="utf-8"?>
	<svg version="1.1" xmlns="http://www.w3.org/2000/svg" xmlns:xlink="http://www.w3.org/1999/xlink" x="0px" y="0px" width="240.0" height="240.0" xml:space="preserve">
		<path d="M143.57,84.42C143.14,94.681 140.434,103.078 136.081,110.905C128.423,124.677 118.405,136.089 103.229,141.931C96.535,144.506 89.654,144.974 82.623,143.279C75.03,141.454 70.527,136.66 68.636,129.236C67.232,123.712 67.11,118.123 68.421,112.6C73.514,91.17 84.112,73.41 103.594,62.1C112.516,56.923 122.169,55.079 132.177,59.535C137.279,61.801 140.256,65.19 140.49,71.229C140.687,76.078 144.497,80.375 143.57,84.42ZM88.512,115.773C88.24,126.025 93.015,129.142 100.926,125.229C102.171,124.611 103.416,123.928 104.512,123.076C117.647,112.983 125.118,99.324 129.115,83.558C129.602,81.639 129.696,79.533 129.565,77.548C129.134,70.994 125.062,68.532 118.948,71.06C114.108,73.063 110.223,76.424 106.749,80.226C97.134,90.767 90.066,102.601 88.512,115.773Z" fill="#000" stroke="" stroke-width="" stroke-miterlimit=""/>
		<path d="M198.198,54.021C202.645,53.871 206.877,54.742 210.753,56.933C214.339,58.955 216.791,61.792 216.614,66.248C216.585,67.016 216.473,67.905 216.801,68.532C222.867,80.235 219.319,91.469 214.32,102.105C206.531,118.648 195.174,131.867 176.74,137.269C172.49,138.514 168.155,138.757 163.811,138.252C152.698,136.969 146.679,129.339 146.248,116.204C145.499,93.726 165.3,64.085 186.346,56.146C190.175,54.714 194.098,53.852 198.198,54.021ZM206.353,77.351C206.652,67.69 202.336,64.722 195.333,67.699C193.92,68.298 192.478,69.01 191.298,69.974C178.407,80.525 169.494,93.595 166.339,110.175C165.628,113.91 165.599,117.945 169.204,120.295C172.696,122.58 176.525,121.475 179.717,119.312C195.333,108.742 202.561,92.995 206.353,77.351Z" fill="#000" stroke="" stroke-width="" stroke-miterlimit=""/>
		<path d="M34.792,185.362C31.74,184.707 28.417,186.289 27.387,183.34C26.319,180.288 29.596,178.949 31.478,177.245C38.396,171 47.178,170.223 55.801,169.081C102.752,162.865 149.815,157.613 196.934,152.81C199.247,152.576 201.559,152.267 203.881,152.173C205.519,152.108 207.083,152.623 207.429,154.504C207.766,156.33 206.549,157.407 205.07,158.099C202.102,159.485 198.966,160.356 195.736,160.927C155.367,168.108 114.735,173.631 74.16,179.492C60.8,181.43 47.45,183.471 34.792,185.362Z" fill="#000" stroke="" stroke-width="" stroke-miterlimit=""/>
		<path d="M20,145.732C20.225,142.343 21.601,139.029 22.902,135.696C28.613,121.072 34.333,106.449 40.1,91.844C42.085,86.826 43.499,81.826 41.252,76.49C40.409,74.487 41.383,72.829 42.806,71.472C48.929,65.592 55.632,60.621 63.974,58.346C66.249,57.728 68.664,57.101 70.499,59.189C72.212,61.136 71.314,63.392 70.518,65.377C61.315,88.314 52.252,111.317 42.666,134.095C39.651,141.266 33.697,146.369 26.647,149.786C22.621,151.743 20.103,150.142 20,145.732Z" fill="#000" stroke="" stroke-width="" stroke-miterlimit=""/>
	</svg>
