<?xml version="1.0" encoding="utf-8"?>
	<svg version="1.1" xmlns="http://www.w3.org/2000/svg" xmlns:xlink="http://www.w3.org/1999/xlink" x="0px" y="0px" width="240.0" height="240.0" xml:space="preserve">
		<path d="M120,20C64.776,20 20,64.776 20,120C20,156.163 39.184,187.837 67.959,205.388C67.918,197.347 67.878,72.694 67.878,72.694C67.878,72.163 68.082,71.673 68.49,71.265C68.898,70.857 69.388,70.653 69.918,70.653L98.898,70.653C99.429,70.653 99.959,70.857 100.327,71.265C100.735,71.673 100.939,72.204 100.939,72.735L100.939,145.102C101.02,148.449 102.612,157.02 111.959,156.082C131.796,154.082 132.49,131.755 132.49,131.755L132.531,72.735C132.531,72.204 132.735,71.673 133.143,71.265C133.551,70.857 134.082,70.653 134.612,70.653L163.551,70.653C164.082,70.653 164.571,70.857 164.98,71.224C165.388,71.633 165.551,72.122 165.551,72.653L165.51,153.918C165.51,163.714 175.469,155.306 178.041,153.429C178.735,152.939 179.143,153.714 179.143,153.714C179.551,154.245 180.122,155.184 180.408,155.796C180.571,156.163 180.571,156.49 180.408,156.939C175.265,171.429 161.061,179.51 147.184,173.184C133.306,166.816 133.184,152.98 133.184,152.98C120.98,184 94.082,175.918 83.061,169.388C82.531,169.306 82.122,169.51 82.122,170.204C82.122,192.531 95.143,211.755 99.714,217.878C106.204,219.265 113.02,220 120,220C175.224,220 220,175.224 220,120C220,64.776 175.224,20 120,20" fill="#000" stroke="#00000000" stroke-width="1.0" stroke-miterlimit=""/>
	</svg>
