<?xml version="1.0" encoding="utf-8"?>
	<svg version="1.1" xmlns="http://www.w3.org/2000/svg" xmlns:xlink="http://www.w3.org/1999/xlink" x="0px" y="0px" width="240.0" height="240.0" xml:space="preserve">
		<path d="M240,134.537L0,134.537L0,132.745L240,132.745L240,134.537ZM28.35,108.339L13.389,126.691L2.118,126.691L22.343,101.824L3.991,101.824L3.991,95.493L23.409,95.493L23.409,83.305L3.722,83.305L3.722,76.946L54.032,76.946L54.032,83.305L32.613,83.305L32.613,95.492L54.032,95.492L54.032,101.823L34.348,101.823L54.416,126.691L43.144,126.691L28.351,108.339L28.35,108.339ZM114.449,77.03L114.447,83.06L86.755,82.925L86.754,82.925L86.754,123.68L78.171,127.731L78.171,81.667C78.127,79.295 80.425,76.998 82.685,77.03L114.449,77.03ZM104.921,106.216L104.921,110.203L111.802,110.16L111.802,115.876L104.921,115.856L104.921,120.88L114.532,120.88L111.873,126.479L111.873,126.479L87.963,126.479L87.963,120.888L96.588,120.881L96.588,115.857L89.77,115.877L89.77,110.161L96.589,110.161L96.588,106.216L104.921,106.216ZM104.919,85.008L104.918,88.399L111.802,88.399L111.802,94.016L104.918,94.016L104.918,98.978L112.984,98.978L112.984,104.597L88.588,104.597L88.588,98.978L96.589,98.978L96.589,94.016L89.77,94.016L89.77,88.399L96.589,88.399L96.589,85.008L104.919,85.008ZM66.52,107.31L75.13,107.31L75.13,123.438L66.52,127.452L66.52,107.31L66.52,107.31ZM70.681,91.748C71.543,91.748 72.406,91.973 73.258,92.425C74.11,92.879 74.779,93.529 75.27,94.37C75.752,95.205 76.002,96.115 76.002,97.068C75.984,98.031 75.734,98.912 75.27,99.729C74.796,100.544 74.148,101.193 73.324,101.675C72.498,102.146 71.618,102.378 70.682,102.361C69.736,102.361 68.855,102.129 68.031,101.658C67.206,101.184 66.557,100.544 66.084,99.73C65.621,98.912 65.38,98.032 65.38,97.068C65.38,96.116 65.621,95.215 66.084,94.382C66.576,93.53 67.243,92.88 68.096,92.446C68.948,92 69.812,91.767 70.682,91.749L70.682,91.749L70.681,91.748ZM70.681,76.323C71.525,76.323 72.386,76.557 73.24,77.01C74.102,77.472 74.77,78.131 75.251,78.985C75.734,79.837 75.975,80.728 75.984,81.673C75.993,82.61 75.761,83.491 75.298,84.305C74.806,85.14 74.148,85.798 73.323,86.269C72.497,86.751 71.617,86.985 70.681,86.966C69.735,86.966 68.855,86.733 68.031,86.26C67.205,85.79 66.557,85.14 66.083,84.324C65.62,83.5 65.38,82.611 65.38,81.646C65.38,80.718 65.62,79.838 66.103,78.985C66.585,78.132 67.253,77.483 68.115,77.029C68.976,76.575 69.828,76.341 70.682,76.324L70.682,76.324L70.681,76.323ZM138.113,76.131C139.587,76.169 140.727,76.456 141.533,77.001C142.34,77.549 142.859,78.132 143.09,78.765L143.609,80.044L146.583,80.045C147.897,80.045 149.21,81.357 149.21,82.672L149.21,86.076L138.475,101.332L140.837,101.331L140.837,124.689L132.505,128.212L132.505,107.283L125.386,107.283L139.865,86.074L125.905,86.074L125.905,80.042L133.673,80.042C133.905,79.532 134.34,78.743 134.962,77.678C135.582,76.611 136.64,76.093 138.113,76.131ZM166.94,76L166.94,76.047L167.617,76.047L167.617,81.319L175.627,81.319L175.627,88.02L167.617,88.02L167.617,119.584L176.664,119.584L173.539,126.21L149.802,126.257L149.802,119.527L159.032,119.583L159.033,88.02L151.192,88.02L151.192,81.319L159.033,81.319L159.033,76.047L159.822,76.047L159.822,76L166.94,76ZM148.393,99.293L150.21,114.643L142.85,114.643L141.145,99.293L148.393,99.293ZM236.651,76.852L236.651,83.359L196.478,83.359L196.478,120.018L196.48,120.018L236.744,120.045L233.815,126.521L192.227,126.521C189.928,126.521 187.628,124.222 187.628,121.923L187.62,87.321L187.623,81.697C187.628,79.149 189.927,76.85 192.833,76.852L236.651,76.852ZM209.291,87.428L216.955,95.66L224.611,87.428L235.308,87.428L222.305,101.387L235.911,116.024L225.233,116.024L216.955,107.145L208.696,116.024L198.028,116.024L211.627,101.387L198.651,87.428L209.291,87.428ZM7.404,158.6L2.651,143.072L5.371,143.072L8.763,155.372C8.803,155.2 9.072,154.132 9.566,152.165L12.037,143.072L14.742,143.072L17.068,152.073L17.846,155.046L18.734,152.045L21.396,143.072L23.957,143.072L19.1,158.601L16.368,158.601L13.897,149.299L13.293,146.648L10.153,158.601L7.405,158.601L7.404,158.6ZM32.362,158.6L27.611,143.072L30.331,143.072L32.8,152.037L33.72,155.372C33.761,155.2 34.029,154.132 34.523,152.165L36.994,143.072L39.699,143.072L42.027,152.073L42.806,155.046L43.694,152.045L46.353,143.072L48.914,143.072L44.057,158.601L41.325,158.601L38.856,149.299L38.251,146.648L35.111,158.601L32.361,158.601L32.362,158.6ZM57.321,158.6L52.569,143.072L55.289,143.072L57.76,152.037L58.678,155.372C58.718,155.2 58.988,154.132 59.482,152.165L61.954,143.072L64.658,143.072L66.984,152.073L67.762,155.046L68.651,152.045L71.313,143.072L73.874,143.072L69.015,158.601L66.286,158.601L63.814,149.299L63.211,146.648L60.071,158.601L57.322,158.601L57.321,158.6ZM78.504,158.6L78.504,155.599L81.505,155.599L81.505,158.6L78.504,158.6ZM95.158,156.246L95.537,158.571C94.798,158.724 94.132,158.805 93.55,158.805C92.592,158.805 91.854,158.656 91.324,158.352C90.799,158.051 90.43,157.653 90.216,157.159C90.003,156.67 89.891,155.631 89.891,154.052L89.891,145.116L87.96,145.116L87.96,143.072L89.891,143.072L89.891,139.222L92.512,137.642L92.512,143.071L95.159,143.071L95.159,145.116L92.512,145.116L92.512,154.198C92.512,154.951 92.558,155.43 92.647,155.646C92.742,155.863 92.892,156.03 93.1,156.159C93.311,156.283 93.61,156.349 94,156.349C94.294,156.349 94.677,156.316 95.158,156.247L95.158,156.247L95.158,156.246ZM101.071,140.191L101.071,137.16L103.707,137.16L103.707,140.191L101.071,140.191ZM101.071,158.6L101.071,143.072L103.707,143.072L103.707,158.6L101.071,158.6ZM117.608,142.716C118.935,142.716 120.009,142.873 120.839,143.185C121.667,143.499 122.276,143.887 122.671,144.362C123.061,144.837 123.329,145.43 123.49,146.153C123.575,146.604 123.62,147.41 123.62,148.581L123.62,152.088C123.62,154.541 123.675,156.087 123.791,156.731C123.9,157.381 124.125,158.004 124.454,158.599L121.703,158.599C121.472,158.132 121.308,157.596 121.218,156.992L121.179,156.684L121.178,156.684C120.198,157.51 119.26,158.095 118.36,158.439C117.457,158.779 116.488,158.947 115.456,158.947C113.748,158.947 112.441,158.535 111.521,157.7C110.609,156.866 110.15,155.798 110.15,154.505C110.15,153.741 110.32,153.05 110.669,152.42C111.012,151.791 111.466,151.287 112.026,150.906C112.591,150.526 113.22,150.236 113.924,150.043C114.437,149.908 115.216,149.773 116.26,149.648C118.385,149.393 119.955,149.092 120.956,148.737C120.968,148.379 120.972,148.148 120.972,148.054C120.972,146.984 120.723,146.221 120.223,145.787C119.555,145.192 118.551,144.895 117.228,144.895C115.99,144.895 115.078,145.112 114.484,145.546C113.892,145.977 113.46,146.748 113.174,147.85L110.604,147.499C110.84,146.398 111.224,145.506 111.758,144.83C112.292,144.153 113.07,143.627 114.083,143.265C115.099,142.899 116.271,142.716 117.608,142.716ZM120.958,150.802L120.957,150.802C119.999,151.196 118.566,151.525 116.659,151.803C115.577,151.956 114.807,152.133 114.365,152.326C113.913,152.52 113.565,152.805 113.325,153.184C113.082,153.557 112.957,153.97 112.957,154.432C112.957,155.137 113.227,155.718 113.755,156.19C114.283,156.654 115.064,156.888 116.085,156.888C117.101,156.888 118.004,156.669 118.793,156.223C119.582,155.777 120.165,155.17 120.534,154.402C120.818,153.806 120.958,152.929 120.958,151.77L120.958,150.802ZM131.03,158.6L131.03,143.072L133.396,143.072L133.396,145.276C134.541,143.569 136.188,142.716 138.339,142.716C139.277,142.716 140.136,142.885 140.92,143.217C141.708,143.557 142.291,143.996 142.68,144.548C143.075,145.089 143.345,145.741 143.505,146.49C143.6,146.98 143.649,147.831 143.649,149.049L143.649,158.6L141.013,158.6L141.013,149.148C141.013,148.08 140.914,147.276 140.71,146.742C140.505,146.215 140.141,145.788 139.623,145.477C139.098,145.155 138.489,144.998 137.786,144.998C136.661,144.998 135.698,145.356 134.879,146.066C134.065,146.779 133.661,148.128 133.661,150.117L133.661,158.601L131.031,158.601L131.03,158.6ZM150.896,164.582L150.601,162.11C151.18,162.264 151.68,162.344 152.109,162.344C152.693,162.344 153.163,162.246 153.512,162.049C153.867,161.854 154.151,161.588 154.375,161.234C154.545,160.97 154.81,160.32 155.179,159.274C155.231,159.124 155.309,158.916 155.415,158.63L149.524,143.072L152.359,143.072L155.594,152.059C156.007,153.204 156.387,154.402 156.716,155.661C157.021,154.451 157.38,153.273 157.8,152.121L161.121,143.072L163.751,143.072L157.844,158.864C157.21,160.571 156.716,161.745 156.367,162.387C155.897,163.257 155.364,163.89 154.758,164.296C154.151,164.698 153.431,164.903 152.594,164.903C152.084,164.903 151.521,164.794 150.896,164.582L150.896,164.582L150.896,164.582ZM175.886,142.716C177.213,142.716 178.287,142.873 179.117,143.185C179.945,143.499 180.554,143.887 180.949,144.362C181.339,144.837 181.608,145.43 181.769,146.153C181.846,146.566 181.891,147.278 181.898,148.296L181.899,152.088C181.899,154.541 181.954,156.087 182.068,156.731C182.179,157.381 182.402,158.004 182.733,158.599L179.981,158.599C179.75,158.132 179.586,157.596 179.496,156.992L179.457,156.684L179.454,156.684C178.475,157.51 177.538,158.095 176.639,158.439C175.735,158.779 174.766,158.947 173.734,158.947C172.026,158.947 170.719,158.535 169.8,157.7C168.886,156.866 168.429,155.798 168.429,154.505C168.429,153.741 168.598,153.05 168.946,152.42C169.291,151.791 169.745,151.287 170.305,150.906C170.87,150.526 171.497,150.236 172.202,150.043C172.716,149.908 173.494,149.773 174.538,149.648C176.664,149.393 178.232,149.092 179.234,148.737C179.246,148.379 179.249,148.148 179.249,148.054C179.249,146.984 179,146.221 178.501,145.787C177.831,145.192 176.828,144.895 175.505,144.895C174.268,144.895 173.354,145.112 172.759,145.546C172.171,145.977 171.737,146.748 171.453,147.85L168.882,147.499C169.116,146.398 169.502,145.506 170.036,144.83C170.57,144.153 171.348,143.627 172.362,143.265C173.375,142.899 174.549,142.716 175.886,142.716ZM179.233,150.801C178.275,151.196 176.843,151.525 174.936,151.803C173.853,151.956 173.084,152.133 172.64,152.326C172.189,152.52 171.841,152.805 171.601,153.184C171.356,153.557 171.232,153.97 171.232,154.432C171.232,155.137 171.501,155.718 172.031,156.19C172.559,156.654 173.337,156.888 174.361,156.888C175.374,156.888 176.279,156.669 177.066,156.223C177.856,155.777 178.439,155.17 178.809,154.402C179.093,153.806 179.233,152.929 179.233,151.77L179.233,150.801ZM190.05,158.6L190.05,155.599L193.051,155.599L193.051,158.6L190.05,158.6ZM211.091,152.911L213.676,153.247C213.397,155.031 212.673,156.427 211.504,157.436C210.342,158.446 208.91,158.947 207.212,158.947C205.089,158.947 203.379,158.256 202.09,156.867C200.798,155.481 200.149,153.488 200.149,150.892C200.149,149.214 200.428,147.747 200.981,146.491C201.541,145.234 202.384,144.289 203.523,143.661C204.656,143.029 205.894,142.718 207.227,142.718C208.915,142.718 210.297,143.145 211.366,143.998C212.439,144.854 213.129,146.06 213.432,147.632L210.87,148.027C210.627,146.984 210.197,146.202 209.578,145.672C208.96,145.15 208.211,144.882 207.332,144.882C206.005,144.882 204.925,145.358 204.098,146.312C203.268,147.258 202.855,148.761 202.855,150.816C202.855,152.903 203.253,154.42 204.057,155.372C204.856,156.315 205.9,156.79 207.187,156.79C208.22,156.79 209.08,156.469 209.773,155.837C210.468,155.201 210.908,154.228 211.092,152.912L211.092,152.912L211.091,152.911ZM219.262,158.6L219.262,143.072L221.628,143.072L221.628,145.276C222.77,143.569 224.42,142.716 226.572,142.716C227.509,142.716 228.366,142.885 229.151,143.217C229.941,143.557 230.523,143.996 230.914,144.548C231.309,145.089 231.579,145.741 231.739,146.49C231.832,146.98 231.883,147.831 231.883,149.049L231.883,158.6L229.247,158.6L229.247,149.148C229.247,148.08 229.149,147.276 228.944,146.742C228.739,146.215 228.374,145.788 227.855,145.477C227.331,145.155 226.721,144.998 226.019,144.998C224.895,144.998 223.932,145.356 223.112,146.066C222.298,146.779 221.894,148.128 221.894,150.117L221.894,158.601L219.264,158.601L219.262,158.6Z" fill="#000" stroke="#00000000" stroke-width="1.0" stroke-miterlimit=""/>
	</svg>
