<?xml version="1.0" encoding="utf-8"?>
	<svg version="1.1" xmlns="http://www.w3.org/2000/svg" xmlns:xlink="http://www.w3.org/1999/xlink" x="0px" y="0px" width="240.0" height="240.0" xml:space="preserve">
		<path d="M120.482,20C124.646,20.119 128.771,21.735 132.004,24.81L132.325,25.122L151.38,44.178L178.344,44.178C187.865,44.178 195.623,51.828 195.799,61.308L195.802,61.635L195.802,88.599L214.898,107.655C221.612,114.41 221.7,125.276 215.16,132.098L214.898,132.366L195.843,151.421L195.843,178.385C195.843,187.906 188.192,195.664 178.713,195.84L178.385,195.843L151.421,195.843L132.366,214.898C125.611,221.612 114.784,221.7 107.924,215.16L107.655,214.898L88.599,195.843L61.635,195.843C52.114,195.843 44.356,188.192 44.181,178.713L44.178,178.385L44.178,151.421L25.122,132.366C21.721,128.964 20,124.497 20,120.031C20,115.664 21.615,111.336 24.808,107.977L25.122,107.655L44.178,88.599L44.178,61.635C44.178,52.114 51.788,44.356 61.306,44.181L61.635,44.178L88.6,44.178L107.655,25.122C110.828,21.95 114.921,20.236 119.082,20.017L119.498,20L120.482,20ZM119.867,107.778C104.622,107.778 92.042,119.252 90.28,134.046C77.945,134.415 68.028,144.577 68.028,156.994C68.028,169.698 78.314,179.942 91.017,179.942L149.003,179.942C161.707,179.942 171.952,169.657 171.952,156.994C171.952,144.495 161.953,134.333 149.495,134.046C147.733,119.252 135.152,107.778 119.867,107.778ZM137.939,134.046C141.299,134.046 144.25,138.594 139.332,142.201L139.332,142.201L127.407,151.134C127.407,151.134 124.129,153.511 119.826,153.47C115.523,153.511 112.245,151.134 112.245,151.134L112.245,151.134L100.32,142.201C95.443,138.594 98.435,134.046 101.795,134.046L101.795,134.046ZM151.093,99.541C146.995,99.541 143.676,102.86 143.676,106.958C143.676,111.056 146.995,114.375 151.093,114.375C155.191,114.375 158.51,111.056 158.51,106.958C158.51,102.86 155.191,99.541 151.093,99.541ZM88.64,99.541C84.543,99.541 81.223,102.86 81.223,106.958C81.223,111.056 84.543,114.375 88.64,114.375C92.738,114.375 96.058,111.056 96.058,106.958C96.058,102.86 92.738,99.541 88.64,99.541Z" fill="#000" stroke="#00000000" stroke-width="1.0" stroke-miterlimit=""/>
	</svg>
