<?xml version="1.0" encoding="utf-8"?>
	<svg version="1.1" xmlns="http://www.w3.org/2000/svg" xmlns:xlink="http://www.w3.org/1999/xlink" x="0px" y="0px" width="240.0" height="240.0" xml:space="preserve">
		<path d="M120.377,153.404V153.322C118.192,153.322 116.006,153.322 113.821,153.322C98.503,153.323 83.182,153.323 67.861,153.296C67.627,153.296 67.372,153.326 67.113,153.356C66.296,153.451 65.434,153.551 65.032,152.752C64.649,151.992 65.197,151.345 65.721,150.725C65.899,150.515 66.073,150.309 66.208,150.103C76.685,134.122 87.18,118.147 97.675,102.173C100.542,97.81 103.408,93.448 106.274,89.085C107.732,86.862 107.876,86.867 109.344,89.039C118.606,102.772 127.868,116.506 137.135,130.234C138.614,132.427 138.819,132.437 140.154,130.137C141.883,127.156 143.596,124.166 145.309,121.175C146.694,118.758 148.079,116.341 149.472,113.929C150.889,111.469 151.115,111.459 152.573,113.821C160.192,126.173 167.796,138.536 175.384,150.909C175.467,151.045 175.572,151.183 175.679,151.324C176.058,151.825 176.466,152.364 176.061,152.952C175.646,153.554 174.931,153.49 174.249,153.43C174.046,153.412 173.847,153.394 173.659,153.394C159.449,153.406 145.236,153.405 131.024,153.405C127.475,153.404 123.926,153.404 120.377,153.404Z" fill="#000" stroke="" stroke-width="" stroke-miterlimit=""/>
		<path d="M145.791,100.482C139.563,100.529 134.527,95.523 134.547,89.306C134.568,83.124 139.692,78.103 145.883,78.196C151.957,78.288 156.932,83.335 156.911,89.388C156.886,95.42 151.859,100.436 145.791,100.482Z" fill="#000" stroke="" stroke-width="" stroke-miterlimit=""/>
		<path d="M219.062,218.23C219.334,218.368 219.605,218.506 219.862,218.658C218.445,219.98 217.53,219.953 216.711,219.928C216.601,219.924 216.494,219.921 216.386,219.921C209.22,219.922 202.053,219.941 194.887,219.96C176.094,220.01 157.301,220.06 138.513,219.793C135.654,219.753 132.792,219.766 129.928,219.78C122.461,219.815 114.988,219.85 107.555,218.94C67.15,213.996 33.599,185.004 23.362,145.544C9.833,93.397 38.343,42.504 87.219,25.551C142.004,6.555 201.513,38.001 216.104,94.127C225.258,129.356 217.028,160.885 192.652,188.023C190.963,189.902 191.101,190.888 192.79,192.551C197.67,197.364 202.506,202.222 207.343,207.08C210.7,210.451 214.057,213.822 217.429,217.179C217.876,217.626 218.47,217.929 219.062,218.23ZM120.105,38.063C74.941,37.98 38.11,74.638 38.068,119.699C38.032,164.827 74.541,201.567 119.489,201.633C164.72,201.7 201.593,165.084 201.639,120.059C201.68,75.136 164.9,38.145 120.105,38.063Z" fill="#000" stroke="" stroke-width="" stroke-miterlimit=""/>
	</svg>
