<?xml version="1.0" encoding="utf-8"?>
	<svg version="1.1" xmlns="http://www.w3.org/2000/svg" xmlns:xlink="http://www.w3.org/1999/xlink" x="0px" y="0px" width="240.0" height="240.0" xml:space="preserve">
		<path d="M211.439,79.078C204.244,71.884 177.069,69.668 175.207,69.55C174.811,69.247 174.103,67.891 173.682,67.074C172.427,64.656 170.54,61 166.336,61H73.672C69.468,61 67.581,64.656 66.326,67.074C65.905,67.891 65.198,69.256 65.248,69.424C63.058,69.424 35.781,71.875 28.57,79.078C26.775,80.872 23.44,84.208 20.053,137.204C19.651,143.918 21.542,150.571 25.415,156.07C29.289,161.569 34.916,165.589 41.374,167.471L80.934,178.776C81.312,178.884 81.703,178.938 82.096,178.936H157.912C158.303,178.938 158.691,178.884 159.066,178.776L198.626,167.471C205.084,165.589 210.711,161.569 214.585,156.07C218.458,150.571 220.349,143.918 219.947,137.204C216.569,84.217 213.224,80.872 211.439,79.078V79.078ZM56.824,119.968H52.612V124.18C52.612,125.297 52.168,126.369 51.378,127.159C50.588,127.948 49.517,128.392 48.4,128.392C47.283,128.392 46.212,127.948 45.422,127.159C44.632,126.369 44.188,125.297 44.188,124.18V119.968H39.976C38.859,119.968 37.787,119.524 36.998,118.735C36.208,117.945 35.764,116.873 35.764,115.756C35.764,114.639 36.208,113.568 36.998,112.778C37.787,111.988 38.859,111.544 39.976,111.544H44.188V107.332C44.188,106.215 44.632,105.144 45.422,104.354C46.212,103.564 47.283,103.12 48.4,103.12C49.517,103.12 50.588,103.564 51.378,104.354C52.168,105.144 52.612,106.215 52.612,107.332V111.544H56.824C57.941,111.544 59.013,111.988 59.802,112.778C60.592,113.568 61.036,114.639 61.036,115.756C61.036,116.873 60.592,117.945 59.802,118.735C59.013,119.524 57.941,119.968 56.824,119.968V119.968ZM162.124,145.24H77.884V94.696H162.124V145.24ZM183.184,119.968C182.067,119.968 180.996,119.524 180.206,118.735C179.416,117.945 178.972,116.873 178.972,115.756C178.972,114.639 179.416,113.568 180.206,112.778C180.996,111.988 182.067,111.544 183.184,111.544C184.302,111.544 185.373,111.988 186.163,112.778C186.953,113.568 187.396,114.639 187.396,115.756C187.396,116.873 186.953,117.945 186.163,118.735C185.373,119.524 184.302,119.968 183.184,119.968V119.968ZM200.032,111.544C198.915,111.544 197.844,111.1 197.054,110.31C196.264,109.521 195.82,108.449 195.82,107.332C195.82,106.215 196.264,105.144 197.054,104.354C197.844,103.564 198.915,103.12 200.032,103.12C201.15,103.12 202.221,103.564 203.011,104.354C203.801,105.144 204.244,106.215 204.244,107.332C204.244,108.449 203.801,109.521 203.011,110.31C202.221,111.1 201.15,111.544 200.032,111.544V111.544Z" fill="#000" stroke="" stroke-width="" stroke-miterlimit=""/>
	</svg>
