<?xml version="1.0" encoding="utf-8"?>
	<svg version="1.1" xmlns="http://www.w3.org/2000/svg" xmlns:xlink="http://www.w3.org/1999/xlink" x="0px" y="0px" width="240.0" height="240.0" xml:space="preserve">
		<path d="M48.156,125.36C48.232,125.203 48.307,125.046 48.383,124.89C49.462,124.169 50.031,123.004 50.782,122.016C59.245,110.886 69.307,101.805 82.585,96.71C88.12,94.586 93.805,93.023 99.652,92.217C106.264,91.304 112.919,91.047 119.619,91.294C127.22,91.576 134.625,92.867 141.955,94.719C147.779,96.191 153.406,98.205 158.956,100.557C164.203,102.781 169.329,105.206 174.18,108.143C183.779,113.954 192.816,120.556 200.809,128.479C205.712,133.338 210.215,138.528 213.472,144.698C214.012,145.721 214.403,146.917 215.448,147.63C219.288,155.523 220.933,163.782 219.472,172.523C217.751,182.817 213.6,191.91 206.061,199.302C199.63,205.608 192.091,209.935 183.287,211.935C177.199,213.318 171.058,213.418 164.889,212.408C155.208,210.822 147.177,206.128 139.827,199.793C132.867,193.795 126.679,187.043 120.095,180.68C114.258,175.039 108.276,169.573 101.081,165.644C100.537,165.346 100.046,164.877 99.618,165.752C99.959,164.151 98.442,164.184 97.683,163.777C90.255,159.798 82.418,156.898 74.115,155.382C67.219,154.124 60.212,153.722 53.402,155.409C40.42,158.626 30.139,165.804 23.512,177.644C21.226,181.729 20.216,186.241 20.33,190.96C19.39,185.02 20.546,179.367 22.714,173.866C25.346,167.189 28.763,160.887 32.111,154.56C36.571,146.131 41.147,137.763 45.7,129.384C46.409,128.079 47.259,126.851 48.043,125.59C48.303,125.624 48.147,125.452 48.156,125.36" fill="#000" stroke="#00000000" stroke-width="1.0" stroke-miterlimit=""/>
		<path d="M215.448,147.63C214.403,146.917 214.012,145.721 213.472,144.698C210.215,138.528 205.711,133.338 200.809,128.479C192.816,120.556 183.779,113.954 174.18,108.142C169.329,105.206 164.203,102.78 158.956,100.557C153.406,98.205 147.779,96.191 141.955,94.719C134.625,92.867 127.22,91.576 119.619,91.294C112.919,91.046 106.264,91.304 99.652,92.217C93.806,93.023 88.12,94.586 82.584,96.71C69.307,101.805 59.245,110.885 50.782,122.016C50.031,123.004 49.462,124.169 48.383,124.89C50.545,120.858 52.675,116.81 54.875,112.8C59.333,104.673 63.855,96.581 68.304,88.448C75.718,74.893 82.896,61.205 90.552,47.789C96.177,37.931 104.251,30.729 115.637,28.025C122.04,26.505 128.478,26.612 134.722,28.773C142.067,31.317 148.056,35.841 152.792,42.008C158.047,48.851 162.313,56.334 166.742,63.706C171.458,71.555 176.049,79.478 180.692,87.371C183.906,92.837 187.105,98.312 190.333,103.77C194.147,110.218 198.046,116.617 201.787,123.107C203.595,126.244 205.589,129.262 207.224,132.524C208.649,135.368 210.796,137.86 212.251,140.742C213.393,143.004 214.617,145.225 215.448,147.63" fill="#000" stroke="#00000000" stroke-width="1.0" stroke-miterlimit=""/>
		<path d="M20.33,190.96C20.215,186.24 21.226,181.729 23.512,177.644C30.138,165.805 40.42,158.626 53.402,155.409C60.212,153.722 67.219,154.124 74.115,155.382C82.418,156.897 90.255,159.798 97.683,163.777C98.442,164.184 99.959,164.151 99.618,165.752C91.881,175.577 84.577,185.728 77.068,195.724C72.584,201.693 67.303,206.957 60.434,210.312C54.196,213.358 47.693,213.878 40.939,212.562C35.948,211.589 31.431,209.668 27.832,206.033C23.7,201.859 20.931,196.93 20.33,190.96" fill="#000" stroke="#00000000" stroke-width="1.0" stroke-miterlimit=""/>
	</svg>
