<?xml version="1.0" encoding="utf-8"?>
	<svg version="1.1" xmlns="http://www.w3.org/2000/svg" xmlns:xlink="http://www.w3.org/1999/xlink" x="0px" y="0px" width="240.0" height="240.0" xml:space="preserve">
		<path d="M183.365,20.025C184.171,20.026 184.978,20.165 186.475,20.302C153.171,53.577 120.342,86.379 86.921,119.771C120.54,153.367 153.372,186.178 186.901,219.684C184.624,219.816 183.218,219.968 181.813,219.969C162.388,219.985 142.962,220.073 123.539,219.854C121.267,219.828 118.453,218.645 116.839,217.043C85.579,186.009 54.501,154.794 23.251,123.752C20.344,120.864 20.177,119.329 23.192,116.335C54.454,85.306 85.533,54.093 116.761,23.03C118.247,21.552 120.642,20.163 122.628,20.143C142.872,19.933 163.119,20.013 183.365,20.025ZM153.094,87.139C157.679,92.103 162.569,97.397 167.905,103.175C172.734,98.371 176.859,94.269 180.982,90.165C184.72,86.445 184.722,86.443 188.539,90.207C198.36,99.895 208.179,109.584 218.327,119.593C216.99,121.121 216.104,122.261 215.091,123.275C205.912,132.468 196.637,141.566 187.569,150.868C185.409,153.084 184.065,153.195 181.98,150.928C177.748,146.326 173.301,141.923 168.43,136.909C163.015,142.795 158.135,148.1 153.485,153.154C141.89,141.468 130.995,130.488 120.282,119.691C130.724,109.331 141.655,98.487 153.094,87.139Z" fill="#000" stroke="#00000000" stroke-width="1.0" stroke-miterlimit=""/>
	</svg>
