<?xml version="1.0" encoding="utf-8"?>
	<svg version="1.1" xmlns="http://www.w3.org/2000/svg" xmlns:xlink="http://www.w3.org/1999/xlink" x="0px" y="0px" width="240.0" height="240.0" xml:space="preserve">
		<path d="M115.496,28.041C124.098,28.332 132.496,29.805 140.955,32.517C139.892,33.06 138.952,32.916 138.091,33.023C125.146,34.637 113.18,39.058 101.986,45.641C86.696,54.634 74.636,66.949 65.244,81.903C56.788,95.369 50.535,109.775 47.311,125.412L47.189,126.07L47.189,126.07L46.978,127.392L46.978,127.392C45.401,136.031 44.875,144.72 45.818,153.467C46.843,162.981 49.199,172.073 54.413,180.251C59.865,188.804 67.272,195.009 76.835,198.392C90.128,203.095 103.181,201.847 115.872,196.071C126.389,191.286 134.559,183.718 141.048,174.26C146.349,166.533 150.209,158.134 152.856,149.144C154.409,143.866 155.604,138.522 156.511,133.105C156.802,131.128 157.144,129.156 157.359,127.171C157.459,126.248 158.028,126.394 158.589,126.399C163.371,126.444 168.153,126.502 172.934,126.544C178.25,126.591 183.575,126.834 188.879,126.602C193.531,126.398 198.251,126.143 202.571,123.976C203.272,123.624 203.776,122.883 204.661,122.895C204.819,127.496 204.131,132.005 203.407,136.537C201.013,151.528 194.861,164.834 185.757,176.874C182.781,180.81 179.533,184.543 175.914,187.848C163.072,199.578 148.223,207.576 131.073,211.025C114.466,214.365 98.115,213.337 82.116,207.767C63.596,201.322 48.688,189.974 37.204,174.112C30.206,164.445 25.426,153.728 22.559,142.179C21.657,138.546 20.993,134.838 20.575,131.089C20.251,128.178 20.141,125.269 20,122.355C20.176,119.859 20.051,117.359 20.197,114.854C20.488,109.889 21.241,105.006 22.273,100.16C25.087,86.939 30.901,75.094 38.97,64.328C42.273,59.92 45.987,55.841 50.076,52.157C55.287,47.463 60.984,43.421 67.077,39.902C73.862,35.985 81.045,33.107 88.583,31.103C93.408,29.821 98.318,28.959 103.307,28.501C107.368,28.13 111.424,27.903 115.496,28.041ZM211.067,83.25C211.402,85.928 211.101,88.554 210.9,91.2C210.681,94.075 210.042,96.83 209.066,99.509C205.383,109.628 198.058,115.292 187.518,116.959C184.813,117.387 182.086,117.493 179.352,117.469C160.679,117.305 142.006,117.142 123.333,116.996C123.277,116.995 123.22,116.992 123.163,116.987L122.988,116.969C122.491,116.915 121.981,116.862 121.802,117.741C120.816,122.602 119.749,127.446 118.711,132.297C118.247,134.255 117.794,136.216 117.319,138.171C116.732,140.591 116.187,143.022 115.648,145.454L114.84,149.101C113.891,153.356 112.904,157.6 111.678,161.787C108.759,171.76 102.537,178.532 92.368,181.397C86.536,183.041 80.613,183.103 74.652,182.412C71.852,182.088 69.081,181.608 66.434,180.336C67.01,179.529 67.56,178.795 68.071,178.035C70.935,173.771 72.471,168.924 74.026,164.109C76.085,157.731 77.4,151.156 78.88,144.628C80.181,138.897 81.471,133.163 82.765,127.431C83.662,124.278 84.193,121.046 84.853,117.842C86.365,110.503 88.271,103.322 92.879,97.176C97.017,91.659 102.478,88.147 109.082,86.337C111.478,85.68 113.914,85.379 116.405,85.228C126.689,84.607 136.972,85.108 147.254,85.136C164.359,85.181 181.465,85.356 198.57,85.444C202.818,85.466 206.996,84.965 211.067,83.25ZM219.992,38.611C219.246,47.623 217.09,56.125 210.667,62.924C206.635,67.193 201.402,69.171 195.681,69.631C186.431,70.377 177.153,69.846 167.888,69.801C155.842,69.742 143.796,69.563 131.749,69.488C127.268,69.461 122.798,69.702 118.413,70.757C115.769,71.394 114.179,72.146 112.013,73.821C111.93,71.35 112.544,69.12 113.143,66.968C114.567,61.851 116.453,56.893 119.454,52.434C124.848,44.42 132.296,40.018 141.998,39.679C145.53,39.556 149.072,39.679 152.609,39.706C169.313,39.832 186.017,39.982 202.721,40.082C207.192,40.109 211.659,39.945 216.067,39.063C217.118,38.853 218.155,38.585 219.121,38.126C219.72,37.841 220.058,37.811 219.992,38.611Z" fill="#000" stroke="#00000000" stroke-width="1.0" stroke-miterlimit=""/>
	</svg>
