<?xml version="1.0" encoding="utf-8"?>
	<svg version="1.1" xmlns="http://www.w3.org/2000/svg" xmlns:xlink="http://www.w3.org/1999/xlink" x="0px" y="0px" width="240.0" height="240.0" xml:space="preserve">
		<path d="M127.767,30.056C154.512,30.056 181.251,30.072 207.995,30.011C209.651,30.006 209.984,30.344 209.984,32C209.929,90.678 209.923,149.356 210.001,208.033C210.001,210.072 209.212,210.006 207.717,210.006C148.495,209.972 89.273,209.978 30.051,209.978C30.051,196.278 30.051,182.583 30.051,168.883C31.09,168.572 32.051,168.967 33.045,169.172C65.462,175.9 93.64,167.833 117.512,144.883C118.773,143.672 120.017,143.233 121.684,143.239C131.956,143.278 142.223,143.261 152.495,143.239C157.767,143.228 159.067,141.067 156.523,136.556C151.567,127.778 146.656,118.978 141.556,110.283C140.323,108.178 140.173,106.35 140.756,104.044C145.784,84.183 144.19,64.806 136.273,45.917C133.94,40.344 130.651,35.311 127.767,30.056Z" fill="#000" stroke="" stroke-width="" stroke-miterlimit=""/>
		<path d="M127.767,30.056C130.645,35.317 133.933,40.344 136.267,45.911C144.183,64.805 145.778,84.178 140.75,104.039C140.167,106.344 140.317,108.178 141.55,110.278C146.65,118.972 151.561,127.778 156.517,136.55C159.067,141.061 157.761,143.222 152.489,143.233C142.217,143.256 131.95,143.272 121.678,143.233C120.011,143.228 118.767,143.661 117.506,144.878C93.633,167.828 65.456,175.894 33.039,169.167C32.05,168.961 31.083,168.567 30.045,168.878C30.056,123.344 30.067,77.811 30,32.278C29.994,30.372 30.372,29.994 32.272,30C64.106,30.078 95.939,30.056 127.767,30.056ZM103.372,103.344C97.456,103.344 91.545,103.4 85.633,103.311C83.828,103.283 83.211,103.772 83.411,105.656C84.461,115.539 93.161,123.322 103.311,123.344C113.433,123.367 122.222,115.567 123.261,105.717C123.45,103.95 123.033,103.272 121.111,103.306C115.2,103.422 109.283,103.35 103.372,103.344ZM96.678,90.105C96.717,86.394 93.795,83.4 90.094,83.361C86.383,83.322 83.389,86.239 83.35,89.944C83.311,93.656 86.233,96.65 89.933,96.689C93.645,96.733 96.639,93.811 96.678,90.105ZM123.322,89.906C123.25,86.2 120.245,83.3 116.539,83.367C112.833,83.433 109.933,86.444 110.006,90.15C110.078,93.855 113.089,96.761 116.789,96.689C120.489,96.617 123.395,93.6 123.322,89.906Z" fill="#000" stroke="" stroke-width="" stroke-miterlimit=""/>
	</svg>
