<?xml version="1.0" encoding="utf-8"?>
	<svg version="1.1" xmlns="http://www.w3.org/2000/svg" xmlns:xlink="http://www.w3.org/1999/xlink" x="0px" y="0px" width="240.0" height="240.0" xml:space="preserve">
		<path d="M202.949,84.954C196.041,68.666 184.494,54.771 169.745,44.999C154.996,35.228 137.698,30.011 120.006,30C108.184,29.973 96.473,32.288 85.55,36.811C74.627,41.334 64.707,47.975 56.364,56.352C47.986,64.694 41.342,74.613 36.818,85.536C32.292,96.459 29.976,108.17 30,119.994C29.973,131.819 32.289,143.533 36.814,154.458C41.339,165.384 47.984,175.305 56.364,183.648C64.714,192.016 74.634,198.652 85.556,203.174C96.478,207.696 108.185,210.016 120.006,210C131.831,210.028 143.544,207.715 154.47,203.192C165.395,198.669 175.316,192.026 183.66,183.648C192.039,175.304 198.681,165.382 203.204,154.457C207.727,143.532 210.041,131.818 210.012,119.994C210.012,107.843 207.637,96.055 202.949,84.954V84.954ZM121.869,113.156L124.519,114.518C133.382,119.119 138.332,122.369 141.645,125.719C145.195,129.332 146.983,133.245 147.596,138.782C148.196,144.295 146.571,149.608 142.883,154.146C139.025,158.719 133.802,161.935 127.982,163.322L126.944,163.584V173.997C126.944,175.834 126.215,177.596 124.916,178.894C123.617,180.193 121.855,180.923 120.019,180.923C118.182,180.923 116.42,180.193 115.122,178.894C113.823,177.596 113.093,175.834 113.093,173.997V163.647L112.043,163.384C108.165,162.474 104.468,160.919 101.105,158.784C98.482,157.213 96.103,155.267 94.042,153.008C92.835,151.623 92.228,149.814 92.355,147.981C92.481,146.148 93.331,144.44 94.717,143.233C96.103,142.026 97.911,141.419 99.745,141.546C101.578,141.672 103.286,142.522 104.493,143.908C105.068,144.57 106.468,145.795 108.455,147.046C112.081,149.308 115.956,150.446 119.994,150.446C124.807,150.446 129.207,148.733 131.77,145.883C132.489,145.151 133.046,144.274 133.401,143.311C133.757,142.347 133.904,141.319 133.832,140.295C133.357,135.957 129.694,132.82 118.169,126.832L115.506,125.469C106.643,120.869 101.68,117.631 98.38,114.281C94.817,110.668 93.042,106.755 92.442,101.205C91.817,95.692 93.442,90.379 97.13,85.854C100.705,81.454 106.005,78.191 112.043,76.666L113.068,76.403V66.003C113.174,64.235 113.952,62.574 115.241,61.359C116.531,60.145 118.235,59.469 120.006,59.469C121.777,59.469 123.482,60.145 124.771,61.359C126.061,62.574 126.838,64.235 126.944,66.003V76.353L127.994,76.603C131.895,77.528 135.557,79.078 138.933,81.204C142.795,83.616 145.008,85.854 145.995,86.979C147.161,88.369 147.734,90.16 147.593,91.968C147.452,93.776 146.607,95.457 145.24,96.649C143.873,97.841 142.093,98.449 140.282,98.342C138.472,98.236 136.775,97.424 135.557,96.08C134.376,94.864 133.039,93.809 131.582,92.942C128.142,90.724 124.137,89.539 120.044,89.529C115.243,89.529 110.831,91.242 108.268,94.104C107.548,94.838 106.992,95.714 106.634,96.677C106.277,97.64 106.126,98.667 106.193,99.692C106.668,104.03 110.331,107.168 121.869,113.156V113.156Z" fill="#ff231815" stroke="" stroke-width="" stroke-miterlimit=""/>
	</svg>
