<?xml version="1.0" encoding="utf-8"?>
	<svg version="1.1" xmlns="http://www.w3.org/2000/svg" xmlns:xlink="http://www.w3.org/1999/xlink" x="0px" y="0px" width="240.0" height="240.0" xml:space="preserve">
		<path d="M113.93,119.127C116.318,120.65 118.528,121.914 120.176,123.9C125.782,130.656 125.134,140.656 118.658,147.125C108.291,157.482 88.895,153.943 83.05,140.628C81.661,137.465 81.734,137.263 84.898,135.956C86.711,135.206 88.517,133.729 90.374,133.992C92.428,134.283 92.173,136.993 93.265,138.473C95.972,142.144 100.51,144.166 104.878,143.279C109.311,142.379 112.609,140.194 113.652,135.467C114.765,130.417 110.965,125.442 105.226,124.512C103.041,124.157 100.838,123.906 98.616,124.024C97.071,124.106 96.455,123.418 96.345,121.863C95.885,115.375 95.849,115.377 102.276,114.959C108.348,114.564 111.898,110.95 111.614,105.51C111.523,103.783 110.865,102.342 109.717,101.093C105.489,96.486 97.022,97.268 93.864,102.858C92.434,105.39 91.144,105.581 88.908,104.296C87.71,103.608 86.358,103.178 85.055,102.684C83.797,102.207 83.413,101.454 84.058,100.214C87.432,93.731 92.528,89.552 99.966,88.969C107.942,88.346 115.073,90.21 119.583,97.517C123.859,104.444 122.175,112.724 115.747,117.704C115.235,118.102 114.726,118.504 113.93,119.127" fill="#000" stroke="#00000000" stroke-width="1.0" stroke-miterlimit=""/>
		<path d="M153.958,120.948C153.958,130.131 153.902,139.315 153.998,148.497C154.022,150.832 153.266,151.637 150.89,151.616C144.006,151.554 144.005,151.642 144.005,144.71C144.005,132.002 144.008,119.293 143.995,106.584C143.994,105.869 144.319,104.913 143.679,104.494C142.814,103.929 142.21,104.926 141.584,105.35C139.549,106.728 137.555,108.17 135.584,109.64C134.507,110.441 133.681,110.433 132.975,109.198C132.609,108.559 132.152,107.973 131.751,107.354C128.651,102.562 128.3,103.548 133.025,100.117C137.005,97.226 141.077,94.461 145.014,91.514C147.487,89.663 150.208,90.324 152.825,90.537C154.352,90.661 153.936,92.328 153.94,93.398C153.972,102.581 153.958,111.765 153.958,120.948" fill="#000" stroke="#00000000" stroke-width="1.0" stroke-miterlimit=""/>
		<path d="M36,20L204,20C212.837,20 220,27.163 220,36L220,68L220,68L20,68L20,36C20,27.163 27.163,20 36,20Z" fill="#000" stroke="#00000000" stroke-width="1.0" stroke-miterlimit=""/>
		<path d="M20,36L20,204C20,212.837 27.163,220 36,220L68,220L68,220L68,20L36,20C27.163,20 20,27.163 20,36Z" fill="#000" stroke="#00000000" stroke-width="1.0" stroke-miterlimit=""/>
		<path d="M220,36L220,172L220,172L172,220L172,20L204,20C212.837,20 220,27.163 220,36Z" fill="#000" stroke="#00000000" stroke-width="1.0" stroke-miterlimit=""/>
		<path d="M36,220L172,220L172,220L220,172L20,172L20,204C20,212.837 27.163,220 36,220Z" fill="#000" stroke="#00000000" stroke-width="1.0" stroke-miterlimit=""/>
	</svg>
