<?xml version="1.0" encoding="utf-8"?>
	<svg version="1.1" xmlns="http://www.w3.org/2000/svg" xmlns:xlink="http://www.w3.org/1999/xlink" x="0px" y="0px" width="240.0" height="240.0" xml:space="preserve">
		<path d="M21.02,216.544C20.722,221.295 23.754,220.03 26.392,219.206C45.111,213.309 63.817,207.388 82.511,201.455C86.32,200.249 89.805,198.566 92.718,195.641C134.178,154.11 175.661,112.614 217.228,71.202C220.834,67.609 220.917,64.911 217.288,61.282C205.255,49.213 193.472,36.905 181.535,24.741C175.303,18.402 175.244,18.438 168.952,24.741C134.047,59.647 99.726,95.149 63.996,129.196C47.94,144.488 36.384,161.141 31.526,182.832C28.983,194.184 24.638,205.143 21.02,216.544Z" fill="#000" stroke="" stroke-width="" stroke-miterlimit=""/>
	</svg>
