<?xml version="1.0" encoding="utf-8"?>
	<svg version="1.1" xmlns="http://www.w3.org/2000/svg" xmlns:xlink="http://www.w3.org/1999/xlink" x="0px" y="0px" width="240.0" height="240.0" xml:space="preserve">
		<path d="M119.9,20C64.7,20 20,64.8 20,120C20,175.2 64.7,220 119.9,220C175.2,220 220,175.2 220,120C220,64.8 175.2,20 119.9,20ZM124.15,128.675L124.15,62.875L105.725,62.875L105.725,139.5L106.012,139.5L153.637,167L162.875,151.038L124.175,128.688L124.15,128.675ZM120,200C98.781,200.007 78.428,191.58 63.424,176.576C48.42,161.572 39.993,141.219 40,120C40,75.8 75.8,40 120,40C164.2,40 200,75.8 200,120C200,164.2 164.2,200 120,200L120,200Z" fill="#000" stroke="#00000000" stroke-width="1.0" stroke-miterlimit=""/>
	</svg>
