<?xml version="1.0" encoding="utf-8"?>
	<svg version="1.1" xmlns="http://www.w3.org/2000/svg" xmlns:xlink="http://www.w3.org/1999/xlink" x="0px" y="0px" width="240.0" height="240.0" xml:space="preserve">
		<path d="M214.699,118.647C213.877,118.577 213.055,118.506 212.218,118.435C212.955,112.099 214.019,105.791 214.302,99.427C214.458,96.039 214.274,90.384 212.544,89.618C209.185,88.13 204.111,88.3 200.723,89.873C198.654,90.837 197.449,95.685 197.463,98.789C197.52,107.719 198.257,116.663 199.008,125.579C199.419,130.441 197.264,132.638 192.729,132.992C188.264,133.332 183.785,133.828 179.32,133.771C174.217,133.715 173.253,136.394 174.104,140.589C175.294,146.514 179.447,148.329 188.221,147.01C189.667,146.798 191.198,147.138 192.686,147.223C192.403,148.981 192.729,151.319 191.722,152.368C187.838,156.394 183.586,160.065 179.348,163.722C177.364,165.437 175.11,166.826 171.51,169.42C175.422,171.163 177.69,173.119 179.787,172.964C195.124,171.886 202.381,160.391 209.426,147.917C214.132,150.922 218.101,153.474 222.92,156.55C219.263,159.37 216.683,161.355 213.834,163.552C218.866,164.827 223.175,166.798 227.456,166.727C231.17,166.67 236.315,165.366 238.214,162.73C241.106,158.718 240.567,153.559 236.003,149.505C230.758,144.842 224.777,144.289 218.228,144.26C215.663,144.246 213.097,142.375 210.546,141.355C212.303,138.633 213.565,135.345 215.918,133.29C220.468,129.307 225.882,126.302 230.39,122.276C231.708,121.1 232.247,116.932 231.24,115.784C229.78,114.097 226.308,112.779 224.252,113.332C220.836,114.253 217.86,116.791 214.699,118.647Z" fill="#000" stroke="" stroke-width="" stroke-miterlimit=""/>
		<path d="M0,194.012C4.153,192.127 5.556,191.192 7.087,190.837C30.035,185.664 48.306,171.745 67.016,158.718C75.62,152.723 77.052,146.543 72.403,137.287C67.059,138.874 63.118,140.844 63.331,147.946C63.529,154.197 58.753,157.131 52.544,155.657C47.101,154.353 48.037,150.724 48.717,146.287C49.78,139.342 49.568,132.184 49.979,123.041C40.298,128.144 32.842,131.943 25.528,135.969C14.344,142.12 7.186,139.852 1.262,127.251C5.245,126.387 9.199,126.004 12.771,124.657C34.727,116.365 56.598,107.847 78.498,99.399C83.345,97.528 83.855,94.197 83.303,89.264C81.531,73.842 80.199,58.364 79.419,42.857C79.263,39.81 81.602,35.16 84.139,33.842C86.846,32.425 92.289,32.836 94.429,34.778C96.442,36.606 96.938,41.851 95.96,44.927C91.538,58.945 91.751,73.261 91.949,87.648C92.006,91.886 94.004,92.992 97.945,91.617C101.106,90.511 104.394,89.803 108.136,88.768C109.61,95.94 108.746,99.739 101.488,100.859C96.116,101.695 91.807,104.969 93.409,111.631C96.811,125.791 100.269,139.937 103.941,154.027C104.479,156.096 106.265,157.84 109.327,159.498C110.56,150.242 111.807,141 113.04,131.745C113.735,131.688 114.415,131.631 115.11,131.589C115.776,134.055 116.754,136.479 117.066,138.973C118.568,150.88 119.717,162.843 121.375,174.735C122.339,181.667 121.588,187.804 116.371,192.935C111.623,197.613 108.15,197.244 105.84,190.922C101.049,177.783 96.726,164.473 92.105,150.937C89.653,153.771 87.059,157.698 83.6,160.618C67.768,173.984 51.836,187.237 35.648,200.15C28.717,205.678 20.865,210.058 11.906,204.147C8.122,201.596 4.89,198.208 0,194.012ZM87.81,135.515C88.519,135.076 89.228,134.636 89.95,134.197C89.058,127.591 88.533,120.915 87.186,114.409C85.556,106.585 84.89,106.897 77.435,109.633C71.439,111.83 72.077,115.274 74.259,119.342C76.456,123.453 78.923,127.478 81.758,131.163C83.203,133.049 85.755,134.083 87.81,135.515ZM67.229,114.466C63.487,117.627 55.493,115.827 58.214,123.821C59.291,126.982 60.17,133.034 66.052,130.072C74.231,125.947 68.249,120.292 67.229,114.466Z" fill="#000" stroke="" stroke-width="" stroke-miterlimit=""/>
		<path d="M35.734,91.078C47.442,85.749 57.463,80.873 67.782,76.72C70.362,75.685 73.905,77.017 77.009,77.272C76.017,81.057 76.258,86.656 73.82,88.3C65.542,93.871 56.669,99.384 45.953,92.68C43.544,91.163 39.887,91.66 35.734,91.078Z" fill="#000" stroke="" stroke-width="" stroke-miterlimit=""/>
		<path d="M130.206,78.151C130.206,79.881 130.248,80.816 130.206,81.752C129.851,88.456 124.366,95.387 120.737,93.049C117.25,90.809 115.28,85.224 114.033,80.731C112.856,76.436 113.381,71.645 113.352,67.067C113.338,65.295 113.324,62.9 114.373,61.936C115.252,61.128 117.803,61.638 119.376,62.205C127.158,65.026 130.985,70.54 130.206,78.151Z" fill="#000" stroke="" stroke-width="" stroke-miterlimit=""/>
		<path d="M31.949,173.119C30.886,168.952 29.553,165.891 29.454,162.786C29.355,159.64 30.276,156.394 31.127,153.304C31.694,151.277 32.757,147.974 33.933,147.818C36.116,147.535 38.894,148.683 40.78,150.1C42.296,151.248 43.048,153.601 43.77,155.557C44.918,158.647 47.484,163.665 46.421,164.672C43.033,167.903 38.242,169.661 31.949,173.119Z" fill="#000" stroke="" stroke-width="" stroke-miterlimit=""/>
	</svg>
