<?xml version="1.0" encoding="utf-8"?>
	<svg version="1.1" xmlns="http://www.w3.org/2000/svg" xmlns:xlink="http://www.w3.org/1999/xlink" x="0px" y="0px" width="240.0" height="240.0" xml:space="preserve">
		<path d="M139.058,182.508C126.698,180.506 116.497,175.115 107.019,168.245C105.964,167.481 105.224,165.47 105.299,164.083C105.831,154.281 106.429,144.479 107.368,134.702C108.373,124.285 105.565,118.968 96.145,114.557C90.887,112.098 85.712,109.457 80.403,107.139C78.277,106.209 77.695,104.979 77.679,102.77C77.529,82.991 74.04,63.777 67.843,45.02C67.469,43.899 67.877,42.104 68.599,41.116C72.022,36.431 75.627,31.87 79.29,27.368C80.104,26.363 81.309,25.358 82.513,25.05C108.198,18.471 133.908,18.181 159.601,25C160.972,25.366 162.467,26.188 163.348,27.26C167.136,31.845 170.816,36.522 174.296,41.34C175.002,42.32 175.169,44.198 174.77,45.386C168.531,64.159 165.499,83.465 164.777,103.193C164.727,104.531 163.389,106.375 162.152,107.023C156.403,110.038 150.539,112.854 144.599,115.479C138.593,118.129 135.453,122.748 135.528,129.078C135.628,137.36 136.317,145.65 136.882,153.924C137.513,163.286 138.294,172.639 139.058,182.508ZM128.409,69.26C128.409,60.413 128.409,51.574 128.409,42.728C128.409,39.089 125.352,35.974 121.606,35.808C117.901,35.642 114.287,39.064 114.287,42.769C114.279,60.18 114.279,77.591 114.287,95.003C114.287,99.954 116.015,101.906 120.833,102.496C124.92,102.994 128.401,99.896 128.401,95.784C128.401,86.945 128.401,78.107 128.409,69.26ZM102.342,95.327C102.342,77.965 102.342,61.443 102.342,44.115C97.258,46.366 92.606,48.326 88.087,50.561C87.448,50.876 87.132,52.579 87.257,53.576C88.677,65.355 90.172,77.126 91.759,88.889C91.9,89.952 92.548,91.423 93.379,91.83C96.062,93.125 98.936,94.031 102.342,95.327ZM140.678,44.198C140.678,61.543 140.678,78.165 140.678,95.235C143.104,94.33 145.114,93.491 147.183,92.843C149.857,92.012 150.821,90.509 151.137,87.527C152.358,76.296 154.144,65.123 155.539,53.909C155.681,52.754 154.983,50.802 154.086,50.337C149.974,48.177 145.646,46.416 140.678,44.198Z" fill="#000" stroke="" stroke-width="" stroke-miterlimit=""/>
		<path d="M157.209,161.782C162.359,168.461 167.501,175.14 173.507,182.931C173.507,180.248 173.997,178.52 173.424,177.291C170.591,171.219 168.05,164.872 164.295,159.39C160.307,153.566 155.066,148.607 149.683,142.477C159.161,147.311 166.122,153.658 172.361,160.852C179.04,168.569 184.323,177.108 186.424,187.259C189.863,203.856 180.884,216.574 164.029,219.108C145.471,221.891 127.869,217.953 111.247,210.211C101.179,205.526 91.917,199.105 82.389,193.307C80.578,192.202 79.199,190.391 78.152,188.132C82.704,190.532 87.074,193.39 91.834,195.259C102.724,199.529 113.747,203.474 124.837,207.171C127.62,208.101 130.884,207.603 133.925,207.761C134.033,207.271 134.149,206.789 134.257,206.299C132.778,205.534 131.366,204.571 129.813,204.023C107.633,196.148 87.647,184.684 70.992,167.879C63.856,160.677 57.559,152.819 54.336,142.942C50.033,129.751 56.338,119.525 70.136,117.963C75.095,117.398 80.171,117.872 85.188,117.872C85.188,118.378 85.197,118.885 85.197,119.392C82.189,119.392 79.157,119.143 76.175,119.433C64.504,120.596 59.561,128.829 63.956,139.76C67.935,149.654 75.012,157.255 82.854,164.116C97.358,176.809 113.365,187.01 132.205,192.069C139.034,193.905 145.945,195.151 153.072,193.597C162.177,191.62 166.288,185.191 163.198,176.427C161.495,171.592 158.605,167.173 156.254,162.563C156.578,162.305 156.893,162.048 157.209,161.782Z" fill="#000" stroke="" stroke-width="" stroke-miterlimit=""/>
	</svg>
