<?xml version="1.0" encoding="utf-8"?>
	<svg version="1.1" xmlns="http://www.w3.org/2000/svg" xmlns:xlink="http://www.w3.org/1999/xlink" x="0px" y="0px" width="240.0" height="240.0" xml:space="preserve">
		<path d="M177.325,123.151C177.726,102.735 167.905,87.948 151.776,83.909C144.002,81.958 143.103,82.636 143.089,90.825C143.048,118.13 141.844,145.505 143.352,172.741C144.998,202.384 104.925,231.999 71.631,215.041C59.956,209.093 54.949,194.831 59.901,182.631C68.449,161.578 91.619,149.267 116.351,152.656C124.927,153.832 125.149,153.68 125.149,144.758C125.149,114.465 124.969,84.172 125.135,53.878C125.218,37.542 137.114,23.447 152.689,20.473C154.473,20.127 156.451,19.435 157.945,20.874C159.481,22.368 157.918,23.806 157.323,25.204C150.033,42.66 152.495,55.289 166.425,68.831C180.174,82.193 184.352,98.198 180.589,116.636C180.146,118.766 179.953,121.16 177.325,123.151Z" fill="#000" stroke="" stroke-width="" stroke-miterlimit=""/>
	</svg>
