<?xml version="1.0" encoding="utf-8"?>
	<svg version="1.1" xmlns="http://www.w3.org/2000/svg" xmlns:xlink="http://www.w3.org/1999/xlink" x="0px" y="0px" width="240.0" height="240.0" xml:space="preserve">
		<path d="M73.529,30.777C64.362,31.443 59.112,32.527 57.029,34.277C56.445,34.693 55.945,34.86 55.945,34.527C55.945,33.11 46.779,39.11 42.278,43.527C36.945,48.777 34.445,52.777 31.528,60.694C29.945,65.111 29.945,67.194 30.028,116.112C30.112,144.029 30.362,169.029 30.612,171.529C31.195,177.196 33.945,186.03 35.612,187.363C36.278,187.946 36.778,188.863 36.778,189.446C36.778,191.113 47.362,201.78 48.445,201.113C48.945,200.863 49.195,201.03 49.112,201.53C48.862,202.447 54.862,206.447 57.112,206.947C57.612,207.03 59.195,207.613 60.529,208.113C65.446,210.197 72.862,210.364 123.863,209.947C175.031,209.447 175.531,209.364 179.615,207.53C181.865,206.53 184.115,205.697 184.698,205.697C185.281,205.697 186.698,204.947 187.781,204.03C188.948,203.197 190.115,202.613 190.282,202.863C190.865,203.447 204.365,190.113 204.115,189.28C204.032,188.946 204.448,187.696 205.032,186.696C205.615,185.613 206.865,182.613 207.865,180.03C209.532,175.446 209.615,173.613 209.949,133.195C210.115,109.111 209.865,85.278 209.365,77.444C208.449,64.027 206.532,54.444 204.865,55.444C204.365,55.694 204.282,55.61 204.532,55.11C205.532,53.444 201.282,46.777 195.782,41.36C192.615,38.277 189.781,35.777 189.448,35.86C189.115,35.943 187.781,35.527 186.365,34.943C185.031,34.36 183.531,33.777 183.031,33.693C182.615,33.527 181.115,32.943 179.698,32.443C178.365,31.86 174.948,31.027 172.198,30.61C166.031,29.693 86.613,29.86 73.529,30.777ZM126.697,66.611C129.864,67.694 129.864,67.944 127.197,70.027C123.363,73.027 122.363,76.111 122.947,83.111C123.613,89.778 125.28,93.611 128.53,95.611C130.364,96.695 130.364,96.778 128.864,97.861C125.614,100.278 116.947,98.361 115.03,94.778C113.78,92.361 113.613,71.361 114.947,70.944C115.447,70.694 115.947,70.027 115.947,69.361C115.947,68.111 120.28,65.777 122.697,65.694C123.447,65.694 125.197,66.111 126.697,66.611ZM157.031,67.277C157.531,67.777 157.031,68.944 155.197,70.694C151.947,74.027 151.447,76.027 152.197,83.444C152.864,90.194 154.197,93.361 157.281,95.445C159.364,96.778 159.364,96.861 157.948,97.945C155.614,99.695 149.864,99.278 147.197,97.195C143.947,94.694 142.864,91.361 142.281,82.778C141.697,73.694 142.697,70.277 146.781,67.527C149.031,66.027 150.447,65.611 152.947,65.944C154.697,66.194 156.531,66.777 157.031,67.277L157.031,67.277ZM105.446,83.778C105.696,85.111 106.113,88.194 106.446,90.694C107.03,95.945 108.696,99.611 111.28,101.778C119.113,108.278 129.78,108.361 136.197,101.945L138.447,99.611L140.78,101.945C143.864,105.111 147.864,106.611 153.114,106.611C158.198,106.611 161.781,105.028 165.281,101.028C166.698,99.445 168.114,98.195 168.531,98.195C169.614,98.195 173.531,106.278 174.781,111.111C177.115,119.778 175.698,130.945 171.114,139.279C165.531,149.529 153.781,157.446 141.781,159.029C133.614,160.029 107.446,160.029 98.363,159.029C91.363,158.196 91.029,158.279 87.529,160.363C85.529,161.529 79.363,165.029 73.862,168.196L63.862,173.946L63.612,145.112C63.446,114.195 63.696,110.861 67.779,102.361C70.112,97.528 78.446,89.278 83.946,86.361C89.196,83.528 95.946,81.694 101.113,81.611C104.696,81.528 105.03,81.694 105.446,83.778ZM113.447,119.445C110.613,122.862 114.947,132.195 120.863,135.529C124.447,137.529 130.864,137.945 134.864,136.445C141.197,134.029 146.697,124.362 144.281,119.778C142.364,116.278 137.614,118.695 137.614,123.112C137.614,124.028 136.614,126.028 135.364,127.362C130.447,132.862 122.03,130.945 120.03,123.862C119.447,121.862 118.613,119.778 118.197,119.195C117.113,117.778 114.697,117.945 113.447,119.445L113.447,119.445Z" fill="#000" stroke="#00000000" stroke-width="1.0" stroke-miterlimit=""/>
	</svg>
