<?xml version="1.0" encoding="utf-8"?>
	<svg version="1.1" xmlns="http://www.w3.org/2000/svg" xmlns:xlink="http://www.w3.org/1999/xlink" x="0px" y="0px" width="240.0" height="240.0" xml:space="preserve">
		<path d="M165.523,30.07L179.696,38.242C189.346,43.819 192.649,56.164 187.073,65.815L181.553,75.364L119.882,182.276C118.463,184.89 116.235,186.973 113.533,188.215L70.05,219.073L68.345,219.531C64.805,220.477 61.034,219.98 57.86,218.149L165.523,30.07Z" fill="#000" stroke="#00000000" stroke-width="1.0" stroke-miterlimit=""/>
		<path d="M57.86,218.149C54.679,216.311 52.367,213.275 51.438,209.721L51,208.041L56.012,155.034C55.741,152.107 56.414,149.17 57.931,146.651L113.803,50.01C114.098,49.341 114.429,48.684 114.8,48.038L125.161,30.12C127.833,25.473 132.245,22.081 137.424,20.695C142.598,19.3 148.115,20.024 152.754,22.706C158.43,25.979 162.687,28.434 165.524,30.07L57.86,218.149Z" fill="#000" stroke="#00000000" stroke-width="1.0" stroke-miterlimit=""/>
	</svg>
