<?xml version="1.0" encoding="utf-8"?>
	<svg version="1.1" xmlns="http://www.w3.org/2000/svg" xmlns:xlink="http://www.w3.org/1999/xlink" x="0px" y="0px" width="240.0" height="240.0" xml:space="preserve">
		<path d="M153.981,30.856C160.599,31.131 167.243,30.639 173.819,31.866C194.686,35.765 207.47,50.325 208.726,71.511C210.672,104.305 209.951,137.101 208.621,169.882C207.83,189.375 194.638,204.081 175.43,207.942C159.078,211.228 142.519,209.419 129.328,209.902C107.864,209.997 89.655,210.313 71.508,208.909C46.104,206.942 31.845,191.282 30.836,165.81C29.957,143.625 29.938,121.443 30.046,99.257C30.094,89.403 30.445,79.538 31.093,69.706C32.503,48.323 48.368,32.635 70.414,31.287C98.248,29.587 126.115,29.707 153.981,30.856ZM114.909,66.963C101.852,72.58 88.777,78.157 75.663,83.637C72.439,84.985 70.97,87.054 71.055,90.585C71.204,96.837 71.096,103.095 71.101,109.351C71.101,115.038 71.046,120.725 71.115,126.412C71.206,134.019 73.251,140.916 78.196,146.933C88.833,159.875 102.714,168.186 117.652,175.042C119.292,175.797 120.995,175.655 122.606,174.865C136.972,167.815 150.751,159.934 161.102,147.294C163.881,143.901 166.378,140.263 167.114,135.839C169.583,121.01 168.337,106.051 168.498,91.143C168.53,88.145 167.663,85.616 164.507,84.28C151.072,78.595 137.678,72.813 124.264,67.076C121.169,65.753 118.104,65.589 114.909,66.963ZM119.117,85.376C120.915,91.956 119.924,97.333 120.136,102.605C120.491,111.402 120.429,111.792 128.498,111.803L129.362,111.803C129.461,111.803 129.562,111.803 129.663,111.803C131.559,111.802 133.455,111.802 135.376,111.802L139.262,111.803L139.262,111.803C133.15,124.892 127.208,137.613 121.267,150.335C119.112,144.086 119.509,137.935 119.755,131.884C119.974,126.485 118.252,124.573 112.706,124.715C101.462,125.003 101.385,124.698 105.91,114.472C110.034,105.15 114.33,95.904 119.117,85.376Z" fill="#000" stroke="#00000000" stroke-width="1.0" stroke-miterlimit=""/>
	</svg>
