<?xml version="1.0" encoding="utf-8"?>
	<svg version="1.1" xmlns="http://www.w3.org/2000/svg" xmlns:xlink="http://www.w3.org/1999/xlink" x="0px" y="0px" width="240.0" height="240.0" xml:space="preserve">
		<path d="M119.985,220C64.983,220 19.993,174.922 20,119.803C20.007,64.888 65.173,19.971 120.379,20C175.258,20.022 220.037,65.231 220,120.562C219.964,174.981 174.689,220 119.985,220ZM120.248,66.749C90.547,66.676 66.8,90.24 66.749,119.839C66.705,149.366 90.174,173.105 119.562,173.244C149.293,173.382 173.127,149.891 173.244,120.336C173.361,90.627 149.818,66.822 120.248,66.749ZM75.63,157.992C75.163,158.32 74.557,158.7 73.995,159.145C71.135,161.407 68.376,163.808 65.413,165.917C63.319,167.406 63.531,168.624 65.092,170.296C70.368,175.922 76.353,180.629 82.993,184.548C84.818,185.621 85.862,185.205 86.701,183.373C88.168,180.169 89.627,176.958 91.262,173.842C92.342,171.777 91.889,170.536 89.919,169.391C85.365,166.749 81.41,163.348 77.812,159.517C77.243,158.904 76.783,158.13 75.63,157.992ZM147.877,172.653C149.731,176.36 151.774,180.629 154.007,184.789C154.584,185.869 155.759,185.212 156.605,184.73C163.399,180.855 169.493,176.105 174.806,170.347C176.221,168.814 176.477,167.625 174.579,166.223C171.66,164.056 168.858,161.721 166.056,159.407C164.581,158.181 163.392,158.145 162.02,159.656C158.32,163.72 154.036,167.092 149.322,169.909C148.512,170.383 147.505,170.784 147.877,172.653ZM117.614,186.051C117.614,184.227 117.577,182.41 117.621,180.585C117.665,178.841 117.001,177.885 115.14,177.732C109.659,177.279 104.346,176.032 99.224,174.047C97.312,173.302 96.268,173.966 95.465,175.659C93.904,178.951 92.342,182.242 90.649,185.467C89.649,187.372 90.218,188.321 92.108,189.014C97.706,191.087 103.369,192.889 109.324,193.575C118.643,194.662 117.563,195.604 117.614,186.051ZM177.622,135.289C176.586,134.975 175.776,135.588 175.353,137.004C173.704,142.506 171.12,147.578 167.997,152.38C167.187,153.62 167.252,154.591 168.427,155.525C171.565,158.006 174.711,160.487 177.805,163.02C179.155,164.122 180.089,163.932 181.067,162.509C185.65,155.861 189.094,148.68 191.4,140.944C191.897,139.28 191.437,138.449 189.751,138.084C185.847,137.223 181.957,136.288 177.622,135.289ZM62.232,135.099C58.094,136.062 53.949,137.004 49.818,137.989C48.22,138.368 48.184,139.477 48.578,140.828C50.847,148.585 54.299,155.773 58.875,162.436C59.896,163.917 60.772,163.932 62.1,162.823C65.085,160.334 68.099,157.875 71.222,155.569C72.806,154.401 72.697,153.387 71.741,151.927C68.741,147.33 66.318,142.448 64.698,137.186C64.326,135.996 63.91,134.807 62.232,135.099ZM76.528,81.432C76.893,81.169 77.345,80.957 77.659,80.615C81.673,76.331 86.212,72.711 91.269,69.734C92.67,68.909 92.524,67.8 91.955,66.61C90.277,63.107 88.584,59.612 86.876,56.116C86.263,54.854 85.358,54.197 83.957,54.978C76.79,58.962 70.354,63.874 64.932,70.055C64.224,70.865 63.939,71.821 64.917,72.616C68.398,75.455 71.908,78.25 75.426,81.038C75.688,81.249 76.09,81.286 76.528,81.432ZM122.313,53.927C122.313,55.262 122.437,56.612 122.291,57.926C121.956,60.94 123.007,62.261 126.24,62.458C131.092,62.75 135.821,64.012 140.353,65.815C142.302,66.588 143.528,66.267 144.411,64.275C145.841,61.064 147.337,57.868 148.964,54.751C150.147,52.489 149.3,51.475 147.169,50.701C141.791,48.76 136.354,47.074 130.647,46.41C121.35,45.323 122.364,44.454 122.313,53.927ZM164.041,81.549C164.574,81.198 165.311,80.782 165.961,80.279C168.544,78.257 171.003,76.061 173.696,74.207C176.126,72.529 176.229,71.047 174.214,68.975C169.099,63.713 163.392,59.247 157.087,55.503C155.138,54.343 154.007,54.766 153.088,56.744C151.599,59.94 150.088,63.122 148.417,66.224C147.395,68.114 147.658,69.23 149.577,70.325C154.146,72.915 158.152,76.265 161.779,80.067C162.356,80.658 162.852,81.41 164.041,81.549ZM122.233,186.132C122.233,187.832 122.291,189.532 122.219,191.233C122.109,193.692 123.364,194.429 125.612,194.217C133.15,193.509 140.477,191.926 147.541,189.145C149.395,188.416 150.001,187.43 149.052,185.533C147.425,182.271 145.878,178.972 144.374,175.652C143.579,173.901 142.521,173.353 140.623,174.083C137.223,175.397 133.727,176.426 130.107,177.017C122.233,178.316 122.233,178.316 122.233,186.132ZM45.673,120.095C45.535,123.744 45.877,127.356 46.41,130.961C46.651,132.596 47.104,133.844 49.14,133.377C53.037,132.479 56.933,131.589 60.831,130.676C62.451,130.297 62.794,129.239 62.597,127.663C61.932,122.35 61.86,117.023 62.706,111.717C63.013,109.805 62.4,108.754 60.429,108.36C56.985,107.66 53.547,106.901 50.154,105.996C47.804,105.375 46.768,106.178 46.454,108.506C45.951,112.359 45.513,116.205 45.673,120.095ZM194.327,120.161C194.48,116.271 194.042,112.425 193.546,108.572C193.269,106.419 192.4,105.594 190.167,106.164C186.65,107.061 183.088,107.798 179.527,108.55C177.579,108.959 177.017,110.046 177.316,111.965C178.119,117.147 178.111,122.364 177.382,127.538C177.068,129.735 177.827,130.662 179.856,131.085C183.293,131.808 186.708,132.64 190.123,133.457C192.24,133.96 193.291,133.216 193.582,131.019C194.079,127.407 194.444,123.802 194.327,120.161ZM177.571,104.295C181.709,103.361 185.84,102.427 189.977,101.493C191.619,101.121 191.678,100.019 191.284,98.705C189.021,91.094 185.591,84.044 181.082,77.506C180.009,75.951 178.951,75.761 177.498,76.944C174.492,79.388 171.456,81.804 168.391,84.176C167.245,85.066 166.888,85.92 167.749,87.233C170.887,92.013 173.499,97.056 175.214,102.537C175.572,103.668 176.148,104.551 177.571,104.295ZM62.611,104.135C63.589,104.485 64.406,103.814 64.83,102.427C66.493,97.034 69.07,92.079 72.157,87.394C73.061,86.015 72.974,84.957 71.675,83.942C68.712,81.614 65.727,79.301 62.823,76.907C61.239,75.601 60.115,75.776 58.948,77.469C54.489,83.928 51.11,90.897 48.782,98.384C48.286,99.975 48.607,100.924 50.358,101.311C54.285,102.164 58.181,103.099 62.611,104.135ZM117.679,53.949C117.679,52.248 117.606,50.548 117.694,48.855C117.825,46.469 116.774,45.556 114.425,45.775C106.893,46.483 99.566,48.052 92.51,50.833C90.831,51.497 90.167,52.343 91.043,54.124C92.765,57.605 94.444,61.108 96.049,64.647C96.859,66.435 98.041,66.406 99.61,65.822C103.026,64.552 106.514,63.516 110.126,62.947C117.687,61.728 117.687,61.728 117.679,53.949ZM122.445,32.515C122.445,34.092 122.561,35.683 122.416,37.244C122.167,39.996 123.167,41.185 126.064,41.251C128.83,41.309 131.596,41.886 134.347,42.353C136.237,42.674 137.376,42.097 137.836,40.178C138.682,36.639 139.521,33.099 140.485,29.589C140.981,27.772 140.514,26.816 138.609,26.546C135.851,26.152 133.114,25.532 130.341,25.305C122.452,24.641 122.445,24.7 122.445,32.515ZM55.029,50.716C54.795,50.855 54.438,50.979 54.182,51.219C50.57,54.635 47.104,58.189 44.25,62.283C43.331,63.596 43.9,64.516 45.06,65.311C48.257,67.501 51.468,69.675 54.613,71.938C56.065,72.981 56.948,72.456 57.955,71.259C59.984,68.858 62.049,66.472 64.268,64.246C65.713,62.801 65.661,61.735 64.304,60.283C61.743,57.539 59.334,54.664 56.846,51.847C56.386,51.314 56.007,50.628 55.029,50.716ZM69.559,181.103C69.084,181.461 68.654,181.687 68.347,182.03C65.523,185.183 62.728,188.357 59.904,191.51C58.7,192.853 59.583,193.648 60.575,194.473C64.02,197.348 67.793,199.749 71.587,202.128C73.222,203.157 74.229,202.639 75.054,201.041C76.71,197.815 78.396,194.604 80.155,191.43C81.081,189.758 80.979,188.642 79.206,187.555C76.535,185.913 74.032,183.993 71.441,182.213C70.865,181.819 70.23,181.497 69.559,181.103ZM53.066,77.914C53.175,76.462 52.409,75.995 51.738,75.506C50.271,74.441 48.775,73.404 47.279,72.375C39.944,67.347 39.944,67.355 35.778,75.404C31.414,83.833 31.414,83.833 40.273,87.182C46.658,89.591 46.651,89.591 49.913,83.585C51,81.571 52.139,79.578 53.066,77.914ZM80.782,49.818C78.775,45.899 76.9,41.528 74.112,37.682C73.382,36.682 72.288,37.471 71.485,37.96C67.749,40.244 64.107,42.652 60.692,45.403C59.291,46.534 58.911,47.476 60.312,48.943C62.91,51.665 65.406,54.489 67.858,57.349C69.026,58.714 70.004,58.948 71.522,57.795C74.127,55.81 76.885,54.022 79.578,52.161C80.293,51.665 81.016,51.197 80.782,49.818ZM37.909,132.377C36.281,132.516 35.187,132.581 34.106,132.713C25.269,133.822 25.181,133.851 27.407,142.572C30.385,154.248 29.312,151.73 38.711,148.432C45.199,146.155 45.14,146.002 43.455,139.565C43.177,138.507 42.82,137.456 42.718,136.383C42.418,132.99 41.265,130.881 37.909,132.377ZM41.047,120.015C41.047,119.161 41.039,118.314 41.047,117.46C41.105,112.753 40.915,112.556 36.318,112.104C33.537,111.827 30.742,111.608 27.998,111.141C25.882,110.783 25.189,111.659 24.919,113.578C24.422,117.096 24.525,120.62 24.685,124.13C24.904,129.1 24.992,129.108 30.071,128.604C31.399,128.473 32.72,128.246 34.041,128.079C41.017,127.188 41.017,127.188 41.047,120.015ZM122.379,207.112C122.379,207.594 122.379,208.083 122.379,208.565C122.379,215.147 122.379,215.154 128.794,214.826C129.998,214.768 131.224,214.738 132.413,214.541C142.236,212.907 140.689,213.782 138.777,205.427C138.697,205.076 138.609,204.719 138.529,204.368C136.88,197.45 136.88,197.45 129.961,198.326C122.386,199.282 122.386,199.282 122.379,207.112ZM39.456,107.82C41.375,108.17 41.937,107.149 42.265,105.872C43.104,102.588 43.871,99.282 44.783,96.02C45.206,94.509 44.688,93.743 43.323,93.247C39.689,91.904 36.055,90.532 32.435,89.145C30.611,88.445 29.633,89.27 29.202,90.933C28.152,95.035 27.13,99.151 26.159,103.274C25.699,105.237 26.714,106.288 28.589,106.529C32.319,107.003 36.048,107.419 39.456,107.82ZM45.651,150.752C44.126,151.307 42.302,151.949 40.485,152.642C31.37,156.109 31.304,156.145 35.836,164.676C41.083,174.55 39.952,172.361 47.286,167.53C53.686,163.319 53.591,163.21 50.03,156.642C49.22,155.153 48.519,153.606 47.79,152.073C47.425,151.285 47.067,150.504 45.651,150.752ZM98.45,41.185C97.655,37.945 96.699,33.924 95.67,29.932C95.202,28.122 93.874,28.225 92.48,28.721C89.167,29.91 85.825,31.02 82.563,32.34C77.98,34.194 77.951,34.42 80.286,38.938C80.899,40.127 81.519,41.309 82.14,42.491C85.38,48.68 85.372,48.673 91.773,46.257C93.364,45.659 94.984,45.133 96.589,44.586C97.844,44.155 98.786,43.506 98.45,41.185ZM65.676,177.732C65.304,177.177 65.027,176.652 64.647,176.221C62.326,173.594 59.947,171.018 57.656,168.369C56.627,167.172 55.686,167.304 54.525,168.121C51.46,170.281 48.395,172.441 45.257,174.499C43.499,175.659 43.52,176.842 44.695,178.396C47.403,181.979 50.512,185.19 53.679,188.357C55.021,189.7 55.854,189.218 56.897,187.992C59.327,185.139 61.874,182.381 64.348,179.571C64.808,179.038 65.18,178.425 65.676,177.732ZM98.304,199.18C98.808,196.72 98.049,195.94 96.75,195.465C93.787,194.385 90.809,193.349 87.89,192.159C86.029,191.4 84.92,191.97 84.066,193.655C82.432,196.903 80.782,200.15 79.024,203.339C78.199,204.843 78.374,205.755 79.965,206.499C84.154,208.455 88.452,210.082 92.875,211.396C94.349,211.834 95.239,211.25 95.604,209.842C96.604,205.974 97.567,202.092 98.304,199.18ZM196.407,176.396C196.049,175.871 195.823,175.243 195.378,174.93C191.911,172.47 188.416,170.047 184.891,167.668C183.658,166.836 182.899,167.778 182.147,168.632C180.06,170.996 178.009,173.404 175.813,175.667C174.594,176.922 174.2,177.907 175.55,179.345C178.046,182.001 180.461,184.738 182.833,187.503C184.249,189.153 185.482,189.262 187.051,187.657C189.846,184.781 192.663,181.921 195.057,178.688C195.546,178.009 195.91,177.243 196.407,176.396ZM181.395,47.68C181.103,47.242 180.921,46.79 180.585,46.505C176.761,43.294 172.682,40.448 168.398,37.887C167.172,37.157 166.384,37.617 165.771,38.792C163.976,42.236 162.166,45.681 160.305,49.096C159.429,50.694 159.758,51.723 161.305,52.715C163.859,54.357 166.326,56.138 168.748,57.963C170.237,59.086 171.412,59.371 172.769,57.729C175.09,54.919 177.564,52.241 179.965,49.497C180.425,48.957 180.855,48.373 181.395,47.68ZM180.717,192.393C180.534,192.108 180.323,191.67 180.009,191.313C177.411,188.277 174.776,185.263 172.186,182.22C171.069,180.914 170.011,181.096 168.734,182.045C166.202,183.913 163.647,185.767 160.984,187.438C159.451,188.401 158.999,189.328 159.904,190.97C161.714,194.261 163.465,197.589 165.165,200.931C165.975,202.529 166.909,203.106 168.588,202.033C172.266,199.676 175.959,197.363 179.315,194.553C179.95,194.02 180.731,193.561 180.717,192.393ZM141.696,197.793C142.703,201.902 143.688,206.018 144.732,210.119C145.068,211.447 145.987,211.739 147.257,211.36C151.665,210.031 155.956,208.419 160.123,206.448C161.655,205.726 162.005,204.762 161.203,203.266C159.371,199.858 157.539,196.45 155.795,192.991C155.014,191.437 154.022,191.342 152.548,191.948C149.643,193.145 146.68,194.203 143.732,195.29C142.543,195.735 141.382,196.137 141.696,197.793ZM215.402,120.073C215.402,111.214 215.402,111.214 206.747,112.075C199.005,112.841 199.005,112.841 198.983,120.438C198.961,127.261 198.961,127.261 205.791,128.283C215.402,129.721 215.402,129.721 215.402,120.073ZM142.127,41.915C141.827,43.615 142.805,44.338 144.214,44.856C146.95,45.848 149.738,46.761 152.372,47.994C154.554,49.015 155.7,48.403 156.671,46.381C158.196,43.207 159.838,40.09 161.531,36.996C162.312,35.573 162.407,34.632 160.706,33.822C156.525,31.837 152.234,30.166 147.811,28.816C146.374,28.378 145.44,28.75 145.06,30.253C144.082,34.143 143.104,38.033 142.127,41.915ZM207.776,82.84C205.777,78.403 203.624,73.652 200.625,69.34C200.004,68.442 199.165,68.646 198.384,69.179C194.976,71.507 191.59,73.864 188.16,76.163C186.876,77.024 186.803,77.907 187.54,79.221C189.211,82.176 190.78,85.197 192.32,88.219C192.904,89.364 193.641,89.919 194.925,89.437C198.786,87.985 202.653,86.548 206.514,85.081C207.353,84.759 208.046,84.278 207.776,82.84ZM196.647,63.757C196.319,63.224 195.947,62.451 195.421,61.808C193.736,59.743 192.116,57.605 190.255,55.708C184.555,49.899 186.059,49.804 180.425,55.861C178.454,57.977 175.492,60.13 175.163,62.553C174.806,65.195 178.688,66.749 180.359,69.091C180.921,69.88 181.6,70.588 182.154,71.383C183.264,72.959 184.49,73.266 186.139,72.084C189.197,69.894 192.327,67.814 195.421,65.676C196.013,65.268 196.655,64.866 196.647,63.757ZM200.384,108.178C204.412,107.674 207.886,107.156 211.374,106.842C213.658,106.631 214.33,105.441 213.855,103.427C212.892,99.304 211.856,95.202 210.849,91.094C210.396,89.255 209.345,88.868 207.609,89.561C204.011,90.992 200.384,92.349 196.742,93.663C195.319,94.181 194.94,94.998 195.334,96.45C196.195,99.596 196.954,102.77 197.735,105.945C198.165,107.645 199.202,108.375 200.384,108.178ZM198.472,171.405C200.128,171.609 200.668,170.733 201.165,169.916C202.172,168.267 203.157,166.596 204.055,164.881C208.608,156.211 208.594,156.204 199.369,152.679C199.26,152.635 199.143,152.584 199.034,152.54C193.269,150.322 193.269,150.322 190.415,155.773C186.547,163.166 186.547,163.166 193.458,167.946C195.239,169.186 197.027,170.412 198.472,171.405ZM201.23,132.413C198.268,132.348 198.202,132.406 197.582,134.88C196.866,137.704 196.253,140.55 195.392,143.331C194.816,145.184 195.071,146.264 197.056,146.936C200.384,148.06 203.682,149.307 206.93,150.665C209.185,151.614 210.382,150.92 210.936,148.673C211.87,144.907 212.79,141.134 213.746,137.376C214.315,135.135 213.534,133.866 211.199,133.596C207.703,133.187 204.215,132.771 201.23,132.413ZM117.782,207.448C117.782,205.872 117.679,204.281 117.803,202.719C118.037,199.902 116.833,198.808 114.031,198.778C111.622,198.749 109.178,198.406 106.82,197.866C104.383,197.304 103.106,198.019 102.69,200.464C102.507,201.537 102.179,202.588 101.916,203.646C99.34,214.089 99.34,214.089 110.214,214.782C117.789,215.257 117.789,215.257 117.782,207.448ZM117.803,32.99C117.803,24.663 117.803,24.663 109.601,25.269C108.878,25.32 108.149,25.364 107.433,25.488C98.129,27.108 99.661,25.889 101.486,34.158C101.617,34.749 101.785,35.332 101.931,35.916C103.566,42.55 103.566,42.55 110.396,41.638C117.803,40.638 117.803,40.638 117.803,32.99Z" fill="#000" stroke="" stroke-width="" stroke-miterlimit=""/>
	</svg>
