<?xml version="1.0" encoding="utf-8"?>
	<svg version="1.1" xmlns="http://www.w3.org/2000/svg" xmlns:xlink="http://www.w3.org/1999/xlink" x="0px" y="0px" width="240.0" height="240.0" xml:space="preserve">
		<path d="M182.963,57.696C187.421,65.424 189.838,73.822 190.711,82.634C192.594,101.665 187.929,119.078 177.465,135.021C171.093,144.726 163.558,153.524 156.309,162.544C150.184,170.163 144.266,177.925 138.945,186.141C133.856,193.996 130.433,202.582 127.711,211.483C127.134,213.367 126.518,215.246 125.467,216.928C122.869,221.095 117.207,221.016 114.796,216.75C114.115,215.547 113.553,214.23 113.208,212.894C109.046,196.728 100.455,182.95 90.203,170.059C89.645,169.359 89.177,168.59 88.664,167.85C104.208,149.687 119.757,131.53 135.276,113.343C135.809,112.716 136.78,112.243 136.548,111.138L136.504,111.143C137.076,111.39 137.293,110.995 137.5,110.586L137.471,110.63C137.653,110.384 137.836,110.132 138.023,109.886C139.986,107.987 141.726,105.891 143.369,103.711C143.768,103.514 143.995,103.213 143.951,102.75L143.936,102.779C144.256,102.74 144.414,102.557 144.404,102.232L144.389,102.252C148.621,98.366 151.994,93.72 155.737,89.405C164.865,78.877 173.894,68.269 182.963,57.696Z" fill="#000" stroke="" stroke-width="" stroke-miterlimit=""/>
		<path d="M136.544,111.138C136.771,112.243 135.805,112.716 135.272,113.343C119.753,131.53 104.204,149.687 88.66,167.85C78.57,155.507 67.844,143.651 59.717,129.824C58.435,127.644 57.434,125.306 56.305,123.043C58.159,120.853 60.003,118.654 61.862,116.469C70.054,106.858 78.2,97.212 86.47,87.665C89.676,83.961 92.61,80.011 96.205,76.648C96.254,77.619 95.589,78.314 95.253,79.133C91.486,88.37 92.215,97.232 98.163,105.26C104.179,113.387 112.484,116.952 122.623,116.223C127.761,115.863 132.234,113.742 136.544,111.138Z" fill="#000" stroke="" stroke-width="" stroke-miterlimit=""/>
		<path d="M182.964,57.696C173.895,68.269 164.866,78.882 155.738,89.405C151.995,93.72 148.622,98.366 144.39,102.252C144.223,101.359 144.805,100.693 145.12,99.959C152.261,83.374 140.213,64.166 122.194,63.19C115.063,62.805 108.815,64.866 103.03,68.807C102.937,67.732 103.819,67.263 104.391,66.597C108.637,61.651 112.898,56.715 117.134,51.754C122.475,45.496 127.84,39.252 133.102,32.925C135.755,29.74 138.818,26.884 141.003,23.309C148.035,25.001 154.357,28.265 160.275,32.304C169.916,38.883 177.717,47.158 182.964,57.696Z" fill="#000" stroke="" stroke-width="" stroke-miterlimit=""/>
		<path d="M96.205,76.652C92.61,80.016 89.681,83.966 86.471,87.669C78.201,97.212 70.054,106.863 61.863,116.474C60.004,118.659 58.159,120.858 56.305,123.048C44.864,96.008 46.329,70.36 64.496,46.497C64.891,45.979 65.379,45.53 65.823,45.052C76.933,54.249 88.044,63.451 99.154,72.648C98.341,73.792 97.527,74.936 96.718,76.076C96.516,76.268 96.314,76.465 96.112,76.657L96.205,76.652Z" fill="#000" stroke="" stroke-width="" stroke-miterlimit=""/>
		<path d="M99.157,72.648C88.041,63.451 76.931,54.249 65.82,45.052C72.833,36.402 81.645,30.144 91.824,25.834C107.466,19.211 123.513,18.249 139.881,22.851C140.266,22.959 140.626,23.156 140.995,23.309C138.811,26.879 135.748,29.735 133.095,32.925C127.833,39.252 122.468,45.491 117.127,51.754C112.896,56.715 108.635,61.651 104.384,66.597C103.812,67.263 102.929,67.737 103.023,68.807C101.736,70.089 100.444,71.366 99.157,72.648Z" fill="#000" stroke="" stroke-width="" stroke-miterlimit=""/>
	</svg>
