<?xml version="1.0" encoding="utf-8"?>
	<svg version="1.1" xmlns="http://www.w3.org/2000/svg" xmlns:xlink="http://www.w3.org/1999/xlink" x="0px" y="0px" width="240.0" height="240.0" xml:space="preserve">
		<path d="M49.509,90.002C49.509,68.298 49.509,46.596 49.509,24.892C49.509,20.975 50.479,20.018 54.454,20.018C59.111,20.018 63.771,20.053 68.427,20C69.917,19.982 71.148,20.416 72.18,21.457C81.047,30.387 89.912,39.32 98.779,48.249C99.627,49.103 100.034,50.138 100.096,51.318C100.126,51.862 100.114,52.407 100.114,52.954C100.114,86.749 100.114,120.541 100.114,154.336C100.114,154.931 100.135,155.529 100.085,156.121C99.865,158.734 98.336,160.174 95.716,160.177C81.743,160.186 67.77,160.189 53.797,160.174C50.928,160.171 49.509,158.723 49.509,155.859C49.506,133.905 49.509,111.953 49.509,90.002Z" fill="#000" stroke="" stroke-width="" stroke-miterlimit=""/>
		<path d="M106.111,101.54C106.111,84.096 106.09,66.656 106.141,49.213C106.147,47.432 105.594,46.135 104.333,44.892C98.118,38.776 91.972,32.587 85.804,26.42C84.674,25.29 84.08,23.997 84.752,22.394C85.427,20.785 86.702,20.104 88.391,20.077C88.54,20.074 88.689,20.074 88.837,20.074C98.748,20.074 108.657,20.089 118.568,20.059C120.26,20.053 121.601,20.592 122.808,21.802C131.405,30.443 140.028,39.058 148.676,47.652C149.883,48.853 150.427,50.164 150.427,51.877C150.4,86.413 150.406,120.952 150.403,155.487C150.403,158.734 149.05,160.126 145.818,160.129C134.123,160.144 122.43,160.141 110.735,160.132C107.97,160.129 106.632,158.954 106.281,156.234C106.168,155.353 106.12,154.458 106.12,153.569C106.111,136.224 106.111,118.882 106.111,101.54Z" fill="#000" stroke="" stroke-width="" stroke-miterlimit=""/>
		<path d="M156.349,102.256C156.349,84.664 156.328,67.073 156.378,49.484C156.384,47.548 155.766,46.103 154.398,44.755C148.323,38.776 142.331,32.718 136.28,26.714C135.031,25.474 134.168,24.157 134.933,22.367C135.688,20.592 137.136,20.039 139.015,20.045C148.876,20.089 158.736,20.092 168.6,20.042C170.372,20.033 171.692,20.615 172.932,21.873C178.285,27.312 183.697,32.691 189.112,38.071C192.309,41.246 195.535,44.399 198.779,47.527C200.07,48.773 200.667,50.194 200.664,52.017C200.638,86.457 200.647,120.895 200.641,155.336C200.641,158.773 199.291,160.141 195.889,160.144C184.295,160.153 172.698,160.153 161.103,160.144C157.696,160.141 156.358,158.782 156.355,155.336C156.349,137.64 156.352,119.949 156.349,102.256Z" fill="#000" stroke="" stroke-width="" stroke-miterlimit=""/>
		<path d="M58.994,180.594C61.619,180.594 64.245,180.564 66.871,180.608C67.885,180.626 68.307,180.266 68.277,179.229C68.23,177.546 68.289,175.86 68.266,174.176C68.251,173.234 68.649,172.838 69.598,172.853C71.727,172.886 73.859,172.886 75.988,172.853C76.946,172.838 77.323,173.252 77.305,174.188C77.279,175.824 77.359,177.459 77.285,179.092C77.231,180.284 77.716,180.623 78.855,180.614C84.055,180.573 89.256,180.635 94.457,180.57C95.867,180.552 96.467,180.983 96.34,182.428C96.253,183.413 96.25,184.415 96.34,185.396C96.476,186.877 95.798,187.254 94.427,187.24C89.673,187.183 84.918,187.213 80.16,187.222C78.536,187.225 78.486,187.305 79.265,188.765C83.202,196.152 87.166,203.523 91.076,210.922C91.831,212.352 92.938,212.917 94.469,212.753C95.896,212.602 96.45,213.19 96.342,214.618C96.25,215.849 96.304,217.095 96.322,218.332C96.334,219.173 96.009,219.649 95.114,219.637C93.729,219.619 92.334,219.691 90.957,219.584C88.12,219.364 86.113,217.96 84.751,215.397C81.12,208.578 77.38,201.816 73.672,195.039C73.472,194.677 73.413,194.07 72.86,194.109C72.426,194.138 72.351,194.668 72.17,195.007C68.569,201.73 64.887,208.412 61.417,215.204C60.055,217.868 58.024,219.102 55.214,219.307C53.736,219.414 52.244,219.346 50.76,219.381C49.886,219.402 49.493,219.022 49.511,218.139C49.538,216.851 49.538,215.563 49.511,214.276C49.493,213.393 49.903,212.908 50.757,213.048C53.588,213.515 54.798,211.802 55.901,209.592C59.425,202.551 63.041,195.554 66.681,188.572C67.344,187.299 66.859,187.198 65.753,187.204C60.998,187.234 56.243,187.222 51.485,187.213C49.558,187.21 49.52,187.159 49.511,185.191C49.487,180.594 49.487,180.594 54.09,180.594C55.723,180.594 57.358,180.594 58.994,180.594Z" fill="#000" stroke="" stroke-width="" stroke-miterlimit=""/>
		<path d="M113.818,218.525C111.091,218.525 108.365,218.445 105.644,218.555C104.089,218.62 103.687,218.005 103.711,216.568C103.779,212.804 103.738,209.036 103.732,205.269C103.732,204.391 103.904,203.431 102.652,203.154C102.272,203.071 102.206,202.646 102.203,202.292C102.191,200.903 102.197,199.518 102.191,198.129C102.188,197.481 102.48,197.112 103.146,197.047C105.459,196.821 105.852,194.656 106.911,193.202C107.3,192.669 106.569,192.655 106.218,192.643C105.326,192.607 104.434,192.613 103.541,192.616C102.801,192.619 102.444,192.262 102.459,191.528C102.459,191.477 102.453,191.429 102.453,191.379C102.542,185.652 101.57,186.734 106.887,186.612C107.532,186.597 108.174,186.612 108.82,186.609C110.863,186.606 111.752,185.268 110.99,183.377C110.744,182.764 110.232,182.824 109.747,182.821C107.815,182.809 105.882,182.782 103.949,182.824C102.926,182.848 102.513,182.422 102.524,181.42C102.581,175.949 101.87,176.903 106.875,176.805C107.371,176.796 107.865,176.805 108.362,176.805C110.726,176.805 110.744,176.808 111.056,174.471C111.145,173.811 111.422,173.475 112.082,173.475C113.964,173.469 115.849,173.478 117.732,173.46C118.814,173.451 118.936,174.188 118.862,174.97C118.722,176.422 119.358,176.912 120.759,176.823C122.189,176.734 123.637,176.885 125.068,176.781C126.599,176.671 127.137,177.299 126.98,178.771C126.896,179.556 126.905,180.362 126.977,181.147C127.099,182.482 126.495,182.886 125.234,182.83C123.602,182.752 121.963,182.803 120.328,182.821C119.804,182.827 119.096,182.69 118.981,183.413C118.826,184.373 118.561,185.464 119.177,186.288C119.569,186.811 119.995,186.258 119.997,185.768C120.006,184.272 120.949,184.123 122.103,184.198C122.546,184.227 122.995,184.189 123.441,184.204C124.732,184.254 126.495,183.707 125.942,186.142C127.449,187.537 126.712,189.363 126.875,191.016C126.997,192.235 126.447,192.675 125.228,192.646C122.555,192.58 119.876,192.622 117.199,192.628C115.84,192.631 114.568,193.567 114.258,194.825C114.023,195.78 114.814,195.447 115.192,195.453C117.916,195.485 120.643,195.456 123.37,195.474C126.917,195.497 126.62,195.033 126.626,198.748C126.635,203.556 126.635,208.361 126.626,213.17C126.62,217.184 125.311,218.483 121.252,218.519C120.012,218.531 118.775,218.522 117.535,218.522C116.295,218.525 115.055,218.525 113.818,218.525ZM115.228,201.578C114.339,201.578 113.447,201.608 112.557,201.569C111.654,201.531 111.181,201.816 111.193,202.827C111.204,203.77 111.546,204.186 112.501,204.168C114.282,204.139 116.063,204.142 117.845,204.165C118.808,204.18 119.135,203.731 119.144,202.807C119.156,201.784 118.636,201.537 117.752,201.569C116.911,201.605 116.069,201.578 115.228,201.578ZM115.299,210.178C114.359,210.178 113.417,210.202 112.477,210.172C111.627,210.142 111.196,210.434 111.199,211.362C111.202,212.248 111.41,212.786 112.43,212.765C114.211,212.732 115.995,212.735 117.779,212.768C118.695,212.783 119.141,212.465 119.147,211.481C119.153,210.523 118.781,210.125 117.827,210.172C116.985,210.211 116.141,210.178 115.299,210.178Z" fill="#000" stroke="" stroke-width="" stroke-miterlimit=""/>
		<path d="M146.574,195.468C148.635,196.413 149.042,197.849 149.012,199.646C148.938,204.005 149.001,208.367 148.989,212.726C148.98,216.063 147.523,217.541 144.201,217.576C141.822,217.603 139.443,217.603 137.064,217.573C136.14,217.562 135.5,217.743 135.557,218.858C135.598,219.682 135.129,219.991 134.347,219.985C132.762,219.97 131.174,219.964 129.589,219.988C128.7,220.003 128.319,219.587 128.346,218.727C128.358,218.382 128.34,218.034 128.34,217.686C128.34,203.96 128.34,190.234 128.34,176.508C128.34,174.182 128.37,174.15 130.624,174.147C136.125,174.141 141.623,174.179 147.124,174.123C148.525,174.108 149.03,174.548 149.01,175.996C148.938,181.001 148.962,186.006 148.998,191.01C149.018,192.848 148.724,194.477 146.574,195.468ZM135.572,205.043C135.572,205.783 135.572,206.523 135.572,207.264C135.572,211.989 135.572,211.962 140.288,211.84C141.367,211.814 141.795,211.436 141.781,210.359C141.745,207.841 141.813,205.322 141.766,202.806C141.662,197.353 142.795,198.334 136.868,198.227C135.911,198.209 135.548,198.629 135.566,199.562C135.601,201.391 135.578,203.217 135.572,205.043ZM135.575,186.458C135.575,187.891 135.655,189.33 135.551,190.754C135.447,192.167 136.036,192.607 137.356,192.488C138.239,192.408 139.137,192.42 140.023,192.485C141.29,192.577 141.828,192.084 141.787,190.784C141.724,188.857 141.81,186.93 141.766,185.003C141.641,179.478 142.824,180.549 136.895,180.415C135.955,180.394 135.542,180.751 135.566,181.715C135.604,183.294 135.578,184.879 135.575,186.458Z" fill="#000" stroke="" stroke-width="" stroke-miterlimit=""/>
		<path d="M160.903,207.609C159.19,207.285 157.715,207.425 156.258,207.451C155.015,207.472 154.403,207.094 154.498,205.753C154.578,204.62 154.56,203.473 154.504,202.337C154.444,201.156 154.971,200.802 156.098,200.802C170.466,200.826 184.835,200.826 199.203,200.802C200.384,200.799 200.791,201.251 200.735,202.384C200.672,203.621 200.687,204.861 200.729,206.098C200.762,207.071 200.301,207.43 199.388,207.425C197.654,207.413 195.92,207.427 194.187,207.427C186.904,207.427 179.619,207.451 172.337,207.404C171.135,207.395 170.27,207.71 169.556,208.7C168.545,210.107 167.421,211.433 166.36,212.801C166.16,213.06 165.78,213.3 165.988,213.687C166.149,213.987 166.52,213.886 166.803,213.886C175.028,213.889 183.253,213.88 191.478,213.898C192.626,213.901 192.926,213.306 192.902,212.313C192.828,209.235 192.822,209.509 195.888,209.497C197.027,209.494 198.166,209.506 199.307,209.506C200.042,209.506 200.607,209.75 200.607,210.585C200.607,212.762 200.863,214.948 200.47,217.107C200.107,219.09 199.093,219.97 197.101,219.97C183.476,219.988 169.851,219.97 156.226,219.994C155.119,219.997 154.867,219.533 154.745,218.495C154.447,215.935 155.22,213.91 157.067,212.114C158.423,210.797 159.544,209.224 160.903,207.609Z" fill="#000" stroke="" stroke-width="" stroke-miterlimit=""/>
		<path d="M178.079,173.195C181.546,173.195 185.013,173.222 188.477,173.18C189.5,173.168 190.122,173.528 190.583,174.447C191.561,176.392 192.658,178.277 193.646,180.219C194.228,181.361 195.022,181.932 196.354,181.819C197.434,181.726 198.531,181.813 199.62,181.813C200.354,181.813 200.708,182.164 200.705,182.901C200.699,184.287 200.696,185.672 200.705,187.061C200.708,187.805 200.345,188.147 199.614,188.147C196.792,188.147 193.967,188.188 191.148,188.135C189.78,188.108 188.9,187.24 188.272,186.077C187.285,184.248 186.25,182.443 185.293,180.597C184.876,179.794 184.329,179.446 183.419,179.455C180.053,179.487 176.684,179.493 173.318,179.452C172.351,179.44 171.76,179.826 171.269,180.617C170.201,182.342 169.069,184.028 167.974,185.738C166.841,187.513 165.209,188.387 163.127,188.408C160.751,188.432 158.372,188.387 155.996,188.423C154.926,188.438 154.45,188.025 154.501,186.933C154.548,185.845 154.56,184.754 154.498,183.665C154.429,182.47 154.994,182.077 156.103,182.131C156.993,182.175 157.897,182.051 158.774,182.155C160.507,182.363 161.557,181.578 162.333,180.106C163.323,178.224 164.462,176.419 165.456,174.536C165.988,173.528 166.693,173.151 167.826,173.171C171.245,173.231 174.662,173.195 178.079,173.195Z" fill="#000" stroke="" stroke-width="" stroke-miterlimit=""/>
		<path d="M177.604,197.962C170.527,197.962 163.45,197.933 156.372,197.986C154.96,197.998 154.386,197.549 154.493,196.116C154.585,194.885 154.535,193.642 154.517,192.405C154.505,191.539 154.915,191.126 155.763,191.108C156.158,191.102 156.554,191.09 156.949,191.09C170.759,191.09 184.565,191.087 198.375,191.09C200.718,191.09 200.718,191.096 200.721,193.484C200.727,197.96 200.727,197.96 196.311,197.96C190.075,197.965 183.84,197.965 177.604,197.962Z" fill="#000" stroke="" stroke-width="" stroke-miterlimit=""/>
	</svg>
