<?xml version="1.0" encoding="utf-8"?>
	<svg version="1.1" xmlns="http://www.w3.org/2000/svg" xmlns:xlink="http://www.w3.org/1999/xlink" x="0px" y="0px" width="240.0" height="240.0" xml:space="preserve">
		<path d="M49.533,190.347C46.643,189.169 45.181,186.457 43.345,184.268C30.014,168.344 22.135,150.092 20.408,129.303C17.965,99.971 26.472,74.239 46.28,52.47C63.495,33.548 85.037,22.811 110.504,20.477C139.607,17.811 165.241,26.302 186.984,45.856C206.077,63.025 216.969,84.545 219.423,110.122C222.156,138.634 214.096,163.909 195.387,185.57C178.794,204.782 157.673,216.115 132.507,219.18C102.926,222.78 76.706,214.517 54.035,195.155C52.364,193.729 50.243,192.67 49.517,190.336C61.545,187.172 72.702,189.164 83.745,194.864C98.465,202.463 114.373,204.766 130.774,202.536C152.191,199.626 170.174,190.02 183.831,173.215C203.639,148.847 208.494,121.33 198.266,91.781C185.859,55.94 149.976,33.33 112.138,37.039C94.186,38.797 78.387,45.462 64.932,57.335C37.883,81.205 29.314,118.602 43.028,151.98C44.662,155.963 46.835,159.724 48.469,163.707C52.058,172.426 51.986,181.353 49.533,190.347Z" fill="#000" stroke="" stroke-width="" stroke-miterlimit=""/>
		<path d="M78.443,119.951C78.449,112.793 78.511,105.63 78.407,98.472C78.376,96.211 79.17,95.464 81.41,95.484C91.758,95.567 102.111,95.552 112.459,95.495C114.451,95.484 115.234,95.858 114.165,97.959C113.035,100.184 112.044,102.497 111.188,104.841C110.332,107.186 108.942,108.187 106.354,108.068C102.137,107.871 97.905,108.078 93.677,107.995C91.696,107.959 90.882,108.675 90.918,110.708C91.042,118.447 90.119,117.233 97.241,117.311C102.417,117.368 107.594,117.362 112.765,117.305C114.606,117.285 115.109,117.86 114.311,119.593C113.009,122.409 111.753,125.252 110.581,128.125C109.969,129.619 108.859,129.847 107.469,129.837C102.899,129.811 98.325,129.909 93.755,129.795C91.603,129.744 90.591,130.584 90.965,132.664C91.831,137.472 89.912,140.299 85.207,141.492C83.724,141.87 82.318,142.638 80.954,143.364C78.962,144.422 78.397,143.748 78.412,141.684C78.475,134.443 78.443,127.197 78.443,119.951Z" fill="#000" stroke="" stroke-width="" stroke-miterlimit=""/>
		<path d="M120.946,119.671C120.951,112.601 121.008,105.531 120.915,98.462C120.884,96.2 121.719,95.355 123.949,95.49C126.097,95.619 128.27,95.645 130.412,95.484C132.876,95.298 133.493,96.408 133.477,98.679C133.394,108.509 133.441,118.338 133.452,128.167C133.457,131.834 133.467,131.844 137.238,131.844C143.187,131.849 149.137,131.88 155.086,131.829C157.067,131.813 157.866,132.301 156.87,134.365C155.594,137 154.412,139.687 153.281,142.389C152.653,143.893 151.621,144.376 150.055,144.365C141.263,144.319 132.466,144.293 123.674,144.381C121.418,144.402 120.91,143.385 120.925,141.393C120.982,134.158 120.946,126.917 120.946,119.671Z" fill="#000" stroke="" stroke-width="" stroke-miterlimit=""/>
		<path d="M164.364,131.082C164.364,130.48 164.364,129.873 164.364,129.272C164.364,118.4 164.338,118.415 157.533,109.738C154.395,105.739 151.366,101.646 148.306,97.585C147.958,97.123 147.31,96.662 147.554,96.039C147.88,95.22 148.752,95.547 149.384,95.541C152.834,95.51 156.283,95.562 159.732,95.515C161.169,95.495 162.155,96.055 162.995,97.201C164.987,99.909 167.129,102.507 169.079,105.241C170.147,106.74 170.889,106.75 171.952,105.282C173.929,102.564 176.024,99.935 178.031,97.238C178.856,96.128 179.811,95.484 181.278,95.515C184.728,95.583 188.177,95.526 191.626,95.541C192.207,95.541 192.954,95.36 193.291,95.951C193.722,96.703 193.006,97.222 192.612,97.746C187.944,103.944 183.307,110.163 178.555,116.299C177.316,117.902 176.802,119.546 176.833,121.538C176.906,126.45 176.792,131.367 176.88,136.284C176.916,138.188 176.268,139.324 174.463,140.029C171.818,141.061 169.224,142.249 166.657,143.478C164.898,144.319 164.328,143.774 164.349,141.959C164.4,138.328 164.369,134.702 164.364,131.082Z" fill="#000" stroke="" stroke-width="" stroke-miterlimit=""/>
		<path d="M56.28,130.724C56.28,126.943 56.321,123.156 56.259,119.375C56.228,117.544 56.907,116.683 58.826,116.756C61.404,116.849 63.987,116.807 66.565,116.776C68.059,116.761 68.775,117.394 68.77,118.929C68.749,125.205 68.738,131.481 68.78,137.762C68.79,139.184 68.106,139.977 66.887,140.506C64.127,141.699 61.357,142.887 58.634,144.163C56.876,144.988 56.274,144.345 56.28,142.597C56.29,138.639 56.28,134.681 56.28,130.724Z" fill="#000" stroke="" stroke-width="" stroke-miterlimit=""/>
		<path d="M69.506,101.677C69.475,105.417 66.213,108.581 62.468,108.514C59.122,108.451 55.829,105.142 55.782,101.797C55.73,97.984 58.837,94.94 62.717,94.992C66.591,95.043 69.543,97.948 69.506,101.677Z" fill="#000" stroke="" stroke-width="" stroke-miterlimit=""/>
	</svg>
