<?xml version="1.0" encoding="utf-8"?>
	<svg version="1.1" xmlns="http://www.w3.org/2000/svg" xmlns:xlink="http://www.w3.org/1999/xlink" x="0px" y="0px" width="240.0" height="240.0" xml:space="preserve">
		<path d="M80,20L160,20A60,60 0,0 1,220 80L220,160A60,60 0,0 1,160 220L80,220A60,60 0,0 1,20 160L20,80A60,60 0,0 1,80 20z" fill="#000" stroke="#00000000" stroke-width="1.0" stroke-miterlimit=""/>
		<path d="M220,20m-100,0a100,100 0,1 1,200 0a100,100 0,1 1,-200 0" fill="#000" stroke="#00000000" stroke-width="1.0" stroke-miterlimit=""/>
		<path d="M220,20m-150,0a150,150 0,1 1,300 0a150,150 0,1 1,-300 0" fill="#000" stroke="#00000000" stroke-width="1.0" stroke-miterlimit=""/>
		<path d="M220,20m-200,0a200,200 0,1 1,400 0a200,200 0,1 1,-400 0" fill="#000" stroke="#00000000" stroke-width="1.0" stroke-miterlimit=""/>
		<path d="M85,155m-35,0a35,35 0,1 1,70 0a35,35 0,1 1,-70 0" fill="#000" stroke="#00000000" stroke-width="1.0" stroke-miterlimit=""/>
		<path d="M135,105m-15,0a15,15 0,1 1,30 0a15,15 0,1 1,-30 0" fill="#000" stroke="#00000000" stroke-width="1.0" stroke-miterlimit=""/>
	</svg>
