<?xml version="1.0" encoding="utf-8"?>
	<svg version="1.1" xmlns="http://www.w3.org/2000/svg" xmlns:xlink="http://www.w3.org/1999/xlink" x="0px" y="0px" width="240.0" height="240.0" xml:space="preserve">
		<path d="M99.499,88.332C99.499,104.664 99.521,120.996 99.488,137.329C99.477,144.081 98.576,150.719 96.076,157.034C92.059,167.187 84.815,174.18 74.422,177.341C59.667,181.822 45.18,180.496 31.369,173.607C25.643,170.752 21.505,166.314 20.255,159.682C18.427,149.982 26.396,142.4 35.932,144.823C39.563,145.746 42.827,147.558 46.217,149.054C48.881,150.227 51.599,151.166 54.503,151.57C61.976,152.613 66.894,148.972 67.849,141.532C68.101,139.561 68.226,137.558 68.226,135.571C68.248,103.179 68.242,70.787 68.242,38.39C68.242,36.398 68.242,34.4 68.728,32.446C70.655,24.727 77.451,20.333 85.961,21.299C94.105,22.222 99.384,27.948 99.471,36.338C99.591,48.407 99.504,60.476 99.504,72.54C99.499,77.807 99.499,83.069 99.499,88.332Z" fill="#000" stroke="" stroke-width="" stroke-miterlimit=""/>
		<path d="M179.326,208.28C179.326,206.741 179.321,205.202 179.326,203.657C179.332,202.401 179.615,200.987 177.568,201.102C176.837,201.146 176.744,200.529 176.766,199.956C176.788,199.448 176.613,198.646 177.328,198.635C180.347,198.591 179.015,196.326 179.332,194.896C179.517,194.044 178.753,192.767 180.369,192.537C182.012,192.308 182.814,192.729 182.776,194.683C182.705,198.498 182.831,198.504 186.652,198.509C187.285,198.509 187.918,198.52 188.557,198.52C189.468,198.515 189.818,198.962 189.812,199.874C189.807,200.835 189.321,201.146 188.469,201.14C188.197,201.14 187.924,201.14 187.656,201.146C182.732,201.293 182.732,201.293 182.732,206.151C182.732,208.509 182.776,210.862 182.727,213.22C182.672,215.644 183.851,216.703 186.21,216.632C187.023,216.61 187.842,216.654 188.655,216.632C189.659,216.605 189.829,217.189 189.823,218.024C189.823,218.837 189.714,219.465 188.688,219.427C186.881,219.361 185.074,219.558 183.278,219.143C181.051,218.624 179.725,217.276 179.566,215.054C179.403,212.805 179.528,210.535 179.528,208.275C179.457,208.28 179.392,208.28 179.326,208.28Z" fill="#000" stroke="" stroke-width="" stroke-miterlimit=""/>
		<path d="M150.461,204.732C150.461,200.562 150.477,196.391 150.45,192.221C150.444,191.096 150.559,190.321 152.017,190.316C153.436,190.31 153.894,190.796 153.889,192.21C153.84,200.731 153.84,209.257 153.889,217.778C153.894,219.099 153.447,219.481 152.164,219.481C150.887,219.481 150.417,219.11 150.439,217.789C150.504,213.439 150.461,209.083 150.461,204.732Z" fill="#000" stroke="" stroke-width="" stroke-miterlimit=""/>
		<path d="M168.349,209.104C168.349,212.003 168.294,214.907 168.371,217.806C168.409,219.148 167.879,219.471 166.629,219.481C165.325,219.492 164.91,219.067 164.921,217.762C164.975,211.959 164.981,206.157 164.921,200.36C164.904,198.924 165.412,198.482 166.809,198.482C168.283,198.487 168.371,199.29 168.36,200.403C168.332,203.302 168.349,206.206 168.349,209.104Z" fill="#000" stroke="" stroke-width="" stroke-miterlimit=""/>
		<path d="M168.409,192.461C168.524,193.744 168.502,194.748 166.684,194.748C164.899,194.748 164.888,193.788 164.899,192.499C164.91,191.238 164.844,190.228 166.657,190.223C168.447,190.218 168.545,191.167 168.409,192.461Z" fill="#000" stroke="" stroke-width="" stroke-miterlimit=""/>
		<path d="M156.379,178.285C169.125,179.628 180.223,176.161 188.919,165.774C189.074,166.161 189.206,166.487 189.323,166.779C189.483,167.173 189.616,167.504 189.748,167.837C192.374,174.469 197.642,177.805 204.863,177.406C211.621,177.029 216.687,173.017 218.532,166.494C219.176,164.212 219.323,161.865 219.323,159.491C219.312,132.44 219.311,105.388 219.31,78.337C219.309,64.83 219.309,51.324 219.307,37.817C219.307,37.734 219.307,37.65 219.307,37.566C219.308,36.562 219.309,35.551 219.198,34.558C218.515,28.472 215.944,23.597 209.984,21.223C199.394,17.009 189.033,24.149 188.94,35.759C188.878,43.533 188.888,51.306 188.898,59.079C188.904,63.555 188.91,68.031 188.902,72.507C188.901,72.731 188.916,72.958 188.932,73.189C188.982,73.927 189.035,74.701 188.553,75.52C188.356,75.377 188.166,75.239 187.982,75.104C187.567,74.801 187.177,74.517 186.784,74.237C167.215,60.269 139.78,63.997 124.719,82.676C109.921,101.028 107.164,130.871 118.425,151.696C126.63,166.86 138.884,176.44 156.379,178.285ZM147.933,102.093C143.67,108.147 141.901,114.975 141.847,122.312C141.814,129.386 143.572,135.953 147.486,141.854C155.805,154.387 173.19,155.135 182.159,143.388C190.369,132.629 191.182,114.473 183.966,103.064C175.429,89.571 157.115,89.063 147.933,102.093Z" fill="#000" stroke="" stroke-width="" stroke-miterlimit=""/>
		<path d="M212.915,219.35C215.049,218.963 216.195,217.953 215.24,215.524C215.12,215.565 215,215.606 214.88,215.647C212.972,216.303 211.04,216.966 209.006,217.156C204.59,217.565 201.539,215.453 200.633,211.583C200.283,210.087 200.605,209.667 202.117,209.694C204.797,209.741 207.477,209.733 210.156,209.725C211.554,209.722 212.952,209.718 214.35,209.721C214.412,209.721 214.473,209.722 214.533,209.722C215.479,209.728 216.223,209.732 216.315,208.269C216.599,203.64 213.985,199.355 209.994,198.285C204.89,196.915 199.819,199.061 197.958,203.646C196.233,207.893 196.167,212.221 198.984,216.053C201.692,219.743 205.726,220.306 209.978,219.874C210.638,219.805 211.291,219.672 211.943,219.54C212.267,219.474 212.591,219.408 212.915,219.35ZM205.452,207.015C205.845,207.014 206.238,207.014 206.631,207.014C207.082,207.014 207.533,207.004 207.985,206.995C208.989,206.974 209.992,206.953 210.982,207.036C212.969,207.205 213.1,206.233 212.576,204.754C211.784,202.527 210.354,201.042 207.865,200.856C205.141,200.654 202.821,201.342 201.396,203.897C200.021,206.364 200.375,207.003 203.094,207.014C203.88,207.017 204.666,207.016 205.452,207.015Z" fill="#000" stroke="" stroke-width="" stroke-miterlimit=""/>
	</svg>
