<?xml version="1.0" encoding="utf-8"?>
	<svg version="1.1" xmlns="http://www.w3.org/2000/svg" xmlns:xlink="http://www.w3.org/1999/xlink" x="0px" y="0px" width="240.0" height="240.0" xml:space="preserve">
		<path d="M176.764,29.645C176.592,36.868 176.705,44.097 176.705,51.323L176.705,54.425C184.331,54.123 190.597,48.133 192.151,39.576C192.809,35.95 193.118,32.242 193.323,28.558C193.426,26.698 194.094,26.032 195.868,26.04C203.093,26.073 210.318,26.046 217.543,26.059C218.843,26.061 220.011,26.178 220,28.006C219.904,44.302 216.6,59.364 203.644,70.718C196.797,76.719 188.642,79.991 179.795,81.43C177.096,81.869 176.661,82.895 176.665,85.263C176.719,109.511 176.464,133.76 176.724,158.004C177.01,184.599 157.26,210.299 127.48,214.387C97.753,218.467 69.673,197.899 64.439,168.193C63.767,164.382 63.405,160.467 63.388,156.597C63.286,132.731 63.294,108.863 63.365,84.996C63.372,82.618 62.738,81.811 60.269,81.445C38.788,78.264 23.218,61.74 21.063,40.077C20.706,36.489 20.395,32.897 20.036,29.31C19.812,27.066 20.608,25.988 23.045,26.023C29.889,26.119 36.735,26.121 43.579,26.031C46.124,25.998 46.806,26.976 47.045,29.514C47.506,34.389 48.123,39.347 49.533,44.011C51.45,50.357 56.671,53.236 63.178,54.714C63.233,53.614 63.315,52.713 63.316,51.812C63.326,44.205 63.378,36.598 63.284,28.992C63.258,26.931 63.918,26.047 66.022,26.062C73.152,26.115 80.282,26.116 87.411,26.058C89.373,26.043 90.024,26.799 90.01,28.765C89.936,39.509 89.976,50.255 89.977,60.999L89.977,64.483C110.147,53.203 129.839,53.1 150.06,64.396L150.06,61.217L150.06,61.217C150.061,50.757 150.149,40.297 150.004,29.839C149.966,27.049 150.657,25.929 153.633,26.013C160.188,26.197 166.754,26.178 173.31,26.004C176.131,25.929 176.828,26.965 176.764,29.645ZM149.369,106.281C146.24,90.688 130.217,80.036 114.719,83.177C100.016,86.157 90.035,98.327 89.999,113.397C89.967,127.08 89.972,140.763 90.014,154.445C90.022,156.903 90.175,159.375 90.457,161.817C92.273,177.574 105.963,188.913 121.989,187.99C137.689,187.086 150.009,174.088 150.041,158.378C150.056,150.777 150.044,143.175 150.04,135.574C150.035,127.973 150.081,120.371 150.006,112.77C149.984,110.603 149.794,108.403 149.369,106.281Z" fill="#000" stroke="#00000000" stroke-width="1.0" stroke-miterlimit=""/>
	</svg>
