<?xml version="1.0" encoding="utf-8"?>
	<svg version="1.1" xmlns="http://www.w3.org/2000/svg" xmlns:xlink="http://www.w3.org/1999/xlink" x="0px" y="0px" width="240.0" height="240.0" xml:space="preserve">
		<path d="M119.773,219.69H117.113C62.587,218.36 18.699,171.813 20.029,117.287C21.359,90.688 31.999,65.42 50.618,48.131C70.566,29.512 95.835,20.203 122.433,21.533C149.031,22.863 174.299,33.502 191.588,52.121C210.207,72.07 219.517,97.338 218.187,123.936C218.187,177.133 172.97,219.69 119.773,219.69V219.69ZM119.773,37.492C98.494,37.492 78.546,45.471 63.917,60.1C47.958,76.059 38.648,96.008 37.318,117.287C35.988,162.504 71.896,199.741 117.113,201.071H119.773C163.66,201.071 200.898,165.164 202.228,121.276C202.228,99.998 194.248,78.719 179.619,62.76C164.99,46.801 143.711,37.492 122.433,37.492H119.773V37.492Z" fill="#000" stroke="" stroke-width="" stroke-miterlimit=""/>
		<path d="M119.779,219.69C101.16,219.69 83.871,214.37 66.582,205.061C20.035,175.803 6.736,113.297 34.664,66.75C49.293,44.141 70.572,28.182 97.17,22.863C122.438,16.213 150.367,21.533 172.975,34.832C219.522,64.09 234.151,125.266 204.893,171.813C184.944,202.401 153.027,219.69 119.779,219.69ZM75.892,189.102C114.459,213.04 164.996,201.071 188.934,162.504C212.873,123.936 200.903,73.399 162.336,49.461C145.047,38.822 122.438,34.832 101.16,40.152C79.881,45.471 61.262,57.44 50.623,76.059C26.685,114.627 37.324,165.164 75.892,189.102V189.102Z" fill="#000" stroke="" stroke-width="" stroke-miterlimit=""/>
		<path d="M121.11,57.44C119.78,57.44 117.12,57.44 115.79,56.111L98.502,41.481C94.512,38.822 93.182,33.502 95.842,29.512C98.502,25.523 103.821,25.523 107.811,28.182L121.11,38.822L134.409,29.512C139.729,25.523 145.048,26.853 147.708,30.842C150.368,34.832 149.038,40.152 145.048,42.811L126.43,56.111C125.1,57.44 123.77,57.44 121.11,57.44V57.44ZM143.719,163.834L94.512,162.504C90.522,162.504 87.862,159.844 86.532,155.854L73.233,107.977C71.903,103.987 73.233,99.998 77.223,98.668L118.45,70.74C121.11,68.08 126.43,68.08 129.089,70.74L167.657,101.328C170.317,103.987 171.647,107.977 170.317,110.637L154.358,157.184C150.368,161.174 147.708,163.834 143.719,163.834ZM101.161,145.215L137.069,146.545L149.038,111.967L121.11,89.358L90.522,110.637L101.161,145.215V145.215Z" fill="#000" stroke="" stroke-width="" stroke-miterlimit=""/>
		<path d="M121.106,88.029C115.786,88.029 111.797,84.039 111.797,78.719L113.126,49.461C113.126,44.141 117.116,40.152 122.436,40.152C127.756,40.152 131.745,44.141 130.415,49.461L129.085,78.719C129.085,84.039 125.096,88.029 121.106,88.029ZM79.879,114.627H77.219L49.291,105.317C45.301,102.658 42.641,97.338 43.971,93.348C45.301,89.358 50.62,86.699 54.61,88.029L82.538,97.338C86.528,98.668 89.188,103.987 87.858,107.977C87.858,113.297 83.868,114.627 79.879,114.627V114.627ZM77.219,185.112C75.889,185.112 73.229,185.112 71.899,183.782C67.909,181.122 67.909,175.803 70.569,171.813L89.188,147.875C91.848,143.885 97.168,143.885 101.157,146.545C105.147,149.205 105.147,154.524 102.487,158.514L83.868,182.452C81.209,183.782 78.549,185.112 77.219,185.112V185.112ZM159.673,186.442C157.014,186.442 154.354,185.112 153.024,182.452L135.735,158.514C133.075,154.524 133.075,149.205 137.065,145.215C141.055,142.555 146.374,143.885 149.034,147.875L166.323,171.813C168.983,175.803 167.653,181.122 163.663,183.782C162.333,186.442 161.003,186.442 159.673,186.442V186.442ZM158.344,117.287C154.354,117.287 150.364,114.627 150.364,110.637C149.034,105.317 151.694,101.328 155.684,99.998L183.612,92.018C188.932,90.688 192.921,93.348 194.251,97.338C195.581,102.658 192.921,106.647 188.932,107.977L161.003,115.957C159.673,117.287 158.344,117.287 158.344,117.287V117.287Z" fill="#000" stroke="" stroke-width="" stroke-miterlimit=""/>
		<path d="M33.338,117.287C30.678,117.287 28.018,115.957 26.688,113.297C24.029,109.307 25.359,103.987 29.348,101.328L42.647,92.018L37.328,76.059C35.998,72.07 38.658,66.75 43.977,65.42C47.967,64.09 53.287,66.75 54.617,72.07L61.266,93.348C62.596,97.338 61.266,101.328 57.277,102.658L38.658,115.957C37.328,117.287 35.998,117.287 33.338,117.287V117.287ZM82.545,206.391C78.555,206.391 74.565,203.731 74.565,199.741L69.246,183.782H53.287C47.967,183.782 43.977,179.793 45.307,174.473C45.307,169.153 49.297,166.493 54.617,166.493H77.225C81.215,166.493 83.875,169.153 85.205,173.143L91.854,195.752C93.184,201.071 90.524,205.061 86.535,206.391H82.545V206.391ZM151.7,209.051H149.041C145.051,207.721 142.391,202.401 143.721,198.411L151.7,177.133C153.03,173.143 155.69,171.813 159.68,171.813H182.288C187.608,171.813 191.598,175.803 190.268,181.123C190.268,186.442 186.278,190.432 180.959,189.102H165L159.68,203.731C158.35,206.391 155.69,209.051 151.7,209.051V209.051ZM202.237,119.946C200.907,119.946 198.247,119.946 196.917,118.617L182.288,106.647C179.629,103.987 178.299,99.998 179.629,97.338L187.608,74.729C188.938,70.74 192.928,68.08 196.917,69.41C200.907,69.41 203.567,72.07 204.897,76.059L211.547,109.307C212.876,113.297 210.217,117.287 207.557,118.617C206.227,119.946 203.567,119.946 202.237,119.946V119.946Z" fill="#000" stroke="" stroke-width="" stroke-miterlimit=""/>
	</svg>
