<?xml version="1.0" encoding="utf-8"?>
	<svg version="1.1" xmlns="http://www.w3.org/2000/svg" xmlns:xlink="http://www.w3.org/1999/xlink" x="0px" y="0px" width="240.0" height="240.0" xml:space="preserve">
		<path d="M198.153,198.19C201.165,195.655 203.386,193.345 204.957,190.511C205.46,189.61 205.811,188.599 206.089,187.604C206.633,185.671 205.947,184.671 203.857,185.148C201.689,185.645 199.552,185.703 197.394,185.137C196.074,184.792 195.026,185.242 194.188,186.326C190.391,191.25 186.038,195.697 181.146,199.468C173.834,205.104 166.04,210.017 157.346,213.4C150.898,215.909 144.319,217.753 137.489,218.853C126.333,220.65 115.276,220.325 104.219,218.015C83.76,213.741 66.899,203.496 53.402,187.636C51.862,185.823 50.652,185.006 47.954,185.918C39.097,188.908 29.475,185.158 26.003,177.637C23.981,173.258 23.557,168.581 24.405,163.814C24.463,163.479 24.609,163.149 24.761,162.845C24.824,162.725 25.028,162.678 25.468,162.416C26.542,165.056 27.48,167.753 29.187,170.037C29.601,170.592 29.926,171.241 30.418,171.713C32.44,173.651 33.309,173.394 33.927,170.707C34.373,168.78 35.347,167.093 36.672,165.721C38.07,164.275 38.348,162.945 37.636,161.038C33.524,150.06 31.57,138.688 31.822,126.966C32.147,111.881 35.724,97.603 43.136,84.446C51.794,69.073 63.84,57.036 79.376,48.499C88.18,43.659 97.588,40.658 107.361,38.683C109.409,38.269 110.441,37.541 110.876,35.289C113.694,20.817 128.438,15.663 140.066,23.986C141.857,25.264 144.125,26.086 145.068,28.716C143.408,28.26 141.915,27.909 140.459,27.432C138.673,26.851 136.845,26.841 135.017,26.951C130.481,27.218 130.051,28.087 132.529,31.769C132.969,32.419 133.645,33.016 133.807,33.734C134.614,37.353 137.227,38.133 140.459,38.767C155.785,41.789 169.586,48.164 181.591,58.246C194.068,68.727 203.491,81.513 208.969,96.823C215.726,115.705 216.727,134.975 210.855,154.365C210.247,156.366 209.792,158.43 209.022,160.362C208.299,162.17 208.613,163.28 210.101,164.652C216.323,170.398 219.602,179.69 214.39,188.034C211.777,192.219 207.875,194.754 203.527,196.708C202.04,197.373 200.505,198.054 198.153,198.19ZM210.378,131.261C210.232,121.676 209.855,115.108 208.247,108.603C203.182,88.118 192.318,71.409 175.584,58.676C164.621,50.337 152.176,45.037 138.594,42.439C136.211,41.983 134.834,42.145 133.66,44.628C131.471,49.269 127.454,51.312 122.352,51.002C117.339,50.699 113.563,48.279 111.426,43.732C110.666,42.119 109.828,42.077 108.362,42.344C93.79,45.016 80.675,50.798 68.984,59.98C61.85,65.585 55.617,72.017 50.657,79.533C43.596,90.234 38.652,101.793 36.782,114.678C34.546,130.109 35.614,145.063 41.25,159.655C41.878,161.274 42.774,161.735 44.403,161.588C49.641,161.122 53.574,163.285 56.062,167.868C58.524,172.404 58.304,176.909 55.287,181.141C54.418,182.361 54.454,183.236 55.413,184.362C60.274,190.066 65.585,195.288 71.729,199.599C81.434,206.408 91.936,211.337 103.595,214.039C118.424,217.47 133.021,216.826 147.535,212.814C157.707,210.001 166.926,205.109 175.416,198.876C181.193,194.639 186.332,189.699 190.831,184.111C191.643,183.105 192.172,182.146 191.161,180.858C187.887,176.689 187.777,172.027 190.16,167.606C192.554,163.175 196.713,160.839 201.82,161.022C204.077,161.101 204.921,160.216 205.539,158.33C208.744,148.572 210.871,138.657 210.378,131.261Z" fill="#ff0b0b0b" stroke="" stroke-width="" stroke-miterlimit=""/>
		<path d="M103.646,206.235C104.683,205.476 105.626,205.989 106.522,206.083C110.078,206.45 113.498,205.921 116.74,204.47C118.783,203.553 118.767,202.705 116.892,201.448C114.127,199.594 112.021,197.226 111.382,193.848C111.11,192.428 110.272,191.789 108.957,191.48C100.027,189.38 91.751,185.797 84.439,180.214C77.378,174.819 71.465,168.313 67.128,160.551C61.325,150.159 58.454,138.919 58.622,126.998C58.7,121.571 59.722,116.244 61.346,111.064C61.927,109.215 61.618,108.042 59.853,106.937C50.042,100.809 48.906,86.551 57.585,78.737C59.931,76.621 62.131,74.18 66.012,73.295C63.891,76.17 62.026,78.663 61.435,81.785C61.319,82.382 61.084,82.958 60.979,83.555C60.387,87.038 60.984,87.583 64.268,86.531C66.96,85.666 69.679,85.033 72.455,86.07C73.948,86.625 74.917,86.002 75.886,84.959C80.971,79.47 86.822,74.908 93.579,71.734C105.071,66.334 117.049,63.652 129.919,65.087C139.394,66.145 148.089,69.068 156.197,73.881C161.073,76.778 165.541,80.261 169.317,84.53C170.48,85.839 171.491,86.169 173.146,85.368C181.768,81.204 189.431,82.675 195.433,89.898C198.534,93.633 199.382,98.342 199.765,103.087C199.801,103.569 199.906,104.229 199.215,104.37C198.544,104.507 198.345,103.862 198.178,103.417C197.093,100.51 194.794,98.598 192.631,96.577C191.798,95.796 190.787,94.942 189.64,95.372C188.53,95.786 189.043,97.048 188.991,97.954C188.792,101.264 187.299,103.983 185.036,106.251C183.999,107.288 183.852,108.309 184.229,109.551C187.88,121.713 188.069,133.985 184.764,146.184C182.894,153.092 179.866,159.613 175.613,165.448C170.543,172.409 164.514,178.375 157.187,183.005C151.462,186.625 145.349,189.28 138.792,190.873C136.723,191.375 135.947,192.266 135.654,194.523C134.072,206.738 124.702,214.092 111.822,210.153C108.926,209.278 106.055,208.356 103.646,206.235ZM62.681,130.119C62.974,141.323 66.458,152.935 73.817,163.39C82.407,175.594 94.082,183.22 108.271,187.306C110.12,187.835 111.256,187.641 112.236,185.687C116.641,176.893 129.772,177.082 134.119,185.226C135.534,187.877 137.105,187.578 139.179,186.944C146.564,184.676 153.447,181.408 159.607,176.689C169.82,168.874 176.907,158.754 180.694,146.571C184.209,135.273 184.167,123.74 181.16,112.227C180.605,110.09 179.636,109.483 177.536,109.556C172.434,109.734 168.521,107.382 166.29,102.899C164.169,98.64 163.902,94.172 167.029,90.087C167.877,88.982 167.825,88.112 166.835,87.128C158.245,78.611 148.335,72.43 136.34,70C114.315,65.532 95.354,71.372 79.322,87.018C78.169,88.138 77.866,89.149 78.918,90.642C85.329,99.756 76.975,110.708 67.971,110.142C66.384,110.043 65.614,110.645 65.143,112.149C63.462,117.528 62.77,123.033 62.681,130.119Z" fill="#ff0b0b0b" stroke="" stroke-width="" stroke-miterlimit=""/>
		<path d="M144.019,82.063C142.756,82.518 141.934,82.115 141.117,81.879C138.728,81.183 136.293,81.115 133.852,81.335C132.385,81.465 130.489,81.586 129.871,82.88C129.222,84.236 131.175,84.881 131.951,85.839C133.532,87.803 134.481,90.003 134.968,92.428C135.188,93.533 135.596,94.277 136.764,94.722C152.038,100.531 161.817,116.884 159.638,133.047C159.407,134.755 160.151,135.577 161.335,136.489C168.374,141.915 171.166,149.588 168.327,157.796C166.206,163.929 161.12,167.407 155.112,169.492C154.84,169.586 154.316,169.523 154.175,169.33C153.74,168.759 154.306,168.423 154.646,168.062C156.966,165.616 158.553,162.74 159.611,159.561C159.863,158.807 160.12,157.979 159.517,157.325C158.862,156.623 158.061,157.026 157.333,157.325C154.693,158.409 151.975,158.33 149.424,157.304C147.9,156.691 146.868,156.801 145.632,157.78C140.158,162.096 133.931,164.589 126.985,165.207C117.814,166.03 109.318,164.17 101.76,158.707C100.492,157.791 99.393,156.853 97.538,157.754C85.161,163.804 69.773,156.067 71.229,138.62C71.339,137.321 70.956,135.101 72.276,134.964C73.602,134.828 73.581,137.096 73.932,138.317C74.738,141.15 76.514,143.214 78.583,145.131C79.824,146.283 80.704,146.278 81.06,144.403C81.636,141.386 82.988,138.777 85.429,136.887C87.194,135.52 86.649,133.765 86.507,132.084C85.931,125.075 86.911,118.371 90.064,112.012C93.929,104.208 99.927,98.619 107.736,94.958C109.507,94.131 110.35,93.209 110.596,91.15C111.513,83.482 115.719,78.098 122.884,75.29C128.436,73.117 133.763,74.269 138.451,77.726C140.253,79.077 142.735,79.659 144.019,82.063ZM156.118,127.521C156.317,123.043 154.73,118.402 152.519,113.872C149.042,106.754 143.552,101.809 136.445,98.515C135.078,97.881 134.208,98.227 133.422,99.52C132.579,100.908 131.71,102.233 130.264,103.26C123.869,107.785 116.368,105.392 112.335,99.793C111.324,98.389 110.303,98.09 108.805,98.85C105.678,100.432 102.65,102.233 100.199,104.706C92.793,112.169 89.373,121.168 90.19,131.743C90.336,133.608 90.934,134.315 92.851,134.373C96.161,134.472 99.214,135.436 101.472,138.091C105.07,142.323 105.4,147.132 103.426,152.045C102.472,154.423 102.97,155.654 105.159,156.534C105.563,156.696 105.955,156.885 106.338,157.099C117.704,163.521 129.028,163.474 140.263,156.801C144.003,154.58 143.966,154.522 142.311,150.767C142.17,150.447 142.07,150.112 141.96,149.782C139.708,142.821 144.149,135.923 152.085,134.058C156.102,133.115 156.102,133.115 156.123,128.951C156.123,128.684 156.118,128.422 156.118,127.521Z" fill="#ff0b0b0b" stroke="" stroke-width="" stroke-miterlimit=""/>
		<path d="M123.119,112.725C132.054,112.767 139.099,119.984 139.042,129.051C138.994,137.437 131.651,144.665 123.255,144.665C114.188,144.665 106.813,137.358 107.185,128.386C107.557,119.591 114.309,112.683 123.119,112.725Z" fill="#ff0b0b0b" stroke="" stroke-width="" stroke-miterlimit=""/>
	</svg>
