<?xml version="1.0" encoding="utf-8"?>
	<svg version="1.1" xmlns="http://www.w3.org/2000/svg" xmlns:xlink="http://www.w3.org/1999/xlink" x="0px" y="0px" width="240.0" height="240.0" xml:space="preserve">
		<path d="M10,124.038L67.075,69.556L125.189,123.519L10,124.038L10,124.038ZM67.594,83.047L34.906,114.179L100.283,113.66L67.594,83.047L67.594,83.047ZM116.368,127.67L115.33,13L170.33,70.075L116.368,127.67ZM125.189,37.387L125.708,102.764L156.321,69.556L125.189,37.387L125.189,37.387ZM124.151,227.811L69.151,170.736L122.594,112.623L124.151,227.811ZM82.641,171.255L113.774,203.424L113.255,138.047L82.641,171.255L82.641,171.255ZM172.406,171.255L114.811,117.292L230,116.773L172.406,171.255ZM139.717,126.632L172.406,157.245L205.094,126.113L139.717,126.632L139.717,126.632Z" fill="#00000000" stroke="#000" stroke-width="16.0" stroke-miterlimit=""/>
	</svg>
