<?xml version="1.0" encoding="utf-8"?>
	<svg version="1.1" xmlns="http://www.w3.org/2000/svg" xmlns:xlink="http://www.w3.org/1999/xlink" x="0px" y="0px" width="240.0" height="240.0" xml:space="preserve">
		<path d="M219.933,123.864C219.888,122.77 219.821,121.677 219.755,120.606L219.665,118.976L219.487,117.347C219.375,116.254 219.264,115.182 219.13,114.089C218.795,111.924 218.505,109.759 218.014,107.616L217.679,106.01C217.612,105.742 217.567,105.474 217.5,105.206L217.3,104.403L216.474,101.211L216.362,100.81L216.251,100.408L216.005,99.627L215.514,98.064L215.023,96.502C214.845,95.989 214.644,95.476 214.465,94.962C214.086,93.936 213.729,92.909 213.327,91.882L212.055,88.847L211.742,88.088C211.631,87.843 211.519,87.575 211.408,87.329L210.693,85.834L209.979,84.339C209.734,83.848 209.511,83.335 209.243,82.866L207.681,79.965L207.279,79.251L206.855,78.536L206.007,77.13L205.159,75.724C205.002,75.501 204.868,75.256 204.735,75.032L204.266,74.34L202.413,71.618C202.123,71.149 201.766,70.725 201.454,70.279L200.472,68.962C199.802,68.091 199.155,67.199 198.441,66.373L196.321,63.851C195.986,63.427 195.584,63.025 195.227,62.624L194.111,61.418C192.638,59.767 191.054,58.316 189.514,56.799L188.353,55.66L187.148,54.589L184.715,52.447L184.113,51.911L183.8,51.643L183.488,51.398L182.216,50.393L179.672,48.362C179.448,48.206 179.248,48.028 179.024,47.871L178.355,47.403L177.038,46.443L174.382,44.546C173.467,43.944 172.552,43.363 171.637,42.783L170.276,41.913C169.807,41.623 169.361,41.31 168.892,41.042C153.984,32.093 137.067,26.402 119.681,24.616C110.999,23.746 102.184,23.791 93.48,24.795L91.851,24.973C91.315,25.04 90.757,25.129 90.221,25.219L86.963,25.665C85.869,25.821 84.798,26.067 83.727,26.268L80.513,26.937C79.442,27.183 78.393,27.473 77.322,27.741L75.737,28.142C75.201,28.276 74.666,28.41 74.152,28.566L71.006,29.526L69.421,30.017L69.019,30.129L68.64,30.263L67.859,30.553C59.557,33.454 51.567,37.248 44.068,41.89C36.569,46.532 29.584,52 23.245,58.138L23.201,58.182L23.022,58.361C18.916,62.579 19.005,69.341 23.223,73.448C27.441,77.554 34.203,77.465 38.31,73.247C43.398,68.024 49.045,63.338 55.138,59.343C61.23,55.326 67.77,51.978 74.621,49.389L75.268,49.144L75.581,49.01L75.916,48.898L77.21,48.452L79.821,47.559C80.245,47.403 80.692,47.291 81.138,47.157L82.455,46.778C83.348,46.532 84.218,46.265 85.111,46.041L87.789,45.417C88.682,45.216 89.574,44.97 90.489,44.836L93.19,44.345C93.636,44.256 94.082,44.167 94.551,44.1L95.912,43.921C103.188,42.895 110.598,42.627 117.963,43.162C132.692,44.278 147.177,48.675 160.099,55.951C160.523,56.151 160.902,56.419 161.304,56.665L162.487,57.379C163.29,57.87 164.071,58.339 164.875,58.83L167.174,60.392L168.334,61.173L168.914,61.552C169.115,61.686 169.294,61.82 169.472,61.976L171.704,63.65L172.82,64.476L173.11,64.677L173.378,64.9L173.914,65.346L176.056,67.132L177.127,68.024L178.154,68.984C179.515,70.256 180.944,71.484 182.171,72.823L183.131,73.805C183.443,74.14 183.778,74.452 184.068,74.787L185.876,76.84C186.501,77.51 187.059,78.246 187.617,78.96L188.465,80.032C188.755,80.389 189.045,80.746 189.313,81.125L190.92,83.357L191.321,83.915C191.455,84.093 191.567,84.294 191.701,84.495L192.437,85.656L193.174,86.816L193.553,87.396L193.888,87.999L195.272,90.387C195.517,90.789 195.718,91.19 195.919,91.592L196.544,92.82L197.169,94.047C197.28,94.248 197.37,94.449 197.459,94.672L197.749,95.297L198.887,97.797L199.892,100.363C200.048,100.787 200.226,101.211 200.383,101.635L200.829,102.93L201.275,104.224L201.498,104.871L201.61,105.206L201.699,105.541L202.458,108.197L202.659,108.866C202.726,109.089 202.771,109.313 202.815,109.536L203.128,110.875C203.596,112.66 203.886,114.49 204.221,116.298C204.377,117.213 204.467,118.128 204.601,119.043L204.779,120.405L204.891,121.788C204.958,122.703 205.069,123.618 205.114,124.556L205.226,127.323C205.293,131.006 205.203,134.733 204.735,138.393L204.601,139.777L204.4,141.16C204.244,142.075 204.132,142.99 203.976,143.905C203.596,145.713 203.284,147.543 202.771,149.329L202.436,150.668L202.257,151.337L202.056,152.007L201.253,154.663C201.119,155.109 200.963,155.533 200.807,155.979L200.338,157.296L199.869,158.613C199.713,159.059 199.512,159.461 199.334,159.907L198.262,162.474L197.057,164.996C196.856,165.42 196.678,165.844 196.455,166.246L195.785,167.473L195.116,168.701L194.781,169.325L194.625,169.638L194.446,169.928C193.464,171.513 192.549,173.142 191.478,174.659L190.697,175.82L190.317,176.4C190.183,176.601 190.049,176.78 189.893,176.958L188.219,179.19L187.795,179.748L187.349,180.284L186.456,181.355L185.563,182.426L185.117,182.962L184.648,183.475L182.751,185.528L182.283,186.042L181.792,186.533L180.81,187.492C178.176,190.036 175.32,192.38 172.284,194.455C169.249,196.509 166.013,198.316 162.665,199.834C159.318,201.352 155.814,202.601 152.243,203.539C148.672,204.454 144.99,205.079 141.307,205.369C133.92,205.971 126.399,205.369 119.212,203.427C115.619,202.468 112.093,201.218 108.701,199.656C107.853,199.254 107.004,198.874 106.179,198.45L103.701,197.134C102.898,196.665 102.095,196.174 101.291,195.683C101.09,195.571 100.889,195.437 100.689,195.326L100.108,194.924L98.948,194.143C95.868,192.023 92.966,189.635 90.266,187.024C87.632,184.435 85.267,181.578 83.214,178.498C79.129,172.338 76.384,165.286 75.224,157.921C74.086,150.556 74.51,142.946 76.496,135.737C78.505,128.528 82.098,121.744 86.963,115.986C87.543,115.249 88.213,114.557 88.838,113.866C89.463,113.151 90.155,112.526 90.802,111.879C92.163,110.629 93.569,109.402 95.109,108.353C98.122,106.166 101.447,104.447 104.929,103.131C111.937,100.564 119.659,99.872 127.068,101.234C134.478,102.573 141.508,105.965 147.221,110.942C147.578,111.254 147.913,111.589 148.27,111.902C148.627,112.214 148.984,112.549 149.297,112.884C149.609,113.218 149.966,113.553 150.279,113.888L151.216,114.937C152.421,116.365 153.515,117.905 154.475,119.512C154.698,119.914 154.943,120.315 155.167,120.739L155.814,121.989L156.394,123.261C156.595,123.685 156.751,124.132 156.93,124.556C157.599,126.319 158.135,128.127 158.514,129.979C159.273,133.684 159.362,137.5 158.894,141.25C158.38,144.999 157.242,148.681 155.546,152.074C154.676,153.77 153.671,155.399 152.533,156.917L152.109,157.497C151.975,157.698 151.819,157.876 151.663,158.055L150.748,159.149L149.766,160.197C149.609,160.376 149.431,160.555 149.275,160.711L148.761,161.202C146.038,163.813 142.735,165.844 139.165,167.094C135.594,168.366 131.733,168.879 127.916,168.589C124.1,168.299 120.351,167.205 116.958,165.375C115.262,164.46 113.678,163.367 112.205,162.117C111.825,161.827 111.49,161.47 111.133,161.157C110.776,160.845 110.441,160.488 110.107,160.153C109.459,159.461 108.835,158.724 108.277,157.943C106.022,154.841 104.639,151.136 104.237,147.298C103.835,143.459 104.483,139.509 106.067,135.96C106.871,134.197 107.875,132.523 109.125,131.006L109.593,130.448C109.75,130.269 109.928,130.091 110.084,129.912C110.419,129.555 110.754,129.22 111.111,128.885C111.825,128.238 112.584,127.636 113.387,127.1C114.994,126.029 116.802,125.225 118.699,124.734C120.596,124.243 122.56,124.042 124.524,124.199C128.43,124.444 132.268,126.051 135.237,128.662L135.772,129.176C135.951,129.332 136.107,129.533 136.286,129.711L136.799,130.247C136.888,130.336 136.955,130.425 137.044,130.537L137.268,130.827L137.714,131.407C137.87,131.608 137.982,131.831 138.116,132.032L138.495,132.657C138.629,132.88 138.718,133.104 138.83,133.327C139.7,135.112 140.191,137.076 140.28,139.062C140.37,141.049 140.057,143.057 139.343,144.932C138.629,146.807 137.535,148.548 136.129,149.976C137.58,148.57 138.741,146.874 139.499,144.999C140.258,143.124 140.638,141.093 140.615,139.04C140.571,137.009 140.124,134.978 139.276,133.104C139.165,132.88 139.075,132.635 138.964,132.412L138.584,131.742C138.45,131.519 138.339,131.296 138.183,131.073L137.736,130.448L137.513,130.135C137.446,130.024 137.357,129.934 137.268,129.823L136.754,129.243C136.576,129.064 136.419,128.841 136.241,128.662L135.683,128.127C132.692,125.315 128.742,123.529 124.613,123.15C122.56,122.949 120.462,123.105 118.431,123.551C116.4,124.042 114.459,124.824 112.696,125.939C111.803,126.497 110.977,127.122 110.174,127.814C109.794,128.171 109.392,128.528 109.035,128.885C108.857,129.064 108.678,129.243 108.5,129.443L107.986,130.024C106.625,131.586 105.487,133.371 104.572,135.224C102.764,138.995 101.961,143.236 102.273,147.432C102.586,151.627 103.992,155.756 106.38,159.238C106.96,160.108 107.629,160.934 108.321,161.737C108.678,162.117 109.035,162.519 109.415,162.876C109.794,163.233 110.151,163.612 110.553,163.947C112.115,165.353 113.834,166.603 115.664,167.652C119.324,169.75 123.43,171.089 127.649,171.513C131.867,171.937 136.174,171.49 140.236,170.174C144.298,168.879 148.069,166.67 151.261,163.813L151.841,163.277C152.042,163.099 152.243,162.92 152.421,162.719L153.537,161.581L154.586,160.398C154.765,160.197 154.921,159.997 155.1,159.796L155.591,159.171C156.907,157.497 158.068,155.712 159.094,153.859C161.103,150.11 162.509,146.026 163.201,141.808C163.87,137.589 163.87,133.26 163.134,129.042C162.755,126.921 162.219,124.846 161.505,122.815C161.326,122.302 161.148,121.788 160.947,121.297L160.322,119.802L159.63,118.351C159.385,117.86 159.117,117.392 158.871,116.923C157.822,115.048 156.617,113.241 155.278,111.544L154.229,110.295C153.872,109.893 153.493,109.491 153.136,109.089C152.778,108.688 152.399,108.331 151.997,107.951C151.618,107.572 151.239,107.192 150.837,106.835C144.566,101.055 136.687,96.971 128.273,95.208C119.86,93.445 110.955,93.936 102.764,96.703C98.68,98.109 94.73,100.028 91.159,102.483C89.351,103.689 87.655,105.05 86.026,106.478C85.244,107.215 84.419,107.951 83.682,108.71C82.946,109.469 82.165,110.228 81.473,111.053C75.759,117.459 71.407,125.114 68.863,133.371C66.341,141.629 65.582,150.422 66.676,159.037C67.77,167.629 70.76,176.021 75.38,183.43C77.679,187.135 80.402,190.594 83.437,193.719C86.45,196.799 89.708,199.633 93.19,202.177L94.507,203.115L95.176,203.583C95.399,203.74 95.622,203.874 95.845,204.03C96.761,204.61 97.653,205.213 98.568,205.771L101.38,207.377C102.318,207.891 103.3,208.359 104.259,208.873C108.143,210.77 112.182,212.354 116.356,213.582C124.658,216.059 133.429,217.019 142.111,216.55C146.463,216.305 150.792,215.702 155.033,214.742C159.273,213.76 163.446,212.399 167.486,210.703C171.526,209.007 175.409,206.976 179.114,204.61C182.796,202.222 186.278,199.544 189.514,196.576L190.719,195.46L191.321,194.902L191.879,194.322L194.134,192L194.692,191.42L195.227,190.818L196.298,189.612L197.37,188.385L197.905,187.782L198.419,187.157L200.427,184.613C200.583,184.39 200.762,184.189 200.918,183.966L201.387,183.296L202.324,181.98C203.619,180.239 204.757,178.387 205.94,176.579L206.163,176.244L206.364,175.887L206.765,175.173L207.569,173.767L208.372,172.361C208.64,171.892 208.863,171.401 209.131,170.91L210.604,168.009L211.943,165.04C212.166,164.549 212.39,164.058 212.59,163.545L213.193,162.028L213.796,160.51C213.996,159.997 214.197,159.506 214.376,158.992L215.425,155.912L215.693,155.131L215.916,154.35L216.362,152.788C216.987,150.712 217.433,148.57 217.947,146.45C218.17,145.378 218.348,144.307 218.549,143.236L218.839,141.629L219.063,140C219.71,135.692 219.955,131.318 220,126.966L219.933,123.864V123.864Z" fill="#000" stroke="" stroke-width="" stroke-miterlimit=""/>
	</svg>
