<?xml version="1.0" encoding="utf-8"?>
	<svg version="1.1" xmlns="http://www.w3.org/2000/svg" xmlns:xlink="http://www.w3.org/1999/xlink" x="0px" y="0px" width="240.0" height="240.0" xml:space="preserve">
		<path d="M76.25,24L20,215.147L23.287,215.147C23.287,215.147 36.146,166.68 54.997,152.033C69.706,140.597 79.644,142.523 89.093,147.247C101.66,153.531 114.045,173.239 120.099,184.416C120.099,184.416 133.86,157.721 147.024,149.036C160.188,140.352 172.358,144.144 174.744,145.153C177.129,146.162 191.592,154.433 201.164,175.166C210.735,195.913 216.514,215.147 216.514,215.147L220,215.147L162.665,24L119.687,170.87L76.25,24Z" fill="#000" stroke="#00000000" stroke-width="1.0" stroke-miterlimit=""/>
	</svg>
