<?xml version="1.0" encoding="utf-8"?>
	<svg version="1.1" xmlns="http://www.w3.org/2000/svg" xmlns:xlink="http://www.w3.org/1999/xlink" x="0px" y="0px" width="240.0" height="240.0" xml:space="preserve">
		<path d="M200.842,31.168L200.842,31L137.432,31L137.516,31.126L134.021,52.053L123.495,52.053L121.389,64.632L106.2,31L42.832,31L30.526,104.684L20,167.842L62.105,209.947L114.737,209.947L119.579,178.368L125.263,178.368L156.842,209.947L209.474,209.947L220,73.105L200.842,31.168ZM188.421,41.526L183.158,73.105L163.874,73.105L167.368,52.053L144.716,52.053L146.484,41.526L188.421,41.526ZM154.947,62.579L153.179,73.105L130.695,73.105L132.421,62.579L154.947,62.579ZM93.684,41.526L91.916,52.053L49.979,52.053L51.747,41.526L93.684,41.526ZM48.211,62.579L100.674,62.579L97.179,83.632L181.389,83.632L169.137,157.316L127.158,157.316L135.958,104.684L125.263,104.684L121.768,125.737L90.189,125.737L93.684,104.684L83.158,104.684L81.389,115.211L60.337,115.211L62.105,104.684L41.221,104.684L48.211,62.579ZM39.453,115.211L49.726,115.211L44.505,146.789L76.126,146.789L74.358,157.316L32.421,157.316L39.453,115.211ZM77.895,136.263L56.926,136.263L58.653,125.737L79.663,125.737L77.895,136.263Z" fill="#000" stroke="#00000000" stroke-width="1.0" stroke-miterlimit=""/>
	</svg>
