<?xml version="1.0" encoding="utf-8"?>
	<svg version="1.1" xmlns="http://www.w3.org/2000/svg" xmlns:xlink="http://www.w3.org/1999/xlink" x="0px" y="0px" width="240.0" height="240.0" xml:space="preserve">
		<path d="M203.561,92.1C204.899,98.349 204.751,105.938 203.117,114.866C196.643,147.901 175.626,164.418 140.067,164.418H135.155C133.297,164.418 131.66,165.032 130.243,166.261C128.827,167.49 127.933,169.071 127.562,171.005L127.118,173.123L120.981,211.738L120.756,213.413C120.386,215.346 119.473,216.927 118.019,218.156C116.565,219.385 114.909,220 113.051,220H85.041C83.479,220 82.252,219.442 81.36,218.325C80.469,217.209 80.133,215.869 80.354,214.307C81.025,210.141 82.01,203.891 83.31,195.559C84.61,187.226 85.595,180.977 86.266,176.81C86.937,172.644 87.941,166.413 89.278,158.118C90.616,149.823 91.62,143.593 92.29,139.426C92.661,136.672 94.261,135.295 97.09,135.295H111.707C121.602,135.445 130.381,134.664 138.042,132.952C151.062,130.052 161.738,124.696 170.071,116.885C177.657,109.819 183.423,100.667 187.369,89.431C189.156,84.223 190.458,79.276 191.275,74.589C191.35,74.143 191.444,73.864 191.556,73.751C191.669,73.639 191.8,73.601 191.95,73.639C192.1,73.676 192.323,73.808 192.618,74.032C198.497,78.424 202.143,84.45 203.555,92.112L203.561,92.1ZM184.369,60.627C184.369,68.589 182.659,77.368 179.238,86.963C173.285,104.298 162.05,116.016 145.535,122.115C137.128,125.09 127.754,126.653 117.413,126.802C117.413,126.877 114.065,126.915 107.37,126.915L97.327,126.802C89.886,126.802 85.497,130.373 84.16,137.514C84.01,138.11 80.848,157.825 74.673,196.658C74.598,197.404 74.152,197.777 73.336,197.777H40.414C38.777,197.777 37.418,197.163 36.339,195.934C35.26,194.704 34.833,193.271 35.058,191.634L60.95,27.474C61.32,25.316 62.343,23.531 64.018,22.119C65.693,20.706 67.609,20 69.768,20H136.505C139.034,20 142.661,20.483 147.385,21.45C152.11,22.416 156.257,23.606 159.828,25.018C167.79,28.068 173.872,32.643 178.076,38.742C182.28,44.841 184.382,52.132 184.382,60.615L184.369,60.627Z" fill="#000" stroke="" stroke-width="" stroke-miterlimit=""/>
	</svg>
