<?xml version="1.0" encoding="utf-8"?>
	<svg version="1.1" xmlns="http://www.w3.org/2000/svg" xmlns:xlink="http://www.w3.org/1999/xlink" x="0px" y="0px" width="240.0" height="240.0" xml:space="preserve">
		<path d="M48.588,20L52.656,20C55.196,20.91 57.866,21.402 60.275,22.74C104.994,47.582 149.683,72.477 194.502,97.136C201.637,101.061 206.854,105.969 208.395,114.176L208.395,118.826C206.946,126.821 201.87,131.728 195.092,135.752C174.612,147.913 154.346,160.433 133.98,172.785C109.887,187.396 85.775,201.972 61.678,216.577C57.68,219 53.426,220.481 48.707,219.857C37.955,218.434 31.003,210.496 31,199.612C30.995,174.622 31.058,149.633 31.073,124.643C31.091,96.36 31.091,68.077 31.089,39.793C31.088,34.26 33.19,29.702 37.063,25.77C40.291,22.493 44.38,21.186 48.588,20" fill="#000" stroke="#00000000" stroke-width="1.0" stroke-miterlimit=""/>
	</svg>
