<?xml version="1.0" encoding="utf-8"?>
	<svg version="1.1" xmlns="http://www.w3.org/2000/svg" xmlns:xlink="http://www.w3.org/1999/xlink" x="0px" y="0px" width="240.0" height="240.0" xml:space="preserve">
		<path d="M120.826,104.223C151.047,105.426 174.529,123.91 181.696,152.136C190.684,187.528 165.89,224.493 129.877,229.393C94.784,234.168 63.215,210.253 58.401,175.245C58.369,175.015 58.359,174.783 58.334,174.552C58.051,172.03 58.976,169.052 57.427,167.082C55.765,164.969 52.617,166.835 50,165.841C50.689,164.042 52.28,163.024 53.522,161.784C60.008,155.312 66.597,148.942 73.037,142.424C74.671,140.77 75.551,140.736 77.025,142.637C83.185,150.58 89.501,158.403 96.308,166.959C93.863,166.959 92.192,167.077 90.546,166.93C88.235,166.725 87.446,167.643 87.591,169.928C88.592,185.728 101.316,198.855 117.017,200.199C132.808,201.549 147.216,191.292 151.018,175.827C155.63,157.073 143.08,138.083 123.449,136.09C122.534,135.997 121.638,135.725 120.733,135.537C120.764,125.099 120.796,114.66 120.826,104.223" fill="#000" stroke="#00000000" stroke-width="1.0" stroke-miterlimit=""/>
		<path d="M120.826,104.223C120.796,114.66 120.764,125.099 120.733,135.537C91.352,136.69 63.393,113.177 58.823,83.021C53.512,47.981 76.43,17.218 109.214,11.172C130.818,7.189 149.919,13.417 165.457,28.942C175.637,39.115 181.703,51.635 182.876,66.207C183.111,69.12 184.097,70.75 187.362,70.228C188.28,70.081 189.714,69.639 190.171,70.819C190.565,71.833 189.487,72.677 188.804,73.437C182.538,80.409 176.265,87.375 169.982,94.33C168.952,95.471 167.92,96.729 166.295,95.032C158.62,87.026 150.931,79.032 142.936,70.711C145.53,69.831 147.713,70.244 149.835,70.203C151.61,70.168 152.208,69.79 151.846,67.742C149.606,55.021 142.647,45.95 130.509,41.739C118.409,37.541 106.904,39.862 97.616,48.751C84.907,60.916 83.975,80.433 96.121,93.772C102.748,101.049 110.95,104.618 120.826,104.223" fill="#000" stroke="#00000000" stroke-width="1.0" stroke-miterlimit=""/>
	</svg>
