<?xml version="1.0" encoding="utf-8"?>
	<svg version="1.1" xmlns="http://www.w3.org/2000/svg" xmlns:xlink="http://www.w3.org/1999/xlink" x="0px" y="0px" width="240.0" height="240.0" xml:space="preserve">
		<path d="M178.524,166.738C185.626,168.094 192.155,170.966 198.556,174.189C199.88,174.855 201.181,175.565 202.744,176.387C184.663,201.482 160.606,216.434 129.864,219.483C86.295,223.804 53.375,200.325 37.365,176.12C41.836,174.059 46.118,171.854 50.577,170.101C54.157,168.694 57.944,167.806 61.662,166.769C62.101,166.647 62.838,166.883 63.175,167.216C74.794,178.707 88.837,185.392 104.807,188.216C119.741,190.857 134.408,189.722 148.726,184.703C159.318,180.99 168.74,175.334 176.678,167.327C177.215,166.786 177.709,166.582 178.524,166.738ZM54.861,156.702C55.358,157.823 56.194,158.794 56.962,159.958C48.676,162.334 40.929,165.771 33.316,170.048C31.671,166.803 30.109,163.722 28.468,160.485C29.496,160.163 30.293,159.892 31.102,159.663C37.946,157.723 44.883,156.239 51.945,155.343C53.241,155.179 54.234,155.285 54.861,156.702ZM187.089,155.323C190.3,155.753 193.539,156.086 196.702,156.76C201.359,157.752 205.962,159 210.586,160.147C210.838,160.209 211.074,160.337 211.543,160.526C209.942,163.689 208.381,166.771 206.731,170.031C199.182,165.829 191.447,162.355 183.102,159.976C184.078,158.446 184.92,157.037 185.872,155.707C186.074,155.424 186.696,155.27 187.089,155.323ZM113.315,119.864C115.3,130.787 109.475,142.237 99.176,146.299C93.27,148.628 94.31,155.114 97.601,157.957C103.941,163.432 113.866,161.132 117.108,153.394C117.24,153.078 117.317,152.739 117.415,152.425C116.566,151.957 115.746,151.586 115.013,151.087C112.509,149.384 112.299,146.579 114.48,144.51C117.166,141.961 122.975,142.005 125.637,144.594C127.654,146.557 127.503,149.283 125.22,150.961C124.446,151.53 123.543,151.923 122.613,152.445C123.635,155.697 125.714,158.055 128.732,159.616C133.419,162.041 139.238,161.195 142.924,157.435C144.881,155.438 145.626,152.957 144.931,150.199C144.502,148.497 143.301,147.451 141.674,146.765C134.688,143.82 129.913,138.778 127.533,131.549C124.047,120.96 128.479,109.079 138.035,103.316C152,94.896 169.88,101.945 174.289,117.607C178.237,131.636 168.853,146.103 154.417,148.223C153.453,148.364 152.475,148.439 151.501,148.48C150.837,148.509 150.547,148.726 150.497,149.443C149.853,158.69 142.53,165.31 133.317,164.814C128.229,164.54 124.144,162.19 121.114,158.068C120.773,157.604 120.466,157.116 120.093,156.565C119.08,157.808 118.291,158.987 117.299,159.959C112.545,164.62 106.878,166.085 100.587,163.983C94.183,161.843 90.597,157.125 89.574,150.476C89.268,148.486 89.315,148.574 87.239,148.407C80.74,147.886 75.296,145.137 70.992,140.266C66.777,135.497 64.642,129.862 64.907,123.489C65.291,114.241 69.542,107.155 77.654,102.709C92.293,94.687 110.33,103.439 113.315,119.864ZM192.364,142.476C197.21,142.62 202.06,142.706 206.898,142.997C210.012,143.184 213.109,143.681 216.212,144.044C216.436,144.07 216.654,144.141 217.077,144.238C216.449,146.417 215.843,148.54 215.224,150.658C215.072,151.182 214.875,151.692 214.7,152.209C214.174,153.762 214.181,153.743 212.685,153.3C205.337,151.122 197.852,149.569 190.277,148.437C190.09,148.41 189.906,148.364 189.675,148.317C190.289,146.459 190.865,144.644 191.514,142.856C191.589,142.647 192.075,142.467 192.364,142.476ZM47.614,142.469C47.938,142.471 48.449,142.758 48.553,143.034C49.201,144.744 49.758,146.488 50.39,148.353C42.796,149.447 35.388,150.993 28.093,153.066C25.828,153.71 25.798,153.707 25.079,151.394C24.42,149.27 23.841,147.122 23.194,144.995C22.987,144.317 23.199,144.109 23.872,144.012C31.747,142.881 39.665,142.42 47.614,142.469ZM89.477,109.721C87.049,109.717 85.225,111.551 85.22,114.061C85.206,120.785 85.205,127.51 85.216,134.234C85.22,136.685 87.022,138.478 89.416,138.471C91.834,138.465 93.523,136.707 93.528,134.175C93.534,130.852 93.529,127.529 93.531,124.206C93.531,120.844 93.535,117.482 93.53,114.12C93.526,111.606 91.788,109.726 89.477,109.721ZM150.632,109.734C148.275,109.732 146.513,111.571 146.508,114.056C146.502,117.379 146.507,120.702 146.507,124.025L146.498,124.025C146.498,127.426 146.495,130.828 146.499,134.229C146.502,136.67 148.198,138.432 150.556,138.453C153.002,138.475 154.813,136.744 154.819,134.307C154.835,127.543 154.834,120.78 154.819,114.016C154.814,111.582 152.978,109.736 150.632,109.734ZM170.969,34.018C210.807,57.85 225.085,101.275 218.432,137.308C210.061,135.961 201.698,135.368 193.17,135.579C193.246,134.576 193.301,133.697 193.379,132.82C194.426,121.117 191.649,110.335 185.622,100.316C185.221,99.649 184.964,98.802 184.926,98.024C184.381,86.907 182.891,75.933 180.02,65.167C179.497,63.207 178.859,61.277 178.248,59.342C177.549,57.128 176.672,56.674 174.466,57.342C167.2,59.543 160.429,62.833 153.951,66.749C151.877,68.002 149.887,69.395 147.818,70.656C147.422,70.897 146.777,71.004 146.344,70.866C136.127,67.616 125.652,66.417 114.977,66.982C107.85,67.36 100.858,68.609 94.053,70.798C93.242,71.059 92.642,70.994 91.912,70.497C83.959,65.081 75.569,60.519 66.358,57.589C65.949,57.459 65.533,57.348 65.116,57.242C63.366,56.798 62.547,57.213 61.954,58.902C59.941,64.628 58.544,70.51 57.508,76.483C56.25,83.732 55.386,91.024 55.092,98.381C55.068,98.972 54.852,99.617 54.541,100.124C50.353,106.955 47.67,114.318 46.752,122.284C46.272,126.453 46.267,130.637 46.851,134.807C46.877,134.998 46.872,135.194 46.891,135.569C38.42,135.421 30.022,135.901 21.561,137.341C19.278,124.591 19.506,111.933 22.198,99.352C26.778,77.945 37.263,59.873 53.605,45.33C87.184,15.447 134.891,12.436 170.969,34.018Z" fill="#000" stroke="#00000000" stroke-width="1.0" stroke-miterlimit=""/>
	</svg>
