<?xml version="1.0" encoding="utf-8"?>
	<svg version="1.1" xmlns="http://www.w3.org/2000/svg" xmlns:xlink="http://www.w3.org/1999/xlink" x="0px" y="0px" width="240.0" height="240.0" xml:space="preserve">
		<path d="M127.047,49.826C129.549,45.736 131.975,41.598 134.576,37.571C137.778,32.613 141.127,31.737 146.303,34.707C169.136,47.804 191.945,60.949 214.716,74.157C220.536,77.534 221.401,80.71 218.035,86.548C199.324,118.984 180.527,151.373 161.779,183.789C158.379,189.666 155.004,195.561 151.742,201.515C149.241,206.081 145.77,207.206 141.26,204.721C132.62,199.961 124.024,195.12 115.442,190.261C114.485,189.719 113.793,188.532 112.52,189.598C112.164,188.157 111.1,187.387 109.908,186.694C97.221,179.312 84.772,171.512 71.566,165.048C66.696,162.665 64.951,158.149 67.452,153.781C80.464,131.063 93.56,108.394 106.594,85.69C113.446,73.754 120.232,61.781 127.047,49.826" fill="#000" stroke="#00000000" stroke-width="1.0" stroke-miterlimit=""/>
		<path d="M127.047,49.826C120.232,61.781 113.446,73.754 106.594,85.69C93.56,108.394 80.464,131.063 67.452,153.781C64.951,158.149 66.696,162.665 71.566,165.048C84.772,171.512 97.221,179.312 109.908,186.694C111.1,187.387 112.164,188.157 112.52,189.598C110.927,194.394 107.231,197.889 104.611,202.029C102.168,205.89 97.743,206.499 93.603,204.203C85.471,199.695 77.445,194.994 69.398,190.336C55.629,182.361 41.9,174.319 28.093,166.409C26.22,165.338 24.749,163.914 23.117,162.6C19.489,159.677 19.054,157.05 21.675,152.83C27.856,142.877 33.318,132.483 39.175,122.327C50.942,101.92 62.775,81.548 74.591,61.169C78.929,53.687 83.256,46.198 87.662,38.756C91.419,32.408 94.594,31.594 100.913,35.149C109.621,40.049 118.335,44.935 127.047,49.826" fill="#000" stroke="#00000000" stroke-width="1.0" stroke-miterlimit=""/>
	</svg>
