<?xml version="1.0" encoding="utf-8"?>
	<svg version="1.1" xmlns="http://www.w3.org/2000/svg" xmlns:xlink="http://www.w3.org/1999/xlink" x="0px" y="0px" width="240.0" height="240.0" xml:space="preserve">
		<path d="M195.305,150.396C196.565,161.38 195.504,172.394 195.863,180.553C195.863,180.92 195.863,181.284 195.863,181.645L195.864,183.784C195.867,189.06 195.877,193.804 195.879,198.281L195.879,200.058C195.878,202.999 195.873,205.837 195.858,208.651L195.849,210.338L195.843,211.18C195.809,215.758 193.482,218.883 189.748,219.758C184.437,221.002 179.91,217.332 179.801,211.447C179.665,204.038 179.744,196.626 179.737,189.214C179.725,179.296 179.771,169.377 179.701,159.46C179.385,114.554 131.557,85.8 91.771,106.578C86.866,109.14 85.524,108.777 82.425,104.05C77.46,96.479 77.84,95.069 85.933,91.052C132.759,67.81 189.36,98.532 195.305,150.396ZM51.187,142.452L51.466,142.753C51.883,143.206 52.301,143.655 52.757,144.006C58.067,148.09 59.866,152.998 59.522,160.039C58.726,176.347 59.252,192.72 59.221,209.068C59.219,210.589 59.235,212.138 58.968,213.626C58.347,217.102 55.445,219.624 51.958,219.928C48.413,220.237 45.231,218.304 43.872,215.041C43.183,213.39 43.099,211.659 43.1,209.907C43.1,209.326 43.1,208.745 43.1,208.163L43.101,205.537C43.101,205.244 43.101,204.951 43.101,204.657L43.101,184.571L43.101,184.033L43.101,184.033L43.101,181.287C43.489,171.572 42.145,159.335 44.246,147.209C44.265,147.101 44.274,146.992 44.297,146.886C44.808,144.58 44.735,141.699 47.437,140.869C49.094,140.361 50.163,141.353 51.187,142.452ZM51.184,20.007L51.453,20.011C56.156,20.126 59.206,23.185 59.276,28.249C59.389,36.639 59.223,45.032 59.338,53.421C59.485,64.201 58.8,74.991 59.777,85.762C63.629,128.238 109.2,153.156 147.286,133.599C152.296,131.026 153.761,131.441 156.827,136.3C161.444,143.618 161.047,145.043 153.321,148.878C105.811,172.465 48.888,141.006 43.568,88.259C42.492,77.596 43.397,66.915 43.022,58.183C43.022,52.434 43.005,47.204 43.001,42.225L43,39.056C43.002,35.568 43.014,32.178 43.047,28.788C43.098,23.517 46.259,20.141 50.919,20.011L51.184,20.007ZM195.926,28.442C196.017,39.975 196.048,51.511 195.923,63.043C195.822,72.28 196.59,81.548 195.203,90.747C194.88,92.89 194.513,95.069 193.794,97.098C192.885,99.66 190.939,100.286 188.959,98.544C186.028,95.963 183.326,93.111 180.643,90.264C179.571,89.127 179.391,87.556 179.395,85.977C179.413,79.596 179.413,73.214 179.411,66.833L179.409,57.26L179.678,57.26C179.678,47.685 179.609,38.108 179.706,28.534C179.756,23.633 182.686,20.387 186.995,20.037C192.267,19.61 195.883,22.878 195.926,28.442Z" fill="#000" stroke="#00000000" stroke-width="1.0" stroke-miterlimit=""/>
	</svg>
