<?xml version="1.0" encoding="utf-8"?>
	<svg version="1.1" xmlns="http://www.w3.org/2000/svg" xmlns:xlink="http://www.w3.org/1999/xlink" x="0px" y="0px" width="240.0" height="240.0" xml:space="preserve">
		<path d="M47.57,31.303V209.83C49.344,214.833 52.709,218.244 57.729,219.994H181.888C189.378,217.184 192.307,211.785 192.273,203.802C192.097,160.805 192.165,117.807 192.245,74.81C192.245,74.533 192.238,74.263 192.224,74H140V21H140.203C139.827,20.959 139.436,20.94 139.026,20.941C137.035,20.947 135.043,20.953 133.052,20.96C109.95,21.035 86.848,21.11 63.746,20.907C55.791,20.833 50.363,23.774 47.57,31.303ZM130.024,163.355C126.594,163.355 123.164,163.354 119.735,163.354C115.188,163.354 110.643,163.355 106.098,163.355C97.009,163.357 87.921,163.358 78.834,163.354C74.885,163.349 74.805,163.281 74.805,159.456C74.794,140.255 74.794,121.054 74.805,101.853C74.811,98.278 74.958,98.113 78.42,98.113C105.973,98.108 133.519,98.108 161.066,98.113C164.641,98.113 164.805,98.266 164.805,101.722C164.817,121.014 164.817,140.312 164.805,159.603C164.805,163.235 164.686,163.349 160.913,163.349C150.619,163.357 140.322,163.356 130.024,163.355Z" fill="#000" stroke="" stroke-width="" stroke-miterlimit=""/>
		<path d="M143,71H193L143,21V71Z" fill="#000" stroke="" stroke-width="" stroke-miterlimit=""/>
		<path d="M86,109h68v43h-68z" fill="#000" stroke="" stroke-width="" stroke-miterlimit=""/>
	</svg>
