<?xml version="1.0" encoding="utf-8"?>
	<svg version="1.1" xmlns="http://www.w3.org/2000/svg" xmlns:xlink="http://www.w3.org/1999/xlink" x="0px" y="0px" width="240.0" height="240.0" xml:space="preserve">
		<path d="M119.71,20C120.424,20 121.132,20 121.846,20C122.954,20.672 124.011,21.465 125.183,21.993C148.895,32.538 172.607,43.091 196.376,53.507C199.499,54.872 200.949,56.586 200.92,60.137C200.777,77.691 201.106,95.245 200.749,112.791C200.535,123.186 199.27,133.596 196.605,143.655C192.39,159.566 184.66,173.79 174.072,186.414C161.033,201.953 145.001,213.084 125.583,219.171C121.839,220.343 118.203,220.271 114.445,218.985C105.085,215.785 96.205,211.705 88.082,205.983C74.193,196.195 62.998,183.964 54.925,169.025C48.666,157.444 43.236,145.613 42.251,132.038C41.822,126.087 40.229,120.093 40.143,114.084C39.886,95.945 40.086,77.791 40,59.651C39.986,56.715 41.172,55.15 43.801,54.007C53.91,49.628 63.962,45.105 74.015,40.59C89.254,33.746 104.478,26.866 119.71,20ZM87.146,122.879C87.153,122.879 87.167,122.879 87.174,122.879C87.174,134.389 87.139,145.891 87.189,157.401C87.217,164.345 89.411,166.489 96.405,166.496C111.815,166.517 127.226,166.496 142.636,166.496C152.196,166.496 153.646,165.024 153.646,155.286C153.646,135.003 153.632,114.713 153.617,94.43C153.617,92.058 153.724,89.679 153.582,87.314C153.31,82.842 151.038,80.649 146.594,80.484C143.987,80.384 141.379,80.363 138.771,80.456C135.814,80.563 134.349,79.42 134.528,76.291C134.67,73.812 134.456,71.304 134.563,68.818C134.692,65.91 133.399,64.767 130.541,64.802C124.261,64.881 117.974,64.788 111.694,64.802C106.529,64.817 106.286,65.081 106.25,70.239C106.193,79.777 106.193,79.777 96.605,79.991C89.375,80.149 87.167,82.413 87.153,89.786C87.124,100.81 87.146,111.841 87.146,122.879Z" fill="#000" stroke="" stroke-width="" stroke-miterlimit=""/>
		<path d="M114.551,149.306C114.551,143.255 114.565,137.589 114.544,131.931C114.529,127.209 114.344,127.137 109.828,126.944C107.678,126.851 104.577,128.137 103.606,126.03C102.684,124.044 105.463,122.243 106.728,120.464C112.165,112.848 117.702,105.304 123.246,97.759C123.839,96.952 124.296,95.488 125.503,95.859C126.732,96.238 126.232,97.702 126.246,98.695C126.303,103.554 126.389,108.412 126.246,113.27C126.153,116.306 127.296,117.557 130.383,117.507C132.676,117.471 136.048,116.349 137.049,118.278C138.199,120.514 135.141,122.472 133.769,124.408C128.582,131.767 123.238,139.011 117.923,146.284C117.187,147.299 116.694,148.599 114.551,149.306Z" fill="#000" stroke="" stroke-width="" stroke-miterlimit=""/>
	</svg>
