<?xml version="1.0" encoding="utf-8"?>
	<svg version="1.1" xmlns="http://www.w3.org/2000/svg" xmlns:xlink="http://www.w3.org/1999/xlink" x="0px" y="0px" width="240.0" height="240.0" xml:space="preserve">
		<path d="M155.815,20H60.8C58.214,19.989 55.728,21.004 53.891,22.824C52.053,24.645 51.013,27.12 51,29.706V210.288C51,215.66 55.384,220 60.8,220H179.974C185.39,220 189.768,215.666 189.768,210.288V69.969L155.815,20ZM145.015,90.532H151.944C153.79,90.531 155.617,90.894 157.322,91.6C159.027,92.306 160.576,93.341 161.881,94.646C163.185,95.951 164.22,97.501 164.925,99.206C165.63,100.911 165.992,102.739 165.991,104.584V113.19H145.015V90.532ZM140.174,92.151V116.423C140.174,120.901 136.547,124.515 132.088,124.515H107.829C106.767,124.515 105.715,124.306 104.734,123.899C103.753,123.492 102.862,122.896 102.111,122.144C101.361,121.393 100.766,120.501 100.361,119.519C99.955,118.537 99.748,117.485 99.749,116.423V92.151H99.743C99.743,91.582 99.793,91.045 99.906,90.525H140.012C140.112,91.045 140.174,91.589 140.174,92.151ZM132.907,128.562V149.619H109.399V128.562H132.907ZM95.822,36.673H100.287L105.603,52.577C106.097,54.046 106.447,55.166 106.679,55.897C106.935,55.084 107.335,53.877 107.873,52.289L113.251,36.673H117.254V59.131H114.377V40.338L107.854,59.131H105.171L98.68,40.013V59.131H95.822V36.673ZM96.503,90.532V113.971H77.135V104.584C77.135,102.738 77.499,100.91 78.205,99.205C78.912,97.5 79.948,95.95 81.253,94.645C82.559,93.34 84.109,92.305 85.814,91.6C87.52,90.894 89.348,90.531 91.194,90.532H96.503ZM87.698,36.673H90.669V59.131H87.698V36.673ZM69.724,58.618C68.403,58.074 67.278,57.143 66.497,55.947C65.707,54.749 65.279,53.349 65.265,51.914L68.067,51.67C68.192,52.789 68.505,53.709 68.993,54.44C69.562,55.225 70.346,55.829 71.25,56.179C72.276,56.629 73.42,56.848 74.696,56.848C75.828,56.848 76.829,56.679 77.698,56.348C78.464,56.081 79.137,55.599 79.637,54.959C80.048,54.403 80.271,53.731 80.274,53.04C80.285,52.373 80.069,51.722 79.662,51.195C79.119,50.576 78.419,50.115 77.635,49.862C76.323,49.426 74.989,49.059 73.639,48.762C71.575,48.274 70.131,47.811 69.305,47.361C68.334,46.889 67.506,46.168 66.904,45.272C66.381,44.437 66.11,43.468 66.122,42.483C66.122,41.351 66.441,40.288 67.085,39.3C67.773,38.28 68.758,37.496 69.906,37.055C71.144,36.548 72.513,36.285 74.027,36.285C75.697,36.285 77.154,36.548 78.436,37.092C79.693,37.636 80.681,38.424 81.356,39.468C82.038,40.507 82.407,41.682 82.457,43.008L79.618,43.221C79.455,41.795 78.942,40.725 78.061,40C77.173,39.268 75.872,38.906 74.146,38.906C72.345,38.906 71.037,39.237 70.225,39.9C69.842,40.17 69.53,40.526 69.314,40.941C69.097,41.355 68.983,41.815 68.98,42.283C68.971,42.658 69.045,43.031 69.197,43.375C69.348,43.718 69.573,44.024 69.855,44.271C70.431,44.791 71.919,45.328 74.34,45.873C76.754,46.423 78.405,46.898 79.305,47.305C80.612,47.905 81.575,48.668 82.201,49.6C82.826,50.525 83.133,51.582 83.133,52.796C83.133,53.99 82.789,55.11 82.101,56.173C81.425,57.223 80.431,58.049 79.155,58.637C77.795,59.236 76.32,59.535 74.834,59.512C72.807,59.512 71.1,59.212 69.724,58.618V58.618ZM96.497,187.624H91.188C89.342,187.626 87.515,187.265 85.809,186.56C84.103,185.856 82.553,184.822 81.248,183.518C79.942,182.214 78.906,180.665 78.199,178.961C77.493,177.256 77.129,175.429 77.129,173.584V163.365H96.497V187.624ZM96.497,159.312V160.131H77.129V117.211H96.497V118.856C96.497,121.422 97.515,123.884 99.327,125.701C101.14,127.518 103.599,128.543 106.166,128.549V149.612C103.6,149.624 101.142,150.651 99.331,152.468C97.519,154.285 96.5,156.746 96.497,159.312V159.312ZM140.168,186.035C140.168,186.579 140.099,187.117 140.006,187.63H99.899C99.79,187.105 99.738,186.571 99.743,186.035V161.751C99.743,157.28 103.364,153.646 107.823,153.646H132.088C136.547,153.646 140.174,157.28 140.174,161.751V186.035H140.168ZM135.672,149.637H136.084V128.487C138.512,128.299 140.779,127.204 142.434,125.419C144.09,123.634 145.011,121.29 145.015,118.856V116.435H165.997V160.951H145.015V159.312C145.012,156.804 144.037,154.395 142.294,152.591C140.552,150.787 138.178,149.728 135.672,149.637V149.637ZM166.009,173.584C166.006,177.308 164.524,180.879 161.889,183.512C159.254,186.145 155.682,187.624 151.957,187.624H145.034V164.184H166.009V173.584V173.584Z" fill="#000" stroke="" stroke-width="" stroke-miterlimit=""/>
	</svg>
