<?xml version="1.0" encoding="utf-8"?>
	<svg version="1.1" xmlns="http://www.w3.org/2000/svg" xmlns:xlink="http://www.w3.org/1999/xlink" x="0px" y="0px" width="240.0" height="240.0" xml:space="preserve">
		<path d="M162.628,87.677C158.938,87.677 155.219,87.964 151.566,87.601C147.466,87.195 145.747,88.813 144.703,92.712C140.058,110.067 134.136,127.009 127.74,143.795C121.193,160.978 113.5,177.594 102.924,192.68C94.177,205.159 83.101,214.8 67.893,218.788C56.567,221.759 46.605,219.299 38.351,211.067C32.032,204.765 30.767,196.904 33.069,188.502C35.08,181.16 39.367,175.812 47.139,173.857C52.794,172.434 60.196,175.489 63.457,180.719C66.779,186.048 66.194,191.474 61.585,196.582C59.199,199.228 56.562,201.647 54.17,204.288C53.141,205.426 51.864,206.762 52.985,208.534C53.999,210.14 55.693,210.085 57.298,209.908C62.915,209.29 67.228,206.292 70.51,201.944C78.463,191.41 83.517,179.419 87.478,166.932C94.471,144.894 99.747,122.376 106.072,100.15C106.88,97.313 107.638,94.439 108.753,91.718C110.116,88.391 108.868,87.629 105.727,87.728C100.936,87.879 96.132,87.672 91.339,87.795C88.627,87.866 87.691,86.739 87.592,84.099C87.275,75.683 87.201,75.686 95.55,75.685C100.716,75.685 105.89,75.515 111.045,75.748C114.11,75.886 115.617,74.7 116.875,71.968C124.81,54.736 136.149,40.336 152.331,30.033C162.992,23.245 174.481,19.969 187.231,20C199.039,20.029 212.008,32.246 206.869,46.729C204.327,53.893 201.297,60.787 193.615,64.013C188.801,66.034 181.895,63.961 177.801,59.404C175.026,56.315 174.795,51.067 177.466,46.243C179.732,42.15 182.812,38.935 187.643,37.808C189.788,37.307 191.577,36.135 191.65,33.625C191.729,30.876 189.776,29.88 187.518,29.179C184.26,28.166 181.182,28.835 178.192,30.134C173.793,32.044 170.217,35.061 167.508,38.958C160.372,49.222 155.025,60.374 151.072,72.24C150.012,75.423 151.204,75.715 153.869,75.671C161.001,75.553 168.138,75.747 175.268,75.585C178.469,75.512 179.613,76.628 179.515,79.862C179.259,88.403 180.481,87.62 171.853,87.674C168.778,87.693 165.703,87.677 162.628,87.677" fill="#000" stroke="#00000000" stroke-width="1.0" stroke-miterlimit=""/>
	</svg>
