<?xml version="1.0" encoding="utf-8"?>
	<svg version="1.1" xmlns="http://www.w3.org/2000/svg" xmlns:xlink="http://www.w3.org/1999/xlink" x="0px" y="0px" width="240.0" height="240.0" xml:space="preserve">
		<path d="M166.735,20C171.74,21.512 176.648,23.252 181.206,25.871C181.199,69.856 181.344,113.84 181.117,157.825C180.986,182.56 169.987,201.363 148.077,213.015C125.136,225.218 96.839,221.182 78.25,202.999C60.445,185.585 54.732,164.28 62.218,140.514C69.54,117.271 86.129,103.219 110.018,98.901C130.622,95.175 148.579,101.514 163.566,116.164C164.219,116.803 164.851,117.463 165.511,118.096C165.669,118.247 165.896,118.316 166.742,118.769C166.735,85.606 166.735,52.799 166.735,20Z" fill="#000" stroke="" stroke-width="" stroke-miterlimit=""/>
	</svg>
