<?xml version="1.0" encoding="utf-8"?>
	<svg version="1.1" xmlns="http://www.w3.org/2000/svg" xmlns:xlink="http://www.w3.org/1999/xlink" x="0px" y="0px" width="240.0" height="240.0" xml:space="preserve">
		<path d="M120.04,216.071C98.491,216.071 76.941,216.141 55.375,216.053C32.456,215.983 20.075,203.707 20.039,181.069C19.987,149.316 19.987,117.581 20.039,85.828C20.092,65.087 32.755,51.968 53.461,51.283C61.61,51.02 69.776,51.143 77.925,51.196C83.001,51.231 84.283,49.246 81.683,44.82C80.208,42.309 78.873,39.727 77.345,37.234C74.448,32.509 73.271,27.592 78.715,24.272C84.546,20.725 87.848,25.274 90.535,29.611C93.608,34.564 96.541,39.604 99.193,44.785C101.617,49.527 105.217,51.67 110.468,51.178C110.749,51.143 111.065,51.143 111.346,51.196C127.381,53.935 139.147,49.018 144.592,32.737C144.679,32.474 144.855,32.228 145.031,31.982C148.227,27.399 150.616,20.022 158.044,24.413C165.175,28.628 160.749,34.529 158.15,39.675C157.623,40.711 157.026,41.712 156.464,42.73C151.933,50.809 152.056,51.09 161.293,51.196C169.442,51.283 177.609,51.073 185.758,51.266C206.92,51.793 219.881,64.982 219.934,86.145C220.022,118.477 220.022,150.792 219.934,183.124C219.881,203.461 207.799,215.772 187.321,216.018C164.894,216.264 142.467,216.071 120.04,216.071ZM119.671,199.843C141.782,199.843 163.91,199.931 186.021,199.808C199.351,199.738 203.935,195.172 203.97,181.947C204.075,149.931 204.075,117.915 203.97,85.916C203.917,72.534 198.789,67.406 185.442,67.388C141.782,67.3 98.139,67.3 54.479,67.37C40.148,67.388 34.985,72.622 34.95,86.865C34.897,118.301 34.897,149.72 34.95,181.157C34.967,194.539 40.078,199.773 53.303,199.826C75.431,199.914 97.56,199.843 119.671,199.843Z" fill="#000" stroke="" stroke-width="" stroke-miterlimit=""/>
		<path d="M118.705,168.477C112.892,168.477 107.079,168.477 101.265,168.477C96.734,168.477 92.361,167.932 90.254,163.156C88.269,158.642 89.885,154.568 92.713,150.985C99.913,141.87 107.237,132.843 114.49,123.746C117.388,120.11 120.285,116.475 123.043,112.734C124.202,111.171 126.116,109.555 125.133,107.378C124.096,105.094 121.603,105.762 119.671,105.744C112.979,105.692 106.306,105.85 99.615,105.779C95.733,105.744 92.467,104.409 92.713,99.843C92.923,95.751 96.172,94.803 99.597,94.785C109.766,94.698 119.934,94.698 130.12,94.698C134.827,94.698 139.85,94.487 142.115,99.756C144.434,105.13 141.202,109.134 137.971,113.05C127.96,125.133 117.985,137.233 108.115,149.439C106.604,151.301 103.285,153.004 105.024,155.902C106.376,158.133 109.291,156.622 111.539,156.587C120.549,156.412 129.541,156.201 138.55,156.201C142.695,156.201 146.295,157.571 146.084,162.594C145.909,167.037 142.519,168.301 138.761,168.372C132.087,168.494 125.396,168.407 118.705,168.407C118.705,168.407 118.705,168.442 118.705,168.477Z" fill="#000" stroke="" stroke-width="" stroke-miterlimit=""/>
	</svg>
