<?xml version="1.0" encoding="utf-8"?>
	<svg version="1.1" xmlns="http://www.w3.org/2000/svg" xmlns:xlink="http://www.w3.org/1999/xlink" x="0px" y="0px" width="240.0" height="240.0" xml:space="preserve">
		<path d="M181.216,194.737C159.537,216.895 152.737,219.713 119.68,219.748C103.656,221.405 88.281,214.742 74.084,204.407C69.982,201.408 65.861,198.437 61.74,195.466C55.012,190.616 48.285,185.765 41.642,180.797C31.255,173.024 30.162,164.926 38.738,155.616C50.311,143.058 62.129,130.735 73.948,118.41C77.098,115.125 80.249,111.84 83.395,108.55C88.076,103.63 93.799,100.879 100.7,100.333C109.738,99.615 112.01,96.557 110.472,87.725C110.096,85.487 109.43,83.266 108.576,81.182C105.193,72.948 103.143,72.589 96.942,79.234C94.96,81.352 93.04,83.532 91.119,85.713C87.957,89.303 84.795,92.893 81.362,96.199C72.7,104.518 61.408,105.39 53.413,98.846C53.219,98.687 53.007,98.523 52.787,98.353C51.151,97.085 49.127,95.518 51.568,93.499C54.277,91.247 56.818,88.753 59.36,86.258C66.151,79.596 72.949,72.925 82.968,70.812C86.299,70.112 89.716,69.633 93.098,69.565C99.06,69.463 100.752,66.9 98.582,61.433C92.927,47.185 99.983,31.93 111.976,24.379C123.148,17.34 138.951,18.946 150.294,28.052C153.233,30.409 156.496,33.057 157.111,36.594C157.543,39.059 158.018,41.523 158.493,43.99C160.575,54.788 162.665,65.625 161.177,76.723C160.459,82.156 157.64,86.341 151.285,86.615C146.792,86.802 145.101,89.809 144.008,93.704C141.12,103.955 139.617,113.111 150.551,120.679C158.324,126.061 161.194,135.047 160.92,144.836C160.657,154.105 160.694,163.374 160.732,172.643C160.738,174.188 160.745,175.733 160.75,177.278C160.75,177.632 160.733,178.001 160.717,178.376C160.631,180.299 160.539,182.381 162.612,183.411C164.607,184.402 166.096,183.171 167.514,181.998C167.881,181.694 168.243,181.395 168.608,181.139C170.1,180.084 171.546,178.959 172.99,177.835C175.15,176.153 177.306,174.474 179.61,173.041C185.845,169.163 189.074,164.328 186.888,156.709C186.29,154.625 186.29,152.062 186.87,149.961C188.733,143.23 194.063,140.274 200.401,140.496C206.086,140.71 206.588,145.571 207.058,150.137C207.077,150.318 207.096,150.499 207.115,150.678C208.259,161.509 206.055,170.683 197.087,178.063C193.369,181.122 190.15,184.789 186.929,188.459C185.058,190.59 183.187,192.722 181.216,194.737ZM87.432,185.287C89.116,186.7 90.8,188.113 92.484,189.527C93.05,189.189 93.616,188.861 94.188,188.529C94.427,188.39 94.668,188.25 94.91,188.109C93.856,184.386 92.811,180.66 91.766,176.933C89.541,168.995 87.314,161.055 85.001,153.138C83.959,149.568 81.584,148.714 78.561,151.14C74.785,154.163 71.095,157.273 67.405,160.399C64.398,162.927 64.176,165.678 67.251,168.275C73.949,173.975 80.691,179.631 87.432,185.287Z" fill="#000" stroke="" stroke-width="" stroke-miterlimit=""/>
	</svg>
