<?xml version="1.0" encoding="utf-8"?>
	<svg version="1.1" xmlns="http://www.w3.org/2000/svg" xmlns:xlink="http://www.w3.org/1999/xlink" x="0px" y="0px" width="240.0" height="240.0" xml:space="preserve">
		<path d="M130.001,152.015L130.001,152.004C128.123,152.004 126.244,152.015 124.366,152C123.301,151.992 122.502,152.266 122.543,153.54C122.678,157.869 121.967,162.251 123.019,166.518C124.477,172.428 130.132,176.085 136.107,175.182C141.977,174.294 146.162,169.016 145.859,162.884C145.569,157.049 140.895,152.377 134.93,152.03C133.293,151.934 131.644,152.015 130.001,152.015M117.466,159.09C117.466,157.802 117.321,156.493 117.495,155.229C117.871,152.512 116.712,151.773 114.139,151.95C110.99,152.165 107.804,151.848 104.655,152.062C98.783,152.462 94.266,157.362 94.103,163.245C93.955,168.556 98.127,174.383 102.603,175.116C109.407,176.229 115.232,172.805 116.931,166.771C117.646,164.231 117.373,161.656 117.466,159.09M129.992,146.735C131.98,146.622 133.985,146.644 135.951,146.374C141.812,145.568 145.632,140.974 145.606,134.918C145.583,129.317 141.636,124.588 136.336,123.811C130.161,122.907 124.944,126.125 123.248,131.862C122.536,134.269 122.654,136.735 122.654,139.194C122.654,146.668 122.657,146.668 129.992,146.735M108.744,146.816C111.327,146.816 113.319,146.82 115.312,146.814C116.438,146.811 117.49,146.678 117.437,145.166C117.285,140.846 118.013,136.479 116.961,132.212C115.659,126.935 111.014,123.407 105.647,123.444C100.432,123.48 95.786,126.997 94.417,131.947C93.005,137.049 95.412,142.38 99.91,145.273C102.945,147.225 106.132,146.719 108.744,146.816M119.183,99.682C139.078,99.413 154.626,84.798 155.593,65.425C155.805,61.161 153.535,58.337 150.105,58.271C146.763,58.206 144.519,60.718 144.272,64.802C143.462,78.186 132.477,88.452 119.135,88.294C105.814,88.137 94.886,77.678 94.257,64.485C94.066,60.506 91.973,58.183 88.655,58.265C85.254,58.35 82.926,61.067 83.047,65.01C83.162,68.76 83.755,72.491 84.963,76.016C89.643,89.672 102.647,99.605 119.183,99.682M73.093,30L166.895,30C167.46,31.13 168.544,30.653 169.392,30.737C192.433,33.033 207.81,49.203 209.311,72.381C210.223,86.459 209.921,100.538 209.876,114.616C209.819,132.566 210.476,150.526 209.237,168.466C207.867,188.316 194.461,204.208 175.692,208.172C172.538,208.839 169.218,208.478 166.19,209.814L72.388,209.814C71.837,208.69 70.747,209.091 69.9,209.026C48.508,207.401 31.416,189.563 30.592,167.094C30.062,152.655 30.088,138.231 30.118,123.802C30.155,106.32 29.552,88.831 30.761,71.359C32.134,51.534 45.557,35.593 64.305,31.638C67.224,31.022 70.316,31.351 73.093,30" fill="#000" stroke="#00000000" stroke-width="1.0" stroke-miterlimit=""/>
	</svg>
