<?xml version="1.0" encoding="utf-8"?>
	<svg version="1.1" xmlns="http://www.w3.org/2000/svg" xmlns:xlink="http://www.w3.org/1999/xlink" x="0px" y="0px" width="240.0" height="240.0" xml:space="preserve">
		<path d="M172.775,27.786C172.044,27.851 171.367,27.869 170.704,27.975C163.111,29.187 159.253,36.12 161.341,45.079C163.101,52.631 166.703,59.368 170.724,65.952C172.685,69.162 174.728,69.567 178.056,68.139C181.872,66.5 180.296,64.049 179.382,61.838C177.125,56.387 176.375,51.744 181.933,47.273C185.775,44.182 185.948,39.29 183.769,34.643C181.566,29.947 177.606,28.151 172.775,27.786M191.655,52.346C191.864,55.165 192.2,57.982 192.252,60.803C192.329,65.07 195.041,65.699 198.491,65.851C202.061,66.007 201.744,63.356 202.198,61.223C202.593,59.378 202.98,57.526 203.218,55.657C203.681,52.012 205.347,49.886 209.301,49.351C213.547,48.777 216.751,46.229 218.67,42.367C221.921,35.824 219.028,28.507 212.008,25.235C205.365,22.139 197.932,25.022 195.071,32.123C192.473,38.573 191.548,45.381 191.655,52.346M148.738,107.317C153.056,115.269 156.036,123.845 156.09,133.137C156.097,134.426 155.834,135.847 157.371,137.44C160.92,127.865 162.267,118.302 163.283,108.681C163.707,104.663 163.882,100.619 164.172,96.586C165.089,83.835 175.286,73.018 187.797,71.52C201.45,69.887 214.37,77.837 218.336,90.311C222.402,103.1 218.465,114.708 207.244,122.496C205.034,124.03 204.082,125.821 203.792,128.465C202.755,137.954 203.048,147.503 200.907,156.968C194.062,187.222 175.111,205.038 145.351,211.861C127.965,215.846 110.281,215.963 92.528,214.691C71.615,213.193 50.805,211.071 30.321,206.413C27.53,205.778 24.771,205.117 22.623,203.07C19.561,200.153 20.187,197.066 24.205,195.759C28.727,194.289 33.387,193.616 38.166,193.554C40.085,193.529 42.879,194.443 43.698,192.361C44.159,191.19 43.207,190.264 42.135,189.404L41.827,189.16C41.363,188.797 40.9,188.442 40.539,188.083C23.935,171.544 17.961,151.243 20.599,128.549C23.983,99.438 49.741,74.799 79.167,71.43C108.821,68.035 134.509,81.109 148.738,107.317ZM87.953,88.338C60.38,88.236 36.776,111.741 37.001,139.075C37.234,167.383 60.658,190.301 89.421,190.364C116.275,190.424 139.088,166.804 139.148,138.879C139.207,110.78 116.581,88.444 87.953,88.338ZM102.986,108.353C111.784,111.34 117.356,117.496 119.146,126.495C120.965,135.639 117.401,143.216 110.536,149.204C103.557,155.293 95.122,157.891 86.021,158.735C83.84,158.937 80.564,157.759 79.78,160.237C78.799,163.335 80.172,166.996 82.53,169.076C85.221,171.451 84.011,171.828 81.765,172.496C79.199,173.258 76.732,174.449 72.963,174.43C75.489,171.158 74.194,168.405 73.298,165.598C69.771,154.554 66.3,143.49 62.757,132.451C62.67,132.18 62.603,131.878 62.535,131.569L62.464,131.259C62.234,130.279 61.908,129.324 60.788,129.229C59.213,129.095 58.882,130.915 58.286,132.057C57.229,134.083 56.112,136.12 56.521,138.566C56.646,139.313 57.07,140.335 55.95,140.581C55.436,140.694 54.701,140.218 54.185,139.845C51.621,137.999 50.301,136.054 52.438,132.772C60.038,121.097 69.664,112.029 83.421,108.175C89.916,106.356 96.508,106.155 102.986,108.353ZM97.834,112.621C87.359,108.504 78.365,112.168 70.118,118.816C67.69,120.773 67.012,122.793 68.032,125.831C70.771,133.991 73.374,142.204 75.756,150.474C76.886,154.396 78.983,156.224 81.304,155.76C89.609,155.052 95.939,153.761 101.518,150.173C108.163,145.901 111.692,139.628 111.102,131.795C110.442,123.049 106.355,115.971 97.834,112.621Z" fill="#000" stroke="#00000000" stroke-width="1.0" stroke-miterlimit=""/>
	</svg>
