<?xml version="1.0" encoding="utf-8"?>
	<svg version="1.1" xmlns="http://www.w3.org/2000/svg" xmlns:xlink="http://www.w3.org/1999/xlink" x="0px" y="0px" width="240.0" height="240.0" xml:space="preserve">
		<path d="M76.702,155.282L76.702,83.899C69.681,78.926 60.904,76 51.543,76L10,76L10,163.181L51.835,163.181C61.197,163.181 69.681,160.255 76.702,155.282C76.995,155.282 76.995,155.282 76.702,155.282Z" fill="#000" stroke="#00000000" stroke-width="1.0" stroke-miterlimit=""/>
		<path d="M162.128,76L162.127,84.115L162.006,84.205C151.417,92.121 144.574,104.561 144.574,118.713L144.574,120.468C144.574,134.674 151.469,147.155 162.127,154.782L162.128,163.181L76.702,163.181L76.702,154.989C87.819,147.09 95.133,134.218 95.133,119.59C95.133,104.963 87.819,92.09 76.702,84.191L76.702,84.191L76.702,76L162.128,76ZM116.489,104.963C114.441,103.5 111.809,104.963 111.809,107.303L111.809,107.303L111.809,132.17C111.809,134.511 114.441,135.681 116.489,134.511L116.489,134.511L135.213,121.931C136.676,120.761 136.676,118.42 135.213,117.543L135.213,117.543Z" fill="#000" stroke="#00000000" stroke-width="1.0" stroke-miterlimit=""/>
		<path d="M187.287,76C177.926,76 169.441,78.926 162.42,84.191L162.42,155.282C169.441,160.255 177.926,163.473 187.287,163.473C210.984,163.473 230,144.457 230,120.761L230,119.005C230,95.016 210.984,76 187.287,76Z" fill="#000" stroke="#00000000" stroke-width="1.0" stroke-miterlimit=""/>
	</svg>
