<?xml version="1.0" encoding="utf-8"?>
	<svg version="1.1" xmlns="http://www.w3.org/2000/svg" xmlns:xlink="http://www.w3.org/1999/xlink" x="0px" y="0px" width="240.0" height="240.0" xml:space="preserve">
		<path d="M134.025,46.538C136.468,46.505 137.425,48.412 137.936,50.492C139.36,56.292 139.349,56.317 145.329,55.58C160.475,53.715 175.667,52.629 190.935,52.833C192.851,52.858 194.451,52.514 195.938,51.107C197.947,49.204 199.856,49.29 201.697,51.373C203.62,53.549 205.723,55.359 208.39,56.536C209.342,56.956 210.089,57.714 209.992,58.886C209.897,60.035 209.044,60.637 208.093,61.05C207.425,61.34 206.711,61.598 205.994,61.687C201.736,62.216 198.059,63.7 195.365,67.296C194.237,68.801 192.424,69.257 190.638,68.381C188.965,67.561 188.778,65.982 189.135,64.338C189.636,62.032 188.348,61.668 186.801,61.65L186.517,61.65C186.421,61.651 186.325,61.653 186.229,61.656C178.336,61.863 170.45,60.521 163.008,61.63C156.028,61.405 149.522,61.859 143.012,62.22C140.645,62.352 139.054,63.007 138.132,65.636C136.398,70.585 127.719,72.123 124.026,68.396C122.724,67.083 122.828,65.747 124.054,64.53C127.965,60.653 129.497,55.681 130.573,50.508C130.994,48.484 131.644,46.57 134.025,46.538ZM152.98,32.239C153.578,31.135 154.805,30.84 155.871,31.076C161.154,32.248 165.967,34.48 169.857,38.294C171.372,39.778 171.287,41.843 170.292,43.698C169.001,46.107 167.056,47.653 164.486,47.834C162.05,47.827 160.761,46.505 160.127,44.692C158.83,40.985 157.184,37.59 153.946,35.131C153.106,34.494 152.326,33.447 152.98,32.239ZM189.657,103.497C194.764,103.497 198.348,103.518 201.93,103.483C202.849,103.474 203.864,103.364 204.231,102.32C204.618,101.215 203.793,100.545 203.004,100.117C200.639,98.832 198.632,97.122 196.67,95.304C194.929,93.691 192.904,93.408 190.901,94.903C189.182,96.186 187.267,96.465 185.187,96.481C181.884,96.507 178.582,96.705 175.279,96.854C173.462,96.937 172.017,96.757 172.946,94.31C173.227,93.569 173.02,92.786 172.469,92.259C170.929,90.789 171.885,89.927 173.107,89.002C177.713,85.514 182.795,83.055 188.433,81.747C189.501,81.5 190.62,81.287 191.58,80.793C193.346,79.885 193.405,78.473 191.746,77.452C189.403,76.01 187,74.664 184.604,73.309C183.424,72.641 182.02,72.373 180.89,73.027C177.979,74.712 174.855,74.333 171.757,74.321C160.449,74.277 149.175,74.888 137.931,76.074C136.751,76.199 135.365,76.151 135.098,77.688C134.864,79.035 136.077,79.504 136.975,80.127C138.331,81.066 139.794,81.904 140.976,83.032C143.345,85.291 145.888,85.553 148.836,84.39C154.358,82.214 160.15,81.222 166.046,80.891C167.522,80.809 169.67,79.66 170.372,81.153C171.046,82.588 168.751,83.48 167.852,84.677C166.444,86.547 164.972,87.25 162.502,85.937C159.827,84.515 157.334,86.453 157.422,89.561C157.474,91.389 157.803,93.212 158.058,95.03C158.294,96.715 157.767,97.591 155.911,97.705C152.338,97.923 148.776,98.309 145.21,98.63C138.625,99.223 132.04,99.806 125.458,100.424C124.259,100.536 122.981,100.743 122.6,102.151C122.246,103.455 122.93,104.48 123.863,105.302C125.034,106.334 126.315,107.245 127.456,108.308C129.923,110.61 132.604,111.015 135.846,110.01C142.442,107.965 149.291,107.064 156.102,106.019C158.166,105.702 159.265,106.403 159.398,108.549C159.592,111.672 159.605,114.783 159.283,117.904C159.067,120.003 158.133,120.808 156,120.407C152.934,119.83 149.842,119.382 146.755,118.924C145.434,118.728 144.062,118.771 143.413,120.18C142.805,121.5 143.406,122.712 144.297,123.716C145.537,125.114 147.155,125.995 148.794,126.845C150.501,127.73 152.225,128.559 153.543,130.073C156.162,133.08 159.559,133.174 162.354,130.337C164.68,127.977 166.032,125.039 166.642,121.84C167.484,117.422 168.289,112.981 168.738,108.512C169.04,105.497 170.451,104.348 173.29,104.25C179.256,104.044 185.199,103.324 189.657,103.497M112.046,60.154C111.594,59.469 111.53,59.267 111.393,59.183C110.849,58.844 110.301,58.499 109.72,58.233C91.285,49.802 72.998,49.468 55.026,59.492C52.656,60.814 51.237,60.691 49.375,58.73C44.699,53.804 39.81,49.081 34.984,44.3C34.505,43.824 34.062,42.925 33.198,43.399C32.578,43.739 32.747,44.548 32.742,45.174C32.608,63.716 32.501,82.258 32.337,100.8C32.316,103.128 33.213,104.104 35.584,104.101C54.407,104.077 73.229,104.122 92.052,104.124C92.828,104.124 93.927,104.431 94.229,103.448C94.51,102.534 93.481,102.089 92.915,101.527C87.317,95.961 81.776,90.334 76.074,84.876C74.11,82.995 74.14,81.602 75.817,79.554C83.121,70.64 92.485,65.05 103.454,61.914C106.165,61.138 108.919,60.558 112.046,60.154M112.957,189.274C113.538,190.484 114.373,190.743 115.098,191.077C133.344,199.502 151.481,199.798 169.332,190.012C171.885,188.613 173.461,188.653 175.492,190.805C180.095,195.681 184.942,200.325 189.716,205.039C190.263,205.58 190.743,206.658 191.666,206.211C192.505,205.806 192.162,204.725 192.168,203.935C192.305,185.654 192.433,167.372 192.533,149.091C192.555,145.254 192.3,145.024 188.474,145.022C169.912,145.012 151.349,145.013 132.786,145.036C131.924,145.037 130.944,144.711 130.02,145.726C130.688,146.453 131.327,147.201 132.021,147.894C137.482,153.348 142.959,158.787 148.421,164.241C151.036,166.852 151.057,166.949 148.629,169.85C142.795,176.82 135.684,182.002 127.188,185.329C122.642,187.11 117.888,188.083 112.957,189.274M46.682,126.57C56.51,123.623 66.516,123.017 76.624,125.318C87.579,127.813 94.735,134.813 95.218,146.443C95.24,146.992 95.266,147.542 95.293,148.091L95.463,151.389C95.546,153.039 95.615,154.69 95.632,156.343C95.192,164.23 95.064,172.123 94.977,180.02C94.889,188.024 95.113,195.989 96.484,203.901C97.042,207.126 96.558,207.583 93.298,207.743C91.098,207.851 88.894,207.948 86.703,208.166C84.452,208.389 83.334,207.563 83.011,205.226C82.34,200.353 82.271,200.393 78.187,203.064C68.866,209.161 58.525,210.739 47.808,208.908C37.472,207.141 31.658,200.707 30.326,190.329C29.196,181.517 30.92,173.286 36.788,166.309C41.732,160.432 48.48,157.902 55.778,156.649C63.388,155.341 70.968,155.83 78.487,157.5C81.663,158.205 82.06,157.872 81.865,154.634C81.788,153.352 81.59,152.079 81.452,150.8C80.474,141.764 76.883,138.093 67.808,136.699C60.589,135.589 53.56,135.868 46.716,138.775C43.242,140.25 43.166,140.08 42.485,136.438C42.35,135.716 42.202,134.996 42.072,134.273C40.952,128.03 39.846,128.62 46.682,126.57ZM70.757,166.016C62.184,165.354 54.219,167.136 47.847,173.215C39.996,180.706 43.166,194.738 53.286,197.278C62.404,199.568 71.112,197.943 79.262,193.292C81.116,192.235 81.984,190.668 81.862,188.518C81.696,185.589 81.586,182.656 81.433,179.3C81.433,176.699 81.388,173.671 81.449,170.646C81.488,168.643 80.59,167.576 78.631,167.276C76.003,166.872 73.398,166.22 70.757,166.016Z" fill="#000" stroke="#00000000" stroke-width="1.0" stroke-miterlimit=""/>
	</svg>
