<?xml version="1.0" encoding="utf-8"?>
	<svg version="1.1" xmlns="http://www.w3.org/2000/svg" xmlns:xlink="http://www.w3.org/1999/xlink" x="0px" y="0px" width="240.0" height="240.0" xml:space="preserve">
		<path d="M45,96.909L45,81.714C46.237,81.094 47.9,80.783 49.989,80.783L55.443,80.783L56.601,57.467C57.839,56.847 59.657,56.536 62.056,56.536L67.51,56.536L68.554,32.987L80.156,31.829C80.621,30.747 80.853,28.698 80.853,25.682C80.853,22.666 81.317,20.772 82.244,20L132.936,20L134.559,31.834L169.71,32.532L170.175,47.726C168.938,48.347 167.044,48.657 164.493,48.657C163.411,48.657 161.632,48.579 159.158,48.424C156.683,48.269 154.905,48.192 153.822,48.192C148.642,48.192 146.052,50.318 146.052,54.572C146.052,55.037 146.09,55.54 146.166,56.081L181.316,56.546C182.398,57.629 182.862,59.717 182.707,62.812C182.552,65.907 183.055,67.996 184.217,69.078C184.061,69.078 186.188,69.001 190.596,68.846C193.147,68.921 194.732,69.733 195.353,71.281L194.655,84.387L183.751,86.01C183.131,86.937 182.86,88.948 182.94,92.043C183.019,95.138 182.245,97.072 180.618,97.844C181.084,97.844 179.265,97.767 175.164,97.611C172.92,97.611 171.257,98.075 170.175,99.002L170.175,109.559L147.205,110.024C146.585,110.952 146.237,112.111 146.161,113.504L146.161,117.33L158.108,119.072L158.574,141.809L170.175,142.968L170.175,182.642C169.248,183.107 165.613,183.378 159.272,183.454L158.574,202.593C159.656,203.058 161.474,203.271 164.028,203.231C166.582,203.192 168.476,203.482 169.71,204.103C170.096,207.042 170.289,209.555 170.289,211.64C170.289,215.973 169.555,218.758 168.086,219.995C140.4,219.995 123.85,219.84 118.439,219.53L117.741,183.454C117.121,182.527 116.077,182.023 114.608,181.944C111.903,182.099 110.703,182.177 111.01,182.177C109.928,183.569 109.387,185.735 109.387,188.675C109.542,193.239 109.542,195.675 109.387,195.986C108.921,196.451 107.955,196.683 106.486,196.683C106.021,196.683 105.247,196.606 104.165,196.451L101.73,196.451C98.869,196.451 97.787,198.036 98.483,201.207C99.41,202.134 100.996,202.598 103.24,202.598L108.921,202.598L109.387,219.535L58.116,220L55.913,217.798L55.913,120.473C56.686,118.925 58.426,118.113 61.135,118.038C65.698,118.193 67.825,118.27 67.515,118.27C68.135,117.343 68.406,115.061 68.326,111.425C68.326,108.409 69.1,106.515 70.648,105.743L76.102,105.743C78.346,105.898 80.009,105.435 81.091,104.352L81.091,98.319L45,96.909ZM59.734,193.189L106.714,192.145L106.714,184.374L82.239,184.374C80.692,182.982 79.996,180.74 80.151,177.648L80.151,170.338L70.638,168.714L69.247,156.999L59.734,156.999L59.734,193.194L59.734,193.189ZM71.336,82.179L81.546,82.179C83.17,84.654 83.981,88.366 83.981,93.315L83.981,94.592C83.981,101.089 84.214,105.342 84.679,107.352L168.086,106.421L167.621,96.211L132.936,96.211C131.854,94.973 131.35,93.079 131.426,90.529L131.426,83.803C132.664,82.72 134.558,82.179 137.108,82.179C140.896,82.334 142.985,82.334 143.374,82.179L143.374,72.201L132.936,72.201C131.929,70.654 131.426,68.605 131.426,66.054C131.426,63.965 131.774,61.491 132.471,58.63L143.374,57.472L143.374,56.314C143.374,54.38 143.064,51.983 142.444,49.122L120.518,49.122L120.518,57.477C119.436,59.024 117.387,59.758 114.371,59.679C110.89,59.524 108.763,59.757 107.991,60.377L108.921,70.588L118.434,70.588C119.982,71.515 120.678,73.178 120.523,75.577C120.523,79.83 120.523,81.879 120.523,81.724C117.817,83.271 113.95,84.045 108.921,84.045L96.276,83.813C94.728,81.107 93.954,77.24 93.954,72.211L94.187,59.565L94.187,59.679L71.336,59.679L71.336,82.184L71.336,82.179ZM71.336,35.66L72.034,45.638L168.081,44.94L167.616,34.616L132.466,33.918L130.723,23.014L84.669,23.014L83.279,33.918L71.336,35.66ZM83.744,180.548L106.714,180.548L106.714,170.338C107.796,168.79 109.69,167.979 112.396,167.903C117.035,167.903 119.201,167.98 118.894,168.135L118.894,156.999L84.674,156.999L83.744,180.548ZM95.578,133.45L96.276,144.007L106.714,144.007C107.641,144.934 108.144,146.404 108.224,148.417C108.068,152.205 107.991,153.868 107.991,153.406L119.825,153.406C121.914,154.643 122.958,157.04 122.958,160.597L122.725,169.645C121.643,171.192 119.709,171.966 116.925,171.966C113.443,171.811 111.239,171.966 110.312,172.431L110.312,179.158L119.825,180.548L121.216,193.194L154.971,193.194L156.361,181.246L168.077,179.855L168.077,146.101L156.361,144.71L154.971,132.995L135.02,132.995L135.02,144.71C134.013,146.719 132.002,147.724 128.986,147.724L127.942,147.724C121.831,147.724 118.776,147.646 118.776,147.491L118.889,147.491C117.421,146.178 116.687,143.819 116.687,140.414L116.801,133.801C116.801,132.409 116.763,131.597 116.687,131.366C117.924,129.974 120.013,129.278 122.953,129.278L123.883,129.278C127.826,129.278 130.339,128.93 131.421,128.233L131.421,126.956C131.421,125.178 131.189,123.012 130.723,120.458L108.916,120.458L107.174,132.059L95.578,133.45ZM120.518,132.985L121.216,144.007L131.426,142.963L131.426,132.985L120.523,132.985L120.518,132.985ZM144.532,70.578L154.971,70.578C156.518,71.66 157.33,73.401 157.406,75.799C157.251,80.363 157.173,82.489 157.173,82.179L192.324,81.714L192.324,80.437C192.324,78.348 192.053,75.603 191.512,72.201L182.118,72.201C180.57,70.964 179.836,68.992 179.915,66.287C179.915,61.568 179.915,59.364 179.915,59.674L145.463,59.674L144.532,70.578Z" fill="#000" stroke="#00000000" stroke-width="1.0" stroke-miterlimit=""/>
	</svg>
