<?xml version="1.0" encoding="utf-8"?>
	<svg version="1.1" xmlns="http://www.w3.org/2000/svg" xmlns:xlink="http://www.w3.org/1999/xlink" x="0px" y="0px" width="240.0" height="240.0" xml:space="preserve">
		<path d="M93.753,18C97.443,17.988 101.073,18.351 104.674,19.071C113.472,20.828 120.834,25.267 127.435,31.152C130.665,34.03 133.834,36.978 137.226,39.672C141.292,42.9 146.092,44.371 151.005,45.747C164.646,49.569 177.007,55.949 187.828,65.099C203.637,78.465 213.735,95.314 217.941,115.576C220.416,127.501 220.719,139.531 218.526,151.529C215.245,169.487 206.722,184.585 193.064,196.75C181.394,207.144 167.762,213.849 152.729,217.856C139.388,221.413 125.807,222.548 112.044,221.764C96.168,220.859 80.95,217.308 66.701,210.156C51.826,202.689 39.68,192.139 31.119,177.753C25.38,168.11 21.914,157.663 20.661,146.522C18.975,131.518 20.467,116.839 25.661,102.617C30.537,89.264 38.27,77.766 48.71,68.104C60.761,56.951 74.874,49.529 90.676,45.208C97.287,43.401 101.159,36.665 99.658,29.647C98.852,25.881 97.075,22.617 94.746,19.608C94.429,19.197 94.102,18.793 93.79,18.378C93.748,18.322 93.771,18.217 93.753,18ZM204.073,99.457C192.265,98.7 180.448,98.222 168.612,98.365C159.285,98.479 150.023,99.033 140.905,101.279C134.682,102.813 128.34,103.847 121.922,104.118C115.444,104.39 109.102,103.251 102.797,101.977L101.078,101.627C95.909,100.571 90.781,99.352 85.497,98.937C77.363,98.298 69.219,98.293 58.062,98.444C52.795,98.536 44.53,98.942 36.27,99.465C34.579,99.572 33.695,100.514 33.822,102.288C34.073,105.78 34.397,109.267 34.706,112.754C34.778,113.569 35.097,114.316 35.896,114.631C38.997,115.852 40.274,118.466 40.905,121.413C41.882,125.968 42.409,130.612 43.527,135.144C45.312,142.376 47.875,149.258 52.727,155.068C56.731,159.861 61.731,163.073 68.055,163.643C75.49,164.312 82.928,164.279 90.345,163.124C99.655,161.674 106.185,156.701 110.103,148.17C111.924,144.205 113.487,140.141 115.076,136.084C115.988,133.755 116.836,131.385 118.272,129.308C119.551,127.459 120.849,127.465 122.151,129.285C123.187,130.733 123.886,132.351 124.543,133.987L124.935,134.969C126.869,139.815 128.615,144.737 130.981,149.406C134.348,156.047 139.444,160.562 146.77,162.396C150.396,163.303 154.086,163.707 157.814,163.925C162.412,164.195 167.006,164.107 171.582,163.752C179.189,163.163 184.872,159.202 189.212,153.152C193.656,146.957 195.997,139.892 197.502,132.519C198.271,128.755 198.777,124.936 199.603,121.186C200.233,118.323 201.571,115.834 204.534,114.628C205.282,114.323 205.649,113.686 205.717,112.9C206.027,109.326 206.37,105.753 206.609,102.174C206.729,100.388 205.895,99.574 204.073,99.457ZM63.094,110.636C69.718,109.396 76.36,109.821 83.013,110.523C86.718,110.915 90.413,111.337 94.037,112.186C100.922,113.799 105.686,118.762 105.773,126.307C105.84,132.049 103.843,137.121 101.158,142.016C100.349,143.492 99.378,144.878 98.536,146.337C96.35,150.123 92.85,151.863 88.746,152.717C85.5,153.392 82.215,153.499 77.723,153.473C75.974,153.441 72.991,153.624 70.115,152.96C65.205,151.828 62.267,148.282 60.034,144.078C57.406,139.133 56.182,133.74 55.219,128.279C54.768,125.727 54.4,123.17 54.394,120.564C54.383,114.788 57.928,111.603 63.094,110.636ZM148.26,111.764C155.607,110.522 163.002,109.693 170.469,109.885C173.663,109.968 176.854,110.186 179.9,111.364C183.642,112.811 185.947,115.985 186.054,119.989C186.126,122.681 185.76,125.331 185.278,127.966C184.354,133.025 183.344,138.062 181.099,142.75C179.858,145.342 178.332,147.756 176.257,149.753C173.639,152.27 170.417,153.376 166.807,153.403C165.247,153.415 163.687,153.405 162.127,153.405C157.971,153.43 153.819,153.411 149.774,152.206C146.859,151.337 144.378,149.901 142.614,147.364C139.08,142.28 136.153,136.894 135.011,130.75C134.001,125.323 134.661,120.205 138.856,116.113C141.459,113.575 144.754,112.357 148.26,111.764Z" fill="#000" stroke="#00000000" stroke-width="1.0" stroke-miterlimit=""/>
	</svg>
