<?xml version="1.0" encoding="utf-8"?>
	<svg version="1.1" xmlns="http://www.w3.org/2000/svg" xmlns:xlink="http://www.w3.org/1999/xlink" x="0px" y="0px" width="240.0" height="240.0" xml:space="preserve">
		<path d="M142.516,50.764C143.939,51.063 144.511,52.235 145.157,53.333C169.705,95.068 194.254,136.803 218.793,178.543C219.103,179.071 219.291,179.67 219.553,180.275C218.211,181.828 216.515,181.189 215.057,181.192C191.789,181.237 168.519,181.117 145.253,181.319C141.012,181.357 139.793,180.132 139.895,175.939C140.164,164.79 140.033,153.629 139.962,142.474C139.918,135.52 136.254,131.344 130.332,131.222C124.287,131.098 120.286,135.513 120.269,142.553C120.206,166.618 120.2,190.683 120.174,214.747C120.172,216.436 120.173,218.125 120.173,220C117.594,219.464 116.693,217.846 115.504,216.665C104.76,206.003 93.977,195.377 83.403,184.548C80.943,182.031 78.444,181.128 75.008,181.157C58.436,181.304 41.86,181.24 25.286,181.212C20.267,181.203 20.067,180.854 22.573,176.593C46.628,135.676 70.695,94.767 94.779,53.867C95.488,52.663 96.007,51.223 97.559,50.736C112.545,50.745 127.531,50.754 142.516,50.764" fill="#000" stroke="#00000000" stroke-width="1.0" stroke-miterlimit=""/>
		<path d="M142.516,50.764C127.531,50.754 112.545,50.745 97.559,50.736C102.711,41.785 107.69,32.73 113.082,23.927C116.136,18.94 123.745,18.598 126.861,23.504C132.477,32.342 138.119,41.208 142.516,50.764" fill="#000" stroke="#00000000" stroke-width="1.0" stroke-miterlimit=""/>
	</svg>
