<?xml version="1.0" encoding="utf-8"?>
	<svg version="1.1" xmlns="http://www.w3.org/2000/svg" xmlns:xlink="http://www.w3.org/1999/xlink" x="0px" y="0px" width="240.0" height="240.0" xml:space="preserve">
		<path d="M120,20C64.769,20 20,64.769 20,120C20,175.231 64.769,220 120,220C175.231,220 220,175.231 220,120C220,64.769 175.231,20 120,20ZM120,193.662C79.324,193.657 46.35,160.684 46.346,120.008C46.346,79.331 79.323,46.346 120,46.346C153.3,46.346 181.415,68.454 190.531,98.785L172.046,98.785C161.871,73.904 135.511,59.702 109.135,64.892C82.759,70.081 63.744,93.211 63.754,120.092C63.87,149.893 87.206,174.432 116.964,176.045C146.721,177.657 172.572,155.783 175.908,126.169L141.692,126.169L120,147.854L92.223,120.085L120,92.308L142.246,114.554L193.385,114.554C193.523,116.362 193.654,118.169 193.654,120C193.654,160.677 160.677,193.662 120,193.662Z" fill="#000" stroke="#00000000" stroke-width="1.0" stroke-miterlimit=""/>
	</svg>
