<?xml version="1.0" encoding="utf-8"?>
	<svg version="1.1" xmlns="http://www.w3.org/2000/svg" xmlns:xlink="http://www.w3.org/1999/xlink" x="0px" y="0px" width="240.0" height="240.0" xml:space="preserve">
		<path d="M118.252,220C101.328,219.84 85.708,216.666 71.108,209.126C44.172,195.211 33.558,167.994 43.902,139.462C49.002,125.398 57.585,113.531 67.189,102.293C74.591,93.627 82.037,85 88.793,75.804C92.105,71.294 94.506,66.415 95.759,60.945C98.061,50.91 102.057,41.361 104.204,31.266C105.082,27.131 107.51,23.731 110.524,20.773C111.661,19.652 112.285,19.658 112.511,21.43C113.135,26.353 113.775,31.271 114.863,36.123C115.878,40.66 116.971,41.72 121.69,41.924C125.284,42.079 128.849,42.371 132.36,43.139C137.852,44.342 143.289,45.716 147.959,49.083C152.59,52.423 156.409,56.358 157.883,62.121C159.103,66.89 161.548,70.958 164.551,74.877C166.979,78.045 165.158,81.6 163.59,84.613C161.388,88.853 157.574,91.093 152.904,92.148C145.006,93.931 136.881,94.411 129.043,96.481C117.462,99.544 108.526,106.333 102.338,116.445C94.892,128.6 96.681,142.305 106.589,152.66C112.053,158.367 118.594,162.606 125.549,166.2C131.797,169.423 138.233,172.299 144.503,175.489C150.851,178.724 155.162,183.835 156.906,190.751C158.998,199.064 155.118,207.802 147.252,212.891C140.789,217.075 133.558,219.023 125.918,219.536C123.164,219.713 120.41,219.868 118.252,220Z" fill="#000" stroke="" stroke-width="" stroke-miterlimit=""/>
		<path d="M139.832,109.755C153.046,110.296 165.841,115.259 177.096,124.206C185.287,130.714 191.662,138.684 195.526,148.47C202.712,166.696 199.964,183.708 188.825,199.528C183.863,206.576 177.394,211.947 169.523,215.529C167.994,216.225 166.034,217.571 164.676,216.07C163.28,214.524 164.952,212.791 165.813,211.367C171.874,201.388 173.077,190.983 168.082,180.314C164.671,173.033 158.511,168.281 151.611,164.5C142.835,159.692 133.363,156.215 124.979,150.662C122.76,149.194 120.563,147.659 118.51,145.976C106.477,136.112 109.121,118.725 123.549,112.675C128.362,110.661 133.402,109.772 139.832,109.755Z" fill="#000" stroke="" stroke-width="" stroke-miterlimit=""/>
	</svg>
