<?xml version="1.0" encoding="utf-8"?>
	<svg version="1.1" xmlns="http://www.w3.org/2000/svg" xmlns:xlink="http://www.w3.org/1999/xlink" x="0px" y="0px" width="240.0" height="240.0" xml:space="preserve">
		<path d="M61.85,44.612C64.782,45.612 67.221,47.473 69.543,49.474C73.996,53.31 77.785,57.704 80.55,62.939C83.979,69.433 83.543,77.646 77.979,83.334C76.332,85.016 74.772,86.795 73.729,88.974C73.164,90.155 73.209,91.288 73.614,92.446C75.293,97.26 78.457,101.105 81.741,104.851C86.615,110.411 91.842,115.614 97.621,120.232C100.044,122.169 102.58,123.943 105.498,125.061C108.301,126.134 111.047,126.229 113.609,124.352C115.485,123.248 116.947,121.633 118.591,120.245C121.559,117.738 124.889,116.217 128.824,116.321C131.491,116.392 133.909,117.385 136.186,118.671C142.629,122.306 147.925,127.217 152.079,133.369C153.894,136.058 154.86,138.954 154.421,142.257C154.24,143.615 153.31,144.381 152.437,145.219C149.334,148.194 145.725,150.426 141.977,152.47C138.696,154.26 135.183,155.279 131.53,155.858C121.972,157.375 113.002,155.174 104.353,151.293C97.813,148.358 91.842,144.489 86.121,140.127C74.785,131.482 65.087,121.32 57.1,109.503C52.33,102.445 48.506,94.918 46.39,86.593C46.372,86.524 46.293,86.47 46.242,86.409C45.332,81.705 44.875,76.971 45.029,72.167C45.377,61.328 49.894,52.426 57.399,44.892C58.753,43.532 60.381,44.112 61.85,44.612ZM174.291,25.785C185.918,32.599 192.735,42.938 194.506,56.352C195.799,66.145 194.688,75.679 189.581,84.396C183.05,95.541 173.496,102.44 160.808,104.813C151.489,106.556 142.634,105.069 134.08,101.037C129.615,98.932 124.934,97.341 120.075,96.336C114.05,95.089 108.242,95.657 102.653,98.277C102.491,98.353 102.246,98.38 102.212,98.638C102.213,98.638 102.139,98.643 102.139,98.643C102.139,98.643 102.121,98.716 102.121,98.715C101.745,98.605 101.504,98.749 101.379,99.114C100.596,99.069 100.049,99.637 99.396,99.919C98.826,100.166 98.725,100.048 98.688,99.469C98.104,90.16 103.647,80.729 112.074,76.807C112.888,76.428 113.095,76.067 112.905,75.143C110.835,65.109 110.844,55.192 114.827,45.554C117.101,40.05 120.481,35.307 124.745,31.186C128.838,27.576 133.309,24.568 138.475,22.743C150.857,18.367 162.914,19.117 174.291,25.785ZM178.242,56.917C177.551,57.484 177.464,58.229 177.923,59.001C178.087,59.279 178.283,59.574 178.539,59.755C179.537,60.461 179.212,61.029 178.504,61.755C171.542,68.89 163.203,72.783 153.175,72.756C151.054,72.749 148.949,72.643 146.862,72.243C139.59,70.848 133.59,67.113 128.299,62.066C127.014,60.84 127.015,60.84 128.128,59.423C128.229,59.295 128.339,59.172 128.424,59.034C128.903,58.26 128.817,57.522 128.138,56.944C127.458,56.365 126.637,56.351 126.054,57.022C124.606,58.688 122.866,59.903 120.891,60.841C120.054,61.238 119.721,61.984 120.114,62.889C120.509,63.801 121.284,64.002 122.148,63.713C122.759,63.509 123.357,63.208 123.89,62.846C124.545,62.4 124.911,62.558 125.376,63.155C127.085,65.347 129.004,67.345 131.104,69.169C142.078,78.695 157.642,80.188 170.072,72.883C174.193,70.462 177.684,67.298 180.643,63.552C181.325,62.689 181.862,62.229 182.864,63.059C183.259,63.385 183.788,63.587 184.288,63.734C185.122,63.98 185.873,63.755 186.224,62.914C186.581,62.061 186.376,61.256 185.494,60.839C183.522,59.904 181.761,58.718 180.329,57.03C179.761,56.36 178.935,56.349 178.242,56.917ZM128.141,180.06C129.251,180.139 129.955,180.924 129.991,182.224C130.016,183.121 130.038,184.037 129.891,184.915C129.744,185.8 130.057,185.947 130.838,185.942C134.945,185.919 139.052,185.922 143.159,185.955C145.565,185.974 147.014,187.782 146.554,190.106C146.25,191.644 144.886,192.663 143.009,192.675C139.878,192.696 136.747,192.677 133.616,192.678C133.425,192.678 133.235,192.706 132.913,192.731C135.41,197.798 138.845,201.687 144.162,203.635C146.054,204.329 146.902,205.629 146.635,207.322C146.3,209.451 144.481,210.603 142.415,209.944C137.263,208.299 133.321,205.007 130.103,200.737C128.876,199.107 127.874,197.337 126.837,195.43C125.454,198.22 123.927,200.811 122.029,203.156C114.8,212.092 105.727,218.067 94.272,219.609C82.798,221.153 72.381,218.088 63.136,211.067C60.036,208.713 57.312,205.967 54.889,202.922C54.457,202.378 54.161,202.172 53.533,202.637C53.017,203.019 52.382,203.235 51.809,203.542C50.959,203.997 50.088,204.173 49.319,203.46C48.579,202.774 48.537,201.893 48.899,200.98C49.287,200.479 49.837,200.232 50.391,199.967C52.272,199.063 53.975,197.904 55.364,196.316C56.311,195.236 57.212,194.96 58.096,195.517C59.227,196.228 59.115,197.247 58.718,198.316C58.451,198.619 58.226,198.98 57.907,199.213C56.893,199.957 57.109,200.597 58.004,201.225C61.223,205.132 65.122,208.219 69.446,210.786C70.07,211.156 70.74,211.447 71.389,211.775C75.316,213.965 79.552,215.302 83.989,215.632C99.792,216.811 111.972,210.425 120.831,197.362C121.771,195.974 122.393,194.419 123.043,192.675C120.547,192.675 118.138,192.686 115.73,192.669C114.963,192.664 114.192,192.758 113.428,192.537C111.647,192.022 110.724,190.713 110.89,188.88C111.037,187.257 112.35,185.985 114.102,185.956C117.395,185.9 120.69,185.894 123.983,185.953C124.954,185.97 125.378,185.711 125.421,184.706C125.462,183.773 125.612,182.837 125.796,181.918C126.04,180.697 126.996,179.977 128.141,180.06ZM90.103,172.061C91.048,173.005 91.42,174.129 91.415,175.483C91.382,184.232 91.402,192.98 91.398,201.729C91.397,204.79 90.132,206.02 87.065,205.954C85.379,205.918 83.772,205.529 82.251,204.792C81.588,204.47 80.988,204.055 80.469,203.525C79.457,202.492 79.21,201.298 79.776,200.18C80.305,199.136 81.383,198.646 82.785,198.812C84.262,198.986 84.253,198.986 84.246,197.532C84.226,193.527 84.213,189.521 84.197,185.515C84.214,182.211 84.422,178.893 84.194,175.605C83.969,172.365 87.056,170.091 90.103,172.061ZM101.499,184.025C103.837,184.108 105.692,186.22 105.916,189.054C106.175,192.332 103.979,195.02 101.132,194.908C98.582,194.808 96.711,192.479 96.717,189.411C96.722,186.3 98.827,183.929 101.499,184.025ZM73.541,183.755C75.772,183.792 77.753,185.787 77.99,188.303C78.066,189.11 78.002,189.93 78.002,190.744C77.849,191.118 77.718,191.503 77.537,191.864C76.765,193.409 75.616,194.486 73.835,194.658C71.981,194.838 70.648,193.944 69.679,192.436C69.376,191.965 69.171,191.428 68.922,190.922C68.937,190.655 68.931,190.388 68.918,190.122L68.873,189.323C68.854,188.923 68.852,188.521 68.915,188.116C69.31,185.582 71.258,183.718 73.541,183.755ZM123.33,172.938C129.1,172.938 134.869,172.92 140.639,172.952C143.036,172.965 144.471,174.659 144.117,176.927C143.857,178.594 142.426,179.652 140.329,179.661C136.469,179.679 132.609,179.666 128.749,179.666L128.749,179.658C124.929,179.658 121.11,179.675 117.29,179.651C114.993,179.637 113.591,178.382 113.524,176.364C113.46,174.472 114.793,173.01 116.748,172.959C118.94,172.902 121.136,172.939 123.33,172.938ZM165.443,184.104C161.406,184.104 157.429,184.116 153.453,184.099C151.454,184.09 150.088,182.904 149.925,181.104C149.731,178.957 151.183,177.4 153.467,177.392C159.117,177.371 164.767,177.382 170.417,177.381C173.158,177.38 173.157,177.381 173.175,174.567C173.18,173.833 173.134,173.099 173.388,172.384C173.899,170.944 175.351,169.957 176.782,170.101C178.367,170.261 179.659,171.546 179.764,173.165C179.838,174.306 179.824,175.454 179.811,176.598C179.805,177.165 179.996,177.415 180.588,177.389C181.317,177.356 182.052,177.359 182.781,177.401C184.6,177.505 186.043,179.021 186.007,180.753C185.97,182.583 184.62,183.994 182.777,184.1C182.169,184.135 181.553,184.161 180.95,184.097C180.101,184.006 179.851,184.305 179.855,185.173C179.877,190.527 179.841,195.882 179.822,201.237C179.82,201.891 179.844,202.547 179.8,203.198C179.659,205.283 178,206.664 175.949,206.257C174.164,205.903 172.393,205.425 170.662,204.858C168.787,204.243 167.736,202.583 168.076,201.066C168.428,199.49 170.126,198.469 172.143,198.818C173.076,198.981 173.19,198.753 173.179,197.909C173.12,193.659 173.124,189.408 173.09,185.158C173.087,184.824 173.298,184.285 172.892,184.188C172.287,184.042 172.396,184.716 172.289,185.037C169.897,192.223 166.001,198.269 159.431,202.304C157.868,203.264 156.229,204.072 154.484,204.637C152.582,205.252 150.793,204.502 150.217,202.888C149.522,200.939 150.313,199.228 152.31,198.472C157.481,196.516 161.277,192.998 163.958,188.191C164.657,186.937 165.103,185.596 165.443,184.104" fill="#000" stroke="#00000000" stroke-width="1.0" stroke-miterlimit=""/>
	</svg>
