<?xml version="1.0" encoding="utf-8"?>
	<svg version="1.1" xmlns="http://www.w3.org/2000/svg" xmlns:xlink="http://www.w3.org/1999/xlink" x="0px" y="0px" width="240.0" height="240.0" xml:space="preserve">
		<path d="M134.943,168.069H105.081L81.805,158.103V201.31L105.081,191.345H134.943L158.218,201.31V158.103L134.943,168.069Z" fill="#000" stroke="" stroke-width="" stroke-miterlimit=""/>
		<path d="M120.011,160.552C109.253,160.552 98.529,157.931 88.735,152.69C69.666,142.483 61.011,128.724 57.391,120.759C51.839,121.103 46.632,119.897 44.356,119.241C40.77,118.759 36.425,115.931 23.287,100.828C18.494,95.345 19.011,86.965 24.391,82.172C28.218,78.759 35.011,70.069 42.977,58.345C45.571,54.512 49.323,51.609 53.683,50.058C58.044,48.507 62.786,48.39 67.218,49.724C69.701,50.483 72.287,51.103 74.287,51.586C93.115,38.862 118.873,38.69 120.011,38.69C121.149,38.69 146.908,38.862 165.701,51.552C167.701,51.104 170.287,50.448 172.77,49.69C181.908,46.965 191.632,50.414 197.011,58.31C204.977,70.035 211.77,78.724 215.597,82.138C221.011,86.931 221.494,95.31 216.701,100.828C203.563,115.931 199.218,118.759 195.632,119.241C193.356,119.897 188.149,121.103 182.597,120.759C178.977,128.69 170.356,142.448 151.253,152.69C141.649,157.853 130.915,160.554 120.011,160.552V160.552ZM58.563,104.034C64.356,104.034 69.804,107.621 72.184,113.172C74.632,118.897 81.08,129.759 96.563,138.034C111.253,145.897 128.77,145.897 143.46,138.034C158.942,129.759 165.356,118.897 167.839,113.172C170.425,107.103 176.735,103.414 183.115,104.138C186.46,104.552 190.494,103.483 191.494,103.172C192.46,102.414 195.425,99.862 202.184,92.241C197.356,87.276 191.046,79.035 183.322,67.69C182.707,66.777 181.817,66.084 180.781,65.712C179.745,65.34 178.618,65.308 177.563,65.621C171.77,67.345 165.701,68.586 165.46,68.621L161.666,69.379L158.632,66.965C146.701,57.414 126.735,55.31 120.011,55.31C119.735,55.31 95.666,55.517 81.391,66.965L78.356,69.379L74.563,68.621C74.322,68.552 68.253,67.345 62.459,65.621C61.404,65.308 60.277,65.34 59.242,65.712C58.206,66.084 57.316,66.777 56.701,67.69C48.977,79.035 42.632,87.276 37.839,92.241C44.597,99.862 47.563,102.414 48.528,103.172C49.804,103.586 53.701,104.517 56.942,104.138C57.494,104.069 58.046,104.034 58.563,104.034V104.034Z" fill="#000" stroke="" stroke-width="" stroke-miterlimit=""/>
		<path d="M119.839,129.897C114.383,129.89 109.009,128.574 104.167,126.06C99.325,123.546 95.156,119.907 92.012,115.448L102.874,107.793C104.793,110.508 107.335,112.724 110.287,114.254C113.239,115.784 116.514,116.584 119.839,116.586C123.24,116.589 126.59,115.754 129.591,114.154C132.592,112.554 135.153,110.239 137.046,107.414L148.046,114.862C144.943,119.494 140.746,123.29 135.826,125.912C130.906,128.534 125.415,129.903 119.839,129.897V129.897Z" fill="#000" stroke="" stroke-width="" stroke-miterlimit=""/>
	</svg>
