<?xml version="1.0" encoding="utf-8"?>
	<svg version="1.1" xmlns="http://www.w3.org/2000/svg" xmlns:xlink="http://www.w3.org/1999/xlink" x="0px" y="0px" width="240.0" height="240.0" xml:space="preserve">
		<path d="M23.595,98.914L211.892,20.451C212.894,20.033 213.992,19.902 215.064,20.073C216.136,20.243 217.139,20.708 217.962,21.416C218.785,22.123 219.395,23.045 219.724,24.08C220.053,25.114 220.089,26.219 219.826,27.272L172.924,214.896C172.683,215.857 172.202,216.741 171.526,217.465C170.85,218.19 170.002,218.731 169.06,219.038C168.118,219.345 167.113,219.408 166.14,219.221C165.167,219.035 164.258,218.604 163.497,217.97L122.772,184.037C121.648,183.103 120.216,182.622 118.756,182.69C117.296,182.757 115.914,183.369 114.882,184.403L93.992,205.278C93.174,206.092 92.132,206.646 91,206.87C89.867,207.094 88.694,206.978 87.627,206.537C86.56,206.095 85.647,205.349 85.003,204.39C84.36,203.432 84.014,202.305 84.009,201.15V157.029C84.008,156.26 84.159,155.498 84.453,154.787C84.747,154.077 85.178,153.431 85.721,152.886L170.669,67.938L70.38,143.166C69.325,143.957 68.034,144.368 66.717,144.333C65.399,144.298 64.132,143.82 63.119,142.976L22.102,108.809C21.33,108.165 20.737,107.332 20.381,106.392C20.024,105.452 19.916,104.436 20.066,103.442C20.216,102.447 20.619,101.509 21.237,100.715C21.855,99.922 22.667,99.302 23.595,98.914V98.914Z" fill="#000" stroke="" stroke-width="" stroke-miterlimit=""/>
	</svg>
