<?xml version="1.0" encoding="utf-8"?>
	<svg version="1.1" xmlns="http://www.w3.org/2000/svg" xmlns:xlink="http://www.w3.org/1999/xlink" x="0px" y="0px" width="240.0" height="240.0" xml:space="preserve">
		<path d="M109.8,181.137V181.122C135.823,181.122 161.845,181.122 187.863,181.117C191.456,181.122 193.346,184.383 191.656,187.634C191.298,188.33 190.699,188.571 189.977,188.596C189.209,188.622 188.441,188.637 187.673,188.637C161.779,188.637 135.884,188.635 109.99,188.632C84.095,188.63 58.201,188.627 32.306,188.627C30.596,188.627 28.897,188.581 27.243,188.059C23.055,186.738 20.291,183.124 20.066,178.46C19.983,176.784 19.997,175.102 20.01,173.421C20.015,172.797 20.02,172.172 20.02,171.549C20.014,142.28 20.014,113.017 20.02,83.754C20.02,74.769 23.777,71.042 32.834,71.042C82.15,71.037 131.461,71.037 180.777,71.042C189.619,71.048 193.397,74.831 193.402,83.682C193.405,88.154 193.403,92.626 193.401,97.097V97.151C193.396,107.762 193.392,118.373 193.453,128.985C193.468,131.606 193.028,133.869 191.093,135.717C190.878,135.923 190.689,136.191 190.5,136.46C190.018,137.144 189.532,137.835 188.595,137.529C187.192,137.069 186.229,135.866 185.984,134.314C185.888,133.704 185.894,133.077 185.899,132.452C185.901,132.307 185.902,132.16 185.902,132.016C185.9,129.859 185.9,127.701 185.901,125.543C185.902,122.666 185.903,119.789 185.897,116.913C185.892,112.92 185.845,112.869 181.944,112.864C179.457,112.861 176.969,112.855 174.481,112.85H174.477C166.388,112.831 158.297,112.812 150.209,112.91C147.526,112.946 145.908,112.167 144.449,109.787C127.437,82.09 86.225,82.29 69.423,110.248C68.261,112.188 66.935,112.91 64.703,112.889C55.828,112.816 46.953,112.83 38.079,112.844C35.778,112.848 33.476,112.851 31.175,112.853C27.673,112.858 27.53,112.992 27.53,116.422C27.52,136.813 27.525,157.204 27.535,177.595C27.54,180.989 27.694,181.132 31.221,181.132C50.868,181.14 70.513,181.139 90.157,181.138C96.705,181.138 103.253,181.137 109.8,181.137ZM165.039,84.209C163.632,84.204 162.225,84.2 160.819,84.2C159.407,84.2 157.994,84.203 156.581,84.206H156.579C153.045,84.215 149.51,84.223 145.978,84.179C144.032,84.153 143.188,84.911 143.234,86.892C143.31,90.302 143.3,93.717 143.244,97.126C143.213,98.954 143.971,99.742 145.824,99.737C155.715,99.701 165.606,99.696 175.497,99.742C177.437,99.753 178.287,99.01 178.246,97.029C178.174,93.701 178.164,90.374 178.256,87.051C178.313,84.973 177.488,84.138 175.4,84.174C171.948,84.232 168.492,84.22 165.039,84.209ZM79.42,92.606C79.404,97.316 75.657,101.053 70.952,101.048C66.432,101.043 62.484,97.029 62.536,92.488C62.587,88.024 66.432,84.235 70.942,84.21C75.652,84.189 79.435,87.937 79.42,92.606Z" fill="#000" stroke="" stroke-width="" stroke-miterlimit=""/>
		<path d="M107.21,91.044C130.186,91.075 148.954,109.945 148.959,133.024C148.959,156.441 130.463,174.907 107.02,174.886C83.87,174.861 65.163,156.195 65.112,133.081C65.061,110.058 84.136,91.014 107.21,91.044ZM107.249,105.645C91.87,105.599 79.716,117.64 79.711,132.927C79.706,148.337 91.947,160.629 107.254,160.583C122.31,160.542 134.684,148.06 134.664,132.927C134.648,117.973 122.305,105.691 107.249,105.645Z" fill="#000" stroke="" stroke-width="" stroke-miterlimit=""/>
		<path d="M162.117,159.487C166.524,156.543 171.46,155.473 176.676,155.432C176.784,155.432 176.892,155.437 177,155.442C177.235,155.453 177.469,155.464 177.69,155.422C178.079,155.349 178.525,155.408 178.971,155.465C179.94,155.592 180.907,155.717 181.279,154.501C181.369,154.206 181.471,153.912 181.572,153.617C182.174,151.874 182.778,150.125 181.043,148.132C175.612,141.896 170.395,135.471 165.562,128.755C163.417,125.77 163.463,124.741 165.439,121.838C167.062,119.452 167.63,119.386 169.642,121.654C172.648,125.038 175.622,128.451 178.597,131.865L178.598,131.866L178.605,131.875L178.612,131.883C179.777,133.22 180.942,134.556 182.108,135.891C182.605,136.461 183.112,137.024 183.619,137.588L183.621,137.589C184.711,138.8 185.802,140.012 186.798,141.297C188.19,143.094 189.183,142.895 190.54,141.21C194.418,136.396 198.347,131.627 202.277,126.857L202.282,126.852L202.283,126.85C203.663,125.175 205.043,123.5 206.421,121.823C208.525,119.263 208.996,119.335 210.921,121.905C212.631,124.193 212.743,126.323 211.09,128.693C206.6,135.133 202.003,141.497 196.96,147.497C194.997,149.835 195.62,151.834 196.301,154.016C196.355,154.19 196.41,154.365 196.463,154.542C196.766,155.529 197.535,155.425 198.265,155.327C198.386,155.311 198.507,155.295 198.624,155.284C204.025,154.792 209.16,155.842 214.028,158.12C218.252,160.091 220.371,163.009 219.947,165.927C219.522,168.861 216.778,171.031 211.95,171.487C204.342,172.204 197.641,169.854 192.117,164.514C190.274,162.733 189.373,160.624 190.919,158.084C191.707,156.789 191.257,155.627 190.166,154.68C189.296,153.932 188.462,154.04 187.668,154.808C186.634,155.811 186.219,157.014 187.074,158.253C188.805,160.757 187.883,162.856 186.081,164.668C179.953,170.827 172.525,172.921 164.067,171.195C161.262,170.622 158.871,169.117 158.42,165.994C157.99,163.014 159.792,161.038 162.117,159.487ZM176.334,157.378C177.732,157.357 179.432,157.393 181.055,157.992C183.384,158.852 184.029,160.367 183.031,162.594C180.732,167.719 171.184,171.692 165.885,169.711C164.048,169.025 162.563,167.919 162.245,165.825C161.902,163.562 162.926,161.827 164.698,160.572C168.087,158.181 171.932,157.311 176.334,157.378ZM196.306,164.054C199.659,167.704 203.893,169.746 207.855,169.972C212.632,170.059 215.315,168.589 215.98,166.117C216.666,163.552 215.161,161.069 211.716,159.369C207.553,157.316 203.161,156.543 198.558,157.419C194.268,158.238 193.326,160.813 196.306,164.054Z" fill="#000" stroke="" stroke-width="" stroke-miterlimit=""/>
		<path d="M49.165,66.266V66.256C47.991,66.256 46.818,66.252 45.645,66.248L45.636,66.248H45.632C42.629,66.239 39.628,66.23 36.627,66.281C34.702,66.312 33.934,65.605 33.822,63.609C33.299,54.455 35.849,50.498 45.76,51.051C47.853,51.168 49.951,51.141 52.05,51.113C53.535,51.094 55.022,51.075 56.506,51.107C61.723,51.215 64.831,54.25 64.871,59.426C64.877,60.165 64.888,60.825 64.898,61.414L64.898,61.417C64.943,63.971 64.964,65.191 64.365,65.769C63.816,66.298 62.748,66.287 60.7,66.266H60.698C60.033,66.259 59.263,66.251 58.375,66.261C56.267,66.282 54.156,66.276 52.045,66.271C51.085,66.268 50.125,66.266 49.165,66.266Z" fill="#000" stroke="" stroke-width="" stroke-miterlimit=""/>
	</svg>
