<?xml version="1.0" encoding="utf-8"?>
	<svg version="1.1" xmlns="http://www.w3.org/2000/svg" xmlns:xlink="http://www.w3.org/1999/xlink" x="0px" y="0px" width="240.0" height="240.0" xml:space="preserve">
		<path d="M121.172,199.219C112.363,199.219 103.789,197.598 95.664,194.395C93.164,193.418 91.953,190.586 92.93,188.105C93.906,185.605 96.738,184.395 99.219,185.371C106.191,188.125 113.574,189.512 121.172,189.512C153.828,189.512 180.117,163.965 181.035,131.328C181.113,128.652 183.32,126.523 186.016,126.602C188.691,126.68 190.801,128.906 190.742,131.582C189.687,169.512 159.121,199.219 121.172,199.219V199.219ZM76.543,181.367C75.332,181.367 74.141,180.918 73.203,180.02C59.844,167.324 52.207,150.195 51.641,131.797C51.602,131.172 51.602,130.41 51.602,129.629C51.602,107.012 62.656,85.723 81.172,72.676C92.91,64.414 106.738,60.039 121.172,60.039C135.02,60.039 148.359,64.082 159.766,71.738C161.992,73.223 162.578,76.25 161.094,78.477C159.59,80.703 156.582,81.309 154.355,79.805C144.551,73.223 133.086,69.746 121.172,69.746C108.75,69.746 96.855,73.516 86.758,80.625C70.82,91.855 61.309,110.176 61.309,129.629C61.309,130.195 61.309,130.781 61.348,131.348C61.836,147.324 68.418,162.07 79.902,172.988C81.836,174.844 81.914,177.91 80.059,179.844C79.102,180.859 77.813,181.367 76.543,181.367V181.367Z" fill="#000" stroke="" stroke-width="" stroke-miterlimit=""/>
		<path d="M56.504,136.504H56.211C36.055,135.293 20.273,118.516 20.273,98.301C20.273,77.207 37.441,60.039 58.535,60.039C69.766,60.039 80.391,64.941 87.676,73.516C89.414,75.566 89.16,78.613 87.129,80.352C85.098,82.09 82.031,81.836 80.293,79.805C74.863,73.418 66.934,69.746 58.555,69.746C42.773,69.746 29.961,82.559 29.961,98.301C29.961,113.379 41.738,125.918 56.777,126.816C59.453,126.973 61.484,129.277 61.328,131.953C61.191,134.531 59.043,136.504 56.504,136.504V136.504ZM185.879,136.328C184.668,136.328 183.496,135.879 182.598,135.059C181.543,134.102 180.977,132.734 181.016,131.309C181.035,130.742 181.035,130.195 181.035,129.629C181.035,109.57 171.055,90.938 154.355,79.805C153.184,79.023 152.402,77.754 152.227,76.348C152.051,74.941 152.52,73.535 153.477,72.48C160.742,64.57 171.035,60.039 181.738,60.039C191.074,60.039 200.078,63.438 207.07,69.609C209.082,71.387 209.277,74.453 207.5,76.465C205.723,78.477 202.656,78.672 200.645,76.895C195.43,72.285 188.711,69.746 181.738,69.746C175.586,69.746 169.629,71.758 164.727,75.371C180.059,87.656 189.453,105.801 190.625,125.449C202.148,121.68 210.293,110.82 210.293,98.281C210.293,95.977 210.02,93.711 209.492,91.504C208.867,88.906 210.449,86.27 213.066,85.645C215.684,85.02 218.301,86.602 218.926,89.219C219.648,92.168 220,95.234 220,98.301C220,117.578 205.586,133.926 186.484,136.289C186.289,136.309 186.074,136.328 185.879,136.328V136.328Z" fill="#000" stroke="" stroke-width="" stroke-miterlimit=""/>
		<path d="M77.988,121.191C77.988,123.061 78.731,124.855 80.053,126.177C81.376,127.499 83.169,128.242 85.039,128.242C86.909,128.242 88.702,127.499 90.025,126.177C91.347,124.855 92.09,123.061 92.09,121.191C92.09,119.321 91.347,117.528 90.025,116.206C88.702,114.883 86.909,114.141 85.039,114.141C83.169,114.141 81.376,114.883 80.053,116.206C78.731,117.528 77.988,119.321 77.988,121.191V121.191Z" fill="#000" stroke="" stroke-width="" stroke-miterlimit=""/>
		<path d="M150.234,121.191C150.234,123.061 150.977,124.855 152.3,126.177C153.622,127.499 155.415,128.242 157.285,128.242C159.155,128.242 160.949,127.499 162.271,126.177C163.593,124.855 164.336,123.061 164.336,121.191C164.336,119.321 163.593,117.528 162.271,116.206C160.949,114.883 159.155,114.141 157.285,114.141C155.415,114.141 153.622,114.883 152.3,116.206C150.977,117.528 150.234,119.321 150.234,121.191Z" fill="#000" stroke="" stroke-width="" stroke-miterlimit=""/>
		<path d="M127.772,160.215H114.569C111.815,160.215 109.198,159.004 107.362,156.914C105.468,154.746 104.608,151.836 105.018,148.965L107.401,131.719C108.378,124.746 114.296,119.473 121.171,119.473C128.046,119.473 133.964,124.746 134.94,131.719L137.323,148.965C137.714,151.836 136.874,154.746 134.979,156.914C133.143,159.023 130.526,160.215 127.772,160.215V160.215ZM121.171,124.336C116.698,124.336 112.85,127.793 112.206,132.402L109.823,149.648C109.608,151.133 110.057,152.637 111.034,153.75C111.952,154.805 113.221,155.391 114.589,155.391H127.792C129.159,155.391 130.409,154.805 131.346,153.75C132.323,152.637 132.753,151.152 132.557,149.648L130.175,132.402C129.491,127.793 125.643,124.336 121.171,124.336Z" fill="#000" stroke="" stroke-width="" stroke-miterlimit=""/>
	</svg>
