<?xml version="1.0" encoding="utf-8"?>
	<svg version="1.1" xmlns="http://www.w3.org/2000/svg" xmlns:xlink="http://www.w3.org/1999/xlink" x="0px" y="0px" width="240.0" height="240.0" xml:space="preserve">
		<path d="M20.02,152.541C19.842,148.813 20.863,145.366 22.704,142.182C42.137,108.501 61.576,74.826 81.044,41.163C82.833,38.065 85.237,35.513 88.529,33.93C96.181,47.139 103.781,60.389 111.518,73.547C114.346,78.36 116.755,83.43 120.151,87.898C120.111,88.145 120.07,88.397 120.03,88.644C117.185,93.479 114.3,98.297 111.501,103.161C102.043,119.589 92.619,136.034 83.177,152.473C83.005,152.478 82.856,152.53 82.718,152.627C61.817,152.599 40.916,152.57 20.02,152.541Z" fill="#000" stroke="" stroke-width="" stroke-miterlimit=""/>
		<path d="M82.706,152.622C82.844,152.524 82.999,152.473 83.165,152.467C107.715,152.467 132.264,152.473 156.808,152.473C156.968,152.524 157.129,152.582 157.284,152.633C157.668,153.39 158.018,154.17 158.443,154.905C168.434,172.278 178.438,189.647 188.435,207.02C185.516,209.068 182.172,209.86 178.707,209.865C139.537,209.911 100.367,209.906 61.197,209.877C57.824,209.877 54.595,209.097 51.75,207.141C51.807,206.86 51.79,206.539 51.928,206.309C57.887,196.019 63.893,185.752 69.812,175.445C74.166,167.862 78.41,160.233 82.706,152.622Z" fill="#000" stroke="" stroke-width="" stroke-miterlimit=""/>
		<path d="M157.297,152.633C157.136,152.581 156.976,152.524 156.821,152.472C156.597,151.956 156.419,151.406 156.138,150.918C149.772,139.854 143.411,128.789 137.009,117.742C131.377,108.025 125.693,98.338 120.031,88.638C120.071,88.392 120.112,88.139 120.152,87.887C120.668,87.095 121.213,86.321 121.689,85.507C131.641,68.31 141.587,51.114 151.533,33.918C155.014,35.599 157.423,38.375 159.305,41.644C178.669,75.228 198.022,108.811 217.357,142.412C219.147,145.521 220.128,148.882 219.869,152.524C217.678,152.536 215.487,152.559 213.296,152.559C194.626,152.587 175.962,152.61 157.297,152.633Z" fill="#000" stroke="" stroke-width="" stroke-miterlimit=""/>
		<path d="M157.297,152.633C175.961,152.61 194.626,152.587 213.296,152.558C215.487,152.553 217.678,152.535 219.869,152.524C220.403,156.166 219.29,159.493 217.546,162.55C210.422,175.026 203.218,187.455 195.979,199.862C194.184,202.942 191.798,205.512 188.454,207.02C178.456,189.652 168.453,172.278 158.461,154.904C158.031,154.17 157.681,153.396 157.297,152.633Z" fill="#000" stroke="" stroke-width="" stroke-miterlimit=""/>
		<path d="M82.717,152.622C78.427,160.227 74.176,167.862 69.829,175.439C63.903,185.752 57.898,196.013 51.944,206.303C51.807,206.539 51.824,206.86 51.766,207.135C48.245,205.523 45.767,202.81 43.868,199.535C36.888,187.496 29.942,175.439 22.972,163.393C21.028,160.032 19.835,156.476 20.018,152.541C40.914,152.57 61.816,152.599 82.717,152.622Z" fill="#000" stroke="" stroke-width="" stroke-miterlimit=""/>
		<path d="M151.534,33.924C141.588,51.12 131.642,68.322 121.69,85.512C121.22,86.327 120.669,87.101 120.153,87.893C116.757,83.419 114.348,78.348 111.521,73.541C103.783,60.383 96.183,47.133 88.531,33.924C91.543,31.888 94.933,31.05 98.489,31.039C112.857,30.987 127.225,30.987 141.588,31.039C145.138,31.05 148.557,31.802 151.534,33.924Z" fill="#000" stroke="" stroke-width="" stroke-miterlimit=""/>
	</svg>
