<?xml version="1.0" encoding="utf-8"?>
	<svg version="1.1" xmlns="http://www.w3.org/2000/svg" xmlns:xlink="http://www.w3.org/1999/xlink" x="0px" y="0px" width="240.0" height="240.0" xml:space="preserve">
		<path d="M209.991,58.79C209.991,99.516 209.991,140.248 209.991,180.973C209.603,182.073 209.166,183.159 208.834,184.279C204.372,199.33 190.865,209.848 175.229,209.898C138.494,210.017 101.759,210.053 65.024,209.89C45.701,209.806 30.164,194.269 30.086,174.981C29.938,138.246 30.015,101.511 30.065,64.775C30.079,55.315 33.66,47.3 40.244,40.511C45.659,34.935 52.306,31.805 59.715,30C99.975,30 140.235,30 180.495,30C188.454,31.946 195.461,35.442 201.094,41.625C205.634,46.602 207.981,52.573 209.991,58.79ZM112.256,152.105C112.256,145.324 112.164,138.535 112.298,131.753C112.361,128.708 111.156,127.622 108.153,127.643C94.815,127.735 81.477,127.749 68.147,127.636C64.883,127.608 63.875,128.983 63.903,132.056C64.001,143.871 63.896,155.686 63.973,167.502C64.008,173.042 66.878,175.898 72.503,175.933C84.438,176.01 96.366,175.89 108.301,175.996C111.438,176.024 112.354,174.664 112.298,171.752C112.178,165.21 112.256,158.654 112.256,152.105ZM152.198,127.672C146.347,127.672 140.503,127.672 134.652,127.672C128.484,127.672 128.695,127.686 128.343,133.861C128.138,137.407 129.442,138.288 132.72,138.239C142.195,138.091 151.67,138.161 161.144,138.211C165.339,138.232 165.853,138.753 165.889,142.821C165.938,148.785 165.762,154.756 165.959,160.72C166.079,164.245 164.683,165.528 161.25,165.478C152.713,165.365 144.169,165.45 135.632,165.45C128.399,165.45 128.512,165.457 128.322,172.5C128.251,175.178 129.287,176.01 131.783,175.996C143.718,175.94 155.646,176.024 167.58,175.94C173.284,175.898 176.28,172.944 176.329,167.248C176.435,155.433 176.322,143.618 176.399,131.803C176.421,128.807 175.201,127.601 172.205,127.657C165.529,127.756 158.86,127.679 152.198,127.672ZM149.943,63.725C149.943,63.718 149.943,63.718 149.943,63.711C144.564,63.711 139.192,63.704 133.813,63.711C128.04,63.718 128.011,63.753 128.033,69.633C128.033,69.985 128.068,70.338 128.033,70.683C127.694,73.749 129.034,74.737 132.1,74.652C141.793,74.377 151.493,74.335 161.194,74.285C165.303,74.264 165.811,74.807 165.832,78.973C165.874,88.673 165.959,98.374 165.804,108.074C165.741,111.881 167.862,112.141 170.746,112.092C175.786,112.007 176.287,111.796 176.301,108.017C176.35,96.097 176.364,84.176 176.294,72.255C176.258,66.714 173.354,63.831 167.827,63.746C161.863,63.655 155.899,63.725 149.943,63.725ZM90.219,63.718C90.219,63.725 90.219,63.732 90.219,63.739C84.142,63.739 78.065,63.655 71.989,63.767C67.413,63.852 64.248,66.869 64.001,70.972C63.86,73.425 64.65,74.588 67.385,74.532C76.028,74.349 84.678,74.363 93.321,74.342C101.308,74.321 101.308,74.342 101.315,82.392C101.322,88.927 101.357,88.955 108.012,88.807C108.244,88.8 108.477,88.786 108.71,88.8C111.219,88.948 112.312,87.806 112.277,85.261C112.199,79.417 112.157,73.573 112.298,67.736C112.368,64.634 111.008,63.633 108.082,63.69C102.14,63.796 96.176,63.718 90.219,63.718ZM88.174,101.102C82.337,101.102 76.5,101.102 70.663,101.102C63.748,101.102 63.67,101.186 63.952,108.172C63.959,108.405 63.973,108.638 63.973,108.87C63.938,111.063 65.031,112.05 67.202,112.05C81.209,112.036 95.217,112.036 109.224,112.036C111.233,112.036 112.256,111.084 112.242,109.047C112.234,107.876 112.171,106.706 112.284,105.55C112.615,102.187 111.092,100.982 107.793,101.059C101.251,101.215 94.709,101.102 88.174,101.102ZM141.018,146.762C141.018,146.755 141.018,146.755 141.018,146.748C139.382,146.748 137.74,146.748 136.104,146.748C128.322,146.748 128.413,146.748 128.307,154.319C128.272,156.836 129.259,157.653 131.593,157.625C136.739,157.569 141.885,157.618 147.031,157.618C154.461,157.618 154.384,157.618 153.911,150.188C153.742,147.608 152.551,146.691 150.14,146.748C147.102,146.811 144.063,146.762 141.018,146.762ZM138.966,99.48C138.973,99.48 138.98,99.48 138.98,99.48C138.98,96.914 139.002,94.341 138.973,91.775C138.931,87.313 138.635,87.031 134.173,86.989C133.475,86.981 132.77,87.038 132.072,86.989C129.012,86.749 127.92,88.236 127.997,91.183C128.117,95.73 128.018,100.284 128.018,104.838C128.018,112.339 128.293,112.529 135.667,112.078C138.064,111.93 139.002,110.872 138.959,108.581C138.931,105.55 138.966,102.519 138.966,99.48Z" fill="#000" stroke="" stroke-width="" stroke-miterlimit=""/>
		<path d="M101.963,152.049C101.963,155.433 101.886,158.824 101.984,162.207C102.069,165.076 100.715,166.197 97.966,166.176C91.664,166.12 85.354,166.247 79.052,166.106C75.302,166.021 73.934,164.646 73.864,160.952C73.744,154.53 73.843,148.108 73.8,141.686C73.786,139.282 74.703,137.971 77.29,137.992C84.297,138.041 91.304,138.034 98.312,137.985C100.793,137.964 101.984,139.028 101.956,141.538C101.914,145.042 101.949,148.545 101.949,152.049C101.956,152.049 101.956,152.049 101.963,152.049Z" fill="#000" stroke="" stroke-width="" stroke-miterlimit=""/>
	</svg>
