<?xml version="1.0" encoding="utf-8"?>
	<svg version="1.1" xmlns="http://www.w3.org/2000/svg" xmlns:xlink="http://www.w3.org/1999/xlink" x="0px" y="0px" width="240.0" height="240.0" xml:space="preserve">
		<path d="M108.461,25.713C125.429,23.604 142.964,26.196 158.578,33.164C173.631,39.869 186.89,50.541 196.628,63.842C207.09,78.076 213.502,95.28 214.714,112.915C216.419,134.385 210.459,156.348 198.15,174.024C187.981,188.736 173.579,200.478 157.12,207.467C141.296,214.214 123.609,216.492 106.583,214.041C90.543,211.843 75.144,205.321 62.31,195.468C49.073,185.389 38.579,171.758 32.215,156.39C25.426,140.114 23.406,121.934 26.249,104.546C29.051,87.164 36.89,70.652 48.506,57.43C63.711,40 85.454,28.358 108.461,25.713M117.271,44.408C113.43,45.494 110.591,49.203 110.502,53.186C110.182,58.647 115.324,63.564 120.77,62.96C126.263,62.661 130.576,56.911 129.286,51.559C128.341,46.276 122.37,42.713 117.271,44.408M116.714,82.153C105.124,83.061 94.211,89.714 87.993,99.52C82.967,107.28 81.005,116.918 82.484,126.037C83.754,134.112 87.752,141.72 93.655,147.365C100.056,153.572 108.708,157.397 117.612,157.911C124.684,158.363 131.878,156.804 138.1,153.404C145.44,149.422 151.411,142.963 154.764,135.313C159.056,125.686 159.045,114.258 154.748,104.641C151.343,96.902 145.262,90.385 137.791,86.429C131.374,82.998 123.955,81.523 116.714,82.153M52.756,112.112C48.05,112.395 44.057,116.582 44.01,121.299C43.726,126.331 48.076,131.006 53.113,131.074C58.417,131.42 63.318,126.583 62.977,121.268C62.945,116.037 57.956,111.572 52.756,112.112M187.11,112.133C182.299,112.521 178.348,117.044 178.59,121.861C178.637,126.614 182.735,130.864 187.488,131.064C192.672,131.53 197.567,127.029 197.567,121.829C197.882,116.31 192.588,111.409 187.11,112.133M118.351,178.73C114.29,179.413 110.927,182.954 110.549,187.068C109.878,192.178 114.044,197.273 119.212,197.53C124.611,198.165 129.753,193.327 129.49,187.907C129.558,182.288 123.855,177.587 118.351,178.73L118.351,178.73Z" fill="#00000000" stroke="#000" stroke-width="16.0" stroke-miterlimit=""/>
		<path d="M117.271,44.408C122.37,42.713 128.341,46.276 129.286,51.559C130.576,56.911 126.263,62.661 120.77,62.96C115.324,63.564 110.182,58.647 110.502,53.186C110.591,49.203 113.43,45.494 117.271,44.408L117.271,44.408ZM52.756,112.112C57.956,111.572 62.945,116.037 62.977,121.268C63.318,126.583 58.417,131.42 53.113,131.074C48.076,131.006 43.726,126.331 44.01,121.299C44.057,116.582 48.05,112.395 52.756,112.112L52.756,112.112ZM187.11,112.133C192.588,111.409 197.882,116.31 197.567,121.829C197.567,127.029 192.672,131.53 187.488,131.064C182.735,130.864 178.637,126.614 178.59,121.861C178.348,117.044 182.299,112.521 187.11,112.133L187.11,112.133ZM118.351,178.73C123.855,177.587 129.558,182.288 129.49,187.907C129.753,193.327 124.611,198.165 119.212,197.53C114.044,197.273 109.878,192.178 110.549,187.068C110.927,182.954 114.29,179.413 118.351,178.73L118.351,178.73Z" fill="#000" stroke="#00000000" stroke-width="1.0" stroke-miterlimit=""/>
	</svg>
