<?xml version="1.0" encoding="utf-8"?>
	<svg version="1.1" xmlns="http://www.w3.org/2000/svg" xmlns:xlink="http://www.w3.org/1999/xlink" x="0px" y="0px" width="240.0" height="240.0" xml:space="preserve">
		<path d="M109.263,53.421C106.316,51.877 104.842,49.21 104.842,45.421C104.842,44.579 104.982,43.386 105.263,41.842C105.544,40.158 105.684,38.474 105.684,36.79C105.684,30.474 102.316,26.193 95.579,23.947C93.474,23.246 92.421,22.614 92.421,22.053C92.421,21.351 95.298,21 101.053,21C111.86,21 120.211,22.684 126.105,26.053C132,29.281 134.947,33.561 134.947,38.895C134.947,45.772 131.368,50.614 124.211,53.421H164.211C170.246,43.456 173.684,38.053 174.526,37.21C175.368,36.368 176.211,35.947 177.053,35.947C178.596,35.947 183.439,39.246 191.579,45.842C199.86,52.439 204,56.509 204,58.053C204,59.597 202.596,60.368 199.789,60.368H150.316C157.193,62.895 162.596,65.14 166.526,67.105C170.596,68.93 173.123,70.333 174.105,71.316C175.088,72.158 175.579,73.07 175.579,74.053C175.579,75.877 174.316,76.86 171.789,77C169.544,77.14 166.737,78.474 163.368,81C160,83.526 151.439,90.895 137.684,103.105H179.368C181.053,100.298 183.298,96.719 186.105,92.368C188.912,88.018 190.596,85.491 191.158,84.789C191.86,84.088 192.561,83.737 193.263,83.737C194.667,83.737 197.684,85.772 202.316,89.842C206.947,93.772 211.018,97.421 214.526,100.789C218.175,104.018 220,106.404 220,107.947C220,109.351 218.596,110.053 215.789,110.053H33.053C30.246,110.053 27.719,110.825 25.474,112.368L20,102.474C23.368,102.895 26.877,103.105 30.526,103.105H131.789C135.719,89.912 138.877,75.667 141.263,60.368H46.947C44.14,60.368 41.614,61.14 39.368,62.684L33.895,52.79C37.263,53.21 40.772,53.421 44.421,53.421H109.263ZM68.632,64.579C78.175,64.579 86.596,66.544 93.895,70.474C101.193,74.263 104.842,79.947 104.842,87.526C104.842,91.737 103.298,95.316 100.211,98.263C97.123,101.211 93.474,102.684 89.263,102.684C85.193,102.684 82.105,101.491 80,99.105C77.895,96.719 76.982,94.053 77.263,91.105C77.544,88.158 77.684,85.14 77.684,82.053C77.684,78.825 76.982,76.018 75.579,73.632C74.316,71.105 72.351,69.211 69.684,67.947C67.158,66.544 65.895,65.632 65.895,65.211C65.895,64.789 66.807,64.579 68.632,64.579ZM85.263,128.368H149.895C153.544,121.632 155.719,117.912 156.421,117.211C157.123,116.368 157.825,115.947 158.526,115.947C160.07,115.947 165.263,118.825 174.105,124.579C182.947,130.333 187.368,134.053 187.368,135.737C187.368,137.281 185.123,138.965 180.632,140.789V188.789L181.053,208.158C181.053,209.421 180.702,210.403 180,211.105C179.298,211.807 177.333,212.789 174.105,214.053C171.018,215.316 167.439,216.228 163.368,216.789C159.298,217.351 156.702,217.632 155.579,217.632C154.596,217.632 153.965,217.281 153.684,216.579C153.403,215.877 153.263,214.614 153.263,212.789V202.263H83.579V211.947C83.579,214.053 80.351,215.737 73.895,217C67.579,218.403 62.877,219.105 59.79,219.105C58.667,219.105 58.105,218.544 58.105,217.421L58.526,208.158C58.807,203.947 58.947,200.088 58.947,196.579V136.789C58.947,130.614 58.737,124.509 58.316,118.474C69.544,121.561 78.526,124.86 85.263,128.368ZM83.579,160.158H153.263V135.316H86.105C85.404,136.018 84.561,136.579 83.579,137V160.158ZM153.263,167.105H83.579V195.316H153.263V167.105Z" fill="#000" stroke="" stroke-width="" stroke-miterlimit=""/>
	</svg>
