<?xml version="1.0" encoding="utf-8"?>
	<svg version="1.1" xmlns="http://www.w3.org/2000/svg" xmlns:xlink="http://www.w3.org/1999/xlink" x="0px" y="0px" width="240.0" height="240.0" xml:space="preserve">
		<path d="M67.334,112.779C67.334,141.878 90.986,165.529 120.085,165.529C149.183,165.529 172.835,141.878 172.835,112.779L172.835,112.779L187.17,112.779C187.17,147.361 160.902,175.886 127.252,179.47L127.252,179.47L127.252,205.666L159.218,205.666L159.218,220L80.952,220L80.952,205.666L112.918,205.666L112.918,179.47C79.304,175.886 53,147.361 53,112.779L53,112.779ZM120.085,20C143.844,20 163.195,39.316 163.195,63.111L163.195,63.111L163.195,109.912C163.195,133.671 143.844,153.023 120.085,153.023C96.326,153.023 76.974,133.671 76.974,109.912L76.974,109.912L76.974,63.111C76.974,39.351 96.326,20 120.085,20Z" fill="#000" stroke="#00000000" stroke-width="1.0" stroke-miterlimit=""/>
	</svg>
