<?xml version="1.0" encoding="utf-8"?>
	<svg version="1.1" xmlns="http://www.w3.org/2000/svg" xmlns:xlink="http://www.w3.org/1999/xlink" x="0px" y="0px" width="240.0" height="240.0" xml:space="preserve">
		<path d="M173.869,80.802C181.583,79.398 177.973,77.22 176.047,75.507C166.92,67.406 157.831,59.227 147.978,52.006C131.581,39.985 108.487,40.004 92.042,52.026C82.305,59.14 73.39,67.261 64.282,75.149C61.775,77.317 59.733,79.253 65.115,81.247C55.3,85.38 45.737,88.274 38.158,96.453C43.424,96.501 47.392,93.975 52.929,94.914C43.124,104.283 34.122,113.246 26.679,124.832C33.425,123.767 39.01,121.125 45.389,122.887C42.32,126.584 38.555,129.42 35.545,132.904C28.344,141.238 22.41,150.346 20.184,161.429C19.613,164.255 20.31,164.981 23.107,163.926C25.953,162.842 28.905,162.048 31.848,161.245C33.028,160.925 34.529,160.345 35.361,161.7C36.029,162.774 35.032,163.839 34.529,164.807C31.209,171.137 29.496,177.97 28.102,184.93C27.415,188.366 28.412,190.253 31.693,191.628C40.481,195.325 49.735,196.399 59.056,196.438C99.708,196.593 140.35,196.574 181.003,196.448C190.024,196.419 198.909,195.199 207.388,191.637C211.172,190.05 212.547,187.737 211.734,183.778C210.379,177.138 208.511,170.682 205.336,164.652C204.833,163.694 203.952,162.61 204.784,161.545C205.588,160.519 206.894,160.896 207.949,161.187C210.892,161.99 213.892,162.697 216.699,163.848C219.961,165.194 220.406,163.955 219.729,161.158C219.39,159.754 219.158,158.312 218.712,156.947C214.715,144.703 207.156,134.85 198.009,126.042C196.867,124.938 195.057,124.154 195.212,121.841C201.406,121.648 207.03,123.506 213.428,125.2C206.468,113.275 196.663,104.748 187.11,94.623C192.666,94.275 196.692,96.279 202.181,96.627C194.282,88.352 184.768,85.341 173.869,80.802Z" fill="#000" stroke="" stroke-width="" stroke-miterlimit=""/>
		<path d="M154.599,62.895C164.065,67.251 169.911,74.781 172.186,84.983C174.219,94.12 171.47,102.251 163.862,107.555C158.364,111.388 156.167,116.024 155.528,122.277C154.831,129.139 153.612,135.944 152.547,142.758C150.853,153.569 143.991,160.248 133.218,160.751C124.41,161.167 115.544,161.187 106.736,160.722C96.118,160.17 89.236,153.54 87.571,143.067C86.284,134.985 84.987,126.894 83.99,118.773C83.458,114.446 81.599,111.436 77.95,108.987C70.091,103.703 66.287,96.182 67.768,86.667C69.481,75.643 75.492,67.677 85.432,62.866C85.858,63.244 86.284,63.621 86.71,63.999C85.394,65.015 84,65.935 82.77,67.057C78.366,71.074 75.695,76.098 74.291,81.876C72.559,89 73.624,95.514 79.373,100.305C85.403,105.338 92.508,105.174 99.39,102.231C108.846,98.195 116.889,83.357 115.65,73.107C115.195,69.342 113.027,67.028 109.707,65.586C106.155,64.047 102.719,62.295 100.067,59.362C96.873,55.83 97.599,51.803 102.1,51.571C114.034,50.971 126.046,50.971 137.98,51.571C142.51,51.803 143.197,55.762 140.013,59.333C137.486,62.169 134.215,63.902 130.798,65.335C125.746,67.445 123.732,71.229 124.468,76.465C125.901,86.725 129.733,95.717 138.977,101.37C145.598,105.425 154.957,104.99 160.387,100.75C166.049,96.337 167.966,88.797 165.536,80.618C163.901,75.101 161.113,70.31 156.767,66.486C155.722,65.567 154.648,64.696 153.583,63.805C153.931,63.495 154.27,63.195 154.599,62.895ZM124.352,126.807C124.352,133.708 124.333,140.609 124.362,147.5C124.371,149.891 124.904,151.904 127.652,152.679C135.28,154.818 143.023,150.278 144.417,142.448C145.82,134.56 146.836,126.594 148.075,118.676C148.608,115.269 147.688,113.159 143.923,112.52C137.941,111.514 132.637,108.978 128.156,104.796C127.381,104.07 126.626,102.86 125.32,103.557C124.149,104.186 124.352,105.503 124.352,106.587C124.333,113.333 124.352,120.07 124.352,126.807ZM115.767,127.184C115.767,120.283 115.786,113.391 115.747,106.49C115.737,105.416 115.931,104.07 114.673,103.528C113.366,102.957 112.63,104.148 111.856,104.874C107.491,108.92 102.351,111.485 96.534,112.423C92.266,113.111 91.424,115.434 92.062,119.228C93.292,126.497 94.259,133.814 95.469,141.083C96.844,149.369 101.287,152.863 109.678,152.921C113.947,152.95 115.873,151.179 115.805,146.9C115.708,140.338 115.786,133.766 115.767,127.184Z" fill="#000" stroke="" stroke-width="" stroke-miterlimit=""/>
	</svg>
