<?xml version="1.0" encoding="utf-8"?>
	<svg version="1.1" xmlns="http://www.w3.org/2000/svg" xmlns:xlink="http://www.w3.org/1999/xlink" x="0px" y="0px" width="240.0" height="240.0" xml:space="preserve">
		<path d="M58.323,110.01L58.547,110.01L58.559,129.118C58.562,135.488 58.56,141.857 58.539,148.227L58.491,157.78C58.474,160.26 59.092,161.002 61.649,160.994C88.964,160.9 116.28,160.901 143.597,160.992C146.048,161.001 146.727,160.342 146.767,158.034L146.769,157.798C146.759,138.75 146.791,119.702 146.832,100.654L146.915,62.557L146.915,62.557C146.924,57.652 144.399,55.143 139.494,55.141L66.014,55.114L66.014,55.114C60.647,55.112 58.323,57.45 58.323,62.843L58.323,110.01ZM20.239,156.718C20.498,156.167 20.889,156.061 21.303,156.058L21.554,156.065L21.554,156.065L21.928,156.086C21.969,156.087 22.01,156.088 22.05,156.087L25.418,156.031C26.541,156.017 27.663,156.015 28.783,156.051L29.903,156.101C32.091,156.225 32.801,155.425 32.823,153.361L32.788,144.318L32.788,144.318L32.804,96.629L32.804,96.629L32.86,56.171L32.86,56.171L32.861,39.375C32.862,35.364 36.113,32.112 40.125,32.111L154.306,32.014L154.306,32.014C168.723,32.002 183.141,32 197.558,32C204.033,32 206.926,34.796 206.938,41.344C206.992,72.175 207.046,103.007 207.007,133.838L206.972,152.337C206.964,155.482 207.821,156.51 210.812,156.097C211.491,156.004 212.183,156.009 212.877,156.03L213.918,156.065C214.092,156.069 214.265,156.072 214.438,156.072C214.635,156.072 214.826,156.075 215.012,156.08L215.554,156.105L215.554,156.105L216.063,156.146C219.345,156.479 220.458,157.966 219.835,161.228L219.729,161.731C219.689,161.903 219.645,162.08 219.596,162.261L219.439,162.818C219.411,162.914 219.381,163.01 219.351,163.108C218.184,166.85 214.977,169.035 210.509,169.038L186.433,169.056C174.395,169.06 162.357,169.048 150.319,168.982L149.86,168.987C147.744,169.05 147.1,169.697 147.138,172.086C147.224,177.442 147.231,182.799 147.216,188.156L147.167,200.21L147.167,200.21C147.151,205.207 144.724,207.704 139.781,207.708C114.979,207.73 90.177,207.731 65.375,207.707C60.6,207.702 58.233,205.212 58.219,200.345C58.195,191.273 58.191,182.2 58.179,173.132L58.315,171.962L58.315,171.962L58.373,171.375L58.373,171.375L58.397,171.029L58.397,171.029L58.41,170.717C58.411,170.667 58.411,170.619 58.411,170.573L58.402,170.307C58.347,169.474 58.024,169.13 57.192,168.988L56.927,168.952L56.927,168.952L56.629,168.925L56.629,168.925L56.299,168.908L56.299,168.908L55.737,168.894L55.737,168.894L54.612,168.889L54.612,168.889L51.749,168.883L51.749,168.883L46.021,168.852C42.203,168.832 38.385,168.823 34.57,168.888L31.708,168.952C27.803,169.062 24.376,168.42 21.565,165.572C20.431,164.233 19.56,158.164 20.239,156.718Z" fill="#000" stroke="#00000000" stroke-width="1.0" stroke-miterlimit=""/>
		<path d="M85.783,62.354C84.306,62.5 83.327,63.275 83.352,64.81C83.38,66.486 84.421,67.329 86.084,67.268C87.607,67.211 88.543,66.347 88.539,64.831C88.534,63.127 87.441,62.391 85.783,62.354L85.783,62.354ZM107.128,62.358C103.904,62.358 100.68,62.38 97.456,62.349C95.738,62.333 94.337,62.837 94.302,64.76C94.268,66.657 95.581,67.301 97.338,67.296C103.685,67.281 110.032,67.283 116.38,67.295C118.145,67.298 119.442,66.62 119.383,64.728C119.324,62.81 117.909,62.328 116.196,62.348C113.173,62.384 110.151,62.358 107.128,62.358L107.128,62.358ZM58.323,110.01L58.323,62.843C58.323,57.45 60.647,55.112 66.013,55.114C90.507,55.122 115.001,55.13 139.494,55.141C144.399,55.144 146.924,57.651 146.915,62.557C146.853,94.304 146.752,126.051 146.768,157.798C146.77,160.298 146.13,161.001 143.596,160.992C116.281,160.901 88.965,160.9 61.649,160.993C59.093,161.002 58.474,160.259 58.491,157.781C58.6,141.857 58.547,125.933 58.547,110.01L58.323,110.01Z" fill="#000" stroke="#00000000" stroke-width="1.0" stroke-miterlimit=""/>
	</svg>
