<?xml version="1.0" encoding="utf-8"?>
	<svg version="1.1" xmlns="http://www.w3.org/2000/svg" xmlns:xlink="http://www.w3.org/1999/xlink" x="0px" y="0px" width="240.0" height="240.0" xml:space="preserve">
		<path d="M54.74,183.799C53.431,184.477 52.121,185.15 51.227,185.618C49.977,185.174 49.022,184.543 48.062,184.537C35.156,184.465 22.25,184.483 9.344,184.477C8.161,184.477 6.978,184.477 5.423,184.477C5.423,179.078 5.369,173.926 5.483,168.773C5.501,167.98 6.258,167.182 6.732,166.431C10.846,159.927 14.972,153.441 19.091,146.937C19.668,146.03 20.202,145.094 20.845,144.037C13.819,139.617 7.002,135.329 0,130.921C7.483,120.045 14.833,109.367 22.184,98.689C22.635,98.029 23.127,97.398 23.559,96.726C26.292,92.498 30.754,88.907 28.003,82.673C28.268,82.655 28.538,82.637 28.802,82.619C34.345,86.438 39.894,90.264 45.611,94.203C38.063,105.181 30.664,115.937 23.109,126.927C25.109,128.146 26.941,129.269 29.054,130.56C33.09,124.711 37.258,119.114 40.849,113.169C41.804,111.583 40.993,108.929 40.993,106.16C47.167,110.358 53.028,114.34 59.064,118.435C47.779,135.046 36.639,151.447 25.073,168.479C32.393,167.572 39.3,170.094 46.056,166.413C46.056,169.271 46.056,171.902 46.056,174.64C47.125,174.64 47.954,174.64 49.035,174.64C48.212,167.025 47.407,159.615 46.602,152.198C46.783,152.102 46.963,152.012 47.137,151.916C50.998,158.726 54.854,165.536 58.799,172.496C68.606,168.653 78.227,164.881 87.842,161.11C87.914,161.236 87.986,161.356 88.058,161.482C77.14,168.743 66.216,175.998 55.298,183.258C55.112,183.438 54.926,183.619 54.74,183.799ZM49.941,183.138C49.647,180.484 49.389,178.16 49.131,175.799C48.062,175.968 47.203,176.106 46.182,176.262C46.182,178.634 46.182,180.868 46.182,183.132C47.419,183.138 48.488,183.138 49.941,183.138Z" fill="#000" stroke="" stroke-width="" stroke-miterlimit=""/>
		<path d="M48.27,108.466C50.696,102.755 52.87,97.53 55.188,92.366C55.446,91.795 56.551,91.297 57.266,91.291C74.88,91.231 92.494,91.243 110.366,91.243C110.366,118.958 110.366,146.589 110.366,174.724C107.772,171.938 105.429,169.428 102.913,166.725C98.553,170.761 94.247,174.748 89.767,178.898C91.233,180.646 92.608,182.279 94.259,184.249C84.945,184.249 76.039,184.249 66.754,184.249C67.403,183.552 67.859,182.982 68.394,182.495C75.42,176.106 82.483,169.764 89.449,163.308C90.29,162.527 91.088,161.182 91.094,160.095C91.202,144.583 91.166,129.077 91.166,112.946C82.332,122.597 73.769,131.954 65.109,141.412C70.712,147.658 76.231,153.813 81.996,160.239C78.951,161.398 76.219,162.521 73.414,163.44C72.766,163.65 71.589,163.44 71.162,162.966C64.58,155.603 58.076,148.168 51.374,140.541C61.247,129.81 71.012,119.204 80.771,108.598C81.077,108.887 81.39,109.169 81.696,109.457C72.225,119.769 62.761,130.086 53.092,140.613C59.308,147.646 65.427,154.606 71.619,161.5C72.021,161.951 73.084,162.209 73.673,162.023C75.654,161.398 77.558,160.54 79.738,159.669C74.219,153.507 68.85,147.52 63.367,141.394C72.357,131.581 81.21,121.948 90.007,112.268C90.794,111.403 91.215,110.208 92.212,108.448C77.072,108.466 62.929,108.466 48.27,108.466Z" fill="#000" stroke="" stroke-width="" stroke-miterlimit=""/>
		<path d="M235.449,104.845C230.951,104.845 226.771,104.845 222.399,104.845C222.267,106.4 222.153,107.746 222.021,109.289C216.85,109.289 211.806,109.289 206.491,109.289C206.407,107.968 206.323,106.611 206.221,105.049C200.329,105.049 194.51,105.049 188.534,105.049C188.396,106.52 188.276,107.866 188.138,109.355C182.955,109.355 177.905,109.355 172.656,109.355C172.56,107.866 172.47,106.514 172.362,104.881C167.978,104.881 163.72,104.881 159.336,104.881C159.336,99.83 159.336,95.086 159.336,90.018C163.738,90.018 167.996,90.018 173.124,90.018C172.122,87.94 171.413,86.462 170.62,84.811C176.337,84.811 182.121,84.811 188.126,84.811C188.222,86.396 188.318,87.958 188.426,89.735C194.312,89.735 200.149,89.735 206.743,89.735C206.034,88 205.422,86.498 204.755,84.859C210.274,84.859 216.057,84.859 222.003,84.859C222.099,86.516 222.189,88.084 222.315,90.24C226.711,89.909 230.981,89.591 235.443,89.255C235.449,93.813 235.449,99.104 235.449,104.845Z" fill="#000" stroke="" stroke-width="" stroke-miterlimit=""/>
		<path d="M234.196,153.633C234.346,173.241 217.831,189.528 198.049,189.492C178.309,189.462 161.86,173.073 162.148,153.585C164.166,152.786 164.556,153.759 164.743,155.621C165.944,167.542 171.421,176.886 182.044,182.718C203.334,194.41 228.4,180.916 231.469,156.234C231.8,153.543 231.8,153.543 234.196,153.633Z" fill="#000" stroke="" stroke-width="" stroke-miterlimit=""/>
		<path d="M110.558,84.589C110.558,86.378 110.558,87.838 110.558,89.423C89.869,89.423 69.289,89.423 48.708,89.423C48.642,89.123 48.57,88.822 48.504,88.528C49.345,88.282 50.179,87.838 51.02,87.826C55.116,87.747 59.218,87.843 63.307,87.741C64.16,87.717 65.529,87.321 65.752,86.751C66.538,84.733 67.932,84.552 69.781,84.564C83.27,84.613 96.752,84.589 110.558,84.589Z" fill="#000" stroke="" stroke-width="" stroke-miterlimit=""/>
		<path d="M104.458,188.135C103.665,188.675 102.867,189.222 101.798,189.948C98.549,186.441 95.264,182.904 91.727,179.09C95.396,175.685 98.987,172.352 102.747,168.863C106.23,172.617 109.521,176.166 112.74,179.637C109.869,182.586 107.119,185.414 104.362,188.237C104.368,188.243 104.458,188.135 104.458,188.135Z" fill="#000" stroke="" stroke-width="" stroke-miterlimit=""/>
		<path d="M117.608,104.821C117.308,103.614 116.749,102.401 116.749,101.194C116.737,86.09 116.803,70.992 116.845,55.888C116.845,55.528 116.809,55.174 116.749,54.141C112.293,60.615 108.198,66.566 103.892,72.818C109.218,75.328 107.333,79.802 107.08,83.886C105.507,80.283 108.378,74.944 102.246,73.22C107.429,65.719 112.335,58.627 117.236,51.528C117.422,51.57 117.608,51.619 117.794,51.661C117.794,52.303 117.794,52.946 117.794,53.588C117.812,69.689 117.836,85.79 117.836,101.896C117.836,102.887 117.668,103.878 117.572,104.881C117.56,104.893 117.608,104.821 117.608,104.821Z" fill="#000" stroke="" stroke-width="" stroke-miterlimit=""/>
		<path d="M117.662,121.036C117.662,136.302 117.662,151.573 117.662,166.839C117.452,166.839 117.241,166.839 117.031,166.839C117.031,151.585 117.031,136.338 117.031,121.084C117.241,121.072 117.452,121.054 117.662,121.036Z" fill="#000" stroke="" stroke-width="" stroke-miterlimit=""/>
		<path d="M119.23,165.716C119.23,150.805 119.23,135.887 119.23,120.976C119.441,120.976 119.645,120.976 119.855,120.976C119.855,135.893 119.855,150.811 119.855,165.728C119.645,165.722 119.435,165.722 119.23,165.716Z" fill="#000" stroke="" stroke-width="" stroke-miterlimit=""/>
		<path d="M190.72,183.949C185.783,182.66 181.13,180.107 177.256,176.346C166.909,166.299 165.185,151.261 173.298,137.401C170.363,139.213 167.58,140.934 164.829,142.635C162.002,144.382 159.209,146.109 156.321,147.892V126.783C158.309,127.395 160.279,128.002 162.248,128.609C162.462,128.6 162.676,128.589 162.891,128.579C163.106,128.568 163.32,128.557 163.534,128.548C164.833,127.806 166.134,127.066 167.387,126.353C168.538,125.698 169.648,125.066 170.68,124.477C167.123,120.859 163.617,117.288 160.068,113.674C159.081,112.669 158.091,111.66 157.096,110.646C156.753,113.07 156.416,115.426 156.069,117.859C155.954,118.664 155.838,119.476 155.72,120.303H148.946V133.365C148.945,135.882 148.932,138.4 148.92,140.917C148.888,147.209 148.857,153.499 148.994,159.783C149.078,163.62 147.919,166.527 144.46,168.575C150.153,169.782 154.928,168.995 158.015,163.29C158.091,163.399 158.169,163.508 158.247,163.617C158.328,163.73 158.409,163.844 158.489,163.957V183.949H114.715V168.539C119.291,167.356 123.435,165.14 126.75,161.506C128.438,159.657 129.284,157.657 129.26,155.039C129.181,147.411 129.209,139.783 129.236,132.155C129.246,129.381 129.256,126.608 129.26,123.834C129.26,122.771 129.26,121.708 128.588,120.633V134.464C127.477,134.548 126.642,134.614 125.513,134.704V120.429H113.094C114.133,116.828 115.116,113.427 116.08,110.094C116.585,108.347 117.084,106.619 117.584,104.891C120.043,104.73 122.503,104.568 125.303,104.383V88.234H128.456V104.076C128.672,104.082 128.888,104.094 129.104,104.1C129.12,103.839 129.142,103.578 129.163,103.316C129.206,102.79 129.248,102.264 129.248,101.734C129.284,94.744 129.308,87.759 129.327,80.769L129.327,80.72C129.338,75.881 129.338,75.87 132.924,72.644C128.858,66.716 124.768,60.753 120.685,54.789C120.492,54.819 120.3,54.849 120.108,54.874V103.932C119.85,103.932 119.592,103.932 119.327,103.926V51C124.48,58.447 129.369,65.515 134.509,72.95C130.124,74.968 130.31,78.461 130.51,82.218C130.547,82.921 130.585,83.634 130.594,84.348H148.934C148.934,85.917 148.934,87.445 148.933,88.946C148.932,91.869 148.93,94.691 148.934,97.512C148.94,101.632 151.811,104.521 155.967,104.587C156.256,104.59 156.544,104.607 156.944,104.629C157.217,104.645 157.541,104.663 157.955,104.683C156.24,108.035 158.168,109.767 160.097,111.499C160.417,111.787 160.738,112.075 161.041,112.37C163.638,114.887 166.25,117.39 168.926,119.955C170.088,121.068 171.261,122.193 172.452,123.336C173.937,122.447 175.456,121.552 176.997,120.645C181.32,118.099 185.806,115.456 190.15,112.592C190.967,112.053 191.333,110.831 191.738,109.483C191.937,108.82 192.145,108.127 192.42,107.469C194.066,108.041 195.78,108.566 197.521,109.1C201.503,110.319 205.623,111.581 209.379,113.541C215.629,116.8 221.508,120.79 227.368,124.767C228.31,125.406 229.252,126.045 230.194,126.681C232.879,128.488 235.299,129.131 238.151,127.413C238.473,127.221 238.859,127.127 239.302,127.02C239.521,126.967 239.755,126.91 240.001,126.837V149.652C237.909,148.168 235.892,146.738 233.875,145.308C230.676,143.04 227.478,140.772 223.979,138.289C228.555,146.138 229.66,153.753 227.816,161.663C225.966,169.608 221.462,175.835 214.556,180.201C211.829,181.926 208.924,183.171 205.945,183.949H190.72ZM206.881,161.464C211.205,156.15 209.758,149.357 203.302,144.805C205.32,142.655 207.229,140.625 209.109,138.644C215.277,141.634 219.366,150.631 217.481,159.134C215.685,167.242 208.028,173.854 199.807,174.244C190.216,174.694 182.409,169.265 179.562,160.173C177.04,152.108 180.397,142.968 187.489,138.524C188.529,139.579 189.566,140.632 190.6,141.683C191.585,142.684 192.567,143.683 193.549,144.679C186.637,150.601 185.538,157.146 190.732,162.299C195.356,166.887 202.779,166.503 206.881,161.464ZM197.078,132.812C197.549,132.369 198.04,131.907 198.545,131.431C200.467,133.251 202.191,134.884 204.04,136.638C203.217,137.38 202.408,138.11 201.591,138.847C200.537,139.798 199.471,140.761 198.347,141.772C197.34,140.57 196.228,139.242 195.054,137.842C194.575,137.272 194.087,136.689 193.591,136.097C194.539,135.203 195.73,134.081 197.078,132.812ZM198.103,124.691C195.088,124.825 192.147,124.955 189.405,125.077C189.921,124.775 190.487,124.437 191.093,124.076C192.796,123.061 194.807,121.862 196.858,120.741C197.428,120.429 198.419,120.387 198.984,120.675C200.665,121.531 202.298,122.485 203.861,123.397C204.424,123.727 204.979,124.051 205.524,124.363C203.046,124.473 200.55,124.583 198.103,124.691Z" fill="#000" stroke="" stroke-width="" stroke-miterlimit=""/>
		<path d="M117.584,104.891C117.59,104.868 117.597,104.844 117.604,104.821L117.556,104.893C117.565,104.892 117.574,104.892 117.584,104.891Z" fill="#000" stroke="" stroke-width="" stroke-miterlimit=""/>
	</svg>
