<?xml version="1.0" encoding="utf-8"?>
	<svg version="1.1" xmlns="http://www.w3.org/2000/svg" xmlns:xlink="http://www.w3.org/1999/xlink" x="0px" y="0px" width="240.0" height="240.0" xml:space="preserve">
		<path d="M208.593,109.971C208.984,113.32 209.179,116.689 209.179,120.06C209.179,167.589 170.648,206.12 123.119,206.12C102.681,206.12 83.906,198.994 69.144,187.093C93.83,182.12 120.825,171.99 147.371,156.837L148.676,156.088L150.907,154.788C173.389,141.554 192.844,126.218 208.34,110.234L208.595,109.971H208.593ZM123.119,34C140.192,34 156.103,38.971 169.486,47.546C193.679,42.357 212.014,44.48 217.985,55.033C228.961,74.432 193.99,114.979 139.874,145.597C85.758,176.213 32.991,185.307 22.014,165.907C16.463,156.094 22.667,140.871 37.158,124.259C37.093,122.86 37.06,121.46 37.06,120.059C37.06,72.532 75.59,34 123.119,34ZM39.484,140.426L39.327,140.647C32.737,150.063 30.712,157.013 32.188,159.623C33.514,161.967 39.301,163.694 48.778,163.441C44.577,156.262 41.446,148.509 39.484,140.426V140.426ZM182.232,57.169L181.911,57.212C189.123,63.958 195.125,71.892 199.655,80.668C207.06,70.524 209.372,62.995 207.822,60.255C206.117,57.242 197.042,55.248 182.232,57.169V57.169Z" fill="#000" stroke="" stroke-width="" stroke-miterlimit=""/>
	</svg>
