<?xml version="1.0" encoding="utf-8"?>
	<svg version="1.1" xmlns="http://www.w3.org/2000/svg" xmlns:xlink="http://www.w3.org/1999/xlink" x="0px" y="0px" width="240.0" height="240.0" xml:space="preserve">
		<path d="M208.386,30C209.703,30 210,30.297 210,31.614C209.962,90.538 209.962,149.462 210,208.386C210,209.703 209.704,210.005 208.386,210.001C199.98,209.975 191.575,209.967 183.17,209.965L157.955,209.967L157.955,209.967C159.313,205.115 162.345,201.615 166.769,199.345C170.154,197.609 173.641,196.073 177.059,194.398C182.091,191.933 183.843,187.292 181.739,182.059C174.512,164.076 167.279,146.094 160.041,128.114C157.572,121.979 154.044,120.014 147.532,120.944C132.986,123.022 118.433,125.052 103.881,127.088C94.489,128.403 85.093,129.684 75.701,131.002C71.021,131.658 68.857,134.089 68.753,138.733C68.706,140.782 68.698,142.832 68.628,144.88C68.096,160.38 67.573,175.88 67.003,191.378C66.775,197.575 66.82,203.785 66.231,209.967L30.033,209.967C30.033,150.516 30.038,91.065 30,31.614C30,30.297 30.297,30 31.614,30C90.538,30.038 149.462,30.038 208.386,30ZM114.731,146.625C118.811,146.588 122.155,149.89 122.146,153.947C122.138,157.944 118.891,161.179 114.861,161.207C110.75,161.235 107.458,157.98 107.471,153.898C107.484,149.874 110.69,146.661 114.731,146.625ZM136.385,143.465C140.5,143.484 143.695,146.758 143.644,150.903C143.594,154.97 140.401,158.091 136.32,158.064C132.148,158.036 129.001,154.83 129.053,150.661C129.104,146.631 132.348,143.447 136.385,143.465Z" fill="#000" stroke="#00000000" stroke-width="1.0" stroke-miterlimit=""/>
	</svg>
