<?xml version="1.0" encoding="utf-8"?>
	<svg version="1.1" xmlns="http://www.w3.org/2000/svg" xmlns:xlink="http://www.w3.org/1999/xlink" x="0px" y="0px" width="240.0" height="240.0" xml:space="preserve">
		<path d="M77.822,120.203C62.201,112.401 48.559,105.89 35.228,98.808C29.781,95.913 21.389,95.487 20.637,87.521C19.607,76.529 18.756,65.21 27.147,55.919C33.183,49.229 40.855,46.17 49.557,46.138C84.774,45.974 119.991,45.941 155.191,46.121C166.576,46.187 175.801,51.028 181.069,61.432C183.653,66.535 186.385,66.355 190.687,64.016C197.36,60.417 204.263,57.277 211.035,53.842C216.727,50.963 218.772,53.04 219.132,58.978C219.999,73.601 219.802,74.19 206.537,80.799C182.77,92.625 159.003,104.418 135.252,116.261C133.371,117.21 130.345,117.619 130.149,119.81C129.903,122.804 133.338,123 135.35,123.998C160.082,136.299 184.88,148.468 209.628,160.736C218.167,164.956 222.338,176.57 218.657,185.223C217.005,189.1 214.47,187.726 212,186.531C204.688,182.982 197.344,179.498 190.179,175.687C186.074,173.495 183.62,173.56 181.281,178.287C175.769,189.394 166.02,193.925 153.981,193.941C119.582,193.99 85.183,194.187 50.783,193.876C23.712,193.631 17.578,172.612 20.768,151.347C21.455,146.734 26.133,145.557 29.699,143.79C44.944,136.217 60.254,128.791 77.822,120.203ZM102.112,172.055C102.112,172.039 102.112,172.023 102.112,172.006C119.173,172.006 136.217,172.039 153.278,171.974C156.958,171.957 160.442,171.107 161.489,166.854C162.585,162.454 159.657,160.524 156.304,158.855C140.045,150.807 123.818,142.711 107.576,134.646C105.155,133.452 102.783,132.177 99.904,133.6C81.731,142.661 63.477,151.527 45.418,160.802C40.822,163.157 41.411,168.669 46.285,170.763C48.673,171.794 51.552,171.974 54.202,171.99C70.167,172.104 86.131,172.055 102.112,172.055ZM102.93,68.678C102.93,68.694 102.93,68.694 102.93,68.711C85.608,68.711 68.286,68.694 50.963,68.727C47.283,68.727 43.734,69.316 42.621,73.601C41.476,77.969 45.058,79.146 47.905,80.553C64.36,88.781 80.897,96.878 97.303,105.187C101.065,107.085 104.288,107.035 108.017,105.138C123.704,97.172 139.489,89.419 155.224,81.567C158.626,79.866 162.519,78.394 161.505,73.405C160.458,68.285 156.189,68.711 152.46,68.694C135.955,68.629 119.451,68.678 102.93,68.678Z" fill="#000" stroke="" stroke-width="" stroke-miterlimit=""/>
	</svg>
