<?xml version="1.0" encoding="utf-8"?>
	<svg version="1.1" xmlns="http://www.w3.org/2000/svg" xmlns:xlink="http://www.w3.org/1999/xlink" x="0px" y="0px" width="240.0" height="240.0" xml:space="preserve">
		<path d="M168.775,239.712C169.31,228.59 174.385,219.14 179.616,209.688C184.954,200.043 192.298,191.723 197.459,181.96C204.241,169.132 205.763,155.821 201.857,141.879C201.431,140.36 200.853,138.864 200.169,137.441C195.654,128.066 188.673,124.445 178.407,126.068C177.083,126.277 175.732,126.336 174.417,126.584C172.394,126.965 171.248,126.208 170.534,124.265C166.792,114.074 158.882,110.502 148.658,110.536C139.716,110.567 139.633,110.529 137.024,101.966C134.263,92.902 133.946,83.453 132.936,74.117C131.571,61.494 132.573,48.66 129.56,36.187C129.16,34.533 128.737,32.849 128.034,31.312C127.082,29.231 125.483,27.469 123.064,27.527C120.619,27.585 119.146,29.49 118.346,31.613C116.388,36.801 115.743,42.301 115.504,47.763C114.572,69.039 114.993,90.333 114.929,111.621C114.912,117.626 114.556,123.594 113.369,129.491C110.788,142.314 104.062,146.513 91.421,143.178C85.39,141.586 80.233,138.423 75.58,134.328C67.986,127.643 59.322,123.133 49.195,121.788C42.427,120.891 38.207,123.547 37.168,128.966C36.524,132.331 37.593,134.328 40.952,135.298C46.101,136.787 51.4,137.652 56.427,139.694C67.286,144.105 73.705,152.528 78.04,162.888C79.735,166.937 81.204,171.103 82.033,175.444C83.785,184.61 88.001,192.733 93.039,200.401C100.899,212.364 104.355,225.705 106.12,239.652C102.948,239.658 99.395,240.564 96.704,239.429C93.698,238.162 94.967,234.023 94.261,231.195C91.854,221.544 86.864,213.13 81.873,204.755C77.643,197.656 74.405,190.281 72.594,182.207C70.931,174.783 68.187,167.779 63.904,161.374C60.195,155.826 54.737,153.094 48.749,151.1C45.747,150.1 42.628,149.45 39.558,148.654C29.915,146.153 25.562,138.799 27.42,128.916C30.179,114.238 40.45,110.611 54.527,113.201C65.232,115.171 74.343,120.639 82.47,127.785C86.101,130.979 90.117,133.405 94.951,134.41C100.619,135.589 102.505,134.568 103.895,128.872C105.175,123.625 105.375,118.224 105.452,112.868C105.624,100.878 105.374,88.883 105.623,76.896C105.702,73.114 104.23,70.841 101.402,68.639C95.576,64.101 90.189,59.025 88.025,51.628C83.65,36.667 84.38,22.369 95.944,10.722C110.779,-4.221 134.93,-2.951 148.76,10.845C163.247,25.296 163.635,54.552 145.336,67.688C143.305,69.146 142.426,71.17 142.631,73.742C143.271,81.762 143.974,89.769 145.565,97.674C146.097,100.321 147.293,101.508 150.244,101.491C161.316,101.422 170.613,105.044 176.485,115.117C177.165,116.285 177.971,116.727 179.478,116.504C195.213,114.167 206.676,125.052 210.804,138.792C217.738,161.875 212.949,182.828 198.939,202.135C190.854,213.275 182.244,224.174 177.942,237.575C177.387,239.303 176.281,239.843 174.642,239.804C172.686,239.758 170.731,239.742 168.775,239.712" fill="#000" stroke="#00000000" stroke-width="1.0" stroke-miterlimit=""/>
	</svg>
