<?xml version="1.0" encoding="utf-8"?>
	<svg version="1.1" xmlns="http://www.w3.org/2000/svg" xmlns:xlink="http://www.w3.org/1999/xlink" x="0px" y="0px" width="240.0" height="240.0" xml:space="preserve">
		<path d="M143.97,123.716C142.657,123.716 141.343,124.373 140.03,125.03C138.716,126.343 136.746,127.657 134.776,129.627C132.806,131.597 131.493,133.567 130.179,136.194C128.866,138.164 128.209,141.448 127.552,144.731L114.418,200.552L132.149,200.552L146.597,138.821C147.254,136.851 147.254,135.537 147.91,134.224C147.91,132.91 148.567,132.254 148.567,130.94L148.567,128.313C148.567,126.343 147.91,125.03 147.254,124.373C146.597,123.716 145.94,123.716 143.97,123.716L143.97,123.716ZM109.164,123.716C107.194,123.716 105.224,125.03 102.597,127.657C99.97,130.284 98,132.91 96.687,135.537C95.373,138.164 94.06,141.448 93.403,145.388L83.552,188.075L101.284,188.075L113.104,138.164C113.761,136.851 113.761,135.537 113.761,134.224C113.761,133.567 113.761,132.254 114.418,131.597L114.418,129.627C114.418,127.657 113.761,125.687 113.104,125.03C111.791,123.716 110.478,123.716 109.164,123.716L109.164,123.716ZM198.478,92.194C198.478,72.493 183.373,57.388 164.328,57.388C154.478,57.388 145.94,61.328 140.03,67.896C131.493,50.821 113.761,39 93.403,39C64.507,39 40.866,62.642 40.866,92.194L40.866,92.851C23.134,96.134 10,111.896 10,130.94C10,152.612 27.075,169.687 48.09,169.687L65.164,169.687C65.164,169.687 69.104,169.687 70.418,164.433L77.642,130.94C77.642,130.284 78.299,128.313 78.299,127C78.955,125.03 78.955,123.716 78.955,122.403C78.955,120.433 78.299,119.776 77.642,119.119C76.985,118.463 75.015,117.806 73.045,117.806L73.701,113.866L90.119,113.209L96.687,113.209L93.403,126.343L94.06,126.343C96.687,123.06 99.313,119.776 101.94,117.806C104.567,115.836 106.537,114.522 109.164,113.866C111.791,113.209 114.418,112.552 117.045,112.552C120.985,112.552 124.269,113.866 126.896,115.836C129.522,117.806 130.179,121.09 130.836,125.03C134.119,120.433 137.403,117.149 141.343,115.179C144.627,113.209 148.567,111.896 153.164,111.896C157.104,111.896 160.388,113.209 163.015,115.179C165.642,117.806 166.299,121.09 166.299,125.03C166.299,127.657 165.642,130.94 164.985,134.224L159.731,156.552C159.075,158.522 159.075,159.836 159.075,161.149L159.075,163.776C159.075,165.746 159.731,167.06 160.388,167.716C161.045,168.373 163.015,169.03 164.985,169.03L191.91,169.03C212.925,169.03 230,151.955 230,130.284C230,111.239 216.209,95.478 198.478,92.194L198.478,92.194Z" fill="#000" stroke="#00000000" stroke-width="1.0" stroke-miterlimit=""/>
	</svg>
