<?xml version="1.0" encoding="utf-8"?>
	<svg version="1.1" xmlns="http://www.w3.org/2000/svg" xmlns:xlink="http://www.w3.org/1999/xlink" x="0px" y="0px" width="240.0" height="240.0" xml:space="preserve">
		<path d="M156.371,23.419C157.812,24.163 157.554,25.13 156.348,25.761C154.79,26.576 153.1,27.136 151.489,27.854C147.747,29.521 143.962,31.118 140.735,33.729C137.183,36.602 137.473,39.639 141.632,41.475C146.545,43.643 151.845,44.757 156.777,46.921C174.328,54.621 188.437,66.195 197.69,83.204C210.378,106.527 205.981,135.258 189.902,153.545C179.501,165.373 166.188,172.236 151.257,176.388C150.278,176.66 149.188,176.692 148.131,177.518C149.617,178.4 150.953,179.146 152.243,179.967C164.223,187.595 172.354,197.983 175.214,212.123C175.62,214.13 175.89,216.157 175.851,218.223C175.826,219.482 175.293,220.041 174.054,219.993C173.489,219.971 172.923,220 172.358,220L66.367,220L66.367,220L66.154,220L66.154,220L65.755,219.999C62.815,219.985 62.725,219.77 62.999,216.467C63.762,207.256 67.253,199.119 72.984,191.908C77.759,185.9 83.692,181.301 90.563,177.647C89.937,176.754 89.041,176.791 88.289,176.593C76.95,173.614 66.391,168.953 57.249,161.532C42.353,149.441 34.603,133.824 34.033,114.52C33.711,103.648 35.759,93.447 40.759,83.843C46.582,72.658 54.837,63.566 65.153,56.385C74.571,49.828 84.784,44.633 95.076,39.622C109.442,32.628 124.192,26.558 139.203,21.058C145.613,18.709 150.937,20.615 156.371,23.419ZM114.05,57.107C94.566,58.438 77.733,65.773 64.23,79.983C54.541,90.181 49.022,102.317 49,116.629C49.029,126.215 51.367,135.52 55.355,142.493C63.25,156.301 75.549,164.328 90.326,168.923C106.073,173.819 122.16,174.347 138.31,171.418C152.941,168.765 166.208,163.138 176.531,151.951C187.06,140.541 190.941,126.794 189.518,111.647C188.011,95.606 179.729,83.084 167.303,73.306C151.711,61.037 133.842,55.755 114.05,57.107ZM124.285,143.44C127.089,146.102 128.067,149.468 128.025,153.058C128.045,156.983 127.018,160.332 124.187,162.963C121.283,165.663 117.572,165.676 114.654,163.017C109.38,158.215 109.353,148.176 114.6,143.345C117.588,140.594 121.317,140.624 124.285,143.44ZM70.434,99.622C75.497,99.915 80.196,101.648 84.865,103.462L86.083,103.936L86.083,103.936C95.367,107.553 104.451,111.6 113.175,116.427C115.705,117.828 115.729,118.043 113.21,119.683C104.149,125.585 94.157,128.37 84.973,128.506C75.658,128.472 68.304,127.167 62.165,122.044C58.57,119.044 56.457,115.185 56.794,110.386C57.361,102.32 63.088,99.197 70.434,99.622ZM171.813,99.724C182.073,100.765 183.954,111.338 180.339,117.587C178.201,121.283 175.029,123.78 171.201,125.478C166.197,127.697 161.903,128.458 155.304,128.497C144.464,128.339 134.412,125.52 125.325,119.511C123.116,118.051 123.147,117.787 125.506,116.488C136.541,110.414 148.043,105.381 159.96,101.325C163.769,100.029 167.702,99.306 171.813,99.724Z" fill="#000" stroke="#00000000" stroke-width="1.0" stroke-miterlimit=""/>
	</svg>
