<?xml version="1.0" encoding="utf-8"?>
	<svg version="1.1" xmlns="http://www.w3.org/2000/svg" xmlns:xlink="http://www.w3.org/1999/xlink" x="0px" y="0px" width="240.0" height="240.0" xml:space="preserve">
		<path d="M205.142,102.567C208.596,107.001 213.049,108.579 218.141,106.494C222.259,104.81 226.498,107.851 228.062,113.087C230.929,122.686 221.923,130.523 214.691,130.819C206.211,131.165 197.781,133.026 189.368,134.456C187.99,134.691 186.63,135.916 185.572,136.989C182.487,140.12 179.465,143.325 176.618,146.67C175.447,148.049 174.78,149.858 173.898,151.479C173.474,152.257 173.292,153.379 172.647,153.785C170.008,155.445 169.702,158.032 169.716,160.689C169.722,161.796 170.31,163.828 170.684,163.84C172.162,163.887 173.903,163.667 175.102,162.874C177.787,161.094 180.057,158.676 182.773,156.957C185.986,154.923 189.901,153.841 192.759,151.447C196.116,148.635 199.967,148.187 203.822,147.566C205.821,147.245 208.118,147.568 210.04,148.264C213.156,149.392 213.434,151.901 211.312,154.446C207.685,158.797 203.427,162.87 200.896,167.809C198.873,171.756 198.547,176.791 198.304,181.388C197.766,191.54 197.739,201.72 197.533,211.889C197.377,219.589 193.139,224.203 185.396,224.656C181.183,224.903 176.944,224.7 172.716,224.7C172.716,224.649 172.716,224.599 172.716,224.549C169.289,224.549 165.845,224.335 162.438,224.595C156.643,225.036 153.302,221.381 150.041,217.709L149.417,217.006C147.629,215 148.707,212.009 151.297,211.256C153.991,210.472 156.636,210.245 158.898,212.684C159.752,213.605 161.189,214.377 162.425,214.487C168.121,214.99 173.864,215.446 179.15,212.423C179.741,212.085 180.422,211.907 181.036,211.603C183.017,210.62 186.263,209.993 186.696,208.537C187.63,205.397 187.425,201.789 187.021,198.454C186.886,197.345 184.825,195.846 183.463,195.619C178.447,194.782 176.48,191.798 178.906,187.43C181.329,183.068 184.501,179.108 186.729,174.664C187.579,172.969 186.851,170.399 186.524,168.277C186.469,167.912 184.299,167.306 183.986,167.639C181.863,169.896 179.913,172.329 178.039,174.804C177.12,176.017 176.467,177.435 175.717,178.773C175.122,179.837 174.57,180.925 173.986,181.995C173.257,183.328 172.458,184.627 171.792,185.992C171.123,187.364 170.16,188.771 170.062,190.213C169.814,193.854 170.112,197.53 169.902,201.176C169.837,202.301 168.839,203.373 168.268,204.469C167.081,203.758 165.383,203.337 164.787,202.289C159.755,193.462 159.882,183.823 160.817,174.123C160.933,172.92 161.594,171.755 162.086,170.608C162.442,169.772 163.349,168.97 163.303,168.194C162.933,161.836 166.575,156.586 168.014,150.739C168.255,149.761 169.063,148.718 169.905,148.134C172.139,146.587 172.369,144.625 171.321,142.442C170.199,140.104 168.436,141.067 166.629,141.667C162.134,143.161 157.596,144.535 153.039,145.827C150.496,146.548 146.128,144.392 144.483,141.422C144.408,141.286 144.333,141.152 144.258,141.017L144.034,140.612C142.509,137.849 141.201,135.082 143.533,131.606C145.104,129.264 145.29,126.232 147.844,124.118C152.321,120.415 157.167,118.162 162.903,117.18C169.26,116.092 175.582,114.599 181.762,112.759C185.785,111.56 188.064,106.901 187.597,102.614C187.162,98.608 184.669,96.293 179.662,95.529C177.612,95.215 176.037,94.597 176.166,92.225C176.274,90.259 177.543,90.028 178.912,89.923L179.217,89.901C179.472,89.883 179.728,89.866 179.978,89.838C191.138,88.614 198.801,94.427 205.142,102.567ZM221.248,195.534C221.778,195.82 222.686,196.263 223.543,196.787C223.774,196.929 224.002,197.11 224.227,197.301L224.563,197.59C225.066,198.021 225.562,198.418 226.069,198.423C230.46,198.466 233.013,201.986 236.447,203.768C240.253,205.742 241.443,208.312 237.816,211.429C235.567,213.362 234.078,216.18 232.249,218.602C230.174,221.352 227.606,221.605 225.544,218.836C224.13,216.939 223.365,214.552 222.356,212.363C222.074,211.751 222.169,210.814 221.735,210.446C217.879,207.171 219.13,202.428 218.146,198.34C217.617,196.143 218.82,195.447 221.248,195.534ZM138.875,192.112C141.679,197.218 143.253,202.541 142.76,208.465C143.879,213.18 141.577,216.912 138.173,219.588C136.657,220.779 133.67,220.573 131.48,220.213C130.5,220.051 129.63,218.039 129.071,216.714C127.223,212.33 127.875,207.853 128.748,203.496L128.919,202.654C129.034,202.094 129.151,201.536 129.263,200.98C129.96,197.551 131.85,194.24 133.75,191.218C135.28,188.786 137.48,189.572 138.875,192.112ZM79.226,62.665C80.447,62.928 81.982,63.95 82.462,65.056C84.698,70.203 84.586,70.224 90.168,70.29C94.626,70.342 99.107,70.222 103.53,70.659C106.511,70.953 109.414,72.066 112.343,72.845C113.221,73.079 114.069,73.676 114.934,73.679C121.658,73.713 127.282,76.582 132.768,79.774L133.657,80.294C134.101,80.555 134.544,80.817 134.987,81.079L135.895,81.615C136.198,81.794 136.501,81.972 136.804,82.149C137.745,82.698 138.749,84.025 138.807,85.044C139.036,89.113 139.368,93.279 138.709,97.251C138.375,99.267 135.973,100.919 134.574,102.787C132.417,105.666 129.964,108.399 128.286,111.541C126.13,115.577 124.583,119.942 122.842,124.194C122.197,125.77 121.712,127.416 121.223,129.049C120.547,131.311 120.012,133.617 119.274,135.855C118.479,138.267 117.532,140.628 116.619,143C116.336,143.738 115.827,144.404 115.63,145.158C113.538,153.146 109.687,156.084 99.862,155.984C96.124,155.374 90.872,154.831 85.797,153.573C82.807,152.831 80.188,150.707 77.242,149.649C73.578,148.333 71.215,150.403 71.55,154.284C71.717,156.215 72.09,158.141 72.115,160.071C72.151,162.834 70.775,164.892 68.304,166.099C65.561,167.438 62.627,165.945 62.62,162.967C62.605,156.919 62.819,150.865 63.162,144.827C63.249,143.315 64.36,141.889 64.678,140.357C65.023,138.694 65.627,136.589 64.922,135.362C64.356,134.376 61.88,133.823 60.477,134.124C57.658,134.729 55.019,136.121 52.256,137.042C50.922,137.486 49.283,138.115 48.149,137.687C47.362,137.39 46.975,135.467 46.797,134.214C46.032,128.8 49.482,125.079 52.736,121.732C57.717,116.609 63.269,112.039 68.632,107.293C69.729,106.323 71.294,105.811 72.21,104.724C73.055,103.723 73.993,102.003 73.66,101.014C73.261,99.83 71.496,98.243 70.432,98.321C68.015,98.498 65.29,99.058 63.367,100.419C59.419,103.213 56.209,107.097 52.148,109.668C50.988,110.402 49.851,111.283 48.682,112.115L48.213,112.445C45.543,114.295 42.674,115.764 38.979,114.578C37.662,114.154 36.086,112.958 35.685,111.763C35.369,110.824 36.566,109.266 37.302,108.119C37.842,107.276 38.624,106.494 39.472,105.96C42.758,103.89 43.287,101.68 40.217,98.923C39.705,98.463 39.575,97.487 39.432,96.718C38.242,90.357 35.459,87.704 29.246,86.953C28.128,86.817 26.909,86.609 25.986,86.034C25.225,85.56 24.376,84.468 24.42,83.698C24.456,83.035 25.595,82.187 26.422,81.853C31.648,79.743 36.921,77.752 42.18,75.724C42.713,75.519 43.237,75.243 43.791,75.145C52.274,73.63 60.73,71.92 69.258,70.727C74.221,70.032 74.97,69.77 76.758,64.879C77.112,63.91 78.567,62.523 79.226,62.665ZM2.111,86.062C2.425,86.297 2.755,86.52 3.088,86.74L3.753,87.179C4.526,87.696 5.27,88.236 5.829,88.925C6.909,90.257 7.848,91.706 8.765,93.17L9.68,94.635C9.832,94.879 9.985,95.122 10.14,95.365C12.403,98.923 14.888,102.374 16.797,106.117C18.754,109.955 20.148,114.082 21.746,118.1C21.849,118.359 21.909,118.646 21.96,118.938L22.031,119.375C22.115,119.883 22.216,120.367 22.505,120.698C25.627,124.282 25.881,128.547 25.935,132.807L25.943,133.537L25.945,133.719L25.945,133.719L25.954,134.63C25.957,134.872 25.961,135.115 25.966,135.356C26.091,141.861 26.065,148.394 25.552,154.872C25.385,156.973 23.847,159.337 22.234,160.811C21.285,161.679 18.372,161.764 17.344,160.944C12.866,157.37 8.291,153.718 4.681,149.329C2.46,146.628 1.035,142.605 0.8,139.072C0.431,133.539 0.475,127.979 0.545,122.417L0.588,119.08C0.607,117.411 0.622,115.743 0.622,114.076L0.021,114.076C0.021,105.965 -0.067,97.852 0.115,89.745C0.143,88.503 1.415,87.289 2.111,86.062ZM91.095,79.81C86.746,79.81 83.662,79.728 80.585,79.838C78.416,79.915 76.281,80.454 76.399,83.251C76.516,86.054 78.436,86.683 80.935,86.666C84.398,86.644 86.55,89.538 84.96,92.618C82.965,96.486 80.448,100.126 77.817,103.607C76.37,105.522 75.678,107.192 77.296,109.064C78.396,110.336 79.765,111.474 81.216,112.328C85.127,114.628 85.026,116.47 81.409,119.217L80.889,119.614L80.373,120.013C75.486,123.82 71.213,128.06 72.347,135.473C72.818,138.551 73.878,139.91 76.943,140.774C81.59,142.084 86.279,143.742 90.425,146.156C93.228,147.786 95.894,148.708 98.778,148.006C100.869,147.499 102.622,145.735 104.639,144.767C109.065,142.642 110.844,138.656 112.277,134.606L112.501,133.967C112.723,133.327 112.939,132.688 113.158,132.057C115.22,126.127 116.389,119.887 117.978,113.789C118.118,113.254 118.574,112.807 118.763,112.276C119.59,109.956 120.342,107.609 121.185,105.296C121.79,103.639 122.223,101.822 123.224,100.43C124.834,98.191 125.096,96.026 123.696,93.77C120.911,89.282 116.493,86.413 111.934,84.497C111.631,84.369 111.328,84.241 111.024,84.113L109.656,83.538C109.504,83.474 109.352,83.41 109.2,83.347L108.285,82.969C102.493,80.593 96.652,78.614 91.095,79.81ZM66.633,81.102C60.76,81.66 54.871,82.244 49.067,83.27C45.461,83.908 44.809,85.663 45.462,89.295C45.857,91.488 46.165,93.788 45.942,95.982C45.525,100.1 46.785,101.781 52.006,101.735C52.557,101.431 54.199,100.873 55.377,99.805C58.311,97.144 60.992,94.207 63.859,91.469C65.328,90.066 67.326,89.088 68.432,87.472C69.279,86.236 69.387,84.271 69.238,82.685C69.178,82.052 67.491,81.021 66.633,81.102ZM59.392,16C60.898,15.972 63.388,17.469 63.804,18.809C66.022,25.941 71.315,29.461 77.738,32.001C80.456,33.077 83.082,34.39 85.742,35.61C88.21,36.742 89.676,42.346 87.656,44.314C85.451,46.462 83.242,48.768 79.567,48.82C79.016,48.828 78.463,48.832 77.909,48.839L77.077,48.851C72.776,48.924 68.461,49.243 64.762,52.006C62.366,53.796 60.025,55.692 57.863,57.755C54.926,60.555 52.206,63.581 49.338,66.456C48.834,66.961 48.058,67.196 47.408,67.557C47.117,66.772 46.425,65.874 46.609,65.223C47.181,63.194 47.631,60.848 48.962,59.38C51.187,56.925 51.286,54.261 50.91,51.418C50.795,50.544 50.023,49.421 49.241,49.031C46.114,47.472 42.948,45.899 39.633,44.839C37.186,44.055 35.391,43.125 35.372,40.34C35.351,37.445 37.063,35.964 39.749,35.544C41.432,35.282 43.148,35.242 43.908,35.179C46.113,35.179 47.382,35.305 48.618,35.153C51.23,34.834 52.462,33.392 52.805,30.638C53.29,26.731 54.003,22.788 55.252,19.072C55.724,17.668 57.942,16.029 59.392,16Z" fill="#000" stroke="#00000000" stroke-width="1.0" stroke-miterlimit=""/>
	</svg>
