<?xml version="1.0" encoding="utf-8"?>
	<svg version="1.1" xmlns="http://www.w3.org/2000/svg" xmlns:xlink="http://www.w3.org/1999/xlink" x="0px" y="0px" width="240.0" height="240.0" xml:space="preserve">
		<path d="M216.239,132.504C214.929,131.717 213.406,131.356 211.882,131.471C210.358,131.587 208.908,132.174 207.732,133.15C193.868,144.018 176.514,149.452 158.927,148.433C141.341,147.413 124.731,140.009 112.216,127.612C99.701,115.214 92.141,98.675 90.955,81.099C89.77,63.523 95.04,46.118 105.776,32.152L105.941,31.927C106.831,30.708 107.326,29.246 107.361,27.736C107.395,26.228 106.967,24.744 106.134,23.486L106.015,23.303C105.185,22.049 103.991,21.078 102.593,20.522C101.195,19.966 99.66,19.851 98.195,20.192L98.106,20.213C74.233,25.816 53.204,39.894 38.927,59.831C24.65,79.769 18.095,104.211 20.48,128.617C22.865,153.023 34.028,175.734 51.894,192.53C69.761,209.327 93.117,219.067 117.623,219.942C118.774,219.981 119.923,220 121.072,220C144.12,219.994 166.475,212.117 184.436,197.673C202.397,183.228 214.886,163.083 219.836,140.573L219.864,140.442C220.172,138.943 220.007,137.386 219.392,135.985C218.778,134.584 217.743,133.408 216.432,132.62L216.239,132.504ZM206.298,37.428C205.599,35.453 204.306,33.744 202.596,32.535C200.887,31.326 198.844,30.676 196.75,30.675H152.021C151.078,30.675 150.144,30.862 149.273,31.223C148.401,31.585 147.61,32.114 146.943,32.782C146.277,33.449 145.748,34.241 145.388,35.113C145.028,35.985 144.843,36.919 144.844,37.862C144.843,39.767 145.598,41.594 146.944,42.941C148.29,44.289 150.116,45.046 152.021,45.048H184.875L144.543,77.958C142.923,79.281 141.751,81.072 141.187,83.087C140.624,85.101 140.696,87.24 141.395,89.212C142.094,91.187 143.387,92.896 145.097,94.105C146.807,95.314 148.85,95.964 150.944,95.965H197.866C198.809,95.964 199.743,95.778 200.614,95.417C201.485,95.055 202.277,94.526 202.943,93.859C203.61,93.191 204.139,92.399 204.499,91.528C204.86,90.656 205.045,89.722 205.045,88.779C205.045,87.836 204.86,86.901 204.5,86.03C204.139,85.158 203.611,84.366 202.944,83.699C202.277,83.031 201.486,82.502 200.614,82.14C199.743,81.779 198.809,81.592 197.866,81.592H162.813L203.145,48.682C204.766,47.359 205.938,45.568 206.502,43.553C207.065,41.539 206.992,39.399 206.293,37.428H206.298Z" fill="#000" stroke="" stroke-width="" stroke-miterlimit=""/>
	</svg>
