<?xml version="1.0" encoding="utf-8"?>
	<svg version="1.1" xmlns="http://www.w3.org/2000/svg" xmlns:xlink="http://www.w3.org/1999/xlink" x="0px" y="0px" width="240.0" height="240.0" xml:space="preserve">
		<path d="M185.707,239.953C185.753,224.682 185.803,209.412 185.842,194.142C185.856,188.453 185.876,182.765 185.834,177.077C185.775,168.996 180.419,163.688 172.309,163.624C169.582,163.603 166.853,163.663 164.128,163.606C158.946,163.498 154.95,161.294 152.588,156.604C149.803,151.076 145.401,148.544 139.232,148.592C127.077,148.688 114.92,148.695 102.766,148.588C96.579,148.534 92.188,151.11 89.409,156.612C87.032,161.318 83.042,163.492 77.87,163.605C74.911,163.67 71.948,163.579 68.988,163.636C61.679,163.778 56.167,169.293 56.156,176.61C56.124,197.724 56.157,218.839 56.164,239.953L44.004,239.953C44.552,238.751 44.15,237.499 44.151,236.278C44.177,216.407 44.027,196.535 44.216,176.666C44.319,165.754 49.668,157.905 59.643,153.446C63.896,151.545 68.547,151.29 73.13,151.662C76.679,151.949 78.97,151.142 80.96,147.74C85.644,139.729 93.314,136.655 102.331,136.625C114.799,136.584 127.267,136.592 139.735,136.623C149.994,136.648 157.604,141.269 162.62,150.147C163.263,151.284 163.935,151.624 165.163,151.633C169.592,151.663 174.053,151.238 178.432,152.267C189.803,154.938 197.733,164.625 197.793,176.379C197.899,197.029 197.804,217.678 197.796,238.329C197.796,238.87 197.842,239.412 197.866,239.953L185.707,239.953Z" fill="#000" stroke="#00000000" stroke-width="1.0" stroke-miterlimit=""/>
		<path d="M162.609,78.16C167.282,78.16 171.956,78.093 176.627,78.197C178.177,78.232 178.601,77.78 178.578,76.25C178.495,70.488 178.487,64.724 178.588,58.963C178.615,57.344 178.033,57.063 176.577,57.072C167.232,57.131 157.887,57.14 148.542,57.065C146.989,57.052 146.571,57.493 146.592,59.011C146.675,64.773 146.688,70.537 146.591,76.298C146.564,77.908 147.13,78.218 148.592,78.191C153.264,78.106 157.937,78.16 162.609,78.16L162.609,78.16ZM162.54,84.338C157.864,84.338 153.189,84.381 148.515,84.311C147.154,84.291 146.584,84.593 146.601,86.097C146.673,92.953 146.673,99.81 146.607,106.666C146.593,108.13 147.089,108.486 148.487,108.478C157.915,108.423 167.343,108.43 176.77,108.471C178.025,108.477 178.576,108.205 178.563,106.809C178.506,99.875 178.51,92.94 178.569,86.006C178.58,84.639 178.086,84.296 176.798,84.313C172.046,84.375 167.292,84.338 162.54,84.338L162.54,84.338ZM132.512,84.779C132.512,72.697 132.554,60.616 132.469,48.536C132.456,46.649 132.936,46.11 134.804,46.411C138.107,46.944 141.436,47.356 144.768,47.659C146.076,47.777 146.882,48.003 146.626,49.52C146.413,50.776 147.002,51.084 148.206,51.079C157.715,51.035 167.225,51.023 176.733,51.083C178.406,51.094 179.195,49.878 180.227,49.034C184.352,45.656 184.324,45.626 188.576,48.927C190.852,50.694 193.096,52.507 195.43,54.195C196.483,54.958 196.858,55.57 195.638,56.419C193.065,58.21 192.664,60.692 192.686,63.694C192.818,82.088 192.726,100.483 192.806,118.877C192.815,120.729 192.376,121.474 190.472,121.625C186.983,121.902 183.505,122.376 180.039,122.873C178.915,123.035 178.469,122.847 178.517,121.639C178.589,119.849 178.487,118.052 178.553,116.262C178.594,115.143 178.395,114.584 177.055,114.591C167.39,114.645 157.725,114.639 148.06,114.596C146.909,114.591 146.492,114.966 146.64,116.062C146.661,116.215 146.644,116.373 146.642,116.529C146.557,122.046 146.555,122.027 140.984,122.582C138.894,122.79 136.796,123.014 134.733,123.397C133.056,123.71 132.437,123.408 132.451,121.489C132.542,109.253 132.497,97.016 132.497,84.779L132.512,84.779Z" fill="#ff020201" stroke="#00000000" stroke-width="1.0" stroke-miterlimit=""/>
		<path d="M88.176,49.124C86.114,52.966 86.107,52.974 89.51,55.62C97.729,62.013 106.647,67.138 116.538,70.493C117.249,70.734 117.946,71.014 118.801,71.333C115.671,75.39 112.588,79.297 109.623,83.29C108.832,84.355 108.282,83.874 107.555,83.415C104.455,81.457 101.677,79.077 98.798,76.823C92.529,71.914 87.131,66.195 82.587,59.679C81.671,58.365 81.201,58.522 80.219,59.569C69.815,70.659 57.001,78.08 43.119,83.884C42.185,84.275 41.739,84.12 41.176,83.417C37.759,79.14 37.782,79.197 42.374,76.282C54.076,68.852 63.663,59.377 70.217,47.049C71.006,45.565 71.784,45.125 73.462,45.569C78.32,46.853 83.229,47.943 88.176,49.124" fill="#ff020201" stroke="#00000000" stroke-width="1.0" stroke-miterlimit=""/>
		<path d="M76.846,118.845C80.714,110.855 84.51,103.048 88.271,95.225C89.444,92.785 89.4,92.759 86.766,92.758C75.322,92.756 63.878,92.758 52.434,92.758C47.796,92.758 47.799,92.757 46.98,88.168C46.889,87.661 46.741,87.164 46.599,86.576C59.382,86.576 72.149,86.454 84.911,86.648C88.885,86.709 92.441,86.168 95.495,83.545C96.777,82.443 97.774,82.612 99.106,83.656C102.773,86.528 106.588,89.212 110.329,91.96C110.191,92.819 109.49,92.961 108.978,93.156C105.238,94.582 103.267,97.439 101.688,101.016C98.647,107.904 94.943,114.478 91.36,121.103C90.699,122.327 90.174,122.784 88.695,122.302C84.794,121.033 80.82,119.988 76.846,118.845" fill="#ff020201" stroke="#00000000" stroke-width="1.0" stroke-miterlimit=""/>
		<path d="M69.068,73.182C70.875,71.897 72.793,70.583 74.65,69.187C75.485,68.56 76.134,68.451 77.104,69.028C81.049,71.376 84.787,74 88.43,77.016C85.213,79.335 82.029,81.55 78.946,83.895C77.848,84.731 77.554,84.087 77.052,83.332C74.655,79.726 72.201,76.16 69.068,73.182" fill="#ff020201" stroke="#00000000" stroke-width="1.0" stroke-miterlimit=""/>
		<path d="M101.988,206.636C101.961,217.055 110.175,225.333 120.619,225.413C130.629,225.488 139.148,217.091 139.251,207.047C139.356,196.773 130.923,188.179 120.682,188.125C110.488,188.072 102.014,196.462 101.988,206.636M120.588,237.379C103.954,237.505 90.097,223.721 89.984,206.935C89.87,190.168 103.519,176.358 120.292,176.265C137.439,176.171 151.108,189.68 151.175,206.785C151.242,223.706 137.702,237.249 120.588,237.379" fill="#000" stroke="#00000000" stroke-width="1.0" stroke-miterlimit=""/>
		<path d="M163.956,185.514C160.293,185.558 157.232,182.563 157.189,178.89C157.146,175.193 160.104,172.163 163.782,172.138C167.495,172.111 170.509,175.027 170.587,178.719C170.663,182.312 167.58,185.471 163.956,185.514" fill="#000" stroke="#00000000" stroke-width="1.0" stroke-miterlimit=""/>
		<path d="M101.988,206.636C102.014,196.462 110.488,188.072 120.682,188.125C130.923,188.179 139.356,196.773 139.251,207.047C139.148,217.091 130.629,225.488 120.619,225.413C110.175,225.333 101.961,217.055 101.988,206.636" fill="#000" stroke="#00000000" stroke-width="1.0" stroke-miterlimit=""/>
	</svg>
