<?xml version="1.0" encoding="utf-8"?>
	<svg version="1.1" xmlns="http://www.w3.org/2000/svg" xmlns:xlink="http://www.w3.org/1999/xlink" x="0px" y="0px" width="240.0" height="240.0" xml:space="preserve">
		<path d="M100.055,109.139C103.907,109.139 107.76,109.178 111.607,109.122C113.511,109.093 114.332,109.904 114.304,111.819C114.247,115.394 114.247,118.963 114.304,122.538C114.332,124.453 113.505,125.241 111.607,125.229C103.907,125.19 96.202,125.19 88.502,125.229C86.599,125.241 85.777,124.448 85.805,122.533C85.862,118.958 85.862,115.388 85.805,111.813C85.777,109.898 86.604,109.093 88.508,109.122C92.349,109.178 96.202,109.139 100.055,109.139Z" fill="#000" stroke="" stroke-width="" stroke-miterlimit=""/>
		<path d="M139.572,125.207C135.719,125.207 131.867,125.173 128.02,125.224C126.133,125.252 125.272,124.476 125.306,122.549C125.368,118.884 125.345,115.218 125.323,111.547C125.311,109.909 126.048,109.139 127.702,109.139C135.595,109.156 143.481,109.156 151.374,109.139C153,109.133 153.799,109.853 153.787,111.513C153.765,115.275 153.753,119.037 153.793,122.793C153.81,124.663 152.807,125.229 151.13,125.212C147.272,125.19 143.425,125.207 139.572,125.207Z" fill="#000" stroke="" stroke-width="" stroke-miterlimit=""/>
		<path d="M100.055,136.255C103.907,136.255 107.76,136.295 111.607,136.238C113.511,136.21 114.332,137.02 114.304,138.935C114.247,142.51 114.247,146.079 114.304,149.654C114.332,151.569 113.505,152.357 111.607,152.346C103.907,152.306 96.202,152.306 88.502,152.346C86.599,152.357 85.777,151.564 85.805,149.649C85.862,146.074 85.862,142.504 85.805,138.929C85.777,137.014 86.604,136.21 88.508,136.238C92.349,136.295 96.202,136.255 100.055,136.255Z" fill="#000" stroke="" stroke-width="" stroke-miterlimit=""/>
		<path d="M139.538,152.329C135.685,152.329 131.833,152.289 127.986,152.346C126.065,152.374 125.277,151.535 125.306,149.637C125.362,146.068 125.362,142.493 125.306,138.918C125.272,136.991 126.127,136.232 128.02,136.244C135.719,136.283 143.425,136.283 151.124,136.244C153.039,136.232 153.838,137.054 153.804,138.952C153.748,142.521 153.748,146.096 153.804,149.671C153.838,151.603 152.977,152.374 151.09,152.346C147.243,152.289 143.391,152.329 139.538,152.329Z" fill="#000" stroke="" stroke-width="" stroke-miterlimit=""/>
		<path d="M47.57,31.303V209.83C49.344,214.833 52.709,218.244 57.729,219.994H181.888C189.378,217.184 192.307,211.785 192.273,203.802C192.097,160.805 192.165,117.807 192.245,74.81C192.245,74.533 192.238,74.263 192.224,74H140V21H140.203C139.827,20.959 139.436,20.94 139.026,20.941C137.035,20.947 135.043,20.953 133.052,20.96C109.95,21.035 86.848,21.11 63.746,20.907C55.791,20.833 50.363,23.774 47.57,31.303ZM130.024,163.355C126.594,163.355 123.164,163.354 119.735,163.354C115.188,163.354 110.643,163.355 106.098,163.355C97.009,163.357 87.921,163.358 78.834,163.354C74.885,163.349 74.805,163.281 74.805,159.456C74.794,140.255 74.794,121.054 74.805,101.853C74.811,98.278 74.958,98.113 78.42,98.113C105.973,98.108 133.519,98.108 161.066,98.113C164.641,98.113 164.805,98.266 164.805,101.722C164.817,121.014 164.817,140.312 164.805,159.603C164.805,163.235 164.686,163.349 160.913,163.349C150.619,163.357 140.322,163.356 130.024,163.355Z" fill="#000" stroke="" stroke-width="" stroke-miterlimit=""/>
		<path d="M143,71H193L143,21V71Z" fill="#000" stroke="" stroke-width="" stroke-miterlimit=""/>
	</svg>
