<?xml version="1.0" encoding="utf-8"?>
	<svg version="1.1" xmlns="http://www.w3.org/2000/svg" xmlns:xlink="http://www.w3.org/1999/xlink" x="0px" y="0px" width="240.0" height="240.0" xml:space="preserve">
		<path d="M96.407,128.425C121.787,123.034 153.423,141.816 157.422,173.119C158.464,182.509 157.943,191.726 155.162,200.769C154.988,201.291 154.814,201.986 154.64,202.682C158.464,203.378 162.289,203.725 165.939,204.595C171.502,205.812 176.195,208.595 179.845,213.29C180.541,214.334 181.062,215.725 181.758,216.942C178.33,218.052 160.575,219.044 142.84,219.58L141.006,219.634C133.065,219.86 125.226,219.992 118.784,220L117.322,219.999C114.451,219.994 111.899,219.961 109.792,219.898C123.351,214.681 133.259,206.334 137.431,192.77C141.777,179.205 139.517,166.51 131.173,155.033C118.484,137.642 88.064,131.382 67.726,151.555C73.288,138.86 82.849,131.382 96.407,128.425ZM68.073,21.127C88.238,17.475 105.62,22.519 118.484,38.865C128.74,51.734 129.087,66.516 123.525,81.472C118.484,94.862 108.576,104.079 96.929,111.731C89.628,116.426 82.153,120.948 75.026,126.165C63.554,134.686 55.731,145.816 52.95,160.076C48.431,184.074 61.989,212.247 87.716,219.377C88.064,219.377 88.411,219.551 89.107,219.898C75.722,220.072 63.206,217.986 51.907,211.725C34.003,201.813 23.399,186.509 20.618,166.162C17.837,145.99 24.616,128.425 37.479,113.122C43.563,105.992 49.647,98.862 55.384,91.558C59.903,85.819 62.163,79.037 61.989,71.559C61.815,60.082 52.429,50.343 40.956,49.821C34.177,49.647 27.919,51.56 22.356,55.386L22.356,55.386L20.27,56.777C23.225,50.691 26.876,45.822 31.222,41.648C41.477,31.214 53.472,23.736 68.073,21.127ZM97.624,151.207C114.486,151.207 126.48,164.423 126.654,180.422C126.828,196.422 113.617,209.29 97.45,209.464C81.111,209.638 68.421,195.726 68.421,180.422C68.421,165.989 79.372,151.033 97.624,151.207ZM97.624,166.858C90.497,166.684 84.239,172.945 84.239,180.249C84.239,187.726 90.15,193.639 97.45,193.639C104.925,193.639 111.009,187.553 111.009,180.249C111.009,173.119 104.925,167.032 97.624,166.858ZM109.966,114.339C131.173,111.905 150.642,116.948 168.547,128.252C177.412,133.99 186.625,138.338 197.228,139.729C201.053,140.077 204.877,140.599 208.701,141.468C214.264,142.859 218.262,145.99 219.652,151.728C219.658,152.051 219.782,152.36 220,152.598C220,152.772 219.826,152.946 219.652,153.468C210.266,149.816 201.4,151.728 192.709,156.076C189.58,157.641 186.277,158.859 182.974,159.206C179.15,159.554 175.152,159.206 171.328,159.032C168.547,158.859 166.982,157.293 165.591,154.859C155.857,137.99 142.125,125.817 123.003,120.426C117.615,118.861 111.878,118.687 106.316,117.991C104.056,117.817 101.622,117.991 99.363,117.991C99.363,117.817 99.189,117.47 99.189,117.296C102.665,116.252 106.316,114.861 109.966,114.339ZM174.631,54.691C176.021,56.43 177.586,57.821 178.281,59.386C180.019,63.386 181.758,67.385 183.148,71.559C183.844,73.646 184.539,74.863 186.799,75.733C205.051,82.341 215.307,95.384 218.262,114.513C218.609,117.296 218.436,120.252 218.783,123.208C218.957,125.469 218.088,126.513 216.002,127.208C205.225,130.338 194.621,130.165 184.539,124.6L184.539,124.6L182.492,123.445C173.632,118.448 164.846,113.569 155.162,110.34C145.775,107.209 136.214,104.949 126.654,105.122C135.171,100.949 144.037,96.949 152.728,92.428C156.726,90.341 160.203,87.384 164.027,84.776C165.591,83.558 166.287,81.993 166.287,79.907C166.461,72.95 167.677,66.168 171.154,59.908C172.023,58.169 173.24,56.777 174.631,54.691Z" fill="#000" stroke="#00000000" stroke-width="1.0" stroke-miterlimit=""/>
	</svg>
