<?xml version="1.0" encoding="utf-8"?>
	<svg version="1.1" xmlns="http://www.w3.org/2000/svg" xmlns:xlink="http://www.w3.org/1999/xlink" x="0px" y="0px" width="240.0" height="240.0" xml:space="preserve">
		<path d="M30.083,35.646C30.111,63.629 30.092,91.61 30.092,119.592C30.083,119.592 30.079,119.592 30.056,119.602C30.056,147.358 30.106,175.109 30,202.861C29.982,206.711 31.416,209.759 33.74,212.512C37.005,216.381 41.33,217.838 46.325,217.829C67.712,217.797 98.256,217.838 119.643,217.825C119.228,214.103 118.954,211.064 118.733,207.329C118.396,201.671 118.064,196.003 117.963,190.336C117.852,184.065 115.228,179.9 109.183,177.585C103.686,175.478 98.152,173.472 92.646,171.392C86.937,169.239 81.519,166.763 77.198,162.211C73.463,158.278 73.375,152.292 76.087,148.322C77.807,145.799 80.002,143.835 82.621,142.313C85.807,140.459 89.201,139.076 92.623,137.734C98.461,135.446 104.428,133.51 110.206,131.052C114.984,129.018 117.755,125.799 117.99,120.529C118.055,119.15 118.253,117.785 118.359,116.411C119,108.239 118.47,99.999 119.899,91.878C120.688,87.405 122.311,83.282 125.968,80.483C130.146,77.283 136.27,77.836 141.255,81.502C145.17,84.375 148.481,87.894 151.331,91.79C154.969,96.766 158.921,101.474 162.882,106.187C166.207,110.144 170.191,111.403 175.158,110.167C176.62,109.802 177.298,109.406 177.293,107.672C177.201,83.674 177.224,59.681 177.164,35.683C177.141,26.271 170.782,19.995 161.379,20C122.823,20.009 84.267,20.032 45.711,20.065C44.646,20.065 43.553,20.069 42.511,20.272C35.529,21.646 30.074,27.217 30.083,35.646Z" fill="#000" stroke="" stroke-width="" stroke-miterlimit=""/>
		<path d="M205.305,195.777C200.435,195.459 195.206,193.753 189.935,192.222C184.65,190.686 179.393,189.059 173.915,188.242C167.533,187.292 162.11,189.054 157.53,193.536C153.246,197.733 149.677,202.542 145.993,207.246C143.064,210.986 140.168,214.763 136.549,217.889C136.087,218.29 135.622,218.696 135.119,219.042C132.873,220.591 131.965,220.329 131.089,217.76C129.71,213.72 129.544,209.492 129.396,205.286C129.152,198.245 129.115,191.203 128.123,184.198C127.095,176.94 123.042,172.107 116.623,168.948C109.53,165.457 101.898,163.35 94.654,160.265C91.772,159.038 88.834,157.904 86.376,155.852C84.878,154.602 84.905,153.5 86.423,152.333C89.628,149.876 93.317,148.368 97.052,146.989C102.798,144.872 108.525,142.714 114.243,140.533C124.407,136.664 128.428,128.995 128.995,118.629C129.405,111.061 129.235,103.453 130.291,95.927C130.526,94.262 130.853,92.606 131.268,90.979C131.817,88.811 132.887,88.396 134.801,89.692C137.941,91.823 140.316,94.742 142.682,97.67C147.653,103.817 152.195,110.342 157.964,115.802C163.249,120.805 169.557,121.884 176.534,120.349C185.203,118.44 193.568,115.359 202.284,113.635C204.032,113.289 205.789,113.233 207.546,113.303C209.727,113.386 210.299,114.151 209.713,116.245C208.92,119.071 207.523,121.631 205.969,124.098C201.92,130.512 197.382,136.604 193.518,143.138C190.908,147.551 189.483,152.209 190.175,157.392C190.571,160.376 191.793,163.041 193.361,165.54C197.857,172.702 202.395,179.84 206.988,186.942C207.868,188.307 208.616,189.718 209.197,191.208C210.677,195.035 210.082,195.847 205.305,195.777Z" fill="#000" stroke="" stroke-width="" stroke-miterlimit=""/>
		<path d="M157.863,217.792C156.179,217.792 154.492,217.811 152.808,217.788C151.55,217.769 151.333,217.28 152.131,216.275C156.272,211.064 160.035,205.531 165.089,201.104C167.768,198.756 173.772,198.198 176.737,199.9C177.484,200.329 177.254,200.928 177.277,201.486C177.604,210.253 171.655,216.971 162.912,217.649C161.238,217.778 159.546,217.668 157.863,217.668C157.863,217.709 157.863,217.751 157.863,217.792Z" fill="#000" stroke="" stroke-width="" stroke-miterlimit=""/>
	</svg>
