<?xml version="1.0" encoding="utf-8"?>
	<svg version="1.1" xmlns="http://www.w3.org/2000/svg" xmlns:xlink="http://www.w3.org/1999/xlink" x="0px" y="0px" width="240.0" height="240.0" xml:space="preserve">
		<path d="M119.474,219.869C94.913,219.869 70.347,219.589 45.79,220C35.032,220.179 29.426,211.776 30.046,203.002C31.637,180.613 33.866,158.306 37.597,136.165C39,127.854 40.673,119.591 43.085,111.503C44.112,108.06 44.147,108.069 47.652,108.069C76.937,108.069 106.221,108.069 135.506,108.069C154.4,108.069 173.294,108.104 192.188,108.021C194.404,108.012 195.378,108.72 195.959,110.852C199.215,122.799 201.133,134.99 202.92,147.212C204.812,160.141 206.32,173.123 207.556,186.131C208.203,192.909 209.422,199.673 209.055,206.511C208.644,214.127 202.335,220.013 194.461,219.943C169.471,219.729 144.473,219.865 119.474,219.869Z" fill="#000" stroke="" stroke-width="" stroke-miterlimit=""/>
		<path d="M69.535,104.695C63.58,104.695 57.619,104.665 51.664,104.717C50.209,104.73 49.247,104.254 48.4,103.044C37.423,87.383 46.831,65.046 65.703,62.018C79.459,59.811 92.69,69.577 95.154,83.748C96.391,90.857 94.612,97.263 90.767,103.232C89.985,104.446 88.954,104.717 87.63,104.709C81.595,104.678 75.565,104.695 69.535,104.695Z" fill="#000" stroke="" stroke-width="" stroke-miterlimit=""/>
		<path d="M116.426,104.669C109.889,104.669 103.356,104.678 96.819,104.665C94.495,104.661 94.355,104.49 95.386,102.572C99.852,94.257 100.232,85.684 97.007,76.909C96.439,75.367 96.754,74.353 97.894,73.265C105.148,66.361 113.52,63.621 123.268,66.689C133.38,69.874 139.392,76.857 141.433,87.257C142.442,92.408 141.629,97.35 139.781,102.201C139.099,103.992 138.038,104.748 136.028,104.709C129.499,104.595 122.963,104.669 116.426,104.669Z" fill="#000" stroke="" stroke-width="" stroke-miterlimit=""/>
		<path d="M84.578,29.097C94.248,29.115 102.358,35.416 105.015,44.985C107.488,53.873 103.49,64.01 95.62,68.865C94.265,69.7 93.208,70.053 91.875,68.546C85.137,60.925 76.691,57.36 66.471,58.374C64.766,58.544 64.373,57.486 64.01,56.237C61.568,47.86 64.985,38.195 72.151,33.034C75.878,30.351 79.981,28.966 84.578,29.097Z" fill="#000" stroke="" stroke-width="" stroke-miterlimit=""/>
		<path d="M165.116,104.717C158.435,104.717 151.758,104.687 145.077,104.739C143.311,104.752 142.66,104.377 143.447,102.502C145.833,96.813 145.841,90.892 144.679,84.963C144.356,83.315 144.723,82.245 145.846,81.095C157.591,69.123 177.473,72.177 185.05,87.147C187.475,91.936 188.558,96.918 187.728,102.314C187.444,104.154 186.728,104.77 184.932,104.748C178.334,104.678 171.722,104.717 165.116,104.717Z" fill="#000" stroke="" stroke-width="" stroke-miterlimit=""/>
		<path d="M116.129,61.869C114.141,61.847 112.192,61.987 110.265,62.411C109.724,62.529 109.068,62.87 108.627,62.328C108.194,61.791 108.64,61.227 108.876,60.711C113.106,51.356 124.318,47.192 133.682,51.492C142.657,55.612 147.005,66.099 143.623,75.494C143.383,76.162 143.269,77.093 142.487,77.233C141.591,77.395 141.438,76.381 141.062,75.817C135.128,66.894 126.879,62.136 116.129,61.869Z" fill="#000" stroke="" stroke-width="" stroke-miterlimit=""/>
		<path d="M107.375,30.823C107.419,24.723 112.26,19.969 118.395,20C124.587,20.031 129.271,24.894 129.219,31.239C129.171,37.151 123.993,42.311 118.203,42.219C112.243,42.123 107.332,36.958 107.375,30.823Z" fill="#000" stroke="" stroke-width="" stroke-miterlimit=""/>
		<path d="M153.972,36.792C154.016,40.922 150.398,44.688 146.303,44.776C142.253,44.863 138.469,41.105 138.469,36.993C138.469,32.637 141.829,29.181 146.102,29.141C150.385,29.102 153.928,32.545 153.972,36.792Z" fill="#000" stroke="" stroke-width="" stroke-miterlimit=""/>
		<path d="M164.169,55.424C164.208,57.932 162.303,60.06 159.983,60.095C157.776,60.13 155.486,57.897 155.438,55.66C155.39,53.384 157.54,51.203 159.869,51.173C162.229,51.138 164.129,53.017 164.169,55.424Z" fill="#000" stroke="" stroke-width="" stroke-miterlimit=""/>
	</svg>
