<?xml version="1.0" encoding="utf-8"?>
	<svg version="1.1" xmlns="http://www.w3.org/2000/svg" xmlns:xlink="http://www.w3.org/1999/xlink" x="0px" y="0px" width="240.0" height="240.0" xml:space="preserve">
		<path d="M145.087,33L145.087,49.271L50.271,49.271L50.271,190.627L189.303,190.627L189.303,95.681L205.575,95.681L205.575,206.898L34,206.898L34,33L145.087,33ZM126.449,78.254L126.449,147.407L148.373,147.407L148.373,161.609L89.8,161.609L89.8,147.407L112.247,147.407L112.247,92.456L89.8,92.456L89.8,78.254L126.449,78.254Z" fill="#000" stroke="#00000000" stroke-width="1.0" stroke-miterlimit=""/>
		<path d="M204.219,33.475l0,-27.475l-14.202,0l0,27.475l-27.475,0l0,14.202l27.475,0l0,27.475l14.202,0l0,-27.475l27.475,0l0,-14.202z" fill="#000" stroke="#00000000" stroke-width="1.0" stroke-miterlimit=""/>
	</svg>
