<?xml version="1.0" encoding="utf-8"?>
	<svg version="1.1" xmlns="http://www.w3.org/2000/svg" xmlns:xlink="http://www.w3.org/1999/xlink" x="0px" y="0px" width="240.0" height="240.0" xml:space="preserve">
		<path d="M119.836,84.111C121.472,84.106 123.134,84.3 124.787,84.709C133.086,86.768 139.042,94.406 139.004,102.99C138.972,110.231 135.72,115.686 129.56,119.342C128.023,120.255 127.501,121.228 127.534,122.954C127.636,128.141 127.679,133.338 127.544,138.526C127.428,143.21 124.092,146.315 120.021,146.325C118.84,146.329 117.598,146.072 116.355,145.519C113.775,144.374 112.297,142.32 112.243,139.434C112.206,137.45 112.215,135.466 112.224,133.484C112.228,132.604 112.232,131.724 112.232,130.844H112.211L112.209,130.844C112.209,130.627 112.205,130.409 112.202,130.191C112.201,130.121 112.2,130.051 112.199,129.981C112.191,129.552 112.187,129.122 112.216,128.694C112.533,123.996 112.136,120.336 107.293,117.084C100.031,112.209 98.66,102.168 102.686,94.385C105.998,87.979 112.677,84.134 119.836,84.111Z" fill="#000" stroke="" stroke-width="" stroke-miterlimit=""/>
		<path d="M205.178,90.472H205.135V76.227C205.134,73.686 205.125,71.146 205.117,68.605C205.096,62.096 205.075,55.588 205.168,49.077C205.2,46.707 204.512,45.696 202.125,45.611C200.838,45.566 199.556,45.406 198.273,45.247C197.246,45.119 196.218,44.992 195.186,44.922C177.964,43.735 163.757,37.016 153.958,22.325C152.824,20.627 151.545,20.078 149.54,20.084C147.039,20.094 144.537,20.105 142.036,20.117L142.006,20.117C125.973,20.19 109.941,20.263 93.912,20.003C89.209,19.928 86.183,21.17 83.49,25.077C76.798,34.801 67.354,40.698 55.813,43.041C50.573,44.102 45.266,44.871 39.97,45.639C39.257,45.742 38.545,45.845 37.833,45.949L37.534,45.993C34.177,46.479 34.156,46.481 34.146,50.018C34.133,55.409 34.118,60.8 34.103,66.191L34.103,66.196C34.048,86.697 33.992,107.2 34.001,127.7C34.001,130.715 34.318,133.785 34.942,136.73C39.838,159.774 51.228,178.947 69.364,194.072C83.829,206.134 100.529,213.928 118.235,219.809C119.24,220.142 120.568,220.008 121.6,219.653C122.763,219.253 123.928,218.858 125.094,218.463C129.69,216.906 134.291,215.348 138.741,213.445C160.672,204.059 178.99,190.132 191.794,169.723C200.62,155.662 205.753,140.439 205.243,123.529C205.012,115.918 205.07,108.297 205.127,100.676C205.153,97.274 205.178,93.872 205.178,90.472ZM189.783,96.449C189.783,99.565 189.785,102.681 189.787,105.796C189.792,112.805 189.797,119.813 189.778,126.824C189.746,139.504 185.381,150.888 178.743,161.386C165.885,181.699 147.024,194.239 124.819,202.382C121.325,203.662 118.321,203.624 114.848,202.264C97.54,195.491 81.689,186.558 69.229,172.421C58.914,160.72 52.614,147.061 49.653,131.812C49.416,130.592 49.389,129.323 49.384,128.071C49.341,106.748 49.319,85.424 49.298,64.096C49.293,59.802 49.303,59.8 53.344,59.131L53.485,59.107C67.509,56.791 80.458,51.899 89.924,40.88C93.847,36.311 97.879,35.129 103.501,35.285C111.767,35.516 120.04,35.486 128.314,35.456C132.941,35.439 137.57,35.423 142.197,35.451C143.31,35.457 144.825,35.844 145.47,36.618C156.361,49.728 170.519,56.845 187.117,59.409C189.536,59.779 189.875,60.763 189.859,62.849C189.799,71.156 189.807,79.465 189.815,87.776C189.818,90.667 189.821,93.558 189.821,96.449H189.783Z" fill="#000" stroke="" stroke-width="" stroke-miterlimit=""/>
	</svg>
