<?xml version="1.0" encoding="utf-8"?>
	<svg version="1.1" xmlns="http://www.w3.org/2000/svg" xmlns:xlink="http://www.w3.org/1999/xlink" x="0px" y="0px" width="240.0" height="240.0" xml:space="preserve">
		<path d="M24.706,153.592C46.603,185.707 87.476,197.385 123.97,185.707C135.649,181.328 147.327,174.029 156.085,165.271C163.384,157.972 175.062,156.512 183.821,162.351C196.959,169.65 196.959,188.627 185.281,197.385C132.729,242.638 48.063,220.742 24.706,153.592ZM153.166,25.133C218.855,48.489 242.211,131.696 195.499,185.707C213.016,150.673 202.798,108.34 175.062,83.524C164.844,74.765 153.166,68.926 141.488,66.007C131.269,63.087 123.97,54.328 123.97,44.11C123.97,29.512 140.028,19.294 153.166,25.133ZM119.591,79.144C135.649,79.144 144.407,90.823 144.407,105.42C145.745,106.758 145.857,106.87 145.866,108.003L145.867,108.34C147.222,109.695 147.319,112.309 147.326,115.013L147.327,115.639C150.246,117.098 153.166,120.018 157.545,127.317C160.465,134.615 161.924,140.455 159.005,141.914C157.545,143.374 154.626,141.914 151.706,137.535C150.246,141.914 147.327,144.834 144.407,147.753C147.327,149.213 150.246,150.673 150.246,153.592C150.246,157.972 142.947,160.891 135.649,160.891C128.35,160.891 122.511,157.972 121.051,155.052L121.051,155.052L119.591,155.052C118.131,157.972 112.292,160.891 104.993,160.891C96.235,160.891 90.396,157.972 90.396,153.592C90.396,150.673 93.315,147.753 96.235,147.753C93.315,144.834 90.396,140.455 90.396,136.075L90.396,136.075L89.825,136.645L89.825,136.645L89.446,137.022C86.859,139.578 84.398,141.756 83.097,140.455C81.637,140.455 81.637,133.156 84.557,125.857C86.017,121.478 88.936,117.098 91.856,115.639L91.856,115.639L91.856,114.022C91.857,112.613 91.908,111.155 93.315,108.34C93.315,106.88 94.775,106.88 94.775,105.42C94.775,90.823 103.534,79.144 119.591,79.144ZM140.028,20.754C99.154,25.133 68.499,52.869 61.201,90.823C58.281,103.96 59.741,117.098 62.66,128.776C65.58,138.995 61.201,149.213 52.442,155.052C39.304,162.351 23.247,152.133 21.787,138.995C8.649,70.386 69.959,7.616 140.028,20.754Z" fill="#000" stroke="#00000000" stroke-width="1.0" stroke-miterlimit=""/>
	</svg>
