<?xml version="1.0" encoding="utf-8"?>
	<svg version="1.1" xmlns="http://www.w3.org/2000/svg" xmlns:xlink="http://www.w3.org/1999/xlink" x="0px" y="0px" width="240.0" height="240.0" xml:space="preserve">
		<path d="M183.633,61.844C182.146,55.263 169.451,43.364 162.847,42.369C160.247,41.983 157.413,42.217 158.525,45.672C160.645,52.265 158.654,54.911 151.85,54.244C151.358,54.197 150.808,54.712 150.011,55.087C160.739,60.451 163.432,69.878 158.443,82.186C154.93,90.84 144.999,94.611 134.904,91.648C125.255,88.803 119.118,82.01 113.766,74.152C112.466,72.255 111.33,70.253 109.176,66.751C108.461,71.904 108.016,75.441 107.478,78.977C107.197,80.816 107.513,83.474 104.901,83.498C102.301,83.521 102.618,80.757 102.161,78.989C101.646,76.998 101.4,74.937 100.896,72.056C96.938,76.893 92.699,80.347 91.153,85.828C90.86,86.882 90.778,88.393 89.103,88.041C87.803,87.772 87.3,86.624 87.265,85.371C87.136,80.383 85.848,75.277 89.724,70.873C92.874,67.301 91.246,65.451 87.077,64.772C84.009,64.28 80.952,63.718 77.931,62.98C76.549,62.641 75.472,61.575 75.882,59.935C76.221,58.554 77.486,58.39 78.692,58.378C81.175,58.354 83.646,58.378 86.96,58.378C84.782,54.982 81.304,54.712 79.172,52.686C78.306,51.867 77.404,51 77.826,49.7C78.282,48.295 79.641,47.944 80.671,48.576C91.036,54.9 97.641,48.447 103.554,41.444C109.129,34.827 117.198,32.895 125.465,28.375C112.185,29.628 102.255,34.359 94.771,43.891C94.408,44.348 94.151,44.934 93.717,45.285C91.364,47.159 87.593,49.337 85.906,48.002C83.318,45.953 86.773,43.306 88.073,41.151C96.423,27.239 109.094,21.828 124.962,20.329C140.221,18.889 153.572,22.25 167.051,28.937C173.726,32.251 180.53,34.839 185.94,40.179C187.732,41.947 190.484,40.73 192.733,41.303C194.056,41.643 195.543,41.877 196.07,43.341C196.75,45.18 195.204,45.484 194.009,46.187C190.871,48.002 189.992,51.082 189.43,54.478C188.88,57.851 188.575,61.786 183.61,61.833L183.633,61.844ZM141.088,85.594C146.791,85.969 151.885,81.39 153.513,73.883C154.45,69.562 155.34,65.521 149.297,63.027C143.289,60.544 142.493,54.642 146.381,50.122C147.564,48.751 150.058,47.697 148.325,45.414C146.873,43.505 144.636,42.334 142.142,43.107C138.429,44.255 134.787,45.625 131.157,47.007C114.188,53.448 113.626,54.162 121.414,70.147C125.29,78.134 131.192,84.716 141.088,85.594Z" fill="#000" stroke="" stroke-width="" stroke-miterlimit=""/>
		<path d="M183.61,61.833C184.465,62.278 185.296,62.793 186.186,63.156C192.463,65.767 191.983,65.393 188.072,70.499C185.378,74.012 181.888,77.35 181.443,82.432C181.057,86.73 176.349,87.96 173.621,89.259C169.99,90.993 168.023,93.768 165.505,96.262C164.135,97.621 163.116,99.389 161.137,99.963C159.357,100.49 157.26,101.813 155.925,99.518C154.836,97.633 156.687,96.684 157.705,95.267C162.132,89.002 168.878,84.844 171.489,76.647C173.304,70.967 177.684,65.24 183.622,61.844C183.633,61.844 183.61,61.833 183.61,61.833Z" fill="#000" stroke="" stroke-width="" stroke-miterlimit=""/>
		<path d="M111.401,218.957C107.583,218.746 102.055,219.636 96.821,217.482C94.233,216.416 92.406,218.29 90.263,219.051C87.674,219.964 84.934,220.948 82.779,218.208C81.55,216.638 80.636,214.847 81.69,212.809C83.201,209.87 85.719,209.799 88.682,210.08C99.713,211.088 110.944,210.35 121.659,213.968C123.697,214.659 127.246,214.484 126.754,217.552C126.309,220.281 123.205,218.91 121.203,218.957C118.462,219.004 115.734,218.957 111.401,218.957Z" fill="#000" stroke="" stroke-width="" stroke-miterlimit=""/>
		<path d="M43.161,175.873C43.314,173.906 42.166,170.99 44.614,170.217C47.143,169.42 47.659,172.547 48.935,174.093C50.528,176.037 52.191,177.934 53.772,179.89C54.908,181.295 55.821,182.864 54.591,184.633C53.526,186.155 51.98,185.734 50.375,185.558C44.473,184.89 42.365,181.518 43.161,175.873Z" fill="#000" stroke="" stroke-width="" stroke-miterlimit=""/>
		<path d="M140.081,69.269C139.706,72.97 138.301,74.949 134.331,73.532C128.639,71.494 123.018,60.872 124.552,55.028C125.512,51.387 128.827,50.321 132.387,52.862C138.02,56.867 138.418,63.437 140.081,69.269Z" fill="#000" stroke="" stroke-width="" stroke-miterlimit=""/>
	</svg>
