<?xml version="1.0" encoding="utf-8"?>
	<svg version="1.1" xmlns="http://www.w3.org/2000/svg" xmlns:xlink="http://www.w3.org/1999/xlink" x="0px" y="0px" width="240.0" height="240.0" xml:space="preserve">
		<path d="M119.653,170.762C148.062,170.762 176.471,170.777 204.88,170.751C211.344,170.745 211.758,170.056 209.755,163.868C206.562,154.009 200.65,146.036 192.472,139.865C189.216,137.409 187.893,134.686 187.965,130.729C188.114,122.357 188.13,113.976 187.94,105.606C187.302,77.378 169.584,52.781 142.921,43.36C138.718,41.875 136.54,40.195 136.413,35.221C136.19,26.434 128.919,20.108 120.158,20C111.154,19.891 103.663,26.224 103.398,35.212C103.251,40.169 101.069,41.79 96.91,43.373C73.158,52.415 58.309,69.417 53.046,94.354C50.515,106.344 52.095,118.588 51.865,130.717C51.791,134.655 50.614,137.4 47.351,139.857C39.311,145.914 33.452,153.728 30.221,163.389C27.972,170.112 28.361,170.751 35.41,170.756C63.491,170.774 91.572,170.763 119.653,170.762" fill="#000" stroke="#00000000" stroke-width="1.0" stroke-miterlimit=""/>
		<path d="M119.909,201.818m-18.182,0a18.182,18.182 0,1 1,36.364 0a18.182,18.182 0,1 1,-36.364 0" fill="#000" stroke="#00000000" stroke-width="1.0" stroke-miterlimit=""/>
	</svg>
