<?xml version="1.0" encoding="utf-8"?>
	<svg version="1.1" xmlns="http://www.w3.org/2000/svg" xmlns:xlink="http://www.w3.org/1999/xlink" x="0px" y="0px" width="240.0" height="240.0" xml:space="preserve">
		<path d="M202.23,94.496C205.306,96.524 208.137,98.884 211.12,101.04C213.064,102.446 215.001,103.866 216.931,105.296C218.21,106.246 218.753,107.587 219.366,109.053C220.353,111.41 219.889,113.739 219.894,116.053C219.954,141.92 219.942,167.789 219.913,193.657C219.911,196.678 219.08,199.567 217.64,202.206C215.667,205.825 212.781,208.51 209.13,210.523C205.434,212.564 201.531,212.626 197.544,212.42C196.748,212.379 195.984,212.513 195.201,212.513C143.105,212.492 91.009,212.482 38.914,212.511C29.913,212.516 21.855,205.722 20.267,196.628C20.072,195.517 20.017,194.407 20.017,193.285C20.022,166.092 20.034,138.904 20,111.715C19.995,108.668 21.259,106.536 23.723,104.784C28.354,101.492 32.85,98.01 37.407,94.616C37.852,94.285 38.25,93.871 38.82,93.734C37.212,99.435 36.477,105.198 37.234,111.131C37.493,113.16 38.202,114.503 39.993,115.707C52.826,124.342 65.573,133.107 78.327,141.862C83.269,145.253 88.282,148.536 93.115,152.088C94.689,153.244 96.419,154.186 98.051,155.265C98.464,155.539 98.755,155.453 99.142,155.263C100.61,154.544 102.057,153.758 103.578,153.172C116.273,148.284 128.69,148.94 140.793,155.159C141.339,155.441 141.67,155.404 142.168,155.085C145.347,153.052 148.392,150.826 151.502,148.695C160.781,142.336 170.094,136.029 179.385,129.692C186.441,124.878 193.451,119.995 200.567,115.27C202.115,114.241 202.778,113.02 202.922,111.302C203.158,108.512 203.355,105.743 203.22,102.915C203.086,100.067 202.711,97.284 202.23,94.496Z" fill="#000" stroke="" stroke-width="" stroke-miterlimit=""/>
		<path d="M202.229,94.496C202.71,97.286 203.083,100.069 203.22,102.919C203.354,105.748 203.157,108.514 202.922,111.307C202.777,113.025 202.114,114.246 200.566,115.275C193.45,120 186.44,124.883 179.384,129.697C170.093,136.034 160.778,142.343 151.501,148.699C148.391,150.831 145.346,153.057 142.167,155.09C141.669,155.409 141.338,155.443 140.792,155.164C128.689,148.945 116.272,148.288 103.578,153.177C102.056,153.763 100.61,154.549 99.141,155.268C98.754,155.457 98.463,155.544 98.05,155.27C96.418,154.191 94.688,153.249 93.114,152.093C88.281,148.543 83.268,145.26 78.326,141.867C65.575,133.112 52.828,124.347 39.992,115.712C38.201,114.508 37.493,113.165 37.233,111.136C36.476,105.203 37.209,99.44 38.819,93.739C40.251,89.406 42.078,85.246 44.311,81.269C44.993,80.052 45.673,78.824 46.483,77.69C50.497,72.074 53.265,65.724 56.976,59.932C59.115,56.597 61.167,53.191 64.318,50.663C65.471,49.738 66.654,48.81 68.214,48.69C69.593,48.582 70.321,49.218 70.412,50.605C70.513,52.102 70.141,53.544 69.84,54.993C69.41,57.065 68.959,59.125 69.225,61.278C69.598,64.287 72.297,65.541 74.743,63.763C76.945,62.16 78.12,59.762 79.432,57.483C82.405,52.321 85.358,47.142 89.355,42.672C91.516,40.254 93.972,38.211 97.305,37.639C99.439,37.274 100.634,38.498 100.718,40.687C100.797,42.763 100.393,44.736 99.941,46.724C99.845,47.147 99.651,47.563 99.78,48.014C99.119,49.495 98.949,51.083 98.848,52.667C98.711,54.78 99.516,55.955 101.518,56.496C102.64,56.798 103.811,56.676 104.928,56.255C106.719,55.58 108.209,54.448 109.595,53.172C112.958,50.074 115.671,46.402 118.603,42.924C119.886,41.675 121.165,40.423 122.45,39.178C126.255,35.496 130.249,32.059 135.094,29.783C138.427,28.216 141.886,27.462 145.553,28.445C147.502,28.969 147.942,29.675 148.072,31.655C148.228,34.047 147.344,36.133 146.368,38.18C144.75,41.569 143.02,44.902 141.343,48.262C141.256,48.433 141.227,48.632 141.17,48.819C140.182,50.843 139.432,52.936 139.41,55.222C139.386,58.01 140.708,59.387 143.498,59.464C146.534,59.548 149.007,58.2 151.256,56.327C154.195,54.246 156.798,51.742 159.73,49.644C164.092,46.52 168.384,43.304 173.33,41.115C175.729,40.052 178.221,39.358 180.831,39.115C181.465,39.055 182.112,39.05 182.751,39.084C186.483,39.278 187.925,41.391 186.707,44.909C186.002,46.938 184.82,48.692 183.467,50.346C180.422,54.066 177.471,57.851 175.443,62.256C174.887,63.463 174.503,64.71 174.493,66.065C174.484,67.337 175.06,68.192 176.176,68.731C177.983,69.605 179.819,69.466 181.674,68.906C184.539,68.041 187.036,66.426 189.653,65.046C195.241,62.102 201.033,59.728 207.339,58.856C209.398,58.572 211.487,58.399 213.544,58.916C216.683,59.704 217.812,61.961 216.541,64.943C215.483,67.423 213.674,69.372 211.802,71.235C209.249,73.777 206.606,76.224 204.022,78.735C202.958,79.769 202.032,80.925 201.227,82.177C200.177,83.809 199.841,85.541 200.352,87.435C200.989,89.778 201.605,92.138 202.229,94.496ZM116.135,147.19C117.812,147.099 119.492,147.024 121.17,146.914C132.708,146.162 143.655,143.352 153.743,137.548C158.026,135.085 161.823,132.05 164.943,128.19C172.241,119.161 172.768,108.224 166.236,98.762C161.624,92.083 155.159,87.664 147.968,84.181C138.552,79.622 128.471,77.654 118.177,76.522C110.175,75.642 102.193,75.83 94.255,77.238C85.351,78.817 76.899,81.624 69.394,86.806C62.527,91.547 57.336,97.474 56.154,106.154C55.724,109.307 55.512,112.432 56.214,115.568C57.529,121.439 60.737,126.188 65.017,130.266C71.492,136.433 79.244,140.355 87.68,143.093C92.977,144.811 98.406,145.936 103.904,146.589C107.947,147.072 112.04,147.33 116.135,147.19Z" fill="#000" stroke="" stroke-width="" stroke-miterlimit=""/>
		<path d="M108.812,89.839C114.066,89.855 118.37,90.778 122.355,92.943C132.633,98.534 136.394,110.18 131.189,120.882C126.546,130.425 118.598,135.734 108.36,137.772C103.116,138.815 97.916,138.435 92.886,136.548C80.391,131.862 75.181,118.649 81.266,106.772C85.902,97.726 93.59,92.636 103.354,90.444C105.39,89.985 107.469,89.865 108.812,89.839ZM106.337,117.056C106.399,113.112 103.823,110.105 99.978,109.629C94.815,108.99 89.636,112.927 88.783,118.135C88.115,122.223 90.567,125.912 94.472,126.693C100.213,127.837 106.245,122.936 106.337,117.056ZM109.129,114.782C110.843,114.77 112.34,113.27 112.333,111.574C112.328,110.199 111.28,109.185 109.884,109.204C108.204,109.226 106.656,110.783 106.664,112.439C106.671,113.823 107.69,114.792 109.129,114.782Z" fill="#000" stroke="" stroke-width="" stroke-miterlimit=""/>
	</svg>
