<?xml version="1.0" encoding="utf-8"?>
	<svg version="1.1" xmlns="http://www.w3.org/2000/svg" xmlns:xlink="http://www.w3.org/1999/xlink" x="0px" y="0px" width="240.0" height="240.0" xml:space="preserve">
		<path d="M33.859,170.655C32.599,169.803 33.093,168.493 33.086,167.383C33.064,135.797 33.086,104.218 33.05,72.632C33.05,70.698 33.379,69.409 35.284,68.321C62.917,52.431 90.486,36.448 118.077,20.494C118.471,20.265 118.907,20.122 119.179,20C119.981,20.272 119.91,20.816 119.91,21.246C119.86,54.135 119.802,87.032 119.738,119.921C119.308,121.225 118.048,121.504 117.038,122.084C109.856,126.237 102.674,130.39 95.484,134.536C81.005,142.886 66.476,151.164 52.055,159.613C45.939,163.208 39.48,166.244 33.859,170.655Z" fill="#000" stroke="" stroke-width="" stroke-miterlimit=""/>
		<path d="M33.859,170.655C39.481,166.244 45.932,163.201 52.048,159.62C66.469,151.164 80.999,142.893 95.478,134.544C102.667,130.397 109.849,126.244 117.032,122.091C118.041,121.511 119.302,121.232 119.731,119.928C120.168,119.964 120.598,120 121.034,120.043C121.042,120.193 121.02,120.329 120.97,120.465C119.882,121.561 120.34,122.95 120.34,124.203C120.311,134.694 120.354,145.177 120.347,155.668C120.34,177.114 120.311,198.561 120.297,220.007C115.95,218.976 112.527,216.133 108.782,213.985C83.77,199.599 58.829,185.113 33.859,170.655Z" fill="#000" stroke="" stroke-width="" stroke-miterlimit=""/>
		<path d="M120.977,120.458C121.027,120.322 121.048,120.179 121.041,120.036C125.395,116.291 130.651,113.985 135.527,111.106C153.114,100.738 170.815,90.555 188.495,80.344C194.432,76.914 200.44,73.605 206.412,70.24C207.443,71.379 207.027,72.495 207.027,73.484C207.056,104.218 207.056,134.952 207.027,165.686C207.027,166.939 207.507,168.335 206.361,169.402C195.184,163.036 183.991,156.699 172.835,150.297C155.534,140.372 138.255,130.405 120.977,120.458Z" fill="#000" stroke="" stroke-width="" stroke-miterlimit=""/>
		<path d="M120.976,120.458C138.262,130.405 155.534,140.372 172.834,150.29C183.991,156.692 195.183,163.029 206.361,169.395C206.769,170.226 206.397,170.634 205.645,171.042C197.911,175.288 190.228,179.649 182.609,184.074C175.648,188.113 168.724,192.259 161.771,196.334C149.046,203.788 136.243,211.092 123.461,218.446C122.451,219.026 121.363,219.477 120.303,219.986C120.317,198.539 120.346,177.093 120.353,155.646C120.36,145.156 120.317,134.672 120.346,124.182C120.346,122.943 119.887,121.554 120.976,120.458Z" fill="#000" stroke="" stroke-width="" stroke-miterlimit=""/>
	</svg>
