<?xml version="1.0" encoding="utf-8"?>
	<svg version="1.1" xmlns="http://www.w3.org/2000/svg" xmlns:xlink="http://www.w3.org/1999/xlink" x="0px" y="0px" width="240.0" height="240.0" xml:space="preserve">
		<path d="M124.911,219.957C121.657,219.957 118.403,219.957 115.149,219.957C114.83,219.9 114.514,219.803 114.193,219.793C111.524,219.701 108.869,219.425 106.233,219.025C76.76,214.543 53.563,199.961 36.804,175.369C26.311,159.968 20.952,142.748 20.1,124.147C19.765,116.846 20.275,109.579 21.581,102.379C24.708,85.102 31.899,69.705 43.056,56.157C43.431,55.7 43.772,55.186 44.483,54.779C44.483,55.397 44.483,55.844 44.483,56.292C44.483,69.797 44.483,83.302 44.485,96.805C44.485,98.255 44.528,98.298 45.957,98.3C51.325,98.304 56.696,98.363 62.065,98.281C65.98,98.22 69.632,97.272 72.816,94.784C77.767,90.914 78.879,81.752 73.676,77.431C72.003,76.041 70.105,75.199 68.006,74.74C67.748,74.683 67.406,74.773 67.242,74.349C67.727,74.147 68.206,73.964 68.673,73.751C71.407,72.504 73.578,70.649 74.687,67.794C76.696,62.624 74.194,57.433 68.767,55.365C66.269,54.414 63.666,54.04 61.017,54.021C56.137,53.986 51.255,54.013 46.375,54.003C46.033,54.003 45.55,54.169 45.386,53.813C45.196,53.401 45.699,53.165 45.912,52.858C45.966,52.778 46.045,52.715 46.111,52.643C49.029,49.393 52.205,46.412 55.533,43.588C63.873,36.517 73.129,30.968 83.298,26.966C97.006,21.567 111.223,19.316 125.941,20.18C131.642,20.514 137.277,21.278 142.824,22.607C162.473,27.309 179.244,37.005 193.086,51.744C199.432,58.5 204.714,66.001 208.957,74.241C214.653,85.303 218.155,97.016 219.455,109.389C219.654,111.295 219.818,113.203 220,115.11C220,118.364 220,121.618 220,124.872C219.941,125.224 219.849,125.572 219.832,125.926C219.537,131.957 218.632,137.901 217.176,143.754C212.389,162.986 202.78,179.403 188.338,192.988C181.564,199.359 174.042,204.666 165.774,208.922C154.714,214.618 143.002,218.118 130.632,219.416C128.726,219.613 126.819,219.777 124.911,219.957ZM80.433,183.837C84.271,183.837 88.112,183.837 91.95,183.837C99.727,183.837 107.501,183.839 115.278,183.835C116.591,183.835 116.675,183.747 116.681,182.459C116.689,180.736 116.689,179.01 116.681,177.286C116.675,175.981 116.57,175.871 115.307,175.863C113.81,175.854 112.315,175.861 110.818,175.859C109.088,175.857 109.084,175.855 109.084,174.126C109.084,160.591 109.084,147.057 109.083,133.523C109.083,131.949 109.063,131.93 107.511,131.928C100.907,131.926 94.303,131.93 87.697,131.924C85.088,131.922 85.282,132.172 85.28,129.502C85.278,126.968 85.133,127.182 87.605,127.182C96.324,127.179 105.043,127.183 113.763,127.179C115.065,127.179 115.163,127.079 115.169,125.797C115.176,124.138 115.174,122.478 115.171,120.819C115.167,119.242 115.114,119.187 113.507,119.187C104.789,119.185 96.068,119.187 87.349,119.185C86.992,119.185 86.634,119.173 86.276,119.175C85.582,119.181 85.278,118.833 85.284,118.147C85.293,117.172 85.272,116.195 85.27,115.219C85.268,114.619 84.973,114.317 84.373,114.317C81.543,114.315 78.713,114.317 75.881,114.313C75.232,114.313 74.929,114.629 74.933,115.272C74.939,116.119 74.935,116.965 74.923,117.809C74.908,119.029 74.782,119.156 73.584,119.181C73.193,119.189 72.803,119.185 72.414,119.185C64.019,119.185 55.625,119.183 47.233,119.189C45.943,119.189 45.828,119.308 45.82,120.579C45.81,122.238 45.814,123.897 45.818,125.556C45.82,127.151 45.849,127.181 47.471,127.182C55.963,127.184 64.453,127.183 72.945,127.184C73.303,127.184 73.661,127.196 74.018,127.194C74.626,127.19 74.913,127.495 74.915,128.093C74.917,128.842 74.927,129.59 74.925,130.339C74.921,131.885 74.88,131.928 73.334,131.93C66.73,131.932 60.126,131.93 53.52,131.932C51.91,131.932 51.904,131.94 51.904,133.577C51.902,143.24 51.904,152.903 51.904,162.565C51.904,166.568 51.908,170.569 51.9,174.571C51.898,175.744 51.787,175.85 50.606,175.859C48.914,175.871 47.221,175.895 45.531,175.853C44.616,175.83 44.235,176.156 44.26,177.098C44.307,178.789 44.27,180.482 44.272,182.174C44.274,183.831 44.284,183.843 45.978,183.843C57.462,183.839 68.948,183.837 80.433,183.837ZM126.063,147.704C126.063,153.79 126.063,159.874 126.063,165.96C126.063,168.212 126.065,168.239 123.805,168.427C122.916,168.501 122.625,168.837 122.779,169.736C123.201,172.171 123.559,174.62 123.936,177.063C124.132,178.332 124.253,178.427 125.513,178.187C129.987,177.331 134.461,176.471 138.934,175.617C140.42,175.334 140.523,175.418 140.527,176.895C140.533,179.694 140.525,182.493 140.531,185.291C140.533,186.675 140.601,186.746 141.95,186.749C143.869,186.755 145.79,186.755 147.71,186.749C149.015,186.746 149.088,186.673 149.092,185.358C149.097,181.875 149.113,178.394 149.082,174.911C149.074,174.04 149.363,173.569 150.254,173.465C150.899,173.389 151.533,173.223 152.172,173.106C153.565,172.852 153.681,172.75 153.761,171.366C153.895,169.062 153.997,166.756 154.132,164.449C154.173,163.74 153.882,163.492 153.2,163.634C152.309,163.82 151.413,163.99 150.518,164.164C149.117,164.438 149.093,164.422 149.093,162.982C149.092,151.593 149.093,140.203 149.093,128.814C149.093,128.619 149.107,128.424 149.097,128.228C149.064,127.515 149.434,127.224 150.11,127.237C150.37,127.243 150.632,127.214 150.89,127.231C151.726,127.288 152.054,126.905 152.043,126.072C152.013,123.958 152.015,121.841 152.041,119.726C152.051,118.933 151.73,118.626 150.938,118.628C142.12,118.642 133.302,118.642 124.483,118.628C123.713,118.626 123.348,118.888 123.358,119.703C123.385,121.851 123.383,123.999 123.358,126.147C123.348,126.956 123.715,127.22 124.483,127.239C126.035,127.276 126.059,127.321 126.059,128.861C126.065,135.143 126.063,141.424 126.063,147.704ZM124.933,75.607C124.98,74.04 124.868,72.16 124.481,70.305C123.057,63.478 119.539,58.186 113.109,55.14C109.401,53.386 105.445,53.024 101.386,53.391C93.916,54.066 88.309,57.631 84.691,64.191C81.887,69.279 81.291,74.81 82.014,80.478C82.985,88.076 86.777,93.811 93.772,97.17C97.688,99.05 101.886,99.373 106.17,98.912C112.428,98.238 117.373,95.331 120.954,90.166C123.915,85.891 124.993,81.066 124.933,75.607ZM173.1,149.084C178.924,149.084 184.748,149.086 190.572,149.082C192.009,149.082 192.097,149 192.097,147.616C192.101,139.026 192.101,130.437 192.097,121.847C192.097,120.502 192.005,120.414 190.645,120.412C186.902,120.407 183.161,120.412 179.418,120.408C177.886,120.407 177.851,120.367 177.845,118.798C177.841,117.725 177.825,116.65 177.843,115.577C177.855,114.829 177.513,114.53 176.776,114.535C174.335,114.553 171.896,114.551 169.455,114.537C168.749,114.533 168.456,114.846 168.466,115.542C168.483,116.713 168.474,117.885 168.464,119.056C168.454,120.295 168.356,120.405 167.131,120.407C163.324,120.414 159.516,120.408 155.711,120.412C154.239,120.414 154.179,120.473 154.179,121.964C154.177,130.489 154.177,139.013 154.179,147.538C154.179,149.011 154.249,149.082 155.723,149.084C161.516,149.086 167.309,149.084 173.1,149.084ZM173.432,152.574C166.597,152.574 159.765,152.572 152.93,152.574C151.288,152.574 151.253,152.613 151.251,154.288C151.249,155.721 151.284,157.154 151.241,158.584C151.212,159.522 151.609,159.849 152.52,159.833C154.667,159.796 156.815,159.816 158.963,159.827C160.22,159.833 160.355,159.987 160.109,161.193C159.589,163.744 159.045,166.291 158.52,168.839C158.225,170.266 158.303,170.364 159.745,170.365C165.278,170.369 170.809,170.367 176.342,170.367C177.677,170.367 179.01,170.379 180.345,170.369C181.027,170.364 181.363,170.643 181.355,171.358C181.345,172.437 181.242,173.504 181.05,174.56C180.855,175.64 180.169,176.348 179.133,176.71C178.447,176.95 177.737,176.997 177.016,177.005C172.689,177.052 168.364,176.977 164.039,176.827C162.946,176.788 162.876,176.913 163.138,177.921C163.668,179.97 164.242,182.006 164.694,184.072C164.916,185.086 165.366,185.454 166.416,185.442C170.776,185.391 175.136,185.418 179.496,185.42C181.04,185.422 182.536,185.153 184.003,184.684C187.844,183.452 190.056,180.812 190.498,176.839C190.945,172.799 191.012,168.728 191.129,164.664C191.166,163.363 191.182,163.355 189.884,163.355C184.06,163.351 178.234,163.353 172.41,163.353C171.597,163.353 170.782,163.357 169.969,163.343C169.648,163.337 169.189,163.361 169.167,162.966C169.117,162.02 169.257,161.059 169.674,160.214C169.986,159.581 170.725,159.835 171.282,159.835C178.896,159.821 186.511,159.827 194.125,159.823C195.503,159.823 195.583,159.741 195.589,158.402C195.597,156.97 195.595,155.539 195.589,154.107C195.583,152.649 195.519,152.58 194.026,152.58C187.164,152.574 180.298,152.576 173.432,152.574ZM130.571,91.952C130.571,92.994 130.569,94.034 130.571,95.075C130.573,96.754 130.601,96.772 132.201,97.383C134.781,98.368 137.471,98.826 140.209,98.998C144.594,99.271 148.918,99.023 153.067,97.354C161.78,93.852 161.905,83.222 157.777,78.365C155.828,76.072 153.278,74.65 150.639,73.364C148.39,72.267 146.037,71.382 143.869,70.113C142.796,69.486 141.759,68.823 141.049,67.758C139.933,66.079 140.125,64.209 141.544,62.788C142.609,61.723 143.949,61.24 145.38,61.025C149.604,60.392 153.606,61.078 157.351,63.169C158.375,63.742 158.457,63.687 158.463,62.495C158.471,60.445 158.406,58.393 158.488,56.346C158.535,55.209 158.064,54.74 157.028,54.449C154.503,53.739 151.927,53.413 149.324,53.298C145.017,53.106 140.822,53.557 136.886,55.533C128.998,59.491 128.982,69.021 132.93,73.686C134.963,76.088 137.527,77.685 140.349,78.934C142.253,79.776 144.19,80.544 146.023,81.539C147.11,82.129 148.185,82.735 149.049,83.656C151.325,86.083 150.708,89.329 147.677,90.717C145.949,91.508 144.088,91.667 142.231,91.602C138.225,91.462 134.566,90.254 131.359,87.791C131.187,87.66 131.005,87.422 130.769,87.537C130.485,87.676 130.583,87.996 130.581,88.243C130.567,89.48 130.573,90.715 130.571,91.952ZM193.611,59.29C193.611,58.248 193.559,57.204 193.627,56.167C193.689,55.201 193.261,54.777 192.376,54.515C189.798,53.749 187.158,53.409 184.488,53.296C180.147,53.11 175.92,53.557 171.962,55.569C164.131,59.548 164.168,69.07 168.067,73.674C170.123,76.102 172.717,77.71 175.572,78.967C177.478,79.805 179.41,80.583 181.244,81.578C182.448,82.231 183.622,82.923 184.51,84.009C186.202,86.081 185.874,88.694 183.677,90.215C181.783,91.524 179.575,91.661 177.397,91.6C173.393,91.489 169.73,90.267 166.521,87.807C166.347,87.674 166.165,87.439 165.931,87.533C165.626,87.654 165.728,87.983 165.726,88.227C165.716,90.473 165.718,92.716 165.718,94.962C165.718,96.785 165.712,96.828 167.422,97.405C173.633,99.498 179.926,99.672 186.261,98.044C188.465,97.477 190.42,96.385 192.112,94.839C196.733,90.615 197.145,80.624 190.449,76.057C187.6,74.114 184.453,72.807 181.367,71.349C179.835,70.625 178.298,69.887 177.04,68.73C174.575,66.463 175.085,63.234 178.097,61.786C179.442,61.141 180.872,60.879 182.35,60.818C186.013,60.668 189.47,61.401 192.648,63.267C193.379,63.697 193.631,63.521 193.615,62.708C193.594,61.569 193.609,60.429 193.611,59.29Z" fill="#000" stroke="" stroke-width="" stroke-miterlimit=""/>
		<path d="M54.011,85.239C54.011,83.55 54.013,81.861 54.011,80.173C54.011,79.631 54.148,79.168 54.798,79.176C57.294,79.209 59.81,78.895 62.278,79.414C66.617,80.329 68.493,84.467 66.304,88.239C65.315,89.943 63.679,90.711 61.834,91.059C59.518,91.497 57.171,91.235 54.838,91.264C54.13,91.274 54.005,90.785 54.007,90.207C54.013,88.551 54.011,86.894 54.011,85.239Z" fill="#000" stroke="" stroke-width="" stroke-miterlimit=""/>
		<path d="M54.013,66.519C54.013,65.024 54.015,63.529 54.011,62.034C54.009,61.481 54.169,61.051 54.812,61.047C57.116,61.031 59.436,60.846 61.69,61.52C64.072,62.233 65.247,63.607 65.364,65.755C65.505,68.305 64.328,70.35 62.163,71.28C61.17,71.708 60.132,71.968 59.042,71.97C57.742,71.97 56.44,71.943 55.14,71.98C54.292,72.003 53.979,71.634 53.997,70.813C54.028,69.384 54.005,67.952 54.005,66.523C54.009,66.519 54.013,66.519 54.013,66.519Z" fill="#000" stroke="" stroke-width="" stroke-miterlimit=""/>
		<path d="M80.491,150.274C86.249,150.274 92.009,150.272 97.766,150.276C99.234,150.278 99.32,150.37 99.33,151.816C99.334,152.336 99.336,152.858 99.328,153.378C99.309,154.57 99.176,154.716 97.96,154.718C92.071,154.726 86.183,154.722 80.294,154.722C74.665,154.722 69.038,154.724 63.41,154.72C61.86,154.72 61.805,154.673 61.819,153.131C61.848,149.926 61.397,150.286 64.68,150.278C69.951,150.264 75.222,150.274 80.491,150.274Z" fill="#000" stroke="" stroke-width="" stroke-miterlimit=""/>
		<path d="M80.491,144.02C74.767,144.02 69.042,144.022 63.318,144.018C61.885,144.018 61.809,143.951 61.819,142.542C61.84,139.351 61.442,139.718 64.606,139.714C75.631,139.703 86.658,139.71 97.682,139.71C99.303,139.71 99.336,139.738 99.328,141.338C99.314,144.377 99.621,144.006 96.688,144.014C91.289,144.03 85.891,144.02 80.491,144.02Z" fill="#000" stroke="" stroke-width="" stroke-miterlimit=""/>
		<path d="M80.689,160.976C86.38,160.976 92.071,160.974 97.765,160.976C99.295,160.976 99.328,161.014 99.332,162.583C99.334,163.169 99.32,163.754 99.326,164.34C99.332,164.995 99.007,165.294 98.366,165.278C98.14,165.272 97.911,165.284 97.684,165.284C86.302,165.284 74.917,165.284 63.535,165.284C61.823,165.284 61.813,165.28 61.821,163.525C61.83,160.666 61.555,160.986 64.397,160.98C69.826,160.969 75.257,160.976 80.689,160.976Z" fill="#000" stroke="" stroke-width="" stroke-miterlimit=""/>
		<path d="M80.53,175.859C74.806,175.859 69.079,175.861 63.355,175.857C61.879,175.857 61.809,175.795 61.819,174.313C61.838,171.196 61.459,171.544 64.565,171.54C75.591,171.53 86.62,171.536 97.647,171.536C99.32,171.536 99.336,171.548 99.33,173.227C99.318,176.174 99.604,175.848 96.731,175.855C91.33,175.867 85.93,175.859 80.53,175.859Z" fill="#000" stroke="" stroke-width="" stroke-miterlimit=""/>
		<path d="M134.685,162.612C134.685,161.506 134.691,160.4 134.683,159.296C134.68,158.672 134.936,158.299 135.596,158.297C136.929,158.293 138.262,158.293 139.595,158.295C140.246,158.297 140.525,158.647 140.523,159.28C140.517,161.231 140.517,163.183 140.523,165.133C140.525,165.712 140.271,166.04 139.687,166.134C138.338,166.349 136.994,166.584 135.645,166.806C134.961,166.92 134.683,166.576 134.683,165.931C134.685,164.825 134.685,163.718 134.685,162.612Z" fill="#000" stroke="" stroke-width="" stroke-miterlimit=""/>
		<path d="M134.687,146.545C134.687,145.601 134.687,144.659 134.687,143.715C134.687,143.113 134.984,142.824 135.59,142.826C136.923,142.832 138.258,142.834 139.591,142.824C140.258,142.818 140.525,143.154 140.523,143.789C140.517,145.675 140.514,147.563 140.527,149.449C140.531,150.149 140.209,150.454 139.519,150.446C138.25,150.432 136.982,150.428 135.713,150.448C134.957,150.46 134.66,150.106 134.678,149.377C134.699,148.435 134.683,147.491 134.683,146.547L134.687,146.545Z" fill="#000" stroke="" stroke-width="" stroke-miterlimit=""/>
		<path d="M134.685,130.992C134.685,130.083 134.695,129.174 134.682,128.267C134.672,127.583 134.983,127.241 135.672,127.243C136.97,127.247 138.268,127.243 139.566,127.247C140.199,127.247 140.523,127.554 140.521,128.201C140.517,130.114 140.517,132.029 140.519,133.943C140.519,134.609 140.16,134.858 139.534,134.854C138.237,134.844 136.939,134.844 135.641,134.854C134.996,134.858 134.682,134.56 134.685,133.914C134.689,132.938 134.685,131.965 134.685,130.992Z" fill="#000" stroke="" stroke-width="" stroke-miterlimit=""/>
		<path d="M91.698,76.489C91.68,73.283 92.163,70.424 93.518,67.751C96.123,62.604 101.536,60.285 107.069,61.936C109.858,62.769 111.887,64.575 113.089,67.139C115.716,72.746 115.902,78.533 113.56,84.256C111.719,88.753 108.137,90.926 103.28,90.901C98.447,90.875 95.224,88.385 93.24,84.125C92.079,81.635 91.667,78.982 91.698,76.489Z" fill="#000" stroke="" stroke-width="" stroke-miterlimit=""/>
		<path d="M181.23,127.204C181.977,127.204 182.725,127.214 183.472,127.2C184.105,127.188 184.457,127.446 184.453,128.113C184.447,129.055 184.451,129.997 184.451,130.939C184.451,131.531 184.162,131.854 183.564,131.857C181.973,131.865 180.38,131.865 178.789,131.865C178.207,131.865 177.866,131.592 177.865,130.984C177.859,130.011 177.859,129.035 177.863,128.06C177.866,127.448 178.203,127.194 178.795,127.202C179.606,127.212 180.417,127.206 181.23,127.204Z" fill="#000" stroke="" stroke-width="" stroke-miterlimit=""/>
		<path d="M181.124,137.748C181.904,137.748 182.684,137.762 183.464,137.744C184.168,137.727 184.47,138.059 184.459,138.747C184.445,139.624 184.445,140.5 184.459,141.377C184.468,142.056 184.175,142.413 183.478,142.413C181.918,142.409 180.36,142.413 178.801,142.411C178.222,142.411 177.872,142.146 177.866,141.536C177.859,140.562 177.859,139.587 177.863,138.614C177.865,138.006 178.191,137.74 178.787,137.748C179.565,137.756 180.345,137.748 181.124,137.748Z" fill="#000" stroke="" stroke-width="" stroke-miterlimit=""/>
		<path d="M165.223,127.208C166.003,127.208 166.781,127.212 167.561,127.206C168.163,127.202 168.462,127.483 168.458,128.091C168.452,129.065 168.454,130.04 168.456,131.013C168.458,131.58 168.163,131.856 167.617,131.857C166.027,131.865 164.436,131.865 162.845,131.857C162.305,131.856 161.993,131.59 161.993,131.021C161.993,130.048 161.993,129.072 161.991,128.099C161.989,127.497 162.28,127.202 162.886,127.206C163.664,127.212 164.443,127.21 165.223,127.208Z" fill="#000" stroke="" stroke-width="" stroke-miterlimit=""/>
		<path d="M165.219,142.409C164.44,142.409 163.662,142.411 162.882,142.407C162.29,142.404 161.983,142.114 161.987,141.506C161.995,140.533 161.989,139.558 161.995,138.585C161.999,138.024 162.294,137.754 162.847,137.754C164.438,137.754 166.029,137.754 167.619,137.754C168.18,137.754 168.452,138.041 168.454,138.598C168.456,139.572 168.45,140.547 168.46,141.52C168.466,142.138 168.143,142.406 167.557,142.407C166.779,142.411 165.999,142.409 165.219,142.409Z" fill="#000" stroke="" stroke-width="" stroke-miterlimit=""/>
	</svg>
