<?xml version="1.0" encoding="utf-8"?>
	<svg version="1.1" xmlns="http://www.w3.org/2000/svg" xmlns:xlink="http://www.w3.org/1999/xlink" x="0px" y="0px" width="240.0" height="240.0" xml:space="preserve">
		<path d="M113.681,159.82C105.645,159.911 98.336,160.65 93.152,153.921C89.788,149.556 87.082,145.02 89.594,139.428C92.232,133.551 96.744,129.629 103.417,129.277C109.43,128.959 115.477,129.14 121.513,129.095C140.985,128.947 154.035,118.751 157.615,99.484C160.298,85.013 159.741,70.77 147.555,59.778C140.303,53.231 131.357,51.31 122.07,50.241C120.115,50.014 117.592,50.73 116.705,48.161C115.864,45.706 118.058,44.455 119.422,43C124.969,37.089 130.618,31.292 136.12,25.347C138.325,22.971 140.496,22.426 143.634,23.619C182.964,38.556 200.97,84.831 181.93,122.343C175.666,134.676 165.822,143.338 154.012,150.283C139.621,158.729 132.119,158.831 113.681,159.82Z" fill="#000" stroke="" stroke-width="" stroke-miterlimit=""/>
		<path d="M81.478,83.433C80.114,109.782 81.478,136.165 80.41,162.503C79.841,176.428 79.762,190.33 79.375,204.243C79.193,210.87 75.056,215.44 69.782,218.645C65.576,221.192 61.074,219.987 57.994,216.383C53.561,211.2 50.082,205.437 50.025,198.173C49.753,161.639 51.787,125.128 50.878,88.594C50.764,84.183 52.537,82.762 56.823,82.512C63.2,82.149 69.554,81.126 75.681,79.159C81.251,77.363 81.853,77.75 81.478,83.433Z" fill="#000" stroke="" stroke-width="" stroke-miterlimit=""/>
		<path d="M120.058,20.175C122.57,20.88 126.742,18.447 128.402,21.948C130.266,25.859 126.037,27.848 123.798,30.121C113.056,40.966 102.03,51.48 90.004,60.96C80.558,68.406 69.168,70.338 58.21,73.566C54.595,74.624 53.276,71.566 53.981,68.77C55.55,62.518 57.687,56.777 65.007,54.367C75.931,50.775 84.763,43.523 93.414,36.203C97.154,33.043 100.711,29.667 104.303,26.336C110.931,20.187 110.908,20.164 120.058,20.175Z" fill="#000" stroke="" stroke-width="" stroke-miterlimit=""/>
	</svg>
