<?xml version="1.0" encoding="utf-8"?>
	<svg version="1.1" xmlns="http://www.w3.org/2000/svg" xmlns:xlink="http://www.w3.org/1999/xlink" x="0px" y="0px" width="240.0" height="240.0" xml:space="preserve">
		<path d="M134.06,28C150.492,28.552 158.728,36.747 158.749,51.666C158.789,75.823 158.789,75.823 181.495,69.488C198.519,64.726 211.722,76.886 208.902,94.441C206.694,108.155 200.706,120.315 193.247,131.637C183.702,146.148 172.115,147.108 162.243,134.948C160.138,135.929 161.303,137.728 161.324,139.097C161.569,158.88 161.589,158.86 181.025,152.361C188.628,149.827 196.271,147.435 204.855,144.676C204.344,151.053 198.09,150.685 197.007,155.529C204.916,159.248 210.823,165.502 215.666,172.941C218.752,177.683 220.04,182.874 219.999,188.371C219.958,194.094 216.709,198.222 211.518,199.857C206.306,201.492 202.157,198.774 200.011,193.91C196.885,186.818 190.283,180.932 193.615,171.51C194.82,168.138 192.715,163.029 189.221,160.74C185.215,158.124 182.211,162.109 179.676,164.439C160.097,182.363 136.329,193.154 112.663,204.128C99.951,210.014 91.469,205.947 86.932,192.561C85.236,187.574 88.26,186.164 91.714,185.714C107.553,183.65 120.797,174.842 135.327,169.405C141.888,166.953 144.79,163.642 142.46,156.51C141.54,153.71 141.724,150.46 141.786,147.435C141.888,142.183 139.415,140.691 134.776,142.387C126.887,145.269 122.207,141.917 116.443,136.195C102.73,122.563 97.089,105.457 92.103,87.779C90.979,83.814 89.977,78.766 93.574,76.395C97.927,73.514 99.562,79.257 101.933,81.505C113.357,92.275 123.699,93.011 136.329,83.528C138.046,82.241 139.517,80.687 139.435,78.562C138.741,61.844 143.85,44.616 134.06,28ZM115.033,97.446C118.814,105.764 121.635,112.222 124.7,118.598C126.396,122.134 127.643,126.426 133.406,124.627C139.129,122.849 140.519,118.68 139.824,113.591C139.272,109.463 142.644,103.597 135.45,101.962C129.278,100.532 123.086,99.224 115.033,97.446ZM160.486,102.821C161.957,105.784 157.502,111.875 164.246,113.06C171.726,114.368 180.841,102.269 180.862,92.132C180.862,89.23 180.535,88.024 177.06,88.065C166.065,88.126 160.629,92.541 160.486,102.821Z" fill="#000" stroke="" stroke-width="" stroke-miterlimit=""/>
		<path d="M98.316,114.94C99.317,123.708 96.108,128.735 93.717,133.62C85.992,149.459 80.78,166.197 74.608,182.608C72.953,187.022 71.338,191.539 69.09,195.667C56.644,218.434 47.754,214.613 31.424,198.181C25.559,192.275 27.684,186 35.716,185.408C42.501,184.917 45.935,181.096 49.961,177.131C65.698,161.619 78.205,143.552 90.713,125.486C92.757,122.584 94.882,119.722 98.316,114.94Z" fill="#000" stroke="" stroke-width="" stroke-miterlimit=""/>
		<path d="M20,102.576C27.194,109.892 33.182,107.583 39.293,105.048C43.666,103.23 48.101,101.452 52.659,100.225C66.086,96.608 71.849,102.003 68.293,115.206C66.188,122.992 59.26,127.591 54.314,133.497C53.803,134.11 52.434,134.315 51.494,134.253C40.355,133.497 22.575,116.943 20,102.576Z" fill="#000" stroke="" stroke-width="" stroke-miterlimit=""/>
		<path d="M65.105,82.445C67.925,74.454 68.028,70.448 59.914,70.264C54.784,70.162 47.1,52.75 49.021,47.906C49.327,47.129 50.615,45.964 50.881,46.107C60.629,51.074 68.62,41.489 78.246,43.042C87.893,44.595 92.879,50.767 87.77,58.881C82.477,67.301 75.916,75.087 65.105,82.445Z" fill="#000" stroke="" stroke-width="" stroke-miterlimit=""/>
	</svg>
