<?xml version="1.0" encoding="utf-8"?>
	<svg version="1.1" xmlns="http://www.w3.org/2000/svg" xmlns:xlink="http://www.w3.org/1999/xlink" x="0px" y="0px" width="240.0" height="240.0" xml:space="preserve">
		<path d="M110.789,166.21C97.104,166.21 83.411,166.274 69.726,166.158C66.837,166.133 65.1,166.873 63.762,169.684C57.746,182.327 51.492,194.861 45.25,207.401C44.433,209.042 44.092,211.7 42.04,211.725C40.393,211.745 40.071,209.19 39.35,207.71C33.109,194.932 26.977,182.109 20.711,169.343C19.7,167.291 19.823,165.605 20.801,163.61C33.894,137.05 46.943,110.471 59.959,83.872C68.793,65.824 77.576,47.75 86.313,29.651C87.182,27.849 88.379,27.019 90.27,27.019C103.75,27.013 117.223,27.013 130.696,27C132.356,27 133.424,27.656 134.196,29.233C145.72,52.756 157.302,76.247 168.857,99.751C171.779,105.696 174.622,111.68 177.627,117.587C178.444,119.189 178.509,120.501 177.717,122.097C170.871,135.886 164.045,149.68 157.321,163.533C156.253,165.734 154.767,166.287 152.489,166.274C138.585,166.197 124.687,166.236 110.783,166.236C110.789,166.223 110.789,166.216 110.789,166.21ZM110.306,119.343C116.393,119.343 122.486,119.279 128.573,119.376C131.172,119.414 131.468,118.597 130.362,116.384C124.372,104.345 118.484,92.255 112.526,80.204C112.031,79.207 111.844,77.624 110.442,77.637C108.981,77.656 108.492,79.194 107.945,80.294C101.987,92.23 96.067,104.184 90.174,116.152C88.79,118.964 89.041,119.318 92.368,119.337C98.339,119.369 104.323,119.343 110.306,119.343Z" fill="#000" stroke="" stroke-width="" stroke-miterlimit=""/>
		<path d="M173.832,170.135C178.22,170.135 182.601,170.058 186.99,170.16C189.602,170.218 189.975,169.305 188.785,167.143C187.594,164.994 186.623,162.723 185.458,160.561C184.197,158.219 184.828,157.234 187.479,157.254C194.003,157.299 200.527,157.279 207.051,157.254C210.526,157.241 210.654,157.009 209.117,153.869C207.843,151.276 206.549,148.696 205.263,146.11C204.529,144.623 205.012,143.851 206.646,143.845C210.494,143.832 214.348,143.813 218.195,143.864C220.023,143.89 220.389,144.861 219.611,146.418C217.558,150.523 216.214,155.24 213.318,158.618C207.064,165.92 204.594,175.108 199.781,183.08C199.35,183.794 199.266,184.972 198.385,185.107C197.316,185.274 197.316,183.994 196.866,183.344C196.448,182.746 196.313,181.768 195.496,181.691C194.408,181.588 194.228,182.701 193.874,183.415C189.435,192.313 185.04,201.238 180.607,210.136C180.054,211.243 179.777,212.967 178.361,212.973C177.12,212.98 176.882,211.307 176.38,210.29C170.357,198.123 164.361,185.95 158.37,173.764C156.807,170.592 157.064,170.173 160.687,170.141C165.062,170.103 169.45,170.135 173.832,170.135Z" fill="#000" stroke="" stroke-width="" stroke-miterlimit=""/>
	</svg>
