<?xml version="1.0" encoding="utf-8"?>
	<svg version="1.1" xmlns="http://www.w3.org/2000/svg" xmlns:xlink="http://www.w3.org/1999/xlink" x="0px" y="0px" width="240.0" height="240.0" xml:space="preserve">
		<path d="M74.967,170.896C67.183,170.896 59.398,170.883 51.608,170.902C49.248,170.908 46.926,171.127 47.038,167.562C47.163,163.411 47.644,162.699 51.583,162.693C65.703,162.668 79.818,162.681 93.939,162.674C95.287,162.674 96.648,162.699 97.984,162.549C101.224,162.187 102.872,160.527 102.891,157.243C102.965,144.577 102.903,131.917 102.959,119.251C102.972,116.835 101.929,115.899 99.582,115.93C94.6,115.992 89.619,115.999 84.637,115.93C82.196,115.892 81.372,117.016 81.397,119.357C81.472,126.105 81.453,132.853 81.404,139.602C81.36,145.813 78.495,148.847 72.302,148.972C65.248,149.109 58.181,148.947 51.127,149.047C48.387,149.084 47.275,148.173 47.332,145.251C47.494,136.743 47.294,128.228 47.425,119.719C47.469,116.841 46.37,115.836 43.58,115.917C39.016,116.048 34.447,115.967 29.877,115.942C25.433,115.917 25.021,115.555 25.008,111.903C24.996,108.158 25.414,107.777 29.74,107.758C33.791,107.74 37.837,107.802 41.888,107.727C45.915,107.652 47.319,106.235 47.344,102.221C47.4,94.018 47.519,85.816 47.344,77.619C47.219,71.907 49.61,67.693 54.417,65.04C61.596,61.089 68.918,57.387 76.272,53.76C79.749,52.043 81.397,53.304 81.41,57.462C81.447,72.719 81.422,87.982 81.435,103.239C81.435,107.677 81.497,107.733 85.992,107.746C89.831,107.752 93.676,107.808 97.516,107.708C101.461,107.608 102.909,106.116 102.934,102.127C102.984,94.137 102.947,86.14 102.959,78.15C102.959,76.907 102.934,75.653 103.059,74.417C103.871,66.201 106.58,63.711 114.833,63.692C127.393,63.661 139.953,63.698 152.513,63.661C158.256,63.642 158.924,62.911 158.937,57.162C158.943,53.111 158.999,49.065 158.924,45.014C158.824,39.558 161.028,35.244 165.597,32.423C172.932,27.891 180.779,24.295 188.52,20.524C191.067,19.282 192.79,20.362 193.115,23.221C193.396,25.687 193.327,28.19 193.333,30.681C193.352,40.232 193.321,49.783 193.352,59.334C193.364,63.236 193.795,63.661 197.622,63.698C202.191,63.736 206.755,63.679 211.324,63.729C215.17,63.773 215.407,64.054 215.394,67.812C215.382,71.682 215.182,71.92 211.424,71.938C206.649,71.963 201.873,72.038 197.097,71.913C194.488,71.845 193.283,72.706 193.308,75.459C193.383,85.01 193.377,94.562 193.302,104.113C193.283,106.753 194.301,107.864 196.991,107.802C201.973,107.69 206.961,107.889 211.936,107.746C215.045,107.658 215.438,109.319 215.451,111.853C215.463,114.413 214.995,116.042 211.936,115.974C207.061,115.861 202.179,116.061 197.303,115.924C194.307,115.842 193.289,117.091 193.308,119.994C193.396,131.099 193.364,142.211 193.327,153.317C193.314,156.113 193.177,158.916 192.996,161.713C192.59,167.918 189.475,170.871 183.189,170.89C170.005,170.94 156.82,170.915 143.636,170.921C137.481,170.921 137.481,170.921 137.481,176.957C137.481,182.975 137.437,188.999 137.487,195.017C137.537,201.36 134.653,206.017 129.191,208.951C122.698,212.434 116.1,215.724 109.477,218.951C104.919,221.167 103.04,219.988 103.009,214.95C102.941,202.078 102.978,189.205 102.972,176.333C102.965,170.921 102.965,170.921 97.416,170.915C89.912,170.896 82.44,170.896 74.967,170.896ZM137.45,139.252C137.45,145.894 137.462,152.536 137.443,159.178C137.437,160.995 137.656,162.574 140.009,162.568C144.16,162.549 148.318,162.712 152.457,162.45C156.439,162.2 158.855,159.466 158.874,155.414C158.943,143.378 158.868,131.337 158.937,119.301C158.949,116.916 158.044,115.899 155.647,115.93C150.771,115.999 145.89,116.03 141.014,115.917C138.299,115.855 137.362,117.004 137.412,119.644C137.524,126.174 137.45,132.716 137.45,139.252ZM158.912,89.205C158.912,84.636 158.887,80.072 158.924,75.503C158.937,73.699 158.456,72.419 156.358,72.444C152.413,72.488 148.461,72.325 144.535,72.619C140.633,72.912 137.599,75.659 137.543,78.949C137.4,87.663 137.493,96.384 137.475,105.105C137.468,106.947 138.398,107.721 140.178,107.715C144.741,107.69 149.317,107.808 153.874,107.64C157.407,107.515 158.855,105.854 158.899,102.277C158.943,97.926 158.905,93.569 158.912,89.205Z" fill="#000" stroke="" stroke-width="" stroke-miterlimit=""/>
	</svg>
