<?xml version="1.0" encoding="utf-8"?>
	<svg version="1.1" xmlns="http://www.w3.org/2000/svg" xmlns:xlink="http://www.w3.org/1999/xlink" x="0px" y="0px" width="240.0" height="240.0" xml:space="preserve">
		<path d="M155.764,37.864C155.764,37.864 171.234,24.858 199.312,33.758C218.755,40.328 220,55.665 220,55.665C220,55.665 199.577,58.393 186.571,71.002C187.816,71.823 206.014,112.377 176.426,143.449C146.705,174.679 129.726,179.871 126.017,181.937C126.839,182.759 128.772,198.917 121.09,206.599C121.09,206.996 115.899,217.565 109.727,217.141C103.687,216.744 97.118,188.798 97.118,188.798C97.118,188.798 86.15,185.837 74.863,183.053L73.584,182.739C63.993,180.39 54.46,178.255 51.504,178.255C51.504,177.832 55.61,164.561 81.092,166.468C83.099,166.468 73.716,159.438 73.418,159.215L73.41,159.21L73.285,159.219C70.597,159.407 25.729,162.349 20.539,149.065C15.399,135.507 48.371,116.056 63.244,119.909L63.674,120.028C63.524,119.861 69.576,115.261 73.612,114.207L73.814,114.157L73.793,114.159C73.753,114.163 73.682,114.165 73.582,114.166L73.346,114.167C69.105,114.15 38.379,112.727 25.889,97.305C25.889,97.305 50.55,47.586 85.622,29.361C120.693,11.137 155.764,37.864 155.764,37.864ZM92.639,34.552L92.612,34.559L93.225,34.701C113.977,39.697 108.058,56.883 108.058,56.883C108.058,56.883 105.171,74.286 85.33,71.823C65.464,69.36 68.616,47.162 68.616,47.162C48.643,63.347 30.419,96.484 30.419,96.484C32.485,99.769 54.789,107.451 62.206,107.848C105.224,107.027 128.905,63.32 129.593,63.32C138.759,78.26 136.454,93.862 127.13,101.808C117.117,110.311 88.906,110.868 88.906,110.868C93.012,121.543 122.044,117.172 122.044,117.172C121.09,131.688 88.483,136.615 87.397,136.615C121.223,151.555 149.169,121.145 149.592,120.722C147.526,135.502 126.441,144.826 126.044,144.826C128.507,156.614 105.78,176.322 97.144,174.812C76.457,165.912 62.206,175.236 62.206,175.236L81.384,180.427C81.384,180.427 101.383,182.494 102.071,190.573C102.893,198.652 109.753,208.373 110.574,208.373C130.573,193.857 120.296,180.851 120.296,180.851C120.296,180.851 158.095,165.912 179.34,125.251C200.584,84.591 172.32,60.062 173.962,59.771C175.507,59.372 183.843,67.967 183.798,69.325L183.79,69.375L184.16,68.975C199.861,52.097 213.828,52.508 213.828,52.089C209.722,41.546 190.677,36.752 190.677,36.752C161.777,31.56 158.069,44.433 157.248,44.831C124.95,21.192 94.098,34.141 92.639,34.552ZM97.287,169.22L97.277,169.223L98.098,171.686L98.147,171.67C98.592,171.524 101.941,170.385 102.336,169.223C102.723,168.01 97.553,169.16 97.287,169.22ZM78.205,114.152C68.219,114.02 55.186,128.112 59.292,135.794C71.522,162.105 94.445,165.984 95.809,166.194L95.873,166.203L95.873,166.203C114.23,164.561 117.779,148.402 118.203,147.581C96.032,147.979 83.291,137.436 82.602,136.218C101.123,131.051 106.08,126.692 106.754,126.027L106.807,125.974C106.812,125.97 106.815,125.966 106.819,125.962L106.838,125.941C106.839,125.94 106.839,125.94 106.839,125.94C106.839,125.94 102.697,123.4 97.279,120.678L96.581,120.33C90.591,117.364 83.244,114.301 78.205,114.152ZM21.254,147.157C22.075,154.707 41.783,160.163 68.907,157.727C68.724,157.543 67.31,155.633 65.841,153.629L65.474,153.127C63.931,151.02 62.435,148.959 62.343,148.832L62.338,148.826L51.795,148.402L59.477,141.542L59.47,141.529C59.467,141.525 59.464,141.52 59.461,141.514L59.432,141.464C58.949,140.612 54.83,132.793 59.477,121.675C59.345,118.258 21.254,130.575 21.254,147.157ZM60.431,144.297L58.789,146.071L60.431,146.071L60.431,144.297ZM82.893,125.225C95.37,118.523 96.456,121.808 96.456,121.808C87.953,123.874 66.179,143.475 66.179,143.475C68.245,137.992 80.695,127.026 80.695,127.026C79.753,126.14 76.952,124.905 74.059,123.781L73.415,123.534C69.766,122.144 66.179,120.986 66.179,120.986C69.066,119.741 82.893,125.225 82.893,125.225ZM96.005,101.702C96.03,101.678 86.221,106.019 84.501,106.781L84.339,106.852C84.277,106.88 84.244,106.894 84.244,106.894C84.244,106.894 89.992,110.603 99.714,106.894L96.005,101.702ZM107.952,93.888C107.007,94.833 105.58,95.849 104.087,96.788L103.588,97.098C101.535,98.356 99.447,99.439 98.387,99.972L98.161,100.086C97.851,100.24 97.674,100.325 97.674,100.325C97.674,100.325 108.349,106.365 110.68,104.855C113.144,103.186 108.773,94.286 107.952,93.888ZM116.852,87.028C115.569,88.242 113.539,89.829 111.888,91.072L111.499,91.364C110.169,92.357 109.17,93.067 109.17,93.067L118.892,100.325C120.958,97.994 118.495,87.028 116.852,87.028ZM121.382,80.591C120.958,82.498 118.653,85.385 117.832,85.942C120.031,87.028 123.713,91.001 123.713,91.001C126.017,87.716 123.024,81.147 121.382,80.591ZM88.774,35.798C78.788,35.798 70.682,43.48 70.682,52.777C70.682,62.075 78.761,69.757 88.774,69.757C98.787,69.757 106.866,62.075 106.866,52.777C106.866,43.48 98.76,35.798 88.774,35.798ZM90.019,40.619C87.688,41.864 86.046,44.328 86.046,47.188C86.046,51.294 89.463,54.711 93.568,54.711C96.853,54.711 99.74,52.513 100.694,49.652C100.959,50.605 101.118,51.718 101.118,52.672C100.959,59.506 95.476,64.989 88.774,64.989C86.311,64.989 83.979,64.3 82.072,62.923C84.403,62.923 86.311,61.016 86.311,58.684C86.311,56.353 84.403,54.446 82.072,54.446C79.874,54.446 78.099,56.089 77.834,58.155C77.013,56.512 76.589,54.738 76.589,52.804C76.589,46.102 82.072,40.619 88.774,40.619L90.019,40.619ZM194.385,41.281C173.83,32.778 164.373,47.586 164.373,47.586C158.721,46.172 161.678,43.543 165.938,41.082L166.286,40.883C166.52,40.75 166.757,40.619 166.996,40.487L167.356,40.291C167.597,40.161 167.839,40.032 168.082,39.904C186.015,34.023 194.783,41.281 194.385,41.281Z" fill="#000" stroke="#00000000" stroke-width="1.0" stroke-miterlimit=""/>
		<path d="M173.962,59.771C175.605,59.347 184.929,69.095 183.684,69.492C199.577,52.089 213.828,52.513 213.828,52.089C209.722,41.546 190.677,36.752 190.677,36.752C161.777,31.56 158.069,44.433 157.248,44.831C123.951,20.461 92.191,34.977 92.588,34.553C114.097,39.348 108.058,56.883 108.058,56.883C108.058,56.883 105.171,74.286 85.33,71.823C65.464,69.36 68.616,47.162 68.616,47.162C48.643,63.347 30.419,96.484 30.419,96.484C32.485,99.769 54.789,107.451 62.206,107.848C105.224,107.027 128.905,63.32 129.593,63.32C138.759,78.26 136.454,93.862 127.13,101.808C117.117,110.311 88.906,110.868 88.906,110.868C93.012,121.543 122.044,117.172 122.044,117.172C121.09,131.688 88.483,136.615 87.397,136.615C121.223,151.555 149.169,121.145 149.592,120.722C147.526,135.502 126.441,144.826 126.044,144.826C128.507,156.614 105.78,176.322 97.144,174.812C76.457,165.912 62.206,175.236 62.206,175.236L81.384,180.427C81.384,180.427 101.383,182.494 102.071,190.573C102.893,198.652 109.753,208.373 110.574,208.373C130.573,193.857 120.296,180.851 120.296,180.851C120.296,180.851 158.095,165.912 179.34,125.251C200.584,84.591 172.32,60.062 173.962,59.771L173.962,59.771ZM164.373,47.586C157.804,45.943 162.863,42.659 168.082,39.904C186.015,34.023 194.783,41.281 194.385,41.281C173.83,32.778 164.373,47.586 164.373,47.586L164.373,47.586Z" fill="#000" stroke="#00000000" stroke-width="1.0" stroke-miterlimit=""/>
		<path d="M82.602,136.218C102.734,130.602 106.839,125.94 106.839,125.94C106.839,125.94 88.085,114.444 78.205,114.152C68.219,114.02 55.186,128.112 59.292,135.794C71.901,162.918 95.873,166.203 95.873,166.203C114.23,164.561 117.779,148.402 118.203,147.581C96.032,147.979 83.291,137.436 82.602,136.218L82.602,136.218ZM66.179,143.475C68.245,137.992 80.695,127.026 80.695,127.026C78.496,124.96 66.179,120.986 66.179,120.986C69.066,119.741 82.893,125.225 82.893,125.225C95.37,118.523 96.456,121.808 96.456,121.808C87.953,123.874 66.179,143.475 66.179,143.475L66.179,143.475Z" fill="#000" stroke="#00000000" stroke-width="1.0" stroke-miterlimit=""/>
	</svg>
