<?xml version="1.0" encoding="utf-8"?>
	<svg version="1.1" xmlns="http://www.w3.org/2000/svg" xmlns:xlink="http://www.w3.org/1999/xlink" x="0px" y="0px" width="240.0" height="240.0" xml:space="preserve">
		<path d="M119.999,20C175.226,20 219.997,64.771 219.997,119.999C219.997,175.226 175.226,219.997 119.999,219.997C64.771,219.997 20,175.226 20,119.999C20,64.771 64.771,20 119.999,20ZM81.896,72.533C67.076,76.778 57.137,90.678 57.914,106.075C58.69,121.471 69.977,134.301 85.149,137.033C84.185,140.533 83.697,144.147 83.699,147.777C82.953,161.227 89.704,173.987 101.243,180.936C112.783,187.886 127.219,187.886 138.758,180.936C150.297,173.987 157.049,161.227 156.303,147.777C156.303,144.146 155.813,140.532 154.848,137.033C170.639,134.19 182.13,120.447 182.13,104.402C182.128,89.302 171.918,76.109 157.297,72.317C142.677,68.525 127.342,75.093 119.999,88.292C112.506,74.819 96.716,68.288 81.896,72.533Z" fill="#ff040000" stroke="#00000000" stroke-width="1.0" stroke-miterlimit=""/>
	</svg>
