<?xml version="1.0" encoding="utf-8"?>
	<svg version="1.1" xmlns="http://www.w3.org/2000/svg" xmlns:xlink="http://www.w3.org/1999/xlink" x="0px" y="0px" width="240.0" height="240.0" xml:space="preserve">
		<path d="M175.907,113.261C175.867,110.62 176.86,109.506 179.525,109.632C182.226,109.761 184.937,109.646 187.644,109.66C191.724,109.68 191.908,109.842 192.61,113.986C195.447,130.728 198.274,147.472 201.117,164.213C202.444,172.032 203.813,179.843 205.14,187.661C205.707,191.003 205.393,191.367 201.919,191.393C198,191.422 194.075,191.293 190.161,191.436C187.602,191.53 186.497,190.531 186.127,187.995C184.497,176.824 182.73,165.674 181,154.518C180.822,153.37 180.561,152.234 180.262,150.697C166.271,196.868 136.261,219.473 88.003,214.632C55.901,211.412 27.97,185.87 20,154.097C21.09,154.182 21.043,155.205 21.371,155.815C36.538,184.067 59.936,200.408 91.901,203.597C108.438,205.247 124.443,202.211 139.584,195.108C141.581,194.171 142.68,193.048 142.347,190.62C140.639,178.142 139.043,165.648 137.405,153.16C137.323,152.541 137.37,151.856 136.497,151.221C128.073,176.697 111.003,191.004 83.817,192.157C85.882,191.402 87.988,190.746 90.003,189.875C101.991,184.696 110.465,175.725 116.801,164.589C125.792,148.783 129.917,131.567 131.13,113.561C131.364,110.083 131.62,109.708 135.058,109.667C137.951,109.633 140.845,109.641 143.737,109.663C147.471,109.691 147.878,110.03 148.41,113.682C150.103,125.314 151.79,136.948 153.451,148.585C154.651,156.99 155.8,165.402 156.986,173.809C157.101,174.624 157.005,175.756 157.844,176.047C158.69,176.339 159.105,175.721 159.47,175.099L159.597,174.881C159.682,174.737 159.766,174.599 159.854,174.479C169.405,161.506 174.7,147.019 175.561,130.886C175.875,125.009 175.996,119.137 175.907,113.261ZM159.966,73.971C166.757,80.646 171.724,88.662 175.612,97.34C175.791,97.738 175.887,98.173 176.236,99.256C173.478,96.173 171.304,93.532 168.914,91.103C136.42,58.074 82.837,58.137 50.604,91.398C38.187,104.211 31.762,119.852 30.232,137.593C29.748,143.196 30.136,148.738 30.889,154.691C29.485,153.896 29.281,152.771 28.906,151.841C21.33,133.085 22.097,114.347 29.976,96.015C40.465,71.608 59.898,57.715 85.3,52.456C113.693,46.578 138.995,53.36 159.966,73.971ZM170.548,24.014C181.835,25.235 192.307,29.946 201.289,37.893C211.931,47.31 217.943,59.22 219.853,73.253C219.979,74.181 220.134,75.109 219.792,76.016C219.25,77.453 218.243,78.365 216.665,78.387C215.055,78.408 214.039,77.51 213.648,75.985C213.371,74.904 213.199,73.794 213.029,72.689C209.697,51.072 193.028,34.227 171.451,30.686C170.715,30.565 169.979,30.438 169.239,30.351C167.013,30.091 165.059,29.457 165.404,26.655C165.733,23.995 167.806,23.949 170.548,24.014ZM168.991,48.141C174.882,49.096 179.959,51.454 184.388,55.266C190.038,60.129 193.581,66.203 195.09,73.482C195.544,75.671 195.048,77.51 192.644,78.043C190.317,78.56 189.259,77.042 188.743,75.015C185.992,64.207 179.443,57.194 168.41,54.651C166.315,54.168 165.065,52.943 165.389,50.678C165.693,48.55 167.298,48.148 168.991,48.141Z" fill="#000" stroke="#00000000" stroke-width="1.0" stroke-miterlimit=""/>
	</svg>
