<?xml version="1.0" encoding="utf-8"?>
	<svg version="1.1" xmlns="http://www.w3.org/2000/svg" xmlns:xlink="http://www.w3.org/1999/xlink" x="0px" y="0px" width="240.0" height="240.0" xml:space="preserve">
		<path d="M170.27,30C174.105,30 177.841,31.224 180.931,33.496C184.022,35.767 186.306,38.966 187.451,42.627L204.362,96.753C205.448,100.229 206,103.849 206,107.49V192C206,194.364 205.534,196.704 204.63,198.888C203.725,201.072 202.399,203.056 200.728,204.728C199.056,206.399 197.072,207.725 194.888,208.63C192.704,209.534 190.364,210 188,210H53C50.636,210 48.296,209.534 46.112,208.63C43.928,207.725 41.944,206.399 40.272,204.728C38.601,203.056 37.275,201.072 36.37,198.888C35.466,196.704 35,194.364 35,192V107.49C35,103.849 35.552,100.229 36.638,96.753L53.558,42.627C54.702,38.968 56.985,35.77 60.074,33.499C63.163,31.227 66.896,30.002 70.73,30H170.27V30ZM147.5,129H93.5C91.113,129 88.825,129.949 87.137,131.637C85.449,133.324 84.501,135.613 84.501,138C84.501,140.387 85.449,142.676 87.137,144.363C88.825,146.051 91.113,147 93.5,147H147.5C149.887,147 152.176,146.051 153.863,144.363C155.551,142.676 156.499,140.387 156.499,138C156.499,135.613 155.551,133.324 153.863,131.637C152.176,129.949 149.887,129 147.5,129V129ZM164.501,52.5H76.499C75.084,52.499 73.701,52.916 72.521,53.697C71.341,54.478 70.418,55.589 69.866,56.892L69.551,57.81L57.5,102H183.5L171.44,57.81C171.026,56.287 170.122,54.942 168.868,53.982C167.614,53.023 166.08,52.502 164.501,52.5V52.5Z" fill="#000" stroke="" stroke-width="" stroke-miterlimit=""/>
	</svg>
