<?xml version="1.0" encoding="utf-8"?>
	<svg version="1.1" xmlns="http://www.w3.org/2000/svg" xmlns:xlink="http://www.w3.org/1999/xlink" x="0px" y="0px" width="240.0" height="240.0" xml:space="preserve">
		<path d="M145,30L144.997,30.413C144.776,44.03 133.669,55 120,55C106.193,55 95,43.807 95,30L95,30L145,30ZM112.643,112.438L112.643,112.44L98.512,112.44C98.314,112.442 98.125,112.523 97.987,112.665C97.849,112.807 97.772,112.998 97.774,113.196L97.774,152.587C97.774,153.005 98.103,153.34 98.512,153.34L112.643,153.34C112.838,153.34 113.025,153.262 113.162,153.122C113.302,152.979 113.379,152.787 113.378,152.587L113.378,113.194C113.379,112.994 113.301,112.802 113.162,112.658C113.026,112.518 112.838,112.438 112.643,112.438ZM169.145,86.344L169.145,86.347L155.019,86.347C154.609,86.347 154.277,86.684 154.277,87.103L154.277,152.587C154.277,153.005 154.609,153.34 155.019,153.34L169.145,153.34C169.554,153.34 169.885,153.003 169.885,152.587L169.885,87.101C169.885,86.901 169.808,86.708 169.669,86.565C169.531,86.424 169.342,86.344 169.145,86.344ZM123.098,86.342L70.185,86.342C69.987,86.344 69.799,86.424 69.66,86.565C69.522,86.706 69.445,86.896 69.447,87.094L69.447,152.591C69.446,152.788 69.523,152.978 69.661,153.118C69.8,153.258 69.988,153.337 70.185,153.338L84.32,153.338C84.727,153.338 85.058,153.001 85.058,152.585L85.058,101.179C85.058,100.762 85.388,100.423 85.796,100.423L116.188,100.423C121.897,100.423 126.525,105.17 126.525,111.022L126.525,152.585C126.525,153.001 126.856,153.338 127.261,153.338L141.188,153.338C141.385,153.336 141.573,153.255 141.711,153.114C141.848,152.973 141.924,152.784 141.922,152.587L141.922,105.654C141.922,94.989 133.495,86.342 123.098,86.342ZM156,30C185.824,30 210,54.176 210,84L210,156C210,185.824 185.824,210 156,210L84,210C54.176,210 30,185.824 30,156L30,84C30,54.176 54.176,30 84,30L85,30L85.005,30.579C85.314,49.642 100.863,65 120,65C139.33,65 155,49.33 155,30L155,30L156,30Z" fill="#000" stroke="#00000000" stroke-width="1.0" stroke-miterlimit=""/>
	</svg>
