<?xml version="1.0" encoding="utf-8"?>
	<svg version="1.1" xmlns="http://www.w3.org/2000/svg" xmlns:xlink="http://www.w3.org/1999/xlink" x="0px" y="0px" width="240.0" height="240.0" xml:space="preserve">
		<path d="M205.185,33C212.647,33 218.758,38.536 219.787,45.713L219.787,45.713L219.935,45.713L219.935,47.182C219.944,47.397 219.999,47.598 219.999,47.816L219.999,47.816L219.999,85.38C219.999,85.598 219.944,85.799 219.935,86.014L219.935,86.014L219.935,99.022L20,99.022L20,45.713L20.212,45.713C21.241,38.536 27.354,33.001 34.815,33L34.815,33ZM97.08,53.987L88.767,53.987L88.767,79.725L94.199,79.725L94.199,61.205L98.174,79.725L103.643,79.725L107.616,61.205L107.616,79.725L113.158,79.725L113.158,53.987L104.736,53.987L100.909,72.871L97.08,53.987ZM128.66,53.987L120.348,53.987L115.134,79.725L121.223,79.725L122.135,73.854L126.911,73.854L127.785,79.725L133.871,79.725L128.66,53.987ZM138.729,53.988L132.604,53.988L138.729,70.684L138.729,79.725L144.817,79.725L144.817,70.685L151.233,53.988L144.998,53.988L141.862,65.362L138.729,53.988ZM124.577,58.069L126.292,69.517L122.829,69.517L124.577,58.069Z" fill="#000" stroke="#00000000" stroke-width="1.0" stroke-miterlimit=""/>
		<path d="M220,96.641L220,193.452L219.788,193.453C218.76,200.63 212.646,206.163 205.185,206.163L205.185,206.163L34.815,206.163C27.353,206.163 21.241,200.627 20.212,193.45L20.212,193.45L20.064,193.45L20.064,191.982C20.055,191.768 20,191.566 20,191.349L20,191.349L20,110.281C20,110.065 20.055,109.863 20.064,109.648L20.064,109.648L20.064,96.641L220,96.641ZM137.123,124.103C130.84,124.103 127.595,125.897 125.73,128.177C123.52,130.731 123.313,133.77 123.245,134.873C123.175,135.77 123.175,136.737 123.175,137.635L123.175,137.635L123.175,160.296C123.178,162.607 123.23,164.863 124.003,167.118C124.626,168.775 125.454,170.087 126.835,171.26C128.629,172.779 131.945,174.506 137.398,174.506L137.398,174.506L137.891,174.505C139.878,174.493 144.514,174.287 148.169,171.26C148.515,170.985 149.55,170.157 150.241,169.051C151.632,166.937 151.752,164.559 151.761,162.146L151.762,153.101C151.762,150.685 151.553,149.857 151.07,148.613C150.104,146.265 147.134,143.297 141.196,143.297C136.847,143.297 135.121,145.092 133.74,146.473L133.74,146.473L133.74,137.177C133.748,135.827 133.935,132.801 137.814,132.801C141.21,132.801 141.398,135.495 141.404,136.706L141.404,136.872C141.404,136.924 141.404,136.971 141.404,137.014L141.404,139.569L151.485,139.569L151.485,136.186C151.485,133.147 151.278,131.973 150.655,130.524C148.515,125.277 142.095,124.103 137.123,124.103ZM103.084,124.036C97.077,124.036 93.693,125.761 91.76,127.626C88.86,130.388 88.653,133.634 88.653,137.292L88.653,137.292L88.653,143.575L98.872,143.575L98.872,136.739C98.872,135.703 98.941,135.152 99.079,134.737C99.425,133.701 100.321,132.252 102.807,132.252C106.37,132.186 106.528,135.398 106.535,136.527L106.536,140.261C106.536,143.575 105.708,144.61 101.634,148.339C101.119,148.816 100.599,149.288 100.079,149.759L98.517,151.169C96.698,152.816 94.904,154.477 93.279,156.278C89.618,160.284 88.239,164.358 88.239,169.742L88.239,169.742L88.239,173.678L117.238,173.678L117.238,164.425L100.598,164.425C101.563,161.181 102.325,160.212 106.536,156.277C107.846,155.035 109.228,153.792 110.539,152.548C112.888,150.478 113.785,149.581 114.821,148.337L114.821,148.337C117.187,145.303 117.367,142.377 117.376,138.901L117.376,137.43C117.376,134.047 117.169,132.391 116.548,130.872C115.788,129.007 114.338,127.764 113.855,127.351C111.921,125.763 108.746,124.036 103.084,124.036ZM137.538,149.995C141.004,149.995 141.328,152.799 141.341,154.322L141.341,154.535C141.34,154.738 141.334,154.91 141.334,155.036C141.404,156.485 141.404,157.936 141.405,159.315C141.405,162.423 141.334,164.149 140.093,165.185C139.54,165.599 138.918,165.945 137.606,165.945C133.395,165.945 133.67,162.493 133.67,161.249L133.67,155.103C133.667,153.568 133.663,151.878 134.984,150.755C135.741,150.134 136.503,149.995 137.538,149.995Z" fill="#000" stroke="#00000000" stroke-width="1.0" stroke-miterlimit=""/>
	</svg>
