<?xml version="1.0" encoding="utf-8"?>
	<svg version="1.1" xmlns="http://www.w3.org/2000/svg" xmlns:xlink="http://www.w3.org/1999/xlink" x="0px" y="0px" width="240.0" height="240.0" xml:space="preserve">
		<path d="M184.726,96.551C179.281,81.499 163.904,72.443 148.099,74.98C138.589,64.168 124.88,57.98 110.481,58C91.205,57.973 73.629,69.025 65.302,86.409L65.244,86.409C40.56,86.409 20.484,106.065 20.008,130.502C19.532,155.702 40.769,176.339 66.14,176.339L142.671,176.339C143.394,176.339 143.756,175.453 143.223,174.968C138.277,170.43 134.299,164.939 131.528,158.825C131.149,157.963 130.299,157.404 129.357,157.397L65.864,157.397C51.369,157.406 38.96,145.616 39.055,131.217C39.166,118.679 48.188,107.997 60.53,105.789C67.138,104.569 73.962,105.94 79.587,109.617C79.162,102.946 80.942,96.321 84.653,90.761C90.377,82.133 100.081,76.942 110.481,76.952C123.777,76.926 135.602,85.4 139.852,97.999C142.893,93.817 147.704,91.283 152.873,91.142C158.042,91 162.985,93.266 166.251,97.275C170.459,102.365 171.199,109.485 168.127,115.332C173.652,112.331 180.139,111.637 186.174,113.398C197.423,116.613 204.636,127.565 203.145,139.169C201.674,150.037 192.966,158.493 182.06,159.644C175.347,160.364 168.643,158.212 163.603,153.721C158.581,149.238 155.712,142.825 155.718,136.093L167.622,136.093C167.929,136.382 168.391,136.433 168.753,136.216C169.116,135.999 169.29,135.568 169.179,135.161C169.069,134.753 168.701,134.469 168.279,134.464L158.432,125.141L146.651,113.989C145.727,113.116 144.281,113.116 143.356,113.989L140.071,117.093L121.719,134.474C121.435,134.741 121.345,135.156 121.493,135.517C121.641,135.878 121.996,136.11 122.386,136.102L134.357,136.102C134.313,136.892 134.29,137.683 134.29,138.474C134.29,162.93 155.023,182.567 179.974,180.987C201.24,179.625 218.516,162.473 219.906,141.34C221.363,119.122 205.678,100.265 184.726,96.551" fill="#000" stroke="#00000000" stroke-width="1.0" stroke-miterlimit=""/>
	</svg>
