<?xml version="1.0" encoding="utf-8"?>
	<svg version="1.1" xmlns="http://www.w3.org/2000/svg" xmlns:xlink="http://www.w3.org/1999/xlink" x="0px" y="0px" width="240.0" height="240.0" xml:space="preserve">
		<path d="M40.75,89.89C41.8,89.07 41.68,88.99 49.32,96.09C68.023,113.687 89.402,128.201 112.659,139.089C118.649,141.889 117.749,141.879 122.299,139.339C126.069,137.209 129.799,134.839 132.879,132.739C133.709,132.059 134.639,131.499 135.629,131.069C135.899,131.319 135.409,131.869 134.929,131.869C134.709,131.869 134.439,132.069 134.329,132.319C134.212,132.577 133.962,132.75 133.679,132.769C133.459,132.769 133.179,132.989 133.039,133.219C132.92,133.48 132.666,133.654 132.379,133.669C132.109,133.669 131.889,133.789 131.889,133.969C131.889,134.139 131.759,134.269 131.609,134.269C131.409,134.269 130.909,134.609 130.419,135.019L129.919,135.409C129.691,135.593 129.425,135.723 129.139,135.789C128.889,135.789 128.689,135.909 128.689,136.089C128.689,136.239 128.469,136.389 128.209,136.389C127.959,136.389 127.739,136.509 127.739,136.629C127.739,136.789 127.189,137.129 126.549,137.459C125.892,137.77 125.268,138.149 124.689,138.589C124.293,138.906 123.837,139.141 123.349,139.279C122.929,139.389 122.619,139.579 122.619,139.689C122.619,139.859 122.119,140.129 121.499,140.329C120.879,140.549 120.379,140.829 120.379,140.949C120.379,141.059 120.079,141.279 119.719,141.359C117.299,142.079 147.069,152.709 161.079,156.089C181.929,161.159 202.718,153.589 212.888,137.209C214.528,134.569 214.388,134.719 214.658,134.969C215.158,135.469 207.738,146.569 203.098,152.149C168.359,194.119 107.219,207.128 57.03,183.209C46.93,178.429 42.67,175.589 41.13,172.609C40.52,171.399 40.1,150.969 40,130.699L40,114.899C40.05,101.119 40.28,90.23 40.75,89.88L40.75,89.89Z" fill="#000" stroke="#00000000" stroke-width="1.0" stroke-miterlimit=""/>
		<path d="M127.409,45.02C145.489,45.03 161.349,45.2 162.509,45.53C169.509,47.49 182.469,67.2 188.189,84.57L189.069,87.2L189.959,89.89C190.209,90.62 190.309,91.22 190.169,91.27C190.339,91.07 190.939,90.84 192.509,90.27C194.379,89.64 194.909,89.55 194.909,89.97C194.909,90.35 190.469,91.74 190.209,91.42C190.169,91.37 190.139,91.32 190.159,91.27C189.409,91.57 188.649,91.84 187.869,92.06C177.679,95.19 170.719,99.859 155.629,113.789C142.899,125.519 144.019,124.589 143.469,123.459C142.699,121.799 135.669,110.919 132.529,106.559C117.163,85.187 98.458,66.427 77.13,51C71.88,47.25 71.49,46.77 72.63,45.62C72.96,45.27 93.379,45.05 114.659,45L127.409,45.02Z" fill="#000" stroke="#00000000" stroke-width="1.0" stroke-miterlimit=""/>
		<path d="M166.949,103.029C165.249,104.379 158.449,110.529 151.779,116.639C136.979,130.319 131.859,134.269 121.419,139.939C118.159,141.709 118.159,141.709 119.669,142.329C135.629,148.989 148.689,153.469 160.749,156.389C178.249,160.649 194.529,156.759 206.448,145.469C211.548,140.629 212.948,138.489 221.698,122.079C230.488,105.529 232.098,103.029 237.878,96.83C239.098,95.53 240.048,94.41 239.998,94.36C236.756,93.01 233.452,91.812 230.098,90.77C220.704,88.296 210.936,87.567 201.278,88.62C188.743,90.231 176.879,95.211 166.949,103.029Z" fill="#000" stroke="#00000000" stroke-width="1.0" stroke-miterlimit=""/>
	</svg>
