<?xml version="1.0" encoding="utf-8"?>
	<svg version="1.1" xmlns="http://www.w3.org/2000/svg" xmlns:xlink="http://www.w3.org/1999/xlink" x="0px" y="0px" width="240.0" height="240.0" xml:space="preserve">
		<path d="M178.706,201.262C181.273,201.262 183.354,201.262 185.442,201.262C193.73,201.268 202.019,201.201 210.308,201.31C214.883,201.371 218.317,204.059 219.373,208.015C220.447,212.032 218.857,216.177 215.411,218.306C213.062,219.757 210.429,219.829 207.789,219.829C188.785,219.835 169.781,219.884 150.782,219.811C138.349,219.763 125.892,220.473 113.496,219.417C74.922,216.134 46.428,197.105 29.79,162.331C1.004,102.156 38.606,31.921 104.57,21.248C159.453,12.365 212.534,51.951 218.833,106.895C223.147,144.534 210.047,175.292 180.618,199.12C180.223,199.435 179.829,199.751 179.453,200.091C179.313,200.218 179.234,200.418 178.706,201.262ZM201.279,119.935C201.285,74.899 164.914,38.535 119.903,38.577C74.983,38.62 38.697,74.857 38.631,119.741C38.57,164.812 74.801,201.171 119.861,201.25C164.86,201.335 201.273,164.964 201.279,119.935Z" fill="#000" stroke="" stroke-width="" stroke-miterlimit=""/>
		<path d="M164.429,101.561C174.732,101.531 182.942,109.747 182.881,120.014C182.82,130.183 174.714,138.254 164.538,138.272C154.229,138.29 146.055,130.117 146.098,119.82C146.134,109.674 154.259,101.586 164.429,101.561Z" fill="#000" stroke="" stroke-width="" stroke-miterlimit=""/>
		<path d="M119.861,55.513C130.097,55.47 138.216,63.431 138.313,73.607C138.416,83.874 130.261,92.205 120.055,92.254C109.837,92.308 101.578,84.044 101.597,73.801C101.621,63.601 109.661,55.555 119.861,55.513Z" fill="#000" stroke="" stroke-width="" stroke-miterlimit=""/>
		<path d="M74,138.272C63.782,138.326 55.663,130.353 55.566,120.172C55.469,109.771 63.479,101.592 73.794,101.561C84.042,101.531 92.331,109.771 92.301,119.965C92.276,130.05 84.109,138.217 74,138.272Z" fill="#000" stroke="" stroke-width="" stroke-miterlimit=""/>
		<path d="M138.313,165.941C138.337,176.141 130.334,184.242 120.14,184.321C109.77,184.399 101.609,176.347 101.597,166.014C101.584,155.771 109.855,147.519 120.073,147.58C130.17,147.641 138.289,155.814 138.313,165.941Z" fill="#000" stroke="" stroke-width="" stroke-miterlimit=""/>
		<path d="M127.518,121.506C127.482,125.802 124.035,129.146 119.758,129.031C115.607,128.921 112.385,125.578 112.403,121.403C112.422,117.144 115.911,113.758 120.164,113.873C124.296,113.988 127.549,117.362 127.518,121.506Z" fill="#000" stroke="" stroke-width="" stroke-miterlimit=""/>
	</svg>
