<?xml version="1.0" encoding="utf-8"?>
	<svg version="1.1" xmlns="http://www.w3.org/2000/svg" xmlns:xlink="http://www.w3.org/1999/xlink" x="0px" y="0px" width="240.0" height="240.0" xml:space="preserve">
		<path d="M3.703,161.95C34.921,146.653 68.146,139.833 102.579,138.04C109.01,137.709 113.96,136.773 114.057,128.608C114.135,121.087 110.218,118.807 103.515,117.715C85.139,114.753 68.107,108.011 53.024,96.981C41.235,88.368 32.232,77.573 29.816,62.665C27.964,51.207 31.764,47.66 43.067,49.804C57.078,52.454 70.504,56.839 83.034,63.796C96.558,71.317 107.938,80.924 114.583,95.345C114.724,95.651 114.871,95.996 115.024,96.359C116.25,99.25 117.934,103.224 121.033,96.904C136.213,65.92 164.723,55.923 195.395,49.492C204.164,47.66 207.321,50.895 206.775,59.976C206.074,71.882 200.15,81.451 191.926,89.518C175.713,105.419 155.525,113.526 133.602,117.579C126.762,118.846 122.163,120.599 122.28,128.803C122.397,137.455 127.971,138.566 134.46,139.073C170.997,141.957 206.522,148.992 240,164.562L239.999,172.278C205.391,160.119 169.905,153.415 133.056,154.643C85.878,156.221 41.858,169.199 0,190.518L3.703,161.95Z" fill="#000" stroke="" stroke-width="" stroke-miterlimit=""/>
	</svg>
