<?xml version="1.0" encoding="utf-8"?>
	<svg version="1.1" xmlns="http://www.w3.org/2000/svg" xmlns:xlink="http://www.w3.org/1999/xlink" x="0px" y="0px" width="240.0" height="240.0" xml:space="preserve">
		<path d="M25.77,143.616L18.939,148.273L18.939,143.616L25.77,138.959L30.427,138.959L30.427,165.039L25.77,165.039L25.77,143.616ZM46.882,138.027C52.16,138.027 55.886,141.132 55.886,145.479C55.886,148.273 54.334,150.757 49.987,155.104L44.398,160.692L44.398,161.003L56.197,161.003L56.197,165.039L37.878,165.039L37.878,161.934L46.572,152.93C50.298,149.204 50.918,147.962 50.918,146.1C50.918,143.926 49.056,142.063 46.572,142.063C43.777,142.063 41.915,143.926 41.915,146.41L37.568,146.41C37.568,141.442 41.604,138.027 46.882,138.027L46.882,138.027ZM67.684,143.616L60.854,148.273L60.854,143.616L67.684,138.959L72.342,138.959L72.342,165.039L67.684,165.039L67.684,143.616ZM88.797,138.027C94.075,138.027 97.801,141.132 97.801,145.479C97.801,148.273 96.248,150.757 91.902,155.104L86.313,160.692L86.313,161.003L98.111,161.003L98.111,165.039L79.793,165.039L79.793,161.934L88.486,152.93C92.212,149.204 92.833,147.962 92.833,146.1C92.833,143.926 90.97,142.063 88.486,142.063C85.692,142.063 83.829,143.926 83.829,146.41L79.483,146.41C79.483,141.442 83.519,138.027 88.797,138.027L88.797,138.027ZM109.288,149.825L112.393,149.825C115.188,149.825 117.05,148.273 117.05,145.789C117.05,143.305 115.188,142.063 112.393,142.063C109.599,142.063 107.736,143.616 107.736,146.1L103.389,146.1C103.7,141.132 107.115,138.338 112.704,138.338C117.671,138.338 121.708,141.442 121.708,145.479C121.708,148.583 119.845,150.757 117.05,151.378L117.05,151.688C120.776,151.999 122.95,154.483 122.95,157.898C122.95,162.555 118.603,165.66 113.014,165.66C107.426,165.66 103.389,162.555 103.389,157.587L107.736,157.587C108.047,160.071 109.909,161.624 113.014,161.624C116.119,161.624 117.982,159.761 117.982,157.277C117.982,154.793 116.119,153.241 112.704,153.241L109.288,153.241L109.288,149.825L109.288,149.825ZM126.675,162.555C126.675,161.003 127.917,159.761 129.47,159.761C131.332,159.761 132.264,161.003 132.264,162.555C132.264,164.107 131.022,165.349 129.47,165.349C127.917,165.349 126.675,164.107 126.675,162.555ZM150.893,151.688C150.582,149.825 149.03,148.273 146.546,148.273C143.441,148.273 141.578,150.757 141.578,154.793C141.578,158.829 143.441,161.313 146.546,161.313C149.03,161.313 150.582,160.071 150.893,158.208L155.239,158.208C154.618,162.245 151.514,165.039 146.546,165.039C140.647,165.039 136.921,161.313 136.921,154.483C136.921,147.962 140.336,144.237 146.546,144.237C151.514,144.237 154.618,147.031 155.239,151.378L150.893,151.378L150.893,151.688ZM158.344,155.104C158.344,148.583 162.07,144.858 167.969,144.858C173.868,144.858 177.594,148.894 177.594,155.104C177.594,161.624 173.868,165.349 167.969,165.349C162.07,165.349 158.344,161.624 158.344,155.104L158.344,155.104ZM172.937,155.104C172.937,151.067 171.074,148.583 167.969,148.583C164.864,148.583 163.001,151.067 163.001,155.104C163.001,159.14 164.864,161.624 167.969,161.624C171.074,161.624 172.937,159.14 172.937,155.104ZM181.94,145.168L186.287,145.168L186.287,148.273L186.598,148.273C187.529,146.1 189.392,144.547 192.186,144.547C194.981,144.547 196.843,145.789 197.775,148.273L198.085,148.273C199.017,146.1 201.501,144.547 203.984,144.547C208.021,144.547 210.505,147.031 210.505,151.067L210.505,165.039L206.158,165.039L206.158,152.62C206.158,150.136 204.916,148.894 202.432,148.894C199.948,148.894 198.396,150.757 198.396,152.93L198.396,165.349L194.049,165.349L194.049,152.62C194.049,150.446 192.807,149.204 190.323,149.204C188.15,149.204 186.287,151.067 186.287,153.551L186.287,165.039L181.63,165.039L181.63,145.168L181.94,145.168ZM0.621,86.488L0.621,80.589L21.423,80.589L19.871,75L32.29,75L34.153,80.589L53.713,80.589L53.713,86.488L0.621,86.488ZM38.189,127.471L27.322,118.777L16.766,127.471L0,127.471L18.939,111.947L7.141,102.633L0,102.633L9.935,88.04L22.975,88.04L14.903,99.838L20.492,99.838L27.012,105.116L33.532,99.838L39.12,99.838L31.048,88.04L44.088,88.04L54.334,102.633L47.193,102.633L35.705,111.947L55.265,127.471L38.189,127.471L38.189,127.471ZM112.083,83.072L113.635,88.04L103.7,88.04L102.147,83.072L100.595,83.072L99.043,88.04L95.317,88.04L96.248,90.213L115.498,90.213L115.498,100.459L111.772,100.459L111.772,111.016L77.62,111.016L77.62,113.189L113.635,113.189L113.635,127.16L66.753,127.16L66.753,100.149L63.959,100.149L63.959,90.213L83.829,90.213L82.898,88.04L78.241,88.04L76.688,83.072L75.757,83.072L74.204,88.04L63.027,88.04L67.684,75L78.551,75L77.62,77.794L89.728,77.794L89.728,83.383L86.313,83.383L87.555,86.798L89.107,86.798L93.144,75L103.389,75L102.458,77.484L115.188,77.484L115.188,83.072L112.083,83.072ZM104.321,95.802L74.825,95.802L74.825,97.975L104.321,97.975L104.321,95.802ZM100.906,103.254L77.62,103.254L77.62,106.048L100.906,106.048L100.906,103.254L100.906,103.254ZM102.768,118.777L77.62,118.777L77.62,122.193L102.768,122.193L102.768,118.777L102.768,118.777ZM157.723,84.625L157.723,98.286L146.235,98.286L146.235,84.625L126.054,84.625L126.054,79.347L146.235,79.347L146.235,75.31L157.723,75.31L157.723,79.347L177.594,79.347L177.594,84.935L157.723,84.935L157.723,84.625ZM175.42,101.701L175.42,120.019L128.849,120.019L128.849,101.701L124.191,101.701L132.885,86.488L144.683,86.488L137.232,99.838L166.727,99.838L159.586,86.177L171.384,86.177L179.457,101.391L175.42,101.391L175.42,101.701ZM126.054,127.471L126.054,122.193L177.904,122.193L177.904,127.471L126.054,127.471L126.054,127.471ZM163.933,105.427L140.336,105.427L140.336,107.6L163.933,107.6L163.933,105.427ZM163.933,112.257L140.336,112.257L140.336,114.431L163.933,114.431L163.933,112.257ZM220.75,127.471L217.956,121.572L229.133,121.572L229.133,84.935L216.404,84.935L214.541,90.524L227.27,90.524L227.27,119.088L205.537,119.088L205.537,94.871L201.811,94.871L208.331,75L219.508,75L217.956,79.347L240,79.347L240,127.471L220.75,127.471L220.75,127.471ZM190.944,88.04L187.219,75L198.396,75L202.122,88.04L190.944,88.04ZM190.944,127.781L190.944,97.044L187.84,97.044L187.84,91.455L201.501,91.455L201.501,116.604L203.984,115.673L203.984,122.193L190.944,127.781L190.944,127.781ZM217.956,96.113L214.851,96.113L214.851,102.012L217.956,102.012L217.956,96.113L217.956,96.113ZM217.956,107.6L214.851,107.6L214.851,113.499L217.956,113.499L217.956,107.6Z" fill="#000" stroke="#00000000" stroke-width="1.0" stroke-miterlimit=""/>
	</svg>
