<?xml version="1.0" encoding="utf-8"?>
	<svg version="1.1" xmlns="http://www.w3.org/2000/svg" xmlns:xlink="http://www.w3.org/1999/xlink" x="0px" y="0px" width="240.0" height="240.0" xml:space="preserve">
		<path d="M140.816,97.353C144.395,99.751 173.855,118.996 155.246,118.996L150.436,118.996C140.37,118.996 140.816,107.631 140.816,97.353L140.816,97.353ZM97.528,51.662C97.016,51.392 96.288,50.275 96.076,50.711L90.28,46.884C89.789,46.644 89.19,46.303 88.667,46.094L80.694,44.448C81.072,61.436 79.66,47.62 87.908,58.876L83.098,78.115C78.951,75.338 66.127,60.096 63.149,54.777C58.786,46.986 60.54,43.184 35,37.233C38.481,50.262 65.278,61.752 80.107,107.562C83.782,118.924 81.797,115.229 88.19,123.526C125.14,171.5 97.932,140.231 95.137,193.648C93.824,218.772 76.588,206.076 106.105,216.193L109.587,217.553C112.371,218.737 106.711,217.229 114.362,220C112.864,202.018 104.743,215.869 104.743,195.95C104.743,191.788 114.51,179.443 117.514,172.652C122.489,161.416 123.521,155.344 126.387,143.045C139.779,150.568 119.773,178.57 119.172,205.569C133.404,202.255 141.413,205.076 150.436,203.164C142.615,196.368 138.832,197.209 131.196,193.545C133.336,185.534 140.908,175.983 144.677,166.138C157.667,132.212 141.89,148.547 162.461,150.259C166.69,143.942 168.008,143.529 172.08,135.831C201.892,135.831 205.749,131.891 205.749,106.973C196.496,104.818 189.506,95.348 176.89,114.187L144.606,91.158C126.631,78.89 129.158,76.29 123.982,54.067C132.859,51.696 128.289,53.535 140.816,34.828C116.922,-0.852 107.375,38.584 105.038,42.341C102.6,46.263 100.534,47.172 97.528,51.662Z" fill="#000" stroke="#00000000" stroke-width="1.0" stroke-miterlimit=""/>
	</svg>
