<?xml version="1.0" encoding="utf-8"?>
	<svg version="1.1" xmlns="http://www.w3.org/2000/svg" xmlns:xlink="http://www.w3.org/1999/xlink" x="0px" y="0px" width="240.0" height="240.0" xml:space="preserve">
		<path d="M104.339,36C107.233,36.691 110.207,36.343 113.141,36.679C132.083,38.855 148.929,45.722 163.129,58.643C174.675,69.146 182.151,81.956 184.903,97.384C185.685,101.779 186.131,106.226 185.799,110.704C185.76,111.257 185.855,112.031 185.254,112.283C184.705,112.516 184.386,111.829 183.983,111.529C180.638,109.045 176.985,108.248 173.033,109.748C171.449,110.348 170.869,110.266 170.841,108.338C170.628,94.522 165.593,82.644 156.148,72.617C144.38,60.131 129.706,53.509 112.861,51.353C96.41,49.248 80.768,51.922 66.182,59.843C51.808,67.65 41.332,78.963 36.826,94.976C32.561,110.131 35.503,124.213 44.218,137.177C47.879,142.622 52.554,147.128 57.688,151.167C60.345,153.256 61.372,155.772 60.404,159.124C59.311,162.907 58.402,166.742 57.431,170.56C57.277,171.172 56.898,171.879 57.605,172.365C58.276,172.827 58.856,172.313 59.409,171.99C63.765,169.419 68.156,166.911 72.448,164.238C75.43,162.382 78.419,161.952 81.839,162.88C96.236,166.785 110.645,166.694 124.999,162.576C126.192,162.232 126.784,162.287 126.903,163.772C127.262,168.313 129.489,171.67 133.616,173.711C133.829,173.818 134.006,173.988 134.504,174.355C132.889,174.904 131.562,175.397 130.212,175.808C119.81,178.967 109.16,180.282 98.317,179.769C91.888,179.465 85.499,178.624 79.276,176.882C77.724,176.448 76.417,176.562 74.96,177.309C67.714,181.024 60.396,184.598 53.146,188.306C50.627,189.593 48.187,189.747 45.916,188.049C43.614,186.328 42.986,183.966 43.44,181.06C44.408,174.908 45.095,168.708 45.932,162.536C46.11,161.229 45.387,160.467 44.562,159.673C39.1,154.425 34.113,148.782 30.066,142.346C24.774,133.931 21.489,124.813 20.34,114.933C20.288,114.487 20.115,114.052 20,113.61C20,109.934 20,106.257 20,102.581C20.66,99.177 20.983,95.714 21.888,92.35C25.698,78.154 33.367,66.418 44.522,56.929C58.347,45.165 74.462,38.812 92.39,36.687C95.324,36.34 98.293,36.687 101.188,36C102.238,36 103.289,36 104.339,36Z" fill="#000" stroke="" stroke-width="" stroke-miterlimit=""/>
		<path d="M175.934,114.771C181.767,114.799 186.438,118.933 187.512,125.109C188.495,130.78 190.738,135.885 194.281,140.411C195.37,141.801 196.567,143.112 197.791,144.387C199.477,146.145 199.71,147.677 198.371,148.996C197.053,150.299 195.422,150.153 193.736,148.423C189.238,143.815 183.942,140.561 177.731,138.843C175.84,138.318 173.869,138.045 172.017,137.422C166.84,135.68 163.452,130.033 164.368,124.88C165.43,118.906 170.193,114.743 175.934,114.771Z" fill="#000" stroke="" stroke-width="" stroke-miterlimit=""/>
		<path d="M175.842,203.146C169.911,203.146 165.271,199.193 164.264,193.144C163.04,185.771 159.667,179.54 154.483,174.233C154.115,173.857 153.716,173.51 153.377,173.111C152.196,171.709 152.196,170.205 153.448,169.079C154.712,167.942 156.07,168.005 157.353,169.079C158.155,169.751 158.897,170.501 159.667,171.212C164.821,175.986 170.925,178.79 177.792,180.116C182.503,181.025 185.733,183.785 187.052,188.476C189.149,195.939 183.613,203.146 175.842,203.146Z" fill="#000" stroke="" stroke-width="" stroke-miterlimit=""/>
		<path d="M208.353,147.456C214.391,147.44 219.193,151.768 219.924,157.892C220.611,163.65 216.753,169.229 210.877,170.363C205.439,171.413 200.401,173.253 195.836,176.377C193.826,177.751 192.041,179.386 190.323,181.111C188.827,182.616 187.267,182.719 185.987,181.51C184.751,180.341 184.811,178.651 186.303,177.202C192.1,171.579 195.571,164.787 197.02,156.846C198.035,151.325 202.888,147.471 208.353,147.456Z" fill="#000" stroke="" stroke-width="" stroke-miterlimit=""/>
		<path d="M143.325,170.683C137.722,170.651 132.363,165.96 131.897,160.676C131.305,153.943 135.044,148.577 141.347,147.558C149.158,146.299 155.665,142.697 161.241,137.216C163.042,135.447 164.479,135.269 165.822,136.624C167.077,137.895 166.892,139.55 165.154,141.248C159.531,146.745 156.155,153.383 154.729,161.103C153.703,166.682 148.771,170.714 143.325,170.683Z" fill="#000" stroke="" stroke-width="" stroke-miterlimit=""/>
	</svg>
