<?xml version="1.0" encoding="utf-8"?>
	<svg version="1.1" xmlns="http://www.w3.org/2000/svg" xmlns:xlink="http://www.w3.org/1999/xlink" x="0px" y="0px" width="240.0" height="240.0" xml:space="preserve">
		<path d="M115.933,20.195C117.261,19.558 118.269,20.623 119.24,21.323C127.738,27.45 133.339,35.463 135.094,45.932C135.565,48.747 136.108,51.143 139.542,52.127C171.664,61.323 192.524,83.053 207.626,111.984C216.375,128.744 216.242,146.121 215.272,163.784L215.191,165.237L215.191,165.237L215.107,166.69C215.092,166.933 215.078,167.175 215.064,167.418L214.977,168.873C213.874,187.373 204.841,201.197 189.691,211.318C180.371,217.543 169.771,219.45 158.855,219.803L158.855,219.803L118.496,211.367C125.547,186.927 123.389,163.171 113.322,139.979C112.181,137.351 110.868,136.079 108.35,138.815C97.726,150.35 84.185,153.655 69.168,152.182C65.041,151.777 61.942,152.673 59.617,156.115C59.192,156.745 58.567,157.242 58.022,157.789C55.51,160.311 52.93,162.711 49.474,163.964C47.166,164.8 45.365,163.962 43.62,163.004L42.938,162.627C42.031,162.125 41.124,161.645 40.151,161.408C32.234,159.477 29.179,153.556 26.448,147.019C23.97,141.085 24.682,135.572 28.513,130.434C30.927,127.195 33.592,124.062 37.025,122.015C42.542,118.726 45.998,114.004 49.17,108.542C58.72,92.106 71.165,77.751 85.811,65.923C98.326,55.815 100.655,42.973 100.952,28.618C100.981,27.205 99.727,25.223 101.708,24.521C103.23,23.981 104.594,25.437 105.664,26.5C107.296,28.121 108.727,29.947 110.248,31.68C110.435,31.894 110.604,32.148 110.771,32.408L110.939,32.668C111.417,33.402 111.94,34.077 112.926,33.861C114.579,33.497 114.58,31.751 114.693,30.437C114.891,28.138 114.805,25.816 114.896,23.505C114.906,23.257 114.897,22.998 114.89,22.736L114.882,22.422C114.869,21.532 114.96,20.662 115.933,20.195ZM82.422,85.925L82.168,85.928C77.491,86.038 73.796,89.937 73.898,94.651C73.999,99.356 77.898,103.134 82.535,103.025C87.18,102.915 90.903,98.982 90.808,94.284C90.714,89.578 86.826,85.817 82.168,85.928Z" fill="#000" stroke="#00000000" stroke-width="1.0" stroke-miterlimit=""/>
	</svg>
