<?xml version="1.0" encoding="utf-8"?>
	<svg version="1.1" xmlns="http://www.w3.org/2000/svg" xmlns:xlink="http://www.w3.org/1999/xlink" x="0px" y="0px" width="240.0" height="240.0" xml:space="preserve">
		<path d="M187.455,209.88H52.425C40.073,209.88 30,199.807 30,187.455V52.425C30,40.073 40.073,30 52.425,30H187.575C199.927,30 210,40.073 210,52.425V187.575C209.88,199.807 199.807,209.88 187.455,209.88ZM178.092,54.584C178.092,55.856 178.597,57.076 179.497,57.975C180.396,58.875 181.617,59.38 182.889,59.38C184.161,59.38 185.381,58.875 186.281,57.975C187.18,57.076 187.686,55.856 187.686,54.584C187.686,53.311 187.18,52.091 186.281,51.192C185.381,50.292 184.161,49.787 182.889,49.787C181.617,49.787 180.396,50.292 179.497,51.192C178.597,52.091 178.092,53.311 178.092,54.584ZM77.779,137.344C75.525,131.902 74.365,126.07 74.366,120.18C74.365,114.29 75.525,108.457 77.779,103.016C80.033,97.574 83.336,92.629 87.501,88.464C91.666,84.299 96.61,80.995 102.052,78.741C107.493,76.487 113.326,75.327 119.216,75.327C125.106,75.327 130.938,76.487 136.38,78.741C141.822,80.995 146.766,84.299 150.931,88.464C155.096,92.629 158.399,97.574 160.653,103.016C162.907,108.457 164.066,114.29 164.066,120.18C164.066,126.07 162.907,131.902 160.653,137.344C158.399,142.786 155.096,147.731 150.931,151.896C146.766,156.061 141.822,159.365 136.38,161.619C130.938,163.873 125.106,165.033 119.216,165.033C113.326,165.033 107.493,163.873 102.052,161.619C96.61,159.365 91.666,156.061 87.501,151.896C83.336,147.731 80.033,142.786 77.779,137.344Z" fill="#000" stroke="" stroke-width="" stroke-miterlimit=""/>
		<path d="M91.874,119.82C91.874,127.072 94.755,134.026 99.882,139.154C105.01,144.281 111.964,147.162 119.216,147.162C126.467,147.162 133.422,144.281 138.549,139.154C143.677,134.026 146.558,127.072 146.558,119.82C146.558,112.569 143.677,105.614 138.549,100.487C133.422,95.359 126.467,92.478 119.216,92.478C111.964,92.478 105.01,95.359 99.882,100.487C94.755,105.614 91.874,112.569 91.874,119.82Z" fill="#000" stroke="" stroke-width="" stroke-miterlimit=""/>
	</svg>
