<?xml version="1.0" encoding="utf-8"?>
	<svg version="1.1" xmlns="http://www.w3.org/2000/svg" xmlns:xlink="http://www.w3.org/1999/xlink" x="0px" y="0px" width="240.0" height="240.0" xml:space="preserve">
		<path d="M92.513,163.519C92.827,163.741 93.134,163.974 93.443,164.202C97.629,167.303 97.684,167.34 94.738,171.72C93.763,173.169 93.906,174.131 94.911,175.535C100.988,184.027 101.89,193.234 97.269,202.5C92.582,211.897 84.586,216.61 73.674,216.788C63.309,216.364 55.262,211.546 50.81,201.876C46.099,191.645 47.623,181.72 55.242,173.465C62.303,165.816 71.354,163.171 81.538,166.284C84.146,167.081 85.518,166.716 86.94,164.423C88.987,161.124 89.264,161.204 92.513,163.519ZM153.927,165.472C154.996,166.909 155.981,167.069 157.586,166.558C168.662,163.028 178.195,165.745 185.655,174.485C192.685,182.722 193.75,192.269 189.204,201.987C184.636,211.751 176.512,216.536 165.972,216.774C155.35,216.469 147.558,211.78 142.921,202.641C138.343,193.619 139.036,184.531 144.809,176.161C146.241,174.086 146.278,172.811 144.839,170.918C142.241,167.503 142.329,167.435 145.846,164.838C146.001,164.724 146.154,164.608 146.309,164.494C150.679,161.25 150.748,161.199 153.927,165.472ZM150.743,190.779C150.671,199.213 157.388,206.028 165.82,206.077C174.29,206.126 181.041,199.463 181.125,190.976C181.205,182.79 174.235,175.812 165.86,175.693C157.889,175.58 150.812,182.642 150.743,190.779ZM74.301,175.724C66.165,175.643 59.132,182.536 59.013,190.71C58.889,199.156 65.667,206.052 74.11,206.07C82.606,206.089 89.382,199.358 89.376,190.906C89.371,182.74 82.485,175.807 74.301,175.724ZM142.808,37.569C147.836,46.563 146.648,58.311 140.253,66.31C137.092,70.264 133.236,73.144 128.398,74.591C126.504,75.157 125.802,76.178 125.852,78.126C125.958,82.162 125.987,86.206 125.843,90.239C125.76,92.569 126.599,93.581 128.9,94.218C143.625,98.291 152.449,107.933 154.767,123.041C157.523,140.995 145.559,158.083 127.802,162.1C105.967,167.04 84.735,150.169 84.841,127.963C84.842,127.676 84.844,127.402 84.844,127.141L84.844,126.637C84.833,122.006 84.417,121.862 79.235,120.173C76.676,119.34 74.047,118.692 71.552,117.7C69.353,116.828 68.031,117.139 66.5,119.163C59.871,127.926 50.855,131.18 40.258,128.869C29.328,126.486 22.56,119.311 20.517,108.362C18.684,98.543 21.727,89.985 29.619,83.688C37.848,77.122 47.1,75.908 56.691,80.36C66.151,84.751 71.196,92.436 71.588,102.87C71.691,105.636 72.391,106.993 75.171,107.681C78.987,108.625 82.697,110.016 86.414,111.327C88.054,111.906 89.004,111.587 89.932,110.032C94.934,101.66 102.457,96.596 111.777,94.274C114.593,93.573 115.661,92.388 115.361,89.578C115.169,87.772 115.325,85.928 115.325,84.101C116.947,77.951 114.248,75.12 108.52,72.654C98.094,68.167 92.633,56.422 94.603,45.463C96.659,34.031 105.62,25.598 117.035,24.199C128.554,22.787 138.058,29.073 142.808,37.569ZM120.101,105.686C107.663,105.692 97.695,115.417 97.653,127.59C97.609,140.14 107.58,150.116 120.172,150.117C132.402,150.118 142.447,140.14 142.479,127.957C142.512,115.536 132.609,105.68 120.101,105.686ZM220,103.744C220.009,114.83 213.195,124.553 202.968,128.052C192.083,131.775 180.47,128.478 173.848,119.41C172.076,116.983 170.438,116.714 168.093,117.905C165.46,119.242 163.922,118.488 163.437,115.572C163.391,115.29 163.27,115.021 163.179,114.746C161.38,109.298 161.353,109.228 166.538,107.219C168.277,106.546 168.447,105.382 168.48,103.839C168.711,93.033 173.664,85.126 183.358,80.374C200.233,72.101 219.985,84.741 220,103.744ZM194.298,88.495C185.913,88.593 178.991,95.513 179.021,103.768C179.054,112.223 185.874,118.972 194.334,118.917C202.8,118.864 209.512,112.054 209.45,103.584C209.39,95.476 202.289,88.403 194.298,88.495ZM45.899,88.517C37.661,88.504 30.648,95.557 30.695,103.804C30.744,112.252 37.543,118.956 46.007,118.902C54.34,118.849 61.132,112.064 61.085,103.839C61.038,95.463 54.165,88.53 45.899,88.517ZM120.192,34.75C111.527,34.714 105.062,41.127 105.053,49.769C105.043,58.352 111.667,65.107 120.079,65.089C128.395,65.072 135.045,58.391 135.074,50.026C135.104,41.257 128.801,34.787 120.192,34.75Z" fill="#000" stroke="#00000000" stroke-width="1.0" stroke-miterlimit=""/>
	</svg>
