<?xml version="1.0" encoding="utf-8"?>
	<svg version="1.1" xmlns="http://www.w3.org/2000/svg" xmlns:xlink="http://www.w3.org/1999/xlink" x="0px" y="0px" width="240.0" height="240.0" xml:space="preserve">
		<path d="M209.979,119.928C209.979,137.344 209.929,154.761 210,172.177C210.037,181.495 207.235,189.782 201.193,196.845C194.759,204.369 186.54,208.698 176.654,209.785C175.078,209.959 173.501,209.961 171.923,209.961C137.089,209.963 102.258,209.969 67.425,209.959C56.497,209.955 47.246,205.935 39.826,197.956C34.129,191.827 30.912,184.508 30.165,176.128C30.039,174.721 30.014,173.318 30.014,171.911C30.012,136.702 29.969,101.491 30.043,66.28C30.062,57.502 33.207,49.768 38.879,43.083C43.844,37.231 50.049,33.29 57.452,31.267C60.308,30.487 63.224,30.009 66.193,30.009C101.817,30.002 137.438,29.99 173.062,30.015C181.835,30.021 189.662,32.85 196.42,38.436C203.853,44.579 208.291,52.467 209.682,62.027C209.888,63.449 209.989,64.889 209.987,66.338C209.975,84.201 209.979,102.065 209.979,119.928ZM119.979,207.873C137.601,207.873 155.223,207.868 172.845,207.881C174.533,207.883 176.217,207.817 177.878,207.569C185.23,206.482 191.655,203.434 197.02,198.273C204.018,191.544 207.753,183.307 207.864,173.59C207.988,162.703 207.895,151.813 207.893,140.924C207.893,139.714 207.839,139.679 206.777,140.183C200.343,143.22 193.783,145.952 187.066,148.298C175.069,152.489 162.784,155.508 150.219,157.409C143.628,158.405 137.003,159.092 130.35,159.402C124.591,159.67 118.824,159.742 113.05,159.528C109.033,159.377 105.023,159.154 101.028,158.779C92.546,157.984 84.135,156.676 75.815,154.817C61.109,151.53 46.935,146.689 33.33,140.201C32.125,139.628 32.103,139.634 32.103,140.969C32.101,149.59 32.082,158.213 32.111,166.834C32.121,169.923 31.956,173.015 32.272,176.099C33.446,187.547 38.933,196.365 48.553,202.586C54.27,206.284 60.613,207.899 67.423,207.887C84.942,207.85 102.46,207.875 119.979,207.873ZM67.547,79.684C60.607,79.684 53.67,79.68 46.73,79.688C44.873,79.69 43.674,80.776 43.654,82.423C43.633,84.024 44.89,85.208 46.685,85.233C48.369,85.256 50.051,85.231 51.734,85.243C52.919,85.252 52.999,85.359 52.589,86.506C51.28,90.158 49.97,93.813 48.633,97.455C46.951,102.027 49.848,106.231 54.73,106.249C58.715,106.264 62.7,106.253 66.684,106.251C71.801,106.251 76.921,106.282 82.038,106.239C86.262,106.204 89.399,102.353 88.456,98.257C87.907,95.874 86.683,93.718 85.486,91.603C84.754,90.309 82.909,89.985 81.648,90.695C80.396,91.401 79.822,92.959 80.375,94.347C80.782,95.367 81.267,96.355 81.737,97.35C82.701,99.384 81.929,100.692 79.698,100.697C72.278,100.711 64.86,100.711 57.44,100.697C55.147,100.692 54.258,99.427 55.023,97.259C56.272,93.73 57.605,90.231 58.804,86.686C59.177,85.584 59.722,85.212 60.875,85.218C69.771,85.262 78.669,85.241 87.564,85.241C87.977,85.241 88.392,85.258 88.8,85.216C90.936,85.004 92.05,82.751 90.922,80.933C90.282,79.903 89.279,79.682 88.159,79.684C81.287,79.688 74.416,79.684 67.547,79.684ZM120.553,69.947C124.777,69.947 128.999,69.941 133.222,69.951C134.931,69.955 135.73,70.76 135.742,72.489C135.758,74.687 135.593,76.899 135.789,79.078C135.998,81.382 135.304,83.097 133.513,84.54C132.787,85.126 132.426,85.192 131.766,84.517C128.885,81.572 125.961,78.669 123.035,75.766C121.599,74.34 119.94,74.332 118.473,75.714C118.099,76.067 117.808,76.509 117.42,76.843C116.814,77.367 116.826,77.776 117.408,78.351C121.75,82.654 126.054,86.991 130.389,91.299C131.731,92.632 133.416,92.631 134.805,91.357C135.108,91.079 135.366,90.755 135.657,90.464C139.826,86.279 143.994,82.096 148.164,77.916C151.897,74.173 155.634,70.436 159.364,66.689C160.004,66.045 160.309,65.263 160.186,64.347C160.031,63.187 159.406,62.382 158.298,61.992C157.097,61.569 156.084,61.908 155.202,62.791C151.15,66.848 147.097,70.904 143.03,74.947C142.665,75.31 142.347,76.042 141.771,75.791C141.278,75.576 141.542,74.856 141.53,74.361C141.501,73.228 141.528,72.095 141.518,70.962C141.489,67.05 138.895,64.456 134.96,64.45C126.205,64.435 117.449,64.433 108.692,64.458C107.547,64.462 106.608,64.157 105.859,63.284C105.636,63.026 105.38,62.787 105.11,62.58C103.975,61.718 102.566,61.835 101.565,62.855C100.595,63.843 100.502,65.331 101.348,66.424C103.158,68.762 105.434,70.052 108.502,69.974C112.516,69.868 116.535,69.947 120.553,69.947ZM175.697,69.598C175.697,69.6 175.697,69.604 175.697,69.606C172.608,69.606 169.517,69.584 166.428,69.617C165.006,69.633 163.929,70.615 163.797,71.886C163.63,73.496 164.344,74.592 165.866,74.963C166.36,75.083 166.886,75.097 167.395,75.097C173.13,75.105 178.862,75.101 184.596,75.103C185.991,75.103 186.033,75.145 186.033,76.554C186.035,83.696 186.035,90.837 186.033,97.977C186.033,98.216 186.037,98.458 186.016,98.697C185.892,100.181 185.104,100.932 183.631,100.963C182.84,100.979 182.048,100.93 181.264,100.998C179.601,101.142 178.575,102.275 178.625,103.839C178.674,105.424 179.743,106.429 181.456,106.46C182.692,106.482 183.928,106.47 185.164,106.466C189.194,106.447 191.79,103.847 191.796,99.811C191.804,94.558 191.798,89.306 191.798,84.053C191.798,81.442 191.818,78.834 191.788,76.224C191.777,75.378 192.093,75.052 192.939,75.087C193.758,75.12 194.586,75.176 195.399,74.965C196.73,74.621 197.604,73.479 197.518,72.177C197.425,70.776 196.437,69.749 195.015,69.625C194.435,69.573 193.849,69.6 193.265,69.596C191.833,69.586 191.802,69.561 191.796,68.174C191.792,67.077 191.812,65.977 191.788,64.879C191.746,63.102 190.576,61.852 188.963,61.823C187.295,61.792 186.074,63.047 186.039,64.856C186.016,66.024 185.995,67.192 186.041,68.358C186.078,69.303 185.68,69.621 184.757,69.61C181.738,69.575 178.718,69.598 175.697,69.598ZM67.413,69.996C73.147,69.996 78.879,69.996 84.614,69.994C85.094,69.994 85.579,70.013 86.054,69.955C87.228,69.813 87.991,69.128 88.371,68.03C88.734,66.978 88.402,66.086 87.68,65.29C86.956,64.489 86.013,64.439 85.032,64.439C73.359,64.446 61.687,64.444 50.014,64.446C49.636,64.446 49.254,64.439 48.883,64.493C47.461,64.7 46.495,65.851 46.516,67.283C46.541,68.927 47.669,69.986 49.491,69.99C55.465,70.003 61.439,69.994 67.413,69.996ZM103.769,89.368C103.769,84.701 103.777,80.035 103.765,75.368C103.758,73.521 102.609,72.299 100.905,72.264C99,72.225 97.884,73.475 97.882,75.737C97.871,84.762 97.878,93.786 97.875,102.812C97.875,103.435 97.946,104.048 98.164,104.632C98.589,105.775 99.549,106.439 100.768,106.458C102.547,106.482 103.758,105.222 103.765,103.266C103.779,98.633 103.767,94.001 103.769,89.368ZM159.798,70.446C159.286,70.539 159.102,70.855 158.867,71.088C157.547,72.39 156.269,73.737 154.911,74.998C154.299,75.568 154.07,76.17 154.074,76.985C154.096,82.619 154.084,88.252 154.086,93.885C154.086,97.147 154.072,100.412 154.103,103.674C154.115,105.073 155.017,106.121 156.323,106.398C157.656,106.681 158.96,106.026 159.573,104.784C159.827,104.27 159.849,103.73 159.849,103.177C159.849,92.598 159.849,82.018 159.847,71.437C159.843,71.133 159.816,70.828 159.798,70.446ZM141.284,88.664C139.667,90.26 138.127,91.807 136.551,93.32C135.965,93.883 135.692,94.494 135.734,95.317C135.789,96.446 135.773,97.581 135.736,98.712C135.686,100.115 134.851,100.915 133.458,100.963C132.533,100.996 131.596,100.94 130.689,101.076C129.124,101.313 128.252,102.453 128.346,103.949C128.441,105.412 129.514,106.421 131.081,106.46C132.418,106.493 133.755,106.476 135.092,106.468C138.86,106.441 141.487,103.827 141.511,100.049C141.534,96.619 141.52,93.19 141.515,89.762C141.518,89.459 141.584,89.143 141.284,88.664ZM77.156,134.508C80.338,134.498 82.874,132.785 83.468,129.948C84.255,126.191 84.84,122.392 85.511,118.609C85.552,118.374 85.618,118.139 85.385,117.949C84.603,117.311 82.598,117.992 82.428,118.96C81.921,121.866 81.421,124.771 80.912,127.676C80.788,128.386 80.693,129.104 80.503,129.795C80.092,131.289 78.51,132.263 77.094,131.946C75.666,131.624 75.221,130.689 75.557,128.811C76.149,125.503 76.725,122.192 77.307,118.882C77.358,118.583 77.507,118.178 77.204,118.021C76.473,117.644 75.662,117.811 74.891,117.891C74.358,117.947 74.362,118.465 74.294,118.855C73.644,122.536 72.99,126.215 72.369,129.901C72.152,131.192 72.478,132.371 73.446,133.291C74.478,134.275 75.774,134.545 77.156,134.508ZM179.628,91.434C179.656,90.431 179.18,89.663 178.495,88.991C176.832,87.358 175.162,85.734 173.507,84.096C172.265,82.868 171.068,81.593 169.801,80.392C168.557,79.214 166.877,79.216 165.728,80.318C164.583,81.418 164.529,83.089 165.602,84.404C165.776,84.616 165.972,84.808 166.166,85.002C168.829,87.668 171.498,90.334 174.161,93C174.549,93.39 174.95,93.761 175.453,94.005C177.376,94.939 179.621,93.555 179.628,91.434ZM137.649,127.897C140.35,127.817 142.818,127.144 144.169,124.567C145.847,121.368 144.77,118.308 141.235,117.722C139.254,117.394 137.271,117.569 135.327,118.131C134.683,118.316 134.496,118.768 134.394,119.34C133.573,123.964 132.748,128.588 131.927,133.213C131.873,133.512 131.753,133.91 132.038,134.081C132.725,134.492 133.505,134.292 134.244,134.236C134.762,134.197 134.809,133.704 134.884,133.301C135.158,131.818 135.459,130.338 135.676,128.846C135.783,128.114 136.101,127.814 136.823,127.893C137.096,127.922 137.374,127.897 137.649,127.897ZM109.121,92.261C109.625,92.292 110.26,92.09 110.778,91.572C113.23,89.125 115.675,86.671 118.134,84.232C118.5,83.871 118.584,83.512 118.401,83.033C117.839,81.56 117.286,80.083 116.762,78.595C116.531,77.939 116.277,77.994 115.846,78.43C112.85,81.447 109.839,84.451 106.833,87.459C105.915,88.38 105.855,89.482 106.3,90.602C106.757,91.739 107.687,92.253 109.121,92.261ZM162.676,131.764C162.344,129.061 162.012,126.628 161.756,124.187C161.504,121.791 161.477,122.19 159.296,122.123C158.436,122.097 158.25,122.398 158.428,123.232C159.137,126.587 159.773,129.958 160.464,133.32C160.617,134.063 160.574,134.719 160.173,135.387C159.556,136.415 159.001,137.484 158.43,138.538C158.31,138.761 158.069,139.011 158.483,139.213C159.364,139.644 161.125,139.102 161.599,138.247C163.229,135.307 164.864,132.369 166.49,129.426C167.635,127.354 168.78,125.283 169.894,123.194C170.049,122.903 170.579,122.493 169.919,122.19C168.763,121.659 167.117,122.272 166.582,123.411C165.313,126.102 164.059,128.803 162.676,131.764ZM92.902,121.781C91.522,121.81 90.173,122.022 88.842,122.392C88.332,122.534 87.993,122.792 87.896,123.343C87.294,126.758 86.679,130.169 86.072,133.582C86.031,133.817 85.98,134.052 86.248,134.217C87.214,134.82 88.914,134.112 89.102,133.021C89.539,130.485 89.977,127.947 90.408,125.409C90.49,124.919 90.577,124.412 91.155,124.3C92.133,124.113 93.171,123.888 94.035,124.55C94.842,125.171 94.599,126.106 94.458,126.948C94.107,129.046 93.726,131.141 93.369,133.239C93.315,133.559 93.121,133.935 93.468,134.199C94.271,134.816 96.121,134.112 96.299,133.128C96.674,131.033 96.98,128.923 97.421,126.843C98.218,123.093 96.619,121.938 93.216,121.779C93.109,121.777 93.006,121.781 92.902,121.781ZM125.484,121.771C124.129,121.839 122.738,122.012 121.37,122.381C120.72,122.557 120.402,122.901 120.289,123.57C119.734,126.851 119.143,130.128 118.566,133.404C118.518,133.675 118.442,133.951 118.708,134.164C119.467,134.77 121.335,134.143 121.506,133.204C121.983,130.604 122.439,128.002 122.903,125.4C122.969,125.029 123.004,124.651 123.369,124.414C123.92,124.057 125.784,124.067 126.366,124.463C127.187,125.025 127.146,125.829 126.991,126.68C126.595,128.84 126.213,131.003 125.833,133.167C125.777,133.491 125.544,133.935 125.905,134.118C126.601,134.471 127.385,134.312 128.126,134.226C128.646,134.164 128.656,133.669 128.728,133.264C129.131,131 129.547,128.739 129.933,126.471C130.455,123.397 129.477,122.134 126.361,121.812C126.089,121.783 125.813,121.785 125.484,121.771ZM116.989,127.301C117.01,124.226 115.976,122.546 114.092,122.016C112.829,121.661 111.591,121.756 110.351,122.175C106.459,123.496 104.866,129.061 106.113,132.09C106.606,133.287 107.458,134.092 108.717,134.364C110.114,134.667 111.523,134.671 112.84,134.001C115.817,132.484 116.791,129.812 116.989,127.301ZM149.852,134.55C151.098,134.564 152.316,134.401 153.512,134.05C154.094,133.881 154.447,133.594 154.552,132.946C154.967,130.443 155.467,127.953 155.852,125.444C156.133,123.628 155.19,122.388 153.407,121.981C151.536,121.552 149.734,121.94 147.923,122.369C147.021,122.582 147.165,123.114 147.268,123.772C147.398,124.593 147.856,124.42 148.389,124.282C149.559,123.976 150.747,123.789 151.95,124.028C152.724,124.183 153.098,124.69 153.094,125.505C153.089,126.337 152.59,126.537 151.895,126.576C151.519,126.597 151.146,126.667 150.772,126.721C149.272,126.938 147.784,127.195 146.513,128.114C145.333,128.964 144.578,130.817 144.928,132.109C145.349,133.658 146.567,134.226 148.005,134.44C148.612,134.531 149.235,134.517 149.852,134.55ZM100.851,134.29C101.443,134.335 102.13,134.364 102.306,133.27C102.855,129.855 103.486,126.451 104.082,123.044C104.13,122.776 104.214,122.501 103.961,122.28C103.245,121.655 101.321,122.27 101.154,123.199C100.574,126.401 100.019,129.608 99.444,132.812C99.194,134.211 99.243,134.286 100.851,134.29ZM105.155,118.001C105.166,117.281 104.639,116.802 103.816,116.783C102.735,116.758 101.8,117.557 101.79,118.517C101.782,119.29 102.339,119.823 103.168,119.835C104.142,119.847 105.141,118.925 105.155,118.001Z" fill="#000" stroke="" stroke-width="" stroke-miterlimit=""/>
		<path d="M124.005,167.895C130.391,167.895 136.776,167.893 143.162,167.897C146.014,167.899 147.122,169.274 146.482,172.02C144.491,180.577 142.498,189.134 140.502,197.691C139.953,200.042 138.119,201.459 135.531,201.474C131.275,201.494 127.018,201.484 122.761,201.484C114.144,201.484 105.527,201.482 96.91,201.486C96.146,201.486 95.395,201.453 94.71,201.071C93.614,200.463 93.105,199.254 93.418,197.89C94.493,193.206 95.583,188.526 96.67,183.846C97.564,180.001 98.476,176.161 99.351,172.313C100.063,169.179 101.633,167.895 104.85,167.895C111.234,167.893 117.621,167.895 124.005,167.895C124.005,167.893 124.005,167.893 124.005,167.895Z" fill="#000" stroke="" stroke-width="" stroke-miterlimit=""/>
		<path d="M138.876,119.833C140.713,119.837 141.581,120.343 141.872,121.482C142.215,122.823 141.396,124.542 140.083,125.186C139.136,125.65 138.119,125.737 137.079,125.656C136.505,125.613 136.293,125.293 136.384,124.761C136.613,123.413 136.825,122.062 137.106,120.724C137.337,119.618 138.305,119.951 138.876,119.833Z" fill="#000" stroke="" stroke-width="" stroke-miterlimit=""/>
		<path d="M114.117,127.074C114.014,128.124 113.83,129.374 113.223,130.52C112.858,131.209 112.351,131.747 111.622,132.049C110.273,132.608 109.02,131.991 108.727,130.538C108.368,128.749 108.793,127.053 109.693,125.508C110.388,124.315 111.645,123.859 112.771,124.216C113.675,124.507 114.14,125.415 114.117,127.074Z" fill="#000" stroke="" stroke-width="" stroke-miterlimit=""/>
		<path d="M150.157,132.622C148.781,132.629 147.894,132.107 147.71,131.277C147.489,130.278 148.123,129.253 149.264,128.799C150.038,128.489 150.863,128.429 151.678,128.332C152.278,128.262 152.604,128.491 152.483,129.154C152.322,130.029 152.221,130.918 152.002,131.778C151.721,132.882 150.655,132.294 150.157,132.622Z" fill="#000" stroke="" stroke-width="" stroke-miterlimit=""/>
	</svg>
