<?xml version="1.0" encoding="utf-8"?>
	<svg version="1.1" xmlns="http://www.w3.org/2000/svg" xmlns:xlink="http://www.w3.org/1999/xlink" x="0px" y="0px" width="240.0" height="240.0" xml:space="preserve">
		<path d="M214.117,104.031C219.853,104.028 225.596,104.122 231.33,104.003C236.77,103.889 240.009,108.05 240.003,112.659C239.997,116.975 239.978,121.29 239.978,125.605C239.978,126.85 239.784,128.058 239.439,129.246C238.448,132.658 235.699,134.886 232.127,134.9C220.13,134.948 208.132,134.914 196.135,134.937C194.881,134.94 194.317,134.458 194.314,133.179C194.312,124.027 194.294,114.875 194.243,105.723C194.235,104.407 194.807,104.006 196.049,104.014C202.071,104.051 208.092,104.031 214.117,104.031ZM216.535,109.899C212.456,109.899 208.38,109.891 204.301,109.905C202.589,109.91 202.41,110.087 202.401,111.779C202.378,116.71 202.364,121.64 202.364,126.571C202.364,128.357 202.561,128.565 204.307,128.565C212.319,128.573 220.332,128.579 228.347,128.559C230.934,128.553 232.104,127.394 232.124,124.825C232.15,121.031 232.141,117.239 232.096,113.445C232.067,111.01 230.931,109.913 228.484,109.902C224.502,109.885 220.52,109.899 216.535,109.899Z" fill="#000" stroke="" stroke-width="" stroke-miterlimit=""/>
		<path d="M168.807,104.028C174.361,104.028 179.913,104.023 185.467,104.031C187.507,104.034 187.609,104.12 187.598,106.077C187.575,110.389 188.051,109.91 183.832,109.922C174.908,109.942 165.987,109.925 157.063,109.93C153.827,109.933 152.052,112.542 153.206,115.559C153.494,116.311 154.12,116.294 154.738,116.297C157.49,116.305 160.244,116.305 162.996,116.305C169.593,116.305 176.19,116.302 182.79,116.311C184.855,116.314 184.98,116.453 185,118.476C185.037,122.116 185.037,122.116 181.374,122.116C172.877,122.116 164.383,122.116 155.886,122.116C153.075,122.116 153.072,122.119 153.086,124.99C153.089,125.275 153.086,125.56 153.1,125.845C153.214,128.132 154.263,129.149 156.638,129.154C164.281,129.174 171.923,129.163 179.562,129.166C181.65,129.166 183.738,129.191 185.826,129.166C187.011,129.152 187.552,129.639 187.549,130.861C187.532,135.424 187.823,134.925 183.639,134.931C173.245,134.945 162.848,134.925 152.454,134.937C149.605,134.94 147.56,133.698 146.284,131.157C145.885,130.362 145.843,129.511 145.837,128.659C145.806,122.68 145.74,116.698 145.78,110.719C145.808,106.467 148.324,104.048 152.571,104.037C157.983,104.02 163.395,104.028 168.807,104.028Z" fill="#000" stroke="" stroke-width="" stroke-miterlimit=""/>
		<path d="M121.443,104.031C126.995,104.031 132.549,104.026 138.101,104.031C140.04,104.034 140.18,104.165 140.194,106.151C140.231,110.697 140.22,109.896 136.46,109.913C127.539,109.953 118.615,109.922 109.69,109.928C106.341,109.93 104.723,112.132 105.609,115.417C105.842,116.282 106.497,116.294 107.175,116.297C110.024,116.305 112.869,116.302 115.718,116.302C122.172,116.302 128.627,116.3 135.081,116.305C137.352,116.308 137.434,116.399 137.446,118.595C137.463,121.976 137.463,121.976 134.124,121.976C125.343,121.976 116.564,121.974 107.782,121.979C105.594,121.979 105.552,122.033 105.537,124.212C105.535,124.734 105.526,125.258 105.54,125.779C105.6,128.155 106.577,129.149 108.938,129.154C118.287,129.166 127.638,129.16 136.987,129.163C137.557,129.163 138.135,129.12 138.693,129.206C140.753,129.519 139.878,131.168 139.944,132.274C140.003,133.285 140.473,134.72 138.659,134.9C138.329,134.931 137.995,134.928 137.662,134.928C126.841,134.928 116.02,134.917 105.198,134.94C102.803,134.945 100.849,134.159 99.405,132.199C98.707,131.251 98.305,130.211 98.3,129.032C98.277,122.768 98.203,116.502 98.265,110.238C98.302,106.507 100.886,104.057 104.632,104.037C110.243,104.009 115.843,104.031 121.443,104.031Z" fill="#000" stroke="" stroke-width="" stroke-miterlimit=""/>
		<path d="M23.027,104.028C28.579,104.028 34.13,104.023 39.682,104.031C41.724,104.034 41.815,104.111 41.804,106.079C41.778,110.38 42.268,109.908 38.035,109.919C29.114,109.939 20.193,109.922 11.274,109.928C8.05,109.933 6.267,112.545 7.398,115.556C7.68,116.311 8.309,116.294 8.927,116.297C11.87,116.305 14.812,116.305 17.752,116.305C24.109,116.305 30.467,116.302 36.828,116.308C39.129,116.311 39.192,116.385 39.197,118.735C39.206,121.979 39.206,121.979 36.027,121.979C27.203,121.979 18.375,121.976 9.551,121.982C7.352,121.982 7.309,122.036 7.292,124.201C7.258,128.69 7.731,129.163 12.254,129.163C21.221,129.163 30.191,129.16 39.158,129.166C41.684,129.166 41.747,129.234 41.75,131.69C41.753,134.934 41.753,134.934 38.443,134.934C28.097,134.934 17.755,134.94 7.409,134.931C2.458,134.928 0.06,132.544 0.04,127.611C0.015,122.105 -0.003,116.601 0,111.098C0.003,106.31 2.29,104.037 7.084,104.031C12.397,104.023 17.712,104.028 23.027,104.028Z" fill="#000" stroke="" stroke-width="" stroke-miterlimit=""/>
		<path d="M94.967,104.08C94.428,105.145 93.739,105.592 93.121,106.096C88.082,110.195 83.055,114.303 77.982,118.359C77.03,119.119 76.945,119.612 77.919,120.415C83.112,124.688 88.273,128.998 93.437,133.307C93.899,133.692 94.799,134.045 94.622,134.578C94.389,135.29 93.457,134.9 92.839,134.925C91.466,134.98 90.079,134.837 88.715,134.968C86.667,135.165 85.103,134.421 83.57,133.111C80.144,130.186 76.566,127.443 73.117,124.543C72.06,123.654 71.339,123.72 70.311,124.577C66.522,127.736 62.654,130.798 58.843,133.928C57.989,134.632 57.089,134.974 55.983,134.951C53.944,134.908 51.904,134.94 49.865,134.923C49.5,134.92 49.033,134.98 48.885,134.529C48.737,134.074 49.167,133.889 49.455,133.652C54.719,129.323 59.982,124.996 65.241,120.66C66.753,119.413 66.745,119.387 65.252,118.177C60.133,114.024 55.012,109.871 49.89,105.715C49.597,105.475 49.298,105.239 49.019,104.983C48.819,104.798 48.506,104.595 48.674,104.291C48.757,104.14 49.073,104.051 49.284,104.051C52.081,104.043 54.881,104.04 57.678,104.08C58.376,104.088 58.872,104.601 59.384,105.028C62.911,107.974 66.437,110.925 69.978,113.853C71.382,115.015 71.823,115.038 73.307,113.838C75.549,112.024 77.723,110.13 79.941,108.287C81.468,107.019 83.015,105.78 84.567,104.544C84.818,104.345 85.137,104.103 85.427,104.1C88.541,104.068 91.648,104.08 94.967,104.08Z" fill="#000" stroke="" stroke-width="" stroke-miterlimit=""/>
	</svg>
