<?xml version="1.0" encoding="utf-8"?>
	<svg version="1.1" xmlns="http://www.w3.org/2000/svg" xmlns:xlink="http://www.w3.org/1999/xlink" x="0px" y="0px" width="240.0" height="240.0" xml:space="preserve">
		<path d="M219.997,92.341C219.997,104.329 219.997,116.322 219.997,128.31C217.469,128.314 214.941,128.323 212.413,128.323C206.966,128.327 206.966,128.323 206.323,133.683C203.799,154.749 185.991,171.099 164.816,171.781C162.053,171.867 161.992,171.915 161.992,174.838C161.984,187.765 161.992,200.691 161.984,213.618C161.979,216.676 161.875,216.78 158.804,216.784C138.22,216.793 117.636,216.789 97.056,216.784C93.889,216.784 93.807,216.697 93.807,213.47C93.798,200.47 93.776,187.474 93.829,174.474C93.837,172.58 93.316,171.794 91.257,171.754C67.637,171.294 49.572,154.215 47.861,130.738C47.722,128.801 46.94,128.271 45.176,128.306C41.567,128.375 37.953,128.34 34.343,128.314C31.707,128.297 31.455,128.067 31.451,125.474C31.433,115.362 31.433,105.254 31.451,95.143C31.455,92.575 31.715,92.341 34.365,92.328C38.192,92.302 42.023,92.293 45.849,92.319C47.3,92.328 48.004,91.807 48.286,90.256C52.33,68.056 68.936,53.779 91.37,53.218C93.329,53.171 93.846,52.389 93.82,50.603C93.751,45.982 93.785,41.36 93.807,36.739C93.82,33.933 93.972,33.768 96.739,33.763C117.54,33.755 138.337,33.781 159.139,33.724C161.31,33.72 162.071,34.45 162.018,36.613C161.906,41.304 162.045,45.999 161.962,50.695C161.927,52.58 162.648,53.218 164.507,53.236C166.588,53.257 168.695,53.492 170.74,53.874C189.383,57.371 202.883,71.088 206.14,89.913C206.458,91.741 207.183,92.363 208.946,92.332C212.63,92.276 216.313,92.337 219.997,92.341Z" fill="#000" stroke="" stroke-width="" stroke-miterlimit=""/>
		<path d="M161.923,23C162.662,29.237 162.662,29.237 156.503,29.237C136.857,29.237 117.211,29.237 97.565,29.237C94.146,29.237 94.133,29.233 94.15,25.806C94.155,24.872 94.255,23.938 94.311,23.004C116.85,23 139.389,23 161.923,23Z" fill="#000" stroke="" stroke-width="" stroke-miterlimit=""/>
		<path d="M20.032,110.332C20.032,104.92 20.084,99.508 20.001,94.096C19.975,92.328 20.566,91.702 22.36,91.707C26.43,91.724 26.43,91.642 26.434,95.599C26.434,105.776 26.447,115.948 26.408,126.125C26.404,127.042 26.921,128.44 25.596,128.731C23.932,129.092 22.13,129.253 20.497,128.566C19.793,128.271 20.045,127.268 20.04,126.568C20.027,121.156 20.032,115.744 20.032,110.332Z" fill="#000" stroke="" stroke-width="" stroke-miterlimit=""/>
	</svg>
