<?xml version="1.0" encoding="utf-8"?>
	<svg version="1.1" xmlns="http://www.w3.org/2000/svg" xmlns:xlink="http://www.w3.org/1999/xlink" x="0px" y="0px" width="240.0" height="240.0" xml:space="preserve">
		<path d="M167.637,48.07V70.994C167.17,97.193 146.585,117.778 120.854,117.778C95.123,117.778 74.538,97.193 74.07,70.994V48.07H167.637V20H52.55C48.807,20.468 46,23.275 46,27.017V72.398C46,77.544 46.468,82.222 47.403,87.368C48.339,92.047 49.743,96.725 52.082,100.936C53.953,105.614 56.292,109.825 59.099,113.567C61.906,117.31 64.713,121.053 67.988,124.327C69.86,126.199 72.199,128.07 74.07,129.942C75.474,131.345 77.345,132.281 78.748,133.684C82.491,136.491 87.17,138.83 91.38,140.702C96.059,142.573 100.737,143.977 105.415,144.912C110.094,145.848 115.24,146.316 120.386,146.316C125.532,146.316 130.678,145.848 135.357,144.912C140.035,143.977 144.713,142.573 149.392,140.702C154.07,138.83 158.281,136.491 162.023,133.684C163.895,132.281 165.298,131.345 166.702,129.942C168.573,128.07 170.912,126.199 172.784,124.327C176.058,121.053 179.333,117.31 181.673,113.567C184.48,109.825 186.819,105.614 188.69,100.936C190.561,96.257 191.965,91.579 193.368,87.368C194.304,82.69 194.772,77.544 194.772,72.398V48.07H167.637Z" fill="#000" stroke="" stroke-width="" stroke-miterlimit=""/>
		<path d="M50.454,220V170.11H67.93C73.983,170.11 78.575,171.275 81.704,173.605C84.834,175.912 86.399,179.304 86.399,183.782C86.399,186.226 85.771,188.384 84.514,190.258C83.258,192.108 81.51,193.467 79.272,194.335C81.83,194.975 83.84,196.266 85.302,198.207C86.787,200.149 87.53,202.525 87.53,205.334C87.53,210.132 85.999,213.764 82.938,216.231C79.877,218.698 75.514,219.954 69.849,220H50.454ZM60.734,198.276V211.742H69.54C71.962,211.742 73.846,211.171 75.194,210.029C76.565,208.864 77.25,207.265 77.25,205.232C77.25,200.663 74.886,198.344 70.157,198.276H60.734ZM60.734,191.012H68.341C73.526,190.92 76.119,188.853 76.119,184.809C76.119,182.548 75.457,180.926 74.132,179.944C72.83,178.939 70.762,178.436 67.93,178.436H60.734V191.012Z" fill="#000" stroke="" stroke-width="" stroke-miterlimit=""/>
		<path d="M106.204,220H95.925V170.11H106.204V220Z" fill="#000" stroke="" stroke-width="" stroke-miterlimit=""/>
		<path d="M131.389,199.989L126.044,205.746V220H115.764V170.11H126.044V192.725L130.567,186.523L143.279,170.11H155.923L138.208,192.279L156.437,220H144.204L131.389,199.989Z" fill="#000" stroke="" stroke-width="" stroke-miterlimit=""/>
		<path d="M190.326,198.379H170.589V211.742H193.752V220H160.309V170.11H193.684V178.436H170.589V190.326H190.326V198.379Z" fill="#000" stroke="" stroke-width="" stroke-miterlimit=""/>
	</svg>
