<?xml version="1.0" encoding="utf-8"?>
	<svg version="1.1" xmlns="http://www.w3.org/2000/svg" xmlns:xlink="http://www.w3.org/1999/xlink" x="0px" y="0px" width="240.0" height="240.0" xml:space="preserve">
		<path d="M120.493,204.144C120.219,204.144 119.949,204.144 119.675,204.144C119.261,203.522 118.893,202.871 118.434,202.29C114.64,197.484 110.825,192.686 107.018,187.889C97.034,175.306 87.05,162.723 77.062,150.144C75.49,148.162 75.4,148.162 73.882,150.213C70.844,154.315 67.819,158.425 64.778,162.526C63.104,164.782 63.083,164.786 61.405,162.514C52.109,149.918 42.833,137.311 33.529,124.719C29.042,118.649 24.511,112.607 20,106.549C20,106.414 20,106.274 20,106.139C27.417,106.09 34.834,106.037 42.252,105.992C45.179,105.972 45.211,105.951 45.211,103.016C45.215,85.664 45.211,68.308 45.215,50.956C45.215,48.119 45.281,48.05 48.028,48.046C58.102,48.037 68.179,48.037 78.253,48.046C80.881,48.05 80.967,48.14 80.971,50.846C80.98,61.939 80.976,73.032 80.976,84.125C80.976,90.658 81.012,97.191 80.955,103.724C80.939,105.394 81.54,106.078 83.223,106.008C85.192,105.927 87.169,105.996 89.146,105.992C92.196,105.984 92.204,105.98 92.208,102.897C92.212,81.325 92.208,59.753 92.212,38.181C92.212,35.033 92.241,35.004 95.413,35.004C111.75,35 128.087,35 144.427,35C147.952,35 147.96,35.008 147.96,38.459C147.964,63.977 147.96,89.5 147.964,115.018C147.964,115.767 147.993,116.516 147.972,117.265C147.94,118.542 148.533,119.132 149.823,119.12C152.205,119.095 154.587,119.132 156.97,119.12C159.512,119.107 159.639,118.989 159.643,116.451C159.655,107.74 159.643,99.029 159.651,90.318C159.655,87.404 159.753,87.301 162.61,87.297C172.345,87.289 182.083,87.289 191.817,87.293C195.313,87.293 195.317,87.301 195.321,90.797C195.325,108.014 195.321,125.231 195.325,142.448C195.325,145.08 195.472,145.231 198.1,145.236C204.703,145.248 211.306,145.231 217.912,145.256C218.612,145.26 219.574,144.9 219.939,145.731C220.237,146.406 219.484,146.943 219.091,147.475C205.771,165.559 192.447,183.636 179.119,201.712C177.498,203.911 177.469,203.911 175.865,201.729C167.748,190.717 159.639,179.702 151.53,168.683C150.06,166.685 150.039,166.669 148.541,168.552C142.946,175.58 137.309,182.576 131.783,189.657C128.005,194.479 123.956,199.084 120.493,204.144Z" fill="#000" stroke="" stroke-width="" stroke-miterlimit=""/>
	</svg>
