<?xml version="1.0" encoding="utf-8"?>
	<svg version="1.1" xmlns="http://www.w3.org/2000/svg" xmlns:xlink="http://www.w3.org/1999/xlink" x="0px" y="0px" width="240.0" height="240.0" xml:space="preserve">
		<path d="M176.085,100.662C176.088,100.276 175.892,100.077 175.509,100.054C175.5,99.729 175.257,99.568 175.061,99.351C173.284,97.393 171.612,95.341 169.882,93.341C167.157,90.191 164.862,86.685 162.005,83.626C160.424,81.934 158.946,80.145 157.424,78.4C155.951,76.468 154.552,74.478 152.986,72.628C151.733,71.146 150.492,69.654 149.213,68.193C146.414,64.996 143.657,61.741 141.139,58.322C139.728,56.404 137.708,54.95 136.801,52.658C142.211,52.655 147.62,52.64 153.03,52.652C154.833,52.655 156.566,52.201 158.091,51.369C160.41,50.102 161.993,46.856 160.044,43.835C159.084,42.345 157.752,41.247 156.686,39.889C155.363,38.194 154.104,36.44 152.652,34.86C151.209,33.291 149.792,31.719 148.455,30.053C147.579,28.964 147.003,27.565 145.676,26.853C145.448,25.876 144.421,25.53 143.979,24.722C142.474,21.965 140.164,19.843 138.145,17.509C136.4,15.493 134.623,13.487 132.99,11.388C130.469,8.148 127.893,4.972 125.177,1.886C122.931,-0.663 116.84,-0.599 114.559,1.901C111.907,4.814 109.583,7.981 106.98,10.926C104.132,14.152 101.422,17.504 98.787,20.908C97.241,22.907 95.195,24.514 94.094,26.859C93.928,26.941 93.708,26.982 93.597,27.114C90.699,30.577 87.801,34.04 84.932,37.526C83.205,39.622 81.287,41.554 79.774,43.84C78.1,46.37 78.861,49.347 81.384,51.007C83.433,52.353 85.591,52.655 87.906,52.652C92.929,52.649 97.953,52.658 102.973,52.66C102.306,54.572 100.731,55.857 99.507,57.329C96.577,60.857 93.726,64.452 90.749,67.938C88.202,70.921 85.851,74.074 83.111,76.893C82.722,77.291 82.306,77.756 82.347,78.412C80.014,80.47 78.185,82.958 76.267,85.385C73.445,88.95 70.483,92.402 67.588,95.906C66.279,97.486 64.982,99.079 63.68,100.665C62.114,101.669 61.353,103.9 61.891,105.905C62.731,109.037 64.777,110.63 68.021,110.633C78.653,110.642 89.282,110.639 99.914,110.639C99.882,110.776 99.893,110.952 99.812,111.049C97.335,113.985 94.832,116.9 92.373,119.854C91.1,121.385 89.885,122.966 88.682,124.552C87.651,125.913 86.548,127.28 85.462,128.522C84.227,129.935 83.149,131.54 81.744,132.831C81.22,133.311 80.573,133.747 80.576,134.593C80.31,134.605 80.178,134.774 80.008,134.97C78.024,137.263 76.071,139.578 74.16,141.934C71.613,145.075 68.89,148.076 66.309,151.191C63.153,155.002 60.068,158.872 56.95,162.718C55.911,163.848 54.88,164.972 53.955,166.214C52.38,168.333 50.393,170.142 48.8,172.217C47.108,174.422 45.258,176.48 43.569,178.672C42.208,180.437 41.473,182.513 42.442,184.527C43.836,187.425 46.371,188.432 49.242,188.435C95.38,188.484 141.517,188.47 187.657,188.467C189.624,188.467 191.577,188.575 193.512,187.908C195.464,187.235 197.888,184.916 197.765,182.674C197.66,180.765 196.866,179.243 195.637,177.946C193.178,175.356 190.93,172.595 188.717,169.797C186.946,167.554 184.996,165.452 183.125,163.289C183.008,163.087 182.929,162.85 182.771,162.686C181.073,160.906 179.463,159.009 178.041,157.051C176.267,154.61 174.387,152.253 172.379,150.046C170.207,147.657 168.363,144.976 165.969,142.789C165.863,142.693 165.749,142.581 165.69,142.453C164.218,139.159 160.992,137.286 159.119,134.321C157.187,131.964 155.413,129.464 153.46,127.152C150.489,123.633 147.363,120.237 144.482,116.637C143.059,114.86 141.707,113.03 140.32,111.224C140.577,110.287 141.353,110.659 141.906,110.659C151.71,110.636 161.51,110.627 171.314,110.656C172.655,110.659 173.825,110.393 175.002,109.705C177.713,108.121 178.814,105.721 177.739,102.852C177.452,102.038 177.245,100.914 176.085,100.662ZM138.619,221.314C138.619,218.729 138.581,216.145 138.63,213.563C138.677,211.139 138.487,208.894 136.968,206.76C135.17,204.239 132.916,202.638 129.898,202.562C124.149,202.413 118.391,202.541 112.639,202.509C110.037,202.495 107.542,202.509 105.265,204.225C102.95,205.972 101.29,208.127 101.217,210.952C101.035,217.822 101.155,224.701 101.161,231.574C101.161,232.005 101.111,232.429 101.348,232.851C102.484,234.862 103.187,237.122 105.54,238.293C107.089,239.062 108.582,239.938 110.315,239.955C116.117,240.017 121.918,239.938 127.72,239.999C130.296,240.026 132.518,239.399 134.684,237.883C137.337,236.03 138.502,233.583 138.592,230.529C138.692,227.459 138.619,224.385 138.619,221.314Z" fill="#000" stroke="" stroke-width="" stroke-miterlimit=""/>
	</svg>
