<?xml version="1.0" encoding="utf-8"?>
	<svg version="1.1" xmlns="http://www.w3.org/2000/svg" xmlns:xlink="http://www.w3.org/1999/xlink" x="0px" y="0px" width="240.0" height="240.0" xml:space="preserve">
		<path d="M83.064,71C86.632,76.121 90.509,80.687 97.119,82.192C101.759,83.248 106.263,84.941 110.767,86.524C113.657,87.543 116.457,86.597 119.284,86.477C121.588,86.378 122.471,86.869 122.351,89.45C121.74,102.434 122.33,115.434 122.21,128.429C122.189,130.723 121.646,132.594 120.131,134.355C117.638,137.244 115.339,140.295 112.977,143.295C112.115,144.387 111.389,145.113 110.893,143.044C110.59,141.785 109.534,141.351 108.416,141.001C106.012,140.259 103.619,139.459 101.216,138.712C99.847,138.289 99.042,137.422 99.502,136.011C100.019,134.412 101.242,135.368 102.114,135.629C105.025,136.502 107.909,137.469 110.788,138.435C112.131,138.885 112.727,138.524 112.716,137.051C112.674,130.634 112.659,124.223 112.685,117.807C112.69,116.333 111.979,115.602 110.673,115.184C105.051,113.386 99.439,111.547 93.812,109.76C92.025,109.19 90.985,109.682 91.001,111.803C91.048,119.082 91.063,126.365 91.001,133.649C90.98,136.074 92.699,136.539 94.418,137.254C95.552,137.73 97.919,137.484 97.307,139.334C96.832,140.766 94.966,139.439 93.859,139.115C91.878,138.535 90.4,138.843 88.91,140.295C87.301,141.868 85.462,143.206 83.712,144.622C82.583,145.531 81.998,145.176 81.925,143.791C81.904,143.357 81.898,142.924 81.898,142.49C81.898,119.343 81.898,96.201 81.904,73.053C81.904,72.364 81.982,71.674 82.029,70.979C82.369,71 82.719,71 83.064,71ZM112.706,101.306C112.706,98.019 112.659,94.732 112.727,91.451C112.763,89.716 112.063,88.755 110.391,88.238C104.852,86.513 99.335,84.711 93.822,82.908C91.936,82.291 91.006,82.835 91.011,84.888C91.027,91.373 91.021,97.857 90.985,104.336C90.975,105.93 91.607,106.959 93.153,107.45C98.932,109.284 104.706,111.118 110.469,113.005C112.293,113.6 112.768,112.874 112.732,111.165C112.664,107.874 112.711,104.587 112.706,101.306Z" fill="#000" stroke="" stroke-width="" stroke-miterlimit=""/>
		<path d="M239.999,124.051C232.982,121.819 225.964,119.594 218.957,117.347C218.309,117.138 217.62,116.871 217.118,116.432C216.486,115.884 216.413,115.048 216.747,114.274C217.134,113.386 217.876,113.658 218.534,113.872C225.693,116.218 232.846,118.575 239.999,120.926C239.999,121.971 239.999,123.011 239.999,124.051Z" fill="#000" stroke="" stroke-width="" stroke-miterlimit=""/>
		<path d="M203.523,155.02C202.285,150.458 198.079,147.908 195.398,143.687C198.136,144.052 199.934,145.51 202.008,146.216C205.201,147.297 206.303,146.78 206.376,143.467C206.502,137.406 206.408,131.34 206.408,125.273C206.408,123.596 205.629,122.494 204.009,121.976C199.051,120.388 194.092,118.799 189.144,117.185C187.017,116.495 186.563,117.645 186.463,119.416C186.15,124.787 185.549,130.107 183.506,135.164C181.855,139.245 179.138,142.406 175.444,144.752C174.733,145.207 173.876,146.054 173.124,145.437C172.22,144.7 173.275,143.896 173.615,143.19C177.868,134.349 178.563,124.902 178.412,115.309C178.391,113.919 177.471,113.344 176.358,112.947C175.052,112.477 173.725,112.075 172.413,111.615C171.791,111.395 171.311,110.977 171.467,110.267C171.656,109.399 172.335,109.614 172.93,109.76C173.181,109.823 173.437,109.885 173.688,109.953C178.464,111.27 178.464,111.27 178.464,106.39C178.464,99.461 178.459,92.527 178.48,85.599C178.48,84.862 178.166,83.828 179.039,83.493C179.958,83.138 180.277,84.225 180.763,84.758C182.503,86.686 184.018,88.823 186.192,90.328C187.906,91.514 188.742,91.179 188.81,89.074C188.909,85.96 188.877,82.84 188.407,79.742C188.308,79.104 188.036,78.247 188.763,77.834C189.525,77.401 190.053,78.148 190.534,78.582C192.681,80.489 195.095,82.03 197.452,83.666C199.918,85.374 199.934,86.247 197.583,88.206C196.517,89.095 195.372,89.884 194.28,90.741C193.685,91.211 192.791,91.597 193.011,92.517C193.214,93.364 194.118,93.531 194.86,93.771C197.421,94.597 199.991,95.391 202.546,96.237C203.409,96.52 204.746,96.681 204.344,97.946C203.962,99.143 202.818,98.354 202.097,98.134C198.11,96.922 194.165,95.589 190.184,94.362C187.644,93.578 187.012,94.006 186.97,96.645C186.892,101.666 186.939,106.693 186.897,111.719C186.881,113.517 187.629,114.619 189.4,115.168C194.207,116.652 199.004,118.183 203.78,119.766C205.708,120.403 206.528,119.928 206.455,117.817C206.251,111.761 206.8,105.69 206.136,99.644C205.969,98.113 206.517,97.523 208.059,97.267C215.066,96.091 215.04,96.044 215.034,102.952C215.019,114.823 215.003,126.689 215.055,138.561C215.066,140.484 214.596,142.056 213.352,143.556C210.583,146.89 207.949,150.338 205.243,153.724C204.809,154.247 204.506,154.941 203.523,155.02Z" fill="#000" stroke="" stroke-width="" stroke-miterlimit=""/>
		<path d="M56.227,147.459C58.16,148.164 60.078,148.912 62.027,149.565C64.712,150.469 65.658,149.868 65.695,147.156C65.752,142.736 65.684,138.32 65.726,133.9C65.742,132.4 65.214,131.413 63.72,130.99C61.969,130.493 60.24,129.897 58.479,129.438C56.828,129.009 55.866,129.621 55.553,131.402C54.947,134.83 53.839,138.106 52.162,141.179C49.758,145.573 46.263,148.844 41.879,151.195C41.231,151.545 40.577,152.12 39.731,151.671C39.7,151.482 39.595,151.268 39.663,151.169C47.098,140.071 48.321,127.447 48.551,114.63C48.729,104.843 48.629,95.051 48.682,85.259C48.687,84.434 48.342,83.263 49.293,82.924C50.234,82.589 50.766,83.687 51.258,84.329C54.607,88.724 58.63,91.953 64.221,93.243C66.896,93.86 69.389,93.343 71.96,93.296C73.574,93.264 74.374,93.787 74.253,95.553C73.396,108.098 74.071,120.665 73.867,133.221C73.82,135.99 73.768,138.77 73.888,141.539C73.982,143.728 73.47,145.521 71.97,147.224C69.566,149.951 67.409,152.898 65.146,155.751C64.221,156.917 63.469,157.622 62.889,155.433C62.476,153.865 60.997,153.003 59.853,151.953C58.484,150.688 57.105,149.424 55.73,148.164C55.887,147.924 56.054,147.689 56.227,147.459ZM65.705,121.652C65.71,121.652 65.71,121.652 65.716,121.652C65.716,120.79 65.716,119.928 65.716,119.066C65.716,113.13 65.7,113.177 59.926,111.63C57.915,111.092 57.178,111.819 57.136,113.726C57.094,115.711 57.099,117.702 56.922,119.677C56.284,126.841 56.258,126.841 63.192,128.941C63.443,129.014 63.693,129.072 63.939,129.161C65.188,129.626 65.721,129.156 65.705,127.87C65.689,125.791 65.705,123.721 65.705,121.652ZM65.71,103.579C65.71,101.677 65.653,99.77 65.726,97.873C65.794,96.243 65.083,95.234 63.584,94.738C62.434,94.356 61.279,93.975 60.109,93.666C58.118,93.149 57.146,93.933 57.162,96.013C57.183,98.954 57.293,101.901 57.084,104.827C56.88,107.769 58.103,109.399 60.898,110.058C61.739,110.256 62.56,110.559 63.359,110.883C64.994,111.547 65.815,111.197 65.731,109.279C65.648,107.388 65.71,105.481 65.71,103.579Z" fill="#000" stroke="" stroke-width="" stroke-miterlimit=""/>
		<path d="M44.535,109.645C44.535,116.835 44.493,124.03 44.561,131.219C44.582,133.414 43.913,133.937 41.776,133.231C28.744,128.952 15.682,124.772 2.634,120.555C2.138,120.393 1.657,120.2 1.166,120.017C0.022,119.599 -0.14,118.669 0.09,117.681C0.408,116.317 1.443,116.887 2.19,117.122C8.398,119.087 14.616,121.015 20.776,123.126C23.012,123.894 23.655,123.434 23.639,121.072C23.566,107.644 23.603,94.21 23.603,80.776C23.603,80.17 23.571,79.559 23.613,78.958C23.671,78.122 23.3,76.978 24.172,76.57C25.144,76.121 25.526,77.359 26.174,77.85C26.309,77.955 26.398,78.117 26.529,78.232C30.453,81.717 32.721,85.656 31.723,91.3C31.085,94.915 31.613,98.73 31.608,102.455C31.608,103.516 31.686,104.561 32.465,105.371C33.353,106.29 34.518,106.907 35.73,106.531C36.89,106.17 36.467,104.906 36.477,104.012C36.514,99.592 36.483,95.171 36.509,90.756C36.514,89.33 36.525,87.961 34.993,87.187C34.508,86.942 34.168,86.472 34.445,85.902C34.669,85.447 35.166,85.463 35.589,85.604C37.664,86.299 39.722,85.892 41.771,85.536C43.829,85.181 44.571,86.001 44.55,88.065C44.487,95.26 44.535,102.455 44.535,109.645ZM36.509,118.622C36.493,118.622 36.477,118.622 36.462,118.622C36.462,116.025 36.54,113.417 36.436,110.826C36.352,108.856 34.837,108.156 33.18,108.187C31.399,108.218 31.681,109.791 31.66,110.951C31.618,113.203 31.623,115.46 31.681,117.707C31.738,120.132 31.89,122.551 31.973,124.975C32.047,127.118 33.734,127.483 35.244,127.604C37.178,127.755 36.425,126.057 36.472,125.117C36.587,122.959 36.509,120.785 36.509,118.622Z" fill="#000" stroke="" stroke-width="" stroke-miterlimit=""/>
		<path d="M154.099,106.766C154.021,108.673 153.446,110.366 152.067,111.704C150.922,112.817 150.964,113.564 152.579,114.071C156.722,115.372 160.85,116.709 164.988,118.016C165.663,118.23 166.509,118.407 166.932,117.76C168.5,115.356 169.785,116.897 171.118,117.969C172.403,119.003 173.678,120.043 174.948,121.098C175.339,121.422 175.857,121.793 175.642,122.368C175.381,123.063 174.676,123.068 174.075,122.943C173.228,122.77 172.398,122.499 171.572,122.237C164.874,120.1 158.18,117.937 151.476,115.811C148.467,114.854 147.981,115.251 147.861,118.366C147.777,120.529 147.678,122.697 147.416,124.84C147.166,126.909 147.913,128.168 149.898,128.774C152.14,129.459 154.376,130.164 156.597,130.911C157.396,131.183 158.483,131.486 158.034,132.641C157.632,133.67 156.665,133.08 155.986,132.886C153.817,132.264 151.644,131.632 149.527,130.854C147.772,130.211 146.962,130.692 146.638,132.52C145.938,136.533 145.039,140.499 143.581,144.324C140.587,152.183 135.294,157.847 127.571,161.222C126.824,161.551 125.863,162.356 125.251,161.462C124.745,160.72 125.837,160.167 126.302,159.597C131.569,153.186 134.045,145.515 136.026,137.688C137.881,130.347 138.236,122.802 138.33,115.246C138.351,113.59 137.766,112.691 136.172,112.221C133.173,111.338 130.21,110.345 127.237,109.384C126.662,109.196 126.077,109.002 125.544,108.725C124.483,108.171 124.452,107.168 124.771,106.243C125.142,105.157 126.093,105.632 126.772,105.836C132.17,107.487 137.551,109.175 142.938,110.862C145.729,111.735 146.162,111.437 145.494,108.663C144.485,104.451 143.304,100.287 142.212,96.096C142.071,95.548 141.601,94.842 142.327,94.497C142.651,94.346 143.294,94.712 143.717,94.968C146.612,96.734 149.491,98.516 151.722,101.138C153.107,102.774 154.026,104.597 154.099,106.766Z" fill="#000" stroke="" stroke-width="" stroke-miterlimit=""/>
		<path d="M146.281,157.173C149.03,158.411 151.35,159.529 153.722,160.511C156.475,161.651 157.536,161.102 158.147,158.181C159.109,153.593 159.192,148.906 159.537,144.256C159.793,140.808 159.929,137.343 160.039,133.884C160.081,132.468 160.718,131.82 162.082,131.784C162.171,131.784 162.254,131.768 162.343,131.768C164.59,131.752 167.375,130.922 168.948,131.946C170.667,133.064 169.031,135.906 169.068,138.002C169.141,141.889 168.812,145.782 168.655,149.669C168.587,151.352 168.185,152.867 167.077,154.231C163.362,158.808 159.715,163.432 156.047,168.046C155.012,169.347 154.349,169.979 153.696,167.659C152.844,164.645 150.164,162.805 148.309,160.433C147.64,159.56 146.574,158.97 146.281,157.173Z" fill="#000" stroke="" stroke-width="" stroke-miterlimit=""/>
		<path d="M202.017,132.756C201.844,134.433 201.541,135.865 200.648,137.092C199.712,138.373 198.453,139.057 196.844,138.848C195.318,138.655 194.738,137.5 194.352,136.194C192.972,131.559 191.587,126.924 190.208,122.285C189.931,121.354 189.78,120.226 191.248,120.983C195.579,123.225 199.817,125.655 201.547,130.671C201.792,131.402 201.886,132.181 202.017,132.756Z" fill="#000" stroke="" stroke-width="" stroke-miterlimit=""/>
		<path d="M201.541,108.715C201.62,111.056 201.233,112.613 199.895,113.804C197.45,115.983 195.135,115.393 194.169,112.284C192.758,107.733 191.394,103.171 190.036,98.604C189.827,97.899 189.456,96.619 190.887,97.335C195.187,99.487 199.331,101.922 201.128,106.792C201.416,107.597 201.489,108.475 201.541,108.715Z" fill="#000" stroke="" stroke-width="" stroke-miterlimit=""/>
	</svg>
