<?xml version="1.0" encoding="utf-8"?>
	<svg version="1.1" xmlns="http://www.w3.org/2000/svg" xmlns:xlink="http://www.w3.org/1999/xlink" x="0px" y="0px" width="240.0" height="240.0" xml:space="preserve">
		<path d="M64.609,133.868V133.88C61.082,133.88 57.554,133.878 54.026,133.876C45.203,133.871 36.378,133.866 27.556,133.892C23.565,133.904 22.11,135.378 22.043,139.357C21.977,143.27 22.001,147.189 22.025,151.102C22.049,156.139 23.208,157.328 28.245,157.34C33.991,157.357 39.735,157.355 45.48,157.353C50.076,157.352 54.673,157.35 59.271,157.358C63.734,157.364 64.018,157.854 61.729,161.67C53.547,175.323 41.572,184.375 26.91,190.033C23.686,191.277 22.345,193.21 22.411,196.579C22.48,200.072 22.464,203.567 22.448,207.061C22.438,209.391 22.427,211.721 22.442,214.049C22.478,219.731 24.471,221.072 29.791,218.97C40.37,214.792 50.527,209.743 60.123,203.638C76.723,193.083 89.44,179.369 95.219,160.064C96.022,157.383 98.401,156.706 102.834,157.401C105.209,157.774 105.165,159.363 105.122,160.927C105.116,161.136 105.11,161.344 105.11,161.549C105.122,170.284 105.124,179.02 105.125,187.757C105.127,196.493 105.128,205.23 105.14,213.964C105.146,218.862 106.264,219.949 111.215,219.979C116.439,220.009 121.656,220.003 126.879,219.985C132.598,219.967 133.456,219.103 133.456,213.276C133.459,208.558 133.458,203.841 133.457,199.123C133.455,187.071 133.453,175.02 133.522,162.968C133.524,162.566 133.479,162.129 133.434,161.683C133.248,159.874 133.046,157.91 135.913,157.431C141.203,156.549 142.761,157.316 144.156,161.314C145.647,165.589 147.332,169.78 149.639,173.687C163.624,197.346 185.031,211.187 210.532,219.532C214.264,220.752 216.408,219.103 216.468,215.178C216.518,211.749 216.51,208.319 216.502,204.887C216.496,201.992 216.489,199.095 216.517,196.199C216.541,193.192 215.23,191.259 212.392,190.287C211.064,189.834 209.759,189.297 208.479,188.717C195.164,182.666 184.18,173.916 176.789,161.078C174.886,157.775 175.122,157.407 178.866,157.352C179.87,157.339 180.875,157.342 181.877,157.344H181.88C182.281,157.345 182.682,157.346 183.081,157.346C185.986,157.345 188.89,157.347 191.794,157.349H191.804C198.435,157.353 205.065,157.358 211.698,157.316C215.599,157.292 216.994,155.891 217.048,152.056C217.108,147.642 217.127,143.216 217.024,138.802C216.945,135.511 215.424,134.061 212.193,133.892C211.292,133.847 210.387,133.853 209.482,133.858C209.18,133.86 208.878,133.862 208.576,133.862C202.703,133.862 196.83,133.86 190.957,133.858C173.334,133.853 155.71,133.847 138.087,133.892C135.346,133.898 133.401,133.56 133.323,130.142C133.268,127.757 131.511,126.64 129.216,126.628C122.689,126.586 116.161,126.586 109.639,126.628C107.242,126.64 105.352,127.757 105.297,130.275C105.225,133.572 103.395,133.904 100.769,133.892C91.998,133.848 83.231,133.856 74.466,133.863C71.18,133.866 67.895,133.868 64.609,133.868Z" fill="#000" stroke="" stroke-width="" stroke-miterlimit=""/>
		<path d="M120.074,20.034V20.083C119.129,20.083 118.184,20.082 117.238,20.081H117.235C114.87,20.078 112.504,20.076 110.14,20.089C109.029,20.095 107.828,20.131 107.332,21.387C106.891,22.504 107.594,23.196 108.276,23.868C108.386,23.977 108.496,24.085 108.601,24.195L108.61,24.205C112.592,28.398 112.601,28.407 108.691,32.933C100.666,42.208 93.105,51.791 87.031,62.516C83.154,69.352 81.294,76.507 81.53,84.37C82.182,105.879 101.771,122.612 123.117,119.738C141.04,117.328 154.476,102.649 155.527,84.333C156.529,66.888 144.561,50.662 127.435,46.266C126.512,46.028 125.574,45.842 124.637,45.656C124.097,45.548 123.557,45.441 123.021,45.324C122.012,45.107 121.716,44.611 122.2,43.591C124.078,39.611 127.302,38.633 131.094,40.952C133.486,42.413 134.446,42.021 134.5,39.291C134.603,34.376 134.603,29.455 134.494,24.539C134.428,21.49 133.051,20.149 130.014,20.046C127.757,19.98 125.499,19.999 123.239,20.017C122.184,20.026 121.129,20.034 120.074,20.034ZM95.358,84.593C95.365,72.504 102.78,63.235 112.876,61.145C115.105,60.686 116.252,60.704 115.69,63.693L115.69,63.699C115.158,66.535 114.557,69.745 118.172,71.574C119.646,72.317 119.126,73.416 117.786,73.935C117.347,74.105 116.846,74.11 116.345,74.116C116.135,74.118 115.925,74.12 115.721,74.134C115.377,74.159 114.997,74.017 114.622,73.876C113.9,73.606 113.195,73.342 112.798,74.279C112.345,75.36 113.197,76.646 113.969,77.546C115.57,79.418 117.774,80.143 120.165,80.01C122.333,79.895 124.32,79.949 124.779,82.606C125.346,85.897 124.151,87.661 121.137,88.554C118.197,89.426 115.997,91.413 113.811,93.385C113.182,93.953 112.554,94.52 111.91,95.058C110.574,96.177 111.259,97.762 111.887,99.216C111.975,99.417 112.06,99.616 112.14,99.81C112.251,100.085 112.401,100.365 112.552,100.649C113.081,101.64 113.634,102.677 112.695,103.681C111.557,104.899 110.223,104.241 109.024,103.649C108.856,103.566 108.691,103.484 108.529,103.409C99.93,99.4 95.932,92.371 95.358,84.593ZM123.452,104.472C132.498,101.912 139.37,92.576 139.327,82.945C139.309,79.472 138.071,78.053 134.768,78.222C132.324,78.35 132.289,80.215 132.257,81.9C132.252,82.126 132.248,82.349 132.238,82.564C132.117,85.082 131.042,86.544 128.887,88.071C128.335,88.462 127.686,88.787 127.026,89.117C125.287,89.989 123.477,90.895 123.21,93.12C122.92,95.517 121.972,97.335 120.179,98.754C118.488,100.088 117.534,101.851 118.554,103.723C119.571,105.584 121.493,105.033 123.164,104.554C123.261,104.526 123.357,104.499 123.452,104.472Z" fill="#000" stroke="" stroke-width="" stroke-miterlimit=""/>
		<path d="M52.931,25.542C50.459,25.542 47.988,25.538 45.517,25.535C39.752,25.527 33.988,25.52 28.227,25.553C23.474,25.584 22.079,27.003 22.031,31.64C21.995,35.155 21.995,38.669 22.031,42.184C22.079,46.828 23.378,48.186 27.9,48.21C31.721,48.233 35.542,48.23 39.361,48.226H39.369C42.676,48.223 45.984,48.221 49.289,48.235C54.205,48.253 54.935,49.442 52.532,53.772C43.432,70.203 33.957,86.411 23.299,101.9C22.466,103.114 22.019,104.357 22.025,105.819C22.035,107.692 22.03,109.564 22.025,111.437C22.017,114.184 22.01,116.931 22.049,119.677C22.104,123.319 23.372,124.744 26.898,124.762C43.571,124.822 60.237,124.822 76.91,124.768C80.237,124.756 81.457,123.482 81.541,120.167C81.638,116.054 81.62,111.93 81.566,107.818C81.511,103.609 80.4,102.504 76.119,102.467C72.956,102.44 69.793,102.443 66.63,102.446H66.627C63.463,102.449 60.301,102.452 57.139,102.425C52.278,102.383 51.771,101.489 54.054,97.123C64.621,76.918 74.748,56.501 83.969,35.644C86.837,29.146 84.512,25.59 77.339,25.548C71.788,25.514 66.241,25.524 60.694,25.533C58.106,25.537 55.519,25.542 52.931,25.542Z" fill="#000" stroke="" stroke-width="" stroke-miterlimit=""/>
		<path d="M161.058,75.076C161.058,79.294 161.056,83.512 161.054,87.73C161.049,98.27 161.044,108.811 161.07,119.351C161.082,123.415 162.211,124.762 165.829,124.78C181.287,124.84 196.746,124.834 212.211,124.774C215.532,124.762 216.939,123.252 217.03,119.925C217.103,117.267 217.09,114.602 217.076,111.938C217.072,111.086 217.068,110.233 217.066,109.382C217.054,103.391 216.118,102.473 210.013,102.455C208.176,102.45 206.339,102.454 204.502,102.459C200.316,102.469 196.129,102.48 191.946,102.371C187.676,102.262 186.04,100.444 185.883,96.157C185.847,95.256 185.851,94.351 185.856,93.448C185.857,93.147 185.859,92.846 185.859,92.546C185.859,88.503 185.859,84.461 185.859,80.418C185.86,64.183 185.861,47.947 185.847,31.707C185.841,26.973 184.494,25.62 179.754,25.548C175.641,25.487 171.523,25.505 167.405,25.535C162.278,25.578 161.07,26.791 161.058,32.015C161.043,43.972 161.049,55.929 161.055,67.885L161.058,75.076Z" fill="#000" stroke="" stroke-width="" stroke-miterlimit=""/>
	</svg>
