<?xml version="1.0" encoding="utf-8"?>
	<svg version="1.1" xmlns="http://www.w3.org/2000/svg" xmlns:xlink="http://www.w3.org/1999/xlink" x="0px" y="0px" width="240.0" height="240.0" xml:space="preserve">
		<path d="M180.493,203.087C172.598,203.087 164.704,202.963 156.81,203.133C152.891,203.223 150.184,201.955 147.806,198.67C139.764,187.559 131.304,176.743 123.24,165.655C120.771,162.257 119.378,162.065 116.829,165.61C108.946,176.607 100.644,187.299 92.773,198.319C90.179,201.955 87.155,203.291 82.806,203.235C67.018,203.065 51.229,203.178 35.429,203.11C33.651,203.099 31.227,203.937 30.333,201.853C29.494,199.916 31.522,198.466 32.586,197.017C50.312,172.96 68.026,148.881 85.921,124.949C88.469,121.54 88.696,119.184 86.045,115.651C68.207,91.9 50.572,68.002 32.949,44.093C31.703,42.394 29.042,40.661 30.355,38.362C31.59,36.21 34.501,37.252 36.664,37.252C52.079,37.184 67.493,37.32 82.908,37.139C87.268,37.094 90.27,38.419 92.863,42.054C100.712,53.075 109.003,63.789 116.863,74.798C119.446,78.411 120.85,78.026 123.251,74.696C131.27,63.563 139.606,52.667 147.659,41.556C149.867,38.509 152.461,37.184 156.198,37.207C172.553,37.309 188.908,37.23 205.263,37.275C206.871,37.275 209.011,36.652 209.816,38.543C210.574,40.321 208.808,41.624 207.845,42.926C190.165,66.79 172.564,90.711 154.635,114.394C151.272,118.833 151.509,121.835 154.749,126.15C172.462,149.742 189.916,173.538 207.381,197.322C208.389,198.693 210.756,200.029 209.464,202.057C208.355,203.801 205.999,203.019 204.187,203.031C196.281,203.121 188.387,203.087 180.493,203.087Z" fill="#000" stroke="" stroke-width="" stroke-miterlimit=""/>
	</svg>
