<?xml version="1.0" encoding="utf-8"?>
	<svg version="1.1" xmlns="http://www.w3.org/2000/svg" xmlns:xlink="http://www.w3.org/1999/xlink" x="0px" y="0px" width="240.0" height="240.0" xml:space="preserve">
		<path d="M164.286,26C194.286,26 220,53.143 220,83.143C220,113.143 195.714,138.857 164.286,138.857L164.286,138.857L161.429,138.857L120,166L120,170.286C120,194.571 101.429,213.143 77.143,213.143C52.857,213.143 32.857,193.143 32.857,168.857C32.857,164.571 34.286,158.857 35.714,154.571L35.714,154.571L20,140.286L20,87.429C21.131,87.429 22.262,88.324 22.684,88.697L22.793,88.796C22.835,88.835 22.857,88.857 22.857,88.857L22.857,88.857L61.429,128.857C65.714,127.429 70,126 75.714,126L75.714,126L76.611,126.001C80.408,126.007 83.061,126.102 85.714,127.429L85.714,127.429L108.571,94.571C107.143,90.286 107.143,86 107.143,81.714C107.143,51.714 132.857,26 164.286,26ZM75.714,138.857L72.857,138.857L87.143,153.143C94.286,161.714 94.286,173.143 87.143,180.286C78.571,187.429 67.143,187.429 60,180.286L60,180.286L45.714,166L45.714,168.857C45.714,186 60,198.857 75.714,198.857C92.857,198.857 105.714,187.429 105.714,170.286C105.714,153.143 92.857,140.286 75.714,138.857L75.714,138.857ZM164.286,40.286C140,40.286 122.857,60.286 122.857,83.143C122.857,106 141.429,124.571 164.286,124.571C187.143,124.571 205.714,104.571 205.714,81.714C205.714,58.857 188.571,40.286 164.286,40.286ZM148.571,54.496C158.295,48.882 170.276,48.882 180,54.496C189.724,60.111 195.714,70.486 195.714,81.714C195.714,92.943 189.724,103.318 180,108.932C170.276,114.546 158.295,114.546 148.571,108.932C138.847,103.318 132.857,92.943 132.857,81.714C132.857,70.486 138.847,60.111 148.571,54.496Z" fill="#000" stroke="#00000000" stroke-width="1.0" stroke-miterlimit=""/>
	</svg>
