<?xml version="1.0" encoding="utf-8"?>
	<svg version="1.1" xmlns="http://www.w3.org/2000/svg" xmlns:xlink="http://www.w3.org/1999/xlink" x="0px" y="0px" width="240.0" height="240.0" xml:space="preserve">
		<path d="M30,30h180v180h-180z" fill="#000" stroke="#00000000" stroke-width="1.0" stroke-miterlimit=""/>
		<path d="M209.965,167.795C209.965,181.383 209.945,194.973 210,208.561C210.004,209.765 209.762,210.001 208.559,210C149.039,209.962 89.52,209.967 30,209.967L30,167.795C31.358,170.519 33.547,172.354 36.214,173.727C45.052,178.275 54.659,179.922 64.362,179.994C98.805,180.252 133.251,180.108 167.696,180.078C171.49,180.074 175.278,180.147 179.087,179.81C186.221,179.178 193.24,178.094 199.928,175.492C203.973,173.919 207.912,172.041 209.965,167.795" fill="#000" stroke="#00000000" stroke-width="1.0" stroke-miterlimit=""/>
		<path d="M209.965,167.795C207.912,172.041 203.973,173.919 199.928,175.492C193.24,178.094 186.221,179.178 179.087,179.81C175.278,180.147 171.49,180.074 167.696,180.078C133.251,180.108 98.805,180.252 64.362,179.994C54.659,179.922 45.052,178.275 36.214,173.727C33.547,172.354 31.358,170.519 30,167.795L30,161.117C32.262,157.693 35.525,155.606 39.271,154.15C48.298,150.643 57.772,149.416 67.333,149.296C85.13,149.073 102.932,149.235 120.732,149.236C120.85,152.86 120.647,156.457 120.079,160.045C119.514,163.612 119.574,163.554 123.136,163.611C124.546,163.633 124.92,163.174 124.907,161.811C124.866,157.604 124.48,153.42 124.203,149.229C138.613,149.23 153.022,149.254 167.431,149.22C173.175,149.206 178.9,149.418 184.591,150.221C191.103,151.14 197.497,152.502 203.415,155.524C206.225,156.959 208.674,158.794 209.965,161.821L209.965,167.795Z" fill="#000" stroke="#00000000" stroke-width="1.0" stroke-miterlimit=""/>
		<path d="M120.732,149.236C121.001,145.303 120.784,141.417 119.181,137.759C118.096,135.283 116.148,134.359 113.331,134.591C107.391,135.08 101.535,134.616 95.797,132.929C89.029,130.938 84.236,126.504 80.624,120.63C78.387,116.995 76.253,113.295 73.962,109.695C72.095,106.761 69.785,104.203 66.798,102.334C66.107,101.901 65.434,101.419 64.595,101.297C64.065,100.763 64.45,100.667 64.923,100.598C66.482,100.372 68.036,100.091 69.602,99.921C78.292,98.978 86.9,99.283 95.36,101.703C95.584,101.767 95.821,101.784 96.051,101.824C101.017,103.57 105.718,105.753 109.788,109.22C114.18,112.962 116.664,117.66 117.536,123.291C117.661,124.099 117.821,124.909 117.857,125.722C118.015,129.319 118.066,132.873 120.797,135.796C121.737,136.803 122.041,138.403 122.668,139.804C123.45,137.272 124.504,134.888 124.911,132.269C125.391,129.179 126.64,126.347 128.285,123.675C131.312,118.761 135.915,116.722 141.431,116.073C145.956,115.54 150.423,116.127 154.9,116.467C160.63,116.903 165.641,115.073 170.366,112.063C170.957,111.686 171.481,110.959 172.372,111.233L172.344,111.211C172.012,115.131 170.521,118.696 168.761,122.124C165.081,129.292 159.992,135.146 152.284,138.133C145.693,140.687 139.048,140.692 132.513,137.724C131.505,137.267 130.48,136.819 129.421,136.506C127.152,135.834 126.1,136.285 125.369,138.537C124.244,142 123.629,145.561 124.203,149.229C124.48,153.42 124.866,157.604 124.906,161.811C124.919,163.174 124.546,163.633 123.136,163.611C119.574,163.554 119.514,163.612 120.079,160.045C120.647,156.457 120.85,152.86 120.732,149.236" fill="#000" stroke="#00000000" stroke-width="1.0" stroke-miterlimit=""/>
	</svg>
