<?xml version="1.0" encoding="utf-8"?>
	<svg version="1.1" xmlns="http://www.w3.org/2000/svg" xmlns:xlink="http://www.w3.org/1999/xlink" x="0px" y="0px" width="240.0" height="240.0" xml:space="preserve">
		<path d="M112.847,38.767C112.847,36.134 114.982,34 117.614,34L122.381,34C125.014,34 127.148,36.134 127.148,38.767L127.148,201.667C127.148,204.3 125.014,206.434 122.381,206.434L117.614,206.434C114.982,206.434 112.847,204.3 112.847,201.667L112.847,38.767ZM159.276,65.294C159.276,62.661 161.41,60.527 164.043,60.527L168.809,60.527C171.442,60.527 173.576,62.661 173.576,65.294L173.576,168.504C173.576,171.137 171.442,173.271 168.809,173.271L164.043,173.271C161.41,173.271 159.276,171.137 159.276,168.504L159.276,65.294ZM205.7,108.405C205.7,105.772 207.834,103.638 210.466,103.638L215.233,103.638C217.866,103.638 220,105.772 220,108.405L220,145.295C220,147.928 217.866,150.062 215.233,150.062L210.466,150.062C207.834,150.062 205.7,147.928 205.7,145.295L205.7,108.4L205.7,108.405ZM66.424,65.294C66.424,62.661 68.558,60.527 71.191,60.527L75.957,60.527C78.59,60.527 80.724,62.661 80.724,65.294L80.724,168.504C80.724,171.137 78.59,173.271 75.957,173.271L71.191,173.271C68.558,173.271 66.424,171.137 66.424,168.504L66.424,65.294ZM20,108.41C20,105.777 22.134,103.643 24.767,103.643L29.534,103.643C32.166,103.643 34.3,105.777 34.3,108.41L34.3,141.982C34.3,144.615 32.166,146.749 29.534,146.749L24.767,146.749C22.134,146.749 20,144.615 20,141.982L20,108.41Z" fill="#000" stroke="#000" stroke-width="8.0" stroke-miterlimit=""/>
	</svg>
