<?xml version="1.0" encoding="utf-8"?>
	<svg version="1.1" xmlns="http://www.w3.org/2000/svg" xmlns:xlink="http://www.w3.org/1999/xlink" x="0px" y="0px" width="240.0" height="240.0" xml:space="preserve">
		<path d="M60,70L180,70A20,20 0,0 1,200 90L200,150A20,20 0,0 1,180 170L60,170A20,20 0,0 1,40 150L40,90A20,20 0,0 1,60 70z" fill="#000" stroke="#00000000" stroke-width="1.0" stroke-miterlimit=""/>
		<path d="M60,51L180,51A20,20 0,0 1,200 71L200,131A20,20 0,0 1,180 151L60,151A20,20 0,0 1,40 131L40,71A20,20 0,0 1,60 51z" fill="#000" stroke="#00000000" stroke-width="1.0" stroke-miterlimit=""/>
		<path d="M60,31L180,31A20,20 0,0 1,200 51L200,160A20,20 0,0 1,180 180L60,180A20,20 0,0 1,40 160L40,51A20,20 0,0 1,60 31z" fill="#000" stroke="#00000000" stroke-width="1.0" stroke-miterlimit=""/>
		<path d="M220,120L220,200C220,211.046 211.046,220 200,220L40,220C28.954,220 20,211.046 20,200L20,120L100,120L100,120C100,131.046 108.954,140 120,140C131.046,140 140,131.046 140,120L220,120Z" fill="#000" stroke="#00000000" stroke-width="1.0" stroke-miterlimit=""/>
	</svg>
