<?xml version="1.0" encoding="utf-8"?>
	<svg version="1.1" xmlns="http://www.w3.org/2000/svg" xmlns:xlink="http://www.w3.org/1999/xlink" x="0px" y="0px" width="240.0" height="240.0" xml:space="preserve">
		<path d="M190.668,130.034C192.38,130.206 193.976,130.165 195.463,130.553C200.9,131.975 203.928,135.769 204.857,141.121C207.091,153.966 199.397,166.172 186.647,170.155C184.105,170.949 181.474,171.467 178.868,172.038C177.927,172.245 177.25,172.587 176.679,173.435C171.435,181.221 165.544,188.482 158.769,194.999C147.864,205.492 135.473,213.512 120.746,217.557C114.978,219.14 109.108,220.051 103.104,220C97.954,219.959 93.063,218.617 88.23,217.041C78.313,213.806 69.685,208.468 62.493,200.886C55.627,193.646 50.818,185.153 47.446,175.814C44.45,167.508 42.594,158.937 41.931,150.144C41.555,145.163 41.594,140.151 41.424,135.155C41.406,134.636 41.337,134.083 41.137,133.611C38.426,127.144 36.903,120.411 36.384,113.418C36.113,109.769 35.54,106.142 35.242,102.492C34.7,95.91 35.093,89.358 36.178,82.85C38.04,71.701 42.174,61.497 49.004,52.443C55.769,43.47 64.342,36.63 74.133,31.243C83.77,25.939 93.974,22.179 104.806,20.202C106.135,19.959 107.541,19.959 108.892,20.076C110.053,20.174 110.422,20.957 109.991,22.069C109.688,22.847 109.259,23.576 108.874,24.324C108.121,25.788 108.39,26.249 110.023,26.249C120.562,26.258 130.89,27.639 140.885,31.08C158.359,37.098 171.293,48.419 179.907,64.713C185.284,74.883 188.37,85.773 190.026,97.119C191.389,106.461 191.655,115.832 191.086,125.24C190.989,126.836 190.81,128.428 190.668,130.034ZM47.517,136.306C47.503,136.623 47.464,136.928 47.48,137.228C47.698,141.922 47.721,146.634 48.189,151.302C49.281,162.178 51.968,172.642 56.994,182.421C63.376,194.837 72.791,204.045 85.699,209.553C94.726,213.405 103.969,214.942 113.774,212.937C126.061,210.425 136.923,205.082 146.721,197.406C156.964,189.379 165.264,179.588 172.426,168.792C173.275,167.512 174.314,166.769 175.778,166.466C178.246,165.957 180.719,165.466 183.162,164.849C191.375,162.775 196.722,157.822 198.537,149.373C199.161,146.462 199.473,143.555 198.447,140.669C197.277,137.38 194.538,135.79 191.141,136.474C189.223,136.859 187.601,137.866 186.165,139.171C183.887,141.241 182.32,143.796 181.088,146.583C180.345,148.265 179.076,149.038 177.611,148.735C176.025,148.41 175.204,147.237 175.128,145.365C174.881,139.181 174.759,132.987 174.3,126.816C173.539,116.577 171.754,106.506 168.538,96.729C164.846,85.502 159.437,75.294 150.605,67.189C146.758,63.658 142.612,60.499 137.662,58.68C127.222,54.844 116.442,53.603 105.41,55.067C98.415,55.994 91.861,58.251 86.238,62.635C84.054,64.337 82.123,66.383 80.196,68.386C78.42,70.231 75.934,69.916 74.901,67.583C74.777,67.303 74.665,67.019 74.527,66.746C73.662,65.016 72.493,64.33 70.607,64.764C69.21,65.085 67.774,65.523 66.542,66.232C58.625,70.79 52.525,77.175 48.345,85.27C43.126,95.378 41.445,106.158 42.964,117.415C43.296,119.888 43.913,122.322 44.436,124.953C45.287,124.054 45.9,123.322 46.599,122.686C50.1,119.5 54.324,117.672 58.792,116.352C63.472,114.971 68.219,114.033 73.137,114.616C78.478,115.247 81.453,120.298 79.407,125.256C78.283,127.979 76.278,129.995 73.844,131.486C65.741,136.448 57.127,138.827 47.517,136.306ZM57.352,121.748C55.59,122.666 53.874,123.476 52.241,124.432C50.515,125.444 48.972,126.694 48.065,128.557C47.478,129.766 47.666,130.651 48.855,131.245C49.827,131.732 50.905,132.158 51.972,132.271C59.258,133.044 65.886,131.119 71.841,126.965C73.073,126.104 74.114,124.795 74.876,123.478C75.934,121.649 74.832,119.755 72.727,119.42C69.384,118.89 66.143,119.539 62.892,120.22C63.429,122.579 62.857,123.989 61.243,124.45C59.582,124.928 58.185,124.04 57.352,121.748Z" fill="#000" stroke="" stroke-width="" stroke-miterlimit=""/>
		<path d="M149.49,153.312C149.438,162.61 148.256,171.504 144.625,179.928C138.83,193.366 128.559,201.418 114.46,204.797C105.915,206.846 97.358,207.059 88.836,204.719C78.193,201.799 70.164,195.36 64.337,186.108C59.483,178.4 56.616,169.953 55.416,160.935C55.129,158.779 56.373,157.625 58.52,157.85C63.599,158.384 68.678,158.148 73.738,157.632C94.077,155.558 113.15,149.169 131.544,140.527C135.724,138.563 139.807,136.396 143.927,134.308C145.726,133.397 147.325,134.111 147.745,136.093C148.97,141.837 149.412,147.659 149.49,153.312ZM78.983,194.731C81.678,196.619 84.337,198.016 87.193,199.009C97.17,202.485 107.156,202.017 117.091,198.869C125.056,196.346 131.578,191.779 136.327,184.821C138.093,182.231 139.513,179.464 140.633,176.496C140.371,176.326 140.193,176.19 139.995,176.087C135.669,173.796 131.035,172.667 126.162,172.486C120.87,172.288 115.752,173.245 110.758,174.922C102.343,177.748 94.812,182.208 87.789,187.558C84.821,189.819 81.995,192.269 78.983,194.731ZM143.622,140.052C143.122,140.289 142.881,140.394 142.649,140.516C128.695,147.753 114.261,153.794 99.067,157.921C87.941,160.942 76.657,162.968 65.083,163.046C63.649,163.055 62.213,163.048 60.557,163.048C61.229,165.594 61.887,167.978 62.475,170.38C62.681,171.228 63.131,171.446 63.938,171.398C66.946,171.222 69.974,171.24 72.963,170.91C79.657,170.169 86.36,169.437 93.008,168.379C103.907,166.645 114.495,163.676 124.783,159.671C131.298,157.136 137.596,154.145 143.583,150.525C143.985,150.281 144.432,149.657 144.404,149.24C144.216,146.235 143.909,143.239 143.622,140.052Z" fill="#000" stroke="" stroke-width="" stroke-miterlimit=""/>
		<path d="M108.624,123.326C105.922,123.251 103.079,123.01 100.402,121.819C95.002,119.42 93.814,113.659 97.831,109.34C100.09,106.91 102.891,105.291 105.894,104.01C114.238,100.45 122.948,98.514 132.026,98.36C133.577,98.335 135.143,98.585 136.687,98.814C142.163,99.631 143.907,106.061 141.876,109.769C140.702,111.911 139.004,113.519 137.004,114.834C132.06,118.084 126.534,119.956 120.89,121.519C116.938,122.62 112.907,123.251 108.624,123.326ZM115.419,105.625C113.35,106.35 111.304,106.97 109.335,107.786C107.58,108.514 105.828,109.323 104.236,110.349C102.946,111.179 101.744,112.26 100.788,113.457C99.73,114.781 100.155,116.153 101.627,117.025C102.21,117.371 102.857,117.731 103.508,117.818C105.617,118.101 107.757,118.527 109.858,118.419C117.986,117.995 125.609,115.618 132.744,111.769C134.414,110.867 135.958,109.535 137.203,108.094C138.821,106.222 137.66,103.559 135.203,103.435C132.28,103.286 129.339,103.414 126.41,103.549C124.878,103.62 123.357,103.967 121.854,104.187C121.982,106.619 121.154,108.016 119.487,108.392C117.709,108.791 116.412,107.952 115.419,105.625Z" fill="#000" stroke="" stroke-width="" stroke-miterlimit=""/>
		<path d="M95.521,103.79C95.303,103.751 94.816,103.788 94.495,103.577C94.023,103.263 93.506,102.829 93.332,102.331C93.249,102.095 93.835,101.462 94.241,101.239C95.913,100.333 97.088,99.005 98.044,97.381C101.717,91.136 106.096,85.481 112.049,81.221C114.988,79.12 118.174,77.608 121.937,77.89C124.153,78.056 126.077,78.902 127.66,80.467C129.817,82.6 129.289,84.738 126.463,85.812C123.15,87.069 119.808,88.287 116.617,89.813C112.806,91.636 109.496,94.245 106.459,97.19C104.899,98.704 103.318,100.212 101.63,101.576C99.934,102.946 97.943,103.728 95.521,103.79Z" fill="#000" stroke="" stroke-width="" stroke-miterlimit=""/>
		<path d="M73.588,110.721C70.294,110.613 67.784,109.81 65.354,108.784C60.473,106.724 55.431,105.304 50.17,104.673C49.11,104.547 48.225,104.169 47.924,103.045C47.608,101.863 47.975,100.849 48.881,100.053C50.957,98.225 53.377,97.374 56.151,97.569C59.087,97.775 61.716,98.897 64.125,100.482C66.128,101.801 68.048,103.26 69.913,104.77C71.759,106.263 73.785,107.181 76.162,107.291C76.951,107.328 77.632,107.52 77.765,108.422C77.889,109.259 77.348,109.718 76.646,109.927C75.446,110.285 74.226,110.558 73.588,110.721Z" fill="#000" stroke="" stroke-width="" stroke-miterlimit=""/>
	</svg>
