<?xml version="1.0" encoding="utf-8"?>
	<svg version="1.1" xmlns="http://www.w3.org/2000/svg" xmlns:xlink="http://www.w3.org/1999/xlink" x="0px" y="0px" width="240.0" height="240.0" xml:space="preserve">
		<path d="M41.214,141.401L10,141.401L10,97L19.887,97L19.887,132.795L41.214,132.795L41.214,141.401ZM75.913,137.402C69.041,142.319 61.548,143.678 53.587,140.777C45.489,137.828 41.089,129.511 42.549,120.64C43.903,112.411 51.055,106.188 59.779,105.65C68.105,105.32 75.609,110.641 78.059,118.614C78.625,120.521 78.173,121.257 76.413,121.984C70.146,124.57 63.947,127.326 57.727,130.026C56.923,130.372 56.145,130.768 55.056,131.285C59.829,134.581 65.148,134.172 72.196,130.131L78.5,135.593C77.507,136.287 76.702,136.836 75.913,137.402L75.913,137.402ZM57.805,114.56C53.578,116.157 51.549,119.59 52.278,124.312L68.074,117.813C65.909,114.361 61.563,112.984 57.805,114.56L57.805,114.56ZM116.926,140.675L107.328,140.675L107.328,130.406C107.328,127.722 107.343,125.037 107.328,122.353C107.291,117.524 104.615,114.219 100.698,114.136C95.651,114.024 91.761,117.471 91.652,122.365C91.538,127.463 91.62,132.565 91.616,137.665L91.616,140.69L82.041,140.69L82.041,107.206L90.683,107.206L91.071,109.936C94.27,108.097 97.777,106.853 101.42,106.267C109.323,105.234 116.168,110.104 116.809,118.247C117.383,125.608 116.926,133.052 116.926,140.675ZM139.185,141.621C129.09,141.755 120.798,133.671 120.663,123.564L120.663,123.367C120.627,113.27 128.759,105.045 138.846,104.98C148.932,104.915 157.17,113.032 157.265,123.13C157.358,133.228 149.273,141.498 139.187,141.621L139.185,141.621L139.185,141.621ZM139.01,114.106C133.928,114.117 129.808,118.234 129.789,123.322C129.78,125.738 130.732,128.06 132.434,129.775C134.135,131.49 136.448,132.457 138.863,132.465L139.015,132.465C143.991,132.423 148.04,128.438 148.167,123.456C148.141,118.373 144.086,114.232 139.01,114.106L139.01,114.106ZM170.813,141.433L155.654,107.184L166.521,107.184L175.376,128.807L184.097,107.184L194.293,107.184L180.877,141.432L170.814,141.432L170.813,141.433ZM229.999,123.187C230.108,133.291 222.026,141.576 211.933,141.705C201.841,141.834 193.55,133.758 193.402,123.655L193.402,123.332C193.361,113.215 201.522,104.981 211.628,104.94C221.735,104.9 229.959,113.07 230,123.187L229.999,123.187L229.999,123.187ZM211.633,114.111C206.561,114.252 202.515,118.393 202.487,123.472C202.636,128.451 206.686,132.424 211.662,132.471C216.69,132.532 220.814,128.5 220.874,123.467L220.874,123.311C220.833,118.227 216.712,114.124 211.633,114.111Z" fill="#000" stroke="#00000000" stroke-width="1.0" stroke-miterlimit=""/>
	</svg>
