<?xml version="1.0" encoding="utf-8"?>
	<svg version="1.1" xmlns="http://www.w3.org/2000/svg" xmlns:xlink="http://www.w3.org/1999/xlink" x="0px" y="0px" width="240.0" height="240.0" xml:space="preserve">
		<path d="M240.001,122.068C238.789,127.054 237.466,131.931 233.306,135.536C228.081,140.064 222.315,140.999 216.194,137.826C214.233,136.813 213.685,137.445 213.685,139.335C213.691,142.851 213.685,146.359 213.672,149.875C213.653,154.454 213.44,154.661 208.693,154.68C207.835,154.686 206.977,154.68 206.119,154.68C200.985,154.667 200.759,154.448 200.753,149.197C200.74,134.827 200.765,120.456 200.707,106.092C200.695,102.912 200.746,99.7 197.328,97.7C195.728,96.765 197.199,95.933 198.024,95.365C202.81,92.076 209.899,93.895 212.627,99.242C213.446,100.848 213.885,101.319 215.607,100.151C222.238,95.662 230.236,97.326 235.37,103.918C237.956,107.24 238.782,111.194 239.982,115.038C240.001,117.386 240.001,119.727 240.001,122.068ZM213.601,118.689C213.601,120.385 213.595,122.081 213.601,123.784C213.633,129.125 218,131.608 222.734,128.867C223.999,128.138 225.127,127.061 226.069,125.938C230.971,120.127 228.468,109.588 221.722,107.395C217.31,105.956 213.698,108.427 213.608,112.961C213.575,114.864 213.608,116.779 213.601,118.689Z" fill="#000" stroke="" stroke-width="" stroke-miterlimit=""/>
		<path d="M120.346,85C120.959,87.503 122.952,87.457 124.932,87.457C135.968,87.457 147.011,87.451 158.047,87.464C162.42,87.47 162.749,87.793 162.781,91.869C162.82,96.771 162.084,97.649 157.815,97.732C155.776,97.771 153.732,97.855 151.706,97.719C148.926,97.526 147.92,98.655 147.946,101.428C148.049,112.181 147.991,122.933 147.985,133.691C147.985,139.432 147.978,139.451 142.334,139.432C134.33,139.413 135.059,140.161 135.046,132.253C135.026,122.352 135.052,112.451 135.033,102.544C135.02,98.126 134.652,97.778 130.305,97.752C127.951,97.739 125.603,97.707 123.255,97.358C116.941,96.417 114.825,92.185 117.985,86.606C118.301,86.051 118.695,85.542 119.05,85.013C119.488,85 119.92,85 120.346,85Z" fill="#000" stroke="" stroke-width="" stroke-miterlimit=""/>
		<path d="M3.917,85C4.304,87.786 6.51,87.432 8.374,87.438C19.197,87.477 30.02,87.425 40.843,87.49C42.449,87.496 44.758,86.671 45.416,88.715C46.216,91.211 46.229,93.966 45.268,96.533C44.946,97.391 43.946,97.584 43.082,97.642C41.908,97.726 40.727,97.726 39.547,97.739C30.465,97.836 31.639,96.688 31.587,105.821C31.536,115.406 31.587,124.984 31.575,134.569C31.568,139.206 31.349,139.451 26.66,139.426C17.546,139.38 18.7,140.412 18.655,131.382C18.604,121.482 18.578,111.581 18.681,101.68C18.713,98.81 17.694,97.565 14.746,97.726C11.966,97.874 9.186,97.449 6.419,97.384C0.427,97.223 -1.179,92.372 0.808,87.619C1.182,86.735 1.595,85.871 1.988,85C2.627,85 3.272,85 3.917,85Z" fill="#000" stroke="" stroke-width="" stroke-miterlimit=""/>
		<path d="M84.316,127.203C84.316,119.753 84.362,112.31 84.297,104.86C84.271,102.073 84.046,99.422 81.053,97.752C79.208,96.72 80.917,95.83 81.814,95.275C86.839,92.16 93.43,93.927 96.23,99.106C96.823,100.203 97.12,101.918 98.836,100.345C105.776,93.966 116.825,99.061 120.766,106.434C125.068,114.49 125.01,129.202 116.283,136.136C111.336,140.071 105.37,140.986 99.919,137.858C97.533,136.484 97.333,137.884 97.307,139.574C97.242,143.405 97.197,147.237 97.294,151.061C97.358,153.648 96.262,154.622 93.676,154.712C84.329,155.028 84.336,155.086 84.336,145.714C84.336,139.542 84.336,133.369 84.336,127.203C84.323,127.203 84.316,127.203 84.316,127.203ZM111.981,118.031C112.123,115.36 111.452,112.632 109.607,110.246C107.53,107.549 103.847,106.459 100.751,107.466C97.378,108.562 97.081,111.142 97.159,114.09C97.255,117.695 97.139,121.307 97.204,124.913C97.262,128.157 98.578,129.454 101.867,129.705C107.64,130.15 111.968,125.281 111.981,118.031Z" fill="#000" stroke="" stroke-width="" stroke-miterlimit=""/>
		<path d="M76.608,115.728C76.608,120.095 76.602,124.455 76.608,128.822C76.615,131.44 76.886,133.924 79.337,135.614C80.633,136.504 80.13,137.303 79.046,138.084C74.377,141.444 68.333,140.49 64.998,135.82C64.276,134.814 63.921,133.421 62.231,135.13C56.046,141.367 47.228,140.683 41.733,133.691C35.915,126.293 36.076,112.129 42.126,104.937C46.841,99.339 53.265,98.648 59.993,99.113C61.715,99.229 63.102,98.977 64.792,98.281C67.952,96.971 71.545,97.526 74.925,97.984C76.686,98.223 76.582,99.983 76.589,101.364C76.615,106.156 76.595,110.942 76.595,115.734C76.595,115.728 76.602,115.728 76.608,115.728ZM63.134,117.263C63.134,114.722 63.063,112.174 63.153,109.633C63.25,107.008 62.012,106.066 59.47,106.111C54.336,106.195 50.453,108.923 48.88,113.761C47.067,119.327 48.654,126.558 52.272,129.06C54.813,130.815 57.477,130.628 60.18,129.422C62.741,128.28 63.244,126.138 63.153,123.629C63.083,121.507 63.14,119.385 63.134,117.263Z" fill="#000" stroke="" stroke-width="" stroke-miterlimit=""/>
		<path d="M193.07,115.541C193.07,120.011 193.082,124.474 193.063,128.944C193.05,131.486 193.534,133.82 195.682,135.497C197.062,136.575 196.623,137.342 195.372,138.181C190.399,141.502 184.581,140.496 181.492,135.588C180.531,134.059 180.008,133.975 178.699,135.272C172.378,141.535 162.548,140.593 157.846,133.085C152.531,124.597 152.647,115.747 157.291,106.995C159.71,102.428 163.87,99.571 168.888,99.461C175.661,99.313 182.246,97.719 189.006,97.661C192.102,97.636 193.205,98.829 193.102,101.822C192.96,106.388 193.07,110.968 193.07,115.541ZM180.047,117.012C180.053,117.012 180.06,117.012 180.066,117.012C180.066,114.67 180.008,112.335 180.079,110C180.176,107.085 178.718,106.059 175.932,106.111C170.675,106.214 166.792,109.213 165.231,114.567C163.606,120.146 165.476,126.854 169.353,129.344C173.668,132.118 179.711,129.144 180.021,124.029C180.163,121.701 180.047,119.353 180.047,117.012Z" fill="#000" stroke="" stroke-width="" stroke-miterlimit=""/>
	</svg>
