<?xml version="1.0" encoding="utf-8"?>
	<svg version="1.1" xmlns="http://www.w3.org/2000/svg" xmlns:xlink="http://www.w3.org/1999/xlink" x="0px" y="0px" width="240.0" height="240.0" xml:space="preserve">
		<path d="M119.921,209.869C145.745,209.869 171.581,209.908 197.404,209.857C207.896,209.831 209.903,207.735 209.966,197.091C210.005,190.321 210.017,183.538 209.966,176.768C209.916,168.664 209.509,168.245 201.202,168.232C171.771,168.207 142.353,168.232 112.922,168.207C100.271,168.194 98.315,166.2 98.302,153.345C98.277,115.455 98.302,77.564 98.277,39.661C98.264,31.57 97.743,31.062 89.563,31.049C73.902,31.011 58.227,30.999 42.566,31.049C32.391,31.087 30.029,33.336 30.029,43.256C29.99,94.7 29.99,146.143 30.029,197.586C30.041,207.672 32.239,209.831 42.451,209.844C68.275,209.908 94.098,209.869 119.921,209.869ZM141.705,86.176C141.705,101.19 141.617,116.204 141.744,131.205C141.807,138.7 144.22,141.176 151.651,141.24C167.503,141.38 183.368,141.367 199.221,141.24C207.274,141.176 209.89,138.573 209.928,130.494C210.017,101.317 210.017,72.141 209.941,42.964C209.916,33.984 206.994,31.113 198.166,31.062C183.152,30.986 168.138,30.973 153.137,31.062C144.246,31.113 141.794,33.539 141.744,42.392C141.629,57 141.705,71.594 141.705,86.176Z" fill="#000" stroke="" stroke-width="" stroke-miterlimit=""/>
	</svg>
