<?xml version="1.0" encoding="utf-8"?>
	<svg version="1.1" xmlns="http://www.w3.org/2000/svg" xmlns:xlink="http://www.w3.org/1999/xlink" x="0px" y="0px" width="240.0" height="240.0" xml:space="preserve">
		<path d="M209.985,53.901C209.985,98.069 209.985,142.237 209.985,186.409C208.534,191.466 206.551,196.273 202.91,200.185C197.304,206.204 190.655,210.011 182.136,210.004C140.553,209.972 98.966,209.989 57.383,209.986C56.214,209.986 55.045,210.018 53.883,209.782C40.018,206.929 30.003,194.646 30.003,180.454C29.999,140.269 29.999,100.091 30.003,59.912C30.003,47.604 37.377,36.73 48.794,32.078C51.143,31.116 53.622,30.69 56.038,30C98.801,30 141.564,30 184.327,30C184.777,30.123 185.221,30.275 185.675,30.366C193.595,31.951 199.977,35.941 204.784,42.463C207.33,45.918 208.745,49.862 209.985,53.901ZM201.896,120.319C202.273,76.626 166.792,38.477 120.089,38.54C73.917,38.603 39.293,75.841 38.405,118.579C37.472,163.684 73.516,202.009 119.927,202.122C166.641,202.238 202.283,164.103 201.896,120.319Z" fill="#000" stroke="" stroke-width="" stroke-miterlimit=""/>
		<path d="M196.34,120.424C196.622,161.655 162.67,196.671 120.002,196.579C77.486,196.488 43.682,161.405 43.971,119.878C44.259,77.999 78.419,43.875 120.717,44.093C162.941,44.308 196.696,79.155 196.34,120.424ZM114.35,186.775C115.745,186.951 115.748,186.965 116.963,186.613C125.475,184.134 132.289,179.179 137.652,172.206C150.527,155.464 149.781,133.239 140.709,116.632C137.085,109.997 131.68,104.855 126.014,100.006C118.093,93.227 109.103,88.05 100.07,82.954C96.957,81.201 93.805,79.521 90.977,77.306C89.938,76.492 89.801,75.936 91.231,75.436C93.055,74.798 94.851,74.084 96.64,73.354C104.039,70.333 111.681,69.537 119.551,70.801C127.468,72.069 134.279,75.316 139.297,81.81C141.252,84.342 142.234,86.997 140.79,90.121C140.699,90.322 140.653,90.575 141.044,90.737C142.65,89.769 144.072,88.469 145.537,87.23C151.133,82.5 154.782,76.415 157.74,69.833C158.525,68.086 158.557,68.005 156.606,67.558C152.496,66.618 148.425,65.565 144.372,64.374C131.567,60.62 118.608,59.434 105.571,63.1C97.552,65.353 89.871,68.326 84.451,75.203C79.694,81.243 75.968,87.814 73.785,95.227C73.408,96.509 73.679,97.217 74.954,97.625C76.57,98.14 78.134,98.84 79.771,99.27C89.392,101.788 98.545,105.422 107.268,110.236C116.72,115.452 124.672,122.337 130.859,131.13C138.438,141.903 139.244,153.066 132.05,164.473C128.602,169.938 124.661,175.02 120.414,179.876C118.435,182.137 116.442,184.394 114.35,186.775Z" fill="#000" stroke="" stroke-width="" stroke-miterlimit=""/>
	</svg>
