<?xml version="1.0" encoding="utf-8"?>
	<svg version="1.1" xmlns="http://www.w3.org/2000/svg" xmlns:xlink="http://www.w3.org/1999/xlink" x="0px" y="0px" width="240.0" height="240.0" xml:space="preserve">
		<path d="M20.018,137.626C20.018,127.657 19.972,117.687 20.027,107.718C20.199,75.91 46.964,49.291 78.835,49.118C84.897,49.082 90.923,49.236 96.757,51.127C97.575,51.39 98.784,51.89 98.929,52.49C99.247,53.844 97.775,53.953 96.884,54.38C72.101,66.249 60.205,86.034 60.396,113.389C60.523,132.119 60.423,150.849 60.414,169.571C60.405,181.485 52.026,190.201 40.529,190.264C28.515,190.346 20.09,181.958 20.036,169.798C19.99,159.074 20.027,148.35 20.018,137.626Z" fill="#000" stroke="" stroke-width="" stroke-miterlimit=""/>
		<path d="M99.992,135.691C100.61,125.176 98.683,112.116 100.919,99.229C105.318,73.847 124.875,54.198 150.14,49.882C158.51,48.455 167.007,48.736 175.314,50.972C176.404,51.263 178.031,51.181 178.076,52.735C178.113,53.953 176.677,54.153 175.759,54.598C151.63,66.494 140.007,86.016 140.116,112.789C140.197,131.674 140.143,150.559 140.116,169.443C140.097,181.612 131.609,190.219 119.795,190.146C108.199,190.073 99.992,181.485 99.983,169.407C99.983,164.118 99.983,158.829 99.983,153.539C99.992,148.414 99.992,143.279 99.992,135.691Z" fill="#000" stroke="" stroke-width="" stroke-miterlimit=""/>
		<path d="M219.973,137.699C219.973,148.723 220.037,159.737 219.955,170.761C219.873,181.885 211.167,190.201 199.807,190.173C188.729,190.146 179.877,181.812 179.832,171.016C179.741,148.977 179.714,126.93 179.868,104.891C179.923,96.503 183.812,89.96 191.483,86.397C198.762,83.016 205.996,83.816 212.358,88.887C217.338,92.859 219.946,98.193 219.964,104.637C220.001,115.661 219.973,126.675 219.973,137.699Z" fill="#000" stroke="" stroke-width="" stroke-miterlimit=""/>
	</svg>
