<?xml version="1.0" encoding="utf-8"?>
	<svg version="1.1" xmlns="http://www.w3.org/2000/svg" xmlns:xlink="http://www.w3.org/1999/xlink" x="0px" y="0px" width="240.0" height="240.0" xml:space="preserve">
		<path d="M173.818,94.175L190.898,63.022C191.758,61.411 191.221,59.263 189.609,58.403C187.891,57.544 185.85,58.081 184.99,59.8L167.803,91.274C153.301,84.829 137.08,81.177 120,81.284C102.92,81.284 86.699,84.829 72.305,91.274L55.117,59.907C54.258,58.296 52.109,57.651 50.498,58.511C48.887,59.37 48.242,61.518 49.102,63.13L66.182,94.282C32.666,111.577 10,144.448 10,182.261L230,182.261C229.893,144.341 207.334,111.47 173.818,94.175M69.834,142.3C64.785,142.3 60.596,138.218 60.596,133.061C60.596,128.012 64.678,123.823 69.834,123.823C74.883,123.823 79.072,128.012 79.072,133.061C79.072,138.11 74.99,142.3 69.834,142.3M170.059,142.3C165.01,142.3 160.82,138.218 160.82,133.061C160.82,128.012 164.902,123.823 170.059,123.823C175.107,123.823 179.297,128.012 179.297,133.061C179.297,138.11 175.107,142.3 170.059,142.3" fill="#000" stroke="#00000000" stroke-width="1.0" stroke-miterlimit=""/>
	</svg>
