<?xml version="1.0" encoding="utf-8"?>
	<svg version="1.1" xmlns="http://www.w3.org/2000/svg" xmlns:xlink="http://www.w3.org/1999/xlink" x="0px" y="0px" width="240.0" height="240.0" xml:space="preserve">
		<path d="M219.998,81.358V168.674C220.02,169.568 219.855,170.457 219.514,171.283C219.172,172.11 218.662,172.856 218.015,173.474C217.379,174.101 216.623,174.593 215.793,174.923C214.962,175.252 214.074,175.411 213.181,175.39H141.957V117.399L155.29,127.641C156.183,128.359 157.304,128.732 158.449,128.691C159.618,128.716 160.761,128.343 161.69,127.632L219.998,81.358ZM141.957,64.516H213.181C214.94,64.516 216.456,65.041 217.706,66.116C218.956,67.183 219.656,68.616 219.773,70.366L158.365,119.332L141.957,106.424V64.516V64.516ZM131.699,27V212.59L20,193.29V46.833L131.716,27H131.699ZM97.958,120.166C97.791,110.724 95.349,102.899 90.633,96.716C86.008,90.549 80.008,87.291 72.874,87.016C66.008,87.291 60.133,90.541 55.375,96.716C50.625,102.899 48.25,110.733 48.125,120.166C48.25,129.474 50.75,137.224 55.5,143.424C60.258,149.59 66.116,152.865 73.008,153.224C80.133,152.932 86.124,149.69 90.883,143.474C95.633,137.241 98.133,129.474 98.258,120.166H97.958V120.166ZM71.958,99.483C75.549,99.649 78.574,101.616 80.983,105.458C83.358,109.299 84.608,114.166 84.608,120.057C84.608,126.066 83.366,130.949 80.983,134.816C78.474,138.682 75.483,140.682 71.85,140.682C68.216,140.682 65.225,138.799 62.725,134.932C60.225,131.066 59.1,126.182 59.1,120.316C59.1,114.441 60.225,109.558 62.725,105.816C65.091,102.066 68.108,100.066 71.733,99.808L71.958,99.483V99.483Z" fill="#000" stroke="" stroke-width="" stroke-miterlimit=""/>
	</svg>
