<?xml version="1.0" encoding="utf-8"?>
	<svg version="1.1" xmlns="http://www.w3.org/2000/svg" xmlns:xlink="http://www.w3.org/1999/xlink" x="0px" y="0px" width="240.0" height="240.0" xml:space="preserve">
		<path d="M46.119,35.33C51.66,33.817 57.595,33.502 63.194,34.895C65.579,35.488 67.941,36.211 70.191,37.211C71.976,38.014 73.613,39.099 75.299,40.086C76.475,40.712 77.411,41.683 78.469,42.477C79.536,43.242 80.479,44.161 81.426,45.066C81.885,45.498 82.178,46.095 82.701,46.459C83.174,46.734 83.704,46.481 84.174,46.335C85.674,45.773 87.085,44.993 88.619,44.522C90.853,43.742 93.198,43.378 95.476,42.761C100.447,41.488 105.56,40.845 110.675,40.565C113.785,40.459 116.892,40.417 120.002,40.328C123.62,40.443 127.243,40.443 130.858,40.649C135.401,40.996 139.937,41.583 144.354,42.719C146.747,43.367 149.211,43.748 151.554,44.578C153.304,45.115 154.877,46.131 156.658,46.574C157.434,46.698 157.831,45.9 158.266,45.412C159.936,43.588 161.968,42.162 163.869,40.598C165.828,39.434 167.738,38.165 169.814,37.211C173.711,35.554 177.855,34.376 182.092,34.075C185.634,33.824 189.206,34.223 192.664,35.006C195.224,35.61 197.608,36.768 199.986,37.861C203.3,39.937 206.681,42.009 209.411,44.848C212.867,48.393 215.546,52.659 217.428,57.23C220.557,64.415 220.642,72.622 218.701,80.133C217.698,83.733 216.001,87.109 213.936,90.215C211.982,93.274 209.551,96.022 206.704,98.282C205.493,99.438 204.06,100.301 202.703,101.262C203.169,102.963 203.858,104.598 204.287,106.31C205.048,109.11 205.91,111.882 206.5,114.724C207.379,118.823 207.955,122.982 208.441,127.148C208.807,130.169 208.956,133.215 209.357,136.236C209.685,138.818 209.712,141.428 209.541,144.024C209.486,147.06 209.451,150.097 209.309,153.132C208.732,163.841 204.173,174.125 197.306,182.281C190.807,190.029 181.79,195.286 172.338,198.618C167.207,200.452 161.866,201.597 156.538,202.684C152.021,203.582 147.47,204.314 142.889,204.8C140.099,205.108 137.291,205.222 134.491,205.413C131.146,205.67 127.788,205.612 124.436,205.739C117.564,205.701 110.681,205.816 103.82,205.306C93.481,204.807 83.255,202.908 73.245,200.353C65.046,198.141 57.138,194.621 50.326,189.517C41.238,182.59 34.708,172.444 31.917,161.381C31.024,157.732 30.622,153.975 30.6,150.221C30.265,140.808 30.895,131.374 32.217,122.05C32.625,119.233 33.104,116.427 33.738,113.652C34.308,111.181 35.052,108.757 35.717,106.312C36.145,104.597 36.835,102.963 37.301,101.261C36.491,100.707 35.697,100.132 34.872,99.602C32.656,97.765 30.405,95.933 28.59,93.679C25.416,89.695 22.767,85.21 21.345,80.295C20.052,75.26 19.595,69.958 20.4,64.805C20.924,61.307 22.137,57.951 23.681,54.783C25.416,51.181 27.712,47.845 30.48,44.961C33.232,42.069 36.657,39.964 40.016,37.861C42.01,36.927 44.02,36.002 46.118,35.33M121.158,76.391C120.552,76.679 119.862,76.482 119.248,76.724C118.6,76.926 117.883,76.664 117.251,76.946C116.664,77.139 116.018,76.917 115.432,77.11C114.534,77.454 113.523,77.03 112.635,77.442C111.089,77.449 109.616,77.937 108.073,77.944C107.212,78.27 106.263,78.028 105.409,78.403C104.752,80.475 104.24,82.589 103.721,84.701C103.224,87.485 102.05,90.122 101.773,92.952C101.423,94.416 100.952,95.871 100.888,97.387C100.387,99.747 99.735,102.074 99.284,104.443C98.976,105.592 98.98,106.796 98.51,107.901C98.448,109.744 97.685,111.488 97.516,113.322C97.097,114.327 97.281,115.436 96.851,116.43C96.443,118.085 96.252,119.782 95.873,121.445C95.487,123.491 95.034,125.529 94.932,127.601C95.879,127.625 96.829,127.559 97.774,127.63C98.88,128.025 100.094,127.692 101.229,127.969C102.019,128.164 102.871,127.885 103.634,128.24C104.71,128.335 105.795,128.2 106.87,128.297C107.223,128.42 107.585,128.506 107.962,128.515C108.206,127.484 108.614,126.492 108.736,125.434C109.191,123.515 109.728,121.618 110.384,119.757C110.974,118.029 111.194,116.202 111.766,114.474C111.811,114.085 111.766,113.684 111.93,113.32C112.722,111.018 113.503,108.7 114.027,106.322C114.461,104.578 115.147,102.892 115.484,101.125C116.389,98.25 116.917,95.244 118.152,92.48C118.78,91.007 119.379,89.517 119.867,87.991C120.406,87.006 120.439,85.848 120.965,84.861C121.214,84.461 121.029,83.974 121.178,83.55C121.391,83.088 121.666,82.651 121.806,82.159C122.482,80.116 123.412,78.168 124.035,76.106C123.097,76.401 122.127,76.356 121.158,76.392M167.607,104.229C165.914,104.502 164.202,104.662 162.543,105.159C161.3,105.236 160.123,105.731 158.867,105.673C158.372,105.877 157.84,105.882 157.317,105.866C156.736,108.218 155.955,110.511 155.407,112.871C155.056,113.816 154.841,114.801 154.522,115.757C153.615,117.72 153.293,119.892 152.414,121.864C152.064,122.911 151.736,123.967 151.319,124.985C151.166,126.027 150.567,126.906 150.234,127.886C149.609,129.293 149.376,130.863 148.528,132.172C147.854,133.097 147.539,134.233 146.845,135.147C146.106,136.185 145.478,137.307 144.684,138.303C143.085,139.811 141.687,141.559 139.838,142.777C138.797,143.74 137.114,144.254 135.816,143.507C134.68,143.052 134.21,141.779 133.982,140.676C134.053,139.05 133.777,137.376 134.183,135.787C134.214,134.579 134.614,133.423 134.851,132.247C135.055,131.131 135.301,130.024 135.51,128.911C135.574,127.485 136.346,126.216 136.501,124.81C136.803,123.942 137.025,123.051 137.169,122.146C138.334,117.987 139.563,113.841 140.656,109.659C141.424,107.685 141.769,105.578 142.628,103.642C142.273,103.644 141.918,103.626 141.568,103.673C140.718,104.036 139.784,103.775 138.899,103.897C138.198,104.07 137.504,104.271 136.823,104.513C136.005,104.6 135.153,104.393 134.372,104.722C133.241,104.637 132.225,105.281 131.1,105.203C129.918,105.318 128.769,105.74 127.567,105.64C127.425,105.891 127.336,106.166 127.243,106.438C126.056,107.734 125.788,109.546 124.965,111.054C124.474,112.647 123.822,114.18 123.192,115.722C122.746,117.625 122.238,119.521 121.484,121.329C120.124,126.471 118.598,131.628 118.002,136.912C118.017,138.757 117.99,140.603 118.013,142.451C118.361,143.997 118.8,145.53 119.148,147.082C119.834,148.828 120.812,150.518 122.307,151.698C123.316,152.381 124.414,152.965 125.588,153.311C126.469,153.218 127.28,153.71 128.159,153.53C129.193,153.08 130.357,153.557 131.408,153.198C131.836,153.058 132.311,153.167 132.733,152.976C133.757,152.585 134.851,152.361 135.829,151.856C136.952,151.106 138.227,150.62 139.301,149.786C140.872,148.633 142.597,147.65 143.902,146.177C144.536,145.467 145.374,144.993 146.113,144.403C147.411,143.163 148.624,141.836 149.946,140.623C149.977,141.812 149.9,143.005 149.977,144.192C150.232,144.753 150.137,145.37 150.206,145.966C150.425,146.732 150.474,147.548 150.76,148.298C151.255,149.267 151.672,150.292 152.346,151.155C152.994,151.616 153.631,152.095 154.256,152.588C154.911,152.809 155.529,153.127 156.195,153.315C157.439,153.36 158.684,153.322 159.93,153.333C161.964,153.096 163.892,152.281 165.693,151.33C166.232,150.959 166.804,150.649 167.399,150.376C168.393,149.939 169.215,149.211 170.18,148.721C171.496,147.745 172.86,146.829 174.124,145.789C175.302,144.901 176.5,144.036 177.518,142.963C178.599,142.273 179.377,141.23 180.331,140.389C180.339,138.029 180.346,135.671 180.326,133.311C178.825,134.181 177.445,135.332 176.074,136.419C175.318,137.253 174.246,137.683 173.401,138.411C171.618,139.546 169.861,140.795 167.869,141.543C167.308,141.521 166.775,141.933 166.227,141.725C165.558,141.565 164.872,141.379 164.311,140.964C163.707,140.097 163.421,139.087 163.277,138.056C163.696,137.191 163.277,136.19 163.659,135.314C163.943,132.293 165.158,129.494 166.054,126.623C166.478,124.993 166.804,123.332 167.39,121.746C167.572,120.348 168.119,119.039 168.399,117.662C169.542,114.301 170.256,110.821 171.243,107.416C171.503,106.365 171.964,105.367 172.112,104.288C172.124,103.903 172.161,103.516 172.337,103.166C170.733,103.379 169.176,103.838 167.607,104.229M94.668,103.617C92.705,103.708 90.731,103.582 88.768,103.675C88.038,103.872 87.315,104.116 86.551,104.121C85.28,104.495 84.027,104.93 82.863,105.571C82.04,105.594 81.443,106.184 80.744,106.539C79.855,107.022 79.167,107.776 78.333,108.34C77.124,109.101 76.37,110.396 75.154,111.148C74.724,111.882 74.045,112.408 73.473,113.024C73.063,113.519 72.752,114.087 72.453,114.653C71.581,115.595 70.871,116.684 70.312,117.84C69.376,119.151 68.471,120.511 67.801,121.99C67.399,122.871 67.328,123.905 66.712,124.683C66.481,124.958 66.583,125.367 66.397,125.67C65.596,127.19 65.279,128.898 64.809,130.535C64.807,131.273 64.465,131.957 64.547,132.702C64.667,133.356 63.988,133.82 64.099,134.474C64.105,136.251 64.105,138.03 64.099,139.809C64.196,141.677 65.046,143.405 65.281,145.252C65.916,146.388 66.206,147.679 66.845,148.813C67.967,150.13 68.85,151.699 70.314,152.673C71.399,153.116 72.49,153.584 73.657,153.768C75.767,153.775 77.932,153.946 79.937,153.196C80.846,152.859 81.822,152.67 82.647,152.138C83.304,151.679 84.056,151.364 84.664,150.834C85.735,149.813 87.248,149.192 87.885,147.772C87.59,146.978 87.328,146.164 87.179,145.332C87.191,143.775 87.086,142.229 87.175,140.676C85.584,141.501 83.79,141.832 82.064,142.247C80.558,141.989 79.62,140.572 79.032,139.268C78.968,138.496 78.604,137.753 78.768,136.97C79.198,136.02 78.737,134.938 79.154,133.986C79.52,129.872 80.773,125.906 81.982,121.964C82.153,120.888 82.84,120.005 83.248,119.016C83.568,117.951 84.315,117.097 84.735,116.07C85.243,115.387 85.782,114.715 86.143,113.932C86.735,113.328 87.146,112.578 87.78,112.015C89.572,110.13 91.848,108.719 94.311,107.885C95.047,107.927 95.735,107.681 96.458,107.608C96.74,106.212 96.782,104.742 97.372,103.424C96.471,103.473 95.528,103.273 94.668,103.617M94.127,129.162C93.65,129.741 92.978,130.169 92.643,130.854C91.33,133.03 90.212,135.362 89.653,137.855C89.613,138.303 89.58,138.753 89.422,139.184C89.325,140.035 89.453,140.898 89.365,141.752C89.183,142.227 89.061,142.764 89.249,143.26C89.573,144.086 89.207,145.015 89.566,145.84C89.877,147.451 90.469,149.028 91.547,150.292C92.177,151.381 93.357,151.927 94.375,152.59C95.127,152.723 95.837,152.996 96.523,153.324C97.339,153.391 98.195,153.191 98.974,153.526C99.712,153.575 100.489,153.646 101.192,153.362C102.07,153.229 103.004,153.52 103.84,153.14C105.182,152.708 106.697,152.668 107.904,151.867C108.896,151.49 109.963,151.235 110.819,150.583C111.427,150.117 112.159,149.862 112.817,149.482C113.663,148.73 114.699,148.236 115.566,147.513L115.566,145.756C114.257,146.423 113.266,147.624 111.826,148.04C110.655,148.391 109.497,148.939 108.25,148.901C107.718,148.881 107.239,149.181 106.702,149.143C106.697,149.025 106.691,148.793 106.689,148.675C109.776,148.917 112.702,147.368 115.034,145.485C115.337,145.292 115.635,145.035 115.608,144.64C114.763,145.053 114.066,145.712 113.203,146.093C112.287,146.583 111.238,146.736 110.304,147.193C109.124,147.606 107.88,147.746 106.669,148.012C106.019,148.025 105.378,147.872 104.732,148.016C103.931,147.63 102.802,147.116 102.915,146.049C103.368,145.088 103.865,144.026 104.83,143.485C106.09,142.58 106.813,141.18 107.849,140.064C109.246,138.063 109.235,135.53 109.1,133.195C108.803,132.216 108.836,131.116 108.213,130.262C107.609,130.271 106.99,130.315 106.425,130.071C105.495,129.978 104.557,130.105 103.628,130.014C102.024,129.672 100.371,129.863 98.746,129.827C97.228,130.437 96.663,132.13 95.338,133.002C95.842,131.979 96.607,131.101 97.434,130.324C97.707,130.031 98.091,129.783 98.093,129.342C97.206,129.672 96.662,130.479 95.988,131.094C95.167,131.762 95.01,132.882 94.36,133.68C93.362,134.96 93.113,136.613 92.534,138.079C92.397,138.873 92.186,139.654 92.27,140.47C92.159,140.468 91.938,140.468 91.827,140.466C91.718,139.643 92.077,138.884 92.084,138.072C92.594,136.333 93.089,134.585 93.827,132.926C94.24,131.535 95.298,130.488 95.844,129.155C95.269,129.153 94.699,129.15 94.127,129.162L94.127,129.162Z" fill="#000" stroke="#00000000" stroke-width="1.0" stroke-miterlimit=""/>
	</svg>
