<?xml version="1.0" encoding="utf-8"?>
	<svg version="1.1" xmlns="http://www.w3.org/2000/svg" xmlns:xlink="http://www.w3.org/1999/xlink" x="0px" y="0px" width="240.0" height="240.0" xml:space="preserve">
		<path d="M166.667,66.667C163.111,63.111 157.778,63.111 154.222,66.667L104.444,116.444L116.889,128.889L166.667,78.222C170.222,75.556 170.222,70.222 166.667,66.667ZM204,66.667L116,154.667L85.778,123.556C82.222,120 76.889,120 73.333,123.556C69.778,127.111 69.778,132.444 73.333,136L110.667,173.333C114.222,176.889 119.556,176.889 123.111,173.333L217.333,79.111C220.889,75.556 220.889,70.222 217.333,66.667C213.778,63.111 207.556,63.111 204,66.667ZM22.667,136L60,173.333C63.556,176.889 68.889,176.889 72.444,173.333L78.667,167.111L35.111,123.556C31.556,120 26.222,120 22.667,123.556C19.111,127.111 19.111,132.444 22.667,136ZM166.667,66.667C163.111,63.111 157.778,63.111 154.222,66.667L104.444,116.444L116.889,128.889L166.667,78.222C170.222,75.556 170.222,70.222 166.667,66.667ZM204,66.667L116,154.667L85.778,123.556C82.222,120 76.889,120 73.333,123.556C69.778,127.111 69.778,132.444 73.333,136L110.667,173.333C114.222,176.889 119.556,176.889 123.111,173.333L217.333,79.111C220.889,75.556 220.889,70.222 217.333,66.667C213.778,63.111 207.556,63.111 204,66.667ZM22.667,136L60,173.333C63.556,176.889 68.889,176.889 72.444,173.333L78.667,167.111L35.111,123.556C31.556,120 26.222,120 22.667,123.556C19.111,127.111 19.111,132.444 22.667,136Z" fill="#000" stroke="" stroke-width="" stroke-miterlimit=""/>
	</svg>
