<?xml version="1.0" encoding="utf-8"?>
	<svg version="1.1" xmlns="http://www.w3.org/2000/svg" xmlns:xlink="http://www.w3.org/1999/xlink" x="0px" y="0px" width="240.0" height="240.0" xml:space="preserve">
		<path d="M58.143,120.233C58.143,150.161 58.266,180.072 58.055,210C58.002,217.007 60.203,220.052 67.632,219.999C102.824,219.753 138.033,219.806 173.243,219.964C179.528,219.982 182.397,217.781 182.221,211.232C181.94,201.268 181.869,191.268 182.257,181.322C182.538,173.998 179.457,171.445 172.363,171.533C154.758,171.797 137.153,171.639 119.566,171.586C106.574,171.533 106.45,171.392 106.433,158.171C106.415,115.92 106.257,73.686 106.556,31.452C106.609,23.178 104.144,19.551 95.553,20.044C86.786,20.555 77.931,20.537 69.163,20.044C60.678,19.569 57.914,23.002 58.002,31.364C58.354,60.958 58.143,90.604 58.143,120.233ZM133.843,81.573C133.843,99.424 133.967,117.293 133.773,135.144C133.703,141.341 135.833,144.387 142.399,144.228C152.927,143.982 163.472,144.035 174.018,144.211C180.126,144.316 182.204,141.447 182.186,135.602C182.063,100.181 182.028,64.743 182.221,29.322C182.257,22.403 179.352,19.903 172.732,20.079C163.085,20.308 153.402,20.431 143.755,20.044C135.921,19.727 133.597,23.283 133.738,30.625C134.055,47.613 133.843,64.602 133.843,81.573Z" fill="#000" stroke="" stroke-width="" stroke-miterlimit=""/>
	</svg>
