<?xml version="1.0" encoding="utf-8"?>
	<svg version="1.1" xmlns="http://www.w3.org/2000/svg" xmlns:xlink="http://www.w3.org/1999/xlink" x="0px" y="0px" width="240.0" height="240.0" xml:space="preserve">
		<path d="M177.096,70.121L177.096,71.711C177.096,80.929 177.096,90.147 177.096,99.365C177.096,100.992 177.094,100.992 175.42,100.993C170.108,100.993 164.796,100.969 159.484,101.014C158.487,101.022 158.133,100.786 158.135,99.722C158.167,83.278 158.167,66.834 158.134,50.389C158.132,49.288 158.485,49.034 159.536,49.037C171.371,49.072 183.207,49.058 195.042,49.059C203.553,49.06 209.17,53.417 211.295,61.695C212.647,66.962 212.798,72.353 212.828,77.745C212.868,85.088 212.829,92.432 212.869,99.775C212.874,100.769 212.536,101.019 211.587,101.012C206.275,100.973 200.962,100.958 195.651,101.021C194.511,101.034 194.315,100.63 194.323,99.608C194.373,93.124 194.416,86.64 194.337,80.157C194.315,78.305 194.102,76.394 193.591,74.622C192.661,71.392 190.443,69.981 187.088,70.038C184.199,70.087 181.309,70.095 178.42,70.12C178.035,70.124 177.65,70.121 177.096,70.121M145.023,100.992C144.503,100.992 144.082,100.992 143.661,100.992C138.311,100.993 132.961,100.966 127.612,101.018C126.529,101.028 126.127,100.797 126.141,99.616C126.213,93.564 126.188,87.511 126.209,81.459C126.22,78.208 126.098,74.975 124.975,71.873C123.885,68.863 122.059,66.563 118.707,66.064C115.1,65.526 112.311,67.027 110.241,69.931C108.591,72.247 108.03,74.937 107.997,77.696C107.913,84.88 107.945,92.065 107.932,99.249C107.929,100.992 107.93,100.993 106.137,100.993C100.826,100.993 95.515,100.985 90.205,101.002C89.454,101.004 88.957,100.96 88.967,99.968C89.053,91.535 89.009,83.1 89.189,74.669C89.276,70.603 90.097,66.613 91.404,62.736C93.761,55.741 98.39,50.897 105.253,48.279C112.38,45.56 119.703,45.218 126.958,47.554C136.581,50.654 141.984,57.616 144.047,67.341C145.108,72.341 145.06,77.428 145.087,82.502C145.117,88.242 145.096,93.983 145.092,99.723C145.092,100.103 145.052,100.483 145.023,100.992M88.982,155.22C88.982,151.744 89.007,148.268 88.965,144.793C88.955,143.887 89.218,143.566 90.156,143.573C95.663,143.609 101.17,143.609 106.677,143.572C107.631,143.566 107.957,143.839 107.952,144.828C107.923,150.178 107.879,155.531 108.017,160.878C108.069,162.925 108.395,165.014 108.936,166.99C109.97,170.764 112.552,172.667 116.455,172.888C120.102,173.094 123.26,171.206 124.753,167.918C125.826,165.556 126.1,163.029 126.129,160.485C126.188,155.291 126.187,150.096 126.145,144.902C126.137,143.882 126.41,143.559 127.452,143.568C132.919,143.615 138.387,143.602 143.855,143.578C144.689,143.575 145.127,143.705 145.115,144.713C145.033,151.585 145.099,158.461 144.935,165.331C144.83,169.756 144.107,174.119 142.42,178.254C138.76,187.232 131.978,192.122 122.445,193.25C117.889,193.789 113.303,193.796 108.816,192.715C99.024,190.353 93.153,183.986 90.539,174.424C89.325,169.982 89.069,165.42 88.992,160.844C88.96,158.97 88.986,157.095 88.986,155.22L88.982,155.22ZM82.453,49.118C82.484,49.595 82.535,50.013 82.536,50.431C82.541,56.405 82.517,62.379 82.559,68.353C82.566,69.405 82.29,69.761 81.186,69.75C75.876,69.694 70.566,69.725 65.256,69.725L63.83,69.725L63.83,71.323C63.83,80.734 63.814,90.143 63.853,99.553C63.857,100.648 63.6,101.033 62.436,101.019C57.048,100.959 51.659,100.959 46.271,101.02C45.1,101.033 44.852,100.636 44.856,99.548C44.894,90.177 44.878,80.806 44.878,71.435L44.878,69.725C44.347,69.725 43.898,69.725 43.45,69.725C38.179,69.726 32.908,69.704 27.637,69.747C26.641,69.755 26.282,69.517 26.29,68.449C26.34,62.397 26.334,56.345 26.295,50.293C26.288,49.323 26.572,49.038 27.546,49.04C45.468,49.066 63.39,49.059 81.312,49.061C81.657,49.061 82.001,49.095 82.453,49.118M158.157,167.114C158.156,159.775 158.179,152.437 158.133,145.099C158.126,143.962 158.373,143.544 159.608,143.56C164.994,143.629 170.381,143.611 175.767,143.57C176.756,143.563 177.121,143.793 177.118,144.864C177.084,159.697 177.088,174.529 177.111,189.362C177.113,190.293 176.899,190.663 175.885,190.655C170.381,190.61 164.877,190.61 159.374,190.654C158.364,190.662 158.137,190.295 158.141,189.363C158.17,181.946 158.157,174.53 158.157,167.114M63.831,167.225C63.831,174.524 63.808,181.824 63.855,189.123C63.862,190.261 63.619,190.679 62.382,190.664C56.996,190.594 51.608,190.603 46.222,190.659C45.107,190.67 44.856,190.295 44.858,189.25C44.887,174.495 44.887,159.74 44.859,144.985C44.857,143.953 45.086,143.554 46.21,143.565C51.636,143.62 57.062,143.619 62.488,143.566C63.593,143.556 63.857,143.926 63.852,144.975C63.812,152.391 63.831,159.808 63.831,167.225M202.878,110.532C202.947,110.532 203.015,110.595 203.238,110.706C202.959,111.898 202.718,113.149 202.34,114.356C202.265,114.594 201.662,114.789 201.299,114.796C199.114,114.836 196.928,114.814 194.742,114.819C194.362,114.82 193.981,114.85 193.482,114.873L193.482,116.213L193.475,125.288C193.475,128.313 193.481,131.338 193.504,134.364C193.513,135.414 193.183,135.679 192.17,135.668C188.945,135.632 188.808,135.666 188.802,132.734L188.802,114.833L179.143,114.833C179.437,113.426 179.655,112.209 179.971,111.018C180.031,110.794 180.479,110.526 180.748,110.525C188.125,110.507 195.502,110.52 202.878,110.532ZM160.024,110.624C164.003,110.706 167.986,110.615 171.963,110.731C174.832,110.815 177.064,112.108 178.255,114.839C179.913,118.641 178.272,122.547 174.416,124.055C174.127,124.168 173.83,124.264 173.474,124.39C176.7,128.033 179.897,131.644 183.313,135.502C181.325,135.502 179.67,135.531 178.017,135.474C177.74,135.464 177.438,135.11 177.212,134.857C175.026,132.415 172.774,130.024 170.705,127.485C169.283,125.741 167.696,124.724 165.386,125.021C164.664,125.113 163.921,125.035 163.031,125.035L163.031,129.669C163.031,131.308 163.004,132.948 163.042,134.586C163.059,135.301 162.787,135.518 162.093,135.552C158.613,135.722 158.614,135.738 158.614,132.322C158.613,125.57 158.638,118.818 158.588,112.067C158.579,110.942 158.89,110.6 160.024,110.624ZM222.995,111.021C223.258,111.021 223.521,111.089 223.916,111.143C223.743,112.266 223.644,113.349 223.369,114.386C223.299,114.652 222.672,114.926 222.298,114.931C218.629,114.977 214.96,114.954 211.292,114.984C210.558,114.99 209.81,115.074 209.097,115.243C208.048,115.492 207.423,116.192 207.317,117.301C207.21,118.428 207.587,119.38 208.639,119.802C209.56,120.171 210.575,120.406 211.564,120.476C213.118,120.586 214.685,120.48 216.246,120.519C217.06,120.539 217.888,120.599 218.682,120.77C222.574,121.604 224.362,124.105 224.235,128.457C224.132,131.953 221.869,134.398 218.191,134.942C217.384,135.061 216.562,135.124 215.746,135.127C211.648,135.145 207.549,135.136 203.451,135.136L201.993,135.136C202.299,133.864 202.496,132.755 202.868,131.707C202.962,131.443 203.615,131.245 204.013,131.242C207.681,131.206 211.35,131.222 215.019,131.218C215.526,131.217 216.035,131.212 216.539,131.164C219.072,130.921 220.276,129.33 219.842,126.812C219.621,125.534 218.808,124.746 217.575,124.624C215.834,124.453 214.07,124.534 212.325,124.394C210.667,124.261 208.942,124.223 207.384,123.719C203.95,122.609 202.334,119.644 203.017,116.193C203.479,113.859 204.999,112.416 207.154,111.668C208.207,111.302 209.356,111.066 210.467,111.047C214.642,110.975 218.819,111.015 222.995,111.021ZM162.961,114.568L162.961,121.201C165.121,121.201 167.18,121.231 169.238,121.188C170.168,121.169 171.119,121.106 172.017,120.887C173.623,120.496 174.509,119.219 174.451,117.611C174.394,116.063 173.449,114.71 171.858,114.617C168.92,114.445 165.965,114.568 162.961,114.568ZM49.535,110.091C56.708,110.117 62.529,115.977 62.528,123.17C62.527,130.342 56.689,136.152 49.467,136.168C42.306,136.183 36.397,130.303 36.396,123.16C36.395,115.95 42.312,110.065 49.535,110.091ZM31.631,110.5C33.661,110.5 35.692,110.497 37.722,110.503C38.136,110.504 38.55,110.541 39.138,110.57C38.81,111.921 38.576,113.141 38.183,114.307C38.094,114.573 37.454,114.787 37.064,114.794C34.534,114.837 32.003,114.816 29.328,114.816L29.328,135.629C27.843,135.629 26.494,135.675 25.155,135.58C24.959,135.566 24.666,134.886 24.663,134.512C24.628,130.295 24.641,126.078 24.64,121.862L24.64,114.803L15,114.803C15.284,113.434 15.46,112.235 15.82,111.094C15.912,110.802 16.583,110.528 16.99,110.525C21.87,110.486 26.751,110.5 31.631,110.5ZM49.479,114.024C44.391,114.024 40.269,118.127 40.3,123.162C40.332,128.23 44.442,132.282 49.53,132.26C54.556,132.239 58.629,128.175 58.642,123.168C58.656,118.109 54.562,114.024 49.479,114.024ZM144.345,114.024C139.25,114.022 135.193,118.07 135.191,123.159C135.189,128.165 139.248,132.231 144.276,132.262C149.354,132.292 153.491,128.22 153.512,123.171C153.534,118.132 149.419,114.026 144.345,114.024M144.288,136.169C137.019,136.119 131.21,130.223 131.278,122.965C131.346,115.827 137.318,110.019 144.514,110.093C151.662,110.166 157.508,116.151 157.421,123.307C157.336,130.409 151.404,136.218 144.288,136.169M109.122,111.152C108.95,112.28 108.851,113.366 108.579,114.407C108.509,114.673 107.89,114.954 107.521,114.957C103.85,114.995 100.178,114.96 96.507,114.987C95.736,114.992 94.946,115.091 94.199,115.28C93.255,115.519 92.651,116.173 92.515,117.171C92.372,118.227 92.637,119.215 93.626,119.667C94.559,120.094 95.609,120.385 96.629,120.472C98.18,120.604 99.751,120.487 101.313,120.518C102.09,120.533 102.88,120.572 103.64,120.721C107.463,121.474 109.604,124.068 109.496,127.756C109.374,131.939 107.285,134.377 103.269,134.963C102.346,135.098 101.403,135.143 100.469,135.147C96.486,135.167 92.502,135.156 88.518,135.156L87.21,135.156C87.503,133.888 87.69,132.777 88.052,131.725C88.143,131.46 88.791,131.248 89.185,131.245C92.778,131.224 96.371,131.258 99.963,131.263C100.587,131.264 101.215,131.238 101.833,131.165C104.36,130.867 105.594,129.083 105,126.605C104.708,125.387 103.849,124.703 102.676,124.61C100.775,124.459 98.853,124.547 96.953,124.386C95.375,124.253 93.74,124.123 92.264,123.608C89.489,122.641 87.977,120.234 88.064,117.479C88.157,114.573 89.759,112.457 92.684,111.546C93.642,111.248 94.671,111.053 95.671,111.04C99.85,110.985 104.029,111.015 108.208,111.022C108.47,111.023 108.731,111.094 109.122,111.152M115.05,121.884C117.86,121.884 120.577,121.903 123.294,121.865C123.74,121.859 124.205,121.648 124.625,121.454C125.984,120.825 126.633,119.389 126.408,117.605C126.211,116.046 125.365,114.839 124.058,114.791C121.078,114.68 118.092,114.755 115.05,114.755L115.05,121.884ZM115.128,125.805C115.128,128.818 115.093,131.587 115.147,134.355C115.165,135.288 114.85,135.556 113.939,135.559C110.711,135.57 110.711,135.6 110.711,132.417C110.711,125.621 110.73,118.826 110.69,112.031C110.684,110.995 110.913,110.597 112.041,110.622C115.905,110.709 119.775,110.601 123.637,110.736C126.408,110.834 128.759,111.939 129.992,114.609C131.261,117.355 131.123,120.091 129.447,122.643C128.077,124.732 125.96,125.659 123.567,125.774C120.807,125.907 118.034,125.805 115.128,125.805L115.128,125.805ZM68.144,121.875C70.944,121.875 73.665,121.895 76.384,121.856C76.831,121.85 77.296,121.635 77.716,121.439C79.057,120.81 79.745,119.26 79.475,117.567C79.196,115.821 78.361,114.8 76.731,114.734C73.898,114.621 71.058,114.703 68.144,114.703L68.144,121.875ZM68.212,125.903C68.212,128.85 68.187,131.62 68.227,134.39C68.239,135.227 68.022,135.551 67.118,135.56C63.804,135.592 63.804,135.624 63.804,132.275C63.804,125.52 63.826,118.765 63.781,112.011C63.774,110.944 64.057,110.602 65.151,110.625C69.014,110.707 72.883,110.603 76.744,110.738C80.331,110.863 82.821,112.899 83.613,116.057C84.86,121.032 81.848,125.363 76.73,125.771C74.324,125.963 71.894,125.869 69.474,125.903C69.092,125.908 68.709,125.903 68.212,125.903L68.212,125.903Z" fill="#000" stroke="#00000000" stroke-width="1.0" stroke-miterlimit=""/>
	</svg>
