<?xml version="1.0" encoding="utf-8"?>
	<svg version="1.1" xmlns="http://www.w3.org/2000/svg" xmlns:xlink="http://www.w3.org/1999/xlink" x="0px" y="0px" width="240.0" height="240.0" xml:space="preserve">
		<path d="M120.056,203.955C117.129,203.955 114.428,203.054 112.064,201.141C110.15,199.565 63.433,163.43 44.747,134.049C38.555,124.368 30,111.197 30,92.51C30,61.328 53.302,36 81.782,36C96.304,36 110.15,42.642 120.056,54.236C129.85,42.529 143.583,36 158.218,36C186.811,36 210,61.328 210,92.51C210,110.859 202.008,123.467 195.478,133.711L195.253,134.049C176.567,163.43 129.85,199.677 127.936,201.141C125.685,202.942 122.983,203.955 120.056,203.955Z" fill="#000" stroke="#00000000" stroke-width="1.0" stroke-miterlimit=""/>
	</svg>
