<?xml version="1.0" encoding="utf-8"?>
	<svg version="1.1" xmlns="http://www.w3.org/2000/svg" xmlns:xlink="http://www.w3.org/1999/xlink" x="0px" y="0px" width="240.0" height="240.0" xml:space="preserve">
		<path d="M106.979,129.776C107.878,129.717 171.34,124.541 175.56,125.205C179.779,125.888 196.675,125.381 197.515,131.963C198.355,138.468 197.515,144.796 197.515,144.796C197.515,144.796 160.011,151.379 159.171,152.239C158.331,153.078 155.284,156.126 155.46,160.677C155.636,165.248 155.636,182.983 155.792,183.491C155.968,183.999 156.808,187.378 163.234,186.695C168.293,186.167 173.333,184.37 175.267,183.648C175.755,183.452 176.067,182.983 176.009,182.456L175.657,177.885C175.599,177.182 174.935,176.674 174.251,176.811L164.582,178.745V160.501L195.913,154.836C196.577,154.719 197.202,155.208 197.222,155.891L198.257,186.792C198.257,186.792 200.034,194.469 186.869,197.184C173.704,199.899 142.119,207.829 139.072,207.986C136.025,208.162 130.966,208.162 125.731,206.794C122.039,205.837 117.488,204.118 115.144,203.2C114.343,202.888 114.07,201.891 114.578,201.208L126.102,185.542C126.532,184.976 126.747,184.273 126.747,183.569V166.302C126.747,165.404 126.395,164.564 125.789,163.919L101.119,137.979C100.455,137.276 100.162,136.319 100.299,135.362C100.592,133.311 101.901,130.069 106.979,129.776Z" fill="#000" stroke="" stroke-width="" stroke-miterlimit=""/>
		<path d="M90.278,140.382C89.849,139.933 89.282,139.659 88.677,139.562L44.356,133.057C43.731,132.94 43.087,132.999 42.52,133.272C40.586,134.17 36.367,136.827 35,143.41V195.485C35,195.485 35.625,205.876 49.943,210.681C64.26,215.486 81.743,219.803 81.743,219.803C81.743,219.803 91.49,221.698 95.435,213.728C99.361,205.739 118.113,182.944 118.113,182.944V169.135L90.278,140.382ZM78.715,202.458C74.144,202.341 55.568,199.782 49.708,194.469C44.395,189.664 47.052,151.77 47.052,151.77C47.052,151.77 47.15,147.375 49.708,147.844L79.223,153.157C79.223,153.157 82.895,155.305 82.895,158.352V199.274C82.895,199.294 83.286,202.595 78.715,202.458ZM204.859,81.334C204.859,61.117 189.252,44.709 169.993,44.709C159.015,44.709 149.21,50.042 142.822,58.382C137.705,36.33 119.402,20 97.603,20C71.859,20 50.978,42.776 50.978,70.864C50.978,98.952 71.859,121.728 97.603,121.728C98.951,121.728 100.299,121.65 101.627,121.513L171.301,117.919C171.614,117.899 171.907,117.899 172.219,117.88L173.196,117.821L173.177,117.802C190.932,116.102 204.859,100.417 204.859,81.334ZM106.51,99.441C93.482,99.441 82.914,87.291 82.914,72.29C82.914,57.289 93.482,45.139 106.51,45.139C119.539,45.139 130.106,57.289 130.106,72.29C130.106,87.291 119.539,99.441 106.51,99.441ZM175.521,98.191C166.926,98.191 159.953,90.182 159.953,80.279C159.953,70.376 166.926,62.367 175.521,62.367C184.115,62.367 191.088,70.376 191.088,80.279C191.088,90.182 184.115,98.191 175.521,98.191Z" fill="#000" stroke="" stroke-width="" stroke-miterlimit=""/>
	</svg>
