<?xml version="1.0" encoding="utf-8"?>
	<svg version="1.1" xmlns="http://www.w3.org/2000/svg" xmlns:xlink="http://www.w3.org/1999/xlink" x="0px" y="0px" width="240.0" height="240.0" xml:space="preserve">
		<path d="M191.576,73.344C163.28,43.893 118.124,34.583 81.001,51.163C46.523,66.569 26.246,93.321 20.965,130.826C17.766,153.419 22.612,174.63 34.135,194.309C35.885,197.296 38.137,197.865 40.973,195.996C47.605,191.626 54.213,187.219 60.798,182.777C63.347,181.054 63.742,179.336 62.427,176.636C60.206,172.078 60.838,170.546 65.7,168.879C83.302,162.83 101.401,159.758 117.06,159.8C138.818,159.782 157.087,162.83 174.821,169.054C179.172,170.584 179.865,172.311 177.812,176.351C176.302,179.324 176.692,181.043 179.446,182.894C183.409,185.582 187.402,188.204 191.385,190.852C193.875,192.505 196.315,194.262 198.878,195.781C202.187,197.73 204.329,197.126 206.169,194.011C214.895,179.206 219.612,163.177 219.975,146.039C220.557,117.954 211.051,93.617 191.576,73.344L191.576,73.344ZM183.369,131.612C181.576,134.162 178.888,134.989 175.121,133.94C165.582,131.26 155.865,129.257 146.044,127.944C130.524,125.922 114.822,125.716 99.254,127.33C87.781,128.517 76.433,130.703 65.339,133.864C62.447,134.682 59.738,134.76 57.466,132.477C55.08,130.086 55.409,127.324 56.287,124.366C63.906,98.743 86.134,80.176 112.704,77.241C115.169,76.965 117.633,76.853 120.116,76.82C149.572,76.831 175.706,96.4 183.853,124.516C184.559,126.981 184.973,129.333 183.369,131.612L183.369,131.612Z" fill="#000" stroke="#00000000" stroke-width="1.0" stroke-miterlimit=""/>
	</svg>
