<?xml version="1.0" encoding="utf-8"?>
	<svg version="1.1" xmlns="http://www.w3.org/2000/svg" xmlns:xlink="http://www.w3.org/1999/xlink" x="0px" y="0px" width="240.0" height="240.0" xml:space="preserve">
		<path d="M120.23,217.329C125.374,208.345 130.163,199.944 135,191.572C135.735,190.3 135.137,189.216 134.803,188.094C130.35,173.097 125.882,158.104 121.378,143.124C121.106,142.218 121.2,141.065 120.144,140.504C120.046,140.584 119.93,140.628 119.908,140.703C114.955,156.914 110.012,173.129 105.046,189.336C104.789,190.176 104.829,190.886 105.267,191.637C110.146,200 115.014,208.369 120.23,217.329M203.833,108.953C203.894,110.058 204.006,111.164 204.006,112.269C203.983,145.102 203.951,177.933 203.918,210.766C203.911,217.219 201.158,220 194.761,220C144.553,220 94.345,220 44.137,220C37.755,220 35.003,217.215 35.002,210.741C35,177.909 35,145.077 35.006,112.244C35.007,111.136 35.094,110.028 35.14,108.92C62.428,117.094 89.719,125.255 116.995,133.467C118.921,134.047 120.685,134.06 122.608,133.467C134.48,129.803 146.369,126.192 158.265,122.608C173.449,118.034 188.643,113.503 203.833,108.953" fill="#000" stroke="#00000000" stroke-width="1.0" stroke-miterlimit=""/>
		<path d="M203.833,108.953C188.644,113.503 173.448,118.035 158.265,122.609C146.369,126.192 134.48,129.802 122.608,133.467C120.685,134.061 118.92,134.046 116.995,133.466C89.719,125.255 62.428,117.093 35.141,108.92C35.101,91.842 34.869,74.761 35.154,57.689C35.227,53.341 36.922,49.016 37.902,44.688C39.726,36.633 41.57,28.582 43.527,20C48.293,24.391 52.729,28.466 57.149,32.557C62.71,37.707 68.288,42.839 73.79,48.052C75.055,49.25 76.345,49.743 78.09,49.74C105.681,49.694 133.271,49.693 160.862,49.743C162.62,49.746 163.888,49.211 165.152,48.028C174.374,39.396 183.652,30.822 192.917,22.235C193.573,21.628 194.266,21.061 195.233,20.223C195.58,21.353 195.909,22.237 196.12,23.149C198.625,33.972 201.117,44.798 203.594,55.628C203.772,56.408 203.893,57.221 203.893,58.018C203.885,74.997 203.857,91.975 203.833,108.953" fill="#000" stroke="#00000000" stroke-width="1.0" stroke-miterlimit=""/>
		<path d="M120.23,217.329C115.014,208.369 110.146,200 105.267,191.637C104.829,190.886 104.789,190.176 105.046,189.336C110.012,173.129 114.955,156.914 119.908,140.703C119.93,140.628 120.046,140.584 120.144,140.504C121.2,141.065 121.106,142.218 121.378,143.124C125.882,158.104 130.35,173.097 134.803,188.094C135.137,189.216 135.735,190.3 135,191.572C130.163,199.944 125.374,208.345 120.23,217.329" fill="#000" stroke="#00000000" stroke-width="1.0" stroke-miterlimit=""/>
	</svg>
