<?xml version="1.0" encoding="utf-8"?>
	<svg version="1.1" xmlns="http://www.w3.org/2000/svg" xmlns:xlink="http://www.w3.org/1999/xlink" x="0px" y="0px" width="240.0" height="240.0" xml:space="preserve">
		<path d="M219.99,81.82C219.995,95.367 220.043,108.913 219.979,122.46C219.873,145.319 212.122,165.484 197.827,183.095C183.26,201.04 164.523,212.695 141.919,217.482C109.572,224.33 80.333,217.238 55.025,195.855C35.566,179.419 24.075,158.217 20.882,132.93C17.589,106.82 23.485,82.755 39.098,61.389C55.078,39.523 76.529,26.194 103.192,21.36C107.798,20.526 112.462,20 117.174,20C145.946,20.016 174.723,19.989 203.495,20.011C213.031,20.016 219.942,26.874 219.974,36.399C220.022,51.54 219.99,66.68 219.99,81.82ZM115.373,155.991C124.229,155.991 133.079,155.997 141.935,155.991C153.654,155.981 160.582,149.452 160.768,137.701C160.98,124.255 160.969,110.799 160.768,97.348C160.603,86.314 153.798,79.302 143.093,79.196C124.681,79.02 106.263,79.01 87.845,79.201C77.464,79.313 70.415,86.224 70.271,96.296C70.075,110.284 70.059,124.276 70.277,138.264C70.447,149.308 77.533,155.97 88.546,155.986C97.492,156.002 106.433,155.991 115.373,155.991ZM187.956,117.604C187.951,117.604 187.951,117.604 187.946,117.604C187.946,109.29 187.946,100.976 187.946,92.663C187.946,91.069 187.579,89.65 185.938,88.96C184.28,88.259 183.069,89.029 181.932,90.171C176.938,95.186 171.934,100.185 166.909,105.168C166.048,106.023 165.612,106.9 165.623,108.191C165.681,114.204 165.644,120.218 165.57,126.226C165.549,128.117 166.144,129.578 167.525,130.922C172.152,135.422 176.678,140.028 181.241,144.591C182.506,145.85 183.754,147.247 185.815,146.44C188.004,145.584 187.94,143.613 187.94,141.738C187.962,133.701 187.956,125.652 187.956,117.604Z" fill="#000" stroke="" stroke-width="" stroke-miterlimit=""/>
	</svg>
