<?xml version="1.0" encoding="utf-8"?>
	<svg version="1.1" xmlns="http://www.w3.org/2000/svg" xmlns:xlink="http://www.w3.org/1999/xlink" x="0px" y="0px" width="240.0" height="240.0" xml:space="preserve">
		<path d="M80.007,129.537C80.127,107.745 98.475,89.808 120.49,89.951C142.271,90.094 160.174,108.465 160.002,130.508C159.837,152.147 141.523,170.055 119.662,169.952C97.858,169.855 79.881,151.536 80.007,129.537Z" fill="#000" stroke="" stroke-width="" stroke-miterlimit=""/>
		<path d="M119.949,209.356C114.664,209.356 109.379,209.356 104.093,209.356H104.018C82.869,209.357 61.72,209.358 40.571,209.344C36.053,209.339 31.654,208.83 27.787,206.111C22.543,202.421 20.035,197.263 20.024,190.996C19.984,167.094 20.002,143.192 20.021,119.29C20.026,112.26 20.031,105.23 20.035,98.2C20.037,96.052 20.034,93.904 20.031,91.755C20.023,86.384 20.015,81.011 20.081,75.642C20.201,65.816 25.976,58.522 34.841,57.002C36.43,56.727 38.075,56.737 39.709,56.747C40.079,56.75 40.449,56.752 40.817,56.751C41.613,56.749 42.409,56.747 43.205,56.744C51.166,56.723 59.126,56.701 67.082,56.774C69.155,56.791 70.641,56.151 72.052,54.609C78.204,47.862 84.447,41.196 90.697,34.536C93.678,31.354 97.534,30.08 101.767,30.057C113.854,29.989 125.942,29.972 138.029,30.057C142.587,30.091 146.472,31.725 149.648,35.232C153.075,39.015 156.575,42.729 160.076,46.443L160.076,46.444C162.644,49.168 165.212,51.892 167.75,54.643C169.155,56.168 170.681,56.797 172.754,56.779C180.01,56.717 187.265,56.728 194.518,56.738H194.52C196.591,56.741 198.662,56.744 200.733,56.745C212.546,56.757 219.807,63.863 219.927,75.721C220.007,83.503 220,91.287 219.993,99.07V99.074C219.99,101.854 219.988,104.634 219.989,107.413C219.99,112.407 219.992,117.401 219.993,122.395V122.43C220,144.929 220.006,167.429 219.978,189.928C219.967,199.468 214.917,206.534 206.68,208.596C204.189,209.219 201.619,209.361 199.037,209.361C179.27,209.353 159.503,209.354 139.736,209.355C133.141,209.355 126.545,209.356 119.949,209.356ZM119.984,76.961C90.937,76.961 67.042,100.839 67.042,129.869C67.042,158.939 90.891,182.873 119.875,182.896C148.957,182.919 172.931,159.081 172.96,130.12C172.994,100.861 149.174,76.961 119.984,76.961ZM196.306,90.105C202.024,90.111 206.393,85.735 206.393,80.011C206.388,74.43 201.801,69.781 196.3,69.792C190.816,69.803 186.143,74.499 186.126,80.011C186.109,85.581 190.662,90.099 196.306,90.105Z" fill="#000" stroke="" stroke-width="" stroke-miterlimit=""/>
	</svg>
