<?xml version="1.0" encoding="utf-8"?>
	<svg version="1.1" xmlns="http://www.w3.org/2000/svg" xmlns:xlink="http://www.w3.org/1999/xlink" x="0px" y="0px" width="240.0" height="240.0" xml:space="preserve">
		<path d="M61.831,120C61.831,113.505 62.939,107.275 64.899,101.437L30.483,75.698C23.569,89.441 19.978,104.615 20,120C20,135.921 23.767,150.938 30.466,164.268L64.865,138.486C62.859,132.529 61.835,126.286 61.831,120" fill="#000" stroke="" stroke-width="" stroke-miterlimit=""/>
		<path d="M122.277,60.91C136.681,60.91 149.695,65.905 159.923,74.087L189.677,44.998C171.548,29.546 148.306,20 122.277,20C81.861,20 47.121,42.629 30.484,75.698L64.917,101.437C72.844,77.863 95.447,60.91 122.277,60.91Z" fill="#000" stroke="" stroke-width="" stroke-miterlimit=""/>
		<path d="M122.277,179.09C95.438,179.09 72.835,162.138 64.9,138.563L30.484,164.302C47.113,197.372 81.852,220 122.277,220C147.215,220 171.028,211.332 188.909,195.079L156.232,170.345C147.019,176.03 135.411,179.09 122.268,179.09" fill="#000" stroke="" stroke-width="" stroke-miterlimit=""/>
		<path d="M219.896,120C219.896,114.094 218.959,107.727 217.57,101.821H122.266V140.455H177.12C174.384,153.632 166.917,163.757 156.238,170.345L188.907,195.079C207.683,178.016 219.896,152.6 219.896,120" fill="#000" stroke="" stroke-width="" stroke-miterlimit=""/>
	</svg>
