<?xml version="1.0" encoding="utf-8"?>
	<svg version="1.1" xmlns="http://www.w3.org/2000/svg" xmlns:xlink="http://www.w3.org/1999/xlink" x="0px" y="0px" width="240.0" height="240.0" xml:space="preserve">
		<path d="M120,120m-80,0a80,80 0,1 1,160 0a80,80 0,1 1,-160 0" fill="#00000000" stroke="#000" stroke-width="20.0" stroke-miterlimit=""/>
		<path d="M120,95C121.866,95 127,80.866 127,77C127,73.134 123.866,70 120,70C116.134,70 113,73.134 113,77C113,80.866 118.134,95 120,95ZM120,145C118.134,145 113,159.134 113,163C113,166.866 116.134,170 120,170C123.866,170 127,166.866 127,163C127,159.134 121.866,145 120,145Z" fill="#000" stroke="" stroke-width="" stroke-miterlimit=""/>
		<path d="M137.686,102.324C139.006,103.643 152.63,97.279 155.364,94.546C158.097,91.812 158.097,87.38 155.364,84.646C152.63,81.912 148.198,81.912 145.464,84.646C142.731,87.38 136.367,101.004 137.686,102.324ZM102.331,137.679C101.011,136.36 87.387,142.724 84.653,145.457C81.92,148.191 81.92,152.623 84.653,155.357C87.387,158.09 91.819,158.09 94.553,155.357C97.286,152.623 103.65,138.998 102.331,137.679Z" fill="#000" stroke="" stroke-width="" stroke-miterlimit=""/>
		<path d="M145.023,120.001C145.023,121.867 159.157,127.001 163.023,127.001C166.889,127.001 170.023,123.867 170.023,120.001C170.023,116.135 166.889,113.001 163.023,113.001C159.157,113.001 145.023,118.135 145.023,120.001ZM95.023,120.001C95.023,118.135 80.889,113.001 77.023,113.001C73.158,113.001 70.023,116.135 70.023,120.001C70.023,123.867 73.158,127.001 77.023,127.001C80.889,127.001 95.023,121.867 95.023,120.001Z" fill="#000" stroke="" stroke-width="" stroke-miterlimit=""/>
		<path d="M137.701,137.679C136.381,138.998 142.745,152.623 145.479,155.356C148.213,158.09 152.645,158.09 155.378,155.356C158.112,152.623 158.112,148.191 155.378,145.457C152.645,142.723 139.02,136.359 137.701,137.679ZM102.345,102.323C103.665,101.004 97.301,87.38 94.567,84.646C91.834,81.912 87.401,81.912 84.668,84.646C81.934,87.38 81.934,91.812 84.668,94.545C87.401,97.279 101.026,103.643 102.345,102.323Z" fill="#000" stroke="" stroke-width="" stroke-miterlimit=""/>
	</svg>
