<?xml version="1.0" encoding="utf-8"?>
	<svg version="1.1" xmlns="http://www.w3.org/2000/svg" xmlns:xlink="http://www.w3.org/1999/xlink" x="0px" y="0px" width="240.0" height="240.0" xml:space="preserve">
		<path d="M120,220C64.775,220 20,175.225 20,120C20,64.775 64.775,20 120,20C175.225,20 220,64.775 220,120C220,175.225 175.225,220 120,220ZM97.7,159.267C98.667,160.234 99.816,161.002 101.08,161.525C102.344,162.049 103.698,162.319 105.067,162.319C106.435,162.319 107.79,162.049 109.054,161.525C110.318,161.002 111.466,160.234 112.433,159.267L175.583,96.117C176.551,95.149 177.318,94.001 177.842,92.737C178.365,91.473 178.635,90.118 178.635,88.75C178.635,87.382 178.365,86.027 177.842,84.763C177.318,83.499 176.551,82.351 175.583,81.383C174.616,80.416 173.467,79.648 172.203,79.125C170.94,78.601 169.585,78.332 168.217,78.332C166.849,78.332 165.494,78.601 164.23,79.125C162.966,79.648 161.817,80.416 160.85,81.383L104.617,136.717L79.45,111.55C77.496,109.596 74.846,108.499 72.083,108.499C69.32,108.499 66.67,109.596 64.717,111.55C62.763,113.504 61.665,116.154 61.665,118.917C61.665,120.285 61.935,121.639 62.458,122.903C62.982,124.167 63.749,125.316 64.717,126.283L97.7,159.267Z" fill="#000" stroke="" stroke-width="" stroke-miterlimit=""/>
	</svg>
