<?xml version="1.0" encoding="utf-8"?>
	<svg version="1.1" xmlns="http://www.w3.org/2000/svg" xmlns:xlink="http://www.w3.org/1999/xlink" x="0px" y="0px" width="240.0" height="240.0" xml:space="preserve">
		<path d="M108.624,26.374C117.583,24.294 126.86,24.196 136.015,24C136.822,25.053 138.462,27.133 139.27,28.161C138.634,29.018 137.361,30.756 136.724,31.613C127.276,31.099 117.779,31.49 108.33,31.294L108.624,26.374L108.624,26.374Z" fill="#000" stroke="#00000000" stroke-width="1.0" stroke-miterlimit=""/>
		<path d="M162.915,32.004C169.329,20.524 188.054,25.689 187.883,38.956C182.375,36.606 176.06,31.955 170.038,35.627C169.329,36.067 167.909,36.924 167.199,37.365C165.021,40.938 165.681,46.935 161.275,48.649C160.957,44.512 160.908,40.376 160.908,36.239C161.422,35.186 162.426,33.057 162.915,32.004L162.915,32.004ZM54.676,39.225C53.55,27.06 73.181,23.853 79.031,32.127C79.618,33.301 80.769,35.602 81.356,36.753C81.185,40.89 80.965,45.124 78.908,48.845C77.685,45.051 76.656,41.208 75.139,37.536C74.453,36.998 73.132,35.921 72.471,35.382C66.547,28.553 60.33,36.704 54.676,39.225L54.676,39.225Z" fill="#000" stroke="#00000000" stroke-width="1.0" stroke-miterlimit=""/>
		<path d="M81.356,36.753C88.381,31.245 97.218,29.434 105.883,28.43C107.082,34.452 108.086,40.498 108.6,46.617C107.792,52.027 107.107,57.461 106.421,62.895C105.491,67.178 104.536,71.438 103.361,75.672C89.532,60.545 68.53,59.688 49.486,60.79C53.892,49.628 65.544,43.68 75.139,37.536C76.656,41.208 77.685,45.051 78.908,48.845C80.965,45.124 81.185,40.89 81.356,36.753ZM139.27,28.161C146.932,29.507 154.373,31.98 160.908,36.239C160.908,40.376 160.957,44.512 161.275,48.649C165.681,46.935 165.021,40.938 167.199,37.365C178.704,44.39 190.991,51.684 197.82,63.776C178.508,58.93 156.649,58.367 140.69,72.049L137.753,63.164C135.892,57.877 135.378,52.296 135.868,46.715C136.259,41.697 136.504,36.655 136.724,31.613C137.361,30.756 138.634,29.018 139.27,28.161Z" fill="#000" stroke="#00000000" stroke-width="1.0" stroke-miterlimit=""/>
		<path d="M108.6,46.617C117.681,47.156 126.787,47.107 135.868,46.715C135.378,52.296 135.892,57.877 137.753,63.164C127.35,62.014 116.849,62.307 106.421,62.895C107.107,57.461 107.792,52.027 108.6,46.617L108.6,46.617Z" fill="#000" stroke="#00000000" stroke-width="1.0" stroke-miterlimit=""/>
		<path d="M42.633,63.213C44.909,62.43 47.21,61.598 49.486,60.79C68.53,59.688 89.532,60.545 103.361,75.672L102.774,77.777C83.657,64.51 54.406,57.387 34.947,73.396C34.041,74.155 34.041,74.155 34.947,73.396C42.314,71.242 45.154,77.998 48.728,82.869C61.945,85.316 77.219,79.589 88.92,88.425C89.287,89.404 90.046,91.362 90.413,92.341C72.226,84.729 51.493,87.372 33.282,93.541C32.107,92.66 29.733,90.922 28.558,90.065C23.099,78.487 30.492,65.759 42.633,63.213L42.633,63.213ZM140.69,72.049C156.649,58.367 178.508,58.93 197.82,63.776C198.139,63.923 198.751,64.192 199.069,64.339L200.856,65.073C212.825,69.822 221.197,81.841 216.742,94.887L214.588,94.936C202.887,97.066 194.369,85.61 182.644,88.033C172.584,89.526 158.901,83.97 152.268,94.202C148.743,90.163 146.344,85.316 143.652,80.739C142.599,77.875 141.571,74.987 140.69,72.049M156.209,66.811C153.247,67.962 150.677,69.847 148.253,71.878C153.834,74.228 157.726,78.487 158.485,84.607C170.504,83.236 183.109,81.669 194.859,85.39C201.174,87.299 207.244,95.891 213.927,90.163C215.004,85.439 214.71,80.005 210.402,76.969C195.838,64.339 174.298,62.014 156.209,66.811L156.209,66.811Z" fill="#000" stroke="#00000000" stroke-width="1.0" stroke-miterlimit=""/>
		<path d="M105.834,82.526C118.293,80.347 131.07,81.987 143.652,80.739C146.344,85.316 148.743,90.163 152.268,94.202C154.177,96.086 156.184,97.873 158.289,99.562C133.812,94.079 108.233,96.772 83.877,101.692C86.35,98.926 93.424,96.894 90.413,92.341C90.046,91.362 89.287,89.404 88.92,88.425C95.896,93.761 99.274,83.26 105.834,82.526Z" fill="#000" stroke="#00000000" stroke-width="1.0" stroke-miterlimit=""/>
		<path d="M33.282,93.541C51.493,87.372 72.226,84.729 90.413,92.341C93.424,96.894 86.35,98.926 83.877,101.692C79.202,104.238 74.698,107.101 69.754,109.158C62.019,99.269 47.43,97.947 36.954,104.017C32.817,106.22 34.751,111.532 33.968,115.252L32.499,116.599C31.299,116.623 28.901,116.697 27.701,116.721C26.82,108.521 27.75,100.052 33.282,93.541L33.282,93.541ZM152.268,94.202C158.901,83.97 172.584,89.526 182.644,88.033C194.369,85.61 202.887,97.066 214.588,94.936C219.165,102.181 215.42,110.675 216.693,118.606C210.867,117.406 204.992,116.574 199.118,115.791C202.3,115.081 205.458,114.273 208.542,113.196C211.234,101.129 195.618,99.856 187.295,100.664C181.249,99.734 177.798,104.752 174.689,109.035C168.937,106.392 163.65,102.891 158.289,99.562C156.184,97.873 154.177,96.086 152.268,94.202Z" fill="#000" stroke="#00000000" stroke-width="1.0" stroke-miterlimit=""/>
		<path d="M36.954,104.017C47.43,97.947 62.019,99.269 69.754,109.158C66.865,110.21 63.879,111.018 60.893,111.801C57.442,108.325 53.917,102.573 48.116,104.433C42.975,107.444 38.545,111.458 33.968,115.252C34.751,111.532 32.817,106.22 36.954,104.017L36.954,104.017Z" fill="#000" stroke="#00000000" stroke-width="1.0" stroke-miterlimit=""/>
		<path d="M174.689,109.035C177.798,104.752 181.249,99.734 187.295,100.664C195.618,99.856 211.234,101.129 208.542,113.196C205.458,114.273 202.3,115.081 199.118,115.791C190.698,114.812 182.375,112.658 174.689,109.035L174.689,109.035ZM33.968,115.252C38.545,111.458 42.975,107.444 48.116,104.433C53.917,102.573 57.442,108.325 60.893,111.801C51.763,114.959 42.265,117.26 32.499,116.599L33.968,115.252L33.968,115.252Z" fill="#000" stroke="#00000000" stroke-width="1.0" stroke-miterlimit=""/>
		<path d="M125.024,106.343C132.514,102.598 135.868,115.252 129.895,118.606C125.465,118.312 121.083,117.431 116.604,117.749C114.23,114.861 113.104,111.214 111.659,107.836C113.52,110.235 115.331,112.707 117.24,115.106C119.982,112.315 121.989,108.839 125.024,106.343M126.395,107.077C124.339,109.158 120.153,111.091 120.912,114.567C123.604,115.424 127.741,119.854 130.018,116.378C134.228,113.857 131.046,105.657 126.395,107.077L126.395,107.077Z" fill="#000" stroke="#00000000" stroke-width="1.0" stroke-miterlimit=""/>
		<path d="M78.957,130.331C101.721,126.047 125.147,124.97 148.131,128.128C170.308,127.907 191.897,133.268 213.095,139.24L212.703,141.566C205.482,141.076 198.286,140.734 191.065,140.489C189.816,140.171 187.295,139.534 186.047,139.24C142.942,128.838 97.781,131.506 54.504,139.485C53.501,139.583 51.469,139.803 50.441,139.901C43.489,140.44 36.538,141.052 29.586,141.492C28.436,141.517 26.184,141.541 25.058,141.566L22.488,141.517L22.977,138.702C41.262,133.709 60.208,132.289 78.957,130.331L78.957,130.331Z" fill="#000" stroke="#00000000" stroke-width="1.0" stroke-miterlimit=""/>
		<path d="M54.504,139.485C97.781,131.506 142.942,128.838 186.047,139.24C181.494,169.519 147.152,186.091 118.954,184.475C90.78,185.674 61.627,167.561 54.504,139.485L54.504,139.485Z" fill="#000" stroke="#00000000" stroke-width="1.0" stroke-miterlimit=""/>
		<path d="M29.586,141.492C36.538,141.052 43.489,140.44 50.441,139.901C54.455,163.938 74.649,182.933 97.609,189.248C121.45,194.854 148.302,191.794 168.105,176.618C179.756,167.683 187.099,154.417 191.065,140.489C198.286,140.734 205.482,141.076 212.703,141.566C207.244,175.002 179.805,203.812 147.03,212.037C97.634,228.339 37.957,193.165 29.586,141.492Z" fill="#000" stroke="#00000000" stroke-width="1.0" stroke-miterlimit=""/>
	</svg>
