<?xml version="1.0" encoding="utf-8"?>
	<svg version="1.1" xmlns="http://www.w3.org/2000/svg" xmlns:xlink="http://www.w3.org/1999/xlink" x="0px" y="0px" width="240.0" height="240.0" xml:space="preserve">
		<path d="M149.104,59.563C156.436,61.567 178.484,71.546 169.298,83.562C157.127,77.853 144.735,139.736 148.649,144.988L148.772,145.13L149.104,145.13C149.966,141.08 153.091,134.445 155.644,130.595L155.889,130.231L156.061,130.231C156.708,133.023 158.995,136.1 161.264,139.326L161.703,139.952C164.91,144.558 167.865,149.447 165.826,154.23L165.574,155.478L165.574,155.478L165.322,156.717L171.657,158.753C178.855,162.384 179.668,165.509 182.586,171.495L182.75,171.83L184.24,171.337C183.897,166.042 182.815,161.626 184.894,155.945C185.012,156.106 185.119,156.277 185.226,156.438C186.252,156.304 187.351,157.902 188.417,159.571L188.707,160.027C189.271,160.914 189.823,161.779 190.348,162.372L190.521,162.559L190.468,162.462C192.473,164.516 195.576,165.84 198.742,167.077L199.647,167.428L199.647,167.428L200.277,167.672L200.504,167.76L200.504,167.76L200.957,167.937C207.429,170.473 213.146,173.275 209.061,181.965L208.915,182.27L189.053,191.21C178.334,197.619 149.329,196.901 135.46,193.686C132.77,190.676 129.578,188.155 126.027,186.236C125.62,183.053 123.862,180.898 122.061,178.465C122.393,175.314 122.715,172.173 123.047,169.033C117.934,173.202 109.585,184.339 109.81,193.193C108.666,193.623 107.578,194.117 106.514,194.62L105.808,194.956C102.057,196.749 98.518,198.509 93.732,197.823C93.313,198.287 87.536,203.016 81.42,207.989L79.42,209.614C72.99,214.836 66.786,219.844 66.596,219.996L66.592,220L66.431,219.839L66.431,218.349C70.397,216.956 104.74,164.842 104.826,157.446C104.835,156.493 103.542,155.657 102.229,154.716L101.9,154.478C100.261,153.274 98.756,151.877 99.911,149.85L100.024,149.664L108.598,140.232L108.598,139.406C103.906,136.618 104.584,135.648 102.117,129.806L101.974,129.47L101.149,129.138L100.821,130.053L100.821,130.053L100.484,130.96L99.831,130.628C95.95,120.841 105.501,112.116 104.118,103.981C103.198,104.543 101.745,105.312 99.984,106.198L99.264,106.558C97.303,107.535 95.028,108.629 92.714,109.732L91.845,110.145C91.41,110.352 90.975,110.558 90.542,110.764L89.778,111.126C83.94,113.892 78.606,116.404 78.297,116.843C75.735,120.488 76.057,125.236 74.663,128.752C75.818,137.662 77.424,143.12 74.673,151.394L74.492,151.926L79.294,149.782C78.972,145.762 81.705,139.556 84.428,137.991C90.46,139.73 92.665,159.255 89.175,164.616L89.058,164.788L88.061,165.281C85.667,163.04 83.927,162.108 82.189,159.539L81.941,159.161L81.78,158.989L80.451,160.318C80.012,159.815 79.572,159.322 79.122,158.828C75.756,162.891 58.714,186.397 53.472,185.807C53.282,182.912 42.767,173.286 44.617,166.4L44.704,166.106L67.707,122.417C59.55,125.836 45.69,137.723 36.923,133.339C23.227,126.486 30.137,120.414 36.468,112.049L36.863,111.523L37.059,111.258L37.059,111.258L37.255,110.991L44.372,101.558L44.704,101.73C45.753,104.064 45.289,106.119 44.664,108.119L44.482,108.689L44.299,109.258C43.904,110.487 43.547,111.712 43.547,112.985C49.187,110.704 54.335,106.923 59.476,103.049L61.404,101.595L61.404,101.595L62.344,100.889L63.08,100.34C63.326,100.157 63.572,99.975 63.818,99.794L64.557,99.252C73.318,92.866 82.516,87.535 94.489,90.033L94.996,90.143L95.157,90.304L94.171,92.126L98.641,91.794L98.962,93.284L101.106,92.951L105.747,99.736L106.24,99.404L111.203,89.479L111.868,89.639C114.429,93.509 110.828,111.237 110.046,116.286C120.029,114.695 125.969,93.718 129.312,84.622L129.414,84.344L128.75,84.516C127.357,86.838 120.591,98.834 118.265,99.069L118.16,99.072L117.163,97.26L124.108,84.012L134.377,71.15C139.136,65.897 143.456,64.107 149.104,59.563ZM168.398,170.608C166.921,172.239 160.363,173.057 153.58,173.805L152.61,173.912C146.464,174.584 140.324,175.229 137.785,176.396C137.697,177.224 137.615,178.07 137.534,178.894L137.453,179.708L136.917,179.869C134.377,178.647 133.026,178.294 131.954,175.582C130.186,176.075 130.733,176.257 129.972,174.756C124.231,189.347 168.496,176.96 174.01,175.141L174.165,175.089L174.197,174.081L168.398,170.608ZM135.267,139.01C134.019,140.652 130.847,143.322 129.884,143.17L129.8,143.147L129.768,143.104C129.451,149.161 126.549,165.229 129.178,170.229L129.307,170.458L129.639,170.458C131.46,167.096 134.354,164.176 137.289,161.332L138.09,160.558C141.97,156.812 145.758,153.139 147.07,148.69L147.186,148.271L135.599,139.17L135.267,139.01ZM118.524,117.851L117.699,117.851C115.831,118.743 114.145,119.973 112.726,121.476L112.404,121.828L109.756,120.134C109.568,126.292 109.97,130.214 112.217,133.602L112.404,133.875L113.229,134.047L113.218,134.036L118.524,117.851ZM140.047,108.879C135.161,111.656 127.352,122.743 131.135,130.949L131.269,131.228L131.772,131.228C132.861,129.862 133.428,129.657 134.011,127.539L134.088,127.251L134.077,127.208C139.511,127.926 142.534,112.567 140.047,108.879ZM146.607,65.479C144.77,67.577 142.569,69.389 140.33,71.225L139.539,71.874C135.704,75.028 131.87,78.357 129.665,83.401L129.457,83.894L129.618,84.055L133.262,81.911C135.844,87.946 134.922,89.613 133.825,96.362L133.755,96.799L133.916,96.971C137.185,96.553 138.15,94.613 141.869,95.813C143.607,93.694 149.045,68.887 148.825,66.423L148.815,66.348L147.325,66.68L146.997,66.101L146.997,66.101L146.661,65.522L146.607,65.479ZM74.995,44.353C79.186,45.125 108.523,60.806 101.32,71.15C97.698,76.337 77.268,69.66 70.697,79.917L70.697,79.917L67.557,81.74L66.71,81.933C66.71,81.933 69.088,76.469 71.701,70.664L72.226,69.5C72.343,69.241 72.46,68.982 72.578,68.724L72.929,67.95C75.388,62.548 77.761,57.543 78.307,57.097L78.307,57.097L72.519,46.175ZM137.26,20C143.005,22.229 145.246,25.67 147.979,31.255C155.654,46.872 145.61,47.065 132.748,56.411L132.748,56.411L123.315,64.986C122.822,65.587 122.329,66.198 121.825,66.798L121.825,66.798L110.742,76.734L110.078,76.563L109.306,76.595C109.572,72.364 116.604,63.904 123.78,55.097L124.716,53.946C132.828,43.965 140.755,33.756 138.932,28.929C137.625,25.467 134.377,25.199 132.801,22.315C132.888,22.047 132.946,21.77 132.973,21.49L132.973,21.49Z" fill="#000" stroke="#00000000" stroke-width="1.0" stroke-miterlimit=""/>
	</svg>
