<?xml version="1.0" encoding="utf-8"?>
	<svg version="1.1" xmlns="http://www.w3.org/2000/svg" xmlns:xlink="http://www.w3.org/1999/xlink" x="0px" y="0px" width="240.0" height="240.0" xml:space="preserve">
		<path d="M132.549,128.11C131.274,120.937 131.139,114.643 133.609,108.418C136.654,100.76 141.978,95.041 149.433,91.726C169.147,82.94 194.839,89.244 208.125,105.846C223.013,124.444 224.039,148.716 210.426,167.235C200.49,180.769 186.854,188.01 170.117,188.224C142.429,188.562 114.718,188.551 87.029,188.246C59.848,187.953 34.415,170.426 24.829,144.159C15.039,117.35 20.125,92.504 40.179,72.067C56.171,55.77 76.213,48.699 99.119,53.458C114.684,56.695 124.564,67.703 126.255,81.947C126.447,83.571 127.203,85.771 125.68,86.684C123.887,87.756 122.872,85.432 121.62,84.485C104.826,71.853 86.555,68.21 67.393,77.707C49.314,86.662 40.584,102.181 41.069,122.403C41.645,146.606 62.769,167.517 87.345,167.844C114.853,168.205 142.361,168.126 169.869,167.866C187.125,167.708 199.61,154.208 199.272,136.862C198.967,120.982 185.738,108.598 169.068,108.564C152.376,108.542 146.793,111.452 132.549,128.11Z" fill="#000" stroke="" stroke-width="" stroke-miterlimit=""/>
	</svg>
