<?xml version="1.0" encoding="utf-8"?>
	<svg version="1.1" xmlns="http://www.w3.org/2000/svg" xmlns:xlink="http://www.w3.org/1999/xlink" x="0px" y="0px" width="240.0" height="240.0" xml:space="preserve">
		<path d="M219,69.5C218,66.5 216,64.5 213,63.5L127,17.5C123,15.5 118,15.5 114,17.5L27,63.5C23,65.5 20,70.5 20,75.5V165.5C20,170.5 23,175.5 27,177.5L113,223.5C116,224.5 119,225.5 122,224.5C123,224.5 125,223.5 126,223.5L212,177.5C217,175.5 220,170.5 220,165.5V75.5C220,73.5 219,71.5 219,69.5V69.5ZM122,120.5V205.5L120,207.5L38,163.5V77.5L120,33.5L202,77.5L122,120.5V120.5Z" fill="#000" stroke="" stroke-width="" stroke-miterlimit=""/>
	</svg>
