<?xml version="1.0" encoding="utf-8"?>
	<svg version="1.1" xmlns="http://www.w3.org/2000/svg" xmlns:xlink="http://www.w3.org/1999/xlink" x="0px" y="0px" width="240.0" height="240.0" xml:space="preserve">
		<path d="M72.7,63L87,80.6L58.4,80.6L51.8,107L34.2,107L40.8,80.6L23.2,80.6L10,133.4L45.2,133.4L40.8,151L71.6,151L48.5,177.4L74.35,177.4L95.8,151L144.2,151L165.65,177.4L191.5,177.4L168.4,151L199.2,151L194.8,133.4L230,133.4L216.8,80.6L199.2,80.6L205.8,107L188.2,107L181.6,80.6L153,80.6L167.3,63L148.6,63L133.2,80.6L106.8,80.6L91.4,63L72.7,63ZM74.9,98.2L92.5,98.2L92.5,115.8L74.9,115.8L74.9,98.2ZM147.546,98.2L165.146,98.2L165.146,115.8L147.546,115.8L147.546,98.2Z" fill="#000" stroke="#00000000" stroke-width="1.0" stroke-miterlimit=""/>
	</svg>
