<?xml version="1.0" encoding="utf-8"?>
	<svg version="1.1" xmlns="http://www.w3.org/2000/svg" xmlns:xlink="http://www.w3.org/1999/xlink" x="0px" y="0px" width="240.0" height="240.0" xml:space="preserve">
		<path d="M129.204,219.967H210.564C210.609,219.508 210.884,219.295 211.302,219.127C215.257,217.467 217.982,214.639 219.396,210.566C219.503,210.262 219.773,210.02 219.97,209.75V70.332C218.642,69.795 218.786,68.328 218.196,67.344C215.212,62.353 210.618,60.254 205.15,60.156L124.023,60.078L129.167,219.664C129.159,219.766 129.171,219.869 129.204,219.967Z" fill="#000" stroke="" stroke-width="" stroke-miterlimit=""/>
		<path d="M126.247,210.613C127.222,213.63 128.198,216.646 129.17,219.664C129.671,219.722 129.947,219.405 130.221,219.091C130.259,219.048 130.296,219.005 130.334,218.963C132.482,216.61 134.63,214.256 136.777,211.902C145.37,202.483 153.963,193.065 162.576,183.668C163.322,182.857 163.42,182.18 163.076,181.144C162.227,178.582 161.408,176.01 160.588,173.439C159.672,170.563 158.756,167.686 157.797,164.824C157.388,163.594 157.613,162.832 158.506,161.963C161.138,159.394 163.748,156.799 166.244,154.103C167.47,152.779 168.211,152.869 169.453,154.152C173.346,158.176 177.278,162.164 181.21,166.152C184.158,169.142 187.107,172.133 190.039,175.139C190.879,176.004 191.351,176.18 192.215,175.184C193.465,173.75 194.822,172.389 196.256,171.139C197.433,170.115 197.494,169.459 196.306,168.295C192.385,164.456 188.498,160.582 184.612,156.708C181.503,153.609 178.394,150.51 175.269,147.43C174.347,146.521 174.301,146.008 175.154,144.992C182.101,136.709 187.515,127.566 190.383,117.062C190.715,115.853 191.375,115.668 192.449,115.672C196.05,115.687 199.648,115.67 203.247,115.653C204.687,115.647 206.127,115.64 207.568,115.635L207.629,108.021C207.47,107.885 207.314,107.75 207.154,107.615C205.473,107.629 203.792,107.649 202.111,107.669C198.148,107.715 194.186,107.762 190.224,107.742C188.536,107.733 186.848,107.752 185.16,107.772C181.41,107.815 177.66,107.859 173.912,107.59C173.783,107.614 173.655,107.643 173.526,107.672C173.258,107.733 172.991,107.794 172.72,107.807C170.092,107.947 170.092,107.939 170.088,105.393C170.086,104.578 170.08,103.761 170.075,102.945C170.06,100.903 170.046,98.86 170.084,96.82C170.105,95.701 169.785,95.246 168.592,95.266C165.465,95.324 162.33,95.344 159.203,95.23C157.765,95.176 157.49,95.766 157.515,97.021C157.543,98.382 157.536,99.744 157.529,101.105C157.522,102.671 157.514,104.236 157.56,105.799C157.605,107.205 157.174,107.701 155.724,107.672C150.892,107.574 146.06,107.541 141.228,107.611C139.732,107.635 139.105,107.094 138.662,105.697C136.315,98.257 133.919,90.829 131.524,83.402C130.748,80.997 129.973,78.593 129.199,76.189C128.336,73.502 127.475,70.817 126.613,68.131C125.751,65.446 124.89,62.76 124.027,60.074C122.977,56.858 121.923,53.644 120.87,50.429C117.856,41.234 114.843,32.038 111.912,22.816C111.301,20.893 110.433,20.402 108.511,20.406C89.402,20.461 70.297,20.46 51.192,20.459C45.981,20.458 40.77,20.458 35.56,20.459C26.125,20.463 20.465,26.148 20.461,35.631L20.461,35.693C20.457,79.742 20.453,123.791 20.453,167.84C20.453,168.59 20.465,169.34 20.506,170.086C20.711,173.857 22.74,176.766 25.293,179.23C28.121,181.951 31.76,182.664 35.633,182.66C45.969,182.645 56.305,182.644 66.641,182.642C82.664,182.639 98.688,182.636 114.711,182.586C116.744,182.582 117.49,183.271 118.064,185.09C120.75,193.611 123.499,202.112 126.247,210.613ZM87.77,95.807C88.821,95.803 89.872,95.8 90.923,95.799C91.07,95.799 91.217,95.799 91.364,95.799C92.53,95.799 93.696,95.802 94.861,95.804C96.38,95.808 97.899,95.811 99.417,95.808C100.957,95.805 102.496,95.796 104.035,95.775C105.053,95.761 105.621,95.978 105.915,96.82C105.974,96.989 106.023,97.183 106.061,97.406C108.651,112.537 100.217,130.574 79.934,132.545C64.748,134.024 51.583,124.678 47.031,111.56C46.612,110.353 46.266,109.114 45.998,107.848C43.293,95.074 49.011,81.828 60.4,74.803C71.453,67.988 85.961,68.955 95.99,77.123C96.484,77.527 96.839,77.86 96.958,78.206C97.109,78.634 96.9,79.082 96.151,79.709C94.452,81.128 92.875,82.699 91.301,84.267C90.943,84.624 90.585,84.981 90.225,85.336C89.569,85.979 89.176,86.266 88.241,85.541C79.266,78.553 66.516,80.787 60.204,90.381C56.604,95.856 56.053,102.52 58.057,108.279C59.593,112.69 62.63,116.57 66.945,118.975C76.101,124.078 87.556,121.459 92.543,113.123C93.461,111.59 94.031,109.93 94.506,108.209C94.747,107.33 94.689,106.836 94.244,106.597C93.991,106.463 93.614,106.411 93.098,106.418C90.857,106.447 88.615,106.442 86.373,106.437C83.777,106.431 81.181,106.425 78.586,106.471C77.69,106.488 77.091,106.373 76.764,105.948C76.522,105.638 76.428,105.161 76.474,104.447C76.613,102.205 76.605,99.947 76.478,97.705C76.388,96.115 77.019,95.742 78.486,95.771C81.58,95.827 84.675,95.817 87.77,95.807ZM161.748,115.697V115.639C163.461,115.639 165.174,115.644 166.887,115.649C171.17,115.66 175.453,115.672 179.736,115.611C181.396,115.586 181.498,116.148 181.023,117.463C178.232,125.168 174.113,132.094 168.933,138.422C168.158,139.369 167.748,139.377 166.974,138.426C163.863,134.611 161.06,130.598 158.83,126.209C158.261,125.082 157.601,124.611 156.322,124.672C154.952,124.735 153.58,124.712 152.207,124.688C151.535,124.677 150.863,124.665 150.191,124.664C148.969,124.662 148.367,124.661 148.196,124.932C148.029,125.197 148.276,125.724 148.761,126.766C151.703,133.107 155.511,138.885 159.924,144.295C160.907,145.498 161.407,145.907 161.388,146.29C161.37,146.682 160.808,147.048 159.666,148.213C159.044,148.847 158.395,149.455 157.747,150.062C156.954,150.807 156.161,151.551 155.416,152.34C154.416,153.402 153.904,153.443 153.429,151.934C152.498,148.995 151.541,146.065 150.584,143.134C149.805,140.748 149.026,138.362 148.261,135.971C147.57,133.81 146.892,131.645 146.214,129.48C144.954,125.454 143.694,121.428 142.351,117.43C141.842,115.926 142.15,115.672 143.56,115.68C148.026,115.708 152.494,115.704 156.962,115.7C158.557,115.698 160.153,115.697 161.748,115.697Z" fill="#000" stroke="" stroke-width="" stroke-miterlimit=""/>
	</svg>
