<?xml version="1.0" encoding="utf-8"?>
	<svg version="1.1" xmlns="http://www.w3.org/2000/svg" xmlns:xlink="http://www.w3.org/1999/xlink" x="0px" y="0px" width="240.0" height="240.0" xml:space="preserve">
		<path d="M174.623,117.848C161.955,127.3 149.282,136.746 136.619,146.203C131.771,149.819 126.892,153.394 122.133,157.125C120.652,158.284 119.691,158.33 118.147,157.161C101.468,144.55 84.721,132.028 67.99,119.49C67.232,118.924 66.426,118.414 65.647,117.884C65.423,117.625 65.2,117.365 64.977,117.105C66.026,116.32 65.559,115.188 65.559,114.216C65.595,95.786 65.59,77.361 65.595,58.93C77.582,67.868 89.575,76.794 101.557,85.737C107.101,89.873 112.671,93.978 118.132,98.223C119.628,99.387 120.579,99.381 122.102,98.233C138.796,85.612 155.548,73.074 172.29,60.526C173.043,59.959 173.859,59.476 174.644,58.956C174.649,65.955 174.644,72.96 174.659,79.959C174.685,92.486 174.727,105.019 174.763,117.547C174.727,117.656 174.685,117.755 174.623,117.848Z" fill="#000" stroke="" stroke-width="" stroke-miterlimit=""/>
		<path d="M64.969,117.1C65.192,117.36 65.416,117.62 65.639,117.879C65.619,142.529 65.556,167.184 65.639,191.834C65.65,194.422 65.073,195.155 62.413,195.098C53.247,194.91 44.076,195.04 34.905,195.02C25.89,195.004 20.288,189.449 20.283,180.517C20.273,149.289 20.278,118.061 20.288,86.839C20.288,85.898 20.127,84.932 20.543,84.022C21.25,84.511 21.967,84.983 22.658,85.498C36.765,96.03 50.867,106.563 64.969,117.1Z" fill="#000" stroke="" stroke-width="" stroke-miterlimit=""/>
		<path d="M219.537,84.199C220.238,85.03 219.932,86.022 219.932,86.942C219.947,118.165 219.952,149.388 219.942,180.611C219.937,189.366 214.299,194.988 205.487,195.025C196.144,195.056 186.802,194.926 177.465,195.103C174.929,195.149 174.596,194.261 174.602,192.058C174.664,167.325 174.628,142.586 174.622,117.853C174.685,117.76 174.726,117.661 174.752,117.552C175.433,117.048 176.119,116.549 176.794,116.045C185.425,109.566 194.045,103.065 202.696,96.612C208.282,92.434 213.92,88.33 219.537,84.199Z" fill="#000" stroke="" stroke-width="" stroke-miterlimit=""/>
		<path d="M64.969,117.1C50.867,106.562 36.765,96.03 22.658,85.498C21.967,84.983 21.25,84.51 20.543,84.022C20.2,76.353 19.369,68.579 20.855,61.05C23.624,47.032 39.903,40.552 51.719,48.502C56.51,51.729 60.978,55.434 65.592,58.925C65.587,77.356 65.587,95.781 65.556,114.211C65.551,115.177 66.024,116.315 64.969,117.1Z" fill="#000" stroke="" stroke-width="" stroke-miterlimit=""/>
		<path d="M219.534,84.199C213.917,88.33 208.28,92.429 202.689,96.602C194.037,103.055 185.417,109.555 176.787,116.035C176.111,116.544 175.425,117.043 174.745,117.542C174.708,105.009 174.672,92.481 174.641,79.954C174.625,72.955 174.63,65.95 174.625,58.951C179.234,55.46 183.692,51.75 188.488,48.539C195.045,44.148 202.148,43.878 209.09,47.536C216.032,51.194 219.784,57.133 219.893,65.109C219.971,70.726 219.914,76.337 219.903,81.954C219.903,82.718 220.09,83.523 219.534,84.199Z" fill="#000" stroke="" stroke-width="" stroke-miterlimit=""/>
	</svg>
