<?xml version="1.0" encoding="utf-8"?>
	<svg version="1.1" xmlns="http://www.w3.org/2000/svg" xmlns:xlink="http://www.w3.org/1999/xlink" x="0px" y="0px" width="240.0" height="240.0" xml:space="preserve">
		<path d="M215.826,71.897C213.527,63.281 206.741,56.495 198.147,54.196C182.545,50 120,50 120,50C120,50 57.455,50 41.853,54.174C33.237,56.473 26.473,63.259 24.174,71.875C20,87.5 20,120.089 20,120.089C20,120.089 20,152.679 24.174,168.281C26.473,176.897 33.259,183.683 41.853,185.982C57.455,190.179 120,190.179 120,190.179C120,190.179 182.545,190.179 198.147,185.982C206.763,183.683 213.527,176.897 215.826,168.281C220,152.679 220,120.089 220,120.089C220,120.089 220,87.5 215.826,71.897ZM100.134,150V90.179L151.92,119.866L100.134,150Z" fill="#000" stroke="" stroke-width="" stroke-miterlimit=""/>
	</svg>
