<?xml version="1.0" encoding="utf-8"?>
	<svg version="1.1" xmlns="http://www.w3.org/2000/svg" xmlns:xlink="http://www.w3.org/1999/xlink" x="0px" y="0px" width="240.0" height="240.0" xml:space="preserve">
		<path d="M120.137,219.989C65.505,220.912 19.04,174.425 20.015,118.212C20.939,64.861 66.033,18.77 122.466,20.023C175.658,21.201 220.162,65.785 220.179,120.11C220.196,174.833 174.666,220.816 120.137,219.989ZM119.729,61.274C87.341,61.285 61.232,87.428 61.221,119.861C61.21,152.759 87.165,178.845 119.842,178.913C151.216,178.975 178.798,154.142 178.764,120.025C178.735,85.915 151.108,61.081 119.729,61.274Z" fill="#000" stroke="" stroke-width="" stroke-miterlimit=""/>
		<path d="M171.829,120.145C172.056,146.933 150.589,172.039 119.941,172.044C89.82,172.05 67.859,147.806 67.961,119.878C68.063,92.398 89.627,68.239 119.782,68.12C150.311,67.995 172.101,93.033 171.829,120.145ZM100.423,120.054C100.423,128.923 100.468,137.786 100.389,146.656C100.366,148.951 100.961,149.268 102.911,148.14C118.325,139.192 133.763,130.283 149.217,121.397C150.866,120.451 151.082,119.878 149.257,118.835C133.802,109.955 118.365,101.041 102.967,92.069C100.667,90.726 100.372,91.542 100.394,93.741C100.468,102.508 100.423,111.281 100.423,120.054Z" fill="#000" stroke="" stroke-width="" stroke-miterlimit=""/>
	</svg>
