<?xml version="1.0" encoding="utf-8"?>
	<svg version="1.1" xmlns="http://www.w3.org/2000/svg" xmlns:xlink="http://www.w3.org/1999/xlink" x="0px" y="0px" width="240.0" height="240.0" xml:space="preserve">
		<path d="M120.448,206.843C119.468,206.528 119.31,205.789 119.062,205.153C112.39,188.279 105.729,171.398 99.063,154.517C97.803,151.332 96.605,148.123 95.242,144.981C94.588,143.467 94.534,142.232 95.388,140.724C108.751,117.244 122.065,93.733 135.362,70.216C136.457,68.272 137.989,67.116 140.09,66.28C154.319,60.613 168.5,54.812 182.692,49.048C194.741,44.156 206.784,39.251 218.839,34.365C219.1,34.256 219.42,34.299 219.747,34.262C220.444,35.352 219.529,35.958 219.057,36.636C196.788,68.69 174.506,100.738 152.23,132.786C149.966,136.038 150.038,135.747 147.689,132.635C143.669,127.295 143.996,123.056 147.998,117.462C157.498,104.189 166.114,90.282 175.075,76.628C175.898,75.374 176.637,74.073 177.927,71.953C172.574,73.582 168.027,74.945 163.492,76.343C161.567,76.937 159.696,77.869 157.728,78.172C150.904,79.213 147.011,83.488 143.578,89.167C133.309,106.169 122.659,122.953 112.014,139.725C109.98,142.928 109.374,146.004 110.071,149.728C113.298,167.075 116.331,184.458 119.437,201.823C119.595,202.707 119.801,203.585 120.164,205.317C121.514,197.833 122.737,191.185 123.918,184.525C126.049,172.512 128.096,160.487 130.324,148.492C130.802,145.919 130.421,143.703 129.107,141.56C127.678,139.241 126.255,136.922 124.766,134.651C123.997,133.477 123.512,132.362 124.366,131.024C126.534,127.628 128.701,124.225 130.833,120.798C131.735,119.357 132.522,119.193 133.418,120.792C137.305,127.749 141.198,134.694 145.098,141.638C145.643,142.613 145.485,143.534 145.098,144.533C137.154,164.81 129.234,185.1 121.296,205.383C121.102,205.916 120.727,206.383 120.448,206.843Z" fill="#000" stroke="" stroke-width="" stroke-miterlimit=""/>
		<path d="M62.389,72.729C67.796,80.975 73.215,89.222 78.61,97.475C84.017,105.745 89.363,114.059 94.849,122.275C96.035,124.049 96.126,125.43 94.909,127.192C93.65,129.008 92.675,131.024 91.591,132.956C90.047,135.717 89.805,135.747 88.067,133.246C81.619,123.976 75.177,114.701 68.74,105.425C53.458,83.391 38.182,61.358 22.906,39.318C22.385,38.573 21.876,37.817 21.458,37.017C20.992,36.109 19.339,35.316 20.29,34.293C21.083,33.439 22.288,34.686 23.269,35.08C40.289,41.928 57.309,48.782 74.317,55.666C83.284,59.293 92.227,62.992 101.2,66.613C102.853,67.279 103.652,68.648 104.44,70.046C107.861,76.107 111.209,82.204 114.696,88.223C115.58,89.743 115.526,90.911 114.648,92.395C112.432,96.124 110.313,99.909 108.284,103.741C107.146,105.891 106.329,105.57 105.215,103.753C101.2,97.226 97.119,90.742 93.087,84.233C92.221,82.84 91.295,81.466 89.751,80.824C81.001,77.197 71.816,74.957 62.855,72.002C62.698,72.244 62.54,72.486 62.389,72.729Z" fill="#000" stroke="" stroke-width="" stroke-miterlimit=""/>
	</svg>
