<?xml version="1.0" encoding="utf-8"?>
	<svg version="1.1" xmlns="http://www.w3.org/2000/svg" xmlns:xlink="http://www.w3.org/1999/xlink" x="0px" y="0px" width="240.0" height="240.0" xml:space="preserve">
		<path d="M104.799,23C106.836,23.163 108.876,23.321 110.91,23.496C128.649,25 145.213,30.197 160.532,39.304C160.844,39.49 161.254,39.593 161.454,40.206C159.632,39.63 157.939,39.055 156.223,38.562C147.617,36.089 138.856,34.574 129.895,34.133C118.788,33.586 107.956,34.766 97.66,39.158C89.601,42.596 82.459,47.532 75.893,53.296C72.091,56.633 68.264,59.948 64.712,63.555C55.802,72.605 48.554,82.852 42.646,94.079C38.329,102.281 35.155,110.893 33.121,119.929C32.849,121.135 32.608,122.361 32.68,123.613C32.792,125.627 33.892,126.329 35.779,125.55C36.983,125.051 37.971,124.218 38.957,123.375C46.5,116.918 53.65,110.022 61.093,103.456C69.553,95.993 78.328,88.94 88.037,83.133C92.443,80.497 97.17,78.724 102.361,78.667C107.168,78.615 111.689,79.941 116.018,81.978C123.295,85.405 129.657,90.189 135.785,95.32C145.947,103.826 155.003,113.469 164.219,122.948C167.679,126.507 171.16,130.047 174.638,133.588C175.882,134.855 177.239,135.986 178.844,136.771C181.015,137.834 182.282,137.112 182.393,134.717C182.602,130.199 181.545,125.851 180.03,121.691C175.936,110.466 171.2,99.52 164.995,89.267C163.139,86.198 161.11,83.253 158.612,80.655C158.369,80.4 157.865,80.179 158.074,79.752C158.286,79.32 158.764,79.623 159.119,79.632C165.465,79.772 171.819,80.045 178.065,78.503C180.015,78.022 181.921,77.423 183.717,76.501C189.117,73.728 190.996,69.365 189.338,63.497C188.822,61.672 187.985,59.976 187.097,58.08C187.968,58.246 188.289,58.742 188.662,59.129C198.282,69.109 205.624,80.595 211.108,93.289C215.396,103.213 218.218,113.555 219.324,124.306C221.034,140.917 219.668,157.209 213.302,172.811C205.868,191.037 192.483,203.204 174.357,210.392C164.606,214.259 154.444,216.276 144.004,217.084C141.919,217.245 139.807,217.067 137.745,217.528C134.688,217.528 131.634,217.528 128.577,217.528C128.302,217.459 128.03,217.351 127.752,217.33C121.836,216.895 116.018,215.867 110.271,214.428C90.097,209.378 72.252,199.978 57.057,185.72C44.517,173.957 35.092,159.991 28.213,144.286C23.991,134.643 21.369,124.576 20.435,114.065C20.249,111.973 20.458,109.862 20,107.799C20,106.559 20,105.315 20,104.075C20.069,103.657 20.195,103.235 20.195,102.817C20.192,99.517 20.556,96.248 21.06,92.997C24.048,73.753 32.345,57.286 46.803,44.091C58.704,33.23 72.81,26.922 88.57,24.083C91.67,23.524 94.804,23.327 97.924,23C100.215,23 102.507,23 104.799,23Z" fill="#000" stroke="" stroke-width="" stroke-miterlimit=""/>
	</svg>
