<?xml version="1.0" encoding="utf-8"?>
	<svg version="1.1" xmlns="http://www.w3.org/2000/svg" xmlns:xlink="http://www.w3.org/1999/xlink" x="0px" y="0px" width="240.0" height="240.0" xml:space="preserve">
		<path d="M34.052,143.438L0,143.438L0,95L10.786,95L10.786,134.053L34.052,134.053L34.052,143.442L34.052,143.438ZM71.905,139.075C64.407,144.439 56.234,145.923 47.55,142.756C38.715,139.539 33.915,130.467 35.507,120.789C36.984,111.812 44.788,105.024 54.305,104.437C63.391,104.079 71.578,109.886 74.246,118.579C74.863,120.659 74.371,121.464 72.449,122.254C65.614,125.078 58.852,128.084 52.066,131.031C51.188,131.407 50.34,131.838 49.152,132.403C54.359,135.999 60.161,135.551 67.85,131.144L74.726,137.101C73.644,137.859 72.766,138.458 71.905,139.075L71.905,139.075ZM52.151,114.157C47.538,115.899 45.327,119.644 46.12,124.796L63.353,117.696C60.993,113.929 56.251,112.426 52.151,114.145L52.151,114.157ZM116.645,142.647L106.174,142.647L106.174,131.445C106.174,128.517 106.191,125.587 106.174,122.659C106.134,117.39 103.216,113.786 98.944,113.693C93.436,113.573 89.195,117.331 89.074,122.671C88.951,128.233 89.038,133.795 89.034,139.362L89.034,142.668L78.579,142.668L78.579,106.134L88.009,106.134L88.43,109.114C91.92,107.107 95.745,105.751 99.72,105.111C108.342,103.982 115.815,109.296 116.508,118.179C117.135,126.209 116.636,134.33 116.636,142.647L116.645,142.647ZM140.927,143.679C135.634,143.745 130.532,141.706 126.743,138.01C122.953,134.313 120.788,129.263 120.723,123.97L120.723,123.755C120.697,112.754 129.574,103.805 140.574,103.742C151.575,103.68 160.553,112.528 160.651,123.528C160.75,134.528 151.931,143.535 140.932,143.669L140.927,143.679ZM140.737,113.663C135.191,113.677 130.697,118.168 130.678,123.715C130.659,129.202 135.089,133.667 140.577,133.691L140.742,133.691C146.175,133.64 150.591,129.293 150.726,123.861C150.702,118.32 146.277,113.802 140.737,113.663ZM175.431,143.485L158.894,106.11L170.749,106.11L180.408,129.7L189.923,106.11L201.047,106.11L186.411,143.473L175.431,143.473L175.431,143.485ZM239.998,123.568C240.14,134.592 231.317,143.643 220.293,143.784C209.269,143.925 200.218,135.103 200.077,124.079L200.077,123.734C199.975,116.555 203.736,109.874 209.926,106.238C216.117,102.601 223.783,102.569 230.004,106.154C236.225,109.739 240.041,116.388 239.998,123.568L239.998,123.568ZM219.963,113.667C214.428,113.824 210.014,118.343 209.987,123.88C210.145,129.309 214.565,133.643 219.996,133.696C225.483,133.756 229.981,129.36 230.046,123.873L230.046,123.703C230.003,118.16 225.506,113.684 219.963,113.667L219.963,113.667Z" fill="#000" stroke="#00000000" stroke-width="1.0" stroke-miterlimit=""/>
	</svg>
