<?xml version="1.0" encoding="utf-8"?>
	<svg version="1.1" xmlns="http://www.w3.org/2000/svg" xmlns:xlink="http://www.w3.org/1999/xlink" x="0px" y="0px" width="240.0" height="240.0" xml:space="preserve">
		<path d="M140,20H57.209C52.266,21.862 48.815,25.222 46.992,30.229V209.686C47.119,209.946 47.246,210.206 47.373,210.465C47.619,210.972 47.866,211.476 48.114,211.981C50.688,217.249 54.926,219.977 60.775,219.983C100.009,220.011 139.244,220.023 178.478,219.977C186.514,219.966 192.289,214.185 192.295,206.155C192.317,184.681 192.32,163.208 192.324,141.734C192.327,118.823 192.331,95.911 192.357,73H140V20ZM129.813,108.502C126.413,108.5 123.012,108.498 119.612,108.498C116.338,108.498 113.064,108.495 109.789,108.491C100.691,108.481 91.592,108.471 82.496,108.538C79.842,108.555 78.766,107.735 78.823,104.967C78.918,100.546 78.683,98.65 79.509,97.853C80.32,97.072 82.152,97.35 86.318,97.341C104.574,97.31 122.83,97.317 141.087,97.325C146.067,97.327 151.047,97.329 156.028,97.33C160.311,97.336 160.379,97.387 160.362,101.567C160.347,105.447 160.541,107.171 159.777,107.929C159.025,108.675 157.343,108.484 153.619,108.493C145.681,108.509 137.747,108.505 129.813,108.502ZM129.955,135.766C126.467,135.764 122.98,135.762 119.493,135.762C115.432,135.762 111.371,135.762 107.31,135.763C99.186,135.764 91.061,135.765 82.935,135.762C79.011,135.756 78.851,135.619 78.868,131.832C78.888,127.727 78.67,125.922 79.461,125.142C80.255,124.36 82.065,124.61 86.153,124.605C105.162,124.577 124.172,124.583 143.182,124.589C147.409,124.591 151.636,124.592 155.863,124.593C160.35,124.593 160.379,124.61 160.362,128.95C160.348,132.746 160.529,134.444 159.772,135.195C159.011,135.949 157.303,135.747 153.499,135.756C145.649,135.776 137.801,135.771 129.955,135.766ZM114.918,163.025C112.709,163.022 110.499,163.019 108.29,163.019C106.119,163.018 103.947,163.014 101.776,163.01C95.26,162.998 88.743,162.986 82.229,163.042C79.859,163.065 78.789,162.313 78.834,159.79C78.915,155.138 78.659,153.171 79.508,152.359C80.342,151.562 82.242,151.879 86.574,151.862C98.846,151.813 111.115,151.827 123.383,151.841C126.789,151.844 130.194,151.848 133.6,151.851C137.524,151.851 137.683,151.987 137.666,155.775C137.646,159.877 137.864,161.675 137.076,162.452C136.284,163.234 134.475,162.985 130.388,163.008C125.229,163.04 120.073,163.032 114.918,163.025Z" fill="#000" stroke="" stroke-width="" stroke-miterlimit=""/>
		<path d="M143,70H193L143,20V70Z" fill="#000" stroke="" stroke-width="" stroke-miterlimit=""/>
	</svg>
