<?xml version="1.0" encoding="utf-8"?>
	<svg version="1.1" xmlns="http://www.w3.org/2000/svg" xmlns:xlink="http://www.w3.org/1999/xlink" x="0px" y="0px" width="240.0" height="240.0" xml:space="preserve">
		<path d="M120.004,220C101.244,220 82.489,220.005 63.729,219.995C57.431,219.989 54.11,216.695 54.066,210.348C54.016,203.211 53.978,196.073 54.093,188.936C54.132,186.52 53.231,185.752 50.876,185.785C43.739,185.889 36.601,185.839 29.464,185.817C23.54,185.801 20.021,182.381 20.021,176.457C19.993,138.76 19.993,101.059 20.021,63.362C20.026,57.636 23.534,54.259 29.684,54.111C35.536,53.974 41.394,54.111 47.252,54.056C55.625,53.974 54.439,55.204 54.516,46.782C54.571,40.742 54.5,34.703 54.538,28.664C54.571,23.42 57.838,20.033 63.119,20.028C101.002,19.989 138.88,19.989 176.763,20.028C182.363,20.033 185.756,23.569 185.805,29.24C185.866,36.377 185.915,43.515 185.772,50.652C185.717,53.337 186.711,54.133 189.291,54.084C196.149,53.952 203.017,54.023 209.88,54.045C216.798,54.067 220.004,57.246 220.01,64.054C220.015,101.388 220.015,138.716 220.01,176.05C220.01,182.869 216.973,185.872 210.116,185.883C203.16,185.889 196.204,185.993 189.253,185.828C186.546,185.763 185.816,186.734 185.871,189.315C186.014,196.54 185.942,203.771 185.909,211.001C185.882,216.695 182.571,219.989 176.829,219.995C157.882,220.011 138.946,219.995 120.004,220ZM144.903,91.769C153.5,91.769 162.093,91.813 170.69,91.753C175.033,91.725 177.542,89.348 177.498,85.56C177.454,81.854 175.088,79.828 170.696,79.822C151.584,79.811 132.473,79.811 113.361,79.822C109.1,79.822 107.766,80.761 106.147,84.758C99.657,100.773 93.179,116.788 86.678,132.803C86.382,133.528 86.354,134.659 85.404,134.725C84.378,134.796 84.35,133.627 84.026,132.93C80.738,125.787 77.537,118.605 74.188,111.496C72.606,108.135 69.142,106.966 65.908,108.426C63.053,109.717 61.708,113.154 63.136,116.327C68.769,128.828 74.49,141.291 80.221,153.749C81.314,156.121 83.241,157.274 85.937,157.219C89.703,157.142 90.999,154.468 92.163,151.58C99.838,132.595 107.547,113.62 115.145,94.602C115.991,92.483 117.105,91.692 119.389,91.72C127.894,91.84 136.398,91.769 144.903,91.769ZM132.462,104.638C130.661,104.638 129.563,104.627 128.465,104.638C125.439,104.671 125.379,104.764 126.982,107.466C130.946,114.147 134.806,120.895 138.962,127.461C140.554,129.976 140.604,131.793 138.874,134.302C134.312,140.923 130.057,147.759 125.736,154.539C124.199,156.955 124.358,157.175 127.257,157.213C129.266,157.241 131.287,157.109 133.291,157.246C135.317,157.389 136.431,156.543 137.359,154.775C140.203,149.351 143.206,144.014 146.171,138.656C146.511,138.047 146.632,137.069 147.472,137.042C148.35,137.014 148.438,138.008 148.768,138.612C150.717,142.236 152.649,145.865 154.549,149.516C158.612,157.317 158.601,157.334 167.248,157.202C168.099,157.191 169.252,157.658 169.724,156.631C170.097,155.83 169.279,155.116 168.862,154.435C164.695,147.66 160.632,140.819 156.267,134.176C154.615,131.661 154.626,129.811 156.256,127.308C160.599,120.648 164.635,113.79 168.846,107.043C169.883,105.379 170.097,104.457 167.605,104.611C165.601,104.737 163.575,104.743 161.577,104.611C159.649,104.484 158.595,105.308 157.733,106.977C154.961,112.336 152.051,117.617 149.179,122.926C148.888,123.47 148.757,124.271 148.032,124.332C147.203,124.403 147.154,123.514 146.879,122.987C144.612,118.6 142.124,114.307 140.208,109.772C138.534,105.813 136.376,103.408 132.462,104.638Z" fill="#000" stroke="" stroke-width="" stroke-miterlimit=""/>
	</svg>
