<?xml version="1.0" encoding="utf-8"?>
	<svg version="1.1" xmlns="http://www.w3.org/2000/svg" xmlns:xlink="http://www.w3.org/1999/xlink" x="0px" y="0px" width="240.0" height="240.0" xml:space="preserve">
		<path d="M203.334,45L36.666,45C27.462,45 20,52.462 20,61.666L20,178.334C20,187.538 27.462,195 36.666,195L203.334,195C212.538,195 220,187.538 220,178.334L220,61.666C220,52.462 212.538,45 203.334,45ZM90.639,137.871L58.322,159.42C54.495,161.913 49.374,160.86 46.84,157.06C44.306,153.26 45.303,148.127 49.076,145.553L81.393,124.004C85.22,121.511 90.341,122.563 92.875,126.364C95.409,130.164 94.412,135.296 90.639,137.871L90.639,137.871ZM49.477,82.988C46.976,81.372 45.528,78.544 45.677,75.571C45.827,72.597 47.552,69.929 50.202,68.571C52.852,67.214 56.025,67.374 58.525,68.99L120.334,108.988L182.143,68.99C184.643,67.374 187.816,67.214 190.466,68.571C193.116,69.929 194.841,72.597 194.991,75.571C195.14,78.544 193.692,81.372 191.191,82.988L120.334,128.846L49.477,82.988ZM193.9,157.109C192.675,158.948 190.769,160.225 188.602,160.659C186.435,161.092 184.184,160.646 182.346,159.42L150.029,137.871C147.552,136.22 146.144,133.372 146.336,130.401C146.527,127.431 148.289,124.787 150.958,123.468C153.626,122.148 156.796,122.353 159.273,124.004L191.59,145.553C193.43,146.778 194.707,148.684 195.141,150.852C195.574,153.02 195.128,155.271 193.9,157.109L193.9,157.109Z" fill="#000" stroke="#00000000" stroke-width="1.0" stroke-miterlimit=""/>
	</svg>
