<?xml version="1.0" encoding="utf-8"?>
	<svg version="1.1" xmlns="http://www.w3.org/2000/svg" xmlns:xlink="http://www.w3.org/1999/xlink" x="0px" y="0px" width="240.0" height="240.0" xml:space="preserve">
		<path d="M120.078,132.078C120.078,139.445 120.078,146.812 120.078,154.179C120.078,173.851 120.084,193.529 120.078,213.2C120.078,218.785 118.767,220.267 113.234,219.955C94.793,218.916 80.627,210.357 71.739,194.289C55.188,164.378 71.784,128.366 105.163,120.868C105.884,120.704 106.604,120.533 107.314,120.102C105.946,120.102 104.578,120.102 103.21,120.102C77.766,120.102 52.322,120.102 26.878,120.102C21.123,120.102 19.698,118.842 20.05,113.059C21.163,94.749 29.693,80.65 45.659,71.825C75.621,55.263 111.61,71.83 119.097,105.203C119.261,105.924 119.426,106.651 119.84,107.349C119.84,105.788 119.84,104.222 119.84,102.661C119.84,77.404 119.84,52.147 119.84,26.896C119.84,21.146 121.106,19.915 126.872,20.006C149.393,20.352 170.371,38.832 173.952,61.484C178.368,89.414 160.966,113.961 132.73,119.949C133.643,119.949 134.551,119.949 135.465,119.949C161.29,119.949 187.108,119.949 212.933,119.949C218.722,119.949 219.988,121.226 219.914,126.913C219.602,149.57 201.105,170.372 178.09,173.953C151.011,178.164 126.322,161.035 120.788,134.201C120.64,133.485 120.476,132.77 120.322,132.049C120.243,132.061 120.164,132.066 120.078,132.078Z" fill="#000" stroke="" stroke-width="" stroke-miterlimit=""/>
	</svg>
