<?xml version="1.0" encoding="utf-8"?>
	<svg version="1.1" xmlns="http://www.w3.org/2000/svg" xmlns:xlink="http://www.w3.org/1999/xlink" x="0px" y="0px" width="240.0" height="240.0" xml:space="preserve">
		<path d="M0.097,143C0.066,142.836 0.008,142.672 0.008,142.508C0.003,139.855 0.005,137.202 0.008,134.55C0.008,134.456 0.032,134.363 0.055,134.193C0.364,134.176 0.668,134.144 0.971,134.144C8.998,134.141 17.026,134.149 25.053,134.139C31.94,134.13 38.826,134.115 45.712,134.073C48.887,134.053 52.064,134.027 55.233,133.865C56.236,133.814 57.276,133.434 58.195,132.991C59.778,132.229 60.522,130.837 60.478,129.101C60.435,127.355 59.561,126.094 57.975,125.334C56.635,124.691 55.196,124.503 53.735,124.479C51.334,124.441 48.934,124.43 46.533,124.426C31.377,124.402 16.221,124.384 1.064,124.361C-0.149,124.36 0.008,124.446 0.005,123.324C-0.001,121.057 0.003,118.79 0.003,116.523L0.003,115.675C0.298,115.653 0.53,115.622 0.762,115.62C1.757,115.615 2.751,115.619 3.745,115.617C16.743,115.597 29.741,115.578 42.739,115.554C46.328,115.547 49.917,115.556 53.505,115.488C54.633,115.466 55.788,115.333 56.877,115.047C59.124,114.456 60.55,112.623 60.491,110.623C60.43,108.531 58.901,106.646 56.609,106.267C54.759,105.962 52.851,105.921 50.967,105.915C34.284,105.859 17.6,105.837 0.916,105.805C0.651,105.804 0.386,105.805 0.062,105.805L0.062,97.001L0.813,97.001C12.794,97.001 24.774,96.998 36.755,97.002C40.417,97.003 44.079,96.993 47.74,97.041C50.671,97.079 53.612,97.063 56.528,97.312C60.546,97.654 64.171,99.044 66.99,102.068C71.618,107.031 71.59,114.49 66.943,119.445C66.795,119.603 66.644,119.759 66.459,119.954C66.707,120.23 66.948,120.492 67.183,120.76C72.863,127.245 70.889,136.842 63.058,140.806C60.117,142.294 56.95,142.783 53.698,142.828C50.207,142.875 46.715,142.867 43.223,142.891C42.964,142.893 42.705,142.962 42.446,143L0.097,143ZM169.347,143C169.365,140.276 169.401,137.552 169.385,134.829C169.381,134.215 169.577,134.064 170.17,134.067C174.68,134.089 179.191,134.072 183.701,134.082C186.198,134.087 188.695,134.149 191.191,134.136C196.548,134.106 201.906,134.097 207.261,133.977C210.551,133.903 213.858,133.816 217.119,133.419C221.275,132.913 224.873,131.133 227.431,127.699C232.167,121.339 230.213,112.582 223.206,108.565C220.654,107.102 217.872,106.383 214.965,106.243C211.094,106.056 207.217,105.953 203.341,105.913C196.117,105.839 188.891,105.828 181.667,105.808C177.884,105.798 174.101,105.827 170.319,105.839C170.033,105.839 169.747,105.839 169.414,105.839L169.414,97.001C169.654,97.001 169.908,97.001 170.163,97.001C178.747,97.011 187.331,97.007 195.915,97.038C200.666,97.054 205.417,97.098 210.167,97.186C214.09,97.259 218.019,97.319 221.859,98.295C228.416,99.963 233.704,103.41 237.123,109.32C242.972,119.431 239.632,132.125 229.56,138.416C225.786,140.773 221.651,142.107 217.242,142.376C212.288,142.679 207.317,142.731 202.352,142.842C199.443,142.907 196.533,142.872 193.623,142.891C193.39,142.893 193.156,142.962 192.923,143L169.347,143ZM116.083,143C116.09,139.022 116.1,135.045 116.103,131.067C116.107,126.654 116.104,122.242 116.104,117.829L116.104,116.963C116.453,116.948 116.757,116.922 117.06,116.922C122.565,116.919 128.069,116.931 133.573,116.916C136.651,116.908 139.729,116.867 142.806,116.818C143.409,116.808 144.019,116.739 144.61,116.622C147.235,116.102 148.39,114.514 148.408,111.376C148.433,106.892 148.433,102.407 148.443,97.923C148.444,97.64 148.443,97.357 148.443,97.038L158.703,97.038C158.703,97.306 158.703,97.561 158.703,97.817C158.692,102.639 158.731,107.462 158.648,112.283C158.613,114.346 158.476,116.431 158.117,118.459C157.418,122.411 155.324,124.511 151.336,125.147C148.838,125.546 146.281,125.686 143.746,125.733C138.778,125.824 133.807,125.77 128.837,125.777C128.646,125.777 128.454,125.794 128.162,125.808L128.162,143L116.083,143ZM111.625,116.955L111.625,125.81C110.115,125.81 108.643,125.816 107.172,125.808C102.808,125.784 98.442,125.802 94.079,125.705C92.197,125.662 90.295,125.515 88.448,125.174C84.358,124.418 82.232,122.246 81.644,118.153C81.317,115.872 81.215,113.548 81.18,111.241C81.111,106.708 81.16,102.173 81.161,97.639C81.161,97.451 81.183,97.263 81.197,97.04L91.332,97.04C91.346,97.318 91.373,97.596 91.373,97.873C91.375,101.973 91.361,106.073 91.385,110.173C91.39,111.084 91.46,112.005 91.611,112.904C91.995,115.191 93.238,116.375 95.565,116.665C96.619,116.796 97.69,116.84 98.753,116.851C102.802,116.89 106.851,116.899 110.9,116.921C111.116,116.923 111.332,116.941 111.625,116.955" fill="#000" stroke="#00000000" stroke-width="1.0" stroke-miterlimit=""/>
	</svg>
