<?xml version="1.0" encoding="utf-8"?>
	<svg version="1.1" xmlns="http://www.w3.org/2000/svg" xmlns:xlink="http://www.w3.org/1999/xlink" x="0px" y="0px" width="240.0" height="240.0" xml:space="preserve">
		<path d="M201.481,61.846L170,61.846L162.5,40.892C161.435,37.962 158.657,36 155.509,36L84.491,36C81.366,36 78.565,37.962 77.523,40.892L70,61.846L38.519,61.846C28.287,61.846 20,70.108 20,80.308L20,185.538C20,195.738 28.287,204 38.519,204L201.481,204C211.713,204 220,195.738 220,185.538L220,80.308C220,70.108 211.713,61.846 201.481,61.846ZM120,154.481C99.537,154.481 82.963,137.907 82.963,117.444C82.963,96.981 99.537,80.407 120,80.407C140.463,80.407 157.037,96.981 157.037,117.444C157.037,137.907 140.463,154.481 120,154.481ZM68,172L68,204L59,204L59,172L68,172ZM106,172L106,204L97,204L97,172L106,172ZM144,172L144,204L135,204L135,172L144,172ZM182,172L182,204L173,204L173,172L182,172ZM49,172L49,190L40,190L40,172L49,172ZM87,172L87,190L78,190L78,172L87,172ZM125,172L125,190L116,190L116,172L125,172ZM163,172L163,190L154,190L154,172L163,172ZM201,172L201,190L192,190L192,172L201,172ZM120,95.222C132.273,95.222 142.222,105.171 142.222,117.444C142.222,129.717 132.273,139.667 120,139.667C107.727,139.667 97.778,129.717 97.778,117.444C97.778,105.171 107.727,95.222 120,95.222Z" fill="#000" stroke="#00000000" stroke-width="1.0" stroke-miterlimit=""/>
	</svg>
