<?xml version="1.0" encoding="utf-8"?>
	<svg version="1.1" xmlns="http://www.w3.org/2000/svg" xmlns:xlink="http://www.w3.org/1999/xlink" x="0px" y="0px" width="240.0" height="240.0" xml:space="preserve">
		<path d="M134.543,116.08C134.728,115.767 134.833,115.469 135.034,115.264C141.309,108.87 147.594,102.485 153.876,96.096C156.749,93.173 159.669,90.294 162.475,87.307C166.008,83.545 164.458,77.311 159.637,75.767C156.636,74.806 154.18,75.779 152.026,77.981C143.511,86.69 134.957,95.36 126.419,104.046C125.319,105.166 124.23,106.296 123.132,107.425C124.217,107.817 125.349,107.996 126.197,108.584C127.795,109.69 129.27,110.988 130.72,112.291C131.975,113.419 133.124,114.663 134.543,116.08M89.961,141.07L89.961,139.453C89.961,121.406 89.962,103.359 89.962,85.313C89.962,84.2 89.989,83.085 89.945,81.973C89.766,77.497 85.654,74.308 81.405,75.331C78.145,76.116 76.038,78.98 76.037,82.646C76.036,107.578 76.037,132.51 76.037,157.441C76.037,157.734 76.028,158.028 76.047,158.32C76.256,161.405 77.692,163.71 80.61,164.809C83.384,165.853 85.925,165.21 88.016,163.087C97.2,153.761 106.366,144.415 115.554,135.093C117.15,133.473 118.822,131.93 120.582,130.233C120.696,130.39 120.842,130.654 121.045,130.862C127.688,137.636 134.335,144.406 140.986,151.173C144.949,155.204 148.895,159.252 152.896,163.244C155.311,165.654 159.018,165.932 161.657,164.02C165.099,161.527 165.707,156.805 162.933,153.583C161.788,152.254 160.503,151.046 159.271,149.794C148.059,138.395 136.837,127.004 125.634,115.595C122.463,112.367 118.346,112.296 115.185,115.507C107.521,123.291 99.867,131.085 92.206,138.871C91.517,139.572 90.802,140.248 89.961,141.07M30,30L210,30L210,210L30,210C30,150 30,90 30,30" fill="#000" stroke="#00000000" stroke-width="1.0" stroke-miterlimit=""/>
	</svg>
