<?xml version="1.0" encoding="utf-8"?>
	<svg version="1.1" xmlns="http://www.w3.org/2000/svg" xmlns:xlink="http://www.w3.org/1999/xlink" x="0px" y="0px" width="240.0" height="240.0" xml:space="preserve">
		<path d="M120,210C91.312,210 62.626,210.001 33.938,209.998C30.056,209.998 30.046,209.989 30.044,206.204C30.038,196.384 30.101,186.562 30.001,176.743C29.977,174.322 30.741,173.44 33.222,173.468C42.954,173.574 52.688,173.515 62.421,173.507C65.841,173.504 65.894,173.454 65.897,170.106C65.906,160.371 65.892,150.636 65.907,140.9C65.912,137.793 66.067,137.651 69.311,137.648C79.215,137.637 89.119,137.636 99.023,137.648C102.231,137.652 102.372,137.789 102.377,140.951C102.39,150.686 102.455,160.423 102.334,170.156C102.302,172.694 103.025,173.599 105.658,173.562C115.218,173.428 124.783,173.428 134.344,173.562C136.978,173.599 137.699,172.693 137.667,170.156C137.546,160.422 137.611,150.685 137.624,140.95C137.629,137.789 137.77,137.652 140.979,137.648C150.883,137.636 160.787,137.637 170.69,137.648C173.99,137.651 174.093,137.762 174.097,141.158C174.106,150.807 174.095,160.457 174.104,170.107C174.107,173.453 174.161,173.504 177.581,173.507C187.314,173.515 197.048,173.574 206.78,173.467C209.264,173.44 210.023,174.327 209.999,176.745C209.901,186.735 209.967,196.727 209.953,206.718C209.949,209.848 209.798,209.994 206.573,209.995C177.715,210.002 148.857,209.999 120,210M119.863,102.398C103.044,102.398 86.224,102.402 69.405,102.395C66.018,102.393 65.909,102.289 65.905,98.978C65.894,89.414 65.904,79.849 65.899,70.285C65.897,66.546 65.889,66.536 62.257,66.534C52.695,66.528 43.132,66.537 33.57,66.528C30.159,66.524 30.05,66.425 30.046,63.136C30.035,53.145 30.091,43.153 30.007,33.162C29.988,30.879 30.687,29.98 33.077,30.003C43.151,30.099 53.226,30.101 63.3,30.001C65.73,29.977 66.592,30.76 66.565,33.231C66.461,43.051 66.585,52.873 66.48,62.692C66.455,65.113 67.189,65.957 69.679,65.952C103.233,65.886 136.786,65.886 170.34,65.953C172.852,65.958 173.545,65.073 173.52,62.674C173.417,52.94 173.471,43.204 173.482,33.469C173.486,30.151 173.593,30.049 176.975,30.046C186.793,30.036 196.611,30.036 206.43,30.046C209.884,30.049 209.954,30.124 209.956,33.693C209.964,43.428 209.964,53.163 209.956,62.899C209.953,66.454 209.886,66.524 206.412,66.528C196.935,66.537 187.458,66.529 177.981,66.533C174.111,66.534 174.104,66.54 174.102,70.304C174.097,79.527 174.101,88.749 174.1,97.972C174.099,102.396 174.097,102.398 169.553,102.398C152.989,102.399 136.426,102.399 119.863,102.398" fill="#000" stroke="#00000000" stroke-width="1.0" stroke-miterlimit=""/>
	</svg>
