<?xml version="1.0" encoding="utf-8"?>
	<svg version="1.1" xmlns="http://www.w3.org/2000/svg" xmlns:xlink="http://www.w3.org/1999/xlink" x="0px" y="0px" width="240.0" height="240.0" xml:space="preserve">
		<path d="M20.031,119.697L20.051,119.697C20.051,141.027 19.922,162.358 20.107,183.686C20.196,193.906 25.235,201.455 34.557,205.519C44.119,209.689 53.501,208.784 61.266,201.443C71.314,191.943 81.031,182.085 90.673,172.171C96.843,165.828 96.401,155.874 90.099,149.72C83.654,143.425 73.748,143.231 67.32,149.363C63.707,152.809 60.238,156.406 56.664,159.894C55.805,160.733 55.026,162.313 53.731,161.85C52.276,161.33 53.042,159.651 53.041,158.487C52.994,132.581 52.982,106.673 52.967,80.765C52.967,79.864 52.5,78.666 53.547,78.224C54.886,77.659 55.558,79.007 56.318,79.764C78.069,101.417 99.785,123.105 121.539,144.755C140.262,163.391 158.972,182.04 177.793,200.576C185.784,208.448 195.434,209.977 205.453,205.59C214.925,201.442 219.923,193.564 219.941,183.085C220.017,141.049 220.023,99.013 219.937,56.978C219.916,46.669 215.117,38.896 205.743,34.613C195.817,30.079 186.273,31.39 178.275,38.983C168.625,48.146 159.351,57.705 149.938,67.115C148.239,68.814 146.789,70.678 146.088,73.076C143.85,80.734 146.756,88.626 153.358,92.594C160.082,96.635 167.619,95.62 173.613,89.781C177.339,86.15 180.973,82.426 184.664,78.761C185.161,78.267 185.643,77.495 186.466,77.775C187.36,78.079 187.098,78.965 187.097,79.67C187.059,106.202 187.021,132.734 186.981,159.265C186.981,159.681 186.991,160.099 186.951,160.513C186.893,161.108 187.05,161.869 186.297,162.105C185.603,162.323 185.179,161.709 184.728,161.302C184.341,160.955 183.985,160.574 183.617,160.206C168.989,145.555 154.397,130.868 139.725,116.262C114.294,90.946 88.819,65.674 63.342,40.404C60.677,37.761 57.829,35.339 54.248,33.942C37.609,27.447 20.153,39.11 20.058,56.955C19.946,77.869 20.031,98.783 20.031,119.697" fill="#000" stroke="#00000000" stroke-width="1.0" stroke-miterlimit=""/>
	</svg>
