<?xml version="1.0" encoding="utf-8"?>
	<svg version="1.1" xmlns="http://www.w3.org/2000/svg" xmlns:xlink="http://www.w3.org/1999/xlink" x="0px" y="0px" width="240.0" height="240.0" xml:space="preserve">
		<path d="M72.089,107.986H190.479C201.53,107.986 205.831,134.489 205.881,163.993C205.931,193.497 194.804,220 185.978,220H158.95C157.925,220 157.225,218.975 157.6,218.025C158.875,214.774 161.025,208.123 160.075,202.273C158.75,194.172 155.949,187.571 155.949,187.571C155.949,187.571 158.025,193.547 149.499,204.748C141.698,214.999 134.772,218.675 132.471,219.675C131.996,219.875 131.496,220 130.971,220H44.761C38.685,220 33.759,214.949 34.009,208.799C34.084,206.948 34.659,205.123 35.634,203.548L47.811,183.245C56.687,168.469 61.362,151.541 61.362,134.314V118.762C61.338,112.812 66.163,107.986 72.089,107.986V107.986ZM125.521,68.456V30.776C125.521,24.826 130.346,20 136.297,20C142.248,20 147.073,24.826 147.073,30.776V68.456H187.278C193.229,68.456 198.055,73.282 198.055,79.232V90.009C198.055,95.96 193.229,100.785 187.278,100.785H79.59C73.639,100.785 68.813,95.96 68.813,90.009V79.232C68.813,73.282 73.639,68.456 79.59,68.456H125.521Z" fill="#000" stroke="" stroke-width="" stroke-miterlimit=""/>
	</svg>
