<?xml version="1.0" encoding="utf-8"?>
	<svg version="1.1" xmlns="http://www.w3.org/2000/svg" xmlns:xlink="http://www.w3.org/1999/xlink" x="0px" y="0px" width="240.0" height="240.0" xml:space="preserve">
		<path d="M150.235,122.178C152.456,123.755 154.548,125.489 156.477,127.417C167.645,138.585 178.816,149.752 189.984,160.922C190.251,161.188 190.499,161.472 190.756,161.748C187.81,159.937 184.881,158.092 181.765,156.547C163.628,147.556 140.87,150.396 125.485,163.557C123.717,165.069 122.056,166.691 120.415,168.332L118.776,169.975L117.956,170.796C110.346,178.371 102.749,185.958 95.177,193.569C86.372,202.419 75.82,207.782 63.395,209.049C48.362,210.581 34.978,206.458 23.448,196.582C22.76,195.992 22.076,195.395 21.428,194.762C19.554,192.932 19.531,191.452 21.321,189.593C21.619,189.284 21.926,188.984 22.23,188.681C40.435,170.511 58.638,152.34 76.847,134.175C78.468,132.557 80.157,131.008 81.76,129.374C82.814,128.299 83.971,128.057 85.407,128.43C90.717,129.81 95.95,131.515 101.337,132.566C117.156,135.65 131.438,132.131 144.185,122.318C146.815,120.294 147.492,120.231 150.235,122.178ZM200.164,171.16L200.312,171.309L200.386,171.384C204.983,175.962 209.581,180.539 214.177,185.117C215.664,186.598 217.157,188.074 218.63,189.569C220.454,191.419 220.473,192.919 218.59,194.723C210.412,202.557 200.722,207.308 189.493,208.87C186.465,209.291 183.419,209.398 179.76,209.237C174.726,209.111 169.3,207.925 164.039,205.937C162.598,205.393 162.556,205.236 163.702,204.155C169.563,198.633 175.465,193.154 181.314,187.619C184.913,184.213 188.439,180.73 192.005,177.289C194.166,175.204 196.359,173.151 198.503,171.049C199.236,170.33 199.697,170.694 200.164,171.16ZM218.227,44.551C220.362,46.548 220.325,47.9 218.241,49.986C209.305,58.928 200.356,67.858 191.428,76.807C180.239,88.022 169.053,99.24 157.889,110.48C152.16,116.246 145.711,120.973 137.973,123.589C119.041,129.988 101.686,127.06 86.125,114.352C84.872,113.329 83.704,112.192 82.558,111.047C71.75,100.259 60.958,89.456 50.148,78.671C49.715,78.24 49.141,77.95 48.633,77.595C48.783,77.445 48.933,77.295 49.082,77.145C54.837,81.457 61.104,84.778 68.12,86.411C86.828,90.766 103.363,86.465 117.281,73.224C126.751,64.214 135.818,54.782 145.083,45.555C153.099,37.572 162.621,32.384 173.846,30.713C190.819,28.187 205.665,32.802 218.227,44.551ZM79.513,34.896C81.601,35.851 83.57,37.019 85.512,38.234C85.576,38.274 85.654,38.315 85.733,38.36L85.852,38.43C86.142,38.612 86.355,38.851 85.782,39.229C83.806,40.534 82.451,42.488 80.705,44.035C79.208,45.362 77.863,46.86 76.435,48.266C70.556,54.057 64.743,59.919 58.757,65.598C55.645,68.551 52.685,71.655 49.552,74.584C47.937,76.093 47.66,76.1 46.076,74.519C37.9,66.363 29.725,58.207 21.546,50.055C20.756,49.268 20.024,48.46 20,47.256C20.079,46.248 20.56,45.453 21.274,44.768C29.412,36.965 39.028,32.157 50.202,30.543C60.4,29.069 70.161,30.62 79.513,34.896Z" fill="#000" stroke="#00000000" stroke-width="1.0" stroke-miterlimit=""/>
	</svg>
