<?xml version="1.0" encoding="utf-8"?>
	<svg version="1.1" xmlns="http://www.w3.org/2000/svg" xmlns:xlink="http://www.w3.org/1999/xlink" x="0px" y="0px" width="240.0" height="240.0" xml:space="preserve">
		<path d="M62.906,42.903L177.101,42.903A20,20 0,0 1,197.101 62.903L197.101,177.098A20,20 0,0 1,177.101 197.098L62.906,197.098A20,20 0,0 1,42.906 177.098L42.906,62.903A20,20 0,0 1,62.906 42.903z" fill="#000" stroke="" stroke-width="" stroke-miterlimit=""/>
		<path d="M26.387,135.42C17.871,126.904 17.871,113.096 26.387,104.58L104.58,26.387C113.096,17.871 126.904,17.871 135.42,26.387L213.613,104.58C222.129,113.096 222.129,126.904 213.613,135.42L135.42,213.613C126.904,222.129 113.096,222.129 104.58,213.613L26.387,135.42Z" fill="#000" stroke="" stroke-width="" stroke-miterlimit=""/>
	</svg>
