<?xml version="1.0" encoding="utf-8"?>
	<svg version="1.1" xmlns="http://www.w3.org/2000/svg" xmlns:xlink="http://www.w3.org/1999/xlink" x="0px" y="0px" width="240.0" height="240.0" xml:space="preserve">
		<path d="M26.021,135.006C26.021,151.356 58.706,151.058 61.535,151.287C82.822,152.875 100.967,160.051 101.321,179.639C101.453,187.432 99.31,190.358 98.561,193.929C97.438,199.24 97.501,220 119.591,220C141.551,220 141.662,199.275 140.621,193.929C139.9,190.178 137.758,186.905 137.966,178.952C138.465,159.843 156.562,152.847 177.578,151.301C180.414,151.079 213.1,151.377 213.1,135.02L213.121,76.43L26,76.43L26.021,135.006ZM213.093,26.216C206.305,23.699 195.987,21.286 180.532,20.309C126.775,16.911 128.806,42.843 70.189,35.604C49.679,33.081 35.603,28.165 26.021,23.103L26,63.603L213.114,63.603L213.093,26.216Z" fill="#000" stroke="#00000000" stroke-width="1.0" stroke-miterlimit=""/>
	</svg>
