<?xml version="1.0" encoding="utf-8"?>
	<svg version="1.1" xmlns="http://www.w3.org/2000/svg" xmlns:xlink="http://www.w3.org/1999/xlink" x="0px" y="0px" width="240.0" height="240.0" xml:space="preserve">
		<path d="M55,155.185C55,191.296 83.704,220 119.815,220C155.926,220 184.63,191.296 184.63,155.185V118.148H55V155.185ZM157.778,47.778L177.222,28.333L169.815,20.926L148.519,42.222C140.185,37.593 130,34.815 119.815,34.815C109.63,34.815 99.444,37.593 91.111,41.296L69.815,20L62.407,28.333L81.852,47.778C65.185,58.889 55,78.333 55,99.63V108.889H184.63V99.63C184.63,78.333 174.444,58.889 157.778,47.778ZM92.037,90.37C86.481,90.37 82.778,86.667 82.778,81.111C82.778,75.556 86.481,71.852 92.037,71.852C97.593,71.852 101.296,75.556 101.296,81.111C101.296,86.667 97.593,90.37 92.037,90.37ZM147.593,90.37C142.037,90.37 138.333,86.667 138.333,81.111C138.333,75.556 142.037,71.852 147.593,71.852C153.148,71.852 156.852,75.556 156.852,81.111C156.852,86.667 153.148,90.37 147.593,90.37Z" fill="#000" stroke="" stroke-width="" stroke-miterlimit=""/>
	</svg>
