<?xml version="1.0" encoding="utf-8"?>
	<svg version="1.1" xmlns="http://www.w3.org/2000/svg" xmlns:xlink="http://www.w3.org/1999/xlink" x="0px" y="0px" width="240.0" height="240.0" xml:space="preserve">
		<path d="M198.514,220C199.597,211.938 200.444,203.866 200.021,194.938C199.003,196.897 198.401,198.272 197.619,199.534C192.533,207.709 185.281,211.749 175.542,210.939C166.811,210.214 160.642,205.693 156.752,197.989C154.869,194.25 155.952,191.425 159.258,192.027C168.412,193.694 173.913,188.043 179.733,182.826C184.593,178.474 189.802,175.376 196.677,177.278C197.817,175.978 196.8,174.867 196.451,173.765C190.48,155.295 179.573,140.348 164.287,128.462C161.537,126.324 159.983,126.193 157.544,129.159C152.439,135.347 144.395,137.156 137.059,134.509C129.74,131.872 124.815,125.251 124.749,117.32C124.72,114.137 123.939,112.753 120.529,112.922C117.572,113.073 115.509,112.649 115.406,117.142C115.208,125.524 110.762,131.749 102.634,134.509C94.318,137.335 87.169,134.942 81.584,128.283C80.058,126.466 78.994,126.061 77.026,127.549C59.507,140.829 48.554,158.356 42.498,180.019C50.777,178.088 57.03,182.119 63.444,185.133C68.182,187.356 72.806,188.279 78.005,187.271C83.637,186.178 85.191,188.137 83.458,193.807C80.492,203.471 73.748,209.235 63.925,210.544C54.817,211.759 47.433,207.926 42.074,200.4C41.443,199.515 40.897,198.564 39.823,196.868C39.352,205.166 39.239,212.625 41.245,220C39.992,220 38.73,220 37.478,220C32.552,190.266 40.228,163.857 58.66,140.348C63.322,134.405 68.709,129.122 74.925,124.799C77.242,123.188 78.118,121.53 77.958,118.63C77.412,108.929 82.535,101.281 90.946,98.568C98.98,95.978 107.07,99.086 112.542,106.885C115.321,110.841 124.664,110.897 127.442,106.988C133.206,98.87 141.08,95.903 149.416,98.719C157.647,101.498 162.488,108.844 161.961,118.535C161.791,121.7 163.082,123.254 165.38,125.006C188.295,142.439 201.763,165.204 203.731,194.222C204.315,202.849 203.1,211.439 202.309,220.019C201.019,220 199.766,220 198.514,220ZM155.293,106.998L155.434,107.139C155.085,106.48 154.869,105.67 154.36,105.171C149.387,100.348 141.683,99.435 135.674,102.891C129.43,106.489 126.369,113.779 128.215,120.636C130.023,127.351 136.098,132.164 143.011,132.362C149.444,132.55 155.424,128.764 157.977,122.877C160.388,117.292 159.324,110.972 155.293,106.998ZM80.746,116.586C80.746,125.392 87.819,132.428 96.588,132.371C105.14,132.315 112.09,125.392 112.222,116.802C112.354,108.062 105.29,100.801 96.569,100.725C87.913,100.65 80.746,107.836 80.746,116.586ZM158.683,194.768C160.718,202.086 167.282,207.709 174.977,208.444C183.708,209.272 190.63,205.976 195.246,198.432C198.966,192.348 199.107,185.416 195.886,181.234C187.278,200.57 181.203,206.72 172.67,204.036C176.946,202.717 181.184,201.37 184.282,197.98C187.268,194.712 189.736,191.189 191.092,186.094C173.866,199.703 169.778,201.549 163.458,197.386C170.645,197.97 175.721,195.569 180.355,192.027C184.923,188.533 189.114,184.681 193.126,179.586C186.873,179.557 182.917,182.411 180.233,186.536C175.665,193.525 169.75,196.567 161.49,194.796C160.614,194.608 159.663,194.768 158.683,194.768ZM45.728,188.995C51.841,198.432 60.072,201.964 69.613,203.273C56.06,204.921 47.838,197.264 40.981,186.32C40.718,197.575 47.904,206.296 57.803,207.69C68.681,209.216 78.231,203.141 80.972,193.007C81.48,191.123 81.98,188.938 79.013,190.332C70.527,194.307 63.774,191.99 57.228,185.924C53.338,182.326 48.281,181.158 42.14,183.409C52.331,190.756 62.653,195.974 74.52,197.97C63.943,199.43 55.514,193.911 45.728,188.995Z" fill="#000" stroke="" stroke-width="" stroke-miterlimit=""/>
		<path d="M160.946,29.946C156.199,29.946 151.914,29.946 147.638,29.946C143.277,29.946 138.916,29.946 134.48,29.946C134.396,27.007 135.903,25.086 136.892,23.023C138.747,19.162 140.753,19.039 142.816,22.863C143.833,24.747 145.151,24.097 146.357,24.116C152.47,24.21 158.573,24.116 164.685,24.182C169.545,24.229 170.553,25.585 168.519,29.729C167.548,31.698 167.784,32.479 169.526,33.826C174.236,37.481 174.951,57.335 170.722,61.479C169.093,63.07 167.106,63.843 164.779,63.833C154.287,63.805 143.786,63.758 133.294,63.88C130.581,63.909 129.79,62.91 129.847,60.311C129.988,54.048 129.799,47.775 129.912,41.512C130.025,35.446 133.152,32.432 139.34,32.338C144.982,32.253 150.624,32.366 156.256,32.282C157.772,32.263 159.722,32.979 160.946,29.946ZM150.916,58.013C154.834,58.013 158.752,57.966 162.67,58.022C165.797,58.069 167.332,56.581 167.341,53.492C167.36,49.734 167.369,45.976 167.332,42.209C167.304,39.317 165.74,37.97 162.877,37.98C155.361,37.999 147.836,38.027 140.32,37.97C137.052,37.942 135.874,39.685 135.884,42.67C135.893,46.739 135.978,50.817 135.846,54.886C135.761,57.382 136.788,58.145 139.18,58.05C143.079,57.9 146.997,58.013 150.916,58.013Z" fill="#000" stroke="" stroke-width="" stroke-miterlimit=""/>
		<path d="M107.27,55.564C111.16,57.579 114.475,56.383 117.602,56.788C119.853,57.08 123.432,55.649 123.423,59.52C123.413,63.033 120.032,61.752 117.894,62.082C116.867,62.242 115.7,61.658 114.466,63.07C116.679,64.766 118.864,66.423 121.04,68.1C122.387,69.136 123.357,70.417 122.264,72.103C121.021,74.033 119.279,73.581 117.781,72.479C114.616,70.172 111.395,67.902 108.485,65.284C106.196,63.221 104.727,62.835 102.589,65.566C99.943,68.938 96.119,70.982 92.238,72.743C90.581,73.497 88.725,73.873 87.717,71.886C86.681,69.852 88.179,68.731 89.771,67.827C92.314,66.395 95.215,65.463 97.098,62.807C95.139,61.45 93.058,62.317 91.118,62.082C89.742,61.921 88.16,62.232 88.17,60.056C88.17,58.21 88.923,56.995 90.844,56.882C93.039,56.76 95.233,56.873 97.428,56.741C98.907,56.657 100.602,57.344 102.015,55.536C99.142,53.586 95.996,54.632 93.124,54.632C90.119,54.632 88.904,53.793 89.092,50.638C89.337,46.569 89.083,42.482 89.206,38.404C89.319,34.683 91.344,32.536 95.092,32.479C102.617,32.376 110.152,32.423 117.677,32.442C121.219,32.451 122.745,34.438 122.773,37.81C122.792,40.636 122.82,43.461 122.782,46.277C122.688,52.578 120.87,54.377 114.664,54.556C112.469,54.632 110.133,54.095 107.27,55.564ZM106.385,38.093C106.385,38.083 106.385,38.074 106.385,38.064C104.972,38.064 103.559,38.027 102.146,38.074C94.122,38.309 94.932,36.247 94.876,45.693C94.876,46.004 94.904,46.325 94.885,46.635C94.8,48.142 95.384,49.009 97.013,48.999C103.135,48.98 109.248,48.999 115.37,48.952C116.312,48.943 117.291,48.651 117.348,47.426C117.414,45.797 116.18,45.816 115.078,45.806C112.413,45.778 109.738,45.91 107.082,45.731C105.782,45.637 103.531,46.814 103.493,44.168C103.456,41.578 105.641,41.954 107.308,41.917C109.973,41.851 112.639,41.888 115.304,41.87C116.538,41.86 117.414,41.483 117.423,40.005C117.433,38.526 116.538,38.121 115.323,38.112C112.347,38.083 109.37,38.093 106.385,38.093Z" fill="#000" stroke="" stroke-width="" stroke-miterlimit=""/>
		<path d="M74.322,72.536C73.201,72.3 71.346,73.082 71.214,70.869C71.111,69.013 71.798,67.44 73.701,66.772C75.217,66.235 77.543,66.819 77.666,64.37C77.835,60.951 78.353,57.466 77.336,54.132C76.969,52.927 75.387,53.586 74.369,53.379C73.258,53.162 71.572,54.123 71.195,52.362C70.8,50.506 71.873,49.093 73.399,48.02C74.803,47.031 77.638,48.152 77.732,45.345C77.854,41.747 77.948,38.112 77.572,34.551C77.374,32.696 75.283,33.478 73.983,33.336C72.486,33.176 70.583,33.685 70.696,31.189C70.781,29.249 71.647,27.657 73.804,27.874C77.308,28.222 78.127,26.527 77.873,23.466C77.732,21.742 78.429,20.311 80.482,20.32C82.563,20.32 83.091,21.865 83.138,23.522C83.194,25.783 83.317,27.45 86.142,28.411C88.45,29.202 87.988,31.952 85.916,32.687C83.025,33.704 83.204,35.597 83.204,37.801C83.223,46.268 83.317,54.735 83.166,63.193C83.044,69.437 79.973,72.555 74.322,72.536Z" fill="#000" stroke="" stroke-width="" stroke-miterlimit=""/>
		<path d="M150.388,72.555C144.445,72.555 138.492,72.668 132.549,72.489C130.835,72.442 127.953,73.845 127.737,70.558C127.501,67.017 130.28,66.762 132.917,66.753C140.112,66.734 147.308,66.744 154.513,66.744C159.835,66.744 165.156,66.725 170.477,66.762C172.615,66.781 174.885,67.12 174.791,69.87C174.706,72.366 172.502,72.517 170.581,72.526C163.856,72.564 157.122,72.545 150.397,72.545C150.388,72.545 150.388,72.555 150.388,72.555Z" fill="#000" stroke="" stroke-width="" stroke-miterlimit=""/>
		<path d="M105.058,29.908C100.377,29.908 95.686,29.936 91.005,29.889C89.847,29.88 88.34,30.238 88.199,28.326C88.076,26.64 88.396,25.02 90.346,24.737C92.428,24.436 93.774,23.993 94.754,21.639C95.752,19.256 97.947,19.586 99.416,21.874C101.724,25.482 110.021,25.623 112.291,22.063C113.873,19.576 115.983,19.181 117.179,21.874C118.036,23.805 118.827,24.483 120.758,24.559C122.548,24.624 123.753,25.67 123.537,27.582C123.301,29.541 121.766,29.918 120.061,29.908C115.051,29.889 110.059,29.899 105.058,29.908Z" fill="#000" stroke="" stroke-width="" stroke-miterlimit=""/>
		<path d="M97.907,91.665C100.986,91.523 103.793,92.371 106.336,94.076C107.146,94.613 107.899,95.347 107.278,96.383C106.816,97.156 105.865,97.118 105.168,96.722C100.374,94.038 95.618,94.264 90.814,96.675C89.995,97.09 88.912,97.363 88.356,96.261C87.81,95.187 88.601,94.481 89.43,93.991C92.03,92.437 94.836,91.533 97.907,91.665Z" fill="#000" stroke="" stroke-width="" stroke-miterlimit=""/>
		<path d="M144.83,91.665C147.722,91.514 150.387,92.249 152.845,93.737C153.787,94.311 154.87,95.055 154.221,96.299C153.703,97.278 152.554,96.967 151.715,96.515C147.232,94.104 142.787,94.321 138.294,96.487C137.352,96.939 136.081,97.627 135.44,96.28C134.687,94.697 136.165,94.142 137.23,93.558C139.584,92.268 142.109,91.561 144.83,91.665Z" fill="#000" stroke="" stroke-width="" stroke-miterlimit=""/>
		<path d="M83.901,160.852C89.741,160.862 94.667,164.78 96.164,170.6C97.812,177.014 102.079,180.386 108.625,180.367C116.621,180.339 124.608,180.292 132.604,180.207C139.489,180.132 142.192,177.73 143.68,170.902C144.688,166.268 147.589,162.981 152.072,161.549C156.668,160.089 161.076,160.862 164.777,164.186C165.898,165.194 167.631,166.494 166.378,168.086C164.975,169.875 163.657,168.142 162.479,167.172C159.286,164.554 155.783,163.791 152.025,165.759C145.827,168.999 145.63,176.43 151.563,180.678C152.844,181.601 155.472,182.129 154.078,184.285C152.646,186.499 150.311,184.822 149.256,183.654C146.129,180.179 143.106,179.736 139.527,182.788C138.971,183.259 138.104,183.485 137.351,183.579C126.604,185.001 115.802,184.361 105.036,184.078C101.712,183.993 99.3,180.612 96.428,179.783C93.339,178.889 92.19,184.106 88.808,184.813C87.471,185.095 86.322,185.529 85.616,184.059C84.975,182.722 86.058,181.95 87,181.488C89.835,180.085 91.945,178.003 92.538,174.895C93.216,171.354 91.907,168.34 88.912,166.334C85.437,164.008 81.905,164.186 78.363,166.475C76.913,167.417 75.387,170.61 73.541,167.869C72.147,165.806 74.916,164.441 76.414,163.226C78.561,161.455 81.236,161.097 83.901,160.852Z" fill="#000" stroke="" stroke-width="" stroke-miterlimit=""/>
		<path d="M103.53,113.685C100.836,113.384 99.329,111.867 99.461,109.108C99.584,106.602 100.987,105.039 103.605,105.124C106.271,105.208 108.098,106.574 108.051,109.4C108.004,112.131 106.337,113.544 103.53,113.685Z" fill="#000" stroke="" stroke-width="" stroke-miterlimit=""/>
		<path d="M155.293,106.998C155.237,107.921 155.275,108.863 155.096,109.757C154.512,112.743 152.609,114.165 149.671,113.497C146.892,112.856 145.903,110.68 146.676,108.062C147.58,104.982 149.944,104.53 152.675,105.557C153.655,105.924 154.512,106.602 155.435,107.139C155.435,107.139 155.293,106.998 155.293,106.998Z" fill="#000" stroke="" stroke-width="" stroke-miterlimit=""/>
		<path d="M151.592,41.286C151.573,41.276 152.364,41.483 152.355,41.634C152.053,46.343 157.375,44.912 158.788,47.624C158.957,47.944 158.232,49.15 158.119,49.122C153.174,47.897 152.91,55.639 151.234,54.471C148.719,52.72 147.504,49.065 143.567,48.566C143.266,48.528 143.69,45.919 145.216,45.948C148.003,45.995 149.605,45.157 149.699,42.152C149.736,41.587 150.405,41.125 151.592,41.286Z" fill="#000" stroke="" stroke-width="" stroke-miterlimit=""/>
	</svg>
