<?xml version="1.0" encoding="utf-8"?>
	<svg version="1.1" xmlns="http://www.w3.org/2000/svg" xmlns:xlink="http://www.w3.org/1999/xlink" x="0px" y="0px" width="240.0" height="240.0" xml:space="preserve">
		<path d="M200.606,145.651C199.387,145.026 198.093,144.535 196.978,143.762C173.81,127.509 147.565,120.714 119.862,117.368C89.84,113.725 62.836,102.037 39,82.885C40.963,83.494 42.94,84.03 44.874,84.699C65.766,91.97 86.94,98.067 109.29,97.755C115.862,97.665 122.673,96.55 128.918,94.513C140.16,90.825 147.342,79.926 146.911,68.164C146.851,66.573 144.085,64.134 142.227,63.747C137.007,62.662 131.595,62.439 126.271,61.889C125.87,61.219 125.454,60.565 125.052,59.896C128.442,58.082 131.833,56.268 135.208,54.453C134.494,53.308 133.781,52.149 133.082,51.004C107.401,42.825 81.602,49.279 55.639,51.926C60.398,45.993 70.807,41.814 90.673,39.197C103.342,37.532 116.19,37.219 130.257,36.208C119.654,26.691 106.658,27.941 92.799,25.145C106.807,19.732 119.401,18.766 131.61,21.442C144.784,24.327 157.855,28.58 170.286,33.829C185.855,40.402 191.848,53.219 189.29,71.881C185.067,71.093 180.77,70.677 176.725,69.427C172.814,68.223 169.156,66.186 164.383,64.074C162.212,98.32 174.45,124.714 200.606,145.651Z" fill="#000" stroke="" stroke-width="" stroke-miterlimit=""/>
		<path d="M39.003,94.349C40.223,94.974 41.516,95.465 42.632,96.238C65.799,112.491 92.044,119.286 119.747,122.632C149.769,126.275 176.773,137.963 200.609,157.115C198.647,156.506 196.669,155.97 194.736,155.301C173.844,148.03 152.669,141.933 130.319,142.245C123.747,142.335 116.937,143.45 110.691,145.487C99.45,149.175 92.267,160.074 92.699,171.836C92.758,173.428 95.524,175.866 97.383,176.253C102.602,177.338 108.015,177.561 113.338,178.112C113.739,178.781 114.156,179.435 114.557,180.104C111.167,181.918 107.777,183.732 104.401,185.546C105.115,186.691 105.829,187.851 106.528,188.996C132.208,197.175 158.007,190.721 183.97,188.074C179.212,194.007 168.803,198.186 148.937,200.803C136.267,202.468 123.42,202.781 109.353,203.792C119.955,213.309 132.951,212.059 146.81,214.855C132.803,220.268 120.208,221.234 108,218.558C94.825,215.673 81.754,211.42 69.323,206.171C53.754,199.599 47.762,186.781 50.319,168.119C54.542,168.907 58.84,169.323 62.884,170.572C66.795,171.777 70.453,173.814 75.227,175.926C77.397,141.68 65.16,115.286 39.003,94.349Z" fill="#000" stroke="" stroke-width="" stroke-miterlimit=""/>
	</svg>
