<?xml version="1.0" encoding="utf-8"?>
	<svg version="1.1" xmlns="http://www.w3.org/2000/svg" xmlns:xlink="http://www.w3.org/1999/xlink" x="0px" y="0px" width="240.0" height="240.0" xml:space="preserve">
		<path d="M179.326,157.275H169.685C169.19,157.275 168.791,157.65 168.791,158.115V166.984C168.791,167.449 169.19,167.824 169.685,167.824H179.326C179.821,167.824 180.22,167.449 180.22,166.984V158.115C180.22,157.65 179.821,157.275 179.326,157.275Z" fill="#000" stroke="" stroke-width="" stroke-miterlimit=""/>
		<path d="M97.624,131.406H91.967C91.475,131.406 91.078,131.798 91.078,132.282V157.657C88.134,154.367 68.605,132.574 68.113,132.055C67.576,131.506 66.875,131.406 66.419,131.406H60.821C60.329,131.406 59.931,131.798 59.931,132.282V167.335C59.931,167.828 60.33,168.219 60.821,168.219H66.477C66.97,168.219 67.367,167.828 67.367,167.335V141.754C69.502,144.126 90.029,167.037 90.528,167.565C91.056,168.113 91.757,168.219 92.221,168.219H97.624C98.123,168.219 98.52,167.828 98.52,167.335V132.282C98.52,131.798 98.123,131.406 97.624,131.406ZM51.996,131.406H45.689C45.196,131.406 44.799,131.798 44.799,132.282V167.335C44.799,167.828 45.197,168.219 45.689,168.219H51.996C52.488,168.219 52.887,167.828 52.887,167.335V132.282C52.887,131.798 52.488,131.406 51.996,131.406ZM30.804,149.632C30.803,149.867 30.708,150.092 30.542,150.257C30.375,150.422 30.149,150.515 29.914,150.514H10.796V137.887H29.913C30.398,137.887 30.803,138.279 30.803,138.763L30.804,149.632ZM26.549,131.406H3.534C3.042,131.406 2.637,131.798 2.637,132.282V167.335C2.637,167.828 3.042,168.219 3.534,168.219H9.907C10.399,168.219 10.795,167.828 10.795,167.335V156.995H26.549C33.603,156.995 39.323,152.886 39.323,146.703V142.602C39.323,136.419 33.603,131.406 26.549,131.406ZM238.223,131.406H232.575C232.075,131.406 231.677,131.798 231.677,132.282V157.657C228.733,154.367 209.203,132.574 208.712,132.055C208.183,131.506 207.481,131.406 207.02,131.406H201.421C200.937,131.406 200.539,131.798 200.539,132.282V167.335C200.539,167.828 200.936,168.219 201.421,168.219H207.077C207.569,168.219 207.974,167.828 207.974,167.335V141.754C210.107,144.126 230.629,167.037 231.128,167.565C231.664,168.113 232.358,168.219 232.827,168.219H238.223C238.716,168.219 239.121,167.828 239.121,167.335V132.282C239.121,131.798 238.716,131.406 238.223,131.406ZM130.318,130.901H117.291C110.232,130.901 104.502,135.907 104.502,142.089V157.515C104.502,163.697 110.232,168.703 117.291,168.703H130.319C137.378,168.703 143.099,163.697 143.099,157.515V147.623H123.339V152.822C123.339,153.299 123.735,153.698 124.227,153.698H135.049V160.848C135.049,161.332 134.651,161.724 134.158,161.724H113.451C112.952,161.724 112.554,161.333 112.554,160.848V138.763C112.554,138.279 112.952,137.887 113.451,137.887H134.159C134.651,137.887 135.049,138.279 135.049,138.763V142.993C135.049,143.479 135.448,143.869 135.94,143.869H142.211C142.702,143.869 143.1,143.479 143.1,142.993V142.088C143.1,135.908 137.378,130.901 130.318,130.901ZM179.129,132.375C178.774,131.755 178.209,131.349 177.508,131.349H171.931C171.229,131.349 170.665,131.755 170.304,132.375L152.734,166.453C152.148,167.557 152.654,168.213 153.689,168.213H159.258C160.068,168.213 160.372,167.999 160.776,167.244L174.723,139.824L188.654,167.244C189.065,167.999 189.371,168.213 190.179,168.213H195.75C196.783,168.213 197.291,167.557 196.697,166.453L179.129,132.375ZM222.466,98.111C222.466,99.923 222.134,101.344 219.889,102.492C218.084,103.414 215.103,104.856 212.425,106.145C209.74,104.856 206.758,103.414 204.954,102.492C202.709,101.344 202.377,99.923 202.377,98.111V96.152H222.465L222.466,98.111ZM239.002,89.695H230.391V85.946C230.391,85.364 229.931,84.9 229.358,84.9H223.498C222.928,84.9 222.473,85.364 222.473,85.946L222.466,89.695H202.377V85.946C202.378,85.81 202.353,85.674 202.301,85.548C202.25,85.421 202.174,85.306 202.078,85.209C201.982,85.112 201.868,85.035 201.742,84.981C201.617,84.928 201.482,84.901 201.345,84.9H195.483C194.912,84.9 194.457,85.364 194.457,85.946L194.451,89.695H185.84C185.291,89.695 184.842,90.15 184.842,90.711V95.136C184.842,95.696 185.291,96.152 185.84,96.152H194.451V98.907C194.451,102.118 195.895,105.151 199.756,107.065C201.222,107.801 203.034,108.693 204.967,109.635C201.531,111.057 198.5,111.712 195.296,111.712H187.16C186.589,111.712 186.128,112.182 186.128,112.758V117.116C186.128,117.698 186.589,118.17 187.16,118.17H195.166C198.363,118.17 202.283,117.478 205.596,116.218C206.946,115.703 209.494,114.555 212.425,113.191C215.349,114.554 217.897,115.703 219.247,116.219C222.56,117.478 226.479,118.171 229.684,118.171H237.69C238.252,118.171 238.714,117.698 238.714,117.116V112.758C238.714,112.182 238.252,111.712 237.69,111.712H229.547C226.342,111.712 223.309,111.057 219.881,109.635C221.62,108.787 223.355,107.931 225.086,107.065C228.948,105.151 230.391,102.118 230.391,98.907V96.152H239.003C239.551,96.152 240,95.696 240,95.136V90.711C240,90.15 239.551,89.695 239.002,89.695ZM168.045,84.481C167.245,84.481 166.616,84.908 166.357,85.43L159.636,98.789C159.369,99.305 159.694,99.732 160.214,99.732H166.964C167.778,99.732 168.399,99.305 168.658,98.789L175.379,85.431C175.647,84.908 175.322,84.481 174.801,84.481H168.045ZM111.215,111.793H71.838V79.585H111.214L111.215,111.793ZM113.17,73.709H69.882C66.641,73.709 64.021,76.388 64.021,79.687V112.162C64.021,115.467 66.641,118.14 69.882,118.14H113.17C116.412,118.14 119.033,115.467 119.033,112.162V79.687C119.033,76.388 116.412,73.709 113.17,73.709ZM186.207,85.173H190.87C191.426,85.173 191.873,84.716 191.873,84.149V81.175H232.969V84.149C232.969,84.716 233.415,85.174 233.965,85.174H238.636C239.182,85.174 239.632,84.716 239.632,84.149V80.74C239.632,77.839 237.328,75.49 234.484,75.49H216.778V73.016C216.778,72.456 216.33,72 215.774,72H209.061C208.513,72 208.065,72.456 208.065,73.016V75.49H190.351C187.515,75.49 185.204,77.839 185.204,80.74V84.149C185.203,84.283 185.227,84.415 185.277,84.539C185.326,84.662 185.4,84.775 185.493,84.87C185.587,84.966 185.698,85.041 185.821,85.093C185.943,85.145 186.074,85.172 186.207,85.173ZM47.743,103.415H32.578V85.168H47.743V103.415ZM23.447,103.415H8.28V85.168H23.446L23.447,103.415ZM50.162,78.548H32.577V73.194C32.577,72.626 32.13,72.171 31.581,72.171H24.449C24.316,72.172 24.185,72.199 24.062,72.251C23.94,72.303 23.829,72.379 23.735,72.474C23.642,72.568 23.569,72.681 23.519,72.804C23.469,72.928 23.445,73.06 23.446,73.193V78.547H5.861C2.628,78.547 0,81.219 0,84.526V104.055C0,107.361 2.628,110.033 5.861,110.033H23.446V118.45C23.445,118.583 23.469,118.715 23.519,118.838C23.569,118.962 23.642,119.074 23.735,119.169C23.828,119.264 23.939,119.34 24.062,119.392C24.184,119.444 24.315,119.471 24.448,119.473H31.581C32.13,119.473 32.577,119.016 32.577,118.449V110.033H50.161C53.403,110.033 56.023,107.36 56.023,104.054V84.525C56.023,81.219 53.404,78.548 50.162,78.548ZM107.195,100.232H101.262V102.589H95.379V97.309H105.506V92.317H95.379V88.665H107.195V83.245H75.859V88.665H87.676V92.317H77.549V97.309H87.676V102.589H75.859V108.016H107.195V100.232ZM138.047,99.733H144.796C145.315,99.733 145.64,99.305 145.373,98.789L138.654,85.432C138.393,84.909 137.764,84.482 136.964,84.482H130.207C129.689,84.482 129.364,84.909 129.63,85.431L136.35,98.789C136.61,99.305 137.23,99.733 138.047,99.733ZM178.767,103.258H156.866V80.963H176.983C177.539,80.963 177.987,80.506 177.987,79.938V75.622C177.987,75.061 177.538,74.606 176.983,74.606H128.026C127.478,74.606 127.031,75.061 127.031,75.622V79.937C127.031,80.504 127.478,80.961 128.026,80.961H148.152V103.257H126.244C125.695,103.257 125.247,103.714 125.247,104.281V108.832C125.247,109.392 125.696,109.848 126.244,109.848H148.152V118.448C148.152,119.015 148.6,119.472 149.148,119.472H155.861C155.994,119.471 156.126,119.443 156.249,119.392C156.371,119.34 156.483,119.264 156.576,119.169C156.669,119.074 156.743,118.961 156.792,118.837C156.842,118.714 156.867,118.582 156.865,118.448V109.848H178.766C179.321,109.848 179.769,109.392 179.769,108.832V104.281C179.769,103.714 179.321,103.258 178.767,103.258Z" fill="#000" stroke="" stroke-width="" stroke-miterlimit=""/>
	</svg>
