<?xml version="1.0" encoding="utf-8"?>
	<svg version="1.1" xmlns="http://www.w3.org/2000/svg" xmlns:xlink="http://www.w3.org/1999/xlink" x="0px" y="0px" width="240.0" height="240.0" xml:space="preserve">
		<path d="M209.551,55.2C209.102,53.85 209.102,52.95 208.653,51.6C205.511,39.45 193.84,30 179.925,30L59.626,30C46.608,30 35.835,38.1 31.796,50.7C31.796,51.15 31.347,52.05 31.347,52.5C30,55.65 30,58.35 30,61.5L30,180.3C30,181.65 30,183.45 30.449,184.8C30.898,187.5 31.347,189.75 32.693,192C36.284,201 43.017,206.4 51.995,208.65C52.444,209.1 53.791,209.1 54.239,210L185.312,210C185.761,209.1 187.556,209.55 188.005,208.65C196.983,206.4 203.716,200.55 207.307,192C208.653,190.2 208.653,187.5 210,186.15L210,184.35L210,57C210,56.55 210,56.1 209.551,55.2ZM178.13,64.2L178.13,105.6C174.09,106.05 169.601,106.05 165.561,105.6L165.561,101.1L165.561,98.4L165.561,65.55L165.561,64.2C165.561,63.75 166.01,62.85 166.459,62.85L177.232,62.85C177.681,62.85 178.13,63.75 178.13,64.2L178.13,64.2ZM73.541,60.6C84.763,57.9 96.434,63.3 101.82,74.1L103.167,76.8L103.167,78.15C103.167,79.05 103.616,79.95 104.065,80.85L104.065,88.95C100.923,101.1 93.741,107.85 82.519,109.65C68.603,111.45 55.586,100.65 55.137,86.25L55.137,80.4C55.137,79.05 55.586,77.7 56.484,76.35C59.626,68.25 65.012,62.4 73.541,60.6L73.541,60.6ZM177.232,139.35C167.357,173.1 130.1,192 96.883,179.4C75.786,171.75 63.666,156 57.382,134.85C60.075,134.4 62.768,134.4 65.461,134.4L73.541,134.4C76.683,134.4 79.377,134.85 82.519,134.85C87.456,152.85 104.514,166.8 123.367,168.15C143.117,169.5 161.97,158.25 169.152,139.8C170.948,135.75 172.743,133.05 177.232,133.95C177.681,134.4 177.681,134.85 178.13,135.3C177.232,136.2 177.681,138 177.232,139.35Z" fill="#000" stroke="#00000000" stroke-width="1.0" stroke-miterlimit=""/>
	</svg>
