<?xml version="1.0" encoding="utf-8"?>
	<svg version="1.1" xmlns="http://www.w3.org/2000/svg" xmlns:xlink="http://www.w3.org/1999/xlink" x="0px" y="0px" width="240.0" height="240.0" xml:space="preserve">
		<path d="M210.518,136.047C214.699,126.791 218.852,117.594 216.07,104.325C208.318,68.335 189.883,61.079 165.054,51.307C152.565,46.392 138.458,40.841 123.28,30.675C65.442,-8.022 23,66.876 23,121.385C23,140.941 23.416,155.921 30.906,173.813C46.301,212.094 86.663,220 121.615,220C149.494,220 212.325,216.255 204.419,165.907C202.6,153.581 206.572,144.787 210.518,136.047ZM83.786,142.02C81.841,137.324 80.841,132.292 80.841,127.21C80.841,122.128 81.841,117.096 83.786,112.4C85.73,107.705 88.581,103.439 92.174,99.845C95.767,96.252 100.034,93.401 104.729,91.456C109.424,89.511 114.456,88.51 119.538,88.51C124.62,88.51 129.652,89.511 134.348,91.456C139.043,93.401 143.309,96.252 146.902,99.845C150.496,103.439 153.346,107.705 155.29,112.4C157.235,117.096 158.236,122.128 158.235,127.21C158.236,132.292 157.235,137.324 155.29,142.02C153.346,146.715 150.496,150.981 146.902,154.575C143.309,158.169 139.043,161.019 134.348,162.964C129.652,164.909 124.62,165.91 119.538,165.91C114.456,165.91 109.424,164.909 104.729,162.964C100.034,161.019 95.767,158.169 92.174,154.575C88.581,150.981 85.73,146.715 83.786,142.02Z" fill="#000" stroke="" stroke-width="" stroke-miterlimit=""/>
		<path d="M100.225,119.338C100.727,119.841 101.354,120.209 102.069,120.421C102.785,120.634 103.575,120.687 104.394,120.578C105.214,120.469 106.047,120.199 106.846,119.784C107.645,119.37 108.395,118.818 109.051,118.161C109.708,117.505 110.26,116.755 110.674,115.956C111.089,115.157 111.359,114.324 111.468,113.504C111.577,112.685 111.524,111.895 111.311,111.179C111.098,110.464 110.73,109.837 110.228,109.335C109.726,108.832 109.099,108.464 108.384,108.252C107.668,108.039 106.878,107.986 106.058,108.095C105.239,108.204 104.406,108.474 103.607,108.889C102.808,109.303 102.058,109.855 101.401,110.512C100.745,111.169 100.193,111.918 99.779,112.717C99.364,113.516 99.094,114.349 98.985,115.169C98.876,115.989 98.929,116.779 99.142,117.494C99.354,118.209 99.722,118.836 100.225,119.338Z" fill="#000" stroke="" stroke-width="" stroke-miterlimit=""/>
	</svg>
