<?xml version="1.0" encoding="utf-8"?>
	<svg version="1.1" xmlns="http://www.w3.org/2000/svg" xmlns:xlink="http://www.w3.org/1999/xlink" x="0px" y="0px" width="240.0" height="240.0" xml:space="preserve">
		<path d="M145,110C135,110 128.75,115 128.75,121.875C128.75,128.75 135,133.75 145,133.75C155,133.75 161.25,128.75 161.25,121.875C160.625,115 154.375,110.625 145,110ZM95.625,110C85.625,110 79.375,115 79.375,121.875C79.375,128.75 85.625,133.75 95.625,133.75C105.625,133.75 111.875,128.75 111.875,121.875C111.25,115 105,110.625 95.625,110ZM46.25,110C36.25,110 30,115 30,121.875C30,128.75 36.25,133.75 46.25,133.75C56.25,133.75 62.5,128.75 62.5,121.875C61.875,115 55.625,110.625 46.25,110ZM120,20C65,20 20,65 20,120C20,175 65,220 120,220C175,220 220,175 220,120C220,65 175,20 120,20ZM46.25,139.375C32.5,139.375 23.125,131.875 23.125,121.875C23.125,111.875 32.5,104.375 45.625,104.375H46.25C60,104.375 68.75,111.875 68.75,121.875C68.75,131.875 60,139.375 46.25,139.375V139.375ZM95.625,139.375C88.75,139.375 83.125,137.5 79.375,135V150.625H72.5V106.25H79.375V109.375C83.125,106.875 88.75,105 95,105H95.625C109.375,105 118.125,112.5 118.125,122.5C118.75,132.5 108.75,139.375 95.625,139.375V139.375ZM145,139.375C138.125,139.375 132.5,137.5 128.75,135V150.625H121.875V106.25H128.75V109.375C132.5,106.875 138.125,105 144.375,105H145C158.75,105 167.5,112.5 167.5,122.5C167.5,132.5 158.75,139.375 145,139.375ZM194.375,139.375C180.625,139.375 171.25,131.875 171.25,121.875C171.25,111.875 180.625,104.375 193.75,104.375H194.375C208.125,104.375 216.875,111.875 216.875,121.875C216.875,131.875 207.5,139.375 194.375,139.375V139.375ZM193.75,110C183.75,110 177.5,115 177.5,121.875C177.5,128.75 183.75,133.75 193.75,133.75C203.75,133.75 210,128.75 210,121.875C210,115 203.75,110.625 193.75,110V110Z" fill="#000" stroke="" stroke-width="" stroke-miterlimit=""/>
	</svg>
