<?xml version="1.0" encoding="utf-8"?>
	<svg version="1.1" xmlns="http://www.w3.org/2000/svg" xmlns:xlink="http://www.w3.org/1999/xlink" x="0px" y="0px" width="192.0" height="192.0" xml:space="preserve">
		<path d="M73.4,161.6c0,1.2-0.1,2.4,0,3.6c0.5,8.2,5.3,11.9,13.4,10.5c2.5-0.5,5-1.1,7.5-2c14.4-5.5,26.4-14.4,37-25.4 c2.9-3-0.3-4.3-1.5-6.2c-1.4-2.2-2.7-0.6-3.9,0.3c-4.3,3.2-8.8,6.1-14,7.7c-2.8,0.8-3.9,0-4.2-2.8c-0.2-2.5,0.2-4.9,0.8-7.4 c3-13.8,6-27.5,9-41.3c1.3-5.9,2.6-11.9,1.8-18c-1-7.6-4.3-9.8-11.6-8.1c-9.2,2.1-17.5,6.4-25.5,11.3c-7.5,4.5-14.5,9.7-21.1,15.5 c-2.4,2.1-2.1,3,0.5,6.6c1.6,2.1,2.9,0.9,4.3,0c4.1-2.6,8.4-4.9,13-6.6c4.5-1.7,5.8-0.7,4.9,4c-2.3,12-4.7,23.9-7,35.9 C75.5,146.7,73.4,154,73.4,161.6z M91.3,36.2c0,8.4,3.9,13.3,11.6,14.8c10.7,2.1,21.6-5,24.2-15.7c1.9-7.9-2.3-16.1-9.4-18.3 C104.7,12.8,91.3,22.5,91.3,36.2z" fill="#000" stroke="#000" stroke-width="1.0" stroke-miterlimit="10.0"/>
	</svg>
