<?xml version="1.0" encoding="utf-8"?>
	<svg version="1.1" xmlns="http://www.w3.org/2000/svg" xmlns:xlink="http://www.w3.org/1999/xlink" x="0px" y="0px" width="240.0" height="240.0" xml:space="preserve">
		<path d="M119.334,175.081C112.302,175.086 105.27,175.13 98.237,175.072C90.93,175.013 85.967,170.03 85.882,162.717C85.83,158.276 85.74,153.829 85.915,149.394C86.024,146.652 85.037,144.909 82.871,143.186C57.754,123.197 51.757,90.027 68.228,62.882C85.979,33.627 125.63,25.051 154.046,44.318C186.15,66.086 190.309,111.643 162.617,138.642C160.506,140.7 158.206,142.62 155.768,144.271C153.448,145.841 152.608,147.731 152.725,150.481C152.912,154.79 152.852,159.116 152.746,163.433C152.587,169.851 147.582,174.933 141.171,175.047C133.893,175.176 126.613,175.077 119.334,175.081M120.064,191.886C127.469,191.883 134.876,191.992 142.277,191.833C145.557,191.762 146.924,192.793 146.9,196.262C146.845,204.332 144.468,206.906 136.345,206.917C125.115,206.932 113.884,206.94 102.654,206.914C94.496,206.895 90.641,201.861 92.632,194.03C93.178,191.886 94.746,191.898 96.369,191.895C104.267,191.88 112.166,191.889 120.064,191.886" fill="#000" stroke="#00000000" stroke-width="1.0" stroke-miterlimit=""/>
		<path d="M239.789,22.017C239.457,24.788 237.854,26.787 234.748,27.188C232.806,27.439 230.813,27.33 228.843,27.343C223.645,27.379 223.637,27.381 223.604,32.419C223.593,34.02 223.677,35.633 223.515,37.221C223.185,40.428 221.489,42.52 218.143,42.757C215.179,42.966 212.789,40.544 212.522,37.097C212.35,34.891 212.395,32.664 212.435,30.447C212.473,28.258 211.454,27.314 209.296,27.352C207.08,27.391 204.852,27.435 202.646,27.264C199.244,27.001 196.921,24.575 197.002,21.599C197.078,18.773 199.334,16.545 202.596,16.267C204.433,16.111 206.301,16.06 208.135,16.212C211.278,16.472 212.752,15.327 212.473,12.021C212.298,9.942 212.361,7.827 212.51,5.742C212.756,2.302 215.104,-0.034 218.081,0C221.046,0.035 223.332,2.393 223.543,5.862C223.692,8.318 223.636,10.789 223.622,13.252C223.61,15.253 224.558,16.174 226.55,16.168C229.137,16.16 231.734,16.085 234.308,16.288C237.527,16.541 239.784,18.911 239.789,22.017" fill="#000" stroke="#00000000" stroke-width="1.0" stroke-miterlimit=""/>
	</svg>
