<?xml version="1.0" encoding="utf-8"?>
	<svg version="1.1" xmlns="http://www.w3.org/2000/svg" xmlns:xlink="http://www.w3.org/1999/xlink" x="0px" y="0px" width="240.0" height="240.0" xml:space="preserve">
		<path d="M179.89,217.505C174.214,217.505 168.533,217.505 162.857,217.505C162.418,217.385 161.984,217.187 161.538,217.148C151.412,216.264 141.44,214.478 131.527,212.231C118.736,209.324 106.33,205.269 94.253,200.198C74.412,191.863 56.132,180.874 39,167.857C30.11,161.099 22.571,153.566 20,142.231C20,138.566 20,134.907 20,131.242C22.275,122.247 27.291,114.962 34.006,108.72C39.165,103.923 44.379,99.17 49.396,94.225C54.896,88.808 60.896,84.357 68.588,82.599C70.456,82.17 72.269,81.506 74.093,80.901C95.659,73.742 117.681,68.335 139.989,64.126C154.643,61.357 169.385,59.165 184.22,57.566C192.132,56.714 200.049,56.006 207.978,55.357C210.165,55.176 211.643,55.643 212.214,58.088C215.071,70.302 217.615,82.555 218.527,95.104C218.901,100.198 219.506,105.275 220,110.363C220,115.857 220,121.352 220,126.846C219.308,133.841 218.742,140.852 217.901,147.824C216.022,163.401 212.83,178.698 206.753,193.225C201.637,205.456 193.742,214.835 179.89,217.505ZM59.632,128.489C59.632,135.077 59.621,141.665 59.643,148.247C59.648,149.407 59.44,150.687 60.835,151.346C63.994,152.83 66.698,151.181 66.703,147.709C66.725,139.203 66.698,130.692 66.731,122.187C66.736,121.236 66.269,119.89 67.352,119.445C68.538,118.956 68.983,120.379 69.549,121.093C74.143,126.907 78.665,132.769 83.22,138.61C86.143,142.357 89.132,146.06 92.011,149.846C93.731,152.11 96.066,151.835 98.253,151.313C100.291,150.824 99.604,148.797 99.692,147.335C99.786,145.786 99.714,144.225 99.714,142.67C99.714,131.511 99.725,120.352 99.698,109.187C99.692,107.956 100,106.538 98.538,105.786C95.396,104.176 92.517,105.923 92.511,109.467C92.494,117.791 92.511,126.115 92.483,134.44C92.483,135.319 92.797,136.544 91.857,136.94C90.769,137.401 90.401,136.093 89.885,135.445C86.368,131 82.912,126.505 79.418,122.038C75.533,117.066 71.615,112.121 67.747,107.137C65.846,104.692 63.225,105.319 60.929,105.802C58.907,106.231 59.67,108.385 59.654,109.824C59.588,116.044 59.632,122.269 59.632,128.489ZM151.758,136.264C151.758,133.885 151.72,131.505 151.769,129.126C151.808,127.346 151.148,126.374 149.225,126.39C144.56,126.429 139.896,126.44 135.231,126.39C132.835,126.368 132.67,127.874 132.67,129.681C132.67,131.423 132.951,132.797 135.159,132.758C137.445,132.714 139.731,132.758 142.022,132.791C142.835,132.802 143.681,132.791 144.264,133.555C145.665,135.39 144.577,142.077 142.659,143.368C137.841,146.615 128.346,146.538 123.544,143.22C115.945,137.967 113.951,126.604 119.242,118.725C124.346,111.121 134.681,109.346 142.819,114.67C145.286,116.286 146.615,115.731 148.753,112.335C150.198,110.033 148.17,109.401 146.896,108.632C133.368,100.456 111.275,105.181 108.681,126.115C107.533,135.363 111.934,144.852 119.934,149.39C128.566,154.286 142.286,153.126 150.066,146.907C151.247,145.962 151.819,144.901 151.78,143.396C151.72,141.022 151.764,138.643 151.758,136.264ZM199.659,151.571C203.945,151.577 204.077,151.291 202.5,147.714C196.742,134.654 191,121.588 185.341,108.484C184.484,106.505 183.489,105.297 181.126,105.396C178.714,105.495 176.582,105.291 175.352,108.264C171.753,116.973 167.83,125.544 164.044,134.176C161.841,139.203 159.643,144.236 157.462,149.275C157.066,150.187 156.434,151.143 158.143,151.538C161.923,152.401 163.989,151.44 165.489,147.978C166.214,146.297 167.027,144.648 167.632,142.923C168.28,141.071 169.495,140.423 171.39,140.451C175.599,140.522 179.813,140.467 184.022,140.467C191.89,140.467 191.967,140.44 194.665,147.808C195.659,150.489 197.016,152.143 199.659,151.571Z" fill="#000" stroke="" stroke-width="" stroke-miterlimit=""/>
		<path d="M183.186,23C186.444,24.429 190.021,24.863 193.191,26.681C200.202,30.703 204.752,36.676 207.708,44.011C208.708,46.494 208.274,46.994 205.565,47.308C184.098,49.753 162.757,52.978 141.653,57.637C118.565,62.736 95.922,69.352 73.916,78.06C71.362,79.071 68.823,80.104 66.268,81.115C66.136,81.165 65.938,81.038 65.746,80.989C65.647,79.962 66.499,79.593 67.098,79.11C81.466,67.56 96.559,57.082 112.609,47.984C128.587,38.923 145.301,31.56 162.691,25.681C165.999,24.56 169.548,24.462 172.746,23C176.224,23 179.708,23 183.186,23Z" fill="#000" stroke="" stroke-width="" stroke-miterlimit=""/>
		<path d="M180.219,134.022C178.301,134.022 176.384,134.038 174.472,134.016C172.741,134 171.796,133.313 172.57,131.462C174.691,126.418 176.796,121.363 179.01,116.363C179.768,114.654 180.73,114.989 181.395,116.533C183.565,121.555 185.702,126.599 187.884,131.615C188.647,133.368 187.895,133.994 186.241,134.016C184.235,134.038 182.224,134.022 180.219,134.022Z" fill="#000" stroke="" stroke-width="" stroke-miterlimit=""/>
	</svg>
