<?xml version="1.0" encoding="utf-8"?>
	<svg version="1.1" xmlns="http://www.w3.org/2000/svg" xmlns:xlink="http://www.w3.org/1999/xlink" x="0px" y="0px" width="240.0" height="240.0" xml:space="preserve">
		<path d="M68.229,206.813C70.887,210.136 73.379,211.423 75.705,210.676C78.031,209.928 79.028,207.311 78.696,202.826C78.53,200.333 78.488,198.381 78.571,196.969C78.654,195.557 79.028,193.106 79.693,189.617C80.523,185.131 81.146,180.729 81.562,176.409C81.977,172.089 82.019,168.766 81.686,166.44C81.354,164.114 81.437,161.456 81.936,158.465C82.434,155.475 83.265,151.404 84.428,146.254C84.926,143.762 84.802,142.433 84.054,142.267C83.306,142.1 82.517,143.43 81.686,146.254C80.856,149.078 79.859,153.024 78.696,158.092C77.533,163.159 76.453,168.6 75.456,174.415C75.124,176.243 74.625,177.115 73.961,177.032C73.296,176.949 72.632,175.744 71.967,173.418C71.801,172.754 71.759,171.051 71.842,168.309C71.925,165.568 72.175,162.411 72.59,158.839C73.005,155.267 73.504,151.612 74.085,147.874C74.667,144.136 75.29,140.854 75.954,138.03C76.287,136.867 76.536,135.662 76.702,134.416C76.868,133.17 76.993,131.675 77.076,129.931C77.159,128.186 77.159,126.026 77.076,123.451C76.993,120.876 76.868,117.678 76.702,113.856C79.36,110.533 81.396,107.917 82.808,106.006C84.22,104.095 85.425,102.517 86.421,101.271C87.418,100.025 88.332,99.028 89.163,98.28C89.993,97.533 91.156,96.66 92.652,95.664C93.981,94.833 94.895,93.462 95.393,91.552C95.892,89.641 95.808,87.273 95.144,84.449C94.479,81.625 93.15,78.426 91.156,74.854C89.163,71.282 86.255,67.419 82.434,63.266C84.76,61.272 87.169,59.735 89.661,58.655C92.153,57.575 95.476,56.869 99.63,56.537C103.949,56.205 106.109,52.799 106.109,46.319C106.109,43.993 105.445,41.543 104.116,38.967C102.786,36.392 101.042,33.983 98.882,31.74C96.722,29.497 94.272,27.587 91.53,26.008C88.789,24.43 85.923,23.475 82.932,23.142C80.606,22.81 79.153,23.059 78.571,23.89C77.99,24.721 77.782,26.382 77.948,28.874C78.114,30.702 77.574,32.737 76.328,34.98C75.082,37.223 73.379,39.3 71.219,41.21C69.06,43.121 66.65,44.741 63.992,46.07C61.334,47.399 58.676,48.147 56.017,48.313C54.024,48.479 52.279,49.974 50.784,52.799C49.289,55.623 48.624,59.029 48.79,63.017C48.956,66.838 49.247,69.828 49.662,71.988C50.078,74.148 50.701,75.643 51.531,76.474C52.362,77.305 53.567,77.513 55.145,77.097C56.723,76.682 58.842,75.81 61.5,74.48C63.328,73.484 65.155,72.736 66.983,72.238C68.81,71.739 70.389,71.324 71.718,70.991C74.044,72.487 75.248,74.314 75.331,76.474C75.414,78.634 74.21,81.791 71.718,85.944C69.558,89.433 67.19,93.005 64.615,96.66C62.04,100.316 59.382,103.888 56.64,107.377C53.899,110.866 51.199,114.189 48.541,117.345C45.883,120.502 43.474,123.243 41.314,125.569C38.489,128.56 36.288,130.844 34.71,132.423C33.131,134.001 31.968,135.039 31.221,135.538C30.473,136.036 30.016,136.078 29.85,135.662C29.684,135.247 29.601,134.541 29.601,133.544C29.767,132.547 29.518,132.007 28.853,131.924C28.188,131.841 27.275,132.464 26.112,133.793C24.783,135.621 23.661,137.739 22.747,140.148C21.834,142.557 21.044,145.922 20.38,150.241C19.715,154.561 19.923,157.053 21.003,157.718C22.083,158.382 25.281,157.552 30.598,155.226C32.757,154.229 34.626,153.274 36.205,152.36C37.783,151.446 39.611,150.117 41.688,148.372C43.764,146.628 46.381,144.219 49.538,141.145C52.694,138.072 56.931,133.876 62.248,128.56C62.248,131.052 62.123,134.458 61.874,138.778C61.625,143.097 61.334,147.5 61.002,151.986C60.669,156.472 60.337,160.625 60.005,164.447C59.672,168.268 59.423,170.926 59.257,172.421C58.759,175.246 58.634,178.195 58.883,181.269C59.132,184.342 59.672,187.416 60.503,190.489C61.334,193.563 62.414,196.512 63.743,199.337C65.072,202.161 66.567,204.653 68.229,206.813ZM167.197,217.093L167.665,217.031C169.16,216.698 171.071,214.788 173.397,211.299C174.892,209.139 176.097,207.145 177.011,205.318C177.924,203.49 178.631,201.496 179.129,199.337C179.627,197.177 179.918,194.643 180.001,191.736C180.084,188.828 180.043,185.131 179.877,180.646C179.544,174.997 179.295,168.766 179.129,161.954C178.963,155.143 178.88,148.372 178.88,141.644C178.88,134.915 178.921,128.518 179.004,122.454C179.087,116.39 179.295,111.281 179.627,107.127C179.794,104.968 179.835,103.223 179.752,101.894C179.669,100.565 179.461,99.485 179.129,98.654C178.797,97.823 178.215,97.117 177.384,96.536C176.554,95.954 175.557,95.248 174.394,94.418C176.388,94.251 178.298,94.127 180.126,94.044C181.953,93.961 183.989,93.961 186.232,94.044C188.474,94.127 191.174,94.251 194.331,94.418C197.488,94.584 201.558,94.75 206.542,94.916C213.52,95.248 217.757,94.127 219.252,91.552C220.748,88.976 220,85.695 217.009,81.708C214.517,78.551 211.859,76.017 209.035,74.107C206.21,72.196 202.14,71.324 196.823,71.49C191.507,71.656 184.487,72.902 175.765,75.228C167.042,77.554 155.703,81.292 141.747,86.443C142.578,84.947 143.491,83.535 144.488,82.206C145.485,80.877 147.146,78.966 149.473,76.474C151.798,73.982 155.038,70.701 159.192,66.63C163.345,62.56 168.994,57.119 176.138,50.307C180.126,46.485 182.12,42.996 182.12,39.84C182.12,36.683 179.212,33.194 173.397,29.373C171.237,28.044 168.579,27.379 165.422,27.379C162.265,27.379 159.026,28.293 155.703,30.12C153.377,31.45 151.342,32.28 149.597,32.613C147.853,32.945 145.07,32.945 141.248,32.613C140.252,32.446 139.338,32.446 138.507,32.613C137.676,32.779 136.68,33.402 135.517,34.482C134.354,35.562 132.9,37.14 131.155,39.217C129.411,41.293 127.126,44.159 124.302,47.815C122.64,49.974 122.017,51.262 122.433,51.677C122.848,52.093 124.385,51.22 127.043,49.061C129.369,47.233 131.321,45.904 132.9,45.073C134.478,44.243 136.056,44.076 137.635,44.575C139.213,45.073 140.999,46.361 142.993,48.438C144.987,50.514 147.562,53.463 150.719,57.285C141.248,68.749 133.44,77.056 127.292,82.206C121.145,87.356 116.742,90.264 114.084,90.929C107.771,92.424 104.863,97.325 105.362,105.632C105.528,109.62 106.275,112.693 107.605,114.853C108.934,117.013 111.052,118.051 113.96,117.968C116.867,117.885 120.73,116.681 125.548,114.355C130.366,112.029 136.43,108.374 143.741,103.389C147.396,104.22 150.345,104.968 152.588,105.632C154.831,106.297 156.534,106.92 157.697,107.501C158.86,108.083 159.607,108.789 159.939,109.62C160.272,110.45 160.438,111.53 160.438,112.859C160.438,119.007 160.687,127.065 161.186,137.033C161.684,147.002 162.265,159.545 162.93,174.664C163.262,179.15 162.265,182.348 159.939,184.259C157.613,186.17 154.374,186.959 150.22,186.627C146.399,186.294 141.996,185.214 137.012,183.387C132.028,181.559 126.96,179.067 121.81,175.91C119.318,174.249 118.113,173.834 118.196,174.664C118.279,175.495 120.398,177.904 124.551,181.892C132.526,189.534 139.421,195.889 145.236,200.956C151.051,206.024 156.367,210.468 161.186,214.289C164.01,216.449 166.17,217.363 167.665,217.031L167.197,217.093Z" fill="#000" stroke="#00000000" stroke-width="1.0" stroke-miterlimit=""/>
	</svg>
