<?xml version="1.0" encoding="utf-8"?>
	<svg version="1.1" xmlns="http://www.w3.org/2000/svg" xmlns:xlink="http://www.w3.org/1999/xlink" x="0px" y="0px" width="240.0" height="240.0" xml:space="preserve">
		<path d="M20.041,154.111C20.041,144.755 20.021,135.404 20.046,126.049C20.061,120.111 23.186,117.095 29.138,117.085C31.588,117.08 33.863,117.821 36.174,118.466C43.329,120.469 50.27,123.087 57.25,125.611C62.82,127.624 68.678,127.266 74.442,126.774C83.624,125.989 91.842,121.964 100.214,118.571C107.895,115.456 112.576,117.905 116.014,124.801C116.481,125.735 116.421,126.734 116.421,127.718C116.426,145.103 116.625,162.488 116.337,179.868C116.198,188.195 112.034,192.627 104.045,194.143C99.106,195.077 94.266,196.488 89.521,198.138C80.682,201.208 71.908,203.981 62.259,203.255C57.882,202.927 54.11,201.263 50.14,200.011C43.413,197.889 36.715,195.718 29.849,194.078C23.956,192.677 19.922,188.34 20.001,182.174C20.125,172.823 20.031,163.467 20.031,154.111C20.036,154.111 20.041,154.111 20.041,154.111ZM62.234,166.219C62.234,174.244 62.199,182.263 62.254,190.287C62.269,192.598 64.465,194.53 66.835,194.565C69.438,194.6 71.535,192.762 71.699,190.317C71.828,188.424 72.082,186.531 72.087,184.633C72.136,170.582 72.251,156.526 71.699,142.48C71.654,141.396 71.6,140.338 70.686,139.533C69.066,138.112 67.217,137.521 65.185,138.296C63.153,139.071 62.165,140.567 62.189,142.902C62.289,150.673 62.229,158.449 62.234,166.219Z" fill="#000" stroke="" stroke-width="" stroke-miterlimit=""/>
		<path d="M126.378,27.07C133.255,26.901 140.146,26.911 146.829,28.739C152.15,30.195 157.397,31.869 162.525,33.986C177.286,40.067 189.43,49.522 199.416,61.884C208.335,72.929 214.253,85.435 217.507,99.208C219.678,108.4 220.553,117.791 219.648,127.161C218.829,135.638 217.328,144.04 214.262,152.139C208.062,168.53 198.363,182.263 184.734,193.308C175.522,200.776 165.153,206.077 153.999,209.714C149.686,211.12 145.075,211.905 140.524,212.725C132.192,214.236 123.899,213.153 115.601,213.485C113.718,213.56 112.014,212.805 110.37,212.139C108.193,211.255 107.224,208.283 108.014,205.461C108.65,203.186 110.365,202.266 112.65,202.033C116.66,201.625 120.491,203.047 124.485,203.012C133.056,202.937 141.364,201.586 149.636,199.32C158.957,196.771 167.304,192.389 175.016,186.819C183.09,180.986 189.787,173.747 195.302,165.375C199.705,158.697 202.8,151.453 205.468,143.99C206.407,141.357 206.482,138.505 207.157,135.772C208.4,130.729 208.886,125.522 208.772,120.315C208.509,107.888 206.293,95.864 200.758,84.626C192.744,68.363 180.799,55.803 164.82,47.202C158.048,43.555 150.854,40.629 143.301,39.382C134.865,37.991 126.309,36.579 117.653,38.323C114.116,39.034 110.474,38.944 106.916,39.928C101.511,41.424 96.274,43.267 91.181,45.602C81.835,49.885 73.841,55.962 66.616,63.251C57.017,72.929 51.045,84.635 46.662,97.305C46.106,98.92 46.136,100.729 45.803,102.433C44.869,107.203 40.775,109.309 36.815,107.133C34.43,105.826 34.276,103.67 34.465,101.345C34.783,97.42 36.288,93.807 37.505,90.136C41.669,77.565 48.411,66.406 57.34,56.737C64.182,49.329 72.131,43.133 81.04,38.199C90.018,33.231 99.618,30.105 109.555,27.924C115.09,26.707 120.759,27.099 126.378,27.07Z" fill="#000" stroke="" stroke-width="" stroke-miterlimit=""/>
		<path d="M168.099,113.682C160.254,114.447 154.53,107.208 154.63,100.59C154.739,93.46 160.89,87.16 167.995,87.318C176.586,87.512 181.356,93.947 181.226,100.555C181.097,107.208 177.103,113.846 168.099,113.682Z" fill="#000" stroke="" stroke-width="" stroke-miterlimit=""/>
		<path d="M117.857,113.677C110.847,114.631 104.492,106.89 104.84,100.803C105.282,93.022 110.648,87.353 118.344,87.254C124.391,87.174 131.327,93.47 131.337,100.624C131.347,107.928 125.409,113.677 117.857,113.677Z" fill="#000" stroke="" stroke-width="" stroke-miterlimit=""/>
	</svg>
