<?xml version="1.0" encoding="utf-8"?>
	<svg version="1.1" xmlns="http://www.w3.org/2000/svg" xmlns:xlink="http://www.w3.org/1999/xlink" x="0px" y="0px" width="240.0" height="240.0" xml:space="preserve">
		<path d="M170.598,89.714C172.772,87.618 175.295,85.277 177.72,82.838C180.426,80.122 180.411,77.983 177.686,75.218C173.426,70.899 169.127,66.61 164.813,62.341C162.005,59.562 159.87,59.581 156.993,62.385C154.877,64.446 152.866,66.615 150.687,68.598C150.21,69.03 149.073,69.193 148.449,68.947C144.356,67.328 140.352,65.474 136.245,63.895C134.942,63.394 134.445,62.833 134.479,61.456C134.563,58.425 134.538,55.386 134.494,52.351C134.445,49.326 132.841,47.565 129.801,47.521C123.245,47.427 116.683,47.432 110.121,47.525C107.367,47.565 105.921,48.947 105.586,51.726C105.355,53.669 105.399,55.651 105.385,57.614C105.355,61.441 105.375,61.431 101.45,61.446C82.92,61.524 64.391,61.342 45.872,61.785C31.667,62.124 20.117,74.382 20.078,88.617C19.984,123.142 19.97,157.672 20.063,192.202C20.107,208.07 32.34,219.978 48.292,219.988C81.666,220.008 115.035,220.003 148.409,219.973C150.446,219.973 152.502,219.801 154.509,219.462C167.052,217.366 177.204,204.966 176.835,192.34C176.801,191.11 176.643,190.274 175.143,190.289C171.046,190.328 166.943,190.244 162.846,190.377C162.3,190.397 161.395,191.341 161.321,191.941C160.278,200.387 155.787,204.43 147.263,204.43C114.711,204.435 82.158,204.435 49.605,204.43C40.52,204.43 35.606,199.536 35.606,190.48C35.602,158.002 35.606,125.528 35.606,93.049C35.606,83.679 40.486,78.78 49.841,78.774C72.389,78.77 94.942,78.74 117.49,78.794C124.853,78.814 131.882,80.309 138.582,83.6C159.408,93.841 167.45,120.609 155.492,140.496C153.79,143.329 151.734,145.946 149.791,148.739C150.121,148.882 150.328,149.049 150.539,149.049C155.95,149.069 161.365,149.158 166.771,149.044C169.526,148.99 171.631,147.539 172.738,144.991C173.874,142.37 174.951,139.704 175.777,136.969C176.333,135.129 177.071,134.239 179.162,134.381C182.019,134.578 184.897,134.47 187.769,134.406C190.598,134.342 192.398,132.857 192.457,130.112C192.59,123.388 192.595,116.664 192.462,109.94C192.403,107.038 190.603,105.552 187.661,105.503C184.626,105.454 181.591,105.429 178.561,105.513C177.194,105.548 176.589,105.08 176.107,103.757C174.444,99.252 172.61,94.81 170.598,89.714ZM90.5,90.973C84.288,90.973 78.72,90.85 73.161,91.027C70.446,91.111 68.361,92.596 67.308,95.233C66.339,97.663 65.203,100.058 64.519,102.572C63.909,104.82 62.965,105.867 60.476,105.636C57.874,105.39 55.232,105.548 52.611,105.597C49.399,105.651 47.741,107.22 47.707,110.437C47.643,116.831 47.643,123.231 47.717,129.625C47.751,132.68 49.443,134.293 52.493,134.352C55.444,134.411 58.4,134.436 61.347,134.342C62.901,134.293 63.595,134.834 64.15,136.354C65.616,140.338 67.274,144.258 69.069,148.105C69.679,149.413 69.536,150.122 68.558,151.041C66.472,153.009 64.465,155.065 62.463,157.121C59.822,159.831 59.758,161.897 62.36,164.548C66.669,168.936 71.022,173.284 75.4,177.598C78.071,180.23 80.102,180.215 82.832,177.598C84.962,175.557 87.057,173.471 89.089,171.331C89.979,170.392 90.673,170.402 91.843,170.938C95.709,172.699 99.62,174.376 103.604,175.847C105.114,176.403 105.665,177.106 105.631,178.656C105.562,181.769 105.557,184.888 105.69,188.001C105.798,190.574 107.332,192.236 109.861,192.281C116.58,192.394 123.309,192.394 130.028,192.281C132.841,192.231 134.322,190.53 134.42,187.686C134.489,185.719 134.435,183.751 134.44,181.784C134.445,178.39 134.445,178.38 137.765,178.38C154.735,178.375 171.71,178.405 188.679,178.356C191.537,178.346 194.459,178.336 197.248,177.785C210.937,175.08 219.988,163.978 219.997,149.989C220.027,116.285 220.017,82.577 220.002,48.873C219.997,32.066 207.971,20.015 191.193,20.01C158.232,19.995 125.271,19.995 92.31,20.024C90.19,20.024 88.051,20.197 85.955,20.526C73.28,22.538 63.093,34.702 63.314,47.397C63.339,48.854 63.791,49.503 65.282,49.488C69.133,49.449 72.989,49.458 76.841,49.478C78.154,49.483 78.666,48.922 78.803,47.579C79.645,39.606 84.322,35.42 92.335,35.42C125.05,35.41 157.765,35.415 190.475,35.42C199.688,35.42 204.592,40.334 204.592,49.572C204.597,82.046 204.602,114.519 204.592,146.998C204.592,156.329 199.668,161.214 190.283,161.214C167.652,161.218 145.025,161.253 122.394,161.174C119.054,161.164 115.65,160.909 112.389,160.225C81.017,153.619 68.351,117.53 88.71,93.344C89.231,92.724 89.674,92.07 90.5,90.973ZM96.806,119.886C96.777,132.744 107.18,143.211 120.003,143.225C132.699,143.24 143.254,132.807 143.328,120.181C143.402,107.299 132.846,96.703 119.939,96.694C107.288,96.684 96.836,107.166 96.806,119.886Z" fill="#000" stroke="" stroke-width="" stroke-miterlimit=""/>
	</svg>
