<?xml version="1.0" encoding="utf-8"?>
	<svg version="1.1" xmlns="http://www.w3.org/2000/svg" xmlns:xlink="http://www.w3.org/1999/xlink" x="0px" y="0px" width="240.0" height="240.0" xml:space="preserve">
		<path d="M154.992,93.137C156.219,93.147 157.446,93.156 158.673,93.156C159.835,93.152 160.998,93.142 162.161,93.132C165.264,93.104 168.369,93.076 171.458,93.17C174.141,93.257 175.992,94.591 175.963,97.561C175.949,100.618 173.926,101.665 171.271,101.679C162.978,101.722 154.67,101.737 146.376,101.636C143.75,101.593 141.612,100.388 141.756,97.403C141.899,94.577 143.937,93.271 146.577,93.185C149.382,93.095 152.187,93.116 154.992,93.137Z" fill="#000" stroke="" stroke-width="" stroke-miterlimit=""/>
		<path d="M176.638,66.74C176.71,70.141 175.375,71.59 172.018,71.059C168.387,71.618 167.699,69.653 167.627,66.496C167.555,62.679 169.693,62.493 172.606,62.435C175.791,62.378 176.58,63.87 176.638,66.74Z" fill="#000" stroke="" stroke-width="" stroke-miterlimit=""/>
		<path d="M167.641,80.213C167.713,77.215 167.986,74.789 171.601,75.722C175.246,75.134 176.681,76.354 176.667,79.883C176.667,83.384 175.189,84.331 171.946,84.274C168.99,84.217 167.569,83.37 167.641,80.213Z" fill="#000" stroke="" stroke-width="" stroke-miterlimit=""/>
		<path d="M136.92,66.783C136.992,70.27 135.457,71.489 132.257,71.059C128.387,71.464 128.326,68.999 128.259,66.299L128.253,66.08C128.182,62.623 130.325,62.551 132.836,62.466L132.903,62.464C136.074,62.363 136.863,63.913 136.92,66.783Z" fill="#000" stroke="" stroke-width="" stroke-miterlimit=""/>
		<path d="M145.86,62.435C148.787,62.521 150.365,63.44 149.963,66.568C150.408,69.911 148.93,71.202 145.573,71.145C142.588,71.102 141.426,69.983 141.368,66.984C141.297,63.683 142.488,62.335 145.86,62.435Z" fill="#000" stroke="" stroke-width="" stroke-miterlimit=""/>
		<path d="M154.555,66.769C154.641,63.956 155.33,62.162 158.515,62.536C161.127,62.363 163.236,62.65 163.179,66.08C163.15,68.907 163.021,71.145 159.204,71.159C155.961,71.188 154.44,70.241 154.555,66.769Z" fill="#000" stroke="" stroke-width="" stroke-miterlimit=""/>
		<path d="M185.965,62.45C189.236,62.45 189.997,64.157 189.738,66.912C190.04,69.854 188.806,71.131 185.721,71.159C182.449,71.188 181.143,70.026 181.115,66.654C181.086,62.995 182.951,62.464 185.965,62.45Z" fill="#000" stroke="" stroke-width="" stroke-miterlimit=""/>
		<path d="M136.906,79.223C136.848,82.093 136.762,84.633 132.802,84.145C129.459,84.647 128.167,83.212 128.21,79.783C128.253,76.841 129.086,75.421 132.271,75.55L132.319,75.552C134.894,75.666 136.977,75.758 136.906,79.223Z" fill="#000" stroke="" stroke-width="" stroke-miterlimit=""/>
		<path d="M150.092,79.625C150.092,82.882 149.102,84.618 145.616,84.145C141.856,84.647 141.426,82.394 141.383,79.396C141.34,76.067 143.105,75.607 145.845,75.564C148.815,75.521 150.092,76.497 150.092,79.625Z" fill="#000" stroke="" stroke-width="" stroke-miterlimit=""/>
		<path d="M159.075,75.55C161.902,75.708 163.839,76.239 163.078,79.353C163.595,83.04 162.117,84.303 158.745,84.26C155.689,84.217 154.627,83.054 154.555,80.056C154.469,76.698 155.66,75.364 159.075,75.55Z" fill="#000" stroke="" stroke-width="" stroke-miterlimit=""/>
		<path d="M189.824,80.099C189.71,82.997 188.877,84.705 185.864,84.116C182.162,84.618 181.115,82.911 181.115,79.64C181.129,76.526 182.392,75.622 185.348,75.536C188.791,75.45 189.968,76.77 189.824,80.099Z" fill="#000" stroke="" stroke-width="" stroke-miterlimit=""/>
		<path d="M96.432,219.032C91.771,219.028 87.109,219.024 82.448,219.024C77.86,219.024 73.272,219.028 68.684,219.032H68.67C57.967,219.041 47.264,219.05 36.56,219.01C25.297,218.967 20.289,214.748 20.203,203.786C19.93,172.247 19.93,140.694 20.217,109.141C20.317,98.322 25.139,94.146 35.929,94.089C38.825,94.074 41.721,94.055 44.616,94.036C58.451,93.947 72.286,93.857 86.121,94.189C92.507,94.347 94.889,92.826 94.673,85.939C94.27,73.256 94.365,60.565 94.461,47.872C94.487,44.308 94.514,40.745 94.53,37.181C94.587,25.185 99.609,20.077 111.548,20.049C142.139,19.977 172.746,19.991 203.337,20.049C214.759,20.077 219.925,25.272 219.953,36.808C220.011,67.4 220.025,98.006 219.939,128.598C219.91,140.12 214.716,145.286 203.266,145.357C201.118,145.37 198.971,145.385 196.823,145.399L196.818,145.4C182.477,145.497 168.129,145.594 153.791,145.257C147.449,145.099 144.995,146.563 145.21,153.493C145.632,166.582 145.528,179.699 145.425,192.807L145.425,192.813C145.398,196.199 145.371,199.584 145.354,202.968C145.296,214.275 140.489,218.967 129.068,219.01C118.194,219.05 107.32,219.041 96.446,219.032H96.432ZM168.727,48.763C165.563,48.769 162.398,48.775 159.233,48.775C156.09,48.775 152.949,48.768 149.809,48.761L149.799,48.761H149.796C141.944,48.743 134.101,48.726 126.273,48.818C118.281,48.904 115.253,51.774 115.167,59.494C115.024,73.111 115.009,86.742 115.139,100.359C115.196,107.806 118.224,110.992 125.527,111.035C147.754,111.164 169.98,111.15 192.206,111.035C199.897,110.992 202.982,107.778 203.054,100.001C203.183,86.613 203.183,73.24 203.054,59.852C202.982,51.803 199.869,48.875 191.503,48.804C183.907,48.733 176.319,48.748 168.727,48.763ZM50.548,171.53C49.873,171.53 49.198,171.521 48.523,171.512C47.06,171.494 45.597,171.475 44.134,171.544C39.112,171.774 36.917,169.65 36.716,164.427L36.701,164.045C36.33,154.27 36.143,149.358 38.507,146.943C40.894,144.505 45.882,144.611 55.906,144.826L55.915,144.826C60.693,144.927 70.78,152.216 72.516,156.664C73.361,158.832 72.286,160.171 71.093,161.657L71.024,161.744C64.007,170.54 61.941,171.544 50.548,171.53ZM123.591,146.635C122.147,145.301 119.444,145.332 114.411,145.388H114.409C113.22,145.401 111.901,145.416 110.438,145.415C102.596,142.023 97.655,147.391 92.613,152.868C91.982,153.554 91.349,154.242 90.709,154.914C88.528,157.195 88.398,159.075 90.68,161.6C96.577,168.129 102.546,172.807 112.562,171.86C113.397,171.781 114.177,171.712 114.905,171.648C125.107,170.742 125.136,170.74 125.203,159.06L125.204,158.857C125.246,151.56 125.265,148.18 123.591,146.635ZM67.914,128.928C67.914,114.206 67.914,114.206 81.546,114.206L82.329,114.206C84.679,114.204 87.03,114.203 89.38,114.306C91.432,114.392 92.967,115.354 93.8,117.32C97.688,126.503 91.733,144.08 83.095,149.332C81.029,150.595 79.551,150.222 78.073,148.686C77.188,147.77 76.26,146.873 75.335,145.98C70.31,141.128 65.382,136.369 67.914,128.928ZM80.464,202.208C94.167,202.222 94.167,202.208 94.167,187.414C96.686,179.958 91.624,175.142 86.413,170.185C85.747,169.551 85.079,168.916 84.424,168.272C81.712,165.589 80.076,166.522 77.25,168.387C66.774,175.308 67.342,185.439 67.914,195.648C67.951,196.318 67.989,196.989 68.023,197.659C68.167,200.457 69.889,201.964 72.629,202.107C74.74,202.224 76.869,202.217 78.994,202.211C79.484,202.209 79.974,202.208 80.464,202.208Z" fill="#000" stroke="" stroke-width="" stroke-miterlimit=""/>
	</svg>
