<?xml version="1.0" encoding="utf-8"?>
	<svg version="1.1" xmlns="http://www.w3.org/2000/svg" xmlns:xlink="http://www.w3.org/1999/xlink" x="0px" y="0px" width="240.0" height="240.0" xml:space="preserve">
		<path d="M188.721,113.033C188.346,75.379 157.717,45 120.012,45C87.483,45 60.305,67.628 53.129,97.957C33.827,104.907 20,123.285 20,144.987C20,172.616 42.378,194.994 70.006,194.994H178.345C201.348,194.994 220,176.316 220,153.339C220,133.911 206.723,117.634 188.721,113.033V113.033ZM144.591,136.361L125.888,155.039C122.638,158.339 117.387,158.339 114.137,155.039L95.434,136.361C90.184,131.111 93.884,122.11 101.31,122.11H111.686V99.157C111.686,94.581 115.437,90.831 120.012,90.831C124.588,90.831 128.339,94.581 128.339,99.157V122.135H138.715C146.141,122.135 149.841,131.111 144.591,136.361Z" fill="#ff221714" stroke="" stroke-width="" stroke-miterlimit=""/>
	</svg>
