<?xml version="1.0" encoding="utf-8"?>
	<svg version="1.1" xmlns="http://www.w3.org/2000/svg" xmlns:xlink="http://www.w3.org/1999/xlink" x="0px" y="0px" width="240.0" height="240.0" xml:space="preserve">
		<path d="M170,30C192.091,30 210,47.909 210,70L210,170C210,192.091 192.091,210 170,210L70,210C47.909,210 30,192.091 30,170L30,70C30,47.909 47.909,30 70,30L170,30ZM145.098,66.649C129.325,62.021 113.6,63.316 98.164,68.464C82.003,73.853 68.078,82.924 55.958,94.833L55.958,94.833L55.751,95.037C54.856,95.916 54.07,96.776 55.013,98.238C57.087,101.457 59.068,104.736 61.107,107.977C61.553,108.687 62.071,109.437 63.076,109.194C64.089,108.949 64.492,108.101 64.72,107.177C64.945,106.265 64.871,105.341 64.593,104.462C64.092,102.88 64.586,101.58 65.446,100.243C68.229,95.919 71.819,92.357 75.739,89.095C75.861,88.994 75.981,88.875 76.104,88.754L76.289,88.573C76.726,88.154 77.203,87.793 77.84,88.121C78.696,88.562 78.406,89.599 78.449,90.405C78.493,91.236 78.463,92.07 78.463,92.902C78.463,117.963 78.426,143.024 78.507,168.085C78.508,168.293 78.509,168.501 78.51,168.708L78.51,168.708L78.51,169.323C78.493,172.237 78.163,174.777 74.406,175.58C74.33,175.596 74.264,175.664 74.197,175.713C73.369,176.322 72.546,176.997 72.806,178.153C73.085,179.39 74.178,179.486 75.196,179.493C78.442,179.517 81.689,179.502 84.936,179.502L84.936,179.502L84.936,179.512L88.183,179.516C90.348,179.52 92.513,179.522 94.677,179.5L94.677,179.5L94.817,179.499L95.1,179.495C96.141,179.476 97.204,179.348 97.469,178.012C97.728,176.709 96.68,176.105 95.759,175.524C95.339,175.258 94.89,175 94.418,174.864C92.482,174.305 91.931,172.976 91.96,171.073C92.035,166.245 91.964,161.416 91.991,156.587C92.007,153.698 92.302,153.5 95.03,154.37C101.068,156.295 107.192,157.867 113.481,158.715C129.859,160.924 145.559,159.236 159.95,150.397C178.773,138.837 186.42,117.597 178.946,96.887C173.145,80.812 161.069,71.335 145.098,66.649ZM93.657,79.269C108.296,71.263 123.653,67.939 139.75,73.821C154.101,79.066 161.919,90.182 164.229,105.007C166.441,119.199 163.005,131.804 152.014,141.71C145.889,147.231 138.57,150.412 130.455,151.331C118.454,152.691 106.733,151.145 95.347,147.014C92.864,146.113 91.885,144.763 91.925,142.062C92.069,132.326 91.982,122.586 91.983,112.847C91.984,102.942 91.991,93.037 91.977,83.133C91.975,81.581 92.071,80.136 93.657,79.269Z" fill="#000" stroke="#00000000" stroke-width="1.0" stroke-miterlimit=""/>
	</svg>
