<?xml version="1.0" encoding="utf-8"?>
	<svg version="1.1" xmlns="http://www.w3.org/2000/svg" xmlns:xlink="http://www.w3.org/1999/xlink" x="0px" y="0px" width="240.0" height="240.0" xml:space="preserve">
		<path d="M205.877,55.559H119.978V41.123C119.978,33.336 113.664,27 105.855,27H34.123C26.337,27 20,33.314 20,41.123V198.531C20,206.317 26.314,212.654 34.123,212.654H205.877C213.664,212.654 220,206.34 220,198.531V69.66C220,61.895 213.641,55.559 205.877,55.559V55.559ZM189.344,160.556C188.05,161.851 186.265,162.654 184.302,162.654H55.854C51.928,162.654 48.715,159.441 48.715,155.514C48.715,153.551 49.518,151.766 50.812,150.472C52.106,149.178 53.891,148.374 55.854,148.374H184.302C188.228,148.374 191.441,151.587 191.441,155.514C191.441,157.477 190.638,159.262 189.344,160.556ZM189.344,117.718C188.05,119.012 186.265,119.816 184.302,119.816H55.854C51.928,119.816 48.715,116.603 48.715,112.676C48.715,110.713 49.518,108.928 50.812,107.634C52.106,106.34 53.891,105.536 55.854,105.536H184.302C188.228,105.536 191.441,108.749 191.441,112.676C191.441,114.639 190.638,116.424 189.344,117.718Z" fill="#000" stroke="" stroke-width="" stroke-miterlimit=""/>
	</svg>
