<?xml version="1.0" encoding="utf-8"?>
	<svg version="1.1" xmlns="http://www.w3.org/2000/svg" xmlns:xlink="http://www.w3.org/1999/xlink" x="0px" y="0px" width="240.0" height="240.0" xml:space="preserve">
		<path d="M120,120m-100,0a100,100 0,1 1,200 0a100,100 0,1 1,-200 0" fill="#000" stroke="#00000000" stroke-width="1.0" stroke-miterlimit=""/>
		<path d="M120,20C175.228,20 220,64.772 220,120C220,175.228 175.228,220 120,220C64.772,220 20,175.228 20,120C20,64.772 64.772,20 120,20ZM132.217,165.934C133.544,180.329 130.786,193.922 124.158,206.74C123.152,208.686 121.974,210.544 120.797,212.58C122.938,212.467 124.88,212.392 126.819,212.253C128.094,212.161 129.367,212.012 130.632,211.83C153.498,208.536 173.045,198.666 188.366,181.361C210.736,156.093 217.757,126.713 210.003,93.925C206.813,80.434 200.566,68.339 191.653,57.668L191.613,57.673L191.653,57.668C191.424,57.341 191.217,56.994 190.961,56.689C181.18,45.032 169.3,36.203 155.332,30.157C150.816,28.202 146.098,26.862 141.447,25.314C140.856,25.208 140.261,25.121 139.676,24.993C132.98,23.526 126.227,22.571 119.363,22.602L118.382,22.613L117.837,22.55C116.203,22.403 114.575,22.618 112.944,22.691C100.986,23.228 89.53,25.994 78.696,30.991C59.708,39.748 44.986,53.262 34.812,71.574C27.638,84.487 23.616,98.329 23.152,113.146C25.395,112.249 27.546,111.098 29.956,110.669C30.713,110.534 30.818,110.052 30.928,109.382C32.767,98.231 39.24,89.91 47.339,82.581C48.199,81.803 48.918,81.866 49.825,82.519C53.699,85.307 57.471,88.212 60.915,91.534C65.207,95.674 68.469,100.556 71.319,105.747L71.637,106.63C71.85,107.22 72.062,107.811 72.254,108.408C72.456,109.039 72.74,109.481 73.504,109.473C79.489,109.412 85,111.389 90.4,113.632C97.003,116.375 103.452,119.458 108.813,124.351C109.642,125.107 110.372,124.827 111.228,124.612C120.348,122.319 129.526,122.182 138.565,124.726C144.894,126.508 144.65,125.522 143.241,132.731C141.474,141.769 137.31,149.81 132.188,157.382C131.612,158.233 131.077,159.04 131.352,160.165C131.671,161.469 131.889,162.799 132.151,164.118L132.151,164.118C132.172,164.724 132.162,165.332 132.217,165.934ZM98.625,157.134C96.247,157.171 94.546,158.762 94.56,160.935C94.576,163.351 96.696,165.309 99.322,165.38L99.548,165.382C101.885,165.349 103.621,163.735 103.647,161.569C103.675,159.205 101.48,157.202 98.846,157.135L98.625,157.134ZM49.869,133.721C49.568,133.72 49.278,133.741 48.999,133.785L48.792,133.822C47.361,134.107 46.271,134.981 45.795,136.192L45.731,136.367C45.592,136.781 45.522,137.232 45.533,137.709C45.552,138.586 45.863,139.393 46.382,140.059C47.12,141.005 48.28,141.664 49.627,141.833L49.851,141.856L50.078,141.871L50.078,141.871L50.308,141.875C52.798,141.878 54.621,140.303 54.679,138.101C54.701,137.284 54.459,136.515 54.023,135.855C53.188,134.591 51.64,133.731 49.869,133.721Z" fill="#000" stroke="#00000000" stroke-width="1.0" stroke-miterlimit=""/>
		<path d="M147.927,75.077C149.339,79.103 151.744,82.625 153.834,86.281C156.835,91.533 159.678,96.87 162.645,102.138C165.417,107.057 168.088,112.032 170.876,116.941C171.619,118.25 171.592,119.199 170.785,120.573C163.666,132.677 156.668,144.853 149.637,157.009C148.56,158.87 147.443,160.712 146.447,162.616C145.871,163.718 145.105,164.133 143.873,164.116C139.966,164.066 136.058,164.11 132.151,164.118C131.889,162.799 131.671,161.469 131.352,160.165C131.077,159.04 131.612,158.233 132.188,157.382C137.31,149.81 141.474,141.769 143.241,132.731C144.65,125.522 144.894,126.508 138.565,124.726C129.526,122.182 120.348,122.319 111.228,124.612C110.372,124.827 109.642,125.107 108.813,124.351C103.452,119.458 97.003,116.375 90.4,113.632C85,111.389 79.489,109.412 73.504,109.473C72.74,109.481 72.456,109.039 72.254,108.408C71.966,107.513 71.633,106.631 71.319,105.745C75.044,98.909 78.761,92.068 82.498,85.237C84.819,80.994 87.215,76.791 89.476,72.518C90.058,71.419 90.685,70.98 91.946,70.968C94.011,70.95 96.116,71.389 98.144,70.638C113.408,71.328 128.681,70.89 143.949,70.982C145.08,70.99 145.804,71.212 146.273,72.344C146.677,73.316 147.365,74.171 147.927,75.077" fill="#000" stroke="#00000000" stroke-width="1.0" stroke-miterlimit=""/>
	</svg>
