<?xml version="1.0" encoding="utf-8"?>
	<svg version="1.1" xmlns="http://www.w3.org/2000/svg" xmlns:xlink="http://www.w3.org/1999/xlink" x="0px" y="0px" width="240.0" height="240.0" xml:space="preserve">
		<path d="M140.121,144.162C133.411,144.16 126.701,144.158 119.991,144.158C113.002,144.158 106.012,144.16 99.022,144.163C80.854,144.17 62.684,144.176 44.521,144.138C36.262,144.118 29.28,141.112 24.505,134.209C19.145,126.462 18.587,118.057 22.729,109.631C26.946,101.053 34.347,96.91 43.683,96.777C55.477,96.606 67.274,96.639 79.07,96.671H79.073C83.79,96.684 88.508,96.697 93.225,96.697C101.984,96.697 110.744,96.692 119.503,96.688C144.987,96.674 170.473,96.66 195.96,96.764C205.436,96.804 212.95,100.933 217.246,109.631C221.402,118.057 220.837,126.462 215.477,134.209C210.709,141.112 203.727,144.124 195.468,144.138C177.016,144.172 158.568,144.167 140.121,144.162ZM46.121,131.017C51.913,130.891 56.748,126.05 56.721,120.404C56.694,114.772 51.7,109.811 46.081,109.838C40.329,109.857 35.554,114.685 35.568,120.457C35.581,126.243 40.475,131.144 46.121,131.017Z" fill="#000" stroke="" stroke-width="" stroke-miterlimit=""/>
		<path d="M141.857,91.171C134.575,91.168 127.293,91.165 120.011,91.165C113.696,91.166 107.38,91.17 101.065,91.174C82.124,91.185 63.184,91.196 44.249,91.151C27.551,91.118 16.638,76.674 21.027,60.575C23.441,51.717 32.339,44.609 41.875,44.13C45.074,43.972 48.28,43.993 51.488,44.015C52.602,44.022 53.715,44.03 54.829,44.03C68.809,44.03 82.789,44.035 96.77,44.039C129.979,44.05 163.191,44.062 196.399,44.01C211.128,43.99 224.834,58.228 218.19,76.515C214.919,85.525 206.413,91.125 196.452,91.145C178.252,91.187 160.054,91.179 141.857,91.171ZM45.961,77.951C40.169,77.891 35.601,73.303 35.621,67.577C35.641,61.945 40.455,57.203 46.088,57.263C52.02,57.323 56.774,62.118 56.628,67.877C56.481,73.569 51.773,78.011 45.961,77.951Z" fill="#000" stroke="" stroke-width="" stroke-miterlimit=""/>
		<path d="M97.479,149.759C104.943,149.765 112.407,149.77 119.871,149.77C127.121,149.77 134.371,149.775 141.62,149.779C159.746,149.79 177.869,149.801 195.986,149.744C204.585,149.717 211.235,153.261 215.969,160.244C221.023,167.692 221.136,175.825 217.359,183.658C213.343,191.991 206.234,196.599 196.884,196.699C183.43,196.844 169.972,196.82 156.514,196.796C151.466,196.787 146.418,196.778 141.371,196.778C133.256,196.778 125.142,196.781 117.027,196.783C92.675,196.789 68.32,196.795 43.969,196.745C32.817,196.725 23.634,189.736 20.987,179.562C16.951,164.048 27.71,149.85 43.743,149.797C61.655,149.731 79.567,149.745 97.479,149.759ZM35.503,172.845C35.39,178.817 40.151,183.705 46.096,183.731C51.895,183.758 56.796,178.983 56.803,173.298C56.816,167.579 52.028,162.658 46.336,162.531C40.55,162.405 35.609,167.107 35.503,172.845Z" fill="#000" stroke="" stroke-width="" stroke-miterlimit=""/>
	</svg>
