<?xml version="1.0" encoding="utf-8"?>
	<svg version="1.1" xmlns="http://www.w3.org/2000/svg" xmlns:xlink="http://www.w3.org/1999/xlink" x="0px" y="0px" width="240.0" height="240.0" xml:space="preserve">
		<path d="M81.212,219.789C70.141,219.789 59.081,219.823 48.01,219.766C46.166,219.754 43.521,220.659 42.651,218.987C41.541,216.858 44.151,215.358 45.376,213.812C68.859,183.987 92.329,154.151 116.041,124.486C119.029,120.742 118.949,118.589 115.903,114.88C91.585,85.238 67.519,55.378 43.407,25.576C42.388,24.317 40.361,23.195 41.197,21.317C42.056,19.428 44.243,20.126 45.869,20.126C68.389,20.08 90.898,20.138 113.419,20.069C116.716,20.058 119.132,21.042 121.296,23.698C146.37,54.451 171.524,85.135 196.735,115.773C198.91,118.418 199.162,120.524 196.964,123.295C172.142,154.494 147.377,185.739 122.647,217.018C120.746,219.422 118.376,219.846 115.583,219.823C104.111,219.754 92.661,219.789 81.212,219.789Z" fill="#000" stroke="" stroke-width="" stroke-miterlimit=""/>
	</svg>
