<?xml version="1.0" encoding="utf-8"?>
	<svg version="1.1" xmlns="http://www.w3.org/2000/svg" xmlns:xlink="http://www.w3.org/1999/xlink" x="0px" y="0px" width="240.0" height="240.0" xml:space="preserve">
		<path d="M110.047,103.389C108.157,103.191 106.037,103.607 103.931,104.03C94.617,105.897 88.119,113.9 88.187,123.214C88.202,125.218 88.547,126.268 90.893,125.597C92.495,125.138 94.206,124.858 95.869,124.856C98.598,124.853 99.769,124.073 99.815,120.965C99.891,115.875 103.641,112.783 108.7,112.879C113.111,112.964 116.019,116.272 116.019,121.44C116.019,125.547 114.586,129.261 112.295,132.619C107.077,140.266 101.985,148.01 96.463,155.433C94.298,158.343 94.228,161.082 94.724,164.298C95.059,166.463 95.954,167.074 98.079,166.677C101.562,166.024 105.09,165.619 108.597,165.103C116.903,163.88 125.204,162.623 133.517,161.453C135.325,161.198 136.26,160.719 135.654,158.609C135.196,157.012 135.112,155.295 134.977,153.621C134.856,152.116 134.245,151.847 132.767,152.082C126.225,153.121 119.659,154.015 113.098,154.93C112.206,155.054 111.055,155.529 110.461,154.696C109.786,153.75 110.891,152.995 111.366,152.261C113.499,148.964 115.711,145.718 117.876,142.44C120.8,138.014 124.017,133.779 126.141,128.85C131.213,117.081 125.441,102.772 110.047,103.389M205.437,50.773C205.916,53.47 206.234,56.192 206.54,58.915L206.77,60.957C207.274,65.381 207.845,69.794 209.126,74.093C210.629,75.425 209.095,76.89 209.309,78.3C211.318,91.54 213.477,104.761 215.194,118.039C215.431,119.871 215.68,121.702 215.931,123.532L216.309,126.278C217.631,135.888 218.908,145.506 218.859,155.283C218.823,162.049 216.865,168.071 214.073,173.978C213.902,174.339 213.734,174.702 213.566,175.065L213.066,176.157C211.732,179.068 210.369,181.969 208.228,184.451C199.819,194.205 189.662,200.865 176.828,203.475C160.111,206.876 143.191,208.857 126.342,211.339C107.56,214.105 88.78,216.883 69.998,219.644C69.353,219.739 68.684,219.667 68.037,219.753C61.668,220.595 60.345,219.501 59.665,213.122C59.171,208.494 58.51,203.884 57.919,199.266C57.809,198.4 57.465,197.652 56.765,197.097C57.242,193.889 56.712,190.762 56.181,187.638L55.996,186.536C55.904,185.984 55.817,185.433 55.738,184.881C53.981,172.504 52.143,160.138 50.396,147.76C50.225,146.542 50.047,145.326 49.867,144.109L49.505,141.675L49.505,141.675L49.142,139.242C47.693,129.506 46.354,119.754 46.734,109.864C47.468,90.77 56.811,76.733 73.112,67.412C81.128,62.828 90.111,61.196 99.109,59.841L100.568,59.624C100.811,59.587 101.054,59.552 101.297,59.516L102.755,59.301C103.483,59.193 104.211,59.085 104.937,58.974C123.777,56.114 142.665,53.576 161.51,50.758C163.739,50.425 164.146,50.894 164.336,53.014C164.904,59.351 171.631,62.921 177.272,60.006C181.041,58.06 182.436,54.807 182.159,50.687C182.055,49.144 182.025,47.772 184.261,47.514C189.082,46.957 193.873,46.132 198.68,45.439C203.046,44.81 204.648,46.33 205.437,50.773ZM164.902,95.521C157.565,96.64 151.264,99.61 146.165,105.23C135.727,116.734 137.994,139.373 144.563,149.384C151.99,160.703 170.657,160.939 178.246,149.699C183.485,141.941 182.58,133.895 178.716,125.996C174.774,117.935 167.812,115.056 159.106,117.29C155.908,118.111 153.486,120.064 150.789,122.455C150.394,119.638 151.062,117.507 151.932,115.432C154.548,109.198 159.757,106.414 165.96,105C166.859,104.796 168.077,104.911 167.958,103.585C167.75,101.273 167.308,98.983 167.003,96.678C166.82,95.298 165.833,95.378 164.902,95.521ZM168.151,130.998C169.452,133.336 169.984,135.87 169.885,138.54C169.896,143.891 168.053,146.981 164.068,148.296C160.507,149.471 156.808,148.222 154.789,145.042C152.514,141.461 151.718,137.441 151.794,133.274C151.847,130.375 154.956,127.398 158.459,126.563C162.326,125.64 166.128,127.36 168.151,130.998Z" fill="#000" stroke="#00000000" stroke-width="1.0" stroke-miterlimit=""/>
		<path d="M209.126,74.093C206.86,66.487 206.814,58.526 205.437,50.773C204.648,46.33 203.047,44.81 198.68,45.439C193.873,46.132 189.082,46.957 184.26,47.513C182.025,47.771 182.055,49.144 182.159,50.687C182.436,54.807 181.041,58.06 177.272,60.007C171.63,62.921 164.904,59.352 164.336,53.014C164.146,50.894 163.739,50.425 161.51,50.758C142.665,53.576 123.777,56.114 104.938,58.974C94.041,60.629 82.861,61.837 73.112,67.412C56.811,76.733 47.468,90.77 46.734,109.864C46.243,122.639 48.621,135.182 50.396,147.76C52.143,160.138 53.981,172.504 55.738,184.881C56.314,188.93 57.382,192.945 56.765,197.097C47.4,197.091 38.036,197.093 28.671,197.076C23.205,197.066 21.991,195.887 22,190.547C22.045,164.699 21.968,138.849 22.216,113.003C22.327,101.395 22.677,89.615 27.299,78.764C35.457,59.618 49.387,46.548 69.772,41.025C72.051,40.408 73.115,39.652 72.887,37.148C72.65,34.547 72.783,31.907 72.849,29.286C72.981,23.943 76.496,20.181 81.442,20.007C86.648,19.823 90.443,23.262 90.864,28.706C91.036,30.941 91.043,33.208 90.886,35.444C90.731,37.647 91.434,38.306 93.712,38.232C111.963,37.639 130.222,37.712 148.479,37.74C152.974,37.747 157.471,37.684 161.964,37.769C163.651,37.801 164.33,37.262 164.243,35.524C164.131,33.282 164.165,31.028 164.23,28.782C164.376,23.769 168.076,20.081 172.968,20.004C178.019,19.925 181.951,23.592 182.145,28.64C182.228,30.791 182.286,32.956 182.136,35.099C181.985,37.265 182.896,37.814 184.925,37.779C190.916,37.674 196.911,37.708 202.904,37.756C208.117,37.798 209.237,38.928 209.228,44.033C209.21,54.053 209.162,64.073 209.126,74.093" fill="#000" stroke="#00000000" stroke-width="1.0" stroke-miterlimit=""/>
	</svg>
