<?xml version="1.0" encoding="utf-8"?>
	<svg version="1.1" xmlns="http://www.w3.org/2000/svg" xmlns:xlink="http://www.w3.org/1999/xlink" x="0px" y="0px" width="240.0" height="240.0" xml:space="preserve">
		<path d="M57.99,44.507C58.821,43.969 59.652,43.436 60.477,42.898C81.413,29.301 104.259,22.779 129.235,25.158C151.491,27.277 170.883,36.031 186.203,52.544C207.11,75.08 214.689,101.575 207.624,131.656C203.547,149.014 193.768,162.54 177.646,170.865C166.509,176.618 154.583,178.907 142.062,178.251C130.726,177.656 120.14,174.669 110.999,167.802C92.499,153.904 84.636,128.381 101.126,106.629C104.566,102.094 108.653,98.257 113.594,95.307C109.106,95.704 105.033,97.228 101.286,99.588C90.417,106.426 84.013,116.535 80.337,128.565C76.448,141.274 78.661,152.993 86.467,163.644C93.254,172.909 102.183,179.591 112.896,183.485C137.423,192.4 160.359,188.351 181.328,173.432C198.577,161.157 208.341,143.535 214.609,123.746C219.352,108.767 218.932,93.75 213.84,79.025C209.535,66.585 201.635,56.297 191.96,47.561C162.105,20.599 127.828,13.534 89.634,25.861C77.769,29.684 67.221,36.041 57.99,44.507ZM108.082,142.582C110.885,147.461 114.647,151.364 119.598,154.059C127.564,158.396 136.059,160.058 145.082,159.118C158.231,157.75 169.189,152.242 177.387,141.775C185.768,131.066 186.977,118.475 185.542,105.657C183.05,83.353 171.483,66.49 152.388,55.121C130.655,42.181 107.058,39.675 82.696,45.296C46.744,53.578 27.659,78.855 23.482,115.629C21.202,135.691 27.191,154.555 37.621,171.866C37.876,172.29 37.994,172.918 38.674,172.989C38.938,172.46 38.57,172.059 38.409,171.653C31.887,155.272 29.74,138.339 32.935,120.99C39.127,87.36 57.716,63.744 90.304,52.12C103.976,47.245 118.191,45.541 132.203,50.341C158.698,59.421 174.182,78.162 177.746,105.945C179.473,119.423 176.117,132.119 167.141,142.77C155.56,156.509 138.013,162.705 119.527,151.237C115.435,148.698 111.48,146.041 108.082,142.582ZM125.539,146.404C128.645,147.358 131.273,147.749 133.916,147.646C145.894,147.174 155.352,139.83 158.769,128.31C161.78,118.159 160.09,108.38 156.027,98.88C146.47,76.519 126.224,66.637 102.858,73.296C76.481,80.814 53.766,104.359 53.021,139.807C52.686,155.711 57.254,170.398 64.239,184.636C70.185,196.751 78.93,205.392 91.158,210.82C104.429,216.705 117.804,221.382 132.798,219.626C149.868,217.625 165.517,212.146 179.704,202.48C183.3,200.031 186.75,197.393 189.771,194.231C189.044,194.552 188.402,194.986 187.77,195.425C173.682,205.161 158.141,211.065 141.028,212.07C117.559,213.444 96.822,206.209 79.086,190.8C56.636,171.295 50.18,143.818 62.091,117.668C69.397,101.631 80.818,89.403 97.567,82.923C108.818,78.572 119.951,79.422 130.679,84.858C146.163,92.702 150.826,108.371 149.387,122.5C148.32,132.949 142.576,140.17 133.029,144.427C130.816,145.399 128.432,145.781 125.539,146.404Z" fill="#000" stroke="" stroke-width="" stroke-miterlimit=""/>
	</svg>
