<?xml version="1.0" encoding="utf-8"?>
	<svg version="1.1" xmlns="http://www.w3.org/2000/svg" xmlns:xlink="http://www.w3.org/1999/xlink" x="0px" y="0px" width="240.0" height="240.0" xml:space="preserve">
		<path d="M163.452,38.72C175.595,51.658 181.09,67.462 181.699,83.743C181.739,96.316 177.767,106.493 172.92,116.312C160.148,142.233 142.688,164.943 124.024,186.799C122.422,188.679 121.203,188.878 119.541,186.912C101.638,165.731 84.715,143.849 72.016,119.046C67.037,109.32 62.66,99.283 62.19,88.073C60.992,59.378 77.796,29.696 107.743,22.002C129.248,16.48 148.217,22.485 163.452,38.72ZM139.323,87.683C139.376,76.93 131.034,68.31 120.546,68.283C109.932,68.25 101.067,76.745 100.987,87.027C100.901,97.641 109.396,106.195 120.049,106.228C130.676,106.268 139.27,97.998 139.323,87.683Z" fill="#000" stroke="" stroke-width="" stroke-miterlimit=""/>
		<path d="M130.755,219.675C127.361,219.851 123.965,220.026 120.561,219.997C103.346,219.765 86.165,219.024 69.321,215.104C59.224,212.747 49.134,210.085 40.844,203.332C32.952,196.896 33.044,187.256 41.175,181.125C50.683,173.954 61.892,171.001 73.38,169.088C77.366,168.426 79.325,169.935 79.623,172.756C79.921,175.59 78.326,177.331 74.585,178.139C65.507,180.105 56.536,182.383 48.584,187.455C43.32,190.811 43.261,193.552 48.319,197.207C52.954,200.557 58.33,202.358 63.713,203.928C75.498,207.364 87.615,209.138 99.837,210.019C113.371,210.992 126.944,211.125 140.47,209.999C156.533,208.662 172.503,206.636 187.4,199.849C189.095,199.074 190.737,198.121 192.273,197.062C197.034,193.771 197.027,190.891 192.306,187.653C187.142,184.104 181.282,182.144 175.323,180.469C173.079,179.836 170.801,179.311 168.524,178.786C167.47,178.543 166.416,178.3 165.365,178.046C162.028,177.238 160.287,175.285 160.737,172.67C161.294,169.459 163.644,168.565 166.412,169.015C178.581,171.001 190.439,174.001 200.285,181.966C207.237,187.587 207.051,197.148 200.165,202.941C193.756,208.337 186.096,211.145 178.19,213.276C164.631,216.931 150.819,218.984 136.756,219.408C134.755,219.469 132.755,219.572 130.755,219.675Z" fill="#000" stroke="" stroke-width="" stroke-miterlimit=""/>
	</svg>
