<?xml version="1.0" encoding="utf-8"?>
	<svg version="1.1" xmlns="http://www.w3.org/2000/svg" xmlns:xlink="http://www.w3.org/1999/xlink" x="0px" y="0px" width="240.0" height="240.0" xml:space="preserve">
		<path d="M71.406,213.126C69.637,212.174 67.916,211.198 66.289,210.225C64.257,209.009 62.369,207.795 60.677,206.616C58.986,205.437 57.211,204.098 55.399,202.634C53.95,201.463 52.475,200.211 51.017,198.913C48.565,196.732 46.983,195.153 46.917,195.087C46.925,195.087 47.87,195.191 49.492,195.292C50.992,195.386 53.398,195.498 56.343,195.498C58.743,195.498 61.157,195.424 63.517,195.28C66.351,195.107 69.142,194.828 71.814,194.453C73.424,194.226 75.023,193.93 76.608,193.564C78.041,193.232 79.461,192.844 80.863,192.399C83.179,191.666 85.441,190.773 87.634,189.727C89.091,189.035 90.507,188.261 91.878,187.411C92.811,186.826 93.326,186.439 93.347,186.423L93.345,186.423C93.271,186.402 92.585,186.201 91.36,185.714C90.599,185.411 89.779,185.057 88.922,184.663C87.852,184.169 86.721,183.611 85.563,183.003C82.613,181.453 79.463,179.574 76.201,177.416C74.264,176.135 72.265,174.741 70.26,173.272C68.056,171.656 65.788,169.91 63.521,168.081C61.254,166.252 59.037,164.362 56.929,162.462C55.013,160.734 53.145,158.961 51.377,157.19C48.399,154.207 45.646,151.176 43.194,148.181C42.231,147.004 41.312,145.831 40.464,144.692C39.785,143.782 39.15,142.892 38.575,142.047C37.601,140.614 37.129,139.789 37.124,139.782C37.119,139.805 36.535,142.395 35.91,146.133C35.54,148.343 35.225,150.529 34.974,152.63C34.66,155.256 34.445,157.756 34.335,160.06C34.225,162.364 34.206,164.865 34.278,167.494C34.335,169.598 34.451,171.787 34.621,174.001C34.911,177.78 35.264,180.341 35.267,180.367C35.266,180.366 35.266,180.364 35.265,180.363C35.198,180.269 34.836,179.755 34.275,178.874C33.706,177.98 32.808,176.51 31.757,174.583C30.576,172.417 29.447,170.126 28.401,167.775C27.088,164.818 25.919,161.799 24.897,158.729C22.305,150.933 20.723,142.967 20.197,135.05C20.045,132.761 19.981,130.466 20.005,128.171C20.031,125.775 20.156,123.355 20.378,120.978C20.612,118.474 20.954,115.981 21.402,113.507C21.87,110.93 22.463,108.334 23.164,105.792C23.866,103.25 24.669,100.719 25.551,98.268C26.396,95.924 27.327,93.611 28.344,91.336C29.307,89.182 30.348,87.062 31.464,84.982C32.521,83.014 33.645,81.082 34.835,79.191C38.923,72.692 43.774,66.705 49.283,61.358C51.441,59.265 53.703,57.272 56.006,55.434C57.849,53.965 59.721,52.59 61.572,51.35C63.22,50.245 64.544,49.454 65.364,48.985C66.245,48.482 66.745,48.234 66.766,48.223C66.763,48.227 66.389,48.64 65.773,49.451C64.898,50.616 64.083,51.825 63.333,53.074C62.184,54.983 61.156,56.962 60.254,59C59.086,61.638 58.113,64.358 57.343,67.138C55.363,74.271 54.66,81.858 55.255,89.687C55.427,91.95 55.711,94.264 56.1,96.564C56.509,98.985 57.045,101.458 57.693,103.914C58.373,106.49 59.195,109.118 60.136,111.726C61.12,114.452 62.261,117.232 63.529,119.988C64.379,121.894 65.345,123.826 66.403,125.73C67.414,127.551 68.535,129.395 69.734,131.211C70.877,132.943 72.122,134.694 73.433,136.416C74.679,138.053 76.018,139.706 77.413,141.331C82.237,146.95 87.938,152.482 94.356,157.774C96.877,159.853 99.517,161.9 102.201,163.856C104.348,165.422 106.529,166.934 108.683,168.351C112.344,170.759 114.697,172.078 114.72,172.091C114.735,172.083 116.307,171.24 118.435,169.811C119.687,168.971 120.885,168.093 121.995,167.204C123.309,166.161 124.556,165.036 125.728,163.836C126.899,162.616 127.992,161.325 129.003,159.969C129.871,158.815 130.73,157.569 131.556,156.264C132.958,154.049 133.796,152.403 133.804,152.387C133.791,152.358 133.666,152.095 133.497,151.636C133.248,150.957 133.042,150.262 132.878,149.557C132.637,148.522 132.48,147.469 132.409,146.408C132.319,145.087 132.365,143.761 132.545,142.449C132.73,141.131 133.031,139.832 133.446,138.567C133.779,137.547 134.183,136.551 134.654,135.586C134.974,134.931 135.327,134.293 135.715,133.675C135.989,133.241 136.168,133.003 136.17,133.001C136.17,133.004 136.174,133.388 136.232,133.984C136.308,134.762 136.438,135.534 136.622,136.293C136.839,137.227 137.182,138.128 137.64,138.97C137.875,139.393 138.157,139.788 138.48,140.148C138.802,140.505 139.176,140.811 139.59,141.056C140.611,141.653 141.825,141.956 143.198,141.956C143.726,141.954 144.252,141.913 144.774,141.832C145.211,141.764 145.645,141.673 146.072,141.558C146.482,141.451 146.885,141.318 147.278,141.16C147.574,140.984 147.856,140.788 148.123,140.572C148.414,140.341 148.69,140.094 148.952,139.832C149.276,139.507 149.576,139.158 149.848,138.789C150.926,137.357 151.485,135.602 151.435,133.81C151.413,133.036 151.297,132.268 151.09,131.522C150.868,130.804 150.511,130.134 150.038,129.55C149.606,129.023 149.083,128.579 148.494,128.237C147.921,127.905 147.303,127.659 146.66,127.505C146.031,127.353 145.386,127.277 144.74,127.279C143.972,127.275 143.208,127.385 142.472,127.604L142.472,127.602C142.455,127.521 142.295,126.778 142.102,125.597C141.915,124.444 141.655,122.62 141.485,120.478C141.296,118.192 141.255,115.896 141.362,113.604C141.427,112.326 141.546,111.091 141.717,109.933C141.892,108.718 142.145,107.515 142.473,106.332C142.799,105.179 143.203,104.05 143.681,102.951C144.14,101.893 144.657,100.86 145.228,99.858C146.256,98.062 147.425,96.351 148.724,94.74C149.664,93.567 150.667,92.445 151.726,91.377C152.48,90.62 152.979,90.186 153,90.168L153.001,90.168C152.999,90.178 152.778,91.266 152.591,92.938C152.483,93.901 152.408,94.867 152.367,95.835C152.317,97.02 152.324,98.165 152.387,99.239C152.546,101.972 153.065,104.266 153.928,106.057C154.167,106.557 154.448,107.036 154.767,107.489C155.08,107.934 155.438,108.346 155.834,108.718C156.236,109.094 156.679,109.422 157.156,109.697C157.66,109.986 158.197,110.215 158.754,110.379C159.641,110.648 160.562,110.788 161.489,110.795C161.935,110.795 162.381,110.759 162.821,110.687C163.24,110.619 163.654,110.517 164.057,110.384C164.833,110.125 165.57,109.762 166.248,109.304C167.43,108.513 168.537,107.409 169.537,106.025C169.942,105.461 170.317,104.877 170.659,104.273C170.942,103.774 171.204,103.265 171.446,102.745C171.855,101.866 172.061,101.26 172.063,101.254C172.064,101.251 172.209,100.898 172.413,100.256C172.601,99.66 172.882,98.684 173.146,97.419C173.448,95.956 173.662,94.475 173.787,92.986C173.949,91.06 173.975,89.125 173.864,87.195C173.582,82.249 172.424,77.306 170.423,72.504C169.845,71.115 169.187,69.721 168.469,68.358C167.712,66.924 166.867,65.485 165.958,64.083C165.004,62.613 163.952,61.141 162.831,59.71C161.66,58.213 160.381,56.718 159.03,55.267C157.678,53.815 156.284,52.376 154.886,50.99C153.546,49.661 152.182,48.359 150.792,47.084C148.227,44.731 145.563,42.46 142.873,40.335C138.448,36.828 133.798,33.614 128.953,30.714C127.105,29.613 125.247,28.576 123.433,27.632C121.982,26.878 120.555,26.181 119.192,25.561C116.873,24.507 115.525,24.035 115.511,24.031C115.513,24.031 115.515,24.031 115.517,24.031C115.667,24.024 116.23,24 117.167,24C118.141,24 119.73,24.027 121.766,24.154C124.051,24.296 126.425,24.534 128.82,24.859C131.811,25.266 134.846,25.813 137.839,26.484C139.538,26.865 141.252,27.293 142.932,27.756C144.746,28.256 146.547,28.802 148.333,29.395C150.235,30.027 152.118,30.712 153.981,31.448C155.95,32.227 157.896,33.065 159.814,33.961C161.832,34.903 163.819,35.909 165.772,36.978C167.819,38.099 169.827,39.29 171.793,40.547C173.849,41.864 175.858,43.253 177.816,44.713C179.863,46.241 181.852,47.845 183.779,49.522C185.797,51.279 187.746,53.113 189.622,55.02C191.571,57.002 193.476,59.099 195.284,61.253C196.31,62.477 197.31,63.724 198.283,64.992C199.228,66.226 200.147,67.481 201.038,68.756C201.903,69.994 202.752,71.266 203.559,72.535C204.351,73.78 205.117,75.042 205.855,76.319C207.278,78.78 208.599,81.299 209.815,83.868C210.971,86.313 212.031,88.801 212.994,91.328C216.34,100.152 218.516,109.377 219.466,118.766C219.849,122.496 220.043,126.243 220.047,129.993C220.05,132.97 219.929,135.919 219.69,138.757C219.477,141.282 219.207,143.25 219.018,144.456C218.819,145.733 218.663,146.459 218.656,146.489L218.656,146.49C218.36,145.56 218.015,144.647 217.624,143.753C217.21,142.79 216.757,141.844 216.264,140.918C215.663,139.785 215.001,138.686 214.28,137.625C212.49,135 210.462,132.848 208.252,131.229C207.621,130.766 206.963,130.34 206.282,129.954C205.583,129.558 204.859,129.208 204.115,128.906C203.344,128.594 202.552,128.336 201.745,128.134C200.898,127.923 200.036,127.773 199.167,127.686C198.408,127.61 197.646,127.572 196.882,127.571C196.101,127.571 195.321,127.613 194.544,127.697C192.414,127.927 190.332,128.481 188.369,129.339C186.158,130.3 184.045,131.655 182.087,133.364C178.489,136.507 176.527,139.874 176.17,140.518C176.168,140.521 175.989,140.87 175.748,141.464C175.424,142.263 175.154,143.082 174.938,143.917C174.648,145.021 174.476,146.154 174.427,147.295C174.366,148.554 174.526,149.814 174.899,151.019C175.067,151.542 175.284,152.048 175.547,152.53C175.826,153.039 176.156,153.518 176.532,153.96C176.944,154.441 177.404,154.878 177.904,155.266C178.47,155.702 179.075,156.084 179.712,156.407C180.533,156.826 181.404,157.14 182.304,157.341C183.177,157.533 184.067,157.628 184.96,157.626C185.957,157.621 186.951,157.519 187.928,157.321C188.903,157.123 189.863,156.855 190.799,156.517C192.569,155.869 194.273,155.052 195.885,154.077C197.129,153.333 198.329,152.518 199.479,151.637C200.34,150.976 200.837,150.532 200.841,150.528L200.841,150.53C200.685,151.239 200.488,151.938 200.251,152.625C199.991,153.397 199.698,154.158 199.373,154.906C198.958,155.863 198.493,156.798 197.982,157.707C196.702,159.993 195.122,162.097 193.285,163.964C192.205,165.058 191.037,166.062 189.793,166.966C189.122,167.453 188.431,167.911 187.72,168.337C186.97,168.787 186.201,169.202 185.414,169.583C184.526,170.012 183.622,170.406 182.703,170.766C181.812,171.115 180.908,171.432 179.993,171.717C178.255,172.257 176.486,172.691 174.695,173.017C171.639,173.569 168.539,173.844 165.434,173.839C163.267,173.839 161.493,173.705 160.387,173.593C159.195,173.472 158.492,173.348 158.485,173.347C158.437,173.385 157.266,174.293 155.403,175.593C154.305,176.36 153.193,177.105 152.066,177.828C150.679,178.718 149.309,179.547 147.993,180.293C146.677,181.039 145.197,181.827 143.593,182.633C142.31,183.278 140.946,183.936 139.538,184.59C137.167,185.691 135.48,186.403 135.409,186.433C135.413,186.436 135.97,186.812 136.957,187.384C137.873,187.915 139.367,188.733 141.278,189.618C143.43,190.612 145.638,191.477 147.893,192.207C150.645,193.1 153.463,193.775 156.321,194.223C159.062,194.648 162.079,194.961 165.287,195.154C167.868,195.31 170.581,195.389 173.35,195.389C175.921,195.389 178.07,195.32 179.419,195.261C180.879,195.199 181.746,195.135 181.754,195.134L181.754,195.135C181.71,195.194 181.299,195.741 180.394,196.539C179.801,197.058 179.177,197.539 178.524,197.98C177.623,198.589 176.684,199.141 175.712,199.631C173.141,200.937 170.146,201.977 166.81,202.723C164.726,203.183 162.618,203.523 160.495,203.742C157.934,204.005 155.362,204.135 152.788,204.129L152.525,204.129C149.801,204.12 147.078,203.99 144.366,203.74C141.897,203.512 139.437,203.185 136.994,202.759C132.929,202.052 128.916,201.068 124.984,199.814C123.463,199.327 121.964,198.8 120.531,198.247C119.383,197.805 118.274,197.346 117.235,196.882C115.462,196.092 114.497,195.557 114.487,195.552L114.486,195.552C114.427,195.584 113.875,195.877 112.906,196.333C111.971,196.772 110.448,197.455 108.508,198.212C106.311,199.067 104.078,199.828 101.816,200.492C99.032,201.311 96.205,201.973 93.348,202.477C83.699,204.164 75.039,204.346 71.764,204.346C70.965,204.346 70.495,204.335 70.444,204.333L70.443,204.333C70.445,204.34 70.717,205.15 71.166,206.287C71.711,207.681 72.332,209.044 73.026,210.371C73.732,211.669 74.514,212.925 75.368,214.131C76.045,215.093 76.553,215.733 76.574,215.76C76.486,215.719 74.384,214.729 71.406,213.126L71.406,213.126ZM114.328,189.38C114.345,189.389 116.089,190.36 118.691,191.585C120.213,192.302 121.721,192.961 123.174,193.545C124.99,194.275 126.723,194.888 128.327,195.368C129.931,195.848 131.671,196.274 133.499,196.634C134.962,196.922 136.484,197.169 138.024,197.369C140.661,197.71 142.431,197.791 142.449,197.792C142.448,197.792 142.442,197.789 142.432,197.785C141.935,197.6 140.128,196.919 137.731,195.973C135.222,194.982 131.554,193.495 128.327,192.038C126.87,191.379 125.425,190.694 123.993,189.984C122.836,189.411 121.688,188.821 120.549,188.216C118.639,187.2 117.468,186.516 117.457,186.509C117.471,186.501 119.071,185.637 121.753,183.988C123.326,183.021 124.958,181.977 126.602,180.887C128.658,179.523 130.74,178.082 132.789,176.603C138.007,172.839 143.053,168.809 147.788,164.625C150.599,162.141 153.33,159.575 155.905,156.998C157.289,155.613 158.656,154.196 159.967,152.789C161.337,151.317 162.685,149.815 163.972,148.322C165.259,146.829 166.517,145.299 167.708,143.772C168.848,142.312 169.959,140.816 171.01,139.326C172.008,137.911 172.973,136.473 173.903,135.012C174.773,133.645 175.61,132.259 176.415,130.853C179.164,126.051 181.442,121.158 183.185,116.31C183.869,114.405 184.472,112.503 184.977,110.656C185.38,109.179 185.722,107.733 185.992,106.36C186.453,104.013 186.547,102.686 186.547,102.672L186.547,102.675C186.49,102.854 185.966,104.499 184.886,107.193C184.221,108.853 183.48,110.577 182.682,112.318C181.685,114.494 180.597,116.703 179.448,118.885C176.513,124.454 173.205,129.818 169.548,134.943C168.493,136.42 167.409,137.876 166.296,139.31C165.133,140.809 163.938,142.283 162.712,143.732C161.437,145.238 160.127,146.716 158.785,148.163C157.393,149.663 155.966,151.129 154.504,152.561C151.667,155.337 148.788,158.016 145.947,160.525C143.363,162.806 140.753,164.997 138.189,167.036C133.87,170.472 129.599,173.548 125.494,176.18C123.881,177.214 122.291,178.181 120.766,179.055C119.547,179.753 118.367,180.394 117.259,180.958C115.398,181.907 114.371,182.319 114.328,182.336C114.264,182.304 112.728,181.535 110.199,180.092C108.69,179.231 107.127,178.302 105.554,177.33C103.56,176.098 101.591,174.827 99.648,173.516C94.732,170.204 89.987,166.643 85.433,162.847C82.784,160.634 80.22,158.348 77.812,156.051C76.526,154.825 75.263,153.575 74.024,152.302C72.759,151 71.52,149.674 70.309,148.322C67.978,145.719 65.686,142.958 63.496,140.115C61.505,137.531 59.553,134.822 57.696,132.063C54.55,127.388 51.649,122.553 49.004,117.578C47.967,115.628 46.973,113.659 46.048,111.726C45.308,110.179 44.611,108.651 43.977,107.186C42.889,104.676 42.364,103.222 42.358,103.207C42.358,103.219 42.513,104.579 43.049,106.967C43.361,108.362 43.741,109.824 44.176,111.314C44.72,113.177 45.354,115.087 46.06,116.993C47.915,121.97 50.17,126.79 52.801,131.405C53.582,132.778 54.393,134.135 55.235,135.472C56.128,136.892 57.054,138.291 58.012,139.669C59.025,141.124 60.073,142.556 61.154,143.961C62.284,145.431 63.472,146.898 64.683,148.323C65.895,149.747 67.175,151.189 68.487,152.606C69.767,153.988 71.073,155.346 72.404,156.68C74.905,159.185 77.589,161.701 80.38,164.158C85.083,168.295 90.175,172.343 95.515,176.188C97.61,177.696 99.733,179.165 101.882,180.595C103.584,181.726 105.279,182.815 106.92,183.832C109.685,185.546 111.356,186.471 111.426,186.509C111.422,186.512 111.418,186.514 111.414,186.516C111.142,186.661 109.68,187.439 107.626,188.482C105.536,189.542 102.368,191.112 99.145,192.569C95.921,194.026 92.642,195.369 90.46,196.238C88.086,197.185 86.472,197.787 86.457,197.792C86.474,197.791 88.414,197.685 91.187,197.322C92.813,197.11 94.402,196.852 95.909,196.556C97.792,196.186 99.553,195.755 101.143,195.275C102.839,194.757 104.507,194.153 106.143,193.467C107.525,192.891 108.94,192.242 110.348,191.539C112.735,190.347 114.313,189.39 114.328,189.38L114.328,189.38ZM111.78,156.836L111.78,41.235L114.413,35.423L117.419,41.235L117.419,156.836L114.413,162.157L111.78,156.836ZM121.828,47.561L124.625,52.044L124.625,149.718L121.828,153.965L121.828,47.561ZM104.515,149.718L104.515,52.044L107.312,47.561L107.312,153.965L104.515,149.718Z" fill="#000" stroke="#00000000" stroke-width="1.0" stroke-miterlimit=""/>
	</svg>
