<?xml version="1.0" encoding="utf-8"?>
	<svg version="1.1" xmlns="http://www.w3.org/2000/svg" xmlns:xlink="http://www.w3.org/1999/xlink" x="0px" y="0px" width="240.0" height="240.0" xml:space="preserve">
		<path d="M51.609,109.528C51.609,109.536 51.609,109.536 51.609,109.543C47.217,109.543 42.825,109.638 38.441,109.506C35.582,109.418 34.489,110.621 34.599,113.421C34.731,116.706 34.768,120.013 34.592,123.29C34.416,126.486 35.736,127.645 38.874,127.557C44.358,127.41 49.849,127.498 55.333,127.535C59.945,127.564 60.26,128.019 58.295,132.007C56.682,135.284 54.915,138.488 53.229,141.736C46.924,153.87 38.14,162.074 23.279,160.747C20.97,160.542 19.965,161.759 20.009,164.061C20.083,167.837 20.09,171.62 20.053,175.396C20.031,177.705 21.094,178.607 23.389,178.695C39.306,179.282 52.525,174.208 62.195,160.989C68.875,151.861 73.919,141.875 78.303,131.545C79.623,128.437 81.434,127.403 84.682,127.469C92.6,127.645 100.533,127.432 108.458,127.557C111.633,127.608 112.879,126.325 112.755,123.216C112.623,120.049 112.615,116.875 112.755,113.707C112.894,110.503 111.457,109.411 108.363,109.492C102.879,109.638 97.387,109.477 91.903,109.528C89.227,109.55 88.223,108.656 89.535,106.031C92.93,99.264 96.486,92.6 101.412,86.778C105.592,81.844 110.929,79.249 117.388,79.146C123.363,79.058 129.339,79.256 135.307,79.058C143.24,78.787 148.137,82.54 150.828,89.806C153.944,98.208 155.601,106.926 156.803,115.753C157.074,117.754 156.627,119.602 155.835,121.435C152.778,128.481 149.442,135.38 145.806,142.161C139.456,154.009 130.827,161.95 116.318,160.732C114.118,160.549 112.85,161.495 112.879,163.892C112.938,167.793 112.93,171.693 112.916,175.594C112.908,177.757 113.979,178.592 116.076,178.666C131.663,179.245 144.918,174.626 154.406,161.583C156.341,158.922 158.13,156.158 160.058,153.496C160.872,152.367 161.129,150.241 162.786,150.476C164.069,150.659 164.054,152.66 164.597,153.855C165,154.743 165.278,155.681 165.63,156.59C170.968,170.242 180.968,177.515 195.587,178.556C205.822,179.282 205.962,179.194 206.042,168.9C206.042,168.533 206.05,168.167 206.05,167.8C206.094,160.41 206.6,160.798 199.253,160.645C188.938,160.432 185.162,157.631 181.657,147.917C178.871,140.197 177.449,132.154 176.247,124.074C175.975,122.271 175.917,120.43 176.657,118.663C181.173,107.849 185.998,97.196 193.256,87.856C197.736,82.093 203.55,79.058 210.911,79.095C212.985,79.102 215.053,79.036 217.128,78.999C218.836,78.97 219.965,78.273 219.973,76.411C219.987,72.144 219.995,67.877 219.943,63.61C219.921,61.997 218.931,61.176 217.377,61.095C205.067,60.436 193.52,62.291 184.121,71.228C180.11,75.033 176.87,79.424 173.82,84.007C172.72,85.656 172.214,88.684 170.132,88.435C168.49,88.244 168.438,85.209 167.742,83.42C161.818,68.317 152.25,61.499 135.996,61.088C129.903,60.934 123.811,61.037 117.718,61.081C104.338,61.205 93.817,66.865 85.737,77.423C79.088,86.111 74.205,95.789 69.806,105.716C68.515,108.626 66.8,109.748 63.684,109.587C59.666,109.367 55.634,109.528 51.609,109.528Z" fill="#000" stroke="" stroke-width="" stroke-miterlimit=""/>
	</svg>
