<?xml version="1.0" encoding="utf-8"?>
	<svg version="1.1" xmlns="http://www.w3.org/2000/svg" xmlns:xlink="http://www.w3.org/1999/xlink" x="0px" y="0px" width="240.0" height="240.0" xml:space="preserve">
		<path d="M170.374,73.373C174.832,76.081 178.165,78.248 180.415,79.748C183.79,82.039 185.332,83.456 187.998,90.706C197.373,115.996 178.624,140.703 145.458,158.619C124.786,170.117 102.199,177.768 78.795,181.202C82.961,183.785 97.502,182.285 105.794,179.702C114.085,177.118 115.376,178.202 110.377,182.285C105.377,186.368 75.003,190.618 56.754,190.618C44.588,190.618 43.519,191.84 53.546,194.284C41.769,196.173 41.769,197.812 53.546,199.201C45.921,201.284 51.713,202.451 70.92,202.826C61.004,205.45 69.545,206.2 86.753,207.742C103.96,209.284 137.667,202.159 162.874,192.118C188.081,182.077 228.038,145.203 218.58,112.455C212.247,90.622 196.178,77.609 170.374,73.415L170.374,73.373ZM153.083,33.292C135.834,31.583 102.169,38.708 77.003,48.749C51.838,58.79 11.965,95.789 21.422,128.412C27.755,150.245 43.81,163.244 69.587,167.411C66.198,165.383 62.865,163.258 59.587,161.036C56.212,158.744 54.671,157.328 52.004,150.078C42.63,124.954 61.379,99.955 94.544,82.164C115.216,70.658 137.802,62.993 161.208,59.54C157.041,56.999 142.5,58.499 134.209,61.082C125.918,63.665 124.626,62.582 129.626,58.499C134.626,54.416 165.041,50.166 183.248,50.166C195.414,50.166 196.456,48.916 186.457,46.499C198.262,44.638 198.262,43 186.457,41.583C194.095,39.5 188.304,38.291 169.082,37.958C178.999,35.333 170.457,34.542 153.25,33L153.083,33.292ZM120.001,94.581C106.563,94.878 95.884,105.965 96.089,119.405C96.294,132.845 107.306,143.6 120.747,143.488C134.188,143.376 145.02,132.438 145,118.996C144.957,112.433 142.29,106.159 137.594,101.573C132.899,96.987 126.564,94.469 120.001,94.581Z" fill="#000" stroke="#00000000" stroke-width="1.0" stroke-miterlimit=""/>
	</svg>
