<?xml version="1.0" encoding="utf-8"?>
	<svg version="1.1" xmlns="http://www.w3.org/2000/svg" xmlns:xlink="http://www.w3.org/1999/xlink" x="0px" y="0px" width="240.0" height="240.0" xml:space="preserve">
		<path d="M58.778,139.609C69.682,139.609 80.593,139.623 91.498,139.602C95.86,139.595 95.969,139.363 93.754,135.527C78.659,109.35 63.564,83.173 48.475,56.996C46.137,52.935 45.754,52.887 42.692,56.695C24.124,79.837 16.986,106.089 21.15,135.473C21.587,138.577 22.961,139.691 26.058,139.65C36.963,139.527 47.867,139.609 58.778,139.609ZM181.07,100.21C169.941,100.21 158.817,100.182 147.688,100.223C144.249,100.237 143.975,100.723 145.712,103.737C161.074,130.393 176.469,157.028 191.818,183.698C193.178,186.063 194.156,186.583 196.179,184.142C215.465,160.857 222.76,134.256 218.624,104.387C218.207,101.372 216.935,100.114 213.77,100.155C202.872,100.299 191.975,100.21 181.07,100.21ZM72.889,150.144C59.024,150.144 45.16,150.144 31.295,150.144C24.322,150.144 24.267,150.165 26.995,156.769C37.468,182.119 55.339,200.263 80.279,211.584C83.226,212.917 84.812,212.172 86.336,209.526C97.035,190.904 107.83,172.342 118.564,153.74C120.437,150.493 120.232,150.158 116.52,150.151C101.978,150.137 87.43,150.151 72.889,150.144ZM140.236,23.462C140.113,21.494 138.52,21.733 137.433,21.569C128.88,20.284 120.334,19.538 111.638,20.318C92.455,22.047 75.2,28.576 59.756,40.062C57.554,41.696 57.377,43.166 58.73,45.49C69.641,64.256 80.443,83.091 91.293,101.885C92.947,104.749 93.474,104.763 95.066,102.008C109.676,76.719 124.279,51.417 138.875,26.115C139.381,25.24 139.805,24.31 140.236,23.462ZM118.926,220C141.788,219.46 161.805,213.177 179.587,200.058C181.987,198.287 182.438,196.783 180.913,194.151C170.132,175.603 159.474,156.981 148.747,138.392C146.696,134.844 146.313,134.878 144.249,138.46C137.214,150.657 130.186,162.853 123.151,175.043C115.713,187.923 108.261,200.789 100.83,213.676C98.84,217.129 99.059,217.518 102.908,218.257C108.507,219.33 114.168,219.699 118.926,220ZM167.021,89.319C181.44,89.319 195.865,89.34 210.283,89.305C214.583,89.299 214.939,88.813 213.353,84.745C203.18,58.582 185.138,39.911 159.645,28.262C156.425,26.792 154.927,27.455 153.239,30.429C142.799,48.785 132.175,67.039 121.627,85.333C119.494,89.039 119.664,89.312 124.095,89.312C138.41,89.333 152.712,89.326 167.021,89.319Z" fill="#000" stroke="" stroke-width="" stroke-miterlimit=""/>
	</svg>
