<?xml version="1.0" encoding="utf-8"?>
	<svg version="1.1" xmlns="http://www.w3.org/2000/svg" xmlns:xlink="http://www.w3.org/1999/xlink" x="0px" y="0px" width="240.0" height="240.0" xml:space="preserve">
		<path d="M172.922,47.885C174.328,48.803 174.396,49.877 173.483,51.24C172.82,52.229 172.383,53.367 171.797,54.412C171.555,54.841 171.083,55.261 171.466,55.728C171.895,56.246 172.497,55.974 173.024,55.754C177.117,54.076 181.236,52.467 185.292,50.696C189.27,48.96 191.194,49.465 193.355,53.181C199.41,63.584 205.453,73.996 211.487,84.412C212.497,86.153 212.277,87.953 212.272,89.957C212.26,95.393 208.238,97.321 204.939,99.97C200.672,103.397 196.319,106.722 191.967,110.038C191.292,110.556 191.219,111.13 191.207,111.86C191.122,116.149 191.572,120.454 190.812,124.726C190.616,125.822 191.147,126.522 192.03,127.197C198.285,131.979 204.519,136.786 210.701,141.66C212.349,142.96 213.058,144.756 212.417,146.9C212.336,147.168 212.086,147.49 212.166,147.69C214.077,152.603 210.294,155.724 208.345,159.299C204.009,167.257 199.359,175.049 194.82,182.896C194.26,183.868 193.635,184.815 192.952,185.707C191.313,187.847 188.854,188.544 185.759,187.372C180.052,185.21 174.374,182.964 168.782,180.522C165.007,178.875 161.703,178.662 158.268,181.469C155.899,183.406 153.045,184.76 150.366,186.306C147.937,187.711 147.041,189.915 146.672,192.561C145.776,199.006 144.854,205.452 143.771,211.873C143.126,215.703 141.491,216.811 137.793,216.879C125.521,217.108 113.241,217.002 100.965,216.943C97.886,216.926 96.064,215.325 95.41,212.225C94.455,207.703 93.86,203.121 93.33,198.527C92.994,195.609 92.515,192.692 91.822,189.843C91.037,186.616 87.168,185.41 83.869,187.308C79.678,189.716 75.266,191.737 71.291,194.522C71.062,194.684 70.803,194.82 70.54,194.909C69.44,195.287 68.255,196.119 67.181,195.304C65.971,194.386 67.058,193.091 67.058,191.962C67.822,191.469 68.565,190.934 69.355,190.488C83.393,182.539 97.444,174.624 111.474,166.662C131.147,155.499 150.803,144.306 170.451,133.104C171.126,132.722 172.183,132.628 172.128,131.465C172.077,130.386 171.083,130.2 170.404,129.805C165.661,127.032 160.884,124.318 156.124,121.58C150.323,118.242 144.544,114.87 138.718,111.58C137.219,110.735 136.663,109.958 137.784,108.331C138.977,106.594 139.89,104.671 140.948,102.841C148.837,89.176 156.701,75.495 164.65,61.868C167.376,57.189 169.81,52.335 172.922,47.885Z" fill="#000" stroke="" stroke-width="" stroke-miterlimit=""/>
		<path d="M72.194,179.728C68.759,180.059 65.859,181.949 62.674,183.006C59.018,184.217 55.676,186.238 51.897,187.147C49.888,187.631 48.368,187.083 47.073,185.49C43.774,181.44 41.464,176.849 39.264,172.14C37.757,168.909 35.587,165.992 33.863,162.854C31.833,159.168 29.319,155.732 27.765,151.809C27.022,149.936 26.699,147.86 26.449,145.843C26.19,143.754 27.413,142.251 28.992,141.028C34.895,136.48 40.733,131.847 46.733,127.439C48.716,125.983 48.177,124.212 47.905,122.569C47.485,120.03 47.387,117.473 47.676,114.989C48.016,112.072 46.593,110.344 44.585,108.773C39.608,104.883 34.551,101.091 29.672,97.083C27.842,95.58 26.827,93.834 26.508,90.947C25.782,84.374 30.245,80.391 32.78,75.529C36.848,67.732 41.544,60.263 45.926,52.633C47.476,49.932 49.311,49.049 52.254,50.195C59.595,53.053 66.899,56.017 74.19,59.002C75.294,59.457 76.105,59.448 77.094,58.713C81.455,55.469 86.143,52.764 91.145,50.65C92.224,50.195 92.186,49.338 92.3,48.611C92.98,44.391 93.54,40.149 94.16,35.915C94.716,32.102 95.205,28.272 95.884,24.48C96.3,22.161 97.842,20.921 100.194,20.917C113.107,20.879 126.024,20.883 138.937,20.917C141.243,20.921 142.963,22.539 143.324,24.985C144.496,32.96 145.634,40.943 146.712,48.934C146.848,49.936 147.29,50.425 148.122,50.803C150.236,51.762 152.334,52.764 154.44,53.75C153.905,54.085 153.383,54.442 152.835,54.756C143.464,60.085 134.088,65.41 124.712,70.739C111.421,78.289 98.126,85.839 84.84,93.393C79.396,96.488 73.965,99.601 68.495,102.722C68.861,103.622 69.612,103.894 70.266,104.272C80.644,110.263 91.022,116.251 101.4,122.242C104.636,124.11 104.576,124.081 102.687,127.325C97.086,136.947 91.553,146.611 85.956,156.238C81.396,164.081 76.784,171.898 72.194,179.728Z" fill="#000" stroke="" stroke-width="" stroke-miterlimit=""/>
		<path d="M72.191,179.728C76.781,171.898 81.392,164.081 85.957,156.229C91.554,146.603 97.087,136.938 102.687,127.316C104.577,124.068 104.636,124.102 101.401,122.234C91.023,116.242 80.645,110.255 70.267,104.263C69.613,103.885 68.866,103.618 68.496,102.713C73.966,99.588 79.397,96.476 84.84,93.384C98.131,85.83 111.422,78.28 124.713,70.73C134.089,65.406 143.465,60.081 152.836,54.747C153.384,54.437 153.906,54.076 154.441,53.741C161.537,49.766 168.632,45.788 176.059,41.622C175.282,44.127 173.715,45.817 172.921,47.881C169.808,52.331 167.375,57.185 164.645,61.86C156.696,75.49 148.832,89.172 140.942,102.832C139.885,104.662 138.972,106.59 137.779,108.323C136.662,109.949 137.214,110.726 138.713,111.571C144.539,114.858 150.318,118.234 156.118,121.571C160.879,124.31 165.656,127.023 170.399,129.796C171.074,130.191 172.067,130.378 172.123,131.456C172.178,132.616 171.121,132.709 170.445,133.096C150.794,144.297 131.138,155.486 111.469,166.654C97.439,174.616 83.388,182.535 69.35,190.48C68.56,190.926 67.817,191.461 67.053,191.953C66.577,191.996 66.102,192.034 65.273,192.106C67.673,187.822 69.932,183.775 72.191,179.728Z" fill="#000" stroke="" stroke-width="" stroke-miterlimit=""/>
	</svg>
