<?xml version="1.0" encoding="utf-8"?>
	<svg version="1.1" xmlns="http://www.w3.org/2000/svg" xmlns:xlink="http://www.w3.org/1999/xlink" x="0px" y="0px" width="240.0" height="240.0" xml:space="preserve">
		<path d="M38.138,117.884H38.125C38.125,112.562 38.152,107.239 38.179,101.916C38.243,89.302 38.308,76.687 38.011,64.08C37.716,51.498 43.351,42.487 53.172,35.694C62.672,29.128 73.498,25.524 84.734,23.434C111.016,18.543 137.258,18.543 163.192,25.604C174.327,28.639 184.905,33.014 193.065,41.791C198.07,47.177 201.004,53.381 201.018,60.723C201.071,98.824 201.098,136.917 200.998,175.011C200.964,187.318 194.519,196.329 184.959,203.236C173.697,211.376 160.72,215.376 147.187,217.593C123.47,221.472 99.895,220.936 76.755,213.969C66.136,210.773 56.153,206.224 48.201,197.997C41.595,191.164 38.098,183.231 38.125,173.691C38.162,160.668 38.154,147.649 38.146,134.628C38.142,129.047 38.138,123.466 38.138,117.884ZM52.769,157.886C52.768,159.222 52.767,160.557 52.767,161.893C52.764,161.893 52.761,161.893 52.758,161.892C52.755,161.891 52.751,161.887 52.747,161.88C52.747,163.027 52.748,164.174 52.749,165.32C52.752,168.184 52.755,171.045 52.74,173.906C52.72,179.386 54.502,184.129 58.261,188.169C63.332,193.622 69.637,197.093 76.544,199.471C99.644,207.43 123.267,207.812 147.083,203.705C157.005,201.997 166.619,199.069 175.014,193.234C181.023,189.053 186.048,183.908 186.269,176.009C186.456,169.257 186.437,162.499 186.419,155.74C186.411,153.037 186.404,150.333 186.41,147.63C186.416,145.205 185.338,144.729 183.234,145.794C179.161,147.858 174.98,149.707 170.626,151.1C131.782,163.555 93.527,162.818 56.043,145.821C53.631,144.729 52.754,145.366 52.761,147.865C52.775,151.203 52.772,154.541 52.769,157.879V157.886ZM186.438,107.5C186.44,109.241 186.43,110.982 186.421,112.723C186.398,116.665 186.376,120.608 186.492,124.543C186.579,127.612 185.393,129.414 182.707,130.888C166.46,139.825 148.881,143.939 130.591,145.225C110.151,146.665 90.112,144.421 70.744,137.38C65.706,135.544 60.936,133.139 56.179,130.694C53.847,129.494 52.709,127.886 52.729,125.18C52.777,118.559 52.774,111.935 52.771,105.312C52.768,100.013 52.765,94.715 52.789,89.418C52.802,85.981 53.56,85.418 56.099,86.892C70.328,95.159 86.039,98.141 102.104,99.621C120.85,101.356 139.501,100.432 157.925,96.446C166.567,94.576 174.835,91.608 182.546,87.193C185.668,85.405 186.371,85.793 186.411,89.451C186.461,93.534 186.453,97.616 186.444,101.699C186.44,103.632 186.436,105.566 186.438,107.5ZM71.183,79.134C86.713,85.17 102.979,86.497 119.433,86.597C133.1,86.765 146.586,85.438 159.805,81.928C166.732,80.085 173.411,77.539 179.119,73.071C188.76,65.527 188.68,54.694 179.059,47.09C173.09,42.367 166.229,39.446 158.94,37.624C132.725,31.071 106.456,31.058 80.247,37.63C72.63,39.54 65.455,42.574 59.352,47.72C50.836,54.902 50.823,65.239 59.285,72.468C62.815,75.483 66.922,77.479 71.183,79.134Z" fill="#000" stroke="" stroke-width="" stroke-miterlimit=""/>
	</svg>
