<?xml version="1.0" encoding="utf-8"?>
	<svg version="1.1" xmlns="http://www.w3.org/2000/svg" xmlns:xlink="http://www.w3.org/1999/xlink" x="0px" y="0px" width="240.0" height="240.0" xml:space="preserve">
		<path d="M170.735,53.082C176.666,48.778 182.01,44.614 187.651,40.907C192.028,38.034 197.014,36.452 202.291,35.949C208.647,35.34 213.23,38.14 216.534,43.339C219.553,48.085 220.201,53.39 219.944,58.874C219.855,60.746 218.552,61.317 217.048,60.998C215.07,60.579 213.119,59.914 211.246,59.142C203.448,55.917 191.558,59.259 186.851,66.018C185.778,67.555 185.565,68.695 186.868,70.411C201.9,90.251 206.573,112.868 204.51,137.24C203.783,145.804 202.414,154.29 198.545,162.015C196.203,166.694 193.162,171.11 189.898,175.219C186.538,179.451 182.049,181.457 176.588,178.847C168.577,190.742 157.129,197.892 144.21,202.61C116.26,212.806 87.617,214.053 58.627,207.814C54.669,206.965 50.779,205.506 47.056,203.868C30.806,196.729 21.112,184.811 20.224,166.532C18.535,131.784 26.289,99.742 47.497,71.625C55.776,60.646 65.413,51.009 77.018,43.456C77.829,42.931 78.539,41.651 78.606,40.673C78.88,36.474 80.026,34.691 84.034,33.188C106.986,24.579 129.145,26.865 150.32,38.677C156.771,42.271 162.562,47.045 168.633,51.31C169.533,51.937 170.316,52.725 170.735,53.082ZM55.1,194.566C60.466,193.94 66.543,193.677 72.429,192.475C94.778,187.92 114.684,178.042 132.494,163.888C144.222,154.569 154.144,143.809 159.684,129.554C160.36,127.816 160.265,126.502 159.331,124.903C152.036,112.426 143.417,100.916 134.221,89.809C121.442,74.381 107.886,59.735 91.726,47.733C85.672,43.238 80.652,42.92 74.721,47.604C68.622,52.423 62.345,57.303 57.353,63.178C32.572,92.313 21.045,126.094 22.784,164.453C23.292,175.661 27.317,184.588 36.401,191.128C37.782,192.123 39.476,193.006 41.13,193.241C45.535,193.867 49.991,194.113 55.1,194.566Z" fill="#000" stroke="" stroke-width="" stroke-miterlimit=""/>
	</svg>
