<?xml version="1.0" encoding="utf-8"?>
	<svg version="1.1" xmlns="http://www.w3.org/2000/svg" xmlns:xlink="http://www.w3.org/1999/xlink" x="0px" y="0px" width="240.0" height="240.0" xml:space="preserve">
		<path d="M36.698,61.798C36.698,61.798 18.199,79.497 17.199,98.196L17.199,101.696C17.999,116.795 29.398,125.695 29.398,125.695C47.697,143.594 91.995,166.092 102.394,171.192C102.394,171.192 102.994,171.492 103.394,171.092L103.594,170.692L103.594,170.292C75.196,108.396 36.698,61.798 36.698,61.798ZM96.495,186.391C96.295,185.591 95.495,185.591 95.495,185.591L21.699,188.191C29.698,202.49 43.198,213.49 57.297,210.19C66.896,207.69 88.895,192.391 96.095,187.191C96.695,186.691 96.495,186.291 96.495,186.291L96.495,186.391ZM97.295,178.592C64.896,156.693 2.1,123.195 2.1,123.195C0.6,127.794 0.1,132.194 0,136.194L0,136.894C0,147.593 4,155.093 4,155.093C11.999,171.992 27.398,177.092 27.398,177.092C34.398,180.092 41.398,180.192 41.398,180.192C42.598,180.392 85.395,180.192 96.795,180.192C97.295,180.192 97.595,179.692 97.595,179.692L97.595,179.092C97.595,178.792 97.295,178.592 97.295,178.592L97.295,178.592ZM90.595,32.3C76.041,36.016 65.615,48.794 64.896,63.798L64.896,67.898C65.196,73.898 66.496,78.397 66.496,78.397C73.096,107.396 105.094,154.893 111.994,164.892C112.494,165.392 112.994,165.192 112.994,165.192C113.387,165.022 113.629,164.62 113.594,164.192C124.193,58.198 102.494,30 102.494,30C99.294,30.2 90.595,32.3 90.595,32.3L90.595,32.3ZM173.59,54.999C173.59,54.999 168.69,37 149.192,32.2C149.192,32.2 143.492,30.8 137.492,30C137.492,30 115.693,58.098 126.293,164.292C126.393,164.992 126.893,165.092 126.893,165.092C127.593,165.392 127.893,164.792 127.893,164.792C135.092,154.493 166.891,107.196 173.39,78.397C173.39,78.397 176.99,64.398 173.59,54.999ZM144.392,185.691C144.392,185.691 143.692,185.691 143.492,186.191C143.492,186.191 143.392,186.891 143.792,187.191C150.792,192.291 172.29,207.19 182.59,210.19C182.59,210.19 184.19,210.69 186.889,210.79L188.289,210.79C195.189,210.59 207.288,207.09 218.288,188.191L144.292,185.691L144.392,185.691ZM222.687,101.596C224.087,80.997 203.289,61.898 203.289,61.798C203.289,61.798 164.791,108.396 136.592,169.792C136.592,169.792 136.292,170.592 136.792,171.092L137.192,171.192L137.792,171.192C148.392,165.892 192.389,143.494 210.588,125.795C210.588,125.795 222.087,116.495 222.687,101.596L222.687,101.596ZM237.887,122.995C237.887,122.995 175.09,156.693 142.692,178.492C142.692,178.492 142.192,178.892 142.392,179.592C142.392,179.592 142.692,180.192 143.092,180.192C154.691,180.192 198.689,180.192 199.789,179.992C199.789,179.992 205.488,179.792 212.488,177.092C212.488,177.092 228.087,172.092 236.187,154.393C236.187,154.393 243.486,139.894 237.887,122.995L237.887,122.995Z" fill="#000" stroke="#00000000" stroke-width="1.0" stroke-miterlimit=""/>
	</svg>
