<?xml version="1.0" encoding="utf-8"?>
	<svg version="1.1" xmlns="http://www.w3.org/2000/svg" xmlns:xlink="http://www.w3.org/1999/xlink" x="0px" y="0px" width="240.0" height="240.0" xml:space="preserve">
		<path d="M20,111.282C20.066,109.759 20.374,108.569 20.259,107.317C20.144,106.028 21.35,106.106 22.147,105.921C31.452,103.779 40.769,101.665 50.078,99.547C57.064,97.959 64.05,96.386 71.028,94.765C72.239,94.482 73.245,94.626 74.316,95.295C86.823,103.089 99.354,110.843 111.869,118.625C113.88,119.877 114.135,121.33 113.035,124.458C112.09,127.142 110.243,129.297 108.758,131.653C103.019,140.773 97.109,149.783 91.375,158.903C89.343,162.134 86.597,163.882 82.895,164.687C72.432,166.965 62.023,169.46 51.581,171.845C47.727,172.724 43.86,173.577 39.981,174.345C36.069,175.117 34.189,173.971 33.241,170.043C31.485,162.749 29.88,155.423 28.193,148.112C26.108,139.078 23.928,130.065 21.95,121.01C21.231,117.689 20.172,114.418 20,111.282Z" fill="#000" stroke="" stroke-width="" stroke-miterlimit=""/>
		<path d="M144.127,73.105C144.041,74.936 143.298,76.705 142.292,78.33C135.569,89.162 128.808,99.966 122.048,110.777C121.687,111.352 121.281,111.91 120.829,112.415C118.436,115.103 116.716,115.411 113.675,113.531C107.879,109.944 102.108,106.315 96.362,102.65C90.96,99.206 85.645,95.615 80.202,92.237C77.563,90.599 76.097,88.268 75.412,85.403C74.123,80.038 72.962,74.64 71.742,69.259C69.801,60.685 67.925,52.098 65.869,43.552C65.265,41.04 65.282,38.586 65.446,36.07C65.54,34.649 66.599,34.547 67.585,34.317C74.296,32.77 81.011,31.226 87.73,29.699C101.431,26.58 115.132,23.464 128.829,20.349C131.731,19.688 131.608,19.729 132.519,22.631C136.316,34.748 138.323,47.292 141.401,59.581C142.497,63.977 143.819,68.381 144.127,73.105Z" fill="#000" stroke="" stroke-width="" stroke-miterlimit=""/>
		<path d="M219.524,129.74C219.585,132.552 218.473,134.013 215.292,134.875C211.54,135.893 207.731,136.698 203.939,137.56C194.293,139.751 184.553,141.59 175.03,144.221C169.095,145.863 164.28,144.894 159.248,141.574C149.914,135.421 140.273,129.736 130.799,123.797C128.854,122.578 126.855,121.338 126.153,118.847C125.865,117.833 125.927,117.037 126.489,116.154C134.51,103.623 142.514,91.079 150.501,78.527C151.252,77.349 152.225,76.762 153.596,76.455C169.641,72.839 185.669,69.161 201.706,65.504C204.44,64.88 204.39,64.929 205.211,67.618C208.507,78.388 210.502,89.47 213.063,100.417C215.099,109.111 217.065,117.821 219.081,126.522C219.343,127.659 219.557,128.796 219.524,129.74Z" fill="#000" stroke="" stroke-width="" stroke-miterlimit=""/>
		<path d="M109.972,220C107.85,219.992 106.012,218.568 105.375,216.089C104.017,210.806 102.831,205.482 101.611,200.167C99.567,191.268 97.679,182.328 95.467,173.471C94.334,168.935 94.913,165.114 97.511,161.112C104.686,150.074 111.504,138.803 118.465,127.631C120.595,124.211 120.591,124.224 123.957,126.366C135.868,133.956 147.776,141.549 159.708,149.102C161.001,149.918 161.694,150.936 162.138,152.418C165.577,163.919 167.732,175.72 170.445,187.389C171.463,191.765 172.604,196.111 173.368,200.54C173.938,203.836 172.982,205.568 169.624,206.488C165.089,207.732 160.479,208.696 155.899,209.759C145.604,212.144 135.322,214.599 124.999,216.852C119.938,217.952 114.951,219.405 109.972,220Z" fill="#000" stroke="" stroke-width="" stroke-miterlimit=""/>
		<path d="M0.222,117.606C22.54,117.598 44.866,117.598 67.191,117.591C72.119,117.591 72.119,117.569 72.134,112.648C72.156,103.494 72.156,103.501 62.871,103.494C41.985,103.458 21.1,103.414 0.222,103.378C-0.596,99.731 0.844,98.971 4.55,99C28.359,99.21 52.168,99.108 75.977,99.108C76.049,105.853 76.107,112.598 76.186,119.342C76.208,121.13 75.296,121.933 73.545,121.948C71.866,121.955 70.18,121.991 68.501,121.991C49.041,121.991 29.589,121.991 10.129,121.998C5.404,121.998 5.396,122.02 5.382,126.782C5.375,129.742 5.389,132.701 5.375,135.661C5.353,140.459 5.237,140.553 0.208,140.372C0.222,132.781 0.222,125.197 0.222,117.606Z" fill="#000" stroke="" stroke-width="" stroke-miterlimit=""/>
		<path d="M239.76,99.108C239.832,105.745 239.854,112.373 239.999,119.009C240.064,122.107 237.973,121.991 235.867,121.991C221.798,121.991 207.737,121.991 193.669,121.998C186.7,121.998 179.724,122.078 172.755,121.962C170.142,121.919 169.042,122.794 169.137,125.45C169.274,129.358 169.151,133.273 169.165,137.181C169.173,139.055 168.753,140.452 166.408,140.445C164.006,140.438 163.76,138.954 163.767,137.123C163.796,132.028 163.955,126.919 163.709,121.832C163.542,118.474 164.896,117.533 168.094,117.555C185.282,117.649 202.476,117.598 219.664,117.598C223.629,117.598 227.61,117.403 231.561,117.656C235.136,117.888 236.308,116.462 235.954,113.126C235.751,111.252 235.751,109.319 235.954,107.445C236.301,104.225 234.861,103.429 231.792,103.45C210.632,103.552 189.479,103.458 168.319,103.545C164.997,103.559 163.137,102.785 163.998,99.116C189.255,99.108 214.504,99.108 239.76,99.108Z" fill="#000" stroke="" stroke-width="" stroke-miterlimit=""/>
		<path d="M154.624,99.109C155.362,102.365 154.067,103.588 150.673,103.538C140.831,103.4 130.989,103.574 121.14,103.444C118.18,103.407 117.13,104.37 117.174,107.323C117.311,116.911 117.101,126.5 117.282,136.089C117.348,139.548 116.067,140.59 112.673,140.539C101.39,140.387 90.101,140.481 78.812,140.474C77.972,140.474 77.133,140.445 76.293,140.366C75.02,140.25 74.39,139.548 74.383,138.26C74.376,136.921 75.143,136.284 76.366,136.219C78.522,136.11 80.686,136.089 82.843,136.089C90.767,136.074 98.691,136.089 106.615,136.081C111.848,136.074 111.833,136.067 111.862,131.059C111.92,120.407 111.985,109.754 112.05,99.102C126.249,99.109 140.44,99.109 154.624,99.109Z" fill="#000" stroke="" stroke-width="" stroke-miterlimit=""/>
	</svg>
