<?xml version="1.0" encoding="utf-8"?>
	<svg version="1.1" xmlns="http://www.w3.org/2000/svg" xmlns:xlink="http://www.w3.org/1999/xlink" x="0px" y="0px" width="240.0" height="240.0" xml:space="preserve">
		<path d="M80.344,148.859C80.344,140.901 80.401,132.938 80.305,124.98C80.279,122.969 80.961,122.37 82.925,122.387C94.215,122.474 105.504,122.265 116.785,122.539C124.639,122.73 132.324,124.059 139.217,128.316C155.707,138.499 155.207,160.557 138.288,170.009C131.781,173.645 124.678,174.983 117.42,175.165C105.847,175.461 94.267,175.257 82.69,175.335C80.905,175.348 80.297,174.74 80.314,172.954C80.384,164.922 80.344,156.891 80.344,148.859ZM97.924,148.85C97.924,154.206 97.998,159.562 97.885,164.918C97.842,166.938 98.367,167.802 100.539,167.681C103.497,167.516 106.473,167.72 109.44,167.616C113.949,167.459 118.384,166.786 122.515,164.849C128.14,162.208 131.794,157.981 132.489,151.639C133.262,144.606 131.476,138.559 125.33,134.368C122.845,132.673 120.052,131.687 117.159,130.953C111.673,129.559 106.073,130.202 100.522,129.993C98.567,129.919 97.837,130.528 97.881,132.565C98.007,137.995 97.929,143.425 97.924,148.85Z" fill="#000" stroke="" stroke-width="" stroke-miterlimit=""/>
		<path d="M60.682,146.274C64.9,147.082 68.41,148.685 71.468,151.266C76.75,155.722 77.02,162.707 71.968,167.407C67.498,171.569 61.846,173.193 56.06,174.358C46.521,176.269 36.904,175.752 27.299,175.005C23.625,174.718 19.963,174.266 16.322,173.628C14.898,173.38 14.328,172.733 14.381,171.321C14.441,169.658 14.45,167.989 14.381,166.33C14.302,164.493 15.032,164.089 16.752,164.562C24.958,166.825 33.294,168.15 41.843,167.677C45.704,167.464 49.471,166.804 52.928,164.966C54.683,164.032 56.251,162.816 56.838,160.809C57.615,158.129 56.238,155.675 53.163,154.241C49.909,152.721 46.4,152.195 42.868,151.774C37.82,151.17 32.751,151.352 27.69,151.313C24.941,151.292 24.815,151.196 24.823,148.542C24.849,142.686 24.211,143.381 29.845,143.381C35.64,143.386 41.426,143.394 47.112,142.052C48.806,141.652 50.474,141.14 51.955,140.197C55.574,137.899 55.596,134.589 51.96,132.33C48.928,130.445 45.496,129.833 42.004,129.629C33.928,129.159 25.948,129.907 18.125,131.961C16.196,132.469 15.358,132.113 15.61,130.024C15.662,129.598 15.614,129.155 15.619,128.721C15.684,123.148 14.919,123.782 20.501,123.156C32.681,121.792 44.883,121.162 57.046,123.365C61.329,124.142 65.547,125.237 69.201,127.778C72.724,130.228 74.066,133.512 73.071,137.126C72.402,139.563 70.747,141.275 68.723,142.63C67.528,143.429 66.234,144.111 64.922,144.711C63.68,145.28 62.355,145.671 60.682,146.274Z" fill="#000" stroke="" stroke-width="" stroke-miterlimit=""/>
		<path d="M173.935,175.678C167.467,175.396 161.407,175.126 155.374,174.34C153.236,174.062 152.302,173.206 152.524,171C152.685,169.423 152.563,167.82 152.576,166.23C152.585,165.096 153.08,164.658 154.231,165.009C160.786,167.021 167.536,167.72 174.348,167.881C177.597,167.959 180.868,167.916 183.887,166.417C185.724,165.505 187.11,164.245 187.288,162.017C187.475,159.723 186.163,158.385 184.399,157.325C179.643,154.476 174.291,153.046 169.205,150.979C164.843,149.206 160.43,147.504 156.798,144.406C150.865,139.35 151.264,131.97 157.637,127.517C158.883,126.644 160.213,125.927 161.624,125.332C167.337,122.926 173.392,122.4 179.465,122.153C185.329,121.914 191.159,122.448 196.966,123.352C198.882,123.651 199.829,124.407 199.612,126.44C199.49,127.583 199.599,128.751 199.59,129.911C199.568,132.478 199.386,132.656 196.806,132.022C190.963,130.593 185.108,129.324 179.03,129.62C176.554,129.741 174.113,130.05 171.872,131.149C168.149,132.973 167.91,136.205 171.381,138.499C175.473,141.205 180.212,142.43 184.738,144.141C189.404,145.905 194.138,147.517 198.395,150.201C201.21,151.973 203.626,154.115 204.672,157.408C206.327,162.599 204.038,167.807 198.839,170.765C193.887,173.584 188.431,174.644 182.853,175.166C179.756,175.465 176.641,175.53 173.935,175.678Z" fill="#000" stroke="" stroke-width="" stroke-miterlimit=""/>
		<path d="M224.603,65.113C227.783,65.113 230.967,65.078 234.147,65.121C237.626,65.169 239.859,67.298 239.933,70.808C240.024,75.36 240.015,79.917 239.937,84.474C239.876,88.009 237.839,90.303 234.316,90.394C227.739,90.559 221.154,90.564 214.582,90.394C210.929,90.299 208.978,87.996 208.943,84.313C208.904,79.904 208.904,75.49 208.943,71.081C208.978,67.259 211.055,65.169 214.842,65.126C218.096,65.082 221.35,65.113 224.603,65.113ZM224.442,69.982C221.697,69.982 218.952,70.03 216.211,69.965C214.59,69.926 213.83,70.473 213.865,72.206C213.943,75.89 213.93,79.574 213.869,83.257C213.843,84.891 214.417,85.612 216.133,85.594C221.693,85.533 227.257,85.542 232.817,85.59C234.359,85.603 235.05,85.064 235.024,83.448C234.959,79.695 234.942,75.938 235.033,72.18C235.076,70.408 234.273,69.93 232.678,69.969C229.933,70.03 227.188,69.982 224.442,69.982Z" fill="#000" stroke="" stroke-width="" stroke-miterlimit=""/>
		<path d="M224.181,117.874C220.927,117.874 217.669,117.913 214.416,117.865C211.175,117.813 209.112,115.836 209.06,112.583C208.977,107.813 208.982,103.035 209.064,98.265C209.116,95.259 211.306,93.066 214.316,93.031C220.971,92.957 227.621,92.957 234.276,93.027C237.469,93.061 239.667,95.038 239.793,98.265C239.98,103.105 239.962,107.957 239.81,112.796C239.715,115.841 237.456,117.809 234.38,117.861C230.979,117.917 227.582,117.874 224.181,117.874ZM224.407,113.434C227.226,113.434 230.045,113.404 232.86,113.447C234.393,113.473 235.114,112.861 235.101,111.275C235.062,107.375 235.062,103.469 235.101,99.569C235.119,97.961 234.346,97.418 232.834,97.427C227.269,97.457 221.705,97.47 216.14,97.423C214.477,97.41 213.79,98.092 213.808,99.742C213.855,103.574 213.868,107.401 213.799,111.232C213.769,112.969 214.55,113.499 216.166,113.46C218.916,113.387 221.661,113.439 224.407,113.434Z" fill="#000" stroke="" stroke-width="" stroke-miterlimit=""/>
		<path d="M110.434,77.671C110.434,74.2 110.469,70.729 110.421,67.259C110.399,65.704 111.003,65.078 112.606,65.091C119.404,65.148 126.202,65.152 133,65.087C134.677,65.069 135.294,65.664 135.324,67.35C135.355,69.161 134.808,70.017 132.874,69.995C128.031,69.93 123.183,70.035 118.34,69.952C116.455,69.922 115.581,70.443 115.594,72.515C115.608,74.622 116.702,74.839 118.357,74.813C121.754,74.756 125.155,74.856 128.552,74.778C130.433,74.735 130.894,75.664 130.863,77.324C130.833,78.892 130.377,79.734 128.604,79.695C124.99,79.613 121.372,79.76 117.758,79.647C115.473,79.578 115.608,81.016 115.642,82.506C115.677,83.983 115.26,85.642 117.753,85.594C122.74,85.499 127.736,85.62 132.722,85.542C134.529,85.516 135.337,86.029 135.333,87.988C135.329,89.89 134.634,90.52 132.779,90.499C126.124,90.429 119.469,90.429 112.819,90.494C111.033,90.512 110.369,89.851 110.408,88.079C110.495,84.617 110.434,81.146 110.434,77.671Z" fill="#000" stroke="" stroke-width="" stroke-miterlimit=""/>
		<path d="M175.516,77.615C175.516,74.218 175.563,70.821 175.494,67.424C175.459,65.804 175.959,65.065 177.714,65.087C183.352,65.161 188.99,65.078 194.629,65.13C198.447,65.165 201.305,66.99 202.995,70.36C205.415,75.186 205.336,80.151 203.065,85.004C201.271,88.835 197.874,90.342 193.869,90.434C188.452,90.56 183.026,90.442 177.605,90.49C175.985,90.503 175.468,89.778 175.494,88.244C175.555,84.7 175.516,81.159 175.516,77.615ZM188.239,85.568C190.046,85.568 191.849,85.59 193.656,85.564C196.818,85.512 198.712,84.165 199.511,81.138C200.245,78.362 200.224,75.556 198.947,72.888C198.099,71.121 196.749,70.03 194.72,70.013C190.602,69.987 186.488,70.004 182.37,69.982C181.15,69.974 180.481,70.421 180.489,71.75C180.515,75.795 180.515,79.839 180.489,83.883C180.481,85.069 180.989,85.59 182.179,85.573C184.195,85.542 186.215,85.564 188.239,85.568Z" fill="#000" stroke="" stroke-width="" stroke-miterlimit=""/>
		<path d="M22.62,82.02C22.62,77.128 22.607,72.363 22.633,67.593C22.637,66.772 22.329,65.673 23.384,65.313C24.548,64.913 25.83,64.926 27.007,65.348C27.741,65.608 27.628,66.425 27.628,67.059C27.641,74.222 27.637,81.381 27.632,88.544C27.632,89.265 27.685,90.112 26.764,90.316C25.4,90.616 24.031,90.694 22.902,89.582C20.635,87.341 18.367,85.112 16.087,82.893C13.028,79.917 9.957,76.954 6.882,73.996C6.539,73.671 6.282,73.145 5.631,73.267C5.114,73.888 5.344,74.639 5.34,75.326C5.314,79.305 5.335,83.284 5.327,87.263C5.318,90.26 5.114,90.347 2.633,90.516C0.114,90.686 0.044,89.243 0.058,87.389C0.11,81.025 0.053,74.657 0.101,68.293C0.11,67.224 -0.438,65.673 1.026,65.287C2.507,64.896 4.184,64.718 5.505,66.06C6.873,67.45 8.289,68.801 9.692,70.161C13.48,73.836 17.272,77.511 21.069,81.177C21.412,81.511 21.699,81.972 22.62,82.02Z" fill="#000" stroke="" stroke-width="" stroke-miterlimit=""/>
		<path d="M51.361,72.741C51.361,78.123 51.374,82.884 51.356,87.645C51.343,90.264 51.057,90.442 48.502,90.507C46.721,90.555 46.07,89.878 46.087,88.097C46.152,81.516 46.091,74.935 46.131,68.358C46.139,67.281 45.588,65.713 46.995,65.309C48.542,64.861 50.262,64.761 51.652,66.164C54.397,68.94 57.199,71.664 60.001,74.379C62.69,76.985 65.413,79.561 68.119,82.141C68.936,81.572 68.636,80.864 68.641,80.273C68.671,76.008 68.736,71.738 68.623,67.476C68.571,65.461 69.475,65.07 71.243,65.074C72.976,65.078 73.697,65.591 73.68,67.424C73.606,74.222 73.667,81.02 73.636,87.814C73.632,88.687 74.036,89.886 72.841,90.269C71.599,90.668 70.244,90.755 69.149,89.769C68.128,88.853 67.172,87.862 66.186,86.902C61.886,82.719 57.585,78.536 53.276,74.357C52.829,73.923 52.321,73.545 51.361,72.741Z" fill="#000" stroke="" stroke-width="" stroke-miterlimit=""/>
		<path d="M146.622,72.945C146.622,77.845 146.631,82.745 146.618,87.645C146.614,90.251 145.045,91.268 142.53,90.373C141.644,90.056 141.575,89.387 141.575,88.644C141.57,81.416 141.566,74.183 141.579,66.955C141.579,66.247 141.509,65.339 142.478,65.235C143.886,65.082 145.376,64.731 146.592,65.895C148.994,68.193 151.414,70.473 153.798,72.789C156.496,75.408 159.154,78.062 161.852,80.681C162.351,81.164 162.738,81.824 163.863,82.024C163.863,80.764 163.863,79.574 163.863,78.383C163.867,74.626 163.915,70.864 163.854,67.107C163.82,65 165.179,65.122 166.617,65.091C168.09,65.061 169.154,65.243 169.141,67.129C169.093,74.213 169.128,81.298 169.119,88.383C169.119,89.165 169.197,90.125 168.172,90.329C166.895,90.586 165.566,90.716 164.489,89.686C161.774,87.089 158.998,84.548 156.37,81.863C153.342,78.77 150.445,75.543 147.491,72.376C147.209,72.571 146.918,72.758 146.622,72.945Z" fill="#000" stroke="" stroke-width="" stroke-miterlimit=""/>
		<path d="M92.206,65.113C95.825,65.113 99.443,65.169 103.057,65.087C104.86,65.048 105.85,65.369 105.846,67.55C105.841,69.796 104.669,70.022 102.966,69.987C101.015,69.948 99.056,70.043 97.106,69.965C95.416,69.896 94.799,70.608 94.817,72.276C94.878,77.341 94.843,82.406 94.834,87.467C94.83,90.321 94.686,90.473 92.202,90.477C89.643,90.481 89.487,90.325 89.482,87.58C89.474,82.515 89.422,77.45 89.508,72.389C89.539,70.625 88.983,69.874 87.158,69.956C84.921,70.056 82.671,69.93 80.43,69.982C78.618,70.026 78.297,68.996 78.297,67.48C78.297,65.938 78.657,65.039 80.482,65.083C84.391,65.183 88.301,65.113 92.206,65.113Z" fill="#000" stroke="" stroke-width="" stroke-miterlimit=""/>
		<path d="M39.387,77.81C39.387,81.281 39.309,84.76 39.418,88.227C39.479,90.173 38.51,90.511 36.885,90.503C35.295,90.498 34.283,90.242 34.305,88.266C34.383,81.25 34.383,74.231 34.309,67.211C34.288,65.156 35.439,65.091 36.959,65.087C38.453,65.078 39.466,65.282 39.414,67.172C39.318,70.716 39.387,74.261 39.387,77.81Z" fill="#000" stroke="" stroke-width="" stroke-miterlimit=""/>
	</svg>
