<?xml version="1.0" encoding="utf-8"?>
	<svg version="1.1" xmlns="http://www.w3.org/2000/svg" xmlns:xlink="http://www.w3.org/1999/xlink" x="0px" y="0px" width="240.0" height="240.0" xml:space="preserve">
		<path d="M220,45.765C220,97.555 220,149.347 220,201.137C219.821,202.015 219.653,202.896 219.462,203.772C218.772,206.92 216.916,208.979 213.774,209.824C213.096,210.006 212.413,210.174 211.736,210.346C179.386,210.346 147.037,210.346 114.687,210.346C114.267,210.249 113.851,210.133 113.429,210.058C109.068,209.26 107.039,207.22 106.359,202.854C106.088,201.104 105.958,199.338 105.97,197.564C106.031,188.162 106.106,178.759 106.161,169.357C106.184,165.46 106.163,161.567 106.182,157.671C106.191,155.527 106.867,154.868 109.03,154.849C119.495,154.759 129.958,154.891 140.425,154.679C148.449,154.518 156.48,154.634 164.506,154.608C167.179,154.599 168.938,152.948 169.169,150.287C169.209,149.817 169.2,149.342 169.2,148.872C169.219,141.829 169.233,134.785 169.254,127.741C169.256,127.191 169.252,126.636 169.325,126.093C169.509,124.721 170.187,124.074 171.582,123.978C172.444,123.919 173.313,123.978 174.177,123.942C175.632,123.885 176.607,124.492 177.289,125.81C178.742,128.61 181.046,130.301 184.213,130.724C187.627,131.179 190.624,130.218 193.136,127.904C196.331,124.962 197.245,121.21 196.267,117.118C195.391,113.451 192.813,111.12 189.2,110.209C184.64,109.057 180.761,110.629 177.738,114.03C176.43,115.501 175.108,115.996 173.245,115.945C169.54,115.841 169.256,115.628 169.252,111.86C169.245,104.54 169.247,97.222 169.226,89.902C169.219,87.451 168.05,86.001 165.665,85.449C165.058,85.307 164.421,85.248 163.797,85.234C159.471,85.137 155.143,85.286 150.817,85.019C149.091,84.913 147.356,84.986 145.625,84.986C145.141,84.986 144.591,85.017 144.515,85.619C144.354,86.908 144.354,88.218 144.539,89.501C144.661,90.365 145.563,90.639 146.156,91.128C150.654,94.818 152.959,99.498 152.106,105.345C150.822,114.133 141.828,119.333 133.084,116.497C126.397,114.327 122.236,107.647 123.457,100.948C124.215,96.785 126.326,93.397 129.655,90.809C130.624,90.055 131.136,89.241 130.983,88.018C130.933,87.631 130.975,87.231 130.975,86.837C130.966,85.024 130.916,84.965 129.129,84.965C122.399,84.96 115.672,84.965 108.942,84.962C105.96,84.962 105.457,84.466 105.485,81.437C105.549,74.355 105.627,67.276 105.71,60.195C105.778,54.412 105.835,48.629 105.955,42.849C106,40.641 106.328,38.457 107.075,36.36C108.378,32.686 110.907,30.393 114.753,29.619C115.906,29.385 117.07,29.205 118.229,29C146.801,29 175.372,29 203.944,29C205.516,29.39 207.141,29.239 208.735,29.46C215.271,30.374 218.449,33.439 219.452,39.916C219.5,40.225 219.495,40.544 219.559,40.851C219.885,42.476 219.611,44.15 220,45.765Z" fill="#000" stroke="" stroke-width="" stroke-miterlimit=""/>
		<path d="M20,80.476C20.64,79.536 21.542,79.26 22.649,79.265C30.715,79.288 38.779,79.272 46.845,79.281C48.687,79.283 49.429,79.982 49.471,81.841C49.521,84.044 49.485,86.247 49.485,88.45C49.485,89.607 48.999,90.445 47.995,91.076C45.438,92.686 43.393,94.78 42.347,97.675C40.118,103.838 44.083,110.426 50.56,111.378C57.103,112.339 62.409,108.233 62.857,101.642C63.129,97.642 61.103,94.554 57.976,92.329C54.782,90.058 54.975,90.502 54.937,86.252C54.923,84.679 54.897,83.104 54.916,81.531C54.935,80.015 55.568,79.302 57.046,79.298C64.205,79.274 71.369,79.177 78.527,79.331C83.967,79.449 87.712,83.609 87.759,89.3C87.811,95.633 87.766,101.968 87.787,108.301C87.79,108.896 87.49,109.718 88.179,110.02C88.9,110.336 89.249,109.515 89.66,109.094C93.448,105.217 98.024,103.586 103.379,104.405C111.044,105.579 116.033,112.632 114.834,120.464C113.705,127.841 108.557,132.695 101.117,133.04C96.333,133.262 92.239,131.571 89.325,127.557C89.233,127.43 89.152,127.293 89.053,127.172C88.81,126.884 88.656,126.377 88.184,126.509C87.634,126.662 87.787,127.22 87.785,127.623C87.771,134.311 87.797,141 87.761,147.687C87.738,152.06 85.249,155.444 81.261,156.684C80.46,156.932 79.648,157.017 78.817,157.017C60.09,157.017 41.362,157.014 22.635,157.031C21.528,157.031 20.621,156.759 20,155.8C20,130.693 20,105.583 20,80.476Z" fill="#000" stroke="" stroke-width="" stroke-miterlimit=""/>
	</svg>
