<?xml version="1.0" encoding="utf-8"?>
	<svg version="1.1" xmlns="http://www.w3.org/2000/svg" xmlns:xlink="http://www.w3.org/1999/xlink" x="0px" y="0px" width="240.0" height="240.0" xml:space="preserve">
		<path d="M239.975,46.508C239.973,47.364 239.694,48.196 239.181,48.881C238.649,49.565 238.075,49.937 237.391,49.937C232.113,50.469 227.789,52.158 224.462,55.003C221.084,57.858 217.655,63.397 214.117,71.47L159.649,194.29C159.278,195.446 158.273,195.978 156.643,195.978C156.038,195.984 155.442,195.831 154.914,195.535C154.387,195.239 153.946,194.809 153.637,194.29L123.075,130.423L87.929,194.29C87.186,195.446 86.24,195.978 84.922,195.978C83.335,195.978 82.338,195.396 81.806,194.29L28.343,71.53C25.016,63.929 21.478,58.601 17.787,55.595C14.097,52.588 8.92,50.688 2.325,50.004C1.742,50.004 1.219,49.692 0.738,49.109C0.233,48.545 -0.031,47.805 0.003,47.049C0.003,45.047 0.586,44.042 1.692,44.042C6.438,44.042 11.454,44.253 16.681,44.676C21.537,45.098 26.072,45.309 30.353,45.309C34.685,45.309 39.853,45.098 45.764,44.676C51.938,44.253 57.427,44.042 62.232,44.042C63.389,44.042 63.921,45.047 63.921,47.049C63.921,49.05 63.549,50.004 62.865,50.004C58.111,50.376 54.319,51.592 51.566,53.644C48.813,55.696 47.453,58.398 47.453,61.776C47.453,63.465 48.036,65.627 49.142,68.16L93.316,168.018L118.439,120.618L95.056,71.589C90.834,62.832 87.405,57.182 84.711,54.649C82.017,52.115 77.905,50.587 72.416,50.004C71.884,50.004 71.462,49.692 70.989,49.109C70.516,48.526 70.305,47.842 70.305,47.049C70.305,45.047 70.778,44.042 71.783,44.042C76.537,44.042 80.911,44.253 84.922,44.676C88.773,45.098 92.843,45.309 97.218,45.309C101.491,45.309 105.975,45.098 110.78,44.676C115.686,44.253 120.542,44.042 125.296,44.042C126.453,44.042 126.985,45.047 126.985,47.049C126.985,49.05 126.664,50.004 125.93,50.004C116.379,50.638 111.624,53.382 111.624,58.136C111.624,60.248 112.731,63.575 114.952,68.059L130.414,99.465L145.825,70.753C147.936,66.691 149.043,63.262 149.043,60.509C149.043,53.965 144.288,50.477 134.737,50.063C133.893,50.063 133.471,49.058 133.471,47.108C133.471,46.364 133.682,45.74 134.104,45.106C134.526,44.473 134.948,44.16 135.371,44.16C138.799,44.16 142.971,44.372 147.987,44.794C152.741,45.216 156.693,45.427 159.759,45.427C161.971,45.427 165.197,45.216 169.47,44.895C173.979,44.458 178.503,44.21 183.032,44.152C183.877,44.152 184.299,44.996 184.299,46.685C184.299,48.957 183.505,50.114 181.977,50.114C176.437,50.697 171.945,52.225 168.575,54.708C165.206,57.191 160.975,62.84 155.908,71.707L135.269,109.497L163.035,166.076L204.043,70.702C205.47,67.223 206.154,63.997 206.154,61.1C206.154,54.134 201.399,50.435 191.849,49.962C191.004,49.962 190.582,48.957 190.582,47.006C190.582,45.005 191.215,44 192.482,44C195.97,44 200.082,44.211 204.887,44.633C209.321,45.056 213.011,45.267 215.975,45.267C219.142,45.267 222.731,45.056 226.852,44.633C231.125,44.211 234.975,44 238.412,44C239.468,44 240,44.845 240,46.533L239.975,46.508Z" fill="#000" stroke="" stroke-width="" stroke-miterlimit=""/>
	</svg>
