<?xml version="1.0" encoding="utf-8"?>
	<svg version="1.1" xmlns="http://www.w3.org/2000/svg" xmlns:xlink="http://www.w3.org/1999/xlink" x="0px" y="0px" width="240.0" height="240.0" xml:space="preserve">
		<path d="M178.961,165.649C178.961,162.689 178.902,160.308 178.975,157.931C179.085,154.353 177.691,154.108 175.096,156.024C167.954,161.293 160.927,166.74 153.568,171.69C149.896,174.158 149.443,176.906 150.875,180.562C151.394,181.889 151.904,183.225 152.527,184.505C155.52,190.666 159.067,192.44 166.908,191.757C172.104,191.306 175.307,188.486 176.992,182.486C178.587,176.804 179.221,170.978 178.961,165.649M149.673,135.379C149.673,139.589 149.687,142.921 149.668,146.253C149.651,149.29 150.821,149.489 153.059,147.825C160.568,142.244 168.122,136.723 175.65,131.169C176.677,130.411 177.552,129.565 177.921,128.23C179.541,122.354 175.31,114.138 169.376,111.748C162.842,109.116 156.104,111.59 152.723,117.715C149.499,123.557 149.524,129.886 149.673,135.379M202.942,152.309C202.64,160.412 203.656,169.182 201.878,177.819C199.266,190.499 194.639,201.795 181.907,207.858C163.403,216.673 135.812,211.694 128.323,184.494C126.746,178.768 126.501,172.925 126.136,167.07C125.284,153.424 125.397,139.761 126.817,126.194C128.087,114.051 133.189,103.685 143.846,96.746C163.646,83.856 190.787,93.033 199.104,115.046C203.639,127.047 202.719,139.379 202.942,152.309M45.99,177.28C47.418,177.275 48.86,177.409 50.27,177.251C54.62,176.763 57.79,177.804 58.246,182.849C58.301,183.45 58.647,184.054 58.959,184.6C63.132,191.903 70.092,192.118 77.267,191.763C83.172,191.471 87.801,188.953 89.912,183.308C92.407,176.641 91.942,169.982 86.935,164.596C82.589,159.921 76.285,160.07 70.478,159.66C59.753,158.903 59.744,159.037 59.775,148.334C59.796,141.168 59.797,141.205 66.878,141.126C70.828,141.084 74.802,141.472 78.698,140.33C85.629,138.298 89.612,132.343 89.332,124.266C89.087,117.236 85.121,112.75 77.824,111.247C68.833,109.395 62.008,113.078 58.728,121.763C57.948,123.83 56.852,124.978 54.638,124.978C49.563,124.976 44.487,125.006 39.412,124.971C35.751,124.945 34.951,122.834 35.366,119.574C36.941,107.205 44.541,99.198 55.373,94.995C70.188,89.245 85.14,89.695 99.266,98.133C115.371,107.754 118.063,135.206 101.894,146.628C99.626,148.231 97.117,150.071 101.486,152.349C116.864,160.364 117.682,183.718 109.131,195.53C99.162,209.303 84.747,212.381 69.084,211.457C58.359,210.823 48.782,207.021 41.296,198.668C37.046,193.927 35.1,188.455 34.164,182.401C33.597,178.735 35.063,177.028 38.854,177.258C41.224,177.402 43.611,177.285 45.99,177.28M201.367,65.214C190.941,65.273 182.793,57.335 182.762,47.085C182.731,36.582 190.972,28.075 201.254,28C211.167,27.929 219.99,36.849 220,46.953C220.01,56.872 211.559,65.155 201.367,65.214M57.222,46.87C57.242,57.198 49.218,65.211 38.86,65.206C28.63,65.201 20.09,57.051 20.001,47.207C19.906,36.977 28.825,27.976 39.014,28.018C48.904,28.059 57.202,36.651 57.222,46.87" fill="#000" stroke="#00000000" stroke-width="1.0" stroke-miterlimit=""/>
	</svg>
