<?xml version="1.0" encoding="utf-8"?>
	<svg version="1.1" xmlns="http://www.w3.org/2000/svg" xmlns:xlink="http://www.w3.org/1999/xlink" x="0px" y="0px" width="240.0" height="240.0" xml:space="preserve">
		<path d="M120,120m-109.5,0a109.5,109.5 0,1 1,219 0a109.5,109.5 0,1 1,-219 0" fill="#00000000" stroke="#000" stroke-width="13.0" stroke-miterlimit=""/>
		<path d="M123.937,4.096C150.067,4.082 173.876,11.706 194.182,28.017C232.351,58.673 247.598,98.837 236.42,146.502C225.386,193.546 194.138,222.218 147.266,233.59C139.657,235.436 131.818,236.269 123.925,235.924C130.812,234.788 137.781,234.261 144.595,232.547C165.352,227.326 183.491,217.236 198.485,202.136C218.009,182.472 229.445,158.689 231.972,130.848C234.856,99.075 226.194,70.668 205.958,46.252C185.568,21.648 159.152,7.615 127.117,4.699C126.048,4.602 124.997,4.302 123.937,4.096ZM123.903,17.143C148.212,17.21 169.838,24.969 188.714,40.205C220.721,66.038 234.132,108.62 222.88,148.079C211.588,187.676 177.547,217.01 136.864,222.096L136.107,222.192L136.107,222.192L134.59,222.386C131.049,222.837 127.487,223.234 123.892,222.875L125.803,222.61C126.121,222.566 126.439,222.521 126.758,222.477L128.668,222.209C135.67,221.216 142.641,220.059 149.314,217.55C189.827,202.319 213.856,173.435 218.828,130.293C225.131,75.595 185.434,25.55 131.046,18.118C128.665,17.793 126.203,18.05 123.903,17.143ZM114.635,4.104C104.956,5.417 95.346,6.964 86.039,10.144C36.726,26.992 3.626,74.906 7.576,128.51C11.706,184.568 54.999,228.228 108.558,235.071C110.584,235.331 112.604,235.633 114.628,235.915C99.069,235.942 84.08,232.847 70.008,226.367C30.843,208.335 7.196,177.961 1.214,135.16C-3.67,100.22 6.243,69.04 29.82,42.658C51.327,18.592 78.625,6.211 110.67,4.03C111.985,3.941 113.313,4.074 114.635,4.104ZM116.127,17.115C105.822,18.405 95.681,20.291 85.938,24.116C41.737,41.473 15.253,86.08 21.173,133.376C26.908,179.183 63.793,216.006 110.048,222.099C112.074,222.366 114.099,222.636 116.125,222.904C101.513,223.213 87.505,220.169 74.371,214.022C40.834,198.324 20.517,172.134 14.294,135.504C7.603,96.122 26.708,54.61 60.656,33.309C76.348,23.463 93.377,18.124 111.796,17.026C113.233,16.94 114.683,17.08 116.127,17.115Z" fill="#000" stroke="#00000000" stroke-width="1.0" stroke-miterlimit=""/>
	</svg>
