<?xml version="1.0" encoding="utf-8"?>
	<svg version="1.1" xmlns="http://www.w3.org/2000/svg" xmlns:xlink="http://www.w3.org/1999/xlink" x="0px" y="0px" width="240.0" height="240.0" xml:space="preserve">
		<path d="M212.857,37L27.143,37C23.192,37 20,40.192 20,44.143L20,154.857C20,158.808 23.192,162 27.143,162L111.964,162L111.964,187L73.571,187C71.607,187 70,188.607 70,190.571L70,201.286C70,202.268 70.804,203.071 71.786,203.071L168.214,203.071C169.196,203.071 170,202.268 170,201.286L170,190.571C170,188.607 168.393,187 166.429,187L128.036,187L128.036,162L212.857,162C216.808,162 220,158.808 220,154.857L220,44.143C220,40.192 216.808,37 212.857,37ZM203.929,145.929L36.071,145.929L36.071,53.071L203.929,53.071L203.929,145.929Z" fill="#000" stroke="#00000000" stroke-width="1.0" stroke-miterlimit=""/>
	</svg>
