<?xml version="1.0" encoding="utf-8"?>
	<svg version="1.1" xmlns="http://www.w3.org/2000/svg" xmlns:xlink="http://www.w3.org/1999/xlink" x="0px" y="0px" width="240.0" height="240.0" xml:space="preserve">
		<path d="M111.451,197.541L111.451,147.218L42.136,147.218C42.136,156.57 42.047,165.719 42.203,174.863C42.239,176.969 42.896,179.146 43.647,181.148C47.559,191.567 56.424,197.605 67.967,197.667C81.703,197.742 95.44,197.689 109.175,197.681C109.901,197.68 110.627,197.594 111.451,197.541L111.451,197.541ZM197.403,99.893C197.529,99.425 197.649,99.19 197.648,98.954C197.628,87.712 197.95,76.454 197.474,65.231C196.926,52.322 185.793,42.138 172.857,42.089C157.365,42.029 141.874,42.116 126.382,42.024C124.199,42.011 123.562,42.571 123.573,44.801C123.664,62.292 123.619,79.782 123.626,97.272C123.626,98.143 123.712,99.013 123.758,99.893L197.403,99.893ZM123.88,197.57L127.345,197.57C142.007,197.57 156.67,197.567 171.332,197.572C186.929,197.576 197.541,187.062 197.598,171.419C197.667,152.508 197.611,133.596 197.727,114.687C197.74,112.406 197.024,111.94 194.888,111.947C172.061,112.02 149.235,111.991 126.408,111.99L123.88,111.99L123.88,197.57ZM111.514,42.19C110.482,42.139 109.744,42.072 109.006,42.072C95.094,42.07 81.183,42.032 67.271,42.095C53.19,42.158 42.11,53.288 42.093,67.379C42.067,88.954 42.142,110.53 42.064,132.105C42.056,134.438 42.742,135.018 45.006,135.01C66.248,134.93 87.49,134.963 108.732,134.955C109.619,134.955 110.504,134.878 111.514,134.831L111.514,42.19ZM30,181.5L30,59C30.177,58.208 30.384,57.422 30.528,56.623C32.303,46.8 37.311,39.068 46.13,34.374C50.078,32.273 54.69,31.42 59,30L181.5,30C182.208,30.194 182.906,30.439 183.625,30.573C193.555,32.425 201.233,37.639 205.902,46.57C207.897,50.385 208.671,54.838 210,59L210,181C209.806,181.871 209.586,182.737 209.423,183.613C207.627,193.286 202.648,200.883 193.996,205.565C190.155,207.643 185.685,208.557 181.5,210L59,210C58.445,209.846 57.899,209.633 57.333,209.548C47.037,207.992 39.124,202.758 34.209,193.626C32.207,189.906 31.368,185.561 30,181.5L30,181.5Z" fill="#000" stroke="#00000000" stroke-width="1.0" stroke-miterlimit=""/>
		<path d="M111.514,42.19L111.514,134.831C110.504,134.878 109.619,134.955 108.733,134.955C87.49,134.963 66.248,134.93 45.006,135.011C42.743,135.018 42.056,134.437 42.064,132.105C42.142,110.53 42.067,88.954 42.093,67.378C42.11,53.288 53.19,42.158 67.271,42.095C81.183,42.032 95.094,42.07 109.006,42.072C109.744,42.072 110.482,42.139 111.514,42.19" fill="#000" stroke="#00000000" stroke-width="1.0" stroke-miterlimit=""/>
		<path d="M123.88,197.569L123.88,111.99L126.409,111.99C149.235,111.991 172.061,112.019 194.888,111.947C197.024,111.94 197.741,112.406 197.726,114.686C197.611,133.597 197.667,152.508 197.599,171.419C197.541,187.062 186.929,197.576 171.332,197.571C156.67,197.567 142.008,197.57 127.346,197.569L123.88,197.569Z" fill="#000" stroke="#00000000" stroke-width="1.0" stroke-miterlimit=""/>
		<path d="M197.403,99.893L123.759,99.893C123.712,99.014 123.626,98.143 123.626,97.273C123.62,79.782 123.664,62.292 123.573,44.801C123.562,42.571 124.2,42.011 126.383,42.024C141.874,42.116 157.366,42.029 172.857,42.089C185.793,42.138 196.926,52.323 197.474,65.231C197.951,76.455 197.628,87.712 197.648,98.955C197.649,99.19 197.53,99.425 197.403,99.893" fill="#000" stroke="#00000000" stroke-width="1.0" stroke-miterlimit=""/>
		<path d="M111.451,197.541C110.627,197.594 109.901,197.68 109.175,197.681C95.44,197.689 81.703,197.742 67.967,197.667C56.424,197.605 47.559,191.567 43.647,181.148C42.896,179.146 42.239,176.969 42.203,174.863C42.047,165.719 42.136,156.57 42.136,147.218L111.451,147.218L111.451,197.541Z" fill="#000" stroke="#00000000" stroke-width="1.0" stroke-miterlimit=""/>
	</svg>
