<?xml version="1.0" encoding="utf-8"?>
	<svg version="1.1" xmlns="http://www.w3.org/2000/svg" xmlns:xlink="http://www.w3.org/1999/xlink" x="0px" y="0px" width="240.0" height="240.0" xml:space="preserve">
		<path d="M92.769,200.297C92.769,200.29 92.769,200.29 92.769,200.282C111.764,200.282 130.759,200.297 149.746,200.275C155.857,200.267 157.116,198.412 154.821,192.689C150.618,182.204 146.206,171.801 142.145,161.264C140.752,157.642 138.561,156.428 134.827,156.48C123.411,156.651 111.987,156.562 100.563,156.577C91.42,156.584 91.897,157.076 95.064,148.849C108.12,114.913 121.19,80.977 134.239,47.033C136.489,41.176 135.371,39.507 129.179,39.47C98.521,39.291 67.864,39.127 37.2,39C30.955,38.978 29.316,41.295 31.767,46.765C36.581,57.526 41.544,68.227 46.38,78.98C47.483,81.431 49.182,82.594 51.873,82.572C57.335,82.519 62.797,82.564 68.259,82.579C73.833,82.594 73.96,82.735 71.926,87.944C58.341,122.745 44.726,157.538 31.149,192.338C28.734,198.531 29.941,200.282 36.536,200.29C55.278,200.312 74.027,200.297 92.769,200.297ZM188.474,200.23C188.474,200.237 188.474,200.252 188.474,200.26C193.437,200.26 198.407,200.275 203.37,200.26C210.017,200.237 211.299,198.315 208.84,191.988C206.5,185.967 204.123,179.968 201.761,173.962C185.359,132.254 168.965,90.545 152.548,48.844C151.698,46.69 151.154,44.112 148.032,44.164C145.387,44.209 144.627,46.266 143.837,48.27C138.024,63.062 132.227,77.854 126.377,92.632C125.609,94.577 125.46,96.38 126.265,98.377C139.47,130.935 152.652,163.499 165.79,196.087C166.975,199.023 168.95,200.305 172.072,200.26C177.542,200.17 183.011,200.23 188.474,200.23Z" fill="#000" stroke="" stroke-width="" stroke-miterlimit=""/>
	</svg>
