<?xml version="1.0" encoding="utf-8"?>
	<svg version="1.1" xmlns="http://www.w3.org/2000/svg" xmlns:xlink="http://www.w3.org/1999/xlink" x="0px" y="0px" width="240.0" height="240.0" xml:space="preserve">
		<path d="M102.361,20.017C114.178,19.995 125.993,19.993 137.808,20.019C143.851,20.032 145.369,21.348 146.199,27.179C147.116,33.631 148.093,40.076 148.859,46.547C149.176,49.237 150.338,50.791 152.844,51.972C156.558,53.721 160.159,55.801 163.549,58.116C166.091,59.852 168.329,59.963 171.095,58.82C177.798,56.053 184.628,53.588 191.342,50.843C194.831,49.417 197.463,50.137 199.364,53.314C205.779,64.028 212.16,74.763 218.544,85.495C219.352,86.853 219.912,88.3 219.886,90.076C220.081,92.513 218.577,94.106 216.65,95.518C211.145,99.549 205.745,103.727 200.16,107.642C197.53,109.486 196.411,111.633 196.803,114.822C197.077,117.061 197.289,119.434 196.842,121.606C195.555,127.88 198.579,131.605 203.478,134.856C208.206,137.992 212.548,141.703 217.076,145.139C220.372,147.641 220.78,150.796 218.809,154.154C212.413,165.044 205.878,175.853 199.421,186.708C197.499,189.941 194.863,190.672 191.425,189.312C184.548,186.591 177.604,184.028 170.772,181.201C168.289,180.174 166.278,180.09 164.061,181.794C160.556,184.486 156.639,186.556 152.593,188.324C150.224,189.358 149.199,191.078 148.886,193.549C148.053,200.152 147.115,206.742 146.182,213.332C145.433,218.623 143.998,219.948 138.711,219.967C126.325,220.013 113.94,220.008 101.555,219.971C95.938,219.954 94.715,218.85 93.873,213.135C92.921,206.689 91.941,200.242 91.2,193.771C90.892,191.078 89.845,189.347 87.306,188.27C83.108,186.487 79.139,184.233 75.486,181.497C73.673,180.136 71.971,180.112 69.926,180.941C65.973,182.546 62.001,184.106 58.024,185.655L50.07,188.749C44.432,190.947 42.909,190.536 39.866,185.507C33.914,175.673 28.012,165.808 22.196,155.894C18.749,150.016 19.207,147.979 24.704,143.695C29.971,139.588 35.279,135.531 40.655,131.566C42.574,130.152 43.328,128.503 43.24,126.142C43.087,122.036 43.049,117.914 43.256,113.814C43.387,111.223 42.373,109.546 40.385,108.083C34.658,103.874 29.073,99.47 23.279,95.357C19.65,92.782 19.158,89.612 21.188,86.121C27.679,74.959 34.312,63.878 40.999,52.831C42.711,50.003 45.314,49.503 48.429,50.76C55.156,53.473 61.987,55.937 68.68,58.728C71.59,59.94 73.962,59.938 76.598,58.002C80.026,55.482 83.695,53.24 87.694,51.69C90.03,50.785 90.814,49.1 91.106,46.804C91.927,40.341 92.875,33.894 93.767,27.439C94.61,21.339 96.088,20.029 102.361,20.017ZM119.96,85.442C100.276,85.463 83.934,101.141 83.922,120.016C83.91,139.042 100.033,154.584 119.821,154.619C139.635,154.655 155.974,139.218 156.073,120.368C156.173,101.254 139.802,85.422 119.96,85.442Z" fill="#000" stroke="#00000000" stroke-width="1.0" stroke-miterlimit=""/>
	</svg>
