<?xml version="1.0" encoding="utf-8"?>
	<svg version="1.1" xmlns="http://www.w3.org/2000/svg" xmlns:xlink="http://www.w3.org/1999/xlink" x="0px" y="0px" width="240.0" height="240.0" xml:space="preserve">
		<path d="M120,220C175.228,220 220,175.228 220,120C220,64.771 175.228,20 120,20C64.771,20 20,64.771 20,120C20,175.228 64.771,220 120,220ZM120,150C136.569,150 150,136.569 150,120C150,103.431 136.569,90 120,90C103.431,90 90,103.431 90,120C90,136.569 103.431,150 120,150ZM120,54C83.549,54 54,83.549 54,120C54,156.451 83.549,186 120,186C148.431,186 172.667,168.023 181.953,142.809L185.707,144.191C175.86,170.927 150.16,190 120,190C81.34,190 50,158.66 50,120C50,81.34 81.34,50 120,50C150.16,50 175.86,69.073 185.707,95.809L181.953,97.191C172.667,71.977 148.431,54 120,54ZM178.902,127.688H188.297L189.957,133H197.32L186.812,104.562H180.367L169.938,133H177.262L178.902,127.688ZM186.656,122.395H180.543L183.59,112.531L186.656,122.395Z" fill="#000" stroke="" stroke-width="" stroke-miterlimit=""/>
	</svg>
