<?xml version="1.0" encoding="utf-8"?>
	<svg version="1.1" xmlns="http://www.w3.org/2000/svg" xmlns:xlink="http://www.w3.org/1999/xlink" x="0px" y="0px" width="240.0" height="240.0" xml:space="preserve">
		<path d="M87.239,108.015C83.097,112.343 79.579,116.019 76.795,118.932C87.843,130.391 98.258,141.192 107.865,151.154C125.787,133.666 143.788,116.103 162.554,97.79C159.311,94.502 155.73,90.872 150.627,85.699C136.625,100.641 123.431,114.721 109.795,129.273C101.468,121.425 94.61,114.96 87.239,108.015ZM38.002,57.788C37.919,51.825 40.077,48.17 46.038,46.021C68.677,37.855 91.124,29.151 113.767,20.994C116.928,19.856 121.161,19.605 124.265,20.716C147.809,29.134 171.244,37.866 194.563,46.892C197.169,47.901 200.676,51.369 200.656,53.666C200.342,87.469 205.669,121.885 192.362,154.501C180.015,184.76 159.313,207.264 128.099,218.606C123.076,220.43 116.365,220.443 111.265,218.768C73.132,206.229 41.093,163.8 39.037,123.592" fill="#000" stroke="#00000000" stroke-width="1.0" stroke-miterlimit=""/>
	</svg>
