<?xml version="1.0" encoding="utf-8"?>
	<svg version="1.1" xmlns="http://www.w3.org/2000/svg" xmlns:xlink="http://www.w3.org/1999/xlink" x="0px" y="0px" width="240.0" height="240.0" xml:space="preserve">
		<path d="M76.435,36.815C78.889,36.807 81.332,36.99 83.632,37.883C85.02,38.423 85.536,38.179 86.048,36.68C89.143,27.616 95.494,22.01 104.895,20.402C113.194,18.981 120.631,21.319 126.393,27.594C128.368,29.745 130.408,30.807 133.214,31.393C150.658,35.037 164.139,44.299 172.752,60.12C175.798,65.717 177.664,71.731 178.199,78.115C178.267,78.927 178.47,79.633 178.982,80.29C186.982,90.547 186.006,101.159 180.053,111.855C176.584,118.089 171.418,122.72 165.304,126.276C163.796,127.153 163.442,127.826 164.752,129.096C165.262,129.59 165.686,130.189 166.073,130.79C167.782,133.443 169.519,135.904 172.934,136.758C174.805,137.226 176.134,138.916 177.175,140.578C177.945,141.806 178.6,141.804 179.741,140.992C182.911,138.735 186.322,137.236 190.391,138.035C196.527,139.239 201.086,144.414 201.442,150.661C201.631,153.984 201.415,157.272 200.422,160.455C197.181,170.839 191.884,180.005 184.052,187.621C181.983,189.634 179.641,191.285 176.877,192.258C172.399,193.835 168.691,192.85 165.762,189.128C164.91,188.043 164.394,187.777 163.289,188.857C157.296,194.706 150.079,198.412 142.062,200.604C140.611,201.001 139.741,201.721 139.068,203.049C136.209,208.686 132.587,213.707 127.133,217.166C119.264,222.158 110.742,220.47 105.503,212.771C104.694,211.583 103.871,211.331 102.51,211.331C89.656,211.327 78.082,207.725 69.115,198.139C66.438,195.277 63.54,193.254 60.107,191.55C51.448,187.252 44.685,180.896 40.436,172.094C38.396,167.869 37.201,163.458 38.618,158.775C40.19,153.579 44.878,151.11 49.771,153.376C52.716,154.74 54.65,152.64 57.072,152.375C57.802,152.294 57.556,151.445 57.42,150.905C56.459,147.095 57.156,143.626 59.664,140.606C60.607,139.47 59.995,139.103 59.09,138.524C53.408,134.888 50.715,129.67 50.979,122.927C51.098,119.911 51.992,117.128 53.71,114.665C54.491,113.544 54.283,113.026 53.176,112.325C39.12,103.426 40.596,82.047 54.847,75.199C56.361,74.472 55.692,73.778 55.23,72.876C49.983,62.633 51.75,51.232 59.886,43.439C64.487,39.032 70.03,36.799 76.435,36.815" fill="#000" stroke="#00000000" stroke-width="1.0" stroke-miterlimit=""/>
		<path d="M155.942,45.649C166.845,54.166 173.322,65.313 174.571,79.263C174.664,80.298 174.926,81.225 175.613,82.023C182.476,90.017 182.316,98.81 178.086,107.756C173.236,118.012 164.517,123.787 154.046,127.225C151.255,128.142 148.4,128.848 145.45,129.118C144.102,129.241 142.659,129.663 142.909,131.359C143.152,133.01 144.543,133.013 145.957,132.824C150.026,132.276 154.031,131.469 157.818,129.867C159.329,129.228 160.286,129.515 161.35,130.719C171.557,142.267 173.793,155.557 169.904,170.114C166.235,183.841 156.816,191.928 143.711,196.264C143.314,196.395 142.839,196.714 142.497,196.388C141.96,195.876 142.486,195.309 142.65,194.808C145.092,187.325 146.747,179.713 146.295,171.785C146.012,166.831 144.877,162.106 141.57,158.211C136.704,152.48 127.807,150.817 120.235,154.149C117.721,155.255 115.397,156.684 113.441,158.623C112.521,159.535 111.778,159.566 110.62,158.974C107.134,157.192 103.437,156.556 99.566,157.53C98.449,157.811 97.361,158.178 96.404,158.847C95.485,159.489 94.943,160.333 95.554,161.409C96.152,162.463 97.131,162.554 98.166,162.026C101.165,160.495 104.255,160.572 107.359,161.573C109.616,162.302 109.635,162.522 108.416,164.492C107.511,165.954 106.626,167.435 105.847,168.966C105.19,170.257 103.995,171.858 106.04,172.822C107.88,173.69 108.498,171.933 109.102,170.674C110.926,166.868 113.364,163.538 116.573,160.79C120.722,157.239 125.513,155.722 130.943,156.431C136.967,157.216 141.021,161.51 142.139,168.352C142.543,170.822 142.886,173.321 142.565,176.214C140.848,168.716 134.391,166.762 128.797,171.781C122.897,177.074 120.203,184.013 118.756,191.553C117.765,196.715 117.351,201.927 118.165,207.162C118.657,210.326 119.919,213.063 123.354,214.949C120.314,216.412 117.554,216.438 114.804,215.649C111.09,214.584 108.833,211.831 107.223,208.485C106.381,206.737 105.824,204.88 105.316,203.007C104.994,201.821 104.359,200.75 102.922,201.127C101.523,201.494 101.436,202.633 101.719,203.906C102.536,207.594 102.504,207.721 98.609,207.456C86.695,206.644 76.455,202.444 69.145,192.517C68.304,191.375 67.122,190.763 65.903,190.223L65.338,189.978L65.056,189.856C56.397,186.093 49.24,180.593 44.593,172.197C42.764,168.891 41.456,165.405 41.765,161.539C42.105,157.294 45.085,155.298 48.7,156.783C49.481,157.104 50.051,157.492 50.123,158.447C50.289,160.622 51.75,161.907 53.481,162.883C55.478,164.01 57.501,165.159 59.741,165.703C61.293,166.081 61.292,166.828 60.794,168.029C60.356,169.085 59.956,170.171 59.68,171.279C59.426,172.297 59.803,173.169 60.878,173.483C61.84,173.763 62.671,173.32 62.986,172.432C64.43,168.353 66.33,164.517 68.693,160.893C68.997,160.427 68.935,159.624 68.838,159.009C68.012,153.728 68.202,148.415 68.419,143.116C68.735,135.425 66.933,128.225 64.011,121.18C54.79,98.945 56.371,77.538 70.525,57.934C81.335,42.962 96.764,35.461 115.142,34.038C130.174,32.875 143.97,36.298 155.942,45.649ZM188.592,141.664L188.975,141.666C193.779,141.686 198.324,146.721 197.786,152.076C197.735,152.587 197.671,153.075 197.272,153.445C195.064,155.501 193.832,158.19 192.592,160.845C188.154,170.354 182.932,179.383 176.566,187.744C175.428,189.238 173.928,189.422 172.357,189.192C168.42,188.618 166.86,185.154 168.84,181.766C174.262,172.489 176.386,162.516 174.936,151.838C174.794,150.79 175.001,150.264 175.898,149.563C177.575,148.253 178.931,146.543 180.506,145.093C182.567,143.195 184.881,141.8 188.217,141.673L188.592,141.664ZM107.868,126.324C107.331,127.573 106.46,128.512 105.554,129.413L104.947,130.011C104.242,130.709 103.555,131.42 103.028,132.271C102.684,132.826 101.903,132.805 101.253,132.891C98.253,133.289 95.757,132.52 93.889,129.985C93.23,129.089 92.253,128.76 91.266,129.581C90.413,130.291 90.438,131.16 90.955,132.094C93.142,136.037 101.219,138.171 105.13,135.822C105.312,135.713 105.573,135.601 105.63,135.433C106.65,132.438 110.324,131.467 111.069,128.201C111.311,127.142 112.1,125.883 113.518,126.317C114.916,126.745 114.687,128.128 114.566,129.26C114.259,132.143 114.685,132.62 117.608,132.714C120.402,132.804 123.195,132.935 125.986,133.101C127.067,133.165 128.31,133.291 128.403,134.702C128.494,136.1 127.246,136.397 126.22,136.659C125.183,136.923 124.1,137.107 123.033,137.128C120.997,137.168 120.322,138.156 120.326,140.123C120.335,145.186 116.82,148.365 111.932,147.164C108.142,146.233 104.751,145.848 101.494,148.364C101.119,148.654 100.556,148.703 100.078,148.855C98.849,149.243 97.61,149.757 98.074,151.347C98.53,152.911 99.975,152.953 101.093,152.399C104.987,150.469 108.91,149.458 112.313,151.164C117.733,151.233 121.819,148.94 123.14,144.781C124.039,141.947 125.332,140.482 128.284,139.801C131.139,139.144 132.519,136.776 132.325,134.41C132.111,131.797 130.277,130.066 127.173,129.45C124.898,128.999 122.6,129.08 120.31,129.086C119.007,129.089 118.445,128.671 118.236,127.285C117.781,124.261 115.945,122.375 113.442,122.29C110.618,122.194 108.862,124.012 107.868,126.324ZM172.168,93.207C171.162,96.597 168.986,99.089 166.218,101.149C160.511,105.398 153.964,107.693 147.096,109.056C138.792,110.704 130.464,111.141 122.243,108.42C120.528,107.852 118.931,107.062 117.437,106.05C116.338,105.306 115.149,104.851 114.254,106.22C113.382,107.553 114.292,108.34 115.255,109.006L115.477,109.158C116.247,109.679 117.058,110.148 117.883,110.577C123.317,113.397 129.215,113.985 135.194,114.167C138.437,114.197 141.644,113.827 144.823,113.289C153.324,111.851 161.444,109.35 168.415,104.045C171.706,101.541 174.474,98.554 175.647,94.408C176.011,93.123 176.127,91.862 174.59,91.388C173.144,90.943 172.515,92.039 172.168,93.207ZM125.752,84.774C122.042,84.788 118.967,88.031 118.96,91.934C118.953,95.947 122.061,99.272 125.829,99.285C129.598,99.297 132.927,95.863 132.856,92.037C132.784,88.199 129.419,84.759 125.752,84.774ZM168.6,82.127C167.536,79.104 165.031,77.275 162.56,77.694C159.919,78.142 158.121,80.687 158.152,84.726C158.242,86.869 159.337,89.254 162.081,90.543C163.858,91.378 165.635,91.054 167.019,89.643C169.114,87.506 169.594,84.949 168.6,82.127Z" fill="#000" stroke="#00000000" stroke-width="1.0" stroke-miterlimit=""/>
		<path d="M183.388,78.665C184.155,77.829 185.232,77.566 186.218,77.294C188.421,76.687 189.494,75.269 189.958,73.1C190.431,70.886 191.128,68.72 191.877,65.986C193.214,68.59 193.622,70.907 194.121,73.135C194.617,75.353 195.694,76.671 197.865,77.272C198.869,77.55 199.919,77.867 200.994,78.84C199.552,79.44 198.294,80.062 196.973,80.488C195.514,80.959 194.768,81.896 194.403,83.343C193.759,85.898 193.013,88.427 191.832,91.034C191.31,89.261 190.561,87.517 190.316,85.707C189.87,82.429 188.336,80.339 185.021,79.628C184.455,79.507 183.743,79.377 183.388,78.665" fill="#000" stroke="#00000000" stroke-width="1.0" stroke-miterlimit=""/>
	</svg>
