<?xml version="1.0" encoding="utf-8"?>
	<svg version="1.1" xmlns="http://www.w3.org/2000/svg" xmlns:xlink="http://www.w3.org/1999/xlink" x="0px" y="0px" width="240.0" height="240.0" xml:space="preserve">
		<path d="M206.396,20.051C208.324,21.313 208.493,23.297 208.38,25.286C207.765,36.468 208.057,47.654 208.026,58.841C208.016,61.651 208.396,64.471 208.334,67.275C208.262,70.587 207.365,71.33 204.14,71.33C198.244,71.33 192.348,71.341 186.452,71.31C182.971,71.295 182.3,70.582 182.305,67.049C182.31,61.323 182.341,55.601 182.341,49.874C182.341,46.034 182.079,45.737 178.296,45.763C160.362,45.875 142.428,46.045 124.489,46.137C113.384,46.193 102.269,46.357 91.169,46.086C81.177,45.84 71.19,45.757 61.202,45.757C56.922,45.757 56.675,46.04 56.696,50.228C56.716,54.073 56.701,57.918 56.696,61.764C56.691,65.301 56.896,65.588 60.367,66.475C77.665,70.89 94.968,75.288 112.266,79.698C143.053,87.552 173.845,95.411 204.632,103.271C208.949,104.373 209.513,105.101 208.908,109.536C207.165,122.322 203.756,134.658 198.116,146.27C181.782,179.908 156.393,204.168 122.105,219.108C121.479,219.38 120.88,219.703 120.264,220C119.752,220 119.239,220 118.726,220C118.116,219.698 117.511,219.375 116.891,219.098C100.992,212.048 86.432,202.902 73.676,191.054C53.317,172.135 39.772,149.085 32.543,122.281C31.831,119.641 32.271,118.99 34.994,118.975C41.741,118.934 48.488,119.005 55.235,118.934C57.368,118.908 58.531,119.749 59.147,121.784C60.582,126.532 62.402,131.146 64.53,135.622C75.671,159.046 92.81,176.811 115.266,189.654C118.439,191.469 120.951,191.418 124.017,189.541C130.144,185.788 136.188,181.953 141.772,177.421C158.403,163.932 170.472,147.142 178.162,127.178C179.336,124.122 178.911,123.327 175.665,122.487C164.586,119.621 153.502,116.775 142.418,113.95C106.837,104.876 71.251,95.811 35.671,86.752C33.999,86.327 32.389,85.804 31.051,84.655C31.051,63.804 31.077,42.958 31,22.107C31,20.344 31.349,20 33.107,20C90.872,20.062 148.631,20.051 206.396,20.051Z" fill="#000" stroke="" stroke-width="" stroke-miterlimit=""/>
	</svg>
