<?xml version="1.0" encoding="utf-8"?>
	<svg version="1.1" xmlns="http://www.w3.org/2000/svg" xmlns:xlink="http://www.w3.org/1999/xlink" x="0px" y="0px" width="240.0" height="240.0" xml:space="preserve">
		<path d="M108.948,173.096C108.948,184.371 108.942,195.643 108.957,206.918C108.96,208.118 109.017,209.323 109.167,210.514C110.118,218.085 118.795,222.411 125.397,218.578C129.228,216.353 131.086,212.964 131.083,208.511C131.068,185.514 131.047,162.513 131.095,139.515C131.113,131.211 134.679,124.654 141.714,120.285C148.266,116.217 155.046,112.522 161.729,108.667C175.352,100.805 189,92.985 202.592,85.068C208.028,81.902 209.658,75.176 206.486,69.768C203.491,64.662 196.687,63.003 191.351,66.072C187.833,68.096 184.312,70.11 180.797,72.14C164.535,81.541 148.281,90.958 132.015,100.354C124.029,104.966 116.044,104.948 108.049,100.324C88.277,88.884 68.494,77.467 48.719,66.03C44.113,63.366 38.301,64.265 34.732,68.237C31.305,72.05 31.148,78.045 34.293,82.26C35.986,84.533 38.491,85.621 40.818,86.968C59.552,97.801 78.304,108.604 97.039,119.437C104.829,123.941 108.987,130.589 108.957,139.726C108.918,150.85 108.948,161.975 108.948,173.096ZM131.074,50.979C131.074,44.316 131.074,37.654 131.074,30.991C131.074,30.892 131.071,30.79 131.068,30.69C130.845,22.753 122.382,17.605 115.268,21.129C110.782,23.351 108.942,27.167 108.945,32.037C108.954,44.611 108.942,57.185 108.96,69.758C108.963,70.907 109.062,72.065 109.228,73.201C109.874,77.636 114.375,81.743 118.843,82.02C125.984,82.462 131.053,77.708 131.071,70.519C131.092,64.004 131.077,57.492 131.074,50.979ZM77.481,133.457C75.761,133.352 73.981,133.869 72.351,134.804C60.713,141.488 49.071,148.165 37.474,154.921C32.062,158.075 30.436,164.801 33.62,170.228C36.584,175.285 43.361,177.017 48.62,173.989C60.208,167.315 71.777,160.613 83.34,153.896C87.625,151.407 89.606,146.322 88.28,141.434C87,136.701 82.679,133.451 77.481,133.457ZM162.637,133.457C157.511,133.454 153.139,136.686 151.874,141.274C150.485,146.313 152.478,151.386 156.877,153.974C158.602,154.99 160.34,155.986 162.075,156.987C171.919,162.672 181.741,168.394 191.612,174.031C196.895,177.05 203.612,175.231 206.546,170.114C209.637,164.723 207.944,158.129 202.635,154.93C201.477,154.233 200.283,153.595 199.114,152.919C188.795,146.954 178.482,140.98 168.161,135.02C166.399,134.007 164.526,133.331 162.637,133.457Z" fill="#000" stroke="" stroke-width="" stroke-miterlimit=""/>
	</svg>
