<?xml version="1.0" encoding="utf-8"?>
	<svg version="1.1" xmlns="http://www.w3.org/2000/svg" xmlns:xlink="http://www.w3.org/1999/xlink" x="0px" y="0px" width="240.0" height="240.0" xml:space="preserve">
		<path d="M117.839,219.965C85.369,219.965 52.896,219.965 20.391,219.965C20.391,219.458 20.391,218.948 20.391,218.441C20.391,152.979 20.395,87.512 20.355,22.05C20.352,20.663 20.621,20.351 22.039,20.351C87.435,20.394 152.835,20.398 218.231,20.351C219.743,20.351 220.001,20.744 219.997,22.167C219.95,42.881 219.966,63.599 219.966,84.316C217.576,83.295 215.927,81.299 213.947,79.748C203.774,71.773 192.084,67.142 179.641,64.187C175.833,63.283 174.149,64.608 174.379,68.53C174.699,74.033 174.968,79.541 175.681,85.018C176.843,93.913 178.394,102.73 180.717,111.399C181.084,112.76 181.076,113.746 179.489,114.319C177.907,114.888 176.387,115.648 174.874,116.392C165.188,121.179 156.527,127.408 148.836,134.982C147.85,135.952 147,136.712 145.491,135.773C140.479,132.643 135.294,129.805 130.036,127.116C122.517,123.272 114.815,119.823 106.91,116.852C104.54,115.964 102.914,116.946 102.626,119.491C102.244,122.84 101.92,126.211 101.873,129.575C101.772,136.841 101.624,144.115 102.236,151.373C102.976,160.19 104.115,168.906 107.447,177.228C109.552,182.486 112.195,187.499 112.663,193.424C113.368,202.424 115.711,211.195 117.839,219.965Z" fill="#000" stroke="" stroke-width="" stroke-miterlimit=""/>
		<path d="M138.53,178.541C138.452,174.686 140.21,171.712 143.866,170.013C147.105,168.504 151.186,169.521 154.083,172.211C157.326,175.22 158.784,178.873 157.988,183.219C156.796,189.725 150.247,192.683 144.587,189.155C140.841,186.825 138.444,183.429 138.53,178.541Z" fill="#000" stroke="" stroke-width="" stroke-miterlimit=""/>
		<path d="M209.035,138.911C209.074,143.175 207.889,145.931 204.689,147.397C201.302,148.944 198.23,148.032 195.49,145.744C192.664,143.382 191.37,140.345 191.557,136.654C191.83,131.24 196.932,127.794 202.058,129.595C206.346,131.096 209.047,135.044 209.035,138.911Z" fill="#000" stroke="" stroke-width="" stroke-miterlimit=""/>
	</svg>
