<?xml version="1.0" encoding="utf-8"?>
	<svg version="1.1" xmlns="http://www.w3.org/2000/svg" xmlns:xlink="http://www.w3.org/1999/xlink" x="0px" y="0px" width="240.0" height="240.0" xml:space="preserve">
		<path d="M37.818,84C40.597,87.776 43.062,91.761 45.612,95.688C51.838,105.278 58.023,114.892 64.205,124.509C68.321,130.909 72.393,137.34 76.523,143.732C77.096,144.618 76.974,145.028 76.065,145.55C70.715,148.62 65.388,151.735 60.079,154.877C59.236,155.376 58.779,155.194 58.346,154.415C56.459,151.014 54.557,147.619 52.662,144.223C52.445,143.831 52.155,143.465 52.018,143.048C51.498,141.464 50.34,141.35 48.905,141.464C45.61,141.729 42.304,141.876 39.003,142.064C34.05,142.346 29.098,142.634 24.144,142.889C23.452,142.924 23.203,143.33 22.957,143.848C21.296,147.327 19.635,150.807 17.955,154.276C17.282,155.668 17.226,155.681 15.89,154.941C10.884,152.174 5.88,149.399 0.878,146.621C-0.239,146.002 -0.257,145.925 0.635,144.417C4.825,137.336 8.999,130.242 13.231,123.183C19.925,112.019 26.644,100.874 33.392,89.741C34.601,87.749 35.734,85.684 37.406,84C37.542,84 37.681,84 37.818,84ZM32.509,129.016C32.509,128.931 32.509,128.848 32.509,128.763C34.506,128.763 36.505,128.817 38.497,128.747C40.148,128.689 41.792,128.488 43.439,128.345C44.118,128.287 44.479,128.071 44.085,127.297C41.894,122.968 39.728,118.627 37.544,114.294C37.426,114.062 37.354,113.714 37.018,113.73C36.695,113.747 36.629,114.091 36.515,114.327C35.475,116.462 34.436,118.596 33.415,120.739C32.288,123.1 31.176,125.466 30.065,127.833C29.548,128.937 29.605,129.014 30.857,129.014C31.405,129.016 31.958,129.016 32.509,129.016Z" fill="#000" stroke="" stroke-width="" stroke-miterlimit=""/>
		<path d="M240.003,109.403C239.641,110.712 239.769,112.069 239.676,113.397C239.305,118.711 239.059,124.032 238.765,129.351C238.421,135.596 238.077,141.843 237.733,148.088C237.731,148.123 237.729,148.156 237.727,148.191C237.567,150.005 237.284,150.165 235.786,149.14C229.956,145.146 224.415,140.768 218.804,136.483C215.465,133.933 212.143,131.358 208.804,128.807C208.552,128.614 208.276,128.237 207.918,128.465C207.638,128.641 207.767,129.037 207.761,129.337C207.634,135.391 207.906,141.443 207.943,147.497C207.953,149.082 207.947,149.082 206.333,149.08C203.094,149.076 199.861,148.879 196.628,148.719C195.832,148.68 195.65,148.303 195.704,147.593C196.282,139.879 196.574,132.152 196.974,124.43C197.255,119.008 197.626,113.591 197.962,108.171C197.999,107.56 197.885,106.752 198.432,106.462C199.078,106.119 199.631,106.81 200.13,107.179C207,112.256 213.852,117.357 220.714,122.448C222.76,123.966 224.834,125.451 226.872,126.982C227.524,127.473 227.752,127.433 227.845,126.563C227.984,125.292 227.959,124.02 227.963,122.75C227.978,117.796 227.974,112.842 227.98,107.887C227.982,106.545 228.025,106.489 229.384,106.514C232.553,106.568 235.724,106.638 238.893,106.721C239.264,106.732 239.632,106.854 240.001,106.924C240.003,107.751 240.003,108.577 240.003,109.403Z" fill="#000" stroke="" stroke-width="" stroke-miterlimit=""/>
		<path d="M191.581,114.627C191.618,119.718 191.541,124.807 191.175,129.886C190.831,134.674 189.632,139.188 186.463,142.965C183.373,146.65 179.361,148.686 174.62,149.252C171.504,149.622 168.34,149.85 165.243,149.266C157.969,147.891 153.363,143.533 151.41,136.412C150.633,133.581 150.368,130.66 150.194,127.744C149.835,121.731 149.908,115.708 150.028,109.689C150.088,106.651 149.927,107.187 152.549,107.16C155.823,107.125 159.1,107.177 162.375,107.138C163.331,107.125 163.679,107.407 163.715,108.42C163.922,114.472 163.802,120.528 163.907,126.58C163.945,128.672 163.996,130.774 164.305,132.854C164.605,134.886 165.403,136.675 166.927,138.106C168.978,140.033 171.484,140.064 173.789,139.132C176.19,138.164 177.505,136.012 177.687,133.357C178.122,127.069 177.82,120.77 177.936,114.478C177.979,112.071 178.052,109.664 178.078,107.258C178.087,106.568 178.331,106.272 179.048,106.263C182.838,106.222 186.628,106.168 190.419,106.077C191.345,106.054 191.61,106.433 191.597,107.301C191.558,109.741 191.583,112.183 191.581,114.627Z" fill="#000" stroke="" stroke-width="" stroke-miterlimit=""/>
		<path d="M115.001,124.165C115.001,116.319 115.001,108.473 115.001,100.628C115.001,99.062 115.005,99.091 116.525,99.037C124.1,98.766 131.674,98.507 139.247,98.175C140.864,98.105 142.482,98.059 144.1,98.004C144.866,97.977 145.255,98.211 145.249,99.041C145.228,102.241 145.232,105.441 145.243,108.641C145.245,109.323 144.963,109.635 144.265,109.664C141.616,109.772 138.967,109.913 136.32,110.039C134.702,110.116 133.087,110.205 131.467,110.249C130.819,110.265 130.577,110.526 130.51,111.168C130.214,114.089 130.425,117.013 130.359,119.936C130.345,120.603 130.724,120.745 131.287,120.723C133.868,120.615 136.448,120.513 139.031,120.408C140.477,120.348 141.923,120.288 143.368,120.221C143.801,120.201 143.998,120.414 144.039,120.824C144.075,121.166 144.158,121.506 144.168,121.847C144.259,124.631 144.354,127.415 144.416,130.198C144.445,131.466 144.371,131.514 143.06,131.516C139.199,131.52 135.336,131.516 131.475,131.52C130.173,131.522 130.111,131.536 130.179,132.864C130.438,137.85 130.289,142.839 130.351,147.827C130.367,149.231 130.326,149.262 128.903,149.268C124.696,149.285 120.49,149.27 116.283,149.326C115.276,149.341 114.98,148.984 114.984,148.011C115.013,140.064 115.001,132.114 115.001,124.165Z" fill="#000" stroke="" stroke-width="" stroke-miterlimit=""/>
		<path d="M108.194,113.699C108.243,117.545 108.235,117.512 105.681,118.206C102.139,119.169 98.678,120.352 95.754,122.665C93.488,124.459 91.719,126.599 91.212,129.575C90.696,132.591 91.897,135.095 94.683,136.63C97.183,138.007 99.896,138.568 102.719,138.693C104.581,138.773 106.439,138.626 108.295,138.51C109.132,138.458 109.445,138.765 109.474,139.625C109.565,142.441 109.722,145.256 109.875,148.071C109.925,148.986 109.482,149.436 108.616,149.471C103.691,149.672 98.755,149.858 93.892,148.864C89.814,148.032 86.034,146.433 82.964,143.547C79.052,139.871 77.266,135.362 77.633,129.927C78.033,124.03 80.472,119.198 84.816,115.319C89.426,111.201 94.959,108.892 100.936,107.55C102.786,107.135 104.633,106.721 106.506,106.419C107.421,106.27 107.703,106.64 107.757,107.425C107.931,109.89 108.1,112.359 108.194,113.699Z" fill="#000" stroke="" stroke-width="" stroke-miterlimit=""/>
	</svg>
