<?xml version="1.0" encoding="utf-8"?>
	<svg version="1.1" xmlns="http://www.w3.org/2000/svg" xmlns:xlink="http://www.w3.org/1999/xlink" x="0px" y="0px" width="240.0" height="240.0" xml:space="preserve">
		<path d="M32.382,32.466C23.896,40.953 14.986,57.076 11.591,70.23C9.47,79.565 9.47,99.507 11.591,109.691C14.561,121.996 22.623,136.847 31.534,146.182C38.323,153.395 49.355,150.425 49.355,141.514C49.355,138.544 48.082,135.574 44.263,130.482C33.655,117.328 29.412,105.448 29.412,89.324C29.412,73.624 33.231,63.865 47.233,44.771C51.052,39.68 51.052,35.437 47.233,31.618C42.99,27.799 36.625,28.223 32.382,32.466ZM192.347,32.042C188.104,36.285 188.529,39.68 195.318,49.439C206.35,64.29 210.168,74.897 210.168,90.173C210.168,104.599 205.077,117.753 194.893,130.482C191.074,135.574 189.802,138.12 189.802,141.514C189.802,146.606 194.045,150 199.561,150C204.652,150 210.168,144.484 217.806,131.755C233.081,106.296 233.93,78.292 220.776,51.985C217.382,45.196 208.471,33.315 205.077,30.345C202.107,28.223 195.742,29.072 192.347,32.042L192.347,32.042ZM64.63,51.985C62.508,53.682 59.114,57.925 57.417,60.895C47.658,76.17 46.385,95.689 53.598,111.812C61.66,128.785 69.722,134.301 77.359,128.36C81.602,124.966 81.602,118.601 76.935,112.661C70.146,104.175 68.873,100.356 68.873,89.748C68.873,79.14 70.146,75.322 76.935,67.26C81.602,61.319 82.027,54.955 77.359,51.56C73.116,47.742 69.297,48.166 64.63,51.985ZM162.221,51.136C157.978,54.53 157.978,60.895 162.646,66.835C169.435,75.322 170.708,79.14 170.708,89.748C170.708,100.356 169.435,103.75 162.646,112.661C157.978,118.601 157.978,124.966 162.221,128.36C169.859,134.301 177.921,128.785 186.407,111.812C190.226,104.175 190.226,102.478 190.226,89.748C190.226,76.595 190.226,76.17 185.558,66.835C180.467,56.652 172.829,48.59 168.162,48.59C166.464,48.59 163.919,49.863 162.221,51.136ZM108.334,70.23L104.939,73.2L104.939,105.872C104.939,130.906 104.515,138.12 103.667,138.12C100.272,138.12 89.24,144.484 84.997,148.727C70.146,163.578 70.57,185.642 85.421,199.645C95.605,208.979 99.848,210.677 114.699,210.677C125.731,210.677 128.277,210.252 132.944,207.707C141.006,203.463 147.795,197.523 151.614,190.31C154.584,184.369 155.432,182.672 155.432,173.762C155.432,165.275 155.008,163.154 151.614,157.214C147.37,149.576 140.157,143.211 131.247,139.393L125.306,136.847L124.882,120.299L124.458,103.75L130.822,103.75C140.157,103.75 142.703,101.629 142.703,93.567C142.703,89.748 142.279,86.354 141.006,85.929C140.157,85.081 135.914,84.657 132.095,84.232L124.882,83.808L124.458,79.565C124.033,71.927 123.185,70.23 119.79,68.957C115.547,66.411 111.304,66.835 108.334,70.23L108.334,70.23ZM124.882,158.062C129.549,160.184 135.065,166.124 136.338,170.792C137.611,175.883 134.217,183.097 129.125,187.34C119.79,194.977 102.394,192.431 96.453,182.672C91.362,174.61 94.756,163.578 103.667,158.911C109.183,155.941 119.366,155.516 124.882,158.062L124.882,158.062Z" fill="#000" stroke="#00000000" stroke-width="1.0" stroke-miterlimit=""/>
	</svg>
