<?xml version="1.0" encoding="utf-8"?>
	<svg version="1.1" xmlns="http://www.w3.org/2000/svg" xmlns:xlink="http://www.w3.org/1999/xlink" x="0px" y="0px" width="240.0" height="240.0" xml:space="preserve">
		<path d="M130.07,42.606C130.07,48.143 130.07,53.679 130.07,59.208C130.07,60.159 129.465,61.368 130.858,61.816C132.033,62.197 132.678,61.246 133.398,60.526C142.209,51.675 151.026,42.831 159.856,33.993C163.069,30.78 164.034,30.794 167.315,34.027C170.365,37.036 173.258,40.229 176.492,43.021C179.025,45.208 178.401,46.838 176.431,48.795C168.687,56.491 160.991,64.228 153.26,71.944C146.013,79.179 138.513,86.182 131.591,93.715C128.467,97.118 124.948,100.101 121.932,103.592C119.928,105.908 118.06,105.745 115.954,103.578C108.197,95.597 100.385,87.663 92.54,79.77C82.384,69.547 72.168,59.391 61.999,49.195C58.651,45.833 58.718,45.772 62.02,42.593C65.185,39.543 68.242,36.377 71.367,33.28C73.364,31.303 75.13,31.011 77.378,33.307C86.27,42.389 95.338,51.308 104.332,60.295C105.12,61.083 105.786,62.278 107.103,61.796C108.611,61.239 107.817,59.86 107.817,58.828C107.823,47.647 107.769,36.459 107.817,25.278C107.83,21.766 109.535,20.122 113.054,20.054C117.007,19.98 120.961,19.98 124.914,20.054C128.406,20.122 130.07,21.793 130.111,25.319C130.185,31.079 130.131,36.839 130.131,42.6C130.111,42.606 130.09,42.606 130.07,42.606Z" fill="#000" stroke="" stroke-width="" stroke-miterlimit=""/>
		<path d="M43.033,133.229C37.612,133.229 32.192,133.263 26.771,133.215C22.648,133.181 21.106,131.592 21.051,127.421C21.011,124.032 20.97,120.642 21.072,117.259C21.194,113.109 22.811,111.533 26.886,111.526C37.504,111.499 48.121,111.533 58.738,111.492C60.13,111.485 61.937,112.056 62.691,110.378C63.5,108.598 61.632,107.742 60.715,106.812C52.393,98.409 44.004,90.074 35.568,81.787C31.702,77.983 31.607,77.168 35.418,73.357C38.373,70.409 41.437,67.563 44.296,64.527C46.164,62.543 47.835,62.523 49.663,64.377C51.952,66.707 54.18,69.091 56.483,71.401C68.648,83.587 80.672,95.923 93.096,107.838C97.151,111.723 100.941,115.901 105.234,119.514C107.782,121.661 107.007,123.386 105.282,125.166C103.169,127.353 100.805,129.296 98.645,131.442C85.223,144.817 71.834,158.22 58.425,171.608C55.64,174.393 52.828,177.158 50.043,179.943C48.576,181.403 46.925,182.015 45.281,180.446C41.212,176.567 36.933,172.872 33.55,168.32C32.212,166.52 32.409,165.101 34.311,163.756C38.944,160.482 42.856,156.331 46.456,152.065C50.491,147.283 55.769,143.894 59.695,139.078C60.939,137.549 63.595,136.225 62.827,134.275C61.992,132.149 59.186,133.317 57.264,133.256C52.522,133.134 47.774,133.229 43.033,133.229Z" fill="#000" stroke="" stroke-width="" stroke-miterlimit=""/>
		<path d="M110.458,198.08C110.458,192.435 110.471,186.79 110.444,181.145C110.437,180.16 110.648,178.985 109.541,178.428C108.345,177.83 107.686,178.87 106.987,179.556C98.217,188.135 89.38,196.653 80.726,205.355C76.854,209.247 76.161,209.471 72.364,205.66C69.66,202.943 66.997,200.185 64.321,197.441C61.428,194.48 61.353,193.658 64.158,190.777C68.234,186.586 72.411,182.49 76.528,178.333C88.15,166.575 99.773,154.816 111.368,143.038C113.813,140.552 116.619,138.459 118.922,135.797C120.864,133.555 122.868,134.893 124.451,136.496C128.717,140.81 132.833,145.266 137.106,149.579C140.883,153.397 144.809,157.044 148.457,161.011C155.881,169.088 164.345,176.146 171.708,184.311C174.018,186.872 176.755,189.052 179.187,191.511C180.865,193.209 181.123,195.471 179.106,196.769C175.125,199.33 172.408,203.086 169.1,206.279C166.145,209.132 165.038,209.145 162.11,206.217C153.273,197.38 144.442,188.529 135.618,179.685C134.925,178.985 134.348,177.858 133.146,178.415C132.032,178.931 132.208,180.126 132.208,181.118C132.188,191.959 132.208,202.794 132.188,213.635C132.181,218.526 130.782,219.939 125.993,219.973C122.495,220 118.99,220.034 115.491,219.952C111.898,219.871 110.56,218.594 110.505,215.014C110.417,209.369 110.485,203.724 110.485,198.08C110.471,198.08 110.465,198.08 110.458,198.08Z" fill="#000" stroke="" stroke-width="" stroke-miterlimit=""/>
		<path d="M196.814,133.222C191.285,133.222 185.749,133.209 180.22,133.243C179.139,133.249 177.767,132.984 177.312,134.357C176.905,135.559 178.093,136.082 178.786,136.782C187.698,145.707 196.556,154.681 205.557,163.518C207.737,165.658 207.866,167.437 205.774,169.536C202.439,172.892 199.171,176.329 195.768,179.617C193.235,182.069 192.27,181.56 189.682,179.27C185.559,175.616 182.454,170.976 177.917,167.716C174.833,165.501 172.578,162.282 169.908,159.571C165.187,154.776 160.493,149.973 155.501,145.449C153.021,143.194 150.929,140.518 148.538,138.161C144.455,134.139 140.244,130.254 136.141,126.26C132.84,123.047 132.928,121.865 136.182,118.59C148.314,106.391 160.262,94.001 172.598,82.011C178.569,76.21 184.254,70.124 190.327,64.425C192.039,62.815 193.547,62.278 195.422,64.269C198.662,67.713 202.16,70.925 205.339,74.424C208.267,77.65 208.029,78.126 204.877,81.278C196.21,89.959 187.61,98.708 179.024,107.471C178.229,108.286 176.708,109.026 177.373,110.5C177.998,111.893 179.527,111.485 180.715,111.478C191.434,111.431 202.16,111.37 212.879,111.241C217.064,111.186 218.87,112.81 218.918,117.055C218.959,120.329 218.945,123.604 218.925,126.878C218.898,131.768 217.519,133.181 212.73,133.209C207.425,133.243 202.119,133.222 196.814,133.222Z" fill="#000" stroke="" stroke-width="" stroke-miterlimit=""/>
	</svg>
