<?xml version="1.0" encoding="utf-8"?>
	<svg version="1.1" xmlns="http://www.w3.org/2000/svg" xmlns:xlink="http://www.w3.org/1999/xlink" x="0px" y="0px" width="240.0" height="240.0" xml:space="preserve">
		<path d="M145.764,54.002L197.221,54.013C209.844,54.017 219.927,63.969 219.954,76.575C220.013,105.221 220.018,133.868 219.952,162.514C219.922,175.078 209.784,184.998 197.141,185.007C171.412,185.029 145.684,185.014 119.955,185.014C94.36,185.014 68.764,185.025 43.168,185.01C30.026,185.002 20.04,175.123 20.026,162.041C19.993,133.66 19.99,105.279 20.026,76.898C20.043,64.047 30.066,54.016 42.851,54.012C94.308,53.996 145.764,53.996 197.221,54.013ZM86.034,85.471C86.58,96.967 86.166,108.509 86.166,120.03C86.068,120.03 85.971,120.03 85.873,120.03C85.873,130.765 85.727,141.503 85.918,152.235C86.078,161.291 93.758,168.336 103.234,164.588C107.614,162.856 111.739,160.41 115.828,158.03C122.882,153.922 129.788,149.561 136.812,145.404C144.645,140.767 152.93,136.783 160.298,131.509C167.603,126.28 170.306,120.013 165.505,112.884C164.065,110.746 162.121,108.703 159.952,107.344C150.672,101.531 141.255,95.933 131.825,90.365C123.061,85.191 114.309,79.985 105.381,75.105C96.451,70.224 85.604,76.421 86.034,85.471ZM26.198,141.449C23.937,141.486 22.55,142.619 22.617,145.195C22.719,149.156 22.741,153.124 22.611,157.083C22.517,159.912 23.955,160.836 26.474,160.824C29.248,160.808 32.023,160.82 34.797,160.82L34.797,160.808C37.704,160.808 40.61,160.816 43.516,160.805C45.897,160.796 47.168,159.792 47.098,157.204C46.993,153.243 46.994,149.275 47.101,145.314C47.17,142.802 45.946,141.512 43.629,141.466C37.82,141.353 32.007,141.351 26.198,141.449ZM196.522,141.439C193.988,141.477 192.786,142.881 192.876,145.546C193.007,149.373 193.011,153.212 192.88,157.038C192.783,159.838 194.16,160.832 196.704,160.82C199.479,160.807 202.253,160.817 205.027,160.81C207.934,160.81 210.84,160.818 213.747,160.808C216.1,160.799 217.441,159.87 217.37,157.249C217.264,153.287 217.263,149.32 217.376,145.36C217.448,142.868 216.298,141.521 213.953,141.474C208.144,141.356 202.332,141.352 196.522,141.439ZM197.796,109.028C194.55,109.039 192.943,110.743 192.919,113.944C192.891,117.647 192.894,121.351 192.917,125.054C192.938,128.25 194.524,129.964 197.774,129.992C200.156,130.013 202.536,129.996 204.916,129.998C207.429,129.998 209.943,130.018 212.455,129.992C215.682,129.959 217.315,128.28 217.339,125.076C217.368,121.373 217.364,117.669 217.341,113.966C217.32,110.765 215.708,109.052 212.477,109.031C207.583,108.999 202.689,109.01 197.796,109.028ZM27.522,109.03C24.293,109.049 22.671,110.755 22.649,113.956C22.623,117.659 22.622,121.363 22.649,125.065C22.672,128.268 24.295,129.955 27.524,129.992C29.904,130.019 32.285,129.997 34.666,129.996C37.179,129.996 39.692,130.012 42.205,129.992C45.452,129.968 47.049,128.264 47.07,125.064C47.094,121.36 47.094,117.657 47.07,113.954C47.048,110.753 45.45,109.041 42.202,109.029C37.309,109.009 32.415,109.001 27.522,109.03ZM192.867,82.364C193.053,85.922 193.061,89.505 192.863,93.061C192.678,96.378 194.276,97.644 197.298,97.669C201.525,97.706 205.753,97.72 209.98,97.712C217.118,97.7 217.346,97.561 217.352,90.783L217.352,89.428C217.345,78.751 217.022,78.201 206.798,78.187L205.766,78.187C205.53,78.187 205.288,78.187 205.042,78.188C202.4,78.188 199.756,78.237 197.115,78.175C194.206,78.106 192.7,79.177 192.867,82.364ZM26.179,78.215C23.782,78.217 22.548,79.258 22.617,81.835C22.724,85.795 22.724,89.763 22.615,93.723C22.544,96.245 23.782,97.458 26.099,97.56C28.998,97.687 31.907,97.59 34.813,97.59L34.813,97.602L34.813,97.602C37.718,97.602 40.628,97.698 43.527,97.572C45.8,97.473 47.161,96.367 47.098,93.807C46.999,89.846 46.994,85.879 47.101,81.917C47.17,79.399 46.061,78.225 43.618,78.22C37.805,78.206 31.993,78.208 26.179,78.215Z" fill="#000" stroke="#00000000" stroke-width="1.0" stroke-miterlimit=""/>
	</svg>
