<?xml version="1.0" encoding="utf-8"?>
	<svg version="1.1" xmlns="http://www.w3.org/2000/svg" xmlns:xlink="http://www.w3.org/1999/xlink" x="0px" y="0px" width="240.0" height="240.0" xml:space="preserve">
		<path d="M47.364,84.684C40.528,84.684 35,90.212 35,97.028V148.729C35,155.545 40.547,161.073 47.364,161.073C54.2,161.073 59.727,155.545 59.727,148.729V97.028C59.727,90.212 54.2,84.684 47.364,84.684V84.684ZM64.512,167.128C64.512,174.413 70.431,180.311 77.716,180.311H86.72V207.656C86.72,214.473 92.267,220 99.084,220C105.92,220 111.447,214.473 111.447,207.656V180.311H128.147V207.656C128.147,214.473 133.694,220 140.511,220C147.347,220 152.874,214.473 152.874,207.656V180.311H161.878C169.164,180.311 175.082,174.413 175.082,167.128V87.008H64.512V167.128ZM147.112,38.237L155.745,22.534C156.214,21.714 155.902,20.659 155.062,20.21C154.241,19.76 153.187,20.053 152.737,20.893L144.007,36.753C136.682,33.511 128.479,31.694 119.807,31.694C111.135,31.694 102.931,33.511 95.607,36.734L86.876,20.893C86.427,20.053 85.372,19.76 84.552,20.21C83.712,20.659 83.4,21.714 83.868,22.534L92.502,38.237C75.548,46.988 64.083,63.629 64.083,82.711H175.511C175.531,63.609 164.066,46.988 147.112,38.237V38.237ZM94.455,62.574C91.877,62.574 89.787,60.484 89.787,57.906C89.787,55.328 91.877,53.238 94.455,53.238C97.033,53.238 99.123,55.328 99.123,57.906C99.103,60.484 97.013,62.574 94.455,62.574ZM145.179,62.574C142.6,62.574 140.511,60.484 140.511,57.906C140.511,55.328 142.6,53.238 145.179,53.238C147.757,53.238 149.847,55.328 149.847,57.906C149.827,60.484 147.737,62.574 145.179,62.574ZM192.25,84.684C185.414,84.684 179.887,90.212 179.887,97.028V148.729C179.887,155.545 185.434,161.073 192.25,161.073C199.086,161.073 204.614,155.545 204.614,148.729V97.028C204.614,90.212 199.086,84.684 192.25,84.684Z" fill="#000" stroke="" stroke-width="" stroke-miterlimit=""/>
	</svg>
