<?xml version="1.0" encoding="utf-8"?>
	<svg version="1.1" xmlns="http://www.w3.org/2000/svg" xmlns:xlink="http://www.w3.org/1999/xlink" x="0px" y="0px" width="240.0" height="240.0" xml:space="preserve">
		<path d="M83.646,46.3C82.106,55.029 85.343,61.882 89.16,69.628C93.245,77.933 98.469,83.737 108.894,95.345C108.894,95.345 116.484,103.806 132.111,115.481C135.526,118.026 139.745,121.04 142.089,119.611C144.031,118.428 143.965,114.61 143.406,110.793C140.795,93.046 127.847,75.187 127.802,75.12C104.362,42.795 101.639,28.33 94.094,29.58C87.821,30.607 84.517,41.367 83.646,46.3V46.3Z" fill="#000" stroke="" stroke-width="" stroke-miterlimit=""/>
		<path d="M156.375,149.19C150.236,150.484 143.584,151.199 136.619,151.199C113.223,151.199 93.266,143.185 85.565,131.956C85.319,132.224 85.14,132.425 85.029,132.558C82.819,135.103 80.988,137.782 79.537,140.528C85.922,156.802 108.714,167.673 134.9,165.709C142.691,165.129 150.013,163.454 156.554,160.954C157,157.092 156.978,153.119 156.375,149.19Z" fill="#000" stroke="" stroke-width="" stroke-miterlimit=""/>
		<path d="M203.277,34.223L172.448,39.402L167.916,48.89L167.648,49.448L159.165,37.17L185.664,30.696C187.963,30.138 189.392,27.794 188.833,25.495C188.275,23.195 185.931,21.767 183.632,22.325L144.968,31.701L150.214,39.268L162.179,56.591H164.211H163.195H172.727L178.274,47.104L204.706,42.684C206.782,42.327 208.3,40.541 208.3,38.442C208.3,35.808 205.911,33.777 203.277,34.223ZM149.522,142.493C151.263,142.493 153.004,142.426 154.701,142.314C154.076,140.461 153.317,138.631 152.379,136.867C143.784,120.638 126.305,117.021 125.144,116.798C115.277,114.923 106.638,117.401 99.919,120.906C108.513,133.652 127.488,142.493 149.522,142.493ZM73.867,163.655C73.8,168.075 74.179,172.25 74.76,175.889C84.984,183.702 100.164,188.412 116.996,187.943C129.631,187.586 141.173,184.327 150.281,179.17C152.58,175.464 154.388,171.201 155.527,166.669C146.62,171.245 135.257,174.438 122.689,175.375C102.129,176.938 83.779,172.094 73.867,163.655ZM80.363,194.707C86.591,208.146 96.057,216.361 100.789,220C102.999,216.317 106.66,210.981 112.264,205.668C126.171,192.475 135.837,194.886 145.213,185.622C135.413,192.162 120.814,196.538 104.361,197.007C95.789,197.275 87.641,196.426 80.363,194.707Z" fill="#000" stroke="" stroke-width="" stroke-miterlimit=""/>
		<path d="M141.753,108.762C130.078,105.167 121.729,96.394 119.496,86.684C118.537,87.777 117.644,88.938 116.907,90.233C109.786,102.556 115.969,119.455 130.703,127.96C145.436,136.465 163.161,133.362 170.283,121.04C173.43,115.593 173.966,109.275 172.336,103.158C164.992,109.766 153.317,112.311 141.753,108.762Z" fill="#000" stroke="" stroke-width="" stroke-miterlimit=""/>
		<path d="M138.158,52.64C130.099,63.021 131.417,77.553 145.748,88.693C160.08,99.832 185.975,98.247 190.083,92.979C194.168,87.71 189.302,62.217 174.97,51.077C160.638,39.938 146.239,42.26 138.158,52.64ZM167.02,82.5C163.622,81.692 159.865,79.622 156.576,76.746C154.948,75.321 153.483,73.742 152.266,72.098C151.048,70.453 150.102,68.776 149.482,67.162C148.861,65.548 148.578,64.028 148.648,62.69C148.719,61.352 149.141,60.222 149.892,59.363C150.643,58.505 151.707,57.935 153.024,57.687C154.34,57.439 155.884,57.518 157.566,57.918C159.249,58.318 161.037,59.032 162.829,60.019C164.621,61.007 166.381,62.248 168.01,63.672C171.299,66.549 173.851,69.996 175.104,73.256C176.358,76.516 176.21,79.321 174.694,81.055C173.178,82.788 170.417,83.308 167.02,82.5Z" fill="#000" stroke="" stroke-width="" stroke-miterlimit=""/>
		<path d="M37.907,20.807C35.63,22.235 34.492,25.338 33.443,28.263C32.885,29.781 30.496,36.768 33.443,47.64C38.332,65.655 53.601,78.357 54.315,78.937C64.517,87.242 72.152,88.715 115.437,101.305C126.443,104.498 135.35,107.154 140.775,108.762C143.141,108.27 144.927,106.462 145.239,104.297C145.619,101.841 143.967,100.055 143.744,99.832C131.086,86.46 79.652,46.144 79.652,46.144C58.646,30.718 44.917,16.409 37.907,20.807Z" fill="#000" stroke="" stroke-width="" stroke-miterlimit=""/>
	</svg>
