<?xml version="1.0" encoding="utf-8"?>
	<svg version="1.1" xmlns="http://www.w3.org/2000/svg" xmlns:xlink="http://www.w3.org/1999/xlink" x="0px" y="0px" width="240.0" height="240.0" xml:space="preserve">
		<path d="M0,118.227C0.683,118.215 1.365,118.186 2.048,118.186C24.639,118.184 47.228,118.184 69.82,118.184C71.716,118.184 71.716,118.181 71.716,116.295C71.716,112.29 71.716,108.287 71.713,104.281C71.711,102.374 71.708,102.369 69.82,102.369C46.546,102.369 23.271,102.369 0,102.369C0,101.261 0,100.155 0,99.046C0.554,99.031 1.109,99.003 1.665,99.003C25.371,99 49.076,99 72.783,99C74.916,99 74.918,99.003 74.918,101.076C74.916,107.255 74.916,113.434 74.911,119.613C74.908,121.53 74.906,121.538 72.999,121.538C50.574,121.54 28.15,121.538 5.725,121.538C5.299,121.538 4.868,121.571 4.444,121.532C3.431,121.445 3.113,121.91 3.12,122.887C3.151,127.191 3.131,131.494 3.125,135.8C3.125,136.908 3.054,138.022 3.141,139.123C3.241,140.383 2.71,140.832 1.509,140.714C0.998,140.665 0.482,140.691 0.003,140.472C0,133.059 0,125.643 0,118.227Z" fill="#000" stroke="" stroke-width="" stroke-miterlimit=""/>
		<path d="M202.548,99C214.339,99 226.13,99 237.921,99C239.997,99 240,99.003 240,101.007C240,107.186 239.997,113.367 239.995,119.546C239.995,121.515 239.977,121.538 237.988,121.538C215.517,121.54 193.046,121.54 170.573,121.54C170.103,121.54 169.634,121.548 169.164,121.55C168.538,121.553 168.227,121.848 168.227,122.49C168.23,127.134 168.225,131.781 168.217,136.426C168.217,137.062 168.502,137.373 169.144,137.362C169.569,137.357 169.998,137.37 170.424,137.37C193.023,137.37 215.622,137.37 238.224,137.373C239.933,137.373 239.995,137.439 239.984,139.059C239.977,140.593 239.864,140.706 238.142,140.709C214.388,140.711 190.637,140.711 166.883,140.709C165.105,140.709 165.043,140.637 165.04,138.805C165.035,132.538 165.03,126.275 165.03,120.008C165.03,118.194 165.035,118.189 166.909,118.189C189.551,118.186 212.194,118.189 234.837,118.186C236.8,118.186 236.803,118.184 236.803,116.236C236.803,112.231 236.803,108.222 236.797,104.217C236.795,102.377 236.792,102.372 234.968,102.372C212.71,102.372 190.452,102.372 168.194,102.372C167.809,102.372 167.424,102.372 167.039,102.372C165.102,102.367 164.522,101.556 165.056,99.657C165.187,99.195 165.477,99.046 165.89,99.026C166.316,99.005 166.744,99.003 167.17,99.003C178.966,99 190.757,99 202.548,99Z" fill="#000" stroke="" stroke-width="" stroke-miterlimit=""/>
		<path d="M133.549,99C139.913,99 146.279,98.998 152.643,99.003C154.162,99.005 154.306,99.164 154.306,100.696C154.306,102.21 154.167,102.364 152.61,102.364C141.119,102.369 129.628,102.367 118.137,102.369C116.18,102.369 116.177,102.372 116.177,104.348C116.172,115.813 116.169,127.275 116.162,138.741C116.162,140.652 116.113,140.706 114.25,140.706C101.648,140.709 89.046,140.709 76.444,140.706C74.751,140.706 74.004,139.518 74.656,137.919C74.887,137.352 75.367,137.381 75.834,137.378C77.414,137.368 78.995,137.373 80.576,137.373C90.614,137.373 100.652,137.373 110.691,137.373C112.746,137.373 112.749,137.37 112.746,135.376C112.741,123.87 112.736,112.364 112.733,100.858C112.733,99.01 112.738,99.005 114.581,99.005C120.904,99 127.226,99 133.549,99Z" fill="#000" stroke="" stroke-width="" stroke-miterlimit=""/>
		<path d="M214.149,51.892C213.392,52.157 213.663,52.84 213.609,53.351C211.476,73.631 209.363,93.911 207.23,114.192C205.805,127.739 204.346,141.282 202.94,154.83C202.842,155.784 202.577,156.501 201.859,157.16C179.491,177.798 157.137,198.452 134.783,219.106C134.572,219.155 134.36,219.204 134.144,219.258L134.031,219.194C134.257,216.526 134.601,213.862 134.685,211.194C134.97,201.818 134.641,192.442 135.147,183.061C135.633,174.024 135.265,164.968 135.604,155.911C136.017,144.914 135.8,133.897 136.198,122.889C136.478,115.233 135.953,107.553 136.719,99.907C147.874,92.575 159.029,85.238 170.188,77.916C184.685,68.403 199.181,58.904 213.682,49.396C213.835,49.464 213.992,49.484 214.154,49.459C214.149,50.26 214.149,51.076 214.149,51.892Z" fill="#000" stroke="" stroke-width="" stroke-miterlimit=""/>
		<path d="M136.722,99.897C135.956,107.543 136.482,115.224 136.202,122.88C135.799,133.887 136.015,144.904 135.607,155.902C135.268,164.958 135.636,174.015 135.15,183.052C134.649,192.433 134.973,201.809 134.688,211.184C134.605,213.853 134.261,216.516 134.035,219.184C125.273,214.683 116.492,210.212 107.75,205.666C85.057,193.853 62.388,181.99 39.671,170.212C38.261,169.479 37.676,168.639 37.509,167.101C36.182,154.698 34.777,142.3 33.401,129.902C31.641,114.02 29.887,98.138 28.133,82.251C27.337,75.037 26.551,67.823 25.75,60.61C25.676,59.941 25.509,59.283 26.408,59.042C26.693,59.73 27.347,59.922 27.946,60.143C42.831,65.592 57.72,71.012 72.6,76.472C84.654,80.895 96.683,85.391 108.742,89.804C118.059,93.209 127.396,96.536 136.722,99.897Z" fill="#000" stroke="" stroke-width="" stroke-miterlimit=""/>
		<path d="M136.724,99.897C127.397,96.536 118.06,93.214 108.753,89.808C96.694,85.396 84.665,80.904 72.611,76.477C57.726,71.017 42.837,65.592 27.952,60.147C27.353,59.926 26.699,59.735 26.414,59.047C35.009,55.125 43.593,51.174 52.203,47.283C71.151,38.722 90.114,30.206 109.053,21.631C110.478,20.988 111.761,20.894 113.279,21.312C145.795,30.29 178.321,39.214 210.837,48.187C211.81,48.457 212.974,48.413 213.682,49.381C199.186,58.889 184.684,68.388 170.188,77.902C159.028,85.229 147.878,92.565 136.724,99.897Z" fill="#000" stroke="" stroke-width="" stroke-miterlimit=""/>
	</svg>
