<?xml version="1.0" encoding="utf-8"?>
	<svg version="1.1" xmlns="http://www.w3.org/2000/svg" xmlns:xlink="http://www.w3.org/1999/xlink" x="0px" y="0px" width="240.0" height="240.0" xml:space="preserve">
		<path d="M141.307,100.736C136.608,132.809 131.913,164.883 127.207,196.955C126.491,201.83 123.358,204.184 118.51,203.645C104.495,202.086 90.478,200.548 76.46,199.021C71.001,198.427 68.775,195.756 69.548,190.385C72.033,173.122 74.545,155.862 77.139,138.615C77.395,136.917 77.049,136.573 75.397,136.513C59.272,135.922 43.153,135.16 27.027,134.637C21.249,134.449 19.374,131.48 20.177,126.659C22.592,112.151 24.538,97.565 26.688,83.012C27.227,79.357 30.39,77.072 35.337,76.783C40.442,76.486 45.551,76.26 50.659,76.012C66.332,75.252 82.006,74.497 97.679,73.74C97.153,80.027 96.217,86.26 95.136,92.47C94.559,95.783 96.623,98.821 99.951,99.012C107.491,99.444 115.038,99.958 122.586,100.02C128.84,100.072 135.062,100.622 141.307,100.736" fill="#000" stroke="#00000000" stroke-width="1.0" stroke-miterlimit=""/>
		<path d="M98.064,73.543C99.34,64.739 100.578,55.93 101.916,47.135C102.41,43.882 105.597,41.646 110.115,41.344C115.832,40.962 121.556,40.692 127.28,40.41C150.524,39.264 173.77,38.142 197.015,36.988C202.649,36.708 208.279,36.316 213.912,36.02C218.611,35.774 220.535,37.764 219.874,42.345C218.074,54.81 216.187,67.262 214.353,79.722C211.263,100.722 208.185,121.723 205.107,142.725C204.175,149.086 203.318,155.46 202.315,161.81C201.577,166.48 198.329,168.708 193.604,168.175C179.77,166.613 165.934,165.068 152.09,163.603C146.107,162.969 143.902,160.488 144.747,154.602C147.188,137.603 149.664,120.607 152.263,103.632C152.607,101.39 151.999,100.993 149.97,101.027C147.156,101.075 144.336,100.802 141.519,100.665C141.577,97.044 142.492,93.535 142.942,89.964C143.512,85.436 144.347,80.934 144.744,76.393C145.017,73.265 143.199,71.422 140.225,71.498C135.037,71.632 129.851,71.933 124.666,72.19C115.798,72.63 106.931,73.09 98.064,73.543" fill="#000" stroke="#00000000" stroke-width="1.0" stroke-miterlimit=""/>
		<path d="M98.064,73.543C106.931,73.09 115.798,72.63 124.666,72.19C129.851,71.933 135.037,71.632 140.225,71.498C143.199,71.422 145.017,73.265 144.744,76.393C144.347,80.934 143.512,85.436 142.942,89.964C142.492,93.535 141.577,97.044 141.519,100.665C141.518,100.666 141.306,100.736 141.306,100.736C135.063,100.622 128.84,100.072 122.586,100.02C115.038,99.958 107.492,99.445 99.951,99.012C96.623,98.821 94.559,95.783 95.136,92.47C96.217,86.26 97.153,80.027 97.679,73.739C97.782,73.624 97.91,73.559 98.064,73.543" fill="#000" stroke="#00000000" stroke-width="1.0" stroke-miterlimit=""/>
	</svg>
