<svg xmlns="http://www.w3.org/2000/svg" width="192" height="192" fill="none" viewBox="0 0 192 192"><path stroke="#000" stroke-linecap="round" stroke-linejoin="round" stroke-width="12" d="M134.354 162c-33.131-10.578-25.487-56 7.646-56"/><path stroke="#000" stroke-linecap="round" stroke-linejoin="round" stroke-width="6" d="M107.143 61.858 105 64.001h12.439c.112 0 .14-.155.035-.194l-7.173-2.642a3 3 0 0 0-3.158.694Z"/><path stroke="#000" stroke-linecap="round" stroke-linejoin="round" stroke-width="12" d="M54.126 149s14.766-43.064 51.589-43.064h39.944c17.476 0 24.341-20.133 24.341-20.133-5.244-10.436-28.71-18.553-28.71-18.553l-6.241-11.906C130.056 47.281 109.5 39 95.353 39 74 39 70 41.5 70 41.5M46.5 52C29.5 61 22 79.5 22 79.5"/><path stroke="#000" stroke-linecap="round" stroke-linejoin="round" stroke-width="10" d="M69.392 42A12 12 0 1 0 59 60"/></svg>