<svg xmlns="http://www.w3.org/2000/svg" width="192" height="192" fill="none"><path stroke="#000" stroke-linecap="round" stroke-linejoin="round" stroke-width="12" d="M96 30 22 72l35 19.865V102c21-11 39 7 39 7s18-18 39-7V91.865L170 72z"/><path stroke="#000" stroke-linecap="round" stroke-linejoin="round" stroke-width="10" d="M32 106V80"/><path stroke="#000" stroke-linecap="round" stroke-linejoin="round" stroke-width="12" d="m29 121 3-15 3 15zm96-47s-13-6-29-6-29 6-29 6m102.199 22s5.007 22.141-10.014 31.198-33.044 2.013-33.044 2.013 1.001 28.18-22.03 32.205c-23.031 4.026-29.04-14.089-29.04-14.089s-7.009 7.045-18.024 6.038c-11.014-1.007-18.024-11.07-18.024-11.07S34.016 150.346 22 152.359"/></svg>