<svg width="192" height="192" viewBox="0 0 192 192" fill="none" xmlns="http://www.w3.org/2000/svg"><path d="M22 109.982c1.315-18.542 9.75-35.894 23.588-48.523 13.838-12.63 32.038-19.588 50.897-19.457 18.859.13 36.959 7.336 50.616 20.155C160.759 74.976 168.947 92.441 170 111M45.839 64.323l29.798 6.089m71.518-6.089-29.8 6.089" stroke="#000" stroke-width="12" stroke-linecap="round"/><path d="m53.933 134.826 4.238.592 6.564 1.181a26.763 26.763 0 0 1 10.415 4.281l3.269 2.245 5.18 3.853.49.334c3.404 2.322 6.536 4.514 11.813 4.514 5.277 0 9.471-2.192 12.875-4.514l.49-.334 5.18-3.853 3.269-2.245a26.769 26.769 0 0 1 10.415-4.281l6.564-1.181 4.238-.592" stroke="#000" stroke-width="10" stroke-linecap="round"/><path d="m51.933 126.826 5.428-3.391a23.344 23.344 0 0 0 8.54-9.408l1.05-2.115a36.432 36.432 0 0 1 4.36-6.785l1.081-1.329a34.292 34.292 0 0 1 3.943-4.104l1.577-1.39a21.932 21.932 0 0 1 6.054-3.78 22.15 22.15 0 0 1 8.496-1.698h6.941c2.919 0 5.808.578 8.496 1.698 2.216.922 4.261 2.2 6.054 3.78l1.578 1.39a34.346 34.346 0 0 1 3.943 4.104l1.079 1.329a36.284 36.284 0 0 1 4.362 6.785l1.049 2.115a23.172 23.172 0 0 0 4.848 6.554 23.354 23.354 0 0 0 3.693 2.854l5.428 3.391" stroke="#000" stroke-width="12" stroke-linecap="round"/><path d="m85 117.5 4 3.5m18-3.5-4 3.5" stroke="#000" stroke-width="6" stroke-linecap="round"/></svg>