<svg xmlns="http://www.w3.org/2000/svg" width="192" height="192" fill="none" stroke="#000" stroke-linecap="round" stroke-width="12" viewBox="0 0 192 192"><path fill="#000" stroke="none" d="M127 68a9 9 0 0 1-9 9 9 9 0 0 1-9-9 9 9 0 0 1 9-9 9 9 0 0 1 9 9zm-44 0a9 9 0 0 1-9 9 9 9 0 0 1-9-9 9 9 0 0 1 9-9 9 9 0 0 1 9 9z"/><path d="m142.1 22-18.45 18.5M49.86 22l18.45 18.5M145 82v39a49 49 0 0 1-49 49 49 49 0 0 1-49-49V82a49 49 0 0 1 49-49 49 49 0 0 1 49 49zm-98 9h98"/><path d="M104.125 113.813A8.125 8.125 0 0 1 96 121.938a8.125 8.125 0 0 1-8.125-8.125A8.125 8.125 0 0 1 96 105.688a8.125 8.125 0 0 1 8.125 8.125zM114 152l-13-30.687m-21 30.688 11-30.688m-5.982 20.449s13.517 3.888 21.308-2.085c7.79-5.972 12.043-13.201 12.043-13.201"/></svg>