<?xml version="1.0" encoding="utf-8"?>
<svg
	version="1.1"
	xmlns="http://www.w3.org/2000/svg"
	xmlns:xlink="http://www.w3.org/1999/xlink"
	x="0%" y="0%"
	width="100%" height="100%"
	viewBox="0 0 24.0 24.0"
	enable-background="new 0 0 24.0 24.0"
	xml:space="preserve">
	<path
		fill="#000000"
		stroke="#000000"
		fill-opacity="1.000"
		stroke-opacity="1.000"
		fill-rule="nonzero"
		stroke-width="0.027968206"
		stroke-linejoin="miter"
		stroke-linecap="square"
		d="M17.19,13.81C19.09,13.81,20.63,15.35,20.63,17.25C20.63,19.15,19.09,20.68,17.19,20.68C15.30,20.68,13.76,19.15,13.76,17.25C13.76,15.35,15.30,13.81,17.19,13.81zM17.19,15.36C16.15,15.36,15.30,16.20,15.30,17.25C15.30,18.29,16.15,19.14,17.19,19.14C18.24,19.14,19.09,18.29,19.09,17.25C19.09,16.20,18.24,15.36,17.19,15.36z"/>
	<path
		fill="#000000"
		stroke="#000000"
		fill-opacity="1.000"
		stroke-opacity="1.000"
		fill-rule="nonzero"
		stroke-width="0.027968206"
		stroke-linejoin="miter"
		stroke-linecap="square"
		d="M9.73,8.67C10.35,8.67,10.85,9.17,10.85,9.79C10.85,10.40,10.35,10.91,9.73,10.91C9.11,10.91,8.61,10.40,8.61,9.79C8.61,9.17,9.11,8.67,9.73,8.67z"/>
	<path
		fill="#000000"
		stroke="#000000"
		fill-opacity="1.000"
		stroke-opacity="1.000"
		fill-rule="nonzero"
		stroke-width="0.027968206"
		stroke-linejoin="miter"
		stroke-linecap="square"
		d="M10.33,10.13L15.26,14.75L14.90,15.13L9.97,10.52z"/>
	<path
		fill="#000000"
		stroke="#000000"
		fill-opacity="1.000"
		stroke-opacity="1.000"
		fill-rule="nonzero"
		stroke-width="0.027968206"
		stroke-linejoin="miter"
		stroke-linecap="square"
		d="M12.20,21.02L5.25,21.02C4.02,21.02,2.96,20.06,2.96,18.71L2.96,5.19C2.96,3.86,4.01,2.94,5.25,2.94L18.81,2.94C19.96,2.94,20.99,3.72,20.99,4.93L20.99,12.14C20.99,13.46,18.81,13.46,18.81,12.14L18.81,5.19L5.25,5.19L5.25,18.71L12.20,18.71C13.55,18.71,13.55,21.02,12.20,21.02z"/>
</svg>