<svg width="192" height="192" viewBox="0 0 192 192" fill="none" xmlns="http://www.w3.org/2000/svg"><path d="M167 98V37c0-6.627-5.373-12-12-12H37.001c-6.627 0-12 5.373-12 12v118c0 6.628 5.373 12 12 12H98m27-42L80.999 81" stroke="#000" stroke-width="12" stroke-linecap="round" stroke-linejoin="round"/><path d="M143 167c13.255 0 24-10.745 24-24s-10.745-24-24-24-24 10.745-24 24 10.745 24 24 24ZM77.998 83.996a5.998 5.998 0 1 0 0-11.996 5.998 5.998 0 0 0 0 11.996Z" stroke="#000" stroke-width="12" stroke-linecap="round" stroke-linejoin="round"/></svg>