<svg width="192" height="192" viewBox="0 0 192 192" fill="none" xmlns="http://www.w3.org/2000/svg"><circle cx="77" cy="58" r="4" stroke="#000" stroke-width="8" stroke-linecap="round" stroke-linejoin="round"/><circle cx="115" cy="58" r="4" stroke="#000" stroke-width="8" stroke-linecap="round" stroke-linejoin="round"/><circle cx="96" cy="106" r="5" stroke="#000" stroke-width="10" stroke-linecap="round" stroke-linejoin="round"/><path d="M151 77a55 55 0 0 0-110 0m0 38a55.001 55.001 0 0 0 76.048 50.813 55.008 55.008 0 0 0 29.765-29.765A55.002 55.002 0 0 0 151 115" stroke="#000" stroke-width="12" stroke-linecap="round" stroke-linejoin="round"/><path d="M81.5 131.115a29.003 29.003 0 0 0 39.615-10.615A29.003 29.003 0 0 0 125 106" stroke="#000" stroke-width="10" stroke-linecap="round" stroke-linejoin="round"/><path d="M41 77v38" stroke="#000" stroke-width="12" stroke-linecap="round" stroke-linejoin="round"/><path d="M151 83H41" stroke="#000" stroke-width="10" stroke-linecap="round" stroke-linejoin="round"/><path d="m148 22-14 14" stroke="#000" stroke-width="12" stroke-linecap="round" stroke-linejoin="round"/><path d="m95 106-20 36m22-36 20 36" stroke="#000" stroke-width="10" stroke-linecap="round" stroke-linejoin="round"/><path d="m44 22 14 14m93 41v38" stroke="#000" stroke-width="12" stroke-linecap="round" stroke-linejoin="round"/></svg>