<svg xmlns="http://www.w3.org/2000/svg" width="192" height="192" fill="none"><path stroke="#000" stroke-linecap="round" stroke-linejoin="round" stroke-width="12" d="M22 97h40M46 67h20m16-28h16l-11 82h73m-67.756 30.244c-2.787 2.787-6.499 3.594-8.29 1.802-1.792-1.791-.985-5.503 1.802-8.29s6.499-3.594 8.29-1.802c1.792 1.791.985 5.503-1.802 8.29m58 0c-2.787 2.787-6.499 3.594-8.29 1.802-1.792-1.791-.985-5.503 1.802-8.29s6.499-3.594 8.29-1.802c1.792 1.791.985 5.503-1.802 8.29"/><path stroke="#000" stroke-linecap="round" stroke-linejoin="round" stroke-width="12" d="M98 55h72l-6 42H92"/></svg>