<svg xmlns="http://www.w3.org/2000/svg" xmlns:android="http://schemas.android.com/apk/res/android" android:name="vector" width="24" height="24"><path android:name="path" fill-rule="evenOdd" d="M5.906 18.719h12.188a3.907 3.907 0 0 0 .625-7.763v-.987a4.688 4.688 0 0 0-9.188-1.317 2.5 2.5 0 0 0-4.25 1.785v.519a3.907 3.907 0 0 0 .625 7.763ZM11.844 9.5c0-.173.14-.312.312-.312h.938c.172 0 .312.139.312.312v1.875h.896c.264 0 .409.309.24.513l-1.677 2.011a.312.312 0 0 1-.48 0l-1.677-2.011a.313.313 0 0 1 .24-.513h.896ZM9.5 13.562h1.994l.531.638a.782.782 0 0 0 1.2 0l.531-.638h1.994c.345 0 .625.28.625.625v1.25c0 .346-.28.625-.625.625H9.5a.625.625 0 0 1-.625-.625v-1.25c0-.345.28-.625.625-.625Zm6.25 1.563a.312.312 0 1 1-.625 0 .313.313 0 1 1 .625 0Zm-1.406.312a.312.312 0 1 0 0-.625.313.313 0 1 0 0 .625Z"/></svg>