<svg xmlns="http://www.w3.org/2000/svg" width="192" height="192" viewBox="0 0 192 192"><path fill="none" stroke="#000" stroke-linecap="round" stroke-linejoin="round" stroke-width="12" d="M45.9 88.2c0 1.2-.7 2.1-1.9 2.3-13.2 2.9-22.5 14.8-22 28 .3 7.4 3.8 14.4 9.3 19.4 5.8 5.2 12.8 7 20.4 6.9 10-.1 20.2 0 30.4 0h58.3c8.7 0 16.1-2.3 22.1-8.8 5.4-5.8 8.4-14 7.3-21.9-1.4-10.5-9.5-19.6-20.4-22.6-1.2-.3-1.9-1.5-1.7-2.5.6-4.5 1.2-14.2-4.5-23.9-8.3-14-22.7-16.9-25-17.3-12.9-2.3-22.6 3-25 4.3-9.4 5.5-13.8 13.5-15.7 18-.5 1.4-2.1 1.9-3.4 1.2-5.4-3.3-12.1-3.7-17.7-1.2-6.6 3-10.8 10.3-10.5 18.1m55.8-7.7v29.3L114 97.5l-12.3 12.3-12.3-12.3m-5.2 27.7h35"/></svg>