<?xml version="1.0" encoding="utf-8"?>
<!-- Generator: Adobe Illustrator 25.4.1, SVG Export Plug-In . SVG Version: 6.00 Build 0)  -->
<svg version="1.1" id="Layer_1" xmlns="http://www.w3.org/2000/svg" xmlns:xlink="http://www.w3.org/1999/xlink" x="0px" y="0px"
	 width="192px" height="192px" viewBox="0 0 192 192" style="enable-background:new 0 0 192 192;" xml:space="preserve">
<style type="text/css">
	.st0{fill:none;stroke:#000000;stroke-width:12;stroke-linecap:round;stroke-linejoin:round;stroke-miterlimit:10;}
</style>
<image style="display:none;overflow:visible;enable-background:new    ;" width="512" height="512" xlink:href="../Downloads/unnamed.png"  transform="matrix(0.4202 0 0 0.4202 -15.6341 7.6596)">
</image>
<path class="st0" d="M45.9,88.2c0,1.2-0.7,2.1-1.9,2.3c-13.2,2.9-22.5,14.8-22,28c0.3,7.4,3.8,14.4,9.3,19.4
	c5.8,5.2,12.8,7,20.4,6.9c10-0.1,20.2,0,30.4,0c12.6,0,25.2,0,37.8,0c6.8,0,14,0,20.5,0c8.7,0,16.1-2.3,22.1-8.8
	c5.4-5.8,8.4-14,7.3-21.9c-1.4-10.5-9.5-19.6-20.4-22.6c-1.2-0.3-1.9-1.5-1.7-2.5c0.6-4.5,1.2-14.2-4.5-23.9
	c-8.3-14-22.7-16.9-25-17.3c-12.9-2.3-22.6,3-25,4.3c-9.4,5.5-13.8,13.5-15.7,18c-0.5,1.4-2.1,1.9-3.4,1.2
	C68.7,68,62,67.6,56.4,70.1C49.8,73.1,45.6,80.4,45.9,88.2z M101.7,77 M101.7,80.5v29.3L114,97.5l-12.3,12.3L89.4,97.5 M84.2,125.2
	h35"/>
</svg>
