<?xml version="1.0" encoding="utf-8"?>
<!-- Generator: Adobe Illustrator 25.4.1, SVG Export Plug-In . SVG Version: 6.00 Build 0)  -->
<svg version="1.1" id="Layer_1" xmlns="http://www.w3.org/2000/svg" xmlns:xlink="http://www.w3.org/1999/xlink" x="0px" y="0px"
	 width="192px" height="192px" viewBox="0 0 192 192" style="enable-background:new 0 0 192 192;" xml:space="preserve">
<style type="text/css">
	.st0{fill:none;stroke:#000000;stroke-width:12;stroke-linecap:round;stroke-linejoin:round;stroke-miterlimit:10;}
</style>
<path class="st0" d="M44.7,100.3c0,1.1-0.7,2-1.8,2.2c-12.5,2.7-21.4,14.1-20.9,26.6c0.3,7,3.6,13.7,8.8,18.4
	c5.5,4.9,12.1,6.6,19.4,6.5c9.5-0.1,19.2,0,28.8,0c11.9,0,23.9,0,35.8,0c6.4,0,13.3,0,19.5,0c8.2,0,15.3-2.2,21-8.3
	c5.1-5.5,7.9-13.3,6.9-20.8c-1.3-9.9-9-18.6-19.4-21.5c-1.1-0.3-1.8-1.4-1.6-2.4c0.6-4.3,1.1-13.5-4.3-22.7
	c-7.8-13.3-21.6-16.1-23.7-16.5C101,59.7,91.8,64.7,89.6,66c-8.9,5.2-13.1,12.8-14.9,17.1c-0.5,1.3-2,1.8-3.2,1.1
	c-5.1-3.1-11.4-3.5-16.8-1.1C48.4,86.1,44.4,93,44.7,100.3z M154.9,38v30.1 M139.9,53.1H170 M97.6,93v27.9l11.8-11.7l-11.8,11.7
	L86,109.2 M81.6,135.5h32"/>
</svg>
