<svg width="192" height="192" fill="none" xmlns="http://www.w3.org/2000/svg"><path d="M62.808 152.103a6 6 0 0 1 11.384 3.794l-5 15a6 6 0 0 1-11.384-3.794l5-15Zm50.795-3.795a6 6 0 0 1 7.589 3.795l5 15a6 6 0 1 1-11.384 3.794l-5-15a6 6 0 0 1 3.795-7.589ZM69.5 127c0-2.843-.75-5.002-2.716-6.641-1.698-1.415-4.893-2.941-10.784-3.566V128h13.585a6.031 6.031 0 0 1-.085-1ZM130 37a6 6 0 1 1 0 12H60v35h50.5a6 6 0 1 1 0 12H54a6 6 0 0 1-6-6V43l.008-.309A6 6 0 0 1 54 37h76Zm4-20a6 6 0 1 1 0 12H50a6 6 0 0 1 0-12h84ZM81.5 127c0 .341-.03.675-.085 1h21.17a5.989 5.989 0 0 1-.085-1c0-2.845.445-6.019 1.856-9.116a18.903 18.903 0 0 1 2.179-3.63 6 6 0 0 1 9.525 7.3 6.7 6.7 0 0 0-.784 1.305c-.518 1.138-.776 2.514-.776 4.141 0 .341-.03.675-.085 1H134a6 6 0 1 1 0 12H50a6 6 0 0 1-6-6v-23.5a6 6 0 0 1 6-6c11.14 0 19.17 2.227 24.466 6.641C80 115.752 81.5 121.843 81.5 127Z" fill="#000"/><path d="M137.75 57a5 5 0 0 1 3.875 1.84l4.875 5.98 4.875-5.98.184-.212A4.998 4.998 0 0 1 155.25 57H164a5 5 0 0 1 5 5v53a5 5 0 0 1-5 5h-8.75a5 5 0 0 1-3.875-1.841l-4.875-5.979-4.875 5.979A5 5 0 0 1 137.75 120H129a4.999 4.999 0 0 1-5-5V62a5 5 0 0 1 5-5h8.75ZM134 110h1.376l7.249-8.892.184-.212a4.999 4.999 0 0 1 7.566.212l7.249 8.892H159V67h-1.376l-7.249 8.892a5 5 0 0 1-7.75 0L135.376 67H134v43Z" fill="#000"/></svg>