<svg width="192" height="192" fill="none" xmlns="http://www.w3.org/2000/svg"><path d="M73 155.002 67.685 170M54 79.93h80a6 6 0 0 0 6-6V35.02a6 6 0 0 0-6-6h-5M54 79.93V35.02a6 6 0 0 1 6-6h5M54 79.93v48.596a6 6 0 0 0 6 6h44M65 29.02l1.382-4.076c.468-1.38 1.406-2.666 2.847-2.88.29-.042.584-.064.879-.064h53.784c.295 0 .589.022.879.065 1.441.213 2.379 1.5 2.847 2.879L129 29.02m-64 0h64M74.5 114h16" stroke="#000" stroke-width="12" stroke-linecap="round" stroke-linejoin="round"/><path d="m135.347 105.611-5.434-5.426a4.051 4.051 0 0 0-6.913 2.866v58.898a4.051 4.051 0 0 0 6.913 2.866l5.434-5.426a8 8 0 0 1 11.306 0l5.434 5.426a4.051 4.051 0 0 0 6.913-2.866v-58.898a4.051 4.051 0 0 0-6.913-2.866l-5.434 5.426a8 8 0 0 1-11.306 0Z" stroke="#000" stroke-width="10" stroke-linecap="round" stroke-linejoin="round"/></svg>