<svg xmlns="http://www.w3.org/2000/svg" width="192" height="192" fill="none"><path stroke="#000" stroke-linejoin="round" stroke-width="12" d="M72.088 81.16C57.215 93.167 38.366 94.35 29.986 83.8s-3.117-28.836 11.756-40.844c14.872-12.008 33.722-13.191 42.101-2.642 8.38 10.55 3.117 28.836-11.755 40.844Zm82.17-1.117c-14.872 12.008-33.722 13.191-42.101 2.642-8.38-10.55-3.117-28.836 11.755-40.844s33.722-13.191 42.102-2.642 3.117 28.835-11.756 40.844Z"/><path stroke="#000" stroke-linecap="round" stroke-linejoin="round" stroke-width="12" d="M22 126s44 79 132-7m0 0h-40m40 0-7 39"/></svg>