<svg width="192" height="192" fill="none" xmlns="http://www.w3.org/2000/svg"><path d="M104 22c-10.112 0-20.125 1.474-29.467 4.339-9.342 2.864-17.83 7.063-24.98 12.356-7.15 5.293-12.822 11.577-16.692 18.492C28.991 64.103 27 71.515 27 79m137 3a60.005 60.005 0 0 0-17.574-42.426A59.989 59.989 0 0 0 104 22m60 60.004v50.065c0 30.131-25.85 36.732-31.792 37.852-.805.151-1.613.078-2.398-.154l-80.956-23.95c-3.841-1.137-7.348-3.234-9.405-6.676C34.735 131.254 27 113.114 27 79" stroke="#000" stroke-width="12" stroke-linecap="round" stroke-linejoin="round"/><path d="M164 82H83.706c-9.641 0-15.255 10.778-8.84 17.975C98.066 126 116.533 126 135 126h29" stroke="#000" stroke-width="12" stroke-linecap="round" stroke-linejoin="round"/></svg>