<svg width="192" height="192" viewBox="0 0 192 192" fill="none" xmlns="http://www.w3.org/2000/svg"><path d="M56 62c-22 23 5 45 5 45m75-45c22 23-5 45-5 45M73 71c-10 13 2 24 2 24m44-24c10 13-2 24-2 24" stroke="#000" stroke-width="10" stroke-linecap="round" stroke-linejoin="round"/><path d="M112 125v26.586c32.662-27.168 58-48.004 58-69.586m-90 43v26.586C47.338 124.418 22 103.582 22 82m0 0c0-25 24-41 42-41 16 0 24 7 32 14m74 27c0-25-24-41-42-41-16 0-24 7-32 14" stroke="#000" stroke-width="12" stroke-linecap="round" stroke-linejoin="round"/><circle cx="96" cy="82" r="5" stroke="#000" stroke-width="10" stroke-linecap="round" stroke-linejoin="round"/><path d="M112 125a16.002 16.002 0 0 0-27.314-11.314A16.007 16.007 0 0 0 80 125" stroke="#000" stroke-width="12" stroke-linecap="round" stroke-linejoin="round"/></svg>