<svg width="192" height="192" viewBox="0 0 192 192" fill="none" xmlns="http://www.w3.org/2000/svg"><path d="M100.962 67.602a39.663 39.663 0 0 0-11.564-28.003A39.42 39.42 0 0 0 61.481 28a39.42 39.42 0 0 0-27.917 11.599A39.663 39.663 0 0 0 22 67.602c0 48.164 61.889 50.304 78.962 97.398 12.73-35.116 50.71-45.654 69.038-68.5m-69.038-28.898v22.476c0 3.547 2.866 6.422 6.402 6.422H170m-69.038-28.898a39.693 39.693 0 0 1 5.772-20.617 39.607 39.607 0 0 1 5.839-7.434L170 96.5" stroke="#000" stroke-width="12" stroke-linecap="round" stroke-linejoin="round"/></svg>