<svg xmlns="http://www.w3.org/2000/svg" xml:space="preserve" width="192" height="192" fill="none"><ellipse cx="67.567" cy="67.91" stroke="#000" stroke-linecap="round" stroke-linejoin="round" stroke-width="12" rx="15.534" ry="15.535"/><path stroke="#000" stroke-linecap="round" stroke-linejoin="round" stroke-width="10" d="M27.178 144.8s24.337-25.107 39.354-25.107c12.945 0 12.427 10.357 24.854 10.357 16.052 0 36.764-30.035 49.71-32.624s18.64 8.803 18.64 8.803"/><path stroke="#000" stroke-linecap="round" stroke-linejoin="round" stroke-width="12" d="M120.383 28.554H55.14C36.837 28.554 22 43.392 22 61.696v73.532c0 18.303 14.837 33.141 33.14 33.141h70.421c18.303 0 33.14-14.838 33.14-33.14V79.301"/><path fill="#f0f" d="M122.315 56.601v8.825c0 1.513.526 2.797 1.557 3.805 1.03 1.032 2.313 1.536 3.847 1.536h8.931a5.5 5.5 0 0 0 2.107-.39 5.25 5.25 0 0 0 1.809-1.214l28.144-27.805c.801-.802 1.397-1.72 1.74-2.75.367-1.032.55-2.018.55-3.004 0-.985-.206-1.97-.618-2.934a9.1 9.1 0 0 0-1.672-2.681l-5.015-4.952a8.4 8.4 0 0 0-2.702-1.81 8.5 8.5 0 0 0-3.115-.597c-.984 0-1.97.184-2.977.528-.984.366-1.878.94-2.702 1.742l-28.258 27.827a5.05 5.05 0 0 0-1.214 1.811 5.4 5.4 0 0 0-.412 2.063" style="fill:none;stroke:#000;stroke-width:10;stroke-linecap:round;stroke-linejoin:round;stroke-dasharray:none;stroke-opacity:1"/><path d="m156.148 27.118 10.735 11.473" style="fill:none;stroke:#000;stroke-width:8;stroke-linecap:round;stroke-linejoin:round;stroke-dasharray:none;stroke-opacity:1"/></svg>