<?xml version="1.0" encoding="UTF-8" standalone="no"?>
<svg
   width="192"
   height="192"
   fill="none"
   viewBox="0 0 192 192"
   version="1.1"
   id="svg2"
   xml:space="preserve"
   xmlns="http://www.w3.org/2000/svg"
   xmlns:svg="http://www.w3.org/2000/svg"><defs
     id="defs2" /><ellipse
     cx="67.567131"
     cy="67.909554"
     stroke="#000000"
     stroke-linecap="round"
     stroke-linejoin="round"
     stroke-width="12"
     id="circle1"
     rx="15.534192"
     ry="15.535043" /><path
     stroke="#000000"
     stroke-linecap="round"
     stroke-linejoin="round"
     stroke-width="10"
     d="m 27.178234,144.80077 c 0,0 24.336901,-25.10774 39.353286,-25.10774 12.94516,0 12.427354,10.3567 24.854707,10.3567 16.052003,0 36.764253,-30.03442 49.709413,-32.623598 12.94516,-2.589174 18.64103,8.803198 18.64103,8.803198"
     id="path1" /><path
     stroke="#000000"
     stroke-linecap="round"
     stroke-linejoin="round"
     stroke-width="12"
     d="M 120.38339,28.55411 H 55.139779 c -18.302385,0 -33.139609,14.838038 -33.139609,33.141425 v 73.532535 c 0,18.30339 14.837224,33.14143 33.139609,33.14143 h 70.421671 c 18.30239,0 33.13961,-14.83804 33.13961,-33.14143 V 79.301916"
     id="path2" /><path
     fill="#ff00ff"
     fill-rule="evenodd"
     d="m 122.31476,56.601286 v 8.825069 c 0,1.512869 0.52672,2.796515 1.5572,3.805094 1.03049,1.031501 2.31288,1.535792 3.84717,1.535792 h 8.93094 c 0.7328,0 1.41979,-0.114619 2.10678,-0.389679 0.6641,-0.275067 1.2824,-0.664746 1.80911,-1.214881 l 28.14389,-27.804697 c 0.80149,-0.80228 1.3969,-1.719169 1.74039,-2.750672 0.36639,-1.031501 0.54959,-2.017158 0.54959,-3.002815 0,-0.985656 -0.20609,-1.971312 -0.6183,-2.934047 -0.38929,-0.985657 -0.96178,-1.879627 -1.67168,-2.681905 l -5.01505,-4.951209 c -0.80151,-0.802277 -1.7175,-1.398256 -2.7022,-1.810857 -0.98469,-0.389678 -2.03808,-0.595979 -3.11438,-0.595979 -0.98469,0 -1.96938,0.183378 -2.97697,0.527212 -0.9847,0.366756 -1.87778,0.939812 -2.70218,1.742091 l -28.2584,27.82762 c -0.54962,0.527212 -0.9389,1.123192 -1.2137,1.810857 -0.2748,0.664746 -0.41221,1.352414 -0.41221,2.063006 z"
     id="path1-2"
     style="fill:none;stroke:#000000;stroke-width:10;stroke-linecap:round;stroke-linejoin:round;stroke-dasharray:none;stroke-opacity:1" /><path
     style="fill:none;stroke:#000000;stroke-width:8;stroke-linecap:round;stroke-linejoin:round;stroke-dasharray:none;stroke-opacity:1"
     d="M 156.14786,27.117554 166.8826,38.590997"
     id="path3" /></svg>
