<svg xmlns="http://www.w3.org/2000/svg" width="192" height="192" fill="none" stroke="#000" stroke-linecap="round" stroke-linejoin="round" stroke-width="10" viewBox="0 0 192 192"><circle cx="81" cy="84" r="4" stroke-width="8"/><path d="M51.222 96C51.222 73.067 44 53 44 53s28.889 11.825 52 11.825S148 53 148 53s-7.222 20.067-7.222 43S148 139 148 139s-28.889-11.825-52-11.825S44 139 44 139s7.222-20.067 7.222-43"/><path stroke-width="8" d="m142 109-30-25-39 44m8.5-14L67 101l-17 17"/><path d="m171 86-10 10 10 10m-65 51-10-10-10 10M21 86l10 10-10 10m85-71L96 45 86 35"/></svg>