<svg width="192" height="192" viewBox="0 0 192 192" fill="none" xmlns="http://www.w3.org/2000/svg"><circle cx="65" cy="73" r="14" stroke="#000" stroke-width="10" stroke-linecap="round" stroke-linejoin="round"/><path d="M157 69v96a6 6 0 0 1-6 6H27a6 6 0 0 1-6-6V41a6 6 0 0 1 6-6h96" stroke="#000" stroke-width="10" stroke-linecap="round" stroke-linejoin="round"/><path d="M21 149s31-26 43-26 13 8 25 9 32-31 48-33 20 9 20 9m-34-45V27a6 6 0 0 1 6-6h36a6 6 0 0 1 6 6v36a6 6 0 0 1-6 6h-36a6 6 0 0 1-6-6Z" stroke="#000" stroke-width="10" stroke-linecap="round" stroke-linejoin="round"/><path d="M147 36v18m-8-10 8-8 8 8" stroke="#000" stroke-width="6" stroke-linecap="round" stroke-linejoin="round"/></svg>