<svg width="192" height="192" viewBox="0 0 192 192" fill="none" xmlns="http://www.w3.org/2000/svg"><circle cx="81" cy="86" r="4" stroke="#000" stroke-width="8" stroke-linejoin="round"/><path d="M54.667 96C54.667 74.667 48 56 48 56s26.667 11 48 11 48-11 48-11-6.667 18.667-6.667 40S144 136 144 136s-26.667-11-48-11-48 11-48 11 6.667-18.667 6.667-40Z" stroke="#000" stroke-width="12" stroke-linejoin="round"/><path d="M137.5 105 112 84l-40 44m11.5-14L69 101l-16 17m100-22h19m-19 0 10-10m-10 10 10 10m-67 35v19m0-19 10 10m-10-10-10 10M39 96H20m19 0L29 86m10 10-10 10m67-55V32m0 19 10-10M96 51 86 41" stroke="#000" stroke-width="8" stroke-linecap="round" stroke-linejoin="round"/></svg>