<svg viewBox="0 0 192 192" xmlns="http://www.w3.org/2000/svg" xmlns:xlink="http://www.w3.org/1999/xlink" width="192.000000" height="192.000000" fill="none">
	<rect id="immomo" width="192.000000" height="192.000000" x="0.000000" y="0.000000" />
	<path id="矢量 10" d="M45.6185 47.3636C75.245 17.3414 121.25 14.7018 148.374 41.4679C162.38 55.2901 168.613 74.2516 167.285 93.4924C166.645 102.768 164.248 112.109 160.118 120.969C159.128 123.094 158.038 125.191 156.849 127.253C156.255 128.284 155.635 129.306 154.991 130.318C154.347 131.331 153.678 132.333 152.984 133.325L170 133.325L170 166.289L138.562 166.289L138.562 149.21C136.752 150.758 134.895 152.215 132.997 153.58C129.065 156.407 124.959 158.84 120.736 160.877C111.931 165.124 102.623 167.645 93.357 168.408C74.1355 169.99 55.093 164.01 41.0862 150.188C13.9628 123.422 15.9919 77.3858 45.6185 47.3636Z" stroke="rgb(0,0,0)" stroke-linejoin="round" stroke-width="12" />
	<path id="矢量 10" d="M57.0394 73.7278C56.0267 79.4711 54.1622 90.0451 54.1622 90.0451C53.1495 95.7884 56.9844 101.265 62.7278 102.278C68.4711 103.291 73.9479 99.4557 74.9606 93.7124L77.8378 77.3951C78.8505 71.6517 75.0156 66.1749 69.2722 65.1622C63.5289 64.1495 58.0521 67.9844 57.0394 73.7278Z" stroke="rgb(0,0,0)" stroke-linejoin="round" stroke-width="10" />
	<path id="矢量 11" d="M103.039 73.7278C102.027 79.4711 100.162 90.0451 100.162 90.0451C99.1495 95.7884 102.984 101.265 108.728 102.278C114.471 103.291 119.948 99.4557 120.961 93.7124L123.838 77.3951C124.851 71.6517 121.016 66.1749 115.272 65.1622C109.529 64.1495 104.052 67.9844 103.039 73.7278Z" stroke="rgb(0,0,0)" stroke-linejoin="round" stroke-width="10" />
</svg>
