<svg xmlns="http://www.w3.org/2000/svg" width="192" height="192" fill="none" stroke="#000" stroke-linecap="round" stroke-linejoin="round" stroke-width="12" viewBox="0 0 192 192"><path d="M55 87v26m18-26v26m18-15v15m18-15v15M91 98c0-1.445-.233-2.875-.685-4.21a11.42 11.42 0 0 0-1.951-3.568c-.836-1.022-1.828-1.832-2.92-2.385A7.604 7.604 0 0 0 82 87a7.604 7.604 0 0 0-3.444.837c-1.092.553-2.084 1.363-2.92 2.385a11.42 11.42 0 0 0-1.95 3.569A13.151 13.151 0 0 0 73 98"/><path d="M109 98a13.16 13.16 0 0 0-.685-4.21 11.408 11.408 0 0 0-1.951-3.568c-.836-1.022-1.828-1.832-2.92-2.385A7.603 7.603 0 0 0 100 87a7.604 7.604 0 0 0-3.444.837c-1.092.553-2.084 1.363-2.92 2.385a11.42 11.42 0 0 0-1.95 3.569A13.151 13.151 0 0 0 91 98"/><path d="M96 170c40.869 0 74-33.131 74-74 0-40.87-33.131-74-74-74-40.87 0-74 33.13-74 74 0 14.245 4.025 27.55 11 38.84-1 7-11 21.16-11 21.16 9.88 8.982 25.408.215 28.467-1.663C63.023 164.151 78.828 170 96 170z"/><ellipse cx="137" cy="100" rx="11" ry="13"/><circle cx="55" cy="70" r="3" stroke-width="6"/></svg>