<svg xmlns="http://www.w3.org/2000/svg" width="192" height="192" fill="none" stroke="#000" stroke-linecap="round" stroke-linejoin="round" stroke-width="12" viewBox="0 0 192 192"><path d="M55 87v26m41-89v30m0 0h16M73 87v26m18-15v15m18-15v15M91 98c0-1.445-.233-2.875-.685-4.21a11.4 11.4 0 0 0-1.951-3.568c-.836-1.022-1.828-1.832-2.92-2.385a7.6 7.6 0 0 0-6.888 0c-1.092.553-2.084 1.363-2.92 2.385a11.4 11.4 0 0 0-1.95 3.569A13.2 13.2 0 0 0 73 98"/><path d="M109 98a13.2 13.2 0 0 0-.685-4.21 11.4 11.4 0 0 0-1.951-3.568c-.836-1.022-1.828-1.832-2.92-2.385a7.6 7.6 0 0 0-6.888 0c-1.092.553-2.084 1.363-2.92 2.385a11.4 11.4 0 0 0-1.95 3.569A13.2 13.2 0 0 0 91 98"/><path d="M96 170c40.869 0 74-33.131 74-74s-33.131-74-74-74-74 33.13-74 74c0 14.245 4.025 27.55 11 38.84-1 7-11 21.16-11 21.16 9.88 8.982 25.408.215 28.467-1.663C63.023 164.151 78.828 170 96 170"/><ellipse cx="137" cy="100" rx="11" ry="13"/><circle cx="55" cy="70" r="3" stroke-width="6"/></svg>