<svg width="192" height="192" viewBox="0 0 192 192" fill="none" xmlns="http://www.w3.org/2000/svg"><path d="M145 135v29.999a6 6 0 0 0 6 6h20" stroke="#000" stroke-width="10" stroke-miterlimit="6" stroke-linecap="round" stroke-linejoin="round"/><path d="M125 163.013c-8.889 3.852-18.695 5.987-29 5.987-16.94 0-32.532-5.77-44.918-15.451-3.017 1.852-18.335 10.501-28.082 1.64 0 0 9.865-13.969 10.851-20.874C26.971 123.178 23 110.053 23 96c0-40.317 32.683-73 73-73s73 32.683 73 73c0 10.498-2.216 20.479-6.206 29.5" stroke="#000" stroke-width="14" stroke-linecap="round" stroke-linejoin="round"/></svg>