<svg xmlns="http://www.w3.org/2000/svg" width="192" height="192" fill="none" viewBox="0 0 192 192"><g stroke="#000" stroke-width="3.567"><path stroke-linecap="round" stroke-linejoin="round" d="M160.215 49.148c10.045-9.971 22.232-12.56 27.109-5.763s.59 20.534-9.455 30.506c-2.254 1.901-3.638 3.381-6.123 5m-14.123 4.526c-3.161-.146-5.18-1.328-6.937-3.767-4.8-6.867-.513-20.534 9.529-30.502" transform="matrix(3.36367 0 0 3.36546 -472.558 -111.3)"/><path stroke-linecap="round" stroke-linejoin="round" d="M166.864 43.828c-1.108.813-2.215 1.773-3.323 2.81-8.79 8.713-12.486 20.678-8.126 26.662 1.542 2.048 3.82 3.135 6.511 3.326m7.837-1.528c3.299-1.389 6.738-3.688 9.952-6.822 4.877-4.726 8.126-10.193 9.455-15.288.369-3.766-.148-7.092-1.846-9.603-3.84-5.316-12.113-4.876-20.46.443" transform="matrix(3.36367 0 0 3.36546 -472.558 -111.3)"/><path d="M179.567 44.936v.222c-.074 1.255-.812 2.805-2.141 4.134-1.994 1.92-4.652 2.658-5.763 1.555-1.255-1.182-.513-3.77 1.48-5.837 2.068-1.994 4.726-2.658 5.833-1.477.37.37.591.812.591 1.403m-22.01 38.484c1.993.073 3.621-2.145 4.95-5.099q.276-.63.52-1.245c1.012-2.556 1.64-4.957 2.212-7.25.96-4.208 1.034-7.162.517-7.826-.812-1.038-2.584-.813-4.655.369-1.034.59-2.363.221-.809-1.698 1.625-1.92 7.9-6.502 10.116-7.24 2.514-.665 5.32.295 4.36 3.027-.668 1.994-9.381 24.743-2.88 22.38" transform="matrix(3.36367 0 0 3.36546 -472.558 -111.3)"/></g></svg>