<svg width="199" height="192" fill="none" xmlns="http://www.w3.org/2000/svg"><circle cx="37.509" cy="41.509" r="6.509" fill="#000"/><path transform="matrix(.29087 .95676 -.91675 .39947 38.579 62.316)" stroke="#000" stroke-width="12" stroke-linecap="round" d="M6-6h75.466"/><path transform="matrix(.29087 .95676 -.91675 .39947 84 62.316)" stroke="#000" stroke-width="12" stroke-linecap="round" d="M6-6h75.466"/><path transform="matrix(-.29087 .95676 .91675 .39947 141.981 62.316)" stroke="#000" stroke-width="12" stroke-linecap="round" d="M6-6h75.466"/><path d="M85.818 63.263c.964-3.17 4.208-4.667 7.246-3.344 3.037 1.324 4.72 4.967 3.755 8.138L80.99 120.12c-.574 1.891-3.251 1.891-3.826 0l-4.138-13.613a2.002 2.002 0 0 1 0-1.164l12.793-42.081Zm60.09 94.745c.029.176.044.352.044.528.029.147.044.323.044.528 0 .352-.103.675-.308.968a2.3 2.3 0 0 1-.352.44 2.3 2.3 0 0 1-.528.308 3.608 3.608 0 0 1-2.332.44 3.028 3.028 0 0 1-1.1-.572c-.059-.059-.103-.088-.132-.088a.5.5 0 0 1-.088-.132l-.088-.088a.282.282 0 0 0-.132-.132 3.847 3.847 0 0 1-.352-.396l-.264-.44a1.72 1.72 0 0 0-.22-.396 3.114 3.114 0 0 0-.22-.44 2.91 2.91 0 0 0-.176-.308 1.682 1.682 0 0 1-.132-.352 2.725 2.725 0 0 1-.22-.704l-.924-2.156c-2.024 0-4.048.015-6.072.044-1.995 0-4.004-.015-6.028-.044l-.924 2.156a1.682 1.682 0 0 0-.132.352.777.777 0 0 1-.088.352l-.176.352a2.303 2.303 0 0 1-.132.308l-.264.44a6.319 6.319 0 0 1-.22.396 3.114 3.114 0 0 1-.22.44 3.847 3.847 0 0 1-.352.396.282.282 0 0 0-.132.132l-.088.088a.5.5 0 0 1-.088.132c-.029 0-.073.029-.132.088a3.028 3.028 0 0 1-1.1.572 3.608 3.608 0 0 1-2.332-.44 2.3 2.3 0 0 1-.528-.308 2.3 2.3 0 0 1-.352-.44 1.653 1.653 0 0 1-.308-.968v-.528l.088-.528c.059-.264.132-.528.22-.792l.132-.396 9.152-22.528.264-.704a2.46 2.46 0 0 1 .22-.484c.088-.147.161-.323.22-.528a6.54 6.54 0 0 1 .484-1.012c.088-.176.191-.337.308-.484l.352-.44c.176-.235.425-.425.748-.572.411-.147.88-.22 1.408-.22.557 0 1.041.073 1.452.22.323.147.572.337.748.572.205.264.425.572.66.924.176.293.337.631.484 1.012.059.205.132.381.22.528.088.147.161.308.22.484l.264.704 9.152 22.528.132.396c.088.264.161.528.22.792Zm-10.428-10.78c-.381-.851-.777-1.731-1.188-2.64a73.497 73.497 0 0 0-1.232-2.772l-.352-.792a24.362 24.362 0 0 0-.352-.836c-.088.264-.191.543-.308.836l-.352.792c-.44.939-.865 1.863-1.276 2.772-.381.909-.763 1.789-1.144 2.64l-.792 1.936h7.788l-.792-1.936Zm12.814-14.036c.058-1.056.381-1.907.968-2.552.616-.645 1.481-.821 2.596-.528.528.147.909.367 1.144.66.264.293.44.645.528 1.056.117.381.176.807.176 1.276v7.392c-.03.235-.044.469-.044.704.029.205.044.396.044.572v.572h2.024c.322 0 .601-.015.836-.044 1.613 0 2.992.235 4.136.704 1.173.469 2.112 1.129 2.816 1.98.733.821 1.261 1.819 1.584 2.992.352 1.144.513 2.405.484 3.784-.03 1.643-.294 3.051-.792 4.224-.499 1.173-1.203 2.141-2.112 2.904-.91.763-2.01 1.335-3.3 1.716-1.262.352-2.684.528-4.268.528-1.819 0-3.198-.015-4.136-.044-.939-.029-1.614-.293-2.024-.792-.382-.499-.587-1.364-.616-2.596-.03-1.232-.044-3.036-.044-5.412v-6.776c.029-2.229.029-4.473 0-6.732 0-.293-.015-.601-.044-.924v-2.552c0-.587.014-1.291.044-2.112Zm8.228 23.012c1.613-.088 2.728-.528 3.344-1.32.322-.44.572-.968.748-1.584a5.71 5.71 0 0 0 .22-1.848 5.157 5.157 0 0 0-.396-1.76 3.193 3.193 0 0 0-1.012-1.452c-.411-.352-.822-.601-1.232-.748a3.865 3.865 0 0 0-1.276-.308 7.38 7.38 0 0 0-1.408-.044c-.499 0-1.071.015-1.716.044v5.28l-.088 3.652c.293.029.601.059.924.088a10.1 10.1 0 0 0 1.892 0Zm16.833-11.88v2.772c.03 1.027.044 2.097.044 3.212v3.256c0 1.056-.014 2.039-.044 2.948-.029.44-.073.924-.132 1.452a5.475 5.475 0 0 1-.352 1.408c-.176.44-.454.807-.836 1.1-.352.264-.836.381-1.452.352-.909-.059-1.569-.455-1.98-1.188-.381-.733-.601-1.76-.66-3.08 0-.675-.014-1.452-.044-2.332 0-.88-.014-1.775-.044-2.684v-5.016c0-.411-.014-.909-.044-1.496 0-.587.015-1.188.044-1.804.03-.616.103-1.203.22-1.76.118-.587.308-1.071.572-1.452.206-.235.499-.411.88-.528a3.28 3.28 0 0 1 1.188-.22c.44 0 .851.073 1.232.22.411.147.704.352.88.616.118.176.206.425.264.748.059.323.103.689.132 1.1.059.381.088.792.088 1.232.03.411.044.792.044 1.144Zm-1.672-8.888c-.909.235-1.672.147-2.288-.264-.586-.44-.953-1.085-1.1-1.936-.117-.616-.073-1.159.132-1.628a2.19 2.19 0 0 1 .924-1.056c.411-.264.88-.381 1.408-.352.528.029 1.056.235 1.584.616.499.352.851.763 1.056 1.232.235.469.308.924.22 1.364-.058.44-.249.851-.572 1.232-.322.352-.777.616-1.364.792Z" fill="#000"/></svg>