<svg width="192" height="192" fill="none" xmlns="http://www.w3.org/2000/svg"><path d="m27 22 2.919 12m5.351 22L63 170l7.957-32m79.773-82-5.305 22m-41.836 12L95.27 56h-4.54l-5.064 21" stroke="#000" stroke-width="12" stroke-linecap="round" stroke-linejoin="round"/><path d="m75 93 19 51c15-30 35-55 35-55m10 18s-4 36-10 64" stroke="#000" stroke-width="10" stroke-linecap="round" stroke-linejoin="round"/><path d="M162.116 133.056c-6.846 9.74-16.925 14.477-22.512 10.58-5.587-3.897-4.566-14.952 2.28-24.692s16.925-14.477 22.512-10.58c5.587 3.897 4.566 14.952-2.28 24.692Z" stroke="#000" stroke-width="10" stroke-linecap="round" stroke-linejoin="round"/></svg>