<svg width="140" height="123" fill="none" xmlns="http://www.w3.org/2000/svg"><path stroke="#000" stroke-width="6" stroke-linecap="round" d="m99.845 95.793 8.209 22.553m8.362-22.553-8.209 22.553M126 96v22"/><path d="M125.5 108c3.314 0 11.5 1 11.5-6 0-6.5-8.186-6-11.5-6" stroke="#000" stroke-width="6"/><circle cx="6.509" cy="6.509" r="6.509" fill="#000"/><path transform="matrix(.29087 .95676 -.91675 .39947 7.579 27.316)" stroke="#000" stroke-width="12" stroke-linecap="round" d="M6-6h75.466"/><path transform="matrix(.29087 .95676 -.91675 .39947 53 27.316)" stroke="#000" stroke-width="12" stroke-linecap="round" d="M6-6h75.466"/><path transform="matrix(-.29087 .95676 .91675 .39947 110.981 27.316)" stroke="#000" stroke-width="12" stroke-linecap="round" d="M6-6h75.466"/><path d="M54.818 28.263c.964-3.17 4.208-4.668 7.245-3.344 3.038 1.324 4.72 4.967 3.756 8.138L49.99 85.12c-.574 1.89-3.251 1.89-3.826 0l-4.138-13.613a2 2 0 0 1 0-1.164l12.793-42.081Z" fill="#000"/></svg>