<svg xmlns="http://www.w3.org/2000/svg" width="192" height="192" fill="none"><path stroke="#000" stroke-linecap="round" stroke-linejoin="round" stroke-width="12" d="M144 55.05C123.921 44.066 70.78 33.459 64 61c-6.78 27.542 31.81 38 31.81 38C71.714 59.05 144 55.05 144 55.05m0 0L125 23M40.19 98c.524 22.839 17.845 74.068 44.99 66.183 27.143-7.884 16.942-46.461 16.942-46.461C79.654 158.488 40.191 98 40.191 98Zm0 0L22 130.419M128.982 165c19.576-11.864 55.372-52.471 34.887-72.061S115 101.463 115 101.463c46.697-.89 13.982 63.537 13.982 63.537m0 0 37.299-.428"/></svg>