<?xml version="1.0" encoding="utf-8"?>
<!-- Generator: Adobe Illustrator 16.0.0, SVG Export Plug-In . SVG Version: 6.00 Build 0)  -->
<!DOCTYPE svg PUBLIC "-//W3C//DTD SVG 1.1//EN" "http://www.w3.org/Graphics/SVG/1.1/DTD/svg11.dtd">
<svg version="1.1"
	 id="svg72" inkscape:version="1.2.1 (9c6d41e410, 2022-07-14)" sodipodi:docname="indrive.svg" xmlns:inkscape="http://www.inkscape.org/namespaces/inkscape" xmlns:sodipodi="http://sodipodi.sourceforge.net/DTD/sodipodi-0.dtd" xmlns:svg="http://www.w3.org/2000/svg"
	 xmlns="http://www.w3.org/2000/svg" xmlns:xlink="http://www.w3.org/1999/xlink" x="0px" y="0px" width="192px" height="192px"
	 viewBox="0 0 192 192" enable-background="new 0 0 192 192" xml:space="preserve">
<sodipodi:namedview  id="namedview74" borderopacity="0.25" bordercolor="#000000" pagecolor="#ffffff" inkscape:cy="96" inkscape:cx="96" inkscape:zoom="4.109375" shape-rendering="crispEdges" showgrid="false" showborder="false" inkscape:window-maximized="1" inkscape:pagecheckerboard="0" inkscape:current-layer="svg72" inkscape:window-y="-9" inkscape:window-x="-9" inkscape:window-height="1001" inkscape:window-width="1920" inkscape:deskcolor="#d1d1d1" inkscape:pageopacity="0.0" inkscape:showpageshadow="2">
	</sodipodi:namedview>
<g>
	<path id="path546" fill="none" stroke="#000000" stroke-width="12" stroke-linecap="round" stroke-linejoin="round" d="
		M47.97,77.793H26.982c-2.996,0-4.982,1.985-4.982,4.974v77.801c0,2.988,1.986,4.974,4.982,4.974H47.97
		c2.997,0,4.974-1.985,4.974-4.974V82.767C52.943,79.778,50.966,77.793,47.97,77.793z"/>
	<path id="path543" fill="none" stroke="#000000" stroke-width="12" stroke-linecap="round" stroke-linejoin="round" d="
		M47.97,26.374H26.982c-2.996,0-4.982,1.986-4.982,4.974v20.163c0,2.996,1.986,4.974,4.982,4.974H47.97
		c2.997,0,4.974-1.978,4.974-4.974V31.348C52.943,28.36,50.966,26.374,47.97,26.374z"/>
	<path id="path540" fill="none" stroke="#000000" stroke-width="12" stroke-linecap="round" stroke-linejoin="round" d="
		M98.412,26.374l-16.746,0.109c-2.996,0.017-4.982,1.986-4.982,4.974v20.096c0,2.988,1.995,4.974,4.982,4.974h16.746
		c53.995,0,53.995,78.964,0,78.964H81.666c-2.987,0-4.982,1.986-4.982,4.974v20.096c0,2.987,1.986,4.957,4.982,4.973l16.746,0.11
		c95.45,0,95.45-139.285,0-139.285"/>
</g>
</svg>
