<svg xmlns="http://www.w3.org/2000/svg" width="192" height="192" viewBox="0 0 192 192"><path fill="none" stroke="#000" stroke-linecap="round" stroke-linejoin="round" stroke-width="12" d="M47.97 77.793H26.982c-2.996 0-4.982 1.985-4.982 4.974v77.801c0 2.988 1.986 4.974 4.982 4.974H47.97c2.997 0 4.974-1.985 4.974-4.974V82.767c-.001-2.989-1.978-4.974-4.974-4.974m0-51.419H26.982c-2.996 0-4.982 1.986-4.982 4.974v20.163c0 2.996 1.986 4.974 4.982 4.974H47.97c2.997 0 4.974-1.978 4.974-4.974V31.348c-.001-2.988-1.978-4.974-4.974-4.974m50.442 0-16.746.109c-2.996.017-4.982 1.986-4.982 4.974v20.096c0 2.988 1.995 4.974 4.982 4.974h16.746c53.995 0 53.995 78.964 0 78.964H81.666c-2.987 0-4.982 1.986-4.982 4.974v20.096c0 2.987 1.986 4.957 4.982 4.973l16.746.11c95.45 0 95.45-139.285 0-139.285"/></svg>