<?xml version="1.0" encoding="UTF-8"?>
<svg width="24" height="24" fill="none" version="1.1" viewBox="0 0 24 24" xmlns="http://www.w3.org/2000/svg">
 <path d="m10.825 21.953c-0.0442-0.01788-0.65561-0.15115-1.5899-0.34652-0.48641-0.10171-0.59911-0.18298-0.59911-0.43199 0-0.14708 0.0857-0.26094 0.23646-0.31408 0.0413-0.01457 0.24872 0.01133 0.46085 0.05758 0.21213 0.04624 0.39038 0.07971 0.3961 0.07437 6e-3 -0.0053 0.0609-0.24314 0.1226-0.52847 0.0806-0.37243 0.0971-0.5237 0.0587-0.53627-0.0294-0.0096-0.25049-0.08196-0.49129-0.16076-0.50176-0.16418-1.2439-0.50761-1.6282-0.75343-0.1447-0.09256-0.27824-0.16773-0.29676-0.16703-0.0534 2e-3 -0.58669 0.76871-0.58669 0.8435 0 0.03709 0.13025 0.16333 0.28945 0.28053 0.1592 0.1172 0.31246 0.26357 0.34057 0.32527 0.10584 0.23229-0.15276 0.53301-0.39284 0.45681-0.0991-0.03146-1.8331-1.2736-1.9141-1.3711-0.0242-0.0291-0.0581-0.1093-0.0754-0.17823-0.0255-0.10143-5e-3 -0.15188 0.10797-0.26473 0.0767-0.07668 0.17923-0.13942 0.2279-0.13942 0.0487 0 0.23614 0.10369 0.4166 0.23043 0.18047 0.12674 0.346 0.23043 0.36784 0.23043 0.0406 0 0.54387-0.68048 0.5877-0.79469 0.0148-0.03846-0.12619-0.20014-0.36004-0.41302-0.42525-0.38711-0.94083-0.97775-1.2086-1.3846-0.0959-0.14574-0.18302-0.26499-0.19351-0.26499-0.016 0-0.88218 0.49771-0.92769 0.53305-8e-3 0.0064 0.0798 0.17385 0.19586 0.37204 0.11602 0.19818 0.21094 0.3959 0.21094 0.43938 0 0.04347-0.0486 0.1355-0.10792 0.20451-0.13121 0.15253-0.36257 0.1702-0.48623 0.03713-0.0451-0.04858-0.32742-0.513-0.62727-1.032-0.59474-1.0295-0.6301-1.1408-0.41973-1.3218 0.23411-0.20137 0.40278-0.1158 0.65274 0.33118 0.0915 0.16359 0.18529 0.30915 0.20844 0.32346 0.0555 0.03428 0.91591-0.44802 0.91722-0.51412 5.7e-4 -0.02811-0.073-0.21133-0.1635-0.40715-0.22093-0.47818-0.45845-1.2151-0.55649-1.7265-0.0703-0.36666-0.0922-0.41894-0.17509-0.41824-0.15748 0.0013-0.96239 0.09107-0.98066 0.10933-9e-3 0.0094 4e-3 0.18717 0.0304 0.39511 0.0387 0.30882 0.0352 0.40169-0.0192 0.5069-0.11178 0.21616-0.35955 0.25323-0.52383 0.07837-0.0896-0.09539-0.11419-0.2285-0.21489-1.1637-0.0625-0.58077-0.11395-1.1197-0.11423-1.1977-1e-3 -0.30593 0.40488-0.46272 0.58972-0.22774 0.065 0.08264 0.0991 0.2242 0.12293 0.50971l0.0329 0.3953 0.23759-0.02851c0.13066-0.01568 0.37238-0.04285 0.53713-0.06038l0.29956-0.03186 0.0326-0.80649c0.0231-0.57117 0.0652-0.96114 0.14423-1.3365 0.0614-0.29149 0.0986-0.5432 0.0826-0.55936-0.0437-0.04423-0.96792-0.33799-0.98794-0.31402-0.01 0.01144-0.0777 0.19695-0.15137 0.41226-0.10939 0.31954-0.15793 0.40286-0.26419 0.4535-0.1717 0.08182-0.37151 0.0029-0.44564-0.17612-0.0554-0.13381-0.0662-0.09443 0.58443-2.1287 0.0835-0.26112 0.20047-0.37585 0.38311-0.37585 0.31822 0 0.40121 0.2794 0.23043 0.77577-0.0507 0.14734-0.0922 0.29144-0.0922 0.3202 0 0.06266 0.9467 0.36651 1.0134 0.32527 0.0256-0.01582 0.0465-0.0504 0.0465-0.07685 0-0.18365 0.67592-1.4041 1.0664-1.9254 0.25731-0.34357 0.27754-0.28328-0.25313-0.75423l-0.31585-0.28031-0.2866 0.30854c-0.25136 0.2706-0.30702 0.30854-0.45273 0.30854-0.12459 0-0.19002-0.03037-0.26165-0.12143-0.11629-0.14783-0.11947-0.23334-0.0146-0.3912 0.12923-0.19447 1.4916-1.6918 1.5649-1.7199 0.22995-0.08824 0.47405 0.08056 0.47405 0.32783 0 0.10739-0.0661 0.21233-0.28305 0.44904-0.16391 0.17888-0.26575 0.32582-0.24195 0.3491 0.0226 0.02211 0.20576 0.18491 0.407 0.36177l0.36589 0.32157 0.3214-0.29334c0.17677-0.16134 0.48333-0.40993 0.68124-0.55242 0.33448-0.24083 1.0451-0.68674 1.1502-0.72179 0.0351-0.01171-0.32775-0.92561-0.39546-0.99595-8e-3 -0.0078-0.15592 0.05088-0.32974 0.13046-0.5272 0.24137-0.79995 0.1761-0.79995-0.19144 0-0.13955 0.0253-0.19271 0.12177-0.25592 0.21377-0.14007 2.0607-0.93622 2.1719-0.93622 0.13358 0 0.33319 0.19383 0.33319 0.32353 0 0.18589-0.10095 0.28303-0.46422 0.44675-0.20093 0.090549-0.36532 0.18512-0.36532 0.21016 0 0.065639 0.37276 0.90613 0.41286 0.93092 0.0185 0.01145 0.14291-0.02069 0.27641-0.07142 0.49591-0.18843 1.282-0.35282 2.0874-0.43648l0.26499-0.02753v-1.0994h-0.41686c-0.38115 0-0.42656-0.00969-0.52999-0.11312-0.12545-0.12546-0.13769-0.19728-0.0619-0.36353 0.0893-0.19606 0.20856-0.21463 1.3775-0.21463s1.2882 0.018579 1.3775 0.21463c0.0757 0.16624 0.0635 0.23807-0.0619 0.36353-0.10343 0.10343-0.14883 0.11312-0.52998 0.11312h-0.41686v1.0994l0.26499 0.02753c0.78865 0.08193 1.5142 0.23242 2.0959 0.43468 0.1978 0.06878 0.27277 0.07807 0.29892 0.03702 0.0692-0.1087 0.38182-0.83501 0.38182-0.8872 0-0.029387-0.1652-0.12895-0.36711-0.22124-0.36645-0.16751-0.46243-0.25949-0.46243-0.44319 0-0.12928 0.19949-0.32357 0.33203-0.32338 0.0582 8.3e-5 0.41686 0.13655 0.79707 0.30326 0.3802 0.16671 0.83645 0.36556 1.0139 0.44189 0.17743 0.076331 0.36019 0.17504 0.40613 0.21935 0.10022 0.096678 0.11607 0.33927 0.029 0.44415-0.13925 0.16778-0.26299 0.16742-0.67846-2e-3 -0.21753-0.08868-0.39924-0.15635-0.4038-0.15037-0.0798 0.10449-0.42874 0.98106-0.39503 0.99229 0.10708 0.03569 0.8174 0.48177 1.165 0.73163 0.20556 0.14774 0.5131 0.39746 0.68344 0.55492l0.3097 0.28629 0.34066-0.30332c0.18736-0.16683 0.36955-0.33048 0.40487-0.36368 0.0542-0.05095 0.0201-0.10928-0.2189-0.37406-0.33026-0.36592-0.37014-0.5394-0.1617-0.70336 0.18133-0.14263 0.3253-0.12116 0.5185 0.07731 0.48585 0.49909 1.3735 1.5095 1.4323 1.6305 0.0595 0.12227 0.0593 0.15344-1e-3 0.2616-0.0953 0.16986-0.25618 0.24355-0.40722 0.18657-0.0659-0.02485-0.23618-0.17342-0.37848-0.33017l-0.25871-0.28499-0.39803 0.36136c-0.22766 0.20669-0.38465 0.383-0.36678 0.41193 0.0172 0.02782 0.13298 0.18658 0.25731 0.35281 0.2755 0.36834 0.6815 1.0779 0.88615 1.5486 0.0833 0.19175 0.16324 0.36033 0.17753 0.37461 0.0409 0.04087 0.99821-0.27404 0.99782-0.32822-1.5e-4 -0.02667-0.0415-0.18329-0.0918-0.34805-0.11729-0.38413-0.11713-0.56224 5.8e-4 -0.66878 0.12257-0.11093 0.35005-0.10711 0.46496 0.0078 0.0555 0.05553 0.22885 0.52409 0.4391 1.1871 0.3076 0.96997 0.34119 1.1102 0.29346 1.2254-0.0742 0.17913-0.27389 0.2583-0.44578 0.17674-0.10693-0.05074-0.15478-0.13379-0.26791-0.46502-0.0757-0.22179-0.1595-0.40325-0.18611-0.40325-0.0266 0-0.25496 0.06976-0.50746 0.15503-0.29933 0.10108-0.45692 0.17726-0.45286 0.21891 3e-3 0.03513 0.0523 0.28163 0.10862 0.54778 0.071 0.33534 0.1115 0.73149 0.13203 1.2904l0.0296 0.80649 0.29956 0.03186c0.16475 0.01753 0.40646 0.0447 0.53713 0.06038l0.23758 0.02851 0.0335-0.40273c0.0278-0.33326 0.052-0.42118 0.14053-0.50971 0.21416-0.21417 0.57267-0.06259 0.5715 0.24163-2.9e-4 0.07441-0.0517 0.61046-0.11423 1.1912-0.10071 0.93516-0.12529 1.0683-0.2149 1.1637-0.16214 0.17259-0.41196 0.13794-0.52064-0.07221-0.0499-0.09658-0.0543-0.2046-0.0203-0.50801 0.0237-0.21194 0.036-0.39252 0.0272-0.40127-0.0174-0.01737-0.82784-0.10703-0.97696-0.10807-0.0797-5.62e-4 -0.10339 0.05715-0.17485 0.42549-0.098 0.50526-0.33594 1.2356-0.56154 1.7239-0.0892 0.19317-0.16182 0.37422-0.16127 0.40233 1e-3 0.06611 0.86175 0.54841 0.91722 0.51412 0.0231-0.01432 0.11695-0.15987 0.20843-0.32346 0.26003-0.46496 0.43598-0.54263 0.67892-0.29968 0.11113 0.11112 0.13323 0.16407 0.10893 0.2609-0.0358 0.14268-1.062 1.9321-1.1821 2.0614-0.12365 0.13307-0.35502 0.1154-0.48622-0.03713-0.0593-0.06901-0.10792-0.16103-0.10792-0.20451 0-0.04348 0.0949-0.24119 0.21093-0.43938 0.11601-0.19818 0.20415-0.3656 0.19586-0.37204-8e-3 -0.0064-0.22026-0.13145-0.47105-0.2778-0.35335-0.2062-0.464-0.25191-0.49161-0.20307-0.16205 0.28674-0.71288 0.94392-1.1834 1.4119-0.38574 0.38365-0.55684 0.58452-0.53217 0.62477 0.1464 0.23892 0.54489 0.76842 0.57829 0.76842 0.0226 0 0.19344-0.10635 0.37961-0.23634 0.26619-0.18585 0.3632-0.23014 0.45414-0.20732 0.24106 0.0605 0.36869 0.31873 0.24832 0.50243-0.0376 0.05731-0.29388 0.26803-0.56963 0.46828-0.27575 0.20025-0.67779 0.49374-0.89344 0.6522-0.50533 0.37134-0.59783 0.39566-0.78664 0.20685-0.11727-0.11727-0.13828-0.16752-0.11278-0.2697 0.0404-0.16193 0.11732-0.24459 0.42422-0.45596 0.16774-0.11553 0.24437-0.19754 0.23129-0.24754-0.0249-0.09525-0.55098-0.82488-0.5959-0.82648-0.0185-7.2e-4 -0.14294 0.06864-0.27651 0.15399-0.53977 0.34494-1.1856 0.62499-2.1397 0.92782-0.0384 0.01217-0.0217 0.16366 0.0587 0.53574 0.0617 0.28532 0.11688 0.52313 0.1226 0.52847 6e-3 0.0053 0.18396-0.02813 0.3961-0.07437 0.39631-0.08638 0.47747-0.08136 0.61666 0.03818 0.10728 0.09214 0.1072 0.38535-1.4e-4 0.48248-0.0444 0.04021-0.27774 0.11501-0.51846 0.16624-0.24073 0.05122-0.68655 0.14764-0.99071 0.21426-0.30416 0.06662-0.63035 0.1325-0.72487 0.1464-0.32419 0.04768-0.52646-0.21259-0.38213-0.4917 0.0618-0.11941 0.11389-0.14502 0.43642-0.21433 0.20147-0.04329 0.39129-0.09416 0.42185-0.11304 0.0422-0.02611 0.0292-0.15724-0.0544-0.54742l-0.10993-0.51309-0.32345 0.0363c-0.36337 0.04078-1.5264 0.0483-2.0508 0.01326l-0.34479-0.02304-0.11337 0.49877c-0.088 0.38738-0.10057 0.50667-0.0561 0.53416 0.0315 0.01947 0.22005 0.07037 0.41899 0.11313 0.39044 0.0839 0.44741 0.12352 0.49101 0.34153 0.0386 0.19324-0.14097 0.38047-0.35994 0.37523-0.0835-2e-3 -0.17262-0.01204-0.19796-0.02231zm2.6188-2.6214c1.9671-0.39828 3.6346-1.5126 4.7504-3.1744 0.78293-1.166 1.1979-2.4411 1.2568-3.8614 0.0557-1.3428-0.2083-2.544-0.8194-3.7286-1.0495-2.0344-3.0549-3.5222-5.318-3.9453-0.69283-0.12954-2.0813-0.1178-2.7421 0.02319-1.3562 0.28937-2.5052 0.85954-3.5205 1.747-0.68065 0.59494-1.3854 1.5181-1.7777 2.3286-0.73614 1.5209-0.92902 3.3805-0.52432 5.0551 0.67053 2.7746 2.8886 4.9339 5.6827 5.5321 0.68287 0.14621 1.0522 0.17885 1.7862 0.15789 0.45279-0.01293 0.83191-0.05444 1.226-0.13422zm-4.7959-1.3518c-0.12628-0.02018-0.24236-0.17635-0.24236-0.32606 0-0.14026 0.43422-0.90456 0.56657-0.99726 0.0545-0.03819 0.14731-0.06944 0.20619-0.06944 0.13795 0 0.33329 0.19533 0.33329 0.33327 0 0.05887-0.11783 0.30796-0.26184 0.55353-0.26841 0.45772-0.3699 0.54303-0.60185 0.50597zm6.4588-8e-3c-0.11254-0.04666-0.61785-0.91333-0.61785-1.0597 0-0.12684 0.19731-0.32511 0.32354-0.32511 0.16223 0 0.26687 0.08298 0.43393 0.34414 0.23507 0.36748 0.34858 0.60582 0.34858 0.73192 0 0.22845-0.27 0.39919-0.4882 0.30872zm-3.4751-0.31909c-0.65052-0.21406-1.0317-0.72625-1.0331-1.3883-7.2e-4 -0.30555 0.0173-0.3793 0.15504-0.63577 0.44033-0.81996 1.4815-1.0148 2.1954-0.41088 0.0781 0.06612 0.21227 0.25089 0.29804 0.41061 0.13789 0.25677 0.15586 0.33043 0.15519 0.63604-1e-3 0.57373-0.27193 1.0176-0.77966 1.2785-0.24615 0.12651-0.76521 0.18401-0.99084 0.10976zm0.74098-0.75571c0.46528-0.31356 0.48631-0.91722 0.0425-1.2202-0.20051-0.13687-0.60265-0.14335-0.81617-0.01316-0.18372 0.11202-0.33598 0.40123-0.33598 0.63818 0 0.3606 0.35748 0.69993 0.73736 0.69993 0.14919 0 0.26529-0.03268 0.3723-0.10479zm-4.3664-1.4062c-0.98661-0.35308-1.2901-1.5346-0.59245-2.3068 0.40219-0.44518 1.1039-0.58242 1.6377-0.3203 0.42502 0.20874 0.67693 0.53593 0.78524 1.0199 0.13767 0.61518-0.24712 1.3149-0.8699 1.5819-0.25833 0.11075-0.68998 0.12211-0.96056 0.02528zm0.75225-0.68451c0.0876-0.04159 0.21486-0.1484 0.28271-0.23735 0.10041-0.13165 0.12336-0.21061 0.12336-0.4244 0-0.21809-0.0224-0.29203-0.13204-0.43577-0.23421-0.30707-0.65918-0.39483-0.95303-0.1968-0.23326 0.15719-0.36508 0.38057-0.36508 0.61864 0 0.55222 0.55177 0.90931 1.0441 0.67569zm6.488 0.72639c-0.22738-0.05878-0.61731-0.28952-0.74569-0.44127-0.1617-0.19112-0.32117-0.55536-0.35958-0.8213-0.0752-0.52031 0.31476-1.188 0.83161-1.424 0.32065-0.14645 0.82793-0.14617 1.1567 6.48e-4 0.29276 0.13074 0.58083 0.42026 0.71813 0.72174 0.14298 0.31395 0.14636 0.83127 7e-3 1.1347-0.22131 0.48331-0.69294 0.81706-1.1998 0.84906-0.14718 0.0093-0.3311 4.32e-4 -0.40871-0.01958zm0.70909-0.77531c0.45698-0.33845 0.44077-0.92519-0.0344-1.2454-0.40985-0.2762-1.0074 0.01133-1.0894 0.52423-0.0513 0.32055 0.1649 0.68251 0.48666 0.81494 0.13207 0.05436 0.51277-0.0017 0.63711-0.09376zm-4.4254-1.4167c-0.99597-0.38196-1.2551-1.6201-0.49496-2.3647 0.51706-0.50644 1.4131-0.50644 1.9302 0 0.3054 0.29913 0.44145 0.62611 0.4363 1.0486-6e-3 0.5272-0.23205 0.91878-0.68862 1.1952-0.23203 0.14048-0.30367 0.15986-0.63688 0.1723-0.24488 0.0091-0.43476-0.0087-0.54601-0.0514zm0.83862-0.72243c0.3391-0.19058 0.46288-0.62318 0.27358-0.95609-0.15562-0.27367-0.29838-0.35192-0.64208-0.35192s-0.48645 0.07824-0.64207 0.35192c-0.35462 0.62361 0.37461 1.3135 1.0106 0.95609zm-7.1011-0.35731c-0.0771-0.06241-0.10649-0.13407-0.10649-0.25941 0-0.29227 0.11425-0.34564 0.73996-0.34564 0.49805 0 0.53318 0.0062 0.64009 0.11312 0.0622 0.06222 0.11312 0.16685 0.11312 0.23252 0 0.06567-0.0509 0.17031-0.11312 0.23252-0.10691 0.10691-0.14204 0.11312-0.64009 0.11312-0.44621 0-0.54329-0.01321-0.63347-0.08623zm12.192-0.02689c-0.0622-0.06222-0.11312-0.16685-0.11312-0.23252 0-0.06567 0.0509-0.17031 0.11312-0.23252 0.10691-0.10691 0.14203-0.11312 0.64009-0.11312 0.6257 0 0.73995 0.05337 0.73995 0.34564 0 0.29227-0.11425 0.34564-0.73995 0.34564-0.49806 0-0.53318-0.0062-0.64009-0.11312zm-9.4531-1.0293c-1.2116-0.43307-1.3114-2.0601-0.16097-2.6232 0.21966-0.10751 0.31547-0.12681 0.60651-0.12217 0.53351 0.0085 0.95031 0.24294 1.1961 0.67274 0.27945 0.48876 0.28724 0.98634 0.0226 1.446-0.32196 0.55929-1.0674 0.83997-1.6642 0.62664zm0.76493-0.67627c0.48879-0.25276 0.53813-0.9534 0.0897-1.2732-0.20916-0.14918-0.61732-0.15652-0.80892-0.01456-0.46386 0.34369-0.45097 0.928 0.0276 1.2505 0.18259 0.12305 0.49346 0.13982 0.69168 0.03732zm6.3812 0.69635c-0.24904-0.08184-0.57197-0.30718-0.7219-0.50375-0.0662-0.08685-0.16494-0.29002-0.21934-0.45151-0.12386-0.36766-0.0959-0.6627 0.0999-1.0546 0.24432-0.48893 0.6721-0.7506 1.2378-0.75717 0.28923-0.0034 0.38821 0.01682 0.60651 0.12366 0.5148 0.25197 0.79719 0.70434 0.79719 1.2771 0 0.5679-0.27365 1.0182-0.77453 1.2744-0.27455 0.14045-0.74861 0.18291-1.0257 0.09186zm0.7688-0.73367c0.47516-0.32021 0.49137-0.90695 0.0344-1.2454-0.0686-0.05084-0.22187-0.09954-0.34564-0.10986-0.7655-0.06382-1.0751 0.96782-0.41182 1.3723 0.20224 0.12332 0.52614 0.1157 0.72307-0.01701zm-4.1871-1.3723c-0.27408-0.0547-0.63995-0.26349-0.79824-0.45552-0.24485-0.29705-0.33508-0.54547-0.33585-0.92467-1e-3 -0.57182 0.26709-1.0133 0.7782-1.2806 0.19456-0.10178 0.2914-0.12084 0.62215-0.12244 0.33761-0.0016 0.42356 0.01502 0.62216 0.12054 0.51312 0.27265 0.77936 0.71142 0.7782 1.2825-1e-3 0.56786-0.26942 1.0004-0.76832 1.2387-0.32302 0.15431-0.60864 0.1993-0.8983 0.14149zm0.57038-0.73064c0.38989-0.17707 0.55673-0.68735 0.33257-1.0171-0.32627-0.48-0.90945-0.49825-1.2495-0.03909-0.24053 0.32477-0.10034 0.8331 0.28596 1.0369 0.24415 0.1288 0.38075 0.13298 0.63099 0.01934zm-3.3622-1.0758c-0.0626-0.05703-0.1808-0.22812-0.26274-0.3802-0.0819-0.15208-0.17707-0.31742-0.2114-0.36742-0.23336-0.33981 0.24588-0.73168 0.52289-0.42756 0.15811 0.17358 0.52073 0.83227 0.52073 0.94588 0 0.14094-0.19666 0.33299-0.34097 0.33299-0.0631 0-0.16594-0.04666-0.22851-0.10369zm5.6598-0.0094c-0.0622-0.06222-0.11312-0.15887-0.11312-0.21478 0-0.05592 0.11738-0.30458 0.26083-0.55258 0.29793-0.51505 0.41815-0.60456 0.65056-0.48437 0.26675 0.13794 0.25918 0.29642-0.0391 0.81757-0.32328 0.56492-0.51743 0.67595-0.75922 0.43417z" fill="#000" stroke-width=".046085"/>
</svg>
