<svg xmlns="http://www.w3.org/2000/svg" width="192" height="192" fill="none"><path stroke="#000" stroke-width="12" d="m60.118 119.216 4.37-15.198 75.142-80.85m29.203 29.202L87.98 127.512l-14.584 4.619" style="stroke-linecap:round;stroke-linejoin:round;paint-order:fill markers stroke"/><path stroke="#000" stroke-width="12" d="M67.743 124.258c-8.277-8.276-22.393-7.58-31.53 1.556C30.5 131.528 23.71 149.409 22 156.543L35.458 170c7.134-1.71 25.013-8.5 30.728-14.215 9.135-9.135 9.833-23.25 1.557-31.527M139.63 23.167a4.13 4.13 0 0 1 5.85-.003l23.356 23.355a4.13 4.13 0 0 1-.003 5.85" style="stroke-linecap:round;stroke-linejoin:round;paint-order:fill markers stroke"/><path fill="#000" d="M52.729 136.27a3 3 0 0 0-3 3 3 3 0 0 0 3 3 3 3 0 0 0 3-3 3 3 0 0 0-3-3" color="#000" style="fill:none;stroke:#000;stroke-width:6;stroke-linecap:round;stroke-linejoin:round;stroke-dasharray:none;stroke-opacity:1;paint-order:fill markers stroke"/></svg>