<svg id="Layer_4" data-name="Layer 4" xmlns="http://www.w3.org/2000/svg" viewBox="0 0 24 24">
  <path d="M12,4.84h-.27A6.74,6.74,0,0,0,7.36,7.11l-.09.09A6.81,6.81,0,0,0,5.89,9.56a11.19,11.19,0,0,0-.76,3.67,2.87,2.87,0,0,0,.1,1.39c.91,1.49,5.94-.13,6.77-.41Z"/>
  <path d="M12,13.8v3.75c-.5,0-1.24,0-2.14,0C6.8,17.38,2.05,16.79,2,15.85c0-.26.49-.56,1.48-1.15a9.7,9.7,0,0,1,1.93-.9"/>
  <path d="M12,4.84h.27a6.74,6.74,0,0,1,4.37,2.27l.09.09a6.81,6.81,0,0,1,1.38,2.36,11.17,11.17,0,0,1,.76,3.67,2.85,2.85,0,0,1,0,1.2c-.78,1.4-5.46.17-6.83-.22Z"/>
  <path d="M12.22,4.84h-.44v9.77h.44Z"/>
  <path d="M12,13.8v3.75c.5,0,1.24,0,2.14,0,3.06-.14,7.81-.73,7.86-1.67,0-.26-.49-.56-1.48-1.15a9.7,9.7,0,0,0-1.93-.9"/>
  <ellipse cx="12" cy="17.37" rx="2.26" ry="1.79"/>
  <circle cx="6.26" cy="16.81" r="1.87"/>
  <circle cx="17.74" cy="16.81" r="1.87"/>
</svg>
