<svg width="192" height="192" viewBox="0 0 192 192" fill="none" xmlns="http://www.w3.org/2000/svg"><path d="M25 57c0-17.673 14.327-32 32-32h78c17.673 0 32 14.327 32 32v78c0 17.673-14.327 32-32 32H57c-17.673 0-32-14.327-32-32V57Z" stroke="#000" stroke-width="12" stroke-linecap="round" stroke-linejoin="round"/><path d="M89.095 49c-12.808 52.313 0 89.513 0 89.513M126.356 58.3s-34.932 6.975-66.37 2.325m58.219 18.925s-1.145 3.23-3.29 8.134m0 0c-6.772 15.483-23.507 47.666-45.614 47.666-24.453 0-4.658-37.2 16.301-44.175 8.948-2.978 19.806-4.684 29.313-3.491Zm0 0C127.675 89.285 138 96.11 138 112.1c0 22.087-25.617 27.9-25.617 27.9" stroke="#000" stroke-width="12" stroke-linecap="round" stroke-linejoin="round"/></svg>