<?xml version="1.0" encoding="UTF-8"?>
<svg id="Layer_1" xmlns="http://www.w3.org/2000/svg" version="1.1" viewBox="0 0 192 192">
  <!-- Generator: Adobe Illustrator 29.0.0, SVG Export Plug-In . SVG Version: 2.1.0 Build 186)  -->
  <defs>
    <style>
      .st0 {
        fill: #231f20;
      }
    </style>
  </defs>
  <rect class="st0" x="64.3" y="15.5" width="2.7" height="160"/>
  <rect class="st0" x="126" y="15.5" width="2.7" height="160"/>
  <rect class="st0" x="16.5" y="124.8" width="160" height="2.7"/>
  <rect class="st0" x="16.5" y="63" width="160" height="2.7"/>
  <path class="st0" d="M109.9,116.2h-22.5c-1.8,0-3.2-1.4-3.2-3.2h0c0-1.9,1.4-3.3,3.2-3.3h3.6c.2,0,.3,0,.4-.2,0,0,.2-.2.2-.4,0-1.8,1.4-3.2,3.2-3.2s.6-.3.6-.6v-11.7c0-.3-.3-.6-.6-.6-1.1,0-2.2,0-3.2,0-2.2,0-4.3,0-6.5,0h-1.9c-1.8,0-3.2-1.4-3.2-3.2v-11.7c0-1.8,1.4-3.2,3.2-3.2s3,0,4.5,0c2.9,0,6,0,9,0h2c.9,0,1.7.3,2.3.9.6.6,1,1.4,1,2.3v27.1c0,.3.3.6.7.6,1.8,0,3.2,1.4,3.2,3.2s.3.6.6.6h2.2s1.3,0,1.3,0c1.8,0,3.2,1.4,3.2,3.2h0c0,1.9-1.4,3.3-3.2,3.3ZM87.4,112.3c-.3,0-.6.3-.6.6h0c0,.4.3.7.6.7h22.5c.3,0,.6-.3.6-.6h0c0-.4-.3-.7-.6-.7h-2.5s-1.1,0-1.1,0c-1.8,0-3.2-1.4-3.2-3.2s-.3-.6-.6-.6c-1.8,0-3.2-1.4-3.2-3.2v-13.5c0,0,0-13.7,0-13.7,0-.2-.1-.3-.2-.4,0,0-.2-.2-.4-.2h-2c-3,0-6,0-9,0-1.5,0-3,0-4.5,0s-.6.2-.6.6v11.7c0,.3.3.6.6.6h1.9c2.2,0,4.3,0,6.5,0,1.1,0,2.2,0,3.2,0,1.8,0,3.2,1.4,3.2,3.2v11.7c0,1.8-1.4,3.2-3.2,3.2s-.6.3-.6.6c0,.9-.3,1.7-1,2.3-.6.6-1.4.9-2.2.9,0,0,0,0,0,0h-3.6Z"/>
</svg>