<svg xmlns="http://www.w3.org/2000/svg" width="192" height="192" viewBox="0 0 192 192"><path fill-rule="evenodd" d="M95.24 124.98h.57c11.71 0 22.46-2.34 30.14-4.59a118 118 0 0 0 9.32-3.15 85 85 0 0 0 3.44-1.41l.23-.1.08-.04.03-.01.02-.01a3.24 7.08 0 0 0-.81-1.77l.81 1.77a12 12 0 0 0 4.39-3.44 147 147 0 0 1 12.38 7.02 292 292 0 0 1-9 1.83c-13.3 2.48-31.53 4.96-51.26 4.96s-37.74-2.48-50.83-4.96a279 279 0 0 1-7.85-1.6 215 215 0 0 1 12.6-6.97 12 12 0 0 0 3.89 3.03l.16-.34-.16.34.02.01.03.01.08.04.23.11 1.4.64q1.02.63 2.15 1.1c5.29 2.17 19.97 7.53 37.38 7.53zm-48.29-24.6c.14-1.56.35-3.52.66-5.77.76-5.6 2.18-13.28 4.8-21.22 4.95-14.92 16.02-35.85 40.12-38.7 13.58-1.61 24.59 2.62 32.76 10.2 7.73 7.16 12.32 16.72 15.14 25.24a116 116 0 0 1 4.93 23.6c.26 2.44.43 4.59.53 6.32a158 158 0 0 1 20.15 11.53 130 130 0 0 1 5.68 4.06q1 .75 1.54 1.19c1.96 1.56 3.15 3.7 2.63 6.29-.67 3.23-3.15 4.28-5.84 5.02a201 201 0 0 1-4.54 1.18l-6.13 1.44a35 35 0 0 1-.32 3.47 33 33 0 0 1-2.51 8.9 22.5 22.5 0 0 1-7.74 9.5c-3.92 2.67-8.89 4.03-14.88 3.61-6.97-.49-11.9-3.32-15.3-6.84a22 22 0 0 1-7.74 6.92c-4.21 2.27-9.46 3.38-15.85 3-10.04-.61-16.33-5.2-20.04-10.3-3.42 3.68-8.45 6.71-15.67 7.22-6 .42-10.96-.94-14.89-3.61a22.6 22.6 0 0 1-7.73-9.5 33 33 0 0 1-2.52-8.9 35 35 0 0 1-.3-3.13 254 254 0 0 1-7.56-1.79 184 184 0 0 1-4.45-1.18c-2.74-.77-5.26-1.9-5.8-5.25-.63-3.79 1.56-5.27 2.83-6.14l.23-.15 1.68-1.15a211 211 0 0 1 6.17-3.98c5.04-3.13 12.02-7.2 19.96-11.08m-.71 33.17c.26 1.44.7 3.08 1.4 4.63a10.6 10.6 0 0 0 3.56 4.53c1.45.99 3.67 1.82 7.29 1.56 5.43-.38 8.07-3.2 9.62-6.16a16 16 0 0 0 .67-1.44 303 303 0 0 1-22.54-3.12m36.33 4.15a16 16 0 0 0 1.44 3.2c1.69 2.84 4.86 6.02 11.76 6.44 4.57.28 7.53-.56 9.44-1.59a10 10 0 0 0 4.08-4.02 15 15 0 0 0 1.54-4.15 263 263 0 0 1-28.26.12m41.83-1.23q.32.81.74 1.63c1.55 2.97 4.2 5.79 9.63 6.17 3.62.25 5.84-.57 7.28-1.56 1.53-1.04 2.7-2.6 3.56-4.53.76-1.67 1.2-3.43 1.46-4.95a314 314 0 0 1-22.67 3.24m18.98-31.7h-1.11zm-70.33-45.8c5.02-6.45 11.79-11.28 20.9-12.36 14.34-1.7 23.55 5.25 29.47 14.89-7.74-6.13-18.18-9.7-31.57-8.47a44.4 44.4 0 0 0-18.8 5.94m22.19 54.01c-15.6-.12-28.97-4.98-34.2-7.17a2.6 2.6 0 0 1-.82-2.23 63 63 0 0 1 2.53-11.73 50 50 0 0 1 4.94-10.96 4 4 0 0 1-1.99-1.22q-.46-.58-.47-1.28c0-1.48 1.76-2.68 3.96-2.72h.1q1.07 0 1.95.33a33 33 0 0 1 4.3-4.18c4.42-3.58 10.11-6.17 17.4-6.84 10.56-.97 18.14 1.84 23.58 6.36l.18.15a30 30 0 0 1 4.1 4.27q.51-.09 1.06-.09h.04c2.23.02 4.03 1.23 4.03 2.72 0 .73-.43 1.4-1.13 1.88q-.34.24-.74.41a46 46 0 0 1 3.34 7.74 63 63 0 0 1 2.9 15.2 2.7 2.7 0 0 1-1.73 2.67c-4.73 1.86-18.24 6.58-33.33 6.69M85.14 83a4.4 4.4 0 1 1-8.8 0 4.4 4.4 0 0 1 8.8 0m26.68 3.14a4.45 4.45 0 1 0 0-8.9 4.45 4.45 0 0 0 0 8.9M89.47 93.3a3 3 0 0 0-6 .13c0 3.1 2.43 5.09 4.52 6.13 2.26 1.14 5.18 1.75 8.24 1.75s5.99-.61 8.25-1.75c2.09-1.04 4.52-3.04 4.52-6.13a3 3 0 0 0-6-.13c-.05.1-.3.44-1.2.9a13 13 0 0 1-5.57 1.11c-2.33 0-4.29-.48-5.56-1.11-.91-.46-1.15-.8-1.2-.9"/></svg>