<svg xmlns="http://www.w3.org/2000/svg" width="192" height="192" viewBox="0 0 192 192"><path fill-rule="evenodd" d="m95.24 124.981.567.002c11.714 0 22.467-2.343 30.144-4.592a118 118 0 0 0 9.323-3.148 85 85 0 0 0 3.439-1.414l.232-.104.077-.034.028-.013.017-.008a3.24 7.084 0 0 0-.81-1.771l.001-.001.814 1.77a12 12 0 0 0 4.384-3.442 147 147 0 0 1 12.389 7.026 292 292 0 0 1-8.999 1.825c-13.315 2.486-31.537 4.959-51.266 4.959-19.727 0-37.735-2.473-50.829-4.956a279 279 0 0 1-7.85-1.604 215 215 0 0 1 12.608-6.964 12 12 0 0 0 3.878 3.027l.165-.336.002.002a8 8 0 0 0-.162.336l.006.003.013.006.03.015.078.037.23.11a50 50 0 0 0 1.41.639q1.014.626 2.137 1.091c5.292 2.179 19.97 7.541 37.389 7.541l.554-.002zm-48.286-24.602c.139-1.555.347-3.514.655-5.77.766-5.606 2.181-13.275 4.81-21.214 4.943-14.925 16.011-35.85 40.113-38.706 13.583-1.61 24.587 2.62 32.76 10.199 7.726 7.163 12.318 16.721 15.14 25.24 2.868 8.657 4.248 17.282 4.928 23.598.263 2.445.427 4.594.528 6.328a158 158 0 0 1 20.152 11.529 130 130 0 0 1 5.684 4.057c.663.501 1.176.903 1.532 1.186 1.962 1.56 3.157 3.712 2.629 6.292-.662 3.234-3.15 4.282-5.832 5.018a201 201 0 0 1-4.546 1.183l-6.125 1.441a35 35 0 0 1-.318 3.469c-.334 2.352-1.028 5.601-2.515 8.894-1.491 3.302-3.887 6.878-7.735 9.502-3.927 2.677-8.894 4.038-14.889 3.615-6.962-.49-11.891-3.325-15.297-6.836a22 22 0 0 1-7.734 6.919c-4.216 2.265-9.464 3.381-15.853 2.993-10.044-.609-16.328-5.205-20.044-10.302-3.415 3.689-8.448 6.718-15.666 7.226-5.995.423-10.962-.938-14.89-3.615-3.847-2.624-6.243-6.2-7.735-9.502-1.487-3.293-2.18-6.542-2.514-8.894a35 35 0 0 1-.303-3.129 254 254 0 0 1-7.555-1.788 184 184 0 0 1-4.457-1.186c-2.733-.767-5.26-1.9-5.805-5.246-.618-3.786 1.568-5.271 2.84-6.136l.223-.152 1.687-1.151a211 211 0 0 1 6.17-3.981c5.036-3.131 12.013-7.201 19.961-11.081zm-.716 33.173c.266 1.44.703 3.078 1.405 4.632.868 1.922 2.032 3.485 3.559 4.526 1.447.986 3.667 1.815 7.285 1.56 5.43-.382 8.077-3.204 9.627-6.165a16 16 0 0 0 .663-1.437 303 303 0 0 1-22.54-3.116zm36.333 4.153a15.8 15.8 0 0 0 1.437 3.201c1.69 2.833 4.861 6.014 11.76 6.432 4.575.278 7.528-.555 9.446-1.586 1.915-1.029 3.189-2.464 4.077-4.021.8-1.402 1.271-2.883 1.541-4.146-4.94.287-10.042.451-15.252.451-4.434 0-8.781-.119-13.009-.331m41.831-1.232c.209.536.454 1.086.74 1.632 1.55 2.961 4.197 5.783 9.626 6.165 3.619.255 5.839-.574 7.286-1.56 1.527-1.041 2.691-2.604 3.559-4.526.754-1.669 1.203-3.435 1.462-4.949a314 314 0 0 1-22.673 3.238m18.978-31.709-1.115.001-.001.001h1.115zM73.054 58.969c5.02-6.453 11.784-11.284 20.89-12.364 14.346-1.7 23.56 5.256 29.48 14.893-7.746-6.126-18.189-9.696-31.575-8.466-7.328.673-13.56 2.837-18.795 5.937M95.24 112.98c-15.597-.116-28.973-4.983-34.208-7.17a2.62 2.62 0 0 1-.811-2.226 62.7 62.7 0 0 1 2.528-11.734c1.125-3.517 2.71-7.333 4.939-10.959-.85-.244-1.551-.677-1.984-1.22-.305-.381-.478-.817-.478-1.28 0-1.478 1.765-2.68 3.965-2.719h.106c.704 0 1.366.118 1.943.328a33 33 0 0 1 4.298-4.184c4.427-3.574 10.112-6.165 17.41-6.835 10.554-.97 18.132 1.835 23.572 6.363l.178.15c1.537 1.3 2.9 2.739 4.111 4.268q.503-.09 1.046-.09h.046c2.227.016 4.026 1.227 4.026 2.72 0 .73-.431 1.393-1.132 1.882q-.331.232-.736.406c1.4 2.54 2.49 5.177 3.337 7.744 2.094 6.341 2.713 12.252 2.896 15.189a2.68 2.68 0 0 1-1.717 2.677c-4.735 1.855-18.243 6.576-33.335 6.69M85.135 83.005a4.397 4.397 0 1 1-8.793 0 4.397 4.397 0 0 1 8.793 0m26.684 3.136a4.45 4.45 0 1 0 0-8.899 4.45 4.45 0 0 0 0 8.9zm-22.353 7.151a3 3 0 0 0-5.998.124c0 3.097 2.43 5.094 4.518 6.139 2.265 1.134 5.185 1.749 8.247 1.749s5.982-.615 8.248-1.75c2.087-1.044 4.517-3.041 4.517-6.138a3 3 0 0 0-5.997-.123c-.053.093-.293.44-1.206.896-1.268.635-3.23 1.115-5.562 1.115-2.331 0-4.293-.48-5.562-1.115-.913-.457-1.153-.803-1.205-.896z"/></svg>