<?xml version="1.0" encoding="UTF-8"?>
<svg id="Layer_1" data-name="Layer 1" xmlns="http://www.w3.org/2000/svg" viewBox="0 0 192 192">
  <defs>
    <style>
      .cls-1 {
        stroke-width: 2px;
      }

      .cls-1, .cls-2 {
        fill: none;
        stroke: #231f20;
        stroke-miterlimit: 10;
      }
    </style>
  </defs>
  <line class="cls-1" x1="66.3" y1="19" x2="66.3" y2="173"/>
  <path class="cls-1" d="M125.7,19v154"/>
  <line class="cls-1" x1="19" y1="125.44" x2="173" y2="125.44"/>
  <line class="cls-1" x1="19" y1="66.03" x2="173" y2="66.03"/>
  <path class="cls-2" d="M107.04,110.84h0c-.54,0-1.07,0-1.61,0-1.01,0-1.82-.82-1.82-1.82h0c0-1.01-.82-1.82-1.82-1.82h-.01c-1,0-1.82-.81-1.82-1.81l-.09-13.08v.08s0-13.14,0-13.14c0-1.01-.82-1.83-1.82-1.82-.64,0-1.28,0-1.92,0-4.32-.02-8.65,0-12.97,0-1.01,0-1.82.81-1.82,1.82v11.25c0,1.01.82,1.82,1.82,1.82.61,0,1.22,0,1.82,0,3.11.01,6.21,0,9.32,0,1.01,0,1.82.82,1.82,1.83v11.25c0,1.01-.82,1.82-1.82,1.82h0c-1.01,0-1.82.82-1.82,1.82h0c0,1.01-.82,1.83-1.82,1.82-.59,0-1.17,0-1.76,0h0s-1.67,0-1.67,0c-1.01,0-1.82.82-1.82,1.82v.1c0,1.01.82,1.82,1.82,1.82h21.65c1.01,0,1.82-.82,1.82-1.82v-.1c0-1.01-.82-1.82-1.82-1.82h-1.82Z"/>
</svg>