<svg width="192" height="192" viewBox="0 0 192 192" fill="none" xmlns="http://www.w3.org/2000/svg"><path d="M80.744 32c-13.475 0-22.849 5.2-37.074 5.2H22.712c-1.721 0-1.701.51-1.701.7v.169c0 .67-.15 1.26 2.911 2.02 9.984 2.4 13.345 4.899 13.345 14.248v86.526c0 9.358-3.381 11.848-13.395 14.247h.05c-3.061.76-2.921 1.35-2.921 2.02v.17c0 .19 0 .7 1.7.7h55.022c1.71 0 1.7-.52 1.7-.7v-.17c0-.3.17-1.06-2.58-1.65h-.03l-.04-.02c-12.725-2.899-17.137-5.269-17.137-15.267v-23.976c0-5.15 2.961-10.029 9.203-10.029 3.632 0 5.623 1.34 9.384 1.34 22.669 0 39.466-15.948 39.466-38.594C117.689 46.398 101.923 32 80.744 32Zm-5.432 17.507c-4.842 0-7.393 2.38-7.393 19.457 0 18.127 2.441 21.387 8.423 21.387 6.473 0 12.005-6.22 12.005-20.557 0-14.218-5.592-20.277-13.035-20.287Zm82.071 36.814c-.4-.01-.97.07-1.77.37h-.03l-27.251 8.699c-1.12.43 1.981 1.39 2.181 1.45l.04.01.03.02c2.441.78 5.052 1.49 7.213 4.019 2.171 2.53 2.631 5.729 2.631 9.289v30.695c0 3.399-.2 6.349-2.051 9.048-1.861 2.7-4.562 3.79-7.133 4.7l-.08.03-.07.03c-1.88.599-2.741 1.239-2.981 1.499-.24.25-.26.14-.26.95v.17s-.02.21.1.31c.11.1.57.39 1.601.39h39.735c1.041 0 1.501-.29 1.611-.39.12-.1.1.03.1-.31v-.17c0-.8-.02-.7-.26-.96-.24-.25-1.101-.89-2.981-1.499l-.081-.02-.07-.02c-2.571-.92-5.272-2-7.132-4.7-1.861-2.709-2.051-5.649-2.051-9.068V87.541c0-1-.16-.95-.34-1.06-.08-.05-.3-.15-.701-.16ZM149.63 70.72c6.473 0 11.72-5.247 11.72-11.72 0-6.473-5.247-11.72-11.72-11.72-6.473 0-11.72 5.247-11.72 11.72 0 6.473 5.247 11.72 11.72 11.72Z" stroke="#000" stroke-width="10"/></svg>
