<svg width="192" height="192" viewBox="0 0 192 192" fill="none" xmlns="http://www.w3.org/2000/svg"><path d="M22 60.017c0-4.046 3.906-6.937 7.765-5.747l92 28.366A6.011 6.011 0 0 1 126 88.383v75.6c0 4.046-3.906 6.937-7.765 5.747l-92-28.366A6.01 6.01 0 0 1 22 135.617v-75.6Z" stroke="#000" stroke-width="12" stroke-linecap="round" stroke-linejoin="round"/><path d="m26 56 36.601 69.542c1.76 3.345 6.137 4.249 9.078 1.875L123 86" stroke="#000" stroke-width="12" stroke-linecap="round" stroke-linejoin="round"/><path d="M66 42V28.017c0-4.046 3.906-6.937 7.764-5.747l92.001 28.366A6.011 6.011 0 0 1 170 56.383v75.601c0 4.045-3.906 6.936-7.765 5.746L149 133.649" stroke="#000" stroke-width="12" stroke-linecap="round" stroke-linejoin="round"/><path d="m127 149.649 13.235 4.081c3.859 1.19 7.765-1.701 7.765-5.746V72.383c0-2.64-1.718-4.97-4.235-5.747l-92-28.366C47.905 37.08 44 39.971 44 44.016V58" stroke="#000" stroke-width="12" stroke-linecap="round" stroke-linejoin="round"/></svg>