<svg xmlns="http://www.w3.org/2000/svg" width="192" height="192" viewBox="0 0 192 192"><defs><style>.a,.b,.c{fill:none;stroke:#000;stroke-linejoin:round;}.a,.b{stroke-linecap:round;}.a{stroke-width:14px;}.b,.c{stroke-width:12px;}</style></defs><line class="a" x1="55.5" y1="93" x2="55.5" y2="163"/><line class="a" x1="88" y1="93" x2="23" y2="93"/><path class="a" d="M151.5,128a17.5,17.5,0,0,1,0,35"/><path class="a" d="M151.5,93a17.5,17.5,0,0,1,0,35"/><line class="a" x1="138.25" y1="93" x2="138.25" y2="163"/><line class="a" x1="151.5" y1="163" x2="110.25" y2="163"/><line class="a" x1="151.5" y1="128" x2="138.25" y2="128"/><line class="a" x1="151.5" y1="93" x2="110.25" y2="93"/><line class="a" x1="110.25" y1="93" x2="110.25" y2="163"/><line class="b" x1="22" y1="29" x2="22" y2="69"/><line class="b" x1="45.929" y1="29" x2="45.929" y2="69"/><line class="b" x1="75.643" y1="29" x2="75.643" y2="69"/><line class="b" x1="45.929" y1="29" x2="75.643" y2="69"/><line class="b" x1="99.571" y1="29" x2="99.571" y2="69"/><line class="b" x1="99.571" y1="29" x2="122.429" y2="29"/><line class="b" x1="99.571" y1="49" x2="116.714" y2="49"/><path class="c" d="M170,44.265a15.478,15.478,0,0,1-2.009,7.631C166.674,54.216,155,69,155,69s-11.673-14.784-12.989-17.1a15.41,15.41,0,0,1,5.49-20.849,14.859,14.859,0,0,1,20.489,5.587A15.472,15.472,0,0,1,170,44.265Z"/></svg>