<svg width="192" height="192" viewBox="0 0 192 192" fill="none" xmlns="http://www.w3.org/2000/svg"><path d="M152.5 128a17.5 17.5 0 0 1 0 35m0-35h-14.25m14.25 0a17.5 17.5 0 0 0 0-35m-14.25 0v70" stroke="#000" stroke-width="12" stroke-linecap="round" stroke-linejoin="round"/><path d="M152.5 93h-35.25a6.002 6.002 0 0 0-6 6v58c0 1.591.632 3.117 1.757 4.243A6.003 6.003 0 0 0 117.25 163h35.25m-98-70v70M87 93H22m77.571-24V35a6 6 0 0 1 6-6h16.858M99.571 49h17.143M45.927 69V29l29.715 40V29M22 29v40m133-40a14.731 14.731 0 0 0-7.5 2.047 15.412 15.412 0 0 0-5.488 20.853C143.328 54.216 155 69 155 69s11.672-14.784 12.988-17.1a15.411 15.411 0 0 0-5.488-20.853A14.731 14.731 0 0 0 155 29Z" stroke="#000" stroke-width="12" stroke-linecap="round" stroke-linejoin="round"/></svg>