<svg width="192" height="192" viewBox="0 0 192 192" fill="none" xmlns="http://www.w3.org/2000/svg"><path d="M58 38a16 16 0 1 0-27.314 11.314" stroke="#000" stroke-width="12" stroke-linecap="round" stroke-linejoin="round"/><circle cx="96" cy="135" r="5" stroke="#000" stroke-width="10" stroke-linecap="round" stroke-linejoin="round"/><path d="M52 78h28m-54 81c18-10 34-13 34-13m106 13c-18-10-34-13-34-13m-110-7c24-5 38 7 38 7m110-7c-24-5-38 7-38 7m-64 24c16-7 28-7 28-7m28 7c-16-7-28-7-28-7m-14-33s6-2 14-2 14 2 14 2m-14 33v-22m-20-39 4-24m0-24 4-6m-8 54-14 10" stroke="#000" stroke-width="12" stroke-linecap="round" stroke-linejoin="round"/><circle cx="72" cy="85" r="5" stroke="#000" stroke-width="10" stroke-linecap="round" stroke-linejoin="round"/><path d="M134 38a15.993 15.993 0 0 1 8-13.856A15.998 15.998 0 0 1 163.856 30a15.993 15.993 0 0 1 0 16A16 16 0 0 1 158 51.856M140 78h-28m4 24-4-24m0-24-4-6m8 54 14 10" stroke="#000" stroke-width="12" stroke-linecap="round" stroke-linejoin="round"/><circle cx="5" cy="5" r="5" transform="matrix(-1 0 0 1 125 80)" stroke="#000" stroke-width="10" stroke-linecap="round" stroke-linejoin="round"/></svg>