<svg width="192" height="192" viewBox="0 0 192 192" fill="none" xmlns="http://www.w3.org/2000/svg"><path d="M96 22v30m40 66 19 11m-99-11-19 11" stroke="#000" stroke-width="12" stroke-linecap="round" stroke-linejoin="round"/><path d="m56 73 40 23m40-23L96 96m0 49V96" stroke="#000" stroke-width="10" stroke-linecap="round" stroke-linejoin="round"/><path d="M136 73H56l40 72 40-72Z" stroke="#000" stroke-width="10" stroke-linejoin="round"/><path d="M30 62.977a5.993 5.993 0 0 1 2.993-5.188l60-34.982a6.004 6.004 0 0 1 6.014 0l60 34.982A5.995 5.995 0 0 1 162 62.977v66.046a5.995 5.995 0 0 1-2.993 5.188l-60 34.982a6.006 6.006 0 0 1-6.014 0l-60-34.982A5.994 5.994 0 0 1 30 129.023V62.977Z" stroke="#000" stroke-width="12" stroke-linecap="round" stroke-linejoin="round"/></svg>