<svg width="192" height="192" viewBox="0 0 192 192" fill="none" xmlns="http://www.w3.org/2000/svg">
<path d="M59.6388 150.615C59.6388 160.522 51.3823 168.858 40.8193 168.858C30.2565 168.858 22 160.522 22 150.615C22 140.707 30.2565 132.37 40.8193 132.37C51.3823 132.37 59.6388 140.707 59.6388 150.615Z" stroke="black" stroke-width="12"/>
<path d="M59.794 148.504V58.8189" stroke="black" stroke-width="12" stroke-linecap="round" stroke-linejoin="round"/>
<path d="M67.1953 64.4551C71.416 64.4551 74.8375 61.0105 74.8375 56.7613C74.8375 52.5121 71.416 49.0674 67.1953 49.0674C62.9746 49.0674 59.5531 52.5121 59.5531 56.7613C59.5531 61.0105 62.9746 64.4551 67.1953 64.4551Z" stroke="black" stroke-width="12"/>
<path d="M130.928 136.287C130.928 146.194 122.672 154.53 112.109 154.53C101.546 154.53 93.2894 146.194 93.2894 136.287C93.2894 126.38 101.546 118.044 112.109 118.044C122.672 118.044 130.928 126.38 130.928 136.287Z" stroke="black" stroke-width="12"/>
<path d="M131.14 134.137V53.8497V47.3945C131.14 39.3368 123.805 33.3015 115.961 34.9055L109.015 36.326" stroke="black" stroke-width="12" stroke-linecap="round" stroke-linejoin="round"/>
<path d="M160.243 25.3382L97.0561 38.8596C92.6944 39.7931 89.9108 44.1144 90.8392 48.5115C91.7676 52.9086 96.0563 55.7164 100.418 54.783L163.605 41.2616C167.967 40.3281 170.75 36.0069 169.821 31.6098C168.893 27.2127 164.605 24.4048 160.243 25.3382Z" stroke="black" stroke-width="12"/>
</svg>
