<svg width="192" height="192" viewBox="0 0 192 192" fill="none" xmlns="http://www.w3.org/2000/svg"><path d="M86 96c0 34 44 48.5 44 48.5S82 136 82 96s48-48 48-48-44 14-44 48Zm0 0c0 10 12 11 12 11l-8.695 4.5" stroke="#000" stroke-width="12" stroke-linecap="round" stroke-linejoin="round"/><path d="M48 100c8 0 16-4 16-4s-8-4-16-4-16 4-16 4 8 4 16 4Zm9.356-4L39 95.794M65 128l-16 9m37.928 24.144c4-6.929 4.536-15.857 4.536-15.857S84 150.215 80 157.144C76 164.072 75.464 173 75.464 173s7.464-4.928 11.464-11.856ZM80 34.856c4 6.929 11.464 11.857 11.464 11.857s-.536-8.928-4.536-15.857C82.928 23.928 75.464 19 75.464 19S76 27.928 80 34.856ZM88 41l-9-16m9 126-9 16m-20.51-30.531c6.928-4 11.857-11.464 11.857-11.464s-8.929.536-15.857 4.536c-6.928 4-11.856 11.464-11.856 11.464s8.928-.536 15.856-4.536Zm0-80.929c6.928 4 11.857 11.465 11.857 11.465s-8.929-.536-15.857-4.536c-6.928-4-11.856-11.464-11.856-11.464s8.928.536 15.856 4.536Zm6.304 8.316L49 54.5" stroke="#000" stroke-width="6" stroke-linecap="round" stroke-linejoin="round"/></svg>