<svg width="192" height="192" fill="none" xmlns="http://www.w3.org/2000/svg"><path d="M96 170c40.869 0 74-33.131 74-74a73.962 73.962 0 0 0-3.331-22.017L147.9 92.751c.066 1.074.1 2.157.1 3.248 0 28.719-23.281 52-52 52s-52-23.281-52-52 23.281-52 52-52c.544 0 1.087.008 1.627.025l19.087-19.087A74.037 74.037 0 0 0 96 22c-40.87 0-74 33.13-74 74 0 40.869 33.13 74 74 74Z" stroke="#000" stroke-width="12" stroke-linecap="round" stroke-linejoin="round"/><path d="M139.758 67.894a52.274 52.274 0 0 0-16.695-16.305l15.869-15.87a74.421 74.421 0 0 1 16.635 16.366l-15.809 15.81Z" stroke="#000" stroke-width="12" stroke-linecap="round" stroke-linejoin="round"/></svg>