<?xml version="1.0" encoding="UTF-8" standalone="no"?>
<svg
   id="vector"
   width="192"
   height="192"
   viewBox="0 0 42.666667 42.666667"
   version="1.1"
   xmlns="http://www.w3.org/2000/svg"
   xmlns:svg="http://www.w3.org/2000/svg">
  <defs
     id="defs1" />
  <g
     id="g_0"
     style="fill:none;stroke:#000000;stroke-width:1.35222;stroke-linecap:round;stroke-linejoin:round;stroke-dasharray:none;stroke-opacity:1"
     transform="matrix(1.9792247,0,0,1.9649457,-2.4872411,-4.2600764)">
    <path
       stroke="#000000"
       stroke-linecap="round"
       stroke-linejoin="round"
       stroke-width="1.69184"
       d="m 8.5857873,13.399017 3.4495187,3.526337 3.449518,-3.526337 m -3.449518,2.778327 V 9.1246699"
       id="path1-4"
       style="fill:none;stroke-width:1.35222;stroke-dasharray:none" />
  </g>
  <path
     id="path1"
     style="fill:none;stroke:#000000;stroke-width:2.66667;stroke-linecap:round;stroke-linejoin:round;stroke-miterlimit:6;stroke-dasharray:none"
     d="m 21.333333,4.8888887 c 9.082016,0 16.444445,7.3624273 16.444445,16.4444443 0,9.082016 -7.362429,16.444445 -16.444445,16.444445 -2.270504,0 -4.433534,-0.460151 -6.400921,-1.292286 M 9.7053557,32.961311 C 8.2174244,31.473381 7.0133084,29.701639 6.1811754,27.734253 M 4.8888888,21.333334 c 0,-2.270504 0.4601518,-4.433535 1.2922866,-6.400921 M 9.7053557,9.7053558 C 11.193285,8.2174247 12.965026,7.0133098 14.932412,6.1811757" />
</svg>
