<svg xmlns="http://www.w3.org/2000/svg" width="192" height="192" fill="none" viewBox="0 0 192 192"><path stroke="#000" stroke-linejoin="round" stroke-width="10" d="M139.453 104.545V76.218l11.16-6.867 18.883 31.76c5.15 16.308-3.433 24.892-18.025 24.892l-12.018-21.458Zm-22.317 23.175h8.584c1.426 3.233 12.502 2.753 36.909.859-8.627 18.681-13.78 25.972-24.034 28.325l-13.734.858v10.301l-22.316-24.034 14.591-16.309Zm-10.3-66.094h28.326l7.725-26.609-8.583 6.008c-6.15-11.44-9.661-16.593-16.309-18.025l-27.468.858L110.27 54.76l-8.585 5.15 5.151 1.717Z"/><path stroke="#000" stroke-linejoin="round" stroke-width="10" d="m45.034 63.007 6.867 4.292v-5.15h25.75l16.31-27.468c-5.15-12.875-18.884-15.45-28.326-6.008l-20.6 34.334ZM21 109.694c0 6.009 3.265 13.059 15.45 29.185 3.356-12.856 6.999-19.546 15.451-30.901V78.793L21 86.52l8.584 6.008C22.77 99.221 21 101.97 21 109.694Z"/><path stroke="#000" stroke-width="10" d="M54.2 161.196h42.06v-26.61H47.334c-6.867 8.585-5.15 21.46 6.867 26.61Z"/><path stroke="#000" stroke-linejoin="round" stroke-width="10" d="M55.334 65.06v60.085h80.686V65.06m-80.686 0h80.686m-80.686 0 41.202 39.485L136.02 65.06"/></svg>