<svg xmlns="http://www.w3.org/2000/svg" width="192" height="192" fill="none"><path stroke="#000" stroke-linecap="round" stroke-linejoin="round" stroke-width="12" d="M96 170c40.869 0 74-33.131 74-74a74 74 0 0 0-3.331-22.017L147.9 92.751q.1 1.611.1 3.248c0 28.719-23.281 52-52 52s-52-23.281-52-52 23.281-52 52-52q.817 0 1.627.025l19.087-19.087A74 74 0 0 0 96 22c-40.87 0-74 33.13-74 74s33.13 74 74 74"/><path stroke="#000" stroke-linecap="round" stroke-linejoin="round" stroke-width="12" d="M139.758 67.894a52.3 52.3 0 0 0-16.695-16.305l15.869-15.87a74.4 74.4 0 0 1 16.635 16.366l-15.809 15.81Z"/></svg>