<svg xmlns="http://www.w3.org/2000/svg" width="192" height="192" fill="none"><path stroke="#000" stroke-linecap="round" stroke-linejoin="round" stroke-width="12" d="M96 154c32.033 0 58-25.967 58-58a57.9 57.9 0 0 0-3.2-19.047c15.038-16.576 22.387-30.342 17.889-36.142-4.472-5.767-19.662-2.378-39.566 7.57-14.003 7-30.338 17.244-46.917 29.832a366 366 0 0 0-13.709 10.929C65.681 91.502 67.377 96 71.051 96h49.898c3.674 0 5.37 4.499 2.554 6.858a366 366 0 0 1-13.709 10.929c-16.578 12.588-32.914 22.833-46.917 29.831-19.904 9.949-35.094 13.338-39.566 7.571-4.498-5.8 2.851-19.566 17.889-36.142A57.9 57.9 0 0 1 38 96c0-32.032 25.968-58 58-58"/></svg>