<svg xmlns="http://www.w3.org/2000/svg" width="192" height="192" fill="none"><path stroke="#000" stroke-linecap="round" stroke-linejoin="round" stroke-width="12" d="m131.205 38.596-13.773-11.42a6 6 0 0 0-7.66 0L99.83 35.42a6 6 0 0 1-7.66 0l-9.942-8.244a6 6 0 0 0-7.66 0l-13.773 11.42m61.609 50.583 6.445-21.195c1.172-3.854-1.712-7.746-5.74-7.746H68.891c-4.028 0-6.912 3.892-5.74 7.746l6.446 21.195m52.807 0-8.802 28.94-8.801 28.941m17.603-57.88h41.591c5.767 0 8.213 7.34 3.6 10.8l-62.794 47.08M69.597 89.18l8.8 28.939L87.2 147.06M69.597 89.18H28.005c-5.767 0-8.213 7.34-3.6 10.8L87.2 147.06m17.601 0-3.06 10.064c-1.725 5.672-9.755 5.672-11.48 0l-3.06-10.064"/><path stroke="#000" stroke-linecap="round" stroke-linejoin="round" stroke-width="8" d="M99.965 85.471 96.64 99.098c-.293 1.203-1.985 1.203-2.278 0L91.034 85.47a1.2 1.2 0 0 1 .215-1.016 1.18 1.18 0 0 1 .925-.455h6.652a1.16 1.16 0 0 1 .925.455 1.2 1.2 0 0 1 .214 1.016Z"/><path stroke="#000" stroke-linecap="round" stroke-linejoin="round" stroke-width="10" d="M150 143.568c2.986-2.873 5.703-5.798 7.899-8.097 2.579-2.698 5.101-1.5 5.101 2.085V170"/></svg>