<svg width="192" height="192" fill="none" xmlns="http://www.w3.org/2000/svg"><circle cx="49" cy="96" r="5" stroke="#000" stroke-width="10" stroke-linecap="round" stroke-linejoin="round"/><circle cx="143" cy="49" r="5" stroke="#000" stroke-width="10" stroke-linecap="round" stroke-linejoin="round"/><path d="M49 69c-14.912 0-27 12.088-27 27 0 8.735 4.148 16.502 10.582 21.437a18.983 18.983 0 0 1 9.147-7.991 18.997 18.997 0 0 1 20.706 4.119 18.983 18.983 0 0 1 2.983 3.872C71.852 112.502 76 104.735 76 96c0-14.912-12.088-27-27-27Zm94-47c-14.912 0-27 12.088-27 27 0 8.735 4.148 16.502 10.582 21.437a18.998 18.998 0 0 1 32.836 0C165.852 65.502 170 57.735 170 49c0-14.912-12.088-27-27-27Z" stroke="#000" stroke-width="12" stroke-linecap="round" stroke-linejoin="round"/><circle cx="143" cy="148.56" r="5" stroke="#000" stroke-width="10" stroke-linecap="round" stroke-linejoin="round"/><path d="M143 121.56c-14.912 0-27 12.088-27 27 0 8.735 4.148 16.502 10.582 21.437A19.006 19.006 0 0 1 143 160.56a19.007 19.007 0 0 1 16.418 9.437C165.852 165.062 170 157.295 170 148.56c0-14.912-12.088-27-27-27ZM75 83l40-27m-40 52 40 27" stroke="#000" stroke-width="12" stroke-linecap="round" stroke-linejoin="round"/></svg>