<svg xmlns="http://www.w3.org/2000/svg" width="192" height="192" fill="none" viewBox="0 0 192 192"><path stroke="#000" stroke-linecap="round" stroke-linejoin="round" stroke-width="12" d="M161.919 62.339C167.085 72.437 170 83.879 170 96c0 40.869-33.131 74-74 74-12.122 0-23.563-2.915-33.661-8.081m99.58-99.58c8.587-16.847 10.75-30.413 4.452-36.71-5.951-5.952-18.393-4.348-33.96 3.094a6.49 6.49 0 0 1-5.506.02C117.5 24.414 107.032 22 96 22c-40.87 0-74 33.13-74 74 0 11.032 2.414 21.5 6.743 30.905a6.49 6.49 0 0 1-.02 5.506c-7.442 15.567-9.046 28.009-3.095 33.96 6.298 6.298 19.864 4.135 36.711-4.452m99.58-99.58c-8.602 16.873-23.648 37.037-43.096 56.484s-39.611 34.494-56.484 43.096"/></svg>