<svg width="192" height="192" fill="none" xmlns="http://www.w3.org/2000/svg"><path d="m130.5 37.5-13.672-11.328a6 6 0 0 0-7.656 0l-9.844 8.156a6 6 0 0 1-7.656 0l-9.844-8.156a6 6 0 0 0-7.656 0L60.5 37.5m61.25 50.25 6.392-21.003c1.173-3.855-1.711-7.747-5.74-7.747H68.598c-4.03 0-6.913 3.892-5.74 7.747L69.25 87.75m52.5 0L113 116.5l-8.75 28.75m17.5-57.5h41.234c5.768 0 8.214 7.344 3.598 10.802L104.25 145.25m-35-57.5L78 116.5l8.75 28.75m-17.5-57.5H28.016c-5.768 0-8.214 7.344-3.598 10.802L86.75 145.25m17.5 0-3.01 9.89c-1.726 5.671-9.754 5.671-11.48 0l-3.01-9.89" stroke="#000" stroke-width="12" stroke-linecap="round" stroke-linejoin="round"/><path d="m103.178 80.216-5.669 22.973c-.5 2.028-3.383 2.028-3.883 0l-5.67-22.973a2 2 0 0 1 1.942-2.48h11.339a2 2 0 0 1 1.942 2.48Z" stroke="#000" stroke-width="6" stroke-linecap="round" stroke-linejoin="round"/><path d="M143.992 142.023c1.533-12.232 18.258-11.828 17.633 0-.422 7.99-8.996 11.71-15.906 15.758-3.958 2.318-2.054 6.57 2.533 6.57H164.5" stroke="#000" stroke-width="10" stroke-linecap="round" stroke-linejoin="round"/></svg>