<svg xmlns="http://www.w3.org/2000/svg" width="192" height="192" fill="none"><circle cx="123" cy="37" r="15" stroke="#000" stroke-linecap="round" stroke-linejoin="round" stroke-width="12"/><circle cx="69" cy="65" r="15" stroke="#000" stroke-linecap="round" stroke-linejoin="round" stroke-width="12"/><path stroke="#000" stroke-linecap="round" stroke-linejoin="round" stroke-width="12" d="M56 108a6 6 0 0 1 6-6h14a6 6 0 0 1 6 6v56a6 6 0 0 1-6 6H62a6 6 0 0 1-6-6zm54-28a6 6 0 0 1 6-6h14a6 6 0 0 1 6 6v84a6 6 0 0 1-6 6h-14a6 6 0 0 1-6-6z"/></svg>