<svg xmlns="http://www.w3.org/2000/svg" width="192" height="192" fill="none"><path stroke="#000" stroke-linecap="round" stroke-linejoin="round" stroke-width="12" d="M25 41c0-8.837 7.163-16 16-16h120a6 6 0 0 1 6 6v120c0 8.837-7.163 16-16 16H31a6 6 0 0 1-6-6z"/><path stroke="#000" stroke-linecap="round" stroke-linejoin="round" stroke-width="12" d="M56 68.041a6 6 0 0 1 4.966-5.91l68-11.9c3.671-.642 7.034 2.183 7.034 5.91v67.818a6 6 0 0 1-4.966 5.91l-68 11.9c-3.671.643-7.034-2.183-7.034-5.91z"/></svg>