<svg width="192" height="192" fill="none" xmlns="http://www.w3.org/2000/svg"><path d="m73.292 156.466 46.047-67.519m-6.308-19.56L95.37 93.994" stroke="#000" stroke-width="12" stroke-linecap="round"/><path d="M96 68.756H74.15c-35.563 0-35.157 16.293-31.083 44.17 4.492 24.493 12.737 33.515 21.751 40.537 9.717 7.058 20.986 13.73 31.183 13.73m0-98.437h21.852c35.562 0 35.156 16.293 31.082 44.17-4.492 24.493-12.737 33.515-21.751 40.537-9.716 7.058-20.986 13.73-31.183 13.73" stroke="#000" stroke-width="12" stroke-linecap="round" stroke-linejoin="round"/><path d="M67.26 68.988C64.158 38.864 80.182 23.876 96 24.064c8.822-.105 17.708 4.511 23.305 13.84" stroke="#000" stroke-width="12" stroke-linecap="round" stroke-linejoin="round"/></svg>