<svg xmlns="http://www.w3.org/2000/svg" width="192" height="192" fill="none"><g stroke="#000" stroke-linecap="round" stroke-width="12"><path d="m72.498 158.91 47.654-69.816m-6.528-20.225L95.347 94.313"/><path stroke-linejoin="round" d="M95.999 68.214H73.386c-36.804 0-36.384 16.847-32.168 45.673 4.649 25.326 13.182 34.655 22.51 41.916C73.784 163.101 85.446 170 95.999 170m0-101.79h22.615c36.803 0 36.383 16.847 32.167 45.673-4.649 25.326-13.182 34.655-22.51 41.916-10.055 7.298-21.718 14.197-32.271 14.197"/><path stroke-linejoin="round" d="M66.256 68.454c-3.21-31.149 13.373-46.647 29.743-46.452 9.13-.109 18.326 4.664 24.118 14.311"/></g></svg>
