<svg width="192" height="192" fill="none" xmlns="http://www.w3.org/2000/svg"><path d="M121 72a25.007 25.007 0 0 0-7.322-17.678A25.01 25.01 0 0 0 96 47a25 25 0 0 0-25 25m0 48a24.999 24.999 0 0 0 34.567 23.097 25.01 25.01 0 0 0 13.53-13.53A25.006 25.006 0 0 0 121 120M71 96.5a24.5 24.5 0 1 0-49 0" stroke="#000" stroke-width="12" stroke-linecap="round" stroke-linejoin="round"/><path d="M22 120.5a24.5 24.5 0 0 0 49 0m99-49a24.499 24.499 0 0 0-41.824-17.324A24.499 24.499 0 0 0 121 71.5m0 24a24.499 24.499 0 0 0 41.824 17.324A24.499 24.499 0 0 0 170 95.5M71 72v48.5M121 72v48.5m49-49v24m-148 1v24" stroke="#000" stroke-width="12" stroke-linecap="round" stroke-linejoin="round"/></svg>