<svg xmlns="http://www.w3.org/2000/svg" width="192" height="192" fill="none"><circle cx="156" cy="156" r="14" stroke="#000" stroke-linecap="round" stroke-linejoin="round" stroke-width="12"/><path stroke="#000" stroke-linecap="round" stroke-linejoin="round" stroke-width="12" d="M85 170c19.882 0 36-16.118 36-36a37 37 0 0 0-.129-3.074C146.04 125.88 165 103.654 165 77c0-30.376-24.624-55-55-55-27.329 0-50.002 19.932-54.276 46.052A23.9 23.9 0 0 0 46 66c-13.255 0-24 10.745-24 24s10.745 24 24 24c3.984 0 7.741-.971 11.048-2.688A35.85 35.85 0 0 0 49 134c0 19.882 16.118 36 36 36"/><circle cx="135" cy="66" r="6" stroke="#000" stroke-linecap="round" stroke-linejoin="round" stroke-width="12"/><circle cx="103" cy="66" r="6" stroke="#000" stroke-linecap="round" stroke-linejoin="round" stroke-width="12"/></svg>