<svg width="192" height="192" viewBox="0 0 192 192" fill="none" xmlns="http://www.w3.org/2000/svg"><path d="m32 32 128 128M77.615 77.615a26.002 26.002 0 0 1 42.406 8.435 26.012 26.012 0 0 1 0 19.9 26.023 26.023 0 0 1-5.636 8.435m-43.499-11.656a25.998 25.998 0 0 0 18.385 18.385" stroke="#000" stroke-width="12" stroke-linecap="round" stroke-linejoin="round"/><path d="M52.241 60.241C30.077 74.462 22 96 22 96s18 48 74 48c13.11 0 24.138-2.631 33.339-6.661m23.674-16.326C165.243 108.685 170 96 170 96s-18-48-74-48c-5.266 0-10.196.424-14.806 1.194" stroke="#000" stroke-width="12" stroke-linecap="round" stroke-linejoin="round"/></svg>