<svg width="192" height="192" viewBox="0 0 192 192" fill="none" xmlns="http://www.w3.org/2000/svg">
<path fill-rule="evenodd" clip-rule="evenodd" d="M122.25 96C122.25 110.497 110.497 122.25 96 122.25C81.5025 122.25 69.75 110.497 69.75 96C69.75 81.5025 81.5025 69.75 96 69.75C110.497 69.75 122.25 81.5025 122.25 96ZM109.65 96C109.65 103.539 103.539 109.65 96 109.65C88.4613 109.65 82.35 103.539 82.35 96C82.35 88.4613 88.4613 82.35 96 82.35C103.539 82.35 109.65 88.4613 109.65 96Z" fill="black"/>
<path fill-rule="evenodd" clip-rule="evenodd" d="M83.4 18.3C83.4 14.8206 80.5794 12 77.1 12C73.6206 12 70.8 14.8206 70.8 18.3V37.2H66.6C50.3628 37.2 37.2 50.3628 37.2 66.6V70.8H18.3C14.8206 70.8 12 73.6206 12 77.1C12 80.5794 14.8206 83.4 18.3 83.4H37.2V108.6H18.3C14.8206 108.6 12 111.421 12 114.9C12 118.379 14.8206 121.2 18.3 121.2H37.2V125.4C37.2 141.637 50.3628 154.8 66.6 154.8H70.8V173.7C70.8 177.179 73.6206 180 77.1 180C80.5794 180 83.4 177.179 83.4 173.7V154.8H108.6V173.7C108.6 177.179 111.421 180 114.9 180C118.379 180 121.2 177.179 121.2 173.7V154.8H125.4C141.637 154.8 154.8 141.637 154.8 125.4V121.2H173.7C177.179 121.2 180 118.379 180 114.9C180 111.421 177.179 108.6 173.7 108.6H154.8V83.4H173.7C177.179 83.4 180 80.5794 180 77.1C180 73.6206 177.179 70.8 173.7 70.8H154.8V66.6C154.8 50.3628 141.637 37.2 125.4 37.2H121.2V18.3C121.2 14.8206 118.379 12 114.9 12C111.421 12 108.6 14.8206 108.6 18.3V37.2H83.4V18.3ZM66.6 49.8H125.4C134.678 49.8 142.2 57.3216 142.2 66.6V125.4C142.2 134.678 134.678 142.2 125.4 142.2H66.6C57.3216 142.2 49.8 134.678 49.8 125.4V66.6C49.8 57.3216 57.3216 49.8 66.6 49.8Z" fill="black"/>
</svg>
