<?xml version="1.0" encoding="utf-8"?>
	<svg version="1.1" xmlns="http://www.w3.org/2000/svg" xmlns:xlink="http://www.w3.org/1999/xlink" x="0px" y="0px" width="240.0" height="240.0" xml:space="preserve">
		<path d="M209.478,188.422L198.944,188.422L198.944,198.944C198.944,210.569 189.524,219.994 177.9,220L62.1,220C50.476,219.994 41.056,210.569 41.056,198.944L41.056,188.422L30.522,188.422C27.73,188.422 25.052,187.312 23.078,185.336C21.104,183.361 19.997,180.681 20,177.889L20,114.733C20,108.922 24.711,104.211 30.522,104.211L41.056,104.211L41.056,41.056C41.056,29.422 50.478,20 62.1,20L156.844,20L198.956,62.111L198.956,104.211L209.478,104.211C215.289,104.211 220,108.922 220,114.733L220,177.889C220.003,180.681 218.896,183.361 216.922,185.336C214.948,187.312 212.27,188.422 209.478,188.422ZM51.589,198.944C51.589,204.756 56.289,209.478 62.1,209.478L177.9,209.478C180.693,209.478 183.371,208.368 185.344,206.392C187.318,204.416 188.425,201.737 188.422,198.944L188.422,188.422L51.578,188.422L51.578,198.944L51.589,198.944ZM188.411,72.633L167.356,72.633C161.771,72.633 156.416,70.415 152.467,66.466C148.518,62.518 146.3,57.162 146.3,51.578L146.3,30.522L62.111,30.522C59.319,30.522 56.64,31.632 54.667,33.608C52.693,35.584 51.586,38.263 51.589,41.056L51.589,104.211L188.433,104.211L188.433,72.633L188.411,72.633ZM58,115.189L40.478,115.189L40.478,177.833L49.478,177.833L49.478,155.022L56.567,155.022L64.044,177.833L74.189,177.833L65.556,153C68.711,151.211 73.333,145.7 73.333,135.378C73.333,123.9 68.356,115.178 58.011,115.178L58,115.189ZM49.456,143.856L49.456,125.411L56.678,125.411C60.844,125.411 63.933,128.544 63.933,134.822C63.933,140.8 61.1,143.856 56.556,143.856L49.456,143.856ZM80.422,150.456C80.422,167.489 87.367,177.933 99.067,177.933C110.8,177.933 117.8,167.489 117.8,150.456L117.8,143.111C117.8,126.033 110.856,115.278 99.133,115.278C87.433,115.278 80.422,125.944 80.422,143.111L80.422,150.444L80.422,150.456ZM89.733,141.767C89.733,130.756 93.611,125.044 99.1,125.044C104.611,125.044 108.489,130.756 108.489,141.767L108.489,149.289C108.489,160.311 104.611,165.711 99.1,165.711C93.611,165.711 89.733,160.311 89.733,149.289L89.733,141.767ZM125.022,150.456C125.022,167.489 131.956,177.933 143.656,177.933C155.389,177.933 162.389,167.489 162.389,150.456L162.389,143.111C162.389,126.033 155.456,115.278 143.722,115.278C132.022,115.278 125.022,125.944 125.022,143.111L125.022,150.444L125.022,150.456ZM134.322,141.767C134.322,130.756 138.211,125.044 143.689,125.044C149.211,125.044 153.089,130.756 153.089,141.767L153.089,149.289C153.089,160.311 149.2,165.711 143.689,165.711C138.2,165.711 134.322,160.311 134.322,149.289L134.322,141.767ZM187.456,177.833L187.456,126.656L199.511,126.656L199.511,115.178L166.267,115.178L166.267,126.667L178.311,126.667L178.311,177.844L187.456,177.844L187.456,177.833Z" fill="#000" stroke="#00000000" stroke-width="1.0" stroke-miterlimit=""/>
	</svg>
