<svg xmlns="http://www.w3.org/2000/svg" width="192" height="192" fill="none" viewBox="0 0 192 192"><path stroke="#000" stroke-linecap="round" stroke-linejoin="round" stroke-width="12" d="M56.794 83.204c2.206-4.44 8.54-4.44 10.746 0l12.025 24.2c2.087 4.199 7.968 4.489 10.458.516l23.059-36.805c2.351-3.752 7.818-3.752 10.169 0l22.994 36.699c2.504 3.996-.369 9.186-5.085 9.186H49.681c-4.453 0-7.355-4.681-5.373-8.67zM170 72V54c0-17.673-14.327-32-32-32h-18m50 98v18c0 17.673-14.327 32-32 32h-18M22 72V54c0-17.673 14.327-32 32-32h18m-50 98v18c0 17.673 14.327 32 32 32h18"/></svg>