<svg xmlns="http://www.w3.org/2000/svg" width="192" height="192" fill="none" viewBox="0 0 192 192"><g stroke="#000" stroke-linecap="round" stroke-width="12"><path d="M118.668 154.228c43.325 10.874 60.827-20.981 41.082-57.711M39.478 92.392c-31.007 32.05-12.173 63.107 29.489 64.373m62.908-101.889.62-.041c-12.226-42.977-48.579-42.216-70.52-6.744"/><path stroke-linejoin="round" d="M132.334 54.893h-.459a184.8 184.8 0 0 0-45.141 3.273q-26.836 5.152-52.548 18.226l-1.572.798h0c.116.29.232.571.348.853a186 186 0 0 0 6.508 14.34 181 181 0 0 0 9.43 16.44 184 184 0 0 0 15.346 20.613q17.866 21.001 42.129 36.97 1.205.793 2.42 1.584h0a183 183 0 0 0 9.865-13.745 183 183 0 0 0 9.516-16.377 184 184 0 0 0 10.534-24.714 196.8 196.8 0 0 0 10.477-53.66.68 11.588 0 0 0 .17-2.897h0a178 178 0 0 0-16.75-1.68M39.56 92.392"/><path stroke-linejoin="round" d="M113.391 123.997 97.2 107.985c-2.752-2.657-1.113-6.12 2.135-5.557 5.56-.1 9.649-2.66 11.858-6.099a11.85 11.85 0 0 0 1.841-5.188 10.34 10.34 0 0 0-.794-5.226c-1.345-3.079-4.398-5.727-9.446-6.976h-18.47a1.717 1.717 0 0 0-1.713 1.713v42.79"/></g></svg>