<svg xmlns="http://www.w3.org/2000/svg" width="192" height="192" fill="none" viewBox="0 0 192 192"><g stroke="#000" stroke-linecap="round" stroke-width="12"><path d="M118.668 154.228c43.325 10.874 60.827-20.981 41.082-57.711M39.478 92.392c-31.007 32.05-12.173 63.107 29.489 64.373m62.908-101.889.62-.041c-12.226-42.977-48.579-42.216-70.52-6.744"/><path stroke-linejoin="round" d="M132.334 54.893h-.459a184.756 184.756 0 0 0-45.141 3.273c-17.891 3.434-35.407 9.51-52.548 18.226l-1.572.798h0c.116.29.232.571.348.853a185.715 185.715 0 0 0 6.508 14.34 180.88 180.88 0 0 0 9.43 16.44 183.858 183.858 0 0 0 15.346 20.613c11.91 14.001 25.954 26.324 42.129 36.97.803.529 1.61 1.057 2.42 1.584h0a183.345 183.345 0 0 0 9.865-13.745 183.1 183.1 0 0 0 9.516-16.377 183.71 183.71 0 0 0 10.534-24.714 196.834 196.834 0 0 0 10.477-53.66.68 11.588 0 0 0 .17-2.897h0a177.484 177.484 0 0 0-16.75-1.68m-14.063 99.32h0M39.56 92.392h0"/><path stroke-linejoin="round" d="M113.391 123.997 97.2 107.985c-2.752-2.657-1.113-6.12 2.135-5.557 5.56-.1 9.649-2.66 11.858-6.099a11.85 11.85 0 0 0 1.841-5.188 10.344 10.344 0 0 0-.794-5.226c-1.345-3.079-4.398-5.727-9.446-6.976h-18.47a1.717 1.717 0 0 0-1.713 1.713v42.79"/></g></svg>