<svg id="svg" version="1.1" xmlns="http://www.w3.org/2000/svg" xmlns:xlink="http://www.w3.org/1999/xlink" width="400" height="400" viewBox="0, 0, 400,400"><g id="svgg"><path id="path0" d="M171.875 39.063 C 170.586 39.896,167.288 40.588,164.545 40.601 C 161.803 40.614,159.184 41.233,158.724 41.977 C 158.265 42.720,155.235 43.685,151.991 44.120 C 145.436 45.000,122.783 55.299,113.602 61.573 C 110.342 63.802,107.342 65.625,106.938 65.625 C 102.213 65.625,65.625 102.980,65.625 107.804 C 65.625 108.668,64.984 109.375,64.201 109.375 C 62.194 109.375,45.516 143.748,44.411 150.164 C 43.908 153.082,42.899 156.875,42.167 158.594 C 38.353 167.561,35.692 231.629,38.997 234.934 C 39.892 235.830,40.625 238.841,40.625 241.627 C 40.625 244.412,41.237 247.069,41.986 247.532 C 42.734 247.994,43.802 250.651,44.359 253.436 C 45.594 259.611,53.449 276.562,55.076 276.563 C 55.722 276.563,56.250 277.272,56.250 278.139 C 56.250 282.723,75.310 308.531,87.630 320.628 C 105.515 338.189,136.056 357.343,150.725 360.197 C 153.334 360.704,156.875 361.684,158.594 362.374 C 169.178 366.625,175.068 367.187,209.003 367.187 C 231.401 367.188,245.495 366.594,246.094 365.625 C 246.625 364.766,249.086 364.063,251.563 364.063 C 254.039 364.063,256.500 363.359,257.031 362.500 C 257.562 361.641,259.431 360.938,261.184 360.938 C 277.323 360.937,326.290 325.201,340.400 303.125 C 341.773 300.977,343.382 298.862,343.976 298.425 C 348.599 295.024,356.358 276.958,355.933 270.582 C 355.136 258.603,353.485 258.730,324.736 272.984 C 310.702 279.943,295.352 286.800,290.625 288.224 C 285.898 289.647,279.507 291.548,276.422 292.449 C 245.760 301.395,197.966 273.863,183.749 239.063 C 182.169 235.195,180.305 230.625,179.607 228.906 C 171.799 209.678,177.542 171.302,191.533 149.205 C 201.216 133.914,222.944 118.750,235.173 118.750 C 237.885 118.750,240.631 118.223,241.275 117.579 C 246.032 112.822,272.486 112.586,283.594 117.201 C 285.313 117.915,291.992 120.439,298.438 122.811 C 304.883 125.182,317.394 130.863,326.239 135.436 C 343.744 144.485,347.487 145.321,349.945 140.728 C 353.618 133.865,349.441 124.223,333.325 102.366 C 311.082 72.198,280.831 51.894,243.750 42.243 C 239.883 41.237,234.559 39.758,231.920 38.957 C 225.578 37.031,174.880 37.121,171.875 39.063 M222.656 48.438 C 223.187 49.297,226.351 50.000,229.688 50.000 C 233.024 50.000,236.188 50.703,236.719 51.563 C 237.250 52.422,239.711 53.125,242.188 53.125 C 244.664 53.125,247.076 53.748,247.547 54.510 C 248.018 55.272,251.046 56.392,254.276 56.998 C 257.506 57.604,260.502 58.562,260.934 59.128 C 261.366 59.693,265.938 62.266,271.094 64.844 C 276.250 67.422,280.703 70.059,280.990 70.703 C 281.276 71.348,282.537 71.875,283.792 71.875 C 285.047 71.875,287.970 73.633,290.287 75.781 C 292.604 77.930,295.004 79.688,295.621 79.688 C 297.576 79.688,323.317 106.535,324.285 109.583 C 324.794 111.187,325.819 112.500,326.562 112.500 C 327.306 112.500,328.321 113.782,328.819 115.350 C 329.316 116.917,331.192 119.776,332.987 121.703 C 337.442 126.484,336.094 127.090,329.210 123.400 C 326.041 121.702,322.040 120.313,320.318 120.313 C 318.596 120.313,317.188 119.775,317.188 119.119 C 317.188 117.488,305.403 112.500,301.552 112.500 C 299.839 112.500,298.438 111.797,298.438 110.938 C 298.438 110.078,296.721 109.375,294.623 109.375 C 292.526 109.375,290.375 108.672,289.844 107.813 C 289.313 106.953,286.852 106.250,284.375 106.250 C 281.898 106.250,279.476 105.610,278.993 104.827 C 278.509 104.045,272.139 102.907,264.838 102.299 C 257.536 101.691,251.563 100.573,251.563 99.815 C 251.563 99.057,237.852 98.438,221.094 98.438 C 204.336 98.438,190.625 99.049,190.625 99.797 C 190.625 100.544,187.637 101.502,183.984 101.925 C 177.150 102.716,163.312 108.472,159.654 112.045 C 158.518 113.155,156.836 114.063,155.915 114.063 C 153.967 114.063,132.813 135.533,132.813 137.510 C 132.813 138.241,131.934 139.796,130.859 140.964 C 128.824 143.179,126.158 147.531,121.988 155.444 C 120.637 158.008,118.301 161.255,116.797 162.658 C 115.293 164.062,114.057 165.831,114.049 166.590 C 114.042 167.348,108.944 173.025,102.721 179.205 C 84.896 196.906,80.431 200.617,74.609 202.571 C 73.105 203.076,71.875 204.111,71.875 204.870 C 71.875 205.629,70.820 206.250,69.531 206.250 C 68.242 206.250,67.188 206.953,67.188 207.813 C 67.188 208.672,66.104 209.375,64.780 209.375 C 61.478 209.375,53.125 215.745,53.125 218.263 C 53.125 219.390,52.504 220.313,51.745 220.313 C 50.986 220.313,49.780 221.895,49.065 223.828 C 48.246 226.044,47.585 218.686,47.277 203.921 C 46.961 188.838,47.359 180.307,48.394 179.963 C 49.277 179.668,50.000 176.363,50.000 172.618 C 50.000 168.873,50.703 165.375,51.563 164.844 C 52.422 164.313,53.125 161.852,53.125 159.375 C 53.125 156.898,53.767 154.475,54.552 153.990 C 55.336 153.505,56.453 150.300,57.033 146.867 C 57.613 143.434,58.729 140.625,59.512 140.625 C 60.296 140.625,60.938 139.561,60.937 138.260 C 60.937 135.663,63.743 130.224,66.797 126.902 C 67.871 125.733,68.750 123.772,68.750 122.545 C 68.750 121.317,69.453 120.313,70.313 120.313 C 71.172 120.313,71.875 119.426,71.875 118.343 C 71.875 117.260,73.633 114.479,75.781 112.162 C 77.930 109.845,79.687 107.476,79.687 106.899 C 79.687 105.527,105.527 79.688,106.899 79.688 C 107.476 79.688,109.845 77.930,112.162 75.781 C 114.479 73.633,117.260 71.875,118.343 71.875 C 119.426 71.875,120.313 71.248,120.313 70.482 C 120.313 69.716,122.070 68.648,124.219 68.108 C 126.367 67.569,128.125 66.438,128.125 65.595 C 128.125 64.752,129.531 64.063,131.250 64.063 C 132.969 64.063,134.375 63.359,134.375 62.500 C 134.375 61.641,135.349 60.938,136.540 60.938 C 137.731 60.938,140.719 59.887,143.181 58.603 C 145.642 57.320,149.238 56.265,151.172 56.260 C 153.105 56.254,154.688 55.547,154.688 54.688 C 154.688 53.828,156.755 53.125,159.283 53.125 C 161.810 53.125,164.313 52.422,164.844 51.563 C 165.375 50.703,168.932 50.000,172.748 50.000 C 176.565 50.000,179.688 49.297,179.688 48.438 C 179.688 46.339,221.359 46.339,222.656 48.438 M210.156 107.813 C 209.625 108.672,207.826 109.375,206.158 109.375 C 204.490 109.375,203.125 110.078,203.125 110.938 C 203.125 111.797,202.352 112.500,201.408 112.500 C 194.928 112.500,162.500 139.799,162.500 145.254 C 162.500 146.023,161.592 147.581,160.481 148.717 C 157.149 152.125,142.188 183.473,142.188 187.047 C 142.188 188.872,141.627 190.599,140.942 190.885 C 138.998 191.698,132.614 206.261,131.681 212.012 C 131.219 214.858,130.230 217.188,129.483 217.188 C 128.736 217.188,128.125 219.607,128.125 222.564 C 128.125 225.521,127.521 228.314,126.784 228.770 C 122.747 231.264,121.164 301.407,124.806 316.406 C 125.849 320.703,127.102 326.152,127.591 328.516 C 128.080 330.879,129.103 332.813,129.865 332.813 C 130.627 332.813,131.250 333.915,131.250 335.262 C 131.250 338.643,126.383 336.926,117.135 330.282 C 113.092 327.377,109.369 325.000,108.864 325.000 C 107.052 325.000,81.309 297.960,80.403 295.105 C 79.894 293.500,78.981 292.187,78.375 292.187 C 77.769 292.188,75.948 289.727,74.328 286.719 C 72.708 283.711,70.822 281.250,70.137 281.250 C 69.452 281.250,68.428 278.781,67.862 275.764 C 67.296 272.747,66.210 269.893,65.448 269.422 C 64.686 268.951,64.063 266.849,64.063 264.752 C 64.063 262.654,63.359 260.938,62.500 260.938 C 61.641 260.938,60.938 259.320,60.938 257.344 C 60.938 255.367,60.190 253.003,59.277 252.089 C 51.982 244.794,60.330 217.458,69.922 217.233 C 70.996 217.208,71.875 216.540,71.875 215.749 C 71.875 214.958,73.889 213.868,76.351 213.328 C 78.813 212.787,82.300 210.973,84.099 209.297 C 85.897 207.621,87.989 206.250,88.746 206.250 C 89.503 206.250,92.678 203.613,95.801 200.391 C 98.924 197.168,102.238 193.828,103.166 192.969 C 111.512 185.241,125.296 169.430,128.215 164.236 C 130.201 160.703,132.323 157.813,132.931 157.813 C 133.539 157.813,134.477 156.055,135.017 153.906 C 135.556 151.758,136.687 150.000,137.530 150.000 C 138.373 150.000,139.063 149.328,139.063 148.507 C 139.063 144.472,157.395 123.438,160.912 123.438 C 161.688 123.438,163.242 122.126,164.365 120.522 C 165.488 118.919,168.692 117.105,171.484 116.492 C 174.277 115.879,176.563 114.729,176.563 113.938 C 176.563 113.147,178.279 112.500,180.377 112.500 C 182.474 112.500,184.625 111.797,185.156 110.938 C 185.687 110.078,188.190 109.375,190.717 109.375 C 193.245 109.375,195.313 108.672,195.313 107.813 C 195.313 106.953,198.870 106.250,203.217 106.250 C 208.089 106.250,210.751 106.849,210.156 107.813 M248.832 131.403 C 234.067 141.860,223.072 159.947,228.301 165.176 C 230.487 167.362,228.785 170.298,225.298 170.356 C 212.790 170.564,198.910 186.007,204.825 193.135 C 206.391 195.021,205.885 196.353,202.043 200.455 C 192.937 210.178,192.188 212.212,192.188 227.197 L 192.188 241.199 199.609 248.348 C 204.295 252.862,209.623 256.251,214.063 257.542 C 217.930 258.667,223.253 260.242,225.892 261.043 C 236.907 264.387,250.000 261.325,250.000 255.405 C 250.000 253.949,253.627 255.607,260.447 260.181 C 272.063 267.972,280.851 269.447,286.295 264.520 C 288.675 262.366,291.742 261.940,302.248 262.303 C 319.493 262.899,329.089 258.109,335.811 245.549 C 337.830 241.777,338.077 216.729,336.134 212.869 C 326.544 193.822,324.822 191.802,318.998 192.766 C 315.544 193.337,315.390 193.012,316.233 186.920 C 318.830 168.146,318.933 165.761,317.277 162.667 C 315.936 160.162,314.021 159.375,309.271 159.375 C 302.639 159.375,302.414 159.111,300.792 149.397 C 300.035 144.859,297.661 141.207,291.397 134.944 L 283.016 126.563 269.243 126.632 C 256.498 126.697,254.973 127.053,248.832 131.403 M182.191 140.872 C 180.814 142.837,179.688 145.637,179.688 147.092 C 179.688 148.548,179.127 149.974,178.442 150.260 C 175.684 151.414,170.196 166.279,169.275 175.092 C 168.736 180.251,167.694 184.843,166.960 185.297 C 165.204 186.382,165.224 221.443,166.982 222.529 C 167.728 222.990,168.810 226.927,169.388 231.278 C 169.965 235.629,171.815 241.643,173.500 244.642 C 175.184 247.641,176.562 251.128,176.563 252.391 C 176.563 253.654,177.218 254.688,178.020 254.688 C 178.821 254.688,179.916 256.070,180.452 257.759 C 181.467 260.957,206.414 287.500,208.405 287.500 C 209.030 287.500,212.128 289.258,215.289 291.406 C 218.451 293.555,222.633 295.313,224.581 295.313 C 226.530 295.313,228.125 296.016,228.125 296.875 C 228.125 297.734,229.742 298.438,231.719 298.438 C 233.695 298.438,236.191 299.316,237.266 300.391 C 238.664 301.789,246.271 302.344,264.063 302.344 C 281.854 302.344,289.461 301.789,290.859 300.391 C 291.934 299.316,294.430 298.438,296.406 298.438 C 298.383 298.438,300.000 297.734,300.000 296.875 C 300.000 296.016,301.230 295.310,302.734 295.306 C 304.238 295.302,308.928 293.545,313.155 291.400 C 317.383 289.255,321.719 287.500,322.791 287.500 C 323.863 287.500,324.974 286.973,325.260 286.328 C 325.968 284.736,342.581 276.435,343.406 277.261 C 343.768 277.622,342.595 279.495,340.800 281.422 C 339.005 283.349,337.089 286.333,336.544 288.052 C 335.998 289.771,333.881 292.980,331.838 295.182 C 329.796 297.385,328.125 299.690,328.125 300.306 C 328.125 301.689,304.705 325.000,303.316 325.000 C 302.764 325.000,300.561 326.606,298.422 328.568 C 296.282 330.531,292.070 333.363,289.063 334.862 C 282.841 337.961,277.710 341.002,276.563 342.269 C 275.076 343.910,264.362 348.438,261.965 348.438 C 260.642 348.438,259.125 349.141,258.594 350.000 C 258.063 350.859,255.912 351.563,253.814 351.563 C 251.716 351.563,250.000 352.266,250.000 353.125 C 250.000 353.984,247.539 354.688,244.531 354.688 C 241.523 354.688,239.063 355.391,239.063 356.250 C 239.063 357.240,227.604 357.813,207.813 357.813 C 188.021 357.813,176.563 357.240,176.563 356.250 C 176.563 355.391,174.143 354.688,171.186 354.688 C 168.229 354.687,165.375 353.984,164.844 353.125 C 164.313 352.266,162.203 351.562,160.156 351.563 C 158.109 351.563,156.033 350.913,155.543 350.120 C 155.053 349.327,152.721 348.254,150.361 347.736 C 145.932 346.763,139.063 334.765,139.063 328.003 C 139.063 326.351,138.419 325.000,137.633 325.000 C 136.847 325.000,135.710 319.727,135.106 313.281 C 134.502 306.836,133.387 301.563,132.629 301.563 C 130.863 301.563,130.809 262.957,132.573 261.867 C 133.301 261.417,134.348 254.171,134.900 245.764 C 135.453 237.358,136.615 230.243,137.483 229.953 C 138.352 229.664,139.063 227.418,139.063 224.962 C 139.063 222.506,139.766 220.062,140.625 219.531 C 141.484 219.000,142.188 216.891,142.188 214.844 C 142.188 212.797,142.811 210.737,143.573 210.266 C 144.335 209.795,145.421 206.941,145.987 203.924 C 146.553 200.906,147.688 198.438,148.508 198.438 C 149.329 198.438,150.000 197.502,150.000 196.359 C 150.000 195.215,151.582 191.137,153.516 187.296 C 155.449 183.455,158.041 177.711,159.276 174.531 C 160.511 171.352,162.061 168.750,162.721 168.750 C 163.381 168.750,164.383 166.289,164.947 163.281 C 165.511 160.273,166.422 157.797,166.971 157.778 C 167.520 157.759,170.078 154.597,172.656 150.750 C 175.234 146.904,177.871 143.755,178.516 143.753 C 179.160 143.752,179.688 143.017,179.688 142.122 C 179.688 140.292,183.293 135.967,184.144 136.775 C 184.446 137.063,183.567 138.906,182.191 140.872 M276.563 137.500 C 276.563 138.359,277.298 139.063,278.196 139.063 C 282.777 139.063,292.188 152.319,292.188 158.772 C 292.188 161.873,291.398 162.500,287.500 162.500 C 283.985 162.500,282.813 161.779,282.813 159.617 C 282.813 158.032,281.406 155.462,279.688 153.906 C 277.969 152.351,276.563 150.132,276.563 148.977 C 276.563 147.821,275.566 146.875,274.349 146.875 C 273.132 146.875,271.897 146.159,271.605 145.284 C 271.313 144.409,267.388 143.256,262.881 142.723 C 253.877 141.656,252.904 140.687,258.203 138.062 C 262.666 135.852,276.563 135.426,276.563 137.500 M265.441 155.078 L 271.094 158.594 265.625 159.032 C 262.617 159.273,258.750 160.096,257.031 160.861 C 255.313 161.625,251.094 162.619,247.656 163.069 L 241.406 163.888 248.248 157.725 C 256.182 150.578,257.803 150.329,265.441 155.078 M306.250 181.939 C 306.250 189.193,305.547 195.563,304.688 196.094 C 303.713 196.696,303.125 193.571,303.125 187.788 C 303.125 182.688,302.686 176.318,302.148 173.633 C 301.375 169.767,301.701 168.750,303.711 168.750 C 305.854 168.750,306.250 170.806,306.250 181.939 M290.625 175.781 C 290.625 177.468,288.899 178.125,284.467 178.125 C 277.626 178.125,274.524 175.606,280.055 174.543 C 287.584 173.096,290.625 173.452,290.625 175.781 M235.938 178.020 C 235.938 178.821,234.355 179.976,232.422 180.587 C 230.488 181.197,227.769 183.003,226.379 184.599 C 224.989 186.194,223.056 187.500,222.082 187.500 C 221.109 187.500,220.313 188.203,220.313 189.063 C 220.313 189.922,218.906 190.625,217.188 190.625 C 211.666 190.625,213.811 188.276,224.609 182.495 C 230.410 179.389,235.332 176.784,235.547 176.705 C 235.762 176.627,235.938 177.218,235.938 178.020 M267.395 190.864 C 271.932 196.096,268.923 203.125,262.146 203.125 C 259.307 203.125,254.688 206.484,254.688 208.548 C 254.688 209.615,256.823 212.322,262.180 218.044 L 265.767 221.875 256.321 221.875 L 246.875 221.875 246.875 204.688 L 246.875 187.500 255.676 187.500 C 262.741 187.500,265.053 188.164,267.395 190.864 M284.375 204.688 C 284.375 214.141,284.098 221.875,283.759 221.875 C 282.718 221.875,273.438 212.869,273.438 211.859 C 273.438 211.336,275.547 208.702,278.125 206.004 C 282.768 201.145,284.906 190.625,281.250 190.625 C 280.391 190.625,279.688 189.922,279.688 189.063 C 279.688 188.203,280.742 187.500,282.031 187.500 C 283.973 187.500,284.375 190.451,284.375 204.688 M237.500 202.586 L 237.500 212.984 234.215 210.011 C 227.258 203.716,226.238 199.281,230.886 195.541 C 236.996 190.624,237.500 191.161,237.500 202.586 M217.188 203.906 C 217.188 205.195,217.891 206.250,218.750 206.250 C 219.609 206.250,220.313 207.305,220.313 208.594 C 220.313 209.883,219.609 210.938,218.750 210.938 C 217.891 210.938,217.188 211.860,217.188 212.987 C 217.188 214.114,215.781 216.545,214.063 218.390 C 209.954 222.800,209.713 237.253,213.645 243.414 C 216.305 247.582,216.298 247.615,213.256 245.313 C 197.708 233.545,196.959 220.839,210.938 206.013 C 215.472 201.204,217.188 200.626,217.188 203.906 M316.292 212.740 C 317.644 215.450,318.750 218.541,318.750 219.609 C 318.750 221.784,308.541 231.250,306.196 231.250 C 303.896 231.250,304.043 230.701,308.932 221.042 C 309.817 219.296,311.037 215.604,311.644 212.839 C 313.007 206.633,313.243 206.628,316.292 212.740 M240.625 244.092 C 240.625 247.844,224.564 241.127,222.849 236.658 C 222.313 235.262,221.875 231.914,221.875 229.218 L 221.875 224.317 231.250 233.594 C 236.406 238.696,240.625 243.420,240.625 244.092 M326.678 238.764 C 325.755 239.071,325.000 239.999,325.000 240.826 C 325.000 248.213,300.075 255.432,292.417 250.262 C 287.742 247.106,293.157 242.188,301.306 242.188 C 310.597 242.188,315.695 239.852,322.227 232.604 L 327.344 226.927 327.850 232.566 C 328.128 235.667,327.601 238.456,326.678 238.764 M285.938 233.615 C 285.938 234.056,285.059 235.990,283.984 237.912 C 282.910 239.834,281.899 241.655,281.738 241.960 C 281.382 242.632,264.063 234.255,264.063 233.410 C 264.063 233.082,268.984 232.813,275.000 232.813 C 281.016 232.813,285.938 233.174,285.938 233.615 M262.240 245.519 C 262.526 246.265,264.108 246.875,265.755 246.875 C 267.402 246.875,268.750 247.447,268.750 248.146 C 268.750 248.845,271.211 250.382,274.219 251.563 C 277.227 252.743,279.688 254.632,279.688 255.760 C 279.688 258.609,273.976 258.345,272.863 255.445 C 272.364 254.143,270.355 252.368,268.399 251.499 C 261.981 248.649,253.249 241.638,257.813 242.998 C 259.961 243.639,261.953 244.773,262.240 245.519 " stroke="none" fill="#000000" fill-rule="evenodd"></path></g></svg>