<svg xmlns="http://www.w3.org/2000/svg" width="192" height="192" fill="none" viewBox="0 0 192 192"><g style="fill:none;stroke:#000;stroke-width:29.0026;stroke-dasharray:none;stroke-opacity:1"><g style="fill:none;stroke:#000;stroke-width:29.0026;stroke-dasharray:none;stroke-opacity:1"><path d="M228.62 319.57c104.71 26.28 147.01-50.71 99.29-139.48m-290.68-9.97C-37.71 247.58 7.81 322.64 108.5 325.7M260.54 79.45l1.5-.1C232.49-24.52 144.63-22.68 91.6 63.05" class="cls-2" style="fill:none;stroke:#000;stroke-width:29.0026;stroke-linecap:round;stroke-dasharray:none;stroke-opacity:1" transform="translate(24.074 22.003) scale(.41376)"/><path d="M261.65 79.49h-1.11a446.53 446.53 0 0 0-109.1 7.91c-43.24 8.3-85.573 22.983-127 44.05l-3.8 1.93v0c.28.7.56 1.38.84 2.06a448.848 448.848 0 0 0 15.73 34.66A437.16 437.16 0 0 0 60 209.83a444.36 444.36 0 0 0 37.09 49.82c28.787 33.84 62.727 63.623 101.82 89.35 1.94 1.28 3.89 2.557 5.85 3.83v0a443.118 443.118 0 0 0 23.84-33.22 442.529 442.529 0 0 0 23-39.58 444 444 0 0 0 25.46-59.73 475.72 475.72 0 0 0 25.32-129.69c.147-2.32.283-4.653.41-7v0a428.955 428.955 0 0 0-40.48-4.06m-33.99 240.04v0M37.43 170.12v0" class="cls-3" style="fill:none;stroke:#000;stroke-width:29.00255781;stroke-dasharray:none;stroke-opacity:1;stroke-linejoin:round;stroke-linecap:round" transform="translate(24.074 22.003) scale(.41376)"/></g><path d="m215.867 246.506-39.132-38.7c-6.65-6.42-2.69-14.79 5.16-13.43 13.44-.24 23.32-6.43 28.66-14.74a28.64 28.64 0 0 0 4.45-12.54 25 25 0 0 0-1.92-12.63c-3.25-7.44-10.63-13.84-22.83-16.86h-44.64a4.15 4.15 0 0 0-4.14 4.14v103.42" class="cls-2" style="fill:none;stroke:#000;stroke-width:29.0026;stroke-linecap:round;stroke-linejoin:round;stroke-dasharray:none;stroke-opacity:1" transform="translate(24.074 22.003) scale(.41376)"/></g></svg>