<svg width="192" height="192" viewBox="0 0 192 192" fill="none" xmlns="http://www.w3.org/2000/svg">
<path d="M124.349 27.6456C107.18 20.525 87.9607 20.1262 70.5113 26.5282C53.0619 32.9303 38.6607 45.6645 30.1708 62.199C21.6809 78.7335 19.7242 97.8574 24.6896 115.769C29.6549 133.68 41.1788 149.067 56.9701 158.87C72.7614 168.673 91.6635 172.175 109.919 168.679C128.174 165.183 144.445 154.945 155.497 140.001C166.549 125.058 171.572 106.502 169.569 88.0233C167.565 69.5448 158.681 52.4969 144.683 40.269C141.616 37.5899 138.575 37.7123 136.041 40.269L94.0217 82.8218M94.0217 82.8218L63.3806 114.191C59.6691 117.991 62.3684 124.389 67.6799 124.404C81.6787 124.443 89.4743 124.513 91.9451 124.383C99.5478 124.383 104.109 122.863 108.164 120.329C114.957 116.083 118.757 110.192 119.315 104.616C119.72 100.562 119.315 98.0273 118.301 95.9999C117.49 94.378 116.612 93.2967 116.274 92.9588C113.233 89.9177 109.505 88.4864 108.164 87.8903C104.515 86.2684 97.2153 83.8355 94.0217 82.8218Z" stroke="black" stroke-width="12" stroke-linecap="round" stroke-linejoin="round"/>
</svg>
