<svg xmlns="http://www.w3.org/2000/svg" width="192" height="192" fill="none"><path stroke="#000" stroke-linecap="round" stroke-linejoin="round" stroke-width="12" d="M96 44c-28.582 0-52 23.418-52 52a11.521 11.521 0 1 0 23.042 0c0-16.13 12.829-28.958 28.958-28.958S124.958 79.871 124.958 96 112.129 124.958 96 124.958a11.52 11.52 0 0 0-10.644 15.93A11.52 11.52 0 0 0 96 148c28.582 0 52-23.418 52-52s-23.418-52-52-52"/><path stroke="#000" stroke-linecap="round" stroke-linejoin="round" stroke-width="12" d="M96 170c40.869 0 74-33.131 74-74s-33.131-74-74-74-74 33.131-74 74 33.131 74 74 74"/></svg>