<svg width="192" height="192" fill="none" xmlns="http://www.w3.org/2000/svg"><path d="M96 44c-28.582 0-52 23.418-52 52a11.521 11.521 0 1 0 23.042 0c0-16.13 12.829-28.958 28.958-28.958 16.129 0 28.958 12.829 28.958 28.958 0 16.129-12.829 28.958-28.958 28.958a11.52 11.52 0 0 0-10.644 15.93A11.523 11.523 0 0 0 96 148c28.582 0 52-23.418 52-52s-23.418-52-52-52Z" stroke="#000" stroke-width="12" stroke-linecap="round" stroke-linejoin="round"/><path d="M96 172c41.974 0 76-34.026 76-76s-34.026-76-76-76-76 34.026-76 76 34.026 76 76 76Z" stroke="#000" stroke-width="8" stroke-linecap="round" stroke-linejoin="round"/></svg>