<?xml version="1.0" encoding="utf-8"?>
	<svg version="1.1" xmlns="http://www.w3.org/2000/svg" xmlns:xlink="http://www.w3.org/1999/xlink" x="0px" y="0px" width="1024.0" height="1024.0" xml:space="preserve">
		<path d="M512 949.138286c238.72 0 437.138286-197.997714 437.138286-437.138286 0-238.72-197.997714-437.138286-436.717715-437.138286-22.710857 0-33.846857 13.714286-33.846857 35.986286v166.290286c0 18.432 12.434286 33.426286 31.268572 33.426285 18.870857 0 31.725714-14.994286 31.725714-33.426285V148.992C730.148571 163.986286 875.849143 320 875.849143 512A362.788571 362.788571 0 0 1 512 876.288c-202.294857 0-364.708571-162.011429-364.288-364.288 0.420571-90.002286 32.566857-171.849143 86.144-234.861714 13.275429-16.713143 14.134857-36.845714 0-51.858286-14.153143-15.414857-38.144-14.134857-53.577143 5.156571C114.706286 306.706286 74.861714 405.284571 74.861714 512c0 239.140571 197.997714 437.138286 437.138286 437.138286z m68.571429-371.145143c33.846857-35.145143 27.008-83.145143-13.714286-111.414857L340.114286 308.425143c-21.412571-14.994286-43.702857 7.296-28.708572 28.708571l158.153143 226.724572c28.288 40.722286 76.269714 48 110.994286 14.134857z" fill="#000" stroke="" stroke-width="" stroke-miterlimit=""/>
	</svg>
