<svg width="192" height="192" fill="none" xmlns="http://www.w3.org/2000/svg"><path d="M26 96c0 40.869 33.13 74 74 74 27.802 0 52.022-15.331 64.669-38.001C154.399 139.544 141.72 144 128 144c-34.242 0-62-27.758-62-62 0-27.968 18.518-51.61 43.962-59.335A74.68 74.68 0 0 0 100 22c-40.87 0-74 33.13-74 74Z" stroke="#000" stroke-width="12" stroke-linecap="round" stroke-linejoin="round"/><path d="m131.262 48 13.269 14.072 17.633-8.131-9.433 16.829L166 84.842l-19.098-3.671L137.469 98l-2.371-19.098L116 75.23l17.633-8.132L131.262 48Z" stroke="#000" stroke-width="10" stroke-linecap="round" stroke-linejoin="round"/></svg>