<svg xmlns="http://www.w3.org/2000/svg" width="192" height="192" fill="none" viewBox="0 0 192 192">
  <circle cx="150" cy="84" r="4" stroke="#000" stroke-width="8"/>
  <path stroke="#000" stroke-linecap="round" stroke-width="14" d="M166.454 32.5a18.997 18.997 0 0 0-25.954-6.954A18.997 18.997 0 0 0 131 42a18.996 18.996 0 0 0 9.5 16.455A19 19 0 0 0 150 61"/>
  <path stroke="#000" stroke-linecap="round" stroke-linejoin="round" stroke-width="14" d="M99 51H50c-11.046 0-20 8.954-20 20v98l23.188-22.388A20 20 0 0 1 67.079 141H130c11.046 0 20-8.954 20-20v-6"/>
</svg>
