<svg xmlns="http://www.w3.org/2000/svg" width="192" height="192" fill="none"><circle cx="96" cy="96" r="74" stroke="#000" stroke-linecap="round" stroke-linejoin="round" stroke-width="12"/><circle cx="96" cy="149" r="3" stroke="#000" stroke-linecap="round" stroke-linejoin="round" stroke-width="6"/><circle cx="133.477" cy="133.477" r="3" stroke="#000" stroke-linecap="round" stroke-linejoin="round" stroke-width="6"/><circle cx="43" cy="96" r="3" stroke="#000" stroke-linecap="round" stroke-linejoin="round" stroke-width="6"/><circle cx="58.523" cy="133.477" r="3" stroke="#000" stroke-linecap="round" stroke-linejoin="round" stroke-width="6"/><circle cx="96" cy="43" r="3" stroke="#000" stroke-linecap="round" stroke-linejoin="round" stroke-width="6"/><circle cx="149" cy="96" r="3" stroke="#000" stroke-linecap="round" stroke-linejoin="round" stroke-width="6"/><circle cx="133.477" cy="58.523" r="3" stroke="#000" stroke-linecap="round" stroke-linejoin="round" stroke-width="6"/><path stroke="#000" stroke-linecap="round" stroke-linejoin="round" stroke-width="12" d="M85.076 65.913A13.99 13.99 0 0 0 73 59c-7.732 0-14 6.268-14 14 0 5.146 2.776 9.644 6.913 12.076m19.163-19.163A13.94 13.94 0 0 1 87 73c0 7.732-6.268 14-14 14-2.586 0-5.008-.701-7.087-1.924m19.163-19.163A32 32 0 0 1 96 64c17.673 0 32 14.327 32 32s-14.327 32-32 32-32-14.327-32-32c0-3.836.675-7.515 1.913-10.924"/></svg>