<svg xmlns="http://www.w3.org/2000/svg" width="192" height="192" fill="none" stroke="#000" stroke-width="12" viewBox="0 0 192 192"><path stroke-linecap="round" d="M45 103v34m20.42-34v28.827c0 5.579 4.064 7.904 8.58 6.974m-14-26.037h11.29m16.148.231c13.416-4.18 21.562-2.322 21.562 10.68m0 0s-23-2.786-23 8.824c0 9.094 22.042 5.108 23 .928m0-9.752v9.752m0 5.573v-5.573m38-21.78v16.471m0 9.882v-9.882m-22.902-16.471s-.22 8.571 0 16.471c.458 16.47 22.902 9.411 22.902 0m-10.993-24.471L140.129 98"/><rect width="132" height="132" x="30" y="30" rx="24"/></svg>