<svg xmlns="http://www.w3.org/2000/svg" width="192" height="192" viewBox="0 0 192 192"><path stroke="#000" stroke-linecap="round" stroke-linejoin="round" stroke-width="8" d="M170.821 48.552c.639.378.975.658 1.141.822-.129.648-.596 1.43-1.597 2.106-1.208.817-2.625 1.07-3.66.816-8.245-2.014-19.29-3.298-30.703-3.298-11.274 0-21.616 1.14-29.255 3.05-3.789.947-7.14 2.138-9.638 3.615-2.144 1.267-4.884 3.485-5.096 6.91-.144.154-.479.453-1.192.875-1.549.916-4.057 1.88-7.507 2.742C76.477 67.9 66.82 69 56.002 69s-20.478-1.1-27.316-2.81c-3.45-.863-5.958-1.826-7.507-2.742-.64-.378-.975-.658-1.141-.822.129-.648.596-1.43 1.597-2.106 1.208-.817 2.625-1.07 3.66-.816 8.245 2.014 19.291 3.298 30.707 3.298 11.274 0 21.614-1.14 29.253-3.049 3.788-.947 7.138-2.138 9.636-3.614 2.143-1.266 4.885-3.484 5.096-6.91.144-.153.479-.453 1.193-.876 1.549-.916 4.057-1.88 7.508-2.742C115.526 44.1 125.185 43 136.002 43s20.475 1.1 27.313 2.81c3.449.863 5.957 1.826 7.506 2.742M92.109 62.456l-.007.01zm-72.218 0 .007.01zm80-12.91.008-.01zm72.211-.013.007.011-.007-.01zm-1.281 39.019c.639.378.975.658 1.141.822-.129.648-.596 1.43-1.597 2.106-1.208.817-2.625 1.07-3.66.816-8.245-2.014-19.29-3.298-30.703-3.298-11.274 0-21.616 1.14-29.255 3.05-3.789.947-7.14 2.138-9.638 3.615-2.144 1.267-4.884 3.485-5.096 6.91-.144.154-.479.453-1.192.875-1.549.916-4.057 1.879-7.507 2.742C76.477 107.9 66.82 109 56.002 109s-20.478-1.1-27.316-2.81c-3.45-.863-5.958-1.826-7.507-2.742-.64-.378-.975-.658-1.141-.822.129-.649.596-1.429 1.597-2.106 1.208-.817 2.625-1.07 3.66-.816 8.245 2.014 19.291 3.298 30.707 3.298 11.274 0 21.614-1.139 29.253-3.049 3.788-.947 7.138-2.138 9.636-3.614 2.143-1.266 4.885-3.484 5.096-6.91.144-.153.479-.453 1.193-.876 1.549-.916 4.057-1.88 7.508-2.742C115.526 84.1 125.185 83 136.002 83s20.475 1.1 27.313 2.81c3.449.863 5.957 1.826 7.506 2.742m-78.712 13.904-.007.011zm-72.218 0 .007.011zm80-12.91.008-.01zm72.211-.013.007.011zm-1.281 39.019c.639.378.975.658 1.141.822-.129.648-.596 1.429-1.597 2.106-1.208.817-2.625 1.069-3.66.816-8.245-2.014-19.29-3.298-30.703-3.298-11.274 0-21.616 1.139-29.255 3.049-3.789.948-7.14 2.139-9.638 3.616-2.144 1.267-4.884 3.485-5.096 6.91-.144.154-.479.453-1.192.875-1.549.916-4.057 1.879-7.507 2.742C76.477 147.9 66.82 149 56.002 149s-20.478-1.1-27.316-2.81c-3.45-.863-5.958-1.826-7.507-2.742-.64-.378-.975-.658-1.141-.822.129-.649.596-1.429 1.597-2.106 1.208-.817 2.625-1.069 3.66-.816 8.245 2.014 19.291 3.298 30.707 3.298 11.274 0 21.614-1.139 29.253-3.049 3.788-.947 7.138-2.138 9.636-3.614 2.143-1.266 4.885-3.484 5.096-6.91.144-.153.479-.453 1.193-.875 1.549-.917 4.057-1.88 7.508-2.743 6.838-1.711 16.497-2.811 27.314-2.811s20.475 1.1 27.313 2.81c3.449.863 5.957 1.826 7.506 2.742m-78.712 13.904-.007.011zm-72.218 0 .007.011zm80-12.909.008-.012zm72.211-.014"/></svg>