<svg xmlns="http://www.w3.org/2000/svg" xmlns:xlink="http://www.w3.org/1999/xlink" width="192" height="192" viewBox="0 0 192 192" fill="none"><defs><rect id="path_0" x="0" y="0" width="192" height="192" /></defs><g opacity="1" transform="translate(0 0)  rotate(0 96 96)"><mask id="bg-mask-0" fill="white"><use xlink:href="#path_0"></use></mask><g mask="url(#bg-mask-0)" ><path id="路径 2"  style="fill:#000000" transform="translate(62 64)  rotate(0 0.0005 32.5)" opacity="1" d="M-6 0Q-6 -0.14729 -5.99277 -0.294403Q-5.98555 -0.441516 -5.97111 -0.588097Q-5.95667 -0.734678 -5.93506 -0.880374Q-5.91345 -1.02607 -5.88471 -1.17053Q-5.85598 -1.31499 -5.82019 -1.45787Q-5.7844 -1.60074 -5.74165 -1.74169Q-5.69889 -1.88264 -5.64927 -2.02132Q-5.59965 -2.16 -5.54329 -2.29608Q-5.48692 -2.43216 -5.42395 -2.56531Q-5.36097 -2.69846 -5.29154 -2.82835Q-5.22211 -2.95825 -5.14639 -3.08459Q-5.07067 -3.21092 -4.98884 -3.33339Q-4.90701 -3.45586 -4.81927 -3.57417Q-4.73153 -3.69247 -4.63809 -3.80633Q-4.54465 -3.92019 -4.44574 -4.02932Q-4.34682 -4.13846 -4.24267 -4.24261Q-4.13852 -4.34676 -4.02939 -4.44567Q-3.92026 -4.54459 -3.8064 -4.63803Q-3.69254 -4.73147 -3.57424 -4.81921Q-3.45594 -4.90695 -3.33347 -4.98879Q-3.211 -5.07062 -3.08467 -5.14634Q-2.95833 -5.22206 -2.82844 -5.2915Q-2.69854 -5.36093 -2.56539 -5.42391Q-2.43224 -5.48688 -2.29616 -5.54325Q-2.16009 -5.59962 -2.02141 -5.64924Q-1.88273 -5.69886 -1.74178 -5.74162Q-1.60083 -5.78438 -1.45796 -5.82017Q-1.31508 -5.85596 -1.17062 -5.8847Q-1.02616 -5.91343 -0.880466 -5.93505Q-0.73477 -5.95666 -0.588189 -5.9711Q-0.441608 -5.98554 -0.294495 -5.99277Q-0.147383 -6 -9.23077e-05 -6Q0.147199 -6 0.294314 -5.99278Q0.441428 -5.98555 0.588011 -5.97112Q0.734594 -5.95668 0.880291 -5.93507Q1.02599 -5.91346 1.17045 -5.88473Q1.31491 -5.856 1.45779 -5.82021Q1.60067 -5.78442 1.74162 -5.74167Q1.88257 -5.69891 2.02125 -5.64929Q2.15993 -5.59968 2.29601 -5.54331Q2.4321 -5.48695 2.56525 -5.42397Q2.6984 -5.361 2.8283 -5.29157Q2.9582 -5.22214 3.08454 -5.14642Q3.21087 -5.0707 3.33334 -4.98887Q3.45581 -4.90704 3.57412 -4.8193Q3.69243 -4.73156 3.80629 -4.63812Q3.92015 -4.54468 4.02928 -4.44577Q4.13842 -4.34686 4.24258 -4.24271Q4.34673 -4.13856 4.44564 -4.02942Q4.54456 -3.92029 4.638 -3.80643Q4.73145 -3.69257 4.81919 -3.57427Q4.90693 -3.45597 4.98877 -3.3335Q5.0706 -3.21103 5.14632 -3.0847Q5.22205 -2.95836 5.29148 -2.82846Q5.36092 -2.69856 5.4239 -2.56541Q5.48687 -2.43226 5.54324 -2.29619Q5.59961 -2.16011 5.64923 -2.02143Q5.69886 -1.88275 5.74161 -1.7418Q5.78437 -1.60085 5.82016 -1.45797Q5.85596 -1.31509 5.88469 -1.17063Q5.91343 -1.02617 5.93505 -0.880474Q5.95666 -0.734777 5.9711 -0.588195Q5.98554 -0.441612 5.99277 -0.294498Q6 -0.147384 6 -9.23077e-05L0 0L6 0L6 65L6.001 64.9999Q6.001 65.1472 5.99378 65.2943Q5.98655 65.4414 5.97212 65.588Q5.95768 65.7346 5.93607 65.8803Q5.91446 66.026 5.88573 66.1704Q5.857 66.3149 5.82121 66.4578Q5.78542 66.6007 5.74267 66.7416Q5.69991 66.8826 5.65029 67.0212Q5.60067 67.1599 5.54431 67.296Q5.48795 67.4321 5.42497 67.5652Q5.362 67.6984 5.29257 67.8283Q5.22314 67.9582 5.14742 68.0845Q5.0717 68.2109 4.98987 68.3333Q4.90804 68.4558 4.8203 68.5741Q4.73256 68.6924 4.63912 68.8063Q4.54568 68.9201 4.44677 69.0293Q4.34785 69.1384 4.2437 69.2426Q4.13955 69.3467 4.03042 69.4456Q3.92129 69.5446 3.80743 69.638Q3.69357 69.7314 3.57527 69.8192Q3.45696 69.9069 3.3345 69.9888Q3.21203 70.0706 3.08569 70.1463Q2.95936 70.222 2.82946 70.2915Q2.69956 70.3609 2.56641 70.4239Q2.43326 70.4869 2.29718 70.5432Q2.16111 70.5996 2.02242 70.6492Q1.88374 70.6989 1.74279 70.7416Q1.60185 70.7844 1.45897 70.8202Q1.31609 70.8559 1.17163 70.8847Q1.02717 70.9134 0.881473 70.935Q0.735776 70.9566 0.589193 70.9711Q0.442611 70.9855 0.295497 70.9928Q0.148383 71 0.001091 71Q-0.146201 71 -0.293315 70.9928Q-0.440429 70.9855 -0.587012 70.9711Q-0.733595 70.9567 -0.879293 70.9351Q-1.02499 70.9135 -1.16945 70.8847Q-1.31391 70.856 -1.45679 70.8202Q-1.59967 70.7844 -1.74062 70.7417Q-1.88157 70.6989 -2.02025 70.6493Q-2.15894 70.5997 -2.29502 70.5433Q-2.4311 70.4869 -2.56425 70.424Q-2.6974 70.361 -2.8273 70.2916Q-2.9572 70.2221 -3.08354 70.1464Q-3.20988 70.0707 -3.33235 69.9889Q-3.45482 69.907 -3.57312 69.8193Q-3.69143 69.7316 -3.80529 69.6381Q-3.91915 69.5447 -4.02829 69.4458Q-4.13742 69.3469 -4.24158 69.2427Q-4.34573 69.1386 -4.44465 69.0294Q-4.54356 68.9203 -4.63701 68.8064Q-4.73045 68.6926 -4.81819 68.5743Q-4.90593 68.456 -4.98777 68.3335Q-5.0696 68.211 -5.14532 68.0847Q-5.22105 67.9584 -5.29048 67.8285Q-5.35992 67.6986 -5.4229 67.5654Q-5.48587 67.4323 -5.54224 67.2962Q-5.59861 67.1601 -5.64823 67.0214Q-5.69786 66.8828 -5.74062 66.7418Q-5.78337 66.6008 -5.81917 66.458Q-5.85496 66.3151 -5.88369 66.1706Q-5.91243 66.0262 -5.93405 65.8805Q-5.95566 65.7348 -5.9701 65.5882Q-5.98454 65.4416 -5.99177 65.2945Q-5.999 65.1474 -5.999 65.0001L0.000999451 65L-6 65L-6 0Z " /><path  id="路径 2" style="stroke:#000000; stroke-width:12; stroke-opacity:1; stroke-dasharray:0 0" transform="translate(62 64)  rotate(0 0.0005 32.5)" d="" /><path  id="路径 1" style="stroke:#000000; stroke-width:12; stroke-opacity:1; stroke-dasharray:0 0" transform="translate(16 34)  rotate(0 80 70.25)" d="M10,121.33L104.39,121.33C106.41,121.33 108.38,121.94 110.04,123.08L127.55,135.08C129.1,136.14 131.1,136.26 132.76,135.38C134.42,134.51 135.46,132.79 135.46,130.91L135.46,130.91C135.46,125.62 139.76,121.33 145.05,121.33L150,121.33C155.52,121.33 160,116.85 160,111.33L160,10C160,4.48 155.52,0 150,0L10,0C4.48,0 0,4.48 0,10L0,111.33C0,116.85 4.48,121.33 10,121.33Z " /><path id="拼合图形" fill-rule="evenodd" style="fill:#000000" transform="translate(90 64.00000000000001)  rotate(0 27.75 0.0005)" opacity="1" d="M0 6Q-0.147292 6 -0.294406 5.99277Q-0.44152 5.98555 -0.588103 5.97111Q-0.734685 5.95667 -0.880383 5.93506Q-1.02608 5.91345 -1.17054 5.88471Q-1.315 5.85598 -1.45788 5.82019Q-1.60076 5.7844 -1.74171 5.74164Q-1.88266 5.69888 -2.02134 5.64926Q-2.16002 5.59964 -2.2961 5.54328Q-2.43218 5.48691 -2.56533 5.42393Q-2.69848 5.36096 -2.82838 5.29153Q-2.95828 5.22209 -3.08462 5.14637Q-3.21095 5.07065 -3.33342 4.98882Q-3.45589 4.90699 -3.5742 4.81924Q-3.6925 4.7315 -3.80636 4.63806Q-3.92022 4.54462 -4.02935 4.44571Q-4.13849 4.34679 -4.24264 4.24264Q-4.34679 4.13849 -4.44571 4.02935Q-4.54462 3.92022 -4.63806 3.80636Q-4.7315 3.6925 -4.81924 3.5742Q-4.90699 3.45589 -4.98882 3.33342Q-5.07065 3.21095 -5.14637 3.08462Q-5.22209 2.95828 -5.29153 2.82838Q-5.36096 2.69848 -5.42393 2.56533Q-5.48691 2.43218 -5.54328 2.2961Q-5.59964 2.16002 -5.64926 2.02134Q-5.69888 1.88266 -5.74164 1.74171Q-5.7844 1.60076 -5.82019 1.45788Q-5.85598 1.315 -5.88471 1.17054Q-5.91345 1.02608 -5.93506 0.880383Q-5.95667 0.734685 -5.97111 0.588103Q-5.98555 0.44152 -5.99277 0.294406Q-6 0.147292 -6 0Q-6 -0.147292 -5.99277 -0.294406Q-5.98555 -0.44152 -5.97111 -0.588103Q-5.95667 -0.734685 -5.93506 -0.880383Q-5.91345 -1.02608 -5.88471 -1.17054Q-5.85598 -1.315 -5.82019 -1.45788Q-5.7844 -1.60076 -5.74164 -1.74171Q-5.69888 -1.88266 -5.64926 -2.02134Q-5.59964 -2.16002 -5.54328 -2.2961Q-5.48691 -2.43218 -5.42393 -2.56533Q-5.36096 -2.69848 -5.29153 -2.82838Q-5.22209 -2.95828 -5.14637 -3.08462Q-5.07065 -3.21095 -4.98882 -3.33342Q-4.90699 -3.45589 -4.81924 -3.5742Q-4.7315 -3.6925 -4.63806 -3.80636Q-4.54462 -3.92022 -4.44571 -4.02935Q-4.34679 -4.13849 -4.24264 -4.24264Q-4.13849 -4.34679 -4.02935 -4.44571Q-3.92022 -4.54462 -3.80636 -4.63806Q-3.6925 -4.7315 -3.5742 -4.81924Q-3.45589 -4.90699 -3.33342 -4.98882Q-3.21095 -5.07065 -3.08462 -5.14637Q-2.95828 -5.22209 -2.82838 -5.29153Q-2.69848 -5.36096 -2.56533 -5.42393Q-2.43218 -5.48691 -2.2961 -5.54328Q-2.16002 -5.59964 -2.02134 -5.64926Q-1.88266 -5.69888 -1.74171 -5.74164Q-1.60076 -5.7844 -1.45788 -5.82019Q-1.315 -5.85598 -1.17054 -5.88471Q-1.02608 -5.91345 -0.880383 -5.93506Q-0.734685 -5.95667 -0.588103 -5.97111Q-0.44152 -5.98555 -0.294406 -5.99277Q-0.147292 -6 0 -6L55.5 -6Q55.6473 -6 55.7944 -5.99277Q55.9415 -5.98555 56.0881 -5.97111Q56.2347 -5.95667 56.3804 -5.93506Q56.5261 -5.91345 56.6705 -5.88471Q56.815 -5.85598 56.9579 -5.82019Q57.1008 -5.7844 57.2417 -5.74164Q57.3827 -5.69888 57.5213 -5.64926Q57.66 -5.59964 57.7961 -5.54328Q57.9322 -5.48691 58.0653 -5.42393Q58.1985 -5.36096 58.3284 -5.29153Q58.4583 -5.22209 58.5846 -5.14637Q58.7109 -5.07065 58.8334 -4.98882Q58.9559 -4.90699 59.0742 -4.81924Q59.1925 -4.7315 59.3064 -4.63806Q59.4202 -4.54462 59.5294 -4.44571Q59.6385 -4.34679 59.7426 -4.24264Q59.8468 -4.13849 59.9457 -4.02935Q60.0446 -3.92022 60.1381 -3.80636Q60.2315 -3.6925 60.3192 -3.5742Q60.407 -3.45589 60.4888 -3.33342Q60.5706 -3.21095 60.6464 -3.08462Q60.7221 -2.95828 60.7915 -2.82838Q60.861 -2.69848 60.9239 -2.56533Q60.9869 -2.43218 61.0433 -2.2961Q61.0996 -2.16002 61.1493 -2.02134Q61.1989 -1.88266 61.2416 -1.74171Q61.2844 -1.60076 61.3202 -1.45788Q61.356 -1.315 61.3847 -1.17054Q61.4134 -1.02608 61.4351 -0.880383Q61.4567 -0.734685 61.4711 -0.588103Q61.4855 -0.44152 61.4928 -0.294406Q61.5 -0.147292 61.5 0Q61.5 0.147292 61.4928 0.294406Q61.4855 0.44152 61.4711 0.588103Q61.4567 0.734685 61.4351 0.880383Q61.4134 1.02608 61.3847 1.17054Q61.356 1.315 61.3202 1.45788Q61.2844 1.60076 61.2416 1.74171Q61.1989 1.88266 61.1493 2.02134Q61.0996 2.16002 61.0433 2.2961Q60.9869 2.43218 60.9239 2.56533Q60.861 2.69848 60.7915 2.82838Q60.7221 2.95828 60.6464 3.08462Q60.5706 3.21095 60.4888 3.33342Q60.407 3.45589 60.3192 3.5742Q60.2315 3.6925 60.1381 3.80636Q60.0446 3.92022 59.9457 4.02935Q59.8468 4.13849 59.7426 4.24264Q59.6385 4.34679 59.5294 4.44571Q59.4202 4.54462 59.3064 4.63806Q59.1925 4.7315 59.0742 4.81924Q58.9559 4.90699 58.8334 4.98882Q58.7109 5.07065 58.5846 5.14637Q58.4583 5.22209 58.3284 5.29153Q58.1985 5.36096 58.0653 5.42393Q57.9322 5.48691 57.7961 5.54328Q57.66 5.59964 57.5213 5.64926Q57.3827 5.69888 57.2417 5.74164Q57.1008 5.7844 56.9579 5.82019Q56.815 5.85598 56.6705 5.88471Q56.5261 5.91345 56.3804 5.93506Q56.2347 5.95667 56.0881 5.97111Q55.9415 5.98555 55.7944 5.99277Q55.6473 6 55.5 6L0 6Z " /><path  id="拼合图形" style="stroke:#000000; stroke-width:12; stroke-opacity:1; stroke-dasharray:0 0" transform="translate(90 64.00000000000001)  rotate(0 27.75 0.0005)" d="" /><path id="直线 1"  style="fill:#000000" transform="translate(118 64)  rotate(0 0.0005 32.5)" opacity="1" d="M-6 0Q-6 -0.14729 -5.99277 -0.294403Q-5.98555 -0.441516 -5.97111 -0.588097Q-5.95667 -0.734678 -5.93506 -0.880374Q-5.91345 -1.02607 -5.88471 -1.17053Q-5.85598 -1.31499 -5.82019 -1.45787Q-5.7844 -1.60074 -5.74165 -1.74169Q-5.69889 -1.88264 -5.64927 -2.02132Q-5.59965 -2.16 -5.54329 -2.29608Q-5.48692 -2.43216 -5.42395 -2.56531Q-5.36097 -2.69846 -5.29154 -2.82835Q-5.22211 -2.95825 -5.14639 -3.08459Q-5.07067 -3.21092 -4.98884 -3.33339Q-4.90701 -3.45586 -4.81927 -3.57417Q-4.73153 -3.69247 -4.63809 -3.80633Q-4.54465 -3.92019 -4.44574 -4.02932Q-4.34682 -4.13846 -4.24267 -4.24261Q-4.13852 -4.34676 -4.02939 -4.44567Q-3.92026 -4.54459 -3.8064 -4.63803Q-3.69254 -4.73147 -3.57424 -4.81921Q-3.45594 -4.90695 -3.33347 -4.98879Q-3.211 -5.07062 -3.08467 -5.14634Q-2.95833 -5.22206 -2.82844 -5.2915Q-2.69854 -5.36093 -2.56539 -5.42391Q-2.43224 -5.48688 -2.29616 -5.54325Q-2.16009 -5.59962 -2.02141 -5.64924Q-1.88273 -5.69886 -1.74178 -5.74162Q-1.60083 -5.78438 -1.45796 -5.82017Q-1.31508 -5.85596 -1.17062 -5.8847Q-1.02616 -5.91343 -0.880466 -5.93505Q-0.73477 -5.95666 -0.588189 -5.9711Q-0.441608 -5.98554 -0.294495 -5.99277Q-0.147383 -6 -9.23077e-05 -6Q0.147199 -6 0.294314 -5.99278Q0.441428 -5.98555 0.588011 -5.97112Q0.734594 -5.95668 0.880291 -5.93507Q1.02599 -5.91346 1.17045 -5.88473Q1.31491 -5.856 1.45779 -5.82021Q1.60067 -5.78442 1.74162 -5.74167Q1.88257 -5.69891 2.02125 -5.64929Q2.15993 -5.59968 2.29601 -5.54331Q2.4321 -5.48695 2.56525 -5.42397Q2.6984 -5.361 2.8283 -5.29157Q2.9582 -5.22214 3.08454 -5.14642Q3.21087 -5.0707 3.33334 -4.98887Q3.45581 -4.90704 3.57412 -4.8193Q3.69243 -4.73156 3.80629 -4.63812Q3.92015 -4.54468 4.02928 -4.44577Q4.13842 -4.34686 4.24258 -4.24271Q4.34673 -4.13856 4.44564 -4.02942Q4.54456 -3.92029 4.638 -3.80643Q4.73145 -3.69257 4.81919 -3.57427Q4.90693 -3.45597 4.98877 -3.3335Q5.0706 -3.21103 5.14632 -3.0847Q5.22205 -2.95836 5.29148 -2.82846Q5.36092 -2.69856 5.4239 -2.56541Q5.48687 -2.43226 5.54324 -2.29619Q5.59961 -2.16011 5.64923 -2.02143Q5.69886 -1.88275 5.74161 -1.7418Q5.78437 -1.60085 5.82016 -1.45797Q5.85596 -1.31509 5.88469 -1.17063Q5.91343 -1.02617 5.93505 -0.880474Q5.95666 -0.734777 5.9711 -0.588195Q5.98554 -0.441612 5.99277 -0.294498Q6 -0.147384 6 -9.23077e-05L0 0L6 0L6 65L6.001 64.9999Q6.001 65.1472 5.99378 65.2943Q5.98655 65.4414 5.97212 65.588Q5.95768 65.7346 5.93607 65.8803Q5.91446 66.026 5.88573 66.1704Q5.857 66.3149 5.82121 66.4578Q5.78542 66.6007 5.74267 66.7416Q5.69991 66.8826 5.65029 67.0212Q5.60067 67.1599 5.54431 67.296Q5.48795 67.4321 5.42497 67.5652Q5.362 67.6984 5.29257 67.8283Q5.22314 67.9582 5.14742 68.0845Q5.0717 68.2109 4.98987 68.3333Q4.90804 68.4558 4.8203 68.5741Q4.73256 68.6924 4.63912 68.8063Q4.54568 68.9201 4.44677 69.0293Q4.34785 69.1384 4.2437 69.2426Q4.13955 69.3467 4.03042 69.4456Q3.92129 69.5446 3.80743 69.638Q3.69357 69.7314 3.57527 69.8192Q3.45696 69.9069 3.3345 69.9888Q3.21203 70.0706 3.08569 70.1463Q2.95936 70.222 2.82946 70.2915Q2.69956 70.3609 2.56641 70.4239Q2.43326 70.4869 2.29718 70.5432Q2.16111 70.5996 2.02242 70.6492Q1.88374 70.6989 1.74279 70.7416Q1.60185 70.7844 1.45897 70.8202Q1.31609 70.8559 1.17163 70.8847Q1.02717 70.9134 0.881473 70.935Q0.735776 70.9566 0.589193 70.9711Q0.442611 70.9855 0.295497 70.9928Q0.148383 71 0.001091 71Q-0.146201 71 -0.293315 70.9928Q-0.440429 70.9855 -0.587012 70.9711Q-0.733595 70.9567 -0.879293 70.9351Q-1.02499 70.9135 -1.16945 70.8847Q-1.31391 70.856 -1.45679 70.8202Q-1.59967 70.7844 -1.74062 70.7417Q-1.88157 70.6989 -2.02025 70.6493Q-2.15894 70.5997 -2.29502 70.5433Q-2.4311 70.4869 -2.56425 70.424Q-2.6974 70.361 -2.8273 70.2916Q-2.9572 70.2221 -3.08354 70.1464Q-3.20988 70.0707 -3.33235 69.9889Q-3.45482 69.907 -3.57312 69.8193Q-3.69143 69.7316 -3.80529 69.6381Q-3.91915 69.5447 -4.02829 69.4458Q-4.13742 69.3469 -4.24158 69.2427Q-4.34573 69.1386 -4.44465 69.0294Q-4.54356 68.9203 -4.63701 68.8064Q-4.73045 68.6926 -4.81819 68.5743Q-4.90593 68.456 -4.98777 68.3335Q-5.0696 68.211 -5.14532 68.0847Q-5.22105 67.9584 -5.29048 67.8285Q-5.35992 67.6986 -5.4229 67.5654Q-5.48587 67.4323 -5.54224 67.2962Q-5.59861 67.1601 -5.64823 67.0214Q-5.69786 66.8828 -5.74062 66.7418Q-5.78337 66.6008 -5.81917 66.458Q-5.85496 66.3151 -5.88369 66.1706Q-5.91243 66.0262 -5.93405 65.8805Q-5.95566 65.7348 -5.9701 65.5882Q-5.98454 65.4416 -5.99177 65.2945Q-5.999 65.1474 -5.999 65.0001L0.000999451 65L-6 65L-6 0Z " /><path  id="直线 1" style="stroke:#000000; stroke-width:12; stroke-opacity:1; stroke-dasharray:0 0" transform="translate(118 64)  rotate(0 0.0005 32.5)" d="" /></g></g></svg>