<svg width="192" height="192" viewBox="0 0 192 192" fill="none" xmlns="http://www.w3.org/2000/svg">
<circle cx="31" cy="22" r="6" fill="black"/>
<circle cx="160" cy="22" r="6" fill="black"/>
<path d="M25 76C25 69.3726 30.3726 64 37 64V64V170C37 173.314 34.3137 176 31 176V176C27.6863 176 25 173.314 25 170V76Z" fill="black"/>
<path d="M154 59V59C160.627 59 166 64.3726 166 71V170C166 173.314 163.314 176 160 176V176C156.686 176 154 173.314 154 170V59Z" fill="black"/>
<path d="M76 67H118C121.314 67 124 69.6863 124 73V73C124 76.3137 121.314 79 118 79H76V67Z" fill="black"/>
<path d="M118 168C99.0156 172.293 73 172.343 73 138V133.5" stroke="black" stroke-width="12"/>
<circle cx="118" cy="168" r="6" fill="black"/>
<path d="M67 38C67 31.3726 72.3726 26 79 26V26V138H67V38Z" fill="black"/>
</svg>
