<?xml version="1.0" encoding="utf-8"?>
	<svg version="1.1" xmlns="http://www.w3.org/2000/svg" xmlns:xlink="http://www.w3.org/1999/xlink" x="0px" y="0px" width="240.0" height="240.0" xml:space="preserve">
		<path d="M115.591,84.81C115.629,79.806 113.474,77.993 108.707,78.004C77.819,78.073 46.932,78.088 16.045,78C11.306,77.987 9.983,80.096 10.021,84.558C10.187,103.95 10.235,123.347 10.001,142.738C9.938,148.031 12.201,149.15 16.894,149.055C28.377,148.823 39.894,149.474 51.346,148.835C61.493,148.268 70.432,149.833 77.983,157.183C80.166,159.308 83.233,160.526 86.83,162.735C86.292,157.679 85.893,153.926 85.367,148.978C93.792,148.978 101.416,148.854 109.035,149.026C113.367,149.123 115.652,147.917 115.608,143.01C115.436,123.611 115.442,104.21 115.591,84.81ZM45.152,141.009C39.955,141.009 34.749,141.009 28.92,141.009C28.92,122.77 28.92,104.567 28.92,85.597C34.48,85.597 39.5,85.597 45.152,85.597C45.152,104.107 45.152,122.28 45.152,141.009ZM97.038,101.519C93.128,101.804 89.655,102.057 84.897,102.404C84.897,115.348 84.897,128.141 84.897,141.197C78.33,141.197 73.074,141.197 67.002,141.197C67.002,128.254 67.002,115.647 67.002,102.478C62.569,102.139 58.894,101.858 54.841,101.548C54.841,96.242 54.841,91.252 54.841,85.786C68.906,85.786 82.763,85.786 97.038,85.786C97.038,91.293 97.038,96.235 97.038,101.519ZM136.769,111.054C137.428,111.593 138.146,111.833 138.926,111.773C139.704,111.714 140.813,111.818 142.251,112.088C143.688,112.357 145.41,112.597 147.418,112.807C149.424,113.017 150.907,113.646 151.866,114.694C152.823,115.742 153.423,116.985 153.663,118.423C153.902,119.861 153.962,120.894 153.843,121.523C153.722,122.152 153.124,123.336 152.045,125.073C150.967,126.811 150.053,128.383 149.305,129.79C148.555,131.198 147.252,133.64 145.396,137.114C148.51,137.234 151.296,137.908 153.753,139.135C156.209,140.364 157.631,141.682 158.021,143.089C158.41,144.497 158.515,145.726 158.335,146.773C158.156,147.822 157.691,148.377 156.943,148.436C156.193,148.496 155.265,148.691 154.157,149.02C153.048,149.35 152.014,149.604 151.057,149.784C150.098,149.963 148.615,150.248 146.609,150.637C144.601,151.027 145.724,149.215 149.978,145.201C146.564,144.603 144.227,144.138 142.969,143.808C141.711,143.48 141.007,143.24 140.858,143.089C140.707,142.94 140.258,142.685 139.51,142.325C138.76,141.966 138.146,141.067 137.668,139.63C137.188,138.192 137.008,137.1 137.128,136.35C137.248,135.602 137.578,134.328 138.117,132.531C138.656,130.734 139.15,129.476 139.6,128.757C140.049,128.038 141.321,125.313 143.419,120.58C143.118,119.921 142.265,119.353 140.858,118.873C139.449,118.394 137.951,117.645 136.365,116.626C134.777,115.608 133.893,114.5 133.714,113.301C133.534,112.103 133.669,110.951 134.118,109.842C134.568,108.733 135.451,109.138 136.769,111.054ZM140.004,86.792C144.317,86.374 147.387,87.003 149.215,88.679C151.042,90.357 152.149,91.795 152.539,92.992C152.929,94.191 152.838,95.254 152.27,96.182C151.7,97.112 150.413,97.44 148.406,97.171C146.398,96.901 144.916,96.842 143.958,96.991C142.999,97.141 142.145,97.036 141.397,96.677C140.647,96.317 140.588,95.643 141.217,94.655C141.846,93.667 141.815,92.844 141.127,92.184C140.438,91.525 139.704,90.881 138.926,90.252C138.147,89.623 137.877,88.634 138.117,87.286C138.356,85.938 138.985,85.774 140.004,86.792ZM229.586,129.047C228.054,124.278 224.484,121.401 219.775,120.238C214.549,118.947 209.399,119.006 205.678,123.153C202.887,122.002 200.472,121.006 198.021,119.995C199.93,117.603 201.908,115.298 203.67,112.838C204.396,111.825 205.018,110.482 205.027,109.285C205.035,108.191 204.151,107.09 203.579,105.81C209.928,102.465 216.386,99.107 222.798,95.664C226.369,93.747 226.695,90.373 223.314,88.144C221.788,87.138 219.532,86.442 217.789,86.725C213.712,87.387 209.742,88.713 205.736,89.799C204.856,90.037 204.007,90.39 203.001,90.74C202.07,85.389 198.661,82.444 194.307,80.471C193.393,80.056 191.673,80.145 191.044,80.75C190.475,81.297 190.677,82.917 190.928,83.971C191.178,85.021 191.912,85.955 192.472,87.011C191.765,87.497 191.115,87.806 190.657,88.294C190.069,88.921 189.635,89.693 189.135,90.402C189.897,90.625 190.662,91.047 191.42,91.034C193.456,91 194.902,91.759 195.846,93.812C191.267,96.349 186.719,98.868 181.489,101.765C182.081,99.794 182.604,98.597 182.765,97.353C182.9,96.31 182.614,95.213 182.514,94.139C181.343,94.446 179.579,94.373 179.101,95.122C176.737,98.832 174.437,102.637 172.659,106.65C171.376,109.543 172.584,111.118 175.856,113.091C178.344,114.592 180.277,113.798 181.772,111.836C185.941,106.36 191.711,102.911 197.46,99.556C200.818,97.596 204.701,96.535 208.347,95.069C208.495,95.38 208.642,95.691 208.789,96.002C202.744,100.005 196.837,104.243 190.6,107.921C186.945,110.077 187.633,114.809 191.325,116.642C190.483,117.271 189.717,117.718 189.104,118.321C185.638,121.732 182.079,125.065 178.849,128.689C177.932,129.718 177.345,131.909 177.822,133.065C178.285,134.186 180.292,134.699 181.664,135.392C181.996,135.559 182.503,135.38 182.499,135.38C183.088,137.403 183.548,139.074 184.067,140.727C184.375,141.71 185.02,142.647 185.089,143.634C185.35,147.324 186.144,150.918 189.459,152.891C194.008,155.598 204.035,155.596 208.184,148.406C211.736,142.25 213.067,135.786 209.152,129.157C208.755,128.485 208.205,127.834 208.058,127.106C207.931,126.472 208.072,125.578 208.464,125.104C208.866,124.619 209.838,124.126 210.352,124.29C214.645,125.658 218.667,127.574 222.379,130.745C221.548,131.295 220.901,131.569 220.472,132.042C219.806,132.775 219.288,133.642 218.707,134.452C219.576,135.044 220.478,136.171 221.305,136.117C223.162,135.998 225.057,135.482 226.798,134.783C229.836,133.563 230.58,132.139 229.586,129.047ZM200.001,127.739C198.304,132.152 195.657,128.324 193.427,128.975C195.468,125.078 196.491,124.913 200.001,127.739ZM196.311,146.802C193.263,147.711 191.396,146.927 190.624,143.835C190.166,141.997 190.54,139.951 190.54,137.999C190.789,138.004 191.038,138.009 191.287,138.014C191.781,139.184 192.002,140.617 192.823,141.472C194.91,143.647 198.027,143.124 199.569,140.464C200.687,138.536 201.623,136.503 202.901,134.009C204.106,140.881 201.733,145.184 196.311,146.802Z" fill="#000" stroke="#00000000" stroke-width="1.0" stroke-miterlimit=""/>
	</svg>
