<svg width="192" height="192" viewBox="0 0 192 192" fill="none" xmlns="http://www.w3.org/2000/svg"><circle cx="51" cy="54" r="25" stroke="#000" stroke-width="12" stroke-linecap="round" stroke-linejoin="round"/><path d="m22 138 2-44m91 44 2.862-48.088C105.937 111.933 75.238 163 47 163m98-134c-28.616 0-59.76 52.444-71.331 73.957L76 54m94 0-5 84m5-84a25.007 25.007 0 0 0-7.322-17.678A25.01 25.01 0 0 0 145 29m20 109a25.006 25.006 0 0 1-7.322 17.678A25.01 25.01 0 0 1 140 163a25.006 25.006 0 0 1-17.678-7.322A25.01 25.01 0 0 1 115 138m-68 25a25.007 25.007 0 0 1-17.678-7.322A25.01 25.01 0 0 1 22 138" stroke="#000" stroke-width="12" stroke-linecap="round" stroke-linejoin="round"/></svg>