<?xml version="1.0" encoding="UTF-8" standalone="no"?>
<!-- Generator: Adobe Illustrator 22.0.0, SVG Export Plug-In . SVG Version: 6.00 Build 0)  -->

<svg
   version="1.1"
   id="Capa_1"
   x="0px"
   y="0px"
   viewBox="0 0 191.99999 192"
   xml:space="preserve"
   sodipodi:docname="ivoox_android_2.svg"
   width="192"
   height="192"
   inkscape:version="1.1.1 (c3084ef, 2021-09-22)"
   xmlns:inkscape="http://www.inkscape.org/namespaces/inkscape"
   xmlns:sodipodi="http://sodipodi.sourceforge.net/DTD/sodipodi-0.dtd"
   xmlns="http://www.w3.org/2000/svg"
   xmlns:svg="http://www.w3.org/2000/svg"><defs
   id="defs186" /><sodipodi:namedview
   id="namedview184"
   pagecolor="#ffffff"
   bordercolor="#999999"
   borderopacity="1"
   inkscape:pageshadow="0"
   inkscape:pageopacity="0"
   inkscape:pagecheckerboard="0"
   showgrid="false"
   inkscape:zoom="3.9187386"
   inkscape:cx="75.917286"
   inkscape:cy="99.521821"
   inkscape:window-width="1622"
   inkscape:window-height="1082"
   inkscape:window-x="929"
   inkscape:window-y="203"
   inkscape:window-maximized="0"
   inkscape:current-layer="Capa_1"
   inkscape:snap-grids="true" />
<style
   type="text/css"
   id="style177">
	.st0{fill:#ECECEC;}
</style>
<path
   class="st0"
   d="m -254.3,230.3 c 0.2,0.3 0.5,0.5 0.8,0.8 -0.6,0 -0.9,-0.2 -0.8,-0.8 z"
   id="path179" />
<path
   d="M 81.835733,175.22739 C 51.198656,170.75949 19.71055,143.42015 16.306431,103.84726 12.370417,57.25337 46.943507,21.935629 85.984503,17.254965 c 47.125777,-5.531694 84.358327,28.722259 89.358137,68.933422 5.74445,46.274753 -27.0202,82.549903 -64.67827,89.145383 0,-0.63827 -0.10638,-1.17016 -0.10638,-1.80844 0,-20.53109 0,-41.06219 0,-61.59329 0,-11.16977 0.10638,-22.339533 0.10638,-33.61568 0,-3.616877 -0.95741,-6.914618 -4.14877,-8.723056 -1.80844,-1.063788 -4.0424,-1.808439 -6.16997,-1.914817 -14.148369,-0.212758 -28.296741,-0.106379 -42.338735,-0.106379 -1.489302,0 -1.914817,0.531894 -1.914817,2.021196 0.106379,8.084784 0.106379,16.169568 0,24.254352 0,1.489302 0.425515,1.914817 1.914817,1.914817 7.020997,-0.106378 14.041994,0 21.062991,0 2.446711,0 2.446711,0 2.446711,2.55309 0,24.999007 0.106378,49.998007 0.106378,74.890637 0.212758,0.74465 0.212758,1.38292 0.212758,2.02119 z M 95.133075,61.189384 c 9.042185,0 16.063185,-6.914618 16.063185,-15.956811 0,-8.829435 -7.021,-15.956811 -15.850428,-15.956811 -9.042192,0 -16.063189,6.914618 -16.063189,15.850432 -0.106379,9.042193 6.808239,16.06319 15.850432,16.06319 z"
   id="path181"
   style="stroke-width:1.06379" />
</svg>
