<svg width="192" height="192" viewBox="0 0 192 192" fill="none" xmlns="http://www.w3.org/2000/svg"><circle cx="148" cy="68" r="3" stroke="#000" stroke-width="6" stroke-linecap="round" stroke-linejoin="round"/><path d="M112.971 150.971a24 24 0 0 1-33.942 0C74.53 146.47 27 86.001 22.576 67.853a30 30 0 0 1 1.708-17.333c1.659-4.006 4.514-7.882 7.856-10.966 2.105-1.942 5.318-1.594 7.342.432l54.234 54.298A39.998 39.998 0 0 0 122 106c10.609 0 24.999-5.214 32.5-12.716C160.126 87.658 170 75 170 62a30 30 0 0 0-8.787-21.213l-1.598-1.598a6 6 0 0 0-8.116-.34L91 90" stroke="#000" stroke-width="12" stroke-linecap="round" stroke-linejoin="round"/><path d="M170 64c0 20.5-52.469 82.47-56.97 86.97" stroke="#000" stroke-width="12" stroke-linecap="round" stroke-linejoin="round"/></svg>