<svg xmlns="http://www.w3.org/2000/svg" width="192" height="192" fill="none" stroke="#000" stroke-linejoin="round" stroke-width="12" viewBox="0 0 192 192"><path d="m52 51 61.42-20.47c12.69-4.43 26.77.32 34.18 11.53L164 68"/><path stroke-width="8" d="m97 97 13.59-19.03c2.19-3.07 5.6-5.16 9.36-5.38 2.85-.17 5.72.63 8.05 2.41 1.38 1.05 2.49 2.39 3.28 3.89 2.11 4 1.58 8.88-1.02 12.58-7.75 11.02-15.49 22.05-23.24 33.07-1.52 2.17-3.63 3.9-6.13 4.77-1.13.4-2.43.67-3.89.68-1.8.02-3.36-.36-4.67-.89-2.24-.91-4.13-2.51-5.54-4.46-7.81-10.79-15.62-21.59-23.42-32.38-3.41-4.72-3.28-11.3.68-15.57.59-.63 1.24-1.2 1.96-1.7 3.29-2.29 7.52-2.78 11.36-1.53 2.8.91 5.16 2.84 6.85 5.26l12.79 18.27H97z"/><path stroke-width="6" d="m82.98 102.25 13.68 11.3c1.39 1.15 1.77 3.21.71 4.67-.61.84-1.57 1.25-3.04.17-3.53-2.59-11.35-16.14-11.35-16.14zm28.82-.59 5.66-16.81c.58-1.71 2.37-2.8 4.11-2.34 1.01.27 1.73 1.02 1.25 2.77-1.16 4.23-11.02 16.36-11.02 16.36z"/><rect width="148" height="103" x="22" y="50" ry="38.53"/><circle cx="73" cy="85" r="3" stroke-width="6"/></svg>