<svg xmlns="http://www.w3.org/2000/svg" width="192" height="192" fill="none"><path stroke="#000" stroke-linecap="round" stroke-linejoin="round" stroke-width="12" d="M170 168.821c0-33.461-7.627-65.986-21.698-92.532S114.503 30.66 92.176 22M130 168.821c0-27.077-6.174-53.397-17.565-74.878S85.073 57.02 67 50.012M90 168.82c0-20.693-4.721-40.807-13.432-57.224S55.644 83.378 41.823 78.023m6.95 90.297a50 50 0 0 0 .535-19.292c-1.077-6.393-3.386-12.409-6.747-17.581-3.362-5.171-7.686-9.361-12.639-12.244a32.6 32.6 0 0 0-7.922-3.32"/></svg>