<svg xmlns="http://www.w3.org/2000/svg" width="192" height="192" fill="none" stroke="#000" stroke-linecap="round" stroke-linejoin="round" viewBox="0 0 192 192"><path stroke-width="12" d="M159 84a62.007 62.007 0 0 0-38.274-57.28A61.997 61.997 0 0 0 97 22m42 61.5a41.492 41.492 0 0 0-12.155-29.345A41.505 41.505 0 0 0 97.5 42M119 84a21.992 21.992 0 0 0-6.444-15.556A22.001 22.001 0 0 0 97 62m-62 90v-44m64 44V89m20 19 11.969 43.886c.021.076.038.145.057.222.311 1.256 3.454 13.159 11.974 17.892m-12-18 12-44m-88 44 24-44H55m24 44H55"/><circle cx="35" cy="89" r="3" stroke-width="6"/></svg>