<svg xmlns="http://www.w3.org/2000/svg" width="192" height="192" fill="none" stroke="#000" stroke-linecap="round" stroke-linejoin="round" viewBox="0 0 192 192"><path stroke-width="12" d="M37 119.561c4.915 11.368 13.536 17.074 21.412 25.439m28.331-8.042c21.086-52.055 36.424-61.594 49.196-74.302M170 43.473c0 1.77-.346 3.521-1.018 5.156a13.474 13.474 0 0 1-2.898 4.37 13.359 13.359 0 0 1-4.337 2.921 13.281 13.281 0 0 1-10.232 0 13.373 13.373 0 0 1-4.338-2.92 13.49 13.49 0 0 1-2.898-4.371 13.56 13.56 0 0 1-1.017-5.156c0-1.77.345-3.521 1.017-5.156a13.489 13.489 0 0 1 2.898-4.37 13.37 13.37 0 0 1 4.338-2.921 13.277 13.277 0 0 1 10.232 0 13.355 13.355 0 0 1 4.337 2.92 13.473 13.473 0 0 1 2.898 4.371A13.561 13.561 0 0 1 170 43.473z"/><path stroke-width="8" d="M85 155.656a8.367 8.367 0 0 1-2.43 5.9A8.274 8.274 0 0 1 76.702 164c-2.2 0-4.311-.879-5.867-2.444a8.367 8.367 0 0 1-2.43-5.9 8.352 8.352 0 0 1 2.43-5.9 8.3 8.3 0 0 1 2.692-1.808 8.247 8.247 0 0 1 6.35 0 8.3 8.3 0 0 1 4.491 4.515 8.39 8.39 0 0 1 .632 3.193v0zM40.596 96.355c0 2.746-1.085 5.38-3.016 7.322a10.27 10.27 0 0 1-7.282 3.033 10.27 10.27 0 0 1-7.282-3.033 10.405 10.405 0 0 1-2.232-11.285 10.358 10.358 0 0 1 2.232-3.36 10.294 10.294 0 0 1 3.341-2.244 10.25 10.25 0 0 1 11.223 2.245 10.357 10.357 0 0 1 2.232 3.36 10.39 10.39 0 0 1 .784 3.962v0z"/></svg>