<svg xmlns="http://www.w3.org/2000/svg" width="192" height="192" fill="none" stroke="#000" stroke-linecap="round" stroke-linejoin="round" viewBox="0 0 192 192"><path stroke-width="12" d="M37 119.561c4.915 11.368 13.536 17.074 21.412 25.439m28.331-8.042c21.086-52.055 36.424-61.594 49.196-74.302M170 43.473c0 1.77-.346 3.521-1.018 5.156a13.5 13.5 0 0 1-2.898 4.37 13.373 13.373 0 0 1-18.907.001 13.56 13.56 0 0 1-3.915-9.527c0-1.77.345-3.521 1.017-5.156a13.5 13.5 0 0 1 2.898-4.37 13.355 13.355 0 0 1 18.907-.001A13.56 13.56 0 0 1 170 43.473"/><path stroke-width="8" d="M85 155.656A8.274 8.274 0 0 1 76.702 164c-2.2 0-4.311-.879-5.867-2.444a8.3 8.3 0 0 1 2.692-13.608 8.3 8.3 0 0 1 10.841 4.515 8.4 8.4 0 0 1 .632 3.193M40.596 96.355c0 2.746-1.085 5.38-3.016 7.322a10.27 10.27 0 0 1-14.564 0 10.36 10.36 0 0 1 0-14.645 10.25 10.25 0 0 1 14.564.001 10.4 10.4 0 0 1 3.016 7.322"/></svg>