<svg width="192" height="192" viewBox="0 0 192 192" fill="none" xmlns="http://www.w3.org/2000/svg">
    <path d="M 169.00167,44.269722 A 13.200411,13.268286 0 0 1 155.80125,57.538008 13.200411,13.268286 0 0 1 142.60083,44.269722 13.200411,13.268286 0 0 1 155.80125,31.001435 13.200411,13.268286 0 0 1 169.00167,44.269722 Z M 37.680537,119.20342 c 4.853139,11.19512 13.364711,16.81495 21.142116,25.05253 m 27.973166,-7.92002 C 107.61575,85.070601 122.76026,75.676417 135.37053,63.161559" style="fill:none;stroke:#000;stroke-width:12;stroke-linecap:round;stroke-linejoin:round;stroke-dasharray:none;stroke-opacity:1"/>
    <path d="m 84.756145,154.81739 a 8.1393366,8.1811883 0 0 1 -8.139335,8.18118 8.1393366,8.1811883 0 0 1 -8.139337,-8.18118 8.1393366,8.1811883 0 0 1 8.139337,-8.18121 8.1393366,8.1811883 0 0 1 8.139335,8.18121 z M 41.200795,96.671412 A 10.101231,10.153171 0 0 1 31.099564,106.82458 10.101231,10.153171 0 0 1 20.998333,96.671412 10.101231,10.153171 0 0 1 31.099564,86.51824 10.101231,10.153171 0 0 1 41.200795,96.671412 Z" style="fill:none;stroke:#000;stroke-width:8;stroke-linecap:round;stroke-linejoin:round;stroke-dasharray:none;stroke-opacity:1"/>
</svg>