<svg width="192" height="192" viewBox="0 0 192 192" fill="none" xmlns="http://www.w3.org/2000/svg">
    <path d="M 165.05849,47.334828 A 12.497027,12.497027 0 0 1 152.56146,59.831856 12.497027,12.497027 0 0 1 140.06442,47.334828 12.497027,12.497027 0 0 1 152.56146,34.837801 12.497027,12.497027 0 0 1 165.05849,47.334828 Z M 40.734805,117.91277 c 4.59454,10.54437 12.652573,15.83754 20.01556,23.59628 m 26.482616,-7.45964 C 106.94352,85.764035 121.28105,76.915916 133.21938,65.128522" style="fill:none;stroke:#000;stroke-width:12;stroke-linecap:round;stroke-linejoin:round;stroke-dasharray:none;stroke-opacity:1"/>
    <path d="m 85.301991,151.45657 a 7.7056322,7.7056322 0 0 1 -7.705631,7.70563 7.7056322,7.7056322 0 0 1 -7.705632,-7.70563 7.7056322,7.7056322 0 0 1 7.705632,-7.70564 7.7056322,7.7056322 0 0 1 7.705631,7.70564 z M 44.067487,96.690513 A 9.5629873,9.5629873 0 0 1 34.5045,106.2535 9.5629873,9.5629873 0 0 1 24.941513,96.690513 9.5629873,9.5629873 0 0 1 34.5045,87.127525 a 9.5629873,9.5629873 0 0 1 9.562987,9.562988 z" style="fill:none;stroke:#000;stroke-width:8;stroke-linecap:round;stroke-linejoin:round;stroke-dasharray:none;stroke-opacity:1"/>
</svg>