<?xml version="1.0" encoding="UTF-8" standalone="no"?>
<svg version="1.1" width="192" height="192" xmlns="http://www.w3.org/2000/svg">
   <path
   d="m 123.95798,172.14057 c -3.24728,0 -12.56186,-1.85152 -28.826771,-19.17037 -16.236425,16.94855 -25.408581,18.51522 -28.627381,18.31583 -0.17091,0 -0.427275,-0.057 -0.598184,-0.0855 -1.110914,-0.3703 -2.079402,-0.88303 -2.706071,-1.25334 L 39.528574,154.90718 c -0.08545,-0.057 -0.199395,-0.14243 -0.28485,-0.1994 -0.598184,-0.3703 -0.911518,-0.99697 -1.082428,-1.36728 -1.680612,-2.93395 -3.475165,-10.34004 2.592131,-27.40252 -19.25583,-4.21578 -23.443119,-10.39701 -24.326153,-12.93218 -0.08545,-0.14242 -0.170909,-0.34182 -0.227879,-0.5697 -0.11394,-0.25636 -0.17091,-0.51272 -0.17091,-0.79757 V 81.729322 c 0,-0.313335 0.08545,-0.626669 0.22788,-0.911519 0.05697,-0.170909 0.08545,-0.341819 0.142424,-0.512729 0.02848,-0.08546 0.05697,-0.17091 0.11394,-0.256365 0.968489,-1.936977 5.526082,-8.374577 24.696457,-12.98914 -7.491543,-20.623108 -3.418194,-27.687377 -2.905465,-28.427986 0.199395,-0.256365 0.370304,-0.455759 0.541214,-0.626669 0.142425,-0.28485 0.341819,-0.512729 0.626669,-0.683639 l 0.968489,-0.626669 c 0.142424,-0.11394 0.256364,-0.199395 0.370304,-0.256365 L 65.335944,20.62909 c 0.05697,-0.02848 0.11394,-0.08546 0.17091,-0.113939 0.199395,-0.11394 0.911519,-0.427275 1.652128,-0.484245 1.766067,-0.227879 11.365497,-0.398789 29.681324,19.141891 18.515224,-20.907958 27.801314,-19.341285 28.228594,-19.255831 0.0854,0.02848 0.14242,0.02848 0.22788,0.05697 0.11394,0.02848 0.19939,0.05697 0.28485,0.05697 0.22788,0.05697 0.5697,0.11394 0.94,0.313335 0.25637,0.142425 0.48425,0.313334 0.65515,0.541214 l 24.06979,15.524301 c 0.42728,0.256365 0.91152,0.598184 1.39577,1.053944 0.057,0.02848 0.0855,0.08545 0.11394,0.113939 0.31333,0.28485 0.59818,0.5697 0.85454,0.883034 0.057,0.05697 0.11394,0.142425 0.14243,0.199395 1.11091,1.851522 4.04486,9.229126 -2.87698,28.399501 21.76251,5.212747 24.49706,12.732776 24.611,13.04611 0.0285,0.08546 0.057,0.199395 0.0855,0.28485 0.14242,0.826064 0.28485,1.908492 0.28485,2.905465 v 17.774616 l 0.11394,8.26063 C 176,109.4167 176,109.53064 176,109.61609 v 1.62365 c 0,0.54121 -0.14242,0.96848 -0.28485,1.3103 l -0.0854,0.25637 c -0.45576,1.33879 -3.70305,8.06124 -25.06677,12.96066 7.17821,19.14189 4.07335,25.89282 3.04789,27.40252 -0.0854,0.17091 -0.22788,0.39879 -0.39879,0.62667 -0.14242,0.37031 -0.39878,0.71213 -0.7406,0.94001 l -24.4401,15.83763 c -0.68364,0.39879 -1.65212,0.94001 -2.76304,1.31031 -0.0854,0.0285 -0.19939,0.057 -0.28485,0.057 -0.22788,0.17091 -0.5697,0.19939 -1.02546,0.19939 z M 95.928788,149.09624 c 0.512729,0 1.025458,0.1994 1.395762,0.62667 17.11946,18.48674 25.83586,18.62917 26.8898,18.60068 0.54121,-0.19939 1.16788,-0.51273 1.76607,-0.85455 l 21.70553,-14.07157 c -0.11394,-0.28485 -0.14242,-0.5697 -0.11394,-0.88303 0.11394,-0.91152 0.85455,-1.62364 1.76607,-1.68061 0.1994,0 0.54121,0 0.71212,0.0285 0.17091,0.0285 0.31334,0.0855 0.42728,0.0855 0.59818,-1.19637 2.99092,-7.97579 -5.09881,-27.57344 -0.39879,-0.94 0.0285,-2.05092 0.96849,-2.47819 0.94,-0.42728 2.05092,-0.0285 2.50668,0.88303 l 0.22788,0.48425 c 20.36674,-4.58608 22.78796,-10.51095 22.81645,-10.56792 l 0.17091,-0.48425 v -1.25334 c 0,-0.0855 -0.0285,-0.17091 -0.0285,-0.25636 l -0.11394,-8.517 V 83.352964 c 0,-0.626669 -0.11394,-1.424247 -0.19939,-2.050916 -0.39879,-0.655154 -4.47214,-6.693965 -23.92737,-10.966709 -0.54121,-0.113939 -0.99697,-0.455759 -1.28182,-0.968488 -0.25636,-0.484244 -0.31333,-1.082429 -0.11394,-1.595158 7.34912,-19.227345 4.47214,-26.09222 3.98789,-27.032223 -0.11394,-0.142425 -0.28485,-0.256365 -0.39879,-0.39879 l -0.057,-0.05697 c -0.28484,-0.256364 -0.56969,-0.484244 -0.82606,-0.626669 L 124.52768,23.819406 c -0.057,-0.02848 -0.11394,-0.08545 -0.17091,-0.11394 -0.057,-0.02848 -0.14242,-0.02848 -0.19939,-0.05697 -0.65515,-0.02848 -9.22913,0.17091 -25.949796,19.626135 -0.626669,0.740609 -1.709097,0.883033 -2.506676,0.341819 -0.22788,-0.142425 -0.398789,-0.313334 -0.512729,-0.512729 -18.657647,-20.395229 -27.459498,-19.341285 -27.544953,-19.3128 -0.08545,0 -0.256365,0.02848 -0.34182,0.02848 0,0 -0.02849,0.02848 -0.05697,0.02848 l -24.468577,15.75218 c -0.02848,0.02848 -0.28485,0.199395 -0.313335,0.22788 l -0.427274,0.256365 c -0.05697,0.05697 -0.11394,0.142424 -0.199395,0.199394 -0.199394,0.17091 -0.370304,0.34182 -0.541214,0.541215 0.02849,0 -3.674559,6.49457 4.130319,26.889798 0.199395,0.51273 0.17091,1.110914 -0.11394,1.595158 -0.256364,0.484244 -0.740609,0.826064 -1.281823,0.968488 -19.42674,4.301229 -23.557059,10.2261 -24.155243,11.337013 -0.05697,0.17091 -0.08545,0.370304 -0.11394,0.626669 0,0.08545 -0.02848,0.17091 -0.02848,0.22788 v 28.684349 c 0,0.0285 0,0.057 0.02848,0.0854 0.02848,0.057 0.11394,0.25637 0.11394,0.28485 0.28485,0.82606 3.019405,6.92185 23.727969,10.96671 0.541214,0.11394 1.025458,0.45575 1.310308,0.94 0.284849,0.48424 0.313334,1.08243 0.11394,1.59516 -6.864875,18.25885 -4.500624,24.72494 -3.61759,26.26313 0.02849,0.0285 0.08546,0.17091 0.11394,0.19939 l 0.02849,0.0285 c 0.142425,0.0854 0.256364,0.17091 0.341819,0.28485 l 23.243725,14.78369 c 0.512729,0.31333 1.110913,0.59818 1.623642,0.79758 2.307282,-0.0285 10.653374,-1.42425 26.120705,-17.77462 0.569699,-0.62667 1.481218,-0.76909 2.193342,-0.42727 0.341819,-0.0285 0.598184,-0.0855 0.854549,-0.0855 z m -54.634147,2.30729 0.142425,0.0855 c -0.02849,-0.0285 -0.08546,-0.057 -0.142425,-0.0855 z m 54.719601,-50.5608 c -0.02848,0 -0.02848,0 0,0 -0.683638,0 -1.281823,-0.34182 -1.623642,-0.911521 -0.34182,-0.512729 -0.683639,-1.053943 -1.053943,-1.566673 -0.17091,-0.256364 -0.370305,-0.512729 -0.541215,-0.797578 h -0.142424 l -0.996974,0.02849 h -0.02848 c -1.053943,0 -1.908492,-0.826064 -1.908492,-1.880008 -0.02848,-1.053943 0.826064,-1.908492 1.880007,-1.936977 l 0.655154,-0.02849 c 0.28485,0 0.569699,-0.02848 0.854549,-0.02848 h 5.013352 c 0.712124,0 1.338793,0.370304 1.680613,0.996973 0.341823,0.626669 0.313333,1.367278 -0.05697,1.936977 l -0.484244,0.769094 c -0.541215,0.854549 -1.082429,1.680612 -1.623643,2.535161 -0.398789,0.569702 -0.996973,0.883032 -1.623643,0.883032 z"
   stroke="black" stroke-width="6"/>

   <path
   d="m 67.728681,171.37148 c -0.484244,0 -0.940004,-0.0285 -1.338793,-0.0855 -0.199395,0 -0.28485,-0.0285 -0.484244,-0.0855 -1.110914,-0.3703 -2.079402,-0.88303 -2.706071,-1.25334 L 39.528574,154.90718 c -0.655154,-0.42728 -0.996974,-1.19637 -0.854549,-1.93698 0.142425,-0.7691 0.712124,-1.36728 1.481218,-1.53819 8.431547,-1.85152 18.657646,-10.28307 33.099519,-27.34556 0.683639,-0.79758 1.880007,-0.91152 2.706071,-0.22788 0.797579,0.68364 0.911519,1.88001 0.22788,2.70607 -12.903685,15.18249 -22.70251,23.84191 -31.134057,27.26011 l 20.167349,12.81823 c 0.541214,0.34182 1.167883,0.62667 1.737582,0.82606 1.965462,0.28485 9.6564,-0.0855 26.006765,-17.8031 0.712124,-0.76909 1.936977,-0.82606 2.706071,-0.11394 0.769094,0.71213 0.826064,1.93698 0.11394,2.70607 -14.869147,16.15098 -23.614029,19.11341 -28.057682,19.11341 z"
   stroke="black" stroke-width="6"/>

   <path
   d="m 75.818408,65.891686 c -0.712124,0 -1.395762,-0.398789 -1.737582,-1.110913 C 66.874132,49.427381 63.370482,35.897027 63.968667,26.041232 L 42.861314,39.657041 c -0.626669,0.370305 -1.110913,0.769094 -1.452733,1.224853 -0.655154,0.826064 -1.851522,0.968489 -2.677586,0.28485 -0.826064,-0.655154 -0.968488,-1.851522 -0.284849,-2.677586 0.655154,-0.797579 1.452732,-1.509703 2.421221,-2.079402 L 65.392914,20.600605 c 0.655154,-0.427274 1.481218,-0.398789 2.107887,0.02848 0.626669,0.427275 0.940004,1.224854 0.797579,1.965462 -1.936977,9.200641 1.367278,23.614029 9.286096,40.562578 0.455759,0.968489 0.02849,2.107887 -0.911519,2.535161 -0.313334,0.142425 -0.598184,0.199395 -0.854549,0.199395 z"
   stroke="black" stroke-width="6"/>

   <path
   d="m 173.94908,113.26217 c -0.48424,0 -0.99697,-0.1994 -1.33879,-0.5697 -7.23518,-7.23518 -23.52857,-10.36852 -38.54015,-12.47641 -1.05394,-0.14243 -1.76606,-1.110915 -1.62364,-2.164858 0.14243,-1.053943 1.1394,-1.766067 2.16486,-1.623643 13.72975,1.936977 28.59889,4.756991 37.42923,10.881251 V 83.381449 c 0,-0.655154 -0.11394,-1.481217 -0.22788,-2.107886 -0.3703,-0.883034 -3.50365,-6.523055 -22.95887,-10.710344 -1.02546,-0.22788 -1.68062,-1.224853 -1.48122,-2.278797 0.22788,-1.025458 1.22485,-1.680612 2.2788,-1.481217 21.42068,4.586078 25.1807,11.365497 25.83585,13.330959 0.0285,0.08545 0.057,0.199395 0.0855,0.28485 0.14242,0.826064 0.28485,1.908492 0.28485,2.905465 v 27.972231 c 0,0.76909 -0.45576,1.48121 -1.16789,1.76606 -0.25636,0.14243 -0.48424,0.1994 -0.74061,0.1994 z"
   stroke="black" stroke-width="6"/>

   <path
   d="m 17.908492,113.54702 c -0.256365,0 -0.484244,-0.057 -0.740609,-0.14243 C 16.455759,113.11974 16,112.40762 16,111.63853 V 83.523874 c 0,-1.025458 0,-2.079402 0.370304,-3.190315 0.02848,-0.08545 0.05697,-0.17091 0.11394,-0.256365 1.509703,-3.019405 12.362471,-17.974007 79.529998,-17.974007 6.095778,0 12.134588,0.22788 16.549758,0.398789 l 2.93395,0.11394 c 1.05395,0.02848 1.88001,0.911519 1.85152,1.965462 -0.0285,1.053944 -0.91151,1.908492 -1.96546,1.851522 l -2.96243,-0.11394 c -4.38669,-0.170909 -10.36853,-0.398789 -16.407338,-0.398789 -65.316005,0 -75.171799,14.270963 -76.026348,15.752181 -0.142425,0.484244 -0.142425,1.082428 -0.142425,1.851522 v 24.041306 c 6.950329,-4.81396 18.629162,-8.20367 37.657112,-11.080651 12.305502,-1.709097 23.955849,-2.620616 35.606196,-2.76304 h 5.013352 c 1.053944,0 1.908491,0.854548 1.908491,1.908492 0,1.053943 -0.854547,1.908492 -1.908491,1.908492 h -4.984867 c -11.479438,0.142424 -22.958875,1.025458 -35.093466,2.706067 -14.270964,2.13638 -31.618302,5.52608 -38.768026,12.70429 -0.370304,0.39879 -0.854549,0.59819 -1.367278,0.59819 z"
   stroke="black" stroke-width="6"/>

   <path
   d="m 116.58038,126.96343 c -0.42727,0 -0.85455,-0.14242 -1.22485,-0.45576 -0.82607,-0.68363 -0.91152,-1.88 -0.25637,-2.70607 0.88304,-1.05394 2.82001,-4.07335 4.67154,-6.97881 0.82606,-1.31031 1.68061,-2.62062 2.4497,-3.81699 35.69165,-54.862022 29.08314,-70.728143 28.31405,-72.237845 -0.34182,-0.39879 -0.79758,-0.769094 -1.31031,-1.082429 L 128.03133,26.012747 c 0.85455,19.170376 -15.35339,51.158982 -30.42193,73.946947 -0.569699,0.883036 -1.766067,1.139396 -2.649101,0.541216 -0.883034,-0.569701 -1.110913,-1.766069 -0.541214,-2.649103 20.509165,-31.048602 32.301945,-61.299626 29.339505,-75.257255 -0.17091,-0.769093 0.14242,-1.538187 0.79758,-1.965462 0.62667,-0.427274 1.48122,-0.455759 2.10789,-0.02848 l 24.58251,15.837636 c 0.91152,0.541214 1.73759,1.253338 2.36425,2.050917 0.057,0.05697 0.11394,0.142425 0.14243,0.199395 1.7091,2.848495 8.37458,19.939469 -28.28556,76.425137 -0.7691,1.19637 -1.62365,2.50668 -2.44971,3.7885 -2.02243,3.16183 -3.93092,6.12427 -4.95638,7.3776 -0.39879,0.45576 -0.94,0.68364 -1.48122,0.68364 z"
   stroke="black" stroke-width="6"/>

   <path
   d="m 124.04344,172.14057 c -4.55759,0 -22.98736,-3.78849 -57.482642,-56.88445 -3.247285,-5.07033 -7.491544,-12.07763 -9.741856,-15.809155 L 56.705003,99.24757 c -0.34182,-0.541214 -0.370305,-1.224853 -0.08545,-1.823037 0.284849,-0.569699 0.826064,-0.968489 1.452733,-1.082428 12.419441,-1.737583 24.440092,-2.620616 35.74862,-2.620616 0.655154,0 1.281823,0.341819 1.623642,0.911518 0.34182,0.512729 0.683639,1.053944 1.053944,1.566673 0.398789,0.569699 0.769094,1.139398 1.139398,1.709097 6.18124,9.343063 12.90369,18.344313 19.91099,26.661923 13.04611,15.18248 25.23767,24.69645 34.32436,26.80434 0.74061,0.17091 1.31031,0.7691 1.45273,1.53819 0.14243,0.76909 -0.19939,1.5097 -0.85453,1.93698 l -24.4401,15.83763 c -0.68364,0.39879 -1.65212,0.94001 -2.76304,1.31031 -0.0854,0.0285 -0.19939,0.057 -0.28485,0.057 -0.17092,0.057 -0.48424,0.0855 -0.94,0.0855 z M 61.46199,99.760299 c 2.335767,3.873951 5.640022,9.314581 8.289123,13.416411 35.577707,54.74809 52.953537,55.20385 54.491717,55.1184 0.5697,-0.1994 1.16789,-0.51273 1.76607,-0.85455 l 20.99341,-13.61581 c -9.25761,-3.70305 -20.56613,-13.04611 -32.38739,-26.77586 v -0.0285 c -7.09275,-8.46002 -13.90066,-17.54672 -20.195835,-27.060696 -0.34182,-0.569699 -0.712124,-1.082428 -1.082428,-1.623643 -0.17091,-0.256364 -0.370305,-0.541214 -0.541215,-0.797578 -9.969734,0.08545 -20.480683,0.826063 -31.333452,2.221826 z"
   stroke="black" stroke-width="6"/>

   <path
   d="m 80.689336,66.176536 c -0.370304,0 -0.712124,-0.11394 -1.053943,-0.313335 -0.883034,-0.569699 -1.139399,-1.766067 -0.5697,-2.649101 9.94125,-15.267936 16.094001,-22.161296 16.350365,-22.446145 0.712124,-0.797579 1.908492,-0.854549 2.706071,-0.142425 0.797579,0.712124 0.854549,1.908492 0.142425,2.706071 -0.05697,0.05697 -6.238205,6.978814 -15.98006,21.961901 -0.34182,0.569699 -0.968489,0.883034 -1.595158,0.883034 z"
   stroke="black" stroke-width="6"/>

   <path
   d="m 43.317073,126.36525 c -0.256364,0 -0.484244,-0.057 -0.740609,-0.14243 -0.968488,-0.39878 -1.452732,-1.5097 -1.025458,-2.50667 0.341819,-0.85455 8.773366,-21.13584 15.524301,-26.918286 0.797579,-0.683639 2.022432,-0.598184 2.706071,0.199395 0.683639,0.797578 0.598184,2.022431 -0.199395,2.70607 -5.013352,4.329711 -12.163076,19.854011 -14.470358,25.494041 -0.313334,0.71212 -1.025458,1.16788 -1.794552,1.16788 z"
   stroke="black" stroke-width="6"/>

   <path
   d="m 147.23019,124.5707 c -0.76909,0 -1.5097,-0.48425 -1.79455,-1.25334 -1.59516,-4.3582 -6.60851,-11.82126 -14.15702,-21.0219 -0.65516,-0.82606 -0.54122,-2.02243 0.25636,-2.70607 0.82607,-0.655154 2.02243,-0.541215 2.70607,0.256364 5.52609,6.750936 12.56187,16.037026 14.7837,22.132816 0.3703,0.99697 -0.14243,2.0794 -1.1394,2.4497 -0.1994,0.11394 -0.42728,0.14243 -0.65516,0.14243 z"
   stroke="black" stroke-width="6"/>
</svg>
