<svg xmlns="http://www.w3.org/2000/svg" width="192" height="192" fill="none" viewBox="0 0 192 192"><path stroke="#000" stroke-linejoin="round" stroke-width="6" d="M123.42 23c-2.23-.07-11.02.98-26.61 18.52-17.63-18.74-26.87-18.57-28.57-18.36a4 4 0 0 0-1.59.47q-.05-.05-.1-.02-.04.04-.06.13l-23.6 15.15a.7.7 0 0 0-.37.25l-.93.6a1.6 1.6 0 0 0-.6.66q-.24.23-.52.6c-.5.7-4.42 7.48 2.8 27.25-10.92 2.62-16.84 5.83-20.1 8.41l-.26.2q-.54.44-.97.85-.35.32-.65.62a14 14 0 0 0-1.14 1.34l-.17.22q-.28.4-.51.84a1 1 0 0 0-.16.49l-.06.22q-.22.41-.22.88v.8l-.03.92v26.95q.02.46.23.86.06.24.18.45c.85 2.43 4.88 8.36 23.41 12.4-5.84 16.36-4.1 23.46-2.49 26.27.17.36.46.96 1.04 1.31l.28.2 22.78 14.42q1.24.73 2.6 1.2c.2.05.28.08.47.08q.64.08 1.29.08c4.02 0 11.75-2.65 24.53-15.79q.9-.89 1.84-1.85c8.55 9.07 15.04 13.63 19.74 15.98h.01a24 24 0 0 0 5.51 2.07l.53.11a13 13 0 0 0 1.76.2l.2.02h.08l.2-.02q.17 0 .33-.03c.12-.01.3-.01.38-.03l.27-.06c1.07-.35 2-.87 2.66-1.26l23.52-15.18c.42-.27.69-.68.8-1.13q.16-.23.3-.48c.99-1.45 3.98-7.92-2.93-26.27 20.56-4.7 23.69-11.14 24.12-12.43l.08-.24c.14-.33.28-.74.28-1.26v-1.56l-.14-8.19V83.82c0-.96-.14-2-.27-2.79l-.08-.27-.22-.45c-.97-2.22-5.1-7.74-22.54-11.82l-.9-.23c.36-1 .64-1.9.94-2.85l.24-.71a76 76 0 0 0 2.28-8.76q.3-1.53.46-2.87l.14-1.17c.25-2.52.22-4.55.04-6.14l-.1-.69a17 17 0 0 0-.24-1.28 11 11 0 0 0-.42-1.4q-.12-.36-.24-.64l-.07-.14c-.1-.21-.2-.45-.3-.59l-.13-.19a8 8 0 0 0-.82-.84q-.02-.1-.05-.13t-.06.02a8 8 0 0 0-1.35-1.01l-23.16-14.89a2 2 0 0 0-.63-.52c-.36-.19-.69-.24-.9-.3q-.12 0-.28-.05l-.22-.06zm-.56 3.65c1.27 8.23-2.23 21.63-9.37 37.3l-1.55-.07c-4.25-.16-10.06-.38-15.93-.38q-5.93 0-11.28.16c8.23-12.3 13.4-18.1 13.45-18.15q.18-.21.3-.46c15.03-17.29 23.05-18.36 24.38-18.4Zm-53.72.1c1.9.06 10.08 1.44 25.19 17.6-2.06 2.45-7.03 8.68-14.16 19.5l-2.14.1c-7.12-15.33-10.26-28.45-8.89-37.2Zm-3.97 2.18c-.55 9.03 2.54 21.3 8.87 35.2-11.24.7-20.09 1.94-27.2 3.42-6.4-17.32-3.88-23.58-3.56-24.3l.17-.1q.5-.64 1.4-1.17zm61.66.03 20.29 13.02q.38.23.8.6l.05.06c.1.13.27.24.38.38.47.9 3.24 7.48-3.84 25.91-.06.16-.05.33-.07.5-4 10.3-11 24.2-23.2 42.87-.74 1.15-1.57 2.4-2.36 3.66-1.4 2.2-2.72 4.19-3.69 5.55a279 279 0 0 1-16.96-22.73l.9-1.41.47-.74.16-.3a259 259 0 0 0 16.42-29.46q.2-.27.28-.6c6.4-13.8 10.8-27.35 10.37-37.31Zm-30.82 38.2c5.81 0 11.57.22 15.8.38a251 251 0 0 1-14.77 26.28h-3.82q-.68.01-1.35.04a253 253 0 0 0-32.37 2.47l-.12.08-.43.06c-18.32 2.76-29.56 6-36.25 10.62V84.04c0-.74 0-1.31.14-1.78.82-1.42 10.3-15.1 73.18-15.1zm51.46 4.61c17.3 4.07 21.05 9.53 21.42 10.14.08.6.19 1.36.19 1.97v17.1l.08 5.84c-8.08-5.56-21.37-8.27-34-10.11 5.66-9.89 9.59-18.1 12.31-24.93ZM92.77 97.5h.15q.25.4.52.77.52.74 1.01 1.5l.03.02.02.03a287 287 0 0 0 19.42 25.92v.03c11.37 13.16 22.26 22.12 31.17 25.67l-20.2 13.05q-.88.51-1.7.82c-.19.01-.61.01-1.27-.1h-.04c-.92-.15-2.33-.54-4.19-1.37l-.68-.3c-7.79-3.75-22.96-15.34-46.27-51.07-2.54-3.92-5.7-9.1-7.95-12.81a268 268 0 0 1 28.95-2.14h.08zm40.38 2.62c13.79 1.94 28.56 4.82 35.78 11.16-.62 1.05-4.33 5.97-21.84 9.9l-.05-.27c-2.1-5.73-8.62-14.36-13.89-20.8Zm-78.1.65c-4.91 6.8-9.51 17.26-10.82 20.34-16.1-3.33-20.21-7.93-21.2-9.64 6.52-5.65 19.84-8.71 32.02-10.7Zm4.36.38c2.28 3.75 5.54 9.08 8.25 13.31a389 389 0 0 0 6.02 8.96c-13.03 15.27-22.49 23.2-30.3 25.43-.88-1.66-2.82-7.88 3.4-24.59q.14-.12.24-.27c2-4.86 7.75-17.34 12.4-22.84Zm71.73 2.38c6.49 8.02 10.9 14.58 12.39 18.53v.19c7.78 18.79 5.48 25.28 4.9 26.43-.1 0-.24-.06-.4-.08h-.01c-8.3-2.68-18.97-11.18-30.35-24.18 1.03-1.37 2.6-3.76 4.33-6.46l2.36-3.63a383 383 0 0 0 6.78-10.8ZM75.88 126.5a237 237 0 0 0 16.76 21.27c-14.65 15.3-22.58 16.64-24.78 16.67a10 10 0 0 1-1.57-.77l-19.31-12.24c7.87-3.18 17.01-11.15 28.9-24.93Z"/></svg>