<svg xmlns="http://www.w3.org/2000/svg" width="192" height="192" viewBox="0 0 192 192"><path stroke="#000" stroke-width="5.05" d="M123.412 22.723c-2.23-.069-11.02.977-26.613 18.582-17.627-18.804-26.865-18.64-28.565-18.42a4.407 4.407 0 0 0-1.59.467c-.053.028-.109.081-.164.109l-23.6 15.213a.714.494 0 0 0-.357.248l-.932.601a1.555 1.555 0 0 0-.604.659c-.165.164-.33.356-.521.603-.494.713-4.413 7.511 2.797 27.357-10.91 2.626-16.83 5.85-20.098 8.444-.08.062-.176.128-.252.19-.369.3-.674.576-.973.857-.232.215-.455.422-.65.623a13.82 13.82 0 0 0-1.14 1.342c-.055.076-.119.153-.167.224a7.97 7.97 0 0 0-.515.848.974.974 0 0 0-.11.248c-.027.08-.023.156-.047.236a3.024 3.024 0 0 1-.064.229 1.979 1.979 0 0 0-.219.877v.81c-.01.307-.027.616-.027.916v27.055c0 .307.091.597.229.86a2.071 2.071 0 0 0 .181.456c.85 2.44 4.88 8.388 23.412 12.446-5.839 16.42-4.11 23.547-2.494 26.37.165.357.465.96 1.041 1.315.082.055.193.137.275.192l22.782 14.474a13.885 13.885 0 0 0 2.603 1.205c.192.055.273.082.465.082a9.23 9.23 0 0 0 1.29.082c4.017 0 11.754-2.655 24.53-15.844.609-.61 1.21-1.205 1.84-1.863 8.55 9.104 15.037 13.684 19.735 16.041l.015.008c2.261 1.133 4.09 1.764 5.504 2.067.183.04.36.081.53.113.314.056.607.108.874.137.337.04.623.058.883.066.059.001.149.016.203.016l.04-.002.042.002v.002c.094 0 .113-.015.194-.018.117-.006.239-.012.336-.031.115-.014.307-.013.375-.035a.974.974 0 0 0 .273-.055c1.07-.356 2.001-.878 2.66-1.262l23.522-15.24c.417-.272.683-.68.789-1.137a4.23 4.23 0 0 0 .306-.48c.987-1.453 3.975-7.95-2.933-26.37 20.56-4.714 23.686-11.184 24.125-12.472l.08-.248c.137-.328.275-.74.275-1.26v-1.562l-.136-8.225V83.768c0-.96-.139-2.002-.276-2.797-.028-.082-.055-.192-.082-.274a4.168 4.168 0 0 0-.212-.455c-.977-2.222-5.111-7.766-22.54-11.857-.311-.078-.59-.16-.91-.236.365-1.01.644-1.914.953-2.856.08-.24.163-.485.239-.72.933-2.92 1.618-5.521 2.088-7.821.068-.331.13-.651.19-.97.19-1.02.345-1.978.458-2.878.051-.397.103-.797.14-1.172.25-2.532.223-4.574.038-6.168-.03-.253-.069-.457-.104-.69-.072-.463-.145-.9-.236-1.282a10.967 10.967 0 0 0-.416-1.416c-.084-.23-.159-.45-.24-.631-.027-.06-.049-.094-.075-.149-.1-.208-.205-.444-.289-.584a.83.83 0 0 0-.136-.191 8.106 8.106 0 0 0-.823-.85c-.028-.028-.054-.083-.11-.11a7.86 7.86 0 0 0-1.345-1.014l-23.164-14.94a1.94 1.94 0 0 0-.63-.52c-.357-.192-.684-.247-.903-.302-.083 0-.165-.027-.275-.055-.084-.027-.137-.027-.22-.055a3.496 3.496 0 0 0-.554-.052zm-.566 3.656c1.27 8.263-2.227 21.711-9.368 37.44l-1.544-.061c-4.25-.164-10.061-.385-15.928-.385-3.965 0-7.716.056-11.283.158C92.952 51.185 98.12 45.36 98.172 45.31a1.83 1.83 0 0 0 .299-.457c15.03-17.354 23.044-18.432 24.375-18.473Zm-53.707.111c1.899.059 10.076 1.44 25.18 17.653-2.062 2.464-7.031 8.715-14.153 19.588-.721.03-1.442.06-2.146.095-7.118-15.39-10.252-28.563-8.881-37.336Zm-3.975 2.18c-.55 9.064 2.544 21.375 8.87 35.342-11.24.7-20.083 1.94-27.2 3.427-6.402-17.384-3.88-23.668-3.553-24.394a1.805 1.805 0 0 0 .17-.094c.33-.439.796-.824 1.399-1.18zm61.654.031 20.286 13.07c.247.138.52.357.794.604l.055.055c.11.137.275.247.385.385.466.904 3.235 7.508-3.838 26.011-.061.159-.058.331-.07.5-4.006 10.345-11.007 24.286-23.203 43.031-.74 1.152-1.565 2.413-2.36 3.674-1.4 2.197-2.713 4.201-3.683 5.563A279.408 279.408 0 0 1 98.22 98.785c.303-.471.607-.943.91-1.422l.465-.74a1.817 1.817 0 0 0 .156-.305c5.817-9.093 11.653-19.339 16.422-29.564.127-.18.215-.377.272-.596 6.405-13.853 10.8-27.458 10.373-37.457zM96.006 67.047c5.809 0 11.563.219 15.785.383-4.012 8.381-8.98 17.303-14.76 26.37H93.21c-.45.006-.901.032-1.352.04-10.292.098-21.148.912-32.367 2.48a1.95 1.95 0 0 0-.117.086c-.145.02-.286.035-.432.055-18.31 2.768-29.55 6.03-36.24 10.662V83.986c0-.74 0-1.315.137-1.781.823-1.425 10.308-15.158 73.168-15.158Zm51.45 4.629c17.302 4.081 21.043 9.56 21.415 10.172.082.604.191 1.371.191 1.974v17.16l.079 5.874c-8.076-5.586-21.368-8.3-33.993-10.155 5.657-9.922 9.584-18.155 12.307-25.025zM92.77 97.5h.138c.164.274.356.52.52.768.357.493.685 1.014 1.015 1.507a1.795 1.795 0 0 0 .026.024 1.795 1.795 0 0 0 0 .002l.002.002.017.025a288.294 288.294 0 0 0 19.418 26.016v.027c11.377 13.213 22.26 22.204 31.17 25.768l-20.205 13.101c-.576.33-1.15.632-1.7.824-.182.01-.606.008-1.26-.095h-.013l-.029-.006c-.924-.151-2.335-.54-4.19-1.371a26.75 26.75 0 0 1-.677-.31c-7.79-3.76-22.963-15.395-46.271-51.26-2.54-3.93-5.7-9.131-7.946-12.856 9.929-1.263 19.46-1.975 28.948-2.149.017.001.032.01.05.01h.028zm40.369 2.625c13.783 1.954 28.552 4.84 35.77 11.203-.618 1.057-4.33 5.997-21.833 9.938a1.828 1.828 0 0 0-.055-.274c-2.094-5.746-8.617-14.408-13.882-20.867zm-78.096.652c-4.91 6.835-9.508 17.326-10.82 20.424-16.086-3.35-20.205-7.963-21.2-9.676 6.527-5.675 19.849-8.748 32.02-10.748zm4.367.387c2.276 3.763 5.531 9.115 8.25 13.36a392.477 392.477 0 0 0 6.014 8.99c-13.032 15.324-22.486 23.29-30.295 25.523-.885-1.667-2.818-7.908 3.408-24.676a1.892 1.892 0 0 0 .23-.271c1.995-4.876 7.746-17.403 12.393-22.926zm71.715 2.385c6.49 8.053 10.898 14.64 12.387 18.6a1.843 1.843 0 0 0 .002.187c7.786 18.86 5.482 25.382 4.906 26.533-.11 0-.245-.055-.41-.082h-.008c-8.303-2.69-18.964-11.224-30.346-24.265 1.036-1.378 2.598-3.774 4.336-6.49.795-1.235 1.62-2.494 2.36-3.645a385.843 385.843 0 0 0 6.773-10.838zm-55.25 23.06c6.21 8.789 11.79 15.798 16.754 21.344-14.65 15.366-22.576 16.707-24.778 16.734a10.246 10.246 0 0 1-1.562-.767l-19.314-12.287c7.875-3.198 17.014-11.197 28.9-25.024Z"/></svg>