<svg width="192" height="192" viewBox="0 0 192 192" fill="none" xmlns="http://www.w3.org/2000/svg"><path d="m104 34-26 97m39-50-29 26m27 12-28-9m61.326 35.79c11.519-10.74 18.915-24.724 21.041-39.784 2.126-15.059-1.136-30.352-9.281-43.506-8.145-13.154-20.717-23.435-35.767-29.248-15.05-5.812-31.737-6.832-47.472-2.9-15.734 3.93-29.638 12.593-39.555 24.643C27.375 67.046 22 81.811 22 97c0 15.189 5.375 29.954 15.292 42.005 9.916 12.05 23.82 20.713 39.555 24.644" stroke="#000" stroke-width="12" stroke-linecap="round" stroke-linejoin="round"/></svg>