<svg width="192" height="192" viewBox="0 0 192 192" fill="none" xmlns="http://www.w3.org/2000/svg"><path d="M50.315 38.589A73.871 73.871 0 0 1 115.7 24.417c22.807 5.981 42.904 22.492 50.298 44.47l-137.704.03a73.898 73.898 0 0 0-.364 52.913m140.857-8.102a73.88 73.88 0 0 1-45.378 51.221m-83.767-22.708A73.874 73.874 0 0 0 96.48 170v-59.547" stroke="#000" stroke-width="12" stroke-miterlimit="16" stroke-linecap="round" stroke-linejoin="round"/><path d="M96.478 95.556a3 3 0 1 0 0-6 3 3 0 0 0 0 6Z" stroke="#000" stroke-width="6" stroke-miterlimit="16" stroke-linecap="round" stroke-linejoin="round"/></svg>