<svg width="192" height="192" fill="none" xmlns="http://www.w3.org/2000/svg"><path d="M86.902 69.384A20 20 0 0 1 99 77a20.008 20.008 0 0 1 20.542-7.478 19.995 19.995 0 0 1 13.096 10.05 19.997 19.997 0 0 1-3.496 23.57l-25.899 25.9a6 6 0 0 1-8.486 0l-25.9-25.9a19.998 19.998 0 0 1 18.045-33.758Z" stroke="#000" stroke-width="12" stroke-linecap="round" stroke-linejoin="round"/><path d="M99 167c39.212 0 71-31.788 71-71s-31.788-71-71-71-71 31.788-71 71c0 12.342 3.149 23.948 8.687 34.059L22 168l36.49-13.684C69.978 162.312 83.942 167 99 167Z" stroke="#000" stroke-width="12" stroke-linecap="round" stroke-linejoin="round"/></svg>