<svg xmlns="http://www.w3.org/2000/svg" width="192" height="192" fill="none"><path stroke="#000" stroke-linecap="round" stroke-linejoin="round" stroke-width="6" d="M54 74h8l-4 11z"/><circle cx="58" cy="96" r="3" stroke="#000" stroke-linejoin="round" stroke-width="6"/><path stroke="#000" stroke-linecap="round" stroke-linejoin="round" stroke-width="8" d="M58 109a9 9 0 0 0 18 0m22 9c9 0 9-5 9-5v-12s0-6-9-6m0 0c9 0 9-5 9-5v-9s0-6-9-6m-22 34V75m45 43V75m18 43v-9m-18 9h18m-49 0V75m8 0h-8m8 43h-8m8-23h-8"/><circle cx="96" cy="96" r="74" stroke="#000" stroke-linejoin="round" stroke-width="12"/></svg>