<svg width="192" height="192" viewBox="0 0 192 192" fill="none" xmlns="http://www.w3.org/2000/svg"><path d="M116 112c0 3.677-.828 7.318-2.436 10.715-1.608 3.397-3.965 6.484-6.937 9.084-2.971 2.6-6.499 4.662-10.381 6.07A36.01 36.01 0 0 1 84 140a36.01 36.01 0 0 1-12.246-2.131c-3.882-1.408-7.41-3.47-10.381-6.07-2.972-2.6-5.329-5.687-6.937-9.084C52.828 119.318 52 115.677 52 112m103-32a16.001 16.001 0 0 1 11.314 27.314A16.016 16.016 0 0 1 155 112" stroke="#000" stroke-width="10" stroke-linecap="round" stroke-linejoin="round"/><path d="M100 97.144a15.998 15.998 0 0 1 16 0m-64 0a16 16 0 0 1 16 0" stroke="#000" stroke-width="8" stroke-linecap="round" stroke-linejoin="round"/><path d="M155 80H23.066M155 112H23.066m121.787.306a63.003 63.003 0 0 1-108.219 25.233 63.002 63.002 0 0 1 0-83.078 63 63 0 0 1 108.219 25.233" stroke="#000" stroke-width="10" stroke-linecap="round" stroke-linejoin="round"/></svg>