<svg xmlns="http://www.w3.org/2000/svg" width="192" height="192" fill="none" stroke="#000" stroke-linecap="round" stroke-linejoin="round" stroke-width="10" viewBox="0 0 192 192"><path d="M116 112c0 3.677-.828 7.318-2.436 10.715s-3.965 6.484-6.937 9.084c-2.971 2.6-6.499 4.662-10.381 6.07a36 36 0 0 1-24.492 0c-3.882-1.408-7.41-3.47-10.381-6.07s-5.329-5.687-6.937-9.084S52 115.677 52 112m103-32a16.001 16.001 0 0 1 11.314 27.314A16.02 16.02 0 0 1 155 112"/><path stroke-width="8" d="M100 97.144a16 16 0 0 1 16 0m-64 0a16 16 0 0 1 16 0"/><path d="M155 80H23.066M155 112H23.066m121.787.306a63.003 63.003 0 0 1-108.219 25.233 63 63 0 0 1 0-83.078 63 63 0 0 1 108.219 25.233"/></svg>