<svg xmlns="http://www.w3.org/2000/svg" width="192" height="192" fill="none" stroke="#000" stroke-linecap="round" stroke-linejoin="round" stroke-width="12" viewBox="0 0 192 192"><path d="M25 79.4c45.5 0 90.9-.1 136.4-.1 9.5-.1 17.3 7 18.1 15.5.9 9.5-7.3 18.8-18.1 18.8l-136.8 1.2c7.1 27.7 31.7 47.4 59.9 48.3 29.1.9 55.5-18.6 63.5-47m1.4-37.9c-8.2-27.6-33.7-46.5-62.4-46.4-28.8.2-54.3 19.7-62 47.6"/><path d="M54.4 115c5.5 14.7 19.7 24.4 35.1 24.1 14.7-.3 28-9.5 33.5-23.4m-74.8-15.4c1.3-4.9 5.7-8.2 10.6-8.3 4.7 0 8.9 2.9 10.5 7.4m38.5.7c1.3-4.9 5.7-8.2 10.6-8.3 4.7 0 8.9 2.9 10.5 7.4"/></svg>