<?xml version="1.0" encoding="utf-8"?>
	<svg version="1.1" xmlns="http://www.w3.org/2000/svg" xmlns:xlink="http://www.w3.org/1999/xlink" x="0px" y="0px" width="240.0" height="240.0" xml:space="preserve">
		<path d="M220,119.965L120,35L20,119.965L37.832,120.315L37.832,204.231L202.168,204.231L202.168,120.315L220,119.965ZM55.315,187.448L55.315,112.972L120,57.727L184.685,112.972L184.685,187.448L55.315,187.448Z" fill="#ff231815" stroke="#00000000" stroke-width="1.0" stroke-miterlimit=""/>
		<path d="M191.678,78.357L153.217,39.895L191.678,39.895L191.678,78.357ZM147.972,141.294L147.972,127.308L129.79,127.308L146.923,110.524L136.783,100.734L120,117.517L103.217,100.734L93.077,110.524L110.21,127.308L92.028,127.308L92.028,141.294L113.007,141.294L113.007,148.287L92.028,148.287L92.028,162.273L113.007,162.273L113.007,176.259L126.993,176.259L126.993,162.273L147.972,162.273L147.972,148.287L126.993,148.287L126.993,141.294L147.972,141.294Z" fill="#ffbdbcbc" stroke="#00000000" stroke-width="1.0" stroke-miterlimit=""/>
	</svg>
