<?xml version="1.0" encoding="utf-8"?>
	<svg version="1.1" xmlns="http://www.w3.org/2000/svg" xmlns:xlink="http://www.w3.org/1999/xlink" x="0px" y="0px" width="240.0" height="240.0" xml:space="preserve">
		<path d="M204.878,53.227C212.484,54.408 218.655,60.648 219.549,68.331C219.927,71.586 219.926,74.854 219.874,78.124L219.835,80.305C219.803,82.122 219.777,83.939 219.814,85.754C219.838,86.928 219.936,88.102 220,89.275C219.928,90.416 219.854,91.555 219.781,92.696C218.806,103.973 216.261,114.883 212.126,125.423C212.126,125.422 212.086,125.512 212.087,125.511C211.984,125.766 211.88,126.021 211.776,126.278C211.215,126.745 211.01,127.381 210.931,128.074C210.815,128.333 210.698,128.594 210.581,128.853C210.494,129.069 210.408,129.284 210.321,129.498C209.61,130.217 209.244,131.093 209.148,132.092C209.148,132.092 209.087,132.224 209.087,132.223C208.603,132.459 208.384,132.839 208.465,133.381C208.266,133.431 208.198,133.554 208.262,133.749C208.102,134.036 207.941,134.325 207.78,134.614C203.85,140.651 199.932,146.683 195.138,152.114C182.489,166.444 167.026,176.364 148.795,182.032C148.18,182.223 147.582,182.467 146.977,182.687C134.444,185.884 121.768,187.181 108.848,185.783C102.948,185.144 97.253,183.51 91.424,182.546C90.967,182.566 90.511,182.586 90.055,182.605C89.599,182.182 89.213,181.542 88.676,181.366C77.038,177.568 66.603,171.541 56.818,164.295L56.769,164.106C56.769,164.106 56.574,164.091 56.575,164.091C55.842,163.188 55.08,162.319 53.931,161.917C53.931,161.917 53.818,161.819 53.818,161.82C51.136,159.192 48.452,156.563 45.769,153.933C45.769,153.933 45.652,153.814 45.653,153.815C45.317,153.158 44.919,152.558 44.2,152.258C44.2,152.258 44.092,152.115 44.092,152.116C44.125,151.755 43.957,151.571 43.596,151.557C43.596,151.557 43.495,151.446 43.496,151.447C42.35,149.489 40.906,147.767 39.31,146.166L39.247,146.085C33.755,137.948 28.794,129.531 25.534,120.214C25.286,119.502 24.985,118.804 24.806,118.076C24.659,117.48 24.378,116.641 24.649,116.274C25.202,115.53 26.018,116.153 26.695,116.386C33.491,118.72 40.372,119.138 47.373,117.406C50.958,116.519 54.407,115.247 57.437,113.161C59.547,111.709 60.441,111.867 61.631,114.312C69.77,131.046 82.8,142.32 100.498,148.032C130.153,157.605 163.652,143.507 177.455,115.596C180.303,109.836 182.786,103.83 183.19,97.244C183.626,96.409 183.427,95.552 183.272,94.698C184.1,94.195 183.975,93.446 183.792,92.683L183.905,91.298L183.905,91.298C184.648,84.542 184.061,77.762 184.257,70.997C184.588,59.573 193.923,51.526 204.878,53.227ZM36.508,63.789C48.12,64.291 56.731,69.915 57.111,82.809C57.414,93.087 48.928,101.238 38.646,101.23C28.3,101.22 19.911,92.806 20.001,82.53C20.078,73.64 28.708,63.452 36.508,63.789Z" fill="#000" stroke="#00000000" stroke-width="1.0" stroke-miterlimit=""/>
	</svg>
