<?xml version="1.0" encoding="utf-8"?>
	<svg version="1.1" xmlns="http://www.w3.org/2000/svg" xmlns:xlink="http://www.w3.org/1999/xlink" x="0px" y="0px" width="240.0" height="240.0" xml:space="preserve">
		<path d="M207.556,126.285L171.504,126.285C171.504,126.285 168.913,126.285 167.834,126.725C167.186,126.945 165.027,128.705 165.027,128.705L120.556,174.023C119.692,174.683 118.613,174.683 117.749,174.023L70.471,125.845C69.824,125.185 69.824,123.865 70.471,123.205L117.965,75.028C118.613,74.148 119.908,74.148 120.556,75.028L162.221,117.486C162.221,117.486 163.948,119.466 165.891,120.126C167.834,120.566 170.64,118.146 170.64,118.146L189.854,98.127L133.724,41.37C121.851,29.271 108.898,30.371 103.717,31.031C58.598,38.73 26,78.108 26,124.966C26,177.763 68.96,220 119.261,220C168.697,220 210.146,179.522 212.521,128.485C212.521,127.825 212.737,127.385 211.442,126.505C210.146,125.625 207.556,126.285 207.556,126.285L207.556,126.285ZM148.62,39.83L197.841,89.547L211.442,76.128C211.442,76.128 212.737,73.928 213.169,71.948C213.384,70.848 211.226,69.089 211.226,69.089L181.218,38.291C152.938,9.472 121.419,23.331 121.419,23.331C121.419,23.331 134.588,23.551 148.62,39.83L148.62,39.83Z" fill="#000" stroke="#00000000" stroke-width="1.0" stroke-miterlimit=""/>
	</svg>
