<svg xmlns="http://www.w3.org/2000/svg" width="192" height="192" fill="none"><path stroke="#000" stroke-linecap="round" stroke-linejoin="round" stroke-width="12" d="M45.492 69.472C30.614 78.055 22 94.44 22 94.44c16.902 10.104 24.076 19.401 26.77 23.821.784 1.287-.12 2.791-1.62 2.961-8.932 1.012-33.119 5.849-11.055 27.833 21.707 21.627 26.757-1.345 27.882-10.57.197-1.61 1.933-2.549 3.284-1.644 5.374 3.601 17.115 12.806 27.564 30.159 0 0 16.445-8.582 25.059-23.407 0 0-36.022-9.362-6.265-39.011 24.275-21.066 27.799 20.676 27.799 20.676C153.556 117.846 170 90.538 170 90.538c-25.172-9.598-29.625-20.18-30.391-24.137-.184-.95.492-1.751 1.428-2.011 6.685-1.857 31.431-10.403 10.952-30.808-17.513-17.45-26.335 6.09-28.459 13.013-.321 1.045-1.313 1.723-2.381 1.477-4.751-1.093-17.546-5.58-26.324-23.072 0 0-22.709 13.264-30.148 25.357 0 0 36.413-1.95 15.27 22.236-21.143 24.187-34.455-3.12-34.455-3.12Z"/></svg>