<?xml version="1.0" encoding="utf-8"?>
	<svg version="1.1" xmlns="http://www.w3.org/2000/svg" xmlns:xlink="http://www.w3.org/1999/xlink" x="0px" y="0px" width="240.0" height="240.0" xml:space="preserve">
		<path d="M211.476,71.072C210.272,74.619 209.067,78.164 207.863,81.711C205.104,80.091 202.9,77.684 199.601,76.787C195.264,75.608 191.067,73.927 186.858,72.302C183.654,71.064 180.568,68.568 176.691,69.608C172.63,66.061 168.863,62.088 164.456,59.04C141.057,42.853 116.105,39.954 89.733,51.036C62.574,62.449 44.459,89.847 44.255,119.191C44.209,125.906 45.754,132.406 45.89,139.057C42.999,150.604 39.729,162.093 40.405,174.197C36.918,173.384 33.432,172.572 29.944,171.759C28.251,170.793 28.961,169.44 29.344,168.122C32.643,156.76 35.841,145.368 39.286,134.05C40.205,131.031 39.951,128.584 38.377,125.849C32.73,116.031 27.278,106.099 21.782,96.193C19.1,91.357 19.123,91.327 24.09,88.573C34.107,83.017 44.106,77.428 54.176,71.971C56.326,70.807 57.563,69.379 58.227,66.956C61.451,55.182 64.95,43.485 68.18,31.712C68.884,29.144 69.857,28.627 72.391,29.384C83.485,32.7 94.704,35.605 105.731,39.119C109.814,40.421 112.928,39.601 116.38,37.617C126.2,31.972 136.143,26.543 146.043,21.038C147.442,20.261 148.885,19.081 150.191,21.192L150.991,22.674L151.021,22.714C153.282,27.712 156.031,32.442 158.934,37.087C160.975,42.055 164.024,46.508 166.298,51.38C167.393,53.724 168.448,56.952 171.615,57.848C178.594,59.827 185.464,62.205 192.603,63.601C198.003,65.264 203.4,66.936 208.805,68.583C210.12,68.984 211.65,69.098 211.476,71.072" fill="#000" stroke="#00000000" stroke-width="1.0" stroke-miterlimit=""/>
		<path d="M47.336,176.591C45.026,175.792 42.717,174.995 40.406,174.196C39.729,162.093 42.999,150.604 45.89,139.058C46.788,141.259 47.77,143.428 48.574,145.662C52.499,156.566 58.36,166.207 66.955,174.086C68.681,177.247 72.464,177.913 74.694,180.521C77.522,183.828 81.379,186.019 85.151,187.792C98.893,194.249 113.234,197.235 128.639,195.344C146.237,193.184 161.243,185.968 173.545,173.571C184.959,162.072 192.142,148.259 194.399,131.846C195.933,120.698 196.059,109.868 192.603,99.109C191.431,95.545 190.038,92.074 188.575,88.613C185.619,81.623 180.774,75.865 176.691,69.608C180.568,68.568 183.655,71.064 186.857,72.302C191.067,73.927 195.264,75.608 199.601,76.787C202.9,77.684 205.103,80.091 207.862,81.711C207.353,83.991 206.842,86.271 206.333,88.551C204.28,95.514 202.223,102.474 200.179,109.438C199.849,110.562 199.911,111.673 200.497,112.714C204.115,119.145 207.305,125.819 211.422,131.967C213.499,137.096 216.493,141.741 219.228,146.511C220.486,148.704 220.08,149.596 217.944,150.716C212.958,153.331 208.122,156.231 203.226,159.014C196.932,162.423 190.641,165.838 184.34,169.236C183.152,169.877 182.481,170.844 182.129,172.13C180.24,179.037 178.322,185.937 176.414,192.838C174.825,198.136 173.119,203.402 171.699,208.744C171.064,211.137 170.14,211.711 167.73,210.966C162.449,209.331 157.073,208.004 151.736,206.551C144.75,204.469 137.768,202.373 130.771,200.33C130.085,200.129 129.147,199.958 128.596,200.261C121.697,204.067 114.848,207.961 107.987,211.833C103.561,214.212 99.05,216.448 94.741,219.023C92.124,220.588 90.734,220.398 89.203,217.537C83.567,207.004 77.627,196.632 71.92,186.135C70.688,183.869 69.14,182.489 66.601,181.845C60.15,180.21 53.754,178.357 47.336,176.591" fill="#000" stroke="#00000000" stroke-width="1.0" stroke-miterlimit=""/>
		<path d="M66.955,174.086C58.36,166.207 52.499,156.566 48.573,145.662C47.77,143.427 46.788,141.259 45.889,139.058C45.754,132.406 44.209,125.906 44.255,119.191C44.459,89.847 62.574,62.449 89.733,51.036C116.105,39.954 141.057,42.853 164.457,59.04C168.863,62.088 172.63,66.061 176.691,69.609C180.774,75.864 185.619,81.623 188.575,88.614C190.038,92.074 191.431,95.545 192.603,99.109C189.563,97.25 186.23,96.267 182.7,96.114C164.442,95.316 146.596,97.163 129.641,104.578C117.673,109.813 106.939,116.85 97.362,125.791C88.704,133.871 81.563,143.06 76.233,153.558C72.838,160.243 69.118,166.827 66.955,174.086" fill="#000" stroke="#00000000" stroke-width="1.0" stroke-miterlimit=""/>
		<path d="M66.955,174.086C69.118,166.827 72.838,160.243 76.233,153.558C81.563,143.06 88.704,133.871 97.362,125.791C106.939,116.85 117.673,109.813 129.641,104.578C146.596,97.163 164.442,95.316 182.7,96.114C186.23,96.267 189.563,97.25 192.603,99.109C196.06,109.868 195.933,120.697 194.399,131.846C192.142,148.259 184.958,162.072 173.545,173.571C161.243,185.967 146.236,193.184 128.639,195.344C113.234,197.236 98.893,194.249 85.151,187.791C81.379,186.019 77.522,183.829 74.695,180.521C72.465,177.914 68.682,177.247 66.955,174.086" fill="#000" stroke="#00000000" stroke-width="1.0" stroke-miterlimit=""/>
		<path d="M120,120m-75,0a75,75 0,1 1,150 0a75,75 0,1 1,-150 0" fill="#000" stroke="#00000000" stroke-width="1.0" stroke-miterlimit=""/>
	</svg>
