<svg xmlns="http://www.w3.org/2000/svg" width="192" height="192" fill="none"><path stroke="#000" stroke-linecap="round" stroke-linejoin="round" stroke-width="12" d="M32 28a6 6 0 0 1 6-6h40a6 6 0 0 1 6 6v108c0 24-16 34-29 34-8.357 0-17.953-.826-23.742-1.417-3.01-.307-5.258-2.854-5.258-5.88V144a6 6 0 0 1 6-6h10a6 6 0 0 0 6-6V58a6 6 0 0 0-6-6h-4a6 6 0 0 1-6-6zm82 0a6 6 0 0 1 6-6h40a6 6 0 0 1 6 6v108c0 24-16 34-29 34-8.357 0-17.953-.826-23.742-1.417-3.011-.307-5.258-2.854-5.258-5.88V144a6 6 0 0 1 6-6h10a6 6 0 0 0 6-6V58a6 6 0 0 0-6-6h-4a6 6 0 0 1-6-6z"/></svg>