<?xml version="1.0" encoding="utf-8"?>
	<svg version="1.1" xmlns="http://www.w3.org/2000/svg" xmlns:xlink="http://www.w3.org/1999/xlink" x="0px" y="0px" width="240.0" height="240.0" xml:space="preserve">
		<path d="M97.807,95.767C106.215,99.516 113.433,104.657 117.977,112.966C118.781,114.436 118.769,116.914 120.281,117.219C121.447,117.454 122.969,115.659 124.399,114.893C133.172,110.188 142.67,107.761 152.414,106.218C173.102,102.943 193.672,103.45 214.09,108.335C216.596,108.934 218.703,109.978 219.911,112.382C219.94,113.609 219.996,114.837 219.996,116.064C220,146.117 220,176.17 220,206.223C220,212.633 217.679,214.98 211.302,214.972C179.614,214.935 147.925,214.875 116.236,214.853C87.084,214.832 57.931,214.843 28.779,214.863C26.964,214.864 25.186,214.768 23.45,214.216C20.842,212.216 19.989,209.634 20,206.312C20.106,176.107 20.061,145.901 20.063,115.696C20.064,111.115 21.102,109.702 25.497,108.602C28.354,107.887 31.227,107.152 34.138,106.771C36.288,106.491 36.911,105.53 36.701,103.55C36.581,102.416 36.674,101.26 36.681,100.114C36.707,96.109 38.011,94.347 41.905,93.183C47.105,91.628 52.458,90.857 57.842,90.417C71.541,89.298 85.014,90.065 97.807,95.767ZM186.367,26C190.201,26.843 193.189,28.49 195.866,30.585C204.927,37.673 209.019,46.95 207.773,58.477L206.544,63.824C202.797,74.322 195.562,81.077 184.726,83.697C177.099,85.541 169.808,84.151 162.909,80.522C160.584,78.806 158.039,77.337 155.868,74.458C166.498,76.581 175.591,74.52 183.325,67.692C188.933,62.741 192.197,56.467 192.97,48.967C193.006,46.927 193.117,44.886 193.065,42.849C192.971,39.2 192.107,35.745 190.159,32.611C189.497,30.241 187.727,28.464 186.367,26ZM76.673,74.007C77.542,76.244 78.542,78.024 81.213,78.431C79.033,79.337 77.401,80.59 76.837,83.013C76.093,80.689 74.496,79.46 72.379,78.503C74.841,77.923 76.129,76.429 76.673,74.007ZM44.763,40.099C44.982,40.442 45.172,40.793 45.354,41.141L45.534,41.486C46.309,42.972 47.061,44.29 49.472,44.352C47.166,45.784 45.675,46.956 45.08,49.568C44.095,47.137 43.045,45.471 40.836,44.775C42.878,43.869 44.457,42.813 44.763,40.099ZM117.755,28.931C118.556,32.906 120.819,34.978 124.794,35.568C121.246,36.637 118.854,38.627 118.25,42.623C116.725,41.04 116.758,39.198 115.694,38.025C114.569,36.786 112.682,36.87 110.784,35.399C114.89,34.822 117.115,32.823 117.755,28.931Z" fill="#000" stroke="#00000000" stroke-width="1.0" stroke-miterlimit=""/>
	</svg>
