<svg xmlns="http://www.w3.org/2000/svg" width="192" height="192" fill="none" viewBox="0 0 192 192"><path stroke="#000" stroke-linecap="round" stroke-linejoin="round" stroke-width="12" d="M126 44a21.998 21.998 0 0 1-22-22h66m-22 22h-22m44 44V22m-22 44V44m22 44a21.998 21.998 0 0 1-22-22M44 126a21.992 21.992 0 0 1-15.556-6.444A22.005 22.005 0 0 1 22 104m63-19a21.998 21.998 0 0 1-22-22m-41 41h66M63 63h66m-63 63H44m63-41H85m3 85v-66m41 25V63m-63 85v-22m41-19V85m-19 85a21.992 21.992 0 0 1-15.556-6.444A22.005 22.005 0 0 1 66 148m63-19a21.992 21.992 0 0 1-15.556-6.444A21.99 21.99 0 0 1 107 107"/></svg>