<svg xmlns="http://www.w3.org/2000/svg" width="192" height="192" viewBox="0 0 192 192"><path d="M119.77 137.658c-2.19 3.709-4.13 6.14-4.13 6.14 0 .012-.01.023-.02.035 0 0-11.92 14.167-28.62 14.167-11.66 0-18.42-3.309-22.16-6.338-1.94 1.716-3.48 4.067-4.8 6.407-3.6 6.393-5.19 13.281-5.19 13.281a6.005 6.005 0 0 1-11.51.648c-4.03-11.423-5.61-22.206-4.29-32.745 1.04-8.298 5.01-15.735 8.87-19.492C50.65 117.109 53.6 116 56 116c1.62 0 5.04.957 8.92 2.671 2.51 1.105 5.31 2.479 7.86 3.779q-.585-.583-1.17-1.271c-3.28-3.934-6.44-11.138-8.46-19.826-3.35-14.477 8.84-24.518 14.54-26.892 2.61-1.083 8.91-2.696 13.75-3.862-.25-1.422-.35-2.805-.43-4.171 0-.077 0-.154-.01-.231-.3-6.022-.32-13.626 4.16-19.743 2.07-2.82 4.39-4.542 7.35-6.007 3.06-1.516 7.04-2.694 12.63-5.722 2.94-1.593 4.03-4.493 4.54-6.891.59-2.813.36-5.157.36-5.157a5.998 5.998 0 0 1 11.38-3.249S136 29.546 136 35c0 2.484-.41 7.43-4.59 13.572 1.95 4.478 2.23 8.816 1.83 12.466.25-.026.51-.038.76-.038 4.23 0 15.94 3.037 18.88 17.83 2.26 11.321-1.97 29.169-3.02 32.455-3.48 10.873-9.35 19.984-19.3 28.547-1.84 1.578-4.57 1.558-6.65.313zm-49.54-3.025c-2.98-1.563-6.84-3.524-10.15-4.984-1.16-.511-2.66-1.056-3.58-1.379-.54.543-1.44 1.495-1.97 2.338-1.69 2.644-3.09 6.262-3.58 10.139a49 49 0 0 0-.23 9.521c3.3-5.232 7.73-9.821 13.15-11.876v-.002q.12-.044.24-.083c2.6-.868 4.59-2.194 6.12-3.674m7 9.859c2.42.843 5.64 1.508 9.77 1.508 11.34 0 19.34-9.778 19.36-9.798.02-.024 6-7.06 7.37-14.382a23.6 23.6 0 0 1-4.1-2.817c-4.32 2.061-10.47 4.297-16.3 5.706a58 58 0 0 1-5.93 1.126c-.77 5.305-3.97 13.218-10.17 18.657m48.31-20.996c-.2 1.065-.47 2.127-.79 3.173.12.058.23.12.34.186l1.35.814c1.95-1.819 3.64-3.807 5.08-5.795-2.07.635-4.17 1.225-5.98 1.622m-28.51-41.91c-4.38.995-11.93 2.792-14.72 3.953-2.82 1.172-9.12 5.966-7.46 13.108 1.11 4.813 2.58 9.079 4.27 12.229.75 1.384 2.12 2.961 2.42 3.308 2.2.336 5.49-.296 8.97-1.139a82 82 0 0 0 8.18-2.455c-2.06-.943-4.33-1.59-6.69-1.59-2.81 0-5.23.732-5.23.732a5.995 5.995 0 0 1-6.87-8.89c2.09-3.382 5.81-6.237 9.75-8.118C93.49 90.891 97.48 90 100 90c4.24 0 12.4.824 21.27 4.446 3.28 1.339 7.22 3.71 10.84 6.118-1.98-7.087-4.17-13.999-5.57-17.081a20.3 20.3 0 0 1-1.49-4.895 37.5 37.5 0 0 1-3.69 3.311c-5.31 4.174-10.98 6.61-10.98 6.61-1.88.81-4.04.608-5.74-.536-3.32-2.245-5.78-4.376-7.61-6.387m6.43-25.343c5.89-3.138 10.12-6.119 13.15-8.832-2.93 1.359-5.35 2.271-7.42 3.165-1.79.778-3.21 1.421-4.35 2.97a9.8 9.8 0 0 0-1.38 2.697m17.97 2.636c-4.45 3.483-10.24 7.098-17.8 10.691.67 1.931 2.03 4.009 4.97 6.416 1.53-.852 3.46-2.045 5.34-3.521 2.23-1.749 4.49-3.865 5.4-6.447.12-.365.29-.716.48-1.049 0 0 1.48-2.556 1.61-6.09m20.06 31.168c.21-3.126.15-6.21-.37-8.877-.75-3.735-2.55-5.941-4.25-7.102-.05 1.448.03 3.222.59 4.449 1.05 2.306 2.52 6.58 4.03 11.53m-31.95 13.198c3.2 2.173 5.6 4.371 6.78 5.594 1.39 1.44 3.24 3.161 5.68 3.161 1.03 0 2.64-.359 4.43-.876-3.2-2.185-6.76-4.368-9.7-5.57a49.4 49.4 0 0 0-7.19-2.309"/></svg>