<?xml version="1.0" encoding="utf-8"?>
	<svg version="1.1" xmlns="http://www.w3.org/2000/svg" xmlns:xlink="http://www.w3.org/1999/xlink" x="0px" y="0px" width="240.0" height="240.0" xml:space="preserve">
		<path d="M150.492,74.9C154.664,74.902 158.79,75.287 162.8,76.55C176.193,80.768 182.164,90.801 181.355,104.362C181.212,106.752 180.764,109.124 180.457,111.504C174.513,130.673 168.575,149.846 162.621,169.011L160.92,174.456L160.92,174.456L157.502,185.341C156.366,188.969 155.236,192.6 154.126,196.237C151.917,203.478 148.402,210.049 142.064,214.219C141.722,214.444 141.378,214.669 141.033,214.893L140.339,215.339C136.162,217.999 131.678,220.339 126.159,219.959C121.316,219.625 116.542,219.688 111.892,217.837C99.041,212.724 93.356,201.48 97.294,188.176C100.427,177.593 103.718,167.057 107.018,156.526C108.5,151.797 108.486,147.232 106.157,142.777C103.838,137.985 99.453,136.797 94.74,136.527C90.594,136.288 86.425,136.488 82.267,136.437C77.565,136.38 74.51,133.593 74.47,129.403C74.429,125.195 77.455,122.187 82.091,122.166C95.99,122.104 109.89,122.145 123.79,122.153C126.566,122.155 129.174,122.922 131.705,123.999C135.366,127.552 135.873,130.249 133.761,135.242C133.252,136.448 132.644,137.614 132.054,138.784C125.072,152.644 118.094,166.506 111.088,180.354C109.845,182.809 108.837,185.337 108.292,188.032C106.28,197.975 112.323,205.437 122.461,205.596C126.975,205.666 130.775,203.974 134.059,201.003C137.817,197.604 140.127,193.314 141.588,188.519C144.145,180.121 146.549,171.684 149.351,163.352C153.655,150.551 157.478,137.587 161.408,124.665C163.011,119.396 165.16,114.289 166.143,108.836C166.928,106.764 167.154,104.603 167.122,102.41C167.022,95.662 163.465,91.302 156.872,89.855C154.404,89.313 151.898,89.186 149.371,89.188C123.871,89.209 98.372,89.188 72.872,89.226C70.236,89.23 67.874,88.815 66.078,86.693C62.769,82.785 64.52,76.701 69.446,75.31C70.785,74.932 72.255,74.904 73.665,74.903C99.275,74.884 124.883,74.888 150.492,74.9ZM53.912,98.511C81.264,98.534 108.617,98.525 135.97,98.54C137.933,98.542 139.937,98.435 141.85,98.779C145.727,99.477 148.09,102.567 147.827,106.184C147.549,109.992 144.664,112.742 140.611,112.809C135.033,112.9 129.452,112.84 123.872,112.841C114.681,112.842 105.491,112.841 96.3,112.842C81.748,112.842 67.197,112.837 52.645,112.846C49.211,112.848 46.76,111.362 45.509,108.131C44.401,105.268 45.157,102.747 47.238,100.612C49.066,98.737 51.436,98.509 53.912,98.511ZM171.871,20C185.132,20.042 195.452,30.477 195.454,43.848C196.081,57.418 184.434,67.929 171.836,67.882C158.095,67.829 147.956,56.908 147.933,43.987C147.91,30.626 158.543,19.959 171.871,20Z" fill="#000" stroke="#00000000" stroke-width="1.0" stroke-miterlimit=""/>
	</svg>
