<svg width="192" height="192" viewBox="0 0 192 192" fill="none" xmlns="http://www.w3.org/2000/svg"><path d="M136 35c0 106-104 122-104 122m9.007-28.22c-10.19-7.036-16.641-15.855-18.471-25.254-1.83-9.399 1.05-18.92 8.247-27.263 7.198-8.344 18.361-15.104 31.967-19.358 13.607-4.254 28.993-5.795 44.06-4.412m51.252 20.454c6.182 5.917 10.091 12.64 11.425 19.646 1.334 7.007.057 14.111-3.732 20.762-3.788 6.651-9.988 12.671-18.119 17.595-8.13 4.923-17.974 8.618-28.769 10.799" stroke="#000" stroke-width="12" stroke-linecap="round" stroke-linejoin="round"/></svg>