<svg xmlns="http://www.w3.org/2000/svg" width="192" height="192" fill="none"><circle cx="68" cy="85" r="5" stroke="#000" stroke-linecap="round" stroke-linejoin="round" stroke-width="10"/><circle cx="124" cy="85" r="5" stroke="#000" stroke-linecap="round" stroke-linejoin="round" stroke-width="10"/><path stroke="#000" stroke-linejoin="round" stroke-width="12" d="M149.956 119.417c3.198-8.663 3.498-18.023 1.399-27.283-.2-.995.4-1.792 1.299-1.892 5.995-.298 10.991-4.38 12.59-9.857 1.199-4.282-.1-8.065-1.299-10.555-.599-1.195.5-2.688 1.699-2.19.699.299 1.299.796 1.798 1.195.9.896 2.298.398 2.398-.896.3-2.49.3-5.676-1.099-9.061-2.598-6.273-8.993-10.455-16.586-10.555-1.299 0-1.999-1.792-.9-2.688.5-.399 1.199-.996 1.899-1.394.499-.2.899-.399 1.399-.598 1.299-.398 1.299-2.39.1-2.887-3.398-1.394-8.494-2.59-14.189-.996-10.092 2.688-14.688 11.849-16.187 15.334-.3.796-1.199 1.095-1.898.796-10.892-4.68-20.484-5.476-26.379-5.476-11.69 0-20.983 3.087-26.379 5.476-.7.3-1.598 0-1.898-.796-1.499-3.684-6.195-12.646-16.187-15.334-5.695-1.593-10.791-.398-14.189.996-1.299.497-1.199 2.489.1 2.887.5.2.9.299 1.4.598.799.398 1.398.896 1.898 1.394.999.896.4 2.688-.9 2.688-7.493.1-13.988 4.282-16.586 10.554-1.4 3.187-1.4 6.572-1.1 9.062.2 1.294 1.6 1.692 2.399.896.5-.399.999-.996 1.798-1.195 1.2-.498 2.398.995 1.699 2.19-1.2 2.39-2.498 6.273-1.299 10.555 1.499 5.476 6.595 9.559 12.59 9.857.9 0 1.599.996 1.299 1.892-2.199 9.758-1.999 20.213 1.998 29.473 3.897 8.763 10.392 16.33 18.185 21.508 9.793 6.571 21.483 9.559 32.974 9.857 11.291.299 22.681-1.792 32.773-7.268 8.793-4.879 16.387-12.248 21.183-21.508.999-1.693 1.599-3.286 2.198-4.779Z"/><path stroke="#000" stroke-linecap="round" stroke-linejoin="round" stroke-width="12" d="M82 128c2.477 1.16 7.323 2.997 13.785 2.997 6.677.096 11.738-1.934 14.215-2.997"/><path stroke="#000" stroke-linecap="round" stroke-linejoin="round" stroke-width="10" d="M96 111c-9 0-3-16 0-16s9 16 0 16"/></svg>