<svg xmlns="http://www.w3.org/2000/svg" width="192" height="192" fill="none" xmlns:v="https://vecta.io/nano"><g clip-path="url(#B)"><mask id="A" fill="#fff"><path fill-rule="evenodd" d="M95.43 18.191c-4.517.649-7.596 4.768-7.603 10.17-.002 2.11 3.515 1.895-30.652 1.87-19.396-.014-30.443.049-31.462.181-3.114.402-5.648 2.216-7.035 5.037L18 36.828v65.286V167.4l.736 1.542c1.284 2.689 3.605 4.625 6.204 5.176 1.735.368 69.5.444 71.49.08 4.231-.772 6.792-3.862 7.01-8.454.106-2.243.154-2.482.568-2.817.564-.457-2.737-.419 32.802-.374 33.371.042 30.928.144 33.241-1.388 3.666-2.428 4.388-4.684 4.388-13.715l-.617-122.855c-.785-3.239-3.906-5.917-7.482-6.419-1.729-.244-69.214-.228-70.911.016zm71.788 1.687c2.225.621 3.943 2.334 4.628 4.613.142.469.244 13.649.32 40.986l.247 55.406.024 33.005c-.124.153-.334.811-.467 1.463-.808 3.968-3.739 5.125-10.468 5.309-5.426-.184-15.909-.184-24.166-.184h-13.168-17.084c-11.785.554-11.966.889-13.586-.338-.607-.46-1.46-1.082-1.894-1.383-2.014-1.393-1.862 1.021-2.014-32.087-.075-16.205-.124-18.648-.382-18.901s-1.549-.275-9.459-.173l-9.162.117-.912.99c-1.799 1.952-2.515 2.531-4.072 3.291-10.752 5.245-20.714-8.551-12.354-17.11 4.32-4.421 11.937-4.194 15.736.47 1.615 1.983 1.052 1.829 6.671 1.83 5.915.001 12.471.327 13.148.653.291.14.598.552.763 1.024.815 2.334.929 2.469 2.075 2.469 1.502 0 1.417-1.242 1.417 20.74 0 21.92-.114 20.335 1.53 21.366 1.421.89 2.678 1.112 6.963 1.227 5.302.143 10.183-.11 12.715.1 1.52 0 2.532-.21 7.597 0h10.13 4.558 6.777c4.448.171 18.299.337 20.394.244.378-.016.868-.351 1.606-1.095.584-.589 1.521-1.303 2.082-1.587.584-.296 1.116-.73 1.247-1.018.369-.81.547-25.858.547-27.377v-8.104-1.132V72.29l-.395-33.526c-.553-1.57-1.3-2.409-2.864-3.211l-1.347-.691-13.253.027-54.26.785c-1.556.491-2.764 1.74-3.405 3.522-.151.418-.256 7.336-.342 22.43l-.264 22.419c-.347 1.476-1.466 1.376 16.162 1.441l16.115-.155c.837-.448.472-.965-3.552-5.034-2.567-2.595-3.951-4.137-3.951-4.402 0-.692 3.732-4.787 5.328-5.846 1.095-.727.918-.873 10.833 9.009 9.666 9.635 10.505 10.541 10.505 11.354 0 .529-5.748 6.597-12.96 13.682l-5.446 5.382c-2.179 2.187-2.122 2.198-5.416-1.065-3.901-3.862-3.968-3.292.987-8.407 2.021-2.087 3.675-3.928 3.675-4.092 0-.683-.603-.707-18.15-.707-12.321 0-17.526-.064-17.867-.219-.814-.371-.92-.939-.92-4.941v-3.759l.589-.589c.441-.44.589-.772.589-1.318l-.203-26.704.004-27.045c.114-.588.207-1.845.207-2.794 0-4.424 2.306-7.619 5.97-8.274 1.925-.344 70.363-.043 71.645.316z"/></mask><path d="M95.43 18.191l.854 5.939h.002l-.855-5.939zm-7.603 10.17l-6-.008v.001l6 .007zm-30.652 1.87l-.004 6h0l.004-6zm-31.462.181l-.767-5.951h0l.767 5.951zm-7.035 5.037l5.385 2.647v-.001l-5.385-2.646zM18 36.828l-5.385-2.647L12 35.433v1.395h6zM18 167.4h-6v1.359l.585 1.226L18 167.4zm.736 1.542l-5.415 2.585v.001l5.414-2.586zm6.204 5.176l1.244-5.869-.001-.001-1.243 5.87zm71.49.08l-1.078-5.902h-.002l1.079 5.902zm7.01-8.454l-5.994-.284h0l5.994.284zm.568-2.817l3.774 4.665.005-.004-3.779-4.661zm32.802-.374l-.007 6h0l.007-6zm33.241-1.388l3.313 5.002h.001l-3.314-5.002zm3.771-136.57l5.831-1.412v-.001l-5.831 1.413zm-7.482-6.419l-.836 5.941h.001l.835-5.942zm.877 1.703l-1.615 5.779h.002l1.613-5.779zm4.628 4.613l-5.745 1.728v.002l5.745-1.73zm.32 40.986l5.999-.016h0l-5.999.017zm.247 55.406l-5.999.055h0l5.999-.055zm.024 33.005l-4.661-3.779-.003.003 4.664 3.776zm-.467 1.463l-5.879-1.198h0l5.879 1.198zm-10.468 5.309l-.204 5.997.184.006.185-.005-.165-5.998zm-54.418-.184v-6h-.141l-.141.006.282 5.994zm-13.586-.338l3.624-4.783-.002-.001-3.621 4.784zm-1.894-1.383l3.414-4.934h0l-3.414 4.934zm-2.014-32.087l6-.028h0l-6 .028zm-.382-18.901l-4.205 4.28.004.004 4.201-4.284zm-9.459-.173l.077 6h0l-.077-6zm-9.162.117l-.077-5.999-2.585.033-1.752 1.901 4.413 4.065zm-.912.99l-4.413-4.065h0l4.413 4.065zm-4.072 3.291l2.631 5.392h0l-2.631-5.392zm-12.354-17.11l-4.292-4.193h0l4.292 4.192zm15.736.47l4.652-3.789h0l-4.652 3.789zm6.671 1.83l-.001 6h0l.001-6zm13.148.653l-2.606 5.405.007.003 2.599-5.408zm.763 1.024l5.665-1.978v-.001l-5.664 1.979zm5.022 44.575l-3.187 5.083.002.001 3.185-5.084zm6.963 1.227l.162-5.998h0l-.162 5.998zm12.715.1l-.497 5.979.248.021h.249v-6zm7.597 0l-.249 5.995.125.005h.124v-6zm21.465 0l.23-5.996-.115-.004h-.115v6zm20.394.244l.264 5.995.003-.001-.267-5.994zm1.606-1.095l-4.259-4.226h0l4.259 4.226zm2.082-1.587l2.711 5.352h.001l-2.712-5.352zm1.247-1.018l5.459 2.491.002-.005-5.461-2.486zm.152-102.541l5.66-1.99v-.001l-5.66 1.991zm-2.864-3.211l-2.74 5.338h.001l2.739-5.338zm-1.347-.691l2.739-5.338-1.295-.665-1.457.003.013 6zm-13.253.027l-.012-6h0l.012 6zm-54.26.785l-1.806-5.722h0l1.807 5.722zm-3.405 3.522l5.644 2.035.001-.003-5.645-2.032zm-.342 22.43l6 .034h0l-6-.034zm-.264 22.419l5.84 1.374.001-.002-5.841-1.372zm16.162 1.441l-.022 6h0l.022-6zm16.115-.155l-2.831-5.29-.002.001 2.833 5.289zm-3.552-5.034l-4.267 4.219h.001l4.266-4.219zm1.377-10.248l3.318 4.999.001-.001-3.319-4.999zm10.833 9.009l4.235-4.25h0l-4.235 4.25zm-2.455 25.037l4.205 4.28h0l-4.205-4.28zm-5.446 5.382l4.25 4.236v-.001l-4.25-4.235zm-5.416-1.065l4.222-4.263h-.001l-4.221 4.263zm.987-8.407l-4.309-4.175h0l4.309 4.175zm-32.342-5.018l2.489-5.459-.002-.001-2.487 5.46zm-.92-8.7l-4.243-4.243-1.757 1.757v2.485h6zm.589-.589l-4.24-4.245-.002.002 4.243 4.243zm.386-28.022l-6 .047h0l6-.047zm.004-27.045l-5.891-1.138v.002l5.892 1.136zm6.177-11.068l-1.056-5.906h0l1.056 5.906zm-.997-7.31c-8.197 1.178-12.74 8.519-12.749 16.101l12 .015c.004-3.222 1.619-4.118 2.457-4.239l-1.707-11.878zM81.827 28.355c-.001.861.213 2.008.149 1.579-.005-.035-.088-.534-.022-1.203a5.56 5.56 0 0 1 1.065-2.753c.668-.902 1.442-1.385 1.922-1.621.457-.226.798-.304.862-.319.102-.023-.078.024-.855.071-3.147.192-10.482.136-27.768.124l-.009 12 28.507-.146c.919-.056 1.901-.146 2.792-.349.636-.145 2.729-.642 4.193-2.62 1.667-2.251 1.226-4.652 1.181-4.953-.122-.821-.018-.129-.018.205l-12-.014zm-24.648-4.123a3740.75 3740.75 0 0 0-22.661.036l-6.285.06c-1.276.021-2.607.046-3.287.134l1.533 11.902c-.17.022.262-.01 1.95-.037l6.158-.059 22.583-.036.009-12zm-32.234.23c-5.113.659-9.38 3.717-11.653 8.342l10.77 5.293c.5-1.018 1.301-1.589 2.417-1.733l-1.534-11.902zm-11.652 8.341l-.678 1.378 10.769 5.294.678-1.378-10.769-5.294zM12 36.828v65.286h12V36.828H12zm0 65.286V167.4h12v-65.286H12zm.585 67.871l.736 1.542 10.829-5.17-.736-1.542-10.829 5.17zm.736 1.543c1.976 4.139 5.711 7.472 10.375 8.46l2.487-11.74c-.535-.113-1.442-.652-2.033-1.891l-10.829 5.171zm10.374 8.46c.573.121 1.162.148 1.231.153l.87.039 2.522.061 8.194.096 24.068.096 24.116-.042 8.253-.078 2.558-.055c.368-.012 1.32-.033 2-.158l-2.158-11.804c.431-.079.62-.059-.224-.032l-2.363.051-8.135.076-24.034.042-23.985-.096-8.074-.094-2.321-.056-.559-.024c-.289-.018.063-.013.527.086l-2.489 11.739zm73.812.113c3.343-.611 6.356-2.22 8.552-4.868 2.172-2.62 3.215-5.857 3.374-9.205l-11.987-.568c-.059 1.244-.405 1.848-.625 2.114-.197.238-.58.559-1.469.722l2.155 11.805zm11.926-14.073l.065-1.171c.021-.278.028-.231-.008-.05a4.77 4.77 0 0 1-.622 1.533 5 5 0 0 1-1.086 1.252l-7.548-9.329a7.01 7.01 0 0 0-1.583 1.784c-.562.912-.803 1.786-.924 2.386-.189.938-.237 2.105-.281 3.027l11.987.568zm-1.646 1.56c.655-.531 1.093-1.101 1.384-1.567.069-.111.205-.347.115-.192-.036.061-.187.323-.426.63-1.356 1.746-3.15 2.065-3.397 2.111-.307.056-.185.005 1.899-.019l29.441.002.015-12-29.593-.001c-1.605.019-2.984.041-3.941.217-.572.106-2.478.497-3.901 2.328a6.32 6.32 0 0 0-.469.696c-.104.179.019-.033.073-.12a5.71 5.71 0 0 1 1.242-1.406l7.558 9.321zm29.016.965l28.525-.109c1.902-.08 3.631-.215 5.138-.716.902-.3 1.593-.679 2.146-1.041.226-.148.435-.297.528-.363l.224-.157-6.625-10.005c-1.39.921-.446.308-.056.178.272-.09.092.033-1.856.114-3.679.154-11.2.12-28.009.099l-.015 12zm36.562-2.386c2.583-1.711 4.792-3.876 5.969-7.555.966-3.017 1.105-6.752 1.105-11.162h-12c0 4.621-.222 6.53-.534 7.505-.104.324-.179.41-.215.453-.077.091-.298.322-.952.755l6.627 10.004zm7.074-18.717l-.214-79.627-.2-30.605-.105-9.168-.052-2.613-.029-.826c-.005-.111-.013-.248-.024-.388-.005-.068-.014-.174-.029-.297-.008-.066-.043-.372-.133-.744l-11.663 2.825c-.086-.356-.117-.636-.121-.669l-.017-.17c-.003-.038-.002-.04.001.018l.02.582.049 2.469.104 9.088.2 30.557.213 79.567h12zm-.786-124.269c-1.425-5.88-6.73-10.14-12.477-10.948l-1.671 11.883c1.405.197 2.341 1.293 2.486 1.892l11.662-2.827zm-12.476-10.947c-.554-.078-1.388-.091-1.765-.1l-2.479-.038-8.137-.056-23.925-.04-23.918.051-8.13.059-2.474.039c-.367.008-1.213.022-1.775.103l1.711 11.877c-.35.05-.469.035.339.017l2.338-.037 8.049-.059L130.875 24l23.869.04 8.057.055 2.343.035c.803.018.698.033.361-.014l1.673-11.883zm-1.573 13.423a.6.6 0 0 1 .269.155c.074.074.165.2.227.407l11.491-3.456c-1.255-4.175-4.482-7.469-8.76-8.663l-3.227 11.558zm.496.563c-.111-.37-.158-.663-.171-.741-.02-.12-.03-.211-.035-.252-.009-.083-.011-.127-.009-.103l.016.357.044 1.874.085 7.6.135 30.539 11.999-.033-.134-30.599-.087-7.72-.05-2.092-.035-.718c-.006-.105-.017-.253-.035-.415-.001-.007-.049-.547-.232-1.156l-11.491 3.459zm.065 39.273l.248 55.444 11.999-.109-.248-55.368-11.999.033zm.248 55.444l.2 27.133-.039 4.375-.019.421c.003-.023.027-.242.105-.551.034-.135.273-1.168 1.115-2.207l9.322 7.557c.872-1.076 1.138-2.175 1.198-2.413.105-.414.154-.776.179-.991.052-.445.077-.935.093-1.403.034-.977.047-2.491.046-4.796l-.201-27.234-11.999.109zm1.359 29.174c-.612.756-.919 1.522-.976 1.658-.129.307-.231.602-.307.84-.154.484-.293 1.02-.399 1.543l11.758 2.396c.026-.129.059-.247.074-.294.009-.028-.009.033-.059.154-.026.06-.081.188-.168.353a5.41 5.41 0 0 1-.197.342 5.58 5.58 0 0 1-.399.559l-9.327-7.551zm-1.682 4.041c-.072.352-.12.304.02.114.159-.216.315-.284.237-.246-.136.066-.544.223-1.429.364-.875.14-2.034.235-3.582.277l.33 11.996c3.429-.094 6.977-.421 9.897-1.83 3.563-1.72 5.554-4.69 6.285-8.279l-11.758-2.396zm-4.385.511c-5.556-.189-16.171-.188-24.37-.188v12l23.962.181.408-11.993zm-24.37-.188h-.038-.039-.038-.038-.038-.038-.038-.037-.038-.037-.038-.037-.037-.037-.036-.037-.037-.036-.036-.037-.036-.036-.035-.036-.036-.035-.036-.035-.035-.035-.035-.035-.034-.035-.034-.035-.034-.034-.034-.034-.034-.033-.034-.033-.034-.033-.033-.033-.033-.033-.033-.032-.033-.032-.032-.033-.032-.032-.032-.031-.032-.032-.031-.032-.031-.031-.031-.031-.031-.031-.031-.03-.031-.03-.031-.03-.03-.03-.03-.03-.03-.029-.03-.029-.03-.029-.029-.03-.029-.029-.028-.029-.029-.029-.028-.029-.028-.028-.029-.028-.028-.028-.028-.027-.028-.028-.027-.028-.027-.028-.027-.027-.027-.027-.027-.027-.027-.026-.027-.027-.026-.027-.026-.026-.026-.027-.026-.026-.026-.025-.026-.026-.026-.025-.026-.025-.026-.025-.025-.025-.026-.025-.025-.025-.024-.025-.025-.025-.024-.025-.024-.025-.024-.025-.024-.024-.024-.024-.024-.024-.024-.024-.024-.024-.024-.023-.024-.024-.023-.024-.023-.023-.024-.023-.023-.023-.023-.024-.023-.023-.022-.023-.023-.023-.023-.023-.022-.023-.022-.023-.022-.023-.022-.023-.022-.022-.023-.022-.022-.022-.022-.022-.022-.022-.022-.022-.022-.022-.022-.022-.022-.021-.022-.022-.021-.022-.021-.022-.022-.021-.022-.021-.021-.022-.021-.021-.022-.021-.021-.022-.021-.021-.021-.021-.021-.022-.021-.021-.021-.021-.021-.021-.021-.021-.021-.021-.02-.021-.021-.021-.021-.021-.021-.02-.021-.021-.021-.02-.021-.021-.021-.02-.021-.021-.041-.021-.02-.021-.021-.041-.021-.02-.021-.021-.02-.021-.021-.041-.041-.021-.02-.021-.021-.041-.02-.021-.021-.041-.021-.02-.021-.021-.041-.021-.021-.041-.021-.021-.041-.021-.021-.041-.021-.021-.021-.021-.021-.021-.021-.02-.021-.021-.021-.021-.021-.022-.021-.021-.021-.021-.021-.021-.022-.021-.021-.021-.022-.021-.021-.022-.021-.022-.021-.022-.021-.022-.021-.022-.021-.022-.022-.022-.021-.022-.022-.022-.022-.022-.022-.022-.022-.022-.022-.022-.022-.022-.023-.022-.022-.023-.022-.022-.023-.022-.023-.023-.022-.023-.023-.023-.022-.023-.023-.023-.023-.023-.023-.024-.023-.023-.023-.024-.023-.024-.023-.024-.023-.024-.024-.023-.024-.024-.024-.024-.024-.024-.024-.025-.024-.024-.025-.024-.025-.024-.025-.024-.025-.025-.025-.025-.025-.025-.025-.025-.025-.026-.025-.025-.026-.026-.025-.026-.026-.026-.025-.026-.027-.026-.026-.026-.026-.027-.026-.027-.027-.026-.027-.027-.027-.027-.027-.027-.027-.028-.027-.028-.027-.028-.027-.028-.028-.028-.028-.028-.028-.029-.028-.028-.029-.029-.028-.029-.029-.029-.029-.029-.029-.03-.029-.03-.029-.03-.03-.029-.03-.03-.031-.03-.03-.031-.03-.031-.03-.031-.031-.031-.031-.031-.032-.031-.031-.032-.032-.031-.032-.032-.032-.032-.033-.032-.033-.032v12h.032.033.032.033.032.032.032.032.031.032.032.031.031.032.031.031.031.031.031.03.031.03.031.03.03.031.03.03.029.03.03.029.03.029.03.029.029.029.029.029.029.028.029.029.028.028.029.028.028.028.028.028.028.027.028.027.028.027.028.027.027.027.027.027.027.027.026.027.027.026.027.026.026.026.026.027.026.025.026.026.026.025.026.026.025.025.026.025.025.025.025.025.025.025.025.025.024.025.024.025.024.025.024.024.025.024.024.024.024.024.024.024.023.024.024.023.024.023.024.023.024.023.023.023.024.023.023.023.023.023.023.022.023.023.023.022.023.023.022.023.022.022.023.022.022.023.022.022.022.022.022.022.022.022.022.022.022.022.022.021.022.022.022.021.022.021.022.021.022.021.022.021.022.021.021.022.021.021.021.022.021.021.021.021.021.021.022.021.021.021.021.021.02.021.021.021.021.021.021.021.021.041.021.021.041.021.021.041.021.021.041.021.02.021.021.041.021.02.021.041.021.02.021.021.041.041.021.02.021.021.02.021.021.041.021.02.021.021.041.021.02.021.021.021.02.021.021.021.02.021.021.021.021.021.021.02.021.021.021.021.021.021.021.021.021.021.022.021.021.021.021.021.022.021.021.022.021.021.022.021.021.022.021.022.022.021.022.021.022.022.021.022.022.022.022.022.022.022.022.022.022.022.022.022.022.023.022.022.023.022.023.022.023.022.023.022.023.023.023.023.023.022.023.023.024.023.023.023.023.024.023.023.024.023.024.024.023.024.024.024.024.024.024.024.024.024.024.024.025.024.025.024.025.024.025.025.025.024.025.025.025.026.025.025.025.026.025.026.025.026.026.026.025.026.026.026.027.026.026.026.027.026.027.027.026.027.027.027.027.027.027.027.028.027.028.027.028.028.027.028.028.028.028.029.028.028.029.028.029.029.029.028.029.029.03.029.029.03.029.03.029.03.03.03.03.03.03.031.03.031.03.031.031.031.031.031.031.031.032.031.032.032.031.032.032.032.033.032.032.033.032.033.033.033.033.033.033.034.033.034.033.034.034.034.034.034.035.034.035.034.035.035.035.035.035.036.035.036.036.035.036.036.037.036.036.037.037.036.037.037.037.038.037.038.037.038.038.038.038.038.039.038v-12zm-13.168 0h-.054-.053-.053-.053-.053-.052-.053-.053-.052-.052-.052-.052-.052-.052-.051-.052-.051-.051-.051-.051-.051-.051-.051-.05-.051-.05-.05-.05-.05-.05-.049-.05-.049-.05-.049-.049-.049-.049-.048-.049-.048-.049-.048-.048-.048-.048-.048-.048-.047-.048-.047-.047-.047-.047-.047-.047-.047-.046-.047-.046-.046-.046-.046-.046-.046-.046-.045-.046-.045-.046-.045-.045-.045-.044-.045-.045-.044-.045-.044-.044-.044-.044-.044-.044-.044-.043-.044-.043-.043-.043-.043-.043-.043-.043-.043-.042-.043-.042-.042-.042-.042-.042-.042-.042-.042-.041-.042-.041-.041-.042-.041-.041-.041-.04-.041-.041-.04-.041-.04-.04-.04-.04-.04-.04-.04-.04-.039-.04-.039-.04-.039-.039-.039-.039H118h-.039-.038-.039-.038-.039-.038-.038-.039-.038-.038-.038-.037-.038-.038-.037-.038-.037-.038-.037-.037-.037-.037-.037-.037-.037-.036-.037-.036-.037-.036-.036-.037-.036-.036-.036-.035-.036-.036-.036-.035-.036-.035-.035-.036-.035-.035-.035-.035-.035-.034-.035-.035-.034-.035-.034-.035-.034-.034-.034-.034-.034-.034-.034-.034-.034-.033-.034-.033-.034-.033-.034-.033-.033-.033-.033-.033-.033-.033-.032-.033-.033-.032-.033-.032-.033-.032-.032-.032-.033-.032-.032-.032-.031-.032-.032-.032-.031-.032-.031-.032-.031-.031-.032-.031-.031-.031-.031-.031-.031-.031-.031-.03-.031-.031-.03-.031-.03-.031-.03-.03-.031-.03-.03-.03-.03-.03-.03-.03-.03-.029-.03-.03-.029-.03-.03-.029-.029-.03-.029-.029-.03-.029-.029-.029-.029-.029-.029-.029-.029-.029-.028-.029-.029-.028-.029-.028-.029-.028-.029-.028-.028-.029-.028-.028-.028-.028-.029-.028-.028-.027-.028-.028-.028-.028-.028-.027-.028-.028-.027-.028-.027-.028-.027-.028-.027-.028-.027-.027-.027-.028-.027-.027-.027-.027-.027-.027-.027-.027-.027-.027-.027-.027-.026-.027-.027-.027-.026-.027-.027-.026-.027-.026-.027-.026-.027-.026-.027-.026-.026-.027-.026-.026-.026-.027-.026-.026-.026-.026-.026-.026-.027-.026-.026-.026-.026-.026-.025-.026-.026-.026-.026-.026-.026-.025-.026-.026-.026-.026-.025-.026-.026-.025-.026-.026-.025-.026-.025-.026-.025-.026-.026-.025-.026-.025-.026-.025-.025-.026-.025-.026-.025-.026-.025-.025-.026-.025-.025-.026-.025-.025-.026-.025-.025-.026-.025-.025-.025-.026-.025-.025-.025-.026-.025-.025-.025-.026-.025-.025-.025-.026-.025-.025-.025-.025-.026-.025-.025-.025-.025-.026-.025-.025-.025-.026-.025-.025-.025-.025-.026-.025-.025-.025-.026-.025-.025-.025-.026-.025-.025-.025-.026-.025-.025-.026-.025-.025-.026-.025-.025-.026-.025-.025-.026-.025-.026-.025-.026-.025-.025-.026-.025-.026-.025-.026-.025-.026-.026-.025-.026-.025-.026-.026-.025-.026-.026-.025-.026-.026-.025-.026-.026-.026-.026-.025-.026-.026-.026v12h.026.026.026.025.026.026.026.026.025.026.026.025.026.026.025.026.026.025.026.025.026.026.025.026.025.026.025.026.025.025.026.025.026.025.026.025.025.026.025.025.026.025.025.026.025.025.026.025.025.025.026.025.025.025.026.025.025.025.026.025.025.025.025.026.025.025.025.026.025.025.025.025.026.025.025.025.025.026.025.025.025.026.025.025.025.026.025.025.025.026.025.025.025.026.025.025.026.025.025.026.025.025.026.025.025.026.025.026.025.026.025.025.026.025.026.025.026.026.025.026.025.026.025.026.026.025.026.026.025.026.026.026.026.025.026.026.026.026.026.026.025.026.026.026.026.026.027.026.026.026.026.026.026.027.026.026.026.027.026.026.027.026.027.026.027.026.027.026.027.027.026.027.027.027.026.027.027.027.027.027.027.027.027.027.027.027.027.028.027.027.027.028.027.028.027.028.027.028.027.028.028.027.028.028.028.028.028.027.028.028.029.028.028.028.028.029.028.028.029.028.029.028.029.028.029.029.028.029.029.029.029.029.029.029.029.029.03.029.029.03.029.029.03.03.029.03.03.029.03.03.03.03.03.03.03.03.031.03.03.031.03.031.03.031.031.03.031.031.031.031.031.031.031.031.032.031.031.032.031.032.031.032.032.032.031.032.032.032.033.032.032.032.033.032.033.032.033.033.032.033.033.033.033.033.033.033.034.033.034.033.034.033.034.034.034.034.034.034.034.034.034.035.034.035.034.035.035.034.035.035.035.035.035.036.035.035.036.035.036.036.036.035.036.036.036.037.036.036.037.036.037.036.037.037.037.037.037.037.037.038.037.038.037.038.038.037.038.038.038.039.038.038.039.038.039.038.039.039.039.039.039.039.04.039.04.039.04.04.04.04.04.04.04.04.041.04.041.041.04.041.041.041.042.041.041.042.041.042.042.042.042.042.042.042.042.043.042.043.043.043.043.043.043.043.043.044.043.044.044.044.044.044.044.044.045.044.045.045.044.045.045.045.046.045.046.045.046.046.046.046.046.046.046.047.046.047.047.047.047.047.047.047.048.047.048.048.048.048.048.048.049.048.049.048.049.049.049.049.05.049.05.049.05.05.05.05.05.051.05.051.051.051.051.051.051.051.052.051.052.052.052.052.052.052.053.053.052.053.053.053.053.054v-12zm-17.366.006l-10.322.493c-.704 0-.515-.061-.062.079.604.186.971.504.703.301l-7.247 9.565c.543.411 1.539 1.147 3.001 1.599 1.311.405 2.585.456 3.602.456 1.903 0 5.286-.243 10.888-.506l-.564-11.987zm-9.683.872c-.648-.491-1.573-1.167-2.101-1.533l-6.829 9.868c.341.236 1.121.804 1.688 1.233l7.242-9.568zm-2.101-1.533c-.279-.193-.525-.342-.638-.412-.16-.098-.086-.055.003.007.355.248.907.733 1.32 1.473.489.877.313 1.374.185-.66-.218-3.48-.22-10.865-.297-27.589l-12 .055.321 28.285c.105 1.675.278 3.899 1.31 5.75a7.49 7.49 0 0 0 2.288 2.522 10.97 10.97 0 0 0 .614.396c.106.065.095.06.067.041l6.829-9.868zm.571-27.181l-.123-15.525c-.027-1.336-.062-2.334-.12-3.052a10.45 10.45 0 0 0-.183-1.327c-.031-.145-.323-1.848-1.754-3.252l-8.403 8.567c-.791-.776-1.159-1.576-1.31-1.946-.166-.408-.241-.732-.269-.866-.055-.259-.056-.385-.042-.205.026.317.056.99.083 2.323l.121 15.338 12-.055zm-2.176-23.152a6.38 6.38 0 0 0-2.504-1.51c-.58-.189-1.097-.269-1.413-.309-.631-.081-1.345-.107-2.038-.12-1.459-.026-3.866-.005-7.787.046l.154 11.999 7.413-.047c.651.012.802.033.733.024-.035-.004-.346-.042-.776-.182a5.62 5.62 0 0 1-2.193-1.342l8.411-8.559zm-13.741-1.893l-9.162.117.153 11.999 9.162-.117-.153-11.999zm-13.499 2.051l-.912.99 8.826 8.13.912-.99-8.826-8.13zm-.912.99c-.873.948-1.252 1.303-1.485 1.491-.137.11-.282.217-.805.472l5.262 10.785c1.033-.504 2.025-1.067 3.085-1.924.964-.779 1.843-1.69 2.768-2.694l-8.826-8.13zm-2.289 1.963c-4.696 2.291-9.091-3.778-5.431-7.525l-8.584-8.385c-13.061 13.371 2.468 34.896 19.277 26.695l-5.262-10.785zm-5.432-7.524c1.945-1.991 5.371-1.679 6.793.066l9.304-7.578c-6.177-7.584-17.986-7.725-24.68-.873l8.583 8.386zm6.792.066c.124.152.788 1.016 1.325 1.557.9.908 2.049 1.679 3.574 2.098 1.163.319 2.327.359 3.107.376.849.019 2.008.009 3.316.01l.003-12c-1.502 0-2.38.009-3.056-.006-.315-.007-.467-.017-.527-.023s.082.003.332.071c.283.078.647.216 1.031.449.374.227.623.456.742.577.092.093.115.131-.01-.024l-.214-.267-.318-.395-9.305 7.578zm11.322 4.041c2.862 0 5.881.08 8.242.197a67.34 67.34 0 0 1 2.83.189 10.92 10.92 0 0 1 .63.073c.045.007-.006 0-.116-.026-.018-.004-.474-.102-1.042-.375l5.211-10.81c-1.011-.488-2.072-.626-2.192-.644a23.01 23.01 0 0 0-1.353-.163c-.929-.088-2.097-.165-3.373-.229-2.564-.127-5.781-.211-8.834-.212l-.003 12zm10.551.061c-.571-.274-.972-.592-1.218-.815-.256-.233-.44-.451-.566-.621a3.6 3.6 0 0 1-.518-.969l11.329-3.958c-.275-.788-.675-1.555-1.187-2.242-.451-.606-1.298-1.565-2.642-2.211l-5.197 10.816zm-2.303-2.406c.195.559.413 1.178.64 1.716.202.482.609 1.401 1.346 2.277a6.87 6.87 0 0 0 3.518 2.239c1.04.277 2.001.259 2.237.259v-12c-.108 0-.06-.003.047.005.113.008.412.035.803.139.42.112.917.304 1.424.627s.885.684 1.157 1.009c.463.55.617.998.533.798-.06-.143-.162-.416-.374-1.024l-11.329 3.956zm7.74 6.491a10.11 10.11 0 0 0 .537-.015c.094-.004-.13.011-.424-.007a5.52 5.52 0 0 1-3.728-1.827 5.2 5.2 0 0 1-.927-1.457c-.139-.334-.196-.579-.211-.65-.025-.116.005-.022.04.492.148 2.168.131 7.02.131 18.204h12l-.159-19.022c-.048-.705-.125-1.486-.287-2.229-.134-.615-.49-2.051-1.645-3.341-1.493-1.668-3.338-2.075-4.454-2.146-.436-.028-.811-.007-.881-.004-.157.007-.069.002.01.002v12zm-4.583 14.74l.164 18.945c.08 1.121.234 3.204 1.405 5.003.724 1.113 1.592 1.776 2.203 2.165.242.154.48.286.527.312.09.051.074.043.044.024l6.374-10.167c-.236-.148-.443-.264-.532-.314-.132-.074-.06-.036.028.02.303.193.91.64 1.414 1.414.73 1.122.604 2.037.507.686-.157-2.19-.133-6.92-.133-18.088h-12zm4.345 26.45c2.981 1.868 5.827 2.029 9.987 2.141l.324-11.996c-2.163-.058-3.138-.139-3.676-.234-.209-.037-.251-.06-.212-.045.046.018.047.027-.052-.035l-6.371 10.169zm9.987 2.141c2.778.075 5.435.046 7.611.027 2.31-.021 3.841-.023 4.769.054l.994-11.958c-1.605-.134-3.78-.114-5.868-.096-2.223.02-4.658.046-7.182-.023l-.324 11.996zm12.877.102c2.191 0 2.334-.213 7.348-.005l.498-11.99c-5.116-.212-6.998-.005-7.846-.005v12zm7.597 0h.023.022.022.023.022.022.022.023.022.022.022.022.022.023.022.022.022.022.022.022.021.022.022.022.022.022.022.021.022.022.021.022.022.021.022.022.021.022.021.022.021.022.021.022.021.021.022.021.021.022.021.021.022.021.021.021.021.021.022.021.021.021.021.021.021.021.021.021.021.021.021.041.021.021.021.041.021.021.041.021.041.021.041.021.02.021.02.021.041.041.04.021.04.021.04.021.04.021.04.04.021.02.04.04.04.04.021.04.02.039.02.04.02.04.04.039.04.039.04.039.02.04.039.02.039.039.02.039.039.039.02.039.039.038.039.02.039.038.039.039.038.039.039.038.039.038.039.038.039.038.038.039.038.038.038.038.02.038.038.038.038.038.038.038.038.038.038.038.038.038.038.037.038.038.038.038.037.038.038.038.037.038.038.038.037.038.038.037.038.038.037.038.038.037.038.037.038.038.037.038.038.037.038.038.037.038.038.037.038.038.037.038.038.038.037.038.038.038.037.038.038.038.038.038.038.037.038.038.038.038.038.038.038.039.038.038.038.038.038.039.038.038.038.02.038.038.02.038.039.038.039.038.02.038.039.039.038.02.039.038.02.039.039.039.039.039.039.02.039.039.039.02.039.02.02.039.02.04.039.02.02.039.02.04.02.04.02.04.02.04.04.02.04.02.04.021.02.02.04.02.021.02.04.021.02.02.021.02.041.02.021.02.021.02.021.02.021.02.021.041.041.021.02.021.021.041.021.021v-12h-.021-.021-.021-.041-.021-.02-.021-.021-.041-.041-.02-.021-.02-.021-.02-.021-.02-.021-.02-.021-.04-.021-.02-.02-.021-.02-.04-.021-.02-.02-.04-.02-.021-.02-.04-.02-.04-.02-.04-.04-.02-.04-.02-.04-.02-.04-.039-.02-.02-.039-.02-.04-.039-.02-.02-.039-.02-.039-.02-.039-.039-.039-.02-.039-.039-.039-.039-.039-.038-.039-.02-.038-.02-.038-.039-.039-.038-.02-.038-.039-.038-.039-.038-.038-.02-.038-.038-.038-.039-.038-.038-.038-.038-.038-.02-.038-.038-.038-.038-.038-.038-.038-.038-.037-.038-.038-.038-.038-.038-.037-.038-.038-.038-.038-.037-.038-.038-.037-.038-.038-.038-.037-.038-.038-.037-.038-.037-.038-.038-.037-.038-.038-.037-.038-.038-.037-.038-.038-.037-.038-.038-.037-.038-.038-.037-.038-.038-.037-.038-.038-.038-.037-.038-.038-.038-.038-.037-.038-.038-.038-.038-.038-.038-.038-.038-.038-.038-.038-.038-.038-.038-.039-.038-.038-.038-.038-.039-.038-.038-.039-.038-.039-.038-.039-.038-.02-.038-.039-.039-.038-.039-.039-.039-.039-.038-.039-.039-.02-.039-.039-.039-.02-.039-.039-.02-.039-.04-.02-.039-.02-.039-.04-.04-.039-.04-.04-.04-.02-.039-.02-.04-.021-.02-.04-.04-.04-.04-.021-.04-.02-.041-.04-.021-.02-.041-.04-.021-.02-.041-.041-.041-.02-.021-.02-.021-.021-.041-.021-.041-.021-.041-.021-.021-.041-.021-.021-.021-.041-.021-.021-.021-.021-.021-.021-.021-.021-.021-.021-.021-.022-.021-.021-.021-.021-.021-.022-.021-.021-.022-.021-.021-.022-.021-.021-.022-.021-.022-.021-.022-.021-.022-.021-.022-.022-.021-.022-.022-.021-.022-.022-.021-.022-.022-.022-.022-.022-.022-.021-.022-.022-.022-.022-.022-.022-.023-.022-.022-.022-.022-.022-.023-.022-.022-.022-.023-.022-.022-.023v12zm10.13 0h4.55l.016-12c-.766-.001-3.055 0-4.566 0v12zm4.55 0h6.785v-12h-6.769l-.016 12zm6.554-.004c4.474.171 18.532.346 20.889.243l-.528-11.989c-1.834.081-15.477-.076-19.9-.246l-.461 11.992zm20.892.242c1.798-.08 3.119-.86 3.782-1.312.721-.492 1.338-1.069 1.817-1.551l-8.519-8.452c-.26.262-.257.224-.06.09.113-.078.366-.239.742-.393.384-.158.967-.337 1.705-.37l.533 11.988zm5.598-2.862c.015-.016.066-.065.153-.14s.18-.151.276-.224a5.26 5.26 0 0 1 .221-.159c.022-.014.027-.017.015-.01s-.054.033-.131.071l-5.423-10.704c-1.284.65-2.729 1.806-3.629 2.713l8.518 8.453zm.535-.462a10.48 10.48 0 0 0 1.874-1.215c.365-.298 1.453-1.202 2.12-2.664l-10.918-4.981c.323-.708.706-1.147.837-1.291.173-.192.311-.309.375-.362a1.53 1.53 0 0 1 .287-.191l5.425 10.704zm3.996-3.884a6.58 6.58 0 0 0 .501-1.703c.038-.244.062-.473.078-.643.033-.352.059-.76.081-1.172a140.12 140.12 0 0 0 .118-3.208l.172-9.1.136-14.037h-12l-.135 13.871-.169 8.935-.105 2.91-.045.673c-.005.059-.003.016.013-.086.008-.05.029-.176.068-.344.024-.102.124-.539.365-1.068l10.922 4.972zm1.086-29.863v-.027-.028-.029-.029-.03-.03-.021-.021-.022-.021-.022-.023-.022-.023-.023-.023-.024-.024-.024-.025-.024-.025-.026-.025-.026-.026-.026-.027-.026-.027-.028-.027-.028-.028-.028-.029-.028-.029-.029-.029-.03-.03-.03-.03-.03-.031-.031-.031-.031-.031-.032-.031-.032-.032-.033-.032-.033-.032-.033-.034-.033-.033-.034-.034-.034-.034-.034-.034-.035-.035-.034-.035-.035-.036-.035-.035-.036-.036-.036-.036-.036-.036-.036-.037-.036-.037-.036-.037-.037-.037-.037-.037-.037-.038-.037-.038-.037-.038-.038-.037-.038-.038-.038-.038-.038-.038-.038-.038-.039-.038-.038-.039-.038-.038-.039-.038-.039-.038-.039-.038-.039-.038-.02-.038-.039-.038-.039-.039-.038-.039-.038-.039-.038-.02-.038-.039-.038-.038-.039-.038-.038-.02-.038-.038-.038-.038-.038-.038-.038-.038-.038-.038-.038-.037-.038-.037-.038-.037-.037-.038-.037-.037-.037-.037-.036-.037-.037-.036-.036-.037-.036-.036-.036-.035-.036-.036-.035-.035-.035-.035-.035-.035-.035-.034-.034-.035-.034-.033-.034-.034-.033-.033-.033-.033-.033-.033-.032-.032-.032-.032-.032-.031-.031-.031-.031-.031-.03-.031-.03-.029-.03-.03-.029-.029-.028-.029-.028-.028-.028-.028-.027-.027-.027-.027-.026-.026-.026-.026-.025-.025-.025-.025-.024-.024-.024-.024-.023-.023-.023-.022-.022-.022-.021-.022-.021-.02-.03-.03-.02-.028-.028-.027h-12v.027.028.028.02.03.02.03.021.022.021.022.022.022.023.023.023.024.024.024.024.025.025.025.025.026.026.026.026.027.027.027.027.028.028.028.028.029.028.029.029.03.03.029.03.031.03.031.031.031.031.031.032.032.032.032.032.033.033.033.033.033.033.034.034.033.034.035.034.034.035.035.035.035.035.035.035.036.036.035.036.036.036.037.036.036.037.037.036.037.037.037.037.038.037.037.038.037.038.037.038.038.038.038.038.038.038.038.038.038.038.02.038.038.039.038.038.02.038.039.038.039.038.039.038.02.038.039.038.039.039.038.039.038.039.038.039.038.039.038.038.039.038.038.039.038.038.038.038.038.038.038.038.037.038.038.037.038.037.038.037.037.037.037.037.037.036.037.036.037.036.036.036.036.036.036.036.035.035.036.035.035.034.035.035.034.034.034.034.034.034.033.033.034.033.032.033.032.033.032.032.031.032.031.031.031.031.031.03.03.03.03.03.029.029.029.028.029.028.028.028.027.028.027.026.027.026.026.026.025.026.025.024.025.024.024.024.023.023.023.022.023.022.021.022.021.021.02.03.03.028.028.028l12 .009zm0-8.104v-1.132h-12v1.132h12zm0-1.132V72.29h-12v32.402h12zm0-32.402l-.052-28.381c-.046-3.901-.089-5.444-.683-7.135l-11.321 3.979c.011.031-.047-.131-.089-.335-.03-.147-.023-.178-.006.035.037.477.074 1.454.099 3.597l.052 28.239h12zm-.735-35.517c-.452-1.285-1.117-2.643-2.234-3.896-1.103-1.236-2.364-2.054-3.551-2.663l-5.478 10.677c.191.098.257.146.252.143s-.027-.02-.061-.05-.076-.071-.119-.12-.083-.099-.116-.146-.055-.084-.067-.106c-.023-.041-.001-.011.053.143l11.321-3.981zm-5.785-6.559l-1.347-.691-5.479 10.676 1.347.691 5.479-10.676zm-4.099-1.353l-13.252.027.025 12 13.252-.027-.025-12zm-13.252.027l-36.153.291-12.843.244-3.922.132-1.286.074a13.63 13.63 0 0 0-.593.057c-.055.007-.629.067-1.257.265l3.612 11.443c-.361.114-.643.163-.707.174-.106.019-.179.028-.199.03-.04.005-.027.002.066-.005.179-.014.477-.032.914-.052l3.691-.123 12.698-.241 36.004-.29-.025-12zm-56.055 1.064c-3.641 1.15-6.083 3.987-7.244 7.211l11.291 4.065c.066-.184.106-.187.028-.106-.039.04-.099.093-.184.146a1.22 1.22 0 0 1-.277.128l-3.613-11.443zm-7.243 7.208c-.179.497-.254.913-.276 1.036a7.73 7.73 0 0 0-.067.455c-.026.218-.042.431-.054.604-.024.357-.044.798-.061 1.292l-.093 4.268-.147 16.776 12 .068.146-16.661.088-4.039.04-.895c.006-.086.007-.078 0-.015a4.35 4.35 0 0 1-.039.262c-.013.071-.078.449-.248.919l-11.289-4.07zm-.698 24.431l-.129 15.553-.07 4.831-.031 1.31-.01.263c-.001.019 0-.012.005-.073.002-.029.009-.099.02-.191.006-.05.036-.298.11-.612l11.682 2.743c.076-.325.109-.588.117-.657a6.71 6.71 0 0 0 .027-.264 9.78 9.78 0 0 0 .021-.302l.021-.519.035-1.465.072-4.924.13-15.625-12-.069zm-.105 21.079c.016-.069.031-.118.002-.016-.011.038-.094.318-.159.629-.107.506-.531 2.587.778 4.729 1.238 2.026 3.151 2.672 3.829 2.873.812.241 1.62.334 2.199.386 2.217.198 6.767.184 15.332.215l.044-12-14.311-.168c-.362-.032-.213-.045.144.061.223.066 1.886.548 3.002 2.375 1.187 1.942.77 3.789.722 4.018-.036.172-.077.303-.042.18.017-.059.081-.28.141-.533l-11.681-2.748zm21.98 8.815l12.15-.007 3.118-.06a22.92 22.92 0 0 0 1.058-.059c.154-.013.388-.036.647-.077.129-.02.34-.057.591-.121a6.18 6.18 0 0 0 1.405-.542l-5.665-10.579c.643-.344 1.194-.482 1.326-.515.216-.054.383-.082.457-.094.152-.024.243-.031.216-.028a12.21 12.21 0 0 1-.48.024c-.581.022-1.491.04-2.788.052l-11.991.006-.044 12zm18.967-.865c.417-.223 3.096-1.624 3.492-4.992.311-2.637-1.118-4.555-1.373-4.917-.85-1.205-2.402-2.781-4.236-4.635l-8.531 8.439 2.254 2.319c.566.606.719.81.708.795s-.198-.274-.383-.72-.506-1.412-.356-2.685c.166-1.412.827-2.507 1.516-3.225.579-.604 1.135-.9 1.248-.96l5.661 10.581zm-2.116-14.543c-1.26-1.273-2.168-2.228-2.739-2.863l-.328-.374-.093-.112-.025-.031c.011.014.022.031.038.053.027.039.086.126.161.252.064.109.204.355.343.697.072.177.168.438.25.765.079.314.176.811.176 1.43h-12c0 1.162.338 2.03.458 2.325.161.395.333.703.44.885.217.367.443.674.591.867.312.409.688.845 1.059 1.258.763.85 1.829 1.965 3.136 3.286l8.533-8.438zm-2.217-.183a5.7 5.7 0 0 1-.173 1.398 5.19 5.19 0 0 1-.226.691c-.117.289-.226.477-.255.527-.062.107-.066.096.055-.064.224-.297.608-.757 1.099-1.297.481-.528.994-1.053 1.447-1.482a13.5 13.5 0 0 1 .56-.505c.161-.136.201-.157.139-.116l-6.636-9.998c-1.473.977-3.235 2.763-4.379 4.019a31.06 31.06 0 0 0-1.816 2.161 12.89 12.89 0 0 0-.834 1.236 7.88 7.88 0 0 0-.498 1.004c-.126.31-.483 1.223-.483 2.426h12zm2.647-.848c.851-.565-.967.974-3.341.661-.975-.128-1.605-.491-1.757-.581-.167-.1-.175-.128.051.06 1.061.882 3.212 3.023 8.325 8.119l8.471-8.499-9.123-8.846c-.439-.366-.976-.782-1.578-1.141-.586-.349-1.557-.843-2.825-1.009a6.68 6.68 0 0 0-3.654.549c-.406.185-.721.376-.893.484l-.214.139-.063.042-.037.025 6.638 9.997zm3.278 8.26l8.709 8.811c.694.75.801.927.734.825-.21-.321-.702-1.243-.702-2.531h12c0-1.694-.597-3.035-1.267-4.055-.526-.801-1.233-1.606-1.957-2.389-1.522-1.645-4.258-4.388-9.046-9.16l-8.471 8.499zm8.741 7.105c0-1.151.342-1.99.427-2.2.134-.327.266-.561.323-.659.119-.203.203-.31.174-.271a12.9 12.9 0 0 1-.475.572c-.563.652-1.435 1.605-2.581 2.815-2.275 2.403-5.462 5.638-9.033 9.145l8.41 8.561c3.642-3.578 6.934-6.919 9.336-9.454 1.192-1.259 2.208-2.365 2.948-3.221.359-.416.724-.853 1.025-1.259a9.19 9.19 0 0 0 .563-.844c.101-.174.266-.472.422-.854.108-.265.461-1.148.461-2.331h-12zm-11.164 9.402l-5.492 5.428 8.5 8.47 5.401-5.337-8.409-8.561zm-5.492 5.428l-.611.606c-.146.139-.116.098.019-.001s.572-.402 1.257-.615a5.03 5.03 0 0 1 2.452-.131c.75.147 1.25.427 1.443.545.187.116.244.178.118.07-.292-.252-.721-.675-1.622-1.567l-8.444 8.526c.746.74 1.545 1.539 2.236 2.134.552.475 1.953 1.673 3.955 2.067 2.622.515 4.622-.563 5.684-1.339.83-.606 1.638-1.449 2.013-1.824l-8.5-8.471zm3.055-1.093l-.708-.697-.56-.551c-.344-.343-.487-.5-.543-.567-.019-.022.018.019.082.116a3.56 3.56 0 0 1 .296.547c.119.273.24.63.312 1.061a4.75 4.75 0 0 1 .031 1.32c-.1.858-.407 1.417-.509 1.589-.055.092-.085.129-.063.1s.071-.092.168-.203a27.86 27.86 0 0 1 .952-1.021l.734-.755.884-.909-8.619-8.349c-1.105 1.14-2.244 2.28-3.018 3.173-.618.713-2.154 2.479-2.447 4.976-.356 3.036 1.241 5.159 2 6.064.716.853 1.821 1.896 2.565 2.633l8.443-8.527zm1.075.031c1.049-1.083 2.021-2.121 2.75-2.932.357-.398.698-.788.971-1.122.127-.156.308-.382.483-.632.08-.114.241-.348.406-.65.081-.149.223-.42.358-.774a6.08 6.08 0 0 0 .398-2.158h-12c0-.597.09-1.077.161-1.376a5.86 5.86 0 0 1 .228-.741c.128-.337.26-.588.329-.714a4.98 4.98 0 0 1 .294-.475c.076-.11.112-.149.052-.076-.1.122-.298.354-.607.698-.604.672-1.469 1.597-2.441 2.601l8.618 8.35zm5.366-8.267c0-.43-.005-2.193-1.303-3.882-1.188-1.547-2.726-2.08-3.355-2.267-1.176-.35-2.568-.415-3.603-.455-2.495-.097-7.195-.102-15.889-.102v12l15.421.093c1.309.051 1.165.119.651-.034-.299-.088-1.653-.508-2.74-1.923-1.196-1.557-1.182-3.17-1.182-3.429h12zm-24.15-6.707c-6.159 0-10.508-.016-13.353-.051l-3.082-.064-.572-.029c-.039-.003.029.001.155.02a5 5 0 0 1 .385.074 5.76 5.76 0 0 1 1.09.372l-4.977 10.919c.88.401 1.7.499 1.717.502.246.037.472.059.632.072.333.028.717.047 1.113.062a140.86 140.86 0 0 0 3.394.072l13.5.052v-12zm-15.38.32c.301.137 1.14.569 1.847 1.523.635.858.78 1.626.8 1.731s-.008-.002-.028-.544c-.018-.504-.025-1.196-.025-2.19h-12c0 1.788.003 3.573.256 4.93.148.794.472 2.023 1.356 3.217.956 1.29 2.113 1.932 2.821 2.254l4.974-10.921zm2.593.519v-3.759h-12v3.759h12zm-1.757.484l.589-.589-8.485-8.485-.589.589 8.485 8.485zm.586-.586c.494-.493 1.192-1.285 1.698-2.419.532-1.192.65-2.302.65-3.144h-12c0-.296.044-.968.392-1.747.322-.722.726-1.127.779-1.18l8.481 8.49zm2.348-5.563l-.203-26.751-12 .094.143 18.558.044 5.811.012 1.653.003.463.001.131v.041h12zm-.203-26.751l-.105-19.976.027-4.931.03-1.212c.019-.453.028-.179-.056.257l-11.783-2.272c-.12.623-.142 1.316-.151 1.526-.017.405-.029.915-.038 1.514l-.028 5.117.105 20.071 12-.094zm-.105-25.86c.215-1.113.316-2.792.316-3.932h-12a15.69 15.69 0 0 1-.044 1.089 12.11 12.11 0 0 1-.043.47c-.016.138-.023.16-.011.098l11.782 2.275zm.316-3.932c0-1.189.307-1.805.477-2.04.128-.177.257-.276.55-.329l-2.112-11.813c-7.231 1.293-10.914 7.632-10.914 14.181h12zm1.026-2.368c-.44.079-.641.058.216.034l2.377-.041 8.191-.046 24.197.041 24.077.172 8.038.117 2.27.061.514.024c.046.003.025.002-.035-.004-.03-.003-.106-.012-.21-.028-.067-.01-.328-.05-.661-.143l3.231-11.557c-.562-.157-1.062-.202-1.089-.205a11 11 0 0 0-.443-.037 31.74 31.74 0 0 0-.85-.042l-2.475-.067-8.157-.119-24.157-.173-24.276-.041-8.305.047-2.565.045c-.358.01-1.319.027-2 .149l2.112 11.813z" fill="#000" mask="url(#A)"/></g><defs><clipPath id="B"><path fill="#fff" d="M0 0h192v192H0z"/></clipPath></defs></svg>