<svg xmlns="http://www.w3.org/2000/svg" width="192" height="192" fill="none"><path stroke="#000" stroke-linecap="round" stroke-linejoin="round" stroke-width="12" d="M55.007 164C37.05 155.868 30 140.858 30 129.667c2.663 1.836 7.387 5.909 12.978 5.509-4.493-8.013-13.978-28.545-5.469-50.078 1 4.006 7.809 11.217 14.998 16.025 1.998-18.529 10.39-18.529 11.944-25.54s-1.445-12.52-3.994-17.026c5.16.5 13.548 0 21.97 10.015C84.424 50.043 103.395 24.003 117.874 22c0 0-6.373 26.04 11.624 37.558 1.498-1.001 6-4.006 8-13.02 7.489 5.008 13.829 43.067 10.833 57.089 2.33 0 7.188-1.703 11.982-8.514 3.2 16.693 2.351 34.415-6.957 49.077"/><path stroke="#000" stroke-linecap="round" stroke-linejoin="round" stroke-width="10" d="M73.743 151.522C74 161 78 167 78 167m-1-9c19-2 23-2 33.064-10-1.398 9.443-8.064 13-8.602 23m34.641 0c-5.068-32.119-12.231-67.636-12.603-74.5C122.796 83.5 143 77 143 77s-40 11-56.948 28.924v12.391S66 129 65 131.37s0 3.63 0 3.63"/></svg>