<svg width="192" height="192" viewBox="0 0 192 192" fill="none" xmlns="http://www.w3.org/2000/svg">
<path d="M88.49 170C44.0492 170 30.49 147 30.49 130.5C33.1531 132.333 39.8775 136.4 45.47 136C40.976 128 28.49 106.5 37 85C38 89 44.8096 96.2 52 101C53.9973 82.5 63.9454 84 63.9454 75.5C63.9454 70.3306 63.1465 60.1 59.9508 58.5C65.1105 59 76.5287 61.7 80.9228 68.5C82.9202 50 102.894 24 117.374 22C110.384 33 117.474 49.2 131.855 70C133.353 69 136.449 65.2 136.848 58C144.338 63 149.831 89.5 146.835 103.5C149.165 103.5 155.024 101.8 159.818 95C164.811 121 159.948 149.5 128.49 165" stroke="black" stroke-width="12" stroke-linecap="round" stroke-linejoin="round"/>
<path d="M122.719 166.64C123.119 168.181 124.14 169.477 125.533 170.251C126.927 171.025 128.582 171.212 130.13 170.771C131.679 170.331 132.988 169.302 133.766 167.911C134.544 166.52 134.731 164.88 134.261 163.36C134.261 163.36 134.261 163.36 134.261 163.36C133.57 161.127 132.882 158.809 132.224 156.531C125.932 134.08 119.38 108.527 116.788 88.2238C117.005 86.8221 117.223 85.4316 117.47 84.1798C117.592 83.5627 117.728 82.9658 117.854 82.5498C117.914 82.3466 117.977 82.1872 117.982 82.1803C117.963 82.1749 117.988 82.3482 117.35 82.9538C117.113 83.1636 116.761 83.4148 116.307 83.6066L112.152 74.5143C101.652 79.9198 92.3954 84.9555 82.9032 93.1191C82.0447 93.9618 81.1164 96.1901 81.1142 97.3931C81.114 97.5127 81.1138 97.6324 81.1138 97.752C81.1138 100.284 81.1505 102.815 81.2238 105.347L84.7947 99.9325C82.1484 101.163 79.7483 102.453 77.3196 103.848C75.0846 105.171 73.2592 106.174 70.5187 108.285C69.564 109.129 68.9066 110.288 68.7354 111.567C68.5638 112.845 68.886 114.13 69.6403 115.151C70.3947 116.172 71.528 116.857 72.8004 117.068C74.0731 117.28 75.374 116.992 76.4613 116.328C76.4613 116.328 76.4613 116.328 76.4613 116.328C77.6954 115.731 80.2382 114.603 82.2871 113.733C84.6746 112.717 87.1443 111.665 89.433 110.761C91.3237 109.886 93.0642 107.43 93.0039 105.347C93.0772 102.815 93.1138 100.284 93.1138 97.752C93.1138 97.6324 93.1137 97.5127 93.1135 97.3931L91.3245 101.667C98.4363 95.5103 107.531 88.0836 116.571 83.4857C121.949 80.8367 117.939 72.0616 112.417 74.3934C111.724 74.6854 111.157 75.0802 110.726 75.4619C108.581 77.6545 108.688 78.6682 108.28 79.6586C107.993 80.618 107.819 81.4323 107.659 82.22C107.347 83.7877 107.119 85.2349 106.889 86.6779C109.481 114.151 115.501 135.361 120.932 159.536C121.507 161.89 122.109 164.296 122.719 166.64Z" fill="black"/>
<path d="M78.1684 124.647C76.5813 124.843 75.2282 125.78 74.3816 127.139C73.5352 128.499 73.2691 130.191 73.6373 131.822C74.0056 133.452 74.9727 134.866 76.3215 135.73C77.6701 136.594 79.2942 136.858 80.8116 136.353C81.5702 136.069 82.5927 135.798 83.6079 135.556C86.2076 134.942 88.9951 134.455 91.8294 133.96C93.2536 133.71 94.691 133.464 96.2039 133.166C96.9646 133.014 97.7367 132.853 98.5845 132.636C99.4828 132.375 100.204 132.293 101.871 131.404C101.998 131.331 102.128 131.25 102.263 131.16L94.5432 126.273C93.8637 132.244 89.8986 136.129 85.0995 143.213C80.0627 150.575 80.1645 160.753 81.8968 168.18C82.1683 169.445 82.4271 170.532 82.7553 171.765C83.1578 173.306 84.2038 174.58 85.616 175.323C87.0287 176.066 88.7002 176.213 90.2545 175.735C91.8088 175.256 93.1086 174.195 93.8594 172.787C94.6098 171.379 94.7581 169.736 94.2247 168.235C94.2247 168.235 94.2247 168.235 94.2247 168.235C93.864 167.223 93.5691 166.345 93.2715 165.34C91.4173 159.072 91.0664 153.526 94.0428 148.588C96.923 143.681 103.519 136.513 104.437 127.727C105.146 122.9 100.776 120.133 96.7165 122.84C96.7749 122.801 96.8232 122.771 96.8624 122.749C97.118 122.611 96.9841 122.691 96.8343 122.733C96.6656 122.786 96.4329 122.849 96.1787 122.908C95.6609 123.028 95.0547 123.139 94.4279 123.236C93.1698 123.431 91.8259 123.578 90.4616 123.702C87.7227 123.952 84.9185 124.088 81.9523 124.284C80.7657 124.368 79.5665 124.449 78.1684 124.647Z" fill="black"/>
</svg>
