<svg width="192" height="192" viewBox="0 0 192 192" fill="none" xmlns="http://www.w3.org/2000/svg">
<path d="M96 55V159M96 55C95.4398 43.7963 86.1927 35 74.975 35H26.3313C23.9392 35 22 36.9392 22 39.3313V134.669C22 137.061 23.9392 139 26.3313 139H74.975C86.1927 139 95.4398 147.796 96 159M96 55C96.5602 43.7963 105.807 35 117.025 35H165.669C168.061 35 170 36.9392 170 39.3313V134.669C170 137.061 168.061 139 165.669 139H117.025C105.807 139 96.5602 147.796 96 159" stroke="black" stroke-width="12" stroke-linejoin="round"/>
</svg>
