<svg width="192" height="192" viewBox="0 0 192 192" fill="none" xmlns="http://www.w3.org/2000/svg">
<path d="M96 54V146.5M96 54C95.4398 42.7963 86.1927 34 74.975 34H26.3313C23.9392 34 22 35.9392 22 38.3313V133.669C22 136.061 23.9392 138 26.3313 138H74.975C86.1927 138 95.4398 146.796 96 158C96.5602 146.796 105.807 138 117.025 138H165.669C168.061 138 170 136.061 170 133.669V38.3313C170 35.9392 168.061 34 165.669 34H117.025C105.807 34 96.5602 42.7963 96 54Z" stroke="black" stroke-width="12" stroke-linecap="round" stroke-linejoin="round"/>
</svg>
