<svg width="192" height="192" viewBox="0 0 192 192" fill="none" xmlns="http://www.w3.org/2000/svg">
<path d="M96 55V147.5M96 55C95.4398 43.7963 86.1927 35 74.975 35H26.3313C23.9392 35 22 36.9392 22 39.3313V134.669C22 137.061 23.9392 139 26.3313 139H74.975C86.1927 139 95.4398 147.796 96 159C96.5602 147.796 105.807 139 117.025 139H165.669C168.061 139 170 137.061 170 134.669V39.3313C170 36.9392 168.061 35 165.669 35H117.025C105.807 35 96.5602 43.7963 96 55Z" stroke="black" stroke-width="12" stroke-linecap="round" stroke-linejoin="round"/>
</svg>
