<svg width="192" height="192" viewBox="0 0 192 192" fill="none" xmlns="http://www.w3.org/2000/svg"><path d="M142.924 88.925a56 56 0 0 1-15.326 28.673L88 157.196l-39.598-39.598A56.002 56.002 0 0 1 88 22a56 56 0 0 1 54.924 66.925ZM167 102a55.692 55.692 0 0 1-15.347 28.559L112 170" stroke="#000" stroke-width="12" stroke-linecap="round" stroke-linejoin="round"/><path d="M113.5 82.691a25.584 25.584 0 0 1-7.115 13.15L88 114 69.615 95.84A25.586 25.586 0 0 1 62.5 82.692a25.39 25.39 0 0 1 1.48-14.838 25.752 25.752 0 0 1 9.575-11.525A26.23 26.23 0 0 1 88 52c5.142 0 10.17 1.506 14.445 4.328a25.75 25.75 0 0 1 9.576 11.525 25.381 25.381 0 0 1 1.479 14.838Z" stroke="#000" stroke-width="12" stroke-linecap="round" stroke-linejoin="round"/></svg>