<svg xmlns="http://www.w3.org/2000/svg" width="192" height="192" viewBox="0 0 192 192"><path fill="none" stroke="#000" stroke-linecap="round" stroke-linejoin="round" stroke-width="8" d="M101.82 71.43 126 114a6.68 6.68 0 0 1-2.44 9.13 6.8 6.8 0 0 1-3.35.89H71.8a6.68 6.68 0 0 1-6.71-6.65A6.8 6.8 0 0 1 66 114l24.18-42.59a6.69 6.69 0 0 1 9.11-2.53 6.8 6.8 0 0 1 2.53 2.53zm4.36 52.55 15.81 43.44M70.01 24.58l18.26 50.19m31.21 49.21 25.37 30.24M47.15 37.78 84.2 81.94m41.28 31.08L161.82 134M30.18 58l50.91 29.39M118 99.88l52.8 9.31M21.2 82.81l56.81 10.02m35.98 0 56.81-10.02M21.2 109.19l52.79-9.31M110.9 87.4 161.82 58M30.18 134l36.34-20.98m41.28-31.08 37.05-44.16m-97.7 116.44 25.37-30.24m31.2-49.2 18.27-50.2M70.01 167.42l15.81-43.44M96 68.02V20m0 152v-48.02"/></svg>