<svg xmlns="http://www.w3.org/2000/svg" width="192" height="192" fill="none"><path stroke="#000" stroke-linecap="round" stroke-linejoin="round" stroke-width="12" d="M30 82c0 34 26 48 66 88m66-88c0 34-26 48-66 88m66-88c0-15.913-6.954-31.174-19.331-42.426C130.292 28.32 113.504 22 96 22s-34.292 6.321-46.669 17.574C36.954 50.826 30 66.087 30 82"/><path stroke="#000" stroke-linecap="round" stroke-linejoin="round" stroke-width="12" d="M96 124c-18.182-18.378-30-24.81-30-40.432 0-7.312 3.16-14.324 8.787-19.494C80.413 58.904 88.043 56 96 56c7.956 0 15.587 2.904 21.213 8.074S126 76.256 126 83.568c0 15.621-11.818 22.054-30 40.432"/></svg>