<svg width="192" height="192" viewBox="0 0 192 192" fill="none" xmlns="http://www.w3.org/2000/svg">
<path d="M63.5 127H53C49.6863 127 47.0525 129.678 47.5794 132.95C49.4629 144.645 57.4691 169.5 91.5 169.5C131.546 169.5 136.729 137.289 137.4 128.951C137.503 127.671 137.497 126.396 137.491 125.111L137.49 125.035L137.029 28.9712C137.013 25.6688 134.331 23 131.029 23H121C117.686 23 115 25.6863 115 29V110.718C115 121.569 115.922 133.647 108.69 141.737C105.206 145.634 99.8187 148.823 91.5 149C76.9191 149.31 72.002 139.546 70.3438 132.924C69.5387 129.71 66.8137 127 63.5 127Z" stroke="black" stroke-width="10"/>
</svg>
