<svg xmlns="http://www.w3.org/2000/svg" width="192" height="192" fill="none" stroke="#000" stroke-linecap="round" stroke-linejoin="round" stroke-width="12" viewBox="0 0 192 192"><path d="M22 73.368h13.223v39.669c0 6.612-3.62 13.288-13.223 13.223m46.171-19.628c9.186 0 16.633-7.446 16.633-16.632s-7.447-16.632-16.633-16.632S51.539 80.814 51.539 90s7.447 16.632 16.632 16.632m32.949-33.264v19.834c1.322 15.868 22.479 15.868 26.446 0"/><path d="M127.566 73.368v39.669c-.634 12.364-15.89 19.15-25.124 6.612m41.112-46.281v34.38m26.446 0v-22.48c0-15.867-26.446-15.867-26.446 0"/></svg>