<svg id="Layer_1" data-name="Layer 1" xmlns="http://www.w3.org/2000/svg" viewBox="0 0 24 24">
  <g>
    <path d="M13.81212,7.533c.06091-.04665.17314-.10522.12946-.19475-.05613-.115-.16588-.0321-.24978-.01029a.362.362,0,0,0-.14878.07766c-.24847.22711-.49289.45863-.73865.68869l.09458.11388C13.204,7.984,13.51165,7.76318,13.81212,7.533Z"/>
    <path d="M7.79281,13.06277c-.6754.46974-1.20934,1.10129-1.86769,1.58887A5.0382,5.0382,0,0,0,7.79281,13.06277Z"/>
    <path d="M21.64265,8.28046c-1.48412-3.35262-3.80852-5.9407-7.748-6.25716-3.56556-.28642-6.93282,2.12979-8.65133,3.8483S1.4556,10.6985,1.75854,13.38643s2.567,6.68437,8.11889,8.27863c4.00252,1.14934,8.72477-.80418,10.53142-3.65143C21.57035,16.1831,23.17389,11.73952,21.64265,8.28046ZM13.77151,3.59121a3.91389,3.91389,0,0,1,2.1399.74872c.192.10245.17973.24268.10795.39816a2.10046,2.10046,0,0,1-.5432.715,3.2265,3.2265,0,0,0-.7805,1.22524c-.03006.06752-.07407.152-.00017.20971.07786.0608.15743.04329.25581-.00648a5.133,5.133,0,0,0,.90532-.67888c.20514-.16815.40233-.346.608-.51356.33788-.27531.37232-.27772.74293-.03836a1.94576,1.94576,0,0,1,.91534,1.71084c.00363.422-.073.4988-.47255.6066a5.98957,5.98957,0,0,0-1.86056.664A3.26959,3.26959,0,0,1,14.539,8.9806a13.57859,13.57859,0,0,0-1.812.47311,2.2111,2.2111,0,0,1-.72782.09948c-.2076-.001-.38054.00022-.14247-.27168-.18574-.03794-.26933.24932-.41292.06414-.12668-.16337.016-.30346.107-.43081a4.45233,4.45233,0,0,1,.29023-.34963,3.19858,3.19858,0,0,0,.6389-1.75889,15.98371,15.98371,0,0,1,.6308-2.79441C13.22111,3.68667,13.4167,3.61642,13.77151,3.59121Zm-4.99678.91688a5.08866,5.08866,0,0,1,1.96277-.98627,4.92528,4.92528,0,0,1,1.37979-.28246,2.75843,2.75843,0,0,1,.3258.04977c.32971.08561.41475.2356.28577.5513a13.27879,13.27879,0,0,0-.64974,2.69568,10.70406,10.70406,0,0,1-.84023,2.46316c-.19051.42253-.46776.43272-.72506.04251A22.83972,22.83972,0,0,0,8.818,6.76658,2.5475,2.5475,0,0,1,8.28342,5.6791,1.193,1.193,0,0,1,8.77473,4.50809Zm-3.7779,3.329a5.82365,5.82365,0,0,1,2.498-2.28619c.32211-.14979.52817-.05277.66569.28414A7.33052,7.33052,0,0,0,9.49192,7.89264a15.06592,15.06592,0,0,1,1.11047,1.50371c.12494.18395.06707.28251-.16579.31951a3.03317,3.03317,0,0,1-1.12685-.04878c-.471-.10261-.93432-.24036-1.40413-.34923-.68221-.15807-1.38793-.17494-2.07049-.33757A2.4971,2.4971,0,0,1,5.10905,8.669a.363.363,0,0,1-.21318-.37112A.7931.7931,0,0,1,4.99683,7.83707ZM2.98689,11.94914a6.19092,6.19092,0,0,1,.37048-1.39588,1.98387,1.98387,0,0,1,1.01568-1.202,1.80373,1.80373,0,0,1,1.20986-.16709c.84709.18527,1.72632.155,2.57412.34794.59081.13447,1.18.27607,1.77.41426.06762.01583.13231.0444.14893.11478.01892.08016-.05932.10783-.10608.15128a1.57839,1.57839,0,0,1-1.85262.10083,1.688,1.688,0,0,0-1.53.07306.97674.97674,0,0,0-.53808.90285c-.06777.12868.16587.31376-.01383.4428a1.72488,1.72488,0,0,1-.46994.19564c-.62043.20461-1.18953.54225-1.831.69364C3.21405,12.744,2.92655,12.49355,2.98689,11.94914Zm8.37852,4.93316a7.14248,7.14248,0,0,1-2.76875.39061,1.27347,1.27347,0,0,1-.28-.047c-.39384-.10346-.423-.19408-.29765-.57639a6.595,6.595,0,0,1,.77125-1.5464c.229-.35113.29612-.77087.53095-1.15884-.17625.0492-.21179.17145-.26754.26854-.376.65486-.74652,1.3129-1.12276,1.96764-.10385.18072-.23914.34513-.32827.53214a.66415.66415,0,0,1-.76668.39725,2.67092,2.67092,0,0,1-1.73147-.73859c-.25907-.29247-.24018-.48993.07215-.73262.29608-.23006.38331-.3655.39069-.63129-.174.13492-.33013.268-.49806.384A.77066.77066,0,0,1,3.8628,15.203a3.161,3.161,0,0,1-.54365-1.02385.85593.85593,0,0,1,.36773-1.08869,8.29331,8.29331,0,0,1,1.94131-1.04632c.88917-.32378,1.7686-.67554,2.66426-.97985.49717-.16892,1.00771-.297,1.48856-.51521.10449-.04743.23859-.13306.33533.00006.08416.11582-.03424.20728-.08292.30477-.04464.08941-.14128.15045-.14843.26914.144.02863.22615-.08794.33311-.1344a.29968.29968,0,0,1,.296.001c.09681.07.06244.19517.02094.28958-.19045.43318-.38949.86256-.58351,1.29417-.15231.3388-.30179.67887-.48155,1.08374a.43465.43465,0,0,0,.26942-.31705c.27338-.71832.75227-1.34138.96469-2.08675a.17926.17926,0,0,1,.18945-.13723c.10422-.00374.13728.08588.1697.16433a7.95549,7.95549,0,0,1,.47633,1.60314c.16382.895.422,1.77118.556,2.66867C12.21446,16.34864,12.02762,16.63437,11.36541,16.8823Zm5.05489-3.671a1.85865,1.85865,0,0,1-.44915.99719,6.89674,6.89674,0,0,1-3.07395,2.06214c-.25277.09215-.369.01908-.45445-.23527a25.44658,25.44658,0,0,1-.702-3.0112,18.41935,18.41935,0,0,0-.44207-1.81984c-.12684-.4035-.00608-.57241.56452-.568a3.09065,3.09065,0,0,1,1.05973.50048,6.416,6.416,0,0,0,1.08013.50936,7.20848,7.20848,0,0,1,2.3223,1.25555A.3272.3272,0,0,1,16.4203,13.2113Zm1.73913-2.30814a10.41086,10.41086,0,0,1-.76222,1.42575,1.47823,1.47823,0,0,1-.35349.40432.48747.48747,0,0,1-.65433.03036,7.11485,7.11485,0,0,0-2.52418-1.296,19.32017,19.32017,0,0,1-2.01956-1.09329c-.17018-.08788-.1337-.24336.09214-.349a4.10332,4.10332,0,0,1,1.43034-.47771,10.846,10.846,0,0,0,1.81645-.43913,7.84985,7.84985,0,0,0,1.18724-.45481,2.99632,2.99632,0,0,1,1.68363-.20348.36232.36232,0,0,1,.29619.27035,2.07071,2.07071,0,0,1,.12471.783A3.44768,3.44768,0,0,1,18.15943,10.90316Z"/>
  </g>
</svg>
