<?xml version="1.0" encoding="UTF-8" standalone="no"?>
<svg
   version="1.0"
   width="192pt"
   height="192pt"
   viewBox="0 0 192 192"
   preserveAspectRatio="xMidYMid"
   id="svg12"
   sodipodi:docname="justalk.svg"
   inkscape:version="1.2.1 (9c6d41e410, 2022-07-14)"
   xmlns:inkscape="http://www.inkscape.org/namespaces/inkscape"
   xmlns:sodipodi="http://sodipodi.sourceforge.net/DTD/sodipodi-0.dtd"
   xmlns="http://www.w3.org/2000/svg"
   xmlns:svg="http://www.w3.org/2000/svg">
  <defs
     id="defs16" />
  <sodipodi:namedview
     id="namedview14"
     pagecolor="#ffffff"
     bordercolor="#000000"
     borderopacity="0.25"
     inkscape:showpageshadow="2"
     inkscape:pageopacity="0.0"
     inkscape:pagecheckerboard="0"
     inkscape:deskcolor="#d1d1d1"
     inkscape:document-units="pt"
     showgrid="false"
     inkscape:zoom="1.0882268"
     inkscape:cx="-105.21703"
     inkscape:cy="33.081338"
     inkscape:window-width="1920"
     inkscape:window-height="1009"
     inkscape:window-x="-8"
     inkscape:window-y="-8"
     inkscape:window-maximized="1"
     inkscape:current-layer="g10" />
  <g
     transform="matrix(0.04470867,0,0,-0.04470867,6.6321207,93.832491)"
     fill="#000000"
     stroke="none"
     id="g10"
     style="stroke-width:2.2367">
    <g
       id="g1575"
       transform="matrix(2.1388179,0,0,2.137916,-171.50863,-2049.5177)"
       style="fill:none;stroke:#000000;stroke-width:62.7592;stroke-dasharray:none;stroke-opacity:1">
      <path
         d="M 625,1559 C 478,1542 377,1499 312,1425 195,1292 174,950 271,752 308,677 372,622 457,591 592,543 597,536 599,408 c 1,-70 3,-79 25,-93 14,-9 31,-13 42,-8 10,4 74,51 140,104 152,122 170,133 270,164 141,43 225,121 259,239 55,193 26,488 -59,596 -41,52 -123,105 -191,125 -105,31 -311,42 -460,24 z m 319,-169 c 209,-24 254,-91 243,-360 -6,-156 -16,-198 -58,-240 -53,-53 -117,-65 -339,-65 -341,0 -389,34 -407,286 -6,85 11,229 33,270 18,36 66,75 108,89 85,28 272,37 420,20 z"
         id="path2"
         style="fill:none;stroke:#000000;stroke-width:62.7592;stroke-dasharray:none;stroke-opacity:1" />
      <path
         d="m 573.44384,1124 c -34.43533,-39 -32.2137,-107 4.44326,-139 34.43533,-32 64.4274,-32 93.30864,1 32.2137,36 32.2137,116 1.11082,144 -31.10288,28 -71.0923,25 -98.86272,-6 z"
         id="path4"
         style="fill:none;fill-opacity:0.75;stroke:#000000;stroke-width:62.7592;stroke-dasharray:none;stroke-opacity:1" />
      <path
         d="m 907.94737,1133 c -40.34559,-42 -31.62222,-141 15.2659,-164 79.60073,-39 145.02603,95 78.51033,162 -22.89884,24 -71.9678,25 -93.77623,2 z"
         id="path6"
         style="fill:none;fill-opacity:0.75;stroke:#000000;stroke-width:62.7592;stroke-dasharray:none;stroke-opacity:1" />
      <path
         d="m 1679,1343 c -168,-131 -210,-166 -219,-183 -14,-27 -12,-192 3,-211 7,-8 72,-63 145,-122 138,-110 165,-122 195,-89 15,16 17,53 17,318 0,316 -1,325 -46,338 -16,5 -40,-8 -95,-51 z"
         id="path8"
         style="fill:none;fill-opacity:0.75;stroke:#000000;stroke-width:62.7592;stroke-dasharray:none;stroke-opacity:1" />
    </g>
  </g>
</svg>
