<svg width="192" height="192" viewBox="0 0 192 192" fill="none" xmlns="http://www.w3.org/2000/svg"><path d="M77 81c0-10.493 8.507-19 19-19v0c10.493 0 19 8.507 19 19v70c0 10.493-8.507 19-19 19v0c-10.493 0-19-8.507-19-19V81Z" stroke="#000" stroke-width="12" stroke-linecap="round" stroke-linejoin="round"/><path d="M84 65.036a26.547 26.547 0 0 0-18.808-4.839c-14.476 1.757-24.77 14.78-22.992 29.088l7.179 57.792c1.777 14.308 14.953 24.483 29.429 22.726A26.7 26.7 0 0 0 86 167.891m22-102.855a26.546 26.546 0 0 1 18.808-4.839c14.476 1.757 24.77 14.78 22.992 29.088l-7.179 57.792c-1.777 14.308-14.953 24.483-29.429 22.726a26.702 26.702 0 0 1-7.192-1.912M96 39a17 17 0 0 1 17-17" stroke="#000" stroke-width="12" stroke-linecap="round" stroke-linejoin="round"/></svg>