<svg id="Layer_1" data-name="Layer 1" xmlns="http://www.w3.org/2000/svg" width="192" height="192" viewBox="0 0 192 192"><defs><style>.cls-1{fill:none;}.cls-2{fill-rule:evenodd;}</style></defs><rect class="cls-1" width="192" height="192"/><path class="cls-2" d="M91.16,116.59A1.12,1.12,0,0,1,90,117.71H87a1.12,1.12,0,0,1-1.12-1.12v-16.4a2.29,2.29,0,0,0-4.57,0v16.4a1.12,1.12,0,0,1-1.12,1.12H77.05a1.12,1.12,0,0,1-1.12-1.12V105.9a2.67,2.67,0,0,0-2.67-2.66h0a2.66,2.66,0,0,0-2.66,2.66v24a10,10,0,0,0,4.64,7.9,12.39,12.39,0,0,0,3.15,1.36v23.4H56.49a3.36,3.36,0,0,1-3.36-3.37V97.28A1.13,1.13,0,0,0,52,96.16H36.79a3.36,3.36,0,0,1-2.38-5.74l60-60a3.37,3.37,0,0,1,4.79,0l31.59,32.42v-13A2.24,2.24,0,0,1,133,47.69h6a2.24,2.24,0,0,1,2.24,2.24V73.65l16.37,16.8a3.36,3.36,0,0,1-2.41,5.71H141.6a1.13,1.13,0,0,0-1.13,1.12v61.9a3.36,3.36,0,0,1-3.36,3.37H121.26V102a3,3,0,0,0-5.06-2.22c-.72.67-1.48,1.42-2.24,2.22a42.58,42.58,0,0,0-4,4.9l-.45.67a31.06,31.06,0,0,0-1.69,2.91,20.54,20.54,0,0,0-2.2,7.25q-.06.74-.06,1.47a58,58,0,0,0,.84,10.71h0a31.61,31.61,0,0,0,1.42,5.2c.27.69.55,1.35.85,2a30.19,30.19,0,0,0,3.62,5.68v19.79H88.69v-23.4a12.47,12.47,0,0,0,3.16-1.36A9.84,9.84,0,0,0,94,136a10,10,0,0,0,2.51-6.11v-24a2.67,2.67,0,0,0-5.34,0Zm33.08-79.68L108.81,21.08a16.81,16.81,0,0,0-23.93-.15l-60,60c-10.6,10.59-3.09,28.7,11.89,28.7h2.88v49.57A16.82,16.82,0,0,0,56.49,176h80.62a16.82,16.82,0,0,0,16.82-16.82V109.61h1.28c14.88,0,22.43-17.89,12-28.55L154.71,68.18V49.93A15.7,15.7,0,0,0,139,34.23h-6A15.64,15.64,0,0,0,124.24,36.91Z"/></svg>