<svg width="192" height="192" fill="none" xmlns="http://www.w3.org/2000/svg"><path d="M170 99c0-39.764-33.131-72-74-72-40.87 0-74 32.236-74 72 0 28.968 17.583 53.941 42.931 65.366C91.503 149.838 140 118.946 140 87c0-2.89-.595-5.75-1.751-8.419a21.961 21.961 0 0 0-4.986-7.137 23.094 23.094 0 0 0-7.461-4.77A23.916 23.916 0 0 0 117 65c-3.02 0-6.011.569-8.802 1.675a23.09 23.09 0 0 0-7.461 4.769A21.992 21.992 0 0 0 96 78.027a22 22 0 0 0-4.737-6.583 23.1 23.1 0 0 0-7.461-4.77A23.91 23.91 0 0 0 75 65c-3.02 0-6.011.569-8.802 1.675a23.097 23.097 0 0 0-7.461 4.769 21.96 21.96 0 0 0-4.986 7.137A21.171 21.171 0 0 0 52 87c0 31.946 48.497 62.838 75.069 77.366C152.417 152.941 170 127.968 170 99Z" stroke="#000" stroke-width="12" stroke-linecap="round" stroke-linejoin="round"/></svg>