<?xml version="1.0" encoding="utf-8"?>
	<svg version="1.1" xmlns="http://www.w3.org/2000/svg" xmlns:xlink="http://www.w3.org/1999/xlink" x="0px" y="0px" width="240.0" height="240.0" xml:space="preserve">
		<path d="M119.531,210.058C119.531,169.477 119.688,128.894 119.459,88.314C119.358,70.511 124.814,54.923 136.734,41.875C148.716,28.759 163.85,21.501 181.631,20.086C186.085,19.732 186.555,20.313 186.556,24.747C186.568,67.262 186.677,109.778 186.53,152.293C186.415,185.599 163.722,212.936 131.555,218.85C127.996,219.505 124.338,219.912 120.724,219.931C100.035,220.035 79.346,219.993 58.656,219.985C54.15,219.983 54.01,219.84 54.008,215.436C53.998,196.338 53.997,177.239 54.009,158.141C54.011,153.863 54.208,153.555 58.403,153.759C71.794,154.414 83.612,159.41 94.116,167.482C108.167,178.28 116.626,192.509 119.531,210.058" fill="#000" stroke="#00000000" stroke-width="1.0" stroke-miterlimit=""/>
	</svg>
