<svg xmlns="http://www.w3.org/2000/svg" xmlns:xlink="http://www.w3.org/1999/xlink" width="192" height="192" viewBox="0 0 192 192" fill="none"><defs><rect id="path_0" x="0" y="0" width="192" height="192" /><rect id="path_1" x="0" y="0" width="160" height="160" /></defs><g opacity="1" transform="translate(0 0)  rotate(0 96 96)"><mask id="bg-mask-0" fill="white"><use xlink:href="#path_0"/></mask><g mask="url(#bg-mask-0)" ><g opacity="1" transform="translate(22 16)  rotate(0 80 80)"><mask id="bg-mask-1" fill="white"><use xlink:href="#path_1"/></mask><g mask="url(#bg-mask-1)" ><path id="路径 1" fill-rule="evenodd" style="fill:#000000" transform="translate(7.567668382500177 9.999533943097202)  rotate(0 54.053708402856536 70.0004660569028)" opacity="1" d="M21.62,95.9L43.28,75.4L88.41,135.69C90.51,138.5 93.87,140 97.3,140C99.5,140 101.64,139.38 103.45,138.22C108.36,135.08 109.58,128.85 106.18,124.31L58.67,60.83L105.02,16.99C109.2,13.04 109.11,6.7 104.85,2.85C100.59,-1.01 93.72,-0.94 89.56,3L21.62,67.28L21.62,10C21.62,4.48 16.79,0 10.81,0C4.83,0 0,4.48 0,10L0,130C0,135.52 4.83,140 10.81,140C16.79,140 21.62,135.52 21.62,130L21.62,95.9Z " /><path  id="路径 1" style="stroke:#000000; stroke-width:1; stroke-opacity:1; stroke-dasharray:0 0" transform="translate(7.567668382500177 9.999533943097202)  rotate(0 54.053708402856536 70.0004660569028)" d="M21.62,95.9L43.28,75.4L88.41,135.69C90.51,138.5 93.87,140 97.3,140C99.5,140 101.64,139.38 103.45,138.22C108.36,135.08 109.58,128.85 106.18,124.31L58.67,60.83L105.02,16.99C109.2,13.04 109.11,6.7 104.85,2.85C100.59,-1.01 93.72,-0.94 89.56,3L21.62,67.28L21.62,10C21.62,4.48 16.79,0 10.81,0C4.83,0 0,4.48 0,10L0,130C0,135.52 4.83,140 10.81,140C16.79,140 21.62,135.52 21.62,130L21.62,95.9Z " /><path  id="路径 2" style="stroke:#000000; stroke-width:8; stroke-opacity:1; stroke-dasharray:0 0" transform="translate(132 133)  rotate(0 7 7)" d="M14,11L14,3C14,1.34 12.66,0 11,0L3,0C1.34,0 0,1.34 0,3L0,11C0,12.66 1.34,14 3,14L11,14C12.66,14 14,12.66 14,11Z " /></g></g></g></g></svg>
