<svg width="192" height="192" viewBox="0 0 192 192" fill="none" xmlns="http://www.w3.org/2000/svg"><path d="M73 149.22C73 160.696 64.941 170 55 170s-18-9.304-18-20.78V42.78C37 31.303 45.059 22 55 22s18 9.303 18 20.78v106.44ZM90 63.29l36.349-36.325c6.625-6.62 17.366-6.62 23.99 0 6.624 6.62 6.624 17.354 0 23.974l-60.316 60.275M115.237 111l28.443 28.227a17.93 17.93 0 0 1 0 25.493c-7.094 7.04-18.594 7.04-25.687 0L90 136.94M115 111l-25 25.5M90 64v46.5" stroke="#000" stroke-width="12" stroke-linecap="round" stroke-linejoin="round"/></svg>