<svg width="192" height="192" viewBox="0 0 192 192" fill="none" xmlns="http://www.w3.org/2000/svg"><path d="m46 166-5.82-1.455a6.001 6.001 0 0 0 8.978 6.557L46 166Zm8.494-33.976 5.82 1.456a6 6 0 0 0-3.002-6.753l-2.818 5.297Zm31.18 9.416.653-5.965a6.009 6.009 0 0 0-3.811.863l3.158 5.102ZM164 84c0 27.44-29.001 52-68 52v12c42.739 0 80-27.375 80-64h-12ZM28 84c0-27.44 29.001-52 68-52V20c-42.74 0-80 27.375-80 64h12Zm68-52c38.999 0 68 24.56 68 52h12c0-36.625-37.261-64-80-64v12ZM51.82 167.455l8.495-33.975-11.642-2.911-8.494 33.976 11.642 2.91Zm5.492-40.728C39.106 117.042 28 101.193 28 84H16c0 22.758 14.662 42.143 35.676 53.322l5.636-10.595ZM96 136a88.81 88.81 0 0 1-9.673-.525l-1.306 11.929c3.592.393 7.257.596 10.979.596v-12Zm-46.842 35.102 39.674-24.561-6.316-10.203-39.674 24.56 6.316 10.204Z" fill="#000"/><path d="M96 110V62m0 0H72m24 0h24" stroke="#000" stroke-width="12" stroke-linecap="round" stroke-linejoin="round"/></svg>