<svg xmlns="http://www.w3.org/2000/svg" width="192" height="192" fill="none"><path stroke="#000" stroke-linecap="round" stroke-linejoin="round" stroke-width="12" d="M145.694 57.312a52 52 0 0 1-26.269 31.113l19.472 19.472a46 46 0 0 0 8.549-73.47m-1.752 22.885a52 52 0 0 0 1.752-22.885m-1.752 22.885A52 52 0 0 0 116 48H58.485a6 6 0 0 1-4.242-1.757L36.828 28.828c-2.52-2.52-.735-6.828 2.829-6.828H116a46 46 0 0 1 31.446 12.427M46.306 134.685a52 52 0 0 1 26.269-31.113L53.103 84.1a46 46 0 0 0-8.55 73.47m1.753-22.885a52 52 0 0 0-1.752 22.885m1.752-22.885A52 52 0 0 0 76 143.997h57.515a6 6 0 0 1 4.242 1.757l17.415 17.414c2.519 2.52.735 6.829-2.829 6.829H76a46 46 0 0 1-31.446-12.427"/></svg>