<svg width="192" height="192" fill="none" xmlns="http://www.w3.org/2000/svg"><path d="M145.694 57.312a51.997 51.997 0 0 1-26.269 31.113l19.472 19.472a45.999 45.999 0 0 0 8.549-73.47m-1.752 22.885a51.983 51.983 0 0 0 1.752-22.885m-1.752 22.885A51.998 51.998 0 0 0 116 48H58.485a6 6 0 0 1-4.242-1.757L36.828 28.828c-2.52-2.52-.735-6.828 2.829-6.828H116a46 46 0 0 1 31.446 12.427M46.306 134.685a52.001 52.001 0 0 1 26.269-31.113L53.103 84.1a46.001 46.001 0 0 0-8.55 73.47m1.753-22.885a51.98 51.98 0 0 0-1.752 22.885m1.752-22.885A52 52 0 0 0 76 143.997h57.515a6 6 0 0 1 4.242 1.757l17.415 17.414c2.519 2.52.735 6.829-2.829 6.829H76a46.002 46.002 0 0 1-31.446-12.427" stroke="#000" stroke-width="12" stroke-linecap="round" stroke-linejoin="round"/></svg>