<svg xmlns="http://www.w3.org/2000/svg" width="192" height="192" fill="none" stroke-width="12" viewBox="0 0 192 192"><path stroke="#000" d="M42 30h30v132H42z"/><path fill="#000" d="M152 162v6l5.603-8.146zm-34 0-5.655 2.006L118 168zm-22-62-5.08-3.193a6 6 0 0 0-.575 5.199zm14.397-29.854 36 94 11.206-4.292-36-94zM152 156h-34v12h34zm-28.345 3.994-22-62-11.31 4.012 22 62zm-22.575-56.801 44-70-10.16-6.386-44 70z"/><path stroke="#000" stroke-linecap="round" d="M30 30h54m30 0h38M30 162h54m20 0h58"/></svg>