<svg xmlns="http://www.w3.org/2000/svg" xml:space="preserve" width="192" height="192" fill="none"><g stroke="#000" stroke-linecap="round" stroke-linejoin="round" stroke-width="12"><path d="M133.694 127V65l-19 14m-45 16h6c3.172 0 6.282-.784 8.976-2.262s4.868-3.593 6.27-6.104c1.404-2.51 1.983-5.318 1.672-8.104-.31-2.787-1.5-5.44-3.431-7.661-1.932-2.222-4.53-3.921-7.5-4.908a19.14 19.14 0 0 0-9.304-.673c-3.112.546-5.988 1.85-8.304 3.764s-3.978 4.36-4.8 7.066M75.693 95c3.36 0 6.653.836 9.506 2.413s5.153 3.832 6.639 6.51 2.099 5.673 1.77 8.645-1.588 5.803-3.634 8.172-4.795 4.183-7.94 5.234a20.1 20.1 0 0 1-9.852.719c-3.295-.583-6.34-1.974-8.793-4.015-2.452-2.042-4.212-4.652-5.082-7.537"/><rect width="148" height="148" x="22" y="22" rx="6" ry="6"/><circle cx="158" cy="34" r="12"/></g></svg>