<svg width="192" height="192" viewBox="0 0 192 192" fill="none" xmlns="http://www.w3.org/2000/svg"><g clip-path="url(#katwarn__a)" stroke="#000" stroke-linecap="round" stroke-linejoin="round"><path d="M147 162a21.992 21.992 0 0 0-6.444-15.556A21.99 21.99 0 0 0 125 140a21.992 21.992 0 0 0-15.556 6.444A21.99 21.99 0 0 0 103 162" stroke-width="12"/><path d="M167.105 142.583a47.997 47.997 0 0 0-84.036-11.661 48 48 0 0 0-8.84 32.762" stroke-width="10"/><path d="M167.259 96.706a76.998 76.998 0 0 0-112.735 25.199 77 77 0 0 0-9.372 41.93" stroke-width="8"/><path d="M165.107 62.557a102 102 0 0 0-140.224 61.262" stroke-width="6"/><rect x="25" y="25" width="142" height="142" rx="6" stroke-width="12"/></g><defs><clipPath id="katwarn__a"><path fill="#fff" d="M0 0h192v192H0z"/></clipPath></defs></svg>