<svg xmlns="http://www.w3.org/2000/svg" width="192" height="192" fill="none"><path stroke="#000" stroke-linecap="round" stroke-linejoin="round" stroke-width="10" d="M44 137s10 8 32 8h20c22 0 43-7 68-22 7-4 7-10 7-15s-4-12-12-11-13 13-13 13"/><path stroke="#000" stroke-linecap="round" stroke-linejoin="round" stroke-width="10" d="M45 165s17-9 28-20c8 16 21 26 21 26s15-14.5 22-27c5.735 5.735 26.804 18.664 34.033 23.5M98 21c-47 0-74 32-77 79"/><path stroke="#000" stroke-linecap="round" stroke-linejoin="round" stroke-width="10" d="M44 171s-5-79 16-99c6 21 17 31 17 31-2-14 7-36 7-36 6 20 23.5 35 23.5 35l.5-25 13 8-1-24c33 27 31 110 31 110m-130 0c2-30 0-37 0-71m77-79a72 72 0 0 1 66.519 44.447C166.072 69.197 167.3 75 168 79.5m3 91.5c-.782-11.728-.952-21.011-.93-30"/><path stroke="#000" stroke-linecap="round" stroke-linejoin="round" stroke-width="10" d="M81 107s-17-3-31 0m93-2s-22-3-36 0"/><ellipse cx="121" cy="115" stroke="#000" stroke-linecap="round" stroke-linejoin="round" stroke-width="10" rx="3" ry="6"/><ellipse cx="67" cy="117" stroke="#000" stroke-linecap="round" stroke-linejoin="round" stroke-width="10" rx="3" ry="6"/></svg>