<?xml version="1.0" encoding="UTF-8" standalone="no"?>
<svg
   width="192"
   height="192"
   viewBox="0 0 192 192"
   fill="none"
   version="1.1"
   id="svg4"
   xml:space="preserve"
   xmlns="http://www.w3.org/2000/svg"
   xmlns:svg="http://www.w3.org/2000/svg"><defs
     id="defs4"><linearGradient
       id="swatch5"><stop
         style="stop-color:#ff9900;stop-opacity:1;"
         offset="0"
         id="stop5" /></linearGradient><linearGradient
       id="swatch4"><stop
         style="stop-color:#3b8aff;stop-opacity:1;"
         offset="0"
         id="stop4" /></linearGradient></defs><g
     id="g35"
     transform="matrix(1.1305005,0,0,1.1306769,-3.7364972,-18.177684)"
     style="stroke-width:0.884495"><path
       style="fill:none;fill-opacity:1;stroke:#000000;stroke-width:5.30697;stroke-linecap:round;stroke-linejoin:round;stroke-dasharray:none"
       d="m 114.42857,107.6508 c 0.51037,12.59911 1.18415,22.52353 14.28571,27.77777 13.46429,1.54884 17.14754,-12.55151 17.0635,-29.7619"
       id="path33-3" /><path
       d="M 131.79365,117.50793"
       style="fill:none;fill-opacity:1;stroke:#000000;stroke-width:5.30697;stroke-linecap:round;stroke-linejoin:round;stroke-dasharray:none"
       id="path1-6" /><path
       style="fill:none;fill-opacity:1;stroke:#000000;stroke-width:7.07596;stroke-linecap:round;stroke-linejoin:round;stroke-dasharray:none"
       d="m 107,103.34993 c 15.37156,-2.96387 31.00301,-2.99775 44.84127,-0.79365"
       id="path32-2" /><path
       d="M 129.46032,102.34921"
       style="fill:none;fill-opacity:1;stroke:#000000;stroke-width:7.07596;stroke-linecap:round;stroke-linejoin:round;stroke-dasharray:none"
       id="path1-1" /><path
       style="fill:none;fill-opacity:1;stroke:#000000;stroke-width:8.84494957;stroke-linecap:round;stroke-linejoin:round;stroke-dasharray:none"
       d="m 154.60946,114.48395 c -8.31891,-26.040576 -22.96321,-43.647301 -37.64344,-60.794529 7.76208,23.199165 3.82016,30.959887 2.2881,47.045239 -6.61769,-9.309672 -10.29288,-23.594645 -15.43289,-29.783267 2.02221,8.444253 -1.23406,23.93525 -2.9828,33.732457 m 53.20983,-24.713445 c 2.44913,31.066315 2.49764,64.321675 -7.68068,86.076905"
       id="path26" /><path
       style="fill:none;fill-opacity:1;stroke:#000000;stroke-width:8.84494957;stroke-linecap:round;stroke-linejoin:round;stroke-dasharray:none"
       d="M 90.674603,83.531746 C 93.369586,94.654753 98.36328,104.41927 103.59008,114.95308 82.6849,108.53283 68.213698,93.741747 63.134534,67.343503 63.39972,80.531605 63.638887,93.719708 68.044997,107.18841 46.855244,101.93894 41.849014,85.059772 39.564308,66.221111 29.855271,79.248199 24.396874,93.975543 22.167236,109.99439"
       id="path30" /><path
       style="fill:none;fill-opacity:1;stroke:#000000;stroke-width:8.84494957;stroke-linecap:round;stroke-linejoin:round;stroke-dasharray:none"
       d="m 22.420635,84.325396 c -3.165673,22.930014 0.03356,48.033814 -0.177815,61.967274 -0.03609,2.37905 0.94817,5.88732 2.843875,7.31251 C 42.759878,166.8918 105.48076,168.39193 150,153.57143"
       id="path31" /><path
       style="fill:none;fill-opacity:1;stroke:#000000;stroke-width:7.07596;stroke-linecap:round;stroke-linejoin:round;stroke-dasharray:none"
       d="m 22.619048,107.14286 c 15.371557,-2.96387 31.003006,-2.99775 44.84127,-0.79365"
       id="path32" /><path
       style="fill:none;fill-opacity:1;stroke:#000000;stroke-width:5.30697;stroke-linecap:round;stroke-linejoin:round;stroke-dasharray:none"
       d="m 36.507936,108.73016 c 0.510369,12.59911 1.184151,22.52353 14.285715,27.77777 13.464283,1.54884 17.147536,-12.55151 17.063491,-29.7619"
       id="path33" /></g></svg>
