<svg xmlns="http://www.w3.org/2000/svg" width="192" height="192" fill="none" stroke="#000" viewBox="0 0 192 192"><path stroke-linecap="round" stroke-width="10" d="M152 136V98m-37 38V98m0 18h12m-12 20h12m-12-38h7m4.5 38c2.785 0 5.455-1.054 7.425-2.929 1.969-1.875 3.075-4.419 3.075-7.071s-1.106-5.196-3.075-7.071c-1.97-1.875-4.64-2.929-7.425-2.929m-5 0c2.785 0 5.455-.948 7.425-2.636 1.969-1.688 3.075-3.977 3.075-6.364s-1.106-4.676-3.075-6.364c-1.97-1.688-4.64-2.636-7.425-2.636M78 136V98m0 18h12m-12 20h12M78 98h7m4.5 38c2.785 0 5.456-1.054 7.425-2.929C98.894 131.196 100 128.652 100 126s-1.106-5.196-3.075-7.071c-1.97-1.875-4.64-2.929-7.425-2.929m-5 0c2.785 0 5.456-.948 7.425-2.636C93.894 111.676 95 109.387 95 107s-1.106-4.676-3.075-6.364C89.955 98.948 87.285 98 84.5 98M40 116h8m-8 20V98m23 38-15-20m15-18-15 18"/><path stroke-width="12" d="M72 41c0-6.373 20.102-19 24-19 3.898 0 24 12.627 24 19 0 6.373-5.814 22.814-9 26s-28.814 3.186-32 0-7-19.627-7-26zm-2 3H28a6 6 0 0 0-6 6v114a6 6 0 0 0 6 6h136a6 6 0 0 0 6-6V50a5.997 6 0 0 0-5.997-6H122"/></svg>