<svg width="192" height="192" viewBox="0 0 192 192" fill="none" xmlns="http://www.w3.org/2000/svg"><path d="M157.862 121.878a71 71 0 1 0-90.445 37.353" stroke="#000" stroke-width="12" stroke-linecap="round" stroke-linejoin="round"/><path d="M162.678 127.322a25.01 25.01 0 0 0-11.104-6.442 30.987 30.987 0 0 0-11.702-19.474 31.008 31.008 0 0 0-26.895-5.35 31.003 31.003 0 0 0-22.91 31.972c.17 2.603.668 5.165 1.475 7.628a18.002 18.002 0 0 0-24.929 11.685A18.002 18.002 0 0 0 84 170h61a25.006 25.006 0 0 0 17.678-7.322A25.01 25.01 0 0 0 170 145a25.006 25.006 0 0 0-7.322-17.678Z" stroke="#000" stroke-width="12" stroke-linecap="round" stroke-linejoin="round"/></svg>