<svg xmlns="http://www.w3.org/2000/svg" width="192" height="192" fill="none" stroke="#000" stroke-linecap="round" stroke-linejoin="round" stroke-width="10" viewBox="0 0 192 192"><path d="M91 152h10l-5-16z"/><path stroke-width="12" d="M162 104H30m132 66H30m41-22H30m41-22H30m132 22h-41m41-22h-41m32-44c0-6.303-1.474-12.545-4.339-18.369-2.864-5.823-7.063-11.115-12.356-15.572s-11.576-7.993-18.492-10.405S103.485 34 96 34s-14.897 1.242-21.813 3.654-13.2 5.948-18.492 10.405-9.492 9.749-12.356 15.572C40.474 69.455 39 75.697 39 82"/><path stroke-width="6" d="M69 40 55 19m82 0-14 21"/><circle cx="73" cy="64" r="4" stroke-width="8"/><circle cx="96" cy="127" r="5"/><circle cx="119" cy="64" r="4" stroke-width="8"/></svg>