<svg width="192" height="192" viewBox="0 0 192 192" fill="none" xmlns="http://www.w3.org/2000/svg"><circle cx="126" cy="133" r="37" stroke="#000" stroke-width="12" stroke-linecap="round" stroke-linejoin="round"/><path d="M140 96V80a6 6 0 0 0-6-6H44a6 6 0 0 0-6 6v76a6 6 0 0 0 6 6h57m16-112a28.002 28.002 0 0 0-28-28 27.999 27.999 0 0 0-28 28m56 0v24" stroke="#000" stroke-width="12" stroke-linecap="round" stroke-linejoin="round"/><path d="M126 117v16m12 12-12-12" stroke="#000" stroke-width="10" stroke-linecap="round" stroke-linejoin="round"/><path d="M61 50v24" stroke="#000" stroke-width="12" stroke-linecap="round" stroke-linejoin="round"/></svg>