<svg xmlns="http://www.w3.org/2000/svg" width="192" height="192" fill="none"><circle cx="63" cy="96" r="29" stroke="#000" stroke-linecap="round" stroke-linejoin="round" stroke-width="12"/><path stroke="#000" stroke-linecap="round" stroke-linejoin="round" stroke-width="12" d="M154.632 111.764 93.722 96l60.91-15.764A91 91 0 0 1 156 96a91 91 0 0 1-1.368 15.764M87.35 77 126 37.714a90.5 90.5 0 0 0-12.937-9.038A90.6 90.6 0 0 0 98.761 22L84.34 74m0 44 14.421 52a90.6 90.6 0 0 0 14.302-6.676A90.5 90.5 0 0 0 126 154.286L87.35 116.5"/></svg>