<svg width="192" height="192" fill="none" xmlns="http://www.w3.org/2000/svg"><circle cx="63" cy="96" r="29" stroke="#000" stroke-width="12" stroke-linecap="round" stroke-linejoin="round"/><path d="M154.632 111.764 93.722 96l60.91-15.764A90.767 90.767 0 0 1 156 96a90.76 90.76 0 0 1-1.368 15.764ZM87.35 77 126 37.714a90.539 90.539 0 0 0-12.937-9.038A90.602 90.602 0 0 0 98.761 22L84.34 74m0 44 14.421 52a90.584 90.584 0 0 0 14.302-6.676A90.467 90.467 0 0 0 126 154.286L87.35 116.5" stroke="#000" stroke-width="12" stroke-linecap="round" stroke-linejoin="round"/></svg>