<svg xmlns="http://www.w3.org/2000/svg" xml:space="preserve" width="192" height="192" fill="none" viewBox="0 0 192 192"><path d="m126.486 125.977 23.185.39-3.758-14.848 21.77-2.265-15.817-16.57 18.135-12.129-22.532-6.117 16.844-52.435-42.258 32.744-13.975-5.125 3.167-22.517S96.806 37.85 96 38.133c-.806-.286-15.247-11.032-15.247-11.032l3.167 22.517-13.975 5.125L27.687 22 44.53 74.434l-22.532 6.117 18.135 12.13-15.818 16.57 21.771 2.268-3.758 14.844 23.185-.386 20.183 44.021 22.16.002ZM69.945 54.743l28.748 20.12m49.087-3.26-17.44 8.594" style="fill:none;stroke:#000;stroke-width:12;stroke-linecap:round;stroke-linejoin:round;stroke-dasharray:none"/><path d="m98.693 74.863 31.748 5.516-10.5 22.356-24.425-5.324Z" style="fill:none;stroke:#000;stroke-width:12;stroke-linecap:round;stroke-linejoin:round;stroke-dasharray:none"/></svg>