<?xml version="1.0" encoding="UTF-8" standalone="no"?>
<svg
   width="192"
   height="192"
   viewBox="0 0 192 192"
   fill="none"
   version="1.1"
   id="svg4"
   xml:space="preserve"
   xmlns="http://www.w3.org/2000/svg"
   xmlns:svg="http://www.w3.org/2000/svg"><defs
     id="defs4"><linearGradient
       id="swatch5"><stop
         style="stop-color:#ff9900;stop-opacity:1;"
         offset="0"
         id="stop5" /></linearGradient><linearGradient
       id="swatch4"><stop
         style="stop-color:#3b8aff;stop-opacity:1;"
         offset="0"
         id="stop4" /></linearGradient></defs><g
     style="fill:none;stroke-width:1.11205"
     id="g1"
     transform="matrix(0.8998916,0,0,0.89858768,164.66694,10.289197)"><path
       style="fill:none;stroke:#000000;stroke-width:11.1205;stroke-linecap:round;stroke-linejoin:round"
       d="M 86.985,169.194 54.578695,112.22744 45.027423,123.4843 42.980722,110.86297 28.653815,119.39089 37.181736,104.72287 23.878179,105.74622 32.4061,98.582767 16.373608,96.194949 31.723866,87.325912 17.738076,78.115757 36.158385,79.821341 24.560413,68.564485 39.569554,75.386822 18.420309,20.125894 68.223368,53.555344 83.573626,50.485293 76.410173,33.770567 c 0,0 12.96244,12.621323 14.326907,12.96244 1.364467,0.341117 -2.387818,-18.420309 -2.387818,-18.420309 L 97.218,41.957"
       transform="translate(-176.01985,0.16748656)"
       id="path11" /><path
       style="fill:none;stroke:#000000;stroke-width:13.3446;stroke-linecap:round;stroke-linejoin:round;stroke-dasharray:none"
       d="M 112.451,169.194 H 86.985"
       transform="translate(-176.01985,0.16748656)"
       id="path10" /><path
       style="fill:none;stroke:#000000;stroke-width:11.1205;stroke-linecap:round;stroke-linejoin:round"
       d="m 102.218,41.957685 8.8689,-13.644674 c 0,0 -3.75229,18.761426 -2.38782,18.420309 1.36447,-0.341117 14.32691,-12.96244 14.32691,-12.96244 l -7.16346,16.714726 15.35026,3.070051 49.80306,-33.42945 -21.14924,55.260928 15.00914,-6.822337 -11.59798,11.256856 18.42031,-1.705584 -13.98579,9.210155 15.35026,8.869037 -16.03249,2.387818 8.52792,7.16346 -13.30356,-1.02335 8.52792,14.66802 -14.3269,-8.52792 -2.0467,12.62133 -9.55128,-11.25686 L 112.451,169.194"
       transform="translate(-176.01985,0.16748656)"
       id="path8-2" /><path
       style="fill:none;fill-opacity:1;stroke:#000000;stroke-width:11.1205;stroke-linecap:round;stroke-linejoin:round;stroke-dasharray:none"
       d="m -96.937703,55.741344 25.776387,20.119566 6.065029,23.536091 15.920702,3.036919 9.097551,-11.008817 22.364796,-7.59229 -1.137193,-8.731131 -32.599533,1.518457 -40.938957,-22.397252 z"
       id="path13" /></g></svg>
