<svg width="192" height="192" viewBox="0 0 192 192" fill="none" xmlns="http://www.w3.org/2000/svg"><path d="M170 34h-42m42 0-14-12M34 34h28m90 136c0-14.322-5.9-28.057-16.402-38.184C125.096 121.689 110.852 116 96 116s-29.096 5.689-39.598 15.816C45.9 141.943 40 155.678 40 170m0-102c0 12.73 5.9 24.94 16.402 33.941C66.904 110.943 81.148 116 96 116s29.096-5.057 39.598-14.059C146.1 92.939 152 80.731 152 68" stroke="#000" stroke-width="12" stroke-linecap="round" stroke-linejoin="round"/><circle cx="96" cy="64" r="18" stroke="#000" stroke-width="12" stroke-linecap="round" stroke-linejoin="round"/></svg>