<svg width="192" height="192" viewBox="0 0 192 192" fill="none" xmlns="http://www.w3.org/2000/svg"><path d="m66 139 28 28 46-46M22 65c0 20.434 16.566 37 37 37 17.872 0 32.785-12.671 36.244-29.52l36.018-4.418 1.874 15.274c.309 3.674 1.965 7.066 4.603 9.43 2.639 2.365 6.044 3.508 9.467 3.178 3.423-.33 6.583-2.105 8.785-4.936 2.202-2.83 3.265-6.485 2.957-10.158l-2.128-15.922.516-.064c3.674-.309 7.066-1.965 9.43-4.603 2.365-2.639 3.508-6.044 3.178-9.467-.329-3.423-2.105-6.583-4.936-8.785s-6.485-3.265-10.158-2.956l-63.24 8.449C85.365 35.892 73.104 28 59 28c-20.434 0-37 16.566-37 37Z" stroke="#000" stroke-width="12" stroke-linecap="round" stroke-linejoin="round"/><circle cx="59" cy="65" r="5" stroke="#000" stroke-width="10" stroke-linecap="round" stroke-linejoin="round"/></svg>