<svg xmlns="http://www.w3.org/2000/svg" width="192" height="192" fill="none"><path stroke="#000" stroke-linecap="round" stroke-linejoin="round" stroke-width="12" d="M46 110V92a6 6 0 0 1 6-6h14a6 6 0 0 1 6 6v18m-26 0H28a6 6 0 0 0-6 6v14a6 6 0 0 0 6 6h18m0-26 26 26m0-26h18a6 6 0 0 1 6 6v14a6 6 0 0 1-6 6H72m0-26-26 26m0 0v18a6 6 0 0 0 6 6h14a6 6 0 0 0 6-6v-18m92-102h-62a6 6 0 0 0-6 6v40a6 6 0 0 0 6 6h62a6 6 0 0 0 6-6V40a6 6 0 0 0-6-6"/><path stroke="#000" stroke-linecap="round" stroke-linejoin="round" stroke-width="10" d="M121 66h24"/></svg>