<svg xmlns="http://www.w3.org/2000/svg" width="192" height="192" fill="none" viewBox="0 0 192 192"><path stroke="#000" stroke-linecap="round" stroke-linejoin="round" stroke-width="12" d="M45.183 30H35a6 6 0 0 0-6 6v54c0 54.306 54.887 75.844 65.304 79.443a5.17 5.17 0 0 0 3.392 0C108.113 165.844 163 144.306 163 90V36a6 6 0 0 0-6-6h-10.183a6 6 0 0 1-3.329-1.008l-8.976-5.984A6 6 0 0 0 131.183 22H60.817a6 6 0 0 0-3.328 1.008l-8.977 5.984A6 6 0 0 1 45.182 30Z"/><path stroke="#000" stroke-linecap="round" stroke-linejoin="round" stroke-width="12" d="M70 103V83a6 6 0 0 1 6-6h40a6 6 0 0 1 6 6v20m-8-26V66M78 77V66m18 31v10m18-41a18 18 0 0 0-5.272-12.728 18.005 18.005 0 0 0-19.616-3.902A18 18 0 0 0 78 66"/><path stroke="#000" stroke-linecap="round" stroke-linejoin="round" stroke-width="12" d="M70 103a26 26 0 1 0 52 0"/></svg>