<svg xmlns="http://www.w3.org/2000/svg" width="192" height="192" viewBox="0 0 50.8 50.8" fill="none" stroke="#000" stroke-linecap="round" stroke-linejoin="round"><path stroke-width="3.175" d="m34.587 14.83.36-9.01m-19.095 0 .36 9.01m27.524 0 .72-9.01H6.344l.72 9.01m1.688 21.14.72 9.01h31.855l.719-9.01"/><path stroke-width="1.587" d="m45.47 21.517.303-1.464a10.261 10.261 0 0 0-3.357-.55c-4.25 0-7.564 1.691-8.116 5.694-.573 4.161 2.46 6.109 6.413 6.1 1.662 0 3.231-.415 4.726-.922-6.129 1.607-8.792-1.938-8.358-5.119.465-3.429 3.689-6.267 8.692-5.203m-18.344-.541L24.84 31.297m1.178-5.356h3.615m-22.375-6.42h5.238m-4.02-.018L5.994 31.297m-.968 0h5.047m-.163-4.95 8.976-6.827m-7.882 5.99 2.688 4.112c.627.964 1.27 1.675 2.013 1.675h4.084c-1.461 0-2.31-1.4-3.366-2.902a687.754 687.754 0 0 1-3.159-4.57m-1.851-4.313L8.826 31.297m7.268-11.777h4.633m12.136 1.577.285-1.594H23.39m1.1 0-2.472 11.794h3.783"/></svg>