<?xml version="1.0" encoding="UTF-8"?>
<svg id="Layer_1" data-name="Layer 1" xmlns="http://www.w3.org/2000/svg" viewBox="0 0 192 192">
  <defs>
    <style>
      .cls-1 {
        stroke-width: 10px;
      }

      .cls-1, .cls-2 {
        fill: none;
        stroke: #000;
        stroke-linecap: round;
        stroke-linejoin: round;
      }

      .cls-2 {
        stroke-width: 12px;
      }
    </style>
  </defs>
  <path class="cls-2" d="m130.72,55.05l1.36-33.05m-72.17,0l1.36,33.05m104.03,0l2.72-33.05H23.98l2.72,33.05m6.38,82.9l2.72,32.05h120.4l2.72-32.05"/>
  <path class="cls-1" d="m169.25,83.62l1.75-8.47c-3.57-1.44-7.33-2.16-11.1-2.15-14.06,0-25.02,6.6-26.85,22.21-1.9,16.23,8.14,23.83,21.21,23.79,5.5,0,10.69-1.62,15.63-3.6"/>
  <line class="cls-1" x1="95.34" y1="98.04" x2="113" y2="98.04"/>
  <line class="cls-1" x1="29" y1="73" x2="45" y2="73"/>
  <line class="cls-1" x1="21" y1="119" x2="36" y2="119"/>
  <line class="cls-1" x1="32" y1="106" x2="69" y2="74"/>
  <path class="cls-1" d="m44,97l8.96,14.67c2.37,3.64,5.04,6.33,8.61,6.33h7.44"/>
  <line class="cls-1" x1="38" y1="74" x2="28.36" y2="118.29"/>
  <line class="cls-1" x1="59" y1="73" x2="75" y2="73"/>
  <polyline class="cls-1" points="122.64 80.29 123.93 73 88 73"/>
  <line class="cls-1" x1="97.56" y1="73.71" x2="88.22" y2="119.29"/>
</svg>