<svg xmlns="http://www.w3.org/2000/svg" width="192" height="192" fill="none" viewBox="0 0 192 192"><path stroke="#000" stroke-linecap="round" stroke-linejoin="round" stroke-width="8" d="M50 117a4 4 0 1 0 0-8 4 4 0 0 0 0 8m92 0a4 4 0 1 0 0-8 4 4 0 0 0 0 8"/><path stroke="#000" stroke-linecap="round" stroke-linejoin="round" stroke-width="12" d="M154 88H38c-8.837 0-16 7.163-16 16v18c0 8.837 7.163 16 16 16h116c8.837 0 16-7.163 16-16v-18c0-8.837-7.163-16-16-16M36 138v18a6 6 0 0 0 6 6h10a6 6 0 0 0 6-6v-18m76 0v18c0 1.591.632 3.117 1.757 4.243A6 6 0 0 0 140 162h10a6 6 0 0 0 4.243-1.757A6 6 0 0 0 156 156v-18m0-50-10.517-46.113A14 14 0 0 0 131.833 31H60.167a14 14 0 0 0-13.65 10.887L36 88"/></svg>