<?xml version="1.0" encoding="UTF-8" standalone="no"?>
<!-- Created with Inkscape (http://www.inkscape.org/) -->

<svg
   width="192"
   height="192"
   viewBox="0 0 192 192"
   version="1.1"
   id="svg5"
   xmlns="http://www.w3.org/2000/svg"
   xmlns:svg="http://www.w3.org/2000/svg"
   xmlns:rdf="http://www.w3.org/1999/02/22-rdf-syntax-ns#"
   xmlns:cc="http://creativecommons.org/ns#">
  <defs
     id="defs2" />
  <g
     id="layer1">
    <path
       id="rect1014"
       style="opacity:1;fill:none;stroke:#000000;stroke-width:12;stroke-linejoin:round;stroke-miterlimit:4;stroke-dasharray:none"
       d="M 47.7343,111.18189 150.75504,82.998856 170.00018,136.59044 66.979443,164.77349 Z" />
    <ellipse
       style="opacity:1;fill:none;stroke:#000000;stroke-width:12;stroke-linejoin:round;stroke-miterlimit:4;stroke-dasharray:none"
       id="path11820"
       cx="136.83101"
       cy="109.20076"
       rx="5.0036311"
       ry="5.0035896" />
    <path
       style="fill:none;stroke:#000000;stroke-width:12;stroke-linecap:round;stroke-linejoin:miter;stroke-miterlimit:4;stroke-dasharray:none;stroke-opacity:1"
       d="m 142.09811,127.10513 -39.01314,10.6727"
       id="path12039" />
    <path
       style="fill:#000000;fill-opacity:1;stroke:#000000;stroke-width:2;stroke-linecap:butt;stroke-linejoin:miter;stroke-miterlimit:4;stroke-dasharray:none;stroke-opacity:1"
       d="m 84.628373,134.26277 c 0,0 -10.472268,-0.0525 -10.654047,10.92113 -0.05827,3.51716 5.83097,6.80781 12.151967,1.14754 3.028962,-2.71232 4.543657,-7.58801 1.273493,-13.30121 -2.913825,-5.09064 -4.254514,-13.64492 -4.254514,-13.64492 0,0 6.898162,-2.16721 13.473083,8.22815 0.588405,0.93033 1.069981,0.45581 -0.01107,-1.41666 0,0 -9.406799,-17.73575 -17.80055,-11.34941 -1.539403,1.17127 5.821659,19.41538 5.821659,19.41538 z"
       id="path12754" />
    <path
       style="color:#000000;fill:#000000;stroke-linejoin:round;-inkscape-stroke:none"
       d="M 52.291016,31.243534 20.398437,71.292362 c -3.988548,5.008684 -5.104323,11.442013 -3.990234,17.451172 1.114089,6.009158 4.741243,11.971286 11.013672,15.025386 l 8.73693,4.25383 c 1.576989,-5.19316 5.061889,-7.39488 9.508992,-8.716714 L 32.675781,92.979862 c -2.390226,-1.163824 -3.927069,-3.50212 -4.46875,-6.423828 -0.54168,-2.921709 0.194374,-6.051395 1.578125,-7.789063 L 61.677734,38.718143 Z"
       id="path2450" />
    <path
       style="color:#000000;opacity:1;fill:#000000;stroke-linejoin:round;-inkscape-stroke:none"
       d="m 66.174719,22.006668 c -10.514432,2.719194 -17.608457,11.959891 -20.998787,23.137175 -3.39033,11.177285 -3.480865,24.786861 0.134308,38.765581 1.410424,5.216105 2.947337,9.603345 4.998937,14.126842 L 116.83363,79.836826 C 116.42526,75.241111 115.47235,70.076473 114.4364,66.032333 110.82122,52.053612 104.14393,40.1943 95.759785,32.062078 87.375632,23.929856 76.689151,19.287473 66.174719,22.006668 Z m 3.004584,11.617765 c 5.366057,-1.387745 11.788012,0.80695 18.224651,7.050181 6.436637,6.24323 12.294566,16.297836 15.414666,28.362256 1.21864,4.891205 1.91551,9.368894 2.18831,14.035449 L 62.099247,94.810793 C 59.871314,90.346018 58.084269,85.331765 56.928017,80.904888 53.80792,68.840468 54.056769,57.206554 56.659576,48.625585 59.262385,40.044614 63.813245,35.012179 69.179303,33.624433 Z"
       id="path3904" />
    <path
       style="color:#000000;opacity:1;fill:#000000;stroke-linejoin:round;-inkscape-stroke:none"
       d="m 63.071624,57.552536 c -5.272427,1.363531 -8.28064,6.001922 -9.526469,10.591725 -1.245828,4.589803 -1.137922,9.765876 0.236249,15.079357 1.259777,4.662435 3.225973,8.769128 6.093359,12.195741 l 24.426503,-6.68248 C 85.126545,84.376398 84.650839,79.466873 83.642723,75.501019 82.268552,70.187538 79.853499,65.60813 76.538674,62.197782 73.223848,58.787434 68.34405,56.189005 63.071624,57.552536 Z m 3.004583,11.617765 c -0.234532,0.06065 0.373859,-0.13766 1.858278,1.389535 1.484418,1.527194 3.179128,4.421889 4.090461,7.94572 0.911332,3.523832 0.832003,6.875304 0.274108,8.930676 -0.557899,2.055363 -1.185664,2.178762 -0.951132,2.118108 0.234531,-0.06065 -0.372462,0.135265 -1.856876,-1.391914 -1.484419,-1.527198 -3.180532,-4.419513 -4.091864,-7.943345 -0.911332,-3.523831 -0.830602,-6.877683 -0.272705,-8.933051 0.557896,-2.055369 1.184261,-2.176382 0.94973,-2.115729 z"
       id="path5921" />
    <path
       style="opacity:1;fill:none;fill-opacity:1;stroke:#000000;stroke-width:12;stroke-linejoin:miter;stroke-miterlimit:4;stroke-dasharray:none;stroke-opacity:1"
       d="m 105.68664,58.306684 c 0,0 56.011,-21.639906 30.81049,13.774295 0,0 34.49924,1.621712 -2.67793,37.487531"
       id="path6802" />
  </g>
  <metadata
     id="metadata824">
    <rdf:RDF>
      <cc:Work
         rdf:about="" />
    </rdf:RDF>
  </metadata>
</svg>
