<?xml version="1.0" encoding="UTF-8" standalone="no"?>
<!-- Created with Inkscape (http://www.inkscape.org/) -->

<svg
   width="192"
   height="192"
   viewBox="0 0 192 192"
   version="1.1"
   id="svg5"
   xmlns="http://www.w3.org/2000/svg"
   xmlns:svg="http://www.w3.org/2000/svg"
   xmlns:rdf="http://www.w3.org/1999/02/22-rdf-syntax-ns#"
   xmlns:cc="http://creativecommons.org/ns#">
  <defs
     id="defs2" />
  <g
     id="layer1">
    <path
       id="rect1014"
       style="opacity:1;fill:none;stroke:#000000;stroke-width:12.0264;stroke-linejoin:round;stroke-miterlimit:4;stroke-dasharray:none"
       d="M 47.541137,111.20361 150.71352,82.978854 169.98699,136.64977 66.814608,164.87454 Z" />
    <path
       style="color:#000000;fill:#000000;stroke-width:1.0022;stroke-linejoin:round;-inkscape-stroke:none"
       d="m 116.9618,79.744756 c -0.43007,-4.327765 -1.22175,-8.69041 -2.27615,-12.857477 C 111.08375,52.6859 104.41491,40.611813 96.029494,32.299659 89.740432,26.065543 82.141841,21.797799 74.268851,21.187382 71.644522,20.983911 68.9906,21.187331 66.343255,21.858778 55.75388,24.544567 48.630924,33.881479 45.220731,45.185358 c -3.410193,11.303879 -3.517739,25.097747 0.08416,39.299131 1.160663,4.669063 2.790699,9.305458 4.643978,13.592227 M 62.062996,94.762794 56.961339,81.526827 C 53.83986,69.219633 54.104368,57.377228 56.734279,48.659779 59.364188,39.942331 63.948067,34.872368 69.29896,33.515217 c 1.337724,-0.339287 2.744835,-0.451048 4.202582,-0.328846 4.373244,0.366606 9.210084,2.845821 14.060151,7.653513 6.466757,6.410257 12.346054,16.695906 15.467537,29.0031 1.09616,4.394215 1.84485,8.929531 2.11297,13.135127"
       id="path2480" />
    <path
       style="color:#000000;fill:#000000;stroke-width:1.0022;stroke-linejoin:round;-inkscape-stroke:none"
       d="M 62.939411,57.243504 C 52.047447,61.40259 51.32503,74.348238 53.477814,83.14097 c 1.11502,4.573078 3.143812,8.651935 6.05171,12.31488 L 84.250609,88.693182 C 85.082878,84.343099 84.608471,79.768027 83.600062,75.501051 80.88172,65.65841 72.679131,55.038045 62.939411,57.243504 Z m 2.956643,11.657288 c 2.688509,1.573615 5.169531,6.229232 6.046721,9.556902 0.78742,3.646449 1.047586,8.586805 -0.760952,11.283534 -2.688515,-1.573622 -5.169532,-6.229235 -6.046721,-9.556901 -0.787422,-3.646451 -1.047584,-8.586802 0.760952,-11.283535 z"
       id="path2480-3" />
    <path
       style="color:#000000;fill:#000000;stroke-width:1.0022;stroke-linejoin:round;-inkscape-stroke:none"
       d="m 52.253743,31.287672 -31.93923,40.109504 c -8.119419,11.998796 -4.222129,26.773971 7.034969,32.530374 l 8.572633,4.17395 c 1.241409,-3.72418 3.285307,-7.11231 9.453068,-8.773611 l -12.76024,-6.213133 c -5.302111,-2.9144 -6.311419,-9.751131 -2.893067,-14.226532 L 61.661105,38.780678 Z"
       id="path5110" />
    <circle
       style="opacity:1;fill:none;stroke:#000000;stroke-width:12.0264;stroke-linejoin:round;stroke-miterlimit:4;stroke-dasharray:none"
       id="path11820"
       cx="136.769"
       cy="109.21954"
       r="5.0109963" />
    <path
       style="fill:none;stroke:#000000;stroke-width:12.0264;stroke-linecap:round;stroke-linejoin:miter;stroke-miterlimit:4;stroke-dasharray:none;stroke-opacity:1"
       d="m 142.04385,127.15042 -39.07057,10.68849"
       id="path12039" />
    <path
       style="fill:#000000;fill-opacity:1;stroke:#000000;stroke-width:2.0044;stroke-linecap:butt;stroke-linejoin:miter;stroke-miterlimit:4;stroke-dasharray:none;stroke-opacity:1"
       d="m 84.489516,134.31865 c 0,0 -10.487682,-0.0526 -10.669729,10.9373 -0.05836,3.52236 5.839553,6.81788 12.169854,1.14924 3.033421,-2.71634 4.550345,-7.59925 1.275368,-13.3209 -2.918114,-5.09818 -4.260777,-13.66512 -4.260777,-13.66512 0,0 6.908316,-2.17042 13.492915,8.24033 0.589271,0.93171 1.071556,0.45648 -0.01109,-1.41876 0,0 -9.420645,-17.762 -17.826751,-11.36621 -1.541669,1.17301 5.830228,19.44412 5.830228,19.44412 z"
       id="path12754" />
    <path
       style="color:#000000;fill:#000000;stroke-width:1.0022;-inkscape-stroke:none"
       d="m 135.41476,46.259982 c -1.5554,-0.108935 -3.12266,-0.08347 -4.70368,0.0078 -12.64823,0.730445 -27.21598,6.342043 -27.21598,6.342043 l 4.16735,11.280614 c 0,0 14.3606,-5.073969 23.74351,-5.615839 2.34573,-0.135467 4.31936,0.04904 5.3281,0.338633 1.00874,0.2896 0.70432,0.315509 0.57743,0.04502 -0.12689,-0.270488 0.23185,0.236323 -0.51871,2.378266 -0.75056,2.141942 -2.56336,5.534469 -5.79592,9.94761 -1.64502,2.245805 -3.5532,4.22596 -4.68302,6.20228 l 6.13121,-1.677245 c 0.97411,0.398046 6.01506,0.305672 8.89286,5.978484 0.50517,0.995803 1.01576,1.045292 1.15879,1.763636 0.28608,1.436689 -0.59661,5.145351 -2.95961,9.154855 -4.72601,8.019001 -13.49837,16.270081 -13.49837,16.270081 l 8.1409,8.8534 c 0,0 9.60863,-8.6499 15.71809,-19.016329 3.05474,-5.183219 5.70284,-11.037847 4.39441,-17.608954 -0.65421,-3.285553 -2.5923,-6.548364 -5.48274,-8.839712 -0.91881,-0.728382 -2.04575,-1.237465 -3.11817,-1.802784 0.98584,-1.815569 1.86549,-3.579722 2.45069,-5.249801 1.36592,-3.898032 1.7301,-7.899791 0.0587,-11.462654 -1.67137,-3.562863 -5.06963,-5.613256 -8.14679,-6.496679 -1.53858,-0.441711 -3.08369,-0.683821 -4.63908,-0.792755 z"
       id="path18456" />
  </g>
  <metadata
     id="metadata824">
    <rdf:RDF>
      <cc:Work
         rdf:about="" />
    </rdf:RDF>
  </metadata>
</svg>
