<svg width="192" height="192" viewBox="0 0 192 192" fill="none" xmlns="http://www.w3.org/2000/svg">
<g clip-path="url(#clip0_917_1312)">
<path d="M26.3277 113.399H60.0196C63.3333 113.399 66.0196 116.086 66.0196 119.399V163.907C66.0196 167.22 63.3333 169.907 60.0196 169.907H38.204C36.9828 170.194 25.6697 156.159 26.3277 157.107C27.1245 158.254 26.0092 86.1352 26.0092 86.1352C26.0092 50.7125 57.3352 21.9968 95.9778 21.9968C134.62 21.9968 165.946 50.7125 165.992 86.1349C165.992 86.1349 164.922 158.253 165.718 157.106C166.376 156.159 155.063 170.193 153.842 169.906H132.026C128.713 169.906 126.026 167.22 126.026 163.906V119.399C126.026 116.085 128.713 113.399 132.026 113.399H165.718" stroke="black" stroke-width="12" stroke-linecap="round" stroke-linejoin="round"/>
</g>
<defs>
<clipPath id="clip0_917_1312">
<rect width="192" height="192" fill="white"/>
</clipPath>
</defs>
</svg>
