<svg xmlns="http://www.w3.org/2000/svg" width="192" height="192" fill="none"><path stroke="#000" stroke-linecap="round" stroke-linejoin="round" stroke-width="12" d="M166 86c0-8.405-1.811-16.727-5.328-24.492s-8.674-14.82-15.175-20.763c-6.5-5.943-14.216-10.657-22.709-13.873C114.295 23.655 105.193 22 96 22c-9.192 0-18.295 1.655-26.788 4.872s-16.21 7.93-22.71 13.873-11.656 12.998-15.174 20.763S26 77.595 26 86m0 28h34a6 6 0 0 1 6 6v44a6 6 0 0 1-6 6H40.485a6 6 0 0 1-4.242-1.757l-8.486-8.486A6 6 0 0 1 26 155.515zm140 0h-34a6 6 0 0 0-6 6v44a6 6 0 0 0 6 6h19.515a6 6 0 0 0 4.242-1.757l8.486-8.486a6 6 0 0 0 1.757-4.242zM26 86v28m140-28v28"/></svg>