<?xml version="1.0" encoding="UTF-8" standalone="no"?>
<svg
   width="192"
   height="192"
   viewBox="0 0 192 192"
   fill="none"
   version="1.1"
   id="svg4"
   xml:space="preserve"
   xmlns="http://www.w3.org/2000/svg"
   xmlns:svg="http://www.w3.org/2000/svg"><defs
     id="defs4"><linearGradient
       id="swatch5"><stop
         style="stop-color:#ff9900;stop-opacity:1;"
         offset="0"
         id="stop5" /></linearGradient><linearGradient
       id="swatch4"><stop
         style="stop-color:#3b8aff;stop-opacity:1;"
         offset="0"
         id="stop4" /></linearGradient></defs><g
     id="layer2"><path
       id="path3-1"
       style="stroke:#000000;stroke-width:9.26629;stroke-linecap:round;stroke-linejoin:round"
       transform="matrix(-1.2957156,0,0,1.2943183,220.41195,-16.475607)"
       d="M 149.78922,100.34243 H 119.156 v 43.658 h 21.46733 c 0.94254,0.22177 9.6737,-10.62128 9.16589,-9.88945 -0.61496,0.88625 0.2458,-54.833124 0.2458,-54.833124 0,-27.367815 -24.17662,-49.553813 -54.000002,-49.553814 -29.823378,-2e-6 -54.000008,22.185997 -54.034914,49.5536 0,0 0.599772,40.465568 0.396466,51.878848 -0.02911,1.63444 0.664983,3.94494 1.701654,5.17784 1.389854,1.65294 3.287169,3.88186 4.807404,5.51069 C 50.141216,143.16888 52.861701,144 54.693315,144 H 72.844222 V 100.342 H 42.211" /></g></svg>
