<svg xmlns="http://www.w3.org/2000/svg" width="192" height="192" fill="none"><path stroke="#000" stroke-linecap="round" stroke-linejoin="round" stroke-width="12" d="M39.81 53.803A6 6 0 0 1 45.806 48h100.387a6 6 0 0 1 5.997 5.803l3.607 110A6 6 0 0 1 149.8 170H42.2a6 6 0 0 1-5.997-6.197zM83 87v46"/><path stroke="#000" stroke-linecap="round" stroke-linejoin="round" stroke-width="12" d="m113 87-19 23 19 23m17-85c0-6.896-3.582-13.509-9.958-18.385C113.665 24.74 105.017 22 96 22s-17.665 2.74-24.042 7.615C65.582 34.491 62 41.105 62 48"/></svg>