<?xml version="1.0" encoding="UTF-8"?>
<svg id="Layer_1" xmlns="http://www.w3.org/2000/svg" version="1.1" viewBox="0 0 192 192">
  <!-- Generator: Adobe Illustrator 29.0.0, SVG Export Plug-In . SVG Version: 2.1.0 Build 186)  -->
  <defs>
    <style>
      .st0 {
        fill: #231f20;
      }
    </style>
  </defs>
  <rect class="st0" x="68.7" y="20" width="2.3" height="152.7"/>
  <rect class="st0" x="121" y="19" width="2.3" height="154"/>
  <rect class="st0" x="28.2" y="121.1" width="135.6" height="2.4"/>
  <rect class="st0" x="28.2" y="65.7" width="135.6" height="2.4"/>
  <path class="st0" d="M51.6,62.4h-1c-1.6,0-2.9-1.4-2.9-3.1v-28.2l-2.5,1.4c-.8.5-1.7.5-2.5.1-.8-.4-1.4-1.1-1.7-2.1h0v-.2c-.3-1.3.3-2.7,1.5-3.3l6-3.4c.4-.2.9-.4,1.4-.4h1.8c1.6,0,2.9,1.4,2.9,3.1v33c0,1.7-1.3,3.1-2.9,3.1ZM48.5,27.9h1.5v31.4c0,.4.3.6.6.6h1c.3,0,.6-.3.6-.6V26.4c0-.4-.3-.6-.6-.6h-1.8c0,0-.2,0-.3,0l-6,3.4c-.2.1-.4.4-.3.7v.2c.1.2.3.3.4.3.1,0,.3.1.5,0l4.3-2.5Z"/>
  <path class="st0" d="M105.3,62.4h-18.6c-1.6,0-2.9-1.4-2.9-3.1v-.4c0-.8.3-1.6.9-2.2l3.2-3.2c8.8-8.9,12.5-13.4,12.5-18.3,0-2.7-1-5.9-5.7-5.9s-3.4.6-5.1,1.7c-.7.5-1.6.6-2.4.3-.8-.3-1.5-.9-1.8-1.7h0c-.6-1.5-.1-3.1,1.1-3.9,2.7-1.9,5.9-3,9.2-3,8.1,0,11.7,6,11.7,11.9s-5.1,13.2-12.3,20.6l-.7.7h11c1.6,0,2.9,1.4,2.9,3.1v.4c0,1.7-1.3,3.1-2.9,3.1ZM94.6,26.8c5,0,8,3.1,8,8.4,0,6.1-4.3,11-13.3,20.1l-3.1,3.2c-.1.1-.2.3-.2.5v.4c0,.4.3.6.6.6h18.6c.3,0,.6-.3.6-.6v-.4c0-.4-.3-.6-.6-.6h-15v-1.9l3.1-3.1c6.8-6.9,11.6-12.3,11.6-18.8s-2.5-9.5-9.5-9.5-6.3,1.4-7.9,2.6c-.3.2-.4.5-.2.8h0c0,.3.3.4.4.4,0,0,.3,0,.5,0,2.1-1.3,4.2-2,6.3-2Z"/>
  <path class="st0" d="M141.7,62.4c-2.8,0-5.7-.6-8-1.8-1.4-.7-2.1-2.3-1.5-3.8v-.3c.4-.8.9-1.4,1.7-1.8.7-.3,1.6-.3,2.3,0,1.1.5,3.2,1.3,5.5,1.3s4.1-.6,5.2-1.9c.9-1,1.5-2.5,1.5-4,0-4.5-4.1-6.1-7.8-6.1h-.8c-1.6,0-2.9-1.4-2.9-3.1s1.3-3.1,2.9-3.1h.8c2.6,0,6.6-1.3,6.6-5s-.6-4.3-4.9-4.3-3.2.4-4.7,1.2c-.7.4-1.6.4-2.4,0-.8-.3-1.4-1-1.6-1.8h0c-.5-1.6.1-3.2,1.4-3.9,2.4-1.3,5.4-2.1,8.3-2.1,7.6,0,11.1,5,11.1,10s-1.6,6.5-4.6,8.5c3.7,1.8,5.9,5.4,5.9,9.7s-1.3,6.4-3.6,8.6c-2.5,2.4-6,3.6-10.2,3.6ZM134.4,57.2v.4c-.2.3-.1.7.2.8,2.1,1,4.6,1.6,7.1,1.6,7.9,0,11.5-4.9,11.5-9.8s-2.7-7.4-6.8-8.2l-.9-.2v-2l.8-.3c3.6-1.4,5.6-4.1,5.6-7.5s-2.3-7.5-8.8-7.5-5.1.7-7.2,1.8c-.3.2-.4.5-.3.8h0c0,.3.2.4.3.5,0,0,.3,0,.5,0,1.3-.7,3.4-1.5,5.7-1.5,5.3,0,7.2,3.5,7.2,6.7,0,4.9-4.5,7.4-8.9,7.4h-.8c-.3,0-.6.3-.6.6s.3.6.6.6h.8c6.1,0,10,3.4,10.1,8.5,0,2.2-.7,4.2-2.1,5.7-1.6,1.7-4,2.6-6.9,2.6s-5.2-.9-6.4-1.5c-.2-.1-.4,0-.5,0,0,0-.2.1-.3.3Z"/>
  <path class="st0" d="M149.8,113.7h-.9c-1,0-1.9-.5-2.4-1.4l-.5.3v-2s0-6.3,0-6.3c0-.4-.3-.6-.6-.6h-12.6c-1.6,0-2.9-1.4-2.9-3.1v-.8c0-.6.2-1.2.5-1.8l14.6-22.2c.5-.8,1.4-1.3,2.4-1.3h2.4c1.6,0,2.9,1.4,2.9,3.1v19.1c0,.4.3.6.6.6h1.3c1.6,0,2.9,1.4,2.9,3.1v.2c0,1.7-1.3,3.1-2.9,3.1h-1.3c-.3,0-.6.3-.6.6v6.3c0,1.7-1.3,3.1-2.9,3.1ZM148.3,108.7v2c0,.4.3.6.6.6h.9c.3,0,.6-.3.6-.6v-6.3c0-1.7,1.3-3.1,2.9-3.1h1.3c.3,0,.6-.3.6-.6v-.2c0-.4-.3-.6-.6-.6h-1.3c-1.6,0-2.9-1.4-2.9-3.1v-19.1c0-.4-.3-.6-.6-.6h-2.4c-.2,0-.4.1-.5.3l-14.6,22.1c0,.1-.1.2-.1.4v.8c0,.4.3.6.6.6h12.6c1.6,0,2.9,1.4,2.9,3.1v4.3h0ZM145.4,99.8h-10.7v-1.7l8.7-12.8c.9-1.6,1.8-3.2,2.8-5.3l.3-.7h2.1v1.3c-.2,1.9-.2,3.9-.2,5.7v10.4c0,1.7-1.3,3.1-2.9,3.1ZM137.9,97.4h7.5c.3,0,.5-.3.5-.6v-10.4c0-.4,0-.7,0-1.1-.2.4-.5.9-.7,1.3,0,0-.1.2-.2.2l-7.2,10.6Z"/>
  <path class="st0" d="M141.4,166.7c-3.7,0-6.4-1-7.6-1.6-1.4-.6-2.1-2.3-1.6-3.8v-.3c.3-.8.9-1.5,1.6-1.8.7-.4,1.5-.4,2.3,0,1,.4,3,1.1,5.3,1.1,3.5,0,7.1-2.3,7.1-6.7,0-5.7-4.8-6.9-8.8-6.9s-1.7,0-2.5.1c-.9,0-1.7-.3-2.4-.9-.6-.7-.9-1.6-.8-2.5l1.7-13.6c.2-1.5,1.4-2.7,2.9-2.7h13.3c1.6,0,2.9,1.4,2.9,3.1v.4c0,1.5-1,2.8-2.4,3h0c0,0-.5,0-.5,0h-9.9c-.3,0-.6.2-.6.6l-.8,5.5c0,.3,0,.4.1.5,0,0,.2.2.5.2h0c0,0,.2,0,.3,0,.1,0,.3,0,.4,0,3.1,0,5.8.7,8.1,2.2,3.5,2.1,5.5,5.9,5.5,10.5s-1.4,7.3-4,9.8c-2.6,2.5-6.1,3.9-10,3.9ZM135,161.3c-.1,0-.2,0-.3,0,0,0-.3.2-.3.4v.3c-.2.3,0,.7.3.8,1.9.9,4.4,1.4,6.7,1.4,6.8,0,11.8-4.8,11.8-11.3s-1.6-6.7-4.4-8.4c-1.9-1.2-4.3-1.8-6.9-1.8s-.2,0-.3,0c-.1,0-.2,0-.3,0-.9,0-1.7-.3-2.2-1-.6-.7-.8-1.6-.7-2.5l.8-5.5c.2-1.5,1.4-2.6,2.9-2.6h9.5s.5,0,.5,0c.3,0,.6-.3.6-.6v-.4c0-.4-.3-.6-.6-.6h-13.3c-.3,0-.6.2-.6.6l-1.7,13.6c0,.3,0,.5.2.5,0,0,.2.2.5.2.9,0,1.8-.1,2.7-.1,7,0,11,3.4,11.1,9.3,0,5.3-3.9,9.2-9.4,9.2s-4.8-.7-6.1-1.3c0,0-.2,0-.2,0Z"/>
  <path class="st0" d="M96,166.7c-8,0-13.4-6.8-13.4-16.8s2.2-13.2,6.2-17.4c3-3.2,7.1-5.2,11.7-5.8.5,0,1-.2,1.6-.2.8,0,1.6.2,2.2.8.6.6.9,1.4.9,2.3v.3c0,1.6-1.2,3-2.7,3.1-.6,0-1.2.1-1.8.2-4.9.9-8.5,3.9-10.2,8.4,1.9-1.3,4.1-2,6.5-2,6.8,0,11.6,5.4,11.6,13.1s-4.4,14.1-12.7,14.1ZM102.4,128.9s0,0,0,0c-.5,0-1,.1-1.4.2h0c-4.1.5-7.7,2.3-10.4,5.1-3.6,3.8-5.5,9.3-5.5,15.7s4.5,14.4,11.1,14.4,10.4-5.9,10.4-11.7-3.7-10.6-9.3-10.6-5.8,1.4-7.4,3.7l-.3.5h-2.1l.2-1.4c.8-5.8,4.6-12.6,13-14.1.7-.1,1.3-.2,2-.2.3,0,.5-.3.5-.6v-.3c0-.2-.1-.4-.2-.5,0,0-.2-.2-.4-.2ZM96,162.8c-5.3,0-8.6-4.5-8.8-11.7,0-1.1.2-2,.7-2.8,1.5-3.1,4.5-5.1,7.7-5.1,5,0,8.3,3.8,8.3,9.6s-3.3,10-7.9,10ZM95.7,145.6c-2.3,0-4.6,1.5-5.7,3.9h0c-.2.4-.4.9-.4,1.7,0,2.2.6,9.3,6.5,9.3s5.6-3,5.6-7.6-2.2-7.2-6-7.2Z"/>
  <path class="st0" d="M42.5,166.7h-.9c-1,0-1.9-.5-2.5-1.4-.5-.9-.6-2-.1-3l13-28.1h-13.4c-1.6,0-2.9-1.4-2.9-3.1v-.4c0-1.7,1.3-3.1,2.9-3.1h18.3c1.6,0,2.9,1.4,2.9,3.1v1c0,.5,0,.9-.3,1.3l-14.4,32c-.5,1.1-1.5,1.8-2.6,1.8ZM38.6,130c-.3,0-.6.3-.6.6v.4c0,.4.3.6.6.6h16.3v1.6l-13.9,30c-.1.3,0,.5,0,.6,0,0,.2.3.5.3h.9c.2,0,.4-.1.6-.4l14.4-32c0,0,0-.2,0-.3v-1c0-.4-.3-.6-.6-.6h-18.3Z"/>
  <path class="st0" d="M47.7,114c-8.4,0-12.8-5.6-12.8-11.1s2-7.7,5.7-10c-2.8-2-4.4-4.9-4.4-8.3,0-6.4,5-11,11.9-11s11.2,5.3,11.2,10.2-.6,5.8-4.5,8.6c3.7,2.2,5.8,5.6,5.8,9.7,0,6.9-5.4,11.9-12.9,11.9ZM48.1,76.1c-5.5,0-9.6,3.6-9.6,8.6s1.7,5.6,4.8,7.1l.4.2.6,1.7-1,.4c-4.1,1.8-6.2,4.8-6.2,8.7s4.3,8.7,10.5,8.7,10.6-4,10.6-9.5-3.4-7.2-6.3-8.4l-.7-.3v-1.8l.7-.3c4.2-2.1,5-5.2,5-7.5,0-3.8-2.8-7.8-8.9-7.8ZM47.8,110.4c-2.4,0-4.6-.9-6.1-2.6-1.4-1.5-2.1-3.5-2-5.7,0-4,2.4-7.1,6.5-8.5.6-.2,1.2-.2,1.7,0,3.1,1,6.5,2.6,7.6,6.4l.3-.4v2.9c0,4.6-3.2,7.8-8.1,7.8ZM47.1,95.9c0,0-.1,0-.2,0-3.2,1.1-4.9,3.3-4.9,6.2h0c0,1.5.4,2.9,1.4,4,1.1,1.2,2.6,1.8,4.4,1.8,3.4,0,5.6-1.9,5.8-5v-.3c0-3.3-1.8-5.2-6.3-6.7,0,0-.1,0-.2,0ZM48.3,92.2c-.3,0-.5,0-.8-.1-4.6-1.4-6.9-4-6.9-7.8h0c0-4.2,3-7.1,7.2-7.1s7,3.6,7,7.2-2,6.1-5.5,7.6c-.3.1-.7.2-1,.2ZM43,84.3c0,1.8.6,4,5.2,5.4.1,0,.3,0,.4,0,1.5-.6,4-2.1,4-5.3s-.3-4.8-4.7-4.8-4.9,2.5-4.9,4.7Z"/>
</svg>