<svg xmlns="http://www.w3.org/2000/svg" width="192" height="192" fill="none" viewBox="0 0 192 192"><path stroke="#000" stroke-linejoin="round" stroke-width="12" d="M160.299 165.633c-14.371-2.01-30.551-11.356-33.164-26.933-2.613-10.753-12.261-20.602-16.682-31.254 4.924-6.03 12.16-8.341 18.29-12.964 2.914-10.552 8.944-19.296 16.783-27.134.904-1.005.502-1.91-.804-1.91-3.819.302-8.643-1.407-11.859 1.005-5.829 7.136-12.26 13.869-17.587 21.406.905.201 1.608.301 2.814.603-4.02 7.236-12.863 8.442-19.295 12.863-2.914 2.111-3.718-1.004-6.532-1.306 4.02-2.814-1.508-5.728-3.216-8.04-6.934-7.034-9.648-15.476-14.572-24.018 15.677 3.517 8.743 6.733 19.195-6.13 5.929-.604-2.714-11.357 5.828-10.854 2.01-2.613 4.724-7.739 2.312-11.256-4.221-5.728-7.839-16.18-15.879-16.682-20.802-6.13-33.867 16.481-26.028 32.26l-.402.602c.804.503 1.507.904 2.311 1.407-.402 1.005-.804 2.11-1.306 3.216-2.714-.905-5.528-2.513-6.834 1.206-6.331 8.14-15.275 13.868-18.09 24.521-6.833 17.285-1.808 35.576-1.708 53.464 1.206 2.111 4.723.603 6.733 1.005-.602.302-1.306.804-2.31 1.307 1.708 2.411 3.315 4.622 4.722 6.632 32.561 9.045 26.029 8.342 56.48-17.285l6.13 7.537c2.412 3.015 4.02 14.271 9.547 8.844 3.618 5.326 9.648 9.246 8.04 16.381 17.687 1.909 42.007 11.456 36.982 1.206zm-85.824-49.042c-2.613-2.412.703-7.537.703-11.055 3.618 1.005 4.02 7.035 9.145 5.327-3.215 1.909-6.431 3.919-9.748 5.728z"/></svg>