<?xml version="1.0" encoding="UTF-8" standalone="no"?>
<svg
   width="192"
   height="192"
   viewBox="0 0 192 192"
   fill="none"
   version="1.1"
   id="svg1011"
   xml:space="preserve"
   xmlns="http://www.w3.org/2000/svg"
   xmlns:svg="http://www.w3.org/2000/svg"><defs
     id="defs1009"><clipPath
       id="a"><path
         fill="#fff"
         d="M0 0h192v192H0z"
         id="path1006" /></clipPath></defs><path
     style="display:inline;fill:none;stroke:#000000;stroke-width:8;stroke-linecap:square;stroke-linejoin:miter;stroke-miterlimit:10;stroke-dasharray:none;stroke-opacity:1"
     d="m 97.5,21 -30,55 V 21 h -25 v 150 h 25 v -55 c 10,18.33333 20,36.66667 30,55 h 35 C 117.5,152.66667 101.18985,133.35072 86.189848,115.01739 114.52318,131.68406 144.16667,149.33333 172.5,166 v -30 c -23.33333,-10 -48.6319,-20 -71.96523,-30 23.33333,3.33333 48.6319,6.66667 71.96523,10 V 86 l -80,3.36231 C 119.16667,77.695643 145.83333,67.666667 172.5,56 V 26 C 144.16667,42.666667 115.17825,59.660871 86.844924,76.327538 L 132.5,21 Z"
     id="path17958" /></svg>
