<?xml version="1.0" encoding="UTF-8" standalone="no"?>
<svg
   width="192"
   height="192"
   viewBox="0 0 192 192"
   fill="none"
   version="1.1"
   id="svg1011"
   xml:space="preserve"
   xmlns="http://www.w3.org/2000/svg"
   xmlns:svg="http://www.w3.org/2000/svg"><defs
     id="defs1009"><clipPath
       id="a"><path
         fill="#fff"
         d="M0 0h192v192H0z"
         id="path1006" /></clipPath></defs><path
     style="display:inline;fill:none;stroke:#000000;stroke-width:8;stroke-linecap:round;stroke-linejoin:round;stroke-miterlimit:10;stroke-dasharray:none;stroke-opacity:1"
     d="M 96.499938,19.999941 66.099916,75.733317 V 19.999941 H 40.766562 V 172.00006 h 25.333354 v -55.73338 c 10.13334,18.57779 20.266681,37.1556 30.400022,55.73338 H 131.96663 C 116.76662,153.42228 100.239,133.84875 85.038976,115.27098 113.75011,132.15989 143.78887,150.04449 172.5,166.9334 V 136.53336 C 148.85554,126.40002 123.21964,116.26668 99.575177,106.13335 123.21964,109.51112 148.85554,112.88891 172.5,116.26668 V 85.866659 L 91.433267,89.273803 C 118.45552,77.45157 145.47776,67.288868 172.5,55.466635 V 25.066612 c -28.71113,16.888902 -58.08609,34.109709 -86.797213,50.99861 l 46.263843,-56.06528 z"
     id="path17958" /></svg>
