<svg width="192" height="192" fill="none" xmlns="http://www.w3.org/2000/svg"><path d="M143 107v47a6 6 0 0 1-6 6H59a6 6 0 0 1-6-6v-45.832C41.205 101.096 22 86.708 22 68c0-20 18-36 37-36 25 0 40 19 40 19m-19 62h29c5.866 0 44.732-2.106 57.175-27.5M80 74s20.923-30.58 44-36.875" stroke="#000" stroke-width="12" stroke-linecap="round" stroke-linejoin="round"/><path d="M143 66.999V31l28 35.999V31" stroke="#000" stroke-width="10" stroke-miterlimit="6" stroke-linecap="round" stroke-linejoin="round"/></svg>