<?xml version="1.0" encoding="UTF-8" standalone="no"?>
<!-- Generator: Adobe Illustrator 28.0.0, SVG Export Plug-In . SVG Version: 6.00 Build 0)  -->

<svg
   version="1.1"
   id="Layer_1"
   x="0px"
   y="0px"
   viewBox="0 0 192 192"
   xml:space="preserve"
   width="192"
   height="192"
   xmlns="http://www.w3.org/2000/svg"
   xmlns:svg="http://www.w3.org/2000/svg"><defs
   id="defs7" />
<style
   type="text/css"
   id="style1">
	.st0{fill:#02B168;}
	.st1{fill-rule:evenodd;clip-rule:evenodd;fill:#FFFFFF;}
</style>

<path
   class="st1"
   d="M 90.732096,59.358979 C 71.811552,77.627548 60.067767,103.16625 60.067767,131.50118 c 0,55.36494 44.924633,100.29071 100.288193,100.29071 27.86819,0 53.12665,-11.37125 71.30156,-29.82624"
   id="path7"
   style="fill:none;stroke:#000000;stroke-width:16.3111501;stroke-opacity:1;stroke-dasharray:none;stroke-linecap:round;stroke-linejoin:round"
   transform="matrix(0.85831414,0,0,0.85830301,-29.195969,-28.947834)" /><path
   class="st1"
   d="m 160.03564,187.86653 c 6.3918,-11.16245 2.30843,-28.46435 -3.30211,-18.67976 -6.10759,10.63926 -0.87011,25.92235 3.30211,18.67976 z"
   id="path10"
   style="fill:none;stroke:#000000;stroke-width:13.981;stroke-opacity:1;stroke-dasharray:none"
   transform="matrix(0.85831414,0,0,0.85830301,-29.195969,-28.947834)" /><path
   class="st1"
   d="m 195.19457,180.69995 c -1.29163,-12.79806 -14.67517,-24.49839 -13.54927,-13.2756 1.21859,12.20714 14.367,21.59397 13.54927,13.2756 z"
   id="path10-1"
   style="fill:none;stroke:#000000;stroke-width:13.981;stroke-opacity:1;stroke-dasharray:none;clip-rule:evenodd;fill-rule:evenodd"
   transform="matrix(0.85831414,0,0,0.85830301,-29.195969,-28.947834)" /><path
   class="st1"
   d="m 124.59167,172.57988 c 11.19566,-6.33295 16.52016,-23.29404 6.69981,-17.74676 -10.68412,6.02827 -13.98544,21.84304 -6.69981,17.74676 z"
   id="path10-6"
   style="fill:none;stroke:#000000;stroke-width:13.981;stroke-opacity:1;stroke-dasharray:none;clip-rule:evenodd;fill-rule:evenodd"
   transform="matrix(0.85831414,0,0,0.85830301,-29.195969,-28.947834)" /><path
   class="st1"
   d="m 107.03715,138.3581 c 12.69305,2.08147 27.47125,-7.79878 16.34228,-9.63055 -12.10351,-1.9983 -24.58674,8.25661 -16.34228,9.63055 z"
   id="path10-2"
   style="fill:none;stroke:#000000;stroke-width:13.981;stroke-opacity:1;stroke-dasharray:none;clip-rule:evenodd;fill-rule:evenodd"
   transform="matrix(0.85831414,0,0,0.85830301,-29.195969,-28.947834)" /><path
   class="st1"
   d="m 111.42284,99.334626 c 7.03336,10.769704 24.29867,15.002614 18.13699,5.555394 -6.6967,-10.278603 -22.68911,-12.565422 -18.13699,-5.555394 z"
   id="path10-15"
   style="fill:none;stroke:#000000;stroke-width:13.981;stroke-opacity:1;stroke-dasharray:none;clip-rule:evenodd;fill-rule:evenodd"
   transform="matrix(0.85831414,0,0,0.85830301,-29.195969,-28.947834)" />
</svg>
