<svg width="24" height="24" viewBox="0 0 24 24" fill="none" xmlns="http://www.w3.org/2000/svg">
<path fill-rule="evenodd" clip-rule="evenodd" d="M5.20385 19.3358C5.3428 18.6614 5.51509 17.9933 5.71842 17.3531C5.77674 17.1695 5.71537 16.9691 5.57277 16.8424C5.12974 16.4487 4.75396 15.961 4.47702 15.39C3.35408 13.0748 4.28143 10.2682 6.54833 9.12135C7.89582 8.43962 9.37634 8.37005 10.6032 8.95249C11.3449 9.3046 12.2035 9.49491 12.9641 9.1878C15.0892 8.32975 17.2642 7.86463 19.23 8.03479C19.4905 8.05734 19.5141 8.40126 19.2663 8.48613C15.8785 9.6461 14.3314 10.731 13.6958 11.548C13.4253 11.8957 13.2532 12.5683 13.6562 12.7349C15.7836 13.6143 17.921 15.8182 19.361 18.7688C17.5334 20.7552 14.9121 22 12 22C9.37584 22 6.98775 20.9892 5.20385 19.3358ZM10 11.5C10 11.7761 9.77614 12 9.5 12C9.22386 12 9 11.7761 9 11.5C9 11.2239 9.22386 11 9.5 11C9.77614 11 10 11.2239 10 11.5Z" fill="black"/>
</svg>
