<svg width="192" height="192" viewBox="0 0 192 192" fill="none" xmlns="http://www.w3.org/2000/svg"><path d="M76 74v44m43-44L97 96l22 22" stroke="#000" stroke-width="12" stroke-linecap="round" stroke-linejoin="round"/><path d="M160.086 65c-8.145-11.82-20.718-21.058-35.767-26.28-15.05-5.224-31.737-6.14-47.472-2.607-15.734 3.532-29.638 11.316-39.555 22.144C27.375 69.085 22 82.352 22 96c0 13.648 5.375 26.915 15.292 37.743 9.916 10.828 23.82 18.612 39.555 22.144 15.735 3.533 32.422 2.617 47.472-2.606 15.05-5.223 27.622-14.461 35.767-26.281" stroke="#000" stroke-width="12" stroke-linecap="round" stroke-linejoin="round"/><circle cx="168" cy="97" r="4" stroke="#000" stroke-width="8" stroke-linecap="round" stroke-linejoin="round"/></svg>