<svg width="192" height="192" fill="none" xmlns="http://www.w3.org/2000/svg"><path d="m58 73.944 46.596-46.714a17.773 17.773 0 0 1 25.187 0 17.857 17.857 0 0 1 3.861 5.793 17.897 17.897 0 0 1 0 13.666 17.857 17.857 0 0 1-3.861 5.793L104.33 78H152a17.998 17.998 0 0 1 18 18 18.01 18.01 0 0 1-5.272 12.728A18.01 18.01 0 0 1 152 114h-47.67l25.453 25.518a17.86 17.86 0 0 1 3.861 5.793 17.898 17.898 0 0 1 0 13.666 17.85 17.85 0 0 1-9.639 9.664 17.777 17.777 0 0 1-19.409-3.871L58 118.056m0-44.112-7.912 7.932c-7.786 7.806-7.786 20.442 0 28.248L58 118.056m0-44.112V40a18 18 0 0 0-36 0v112a18 18 0 0 0 36 0v-33.944" stroke="#000" stroke-width="12" stroke-linecap="round" stroke-linejoin="round"/></svg>