<svg xmlns="http://www.w3.org/2000/svg" width="192" height="192" fill="none"><path stroke="#000" stroke-linecap="round" stroke-linejoin="round" stroke-width="12" d="m58 73.944 46.596-46.714a17.773 17.773 0 0 1 25.187 0 17.9 17.9 0 0 1 3.861 5.793 17.9 17.9 0 0 1 0 13.666 17.9 17.9 0 0 1-3.861 5.793L104.33 78H152a18 18 0 0 1 18 18 18 18 0 0 1-5.272 12.728A18 18 0 0 1 152 114h-47.67l25.453 25.518a17.9 17.9 0 0 1 3.861 5.793 17.9 17.9 0 0 1 0 13.666 17.85 17.85 0 0 1-9.639 9.664 17.78 17.78 0 0 1-19.409-3.871L58 118.056m0-44.112-7.912 7.932c-7.786 7.806-7.786 20.442 0 28.248L58 118.056m0-44.112V40a18 18 0 0 0-36 0v112a18 18 0 0 0 36 0v-33.944"/></svg>