<?xml version="1.0" encoding="UTF-8"?>
<svg width="24" height="24" fill="none" version="1.1" viewBox="0 0 24 24" xmlns="http://www.w3.org/2000/svg">
 <path d="m2.0139 20.679c-8e-3 -5e-3 -0.0138-3.5461-0.0139-8.6755-1.9e-4 -8.2568 1e-3 -8.6676 0.0265-8.6771 0.038-0.01421 3.8027-0.01464 3.8257-4.27e-4 0.0152 0.0094 0.0182 1.7562 0.0152 8.6846l-4e-3 8.6728-1.918 0.0021c-1.0549 0.0011-1.9242-0.0017-1.9317-0.0064zm10.241-0.0279c-0.0334-0.01548-0.0787-0.04779-0.10074-0.0718-0.0354-0.03857-0.22485-0.31021-0.54939-0.78752-0.0568-0.08349-0.15941-0.23378-0.22809-0.33398-0.0687-0.10019-0.35406-0.5169-0.63419-0.92602-0.92703-1.3539-1.431-2.0897-1.7367-2.5352-0.46829-0.68265-0.53805-0.78448-0.7463-1.0894-0.10699-0.15664-0.24234-0.3548-0.30079-0.44036-0.15104-0.22111-0.53906-0.78707-1.0188-1.486-0.22726-0.33111-0.42039-0.61546-0.42919-0.63188-0.0211-0.03944-0.0187-0.04129 0.30184-0.23161 0.61599-0.36575 1.2409-0.81755 1.7913-1.295 0.21903-0.19 0.85302-0.82328 1.003-1.0019 0.062-0.07383 0.14225-0.16947 0.1783-0.21253 0.88202-1.0535 1.5844-2.4389 1.9445-3.8355 0.14767-0.57269 0.27527-1.2518 0.31231-1.6623 5e-3 -0.05845 0.0162-0.15408 0.0243-0.21253 8e-3 -0.05845 0.02-0.2075 0.0265-0.33123 9e-3 -0.16963 0.0171-0.22829 0.0336-0.23846 0.0279-0.01725 3.659-0.01768 3.6868-4.27e-4 0.026 0.01604 0.0243 0.16682-7e-3 0.64604-0.0865 1.3193-0.33275 2.5656-0.74227 3.7572-0.59452 1.7299-1.5385 3.3189-2.8226 4.7516-0.10851 0.12107-0.27551 0.30002-0.3711 0.39768l-0.1738 0.17756 0.0869 0.12606c0.11433 0.16592 0.58686 0.85506 0.76064 1.1093 0.0755 0.11044 0.3596 0.52529 0.63137 0.92189 0.91934 1.3416 1.4174 2.0689 2.1155 3.0893 0.38271 0.55941 0.73126 1.0683 0.77454 1.131 0.44511 0.644 0.81696 1.1959 0.81819 1.2145 1e-3 0.02013-0.26324 0.02317-2.2832 0.02626-2.1967 0.0034-2.287 0.0024-2.3454-0.02465zm7.264 7e-3c-0.47643-0.08524-0.87126-0.29627-1.2011-0.642-0.40688-0.42642-0.6154-0.98989-0.58302-1.5754 0.0499-0.90174 0.61177-1.6461 1.4555-1.9282 0.75567-0.25262 1.5947-0.06444 2.1635 0.48526 0.30911 0.29871 0.49989 0.63099 0.60581 1.0551 0.0365 0.14612 0.04 0.18718 0.0407 0.47127 8.2e-4 0.35101-0.0102 0.42894-0.10008 0.70503-0.10297 0.31645-0.26712 0.58066-0.51435 0.82789-0.29737 0.29737-0.62439 0.47754-1.0545 0.581-0.15971 0.03841-0.64298 0.05031-0.81235 0.02001z" fill="#000" stroke-width=".015181"/>
</svg>
