<?xml version="1.0" encoding="UTF-8" standalone="no"?>
<!-- Created with Inkscape (http://www.inkscape.org/) -->

<svg
   width="24"
   height="24.000002"
   viewBox="0 0 6.3499998 6.3500004"
   version="1.1"
   id="svg6365"
   inkscape:version="1.1.1 (3bf5ae0d25, 2021-09-20)"
   sodipodi:docname="Klarna.svg"
   xmlns:inkscape="http://www.inkscape.org/namespaces/inkscape"
   xmlns:sodipodi="http://sodipodi.sourceforge.net/DTD/sodipodi-0.dtd"
   xmlns="http://www.w3.org/2000/svg"
   xmlns:svg="http://www.w3.org/2000/svg">
  <sodipodi:namedview
     id="namedview6367"
     pagecolor="#505050"
     bordercolor="#eeeeee"
     borderopacity="1"
     inkscape:pageshadow="0"
     inkscape:pageopacity="0"
     inkscape:pagecheckerboard="0"
     inkscape:document-units="px"
     showgrid="false"
     units="px"
     fit-margin-top="5.0638"
     fit-margin-left="4"
     fit-margin-right="4"
     fit-margin-bottom="5.0638"
     inkscape:zoom="35.195347"
     inkscape:cx="6.946941"
     inkscape:cy="9.4472715"
     inkscape:window-width="2560"
     inkscape:window-height="1351"
     inkscape:window-x="-9"
     inkscape:window-y="-9"
     inkscape:window-maximized="1"
     inkscape:current-layer="layer1" />
  <defs
     id="defs6362" />
  <g
     inkscape:label="Ebene 1"
     inkscape:groupmode="layer"
     id="layer1"
     transform="translate(-0.24343709,-0.27094634)">
    <path
       style="fill:#000000;stroke-width:0.0128778"
       d="M 1.3017704,3.4458404 V 1.6107474 H 1.710642 2.1195135 v 1.835093 1.835093 H 1.710642 1.3017704 Z m 2.1483549,1.806117 c -0.029644,-0.03297 -1.1754694,-1.705447 -1.1834636,-1.727413 -0.00287,-0.0079 0.033805,-0.03749 0.081489,-0.06583 0.2064117,-0.122638 0.4314824,-0.312078 0.5775442,-0.486115 0.2928142,-0.348895 0.452823,-0.733488 0.5089996,-1.223419 l 0.015873,-0.138437 h 0.3913406 0.391341 l -0.00821,0.106242 c -0.057231,0.74015 -0.2967274,1.313895 -0.7677383,1.839221 l -0.103894,0.115875 0.022686,0.03497 c 0.012477,0.01924 0.2428331,0.356597 0.5119014,0.749693 0.2690682,0.393097 0.5059629,0.73935 0.5264329,0.769452 l 0.037218,0.05473 h -0.487732 -0.487732 z m 1.4732634,-0.0022 c -0.1045285,-0.04298 -0.1775656,-0.107611 -0.2291561,-0.202767 -0.041993,-0.07745 -0.044223,-0.08806 -0.044223,-0.210344 0,-0.150674 0.022167,-0.212873 0.1097113,-0.307848 0.1775798,-0.192651 0.4861989,-0.188662 0.6635337,0.0086 0.1021327,0.113597 0.1395115,0.297365 0.090422,0.444553 -0.04196,0.125811 -0.1738823,0.250332 -0.3033036,0.286289 -0.081843,0.02274 -0.2062629,0.01473 -0.2869841,-0.01846 z"
       id="path6515" />
  </g>
</svg>
