<svg xmlns="http://www.w3.org/2000/svg" width="192" height="192" viewBox="0 0 192 192"><path fill="none" stroke="#000" stroke-linecap="round" stroke-linejoin="round" stroke-width="10" d="M135.598 109.918c26.756 0 25.029 29.037 25.029 29.037 0 33.382-31.267 32.045-31.267 32.045-35.372 0-36.067-40.524-36.067-40.524V50s-.287-29-31.295-29C32.501 21 32 50 32 50v93.982s-.535 26.73 29.676 27.018c0 0 10.536 1.012 21.55-8.606l52.29-52.507s6.356-6.805 7.366-19.565c0 0 2.068-29.96-31.005-30.565 0 0-11.897.34-18.285 7.813"/></svg>