<?xml version="1.0" encoding="UTF-8" standalone="no"?>
<!-- Created with Inkscape (http://www.inkscape.org/) -->

<svg
   version="1.1"
   id="svg2"
   width="192"
   height="192"
   viewBox="0 0 192 192"
   sodipodi:docname="kleinanzeigen.png"
   xmlns:inkscape="http://www.inkscape.org/namespaces/inkscape"
   xmlns:sodipodi="http://sodipodi.sourceforge.net/DTD/sodipodi-0.dtd"
   xmlns="http://www.w3.org/2000/svg"
   xmlns:svg="http://www.w3.org/2000/svg">
  <defs
     id="defs6" />
  <sodipodi:namedview
     id="namedview4"
     pagecolor="#ffffff"
     bordercolor="#000000"
     borderopacity="0.25"
     inkscape:showpageshadow="2"
     inkscape:pageopacity="0.0"
     inkscape:pagecheckerboard="0"
     inkscape:deskcolor="#d1d1d1"
     showgrid="false"
     showguides="true">
    <sodipodi:guide
       position="146.23147,15.947598"
       orientation="0,-1"
       id="guide391"
       inkscape:locked="false" />
  </sodipodi:namedview>
  <g
     inkscape:groupmode="layer"
     inkscape:label="Image"
     id="g8">
    <path
       style="fill:none;fill-opacity:0.841327;stroke:#000000;stroke-width:10;stroke-linecap:round;stroke-linejoin:round;paint-order:stroke fill markers"
       d="m 135.5983,109.91784 c 26.75588,0 25.02826,29.0367 25.02826,29.0367 0,33.3826 -31.26631,32.04546 -31.26631,32.04546 -35.371837,0 -36.066979,-40.52447 -36.066979,-40.52447 V 50 c 0,0 -0.287076,-29 -31.295267,-29 C 32.500854,21 32,50 32,50 v 93.98165 c 0,0 -0.534756,26.73128 29.675928,27.01835 0,0 10.536082,1.0117 21.550354,-8.60621 L 135.5157,109.88737 c 0,0 6.35641,-6.80541 7.36671,-19.565055 0,0 2.06768,-29.960376 -31.00543,-30.565748 0,0 -11.897039,0.341266 -18.2848,7.813177"
       id="path293"
       sodipodi:nodetypes="cssccccccccccc" />
  </g>
</svg>
