<svg width="192" height="192" viewBox="0 0 192 192" fill="none" xmlns="http://www.w3.org/2000/svg">
<path d="M141.467 79.7573C146.034 73.4747 152.355 68.1861 156.519 60.9681C163.685 48.5441 159.432 32.6575 147.02 25.4844C134.608 18.3114 118.736 22.5682 111.57 34.9923C107.469 42.1021 106.035 50.0914 102.98 57.1152M74.0688 73.6023C66.5699 72.6994 59.039 70.0241 50.9513 70.0241C36.6188 70.0241 25 81.6539 25 96C25 110.346 36.6188 121.976 50.9513 121.976C59.0391 121.976 66.5699 119.301 74.0689 118.398M102.98 134.885C106.035 141.909 107.469 149.898 111.57 157.008C118.736 169.432 134.608 173.689 147.02 166.516C159.432 159.343 163.685 143.456 156.519 131.032C152.356 123.814 146.034 118.525 141.467 112.243" stroke="black" stroke-width="12" stroke-linecap="round"/>
<path d="M87 95.9991C88.8305 101.939 92.832 107.23 98.6575 110.582C104.483 113.933 111.081 114.741 117.157 113.352C121.403 108.802 124 102.703 124 96.0002C124 89.2969 121.403 83.198 117.157 78.6485C111.08 77.2588 104.482 78.0669 98.6569 81.4185C92.832 84.7699 88.8308 90.0602 87 95.9991Z" stroke="black" stroke-width="12" stroke-linejoin="round"/>
</svg>
