<svg width="192" height="192" fill="none" xmlns="http://www.w3.org/2000/svg"><path d="M158.48 61.258a26.099 26.099 0 0 0 2.625-19.86 26.123 26.123 0 0 0-4.535-9.159 26.237 26.237 0 0 0-7.707-6.733 26.351 26.351 0 0 0-19.938-2.614 26.32 26.32 0 0 0-9.195 4.516 26.205 26.205 0 0 0-6.759 7.678m0 0C93.77 68.212 99.896 71.736 52.275 69.339c-3.45 0-6.867.677-10.055 1.992a26.281 26.281 0 0 0-8.524 5.674A26.165 26.165 0 0 0 28 85.495a26.082 26.082 0 0 0 0 20.031 26.156 26.156 0 0 0 5.696 8.491 26.282 26.282 0 0 0 8.524 5.673 26.35 26.35 0 0 0 10.055 1.992m60.696-86.596c-11.117 19.178-21.769 60.708-21.769 60.708m0 0c8.869 15.3 24.739 14.313 24.739 14.313M91.202 95.794S96.464 79.06 116.9 82.06c0 0 10.091 13.392-.958 28.046m0 0s-41.434 11.575-63.666 11.575m0 0c38.402 0 38.402-7.046 60.129 35.232m.001 0a26.209 26.209 0 0 0 6.759 7.678 26.359 26.359 0 0 0 29.133 1.902 26.27 26.27 0 0 0 7.708-6.733 26.14 26.14 0 0 0 4.534-9.159 26.062 26.062 0 0 0 .67-10.19 26.107 26.107 0 0 0-3.295-9.67m0 0c-19.201-33.126-25.327-29.603.567-69.484m-.567 69.484c-11.116-19.178-41.03-48.656-41.03-48.656" stroke="#000" stroke-width="12" stroke-linecap="round" stroke-linejoin="round"/></svg>