<svg width="192" height="192" viewBox="0 0 192 192" fill="none" xmlns="http://www.w3.org/2000/svg">
<path d="M25 96C25 110.346 36.6188 121.976 50.9513 121.976C65.2838 121.976 77.8673 113.574 91.6239 121.524C105.381 129.474 104.404 144.584 111.57 157.008C118.736 169.432 134.608 173.689 147.02 166.516C159.432 159.343 163.685 143.456 156.519 131.032C149.353 118.608 135.792 111.9 135.792 96C135.792 80.1001 149.352 73.3922 156.519 60.9681C163.685 48.5441 159.432 32.6575 147.02 25.4844C134.608 18.3114 118.736 22.5682 111.57 34.9923C104.404 47.4163 105.381 62.526 91.624 70.476C77.8674 78.4258 65.2838 70.0241 50.9513 70.0241C36.6188 70.0241 25 81.6539 25 96Z" stroke="black" stroke-width="12"/>
</svg>
