<svg width="191" height="192" fill="none" xmlns="http://www.w3.org/2000/svg"><path d="M95.5 93v74m0-74L21.885 49M95.5 93l73.615-44M71.742 35.533 35.812 56v38.451a56 56 0 0 0 28.283 48.659L95.5 161l31.405-17.89a55.999 55.999 0 0 0 28.283-48.659V56l-35.93-20.467a48 48 0 0 0-47.516 0Z" stroke="#000" stroke-width="12" stroke-linecap="round" stroke-linejoin="round"/><path d="M154.193 62.444c-12.192 11.513-28.69 28.422-36.808 42.556-9.366 16.307-16.108 39.078-19.468 52" stroke="#000" stroke-width="12" stroke-linecap="round" stroke-linejoin="round"/></svg>