<svg width="192" height="192" viewBox="0 0 192 192" fill="none" xmlns="http://www.w3.org/2000/svg"><path d="m80 162 1 8m42-148-5 5m-53 4c2-6 25-9 31-9S84 60 84 60 63 37 65 31ZM37.143 141.412c2.057-6.13 18.51-17.369 21.595-16.347 3.085 1.022 2.947 32.694 0 34.737-2.947 2.043-23.651-12.26-21.595-18.39ZM22 94.74C22 83.782 27.6 71 34.133 71 40.667 71 50 84.696 50 94.74 50 104.782 36 113 30.4 113c-5.6 0-8.4-7.304-8.4-18.26ZM118 170c-8 0-17-52-17-52s44 25.999 44 34c0 8-19 18-27 18Zm50.699-75.144c-6.953 5.54-48.671-10.577-49.665-15.613C118.041 74.207 138.9 46 145.853 46c6.953 0 29.799 43.316 22.846 48.856ZM28 45l6 5m125 68 11 7" stroke="#000" stroke-width="12" stroke-linecap="round" stroke-linejoin="round"/></svg>