<svg xmlns="http://www.w3.org/2000/svg" width="192" height="192" fill="none" stroke-width="12" viewBox="0 0 192 192"><rect width="60" height="60" x="98" y="110" stroke="#000" rx="8"/><path fill="#000" d="M42 16a10 10 0 0 0-10 10v140a10 10 0 0 0 10 10h16a10 10 0 0 0 10-10V26a10 10 0 0 0-10-10zm2 148V28h12v136zm86-148a26 26 0 0 0-26 26v19.515L76.586 88.929c-3.906 3.905-3.906 10.237 0 14.142l8.4 8.399a22.03 22.03 0 0 1 6.75-10.22L86.486 96l27.757-27.757A6 6 0 0 0 116 64V42c0-7.053 5.215-12.888 12-13.858v43.373l-20.243 20.242A5.98 5.98 0 0 0 106 96h14.485l17.758-17.757A6 6 0 0 0 140 74V26a10 10 0 0 0-10-10"/><path stroke="#000" stroke-linecap="round" stroke-linejoin="round" d="m98 154 24-24 12 12 8-8 16 16"/></svg>