<?xml version="1.0" encoding="UTF-8" standalone="no"?>
<!-- Created with Inkscape (http://www.inkscape.org/) -->

<svg width="192" height="192" viewBox="0 0 50.799999 50.800002" version="1.1" id="svg8"
    inkscape:version="1.1.1 (3bf5ae0d25, 2021-09-20)" sodipodi:docname="knife_hit.svg"
    xmlns:inkscape="http://www.inkscape.org/namespaces/inkscape" xmlns:sodipodi="http://sodipodi.sourceforge.net/DTD/sodipodi-0.dtd"
    xmlns="http://www.w3.org/2000/svg" xmlns:rdf="http://www.w3.org/1999/02/22-rdf-syntax-ns#"
    xmlns:cc="http://creativecommons.org/ns#" xmlns:dc="http://purl.org/dc/elements/1.1/">
  <defs
     id="defs2">
    <marker
       inkscape:stockid="Arrow1Lend"
       orient="auto"
       refY="0"
       refX="0"
       id="Arrow1Lend"
       style="overflow:visible"
       inkscape:isstock="true">
      <path
         id="path844"
         d="M 0,0 5,-5 -12.5,0 5,5 Z"
         style="fill-rule:evenodd;stroke:#000000;stroke-width:1pt"
         transform="matrix(-0.8,0,0,-0.8,-10,0)" />
    </marker>
    <marker
       inkscape:stockid="Arrow1Lstart"
       orient="auto"
       refY="0"
       refX="0"
       id="Arrow1Lstart"
       style="overflow:visible"
       inkscape:isstock="true">
      <path
         id="path841"
         d="M 0,0 5,-5 -12.5,0 5,5 Z"
         style="fill-rule:evenodd;stroke:#000000;stroke-width:1pt"
         transform="matrix(0.8,0,0,0.8,10,0)" />
    </marker>
    <pattern
       y="0"
       x="0"
       height="6"
       width="6" id="EMFhbasepattern" />
    <pattern
       y="0"
       x="0"
       height="6"
       width="6" id="EMFhbasepattern-1" />
    <pattern
       y="0"
       x="0"
       height="6"
       width="6" id="EMFhbasepattern-6" />
    <pattern
       y="0"
       x="0"
       height="6"
       width="6" id="EMFhbasepattern-15" />
    <pattern
       y="0"
       x="0"
       height="6"
       width="6" id="EMFhbasepattern-17" />
    <pattern
       y="0"
       x="0"
       height="6"
       width="6" id="EMFhbasepattern-2" />
    <pattern
       y="0"
       x="0"
       height="6"
       width="6" id="EMFhbasepattern-3" />
    <pattern
       y="0"
       x="0"
       height="6"
       width="6" id="EMFhbasepattern-61" />
    <pattern
       y="0"
       x="0"
       height="6"
       width="6" id="EMFhbasepattern-4" />
    <pattern
       y="0"
       x="0"
       height="6"
       width="6" id="EMFhbasepattern-37" />
    <pattern
       y="0"
       x="0"
       height="6"
       width="6" id="EMFhbasepattern-12" />
    <pattern
       y="0"
       x="0"
       height="6"
       width="6" id="EMFhbasepattern-44" />
    <pattern
       y="0"
       x="0"
       height="6"
       width="6" id="EMFhbasepattern-5" />
    <pattern
       y="0"
       x="0"
       height="6"
       width="6" id="EMFhbasepattern-157" />
    <pattern
       y="0"
       x="0"
       height="6"
       width="6" id="EMFhbasepattern-7" />
    <pattern
       y="0"
       x="0"
       height="6"
       width="6" id="EMFhbasepattern-8" />
    <pattern
       y="0"
       x="0"
       height="6"
       width="6" id="EMFhbasepattern-43" />
    <pattern
       y="0"
       x="0"
       height="6"
       width="6" id="EMFhbasepattern-63" />
    <pattern
       y="0"
       x="0"
       height="6"
       width="6" id="EMFhbasepattern-82" />
    <pattern
       y="0"
       x="0"
       height="6"
       width="6" id="EMFhbasepattern-70" />
    <pattern
       y="0"
       x="0"
       height="6"
       width="6" id="EMFhbasepattern-46" />
    <pattern
       y="0"
       x="0"
       height="6"
       width="6" id="EMFhbasepattern-465" />
    <pattern
       y="0"
       x="0"
       height="6"
       width="6" id="EMFhbasepattern-30" />
    <pattern
       y="0"
       x="0"
       height="6"
       width="6" id="EMFhbasepattern-9" />
    <pattern
       y="0"
       x="0"
       height="6"
       width="6" id="EMFhbasepattern-79" />
    <pattern
       y="0"
       x="0"
       height="6"
       width="6" id="EMFhbasepattern-59" />
    <pattern
       y="0"
       x="0"
       height="6"
       width="6" id="EMFhbasepattern-74" />
    <pattern
       y="0"
       x="0"
       height="6"
       width="6" id="EMFhbasepattern-50" />
    <pattern
       y="0"
       x="0"
       height="6"
       width="6" id="EMFhbasepattern-54" />
    <pattern
       y="0"
       x="0"
       height="6"
       width="6" id="EMFhbasepattern-32" />
    <pattern
       y="0"
       x="0"
       height="6"
       width="6" id="EMFhbasepattern-26" />
    <pattern
       y="0"
       x="0"
       height="6"
       width="6" id="EMFhbasepattern-83" />
    <pattern
       y="0"
       x="0"
       height="6"
       width="6" id="EMFhbasepattern-73" />
    <pattern
       y="0"
       x="0"
       height="6"
       width="6" id="EMFhbasepattern-328" />
    <pattern
       y="0"
       x="0"
       height="6"
       width="6" id="EMFhbasepattern-0" />
    <pattern
       y="0"
       x="0"
       height="6"
       width="6" id="EMFhbasepattern-85" />
    <pattern
       y="0"
       x="0"
       height="6"
       width="6" id="EMFhbasepattern-84" />
    <pattern
       y="0"
       x="0"
       height="6"
       width="6" id="EMFhbasepattern-06" />
    <pattern
       y="0"
       x="0"
       height="6"
       width="6" id="EMFhbasepattern-81" />
    <pattern
       y="0"
       x="0"
       height="6"
       width="6" id="EMFhbasepattern-33" />
    <pattern
       y="0"
       x="0"
       height="6"
       width="6" id="EMFhbasepattern-703" />
    <pattern
       y="0"
       x="0"
       height="6"
       width="6" id="EMFhbasepattern-610" />
    <pattern
       y="0"
       x="0"
       height="6"
       width="6" id="EMFhbasepattern-18" />
    <pattern
       y="0"
       x="0"
       height="6"
       width="6" id="EMFhbasepattern-72" />
    <pattern
       y="0"
       x="0"
       height="6"
       width="6" id="EMFhbasepattern-55" />
    <pattern
       y="0"
       x="0"
       height="6"
       width="6" id="EMFhbasepattern-66" />
    <pattern
       y="0"
       x="0"
       height="6"
       width="6" id="EMFhbasepattern-663" />
    <pattern
       y="0"
       x="0"
       height="6"
       width="6" id="EMFhbasepattern-51" />
    <pattern
       y="0"
       x="0"
       height="6"
       width="6" id="EMFhbasepattern-555" />
    <pattern
       y="0"
       x="0"
       height="6"
       width="6" id="EMFhbasepattern-701" />
    <pattern
       y="0"
       x="0"
       height="6"
       width="6" id="EMFhbasepattern-824" />
    <pattern
       y="0"
       x="0"
       height="6"
       width="6" id="EMFhbasepattern-814" />
    <pattern
       y="0"
       x="0"
       height="6"
       width="6" id="EMFhbasepattern-58" />
    <pattern
       id="EMFhbasepattern-52" width="6"
       height="6"
       x="0"
       y="0" />
    <pattern
       id="EMFhbasepattern-744" width="6"
       height="6"
       x="0"
       y="0" />
    <pattern
       id="EMFhbasepattern-371" width="6"
       height="6"
       x="0"
       y="0" />
    <pattern
       id="EMFhbasepattern-799" width="6"
       height="6"
       x="0"
       y="0" />
    <pattern
       id="EMFhbasepattern-35" width="6"
       height="6"
       x="0"
       y="0" />
    <pattern
       id="EMFhbasepattern-3289" width="6"
       height="6"
       x="0"
       y="0" />
    <pattern
       id="EMFhbasepattern-613" width="6"
       height="6"
       x="0"
       y="0" />
    <pattern
       id="EMFhbasepattern-39" width="6"
       height="6"
       x="0"
       y="0" />
    <pattern
       id="EMFhbasepattern-94" width="6"
       height="6"
       x="0"
       y="0" />
    <pattern
       id="EMFhbasepattern-21" width="6"
       height="6"
       x="0"
       y="0" />
    <pattern
       id="EMFhbasepattern-506" width="6"
       height="6"
       x="0"
       y="0" />
    <pattern
       id="EMFhbasepattern-88" width="6"
       height="6"
       x="0"
       y="0" />
    <pattern
       id="EMFhbasepattern-14" width="6"
       height="6"
       x="0"
       y="0" />
    <pattern
       id="EMFhbasepattern-323" width="6"
       height="6"
       x="0"
       y="0" />
    <pattern
       id="EMFhbasepattern-7449" width="6"
       height="6"
       x="0"
       y="0" />
    <pattern
       id="EMFhbasepattern-53" width="6"
       height="6"
       x="0"
       y="0" />
    <pattern
       id="EMFhbasepattern-731" width="6"
       height="6"
       x="0"
       y="0" />
    <pattern
       id="EMFhbasepattern-446" width="6"
       height="6"
       x="0"
       y="0" />
    <pattern
       id="EMFhbasepattern-159" width="6"
       height="6"
       x="0"
       y="0" />
    <pattern
       id="EMFhbasepattern-530" width="6"
       height="6"
       x="0"
       y="0" />
    <pattern
       id="EMFhbasepattern-5554" width="6"
       height="6"
       x="0"
       y="0" />
    <pattern
       id="EMFhbasepattern-68" width="6"
       height="6"
       x="0"
       y="0" />
    <pattern
       id="EMFhbasepattern-395" width="6"
       height="6"
       x="0"
       y="0" />
    <pattern
       id="EMFhbasepattern-550" width="6"
       height="6"
       x="0"
       y="0" />
    <pattern
       id="EMFhbasepattern-10" width="6"
       height="6"
       x="0"
       y="0" />
    <pattern
       id="EMFhbasepattern-07" width="6"
       height="6"
       x="0"
       y="0" />
    <pattern
       id="EMFhbasepattern-45" width="6"
       height="6"
       x="0"
       y="0" />
    <pattern
       id="EMFhbasepattern-064" width="6"
       height="6"
       x="0"
       y="0" />
    <pattern
       id="EMFhbasepattern-702" width="6"
       height="6"
       x="0"
       y="0" />
    <pattern
       id="EMFhbasepattern-741" width="6"
       height="6"
       x="0"
       y="0" />
    <pattern
       id="EMFhbasepattern-334" width="6"
       height="6"
       x="0"
       y="0" />
    <pattern
       id="EMFhbasepattern-75" width="6"
       height="6"
       x="0"
       y="0" />
    <pattern
       id="EMFhbasepattern-108" width="6"
       height="6"
       x="0"
       y="0" />
    <pattern
       id="EMFhbasepattern-02" width="6"
       height="6"
       x="0"
       y="0" />
    <pattern
       id="EMFhbasepattern-539" width="6"
       height="6"
       x="0"
       y="0" />
    <pattern
       id="EMFhbasepattern-62" width="6"
       height="6"
       x="0"
       y="0" />
    <pattern
       id="EMFhbasepattern-309" width="6"
       height="6"
       x="0"
       y="0" />
    <pattern
       id="EMFhbasepattern-95" width="6"
       height="6"
       x="0"
       y="0" />
    <pattern
       id="EMFhbasepattern-13" width="6"
       height="6"
       x="0"
       y="0" />
    <pattern
       id="EMFhbasepattern-503" width="6"
       height="6"
       x="0"
       y="0" />
    <pattern
       id="EMFhbasepattern-586" width="6"
       height="6"
       x="0"
       y="0" />
    <pattern
       id="EMFhbasepattern-512" width="6"
       height="6"
       x="0"
       y="0" />
    <pattern
       id="EMFhbasepattern-623" width="6"
       height="6"
       x="0"
       y="0" />
    <pattern
       id="EMFhbasepattern-127" width="6"
       height="6"
       x="0"
       y="0" />
    <pattern
       id="EMFhbasepattern-843" width="6"
       height="6"
       x="0"
       y="0" />
    <pattern
       id="EMFhbasepattern-452" width="6"
       height="6"
       x="0"
       y="0" />
    <pattern
       id="EMFhbasepattern-631" width="6"
       height="6"
       x="0"
       y="0" />
    <pattern
       id="EMFhbasepattern-724" width="6"
       height="6"
       x="0"
       y="0" />
    <pattern
       id="EMFhbasepattern-49" width="6"
       height="6"
       x="0"
       y="0" />
    <pattern
       id="EMFhbasepattern-05" width="6"
       height="6"
       x="0"
       y="0" />
    <pattern
       id="EMFhbasepattern-22" width="6"
       height="6"
       x="0"
       y="0" />
    <pattern
       id="EMFhbasepattern-841" width="6"
       height="6"
       x="0"
       y="0" />
    <pattern
       id="EMFhbasepattern-226" width="6"
       height="6"
       x="0"
       y="0" />
    <pattern
       id="EMFhbasepattern-398" width="6"
       height="6"
       x="0"
       y="0" />
    <pattern
       id="EMFhbasepattern-379" width="6"
       height="6"
       x="0"
       y="0" />
    <pattern
       id="EMFhbasepattern-42" width="6"
       height="6"
       x="0"
       y="0" />
    <pattern
       id="EMFhbasepattern-213" width="6"
       height="6"
       x="0"
       y="0" />
    <pattern
       id="EMFhbasepattern-08" width="6"
       height="6"
       x="0"
       y="0" />
    <pattern
       id="EMFhbasepattern-8140" width="6"
       height="6"
       x="0"
       y="0" />
    <pattern
       id="EMFhbasepattern-25" width="6"
       height="6"
       x="0"
       y="0" />
    <pattern
       id="EMFhbasepattern-80" width="6"
       height="6"
       x="0"
       y="0" />
    <pattern
       id="EMFhbasepattern-29" width="6"
       height="6"
       x="0"
       y="0" />
    <pattern
       id="EMFhbasepattern-855" width="6"
       height="6"
       x="0"
       y="0" />
    <pattern
       id="EMFhbasepattern-19" width="6"
       height="6"
       x="0"
       y="0" />
    <pattern
       id="EMFhbasepattern-251" width="6"
       height="6"
       x="0"
       y="0" />
    <pattern
       id="EMFhbasepattern-67" width="6"
       height="6"
       x="0"
       y="0" />
  </defs>
  <sodipodi:namedview
     id="base"
     pagecolor="#ffffff"
     bordercolor="#666666"
     borderopacity="1.0"
     inkscape:pageopacity="0.0"
     inkscape:pageshadow="2"
     inkscape:zoom="1.7844059"
     inkscape:cx="84.341797"
     inkscape:cy="102.83535"
     inkscape:document-units="px"
     inkscape:current-layer="layer2"
     showgrid="false"
     units="px"
     inkscape:window-width="1920"
     inkscape:window-height="1017"
     inkscape:window-x="-8"
     inkscape:window-y="-8"
     inkscape:window-maximized="1"
     inkscape:pagecheckerboard="0" />
  <metadata
     id="metadata5">
    <rdf:RDF>
      <cc:Work
         rdf:about="">
        <dc:format>image/svg+xml</dc:format>
        <dc:type
           rdf:resource="http://purl.org/dc/dcmitype/StillImage" />
      </cc:Work>
    </rdf:RDF>
  </metadata>
  <g
     inkscape:groupmode="layer"
     id="layer2"
     inkscape:label="Layer 2">
    <path
       style="fill:none;stroke:#000000;stroke-width:3.171px;stroke-linecap:round;stroke-linejoin:round;stroke-miterlimit:4;stroke-dasharray:none;stroke-opacity:1"
       d="m 35.965713,20.861842 -14.530891,14.53089 m -6.030369,-6.020369 14.540891,-14.53089 m -6.5304,-0.310019 3.11019,-3.11019 12.860789,12.850787 -3.120191,3.120191 M 38.54587,8.0210557 30.835399,15.731528 m 4.240258,4.230259 7.710474,-7.710473 M 5.8138658,22.281928 c 4.5202762,2.760169 8.7905382,6.090373 12.7007772,10.010615 3.91024,3.910238 7.240444,8.180498 10.010613,12.700775 m 9.12056,-37.8723179 6.03037,6.0303699 1.30008,-1.290079 -6.030371,-6.0303696 z"
       id="path1295" />
  </g>
</svg>
