<svg xmlns="http://www.w3.org/2000/svg" width="192" height="192" fill="none"><path stroke="#000" stroke-linecap="round" stroke-linejoin="round" stroke-width="10" d="M136 104V69m-18 40V74m-18 40V79m-24 41V85m24 29L76 85m-41 39 1-28m-1 28 23-34m-10 17 10 17m78-55s17-7 20 5-20 16-20 16"/><path stroke="#000" stroke-linecap="round" stroke-linejoin="round" stroke-width="10" d="M21.185 77.695c-.819-3.304 1.158-6.655 4.427-7.505l120.205-30.992c3.304-.86 6.668 1.16 7.496 4.498l17.502 69.592c.819 3.303-1.158 6.654-4.427 7.504l-119.192 32.01c-3.303.859-6.668-1.16-7.495-4.498z"/></svg>