<?xml version="1.0" encoding="UTF-8" standalone="no"?>
<!-- Created with Inkscape (http://www.inkscape.org/) -->

<svg
   width="192"
   height="192"
   viewBox="0 0 192 192"
   version="1.1"
   id="svg5"
   xml:space="preserve"
   xmlns="http://www.w3.org/2000/svg"
   xmlns:svg="http://www.w3.org/2000/svg"><defs
     id="defs2"><rect
       x="96"
       y="75.167484"
       width="72"
       height="100.83252"
       id="rect1" /><rect
       x="-88.895889"
       y="37.372536"
       width="86.714069"
       height="102.16555"
       id="rect2512" /><rect
       x="107.99609"
       y="72.56694"
       width="7.8492334"
       height="13.945367"
       id="rect1587" /><rect
       x="107.99583"
       y="61.648792"
       width="53.779905"
       height="39.270099"
       id="rect1167" /><rect
       x="-88.895889"
       y="37.372536"
       width="86.714069"
       height="102.16555"
       id="rect2576" /><rect
       x="-88.895889"
       y="37.372536"
       width="86.714069"
       height="102.16555"
       id="rect2688" /></defs><g
     id="layer1"
     style="display:inline"><path
       id="path14"
       style="display:inline;opacity:1;fill:none;stroke:#000000;stroke-width:10;stroke-linecap:round;stroke-linejoin:round;stroke-miterlimit:6;stroke-dasharray:none"
       d="m 124.50463,104.36354 c 1.06464,-2.62993 5.7379,-13.262624 10.03549,-18.472356 2.1165,-2.565722 3.40396,-3.594569 5.91667,-3.466127 2.75602,0.140881 3.69176,4.183209 5.94157,9.742808 1.39522,3.447775 1.81096,10.963075 1.81096,10.963075 0.903,3.41381 -1.63838,1.86862 -9.70932,1.59316 -6.83535,-0.23329 -13.99537,-0.36056 -13.99537,-0.36056 l -6.88546,14.36809 m 30.08718,-20.732005 c 0,0 4.74722,17.709875 5.68524,21.187565" /><path
       id="path2456"
       style="display:inline;fill:none;stroke:#000000;stroke-width:12;stroke-linecap:round;stroke-linejoin:round;stroke-miterlimit:6;stroke-dasharray:none"
       d="M 72.95987,169.78093 V 88.733101 H 30 V 51.349852 H 72.959522 V 22 H 124.49594 V 51.341677 H 162" /><path
       id="path16"
       style="display:inline;opacity:1;fill:none;stroke:#000000;stroke-width:10;stroke-linecap:round;stroke-linejoin:round;stroke-miterlimit:6;stroke-dasharray:none"
       d="m 122.15394,170.9347 c 0,0 -7.2494,-15.86076 -6.88012,-23.80173 0.47864,-10.29238 9.14903,-14.66218 18.72618,-14.67754 11.93291,-0.0192 20.36344,6.41211 21.50338,14.34498 1.07837,7.5044 -11.692,26.22806 -8.55,23.09252 0,0 -2.1294,0.63857 1.81336,0.78925 2.49554,0.0954 9.17987,0.52277 12.35517,0.002 m -38.96797,0.25076 c 0,0 -5.90109,-0.23179 -15.3062,-0.20254" /></g></svg>
