<svg xmlns="http://www.w3.org/2000/svg" width="192" height="192" fill="none"><path stroke="#000" stroke-linecap="round" stroke-linejoin="round" stroke-width="12" d="m46.312 89.324 5.688-5.5v80.001l54.496-49.102 33.156 42.511c9.242 11.929 28.348 5.393 28.348-9.697 0-5.003-1.641-9.868-4.671-13.849l-31.308-41.451 30.322-29.08A24.83 24.83 0 0 0 170 45.224c0-15.3-18.487-22.976-29.324-12.176L93 80.562V47.565c0-15.786-18.872-23.926-30.353-13.092L26.5 68.579A14.34 14.34 0 0 0 22 79.011c0 12.662 15.208 19.113 24.312 10.313"/></svg>