<?xml version="1.0" encoding="UTF-8"?><svg id="a" xmlns="http://www.w3.org/2000/svg" viewBox="0 0 192 192"><defs><style>.b{stroke-width:12px;}.b,.c{fill:none;stroke:#000;stroke-linecap:round;stroke-linejoin:round;}.c{stroke-width:6px;}</style></defs><path class="c" d="M62.54,141.3c-6.51-7.6-10.35-17.3-10.35-27.8,0-24.6,21.2-44.5,47.34-44.5s47.34,19.9,47.34,44.5-3.85,20.2-10.35,27.8"/><path class="c" d="M62.54,141.3c-.35.39-3.98,4.53-2.56,7.7.51,1.15,1.51,1.77,2.51,2.29,4.97,2.61,10.05,2.86,11,2.91,6.1.31,12.18,1.07,18.28,1.34,3.53.15,7.8.34,10.51.46,5.6-.12,10.5-.37,14.53-.64,0,0,2.69-.18,14.46-2.26,1.24-.22,3.65-.68,5.83-2.55.95-.81,1.57-1.66,1.96-2.25.05-.75.04-1.87-.32-3.14-.56-1.96-1.64-3.24-2.25-3.86"/><path class="c" d="M80.82,36.77c-1.57,4.13-3.29,9.94-3.92,17.06-.73,8.28.31,15.18,1.38,19.86"/><path class="c" d="M116.73,36.86c1.52,4.72,3.07,11.13,3.49,18.84.35,6.43-.19,11.99-.92,16.36"/><circle class="c" cx="83.04" cy="32.5" r="3"/><circle class="c" cx="115.75" cy="32.5" r="3"/><path class="c" d="M144.06,97.98c3.22-.44,8.31-.72,14.3.69,6.61,1.56,11.39,4.49,14.13,6.48"/><path class="c" d="M146.61,124.64c3.28-.71,8.88-2.37,14.64-6.59,6.19-4.54,9.6-9.86,11.25-12.89"/><path class="c" d="M53.73,96c-7.93,0-14.36,8.12-14.36,18.13s6.43,18.13,14.36,18.13"/><line class="c" x1="39.37" y1="110.71" x2="27.38" y2="108.11"/><line class="b" x1="26.1" y1="99.78" x2="22.86" y2="112.92"/><path class="c" d="M62.54,141.3c-.74-1.99-7.96-22.34,4.34-40.76,1.57-2.35,12.67-18.4,32.34-18.8,16.39-.34,30.11,10.38,36.48,23.31,8.43,17.1,1.87,33.7.81,36.25"/><path class="c" d="M129.71,127.81c-1.88,1.95-5.89,5.6-12.14,7.61-7.34,2.36-13.59,1.13-16.21.45"/><path class="c" d="M62.54,141.3c9.73,2.4,22.7,4.59,38.03,4.49,14.37-.1,26.59-2.19,35.93-4.49"/></svg>