<svg width="192" height="192" viewBox="0 0 192 192" fill="none" xmlns="http://www.w3.org/2000/svg"><path d="m113 138-4-4h8l-4 4Z" stroke="#000" stroke-width="6" stroke-linecap="round" stroke-linejoin="round"/><path d="m56 158 26-48c-2-15 10-24 10-24 4 0 12 14 12 14h18s8-14 12-14c0 0 12 7 10 24l14 23.205" stroke="#000" stroke-width="10" stroke-linecap="round" stroke-linejoin="round"/><path d="M101 121a3 3 0 1 1-3-3v3h3Zm30 0a3 3 0 1 1-3-3v3h3Z" stroke="#000" stroke-width="6" stroke-linecap="round" stroke-linejoin="round"/><path d="M21 113.999V78l28 35.999V78" stroke="#000" stroke-width="10" stroke-miterlimit="6" stroke-linecap="round" stroke-linejoin="round"/><path d="M30.784 131C43.27 154.217 67.792 170 96 170c40.869 0 74-33.131 74-74 0-40.87-33.131-74-74-74-28.208 0-52.73 15.783-65.216 39" stroke="#000" stroke-width="12" stroke-miterlimit="6" stroke-linecap="round" stroke-linejoin="round"/></svg>