<svg xmlns="http://www.w3.org/2000/svg" width="192" height="192" fill="none" stroke="#000" stroke-linecap="round" stroke-linejoin="round" stroke-width="6" viewBox="0 0 192 192"><path d="M70.357 124.937c3.857 4.085 10.529 4.085 14.386 0 2.223-2.353 3.09-5.455 2.601-8.393h-7.796v-8.06c-3.245-.652-6.772.303-9.191 2.865-3.644 3.858-3.644 9.73 0 13.588zm55.639-1.113c3.857 4.085 10.529 4.085 14.387 0 2.222-2.353 3.089-5.455 2.6-8.392h-7.796v-8.061c-3.245-.652-6.771.303-9.191 2.865-3.644 3.858-3.644 9.73 0 13.588z"/><path stroke-width="12" d="M22 168.932c8.997-29.413 27.82-62.872 35.609-66.21-.374-17.266 1.115-26.12 14.466-36.722 9.532 6.583 13.787 11.324 19.474 21.7h27.263c4.602-10.268 8.276-15.261 18.361-21.7 11.082 7.583 13.873 16.462 15.579 36.722 9.548 12.002 12.998 18.99 17.248 31.714"/><path d="M112.307 122.752c-4.377-.517-9.544-.461-13.91 0-2.463.26-3.17 2.638-3.894 5.007-1.8 5.877 11.127 11.128 11.127 11.128s12.307-5.39 10.572-11.128c-.717-2.371-1.435-4.717-3.895-5.007z"/></svg>