<svg xmlns="http://www.w3.org/2000/svg" width="192" height="192" fill="none" viewBox="0 0 192 192">
  <path stroke="#000" stroke-linejoin="round" stroke-width="12" d="M96 22c-39.15 0-66 27.906-66 62.33v34.346a6 6 0 0 0 6 6h6.73a6 6 0 0 0 6-6v-28.53a6 6 0 0 1 6-6h7.024a6 6 0 0 1 6 6v28.53a6 6 0 0 0 6 6h6.435a6 6 0 0 0 6-6v-28.53a6 6 0 0 1 6-6h7.024a6 6 0 0 1 6 6v28.53a6 6 0 0 0 6 6h6.436a6 6 0 0 0 6-6v-28.53a6 6 0 0 1 6-6h7.033a6 6 0 0 1 6 6v28.53a6 6 0 0 0 6 6H156a6 6 0 0 0 6-6v-34.53C162 49.722 135.151 22 96 22Z"/>
  <path stroke="#000" stroke-linecap="round" stroke-linejoin="round" stroke-width="10" d="M52 159.282h7.467c2.655 0 4.833-.454 6.533-1.363 1.7-.919 2.956-2.151 3.767-3.697.822-1.546 1.233-3.264 1.233-5.154 0-1.89-.411-3.603-1.233-5.138-.823-1.535-2.09-2.752-3.8-3.65-1.7-.909-3.87-1.28-6.549-1.28H58a6 6 0 0 0-6 6v26m32-12.571h7.308c2.649 0 4.875-.374 6.578-1.199 1.703-.836 2.966-1.984 3.79-3.447.824-1.462 1.324-3.064 1.324-4.954 0-1.891-.5-3.651-1.324-5.134-.824-1.483-2.093-2.648-3.806-3.494-1.715-.856-3.891-1.201-6.562-1.201H90a6 6 0 0 0-6 6v26m12.423-13.198L103 171m37-16.06c0-3.459-.552-6.431-1.624-8.811-1.06-2.38-2.5-4.181-4.32-5.404-1.808-1.223-3.832-1.725-6.074-1.725-2.241 0-4.271.502-6.091 1.725-1.808 1.223-3.248 3.024-4.32 5.404-1.061 2.38-1.571 5.352-1.571 8.811 0 3.46.51 6.328 1.571 8.708 1.072 2.38 2.512 4.181 4.32 5.404 1.82 1.222 3.868 1.948 6.109 1.948s4.248-.726 6.056-1.948c1.82-1.223 3.26-3.024 4.32-5.404 1.072-2.38 1.624-5.248 1.624-8.708Z"/>
</svg>
