<?xml version="1.0" encoding="UTF-8" standalone="no"?>
<svg
   xml:space="preserve"
   width="24"
   height="24"
   version="1.1"
   id="svg4"
   sodipodi:docname="kucoin.svg"
   inkscape:version="1.1.1 (3bf5ae0d25, 2021-09-20, custom)"
   xmlns:inkscape="http://www.inkscape.org/namespaces/inkscape"
   xmlns:sodipodi="http://sodipodi.sourceforge.net/DTD/sodipodi-0.dtd"
   xmlns="http://www.w3.org/2000/svg"
   xmlns:svg="http://www.w3.org/2000/svg"><defs
     id="defs8" /><sodipodi:namedview
     id="namedview6"
     pagecolor="#ffffff"
     bordercolor="#666666"
     borderopacity="1.0"
     inkscape:pageshadow="2"
     inkscape:pageopacity="0.0"
     inkscape:pagecheckerboard="0"
     showgrid="false"
     inkscape:zoom="26.25"
     inkscape:cx="12.019048"
     inkscape:cy="12.019048"
     inkscape:window-width="1920"
     inkscape:window-height="1003"
     inkscape:window-x="0"
     inkscape:window-y="0"
     inkscape:window-maximized="1"
     inkscape:current-layer="svg4" /><path
     d="m 8.671,12 5.82,5.923 3.673,-3.738 a 1.641,1.641 0 0 1 2.35,0 c 0.648,0.66 0.648,1.731 0,2.391 l -4.848,4.933 a 1.652,1.652 0 0 1 -2.35,0 L 6.323,14.392 v 4.231 c 0,0.93 -0.749,1.691 -1.662,1.691 C 3.744,20.314 3,19.557 3,18.624 V 5.377 C 3,4.443 3.744,3.686 4.661,3.686 c 0.918,0 1.662,0.757 1.662,1.69 v 4.232 l 6.993,-7.117 a 1.652,1.652 0 0 1 2.35,0 l 4.847,4.933 c 0.65,0.66 0.65,1.73 0,2.39 -0.648,0.66 -1.7,0.66 -2.35,0 L 14.491,6.077 8.67,12 Z m 5.822,-1.692 c 0.918,0 1.663,0.757 1.663,1.692 0,0.934 -0.745,1.692 -1.663,1.692 -0.918,0 -1.663,-0.758 -1.663,-1.692 0,-0.935 0.745,-1.692 1.663,-1.692 z"
     id="path2" /></svg>
