<?xml version="1.0" encoding="UTF-8" standalone="no"?>
<!-- Created with Inkscape (http://www.inkscape.org/) -->

<svg
   version="1.1"
   id="svg2"
   width="24"
   height="24"
   viewBox="0 0 24 24"
   sodipodi:docname="zdvz2.svg"
   inkscape:version="1.1.1 (3bf5ae0d25, 2021-09-20, custom)"
   xmlns:inkscape="http://www.inkscape.org/namespaces/inkscape"
   xmlns:sodipodi="http://sodipodi.sourceforge.net/DTD/sodipodi-0.dtd"
   xmlns="http://www.w3.org/2000/svg"
   xmlns:svg="http://www.w3.org/2000/svg">
  <defs
     id="defs6" />
  <sodipodi:namedview
     id="namedview4"
     pagecolor="#ffffff"
     bordercolor="#666666"
     borderopacity="1.0"
     inkscape:pageshadow="2"
     inkscape:pageopacity="0.0"
     inkscape:pagecheckerboard="0"
     showgrid="true"
     inkscape:showpageshadow="false"
     borderlayer="true"
     inkscape:zoom="45.254834"
     inkscape:cx="10.043126"
     inkscape:cy="11.324757"
     inkscape:window-width="1920"
     inkscape:window-height="1003"
     inkscape:window-x="0"
     inkscape:window-y="0"
     inkscape:window-maximized="1"
     inkscape:current-layer="layer1">
    <inkscape:grid
       type="xygrid"
       id="grid2899" />
  </sodipodi:namedview>
  <g
     inkscape:groupmode="layer"
     inkscape:label="Image"
     id="g8" />
  <g
     inkscape:groupmode="layer"
     id="layer1"
     inkscape:label="Image 1">
    <g
       id="g828">
      <path
         id="path4066"
         d="m 17,12 a 2,2 0 0 1 -2,2 2,2 0 0 1 -2,-2 2,2 0 0 1 2,-2 2,2 0 0 1 2,2 z" />
      <path
         id="rect872"
         style="fill:#000000"
         d="M 15.1875 2 C 14.780118 1.99853 14.365605 2.1615976 14.050781 2.4824219 L 6.6992188 9.9726562 L 6.6992188 5.5 C 6.6992188 4.669 6.0302188 4 5.1992188 4 L 5 4 C 4.169 4 3.5 4.669 3.5 5.5 L 3.5 18.5 C 3.5 19.331 4.169 20 5 20 L 5.1992188 20 C 6.0302188 20 6.6992188 19.331 6.6992188 18.5 L 6.6992188 14.027344 L 14.050781 21.517578 C 14.365605 21.838402 14.780118 22.0015 15.1875 22 C 15.59488 21.998527 15.993857 21.870154 16.283203 21.554688 C 17.521394 20.29355 18.782682 19.007907 20.027344 17.740234 C 20.656995 17.098585 20.656995 16.065477 20.027344 15.423828 C 19.397695 14.782181 18.381602 14.782181 17.751953 15.423828 L 15.185547 18.041016 L 9.2539062 12 L 15.185547 5.9589844 L 17.751953 8.5761719 C 18.381602 9.2178198 19.397695 9.2178198 20.027344 8.5761719 C 20.656995 7.9345238 20.656995 6.9014141 20.027344 6.2597656 C 18.782682 4.9920919 17.521394 3.7064492 16.283203 2.4453125 C 15.993857 2.1298461 15.59488 2.0014728 15.1875 2 z " />
    </g>
  </g>
</svg>
