<svg viewBox="0 0 192 192" xmlns="http://www.w3.org/2000/svg" xmlns:xlink="http://www.w3.org/1999/xlink" width="192.000000" height="192.000000" fill="none">
	<rect id="kugou lite" width="192.000000" height="192.000000" x="0.000000" y="0.000000" />
	<path id="矢量 7" d="M124.323 164.386C115.599 168.003 106.032 170 96 170C55.1309 170 22 136.869 22 96C22 55.1309 55.1309 22 96 22C136.869 22 170 55.1309 170 96C170 106.032 168.003 115.599 164.386 124.323C162.518 128.829 160.218 133.11 157.536 137.115M80.9846 47L75.9923 96L71 145M126 51L75.9923 96M122.738 145L75.9923 96M142.5 139.5L139 168L154 168" stroke="rgb(0,0,0)" stroke-linecap="round" stroke-linejoin="round" stroke-width="12" />
</svg>
