<svg viewBox="0 0 192 192" xmlns="http://www.w3.org/2000/svg" xmlns:xlink="http://www.w3.org/1999/xlink" width="192.000000" height="192.000000" fill="none">
	<rect id="kugou lite" width="192.000000" height="192.000000" x="0.000000" y="0.000000" />
	<path id="矢量 7" d="M117.527 166.82C115.212 167.523 112.848 168.115 110.443 168.591C105.772 169.515 100.942 170 96 170C55.1309 170 22 136.869 22 96C22 55.1309 55.1309 22 96 22C136.869 22 170 55.1309 170 96C170 106.032 168.003 115.599 164.386 124.323C163.452 126.576 162.41 128.773 161.266 130.907" stroke="rgb(0,0,0)" stroke-linecap="round" stroke-linejoin="round" stroke-width="12" />
	<path id="矢量 7" d="M142.5 141L141 169.5L154 169.5" stroke="rgb(0,0,0)" stroke-linecap="round" stroke-linejoin="round" stroke-width="10" />
	<path id="矢量 4" d="M81.7139 53L77.3569 95.72L73 138.44M121 56.4873L77.3569 95.72M118.154 138.44L77.3569 95.72" stroke="rgb(0,0,0)" stroke-linecap="round" stroke-linejoin="round" stroke-width="12" />
</svg>
