<svg xmlns="http://www.w3.org/2000/svg" width="192" height="192" fill="none" viewBox="0 0 192 192"><path stroke="#000" stroke-linecap="round" stroke-width="12" d="M22 53v20.5M22 85V73.5m0 0 7.585-7M43 53 29.585 66.5M45 85 29.585 66.5M106 53v20.5m0 11.5V73.5m0 0 7.585-7M127 53l-13.415 13.5M129 85l-15.415-18.5"/><path stroke="#000" stroke-linecap="round" stroke-linejoin="round" stroke-width="12" d="M102 139v-12m20-20h-14a6 6 0 0 0-6 6v14m0 0h18m22 12v-32l13.5 20.5L170 107v32"/><path stroke="#000" stroke-linecap="round" stroke-width="12" d="M147 53v20.5M63 53v20.5M170 53v20.5M86 53v20.5"/><path stroke="#000" stroke-width="12" d="M147 73.5a11.499 11.499 0 0 0 22.125 4.4 11.5 11.5 0 0 0 .875-4.4m-107 0a11.501 11.501 0 0 0 23 0"/></svg>