<svg width="192" height="192" viewBox="0 0 192 192" fill="none" xmlns="http://www.w3.org/2000/svg">
<path d="M118.646 144.045L103.957 127.63L103.061 126.587C101.204 124.425 98.6011 123.344 95.9984 123.344C93.3958 123.344 90.7931 124.425 88.9355 126.587L88.0401 127.63L73.352 144.045L69.2924 148.607C67.5257 150.592 64.9946 151.728 62.3369 151.728H49.4454C43.2336 151.728 39.8078 144.515 43.7327 139.7L53.1477 128.151L64.0106 114.539C67.5245 110.135 64.3894 103.623 58.756 103.623H44.5056C42.6675 103.623 40.867 103.076 39.3376 102.057C37.8349 101.055 36.6524 99.6353 35.9409 97.9752L34.2512 94.0325C33.0736 91.2846 33.2871 88.1382 34.8253 85.5745L36.4415 82.8808C36.8332 82.228 37.3035 81.6257 37.8417 81.0874L38.9596 79.9697C40.7056 78.2235 43.0738 77.2426 45.5431 77.2426H146.453C148.924 77.2426 151.292 78.2235 153.038 79.9697L154.155 81.0874C154.693 81.6257 155.164 82.228 155.556 82.8808L157.172 85.5745C158.709 88.1382 158.924 91.2846 157.746 94.0325L156.056 97.9752C155.345 99.6353 154.163 101.055 152.659 102.057C151.131 103.076 149.33 103.623 147.492 103.623H133.242C127.607 103.623 124.473 110.135 127.986 114.539L138.85 128.151L148.264 139.7C152.189 144.515 148.764 151.728 142.552 151.728H129.66C127.002 151.728 124.471 150.592 122.705 148.607L118.646 144.045Z" stroke="black" stroke-width="12" stroke-linejoin="round"/>
<path d="M96 77C106.284 77 114.243 68.9055 114.243 58.6213C114.243 48.337 105.906 40 95.6213 40C85.337 40 77 48.337 77 58.6213C77 68.9055 85.7158 77 96 77Z" stroke="black" stroke-width="12" stroke-linejoin="round"/>
</svg>
