<svg xmlns="http://www.w3.org/2000/svg" width="192" height="192" fill="none" viewBox="0 0 192 192"><g stroke="#000" stroke-linejoin="round" clip-path="url(#a)"><circle cx="107" cy="115" r="27" stroke-width="14"/><path stroke-linecap="round" stroke-width="14" d="M106.5 88a53.5 53.5 0 0 0-50.882 70.032"/><path stroke-linecap="round" stroke-width="14" d="M131.837 50.204a53.5 53.5 0 0 0-47.466 41.261"/><path stroke-linecap="round" stroke-width="12" d="M156 30H36a6 6 0 0 0-6 6v120a6 6 0 0 0 6 6h120a6 6 0 0 0 6-6V36a6 6 0 0 0-6-6Z"/></g><defs><clipPath id="a"><path fill="#fff" d="M0 0h192v192H0z"/></clipPath></defs></svg>