<?xml version="1.0" encoding="utf-8"?>
<!-- Generator: Adobe Illustrator 25.4.1, SVG Export Plug-In . SVG Version: 6.00 Build 0)  -->
<svg version="1.1" id="Layer_1" xmlns="http://www.w3.org/2000/svg" xmlns:xlink="http://www.w3.org/1999/xlink" x="0px" y="0px"
	 width="192px" height="192px" viewBox="0 0 192 192" style="enable-background:new 0 0 192 192;" xml:space="preserve">
<style type="text/css">
	.st0{fill:none;stroke:#000000;stroke-width:12;stroke-linejoin:round;stroke-miterlimit:10;}
</style>
<path class="st0" d="M134.7,32.1c0.8,1.3,2.5,1.7,3.8,1.1c4.3-2,7.3-1.3,8.2-1.1c7.1,1.9,12.5,12.7,10,26.3c0,0.1,0,0.2-0.1,0.3
	c-3.7,13.8-17.6,22.8-41.6,27c-1.4,0.3-2.9-0.5-3.4-1.9c-8.5-22.6-10.4-42.4,0.1-56.5c1.7-2.3,3.9-4.1,6.6-4.9
	C124.3,20.7,129.7,24.3,134.7,32.1z M168.8,119.5c-0.7-2.7-2.4-5-4.6-6.8c-13.8-11-33.5-9.7-56.5-2.1c-1.4,0.5-2.2,1.9-2,3.3
	c3.4,24.2,11.8,38.4,25.5,42.6c0.1,0,0.2,0.1,0.3,0.1c13.5,3,24.5-2,26.7-9c0.3-0.9,1.1-3.8-0.8-8.3c-0.6-1.4-0.1-3,1.2-3.8
	C166.5,130.8,170.4,125.6,168.8,119.5z M74.3,169.6c2.7-0.8,4.9-2.6,6.6-4.9c10.5-14.1,8.5-33.9,0.1-56.5c-0.5-1.4-1.9-2.2-3.4-1.9
	c-24.1,4.2-37.9,13.2-41.6,27c0,0.1-0.1,0.2-0.1,0.3c-2.5,13.6,2.9,24.4,10,26.3c0.9,0.2,3.9,0.9,8.2-1.1c1.4-0.6,3-0.2,3.8,1.1
	C62.9,167.7,68.3,171.3,74.3,169.6z M23.3,74.7c0.8,2.7,2.6,4.9,4.9,6.6c14.1,10.5,33.9,8.5,56.5,0.1c1.4-0.5,2.2-1.9,1.9-3.4
	c-4.2-24.1-13.2-37.9-27-41.6c-0.1,0-0.2-0.1-0.3-0.1c-13.6-2.5-24.4,2.9-26.3,10c-0.2,0.9-0.9,3.9,1.1,8.2c0.6,1.4,0.2,3-1.1,3.8
	C25.2,63.2,21.5,68.6,23.3,74.7z"/>
</svg>
