<svg xmlns="http://www.w3.org/2000/svg" width="192" height="192" viewBox="0 0 192 192"><path fill="none" stroke="#000" stroke-linejoin="round" stroke-width="12" d="M134.7 32.1c.8 1.3 2.5 1.7 3.8 1.1 4.3-2 7.3-1.3 8.2-1.1 7.1 1.9 12.5 12.7 10 26.3 0 .1 0 .2-.1.3-3.7 13.8-17.6 22.8-41.6 27-1.4.3-2.9-.5-3.4-1.9-8.5-22.6-10.4-42.4.1-56.5 1.7-2.3 3.9-4.1 6.6-4.9 6-1.7 11.4 1.9 16.4 9.7zm34.1 87.4c-.7-2.7-2.4-5-4.6-6.8-13.8-11-33.5-9.7-56.5-2.1-1.4.5-2.2 1.9-2 3.3 3.4 24.2 11.8 38.4 25.5 42.6.1 0 .2.1.3.1 13.5 3 24.5-2 26.7-9 .3-.9 1.1-3.8-.8-8.3-.6-1.4-.1-3 1.2-3.8 7.9-4.7 11.8-9.9 10.2-16zm-94.5 50.1c2.7-.8 4.9-2.6 6.6-4.9 10.5-14.1 8.5-33.9.1-56.5-.5-1.4-1.9-2.2-3.4-1.9-24.1 4.2-37.9 13.2-41.6 27 0 .1-.1.2-.1.3-2.5 13.6 2.9 24.4 10 26.3.9.2 3.9.9 8.2-1.1 1.4-.6 3-.2 3.8 1.1 5 7.8 10.4 11.4 16.4 9.7zm-51-94.9c.8 2.7 2.6 4.9 4.9 6.6 14.1 10.5 33.9 8.5 56.5.1 1.4-.5 2.2-1.9 1.9-3.4-4.2-24.1-13.2-37.9-27-41.6-.1 0-.2-.1-.3-.1-13.6-2.5-24.4 2.9-26.3 10-.2.9-.9 3.9 1.1 8.2.6 1.4.2 3-1.1 3.8-7.8 4.9-11.5 10.3-9.7 16.4z"/></svg>