<svg width="192" height="192" viewBox="0 0 192 192" fill="none" xmlns="http://www.w3.org/2000/svg"><path d="m63 81 13 13 11-27 16 24 15-13 6 19 17-20m-21 54 16 22m-25-12 25 12" stroke="#000" stroke-width="12" stroke-linecap="round" stroke-linejoin="round"/><path d="m74 123.5 2 10.5 19 15m6-31-7-7" stroke="#000" stroke-width="10" stroke-linecap="round" stroke-linejoin="round"/><path d="M110 163c-4.287 4.415-9.569 7-16 7-32 0-42-33-42-45 0-21 11-21 11-37S48 56 48 56h20V22l42 26V22c24 26 34 50 34 74 0 8.163-4.406 16.082-8.858 22" stroke="#000" stroke-width="12" stroke-linecap="round" stroke-linejoin="round"/></svg>