<?xml version="1.0" encoding="UTF-8"?>
<svg width="24" height="24" version="1.1" viewBox="0 0 24 24" xmlns="http://www.w3.org/2000/svg">
 <path d="m12 5.078-6.3858 6.3858v9.3822h12.772v-9.3822z" fill="none" stroke="#000" stroke-linecap="round" stroke-linejoin="round" stroke-width=".4561"/>
 <path d="m12 2.9875-1.0453 1.0452-8.8931 8.8931 1.0453 1.0453 8.8931-8.8931 8.8931 8.8931 1.0453-1.0453-8.8931-8.8931z" color="#000000" stroke="#000" stroke-linecap="round" stroke-linejoin="round" stroke-width=".12319" style="-inkscape-stroke:none"/>
 <g fill="none" stroke="#000" stroke-linecap="round" stroke-linejoin="round" stroke-width=".4561">
  <rect x="10.522" y="12.369" width="2.9565" height="2.9565" ry=".60942"/>
  <rect x="10.522" y="16.065" width="2.9565" height="2.9565" ry=".60942"/>
  <rect x="14.217" y="12.369" width="2.9565" height="2.9565" ry=".60942"/>
  <rect x="14.217" y="16.065" width="2.9565" height="2.9565" ry=".60942"/>
  <rect x="6.8261" y="12.369" width="2.9565" height="2.9565" ry=".60942"/>
  <rect x="6.8261" y="16.065" width="2.9565" height="2.9565" ry=".60942"/>
 </g>
 <path d="m15.472 18.138v0.51809h-0.22017v-1.5365c0-0.13584 0.0403-0.24265 0.11992-0.32228 0.0787-0.0796 0.18831-0.11992 0.32322-0.11992 0.13023 0 0.23047 0.0318 0.30542 0.0937 0.074 0.0637 0.11055 0.15177 0.11055 0.26326 0 0.0768-0.0244 0.14896-0.0731 0.21548-0.0487 0.0665-0.11149 0.11242-0.18925 0.13772v4e-3c0.11711 0.0187 0.20798 0.0609 0.26982 0.12929 0.0618 0.0665 0.0927 0.15177 0.0927 0.2567 0 0.12367-0.0431 0.22485-0.12835 0.30261-0.0862 0.0778-0.19862 0.11617-0.33915 0.11617-0.0993 0-0.19018-0.0197-0.27169-0.0581m0.13959-0.64082v-0.17987c0.0815-0.0103 0.14803-0.0403 0.20143-0.0909 0.0525-0.0515 0.0787-0.10868 0.0787-0.17426 0-0.12929-0.0665-0.19487-0.19768-0.19487-0.0712 0-0.12648 0.0225-0.16489 0.0684-0.0384 0.0459-0.0572 0.10962-0.0572 0.193v0.82351c0.0853 0.0496 0.16863 0.074 0.24921 0.074 0.0787 0 0.14053-0.0206 0.18456-0.0609 0.044-0.0412 0.0656-0.0993 0.0656-0.17332 0-0.1677-0.11992-0.26138-0.35976-0.28481z" fill-rule="evenodd"/>
</svg>
