<svg width="192" height="192" viewBox="0 0 192 192" fill="none" xmlns="http://www.w3.org/2000/svg"><path d="M40 170v-30a6.002 6.002 0 0 1 6-6h100c1.591 0 3.117.632 4.243 1.757A6.003 6.003 0 0 1 152 140v30M36 54l60-32 60 32" stroke="#000" stroke-width="12" stroke-linecap="round" stroke-linejoin="round"/><path d="M132 101.5v-17a8.5 8.5 0 0 1 8.5-8.5h17a8.5 8.5 0 0 1 8.5 8.5v17a8.5 8.5 0 0 1-8.5 8.5h-17a8.5 8.5 0 0 1-8.5-8.5ZM95 74l-19 36h38L95 74Z" stroke="#000" stroke-width="10" stroke-linecap="round" stroke-linejoin="round"/><path d="M44 109c9.389 0 17-7.611 17-17s-7.611-17-17-17-17 7.611-17 17 7.611 17 17 17Z" stroke="#000" stroke-width="12" stroke-linecap="round" stroke-linejoin="round"/></svg>