<?xml version="1.0" encoding="UTF-8" standalone="no"?>
<!-- Created with Inkscape (http://www.inkscape.org/) -->

<svg
   width="192"
   height="192"
   viewBox="0 0 192 192"
   version="1.1"
   xml:space="preserve"
   xmlns="http://www.w3.org/2000/svg"
   xmlns:svg="http://www.w3.org/2000/svg">
<path
   style="fill:none;stroke:#000;stroke-width:12;stroke-linecap:round;stroke-linejoin:round"
   d="M 101.103,36.032339 156.7475,70.444601 A 8.9710483,8.9710483 60.866957 0 1 161,78.074477 L 161,139.12341 A 8,8 135 0 1 153,147.12341 H 39 A 8,8 45 0 1 31,139.12341 L 31,78.074477 A 8.9710483,8.9710483 119.13304 0 1 35.2525,70.444601 L 90.897,36.032339 A 9.7019779,9.7019779 0 0 1 101.103,36.032339 Z
   M 57.250089,83.912274 H 85.057276 V 97.16158 L 79.005124,105.66731 H 62.075454 L 57.250089,110.81982 V 126.68627 H 85.057276
   M 129,127 V 84 H 121 L 104,109 V 115 H 137" />
</svg>
