<?xml version="1.0" encoding="UTF-8" standalone="no"?>
<!-- Created with Inkscape (http://www.inkscape.org/) -->

<svg
   width="192"
   height="192"
   viewBox="0 0 192 192"
   version="1.1"
   xml:space="preserve"
   xmlns="http://www.w3.org/2000/svg"
   xmlns:svg="http://www.w3.org/2000/svg">
  <path
   style="fill:none;stroke:#000;stroke-width:12;stroke-linecap:round;stroke-linejoin:round"
   d="M 101.57404,34.167475 162.35496,71.785861 A 9.7991449,9.8068631 0 0 1 167,80.126597 V 146.86334 A 8.7384613,8.7453443 0 0 1 158.26153,155.60869 H 33.738461 A 8.7384613,8.7453443 0 0 1 25.000001,146.86334 V 80.126597 A 9.7991449,9.8068631 0 0 1 29.645038,71.785861 L 90.425954,34.167475 A 10.597544,10.605892 0 0 1 101.57404,34.167475 Z
   M 53.847062,86.506551 H 84.700373 V 101.07208 C 82.461996,104.189 80.223621,107.30591 77.985241,110.42281 H 59.201019 C 57.531784,112.50125 55.010086,114.24595 53.847062,116.52257 V 133.52986 H 84.700373
   M 129.41407,133.52986 V 86.506551 H 120.6752 L 102.10511,113.84568 V 120.40707 H 138.15294" />
</svg>
