<svg width="192" height="192" viewBox="0 0 192 192" fill="none" xmlns="http://www.w3.org/2000/svg"><path d="M156 164v-52a6 6 0 0 0-6-6H82a6 6 0 0 0-6 6v52a6 6 0 0 0 6 6h68a6 6 0 0 0 6-6Zm-124-4.708v-42.584c0-4.46 4.694-7.361 8.683-5.366L76 129v18l-35.317 17.658c-3.99 1.995-8.683-.906-8.683-5.366Z" stroke="#000" stroke-width="12" stroke-linecap="round" stroke-linejoin="round"/><circle cx="78" cy="52" r="30" stroke="#000" stroke-width="12" stroke-linecap="round" stroke-linejoin="round"/><circle cx="132" cy="57" r="24" stroke="#000" stroke-width="12" stroke-linecap="round" stroke-linejoin="round"/></svg>