<?xml version="1.0" encoding="UTF-8" standalone="no"?>
<!-- Created with Inkscape (http://www.inkscape.org/) -->

<svg
   width="24"
   height="24"
   viewBox="0 0 6.3499999 6.3500002"
   version="1.1"
   id="svg8"
   inkscape:version="1.1.1 (3bf5ae0d25, 2021-09-20)"
   sodipodi:docname="kwgt.svg"
   xmlns:inkscape="http://www.inkscape.org/namespaces/inkscape"
   xmlns:sodipodi="http://sodipodi.sourceforge.net/DTD/sodipodi-0.dtd"
   xmlns="http://www.w3.org/2000/svg"
   xmlns:svg="http://www.w3.org/2000/svg"
   xmlns:rdf="http://www.w3.org/1999/02/22-rdf-syntax-ns#"
   xmlns:cc="http://creativecommons.org/ns#"
   xmlns:dc="http://purl.org/dc/elements/1.1/">
  <defs
     id="defs2">
    <marker
       inkscape:stockid="Arrow1Lend"
       orient="auto"
       refY="0.0"
       refX="0.0"
       id="Arrow1Lend"
       style="overflow:visible;"
       inkscape:isstock="true">
      <path
         id="path844"
         d="M 0.0,0.0 L 5.0,-5.0 L -12.5,0.0 L 5.0,5.0 L 0.0,0.0 z "
         style="fill-rule:evenodd;stroke:#000000;stroke-width:1.0pt;"
         transform="scale(0.8) rotate(180) translate(12.5,0)" />
    </marker>
    <marker
       inkscape:stockid="Arrow1Lstart"
       orient="auto"
       refY="0.0"
       refX="0.0"
       id="Arrow1Lstart"
       style="overflow:visible"
       inkscape:isstock="true">
      <path
         id="path841"
         d="M 0.0,0.0 L 5.0,-5.0 L -12.5,0.0 L 5.0,5.0 L 0.0,0.0 z "
         style="fill-rule:evenodd;stroke:#000000;stroke-width:1.0pt"
         transform="scale(0.8) translate(12.5,0)" />
    </marker>
    <pattern
       y="0"
       x="0"
       height="6"
       width="6"
       patternUnits="userSpaceOnUse"
       id="EMFhbasepattern" />
    <pattern
       y="0"
       x="0"
       height="6"
       width="6"
       patternUnits="userSpaceOnUse"
       id="EMFhbasepattern-1" />
    <pattern
       y="0"
       x="0"
       height="6"
       width="6"
       patternUnits="userSpaceOnUse"
       id="EMFhbasepattern-6" />
    <pattern
       y="0"
       x="0"
       height="6"
       width="6"
       patternUnits="userSpaceOnUse"
       id="EMFhbasepattern-15" />
    <pattern
       y="0"
       x="0"
       height="6"
       width="6"
       patternUnits="userSpaceOnUse"
       id="EMFhbasepattern-17" />
    <pattern
       y="0"
       x="0"
       height="6"
       width="6"
       patternUnits="userSpaceOnUse"
       id="EMFhbasepattern-2" />
    <pattern
       y="0"
       x="0"
       height="6"
       width="6"
       patternUnits="userSpaceOnUse"
       id="EMFhbasepattern-3" />
    <pattern
       y="0"
       x="0"
       height="6"
       width="6"
       patternUnits="userSpaceOnUse"
       id="EMFhbasepattern-61" />
  </defs>
  <sodipodi:namedview
     id="base"
     pagecolor="#ffffff"
     bordercolor="#666666"
     borderopacity="1.0"
     inkscape:pageopacity="0.0"
     inkscape:pageshadow="2"
     inkscape:zoom="16"
     inkscape:cx="1.03125"
     inkscape:cy="21.53125"
     inkscape:document-units="px"
     inkscape:current-layer="layer2"
     showgrid="false"
     units="px"
     inkscape:window-width="1920"
     inkscape:window-height="1017"
     inkscape:window-x="-8"
     inkscape:window-y="-8"
     inkscape:window-maximized="1"
     inkscape:pagecheckerboard="0" />
  <metadata
     id="metadata5">
    <rdf:RDF>
      <cc:Work
         rdf:about="">
        <dc:format>image/svg+xml</dc:format>
        <dc:type
           rdf:resource="http://purl.org/dc/dcmitype/StillImage" />
      </cc:Work>
    </rdf:RDF>
  </metadata>
  <g
     inkscape:groupmode="layer"
     id="layer2"
     inkscape:label="Layer 2">
    <path
       id="path5916"
       d="m 1.8799136,0.52916665 c 0.203361,0 0.284698,0.1156505 0.2815483,0.52823095 v 4.2383322 c 0.00312,0.4094567 -0.078224,0.5251035 -0.2815483,0.5251035 H 1.3950191 c -0.203324,0 -0.284661,-0.1156504 -0.2815483,-0.5251035 V 1.0573976 C 1.1103508,0.64481715 1.1916948,0.52916665 1.3950191,0.52916665 Z M 4.9300548,5.8177095 H 3.9915482 c -0.1689365,0 -0.3097106,-0.1375132 -0.3097106,-0.3063014 V 4.5737129 c 0,-0.1687882 0.1407741,-0.3094512 0.3097106,-0.3094512 h 0.9385066 c 0.1689365,0 0.3065609,0.140663 0.3065609,0.3094512 v 0.9376842 c 0,0.1687881 -0.1376615,0.3063013 -0.3065609,0.3063013 z M 4.5577796,4.433061 h 0.3347231 c 0.025198,0 0.046912,0.021863 0.046912,0.046875 v 0.2219256 c 0,0.024827 -0.021863,0.043763 -0.046912,0.043763 H 4.5577796 c -0.025197,0 -0.0438,-0.018899 -0.0438,-0.043763 V 4.4799363 c 0,-0.024827 0.018899,-0.046876 0.0438,-0.046875 z m -0.4974081,0 h 0.2659108 c 0.0438,0 0.081337,0.034461 0.081337,0.07815 v 0.5251036 c 0,0.043763 -0.037538,0.081263 -0.081337,0.081263 H 4.0603715 c -0.0438,0 -0.078187,-0.0375 -0.078187,-0.081263 V 4.5112001 c 0,-0.043763 0.034461,-0.07815 0.078187,-0.07815 z m 0.1345118,0.7907809 c 0.1157616,0 0.212736,0.0969 0.212736,0.212551 0,0.118763 -0.096974,0.2125507 -0.212736,0.2125507 -0.1188744,0 -0.2127362,-0.093788 -0.2127362,-0.2125507 0,-0.1156506 0.093862,-0.212551 0.2127362,-0.212551 z M 4.5921858,4.8550277 h 0.2659108 c 0.0438,0 0.081337,0.0375 0.081337,0.081263 v 0.6345027 c 0,0.043763 -0.037538,0.07815 -0.081337,0.07815 H 4.5921858 c -0.0438,0 -0.078224,-0.034461 -0.078224,-0.07815 V 4.9362907 c 0,-0.043763 0.034461,-0.081263 0.078224,-0.081263 z M 2.4930612,3.176573 c -0.00312,0.1031256 0.053175,0.1844257 0.1876865,0.3188262 l 0.732033,0.7282681 c 0.053174,0.053138 0.096974,0.087525 0.1157616,0.1781633 0.025198,-0.068775 0.062587,-0.1281382 0.112612,-0.1781633 0.090712,-0.090638 0.2127361,-0.1437756 0.3503605,-0.1437756 H 4.5890286 C 4.5859011,3.9642413 4.5671659,3.8798656 4.4951668,3.8079779 L 3.8757532,3.1766064 4.4951668,2.5452311 c 0.093862,-0.0969 0.096974,-0.2125508 0.093862,-0.400078 V 0.61985275 L 4.4889045,0.53547725 C 4.1353942,0.52287845 3.9132868,0.56993855 3.6974343,0.88242865 3.4846982,1.18873 3.5347603,1.398157 3.5347603,1.866999 c 0,0.1594132 -0.056325,0.1938008 -0.121987,0.2594262 L 2.6807403,2.8546934 C 2.5462286,2.989094 2.489904,3.0734695 2.4930538,3.1766323 Z"
       style="display:inline;fill:#000000;fill-opacity:1;fill-rule:evenodd;stroke:none;stroke-width:0.08274481"
       inkscape:connector-curvature="0" />
  </g>
</svg>
