<svg xmlns="http://www.w3.org/2000/svg" width="256" height="256" viewBox="0 0 192 192" preserveAspectRatio="xMidYMid meet" xmlns:v="https://vecta.io/nano"><path d="M38.5 27.7C34.1 30 30.1 34 27.9 38.2 26.1 41.7 26 44.7 26 96s.1 54.3 1.9 57.8c2.2 4.3 6.3 8.3 10.8 10.6 2.8 1.4 9.5 1.6 57.3 1.6 51.3 0 54.3-.1 57.8-1.9 4.3-2.2 8.3-6.3 10.6-10.8 1.4-2.8 1.6-9.5 1.6-57.3s-.2-54.5-1.6-57.3c-2.3-4.5-6.3-8.6-10.6-10.8-3.5-1.8-6.5-1.9-58-1.9-47.5.1-54.7.3-57.3 1.7zM149 38.5c6.1 3.1 6 2.5 6 57.5s.1 54.4-6 57.5c-4.4 2.3-101.6 2.3-106 0-6.1-3.1-6-2.5-6-57.5 0-54.7 0-54.3 5.8-57.4 4.1-2.3 101.9-2.3 106.2-.1zM75.5 51.2c-.3.7-.4 15-.3 31.8l.3 30.5 3.9.3c2.2.2 5 .1 6.3-.3l2.3-.5-.2-31.3-.3-31.2-5.8-.3c-4-.2-5.9.1-6.2 1zm33.4.3c-3.2 1.7-4.9 6.1-4.9 12.4 0 4.4-.4 5-6 10.6-3.3 3.3-6 6.6-6 7.5s2.7 4.2 5.9 7.4c5.8 5.7 5.9 5.9 6.3 12.3.4 5.9.8 6.9 3.6 9.4 3.6 3.2 8.6 3.9 9.6 1.3.3-.9.6-5.8.6-11v-9.5l-4.6-4.9-4.7-5 4.7-5 4.7-5-.3-10.7-.3-10.8-3-.2c-1.6-.2-4.2.4-5.6 1.2zm-34.4 71.8c-3 3-3.5 4.2-3.5 8.2 0 6.4 3.9 10.5 10 10.5 4.7 0 9.5-2.1 11-5 .7-1.3 2.1-2 4-2 2.5 0 3 .4 3 2.4 0 5.6 5.9 6.1 7.6.6 1-3.1 1.2-3.2 1.8-1.2 1 2.9 6.2 3.1 7.1.3.3-1.2 1.7-2.1 3.3-2.3 2.1-.2 2.8-.9 3-3.2.2-1.6-.2-3.2-1-3.7-.7-.5-7.3-.9-14.6-.9H93l-2.8-3.1c-2.1-2.4-3.9-3.2-7.5-3.6-4.3-.5-4.9-.3-8.2 3z"/></svg>