<svg xmlns="http://www.w3.org/2000/svg" width="192" height="192" fill="none" viewBox="0 0 192 192"><path stroke="#000" stroke-linejoin="round" stroke-width="12" d="M139.065 166.821a20.504 20.504 0 0 1-16.315 2.469l-20.056-5.421a74.194 74.194 0 0 0-31.828-1.515l-1.776.303a70.212 70.212 0 0 1-20.071.508l-13.294-1.579a15.89 15.89 0 0 0-4.28.069c-2.455.372-4.587-1.703-4.28-4.166l3.444-27.689c.206-1.659.58-3.294 1.114-4.879l.678-2.007a58.016 58.016 0 0 0-.682-39l-2.316-6.15-4.891-18.79c-1.792-6.882-2.59-14.029-2.506-21.233l.116-15.583c.744-.017 1.613-.034 2.63-.048 6.792-.096 19.407-.11 42.993-.11 24.24 0 39.456.072 46.491.213l1.302 6.431a74.23 74.23 0 0 1-5.625 46.41l-4.543 9.623c-2.446 5.181 1.089 11.199 6.808 11.59l54.049 3.703-.08.575a85.299 85.299 0 0 0 .788 28.068l1.711 8.733a19.04 19.04 0 0 1 .186 6.178l-1.284 9.612a4.15 4.15 0 0 1-2.956 3.435 6.346 6.346 0 0 0-1.685.771l-1.05.679a20.803 20.803 0 0 0-15.112 3.445l-7.68 5.355z"/></svg>