<svg xmlns="http://www.w3.org/2000/svg" width="192" height="192" fill="none"><path stroke="#000" stroke-linecap="round" stroke-linejoin="round" stroke-width="12" d="M25 31a6 6 0 0 1 6-6h130a6 6 0 0 1 6 6v130a6 6 0 0 1-6 6H31a6 6 0 0 1-6-6z"/><path stroke="#000" stroke-linecap="round" stroke-linejoin="round" stroke-width="10" d="M129 25 69 167M63 25l32.535 77M96 25 77 56m38 0H77m19-31 19 31"/><path stroke="#000" stroke-linecap="round" stroke-linejoin="round" stroke-width="12" d="M145 134h-24"/><path stroke="#000" stroke-linecap="round" stroke-linejoin="round" stroke-width="10" d="m127 60 13 20-58 57m52.5-112 9.5 31-30.5 6M65 60 52 80l37.14 36.5M57.5 25 48 56l30.5 6"/></svg>