<?xml version="1.0" encoding="UTF-8" standalone="no"?>
<!-- Created with Inkscape (http://www.inkscape.org/) -->

<svg
   version="1.1"
   id="svg2"
   width="192"
   height="192"
   viewBox="0 0 192 192"
   sodipodi:docname="labcoat.svg"
   xmlns:inkscape="http://www.inkscape.org/namespaces/inkscape"
   xmlns:sodipodi="http://sodipodi.sourceforge.net/DTD/sodipodi-0.dtd"
   xmlns="http://www.w3.org/2000/svg"
   xmlns:svg="http://www.w3.org/2000/svg">
  <defs
     id="defs6" />
  <sodipodi:namedview
     id="namedview4"
     pagecolor="#ffffff"
     bordercolor="#000000"
     borderopacity="0.25"
     inkscape:showpageshadow="2"
     inkscape:pageopacity="0.0"
     inkscape:pagecheckerboard="0"
     inkscape:deskcolor="#d1d1d1"
     showgrid="false"
     showguides="true">
    <sodipodi:guide
       position="33.088983,175.9911"
       orientation="0,-1"
       id="guide567"
       inkscape:locked="false" />
    <sodipodi:guide
       position="124.74232,16.006223"
       orientation="0,-1"
       id="guide569"
       inkscape:locked="false" />
  </sodipodi:namedview>
  <g
     inkscape:groupmode="layer"
     inkscape:label="Image"
     id="g8">
    <path
       style="fill:#000000;fill-opacity:0;stroke:#000000;stroke-width:8;stroke-linecap:round;stroke-linejoin:round;stroke-miterlimit:6;stroke-dasharray:none;paint-order:stroke fill markers"
       d="m 151.78146,39.002799 12.62812,3.526344 c 0,0 4.57194,0.992753 4.57194,6.837055 V 163.96412 c 0,0 -0.0957,8.10789 -8.10787,8.10789 H 32.752895 c 0,0 -9.649379,0.94095 -9.649379,-8.42486 V 48.761811 c 0,0 0.863929,-6.303445 7.851592,-7.85159 8.498371,-1.882846 14.234782,-3.169047 14.234782,-3.169047 0,0 11.668686,-17.769983 24.075809,-17.835095 12.407123,-0.06512 56.639811,0 56.639811,0 0,0 12.7526,-0.345472 25.87595,19.09672 z"
       id="path302"
       sodipodi:nodetypes="ccscscscscscc" />
    <path
       style="fill:#000000;fill-opacity:0;stroke:#000000;stroke-width:8;stroke-linecap:round;stroke-linejoin:round;stroke-miterlimit:6;stroke-dasharray:none;paint-order:stroke fill markers"
       d="M 112.31797,171.52468 V 119.0834 h 54.57156"
       id="path304" />
    <path
       style="fill:#000000;fill-opacity:0;stroke:#000000;stroke-width:8;stroke-linecap:round;stroke-linejoin:round;stroke-miterlimit:6;stroke-dasharray:none;paint-order:stroke fill markers"
       d="M 167.9926,127.69722 H 114.89483"
       id="path306" />
    <path
       style="fill:#000000;fill-opacity:0;stroke:#000000;stroke-width:8;stroke-linecap:round;stroke-linejoin:round;stroke-miterlimit:6;stroke-dasharray:none;paint-order:stroke fill markers"
       d="m 87.447799,170.56104 v -54.7784 L 124.72433,22.01568"
       id="path308" />
    <path
       style="fill:#000000;fill-opacity:0;stroke:#000000;stroke-width:8;stroke-linecap:round;stroke-linejoin:round;stroke-miterlimit:6;stroke-dasharray:none;paint-order:stroke fill markers"
       d="m 149.97595,39.902865 -7.56131,6.388553 c 0,0 -2.3218,2.156328 0,4.826652 2.32178,2.670323 4.56467,5.932776 4.56467,5.932776 0,0 1.32903,1.128338 -0.35926,3.059458 -1.68829,1.931119 -58.536374,53.912146 -58.536374,53.912146"
       id="path312"
       sodipodi:nodetypes="ccscsc" />
    <path
       style="fill:#000000;fill-opacity:0;stroke:#000000;stroke-width:8;stroke-linecap:round;stroke-linejoin:round;stroke-miterlimit:6;stroke-dasharray:none;paint-order:stroke fill markers"
       d="m 124.43936,73.860249 7.13619,17.410724 18.39274,0.387602 6.92553,-17.956125 9.61808,27.13681 -25.06934,18.21503 -25.35275,-17.26671 z"
       id="path314" />
    <path
       style="fill:#000000;fill-opacity:0;stroke:#000000;stroke-width:8;stroke-linecap:round;stroke-linejoin:round;stroke-miterlimit:6;stroke-dasharray:none;paint-order:stroke fill markers"
       d="M 97.465725,87.877149 71.349256,20.593192"
       id="path316"
       sodipodi:nodetypes="cc" />
    <path
       style="fill:#000000;fill-opacity:0;stroke:#000000;stroke-width:8;stroke-linecap:round;stroke-linejoin:round;stroke-miterlimit:6;stroke-dasharray:none;paint-order:stroke fill markers"
       d="M 81.885007,42.112048 H 113.6738"
       id="path318" />
    <path
       style="fill:#000000;fill-opacity:0;stroke:#000000;stroke-width:8;stroke-linecap:round;stroke-linejoin:round;stroke-miterlimit:6;stroke-dasharray:none;paint-order:stroke fill markers"
       d="M 90.331074,100.52979 50.535134,61.163574 c 0,0 -2.006189,-2.865659 0.02682,-5.13459 2.033,-2.268932 5.419548,-7.424971 5.419548,-7.424971 L 46.625403,38.494166"
       id="path320" />
    <circle
       style="fill:#000000;fill-opacity:0;stroke:#000000;stroke-width:8;stroke-linecap:round;stroke-linejoin:round;stroke-miterlimit:6;stroke-dasharray:none;paint-order:stroke fill markers"
       id="path530"
       cx="95.920166"
       cy="135.98247"
       r="2.181509" />
    <path
       style="fill:#000000;fill-opacity:0;stroke:#000000;stroke-width:8;stroke-linecap:round;stroke-linejoin:round;stroke-miterlimit:6;stroke-dasharray:none;paint-order:stroke fill markers"
       d="m 96.038924,134.96119 -0.310232,2.69636"
       id="path532" />
    <circle
       style="fill:#000000;fill-opacity:0;stroke:#000000;stroke-width:8;stroke-linecap:round;stroke-linejoin:round;stroke-miterlimit:6;stroke-dasharray:none;paint-order:stroke fill markers"
       id="path530-3"
       cx="95.920158"
       cy="165.26617"
       r="2.181509" />
    <path
       style="fill:#000000;fill-opacity:0;stroke:#000000;stroke-width:8;stroke-linecap:round;stroke-linejoin:round;stroke-miterlimit:6;stroke-dasharray:none;paint-order:stroke fill markers"
       d="m 95.775951,164.24488 -0.310233,2.69634"
       id="path532-6" />
  </g>
</svg>
