<svg width="192" height="192" viewBox="0 0 192 192" fill="none" xmlns="http://www.w3.org/2000/svg">
<path d="M48 170L60.5 146.5M60.5 146.5L84.5 98.5C58 88.5 24 40 24 40L101 66.5C101 66.5 103.262 49.506 110.5 44C117.649 38.5617 136 44 136 44C136 44 130.5 77.5 117 95.5C103.5 113.5 76.5 114.5 60.5 146.5Z" stroke="black" stroke-width="12" stroke-linecap="round" stroke-linejoin="round"/>
<path d="M171.346 25.111C172.39 24.3477 173.093 23.1849 173.312 21.894C173.529 20.6022 173.244 19.2881 172.508 18.225C171.772 17.162 170.643 16.4326 169.357 16.1816C168.072 15.9315 166.736 16.1803 165.654 16.889C165.654 16.889 165.654 16.889 165.654 16.889C165.103 17.2503 164.552 17.6116 164 17.9729C154.08 24.4763 144.159 30.9796 134.238 37.483C133.687 37.8443 133.136 38.2056 132.585 38.5668C131.253 39.4391 130.338 40.7981 130.054 42.3643C129.769 43.9294 130.138 45.5733 131.067 46.9153C131.996 48.2572 133.405 49.1815 134.97 49.4656C136.536 49.7508 138.13 49.3725 139.415 48.4332C139.415 48.4332 139.415 48.4332 139.415 48.4332C139.947 48.0445 140.48 47.6557 141.012 47.267C150.591 40.2704 160.17 33.2737 169.75 26.2771C170.282 25.8884 170.814 25.4997 171.346 25.111Z" fill="black"/>
</svg>
