<svg width="192" height="192" viewBox="0 0 192 192" fill="none" xmlns="http://www.w3.org/2000/svg">
<path d="M48 170L60.5 146.5M60.5 146.5L81.5 101C55 91 24 40 24 40L101 66.5C101 66.5 103.262 49.506 110.5 44C117.649 38.5617 136 44 136 44C136 44 130.5 77.5 117 95.5C103.5 113.5 76.5 114.5 60.5 146.5Z" stroke="black" stroke-width="12" stroke-linecap="round" stroke-linejoin="round"/>
<path d="M90.5 83.5L43 67" stroke="black" stroke-width="10" stroke-linecap="round" stroke-linejoin="round"/>
<path d="M171.859 25.102C172.902 24.3356 173.602 23.1707 173.816 21.8788C174.03 20.5861 173.741 19.2724 173.001 18.2112C172.262 17.1501 171.129 16.424 169.842 16.1772C168.556 15.9314 167.221 16.1851 166.141 16.898C166.141 16.898 166.141 16.898 166.141 16.898C165.582 17.2677 165.022 17.6373 164.462 18.007C154.391 24.6609 144.319 31.3148 134.248 37.9686C133.688 38.3383 133.129 38.708 132.569 39.0776C131.241 39.9546 130.33 41.317 130.051 42.8841C129.771 44.45 130.145 46.0924 131.078 47.4308C132.01 48.7692 133.422 49.6886 134.988 49.9678C136.555 50.248 138.148 49.8652 139.431 48.9224C139.431 48.9224 139.431 48.9224 139.431 48.9224C139.971 48.5254 140.512 48.1284 141.052 47.7314C150.781 40.5853 160.509 33.4391 170.238 26.293C170.778 25.896 171.318 25.499 171.859 25.102Z" fill="black"/>
</svg>
