<svg xmlns="http://www.w3.org/2000/svg" width="192" height="192" fill="none" stroke="#000" stroke-linecap="round" stroke-linejoin="round" stroke-width="12" viewBox="0 0 192 192"><path d="M96 129v41m71.479-54.847A74.007 74.007 0 0 1 96 170a73.998 73.998 0 0 1-71.478-54.847m66.831-93.007a74.007 74.007 0 0 1 9.294 0m18.22 3.476c2.949.958 5.835 2.1 8.641 3.42m-54.375-3.42a74.012 74.012 0 0 0-8.64 3.42M143.07 38.9a73.993 73.993 0 0 1 6.785 6.35M48.93 38.9a73.984 73.984 0 0 0-6.785 6.35m118.702 15.1a74.052 74.052 0 0 1 3.956 8.409M31.153 60.35a74.006 74.006 0 0 0-3.956 8.409m142.251 18.223c.378 3.077.562 6.176.552 9.276M22.552 86.982A73.982 73.982 0 0 0 22 96.258"/><path d="M86 68c0-12 10-23 10-23s10 11 10 23c0 15.5-10 23-10 23s-10-7-10-23zm-20 40c-8.485-8.485-10-26-10-26s9.515 1.515 18 10c10.96 10.96 10 24 10 24s-6.686 3.314-18-8zm60 0c8.485-8.485 10-26 10-26s-9.515 1.515-18 10c-10.96 10.96-10 24-10 24s6.686 3.314 18-8z"/><path stroke-width="8" d="M38 138c26-19 70 17 116-2m-90 24s6-8 31-8 33 8 33 8"/></svg>