<svg width="192" height="192" fill="none" xmlns="http://www.w3.org/2000/svg"><path d="M28 72h136M28 120h68m0-98c-16.569 0-30 33.13-30 74 0 40.869 13.431 74 30 74-40.87 0-74-33.131-74-74 0-40.87 33.13-74 74-74Zm0 0c16.569 0 30 33.13 30 74M96 22c40.869 0 74 33.13 74 74" stroke="#000" stroke-width="12" stroke-linecap="round" stroke-linejoin="round"/><path d="M113.995 120h27.923m15.993-6v14.604m0-7.302H172m0 20.396h-27.923m-15.993-6v14.604m0-7.302h-14.089m.001 20.396h16.538m15.972-6V172m0-7.302H172" stroke="#000" stroke-width="8" stroke-linecap="round" stroke-linejoin="round"/></svg>