<svg width="192" height="192" fill="none" xmlns="http://www.w3.org/2000/svg"><path d="M141 153v16m-16-42v16m28-42v16m-40 44h58m-58-26h58m-58-26h58" stroke="#000" stroke-width="10" stroke-linecap="round" stroke-linejoin="round"/><path d="M28 72h136M28 120h69m-1-98c-16.569 0-30 33.13-30 74 0 40.869 13.431 74 30 74-40.87 0-74-33.131-74-74 0-40.87 33.13-74 74-74Zm0 0c15.75 0 28.665 29.936 29.903 68M96 22c38.849 0 70.706 29.936 73.76 68" stroke="#000" stroke-width="12" stroke-linecap="round" stroke-linejoin="round"/></svg>