<svg xmlns="http://www.w3.org/2000/svg" width="192" height="192" fill="none"><path stroke="#000" stroke-linecap="round" stroke-linejoin="round" stroke-width="10" d="M141 153v16m-16-42v16m28-42v16m-40 44h58m-58-26h58m-58-26h58"/><path stroke="#000" stroke-linecap="round" stroke-linejoin="round" stroke-width="12" d="M28 72h136M28 120h69m-1-98c-16.569 0-30 33.13-30 74s13.431 74 30 74c-40.87 0-74-33.131-74-74s33.13-74 74-74m0 0c15.75 0 28.665 29.936 29.903 68M96 22c38.849 0 70.706 29.936 73.76 68"/></svg>