<?xml version="1.0" encoding="utf-8"?>
	<svg version="1.1" xmlns="http://www.w3.org/2000/svg" xmlns:xlink="http://www.w3.org/1999/xlink" x="0px" y="0px" width="240.0" height="240.0" xml:space="preserve">
		<path d="M68.611,189.065C41.806,189.065 20,167.237 20,140.432C20,115.479 38.904,94.879 63.142,92.134C71.021,67.784 93.764,51 119.632,51C152.351,51 178.978,77.626 178.978,110.368C178.978,113.047 178.732,115.725 178.375,118.358C180.362,118.024 182.326,117.801 184.379,117.801C204.02,117.801 220,133.759 220,153.444C220,173.062 204.042,189.087 184.379,189.087L68.611,189.065Z" fill="#000" stroke="#00000000" stroke-width="1.0" stroke-miterlimit=""/>
		<path d="M68.611,189.065C41.806,189.065 20,167.237 20,140.432C20,115.479 38.904,94.879 63.142,92.134C71.021,67.784 93.764,51 119.632,51C152.351,51 178.978,77.626 178.978,110.368C178.978,113.047 178.732,115.725 178.375,118.358C180.362,118.024 182.326,117.801 184.379,117.801C204.02,117.801 220,133.759 220,153.444C220,173.062 204.042,189.087 184.379,189.087L68.611,189.065ZM32.298,140.432C32.298,160.452 48.591,176.745 68.611,176.745L184.357,176.745C197.19,176.745 207.658,166.3 207.658,153.444C207.658,140.566 197.212,130.143 184.357,130.143C180.986,130.143 177.772,130.835 174.76,132.218C172.371,138.267 169.001,143.914 164.738,148.958L155.387,140.945C162.685,132.442 166.68,121.595 166.68,110.391C166.68,84.434 145.566,63.342 119.632,63.342C100.371,63.342 83.296,75.06 76.132,92.491C81.221,93.339 86.399,95.08 91.822,97.736L113.248,108.56L107.646,119.541L86.399,108.784C80.038,105.659 74.19,104.141 68.611,104.141C48.591,104.164 32.298,120.434 32.298,140.432L32.298,140.432Z" fill="#000" stroke="#00000000" stroke-width="1.0" stroke-miterlimit=""/>
	</svg>
