<svg xmlns="http://www.w3.org/2000/svg" width="191" height="192" fill="none"><path stroke="#000" stroke-linecap="round" stroke-linejoin="round" stroke-width="12" d="M111.509 29a30.97 30.97 0 0 1 13.149 14.956 30.87 30.87 0 0 1 1.304 19.85 30.94 30.94 0 0 1-11.079 16.539A31.07 31.07 0 0 1 96 86.739a31.07 31.07 0 0 1-18.883-6.394 30.94 30.94 0 0 1-11.079-16.54 30.87 30.87 0 0 1 1.304-19.85A30.97 30.97 0 0 1 80.49 29M22 130.058a30.9 30.9 0 0 1 6.41-18.837 31.03 31.03 0 0 1 16.58-11.051 31.1 31.1 0 0 1 19.9 1.301 31 31 0 0 1 14.992 13.116 30.88 30.88 0 0 1 3.89 19.51 30.9 30.9 0 0 1-8.82 17.84 31.08 31.08 0 0 1-37.443 4.917M170 130.058a30.9 30.9 0 0 0-6.41-18.837 31.03 31.03 0 0 0-16.581-11.051 31.1 31.1 0 0 0-19.898 1.301 31 31 0 0 0-14.993 13.116 30.88 30.88 0 0 0 4.929 37.35 31.05 31.05 0 0 0 17.885 8.798 31.1 31.1 0 0 0 19.559-3.88m-17.132-51.551c0 22.785-18.517 41.256-41.36 41.256-22.84 0-41.358-18.471-41.358-41.256S73.158 64.048 96 64.048s41.359 18.47 41.359 41.256"/></svg>