<svg width="191" height="192" fill="none" xmlns="http://www.w3.org/2000/svg"><path d="M111.509 29a30.965 30.965 0 0 1 13.149 14.956 30.873 30.873 0 0 1 1.304 19.85 30.938 30.938 0 0 1-11.079 16.539A31.068 31.068 0 0 1 96 86.739a31.068 31.068 0 0 1-18.883-6.394 30.938 30.938 0 0 1-11.079-16.54 30.87 30.87 0 0 1 1.304-19.85A30.966 30.966 0 0 1 80.49 29M22 130.058a30.893 30.893 0 0 1 6.41-18.837 31.028 31.028 0 0 1 16.58-11.051 31.09 31.09 0 0 1 19.9 1.301 30.997 30.997 0 0 1 14.992 13.116 30.877 30.877 0 0 1 3.89 19.51 30.91 30.91 0 0 1-8.82 17.84 31.082 31.082 0 0 1-37.443 4.917M170 130.058a30.892 30.892 0 0 0-6.41-18.837 31.028 31.028 0 0 0-16.581-11.051 31.089 31.089 0 0 0-19.898 1.301 30.995 30.995 0 0 0-14.993 13.116 30.88 30.88 0 0 0 4.929 37.35 31.046 31.046 0 0 0 17.885 8.798 31.09 31.09 0 0 0 19.559-3.88m-17.132-51.551c0 22.785-18.517 41.256-41.36 41.256-22.84 0-41.358-18.471-41.358-41.256S73.158 64.048 96 64.048c22.842 0 41.359 18.47 41.359 41.256Z" stroke="#000" stroke-width="12" stroke-linecap="round" stroke-linejoin="round"/></svg>