<svg width="192" height="192" viewBox="0 0 192 192" fill="none" xmlns="http://www.w3.org/2000/svg"><path d="M25 45c0-11.046 8.954-20 20-20h24a4 4 0 0 1 4 4v0a4 4 0 0 0 4 4h38a4 4 0 0 0 4-4v0a4 4 0 0 1 4-4h24c11.046 0 20 8.954 20 20v102c0 11.046-8.954 20-20 20H45c-11.046 0-20-8.954-20-20V45Z" stroke="#000" stroke-width="12" stroke-linecap="round" stroke-linejoin="round"/><path d="M79 66a6 6 0 0 1 6-6h22a6 6 0 0 1 6 6v22a6 6 0 0 1-6 6H85a6 6 0 0 1-6-6V66Zm34 79H79" stroke="#000" stroke-width="10" stroke-linecap="round" stroke-linejoin="round"/><path d="M50 67h8v-8h-8v8Zm0 28h8v-8h-8v8Zm0 28h8v-8h-8v8Zm28 0h8v-8h-8v8Zm28 0h8v-8h-8v8Zm28 0h8v-8h-8v8Zm0-28h8v-8h-8v8Zm0-28h8v-8h-8v8Z" stroke="#000" stroke-width="8" stroke-linecap="round" stroke-linejoin="round"/></svg>