<svg width="192" height="192" viewBox="0 0 192 192" fill="none" xmlns="http://www.w3.org/2000/svg"><path d="M65.792 114.064c-3.928-6.746-13.558-6.754-17.497-.014l-21.862 37.412c-4.01 6.862.872 15.538 8.744 15.538h43.646c7.864 0 12.748-8.662 8.752-15.524l-21.783-37.412Z" stroke="#000" stroke-width="12" stroke-linecap="round" stroke-linejoin="round"/><circle cx="54" cy="54" r="29" stroke="#000" stroke-width="12" stroke-linecap="round" stroke-linejoin="round"/><rect x="110" y="26" width="56" height="56" rx="14" stroke="#000" stroke-width="12" stroke-linecap="round" stroke-linejoin="round"/><path d="M127.219 114.075c5.595-6.767 15.967-6.767 21.562 0l5.102 6.173a13.986 13.986 0 0 0 1.869 1.869l6.173 5.102c6.767 5.595 6.767 15.967 0 21.562l-6.173 5.102a13.986 13.986 0 0 0-1.869 1.869l-5.102 6.173c-5.595 6.767-15.967 6.767-21.562 0l-5.102-6.173a13.986 13.986 0 0 0-1.869-1.869l-6.173-5.102c-6.767-5.595-6.767-15.967 0-21.562l6.173-5.102a13.986 13.986 0 0 0 1.869-1.869l5.102-6.173Z" stroke="#000" stroke-width="12" stroke-linecap="round" stroke-linejoin="round"/></svg>