<svg xmlns="http://www.w3.org/2000/svg" width="192" height="192" fill="none"><path stroke="#000" stroke-linecap="round" stroke-linejoin="round" stroke-width="12" d="M65.792 114.064c-3.928-6.746-13.558-6.754-17.497-.014l-21.862 37.412c-4.01 6.862.872 15.538 8.744 15.538h43.646c7.864 0 12.748-8.662 8.752-15.524z"/><circle cx="54" cy="54" r="29" stroke="#000" stroke-linecap="round" stroke-linejoin="round" stroke-width="12"/><rect width="56" height="56" x="110" y="26" stroke="#000" stroke-linecap="round" stroke-linejoin="round" stroke-width="12" rx="14"/><path stroke="#000" stroke-linecap="round" stroke-linejoin="round" stroke-width="12" d="M127.219 114.075c5.595-6.767 15.967-6.767 21.562 0l5.102 6.173a14 14 0 0 0 1.869 1.869l6.173 5.102c6.767 5.595 6.767 15.967 0 21.562l-6.173 5.102a14 14 0 0 0-1.869 1.869l-5.102 6.173c-5.595 6.767-15.967 6.767-21.562 0l-5.102-6.173a14 14 0 0 0-1.869-1.869l-6.173-5.102c-6.767-5.595-6.767-15.967 0-21.562l6.173-5.102a14 14 0 0 0 1.869-1.869z"/></svg>