<svg xmlns="http://www.w3.org/2000/svg" xmlns:xlink="http://www.w3.org/1999/xlink" width="512" height="512" viewBox="0 0 512 512"><defs><clipPath id="b"><rect width="512" height="512"/></clipPath></defs><g id="a" clip-path="url(#b)"><g transform="translate(103 73)" fill="none" stroke="#000" stroke-width="21"><ellipse cx="73" cy="76.5" rx="73" ry="76.5" stroke="none"/><ellipse cx="73" cy="76.5" rx="62.5" ry="66" fill="none"/></g><g transform="translate(279 251)" fill="none" stroke="#000" stroke-width="21"><ellipse cx="73" cy="76.5" rx="73" ry="76.5" stroke="none"/><ellipse cx="73" cy="76.5" rx="62.5" ry="66" fill="none"/></g><g transform="translate(271 68)" fill="none"><path d="M63.693,25.577a15,15,0,0,1,26.614,0l52.287,100.5A15,15,0,0,1,129.287,148H24.713a15,15,0,0,1-13.307-21.923Z" stroke="none"/><path d="M 76.99999237060547 45.49971771240234 L 34.59779357910156 127.0000152587891 L 119.4021835327148 127.0000152587891 L 76.99999237060547 45.49971771240234 M 77.00000762939453 17.49977111816406 C 82.25267791748047 17.49977111816406 87.50534057617188 20.19207763671875 90.30678558349609 25.57667541503906 L 142.5940551757812 126.0768585205078 C 147.7893676757812 136.0626373291016 140.5436706542969 148.0000152587891 129.2872924804688 148.0000152587891 L 24.71275329589844 148.0000152587891 C 13.45635986328125 148.0000152587891 6.210662841796875 136.0626373291016 11.40594482421875 126.0768585205078 L 63.69320678710938 25.57667541503906 C 66.49466705322266 20.19207763671875 71.74734497070312 17.49977111816406 77.00000762939453 17.49977111816406 Z" stroke="none" fill="#000"/></g><g transform="translate(101 251)" fill="none" stroke="#000" stroke-width="21"><rect width="149" height="144" rx="36" stroke="none"/><rect x="10.5" y="10.5" width="128" height="123" rx="25.5" fill="none"/></g></g></svg>