<?xml version="1.0" standalone="no"?>
<!DOCTYPE svg PUBLIC "-//W3C//DTD SVG 20010904//EN"
 "http://www.w3.org/TR/2001/REC-SVG-20010904/DTD/svg10.dtd">
<svg version="1.0" xmlns="http://www.w3.org/2000/svg"
 width="192.000000pt" height="192.000000pt" viewBox="0 0 192.000000 192.000000"
 preserveAspectRatio="xMidYMid meet">

<g transform="translate(0.000000,192.000000) scale(0.100000,-0.100000)"
fill="#000000" stroke="none">
<path d="M475 1677 c-112 -38 -179 -98 -216 -196 -41 -111 -15 -233 68 -322
119 -128 327 -127 452 1 144 149 95 410 -94 496 -64 30 -156 39 -210 21z m175
-117 c128 -65 147 -255 35 -347 -73 -61 -166 -65 -249 -13 -118 75 -123 271
-8 342 82 51 147 56 222 18z"/>
<path d="M1271 1641 c-39 -41 -206 -330 -230 -396 -18 -50 -10 -85 28 -128
l29 -32 260 0 260 0 26 24 c37 35 50 82 35 129 -14 44 -146 283 -201 364 -46
68 -61 78 -124 78 -42 0 -51 -4 -83 -39z m137 -123 c57 -85 164 -287 160 -305
-3 -17 -20 -18 -211 -21 l-207 -2 0 24 c0 23 146 292 178 329 25 28 49 20 80
-25z"/>
<path d="M1256 861 c-27 -11 -65 -32 -85 -46 -115 -79 -159 -249 -97 -377 36
-76 108 -140 188 -167 78 -26 109 -26 194 0 56 17 77 31 124 78 66 65 94 133
94 222 -1 68 -44 167 -95 218 -79 80 -223 111 -323 72z m189 -107 c62 -29 125
-122 125 -186 0 -82 -63 -166 -148 -198 -55 -21 -59 -21 -110 -5 -91 28 -161
111 -162 191 0 84 66 180 146 210 44 16 101 11 149 -12z"/>
<path d="M321 843 c-55 -27 -61 -56 -61 -280 0 -292 2 -293 287 -293 204 0
243 7 275 53 22 31 23 39 23 237 0 304 4 300 -295 300 -161 0 -201 -3 -229
-17z m402 -96 c16 -11 17 -31 15 -187 l-3 -175 -179 -3 c-137 -2 -181 1 -188
10 -4 7 -8 86 -8 175 0 134 3 164 16 177 13 13 43 16 173 16 110 0 162 -4 174
-13z"/>
</g>
</svg>
