<svg width="192" height="192" fill="none" xmlns="http://www.w3.org/2000/svg"><ellipse cx="96" cy="50" rx="74" ry="21" stroke="#000" stroke-width="12" stroke-linecap="round" stroke-linejoin="round"/><path d="M167.479 90.565c2.937 3.111 3.314 6.373 1.099 9.532-2.214 3.159-6.96 6.131-13.87 8.687-6.91 2.555-15.799 4.626-25.979 6.05C118.549 116.259 107.351 117 96 117c-11.35 0-22.55-.741-32.73-2.166-10.18-1.424-19.068-3.495-25.978-6.05-6.91-2.556-11.656-5.528-13.87-8.687-2.215-3.16-1.838-6.42 1.1-9.532m142.957 46c2.937 3.111 3.314 6.373 1.099 9.532-2.214 3.159-6.96 6.131-13.87 8.687-6.91 2.555-15.799 4.626-25.979 6.05C118.549 162.259 107.351 163 96 163c-11.35 0-22.55-.741-32.73-2.166-10.18-1.424-19.068-3.495-25.978-6.05-6.91-2.556-11.656-5.528-13.87-8.687-2.215-3.159-1.838-6.421 1.1-9.532" stroke="#000" stroke-width="12" stroke-linecap="round" stroke-linejoin="round"/></svg>