<?xml version="1.0" encoding="UTF-8" standalone="no"?>
<svg
   viewBox="0 0 24 24"
   width="24"
   height="24"
   version="1.1"
   id="svg44"
   sodipodi:docname="lazada.svg"
   inkscape:version="1.1.1 (3bf5ae0d25, 2021-09-20)"
   xmlns:inkscape="http://www.inkscape.org/namespaces/inkscape"
   xmlns:sodipodi="http://sodipodi.sourceforge.net/DTD/sodipodi-0.dtd"
   xmlns="http://www.w3.org/2000/svg"
   xmlns:svg="http://www.w3.org/2000/svg">
  <defs
     id="defs48" />
  <sodipodi:namedview
     id="namedview46"
     pagecolor="#ffffff"
     bordercolor="#666666"
     borderopacity="1.0"
     inkscape:pageshadow="2"
     inkscape:pageopacity="0.0"
     inkscape:pagecheckerboard="0"
     showgrid="false"
     inkscape:zoom="22.627417"
     inkscape:cx="10.186757"
     inkscape:cy="11.645165"
     inkscape:window-width="1920"
     inkscape:window-height="1009"
     inkscape:window-x="-8"
     inkscape:window-y="-8"
     inkscape:window-maximized="1"
     inkscape:current-layer="svg44" />
  <path
     id="path2"
     style="stroke-width:0.999999"
     d="M 6.2832031 3.9726562 C 6.2348731 3.9726562 6.1876711 3.9862388 6.1464844 4.0117188 L 2.3203125 6.3671875 L 5.7675781 8.2558594 L 5.7675781 9.0683594 L 2 7.0019531 L 2 13.765625 C 2 13.93801 2.087943 14.094592 2.234375 14.185547 L 11.646484 20.027344 L 11.646484 14.896484 C 11.649084 14.896488 11.651697 14.896488 11.654297 14.896484 C 11.89165 14.893284 12.127746 14.860458 12.357422 14.798828 L 12.357422 20.025391 L 21.765625 14.185547 C 21.91207 14.094601 22 13.93801 22 13.765625 L 22 7.0078125 L 18.341797 9.0117188 L 16.863281 9.0117188 L 21.6875 6.3710938 L 17.853516 4.0117188 C 17.812326 3.9862388 17.765366 3.9726573 17.716797 3.9726562 C 17.667987 3.9726562 17.620027 3.9857688 17.578125 4.0117188 L 13.921875 6.28125 C 13.344243 6.63983 12.679778 6.828125 12 6.828125 C 11.320223 6.828125 10.655757 6.63983 10.078125 6.28125 L 6.421875 4.0117188 C 6.380445 3.9860087 6.3320101 3.9726563 6.2832031 3.9726562 z M 6.6152344 8.71875 L 7.4960938 8.71875 L 7.4960938 13.380859 L 9.3125 13.380859 L 9.3125 14.089844 L 6.6152344 14.089844 L 6.6152344 8.71875 z M 11.376953 9.6933594 C 11.711893 9.6933594 12.004614 9.7605555 12.251953 9.8945312 C 12.504446 10.023354 12.704081 10.185049 12.853516 10.380859 L 12.853516 9.7636719 L 13.742188 9.7636719 L 13.742188 14.021484 L 12.853516 14.021484 L 12.853516 13.386719 C 12.704081 13.587683 12.501787 13.754696 12.244141 13.888672 C 11.986496 14.022647 11.693067 14.091797 11.363281 14.091797 C 10.997424 14.091797 10.661444 13.998007 10.357422 13.8125 C 10.0534 13.621843 9.811211 13.360331 9.6308594 13.025391 C 9.4556599 12.685299 9.3671875 12.300739 9.3671875 11.873047 C 9.3671875 11.445355 9.4556605 11.066114 9.6308594 10.736328 C 9.8112112 10.406541 10.0534 10.151055 10.357422 9.9707031 C 10.666597 9.7851976 11.005943 9.6933594 11.376953 9.6933594 z M 14.433594 9.7617188 L 17.384766 9.7617188 L 17.384766 10.480469 L 15.453125 13.302734 L 17.384766 13.302734 L 17.384766 14.019531 L 14.433594 14.019531 L 14.433594 13.302734 L 16.373047 10.480469 L 14.433594 10.480469 L 14.433594 9.7617188 z M 11.5625 10.458984 C 11.335772 10.458984 11.125499 10.515544 10.929688 10.628906 C 10.733876 10.737117 10.574842 10.898811 10.451172 11.115234 C 10.33266 11.326504 10.273437 11.57933 10.273438 11.873047 C 10.273438 12.166762 10.332658 12.424909 10.451172 12.646484 C 10.574842 12.868059 10.733877 13.037733 10.929688 13.15625 C 11.130652 13.269614 11.340925 13.326172 11.5625 13.326172 C 11.789228 13.326172 12.001455 13.269612 12.197266 13.15625 C 12.393077 13.042886 12.549452 12.876579 12.667969 12.660156 C 12.791637 12.438581 12.853516 12.182388 12.853516 11.888672 C 12.853516 11.594955 12.791636 11.339469 12.667969 11.123047 C 12.549452 10.906624 12.393077 10.74227 12.197266 10.628906 C 12.001455 10.515539 11.789228 10.458984 11.5625 10.458984 z " />
</svg>
