<svg xmlns="http://www.w3.org/2000/svg" width="192" height="192" fill="none"><path stroke="#000" stroke-linecap="round" stroke-linejoin="round" stroke-width="10" d="M63 107v22m-22 0V63m0 0V47a6 6 0 0 1 6-6h10a6 6 0 0 1 6 6v16m-22 0h22m0 0h16a6 6 0 0 1 6 6v16m0 44v16a6 6 0 0 1-6 6H27a6 6 0 0 1-6-6v-10a6 6 0 0 1 6-6zm0 0h22m-22 0v-22m66 22V63m0 0V47a6 6 0 0 0-6-6h-10a6 6 0 0 0-6 6v16m22 0h-22m0 0h-16a6 6 0 0 0-6 6v16m22 22v22m-22 0v16a6 6 0 0 0 6 6h52a6 6 0 0 0 6-6v-10a6 6 0 0 0-6-6zm0 0v-22m44 0H41m110-22H41"/></svg>