<svg xmlns="http://www.w3.org/2000/svg" width="192" height="192" fill="none"><path stroke="#000" stroke-linecap="round" stroke-linejoin="round" stroke-width="10" d="M33.152 106.501v25.13a8.13 8.13 0 0 0 4.098 7.064l54.73 31.238A8.1 8.1 0 0 0 96 171m62.848-64.499v25.13a8.13 8.13 0 0 1-4.098 7.064l-54.729 31.238A8.1 8.1 0 0 1 96 171m-41.212-49.75 19.576 11.188M96 119.181a8.1 8.1 0 0 1-4.024-1.069L32.096 83.89A8.13 8.13 0 0 1 28 76.828V63.353a8.13 8.13 0 0 1 1.103-4.092M96 119.181a8.1 8.1 0 0 0 4.024-1.069l59.881-34.222A8.13 8.13 0 0 0 164 76.828V63.353c0-1.463-.393-2.87-1.103-4.092M96 119.181V97.493M96 171v-32.692m66.897-79.047a8.1 8.1 0 0 0-2.992-2.97l-59.881-34.222a8.11 8.11 0 0 0-8.048 0l-59.88 34.222a8.1 8.1 0 0 0-2.993 2.97m133.794 0L96 97.493M29.103 59.261 96 97.493"/></svg>