<svg width="192" height="192" viewBox="0 0 192 192" fill="none" xmlns="http://www.w3.org/2000/svg"><path d="M116.935 75.79c.341 4.97-.698 9.092-2.319 9.207-1.621.116-3.211-3.818-3.551-8.787-.341-4.97.698-9.092 2.319-9.207 1.621-.116 3.211 3.818 3.551 8.787Z" stroke="#000" stroke-width="10" stroke-linecap="round" stroke-linejoin="round"/><path d="M143.623 78.55c1.233 4.963 1.73 9.19 1.11 9.439-.62.248-2.122-3.574-3.356-8.538-1.233-4.964-1.73-9.19-1.11-9.44.62-.248 2.122 3.574 3.356 8.538Z" stroke="#000" stroke-width="8" stroke-linecap="round" stroke-linejoin="round"/><path d="M163.004 59.46c17.323 28.34 1.368 67.675-35.638 87.855-37.005 20.18-81.047 13.565-98.37-14.775-17.323-28.341-1.367-67.675 35.638-87.855 37.005-20.18 81.047-13.565 98.37 14.775Z" stroke="#000" stroke-width="12" stroke-linecap="round" stroke-linejoin="round"/></svg>