<?xml version="1.0" encoding="UTF-8" standalone="no"?>
<svg
   width="192"
   height="192"
   viewBox="0 0 192 192"
   fill="none"
   version="1.1"
   id="svg4"
   xml:space="preserve"
   xmlns="http://www.w3.org/2000/svg"
   xmlns:svg="http://www.w3.org/2000/svg"><defs
     id="defs4"><linearGradient
       id="swatch5"><stop
         style="stop-color:#ff9900;stop-opacity:1;"
         offset="0"
         id="stop5" /></linearGradient><linearGradient
       id="swatch4"><stop
         style="stop-color:#3b8aff;stop-opacity:1;"
         offset="0"
         id="stop4" /></linearGradient></defs><g
     id="g4"
     style="stroke-width:9.64865;stroke-dasharray:none"
     transform="matrix(1.2436975,0,0,1.2436975,-23.394956,-23.394958)"><circle
       style="fill:none;stroke:#000000;stroke-width:9.64865;stroke-linecap:round;stroke-linejoin:round;stroke-dasharray:none"
       id="path1"
       cy="96"
       cx="96"
       r="59.5" /><path
       style="fill:none;stroke:#000000;stroke-width:9.64865;stroke-linecap:round;stroke-linejoin:round;stroke-dasharray:none"
       d="m 57.497656,135.89865 c 0.908298,-6.20664 1.456812,-5.95968 3.126546,-15.35229 -2.824203,-13.85974 -0.394826,-25.571721 3.415114,-38.157057 11.118331,4.92044 11.1259,5.223311 22.042138,11.908052 8.892426,-0.361695 18.739196,0.3015 26.368096,3.88833 6.69069,-2.533302 5.31055,-8.789619 14.01942,-16.348066 8.91978,17.448512 3.76937,32.245721 5.22701,40.612121 2.14578,6.61036 6.10355,11.077 7.17105,13.99041"
       id="path3" /><path
       style="fill:none;stroke:#000000;stroke-width:9.64865;stroke-linecap:round;stroke-linejoin:round;stroke-dasharray:none"
       d="M 78.548808,117.93521 V 131.2048"
       id="path4" /><path
       style="fill:none;stroke:#000000;stroke-width:9.64865;stroke-linecap:round;stroke-linejoin:round;stroke-dasharray:none"
       d="m 96.894909,117.9354 v 14.04536"
       id="path4-8" /></g></svg>
