<svg xmlns="http://www.w3.org/2000/svg" width="192" height="192" fill="none"><path stroke="#000" stroke-linecap="round" stroke-linejoin="round" stroke-width="10" d="M115 58c0 29-35 45-35 45"/><path stroke="#000" stroke-linecap="round" stroke-linejoin="round" stroke-width="10" d="M80 137V49a6 6 0 0 1 6-6h14m1 46 19 48m-5-79a15 15 0 0 0-9.26-13.858A15 15 0 0 0 100 43"/><path stroke="#000" stroke-linecap="round" stroke-linejoin="round" stroke-width="12" d="M51.322 151.384 96 170l44.678-18.616a6 6 0 0 0 3.665-4.967l2.116-22.127C141.283 119.887 138 113.327 138 106c0-8.97 4.92-16.79 12.209-20.909l4.393-45.928a6 6 0 0 0-3.37-5.977l-21.998-10.592a6 6 0 0 0-2.603-.594H65.369a6 6 0 0 0-2.603.594L40.768 33.186a6 6 0 0 0-3.37 5.977l4.393 45.928C49.08 89.212 54 97.031 54 106c0 7.327-3.283 13.887-8.46 18.29l2.117 22.127a6 6 0 0 0 3.665 4.967"/></svg>