<svg xmlns="http://www.w3.org/2000/svg" width="192" height="192" fill="none" stroke="#000" stroke-linecap="round" stroke-linejoin="round" stroke-width="12" viewBox="0 0 192 192"><path d="M60.572 169.233c8.824 2.379 43.493 0 67.512-18.353C158.108 130.742 170 100.536 170 73.756a55.6 55.6 0 0 0-8.561-26.225l5.046-5.046a12 12 0 0 0-16.97-16.97l-5.044 5.044a55 55 0 0 0-11.704-5.62C122.458 21.419 106.516 22.165 96 25s-62 25-72.227 76.081c-2.364 8.878-2.364 22.253 0 31.13a52.5 52.5 0 0 0 5.65 13.396l-3.908 3.908a11.998 11.998 0 0 0 16.97 16.97l3.64-3.639a51.9 51.9 0 0 0 14.447 6.387"/><path d="M71 125C37 97 34 75 34 75m126 37s-29 0-61-43"/></svg>