<svg xmlns="http://www.w3.org/2000/svg" width="192" height="192" fill="none" stroke="#000" stroke-linecap="round" stroke-width="8" viewBox="0 0 192 192"><path d="M63 68c6.665.1 13.023 2.777 17.7 7.455C85.379 80.132 88 86.435 88 93s-2.622 12.868-7.3 17.545C76.024 115.223 69.666 117.9 63 118c-6.665-.1-13.023-2.777-17.7-7.455C40.622 105.868 38 99.565 38 93s2.622-12.868 7.3-17.545C49.977 70.777 56.335 68.1 63 68Zm66 0c6.665.1 13.023 2.777 17.701 7.455C151.378 80.132 154 86.435 154 93s-2.622 12.868-7.299 17.545S135.665 117.9 129 118c-6.665-.1-13.023-2.777-17.7-7.455-4.678-4.677-7.3-10.98-7.3-17.545s2.622-12.868 7.3-17.545C115.977 70.777 122.335 68.1 129 68ZM63 83v20M53 93h19.998"/><path stroke-width="6" d="M129 80c.8.012 1.563.333 2.124.895.561.56.876 1.317.876 2.105s-.315 1.544-.876 2.105A2.978 2.978 0 0 1 126 83c0-.788.315-1.544.876-2.105A3.07 3.07 0 0 1 129 80Zm0 20c.8.012 1.563.333 2.124.895.561.561.876 1.317.876 2.105s-.315 1.544-.876 2.105A2.977 2.977 0 0 1 126 103c0-.788.315-1.544.876-2.105A3.07 3.07 0 0 1 129 100Zm-10-10c.8.012 1.563.333 2.124.895.561.56.876 1.317.876 2.105s-.315 1.544-.876 2.105A2.978 2.978 0 0 1 116 93c0-.788.315-1.544.876-2.105A3.07 3.07 0 0 1 119 90Zm20 0c.8.012 1.563.333 2.124.895.561.56.876 1.317.876 2.105s-.315 1.544-.876 2.105A2.978 2.978 0 0 1 136 93c0-.788.315-1.544.876-2.105A3.07 3.07 0 0 1 139 90Z"/><path stroke-linejoin="round" d="M105 130H87l9 8z"/><circle cx="96" cy="96" r="74" stroke-width="12"/></svg>