<svg width="192" height="192" viewBox="0 0 50.8 50.8" xmlns="http://www.w3.org/2000/svg"><g fill="none" fill-opacity="0" stroke="#000" stroke-width="3.175"><path d="M14.523 16.698a8.703 8.703 0 0 1 0 17.404 8.703 8.703 0 0 1 0-17.404z" stroke-linecap="square" stroke-opacity=".996"/><path d="M36.277 16.698a8.703 8.703 0 0 1 0 17.404 8.703 8.703 0 0 1 0-17.404z" stroke-linecap="square"/><g stroke-linecap="round" stroke-linejoin="round"><path d="M29.75 38.453h-8.7l4.35 6.526z"/><path d="M14.523 21.049v8.702" stroke-opacity=".996"/><path d="M10.172 25.4h8.701"/></g></g><g stroke-linecap="round" stroke-linejoin="round" stroke-width="11.36" transform="translate(-.706 -.705) scale(.27193)"><circle cx="136" cy="112" r="5.838"/><circle cx="136" cy="80" r="5.838"/><circle transform="rotate(-90)" cx="-96" cy="152" r="5.838"/><circle transform="rotate(-90)" cx="-96" cy="120" r="5.838"/></g></svg>