<svg xmlns="http://www.w3.org/2000/svg" width="192" height="192" fill="none"><path stroke="#000" stroke-linecap="round" stroke-linejoin="round" stroke-width="12" d="m138 45.784 24.582-5.98c3.777-.919 7.418 1.943 7.418 5.83v106.732c0 3.887-3.641 6.748-7.418 5.83L138 152.216m0-106.432v-9.15c0-3.887-3.641-6.748-7.418-5.83l-33.291 8.098M138 45.784v106.432m0 0v7.15c0 3.887-3.641 6.748-7.418 5.83l-33.291-8.098M26.6 154.341l62 14.883c3.773.905 7.4-1.955 7.4-5.835V28.611c0-3.88-3.627-6.74-7.4-5.835l-62 14.883a6 6 0 0 0-4.6 5.834v105.014a6 6 0 0 0 4.6 5.834"/></svg>