<svg width="192" height="192" viewBox="0 0 192 192" fill="none" xmlns="http://www.w3.org/2000/svg">
<mask id="path-2-inside-1_238_286" fill="white">
<path d="M59.2084 127.116C72.7796 126.834 83.5946 117.524 84.0893 103.065C85.4323 109.06 88.0478 114.35 90.9457 118.864C82.817 125.141 75.1122 127.962 67.0545 127.962C64.2979 127.962 61.7533 127.68 59.2084 127.116Z"/>
</mask>
<path d="M59.2084 127.116C72.7796 126.834 83.5946 117.524 84.0893 103.065C85.4323 109.06 88.0478 114.35 90.9457 118.864C82.817 125.141 75.1122 127.962 67.0545 127.962C64.2979 127.962 61.7533 127.68 59.2084 127.116Z" stroke="black" stroke-width="24" mask="url(#path-2-inside-1_238_286)"/>
<mask id="path-3-inside-2_238_286" fill="white">
<path d="M174 101.866C174 103.206 173.152 104.123 171.809 104.123H168.699L168.84 102.148C169.406 94.2488 167.709 88.8884 164.387 84.1631L171.95 86.3495C173.576 86.914 174 87.6895 174 89.8056V101.866Z"/>
</mask>
<path d="M174 101.866C174 103.206 173.152 104.123 171.809 104.123H168.699L168.84 102.148C169.406 94.2488 167.709 88.8884 164.387 84.1631L171.95 86.3495C173.576 86.914 174 87.6895 174 89.8056V101.866Z" stroke="black" stroke-width="24" mask="url(#path-3-inside-2_238_286)"/>
<mask id="path-4-inside-3_238_286" fill="white">
<path d="M18 89.8056C18 87.6895 18.424 86.843 19.979 86.3495L27.8957 84.1631C24.2911 89.2414 22.5236 96.0826 22.8062 102.077L22.9479 104.123H20.1206C18.8483 104.123 18 103.206 18 101.866V89.8056Z"/>
</mask>
<path d="M18 89.8056C18 87.6895 18.424 86.843 19.979 86.3495L27.8957 84.1631C24.2911 89.2414 22.5236 96.0826 22.8062 102.077L22.9479 104.123H20.1206C18.8483 104.123 18 103.206 18 101.866V89.8056Z" stroke="black" stroke-width="24" mask="url(#path-4-inside-3_238_286)"/>
<mask id="path-5-inside-4_238_286" fill="white">
<path d="M45.3546 83.3868C49.4541 78.2381 55.2503 75.6992 62.8134 75.6992C76.5263 75.6992 87.4823 84.0216 92.7838 97.9159L95.6111 105.11C102.468 123.095 111.373 132.052 121.764 135.367C105.577 132.969 92.8542 123.306 87.4823 107.437L85.079 100.173C79.9189 85.2912 71.8611 78.5202 59.1378 78.5202C53.9777 78.5202 48.8888 80.4246 45.3546 83.3868Z"/>
</mask>
<path d="M45.3546 83.3868C49.4541 78.2381 55.2503 75.6992 62.8134 75.6992C76.5263 75.6992 87.4823 84.0216 92.7838 97.9159L95.6111 105.11C102.468 123.095 111.373 132.052 121.764 135.367C105.577 132.969 92.8542 123.306 87.4823 107.437L85.079 100.173C79.9189 85.2912 71.8611 78.5202 59.1378 78.5202C53.9777 78.5202 48.8888 80.4246 45.3546 83.3868Z" stroke="black" stroke-width="24" mask="url(#path-5-inside-4_238_286)"/>
<mask id="path-6-inside-5_238_286" fill="white">
<path d="M139.506 70.6921C155.622 72.8082 167.144 85.0801 167.144 99.6795C167.144 112.445 157.531 122.813 144.454 123.871C153.219 118.511 156.541 111.317 156.541 101.514C156.541 87.478 150.039 75.0653 139.506 70.6921Z"/>
</mask>
<path d="M139.506 70.6921C155.622 72.8082 167.144 85.0801 167.144 99.6795C167.144 112.445 157.531 122.813 144.454 123.871C153.219 118.511 156.541 111.317 156.541 101.514C156.541 87.478 150.039 75.0653 139.506 70.6921Z" stroke="black" stroke-width="24" mask="url(#path-6-inside-5_238_286)"/>
<mask id="path-7-inside-6_238_286" fill="white">
<path d="M112.293 69.9172C106.002 72.4564 100.771 76.1239 96.1767 81.2019C89.9562 74.9249 85.9273 72.5268 78.8588 69.9879L112.293 69.9172Z"/>
</mask>
<path d="M112.293 69.9172C106.002 72.4564 100.771 76.1239 96.1767 81.2019C89.9562 74.9249 85.9273 72.5268 78.8588 69.9879L112.293 69.9172Z" stroke="black" stroke-width="24" mask="url(#path-7-inside-6_238_286)"/>
<mask id="path-8-inside-7_238_286" fill="white">
<path d="M97.3073 82.6836C105.86 73.7967 116.463 69.0007 125.793 69.0007C137.385 69.0007 148.907 76.5473 152.936 90.1595C147.634 81.2026 138.587 78.5221 132.084 78.5221C119.149 78.5221 107.839 89.313 107.839 102.855C105.012 92.628 100.559 85.9279 97.3073 82.6836Z"/>
</mask>
<path d="M97.3073 82.6836C105.86 73.7967 116.463 69.0007 125.793 69.0007C137.385 69.0007 148.907 76.5473 152.936 90.1595C147.634 81.2026 138.587 78.5221 132.084 78.5221C119.149 78.5221 107.839 89.313 107.839 102.855C105.012 92.628 100.559 85.9279 97.3073 82.6836Z" stroke="black" stroke-width="24" mask="url(#path-8-inside-7_238_286)"/>
<mask id="path-9-inside-8_238_286" fill="white">
<path d="M24.7858 102.078C24.7858 82.5415 39.8417 69 61.6827 69C81.7571 69 97.5906 79.932 104.376 98.4812L106.355 104.264C112.01 119.781 121.27 127.187 134.912 127.187C145.09 127.187 156.894 123.73 162.974 116.748C157.813 128.385 146.504 135.086 132.72 135.086C116.887 135.086 105.295 124.647 98.4389 106.592L95.3286 98.4812C89.1082 82.4005 77.8698 73.5843 63.2379 73.5843C46.6978 73.5843 35.3885 85.2921 35.3885 101.796C35.3885 118.652 47.8291 130.007 66.4895 130.007C72.5683 130.007 77.8698 128.808 83.171 126.269C77.2335 131.982 68.8218 135.086 59.4917 135.086C39.488 135.086 24.7858 121.121 24.7858 102.078Z"/>
</mask>
<path d="M24.7858 102.078C24.7858 82.5415 39.8417 69 61.6827 69C81.7571 69 97.5906 79.932 104.376 98.4812L106.355 104.264C112.01 119.781 121.27 127.187 134.912 127.187C145.09 127.187 156.894 123.73 162.974 116.748C157.813 128.385 146.504 135.086 132.72 135.086C116.887 135.086 105.295 124.647 98.4389 106.592L95.3286 98.4812C89.1082 82.4005 77.8698 73.5843 63.2379 73.5843C46.6978 73.5843 35.3885 85.2921 35.3885 101.796C35.3885 118.652 47.8291 130.007 66.4895 130.007C72.5683 130.007 77.8698 128.808 83.171 126.269C77.2335 131.982 68.8218 135.086 59.4917 135.086C39.488 135.086 24.7858 121.121 24.7858 102.078Z" stroke="black" stroke-width="24" mask="url(#path-9-inside-8_238_286)"/>
</svg>
