<svg xmlns="http://www.w3.org/2000/svg" width="192" height="192" fill-rule="evenodd" viewBox="0 0 192 192"><path d="M119.28 72.01c-6.02-5.845-14.23-9.447-23.28-9.447-9.04 0-17.25 3.597-23.27 9.438-6.03-5.841-14.23-9.438-23.28-9.438C31 62.563 16.02 77.546 16.02 96S31 129.437 49.45 129.437c9.05 0 17.25-3.597 23.28-9.438 6.02 5.841 14.23 9.438 23.27 9.438 9.05 0 17.26-3.602 23.28-9.447 6.02 5.845 14.24 9.447 23.28 9.447 18.46 0 33.44-14.983 33.44-33.437s-14.98-33.437-33.44-33.437c-9.04 0-17.26 3.602-23.28 9.447m-7.07 9.965c-3.94-4.539-9.74-7.412-16.21-7.412-6.46 0-12.26 2.867-16.2 7.397A33.15 33.15 0 0 1 82.89 96c0 5.012-1.1 9.768-3.09 14.04 3.94 4.53 9.74 7.397 16.2 7.397 6.47 0 12.27-2.873 16.21-7.412A33.2 33.2 0 0 1 109.13 96c0-5.007 1.1-9.758 3.08-14.025m-46.56-.015c-3.93-4.53-9.73-7.397-16.2-7.397-11.83 0-21.43 9.606-21.43 21.437s9.6 21.437 21.43 21.437c6.47 0 12.27-2.867 16.2-7.397A33.3 33.3 0 0 1 62.56 96c0-5.012 1.11-9.768 3.09-14.04m60.71 28.065c3.93 4.539 9.73 7.412 16.2 7.412 11.83 0 21.44-9.606 21.44-21.437s-9.61-21.437-21.44-21.437c-6.47 0-12.27 2.873-16.2 7.412A33.4 33.4 0 0 1 129.43 96c0 5.007-1.1 9.758-3.07 14.025"/></svg>