<?xml version="1.0" encoding="UTF-8" standalone="no"?>
<svg
   width="192"
   height="192"
   fill="none"
   viewBox="0 0 192 192"
   version="1.1"
   id="svg2"
   sodipodi:docname="lex.svg"
   inkscape:version="1.4.2 (f4327f4, 2025-05-13)"
   xml:space="preserve"
   xmlns:inkscape="http://www.inkscape.org/namespaces/inkscape"
   xmlns:sodipodi="http://sodipodi.sourceforge.net/DTD/sodipodi-0.dtd"
   xmlns="http://www.w3.org/2000/svg"
   xmlns:svg="http://www.w3.org/2000/svg"><defs
     id="defs2" /><sodipodi:namedview
     id="namedview2"
     pagecolor="#ffffff"
     bordercolor="#000000"
     borderopacity="0.25"
     inkscape:showpageshadow="2"
     inkscape:pageopacity="0.0"
     inkscape:pagecheckerboard="true"
     inkscape:deskcolor="#d1d1d1"
     inkscape:zoom="4"
     inkscape:cx="59.125"
     inkscape:cy="116.375"
     inkscape:window-width="2560"
     inkscape:window-height="1369"
     inkscape:window-x="-8"
     inkscape:window-y="-8"
     inkscape:window-maximized="1"
     inkscape:current-layer="svg2" /><path
     id="path8"
     style="display:inline;opacity:1;fill:none;stroke:#000000;stroke-width:12;stroke-linecap:round;stroke-linejoin:round;stroke-miterlimit:12;stroke-dasharray:none;stroke-opacity:1"
     d="M 169.53948,78.364875 125.25973,134.08145 M 58.463192,112.38119 c 6.551708,0.10678 14.675363,0.63076 23.45785,-0.65769 8.782487,-1.28845 13.752414,-6.51549 15.667699,-10.52335 1.915284,-4.007855 2.741949,-8.448874 0.672168,-13.680219 -2.069773,-5.231345 -7.999977,-9.875852 -14.893837,-9.962355 -6.893859,-0.0865 -11.226806,3.129557 -14.946566,6.744408 -3.71976,3.61485 -8.193783,9.688271 -9.957318,20.088466 m 0,7.99074 c 0.64175,3.62033 -1.426686,4.35478 1.656234,10.5608 3.082919,6.20602 11.252378,11.00818 20.37966,10.8769 9.127283,-0.13129 23.031198,-3.62356 30.020918,-14.07149 6.98972,-10.44793 9.44535,-22.554027 12.54409,-29.66672 3.09874,-7.112693 8.03762,-11.902542 11.27703,-12.371957 3.23941,-0.469414 6.17975,0.939984 7.92794,4.157972 1.7482,3.21799 2.07096,11.548388 3.00872,20.789085 0.93776,9.2407 1.68744,20.76209 3.30499,25.02014 1.61754,4.25806 4.977,6.40553 8.82921,6.40553 3.85221,0 9.72613,-3.07521 12.58663,-11.61133 M 30.530242,57.345745 c 2.513687,-8.809067 11.284122,-17.777284 18.618859,-12.964386 7.334737,4.812898 2.175168,19.666384 -6.015571,34.738778 -8.190739,15.072393 -17.495207,26.183613 -20.213429,35.206613 -2.718222,9.02299 0.677006,14.68326 4.000634,17.19445 3.323629,2.51119 7.048589,2.44146 9.795596,1.84449 2.747007,-0.59697 7.761323,-1.61133 12.84996,-7.32189 5.088636,-5.71056 7.08029,-12.11834 8.896901,-21.65335"
     sodipodi:nodetypes="ccczzzzzcczzzzzzzzzcczzzzzzc"
     inkscape:label="lex" /></svg>
