<svg width="192" height="192" viewBox="0 0 192 192" fill="none" xmlns="http://www.w3.org/2000/svg"><path d="M105 53s-10 27-7 47c0 0-1 21-15 35s-39 15-39 15m61-97c-18.019 0-31.363 8.831-37.41 13.764-2.188 1.785-2.448 4.897-.849 7.224L75 86m30-33c7.389 0 13.072 21.329 20.201 24.585 1.104.505 2.335.047 3.335-.64L143 67" stroke="#000" stroke-width="12" stroke-linecap="round" stroke-linejoin="round"/><path d="m98 100 31 23 12 47" stroke="#000" stroke-width="12" stroke-linecap="round" stroke-linejoin="round"/><path d="M111.714 28.132c-.87 3.253-3.462 5.384-5.789 4.76-2.327-.626-3.509-3.77-2.639-7.024.87-3.253 3.462-5.384 5.789-4.76 2.327.626 3.509 3.77 2.639 7.024Z" stroke="#000" stroke-width="10" stroke-linecap="round" stroke-linejoin="round"/></svg>