<svg width="192" height="192" viewBox="0 0 192 192" fill="none" xmlns="http://www.w3.org/2000/svg"><path d="M34.913 158.154c7.131 0 12.913-5.781 12.913-12.912 0-7.132-5.782-12.913-12.913-12.913-7.132 0-12.913 5.781-12.913 12.913 0 7.131 5.781 12.912 12.913 12.912Zm121.678-71.516c7.405 0 13.409-6.004 13.409-13.41 0-7.406-6.004-13.41-13.409-13.41-7.406 0-13.41 6.004-13.41 13.41 0 7.406 6.004 13.41 13.41 13.41Z" stroke="#000" stroke-width="12" stroke-linecap="round" stroke-linejoin="round"/><path d="M145.168 63.792 96.497 33 34.913 71.738v60.591" stroke="#000" stroke-width="12" stroke-linecap="round" stroke-linejoin="round"/><path d="M115.369 135.607V99.848H76.631v55.624h80.456V87.929" stroke="#000" stroke-width="12" stroke-linecap="round" stroke-linejoin="round"/></svg>