<?xml version="1.0" encoding="utf-8"?>
	<svg version="1.1" xmlns="http://www.w3.org/2000/svg" xmlns:xlink="http://www.w3.org/1999/xlink" x="0px" y="0px" width="240.0" height="240.0" xml:space="preserve">
		<path d="M84.217,44.5C92.086,40.654 99.8,41.161 106.596,46.609C111.282,50.359 115.266,54.987 119.562,59.244C119.718,59.42 119.835,59.615 119.953,59.81C121.398,58.346 122.725,56.998 124.053,55.631C126.651,52.976 129.131,50.144 131.884,47.625C135.477,44.325 139.793,42.528 144.733,42.196C152.837,41.649 158.91,45.594 164.437,50.886C167.151,53.483 169.104,56.627 170.607,59.986C173.595,66.645 173.068,73.304 169.006,79.338C167.517,81.558 165.66,83.536 163.767,85.473L162.732,86.526C162.388,86.877 162.044,87.227 161.703,87.579C152.056,97.538 142.39,107.477 132.724,117.417C132.04,118.101 131.376,118.823 130.693,119.565C130.986,119.878 131.161,120.112 131.357,120.327L131.357,120.327L156.821,146.377C157.439,147.009 158.063,147.636 158.69,148.26L160.573,150.132C162.77,152.316 164.948,154.515 166.936,156.863C172.58,163.405 174.201,172.407 169.944,180.433C167.21,185.686 163.128,190.119 158.11,193.282C153.462,196.212 148.424,197.774 142.839,196.778C137.371,195.802 133.036,192.97 129.248,188.928C126.279,185.745 122.901,182.933 119.679,179.925C117.629,181.937 115.168,184.241 112.805,186.663C110.267,189.26 107.962,192.15 104.74,193.946C98.999,197.149 92.985,198.203 86.658,195.704C78.886,192.638 73.301,187.151 69.61,179.789C66.837,174.243 66.778,168.521 69.239,162.721C70.604,159.516 72.827,157.032 75.161,154.644L75.901,153.893C76.395,153.393 76.891,152.894 77.382,152.391L77.382,152.391L106.869,122.221C107.65,121.42 108.412,120.581 109.271,119.663C108.587,118.823 108.002,118.062 107.318,117.359C96.812,106.501 86.287,95.702 75.703,84.942C73.594,82.794 71.465,80.724 70.04,78.03C66.31,70.922 66.739,63.931 70.782,57.154C74.043,51.687 78.456,47.312 84.217,44.5ZM119.562,133.547C119.015,134.289 118.527,135.109 117.902,135.793C115.793,138.058 113.645,140.265 111.477,142.491C103.334,150.888 95.23,159.304 86.97,167.603C84.158,170.435 84.002,174.946 86.619,177.953C89.684,181.468 94.664,182.171 98.042,178.422C99.683,176.586 101.46,174.946 103.198,173.169C104.916,171.372 106.615,169.556 108.373,167.701L108.373,167.701L100.015,158.953L111.673,147.783L120.284,155.75L127.92,147.685L139.89,159.031L135.77,163.424L131.318,168.17C135.008,171.704 138.641,175.083 142.156,178.578C144.909,181.331 148.287,181.566 151.373,179.711C155.395,177.309 156.548,171.431 153.638,168.248C152.486,167.037 151.314,165.846 150.142,164.655C142.214,156.473 134.247,148.31 126.279,140.147C124.229,138.038 122.101,136.027 119.562,133.547ZM41.529,92.363C50.668,91.133 58.421,93.964 65.04,100.057C67.56,102.361 69.629,105.134 71.914,107.692C72.09,107.868 72.266,108.024 72.578,108.317L72.578,108.317L82.83,97.596L94.684,109.079L84.373,119.799L94.898,129.602L82.615,141.26L72.324,130.481C72.168,130.872 71.973,131.243 71.778,131.594C69.454,135.168 66.407,138.097 63.068,140.733C59.514,143.604 55.511,145.83 51,146.572C38.268,148.681 26.844,143.819 22.021,130.462C18.545,120.795 19.619,111.656 24.735,103.025C28.465,96.757 34.226,93.339 41.529,92.363ZM176.114,99.1C181.524,94.199 187.968,91.894 195.271,92.09C206.597,92.402 214.799,98.631 218.294,109.743C219.7,114.195 220.423,118.706 219.739,123.334C218.685,130.247 216.205,136.515 210.835,141.28C206.46,145.166 201.207,146.826 195.427,146.982C189.178,147.158 183.535,145.537 178.458,141.807C174.415,138.859 170.9,135.461 168.03,131.34C167.932,131.223 167.835,131.106 167.717,131.008L167.717,131.008L156.938,141.163L145.085,129.817L155.669,119.917L145.319,109.176L156.997,97.987L167.464,107.751C170.256,104.958 173.048,101.873 176.114,99.1ZM49.867,109.684C45.845,107.927 40.494,108.962 38.053,112.184C35.846,115.093 35.671,118.393 36.042,121.85C36.569,126.829 40.338,130.286 45.376,130.384C46.606,130.13 47.895,129.993 49.086,129.583C53.705,128.043 57.009,124.739 60.16,121.285L60.811,120.568L60.811,120.568L61.135,120.21C61.389,119.936 61.272,118.999 60.979,118.647C57.737,115.113 54.417,111.676 49.867,109.684ZM197.79,109.294C193.924,108.083 190.331,109.079 187.187,111.285C184.726,113.023 182.48,115.113 180.313,117.222C177.833,119.643 177.774,119.253 180.274,121.889C183.437,125.209 186.757,128.372 191.287,129.739C195.076,130.872 199.938,130.364 202.516,125.99C203.688,124.096 204.234,121.889 204.098,119.643C204.351,114.136 201.247,110.368 197.79,109.294ZM151.236,59.439C148.053,57.408 145.182,57.643 142.468,60.298C139.949,62.759 137.527,65.356 135.067,67.895L135.067,67.895L131.65,71.41L139.929,80.08L128.076,91.543L120.284,83.322L111.848,91.113L99.858,79.748L108.587,71.742C107.962,71.039 107.591,70.668 107.22,70.277C104.369,67.309 101.382,64.458 98.667,61.353C95.582,57.838 91.774,56.998 87.673,60.103C84.353,62.622 83.67,67.992 86.521,71.019C88.005,72.581 89.548,74.124 91.051,75.667C98.823,83.673 106.596,91.66 114.387,99.627C116.223,101.502 118.058,103.416 119.913,105.349C120.519,104.783 120.89,104.47 121.222,104.119C132.06,93.066 142.839,81.974 153.618,70.863C154.243,70.179 154.673,69.34 154.888,68.441C155.884,64.477 154.673,61.646 151.236,59.439Z" fill="#000" stroke="#00000000" stroke-width="1.0" stroke-miterlimit=""/>
	</svg>
