<?xml version="1.0" encoding="utf-8"?>
	<svg version="1.1" xmlns="http://www.w3.org/2000/svg" xmlns:xlink="http://www.w3.org/1999/xlink" x="0px" y="0px" width="240.0" height="240.0" xml:space="preserve">
		<path d="M164.224,49L123.069,57.303L211.336,152.786L220,91.417L164.224,49ZM136.787,78.963L119.819,60.01L94.368,82.392L110.433,102.066L136.787,78.963ZM138.592,154.952L161.516,187.622L207.726,155.313L178.664,123.726L138.592,154.952ZM71.625,67.23L43.105,72.465L108.628,180.402L157.906,190.33L104.296,113.438L71.625,67.23ZM51.588,94.666L40.578,76.075L25.596,98.095L35.884,115.784L51.588,94.666ZM54.838,148.274L67.653,170.656L81.011,156.757L67.473,134.556L54.838,148.274ZM20,131.848L38.592,166.865L64.765,173.724L23.43,101.525L20,131.848Z" fill="#000" stroke="#00000000" stroke-width="1.0" stroke-miterlimit=""/>
	</svg>
