<svg xmlns="http://www.w3.org/2000/svg" width="192" height="192" fill="none" viewBox="0 0 192 192"><path stroke="#000" stroke-linecap="round" stroke-linejoin="round" stroke-width="12" d="M72 78a6 6 0 0 1 6-6h36a6 6 0 0 1 6 6v36a6 6 0 0 1-6 6H78a6 6 0 0 1-6-6zM25 62h13m116 0h13M25 96h13m116 0h13M25 130h13m116 0h13"/><path stroke="#000" stroke-linecap="round" stroke-linejoin="round" stroke-width="12" d="M38 44a6 6 0 0 1 6-6h104a6 6 0 0 1 6 6v104a6 6 0 0 1-6 6H44a6 6 0 0 1-6-6zm58-19v13m0 116v13M62 25v13m0 116v13m68-142v13m0 116v13"/></svg>