<svg width="192" height="192" viewBox="0 0 192 192" fill="none" xmlns="http://www.w3.org/2000/svg">
<rect x="37" y="37" width="118" height="117" rx="32" stroke="black" stroke-width="12" stroke-linejoin="round"/>
<rect x="75" y="73" width="42" height="42" rx="16" stroke="black" stroke-width="12" stroke-linejoin="round"/>
<rect x="123" y="16" width="12" height="26" rx="6" fill="black"/>
<rect x="90" y="16" width="12" height="26" rx="6" fill="black"/>
<rect x="54" y="16" width="12" height="26" rx="6" fill="black"/>
<rect x="42" y="123" width="12" height="26" rx="6" transform="rotate(90 42 123)" fill="black"/>
<rect x="42" y="90" width="12" height="26" rx="6" transform="rotate(90 42 90)" fill="black"/>
<rect x="42.0708" y="54" width="12" height="26" rx="6" transform="rotate(90 42.0708 54)" fill="black"/>
<rect x="176" y="123" width="12" height="26" rx="6" transform="rotate(90 176 123)" fill="black"/>
<rect x="176" y="90" width="12" height="26" rx="6" transform="rotate(90 176 90)" fill="black"/>
<rect x="176.071" y="54" width="12" height="26" rx="6" transform="rotate(90 176.071 54)" fill="black"/>
<rect x="123" y="150" width="12" height="26" rx="6" fill="black"/>
<rect x="90" y="150" width="12" height="26" rx="6" fill="black"/>
<rect x="54" y="150" width="12" height="26" rx="6" fill="black"/>
</svg>
