<svg xmlns="http://www.w3.org/2000/svg" width="192" height="192" fill="none" viewBox="0 0 192 192"><path stroke="#000" stroke-linecap="round" stroke-width="12" d="m92.65 170 57.81-35.42a22.06 22.06 0 0 0 10.53-18.8V70.57c0-7.71-4.02-14.86-10.61-18.85l-43.7-26.52a22.05 22.05 0 0 0-22.84-.03L41.67 50.63a22.05 22.05 0 0 0-10.65 18.88v49.67c0 6.41 3.48 12.32 9.09 15.43l23.7 13.14c5.41 3 12.01 2.95 17.37-.15l46.34-26.72c5.46-3.15 8.83-8.98 8.83-15.28V77.26c0-6.23-3.28-12-8.64-15.17l-24.58-14.58a13.23 13.23 0 0 0-14.03.33L59.34 65.2a13.23 13.23 0 0 0-6.56 11.43v34.67c0 3.13 1.65 6.02 4.35 7.6l10.12 5.95a7.93 7.93 0 0 0 8.04 0l35.02-20.54a7.94 7.94 0 0 0 3.92-6.85V83.93c0-2.5-1.33-4.82-3.48-6.09l-10.98-6.45a7.06 7.06 0 0 0-7.41.16l-12.55 8.12a4.4 4.4 0 0 0-2.02 3.7v13.01"/></svg>