<svg width="192" height="192" viewBox="0 0 192 192" fill="none" xmlns="http://www.w3.org/2000/svg">
<path d="M103.743 103.743C114.621 97.8064 122 86.265 122 73C122 53.67 106.33 38 87 38H57C51.4637 38 46.2277 39.2854 41.5741 41.5741M103.743 103.743L150.426 150.426M103.743 103.743L41.5741 41.5741M73.5741 103.574C71.2854 108.228 70 113.464 70 119C70 138.33 85.67 154 105 154H124M150.426 150.426L170 170M150.426 150.426C162.021 144.724 170 132.794 170 119C170 102.067 157.976 87.943 142 84.7001M26.257 56.257C23.5426 61.2304 22 66.935 22 73C22 89.9327 34.0243 104.057 50 107.3M41.5741 41.5741L22 22" stroke="black" stroke-width="12" stroke-linecap="round"/>
</svg>
