<svg xmlns="http://www.w3.org/2000/svg" width="192" height="192" fill="none" viewBox="0 0 192 192"><path stroke="#000" stroke-linecap="round" stroke-linejoin="round" stroke-miterlimit="6" stroke-width="10" d="M143.224 137.103a2.884 2.884 0 0 1 5.552 0l2.248 7.215c.391 1.253 1.512 2.102 2.776 2.102h7.276c2.827 0 4.003 3.773 1.715 5.506l-5.886 4.459c-1.023.775-1.451 2.149-1.06 3.403l2.248 7.214c.874 2.804-2.204 5.136-4.492 3.403l-5.885-4.459a2.824 2.824 0 0 0-3.432 0l-5.885 4.459c-2.288 1.733-5.366-.599-4.492-3.403l2.248-7.214c.391-1.254-.037-2.628-1.06-3.403l-5.886-4.459c-2.288-1.733-1.112-5.506 1.715-5.506h7.276c1.264 0 2.385-.849 2.776-2.102z"/><path stroke="#000" stroke-linecap="round" stroke-linejoin="round" stroke-width="12" d="M86 75c-20 4-34 38-34 38s21-15 42-2m18-89v64"/><path stroke="#000" stroke-linecap="round" stroke-linejoin="round" stroke-width="12" d="M140 116V28c0-3.984-3.815-6.86-7.648-5.766L91.808 33.811a6 6 0 0 1-1.648.23H35c-3.314 0-6 2.685-6 5.996v111.926a6 6 0 0 0 6 5.996h55.16c.557 0 1.112.077 1.648.23L115 164.811m27-127.758 13.596-3.272c3.774-.908 7.404 1.952 7.404 5.834V123"/></svg>