<?xml version="1.0" encoding="UTF-8" standalone="no"?>
<!-- Created with Inkscape (http://www.inkscape.org/) -->

<svg
   width="192"
   height="192"
   viewBox="0 0 50.800001 50.800001"
   version="1.1"
   id="svg21311"
   xml:space="preserve"
   inkscape:version="1.2.2 (b0a8486541, 2022-12-01)"
   sodipodi:docname="libretrack.svg"
   xmlns:inkscape="http://www.inkscape.org/namespaces/inkscape"
   xmlns:sodipodi="http://sodipodi.sourceforge.net/DTD/sodipodi-0.dtd"
   xmlns="http://www.w3.org/2000/svg"
   xmlns:svg="http://www.w3.org/2000/svg"><sodipodi:namedview
     id="namedview21313"
     pagecolor="#ffffff"
     bordercolor="#000000"
     borderopacity="0.25"
     inkscape:showpageshadow="2"
     inkscape:pageopacity="0.0"
     inkscape:pagecheckerboard="0"
     inkscape:deskcolor="#d1d1d1"
     inkscape:document-units="mm"
     showgrid="false"
     inkscape:zoom="3.393436"
     inkscape:cx="25.490388"
     inkscape:cy="102.99295"
     inkscape:window-width="2031"
     inkscape:window-height="1074"
     inkscape:window-x="26"
     inkscape:window-y="23"
     inkscape:window-maximized="0"
     inkscape:current-layer="layer2" /><defs
     id="defs21308"><linearGradient
       id="linearGradient3789-6"><stop
         style="stop-color:#1e9bff;stop-opacity:1;"
         offset="0"
         id="stop3791-0" /><stop
         style="stop-color:#00c8de;stop-opacity:1;"
         offset="1"
         id="stop3793-4" /></linearGradient></defs><g
     inkscape:label="Layer 1"
     inkscape:groupmode="layer"
     id="layer1"><g
       id="layer2"
       inkscape:label="Ebene"
       style="display:inline"
       transform="matrix(1.6861827,0,0,1.6861827,23.494144,16.749413)"><path
         style="display:inline;fill:none;stroke:#000000;stroke-width:1.88295136;stroke-linecap:round;stroke-linejoin:round;stroke-dasharray:none;stroke-opacity:1;paint-order:normal"
         d="M -0.7630575,5.15663 C -0.6897237,1.891506 -0.1923237,1.1425547 4.665283,2.7952108 5.5786779,3.1059662 5.1301219,6.5226671 4.660763,6.9532663 4.011502,7.5489112 -2.1502911,10.674483 -2.6207882,10.674483 c -0.4319296,0 -2.9523385,-1.510493 -3.3799714,-1.922889 -0.969077,-0.934548 -0.79701,-3.1975214 -0.7923656,-4.2458739 0.020268,-4.57501357 0.1758572,-3.53370313 4.3015674,-5.6608853 3.808144,-1.9634477 3.8093081,-2.073327 7.8844731,0.22933316 1.199105,0.6775508 2.9785683,1.33755193 3.3941989,2.63832504 0.2912071,0.9113727 0.2353869,2.411526 0.2513829,3.3608904 0.078082,4.6343102 0.5083005,3.496015 -9.3555334,8.5225906 -2.1187126,1.079689 -2.6999261,1.023344 -5.7513141,-0.557629 -2.7977179,-1.449542 -3.4098862,-1.952085 -3.8636245,-2.53716 -0.4963631,-3.002953 -1.0872601,-7.4615273 -0.3378161,-10.13635627 2.1000228,-2.02454693 3.8634172,-3.46641533 4.964705,-4.04176563 4.54914913,-2.3766307 5.46931545,-2.6744293 6.4983042,-2.763955 0.9418461,-0.081944 1.6922783,0.3729979 2.4336498,0.7127302 5.4055814,2.4770988 8.368278,4.338782 8.759864,5.52301228 C 13.112166,1.9887003 12.622178,10.061189 11.706754,10.997567 11.16815,11.5485 1.628193,16.746683 1.1710431,16.73832"
         id="path1750"
         sodipodi:nodetypes="csssssssssssccsssssc" /></g></g></svg>
