<?xml version="1.0" encoding="UTF-8"?>
<svg id="Layer_13" data-name="Layer 13" xmlns="http://www.w3.org/2000/svg" viewBox="0 0 160.99 161.37">
  <defs>
    <style>
      .cls-1 {
        fill: none;
        stroke: #231f20;
        stroke-linecap: round;
        stroke-linejoin: round;
        stroke-width: 9px;
      }
    </style>
  </defs>
  <path class="cls-1" d="M79.83,95.99c-3.5,10.93-37.62,24.86-54.06-1.59M88.58,86.29c6.89.41,13.46-7.71,12.3-14.63-1.37-11.3-13.79-11.56-18.81-1.63-4.14,7.93-2.48,16.71,6.33,16.25h.18ZM113,64.77c.68.92.27,4.31-1.22,7.87-3.73,8.9-.85,16.24,7.77,13.03,5.38-2,6.13-6.9,7.71-12.46.96-3.83,1.27-4.69,2.38-8.48-.88,3.56-1.12,3.79-2.79,10.3-1.67,6.51,2.33,13.51,7.05,8.79,6.43-6.43,11.28-19.09,11.28-19.09M11.62,51.79c1.67,8.98-2.68,21.86-5.78,29.24-.64,1.71-.35,2.91.47,3.9,2.69-1.28,5.84-.47,8.07-.07,2.85.64,5.71-.06,7.96-2.06M60.15,68.81c0-4.71-5.2-5.44-9.34-3.78-4.7,2.04-8.65,8.05-7.62,12.96.9,4.73,3.99,8.11,8.91,8.25,3.24.24,7-2.08,8.44-5.53"/>
  <path class="cls-1" d="M33.73,64.59c1.5,2.28-4.34,16.63-1.63,21.65"/>
  <path class="cls-1" d="M71.49,63.58c2.61,3.9-5.01,17.58-.98,22.66"/>
  <path class="cls-1" d="M148.18,62.12c-.39.15-3.59,1.24-3.59,5.35-.24,5.19,3.21,7.28,6.05,10.8,2.96,3.67,7.27,8.51,3.19,14.13-6.03,6.12-13.92,4.44-13.62-2.7"/>
  <circle class="cls-1" cx="74.54" cy="53.49" r=".89"/>
  <circle class="cls-1" cx="34.35" cy="53.2" r=".89"/>
</svg>