<svg xmlns="http://www.w3.org/2000/svg" width="192" height="192" fill="none"><circle cx="96" cy="53" r="4" stroke="#000" stroke-linecap="round" stroke-linejoin="round" stroke-width="8"/><circle cx="96" cy="78" r="3" stroke="#000" stroke-linecap="round" stroke-linejoin="round" stroke-width="6"/><circle cx="96" cy="114" r="3" stroke="#000" stroke-linecap="round" stroke-linejoin="round" stroke-width="6"/><circle cx="78" cy="96" r="3" stroke="#000" stroke-linecap="round" stroke-linejoin="round" stroke-width="6"/><circle cx="114" cy="96" r="3" stroke="#000" stroke-linecap="round" stroke-linejoin="round" stroke-width="6"/><circle cx="53" cy="83" r="4" stroke="#000" stroke-linecap="round" stroke-linejoin="round" stroke-width="8"/><circle cx="139" cy="83" r="4" stroke="#000" stroke-linecap="round" stroke-linejoin="round" stroke-width="8"/><circle cx="53" cy="109" r="4" stroke="#000" stroke-linecap="round" stroke-linejoin="round" stroke-width="8"/><circle cx="139" cy="109" r="4" stroke="#000" stroke-linecap="round" stroke-linejoin="round" stroke-width="8"/><circle cx="96" cy="139" r="4" stroke="#000" stroke-linecap="round" stroke-linejoin="round" stroke-width="8"/><circle cx="122.177" cy="61.886" r="4" stroke="#000" stroke-linecap="round" stroke-linejoin="round" stroke-width="8" transform="rotate(37.5 122.177 61.886)"/><circle cx="69.823" cy="130.114" r="4" stroke="#000" stroke-linecap="round" stroke-linejoin="round" stroke-width="8" transform="rotate(37.5 69.823 130.114)"/><circle cx="4" cy="4" r="4" stroke="#000" stroke-linecap="round" stroke-linejoin="round" stroke-width="8" transform="rotate(142.5 25.73 40.115)scale(1 -1)"/><circle cx="4" cy="4" r="4" stroke="#000" stroke-linecap="round" stroke-linejoin="round" stroke-width="8" transform="rotate(142.5 40.325 83.115)scale(1 -1)"/><path stroke="#000" stroke-linecap="round" stroke-linejoin="round" stroke-width="8" d="M28 83a4 4 0 1 1-8 0 4 4 0 0 1 8 0m22.742 65.39a4 4 0 1 1-4 6.928 4 4 0 0 1 4-6.928m68 13a4 4 0 1 1 4 6.928 4 4 0 0 1-4-6.928M92 24a4 4 0 1 0 8 0 4 4 0 0 0-8 0m64.354 32.536a4 4 0 1 0 4 6.928 4 4 0 0 0-4-6.928m4 72a4 4 0 1 0-4 6.927 4 4 0 0 0 4-6.927M92 168a4 4 0 1 0 8 0 4 4 0 0 0-8 0m-60.354-39.464a4 4 0 1 0 4 6.928 4 4 0 0 0-4-6.928m4-72a4 4 0 1 0-4 6.928 4 4 0 0 0 4-6.928M172 83a4 4 0 1 1-8 0 4 4 0 0 1 8 0m-49.258-59.318a4 4 0 1 1-4.002 6.929 4 4 0 0 1 4.002-6.929m-76 13a4 4 0 1 1 4 6.928 4 4 0 0 1-4-6.928M28 109a4 4 0 1 1-8 0 4 4 0 0 1 8 0m45.258 52.39a4 4 0 1 1-4 6.928 4 4 0 0 1 4-6.928m68-13a4 4 0 1 1 4 6.927 4 4 0 0 1-4-6.927M172 109a4 4 0 1 1-8 0 4 4 0 0 1 8 0m-26.742-72.318a4 4 0 1 1-4 6.928 4 4 0 0 1 4-6.928m-76-13a4 4 0 1 1 4 6.928 4 4 0 0 1-4-6.928"/></svg>