<?xml version="1.0" encoding="UTF-8" standalone="no"?>
<svg
   width="192"
   height="192"
   viewBox="0 0 192 192"
   fill="none"
   version="1.1"
   id="svg4"
   xml:space="preserve"
   xmlns="http://www.w3.org/2000/svg"
   xmlns:svg="http://www.w3.org/2000/svg"><defs
     id="defs4"><linearGradient
       id="swatch5"><stop
         style="stop-color:#ff9900;stop-opacity:1;"
         offset="0"
         id="stop5" /></linearGradient><linearGradient
       id="swatch4"><stop
         style="stop-color:#3b8aff;stop-opacity:1;"
         offset="0"
         id="stop4" /></linearGradient></defs><g
     id="layer2"
     style="display:inline"><path
       style="fill:none;stroke:#000000;stroke-width:8.76249;stroke-linecap:round;stroke-linejoin:round;stroke-dasharray:none"
       d="m 142.13646,53.5 v 85.75051 A 11.249493,11.249493 135 0 1 130.88697,150.5 H 66.191117 A 11.191117,11.191117 45 0 1 55,139.30888 V 53.1911 A 11.1911,11.1911 135 0 1 66.1911,42 h 47.6178 c 6.18067,0 11.30029,5.00925 11.41568,11.188847 0.31771,17.015723 0.8082,48.631653 0.31878,60.109813 -0.10204,2.39314 -2.51123,4.1832 -4.94148,4.15117 -10.78892,-0.1422 -38.691903,-0.0104 -54.411034,0.081 C 60.010294,117.56685 55,122.61201 55,128.79268 V 136"
       id="path5"
       transform="matrix(1.3749144,0,0,1.3640553,-37.022468,-35.314055)" /><path
       style="fill:none;stroke:#000000;stroke-width:12;stroke-linecap:round;stroke-linejoin:round;stroke-dasharray:none"
       d="m 58.959,147.88 h 71.75809"
       id="path7" /><path
       style="fill:none;fill-opacity:1;stroke:#000000;stroke-width:8;stroke-linecap:round;stroke-linejoin:round;stroke-dasharray:none;stroke-opacity:1"
       d="m 64.160804,106.1039 c 5.763909,-4.75729 4.804489,-7.168457 9.35809,-12.356043 8.664878,-9.871268 21.677434,-11.6982 27.504216,-17.146307 5.02641,-4.699748 8.63876,-14.050315 10.9797,-35.913398 C 80.232077,58.488351 77.074911,95.990895 64.160804,106.1039 Z"
       id="path10" /></g></svg>
