<svg id="svg" xmlns="http://www.w3.org/2000/svg" xmlns:xlink="http://www.w3.org/1999/xlink" width="400" height="400" viewBox="0, 0, 400,400"><g id="svgg"><path id="path0" d="M141.046 96.959 C 123.403 100.442,109.216 111.463,101.145 127.958 L 96.094 138.281 96.094 200.781 L 96.094 263.281 100.469 272.656 C 106.005 284.518,113.858 292.681,125.781 298.965 L 135.156 303.906 199.219 303.906 L 263.281 303.906 272.656 299.528 C 284.247 294.114,295.620 282.147,300.420 270.313 C 306.050 256.435,305.815 146.437,300.124 131.438 C 293.459 113.871,277.013 100.516,257.484 96.813 C 247.916 94.998,150.360 95.121,141.046 96.959 M265.690 122.459 C 281.889 132.660,283.188 139.165,282.533 206.813 C 281.770 285.589,284.798 282.790,200.301 282.804 C 114.284 282.818,117.210 285.706,117.196 200.771 C 117.182 114.710,114.478 117.277,204.688 117.724 L 258.594 117.991 265.690 122.459 M159.257 158.719 L 155.469 162.750 155.469 201.039 L 155.469 239.328 159.853 243.101 C 166.408 248.744,197.413 248.850,203.455 243.250 L 207.366 239.626 211.886 243.243 C 224.083 253.002,228.720 246.342,229.688 217.672 L 230.469 194.531 237.713 193.698 C 257.279 191.447,254.399 171.480,234.532 171.634 C 211.094 171.816,208.727 174.932,208.095 206.438 L 207.597 231.307 203.588 228.154 C 200.466 225.698,197.244 225.000,189.034 225.000 C 175.953 225.000,176.612 226.881,176.584 189.453 C 176.564 163.037,176.332 160.707,173.438 157.813 C 169.172 153.547,163.794 153.890,159.257 158.719 " stroke="none" fill="#000000" fill-rule="evenodd"></path></g></svg>