<svg xmlns="http://www.w3.org/2000/svg" width="192" height="192" fill="none" viewBox="0 0 192 192"><g stroke="#000" stroke-linecap="round" stroke-linejoin="round" clip-path="url(#a)"><path stroke-width="12" d="M155.868 37.668v117.006c0 4.071-1.63 7.975-4.531 10.854a15.54 15.54 0 0 1-10.941 4.496h-88.98c-2.021 0-4.023-.395-5.89-1.163a15.4 15.4 0 0 1-4.994-3.31 15.3 15.3 0 0 1-3.336-4.954 15.2 15.2 0 0 1-1.172-5.843V37.246c0-2.005.398-3.99 1.172-5.843a15.3 15.3 0 0 1 3.336-4.954 15.4 15.4 0 0 1 4.994-3.31 15.5 15.5 0 0 1 5.89-1.163h65.492c8.5 0 15.542 6.835 15.7 15.267.437 23.218 1.112 66.358.439 82.02-.141 3.265-3.454 5.708-6.797 5.664-14.838-.194-53.215-.014-74.835.111-8.5.049-15.391 6.933-15.391 15.366v9.835m20.361-2.359h71.758"/><path stroke-width="10" d="M62.61 105.422c5.764-4.758 3.367-6.882 8.335-11.674 9.773-9.428 27.278-7.343 29.892-14.077 2.49-6.414 6.251-16.438 8.592-38.3-31.77 17.8-33.904 53.938-46.819 64.051"/></g><defs><clipPath id="a"><path fill="#fff" d="M30 16h131.892v160H30z"/></clipPath></defs></svg>