<?xml version="1.0" encoding="UTF-8" standalone="no"?>
<!-- Created with Inkscape (http://www.inkscape.org/) -->

<svg
   width="24"
   height="24"
   viewBox="0 0 6.3499999 6.3500002"
   version="1.1"
   id="svg5"
   xmlns="http://www.w3.org/2000/svg"
   xmlns:svg="http://www.w3.org/2000/svg">
  <defs
     id="defs2" />
  <g
     id="layer1">
    <path
       style="fill:#000000;stroke:#000000;stroke-width:0.00212763px;stroke-linecap:butt;stroke-linejoin:miter;stroke-opacity:1"
       d="m 3.1944367,5.3340698 h -2.598467 c -0.04606,0 -0.06524,-0.02303 -0.06524,-0.07292 v -4.191322 c -0.0039,-0.02687 0.01536,-0.05373 0.04606,-0.05758 0.0039,0 0.0077,0 0.01536,0 h 0.802185 c 0.01919,-0.0039 0.04606,0.01151 0.04606,0.03454 0,0.0039 0,0.0077 0,0.01151 v 3.442873 h 1.896075 c 0.04222,0 0.05373,0.01919 0.04605,0.05758 l -0.118984,0.713906 c 0,0.01919 -0.01151,0.03838 -0.02303,0.0499 -0.01536,0.0077 -0.03071,0.01151 -0.04606,0.01151 z"
       id="path68" />
    <path
       style="fill:#000000;stroke:#000000;stroke-width:0.00212763px;stroke-linecap:butt;stroke-linejoin:miter;stroke-opacity:1"
       d="m 3.8507707,2.0524028 h 0.717744 c 0.04222,0 0.063175,0.02839 0.08445,0.06524 0.016998,0.029441 0.02687,0.06141 0.03454,0.09596 0.0077,0.04222 0.01536,0.08444 0.01919,0.126661 0.0039,0.04606 0.0077,0.09595 0.0077,0.145852 0.122823,-0.142013 0.272513,-0.260998 0.437556,-0.353115 0.188072,-0.103634 0.399173,-0.153528 0.610274,-0.145852 0.02687,-0.0039 0.05373,0.01535 0.05758,0.04605 v 0.01536 0.802185 c 0,0.03454 -0.01919,0.04605 -0.06524,0.04605 -0.264837,-0.01535 -0.533511,0.03454 -0.775319,0.138176 -0.0806,0.03838 -0.161204,0.08444 -0.222615,0.153528 v 2.091823 c 0,0.04222 -0.01536,0.05758 -0.05373,0.05758 h -0.798347 c -0.03454,0.0039 -0.06141,-0.01536 -0.06524,-0.0499 v -0.01536 -2.272219 c 0,-0.09979 0,-0.199586 -0.0039,-0.307056 -0.0039,-0.107467 -0.0039,-0.21494 -0.0077,-0.318571 -0.0039,-0.09212 -0.01151,-0.180397 -0.02303,-0.272513 -0.0039,-0.01919 0.00603,-0.032715 0.015501,-0.039858 0.00947,-0.00714 0.030586,-0.010017 0.030586,-0.010017 z"
       id="path68-7" />
  </g>
</svg>
