<svg width="192" height="192" fill="none" xmlns="http://www.w3.org/2000/svg"><path d="M37.11 79.401a33.897 33.897 0 0 1 13.874-5.386c2.285-.343 4.317-1.717 5.41-3.753a45.207 45.207 0 0 1 7.786-10.514A44.944 44.944 0 0 1 84.503 48l-19.234 52.61a6 6 0 0 0 4.125 7.868l16.17 4.203a6 6 0 0 1 4.11 7.905L81.685 142H56c-4.84 0-9.624-1.039-14.032-3.047a34.01 34.01 0 0 1-11.53-8.596 34.232 34.232 0 0 1-6.974-12.615 34.35 34.35 0 0 1-1.173-14.383 34.296 34.296 0 0 1 4.836-13.587 34.099 34.099 0 0 1 9.984-10.37Zm117.033 60.18A26.89 26.89 0 0 1 143 142h-33.579l13.412-38.078a6 6 0 0 0-4.146-7.8l-14.409-3.755a6 6 0 0 1-4.157-7.768l12.126-35.049a44.979 44.979 0 0 1 15.573 10.198 45.307 45.307 0 0 1 12.106 22.162c.713 3.222 3.587 5.608 6.855 6.072A26.913 26.913 0 0 1 158 92.29a27.071 27.071 0 0 1 7.928 8.235 27.271 27.271 0 0 1 2.909 22.213 27.175 27.175 0 0 1-5.537 10.017 27.013 27.013 0 0 1-9.157 6.827Z" stroke="#000" stroke-width="12" stroke-linecap="round" stroke-linejoin="round"/></svg>