<svg xmlns="http://www.w3.org/2000/svg" width="192" height="192" fill="none" viewBox="0 0 192 192"><path stroke="#000" stroke-linecap="round" stroke-linejoin="round" stroke-width="10" d="M121.221 140.785v10.014c9.772 9.189 11.311 20.313 11.311 20.313H85.296c5.905-18.435 13.674-19.872 13.674-19.872v-5.568s-7.07-8.272-24.01-17.681c0 0-34.476-17.042-32.927-50.135l-1.512-.925s-.078-2.261 5.065-5.34l-2.658-3.73c1.052-2.856 6.933-16.525 16.299-20.286l6.479-6.544 5.739-.023s1.863-3.86 8.019-4.096L98.26 25.46l.12 5.43s14.66-9.101 27.712-10l-.437 4.433s7.345-1.367 16.202-.534l.858 2.741s6.699 1.698 9.682 4.09l.356 4.58 2.359.543-8.071 6.011 2.673 2.769s-6.717 9.398-11.496 11.421c0 0 6.493 13.691 11.975 47.644 0 0 .356 17.575-28.972 36.198zM135.289 85h-.007m-25.275 8.1H110"/></svg>