<?xml version="1.0" encoding="UTF-8" standalone="no"?>
<!-- Created with Inkscape (http://www.inkscape.org/) -->

<svg
   version="1.1"
   id="svg2"
   width="192"
   height="192"
   viewBox="0 0 192 192"
   sodipodi:docname="LIMBO.png"
   xmlns:inkscape="http://www.inkscape.org/namespaces/inkscape"
   xmlns:sodipodi="http://sodipodi.sourceforge.net/DTD/sodipodi-0.dtd"
   xmlns="http://www.w3.org/2000/svg"
   xmlns:svg="http://www.w3.org/2000/svg">
  <defs
     id="defs6" />
  <sodipodi:namedview
     id="namedview4"
     pagecolor="#ffffff"
     bordercolor="#000000"
     borderopacity="0.25"
     inkscape:showpageshadow="2"
     inkscape:pageopacity="0.0"
     inkscape:pagecheckerboard="0"
     inkscape:deskcolor="#d1d1d1"
     showgrid="false" />
  <g
     inkscape:groupmode="layer"
     inkscape:label="Image"
     id="g8">
    <path
       style="fill:none;fill-opacity:0.841327;stroke:#000000;stroke-width:6;stroke-linecap:round;stroke-linejoin:round;stroke-dasharray:none;stroke-opacity:1;paint-order:stroke fill markers"
       d="m 119.92628,141.98123 v 10.24223 C 129.92076,161.6225 131.49537,173 131.49537,173 H 83.180882 c 6.03953,-18.85541 13.986289,-20.32557 13.986289,-20.32557 v -5.69527 c 0,0 -7.233054,-8.461 -24.557484,-18.08386 0,0 -35.263889,-17.43162 -33.679488,-51.279915 L 37.383,76.668447 c 0,0 -0.07976,-2.312499 5.181103,-5.461716 L 39.84562,67.39156 c 1.075337,-2.920762 7.090812,-16.90171 16.670762,-20.748398 l 6.626602,-6.694444 5.870014,-0.02261 c 0,0 1.905806,-3.94765 8.202102,-4.189638 l 19.225969,-11.714297 0.122499,5.554397 c 0,0 14.994302,-9.310007 28.345092,-10.229879 l -0.44712,4.534544 c 0,0 7.51264,-1.397436 16.57211,-0.546296 l 0.87745,2.804487 c 0,0 6.85185,1.735933 9.90242,4.182514 l 0.36401,4.685186 2.41363,0.554664 -8.25551,6.149217 2.7338,2.831553 c 0,0 -6.86984,9.613248 -11.75802,11.68198 0,0 6.64096,14.003656 12.24845,48.73171 0,0 0.3637,17.9765 -29.6336,37.02498 z"
       id="path2173"
       sodipodi:nodetypes="ccccccccccccccccccccccccccccc" />
    <path
       style="fill:none;fill-opacity:0.841327;stroke:#000000;stroke-width:8;stroke-linecap:round;stroke-linejoin:round;stroke-dasharray:none;stroke-opacity:1;paint-order:stroke fill markers"
       d="m 138.23913,84.302087 h -0.007"
       id="path2271"
       sodipodi:nodetypes="cc" />
    <path
       style="fill:none;fill-opacity:0.841327;stroke:#000000;stroke-width:8;stroke-linecap:round;stroke-linejoin:round;stroke-dasharray:none;stroke-opacity:1;paint-order:stroke fill markers"
       d="m 110.36856,93.152757 h -0.007"
       id="path2271-3"
       sodipodi:nodetypes="cc" />
  </g>
</svg>
