<svg width="192" height="192" viewBox="0 0 192 192" fill="none" xmlns="http://www.w3.org/2000/svg"><path d="M170 96a73.997 73.997 0 0 0-74-74m0 148a73.996 73.996 0 0 0 64.086-37M59 31.914A74.001 74.001 0 0 0 22 96m74 36a36.002 36.002 0 0 0 35.308-43.023 35.996 35.996 0 0 0-28.285-28.285A36 36 0 0 0 60 96m-38 0v54c0 11.046 8.954 20 20 20h54" stroke="#000" stroke-width="12" stroke-linecap="round" stroke-linejoin="round"/><path d="M60 96v24c0 6.627 5.373 12 12 12h24" stroke="#000" stroke-width="12" stroke-linecap="round" stroke-linejoin="round"/></svg>