<svg xmlns="http://www.w3.org/2000/svg" width="192" height="192" fill="none" viewBox="0 0 192 192"><path stroke="#000" stroke-linecap="round" stroke-linejoin="round" stroke-width="6" d="m87 91 5 11 4-11 4 11 5-11"/><path stroke="#000" stroke-linecap="round" stroke-linejoin="round" stroke-width="12" d="M119.51 79.51 63.753 23.753a6 6 0 0 0-8.486 0L23.753 55.267a6 6 0 0 0 0 8.486L37.51 77.51"/><path stroke="#000" stroke-linecap="round" stroke-linejoin="round" stroke-width="12" d="m112.49 119.51 55.758-55.757a6 6 0 0 0 0-8.486l-31.515-31.514a6 6 0 0 0-8.485 0L114.49 37.51"/><path stroke="#000" stroke-linecap="round" stroke-linejoin="round" stroke-width="12" d="m72.49 112.49 55.758 55.757a6 6 0 0 0 8.485 0l31.515-31.514a6 6 0 0 0 0-8.486L154.49 114.49"/><path stroke="#000" stroke-linecap="round" stroke-linejoin="round" stroke-width="12" d="m79.51 72.49-55.757 55.757a6 6 0 0 0 0 8.486l31.514 31.514a6 6 0 0 0 8.486 0L77.51 154.49"/></svg>