<svg width="192" height="192" viewBox="0 0 192 192" fill="none" xmlns="http://www.w3.org/2000/svg"><path d="M56.142 164.142A20 20 0 0 0 62 150v-19.515a5.998 5.998 0 0 0-1.757-4.242l-28-28C28.463 94.463 22 97.14 22 102.485V150a20 20 0 0 0 34.142 14.142Zm79.716 0A20 20 0 0 1 130 150v-19.515a6 6 0 0 1 1.757-4.242l28-28c3.78-3.78 10.243-1.103 10.243 4.242V150a20 20 0 0 1-34.142 14.142ZM42 22a20 20 0 0 1 14.142 5.858l35.615 35.615a6 6 0 0 0 8.486 0l35.615-35.615a20 20 0 0 1 28.284 28.284l-63.899 63.9a6 6 0 0 1-8.486 0l-63.9-63.9A20 20 0 0 1 42 22Z" stroke="#000" stroke-width="12" stroke-linecap="round" stroke-linejoin="round"/></svg>