<svg xmlns="http://www.w3.org/2000/svg" width="192" height="192" fill="none"><path stroke="#000" stroke-linecap="round" stroke-linejoin="round" stroke-width="12" d="m96 96-33.98 34.219a6.01 6.01 0 0 1-8.542 0L23.77 100.301a6.11 6.11 0 0 1 0-8.602l29.71-29.918a6.01 6.01 0 0 1 8.54 0zm0 0 33.98 34.219a6.01 6.01 0 0 0 8.542 0l29.709-29.918a6.11 6.11 0 0 0 0-8.602l-29.709-29.918a6.01 6.01 0 0 0-8.542 0z"/><path stroke="#000" stroke-linecap="round" stroke-linejoin="round" stroke-width="8" d="m54 96 4-4 4 4-4 4zm84 0-4-4-4 4 4 4z"/></svg>