<svg width="192" height="192" viewBox="0 0 192 192" fill="none" xmlns="http://www.w3.org/2000/svg">
<path d="M28 41H65.2194C68.4901 41 71.6191 42.3351 73.8824 44.6963L88.9433 60.4088C91.2066 62.77 94.3356 64.1051 97.6063 64.1051H158C164.627 64.1051 170 69.4776 170 76.1051V86.931M28 41V140C28 146.627 33.3726 152 40 152H104.757M28 41H22" stroke="black" stroke-width="12" stroke-linecap="round" stroke-linejoin="round"/>
<path d="M147 106H158.5C164.851 106 170 111.149 170 117.5V129M147 152H135.5C129.149 152 124 146.851 124 140.5V129" stroke="black" stroke-width="12" stroke-linecap="round"/>
<path d="M144 132L147 129L150 126" stroke="black" stroke-width="12" stroke-linecap="round"/>
</svg>
