<svg xmlns="http://www.w3.org/2000/svg" width="192" height="192" fill="none" viewBox="0 0 192 192">
  <path stroke-width="12" stroke-linecap="round" stroke-linejoin="round" stroke="#000" d="M40 36 l-4.5 50 h26 m16 0 l2.5 -30 m1.5 -20 v1 m13 50 l2.5 -30 h15 l6 6 l-1.3 24 m16 0 l4.5 -50 m-3 40 l20 -20 m-13 16 l16 23" />
  <path stroke-width="12" stroke-linecap="round" stroke-linejoin="round" stroke="#000" d="M34 156 l28 -50 h6 l8 50 m-6 -15 h-23 m38 32 l10 -6 l3.5 -41 m1.5 -20 v1 m38 50 l3.5 -25 l-6 -6 h-12 l-6 6 l-3.5 18 l6 6 l16 -6 m20 6 v1 m2 -16 l4 -30" />
</svg>