<svg width="192" height="192" viewBox="0 0 192 192" fill="none" xmlns="http://www.w3.org/2000/svg"><path d="M44 28a6 6 0 0 1 6-6h92a6 6 0 0 1 6 6v136a6 6 0 0 1-6 6H74.485a6 6 0 0 1-4.242-1.757l-24.486-24.486A5.998 5.998 0 0 1 44 139.515V28Z" stroke="#000" stroke-width="12" stroke-linecap="round" stroke-linejoin="round"/><path d="M126 138v8m-20-8v8m-20-8v8" stroke="#000" stroke-width="10" stroke-linecap="round" stroke-linejoin="round"/><path d="M22 72h74M68 50l28 22M68 94l28-22" stroke="#000" stroke-width="12" stroke-linecap="round" stroke-linejoin="round"/></svg>