<svg width="192" height="192" fill="none" xmlns="http://www.w3.org/2000/svg"><path d="m96 96-33.98 34.219a6.01 6.01 0 0 1-8.542 0L23.77 100.301a6.112 6.112 0 0 1 0-8.602l29.71-29.918a6.01 6.01 0 0 1 8.54 0L96 96Zm0 0 33.98 34.219a6.011 6.011 0 0 0 8.542 0l29.709-29.918a6.112 6.112 0 0 0 0-8.602l-29.709-29.918a6.01 6.01 0 0 0-8.542 0L96 96Z" stroke="#000" stroke-width="12" stroke-linecap="round" stroke-linejoin="round"/><path d="m54 96 4-4 4 4-4 4-4-4Zm84 0-4-4-4 4 4 4 4-4Z" stroke="#000" stroke-width="8" stroke-linecap="round" stroke-linejoin="round"/></svg>