<?xml version="1.0" encoding="utf-8"?>
<!-- Generator: Adobe Illustrator 19.0.0, SVG Export Plug-In . SVG Version: 6.00 Build 0)  -->
<svg version="1.1" id="Layer_2" xmlns="http://www.w3.org/2000/svg" xmlns:xlink="http://www.w3.org/1999/xlink" x="0px" y="0px"
	 viewBox="0 0 24 24" style="enable-background:new 0 0 24 24;" xml:space="preserve">
<g>
	<path d="M13.1,10.2c0.1-0.1,0.2-0.2,0.3-0.3c0.6-0.7,1.4-1.2,2.3-1.3c0.9-0.2,1.9-0.2,2.8,0c1.5,0.3,2.4,1.2,3,2.6
		c0.4,1.1,0.5,2.3,0.5,3.5c0,2.2,0,4.4,0,6.7c0,0.5-0.2,0.8-0.8,0.8c-0.9,0-1.9,0-2.8,0c-0.6,0-0.8-0.2-0.8-0.8c0-2.1,0-4.2,0-6.3
		c0-0.5-0.1-1.1-0.2-1.6c-0.3-0.8-0.8-1.3-1.7-1.4c-1-0.1-1.7,0.3-2.2,1.1c-0.3,0.6-0.5,1.3-0.5,2c0,2,0,4.1,0,6.1
		c0,0.6-0.2,0.8-0.8,0.8c-0.9,0-1.8,0-2.6,0c-0.5,0-0.8-0.2-0.8-0.8c0-4,0-7.9,0-11.9c0-0.5,0.2-0.8,0.8-0.8c0.9,0,1.8,0,2.7,0
		c0.5,0,0.7,0.3,0.8,0.8C13,9.6,13,9.9,13.1,10.2C13.1,10.2,13.1,10.2,13.1,10.2z"/>
	<path d="M6.9,15.3c0,1.9,0,3.9,0,5.8C6.9,21.8,6.7,22,6,22c-0.8,0-1.7,0-2.5,0c-0.6,0-0.8-0.3-0.8-0.8c0-3.9,0-7.8,0-11.7
		c0-0.6,0.2-0.8,0.9-0.8c0.8,0,1.7,0,2.5,0c0.6,0,0.8,0.2,0.8,0.9C6.9,11.4,6.9,13.4,6.9,15.3z"/>
	<path d="M4.8,7.4C3.2,7.4,2,6.2,2,4.7C2.1,3.2,3.3,2,4.8,2c1.5,0,2.7,1.2,2.7,2.7C7.5,6.2,6.3,7.5,4.8,7.4z"/>
</g>
</svg>
