<svg xmlns="http://www.w3.org/2000/svg" width="192" height="192" fill="none" viewBox="0 0 192 192"><path stroke="#000" stroke-linecap="round" stroke-linejoin="round" stroke-width="10" d="M118 73V59.325c0-2.068-1.071-3.985-2.979-4.786C111.51 53.063 104.993 51 96 51s-15.51 2.063-19.021 3.539C75.07 55.34 74 57.257 74 59.325V73"/><path stroke="#000" stroke-linecap="round" stroke-linejoin="round" stroke-width="12" d="M140 114c0 31 18 38 18 56M52 114c0 31-18 38-18 56"/><path stroke="#000" stroke-linecap="round" stroke-linejoin="round" stroke-width="10" d="M81 132.667S81 126 96 126s15 6.667 15 6.667-.865 1.537-2.301 3.568C105.906 140.185 100.953 146 96 146s-9.906-5.815-12.699-9.765c-1.436-2.031-2.301-3.568-2.301-3.568"/><path stroke="#000" stroke-linecap="round" stroke-linejoin="round" stroke-width="12" d="M140 114a44.001 44.001 0 0 0-75.113-31.113A44 44 0 0 0 52 114"/><path stroke="#000" stroke-linecap="round" stroke-linejoin="round" stroke-width="10" d="M125.5 77 155 58 96 21 37 58l29.5 19"/><path stroke="#000" stroke-linecap="round" stroke-linejoin="round" stroke-width="8" d="m117 109-11-.357 9.409-8.643M80 109a4 4 0 1 0 0-8 4 4 0 0 0 0 8"/></svg>