<?xml version="1.0" encoding="UTF-8" standalone="no"?>
<!-- Created with Inkscape (http://www.inkscape.org/) -->

<svg
   version="1.1"
   id="svg2"
   width="192"
   height="192"
   viewBox="0 0 192 192"
   sodipodi:docname="linwood_butterfly.svg"
   xmlns:inkscape="http://www.inkscape.org/namespaces/inkscape"
   xmlns:sodipodi="http://sodipodi.sourceforge.net/DTD/sodipodi-0.dtd"
   xmlns="http://www.w3.org/2000/svg"
   xmlns:svg="http://www.w3.org/2000/svg">
  <defs
     id="defs6" />
  <sodipodi:namedview
     id="namedview4"
     pagecolor="#ffffff"
     bordercolor="#000000"
     borderopacity="0.25"
     inkscape:showpageshadow="2"
     inkscape:pageopacity="0.0"
     inkscape:pagecheckerboard="0"
     inkscape:deskcolor="#d1d1d1"
     showgrid="false"
     showguides="true">
    <sodipodi:guide
       position="14.937575,154.93269"
       orientation="1,0"
       id="guide488"
       inkscape:locked="false" />
  </sodipodi:namedview>
  <g
     inkscape:groupmode="layer"
     inkscape:label="Image"
     id="g8">
    <path
       style="display:inline;fill:none;fill-opacity:0.841327;stroke:#000000;stroke-width:10;stroke-linecap:round;stroke-linejoin:round;paint-order:stroke fill markers"
       d="m 96.713349,50.349049 c 0,0 -17.956043,-25.348177 -41.313373,-25.348177 0,0 -33.42903,-0.72412 -34.37443,37.782834 0,0 -2.78264,33.870668 38.51139,52.058054 0,0 -19.76347,16.48279 -19.76347,35.37764 0,0 -0.68027,14.96743 13.21298,16.78691 0,0 13.17665,2.70115 28.11078,-18.67531 0,0 4.043602,10.08553 15.114524,10.9058"
       id="path290-3"
       sodipodi:nodetypes="cccccccc" />
    <path
       style="fill:none;fill-opacity:0.841327;stroke:#000000;stroke-width:10;stroke-linecap:round;stroke-linejoin:round;paint-order:stroke fill markers"
       d="m 96.930763,50.170455 c 0,0 17.337477,-25.35087 40.694807,-25.35087 0,0 33.42903,-0.72412 34.37443,37.782834 0,0 2.78264,33.870668 -38.51139,52.058061 0,0 19.76347,16.48279 19.76347,35.37764 0,0 0.68027,14.96743 -13.21298,16.78691 0,0 -13.17665,2.70115 -28.11078,-18.67531 0,0 -6.38632,11.1184 -15.185687,11.09506"
       id="path290"
       sodipodi:nodetypes="cccccccc" />
    <path
       id="path1098"
       style="fill:none;fill-opacity:0.841327;stroke:#000000;stroke-width:10;stroke-linecap:round;stroke-linejoin:round;stroke-dasharray:none;paint-order:stroke fill markers"
       d="M 129.07337,59.311733 A 10.652918,10.652918 0 0 1 118.42045,69.964651 10.652918,10.652918 0 0 1 107.76753,59.311733 10.652918,10.652918 0 0 1 118.42045,48.658815 10.652918,10.652918 0 0 1 129.07337,59.311733 Z" />
    <path
       id="path1098-6"
       style="fill:none;fill-opacity:0.841327;stroke:#000000;stroke-width:10;stroke-linecap:round;stroke-linejoin:round;stroke-dasharray:none;paint-order:stroke fill markers"
       d="M 85.708836,59.505344 A 10.652918,10.652918 0 0 1 75.055918,70.158262 10.652918,10.652918 0 0 1 64.403,59.505344 10.652918,10.652918 0 0 1 75.055918,48.852427 10.652918,10.652918 0 0 1 85.708836,59.505344 Z" />
    <path
       style="fill:none;fill-opacity:0.841327;stroke:#000000;stroke-width:10;stroke-linecap:round;stroke-linejoin:round;stroke-dasharray:none;paint-order:stroke fill markers"
       d="m 110.11626,82.475891 c 0,0 -15.326756,3.821696 -28.042488,0"
       id="path1127" />
    <path
       style="fill:none;fill-opacity:0.841327;stroke:#000000;stroke-width:10;stroke-linecap:round;stroke-linejoin:round;stroke-dasharray:none;paint-order:stroke fill markers"
       d="m 40,58 v 0"
       id="path1131"
       sodipodi:nodetypes="cc" />
    <path
       style="fill:none;fill-opacity:0.841327;stroke:#000000;stroke-width:10;stroke-linecap:round;stroke-linejoin:round;stroke-dasharray:none;paint-order:stroke fill markers"
       d="m 155,58 v 0"
       id="path1133"
       sodipodi:nodetypes="cc" />
  </g>
</svg>
