<svg xmlns="http://www.w3.org/2000/svg" width="192" height="192" fill="none" viewBox="0 0 192 192"><path stroke="#000" stroke-linecap="round" stroke-linejoin="round" stroke-width="8" d="M81 113s6 4 15 4 15-4 15-4m-3.686-34.314A16.007 16.007 0 0 0 96 74a16.001 16.001 0 0 0-11.314 4.686"/><path stroke="#000" stroke-linecap="round" stroke-linejoin="round" stroke-width="10" d="M96 53S80 24 56 24c0 0-34 0-35 37 0 8 3 38 35 52 0 0-17 16.106-17 35 0 0-1 20 15 20s26-26 26-26m16-89s16-29 40-29c0 0 34 0 35 37 0 8-3 38-35 52 0 0 17 16.106 17 35 0 0 1 20-15 20s-26-26-26-26"/><circle cx="76" cy="87" r="10" stroke="#000" stroke-linecap="round" stroke-linejoin="round" stroke-width="8"/><circle cx="50" cy="61" r="3" stroke="#000" stroke-linecap="round" stroke-linejoin="round" stroke-width="6"/><circle cx="142" cy="61" r="3" stroke="#000" stroke-linecap="round" stroke-linejoin="round" stroke-width="6"/><circle cx="116" cy="87" r="10" stroke="#000" stroke-linecap="round" stroke-linejoin="round" stroke-width="8"/><path stroke="#000" stroke-linecap="round" stroke-linejoin="round" stroke-width="10" d="M80 142a16.001 16.001 0 0 0 16 16m16-16a16.002 16.002 0 0 1-16 16"/></svg>