<?xml version="1.0" standalone="no"?>
<!DOCTYPE svg PUBLIC "-//W3C//DTD SVG 20010904//EN"
 "http://www.w3.org/TR/2001/REC-SVG-20010904/DTD/svg10.dtd">
<svg version="1.0" xmlns="http://www.w3.org/2000/svg"
 width="192" height="192" viewBox="0 0 192 192"
 preserveAspectRatio="xMidYMid meet">
<metadata>
Created by potrace 1.16, written by Peter Selinger 2001-2019
</metadata>
<g transform="translate(0.000000,270.000000) scale(0.100000,-0.100000)"
fill="#000000" stroke="none">
<path d="M0 1350 l0 -1350 1350 0 1350 0 0 1350 0 1350 -1350 0 -1350 0 0
-1350z m1433 619 c62 -67 12 -169 -84 -169 -44 0 -99 56 -99 102 0 42 23 76
64 94 42 18 85 9 119 -27z m-753 -454 l0 -425 233 -2 232 -3 0 -80 0 -80 -315
0 -315 0 -3 508 -2 507 85 0 85 0 0 -425z m1369 130 c99 -13 213 -101 261
-200 77 -159 25 -369 -115 -465 -194 -133 -461 -67 -563 140 -24 49 -27 66
-27 160 0 93 3 112 27 162 32 69 99 138 168 173 49 25 144 45 185 39 11 -1 40
-5 64 -9z m-619 -365 l0 -360 -75 0 -75 0 0 360 0 360 75 0 75 0 0 -360z"/>
<path d="M1896 1495 c-160 -57 -190 -301 -49 -399 80 -55 212 -45 276 22 89
93 78 277 -22 346 -67 47 -134 57 -205 31z"/>
</g>
</svg>
