<svg xmlns="http://www.w3.org/2000/svg" width="192" height="192" fill="none"><circle cx="96" cy="96" r="26" stroke="#000" stroke-linecap="round" stroke-linejoin="round" stroke-width="12"/><path stroke="#000" stroke-linecap="round" stroke-linejoin="round" stroke-width="12" d="M96 22v48M66 28.334v24.665c0 1.887-.903 3.647-2.342 4.868C52.855 67.038 46 80.719 46 96c0 27.614 22.386 50 50 50s50-22.386 50-50c0-15.281-6.855-28.962-17.658-38.133-1.439-1.221-2.342-2.98-2.342-4.868V28.334m-60 0C40.078 39.844 22 65.81 22 96c0 40.869 33.13 74 74 74s74-33.131 74-74c0-30.19-18.078-56.157-44-67.666m-60 0C75.17 24.262 85.32 22 96 22s20.83 2.262 30 6.334"/></svg>