<svg width="192" height="192" viewBox="0 0 192 192" fill="none" xmlns="http://www.w3.org/2000/svg"><path d="M142 170H57m113-28H85m31-85H54m62 28H54m62 28H54m-25 29V22l6.19 5.306a12 12 0 0 0 15.62 0L57 22l6.19 5.306a12 12 0 0 0 15.62 0L85 22l6.19 5.306a12 12 0 0 0 15.619 0L113 22l6.191 5.306a11.999 11.999 0 0 0 15.618 0L141 22v120m-84 28a28.002 28.002 0 0 1-28-28" stroke="#000" stroke-width="12" stroke-linecap="round" stroke-linejoin="round"/><path d="M85 142a27.998 27.998 0 0 1-28 28m113-28a28.001 28.001 0 0 1-28 28" stroke="#000" stroke-width="12" stroke-linecap="round" stroke-linejoin="round"/></svg>