<svg width="192" height="192" viewBox="0 0 192 192" fill="none" xmlns="http://www.w3.org/2000/svg"><path d="M71 75v26m60-26-13 13 13 13M58 88h26m12 39c-34 0-34 22-53 22a20.989 20.989 0 0 1-14.85-6.151A20.998 20.998 0 0 1 22 128c0-4.689 6.28-40.332 10.429-63.36C34.48 53.245 44.405 45 55.983 45H96" stroke="#000" stroke-width="12" stroke-linecap="round" stroke-linejoin="round"/><path d="M96 127c34 0 34 22 53 22a20.993 20.993 0 0 0 19.401-12.964A20.982 20.982 0 0 0 170 128c0-4.689-6.281-40.332-10.429-63.36C157.519 53.245 147.595 45 136.017 45H96" stroke="#000" stroke-width="12" stroke-linecap="round" stroke-linejoin="round"/></svg>