<svg width="192" height="192" viewBox="0 0 192 192" fill="none" xmlns="http://www.w3.org/2000/svg"><path d="M92.562 59.212c-5.96 1.597-10.952 6.175-8.708 14.553 2.211 8.25 19.201 16.659 30.16 22.665 6.494-10.683 16.998-26.458 14.787-34.709-2.245-8.377-8.853-9.846-14.806-8.251-4.648 1.245-7.232 5.785-8.748 10.239-3.556-3.114-8.048-5.739-12.685-4.497Z" stroke="#000" stroke-width="10" stroke-miterlimit="2" stroke-linecap="round" stroke-linejoin="round"/><path d="m101 113-63 25m59-6-10 4m9 13-5 2m-30-45s12 18-23 32" stroke="#000" stroke-width="12" stroke-linecap="round" stroke-linejoin="round"/><circle cx="96" cy="96" r="74" stroke="#000" stroke-width="12" stroke-linejoin="round"/></svg>