<?xml version="1.0" encoding="utf-8"?>
	<svg version="1.1" xmlns="http://www.w3.org/2000/svg" xmlns:xlink="http://www.w3.org/1999/xlink" x="0px" y="0px" width="240.0" height="240.0" xml:space="preserve">
		<path d="M129.865,148.182C129.864,148.19 129.864,148.196 129.864,148.203C131.857,148.203 133.849,148.184 135.841,148.209C137.759,148.234 137.401,146.929 137.337,145.758C137.273,144.595 137.517,143.375 135.591,143.481C131.598,143.703 127.626,143.392 123.71,142.518C122.993,142.358 122.362,142.127 122.091,143.253C121.256,146.722 122.211,148.068 125.79,148.176C127.147,148.217 128.506,148.182 129.865,148.182M169.182,180.83C170.902,180.83 172.622,180.833 174.342,180.829C175.705,180.826 176.276,180.199 176.153,178.787C175.601,172.486 175.061,166.183 174.612,159.874C174.486,158.097 173.612,157.268 171.98,157.018C169.475,156.634 166.961,156.308 164.466,155.87C162.218,155.476 161.28,156.28 161.417,158.604C161.731,163.934 161.665,169.3 162.249,174.597C163.056,181.915 161.201,180.902 169.182,180.83M91.869,162.749C90.834,163.159 89.295,163.683 87.829,164.363C82.054,167.045 80.668,166.168 84.016,173.397C86.253,178.225 88.118,183.229 90.062,188.187C90.655,189.701 91.361,190.124 92.896,189.378C95.655,188.036 98.483,186.833 101.293,185.596C102.545,185.045 103.126,184.33 102.548,182.859C100.069,176.552 97.32,170.365 94.408,164.248C94.011,163.413 93.503,162.656 91.869,162.749M130.081,164.552C132.178,164.623 134.245,164.391 136.284,163.94C142.853,162.488 144.827,159.631 143.882,153.013C143.792,152.387 143.737,151.754 143.699,151.122C143.585,149.275 142.654,148.584 140.82,148.905C138.509,149.31 136.237,149.902 133.86,149.986C128.04,150.193 122.273,149.858 116.636,148.36C115.437,148.041 115.334,148.198 114.899,149.313C114.151,151.228 115.066,153.056 114.714,154.874C113.946,158.855 114.623,160.468 118.194,162.194C121.939,164.005 125.984,164.453 130.081,164.552M116.169,51.265C115.588,52.572 115.184,53.464 114.792,54.362C111.195,62.578 106.387,70.043 100,76.307C97.438,78.82 96.293,81.285 96.316,84.815C96.344,89.24 95.81,93.67 95.485,98.097C95.391,99.378 95.219,100.75 93.747,101.192C92.267,101.637 91.434,100.458 90.568,99.561C89.94,98.911 89.447,98.134 88.826,97.477C85.57,94.036 81.145,94.345 78.362,98.182C76.081,101.327 76.295,104.671 77.792,107.976C80.011,112.871 83.618,116.269 89.037,117.301C94.531,118.346 98.922,120.666 101.314,126.126C102.439,128.694 104.473,130.79 106.713,132.515C120.643,143.244 135.861,144.635 151.753,137.903C160.45,134.219 165.454,127.117 166.091,117.599C167.069,102.993 165.518,88.357 166.27,73.737C166.299,73.18 165.929,73.236 165.686,73.031C159.322,67.651 154.664,60.897 150.27,53.924C149.883,53.311 149.82,52.329 148.64,52.201C148.64,53.42 148.688,54.571 148.631,55.718C148.492,58.482 147.872,61.104 146.062,63.297C145.631,63.819 144.915,64.824 144.361,64.12C142.899,62.264 142.201,63.884 141.189,64.517C139.333,65.679 136.852,67.364 135.247,65.761C133.316,63.832 132.016,65.283 130.361,65.24C127.244,65.159 124.657,66.152 122.114,67.703C121.61,68.01 120.885,67.967 120.257,68.054C118.658,68.276 117.865,67.641 117.945,65.953C118.062,63.51 118.148,61.065 118.18,58.62C118.213,56.153 117.87,53.763 116.169,51.265M105.79,184.91C105.216,185.989 104.064,186.151 103.096,186.6C99.319,188.351 95.528,190.075 91.765,191.854C91.051,192.191 90.072,192.709 90.583,193.662C91.192,194.796 92.016,193.815 92.605,193.454C95.787,191.509 99.161,189.976 102.614,188.603C105.305,187.533 106.886,188.568 107.102,191.513C107.142,192.058 107.222,192.695 106.588,192.906C105.835,193.155 105.691,192.492 105.591,191.972C105.163,189.733 103.842,189.805 102.172,190.571C99.868,191.627 97.536,192.621 95.232,193.677C94.516,194.005 93.431,194.276 93.492,195.155C93.571,196.288 94.74,196.547 95.698,196.847C96.696,197.159 97.654,196.994 98.633,196.721C100.395,196.23 102.032,195.495 103.556,194.48C103.995,194.188 104.565,193.856 104.956,194.509C105.228,194.962 104.858,195.342 104.543,195.684C102.279,198.141 96.768,199.205 93.822,197.73C93.344,197.491 92.851,197.026 92.412,197.628C92.108,198.047 92.515,198.414 92.784,198.794C95.058,202.01 99.937,203.153 104.053,201.398C107.427,199.961 109.436,196.015 108.583,192.173C108.054,189.796 107.278,187.475 106.613,185.129C107.272,184.469 107.922,184.816 108.121,185.434C108.915,187.899 110.768,187.58 112.716,187.486C126.466,186.828 140.219,186.241 153.971,185.612C156.169,185.512 158.919,186.261 159.052,182.601C159.06,182.395 159.357,182.088 159.578,182.018C161.131,181.535 160.887,180.336 160.828,179.147C160.448,171.64 160.044,164.134 159.776,156.623C159.726,155.203 159.362,154.667 157.952,154.709C154.513,154.81 151.071,154.863 147.63,154.881C146.359,154.888 145.846,155.351 145.974,156.676C146.257,159.571 144.645,161.457 142.384,162.901C137.229,166.193 131.496,166.754 125.638,166.006C120.621,165.365 115.752,163.878 112.56,159.635C111.467,158.184 110.657,157.876 109.114,158.205C104.953,159.091 100.785,159.951 96.601,160.718C95.105,160.993 95.181,161.514 95.723,162.719C98.175,168.167 100.52,173.665 102.89,179.151C103.744,181.128 104.243,183.281 105.79,184.91M173.735,47.13C176.249,55.369 177.901,63.707 177.657,72.412C177.563,75.801 178.387,79.23 178.936,82.618C179.817,88.064 180.923,93.475 181.737,98.929C182.673,105.202 182.797,111.553 182.757,117.873C182.678,130.41 185.413,142.312 190.541,153.653C193.139,159.397 193.242,165.021 191,170.747C190.226,172.724 190.442,174.305 191.481,176.111C197.799,187.093 200.78,199.145 202.779,211.529C203.243,214.406 204.352,217.179 205.164,220L204.077,220C202.955,219.092 202.698,217.748 202.391,216.471C200.903,210.273 199.546,204.044 197.988,197.864C194.893,185.58 189.617,174.375 181.133,164.839C179.919,163.473 178.7,161.992 176.156,161.221C178.088,168.494 176.501,175.674 179.169,182.587C181.357,188.26 182.595,194.329 183.936,200.294C185.403,206.82 186.502,213.428 187.762,220L186.131,220C184.737,210.955 182.568,202.067 180.686,193.121C180.562,192.53 180.536,191.736 179.748,191.663C179.101,191.603 179.02,192.337 178.714,192.763C174.889,198.095 167.629,199.67 162.971,196.092C162.097,195.42 160.217,194.596 161.275,193.289C162.154,192.204 162.998,194.003 163.816,194.546C167.098,196.722 170.482,196.72 173.847,194.952C176.901,193.347 178.406,190.259 177.846,186.757C176.869,191.573 173.211,191.665 169.59,191.764C167.698,191.816 165.755,192.017 164.036,190.933C163.439,190.556 162.572,190.072 162.948,189.283C163.458,188.217 164.148,189.177 164.729,189.425C167.737,190.715 170.759,190.412 173.718,189.362C174.945,188.927 176.118,187.866 175.871,186.54C175.615,185.165 174.071,185.852 173.084,185.703C172.464,185.609 171.807,185.61 171.187,185.702C168.525,186.097 165.532,184.771 163.261,187.326C162.783,187.865 162.279,187.259 162.19,186.657C162.015,185.47 162.483,184.858 163.75,184.627C167.797,183.887 171.851,183.936 175.92,184.283C176.654,184.345 177.697,185.062 177.774,183.685C177.834,182.621 176.8,182.518 175.973,182.513C172.803,182.497 169.619,182.336 166.464,182.559C159.387,183.057 159.451,182.868 160.646,189.267C160.679,189.443 160.684,189.628 160.679,189.808C160.669,190.228 160.967,190.792 160.426,191.005C159.711,191.287 159.45,190.683 159.339,190.155C158.824,187.698 157.105,187.532 155.02,187.622C141.089,188.223 127.156,188.794 113.221,189.273C110.784,189.356 110.12,190.159 110.511,192.59C111.326,197.665 108.152,202.225 103.199,203.417C98.28,204.602 94.005,203.787 91.076,199.206C90.724,198.654 90.426,198.017 89.659,198.214C88.714,198.456 88.779,199.314 88.905,200.002C89.139,201.281 88.867,202.522 88.832,203.781C88.684,209.206 87.315,214.542 87.702,220L85.526,220C85.62,219.747 85.776,219.501 85.799,219.243C86.649,209.323 87.494,199.401 88.307,189.478C88.357,188.872 88.251,188.197 88.026,187.631C85.82,182.081 83.53,176.564 81.364,170.997C80.763,169.452 80.219,169.441 79.159,170.555C76.902,172.925 74.898,175.479 73.177,178.262C68.34,186.088 65.936,194.815 63.964,203.662C62.754,209.093 61.05,214.426 60.511,220L34.408,220C32.88,210.285 35.804,201.61 40.443,193.257C43.008,188.639 42.966,184.143 39.046,180.034C32.29,172.951 33.358,162.952 37.488,158.13C39.485,155.798 41.696,153.628 43.965,151.554C47.717,148.125 49.615,143.812 50.085,138.892C50.618,133.311 50.831,127.7 51.256,122.108C52.53,105.333 52.653,88.482 54.546,71.747C55.766,60.969 58.532,50.74 65.468,42.078C75.67,29.338 88.744,22.147 105.267,22.135C111.211,22.132 116.941,20.771 122.784,20.253C137.999,18.905 151.643,22.911 163.372,32.868C164.369,33.714 165.045,34.938 165.872,35.987C167.469,40.425 169.778,44.359 173.735,47.13" fill="#ff30393f" stroke="#00000000" stroke-width="1.0" stroke-miterlimit=""/>
		<path d="M116.118,92.674C117.562,92.589 119.24,92.958 120.822,93.631C121.536,93.934 122.999,93.941 122.504,95.209C122.099,96.243 121.094,95.454 120.395,95.188C118.325,94.402 116.204,94.136 114.02,94.48C112.972,94.646 112.258,94.898 113.24,96.178C114.321,97.586 114.535,99.199 113.131,100.583C112.153,101.547 110.926,101.793 109.639,101.166C107.841,100.291 107.594,98.538 107.313,96.847C107.189,96.108 107.854,95.764 108.337,95.377C110.522,93.628 112.996,92.672 116.118,92.674" fill="#ff30393f" stroke="#00000000" stroke-width="1.0" stroke-miterlimit=""/>
		<path d="M159.371,92.464C156.214,92.869 153.143,90.772 149.908,92.307C149.579,93.328 150.67,93.788 150.905,94.612C151.362,96.212 151.073,97.522 149.644,98.385C148.236,99.235 146.864,99.01 145.694,97.827C143.843,95.955 144.052,93.31 146.4,92.064C150.714,89.775 155.104,89.71 159.371,92.464" fill="#ff30393f" stroke="#00000000" stroke-width="1.0" stroke-miterlimit=""/>
		<path d="M117.621,78.231C119.211,78.239 120.467,78.381 121.607,79.014C122.138,79.309 122.913,79.578 122.631,80.373C122.322,81.244 121.649,80.814 121.044,80.625C116.033,79.06 111.068,80.646 108.103,84.751C107.699,85.311 107.426,86.292 106.53,85.68C105.703,85.115 106.363,84.338 106.722,83.771C109.329,79.661 113.457,78.592 117.621,78.231" fill="#ff30393f" stroke="#00000000" stroke-width="1.0" stroke-miterlimit=""/>
		<path d="M153.813,74.224C156.087,74.325 157.995,74.968 159.358,76.762C159.689,77.198 159.993,77.709 159.491,78.207C158.969,78.725 158.584,78.33 158.128,77.978C154.294,75.024 150.302,75.481 146.756,79.228C146.267,79.743 145.918,81.011 144.952,80.086C144.17,79.338 145.043,78.579 145.553,78.012C147.783,75.538 150.622,74.364 153.813,74.224" fill="#ff30393f" stroke="#00000000" stroke-width="1.0" stroke-miterlimit=""/>
		<path d="M137.145,119.93C134.371,119.825 131.987,119.433 129.784,118.306C129.231,118.023 128.612,117.6 129.013,116.833C129.273,116.336 129.711,116.553 130.165,116.746C134.952,118.777 139.626,119.393 143.907,115.534C144.236,115.237 144.701,115.001 145.114,115.41C145.643,115.932 145.283,116.393 144.915,116.809C142.758,119.253 139.888,119.846 137.145,119.93" fill="#ff30393f" stroke="#00000000" stroke-width="1.0" stroke-miterlimit=""/>
	</svg>
