<svg width="192" height="192" fill="none" xmlns="http://www.w3.org/2000/svg"><path d="M114.478 65.346A20.002 20.002 0 0 1 116 73c0 18-20 34-20 34S76 91 76 73a20 20 0 0 1 38.478-7.654ZM42 89.628a20 20 0 0 1 7.654 1.522c16.63 6.888 23.758 31.489 23.758 31.489s-22.436 12.355-39.066 5.466A19.999 19.999 0 0 1 42 89.628Zm108.002 0c-2.626 0-5.227.517-7.654 1.522-16.63 6.888-23.758 31.489-23.758 31.489s22.436 12.355 39.066 5.466a20.002 20.002 0 0 0 6.488-32.62 20.001 20.001 0 0 0-14.142-5.857Z" stroke="#000" stroke-width="12" stroke-linecap="round" stroke-linejoin="round"/></svg>