<svg xmlns="http://www.w3.org/2000/svg" width="192" height="192" fill="none"><path stroke="#000" stroke-linecap="round" stroke-linejoin="round" stroke-width="8" d="M123.234 125.333 137 121v20l-13.766-4.333m0-11.334V125a6 6 0 0 0-6-6H101a6 6 0 0 0-6 6v12a6 6 0 0 0 6 6h16.234a6 6 0 0 0 6-6v-.333m0-11.334v11.334"/><rect width="142" height="142" x="25" y="25" stroke="#000" stroke-linecap="round" stroke-linejoin="round" stroke-width="12" rx="6"/><path stroke="#000" stroke-linecap="round" stroke-linejoin="round" stroke-width="12" d="M167 53 25 136M91 25l76 102"/></svg>