<svg xmlns="http://www.w3.org/2000/svg" width="192" height="192" fill="none"><path stroke="#000" stroke-linecap="round" stroke-width="10" d="M105 83h38m0 20h-34m34 20h-28m-51-3v-12.714m0 0c11.611 0 19-8.572 19-19.286m-19 19.286c-11.611 0-19-8.572-19-19.286"/><path stroke="#000" stroke-linecap="round" stroke-width="12" d="M64 87V65"/><path stroke="#000" stroke-linecap="round" stroke-linejoin="round" stroke-width="12" d="M31 146h80.207c3.937 0 6.807-3.728 5.801-7.534l-28.827-109a6 6 0 0 0-5.8-4.466H31a6 6 0 0 0-6 6v109a6 6 0 0 0 6 6"/><path stroke="#000" stroke-linecap="round" stroke-linejoin="round" stroke-width="12" d="M94 46h67a6 6 0 0 1 6 6v109a6 6 0 0 1-6 6h-60.675a6 6 0 0 1-5.693-4.103L89 146"/></svg>