<svg xmlns="http://www.w3.org/2000/svg" width="192" height="192" fill="none"><path stroke="#000" stroke-linecap="round" stroke-linejoin="round" stroke-width="12" d="M74 80a6 6 0 0 1 6-6h32a6 6 0 0 1 6 6v32a6 6 0 0 1-6 6H80a6 6 0 0 1-6-6z"/><path stroke="#000" stroke-linecap="round" stroke-linejoin="round" stroke-width="12" d="M22 64a6 6 0 0 1 6-6h12a6 6 0 0 1 6 6v50c0 17.673 14.327 32 32 32h50a6 6 0 0 1 6 6v12a6 6 0 0 1-6 6H78c-30.928 0-56-25.072-56-56zm148 64a6 6 0 0 1-6 6h-12a6 6 0 0 1-6-6V78c0-17.673-14.327-32-32-32H64a6 6 0 0 1-6-6V28a6 6 0 0 1 6-6h50c30.928 0 56 25.072 56 56z"/></svg>