<svg xmlns="http://www.w3.org/2000/svg" width="192" height="192" fill="none"><circle cx="108" cy="63" r="5" stroke="#000" stroke-linecap="round" stroke-linejoin="round" stroke-width="10"/><path stroke="#000" stroke-linecap="round" stroke-linejoin="round" stroke-width="12" d="M22 67c0-17.673 14.327-32 32-32h50c17.673 0 32 14.327 32 32v58c0 17.673-14.327 32-32 32H54c-17.673 0-32-14.327-32-32zm114.5 20.84 21.449-22.424c3.372-3.525 9.216-1.75 9.881 3.083C168.884 76.144 170 84 170 95.999c0 12.001-1.116 19.857-2.17 27.502-.665 4.832-6.509 6.607-9.881 3.082L136.5 104.159"/></svg>