<svg xmlns="http://www.w3.org/2000/svg" width="192" height="192" viewBox="0 0 192 192"><path fill="none" stroke="#000" stroke-linejoin="round" stroke-width="12" d="M22 43.5c.1-.3 5.8 1.5 26.9 9.1 2.3-1.1 7.7-3.4 14.4-2.1 13.3 2.5 18.3 16.4 18.5 17C88.2 62 95.6 56.4 104.2 51c21-13.3 41.3-20.5 57.2-24.5-6.2 10.1-12.4 20.1-18.6 30.2 3.9-.4 7.9-.7 11.8-1.1-9.3 10.6-18.5 21.1-27.8 31.7 4.9.2 10.7 1 17.2 2.7 11.7 3.2 20.4 8.5 26 12.6-20.2 4.5-40.3 9-60.5 13.5 7.7 16.5 15.5 32.9 23.2 49.4-10.5-13.3-20.9-21.3-28.6-26.3-9.4-6.1-13-6.3-24.4-14-13.1-8.8-20.6-13.9-25-23.4-1.8-3.8-5.9-14.5-1.1-31-1-2.3-2.5-5.4-4.9-8.6C38.6 48 21.8 43.9 22 43.5z"/></svg>