<svg xmlns="http://www.w3.org/2000/svg" width="192" height="192" fill="none"><path stroke="#000" stroke-linecap="round" stroke-linejoin="round" stroke-width="12" d="M170 170c-13.028 0-66.07-12.936-73.316-66.832-.687-5.112 5.229-7.903 9.118-4.507l14.359 10.796a6 6 0 0 1 2.008 3.774l.29 2.319a6 6 0 0 0 3.599 4.774l2.129.911a6.03 6.03 0 0 0 3.548.369l8.193-1.636s6.005-1.501 8.019-9.006c1.607-5.985-1.262-11.334-2.49-13.255-.328-.513-.624-1.042-.841-1.611-1.322-3.469-6.512-16.698-12.052-25.639-1.002-1.616-1.303-3.585-.701-5.389l.118-.352a6 6 0 0 0-.702-5.228l-8.521-12.76a4.64 4.64 0 0 1 .22-5.459l5.149-6.511c1.857-2.348-.774-5.576-3.454-4.238-2.331 1.163-4.852-1.199-3.837-3.594l.276-.65c1.367-3.225-2.886-5.842-5.158-3.174l-2.965 3.482c-.716.84-1.788 1.299-2.825 1.68-2.06.756-4.571 2.597-6.602 4.284-2.191 1.82-5.406 1.972-7.595.15a5.52 5.52 0 0 0-4.864-1.11l-8.596 2.146a6 6 0 0 1-1.459.179h-4.856a6 6 0 0 0-2.69.634l-5.876 2.933a6 6 0 0 0-1.563 1.124l-6.756 6.744a4.16 4.16 0 0 1-5.469.354c-3.19-2.45-7.656.608-6.515 4.461l1.612 5.45a5.986 5.986 0 0 1-2.52 6.743l-8.182 5.228a6 6 0 0 0-1.011.811l-5.698 5.688a4 4 0 0 1-2.047 1.094c-2.914.581-4.201 4.016-2.387 6.364l8.338 10.79c.812 1.05 1.313 2.394.675 3.558-1.411 2.574-5.198 5.53-9.061 8.067-4.14 2.72-4.083 9.163.35 11.376l.53.264a6 6 0 0 1 2.982 7.369l-2.543 7.192a6 6 0 0 0 2.792 7.269l1.435.781a6 6 0 0 1 2.5 7.956l-1.39 2.776a3.806 3.806 0 0 0 2.315 5.351c2.66.796 3.603 4.07 1.775 6.156l-3.112 3.55"/></svg>