<svg xmlns="http://www.w3.org/2000/svg" width="192" height="192" fill="none"><circle cx="37" cy="98" r="15" stroke="#000" stroke-linecap="round" stroke-linejoin="round" stroke-width="12"/><path stroke="#000" stroke-linecap="round" stroke-linejoin="round" stroke-width="12" d="m52 28 32-6M52 54l32-6M52 28v70m32-50V22"/><path stroke="#000" stroke-linecap="round" stroke-linejoin="round" stroke-width="10" d="M119 21c0 6.667-5.333 12-12 12 6.667 0 12 5.333 12 12 0-6.667 5.333-12 12-12-6.667 0-12-5.333-12-12M33 147c0 6.667-5.333 12-12 12 6.667 0 12 5.333 12 12 0-6.667 5.333-12 12-12-6.667 0-12-5.333-12-12"/><circle cx="93" cy="155" r="15" stroke="#000" stroke-linecap="round" stroke-linejoin="round" stroke-width="12"/><circle cx="155" cy="143" r="15" stroke="#000" stroke-linecap="round" stroke-linejoin="round" stroke-width="12"/><path stroke="#000" stroke-linecap="round" stroke-linejoin="round" stroke-width="12" d="m108 85 62-12m-62 38 62-12m-62-14v70m62-82v70"/></svg>