<svg width="192" height="192" fill="none" xmlns="http://www.w3.org/2000/svg"><path d="M84 142s0 28-20 28h64c-20 0-20-28-20-28m-86-24h148l-6 24H28l-6-24Z" stroke="#000" stroke-width="12" stroke-linecap="round" stroke-linejoin="round"/><path d="M21 118V96c0-50 50-51 50-51s19.5-19 68-19m0-5v9h16l9 9h7c0 17-73 32-78 76m-21 3V78c-6 16-32 30-32 40" stroke="#000" stroke-width="10" stroke-linecap="round" stroke-linejoin="round"/><path d="M134 118s-18.507-16.825-23.116-33.5M158 117s-25.536-27.36-29.577-45.5" stroke="#000" stroke-width="10" stroke-linecap="round" stroke-linejoin="round"/></svg>