<?xml version="1.0" encoding="UTF-8"?><svg id="Layer_1" xmlns="http://www.w3.org/2000/svg" width="192" height="192" viewBox="0 0 192 192"><defs><style>.cls-1,.cls-2{fill:none;}.cls-2{stroke:#000;stroke-linecap:round;stroke-linejoin:round;stroke-width:12px;}</style></defs><rect class="cls-1" width="192" height="192"/><path class="cls-2" d="M96,164.49c58.91-33.52,89.12-78.83,66.46-118.1-4.64-9.28-13.63-14.2-21.3-16.8-9.18-3.11-19.26-2.8-28.05,1.29-1.22,.57-2.41,1.2-3.52,1.92-7.97,5.1-11.96,11.75-13.59,14.89-1.63-3.13-5.63-9.79-13.59-14.89-1.12-.71-2.31-1.35-3.52-1.92-8.79-4.09-18.87-4.39-28.05-1.29-7.67,2.6-16.66,7.52-21.3,16.8-22.66,39.27,7.55,84.59,66.46,118.1Z"/></svg>