<svg xmlns="http://www.w3.org/2000/svg" width="192" height="192" fill="none"><circle cx="96" cy="126" r="44" stroke="#000" stroke-linejoin="round" stroke-width="12"/><path stroke="#000" stroke-linejoin="round" stroke-width="12" d="M82 117.556 96 110l14 7.556v17.333L96 142l-14-7.111z"/><path stroke="#000" stroke-linecap="round" stroke-linejoin="round" stroke-width="10" d="M82 117.556s-10 0-10-27.556m38.314 28.097s5-8.66 28.864 5.118m-42.864-13.562s-5-8.66 18.864-22.438M110 134.444s10 0 10 27.556m-38.314-28.097s-5 8.66-28.864-5.118m42.864 13.562s5 8.66-18.864 22.438"/><path stroke="#000" stroke-linecap="round" stroke-linejoin="round" stroke-width="12" d="M164 164V88a6 6 0 0 0-6-6H34a6 6 0 0 0-6 6v76a6 6 0 0 0 6 6h124a6 6 0 0 0 6-6m-22-86V52c0-16.569-13.431-30-30-30H80c-16.569 0-30 13.431-30 30v26"/><path stroke="#000" stroke-linecap="round" stroke-linejoin="round" stroke-width="12" d="M118 78V59.929C118 52.236 111.868 46 104.304 46H87.696C80.132 46 74 52.236 74 59.929V78"/></svg>