<svg xmlns="http://www.w3.org/2000/svg" width="192" height="192" viewBox="0 0 192 192"><path fill="none" stroke="#000" stroke-linejoin="round" stroke-width="12" d="M170 120.54c-25.9 11.327-49.58 26.806-69.93 45.684-1.48 1.133-2.96 2.643-4.07 3.776-1.11-1.133-2.59-2.266-3.7-3.399-20.72-18.878-44.4-34.735-70.3-46.06 5.18-16.236 8.88-33.226 10.73-50.97 1.11-9.817 1.85-20.01 1.85-30.205 0-5.663 0-11.704-.74-17.367 14.06 9.817 26.27 21.898 36.63 35.868Q82.68 55.602 96 55.602c8.51 0 17.39.755 25.53 2.265C131.89 43.898 144.1 31.817 158.16 22c-.37 5.664-.37 11.327-.37 17.367 0 10.194.74 20.388 1.85 30.204 1.48 18.123 5.18 34.735 10.36 50.97z"/></svg>