<?xml version="1.0" encoding="UTF-8"?>
<svg id="SVGRoot" width="192px" height="192px" version="1.1" viewBox="0 0 192 192" xmlns="http://www.w3.org/2000/svg">
 <path id="path" d="m170 120.54c-25.9 11.327-49.58 26.806-69.93 45.684-1.48 1.1327-2.96 2.6429-4.07 3.7755-1.11-1.1327-2.59-2.2653-3.7-3.398-20.72-18.878-44.4-34.735-70.3-46.061 5.18-16.235 8.88-33.225 10.73-50.97 1.11-9.8164 1.85-20.01 1.85-30.204 0-5.6633 0-11.704-0.74-17.367 14.06 9.8164 26.27 21.898 36.63 35.868 8.14-1.5102 16.65-2.2653 25.53-2.2653 8.51 0 17.39 0.75511 25.53 2.2653 10.36-13.969 22.57-26.051 36.63-35.868-0.37 5.6633-0.37 11.327-0.37 17.367 0 10.194 0.74 20.388 1.85 30.204 1.48 18.123 5.18 34.735 10.36 50.97z" fill="none" stroke="#000" stroke-linecap="round" stroke-linejoin="round" stroke-width="12"/>
</svg>
