<?xml version="1.0" encoding="utf-8"?>
	<svg version="1.1" xmlns="http://www.w3.org/2000/svg" xmlns:xlink="http://www.w3.org/1999/xlink" x="0px" y="0px" width="240.0" height="240.0" xml:space="preserve">
		<path d="M120,20C100.222,20 80.888,25.865 64.443,36.853C47.998,47.841 35.181,63.459 27.612,81.732C20.043,100.004 18.063,120.111 21.921,139.509C25.78,158.907 35.304,176.725 49.289,190.711C63.275,204.696 81.093,214.22 100.491,218.079C119.889,221.937 139.996,219.957 158.268,212.388C176.541,204.819 192.159,192.002 203.147,175.557C214.135,159.112 220,139.778 220,120C220,93.478 209.464,68.043 190.711,49.289C171.957,30.536 146.522,20 120,20V20ZM166.455,172.26H77.905V166.73L94.5,150.145V89.23L88.96,83.73L77.905,72.66H133.215L127.715,78.19L122.17,83.73L116.63,89.23V150.125H160.93L177.525,133.525L166.455,172.26Z" fill="#000" stroke="" stroke-width="" stroke-miterlimit=""/>
	</svg>
