<svg width="192" height="192" viewBox="0 0 192 192" fill="none" xmlns="http://www.w3.org/2000/svg"><path d="M74.937 103.515C43.431 116.591 22 127.229 22 127.229m41.712-45.587a23.368 23.368 0 0 1 8.5-2.68c9.414-1.08 20.059 4.508 24.682 13.163 5.749 10.763 2.145 27.364-12.355 34.127a23.892 23.892 0 0 1-4.538 1.332M63.71 81.642c-2.67 1.72-6.186 4.82-7.865 7.291m7.866-7.29c6.378-4.996 66.054-22.626 70.878-24.046.219-.065.403-.123.616-.191l.037-.012c11.966-3.808 25.901.237 31.927 11.518 5.822 10.9 2.652 26.478-9.43 32.157l-27.281 11.134a6.198 6.198 0 0 0-3.21 2.607l-3.14 5.18c-1.729 2.854-5.503 3.83-8.47 2.191l-3.152-1.742a6.409 6.409 0 0 0-4.431-.652c-.16.034-.314.081-.469.133-2.168.732-19.17 6.418-27.586 7.664m0 0s0 0 0 0Zm0 0c-3.227.608-6.51.54-9.642-.143" stroke="#000" stroke-width="12" stroke-linecap="round" stroke-linejoin="round"/></svg>