<svg xmlns="http://www.w3.org/2000/svg" width="192" height="192" fill="none"><path stroke="#000" stroke-linecap="round" stroke-linejoin="round" stroke-width="12" d="M96.001 57c25 23 27 29 27 39s-2 16-27 39H96m.001-78c13.401-12.33 14.434-24.947 10.652-34M96.001 57H96C71 80 69 86 69 96s2 16 27 39m.001-78C82.6 44.67 81.566 32.053 85.348 23M96 135c13.401 12.33 14.435 24.947 10.653 34M96 135c-13.401 12.33-14.434 24.947-10.652 34"/><circle cx="96" cy="96" r="74" stroke="#000" stroke-linecap="round" stroke-linejoin="round" stroke-width="12"/></svg>