<svg xmlns="http://www.w3.org/2000/svg" width="192" height="192" viewBox="0 0 192 192"><path fill-rule="evenodd" d="M126.645 38.17c5.11-6.317 14.804-7.687 21.426-1.868a79.2 79.2 0 0 1 23.621 36.826 79 79 0 0 1-.578 47.096 79.25 79.25 0 0 1-27.272 38.441 79.695 79.695 0 0 1-90.036 4.562 79.33 79.33 0 0 1-31.04-35.482 79.12 79.12 0 0 1 7.957-77.936l-3.116-3.103C16.18 35.32 24.367 16 40.32 16h39.514c9.9 0 18 8.007 18 17.978v39.368c0 16.099-19.432 23.965-30.712 12.727l-2.721-2.71a33.17 33.17 0 0 0 .442 25.823 33.4 33.4 0 0 0 13.065 14.929 33.635 33.635 0 0 0 37.988-1.922 33.33 33.33 0 0 0 11.473-16.167 33.17 33.17 0 0 0 .243-19.773 33.3 33.3 0 0 0-9.4-15.004c-5.509-5.055-6.948-14.064-1.607-20.667zM55.377 74.373a45.18 45.18 0 0 0-1.508 39.67 45.4 45.4 0 0 0 17.759 20.298 45.61 45.61 0 0 0 51.549-2.61 45.33 45.33 0 0 0 15.601-21.989 45.17 45.17 0 0 0 .331-26.925 45.3 45.3 0 0 0-12.785-20.41c-1.219-1.119-1.43-2.993-.39-4.278l10.04-12.412c1.04-1.285 2.934-1.492 4.176-.4a67.2 67.2 0 0 1 20.044 31.247 67 67 0 0 1-.49 39.944 67.25 67.25 0 0 1-23.144 32.619 67.7 67.7 0 0 1-76.475 3.874 67.33 67.33 0 0 1-26.345-30.114 67 67 0 0 1-4.554-39.688 67.16 67.16 0 0 1 17.76-34.165l-10.87-10.83C32.296 34.44 34.973 28 40.319 28h39.514a6 5.978 0 0 1 6 5.978v39.368c0 5.325-6.463 7.992-10.242 4.226L62.506 64.536a45.3 45.3 0 0 0-7.129 9.837"/></svg>