<svg width="192" height="192" viewBox="0 0 192 192" fill="none" xmlns="http://www.w3.org/2000/svg"><path d="m97 40 9-9-9-9" stroke="#000" stroke-width="10" stroke-linecap="round" stroke-linejoin="round"/><path d="m133 22-2 10s-11 8-11 24c0 24 15 60 15 60s-13 5-13 21 9 23 9 23l1 10M49 22l-6 10s-16 8-16 24c0 24 10 54 10 54s-15 6-15 22 11 23 11 23l-1 15M163 22l-8 9s15 18 15 29-5 17-5 17v35s8 24 2 40v18M74 22s-4 7-4 14c2 21 14 20 14 26s-3 10-3 10c25 36-5 51-5 51s4 11 0 21c4 16 0 26 0 26" stroke="#000" stroke-width="12" stroke-linecap="round" stroke-linejoin="round"/></svg>