<svg width="192" height="192" viewBox="0 0 192 192" fill="none" xmlns="http://www.w3.org/2000/svg"><path d="M50.58 122c-20.46-10.967-29.194-31.034-28.547-41.489 10.533-3.145 29.807 8.686 42.404 24.849-12.596-16.163-13.3-40.9-7.92-49.822 10.747 2.27 22.648 15.244 27.354 41.856C79.165 70.782 85.92 45.58 96 38c10.079 7.58 16.835 32.782 12.129 59.394 4.706-26.612 16.607-39.586 27.354-41.856 5.38 8.921 4.676 33.66-7.921 49.822 12.597-16.163 31.871-27.994 42.405-24.849.647 10.455-8.087 30.522-28.547 41.489" stroke="#000" stroke-width="12" stroke-linecap="round" stroke-linejoin="round"/><path d="m81.92 152 29.866-34L128 136.842H64L81.92 118l29.866 34" stroke="#000" stroke-width="10" stroke-linecap="round" stroke-linejoin="round"/></svg>