<svg width="192" height="192" fill="none" xmlns="http://www.w3.org/2000/svg"><path d="M170 72v92a6 6 0 0 1-6 6H72m98-48h-50" stroke="#000" stroke-width="12" stroke-linecap="round" stroke-linejoin="round"/><path d="M122 120a49.993 49.993 0 0 0-26-43.863M72 170a50 50 0 1 1 24-93.863M170 72a50.001 50.001 0 1 0-93.864 24M120 122a50 50 0 0 1-43.864-26M170 120a50.001 50.001 0 0 0-74-43.863M120 170a50 50 0 0 1-43.864-74" stroke="#000" stroke-width="12" stroke-linecap="round" stroke-linejoin="round"/></svg>