<?xml version="1.0" encoding="utf-8"?>
	<svg version="1.1" xmlns="http://www.w3.org/2000/svg" xmlns:xlink="http://www.w3.org/1999/xlink" x="0px" y="0px" width="240.0" height="240.0" xml:space="preserve">
		<path d="M120.434,30C137.955,30 154.306,35.007 168.136,43.667C160.42,44.411 153.891,51.305 150.955,60.932C155.965,55.5 162.445,52.226 169.525,52.226C176.486,52.226 182.871,55.391 187.851,60.671L187.851,60.671L188.095,60.934C188.05,60.787 188.005,60.642 187.958,60.497C190.641,63.539 193.121,66.763 195.378,70.149C175.781,62.676 147.316,67.788 126.454,84.72C123.476,88.18 123.785,93.329 127.147,96.223C130.508,99.118 135.646,98.659 138.625,95.201C158.411,79.142 187.719,77.862 199.629,92.537C201.65,94.427 204.34,95.134 206.82,94.677C209.173,102.709 210.434,111.207 210.434,120C210.434,169.706 170.139,210 120.434,210C70.728,210 30.434,169.706 30.434,120C30.434,112.973 31.239,106.133 32.763,99.569C35.831,100.688 39.453,99.835 41.783,97.164C61.679,81.24 90.989,80.144 102.805,94.897C106.119,98.035 111.278,97.968 114.325,94.747C117.371,91.526 117.161,86.372 113.846,83.234C99.544,65.376 66.458,64.508 39.984,79.613C43.58,72.463 48.101,65.859 53.39,59.957C53.284,60.279 53.182,60.604 53.084,60.932C57.995,55.5 64.342,52.226 71.272,52.226C78.091,52.226 84.345,55.391 89.223,60.671L89.223,60.671L89.459,60.934C86.595,51.344 80.237,44.464 72.719,43.675C86.551,35.01 102.907,30 120.434,30ZM190.431,133.574L190.261,134.222C182.438,163.113 154.012,184.523 120.143,184.523C86.339,184.523 57.957,163.194 50.071,134.386L49.941,134.411C53.554,166.628 83.606,191.771 120.141,191.771C156.642,191.771 186.669,166.68 190.333,134.509L190.431,133.574ZM190.597,131.504C190.555,132.176 190.502,132.846 190.438,133.512L190.431,133.574L190.497,133.326C190.573,133.026 190.647,132.726 190.719,132.425L190.928,131.52L190.597,131.504ZM63.502,98.125C52.961,98.125 44.416,101.459 44.416,105.572C44.416,109.685 52.961,113.02 63.502,113.02C74.043,113.02 82.588,109.685 82.588,105.572C82.588,101.459 74.043,98.125 63.502,98.125ZM178.005,98.125C167.464,98.125 158.919,101.459 158.919,105.572C158.919,109.685 167.464,113.02 178.005,113.02C188.546,113.02 197.091,109.685 197.091,105.572C197.091,101.459 188.546,98.125 178.005,98.125Z" fill="#000" stroke="#00000000" stroke-width="1.0" stroke-miterlimit=""/>
		<path d="M210.599,80.802C194.23,60.638 153.807,62.52 126.454,84.72C123.476,88.18 123.785,93.329 127.147,96.223C130.508,99.118 135.646,98.659 138.625,95.201C158.411,79.142 187.719,77.862 199.629,92.537C202.964,95.657 208.123,95.554 211.149,92.314C214.175,89.074 213.931,83.918 210.599,80.802L210.599,80.802Z" fill="#000" stroke="#00000000" stroke-width="1.0" stroke-miterlimit=""/>
		<path d="M113.846,83.234C97.612,62.964 57.177,64.584 29.681,86.605C26.681,90.044 26.957,95.196 30.298,98.112C33.639,101.028 38.782,100.603 41.783,97.164C61.679,81.24 90.989,80.144 102.805,94.897C106.119,98.035 111.278,97.968 114.325,94.747C117.371,91.526 117.161,86.372 113.846,83.234Z" fill="#000" stroke="#00000000" stroke-width="1.0" stroke-miterlimit=""/>
		<path d="M35.751,85.177C35.75,88.274 37.402,91.135 40.084,92.684C42.765,94.232 46.069,94.232 48.751,92.684C51.432,91.135 53.084,88.274 53.084,85.177C53.084,82.081 51.432,79.219 48.751,77.671C46.069,76.122 42.765,76.122 40.084,77.671C37.402,79.219 35.75,82.081 35.751,85.177Z" fill="#000" stroke="#00000000" stroke-width="1.0" stroke-miterlimit=""/>
		<path d="M130.885,84.156C130.884,87.253 132.536,90.114 135.217,91.662C137.899,93.211 141.203,93.211 143.884,91.662C146.566,90.114 148.218,87.253 148.217,84.156C148.218,81.06 146.566,78.198 143.884,76.65C141.203,75.101 137.899,75.101 135.217,76.65C132.536,78.198 130.884,81.06 130.885,84.156L130.885,84.156Z" fill="#000" stroke="#00000000" stroke-width="1.0" stroke-miterlimit=""/>
		<path d="M89.223,60.671C84.345,55.391 78.091,52.226 71.272,52.226C64.342,52.226 57.995,55.5 53.084,60.932C56.131,50.732 63.128,43.6 71.271,43.6C79.414,43.6 86.413,50.734 89.459,60.934M187.851,60.671C182.871,55.391 176.486,52.226 169.525,52.226C162.445,52.226 155.965,55.5 150.955,60.932C154.066,50.732 161.21,43.6 169.525,43.6C177.839,43.6 184.984,50.734 188.095,60.934" fill="#000" stroke="#00000000" stroke-width="1.0" stroke-miterlimit=""/>
	</svg>
