<svg width="192" height="192" viewBox="0 0 192 192" fill="none" xmlns="http://www.w3.org/2000/svg"><circle cx="96" cy="81" r="3" stroke="#000" stroke-width="6" stroke-linecap="round" stroke-linejoin="round"/><circle cx="81" cy="96" r="3" stroke="#000" stroke-width="6" stroke-linecap="round" stroke-linejoin="round"/><circle cx="111" cy="96" r="3" stroke="#000" stroke-width="6" stroke-linecap="round" stroke-linejoin="round"/><circle cx="96" cy="111" r="3" stroke="#000" stroke-width="6" stroke-linecap="round" stroke-linejoin="round"/><path d="M52.562 96 23.755 67.193a5.993 5.993 0 0 1 0-8.475l34.963-34.963a5.993 5.993 0 0 1 8.475 0L96 52.562M52.562 96l-28.807 28.807a5.993 5.993 0 0 0 0 8.475l34.963 34.963a5.993 5.993 0 0 0 8.475 0L96 139.438M52.562 96 96 52.562m0 86.876 28.807 28.807a5.993 5.993 0 0 0 8.475 0l34.963-34.963a5.993 5.993 0 0 0 0-8.475L139.438 96M96 139.438 139.438 96M96 52.562l28.807-28.807a5.993 5.993 0 0 1 8.475 0l34.963 34.963a5.993 5.993 0 0 1 0 8.475L139.438 96" stroke="#000" stroke-width="12" stroke-linecap="round" stroke-linejoin="round"/></svg>