<svg xmlns="http://www.w3.org/2000/svg" width="192" height="192" fill="none" stroke="#000" stroke-linecap="round" stroke-linejoin="round" stroke-width="6" viewBox="0 0 192 192"><circle cx="96" cy="85" r="3"/><circle cx="85" cy="96" r="3"/><circle cx="107" cy="96" r="3"/><circle cx="96" cy="107" r="3"/><path stroke-width="12" d="m58.749 96-34.93 34.931a6.21 6.21 0 0 0 0 8.78l28.47 28.471a6.21 6.21 0 0 0 8.78 0L96 133.251M58.749 96l-34.93-34.93a6.21 6.21 0 0 1 0-8.78l28.47-28.472a6.21 6.21 0 0 1 8.78 0L96 58.748M58.749 96 96 58.749M133.251 96l34.931-34.93a6.21 6.21 0 0 0 0-8.78l-28.471-28.472a6.21 6.21 0 0 0-8.781 0L96 58.748M133.251 96l34.931 34.931a6.21 6.21 0 0 1 0 8.78l-28.471 28.471a6.21 6.21 0 0 1-8.781 0L96 133.251M133.251 96 96 133.251"/></svg>