<svg width="192" height="192" viewBox="0 0 192 192" fill="none" xmlns="http://www.w3.org/2000/svg">
<rect x="23" y="24" width="146" height="144" rx="6" stroke="black" stroke-width="12"/>
<path d="M112 81.8684C102.722 76.3825 97.2924 75.1758 89.5514 80.0927C87.9062 81.1377 87.0376 83.0255 87.0467 84.9745C87.0511 85.8943 87.0504 86.9537 87.0454 88.21C87.0311 91.77 90.0853 94.5466 93.6401 94.3535C97.9154 94.1213 101.306 94.1729 105.054 94.4196C108.144 94.6231 110.5 97.2356 110.5 100.332V104.322C110.5 106.768 109.027 109.016 106.688 109.731C98.983 112.084 93.3687 111.132 86 107.868" stroke="black" stroke-width="8" stroke-linecap="round"/>
<path d="M123 81H139.25M155.5 81H139.25M139.25 81V112" stroke="black" stroke-width="8" stroke-linecap="round"/>
<path d="M55.8795 97.2267H65.3664C67.9906 97.2267 70.4255 98.9143 70.8222 101.508C71.8699 108.359 68.4309 111.552 56.6595 113.851C56.1476 113.951 55.6128 113.981 55.0933 113.936C44.72 113.029 40.4375 110.178 39.0034 97.2267C38.874 82.6913 42.362 78.0634 55.3363 77.0404C55.6931 77.0122 56.0621 77.019 56.4174 77.0618C64.6516 78.0529 67.3121 80.5342 69.7774 86.8667" stroke="black" stroke-width="8" stroke-linecap="round"/>
</svg>
