<svg xmlns="http://www.w3.org/2000/svg" width="192" height="192" fill="none" stroke="#000" stroke-linecap="round" stroke-linejoin="round" stroke-width="10" viewBox="0 0 192 192"><path d="M59 169c-1.9-9.9-4.6-32.4 6.2-56.4 4.6-10.1 10.3-17.8 15.3-23.3-2.3 1.2-8.2 3.8-15.9 2.9-10.8-1.3-17-8.8-18.3-10.4 3.5-1.5 9.6-3.4 17.2-3.5 7.3 0 13.1 1.7 16.6 3 3.5-3 6.8-4 8.6-4.4 6.9-1.5 13 1.3 16 2.7 4.7 2.2 4.7 3.5 8.8 4.5 4 1 8.1.8 9.8.8 2.2-.1 4-.4 5.3-.6v11.3c-1.4 2.2-3.8 5.2-7.6 7-6.3 2.9-10.6-.2-15.9 2.9-4.2 2.4-5.8 6.9-7.1 10.6-.8 2.2-3.8 11.6.5 19.8 3.3 6.3 9.2 8.8 15.9 11.8 8.5 3.9 20.8 9.8 36.1 18.4M48.3 23c.2 4.5 1.1 11.6 4.4 19.6 2.1 5.2 7.8 18.3 22.1 26.5 7.5 4.3 14.5 5.6 18.7 6 16 1.7 28-5.2 31.4-7.3 19.8-12.3 23.3-34.4 23.7-37.6"/><path d="M22 29.2C29.2 40.8 41.7 57.1 61 68c8.7 4.9 15.6 7 17.7 7.6 4.1 1.1 17.4 4.5 34.5 1.5 4-.7 21-4 37.6-17.7 9.7-7.9 15.7-16.5 19.2-22.2"/></svg>