<svg width="192" height="192" viewBox="0 0 192 192" fill="none" xmlns="http://www.w3.org/2000/svg"><path d="M136 147v12a6 6 0 0 0 6 6h16a6 6 0 0 0 6-6V86a6 6 0 0 0-6-6h-57l-15 28h39" stroke="#000" stroke-width="12" stroke-linecap="round" stroke-linejoin="round"/><path d="M54 164c37 0 71-41 71-56" stroke="#000" stroke-width="12" stroke-linecap="round" stroke-linejoin="round"/><path d="M54 164c54 18 82-17 82-17m-82 17c-17.673 0-32-14.327-32-32V56c0-17.673 14.327-32 32-32h116l-17 32H66c-6.627 0-12 5.373-12 12v52c0 6.627 5.373 12 12 12h45.5" stroke="#000" stroke-width="12" stroke-linecap="round" stroke-linejoin="round"/></svg>