<svg width="192" height="192" viewBox="0 0 192 192" fill="none" xmlns="http://www.w3.org/2000/svg"><circle cx="96" cy="64" r="4" stroke="#000" stroke-width="8" stroke-linecap="round" stroke-linejoin="round"/><path d="M96 97v62a6 6 0 0 1-6 6h-2" stroke="#000" stroke-width="12" stroke-linecap="round" stroke-linejoin="round"/><path d="m142 51-91.757 91.757a5.998 5.998 0 0 1-8.486 0l-18-18A5.998 5.998 0 0 1 22 120.515v-3.03a6 6 0 0 1 1.757-4.242l8-8a6 6 0 0 0 0-8.486l-8-8A6 6 0 0 1 22 84.515v-3.03a6 6 0 0 1 1.757-4.242l48.486-48.486A6 6 0 0 1 76.485 27h3.03a6 6 0 0 1 4.242 1.757l8 8a6 6 0 0 0 8.486 0l8-8A5.998 5.998 0 0 1 112.485 27h3.03a6 6 0 0 1 4.242 1.757l48.486 48.486A6 6 0 0 1 170 81.485v3.03a6 6 0 0 1-1.757 4.242l-8 8a5.999 5.999 0 0 0 0 8.486l8 8a6 6 0 0 1 1.757 4.242v3.03a6 6 0 0 1-1.757 4.242l-18 18a6 6 0 0 1-8.486 0L50 51" stroke="#000" stroke-width="12" stroke-linecap="round" stroke-linejoin="round"/></svg>