<svg width="192" height="192" fill="none" xmlns="http://www.w3.org/2000/svg"><path d="M35 42c0-11.046 8.954-20 20-20h82c11.046 0 20 8.954 20 20v80c0 11.046-8.954 20-20 20h-23.515a6 6 0 0 0-4.242 1.757L83 170v-22a6 6 0 0 0-6-6H55c-11.046 0-20-8.954-20-20V42Z" stroke="#000" stroke-width="12" stroke-linecap="round" stroke-linejoin="round"/><path d="M71 54v56a6 6 0 0 0 6 6h40a6 6 0 0 0 6-6v-10a6 6 0 0 0-6-6H99a6 6 0 0 1-6-6V54a6 6 0 0 0-6-6H77a6 6 0 0 0-6 6Z" stroke="#000" stroke-width="12" stroke-linecap="round" stroke-linejoin="round"/></svg>