<svg xmlns="http://www.w3.org/2000/svg" width="192" height="192" fill="none" viewBox="0 0 192 192"><path stroke="#000" stroke-linecap="round" stroke-linejoin="round" stroke-width="12" d="M72 114H28a6 6 0 0 0-6 6v44a6 6 0 0 0 6 6h44a6 6 0 0 0 6-6v-44a6 6 0 0 0-6-6Zm92 0h-44a6 6 0 0 0-6 6v44a6 6 0 0 0 6 6h44a6 6 0 0 0 6-6v-44a6 6 0 0 0-6-6Z"/><circle cx="40" cy="132" r="3" stroke="#000" stroke-linejoin="round" stroke-width="6"/><circle cx="132" cy="132" r="3" stroke="#000" stroke-linejoin="round" stroke-width="6"/><circle cx="40" cy="152" r="3" stroke="#000" stroke-linejoin="round" stroke-width="6"/><circle cx="132" cy="152" r="3" stroke="#000" stroke-linejoin="round" stroke-width="6"/><circle cx="60" cy="132" r="3" stroke="#000" stroke-linejoin="round" stroke-width="6"/><circle cx="152" cy="132" r="3" stroke="#000" stroke-linejoin="round" stroke-width="6"/><circle cx="60" cy="152" r="3" stroke="#000" stroke-linejoin="round" stroke-width="6"/><circle cx="152" cy="152" r="3" stroke="#000" stroke-linejoin="round" stroke-width="6"/><path stroke="#000" stroke-linecap="round" stroke-linejoin="round" stroke-width="12" d="M72 22H28a6 6 0 0 0-6 6v44a6 6 0 0 0 6 6h44a6 6 0 0 0 6-6V28a6 6 0 0 0-6-6Zm6 56 18 18m18-18L96 96m18 18L96 96m0 0-18 18m86-92h-44a6 6 0 0 0-6 6v44a6 6 0 0 0 6 6h44a6 6 0 0 0 6-6V28a6 6 0 0 0-6-6Z"/><circle cx="40" cy="40" r="3" stroke="#000" stroke-linejoin="round" stroke-width="6"/><circle cx="132" cy="40" r="3" stroke="#000" stroke-linejoin="round" stroke-width="6"/><circle cx="40" cy="60" r="3" stroke="#000" stroke-linejoin="round" stroke-width="6"/><circle cx="132" cy="60" r="3" stroke="#000" stroke-linejoin="round" stroke-width="6"/><circle cx="60" cy="40" r="3" stroke="#000" stroke-linejoin="round" stroke-width="6"/><circle cx="152" cy="40" r="3" stroke="#000" stroke-linejoin="round" stroke-width="6"/><circle cx="60" cy="60" r="3" stroke="#000" stroke-linejoin="round" stroke-width="6"/><circle cx="152" cy="60" r="3" stroke="#000" stroke-linejoin="round" stroke-width="6"/><path stroke="#000" stroke-linecap="round" stroke-linejoin="round" stroke-width="12" d="M32 78v18h40m88 18V96h-40m-6-64H96v40m-18 88h18v-40"/></svg>