<svg width="192" height="192" viewBox="0 0 192 192" fill="none" xmlns="http://www.w3.org/2000/svg"><path d="M162 108h-54v54a6 6 0 0 0 6 6h48a6 6 0 0 0 6-6v-48a6 6 0 0 0-6-6Z" stroke="#000" stroke-width="10" stroke-linecap="round" stroke-linejoin="round"/><circle cx="127" cy="127" r="3" stroke="#000" stroke-width="6" stroke-linejoin="round"/><circle cx="127" cy="149" r="3" stroke="#000" stroke-width="6" stroke-linejoin="round"/><circle cx="149" cy="127" r="3" stroke="#000" stroke-width="6" stroke-linejoin="round"/><circle cx="149" cy="149" r="3" stroke="#000" stroke-width="6" stroke-linejoin="round"/><path d="M84 108H30a6 6 0 0 0-6 6v48a6 6 0 0 0 6 6h48a6 6 0 0 0 6-6v-54Z" stroke="#000" stroke-width="10" stroke-linecap="round" stroke-linejoin="round"/><circle cx="43" cy="127" r="3" stroke="#000" stroke-width="6" stroke-linejoin="round"/><circle cx="43" cy="149" r="3" stroke="#000" stroke-width="6" stroke-linejoin="round"/><circle cx="65" cy="127" r="3" stroke="#000" stroke-width="6" stroke-linejoin="round"/><circle cx="65" cy="149" r="3" stroke="#000" stroke-width="6" stroke-linejoin="round"/><path d="m83 83 13 13m13-13L96 96m13 13L96 96m0 0-13 13m-5-85H30a6 6 0 0 0-6 6v48a6 6 0 0 0 6 6h54V30a6 6 0 0 0-6-6Z" stroke="#000" stroke-width="10" stroke-linecap="round" stroke-linejoin="round"/><circle cx="43" cy="43" r="3" stroke="#000" stroke-width="6" stroke-linejoin="round"/><circle cx="43" cy="65" r="3" stroke="#000" stroke-width="6" stroke-linejoin="round"/><circle cx="65" cy="43" r="3" stroke="#000" stroke-width="6" stroke-linejoin="round"/><circle cx="65" cy="65" r="3" stroke="#000" stroke-width="6" stroke-linejoin="round"/><path d="M162 24h-48a6 6 0 0 0-6 6v54h54a6 6 0 0 0 6-6V30a6 6 0 0 0-6-6Z" stroke="#000" stroke-width="10" stroke-linecap="round" stroke-linejoin="round"/><circle cx="127" cy="43" r="3" stroke="#000" stroke-width="6" stroke-linejoin="round"/><circle cx="127" cy="65" r="3" stroke="#000" stroke-width="6" stroke-linejoin="round"/><circle cx="149" cy="43" r="3" stroke="#000" stroke-width="6" stroke-linejoin="round"/><circle cx="149" cy="65" r="3" stroke="#000" stroke-width="6" stroke-linejoin="round"/></svg>