<svg xmlns="http://www.w3.org/2000/svg" width="192" height="192" fill="none"><circle cx="96" cy="54" r="24" stroke="#000" stroke-linecap="round" stroke-linejoin="round" stroke-width="12"/><path stroke="#000" stroke-linecap="round" stroke-linejoin="round" stroke-width="12" d="m33.194 73.757-9.449 9.511a6.026 6.026 0 0 0 0 8.483l68.042 68.492a5.93 5.93 0 0 0 8.426 0l68.042-68.492a6.026 6.026 0 0 0 0-8.483l-9.449-9.511a5.93 5.93 0 0 0-8.427 0l-50.166 50.498a5.93 5.93 0 0 1-8.426 0L41.62 73.757a5.93 5.93 0 0 0-8.427 0Z"/></svg>