<svg xmlns="http://www.w3.org/2000/svg" width="192" height="192" fill="none"><path stroke="#000" stroke-linecap="round" stroke-linejoin="round" stroke-width="14" d="M39 169s-1.813-21.302.602-34.994c.231-1.309.094-2.65-.452-3.862C37.09 125.571 32 113.786 32 109c0-6 12-29 12.5-85L67 48c10 0 13-7 28-7m56 128s1.825-19.618-.626-33.141a6.6 6.6 0 0 1 .331-3.614C152.982 126.447 160 107.566 160 95c0-15-6-25-20.5-72L129 50c-12 0-14-9-34-9"/><path stroke="#000" stroke-linecap="round" stroke-linejoin="round" stroke-width="8" d="M120.495 86.31c1.201.593 1.951 1.167 2.44 2.37.158 1.592.092 2.666-.904 4.013-.992.785-1.889 1.112-3.161 1.307-1.361-.208-2.183-.683-3.162-1.595-.74-1.133-.819-2.419-.602-3.725 1.119-2.09 2.895-3.28 5.389-2.37m-56.294-.218c1.23.523 2.009 1.241 2.685 2.398.212 1.302.155 2.356-.392 3.56-.885 1.122-1.426 1.702-2.894 1.927-1.385.083-2.192-.025-3.276-.934-.985-.927-1.248-1.792-1.324-3.128.007-1.434.505-2.118 1.47-3.129 1.095-.959 2.349-.826 3.731-.694"/></svg>