<?xml version="1.0" encoding="utf-8"?>
<svg width="192" height="192" viewBox="0 0 192 192" fill="none" xmlns="http://www.w3.org/2000/svg">
  <path d="M 46.07 149.5 C 45.806 149.5 45.58 149.325 45.542 149.091 C 43.8 138.673 43.843 128.184 45.522 117.306 C 44.253 114.129 43.669 112.667 42.925 111.148 C 42.181 109.63 41.32 108.166 39.582 105.209 C 39.565 105.179 39.55 105.15 39.541 105.118 C 38.667 102.346 38.878 99.402 39.986 96.743 C 40.45 95.551 40.777 94.342 41.114 93.094 C 41.251 92.587 41.389 92.081 41.526 91.576 C 41.597 91.323 41.666 91.07 41.736 90.811 C 42.052 89.67 42.386 88.533 42.72 87.399 C 42.852 86.957 42.983 86.514 43.116 86.06 C 43.424 85.041 43.751 84.025 44.085 83.015 C 45.042 80.098 45.542 77.4 46.115 74.356 C 46.194 73.933 46.224 73.79 46.248 73.674 C 46.272 73.558 46.287 73.472 46.342 73.158 C 46.429 72.449 46.489 71.743 46.54 71.024 C 46.564 70.681 46.577 70.51 46.589 70.336 C 46.602 70.163 46.615 69.988 46.639 69.638 C 46.672 69.139 46.706 68.638 46.74 68.138 C 46.775 67.626 46.811 67.116 46.847 66.605 C 47.062 63.489 47.221 60.377 47.341 57.255 C 47.467 54.003 47.733 50.777 48.134 47.544 C 48.293 46.24 48.421 44.939 48.533 43.629 C 48.557 43.361 48.568 43.227 48.581 43.092 C 48.592 42.956 48.604 42.82 48.629 42.547 C 48.687 41.863 48.745 41.173 48.796 40.487 C 48.988 38.389 49.242 37.223 49.631 36.389 C 50.033 35.526 50.571 34.998 51.247 34.153 C 51.33 34.048 51.457 33.979 51.6 33.959 C 51.742 33.939 51.886 33.972 52.001 34.05 C 53.323 34.942 53.726 35.23 54.007 35.448 C 54.298 35.675 54.478 35.841 55.302 36.447 C 56.46 37.46 56.503 37.558 57.942 38.574 C 57.956 38.584 57.97 38.595 57.982 38.607 C 59.265 39.755 60.109 40.367 61.062 41.209 C 61.912 42.052 62.726 42.844 63.559 43.715 C 63.803 43.971 64.248 44.539 64.467 44.761 C 67.028 47.377 68.284 48.598 69.057 49.38 C 69.843 50.173 70.148 50.533 70.77 51.389 C 71.037 51.721 71.112 51.816 71.206 51.871 C 71.291 51.921 71.385 51.935 71.765 51.997 C 75.734 51.987 78.667 50.061 82.112 48.179 C 84.837 46.94 87.474 46.64 90.412 46.631 C 90.732 46.629 91.052 46.626 91.381 46.623 C 92.055 46.621 92.728 46.618 93.402 46.618 C 94.407 46.616 95.408 46.596 96.428 46.59 C 100.569 46.564 102.59 46.72 104.306 47.21 C 106.034 47.702 107.452 48.517 110.441 49.769 C 110.909 49.966 111.875 50.412 112.416 50.669 C 113.181 51.033 115.097 51.73 116.299 52.281 C 116.63 52.435 116.815 52.494 116.974 52.511 C 117.09 52.523 117.042 52.534 117.103 52.493 C 117.272 52.373 117.405 52.062 117.753 51.501 C 118.073 50.943 118.191 50.739 118.319 50.493 C 118.447 50.243 118.581 49.955 118.919 49.248 C 119.034 49.009 119.177 48.738 119.318 48.497 C 119.6 48.017 119.879 47.532 120.156 47.048 C 120.616 46.259 121.123 45.523 121.544 44.761 C 123.047 42.047 124.101 39.43 125.461 36.463 C 126.148 35.164 126.435 34.597 126.732 34.108 C 127.033 33.614 127.342 33.202 128.061 32.217 C 128.158 32.084 128.323 32.001 128.5 32 C 128.678 31.998 128.845 32.075 128.946 32.206 C 129.22 32.558 129.715 33.183 129.946 33.687 C 130.392 34.482 130.86 35.263 131.302 36.078 C 131.425 36.295 131.551 36.52 131.678 36.747 C 132.473 38.234 132.961 39.668 133.321 41.271 C 134.135 44.677 135.689 47.844 137.16 51.114 C 138.978 55.167 140.704 59.204 142.018 63.434 C 142.58 65.233 143.223 67.005 143.89 68.785 C 144.004 69.097 144.119 69.409 144.236 69.731 C 144.733 71.068 145.238 72.371 145.873 73.643 C 146.459 74.907 146.812 76.112 147.114 77.433 C 147.209 77.844 147.308 78.27 147.407 78.695 C 148.033 81.834 148.152 84.899 148.152 88.055 C 148.152 88.846 148.159 89.639 148.167 90.433 C 148.182 94.377 147.712 98.017 146.268 101.779 C 146.179 102.012 146.09 102.243 145.998 102.482 C 145.47 103.86 144.914 105.23 144.332 106.587 C 143.65 108.246 143.05 109.949 142.43 111.644 C 142.287 112.003 142.144 112.357 141.997 112.724 C 141.65 113.701 141.741 114.659 141.416 115.821 C 141.093 116.886 141.12 117.64 140.87 118.696 C 143.386 128.51 142.023 138.641 140.451 149.083 C 140.416 149.321 140.189 149.5 139.922 149.5 M 139.685 149.493 C 141.229 139.208 142.345 128.488 139.802 118.808 C 139.783 118.737 139.783 118.662 139.802 118.59 C 140.066 117.6 140.04 116.778 140.383 115.575 C 140.691 114.576 140.605 113.589 140.98 112.426 C 141.128 112.056 141.277 111.682 141.421 111.324 C 142.039 109.637 142.639 107.932 143.331 106.25 C 143.908 104.899 144.463 103.538 144.987 102.169 C 145.079 101.929 145.167 101.698 145.257 101.466 C 146.674 97.807 147.117 94.325 147.097 90.438 C 147.09 89.645 147.082 88.85 147.082 88.055 C 147.082 84.917 146.972 81.94 146.356 78.873 C 146.258 78.45 146.162 78.04 146.066 77.628 C 145.77 76.333 145.452 75.221 144.89 74.02 C 144.239 72.711 143.721 71.378 143.221 70.035 C 143.103 69.713 142.989 69.399 142.874 69.087 C 142.206 67.303 141.558 65.512 140.989 63.696 C 139.69 59.507 137.983 55.52 136.167 51.474 C 134.702 48.217 133.123 44.969 132.274 41.471 C 131.927 39.911 131.482 38.587 130.718 37.169 C 130.592 36.945 130.469 36.728 130.346 36.508 C 129.912 35.71 129.435 34.91 128.982 34.103 C 128.974 34.088 128.966 34.073 128.96 34.057 C 128.802 33.662 128.704 33.588 128.521 33.339 C 128.101 33.914 127.947 34.116 127.671 34.569 C 127.392 35.03 127.119 35.567 126.433 36.865 C 125.084 39.809 124.029 42.425 122.502 45.191 C 122.056 45.991 121.545 46.735 121.105 47.492 C 120.829 47.978 120.548 48.463 120.264 48.947 C 120.133 49.167 120.009 49.405 119.901 49.629 C 119.565 50.331 119.426 50.632 119.289 50.897 C 119.151 51.165 119.018 51.393 118.701 51.95 C 118.38 52.455 118.144 52.982 117.761 53.251 C 117.545 53.403 117.171 53.501 116.849 53.467 C 116.57 53.437 116.206 53.317 115.811 53.137 C 114.653 52.603 112.732 51.904 111.918 51.521 C 111.383 51.268 110.439 50.831 109.987 50.641 C 106.937 49.358 105.58 48.581 103.984 48.127 C 102.378 47.669 100.527 47.526 96.434 47.552 C 95.423 47.559 94.42 47.579 93.404 47.581 C 92.732 47.581 92.06 47.583 91.388 47.586 C 91.059 47.588 90.739 47.591 90.419 47.594 C 87.542 47.598 85.157 47.845 82.618 49.026 C 79.207 50.89 75.995 52.864 71.725 52.96 C 71.69 52.96 71.656 52.957 71.622 52.952 C 71.202 52.883 70.882 52.829 70.621 52.676 C 70.367 52.527 70.17 52.285 69.896 51.945 C 69.291 51.111 69.017 50.785 68.26 50.021 C 67.492 49.245 66.233 48.023 63.665 45.397 C 63.411 45.136 62.963 44.563 62.75 44.345 C 61.93 43.487 61.129 42.708 60.28 41.865 C 59.371 41.061 58.56 40.476 57.246 39.305 C 55.687 38.144 55.627 38.034 54.581 37.158 C 53.72 36.521 53.561 36.374 53.307 36.177 C 53.045 35.972 52.757 35.767 51.79 35.111 C 51.259 35.753 50.949 36.048 50.617 36.762 C 50.27 37.506 50.045 38.521 49.863 40.562 C 49.811 41.249 49.755 41.936 49.693 42.622 C 49.67 42.896 49.659 43.032 49.646 43.168 C 49.634 43.303 49.622 43.436 49.598 43.704 C 49.486 45.02 49.358 46.336 49.197 47.649 C 48.799 50.866 48.534 54.055 48.411 57.288 C 48.291 60.415 48.129 63.541 47.914 66.665 C 47.878 67.176 47.842 67.687 47.807 68.196 C 47.774 68.698 47.74 69.197 47.706 69.697 C 47.682 70.048 47.669 70.225 47.657 70.398 C 47.643 70.571 47.632 70.743 47.607 71.085 C 47.556 71.811 47.493 72.546 47.404 73.274 C 47.346 73.605 47.324 73.726 47.3 73.846 C 47.275 73.964 47.247 74.102 47.17 74.516 C 46.596 77.56 46.082 80.315 45.111 83.288 C 44.777 84.296 44.454 85.299 44.15 86.311 C 44.016 86.764 43.885 87.205 43.754 87.647 C 43.419 88.78 43.087 89.909 42.774 91.043 C 42.703 91.303 42.634 91.554 42.567 91.805 C 42.428 92.31 42.29 92.816 42.154 93.322 C 41.816 94.57 41.472 95.83 40.993 97.066 C 39.917 99.587 39.7 102.196 40.553 104.802 C 42.273 107.731 43.144 109.21 43.903 110.759 C 44.663 112.309 45.304 113.914 46.574 117.093 C 46.603 117.167 46.611 117.245 46.599 117.322 C 44.907 128.177 44.271 139.295 45.937 149.504" stroke="black" stroke-width="12" stroke-linecap="round" stroke-linejoin="round"/>
  <path d="M 114.472 87.309 C 115.673 87.903 116.423 88.477 116.912 89.68 C 117.07 91.272 117.004 92.346 116.008 93.693 C 115.016 94.478 114.119 94.805 112.847 95 C 111.486 94.792 110.664 94.317 109.685 93.405 C 108.945 92.272 108.866 90.986 109.083 89.68 C 110.202 87.59 111.978 86.4 114.472 87.309 Z" stroke="black" stroke-width="8" stroke-linecap="round" stroke-linejoin="round" style=""/>
  <path d="M 66.201 87.092 C 67.431 87.615 68.21 88.333 68.886 89.49 C 69.098 90.792 69.041 91.846 68.494 93.049 C 67.609 94.172 67.068 94.752 65.6 94.977 C 64.215 95.06 63.408 94.952 62.324 94.043 C 61.339 93.116 61.076 92.251 61 90.915 C 61.007 89.481 61.505 88.797 62.47 87.786 C 63.565 86.827 64.819 86.96 66.201 87.092 Z" stroke="black" stroke-width="8" stroke-linecap="round" stroke-linejoin="round" style=""/>
</svg>