<svg width="192" height="192" viewBox="0 0 192 192" fill="none" xmlns="http://www.w3.org/2000/svg"><path d="M93 62a36.999 36.999 0 0 0-37-37m53 74a16 16 0 0 0 0 32m-84-1a36.997 36.997 0 0 0 22.84 34.184A37.008 37.008 0 0 0 62 167m68 0a37.006 37.006 0 0 0 26.163-10.837A37.011 37.011 0 0 0 167 130m-108 0a36.997 36.997 0 0 0 22.84 34.184A37.008 37.008 0 0 0 96 167M93 62v53m-34 15V71c0-6.627-5.373-12-12-12H25m105 108H62" stroke="#000" stroke-width="12" stroke-linecap="round" stroke-linejoin="round"/><path d="M56 25H31a6 6 0 0 0-6 6v99m84-31h52a6 6 0 0 1 6 6v25m-6-105h-12c-17.673 0-32 14.327-32 32v12a6 6 0 0 0 6 6h12c17.673 0 32-14.327 32-32V31a6 6 0 0 0-6-6Zm6 106h-58" stroke="#000" stroke-width="12" stroke-linecap="round" stroke-linejoin="round"/></svg>