<svg width="192" height="192" fill="none" xmlns="http://www.w3.org/2000/svg"><path d="m103 82-30.852 73.5M98 170l14.454-34.328a6 6 0 0 1 5.53-3.672H139a6 6 0 0 0 6-6v-24a6 6 0 0 1 6-6h11.547C152 68 143.537 48.186 136.792 40.984a59.998 59.998 0 0 0-98.444 16.254A59.999 59.999 0 0 0 60 132.11l-6 14.461L98 170Z" stroke="#000" stroke-width="12" stroke-linecap="round" stroke-linejoin="round"/><path d="M127 82a33.993 33.993 0 0 0-9.958-24.042A34.012 34.012 0 0 0 93 48a33.999 33.999 0 0 0-34 34h68Z" stroke="#000" stroke-width="12" stroke-linecap="round" stroke-linejoin="round"/></svg>