<svg xmlns="http://www.w3.org/2000/svg" width="192" height="192" fill="none"><path stroke="#000" stroke-linecap="round" stroke-linejoin="round" stroke-width="12" d="M92 46v16M72 49l10 13m29-13-10 13M53 84h78M60 62s7 2 32 2 32-2 32-2M83 165v-55a6 6 0 0 0-6-6H63"/><path stroke="#000" stroke-linecap="round" stroke-linejoin="round" stroke-width="12" d="M111 170v-24a6 6 0 0 1 6-6h19a6 6 0 0 0 6-6v-22a6 6 0 0 1 6-6h12.547l-10.591-39.53a60.003 60.003 0 0 0-67.73-43.669A60 60 0 0 0 59 132.11v30.461z"/></svg>