<svg width="192" height="192" viewBox="0 0 192 192" fill="none" xmlns="http://www.w3.org/2000/svg">
<path d="M24.386 84.9843L21 118.844L36.5756 117.49" stroke="black" stroke-width="8" stroke-linecap="round" stroke-linejoin="round"/>
<path d="M51.687 82.1072C51.687 82.1072 50.425 94.7014 49.4194 106.732C48.4137 118.763 66.0391 119.191 67.0265 107.409C68.0139 95.6272 69.6482 80.2936 69.6482 80.2936" stroke="black" stroke-width="8" stroke-linecap="round"/>
<path d="M82.5552 113.171L86.0444 78.9112L100.232 111.395L103.676 77.2661" stroke="black" stroke-width="8" stroke-linecap="round" stroke-linejoin="round"/>
<path d="M115.13 110.041L117.9 102.581M136.001 108.009L134.186 101.237M134.186 101.237L127.925 75.226L117.9 102.581M134.186 101.237L117.9 102.581" stroke="black" stroke-width="8" stroke-linecap="round" stroke-linejoin="round"/>
<path d="M151.022 106.655L152.648 91.0791M161.858 90.402C174.047 89.7248 174.047 71.271 161.858 72.7948L154.408 73.472L152.648 91.0791M161.858 90.402L168.437 105.215M161.858 90.402L152.648 91.0791" stroke="black" stroke-width="8" stroke-linecap="round" stroke-linejoin="round"/>
</svg>
