<svg width="192" height="192" viewBox="0 0 192 192" fill="none" xmlns="http://www.w3.org/2000/svg">
<path d="M28 67H163.993C167.307 67 169.993 69.6863 169.993 73V118C169.993 121.314 167.307 124 163.993 124H28C24.6863 124 22 121.314 22 118V73C22 69.6863 24.6863 67 28 67Z" stroke="black" stroke-width="12"/>
<path d="M42.3147 87.6591C42.3147 98.3314 41.7883 105.955 53.3674 105.955" stroke="black" stroke-width="8" stroke-linecap="round"/>
<path d="M68.1031 87.6591C68.1031 99.1591 66.524 105.955 76.8251 105.955C87.1261 105.955 85.9978 99.1591 85.9978 87.6591" stroke="black" stroke-width="8" stroke-linecap="round"/>
<path d="M102.399 87.6591C102.399 99.1591 100.82 105.955 111.121 105.955C121.422 105.955 120.294 99.1591 120.294 87.6591" stroke="black" stroke-width="8" stroke-linecap="round"/>
<path d="M135.995 105.955V99.6818M135.995 99.6818V93.6591C135.995 90.3453 138.681 87.6591 141.995 87.6591H143.679C146.993 87.6591 149.679 90.3567 149.679 93.6704V93.6704C149.679 96.9841 146.993 99.6818 143.679 99.6818H135.995Z" stroke="black" stroke-width="8" stroke-linecap="round"/>
</svg>
