<?xml version="1.0" encoding="utf-8"?>
	<svg version="1.1" xmlns="http://www.w3.org/2000/svg" xmlns:xlink="http://www.w3.org/1999/xlink" x="0px" y="0px" width="240.0" height="240.0" xml:space="preserve">
		<path d="M79.148,30C80.172,30.857 81.347,31.861 82.544,32.84C83.738,33.814 84.921,34.805 86.164,35.715C88.374,37.333 90.65,38.54 93.377,35.634C93.031,39.945 96.041,41.814 98.104,44.179C100.085,46.452 101.668,46.503 104.2,44.849C105.303,44.128 106.301,43.245 107.596,42.242C107.965,44.719 108.1,47.075 108.704,49.303C109.409,51.905 110.318,54.501 111.521,56.908C112.684,59.233 114.145,58.998 115.557,56.628C116.896,54.379 118.346,52.197 119.976,50.037C118.782,58.603 121.796,66.05 125.074,73.385L125.513,74.362C125.659,74.688 125.806,75.014 125.952,75.339L126.39,76.316C126.609,76.804 126.826,77.292 127.042,77.781C128.635,81.402 130.923,84.72 132.92,88.161C133.726,89.55 134.592,89.543 135.684,88.336C137.624,86.191 139.498,84.099 139.783,80.981C139.884,79.862 140.569,78.734 141.188,77.734C144.299,72.703 145.741,67.07 146.957,61.4C147.569,58.548 147.497,55.545 149.509,52.876C150.099,54.314 150.569,55.652 151.183,56.921C152.725,60.101 154.743,60.795 157.263,58.316C159.6,56.018 161.247,53.005 163.114,50.251C163.64,49.474 163.87,48.497 164.258,47.56C166.915,50.894 167.386,51.01 170.916,48.468C174.837,45.643 178.661,42.685 182.533,39.791C183.127,39.347 183.747,38.939 184.756,38.234C182.494,43.066 183.256,47.565 184.17,52.032L184.327,52.797C184.354,52.925 184.38,53.052 184.406,53.18C184.502,53.645 184.661,54.336 184.985,54.477C189.024,56.239 186.898,59.282 186.254,61.678C185.579,64.185 185.908,66.252 187.373,68.182C188.745,69.991 190.931,70.32 193.856,69.337C192.977,70.121 192.171,70.777 191.447,71.514C191.124,71.843 190.667,72.571 190.781,72.716C191.608,73.767 191.171,74.442 190.638,75.097L190.477,75.293L190.477,75.293L190.317,75.49C190.159,75.689 190.015,75.892 189.914,76.11L189.674,76.626L189.674,76.626L189.19,77.662C188.548,79.047 187.941,80.452 187.596,81.911C186.946,84.653 188.356,86.303 191.191,86.239C195.184,86.149 199.171,85.826 203.061,85.607C202.629,85.993 201.855,86.572 201.224,87.278C201.133,87.379 201.032,87.479 200.928,87.58L200.695,87.808C200.156,88.347 199.722,88.944 200.598,89.884C200.747,90.044 200.312,90.858 200.03,91.292C199.595,91.962 199.129,92.618 198.658,93.271L197.951,94.251C197.014,95.559 196.115,96.882 195.472,98.322C192.563,104.832 188.248,110.275 183.536,115.501C181.882,117.336 180.514,119.427 179.214,121.703C180.169,121.792 181.126,121.95 182.081,122.125L182.653,122.232C182.748,122.25 182.843,122.268 182.938,122.286L183.509,122.394L183.509,122.394L184.078,122.499C187.965,123.208 191.752,123.583 195.137,120.04C201.427,123.72 202.442,123.751 220,120.661C217.856,122.269 216.164,123.538 214.209,125.003C215.049,125.188 215.653,125.321 216.779,125.568C214.225,127.315 212.072,128.928 209.787,130.326C205.356,133.036 201.53,136.171 199.152,141.04C198.13,143.133 195.851,144.604 194.173,146.387C191.697,149.019 191.698,149.401 194.007,152.16C194.709,152.998 195.408,153.838 196.344,154.96C195.41,154.905 194.88,154.874 194.193,154.832C194.24,155.396 194.283,155.902 194.335,156.521C193.949,156.625 193.62,156.806 193.304,156.785C188.612,156.463 184.348,157.971 180.075,159.658C177.755,160.574 175.286,161.157 172.841,161.693C170.567,162.192 168.658,163.107 167.107,164.905C165.889,166.316 165.917,167.287 167.373,168.54C172.199,172.692 176.928,176.955 181.958,181.409C180.019,180.613 178.34,179.925 176.366,179.115C176.617,179.81 176.782,180.266 176.855,180.469C161.086,179.751 146.304,175.154 132.355,167.646C132.231,167.789 132.106,167.932 131.981,168.075C132.225,168.754 132.4,169.468 132.723,170.106C138.36,181.228 146.537,190.081 156.77,197.129C160.124,199.44 163.829,200.266 167.811,200.581C171.8,200.897 173.931,205.037 172.032,208.542C171.725,209.109 170.873,209.529 170.191,209.715C167.311,210.503 164.476,210.221 161.79,208.926C156.85,206.545 152.321,203.637 148.195,199.913C139.586,192.143 133.318,182.852 128.775,172.275C128.434,171.48 127.536,170.403 126.892,170.401C126.209,170.398 125.325,171.402 124.867,172.169L123.309,174.776C121.494,177.821 119.702,180.881 118.081,184.027C116.028,188.008 112.882,190.865 109.594,193.707L108.77,194.418L108.77,194.418C105.617,197.134 102.97,200.429 99.988,203.355C99.01,204.315 97.683,204.92 95.983,206.036C97.54,201.006 98.882,196.494 100.338,192.019C101.372,188.842 100.668,187.566 97.31,187.896C94.636,188.159 91.943,188.917 89.422,189.881C85.962,191.205 82.656,192.933 79.283,194.484C78.538,194.826 77.784,195.147 76.766,195.597C76.662,194.718 76.608,194.261 76.537,193.664C75.713,193.952 75.006,194.2 74.007,194.549C74.82,192.975 75.608,191.633 76.224,190.217C77.37,187.587 76.881,186.358 74.172,185.339C69.691,183.653 65.405,183.633 61.6,187.097C60.801,187.825 59.781,189.001 59.204,186.754C58.529,187.117 58.004,187.399 57.165,187.852C57.403,187.155 57.509,186.773 57.662,186.412C59.421,182.241 59.469,181.59 55.634,179.141C51.464,176.477 47.066,174.107 42.564,172.053C40.376,171.055 37.726,171.068 34.964,170.564C35.848,169.95 36.522,169.483 37.625,168.717L30.064,168.717C31.45,168.065 32.478,167.498 33.563,167.082C40.615,164.384 47.781,161.97 54.252,157.928C55.37,157.229 56.962,157.335 58.278,156.897C59.909,156.354 61.524,155.719 63.064,154.958C64.247,154.373 64.082,153.543 63.216,152.618C61.504,150.789 59.48,149.772 56.964,149.562C55.448,149.435 53.916,149.142 52.464,148.691C47.053,147.01 41.671,145.234 36.281,143.487C36.02,143.402 35.779,143.256 35.404,143.08C35.615,142.501 35.812,141.958 36.083,141.214C34.757,140.998 33.532,140.798 32,140.548C33.278,139.804 34.466,139.224 35.525,138.466C37.055,137.372 38.584,136.246 39.941,134.952C41.252,133.703 41.381,131.99 39.938,130.891C37.355,128.921 34.62,127.107 31.772,125.548C30.547,124.877 29.412,124.656 30.345,122.92C29.471,122.619 28.757,122.373 27.837,122.056C29.042,120.768 30.156,119.554 31.294,118.363C32.837,116.749 32.692,115.126 31.371,113.475C31.24,113.311 31.111,113.145 30.98,112.98C29.339,110.914 27.699,108.849 26.036,106.754C27.882,104.655 27.477,102.762 26.25,100.933C25.241,99.429 23.93,98.094 23.122,96.497C21.911,94.103 21.025,91.546 20,89.058C20.142,88.915 20.285,88.773 20.427,88.631C21.624,89.045 22.801,89.53 24.021,89.86C27.525,90.809 31.079,91.586 34.55,92.639C37.834,93.637 40.251,92.33 42.486,90.185C42.881,89.805 43.289,89.438 44.063,88.719C44.97,89.8 45.779,90.855 46.688,91.813C47.31,92.469 47.899,93.544 49.099,92.49C49.227,92.377 49.831,92.762 50.19,92.961C51.526,93.7 52.785,94.632 54.195,95.17C56.75,96.145 57.897,95.562 58.936,92.995C59.402,91.845 59.713,90.633 60.2,89.122C61.08,89.869 61.798,90.469 62.506,91.08C65.122,93.334 67.071,96.443 70.698,97.414C71.015,97.499 71.223,98.031 71.457,98.373L71.639,98.656L71.639,98.656L71.987,99.234C72.105,99.425 72.23,99.609 72.373,99.779L72.493,99.923L72.493,99.923L72.735,100.213C73.951,101.67 75.292,103.183 77.396,102.338C79.559,101.469 78.978,99.166 78.619,97.52C78.004,94.693 77.196,91.841 75.968,89.235C75.279,87.771 74.255,86.46 73.211,85.165L72.515,84.302C72.284,84.014 72.056,83.726 71.833,83.435C69.14,79.914 66.401,76.427 63.612,72.837C67.086,72.837 70.135,72.8 73.183,72.851C74.896,72.88 75.564,72.129 75.518,70.438C75.457,68.23 75.104,66.24 73.751,64.326C71.489,61.124 69.541,57.7 67.172,53.906C68.582,54.126 69.448,54.163 70.253,54.406C72.307,55.027 73.635,54.045 74.244,52.317C75.379,49.098 76.47,45.834 77.177,42.503C78.043,38.426 78.496,34.261 79.148,30ZM105.196,96.346C104.763,95.156 104.243,94.376 102.756,94.791C100.731,95.355 100.436,95.786 101.2,97.939C107.832,116.617 114.481,135.288 121.123,153.962C121.454,154.894 121.768,155.832 122.27,157.291C121.121,156.597 120.517,156.262 119.942,155.882C107.501,147.642 95.054,139.41 82.636,131.136C81.34,130.273 80.456,129.913 79.41,131.542C78.424,133.077 78.826,133.85 80.19,134.756C85.032,137.976 89.809,141.294 94.625,144.554C104.139,150.994 113.661,157.424 123.188,163.847C124.842,164.963 128.668,164.294 129.334,162.783C132.781,154.973 136.201,147.152 139.652,139.344C142.737,132.362 145.859,125.396 148.943,118.413C149.762,116.558 149.313,115.734 147.181,114.846C145.475,114.136 145.537,115.681 145.161,116.491C139.408,128.878 133.691,141.282 127.958,153.678C127.706,154.223 127.376,154.73 126.937,155.516C126.568,154.759 126.288,154.296 126.107,153.797C121.3,140.567 116.51,127.33 111.701,114.101C109.548,108.177 107.346,102.271 105.196,96.346Z" fill="#000" stroke="#00000000" stroke-width="1.0" stroke-miterlimit=""/>
	</svg>
