<svg width="192" height="192" viewBox="0 0 192 192" fill="none" xmlns="http://www.w3.org/2000/svg"><path d="M22 53v52m96-31v47m0-32h14m22-8h14m-14-7v31M93 74v55M57 74v31m61-31a18.01 18.01 0 0 1 5.272-12.728 18.005 18.005 0 0 1 19.616-3.902 18.005 18.005 0 0 1 9.742 9.742A18.01 18.01 0 0 1 154 74m-61 31a18 18 0 0 1-36 0m36 24a17.998 17.998 0 0 1-27 15.588M170 121a16.002 16.002 0 0 1-16-16M38 121a16.001 16.001 0 0 1-16-16" stroke="#000" stroke-width="12" stroke-linecap="round" stroke-linejoin="round"/></svg>