<svg width="192" height="192" viewBox="0 0 192 192" fill="none" xmlns="http://www.w3.org/2000/svg"><path d="M106 132V86L91.143 99" stroke="#000" stroke-width="12" stroke-linecap="round" stroke-linejoin="round"/><path d="m112 59 3-12M94 62l-8-10m-2 26-9-1m51-6 8-4" stroke="#000" stroke-width="10" stroke-linecap="round" stroke-linejoin="round"/><path d="M22 132v-30m26 30v-17m26 17v-17m74.5 17c11.874 0 21.5-10.297 21.5-23s-9.626-23-21.5-23S127 96.297 127 109s9.626 23 21.5 23ZM48 115.001a12.998 12.998 0 0 0-22.192-9.192A12.998 12.998 0 0 0 22 115.001" stroke="#000" stroke-width="12" stroke-linecap="round" stroke-linejoin="round"/><path d="M74 115.001a12.998 12.998 0 0 0-22.192-9.192A12.998 12.998 0 0 0 48 115.001" stroke="#000" stroke-width="12" stroke-linecap="round" stroke-linejoin="round"/></svg>