<?xml version="1.0" encoding="UTF-8" standalone="no"?>
<!-- Created with Inkscape (http://www.inkscape.org/) -->

<svg
   width="192"
   height="192"
   viewBox="0 0 192 192"
   version="1.1"
   id="svg1"
   xmlns="http://www.w3.org/2000/svg"
   xmlns:svg="http://www.w3.org/2000/svg">
  <defs
     id="defs1" />
  <g
     id="g8"
     style="fill:none;stroke:#010000;stroke-width:9.6841;stroke-linecap:round;stroke-linejoin:round;stroke-dasharray:none;stroke-opacity:1"
     transform="matrix(1.0312306,0,0,1.0340922,1864.0345,314.91287)">
    <path
       id="path9585"
       style="opacity:0.991034;fill:none;fill-opacity:0.978174;stroke:#010000;stroke-width:2.31348;stroke-linecap:round;stroke-linejoin:round;stroke-dasharray:none;stroke-opacity:1;paint-order:stroke fill markers"
       d="m -1815.0308,1102.0209 v -10.7135 a 0.63378466,0.63378466 162.41699 0 1 1.1519,-0.365 l 6.6533,9.4435 a 1.3980761,1.3980761 179.789 0 0 2.2917,-0.01 l 6.5381,-9.4267 a 0.62568899,0.62568899 17.372005 0 1 1.1398,0.3566 v 10.7135"
       transform="matrix(3.7706336,0,0,4.647006,5057.058,-5306.077)" />
    <path
       id="path20183"
       style="opacity:0.991034;fill:none;fill-opacity:0.978174;stroke:#010000;stroke-width:2.42682;stroke-linecap:round;stroke-linejoin:round;stroke-dasharray:none;stroke-opacity:1;paint-order:stroke fill markers"
       d="m -1775.5345,1101.9301 h -13.1232 a 2,2 45 0 1 -2,-2 2.428524,2.428524 130.36345 0 1 1.9431,-2.2861 l 11.2366,-2.7392 a 2.5461251,2.5461251 128.14989 0 0 1.9431,-2.4737 v -1.1167 a 2,2 45 0 0 -2,-2 h -11.1232 a 2,2 135 0 0 -2,2 v 1.151"
       transform="matrix(3.7706336,0,0,4.2230855,5054.3494,-4838.2132)" />
  </g>
</svg>
