<svg width="192" height="192" viewBox="0 0 192 192" fill="none" xmlns="http://www.w3.org/2000/svg">
<path d="M170 121.373C170 123.401 169.601 125.409 168.825 127.282C168.049 129.155 166.911 130.857 165.478 132.291C164.044 133.725 162.342 134.862 160.468 135.638C158.595 136.414 156.587 136.814 154.56 136.814C152.532 136.814 150.524 136.414 148.651 135.638C146.777 134.862 145.075 133.725 143.642 132.291C142.208 130.857 141.07 129.155 140.294 127.282C139.519 125.409 139.119 123.401 139.119 121.373C139.119 119.345 139.519 117.338 140.294 115.464C141.07 113.591 142.208 111.889 143.642 110.455C145.075 109.021 146.777 107.884 148.651 107.108C150.524 106.332 152.532 105.933 154.56 105.933C158.655 105.933 162.582 107.559 165.478 110.455C168.373 113.351 170 117.278 170 121.373Z" stroke="black" stroke-width="12" stroke-linecap="round" stroke-linejoin="round"/>
<path d="M52.8809 121.373C52.8809 125.468 51.2542 129.396 48.3585 132.291C45.4629 135.187 41.5355 136.814 37.4405 136.814C33.3454 136.814 29.4181 135.187 26.5224 132.291C23.6268 129.396 22 125.468 22 121.373C22 117.278 23.6268 113.351 26.5224 110.455C29.4181 107.559 33.3454 105.933 37.4405 105.933C41.5355 105.933 45.4629 107.559 48.3585 110.455C51.2542 113.351 52.8809 117.278 52.8809 121.373Z" stroke="black" stroke-width="12" stroke-linecap="round" stroke-linejoin="round"/>
<path d="M53.0701 127.612H109.91L139.544 90.3817" stroke="black" stroke-width="12" stroke-linecap="round" stroke-linejoin="round"/>
<path d="M143.445 109.775L131.123 29H103.664" stroke="black" stroke-width="12" stroke-linecap="round" stroke-linejoin="round"/>
<path d="M62.5591 157.233C62.5591 157.233 91.1216 170.014 125.752 157.233" stroke="black" stroke-width="12" stroke-linecap="round" stroke-linejoin="round"/>
</svg>
