<?xml version="1.0" encoding="UTF-8" standalone="no"?>
<!-- Created with Inkscape (http://www.inkscape.org/) -->

<svg
   version="1.1"
   id="svg2"
   width="192"
   height="192"
   viewBox="0 0 192 192"
   sodipodi:docname="m365_tools.png"
   inkscape:export-filename="m365_tools.svg"
   inkscape:export-xdpi="96"
   inkscape:export-ydpi="96"
   xmlns:inkscape="http://www.inkscape.org/namespaces/inkscape"
   xmlns:sodipodi="http://sodipodi.sourceforge.net/DTD/sodipodi-0.dtd"
   xmlns="http://www.w3.org/2000/svg"
   xmlns:svg="http://www.w3.org/2000/svg">
  <defs
     id="defs6" />
  <sodipodi:namedview
     id="namedview4"
     pagecolor="#ffffff"
     bordercolor="#000000"
     borderopacity="0.25"
     inkscape:showpageshadow="2"
     inkscape:pageopacity="0.0"
     inkscape:pagecheckerboard="0"
     inkscape:deskcolor="#d1d1d1"
     showgrid="false" />
  <g
     inkscape:groupmode="layer"
     inkscape:label="Image"
     id="g8">
    <g
       id="g140"
       transform="translate(-1.8512268e-6,-0.03781)">
      <path
         id="path291"
         style="fill:none;fill-opacity:0.841327;stroke:#000000;stroke-width:12.1505;stroke-linecap:round;stroke-linejoin:round;paint-order:stroke fill markers"
         d="m 169.92479,122.01701 a 15.42477,15.424772 0 0 1 -15.42477,15.42478 15.42477,15.424772 0 0 1 -15.42478,-15.42478 15.42477,15.424772 0 0 1 15.42478,-15.42477 15.42477,15.424772 0 0 1 15.42477,15.42477 z" />
      <path
         id="path291-3"
         style="fill:none;fill-opacity:0.841327;stroke:#000000;stroke-width:12.1505;stroke-linecap:round;stroke-linejoin:round;paint-order:stroke fill markers"
         d="M 52.924794,122.017 A 15.424771,15.424771 0 0 1 37.500023,137.44177 15.424771,15.424771 0 0 1 22.075252,122.017 15.424771,15.424771 0 0 1 37.500023,106.59223 15.424771,15.424771 0 0 1 52.924794,122.017 Z" />
      <path
         style="fill:none;fill-opacity:0.841327;stroke:#000000;stroke-width:12;stroke-linecap:round;stroke-linejoin:round;stroke-dasharray:none;paint-order:stroke fill markers"
         d="M 53.113906,128.24916 H 109.8963 l 29.6033,-37.192039"
         id="path1029"
         sodipodi:nodetypes="ccc" />
      <path
         style="fill:none;fill-opacity:0.841327;stroke:#000000;stroke-width:12;stroke-linecap:round;stroke-linejoin:round;stroke-dasharray:none;paint-order:stroke fill markers"
         d="M 143.39642,110.43113 131.08703,29.73781 h -27.43109"
         id="path1031"
         sodipodi:nodetypes="ccc" />
      <path
         style="fill:none;fill-opacity:0.841327;stroke:#000000;stroke-width:12;stroke-linecap:round;stroke-linejoin:round;stroke-dasharray:none;paint-order:stroke fill markers"
         d="m 62.592995,157.84033 c 0,0 28.533475,12.76848 63.128945,0"
         id="path1082"
         sodipodi:nodetypes="cc" />
    </g>
  </g>
</svg>
