<svg xmlns="http://www.w3.org/2000/svg" width="192" height="192" fill="none"><path stroke="#000" stroke-linecap="round" stroke-linejoin="round" stroke-width="12" d="M53 127h56l29-47m32 41.374a15.43 15.43 0 0 1-6.861 12.839 15.44 15.44 0 0 1-14.488 1.426 15.446 15.446 0 0 1 5.909-29.705c4.095 0 8.022 1.627 10.918 4.522A15.44 15.44 0 0 1 170 121.374m-117.12 0a15.438 15.438 0 0 1-18.452 15.144 15.45 15.45 0 0 1-11.763-10.662 15.44 15.44 0 0 1 8.867-18.745 15.43 15.43 0 0 1 14.486 1.426 15.45 15.45 0 0 1 6.862 12.837"/><path stroke="#000" stroke-linecap="round" stroke-linejoin="round" stroke-width="12" d="M143 109.827 130.813 29h-27.159M63 157.316s28.25 12.789 62.501 0"/></svg>