<svg xmlns="http://www.w3.org/2000/svg" width="192" height="192" fill="none" stroke="#000" stroke-width="10" viewBox="0 0 192 192"><path stroke-linecap="round" d="M69 96h8m-38 0h16m-16 0 8 8m-8-8 8-8m68 8h8m14 0h16m0 0-8-8m8 8-8 8"/><path stroke-width="12" d="M42.92 68C52.98 48.969 72.976 36 96 36s43.02 12.969 53.08 32M42.92 68H28a6 6 0 0 0-6 6v44a6 6 0 0 0 6 6h14.92m0-56h106.16M42.92 124c10.06 19.031 30.056 32 53.08 32s43.02-12.969 53.08-32m-106.16 0h106.16m0-56H164a6 6 0 0 1 6 6v44a6 6 0 0 1-6 6h-14.92"/><circle cx="96" cy="96" r="5"/></svg>