<svg xmlns="http://www.w3.org/2000/svg" xmlns:xlink="http://www.w3.org/1999/xlink" width="256" height="256" viewBox="0 0 192 192" preserveAspectRatio="xMidYMid meet" xmlns:v="https://vecta.io/nano"><path d="M63.2 24.6c-2.9 2-2.8 5.2.5 11.8l2.6 5.4-3.1 4c-4.3 5.4-7.8 12.7-9.1 19-.7 3.3-1.1 18.8-1.1 41.2 0 34.7.1 36.1 2 38 1.5 1.5 3.3 2 7.5 2H68v9.4c0 8.7.2 9.6 2.2 11 3 2.1 5.4 2 7.8-.4 1.7-1.7 2-3.3 2-11v-9h6.8c8 0 11.2-1.7 11.2-5.9 0-5.4-2.1-6.1-18.3-6.1H65v-27.5V79h31 31v27.5V134h-5.5c-8.8 0-9.5 1.2-9.5 17 0 11.7.2 13.2 2 15 2.4 2.4 4.8 2.5 7.8.4 2-1.4 2.2-2.3 2.2-11V146h5.5c4.2 0 6-.5 7.5-2 1.9-1.9 2-3.3 2-38.3 0-29-.3-37.4-1.5-42-1.8-6.9-4.7-12.8-8.8-18l-3-3.9 2.6-5.4c3.2-6.4 3.4-9.5.9-11.7-3.9-3.6-7.1-1.8-11.1 6.1-1.7 3.4-2.6 4.2-3.9 3.6-7.2-3-10.5-3.7-18.2-3.7s-11 .7-18.2 3.7c-1.3.6-2.2-.2-3.9-3.6-4-7.9-6.3-9.3-10.7-6.2zm45.2 20.3c2.4 1 6.2 3.5 8.4 5.6 3.8 3.4 9.2 12.3 9.2 15.2 0 1-6 1.3-30 1.3-23.3 0-30-.3-30-1.3.1-2.4 3.8-9.4 6.9-13 8.8-10 23.4-13.2 35.5-7.8z"/><use xlink:href="#B"/><use xlink:href="#B" x="110"/><path d="M91.5 94c-1.3 2.5-2.1 3-4.7 2.8-2.5-.2-3.5.2-4.7 2.4-1.4 2.5-1.4 2.8.4 4.8 1.6 1.7 1.7 2.4.7 3.8-2.3 3.2-2.4 4.2-.8 6.7 1.2 1.8 2.5 2.5 5 2.5 2.8 0 3.5.5 4 2.5.5 2.1 1.2 2.5 4.1 2.5s3.7-.5 4.5-2.5 1.6-2.5 4.5-2.5c4.5 0 6.6-3.5 4.5-7.5-1.2-2.2-1.2-3 .2-5.3 1.4-2.4 1.5-3 .1-5.5-1.2-2.3-2-2.8-4.6-2.5-2.6.2-3.4-.2-4.5-2.5-1.9-3.9-6.6-3.8-8.7.3zm7.3 8.6c3.7 2.6 2 9.4-2.4 9.4-5.3 0-7.5-6.4-3.2-9.4 1.2-.9 2.5-1.6 2.8-1.6s1.6.7 2.8 1.6z"/><defs ><path id="B" d="M37 69c-1.9 1.9-2 3.3-2 22.5s.1 20.6 2 22.5c1.1 1.1 2.9 2 4 2s2.9-.9 4-2c1.9-1.9 2-3.3 2-22.5s-.1-20.6-2-22.5c-1.1-1.1-2.9-2-4-2s-2.9.9-4 2z"/></defs></svg>