<svg width="192" height="192" viewBox="0 0 192 192" fill="none" xmlns="http://www.w3.org/2000/svg"><circle cx="81" cy="58" r="3" stroke="#000" stroke-width="6" stroke-linecap="round" stroke-linejoin="round"/><circle cx="111" cy="58" r="3" stroke="#000" stroke-width="6" stroke-linecap="round" stroke-linejoin="round"/><path d="M114 142v28m-36-28v28M64 22l10 15m54-15-10 15M34 82v48m124-48v48M54 76v60a6 6 0 0 0 6 6h72a6 6 0 0 0 6-6V76m-84 0h84" stroke="#000" stroke-width="12" stroke-linecap="round" stroke-linejoin="round"/><path d="m72 120 12-24 12 24 12-24 12 24" stroke="#000" stroke-width="10" stroke-linecap="round" stroke-linejoin="round"/><path d="M138 76a41.994 41.994 0 0 0-25.927-38.803A42 42 0 0 0 54 76" stroke="#000" stroke-width="12" stroke-linecap="round" stroke-linejoin="round"/></svg>