<svg width="192" height="192" viewBox="0 0 192 192" fill="none" xmlns="http://www.w3.org/2000/svg"><rect x="37" y="37" width="118" height="118" rx="6" stroke="#000" stroke-width="12" stroke-linecap="round" stroke-linejoin="round"/><path d="M96 22v15m0 118v15m74-74h-15M37 96H22m100-74v15m48 85h-15m-33 33v15m-85-48H22M70 22v15m100 33h-15m-85 85v15M37 70H22" stroke="#000" stroke-width="12" stroke-linecap="round" stroke-linejoin="round"/><path d="M65 94a6 6 0 0 1 6-6h50a6 6 0 0 1 6 6v24a6 6 0 0 1-6 6H71a6 6 0 0 1-6-6V94Z" stroke="#000" stroke-width="10" stroke-linecap="round" stroke-linejoin="round"/><path d="M111 106h-10" stroke="#000" stroke-width="8" stroke-linecap="round" stroke-linejoin="round"/><path d="M116 64v24M76 74v14" stroke="#000" stroke-width="10" stroke-linecap="round" stroke-linejoin="round"/><circle cx="84" cy="106" r="3" stroke="#000" stroke-width="6" stroke-linecap="round" stroke-linejoin="round"/></svg>