<svg xmlns="http://www.w3.org/2000/svg" width="192" height="192" fill="none" stroke="#000" stroke-linecap="round" stroke-linejoin="round" stroke-width="12" viewBox="0 0 192 192"><path d="M72 166.021A73.902 73.902 0 0 0 96 170c8.4 0 16.474-1.4 24-3.979M50.039 154C32.956 140.445 22 119.502 22 96c0-40.87 33.13-74 74-74 40.869 0 74 33.13 74 74 0 23.502-10.956 44.445-28.039 58"/><path d="M72 165v-48l19.248 24.964c2.402 3.115 7.102 3.115 9.504 0L120 117v48"/><path d="M50 152V69.504c0-5.715 7.233-8.194 10.738-3.68L96 111.214l35.262-45.392C134.768 61.31 142 63.79 142 69.504V152"/></svg>