<svg width="192" height="192" viewBox="0 0 192 192" fill="none" xmlns="http://www.w3.org/2000/svg"><path d="M22 93v63a6 6 0 0 0 6 6h40a6 6 0 0 0 6-6V94.5C74 82 85 78 85 78l10.5 10.5L106 78s11 4 11 16.5l.912 61.589a6 6 0 0 0 6 5.911H164a6 6 0 0 0 6-6V93" stroke="#000" stroke-width="12" stroke-linecap="round" stroke-linejoin="round"/><path d="M48 94v67m96-67v67" stroke="#000" stroke-width="10" stroke-linecap="round" stroke-linejoin="round"/><path d="M170 93c0-8.405-1.914-16.727-5.633-24.492-3.719-7.765-9.17-14.82-16.041-20.763-6.872-5.943-15.029-10.657-24.007-13.873C115.34 30.655 105.718 29 96 29s-19.34 1.655-28.319 4.872c-8.978 3.216-17.135 7.93-24.007 13.873-6.871 5.943-12.322 12.998-16.041 20.763C23.914 76.273 22 84.595 22 93" stroke="#000" stroke-width="12" stroke-linecap="round" stroke-linejoin="round"/><path d="M96 30c-6.303 0-12.545 1.655-18.369 4.872-5.823 3.216-11.115 7.93-15.572 13.873-4.457 5.943-7.993 12.998-10.405 20.763C49.242 77.273 48 85.595 48 94m96 0c0-5.778-1.242-11.5-3.654-16.838-2.412-5.338-5.948-10.189-10.405-14.275-4.457-4.086-9.749-7.327-15.572-9.538A51.816 51.816 0 0 0 96 50" stroke="#000" stroke-width="10" stroke-linecap="round" stroke-linejoin="round"/></svg>