<svg width="192" height="192" viewBox="0 0 192 192" fill="none" xmlns="http://www.w3.org/2000/svg"><path d="m117 81-12 7V74l12 7Z" stroke="#000" stroke-width="10" stroke-linecap="round" stroke-linejoin="round"/><path d="M22 79a6 6 0 0 1 6-6h28a6 6 0 0 1 6 6v68a6 6 0 0 1-6 6H28a6 6 0 0 1-6-6V79Z" stroke="#000" stroke-width="12" stroke-linecap="round" stroke-linejoin="round"/><path d="M38 73V52c0-6.627 5.373-12 12-12h114a6 6 0 0 1 6 6v64c0 6.627-5.373 12-12 12H63m68 26H91" stroke="#000" stroke-width="12" stroke-linecap="round" stroke-linejoin="round"/></svg>