<?xml version="1.0" encoding="UTF-8" standalone="no"?>
<svg
   width="192"
   height="192"
   viewBox="0 0 50.799999 50.8"
   version="1.1"
   id="svg1"
   xml:space="preserve"
   xmlns="http://www.w3.org/2000/svg"
   xmlns:svg="http://www.w3.org/2000/svg"><defs
     id="defs1" /><g
     id="layer1"><path
       style="fill:none;stroke:#000000;stroke-width:3.06269;stroke-linecap:round;stroke-linejoin:round;stroke-miterlimit:32;stroke-dasharray:none;paint-order:stroke fill markers"
       d="m 11.846492,26.859562 25.422283,-6.91186 a 3.0729199,3.0729199 29.102033 0 1 3.75127,2.088104 l 3.102867,10.417721 A 2.9666092,2.9666092 118.73473 0 1 42.094687,36.15283 L 21.913215,41.918671 A 4.112477,4.112477 20.165652 0 1 17.36305,40.247633 L 10.617162,30.141799 a 2.1591329,2.1591329 110.53295 0 1 1.22933,-3.282237 z"
       id="path1"
       transform="matrix(1.0365944,0,0,1.0367476,-0.49708649,-0.73073208)" /><path
       style="fill:none;stroke:#000000;stroke-width:3.06269;stroke-linecap:round;stroke-linejoin:round;stroke-miterlimit:32;stroke-dasharray:none;paint-order:stroke fill markers"
       d="m 11.214156,31.347617 -2.5536632,0.869899 a 3.2376705,3.2376705 118.37076 0 0 -2.091295,3.872491 l 0.6433345,2.497084 a 2.8292792,2.8292792 28.875289 0 0 3.6048147,1.987936 l 4.355224,-1.398497"
       id="path2"
       transform="matrix(1.0365944,0,0,1.0367476,-0.49708649,-0.73073208)" /><path
       style="fill:none;stroke:#000000;stroke-width:3.175;stroke-linecap:round;stroke-linejoin:round;stroke-miterlimit:32;stroke-dasharray:none;paint-order:stroke fill markers"
       d="M 14.79684,36.465951 43.545947,28.408975"
       id="path3" /><path
       style="fill:none;stroke:#000000;stroke-width:3.06269;stroke-linecap:round;stroke-linejoin:round;stroke-miterlimit:32;stroke-dasharray:none;paint-order:stroke fill markers"
       d="m 22.945849,8.2242381 1.475536,-1.1423396 a 2.925212,2.925212 161.12672 0 1 1.790726,-0.6121698 h 1.018297 a 1,1 45 0 1 1,1 V 14.80429 a 1,1 135 0 1 -1,1 l -4.037558,0 a 1.0054291,1.0054291 44.84489 0 1 -1.005414,-0.999985 l -0.0269,-4.9679118 a 2.0249626,2.0249626 115.97161 0 1 0.785312,-1.6121551 z"
       id="path4"
       transform="matrix(1.0365944,0,0,1.0367476,-0.49708649,-0.2118803)" /></g></svg>
