<svg width="192" height="192" xmlns="http://www.w3.org/2000/svg"><g fill="none"><path style="fill:#000;fill-opacity:0;stroke:#000;stroke-width:8;stroke-linecap:round;stroke-linejoin:round;stroke-miterlimit:6;paint-order:stroke fill markers" d="M53.376 97.847S66.54 87.483 90.409 87.483"/><path style="fill:#000;fill-opacity:0;stroke:#000;stroke-width:8;stroke-linecap:round;stroke-linejoin:round;stroke-miterlimit:6;paint-order:stroke fill markers" d="M61.1 93.28s-5.951 2.299-5.951-27.057c0-41.015-3.391 31.71-3.391 31.71M70.772 89.825l4.116-53.394s1.363 50.714 4.733 50.714M121.109 89.431l-4.122-53s-1.363 50.714-4.733 50.714M102.3 87.49S97.666 86.47 96.085 20c0 0-.913 50.417-5.649 67.484M131.008 93.117s5.292 2.461 5.292-26.894c0-41.015 3.391 31.71 3.391 31.71"/><path style="fill:#000;fill-opacity:0;stroke:#000;stroke-width:8;stroke-linecap:round;stroke-linejoin:round;stroke-miterlimit:6;paint-order:stroke fill markers" d="M51.757 97.824S95.399 108.027 95.399 172c0 0-4.613-58.49 44.285-74.118M139.678 97.847s-13.165-10.364-37.033-10.364"/></g></svg>