<svg xmlns="http://www.w3.org/2000/svg" width="192" height="192" fill="none"><path stroke="#000" stroke-linecap="round" stroke-linejoin="round" stroke-width="12" d="M118 124c-5-18-9-29 8-71-34 7-45 20-45 20l12 37M81 79s-11.558 5.394-22.5 10.094M147 40l-3.527 3.175M118 124l-38.052-19.682c-5.456-2.822-10.836 3.209-7.24 8.19C81.985 125.357 94.541 141.323 104 148"/><path stroke="#000" stroke-linecap="round" stroke-linejoin="round" stroke-width="8" d="M116 161.5c3 5 4 8.5 4 8.5s1-5-1-10zm42.794-135.258c4.725-3.417 7.021-6.242 7.021-6.242s-1.047 4.99-4.852 8.8zM39.5 96.25c-5-3-8.5-4-8.5-4s5-1 10 1z"/><path stroke="#000" stroke-linecap="round" stroke-linejoin="round" stroke-width="12" d="M84 128c-16 13-26 42-26 42m47.389-145.376a5.56 5.56 0 0 1 1.611 3.92c0 4.239-3.235 9.456-3.235 9.456S96 35.391 96 28.544c0-1.47.58-2.88 1.61-3.92A5.48 5.48 0 0 1 101.5 23c1.459 0 2.858.584 3.889 1.624"/></svg>