<svg xmlns="http://www.w3.org/2000/svg" width="192" height="192" fill="none"><path stroke="#000" stroke-linecap="round" stroke-linejoin="round" stroke-width="8" d="m93.003 87 3-66 3 66m-26.84 3 2.41-53 2.408 53m-20.834 10.154L54.003 53l-2.143 47.154 1.143.586M119.842 90l-2.409-53-2.41 53m20.835 10.154L138.002 53l2.143 47.154-1.143.586"/><path stroke="#000" stroke-linecap="round" stroke-linejoin="round" stroke-width="12" d="M96.003 171q0-.502.005-1M63.72 104.303C58.094 100.509 54.003 99 54.003 99s18-10 42-10 42 10 42 10-4.09 1.509-9.717 5.303"/><path stroke="#000" stroke-linecap="round" stroke-linejoin="round" stroke-miterlimit="6" stroke-width="12" d="M110.142 115.858a20 20 0 0 0-21.796-4.336 20.003 20.003 0 0 0-8.975 29.589 20 20 0 0 0 20.53 8.505 20 20 0 0 0 10.241-5.474"/></svg>