<svg xmlns="http://www.w3.org/2000/svg" width="192" height="192" fill="none" stroke="#000" stroke-linecap="round" stroke-linejoin="round" stroke-width="8" viewBox="0 0 192 192"><path d="M87.12 105.032s8.211-6.456 23.1-6.456"/><path d="M91.938 102.187s-3.713 1.432-3.713-16.852c0-25.546-2.115 19.75-2.115 19.75m11.86-5.05 2.568-33.256s.85 31.587 2.953 31.587m25.879 1.424-2.571-33.011s-.85 31.587-2.953 31.587m-6.209.214s-2.89-.634-3.876-42.035c0 0-.57 31.402-3.524 42.032m25.308 3.509s3.301 1.533 3.301-16.751c0-25.547 2.115 19.75 2.115 19.75"/><path d="M86.11 105.018s27.223 6.354 27.223 46.2c0 0-2.878-36.43 27.624-46.165m-.004-.021s-8.212-6.456-23.1-6.456m-76.849-.936c-.395-41.828 28.34-87.355 75.708-75.824 20.92 5.088 34.032 15.305 34.032 15.305l-5.162 33.367c-15.32-21.78-19.238-39.322-35.35-39.992 0 0-33.685-1.558-33.002 66.786"/><path d="M41.004 94.36c-.395 41.828 28.34 87.355 75.708 75.824 20.92-5.088 34.032-15.305 34.032-15.305l-5.162-33.367c-15.32 21.78-19.238 39.322-35.35 39.992 0 0-33.685 1.559-33.002-66.786"/></svg>