<svg xmlns="http://www.w3.org/2000/svg" width="192" height="192" fill="none"><path stroke="#000" stroke-linecap="round" stroke-linejoin="round" stroke-width="12" d="M152 67v55.604c0 13.143-8 36.396-31 36.396-20.118-3.651-45.824-2.728-66-.979M22 162l32-32.323v-54.04C54 69.07 65 62 65 62m65 0L90 97.353 59.5 68.819"/><path stroke="#000" stroke-linecap="round" stroke-linejoin="round" stroke-width="12" d="m129 90 1 33.717C127 130.87 117 137 117 137m-90-10 1-51.586C28 62.264 36 39 59 39c25.529 4.216 51.701 3.215 69 1.29"/><path stroke="#000" stroke-linecap="round" stroke-linejoin="round" stroke-width="10" d="m163.862 25-.259 5.769H171l-5.984 5.469-1.108 9.19-5.985-4.576L146 49l9.922-12.762-4.288-5.47h7.397z"/></svg>