<svg xmlns="http://www.w3.org/2000/svg" width="192" height="192" fill="none" stroke="#000" stroke-linecap="round" stroke-linejoin="round" stroke-width="8" viewBox="0 0 192 192"><path stroke-width="12" d="M55.1 81.6 22 166"/><path d="m67.5 26 5.3 16.1h17.1l-13.8 10 5.2 16.2-13.8-10-13.7 10 5.3-16.2-13.8-10h17.1zm-14.1 92.8c0-.2 5.2-6.9 6.5-4.6 1.4 2.3-8.6 20.8-5.9 24.6 2.6 3.8 6-3.2 6-3.2m26.2-26.9L82.6 121l-5.5 19.2h-4.5 14.3"/><path d="M83.9 122.7s18.3 2.6 18.3-11.3c0-4.3-6-7.8-13-7.9-6.1-.1-10.9 1-15.3 4.5-3.9 3-9 13.1-3.9 21.4m49.6 3.5s-1.1 5.9-10.8 6.2c-4.8.1-5.9-4.6-4.8-10s4.4-11.4 8.2-14c7.6-5.2 9.1 1.7 8.2 3.3-1 1.6-4.8 8.4-15.7 9.9m23.5-9.4s5.2-5.5 6.1-4.6c.9 1-5.7 25.7-5.7 25.7s5.9-21 15.6-26M172 96.5s-3.8-1.6-10 4.1-8.8 45-17.2 51.9c-5.2 4.3-10.6 3.1-10.6 3.1m12-39.2h21"/></svg>