<svg xmlns="http://www.w3.org/2000/svg" width="192" height="192" fill="none"><path stroke="#000" stroke-linecap="round" stroke-linejoin="round" stroke-width="12" d="M111.463 121.245C119.943 116.039 125.6 106.68 125.6 96c0-16.348-13.252-29.6-29.6-29.6S66.4 79.652 66.4 96s13.252 29.6 29.6 29.6a29.46 29.46 0 0 0 14.69-3.897m.773-.458q-.383.235-.773.458m.773-.458q-.39.224-.773.458m.773-.458c4.628-2.651 10.035-4.087 15.731-4.36 13.595-.651 25.729 6.65 31.896 17.808m-32.653 28.778q.244-.114.487-.223m-.487.223.487-.223m-.487.223C117.153 167.665 106.849 170 96 170c-40.87 0-74-33.131-74-74s33.13-74 74-74 74 33.13 74 74c0 14.184-3.99 27.435-10.91 38.693m-32.166 28.555c3.82-1.692 7.786-2.272 12.25-2.486a34.38 34.38 0 0 1 20.739 5.712 34.4 34.4 0 0 0 3.427-16.747 34.4 34.4 0 0 0-4.25-15.034"/></svg>