<svg xmlns="http://www.w3.org/2000/svg" width="192" height="192" viewBox="0 0 192 192"><g fill="none" stroke="#000" stroke-linecap="round" stroke-linejoin="round" stroke-width="8"><path d="M53.376 97.847S66.54 87.483 90.409 87.483"/><path d="M61.1 93.28s-5.951 2.299-5.951-27.057c0-41.015-3.391 31.71-3.391 31.71m19.014-8.108 4.116-53.394s1.363 50.714 4.733 50.714m41.488 2.286-4.122-53s-1.363 50.714-4.733 50.714m-9.954.345S97.666 86.47 96.085 20c0 0-.913 50.417-5.649 67.484m40.572 5.633s5.292 2.461 5.292-26.894c0-41.015 3.391 31.71 3.391 31.71"/><path d="M51.757 97.824S95.399 108.027 95.399 172c0 0-4.613-58.49 44.285-74.118m-.006-.035s-13.165-10.364-37.033-10.364"/></g></svg>