<svg width="192" height="192" fill="none" xmlns="http://www.w3.org/2000/svg"><path d="M87.12 105.032s8.211-6.456 23.1-6.456" stroke="#000" stroke-width="8" stroke-miterlimit="6" stroke-linecap="round" stroke-linejoin="round"/><path d="M91.938 102.187s-3.713 1.432-3.713-16.852c0-25.546-2.115 19.75-2.115 19.75M97.97 100.035l2.568-33.256s.85 31.587 2.953 31.587M129.37 99.79l-2.571-33.011s-.85 31.587-2.953 31.587M117.637 98.58s-2.89-.634-3.876-42.035c0 0-.57 31.402-3.524 42.032M135.545 102.086s3.301 1.533 3.301-16.751c0-25.547 2.115 19.75 2.115 19.75" stroke="#000" stroke-width="8" stroke-miterlimit="6" stroke-linecap="round" stroke-linejoin="round"/><path d="M86.11 105.018s27.223 6.354 27.223 46.2c0 0-2.878-36.43 27.624-46.165M140.953 105.032s-8.212-6.456-23.1-6.456M41.004 97.64c-.395-41.828 28.34-87.355 75.708-75.824 20.92 5.088 34.032 15.305 34.032 15.305l-5.162 33.367c-15.32-21.78-19.238-39.322-35.35-39.992 0 0-33.685-1.558-33.002 66.786" stroke="#000" stroke-width="8" stroke-miterlimit="6" stroke-linecap="round" stroke-linejoin="round"/><path d="M41.004 94.36c-.395 41.828 28.34 87.355 75.708 75.824 20.92-5.088 34.032-15.305 34.032-15.305l-5.162-33.367c-15.32 21.78-19.238 39.322-35.35 39.992 0 0-33.685 1.559-33.002-66.786" stroke="#000" stroke-width="8" stroke-miterlimit="6" stroke-linecap="round" stroke-linejoin="round"/></svg>