<?xml version="1.0" encoding="UTF-8" standalone="no"?>
<!-- Created with Inkscape (http://www.inkscape.org/) -->

<svg
   version="1.1"
   id="svg2"
   width="192"
   height="192"
   viewBox="0 0 192 192"
   sodipodi:docname="magic_arena.png"
   inkscape:export-filename="magic_arena.svg"
   inkscape:export-xdpi="96"
   inkscape:export-ydpi="96"
   xmlns:inkscape="http://www.inkscape.org/namespaces/inkscape"
   xmlns:sodipodi="http://sodipodi.sourceforge.net/DTD/sodipodi-0.dtd"
   xmlns="http://www.w3.org/2000/svg"
   xmlns:svg="http://www.w3.org/2000/svg">
  <defs
     id="defs6" />
  <sodipodi:namedview
     id="namedview4"
     pagecolor="#ffffff"
     bordercolor="#000000"
     borderopacity="0.25"
     inkscape:showpageshadow="2"
     inkscape:pageopacity="0.0"
     inkscape:pagecheckerboard="0"
     inkscape:deskcolor="#d1d1d1"
     showgrid="false" />
  <g
     inkscape:groupmode="layer"
     inkscape:label="Image"
     id="g8">
    <path
       style="fill:#000000;fill-opacity:0;stroke:#000000;stroke-width:8;stroke-linecap:round;stroke-linejoin:round;stroke-miterlimit:6;paint-order:stroke fill markers"
       d="m 53.376,97.847464 c 0,0 13.16429,-10.364464 37.03311,-10.364464"
       id="path1911-6"
       sodipodi:nodetypes="cc" />
    <path
       style="fill:#000000;fill-opacity:0;stroke:#000000;stroke-width:8;stroke-linecap:round;stroke-linejoin:round;stroke-miterlimit:6;paint-order:stroke fill markers"
       d="m 61.10086,93.279082 c 0,0 -5.95211,2.299636 -5.95211,-27.055745 0,-41.015254 -3.39077,31.709231 -3.39077,31.709231"
       id="path1864-5"
       sodipodi:nodetypes="csc" />
    <path
       style="fill:#000000;fill-opacity:0;stroke:#000000;stroke-width:8;stroke-linecap:round;stroke-linejoin:round;stroke-miterlimit:6;paint-order:stroke fill markers"
       d="M 70.77155,89.824973 74.88793,36.43083 c 0,0 1.36272,50.714544 4.73321,50.714544"
       id="path1392-3"
       sodipodi:nodetypes="ccc" />
    <path
       style="fill:#000000;fill-opacity:0;stroke:#000000;stroke-width:8;stroke-linecap:round;stroke-linejoin:round;stroke-miterlimit:6;paint-order:stroke fill markers"
       d="m 121.10905,89.431374 -4.1222,-53.000738 c 0,0 -1.36272,50.714544 -4.73321,50.714544"
       id="path1392"
       sodipodi:nodetypes="ccc" />
    <path
       style="fill:#000000;fill-opacity:0;stroke:#000000;stroke-width:8;stroke-linecap:round;stroke-linejoin:round;stroke-miterlimit:6;paint-order:stroke fill markers"
       d="m 102.29963,87.48991 c 0,0 -4.63325,-1.019766 -6.214277,-67.48991 0,0 -0.913177,50.416717 -5.649184,67.483674"
       id="path1439"
       sodipodi:nodetypes="ccc" />
    <path
       style="fill:#000000;fill-opacity:0;stroke:#000000;stroke-width:8;stroke-linecap:round;stroke-linejoin:round;stroke-miterlimit:6;paint-order:stroke fill markers"
       d="m 131.00816,93.117269 c 0,0 5.29209,2.461054 5.29209,-26.894327 0,-41.015254 3.39077,31.709228 3.39077,31.709228"
       id="path1864"
       sodipodi:nodetypes="csc" />
    <path
       style="fill:#000000;fill-opacity:0;stroke:#000000;stroke-width:8;stroke-linecap:round;stroke-linejoin:round;stroke-miterlimit:6;paint-order:stroke fill markers"
       d="m 51.756856,97.824141 c 0,0 43.642144,10.202629 43.642144,74.175859 0,0 -4.613258,-58.48999 44.28467,-74.118291"
       id="path1909"
       sodipodi:nodetypes="ccc" />
    <path
       style="fill:#000000;fill-opacity:0;stroke:#000000;stroke-width:8;stroke-linecap:round;stroke-linejoin:round;stroke-miterlimit:6;paint-order:stroke fill markers"
       d="m 139.67775,97.847195 c 0,0 -13.16429,-10.364464 -37.03311,-10.364464"
       id="path1911"
       sodipodi:nodetypes="cc" />
  </g>
</svg>
