<svg xmlns="http://www.w3.org/2000/svg" width="192" height="192" viewBox="0 0 192 192"><path d="M90 137.652H79.1c-3.31 0-6 2.689-6 6s2.69 6 6 6H90v10.902c0 3.311 2.69 6 6 6 3.32 0 6-2.689 6-6v-10.902h10.91c3.31 0 6-2.688 6-6s-2.69-6-6-6H102v-10.901c0-3.312-2.68-6-6-6-3.31 0-6 2.688-6 6zm-31.63-7.534C40.29 121.114 28 105.75 28 88.034c0-28.414 30.85-50.588 68-50.588 37.16 0 68 22.174 68 50.588 0 17.529-12.03 32.758-29.8 41.799a5.993 5.993 0 0 0 5.44 10.695C161.75 129.282 176 109.839 176 88.034c0-34.053-35.46-62.588-80-62.588-44.53 0-80 28.535-80 62.588 0 22.02 14.55 41.634 37.02 52.826a5.996 5.996 0 0 0 5.35-10.742m37.51-24.367.12-.001c12.44 0 27.71 9.4 27.71 9.4a5.998 5.998 0 0 0 8.31-8.127l-30.81-53.596a6.005 6.005 0 0 0-10.41 0l-30.81 53.596a5.988 5.988 0 0 0 8.3 8.127s15.16-9.328 27.59-9.399m-.07-12c-5.28.03-10.98 1.393-16.16 3.154L96 68.456l16.36 28.453c-5.25-1.783-11.02-3.159-16.36-3.159 0 0-3.5.02-.19.001"/></svg>