<svg width="192" height="192" fill="none" xmlns="http://www.w3.org/2000/svg"><path d="M114 88a18.01 18.01 0 0 0-5.272-12.728 18.005 18.005 0 0 0-19.616-3.902A17.998 17.998 0 0 0 78 88" stroke="#000" stroke-width="12" stroke-linecap="round" stroke-linejoin="round"/><path d="m31.358 57.62-9.134 69.999C20.192 143.188 32.25 157 47.874 157h96.252c15.623 0 27.682-13.812 25.65-29.381l-9.134-70C158.953 44.677 147.979 35 134.991 35H57.009c-12.988 0-23.962 9.677-25.65 22.62Z" stroke="#000" stroke-width="12" stroke-linecap="round" stroke-linejoin="round"/><path d="M78 88c0 14 18 34 18 34s18-20 18-34" stroke="#000" stroke-width="12" stroke-linecap="round" stroke-linejoin="round"/></svg>