<?xml version="1.0" encoding="utf-8"?>
	<svg version="1.1" xmlns="http://www.w3.org/2000/svg" xmlns:xlink="http://www.w3.org/1999/xlink" x="0px" y="0px" width="240.0" height="240.0" xml:space="preserve">
		<path d="M219.955,207.509L195.084,207.509C195.061,207.151 195.039,206.883 195.039,206.592C195.017,202.347 195.039,198.101 194.994,193.855C194.927,188.291 194.793,182.726 194.659,177.162C194.547,173.319 194.413,169.453 194.212,165.609C193.966,160.715 193.654,155.844 193.363,150.972C193.162,147.777 192.939,144.581 192.67,141.363C192.402,138.19 192.112,135.017 191.799,131.866C191.598,129.788 191.397,127.687 191.151,125.609C190.838,122.726 190.525,119.844 190.168,116.983C189.698,113.386 189.251,109.81 188.67,106.235C187.888,101.341 187.061,96.425 186.19,91.553C184.961,84.782 183.419,78.078 181.52,71.464C180.045,66.302 178.324,61.229 176.022,56.38C174.793,53.788 173.385,51.285 171.553,49.05C170.615,47.911 169.564,46.883 168.313,46.078C165.765,44.447 163.196,44.492 160.626,46.011C158.927,47.017 157.587,48.402 156.38,49.944C154.168,52.782 152.514,55.933 151.061,59.218C148.737,64.447 146.972,69.9 145.453,75.419C142.972,84.335 141.117,93.363 139.62,102.481C138.726,107.933 137.944,113.43 137.229,118.905C136.603,123.71 136.089,128.514 135.575,133.319C135.24,136.514 134.994,139.71 134.726,142.905C134.413,146.816 134.123,150.749 133.855,154.682C133.698,156.872 133.587,159.084 133.497,161.274C133.274,166.615 133.006,171.978 132.872,177.341C132.715,182.883 132.67,188.425 132.559,193.944C132.559,194.168 132.536,194.391 132.492,194.726C124.223,194.726 115.978,194.704 107.642,194.659C107.62,194.257 107.598,193.944 107.598,193.609C107.575,189.229 107.598,184.849 107.531,180.492C107.486,176.402 107.397,172.313 107.24,168.224C107.084,163.442 106.86,158.659 106.615,153.877C106.458,150.57 106.257,147.263 105.989,143.955C105.631,139.285 105.229,134.615 104.804,129.967C104.469,126.28 104.112,122.592 103.642,118.928C102.994,113.788 102.346,108.671 101.542,103.553C100.693,98.235 99.754,92.939 98.704,87.665C96.983,79.106 94.838,70.659 91.754,62.481C90.436,59.017 88.939,55.643 87.017,52.469C85.855,50.548 84.559,48.693 82.86,47.173C82.257,46.615 81.587,46.101 80.894,45.676C78.145,43.978 75.397,44.09 72.76,45.922C71.106,47.084 69.81,48.581 68.648,50.235C66.637,53.095 65.117,56.201 63.777,59.397C61.341,65.207 59.531,71.218 57.966,77.319C56.179,84.201 54.704,91.173 53.52,98.19C52.536,104.023 51.62,109.877 50.771,115.754C50.19,119.754 49.743,123.754 49.296,127.777C48.804,132.112 48.38,136.469 47.955,140.827C47.62,144.313 47.374,147.799 47.106,151.263C46.838,154.726 46.615,158.168 46.391,161.631C46.212,164.671 46.034,167.732 45.899,170.771C45.676,175.821 45.475,180.849 45.318,185.9C45.207,189.743 45.14,193.609 45.073,197.475C45.028,200.358 45.006,203.218 44.961,206.101C44.961,206.302 44.939,206.503 44.916,206.704C44.313,206.883 21.184,206.861 20.067,206.682C20.045,206.481 20,206.257 20,206.034C20.067,202.123 20.134,198.212 20.223,194.302C20.268,192.291 20.335,190.257 20.425,188.246C20.648,183.643 20.827,179.039 21.117,174.436C21.363,170.414 21.676,166.391 22.056,162.369C22.503,157.631 22.972,152.894 23.553,148.179C24.223,142.704 24.961,137.252 25.788,131.799C26.838,124.894 28.134,118.034 29.587,111.196C31.62,101.699 34.056,92.313 37.073,83.084C39.128,76.76 41.453,70.525 44.223,64.469C47.017,58.347 50.168,52.447 54.123,46.995C56.492,43.732 59.106,40.715 62.19,38.101C64.939,35.799 67.911,33.922 71.374,32.872C76.156,31.397 80.827,31.844 85.385,33.833C88.894,35.352 91.911,37.609 94.659,40.246C98.101,43.576 100.983,47.352 103.553,51.397C107.777,58.011 111.061,65.095 113.922,72.38C116.38,78.682 118.458,85.095 120.268,91.598C120.335,91.844 120.425,92.09 120.626,92.335C120.715,92.023 120.827,91.71 120.916,91.419C122.905,84.536 125.207,77.743 127.933,71.106C130.48,64.916 133.363,58.905 136.872,53.207C139.419,49.073 142.257,45.162 145.676,41.699C148.201,39.129 150.972,36.849 154.19,35.129C157.542,33.341 161.095,32.335 164.894,32.425C168.536,32.514 171.866,33.631 174.972,35.464C178.413,37.497 181.318,40.179 183.911,43.196C187.374,47.196 190.19,51.598 192.715,56.224C196.425,63.017 199.374,70.123 201.944,77.408C205.43,87.285 208.134,97.363 210.369,107.598C211.777,113.967 213.028,120.358 214.011,126.816C214.883,132.469 215.687,138.123 216.402,143.799C217.05,149.006 217.564,154.235 218.056,159.464C218.346,162.458 218.547,165.453 218.749,168.447C219.061,173.609 219.352,178.771 219.598,183.955C219.754,187.039 219.821,190.101 219.866,193.185C219.933,197.743 219.955,202.302 220,206.861C220,207.017 219.978,207.218 219.955,207.509L219.955,207.509Z" fill="#000" stroke="#00000000" stroke-width="1.0" stroke-miterlimit=""/>
	</svg>
