<?xml version="1.0" encoding="utf-8"?>
	<svg version="1.1" xmlns="http://www.w3.org/2000/svg" xmlns:xlink="http://www.w3.org/1999/xlink" x="0px" y="0px" width="240.0" height="240.0" xml:space="preserve">
		<path d="M170.901,39.012C174.412,39.161 177.934,38.946 181.399,39.905C190.744,42.495 197.35,50.82 197.371,60.523C197.427,86.532 197.365,112.54 197.444,138.548C197.451,140.711 196.603,140.935 194.808,140.93C174.001,140.881 153.194,140.936 132.388,140.846C130.105,140.836 129.351,141.338 129.444,143.73C129.643,148.837 129.651,153.961 129.442,159.066C129.342,161.514 130.197,161.927 132.422,161.918C152.081,161.834 171.742,161.868 191.403,161.87C197.842,161.871 200.002,164.012 200.005,170.372C200.006,173.37 199.798,176.386 200.066,179.359C200.311,182.073 199.237,182.459 196.819,182.448C175.484,182.354 154.149,182.438 132.813,182.335C130.256,182.323 129.375,182.782 129.427,185.588C129.62,196.252 129.465,206.921 129.543,217.589C129.555,219.39 129.128,220.045 127.217,219.998C122.107,219.87 116.989,219.877 111.879,219.995C110.028,220.038 109.498,219.484 109.511,217.63C109.594,206.788 109.49,195.942 109.603,185.099C109.626,182.889 108.994,182.334 106.815,182.343C86.89,182.428 66.965,182.397 47.04,182.391C41.288,182.39 39.065,180.155 39.059,174.413C39.057,171.151 39.187,167.882 39.013,164.629C38.898,162.471 39.512,161.808 41.756,161.817C63.179,161.904 84.603,161.877 106.026,161.862C110.053,161.859 109.52,162.316 109.545,158.357C109.575,153.596 109.411,148.829 109.61,144.076C109.713,141.6 109.14,140.802 106.486,140.829C92.293,140.976 78.098,140.949 63.904,140.88C52.926,140.827 44.329,133.852 42.036,123.359C41.674,121.702 41.675,120.035 41.675,118.362C41.669,92.883 41.704,67.403 41.613,41.925C41.604,39.564 42.233,38.976 44.548,39.019C52.551,39.166 60.558,39.075 69.144,39.075C65.171,32.58 61.448,26.489 57.536,20.093C63.655,20.093 69.36,19.858 75.034,20.177C78.747,20.386 82.091,22.219 84.236,25.321C91.847,36.328 99.287,47.451 106.904,58.696C105.835,59.289 104.872,59.065 103.977,59.066C90.752,59.084 77.527,59.116 64.304,59.037C62.304,59.025 61.583,59.457 61.595,61.631C61.69,78.029 61.631,94.427 61.657,110.825C61.667,117.304 65.343,120.916 71.896,120.919C106.191,120.93 140.487,120.907 174.782,120.966C176.81,120.969 177.478,120.496 177.466,118.357C177.376,101.958 177.433,85.56 177.408,69.162C177.397,62.655 173.754,59.111 167.185,59.076C164.277,59.061 161.37,59.02 158.463,58.991C162.417,52.211 166.557,45.548 170.901,39.012" fill="#000" stroke="#00000000" stroke-width="1.0" stroke-miterlimit=""/>
		<path d="M170.901,39.012C166.557,45.548 162.417,52.211 158.463,58.991C151.399,70.26 144.33,81.525 137.275,92.799C133.49,98.848 129.739,104.919 125.954,110.97C122.456,116.562 116.895,116.493 113.424,110.85C104.836,96.894 96.233,82.947 87.653,68.986C87.168,68.197 86.432,67.503 86.4,66.163C91.446,66.163 96.438,66.141 101.429,66.171C104.86,66.191 108.733,65.314 111.6,66.616C114.491,67.931 115.612,71.987 117.651,74.739C118.321,75.643 118.716,76.777 119.879,77.478C126.564,67.836 133.236,58.212 139.908,48.587C144.878,41.417 149.885,34.273 154.801,27.067C158.037,22.322 162.396,19.91 168.175,20.003C172.809,20.076 177.444,20.017 182.493,20.017C178.477,26.598 174.689,32.805 170.901,39.012" fill="#ff5a5a5a" stroke="#00000000" stroke-width="1.0" stroke-miterlimit=""/>
	</svg>
