<svg width="192" height="192" viewBox="0 0 192 192" fill="none" xmlns="http://www.w3.org/2000/svg"><path d="M170 64a20.002 20.002 0 0 0-20-20m-68.142 66.142a19.999 19.999 0 0 0 28.284 0M22 128a20.005 20.005 0 0 0 12.346 18.478A20.002 20.002 0 0 0 42 148M150 44H28a6 6 0 0 0-6 6v78" stroke="#000" stroke-width="12" stroke-linecap="round" stroke-linejoin="round"/><path d="M170 64v78a6 6 0 0 1-6 6H42m5.22-72.5 34.64 34.64m62.92-34.64-34.64 34.64" stroke="#000" stroke-width="12" stroke-linecap="round" stroke-linejoin="round"/></svg>