<svg width="192" height="192" viewBox="0 0 192 192" fill="none" xmlns="http://www.w3.org/2000/svg"><path d="M46 48v65m50-40v40m50-40v40M22 28a6 6 0 0 1 6-6h110c17.673 0 32 14.327 32 32v116L26.508 133.157A6 6 0 0 1 22 127.346V28Z" stroke="#000" stroke-width="12" stroke-linecap="round" stroke-linejoin="round"/><path d="M96 73a25 25 0 1 0-50 0" stroke="#000" stroke-width="12" stroke-linecap="round" stroke-linejoin="round"/><path d="M146 73a25.007 25.007 0 0 0-7.322-17.678A25.01 25.01 0 0 0 121 48a24.999 24.999 0 0 0-25 25" stroke="#000" stroke-width="12" stroke-linecap="round" stroke-linejoin="round"/></svg>