<svg width="192" height="192" viewBox="0 0 192 192" fill="none" xmlns="http://www.w3.org/2000/svg">
<path d="M96 118V124M96 118L94 116H98L96 118ZM96 124L90 129M96 124L102 129M51.3476 66.1642C47.2536 62.0702 47.2502 55.4416 51.3442 51.3476C55.4382 47.2536 62.0702 47.2536 66.1642 51.3476M51.3476 66.1642C55.2677 60.309 60.3089 55.2677 66.1642 51.3476M51.3476 66.1642C47.4899 71.9262 44.718 78.4764 43.3243 85.5222M51.3476 66.1642L31.9701 53.2166M66.1642 51.3476C71.9261 47.4899 78.4764 44.718 85.5221 43.3243M66.1642 51.3476L53.2166 31.9701M171.535 111.025C172.496 106.165 173 101.142 173 96C173 90.8585 172.496 85.8346 171.535 80.9752M171.535 111.025C169.537 121.128 165.562 130.521 160.03 138.783M171.535 111.025L148.676 106.478M160.03 138.783C148.877 155.442 131.395 167.506 111.025 171.535M160.03 138.783L140.652 125.836M111.025 171.535C106.165 172.496 101.142 173 96 173C90.8585 173 85.8346 172.496 80.9752 171.535M111.025 171.535L106.478 148.676M80.9752 171.535C70.8718 169.537 61.479 165.562 53.2166 160.03M80.9752 171.535L85.5222 148.676M53.2166 160.03C44.8204 154.409 37.5914 147.18 31.9701 138.783M53.2166 160.03L66.1642 140.652M31.9701 138.783C26.4384 130.521 22.4635 121.128 20.4651 111.025M31.9701 138.783L51.3476 125.836M20.4651 111.025C19.5039 106.165 19 101.142 19 96C19 90.8585 19.5039 85.8346 20.4651 80.9752M20.4651 111.025L43.3243 106.478M20.4651 80.9752C22.4635 70.8718 26.4384 61.479 31.9701 53.2166M20.4651 80.9752L43.3243 85.5222M31.9701 53.2166C37.5914 44.8204 44.8204 37.5914 53.2166 31.9701M53.2166 31.9701C61.479 26.4384 70.8718 22.4635 80.9752 20.4651M80.9752 20.4651C85.8346 19.5039 90.8585 19 96 19C101.142 19 106.165 19.5039 111.025 20.4651M80.9752 20.4651L85.5221 43.3243M111.025 20.4651C121.128 22.4635 130.521 26.4384 138.783 31.9701M111.025 20.4651L106.478 43.3243M138.783 31.9701C147.18 37.5914 154.409 44.8204 160.03 53.2166M138.783 31.9701L125.836 51.3476M160.03 53.2166C165.562 61.479 169.537 70.8718 171.535 80.9752M160.03 53.2166L140.652 66.1642M171.535 80.9752L148.676 85.5222M42.3026 96C42.3026 92.4145 42.6541 88.911 43.3243 85.5222M42.3026 96C42.3026 99.5855 42.6541 103.089 43.3243 106.478M42.3026 96C42.3026 96 42.3026 92 70 92C90 92 90 96 90 96M85.5221 43.3243C88.911 42.6541 92.4144 42.3026 96 42.3026C99.5855 42.3026 103.089 42.6541 106.478 43.3243M106.478 43.3243C113.524 44.718 120.074 47.4899 125.836 51.3476M125.836 51.3476C131.691 55.2677 136.732 60.309 140.652 66.1642M125.836 51.3476C129.93 47.2536 136.562 47.2536 140.656 51.3476C144.75 55.4416 144.746 62.0702 140.652 66.1642M140.652 66.1642C144.51 71.9262 147.282 78.4764 148.676 85.5222M148.676 85.5222C149.346 88.911 149.697 92.4145 149.697 96M149.697 96C149.697 99.5855 149.346 103.089 148.676 106.478M149.697 96C146.682 94.6667 149.697 92 122 92C102 92 102 96 102 96M148.676 106.478C147.282 113.524 144.51 120.074 140.652 125.836M148.676 106.478C148.676 106.478 144.108 123 125.836 123C107.564 123 102.332 105 102 96M140.652 125.836C136.732 131.691 131.691 136.732 125.836 140.652M125.836 140.652C120.074 144.51 113.524 147.282 106.478 148.676M125.836 140.652L138.783 160.03M106.478 148.676C103.089 149.346 99.5855 149.697 96 149.697C92.4144 149.697 88.911 149.346 85.5222 148.676M85.5222 148.676C78.4764 147.282 71.9262 144.51 66.1642 140.652M66.1642 140.652C60.309 136.732 55.2677 131.691 51.3476 125.836M51.3476 125.836C47.4899 120.074 44.718 113.524 43.3243 106.478M43.3243 106.478C43.3243 106.478 47.8923 123 66.1642 123C84.4361 123 89.668 105 90 96M144 140L140 144M90 96H102" stroke="#000" stroke-width="6" stroke-linecap="round" stroke-linejoin="round"/>
</svg>
