<svg width="192" height="192" viewBox="0 0 192 192" fill="none" xmlns="http://www.w3.org/2000/svg">
<path d="M96 117.5V126M96 117.5L92 114.5H100L96 117.5ZM96 126L90 131M96 126L102 131" stroke="#000" stroke-width="10" stroke-linecap="round" stroke-linejoin="round"/>
<path d="M122 117C124.209 117 126 115.209 126 113C126 110.791 124.209 109 122 109C119.791 109 118 110.791 118 113C118 115.209 119.791 117 122 117Z" stroke="#000" stroke-width="8" stroke-linecap="round" stroke-linejoin="round"/>
<path d="M70 117C72.2091 117 74 115.209 74 113C74 110.791 72.2091 109 70 109C67.7909 109 66 110.791 66 113C66 115.209 67.7909 117 70 117Z" stroke="#000" stroke-width="8" stroke-linecap="round" stroke-linejoin="round"/>
<path d="M96 170C136.869 170 170 136.869 170 96C170 55.1309 136.869 22 96 22C55.1309 22 22 55.1309 22 96C22 136.869 55.1309 170 96 170Z" stroke="#000" stroke-width="12" stroke-linejoin="round"/>
</svg>
