<svg xmlns="http://www.w3.org/2000/svg" width="192" height="192" fill="none"><path stroke="#000" stroke-linecap="round" stroke-linejoin="round" stroke-width="8" d="M46 96c0-3.339.327-6.6.951-9.756M46 96c0 3.339.327 6.601.951 9.756a49.7 49.7 0 0 0 7.471 18.025 50.3 50.3 0 0 0 13.797 13.797 49.7 49.7 0 0 0 18.025 7.471c3.155.624 6.417.951 9.756.951s6.601-.327 9.756-.951a49.7 49.7 0 0 0 18.025-7.471 50.3 50.3 0 0 0 13.797-13.797 49.7 49.7 0 0 0 7.471-18.025c.624-3.155.951-6.417.951-9.756M46 96s2.663 16.141 22.219 16.141c17.013 0 21.885-16.76 22.194-25.141m-43.462-.756a49.7 49.7 0 0 1 7.471-18.025c-3.812-3.812-3.815-9.985-.003-13.797a9.755 9.755 0 0 1 13.8 0 49.7 49.7 0 0 1 18.025-7.47A50 50 0 0 1 96 46c3.339 0 6.601.327 9.756.951a49.7 49.7 0 0 1 18.025 7.471 9.755 9.755 0 0 1 13.8 0c3.812 3.812 3.809 9.984-.003 13.797a49.7 49.7 0 0 1 7.471 18.025m-98.098 0s-.951-2.969 24.84-2.969C90.412 83.275 90.412 87 90.412 87m54.636-.756c.624 3.155.951 6.417.951 9.756m-.951-9.756c-2.808-1.242.951-2.969-24.839-2.969-18.623 0-18.623 3.725-18.623 3.725M146 96s-2.663 16.141-22.219 16.141c-17.013 0-21.885-16.76-22.194-25.141m-11.174 0h11.174M96 122.072l-5.587 4.656M96 122.072l5.587 4.656M96 122.072V116.5m0 0v-.015L94.5 115h3zM33.271 54.086l18.984 12.685M22 81.28l22.395 4.454M22 110.72l22.395-4.455M33.27 137.914l18.984-12.684m1.831 33.499 12.685-18.984M81.28 170l4.454-22.395m20.53 0L110.719 170m14.51-30.255 12.685 18.984m1.831-33.5 18.984 12.685m-11.124-31.649L170 110.72m-22.395-24.985L170 81.281m-30.255-14.51 18.984-12.685m-33.5-1.831 12.685-18.984m-31.649 11.124L110.72 22m-29.44 0 4.455 22.395M54.086 33.27l12.685 18.984M172 96c0 5.075-.497 10.033-1.446 14.83a75.6 75.6 0 0 1-11.356 27.398 76.4 76.4 0 0 1-20.97 20.97 75.6 75.6 0 0 1-27.398 11.356A76.4 76.4 0 0 1 96 172a76.4 76.4 0 0 1-14.83-1.446 75.6 75.6 0 0 1-27.398-11.356 76.4 76.4 0 0 1-20.97-20.97 75.6 75.6 0 0 1-11.356-27.398A76.4 76.4 0 0 1 20 96a76.4 76.4 0 0 1 1.446-14.83 75.6 75.6 0 0 1 11.356-27.398 76.4 76.4 0 0 1 20.97-20.97A75.6 75.6 0 0 1 81.17 21.446 76.4 76.4 0 0 1 96 20c5.075 0 10.033.497 14.83 1.446a75.6 75.6 0 0 1 27.398 11.356 76.4 76.4 0 0 1 20.97 20.97 75.6 75.6 0 0 1 11.356 27.398A76.4 76.4 0 0 1 172 96"/></svg>