<svg width="192" height="192" viewBox="0 0 192 192" fill="none" xmlns="http://www.w3.org/2000/svg"><path d="M78 85H50V45h28M50 65h22" stroke="#000" stroke-width="10" stroke-linecap="round" stroke-linejoin="round"/><path d="M86 130H28a6 6 0 0 1-6-6V28a6 6 0 0 1 6-6h72a6 6 0 0 1 6 6v64" stroke="#000" stroke-width="12" stroke-linecap="round" stroke-linejoin="round"/><path d="M166.803 111.927A41.995 41.995 0 0 1 170 128v36a6 6 0 0 1-6 6H92a6 6 0 0 1-6-6v-36a42 42 0 0 1 80.803-16.073Z" stroke="#000" stroke-width="12" stroke-linecap="round" stroke-linejoin="round"/><path d="M98.302 98.302c24.022-20.248 39.347 3.293 39.347 16.076 0 27.06-29.487 46.811-47.649 53.622" stroke="#000" stroke-width="12" stroke-linecap="round" stroke-linejoin="round"/></svg>