<svg xmlns="http://www.w3.org/2000/svg" width="192" height="192" fill="none"><path stroke="#000" stroke-linecap="round" stroke-linejoin="round" stroke-width="14" d="M126.581 33C96 33 96 69.417 59.5 69.417a36.54 36.54 0 0 0-25.81 10.667A36.38 36.38 0 0 0 23 105.835a52.1 52.1 0 0 0 3.98 19.962 52.2 52.2 0 0 0 11.334 16.924 52.3 52.3 0 0 0 16.962 11.308A52.4 52.4 0 0 0 75.284 158c12.307 0 24.493-2.088 35.863-6.144s21.702-10.001 30.404-17.495c8.703-7.495 15.606-16.392 20.315-26.184S169 87.89 169 77.291c0-11.746-4.469-23.012-12.424-31.318S137.831 33 126.581 33"/></svg>