<?xml version="1.0" standalone="no"?>
<!DOCTYPE svg PUBLIC "-//W3C//DTD SVG 20010904//EN"
 "http://www.w3.org/TR/2001/REC-SVG-20010904/DTD/svg10.dtd">
<svg version="1.0" xmlns="http://www.w3.org/2000/svg"
 width="128.000000pt" height="128.000000pt" viewBox="0 0 128.000000 128.000000"
 preserveAspectRatio="xMidYMid meet">

<g transform="translate(0.000000,128.000000) scale(0.100000,-0.100000)"
fill="#000000" stroke="none">
<path d="M182 925 c-35 -18 -63 -42 -80 -68 l-27 -40 -3 -298 c-3 -279 -2
-301 17 -336 22 -44 53 -74 98 -97 28 -14 85 -16 453 -16 394 0 423 1 458 19
43 22 73 53 96 98 13 26 16 66 16 215 0 207 -7 230 -83 292 l-39 31 -193 5
c-224 6 -224 6 -284 105 -55 91 -94 108 -251 113 -119 3 -127 2 -178 -23z
m304 -71 c22 -10 45 -34 61 -63 14 -25 38 -59 52 -74 51 -56 70 -60 279 -66
l194 -6 29 -33 29 -32 0 -181 0 -181 -34 -34 -34 -34 -422 0 -422 0 -34 34
-34 34 0 285 0 285 27 32 c36 44 53 49 171 49 76 1 113 -3 138 -15z"/>
<path d="M292 508 c-6 -6 -12 -20 -12 -29 0 -34 24 -40 150 -37 104 3 125 6
134 21 8 12 8 22 0 35 -9 14 -30 17 -135 20 -88 2 -128 -1 -137 -10z"/>
<path d="M292 348 c-6 -6 -12 -20 -12 -29 0 -32 25 -40 125 -37 80 2 100 6
109 21 8 12 8 22 0 35 -9 14 -29 18 -110 20 -69 2 -103 -1 -112 -10z"/>
</g>
</svg>
