<svg id="Layer_1" data-name="Layer 1" xmlns="http://www.w3.org/2000/svg" viewBox="0 0 24 24">
  <path d="M12,2.19705A6.96587,6.96587,0,0,0,5.03443,9.16313c0,2.21277.57546,3.82256,2.78773,6.51971a21.83629,21.83629,0,0,1,2.68614,3.784c.80215,1.6263.70758,2.73017,1.4917,2.73017s.68955-1.10387,1.4917-2.73017a21.83629,21.83629,0,0,1,2.68614-3.784c2.21227-2.69715,2.78773-4.30694,2.78773-6.51971A6.96587,6.96587,0,0,0,12,2.19705Zm0,9.6117a2.65187,2.65187,0,1,1,2.65212-2.65212A2.65219,2.65219,0,0,1,12,11.80875Z"/>
</svg>
