<svg width="192" height="192" viewBox="0 0 192 192" fill="none" xmlns="http://www.w3.org/2000/svg"><path clip-rule="evenodd" d="M142.47 37.908s18.56 8.322 22.475 17.673c3.847 9.191-4.096 51.525-4.004 77.33.354 9.235-3.323 27.254-11.18 23.03-2.549-1.368-6.271-9.072-9.229-17.796-4.797-14.141-.831-49.037-4.817-49.78-6.227 7.397-22.912 20.546-29.252 24.607-10.843 6.944-14.31-2.645-16.225-8.883-2.34-7.624-11.346-24.566-13.15-25.954-.653 2.21-5.847 27.077-9.566 39.916-3.993 13.784-13.467 36.506-17.876 41.857-4.409 5.353-22.714 9.92-26.393 10.084-2.393.562 12.886-30.466 16.507-43.576 5.15-13.478 13.015-44.562 14.016-65.386.84-13.717-.378-26.528-.548-30.245.002-4.969 5.113-7.693 7.986-8.276 3.297-.669 10.514-1.98 17.892 6.164 4.349 4.8 11.06 20.755 12.909 24.71 2.315 4.947 12.044 27.278 13.507 32.516 4.882-3.477 12.075-10.433 19.385-18.316 7.85-8.463 16.594-22.65 17.563-29.675Z" stroke="#000" stroke-width="12" stroke-linecap="round" stroke-linejoin="round"/></svg>