<?xml version="1.0" encoding="UTF-8"?>
<svg id="final" xmlns="http://www.w3.org/2000/svg" width="192" height="192" viewBox="0 0 192 192">
  <path d="M43.21,133.48V58c0-.55.45-1,1-1h16.45c.42,0,.8.27.94.67l18.37,51.87c.31.88,1.56.89,1.88,0l18.77-51.88c.14-.4.52-.66.94-.66h16.46c.55,0,1,.45,1,1v75.48c0,.55-.45,1-1,1h-10.89c-.55,0-1-.45-1-1v-50.64c0-1.11-1.55-1.39-1.94-.35l-19.14,51.34c-.15.39-.52.65-.94.65h-6.52c-.42,0-.79-.26-.94-.65l-18.98-51.26c-.39-1.05-1.94-.77-1.94.35l.12,50.56c0,.55-.45,1-1,1h-10.67c-.55,0-1-.45-1-1Z" fill="none" stroke="#231f20" stroke-miterlimit="10" stroke-width="6"/>
  <rect x="134.23" y="86.95" width="16" height="16" rx="1" ry="1" fill="none" stroke="#231f20" stroke-miterlimit="10" stroke-width="6"/>
  <rect x="134.01" y="118.08" width="16" height="16" rx="1" ry="1" fill="none" stroke="#231f20" stroke-miterlimit="10" stroke-width="6"/>
</svg>