<?xml version="1.0" encoding="UTF-8"?>
<svg id="final" xmlns="http://www.w3.org/2000/svg" width="192" height="192" viewBox="0 0 192 192">
  <path d="M25.7,145.58V46.42c0-.73.59-1.31,1.31-1.31h21.61c.56,0,1.05.35,1.24.88l24.14,68.14c.41,1.16,2.05,1.17,2.47,0l24.66-68.16c.19-.52.68-.87,1.24-.87h21.62c.73,0,1.31.59,1.31,1.31v99.16c0,.73-.59,1.31-1.31,1.31h-14.31c-.73,0-1.31-.59-1.31-1.31v-66.52c0-1.46-2.03-1.83-2.54-.46l-25.14,67.44c-.19.51-.68.85-1.23.85h-8.56c-.55,0-1.04-.34-1.23-.86l-24.94-67.34c-.51-1.38-2.55-1.01-2.55.46l.16,66.42c0,.73-.59,1.32-1.31,1.32h-14.01c-.73,0-1.31-.59-1.31-1.31Z" fill="none" stroke="#231f20" stroke-miterlimit="10" stroke-width="6"/>
  <rect x="145.28" y="84.44" width="21.02" height="21.02" rx="1.31" ry="1.31" fill="none" stroke="#231f20" stroke-miterlimit="10" stroke-width="6"/>
  <rect x="145" y="125.34" width="21.02" height="21.02" rx="1.31" ry="1.31" fill="none" stroke="#231f20" stroke-miterlimit="10" stroke-width="6"/>
</svg>