<svg xmlns="http://www.w3.org/2000/svg" width="192" height="192" fill="none"><path stroke="#000" stroke-linecap="round" stroke-linejoin="round" stroke-width="10" d="M96 112v23m-52 0h7m0 0 18-11m-18 11 13.402 8.78c.73.479 1.421 1.017 2.064 1.609l6.942 6.386A16 16 0 0 0 84.24 156H109m-26-22v22m26 0v-22m0 22c3.215 0 6.313-1.208 8.68-3.385l7.854-7.226a16 16 0 0 1 2.064-1.609L141 135m7 0h-7m0 0-18-11M80.005 36a12 12 0 0 0-11.522 8.646l-12.013 56c-1.998 6.865 2.394 15.327 9.063 17.042 1.54.397 3.091.944 4.216 2.068l11.565 11.56A16 16 0 0 0 92.625 136h6.75c4.242 0 8.31-1.685 11.311-4.684l11.565-11.56c1.125-1.124 2.676-1.671 4.216-2.068 6.669-1.715 11.062-10.177 9.063-17.042l-12.013-56A12 12 0 0 0 111.995 36z"/><path stroke="#000" stroke-linecap="round" stroke-linejoin="round" stroke-width="10" d="m81 74 8-16 7 9 7-9 8 16"/><path stroke="#000" stroke-linecap="round" stroke-linejoin="round" stroke-width="12" d="M22 127a6 6 0 0 1 6-6h10a6 6 0 0 1 6 6v16a6 6 0 0 1-6 6H28a6 6 0 0 1-6-6zm40-58H42a6 6 0 0 0-6 6v18a6 6 0 0 0 6 6h11m117 28a6 6 0 0 0-6-6h-10a6 6 0 0 0-6 6v16a6 6 0 0 0 6 6h10a6 6 0 0 0 6-6zm-40-58h20a6 6 0 0 1 6 6v18a6 6 0 0 1-6 6h-11"/><ellipse cx="96" cy="102" stroke="#000" stroke-linecap="round" stroke-linejoin="round" stroke-width="10" rx="14" ry="10"/></svg>