<svg width="192" height="192" viewBox="0 0 192 192" fill="none" xmlns="http://www.w3.org/2000/svg"><path d="M22.315 80.897a6.025 6.025 0 0 1 2.14-6.776l67.993-49.956a5.998 5.998 0 0 1 7.104 0l67.993 49.956a6.025 6.025 0 0 1 2.14 6.776l-27.254 81.007a6.007 6.007 0 0 1-5.692 4.096H55.261a6.008 6.008 0 0 1-5.692-4.096L22.315 80.897Z" stroke="#000" stroke-width="12" stroke-linecap="round" stroke-linejoin="round"/><path d="M102 141a6 6 0 0 1-6-6V66.808c0-4.909 5.573-7.74 9.537-4.846l31.904 23.288a6 6 0 0 1 2.146 6.77l-15.207 44.905a6 6 0 0 1-5.683 4.075H102Z" stroke="#000" stroke-width="12" stroke-linecap="round" stroke-linejoin="round"/></svg>