<svg xmlns="http://www.w3.org/2000/svg" width="192" height="192" fill="none" stroke-linejoin="round" stroke-width="12" viewBox="0 0 192 192"><path stroke="#000" d="M120 164s-12 6-24 6-24-6-24-6l7.858-8.98c3.796-4.339 4.96-10.378 3.181-15.861a444 444 0 0 1-4.222-13.72C75.54 114.081 84.179 104 96 104s20.46 10.081 17.183 21.439a445 445 0 0 1-4.222 13.72c-1.78 5.483-.615 11.522 3.181 15.861z"/><path fill="#000" d="M100.599 92.18c1.967 2.077 5.312 3.169 6.437.54.621-1.45.964-3.044.964-4.72 0-6.627-5.373-12-12-12s-12 5.373-12 12c0 1.675.343 3.27.964 4.72 1.126 2.629 4.47 1.537 6.437-.54C92.7 90.807 94.288 90 96 90s3.298.807 4.599 2.18"/><path stroke="#000" d="M96 22c-40.87 0-74 33.13-74 74s32 60 60 48c0 0-26-4.8-26-40 0-31.2 24-48.5 52-48.5 32.688 0 51.91 30.094 55.17 61.084.226 2.149 3.145 2.644 3.761.573A74 74 0 0 0 96 22z"/></svg>