<svg xmlns="http://www.w3.org/2000/svg" width="192" height="192" fill="none" viewBox="0 0 192 192"><path stroke="#000" stroke-linecap="round" stroke-linejoin="round" stroke-width="12" d="M162 156V36a6 6 0 0 0-6-6H36a6 6 0 0 0-6 6v120a6 6 0 0 0 6 6h120a6 6 0 0 0 6-6Z"/><path stroke="#000" stroke-linecap="round" stroke-linejoin="round" stroke-width="12" d="M112 30v44L96 64 80 74V30h32Z"/><path stroke="#000" stroke-linecap="round" stroke-linejoin="round" stroke-width="12" d="M112 30v44L96 64 80 74V30h32Zm0 68L96 88 80 98m32 24-16-10-16 10"/></svg>