<svg xmlns="http://www.w3.org/2000/svg" width="192" height="192" fill="none"><path stroke="#000" stroke-linecap="round" stroke-linejoin="round" stroke-width="12" d="m134.67 107.239 33.497-34.483c2.328-2.396 2.328-6.256 0-8.653l-10.011-10.305c-2.329-2.397-6.078-2.397-8.406 0L116.253 88.28 106 117.794zM22 149a6 6 0 0 1 6-6h136a6 6 0 0 1 6 6v2c0 8.837-7.163 16-16 16H38c-8.837 0-16-7.163-16-16z"/><path stroke="#000" stroke-linecap="round" stroke-linejoin="round" stroke-width="12" d="M160 143V82M32 143V69a6 6 0 0 1 6-6h18m80 80v-37m-80 37V31a6 6 0 0 1 6-6h74v41M77 47h38M77 68h28M77 89h15m44-64h12"/></svg>