<svg width="192" height="192" viewBox="0 0 192 192" fill="none" xmlns="http://www.w3.org/2000/svg">
<path d="M96 60C106.493 60 115 51.4934 115 41C115 30.5066 106.493 22 96 22C85.5066 22 77 30.5066 77 41C77 51.4934 85.5066 60 96 60Z" stroke="black" stroke-width="12"/>
<path d="M50 127C53.0639 127 55.9583 125.595 57.8545 123.188L75 101.427V147.631C67.3002 147.361 59.6002 146.946 51.9004 146.38C50.2671 146.26 48.6333 146.133 47 146C43.8175 145.739 40.7651 146.975 38.5146 149.249C36.2644 151.525 35.0001 154.684 35 158C35 161.316 36.2644 164.475 38.5146 166.751C40.7617 169.021 44 170 46.9854 170H145C148 170 151.235 169.025 153.485 166.751C155.736 164.475 157 161.316 157 158C157 154.684 155.736 151.525 153.485 149.249C151.235 146.975 148.183 145.739 145 146C143.367 146.133 141.733 146.26 140.1 146.38C132.4 146.946 124.7 147.361 117 147.631V101.427L134.145 123.188C136.042 125.595 138.936 127 142 127H160C165.523 127 170 122.523 170 117C170 111.477 165.523 107 160 107H146.852L123.854 77.8115C121.881 75.3069 118.951 73.9997 115.992 74L115.994 74C115.994 74 105 79.9999 95.9962 79.9999C86.9923 79.9999 75.9981 73.9998 75.9981 73.9998L76 73.9998C73.0437 74.0017 70.1172 75.3088 68.1455 77.8112L45.1484 107H32C26.4772 107 22.0001 111.477 22 117C22 122.523 26.4772 127 32 127H50Z" stroke="black" stroke-width="12" stroke-linecap="round" stroke-linejoin="round"/>
</svg>
