<?xml version="1.0" encoding="UTF-8" standalone="no"?>
<svg
   width="192"
   height="192"
   viewBox="0 0 192 192"
   fill="none"
   version="1.1"
   id="svg4"
   xml:space="preserve"
   xmlns="http://www.w3.org/2000/svg"
   xmlns:svg="http://www.w3.org/2000/svg"><defs
     id="defs4"><linearGradient
       id="swatch5"><stop
         style="stop-color:#ff9900;stop-opacity:1;"
         offset="0"
         id="stop5" /></linearGradient><linearGradient
       id="swatch4"><stop
         style="stop-color:#3b8aff;stop-opacity:1;"
         offset="0"
         id="stop4" /></linearGradient></defs><g
     id="layer2"
     style="display:inline;stroke-width:0.985445"
     transform="matrix(1.0146573,0,0,1.0148844,-0.30835392,-3.0072742)"><path
       style="fill:none;stroke:#000000;stroke-width:9.85443;stroke-linecap:round;stroke-linejoin:round;stroke-dasharray:none"
       d="M 20.999714,143.33349 H 38.919835 168.83451 c -3.47239,8.55657 -5.74687,18.15948 -16.86302,20.03952 H 37.862737 C 21.382548,156.13152 23.837773,149.59276 20.999714,143.33349 Z"
       id="path1" /><path
       id="rect3"
       style="stroke:#000000;stroke-width:9.85443;stroke-linecap:round;stroke-linejoin:round"
       d="m 152.65696,115.77966 v 20.02319 c 0,3.33082 -2.6862,7.53064 -6.02289,7.53064 H 42.13296 c -3.336687,0 -6.022899,-4.19982 -6.022899,-7.53064 V 68.774695 c 0,-3.330814 2.686212,-6.012299 6.022899,-6.012299 h 5.944613" /><g
       style="display:inline;fill:none;stroke:#000000;stroke-width:12.7376;stroke-linecap:round;stroke-linejoin:round"
       id="g9"
       transform="matrix(0.92979184,0,0,0.92697503,208.75009,-0.5219549)"><path
         d="M -150.01706,62.785383 V 35.853288 l 20.61082,19.58706 20.61082,-19.58706 v 26.932095"
         id="path2-2"
         style="stroke-width:12.7376" /><path
         style="fill:none;stroke:#000000;stroke-width:10.6146;stroke-linecap:round;stroke-linejoin:round;stroke-dasharray:none"
         d="m -163.24486,112.17057 h 20.13784"
         id="path10" /><path
         style="fill:none;stroke:#000000;stroke-width:10.6146;stroke-linecap:round;stroke-linejoin:round;stroke-dasharray:none"
         d="m -164.34548,90.352978 h 30.89293"
         id="path9" /></g><g
       id="g5"
       style="display:inline;stroke-width:9.0068;stroke-dasharray:none"
       transform="matrix(1.0940851,-8.2832654e-4,-8.2851507e-4,1.0941324,-224.49106,-12.322645)"><path
         style="fill:none;stroke:#000000;stroke-width:9.0068;stroke-linecap:round;stroke-linejoin:round;stroke-dasharray:none"
         d="m 338,82 c 0.85279,3.411169 12.719,28.69242 12.719,28.69242 L 363.437,82 V 32.903544 A 6.4665437,6.4665437 45 0 0 356.97046,26.437 l -12.50396,0 A 6.4665,6.4665 135 0 0 338,32.9035 Z"
         id="path4"
         transform="matrix(0.64394765,0.76584079,-0.7662499,0.64162757,144.69973,-217.00383)" /><path
         style="fill:none;stroke:#000000;stroke-width:9.0068;stroke-linecap:round;stroke-linejoin:round;stroke-dasharray:none"
         d="m 328.84783,69.808397 16.3801,19.480692"
         id="path5" /><path
         style="fill:none;stroke:#000000;stroke-width:9.0068;stroke-linecap:round;stroke-linejoin:round;stroke-dasharray:none"
         d="m 303.67385,90.986842 16.3801,19.480688"
         id="path6" /></g></g></svg>
