<?xml version="1.0" encoding="UTF-8" standalone="no"?>
<svg
   width="192"
   height="192"
   viewBox="0 0 192 192"
   fill="none"
   version="1.1"
   id="svg4"
   sodipodi:docname="Lawnicons.svg"
   inkscape:version="1.4.2 (f4327f4, 2025-05-13)"
   inkscape:export-filename="Lawnicons_template.png"
   inkscape:export-xdpi="96"
   inkscape:export-ydpi="96"
   xml:space="preserve"
   xmlns:inkscape="http://www.inkscape.org/namespaces/inkscape"
   xmlns:sodipodi="http://sodipodi.sourceforge.net/DTD/sodipodi-0.dtd"
   xmlns="http://www.w3.org/2000/svg"
   xmlns:svg="http://www.w3.org/2000/svg"><defs
     id="defs4"><linearGradient
       id="swatch5"
       inkscape:swatch="solid"
       inkscape:label="Lawn Gold"><stop
         style="stop-color:#ff9900;stop-opacity:1;"
         offset="0"
         id="stop5" /></linearGradient><linearGradient
       id="swatch4"
       inkscape:swatch="solid"
       inkscape:label="Lawn Blue"><stop
         style="stop-color:#3b8aff;stop-opacity:1;"
         offset="0"
         id="stop4" /></linearGradient></defs><sodipodi:namedview
     id="namedview4"
     pagecolor="#ffffff"
     bordercolor="#999999"
     borderopacity="1"
     inkscape:showpageshadow="2"
     inkscape:pageopacity="0"
     inkscape:pagecheckerboard="0"
     inkscape:deskcolor="#d1d1d1"
     inkscape:zoom="4.1458333"
     inkscape:cx="95.879398"
     inkscape:cy="95.758795"
     inkscape:window-width="1920"
     inkscape:window-height="1009"
     inkscape:window-x="-8"
     inkscape:window-y="-8"
     inkscape:window-maximized="1"
     inkscape:current-layer="layer2"><inkscape:page
       x="0"
       y="0"
       width="192"
       height="192"
       id="page1"
       margin="0"
       bleed="0" /></sodipodi:namedview><inkscape:templateinfo><inkscape:name>Lawnicon</inkscape:name><inkscape:date>2025-12-24</inkscape:date></inkscape:templateinfo><inkscape:templateinfo><inkscape:name>Lawnicons</inkscape:name><inkscape:date>2025-12-24</inkscape:date></inkscape:templateinfo><inkscape:templateinfo><inkscape:name>Lawnicon</inkscape:name><inkscape:shortdesc>用于设计 LawnchairLauncher/lawnicons 的模板</inkscape:shortdesc><inkscape:date>2025-12-24</inkscape:date></inkscape:templateinfo><g
     id="g9"
     inkscape:label="icon"
     transform="matrix(1.13631,0,0,1.1374159,-13.085764,-10.165328)"
     style="stroke-width:0.879613"><path
       id="rect3"
       style="stroke:#000000;stroke-width:10.5554;stroke-linecap:round;stroke-linejoin:round"
       d="m 147.17588,91.865275 v 56.707585 m -103.035175,0 V 73.778893 c 0,-3.324 2.676,-6 6,-6 h 7.630073"
       sodipodi:nodetypes="cccssc" /><path
       id="rect4"
       style="stroke:#000000;stroke-width:10.5554;stroke-linecap:round;stroke-linejoin:round"
       d="m 161.12563,148.61308 c 0,3.324 -2.75247,6 -6.17142,6 H 37.045801 c -3.418971,0 -6.171429,-2.676 -6.171429,-6"
       sodipodi:nodetypes="cssc" /><g
       style="fill:none;stroke-width:0.879613"
       id="g4"
       transform="translate(-98,-52)"><g
         id="layer2-4"
         inkscape:label="icon"
         inkscape:highlight-color="#6667ab"
         style="display:inline;stroke-width:0.87805"
         transform="matrix(1.0017319,0,0,1.0018305,-0.03694455,-0.87456975)"><g
           id="g5"
           style="display:inline;stroke-width:9.28143;stroke-dasharray:none"
           transform="matrix(1.1348235,-8.5976887e-4,-8.5936497e-4,1.1356644,-140.60811,32.127757)" /></g></g><path
       id="rect5"
       style="stroke:#000000;stroke-width:10.5553;stroke-linecap:round;stroke-linejoin:round"
       d="m 128.52678,107.22854 29.479,-30.316497 c 2.04916,-2.107359 2.04916,-5.500438 0,-7.607797 l -8.81023,-9.060543 c -2.04915,-2.10736 -5.3485,-2.10736 -7.39765,0 l -29.479,30.316497 -9.02266,25.94802 z"
       sodipodi:nodetypes="cssssccc" /><path
       id="rect6"
       style="stroke:#000000;stroke-width:10.5553;stroke-linecap:round;stroke-linejoin:round"
       d="m 129.23609,106.76957 v 22.21168 c 0,3.37997 -2.16292,6.10102 -4.84961,6.10102 H 69.292892 c -2.686686,0 -4.849614,-2.72105 -4.849614,-6.10102 V 38.165994 c 0,-3.379961 2.162928,-6.101011 4.849614,-6.101011 h 64.590728 c 2.68668,0 4.84925,2.72105 4.84925,6.101011 m -9.49715,-5.999994 3.7e-4,39.267475"
       sodipodi:nodetypes="csssssssccc" /></g></svg>
