<svg xmlns="http://www.w3.org/2000/svg" width="192" height="192" fill="none"><path stroke="#000" stroke-linecap="round" stroke-linejoin="round" stroke-width="12" d="M47 140a15 15 0 1 0 0 30M33 96a11 11 0 1 0 0 22m0 0h22.719c1.47 0 2.888-.539 3.986-1.516L71.5 106v40M47 140c21 0 65 30 65 30m-65 0h65"/><path stroke="#000" stroke-linecap="round" stroke-linejoin="round" stroke-width="12" d="M33 96h11.443a6 6 0 0 0 4.328-1.845l20.458-21.31A6 6 0 0 1 73.557 71H79a6 6 0 0 0 6-6V54.249c-4.258-3.292-7-8.45-7-14.249 0-9.941 8.059-18 18-18s18 8.059 18 18c0 5.799-2.742 10.957-7 14.249V65a6 6 0 0 0 6 6h5.443a6 6 0 0 1 4.328 1.845l20.458 21.31A6 6 0 0 0 147.557 96H159a11 11 0 0 1 0 22h-22.719a6 6 0 0 1-3.986-1.516L120.5 106v40M96 159.931C110.722 151.215 132.16 140 145 140a15.001 15.001 0 1 1 0 30h-33"/></svg>