<svg width="192" height="192" fill="none" xmlns="http://www.w3.org/2000/svg"><path d="M35 28a6 6 0 0 1 6-6h110a6 6 0 0 1 6 6v126a6 6 0 0 1-6 6H41a6 6 0 0 1-6-6V28Z" stroke="#000" stroke-width="12" stroke-linecap="round" stroke-linejoin="round"/><path d="M35 44h122M35 112h122" stroke="#000" stroke-width="10" stroke-linecap="round" stroke-linejoin="round"/><path d="M111 112c0-.657-.336-1.307-.99-1.913-.653-.607-1.61-1.158-2.818-1.623-1.207-.464-2.64-.832-4.217-1.083A31.81 31.81 0 0 0 98 107c-1.707 0-3.398.129-4.975.381-1.577.251-3.01.619-4.217 1.083-1.208.465-2.165 1.016-2.818 1.623-.654.606-.99 1.256-.99 1.913" stroke="#000" stroke-width="8" stroke-linecap="round" stroke-linejoin="round"/><path d="M75 134H57m78 0h-18m-66 26v10m90-10v10" stroke="#000" stroke-width="12" stroke-linecap="round" stroke-linejoin="round"/><path d="m135 76-39 35" stroke="#000" stroke-width="10" stroke-linecap="round" stroke-linejoin="round"/></svg>