<svg xmlns="http://www.w3.org/2000/svg" width="192" height="192" fill="none"><path stroke="#000" stroke-linecap="round" stroke-linejoin="round" stroke-width="12" d="M35 28a6 6 0 0 1 6-6h110a6 6 0 0 1 6 6v126a6 6 0 0 1-6 6H41a6 6 0 0 1-6-6z"/><path stroke="#000" stroke-linecap="round" stroke-linejoin="round" stroke-width="10" d="M35 44h122M35 112h122"/><path stroke="#000" stroke-linecap="round" stroke-linejoin="round" stroke-width="8" d="M111 112c0-.657-.336-1.307-.99-1.913s-1.61-1.158-2.818-1.623c-1.207-.464-2.64-.832-4.217-1.083A32 32 0 0 0 98 107c-1.707 0-3.398.129-4.975.381-1.577.251-3.01.619-4.217 1.083-1.208.465-2.165 1.016-2.818 1.623-.654.606-.99 1.256-.99 1.913"/><path stroke="#000" stroke-linecap="round" stroke-linejoin="round" stroke-width="12" d="M75 134H57m78 0h-18m-66 26v10m90-10v10"/><path stroke="#000" stroke-linecap="round" stroke-linejoin="round" stroke-width="10" d="m135 76-39 35"/></svg>