<svg xmlns="http://www.w3.org/2000/svg" width="192" height="192" fill="none" viewBox="0 0 192 192"><path stroke="#000" stroke-linecap="round" stroke-linejoin="round" stroke-width="10" d="m66 63-5 68m51-68-9 68m38-74 9 74M23 118l-2 18m67-73-2 68m31-68 18 68m-30-68h12m16-6h8m0 0h14m-49 56 23 1M48 71l.475-8.547c.244-4.394-4.17-7.547-8.248-5.892L30.07 60.685a6 6 0 0 0-3.57 4.616l-3.312 22.864c-.596 3.932 2.73 7.345 6.677 6.852l8.99-1.124c3.72-.465 6.949 2.555 6.735 6.296l-1.36 23.805a6 6 0 0 1-4.02 5.324L21 136m134-79c11 0 13 7 16 47l-24-4M66 63l20 68"/></svg>