<?xml version="1.0" encoding="UTF-8" standalone="no"?>
<svg
   width="100%"
   height="100%"
   viewBox="0 0 192 192"
   version="1.1"
   xml:space="preserve"
   style="fill-rule:evenodd;clip-rule:evenodd;stroke-linejoin:round;stroke-miterlimit:2;"
   id="svg1513"
   sodipodi:docname="mastodon.svg"
   inkscape:version="1.2.1 (9c6d41e410, 2022-07-14)"
   xmlns:inkscape="http://www.inkscape.org/namespaces/inkscape"
   xmlns:sodipodi="http://sodipodi.sourceforge.net/DTD/sodipodi-0.dtd"
   xmlns="http://www.w3.org/2000/svg"
   xmlns:svg="http://www.w3.org/2000/svg"><defs
   id="defs1517" /><sodipodi:namedview
   id="namedview1515"
   pagecolor="#ffffff"
   bordercolor="#000000"
   borderopacity="0.25"
   inkscape:showpageshadow="2"
   inkscape:pageopacity="0.0"
   inkscape:pagecheckerboard="0"
   inkscape:deskcolor="#d1d1d1"
   showgrid="false"
   inkscape:zoom="5.3489583"
   inkscape:cx="95.906524"
   inkscape:cy="95.906524"
   inkscape:window-width="1274"
   inkscape:window-height="1303"
   inkscape:window-x="1282"
   inkscape:window-y="36"
   inkscape:window-maximized="0"
   inkscape:current-layer="svg1513" />
    <path
   d="M1560.11,349.171C1565.19,350.009 1572.08,350.907 1579.75,351.259C1589.42,351.702 1598.49,350.715 1607.7,349.616C1607.7,349.616 1607.7,349.616 1607.7,349.616C1619.17,348.246 1629.73,343.412 1636.81,337.476C1642.24,332.922 1645.65,327.629 1646.62,322.676L1646.62,322.675C1649.59,307.387 1649.43,285.505 1649.42,284.612C1649.41,250.921 1626.89,241.172 1626.55,241.026C1616.27,236.315 1598.63,234.15 1580.28,234L1578.75,234C1560.41,234 1543.79,236.312 1533.48,241.027C1533.02,241.225 1510.61,251.018 1510.61,284.651C1510.61,291.449 1510.48,299.578 1510.69,308.199C1511.06,323.363 1512.55,338.404 1517.35,350.595C1522.63,363.979 1531.73,374.125 1547.12,378.198C1560.15,381.647 1571.34,382.354 1580.35,381.858C1580.35,381.858 1580.35,381.858 1580.36,381.858C1597.4,380.913 1606.94,375.649 1606.94,375.649C1608.98,374.558 1610.2,372.396 1610.1,370.091L1609.59,358.901C1609.51,357.039 1608.56,355.323 1607.03,354.255C1605.51,353.188 1603.57,352.89 1601.79,353.451C1601.79,353.451 1591.72,356.615 1580.4,356.228C1575.97,356.076 1571.43,355.908 1567.48,354.826C1564.3,353.957 1561.62,352.328 1560.11,349.171ZM1634.84,320.386C1637.68,305.771 1637.42,284.718 1637.42,284.718C1637.42,284.696 1637.42,284.673 1637.42,284.651C1637.42,259.621 1621.64,251.978 1621.64,251.978C1621.63,251.97 1621.61,251.961 1621.59,251.953C1612.4,247.732 1596.6,246.135 1580.2,246C1580.2,246 1579.83,246 1579.83,246C1563.43,246.135 1547.64,247.732 1538.44,251.953C1538.43,251.961 1538.41,251.97 1538.39,251.978C1538.39,251.978 1522.61,259.621 1522.61,284.651C1522.61,291.363 1522.48,299.389 1522.69,307.901C1522.69,307.902 1522.69,307.903 1522.69,307.905C1523.02,321.591 1524.18,335.194 1528.52,346.197C1532.38,356.009 1538.91,363.611 1550.19,366.598C1561.76,369.66 1571.69,370.316 1579.69,369.877C1587.01,369.471 1592.63,368.147 1596.3,366.992C1591.8,367.775 1586.04,368.428 1579.99,368.221C1579.99,368.221 1579.99,368.221 1579.99,368.221C1564.78,367.7 1549.53,365.31 1547.06,346.651C1546.84,345.075 1546.73,343.392 1546.73,341.623C1546.73,339.781 1547.57,338.041 1549.02,336.904C1550.47,335.767 1552.36,335.358 1554.15,335.795C1554.15,335.795 1565.68,338.602 1580.3,339.271C1580.3,339.271 1580.3,339.271 1580.3,339.271C1589.29,339.684 1597.71,338.722 1606.28,337.701C1615.25,336.628 1623.56,332.927 1629.1,328.28C1632.08,325.777 1634.31,323.109 1634.84,320.386ZM1540.56,284.913L1540.57,285.321C1540.57,285.321 1540.56,285.177 1540.56,284.913L1540.55,284.814L1540.55,318.209C1540.55,321.52 1543.24,324.209 1546.55,324.209C1549.86,324.209 1552.55,321.52 1552.55,318.209L1552.55,284.814C1552.55,284.645 1552.54,284.476 1552.53,284.307C1552.53,284.307 1552.08,280.356 1554.81,278.011C1556.07,276.919 1558.01,276.337 1560.78,276.337C1570.16,276.337 1573.31,284.941 1574,287.298C1574,287.3 1574,305.821 1574,305.821C1574,308.782 1575.98,311.395 1580,311.395C1584.02,311.395 1586,309.099 1586,305.821L1586,287.229C1586.63,284.81 1589.58,275.892 1598.63,275.892C1607.99,275.892 1607.83,286.565 1607.83,286.565C1607.83,286.474 1607.83,318.007 1607.83,318.007C1607.83,321.318 1610.52,324.007 1613.83,324.007C1617.14,324.007 1619.83,321.318 1619.83,318.007L1619.83,286.474C1619.83,286.444 1619.83,286.414 1619.83,286.384C1619.83,286.384 1619.17,263.892 1598.63,263.892C1589.56,263.892 1583.62,268.539 1579.87,273.495C1576.04,268.739 1570,264.337 1560.78,264.337C1554.28,264.337 1549.94,266.36 1546.98,268.918C1540.66,274.354 1540.5,282.95 1540.56,284.913Z"
   id="path1507"
   style="fill-rule:evenodd;clip-rule:evenodd;stroke-linejoin:round;stroke-miterlimit:2"
   transform="translate(-1484,-212)"
   inkscape:label="mastodon" />
</svg>
