<svg width="192" height="192" viewBox="0 0 192 192" fill="none" xmlns="http://www.w3.org/2000/svg">
<path d="M76.3315 53.5743C82.4654 52.0207 89.0383 52.5931 97.5567 55.1775C100.628 56.1093 104.229 54.5626 103.684 51.3995C103.267 48.9829 102.05 45.574 99.5 40C102.167 44.2298 104.429 47.1111 106.992 49.4418C110.432 52.5696 115.429 49.3943 115.753 44.7567C116.291 37.0716 118.504 29.0197 123.864 22.7053C125.504 20.7744 128.315 20.5067 130.5 21.7833C168.808 44.169 163.802 56.4949 161.48 79.0089C161.239 81.3382 165.272 83.0057 167.588 82.706C170.839 82.2852 171.657 86.1493 170.022 89C168.193 92.1885 166.368 94.731 164.146 96.9973C162.401 98.777 161.572 101.379 162.577 103.663C164.656 108.386 166.71 110.314 170.022 112.386C170.301 112.56 170.629 112.669 170.877 112.886C171.373 113.318 170.325 113.729 168.526 114.043C164.765 114.7 161.856 118.441 164.55 121.155C165.509 122.121 166.645 122.97 167.971 123.797C170.6 125.435 172.135 128.803 169.056 129.118C165.624 129.47 160.905 131.796 161.424 135.217C162.361 141.404 162.139 147.065 161.356 154.943C161.185 156.659 160.944 157.256 159.924 155.868C158.812 154.355 157.014 151.956 154.494 148.614C152.118 145.463 147.395 145.501 144.827 148.496C131.299 164.28 118.82 167.767 96.8373 170.882C96.2863 170.96 95.7137 170.96 95.1628 170.882C73.1799 167.755 60.7013 163.786 47.1732 148.002C44.6054 145.006 39.8823 144.969 37.5061 148.12C34.9856 151.462 33.1878 153.86 32.0758 155.373C31.0556 156.762 30.8149 156.164 30.6443 154.448C29.8613 146.571 29.6385 140.909 30.5762 134.723C31.0948 131.301 26.3765 128.975 22.9442 128.624C19.8653 128.309 21.3996 124.94 24.0287 123.302C25.3555 122.476 26.4906 121.627 27.45 120.66C30.1437 117.947 27.2351 114.205 23.4739 113.549C21.6748 113.235 20.6274 112.823 21.1228 112.391C21.3707 112.175 21.6993 112.066 21.9782 111.891C25.2904 109.819 27.3436 107.891 29.4226 103.168C30.4277 100.885 29.5985 98.2824 27.8539 96.5027C25.6323 94.2365 23.8649 91.782 22.0364 88.5935C20.4017 85.7428 21.2192 81.8787 24.4707 82.2995C26.786 82.5991 30.7607 80.8437 30.5205 78.5143C28.1984 56.0004 23.4444 44.169 61.7525 21.7833C63.9372 20.5067 66.7488 20.7744 68.3881 22.7053C75.9167 31.5732 76.7388 42.8927 76.3315 53.5743ZM76.3315 53.5743C70.9962 54.9257 68.9931 57.8853 63.3306 62.5284C61.8477 63.7443 61.141 65.8649 62.8319 66.7696C65.268 68.0731 67.2407 68.915 75.4506 69.9935C66.0671 68.7765 60.2272 74.3605 59.7682 84.6721C59.5907 88.6595 63.3041 90.2094 67.0513 88.8347C79.3406 84.3263 92.5831 86.2411 103 79.3245" stroke="black" stroke-width="10" stroke-linecap="round" stroke-linejoin="round"/>
<path d="M89.5 140.973C89.8883 143.291 92.5168 144.371 95.2387 145.359C96.3859 145.775 97.6393 145.858 98.8083 145.508C101.693 144.643 104.424 143.354 105 140.973C105.203 140.135 89.3669 140.178 89.5 140.973Z" stroke="black" stroke-width="6" stroke-linecap="round" stroke-linejoin="round"/>
<path d="M78 115.5C78 120.194 76.2091 124 74 124C71.7909 124 70 120.194 70 115.5C70 110.806 71.7909 107 74 107C76.2091 107 78 110.806 78 115.5Z" stroke="black" stroke-width="8"/>
<path d="M122 115.5C122 120.194 120.209 124 118 124C115.791 124 114 120.194 114 115.5C114 110.806 115.791 107 118 107C120.209 107 122 110.806 122 115.5Z" stroke="black" stroke-width="8"/>
</svg>
