<svg width="24" height="24" fill="none" xmlns="http://www.w3.org/2000/svg">
  <path style="fill:none;stroke:#000;stroke-width:2;stroke-linecap:butt;stroke-linejoin:round;stroke-miterlimit:4;stroke-dasharray:none;stroke-opacity:1" d="M3 6v12a2 2 45 0 0 2 2h14a2 2 135 0 0 2-2V8a2 2 45 0 0-2-2h-7l-2-2H5a2 2 135 0 0-2 2Z"/>
  <path style="color:#000;fill:#000;stroke-width:2;stroke-linejoin:round" d="M2 14v-2c0-1.645 1.355-3 3-3h14c1.645 0 3 1.355 3 3v2h-2v-2c0-.564-.436-1-1-1H5c-.564 0-1 .436-1 1v2z"/>
</svg>
