<svg width="192" height="192" viewBox="0 0 192 192" fill="none" xmlns="http://www.w3.org/2000/svg">
<path fill-rule="evenodd" clip-rule="evenodd" d="M122 164C145.196 164 164 145.196 164 122C164 98.804 145.196 80 122 80C98.804 80 80 98.804 80 122C80 145.196 98.804 164 122 164ZM122 176C151.823 176 176 151.823 176 122C176 92.1766 151.823 68 122 68C92.1766 68 68 92.1766 68 122C68 151.823 92.1766 176 122 176Z" fill="black"/>
<path d="M29 29H111V60.9728C114.57 60.3336 118.246 60 122 60C122.334 60 122.667 60.0026 123 60.0079V29C123 22.3726 117.627 17 111 17H29C22.3726 17 17 22.3726 17 29V111C17 117.627 22.3726 123 29 123H60.0079C60.0026 122.667 60 122.334 60 122C60 118.246 60.3336 114.57 60.9728 111H29L29 29Z" fill="black"/>
<path d="M89.8188 111C88.6398 114.45 88 118.15 88 122C88 122.334 88.0048 122.668 88.0144 123H111C117.627 123 123 117.627 123 111V88.0144C122.668 88.0048 122.334 88 122 88C118.15 88 114.45 88.6398 111 89.8188V111H89.8188Z" fill="black"/>
</svg>
