<svg width="192" height="192" viewBox="0 0 192 192" fill="none" xmlns="http://www.w3.org/2000/svg"><path d="M87 85h48m-48 20h48m-48 20h48M57 85h8m-8 20h8m-8 20h8M40.436 30.539c1.853-2.644 5.475-2.84 7.888-.696l28.855 25.65c1.724 1.532 4.171 1.937 6.352 1.184C86.9 55.512 92.04 54 96 54c3.96 0 9.098 1.512 12.469 2.677 2.181.753 4.628.348 6.352-1.184l28.855-25.65c2.413-2.145 6.035-1.948 7.888.696C157.792 39.425 170 61.499 170 98c0 64-58 65-74 65s-74-1-74-65c0-36.502 12.208-58.575 18.436-67.461Z" stroke="#000" stroke-width="12" stroke-linecap="round" stroke-linejoin="round"/></svg>