<svg xmlns="http://www.w3.org/2000/svg" width="192" height="192" fill="none" xmlns:v="https://vecta.io/nano"><path d="M30 81.384l5.106 3.15a6 6 0 0 0 .803-4.189L30 81.384zM34 22l2.914-5.245a6 6 0 0 0-8.577 3.263L34 22zm36 29.871l-4.976 3.353a6 6 0 0 0 6.749 2.379L70 51.872zm92 29.513l-5.91-1.038a6 6 0 0 0 .804 4.189l5.106-3.15zM158 22l5.663-1.982a6 6 0 0 0-8.577-3.263L158 22zm-36 29.871l-1.773 5.732a6 6 0 0 0 6.749-2.379L122 51.872zM96 164c-38.692 0-68-25.657-68-55H16c0 38.035 36.954 67 80 67v-12zm-68-55c0-8.748 2.532-17.051 7.106-24.466l-10.213-6.301C19.237 87.402 16 97.868 16 109h12zm7.91-28.654c-.913-5.197-1.652-14.614-1.288-25.217.364-10.62 1.822-21.947 5.042-31.147l-11.326-3.964c-3.78 10.8-5.323 23.473-5.708 34.699-.386 11.244.375 21.518 1.462 27.705l11.819-2.076zm35.864-22.742C79.285 55.279 87.449 54 96 54V42c-9.747 0-19.107 1.458-27.773 4.14l3.547 11.464zM31.086 27.245c17.602 9.779 26.686 17.218 33.938 27.98l9.951-6.706c-8.748-12.981-19.664-21.542-38.062-31.763l-5.828 10.49zM96 176c43.046 0 80-28.965 80-67h-12c0 29.343-29.308 55-68 55v12zm80-67c0-11.132-3.236-21.598-8.894-30.767l-10.212 6.301C161.468 91.949 164 100.252 164 109h12zm-8.09-26.578c1.087-6.187 1.847-16.461 1.461-27.705-.385-11.227-1.928-23.899-5.708-34.699l-11.326 3.964c3.22 9.2 4.677 20.527 5.042 31.147.364 10.602-.376 20.02-1.289 25.217l11.82 2.076zM123.773 46.14C115.107 43.458 105.747 42 96 42v12c8.552 0 16.715 1.279 24.227 3.603l3.546-11.464zm31.313-29.385c-18.398 10.221-29.314 18.783-38.062 31.763l9.952 6.706c7.252-10.762 16.336-18.201 33.938-27.98l-5.828-10.49z" fill="#000"/><path d="M140 82H80m60 24H80m60 24H80M60 82h-8m8 24h-8m8 24h-8" stroke="#000" stroke-width="12" stroke-linecap="round" stroke-linejoin="round"/></svg>