<svg xmlns="http://www.w3.org/2000/svg" width="192" height="192" fill="none" viewBox="0 0 192 192"><path stroke="#000" stroke-linecap="round" stroke-linejoin="round" stroke-width="12" d="M46 107V80.983c-6-5.004-14 0-24 9.006m0-9.007v9.007m0 0V107m48 0V80.983c-6-5.004-14 0-24 9.006M129 79l11 28 13-28m16 0v28"/><circle cx="169" cy="62" r="3" stroke="#000" stroke-linecap="round" stroke-linejoin="round" stroke-width="8"/><path stroke="#000" stroke-linecap="round" stroke-linejoin="round" stroke-width="12" d="M115 92a13.993 13.993 0 0 0-4.101-9.9 14.003 14.003 0 0 0-15.257-3.034A14.001 14.001 0 0 0 87 92m28 1v13M87 93v13"/><path stroke="#000" stroke-linecap="round" stroke-linejoin="round" stroke-width="10" d="M87 98h28"/></svg>