<?xml version="1.0" encoding="UTF-8" standalone="no"?>
<svg
   width="192"
   height="192"
   viewBox="0 0 192 192"
   fill="none"
   version="1.1"
   id="svg1011"
   xml:space="preserve"
   sodipodi:docname="maxim.svg"
   inkscape:version="1.2.2 (732a01da63, 2022-12-09)"
   xmlns:inkscape="http://www.inkscape.org/namespaces/inkscape"
   xmlns:sodipodi="http://sodipodi.sourceforge.net/DTD/sodipodi-0.dtd"
   xmlns="http://www.w3.org/2000/svg"
   xmlns:svg="http://www.w3.org/2000/svg"><sodipodi:namedview
     id="namedview32"
     pagecolor="#ffffff"
     bordercolor="#000000"
     borderopacity="0.25"
     inkscape:showpageshadow="2"
     inkscape:pageopacity="0.0"
     inkscape:pagecheckerboard="0"
     inkscape:deskcolor="#d1d1d1"
     showgrid="false"
     inkscape:zoom="4.3177083"
     inkscape:cx="96.231605"
     inkscape:cy="96.115803"
     inkscape:window-width="1920"
     inkscape:window-height="1009"
     inkscape:window-x="-8"
     inkscape:window-y="-8"
     inkscape:window-maximized="1"
     inkscape:current-layer="svg1011" /><defs
     id="defs1009"><clipPath
       id="a"><path
         fill="#fff"
         d="M0 0h192v192H0z"
         id="path1006" /></clipPath><filter
       id="mask-powermask-path-effect5363_inverse"
       style="color-interpolation-filters:sRGB"
       height="100"
       width="100"
       x="-50"
       y="-50"><feColorMatrix
         id="mask-powermask-path-effect5363_primitive1"
         values="1"
         type="saturate"
         result="fbSourceGraphic" /><feColorMatrix
         id="mask-powermask-path-effect5363_primitive2"
         values="-1 0 0 0 1 0 -1 0 0 1 0 0 -1 0 1 0 0 0 1 0 "
         in="fbSourceGraphic" /></filter><filter
       id="mask-powermask-path-effect5414_inverse"
       style="color-interpolation-filters:sRGB"
       height="100"
       width="100"
       x="-50"
       y="-50"><feColorMatrix
         id="mask-powermask-path-effect5414_primitive1"
         values="1"
         type="saturate"
         result="fbSourceGraphic" /><feColorMatrix
         id="mask-powermask-path-effect5414_primitive2"
         values="-1 0 0 0 1 0 -1 0 0 1 0 0 -1 0 1 0 0 0 1 0 "
         in="fbSourceGraphic" /></filter><filter
       id="mask-powermask-path-effect5444_inverse"
       style="color-interpolation-filters:sRGB"
       height="100"
       width="100"
       x="-50"
       y="-50"><feColorMatrix
         id="mask-powermask-path-effect5444_primitive1"
         values="1"
         type="saturate"
         result="fbSourceGraphic" /><feColorMatrix
         id="mask-powermask-path-effect5444_primitive2"
         values="-1 0 0 0 1 0 -1 0 0 1 0 0 -1 0 1 0 0 0 1 0 "
         in="fbSourceGraphic" /></filter><filter
       id="mask-powermask-path-effect5462_inverse"
       style="color-interpolation-filters:sRGB"
       height="100"
       width="100"
       x="-50"
       y="-50"><feColorMatrix
         id="mask-powermask-path-effect5462_primitive1"
         values="1"
         type="saturate"
         result="fbSourceGraphic" /><feColorMatrix
         id="mask-powermask-path-effect5462_primitive2"
         values="-1 0 0 0 1 0 -1 0 0 1 0 0 -1 0 1 0 0 0 1 0 "
         in="fbSourceGraphic" /></filter><filter
       id="mask-powermask-path-effect5473_inverse"
       style="color-interpolation-filters:sRGB"
       height="100"
       width="100"
       x="-50"
       y="-50"><feColorMatrix
         id="mask-powermask-path-effect5473_primitive1"
         values="1"
         type="saturate"
         result="fbSourceGraphic" /><feColorMatrix
         id="mask-powermask-path-effect5473_primitive2"
         values="-1 0 0 0 1 0 -1 0 0 1 0 0 -1 0 1 0 0 0 1 0 "
         in="fbSourceGraphic" /></filter><filter
       id="mask-powermask-path-effect7499_inverse"
       style="color-interpolation-filters:sRGB"
       height="100"
       width="100"
       x="-50"
       y="-50"><feColorMatrix
         id="mask-powermask-path-effect7499_primitive1"
         values="1"
         type="saturate"
         result="fbSourceGraphic" /><feColorMatrix
         id="mask-powermask-path-effect7499_primitive2"
         values="-1 0 0 0 1 0 -1 0 0 1 0 0 -1 0 1 0 0 0 1 0 "
         in="fbSourceGraphic" /></filter><filter
       id="mask-powermask-path-effect7510_inverse"
       style="color-interpolation-filters:sRGB"
       height="100"
       width="100"
       x="-50"
       y="-50"><feColorMatrix
         id="mask-powermask-path-effect7510_primitive1"
         values="1"
         type="saturate"
         result="fbSourceGraphic" /><feColorMatrix
         id="mask-powermask-path-effect7510_primitive2"
         values="-1 0 0 0 1 0 -1 0 0 1 0 0 -1 0 1 0 0 0 1 0 "
         in="fbSourceGraphic" /></filter><clipPath
       clipPathUnits="userSpaceOnUse"
       id="clipPath7516"><path
         d="m 18.7893,67.426901 c -2.371,-0.5923 -4.0334,-2.713199 -4.0334,-5.145701 V 33.6233 c 0,-2.7629 2.6107,-4.7892 5.3037,-4.1165 l 17.0541,4.2602 c 2.3709,0.5922 4.0334,2.7131 4.0334,5.1456 v 28.657901 c 0,2.762897 -2.6108,4.789301 -5.3038,4.116497 z"
         fill="#ffffff"
         id="path7518"
         style="display:block;fill:#ffffff;fill-opacity:1;stroke:none;stroke-width:4.4;stroke-dasharray:none;stroke-opacity:1" /></clipPath><clipPath
       clipPathUnits="userSpaceOnUse"
       id="clipPath7528"><path
         d="m 34.8381,60.8292 c -2.371,-0.5923 -4.0334,-2.713199 -4.0334,-5.145701 V 27.0257 c 0,-2.7629 2.6108,-4.7893 5.3038,-4.1166 l 17.053998,4.2602 c 2.371001,0.5923 4.033403,2.7132 4.033403,5.1457 v 28.6578 c 0,2.763002 -2.610701,4.789301 -5.303804,4.116601 z"
         fill="#ffffff"
         id="path7530"
         style="display:block;fill:#ffffff;fill-opacity:1;stroke:none;stroke-width:4.4;stroke-dasharray:none;stroke-opacity:1" /></clipPath></defs><path
     class="fil0"
     d="m 93.851897,19.841795 c 20.483903,0 38.700483,7.97465 52.362943,21.6371 12.5288,13.662454 21.61757,31.879052 21.61757,52.362969 v 19.350236 35.29956 c 0,11.39515 -7.95512,19.35026 -19.35026,19.35026 -17.06341,0 -36.43319,0 -54.630253,0 -20.503458,0 -38.720051,-7.97467 -52.362958,-21.63713 -13.681997,-13.66246 -21.637102,-31.87903 -21.637102,-52.362926 0,-20.483917 7.97465,-38.720067 21.637102,-52.362969 13.66245,-13.66245 31.8595,-21.6371 52.362958,-21.6371 z M 92.718244,135.96287 v 0 h 1.133653 c 11.375593,0 21.617553,-4.53463 29.592193,-12.50929 6.841,-6.84098 12.52882,-18.21659 12.52882,-29.611716 v 0 c 0,-11.395165 -5.68782,-22.77077 -12.52882,-29.592234 -7.97464,-7.974625 -18.2166,-12.528785 -30.725846,-12.528785 -11.39515,0 -21.637101,4.55416 -29.611754,12.528785 -7.974644,6.821464 -12.528803,18.197069 -12.528803,29.592234 0,11.395126 4.554159,22.770736 12.528803,29.611716 7.974653,7.97466 18.216604,12.50929 29.611754,12.50929 z"
     id="path7"
     style="clip-rule:evenodd;fill:none;fill-rule:nonzero;stroke:#000000;stroke-width:12;stroke-dasharray:none;stroke-opacity:1;image-rendering:optimizeQuality;shape-rendering:geometricPrecision;text-rendering:geometricPrecision" /></svg>
