<svg xmlns="http://www.w3.org/2000/svg" width="192" height="192" fill="none" viewBox="0 0 192 192"><path stroke="#000" stroke-width="12" d="M93.852 19.842c20.484 0 38.7 7.974 52.363 21.637 12.529 13.662 21.617 31.879 21.617 52.363v54.65c0 11.395-7.955 19.35-19.35 19.35h-54.63c-20.504 0-38.72-7.975-52.363-21.637-13.682-13.663-21.637-31.88-21.637-52.363 0-20.484 7.974-38.72 21.637-52.363 13.662-13.663 31.86-21.637 52.363-21.637zm-1.134 116.12h1.134c11.375 0 21.617-4.534 29.592-12.508 6.841-6.841 12.529-18.217 12.529-29.612s-5.688-22.77-12.529-29.592c-7.975-7.975-18.217-12.53-30.726-12.53-11.395 0-21.637 4.555-29.612 12.53-7.974 6.821-12.528 18.197-12.528 29.592s4.554 22.77 12.528 29.612c7.975 7.974 18.217 12.509 29.612 12.509z"/></svg>