<?xml version="1.0" encoding="UTF-8" standalone="no"?>
<svg
   width="192"
   height="192"
   viewBox="0 0 192 192"
   fill="none"
   version="1.1"
   id="svg1011"
   xml:space="preserve"
   sodipodi:docname="maxim.svg"
   inkscape:version="1.2.2 (732a01da63, 2022-12-09)"
   xmlns:inkscape="http://www.inkscape.org/namespaces/inkscape"
   xmlns:sodipodi="http://sodipodi.sourceforge.net/DTD/sodipodi-0.dtd"
   xmlns="http://www.w3.org/2000/svg"
   xmlns:svg="http://www.w3.org/2000/svg"><sodipodi:namedview
     id="namedview32"
     pagecolor="#ffffff"
     bordercolor="#000000"
     borderopacity="0.25"
     inkscape:showpageshadow="2"
     inkscape:pageopacity="0.0"
     inkscape:pagecheckerboard="0"
     inkscape:deskcolor="#d1d1d1"
     showgrid="false"
     inkscape:zoom="4.3177083"
     inkscape:cx="96.115802"
     inkscape:cy="96.115802"
     inkscape:window-width="1920"
     inkscape:window-height="1009"
     inkscape:window-x="-8"
     inkscape:window-y="-8"
     inkscape:window-maximized="1"
     inkscape:current-layer="svg1011" /><defs
     id="defs1009"><clipPath
       id="a"><path
         fill="#fff"
         d="M0 0h192v192H0z"
         id="path1006" /></clipPath><filter
       id="mask-powermask-path-effect5363_inverse"
       style="color-interpolation-filters:sRGB"
       height="100"
       width="100"
       x="-50"
       y="-50"><feColorMatrix
         id="mask-powermask-path-effect5363_primitive1"
         values="1"
         type="saturate"
         result="fbSourceGraphic" /><feColorMatrix
         id="mask-powermask-path-effect5363_primitive2"
         values="-1 0 0 0 1 0 -1 0 0 1 0 0 -1 0 1 0 0 0 1 0 "
         in="fbSourceGraphic" /></filter><filter
       id="mask-powermask-path-effect5414_inverse"
       style="color-interpolation-filters:sRGB"
       height="100"
       width="100"
       x="-50"
       y="-50"><feColorMatrix
         id="mask-powermask-path-effect5414_primitive1"
         values="1"
         type="saturate"
         result="fbSourceGraphic" /><feColorMatrix
         id="mask-powermask-path-effect5414_primitive2"
         values="-1 0 0 0 1 0 -1 0 0 1 0 0 -1 0 1 0 0 0 1 0 "
         in="fbSourceGraphic" /></filter><filter
       id="mask-powermask-path-effect5444_inverse"
       style="color-interpolation-filters:sRGB"
       height="100"
       width="100"
       x="-50"
       y="-50"><feColorMatrix
         id="mask-powermask-path-effect5444_primitive1"
         values="1"
         type="saturate"
         result="fbSourceGraphic" /><feColorMatrix
         id="mask-powermask-path-effect5444_primitive2"
         values="-1 0 0 0 1 0 -1 0 0 1 0 0 -1 0 1 0 0 0 1 0 "
         in="fbSourceGraphic" /></filter><filter
       id="mask-powermask-path-effect5462_inverse"
       style="color-interpolation-filters:sRGB"
       height="100"
       width="100"
       x="-50"
       y="-50"><feColorMatrix
         id="mask-powermask-path-effect5462_primitive1"
         values="1"
         type="saturate"
         result="fbSourceGraphic" /><feColorMatrix
         id="mask-powermask-path-effect5462_primitive2"
         values="-1 0 0 0 1 0 -1 0 0 1 0 0 -1 0 1 0 0 0 1 0 "
         in="fbSourceGraphic" /></filter><filter
       id="mask-powermask-path-effect5473_inverse"
       style="color-interpolation-filters:sRGB"
       height="100"
       width="100"
       x="-50"
       y="-50"><feColorMatrix
         id="mask-powermask-path-effect5473_primitive1"
         values="1"
         type="saturate"
         result="fbSourceGraphic" /><feColorMatrix
         id="mask-powermask-path-effect5473_primitive2"
         values="-1 0 0 0 1 0 -1 0 0 1 0 0 -1 0 1 0 0 0 1 0 "
         in="fbSourceGraphic" /></filter><filter
       id="mask-powermask-path-effect7499_inverse"
       style="color-interpolation-filters:sRGB"
       height="100"
       width="100"
       x="-50"
       y="-50"><feColorMatrix
         id="mask-powermask-path-effect7499_primitive1"
         values="1"
         type="saturate"
         result="fbSourceGraphic" /><feColorMatrix
         id="mask-powermask-path-effect7499_primitive2"
         values="-1 0 0 0 1 0 -1 0 0 1 0 0 -1 0 1 0 0 0 1 0 "
         in="fbSourceGraphic" /></filter><filter
       id="mask-powermask-path-effect7510_inverse"
       style="color-interpolation-filters:sRGB"
       height="100"
       width="100"
       x="-50"
       y="-50"><feColorMatrix
         id="mask-powermask-path-effect7510_primitive1"
         values="1"
         type="saturate"
         result="fbSourceGraphic" /><feColorMatrix
         id="mask-powermask-path-effect7510_primitive2"
         values="-1 0 0 0 1 0 -1 0 0 1 0 0 -1 0 1 0 0 0 1 0 "
         in="fbSourceGraphic" /></filter><clipPath
       clipPathUnits="userSpaceOnUse"
       id="clipPath7516"><path
         d="m 18.7893,67.426901 c -2.371,-0.5923 -4.0334,-2.713199 -4.0334,-5.145701 V 33.6233 c 0,-2.7629 2.6107,-4.7892 5.3037,-4.1165 l 17.0541,4.2602 c 2.3709,0.5922 4.0334,2.7131 4.0334,5.1456 v 28.657901 c 0,2.762897 -2.6108,4.789301 -5.3038,4.116497 z"
         fill="#ffffff"
         id="path7518"
         style="display:block;fill:#ffffff;fill-opacity:1;stroke:none;stroke-width:4.4;stroke-dasharray:none;stroke-opacity:1" /></clipPath><clipPath
       clipPathUnits="userSpaceOnUse"
       id="clipPath7528"><path
         d="m 34.8381,60.8292 c -2.371,-0.5923 -4.0334,-2.713199 -4.0334,-5.145701 V 27.0257 c 0,-2.7629 2.6108,-4.7893 5.3038,-4.1166 l 17.053998,4.2602 c 2.371001,0.5923 4.033403,2.7132 4.033403,5.1457 v 28.6578 c 0,2.763002 -2.610701,4.789301 -5.303804,4.116601 z"
         fill="#ffffff"
         id="path7530"
         style="display:block;fill:#ffffff;fill-opacity:1;stroke:none;stroke-width:4.4;stroke-dasharray:none;stroke-opacity:1" /></clipPath></defs><path
     class="fil0"
     d="m 96.010036,19.999978 c 21.037514,0 39.746434,8.190176 53.778134,22.221873 12.86741,14.031702 22.20181,32.740628 22.20181,53.778155 v 19.873204 36.25358 c 0,11.70313 -8.17011,19.87323 -19.87323,19.87323 -17.52457,0 -37.41785,0 -56.106714,0 -21.057592,0 -39.766515,-8.19019 -53.778141,-22.2219 C 28.180122,135.74642 20.01002,117.03751 20.01002,96.000006 c 0,-21.037527 8.190176,-39.766534 22.221875,-53.778155 C 56.263593,28.190154 74.952444,19.999978 96.010036,19.999978 Z M 94.845745,139.25939 v 0 h 1.164291 c 11.683034,0 22.201794,-4.65718 30.391974,-12.84736 7.02588,-7.02588 12.86741,-18.70892 12.86741,-30.412024 v 0 c 0,-11.703138 -5.84153,-23.386184 -12.86741,-30.392008 -8.19018,-8.190151 -18.70894,-12.867394 -31.556265,-12.867394 -11.70312,0 -22.221874,4.677243 -30.412054,12.867394 -8.19017,7.005824 -12.867412,18.68887 -12.867412,30.392008 0,11.703104 4.677242,23.386144 12.867412,30.412024 8.19018,8.19018 18.708934,12.84736 30.412054,12.84736 z"
     id="path7"
     style="clip-rule:evenodd;fill:none;fill-rule:nonzero;stroke:#000000;stroke-width:8;stroke-dasharray:none;stroke-opacity:1;image-rendering:optimizeQuality;shape-rendering:geometricPrecision;text-rendering:geometricPrecision" /></svg>
