<svg width="192" height="192" fill="none" xmlns="http://www.w3.org/2000/svg"><path d="M25 31a6 6 0 0 1 6-6h130a6 6 0 0 1 6 6v130a6 6 0 0 1-6 6H31a6 6 0 0 1-6-6V31Z" stroke="#000" stroke-width="12" stroke-linecap="round" stroke-linejoin="round"/><path d="M60.2 49C54.6 49 49 52.958 49 60.083 49 73.542 73 88 73 88s24-14.458 24-27.917C97 52.958 91.4 49 85.8 49c-5.626 0-9.949 4.51-12.8 8.833C70.149 53.51 65.826 49 60.2 49Z" stroke="#000" stroke-width="12" stroke-linecap="round" stroke-linejoin="round"/></svg>