<svg width="192" height="192" viewBox="0 0 192 192" fill="none" xmlns="http://www.w3.org/2000/svg">
<path d="M170 136V89C170 70.7746 155.225 56 137 56V56C118.775 56 104 70.7746 104 89V136" stroke="black" stroke-width="12" stroke-linecap="round"/>
<path d="M104 136V89C104 70.7746 89.2254 56 71 56V56C52.7746 56 38 70.7746 38 89V136" stroke="black" stroke-width="12" stroke-linecap="round"/>
<path d="M32 136C32 139.314 34.6863 142 38 142C41.3137 142 44 139.314 44 136H32ZM38 56H44C44 52.6863 41.3137 50 38 50V56ZM22 50C18.6863 50 16 52.6863 16 56C16 59.3137 18.6863 62 22 62V50ZM44 136V56H32V136H44ZM38 50H22V62H38V50Z" fill="black"/>
</svg>
