<svg inkscape:version="1.1.1 (3bf5ae0d25, 2021-09-20)" sodipodi:docname="mbank.svg" version="1.1" viewBox="0 0 24 24" xmlns="http://www.w3.org/2000/svg" xmlns:inkscape="http://www.inkscape.org/namespaces/inkscape" xmlns:sodipodi="http://sodipodi.sourceforge.net/DTD/sodipodi-0.dtd">
 <sodipodi:namedview bordercolor="#666666" borderopacity="1.0" inkscape:current-layer="svg8" inkscape:cx="12.041588" inkscape:cy="17.705104" inkscape:pagecheckerboard="0" inkscape:pageopacity="0.0" inkscape:pageshadow="2" inkscape:window-height="1009" inkscape:window-maximized="1" inkscape:window-width="1920" inkscape:window-x="1912" inkscape:window-y="-8" inkscape:zoom="18.892857" pagecolor="#ffffff" showgrid="false"/>
 <g transform="matrix(.88649 0 0 -.88646 78.178 17.634)" stroke-width=".083332">
  <path d="m-63.372 7.1709v-7.171h-3.632v6.612c0 2.026-0.908 2.957-2.375 2.957-1.63 0-2.77-1.047-2.77-3.283v-6.286h-3.633v6.612c0 2.026-0.861 2.957-2.374 2.957-1.607 0-2.747-1.047-2.747-3.283v-6.286h-3.633v9.732h-1.397v2.794h4.308l0.186-1.933c0.907 1.374 2.468 2.119 4.307 2.119 1.746 0 3.236-0.675 4.121-2.049 1.001 1.281 2.631 2.049 4.517 2.049 2.98 0 5.122-1.723 5.122-5.541" sodipodi:nodetypes="cccsssccssscccccccscsc"/>
 </g>
</svg>
