<svg width="192" height="192" fill="none" xmlns="http://www.w3.org/2000/svg"><path d="M25 53c0-15.464 12.536-28 28-28h86c15.464 0 28 12.536 28 28v86c0 15.464-12.536 28-28 28H53c-15.464 0-28-12.536-28-28V53Z" stroke="#000" stroke-width="12" stroke-linecap="round" stroke-linejoin="round"/><path d="M137 102V90a6 6 0 0 0-6-6h-17a6 6 0 0 1-6-6V61a6 6 0 0 0-6-6H90a6 6 0 0 0-6 6v17a6 6 0 0 1-6 6H61a6 6 0 0 0-6 6v12a6 6 0 0 0 6 6h17a6 6 0 0 1 6 6v17a6 6 0 0 0 6 6h12a6 6 0 0 0 6-6v-17a6 6 0 0 1 6-6h17a6 6 0 0 0 6-6Z" stroke="#000" stroke-width="12" stroke-linecap="round" stroke-linejoin="round"/></svg>