<?xml version="1.0" encoding="utf-8"?>
	<svg version="1.1" xmlns="http://www.w3.org/2000/svg" xmlns:xlink="http://www.w3.org/1999/xlink" x="0px" y="0px" width="240.0" height="240.0" xml:space="preserve">
		<path d="M218.383,161.817L218.383,200.775L179.433,200.775L179.433,161.817L218.383,161.817ZM139.404,161.817L139.404,200.775L100.454,200.775L100.454,161.817L139.404,161.817ZM58.95,161.817L58.95,200.775L20,200.775L20,161.817L58.95,161.817ZM97.9,121.66L97.9,160.618L58.95,160.618L58.95,121.66L97.9,121.66ZM178.355,119.533L178.355,158.491L139.404,158.491L139.404,119.533L178.355,119.533ZM136.851,80.575L136.851,119.533L97.9,119.533L97.9,80.575L136.851,80.575ZM220,80.575L220,119.533L181.05,119.533L181.05,80.575L220,80.575ZM95.475,40L95.475,78.958L56.525,78.958L56.525,40L95.475,40ZM178.355,40L178.355,78.958L139.404,78.958L139.404,40L178.355,40Z" fill="#000" stroke="#00000000" stroke-width="1.0" stroke-miterlimit=""/>
	</svg>
