<svg xmlns="http://www.w3.org/2000/svg" width="192" height="192" fill="none"><path stroke="#000" stroke-linecap="round" stroke-linejoin="round" stroke-width="12" d="M58 94a18 18 0 0 1-36 0m148 0a18 18 0 1 1-36 0M80 54l16 113m16-113L96 167M80 54l16-30 16 30M82 167h28"/><path stroke="#000" stroke-linecap="round" stroke-linejoin="round" stroke-width="10" d="M26 91h28m84 0h28"/><path stroke="#000" stroke-linecap="round" stroke-linejoin="round" stroke-width="12" d="M40 39h25l31 29M40 39 22 94m18-55 18 55m94-55h-25L96 68m56-29 18 55m-18-55-18 55"/></svg>