<svg width="192" height="192" fill="none" xmlns="http://www.w3.org/2000/svg"><path d="M59 49a36.999 36.999 0 1 0 0 74" stroke="#000" stroke-width="12" stroke-linecap="round" stroke-linejoin="round"/><path d="M59 71a15 15 0 0 0 0 30m74 22a37.006 37.006 0 0 0 26.163-10.837A37.011 37.011 0 0 0 170 86a37.008 37.008 0 0 0-10.837-26.163A37.005 37.005 0 0 0 133 49m-74 0h74M59 71h35.143l4.286 30H59m74 22h-31.429L105 147l-25-24H59" stroke="#000" stroke-width="12" stroke-linecap="round" stroke-linejoin="round"/></svg>