<svg xmlns="http://www.w3.org/2000/svg" width="192" height="192" fill="none"><path stroke="#000" stroke-linecap="round" stroke-linejoin="round" stroke-width="12" d="M96 78c-37.97 0-32.688 37.847-67.982 41.687C24.724 120.045 22 122.686 22 126v18.388c0 2.222 1.22 4.253 3.234 5.195C34.624 153.976 63.308 166 96 166"/><path stroke="#000" stroke-linecap="round" stroke-linejoin="round" stroke-width="10" d="M22 136h148m-106 0V94m64 42V94"/><path stroke="#000" stroke-linecap="round" stroke-linejoin="round" stroke-width="12" d="M96 166c32.692 0 61.377-12.024 70.766-16.417 2.013-.942 3.234-2.973 3.234-5.195V126c0-3.314-2.724-5.955-6.018-6.313C128.688 115.847 133.971 78 96 78"/><circle cx="96" cy="38" r="16" stroke="#000" stroke-linecap="round" stroke-linejoin="round" stroke-width="12"/></svg>