<svg xmlns="http://www.w3.org/2000/svg" width="192" height="192" fill="none"><circle cx="96" cy="96" r="15" stroke="#000" stroke-linecap="round" stroke-linejoin="round" stroke-width="10"/><circle cx="96" cy="96" r="75" stroke="#000" stroke-linecap="round" stroke-linejoin="round" stroke-width="10"/><path stroke="#000" stroke-linecap="round" stroke-linejoin="round" stroke-width="10" d="M81 96a80 80 0 0 1 41.562-70.16M85.393 85.392a80 80 0 0 1 78.998-20.223M96 81a80 80 0 0 1 70.161 41.562m-59.554-37.169a80 80 0 0 1 20.223 78.998M111 96a80 80 0 0 1-41.562 70.161m37.169-59.554a80 80 0 0 1-78.998 20.223M96 111a80 80 0 0 1-70.16-41.562m59.553 37.169A80 80 0 0 1 65.17 27.609"/></svg>