<svg width="192" height="192" viewBox="0 0 192 192" fill="none" xmlns="http://www.w3.org/2000/svg"><path d="M51 150c91 8 91-81 91-81M36 95c60 17 87-41 87-41" stroke="#000" stroke-width="12" stroke-linecap="round" stroke-linejoin="round"/><path d="M112 22s-78 29-78 86m78-86c-16 38 46 28 46 86m0 0a62.012 62.012 0 0 1-18.159 43.841A62.01 62.01 0 0 1 96 170a62.007 62.007 0 0 1-57.28-38.274A61.997 61.997 0 0 1 34 108" stroke="#000" stroke-width="12" stroke-linecap="round" stroke-linejoin="round"/></svg>