<?xml version="1.0" standalone="no"?>
<!DOCTYPE svg PUBLIC "-//W3C//DTD SVG 20010904//EN"
 "http://www.w3.org/TR/2001/REC-SVG-20010904/DTD/svg10.dtd">
<svg version="1.0" xmlns="http://www.w3.org/2000/svg"
 width="192.000000pt" height="192.000000pt" viewBox="0 0 192.000000 192.000000"
 preserveAspectRatio="xMidYMid meet">

<g transform="translate(0.000000,192.000000) scale(0.100000,-0.100000)"
fill="#000000" stroke="none">
<path d="M1003 1706 c-134 -44 -266 -130 -407 -265 -151 -146 -225 -272 -260
-444 -50 -240 26 -467 213 -638 206 -189 532 -211 764 -53 189 130 297 344
284 565 -14 223 -150 443 -333 541 -64 33 -88 21 -124 -65 -84 -200 -296 -346
-510 -350 -73 -1 -165 17 -176 35 -7 12 56 144 97 204 76 111 252 259 391 330
81 41 97 43 91 11 -7 -34 13 -99 38 -126 47 -50 114 1 82 63 -12 22 -14 43 -8
85 11 81 9 103 -11 118 -24 18 -47 16 -131 -11z m291 -442 l48 -36 -7 -72
c-13 -138 -34 -219 -76 -303 -48 -95 -139 -200 -216 -249 -148 -96 -363 -113
-505 -42 -40 20 -63 56 -93 147 -17 53 -26 193 -14 206 4 3 33 -1 65 -11 132
-38 338 4 481 99 88 58 200 176 233 245 14 28 28 52 31 52 3 0 27 -16 53 -36z
m180 -291 c22 -85 21 -216 -4 -294 -49 -159 -190 -300 -348 -349 -147 -46
-350 -14 -466 72 -16 13 -8 14 65 10 333 -16 643 249 701 599 10 66 12 69 24
47 7 -13 19 -51 28 -85z"/>
</g>
</svg>
