<?xml version="1.0" encoding="UTF-8"?>
<!-- Created with Inkscape (http://www.inkscape.org/) -->
<svg width="192" height="192" version="1.1" viewBox="0 0 50.8 50.8" xml:space="preserve" xmlns="http://www.w3.org/2000/svg"><g stroke="#000" stroke-linecap="round" stroke-linejoin="round"><path d="m14.498 15.07c2.2545-5.0683 7.3884-7.2937 13.068-4.3745 6.7538-2.0418 10.669 3.0557 10.782 8.0806 3.4112 1.5034 3.6674 5.3696 1.497 7.4962 2.7664 4.8112 0.02663 11.495-6.6214 11.541-2.11 4.2277-4.5623 4.8529-8.6079 2.6217-4.4534 3.0902-10.25 1.1152-11.187-5.2282-7.1797-2.022-5.7953-9.1509-3.1643-11.092-1.9991-3.9452-0.71303-7.8228 4.2329-9.0449z" fill="none" stroke-width="3.175"/><g transform="matrix(1.0173 0 0 1.0173 -.80402 -.79334)" fill="none" stroke-width="2.0807"><path d="m15.252 29.477 2.9448-9.3433c0.57988-2.1641 3.2176-2.6435 3.9677-2.3835 1.3637 0.3654 1.722 0.80586 1.722 0.80586"/><path d="m23.886 18.556c0.7208 0.30348 1.6981-0.15341 2.4051-0.76679 1.1979-1.0325 2.1915-0.42096 2.4855-0.20851"/><path d="m28.777 17.581c0.72071 0.72071 1.289 1.0868 1.9001 0.61614 0.61119-0.47065 2.296-0.16992 2.296-0.16992 1.3767 0.36888 2.4319 1.5043 1.5096 4.0341-0.23035 0.85966-1.8269 4.2754-2.1629 5.2657-0.57747 2.1551-1.265 3.875 1.1547 3.9438 2.4196 0.06881 1.5074 1.8539 1.5074 1.8539-0.56054 0.52721-3.6652 1.083-5.2877-0.38396-1.6224-1.4669-1.4206-3.424-0.36312-5.5681 0.77067-1.4144 2.9634-5.173 1.8697-5.5816-1.0937-0.40858-2.7383 3.7162-2.7383 3.7162l-2.2306 4.467s-0.80769 1.6904-2.2977 1.1804c-1.49-0.50998-0.56721-2.1686-0.56721-2.1686 0.927-2.2102 2.8756-6.1123 1.4468-6.5383-1.4288-0.42597-2.5729 4.3237-2.5729 4.3237"/><path d="m22.241 26.571c-1.9964 4.8381-1.9493 6.7981-5.094 6.0876-3.1447-0.71052-1.8952-3.1817-1.8952-3.1817"/></g><g><ellipse cx="16.538" cy="6.2343" rx=".41728" ry=".41728" stroke-width="1.2821"/><g stroke-width="1.9232"><ellipse cx="11.746" cy="11.888" rx=".62591" ry=".62591"/><ellipse cx="27.904" cy="6.7635" rx=".62591" ry=".62591"/><ellipse cx="41.733" cy="16.499" rx=".62591" ry=".62591"/></g><ellipse cx="45.472" cy="21.795" rx=".41728" ry=".41728" stroke-width="1.2821"/><ellipse cx="43.357" cy="27.053" rx=".41728" ry=".41728" stroke-width="1.2821"/><ellipse cx="35.387" cy="41.234" rx=".62591" ry=".62591" stroke-width="1.9232"/><ellipse cx="24.544" cy="44.306" rx=".62591" ry=".62591" stroke-width="1.9232"/><ellipse cx="10.935" cy="37.574" rx=".41728" ry=".41728" stroke-width="1.2821"/><ellipse cx="5.8208" cy="23.638" rx=".62591" ry=".62591" stroke-width="1.9232"/></g></g></svg>
