<svg width="192" height="192" fill="none" xmlns="http://www.w3.org/2000/svg"><path d="M42.418 148.295c-10.157-10.77-16.9-24.355-19.37-39.018a75.424 75.424 0 0 1 5.508-43.291c6.06-13.556 15.986-24.977 28.509-32.803a73.441 73.441 0 0 1 41.787-11.128 73.53 73.53 0 0 1 40.815 14.342c11.889 8.776 20.916 20.935 25.925 34.921a75.446 75.446 0 0 1 2.195 43.591c-3.579 14.428-11.338 27.448-22.284 37.397" stroke="#000" stroke-width="12" stroke-miterlimit="15" stroke-linecap="round" stroke-linejoin="round"/><path d="M42.418 148.295c3.647-30.581 18.964-102.81 53.586-102.81 21.114 0 32.929 19.256 39.764 42.478m4.468 19.03c3.126 16.86 4.398 33.678 5.267 45.311" stroke="#000" stroke-width="12" stroke-miterlimit="15" stroke-linecap="round" stroke-linejoin="round"/><path d="M106.352 170c1.087-34.329 2.895-83.598 20.277-104.212" stroke="#000" stroke-width="12" stroke-miterlimit="15" stroke-linecap="round" stroke-linejoin="round"/><path d="M99.651 99.623c1.197.391 2.471-1.647 2.845-4.553.375-2.907-.291-5.58-1.488-5.971s-2.47 1.647-2.845 4.553c-.375 2.907.292 5.58 1.488 5.971Z" stroke="#000" stroke-width="6" stroke-miterlimit="15" stroke-linecap="round" stroke-linejoin="round"/><path d="M135.772 87.965s-13.411 3.91-11.236 45.653c7.336-18.183 15.704-26.623 15.704-26.623" stroke="#000" stroke-width="12" stroke-miterlimit="15" stroke-linecap="round" stroke-linejoin="round"/></svg>