<svg xmlns="http://www.w3.org/2000/svg" width="192" height="192" fill="none" stroke="#000" stroke-linecap="round" stroke-linejoin="round" stroke-width="12" viewBox="0 0 192 192"><path d="M42.418 148.295c-10.157-10.77-16.9-24.355-19.37-39.018a75.4 75.4 0 0 1 5.508-43.291c6.06-13.556 15.986-24.977 28.509-32.803a73.53 73.53 0 0 1 82.602 3.214c11.889 8.776 20.916 20.935 25.925 34.921a75.45 75.45 0 0 1 2.195 43.591c-3.579 14.428-11.338 27.448-22.284 37.397"/><path d="M42.418 148.295c3.647-30.581 18.964-102.81 53.586-102.81 21.114 0 32.929 19.256 39.764 42.478m4.468 19.03c3.126 16.86 4.398 33.678 5.267 45.311"/><path d="M106.352 170c1.087-34.329 2.895-83.598 20.277-104.212"/><path stroke-width="6" d="M99.651 99.623c1.197.391 2.471-1.647 2.845-4.553.375-2.907-.291-5.58-1.488-5.971s-2.47 1.647-2.845 4.553c-.375 2.907.292 5.58 1.488 5.971"/><path d="M135.772 87.965s-13.411 3.91-11.236 45.653c7.336-18.183 15.704-26.623 15.704-26.623"/></svg>