<?xml version="1.0" encoding="UTF-8"?>
<svg width="24" height="24" fill="none" version="1.1" viewBox="0 0 24 24" xmlns="http://www.w3.org/2000/svg">
 <path d="m5.4776 10.108c0-2.8108 1.5496-5.5495 4.6486-5.5495 3.1351 0 4.7207 2.6666 4.7207 5.5495 0 2.8469-1.4053 5.5495-4.7207 5.5495-3.2432-1.18e-4 -4.6486-2.7747-4.6486-5.5495zm-2.8829 0c0 4.7927 2.7387 8.1441 7.5315 8.1441 4.8289 0 7.6036-3.3514 7.6036-8.1441 0-4.6486-2.8107-8.1081-7.6036-8.1081-4.7567 0-7.5315 3.4594-7.5315 8.1081zm14.45 11.892v-1.1171c0.57644-0.54068 2.8107-2.4145 2.8107-3.6036 0-0.61276-0.54045-0.90099-1.045-0.90099-0.57644 0-1.1171 0.25223-1.5496 0.54068l-0.10798-1.1171c0.61255-0.28845 1.2972-0.4685 1.9819-0.4685 1.2253 0 2.0179 0.64863 2.0179 1.946 0 1.3693-1.4053 2.6665-2.4504 3.6757h2.7027v1.045h-4.3602z" fill="#000" stroke-width=".11759"/>
</svg>
