<?xml version="1.0" encoding="utf-8"?>
	<svg version="1.1" xmlns="http://www.w3.org/2000/svg" xmlns:xlink="http://www.w3.org/1999/xlink" x="0px" y="0px" width="240.0" height="240.0" xml:space="preserve">
		<path d="M207.327,145.028C205.746,143.739 204.183,142.391 202.601,141.102C197.172,136.689 194.165,131.084 193.852,124.014C193.501,116.437 195.278,109.778 201.605,104.974C203.715,103.372 205.863,101.79 208.05,100.287C214.495,95.853 216.408,90.756 214.221,83.296C213.342,80.289 212.327,77.32 211.194,74.411C205.433,59.568 196.059,47.441 183.189,38.164C166.512,26.135 147.588,20.608 127.2,20.041C111.049,19.612 95.445,22.522 80.466,28.654C59.043,37.422 43.693,52.44 34.241,73.473C29.085,84.937 26.234,97.084 24.945,109.563C23.617,122.491 23.5,135.419 25.824,148.309C29.144,166.861 36.663,183.227 50.489,196.389C59.922,205.353 70.858,211.876 83.376,215.215C96.461,218.711 109.936,220 127.981,220C136.671,219.961 149.658,218.613 162.352,215.001C174.323,211.583 185.357,206.466 193.989,197.073C203.519,186.722 210.003,174.79 213.049,160.983C214.495,154.363 212.425,149.187 207.327,145.028ZM167.469,137.782C165.301,139.482 162.977,141.005 160.555,142.294C159.813,142.684 158.368,142.313 157.489,141.845C155.653,140.829 153.896,139.638 152.294,138.31C151.045,137.255 150.322,135.79 151.298,134.131C152.353,132.334 154.091,132.51 155.634,133.076C157.06,133.603 158.329,134.599 159.579,135.341C161.063,134.541 162.489,133.623 164.031,132.998C165.438,132.431 166.941,132.568 167.918,133.916C168.972,135.283 168.66,136.845 167.469,137.782L167.469,137.782ZM134.406,67.126C144.405,65.935 154.423,65.954 164.442,66.892C167.273,67.165 167.898,67.927 167.918,71.149C167.957,76.676 167.976,82.222 167.703,87.729C167.273,96.107 166.57,104.466 166.043,112.844C165.906,114.972 165.027,115.832 162.86,115.793C158.212,115.695 153.583,115.754 148.935,115.754L148.935,115.793C144.288,115.793 139.659,115.851 135.011,115.773C131.984,115.715 131.808,115.578 131.652,112.531C130.988,99.173 130.324,85.816 129.797,72.458C129.602,67.849 129.738,67.673 134.406,67.126L134.406,67.126ZM124.407,168.267C124.856,161.725 125.149,155.183 125.676,148.66C125.891,145.868 126.457,145.555 129.563,145.477C133.742,145.379 135.558,144.286 136.769,140.868L130.246,140.868C127.903,140.868 127.61,140.556 128.078,138.212C128.352,136.806 128.723,135.419 129.172,134.052C129.797,132.178 131.965,131.318 133.644,132.353C133.996,132.568 134.171,133.486 134.054,133.994C133.781,135.087 133.254,136.103 132.648,137.587C134.66,137.587 136.32,137.568 137.999,137.587C138.819,137.607 139.64,137.607 140.44,137.743C142.315,138.056 142.803,138.915 141.924,140.595C141.182,142.02 140.186,143.329 139.093,144.989C140.323,145.145 141.358,145.34 142.393,145.36C143.624,145.379 144.307,145.789 144.346,147.117C144.444,151.355 144.62,155.573 144.659,159.792C144.659,160.28 143.838,161.139 143.389,161.159C140.733,161.237 138.058,161.198 135.402,161.061C133.332,160.944 133.859,159.518 134.093,158.19C134.347,156.726 134.972,156.257 136.495,156.745C141.143,158.229 141.182,158.19 141.163,153.347C141.143,148.797 141.729,148.934 136.71,148.914C135.011,148.914 133.293,149.031 131.594,148.953C130.031,148.875 129.309,149.637 129.211,151.043C128.879,155.808 128.625,160.573 128.313,165.338C128.215,166.881 128.918,167.408 130.363,167.369C134.328,167.232 138.273,167.154 142.237,167.057C142.979,167.037 143.702,167.057 144.385,167.057C145.401,170.611 145.166,171.099 141.905,171.138C137.003,171.197 132.082,171.06 127.18,171.041C125.208,171.099 124.27,170.318 124.407,168.267L124.407,168.267ZM71.112,69.274C71.229,67.985 71.483,66.716 71.698,65.427C71.952,63.923 72.831,63.201 74.354,63.103C76.834,62.927 77.439,63.591 76.912,66.033C76.326,68.708 76.463,68.981 79.119,68.864C87.848,68.435 96.558,67.907 105.288,67.439C107.26,67.341 109.252,67.361 111.225,67.224C112.963,67.107 113.275,68.298 113.432,69.548C113.607,70.993 112.885,71.637 111.42,71.696C103.569,72.008 95.738,72.379 87.887,72.731L87.887,72.555C83.24,72.555 78.592,72.653 73.963,72.516C71.19,72.438 70.858,71.95 71.112,69.274L71.112,69.274ZM65.937,156.277C65.312,155.749 64.609,155.417 64.374,154.89C64.179,154.402 64.296,153.582 64.609,153.113C66.757,149.812 69.198,146.668 71.151,143.251C73.241,139.599 74.959,135.732 76.717,131.904C77.361,130.518 77.928,129.736 79.607,130.44C81.189,131.104 81.697,132.002 81.033,133.603C77.752,141.532 73.358,148.777 67.44,155.027C67.03,155.476 66.523,155.808 65.937,156.277L65.937,156.277ZM76.463,174.243C76.463,176.352 76.248,178.462 76.229,180.571C76.209,181.957 75.526,182.563 74.217,182.563C72.85,182.563 72.303,181.84 72.303,180.493C72.342,172.661 72.323,164.83 72.381,156.98C72.401,154.265 74.315,152.8 76.463,150.965C76.482,159.03 76.502,166.646 76.463,174.243L76.463,174.243ZM115.755,172.388C115.599,172.974 115.482,173.579 115.306,174.165C113.021,181.508 112.006,182.328 104.37,182.153C97.34,181.996 98.16,182.504 97.75,175.63C97.672,174.126 97.652,172.622 97.652,171.138C97.632,169.634 97.652,168.131 97.652,166.627L97.828,166.627L97.828,154.968C97.828,153.21 98.785,152.527 100.425,152.644C101.655,152.722 102.124,153.367 102.105,154.656C102.027,161.139 102.007,167.623 102.007,174.107C102.007,178.364 102.886,179.126 107.124,178.13C108.041,177.915 109.077,176.938 109.487,176.06C110.229,174.478 110.541,172.681 111.01,170.982C111.4,169.576 112.396,169.4 113.568,169.81C114.779,170.22 116.205,170.533 115.755,172.388ZM114.213,149.246C108.549,149.383 102.886,149.519 97.222,149.519C95.562,149.519 94.84,149.91 94.605,151.687C93.277,161.159 91.286,170.474 87.067,179.165C86.735,179.829 86.306,180.454 86.013,181.137C85.192,183.168 83.943,183.051 82.322,182.114C80.818,181.254 80.564,180.336 81.404,178.794C86.091,170.22 89.137,161.081 90.504,151.394C90.563,150.945 90.563,150.476 90.582,149.734C87.555,149.734 84.646,149.676 81.736,149.754C80.193,149.812 79.412,149.227 79.314,147.703C79.217,146.121 79.822,145.282 81.54,145.282C84.196,145.301 86.872,145.086 89.508,145.184C91.207,145.262 91.813,144.598 91.969,143.016C92.301,139.696 92.809,136.396 93.063,133.056C93.199,131.24 94.039,130.654 95.699,130.83C97.476,131.006 97.672,132.217 97.457,133.642C97.008,136.669 96.558,139.696 96.051,142.723C95.66,144.969 95.777,145.204 98.082,145.282C103.472,145.477 108.842,145.614 114.232,145.789C115.365,145.828 116.537,145.887 116.478,147.469C116.439,148.914 115.345,149.207 114.213,149.246L114.213,149.246ZM102.573,133.525C103.159,132.92 104.663,132.236 105.073,132.549C107.69,134.463 110.131,136.65 112.611,138.759C112.787,138.915 112.846,139.228 113.217,140.009C112.221,140.341 111.068,141.122 110.541,140.829C107.885,139.306 105.346,137.587 102.905,135.751C102.456,135.419 102.241,133.877 102.573,133.525L102.573,133.525ZM117.24,95.424C117.162,96.967 116.634,97.767 114.916,97.806C110.385,97.904 110.463,97.963 110.092,102.611C109.975,104.173 110.307,104.778 111.908,104.563C112.787,104.446 113.685,104.563 114.564,104.485C116.244,104.329 116.693,105.345 116.791,106.731C116.908,108.254 115.97,108.567 114.701,108.528C114.506,108.528 114.291,108.528 114.096,108.547C110.092,108.723 110.073,108.723 109.389,112.609C109.174,113.859 108.647,114.68 107.338,115.09C103.706,116.261 100.093,117.472 96.519,118.8C94.742,119.464 94.117,118.507 93.707,117.16C93.297,115.851 93.707,114.992 95.191,114.601C97.769,113.957 100.269,113.059 102.847,112.434C104.175,112.102 105.21,111.789 105.014,110.129C104.8,108.196 103.315,108.918 102.319,108.899C98.628,108.86 94.918,108.86 91.227,108.86L78.845,108.86C76.717,108.86 74.569,108.86 72.44,108.84C69.979,108.821 69.745,108.567 69.921,106.087C70.096,103.782 70.311,101.478 70.604,99.173C70.78,97.728 70.233,97.181 68.808,97.221C67.929,97.24 66.933,97.299 66.21,96.928C65.644,96.635 65.175,95.717 65.097,95.033C65.058,94.662 65.82,94.037 66.347,93.783C66.874,93.53 67.538,93.53 68.163,93.51C71.991,93.412 71.21,93.315 71.776,90.073C72.323,86.851 72.87,83.628 73.358,80.386C73.573,78.941 74.334,78.238 75.818,78.219C84.743,78.199 93.668,78.121 102.612,78.121C104.39,78.121 106.147,78.297 107.924,78.434C109.272,78.531 109.994,79.195 110.014,80.66C110.053,84.136 110.268,87.612 110.248,91.088C110.248,92.768 110.795,93.49 112.494,93.315C113.295,93.237 114.135,93.373 114.955,93.334C116.4,93.315 117.318,93.725 117.24,95.424ZM143.721,179.77C141.944,180.161 140.089,180.278 138.253,180.375C134.093,180.59 129.953,180.707 125.793,180.942C124.055,181.039 123.743,180.122 123.723,178.696C123.704,177.251 124.055,176.274 125.715,176.274L134.093,176.274L134.093,176.099C137.296,176.235 140.499,176.333 143.682,176.606C144.209,176.645 145.127,177.583 145.069,178.012C144.971,178.657 144.307,179.633 143.721,179.77L143.721,179.77ZM171.433,170.103C169.363,170.435 167.234,170.533 165.125,170.63C162.293,170.767 162.313,170.728 162.293,173.462C162.274,175.981 162.254,178.52 162.196,181.039C162.157,182.446 161.825,183.559 160.008,183.559C158.231,183.539 157.606,182.66 157.606,181.02C157.606,178.501 157.431,175.962 157.528,173.443C157.606,171.529 157.04,170.669 154.989,170.865C153.29,171.021 151.572,170.884 149.873,170.865C148.603,170.845 147.744,170.298 147.725,168.931C147.705,167.525 148.428,166.783 149.853,166.764C151.689,166.744 153.544,166.607 155.38,166.666C156.845,166.705 157.567,166.178 157.431,164.635C157.372,164.03 157.372,163.405 157.392,162.799C157.45,161.686 156.962,161.217 155.829,161.198C153.915,161.178 152.002,161.139 150.107,160.885C149.521,160.807 149.033,160.007 148.506,159.538C148.994,159.03 149.424,158.151 149.99,158.054C151.923,157.722 153.935,157.741 155.888,157.448C156.415,157.37 157.235,156.706 157.294,156.218C157.509,154.597 157.392,152.957 157.47,151.316C157.548,149.949 156.884,149.559 155.614,149.559C153.564,149.578 151.533,149.461 149.482,149.422C148.174,149.402 147.686,148.66 147.627,147.469C147.568,146.2 148.193,145.575 149.443,145.516C149.638,145.496 149.853,145.477 150.049,145.477L159.872,145.477L159.872,145.672C163.621,145.672 167.371,145.653 171.12,145.692C172.136,145.692 172.956,146.004 172.976,147.332C172.995,148.738 172.156,149.07 171.042,149.129C168.66,149.246 166.277,149.383 163.895,149.402C162.371,149.402 161.903,150.047 161.922,151.511C161.961,157.155 161.922,157.155 167.527,157.292C167.859,157.292 168.211,157.312 168.543,157.331C169.812,157.37 170.984,157.761 170.984,159.206C170.984,160.592 169.832,160.846 168.64,160.885C167.078,160.944 165.496,161.178 163.953,161.139C162.684,161.1 162.293,161.549 162.235,162.76C162.059,166.686 162.039,166.646 165.926,166.744C167.761,166.783 169.617,166.842 171.433,167.135C172.097,167.232 172.624,168.053 173.21,168.56C172.644,169.107 172.097,169.986 171.433,170.103L171.433,170.103Z" fill="#000" stroke="#00000000" stroke-width="1.0" stroke-miterlimit=""/>
		<path d="M91.657,92.768C90.133,93.901 88.63,95.092 87.087,96.205C85.661,97.24 85.368,98.392 86.52,99.818C87.848,101.439 89.176,103.06 90.856,105.11C89.196,105.188 88.063,105.286 86.931,105.286C83.669,105.306 80.388,105.306 77.127,105.306C74.803,105.306 74.412,104.876 74.686,102.493C75.076,98.978 75.506,95.463 75.955,91.967C76.287,89.409 76.756,86.851 77.049,84.292C77.205,82.886 77.713,82.203 79.217,82.222C81.755,82.281 84.294,82.242 87.067,82.242C86.559,83.335 86.208,84.097 85.856,84.839C87.868,86.597 89.762,88.335 91.735,89.995C92.926,90.991 92.867,91.85 91.657,92.768L91.657,92.768Z" fill="#000" stroke="#00000000" stroke-width="1.0" stroke-miterlimit=""/>
		<path d="M105.542,84.097C105.483,90.424 105.483,96.771 105.386,103.099C105.386,103.665 104.722,104.7 104.331,104.72C101.577,104.856 98.824,104.798 95.562,104.798C97.3,102.611 96.109,101.732 94.664,100.794C90.348,98.002 90.368,97.963 94.469,94.799C97.613,92.377 97.652,92.202 95.601,88.686C94.391,86.597 93.082,84.566 91.618,82.164C92.574,82.046 93.141,81.91 93.707,81.929C96.968,81.988 100.23,82.105 103.491,82.164C104.78,82.183 105.542,82.671 105.542,84.097L105.542,84.097ZM143.174,95.521C142.842,97.103 143.409,97.865 145.049,97.865C149.892,97.845 154.736,97.885 159.579,97.845C162.489,97.826 162.586,97.924 162.313,100.794C162.059,103.372 161.825,105.95 161.649,108.547C161.532,110.403 161.004,111.594 158.778,111.574C152.509,111.574 146.221,111.809 139.952,111.75C136.574,111.711 136.32,111.34 136.105,107.903C135.695,101.634 135.363,95.365 135.109,91.069C135.109,83.921 135.128,78.746 135.109,73.551C135.109,71.93 135.949,71.247 137.452,71.032C145.205,69.938 152.958,70.153 160.731,70.856C162.469,71.012 163.153,71.95 163.114,73.512C163.016,79.508 162.879,85.523 162.762,91.518C162.743,92.905 161.786,92.905 160.77,92.944C155.79,93.119 150.81,93.315 145.83,93.49C144.483,93.549 143.487,94.037 143.174,95.521L143.174,95.521Z" fill="#000" stroke="#00000000" stroke-width="1.0" stroke-miterlimit=""/>
	</svg>
