<?xml version="1.0" encoding="utf-8"?>
	<svg version="1.1" xmlns="http://www.w3.org/2000/svg" xmlns:xlink="http://www.w3.org/1999/xlink" x="0px" y="0px" width="240.0" height="240.0" xml:space="preserve">
		<path d="M68.883,33.397C100.053,15.534 138.457,15.534 169.628,33.397C200.798,51.261 220,84.273 220,120C220,175.228 174.895,220 119.255,220C97.033,220 76.49,212.858 59.831,200.76C64.747,199.307 69.884,197.411 75.159,194.969C88.548,188.717 84.779,182.266 81.616,179.933L81.52,179.864C78.34,177.592 71.978,168.609 89.77,158.047C107.562,147.484 129.713,138.047 156.098,134.753C164.588,133.572 174.794,133.436 179.702,133.174C184.611,132.902 197.471,130.142 197.471,118.421C197.471,106.712 184.874,103.555 178.249,101.317C171.624,99.08 138.901,87.076 138.901,87.076C138.901,87.076 116.521,50.846 96.44,64.475C91.566,67.53 92.367,78.592 99.129,83.225C89.781,81.545 74.369,84.997 75.159,93.788C75.96,102.578 88.191,107.11 109.862,103.464C113.637,102.669 118.912,105.44 112.55,110.767C109.164,113.14 94.45,117.183 62.23,111.459C39.313,107.384 25.86,104.319 19.996,102.876C25.057,73.959 42.77,48.362 68.883,33.397ZM139.255,96.377C142.802,96.377 145.686,99.239 145.686,102.76C145.686,106.281 142.814,109.143 139.255,109.143C135.709,109.143 132.825,106.281 132.825,102.76C132.825,99.239 135.709,96.377 139.255,96.377Z" fill="#000" stroke="#00000000" stroke-width="1.0" stroke-miterlimit=""/>
	</svg>
