<svg xmlns="http://www.w3.org/2000/svg" width="192" height="192" fill="none"><path stroke="#000" stroke-linecap="round" stroke-linejoin="round" stroke-width="12" d="M72.387 35.341a18.001 18.001 0 0 0-34.774 9.318m99.774 0a18.01 18.01 0 0 0-6.429-18.94 18 18 0 0 0-13.307-3.565 18 18 0 0 0-15.038 13.187M154 121c0 2.626-.336 5.227-.99 7.654s-1.61 4.631-2.818 6.488-2.64 3.33-4.217 4.336C144.398 140.483 142.707 141 141 141s-3.398-.517-4.975-1.522c-1.577-1.006-3.01-2.479-4.217-4.336-1.208-1.857-2.165-4.062-2.818-6.488A29.6 29.6 0 0 1 128 121c0-2.626.336-5.227.99-7.654s1.61-4.631 2.818-6.488 2.64-3.33 4.217-4.336c1.577-1.005 3.268-1.522 4.975-1.522s3.398.517 4.975 1.522c1.577 1.006 3.01 2.479 4.217 4.336 1.208 1.857 2.165 4.062 2.818 6.488.654 2.427.99 5.028.99 7.654"/><path stroke="#000" stroke-linecap="round" stroke-linejoin="round" stroke-width="8" d="M89 107c0 1.051-.103 2.091-.305 3.061-.2.971-.495 1.853-.867 2.596-.371.743-.812 1.332-1.297 1.734-.486.402-1.006.609-1.531.609s-1.045-.207-1.53-.609-.927-.991-1.298-1.734c-.372-.743-.666-1.625-.867-2.596-.202-.97-.305-2.01-.305-3.061s.103-2.091.305-3.061c.2-.971.495-1.853.867-2.596.371-.743.812-1.332 1.297-1.734C83.955 99.207 84.475 99 85 99s1.045.207 1.53.609.927.991 1.298 1.734c.372.743.666 1.625.867 2.596.202.97.305 2.01.305 3.061"/><path stroke="#000" stroke-linecap="round" stroke-linejoin="round" stroke-width="10" d="M108.623 139.523A14 14 0 0 1 92.876 133"/><path stroke="#000" stroke-linecap="round" stroke-linejoin="round" stroke-width="12" d="M37.61 44.66c6.395 21.418 10.593 40.494 13.317 56.907C58.167 145.186 55 170 55 170m82.39-125.34a1494 1494 0 0 1-12.375 41.098c4.728 1.846 9.068 4.188 12.876 6.958 5.107 3.714 9.158 8.124 11.922 12.977S154 115.747 154 121s-1.423 10.454-4.187 15.307-6.815 9.263-11.922 12.977-11.171 6.661-17.844 8.671c-5.106 1.539-10.493 2.506-15.978 2.875a108 108 0 0 0-.379 9.17M72.39 35.34c3.373 17.173 6.037 28.288 8.14 42.983a73.3 73.3 0 0 1 14.641-2.226c1.818-14.092 4.235-24.447 7.439-40.757"/></svg>