<?xml version="1.0" encoding="utf-8"?>
	<svg version="1.1" xmlns="http://www.w3.org/2000/svg" xmlns:xlink="http://www.w3.org/1999/xlink" x="0px" y="0px" width="240.0" height="240.0" xml:space="preserve">
		<path d="M68.09,144.284C81.051,158.058 97.671,162.923 116.133,165.047C113.954,168.838 111.882,172.463 109.786,176.072C109.169,177.134 108.124,176.78 107.249,176.639C88.719,173.642 72.036,166.941 59.141,152.634C58.538,151.964 58.126,150.266 56.7,152.064C46.105,165.42 31.48,171.648 15.376,175.106C11.017,176.042 6.547,176.456 2.132,177.143C0.377,177.416 -0.55,177.073 0.348,175.09C0.39,174.996 0.427,174.898 0.458,174.799C1.459,171.629 1.735,167.889 3.657,165.443C5.716,162.822 9.845,164.222 13.026,163.566C24.032,161.291 34.031,157.042 42.52,149.552C44.277,148 45.903,146.317 47.233,144.297C45.908,143.421 44.744,143.759 43.655,143.757C30.447,143.73 17.238,143.691 4.03,143.788C1.881,143.803 1.045,143.284 1.278,141.051C1.556,138.381 0.191,134.842 1.788,133.224C3.396,131.594 6.932,132.749 9.619,132.74C22.412,132.696 35.204,132.672 47.996,132.767C50.134,132.782 50.81,132.25 50.799,130.029C50.761,122.261 50.85,122.26 43.109,122.26C31.045,122.26 18.98,122.214 6.917,122.305C4.819,122.32 4.056,121.851 4.051,119.587C4.036,111.24 3.95,111.24 12.178,111.24C24.138,111.24 36.1,111.181 48.059,111.292C50.288,111.314 50.832,110.654 50.796,108.499C50.701,102.744 50.806,102.743 45.14,102.743C32.451,102.744 19.762,102.69 7.075,102.793C4.816,102.811 4.026,102.315 4.046,99.889C4.113,91.75 4.01,91.75 12.046,91.75C23.903,91.75 35.76,91.698 47.615,91.795C49.885,91.815 50.901,91.485 50.816,88.826C50.624,82.851 50.785,82.845 44.749,82.844C31.228,82.844 17.707,82.785 4.188,82.899C1.84,82.919 0.993,82.302 1.284,79.947C1.61,77.302 0.166,73.866 1.899,72.174C3.478,70.633 6.849,71.797 9.428,71.741C12.754,71.67 16.085,71.662 19.411,71.751C20.977,71.793 21.336,71.246 21.163,69.745C20.887,67.343 19.292,64.21 20.895,62.735C22.214,61.523 25.444,62.349 27.827,62.341C34.184,62.318 34.31,62.32 34.99,68.799C35.246,71.234 36.158,71.798 38.478,71.777C51.27,71.666 64.063,71.661 76.854,71.779C79.285,71.802 80.316,71.219 80.601,68.652C81.305,62.32 81.435,62.281 87.719,62.36C90.184,62.39 93.415,61.257 94.9,62.863C96.193,64.261 94.994,67.388 94.517,69.697C94.141,71.518 94.938,71.769 96.479,71.749C101.678,71.684 106.88,71.791 112.078,71.687C113.859,71.651 114.324,72.227 114.366,73.982C114.579,82.849 114.632,82.846 105.861,82.845C92.965,82.843 80.068,82.893 67.172,82.796C65.006,82.78 64.355,83.362 64.382,85.563C64.459,91.748 64.357,91.75 70.549,91.75C83.029,91.75 95.51,91.801 107.99,91.703C110.288,91.685 111.238,92.071 111.192,94.702C111.053,102.741 111.179,102.743 103.074,102.743C91.217,102.743 79.36,102.807 67.505,102.689C65.102,102.666 64.293,103.242 64.374,105.762C64.549,111.234 64.405,111.239 70.02,111.24C82.812,111.24 95.605,111.291 108.396,111.189C110.608,111.172 111.178,111.835 111.173,113.997C111.156,122.26 111.232,122.26 102.999,122.26C91.143,122.26 79.286,122.307 67.43,122.218C65.294,122.202 64.325,122.461 64.365,125.016C64.484,132.719 64.355,132.721 72.198,132.721C85.198,132.721 98.199,132.803 111.198,132.65C113.883,132.618 114.688,133.426 114.342,135.955C113.999,138.471 115.466,141.872 113.673,143.314C112.133,144.552 108.895,143.726 106.409,143.73C94.76,143.75 83.111,143.731 71.463,143.755C70.466,143.757 69.411,143.459 68.09,144.284" fill="#ff050400" stroke="#00000000" stroke-width="1.0" stroke-miterlimit=""/>
		<path d="M226.607,120.438C226.607,106.716 226.545,92.994 226.665,79.273C226.686,76.803 226.242,75.921 223.514,75.933C197.942,76.047 172.368,76.042 146.796,75.937C144.214,75.926 143.759,76.771 143.765,79.112C143.839,106.556 143.845,134 143.757,161.444C143.749,163.937 144.239,164.786 146.941,164.774C172.409,164.664 197.878,164.65 223.346,164.789C226.267,164.805 226.69,163.881 226.666,161.291C226.542,147.674 226.607,134.056 226.607,120.438M239.944,122.656C239.944,139.497 239.895,156.339 240,173.179C240.015,175.516 239.409,176.103 237.076,176.098C204.225,176.016 171.374,176.048 138.523,176.035C132.56,176.033 130.479,173.94 130.476,167.926C130.462,134.451 130.496,100.977 130.41,67.503C130.404,65.123 131.06,64.601 133.351,64.606C166.202,64.681 199.053,64.647 231.904,64.665C237.892,64.669 239.936,66.756 239.941,72.756C239.953,89.39 239.945,106.023 239.944,122.656" fill="#ff010100" stroke="#00000000" stroke-width="1.0" stroke-miterlimit=""/>
		<path d="M151.993,158.568C151.538,157.652 152.02,157.287 152.277,156.876C162.084,141.159 167.21,123.861 169.74,105.652C170.111,102.975 169.399,102.264 166.741,102.39C162.073,102.61 157.387,102.401 152.708,102.48C151.138,102.506 150.597,102.072 150.529,100.397C150.183,91.748 150.13,91.75 158.61,91.75C169.734,91.75 180.859,91.687 191.983,91.799C194.317,91.823 195.218,91.37 195.161,88.785C195.016,82.09 195.152,82.087 201.983,82.087C208.23,82.087 208.402,82.093 208.177,88.462C208.076,91.338 209.039,92.2 211.672,91.756C211.975,91.705 212.294,91.75 212.607,91.75C220.955,91.751 220.896,91.751 220.77,100.002C220.741,101.853 220.335,102.626 218.343,102.491C215.86,102.323 213.348,102.574 210.863,102.412C208.822,102.28 208.184,102.939 208.209,105.02C208.316,113.959 208.262,122.901 208.252,131.842C208.242,139.983 207.538,148.02 205.106,155.858C204.493,157.837 203.748,158.792 201.491,158.626C198.389,158.396 195.257,158.535 192.139,158.583C190.721,158.605 189.868,158.438 190.693,156.71C194.709,148.307 195.221,139.322 195.113,130.211C195.015,121.895 195.034,113.576 195.136,105.259C195.162,103.177 194.713,102.237 192.415,102.408C189.52,102.622 185.979,101.512 183.863,102.822C181.622,104.21 182.595,108.136 182.098,110.935C179.397,126.151 175.276,140.882 168.102,154.677C166.577,157.61 164.819,159.028 161.372,158.643C158.229,158.292 155.018,158.568 151.993,158.568" fill="#ff050400" stroke="#00000000" stroke-width="1.0" stroke-miterlimit=""/>
	</svg>
