<svg xmlns="http://www.w3.org/2000/svg" width="192" height="192" fill="none" stroke="#000" stroke-linecap="round" viewBox="0 0 192 192"><path fill="#000" stroke="none" d="M81.5 108.1c0 6.2 3.7 11.1 8.4 11.1s8.4-5 8.4-11.1c0-6.2-3.7-11.1-8.4-11.2s-8.4 5-8.4 11.2"/><path stroke-width="12" d="M36.7 46s-3.1-12.3 14-18.5 24 1.8 26.9 12.3S84 66.9 84 66.9s1.3 4.1 5.8 4.7 5.2-4.8 5.2-4.8l3.1-25s.8-9.7 5.2-14.2c4.8-4.9 10.5-6.2 17.6-5.4 14.5 1.6 18.6 13.5 16.9 24.7-.4 2.7-6.8 32.3-6.8 32.3s-2.1 5.5 2.9 7.6c8.1 3.3 21.4 14.9 21.5 30.6S144 143 139.3 146.9s-18.6 10.3-23.5 11.6c-4.8 1.4-7.8 2.5-8.5 5s-.8 4.1-3.1 5.2c-2.3 1.2-34.9 4.1-43-6.2s-7.8-14.3-8.3-32S50.5 97.8 36.7 46z"/><path stroke-width="8" d="M88.9 131.9c.3 1.4 1.1 5.8 7.3 9.6 8.1 5.1 16.8 2.5 17.6 2.2"/><path stroke-width="12" d="M149 99.9c-4.7 0-10.6 5.5-12.9 13.3-2.6 8.9 2.2 20.2 11.9 25.1"/></svg>