<svg width="192" height="192" viewBox="0 0 192 192" fill="none" xmlns="http://www.w3.org/2000/svg"><path d="m130 55 11 6-1 52-16 11-30 4-29-5-10-10-2-50 11-8" stroke="#000" stroke-width="10" stroke-linecap="round" stroke-linejoin="round"/><path d="m140 93-16 11-30 4-29-5-10-10m66 59 1-26m-49 20-1-21" stroke="#000" stroke-width="10" stroke-linecap="round" stroke-linejoin="round"/><circle cx="97" cy="53" r="32" stroke="#000" stroke-width="10" stroke-linecap="round" stroke-linejoin="round"/><circle cx="97" cy="55" r="14" stroke="#000" stroke-width="8" stroke-linecap="round" stroke-linejoin="round"/><path d="M104 165s0 6 16 6 16-6 16-6c0-4-4.913-12-16-12s-16 8-16 12Zm41-58s-6 0-6 16 6 16 6 16c4 0 12-4.913 12-16s-8-16-12-16ZM48 97s6 0 6 16-6 16-6 16c-4 0-12-4.913-12-16s8-16 12-16Zm7 62s0 6 16 6 16-6 16-6c0-4-4.913-12-16-12s-16 8-16 12Z" stroke="#000" stroke-width="10" stroke-linecap="round" stroke-linejoin="round"/></svg>