<svg xmlns="http://www.w3.org/2000/svg" width="192" height="192" fill="none"><path stroke="#000" stroke-linecap="round" stroke-linejoin="round" stroke-width="12" d="M92.69 138c42.697 0 77.31-34.355 77.31-76.733q-.002-3.678-.342-7.267C87.669 65.252 22 92.384 22 92.384 34.026 119.258 61.153 138 92.69 138"/><ellipse cx="59.366" cy="101.098" stroke="#000" stroke-linecap="round" stroke-linejoin="round" stroke-width="6" rx="1" ry="3" transform="rotate(-30 59.366 101.098)"/><ellipse cx="79.366" cy="96.098" stroke="#000" stroke-linecap="round" stroke-linejoin="round" stroke-width="6" rx="1" ry="3" transform="rotate(-30 79.366 96.098)"/><ellipse cx="95.366" cy="92.098" stroke="#000" stroke-linecap="round" stroke-linejoin="round" stroke-width="6" rx="1" ry="3" transform="rotate(-15 95.366 92.098)"/><ellipse cx="110.742" cy="86.156" stroke="#000" stroke-linecap="round" stroke-linejoin="round" stroke-width="6" rx="1" ry="3" transform="rotate(-15 110.742 86.156)"/><ellipse cx="126.742" cy="82.157" stroke="#000" stroke-linecap="round" stroke-linejoin="round" stroke-width="6" rx="1" ry="3" transform="rotate(-15 126.742 82.157)"/><ellipse cx="115.742" cy="108.157" stroke="#000" stroke-linecap="round" stroke-linejoin="round" stroke-width="6" rx="1" ry="3" transform="rotate(-15 115.742 108.157)"/><ellipse cx="132.742" cy="99.157" stroke="#000" stroke-linecap="round" stroke-linejoin="round" stroke-width="6" rx="1" ry="3" transform="rotate(15 132.742 99.157)"/><ellipse cx="143.742" cy="80.157" stroke="#000" stroke-linecap="round" stroke-linejoin="round" stroke-width="6" rx="1" ry="3" transform="rotate(15 143.742 80.157)"/><ellipse cx="97.366" cy="114.098" stroke="#000" stroke-linecap="round" stroke-linejoin="round" stroke-width="6" rx="1" ry="3" transform="rotate(-30 97.366 114.098)"/><ellipse cx="76.366" cy="115.098" stroke="#000" stroke-linecap="round" stroke-linejoin="round" stroke-width="6" rx="1" ry="3" transform="rotate(-30 76.366 115.098)"/></svg>