<svg xmlns="http://www.w3.org/2000/svg" width="192" height="192" fill="none" viewBox="0 0 192 192"><path stroke="#000" stroke-linejoin="round" stroke-width="10" d="m61.243 78.757 17.514-17.514a6 6 0 0 1 8.486 0l3.514 3.514a6 6 0 0 1 0 8.486L73.243 90.757a6 6 0 0 1-8.486 0l-3.514-3.514a6 6 0 0 1 0-8.486Z"/><path stroke="#000" stroke-linecap="round" stroke-linejoin="round" stroke-width="10" d="m54 138 84-84"/><path stroke="#000" stroke-linejoin="round" stroke-width="8" d="m94 136 4-4 4 4-4 4zm38-38 4-4 4 4-4 4z"/><path stroke="#000" stroke-linecap="round" stroke-linejoin="round" stroke-width="12" d="M22 96a24 24 0 0 1 7.03-16.97l50-50a24 24 0 0 1 33.941 0l50 50a24.003 24.003 0 0 1 0 33.941l-50 50a24.005 24.005 0 0 1-33.942 0l-50-50A24 24 0 0 1 22 96"/></svg>