<svg xmlns="http://www.w3.org/2000/svg" width="192" height="192" fill="none" viewBox="0 0 192 192"><path stroke="#000" stroke-linecap="round" stroke-linejoin="round" stroke-width="12" d="m63 87 24-24m-32 74 82-82"/><path stroke="#000" stroke-linejoin="round" stroke-width="8" d="m94 136 4-4 4 4-4 4zm38-38 4-4 4 4-4 4z"/><path stroke="#000" stroke-linecap="round" stroke-linejoin="round" stroke-width="12" d="M22 96a24 24 0 0 1 7.03-16.97l50-50a24 24 0 0 1 33.941 0l50 50a24.003 24.003 0 0 1 0 33.941l-50 50a24.005 24.005 0 0 1-33.942 0l-50-50A24 24 0 0 1 22 96"/></svg>