<svg width="192" height="192" viewBox="0 0 192 192" fill="none" xmlns="http://www.w3.org/2000/svg">
<mask id="path-1-outside-1_238_304" maskUnits="userSpaceOnUse" x="23.3599" y="61.2946" width="146" height="38" fill="black">
<rect fill="white" x="23.3599" y="61.2946" width="146" height="38"/>
<path fill-rule="evenodd" clip-rule="evenodd" d="M37.3599 67.5072C37.0079 67.5756 36.5039 67.75 36.2399 67.8948C35.9759 68.0396 35.6023 68.1584 35.4095 68.1592C35.2167 68.1596 35.0155 68.23 34.9627 68.3156C34.9099 68.4008 34.5623 68.6056 34.1903 68.77C33.4891 69.0804 31.0227 71.3316 30.6379 72.0124C30.5175 72.2256 30.1807 72.868 29.8895 73.44L29.3599 74.48V82.7576V91.0356L30.0799 91.7552C31.4691 93.144 33.7167 93.138 35.1123 91.742L35.8279 91.0264L35.8739 83.4732L35.9199 75.92L36.3079 75.28C38.2339 72.1032 42.9835 72.2428 44.4671 75.52C44.7791 76.21 44.7931 76.5464 44.8003 83.6L44.8083 90.96L45.5639 91.7C47.4987 93.594 50.8239 92.864 51.3399 90.432C51.4567 89.8828 51.5211 87.2076 51.5239 82.832C51.5279 75.7556 51.5883 74.9992 52.1903 74.5244C54.6687 72.5684 57.1559 72.4336 58.9499 74.1572C60.2087 75.3668 60.1599 75.0128 60.1599 82.9504C60.1599 91.0744 60.1355 90.8352 61.0475 91.7224C62.7791 93.4076 65.7439 93.0224 66.7287 90.9844C67.1519 90.1084 67.2147 75.9284 66.7999 74.9352C66.6679 74.6196 66.5599 74.2296 66.5599 74.0688C66.5599 73.5628 65.7087 72.102 64.7343 70.9364C61.3275 66.8608 53.2503 66.0372 48.9391 69.326C48.3647 69.764 47.4615 69.6724 47.1343 69.1432C47.0295 68.9736 45.7243 68.3448 44.3999 67.8256C43.3719 67.4232 38.8455 67.218 37.3599 67.5072ZM78.7999 67.8796C77.8059 68.1656 76.5251 68.7192 75.3759 69.3592C74.7699 69.6972 72.8919 71.386 72.4663 71.976C72.2539 72.2712 71.9719 72.6372 71.8399 72.7896C71.5615 73.1112 71.1291 73.8264 70.8667 74.4C70.7659 74.62 70.5475 75.096 70.3815 75.4576C70.2159 75.8192 70.0799 76.2244 70.0799 76.358C70.0799 76.4916 69.9559 76.8796 69.8039 77.2204C69.5819 77.7188 69.5271 78.3244 69.5239 80.32C69.5199 82.9044 69.5331 82.978 70.4375 85.44C71.2331 87.606 73.6975 90.4252 75.5251 91.26C75.8303 91.3996 76.1879 91.582 76.3199 91.6656C78.0051 92.732 82.1967 93.3952 84.6399 92.982C87.3659 92.5208 89.1571 92.01 89.9155 91.4776C90.1331 91.3248 90.4775 91.2 90.6807 91.2C90.8839 91.2 91.0903 91.0948 91.1399 90.966C91.1891 90.8376 91.3847 90.6836 91.5747 90.624C94.0295 89.8564 94.8531 86.7796 92.9975 85.3096C92.1955 84.6744 90.2759 84.5556 89.5815 85.098C89.3715 85.262 89.0199 85.4504 88.7999 85.5168C88.5799 85.5836 88.2919 85.7288 88.1599 85.84C88.0279 85.9512 87.7399 86.0952 87.5199 86.16C87.2999 86.2248 87.0119 86.3692 86.8799 86.4812C86.7479 86.5928 86.3879 86.7348 86.0799 86.7968C85.7719 86.8584 85.2115 87.0108 84.8343 87.1344C83.9595 87.422 82.4471 87.4236 81.5655 87.1376C81.1883 87.0152 80.6687 86.8664 80.4107 86.8072C79.2767 86.5464 77.4127 84.9844 77.1935 84.1116C77.1359 83.8812 76.9875 83.6092 76.8643 83.5068C76.6047 83.2916 76.5671 82.6968 76.7987 82.4652C76.8999 82.364 77.4915 82.3544 78.4387 82.4388C79.2535 82.512 82.8359 82.5508 86.3999 82.5256L92.8799 82.48L93.5999 81.9944C94.7999 81.1848 95.1243 78.3416 94.2383 76.3964C94.0631 76.012 93.9199 75.6236 93.9199 75.5336C93.9199 75.2568 92.9483 73.44 92.8003 73.44C92.7239 73.44 92.6203 73.3104 92.5699 73.1516C92.2663 72.1956 89.3959 69.552 87.9999 68.9432C87.7799 68.8472 87.3119 68.6372 86.9599 68.4768C84.6943 67.4432 81.2047 67.188 78.7999 67.8796ZM105.36 67.8432C104.92 68.0032 104.416 68.1448 104.24 68.1572C103.943 68.1788 103.283 68.4924 101.618 69.4056C99.8515 70.374 97.8131 73.1928 97.4411 75.182C97.2307 76.3076 97.2263 90.2948 97.4359 91.0268C98.2027 93.6996 103.063 93.7096 103.836 91.04C103.934 90.7004 104 87.7088 104.003 83.44C104.007 76.7076 104.021 76.3684 104.332 75.68C104.67 74.934 105.535 73.92 105.833 73.92C105.927 73.92 106.273 73.776 106.601 73.6C107.415 73.164 109.257 73.164 110.16 73.6C110.512 73.77 110.86 73.9116 110.934 73.9144C111.24 73.9268 112.044 74.8544 112.409 75.6156L112.8 76.4308V83.7332V91.0356L113.24 91.668C114.417 93.3604 117.201 93.5436 118.716 92.028C119.479 91.2652 119.518 90.8404 119.519 83.2348C119.52 75.5188 119.527 75.45 120.432 74.6344C122.432 72.8316 125.541 72.8132 127.253 74.5936C128.161 75.538 128.16 75.5228 128.16 83.37C128.16 89.9256 128.185 90.6372 128.438 91.0952C129.935 93.8144 133.484 93.7844 134.835 91.0412C135.185 90.3304 135.19 90.2188 135.195 83.4072L135.2 76.4944L134.781 75.0332C133.96 72.1728 131.967 69.8688 129.201 68.582C125.564 66.8904 119.167 67.4172 116.998 69.5868C116.422 70.162 116.295 70.1816 115.713 69.7828C113.283 68.1176 111.696 67.636 108.48 67.5872C106.574 67.5584 106.017 67.604 105.36 67.8432ZM146.793 67.8956C145.456 68.3044 144.447 68.74 143.68 69.2404C143.372 69.4416 142.982 69.6944 142.813 69.8028C140.918 71.022 138.591 74.4048 137.995 76.8096C137.854 77.3764 137.673 78.092 137.593 78.4C137.108 80.2664 137.731 83.9888 138.928 86.3812C139.578 87.6788 142.042 90.56 142.501 90.56C142.594 90.56 142.801 90.704 142.96 90.88C143.119 91.056 143.337 91.2 143.443 91.2C143.549 91.2 143.82 91.344 144.043 91.52C144.267 91.696 144.583 91.8404 144.745 91.8412C144.907 91.8416 145.256 91.9852 145.52 92.16C145.784 92.3348 146.189 92.4784 146.42 92.4788C146.651 92.4796 147.155 92.5944 147.54 92.7344C148.456 93.0676 151.303 93.2016 152.72 92.9784C154.68 92.6696 156.066 92.3496 156.56 92.092C156.824 91.9544 157.127 91.8416 157.235 91.8408C157.419 91.84 158.517 91.346 159.04 91.0288C159.172 90.9488 159.532 90.7432 159.84 90.5724C161.448 89.6788 162.868 87.2872 162.08 86.8C161.992 86.7456 161.92 86.5764 161.92 86.424C161.92 86.2712 161.611 85.8436 161.234 85.4732C160.134 84.3944 158.96 84.464 156.386 85.7604C155.338 86.2884 154.228 86.7676 153.92 86.8252C153.612 86.8832 153.128 87.0268 152.845 87.1452C152.174 87.4252 150.593 87.4196 149.725 87.1344C149.348 87.0108 148.788 86.8572 148.48 86.7936C148.172 86.7304 147.748 86.5436 147.538 86.3792C147.328 86.2148 147.083 86.08 146.993 86.08C146.789 86.08 145.282 84.4588 145.281 84.2376C145.28 84.1484 145.142 83.8184 144.974 83.5044C144.414 82.4592 144.091 82.5004 152.908 82.4896C160.014 82.4812 160.932 82.4512 161.36 82.2152C162.562 81.552 163.083 80.1932 162.751 78.5864C162.646 78.0772 162.56 77.4984 162.56 77.3C162.56 75.2108 159.486 71.0152 156.719 69.3256C153.955 67.6384 149.66 67.0196 146.793 67.8956ZM83.5127 73.1972C85.3139 73.4428 87.3819 75.5604 87.4207 77.1988L87.4399 78L82.5315 78.1056C79.8319 78.1636 77.4967 78.2816 77.3427 78.368C76.7867 78.6792 76.2547 76.8968 76.8023 76.5584C76.8915 76.5032 77.0631 76.2224 77.1835 75.9344C77.8891 74.246 80.5787 72.7832 82.4799 73.0544C82.6559 73.0792 83.1207 73.1436 83.5127 73.1972ZM151.52 73.1996C153.388 73.452 155.433 75.4956 155.437 77.1144L155.44 78L151.36 78.0972C149.116 78.1508 146.869 78.2048 146.366 78.2172C145.832 78.2304 145.369 78.33 145.251 78.456C144.71 79.0352 144.469 77.4368 144.96 76.5216C145.136 76.1936 145.28 75.8516 145.281 75.7624C145.283 75.4724 146.788 73.9656 147.2 73.842C147.42 73.776 147.71 73.626 147.844 73.5088C148.098 73.2864 149.923 72.9724 150.48 73.0552C150.656 73.0812 151.124 73.1464 151.52 73.1996Z"/>
</mask>
<path fill-rule="evenodd" clip-rule="evenodd" d="M37.3599 67.5072C37.0079 67.5756 36.5039 67.75 36.2399 67.8948C35.9759 68.0396 35.6023 68.1584 35.4095 68.1592C35.2167 68.1596 35.0155 68.23 34.9627 68.3156C34.9099 68.4008 34.5623 68.6056 34.1903 68.77C33.4891 69.0804 31.0227 71.3316 30.6379 72.0124C30.5175 72.2256 30.1807 72.868 29.8895 73.44L29.3599 74.48V82.7576V91.0356L30.0799 91.7552C31.4691 93.144 33.7167 93.138 35.1123 91.742L35.8279 91.0264L35.8739 83.4732L35.9199 75.92L36.3079 75.28C38.2339 72.1032 42.9835 72.2428 44.4671 75.52C44.7791 76.21 44.7931 76.5464 44.8003 83.6L44.8083 90.96L45.5639 91.7C47.4987 93.594 50.8239 92.864 51.3399 90.432C51.4567 89.8828 51.5211 87.2076 51.5239 82.832C51.5279 75.7556 51.5883 74.9992 52.1903 74.5244C54.6687 72.5684 57.1559 72.4336 58.9499 74.1572C60.2087 75.3668 60.1599 75.0128 60.1599 82.9504C60.1599 91.0744 60.1355 90.8352 61.0475 91.7224C62.7791 93.4076 65.7439 93.0224 66.7287 90.9844C67.1519 90.1084 67.2147 75.9284 66.7999 74.9352C66.6679 74.6196 66.5599 74.2296 66.5599 74.0688C66.5599 73.5628 65.7087 72.102 64.7343 70.9364C61.3275 66.8608 53.2503 66.0372 48.9391 69.326C48.3647 69.764 47.4615 69.6724 47.1343 69.1432C47.0295 68.9736 45.7243 68.3448 44.3999 67.8256C43.3719 67.4232 38.8455 67.218 37.3599 67.5072ZM78.7999 67.8796C77.8059 68.1656 76.5251 68.7192 75.3759 69.3592C74.7699 69.6972 72.8919 71.386 72.4663 71.976C72.2539 72.2712 71.9719 72.6372 71.8399 72.7896C71.5615 73.1112 71.1291 73.8264 70.8667 74.4C70.7659 74.62 70.5475 75.096 70.3815 75.4576C70.2159 75.8192 70.0799 76.2244 70.0799 76.358C70.0799 76.4916 69.9559 76.8796 69.8039 77.2204C69.5819 77.7188 69.5271 78.3244 69.5239 80.32C69.5199 82.9044 69.5331 82.978 70.4375 85.44C71.2331 87.606 73.6975 90.4252 75.5251 91.26C75.8303 91.3996 76.1879 91.582 76.3199 91.6656C78.0051 92.732 82.1967 93.3952 84.6399 92.982C87.3659 92.5208 89.1571 92.01 89.9155 91.4776C90.1331 91.3248 90.4775 91.2 90.6807 91.2C90.8839 91.2 91.0903 91.0948 91.1399 90.966C91.1891 90.8376 91.3847 90.6836 91.5747 90.624C94.0295 89.8564 94.8531 86.7796 92.9975 85.3096C92.1955 84.6744 90.2759 84.5556 89.5815 85.098C89.3715 85.262 89.0199 85.4504 88.7999 85.5168C88.5799 85.5836 88.2919 85.7288 88.1599 85.84C88.0279 85.9512 87.7399 86.0952 87.5199 86.16C87.2999 86.2248 87.0119 86.3692 86.8799 86.4812C86.7479 86.5928 86.3879 86.7348 86.0799 86.7968C85.7719 86.8584 85.2115 87.0108 84.8343 87.1344C83.9595 87.422 82.4471 87.4236 81.5655 87.1376C81.1883 87.0152 80.6687 86.8664 80.4107 86.8072C79.2767 86.5464 77.4127 84.9844 77.1935 84.1116C77.1359 83.8812 76.9875 83.6092 76.8643 83.5068C76.6047 83.2916 76.5671 82.6968 76.7987 82.4652C76.8999 82.364 77.4915 82.3544 78.4387 82.4388C79.2535 82.512 82.8359 82.5508 86.3999 82.5256L92.8799 82.48L93.5999 81.9944C94.7999 81.1848 95.1243 78.3416 94.2383 76.3964C94.0631 76.012 93.9199 75.6236 93.9199 75.5336C93.9199 75.2568 92.9483 73.44 92.8003 73.44C92.7239 73.44 92.6203 73.3104 92.5699 73.1516C92.2663 72.1956 89.3959 69.552 87.9999 68.9432C87.7799 68.8472 87.3119 68.6372 86.9599 68.4768C84.6943 67.4432 81.2047 67.188 78.7999 67.8796ZM105.36 67.8432C104.92 68.0032 104.416 68.1448 104.24 68.1572C103.943 68.1788 103.283 68.4924 101.618 69.4056C99.8515 70.374 97.8131 73.1928 97.4411 75.182C97.2307 76.3076 97.2263 90.2948 97.4359 91.0268C98.2027 93.6996 103.063 93.7096 103.836 91.04C103.934 90.7004 104 87.7088 104.003 83.44C104.007 76.7076 104.021 76.3684 104.332 75.68C104.67 74.934 105.535 73.92 105.833 73.92C105.927 73.92 106.273 73.776 106.601 73.6C107.415 73.164 109.257 73.164 110.16 73.6C110.512 73.77 110.86 73.9116 110.934 73.9144C111.24 73.9268 112.044 74.8544 112.409 75.6156L112.8 76.4308V83.7332V91.0356L113.24 91.668C114.417 93.3604 117.201 93.5436 118.716 92.028C119.479 91.2652 119.518 90.8404 119.519 83.2348C119.52 75.5188 119.527 75.45 120.432 74.6344C122.432 72.8316 125.541 72.8132 127.253 74.5936C128.161 75.538 128.16 75.5228 128.16 83.37C128.16 89.9256 128.185 90.6372 128.438 91.0952C129.935 93.8144 133.484 93.7844 134.835 91.0412C135.185 90.3304 135.19 90.2188 135.195 83.4072L135.2 76.4944L134.781 75.0332C133.96 72.1728 131.967 69.8688 129.201 68.582C125.564 66.8904 119.167 67.4172 116.998 69.5868C116.422 70.162 116.295 70.1816 115.713 69.7828C113.283 68.1176 111.696 67.636 108.48 67.5872C106.574 67.5584 106.017 67.604 105.36 67.8432ZM146.793 67.8956C145.456 68.3044 144.447 68.74 143.68 69.2404C143.372 69.4416 142.982 69.6944 142.813 69.8028C140.918 71.022 138.591 74.4048 137.995 76.8096C137.854 77.3764 137.673 78.092 137.593 78.4C137.108 80.2664 137.731 83.9888 138.928 86.3812C139.578 87.6788 142.042 90.56 142.501 90.56C142.594 90.56 142.801 90.704 142.96 90.88C143.119 91.056 143.337 91.2 143.443 91.2C143.549 91.2 143.82 91.344 144.043 91.52C144.267 91.696 144.583 91.8404 144.745 91.8412C144.907 91.8416 145.256 91.9852 145.52 92.16C145.784 92.3348 146.189 92.4784 146.42 92.4788C146.651 92.4796 147.155 92.5944 147.54 92.7344C148.456 93.0676 151.303 93.2016 152.72 92.9784C154.68 92.6696 156.066 92.3496 156.56 92.092C156.824 91.9544 157.127 91.8416 157.235 91.8408C157.419 91.84 158.517 91.346 159.04 91.0288C159.172 90.9488 159.532 90.7432 159.84 90.5724C161.448 89.6788 162.868 87.2872 162.08 86.8C161.992 86.7456 161.92 86.5764 161.92 86.424C161.92 86.2712 161.611 85.8436 161.234 85.4732C160.134 84.3944 158.96 84.464 156.386 85.7604C155.338 86.2884 154.228 86.7676 153.92 86.8252C153.612 86.8832 153.128 87.0268 152.845 87.1452C152.174 87.4252 150.593 87.4196 149.725 87.1344C149.348 87.0108 148.788 86.8572 148.48 86.7936C148.172 86.7304 147.748 86.5436 147.538 86.3792C147.328 86.2148 147.083 86.08 146.993 86.08C146.789 86.08 145.282 84.4588 145.281 84.2376C145.28 84.1484 145.142 83.8184 144.974 83.5044C144.414 82.4592 144.091 82.5004 152.908 82.4896C160.014 82.4812 160.932 82.4512 161.36 82.2152C162.562 81.552 163.083 80.1932 162.751 78.5864C162.646 78.0772 162.56 77.4984 162.56 77.3C162.56 75.2108 159.486 71.0152 156.719 69.3256C153.955 67.6384 149.66 67.0196 146.793 67.8956ZM83.5127 73.1972C85.3139 73.4428 87.3819 75.5604 87.4207 77.1988L87.4399 78L82.5315 78.1056C79.8319 78.1636 77.4967 78.2816 77.3427 78.368C76.7867 78.6792 76.2547 76.8968 76.8023 76.5584C76.8915 76.5032 77.0631 76.2224 77.1835 75.9344C77.8891 74.246 80.5787 72.7832 82.4799 73.0544C82.6559 73.0792 83.1207 73.1436 83.5127 73.1972ZM151.52 73.1996C153.388 73.452 155.433 75.4956 155.437 77.1144L155.44 78L151.36 78.0972C149.116 78.1508 146.869 78.2048 146.366 78.2172C145.832 78.2304 145.369 78.33 145.251 78.456C144.71 79.0352 144.469 77.4368 144.96 76.5216C145.136 76.1936 145.28 75.8516 145.281 75.7624C145.283 75.4724 146.788 73.9656 147.2 73.842C147.42 73.776 147.71 73.626 147.844 73.5088C148.098 73.2864 149.923 72.9724 150.48 73.0552C150.656 73.0812 151.124 73.1464 151.52 73.1996Z" stroke="black" stroke-width="12" mask="url(#path-1-outside-1_238_304)"/>
<mask id="path-2-outside-2_238_304" maskUnits="userSpaceOnUse" x="23.812" y="89.6911" width="145" height="42" fill="black">
<rect fill="white" x="23.812" y="89.6911" width="145" height="42"/>
<path fill-rule="evenodd" clip-rule="evenodd" d="M128.677 97.0128C127.818 97.49 127.52 98.254 127.52 99.98C127.52 101.823 127.383 102.08 126.4 102.08C126.06 102.08 125.688 102.186 125.572 102.314C125.011 102.936 124.921 103.106 124.843 103.687C124.768 104.244 124.819 104.367 125.32 104.836C126.215 105.673 126.36 105.76 126.856 105.76C127.526 105.76 127.52 105.713 127.52 111.554C127.52 117.94 127.665 118.4 129.68 118.4C131.632 118.4 131.748 118.022 131.804 111.44C131.856 105.411 131.831 105.541 132.89 105.712C134.115 105.912 135.202 105.01 135.195 103.8C135.186 102.446 134.294 101.786 132.792 102.022C131.989 102.148 131.884 101.93 131.815 99.9996C131.718 97.3 130.407 96.052 128.677 97.0128ZM99.44 101.966C98.1721 102.647 98.2512 102.11 98.2452 110.085L98.24 117.209L98.8184 117.805C99.7036 118.716 101.004 118.694 101.809 117.753C102.542 116.897 102.56 116.76 102.56 112.155V108.19L103.326 107.395C103.782 106.922 104.295 106.556 104.593 106.49C104.868 106.43 105.13 106.286 105.174 106.17C105.218 106.055 105.528 105.909 105.862 105.846C108.191 105.41 108.618 103.011 106.557 101.937C105.658 101.468 104.158 101.829 103.468 102.68C103.094 103.142 102.864 103.134 102.401 102.642C101.491 101.672 100.434 101.431 99.44 101.966ZM35.44 102.672C34.824 102.802 34.212 103.002 34.08 103.116C33.948 103.229 33.6204 103.432 33.3524 103.568C32.4796 104.01 31.4704 105.12 30.9252 106.24C30.7752 106.548 30.566 106.908 30.4596 107.04C29.4756 108.264 29.6409 112.415 30.7657 114.72C32.5849 118.448 38.4424 120.008 40.646 117.353C41.272 116.599 41.5188 117.512 41.036 118.796C40.3568 120.6 39.506 121.05 37.0144 120.922C35.8324 120.861 35.4648 120.78 35.1128 120.503C34.8733 120.314 34.5748 120.16 34.4504 120.16C34.326 120.16 34.0056 120.047 33.7388 119.909C32.0604 119.041 30.608 121.806 32.04 123.142C32.8356 123.884 33.7264 124.33 34.906 124.576C35.496 124.699 36.1684 124.872 36.3996 124.96C37.4228 125.349 40.032 124.931 41.7524 124.103C42.4952 123.745 44.48 121.883 44.48 121.543C44.48 121.436 44.6192 121.074 44.7896 120.741C45.3868 119.569 45.7656 106.756 45.28 104.142C44.9768 102.509 42.9528 102.092 41.6508 103.394L41.0672 103.978L40.4136 103.45C39.2764 102.532 37.4436 102.245 35.44 102.672ZM52.64 102.653C51.5528 102.884 51.1756 103.056 49.816 103.94C48.2388 104.966 47.064 106.841 46.7244 108.877C46.6216 109.491 46.4668 110.079 46.3804 110.184C46.276 110.31 46.3028 110.659 46.4608 111.226C46.5917 111.696 46.746 112.404 46.8041 112.8C47.1056 114.853 49.0972 117.141 51.3601 118.034C53.2008 118.76 56.7628 118.836 58.054 118.176C58.2884 118.056 58.7192 117.907 59.0116 117.844C59.6484 117.707 61.3188 116.627 61.6696 116.126C62.6924 114.666 60.9136 112.779 59.36 113.676C59.14 113.802 58.78 113.982 58.56 114.076C58.34 114.169 57.8812 114.398 57.5408 114.584C56.874 114.948 54.6028 115.088 53.4284 114.838C52.4272 114.624 51.1872 113.347 51.1504 112.492L51.1201 111.783L56.32 111.821L61.52 111.859L62 111.341C62.748 110.533 62.656 109.076 61.734 107.12C60.084 103.62 56.4612 101.841 52.64 102.653ZM71.92 102.475C71.832 102.502 71.3524 102.608 70.8544 102.71C70.3128 102.822 69.7788 103.054 69.5256 103.289C69.034 103.744 68.4208 103.694 67.9548 103.159C67.2984 102.406 65.2648 102.595 64.6 103.472L64.16 104.052V110.586V117.12L64.8 117.76C65.7692 118.729 67.0636 118.717 67.9076 117.731L68.48 117.062V112.526C68.48 107.399 68.504 107.268 69.6073 106.394C71.1032 105.21 73.6956 105.907 74.2617 107.646C74.386 108.029 74.4744 109.748 74.51 112.48C74.5736 117.36 74.5684 117.32 75.2424 117.935C76.2076 118.816 77.9092 118.496 78.542 117.314C78.7932 116.844 78.7856 107.282 78.5328 106.279C77.9232 103.857 74.2584 101.749 71.92 102.475ZM86.72 102.658C84.238 103.195 82.5956 104.552 81.2436 107.182C80.9996 107.657 80.8 108.222 80.8 108.438C80.8 108.654 80.6848 109.228 80.5436 109.712C80.3088 110.521 80.3088 110.67 80.5436 111.508C80.6848 112.01 80.8 112.581 80.8 112.777C80.8 114.244 83.374 117.359 84.9848 117.841C85.1912 117.903 85.506 118.045 85.684 118.157C86.6408 118.758 91.0036 118.758 92.1656 118.157C92.3884 118.042 92.8384 117.897 93.1656 117.836C93.4924 117.774 93.76 117.669 93.76 117.602C93.76 117.534 93.9796 117.388 94.2476 117.277C95.9 116.592 96.5372 114.741 95.4312 113.837C94.7312 113.264 94.082 113.332 92.4084 114.152C89.0672 115.788 84.946 114.754 85.1524 112.331L85.2 111.774L90.358 111.821L95.5164 111.868L96.0184 111.366C96.5948 110.79 96.6404 108.914 96.102 107.92C95.9588 107.656 95.8416 107.355 95.8408 107.251C95.8372 106.512 93.4324 103.952 92.148 103.318C90.4872 102.5 88.5412 102.263 86.72 102.658ZM113.76 102.694C111.731 103.145 108.8 105.487 108.8 106.657C108.8 106.701 108.653 107.061 108.473 107.456C107.543 109.496 107.921 112.9 109.37 115.546C109.736 116.213 111.309 117.567 112.216 117.994C113.852 118.766 117.022 118.856 117.611 118.147C117.714 118.022 117.897 117.92 118.016 117.92C118.135 117.92 118.35 117.74 118.495 117.52C118.852 116.974 119.072 117.014 119.803 117.76C121.053 119.035 123.033 118.639 123.493 117.022C123.844 115.785 123.74 104.548 123.37 103.733C122.866 102.623 121.052 102.259 120.264 103.109C119.698 103.72 119.134 103.785 118.43 103.319C117.218 102.517 115.556 102.294 113.76 102.694ZM141.12 102.713C138.997 103.217 136.193 105.372 136.156 106.528C136.154 106.59 136.012 106.82 135.84 107.04C135.668 107.26 135.526 107.606 135.524 107.81C135.522 108.014 135.406 108.529 135.266 108.956C134.818 110.328 135.11 112.568 135.975 114.39C136.528 115.554 138.529 117.584 139.372 117.837C139.586 117.901 139.915 118.051 140.104 118.17C141.128 118.814 144.793 118.741 146.229 118.047C148.359 117.018 150.56 114.544 150.56 113.18C150.56 112.992 150.668 112.58 150.8 112.265C151.103 111.54 151.11 109.794 150.814 109.003C150.69 108.672 150.546 108.158 150.494 107.861C149.884 104.356 145.149 101.756 141.12 102.713ZM154.308 102.703C153.257 103.18 153.264 103.12 153.315 110.675L153.36 117.419L153.83 117.91C154.523 118.633 156.006 118.63 156.72 117.902L157.2 117.414L157.296 113.467C157.422 108.325 157.69 107.452 159.247 107.11C159.527 107.048 159.9 106.908 160.078 106.797C160.255 106.686 160.652 106.55 160.96 106.493C163.027 106.113 163.146 103.111 161.115 102.595C159.971 102.305 158.865 102.883 158.024 104.211C157.695 104.73 157.385 104.603 157.203 103.874C156.904 102.672 155.566 102.132 154.308 102.703ZM56.5888 106.512C57.78 107.488 58.2784 108.757 57.6104 109.114C57.4404 109.206 56.3364 109.28 55.1572 109.28C53.978 109.28 52.6017 109.363 52.0984 109.464C50.9025 109.704 50.788 109.589 51.05 108.417C51.5844 106.03 54.6952 104.96 56.5888 106.512ZM90.24 106.178C90.372 106.299 90.714 106.585 91 106.813C91.286 107.042 91.52 107.321 91.52 107.435C91.52 107.548 91.628 107.73 91.76 107.84C92.0476 108.079 92.0764 108.82 91.808 109.088C91.6768 109.219 90.9 109.28 89.3548 109.28C88.1108 109.28 86.6816 109.363 86.1784 109.464C84.9968 109.701 84.868 109.585 85.1032 108.49C85.3832 107.183 86.2856 106.25 87.6 105.907C88.2592 105.735 89.9472 105.908 90.24 106.178ZM38.8192 106.422C40.232 106.777 41.588 109.28 41.3648 111.12C41.1768 112.672 40.9036 113.573 40.566 113.756C39.9188 114.106 39.5496 114.336 39.2989 114.544C38.396 115.294 35.9752 114.787 35.1236 113.671C32.5332 110.274 34.9892 105.457 38.8192 106.422ZM117.508 106.594C118.591 107.164 119.52 109.021 119.52 110.617C119.52 112.164 119.08 113.92 118.692 113.92C118.348 113.92 117.839 114.194 117.397 114.616C116.913 115.079 114.836 114.942 114.104 114.398C111.389 112.383 111.932 107.023 114.914 106.403C115.7 106.239 117.02 106.336 117.508 106.594ZM144.08 106.415C144.858 106.626 146.026 107.712 146.168 108.357C146.224 108.613 146.371 109.015 146.494 109.251C146.783 109.804 146.784 111.249 146.495 111.896C146.371 112.173 146.229 112.58 146.179 112.8C146.097 113.158 145.574 113.792 144.891 114.362C144.308 114.849 143.118 115.016 141.931 114.778C140.237 114.44 138.736 110.834 139.599 109.178C139.73 108.926 139.838 108.57 139.839 108.386C139.843 107.09 142.32 105.939 144.08 106.415Z"/>
</mask>
<path fill-rule="evenodd" clip-rule="evenodd" d="M128.677 97.0128C127.818 97.49 127.52 98.254 127.52 99.98C127.52 101.823 127.383 102.08 126.4 102.08C126.06 102.08 125.688 102.186 125.572 102.314C125.011 102.936 124.921 103.106 124.843 103.687C124.768 104.244 124.819 104.367 125.32 104.836C126.215 105.673 126.36 105.76 126.856 105.76C127.526 105.76 127.52 105.713 127.52 111.554C127.52 117.94 127.665 118.4 129.68 118.4C131.632 118.4 131.748 118.022 131.804 111.44C131.856 105.411 131.831 105.541 132.89 105.712C134.115 105.912 135.202 105.01 135.195 103.8C135.186 102.446 134.294 101.786 132.792 102.022C131.989 102.148 131.884 101.93 131.815 99.9996C131.718 97.3 130.407 96.052 128.677 97.0128ZM99.44 101.966C98.1721 102.647 98.2512 102.11 98.2452 110.085L98.24 117.209L98.8184 117.805C99.7036 118.716 101.004 118.694 101.809 117.753C102.542 116.897 102.56 116.76 102.56 112.155V108.19L103.326 107.395C103.782 106.922 104.295 106.556 104.593 106.49C104.868 106.43 105.13 106.286 105.174 106.17C105.218 106.055 105.528 105.909 105.862 105.846C108.191 105.41 108.618 103.011 106.557 101.937C105.658 101.468 104.158 101.829 103.468 102.68C103.094 103.142 102.864 103.134 102.401 102.642C101.491 101.672 100.434 101.431 99.44 101.966ZM35.44 102.672C34.824 102.802 34.212 103.002 34.08 103.116C33.948 103.229 33.6204 103.432 33.3524 103.568C32.4796 104.01 31.4704 105.12 30.9252 106.24C30.7752 106.548 30.566 106.908 30.4596 107.04C29.4756 108.264 29.6409 112.415 30.7657 114.72C32.5849 118.448 38.4424 120.008 40.646 117.353C41.272 116.599 41.5188 117.512 41.036 118.796C40.3568 120.6 39.506 121.05 37.0144 120.922C35.8324 120.861 35.4648 120.78 35.1128 120.503C34.8733 120.314 34.5748 120.16 34.4504 120.16C34.326 120.16 34.0056 120.047 33.7388 119.909C32.0604 119.041 30.608 121.806 32.04 123.142C32.8356 123.884 33.7264 124.33 34.906 124.576C35.496 124.699 36.1684 124.872 36.3996 124.96C37.4228 125.349 40.032 124.931 41.7524 124.103C42.4952 123.745 44.48 121.883 44.48 121.543C44.48 121.436 44.6192 121.074 44.7896 120.741C45.3868 119.569 45.7656 106.756 45.28 104.142C44.9768 102.509 42.9528 102.092 41.6508 103.394L41.0672 103.978L40.4136 103.45C39.2764 102.532 37.4436 102.245 35.44 102.672ZM52.64 102.653C51.5528 102.884 51.1756 103.056 49.816 103.94C48.2388 104.966 47.064 106.841 46.7244 108.877C46.6216 109.491 46.4668 110.079 46.3804 110.184C46.276 110.31 46.3028 110.659 46.4608 111.226C46.5917 111.696 46.746 112.404 46.8041 112.8C47.1056 114.853 49.0972 117.141 51.3601 118.034C53.2008 118.76 56.7628 118.836 58.054 118.176C58.2884 118.056 58.7192 117.907 59.0116 117.844C59.6484 117.707 61.3188 116.627 61.6696 116.126C62.6924 114.666 60.9136 112.779 59.36 113.676C59.14 113.802 58.78 113.982 58.56 114.076C58.34 114.169 57.8812 114.398 57.5408 114.584C56.874 114.948 54.6028 115.088 53.4284 114.838C52.4272 114.624 51.1872 113.347 51.1504 112.492L51.1201 111.783L56.32 111.821L61.52 111.859L62 111.341C62.748 110.533 62.656 109.076 61.734 107.12C60.084 103.62 56.4612 101.841 52.64 102.653ZM71.92 102.475C71.832 102.502 71.3524 102.608 70.8544 102.71C70.3128 102.822 69.7788 103.054 69.5256 103.289C69.034 103.744 68.4208 103.694 67.9548 103.159C67.2984 102.406 65.2648 102.595 64.6 103.472L64.16 104.052V110.586V117.12L64.8 117.76C65.7692 118.729 67.0636 118.717 67.9076 117.731L68.48 117.062V112.526C68.48 107.399 68.504 107.268 69.6073 106.394C71.1032 105.21 73.6956 105.907 74.2617 107.646C74.386 108.029 74.4744 109.748 74.51 112.48C74.5736 117.36 74.5684 117.32 75.2424 117.935C76.2076 118.816 77.9092 118.496 78.542 117.314C78.7932 116.844 78.7856 107.282 78.5328 106.279C77.9232 103.857 74.2584 101.749 71.92 102.475ZM86.72 102.658C84.238 103.195 82.5956 104.552 81.2436 107.182C80.9996 107.657 80.8 108.222 80.8 108.438C80.8 108.654 80.6848 109.228 80.5436 109.712C80.3088 110.521 80.3088 110.67 80.5436 111.508C80.6848 112.01 80.8 112.581 80.8 112.777C80.8 114.244 83.374 117.359 84.9848 117.841C85.1912 117.903 85.506 118.045 85.684 118.157C86.6408 118.758 91.0036 118.758 92.1656 118.157C92.3884 118.042 92.8384 117.897 93.1656 117.836C93.4924 117.774 93.76 117.669 93.76 117.602C93.76 117.534 93.9796 117.388 94.2476 117.277C95.9 116.592 96.5372 114.741 95.4312 113.837C94.7312 113.264 94.082 113.332 92.4084 114.152C89.0672 115.788 84.946 114.754 85.1524 112.331L85.2 111.774L90.358 111.821L95.5164 111.868L96.0184 111.366C96.5948 110.79 96.6404 108.914 96.102 107.92C95.9588 107.656 95.8416 107.355 95.8408 107.251C95.8372 106.512 93.4324 103.952 92.148 103.318C90.4872 102.5 88.5412 102.263 86.72 102.658ZM113.76 102.694C111.731 103.145 108.8 105.487 108.8 106.657C108.8 106.701 108.653 107.061 108.473 107.456C107.543 109.496 107.921 112.9 109.37 115.546C109.736 116.213 111.309 117.567 112.216 117.994C113.852 118.766 117.022 118.856 117.611 118.147C117.714 118.022 117.897 117.92 118.016 117.92C118.135 117.92 118.35 117.74 118.495 117.52C118.852 116.974 119.072 117.014 119.803 117.76C121.053 119.035 123.033 118.639 123.493 117.022C123.844 115.785 123.74 104.548 123.37 103.733C122.866 102.623 121.052 102.259 120.264 103.109C119.698 103.72 119.134 103.785 118.43 103.319C117.218 102.517 115.556 102.294 113.76 102.694ZM141.12 102.713C138.997 103.217 136.193 105.372 136.156 106.528C136.154 106.59 136.012 106.82 135.84 107.04C135.668 107.26 135.526 107.606 135.524 107.81C135.522 108.014 135.406 108.529 135.266 108.956C134.818 110.328 135.11 112.568 135.975 114.39C136.528 115.554 138.529 117.584 139.372 117.837C139.586 117.901 139.915 118.051 140.104 118.17C141.128 118.814 144.793 118.741 146.229 118.047C148.359 117.018 150.56 114.544 150.56 113.18C150.56 112.992 150.668 112.58 150.8 112.265C151.103 111.54 151.11 109.794 150.814 109.003C150.69 108.672 150.546 108.158 150.494 107.861C149.884 104.356 145.149 101.756 141.12 102.713ZM154.308 102.703C153.257 103.18 153.264 103.12 153.315 110.675L153.36 117.419L153.83 117.91C154.523 118.633 156.006 118.63 156.72 117.902L157.2 117.414L157.296 113.467C157.422 108.325 157.69 107.452 159.247 107.11C159.527 107.048 159.9 106.908 160.078 106.797C160.255 106.686 160.652 106.55 160.96 106.493C163.027 106.113 163.146 103.111 161.115 102.595C159.971 102.305 158.865 102.883 158.024 104.211C157.695 104.73 157.385 104.603 157.203 103.874C156.904 102.672 155.566 102.132 154.308 102.703ZM56.5888 106.512C57.78 107.488 58.2784 108.757 57.6104 109.114C57.4404 109.206 56.3364 109.28 55.1572 109.28C53.978 109.28 52.6017 109.363 52.0984 109.464C50.9025 109.704 50.788 109.589 51.05 108.417C51.5844 106.03 54.6952 104.96 56.5888 106.512ZM90.24 106.178C90.372 106.299 90.714 106.585 91 106.813C91.286 107.042 91.52 107.321 91.52 107.435C91.52 107.548 91.628 107.73 91.76 107.84C92.0476 108.079 92.0764 108.82 91.808 109.088C91.6768 109.219 90.9 109.28 89.3548 109.28C88.1108 109.28 86.6816 109.363 86.1784 109.464C84.9968 109.701 84.868 109.585 85.1032 108.49C85.3832 107.183 86.2856 106.25 87.6 105.907C88.2592 105.735 89.9472 105.908 90.24 106.178ZM38.8192 106.422C40.232 106.777 41.588 109.28 41.3648 111.12C41.1768 112.672 40.9036 113.573 40.566 113.756C39.9188 114.106 39.5496 114.336 39.2989 114.544C38.396 115.294 35.9752 114.787 35.1236 113.671C32.5332 110.274 34.9892 105.457 38.8192 106.422ZM117.508 106.594C118.591 107.164 119.52 109.021 119.52 110.617C119.52 112.164 119.08 113.92 118.692 113.92C118.348 113.92 117.839 114.194 117.397 114.616C116.913 115.079 114.836 114.942 114.104 114.398C111.389 112.383 111.932 107.023 114.914 106.403C115.7 106.239 117.02 106.336 117.508 106.594ZM144.08 106.415C144.858 106.626 146.026 107.712 146.168 108.357C146.224 108.613 146.371 109.015 146.494 109.251C146.783 109.804 146.784 111.249 146.495 111.896C146.371 112.173 146.229 112.58 146.179 112.8C146.097 113.158 145.574 113.792 144.891 114.362C144.308 114.849 143.118 115.016 141.931 114.778C140.237 114.44 138.736 110.834 139.599 109.178C139.73 108.926 139.838 108.57 139.839 108.386C139.843 107.09 142.32 105.939 144.08 106.415Z" stroke="black" stroke-width="12" mask="url(#path-2-outside-2_238_304)"/>
</svg>
