<svg xmlns="http://www.w3.org/2000/svg" width="192" height="192" fill="none" viewBox="0 0 192 192"><path stroke="#000" stroke-linecap="round" stroke-linejoin="round" stroke-width="12" d="M170 135a24.996 24.996 0 0 0-20.123-24.52 25 25 0 1 0 9.955 44.645M120 135h50m-110-6a18.999 18.999 0 0 0-36.554-7.271A19 19 0 0 0 22 129"/><path stroke="#000" stroke-linecap="round" stroke-linejoin="round" stroke-width="12" d="M98 129a18.999 18.999 0 0 0-36.554-7.271A19 19 0 0 0 60 129m-38 0v31m76-31v31m-38-31v31M170 57a24.996 24.996 0 0 0-20.123-24.52 25 25 0 1 0 9.955 44.645M120 57h50M60 51a19 19 0 1 0-38 0m76 0a19 19 0 1 0-38 0m-38 0v31m76-31v31M60 51v31"/></svg>