<?xml version="1.0" encoding="utf-8"?>
	<svg version="1.1" xmlns="http://www.w3.org/2000/svg" xmlns:xlink="http://www.w3.org/1999/xlink" x="0px" y="0px" width="240.0" height="240.0" xml:space="preserve">
		<path d="M117.728,100.114L117.719,100.104C117.069,102.333 116.574,104.602 116.396,106.912C116.224,109.142 116.137,111.4 117.314,113.454C118.177,114.958 120.413,115.886 121.739,115.214C123.601,114.269 125.4,113.205 127.032,111.887C130.362,109.201 133.234,106.06 136.006,102.823C137.014,101.647 137.958,100.416 139.06,99.049C139.506,102.881 140.433,106.368 141.733,109.774C143.121,113.408 145.239,116.416 148.562,118.522C151.268,120.237 154.506,119.726 156.544,117.308C158.57,114.905 159.291,111.971 159.977,109.039C160.41,107.188 160.595,105.28 160.905,103.311C162.692,104.173 164.366,105.04 166.088,105.811C169.54,107.357 173.098,108.555 176.778,109.39C179.909,110.101 183.1,110.409 186.299,110.543C187.596,110.597 188.902,110.394 190.204,110.328C192.845,110.196 195.34,109.585 197.636,108.22C198.567,107.666 199.313,106.905 199.958,106.092C201.369,104.317 200.578,101.69 198.46,100.897C196.719,100.244 194.867,100.01 193.069,99.571C184.538,97.488 177.093,93.602 171.361,86.767C168.811,83.727 167.023,80.288 165.695,76.577C165.476,75.966 165.538,75.705 166.261,75.696C167.531,75.681 168.792,75.543 170.056,75.368C174.246,74.789 178.39,74.056 182.401,72.64C185.663,71.487 188.678,69.95 190.929,67.274C193.002,64.809 193.357,62.967 191.511,60.291C190.643,59.033 189.386,58.149 188.018,57.474C183.676,55.33 178.958,54.63 174.232,54.144C170.82,53.794 167.379,53.53 163.933,53.712C163.15,53.754 162.836,53.406 162.799,52.624C162.606,48.513 162.041,44.457 161.068,40.452C160.097,36.457 158.752,32.642 156.335,29.264C153.594,25.434 149.68,23.033 144.305,24.706C143.54,24.944 142.885,25.387 142.127,25.603C141.95,25.654 141.73,25.95 141.627,25.472C141.46,24.702 141.365,24.647 140.707,25.025C136.587,27.388 134.411,31.2 132.994,35.542C132.843,36.005 132.783,36.69 133.51,36.929C133.932,37.067 133.682,37.347 133.619,37.504C133.183,38.584 133.007,39.73 132.733,40.85C131.784,44.729 131.191,48.662 131.166,52.659C131.161,53.451 130.967,53.665 130.205,53.665C124.287,53.666 118.372,53.892 112.457,54.085C108.641,54.21 104.825,54.348 101.011,54.517C100.286,54.549 100.109,54.345 100.086,53.611C100.041,52.151 100.126,50.69 100.064,49.238C99.955,46.679 99.601,44.143 99.116,41.615C98.327,37.493 97.033,33.588 94.452,30.244C91.83,26.847 88.464,24.765 83.979,24.931C83.1,24.963 82.304,25.607 81.262,24.839C80.723,24.442 79.482,24.693 78.554,25.283C74.509,27.855 72.022,31.598 70.29,35.928C69.185,38.69 68.679,41.608 68.274,44.543C68.192,45.138 68.3,45.63 68.8,46.004C69.28,46.363 69.482,46.841 69.394,47.441C69.063,49.695 69.054,51.962 69.196,54.226C69.242,54.962 69.012,55.172 68.31,55.184C66.625,55.212 64.942,55.345 63.258,55.362C62.488,55.37 61.462,56.277 60.999,54.842C60.975,54.77 60.747,54.766 60.615,54.726C60.069,54.563 59.525,54.639 58.979,54.731C55.259,55.36 51.531,55.967 47.991,57.337C45.577,58.271 43.252,59.392 41.381,61.236C40.557,62.048 39.751,62.934 39.991,64.294C40.229,64.077 40.492,63.962 40.75,64.133C41.108,64.37 40.766,64.619 40.702,64.851C40.443,65.781 40.255,66.705 40.381,67.69C40.641,69.719 41.771,71.224 43.208,72.553C46.288,75.402 50.195,76.446 54.11,77.362C57.234,78.093 60.437,78.449 63.743,78.64C63.133,79.546 62.325,80.08 61.648,80.74C58.401,83.903 55.266,87.17 52.278,90.579C51.503,91.463 51.421,91.435 50.722,90.353C49.707,91.873 48.586,93.319 47.718,94.904C46.44,97.24 45.204,99.631 45.428,102.447C45.462,102.874 45.466,103.276 45.9,103.507L45.93,103.54L45.894,103.512C45.694,102.599 46.701,102.211 46.747,101.385C46.88,102.097 46.846,102.771 46.886,103.441C47.001,105.378 48.122,106.799 49.958,107.395C51.785,107.989 53.596,107.919 55.427,107.357C62.231,105.273 68.243,101.775 73.661,97.205C74.325,96.645 75.001,96.099 75.791,95.448C75.791,96.078 75.793,96.517 75.791,96.956C75.738,107.145 75.771,117.333 75.656,127.522C75.563,135.737 76.213,143.937 77.067,152.114C77.568,156.915 78.036,161.718 78.955,166.461C79.463,169.084 79.901,171.729 81.168,174.136C81.946,175.614 82.802,177.036 84.438,177.699C87.02,178.746 89.402,178.017 91.558,176.578C94.09,174.888 96.1,172.603 98.113,170.34C99.161,169.162 100.094,167.872 101.358,166.899C102.544,165.986 103.85,165.437 105.382,165.787C108.368,166.469 111.044,167.802 113.56,169.548C117.914,172.57 119.388,176.821 118.746,181.849C118.307,185.29 116.642,188.357 114.974,191.35C113.948,193.19 112.937,195.055 111.905,196.884C110.598,199.201 109.118,201.477 108.29,204.098C107.797,205.657 107.532,207.159 107.713,208.72C107.902,210.362 109.325,211.955 110.737,212.142C112.349,212.356 113.956,212.234 115.471,211.51C118.256,210.18 120.681,208.329 123,206.331C124.268,205.24 125.544,204.161 126.746,202.983C127.643,202.104 128.735,201.332 129.684,200.469C131.512,198.805 133.233,197.021 134.956,195.245C136.94,193.2 139.069,191.314 141.262,189.506C143.383,187.758 145.401,185.91 147.049,183.711C148.87,181.281 150.673,178.839 152.606,176.497C155.232,173.315 157.871,170.145 160.137,166.686C163.949,160.865 167.417,154.884 169.334,148.113C170.407,144.325 170.763,140.537 169.429,136.792C167.705,131.955 164.176,128.572 159.95,125.883C157.202,124.135 154.311,122.656 151.174,121.675C149.712,121.218 148.279,120.656 146.794,120.272C143.863,119.514 140.875,119.077 137.865,118.774C133.055,118.29 128.255,118.387 123.467,119.018C121.957,119.217 120.456,119.481 118.881,119.726C119.039,118.996 119.077,118.392 119.304,117.869C119.61,117.164 119.402,116.886 118.749,116.559C117.012,115.689 115.889,114.287 115.304,112.4C114.77,110.675 114.774,108.946 114.95,107.191C115.015,106.549 114.924,106.03 114.186,105.851C112.68,105.486 111.166,105.165 109.616,105.061C105.941,104.813 102.339,105.123 98.886,106.517C98.246,106.775 97.99,106.505 98.004,105.865C98.016,105.28 98.021,104.695 98.022,104.111C98.023,101.06 98.023,98.01 98.023,94.887C99.698,95.232 101.181,95.892 102.787,96.087C105.361,96.399 107.913,96.978 110.5,96.109C113.68,95.042 115.007,92.621 114.233,89.379C113.548,86.508 111.895,84.231 109.997,82.089C108.643,80.562 107.078,79.253 105.33,77.864C112.475,77.788 119.4,77.281 126.427,77.516C123.305,83.758 120.629,90.111 118.537,96.828C118.253,96.264 118.212,95.995 117.659,96.709C116.461,98.257 116.394,100.065 115.995,101.808C115.941,102.045 115.863,102.419 116.185,102.544C116.589,102.702 116.556,102.242 116.714,102.06C117.203,101.494 116.974,100.547 117.728,100.114M71.098,123.655C71.098,120.456 71.096,117.563 71.099,114.671C71.101,113.409 71.044,113.372 69.826,113.583C64.165,114.566 58.517,114.572 52.926,113.157C50.804,112.62 48.72,111.944 46.795,110.821C43.045,108.633 41.828,104.222 42.696,100.339C43.529,96.607 45.35,93.366 47.413,90.209C48.638,88.333 49.969,86.553 51.471,84.895C52.23,84.057 52.202,84.125 51.144,83.737C48.949,82.934 46.852,81.917 44.862,80.677C41.87,78.811 39.735,76.166 37.845,73.253C36.685,71.464 36.111,69.464 36.014,67.44C35.845,63.958 37.261,60.989 39.926,58.729C43.431,55.756 47.696,54.403 52.049,53.266C55.784,52.29 59.568,51.594 63.409,51.223C64.365,51.131 64.795,50.78 64.815,49.762C64.899,45.327 65.712,40.989 67.044,36.784C68.809,31.215 71.777,26.409 76.807,23.146C81.949,19.81 88.251,20.176 93.228,23.502C97.047,26.055 99.747,29.58 102.04,33.453C104.566,37.718 106.312,42.28 107.035,47.215C107.425,49.884 107.466,49.853 110.162,49.854C115.259,49.855 120.35,49.624 125.442,49.461C126.456,49.428 126.941,49.27 127.067,48.019C127.525,43.495 128.484,39.05 130.058,34.777C131.975,29.572 134.735,24.885 139.787,22.16C145.145,19.27 150.889,18.985 156.117,23.121C159.372,25.696 162.403,28.489 164.332,32.244C166.063,35.613 167.334,39.162 168.397,42.8C168.963,44.736 169.167,46.718 169.53,48.679C169.655,49.358 169.941,49.596 170.6,49.638C175.869,49.979 181.069,50.777 186.125,52.311C189.779,53.42 193.033,55.206 195.285,58.459C196.348,59.995 196.752,61.746 196.774,63.534C196.834,68.548 194.57,72.57 191.17,76.072C189.269,78.031 186.945,79.314 184.544,80.543C181.708,81.994 178.77,83.104 175.687,83.871C174.808,84.089 174.776,84.356 175.391,85.019C177.389,87.17 179.591,89.112 182.027,90.715C184.463,92.318 187.162,93.469 189.931,94.428C192.995,95.488 196.179,96.078 199.302,96.903C201.685,97.532 203.34,99.053 204.294,101.358C205.31,103.812 204.741,106.171 203.78,108.415C201.536,113.654 197.172,116.499 192.038,118.378C187.806,119.927 183.374,120.103 178.935,120.352C175.665,120.535 172.405,120.516 169.138,120.466C168.05,120.45 167.197,120.707 166.927,121.973C166.778,122.673 166.274,123.25 165.872,123.851C165.564,124.315 165.472,124.691 166.05,125.139C168.927,127.366 170.994,130.261 172.662,133.454C172.944,133.994 173.048,134.625 173.251,135.208C175.05,140.377 175.686,145.705 174.934,151.107C174.286,155.769 173.086,160.324 171.313,164.713C169.895,168.222 168.307,171.661 166.308,174.856C162.699,180.623 158.68,186.095 153.853,190.942C151.503,193.303 149.411,195.923 147.029,198.248C144.429,200.785 141.905,203.404 139.171,205.811C136.228,208.403 133.253,210.963 129.889,212.968C128.225,213.96 126.551,214.946 124.892,215.953C123.871,216.573 122.99,217.417 121.86,217.865C120.556,218.382 119.248,218.89 117.933,219.378C116.026,220.087 114.085,220.013 112.134,219.981C109.807,219.943 108.089,218.708 106.894,216.856C106.195,215.773 105.575,214.676 104.75,213.65C103.213,211.74 102.729,209.418 102.941,206.945C103.282,202.975 105.189,199.657 107.163,196.341C109.694,192.091 112.04,187.741 113.781,183.094C115.063,179.673 113.982,175.696 111.15,173.421C110.621,172.996 109.953,172.789 109.401,172.368C108.908,171.992 108.602,172.453 108.335,172.821C107.124,174.491 105.97,176.205 104.466,177.641C102.683,179.345 101.067,181.227 98.89,182.492C96.563,183.846 94.082,184.845 91.418,184.983C88.648,185.125 85.974,184.542 83.66,182.773C82.197,181.655 80.451,180.861 79.143,179.6C78.081,178.578 77.174,177.277 76.711,175.761C76.353,174.587 75.893,173.45 75.548,172.263C74.496,168.646 74.015,164.931 73.487,161.225C72.745,156.014 72.366,150.762 71.921,145.52C71.694,142.846 71.639,140.159 71.47,137.48C71.173,132.774 70.91,128.067 71.098,123.655" fill="#000" stroke="#00000000" stroke-width="1.0" stroke-miterlimit=""/>
		<path d="M41.03,64.004C41.051,63.986 41.087,63.97 41.088,63.95C41.09,63.931 41.059,63.908 41.042,63.886C41.021,63.904 40.986,63.92 40.984,63.94C40.982,63.959 41.013,63.982 41.03,64.004L41.03,64.004ZM118.36,97.251C118.339,97.227 118.32,97.206 118.3,97.185C118.278,97.232 118.249,97.277 118.236,97.327C118.232,97.341 118.273,97.366 118.294,97.386C118.317,97.339 118.34,97.292 118.36,97.251L118.36,97.251ZM47.03,100.501C46.971,100.581 46.903,100.633 46.906,100.681C46.911,100.767 46.959,100.851 46.989,100.935C47.025,100.887 47.09,100.838 47.091,100.789C47.093,100.702 47.056,100.614 47.03,100.501L47.03,100.501ZM118.343,155.11C118.997,155.11 119.652,155.14 120.304,155.104C122.475,154.986 124.678,154.767 126.572,153.673C129.294,152.101 131.068,149.723 131.762,146.587C132.404,143.69 131.313,140.99 128.791,139.423C125.498,137.378 121.121,137.554 117.921,139.934C113.421,143.279 110.739,147.95 108.523,152.956C108.256,153.561 108.591,153.648 109.006,153.754C112.071,154.535 115.148,155.231 118.343,155.11L118.343,155.11ZM45.9,103.508C45.466,103.276 45.462,102.874 45.428,102.447C45.204,99.631 46.44,97.24 47.718,94.904C48.586,93.319 49.707,91.873 50.722,90.353C51.421,91.435 51.503,91.463 52.278,90.579C55.266,87.17 58.401,83.903 61.648,80.74C62.325,80.08 63.133,79.546 63.743,78.64C60.437,78.449 57.234,78.093 54.11,77.362C50.195,76.446 46.288,75.402 43.208,72.553C41.771,71.224 40.641,69.719 40.381,67.69C40.255,66.705 40.443,65.781 40.701,64.851C40.766,64.619 41.108,64.37 40.75,64.133C40.492,63.962 40.229,64.077 39.991,64.294C39.751,62.934 40.557,62.048 41.381,61.236C43.252,59.392 45.577,58.271 47.991,57.337C51.531,55.967 55.259,55.36 58.979,54.731C59.525,54.639 60.069,54.563 60.615,54.726C60.747,54.766 60.975,54.77 60.999,54.841C61.462,56.277 62.488,55.37 63.258,55.362C64.942,55.345 66.625,55.212 68.31,55.184C69.012,55.172 69.242,54.962 69.196,54.226C69.054,51.962 69.063,49.695 69.394,47.441C69.482,46.841 69.28,46.363 68.8,46.004C68.3,45.63 68.192,45.138 68.274,44.543C68.679,41.608 69.185,38.69 70.29,35.928C72.022,31.598 74.509,27.855 78.554,25.283C79.482,24.693 80.723,24.442 81.262,24.839C82.304,25.607 83.1,24.963 83.979,24.931C88.464,24.765 91.83,26.847 94.452,30.244C97.033,33.588 98.327,37.493 99.116,41.615C99.601,44.143 99.955,46.678 100.064,49.238C100.126,50.69 100.041,52.151 100.086,53.611C100.109,54.345 100.286,54.549 101.011,54.517C104.825,54.348 108.641,54.21 112.457,54.085C118.372,53.892 124.287,53.666 130.205,53.665C130.967,53.665 131.161,53.451 131.166,52.659C131.191,48.662 131.784,44.729 132.733,40.85C133.007,39.73 133.183,38.584 133.619,37.504C133.682,37.347 133.932,37.067 133.51,36.929C132.783,36.69 132.843,36.005 132.994,35.542C134.411,31.2 136.587,27.388 140.707,25.025C141.365,24.647 141.46,24.702 141.627,25.472C141.73,25.95 141.95,25.654 142.127,25.603C142.885,25.387 143.54,24.944 144.305,24.706C149.68,23.033 153.594,25.434 156.335,29.264C158.752,32.642 160.097,36.457 161.068,40.452C162.041,44.457 162.606,48.513 162.799,52.624C162.836,53.406 163.15,53.754 163.933,53.712C167.379,53.53 170.82,53.794 174.232,54.144C178.958,54.63 183.676,55.33 188.018,57.474C189.386,58.149 190.643,59.033 191.511,60.291C193.357,62.967 193.002,64.809 190.929,67.274C188.678,69.95 185.663,71.487 182.401,72.64C178.39,74.056 174.246,74.789 170.056,75.368C168.792,75.543 167.531,75.681 166.261,75.696C165.538,75.705 165.476,75.966 165.695,76.577C167.023,80.288 168.811,83.727 171.361,86.767C177.093,93.602 184.538,97.488 193.069,99.571C194.867,100.01 196.719,100.244 198.46,100.897C200.578,101.69 201.369,104.317 199.958,106.092C199.313,106.905 198.566,107.666 197.636,108.22C195.34,109.585 192.845,110.196 190.204,110.328C188.902,110.394 187.596,110.597 186.299,110.543C183.1,110.408 179.909,110.101 176.778,109.39C173.098,108.555 169.54,107.357 166.088,105.811C164.366,105.04 162.692,104.173 160.905,103.311C160.595,105.28 160.41,107.188 159.977,109.039C159.291,111.971 158.57,114.905 156.544,117.308C154.506,119.726 151.268,120.237 148.562,118.522C145.239,116.416 143.121,113.408 141.733,109.774C140.433,106.368 139.506,102.881 139.06,99.049C137.958,100.416 137.014,101.647 136.006,102.823C133.234,106.06 130.362,109.201 127.033,111.887C125.4,113.205 123.601,114.269 121.739,115.213C120.413,115.886 118.177,114.958 117.314,113.454C116.137,111.4 116.224,109.142 116.396,106.912C116.574,104.602 117.069,102.333 117.716,100.102C117.744,99.851 117.773,99.603 117.803,99.354C118.153,99.137 117.773,98.666 118.118,98.448C118.124,98.294 118.13,98.14 118.136,97.986C118.103,97.988 118.071,97.991 118.038,97.993C118.065,98.145 118.091,98.298 118.118,98.45C117.841,98.703 117.716,99.003 117.829,99.378C117.479,99.583 117.547,99.842 117.731,100.117C116.974,100.547 117.203,101.494 116.714,102.06C116.556,102.242 116.589,102.702 116.185,102.544C115.863,102.419 115.941,102.045 115.995,101.808C116.394,100.065 116.461,98.257 117.659,96.709C118.212,95.995 118.253,96.264 118.536,96.828C120.629,90.111 123.305,83.758 126.427,77.516C119.4,77.281 112.475,77.788 105.33,77.864C107.078,79.253 108.643,80.562 109.997,82.089C111.895,84.231 113.548,86.508 114.233,89.379C115.007,92.621 113.68,95.042 110.5,96.109C107.913,96.978 105.361,96.399 102.787,96.087C101.181,95.892 99.698,95.232 98.023,94.887C98.023,98.01 98.023,101.06 98.022,104.111C98.021,104.695 98.016,105.28 98.004,105.865C97.99,106.505 98.246,106.775 98.886,106.517C102.339,105.123 105.941,104.813 109.616,105.061C111.166,105.165 112.68,105.486 114.186,105.851C114.924,106.03 115.015,106.549 114.95,107.191C114.774,108.946 114.77,110.675 115.304,112.4C115.889,114.287 117.012,115.689 118.749,116.559C119.402,116.886 119.61,117.164 119.304,117.869C119.077,118.392 119.039,118.996 118.881,119.726C120.456,119.481 121.957,119.217 123.467,119.018C128.255,118.386 133.055,118.29 137.865,118.774C140.875,119.077 143.863,119.514 146.794,120.272C148.279,120.656 149.712,121.218 151.173,121.675C154.311,122.656 157.202,124.135 159.95,125.883C164.176,128.572 167.705,131.955 169.429,136.792C170.764,140.537 170.407,144.325 169.334,148.113C167.417,154.884 163.949,160.865 160.137,166.686C157.871,170.145 155.232,173.315 152.606,176.497C150.673,178.839 148.87,181.281 147.049,183.711C145.401,185.91 143.383,187.758 141.262,189.506C139.069,191.314 136.94,193.2 134.956,195.245C133.233,197.021 131.512,198.805 129.684,200.469C128.735,201.332 127.643,202.104 126.746,202.983C125.544,204.161 124.267,205.24 123,206.331C120.681,208.329 118.256,210.18 115.471,211.51C113.956,212.234 112.349,212.356 110.737,212.142C109.325,211.955 107.902,210.362 107.713,208.72C107.532,207.159 107.797,205.657 108.289,204.098C109.118,201.477 110.598,199.201 111.905,196.884C112.937,195.054 113.948,193.19 114.974,191.35C116.642,188.357 118.307,185.29 118.746,181.849C119.388,176.821 117.914,172.57 113.56,169.548C111.044,167.802 108.368,166.469 105.382,165.787C103.85,165.437 102.544,165.986 101.358,166.899C100.094,167.872 99.161,169.162 98.113,170.34C96.1,172.603 94.09,174.888 91.558,176.578C89.402,178.017 87.02,178.746 84.438,177.699C82.802,177.036 81.946,175.614 81.168,174.136C79.901,171.729 79.463,169.084 78.955,166.461C78.036,161.718 77.568,156.915 77.067,152.114C76.213,143.937 75.563,135.737 75.656,127.522C75.771,117.333 75.738,107.145 75.791,96.956C75.793,96.517 75.791,96.078 75.791,95.448C75.001,96.099 74.325,96.645 73.661,97.205C68.243,101.775 62.231,105.273 55.426,107.357C53.596,107.919 51.785,107.989 49.958,107.395C48.122,106.799 47.001,105.378 46.886,103.441C46.846,102.771 46.88,102.097 46.747,101.385C46.701,102.211 45.694,102.599 45.894,103.512L45.9,103.508Z" fill="#000" stroke="#00000000" stroke-width="1.0" stroke-miterlimit=""/>
	</svg>
