<svg xmlns="http://www.w3.org/2000/svg" width="192" height="192" fill="none" viewBox="0 0 192 192"><path stroke="#000" stroke-linecap="round" stroke-linejoin="round" stroke-width="10" d="M47 118.27v-13.297C47 95 54.75 95 54.75 95 64.875 95 65 107.189 65 111.622m0 0c0-9.973 7.75-9.973 7.75-9.973 10.125 0 10.25 11.081 10.25 16.621V136m-18-24.378v15.513"/><path stroke="#000" stroke-linecap="round" stroke-linejoin="round" stroke-width="12" d="M163 81.83a27.4 27.4 0 0 0 7-18.33c0-15.188-12.312-27.5-27.5-27.5a27.4 27.4 0 0 0-12.703 3.102M163 81.83c-5.036 5.628-12.354 9.17-20.5 9.17-15.188 0-27.5-12.311-27.5-27.5 0-10.605 6.003-19.809 14.797-24.397M163 81.83v50.855a5.96 5.96 0 0 1-3.319 5.347l-63 31.338a6.01 6.01 0 0 1-5.362 0l-63-31.338A5.96 5.96 0 0 1 25 132.684v-73.37a5.97 5.97 0 0 1 3.32-5.346l63-31.339a6.02 6.02 0 0 1 5.36 0l33.117 16.473"/></svg>