<svg xmlns="http://www.w3.org/2000/svg" width="192" height="192" fill="none" stroke="#000" stroke-linecap="round" stroke-linejoin="round" viewBox="0 0 192 192"><ellipse cx="96" cy="92.5" stroke-width="12" rx="74" ry="49.5"/><path stroke-width="6" d="M60 98c-8.5-5.5-29.5-10.5-34-10m106.5 10.5c7.833-3.5 25.8-10.5 35-10.5m-122-23.5S59 71 69 71s16-4 16-4m0 0c4.5-3 14.5-8 27-1 13.657 7.648 27 4.5 35.5-.5M85 67 73 79c2.833 1.833 9.2 4.8 12 2 3.5-3.5 9.5-8 14-8 3.6 0 7.5 3 9 4.5l24.5 21s3.5 3.5 0 7-7.5.5-7.5.5m0 0-9-8m9 8s2 4-1.5 6.5-7 0-7 0m0 0L110 106m6.5 6.5s.5 3.5-2.5 5.5-6 0-6 0m0 0-5-5m5 5s-2 4-5 4-5.667-2.167-7-3M74.192 97.46c-3.687 0-4.609.937-4.609.937s-2.304-2.813-5.069-2.344c-5.07.469-5.438 5.345-3.226 7.97s5.53 1.876 5.53 1.876.553 3.188 2.765 4.688c2.212 1.501 5.53.938 5.53.938s-.368 2.25 1.844 3.751 5.53 0 5.53 0 2.304 4.219 6.452 4.688 7.373-3.751 5.53-8.439c-1.843-5.626-7.373-3.751-7.373-3.751s1.29-3.938-.922-6.564-6.913-.469-6.913-.469-1.382-3.282-5.07-3.282z"/></svg>