<svg width="192" height="192" viewBox="0 0 192 192" fill="none" xmlns="http://www.w3.org/2000/svg"><path d="M39 60s-16-38 3-38 45 65 45 65m-21.873 66.928s-33.64 26.457-40.565 11.481C17.636 150.434 77 110 77 110m74.766-2s26.798 31.242 15.419 39.786C155.807 156.331 104 111.952 104 111.952M87 87l7-25m-42 41 25 7m27 2 7 25m45.751-53.082a65.995 65.995 0 0 0-61.86-48.89 66 66 0 0 0-27.48 5.134M29.557 82.808a66 66 0 0 0 8.224 54.343" stroke="#000" stroke-width="12" stroke-linecap="round" stroke-linejoin="round"/><path d="M86.101 166.638a66 66 0 0 0 58.623-24.642" stroke="#000" stroke-width="12" stroke-linecap="round" stroke-linejoin="round"/></svg>