<svg xmlns="http://www.w3.org/2000/svg" width="192" height="192" viewBox="0 0 192 192"><path d="M18.5 46v-6a6 6 0 0 0-4.243 10.243L18.5 46zM42 52h104V40H42v12zm118 14v60h12V66h-12zm-14 74H62v12h84v-12zM42 40H18.5v12H42V40zm6 86V76.127H36V126h12zM14.257 50.243l18.814 18.813 8.485-8.485-18.813-18.814-8.486 8.486zM48 76.127a22 22 0 0 0-6.444-15.556l-8.485 8.485A10 10 0 0 1 36 76.127h12zM62 140a14 14 0 0 1-14-14H36a26 26 0 0 0 26 26v-12zm98-14a14 14 0 0 1-14 14v12a26 26 0 0 0 26-26h-12zm-14-74a14 14 0 0 1 14 14h12a26 26 0 0 0-26-26v12z"/><path stroke="#000" stroke-linecap="round" stroke-width="12" d="M66 84h76m-76 24h44"/></svg>