<svg xmlns="http://www.w3.org/2000/svg" width="192" height="192" fill="none" stroke-linecap="round" stroke-linejoin="round" stroke-width="12" viewBox="0 0 192 192"><path fill="#000" d="M54.822 175.484q-1.89 0-2.688-.546-.798-.588-.966-1.47A10.3 10.3 0 0 1 51 171.62v-21.672q0-.924.168-1.806t.966-1.428q.798-.588 2.73-.588h8.358q1.596 0 3.444.672 1.848.63 3.486 1.974 1.68 1.344 2.73 3.36t1.05 4.788q0 2.73-1.05 4.746t-2.73 3.36A12.4 12.4 0 0 1 66.666 167q-1.848.63-3.486.63h-4.494v4.032a9.6 9.6 0 0 1-.168 1.806q-.168.882-.966 1.47-.798.546-2.73.546m3.864-15.54h4.536q.546 0 1.26-.252.714-.294 1.26-.966t.546-1.848q0-.882-.42-1.554a2.83 2.83 0 0 0-1.134-1.092 2.331 1.68 0 0 0-1.554-.42h-4.494zm26.747 15.54q-1.89 0-2.688-.546-.798-.588-.966-1.47a10.3 10.3 0 0 1-.168-1.848v-21.672q0-.924.168-1.806t.966-1.428q.798-.588 2.73-.588h8.442q1.596 0 3.444.672 1.848.63 3.486 1.974t2.688 3.36 1.05 4.788q0 1.932-.588 3.612a9.4 9.4 0 0 1-1.68 3.066q-1.092 1.344-2.688 2.394-1.554 1.008-3.57 1.596h-6.762v4.074a9.6 9.6 0 0 1-.168 1.806q-.168.882-.966 1.47-.798.546-2.73.546m17.598-1.008q-1.89 1.428-2.982 1.134-1.092-.252-2.352-1.932l-7.728-10.5 8.736-1.092 5.208 7.014q.84 1.218 1.05 2.058.252.84-.21 1.596c-.462.756-.882 1.078-1.722 1.722m-13.734-14.532h4.62q.378 0 .882-.126.546-.168 1.008-.504.462-.378.756-.966.336-.588.336-1.47c0-.882-.14-1.106-.42-1.554a2.83 2.83 0 0 0-1.134-1.092 2.8 2.8 0 0 0-1.512-.42h-4.536zm36.743 16.044q-3.066 0-5.754-1.134a15 15 0 0 1-4.662-3.234 15.7 15.7 0 0 1-3.192-4.746q-1.134-2.73-1.134-5.796 0-3.192 1.092-5.964a15.7 15.7 0 0 1 3.108-4.872 14.3 14.3 0 0 1 4.578-3.276 13.7 13.7 0 0 1 5.628-1.176q3.066 0 5.712 1.176 2.688 1.134 4.704 3.192t3.15 4.83q1.134 2.73 1.134 5.922 0 3.108-1.134 5.838a14.9 14.9 0 0 1-3.108 4.83 14.6 14.6 0 0 1-4.578 3.234q-2.562 1.176-5.544 1.176m-.21-7.686q1.428 0 2.688-.546a7.2 7.2 0 0 0 2.184-1.554 6.8 6.8 0 0 0 1.47-2.352 8 8 0 0 0 .546-2.94 7.6 7.6 0 0 0-.546-2.898 7.4 7.4 0 0 0-1.512-2.352 6.1 6.1 0 0 0-2.184-1.596 5.9 5.9 0 0 0-2.604-.588q-1.428 0-2.688.588A6.65 6.65 0 0 0 121 155.66a7.8 7.8 0 0 0-1.47 2.352 7.6 7.6 0 0 0-.546 2.898q0 1.512.546 2.856a8.4 8.4 0 0 0 1.47 2.394 7.6 7.6 0 0 0 2.184 1.596q1.26.546 2.646.546"/><path stroke="#000" d="m37.339 162.088-3.397.661c-2.784.542-5.233-1.907-4.69-4.691l4.335-22.272c-18.29-28.631-14.927-67.098 10.087-92.112 28.9-28.899 75.753-28.899 104.652 0 28.33 28.33 28.888 73.915 1.674 102.924"/><path stroke="#000" d="m131.353 83.27-24.041 24.042-21.92-21.92-24.042 24.041"/></svg>