<?xml version="1.0" encoding="UTF-8" standalone="no"?>
<svg
   width="24"
   height="24"
   viewBox="0 0 24 24"
   fill="none"
   version="1.1"
   id="svg4"
   sodipodi:docname="messenger.svg"
   inkscape:version="1.1.1 (3bf5ae0d25, 2021-09-20)"
   xmlns:inkscape="http://www.inkscape.org/namespaces/inkscape"
   xmlns:sodipodi="http://sodipodi.sourceforge.net/DTD/sodipodi-0.dtd"
   xmlns="http://www.w3.org/2000/svg"
   xmlns:svg="http://www.w3.org/2000/svg">
  <defs
     id="defs8" />
  <sodipodi:namedview
     id="namedview6"
     pagecolor="#ffffff"
     bordercolor="#666666"
     borderopacity="1.0"
     inkscape:pageshadow="2"
     inkscape:pageopacity="0.0"
     inkscape:pagecheckerboard="0"
     showgrid="false"
     inkscape:zoom="32.375"
     inkscape:cx="11.984556"
     inkscape:cy="12"
     inkscape:window-width="2560"
     inkscape:window-height="1015"
     inkscape:window-x="0"
     inkscape:window-y="32"
     inkscape:window-maximized="1"
     inkscape:current-layer="svg4" />
  <path
     d="M 12.022182,2 C 6.3758091,2 2,6.1268285 2,11.700858 c 0,2.915512 1.1979818,5.435004 3.1479818,7.175366 0.3367,0.302833 0.2673455,0.478296 0.3246,2.348119 0.00451,0.131007 0.040991,0.258923 0.1062727,0.372564 0.065273,0.113552 0.1573637,0.209557 0.2682273,0.279379 0.1108727,0.06991 0.2371455,0.11155 0.3678182,0.12146 0.1306727,0.0098 0.2617818,-0.01245 0.3818727,-0.06491 2.1334728,-0.939504 2.1608909,-1.01369 2.5225818,-0.915322 C 15.300364,22.718783 22,18.762945 22,11.700858 22,6.1268285 17.668909,2 12.022182,2 Z m 6.017727,7.4652985 -2.943545,4.6603195 c -0.111182,0.175282 -0.257273,0.325652 -0.429273,0.441749 -0.172,0.116097 -0.366091,0.195465 -0.570182,0.233103 -0.204091,0.03755 -0.413727,0.03255 -0.615818,-0.01464 C 13.279,14.73865 13.088909,14.65019 12.922545,14.526003 l -2.341909,-1.752909 c -0.104727,-0.07845 -0.232,-0.120915 -0.362909,-0.120915 -0.130854,0 -0.2581906,0.04246 -0.3628906,0.120915 L 6.6947545,15.170035 C 6.2729818,15.489778 5.7205636,14.984571 6.0048364,14.538184 L 8.9483909,9.8778196 C 9.0595,9.7025288 9.2056364,9.5520939 9.3776182,9.4359424 9.5496091,9.319782 9.7437364,9.2404234 9.9478364,9.2028306 c 0.2040906,-0.037602 0.4137996,-0.03262 0.6157996,0.014628 0.202091,0.047247 0.392273,0.1357433 0.558546,0.2599406 l 2.341091,1.7525258 c 0.104727,0.07855 0.232091,0.120915 0.362909,0.120915 0.130909,0 0.258273,-0.04236 0.362909,-0.120915 L 17.350818,8.83543 c 0.421,-0.321789 0.973364,0.1830731 0.689091,0.6298685 z"
     fill="#000000"
     id="path2"
     style="stroke-width:0.909114" />
</svg>
