<svg width="192" height="192" viewBox="0 0 192 192" fill="none" xmlns="http://www.w3.org/2000/svg">
<path d="M22.5 46V40C20.0732 40 17.8854 41.4619 16.9567 43.7039C16.028 45.9459 16.5414 48.5267 18.2574 50.2426L22.5 46ZM46 52H150V40H46V52ZM164 66V126H176V66H164ZM150 140H66V152H150V140ZM46 40H22.5V52H46V40ZM52 126V76.1274H40V126H52ZM18.2574 50.2426L37.0711 69.0563L45.5563 60.5711L26.7426 41.7574L18.2574 50.2426ZM52 76.1274C52 70.2927 49.6821 64.6969 45.5563 60.5711L37.0711 69.0563C38.9464 70.9317 40 73.4753 40 76.1274H52ZM66 140C58.268 140 52 133.732 52 126H40C40 140.359 51.6406 152 66 152V140ZM164 126C164 133.732 157.732 140 150 140V152C164.359 152 176 140.359 176 126H164ZM150 52C157.732 52 164 58.268 164 66H176C176 51.6406 164.359 40 150 40V52Z" fill="black"/>
<path d="M70 84H146" stroke="black" stroke-width="12" stroke-linecap="round" stroke-linejoin="round"/>
<path d="M70 108H114" stroke="black" stroke-width="12" stroke-linecap="round" stroke-linejoin="round"/>
</svg>
