<svg xmlns="http://www.w3.org/2000/svg" width="192" height="192" fill="none" stroke="#000" stroke-linecap="round" stroke-linejoin="round" stroke-width="12" viewBox="0 0 192 192"><path d="M124.739 164.218c-12.241 5.518-25.706 7.132-38.78 4.647s-25.202-8.963-34.929-18.657c-9.726-9.693-16.639-22.191-19.907-35.993s-2.754-28.322 1.481-41.818 12.011-25.395 22.395-34.27c10.384-8.874 22.936-14.347 36.148-15.761s26.524 1.29 38.339 7.788S150.788 44.85 157.756 59c3.321 6.744 5.023 11.703 5.838 18.343a54.6 54.6 0 0 1-1.213 19.857c-1.614 6.469-4.399 12.533-8.197 17.847-3.797 5.313-8.532 9.772-13.934 13.12"/><path d="m62 72 26 56 26-56 26.25 56.17"/></svg>