<?xml version="1.0" encoding="UTF-8" standalone="no"?>
<svg
   width="192"
   height="192"
   viewBox="0 0 192 192"
   fill="none"
   version="1.1"
   id="svg4"
   sodipodi:docname="metamask.svg"
   inkscape:version="1.1.2 (0a00cf5339, 2022-02-04, custom)"
   xmlns:inkscape="http://www.inkscape.org/namespaces/inkscape"
   xmlns:sodipodi="http://sodipodi.sourceforge.net/DTD/sodipodi-0.dtd"
   xmlns="http://www.w3.org/2000/svg"
   xmlns:svg="http://www.w3.org/2000/svg">
  <defs
     id="defs8" />
  <sodipodi:namedview
     id="namedview6"
     pagecolor="#ffffff"
     bordercolor="#666666"
     borderopacity="1.0"
     inkscape:pageshadow="2"
     inkscape:pageopacity="0.0"
     inkscape:pagecheckerboard="0"
     showgrid="false"
     inkscape:zoom="4.546875"
     inkscape:cx="73.237113"
     inkscape:cy="98.749141"
     inkscape:window-width="2516"
     inkscape:window-height="1396"
     inkscape:window-x="22"
     inkscape:window-y="22"
     inkscape:window-maximized="1"
     inkscape:current-layer="g1651" />
  <g
     id="g9294"
     transform="translate(-63.3,-57.7)">
    <g
       id="g1651"
       transform="matrix(0.59925103,0,0,0.59925103,63.839311,61.595117)"
       style="stroke-width:20.02499687;stroke-miterlimit:4;stroke-dasharray:none">
      <g
         id="g2243">
        <g
           id="g2222"
           transform="translate(-1.3777301)">
          <path
             style="fill:#000000;fill-opacity:1;stroke:#000000;stroke-width:17.2817;stroke-linecap:round;stroke-linejoin:round;stroke-miterlimit:4;stroke-dasharray:none;stroke-opacity:1"
             d="m 111.06365,182.58174 17.17381,-7.85335 7.16294,15.01629 z"
             id="path5991" />
          <path
             style="fill:#000000;fill-opacity:1;stroke:#000000;stroke-width:17.2817;stroke-linecap:round;stroke-linejoin:round;stroke-miterlimit:4;stroke-dasharray:none;stroke-opacity:1"
             d="m 210.29181,182.58174 -17.17381,-7.85335 -7.16293,15.01629 z"
             id="path5991-3" />
        </g>
        <path
           style="fill:none;stroke:#000000;stroke-width:20.02499687;stroke-linecap:round;stroke-linejoin:round;stroke-miterlimit:4;stroke-dasharray:none;stroke-opacity:1"
           d="M 31.8,73.4 44.4,35.5 125.6,65.8 H 193 l 81.1,-30.3 12.7,37.9 -8.5,40.8 5.3,4 -8,6.1 6.2,4.8 -8,7.3 5,3.6 -11.6,13.5 17.6,54.2 -16.3,55.3 -56.7,-15.6 -33.4,24.5 h -38.3 l -22.3,-15.5 -11,-9 L 50.1,263 33.9,207.7 51.3,153.5 39.8,140 l 5,-3.6 -8,-7.3 6.1,-4.8 -8,-6.1 5.4,-4 z"
           id="path4468" />
        <path
           style="fill:none;stroke:#000000;stroke-width:20.02499687;stroke-linecap:round;stroke-linejoin:round;stroke-miterlimit:4;stroke-dasharray:none;stroke-opacity:1"
           d="m 51.3,153.5 52.3,-15.3 37,-31.3 -96.2,-71.4"
           id="path5689"
           sodipodi:nodetypes="cccc" />
        <path
           style="fill:none;stroke:#000000;stroke-width:20.02499687;stroke-linecap:round;stroke-linejoin:round;stroke-miterlimit:4;stroke-dasharray:none;stroke-opacity:1"
           d="m 267.2,153.5 -52.3,-15.3 -37,-31.3 96.2,-71.4"
           id="path5890" />
        <path
           style="fill:#000000;fill-opacity:1;stroke:#000000;stroke-width:14.618;stroke-linecap:round;stroke-linejoin:round;stroke-miterlimit:4;stroke-dasharray:none;stroke-opacity:1"
           d="m 143.78779,243.43813 1.82496,-16.13269 3.50393,-2.40896 h 20.22061 l 3.50394,2.40896 1.97096,16.13269 c -3.73476,-2.93046 -28.2698,-2.6315 -31.0244,0 z"
           id="path8318"
           sodipodi:nodetypes="ccccccc" />
      </g>
    </g>
  </g>
</svg>
