<svg width="192" height="192" viewBox="0 0 192 192" fill="none" xmlns="http://www.w3.org/2000/svg">
<path d="M142.903 122.097C159.369 120.538 171.438 106.075 169.862 89.7941C168.285 73.5127 153.659 61.5779 137.194 63.1369M142.903 122.097C129.923 123.326 118.085 116.168 112.884 105.106M142.903 122.097L59.4364 130M137.194 63.1369C124.213 64.366 113.965 73.615 110.981 85.4524M137.194 63.1369L22 74.0441M110.981 85.4524C110.18 88.63 109.902 91.9941 110.236 95.4397C110.57 98.8853 111.488 102.136 112.884 105.106M110.981 85.4524L39.9695 92.1761M112.884 105.106L32.4822 112.719" stroke="black" stroke-width="12" stroke-linecap="round" stroke-linejoin="round"/>
</svg>
