<svg xmlns="http://www.w3.org/2000/svg" width="192" height="192" fill="none" viewBox="0 0 192 192"><path stroke="#000" stroke-linecap="round" stroke-linejoin="round" stroke-width="12" d="M140.838 123.673c17.72-1.653 30.71-16.991 29.013-34.258-1.697-17.266-17.437-29.923-35.157-28.27m6.144 62.528c-13.97 1.304-26.71-6.287-32.308-18.019m32.308 18.019L62.31 131m72.384-69.855c-13.971 1.304-25 11.112-28.212 23.666m28.212-23.666L22 71.66m84.482 13.151a30.6 30.6 0 0 0-.801 10.592 30.7 30.7 0 0 0 2.849 10.251m-2.048-20.843-65.71 6.131m67.758 14.712-80.781 7.537"/></svg>