<?xml version="1.0" encoding="UTF-8" standalone="no"?>
<svg
   width="100%"
   height="100%"
   viewBox="0 0 192 192"
   version="1.1"
   xml:space="preserve"
   style="fill-rule:evenodd;clip-rule:evenodd;stroke-linejoin:round;stroke-miterlimit:2;"
   id="svg1683"
   sodipodi:docname="meteoswiss.svg"
   inkscape:version="1.2.1 (9c6d41e410, 2022-07-14)"
   xmlns:inkscape="http://www.inkscape.org/namespaces/inkscape"
   xmlns:sodipodi="http://sodipodi.sourceforge.net/DTD/sodipodi-0.dtd"
   xmlns="http://www.w3.org/2000/svg"
   xmlns:svg="http://www.w3.org/2000/svg"><defs
   id="defs1687" /><sodipodi:namedview
   id="namedview1685"
   pagecolor="#ffffff"
   bordercolor="#000000"
   borderopacity="0.25"
   inkscape:showpageshadow="2"
   inkscape:pageopacity="0.0"
   inkscape:pagecheckerboard="0"
   inkscape:deskcolor="#d1d1d1"
   showgrid="false"
   inkscape:zoom="5.3489583"
   inkscape:cx="95.906524"
   inkscape:cy="95.906524"
   inkscape:window-width="1274"
   inkscape:window-height="1303"
   inkscape:window-x="1282"
   inkscape:window-y="36"
   inkscape:window-maximized="0"
   inkscape:current-layer="svg1683" />
    <path
   d="M1743.3,320.607C1733.47,322.404 1726,331.027 1726,341.378C1726,353.033 1735.46,362.495 1747.12,362.495L1797.13,362.495C1810.69,362.495 1821.7,351.486 1821.7,337.926C1821.7,324.366 1810.69,313.357 1797.13,313.357C1796.68,313.357 1796.22,313.37 1795.77,313.395C1791.87,303.164 1781.96,295.886 1770.37,295.886C1756.19,295.886 1744.54,306.756 1743.3,320.607ZM1748.54,332.37C1750.43,332.666 1752.36,332.036 1753.71,330.674C1755.07,329.313 1755.69,327.386 1755.38,325.49C1755.26,324.699 1755.19,323.888 1755.19,323.062C1755.19,314.686 1761.99,307.886 1770.37,307.886C1778.06,307.886 1784.43,313.627 1785.41,321.058C1785.64,322.828 1786.65,324.403 1788.16,325.353C1789.67,326.304 1791.53,326.533 1793.23,325.977C1794.46,325.574 1795.77,325.357 1797.13,325.357C1804.07,325.357 1809.7,330.989 1809.7,337.926C1809.7,344.863 1804.07,350.495 1797.13,350.495L1747.12,350.495C1742.09,350.495 1738,346.41 1738,341.378C1738,336.347 1742.09,332.261 1747.12,332.261C1747.6,332.261 1748.07,332.298 1748.54,332.37ZM1843.8,331.769L1836.32,324.292C1833.98,321.95 1830.17,321.95 1827.83,324.292C1825.49,326.633 1825.49,330.435 1827.83,332.777L1835.31,340.254C1837.65,342.596 1841.45,342.596 1843.8,340.254C1846.14,337.913 1846.14,334.111 1843.8,331.769ZM1796.87,297.016C1799.15,294.023 1802.75,292.087 1806.8,292.087C1813.69,292.087 1819.28,297.676 1819.28,304.56C1819.28,307.171 1818.47,309.596 1817.1,311.599C1815.23,314.33 1815.92,318.067 1818.65,319.941C1821.38,321.815 1825.12,321.119 1826.99,318.389C1829.69,314.453 1831.28,309.69 1831.28,304.56C1831.28,291.053 1820.31,280.087 1806.8,280.087C1798.86,280.087 1791.8,283.875 1787.33,289.744C1785.32,292.378 1785.83,296.146 1788.47,298.153C1791.1,300.159 1794.87,299.65 1796.87,297.016ZM1841.43,309.428L1852,309.428C1855.31,309.428 1858,306.739 1858,303.428C1858,300.116 1855.31,297.428 1852,297.428L1841.43,297.428C1838.11,297.428 1835.43,300.116 1835.43,303.428C1835.43,306.739 1838.11,309.428 1841.43,309.428ZM1785.3,276.835L1777.82,269.358C1775.48,267.017 1771.68,267.017 1769.33,269.358C1766.99,271.7 1766.99,275.502 1769.33,277.843L1776.81,285.321C1779.15,287.662 1782.95,287.662 1785.3,285.321C1787.64,282.979 1787.64,279.177 1785.3,276.835ZM1834.8,283.668L1842.28,276.191C1844.62,273.849 1844.62,270.047 1842.28,267.706C1839.93,265.364 1836.13,265.364 1833.79,267.706L1826.31,275.183C1823.97,277.524 1823.97,281.326 1826.31,283.668C1828.65,286.01 1832.46,286.01 1834.8,283.668ZM1737.14,228C1730.14,228 1723.13,229.18 1716.12,231.493C1713.66,232.304 1712,234.601 1712,237.191C1712,254.349 1712.58,272.173 1734.73,281.926C1736.27,282.604 1738.02,282.604 1739.56,281.926C1761.71,272.173 1762.29,254.349 1762.29,237.191C1762.29,234.601 1760.63,232.304 1758.17,231.493C1751.16,229.18 1744.15,228 1737.14,228ZM1810.91,270.079L1810.91,259.505C1810.91,256.193 1808.22,253.505 1804.91,253.505C1801.6,253.505 1798.91,256.193 1798.91,259.505L1798.91,270.079C1798.91,273.391 1801.6,276.079 1804.91,276.079C1808.22,276.079 1810.91,273.391 1810.91,270.079ZM1737.14,240C1741.53,240 1745.91,240.574 1750.29,241.687C1750.25,252.377 1749.33,263.21 1737.14,269.766C1724.96,263.211 1724.04,252.377 1723.99,241.687C1728.38,240.574 1732.76,240 1737.14,240Z"
   id="path1677"
   style="fill-rule:evenodd;clip-rule:evenodd;stroke-linejoin:round;stroke-miterlimit:2"
   transform="translate(-1696,-212)"
   inkscape:label="meteoswiss" />
</svg>
