<svg xmlns="http://www.w3.org/2000/svg" width="192" height="192" fill="none" stroke="#000" stroke-linecap="round" stroke-linejoin="round" viewBox="0 0 192 192"><path stroke-width="6" d="M83.569 100.572v28.385h22.54m22.287-14.192h-11.144m27.353-14.193 28.365 28.385m0-28.385-28.365 28.385m-8.105-28.385h-13.17c-6.105 0-13.675 5.499-13.675 14.193s7.761 14.192 13.676 14.192h13.17m-63.822-14.192H54.444m21.274-14.193H54.444v28.385m16.208-66.401H55.457M69.64 74.657l-14.183.088m15.195 12.648H55.457m22.287-24.837h24.313"/><path stroke-width="8" d="M161.826 74.975a13.17 12.165 0 0 1-13.17 12.165 13.17 12.165 0 0 1 .001-24.33 13.17 12.165 0 0 1 13.17 12.165zM110.668 63.57l8.61-.041c9.268.009 8.981 11.7 0 11.7h-8.61 6.584c6.305 0 7.752 6.78 10.13 11.15m-16.714 0V63.57M89.9 63.383V86.38M55.457 63.57v22.81M20 86.38V63.57l12.41 14.193L44.82 63.57v22.81"/></svg>