<svg width="192" height="192" fill="none" xmlns="http://www.w3.org/2000/svg"><circle cx="96" cy="67.728" r="6" stroke="#000" stroke-width="12" stroke-linecap="round" stroke-linejoin="round"/><path d="M115.151 51.659A25.002 25.002 0 0 1 117 81.293M79.93 48.578A25.002 25.002 0 0 0 75 81.293m53.94-41.204a42.996 42.996 0 0 1 5.201 47.495A42.985 42.985 0 0 1 124 100.363m-60.94-4.994a43 43 0 0 1 5.3-60.58m66.85 79.668a60.99 60.99 0 0 0 21.558-41.412 61 61 0 0 0-14.039-44.526m-93.458 78.42a61.005 61.005 0 0 1-7.379-67.377A61 61 0 0 1 56.79 21M95 136s4 21-27 29l3 6m15.3-73.265c-.704 6.96-.886 20.632 5.714 34.469 1.103 2.313 3.676 3.474 6.193 2.995l7.546-1.438c4.31-.821 6.503-6.002 4.943-10.103-3.227-8.486-4.657-18.675-5.268-24.906-.315-3.21-2.98-5.752-6.206-5.752h-7.433c-2.801 0-5.207 1.948-5.489 4.735ZM111 131s12 13 11 40h8" stroke="#000" stroke-width="10" stroke-linecap="round" stroke-linejoin="round"/></svg>