<svg width="192" height="192" viewBox="0 0 192 192" fill="none" xmlns="http://www.w3.org/2000/svg">
<mask id="path-1-inside-1_405_122" fill="white">
<path d="M161.898 176H30.1022C26.0717 176 23.1875 172.105 24.363 168.25L36.1782 129.5L69.4893 20.2501C70.2592 17.7252 72.5888 16 75.2285 16H116.772C119.411 16 121.741 17.7252 122.511 20.2501L155.822 129.5L167.637 168.25C168.812 172.105 165.928 176 161.898 176Z"/>
</mask>
<path d="M36.1782 135.5H96V123.5H36.1782V135.5ZM96 135.5H155.822V123.5H96V135.5ZM24.363 168.25L12.8847 164.75L12.8847 164.75L24.363 168.25ZM36.1782 129.5L24.6999 126L36.1782 129.5ZM69.4893 20.2501L80.9676 23.7499L80.9676 23.7499L69.4893 20.2501ZM122.511 20.2501L133.989 16.7503L133.989 16.7503L122.511 20.2501ZM155.822 129.5L167.3 126L167.3 126L155.822 129.5ZM167.637 168.25L156.159 171.75L156.159 171.75L167.637 168.25ZM161.898 164H30.1022V188H161.898V164ZM75.2285 28H116.772V4H75.2285V28ZM35.8413 171.75L47.6565 133L24.6999 126L12.8847 164.75L35.8413 171.75ZM47.6565 133L80.9676 23.7499L58.011 16.7503L24.6999 126L47.6565 133ZM111.032 23.7499L144.344 133L167.3 126L133.989 16.7503L111.032 23.7499ZM144.344 133L156.159 171.75L179.115 164.75L167.3 126L144.344 133ZM116.772 28C114.132 28 111.802 26.2748 111.032 23.7499L133.989 16.7503C131.679 9.17555 124.691 4 116.772 4V28ZM75.2285 4C67.3094 4 60.3206 9.17553 58.011 16.7503L80.9676 23.7499C80.1977 26.2748 77.8681 28 75.2285 28V4ZM30.1022 164C34.1326 164 37.0168 167.895 35.8413 171.75L12.8847 164.75C9.35825 176.316 18.0108 188 30.1022 188V164ZM161.898 188C173.989 188 182.642 176.316 179.115 164.75L156.159 171.75C154.983 167.895 157.867 164 161.898 164V188Z" fill="black" mask="url(#path-1-inside-1_405_122)"/>
<path d="M96 128L141 52" stroke="black" stroke-width="10" stroke-linecap="round"/>
<path d="M91 58H101" stroke="black" stroke-width="10" stroke-linecap="round"/>
<path d="M91 40H101" stroke="black" stroke-width="10" stroke-linecap="round"/>
<path d="M91 94H101" stroke="black" stroke-width="10" stroke-linecap="round"/>
<path d="M91 112H101" stroke="black" stroke-width="10" stroke-linecap="round"/>
<path d="M91 76H101" stroke="black" stroke-width="10" stroke-linecap="round"/>
<mask id="path-9-inside-2_405_122" fill="white">
<path d="M143.997 21.0992C145.744 18.283 149.442 17.4157 152.258 19.162L165.244 27.2141C168.06 28.9604 168.927 32.6591 167.181 35.4753L155.346 54.5616C153.599 57.3778 149.901 58.2451 147.085 56.4988L134.099 48.4467C131.283 46.7003 130.416 43.0017 132.162 40.1855L143.997 21.0992Z"/>
</mask>
<path d="M143.997 21.0992C145.744 18.283 149.442 17.4157 152.258 19.162L165.244 27.2141C168.06 28.9604 168.927 32.6591 167.181 35.4753L155.346 54.5616C153.599 57.3778 149.901 58.2451 147.085 56.4988L134.099 48.4467C131.283 46.7003 130.416 43.0017 132.162 40.1855L143.997 21.0992Z" stroke="black" stroke-width="20" mask="url(#path-9-inside-2_405_122)"/>
</svg>
