<svg xmlns="http://www.w3.org/2000/svg" width="192" height="192" fill="none"><path stroke="#000" stroke-linecap="round" stroke-linejoin="round" stroke-width="12" d="M63.183 27.04A6 6 0 0 1 69.105 22h53.79a6 6 0 0 1 5.922 5.04l22.054 136c.592 3.649-2.225 6.96-5.922 6.96H47.051c-3.697 0-6.514-3.311-5.922-6.96zM96 50v68M86 73h20"/><path stroke="#000" stroke-linecap="round" stroke-linejoin="round" stroke-width="12" d="M96 118c-9.389 0-17 7.611-17 17 0 3.305.943 6.39 2.575 9h28.85a16.9 16.9 0 0 0 2.575-9c0-9.389-7.611-17-17-17"/></svg>