<svg width="192" height="192" fill="none" xmlns="http://www.w3.org/2000/svg"><path d="M81 88a21.83 21.83 0 0 0-1.104-6.888c-.728-2.184-1.796-4.168-3.143-5.84-1.346-1.671-2.945-2.997-4.704-3.902-1.76-.904-3.645-1.37-5.549-1.37-1.904 0-3.79.466-5.549 1.37-1.76.905-3.358 2.23-4.704 3.902-1.346 1.671-2.415 3.656-3.143 5.84A21.83 21.83 0 0 0 52 88m59 0c0-2.364.375-4.704 1.104-6.888.728-2.184 1.797-4.168 3.143-5.84 1.346-1.671 2.945-2.997 4.704-3.902 1.759-.904 3.645-1.37 5.549-1.37 1.904 0 3.79.466 5.549 1.37 1.759.905 3.358 2.23 4.704 3.902A18.102 18.102 0 0 1 138.057 79" stroke="#000" stroke-width="12" stroke-linecap="round" stroke-linejoin="round"/><path d="M111 79.5c0-7.4-2.734-14.547-7.693-20.11-4.959-5.563-11.804-9.163-19.26-10.129a31.402 31.402 0 0 0-21.27 4.88A30.648 30.648 0 0 0 52 66.41M140.5 49A29.499 29.499 0 0 0 111 78.5m59-6.5c0-3.02-.763-6.011-2.246-8.802-1.482-2.79-3.655-5.326-6.394-7.462-2.74-2.135-5.992-3.83-9.571-4.985C148.21 49.595 144.374 49 140.5 49M111 79.5V137a6 6 0 0 1-6 6H87a6 6 0 0 1-6-6V88m89-16v7M28 143h18a6 6 0 0 0 6-6V58a6 6 0 0 0-6-6H28a6 6 0 0 0-6 6v79a6 6 0 0 0 6 6Zm112-44h30l-30 44h30" stroke="#000" stroke-width="12" stroke-linecap="round" stroke-linejoin="round"/></svg>