<?xml version="1.0" encoding="UTF-8" standalone="no"?>
<!-- Created with Inkscape (http://www.inkscape.org/) -->

<svg
   width="192"
   height="192"
   viewBox="0 0 192 192"
   version="1.1"
   id="svg5"
   xml:space="preserve"
   xmlns="http://www.w3.org/2000/svg"
   xmlns:svg="http://www.w3.org/2000/svg"><defs
     id="defs2"><rect
       x="71.095214"
       y="149.14825"
       width="58.403216"
       height="61.86114"
       id="rect3" /></defs><g
     id="layer1"
     style="display:inline"><rect
       style="fill:none;fill-opacity:0.999846;stroke:#000000;stroke-width:12;stroke-linecap:round;stroke-linejoin:round;stroke-miterlimit:6"
       id="rect1"
       width="88.509529"
       height="99.151146"
       x="51.745239"
       y="22"
       ry="10.185222" /><rect
       style="fill:none;fill-opacity:0.999846;stroke:#000000;stroke-width:8;stroke-linecap:round;stroke-linejoin:round;stroke-miterlimit:6;stroke-dasharray:none"
       id="rect2"
       width="88.509529"
       height="48.31451"
       x="51.745235"
       y="46.594681"
       ry="10.185222" /><path
       style="fill:none;fill-opacity:0.999846;stroke:#000000;stroke-width:6;stroke-linecap:round;stroke-linejoin:round;stroke-miterlimit:6;stroke-dasharray:none"
       d="m 78.940629,32.285497 c 11.172119,-2.009375 22.532031,-2.139477 34.118761,0"
       id="path2" /><path
       style="fill:none;fill-opacity:0.999846;stroke:#000000;stroke-width:6.00002;stroke-linecap:round;stroke-linejoin:round;stroke-miterlimit:6;stroke-dasharray:none"
       d="m 111.48176,108.22096 16.02684,-3.10731"
       id="path4" /><path
       style="fill:none;fill-opacity:0.999846;stroke:#000000;stroke-width:6.00002;stroke-linecap:round;stroke-linejoin:round;stroke-miterlimit:6;stroke-dasharray:none"
       d="M 80.938934,108.22096 64.912109,105.11365"
       id="path5" /><path
       style="fill:none;fill-opacity:0.999846;stroke:#000000;stroke-width:14;stroke-linecap:round;stroke-linejoin:round;stroke-miterlimit:6;stroke-dasharray:none"
       d="m 126.25369,135.42852 -0.0566,-13.02738"
       id="path6" /><path
       style="fill:none;fill-opacity:0.999846;stroke:#000000;stroke-width:14;stroke-linecap:round;stroke-linejoin:round;stroke-miterlimit:6;stroke-dasharray:none"
       d="m 66.332897,135.42856 0.04522,-13.02744"
       id="path7" /><path
       style="fill:none;fill-opacity:0.999846;stroke:#000000;stroke-width:12;stroke-linecap:round;stroke-linejoin:round;stroke-miterlimit:6;stroke-dasharray:none"
       d="M 154.86507,59.724541 155,46.69764"
       id="path8" /><path
       style="fill:none;fill-opacity:0.999846;stroke:#000000;stroke-width:12;stroke-linecap:round;stroke-linejoin:round;stroke-miterlimit:6;stroke-dasharray:none"
       d="M 37,59.724541 37.134947,46.69764"
       id="path9" /><path
       style="fill:none;stroke:#000000;stroke-width:8;stroke-linecap:round;stroke-linejoin:round;stroke-miterlimit:6;stroke-dasharray:none"
       d="m 73.953008,160.27691 c 0,-7.58988 -2.630687,-15.61595 5.01929,-16.25547 3.670623,-0.30685 10.969678,0.88979 10.813271,7.5664 -0.151708,6.4761 -5.090503,9.19413 -9.827932,9.75044 -5.900057,0.69282 -5.982411,2.98054 -6.004629,9.82095 M 106.96844,144.7654 c 3.01146,-1.24484 6.37452,-0.5308 8.55093,1.83639 5.79339,6.30121 2.39962,22.02827 -4.57099,24.83287 -4.46216,1.79531 -7.53541,-0.53118 -9.42284,-4.64934 -3.400419,-7.41935 -1.763906,-19.04086 5.4429,-22.01992"
       id="path1" /></g></svg>
