<svg xmlns="http://www.w3.org/2000/svg" width="192" height="192" fill="none" stroke="#000" stroke-linejoin="round" stroke-width="12" viewBox="0 0 192 192"><path stroke-linecap="round" d="M150 96V40a6 6 0 0 0-6-6H28a6 6 0 0 0-6 6v92a6 6 0 0 0 6 6h87"/><path stroke-width="10" d="M42 82h10v10H42zm30 0h10v10H72zm-30 26h10v10H42zm30 0h10v10H72z"/><path d="M22 62h128m-30.204 35C110.779 97 102 101.525 102 114.063c0 12.349 20.802 30.448 34 42.937 13.207-12.489 34-30.588 34-42.937C170 101.525 161.228 97 152.221 97c-7.032 0-12.396 5.373-16.221 11.025C132.158 102.347 126.811 97 119.796 97z"/></svg>