<?xml version="1.0" encoding="UTF-8" standalone="no"?>
<!-- Created with Inkscape (http://www.inkscape.org/) -->

<svg
   width="192"
   height="192"
   viewBox="0 0 192 192"
   version="1.1"
   id="svg5"
   xml:space="preserve"
   sodipodi:docname="mi_buds_m8.svg"
   inkscape:version="1.3 (0e150ed6c4, 2023-07-21)"
   xmlns:inkscape="http://www.inkscape.org/namespaces/inkscape"
   xmlns:sodipodi="http://sodipodi.sourceforge.net/DTD/sodipodi-0.dtd"
   xmlns="http://www.w3.org/2000/svg"
   xmlns:svg="http://www.w3.org/2000/svg"><sodipodi:namedview
     id="namedview1"
     pagecolor="#505050"
     bordercolor="#ffffff"
     borderopacity="1"
     inkscape:showpageshadow="0"
     inkscape:pageopacity="0"
     inkscape:pagecheckerboard="1"
     inkscape:deskcolor="#d1d1d1"
     inkscape:zoom="4.2447917"
     inkscape:cx="96"
     inkscape:cy="95.882209"
     inkscape:window-width="1890"
     inkscape:window-height="1026"
     inkscape:window-x="12"
     inkscape:window-y="36"
     inkscape:window-maximized="1"
     inkscape:current-layer="svg5" /><defs
     id="defs2" /><g
     id="layer1"
     style="display:inline"><path
       fill="#000000"
       fill-rule="evenodd"
       d="m 81.87684,126.16665 a 1.3961916,1.365864 0 0 1 1.396192,-1.36586 h 11.169532 a 4.1885748,4.0975921 0 0 1 4.188576,4.09759 v 15.02451 a 1.3961916,1.365864 0 0 0 1.39619,1.36585 h 5.58477 a 1.3961916,1.365864 0 0 0 1.39618,-1.36585 V 128.89838 A 12.565726,12.292777 0 0 0 94.442564,116.6056 H 74.895883 a 1.3961916,1.365864 0 0 0 -1.396195,1.36588 v 25.95141 a 1.3961916,1.365864 0 0 0 1.396195,1.36585 h 5.584766 a 1.3961916,1.365864 0 0 0 1.396191,-1.36585 z m 36.30098,-9.56105 a 1.3961916,1.365864 0 0 1 1.39618,1.36588 v 25.95141 a 1.3961916,1.365864 0 0 1 -1.39618,1.36585 h -5.58476 a 1.3961916,1.365864 0 0 1 -1.39622,-1.36585 v -25.95141 a 1.3961916,1.365864 0 0 1 1.39622,-1.36588 z m -25.131447,12.29278 a 1.3961916,1.365864 0 0 1 1.396191,1.36585 v 13.65866 a 1.3961916,1.365864 0 0 1 -1.396191,1.36585 h -5.584767 a 1.3961916,1.365864 0 0 1 -1.396192,-1.36585 v -13.65866 a 1.3961916,1.365864 0 0 1 1.396192,-1.36585 z"
       clip-rule="evenodd"
       id="path3"
       style="display:inline;stroke-width:1" /><path
       style="display:inline;fill:none;fill-opacity:0.999846;stroke:#000000;stroke-width:10;stroke-linecap:round;stroke-linejoin:round;stroke-miterlimit:6;paint-order:fill markers stroke"
       d="m 96.536848,170.95037 c 75.498312,1.80554 70.272402,-43.29308 70.272402,-73.907832 h -24.79108 l -0.22956,-24.238303 c -7.71919,7.239472 -22.70827,8.929355 -22.93443,-4.699452 l -0.35783,28.937755 H 96.536848"
       id="path4" /><path
       style="display:inline;fill:none;fill-opacity:0.999846;stroke:#000000;stroke-width:10;stroke-linecap:round;stroke-linejoin:round;stroke-miterlimit:6;paint-order:fill markers stroke"
       d="M 96.536848,170.95037 C 21.038519,172.75591 26.264451,127.65729 26.264451,97.042538 h 24.791074 l 0.229563,-15.00767 c 7.719167,7.239472 22.70826,8.929357 22.934423,-4.699451 l 0.357826,19.707121 h 21.959511"
       id="path631" /><ellipse
       style="display:inline;fill:none;fill-opacity:0.999846;stroke:#000000;stroke-width:10.029;stroke-linecap:round;stroke-linejoin:round;stroke-miterlimit:6;stroke-dasharray:none;paint-order:fill markers stroke"
       id="path1"
       ry="12"
       rx="11"
       cy="73.291328"
       cx="-5.6815481"
       transform="matrix(0.90461423,-0.42623127,0.52085517,0.85364506,0,0)" /><path
       style="fill:none;fill-opacity:0.999846;stroke:#000000;stroke-width:10;stroke-linecap:round;stroke-linejoin:round;stroke-miterlimit:6;stroke-dasharray:none;paint-order:fill markers stroke"
       d="M 43.740015,42.90121 C 57.625701,47.221071 64.278422,55.011292 60.998307,70.029446 77.345968,63.816728 92.558543,50.022239 79.454116,36.145816 67.910851,24.992664 43.348035,37.322579 43.740015,42.90121 Z"
       id="path2" /><path
       style="display:inline;fill:none;fill-opacity:0.999846;stroke:#000000;stroke-width:6;stroke-linecap:round;stroke-linejoin:round;stroke-miterlimit:6;stroke-dasharray:none;paint-order:fill markers stroke"
       d="m 71.409085,44.599965 -3.61645,1.817586"
       id="path6" /><ellipse
       style="fill:none;fill-opacity:0.999846;stroke:#000000;stroke-width:10.029;stroke-linecap:round;stroke-linejoin:round;stroke-miterlimit:6;stroke-dasharray:none;paint-order:fill markers stroke"
       id="ellipse4"
       ry="12"
       rx="11"
       cy="-18.667156"
       cx="-164.97923"
       transform="matrix(-0.90461423,-0.42623127,-0.52085517,0.85364506,0,0)" /><path
       style="display:inline;fill:none;fill-opacity:0.999846;stroke:#000000;stroke-width:10;stroke-linecap:round;stroke-linejoin:round;stroke-miterlimit:6;stroke-dasharray:none;paint-order:fill markers stroke"
       d="m 148.25997,32.298952 c -13.88569,4.319862 -20.53841,12.110082 -17.2583,27.128238 -16.34768,-6.21272 -31.56023,-20.00721 -18.45581,-33.88363 11.54327,-11.153154 36.10607,1.176761 35.71411,6.755392 z"
       id="path5" /><path
       style="display:inline;fill:none;fill-opacity:0.999846;stroke:#000000;stroke-width:6;stroke-linecap:round;stroke-linejoin:round;stroke-miterlimit:6;stroke-dasharray:none;paint-order:fill markers stroke"
       d="m 124.2903,35.891799 -3.61643,-1.817584"
       id="path6-7" /></g></svg>
