<svg xmlns="http://www.w3.org/2000/svg" id="图层_1" data-name="图层 1" viewBox="0 0 67.13 160"><defs><style>.cls-1{fill:none;stroke:#000;stroke-linecap:round;stroke-linejoin:round;stroke-width:6px}</style></defs><path d="m3.96 58.38 7.15 7.09 6.46-7.09-6.81-6.41M26.42 63.44c.2-.67 1.45-5.17-1.19-8.85-2.78-3.88-8.74-5.28-14.13-2.79" class="cls-1"/><path d="M3.95 58.38a11.82 11.82 0 0 0 2.73 13.25 12 12 0 0 0 12 2.44l36.88 36.11 7.15-7.59-36.76-37.46M40.64 68.93l4.85 4.93 5.74-4.93 8.04-1.01L64.13 57l-5.37-6.45-11.1 4.71-.26 6.95-6.76 6.72zM20.72 86.65 3.96 102.84l6.8 7.35 17.88-15.95-7.92-7.59zM17.89 116.49l-7.33 3.31M51.85 116.44l6.34 4.36a68.11 68.11 0 0 0-6 17.15c-1.59 7.91-.88 12-4.38 15.36s-8.25 3.47-12.09 3.63c-3.54.14-10.39.41-14.64-3.8-3.34-3.31-2.57-6.9-4.38-15.12a72.74 72.74 0 0 0-6.14-17.26l7.36-2.87" class="cls-1"/><path d="M51.56 116.82a18.51 18.51 0 0 1-33.38.88M9.25 87.49v-6.24M58.19 74.83v12.66M50.85 45.92l7.63-4.31c-5.19-7.07-6.94-13.33-7.4-18.22-.73-7.83 2-11.94-.94-15.94C46.78 2.88 39.4 3 33.61 3s-13 .14-16.23 4.69c-2.81 4 0 8-.51 15.94a38.32 38.32 0 0 1-6.13 18.23l6.83 2" class="cls-1"/><path d="M50.85 45.92a18 18 0 0 0-33.28-2" class="cls-1"/></svg>