<svg width="192" height="192" viewBox="0 0 192 192" fill="none" xmlns="http://www.w3.org/2000/svg"><path d="M142.545 39.929c-.874-3.924-2.999-7.871-6.301-11.173-7.762-7.762-19.089-9.021-25.299-2.811-6.21 6.21-4.952 17.537 2.811 25.3 5.439 5.439 12.629 7.684 18.582 6.405m10.207-17.721a16.241 16.241 0 0 0-5.846 3.77c-3.94 3.94-5.435 9.306-4.361 13.95m10.207-17.72c4.908-1.812 10.323-.989 13.919 2.607 5.136 5.137 4.616 13.986-1.163 19.765s-14.628 6.3-19.765 1.163c-1.635-1.635-2.696-3.646-3.198-5.814M49.455 45.929c.874-3.924 2.999-7.871 6.3-11.173 7.763-7.762 19.09-9.021 25.3-2.811 6.21 6.21 4.951 17.537-2.81 25.3-5.44 5.439-12.63 7.684-18.583 6.405M49.455 45.928a16.239 16.239 0 0 1 5.846 3.77c3.94 3.94 5.435 9.306 4.361 13.95M49.455 45.93c-4.908-1.812-10.323-.989-13.919 2.607C30.4 53.673 30.92 62.522 36.7 68.301s14.628 6.3 19.765 1.163c1.635-1.635 2.696-3.646 3.198-5.814M76 82v12m40-18v18" stroke="#000" stroke-width="12" stroke-linecap="round" stroke-linejoin="round"/><path d="M88 132v14m-16 0v-28h26a6 6 0 0 1 6 6v22m16-28v28" stroke="#000" stroke-width="8" stroke-linecap="round" stroke-linejoin="round"/><path d="M34 100a6 6 0 0 1 6-6h112a6 6 0 0 1 6 6v46c0 13.255-10.745 24-24 24H58c-13.255 0-24-10.745-24-24v-46Z" stroke="#000" stroke-width="12" stroke-linecap="round" stroke-linejoin="round"/></svg>