<?xml version="1.0" encoding="utf-8"?>
<!-- Generator: Adobe Illustrator 23.0.3, SVG Export Plug-In . SVG Version: 6.00 Build 0)  -->
<svg version="1.1" id="图层_1" xmlns="http://www.w3.org/2000/svg" xmlns:xlink="http://www.w3.org/1999/xlink" x="0px" y="0px"
	 width="192px" height="192px" viewBox="0 0 192 192" style="enable-background:new 0 0 192 192;" xml:space="preserve">
<style type="text/css">
	.st0{fill:none;stroke:#000000;stroke-width:6;stroke-linecap:round;stroke-linejoin:round;}
</style>
<g>
	<path class="st0" d="M67.2,75.3l7.2,7.1l6.4-7.1l-6.8-6.4 M89.9,80.3c0.2-0.7,1.4-5.2-1.2-8.9c-2.8-3.9-8.8-5.3-14.2-2.8"/>
	<path class="st0" d="M67.2,75.3c-2,4.6-0.9,9.9,2.7,13.4c3.3,2.9,8,3.9,12.1,2.4l37.1,36.3l7.2-7.6L89.4,82 M104.1,85.8l4.8,4.9
		l5.7-4.9l8.1-1l4.9-11l-5.4-6.4l-11.2,4.7l-0.3,6.9L104.1,85.8z M84.1,103.7L67.2,120l6.8,7.3l18-16.1L84.1,103.7z M81.2,133.7
		l-7.3,3.3 M115.4,133.6l6.3,4.4c-2.8,5.4-4.8,11.3-6,17.2c-1.6,8-0.9,12.1-4.4,15.5s-8.4,3.5-12.2,3.6c-3.5,0.1-10.5,0.4-14.7-3.8
		c-3.3-3.3-2.6-6.9-4.4-15.2c-1.3-6-3.4-11.9-6.1-17.4l7.4-2.9"/>
	<path class="st0" d="M115.1,134c-4.2,9.4-15.2,13.6-24.6,9.5c-3.9-1.7-7-4.7-9-8.6 M72.5,104.5v-6.2 M121.8,91.8v12.8 M114.4,62.7
		l7.6-4.3c-3-4-6.8-10.3-7.4-18.3c-0.7-7.9,2-12-0.9-16c-3.4-4.6-10.8-4.6-16.6-4.5c-5.8,0.1-13.1,0.1-16.3,4.7c-2.8,4,0,8.1-0.5,16
		c-0.5,6.5-2.6,12.9-6.1,18.3l6.8,2"/>
	<path class="st0" d="M114.4,62.7c-3.2-9.5-13.5-14.6-22.9-11.4c-4.6,1.6-8.5,4.9-10.6,9.4"/>
</g>
</svg>
