<svg xmlns="http://www.w3.org/2000/svg" width="192" height="192" fill="none" viewBox="0 0 192 192"><path stroke="#000" stroke-linecap="round" stroke-linejoin="round" stroke-width="8" d="M101 22v148M71 28v136m60-132v128m7-54 17 34M45 46v100m0-51a20 20 0 1 0 0-40m26 59c6.63 0 12.99-4.109 17.678-11.423S96 85.343 96 75s-2.634-20.263-7.322-27.577S77.63 36 71 36m60 71c6.1 0 11.95-3.74 16.263-10.398S154 80.915 154 71.5s-2.423-18.445-6.737-25.102C142.95 39.74 137.1 36 131 36m-30 76c6.63 0 12.989-4.214 17.678-11.716C123.366 92.783 126 82.609 126 72s-2.634-20.783-7.322-28.284C113.989 36.214 107.63 32 101 32M45 135a19.999 19.999 0 1 0 0-40"/><circle cx="96" cy="96" r="75" stroke="#000" stroke-linecap="round" stroke-linejoin="round" stroke-width="10"/></svg>