<svg xmlns="http://www.w3.org/2000/svg" width="192" height="192" fill="none"><path stroke="#000" stroke-linecap="round" stroke-linejoin="round" stroke-width="12" d="M28 22h48a6 6 0 0 1 6 6v16a6 6 0 0 1-6 6H28a6 6 0 0 1-6-6V28a6 6 0 0 1 6-6m0 54h48a6 6 0 0 1 6 6v16a6 6 0 0 1-6 6H28a6 6 0 0 1-6-6V82a6 6 0 0 1 6-6m88-54h48a6 6 0 0 1 6 6v16a6 6 0 0 1-6 6h-48a6 6 0 0 1-6-6V28a6 6 0 0 1 6-6m0 54h48a6 6 0 0 1 6 6v16a6 6 0 0 1-6 6h-48a6 6 0 0 1-6-6V82a6 6 0 0 1 6-6"/><circle cx="29" cy="134" r="5" stroke="#000" stroke-linejoin="round" stroke-width="10"/><circle cx="29" cy="166" r="5" stroke="#000" stroke-linejoin="round" stroke-width="10"/><circle cx="117" cy="134" r="5" stroke="#000" stroke-linejoin="round" stroke-width="10"/><circle cx="117" cy="166" r="5" stroke="#000" stroke-linejoin="round" stroke-width="10"/><circle cx="75" cy="134" r="5" stroke="#000" stroke-linejoin="round" stroke-width="10"/><circle cx="75" cy="166" r="5" stroke="#000" stroke-linejoin="round" stroke-width="10"/><circle cx="163" cy="134" r="5" stroke="#000" stroke-linejoin="round" stroke-width="10"/><circle cx="163" cy="166" r="5" stroke="#000" stroke-linejoin="round" stroke-width="10"/></svg>