<svg width="192" height="192" viewBox="0 0 192 192" fill="none" xmlns="http://www.w3.org/2000/svg"><path d="M55 145H28a6 6 0 0 1-6-6V32.677a6 6 0 0 1 6.025-6l71 .298a6 6 0 0 1 5.975 6V110" stroke="#000" stroke-width="12" stroke-linecap="round" stroke-linejoin="round"/><path d="M170.001 32.652a6 6 0 0 0-6-6h-30.624a6 6 0 0 0-6 6v48.45a6 6 0 0 0 6 6h30.624a6 6 0 0 0 6-6v-48.45ZM77.516 136.674a6 6 0 0 1 6-6h53.123a6 6 0 0 1 6 6v22.674a6 6 0 0 1-6 6H83.516a6 6 0 0 1-6-6v-22.674Z" stroke="#000" stroke-width="12" stroke-linejoin="round"/></svg>