<?xml version="1.0" encoding="UTF-8" standalone="no"?>
<!-- Created with Inkscape (http://www.inkscape.org/) -->

<svg
   width="23.999998"
   height="24"
   viewBox="0 0 6.3499993 6.3500002"
   version="1.1"
   id="svg6226"
   inkscape:version="1.1.1 (3bf5ae0d25, 2021-09-20)"
   sodipodi:docname="MiFit.svg"
   xmlns:inkscape="http://www.inkscape.org/namespaces/inkscape"
   xmlns:sodipodi="http://sodipodi.sourceforge.net/DTD/sodipodi-0.dtd"
   xmlns="http://www.w3.org/2000/svg"
   xmlns:svg="http://www.w3.org/2000/svg">
  <sodipodi:namedview
     id="namedview6228"
     pagecolor="#505050"
     bordercolor="#eeeeee"
     borderopacity="1"
     inkscape:pageshadow="0"
     inkscape:pageopacity="0"
     inkscape:pagecheckerboard="0"
     inkscape:document-units="px"
     showgrid="false"
     units="px"
     fit-margin-left="4.00377"
     fit-margin-top="4"
     fit-margin-right="4.00377"
     fit-margin-bottom="4"
     inkscape:zoom="35.195347"
     inkscape:cx="9.6461614"
     inkscape:cy="15.527621"
     inkscape:window-width="2560"
     inkscape:window-height="1351"
     inkscape:window-x="-9"
     inkscape:window-y="-9"
     inkscape:window-maximized="1"
     inkscape:current-layer="layer1" />
  <defs
     id="defs6223" />
  <g
     inkscape:label="Ebene 1"
     inkscape:groupmode="layer"
     id="layer1"
     transform="translate(-0.03120946,-3.3520925e-4)">
    <path
       style="fill:#000000;stroke-width:0.0110358"
       d="m 2.9965123,5.2812852 c -0.342902,-0.03514 -0.679442,-0.157005 -0.966802,-0.35008 -0.537548,-0.361173 -0.86711,-0.91951 -0.932409,-1.57967 -0.0132,-0.133427 -0.006,-0.388317 0.01232,-0.436515 0.02102,-0.05528 0.11107,-0.0569 0.130454,-0.0024 0.0049,0.01377 0.0051,0.07966 5.47e-4,0.146422 -0.0468,0.680598 0.293959,1.367055 0.869549,1.751721 0.821848,0.54924 1.927802,0.404595 2.575438,-0.336835 0.78263,-0.895974 0.602336,-2.276089 -0.383401,-2.934856 -0.356996,-0.23858 -0.770598,-0.351068 -1.2189,-0.331506 l -0.139436,0.0061 -0.01904,-0.02906 c -0.02329,-0.03554 -0.01513,-0.07763 0.01943,-0.100268 0.03592,-0.02352 0.281903,-0.03379 0.438497,-0.0183 0.66016,0.0653 1.218497,0.394861 1.579671,0.932409 0.479264,0.713307 0.479264,1.639656 0,2.352964 -0.436115,0.649085 -1.196443,1.008704 -1.965923,0.92984 z m -0.187608,-1.880089 v -0.303484 h 0.137947 0.137947 v 0.303484 0.303484 h -0.137947 -0.137947 z m -0.474539,-0.237269 v -0.529717 h 0.463089 c 0.441331,0 0.465958,0.0011 0.524163,0.02285 0.08082,0.03024 0.172701,0.114926 0.2124,0.195767 l 0.03084,0.0628 0.0034,0.389011 0.0034,0.389011 h -0.137987 -0.137986 l -0.0034,-0.328314 c -0.0031,-0.305037 -0.0049,-0.330971 -0.02543,-0.365786 -0.01214,-0.02061 -0.03608,-0.04792 -0.0532,-0.0607 -0.02943,-0.02196 -0.04646,-0.0234 -0.31176,-0.02651 l -0.28063,-0.0033 v 0.392301 0.392301 h -0.143466 -0.143465 z m 1.456723,0 v -0.529717 h 0.143465 0.143465 v 0.529717 0.529717 h -0.143465 -0.143465 z m -2.389246,-0.848096 c -0.126946,-0.04128 -0.192301,-0.192363 -0.133296,-0.30815 0.02182,-0.04283 0.716029,-0.73237 0.753704,-0.748642 0.01953,-0.0084 0.0607,-0.01534 0.09149,-0.01534 0.160172,0 0.266139,0.161239 0.19945,0.303483 -0.02873,0.06128 -0.708607,0.737877 -0.764764,0.761074 -0.0417,0.01722 -0.106585,0.02058 -0.146579,0.0076 z"
       id="path6114" />
  </g>
</svg>
