<svg xmlns="http://www.w3.org/2000/svg" width="192" height="192" viewBox="0 0 192 192"><path d="m102 22 2.523-5.444A6 6 0 0 0 96 22zm49.868 63.65a6 6 0 1 0 8.264 8.7zM96 22v112h12V22zm3.477 5.444c20.118 9.323 37.8 21.15 47.911 32.54 5.078 5.72 7.786 10.816 8.452 14.992.599 3.753-.349 7.232-3.972 10.674l8.264 8.7c6.377-6.058 8.804-13.454 7.559-21.264-1.178-7.386-5.532-14.54-11.329-21.07-11.639-13.11-30.957-25.783-51.839-35.46zM96 134a30 30 0 0 1-30 30v12a42 42 0 0 0 42-42zm-30 30a30 30 0 0 1-30-30H24a42 42 0 0 0 42 42zm-30-30a30 30 0 0 1 30-30V92a42 42 0 0 0-42 42zm30-30a30 30 0 0 1 30 30h12a42 42 0 0 0-42-42z"/></svg>