<svg width="192" height="192" viewBox="0 0 192 192" fill="none" xmlns="http://www.w3.org/2000/svg">
<path d="M102 22L104.523 16.5561C102.665 15.6951 100.496 15.8412 98.7702 16.9435C97.0444 18.0458 96 19.9522 96 22H102ZM151.868 85.65C149.465 87.9323 149.368 91.7301 151.65 94.1325C153.932 96.5349 157.73 96.6323 160.132 94.35L151.868 85.65ZM96 22V134H108V22H96ZM99.4772 27.4439C119.595 36.767 137.277 48.5935 147.388 59.9833C152.466 65.7038 155.174 70.7996 155.84 74.9761C156.439 78.7287 155.491 82.2078 151.868 85.65L160.132 94.35C166.509 88.2922 168.936 80.8963 167.691 73.0864C166.513 65.7004 162.159 58.5462 156.362 52.0167C144.723 38.9065 125.405 26.233 104.523 16.5561L99.4772 27.4439ZM96 134C96 150.569 82.5685 164 66 164V176C89.196 176 108 157.196 108 134H96ZM66 164C49.4315 164 36 150.569 36 134H24C24 157.196 42.804 176 66 176V164ZM36 134C36 117.431 49.4315 104 66 104V92C42.804 92 24 110.804 24 134H36ZM66 104C82.5685 104 96 117.431 96 134H108C108 110.804 89.196 92 66 92V104Z" fill="black"/>
</svg>
