<svg xmlns="http://www.w3.org/2000/svg" width="192" height="192" fill="none"><path stroke="#000" stroke-linecap="round" stroke-linejoin="round" stroke-width="12" d="m111 66-77.37 63.482M81 126l76.58-62.835m0 0A13.94 13.94 0 0 1 149.155 66H30.982c-1.721 0-2.621-2.029-1.458-3.287L66.562 22.64c1.219-1.319 3.436-.463 3.436 1.325v14.573h79.157a13.92 13.92 0 0 1 9.79 4.022 13.7 13.7 0 0 1 3.001 4.455 13.63 13.63 0 0 1 0 10.509 13.7 13.7 0 0 1-4.366 5.641M33.63 129.482a13.9 13.9 0 0 1 3.917-2.437c1.68-.69 3.48-1.045 5.298-1.045h118.173c1.721 0 2.621 2.029 1.458 3.287l-37.038 40.073c-1.219 1.319-3.436.463-3.436-1.325v-14.573H42.845c-1.818 0-3.619-.355-5.298-1.045a13.9 13.9 0 0 1-4.492-2.977 13.7 13.7 0 0 1-3.001-4.455 13.63 13.63 0 0 1 0-10.509 13.7 13.7 0 0 1 3.577-4.994ZM111 66l-77.37 63.482M81 126l76.58-62.835"/></svg>