<svg width="192" height="192" viewBox="0 0 192 192" fill="none" xmlns="http://www.w3.org/2000/svg"><path d="M170 96a74.004 74.004 0 0 1-74 74 74.002 74.002 0 0 1-74-74 74 74 0 1 1 148 0Z" stroke="#000" stroke-width="12"/><path d="M122 96a26 26 0 1 1-51.999.001A26 26 0 0 1 122 96Z" stroke="#000" stroke-width="12"/><path d="M104 46a8 8 0 1 1-16.002 0A8 8 0 0 1 104 46Zm42 58a8 8 0 1 1 0-16 8 8 0 0 1 0 16Zm-42 42a8 8 0 1 1-16 0 8 8 0 0 1 16 0Zm-58-42a8 8 0 1 1 0-16.002A8 8 0 0 1 46 104Z" fill="#000"/></svg>