<?xml version="1.0" encoding="utf-8"?>
	<svg version="1.1" xmlns="http://www.w3.org/2000/svg" xmlns:xlink="http://www.w3.org/1999/xlink" x="0px" y="0px" width="240.0" height="240.0" xml:space="preserve">
		<path d="M50,42L130,42A10,10 0,0 1,140 52L140,172A10,10 0,0 1,130 182L50,182A10,10 0,0 1,40 172L40,52A10,10 0,0 1,50 42z" fill="#000" stroke="" stroke-width="" stroke-miterlimit=""/>
		<path d="M117,157L177,157A10,10 0,0 1,187 167L187,197A10,10 0,0 1,177 207L117,207A10,10 0,0 1,107 197L107,167A10,10 0,0 1,117 157z" fill="#000" stroke="" stroke-width="" stroke-miterlimit=""/>
		<path d="M156,24L196,24A10,10 0,0 1,206 34L206,94A10,10 0,0 1,196 104L156,104A10,10 0,0 1,146 94L146,34A10,10 0,0 1,156 24z" fill="#000" stroke="" stroke-width="" stroke-miterlimit=""/>
	</svg>
