<svg xmlns="http://www.w3.org/2000/svg" width="192" height="192" fill="none"><path stroke="#000" stroke-linecap="round" stroke-linejoin="round" stroke-width="12" d="M107 60v7m62-7v72M52 42s76 14 76 68m41-50a30.999 30.999 0 0 0-52.92-21.92A31 31 0 0 0 107 60"/><path stroke="#000" stroke-linecap="round" stroke-linejoin="round" stroke-width="12" d="m52 42 6.092 17.77A53 53 0 1 0 128 110m42-82c-8 1-10 9-10 9"/><path stroke="#000" stroke-linecap="round" stroke-linejoin="round" stroke-width="12" d="M169 132a31 31 0 0 1-56.923 17"/><circle cx="128" cy="58" r="3" stroke="#000" stroke-linecap="round" stroke-linejoin="round" stroke-width="6"/><circle cx="148" cy="58" r="3" stroke="#000" stroke-linecap="round" stroke-linejoin="round" stroke-width="6"/><circle cx="98" cy="98" r="4" stroke="#000" stroke-linecap="round" stroke-linejoin="round" stroke-width="8"/><circle cx="72" cy="98" r="4" stroke="#000" stroke-linecap="round" stroke-linejoin="round" stroke-width="8"/></svg>