<?xml version="1.0" encoding="utf-8"?>
<!-- Generator: Adobe Illustrator 16.0.0, SVG Export Plug-In . SVG Version: 6.00 Build 0)  -->
<!DOCTYPE svg PUBLIC "-//W3C//DTD SVG 1.1//EN" "http://www.w3.org/Graphics/SVG/1.1/DTD/svg11.dtd">
<svg version="1.1" id="图层_1" xmlns="http://www.w3.org/2000/svg" xmlns:xlink="http://www.w3.org/1999/xlink" x="0px" y="0px"
	 width="192px" height="192px" viewBox="201.641 324.945 192 192" enable-background="new 201.641 324.945 192 192"
	 xml:space="preserve">
<g id="图层_2" display="none">
	
		<image display="inline" overflow="visible" enable-background="new    " width="720" height="790" xlink:href="../../Downloads/clipart3340070.png"  transform="matrix(1 0 0 1 -62.3584 -72.2034)">
	</image>
	<path display="inline" fill="none" d="M297.64,794.89c0,0,193.359,7,61.359-266"/>
	<path display="inline" fill="none" d="M297.641,794.89c0,0-193.359,7-61.359-266"/>
	<g display="inline">
		<path fill="none" d="M297.64,794.89c0,0,193.359,7,61.359-266"/>
		<path fill="none" d="M297.641,794.89c0,0-193.359,7-61.359-266"/>
	</g>
</g>
<g>
	<g>
		<path fill="none" stroke="#000000" stroke-width="8" stroke-linecap="round" d="M297.105,496.942c0,0,38.937,1.409,12.355-53.565"
			/>
		<path fill="none" stroke="#000000" stroke-width="8" stroke-linecap="round" d="M297.105,496.942c0,0-38.937,1.409-12.355-53.565"
			/>
	</g>
	<g>
		<path fill="none" stroke="#000000" stroke-width="8" stroke-linecap="round" d="M232.12,459.252c0,0,18.112,34.497,52.629-15.875"
			/>
		<path fill="none" stroke="#000000" stroke-width="8" stroke-linecap="round" d="M232.12,459.252c0,0-20.559-33.097,40.357-37.325"
			/>
	</g>
	<g>
		<path fill="none" stroke="#000000" stroke-width="8" stroke-linecap="round" d="M309.46,442.814
			c32.259,51.847,51.877,18.184,51.877,18.184"/>
		<path fill="none" stroke="#000000" stroke-width="8" stroke-linecap="round" d="M322.667,421.927
			c60.671,6.914,38.669,39.072,38.669,39.072"/>
	</g>
	<g>
		<path fill="none" stroke="#000000" stroke-width="8" stroke-linecap="round" stroke-linejoin="round" d="M231.681,385.084
			c0,0-20.166,33.338,40.797,36.842"/>
		<path fill="none" stroke="#000000" stroke-width="8" stroke-linecap="round" stroke-linejoin="round" d="M231.68,385.085
			c0,0,17.701-34.709,52.814,15.249"/>
	</g>
	<path fill="none" stroke="#000000" stroke-width="8" stroke-linecap="round" d="M283.16,351.28
		c-7.595,5.751-12.715,18.924,1.628,49.054"/>
	<path fill="none" stroke="#000000" stroke-width="8" stroke-linecap="round" d="M366.797,398.368
		c-0.686,9.747-8.937,21.645-44.13,23.408"/>
	<path fill="none" stroke="#000000" stroke-width="8" d="M311.539,398.367c25.79,0.137,44.357-9.065,44.345-26.316
		c0.232-3.942-1.799-7.271-3.834-9.586c-2.436-2.768-5.816-4.581-9.492-4.902c-0.511-0.043-1.023-0.062-1.525-0.036
		c-3.597,0.168-6.175,1.604-7.309,2.329c0.057-1.342,0.003-4.298-1.653-7.491c-0.234-0.447-0.505-0.884-0.796-1.302
		c-2.122-3.018-5.387-5.031-9.003-5.752c-3.022-0.6-6.921-0.685-10.214,1.493C297.127,355.449,298.479,376.13,311.539,398.367z"/>
</g>
</svg>
