<svg xmlns="http://www.w3.org/2000/svg" width="192" height="192" fill="none" stroke-linecap="round" stroke-width="12" viewBox="0 0 192 192"><path stroke="#000" d="M95.465 169.996s38.829 1.406 12.322-53.413m-12.322 53.413s-38.827 1.406-12.32-53.413m-52.482 15.83s18.06 34.4 52.482-15.83m-52.482 15.83S10.16 99.41 70.906 95.193m36.881 20.827c32.168 51.703 51.731 18.135 51.731 18.135"/><path stroke="#000" d="M120.957 95.193c60.501 6.893 38.559 38.963 38.559 38.963M30.224 58.455S10.116 91.698 70.907 95.194M30.224 58.455S47.874 23.844 82.89 73.66m-1.332-48.914c-7.573 5.736-12.679 18.872 1.622 48.916m81.783-1.96c-.684 9.718-8.909 21.583-44.006 23.342"/><path fill="#000" d="M117.829 27.777c.938 0 1.841.112 2.66.274 2.714.543 5.163 2.052 6.755 4.317.218.313.42.64.596.976a11.2 11.2 0 0 1 1.241 5.62 11.17 11.17 0 0 1 5.849-1.756q.388.002.778.036c2.757.24 5.294 1.601 7.121 3.677 1.528 1.736 3.05 4.234 2.876 7.19.008 12.85-13.715 19.744-32.842 19.744l-.425-.001c-9.798-16.684-10.812-32.198.389-38.681 1.579-1.045 3.343-1.396 5.002-1.396m0-11.777c-4.073 0-7.926 1.084-11.173 3.139-6.364 3.773-10.724 9.56-12.619 16.757-2.841 10.786.01 23.9 8.245 37.922l3.393 5.777 6.699.036.488.001c11.706 0 21.888-2.285 29.445-6.608C152 67.48 157.379 58.751 157.48 48.42c.217-5.434-1.787-10.71-5.811-15.281-3.867-4.395-9.137-7.098-14.844-7.62-3.311-4.669-8.288-7.87-14.028-9.016a25.6 25.6 0 0 0-4.968-.503"/></svg>