<?xml version="1.0" encoding="utf-8"?>
<!-- Generator: Adobe Illustrator 16.0.0, SVG Export Plug-In . SVG Version: 6.00 Build 0)  -->
<!DOCTYPE svg PUBLIC "-//W3C//DTD SVG 1.1//EN" "http://www.w3.org/Graphics/SVG/1.1/DTD/svg11.dtd">
<svg version="1.1" id="图层_1" xmlns="http://www.w3.org/2000/svg" xmlns:xlink="http://www.w3.org/1999/xlink" x="0px" y="0px"
	 width="192px" height="192px" viewBox="0 0 192 192" enable-background="new 0 0 192 192" xml:space="preserve">
<g id="图层_2" display="none">
	
		<image display="inline" overflow="visible" enable-background="new    " width="720" height="790" xlink:href="../../Downloads/clipart3340070.png"  transform="matrix(1 0 0 1 -62.3584 -72.2031)">
	</image>
	<path display="inline" fill="none" d="M297.641,794.891c0,0,193.358,7,61.358-266"/>
	<path display="inline" fill="none" d="M297.641,794.891c0,0-193.357,7-61.357-266"/>
	<g display="inline">
		<path fill="none" d="M297.641,794.891c0,0,193.358,7,61.358-266"/>
		<path fill="none" d="M297.641,794.891c0,0-193.357,7-61.357-266"/>
	</g>
</g>
<g>
	<g>
		<path fill="none" stroke="#000000" stroke-width="12" stroke-linecap="round" d="M95.455,169.996c0,0,39.563,1.433,12.555-54.423"
			/>
		<path fill="none" stroke="#000000" stroke-width="12" stroke-linecap="round" d="M95.455,169.996c0,0-39.561,1.433-12.553-54.423"
			/>
	</g>
	<g>
		<path fill="none" stroke="#000000" stroke-width="12" stroke-linecap="round" d="M29.428,131.703c0,0,18.402,35.05,53.474-16.13"
			/>
		<path fill="none" stroke="#000000" stroke-width="12" stroke-linecap="round" d="M29.428,131.703c0,0-20.889-33.627,41.004-37.924
			"/>
	</g>
	<g>
		<path fill="none" stroke="#000000" stroke-width="12" stroke-linecap="round" d="M108.01,115
			c32.776,52.68,52.709,18.477,52.709,18.477"/>
		<path fill="none" stroke="#000000" stroke-width="12" stroke-linecap="round" d="M121.429,93.779
			c61.644,7.023,39.288,39.699,39.288,39.699"/>
	</g>
	<g>
		<path fill="none" stroke="#000000" stroke-width="12" stroke-linecap="round" stroke-linejoin="round" d="M28.981,56.346
			c0,0-20.488,33.873,41.452,37.434"/>
		<path fill="none" stroke="#000000" stroke-width="12" stroke-linecap="round" stroke-linejoin="round" d="M28.981,56.346
			c0,0,17.984-35.265,53.661,15.493"/>
	</g>
	<path fill="none" stroke="#000000" stroke-width="12" stroke-linecap="round" d="M81.285,22
		c-7.716,5.845-12.918,19.229,1.653,49.841"/>
	<path fill="none" stroke="#000000" stroke-width="12" stroke-linecap="round" d="M166.267,69.844
		c-0.697,9.902-9.078,21.991-44.838,23.783"/>
	<g>
		<path d="M118.242,25.089c0.955,0,1.876,0.114,2.71,0.279c2.765,0.553,5.261,2.091,6.883,4.398
			c0.222,0.319,0.428,0.653,0.607,0.995c1.267,2.44,1.307,4.7,1.264,5.726c0.866-0.555,2.837-1.651,5.586-1.779
			c0.124-0.007,0.249-0.01,0.374-0.01c0.264,0,0.528,0.014,0.793,0.037c2.809,0.244,5.394,1.631,7.255,3.746
			c1.557,1.769,3.108,4.314,2.931,7.326c0.008,13.092-13.975,20.117-33.463,20.117c-0.143,0-0.289,0-0.433-0.001
			c-9.983-16.999-11.017-32.806,0.396-39.412C114.754,25.446,116.551,25.089,118.242,25.089 M118.242,13.089
			c-4.15,0-8.076,1.104-11.384,3.198C100.373,20.132,95.931,26.029,94,33.361C91.105,44.351,94.01,57.712,102.401,72l3.457,5.886
			l6.826,0.037l0.497,0.001c11.927,0,22.302-2.328,30.001-6.733c9.877-5.65,15.357-14.543,15.46-25.069
			c0.221-5.537-1.821-10.913-5.921-15.57c-3.94-4.478-9.309-7.232-15.124-7.764c-3.374-4.757-8.445-8.018-14.293-9.187
			C121.584,13.26,119.887,13.089,118.242,13.089L118.242,13.089z"/>
	</g>
</g>
</svg>
