<?xml version="1.0" encoding="UTF-8" standalone="no"?>
<svg
   version="1.1"
   id="svg9"
   width="192"
   height="192"
   xmlns="http://www.w3.org/2000/svg"
   xmlns:svg="http://www.w3.org/2000/svg">
  <defs
     id="defs1">
    <style
       id="style1">.a{fill:none;stroke:#000;stroke-linecap:round;stroke-linejoin:round}</style>
  </defs>
  <g
     id="g10"
     transform="matrix(0.74548399,0.63692265,-0.6163246,0.7352836,127.73974,-47.406206)"
     style="fill:none;stroke:#000000;stroke-width:12.3724;stroke-linecap:round;stroke-linejoin:round;stroke-dasharray:none;stroke-opacity:1">
    <path
       class="a"
       d="m 117.316,185.203 c 7.41375,-9.81329 18.836,-38.246 18.837,-53.8 v -14.04"
       id="path7"
       style="fill:none;stroke:#000000;stroke-width:12.3724;stroke-linecap:round;stroke-linejoin:round;stroke-dasharray:none;stroke-opacity:1" />
    <path
       class="a"
       id="polyline7"
       style="fill:none;stroke:#000000;stroke-width:2.30472;stroke-linecap:round;stroke-linejoin:round;stroke-dasharray:none;stroke-opacity:1"
       transform="matrix(5.28573,0,0,5.4522,-32.521,-30.895)"
       d="m 25.766,32.353 6.145,-5.161 5.343,6.301" />
  </g>
  <path
     d="m 72.13995,139.66115 c 0,0 -34.609249,-5.93984 -43.140884,5.52013 -4.265816,5.72794 -1.546102,16.28435 3.954556,20.8989 14.372131,12.04875 40.938577,-8.85524 40.938577,-8.85524 M 75.282161,170 c 0,0 -1.7349,-10.68069 -1.689997,-21.56002 0.04082,-10.67763 0.03878,-21.54472 -0.132669,-22.68563 C 68.747706,94.84606 29.094996,112.01462 29.094996,112.01462"
     id="path1"
     style="fill:none;stroke:#000000;stroke-width:12;stroke-linecap:round;stroke-linejoin:round;stroke-dasharray:none;stroke-opacity:1" />
  <g
     id="g4"
     transform="matrix(-0.745484,-0.63692266,0.61632461,-0.73528361,54.075171,246.1859)"
     style="fill:none;stroke:#000000;stroke-width:12.3724;stroke-linecap:round;stroke-linejoin:round;stroke-dasharray:none;stroke-opacity:1">
    <path
       class="a"
       d="m 117.316,185.203 c 6.97611,-10.34264 18.836,-38.246 18.837,-53.8 v -14.04"
       id="path3"
       style="fill:none;stroke:#000000;stroke-width:12.3724;stroke-linecap:round;stroke-linejoin:round;stroke-dasharray:none;stroke-opacity:1" />
    <path
       class="a"
       id="path4"
       style="fill:none;stroke:#000000;stroke-width:2.30472;stroke-linecap:round;stroke-linejoin:round;stroke-dasharray:none;stroke-opacity:1"
       d="m 25.766,32.353 6.145,-5.161 5.343,6.301"
       transform="matrix(5.28573,0,0,5.4522,-32.521,-30.895)" />
  </g>
  <g
     id="g12"
     transform="matrix(0.95624053,0,0,0.95562031,-7.0556675,0.81889694)"
     style="fill:none;stroke:#000000;stroke-width:10.461;stroke-linecap:round;stroke-linejoin:round;stroke-dasharray:none;stroke-opacity:1">
    <path
       style="fill:none;stroke:#000000;stroke-width:10.461;stroke-linecap:round;stroke-linejoin:round;stroke-miterlimit:32;stroke-dasharray:none;stroke-opacity:1"
       d="m 122.428,46.531 c 25.743,-1.192 35.21,0.25 60.715,2.889"
       id="path6" />
    <path
       style="fill:none;stroke:#000000;stroke-width:10.461;stroke-linecap:round;stroke-linejoin:round;stroke-miterlimit:32;stroke-dasharray:none;stroke-opacity:1"
       d="m 179.597,44.625 -4.762,9.212"
       id="path8" />
    <path
       style="fill:none;stroke:#000000;stroke-width:10.461;stroke-linecap:round;stroke-linejoin:round;stroke-miterlimit:32;stroke-dasharray:none;stroke-opacity:1"
       d="m 145.64109,21.116644 c 3.23,2.282 5.863,5.68 6.756,9.378"
       id="path9" />
    <path
       style="fill:none;stroke:#000000;stroke-width:10.461;stroke-linecap:round;stroke-linejoin:round;stroke-miterlimit:32;stroke-dasharray:none;stroke-opacity:1"
       d="m 121.434,39.827 c 0.044,5.691 0.022,9.48 -2.308,14.978"
       id="path10" />
    <path
       style="fill:none;stroke:#000000;stroke-width:10.461;stroke-linecap:round;stroke-linejoin:round;stroke-miterlimit:32;stroke-dasharray:none;stroke-opacity:1"
       d="m 129.152,68.891712 c 11.041,-1.201 26.853,-0.045 36.332,1.897 -5.884,4.658 -13.98,10.756 -15.31,14.366 l -1.616,22.497008 v 1.893 c -3.94,0.09 -10.807,-1.325 -13.315,-2.87"
       id="path11" />
    <path
       style="fill:none;stroke:#000000;stroke-width:10.461;stroke-linecap:round;stroke-linejoin:round;stroke-miterlimit:32;stroke-dasharray:none;stroke-opacity:1"
       d="m 125.18,88.402712 c 15.812,-1.542 35.316,0.635 50.684,3.795"
       id="path12" />
  </g>
</svg>
