<svg xmlns="http://www.w3.org/2000/svg" width="192" height="192" fill="none" stroke="#000" stroke-width="12" viewBox="0 0 192 192"><rect width="68" height="68" x="22" y="62" rx="4"/><circle cx="103" cy="46" r="18"/><circle cx="156" cy="53" r="11"/><path fill="#000" stroke="none" d="M136.859 126.839c1.969 5.347 7.11 9.161 13.141 9.161 7.732 0 14-6.268 14-14V90h-27.261l-.239-11-11.004 2.341A7.99 7.99 0 0 1 132 78h36a8 8 0 0 1 8 8v36a26 26 0 0 1-26 26 25.92 25.92 0 0 1-17.999-7.237z"/><path fill="#000" stroke="none" d="M62 130c0 22.091 17.909 40 40 40s40-17.909 40-40V82l4-4H90v12h40v40c0 15.464-12.536 28-28 28s-28-12.536-28-28z"/><path stroke-linecap="round" d="M56 110V82H42m14 0h14"/></svg>