<svg width="192" height="192" viewBox="0 0 192 192" fill="none" xmlns="http://www.w3.org/2000/svg"><path d="M66 96v30M22 96v74m0 0h74m-30-44h30m0 44a74 74 0 1 0-74-74" stroke="#000" stroke-width="12" stroke-linecap="round" stroke-linejoin="round"/><path d="M96 126a29.995 29.995 0 0 0 27.716-18.519 30.004 30.004 0 0 0-6.503-32.694A29.998 29.998 0 0 0 66 96m-44 74a44.004 44.004 0 0 0 40.65-27.162A44 44 0 0 0 66 126" stroke="#000" stroke-width="12" stroke-linecap="round" stroke-linejoin="round"/></svg>