<svg xmlns="http://www.w3.org/2000/svg" width="192" height="192" fill="none" xmlns:v="https://vecta.io/nano"><path d="M102.379 22.587c6.613 1.889 11.179 7.949 11.188 14.851v10.839L74.248 62.542a10.69 10.69 0 0 0-6.996 10.031v36.287c.008 3.899-2.104 7.492-5.509 9.371l-12.188 6.606c-5.221 2.841-11.569-.963-11.554-6.924V62.762c0-5.362 2.866-10.312 7.508-12.968l44.999-25.764A15.58 15.58 0 0 1 98.161 22a15.01 15.01 0 0 1 4.218.587zm0 0c6.616 1.888 11.18 7.945 11.188 14.85V48.28v89.3 17.126c.019 6.82-4.485 12.82-11.022 14.682l41.667-11.908c6.382-1.846 10.779-7.704 10.788-14.369V48.86c.003-6.683-4.415-12.556-10.819-14.384l-41.802-11.888zm11.188 114.994H67.084c-7.964.086-10.753 10.647-3.876 14.68l27.689 15.757A15.08 15.08 0 0 0 98.381 170c1.412-.001 2.815-.206 4.168-.612 6.535-1.863 11.037-7.862 11.018-14.68v-17.127z" stroke="#000" stroke-width="12"/></svg>