<svg xmlns="http://www.w3.org/2000/svg" width="192" height="192" fill="none"><path stroke="#000" stroke-linecap="round" stroke-linejoin="round" stroke-width="12" d="M62.5 170H142c6.627 0 12-5.373 12-12V34c0-6.627-5.373-12-12-12H62.5M38 46.5V146"/><path stroke="#000" stroke-linecap="round" stroke-linejoin="round" stroke-width="12" d="M63 71h79c6.627 0 12-5.373 12-12V46.5M63 121h79c6.627 0 12-5.373 12-12V96m-91.5 25a24.5 24.5 0 0 0-22.635 15.124 24.5 24.5 0 0 0 5.31 26.7A24.5 24.5 0 0 0 62.5 170m0-148A24.5 24.5 0 0 0 38 46.5M63 71a25 25 0 0 0-25 25"/></svg>