<svg xmlns="http://www.w3.org/2000/svg" xml:space="preserve" width="192" height="192" viewBox="0 0 50.8 50.8"><g style="display:inline;fill:none;stroke:#000;stroke-width:11.6884;stroke-dasharray:none;stroke-opacity:1"><path d="M-55.1 40.3h62c1.662 0 3 1.338 3 3v62c0 1.662-1.338 3-3 3h-62c-1.662 0-3-1.338-3-3v-62c0-1.662 1.338-3 3-3z" style="fill-opacity:.402658;stroke-width:11.6884;stroke-linecap:round;stroke-dasharray:none;paint-order:stroke fill markers" transform="translate(21.632 5.217) scale(.27164)"/></g><path d="M12.578 21.054v8.692h5.015" style="fill:none;stroke:#000;stroke-width:3.175;stroke-linecap:round;stroke-linejoin:round;stroke-dasharray:none"/><path d="M12.773 16.036a17.451 17.451 0 0 1 19.561-7.404A17.451 17.451 0 0 1 44.95 25.315 17.451 17.451 0 0 1 32.498 42.12a17.451 17.451 0 0 1-19.633-7.213m11.456-4.322 19.793.152m-19.793-.152 6.753 11.896M40.52 13.78l-9.725 16.855M24.412 8.224l9.612 16.814m-9.703-5.626 6.526.07" style="fill:none;stroke:#000;stroke-width:3.175;stroke-linecap:round;stroke-linejoin:round;stroke-dasharray:none;stroke-opacity:1"/></svg>