<?xml version="1.0" encoding="utf-8"?>
<!-- Generator: Adobe Illustrator 19.0.0, SVG Export Plug-In . SVG Version: 6.00 Build 0)  -->
<svg version="1.1" id="Layer_2" xmlns="http://www.w3.org/2000/svg" xmlns:xlink="http://www.w3.org/1999/xlink" x="0px" y="0px"
	 viewBox="0 0 24 24" style="enable-background:new 0 0 24 24;" xml:space="preserve">
<path d="M11.7,17.1H2.5c-0.3,0-0.5-0.2-0.5-0.5V7.4c0-0.3,0.2-0.5,0.5-0.5h9.2c0.3,0,0.5,0.2,0.5,0.5v9.2
	C12.2,16.9,12,17.1,11.7,17.1z M7.8,10.1h1.8c0.1,0,0.1,0,0.1-0.1V9.3c0-0.1,0-0.1-0.1-0.1H4.8c-0.1,0-0.1,0-0.1,0.1V10
	c0,0.1,0,0.1,0.1,0.1h1.7c0.1,0,0.1,0,0.1,0.1v4.7c0,0.1,0,0.1,0.1,0.1h0.9c0.1,0,0.1,0,0.1-0.1L7.8,10.1
	C7.7,10.2,7.7,10.1,7.8,10.1z"/>
<circle cx="19.4" cy="6.6" r="2.1"/>
<path d="M7.9,18h4.5c0.3,0,0.6-0.2,0.6-0.6V9.7h3.7c0.6,0,1.1,0.5,1.1,1.1v5.3l0,0c0,2.9-2.3,5.1-5.1,5.1C10.5,21.2,8.6,19.8,7.9,18
	"/>
<path d="M13,8.9V6.8c0-0.3-0.2-0.6-0.6-0.6H9.8c0-0.1-0.1-0.3-0.1-0.4c0-1.7,1.4-3.1,3.1-3.1s3.2,1.4,3.2,3.1S14.7,8.9,13,8.9z"/>
<path d="M18,18.5c0.3-0.7,0.5-1.5,0.5-2.3l0,0v-6c0-0.2,0-0.4-0.1-0.5l0,0h2.9c0.4,0,0.7,0.3,0.7,0.8v4.1l0,0c0,2.2-1.5,3.9-3.4,3.9
	C18.3,18.6,18.1,18.6,18,18.5"/>
</svg>
