<svg xmlns="http://www.w3.org/2000/svg" width="192" height="192" fill="none" xmlns:v="https://vecta.io/nano"><path fill-rule="evenodd" d="M39.824 39.043A79.98 79.98 0 0 1 95.998 16c30.529 0 59.268 14.651 72.801 40.967l.015.029.016.031.377.745c2.158 4.251 6.953 13.693 6.787 27.339v.016.014.013.012l-.002.016a41.53 41.53 0 0 1-2.486 14.025 29.94 29.94 0 0 0-10.694-5.891 29.48 29.48 0 0 0 1.182-8.223v-.037l.002-.035c.143-10.684-3.51-17.902-5.53-21.895l-.004-.006-.335-.665-.012-.02C147.017 40.872 122.925 28 95.998 28a67.98 67.98 0 0 0-47.746 19.586 67.42 67.42 0 0 0-8.883 10.824c8.442-4.821 18.464-7.592 28.879-7.592 2.256 0 14.956.164 26.949 6.412l.002-.002a.66.66 0 0 1 .028.015l.017.009.01.005.011.006.019.01.005.003.015.008.011.006-.002.002c8.52 4.265 15.582 10.971 20.278 19.266h.002l.006.012.002.003c.01.017.013.021.015.025l-.002.002c3.018 5.267 4.204 11.166 4.648 15.45a29.83 29.83 0 0 0-11.802 3.172c-.278-2.461-1.163-4.977-2.356-6.587l-.003-.004a12.72 12.72 0 0 0-10.092-5.108h-.019-.02c-2.474-.035-4.352.798-6.144 1.637-1.864 1.039-3.428 2.542-4.527 4.373-1.114 1.856-1.713 3.976-1.74 6.141.013 7.985 3.267 15.534 8.796 21.699A30.23 30.23 0 0 0 92 122v11.043c-10.496-7.507-18.02-18.25-19.943-30.965a40.67 40.67 0 0 0-3.881 9.918 40.7 40.7 0 0 0-.406 17.592 40.68 40.68 0 0 0 7.059 16.115l.021.029.02.028c2.933 4.116 6.639 7.613 10.885 10.345l.594.372a37.7 37.7 0 0 0 6.173 3.116 29.95 29.95 0 0 0 8.886 16.222c-12.518.851-25.153-1.257-36.877-6.282a80.01 80.01 0 0 1-40.908-39.547l-.006-.011-.006-.012c-5.081-10.951-7.66-22.896-7.551-34.969v-.014-.014-.002c.295-21.012 8.783-41.143 23.766-55.922zm28.424 23.775c1.784 0 12.132.186 21.494 5.098l.057.029.058.029c2.024 1.006 3.925 2.215 5.709 3.568-5.137.065-9.017 1.892-10.876 2.767l-.2.094-.053.025-.053.025c-.039.019-.078.04-.117.061h0 0l-.108.056a52.7 52.7 0 0 0-17.547 14.135 52.69 52.69 0 0 0-10.092 20.426 52.7 52.7 0 0 0-.523 22.779 52.68 52.68 0 0 0 9.1 20.813c.013.018.025.038.039.056l.002-.002a51.8 51.8 0 0 0 5.16 6.143l-.425-.169-.616-.249c-15.308-6.561-27.677-18.513-34.762-33.592a69.33 69.33 0 0 1-6.439-29.779v-.002-.002-.004-.002c.236-16.873 17.459-32.305 40.191-32.305z" fill="#000"/><g stroke="#000"><path d="M106 122c0-8.837 7.163-16 16-16h32c8.837 0 16 7.163 16 16v32c0 8.837-7.163 16-16 16h-32c-8.837 0-16-7.163-16-16v-32z" stroke-width="12"/><path d="M149.607 148.607a15.01 15.01 0 0 1-7.681 4.105 14.99 14.99 0 0 1-8.666-.854 15 15 0 0 1-6.732-5.524C124.88 143.867 124 140.967 124 138s.88-5.867 2.528-8.334a15 15 0 0 1 6.732-5.524 14.99 14.99 0 0 1 8.666-.854 15.01 15.01 0 0 1 7.681 4.105" stroke-width="8" stroke-linecap="round"/></g></svg>