<svg xmlns="http://www.w3.org/2000/svg" width="192" height="192" fill="none" xmlns:v="https://vecta.io/nano"><path d="M155.601 132.18l2.767 5.324.024-.012.023-.013-2.814-5.299zm-6.128 2.719l-2.089-5.625-.005.002 2.094 5.623zm-20.754 3.701l.02-6h-.01-.01v6zM77.556 95.627l-6-.066v.033.033h6zm9.481-15.79l-2.548-5.432-.053.025-.052.026 2.652 5.382zm33.126 86.12l1.765 5.735.098-.03.097-.034-1.96-5.671zm38.502-30.538l5.075 3.201.031-.051.031-.051-5.137-3.099zm-75.559 26.143l-3.167 5.096 1.454.904h1.712v-6zm-13.123-12.32l4.886-3.482-.02-.028-.02-.028-4.846 3.538zm26.073-71.718l-.084 5.999h.019.019l.046-6zm14.858 7.519l4.815-3.579-.004-.006-.005-.006-4.806 3.591zm-81.86 42.395l-5.443 2.525.006.012.006.012 5.431-2.549zm90.416 38.751l1.901 5.691-3.709-11.412 1.808 5.721zm-36.305-4.627l3.185-5.085-1.461-.915h-1.724v6zm51.74-41.065v6h.004l-.004-6zm17.517-4.8l-3.03-5.179-.013.007-.012.008 3.055 5.164zm17.574-30.596l-5.999-.08-.001.035v.035l6 .01zm-6.532-25.391l5.367-2.682-.016-.031-.015-.031-5.336 2.744zM95.998 22l-.001 6h.001v-6zM22 94.991l-5.999-.082 11.999.166L22 94.991zm70.529-32.389l-2.787 5.313.058.03.058.029 2.671-5.373zm17.864 16.946l-5.225 2.951.012.02.012.02 5.201-2.992zm1.078 36.609l-3.373 4.962 3.373-4.962zm41.362 10.7a48.23 48.23 0 0 1-5.449 2.417l4.177 11.249c2.33-.865 4.603-1.873 6.807-3.019l-5.535-10.647zm-5.454 2.419a52.9 52.9 0 0 1-18.64 3.324l-.041 12c7.806.027 15.553-1.354 22.868-4.079l-4.187-11.245zm-18.66 3.324c-25.171 0-45.163-17.146-45.163-36.973h-12c0 28.525 27.645 48.973 57.163 48.973v-12zM83.556 95.693c.024-2.172.626-4.298 1.743-6.159l-10.288-6.177c-2.215 3.689-3.407 7.902-3.455 12.205l11.999.132zm1.743-6.159c1.118-1.861 2.711-3.391 4.615-4.431L84.16 74.572c-3.776 2.063-6.934 5.095-9.149 8.784l10.288 6.177zm35.877 82.389l.752-.231-3.531-11.469-.751.231 3.53 11.469zm.947-.295a80.18 80.18 0 0 0 41.617-33.008l-10.151-6.401c-8.266 13.107-20.747 23.006-35.387 28.068l3.921 11.341zm41.679-33.11a8.31 8.31 0 0 0 1.147-5.185l-11.931 1.286a3.69 3.69 0 0 1 .509-2.299l10.275 6.198zm1.147-5.185a8.31 8.31 0 0 0-2.226-4.823l-8.717 8.247c-.555-.586-.901-1.337-.988-2.138l11.931-1.286zm-2.226-4.823a8.31 8.31 0 0 0-4.693-2.49l-1.942 11.842c-.797-.131-1.528-.519-2.082-1.105l8.717-8.247zm-4.693-2.49a8.31 8.31 0 0 0-5.244.861l5.629 10.598a3.69 3.69 0 0 1-2.327.383l1.942-11.842zm-71.757 30.445a39.79 39.79 0 0 1-11.404-10.705l-9.772 6.965a51.81 51.81 0 0 0 14.842 13.933l6.333-10.193zm-11.444-10.761c-3.5-4.792-5.909-10.293-7.058-16.116l-11.773 2.324a52.68 52.68 0 0 0 9.14 20.869l9.691-7.077zm-7.058-16.116c-1.149-5.823-1.011-11.827.405-17.591l-11.653-2.864a52.7 52.7 0 0 0-.525 22.779l11.773-2.324zm.405-17.591a40.68 40.68 0 0 1 7.793-15.773l-9.355-7.516c-4.813 5.991-8.257 12.962-10.091 20.425l11.653 2.864zm7.793-15.773c3.717-4.626 8.4-8.382 13.721-11.004l-5.305-10.764a52.66 52.66 0 0 0-17.771 14.252l9.355 7.516zM89.585 85.27c1.865-.874 3.803-1.783 6.386-1.746l.169-11.999c-5.626-.079-9.815 2.02-11.65 2.88l5.095 10.865zm6.425-1.746c1.963.015 3.895.484 5.647 1.371l5.418-10.707a24.72 24.72 0 0 0-10.972-2.663l-.093 12zm5.647 1.371a12.72 12.72 0 0 1 4.45 3.74l9.613-7.183c-2.283-3.056-5.241-5.542-8.645-7.264l-5.418 10.707zm4.441 3.728a12.45 12.45 0 0 1 2.458 7.299l12-.126a24.46 24.46 0 0 0-4.827-14.332l-9.631 7.159zm-90.039 6.373c-.109 12.072 2.471 24.017 7.552 34.968l10.885-5.051c-4.332-9.335-6.531-19.518-6.438-29.809l-12-.108zm7.564 34.992a80.01 80.01 0 0 0 40.909 39.546l4.727-11.029c-15.315-6.564-27.69-18.526-34.773-33.616l-10.863 5.099zm40.909 39.546a79.97 79.97 0 0 0 56.84 2.347l-3.802-11.382a67.97 67.97 0 0 1-48.311-1.994l-4.727 11.029zm53.131-9.065a37.63 37.63 0 0 1-16.094 1.446l-1.517 11.904a49.62 49.62 0 0 0 21.227-1.908l-3.616-11.442zm-16.094 1.446c-5.406-.689-10.599-2.544-15.218-5.437l-6.37 10.17c6.092 3.815 12.94 6.262 20.071 7.171l1.517-11.904zm-18.403-6.352h-.058v12h.058v-12zm24.934-34.443c5.432 3.693 12.601 4.862 17.649 5.271 5.124.414 9.76.107 9.157.107v-12c-.654 0-3.651.299-8.189-.068-4.614-.373-9.135-1.374-11.871-3.234l-6.746 9.924zm26.81 5.378c7.237-.005 14.34-1.951 20.568-5.637l-6.11-10.327a28.44 28.44 0 0 1-14.466 3.964l.008 12zm20.543-5.622c6.244-3.653 11.424-8.876 15.027-15.149l-10.405-5.977a29.51 29.51 0 0 1-10.682 10.769l6.06 10.357zm15.027-15.149c3.604-6.274 5.506-13.38 5.517-20.616l-12-.019a29.52 29.52 0 0 1-3.922 14.658l10.405 5.977zm5.517-20.545c.195-14.55-5.254-24.33-7.165-28.153l-10.734 5.365c1.905 3.811 6.052 11.267 5.9 22.628l11.999.161zm-7.196-28.215C155.266 30.65 126.527 16 95.998 16v12c26.935 0 51.035 12.88 62.129 34.454l10.672-5.488zM95.998 16a79.98 79.98 0 0 0-56.174 23.042l8.427 8.543A67.98 67.98 0 0 1 95.997 28l.001-12zM39.824 39.043a80.05 80.05 0 0 0-23.824 55.864l11.999.169a68.05 68.05 0 0 1 20.252-47.489l-8.427-8.543zM27.999 95.073c.231-16.857 17.49-32.255 40.249-32.255v-12c-27.19 0-51.901 18.726-52.248 44.091l11.999.164zm40.249-32.255c1.784 0 12.131.186 21.493 5.097l5.574-10.627c-12.028-6.309-24.805-6.47-27.068-6.47v12zm21.609 5.156a35.98 35.98 0 0 1 15.31 14.524l10.449-5.901A47.98 47.98 0 0 0 95.2 57.229l-5.342 10.745zm15.334 14.565c2.75 4.782 3.363 11.338 3.363 14.07h12c0-3.514-.659-12.574-4.961-20.054l-10.402 5.983zm3.363 14.07c0-.005 0 .034-.006.125s-.017.207-.034.358c-.034.305-.09.694-.171 1.16-.163.934-.409 2.075-.727 3.314-.647 2.523-1.515 5.145-2.406 7.054l10.872 5.078c1.316-2.817 2.403-6.21 3.157-9.149.715-2.785 1.315-5.869 1.315-7.941h-12zm6.289 14.585a3.1 3.1 0 0 1 .954 1.043c.215.385.294.724.321.942s.008.353-.002.409-.024.09-.034.111l-10.872-5.078c-1.347 2.883-2.293 8.976 2.887 12.497l6.746-9.924z" fill="#000"/></svg>