<svg xmlns="http://www.w3.org/2000/svg" width="192" height="192" fill="none" viewBox="0 0 192 192"><path stroke="#000" stroke-linecap="round" stroke-linejoin="round" stroke-miterlimit="6" stroke-width="10" d="M170.722 144c-1.871-3.432-4.759-6.113-8.216-7.63a16.13 16.13 0 0 0-10.906-.757c-3.615 1.026-6.809 3.286-9.087 6.429S139 149.038 139 153s1.235 7.814 3.513 10.958c2.278 3.143 5.472 5.403 9.087 6.429a16.13 16.13 0 0 0 10.906-.757c3.457-1.517 6.345-4.198 8.216-7.63"/><path stroke="#000" stroke-linecap="round" stroke-linejoin="round" stroke-width="12" d="M96 170c-12 0-21.404-7.962-27.5-15.092C45.133 127.578 64.276 76 96 76"/><path stroke="#000" stroke-linecap="round" stroke-linejoin="round" stroke-width="12" d="M22 96c0-12 7.392-23.531 14.483-30C63.388 41.456 116 64.344 116 96"/><path stroke="#000" stroke-linecap="round" stroke-linejoin="round" stroke-width="12" d="M170 96c0 17.114-43.398 30.665-58.5 12.639A20.002 20.002 0 0 0 96 76a20 20 0 0 0-20 20"/><path stroke="#000" stroke-linecap="round" stroke-linejoin="round" stroke-width="12" d="M170 96c0-40.87-33.131-74-74-74S22 55.13 22 96s33.13 74 74 74c9.149 0 17.911-1.66 26-4.697M170 96c0 8.252-1.169 15.21-3.246 21M170 96a74 74 0 0 1-3.022 21M76 96c0 21.688 22.838 39.974 46 44.082"/></svg>