<svg xmlns="http://www.w3.org/2000/svg" width="192" height="192" fill="none" viewBox="0 0 192 192"><path stroke="#000" stroke-linecap="round" stroke-linejoin="round" stroke-width="12" d="M96 170c-12 0-21.404-7.962-27.5-15.092C45.133 127.578 64.276 76 96 76"/><path stroke="#000" stroke-linecap="round" stroke-linejoin="round" stroke-width="12" d="M22 96c0-12 7.392-23.531 14.483-30C63.388 41.456 116 64.344 116 96m54 0c0 74-94 44-94 0"/><circle cx="96" cy="96" r="74" stroke="#000" stroke-linecap="round" stroke-linejoin="round" stroke-width="12"/><path stroke="#000" stroke-linecap="round" stroke-linejoin="round" stroke-width="12" d="M170 96c0 17.114-43.398 30.665-58.5 12.639A20.002 20.002 0 0 0 96 76a20 20 0 0 0-20 20"/></svg>