<svg width="192" height="192" viewBox="0 0 192 192" fill="none" xmlns="http://www.w3.org/2000/svg">
<rect x="22" y="62" width="68" height="68" rx="4" stroke="black" stroke-width="12" stroke-linejoin="round"/>
<path fill-rule="evenodd" clip-rule="evenodd" d="M50 130V160C50 165.523 54.4772 170 60 170H166C171.523 170 176 165.523 176 160V100C176 97.8693 174.87 95.8984 173.031 94.822C171.192 93.7456 168.921 93.725 167.063 94.7681L113 125.119L90 112.207V125.969L110.063 137.232L147.056 158H62V130H50ZM164 153.751L125.257 132L164 110.249V153.751Z" fill="black"/>
<path d="M158 104V30C158 27.7909 156.209 26 154 26H72C69.7909 26 68 27.7909 68 30V62.5" stroke="black" stroke-width="12" stroke-linejoin="round"/>
<circle cx="56" cy="96" r="14" stroke="black" stroke-width="12"/>
</svg>
