<svg width="192" height="192" viewBox="0 0 192 192" fill="none" xmlns="http://www.w3.org/2000/svg"><path d="M90 170a74 74 0 1 0 0-148M30 36a60 60 0 0 0 60 60" stroke="#000" stroke-width="12" stroke-linecap="round" stroke-linejoin="round"/><path d="M90 96a59.997 59.997 0 0 0-60 60m116-18a41.997 41.997 0 0 0-12.302-29.698A41.997 41.997 0 0 0 104 96m42 42v6M30 36v-8a6 6 0 0 1 6-6h54m0 74h14m-74 60v8a6 6 0 0 0 6 6h54" stroke="#000" stroke-width="12" stroke-linecap="round" stroke-linejoin="round"/></svg>