<svg xmlns="http://www.w3.org/2000/svg" width="192" height="192" fill="none"><path stroke="#000" stroke-linecap="round" stroke-width="12" d="M167.531 125.759 76.998 74.898C52.39 61.073 22 78.858 22 107.083a36.75 36.75 0 0 0 6.718 21.24m138.813-2.564C162.89 136.49 152.209 144 139.773 144H58.917c-12.482 0-23.517-6.195-30.199-15.677m138.813-2.564A30.15 30.15 0 0 0 170 113.773c0-21.683-22.155-36.313-42.096-27.8l-99.186 42.35"/><path stroke="#000" stroke-linecap="round" stroke-linejoin="round" stroke-width="12" d="M140.467 81.353a45 45 0 0 0-81.712-12.066"/></svg>