<svg xmlns="http://www.w3.org/2000/svg" width="192" height="192" fill="none" stroke="#000" stroke-linecap="round" stroke-width="3.175" viewBox="0 0 50.8 50.8"><path d="M6.665 16.164h16.841c.452 0 .815.364.815.815v16.842a.813.813 0 0 1-.815.815H6.665a.813.813 0 0 1-.815-.815V16.979c0-.451.363-.815.815-.815z"/><path stroke-linejoin="round" d="M12.578 21.054v8.692h5.015"/><path d="M12.773 16.036a17.451 17.451 0 0 1 32.177 9.279 17.451 17.451 0 0 1-32.085 9.592m11.456-4.322 19.793.152m-19.793-.152 6.753 11.896M40.52 13.78l-9.725 16.855M24.412 8.224l9.612 16.814m-9.703-5.626 6.526.07"/></svg>