<svg xmlns="http://www.w3.org/2000/svg" width="192" height="192" fill="none" viewBox="0 0 192 192"><path stroke="#000" stroke-linecap="round" stroke-linejoin="round" stroke-width="12" d="m68.082 55.908 18.687-30.993c1.674-2.776 5.257-3.73 8.1-2.159l32.082 17.736m0 0 31.682 17.515c2.999 1.657 4.007 5.467 2.218 8.38l-16.421 26.74c-1.687 2.747-5.252 3.68-8.079 2.114L55.584 50.489c-2.827-1.566-6.392-.633-8.08 2.115L31.08 79.348c-1.788 2.91-.782 6.718 2.213 8.377L113.199 132c2.995 1.66 4 5.467 2.213 8.378l-16.428 26.749c-1.686 2.746-5.247 3.68-8.074 2.117l-32.123-17.759M126.95 40.492l-21.689 35.97m18.591 13.36-21.689 35.97M86.672 69.268l-21.688 35.97M44.328 93.933 24.886 125.59c-1.788 2.913-.78 6.723 2.218 8.38l31.683 17.515m0 0 22.721-36.997m72.295-34.943 13.093 7.238c2.998 1.658 4.006 5.467 2.217 8.38l-16.408 26.718c-1.692 2.756-5.273 3.685-8.102 2.102l-27.98-15.662"/></svg>