<svg xmlns="http://www.w3.org/2000/svg" width="192" height="192" fill="none" xmlns:v="https://vecta.io/nano"><path fill-rule="evenodd" d="M60 16c-11.046 0-20 8.954-20 20v120c0 11.046 8.954 20 20 20h72c11.046 0 20-8.954 20-20V36c0-11.046-8.954-20-20-20H60zm-8 20a8 8 0 0 1 8-8h72a8 8 0 0 1 8 8v120a8 8 0 0 1-8 8H60a8 8 0 0 1-8-8V36zm49.692 18.103a6 6 0 0 0-11.384 0c-.535 1.606-2.039 3.708-4.99 6.752-1.343 1.385-2.831 2.815-4.476 4.396h0l-.25.24-5.408 5.341C67.885 78.392 60 88.599 60 103c0 8.15 4.645 16.351 11.948 20.666 5.235 3.093 11.526 4.038 18.052 2.099V140a6 6 0 1 0 12 0v-14.235c6.526 1.939 12.818.994 18.052-2.099C127.355 119.351 132 111.15 132 103c0-14.401-7.885-24.609-15.184-32.168-1.837-1.903-3.693-3.693-5.408-5.341l-.249-.24-4.477-4.397c-2.951-3.044-4.454-5.145-4.99-6.752zM72 103c0-9.599 5.115-16.891 11.816-23.832 1.663-1.722 3.369-3.37 5.092-5.026l.3-.288 4.724-4.645c.687-.708 1.383-1.448 2.068-2.22.684.772 1.381 1.512 2.068 2.22 1.496 1.542 3.126 3.109 4.724 4.645l.3.289 5.092 5.026C114.885 86.109 120 93.401 120 103c0 3.85-2.355 8.149-6.052 10.334-3.219 1.902-8.101 2.551-14.348-2.134a6 6 0 0 0-7.2 0c-6.247 4.685-11.13 4.036-14.348 2.134C74.355 111.149 72 106.85 72 103z" fill="#000"/></svg>