<svg width="192" height="192" viewBox="0 0 192 192" fill="none" xmlns="http://www.w3.org/2000/svg"><path d="M67 61h58" stroke="#000" stroke-width="12" stroke-linecap="round" stroke-linejoin="round"/><circle cx="96" cy="94" r="14" stroke="#000" stroke-width="12" stroke-linecap="round" stroke-linejoin="round"/><path d="M129.709 60.438a33.994 33.994 0 0 0-8.146-26.856A34.014 34.014 0 0 0 96 22a34 34 0 0 0-33.71 38.438m66.97 88.785A36.004 36.004 0 0 0 96 127a35.998 35.998 0 0 0-33.26 22.223" stroke="#000" stroke-width="12" stroke-linecap="round" stroke-linejoin="round"/><path d="M125 61c9 0 30.173 7.025 29 29-1.227 22.989-26 80-58 80M66.997 61c-9 0-30.173 7.025-29 29 1.227 22.989 26 80 58 80" stroke="#000" stroke-width="12" stroke-linecap="round" stroke-linejoin="round"/></svg>