<svg width="192" height="192" viewBox="0 0 192 192" fill="none" xmlns="http://www.w3.org/2000/svg">
<path d="M102.379 22.5871C108.992 24.4765 113.558 30.5365 113.567 37.4385V48.2773L74.248 62.5415C70.0503 64.0812 67.2565 68.0872 67.2519 72.5729V108.86C67.26 112.759 65.1476 116.352 61.7428 118.231L49.5545 124.837C44.3331 127.678 37.985 123.874 38 117.913V62.762C38 57.3996 40.8661 52.4495 45.508 49.7945L90.5072 24.0309C92.8426 22.7055 95.4786 22.0063 98.1614 22.0001C99.5877 21.9942 101.008 22.1921 102.379 22.5871ZM102.379 22.5871C108.995 24.4752 113.559 30.5326 113.567 37.4371V48.2802V137.58V154.706C113.586 161.526 109.082 167.526 102.545 169.388L144.212 157.48C150.594 155.634 154.991 149.776 155 143.111V48.86C155.003 42.177 150.585 36.3042 144.181 34.4756L102.379 22.5871ZM113.567 137.581H67.0844C59.1202 137.667 56.3318 148.228 63.2086 152.261L90.8972 168.018C93.178 169.319 95.7572 170.002 98.3808 170C99.7924 169.999 101.196 169.794 102.549 169.388C109.084 167.525 113.586 161.526 113.567 154.708V137.581Z" stroke="black" stroke-width="12"/>
</svg>
