<svg xmlns="http://www.w3.org/2000/svg" width="192" height="192" fill="none"><path stroke="#000" stroke-linecap="round" stroke-linejoin="round" stroke-width="12" d="M72 28a6 6 0 0 1 6-6h44a6 6 0 0 1 6 6v103a6 6 0 0 1-6 6H78a6 6 0 0 1-6-6z"/><path stroke="#000" stroke-linecap="round" stroke-linejoin="round" stroke-width="10" d="M108 117H92m16-92H92"/><path stroke="#000" stroke-linecap="round" stroke-linejoin="round" stroke-width="12" d="M140 127h-12m14-20h-14m18-20h-18m12-22-12 4m-6 68c0 6.567-9.583 13.133-14.764 16.204-1.955 1.159-3.236 3.232-3.236 5.504V164a6 6 0 0 1-6 6H68a6 6 0 0 1-6-6v-7.028c0-1.281-.41-2.528-1.17-3.559l-11.438-15.524a6.05 6.05 0 0 1-1.141-4.22c1.522-14.576 2.412-31.267 2.67-36.507a6.2 6.2 0 0 1 .998-3.062C58.267 84.275 61.067 76.506 62.5 66"/></svg>