<?xml version="1.0" encoding="UTF-8" standalone="no"?>
<!DOCTYPE svg PUBLIC "-//W3C//DTD SVG 1.1//EN" "http://www.w3.org/Graphics/SVG/1.1/DTD/svg11.dtd">
<svg width="100%" height="100%" viewBox="0 0 24 24" version="1.1" xmlns="http://www.w3.org/2000/svg" xmlns:xlink="http://www.w3.org/1999/xlink" xml:space="preserve" xmlns:serif="http://www.serif.com/" style="fill-rule:evenodd;clip-rule:evenodd;stroke-linejoin:round;stroke-miterlimit:2;">
    <g transform="matrix(0.333351,0,0,0.333351,3.66665,3.3283)">
        <path d="M18.04,24.97C18.27,24.73 18.5,24.5 18.74,24.26C18.97,24.02 19.21,23.78 19.44,23.54L12.26,16.26C11.74,15.73 11.04,15.43 10.3,15.43C9.56,15.43 8.86,15.73 8.34,16.26L1.81,22.89C0.73,23.97 0.73,25.74 1.81,26.83L9.58,34.71C9.64,34.33 9.75,33.97 9.9,33.62C10.04,33.31 10.21,33.01 10.43,32.73C10.55,32.55 10.7,32.38 10.86,32.21C12.37,30.67 13.88,29.15 15.4,27.63C16.28,26.74 17.16,25.86 18.04,24.97ZM48.21,14.53L41.59,7.8C40.57,6.77 38.78,6.77 37.75,7.8L21.3,24.51C21.15,24.66 21.01,24.81 20.85,24.96L20.85,24.97C20.62,25.21 20.38,25.45 20.15,25.68L20.14,25.68L19.44,26.39L18.18,27.67L16.81,29.04C15.3,30.56 13.79,32.08 12.29,33.61C12.12,33.78 11.98,33.97 11.86,34.18C11.67,34.51 11.55,34.88 11.51,35.25C11.49,35.48 11.5,35.71 11.54,35.93C11.56,36.06 11.59,36.19 11.63,36.32C11.65,36.4 11.68,36.49 11.72,36.57C11.75,36.65 11.79,36.73 11.83,36.81C11.89,36.94 11.97,37.07 12.07,37.19C12.12,37.26 12.18,37.32 12.24,37.39L12.41,37.58L18.88,44.15L18.93,44.2C18.99,44.26 19.06,44.32 19.13,44.38C19.26,44.48 19.39,44.57 19.53,44.65C19.93,44.88 20.38,45 20.85,45C21.42,45 21.96,44.82 22.41,44.49C22.48,44.44 22.54,44.39 22.6,44.34C22.66,44.3 22.71,44.25 22.76,44.2L22.8,44.15L29.34,37.52L48.21,18.37C49.26,17.31 49.26,15.59 48.21,14.53Z" style="fill-rule:nonzero;"/>
    </g>
</svg>
