<svg id="Layer_1" data-name="Layer 1" xmlns="http://www.w3.org/2000/svg" viewBox="0 0 24 24">
  <g>
    <path d="M19.49153,8.83649A21.797,21.797,0,0,0,12,7.60952a21.797,21.797,0,0,0-7.49154,1.227S3.162,18.288,11.98957,22h.02085C20.83809,18.288,19.49153,8.83649,19.49153,8.83649Zm-5.06885,7.52794H9.5721a2.12344,2.12344,0,0,1-.02078-.31715,2.44609,2.44609,0,0,1,1.73126-2.3395,1.86639,1.86639,0,1,1,1.42447,0,2.43958,2.43958,0,0,1,1.73641,2.3395A2.12344,2.12344,0,0,1,14.42268,16.36443Z"/>
    <path d="M8.88068,6.91809a3.11007,3.11007,0,0,1,6.21785,0c.64987.08318,1.27889.18714,1.882.31715.00521-.078.00521-.15079.00521-.22876a4.99613,4.99613,0,1,0-9.99225-.00521c0,.078,0,.156.00521.234C7.60179,7.10523,8.23081,7.00127,8.88068,6.91809Z"/>
  </g>
</svg>
