<svg width="192" height="192" viewBox="0 0 192 192" fill="none" xmlns="http://www.w3.org/2000/svg"><path d="M27 94a8 8 0 1 0-8-8m0 17a8.999 8.999 0 1 0 9-9m-9-8v34m0-26h8" stroke="#000" stroke-width="6" stroke-linecap="round" stroke-linejoin="round"/><path d="M124 124c-9.333 10.667-36 28-76 32m60-48c-12.667 10.667-44 30-86 30m114 6c-9.5 8.5-26.5 19-48 25" stroke="#000" stroke-width="12" stroke-linecap="round" stroke-linejoin="round"/><path d="M152 136c-9.333-26.5-50.4-80-130-80" stroke="#000" stroke-width="12" stroke-linecap="round" stroke-linejoin="round"/><path d="M170 120c-10-24-55-80-122-80m122 44c-10-20-42-47.5-70-54" stroke="#000" stroke-width="12" stroke-linecap="round" stroke-linejoin="round"/></svg>