<svg xmlns="http://www.w3.org/2000/svg" width="192" height="192" fill="none"><path stroke="#000" stroke-linecap="round" stroke-linejoin="round" stroke-width="12" d="M50 166a24 24 0 0 0-7.03-16.971A24 24 0 0 0 26 142m50 24a50 50 0 0 0-50-50"/><path stroke="#000" stroke-linecap="round" stroke-linejoin="round" stroke-width="12" d="M26 90a76 76 0 0 1 76 76"/><path stroke="#000" stroke-linecap="round" stroke-linejoin="round" stroke-width="12" d="M22 90.688a6 6 0 0 1 2.006-4.477L96 22l71.994 64.21A6 6 0 0 1 170 90.689V164a6 6 0 0 1-6 6H28a6 6 0 0 1-6-6z"/></svg>