<svg xmlns="http://www.w3.org/2000/svg" width="192" height="192" fill="none"><path stroke="#000" stroke-linecap="round" stroke-linejoin="round" stroke-width="12" d="M111.849 81.03c-2.937-3.357-6.679-5.643-10.752-6.569s-8.296-.45-12.133 1.366c-3.838 1.816-7.117 4.892-9.425 8.84C77.232 88.612 76 93.252 76 98s1.232 9.387 3.54 13.334 5.586 7.023 9.424 8.839 8.06 2.292 12.133 1.366c4.074-.926 7.815-3.212 10.752-6.568"/><circle cx="170" cy="74" r="3" stroke="#000" stroke-linejoin="round" stroke-width="6"/><path stroke="#000" stroke-linecap="round" stroke-linejoin="round" stroke-width="12" d="M22 122V74h5l12 31 12-31h5v48m74-48h20v48"/></svg>