<svg xmlns="http://www.w3.org/2000/svg" width="192" height="192" fill="none" viewBox="0 0 192 192"><path stroke="#000" stroke-linecap="round" stroke-linejoin="round" stroke-width="12" d="m162 154-22-75-27 7-3 57-35-47-26 7 15 58"/><path stroke="#000" stroke-linecap="round" stroke-linejoin="round" stroke-width="12" d="m86 162-10-30 18 30m38 0-1-43 10 43"/><path stroke="#000" stroke-linecap="round" stroke-linejoin="round" stroke-width="12" d="M156 30H36a6 6 0 0 0-6 6v120a6 6 0 0 0 6 6h120a6 6 0 0 0 6-6V36a6 6 0 0 0-6-6Z"/><path stroke="#000" stroke-linecap="round" stroke-linejoin="round" stroke-width="12" d="M88 30H36a6 6 0 0 0-6 6v28a6 6 0 0 0 6 6h52a6 6 0 0 0 6-6V36a6 6 0 0 0-6-6Z"/><circle cx="62" cy="50" r="4" stroke="#000" stroke-linecap="round" stroke-linejoin="round" stroke-width="8"/></svg>