<?xml version="1.0" encoding="utf-8"?>
	<svg version="1.1" xmlns="http://www.w3.org/2000/svg" xmlns:xlink="http://www.w3.org/1999/xlink" x="0px" y="0px" width="240.0" height="240.0" xml:space="preserve">
		<path d="M120.099,66.681C157.108,66.642 187.108,96.58 187.067,133.36C187.027,170.245 157.007,200.15 119.953,200.019C101.436,199.954 85.528,193.241 72.393,180.184C60.589,168.451 54.082,154.092 53.14,137.585C52.002,117.629 58.583,100.236 72.845,86.099C85.87,73.188 101.746,66.7 120.099,66.681ZM156.771,48.83C162.905,51.943 168.523,55.825 173.686,60.398C183.173,68.799 190.259,78.889 195.116,90.551C197.766,96.912 199.651,103.508 200.581,110.356C200.767,111.725 201.056,113.084 201.16,114.457C201.216,115.197 201.569,115.424 202.168,115.599C206.184,116.775 209.773,118.746 212.779,121.653C217.307,126.034 219.453,131.536 219.877,137.73C220.292,143.783 219.711,149.731 217.319,155.376C214.444,162.16 209.402,166.537 202.314,168.553C201.68,168.733 201.04,168.892 200.404,169.065C195.306,170.447 190.633,166.923 190.616,161.644C190.594,154.546 190.611,147.447 190.611,140.349L190.619,140.349C190.619,133.911 190.776,127.468 190.589,121.034C190.111,104.604 184.734,89.877 174.433,77.082C162.487,62.244 146.933,53.379 128.001,51.524C100.695,48.849 78.674,58.862 62.651,81.205C53.679,93.717 49.464,107.924 49.501,123.363C49.531,136.085 49.516,148.807 49.496,161.53C49.491,164.312 48.49,166.648 46.126,168.28C44.163,169.636 41.963,169.715 39.786,169.193C31.149,167.123 25.036,162.116 22.094,153.581C19.572,146.262 19.29,138.8 21.454,131.401C23.843,123.232 29.627,118.26 37.579,115.693C38.555,115.378 38.914,114.967 39,113.979C39.469,108.553 40.656,103.247 42.204,98.052C43.43,93.934 45.091,89.954 46.972,86.064C50.77,78.208 55.687,71.14 61.739,64.891C75.703,50.47 92.728,42.274 112.706,40.374C128.192,38.901 142.902,41.793 156.771,48.83ZM133.354,119.471C130.331,119.48 128.155,120.073 126.327,121.307C121.801,124.361 121.712,130.61 126.153,133.769C127.167,134.491 128.271,135.053 129.423,135.521C130.571,135.988 131.739,136.41 132.871,136.912C134.635,137.695 135.218,138.468 134.972,139.564C134.74,140.594 133.67,141.16 131.93,141.149C129.612,141.135 127.667,140.118 125.85,138.81C125.392,138.481 125.141,138.39 124.776,138.936C123.872,140.288 122.925,141.612 121.946,142.911C121.571,143.409 121.635,143.669 122.125,144.018C123.591,145.061 125.167,145.876 126.877,146.417C130.797,147.659 134.685,147.665 138.405,145.777C141.234,144.341 142.678,141.917 142.756,138.738C142.832,135.629 141.305,133.451 138.677,131.944C137.086,131.032 135.351,130.474 133.637,129.865C132.795,129.566 131.948,129.268 131.261,128.677C130.225,127.786 130.428,126.426 131.667,125.849C132.095,125.649 132.554,125.594 133.023,125.566C134.995,125.446 136.64,126.315 138.207,127.34C138.752,127.697 139.02,127.68 139.397,127.149C140.271,125.918 141.187,124.714 142.129,123.532C142.525,123.035 142.547,122.749 141.976,122.357C139.284,120.512 136.368,119.401 133.354,119.471ZM61.664,119.471C59.383,119.462 59.383,119.469 59.383,121.787C59.383,129.888 59.389,137.988 59.372,146.089C59.37,146.837 59.395,147.325 60.391,147.272C62.014,147.185 63.648,147.192 65.272,147.271C66.162,147.314 66.365,147.028 66.359,146.176C66.326,141.448 66.353,136.72 66.36,131.992C66.431,131.937 66.502,131.883 66.573,131.829C68.689,134.788 70.828,137.733 72.907,140.719C73.405,141.433 73.619,141.365 74.074,140.7C75.102,139.199 76.179,137.727 77.3,136.294C77.743,135.728 77.705,135.356 77.299,134.794C74.532,130.962 71.808,127.1 69.058,123.256C68.159,122 67.469,120.29 66.236,119.66C65.002,119.029 63.211,119.477 61.664,119.471ZM81.43,119.456C80.9,119.446 80.574,119.632 80.278,120.053C78.631,122.402 76.963,124.736 75.303,127.075C75.129,127.32 74.876,127.537 75.128,127.888C76.471,129.758 77.806,131.634 79.19,133.572C79.689,132.893 80.093,132.343 80.498,131.793C80.571,131.824 80.645,131.854 80.718,131.885L80.718,133.04C80.718,137.384 80.751,141.729 80.694,146.072C80.68,147.069 80.984,147.315 81.931,147.27C83.556,147.193 85.188,147.225 86.817,147.261C87.451,147.275 87.7,147.113 87.699,146.424C87.679,137.698 87.68,128.971 87.697,120.244C87.699,119.626 87.497,119.448 86.899,119.458C85.076,119.488 83.253,119.487 81.43,119.456ZM146.657,120.483C146.697,124.745 146.676,129.007 146.676,133.269L146.671,133.269C146.671,137.57 146.694,141.872 146.651,146.172C146.642,147.042 146.877,147.305 147.756,147.27C149.536,147.199 151.321,147.221 153.102,147.263C153.768,147.278 153.966,147.056 153.965,146.405C153.949,137.687 153.949,128.969 153.965,120.251C153.966,119.637 153.757,119.449 153.159,119.458C151.338,119.487 149.515,119.508 147.696,119.45C146.885,119.425 146.649,119.664 146.657,120.483ZM92.837,120.511C92.882,123.108 92.854,125.706 92.856,128.304C92.856,130.746 92.81,133.19 92.866,135.631C92.955,139.472 94.559,142.571 97.603,144.923C100.28,146.991 103.38,147.33 106.63,147.264C113.124,147.131 118.265,142.41 118.501,135.946C118.692,130.719 118.535,125.48 118.556,120.246C118.559,119.629 118.346,119.45 117.75,119.461C116.083,119.493 114.414,119.52 112.749,119.452C111.853,119.415 111.572,119.661 111.582,120.594C111.631,125.052 111.618,129.511 111.598,133.969C111.581,137.589 108.974,140.286 105.544,140.283C102.188,140.28 99.805,137.686 99.803,134.029C99.801,129.493 99.781,124.957 99.82,120.421C99.826,119.637 99.582,119.434 98.842,119.454C97.176,119.499 95.506,119.517 93.842,119.449C92.984,119.413 92.824,119.735 92.837,120.511ZM172.266,119.49C166.22,119.742 161.014,123.998 159.497,129.935C157.987,135.844 160.634,142.204 165.834,145.295C170.517,148.078 175.362,147.401 180.257,146.091C180.705,145.971 180.735,145.666 180.734,145.292C180.732,144.232 180.731,143.171 180.731,142.095L180.731,139.918C180.731,139.183 180.731,138.436 180.731,137.673C176.819,141.335 172.727,141.652 169.566,138.665C166.764,136.016 166.501,131.6 168.982,128.657C170.208,127.203 171.771,126.305 173.656,126.073C176.476,125.727 178.766,126.804 180.732,129.143C180.732,126.348 180.72,123.841 180.742,121.334C180.747,120.824 180.484,120.663 180.072,120.557C177.512,119.896 174.933,119.378 172.266,119.49Z" fill="#000" stroke="#00000000" stroke-width="1.0" stroke-miterlimit=""/>
	</svg>
