<svg viewBox="0 0 192 192" width="192px" height="192px" fill="none" xmlns="http://www.w3.org/2000/svg"><path stroke="#000" stroke-linecap="round" stroke-linejoin="round" stroke-width="12" d="M 42.3 53.45 L 41.22 28.481 C 44.47 29.102 48.35 29.261 57.18 29.261 C 67.87 29.261 81.98 28.641 89.26 27.711 C 92.36 27.401 93.6 26.94 95.61 25.85 L 112.35 40.115 C 110.8 42.286 110.34 43.216 108.63 47.558 C 107.24 50.969 100.88 70.656 98.4 79.029 C 109.87 81.35 116.22 83.051 124.9 86.622 C 125.99 79.029 126.14 74.998 126.14 61.192 C 126.14 57.632 125.99 55.62 125.52 52.359 L 152.49 53.29 C 151.71 57.011 151.56 58.562 151.4 64.604 C 150.78 79.179 150.16 86.162 148.61 96.695 C 159.31 102.127 159.31 102.127 164.73 105.068 C 167.52 106.619 168.14 106.929 170 107.549 L 161.01 136.539 C 156.67 132.669 150.63 128.477 141.8 123.515 C 134.05 141.971 121.18 155.456 101.66 166.15 C 95.15 157.467 90.19 152.195 82.29 146.003 C 93.75 140.571 99.02 137.16 105.07 131.428 C 110.96 125.686 114.83 120.103 118.55 111.731 C 108.63 107.239 102.28 105.229 91.27 102.897 C 84.92 121.814 79.8 133.908 75.31 141.191 C 69.27 150.955 61.05 156.077 51.6 156.077 C 44.32 156.077 36.88 152.815 31.45 147.244 C 25.25 140.881 22 132.048 22 121.814 C 22 106.619 29.28 93.444 41.99 85.222 C 50.21 79.959 58.88 77.628 72.68 76.859 C 75.47 67.705 77.79 59.802 79.96 50.969 C 73.14 51.589 64.62 52.049 54.24 52.51 C 48.66 52.669 46.8 52.82 42.3 53.45 Z M 65.86 100.577 C 58.57 101.817 54.24 104.138 50.36 109.1 C 47.42 112.511 46.02 116.543 46.02 120.884 C 46.02 125.686 48.35 129.257 51.29 129.257 C 54.85 129.257 58.88 121.194 65.86 100.577 Z" style="transform-origin: 96px 96px;"/></svg>
