<svg width="192" height="192" viewBox="0 0 192 192" fill="none" xmlns="http://www.w3.org/2000/svg">
<path d="M89.1394 122.684C92.498 138.601 112.847 141.496 134.904 129.077C156.697 116.788 172.029 94.1291 169.781 77.8808C168.893 84.3609 162.603 92.3586 154.176 97.1119C145.228 102.144 136.947 101.734 134.485 96.5713C140.733 89.2887 145.177 81.3346 147.065 73.8777C148.117 69.7 148.373 65.6794 147.672 62.0163C144.621 45.8028 124.307 42.698 102.215 54.9954L99.198 39L22 82.4946L35.2979 153L89.1394 122.684ZM89.1394 122.684L85.8149 105.057M75.8415 52.1782L79.4857 71.5" stroke="black" stroke-width="12" stroke-linecap="round" stroke-linejoin="round"/>
<ellipse cx="82.3923" cy="89.3205" rx="12" ry="20" transform="rotate(30 82.3923 89.3205)" stroke="black" stroke-width="12"/>
</svg>
