<svg xmlns="http://www.w3.org/2000/svg" width="192" height="192" fill="none"><path stroke="#000" stroke-linecap="round" stroke-linejoin="round" stroke-width="12" d="M22 43v101.094a6 6 0 0 0 4.808 5.881l68 13.783a6 6 0 0 0 2.384 0l68-13.783a6 6 0 0 0 4.808-5.881V43"/><path stroke="#000" stroke-linecap="round" stroke-linejoin="round" stroke-width="10" d="M112.616 36c8.657-5.325 20.193-9.094 33.384-5v98c-40 0-50 35-50 35s-10-35-50-35V31c13.191-4.094 24.727-.325 33.384 5"/><path stroke="#000" stroke-linecap="round" stroke-linejoin="round" stroke-width="12" d="M96 48v114M73 72h46"/></svg>