<svg width="192" height="192" viewBox="0 0 192 192" fill="none" xmlns="http://www.w3.org/2000/svg">
<path d="M31.6776 90C31.2311 93.0995 31 96.2694 31 99.4937C31 135.672 60.1015 165 96 165C131.899 165 161 135.672 161 99.4937C161 96.2694 160.769 93.0995 160.322 90" stroke="black" stroke-width="12" stroke-linecap="round" stroke-linejoin="round"/>
<path d="M147.619 48.3812C154.398 55.1599 159.775 63.2073 163.443 72.0641C164.784 75.3 165.886 78.6208 166.746 82L170 91C170 91 134.86 80 96 80C57.1397 80 22 91 22 91L25.254 82C26.1138 78.6208 27.2165 75.3 28.5568 72.0641C32.2254 63.2073 37.6026 55.1599 44.3812 48.3812C51.1599 41.6025 59.2074 36.2254 68.0641 32.5568C76.9209 28.8882 86.4136 27 96 27C105.587 27 115.079 28.8882 123.936 32.5568C132.793 36.2254 140.84 41.6025 147.619 48.3812Z" stroke="black" stroke-width="12" stroke-linejoin="round"/>
<circle cx="66" cy="110" r="5" stroke="black" stroke-width="10" stroke-linecap="round" stroke-linejoin="round"/>
<circle cx="126" cy="110" r="5" stroke="black" stroke-width="10" stroke-linecap="round" stroke-linejoin="round"/>
</svg>
