<svg xmlns="http://www.w3.org/2000/svg" width="192" height="192" fill="none" viewBox="0 0 192 192"><path stroke="#000" stroke-linecap="round" stroke-linejoin="round" stroke-width="12" d="M31.678 90C31.23 93.1 31 96.27 31 99.494 31 135.672 60.102 165 96 165c35.899 0 65-29.328 65-65.506 0-3.225-.231-6.394-.678-9.494"/><path stroke="#000" stroke-linejoin="round" stroke-width="12" d="M147.619 48.381A73 73 0 0 1 166.746 82L170 91s-35.14-11-74-11-74 11-74 11l3.254-9a73 73 0 0 1 122.365-33.619Z"/><circle cx="66" cy="110" r="5" stroke="#000" stroke-linecap="round" stroke-linejoin="round" stroke-width="10"/><circle cx="126" cy="110" r="5" stroke="#000" stroke-linecap="round" stroke-linejoin="round" stroke-width="10"/></svg>