<svg xmlns="http://www.w3.org/2000/svg" width="192" height="192" fill="none" stroke="#000" stroke-linecap="round" stroke-width="12" viewBox="0 0 192 192"><path d="M146.13 74.65c7.6 9.96 12.11 22.34 12.11 35.76 0 32.91-27.11 59.59-60.55 59.59s-60.55-26.68-60.55-59.59c0-6.14.94-12.07 2.7-17.64"/><path d="M86.72 23.16c20.62 5.03 41.37 15.47 51.6 21.06 6.3 3.44 10.05 10.25 9.49 17.4-1.08 13.87-10.13 31.44-15.71 41.11-6.77 11.72-20.33 18.07-33.55 15.15q-.675-.15-1.35-.33c-18.12-4.77-51.49-22.88-59.12-26.7-7.63-3.81-2.86-24.79-2.86-24.79s12.4-52.44 51.49-42.91z"/><path d="M56.21 61.3c1.78-5.44 7.89-7.88 12.4-5.72 4.21 2.02 6.22 7.66 3.81 12.4m-15.07 54.34s7.44 17.16 18.89 9.54"/><ellipse cx="103.79" cy="73.33" rx="11.52" ry="7.76" transform="rotate(-55.65 103.799 73.329)"/></svg>