<svg xmlns="http://www.w3.org/2000/svg" width="192" height="192" fill="none" viewBox="0 0 192 192"><path stroke="#000" stroke-linecap="round" stroke-linejoin="round" stroke-width="12" d="M109.755 50A48 48 0 0 0 96 48c-26.51 0-48 21.49-48 48s21.49 48 48 48 48-21.49 48-48c0-4.78-.699-9.398-2-13.755m-34.686 2.441A15.95 15.95 0 0 0 96 80c-8.836 0-16 7.163-16 16s7.163 16 16 16 16-7.163 16-16c0-4.418-1.791-8.418-4.686-11.314m0 0 25.711-25.71M117.757 25.25A74 74 0 0 0 96 22c-40.87 0-74 33.13-74 74s33.13 74 74 74 74-33.131 74-74a74 74 0 0 0-3.25-21.757m-33.725-15.268.622-15.933a6 6 0 0 1 1.247-3.435l6.964-9.012c2.887-3.735 8.756-2.829 10.381 1.603l.742 2.023a6 6 0 0 0 3.844 3.662l2.516.786c4.566 1.427 5.708 7.36 1.998 10.38l-8.795 7.16a6 6 0 0 1-3.257 1.323z"/></svg>