<svg width="192" height="192" viewBox="0 0 192 192" fill="none" xmlns="http://www.w3.org/2000/svg"><circle cx="50" cy="50" r="4" stroke="#000" stroke-width="8" stroke-linecap="round" stroke-linejoin="round"/><circle cx="50" cy="142" r="4" stroke="#000" stroke-width="8" stroke-linecap="round" stroke-linejoin="round"/><circle cx="142" cy="50" r="4" stroke="#000" stroke-width="8" stroke-linecap="round" stroke-linejoin="round"/><circle cx="142" cy="142" r="4" stroke="#000" stroke-width="8" stroke-linecap="round" stroke-linejoin="round"/><path d="M74 27a6 6 0 0 1 6-6h32a6 6 0 0 1 6 6v13L96 62 74 40V27Zm91 47a6 6 0 0 1 6 6v32a6 6 0 0 1-6 6h-13l-22-22 22-22h13Zm-91 91a6 6 0 0 0 6 6h32a6 6 0 0 0 6-6v-13l-22-22-22 22v13ZM27 74a6 6 0 0 0-6 6v32a6 6 0 0 0 6 6h13l22-22-22-22H27Z" stroke="#000" stroke-width="10" stroke-linecap="round" stroke-linejoin="round"/><path d="M62 81.485a6 6 0 0 1 1.757-4.242l13.486-13.486A6 6 0 0 1 81.485 62h29.03a6 6 0 0 1 4.242 1.757l13.486 13.486A6 6 0 0 1 130 81.485v29.03a6 6 0 0 1-1.757 4.242l-13.486 13.486a6 6 0 0 1-4.242 1.757h-29.03a6 6 0 0 1-4.242-1.757l-13.486-13.486A5.998 5.998 0 0 1 62 110.515v-29.03ZM96 60v28" stroke="#000" stroke-width="10" stroke-linecap="round" stroke-linejoin="round"/></svg>