<?xml version="1.0" standalone="no"?>
<!DOCTYPE svg PUBLIC "-//W3C//DTD SVG 20010904//EN"
 "http://www.w3.org/TR/2001/REC-SVG-20010904/DTD/svg10.dtd">
<svg version="1.0" xmlns="http://www.w3.org/2000/svg"
 width="192.000000pt" height="192.000000pt" viewBox="0 0 192.000000 192.000000"
 preserveAspectRatio="xMidYMid meet">

<g transform="translate(0.000000,192.000000) scale(0.100000,-0.100000)"
fill="#000000" stroke="none">
<path d="M380 1669 c-48 -19 -93 -62 -116 -113 l-24 -51 0 -515 c0 -342 4
-528 11 -555 14 -52 90 -126 145 -143 30 -9 175 -12 546 -12 558 0 561 0 627
63 72 69 71 52 71 631 0 360 -3 530 -11 557 -16 52 -61 103 -112 128 -42 21
-55 21 -578 20 -326 0 -544 -4 -559 -10z m320 -257 l0 -168 -40 -53 c-133
-176 -68 -430 133 -521 34 -15 70 -30 80 -34 15 -5 17 -20 17 -126 l0 -120
-236 0 -236 0 -34 34 -34 34 0 524 c0 468 2 526 16 547 29 40 69 50 207 51
l127 0 0 -168z m184 152 c3 -9 6 -64 6 -124 l0 -108 -27 -6 c-16 -4 -36 -9
-45 -12 -17 -5 -18 5 -18 124 0 71 3 132 7 135 13 14 71 7 77 -9z m186 -120
c0 -120 -2 -135 -16 -130 -9 3 -27 9 -40 12 -24 6 -24 8 -24 130 l0 124 40 0
40 0 0 -136z m417 110 c51 -38 52 -52 52 -572 1 -404 -1 -488 -14 -518 l-15
-35 -38 23 c-21 13 -113 68 -205 122 -159 96 -165 101 -144 114 178 119 217
351 87 514 l-30 37 0 171 0 172 139 -4 c123 -3 143 -5 168 -24z m-437 -354
c135 -69 173 -253 74 -368 -149 -175 -424 -77 -424 150 0 115 66 202 180 239
37 12 126 1 170 -21z m113 -687 c89 -53 171 -102 182 -110 17 -11 -8 -13 -168
-13 l-187 0 0 110 c0 61 2 110 5 110 3 0 78 -43 168 -97z"/>
</g>
</svg>
