<svg xmlns="http://www.w3.org/2000/svg" width="256" height="256" viewBox="0 0 192 192" preserveAspectRatio="xMidYMid meet" xmlns:v="https://vecta.io/nano"><path d="M38 25.1c-4.8 1.9-9.3 6.2-11.6 11.3L24 41.5V93c0 34.2.4 52.8 1.1 55.5 1.4 5.2 9 12.6 14.5 14.3 3 .9 17.5 1.2 54.6 1.2 55.8 0 56.1 0 62.7-6.3 7.2-6.9 7.1-5.2 7.1-63.1 0-36-.3-53-1.1-55.7-1.6-5.2-6.1-10.3-11.2-12.8-4.2-2.1-5.5-2.1-57.8-2-32.6 0-54.4.4-55.9 1zm32 25.7v16.8l-4 5.3c-13.3 17.6-6.8 43 13.3 52.1l8 3.4c1.5.5 1.7 2 1.7 12.6v12H65.4 41.8l-3.4-3.4-3.4-3.4V93.8c0-46.8.2-52.6 1.6-54.7 2.9-4 6.9-5 20.7-5.1H70v16.8zm18.4-15.2c.3.9.6 6.4.6 12.4v10.8l-2.7.6c-1.6.4-3.6.9-4.5 1.2-1.7.5-1.8-.5-1.8-12.4 0-7.1.3-13.2.7-13.5 1.3-1.4 7.1-.7 7.7.9zm18.6 12c0 12-.2 13.5-1.6 13-.9-.3-2.7-.9-4-1.2-2.4-.6-2.4-.8-2.4-13V34h4 4v13.6zm41.7-11c5.1 3.8 5.2 5.2 5.2 57.2.1 40.4-.1 48.8-1.4 51.8l-1.5 3.5-3.8-2.3c-2.1-1.3-11.3-6.8-20.5-12.2-15.9-9.6-16.5-10.1-14.4-11.4 17.8-11.9 21.7-35.1 8.7-51.4l-3-3.7V51 33.8l13.9.4c12.3.3 14.3.5 16.8 2.4zM105 72c13.5 6.9 17.3 25.3 7.4 36.8-14.9 17.5-42.4 7.7-42.4-15 0-11.5 6.6-20.2 18-23.9 3.7-1.2 12.6-.1 17 2.1zm11.3 68.7l18.2 11c1.7 1.1-.8 1.3-16.8 1.3H99v-11c0-6.1.2-11 .5-11s7.8 4.3 16.8 9.7z"/></svg>