<svg width="192" height="192" fill="none" xmlns="http://www.w3.org/2000/svg"><circle cx="56" cy="117" r="14" stroke="#000" stroke-width="12" stroke-linecap="round" stroke-linejoin="round"/><path d="M142 101a16.004 16.004 0 0 0-11.314 4.686 16.004 16.004 0 0 0 0 22.628c3.001 3 7.071 4.686 11.314 4.686" stroke="#000" stroke-width="12" stroke-linecap="round" stroke-linejoin="round"/><path d="M170 117V85a6 6 0 0 0-6-6h-13.306a6.001 6.001 0 0 1-4.484-2.014l-12.42-13.972A6.001 6.001 0 0 0 129.306 61H84a6 6 0 0 0-3.6 1.2L58.905 78.321a5.999 5.999 0 0 1-1.995.982l-30.516 8.476A6 6 0 0 0 22 93.561V117m104 0H71" stroke="#000" stroke-width="12" stroke-linecap="round" stroke-linejoin="round"/><path d="M150 102s-4-1-8-1m8 31s-4 1-8 1" stroke="#000" stroke-width="12" stroke-linecap="round" stroke-linejoin="round"/></svg>