<svg xmlns="http://www.w3.org/2000/svg" width="192" height="192" fill="none"><path stroke="#000" stroke-linecap="round" stroke-linejoin="round" stroke-width="12" d="M96 22c-14.36 0-26 11.64-26 26 0 7.888 3.513 14.956 9.06 19.725L65.014 80.21A6 6 0 0 0 63 84.694V94a6 6 0 0 0 6 6h13s-5.652 26.374-37.067 46.212c-1.798 1.136-2.933 3.093-2.933 5.22V164a6 6 0 0 0 6 6h96a6 6 0 0 0 6-6v-12.568c0-2.127-1.135-4.084-2.933-5.22C115.652 126.374 110 100 110 100h13a6 6 0 0 0 6-6v-9.306a6 6 0 0 0-2.014-4.484L112.94 67.725C118.487 62.956 122 55.888 122 48c0-14.36-11.641-26-26-26"/></svg>