<svg xmlns="http://www.w3.org/2000/svg" width="192" height="192" fill-rule="evenodd" viewBox="0 0 192 192"><path d="M115.02 57.91A42.28 42.28 0 0 0 102 53.85V22c0-3.311-2.69-6-6-6s-6 2.689-6 6v31.85c-4.62.653-9 2.048-13.02 4.06V22c0-3.311-2.69-6-6-6s-6 2.689-6 6v44.856C57.82 74.476 53.43 84.729 53.43 96c0 21.458 15.91 39.229 36.57 42.15V170c0 3.311 2.69 6 6 6s6-2.689 6-6v-22.085l26.33 26.328a5.998 5.998 0 0 0 8.48 0 6.007 6.007 0 0 0 0-8.486l-28.88-28.884a42.315 42.315 0 0 0 10.46-4.67l42.04 42.04c2.35 2.341 6.15 2.341 8.49 0a6.007 6.007 0 0 0 0-8.486l-41.29-41.283c6.8-7.545 10.94-17.53 10.94-28.474 0-11.271-4.39-21.524-11.55-29.144V22c0-3.311-2.69-6-6-6s-6 2.689-6 6v35.91zm.34 61.74c6.84-5.61 11.21-14.124 11.21-23.65 0-16.872-13.7-30.57-30.57-30.57S65.43 79.128 65.43 96s13.7 30.57 30.57 30.57a30.414 30.414 0 0 0 19.36-6.92z"/></svg>