<svg xmlns="http://www.w3.org/2000/svg" width="192" height="192" fill="none" viewBox="0 0 192 192"><circle cx="96" cy="96" r="6" stroke="#000" stroke-linecap="round" stroke-linejoin="round" stroke-width="12"/><path stroke="#000" stroke-width="12" d="M79.322 55.737 50.45 42.46c-5.08-2.336-10.325 2.909-7.99 7.989l13.277 28.872m23.585-23.585-5.409 14.618a6.02 6.02 0 0 1-3.558 3.558l-14.618 5.41m23.585-23.586 11.029-29.804c1.94-5.244 9.358-5.244 11.298 0l11.029 29.804m0 0L141.55 42.46c5.081-2.336 10.325 2.909 7.989 7.989l-13.276 28.872m-23.585-23.585 5.409 14.618a6.02 6.02 0 0 0 3.558 3.558l14.618 5.41m0 0 29.804 11.028c5.244 1.94 5.244 9.358 0 11.298l-29.804 11.029m0 0 13.276 28.872c2.336 5.081-2.908 10.325-7.989 7.989l-28.872-13.276m23.585-23.585-14.618 5.409a6.02 6.02 0 0 0-3.558 3.558l-5.409 14.618m0 0-11.029 29.804c-1.94 5.244-9.358 5.244-11.298 0l-11.029-29.804m0 0L50.45 149.539c-5.08 2.336-10.325-2.908-7.99-7.989l13.277-28.872m23.585 23.585-5.409-14.618a6.02 6.02 0 0 0-3.558-3.558l-14.618-5.409m0 0-29.804-11.029c-5.244-1.94-5.244-9.358 0-11.298l29.804-11.029"/></svg>