<svg xmlns="http://www.w3.org/2000/svg" xml:space="preserve" style="fill-rule:evenodd;clip-rule:evenodd;stroke-linejoin:round;stroke-miterlimit:2" viewBox="0 0 192 192"><path d="M2023.02 269.91a42.28 42.28 0 0 0-13.02-4.06V234c0-3.311-2.69-6-6-6s-6 2.689-6 6v31.85c-4.62.653-9 2.048-13.02 4.06V234c0-3.311-2.69-6-6-6s-6 2.689-6 6v44.856c-7.16 7.62-11.55 17.873-11.55 29.144 0 21.458 15.91 39.229 36.57 42.15V382c0 3.311 2.69 6 6 6s6-2.689 6-6v-22.085l26.33 26.328a5.998 5.998 0 0 0 8.48 0 6.007 6.007 0 0 0 0-8.486l-28.88-28.884a42.315 42.315 0 0 0 10.46-4.67l42.04 42.04c2.35 2.341 6.15 2.341 8.49 0a6.007 6.007 0 0 0 0-8.486l-41.29-41.283c6.8-7.545 10.94-17.53 10.94-28.474 0-11.271-4.39-21.524-11.55-29.144V234c0-3.311-2.69-6-6-6s-6 2.689-6 6v35.91Zm.34 61.74c6.84-5.61 11.21-14.124 11.21-23.65 0-16.872-13.7-30.57-30.57-30.57s-30.57 13.698-30.57 30.57 13.7 30.57 30.57 30.57a30.414 30.414 0 0 0 19.36-6.92Z" style="fill-rule:evenodd;clip-rule:evenodd;stroke-linejoin:round;stroke-miterlimit:2" transform="translate(-1908 -212)"/></svg>