<svg xmlns="http://www.w3.org/2000/svg" width="192" height="192" fill="none"><path stroke="#000" stroke-linecap="round" stroke-linejoin="round" stroke-width="10" d="m126.889 95.303-39.42 53.425a12.1 12.1 0 0 0-2.231 8.974 12.1 12.1 0 0 0 4.75 7.928 12.03 12.03 0 0 0 8.948 2.237 12.03 12.03 0 0 0 7.905-4.763l3.583-4.857m-8.719-106.686 16.723-22.665a12.1 12.1 0 0 1 3.48-3.17 12.03 12.03 0 0 1 9.121-1.367 12 12 0 0 1 4.252 2.011 12.11 12.11 0 0 1 2.519 16.901l-62.713 84.995m14.672-60.515-56.143 76.09a12.12 12.12 0 0 0-.642 13.411 12.1 12.1 0 0 0 3.16 3.49 12.03 12.03 0 0 0 8.949 2.238 12.05 12.05 0 0 0 7.905-4.764l10.153-13.761m59.229-2.397 35.836-48.568a12.11 12.11 0 0 0 .642-13.411 12.04 12.04 0 0 0-12.109-5.727 12 12 0 0 0-4.425 1.592 12.1 12.1 0 0 0-3.48 3.17M54.421 37.77 23.363 79.862a12.1 12.1 0 0 0-2.23 8.974 12.1 12.1 0 0 0 4.75 7.927A12.03 12.03 0 0 0 34.83 99a12.03 12.03 0 0 0 7.905-4.763l31.058-42.092a12.1 12.1 0 0 0 2.231-8.974 12.1 12.1 0 0 0-4.75-7.928 12.04 12.04 0 0 0-8.948-2.237 12 12 0 0 0-4.425 1.593 12.1 12.1 0 0 0-3.48 3.17Zm114.215 116.073c-3.959 5.365-11.504 6.496-16.853 2.526s-6.477-11.537-2.519-16.901c3.958-5.365 11.504-6.496 16.853-2.526s6.477 11.537 2.519 16.901"/></svg>