<svg width="192" height="192" viewBox="0 0 192 192" fill="none" xmlns="http://www.w3.org/2000/svg"><path d="m123.867 59.95-63.916 63.917m12.954 15.377C61.535 129.417 22 94.755 22 87.914c0 0 12.983-14.98 31.958-33.956C72.934 34.983 87.914 22 87.914 22c6.841 0 41.503 39.535 51.33 50.905 1.592 1.842 1.869 4.438.751 6.6l-13.131 25.387c0 5.465 23.366 26.353 38.131 39.005 6.276 5.379 6.736 14.999.891 20.844l-1.145 1.145c-5.845 5.845-15.465 5.385-20.844-.891-12.652-14.765-33.54-38.131-39.005-38.131l-25.387 13.131c-2.162 1.118-4.758.841-6.6-.751Z" stroke="#000" stroke-width="12" stroke-linecap="round" stroke-linejoin="round"/></svg>