<svg xmlns="http://www.w3.org/2000/svg" width="192" height="192" fill="none"><path stroke="#000" stroke-linecap="round" stroke-linejoin="round" stroke-width="12" d="M84 99s6 38-32 38c-34 0-22-44-22-44m54 6s-8-10-26-10-28 4-28 4m54 6h24m-78-6h-8m86 6s-6 38 32 38c34 0 22-44 22-44m-54 6s8-10 26-10 28 4 28 4m0 0h8m-78 56h8"/><path stroke="#000" stroke-linecap="round" stroke-linejoin="round" stroke-width="12" d="M31 126c-6 1-9 3-9 3m139-3c6 1 9 3 9 3m-12.487-40.452C170 75.21 170 40 170 40s-34.035 1.89-52.465 24.057m39.978 24.49c-7.663-10.562-20.027-20.363-39.978-24.49m39.978 24.49a61 61 0 0 1 2.637 3.953m-42.615-28.443C111.162 62.74 104.015 62 96 62s-15.162.74-21.535 2.057m-39.978 24.49c7.663-10.562 20.027-20.363 39.978-24.49m-39.978 24.49C27.58 81.172 24.493 67.102 23.114 56L37 57l-.33-14.555c11.475 2.837 27.209 8.88 37.795 21.612m-39.978 24.49A61 61 0 0 0 31.85 92.5M68 135.006C87.5 143.52 96 154 96 154s8.501-10.48 28-18.994"/><circle cx="62" cy="110" r="3" stroke="#000" stroke-linecap="round" stroke-linejoin="round" stroke-width="6"/><circle cx="130" cy="110" r="3" stroke="#000" stroke-linecap="round" stroke-linejoin="round" stroke-width="6"/></svg>