<?xml version="1.0" encoding="UTF-8" standalone="no"?>
<svg
   width="192"
   height="192"
   viewBox="0 0 192 192"
   fill="none"
   version="1.1"
   id="svg1011"
   xml:space="preserve"
   xmlns="http://www.w3.org/2000/svg"
   xmlns:svg="http://www.w3.org/2000/svg"><defs
     id="defs1009"><clipPath
       id="a"><path
         fill="#fff"
         d="M0 0h192v192H0z"
         id="path1006" /></clipPath><filter
       id="mask-powermask-path-effect5363_inverse"
       style="color-interpolation-filters:sRGB"
       height="100"
       width="100"
       x="-50"
       y="-50"><feColorMatrix
         id="mask-powermask-path-effect5363_primitive1"
         values="1"
         type="saturate"
         result="fbSourceGraphic" /><feColorMatrix
         id="mask-powermask-path-effect5363_primitive2"
         values="-1 0 0 0 1 0 -1 0 0 1 0 0 -1 0 1 0 0 0 1 0 "
         in="fbSourceGraphic" /></filter><filter
       id="mask-powermask-path-effect5414_inverse"
       style="color-interpolation-filters:sRGB"
       height="100"
       width="100"
       x="-50"
       y="-50"><feColorMatrix
         id="mask-powermask-path-effect5414_primitive1"
         values="1"
         type="saturate"
         result="fbSourceGraphic" /><feColorMatrix
         id="mask-powermask-path-effect5414_primitive2"
         values="-1 0 0 0 1 0 -1 0 0 1 0 0 -1 0 1 0 0 0 1 0 "
         in="fbSourceGraphic" /></filter><filter
       id="mask-powermask-path-effect5444_inverse"
       style="color-interpolation-filters:sRGB"
       height="100"
       width="100"
       x="-50"
       y="-50"><feColorMatrix
         id="mask-powermask-path-effect5444_primitive1"
         values="1"
         type="saturate"
         result="fbSourceGraphic" /><feColorMatrix
         id="mask-powermask-path-effect5444_primitive2"
         values="-1 0 0 0 1 0 -1 0 0 1 0 0 -1 0 1 0 0 0 1 0 "
         in="fbSourceGraphic" /></filter><filter
       id="mask-powermask-path-effect5462_inverse"
       style="color-interpolation-filters:sRGB"
       height="100"
       width="100"
       x="-50"
       y="-50"><feColorMatrix
         id="mask-powermask-path-effect5462_primitive1"
         values="1"
         type="saturate"
         result="fbSourceGraphic" /><feColorMatrix
         id="mask-powermask-path-effect5462_primitive2"
         values="-1 0 0 0 1 0 -1 0 0 1 0 0 -1 0 1 0 0 0 1 0 "
         in="fbSourceGraphic" /></filter><filter
       id="mask-powermask-path-effect5473_inverse"
       style="color-interpolation-filters:sRGB"
       height="100"
       width="100"
       x="-50"
       y="-50"><feColorMatrix
         id="mask-powermask-path-effect5473_primitive1"
         values="1"
         type="saturate"
         result="fbSourceGraphic" /><feColorMatrix
         id="mask-powermask-path-effect5473_primitive2"
         values="-1 0 0 0 1 0 -1 0 0 1 0 0 -1 0 1 0 0 0 1 0 "
         in="fbSourceGraphic" /></filter><filter
       id="mask-powermask-path-effect7499_inverse"
       style="color-interpolation-filters:sRGB"
       height="100"
       width="100"
       x="-50"
       y="-50"><feColorMatrix
         id="mask-powermask-path-effect7499_primitive1"
         values="1"
         type="saturate"
         result="fbSourceGraphic" /><feColorMatrix
         id="mask-powermask-path-effect7499_primitive2"
         values="-1 0 0 0 1 0 -1 0 0 1 0 0 -1 0 1 0 0 0 1 0 "
         in="fbSourceGraphic" /></filter><filter
       id="mask-powermask-path-effect7510_inverse"
       style="color-interpolation-filters:sRGB"
       height="100"
       width="100"
       x="-50"
       y="-50"><feColorMatrix
         id="mask-powermask-path-effect7510_primitive1"
         values="1"
         type="saturate"
         result="fbSourceGraphic" /><feColorMatrix
         id="mask-powermask-path-effect7510_primitive2"
         values="-1 0 0 0 1 0 -1 0 0 1 0 0 -1 0 1 0 0 0 1 0 "
         in="fbSourceGraphic" /></filter><clipPath
       clipPathUnits="userSpaceOnUse"
       id="clipPath7516"><path
         d="m 18.7893,67.426901 c -2.371,-0.5923 -4.0334,-2.713199 -4.0334,-5.145701 V 33.6233 c 0,-2.7629 2.6107,-4.7892 5.3037,-4.1165 l 17.0541,4.2602 c 2.3709,0.5922 4.0334,2.7131 4.0334,5.1456 v 28.657901 c 0,2.762897 -2.6108,4.789301 -5.3038,4.116497 z"
         fill="#ffffff"
         id="path7518"
         style="display:block;fill:#ffffff;fill-opacity:1;stroke:none;stroke-width:4.4;stroke-dasharray:none;stroke-opacity:1" /></clipPath><clipPath
       clipPathUnits="userSpaceOnUse"
       id="clipPath7528"><path
         d="m 34.8381,60.8292 c -2.371,-0.5923 -4.0334,-2.713199 -4.0334,-5.145701 V 27.0257 c 0,-2.7629 2.6108,-4.7893 5.3038,-4.1166 l 17.053998,4.2602 c 2.371001,0.5923 4.033403,2.7132 4.033403,5.1457 v 28.6578 c 0,2.763002 -2.610701,4.789301 -5.303804,4.116601 z"
         fill="#ffffff"
         id="path7530"
         style="display:block;fill:#ffffff;fill-opacity:1;stroke:none;stroke-width:4.4;stroke-dasharray:none;stroke-opacity:1" /></clipPath><linearGradient
       id="paint0_linear_3_81"
       x1="4.0922198"
       y1="20.1402"
       x2="1.0628999"
       y2="11.3837"
       gradientUnits="userSpaceOnUse"><stop
         offset="0.1444"
         stop-color="#F2E913"
         id="stop28" /><stop
         offset="0.3037"
         stop-color="#E7E518"
         id="stop30" /><stop
         offset="0.5823"
         stop-color="#CADB26"
         id="stop32" /><stop
         offset="0.891"
         stop-color="#A3CD39"
         id="stop34" /></linearGradient><linearGradient
       id="paint1_linear_3_81"
       x1="4.3117299"
       y1="4.02952"
       x2="12.114"
       y2="1.0562201"
       gradientUnits="userSpaceOnUse"><stop
         offset="0.0592"
         stop-color="#0FA8E0"
         id="stop37" /><stop
         offset="0.5385"
         stop-color="#0099F9"
         id="stop39" /><stop
         offset="0.9234"
         stop-color="#0291EB"
         id="stop41" /></linearGradient><linearGradient
       id="paint2_linear_3_81"
       x1="11.211"
       y1="22.3097"
       x2="20.034"
       y2="20.315599"
       gradientUnits="userSpaceOnUse"><stop
         offset="0.1226"
         stop-color="#A3CD39"
         id="stop44" /><stop
         offset="0.2846"
         stop-color="#86C339"
         id="stop46" /><stop
         offset="0.8693"
         stop-color="#21A038"
         id="stop48" /></linearGradient><linearGradient
       id="paint3_linear_3_81"
       x1="11.4197"
       y1="0.93323302"
       x2="18.9632"
       y2="3.26074"
       gradientUnits="userSpaceOnUse"><stop
         offset="0.0566"
         stop-color="#0291EB"
         id="stop51" /><stop
         offset="0.79"
         stop-color="#0C8ACB"
         id="stop53" /></linearGradient><linearGradient
       id="paint4_linear_3_81"
       x1="3.8009"
       y1="19.7064"
       x2="12.0121"
       y2="22.774401"
       gradientUnits="userSpaceOnUse"><stop
         offset="0.1324"
         stop-color="#F2E913"
         id="stop56" /><stop
         offset="0.2977"
         stop-color="#EBE716"
         id="stop58" /><stop
         offset="0.5306"
         stop-color="#D9E01F"
         id="stop60" /><stop
         offset="0.8023"
         stop-color="#BBD62D"
         id="stop62" /><stop
         offset="0.9829"
         stop-color="#A3CD39"
         id="stop64" /></linearGradient><linearGradient
       id="paint5_linear_3_81"
       x1="1.03767"
       y1="12.346"
       x2="4.3336902"
       y2="3.7718301"
       gradientUnits="userSpaceOnUse"><stop
         offset="0.0698"
         stop-color="#A3CD39"
         id="stop67" /><stop
         offset="0.2599"
         stop-color="#81C55F"
         id="stop69" /><stop
         offset="0.9216"
         stop-color="#0FA8E0"
         id="stop71" /></linearGradient></defs><g
     id="g1189"
     transform="translate(0.37579758,11.117423)"><path
       id="Combined-Shape"
       fill="#ffffff"
       d="M 171.60662,53.784767 H 121.8712 V 78.93512 h 15.77338 V 64.818275 h 6.65034 l 8.91749,14.16823 h 17.94078 l -10.5317,-15.347151 c 5.03913,-1.765363 9.06863,-5.344451 10.98513,-9.854587 z M 120.71646,30.871345 c 0.0484,1.248449 0.24787,2.493876 0.55017,3.645592 0.0484,0.287174 0.15112,0.525982 0.1995,0.816177 0.0484,0.09371 0.0484,0.190442 0.0998,0.332517 2.79919,8.49429 11.097,9.240351 20.84578,9.240351 h 28.8957 c 0.1995,-0.95825 0.28046,-1.916679 0.29926,-2.926146 0.0886,-4.754131 -0.25789,-7.133626 -3.43136,-8.866194 -3.09026,-1.850167 -9.53207,-2.242297 -13.81719,-2.242297 H 120.71346 Z M 58.640451,37.210322 51.990123,59.325705 H 50.868635 L 44.218298,37.210322 C 43.148199,33.477066 39.569111,30.871345 35.530544,30.871345 H 19.624156 V 78.935119 H 35.5245 V 50.580515 h 1.127532 l 9.101888,28.402973 h 11.353938 l 9.098861,-28.405996 h 1.127534 V 78.983488 H 83.234595 V 30.871345 H 67.38564 c -4.041587,0 -7.617654,2.605721 -8.745189,6.338977 z M 94.459136,30.871345 V 78.983488 H 109.49494 V 30.871345 Z"
       style="fill:none;fill-opacity:1;fill-rule:evenodd;stroke:#000000;stroke-width:7.99991;stroke-linecap:round;stroke-linejoin:round;stroke-dasharray:none;stroke-opacity:1" /><path
       d="M 47.088754,130.13817 V 92.537285 h 14.073479 c 8.487061,0 14.07348,4.512097 14.07348,11.924845 v 0.10744 c 0,8.11104 -6.76816,12.30086 -14.771777,12.30086 h -9.131653 v 13.26774 z m 4.243529,-17.13526 h 9.292803 c 6.230996,0 10.313384,-3.33038 10.313384,-8.2722 v -0.10743 c 0,-5.371556 -4.028664,-8.164769 -10.098529,-8.164769 h -9.507658 z m 41.740162,17.72614 c -5.156693,0 -10.367108,-2.95435 -10.367108,-8.64821 v -0.10743 c 0,-5.85499 4.834409,-8.9705 11.87114,-8.9705 3.545224,0 5.496073,3.51336 8.540783,-0.80891 -1.64037,-9.87607 -9.972282,-9.5507 -16.70555,-6.49957 l -1.235454,-3.38408 c 3.061789,-1.39661 6.069863,-2.30977 10.098529,-2.30977 3.921228,0 6.929315,1.02059 8.970505,3.06178 1.88003,1.88005 2.84692,6.55647 2.84692,10.10169 v 16.97412 h -3.97495 v -4.1898 c -1.93376,2.52462 -5.1567,4.78068 -10.044815,4.78068 z m 0.805735,-1.28602 c 6.56462,-0.91769 9.29279,-5.10613 9.29279,-9.51081 v -4.67643 c -2.04118,-0.59087 -4.780691,-1.18175 -8.164772,-1.18175 -5.210399,0 -10.101684,4.24671 -10.101684,7.73823 v 0.10744 c 0,3.4915 2.103129,8.48377 8.973666,7.52332 z m 36.95948,-3.92439 8.91678,-23.15141 h 4.40468 l -11.65628,28.68411 c -2.36348,5.74756 -5.04926,7.84247 -9.23909,7.84247 -2.30977,0 -4.02866,-0.48342 -5.90871,-1.3966 l 1.39661,-3.27665 c 1.3429,0.69831 2.57836,1.0206 4.35097,1.0206 2.47091,0 4.02866,-1.28918 5.69384,-5.21043 l -12.62316,-27.6635 h 4.56582 z"
       style="fill:none;fill-opacity:1;fill-rule:evenodd;stroke:#000000;stroke-width:7.99991;stroke-linecap:round;stroke-linejoin:round;stroke-dasharray:none;stroke-opacity:1"
       id="path1158" /></g></svg>
