<svg xmlns="http://www.w3.org/2000/svg" width="192" height="192" fill="none"><path stroke="#000" stroke-linecap="round" stroke-linejoin="round" stroke-width="12" d="M83.987 38.484c2.882 10.871-.595 21.259-7.767 23.201s-15.324-5.297-18.207-16.169c-2.882-10.871.595-21.259 7.767-23.201s15.324 5.297 18.207 16.169m-35 39c2.882 10.871-.595 21.259-7.767 23.201s-15.324-5.297-18.207-16.169c-2.882-10.871.595-21.259 7.767-23.201s15.324 5.297 18.207 16.169m94.026 0c-2.882 10.871.595 21.259 7.767 23.201s15.324-5.297 18.207-16.169c2.882-10.871-.595-21.259-7.767-23.201s-15.324 5.297-18.207 16.169m-35-39c-2.882 10.871.595 21.259 7.767 23.201s15.324-5.297 18.207-16.169c2.882-10.871-.595-21.259-7.767-23.201s-15.324 5.297-18.207 16.169M96 83c-14.912 0-27 12.088-27 27 0 2.065.232 4.076.67 6.008A27.01 27.01 0 0 0 46.55 128a26.997 26.997 0 0 0 14.612 40.837A26.995 26.995 0 0 0 96 143a27 27 0 0 0 18.321 25.567 27 27 0 0 0 30.1-9.13 27.003 27.003 0 0 0-22.092-43.429A27 27 0 0 0 123 110c0-14.912-12.088-27-27-27"/></svg>