<svg xmlns="http://www.w3.org/2000/svg" width="192" height="192" fill="none" stroke="#000" stroke-linecap="round" stroke-linejoin="round" stroke-width="12" viewBox="0 0 192 192"><path d="M47.9 106.8c0-6.4.1-12.9.1-19.4 0-6.8.1-13.6.2-20.3 9.9.1 19.8.1 29.8.2.9 0 6 .1 9.7 4.3 2.6 2.8 3 6.1 3.1 7.3l.3 28.3"/><path d="M69.2 83c0 8 .1 15.9.1 23.9m41.9-40.6c.1 13.3.3 26.6.4 39.9"/><path d="M39.4 40.6c27.3 0 54.5 0 81.8.1 1.7.2 6.8.9 11.4 5s5.9 9.1 6.3 10.8V123c-.2 1.4-1 6-4.9 9.8-4.2 4.1-9.1 4.6-10.5 4.7-13.2.2-26.4.3-39.6.5-10.5 4.5-21.1 8.9-31.6 13.4 0-4.7-.1-9.4-.1-14.1-5.1-.2-10.3-.3-15.4-.5-1.6-.2-5.7-1.1-9.4-4.6-4.4-4.2-5.2-9.4-5.3-10.9.1-21.7.1-43.4.2-65.1.3-1.8 1.1-5.6 4.1-9.1 4.7-5.7 11.5-6.4 13-6.5M144.7 67l24.9-14.7c.1 24.4.3 48.8.4 73.2-8.6-5.6-17.2-11.2-25.7-16.7"/></svg>