<svg width="192" height="192" viewBox="0 0 192 192" fill="none" xmlns="http://www.w3.org/2000/svg"><path d="M130 56h-14a6 6 0 0 0-6 6v68a6 6 0 0 0 6 6h14m0 0a39.996 39.996 0 0 0 28.284-11.716 39.996 39.996 0 0 0 0-56.568A39.998 39.998 0 0 0 130 56m-44 80a31.998 31.998 0 0 0-54.627-22.627A31.998 31.998 0 0 0 22 136h64Z" stroke="#000" stroke-width="12" stroke-linecap="round" stroke-linejoin="round"/><circle cx="54" cy="70" r="14" stroke="#000" stroke-width="12" stroke-linecap="round" stroke-linejoin="round"/></svg>