<?xml version="1.0" encoding="utf-8"?>
	<svg version="1.1" xmlns="http://www.w3.org/2000/svg" xmlns:xlink="http://www.w3.org/1999/xlink" x="0px" y="0px" width="240.0" height="240.0" xml:space="preserve">
		<path d="M120,20C175.228,20 220,64.772 220,120C220,175.228 175.228,220 120,220C64.772,220 20,175.228 20,120C20,64.772 64.772,20 120,20ZM120,36C73.608,36 36,73.608 36,120C36,166.392 73.608,204 120,204C166.392,204 204,166.392 204,120C204,73.608 166.392,36 120,36Z" fill="#000" stroke="#00000000" stroke-width="1.0" stroke-miterlimit=""/>
		<path d="M120,60C153.137,60 180,86.863 180,120C180,153.137 153.137,180 120,180C86.863,180 60,153.137 60,120C60,86.863 86.863,60 120,60ZM120,76C95.699,76 76,95.699 76,120C76,144.301 95.699,164 120,164C144.301,164 164,144.301 164,120C164,95.699 144.301,76 120,76Z" fill="#000" stroke="#00000000" stroke-width="1.0" stroke-miterlimit=""/>
		<path d="M128,120l0,100l-16,0l0,-100z" fill="#000" stroke="#00000000" stroke-width="1.0" stroke-miterlimit=""/>
		<path d="M120,120m-20,0a20,20 0,1 1,40 0a20,20 0,1 1,-40 0" fill="#000" stroke="#00000000" stroke-width="1.0" stroke-miterlimit=""/>
	</svg>
