<?xml version="1.0" encoding="utf-8"?>
	<svg version="1.1" xmlns="http://www.w3.org/2000/svg" xmlns:xlink="http://www.w3.org/1999/xlink" x="0px" y="0px" width="240.0" height="240.0" xml:space="preserve">
		<path d="M126.674,107.071C127.656,107.071 128.46,107.875 128.46,108.857L128.46,108.857L128.46,162.942L145,162.942C146.496,162.942 147.321,164.661 146.406,165.821L146.406,165.821L121.406,197.451C120.692,198.366 119.308,198.366 118.594,197.451L118.594,197.451L93.594,165.821C92.679,164.661 93.504,162.942 95,162.942L95,162.942L111.496,162.942L111.496,108.857C111.496,107.875 112.299,107.071 113.281,107.071L113.281,107.071ZM120.045,41C150.558,41 176.607,60.174 186.83,87.138C205.915,92.183 220,109.594 220,130.286C220,154.951 200.022,174.929 175.379,174.929L175.379,174.929L166.429,174.929C165.446,174.929 164.643,174.125 164.643,173.143L164.643,173.143L164.643,159.75C164.643,158.768 165.446,157.964 166.429,157.964L166.429,157.964L175.379,157.964C182.768,157.964 189.71,155.085 194.933,149.862C200.156,144.638 203.036,137.674 203.036,130.286C203.036,117.741 194.576,106.737 182.478,103.478L182.478,103.478L174.04,101.246L170.96,93.098C169.04,88.031 166.362,83.254 162.991,78.946C159.665,74.683 155.737,70.933 151.295,67.808C142.121,61.357 131.317,57.942 120.045,57.942C108.772,57.942 97.969,61.357 88.795,67.808C84.375,70.933 80.424,74.661 77.098,78.946C73.728,83.254 71.049,88.009 69.129,93.098L69.129,93.098L66.027,101.268L57.567,103.478C51.763,105.018 46.54,108.478 42.813,113.232C39.174,117.897 37.165,123.433 36.964,129.326C36.719,136.871 39.509,144.147 44.754,149.549C50.022,154.973 57.098,157.964 64.621,157.964L64.621,157.964L73.571,157.964C74.554,157.964 75.357,158.768 75.357,159.75L75.357,159.75L75.357,173.143C75.357,174.125 74.554,174.929 73.571,174.929L73.571,174.929L64.621,174.929C39.978,174.929 20,154.951 20,130.286C20,109.571 34.129,92.138 53.259,87.116C63.482,60.152 89.531,41 120.045,41Z" fill="#000" stroke="#00000000" stroke-width="1.0" stroke-miterlimit=""/>
	</svg>
