<svg width="192" height="192" viewBox="0 0 192 192" fill="none" xmlns="http://www.w3.org/2000/svg"><path d="m153.017 44-17.927 6.824a6 6 0 0 1-5.735-.808l-11.122-8.341a5.997 5.997 0 0 1-2.39-4.462l-.54-9.551A6 6 0 0 0 109.312 22H82.688a6 6 0 0 0-5.99 5.662l-.54 9.551a6 6 0 0 1-2.391 4.462l-11.122 8.341a6 6 0 0 1-5.735.808l-12.916-4.917a6 6 0 0 0-7.468 2.858L25.233 70.67a6 6 0 0 0 1.546 7.404l9.99 8.125a6 6 0 0 1 2.214 4.655v10.292a6.001 6.001 0 0 1-2.214 4.655L23 117m146-42-13.769 11.2a6 6 0 0 0-2.214 4.654v10.292a6 6 0 0 0 2.214 4.655l9.989 8.125a5.999 5.999 0 0 1 1.547 7.404l-11.293 21.905a6.001 6.001 0 0 1-7.468 2.858l-12.916-4.917a6.001 6.001 0 0 0-5.735.808l-11.122 8.341a5.997 5.997 0 0 0-2.39 4.462l-.54 9.551a6 6 0 0 1-5.991 5.662H82.688a6 6 0 0 1-5.99-5.662l-.54-9.551a6 6 0 0 0-2.391-4.462l-11.122-8.341a6 6 0 0 0-5.735-.808L38.983 148" stroke="#000" stroke-width="12" stroke-linecap="round" stroke-linejoin="round"/><circle cx="96" cy="96" r="28" stroke="#000" stroke-width="12" stroke-linecap="round" stroke-linejoin="round"/></svg>