<svg xmlns="http://www.w3.org/2000/svg" width="192" height="192" fill="none" stroke="#000" stroke-linecap="round" stroke-linejoin="round" stroke-width="12" viewBox="0 0 192 192"><path d="M167.51 121.54q-22.93 23.14-46.15 45.82a9.29 9.29 0 0 1-13.06-.08l-16-16"/><path d="M81 170H24.49v-3a43 43 0 0 1 10.66-25.77A79.83 79.83 0 0 1 85 116v-9.11a44 44 0 0 1-21.11-22.63h0a56.1 56.1 0 0 1-3.63-16.67C59.35 51.14 66 34.48 81.1 26.54c11.05-6.22 24.24-5.88 35.47 0 15.14 7.94 21.74 24.6 20.83 41.05a55.8 55.8 0 0 1-3.63 16.67 44 44 0 0 1-21.06 22.61V116a65 65 0 0 1 22.8 6.2"/></svg>