<svg width="192" height="192" viewBox="0 0 192 192" fill="none" xmlns="http://www.w3.org/2000/svg"><path d="M72 84V54L47 74 22 54v46a6 6 0 0 0 6 6h8m60-2V76m24 62 16-26-16-26h50l-16 26 16 26h-50Z" stroke="#000" stroke-width="12" stroke-linecap="round" stroke-linejoin="round"/><path d="M73 139H61a6 6 0 0 1-6-6v-12m0 0h18m-18 0v-11.999a6 6 0 0 1 6-6h8M69 121a9 9 0 1 0 0-18m4 36a9 9 0 1 0 0-18" stroke="#000" stroke-width="10" stroke-miterlimit="6" stroke-linecap="round" stroke-linejoin="round"/></svg>