<svg xmlns="http://www.w3.org/2000/svg" width="192" height="192" fill="none" stroke="#000" stroke-linecap="round" stroke-linejoin="round" stroke-width="12" viewBox="0 0 192 192"><path d="M120 23.1c-4-3-12.9.8-17.9 5.8-4.2 4-5.8 8.8-6.4 11.3-.6 4.8-1 10.2-.9 16.2.2 9.9 1.8 18.4 3.5 25.2l24.9-7.2c-2.8-14-2.8-25.3-2.1-33.3.6-9.4 2.2-15.5-1.1-18M54.3 50.3c-4-3-12.9.8-17.9 5.8-4.2 4-5.8 8.8-6.4 11.3-.7 4.6-1.1 10.1-.9 16.2.5 11.9 3.4 21.7 6.1 28.5 7.2-4.7 14.4-9.5 21.6-14.2-2-12.5-1.9-22.6-1.5-29.6.7-10 2.2-15.5-1-18m-7 119.7c-2-3.5-5.4-10.5-6-19.9-.1-1.6-.5-9.3 2.3-17.3 5.7-16.1 20.7-23.9 30.5-29C92.9 94 110.6 93.5 120 93.3c7.4-.1 13.5.5 17.7 1.1 8.4 13.6 16.7 27.2 25.1 40.8"/><path d="M114.8 119c1.9 4.2 3.7 8.4 5.6 12.6M70 138.4l6 11.7"/></svg>