<?xml version="1.0" encoding="utf-8"?>
	<svg version="1.1" xmlns="http://www.w3.org/2000/svg" xmlns:xlink="http://www.w3.org/1999/xlink" x="0px" y="0px" width="240.0" height="240.0" xml:space="preserve">
		<path d="M20.09,119.935C20.09,94.883 20.187,69.83 20,44.778C19.967,40.29 21.354,38.924 25.815,39.003C39.884,39.252 53.963,39.235 68.033,39.011C72.352,38.943 74.022,40.053 74.02,44.683C74.017,49.934 73.101,53.897 68.541,57.404C61.435,62.87 56.942,70.684 56.579,79.603C56.065,92.208 61.862,103.541 74.732,108.583C94.82,116.451 114.476,104.302 116.329,82.866C116.909,76.147 114.188,70.113 110.015,64.927C107.801,62.174 105.356,59.344 102.416,57.505C98.693,55.177 97.801,52.308 97.904,48.238C98.136,39.099 97.974,39.091 106.948,39.096C119.321,39.103 131.694,39.055 144.066,39.146C153.276,39.213 159.346,45.384 159.377,54.647C159.427,69.957 159.369,85.267 159.425,100.577C159.434,103.083 158.416,106.571 161.74,107.369C165.321,108.227 169.326,109.081 172.435,105.399C176.999,99.992 182.383,95.834 189.634,94.459C204.137,91.709 219.02,101.741 219.956,118.275C220.808,133.347 209.13,145.378 194.415,145.894C185.942,146.19 178.304,143.594 173.403,135.752C172.164,133.771 171.266,131.39 168.118,131.125C160.641,130.495 159.4,131.466 159.399,138.95C159.398,153.64 159.413,168.332 159.393,183.023C159.376,194.997 153.6,200.68 141.405,200.693C119.753,200.714 98.101,200.699 76.45,200.699C59.748,200.699 43.044,200.704 26.341,200.697C20.106,200.695 20.093,200.686 20.092,194.629C20.087,169.732 20.09,144.833 20.09,119.935" fill="#000" stroke="#00000000" stroke-width="1.0" stroke-miterlimit=""/>
	</svg>
