<svg xmlns="http://www.w3.org/2000/svg" width="192" height="192" fill="none"><circle cx="164" cy="94" r="6" stroke="#000" stroke-linecap="round" stroke-linejoin="round" stroke-width="12"/><circle cx="164" cy="148" r="6" stroke="#000" stroke-linecap="round" stroke-linejoin="round" stroke-width="12"/><path stroke="#000" stroke-linecap="round" stroke-linejoin="round" stroke-width="12" d="M94 156V42a6 6 0 0 1 6-6h24a6 6 0 0 1 6 6v108a6 6 0 0 1-6 6H28a6 6 0 0 1-6-6V42a6 6 0 0 1 6-6h24a6 6 0 0 1 6 6v114m0-84h36"/></svg>