<svg width="192" height="192" fill="none" xmlns="http://www.w3.org/2000/svg"><circle cx="164" cy="94" r="6" stroke="#000" stroke-width="12" stroke-linecap="round" stroke-linejoin="round"/><circle cx="164" cy="148" r="6" stroke="#000" stroke-width="12" stroke-linecap="round" stroke-linejoin="round"/><path d="M94 156V42a6 6 0 0 1 6-6h24a6 6 0 0 1 6 6v108a6 6 0 0 1-6 6H28a6 6 0 0 1-6-6V42a6 6 0 0 1 6-6h24a6 6 0 0 1 6 6v114m0-84h36" stroke="#000" stroke-width="12" stroke-linecap="round" stroke-linejoin="round"/></svg>