<svg xmlns="http://www.w3.org/2000/svg" width="192" height="192" fill="none"><path stroke="#000" stroke-linecap="round" stroke-linejoin="round" stroke-width="12" d="M22 68v61l74 36 74-36V65m-28-16v20m0-20-11.5 5.5M142 49l-11.5-5.5M50 49v14m0-14 8 3.826M50 49l11.5-5.5M96 71v8m0-8 16-7.652M96 71l-18.818-9M84.5 32.5 96 27l11.5 5.5"/><path stroke="#000" stroke-linecap="round" stroke-linejoin="round" stroke-width="12" d="M50 110v6l46 22 46-22v-6"/><path stroke="#000" stroke-linecap="round" stroke-linejoin="round" stroke-width="10" d="m42 87 .627-1.567c2.008-5.02 9.37-4.125 10.117 1.23l.067.482c.762 5.461 8.406 6.086 10.044.82 1.653-5.313 9.383-4.614 10.056.909l1.024 8.394c.419 3.434 4.671 4.798 7.01 2.248 2.174-2.373 6.113-1.385 6.911 1.732l1.83 7.142c1.993 7.784 12.91 8.157 15.43.528l5.186-15.698c1.75-5.298 9.015-5.874 11.578-.918 2.722 5.261 10.541 4.2 11.761-1.597l3.209-15.241c1.343-6.38 10.324-6.724 12.15-.464"/></svg>