<?xml version="1.0" encoding="UTF-8" standalone="no"?>
<!-- Created with Inkscape (http://www.inkscape.org/) -->

<svg
   width="192"
   height="192"
   viewBox="0 0 192 192"
   version="1.1"
   id="svg1"
   xmlns="http://www.w3.org/2000/svg"
   xmlns:svg="http://www.w3.org/2000/svg">
  <defs
     id="defs1" />
  <path
     style="font-size:16.1527px;-inkscape-font-specification:sans-serif;fill:none;stroke:#000000;stroke-width:3.1418;stroke-linecap:round;stroke-linejoin:round;stroke-dasharray:none"
     d="m -1134.116,183.26542 v 22.57757 a 1.9999999,1.9999999 52.86658 0 0 1.4577,1.92507 l 34.6675,9.76624 c 0.3183,0.0897 0.8446,0.2157 1.1731,0.18542 0.2687,-0.0248 0.5248,-0.0998 0.7677,-0.22794 0.4382,-0.37764 0.7214,-0.87372 0.7416,-1.57095 2e-4,-0.005 5e-4,-0.0134 7e-4,-0.0185 0.018,-0.46207 -0.1724,-0.67696 -0.4539,-0.95304 l -26.9481,-12.52793 a 2,2 57.466637 0 1 -1.1569,-1.8136 v -7.35518 a 2,2 135 0 1 2,-2 h 15.1025 a 2,2 45 0 1 2,2 v 7.34386 a 1.9999999,1.9999999 57.236595 0 0 1.1715,1.82031 l 5.4773,2.49305 a 2,2 147.2366 0 0 2.8285,-1.82031 v -19.82401 a 2,2 45.00003 0 0 -2,-2 l -34.8292,-4e-5 a 2,2 135.00003 0 0 -2,2 z"
     id="path19516"
     transform="matrix(3.8121554,0,0,3.8267719,4345.415,-667.4345)" />
</svg>
