<svg width="192" height="192" viewBox="0 0 192 192" fill="none" xmlns="http://www.w3.org/2000/svg"><circle cx="28" cy="64" r="6" stroke="#000" stroke-width="12" stroke-linecap="round" stroke-linejoin="round"/><path d="M62 96V38a6 6 0 0 1 6-6h31" stroke="#000" stroke-width="12" stroke-linecap="round" stroke-linejoin="round"/><path d="M99 32c14.042 0 27.77 3.754 39.445 10.786 11.676 7.032 20.777 17.028 26.15 28.722 5.374 11.695 6.78 24.563 4.041 36.978-2.74 12.415-9.502 23.818-19.431 32.769-9.93 8.95-22.581 15.046-36.354 17.515-13.772 2.47-28.048 1.202-41.022-3.642-12.973-4.844-24.062-13.047-31.863-23.572C32.164 121.032 28 108.658 28 96" stroke="#000" stroke-width="12" stroke-linecap="round" stroke-linejoin="round"/></svg>