<svg xmlns="http://www.w3.org/2000/svg" width="192" height="192" fill="none" viewBox="0 0 192 192"><path stroke="#000" stroke-linecap="round" stroke-linejoin="round" stroke-width="12" d="M56.553 56.55v68.55a6 6 0 0 0 1.731 4.216l35.456 35.901A6 6 0 0 0 98.01 167h39.449M54.545 25h38.957a6 6 0 0 1 4.24 1.756l35.946 35.92a6 6 0 0 1 1.759 4.244v66.041a6 6 0 0 0 1.757 4.242L167 167V96.008m-35.505-35.502L95.99 96.012 25 25v71.012M123.636 25H161a6 6 0 0 1 6 6v37.37zM25 123.627V161a6 6 0 0 0 6 6h37.368z"/></svg>