<?xml version="1.0" encoding="UTF-8" standalone="no"?>
<!-- Created with Inkscape (http://www.inkscape.org/) -->

<svg
   width="192"
   height="192"
   viewBox="0 0 192 192"
   version="1.1"
   id="svg1"
   xmlns="http://www.w3.org/2000/svg"
   xmlns:svg="http://www.w3.org/2000/svg">
  <defs
     id="defs1" />
  <path
     id="path19516"
     style="font-size:16.1527px;-inkscape-font-specification:sans-serif;fill:none;stroke:#000000;stroke-width:10;stroke-linecap:round;stroke-linejoin:round;stroke-dasharray:none"
     d="m 48.462421,26.026843 v 56.327116 a 4.8970766,4.9896529 0 0 0 3.569237,4.802711 l 84.884702,24.36509 c 0.77938,0.22377 2.06804,0.53813 2.87238,0.46258 0.65793,-0.0619 1.285,-0.24898 1.87974,-0.56867 1.07295,-0.94215 1.76638,-2.17977 1.81585,-3.91925 4.9e-4,-0.0125 0.001,-0.0334 0.002,-0.0462 0.0441,-1.15278 -0.42214,-1.68889 -1.1114,-2.37766 L 76.391397,73.817582 A 4.8970769,4.9896531 0 0 1 73.558684,69.292963 V 50.943076 a 4.8970769,4.9896531 0 0 1 4.897078,-4.989655 h 36.979048 a 4.8970769,4.9896531 0 0 1 4.89708,4.989655 v 18.321649 a 4.8970766,4.9896529 0 0 0 2.86846,4.541362 l 13.41139,6.21972 a 4.8970769,4.9896531 0 0 0 6.92568,-4.541356 V 26.027 a 4.8970769,4.9896531 0 0 0 -4.89707,-4.989654 l -85.280639,-1.05e-4 a 4.8970769,4.9896531 0 0 0 -4.897078,4.989661 z m 74.519129,107.325297 10.14241,26.62308 m 10.41362,-26.62308 -13.55754,34.39281 c -2.54526,3.39939 -5.98063,3.4758 -9.5653,2.99477 M 87.494171,136.07737 c 10.170948,-1.71079 17.644039,-0.6958 17.740879,11.02289 l 0.0416,16.22809 m -0.0251,-9.78663 c 0.005,1.92324 -6.888513,10.09205 -12.157783,10.09205 -5.269277,0 -7.41389,-4.40792 -7.41389,-8.61447 0,-4.20656 4.130225,-7.15002 9.397948,-7.28463 H 105.23667 Z M 75.320588,130.47921 c 0,7.28301 -6.100016,11.61921 -13.559073,11.61921 H 48.539156 c 0,-3.9556 0.06946,-22.26089 0.06946,-22.26089 l 13.152857,0.0369 c 7.459019,0.0209 13.55906,3.32193 13.55906,10.60492 z m -26.858167,33.15456 0.146198,-43.79624" />
</svg>
