<svg width="192" height="192" viewBox="0 0 192 192" fill="none" xmlns="http://www.w3.org/2000/svg"><path d="M37 56c0-28 3-34 59-34s59 6 59 34v94s-11 6-59 6-59-6-59-6V56Z" stroke="#000" stroke-width="12" stroke-linecap="round" stroke-linejoin="round"/><path d="M155 90s-11 6-59 6-59-6-59-6m0 58v22m118-22v22" stroke="#000" stroke-width="12" stroke-linecap="round" stroke-linejoin="round"/><path d="m171 74-1.574-20.46a6 6 0 0 0-5.982-5.54H155M21 74l1.574-20.46A6 6 0 0 1 28.556 48H37" stroke="#000" stroke-width="10" stroke-linecap="round" stroke-linejoin="round"/><circle cx="62" cy="122" r="4" stroke="#000" stroke-width="8" stroke-linecap="round" stroke-linejoin="round"/><circle cx="130" cy="122" r="4" stroke="#000" stroke-width="8" stroke-linecap="round" stroke-linejoin="round"/></svg>