<svg xmlns="http://www.w3.org/2000/svg" width="192" height="192" viewBox="0 0 50.8 50.8"><path fill="none" stroke="#000" stroke-linecap="round" stroke-width="2.117" d="M28.584 11.106s1.061.943 1.066 3.163c.004 2.22-1.066 3.207-1.066 3.207m4.974-8.182s1.381 2.159 1.384 4.981c.002 2.823-1.384 5.012-1.384 5.012M38.3 7.256s1.933 2.932 1.933 7.02c0 4.09-1.932 7.049-1.932 7.049m4.754-16.033s2.47 3.764 2.47 8.999c0 5.235-2.47 9.014-2.47 9.014"/><path fill-rule="evenodd" d="M9.717 27.452c-.448 0-.84.049-1.236.22a3.47 3.47 0 0 0-1.06.704c-.295.291-.496.661-.662 1.057a2.991 2.991 0 0 0-.265 1.232v7.134h13.983c.549 0 .995.445.995.992a.994.994 0 0 1-.995.991H6.846a.355.355 0 0 0-.344.268.348.348 0 0 0-.01.08v.929c0 .449.096.883.264 1.277.169.393.372.719.662 1.012a3.42 3.42 0 0 0 1.061.705c.395.17.788.264 1.236.264h13.078a3.04 3.04 0 0 0 1.237-.264 3.43 3.43 0 0 0 1.06-.705 3.23 3.23 0 0 0 .707-1.012c.17-.394.22-.828.22-1.277v-7.134H12.012a.97.97 0 0 1-.971-.968.97.97 0 0 1 .971-.969h14.005v-1.321c0-.332-.026-.636-.11-.93a2.346 2.346 0 0 0-.11-.302l.002-.002a3.37 3.37 0 0 0-.706-1.057 3.376 3.376 0 0 0-1.061-.705c-.395-.17-.788-.219-1.236-.219zM4.233 40.126v.933c0 .769.165 1.503.447 2.16a5.385 5.385 0 0 0 1.13 1.709l.017.018A5.67 5.67 0 0 0 7.59 46.12c.64.275 1.334.446 2.125.446h13.078c.792 0 1.487-.171 2.127-.446a5.687 5.687 0 0 0 1.762-1.175l.005-.006a5.477 5.477 0 0 0 1.183-1.711c.345-.796.405-1.58.405-2.17V30.667c0-.566-.054-1.26-.352-1.999a2.269 2.269 0 0 0-.045-.115 5.617 5.617 0 0 0-1.189-1.77 5.627 5.627 0 0 0-1.77-1.181c-.777-.334-1.505-.4-2.123-.4h-1.91a5.326 5.326 0 0 0 .443-.812l.003-.008.005-.01a5.5 5.5 0 0 0 .446-2.16c0-.805-.183-1.495-.442-2.107a14.086 14.086 0 0 0-.01-.023 5.742 5.742 0 0 0-1.175-1.746 5.307 5.307 0 0 0-1.732-1.144 5.502 5.502 0 0 0-2.167-.444c-.765 0-1.5.158-2.17.446a5.43 5.43 0 0 0-1.701 1.114l-.011.01-.012.013a5.715 5.715 0 0 0-1.181 1.751l-.006.014a5.28 5.28 0 0 0-.446 2.115c0 .773.169 1.506.442 2.151l.012.028a5.316 5.316 0 0 0 .444.811h-1.91c-.62 0-1.35.068-2.128.402a5.728 5.728 0 0 0-1.755 1.17l-.006.005c-.596.59-.935 1.268-1.148 1.772a5.239 5.239 0 0 0-.445 2.115v.218h-.002v9.243zm13.304-20.864a3.237 3.237 0 0 0-1.28-.263 3.23 3.23 0 0 0-1.282.263 3.18 3.18 0 0 0-1.016.66 3.467 3.467 0 0 0-.706 1.057 3.039 3.039 0 0 0-.265 1.232c0 .447.098.883.265 1.277.17.39.414.721.706 1.013a3.935 3.935 0 0 0 .47.398 3.015 3.015 0 0 0 .533.302l.014.006a3.29 3.29 0 0 0 1.28.264 3.32 3.32 0 0 0 1.281-.264l.014-.006a3.159 3.159 0 0 0 .535-.302 3.332 3.332 0 0 0 .468-.398c.292-.292.536-.623.706-1.013a3.253 3.253 0 0 0 .265-1.276c0-.447-.098-.839-.265-1.232a3.488 3.488 0 0 0-.706-1.058 3.056 3.056 0 0 0-1.017-.66z"/></svg>