<?xml version="1.0" encoding="UTF-8" standalone="no"?>
<!-- Created with Inkscape (http://www.inkscape.org/) -->

<svg
   width="192"
   height="192"
   viewBox="0 0 192 192"
   version="1.1"
   id="svg1"
   xmlns="http://www.w3.org/2000/svg"
   xmlns:svg="http://www.w3.org/2000/svg">
  <defs
     id="defs1" />
  <g
     id="g9"
     transform="matrix(0.96917809,0,0,0.97026284,2.9595569,0.63327492)"
     style="stroke-width:10.3123;stroke-dasharray:none">
    <g
       id="g8"
       style="fill:none;fill-opacity:1;stroke:#000000;stroke-width:10.1715;stroke-linecap:round;stroke-linejoin:round;stroke-dasharray:none;stroke-opacity:1"
       transform="matrix(1.0140752,0,0,1.0135978,-1.3512187,-2.318921)">
      <path
         style="font-size:16.1527px;-inkscape-font-specification:sans-serif;fill:none;fill-opacity:1;stroke:#000000;stroke-width:10.1715;stroke-linecap:round;stroke-linejoin:round;stroke-dasharray:none;stroke-opacity:1"
         d="m 48.437979,163.6673 0.146273,-43.81798"
         id="path6" />
      <path
         style="font-size:16.1527px;-inkscape-font-specification:sans-serif;fill:none;fill-opacity:1;stroke:#000000;stroke-width:10.1715;stroke-linecap:round;stroke-linejoin:round;stroke-dasharray:none;stroke-opacity:1"
         d="M 58.650455,142.12126 H 48.514753 c 0,-3.95756 0.0695,-22.27194 0.0695,-22.27194 l 10.066163,0.0369 c 7.462854,0.0209 13.566033,3.32358 13.566033,10.61018 0,7.28661 -6.103103,11.62484 -13.565994,11.62484 z"
         id="path5" />
    </g>
    <g
       id="g7"
       style="fill:none;fill-opacity:1;stroke:#000000;stroke-width:11.6375;stroke-linecap:round;stroke-linejoin:round;stroke-dasharray:none;stroke-opacity:1"
       transform="matrix(0.90484001,0,0,0.86778037,11.517867,21.111398)">
      <path
         style="font-size:16.1527px;-inkscape-font-specification:sans-serif;fill:none;fill-opacity:1;stroke:#000000;stroke-width:11.6375;stroke-linecap:round;stroke-linejoin:round;stroke-dasharray:none;stroke-opacity:1"
         d="m 104.5853,156.82805 c 0.005,1.9242 -5.716585,7.48621 -10.988564,7.48621 -5.271986,0 -9.408971,-4.71136 -9.408971,-8.91999 0,-4.20865 4.13854,-9.05552 9.408971,-9.1902 l 10.979874,2.3e-4 z"
         id="path4" />
      <path
         style="font-size:16.1527px;-inkscape-font-specification:sans-serif;fill:none;fill-opacity:1;stroke:#000000;stroke-width:11.6375;stroke-linecap:round;stroke-linejoin:round;stroke-dasharray:none;stroke-opacity:1"
         d="m 86.530974,132.6139 c 10.176178,-1.71163 18.079426,-5.31362 18.037826,11.02837 l 0.0416,20.06517"
         id="path3" />
    </g>
    <g
       id="g6"
       style="fill:none;fill-opacity:1;stroke:#000000;stroke-width:9.34259;stroke-linecap:round;stroke-linejoin:round;stroke-dasharray:none;stroke-opacity:1"
       transform="matrix(1.10113,0,0,1.1064573,-13.851297,-13.630615)">
      <path
         style="font-size:16.1527px;-inkscape-font-specification:sans-serif;fill:none;fill-opacity:1;stroke:#000000;stroke-width:9.34259;stroke-linecap:round;stroke-linejoin:round;stroke-dasharray:none;stroke-opacity:1"
         d="m 143.56202,133.37064 -13.56451,34.40988 c -2.54657,3.40108 -5.98371,3.47753 -9.57022,2.99626"
         id="path2" />
      <path
         style="font-size:16.1527px;-inkscape-font-specification:sans-serif;fill:none;fill-opacity:1;stroke:#000000;stroke-width:9.34259;stroke-linecap:round;stroke-linejoin:round;stroke-dasharray:none;stroke-opacity:1"
         d="m 122.99542,133.37064 10.14762,26.63629"
         id="path1" />
    </g>
    <path
       style="font-size:16.1527px;-inkscape-font-specification:sans-serif;fill:none;fill-opacity:1;stroke:#000000;stroke-width:10.3123;stroke-linecap:round;stroke-linejoin:round;stroke-dasharray:none;stroke-opacity:1"
       d="m 47.768535,26.053785 v 57.121377 a 4.9685575,5.0600113 0 0 0 3.621335,4.870432 l 86.12372,24.708666 c 0.79077,0.22692 2.09824,0.54571 2.91431,0.4691 0.66754,-0.0627 1.30376,-0.25249 1.90718,-0.57669 1.08861,-0.95543 1.79217,-2.21051 1.84236,-3.97451 4.9e-4,-0.0127 0.001,-0.0339 0.002,-0.0468 0.0447,-1.16904 -0.42829,-1.71271 -1.12762,-2.41119 L 76.10518,74.518414 a 4.9685578,5.0600115 0 0 1 -2.874062,-4.58842 V 51.321358 a 4.9685578,5.0600115 0 0 1 4.968559,-5.060013 h 37.518813 a 4.9685578,5.0600115 0 0 1 4.96856,5.060013 v 18.579999 a 4.9685575,5.0600113 0 0 0 2.91033,4.6054 l 13.60715,6.307423 a 4.9685578,5.0600115 0 0 0 7.02677,-4.605393 V 26.053944 a 4.9685578,5.0600115 0 0 0 -4.96855,-5.060012 l -86.525442,-1.07e-4 a 4.9685578,5.0600115 0 0 0 -4.968558,5.060019 z"
       id="path19516" />
  </g>
</svg>
