<svg width="192" height="192" viewBox="0 0 192 192" fill="none" xmlns="http://www.w3.org/2000/svg"><path d="M118.5 68.6v90.23c0 4.673 0 7.01.982 8.508a6.004 6.004 0 0 0 3.726 2.57c1.749.386 3.933-.444 8.301-2.104l18.3-6.952c2.233-.848 3.349-1.272 4.172-2.001a6.007 6.007 0 0 0 1.629-2.363c.39-1.028.39-2.222.39-4.61V60.26c0-2.435 0-3.652-.402-4.694a5.998 5.998 0 0 0-1.678-2.384c-.846-.73-1.992-1.14-4.284-1.96L106 35.6m12.5 33L72 51.826M118.5 68.6V135L72 118V51.826m0 0L106 35.6M72 51.826v97.104c0 5.013 0 7.52-1.055 9.055a6 6 0 0 1-3.953 2.519c-1.837.308-4.106-.749-8.645-2.862l-15.8-7.359c-2.01-.936-3.015-1.404-3.751-2.127a5.99 5.99 0 0 1-1.452-2.277c-.344-.972-.344-2.081-.344-4.298V45.063c0-2.13 0-3.195.322-4.137a6 6 0 0 1 1.36-2.228c.692-.717 1.639-1.203 3.533-2.176L70.5 22 106 35.6" stroke="#000" stroke-width="12" stroke-miterlimit="16" stroke-linecap="round" stroke-linejoin="round"/></svg>
