<svg width="192" height="192" viewBox="0 0 192 192" fill="none" xmlns="http://www.w3.org/2000/svg"><path d="M37 42.715v99.718c0 2.604 0 3.906.448 4.999a6.006 6.006 0 0 0 1.856 2.453c.93.727 2.184 1.081 4.69 1.787l8.46 2.386c4.145 1.169 6.218 1.753 7.857 1.284a6.001 6.001 0 0 0 3.452-2.613c.896-1.45.896-3.604.896-7.911V52.056c0-2.175 0-3.263.334-4.22a6 6 0 0 1 1.408-2.255c.715-.72 1.692-1.197 3.647-2.152l26.774-13.071L70.449 21 42.542 34.015h0c-2.008.937-3.012 1.405-3.748 2.128a6 6 0 0 0-1.45 2.276C37 39.391 37 40.5 37 42.715Z" stroke="#000" stroke-width="8" stroke-miterlimit="16" stroke-linecap="round" stroke-linejoin="round"/><path d="M156 156.42V57.748c0-2.464 0-3.697-.41-4.748a5.999 5.999 0 0 0-1.709-2.396c-.861-.73-2.026-1.131-4.356-1.933L112.581 35.95l-31.197 15.6 37 11.547c2.421.755 3.631 1.133 4.527 1.862a6.003 6.003 0 0 1 1.784 2.426c.429 1.072.429 2.34.429 4.876v89.265c0 4.895 0 7.343 1.031 8.866a6 6 0 0 0 3.879 2.538c1.809.334 4.052-.647 8.537-2.608l11.675-5.106c2.082-.91 3.123-1.365 3.887-2.091a5.997 5.997 0 0 0 1.508-2.306c.359-.99.359-2.127.359-4.399Z" stroke="#000" stroke-width="8" stroke-miterlimit="16" stroke-linecap="round" stroke-linejoin="round"/><path d="M78.81 129.835v-57.93l31.52 9.797V139.3l-31.52-9.465Z" stroke="#000" stroke-width="8" stroke-miterlimit="16" stroke-linecap="round" stroke-linejoin="round"/></svg>
