<svg width="192" height="192" viewBox="0 0 192 192" fill="none" xmlns="http://www.w3.org/2000/svg"><path d="M118.5 68.6v89.412c0 4.546 0 6.82.953 8.302a5.999 5.999 0 0 0 3.634 2.587c1.713.415 3.861-.33 8.157-1.819l18.3-6.344c2.324-.805 3.485-1.208 4.343-1.938a5.997 5.997 0 0 0 1.705-2.394c.408-1.05.408-2.279.408-4.738V60.26c0-2.435 0-3.652-.402-4.694a5.998 5.998 0 0 0-1.678-2.384c-.846-.73-1.992-1.14-4.284-1.96L106 35.6m12.5 33L72 51.826M118.5 68.6V135L72 118V51.826m0 0L106 35.6M72 51.826v97.104c0 5.013 0 7.52-1.055 9.055a6 6 0 0 1-3.953 2.519c-1.837.308-4.106-.749-8.645-2.862l-15.8-7.359c-2.01-.936-3.015-1.404-3.751-2.127a5.99 5.99 0 0 1-1.452-2.277c-.344-.972-.344-2.081-.344-4.298v-96.36c0-2.184 0-3.276.336-4.237a6.001 6.001 0 0 1 1.416-2.259c.72-.72 1.703-1.196 3.669-2.146L70.5 23 106 35.6" stroke="#000" stroke-width="14" stroke-miterlimit="16" stroke-linecap="round" stroke-linejoin="round"/></svg>
