<svg width="192" height="192" viewBox="0 0 192 192" fill="none" xmlns="http://www.w3.org/2000/svg"><ellipse cx="96.157" cy="88.742" rx="3" ry="1" transform="rotate(15 96.157 88.742)" stroke="#000" stroke-width="6" stroke-linecap="round" stroke-linejoin="round"/><path d="M32 28a6 6 0 0 1 6-6h116a6 6 0 0 1 6 6v126a6 6 0 0 1-6 6h-34c-16 0-24 10-24 10s-8-10-24-10H38a6 6 0 0 1-6-6V28Z" stroke="#000" stroke-width="12" stroke-linecap="round" stroke-linejoin="round"/><path d="M76 72c11-4.5 32 6 43 0m-69 44.753c14.5 7 22-17.753 49-6" stroke="#000" stroke-width="8" stroke-linecap="round" stroke-linejoin="round"/><path d="m94.5 87.5 8.5-.5" stroke="#000" stroke-width="6" stroke-linecap="round" stroke-linejoin="round"/><path d="M127 160s8-34.5 8-44-6-10-7-16 9-16 9-16-9 6-14 4-5-6-5-8 11-36 11-36l-20 8-12-12-12 12-20-8 12 36s-26 2-20 24c22-24 56 15 56 15-24-7-38.5 5.5-38.5 5.5S100 125 100 139s-34 21-34 21" stroke="#000" stroke-width="8" stroke-linecap="round" stroke-linejoin="round"/></svg>