<svg width="192" height="192" fill="none" xmlns="http://www.w3.org/2000/svg"><ellipse cx="98.156" cy="88.742" rx="3" ry="1" transform="rotate(15 98.156 88.742)" stroke="#000" stroke-width="6" stroke-linecap="round" stroke-linejoin="round"/><path d="M32 27a6 6 0 0 1 6-6h116a6 6 0 0 1 6 6v128a6 6 0 0 1-6 6h-34c-16 0-24 10-24 10s-8-10-24-10H38a6 6 0 0 1-6-6V27Z" stroke="#000" stroke-width="10" stroke-linecap="round" stroke-linejoin="round"/><path d="M77 70c11-4.5 32 6 43 0m-69 53.753c14.5 7 20-19.753 51-6" stroke="#000" stroke-width="8" stroke-linecap="round" stroke-linejoin="round"/><path d="m96.5 87.5 8.5-.5" stroke="#000" stroke-width="6" stroke-linecap="round" stroke-linejoin="round"/><path d="M128 161s8-37.5 8-47-6-10-7-16 9-16 9-16-9 6-14 4-5-6-5-8 11-34 11-34l-20 8-12-12-12 12-20-8 12 36s-24 5-20 27c22-24 56 16 56 16-23-3-41.5 14.5-41.5 14.5S101 131 101 142s-34 19-34 19" stroke="#000" stroke-width="8" stroke-linecap="round" stroke-linejoin="round"/></svg>