<svg width="192" height="192" viewBox="0 0 192 192" fill="none" xmlns="http://www.w3.org/2000/svg">
<path d="M31 110C31 102.103 32.2043 94.1237 33.6495 87.391C35.9302 76.7657 45.9165 70 56.7838 70V70H59.43C69.0381 70 77.9617 75.3046 80.8229 84.4767C83.0183 91.5146 85 100.499 85 110C85 119.501 83.0183 128.485 80.8229 135.523C77.9617 144.695 69.0381 150 59.43 150H56.6036C45.7363 150 35.9302 143.234 33.6495 132.609C32.2043 125.876 31 117.897 31 110ZM31 110H68.4595" stroke="black" stroke-width="12" stroke-linecap="round" stroke-linejoin="round"/>
<path d="M25 42L167 42" stroke="black" stroke-width="12" stroke-linecap="round" stroke-linejoin="round"/>
<path d="M63.3928 25.2808L72.1611 58.9426" stroke="black" stroke-width="12" stroke-linecap="round" stroke-linejoin="round"/>
<path d="M130.143 25L120.325 59.2394" stroke="black" stroke-width="12" stroke-linecap="round" stroke-linejoin="round"/>
<path d="M105.561 70.1598C105.561 70.1598 149.459 67.674 152.782 85.0747C156.106 102.475 152.154 151.464 146.635 167M96.8693 167C95.3071 164.965 95.9694 148.852 97.9086 129.667M105.561 69C104.002 78.8519 103.518 83 101.422 100.63M101.422 100.63H138.32M101.422 100.63C100.189 111 98.8521 120.333 97.9086 129.667M97.9086 129.667H138.32" stroke="black" stroke-width="12" stroke-linecap="round" stroke-linejoin="round"/>
</svg>
