<svg width="192" height="192" fill="none" xmlns="http://www.w3.org/2000/svg"><circle cx="96" cy="164" r="4" stroke="#000" stroke-width="8" stroke-linecap="round" stroke-linejoin="round"/><path d="M92 94h8l-4 6-4-6Zm-19 77v-14l18 7-9 3.5-9 3.5Zm46 0v-14l-18 7 18 7Z" stroke="#000" stroke-width="10" stroke-linecap="round" stroke-linejoin="round"/><path d="M59 40v65m74-65v65m17-53S100 76 42 71m54-33v8" stroke="#000" stroke-width="12" stroke-linecap="round" stroke-linejoin="round"/><path d="M96 106v-6" stroke="#000" stroke-width="10" stroke-linecap="round" stroke-linejoin="round"/><path d="M133 105a37 37 0 1 1-74 0m37-64.5a18.498 18.498 0 0 1 31.581-13.081A18.498 18.498 0 0 1 133 40.5" stroke="#000" stroke-width="12" stroke-linecap="round" stroke-linejoin="round"/><path d="M59 40.5a18.5 18.5 0 1 1 37 0" stroke="#000" stroke-width="12" stroke-linecap="round" stroke-linejoin="round"/><path d="M78 106a9 9 0 0 0 18 0m0 0a9 9 0 0 0 18 0" stroke="#000" stroke-width="10" stroke-linecap="round" stroke-linejoin="round"/></svg>