<svg width="192" height="192" viewBox="0 0 192 192" fill="none" xmlns="http://www.w3.org/2000/svg"><circle cx="96" cy="160" r="4" stroke="#000" stroke-width="8" stroke-linecap="round" stroke-linejoin="round"/><path d="M92 91h8l-4 6-4-6Zm-24 81v-24l21 12-21 12Zm56 0v-24l-21 12 21 12Z" stroke="#000" stroke-width="8" stroke-linecap="round" stroke-linejoin="round"/><path d="M64 38v67m64-67v67" stroke="#000" stroke-width="12" stroke-linecap="round" stroke-linejoin="round"/><path d="M150 55S100 79 42 74" stroke="#000" stroke-width="10" stroke-linecap="round" stroke-linejoin="round"/><path d="M96 38v12" stroke="#000" stroke-width="12" stroke-linecap="round" stroke-linejoin="round"/><path d="M96 105v-8" stroke="#000" stroke-width="8" stroke-linecap="round" stroke-linejoin="round"/><path d="M128 105a31.996 31.996 0 0 1-9.373 22.627 31.996 31.996 0 0 1-45.254 0A31.998 31.998 0 0 1 64 105m32-67a16 16 0 0 1 32 0m-64 0a16.001 16.001 0 0 1 32 0" stroke="#000" stroke-width="12" stroke-linecap="round" stroke-linejoin="round"/><path d="M82 105a7 7 0 1 0 14 0m0 0a7 7 0 1 0 14 0" stroke="#000" stroke-width="8" stroke-linecap="round" stroke-linejoin="round"/></svg>