<svg width="192" height="192" fill="none" xmlns="http://www.w3.org/2000/svg"><path d="M86 86V50L70 68 54 50v36m32 20v18s0 18-16 18-16-18-16-18m84-44V56a6 6 0 0 0-6-6h-20a6 6 0 0 0-6 6v24a6 6 0 0 0 6 6h20a6 6 0 0 0 6-6Zm0 56v-24a6 6 0 0 0-6-6h-20a6 6 0 0 0-6 6v24a6 6 0 0 0 6 6h20a6 6 0 0 0 6-6Zm20-66.284c6.723 1.025 10.97 3.154 11.837 6.405 1.333 4.999-5.572 11.713-17.837 18.55M34 122.285c-6.723-1.025-10.97-3.154-11.837-6.405-1.256-4.713 4.809-10.951 15.785-17.379" stroke="#000" stroke-width="12" stroke-linecap="round" stroke-linejoin="round"/></svg>