<svg xmlns="http://www.w3.org/2000/svg" width="192" height="192" fill="none"><path stroke="#000" stroke-linecap="round" stroke-linejoin="round" stroke-width="12" d="M86 86V50L70 68 54 50v36m32 20v18s0 18-16 18-16-18-16-18m84-44V56a6 6 0 0 0-6-6h-20a6 6 0 0 0-6 6v24a6 6 0 0 0 6 6h20a6 6 0 0 0 6-6m0 26h-26a6 6 0 0 0-6 6v24a6 6 0 0 0 6 6h10m36-72.284c6.723 1.025 10.97 3.154 11.837 6.405 1.333 4.999-5.572 11.713-17.837 18.55M34 122.285c-6.723-1.025-10.97-3.154-11.837-6.405-1.256-4.713 4.809-10.951 15.785-17.379"/><path stroke="#000" stroke-linecap="round" stroke-linejoin="round" stroke-miterlimit="6" stroke-width="10" d="M153 160a18 18 0 1 0 0-36m0 35.999h-6a6 6 0 0 1-6-6V130a6 6 0 0 1 6-6h6"/></svg>