<svg width="191" height="192" fill="none" xmlns="http://www.w3.org/2000/svg"><path d="M85.98 59.713C91.84 42.987 107.698 31 126.34 31c23.624 0 42.776 19.252 42.776 43 0 13.078-5.808 24.792-14.973 32.679M85.981 59.713A42.41 42.41 0 0 0 64.66 54c-23.624 0-42.776 19.252-42.776 43 0 22.44 17.1 40.865 38.915 42.827m25.18-80.114L60.8 139.827m25.18-80.114 68.162 46.966m-93.341 33.148C70.219 152.669 85.374 161 102.463 161c28.569 0 51.729-23.281 51.729-52 0-.778-.017-1.552-.051-2.321" stroke="#000" stroke-width="12" stroke-linecap="round" stroke-linejoin="round"/></svg>