<svg xmlns="http://www.w3.org/2000/svg" width="192" height="192" fill="none" stroke="#000" stroke-linecap="round" stroke-linejoin="round" viewBox="0 0 50.8 50.8"><path stroke-width="3.175" d="M32.427 37.895c-4.308.026-8.449-2.262-10.727-5.925a8.804 8.804 0 0 1-6.83 2.97c-4.904-.146-9.05-4.372-9.05-9.29-.001-4.914 4.127-9.149 9.031-9.288a8.805 8.805 0 0 1 6.665 2.793c2.228-3.838 6.478-6.27 10.911-6.237 6.696.045 12.552 5.739 12.552 12.489 0 6.745-5.859 12.443-12.552 12.488"/><path stroke-width="1.587" d="m37.825 23.393 3.04 4.027m-3.04 0 3.04-4.027m-4.95 2.013A2.013 2.013 0 0 1 33.9 27.42a2.013 2.013 0 0 1-2.013-2.014 2.013 2.013 0 0 1 2.013-2.013 2.013 2.013 0 0 1 2.013 2.013zm-14.09 0a2.013 2.013 0 0 1-2.014 2.014 2.013 2.013 0 0 1-2.013-2.014 2.013 2.013 0 0 1 2.013-2.013 2.013 2.013 0 0 1 2.013 2.013zm5.03-.453a1.56 1.56 0 0 1 1.561-1.56 1.56 1.56 0 0 1 1.56 1.56m-6.24 0a1.56 1.56 0 0 1 1.56-1.56 1.56 1.56 0 0 1 1.56 1.56m-3.12 2.467v-2.467m3.12 2.467v-2.467m3.119 2.467v-2.467m-17.21 0a1.56 1.56 0 0 1 1.561-1.56 1.56 1.56 0 0 1 1.56 1.56m-6.24 0a1.56 1.56 0 0 1 1.56-1.56 1.56 1.56 0 0 1 1.56 1.56m-3.12 2.467v-2.467m3.12 2.467v-2.467m3.119 2.467v-2.467"/></svg>