<svg xmlns="http://www.w3.org/2000/svg" width="192" height="192" viewBox="0 0 192 192"><path fill="none" stroke="#000" stroke-linecap="round" stroke-linejoin="round" stroke-miterlimit="6" stroke-width="14" d="M169.002 56.555V134m-26.079-77.445V135m-54.676-24.447H129.8c-.123-6.352-3.07-12.599-7.897-16.732-4.825-4.133-11.45-6.085-17.747-5.23-5.288.719-10.289 3.381-13.837 7.367-3.55 3.985-5.616 9.26-5.719 14.595-.002 6.305 2.438 12.58 6.699 17.226 4.261 4.647 10.301 7.62 16.583 8.162a25.65 25.65 0 0 0 14.399-3.023M22.998 56.051v77.875l23.462-.504c3.082-.066 6.184-.166 9.197-.824s5.922-1.876 8.383-3.734a18.7 18.7 0 0 0 5.725-7.142c1.276-2.807 1.842-5.921 1.735-9.003a21.93 21.93 0 0 0-17.69-20.602l-27.489-.201h14.701c5.004-.05 9.966-1.993 13.673-5.353s6.127-8.108 6.667-13.083c.269-2.475.078-5.016-.714-7.376-.793-2.36-2.198-4.518-4.072-6.157s-4.192-2.733-6.617-3.296-4.937-.6-7.426-.6z"/></svg>