<svg width="192" height="192" viewBox="0 0 192 192" fill="none" xmlns="http://www.w3.org/2000/svg"><path d="M27.6331 168.468L66.6261 118.205C68.5359 115.743 72.0123 115.153 74.6277 116.846L97.9851 131.969C111.753 143.247 107.401 162.784 83.0621 169.001M46.8201 96.5349C40.6021 80.1949 59.9661 59.0579 75.0671 69.6259L135.826 111.454C148.706 120.69 171.179 103.018 162.474 83.7469" stroke="black" stroke-width="14" stroke-miterlimit="6" stroke-linecap="round" stroke-linejoin="round"/><path d="M127.721 58.5319C137.535 58.5319 145.491 50.576 145.491 40.7619C145.491 30.9478 137.535 22.9919 127.721 22.9919C117.907 22.9919 109.951 30.9478 109.951 40.7619C109.951 50.576 117.907 58.5319 127.721 58.5319Z" stroke="black" stroke-width="14" stroke-miterlimit="6" stroke-linecap="round" stroke-linejoin="round"/></svg>
