<svg xmlns="http://www.w3.org/2000/svg" width="192" height="192" fill="none" viewBox="0 0 192 192"><path stroke="#000" stroke-linecap="round" stroke-linejoin="round" stroke-width="10" d="m55.14 58-32 56m92-56-32 56m-.28-40-32 56m92-56-32 56m-60.004 0a16 16 0 0 1-29.311-3.859A16 16 0 0 1 23.144 114m87.712 16a16 16 0 0 1-9.715 7.455A16 16 0 0 1 83.144 114m-.288-40a16 16 0 0 0-27.712-16m87.712 16a16 16 0 1 0-27.712-16"/><circle cx="155" cy="122" r="16" stroke="#000" stroke-linecap="round" stroke-linejoin="round" stroke-width="10"/></svg>