<svg width="192" height="192" viewBox="0 0 192 192" fill="none" xmlns="http://www.w3.org/2000/svg"><path d="m55.14 58-32 56m92-56-32 56m-.28-40-32 56m92-56-32 56m-60.004 0A15.997 15.997 0 0 1 29 135.856a15.99 15.99 0 0 1-7.455-9.715A15.996 15.996 0 0 1 23.144 114m87.712 16a15.986 15.986 0 0 1-9.715 7.455A16 16 0 0 1 83.144 114m-.288-40a16 16 0 0 0-27.712-16m87.712 16a16 16 0 1 0-27.712-16" stroke="#000" stroke-width="10" stroke-linecap="round" stroke-linejoin="round"/><circle cx="155" cy="122" r="16" stroke="#000" stroke-width="10" stroke-linecap="round" stroke-linejoin="round"/></svg>