<svg width="192" height="192" viewBox="0 0 192 192" fill="none" xmlns="http://www.w3.org/2000/svg"><path d="M81 150c2.079 7.01 7.636 11 15 11s12.921-3.99 15-11l22-75 9.918 73.286C144 156 149.5 161 156.5 161c6.5 0 13.5-5 13.5-13.981C170 140 153.5 44 153.5 44c-1-4-6.09-14-18-14-12.91 0-17.5 12-17.5 12l-22 73-22-73s-4.59-12-17.5-12c-11.91 0-17 10-18 14 0 0-16.5 96-16.5 103.019C22 156 29 161 35.5 161c7 0 12.5-5 13.582-12.714L59 75l22 75Z" stroke="#000" stroke-width="12" stroke-linecap="round" stroke-linejoin="round"/></svg>