<svg width="192" height="192" viewBox="0 0 192 192" fill="none" xmlns="http://www.w3.org/2000/svg"><path d="M31 61.08a5.993 5.993 0 0 1 3.063-5.227l59-33.086a6.005 6.005 0 0 1 5.874 0l59 33.086A5.993 5.993 0 0 1 161 61.08v68.002a5.995 5.995 0 0 1-2.941 5.157l-59 34.924a6.007 6.007 0 0 1-6.117 0l-59-34.924A5.994 5.994 0 0 1 31 129.082V61.08Z" stroke="#000" stroke-width="12" stroke-linecap="round" stroke-linejoin="round"/><path d="M32 123h22a6 6 0 0 0 6-6V69m0 0 36 40m64 14h-22a6 6 0 0 1-6-6V69m0 0-36 40" stroke="#000" stroke-width="12" stroke-linecap="round" stroke-linejoin="round"/></svg>