<svg width="192" height="192" viewBox="0 0 192 192" fill="none" xmlns="http://www.w3.org/2000/svg"><path d="M22 146V46a6 6 0 0 1 6-6h136a6 6 0 0 1 6 6v100a6 6 0 0 1-6 6H28a6 6 0 0 1-6-6Z" stroke="#000" stroke-width="12" stroke-linecap="round" stroke-linejoin="round"/><path d="M170 76h-50a6 6 0 0 0-6 6v28a6 6 0 0 0 6 6h50" stroke="#000" stroke-width="10" stroke-linecap="round" stroke-linejoin="round"/><circle cx="134" cy="96" r="3" stroke="#000" stroke-width="6" stroke-linecap="round" stroke-linejoin="round"/><path d="M82 81a14 14 0 1 0-21.778 11.64C62.524 94.18 68 96 68 96m-14 15a14 14 0 1 0 21.778-11.64C73.476 97.82 68 96 68 96m0-38v9m0 67v-9" stroke="#000" stroke-width="8" stroke-linecap="round" stroke-linejoin="round"/></svg>