<svg xmlns="http://www.w3.org/2000/svg" width="192" height="192" fill="none" stroke="#000" stroke-linecap="round" viewBox="0 0 192 192"><path stroke-width="12" d="M22 146V46a6 6 0 0 1 6-6h136a6 6 0 0 1 6 6v100a6 6 0 0 1-6 6H28a6 6 0 0 1-6-6Z"/><path stroke-width="10" d="M170 76h-50a6 6 0 0 0-6 6v28a6 6 0 0 0 6 6h50"/><path stroke-width="8" d="M82 81a14 14 0 1 0-21.778 11.64C62.524 94.18 68 96 68 96m-14 15a14 14 0 1 0 21.778-11.64C73.476 97.82 68 96 68 96m0-38v9m0 67v-9"/><circle cx="134" cy="96" r="3" stroke-width="6"/></svg>