<svg xmlns="http://www.w3.org/2000/svg" width="192" height="192" fill="none" viewBox="0 0 192 192"><path stroke="#000" stroke-linecap="round" stroke-width="12" d="M22 146V46a6 6 0 0 1 6-6h136a6 6 0 0 1 6 6v100a6 6 0 0 1-1.757 4.243A6 6 0 0 1 164 152H28a6 6 0 0 1-6-6Z"/><path stroke="#000" stroke-linecap="round" stroke-width="10" d="M170 76h-51a6 6 0 0 0-6 6v28c0 1.591.632 3.117 1.757 4.243A6 6 0 0 0 119 116h51M82 81a14 14 0 1 0-21.778 11.64C62.524 94.18 68 96 68 96s5.476 1.82 7.778 3.36a14 14 0 0 1 6.205 12.328 14 14 0 0 1-7.384 11.66A14 14 0 0 1 54 111m14.001-52v8m0 66v-8"/><path stroke="#000" stroke-linecap="round" stroke-width="6" d="M133 99a3 3 0 1 0 0-6 3 3 0 0 0 0 6Z"/></svg>