<svg xmlns="http://www.w3.org/2000/svg" width="192" height="192" fill="none"><path stroke="#000" stroke-linecap="round" stroke-linejoin="round" stroke-width="12" d="m31 170 11.316-34M169 152s-7.602-8.514-14.528-23"/><path stroke="#000" stroke-linecap="round" stroke-linejoin="round" stroke-width="12" d="M159.715 63.033c10.569 12.728 10.284 24.103 10.284 26.084.001 1.98 0 58.883-75.52 58.883S22.003 94.145 22.021 92.162c.017-1.983-.597-15.269 10.947-29.223m126.747.094c-2.337-12.808-7.897-39.384-14.039-40.922-5.779-1.447-17.222 12.574-23.321 20.752m37.36 20.17c-6.863-8.264-18.301-16.264-37.36-20.17m0 0c-7.654-1.569-16.539-2.477-26.85-2.477-7.685 0-14.566.536-20.729 1.499m0 0C64.758 34.42 45.183 20.622 39.236 22.11c-6.127 1.534-6.467 27.984-6.268 40.828m41.808-21.054c-21.51 3.362-34.257 11.927-41.808 21.054"/><path stroke="#000" stroke-linecap="round" stroke-linejoin="round" stroke-width="10" d="M80 62v16s-14.5-13.5-33 0m55-18s-5 8-3 18c0 0 11-10 44-3m-65 41c-3 10 12 11 12 11m-12-11 13-10m-13 10s-14 0-15-12m25.316-7L91 106m-2.684-9L92 95l-7 .5zM91 106c18.5 14 32-5 32-5"/><ellipse cx="65" cy="79" stroke="#000" stroke-linecap="round" stroke-linejoin="round" stroke-width="8" rx="1" ry="4"/><ellipse cx="120" cy="79" stroke="#000" stroke-linecap="round" stroke-linejoin="round" stroke-width="8" rx="1" ry="4"/></svg>