<svg width="192" height="192" viewBox="0 0 192 192" fill="none" xmlns="http://www.w3.org/2000/svg"><circle cx="96" cy="96" r="74" stroke="#000" stroke-width="12" stroke-linecap="round" stroke-linejoin="round"/><path d="M146 96a25.007 25.007 0 0 0-7.322-17.678A25.01 25.01 0 0 0 121 71a24.999 24.999 0 0 0-25 25h50Z" stroke="#000" stroke-width="10" stroke-linecap="round" stroke-linejoin="round"/><path d="M96 46a25 25 0 1 0 0 50V46ZM46 96a24.999 24.999 0 0 0 42.678 17.678A25.01 25.01 0 0 0 96 96H46Zm50 50a25.006 25.006 0 0 0 17.678-7.322A25.01 25.01 0 0 0 121 121a25.006 25.006 0 0 0-7.322-17.678A25.016 25.016 0 0 0 96 96v50Z" stroke="#000" stroke-width="10" stroke-linecap="round" stroke-linejoin="round"/></svg>