<svg width="192" height="192" viewBox="0 0 192 192" fill="none" xmlns="http://www.w3.org/2000/svg"><path d="M144.054 106 148 95l-10.851-26-1.973-8-6.905-5-.987-6-18.743-23-5.919 5-7.892-10-5.918 13-7.892-5-7.892 10-6.905 5-6.906 14-4.932 4-9.865 22 4.933 9m94.701 12s3.946 15-5.919 36c-9.864 21-36.135 28-43.405 28-7.27 0-41.572-8-48.337-36-6.764-28 2.96-40 2.96-40m94.701 12-24.662-10m-70.04-2 13.811 10L86.84 64l31.567 24 .986 16-15.783 8-5.92-11-6.904 3-17.757-11" stroke="#000" stroke-width="12" stroke-linecap="round" stroke-linejoin="round"/></svg>