<svg xmlns="http://www.w3.org/2000/svg" width="192" height="192" fill="none"><path stroke="#000" stroke-linecap="round" stroke-width="14" d="m23 138.788 2.954-9.664a6 6 0 0 1 3.907-3.961l1.061-.339a6 6 0 0 0 3.974-4.194l2.157-8.233a6 6 0 0 1 1.134-2.247l10.13-12.554a6 6 0 0 1 1.601-1.39l4.975-2.959a6 6 0 0 0 2.573-3.11l7.983-22a6 6 0 0 1 2.38-2.99l16.61-10.75a6 6 0 0 1 4.661-.796l2.2.529a6 6 0 0 1 3.779 2.805l5.977 10.223c.314.538.543 1.121.678 1.73l1.359 6.13q.096.436.257.854l1.171 3.05a6 6 0 0 0 3.114 3.308l5.683 2.588a6 6 0 0 1 1.67 1.134l3.084 2.963a4.86 4.86 0 0 0 6.735 0v0a4.86 4.86 0 0 1 7.15.453l7.652 9.483c.419.52.749 1.106.975 1.735l2.622 7.277a6 6 0 0 1 .355 2.033v3.151a6 6 0 0 0 4.243 5.737l4.405 1.349c.5.153.978.371 1.422.648l4.444 2.776q.417.261.872.45l3.438 1.432a6 6 0 0 1 2.641 2.145l1.309 1.907c.301.439.542.915.717 1.416l1.612 4.617a6 6 0 0 1 .336 1.979v1.285"/></svg>