<svg width="192" height="192" viewBox="0 0 192 192" fill="none" xmlns="http://www.w3.org/2000/svg"><path d="M170.003 51.504V130l-29.004 29V84.5m-118.998-33V130l29 29V83.5" stroke="#000" stroke-width="12" stroke-linecap="round" stroke-linejoin="round"/><path d="M23.742 55.543a5.971 5.971 0 0 1 0-8.43L37.068 33.75a5.953 5.953 0 0 1 8.388-.044l50.653 49.741 50.438-49.724a5.953 5.953 0 0 1 8.397.036l13.314 13.354a5.97 5.97 0 0 1 0 8.43l-68.006 68.197a6 6 0 0 1-8.497 0L23.742 55.543ZM96 124V83" stroke="#000" stroke-width="12" stroke-linecap="round" stroke-linejoin="round"/></svg>