<svg xmlns="http://www.w3.org/2000/svg" width="192" height="192" fill="none" viewBox="0 0 192 192"><path stroke="#000" stroke-linecap="round" stroke-linejoin="round" stroke-miterlimit="6" stroke-width="10" d="M147.224 133.103a2.884 2.884 0 0 1 5.552 0l2.248 7.215c.391 1.253 1.512 2.102 2.776 2.102h7.276c2.827 0 4.003 3.773 1.715 5.506l-5.886 4.459c-1.023.775-1.451 2.149-1.06 3.403l2.248 7.214c.874 2.804-2.204 5.136-4.492 3.403l-5.885-4.459a2.824 2.824 0 0 0-3.432 0l-5.885 4.459c-2.288 1.733-5.366-.599-4.492-3.403l2.248-7.214c.391-1.254-.037-2.628-1.06-3.403l-5.886-4.459c-2.288-1.733-1.112-5.506 1.715-5.506h7.276c1.264 0 2.385-.849 2.776-2.102z"/><path stroke="#000" stroke-linecap="round" stroke-linejoin="round" stroke-width="12" d="M167 100v20M96 98v69m0 0H31a6 6 0 0 1-6-6v-61a6 6 0 0 1 6-6h16m49 73h22.5"/><path stroke="#000" stroke-linecap="round" stroke-linejoin="round" stroke-width="12" d="M96 98c0-3.8-11.737-22.95-43.789-20.56-2.986.224-5.211 2.79-5.211 5.784V139c0 3.314 2.698 5.974 6.004 6.211C84.457 147.465 96 167 96 167"/><path stroke="#000" stroke-miterlimit="1.5" stroke-width="12" d="M136.706 26.362a.73.73 0 0 1-.284-.857.724.724 0 0 1 .744-.503 32.46 32.46 0 0 1 15.295 5.46c15.024 10.145 19.062 30.696 9.012 45.863-10.053 15.164-30.41 19.242-45.432 9.095a32.8 32.8 0 0 1-10.968-12.462.73.73 0 0 1 .186-.878.72.72 0 0 1 .89-.052q.104.066.205.136c12.051 8.138 28.635 4.483 37.011-8.156 8.374-12.636 5.391-29.505-6.659-37.646Z"/><path stroke="#000" stroke-linecap="round" stroke-linejoin="round" stroke-width="10" d="M44 54c-5.523 0-10 4.477-10 10 0-5.523-4.477-10-10-10 5.523 0 10-4.477 10-10 0 5.523 4.477 10 10 10m33-20c-5.524 0-10 4.477-10 10 0-5.523-4.477-10-10-10 5.523 0 10-4.477 10-10 0 5.523 4.476 10 10 10m41 6c-5.523 0-10 4.476-10 10 0-5.524-4.477-10-10-10 5.523 0 10-4.477 10-10 0 5.523 4.477 10 10 10"/></svg>