<svg width="192" height="192" xmlns="http://www.w3.org/2000/svg" xmlns:xlink="http://www.w3.org/1999/xlink"><defs><clipPath id="i"><use xlink:href="#a"/></clipPath><clipPath id="j"><use xlink:href="#b"/></clipPath><clipPath id="k"><use xlink:href="#c"/></clipPath><clipPath id="l"><use xlink:href="#d"/></clipPath><clipPath id="m"><use xlink:href="#e"/></clipPath><clipPath id="n"><use xlink:href="#f"/></clipPath><clipPath id="o"><use xlink:href="#g"/></clipPath><clipPath id="p"><use xlink:href="#h"/></clipPath><path id="a" d="M85.911 16.712c-12.305 1.622-23.858 5.974-34.065 12.78-4.788 3.204-10.05 7.359-10.05 7.952 0 .158 11.434 11.672 25.44 25.52l25.401 25.202.237-10.01c.159-5.539.159-21.76.04-36.083l-.198-25.994-1.424.04c-.792.04-3.205.277-5.381.593z"/><path id="b" d="M99.046 26.406c-.316 12.185-.276 36.439.08 51.394l.237 10.485 25.44-25.282c13.967-13.887 25.4-25.44 25.4-25.598 0-.515-4.945-4.471-9.297-7.439-11.474-7.833-24.253-12.344-38.615-13.689L99.284 16Z"/><path id="c" d="M35.387 43.854c-6.766 8.031-11.474 16.221-14.718 25.598-2.414 6.884-3.72 12.938-4.392 20.455L16 92.717l28.447.237c15.628.158 31.81.118 36.004-.04l7.596-.277-25.123-25.44c-13.848-13.967-25.282-25.4-25.48-25.4-.158 0-1.068.949-2.057 2.057z"/><path id="d" d="m129.155 67.276-25.202 25.44 10.484.277c5.737.158 21.92.158 35.965 0 24.648-.277 25.519-.316 25.519-1.029 0-2.215-.95-8.98-1.82-12.898-2.176-9.851-6.172-19.189-11.553-27.18-3.244-4.828-7.399-10.09-7.913-10.09-.158.04-11.632 11.474-25.48 25.48z"/><path id="e" d="m27.672 99.046-11.593.12v.988c0 .515.277 3.047.594 5.618 1.978 15.43 8.19 29.753 18.16 41.741 1.226 1.504 2.374 2.69 2.572 2.69.197 0 11.71-11.433 25.598-25.44l25.282-25.4-11.276-.237c-11.316-.238-27.814-.277-49.337-.08Z"/><path id="f" d="M116.495 112.103c6.963 7.161 18.397 18.674 25.4 25.638l12.7 12.66 1.623-1.78c10.761-11.83 18.002-29.08 19.545-46.41l.237-3.046h-72.166z"/><path id="g" d="M67.236 129.314C53.27 143.28 41.915 154.833 42.034 154.99c.435.752 6.33 5.341 9.812 7.636 10.92 7.32 24.253 11.91 37.863 13.096l3.007.277.198-26.034c.119-14.362.119-30.583-.04-36.043l-.237-10.01z"/><path id="h" d="M99.165 139.917V176l3.086-.237c17.29-1.543 34.54-8.784 46.37-19.545l1.78-1.623-9.89-9.93c-5.421-5.46-16.974-16.894-25.599-25.4l-15.747-15.431Z"/></defs><use xlink:href="#a" stroke="#000" stroke-width="16" fill="none" clip-path="url(#i)"/><use xlink:href="#b" stroke="#000" stroke-width="16" fill="none" clip-path="url(#j)"/><use xlink:href="#c" stroke="#000" stroke-width="16" fill="none" clip-path="url(#k)"/><use xlink:href="#d" stroke="#000" stroke-width="16" fill="none" clip-path="url(#l)"/><use xlink:href="#e" stroke="#000" stroke-width="16" fill="none" clip-path="url(#m)"/><use xlink:href="#f" stroke="#000" stroke-width="16" fill="none" clip-path="url(#n)"/><use xlink:href="#g" stroke="#000" stroke-width="16" fill="none" clip-path="url(#o)"/><use xlink:href="#h" stroke="#000" stroke-width="16" fill="none" clip-path="url(#p)"/></svg>