<svg xmlns="http://www.w3.org/2000/svg" xml:space="preserve" width="192" height="192" viewBox="0 0 42.333 42.333"><g stroke-width=".876"><path fill="none" stroke="#000" stroke-width="2.317" d="M21.167 6.94C14.949 6.94 9.9 12.01 9.9 18.25c0 8.489 11.267 16.977 11.267 16.977S32.434 26.74 32.434 18.25c-.023-6.24-5.072-11.31-11.267-11.31" transform="matrix(1.14236 0 0 1.14179 -3.013 -3.073)"/><path fill="#000" d="M28.593 16.689c0 .755-.63 1.384-1.385 1.384-.756 0-1.386-.63-1.386-1.384 0-.756.63-1.385 1.386-1.385.755-.025 1.385.604 1.385 1.385zm-13.097-1.41c-.781 0-1.386.63-1.41 1.384 0 .78.629 1.385 1.384 1.41.781 0 1.386-.63 1.41-1.384 0-.78-.604-1.41-1.384-1.41zm9.646 4.103a.898.898 0 0 0-.579.202c-.025 0-1.184 1.032-3.073 1.032s-3.325-1.158-3.35-1.183a.832.832 0 0 0-1.158.1.831.831 0 0 0 .1 1.158c.202.151 1.94 1.561 4.383 1.561 2.519 0 4.106-1.384 4.156-1.435a.856.856 0 0 0 .076-1.158.972.972 0 0 0-.555-.277z"/></g></svg>