<svg xmlns="http://www.w3.org/2000/svg" width="192" height="192" viewBox="0 0 192 192"><path fill="none" stroke="#000" stroke-width="12" d="M96 22c-32.56 0-59 26.706-59 59.575 0 39.331 45.648 78.659 56.64 87.559a3.715 3.715 0 0 0 4.72 0c10.992-8.899 56.64-48.223 56.64-87.56C154.88 48.707 128.44 22 96 22z"/><path d="M128.796 75.692c0 3.425-2.857 6.278-6.282 6.278-3.428 0-6.286-2.858-6.286-6.278 0-3.428 2.858-6.281 6.286-6.281 3.425-.114 6.282 2.74 6.282 6.281m-59.401-6.394c-3.542 0-6.286 2.857-6.395 6.276 0 3.538 2.853 6.282 6.277 6.396 3.542 0 6.286-2.858 6.395-6.278 0-3.537-2.74-6.394-6.277-6.394m43.749 18.608a4.07 4.07 0 0 0-2.626.917c-.113 0-5.37 4.68-13.937 4.68s-15.08-5.252-15.194-5.365a3.773 3.773 0 0 0-5.252.453 3.77 3.77 0 0 0 .453 5.252c.916.685 8.8 7.08 19.88 7.08 11.424 0 18.622-6.277 18.849-6.508a3.886 3.886 0 0 0 .344-5.252 4.4 4.4 0 0 0-2.517-1.257"/></svg>