<svg xmlns="http://www.w3.org/2000/svg" width="192" height="192" fill="none" viewBox="0 0 192 192"><path stroke="#000" stroke-linecap="round" stroke-linejoin="round" stroke-width="12" d="M136 86.5V144c0 9.389 7.611 17 17 17s17-7.611 17-17V51.116C170 40.006 160.994 31 149.884 31a20.12 20.12 0 0 0-15.924 7.824l-30.836 39.947c-3.603 4.667-10.645 4.667-14.248 0L58.04 38.824A20.12 20.12 0 0 0 42.116 31C31.006 31 22 40.006 22 51.116V144c0 9.389 7.611 17 17 17s17-7.611 17-17V86.5l20.59 28.312c9.585 13.178 29.235 13.178 38.82 0zm0 0s19-28 31-27"/></svg>