<svg xmlns="http://www.w3.org/2000/svg" width="192" height="192" fill="none"><path stroke="#000" stroke-linecap="round" stroke-linejoin="round" stroke-width="10" d="M121.65 44.567c-8.206-3.405-16.911-5.86-25.65-5.915-8.7-.055-17.432 2.643-25.65 5.915m59.851-15.017C119.259 25.009 107.653 21.075 96 21c-11.6-.073-23.242 4.187-34.2 8.55m10.277 52.474 22.96 33.215c.447.681 1.478.688 1.935.013l23.699-33.263c.522-.77 1.738-.626 2.05.242l30.215 87.307c.258.716-.297 1.462-1.086 1.462h-30.173c-.496 0-.937-.306-1.092-.758l-7.174-20.938c-.299-.873-1.514-1.033-2.047-.269l-14.415 20.656c-.455.652-1.455.652-1.91 0l-14.415-20.656c-.533-.764-1.748-.604-2.047.269l-7.174 20.938a1.15 1.15 0 0 1-1.092.758H40.15c-.794 0-1.348-.752-1.085-1.47L70.02 82.245c.32-.87 1.544-1.001 2.057-.221M78.9 59.66c5.479-2.182 11.3-3.394 17.1-3.357 5.827.037 11.629 1.086 17.1 3.357L96 78.682z"/></svg>