<svg width="192" height="192" viewBox="0 0 192 192" fill="none" xmlns="http://www.w3.org/2000/svg">
<path d="M65 87C65 84.2422 64.4568 81.5115 63.4015 78.9636C62.3461 76.4158 60.7993 74.1008 58.8492 72.1508C56.8992 70.2007 54.5842 68.6539 52.0364 67.5985C49.4885 66.5432 46.7578 66 44 66C41.2422 66 38.5115 66.5432 35.9636 67.5985C33.4158 68.6539 31.1008 70.2007 29.1508 72.1508C27.2007 74.1008 25.6539 76.4158 24.5985 78.9636C23.5432 81.5115 23 84.2422 23 87V126M65 87C65 81.4305 67.2125 76.089 71.1508 72.1508C75.089 68.2125 80.4305 66 86 66C91.5695 66 96.911 68.2125 100.849 72.1508C104.788 76.089 107 81.4305 107 87V126M65 87V109" stroke="black" stroke-width="14" stroke-linecap="round" stroke-linejoin="round"/>
<path d="M162.591 120.609C171.662 112.716 172.523 99.0454 164.514 90.0737C163.478 88.9132 162.344 87.8881 161.136 87C166.121 95.717 164.446 106.969 156.548 113.84C148.651 120.712 137.133 120.937 129 114.96C129.741 116.255 130.628 117.494 131.664 118.654C139.673 127.626 153.519 128.501 162.591 120.609Z" stroke="black" stroke-width="12" stroke-linejoin="round"/>
</svg>
