<svg width="160" height="147" viewBox="0 0 160 147" fill="none" xmlns="http://www.w3.org/2000/svg">
<path d="M41.9023 9.43164L36.4814 12.0033C36.5661 12.1818 36.6595 12.3559 36.7613 12.5252L41.9023 9.43164ZM80.0371 72.8066L74.8961 75.9002C75.9813 77.7037 77.9322 78.8066 80.0371 78.8066C82.1419 78.8067 84.0928 77.7037 85.1781 75.9003L80.0371 72.8066ZM117.913 9.86426L123.054 12.9579C123.237 12.6533 123.393 12.3329 123.52 12.0007L117.913 9.86426ZM148 6V0V6ZM154 12H160H154ZM117.521 135H111.521H117.521ZM117.521 70.6387H123.521C123.521 67.9432 121.724 65.5786 119.127 64.8574C116.53 64.1362 113.77 65.2355 112.381 67.5451L117.521 70.6387ZM107.074 88L101.933 84.9064C101.916 84.9351 101.899 84.964 101.882 84.993L107.074 88ZM107.022 88.0938L112.163 91.1874L112.163 91.1873L107.022 88.0938ZM85.1406 124.456L79.9997 121.362L79.9996 121.362L85.1406 124.456ZM74.8594 124.456L80.0004 121.362L80.0003 121.362L74.8594 124.456ZM52.9775 88.0938L47.8365 91.1873L47.8366 91.1874L52.9775 88.0938ZM52.6709 87.5098L58.1086 84.9738C58.0196 84.7829 57.9206 84.5968 57.8119 84.4163L52.6709 87.5098ZM42.4785 70.5713L47.6195 67.4778C46.2298 65.1682 43.4705 64.0689 40.8732 64.79C38.276 65.5112 36.4785 67.8758 36.4785 70.5713H42.4785ZM12 141L12 147H12V141ZM6 135H0H6ZM36.4785 6V12C36.4845 12 36.4867 12.0004 36.4859 12.0003C36.4852 12.0002 36.4834 11.9999 36.481 11.9991C36.4759 11.9976 36.4734 11.996 36.4738 11.9963C36.4748 11.9969 36.4773 11.9988 36.4799 12.0017C36.4823 12.0045 36.4825 12.0055 36.4814 12.0033L41.9023 9.43164L47.3233 6.85994C45.4053 2.8171 41.2773 0 36.4785 0V6ZM41.9023 9.43164L36.7613 12.5252L74.8961 75.9002L80.0371 72.8066L85.1781 69.7131L47.0434 6.33812L41.9023 9.43164ZM80.0371 72.8066L85.1781 75.9003L123.054 12.9579L117.913 9.86426L112.772 6.77065L74.8961 69.713L80.0371 72.8066ZM117.913 9.86426L123.52 12.0007C123.518 12.005 123.517 12.0054 123.519 12.003C123.521 12.0003 123.524 11.9978 123.526 11.9965C123.527 11.9955 123.525 11.9971 123.52 11.9988C123.517 11.9997 123.515 12.0001 123.514 12.0003C123.513 12.0005 123.515 12 123.521 12V6V0C118.389 0 114.024 3.22005 112.306 7.72779L117.913 9.86426ZM123.521 6V12H148V6V0H123.521V6ZM148 6V12H154H160C160 5.37258 154.627 9.53674e-07 148 0V6ZM154 12H148V135H154H160V12H154ZM154 135H148V141V147C154.627 147 160 141.627 160 135H154ZM148 141V135H123.521V141V147H148V141ZM123.521 141V135H117.521H111.521C111.521 141.627 116.894 147 123.521 147V141ZM117.521 135H123.521V70.6387H117.521H111.521V135H117.521ZM117.521 70.6387L112.381 67.5451L101.933 84.9064L107.074 88L112.215 91.0936L122.662 73.7323L117.521 70.6387ZM107.074 88L101.882 84.993C101.86 85.0307 101.841 85.0644 101.825 85.0928C101.81 85.1212 101.796 85.1458 101.786 85.1647C101.776 85.1834 101.767 85.199 101.763 85.2082C101.76 85.2129 101.758 85.217 101.757 85.2193C101.755 85.2223 101.755 85.2225 101.755 85.2231C101.754 85.224 101.757 85.2181 101.762 85.2094C101.767 85.2004 101.775 85.1858 101.785 85.1674C101.795 85.1488 101.808 85.1251 101.824 85.0973C101.84 85.0696 101.859 85.0368 101.881 85.0002L107.022 88.0938L112.163 91.1873C112.216 91.0997 112.258 91.0253 112.287 90.9736C112.314 90.924 112.336 90.8827 112.343 90.8707C112.344 90.8674 112.346 90.8637 112.347 90.8628C112.348 90.8611 112.348 90.8613 112.347 90.862C112.346 90.8633 112.342 90.8711 112.336 90.8819C112.325 90.9029 112.3 90.9485 112.266 91.007L107.074 88ZM107.022 88.0938L101.882 85.0001L79.9997 121.362L85.1406 124.456L90.2816 127.55L112.163 91.1874L107.022 88.0938ZM85.1406 124.456L79.9996 121.362C79.9913 121.376 79.9858 121.383 79.9842 121.385C79.9825 121.388 79.9831 121.387 79.9862 121.384C79.9893 121.381 79.9935 121.377 79.9986 121.373C80.0035 121.37 80.0083 121.367 80.0125 121.365C80.0209 121.36 80.0244 121.359 80.0213 121.36C80.0177 121.361 80.0102 121.362 80 121.362C79.9898 121.362 79.9823 121.361 79.9787 121.36C79.9756 121.359 79.9791 121.36 79.9875 121.365C79.9917 121.367 79.9965 121.37 80.0014 121.373C80.0065 121.377 80.0107 121.381 80.0138 121.384C80.0169 121.387 80.0175 121.388 80.0158 121.385C80.0142 121.383 80.0087 121.376 80.0004 121.362L74.8594 124.456L69.7184 127.55C74.3822 135.3 85.6178 135.3 90.2816 127.55L85.1406 124.456ZM74.8594 124.456L80.0003 121.362L58.1185 85.0001L52.9775 88.0938L47.8366 91.1874L69.7184 127.55L74.8594 124.456ZM52.9775 88.0938L58.1185 85.0002C58.1325 85.0235 58.1385 85.0352 58.1364 85.0311C58.134 85.0266 58.1252 85.0094 58.1086 84.9738L52.6709 87.5098L47.2332 90.0457C47.3817 90.3642 47.5794 90.76 47.8365 91.1873L52.9775 88.0938ZM52.6709 87.5098L57.8119 84.4163L47.6195 67.4778L42.4785 70.5713L37.3375 73.6648L47.5299 90.6033L52.6709 87.5098ZM42.4785 70.5713H36.4785V135H42.4785H48.4785V70.5713H42.4785ZM42.4785 135H36.4785V141V147C43.1059 147 48.4785 141.627 48.4785 135H42.4785ZM36.4785 141V135H12V141V147H36.4785V141ZM12 141L12 135H12H6H0C0 141.627 5.37258 147 12 147L12 141ZM6 135H12V12H6H0V135H6ZM6 12H12V6V0C5.37258 0 0 5.37258 0 12H6ZM12 6V12H36.4785V6V0H12V6Z" fill="black"/>
</svg>
