<?xml version="1.0" encoding="utf-8"?>
<svg
	version="1.1"
	xmlns="http://www.w3.org/2000/svg"
	xmlns:xlink="http://www.w3.org/1999/xlink"
	x="0%" y="0%"
	width="100%" height="100%"
	viewBox="0 0 24.0 24.0"
	enable-background="new 0 0 24.0 24.0"
	xml:space="preserve">
	<path
		fill="#000000"
		stroke="#000000"
		fill-opacity="1.000"
		stroke-opacity="1.000"
		fill-rule="nonzero"
		stroke-width="0.07278208"
		stroke-linejoin="miter"
		stroke-linecap="square"
		d="M4.68,17.91C4.64,18.87,3.34,18.91,3.28,17.94L3.24,6.21C3.27,5.15,4.61,5.13,4.64,6.18L4.68,17.91z"/>
	<path
		fill="#000000"
		stroke="#000000"
		fill-opacity="1.000"
		stroke-opacity="1.000"
		fill-rule="nonzero"
		stroke-width="0.07278208"
		stroke-linejoin="miter"
		stroke-linecap="square"
		d="M8.56,17.79C8.52,18.75,7.22,18.80,7.16,17.83L7.12,6.10C7.15,5.04,8.49,5.02,8.52,6.07L8.56,17.79z"/>
	<path
		fill="#000000"
		stroke="#000000"
		fill-opacity="1.000"
		stroke-opacity="1.000"
		fill-rule="nonzero"
		stroke-width="0.07278208"
		stroke-linejoin="miter"
		stroke-linecap="square"
		d="M12.68,17.86C12.63,18.82,11.33,18.86,11.27,17.89L11.23,6.16C11.26,5.11,12.61,5.08,12.63,6.13L12.68,17.86z"/>
	<path
		fill="#000000"
		stroke="#000000"
		fill-opacity="1.000"
		stroke-opacity="1.000"
		fill-rule="nonzero"
		stroke-width="0.07278208"
		stroke-linejoin="miter"
		stroke-linecap="square"
		d="M16.72,17.87C16.67,18.83,15.38,18.87,15.32,17.90L15.28,6.18C15.31,5.12,16.65,5.09,16.68,6.14L16.72,17.87z"/>
	<path
		fill="#000000"
		stroke="#000000"
		fill-opacity="1.000"
		stroke-opacity="1.000"
		fill-rule="nonzero"
		stroke-width="0.07278208"
		stroke-linejoin="miter"
		stroke-linecap="square"
		d="M20.74,17.93C20.69,18.89,19.40,18.93,19.34,17.96L19.30,6.23C19.33,5.17,20.67,5.15,20.70,6.20L20.74,17.93z"/>
	<path
		fill="#000000"
		stroke="#000000"
		fill-opacity="1.000"
		stroke-opacity="1.000"
		fill-rule="nonzero"
		stroke-width="0.07278208"
		stroke-linejoin="miter"
		stroke-linecap="square"
		d="M1.96,14.27L5.88,14.27L5.88,15.79L1.96,15.79z"/>
	<path
		fill="#000000"
		stroke="#000000"
		fill-opacity="1.000"
		stroke-opacity="1.000"
		fill-rule="nonzero"
		stroke-width="0.07278208"
		stroke-linejoin="miter"
		stroke-linecap="square"
		d="M6.00,7.96L9.92,7.96L9.92,9.48L6.00,9.48z"/>
	<path
		fill="#000000"
		stroke="#000000"
		fill-opacity="1.000"
		stroke-opacity="1.000"
		fill-rule="nonzero"
		stroke-width="0.07278208"
		stroke-linejoin="miter"
		stroke-linecap="square"
		d="M9.95,11.83L13.86,11.83L13.86,13.34L9.95,13.34z"/>
	<path
		fill="#000000"
		stroke="#000000"
		fill-opacity="1.000"
		stroke-opacity="1.000"
		fill-rule="nonzero"
		stroke-width="0.07278208"
		stroke-linejoin="miter"
		stroke-linecap="square"
		d="M14.06,7.94L17.97,7.94L17.97,9.45L14.06,9.45z"/>
	<path
		fill="#000000"
		stroke="#000000"
		fill-opacity="1.000"
		stroke-opacity="1.000"
		fill-rule="nonzero"
		stroke-width="0.07278208"
		stroke-linejoin="miter"
		stroke-linecap="square"
		d="M18.06,14.25L21.98,14.25L21.98,15.76L18.06,15.76z"/>
</svg>