<svg width="192" height="192" viewBox="0 0 192 192" fill="none" xmlns="http://www.w3.org/2000/svg"><circle cx="66" cy="94" r="30" stroke="#000" stroke-width="6"/><path d="M57.84 78 67 109.395c-8.936-18.418-16.532-5.023-18.766 4.605H46l11.84-36Zm17.447 0L67 109.395c8.085-18.418 14.957-5.023 16.979 4.605H86L75.287 78Z" stroke="#000" stroke-width="6" stroke-linecap="round" stroke-linejoin="round"/><path d="M114 78h32m-32 32h32m-32-16h36" stroke="#000" stroke-width="12" stroke-linecap="round"/><path d="M22 72c0-13.255 10.745-24 24-24h100c13.255 0 24 10.745 24 24v44c0 13.255-10.745 24-24 24h-27.046c-1.862 0-3.62.865-4.755 2.342l-13.443 17.476c-2.402 3.122-7.11 3.122-9.512 0l-13.443-17.476A5.999 5.999 0 0 0 73.046 140H46c-13.255 0-24-10.745-24-24V72Z" stroke="#000" stroke-width="12" stroke-linejoin="round"/></svg>