<svg xmlns="http://www.w3.org/2000/svg" width="192" height="192" fill="none" stroke="#000" stroke-width="12" viewBox="0 0 192 192"><circle cx="66" cy="94" r="30" stroke-width="6"/><path stroke-linejoin="round" stroke-width="6" d="M57.84 78 67 109.395c-8.936-18.418-16.532-5.023-18.766 4.605H46zm17.447 0L67 109.395c8.085-18.418 14.957-5.023 16.979 4.605H86z"/><path stroke-linecap="round" d="M114 78h32m-32 32h32m-32-16h36"/><path d="M22 72a24 24 0 0 1 24-24h100a24 24 0 0 1 24 24v44a24 24 0 0 1-24 24h-27.046c-1.862 0-3.62.865-4.755 2.342l-13.443 17.476c-2.402 3.122-7.11 3.122-9.512 0l-13.443-17.476A6 6 0 0 0 73.046 140H46a24 24 0 0 1-24-24z"/></svg>