<svg xmlns="http://www.w3.org/2000/svg" width="192" height="192" fill="none"><path stroke="#000" stroke-linecap="round" stroke-linejoin="round" stroke-width="12" d="M25 96a20 20 0 1 0 0-40m0 80a19.999 19.999 0 1 0 0-40"/><path stroke="#000" stroke-linecap="round" stroke-linejoin="round" stroke-width="12" d="M25 56V43c0-9.941 8.059-18 18-18h106c9.941 0 18 8.059 18 18v106c0 9.941-8.059 18-18 18H43c-9.941 0-18-8.059-18-18v-13"/><path stroke="#000" stroke-linecap="round" stroke-linejoin="round" stroke-width="12" d="M166 97h-52c-9.941 0-18 8.059-18 18v52m0 0 70-70"/></svg>