<svg xmlns="http://www.w3.org/2000/svg" width="192" height="192" fill="none"><path stroke="#000" stroke-linecap="round" stroke-linejoin="round" stroke-width="12" d="M88 86V40L48 78H28a6 6 0 0 0-6 6v24a6 6 0 0 0 6 6h20l40 38v-12.5m48-26.5c-8 0-24-15-24-24 0 9-16 24-24 24 8 0 24 15 24 24 0-9 16-24 24-24"/><path stroke="#000" stroke-linecap="round" stroke-linejoin="round" stroke-width="10" d="M171 81c-6 0-18-11.25-18-18 0 6.75-12 18-18 18 6 0 18 11.25 18 18 0-6.75 12-18 18-18m-40-31c-3 0-9-5.625-9-9 0 3.375-6 9-9 9 3 0 9 5.625 9 9 0-3.375 6-9 9-9"/></svg>