<svg xmlns="http://www.w3.org/2000/svg" width="192" height="192" fill="none"><path stroke="#000" stroke-linecap="round" stroke-linejoin="round" stroke-width="12" d="M22 82v49m53-70c-9.375 0-30 2.838-30 35 0 28.378 16.875 35 30 35s30-6.622 30-35c0-32.162-20.625-35-30-35m50.759 53.919c1.78 15.135 19.158 16.081 24.329 16.081 9.68 0 19.912-4.73 19.912-16.081 0-26.487-43-12.297-43-36.892C127 66.676 138.32 61 148 61c4.535 0 17.521 2.184 20.642 12.297"/><circle cx="22" cy="61" r="3" stroke="#000" stroke-linecap="round" stroke-linejoin="round" stroke-width="6"/></svg>