<svg id="Layer_1" data-name="Layer 1" xmlns="http://www.w3.org/2000/svg" viewBox="0 0 24 24"><defs><style>.cls-1{fill:#231f20;}</style></defs><path class="cls-1" d="M12,7.87l1-1.59a11.34,11.34,0,0,1,2.12-2.6,3.67,3.67,0,0,1,2.13-1A3.06,3.06,0,0,1,20,4a8.91,8.91,0,0,1,1.61,3.08c.64,2,1.27,4,1.84,6.08a14.41,14.41,0,0,1,.6,4,5,5,0,0,1-.69,2.71,3.31,3.31,0,0,1-3.49,1.43,4.45,4.45,0,0,1-2.3-1.62,59,59,0,0,1-4.26-5.91L12,11.79l-.36.56C10.18,14.61,8.7,16.87,7,19a7.67,7.67,0,0,1-1.78,1.77,3.25,3.25,0,0,1-3.76-.09A3.44,3.44,0,0,1,.18,18.59a7.37,7.37,0,0,1-.09-2.77A33.79,33.79,0,0,1,1.6,9.62C2,8.34,2.46,7.07,2.94,5.83A6.11,6.11,0,0,1,4.52,3.49a2.79,2.79,0,0,1,1.9-.81,3.32,3.32,0,0,1,2,.63,8.09,8.09,0,0,1,2,2.07c.51.74,1,1.51,1.5,2.26C11.89,7.71,11.94,7.77,12,7.87Zm10,9.25c-.08-.68-.1-1.24-.22-1.79-.24-1.14-.5-2.27-.82-3.39-.38-1.34-.8-2.67-1.25-4a7.57,7.57,0,0,0-1.41-2.73,1,1,0,0,0-1.47-.18,6,6,0,0,0-1.43,1.54c-.67,1-1.32,2-2,3a.35.35,0,0,0,0,.45c1.55,2.44,3.11,4.87,4.87,7.16a14.42,14.42,0,0,0,1.52,1.7,1.16,1.16,0,0,0,1.94-.52A10.92,10.92,0,0,0,22,17.12ZM2.09,17,2,17a10.25,10.25,0,0,0,.28,1.36,1.17,1.17,0,0,0,2,.51,11.09,11.09,0,0,0,1.14-1.24A89,89,0,0,0,10.65,10a.29.29,0,0,0,0-.38C10,8.7,9.46,7.76,8.82,6.86A10.31,10.31,0,0,0,7.51,5.3c-.81-.76-1.3-.71-1.94.13A6.43,6.43,0,0,0,4.52,7.48c-.6,1.85-1.19,3.7-1.74,5.56A16.52,16.52,0,0,0,2.09,17Z"/></svg>