<svg width="192" height="192" fill="none" xmlns="http://www.w3.org/2000/svg"><path d="M70 74c-13.807 0-25 11.193-25 25 0 7.968 3.727 15.065 9.533 19.643A43.22 43.22 0 0 1 62 118c6.584 0 12.717 1.461 17.867 3.978C88.767 118.15 95 109.303 95 99c0-13.807-11.193-25-25-25Zm68 0c-11.598 0-21 11.193-21 25 0 10.071 5.003 18.752 12.211 22.712A26.734 26.734 0 0 1 141 119c2.824 0 5.544.433 8.09 1.234C155.04 115.82 159 107.961 159 99c0-13.807-9.402-25-21-25Zm23.785 62c3.547 9.171 6.71 13.152 6.215 15-1.072 4-5 3.268-8 5-3 1.732-3 7.66-9 9-6 1.34-9-3-14-3s-8 8-18 8-15-8-23-8-13 8-23 8-13-8-18-8-8 4.34-14 3c-6-1.34-6-7.268-9-9-3-1.732-6.928-1-8-5-.647-2.415 4.954-8.474 9.495-25m6.557-61.5C47.132 22 87.791 22 96 22c5.458 0 25.26 0 40 12.49M153 22l17 4s-15 11-20 29" stroke="#000" stroke-width="12" stroke-linecap="round" stroke-linejoin="round"/><path d="M97 136s4-6 12-6" stroke="#000" stroke-width="10" stroke-linecap="round" stroke-linejoin="round"/></svg>