<svg xmlns="http://www.w3.org/2000/svg" width="192" height="192" fill-rule="evenodd" viewBox="0 0 192 192"><path d="M72.926 57.89 57.89 72.926a27.16 27.16 0 0 0-14.589-4.227C28.233 68.699 16 80.932 16 96s12.233 27.301 27.301 27.301c13.006 0 23.901-9.115 26.638-21.301h52.122a27.1 27.1 0 0 0 3.564 8.589l-15.036 15.036A27.16 27.16 0 0 0 96 121.398c-15.068 0-27.301 12.234-27.301 27.301C68.699 163.767 80.932 176 96 176s27.301-12.233 27.301-27.301a27.16 27.16 0 0 0-4.227-14.589l15.036-15.036a27.16 27.16 0 0 0 14.589 4.227C163.767 123.301 176 111.068 176 96s-12.233-27.301-27.301-27.301c-13.006 0-23.901 9.115-26.638 21.301H69.939a27.1 27.1 0 0 0-3.564-8.589l15.036-15.036A27.16 27.16 0 0 0 96 70.602c15.068 0 27.301-12.234 27.301-27.301C123.301 28.233 111.068 16 96 16S68.699 28.233 68.699 43.301a27.16 27.16 0 0 0 4.227 14.589M96 133.398c8.445 0 15.301 6.857 15.301 15.301 0 8.445-6.856 15.301-15.301 15.301s-15.301-6.856-15.301-15.301S87.555 133.398 96 133.398M58.6 95.809c-.101-8.356-6.918-15.11-15.299-15.11C34.856 80.699 28 87.555 28 96s6.856 15.301 15.301 15.301c8.381 0 15.198-6.754 15.299-15.11a6 6 0 0 1 0-.382m74.8.382c.101 8.356 6.918 15.11 15.299 15.11 8.445 0 15.301-6.856 15.301-15.301s-6.856-15.301-15.301-15.301c-8.381 0-15.198 6.754-15.299 15.11a6 6 0 0 1 0 .382M96 28c8.445 0 15.301 6.856 15.301 15.301S104.445 58.602 96 58.602s-15.301-6.857-15.301-15.301C80.699 34.856 87.555 28 96 28"/></svg>