<svg xmlns="http://www.w3.org/2000/svg" width="192" height="192" fill="none"><path stroke="#000" stroke-linecap="round" stroke-linejoin="round" stroke-width="12" d="M46 100a24 24 0 0 0-24 24 24 24 0 0 0 7.03 16.971A24 24 0 0 0 46 148m100 0c6.365 0 12.47-2.529 16.971-7.029a24.005 24.005 0 0 0 0-33.942A24 24 0 0 0 146 100m-74 13a6 6 0 0 1 6-6h24a6 6 0 0 1 6 6v22a6 6 0 0 1-6 6H78a6 6 0 0 1-6-6z"/><path stroke="#000" stroke-linecap="round" stroke-linejoin="round" stroke-width="10" d="m112 124 11-7v14z"/><path stroke="#000" stroke-linecap="round" stroke-linejoin="round" stroke-width="12" d="M46 156V68c0-17.673 14.327-32 32-32h36c17.673 0 32 14.327 32 32v88"/></svg>