<svg width="192" height="192" viewBox="0 0 192 192" fill="none" xmlns="http://www.w3.org/2000/svg"><path d="M96 48v96" stroke="#000" stroke-width="12" stroke-linecap="round" stroke-linejoin="round"/><circle cx="96" cy="96" r="74" stroke="#000" stroke-width="12" stroke-linecap="round" stroke-linejoin="round"/><path d="M117.301 74.125c-.614-1.894-1.628-3.703-3.009-5.347-2.417-2.878-5.853-5.121-9.873-6.446-4.02-1.324-8.443-1.671-12.711-.996-4.268.675-8.188 2.342-11.264 4.79-3.077 2.447-5.172 5.565-6.021 8.96-.85 3.395-.413 6.913 1.252 10.111 1.665 3.198 4.485 5.93 8.103 7.854C87.395 94.974 91.648 96 96 96c4.351 0 8.605 1.026 12.223 2.95 3.617 1.922 6.437 4.655 8.102 7.853 1.665 3.198 2.101 6.716 1.252 10.111-.849 3.395-2.944 6.513-6.021 8.96-3.076 2.448-6.996 4.114-11.264 4.79-4.268.675-8.691.328-12.711-.996-4.02-1.325-7.456-3.568-9.873-6.446-1.381-1.644-2.394-3.453-3.01-5.347" stroke="#000" stroke-width="12" stroke-linecap="round" stroke-linejoin="round"/></svg>