<svg width="192" height="192" fill="none" xmlns="http://www.w3.org/2000/svg"><circle cx="109" cy="34" r="12" stroke="#000" stroke-width="12" stroke-linecap="round" stroke-linejoin="round"/><circle cx="146" cy="71" r="19" stroke="#000" stroke-width="12" stroke-linecap="round" stroke-linejoin="round"/><path d="M108 164v-46s0-7 11-7 11 7 11 7v40c0 6.627 5.373 12 12 12h8a6 6 0 0 0 6-6v-47s0-32-35-32c-39 0-39 32-39 32v41c0 6.627 5.373 12 12 12h8a6 6 0 0 0 6-6Z" stroke="#000" stroke-width="12" stroke-linecap="round" stroke-linejoin="round"/><path d="M82 118s-1-7-12-7-10 7-10 7v46a6 6 0 0 1-6 6h-8c-6.627 0-12-5.373-12-12v-49s-1-24 38-24c11.57 0 18.315 2.623 23.5 6.134M156 134s0 6-13 6-13-6-13-6" stroke="#000" stroke-width="12" stroke-linecap="round" stroke-linejoin="round"/></svg>