<svg width="192" height="192" fill="none" xmlns="http://www.w3.org/2000/svg"><path d="M139.436 114.722c-15.996 16.221-32.473 31.992-48.76 47.928-22.776 22.288-56.941-11.144-34.165-33.432l34.002-33.271M56.511 62.355c-4.53-4.433-7.076-10.446-7.076-16.715s2.546-12.283 7.076-16.716C61.041 24.491 67.187 22 73.594 22c6.407 0 12.552 2.49 17.083 6.924l51.247 50.147a23.6 23.6 0 0 1 5.237 7.67A23.193 23.193 0 0 1 149 95.786a23.199 23.199 0 0 1-1.839 9.046 23.609 23.609 0 0 1-5.237 7.67 24.208 24.208 0 0 1-7.837 5.124 24.597 24.597 0 0 1-9.245 1.8c-6.408 0-12.552-2.491-17.083-6.924L56.511 62.355Z" stroke="#000" stroke-width="12" stroke-linecap="round" stroke-linejoin="round"/></svg>