<svg width="192" height="192" viewBox="0 0 50.8 50.8" xml:space="preserve"><path style="fill:none;stroke:#000;stroke-width:3.17499;stroke-linecap:round;stroke-linejoin:round;stroke-dasharray:none;paint-order:fill markers stroke" d="m16.09757 30.49194-.90415.5124a1.62978 1.63013 0 0 1-2.2123-.59876l-6.9517-11.95615a1.59353 1.59388 0 0 1 .59196-2.18802L24.37661 6.1991a1.638 1.63836 0 0 1 2.2193.5947l4.86854 8.27735m2.13902 11.54975 3.34223 12.4475a1.60313 1.60348 0 0 1-1.1406 1.96667l-14.14357 3.72a1.62678 1.62714 0 0 1-1.98306-1.14506l-3.5809-13.11808 2.56985-1.45639" transform="translate(0 .0002)"/><g style="stroke-width:.98496"><path style="fill:none;stroke:#000;stroke-width:2.08484;stroke-linecap:round;stroke-linejoin:round;stroke-dasharray:none;paint-order:fill markers stroke" d="m75.36972 40.92 4.44384-1.6677c-1.60577-2.4798-1.07843-5.94423.34562-6.3187l4.8043-1.26334a1.57265 1.57265 119.99785 0 0 1.11717-1.93517l-.70004-2.56393a1.60249 1.60249 29.99782 0 0-1.95343-1.12772l-5.5378 1.45623c.20227 1.6757-.48449 3.07663-1.43818 4.39503-3.16946 3.9644-2.0788 6.61918-1.08148 9.0253z" transform="matrix(1.01516 0 0 1.01538 -52.34702 -6.27874)"/><path style="fill:none;stroke:#000;stroke-width:2.08484;stroke-linecap:round;stroke-linejoin:round;stroke-dasharray:none;paint-order:fill markers stroke" d="m85.11782 26.20868 7.322-1.9254 2.89-1.52916 1.06435 3.89836-10.40793 2.73687m-8.27.10275-2.48476-.62962m4.30542 4.48607c.47206.99682.75357 1.78958 2.27115 2.22559m-3.91867-8.07447-.3882-1.42176" transform="matrix(1.01516 0 0 1.01538 -52.34702 -6.27874)"/></g></svg>