<svg xml:space="preserve" width="192" height="192" viewBox="0 0 50.8 50.8"><path d="m16.098 30.492-.905.512a1.63 1.63 0 0 1-2.212-.598L6.03 18.449a1.594 1.594 0 0 1 .592-2.188L24.377 6.2a1.64 1.64 0 0 1 2.219.595l4.868 8.277m2.14 11.55 3.342 12.447a1.603 1.603 0 0 1-1.14 1.967l-14.144 3.72a1.627 1.627 0 0 1-1.984-1.145l-3.58-13.118 2.57-1.456" style="fill:none;stroke:#000;stroke-width:3.17499;stroke-linecap:round;stroke-linejoin:round;stroke-dasharray:none;paint-order:fill markers stroke"/><g style="stroke-width:.98496"><path d="m75.37 40.92 4.444-1.668c-1.606-2.48-1.079-5.944.345-6.318l4.804-1.264a1.573 1.573 119.998 0 0 1.118-1.935l-.7-2.564a1.6 1.6 29.998 0 0-1.954-1.128L77.89 27.5c.203 1.675-.484 3.076-1.438 4.395-3.17 3.964-2.079 6.619-1.081 9.025" style="fill:none;stroke:#000;stroke-width:2.08484;stroke-linecap:round;stroke-linejoin:round;stroke-dasharray:none;paint-order:fill markers stroke" transform="matrix(1.01516 0 0 1.01538 -52.347 -6.279)"/><path d="m85.118 26.209 7.322-1.926 2.89-1.529 1.064 3.898-10.408 2.737m-8.27.103-2.485-.63m4.306 4.487c.472.996.753 1.79 2.271 2.225M77.89 27.5l-.388-1.422" style="fill:none;stroke:#000;stroke-width:2.08484;stroke-linecap:round;stroke-linejoin:round;stroke-dasharray:none;paint-order:fill markers stroke" transform="matrix(1.01516 0 0 1.01538 -52.347 -6.279)"/></g></svg>