<?xml version="1.0" encoding="UTF-8" standalone="no"?>
<!-- Created with Inkscape (http://www.inkscape.org/) -->

<svg
   width="192"
   height="192"
   viewBox="0 0 192 192"
   version="1.1"
   id="svg5"
   xml:space="preserve"
   inkscape:version="1.3 (0e150ed6c4, 2023-07-21)"
   sodipodi:docname="mrepo.svg"
   inkscape:export-filename="sharik.png"
   inkscape:export-xdpi="96"
   inkscape:export-ydpi="96"
   xmlns:inkscape="http://www.inkscape.org/namespaces/inkscape"
   xmlns:sodipodi="http://sodipodi.sourceforge.net/DTD/sodipodi-0.dtd"
   xmlns="http://www.w3.org/2000/svg"
   xmlns:svg="http://www.w3.org/2000/svg"><sodipodi:namedview
     id="namedview7"
     pagecolor="#505050"
     bordercolor="#ffffff"
     borderopacity="1"
     inkscape:showpageshadow="0"
     inkscape:pageopacity="0"
     inkscape:pagecheckerboard="1"
     inkscape:deskcolor="#505050"
     inkscape:document-units="px"
     showgrid="true"
     inkscape:zoom="3.3932292"
     inkscape:cx="85.611665"
     inkscape:cy="89.000767"
     inkscape:window-width="1890"
     inkscape:window-height="1026"
     inkscape:window-x="12"
     inkscape:window-y="36"
     inkscape:window-maximized="1"
     inkscape:current-layer="layer1"
     showguides="true"
     inkscape:lockguides="true"><sodipodi:guide
       position="16,176"
       orientation="160,0"
       id="guide1113"
       inkscape:locked="true" /><sodipodi:guide
       position="16,16"
       orientation="0,1"
       id="guide1115"
       inkscape:locked="true"
       inkscape:label="160"
       inkscape:color="rgb(0,134,229)" /><sodipodi:guide
       position="176,16"
       orientation="-160,0"
       id="guide1117"
       inkscape:locked="true" /><sodipodi:guide
       position="176,176"
       orientation="0,-160"
       id="guide1119"
       inkscape:locked="true" /><sodipodi:guide
       position="24,168"
       orientation="-1,0"
       id="guide1218"
       inkscape:locked="true"
       inkscape:label=""
       inkscape:color="rgb(229,165,10)" /><sodipodi:guide
       position="24,24"
       orientation="0,1"
       id="guide1220"
       inkscape:locked="true"
       inkscape:label=""
       inkscape:color="rgb(229,165,10)" /><sodipodi:guide
       position="168,24"
       orientation="-1,0"
       id="guide1222"
       inkscape:locked="true"
       inkscape:label=""
       inkscape:color="rgb(229,165,10)" /><sodipodi:guide
       position="37.068014,168.07046"
       orientation="0,1"
       id="guide1224"
       inkscape:locked="true"
       inkscape:label=""
       inkscape:color="rgb(229,165,10)" /><sodipodi:guide
       position="96,96"
       orientation="-1,0"
       id="guide5242"
       inkscape:locked="true"
       inkscape:label=""
       inkscape:color="rgb(0,134,229)" /><sodipodi:guide
       position="96,96"
       orientation="0,1"
       id="guide5244"
       inkscape:locked="true"
       inkscape:label=""
       inkscape:color="rgb(0,134,229)" /></sodipodi:namedview><defs
     id="defs2" /><g
     inkscape:label="logo"
     inkscape:groupmode="layer"
     id="layer1"
     style="display:inline"><path
       id="path5518"
       style="display:none;opacity:1;fill:#000000;fill-opacity:0.999846;stroke:none;stroke-width:6;stroke-linecap:round;stroke-linejoin:round;stroke-miterlimit:6;stroke-dasharray:none;stroke-opacity:1;paint-order:fill markers stroke"
       d="m 96.396484,40.515625 c -1.151513,0 -2.159181,-9.02e-4 -3.074218,0.01758 -0.915038,0.01848 -1.738166,0.05694 -2.519532,0.130859 -0.781365,0.07392 -1.520987,0.183291 -2.271484,0.34961 -0.750497,0.166319 -1.511551,0.387915 -2.333984,0.683594 -0.822433,0.295678 -1.705952,0.666909 -2.703125,1.128906 -0.997173,0.461997 -2.108096,1.016365 -3.382813,1.68164 -2.549434,1.330552 -5.756767,3.103325 -10.033203,5.46875 -2.15224,1.190471 -4.10808,2.290826 -5.890625,3.316407 -1.782545,1.025581 -3.392629,1.976025 -4.851562,2.873047 -1.458934,0.897021 -2.767813,1.740129 -3.949219,2.544922 -1.181406,0.804792 -2.235585,1.57142 -3.185547,2.320312 -0.949962,0.748892 -1.793992,1.479662 -2.558594,2.208984 -0.764602,0.729323 -1.448893,1.457043 -2.074219,2.203125 -0.625325,0.746082 -1.192476,1.511376 -1.724609,2.310547 -0.532133,0.799172 -1.028647,1.632894 -1.513672,2.521485 -0.159713,0.292604 -0.312786,0.713109 -0.457031,1.246093 -0.144245,0.532985 -0.279926,1.179293 -0.408203,1.921875 -0.256555,1.485165 -0.480236,3.357231 -0.669922,5.496094 -0.189687,2.138863 -0.346024,4.543541 -0.464844,7.089844 -0.11882,2.546302 -0.200185,5.235876 -0.24414,7.943359 -0.04396,2.707483 -0.05053,5.432283 -0.01563,8.054682 0.03491,2.62241 0.110749,5.14253 0.228516,7.4336 0.117768,2.29107 0.277796,4.35488 0.482422,6.06836 0.102313,0.85673 0.215067,1.62485 0.339844,2.29101 0.124777,0.66617 0.262415,1.22902 0.410156,1.67383 0.193213,0.58171 0.402467,1.14942 0.634766,1.70703 0.232298,0.55761 0.486688,1.10522 0.765625,1.64453 0.278936,0.53932 0.582889,1.07083 0.916015,1.59766 0.333127,0.52682 0.694975,1.05017 1.089844,1.57031 0.394869,0.52014 0.822946,1.03738 1.287109,1.55664 0.464164,0.51927 0.964849,1.04026 1.50586,1.56446 0.54101,0.52419 1.122637,1.05101 1.748047,1.58593 0.625409,0.53493 1.294358,1.07744 2.011718,1.62891 1.434722,1.10293 3.060363,2.24529 4.908204,3.44922 1.84784,1.20392 3.918856,2.46895 6.240234,3.82031 2.321377,1.35136 4.894667,2.78874 7.75,4.33398 2.855332,1.54525 5.991701,3.1988 9.441406,4.98438 1.753318,0.90752 3.100618,1.59524 4.259766,2.11133 0.579574,0.25804 1.112063,0.47408 1.625,0.65234 0.512937,0.17826 1.006908,0.31917 1.507812,0.42969 0.500904,0.11052 1.00926,0.18931 1.552735,0.24414 0.543474,0.0548 1.121069,0.0845 1.761718,0.0957 1.281298,0.0224 2.812929,-0.0294 4.810547,-0.10937 1.032934,-0.0413 1.935518,-0.0768 2.759768,-0.12695 0.82425,-0.0501 1.56855,-0.11573 2.2832,-0.2129 0.71466,-0.0972 1.39937,-0.22769 2.10352,-0.41015 0.70416,-0.18246 1.42795,-0.41665 2.2207,-0.72266 0.79275,-0.30601 1.65433,-0.68258 2.63477,-1.15039 0.98044,-0.46781 2.08043,-1.02745 3.34766,-1.69531 2.53444,-1.33572 5.74144,-3.10918 10.01757,-5.47461 2.15206,-1.19045 4.10821,-2.28887 5.89063,-3.31445 1.78241,-1.02558 3.39076,-1.97797 4.84961,-2.875 1.45885,-0.89704 2.76786,-1.73816 3.94922,-2.54297 1.18136,-0.80481 2.2356,-1.57336 3.18554,-2.32227 0.94995,-0.74891 1.79595,-1.47965 2.56055,-2.20898 0.7646,-0.72934 1.44694,-1.45705 2.07227,-2.20313 0.62532,-0.74608 1.19248,-1.50944 1.72461,-2.30859 0.53212,-0.79915 1.03063,-1.6349 1.51562,-2.52344 0.18762,-0.34373 0.35556,-0.69684 0.50781,-1.08789 0.15225,-0.39105 0.28869,-0.81906 0.41016,-1.31055 0.12147,-0.49148 0.22892,-1.04636 0.32422,-1.6914 0.0953,-0.64505 0.17823,-1.38069 0.25195,-2.23242 0.14744,-1.70347 0.25504,-3.8737 0.34375,-6.72266 0.0887,-2.84896 0.15785,-6.37742 0.22461,-10.796874 0.0662,-4.378591 0.10384,-7.903544 0.0996,-10.796875 -0.004,-2.89333 -0.0506,-5.153477 -0.14844,-7 -0.0489,-0.923261 -0.1108,-1.744511 -0.1875,-2.488281 -0.0767,-0.74377 -0.16802,-1.410212 -0.27539,-2.029297 -0.10736,-0.619085 -0.23015,-1.191027 -0.37109,-1.740234 -0.14094,-0.549207 -0.29914,-1.077193 -0.47656,-1.611328 -0.33089,-0.996201 -0.71975,-1.951451 -1.18164,-2.88086 -0.4619,-0.929408 -0.99815,-1.831081 -1.625,-2.722656 -0.62686,-0.891575 -1.34414,-1.771598 -2.16993,-2.654297 -0.82578,-0.882699 -1.75969,-1.769093 -2.81836,-2.671875 -1.05866,-0.902781 -2.24285,-1.823569 -3.56836,-2.77539 -1.3255,-0.951822 -2.79166,-1.935024 -4.41796,-2.964844 -1.62631,-1.02982 -3.41199,-2.105411 -5.37305,-3.242188 -1.96107,-1.136776 -4.09795,-2.33473 -6.42774,-3.607421 -3.99402,-2.181816 -6.99028,-3.817651 -9.38086,-5.044922 -1.19528,-0.613636 -2.23962,-1.124646 -3.18164,-1.550782 -0.94201,-0.426135 -1.78122,-0.768288 -2.56836,-1.041015 -0.78713,-0.272727 -1.52131,-0.477451 -2.25195,-0.63086 -0.73064,-0.153409 -1.45793,-0.254084 -2.23047,-0.322265 -0.77254,-0.06818 -1.59107,-0.102095 -2.503907,-0.119141 -0.912831,-0.01705 -1.918799,-0.01758 -3.070313,-0.01758 z M 94.482422,47.9375 c 0.868322,-0.03259 1.81719,-0.0039 2.925781,0.07031 0.57669,0.03859 1.127385,0.09331 1.675781,0.171876 0.548396,0.07856 1.095256,0.181767 1.662106,0.320312 0.56686,0.138545 1.15505,0.31075 1.78711,0.529297 0.63206,0.218547 1.30872,0.482216 2.05274,0.800781 1.48803,0.637131 3.24652,1.495034 5.46289,2.652344 2.21637,1.15731 4.89027,2.615499 8.20898,4.453125 4.08994,2.264668 7.31411,4.068717 9.84961,5.533203 2.5355,1.464486 4.3811,2.58775 5.7168,3.492188 0.66785,0.452218 1.20818,0.8498 1.64258,1.207031 0.43439,0.357231 0.7645,0.674536 1.00976,0.966797 0.24527,0.29226 0.40539,0.5591 0.50586,0.816406 0.10047,0.257306 0.14063,0.505444 0.14063,0.757812 0,0.139453 -0.15279,0.357874 -0.42774,0.634766 -0.27494,0.276892 -0.6719,0.612571 -1.16015,0.988281 -0.97652,0.751421 -2.31735,1.661211 -3.77735,2.576172 -1.46,0.914961 -3.03978,1.833989 -4.49023,2.603516 -0.72523,0.384763 -1.41843,0.732965 -2.04883,1.023437 -0.6304,0.290472 -1.19794,0.524082 -1.67187,0.681641 -0.1,0.03324 -0.33947,-0.0178 -0.70508,-0.144531 -0.36562,-0.126734 -0.85745,-0.328398 -1.45899,-0.59961 -1.20307,-0.542423 -2.84784,-1.359373 -4.8164,-2.386718 -1.96857,-1.027346 -4.26135,-2.26602 -6.75782,-3.654297 -2.49646,-1.388278 -5.19759,-2.925561 -7.98437,-4.550782 -5.573571,-3.250436 -10.650893,-6.314721 -14.341798,-8.632812 -1.845453,-1.159046 -3.344069,-2.131525 -4.384766,-2.847656 -0.520348,-0.358066 -0.925726,-0.651938 -1.203125,-0.873047 -0.277398,-0.221109 -0.426986,-0.368881 -0.433593,-0.435547 -0.01323,-0.133335 0.125422,-0.338874 0.384765,-0.59375 0.259343,-0.254876 0.640609,-0.560604 1.115235,-0.896485 0.474625,-0.33588 1.041205,-0.701777 1.673828,-1.078124 0.632622,-0.376348 1.331118,-0.762395 2.064453,-1.138672 1.099601,-0.564215 2.040469,-1.013441 2.904297,-1.365235 0.863827,-0.351794 1.650765,-0.606663 2.4375,-0.78125 C 92.82775,48.063695 93.6141,47.970093 94.482422,47.9375 Z M 71.341797,59.439453 c 0.144321,0.0016 0.431172,0.09199 0.841797,0.261719 0.410624,0.169724 0.943766,0.41828 1.583984,0.734375 1.280436,0.632189 2.98434,1.535746 4.962891,2.623047 3.957102,2.174601 9.016412,5.085026 14.003906,8.037109 4.987494,2.952083 9.901855,5.946212 13.570315,8.285156 1.83423,1.169473 3.35792,2.174241 4.42187,2.929688 0.53198,0.377723 0.95003,0.693922 1.23438,0.935547 0.28434,0.241624 0.43554,0.40839 0.43554,0.492187 0,0.111488 -0.0524,0.246004 -0.14843,0.400391 -0.096,0.154387 -0.23722,0.3289 -0.41797,0.519531 -0.36151,0.381262 -0.88058,0.828146 -1.51367,1.314453 -0.63309,0.486308 -1.37862,1.012669 -2.19336,1.550782 -0.81475,0.538112 -1.699,1.088324 -2.60547,1.625 -0.90647,0.536675 -1.83587,1.059017 -2.74414,1.541015 -0.90827,0.481998 -1.79509,0.92475 -2.61524,1.298828 -0.820142,0.374079 -1.57275,0.67966 -2.214841,0.892578 -0.64209,0.212919 -1.172765,0.331562 -1.546875,0.330079 -0.166667,-6.63e-4 -0.462853,-0.07849 -0.873046,-0.226563 -0.410194,-0.148069 -0.935972,-0.366089 -1.560547,-0.646484 -1.249152,-0.560792 -2.896307,-1.371478 -4.828125,-2.371094 -1.931818,-0.999616 -4.147962,-2.188061 -6.529297,-3.505859 -2.381335,-1.317799 -4.929642,-2.763959 -7.527344,-4.279297 -5.1954,-3.030677 -9.957487,-5.903562 -13.445313,-8.091797 -1.743912,-1.094118 -3.168611,-2.01769 -4.169921,-2.703125 -1.00131,-0.685436 -1.578719,-1.132639 -1.626953,-1.277344 -0.04823,-0.144705 -0.06158,-0.323145 -0.04492,-0.519531 0.01665,-0.196386 0.06396,-0.41146 0.136718,-0.632813 0.07276,-0.221352 0.170928,-0.448365 0.291016,-0.667969 0.120088,-0.219603 0.26129,-0.431907 0.419922,-0.623046 0.186798,-0.225078 0.530911,-0.522564 0.992187,-0.871094 0.461277,-0.34853 1.039062,-0.747194 1.697266,-1.175781 1.316407,-0.857175 2.949085,-1.831018 4.587891,-2.748047 1.638805,-0.917029 3.284209,-1.778486 4.625,-2.408203 0.670395,-0.314859 1.264576,-0.572063 1.74414,-0.75 0.479565,-0.177938 0.845459,-0.275818 1.056641,-0.273438 z M 51.277344,79.179688 c 0.07655,-0.02938 0.261677,0.0064 0.544922,0.09961 0.283244,0.0932 0.664872,0.242713 1.130859,0.445312 0.931974,0.405199 2.205371,1.017446 3.724609,1.78125 3.038477,1.52761 7.058988,3.666131 11.296875,5.996094 4.237887,2.329963 8.693221,4.851066 12.597657,7.140625 1.952218,1.14478 3.766212,2.232323 5.347656,3.208984 1.581443,0.976662 2.930157,1.841724 3.949219,2.544917 0.335714,0.23166 0.630198,0.43492 0.886718,0.65235 0.256521,0.21743 0.475313,0.44966 0.66211,0.74023 0.186796,0.29057 0.340254,0.63876 0.466797,1.08985 0.126542,0.45108 0.226977,1.00415 0.302734,1.70312 0.07576,0.69897 0.127667,1.5439 0.162109,2.57813 0.03444,1.03422 0.05014,2.25799 0.05273,3.71484 0.0052,2.91371 -0.044,6.76023 -0.109375,11.88867 -0.05523,4.33281 -0.112275,7.78445 -0.1875,10.52735 -0.07523,2.74289 -0.167125,4.77726 -0.291016,6.27734 -0.06194,0.75004 -0.133404,1.36667 -0.212891,1.87109 -0.07949,0.50442 -0.166967,0.89703 -0.267578,1.19922 -0.100611,0.30219 -0.214525,0.51291 -0.339843,0.65625 -0.125319,0.14334 -0.262406,0.21821 -0.416016,0.2461 -0.1,0.0181 -0.307339,-0.0241 -0.609375,-0.12305 -0.302036,-0.099 -0.698816,-0.25444 -1.179688,-0.45899 -0.961742,-0.40909 -2.258997,-1.01681 -3.796874,-1.77929 -1.537878,-0.76248 -3.317687,-1.67929 -5.246094,-2.70313 -1.928408,-1.02383 -4.005342,-2.15448 -6.138672,-3.34765 -2.044596,-1.14355 -3.906474,-2.20631 -5.603516,-3.20313 -1.697042,-0.99682 -3.229774,-1.9276 -4.613281,-2.80664 -1.383507,-0.87904 -2.618665,-1.70785 -3.722656,-2.49805 -1.103991,-0.79019 -2.075101,-1.54315 -2.933594,-2.27343 -0.858493,-0.73029 -1.602986,-1.4374 -2.25,-2.13672 -0.647014,-0.69932 -1.196462,-1.3906 -1.666016,-2.08789 -0.469553,-0.6973 -0.859435,-1.4008 -1.185547,-2.125 -0.326111,-0.7242 -0.589952,-1.468 -0.80664,-2.24805 -0.132785,-0.47801 -0.259293,-1.39287 -0.375,-2.63477 -0.115707,-1.24189 -0.220586,-2.81178 -0.308594,-4.60156 -0.08801,-1.78978 -0.159297,-3.80022 -0.208984,-5.92187 -0.04969,-2.12165 -0.07738,-4.354283 -0.07813,-6.591799 -0.0012,-3.358875 0.01369,-6.061035 0.05469,-8.232422 0.041,-2.171387 0.108497,-3.812288 0.212891,-5.046875 0.0522,-0.617293 0.113538,-1.132403 0.185547,-1.5625 0.07201,-0.430097 0.153583,-0.774591 0.248047,-1.048828 0.09446,-0.274237 0.200751,-0.479194 0.320312,-0.628906 0.119561,-0.149712 0.25309,-0.244258 0.400391,-0.300781 z m 90.267576,0.01172 c 0.14222,0.05457 0.27082,0.150159 0.38672,0.302735 0.1159,0.152575 0.2205,0.36272 0.3125,0.642578 0.092,0.279857 0.17167,0.629986 0.24219,1.066406 0.0705,0.43642 0.13213,0.959767 0.18359,1.582031 0.10293,1.244529 0.16972,2.889143 0.21094,5.052735 0.0412,2.163591 0.0558,4.845207 0.0547,8.162109 -7.5e-4,2.237516 -0.0276,4.468478 -0.0762,6.585938 -0.0486,2.11746 -0.11901,4.12199 -0.20508,5.90429 -0.0861,1.78231 -0.18763,3.34219 -0.30078,4.57422 -0.11316,1.23204 -0.23734,2.1349 -0.36719,2.60157 -0.22097,0.79415 -0.48188,1.547 -0.79883,2.27343 -0.31695,0.72644 -0.69045,1.42796 -1.13867,2.11719 -0.44822,0.68924 -0.97118,1.36627 -1.58594,2.04883 -0.61476,0.68255 -1.32208,1.36978 -2.13867,2.07617 -0.81659,0.70639 -1.74123,1.43261 -2.79492,2.19336 -1.05369,0.76075 -2.23643,1.55671 -3.5625,2.40234 -1.32608,0.84563 -2.79596,1.74015 -4.42969,2.70118 -1.63373,0.96102 -3.42958,1.98876 -5.40625,3.0957 -4.12079,2.30765 -7.34436,4.09219 -9.87305,5.4414 -1.26434,0.67461 -2.35619,1.24019 -3.29883,1.70704 -0.94263,0.46684 -1.73639,0.83492 -2.4082,1.11523 -0.6718,0.28031 -1.22002,0.47288 -1.67187,0.58789 -0.45186,0.11501 -0.80706,0.15407 -1.08985,0.125 -0.28278,-0.0291 -0.4936,-0.12543 -0.6582,-0.27734 -0.1646,-0.15191 -0.28358,-0.35976 -0.38086,-0.61328 -0.0711,-0.1854 -0.13121,-0.92054 -0.17969,-2.08985 -0.0485,-1.1693 -0.0844,-2.77398 -0.10742,-4.69531 -0.0461,-3.84266 -0.0392,-8.95656 0.0332,-14.41602 0.0329,-2.48157 0.0612,-4.65355 0.10157,-6.5625 0.0403,-1.90894 0.0928,-3.55449 0.17187,-4.98632 0.0791,-1.43184 0.18477,-2.64896 0.33399,-3.69922 0.14921,-1.05026 0.34114,-1.93501 0.59179,-2.69922 0.12533,-0.3821 0.26532,-0.734 0.42188,-1.0625 0.15655,-0.3285 0.32977,-0.63308 0.52148,-0.91992 0.19171,-0.28684 0.40204,-0.55538 0.63281,-0.8125 0.23078,-0.25712 0.48211,-0.50285 0.75586,-0.742189 0.54751,-0.478679 1.1848,-0.932905 1.92774,-1.412109 0.74294,-0.479204 1.5928,-0.983339 2.5625,-1.558594 2.13333,-1.265562 4.18185,-2.380955 5.76367,-3.158203 0.79091,-0.388624 1.46476,-0.692481 1.97461,-0.888672 0.50985,-0.196191 0.85495,-0.283379 0.98828,-0.240234 0.13334,0.04314 0.26759,0.203714 0.39648,0.458984 0.1289,0.25527 0.25223,0.604424 0.36329,1.021485 0.11105,0.41706 0.20925,0.903124 0.28906,1.43164 0.0798,0.528516 0.14062,1.099817 0.17578,1.689453 0.0633,1.062047 0.14392,2.025709 0.24414,2.896479 0.10022,0.87078 0.22109,1.64733 0.36328,2.33399 0.14219,0.68665 0.30686,1.28328 0.4961,1.79297 0.18923,0.50968 0.40317,0.93357 0.64453,1.27343 0.24135,0.33987 0.51003,0.59625 0.80859,0.77344 0.29856,0.17719 0.62745,0.27521 0.98828,0.29688 0.36084,0.0217 0.75345,-0.0335 1.18164,-0.16016 0.42819,-0.1267 0.89196,-0.32582 1.39258,-0.59375 0.20303,-0.10866 0.38465,-0.22212 0.54688,-0.35352 0.16222,-0.13139 0.30381,-0.28049 0.42968,-0.45703 0.12588,-0.17653 0.23608,-0.38091 0.33008,-0.625 0.094,-0.24408 0.17169,-0.52729 0.23828,-0.86132 0.13318,-0.66808 0.21725,-1.53882 0.26758,-2.70118 0.0503,-1.162348 0.0671,-2.617224 0.0703,-4.453119 0.004,-2.323951 0.0889,-4.560877 0.22071,-6.292969 0.0659,-0.866046 0.14259,-1.604719 0.22851,-2.166016 0.0859,-0.561296 0.18134,-0.945631 0.2793,-1.097656 0.16194,-0.251323 0.48493,-0.568888 0.92969,-0.93164 0.44476,-0.362753 1.01086,-0.77024 1.6582,-1.201172 1.29467,-0.861865 2.91356,-1.816318 4.53711,-2.691407 1.62355,-0.875089 3.25199,-1.670568 4.5625,-2.21289 0.65525,-0.271161 1.23087,-0.478467 1.6875,-0.601563 0.45663,-0.123095 0.79293,-0.161968 0.9707,-0.09375 z"
       inkscape:label="original"
       class="UnoptimicedTransforms" /><path
       style="display:inline;opacity:1;fill:none;fill-opacity:0.999846;stroke:#000000;stroke-width:12;stroke-linecap:round;stroke-linejoin:round;stroke-miterlimit:6;stroke-dasharray:none;paint-order:fill markers stroke"
       d="M 96,40.47028 44.231285,70.358961 V 123.8482 L 96,153.73688 148.70286,123.30887 V 71.521363 Z"
       id="path5215" /><path
       style="display:inline;opacity:1;fill:none;fill-opacity:0.999846;stroke:#000000;stroke-width:12;stroke-linecap:round;stroke-linejoin:round;stroke-miterlimit:6;stroke-dasharray:none;paint-order:fill markers stroke"
       d="M 44.231285,70.358961 96,100.24764 147.24405,70.661874"
       id="path5217" /><path
       style="display:inline;opacity:1;fill:none;fill-opacity:0.999846;stroke:#000000;stroke-width:12;stroke-linecap:round;stroke-linejoin:round;stroke-miterlimit:6;stroke-dasharray:none;paint-order:fill markers stroke"
       d="m 96,100.24764 v 53.48924"
       id="path5219"
       sodipodi:nodetypes="cc" /><path
       style="display:inline;opacity:1;fill:none;fill-opacity:0.999846;stroke:#000000;stroke-width:12;stroke-linecap:round;stroke-linejoin:round;stroke-miterlimit:6;stroke-dasharray:none;paint-order:fill markers stroke"
       d="M 70.115643,55.41462 121.88436,85.303301 V 106.16886"
       id="path5221" /></g><g
     inkscape:groupmode="layer"
     id="layer3"
     inkscape:label="guide"
     style="display:none"><ellipse
       style="display:inline;fill:none;stroke:#a49de3;stroke-width:0.430226;stroke-dasharray:none;stroke-opacity:1"
       id="path1961"
       cx="96"
       cy="96"
       rx="79.784882"
       ry="79.784889" /></g></svg>
