<svg width="192" height="192" fill="none" xmlns="http://www.w3.org/2000/svg"><path d="M170 61a39 39 0 0 0-39-39m17 39a17.006 17.006 0 0 0-10.494-15.706A17.006 17.006 0 0 0 131 44M22 111a59 59 0 0 1 105-36.946M96.27 167.99a58.993 58.993 0 0 1-44.77-5.894A58.998 58.998 0 0 1 26.255 133M150 152l-10-60v19a59.003 59.003 0 0 1-43.73 56.99" stroke="#000" stroke-width="12" stroke-linecap="round" stroke-linejoin="round"/><path d="M64.5 167.566A59 59 0 0 0 106.73 111V92l10.75 64.5" stroke="#000" stroke-width="12" stroke-linecap="round" stroke-linejoin="round"/></svg>