<?xml version="1.0" encoding="utf-8"?>
	<svg version="1.1" xmlns="http://www.w3.org/2000/svg" xmlns:xlink="http://www.w3.org/1999/xlink" x="0px" y="0px" width="240.0" height="240.0" xml:space="preserve">
		<path d="M158.059,97.13C158.059,98.98 158.06,100.354 158.059,101.727C158.043,121.681 158.019,141.634 158.015,161.589C158.014,167.221 159.329,168.964 163.504,169.024C167.829,169.087 169.145,167.262 169.135,161.386C169.103,142.679 169.095,123.972 169.079,105.264C169.077,103.324 168.866,101.351 169.167,99.46C169.315,98.538 170.347,97.14 171.111,97.049C173.645,96.743 176.237,96.933 178.922,96.933C179.063,98.983 179.152,100.351 179.253,101.718C179.481,104.824 181.505,106.041 184.268,106.191C187.192,106.351 189.792,105.316 189.971,102.079C190.269,96.743 190.052,91.379 190.052,86.01L137.105,86.01C137.105,91.28 137.001,96.247 137.14,101.206C137.241,104.835 139.569,106.307 142.954,106.172C146.209,106.042 148.086,104.393 148.094,100.949C148.097,99.746 148.23,98.542 148.316,97.13L158.059,97.13ZM102.586,85.703C99.472,85.703 96.695,85.927 93.972,85.647C90.54,85.294 88.372,86.458 86.531,89.451C83.446,94.469 79.892,99.197 76.329,104.345C72.331,98.613 68.739,93.363 65.015,88.209C64.277,87.188 63.071,85.906 62.004,85.829C58.064,85.545 54.091,85.716 49.777,85.716C49.777,98.186 49.778,110.075 49.777,121.964C49.777,135.542 49.754,149.122 49.787,162.7C49.798,167.203 51.317,168.998 54.985,169.132C59.254,169.289 60.739,167.808 60.746,163.036C60.776,144.193 60.748,125.349 60.742,106.505C60.741,105.065 60.742,103.625 60.742,102.186C64.606,108.098 70.576,112.405 71.323,119.835C71.602,122.614 73.618,124.175 76.587,124.064C79.543,123.954 81.269,122.331 81.521,119.47C82.162,112.192 88.052,108.06 91.456,102.298C91.915,103.193 91.915,103.969 91.915,104.744C91.905,120.263 91.895,135.781 91.888,151.299C91.886,155.456 91.775,159.616 91.927,163.767C92.079,167.899 93.962,169.358 98.088,169.132C102.29,168.903 102.886,166.02 102.887,162.756C102.89,137.954 102.862,113.152 102.833,88.35C102.832,87.676 102.712,87.004 102.586,85.703L102.586,85.703ZM119.664,196.258C90.148,196.263 60.631,196.273 31.115,196.258C23.451,196.253 20,192.76 20,185.079C20,141.555 20,98.031 20.011,54.506C20.013,46.529 23.121,43.416 31.018,43.36C52.628,43.203 74.24,42.874 95.848,43.051C98.937,43.076 102.457,44.954 104.984,46.969C109.293,50.406 113.057,54.551 116.883,58.558C119.15,60.932 121.64,61.871 124.956,61.849C150.289,61.687 175.625,61.689 200.959,61.642C203.314,61.638 205.671,61.62 208.026,61.652C216.054,61.758 219.971,65.694 219.977,73.745C219.995,101.051 219.987,128.358 219.989,155.664C219.99,165.367 220.015,175.07 219.986,184.773C219.962,192.679 216.434,196.243 208.63,196.246C178.974,196.259 149.319,196.251 119.664,196.258L119.664,196.258Z" fill="#000" stroke="#00000000" stroke-width="1.0" stroke-miterlimit=""/>
	</svg>
