<svg width="192" height="192" fill="none" xmlns="http://www.w3.org/2000/svg"><path d="M144 160H48m96-38H48m108-29H36m12 29a19 19 0 0 0 0 38m108-67c0-14.587-6.321-28.576-17.574-38.89C127.174 43.794 111.913 38 96 38s-31.174 5.795-42.426 16.11C42.32 64.423 36 78.412 36 93m108 67a19 19 0 0 0 0-38" stroke="#000" stroke-width="12" stroke-linecap="round" stroke-linejoin="round"/><circle cx="71" cy="71" r="4" stroke="#000" stroke-width="8" stroke-linecap="round" stroke-linejoin="round"/><circle cx="121" cy="71" r="4" stroke="#000" stroke-width="8" stroke-linecap="round" stroke-linejoin="round"/><path d="m50 30 12 17m-40 61 2 2m146-2-2 2m-26-80-12 17" stroke="#000" stroke-width="12" stroke-linecap="round" stroke-linejoin="round"/></svg>