<?xml version="1.0" encoding="UTF-8" standalone="no"?>
<!-- Created with Inkscape (http://www.inkscape.org/) -->

<svg
   width="192"
   height="192"
   viewBox="0 0 192 192"
   version="1.1"
   id="svg5"
   xml:space="preserve"
   xmlns="http://www.w3.org/2000/svg"
   xmlns:svg="http://www.w3.org/2000/svg"><defs
     id="defs2"><rect
       x="96.227392"
       y="50.98967"
       width="47.77568"
       height="30.367166"
       id="rect10" /><rect
       x="96.227394"
       y="50.98967"
       width="47.775681"
       height="30.367167"
       id="rect10-5" /><rect
       x="96.227394"
       y="50.98967"
       width="47.775681"
       height="30.367167"
       id="rect10-5-9" /><rect
       x="96.227394"
       y="50.98967"
       width="47.775681"
       height="30.367167"
       id="rect10-5-3" /><rect
       x="96.227394"
       y="50.98967"
       width="47.775681"
       height="30.367167"
       id="rect10-5-1" /></defs><g
     id="layer1"
     style="display:inline"><path
       id="path8"
       style="display:inline;fill:none;fill-opacity:0.999846;stroke:#000000;stroke-width:12.0001;stroke-linecap:round;stroke-linejoin:round;stroke-miterlimit:6;stroke-dasharray:none;paint-order:fill markers stroke"
       d="m 80.280349,169.84717 -30.221442,-0.0754 v 0 L 21.999954,78.302713 36.037654,67.640547" /><path
       id="path13"
       style="display:inline;fill:none;fill-opacity:0.999846;stroke:#000000;stroke-width:12.0001;stroke-linecap:round;stroke-linejoin:round;stroke-miterlimit:6;stroke-dasharray:none;paint-order:fill markers stroke"
       d="m 111.9751,169.9262 -31.694752,-0.079" /><path
       id="path11"
       style="display:inline;fill:none;fill-opacity:0.999846;stroke:#000000;stroke-width:12.0001;stroke-linecap:round;stroke-linejoin:round;stroke-miterlimit:6;stroke-dasharray:none;paint-order:fill markers stroke"
       d="M 36.03765,67.640544 96.127654,21.999897 155.62041,67.640421" /><path
       id="path12"
       style="display:inline;fill:none;fill-opacity:0.999846;stroke:#000000;stroke-width:12.0001;stroke-linecap:round;stroke-linejoin:round;stroke-miterlimit:6;stroke-dasharray:none;paint-order:fill markers stroke"
       d="m 155.62041,67.640421 14.37964,11.031495 -28.47204,91.328044 -29.55289,-0.0737" /><path
       style="display:inline;fill:none;fill-opacity:0.999846;stroke:#000000;stroke-width:11.1628;stroke-linecap:round;stroke-linejoin:round;stroke-miterlimit:6;stroke-dasharray:none;paint-order:fill markers stroke"
       id="path9"
       d="M 67.051818,102.77706 102.39405,38.113412 29.973919,24.483116 102.39405,38.11341 l -9.41587,-73.08763 9.41587,73.087629 66.6008,-31.5403433 -66.6008,31.5403453 50.57743,53.594626 -50.57743,-53.594624 z"
       transform="matrix(1.037848,0.14179727,-0.13393728,1.0951499,-5.4929902,47.331181)" /></g></svg>
