<?xml version="1.0" encoding="utf-8"?>
	<svg version="1.1" xmlns="http://www.w3.org/2000/svg" xmlns:xlink="http://www.w3.org/1999/xlink" x="0px" y="0px" width="240.0" height="240.0" xml:space="preserve">
		<path d="M114.407,41C118.169,41 121.928,41 125.69,41C127.02,41.154 128.35,41.297 129.678,41.468C144.691,43.388 158.11,49.063 169.887,58.574C170.735,59.261 171.523,59.507 172.607,59.327C182.265,57.714 191.962,56.605 201.782,57.297C206.544,57.631 211.23,58.357 215.718,60.056C221.87,62.384 226.672,66.173 228.97,72.574C229.396,73.759 229.661,75.002 230,76.219C230,78.06 230,79.902 230,81.742C229.403,84.48 228.677,87.17 227.455,89.717C224.749,95.357 220.897,100.163 216.619,104.651C211.55,109.969 205.933,114.674 200.071,119.085C199.288,119.676 198.923,120.314 198.958,121.301C199.034,123.566 198.806,125.821 198.543,128.068C196.259,147.571 187.975,164.096 173.46,177.297C156.614,192.618 136.648,199.34 113.937,197.809C102.061,197.01 90.995,193.471 80.675,187.577C80.226,187.322 79.472,187.176 79.497,186.616C79.52,186.061 80.285,185.982 80.749,185.749C90.557,180.828 99.906,175.206 108.133,167.867C108.66,167.397 109.631,166.963 109.082,166.039C108.552,165.145 107.695,165.705 107.005,165.931C98.322,168.775 89.543,171.269 80.636,173.309C67.066,176.416 53.404,178.779 39.392,177.995C34.196,177.705 29.088,176.921 24.206,175.033C18.319,172.758 13.601,169.179 11.27,163.07C9.166,157.552 9.841,152.14 12.086,146.834C14.762,140.511 19.011,135.281 23.706,130.382C28.738,125.134 34.298,120.487 40.092,116.112C40.786,115.589 41.181,115.017 41.257,114.132C41.439,112.032 41.618,109.928 41.946,107.846C44.841,89.523 53.097,74.04 66.785,61.515C77.683,51.534 90.462,45.204 104.961,42.33C108.087,41.71 111.258,41.44 114.407,41ZM64.268,127.566C64.268,131.669 64.254,135.774 64.275,139.877C64.284,141.592 64.95,142.26 66.642,142.283C68.829,142.313 71.015,142.3 73.202,142.293C75.636,142.286 76.134,141.776 76.132,139.289C76.125,132.577 76.102,125.867 76.104,119.155C76.106,116.091 77.994,114.676 80.963,115.508C82.994,116.077 85.011,116.7 87.032,117.299C89.095,117.912 91.179,118.396 93.339,118.532C98.88,118.88 103.965,117.511 108.709,114.657C112.752,112.228 116.843,109.872 120.951,107.553C123.21,106.279 125.236,107.514 125.287,110.11C125.305,111.029 125.273,111.951 125.303,112.871C125.561,121.264 133.447,126.008 140.984,122.313C143.739,120.962 146.488,119.6 149.259,118.279C151.398,117.26 153.208,118.295 153.466,120.658C153.533,121.266 153.526,121.884 153.526,122.495C153.53,128.285 153.521,134.077 153.537,139.868C153.542,141.539 154.084,142.23 155.508,142.258C158.115,142.309 160.727,142.304 163.334,142.258C164.599,142.235 165.185,141.58 165.265,140.296C165.295,139.838 165.284,139.377 165.284,138.916C165.286,130.786 165.288,122.656 165.284,114.524C165.281,111.762 166.425,109.75 168.999,108.581C170.71,107.805 172.36,106.892 174.075,106.129C175.2,105.626 175.739,104.833 175.749,103.637C175.772,100.839 175.845,98.038 175.79,95.24C175.756,93.548 174.37,92.773 172.787,93.428C172.54,93.53 172.3,93.654 172.058,93.774C164.871,97.328 157.686,100.885 150.499,104.435C147.233,106.048 143.971,107.676 140.687,109.252C138.792,110.163 137.291,109.231 137.188,107.134C137.146,106.293 137.199,105.444 137.148,104.603C136.982,101.835 136.04,99.354 134.184,97.28C130.22,92.85 124.273,91.99 118.906,95.067C113.282,98.292 107.672,101.537 102.068,104.797C98.641,106.79 95.049,107.3 91.216,106.207C87.749,105.218 84.259,104.31 80.781,103.356C78.67,102.777 76.524,102.667 74.401,103.121C68.461,104.386 64.348,109.464 64.277,115.591C64.231,119.59 64.268,123.578 64.268,127.566ZM196.157,74.183C192.631,74.211 189.535,74.446 186.439,74.674C185.268,74.76 185.16,74.992 185.817,75.981C187.49,78.51 189.039,81.11 190.422,83.807C192.845,88.53 194.77,93.447 196.192,98.559C196.57,99.919 196.595,99.931 197.683,98.983C198.668,98.128 199.643,97.264 200.59,96.367C204.557,92.614 208.289,88.664 211.078,83.92C211.859,82.592 212.477,81.195 212.811,79.681C213.046,78.618 212.721,77.807 211.836,77.185C210.947,76.558 209.953,76.161 208.927,75.834C204.633,74.471 200.189,74.315 196.157,74.183ZM44.843,161.023C46.964,160.802 49.2,161.026 51.41,160.712C52.634,160.539 52.646,160.514 52.014,159.396C51.297,158.128 50.569,156.865 49.894,155.574C46.865,149.768 44.597,143.676 43.119,137.293C42.845,136.104 42.644,136.018 41.851,136.721C38.115,140.036 34.563,143.53 31.55,147.527C29.747,149.92 28.033,152.382 27.341,155.374C27.018,156.764 27.297,157.43 28.491,158.195C29.667,158.947 30.967,159.401 32.308,159.753C36.391,160.83 40.572,160.924 44.843,161.023Z" fill="#000" stroke="" stroke-width="" stroke-miterlimit=""/>
	</svg>
