<?xml version="1.0" encoding="utf-8"?>
	<svg version="1.1" xmlns="http://www.w3.org/2000/svg" xmlns:xlink="http://www.w3.org/1999/xlink" x="0px" y="0px" width="1024.0" height="1024.0" xml:space="preserve">
		<path d="M533.8 952.4c-6.3-6.4-14.7-9.9-23.7-10C275.3 941 85.5 748.8 86.9 514.1c0.9-152.7 86.8-295.9 219.6-370 5-2.8 9.9-5.7 15-8.2l8.4 22 5.1 13.7 0.1-0.2 0.1 0.3 53.5-82L407 62.1h-0.1l0.2-0.3-78.4-19-45.4-11.2 0.1 0.2-0.3-0.1 15.4 40.9C130.2 154 20.8 327.1 19.7 513.7 18.9 645.1 69.5 769.2 162.2 863c92.7 93.8 216.1 145.8 347.6 146.6h0.2c18.4 0 33.5-15 33.6-33.4 0-8.9-3.5-17.4-9.8-23.8zM1005.7 515.5c0.8-131.5-49.8-255.5-142.5-349.3C770.6 72.4 647.1 20.4 515.5 19.6c-18.4 0-33.5 15-33.6 33.4-0.1 18.5 14.9 33.7 33.4 33.8 113.5 0.7 220.2 45.7 300.2 126.7s123.7 188.1 123.1 301.7c-0.9 153.2-87.4 296.8-220.9 370.7-4.6 2.5-9.1 5.2-13.7 7.5l-8.3-21.7-5.2-13.9-0.1 0.2-0.1-0.4-53.8 82.4-17.9 27.2h0.1l-0.2 0.3 123.8 30.4c0.1 0 0.2 0 0.2-0.1 0.1-0.1 0.1-0.2 0.1-0.3l-15.6-41c168.2-81.3 277.6-254.4 278.7-441z" fill="#ff333333" stroke="" stroke-width="" stroke-miterlimit=""/>
		<path d="M444.8 323.5c18.5 0 33.6 15.1 33.6 33.6v315c0 18.5-15.1 33.6-33.6 33.6s-33.6-15.1-33.6-33.6v-315c0-18.5 15.2-33.6 33.6-33.6zM580.6 373.5c18.5 0 33.6 15.1 33.6 33.6V622c0 18.5-15.1 33.6-33.6 33.6S547 640.5 547 622V407.1c0-18.4 15.1-33.6 33.6-33.6zM716.3 449.2c18.5 0 33.6 15.1 33.6 33.6v63.5c0 18.5-15.1 33.6-33.6 33.6s-33.6-15.1-33.6-33.6v-63.5c0-18.4 15.1-33.6 33.6-33.6zM309.1 449.2c18.5 0 33.6 15.1 33.6 33.6v63.5c0 18.5-15.1 33.6-33.6 33.6s-33.6-15.1-33.6-33.6v-63.5c0-18.4 15.1-33.6 33.6-33.6z" fill="#ff333333" stroke="" stroke-width="" stroke-miterlimit=""/>
	</svg>
