<svg xmlns="http://www.w3.org/2000/svg" width="192" height="192" fill="none"><path stroke="#000" stroke-linecap="round" stroke-linejoin="round" stroke-width="10" d="M60 50v20M50 60h20m52 0h20m-25 58h20m-20 18h20m-84-11.071L60.071 132m0 0 7.071 7.071M60.072 132 53 139.071M60.071 132l7.071-7.071"/><path stroke="#000" stroke-linecap="round" stroke-linejoin="round" stroke-width="12" d="M96 27v69m-69 0h69m32 71H31a6 6 0 0 1-6-6V31a6 6 0 0 1 6-6h130a6 6 0 0 1 6 6v97"/><circle cx="127" cy="127" r="40" stroke="#000" stroke-linecap="round" stroke-linejoin="round" stroke-width="12"/></svg>