<svg xmlns="http://www.w3.org/2000/svg" width="192" height="192" fill="none" viewBox="0 0 192 192"><path stroke="#000" stroke-linecap="round" stroke-linejoin="round" stroke-width="12" d="M115.799 73.015a28.05 28.05 0 0 1-4.243 43.166 28.05 28.05 0 0 1-41.425-12.591 28.07 28.07 0 0 1 6.07-30.575M110 78.825l5.8-5.81m-39.598-.003C88.4 60.79 91.967 56.878 93.173 53.961a24.09 24.09 0 0 0-5.202-26.207c-3.414-3.42-8.915-3.783-12.329-.363L30.268 72.853c-11.024 11.046-11.024 28.955 0 40l45.772 45.863c11.023 11.045 28.897 11.045 39.92 0l45.772-45.863c11.024-11.045 11.024-28.954 0-40l-38.443-38.519a5.99 5.99 0 0 0-8.485 0zm0 0-.002.002"/></svg>