<svg width="192" height="192" viewBox="0 0 192 192" fill="none" xmlns="http://www.w3.org/2000/svg"><path d="M115.799 73.015a28.07 28.07 0 0 1 7.663 14.365 28.113 28.113 0 0 1-1.593 16.21 28.05 28.05 0 0 1-10.313 12.591A27.967 27.967 0 0 1 96 120.909a27.967 27.967 0 0 1-15.556-4.728 28.047 28.047 0 0 1-10.313-12.591 28.108 28.108 0 0 1-1.593-16.21 28.073 28.073 0 0 1 7.663-14.365M110 78.825l5.8-5.81m-39.598-.003C88.4 60.79 91.967 56.878 93.173 53.961a24.09 24.09 0 0 0-5.202-26.207c-3.414-3.42-8.915-3.783-12.329-.363L30.268 72.853c-11.024 11.046-11.024 28.955 0 40l45.772 45.863c11.023 11.045 28.897 11.045 39.92 0l45.772-45.863c11.024-11.045 11.024-28.954 0-40l-38.443-38.519a5.991 5.991 0 0 0-8.485 0L76.202 73.012Zm0 0-.002.002" stroke="#000" stroke-width="12" stroke-linecap="round" stroke-linejoin="round"/></svg>