<?xml version="1.0" encoding="UTF-8" standalone="no"?>
<svg
   width="192"
   height="192"
   viewBox="0 0 192 192"
   fill="none"
   version="1.1"
   id="svg14"
   sodipodi:docname="mupdf.svg"
   inkscape:version="1.1.2 (0a00cf5339, 2022-02-04, custom)"
   xmlns:inkscape="http://www.inkscape.org/namespaces/inkscape"
   xmlns:sodipodi="http://sodipodi.sourceforge.net/DTD/sodipodi-0.dtd"
   xmlns="http://www.w3.org/2000/svg"
   xmlns:svg="http://www.w3.org/2000/svg">
  <defs
     id="defs18">
    <clipPath
       id="clipPath2999">
      <path
         d="M 0,0 H 612 V 792 H 0 Z"
         id="path3001" />
    </clipPath>
  </defs>
  <sodipodi:namedview
     id="namedview16"
     pagecolor="#ffffff"
     bordercolor="#666666"
     borderopacity="1.0"
     inkscape:pageshadow="2"
     inkscape:pageopacity="0.0"
     inkscape:pagecheckerboard="0"
     showgrid="false"
     inkscape:zoom="4.546875"
     inkscape:cx="174.84536"
     inkscape:cy="96.549828"
     inkscape:window-width="2516"
     inkscape:window-height="1396"
     inkscape:window-x="0"
     inkscape:window-y="0"
     inkscape:window-maximized="0"
     inkscape:current-layer="layer1" />
  <g
     transform="matrix(0.62697534,0,0,0.61628611,-177.54223,-159.29366)"
     id="layer1">
    <g
       id="g2053"
       transform="translate(0.03760246,0.40081415)">
      <g
         transform="matrix(1.25,0,0,-1.3109354,474.97466,363.83725)"
         id="g3035"
         style="fill:#000000">
        <path
           d="m 0,0 v -41.297 c -4.614,0.775 -9.004,2.076 -13.086,3.832 z m 29.787,3.459 c 0,21.194 3.114,25.225 20.566,25.36 -0.386,0.579 -0.805,1.134 -1.215,1.695 0.028,-0.028 0.058,-0.054 0.086,-0.082 -0.122,0.168 -0.255,0.326 -0.379,0.492 -0.29,0.389 -0.586,0.772 -0.888,1.152 -0.357,0.45 -0.724,0.892 -1.097,1.329 -0.277,0.325 -0.553,0.651 -0.839,0.969 -0.47,0.522 -0.956,1.029 -1.448,1.531 -0.213,0.217 -0.418,0.44 -0.635,0.653 -8.753,8.609 -20.75,13.928 -33.998,13.928 -16.16,0 -30.463,-7.905 -39.283,-20.053 9.44,9.555 23.53,15.626 39.283,15.626 10.552,0 20.349,-2.734 28.51,-7.405 H -9.642 l -21.513,-62.485 c 0.634,-1.011 1.318,-1.962 2.024,-2.884 -0.069,0.069 -0.143,0.134 -0.212,0.204 8.82,-12.149 23.123,-20.053 39.283,-20.053 16.161,0 30.465,7.905 39.284,20.054 -5.223,-5.286 -11.873,-9.499 -19.437,-12.215 z"
           id="path3037"
           style="fill:#000000;fill-opacity:1;fill-rule:nonzero;stroke:none" />
      </g>
      <g
         transform="matrix(1.25,0,0,-1.25,431.84444,426.86331)"
         id="g3023"
         style="fill:#000000">
        <path
           d="M 0,0 -19.833,-57.952 -62.599,67.654 H -98.522 V -92.453 h 21.734 V 37.635 L -32.7,-92.453 h 21.169 l 27.767,81.932 C 10.307,-7.801 4.847,-4.246 0,0"
           id="path3025"
           style="fill:#000000;fill-opacity:1;fill-rule:nonzero;stroke:none" />
      </g>
      <g
         transform="matrix(1.25,0,0,-1.25,478.05356,462.44194)"
         id="g3039"
         style="fill:#000000">
        <path
           d="M 0,0 V 6.361 C 0,7.465 0.896,8.197 2,7.994 3.104,7.792 4,6.731 4,5.627 V -0.26 c 1.059,-0.043 2.115,-0.07 3.164,-0.07 3.894,0 7.861,0.311 11.826,0.893 v 12.333 c -3.826,-0.678 -7.758,-1.052 -11.779,-1.052 -3.884,0 -7.685,0.349 -11.388,0.982 V 0.49 C -2.783,0.294 -1.39,0.125 0,0"
           id="path3041"
           style="fill:#000000;fill-opacity:1;fill-rule:nonzero;stroke:none" />
      </g>
      <g
         transform="matrix(1.25,0,0,-1.25,487.00869,466.60394)"
         id="g3043"
         style="fill:#000000">
        <path
           d="m 0,0 c -1.049,0 -2.105,0.028 -3.164,0.069 v -55.768 c 0,-1.104 -0.896,-1.835 -2,-1.633 -1.105,0.203 -2,1.263 -2,2.367 V 0.313 c -1.39,0.121 -2.783,0.285 -4.177,0.474 v -60.255 c 0,0 3.861,-2.493 11.388,-2.493 7.527,0 11.779,2.564 11.779,2.564 V 0.858 C 7.862,0.296 3.896,0 0,0"
           id="path3045"
           style="fill:#000000;fill-opacity:1;fill-rule:nonzero;stroke:none" />
      </g>
      <ellipse
         style="fill:none;stroke:#000000;stroke-width:19.636;stroke-linecap:round;stroke-linejoin:round"
         id="path1424"
         cx="486.62277"
         cy="360.67062"
         rx="67.3694"
         ry="67.218727" />
    </g>
  </g>
</svg>
