<svg xmlns="http://www.w3.org/2000/svg" width="192" height="192" fill="none"><path stroke="#000" stroke-linecap="round" stroke-linejoin="round" stroke-width="12" d="M130 154a6 6 0 0 0 6-6v-33.352c0-1.687-.71-3.296-1.956-4.433L62.175 44.651C46.768 30.595 22 41.526 22 62.38V148a6 6 0 0 0 6 6h51"/><path stroke="#000" stroke-linecap="round" stroke-linejoin="round" stroke-width="12" d="M170 62.381c0-20.855-24.768-31.786-40.175-17.73l-71.869 65.564A6 6 0 0 0 56 114.648V148a6 6 0 0 0 6 6h102a6 6 0 0 0 6-6z"/></svg>