<svg xmlns="http://www.w3.org/2000/svg" width="192" height="192" fill="none" viewBox="0 0 192 192"><path stroke="#000" stroke-linejoin="round" stroke-width="12" d="M82 52h38a6 6 0 0 0 6-6V28a6 6 0 0 0-6-6H88a6 6 0 0 0-6 6zm0 0v88m0 0c0-16.569-13.431-30-30-30-16.568 0-30 13.431-30 30s13.432 30 30 30c16.569 0 30-13.431 30-30Z"/><path stroke="#000" stroke-linecap="round" stroke-width="12" d="M107 79.5h63m-63 24h63m-63 24h22"/><path stroke="#000" stroke-linecap="round" stroke-linejoin="round" stroke-width="12" d="m158 155-12-9m12 9 12-9m-12 9v-27"/></svg>