<svg width="192" height="192" viewBox="0 0 192 192" fill="none" xmlns="http://www.w3.org/2000/svg"><path d="M122 113c0 3.02-.673 6.011-1.979 8.802-1.307 2.79-3.222 5.326-5.636 7.461-2.415 2.136-5.281 3.83-8.435 4.986A28.97 28.97 0 0 1 96 136c-3.414 0-6.795-.595-9.95-1.751-3.154-1.156-6.02-2.85-8.435-4.986-2.414-2.135-4.33-4.671-5.636-7.461A20.724 20.724 0 0 1 70 113h52Z" stroke="#000" stroke-width="10" stroke-linecap="round" stroke-linejoin="round"/><circle cx="96" cy="110" r="50" stroke="#000" stroke-width="12" stroke-linecap="round" stroke-linejoin="round"/><path d="M155 91A58.999 58.999 0 0 0 54.28 49.28 59 59 0 0 0 37 91" stroke="#000" stroke-width="12" stroke-linecap="round" stroke-linejoin="round"/><path d="M144.824 130.319a20.006 20.006 0 0 0 17.351-3.452 20 20 0 0 0-17.351-35.186m-97.648 0a20 20 0 1 0 0 38.638" stroke="#000" stroke-width="12" stroke-linecap="round" stroke-linejoin="round"/></svg>