<svg xmlns="http://www.w3.org/2000/svg" width="192" height="192" fill="none" viewBox="0 0 192 192"><path stroke="#000" stroke-linecap="round" stroke-linejoin="round" stroke-width="12" d="M96 119s-57.48 44.783-59 45.66A9.997 9.997 0 0 1 23.34 161a10 10 0 0 1-1.34-5v-26m74-11 74-57m-74 57L22 62m74 57s3.025 2.357 7.706 6M96 73s57.48-44.783 59-45.66A10 10 0 0 1 170 36v26M96 73S40.47 30.328 39.071 28.929A10 10 0 0 0 22 36v26m74 11-74 57m74-57 74 57m-148 0V62m148 0v68m0 0v26a9.997 9.997 0 0 1-10 10q-.503 0-1-.05"/><path stroke="#000" stroke-linecap="round" stroke-linejoin="round" stroke-miterlimit="6" stroke-width="10" d="M124.224 133.103a2.884 2.884 0 0 1 5.552 0l2.248 7.215c.391 1.253 1.512 2.102 2.776 2.102h7.276c2.827 0 4.003 3.773 1.715 5.506l-5.886 4.459c-1.023.775-1.451 2.149-1.06 3.403l2.248 7.214c.874 2.804-2.204 5.136-4.492 3.403l-5.885-4.459a2.824 2.824 0 0 0-3.432 0l-5.885 4.459c-2.288 1.733-5.366-.599-4.492-3.403l2.248-7.214c.391-1.254-.037-2.628-1.06-3.403l-5.886-4.459c-2.288-1.733-1.112-5.506 1.715-5.506h7.276c1.264 0 2.385-.849 2.776-2.102z"/></svg>