<svg width="192" height="192" fill="none" xmlns="http://www.w3.org/2000/svg"><path d="M25 31a6 6 0 0 1 6-6h130a6 6 0 0 1 6 6v130a6 6 0 0 1-6 6H31a6 6 0 0 1-6-6V31Z" stroke="#000" stroke-width="12" stroke-linecap="round" stroke-linejoin="round"/><path d="M116 71a6 6 0 0 1 6-6h12a6 6 0 0 1 6 6v24a6 6 0 0 1-6 6h-12a6 6 0 0 1-6-6V71Zm12 30v45m0-100v19" stroke="#000" stroke-width="12" stroke-linecap="round" stroke-linejoin="round"/><path d="M50 44h8v8h-8v-8Zm0 24h8v8h-8v-8Zm0 24h8v8h-8v-8Zm0 24h8v8h-8v-8Zm0 24h8v8h-8v-8Zm24-72h8v8h-8v-8Zm0 24h8v8h-8v-8Zm0 24h8v8h-8v-8Zm0 24h8v8h-8v-8Z" stroke="#000" stroke-width="8" stroke-linecap="round" stroke-linejoin="round"/></svg>