<svg xmlns="http://www.w3.org/2000/svg" width="192" height="192" fill="none"><path stroke="#000" stroke-linecap="round" stroke-linejoin="round" stroke-width="12" d="M25 31a6 6 0 0 1 6-6h130a6 6 0 0 1 6 6v130a6 6 0 0 1-6 6H31a6 6 0 0 1-6-6z"/><path stroke="#000" stroke-linecap="round" stroke-linejoin="round" stroke-width="12" d="M116 71a6 6 0 0 1 6-6h12a6 6 0 0 1 6 6v24a6 6 0 0 1-6 6h-12a6 6 0 0 1-6-6zm12 30v45m0-100v19"/><path stroke="#000" stroke-linecap="round" stroke-linejoin="round" stroke-width="8" d="M50 44h8v8h-8zm0 24h8v8h-8zm0 24h8v8h-8zm0 24h8v8h-8zm0 24h8v8h-8zm24-72h8v8h-8zm0 24h8v8h-8zm0 24h8v8h-8zm0 24h8v8h-8z"/></svg>