<svg xmlns="http://www.w3.org/2000/svg" width="192" height="192" fill="none" viewBox="0 0 192 192"><path stroke="#000" stroke-linecap="round" stroke-linejoin="round" stroke-width="10" d="M26 152a5 5 0 1 0 0-10 5 5 0 0 0 0 10m29 15a5 5 0 1 0 0-10 5 5 0 0 0 0 10"/><path stroke="#000" stroke-linecap="round" stroke-linejoin="round" stroke-width="12" d="M104 33v118m66-67v16M22 84v16m38-25v34"/><path stroke="#000" stroke-linecap="round" stroke-linejoin="round" stroke-width="10" d="m41 111 6.602 28L74 124.37"/><path stroke="#000" stroke-linecap="round" stroke-linejoin="round" stroke-width="12" d="M148 80v24m-22-31v38M82 80v24"/></svg>