<svg width="192" height="192" fill="none" xmlns="http://www.w3.org/2000/svg"><path d="m136.392 45.731-7.055-19.434a6.53 6.53 0 0 0-3.369-3.686 6.484 6.484 0 0 0-4.976-.216L49.628 48.478a6.498 6.498 0 0 0-3.672 3.377 6.553 6.553 0 0 0-.217 4.996l7.8 21.48 82.853-32.6Zm0 0 23.296 64.479M53.538 78.33l22.553 62.434m0 0c4.094 11.301-1.715 23.799-12.976 27.915-11.26 4.116-23.709-1.709-27.803-13.01-4.094-11.301 1.715-23.799 12.976-27.915 11.26-4.116 23.709 1.709 27.803 13.01Zm83.597-30.554c4.095 11.301-1.715 23.799-12.976 27.915-11.261 4.116-23.709-1.709-27.803-13.01-4.094-11.302 1.715-23.8 12.976-27.915 11.261-4.116 23.709 1.709 27.803 13.01Z" stroke="#000" stroke-width="12" stroke-linecap="round" stroke-linejoin="round"/></svg>