<svg width="192" height="192" viewBox="0 0 192 192" fill="none" xmlns="http://www.w3.org/2000/svg"><path d="M74.394 61.176C78.098 55.343 79.227 49.98 85.222 49c8.661 0 16.205-.18 24.591 4.56 8.387 4.742 2.566 30.07 2.566 30.07 3.89-9.135 7.687-16.615 11.391-22.455 3.705-5.833 7.316-9.898 10.829-12.175 8.787 0 23.561 4.47 26.521 8.323 2.96 3.852-1.933 16.824-2.927 20.695a248.24 248.24 0 0 1-3.486 12.08l-3.764 11.989 11.532-4.57L170 113.506s-23.298 20.935-26.307 23.212c-3.008 2.284-5.812 3.905-8.376 4.856-2.585.951-5.183 1.426-7.82 1.426-4.394 0-7.561-.891-9.51-2.659-1.948-1.781-2.916-4.634-2.916-8.572 0-2.022 3.178-27.664 3.178-27.664s-18.33 31.281-19.893 32.419c-1.577 1.145-3.645 2.197-6.216 3.148a45.5 45.5 0 0 1-8.854 2.183 67.998 67.998 0 0 1-10.258.763l-3.771-4.38c.563-2.665 7.983-37.279 7.983-37.279s-18.825 26.675-20.707 30.291c-1.019 1.958-2.558 4.136-4.122 5.274-1.57 1.147-3.612 2.196-6.123 3.148a43.343 43.343 0 0 1-8.754 2.183c-3.398.513-6.83.768-10.266.763l-3.764-4.373c1.398-8.763 2.842-14.519 4.334-23.266a706.855 706.855 0 0 1 1.604-10.46c.557-3.55 1.093-6.885 1.59-9.992.504-3.108.948-5.894 1.326-8.371.288-1.94.602-3.876.941-5.807.371-3.04.093-5.17-.848-6.375-.942-1.206-2.67-1.809-5.183-1.808H22l2.26-20.604c4.142 0 8.655-.121 13.559-.375 4.89-.255 9.476-.51 13.744-.764 5.018-.383 9.913-.762 14.685-1.138l8.146 11.89Zm0 0c-3.705 5.84-6.516 13.32-10.406 22.455" stroke="#000" stroke-width="12" stroke-linecap="round" stroke-linejoin="round"/></svg>