<svg xmlns="http://www.w3.org/2000/svg" width="192" height="192" fill="none" stroke="#000" stroke-linecap="round" stroke-linejoin="round" stroke-width="6" viewBox="0 0 192 192"><ellipse cx="100" cy="70.6" rx="34.6" ry="27.7"/><path d="M70.3 91.3c-2.5 2.4-5.6 6-8.3 10.9-2.6 4.6-12.2 23.6-2.9 43 7.6 15.8 24.6 25.1 41.5 24.8 1.7 0 23.9-.9 36.3-20 10.6-16.2 7.7-36 0-48.6-3.8-6.2-8.4-10.2-11.6-12.6"/><path d="M141 104.5c2.8 2 8 6.3 10.6 13.4 1.3 3.6 3.6 9.9.3 14.7-2.1 2.9-5.4 4.1-7.1 4.5M60 98.4c-6.5-.5-10.5-2.5-13.1-4.4-2.8-2-4.6-4.4-6.3-3.8-1.8.7-2.4 4.2-2.3 6.2.4 9 15.5 15 18 15.9m32.3-52.7v4m23.3-4v4M81.3 75.8c.9 1.1 7.2 8.8 18 9.1 8.6.2 14.5-4.6 15.9-5.9m32.7 60.6c1.2 4.2 2.6 8.3 3.8 12.4-1.2 1.7-4 5.3-8.9 7.7-5.4 2.7-10.3 2.5-12.4 2.3m-76-33.4c-4.4 6.7-8.6 13.4-13 20.1 2.5 2.8 6.6 6.8 12.8 10.1 7 3.7 13.6 4.8 17.5 5.1m18.5-62.7c-2.1 1.1-5.7 2.8-10.4 3.2-6.1.6-10.8-.9-13.1-2m43.1-1.9c1.2 1.3 4.1 3.9 8.3 5.1 7.3 2.1 13.3-1.2 14.5-2M100.8 69c2.2.2 4.5.4 6.7.6 1.6.1 3.3.2 4.9.3-3.4 1.6-6.9 3.1-10.3 4.7M89.7 40.3c-2.2-5.2-4.5-10.4-6.6-15.7 3.4 2.6 6.9 5.2 10.3 7.8 2.3-3.5 4.6-7 6.8-10.4 1.6 3.2 3.1 6.5 4.7 9.8 3.1-2.5 6.3-4.8 9.4-7.3-1.3 5.5-2.6 11.1-3.9 16.6"/></svg>