<svg xmlns="http://www.w3.org/2000/svg" width="192" height="192" fill="none" stroke="#000" stroke-linecap="round" stroke-width="8" viewBox="0 0 192 192"><path d="M77.487 130.447V64.35c0-2.422 1.46-4.616 3.71-5.517 29.335-11.76 49.688-14.148 85.164-12.248 3.163.169 5.639 2.796 5.639 5.964V139.8c0 .768-.136 1.535-.472 2.226-7.499 15.416-39.052 21.331-49.764 1.304a5 5 0 0 1-.473-1.291c-3.214-14.801 8.349-19.083 30.369-18.348 3.471.116 6.419-2.615 6.419-6.089v-33.06c0-3.112-2.381-5.717-5.485-5.926-23.939-1.61-37.848 1.047-57.819 10.483-2.066.977-3.368 3.074-3.368 5.36v62.301c0 .373.047.747.07 1.118.743 11.512-41.864 23.236-57.217 3.531-6.712-10.461 1.509-22.955 24.91-24.043 3.703-.394 7.852-.678 12.477-.876 3.249-.139 5.84-2.791 5.84-6.043zM41.303 78C38.825 57.284 51.63 37 76 37"/><path d="M20.416 80C17.017 49.684 34.578 20 68 20"/></svg>