<svg width="192" height="192" viewBox="0 0 192 192" fill="none" xmlns="http://www.w3.org/2000/svg"><path d="M51.034 44.4a6.003 6.003 0 0 1 4.801-2.4h80.33c1.889 0 3.667.89 4.801 2.4l27.831 37.095a6.014 6.014 0 0 1-.726 8.022l-67.996 62.887a6 6 0 0 1-8.15 0L23.93 89.517a6.013 6.013 0 0 1-.726-8.022l27.83-37.094Z" stroke="#000" stroke-width="12" stroke-linecap="round" stroke-linejoin="round"/><path d="m70 66 2.828 7.172L80 76l-7.172 2.828L70 86l-2.828-7.172L60 76l7.172-2.828L70 66Z" stroke="#000" stroke-width="8" stroke-linecap="round" stroke-linejoin="round"/></svg>