<svg xmlns="http://www.w3.org/2000/svg" width="192" height="192" fill="none"><path stroke="#000" stroke-linecap="round" stroke-linejoin="round" stroke-width="12" d="M28 80.966v59.081C28 156.59 41.431 170 58 170h76c16.569 0 30-13.41 30-29.953V80.966c0-9.33-4.354-18.126-11.776-23.793l-38-29.014c-10.757-8.212-25.69-8.212-36.448 0l-38 29.014A29.94 29.94 0 0 0 28 80.966"/><path stroke="#000" stroke-linecap="round" stroke-linejoin="round" stroke-width="12" d="M52 89.451v37.525C52 137.483 60.69 146 71.412 146h49.176c10.721 0 19.412-8.517 19.412-19.024V89.451c0-5.925-2.817-11.512-7.62-15.112l-24.588-18.427c-6.961-5.216-16.624-5.216-23.584 0L59.62 74.34C54.817 77.94 52 83.526 52 89.451"/><path stroke="#000" stroke-linecap="round" stroke-linejoin="round" stroke-width="10" d="m116.872 145-10.634-37.703A15.97 15.97 0 0 0 112 95c0-8.837-7.163-16-16-16s-16 7.163-16 16c0 4.942 2.241 9.362 5.763 12.297L75.127 145"/></svg>