<?xml version="1.0" encoding="UTF-8" standalone="no"?>
<!-- Created with Inkscape (http://www.inkscape.org/) -->

<svg
   width="192"
   height="192"
   viewBox="0 0 50.799999 50.8"
   version="1.1"
   id="svg1"
   xml:space="preserve"
   xmlns="http://www.w3.org/2000/svg"
   xmlns:svg="http://www.w3.org/2000/svg"><defs
     id="defs1" /><g
     id="g3"
     transform="matrix(1.0105705,0,0,1.0105705,-0.0258028,-1.94454)"
     style="stroke-width:3.14179;stroke-dasharray:none"><g
       id="g21"
       style="opacity:1;stroke-width:2.89725;stroke-dasharray:none"
       transform="matrix(1.0828521,0,0,1.0859546,-1.7328511,-13.077659)"><g
         id="g18"
         transform="translate(-0.35188835,12.779973)"
         style="opacity:1;stroke-width:2.89725;stroke-dasharray:none"><g
           id="g20"
           style="stroke-width:3.0422;stroke-dasharray:none"
           transform="matrix(0.95235619,0,0,0.95235619,0.24959289,0.51491716)"><path
             style="opacity:1;fill:none;stroke:#000000;stroke-width:3.0422;stroke-linecap:round;stroke-linejoin:round;stroke-dasharray:none;paint-order:stroke fill markers"
             d="m 7.8695213,31.670025 v -8.236776 a 2,2 135 0 1 2,-2 h 5.9335017 v 8.5733 -8.5733 l 3.99748,0 a 4,4 45 0 1 4,4 v 6.236776"
             id="path11"
             transform="translate(-0.47593429)" /></g><path
           style="opacity:1;fill:none;stroke:#000000;stroke-width:3.0422;stroke-linecap:round;stroke-linejoin:round;stroke-dasharray:none;paint-order:stroke fill markers"
           d="m 38.675744,21.433249 h -7.628892 a 2,2 135 0 0 -2,2 v 6.236776 a 2,2 45 0 0 2,2 l 7.628892,0"
           id="path13"
           transform="matrix(0.95235619,0,0,0.95235619,0.24959289,0.51491716)" /><path
           style="opacity:1;fill:none;stroke:#000000;stroke-width:2.89725;stroke-linecap:round;stroke-linejoin:round;stroke-dasharray:none;paint-order:stroke fill markers"
           d="M 42.380066,20.927003 V 30.67606"
           id="path14" /></g></g><path
       style="opacity:1;fill:none;stroke:#000000;stroke-width:3.14179;stroke-linecap:round;stroke-linejoin:round;stroke-dasharray:none;stroke-opacity:1;paint-order:stroke fill markers"
       d="m 40.23959,17.808106 c 1.957511,-0.124942 2.810736,0.01512 4.296772,0.87308"
       id="path3" /></g></svg>
