<?xml version="1.0" encoding="UTF-8" standalone="no"?>
<svg
   width="192"
   height="192"
   viewBox="0 0 50.799999 50.8"
   version="1.1"
   id="svg1"
   xml:space="preserve"
   xmlns="http://www.w3.org/2000/svg"
   xmlns:svg="http://www.w3.org/2000/svg"><defs
     id="defs1" /><g
     id="layer1"
     transform="matrix(1.0019691,0,0,1.0019456,-0.05001554,-0.08749518)"
     style="stroke-width:0.998046"><path
       style="fill:none;stroke:#000000;stroke-width:3.8238;stroke-linecap:round;stroke-linejoin:round;stroke-miterlimit:32;stroke-dasharray:none;paint-order:stroke fill markers"
       d="M 26.903045,2.2148895 V 26.903045 h -4.289388 c -0.358899,0 -0.649844,0.290945 -0.649844,0.649844 v 20.784802"
       id="path1"
       transform="matrix(0.82869343,0,0,0.8287144,3.3460619,4.5145072)" /><ellipse
       style="fill:none;stroke:#000000;stroke-width:2.64066;stroke-linecap:round;stroke-linejoin:round;stroke-miterlimit:32;stroke-dasharray:none;paint-order:stroke fill markers"
       id="path2"
       cx="18.03636"
       cy="19.293377"
       rx="1.3249722"
       ry="1.3250058" /><circle
       style="fill:none;stroke:#000000;stroke-width:2.11253;stroke-linecap:round;stroke-linejoin:round;stroke-miterlimit:32;stroke-dasharray:none;paint-order:stroke fill markers"
       id="circle2"
       cx="28.15106"
       cy="33.863247"
       r="1.05" /><path
       id="path4"
       style="fill:none;stroke:#000000;stroke-width:3.1688;stroke-linecap:round;stroke-linejoin:round;stroke-miterlimit:32;paint-order:stroke fill markers"
       d="M 44.94067,25.438002 A 19.54067,19.541164 0 0 1 25.400001,44.979167 19.54067,19.541164 0 0 1 5.8593303,25.438002 19.54067,19.541164 0 0 1 25.400001,5.8968385 19.54067,19.541164 0 0 1 44.94067,25.438002 Z" /><circle
       style="fill:none;stroke:#000000;stroke-width:2.11253;stroke-linecap:round;stroke-linejoin:round;stroke-miterlimit:32;stroke-dasharray:none;paint-order:stroke fill markers"
       id="circle5"
       cx="35.513165"
       cy="33.913193"
       r="1.05" /></g></svg>
