<svg xmlns="http://www.w3.org/2000/svg" width="192" height="192" fill="none" viewBox="0 0 192 192">
  <g clip-path="url(#a)">
    <path stroke="#000" stroke-linecap="round" stroke-linejoin="round" stroke-width="12" d="M170 110.563c-3.077 15.181-10.886 29.023-22.326 39.578-11.44 10.555-25.935 17.291-41.445 19.259a75.359 75.359 0 0 1-45.01-8.289c-13.758-7.357-24.839-18.803-31.682-32.725a73.351 73.351 0 0 1-6.464-44.88c2.64-15.26 10.047-29.317 21.18-40.19C55.384 32.443 69.68 25.302 85.126 22.897a75.382 75.382 0 0 1 45.23 7.018"/>
    <path stroke="#000" stroke-linecap="round" stroke-linejoin="round" stroke-width="12" d="M37.148 89.571c1.384-12.283 6.62-23.833 14.97-33.022a59.81 59.81 0 0 1 31.574-18.2 60.037 60.037 0 0 1 36.327 3.452c11.44 4.89 21.04 13.217 27.447 23.808a58.603 58.603 0 0 1 8.266 35.23 58.889 58.889 0 0 1-14.018 33.429c-8.083 9.421-18.939 16.095-31.039 19.083a60.049 60.049 0 0 1-36.414-2.426"/>
    <path stroke="#000" stroke-linecap="round" stroke-linejoin="round" stroke-width="12" d="M139.103 104.995a43.885 43.885 0 0 1-13.193 23.441 43.95 43.95 0 0 1-50.84 6.358 43.908 43.908 0 0 1-18.567-19.468 43.874 43.874 0 0 1 8.799-50.442 43.958 43.958 0 0 1 50.64-7.801"/>
    <path stroke="#000" stroke-linejoin="round" stroke-width="12" d="M125 96.5c0 16.373-13.064 29.5-29 29.5s-29-13.127-29-29.5C67 80.127 80.064 67 96 67s29 13.127 29 29.5Z"/>
    <circle cx="96" cy="97" r="20" fill="#000"/>
  </g>
  <defs>
    <clipPath id="a">
      <path fill="#fff" d="M16 16h160v160H16z"/>
    </clipPath>
  </defs>
</svg>
