<?xml version="1.0" encoding="UTF-8" standalone="no"?>
<svg
   width="192"
   height="192"
   viewBox="0 0 192 192"
   fill="none"
   version="1.1"
   id="svg4"
   sodipodi:docname="orca_card.svg"
   inkscape:version="1.4.3 (0d15f75042, 2025-12-25)"
   xmlns:inkscape="http://www.inkscape.org/namespaces/inkscape"
   xmlns:sodipodi="http://sodipodi.sourceforge.net/DTD/sodipodi-0.dtd"
   xmlns="http://www.w3.org/2000/svg"
   xmlns:svg="http://www.w3.org/2000/svg">
  <sodipodi:namedview
     id="namedview4"
     pagecolor="#505050"
     bordercolor="#ffffff"
     borderopacity="1"
     inkscape:showpageshadow="0"
     inkscape:pageopacity="0"
     inkscape:pagecheckerboard="1"
     inkscape:deskcolor="#505050"
     inkscape:zoom="0.75520833"
     inkscape:cx="-266.81379"
     inkscape:cy="-44.358621"
     inkscape:window-width="2560"
     inkscape:window-height="1368"
     inkscape:window-x="0"
     inkscape:window-y="0"
     inkscape:window-maximized="1"
     inkscape:current-layer="svg4" />
  <g
     clip-path="url(#clip0_2_2)"
     id="g4">
    <path
       d="m 150,154 v 16 m 0,-16 c 0,8.837 -7.163,16 -16,16 -8.837,0 -16,-7.163 -16,-16 0,-8.837 7.163,-16 16,-16 8.837,0 16,7.163 16,16 z"
       stroke="#000000"
       stroke-width="12"
       stroke-linecap="round"
       id="path1" />
    <path
       d="m 99.3137,165.314 c -2.2376,2.237 -5.0886,3.761 -8.1923,4.379 -3.1037,0.617 -6.3207,0.3 -9.2443,-0.911 -2.9237,-1.211 -5.4225,-3.262 -7.1806,-5.893 C 72.9384,160.258 72,157.164 72,154 c 0,-3.165 0.9384,-6.258 2.6965,-8.889 1.7581,-2.631 4.257,-4.682 7.1806,-5.893 2.9236,-1.211 6.1407,-1.528 9.2444,-0.911 3.1037,0.618 5.9546,2.142 8.1922,4.379"
       stroke="#000000"
       stroke-width="12"
       stroke-linecap="round"
       id="path2" />
    <path
       d="M129.314 93.6863C127.076 91.4487 124.225 89.9248 121.121 89.3074C118.018 88.6901 114.801 89.0069 111.877 90.2179C108.953 91.4289 106.455 93.4797 104.696 96.1109C102.938 98.7421 102 101.836 102 105V119"
       stroke="black"
       stroke-width="12"
       stroke-linecap="round"
       stroke-linejoin="round"
       id="path3" />
    <circle
       cx="66"
       cy="105"
       r="16"
       stroke="black"
       stroke-width="12"
       id="circle3" />
    <path
       d="M103.577 58.2854C129.769 60.3451 131 43.643 131 22C139.167 32.0136 160.8 65.2999 170 89.3326C150.374 69.4836 123.756 58 96.0005 58C68.2451 58 41.6265 69.151 22.0004 89"
       stroke="black"
       stroke-width="12"
       stroke-linecap="round"
       stroke-linejoin="round"
       id="path4" />
  </g>
  <defs
     id="defs4">
    <clipPath
       id="clip0_2_2">
      <rect
         width="160"
         height="160"
         fill="white"
         transform="translate(16 16)"
         id="rect4" />
    </clipPath>
  </defs>
</svg>
