<svg xmlns="http://www.w3.org/2000/svg" viewBox="0 0 192 192" width="192" height="192"><defs></defs><g>
<rect fill="#ffffff" x="0" y="0" width="192" height="192"/>
<g>
	<g>
		<path d="M21.32139552901829,55.65895932538763 C36.751909281457635,40.22844557294822 75.66649558657613,54.07459422245814 108.14260189566025,86.55070053154255 C140.61870820474437,119.02680684062696 154.4648568542541,157.9413931457458 139.03434310181473,173.3719068981852 C123.60382934937539,188.80242065062458 84.6892430442569,174.95627200111468 52.21313673517278,142.48016569203025 C19.737030426088673,110.00405938294585 5.890881776578951,71.08947307782704 21.32139552901829,55.65895932538763 Z" transform="matrix(1,0,0,1,0,0)" fill="#fefefe" stroke="#000000" stroke-width="12" stroke-linecap="round" stroke-linejoin="round"/>
	</g>
	<g>
		<path d="M110.49999999793985,21.999999999999943 C110.49999999793985,21.999999999999943 149.46301070659567,21.999999999999943 149.46301070659567,21.999999999999943 C149.46301070659567,21.999999999999943 149.46301070659567,-7.000000000000057 149.46301070659567,-7.000000000000057 C149.46301070659567,-7.000000000000057 42.53698929340433,-7.000000000000057 42.53698929340433,-7.000000000000057 C42.53698929340433,-7.000000000000057 42.53698929340433,21.999999999999943 42.53698929340433,21.999999999999943 C42.53698929340433,21.999999999999943 81.50000000206013,21.999999999999943 81.50000000206013,21.999999999999943 C81.50000000206015,21.999999999999943 81.50000000206015,95.99999999999994 81.50000000206015,95.99999999999994 C81.50000000206015,95.99999999999994 110.49999999793987,95.99999999999994 110.49999999793987,95.99999999999994 C110.49999999793987,95.99999999999994 110.49999999793985,21.999999999999943 110.49999999793985,21.999999999999943 Z" transform="matrix(1,0,-0.267949192,1,9.900991789,18.515433112)" fill="#fefefe" stroke="#000000" stroke-width="12" stroke-linecap="round" stroke-linejoin="round"/>
	</g>
</g></g></svg>