<svg width="192" height="192" viewBox="0 0 192 192" fill="none" xmlns="http://www.w3.org/2000/svg"><path d="m66 52 6 6 12-12" stroke="#000" stroke-width="10" stroke-linecap="round" stroke-linejoin="round"/><path d="M148 90V28a6 6 0 0 0-6-6H50a6 6 0 0 0-6 6v62" stroke="#000" stroke-width="12" stroke-linecap="round" stroke-linejoin="round"/><path d="M99 55h28M65 79h62" stroke="#000" stroke-width="10" stroke-linecap="round" stroke-linejoin="round"/><path d="M127 142H65m-32 0H22m137 0h11M33 120a6 6 0 0 1 6-6h20a6 6 0 0 1 6 6v44a6 6 0 0 1-6 6H39a6 6 0 0 1-6-6v-44Z" stroke="#000" stroke-width="12" stroke-linecap="round" stroke-linejoin="round"/><rect x="127" y="114" width="32" height="56" rx="6" stroke="#000" stroke-width="12" stroke-linecap="round" stroke-linejoin="round"/></svg>