<svg id="svg" xmlns="http://www.w3.org/2000/svg" xmlns:xlink="http://www.w3.org/1999/xlink" width="400" height="400" viewBox="0, 0, 400,400"><g id="svgg"><path id="path0" d="M254.444 29.455 C 249.680 30.462,247.508 30.754,242.222 31.099 C 238.430 31.346,235.981 31.712,233.887 32.344 C 232.256 32.837,229.673 33.362,228.146 33.511 C 226.620 33.660,224.620 34.080,223.704 34.446 C 222.787 34.811,220.565 35.381,218.767 35.714 C 216.968 36.046,215.134 36.550,214.692 36.834 C 214.250 37.117,212.806 37.554,211.481 37.805 C 210.157 38.056,208.058 38.735,206.816 39.315 C 205.574 39.896,204.005 40.370,203.330 40.370 C 202.655 40.370,201.393 40.786,200.527 41.293 C 199.661 41.801,198.063 42.405,196.976 42.636 C 195.889 42.867,194.578 43.354,194.063 43.717 C 193.548 44.081,192.157 44.632,190.973 44.941 C 189.789 45.250,188.544 45.749,188.206 46.049 C 187.869 46.349,186.712 46.853,185.635 47.170 C 184.559 47.486,183.226 48.066,182.673 48.457 C 182.119 48.849,180.975 49.284,180.129 49.426 C 179.283 49.567,178.037 50.091,177.361 50.590 C 176.684 51.089,175.460 51.676,174.639 51.894 C 173.819 52.113,172.898 52.513,172.593 52.784 C 172.287 53.055,171.094 53.629,169.941 54.060 C 168.788 54.490,167.644 55.085,167.398 55.382 C 167.152 55.678,166.263 56.106,165.423 56.332 C 164.583 56.558,163.424 57.079,162.847 57.490 C 162.270 57.901,161.027 58.469,160.085 58.752 C 159.143 59.036,158.030 59.572,157.612 59.944 C 157.194 60.316,156.269 60.841,155.556 61.111 C 154.843 61.381,153.926 61.881,153.519 62.222 C 153.111 62.564,152.194 63.064,151.481 63.333 C 150.769 63.603,149.852 64.111,149.444 64.462 C 149.037 64.813,148.287 65.220,147.778 65.367 C 147.269 65.515,146.087 66.117,145.153 66.706 C 144.218 67.296,143.289 67.778,143.087 67.778 C 142.885 67.778,141.983 68.265,141.082 68.860 C 140.181 69.456,138.982 70.058,138.416 70.199 C 137.851 70.340,137.230 70.750,137.038 71.109 C 136.846 71.469,135.975 72.047,135.103 72.394 C 134.232 72.741,133.247 73.268,132.916 73.566 C 132.282 74.135,129.960 75.457,127.778 76.491 C 127.065 76.829,126.065 77.498,125.556 77.978 C 125.046 78.457,124.046 79.116,123.333 79.441 C 122.031 80.035,120.300 81.148,118.449 82.581 C 117.901 83.005,116.897 83.584,116.219 83.868 C 115.540 84.151,114.671 84.730,114.287 85.155 C 113.903 85.579,113.391 85.926,113.148 85.926 C 112.906 85.926,112.390 86.277,112.002 86.707 C 111.614 87.136,110.546 87.889,109.630 88.379 C 108.713 88.870,107.213 89.853,106.296 90.565 C 104.714 91.793,102.140 93.621,99.395 95.468 C 98.709 95.930,98.148 96.451,98.148 96.627 C 98.148 96.803,97.648 97.154,97.037 97.407 C 96.426 97.661,95.926 98.012,95.926 98.188 C 95.926 98.364,95.218 98.963,94.352 99.519 C 93.486 100.076,92.194 101.005,91.481 101.585 C 90.769 102.165,89.722 103.003,89.156 103.449 C 88.589 103.895,87.574 104.759,86.899 105.370 C 86.224 105.981,84.950 107.065,84.068 107.778 C 83.186 108.491,81.477 109.991,80.270 111.111 C 79.064 112.231,77.801 113.293,77.464 113.471 C 77.127 113.648,76.435 114.191,75.926 114.678 C 75.417 115.164,73.333 117.136,71.296 119.061 C 66.947 123.170,67.560 122.559,63.113 127.222 C 57.930 132.656,58.105 132.459,51.737 140.126 C 51.087 140.908,49.972 142.194,49.259 142.984 C 47.365 145.082,46.359 146.340,45.573 147.593 C 45.190 148.204,44.201 149.537,43.376 150.556 C 42.551 151.574,41.534 153.032,41.116 153.796 C 40.698 154.560,40.203 155.185,40.017 155.185 C 39.832 155.185,39.579 155.503,39.455 155.892 C 39.332 156.280,38.656 157.322,37.953 158.206 C 37.249 159.091,36.672 159.944,36.670 160.102 C 36.668 160.259,36.083 161.236,35.370 162.273 C 34.657 163.309,34.074 164.371,34.074 164.632 C 34.074 164.892,33.824 165.202,33.519 165.319 C 33.214 165.436,32.536 166.412,32.013 167.488 C 30.718 170.152,29.199 172.981,28.470 174.085 C 28.138 174.588,27.750 175.500,27.609 176.111 C 27.468 176.722,27.048 177.556,26.677 177.963 C 26.305 178.370,25.722 179.537,25.381 180.556 C 25.040 181.574,24.437 182.931,24.042 183.570 C 23.647 184.210,23.149 185.675,22.936 186.827 C 22.723 187.978,22.243 189.455,21.869 190.108 C 21.495 190.762,21.082 192.296,20.952 193.519 C 20.621 196.637,19.985 199.295,19.328 200.305 C 18.247 201.967,18.511 213.550,19.718 217.407 C 20.260 219.139,20.799 221.159,20.915 221.897 C 21.032 222.635,21.457 223.618,21.860 224.083 C 22.263 224.548,22.595 225.194,22.599 225.520 C 22.602 225.845,23.015 226.778,23.517 227.593 C 24.019 228.407,24.702 229.657,25.035 230.369 C 25.627 231.632,26.336 232.602,28.796 235.516 C 29.458 236.300,30.000 237.088,30.000 237.267 C 30.000 237.880,36.095 243.241,39.406 245.541 C 39.835 245.839,40.733 246.547,41.402 247.115 C 42.071 247.683,42.923 248.148,43.296 248.148 C 43.669 248.148,44.406 248.488,44.934 248.903 C 45.463 249.319,46.777 249.969,47.855 250.349 C 48.933 250.729,50.315 251.295,50.926 251.607 C 51.537 251.919,53.537 252.434,55.370 252.751 C 57.204 253.068,59.286 253.496,59.998 253.701 C 61.891 254.247,68.037 254.156,70.973 253.539 C 72.373 253.244,75.172 252.741,77.192 252.421 C 79.213 252.101,81.079 251.662,81.341 251.445 C 81.602 251.228,83.105 250.728,84.681 250.334 C 86.257 249.940,87.814 249.377,88.140 249.081 C 88.467 248.786,89.644 248.354,90.756 248.121 C 91.868 247.889,93.194 247.320,93.704 246.857 C 94.213 246.394,95.291 245.898,96.098 245.754 C 96.906 245.610,98.102 245.022,98.756 244.448 C 99.410 243.874,100.457 243.292,101.084 243.154 C 101.710 243.017,102.222 242.741,102.222 242.543 C 102.222 242.344,103.136 241.763,104.252 241.252 C 105.369 240.741,106.376 240.171,106.490 239.987 C 106.604 239.802,107.399 239.340,108.256 238.960 C 109.113 238.580,110.052 237.982,110.341 237.631 C 110.630 237.281,111.454 236.749,112.172 236.449 C 112.890 236.149,113.737 235.654,114.054 235.349 C 114.655 234.769,116.440 233.480,118.333 232.257 C 118.944 231.862,119.778 231.271,120.185 230.943 C 120.593 230.615,121.426 230.016,122.037 229.613 C 123.207 228.841,124.439 227.919,127.953 225.185 C 129.131 224.269,130.615 223.139,131.251 222.676 C 131.887 222.212,133.074 221.331,133.889 220.717 C 134.704 220.104,136.245 219.001,137.315 218.267 C 138.384 217.533,139.259 216.789,139.259 216.614 C 139.259 216.439,139.516 216.296,139.829 216.296 C 140.143 216.296,141.046 215.671,141.836 214.907 C 143.549 213.251,145.632 211.532,146.614 210.966 C 147.475 210.469,151.847 207.226,153.464 205.885 C 154.105 205.353,155.130 204.641,155.741 204.303 C 156.352 203.965,157.602 203.107,158.519 202.395 C 159.435 201.684,160.858 200.645,161.680 200.088 C 162.501 199.530,163.418 198.863,163.717 198.605 C 164.543 197.890,166.720 196.402,167.963 195.703 C 168.574 195.359,169.654 194.602,170.362 194.020 C 171.071 193.439,171.833 192.963,172.057 192.963 C 172.280 192.963,172.855 192.546,173.333 192.037 C 173.812 191.528,174.411 191.111,174.666 191.111 C 174.920 191.111,175.599 190.717,176.175 190.236 C 176.751 189.754,177.931 189.001,178.796 188.562 C 179.662 188.122,180.370 187.602,180.370 187.405 C 180.370 187.208,180.954 186.803,181.667 186.505 C 182.379 186.208,183.520 185.539,184.201 185.019 C 184.883 184.499,185.617 184.074,185.833 184.074 C 186.049 184.074,186.900 183.532,187.724 182.870 C 189.532 181.417,192.367 179.630,192.864 179.630 C 193.063 179.630,193.677 179.211,194.230 178.699 C 194.782 178.187,195.878 177.439,196.666 177.037 C 197.454 176.636,198.204 176.135,198.334 175.926 C 198.463 175.716,199.180 175.289,199.928 174.977 C 200.675 174.665,201.622 174.103,202.032 173.729 C 202.442 173.354,203.194 172.927,203.704 172.779 C 204.213 172.631,205.046 172.130,205.556 171.666 C 206.065 171.202,207.204 170.429,208.087 169.948 C 211.489 168.097,211.955 167.810,212.725 167.100 C 213.161 166.697,214.158 166.104,214.941 165.781 C 215.723 165.459,216.860 164.776,217.469 164.264 C 218.077 163.752,218.800 163.333,219.074 163.333 C 219.348 163.333,220.044 162.955,220.620 162.492 C 221.196 162.029,222.292 161.365,223.056 161.016 C 223.819 160.668,224.444 160.231,224.444 160.046 C 224.444 159.861,225.142 159.431,225.994 159.090 C 226.846 158.749,228.025 158.064,228.615 157.568 C 229.204 157.072,229.844 156.667,230.037 156.667 C 230.230 156.667,231.236 156.083,232.273 155.370 C 233.309 154.657,234.363 154.074,234.614 154.074 C 234.865 154.074,235.349 153.766,235.689 153.390 C 236.030 153.014,236.949 152.514,237.733 152.279 C 238.516 152.045,239.555 151.462,240.042 150.985 C 240.528 150.508,241.426 149.948,242.037 149.740 C 242.649 149.532,243.797 148.922,244.589 148.385 C 245.381 147.847,246.307 147.407,246.646 147.407 C 246.986 147.407,247.822 146.996,248.504 146.492 C 249.186 145.989,250.539 145.313,251.510 144.990 C 252.482 144.668,253.476 144.164,253.720 143.870 C 253.963 143.576,255.004 143.086,256.032 142.781 C 257.060 142.475,258.165 141.990,258.488 141.703 C 258.810 141.415,259.824 140.984,260.741 140.745 C 261.657 140.506,263.074 139.927,263.889 139.458 C 264.704 138.990,266.120 138.489,267.037 138.344 C 267.954 138.200,269.592 137.684,270.677 137.197 C 271.762 136.710,273.762 136.200,275.121 136.065 C 276.480 135.930,278.593 135.500,279.815 135.110 C 285.308 133.357,299.883 133.348,304.259 135.096 C 305.278 135.503,306.861 135.957,307.778 136.106 C 308.694 136.254,309.944 136.738,310.556 137.182 C 311.167 137.625,312.110 138.180,312.651 138.415 C 315.415 139.614,323.318 147.267,324.503 149.892 C 324.890 150.749,325.354 151.542,325.536 151.654 C 326.192 152.060,328.915 157.537,329.288 159.204 C 329.499 160.145,329.927 161.197,330.240 161.542 C 330.553 161.887,331.122 163.790,331.505 165.769 C 331.889 167.748,332.498 170.135,332.860 171.073 C 334.084 174.243,333.830 194.339,332.511 198.704 C 331.957 200.537,331.351 203.306,331.165 204.856 C 330.978 206.406,330.560 208.079,330.236 208.574 C 329.912 209.068,329.396 210.783,329.090 212.384 C 328.784 213.986,328.261 215.597,327.929 215.964 C 327.596 216.331,327.099 217.707,326.824 219.021 C 326.548 220.335,325.900 222.032,325.384 222.794 C 324.867 223.555,324.444 224.705,324.444 225.350 C 324.444 226.003,324.054 227.052,323.564 227.717 C 323.079 228.373,322.475 229.652,322.221 230.559 C 321.967 231.466,321.539 232.391,321.270 232.614 C 321.001 232.837,320.498 233.882,320.151 234.936 C 319.804 235.990,319.129 237.323,318.649 237.899 C 318.170 238.475,317.778 239.243,317.778 239.607 C 317.778 239.971,317.289 240.883,316.692 241.635 C 316.095 242.386,315.501 243.481,315.372 244.068 C 315.243 244.654,314.885 245.343,314.577 245.599 C 314.269 245.855,313.612 246.825,313.118 247.755 C 312.624 248.684,311.565 250.361,310.764 251.481 C 309.963 252.602,308.960 254.255,308.536 255.155 C 308.111 256.055,307.434 257.023,307.030 257.306 C 306.627 257.588,306.296 258.034,306.296 258.297 C 306.296 258.559,305.945 259.092,305.516 259.480 C 305.087 259.868,304.432 260.769,304.060 261.481 C 303.689 262.194,302.467 263.944,301.344 265.370 C 300.222 266.796,298.835 268.597,298.263 269.371 C 296.586 271.641,290.872 278.336,288.696 280.583 C 288.089 281.209,286.676 282.761,285.556 284.031 C 282.714 287.251,269.066 300.906,266.447 303.148 C 265.258 304.167,263.529 305.719,262.605 306.599 C 261.682 307.478,260.676 308.410,260.370 308.670 C 260.065 308.930,258.273 310.461,256.389 312.072 C 254.505 313.682,251.718 316.000,250.195 317.222 C 248.672 318.444,246.960 319.861,246.390 320.370 C 245.820 320.880,244.554 321.880,243.576 322.593 C 241.942 323.784,237.692 327.165,235.000 329.416 C 233.850 330.378,232.241 331.557,229.995 333.087 C 229.279 333.574,228.467 334.246,228.190 334.579 C 227.913 334.913,227.485 335.185,227.238 335.185 C 226.991 335.185,226.368 335.644,225.853 336.204 C 225.339 336.764,224.436 337.514,223.848 337.871 C 222.444 338.722,220.327 340.220,219.630 340.857 C 219.324 341.136,218.532 341.676,217.870 342.058 C 217.208 342.440,216.667 342.867,216.667 343.008 C 216.667 343.148,215.875 343.726,214.907 344.292 C 213.940 344.859,212.954 345.515,212.717 345.751 C 212.479 345.987,211.771 346.393,211.143 346.654 C 210.514 346.914,210.000 347.266,210.000 347.437 C 210.000 347.607,209.212 348.209,208.248 348.773 C 207.285 349.338,206.202 350.095,205.841 350.455 C 205.480 350.816,204.999 351.111,204.772 351.111 C 204.545 351.111,203.586 351.662,202.642 352.334 C 201.698 353.007,200.509 353.765,200.000 354.017 C 199.491 354.270,197.991 355.130,196.667 355.928 C 195.343 356.726,193.569 357.705,192.726 358.103 C 191.883 358.502,191.089 358.995,190.963 359.199 C 190.836 359.404,189.943 359.866,188.978 360.225 C 188.012 360.585,186.751 361.265,186.175 361.736 C 185.599 362.207,184.821 362.593,184.444 362.593 C 184.068 362.593,183.243 363.028,182.611 363.560 C 181.978 364.092,180.776 364.682,179.938 364.870 C 179.101 365.058,178.013 365.529,177.520 365.916 C 177.028 366.304,175.759 366.902,174.701 367.245 C 173.643 367.588,172.278 368.164,171.667 368.524 C 171.056 368.885,169.972 369.297,169.259 369.441 C 168.546 369.585,167.296 370.084,166.481 370.551 C 165.667 371.018,163.814 371.583,162.365 371.806 C 160.916 372.030,158.999 372.545,158.106 372.950 C 152.806 375.355,141.111 372.166,141.111 368.316 C 141.111 368.075,140.778 367.454,140.370 366.936 C 139.330 365.614,139.324 361.002,140.358 358.730 C 140.759 357.850,141.258 356.367,141.467 355.433 C 141.677 354.500,142.349 352.946,142.961 351.981 C 143.573 351.015,144.074 350.074,144.074 349.888 C 144.074 349.703,144.491 349.056,145.000 348.451 C 145.509 347.846,145.926 347.119,145.926 346.836 C 145.926 346.553,146.403 345.775,146.986 345.105 C 147.569 344.436,148.323 343.347,148.662 342.685 C 149.001 342.023,149.414 341.481,149.581 341.481 C 149.747 341.481,150.198 340.898,150.581 340.185 C 150.965 339.472,151.395 338.889,151.535 338.889 C 151.676 338.889,152.163 338.287,152.618 337.552 C 153.072 336.817,153.838 335.775,154.319 335.237 C 157.783 331.366,161.841 327.167,173.704 315.182 C 187.994 300.744,190.652 297.953,192.877 295.044 C 193.637 294.050,195.218 292.101,196.389 290.713 C 197.560 289.324,198.519 288.033,198.519 287.843 C 198.519 287.653,198.782 287.279,199.104 287.012 C 199.426 286.745,200.163 285.589,200.741 284.444 C 201.319 283.300,202.039 282.158,202.341 281.907 C 203.122 281.259,203.850 275.614,203.558 272.472 C 203.342 270.144,202.739 268.380,201.369 266.063 C 200.598 264.760,197.651 261.964,196.759 261.689 C 196.301 261.547,195.926 261.281,195.926 261.096 C 195.926 260.912,195.104 260.408,194.100 259.976 C 193.096 259.544,191.995 258.881,191.652 258.502 C 191.309 258.123,190.089 257.629,188.940 257.404 C 187.792 257.178,186.019 256.636,185.000 256.197 C 182.388 255.073,170.418 254.972,167.778 256.052 C 166.861 256.427,164.772 256.931,163.136 257.173 C 161.268 257.449,159.749 257.906,159.054 258.401 C 158.445 258.835,157.006 259.463,155.856 259.797 C 154.706 260.131,153.572 260.639,153.335 260.924 C 153.098 261.210,152.292 261.642,151.544 261.886 C 150.146 262.340,147.882 263.780,145.488 265.737 C 144.738 266.350,143.433 267.352,142.586 267.963 C 141.740 268.574,140.501 269.574,139.832 270.185 C 139.164 270.796,138.303 271.580,137.919 271.926 C 137.117 272.651,136.848 272.923,134.715 275.167 C 132.029 277.994,130.969 279.204,129.630 280.972 C 128.917 281.913,127.721 283.408,126.973 284.294 C 126.224 285.181,125.505 286.244,125.374 286.657 C 125.242 287.070,124.971 287.407,124.771 287.407 C 124.571 287.407,124.171 287.971,123.884 288.659 C 123.596 289.347,122.968 290.389,122.489 290.974 C 122.009 291.559,121.275 292.704,120.857 293.519 C 117.815 299.446,115.823 303.196,115.528 303.552 C 115.337 303.782,114.847 304.940,114.439 306.126 C 114.031 307.311,113.468 308.543,113.188 308.863 C 112.908 309.183,112.399 310.424,112.056 311.622 C 111.713 312.819,111.126 314.236,110.751 314.770 C 110.376 315.304,109.956 316.407,109.818 317.222 C 109.680 318.037,109.252 319.216,108.867 319.843 C 108.482 320.470,107.912 322.083,107.600 323.427 C 107.288 324.772,106.637 326.676,106.154 327.659 C 105.670 328.641,105.159 330.517,105.018 331.828 C 104.877 333.139,104.543 334.639,104.274 335.162 C 102.924 337.786,102.658 344.142,103.739 347.963 C 104.143 349.389,104.724 351.865,105.032 353.466 C 105.339 355.066,106.083 357.298,106.684 358.425 C 107.286 359.552,107.778 360.662,107.778 360.892 C 107.778 361.122,108.171 361.890,108.651 362.599 C 109.132 363.309,109.655 364.306,109.813 364.815 C 110.107 365.759,110.363 366.112,113.902 370.435 C 116.171 373.208,121.968 378.519,122.725 378.519 C 122.997 378.519,123.515 378.846,123.876 379.245 C 124.238 379.645,125.139 380.169,125.878 380.409 C 126.617 380.650,128.139 381.333,129.259 381.927 L 131.296 383.007 146.296 382.867 L 161.296 382.727 163.704 381.781 C 165.028 381.261,167.111 380.716,168.333 380.569 C 169.556 380.423,171.068 379.989,171.695 379.606 C 172.321 379.222,173.964 378.646,175.345 378.326 C 176.726 378.005,178.230 377.499,178.686 377.199 C 179.143 376.900,180.500 376.400,181.703 376.087 C 182.905 375.774,184.278 375.263,184.754 374.952 C 185.230 374.640,186.480 374.130,187.532 373.818 C 188.584 373.506,189.863 372.953,190.374 372.590 C 190.885 372.226,191.990 371.743,192.831 371.517 C 193.671 371.291,194.557 370.866,194.801 370.572 C 195.044 370.279,196.022 369.752,196.974 369.402 C 197.925 369.052,199.037 368.488,199.444 368.148 C 199.852 367.809,200.975 367.240,201.941 366.884 C 202.906 366.529,203.799 366.071,203.926 365.866 C 204.052 365.662,204.929 365.163,205.874 364.759 C 206.819 364.355,207.926 363.723,208.333 363.354 C 208.741 362.985,209.686 362.488,210.433 362.249 C 211.181 362.010,212.004 361.559,212.262 361.248 C 212.520 360.937,213.492 360.269,214.421 359.763 C 218.265 357.671,219.482 356.946,220.185 356.327 C 220.593 355.969,221.456 355.467,222.103 355.211 C 222.750 354.956,223.568 354.429,223.920 354.040 C 224.271 353.651,224.751 353.333,224.985 353.333 C 225.220 353.333,225.986 352.908,226.687 352.387 C 227.389 351.867,228.671 351.127,229.537 350.742 C 230.403 350.357,231.111 349.886,231.111 349.695 C 231.111 349.505,231.628 349.135,232.259 348.873 C 233.310 348.438,234.393 347.663,237.643 345.019 C 238.282 344.499,238.978 344.074,239.189 344.074 C 239.400 344.074,240.045 343.676,240.623 343.190 C 241.200 342.705,242.297 342.046,243.059 341.728 C 243.821 341.409,244.444 340.981,244.444 340.775 C 244.444 340.570,245.194 339.962,246.111 339.425 C 247.028 338.888,247.778 338.318,247.778 338.158 C 247.778 337.998,248.261 337.667,248.852 337.423 C 249.443 337.178,250.306 336.574,250.769 336.081 C 251.232 335.588,251.839 335.185,252.118 335.185 C 252.398 335.185,253.050 334.761,253.568 334.243 C 254.491 333.320,256.285 332.033,258.708 330.556 C 259.815 329.881,262.788 327.542,264.016 326.380 C 264.290 326.121,264.999 325.658,265.591 325.352 C 266.182 325.046,266.667 324.638,266.667 324.444 C 266.667 324.251,267.160 323.838,267.763 323.526 C 268.365 323.215,269.260 322.585,269.751 322.128 C 270.242 321.671,272.187 320.130,274.073 318.704 C 275.959 317.278,277.845 315.736,278.263 315.278 C 278.681 314.819,279.160 314.444,279.328 314.444 C 279.623 314.444,285.476 309.543,290.317 305.240 C 291.612 304.090,292.946 302.993,293.280 302.804 C 293.615 302.615,294.316 302.031,294.837 301.508 C 295.358 300.984,297.425 299.056,299.430 297.222 C 306.721 290.554,322.008 274.851,326.361 269.559 C 329.522 265.716,333.075 261.286,334.621 259.259 C 335.321 258.343,336.192 257.260,336.558 256.854 C 336.923 256.448,337.536 255.531,337.920 254.817 C 338.796 253.187,339.894 251.699,341.204 250.368 C 341.764 249.798,342.222 249.173,342.222 248.979 C 342.222 248.784,342.806 247.861,343.519 246.927 C 344.231 245.994,344.815 245.053,344.815 244.837 C 344.815 244.621,345.142 244.117,345.543 243.716 C 345.943 243.316,346.696 242.149,347.216 241.124 C 347.735 240.098,348.291 239.259,348.451 239.259 C 348.611 239.259,349.122 238.551,349.586 237.685 C 351.839 233.490,352.252 232.792,352.907 232.072 C 353.295 231.645,353.806 230.691,354.042 229.952 C 354.279 229.213,354.780 228.330,355.156 227.990 C 355.532 227.649,356.122 226.629,356.469 225.723 C 356.815 224.816,357.233 224.074,357.398 224.074 C 357.563 224.074,357.979 223.366,358.323 222.500 C 358.667 221.634,359.248 220.593,359.614 220.185 C 359.980 219.778,360.476 218.830,360.716 218.079 C 360.957 217.328,361.481 216.297,361.881 215.788 C 362.281 215.279,362.859 214.152,363.166 213.283 C 363.472 212.414,363.952 211.445,364.232 211.129 C 364.513 210.814,364.956 209.806,365.219 208.889 C 365.481 207.972,365.998 206.824,366.367 206.338 C 366.736 205.852,367.284 204.629,367.583 203.621 C 367.882 202.613,368.451 201.261,368.847 200.616 C 369.243 199.972,369.684 198.814,369.827 198.043 C 369.970 197.272,370.474 196.071,370.948 195.373 C 371.421 194.676,371.978 193.188,372.185 192.068 C 372.392 190.948,372.898 189.372,373.309 188.566 C 373.720 187.760,374.231 186.295,374.443 185.310 C 374.656 184.324,375.238 182.593,375.737 181.461 C 376.235 180.330,376.755 178.413,376.893 177.202 C 377.030 175.991,377.459 174.183,377.847 173.184 C 378.235 172.185,378.796 169.602,379.092 167.443 C 379.389 165.285,379.961 162.185,380.363 160.556 C 382.431 152.167,382.331 119.309,380.224 114.976 C 379.933 114.378,379.441 112.139,379.130 110.000 C 378.819 107.861,378.235 105.444,377.832 104.630 C 377.428 103.815,376.918 102.148,376.698 100.926 C 376.478 99.704,375.968 98.257,375.565 97.712 C 375.162 97.166,374.724 96.000,374.591 95.119 C 374.458 94.239,373.884 92.802,373.315 91.925 C 372.746 91.049,372.170 89.675,372.034 88.872 C 371.898 88.068,371.619 87.308,371.414 87.181 C 371.209 87.054,370.551 85.928,369.952 84.679 C 368.501 81.652,367.184 79.363,366.188 78.137 C 365.738 77.583,365.083 76.651,364.733 76.065 C 363.542 74.075,363.150 73.520,361.755 71.852 C 360.989 70.935,360.156 69.925,359.904 69.606 C 358.685 68.071,355.351 64.232,355.053 64.022 C 354.869 63.892,353.614 62.719,352.266 61.417 C 349.953 59.182,348.955 58.303,345.193 55.185 C 344.333 54.472,343.140 53.431,342.542 52.870 C 341.945 52.310,341.276 51.852,341.055 51.852 C 340.835 51.852,339.860 51.269,338.889 50.556 C 337.918 49.843,336.957 49.259,336.755 49.259 C 336.553 49.259,336.158 48.982,335.879 48.644 C 335.599 48.305,334.530 47.656,333.504 47.201 C 332.477 46.747,331.415 46.107,331.144 45.780 C 330.872 45.453,330.366 45.185,330.020 45.185 C 329.673 45.185,328.569 44.602,327.566 43.889 C 326.564 43.176,325.493 42.590,325.186 42.586 C 324.880 42.583,323.796 42.086,322.778 41.481 C 321.759 40.877,320.591 40.380,320.182 40.377 C 319.773 40.373,318.684 39.969,317.762 39.478 C 316.841 38.987,315.092 38.297,313.876 37.944 C 312.661 37.591,311.333 37.091,310.926 36.833 C 310.519 36.576,308.895 36.103,307.317 35.784 C 305.740 35.464,303.783 34.863,302.970 34.448 C 302.156 34.033,300.447 33.588,299.171 33.459 C 297.896 33.330,295.651 32.836,294.183 32.362 C 292.401 31.786,289.817 31.368,286.405 31.105 C 283.595 30.887,279.546 30.362,277.407 29.937 C 272.401 28.942,258.273 28.645,254.444 29.455 " stroke="none" fill="#000000" fill-rule="evenodd"></path></g></svg>