<svg xmlns="http://www.w3.org/2000/svg" width="192" height="192" fill="none" stroke="#000" stroke-linecap="round" stroke-width="12" viewBox="0 0 192 192"><circle cx="96.2" cy="95.8" r="4"/><path d="M22.8 106.8c-.5-3.6-.8-7.3-.8-11C22 55 55.2 22 96.2 22c3.5 0 6.9.2 10.2.7m-83.6 84.1s25.5 3.7 36.8-4.9c13.9-10.6 6.9-39.1 13.5-54.3 9.6-22 33.3-24.9 33.3-24.9m36.3 131.2c-2.9 2.3-5.9 4.3-9.2 6.2-35.5 20.4-80.9 8.3-101.4-27-1.7-3-3.2-6.1-4.5-9.2m115.1 30s-9.5-23.8-22.7-29.3c-16.1-6.7-37.5 13.6-54 15.5-23.9 2.7-38.3-16.3-38.3-16.3m95.2-97c3.4 1.3 6.7 2.9 10 4.8C168.4 52 180.5 97.1 160 132.4c-1.7 3-3.7 5.8-5.7 8.5M122.9 26.8s-16 20.1-14.1 34.2c2.2 17.2 30.6 25.5 40.5 38.8 14.4 19.3 5 41.1 5 41.1"/></svg>