<?xml version="1.0" encoding="UTF-8" standalone="no"?>
<svg
   width="192"
   height="192"
   viewBox="0 0 192 192"
   fill="none"
   version="1.1"
   id="svg2"
   xmlns="http://www.w3.org/2000/svg"
   xmlns:svg="http://www.w3.org/2000/svg">
  <defs
     id="defs2" />
  <path
     d="m 131.65198,62.940188 -2.251,20.214 m -45.094997,-20.215 -2.932,25.695 m -27.204,-25.51 -1.203,11.769 c -0.793,10.974 9.517,6.982 13.36,-0.365 m 1.281,-11.38 -2.24,19.59 m 7.794,47.441002 h 36.715997 c 4.576,0 9.274,-0.996 14.394,-9.324 l 8.58,12.763 14.546,-47.892002 2.951,56.094002 9.1,-17.735 6.967,9.533 h 4.584 M 37.320983,73.938188 c 0,4.142 -3.526,7.727 -7.716,7.708 l -8.605,-0.04 0.526,-7.668 0.519,-8.042 h 7.56 c 4.19,0 7.716,3.26 7.716,8.042 z m 1.053,-15.715 c 0,4.142 -3.527,7.727 -7.717,7.707 l -8.604,-0.04 0.525,-7.667 0.52,-8.042 h 7.56 c 4.19,0 7.716,3.26 7.716,8.041 z m 90.899997,17.477 c -0.52949,1.13962 -1.23363,2.18959 -2.087,3.112 -0.82573,0.89831 -1.79492,1.65324 -2.868,2.234 -1.043,0.557 -2.135,0.903 -3.213,1.016 -1.078,0.113 -2.121,-0.008 -3.07,-0.356 -1.915,-0.704 -3.329,-2.291 -3.931,-4.413 -0.601,-2.121 -0.341,-4.603 0.724,-6.9 0.52886,-1.139431 1.2327,-2.18912 2.086,-3.111 0.82581,-0.898225 1.79498,-1.653151 2.868,-2.234 1.044,-0.558 2.136,-0.903 3.214,-1.017 1.078,-0.113 2.121,0.008 3.069,0.357 1.916,0.704 3.33,2.29 3.931,4.412 0.602,2.122 0.341,4.604 -0.723,6.9 z m -30.012997,-1.871 c -0.396,5.454 -5.142,8.478 -9.457,8.177 -4.315,-0.3 -6.81,-3.829 -6.415,-9.282 0.395,-5.454 5.134,-8.53 9.449,-8.23 4.315,0.301 6.818,3.882 6.423,9.335 z"
     stroke="#000000"
     stroke-width="10"
     stroke-miterlimit="16"
     stroke-linecap="round"
     stroke-linejoin="round"
     id="path1"
     style="fill:none" />
</svg>
