<svg xmlns="http://www.w3.org/2000/svg" width="192" height="192" fill="none"><path stroke="#000" stroke-linecap="round" stroke-linejoin="round" stroke-miterlimit="16" stroke-width="10" d="m131.652 62.94-2.251 20.214M84.306 62.94l-2.932 25.695M54.17 63.124l-1.203 11.77c-.793 10.973 9.517 6.981 13.36-.366m1.281-11.38-2.24 19.59m7.794 47.441h36.716c4.576 0 9.274-.996 14.394-9.324l8.58 12.763 14.546-47.892 2.951 56.094 9.1-17.735 6.967 9.533H171M37.321 73.938c0 4.142-3.526 7.727-7.716 7.708L21 81.606l.526-7.668.519-8.042h7.56c4.19 0 7.716 3.26 7.716 8.042m1.053-15.715c0 4.142-3.527 7.727-7.717 7.707l-8.604-.04.525-7.667.52-8.042h7.56c4.19 0 7.716 3.26 7.716 8.041zm90.9 17.477a12 12 0 0 1-2.087 3.112 11 11 0 0 1-2.868 2.234c-1.043.557-2.135.903-3.213 1.016s-2.121-.008-3.07-.356c-1.915-.704-3.329-2.29-3.931-4.413-.601-2.12-.341-4.603.724-6.9a12 12 0 0 1 2.086-3.11 11 11 0 0 1 2.868-2.235c1.044-.558 2.136-.903 3.214-1.017s2.121.008 3.069.357c1.916.704 3.33 2.29 3.931 4.412.602 2.122.341 4.604-.723 6.9m-30.013-1.87c-.396 5.453-5.142 8.477-9.457 8.176-4.315-.3-6.81-3.829-6.415-9.282.395-5.454 5.134-8.53 9.449-8.23 4.315.301 6.818 3.882 6.423 9.335" style="fill:none"/></svg>