<svg xmlns="http://www.w3.org/2000/svg" width="192" height="192" fill="none" viewBox="0 0 192 192"><path stroke="#000" stroke-linecap="round" stroke-linejoin="round" stroke-width="12" d="M22 120V72l22 38 22-38v48m82-48v42c0 1.591.632 3.117 1.757 4.243A6 6 0 0 0 154 120h16m-48.584-38.107a24 24 0 0 1 3.259 21.97 24 24 0 0 1-13.057 14.126A24 24 0 0 1 102 120H88m14-48h-8a6 6 0 0 0-6 6v10"/><path stroke="#000" stroke-linecap="round" stroke-linejoin="round" stroke-width="10" d="m129 71-41 48v1"/></svg>