<?xml version="1.0" encoding="UTF-8"?><svg id="a" xmlns="http://www.w3.org/2000/svg" viewBox="0 0 192 192"><path d="M170,124.1l-17.4-4.8c-1.88-.52-3.12-2.32-2.92-4.27l2.82-27.3c.3-2.88-2.48-5.12-5.23-4.21l-28.78,9.47c-1.7.56-3.57-.08-4.57-1.57l-14.61-21.75c-1.58-2.36-5.06-2.36-6.64,0l-14.61,21.75c-1,1.49-2.87,2.13-4.57,1.57l-28.78-9.47c-2.75-.91-5.53,1.33-5.23,4.21l2.82,27.3c.2,1.94-1.03,3.75-2.92,4.27l-17.4,4.8" style="fill:none; stroke:#000; stroke-linecap:round; stroke-linejoin:round; stroke-width:12px;"/></svg>