<svg width="192" height="192" fill="none" xmlns="http://www.w3.org/2000/svg"><path d="M22 62c12 24 20 66 54 43" stroke="#000" stroke-width="12" stroke-linecap="round" stroke-linejoin="round"/><path d="M22 62c8-2 60-2 54 43m14 19-14-19m94-31c-55-14-70 32-83 58m83-58c-16.62 55.4-44.229 64.573-63 63.438" stroke="#000" stroke-width="12" stroke-linecap="round" stroke-linejoin="round"/><path d="M147.592 117.292a12.996 12.996 0 0 1-21.202-4.217 12.984 12.984 0 0 1-.927-6.249A12.996 12.996 0 0 1 138.4 95.1m2.1 0h-2" stroke="#000" stroke-width="10" stroke-linecap="round" stroke-linejoin="round"/></svg>