<svg xmlns="http://www.w3.org/2000/svg" width="192" height="192" fill="none"><circle cx="96" cy="113" r="12" stroke="#000" stroke-linecap="round" stroke-linejoin="round" stroke-width="12"/><path stroke="#000" stroke-linecap="round" stroke-linejoin="round" stroke-width="12" d="M25 31a6 6 0 0 1 6-6h130a6 6 0 0 1 6 6v130a6 6 0 0 1-6 6H31a6 6 0 0 1-6-6zm0 46h142"/><path stroke="#000" stroke-linecap="round" stroke-linejoin="round" stroke-width="12" d="M145 77V57a6 6 0 0 0-6-6H53a6 6 0 0 0-6 6v20"/></svg>