<svg xmlns="http://www.w3.org/2000/svg" width="192" height="192" fill="none" stroke="#000" stroke-linecap="round" stroke-linejoin="round" stroke-width="12" viewBox="0 0 192 192"><path d="M167.479 115.153A74.007 74.007 0 0 1 96 170a73.998 73.998 0 0 1-71.478-54.847"/><path d="M122.785 132.908a43.994 43.994 0 0 0 15.715-23.52S122.949 100.809 112 100c-16.01-1.184-22.95 13.329-39 13-7.744-.159-19.501-3.612-19.501-3.612A44.003 44.003 0 0 0 95.999 142a44 44 0 0 0 26.786-9.092zm44.694-56.061A74.004 74.004 0 0 0 96 22a74 74 0 0 0-71.478 54.847"/></svg>