<svg xmlns="http://www.w3.org/2000/svg" width="192" height="192" fill="none"><path stroke="#000" stroke-linecap="round" stroke-linejoin="round" stroke-width="12" d="M69 75a6 6 0 0 1 6-6h86a6 6 0 0 1 6 6v86a6 6 0 0 1-6 6H75a6 6 0 0 1-6-6z"/><path stroke="#000" stroke-linecap="round" stroke-linejoin="round" stroke-width="12" d="M145 91c-34 31-43 54-43 54l-11-19m5-101H31a6 6 0 0 0-6 6v65"/><path stroke="#000" stroke-linecap="round" stroke-linejoin="round" stroke-width="12" d="M118 47H53a6 6 0 0 0-6 6v65"/></svg>