<?xml version="1.0" encoding="UTF-8" ?>
<!DOCTYPE svg PUBLIC "-//W3C//DTD SVG 1.1//EN" "http://www.w3.org/Graphics/SVG/1.1/DTD/svg11.dtd">
<svg width="144pt" height="144pt" viewBox="0 0 144 144" version="1.1" xmlns="http://www.w3.org/2000/svg">
<g id="#000000fe">
<path fill="#000000" opacity="1.00" d=" M 56.44 35.42 C 57.16 42.58 56.60 49.80 56.76 56.99 C 56.60 74.18 57.09 91.39 56.51 108.57 C 56.09 105.40 56.20 102.20 56.22 99.02 C 56.40 77.82 55.94 56.60 56.44 35.42 Z" />
<path fill="#000000" opacity="1.00" d=" M 21.71 41.47 C 24.99 41.44 28.27 41.40 31.54 41.74 C 29.23 42.25 26.87 42.44 24.51 42.50 C 24.34 42.78 24.01 43.35 23.85 43.63 C 23.32 43.26 22.27 42.51 21.75 42.13 C 21.80 42.60 21.90 43.53 21.95 44.00 C 22.56 45.27 24.21 45.20 25.34 45.71 C 26.21 46.21 27.08 46.70 27.95 47.18 C 27.61 49.03 27.33 50.89 26.91 52.73 C 26.71 51.27 26.54 49.80 26.40 48.34 C 25.46 48.40 23.57 48.52 22.63 48.59 C 23.01 48.99 23.77 49.80 24.15 50.20 C 24.47 52.72 26.49 53.41 28.80 52.69 C 30.09 50.42 29.27 47.67 29.59 45.22 C 31.30 47.56 30.87 50.42 30.62 53.10 C 28.98 53.99 27.38 54.97 25.98 56.22 C 25.06 56.38 23.23 56.71 22.31 56.88 C 22.34 56.46 22.39 55.62 22.42 55.20 C 22.00 55.58 21.16 56.34 20.73 56.72 C 20.44 56.87 19.87 57.17 19.58 57.32 L 18.22 56.85 L 18.64 54.20 C 19.28 54.32 20.57 54.58 21.22 54.70 C 20.66 53.52 20.09 52.34 19.51 51.17 C 19.90 50.11 20.25 49.04 20.55 47.95 C 19.87 47.41 18.51 46.34 17.84 45.81 C 18.60 45.55 20.14 45.02 20.91 44.76 C 21.20 43.67 21.46 42.57 21.71 41.47 M 22.34 46.07 L 22.16 46.77 L 23.06 47.23 L 23.93 46.74 L 23.69 46.05 C 23.35 46.05 22.68 46.07 22.34 46.07 M 21.25 47.94 C 21.80 48.54 21.80 48.54 21.25 47.94 M 21.95 50.46 C 21.16 51.67 22.23 54.10 23.75 54.00 C 24.01 52.81 23.43 50.43 21.95 50.46 M 23.75 54.00 C 24.05 57.33 26.78 52.57 23.75 54.00 Z" />
<path fill="#000000" opacity="1.00" d=" M 68.22 45.69 C 69.77 46.03 71.32 46.40 72.76 47.09 C 75.48 45.32 78.63 45.55 81.10 47.62 C 83.58 46.04 87.43 44.45 89.54 47.46 C 91.74 51.37 90.56 56.13 90.84 60.41 C 89.74 60.41 87.56 60.40 86.47 60.39 C 86.41 57.25 86.70 54.05 86.03 50.95 C 86.00 48.96 83.42 49.30 82.33 50.11 C 81.68 53.51 81.91 56.98 81.85 60.42 C 80.34 60.41 78.82 60.41 77.31 60.41 C 77.12 57.04 77.74 53.49 76.63 50.24 C 76.00 48.51 73.09 49.63 73.13 51.14 C 72.63 54.20 72.83 57.31 72.79 60.39 C 71.27 60.41 69.75 60.43 68.23 60.45 C 68.21 55.53 68.15 50.61 68.22 45.69 Z" />
<path fill="#000000" opacity="1.00" d=" M 90.27 45.65 C 91.87 45.70 93.48 45.80 95.08 45.96 C 96.79 48.81 97.24 52.28 98.44 55.37 C 99.44 52.21 100.30 49.02 101.10 45.80 C 102.77 45.80 104.44 45.80 106.11 45.81 C 103.77 51.60 102.09 57.68 99.26 63.27 C 98.20 65.68 95.59 66.52 93.36 67.46 C 93.27 66.79 93.10 65.46 93.01 64.80 C 92.99 65.28 92.94 66.23 92.92 66.70 C 90.35 66.59 87.52 65.87 85.13 67.18 C 81.00 69.51 81.11 76.56 85.35 78.73 C 87.11 79.47 89.06 79.44 90.92 79.67 C 90.93 77.97 90.94 76.27 90.93 74.57 C 90.13 74.58 88.54 74.60 87.74 74.61 C 87.74 73.63 87.76 71.65 87.77 70.67 C 90.34 70.67 92.91 70.66 95.48 70.66 C 95.48 74.57 95.48 78.48 95.47 82.38 C 90.85 83.14 85.59 84.26 81.39 81.50 C 75.65 77.81 75.84 68.24 81.51 64.58 C 85.86 61.71 91.32 62.73 96.24 62.29 C 95.36 56.39 92.29 51.19 90.27 45.65 Z" />
<path fill="#000000" opacity="1.00" d=" M 13.31 61.56 C 13.92 58.08 14.38 54.52 15.93 51.30 C 16.31 53.10 16.63 54.91 16.97 56.72 C 16.57 56.71 15.78 56.68 15.38 56.67 C 15.34 58.19 15.28 59.70 15.19 61.22 C 17.25 59.33 19.89 58.72 22.55 58.26 C 25.40 56.73 28.75 57.70 31.82 57.38 C 30.11 56.95 28.37 56.60 26.65 56.23 C 28.62 54.25 31.39 54.14 34.00 54.39 C 34.30 57.90 36.98 60.27 39.11 62.78 C 37.29 62.07 35.63 61.07 34.13 59.84 C 31.44 65.69 31.94 72.20 31.04 78.41 C 31.39 77.68 32.09 76.21 32.44 75.47 C 33.03 77.28 33.63 79.09 34.26 80.89 C 35.63 80.41 36.99 79.92 38.35 79.42 C 39.19 81.67 40.21 83.86 40.89 86.17 C 40.67 87.91 39.78 89.47 39.15 91.09 C 38.62 91.22 37.57 91.50 37.05 91.64 C 36.74 92.29 36.13 93.61 35.83 94.26 C 28.98 93.95 22.12 94.05 15.29 93.63 C 15.90 92.79 16.55 91.98 17.21 91.18 C 18.70 91.34 20.19 91.49 21.66 91.76 C 21.72 91.54 21.85 91.09 21.91 90.86 C 23.34 88.82 25.70 91.28 27.42 91.52 C 29.97 90.17 31.25 87.70 31.66 84.92 C 32.94 84.70 34.22 84.48 35.50 84.27 C 35.60 85.03 35.80 86.54 35.90 87.30 C 35.65 86.76 35.16 85.67 34.92 85.12 C 34.23 85.24 32.85 85.47 32.16 85.58 C 32.58 87.58 33.03 89.57 33.54 91.54 C 35.54 90.55 37.48 89.45 39.42 88.35 C 39.47 87.40 39.57 85.50 39.62 84.55 C 36.86 83.46 34.01 82.65 31.09 82.10 C 30.85 82.82 30.37 84.26 30.13 84.99 C 29.38 84.46 27.90 83.39 27.16 82.86 C 28.05 82.76 29.83 82.56 30.72 82.46 C 29.17 81.81 27.62 81.12 25.99 80.69 C 24.70 81.35 23.53 82.21 22.33 83.03 C 22.08 84.86 23.36 88.06 20.98 88.81 C 20.42 89.12 19.84 89.42 19.26 89.69 C 19.44 88.22 19.64 86.76 19.84 85.31 L 17.66 85.27 C 17.87 86.30 18.29 88.38 18.50 89.41 C 17.95 88.92 16.86 87.94 16.32 87.45 C 16.19 87.88 15.92 88.73 15.79 89.16 C 15.37 87.38 15.06 85.47 13.81 84.06 C 13.26 84.81 12.18 86.31 11.64 87.06 C 13.05 87.95 14.47 88.82 15.90 89.70 C 15.04 90.43 14.16 91.15 13.27 91.85 C 10.13 87.59 12.21 82.56 14.40 78.46 C 15.42 77.93 16.45 77.40 17.47 76.87 C 17.21 71.78 15.59 66.87 15.47 61.78 C 14.93 61.72 13.85 61.61 13.31 61.56 M 27.26 59.32 C 27.81 59.85 27.81 59.85 27.26 59.32 M 21.26 60.32 C 21.75 60.90 21.75 60.90 21.26 60.32 M 17.30 64.94 C 17.90 65.43 17.90 65.43 17.30 64.94 M 17.22 68.10 C 17.68 71.60 17.68 75.12 17.72 78.64 C 18.61 77.25 19.46 75.85 20.30 74.43 C 20.24 73.26 20.29 72.10 20.36 70.93 C 20.33 69.13 20.23 67.34 20.09 65.55 C 19.13 66.39 18.18 67.25 17.22 68.10 M 27.27 66.24 C 27.83 66.78 27.83 66.78 27.27 66.24 M 19.44 79.58 C 20.73 79.60 22.03 79.64 23.32 79.69 C 23.63 75.88 24.50 72.15 25.04 68.37 C 23.83 67.56 22.60 66.80 21.33 66.08 C 21.23 70.63 22.86 75.79 19.44 79.58 M 28.33 76.76 L 30.06 76.76 C 30.39 73.20 31.13 69.68 30.88 66.09 C 27.08 68.33 28.85 73.18 28.33 76.76 M 24.59 79.62 C 25.26 79.83 26.61 80.25 27.29 80.45 C 27.52 76.11 27.56 71.75 27.28 67.41 C 24.14 70.61 25.76 75.63 24.59 79.62 M 16.31 78.94 C 15.82 80.58 16.39 81.08 18.01 80.45 C 18.51 78.82 17.94 78.31 16.31 78.94 M 29.49 79.02 C 29.62 80.43 30.28 80.68 31.47 79.77 C 31.34 78.36 30.68 78.11 29.49 79.02 M 15.09 82.61 L 14.62 83.38 C 15.74 85.37 17.62 82.02 15.09 82.61 M 18.00 83.17 C 17.11 84.55 19.51 85.79 20.47 84.77 C 21.34 83.40 18.96 81.99 18.00 83.17 Z" />
<path fill="#000000" opacity="1.00" d=" M 37.91 57.43 C 39.30 57.62 39.58 58.31 38.74 59.51 C 37.35 59.31 37.07 58.61 37.91 57.43 Z" />
<path fill="#000000" opacity="1.00" d=" M 105.44 62.50 C 109.71 61.68 114.60 63.88 116.18 68.07 C 118.28 73.09 116.82 80.20 111.46 82.51 C 106.97 84.53 100.75 83.17 98.57 78.46 C 95.41 72.60 98.33 63.52 105.44 62.50 M 105.41 66.46 C 100.75 69.23 101.15 78.90 107.14 79.68 C 111.40 79.79 112.85 74.43 112.07 71.02 C 111.93 67.82 108.54 64.86 105.41 66.46 Z" />
<path fill="#000000" opacity="1.00" d=" M 33.55 62.12 C 34.78 62.23 37.23 62.45 38.46 62.57 C 38.45 63.06 38.42 64.06 38.41 64.56 C 37.75 64.47 37.09 64.37 36.43 64.28 C 36.59 65.21 36.90 67.08 37.05 68.01 C 35.17 66.41 32.67 64.96 33.55 62.12 Z" />
<path fill="#000000" opacity="1.00" d=" M 116.50 62.85 C 118.21 62.87 119.92 62.88 121.63 62.91 C 123.08 68.02 124.49 73.14 126.09 78.21 C 127.68 73.12 128.49 67.73 130.79 62.90 C 132.33 62.74 133.88 62.63 135.44 62.58 C 133.19 69.42 130.75 76.21 128.50 83.06 C 126.70 83.09 124.91 83.11 123.11 83.13 C 120.90 76.37 118.69 69.61 116.50 62.85 Z" />
<path fill="#000000" opacity="1.00" d=" M 35.26 77.98 C 35.77 78.58 35.77 78.58 35.26 77.98 Z" />
<path fill="#000000" opacity="1.00" d=" M 70.85 83.79 C 72.77 85.40 74.37 87.34 75.93 89.27 C 77.41 89.22 78.89 89.16 80.38 89.10 C 80.48 87.79 80.60 86.49 80.74 85.19 C 81.51 85.23 83.04 85.32 83.81 85.37 C 85.20 86.99 86.63 88.64 88.59 89.58 C 85.41 91.53 87.53 96.19 86.93 99.30 L 86.01 99.26 C 85.98 95.94 85.98 92.63 85.85 89.31 C 82.71 89.56 83.00 93.41 81.25 95.30 C 82.10 96.86 82.97 98.41 83.73 100.02 C 81.07 97.88 79.28 94.94 77.80 91.91 C 79.02 92.73 80.23 93.55 81.44 94.39 C 81.78 92.82 82.12 91.25 82.45 89.68 C 80.50 89.86 78.55 90.03 76.61 90.20 C 76.52 93.10 76.53 95.99 76.57 98.89 C 76.29 98.89 75.73 98.90 75.45 98.90 C 75.44 97.24 75.42 95.59 75.39 93.94 C 73.79 94.28 72.37 94.97 71.13 96.02 C 70.88 95.77 70.39 95.28 70.15 95.03 C 70.48 93.57 70.86 92.11 70.99 90.61 C 70.29 90.25 68.90 89.53 68.20 89.17 C 70.42 89.16 72.64 89.11 74.86 89.03 C 73.45 87.34 72.03 85.66 70.85 83.79 M 81.92 86.42 C 80.23 88.08 84.04 90.26 84.83 88.20 C 84.96 86.80 83.12 85.63 81.92 86.42 M 72.07 89.93 C 72.05 90.83 72.00 92.63 71.97 93.52 C 72.85 93.52 74.61 93.52 75.49 93.52 C 75.47 92.59 75.42 90.73 75.40 89.80 C 74.57 89.83 72.90 89.90 72.07 89.93 Z" />
<path fill="#000000" opacity="1.00" d=" M 94.23 89.65 C 100.76 88.63 107.40 89.45 113.97 89.22 C 121.26 88.96 128.55 89.41 135.83 89.04 C 135.38 90.47 134.95 91.90 134.53 93.33 C 131.42 95.25 134.70 97.79 135.56 100.07 C 132.96 97.93 131.16 95.04 129.56 92.13 C 130.83 92.72 132.08 93.37 133.39 93.86 C 133.71 92.65 133.99 91.43 134.25 90.20 C 132.11 90.04 129.97 89.89 127.83 89.73 C 127.72 93.07 127.78 96.43 127.36 99.75 C 126.58 96.55 126.72 93.23 126.71 89.96 C 124.43 89.92 122.15 89.91 119.87 89.89 C 119.87 90.37 119.87 91.34 119.87 91.82 C 121.29 92.20 123.02 91.97 124.21 92.98 C 124.67 95.14 123.16 96.89 122.13 98.60 C 122.49 96.58 122.94 94.57 123.34 92.56 C 119.32 92.54 119.88 96.62 119.78 99.47 C 118.98 97.25 116.68 96.90 114.85 95.97 C 114.07 94.87 114.64 93.45 114.64 92.23 C 115.50 92.16 117.23 92.01 118.09 91.93 C 117.09 92.62 116.12 93.34 115.17 94.09 C 115.85 95.41 116.89 96.38 118.30 97.01 C 118.70 94.72 119.01 92.43 119.29 90.13 C 116.96 90.10 114.63 90.10 112.31 90.11 C 112.23 91.36 112.15 92.62 112.07 93.87 C 111.54 94.16 110.47 94.74 109.94 95.03 C 110.93 96.70 111.95 98.37 112.76 100.14 C 110.25 97.77 108.36 94.87 106.69 91.87 C 107.95 92.67 109.20 93.48 110.45 94.30 C 110.77 92.84 111.07 91.38 111.37 89.92 C 109.32 89.93 107.27 89.94 105.23 89.95 C 105.18 93.35 105.36 96.80 104.57 100.14 C 104.24 98.15 104.03 96.15 103.82 94.15 C 102.96 93.95 101.24 93.54 100.38 93.34 C 98.38 95.43 100.37 97.68 101.08 99.81 C 98.94 97.52 97.26 94.88 95.74 92.16 C 96.93 92.90 98.10 93.65 99.29 94.40 C 99.35 93.02 99.42 91.64 99.48 90.27 C 97.72 90.11 95.97 89.91 94.23 89.65 M 100.76 89.90 C 100.74 90.68 100.69 92.25 100.66 93.03 C 101.58 93.10 103.42 93.24 104.34 93.31 C 104.33 92.46 104.32 90.75 104.32 89.89 C 103.43 89.89 101.65 89.89 100.76 89.90 Z" />
<path fill="#000000" opacity="1.00" d=" M 43.72 95.42 C 44.71 97.97 44.80 100.72 44.82 103.42 C 44.45 102.37 44.09 101.32 43.75 100.27 C 42.91 99.80 42.08 99.33 41.26 98.86 C 41.26 100.22 41.25 101.58 41.23 102.94 C 39.89 102.35 38.56 101.76 37.22 101.18 C 37.35 100.68 37.59 99.68 37.72 99.18 C 36.03 99.16 35.41 101.19 34.20 102.05 C 34.28 101.10 34.42 100.16 34.55 99.23 C 33.14 99.03 31.74 98.82 30.35 98.54 C 34.73 98.07 39.17 97.94 43.55 98.47 C 43.59 97.71 43.67 96.18 43.72 95.42 M 39.09 99.33 C 37.48 102.28 42.46 99.50 39.09 99.33 Z" />
<path fill="#000000" opacity="1.00" d=" M 22.46 97.72 C 24.63 98.07 26.81 98.36 28.98 98.75 C 27.41 99.18 25.77 99.28 24.15 99.44 C 24.97 100.14 25.90 100.69 26.81 101.27 C 26.82 101.76 26.84 102.74 26.85 103.23 C 26.34 102.66 25.31 101.52 24.79 100.95 C 24.48 101.53 23.84 102.70 23.53 103.28 C 23.49 102.75 23.42 101.71 23.38 101.18 C 22.51 101.20 20.75 101.24 19.87 101.25 C 20.07 100.90 20.47 100.20 20.67 99.86 C 21.23 99.80 22.35 99.69 22.91 99.64 L 22.91 99.37 C 17.54 99.33 12.10 99.78 6.82 98.55 C 12.01 97.83 17.28 98.63 22.46 97.72 Z" />
<path fill="#000000" opacity="1.00" d=" M 8.63 100.10 C 9.39 99.29 11.39 99.31 11.60 100.60 C 11.22 102.13 7.58 101.98 8.63 100.10 Z" />
<path fill="#000000" opacity="1.00" d=" M 32.27 100.32 C 35.62 100.52 30.66 103.26 32.27 100.32 Z" />
<path fill="#000000" opacity="1.00" d=" M 18.03 100.70 C 21.37 100.94 16.40 103.66 18.03 100.70 Z" />
<path fill="#000000" opacity="1.00" d=" M 14.27 101.92 C 14.84 102.45 14.84 102.45 14.27 101.92 Z" />
</g>
</svg>
