<svg width="192" height="192" viewBox="0 0 192 192" fill="none" xmlns="http://www.w3.org/2000/svg"><circle cx="96" cy="96" r="5" stroke="#000" stroke-width="10" stroke-linejoin="round"/><circle cx="48" cy="163" r="4" stroke="#000" stroke-width="8" stroke-linejoin="round"/><circle cx="72" cy="163" r="4" stroke="#000" stroke-width="8" stroke-linejoin="round"/><circle cx="96" cy="163" r="4" stroke="#000" stroke-width="8" stroke-linejoin="round"/><circle cx="120" cy="163" r="4" stroke="#000" stroke-width="8" stroke-linejoin="round"/><circle cx="144" cy="163" r="4" stroke="#000" stroke-width="8" stroke-linejoin="round"/><path d="M130 71H62a6 6 0 0 0-6 6v56a6 6 0 0 0 6 6h68a6 6 0 0 0 6-6V77a6 6 0 0 0-6-6ZM70 50v21" stroke="#000" stroke-width="12" stroke-linecap="round" stroke-linejoin="round"/><path d="m96 101-4 18m4-18 4 18m-8 0h8" stroke="#000" stroke-width="10" stroke-linecap="round" stroke-linejoin="round"/><path d="M122 50v21m0-21a26.012 26.012 0 0 0-7.615-18.385A26.014 26.014 0 0 0 96 24a26 26 0 0 0-26 26" stroke="#000" stroke-width="12" stroke-linecap="round" stroke-linejoin="round"/></svg>