<svg xmlns="http://www.w3.org/2000/svg" width="192" height="192" fill="none"><circle cx="80" cy="57" r="5" stroke="#000" stroke-linecap="round" stroke-linejoin="round" stroke-width="10"/><circle cx="135" cy="80" r="5" stroke="#000" stroke-linecap="round" stroke-linejoin="round" stroke-width="10"/><circle cx="5" cy="5" r="5" stroke="#000" stroke-linecap="round" stroke-linejoin="round" stroke-width="10" transform="matrix(1 0 0 -1 75 140)"/><circle cx="5" cy="5" r="5" stroke="#000" stroke-linecap="round" stroke-linejoin="round" stroke-width="10" transform="matrix(1 0 0 -1 52 85)"/><circle cx="96" cy="24" r="4" stroke="#000" stroke-linecap="round" stroke-linejoin="round" stroke-width="8"/><circle cx="146.912" cy="45.088" r="4" stroke="#000" stroke-linecap="round" stroke-linejoin="round" stroke-width="8"/><circle cx="168" cy="96" r="4" stroke="#000" stroke-linecap="round" stroke-linejoin="round" stroke-width="8"/><circle cx="146.912" cy="146.912" r="4" stroke="#000" stroke-linecap="round" stroke-linejoin="round" stroke-width="8"/><circle cx="4" cy="4" r="4" stroke="#000" stroke-linecap="round" stroke-linejoin="round" stroke-width="8" transform="matrix(1 0 0 -1 92 172)"/><circle cx="4" cy="4" r="4" stroke="#000" stroke-linecap="round" stroke-linejoin="round" stroke-width="8" transform="matrix(1 0 0 -1 41.088 150.912)"/><circle cx="4" cy="4" r="4" stroke="#000" stroke-linecap="round" stroke-linejoin="round" stroke-width="8" transform="matrix(1 0 0 -1 20 100)"/><circle cx="4" cy="4" r="4" stroke="#000" stroke-linecap="round" stroke-linejoin="round" stroke-width="8" transform="matrix(1 0 0 -1 41.088 49.088)"/><circle cx="112" cy="57" r="5" stroke="#000" stroke-linecap="round" stroke-linejoin="round" stroke-width="10"/><circle cx="135" cy="112" r="5" stroke="#000" stroke-linecap="round" stroke-linejoin="round" stroke-width="10"/><circle cx="5" cy="5" r="5" stroke="#000" stroke-linecap="round" stroke-linejoin="round" stroke-width="10" transform="matrix(1 0 0 -1 107 140)"/><circle cx="5" cy="5" r="5" stroke="#000" stroke-linecap="round" stroke-linejoin="round" stroke-width="10" transform="matrix(1 0 0 -1 52 117)"/><circle cx="96" cy="96" r="6" stroke="#000" stroke-linecap="round" stroke-linejoin="round" stroke-width="12"/></svg>