<svg xmlns="http://www.w3.org/2000/svg" width="192" height="192" stroke-linecap="round" stroke-width="3.175" viewBox="0 0 50.8 50.8"><path fill="none" stroke="#000" stroke-linejoin="round" d="M36.46 34.699h5.09a3.467 3.467 0 0 0 3.468-3.458 3.467 3.467 0 0 0-3.467-3.458m-5.09-6.915h5.09a3.467 3.467 0 0 1 3.467 3.457 3.467 3.467 0 0 1-3.467 3.458H38.44m-7.266 6.916v-8.887c0-2.715-2.236-4.945-4.958-4.945-2.755 0-4.99 2.23-4.99 4.945m-9.917 8.887v-8.887c0-2.715 2.236-4.945 4.958-4.945a4.95 4.95 0 0 1 4.958 4.945v8.887"/><path d="M5.782 14.513a1.51 1.506 0 0 0-.002 0z"/><path stroke="#000" d="M5.782 20.964V34.7"/></svg>