<?xml version="1.0" encoding="UTF-8" standalone="no"?>
<svg
   height="24"
   width="24"
   version="1.1"
   id="svg4"
   sodipodi:docname="myjio.svg"
   inkscape:version="1.1.1 (3bf5ae0d25, 2021-09-20)"
   xmlns:inkscape="http://www.inkscape.org/namespaces/inkscape"
   xmlns:sodipodi="http://sodipodi.sourceforge.net/DTD/sodipodi-0.dtd"
   xmlns="http://www.w3.org/2000/svg"
   xmlns:svg="http://www.w3.org/2000/svg">
  <defs
     id="defs8" />
  <sodipodi:namedview
     id="namedview6"
     pagecolor="#ffffff"
     bordercolor="#666666"
     borderopacity="1.0"
     inkscape:pageshadow="2"
     inkscape:pageopacity="0.0"
     inkscape:pagecheckerboard="0"
     showgrid="true"
     inkscape:zoom="22.63"
     inkscape:cx="-0.088378259"
     inkscape:cy="13.013699"
     inkscape:window-width="2560"
     inkscape:window-height="1015"
     inkscape:window-x="0"
     inkscape:window-y="32"
     inkscape:window-maximized="1"
     inkscape:current-layer="svg4">
    <inkscape:grid
       type="xygrid"
       id="grid821"
       empspacing="1" />
  </sodipodi:namedview>
  <path
     d="m 17.91363,15.415783 c -0.959,0 -1.629075,-0.709621 -1.629075,-1.721325 0,-0.998526 0.683263,-1.708145 1.629075,-1.708145 0.945811,0 1.629074,0.709621 1.629074,1.721324 0,0.985348 -0.696442,1.708145 -1.629074,1.708146 z m 0.02642,-5.6242106 c -2.469462,0 -4.11273,1.5641946 -4.11273,3.9028856 0,2.392418 1.576361,3.929243 4.073193,3.929243 C 20.370925,17.623701 22,16.085862 22,13.707637 22,11.368947 20.384104,9.7915724 17.939986,9.7915724 Z M 11.580817,6.3762945 c -0.932642,0 -1.524659,0.525116 -1.524659,1.3533383 0,0.8414003 0.6052,1.3665162 1.564195,1.3665162 0.932643,0 1.523646,-0.5251159 1.523646,-1.3665162 0,-0.8414013 -0.604188,-1.3533383 -1.563182,-1.3533383 z m 0.157127,3.4953632 h -0.302095 c -0.735969,0 -1.300625,0.3416313 -1.300625,1.4050393 v 4.822343 c 0,1.064424 0.537285,1.405039 1.326982,1.405039 h 0.302095 c 0.735968,0 1.261087,-0.36799 1.261087,-1.405039 V 11.276697 C 13.03857,10.185916 12.526633,9.8716577 11.737944,9.8716577 Z M 7.7945116,7.5978465 H 7.3616483 c -0.8282213,0 -1.2752804,0.4724001 -1.2752804,1.4050383 v 4.4949072 c 0,1.155659 -0.394337,1.563182 -1.3138025,1.563182 -0.7217792,0 -1.3138025,-0.314264 -1.7740385,-0.893095 -0.038526,-0.0659 -0.9985266,0.394347 -0.9985266,1.510466 0,1.209387 1.1303161,1.94536 3.2196273,1.94536 2.5495461,0 3.8897055,-1.27528 3.8897055,-4.087386 V 8.9907206 c 0,-0.9326424 -0.4470633,-1.3918594 -1.3148152,-1.3918594 z"
     fill="#fff"
     style="fill:#000000;fill-opacity:1;stroke:none;stroke-width:1.01374;stroke-miterlimit:4;stroke-dasharray:none"
     id="path2" />
</svg>
