<svg xmlns="http://www.w3.org/2000/svg" viewBox="0 0 24 24" style="enable-background:new 0 0 24 24" xml:space="preserve">
    <path d="M17.9 14.8c-.9 0-1.6-.7-1.6-1.7s.7-1.7 1.6-1.7 1.6.7 1.6 1.7-.6 1.7-1.6 1.7zm.1-5.6c-2.4 0-4.1 1.5-4.1 3.9s1.6 3.9 4 3.9 4-1.5 4-3.9c.1-2.3-1.5-3.9-3.9-3.9zm-6.3-3.3c-.9 0-1.5.5-1.5 1.3s.6 1.3 1.5 1.3 1.5-.5 1.5-1.3-.6-1.3-1.5-1.3zm0 3.1h-.3c-.8 0-1.4.4-1.4 1.5v5.1c0 1.1.6 1.5 1.4 1.5h.3c.8 0 1.3-.4 1.3-1.5v-5.1c0-1.2-.5-1.5-1.3-1.5zm-4-2h-.4C6.4 7 6 7.5 6 8.4v4.4c0 1.1-.4 1.5-1.3 1.5-.7 0-1.3-.3-1.8-.9 0-.1-1 .4-1 1.5 0 1.2 1.1 1.9 3.2 1.9 2.5 0 3.9-1.3 3.9-4V8.4C9 7.5 8.6 7 7.7 7z"/>
</svg>
