<svg xmlns="http://www.w3.org/2000/svg" width="192" height="192" fill="none"><path stroke="#000" stroke-linecap="round" stroke-linejoin="round" stroke-width="12" d="m140.375 100.505-6.257-73.076c-.279-3.265-3.158-5.686-6.429-5.407l-71.072 6.063a5.937 5.937 0 0 0-5.417 6.418l1.107 12.923m88.068 53.079c21.118 17.875 33.044 33.766 28.758 40.325-2.82 4.317-12.177 3.848-25.342-.423m-3.416-39.902 3.416 39.902m0 0 1.463 17.09a5.937 5.937 0 0 1-5.416 6.418l-71.073 6.063a5.94 5.94 0 0 1-6.428-5.407l-6.43-75.103m87.884 50.939c-6.971-2.261-15.01-5.588-23.711-9.835M52.307 47.426c-15.31-5.535-26.335-6.583-29.44-1.831-4.568 6.99 9.278 24.579 33.04 43.873m-3.6-42.042 3.6 42.042m0 0a324 324 0 0 0 16.745 12.684m21.083-56.141-19.927 1.703"/><circle cx="113.663" cy="44.308" r="3" stroke="#000" stroke-linecap="round" stroke-linejoin="round" stroke-width="6" transform="rotate(-4.885 113.663 44.308)"/></svg>