<svg xmlns="http://www.w3.org/2000/svg" width="192" height="192" fill="none"><g stroke="#000" clip-path="url(#a)"><path stroke-linecap="round" stroke-width="8" d="M112 143c0 1.576-.388 3.136-1.142 4.593-.753 1.455-1.859 2.778-3.251 3.892-1.393 1.115-3.047 1.999-4.867 2.602S98.97 155 97 155s-3.92-.311-5.74-.913-3.474-1.487-4.867-2.602-2.497-2.437-3.251-3.892C82.388 146.136 82 144.576 82 143m13-9h4"/><path stroke-width="10" d="M62.906 90 59 78.14l-3.347-12.398-1.673-9.164-1.116-9.703v-6.766c0-2.308.293-4.606.87-6.84l1.195-4.619a10.24 10.24 0 0 1 2.795-4.8c.478-.461.999-.875 1.556-1.234l.658-.424a7.47 7.47 0 0 1 7.296-.448l.794.384a11.4 11.4 0 0 1 3.675 2.823l.361.419a14 14 0 0 1 1.553 2.191l.478.831a24.4 24.4 0 0 1 2.463 6.037l1.406 5.438 1.116 7.008.558 7.547v30.187m38.672 1.112 2.115-23.535V50.419a2.13 2.13 0 0 0-2.121-2.14h-2.274q-.365 0-.725.06l-2.813.475-2.905.327a7.4 7.4 0 0 1-3.586-.493l-.301-.122a5 5 0 0 1-1.138-.646 5.02 5.02 0 0 1-1.914-3.184l-.113-.682a7 7 0 0 1-.091-1.105v-.347c0-1.173.188-2.339.555-3.452l.153-.467a14 14 0 0 1 2.71-4.783l1.871-2.162.949-.96a31.8 31.8 0 0 1 9.326-6.536l1.586-.73a22.6 22.6 0 0 1 3.902-1.376l2.652-.67a8.75 8.75 0 0 1 7.051 1.233l.542.366c.641.432 1.238.927 1.781 1.477l1.107 1.12c.831.839 1.576 1.76 2.227 2.747a19.2 19.2 0 0 1 2.983 8.363l.269 2.454v5.884l-1.058 10.697-1.057 6.954-1.058 6.419-1.586 5.883-2.115 6.954-3.703 11.523M155 128c0 11.414-6.19 22.072-16.835 30.019C127.519 165.965 112.624 171 96 171c-16.625 0-31.519-5.035-42.164-12.981C43.19 150.072 37 139.414 37 128s6.19-22.072 16.836-30.019C64.48 90.035 79.376 85 96 85s31.519 5.035 42.165 12.981C148.81 105.928 155 116.586 155 128Z"/><path stroke-linecap="round" stroke-linejoin="round" stroke-width="8" d="M72 128v-20h-5m55 20v-20h-5"/></g><defs><clipPath id="a"><path fill="#fff" d="M0 0h192v192H0z"/></clipPath></defs></svg>