<svg xmlns="http://www.w3.org/2000/svg" width="192" height="192" viewBox="0 0 192 192"><path fill="none" stroke="#000" stroke-linejoin="round" stroke-width="12" d="M96 144.2c-1.2 0-2.5-.2-3.8-.8-3.8-1.5-6.6-4.4-9-7.5-3.3-4.3-5.8-9-8-13.8-3.8-8.2-6.8-16.8-9.2-25.6l-.2-.5c-.5-1.8-3-1.8-3.5 0-.8 2.9-1.6 5.8-2.6 8.6-3.2 9.7-6.9 19.2-12.5 27.9-2.6 4.1-5.7 7.9-10 10.3-3 1.7-6.2 1.9-9.2.3-2.7-1.4-4.3-4-5.1-7-1.2-4.6-1-9.2-.4-13.9.7-5.1 2.1-10.1 3.6-15.1 2.5-8.1 5.7-16 9.3-23.7 3.9-8.2 8.2-16.3 13.3-23.8 1.7-2.5 3.4-4.9 5.3-7.2 5.2-6.4 15-6.2 20.1.3 6.7 8.4 11.9 17.8 16.7 27.4.9 1.9 2.2 4.3 3.3 6.6.7 1.5 2.9 1.5 3.6 0 1.1-2.3 2.3-4.7 3.3-6.6 4.8-9.6 10-19 16.7-27.4 5.1-6.4 14.9-6.6 20.1-.3 1.9 2.3 3.6 4.8 5.3 7.2 5.1 7.6 9.4 15.6 13.3 23.8 3.6 7.7 6.8 15.5 9.3 23.7 1.5 5 2.9 10 3.6 15.1.7 4.6.8 9.3-.4 13.9-.8 3-2.4 5.5-5.1 7-3 1.6-6.2 1.4-9.2-.3-4.4-2.4-7.4-6.2-10-10.3-5.6-8.7-9.3-18.2-12.5-27.9-.9-2.8-1.7-5.7-2.6-8.6-.5-1.8-3-1.8-3.5 0l-.1.5c-2.4 8.7-5.4 17.3-9.2 25.6-2.2 4.8-4.7 9.5-8 13.8-2.5 3.2-5.2 6-9 7.5-1.2.5-2.5.8-3.7.8z"/></svg>