<?xml version="1.0" encoding="utf-8"?>
<!-- Generator: Adobe Illustrator 25.4.1, SVG Export Plug-In . SVG Version: 6.00 Build 0)  -->
<svg version="1.1" id="Layer_1" xmlns="http://www.w3.org/2000/svg" xmlns:xlink="http://www.w3.org/1999/xlink" x="0px" y="0px"
	 width="192px" height="192px" viewBox="0 0 192 192" style="enable-background:new 0 0 192 192;" xml:space="preserve">
<style type="text/css">
	.st0{fill:none;stroke:#000000;stroke-width:12;stroke-linejoin:round;stroke-miterlimit:10;}
</style>
<path class="st0" d="M96,144.2c-1.2,0-2.5-0.2-3.8-0.8c-3.8-1.5-6.6-4.4-9-7.5c-3.3-4.3-5.8-9-8-13.8c-3.8-8.2-6.8-16.8-9.2-25.6
	L65.8,96c-0.5-1.8-3-1.8-3.5,0c-0.8,2.9-1.6,5.8-2.6,8.6c-3.2,9.7-6.9,19.2-12.5,27.9c-2.6,4.1-5.7,7.9-10,10.3
	c-3,1.7-6.2,1.9-9.2,0.3c-2.7-1.4-4.3-4-5.1-7c-1.2-4.6-1-9.2-0.4-13.9c0.7-5.1,2.1-10.1,3.6-15.1c2.5-8.1,5.7-16,9.3-23.7
	c3.9-8.2,8.2-16.3,13.3-23.8c1.7-2.5,3.4-4.9,5.3-7.2c5.2-6.4,15-6.2,20.1,0.3l0,0c6.7,8.4,11.9,17.8,16.7,27.4
	c0.9,1.9,2.2,4.3,3.3,6.6c0.7,1.5,2.9,1.5,3.6,0c1.1-2.3,2.3-4.7,3.3-6.6c4.8-9.6,10-19,16.7-27.4l0,0c5.1-6.4,14.9-6.6,20.1-0.3
	c1.9,2.3,3.6,4.8,5.3,7.2c5.1,7.6,9.4,15.6,13.3,23.8c3.6,7.7,6.8,15.5,9.3,23.7c1.5,5,2.9,10,3.6,15.1c0.7,4.6,0.8,9.3-0.4,13.9
	c-0.8,3-2.4,5.5-5.1,7c-3,1.6-6.2,1.4-9.2-0.3c-4.4-2.4-7.4-6.2-10-10.3c-5.6-8.7-9.3-18.2-12.5-27.9c-0.9-2.8-1.7-5.7-2.6-8.6
	c-0.5-1.8-3-1.8-3.5,0l-0.1,0.5c-2.4,8.7-5.4,17.3-9.2,25.6c-2.2,4.8-4.7,9.5-8,13.8c-2.5,3.2-5.2,6-9,7.5
	C98.5,143.9,97.2,144.2,96,144.2z"/>
</svg>
