<svg xmlns="http://www.w3.org/2000/svg" width="192" height="192" fill="none"><path stroke="#000" stroke-linecap="round" stroke-linejoin="round" stroke-width="12" d="M76.243 23.757 57.757 42.243A6 6 0 0 0 56 46.485v99.03a6 6 0 0 0 1.757 4.242l18.486 18.486A6 6 0 0 0 80.485 170h31.03a6 6 0 0 0 4.242-1.757l18.486-18.486a6 6 0 0 0 1.757-4.242v-99.03a6 6 0 0 0-1.757-4.242l-18.486-18.486A6 6 0 0 0 111.515 22h-31.03a6 6 0 0 0-4.242 1.757"/><path stroke="#000" stroke-linecap="round" stroke-linejoin="round" stroke-width="12" d="M102 48H90a6 6 0 0 0-6 6v84a6 6 0 0 0 6 6h12a6 6 0 0 0 6-6V54a6 6 0 0 0-6-6"/></svg>