<?xml version="1.0" encoding="UTF-8" standalone="no"?>
<svg
   width="192"
   height="192"
   viewBox="0 0 192 192"
   fill="none"
   version="1.1"
   id="svg6"
   sodipodi:docname="mypertamina.svg"
   inkscape:version="1.1.1 (3bf5ae0d25, 2021-09-20)"
   xmlns:inkscape="http://www.inkscape.org/namespaces/inkscape"
   xmlns:sodipodi="http://sodipodi.sourceforge.net/DTD/sodipodi-0.dtd"
   xmlns="http://www.w3.org/2000/svg"
   xmlns:svg="http://www.w3.org/2000/svg">
  <defs
     id="defs10">
    <pattern
       id="EMFhbasepattern"
       patternUnits="userSpaceOnUse"
       width="6"
       height="6"
       x="0"
       y="0" />
    <pattern
       id="EMFhbasepattern-1"
       patternUnits="userSpaceOnUse"
       width="6"
       height="6"
       x="0"
       y="0" />
  </defs>
  <sodipodi:namedview
     id="namedview8"
     pagecolor="#ffffff"
     bordercolor="#666666"
     borderopacity="1.0"
     inkscape:pageshadow="2"
     inkscape:pageopacity="0.0"
     inkscape:pagecheckerboard="0"
     showgrid="true"
     inkscape:zoom="2.9794238"
     inkscape:cx="109.92058"
     inkscape:cy="91.796272"
     inkscape:window-width="1920"
     inkscape:window-height="1017"
     inkscape:window-x="-8"
     inkscape:window-y="-8"
     inkscape:window-maximized="1"
     inkscape:current-layer="svg6">
    <inkscape:grid
       type="xygrid"
       id="grid15066" />
  </sodipodi:namedview>
  <path
     sodipodi:nodetypes="cssccsc"
     inkscape:connector-curvature="0"
     style="fill:none;fill-opacity:1;stroke:#000000;stroke-width:12;stroke-linejoin:round;stroke-miterlimit:4;stroke-dasharray:none"
     id="path4265"
     d="M 22.020029,157.00086 55.001597,103.43733 C 58.491512,97.769548 65.197145,94.913237 75.006514,95 83.113452,95.0717 99.99954,95 99.99954,95 L 67,150 c -2.70145,4.77851 -8.133445,7.00086 -14.988563,7.00086 z" />
  <path
     sodipodi:nodetypes="cssccsc"
     inkscape:connector-curvature="0"
     style="fill:none;fill-opacity:1;stroke:#000000;stroke-width:12;stroke-linejoin:round;stroke-miterlimit:4;stroke-dasharray:none"
     id="path4265-8"
     d="m 104.99954,135.125 20.50597,-32.4009 C 129.06505,97.099767 135.83883,95 145.64858,95 H 170 l -20.39253,33.61266 c -2.70145,4.77851 -7.7614,6.51234 -14.61652,6.51234 z" />
  <path
     sodipodi:nodetypes="cssccsc"
     inkscape:connector-curvature="0"
     style="fill:none;fill-opacity:1;stroke:#000000;stroke-width:12;stroke-linejoin:round;stroke-miterlimit:4;stroke-dasharray:none"
     id="path4265-8-5"
     d="m 105,35 20.50505,32.5259 C 129.0547,73.156489 135.83837,75 145.64812,75 h 24.35142 L 149.60747,41.63734 c -2.70145,-4.77851 -8.4136,-6.637339 -15.26872,-6.637339 z" />
</svg>
