<svg xmlns="http://www.w3.org/2000/svg" width="192" height="192" fill="none" viewBox="0 0 192 192"><path stroke="#000" stroke-linejoin="round" stroke-width="12" d="m22.02 157 32.982-53.563c3.49-5.667 10.195-8.524 20.005-8.437 8.106.072 24.993 0 24.993 0l-33 55c-2.701 4.779-8.133 7-14.989 7zM105 135.125l20.506-32.4C129.066 97.1 135.839 95 145.649 95H170l-20.393 33.613c-2.701 4.778-7.76 6.512-14.616 6.512zM105 35l20.505 32.526c3.55 5.63 10.333 7.474 20.143 7.474H170l-20.393-33.363C146.906 36.86 141.194 35 134.34 35z"/></svg>