<svg xmlns="http://www.w3.org/2000/svg" width="192" height="192" fill="none"><path stroke="#000" stroke-linecap="round" stroke-linejoin="round" stroke-width="12" d="M27 90.872c0 38.037 30.824 68.872 68.847 68.872h4.989a15.972 15.972 0 0 0 0-31.941h-4.99c-20.388 0-36.917-16.534-36.917-36.931s16.529-36.931 36.918-36.931 36.918 16.534 36.918 36.931c0 4.485-.8 8.784-2.263 12.761l-1.601-2.087a15.965 15.965 0 0 0-22.384-2.948 15.973 15.973 0 0 0-2.947 22.392l3.815 4.974 20.039 26.125 8.946 11.663a15.963 15.963 0 0 0 28.493-7.638 15.97 15.97 0 0 0-3.162-11.806l-10.046-13.097c8.203-11.338 13.039-25.274 13.039-40.339C164.694 52.835 133.87 22 95.847 22S27 52.835 27 90.872"/></svg>