<svg width="192" height="192" viewBox="0 0 192 192" fill="none" xmlns="http://www.w3.org/2000/svg"><path d="M139 122c0 4-5 17-5 17s-5-13-5-17" stroke="#000" stroke-width="10" stroke-linecap="round" stroke-linejoin="round"/><path d="M91 26c-8 10-26.918 16.41-30 31-1.872 8.863 6.732 14.746 3 23-5.62 12.43-37 8-37 8" stroke="#000" stroke-width="12" stroke-linecap="round" stroke-linejoin="round"/><path d="M25 123V31a6 6 0 0 1 6-6h130a6 6 0 0 1 6 6v130a6 6 0 0 1-6 6h-41" stroke="#000" stroke-width="12" stroke-linecap="round" stroke-linejoin="round"/><path d="M135 28c-8 10-29.59 15.177-33 30-2.507 10.898 9.403 17.347 6 28-3.898 12.203-16.415 11.502-26 20-6.563 5.818-8.813 12.507-14.623 17" stroke="#000" stroke-width="12" stroke-linecap="round" stroke-linejoin="round"/><circle cx="134" cy="122" r="5" stroke="#000" stroke-width="10" stroke-linecap="round" stroke-linejoin="round"/><ellipse cx="90" cy="156" rx="11" ry="13" stroke="#000" stroke-width="8" stroke-linecap="round" stroke-linejoin="round"/><path d="M58 157a6.999 6.999 0 0 0 4.95-11.95A6.999 6.999 0 0 0 58 143m-7 26v-26h7m-7 14h7m9 12-6-12m-31 0a6.999 6.999 0 0 0 4.95-11.95A6.999 6.999 0 0 0 30 143m-7 26v-26h7m-7 14h7" stroke="#000" stroke-width="8" stroke-linecap="round" stroke-linejoin="round"/></svg>