<svg xmlns="http://www.w3.org/2000/svg" width="192" height="192" fill="none" viewBox="0 0 192 192"><path stroke="#000" stroke-linecap="round" stroke-linejoin="round" stroke-width="10" d="M139 122c0 4-5 17-5 17s-5-13-5-17"/><path stroke="#000" stroke-linecap="round" stroke-linejoin="round" stroke-width="12" d="M91 26c-8 10-26.918 16.41-30 31-1.872 8.863 6.732 14.746 3 23-5.62 12.43-37 8-37 8"/><path stroke="#000" stroke-linecap="round" stroke-linejoin="round" stroke-width="12" d="M25 121V31a6 6 0 0 1 6-6h130a6 6 0 0 1 6 6v130a6 6 0 0 1-6 6H74"/><path stroke="#000" stroke-linecap="round" stroke-linejoin="round" stroke-width="12" d="M135 28c-8 10-29.589 15.177-33 30-2.507 10.898 9.403 17.347 6 28-3.898 12.203-16.415 11.502-26 20-6.563 5.818-8.813 12.507-14.623 17"/><circle cx="134" cy="122" r="5" stroke="#000" stroke-linecap="round" stroke-linejoin="round" stroke-width="10"/><path stroke="#000" stroke-linecap="round" stroke-linejoin="round" stroke-miterlimit="6" stroke-width="10" d="M39.224 133.103a2.884 2.884 0 0 1 5.552 0l2.248 7.215c.391 1.253 1.512 2.102 2.776 2.102h7.276c2.827 0 4.003 3.773 1.715 5.506l-5.886 4.459c-1.023.775-1.45 2.149-1.06 3.403l2.248 7.214c.874 2.804-2.204 5.136-4.492 3.403l-5.885-4.459a2.82 2.82 0 0 0-3.432 0l-5.886 4.459c-2.287 1.733-5.365-.599-4.491-3.403l2.248-7.214c.39-1.254-.037-2.628-1.06-3.403l-5.886-4.459c-2.288-1.733-1.112-5.506 1.715-5.506H34.2c1.264 0 2.385-.849 2.776-2.102z"/></svg>