<svg width="192" height="192" viewBox="0 0 192 192" fill="none" xmlns="http://www.w3.org/2000/svg"><path d="M156 30H36a6 6 0 0 0-6 6v120a6 6 0 0 0 6 6h120a6 6 0 0 0 6-6V36a6 6 0 0 0-6-6Z" stroke="#000" stroke-width="12" stroke-linecap="round" stroke-linejoin="round"/><path d="M137.071 104.985a10.295 10.295 0 0 1 2.929 7.207c0 8.141-10 29.808-10 29.808s-10-21.667-10-29.808c0-2.703 1.054-5.295 2.929-7.207A9.906 9.906 0 0 1 130 102a9.906 9.906 0 0 1 7.071 2.985Z" stroke="#000" stroke-width="8" stroke-linecap="round" stroke-linejoin="round"/><path d="M88 30c-8 10-23.918 12.41-27 27-1.872 8.863 6.732 14.746 3 23-5.62 12.43-34 8-34 8m100-58c-8 10-25.59 11.177-29 26-2.507 10.898 9.403 17.347 6 28-3.898 12.203-16.415 11.502-26 20-8.265 7.328-9.69 16.035-20 20-11.352 4.366-31-3-31-3" stroke="#000" stroke-width="12" stroke-linecap="round" stroke-linejoin="round"/></svg>