<svg xmlns="http://www.w3.org/2000/svg" width="192" height="192" fill="none"><circle cx="110" cy="82" r="20" stroke="#000" stroke-linecap="round" stroke-linejoin="round" stroke-width="12"/><path stroke="#000" stroke-linecap="round" stroke-linejoin="round" stroke-width="12" d="M121 23c12 30 48 45 48 45M45 105c14 32 49 44 49 44"/><path stroke="#000" stroke-linecap="round" stroke-linejoin="round" stroke-width="12" d="M162 31c-7.999-8-22-9-34-9-30.849 0-54.288 26.754-70.692 55.989C46.405 75.475 27.655 75.149 22 97c10.361-5.18 18.307.227 23.56 4.715C33.75 128.635 28 152 28 152l15-6-6 24 23-13-1 11s20.735-8.219 44.281-22.881c6.416 4.55 12.165 12.229 10.219 24.881 0 0 24.02-12.811 10.446-39.149C148.215 112.161 170 87.239 170 58c0 0 0-19-8-27"/></svg>