<svg xmlns="http://www.w3.org/2000/svg" width="192" height="192" fill="none"><circle cx="96" cy="96" r="74" stroke="#000" stroke-linecap="round" stroke-linejoin="round" stroke-width="12"/><path stroke="#000" stroke-linecap="round" stroke-linejoin="round" stroke-width="12" d="M136.957 110.396C145.15 99.401 150 85.766 150 71q0-.46-.006-.92c-.166-12.143-3.612-23.494-9.491-33.208m-3.546 73.524C124.926 126.543 105.684 137 84 137q-1.203 0-2.396-.043m55.353-26.561Q137 109.203 137 108c0-21.684-10.457-40.926-26.604-52.957m-55.353 26.56A67 67 0 0 0 55 84c0 21.684 10.457 40.926 26.604 52.957M55.043 81.604C46.849 92.6 42 106.233 42 121q0 .46.006.919c.166 12.144 3.611 23.496 9.491 33.209m3.546-73.524C67.074 65.457 86.316 55 108 55q1.203 0 2.396.043m0 0C99.4 46.849 85.766 42 71 42q-.46 0-.92.006c-12.143.166-23.495 3.612-33.208 9.491m44.732 85.46C92.599 145.151 106.233 150 121 150q.46 0 .919-.006c12.144-.166 23.495-3.612 33.209-9.491"/></svg>