<?xml version="1.0" encoding="utf-8"?>
	<svg version="1.1" xmlns="http://www.w3.org/2000/svg" xmlns:xlink="http://www.w3.org/1999/xlink" x="0px" y="0px" width="240.0" height="240.0" xml:space="preserve">
		<path d="M71.961,219.98C54.908,219.98 37.852,219.975 20.799,220C20.131,220 19.998,219.869 20,219.199C20.02,153.065 20.02,86.933 20,20.799C20,20.131 20.131,20 20.799,20C86.933,20.02 153.065,20.02 219.199,20C219.867,20 220,20.131 219.998,20.799C219.979,65.908 219.981,111.016 219.981,156.125C219.805,155.891 219.609,155.67 219.459,155.422C215.688,149.187 212.021,142.889 208.44,136.545C205.688,131.671 202.966,126.783 199.492,122.366C196.641,118.74 193.181,115.883 188.826,114.275C184.96,112.848 180.927,112.127 176.801,111.997C175.946,111.969 175.088,111.993 174.184,111.993C174.249,111.799 174.251,111.758 174.27,111.743C174.419,111.62 174.569,111.495 174.725,111.38C179.611,107.765 181.453,102.793 180.855,96.921C180.357,92.041 179.447,87.208 178.904,82.328C178.373,77.546 177.986,72.754 177.834,67.95C177.602,60.6 178.012,53.25 178.016,45.9C178.016,45.737 178.023,45.573 178.039,45.411C178.355,42.301 178.082,39.229 177.201,36.245C175.836,31.617 172.835,28.731 167.957,27.989C165.139,27.559 162.351,27.807 159.656,28.631C154.459,30.221 149.306,31.929 144.448,34.431C138.845,37.317 134.969,41.699 132.585,47.497C129.782,54.316 128.859,61.488 128.611,68.764C128.349,76.447 128.915,84.094 129.917,91.713C130.731,97.909 131.807,104.057 133.252,110.138C133.807,112.471 134.926,114.498 136.736,116.115C136.984,116.336 137.488,116.435 137.357,116.879C137.258,117.212 136.822,117.191 136.517,117.277C124.588,120.645 113.262,125.424 102.606,131.774C101.84,132.229 101.124,132.79 100.245,133.086C100.077,132.653 100.28,132.323 100.36,131.991C100.651,130.776 100.798,129.554 100.591,128.314C99.397,121.196 98.431,114.053 97.882,106.849C97.478,101.53 97.245,96.207 97.202,90.881C97.156,85.228 97.427,79.573 97.544,73.918C97.583,72.076 97.279,70.272 96.624,68.561C95.031,64.396 92.207,61.66 87.636,61C83.93,60.465 80.374,61.092 76.913,62.371C73.586,63.601 70.391,65.156 67.192,66.679C64.724,67.852 62.41,69.303 60.352,71.145C56.507,74.586 54.046,78.878 52.451,83.721C50.299,90.249 49.721,97.019 49.53,103.82C49.301,111.952 49.608,120.069 50.651,128.15C51.477,134.549 52.619,140.882 54.638,147.023C56.228,151.854 59.69,154.653 64.562,155.701C67.806,156.4 70.965,155.768 74.029,154.604C74.345,154.483 74.644,154.243 75.111,154.37C73.434,156.424 71.938,158.545 70.528,160.724C66.577,166.838 64.574,173.526 64.521,180.818C64.482,186.34 65.191,191.779 66.218,197.184C67.685,204.895 69.651,212.482 71.961,219.98Z" fill="#000" stroke="" stroke-width="" stroke-miterlimit=""/>
		<path d="M77.621,219.98C75.326,212.956 73.389,205.835 71.944,198.586C70.812,192.902 70.072,187.184 69.949,181.37C69.816,175.071 71.56,169.38 74.838,164.077C78.256,158.545 82.599,153.819 87.412,149.499C96.227,141.593 106.17,135.406 116.848,130.374C129.229,124.541 142.169,120.503 155.753,118.667C162.914,117.701 170.119,117.234 177.347,117.48C182.014,117.638 186.544,118.48 190.483,121.237C193.211,123.147 195.316,125.664 197.196,128.38C200.313,132.883 202.818,137.748 205.546,142.481C209.997,150.204 214.506,157.89 219.243,165.444C219.468,165.801 219.731,166.133 219.975,166.477C219.975,170.318 219.975,174.157 219.975,177.998C218.739,176.645 217.866,175.038 216.878,173.516C210.635,163.911 204.841,154.034 199.143,144.1C196.829,140.066 194.652,135.951 192.076,132.071C190.807,130.159 189.294,128.443 187.548,126.982C185.505,125.273 183.064,124.414 180.408,124.112C175.734,123.578 171.066,123.838 166.39,124.086C160.471,124.401 154.593,125.033 148.783,126.201C139.846,127.999 131.263,130.919 122.923,134.567C115.481,137.82 108.369,141.686 101.675,146.293C94.288,151.376 87.623,157.264 82.181,164.428C79.785,167.582 77.877,171.06 76.861,174.903C76.154,177.578 76.182,180.382 76.311,183.149C76.574,188.748 77.373,194.28 78.531,199.76C79.837,205.944 81.624,211.994 83.565,218.002C83.774,218.651 84.036,219.287 84.065,219.98C81.917,219.98 79.769,219.98 77.621,219.98Z" fill="#000" stroke="" stroke-width="" stroke-miterlimit=""/>
		<path d="M172.359,166.225C172.353,168.269 171.174,169.814 169.225,170.419C167.424,170.98 165.294,170.296 164.329,168.717C161.734,164.471 159.885,159.9 158.733,155.067C158.174,152.727 159.563,150.652 161.906,149.997C164.112,149.38 166.43,150.568 167.231,152.798C168.229,155.58 169.176,158.383 170.389,161.081C170.842,162.089 171.328,163.079 171.818,164.069C172.168,164.782 172.404,165.512 172.359,166.225Z" fill="#000" stroke="" stroke-width="" stroke-miterlimit=""/>
		<path d="M108.546,174.657C110.471,174.649 112.084,175.725 112.737,177.58C114.129,181.54 115.582,185.467 117.49,189.225C118.544,191.3 117.576,193.821 115.523,194.897C113.461,195.979 110.901,195.317 109.714,193.325C107.232,189.16 105.425,184.708 104.271,180.004C103.578,177.188 105.646,174.669 108.546,174.657Z" fill="#000" stroke="" stroke-width="" stroke-miterlimit=""/>
		<path d="M92.265,75.952C92.085,81.787 91.821,87.378 91.923,92.971C92.122,103.967 92.851,114.924 94.735,125.777C94.93,126.898 95.008,128.031 95.039,129.173C95.112,131.87 93.954,133.948 91.923,135.594C87.951,138.814 83.649,141.581 79.486,144.535C77.789,145.74 76.072,146.92 74.346,148.086C71.948,149.704 69.296,150.529 66.406,150.251C63.145,149.937 61.149,147.9 59.905,145.031C58.824,142.54 58.265,139.89 57.728,137.244C56.486,131.118 55.766,124.924 55.307,118.691C54.942,113.719 54.838,108.745 55,103.774C55.197,97.753 55.879,91.791 57.451,85.939C58.82,80.848 61.456,76.718 65.924,73.857C70.94,70.647 76.342,68.255 82.032,66.519C82.932,66.243 83.881,66.187 84.821,66.075C88.947,65.589 91.817,69.02 92.052,72.5C92.134,73.728 92.356,74.955 92.265,75.952ZM61.227,109.472C61.253,112.555 61.419,115.443 61.587,118.331C61.936,124.319 62.792,130.235 64.012,136.1C64.489,138.388 64.871,140.716 65.832,142.874C66.391,144.131 67.054,144.385 68.345,143.954C69.818,143.46 70.993,142.44 72.323,141.696C73.184,141.214 73.342,140.655 73.106,139.708C71.54,133.413 70.687,127.004 70.202,120.542C70.005,117.919 69.841,115.293 69.646,112.67C69.49,110.577 69.958,108.771 71.93,107.671C73.436,106.832 74.944,105.984 76.605,105.478C78.59,104.875 79.447,105.439 79.548,107.515C79.781,112.286 80.005,117.056 80.546,121.803C81.003,125.81 81.579,129.798 82.405,133.75C82.593,134.645 82.911,134.535 83.481,134.11C84.602,133.274 85.698,132.387 86.895,131.671C88.664,130.612 89.076,129.23 88.681,127.228C86.574,116.507 85.787,105.652 85.621,94.746C85.584,92.274 85.59,89.8 85.618,87.325C85.641,85.277 85.596,83.232 85.754,81.182C85.934,78.85 85.965,76.505 85.965,74.164C85.965,72.441 85.342,72.024 83.7,72.451C83.323,72.549 82.95,72.67 82.585,72.805C78.607,74.265 74.713,75.939 71.077,78.112C66.949,80.581 63.977,84.054 63.043,88.895C61.723,95.746 61.325,102.694 61.227,109.472Z" fill="#000" stroke="" stroke-width="" stroke-miterlimit=""/>
		<path d="M134.426,74.779C134.387,68.3 134.664,61.832 135.801,55.445C137.181,47.676 141.54,42.051 148.529,38.45C153.104,36.093 158,34.652 163.009,33.593C164.577,33.263 166.19,33.376 167.736,33.88C170.937,34.919 172.911,37.678 172.903,41.365C172.897,44.517 172.642,47.667 172.601,50.819C172.534,55.827 172.411,60.836 172.673,65.843C172.784,67.985 172.79,70.131 172.888,72.275C173.237,79.981 173.987,87.64 175.178,95.257C175.631,98.155 175.77,101.026 174.415,103.758C173.442,105.722 171.921,107.076 169.822,107.724C163.542,109.661 157.26,111.585 150.972,113.494C149.216,114.027 147.412,114.229 145.572,114.16C142.286,114.035 139.681,112.051 138.511,108.65C137.269,105.035 136.598,101.282 136.041,97.517C134.93,89.981 134.367,82.4 134.426,74.779ZM140.523,73.957C140.517,75.421 140.634,76.882 140.667,78.343C140.804,84.269 141.45,90.145 142.305,96.002C142.794,99.349 143.342,102.688 144.135,105.978C144.575,107.802 145.365,108.298 147.178,107.921C148.642,107.617 150.081,107.193 151.548,106.904C152.403,106.736 152.538,106.38 152.354,105.558C151.314,100.891 150.556,96.177 150.04,91.418C149.634,87.671 149.431,83.91 149.13,80.155C148.923,77.569 149.562,76.499 151.901,75.347C153.219,74.697 154.604,74.22 156.01,73.81C158.094,73.203 158.988,73.816 159.031,75.992C159.134,81.422 159.546,86.827 160.238,92.213C160.677,95.634 161.308,99.022 162.142,102.371C162.46,103.647 162.493,103.643 163.7,103.248C164.875,102.864 166.051,102.483 167.217,102.071C168.97,101.452 169.562,100.464 169.326,98.628C168.744,94.115 168.15,89.604 167.592,85.09C166.797,78.667 166.369,72.215 166.281,65.745C166.229,61.973 166.264,58.198 166.281,54.423C166.287,53.091 166.301,51.76 166.365,50.426C166.512,47.345 166.578,44.257 166.455,41.174C166.406,39.93 165.703,39.436 164.485,39.68C163.561,39.866 162.641,40.088 161.739,40.36C157.119,41.752 152.563,43.338 148.541,46.077C145.156,48.383 142.893,51.559 142.112,55.622C140.944,61.672 140.61,67.808 140.523,73.957Z" fill="#000" stroke="" stroke-width="" stroke-miterlimit=""/>
	</svg>
