<svg xmlns="http://www.w3.org/2000/svg" width="192" height="192" fill="none"><path stroke="#000" stroke-linecap="round" stroke-linejoin="round" stroke-width="12" d="M75.723 117.311C62.597 106.378 54 95.074 54 82a42 42 0 0 1 8.055-24.734m13.668 60.045c5.954 4.959 12.84 9.842 20.277 14.779m-20.277-14.779C56.573 129.692 36.274 140.88 22 150m74-17.91c8.773 5.823 18.314 11.722 28 17.91h46c-14.25-9.104-34.504-20.35-53.625-32.771M96 132.09c-8.773 5.823-18.314 11.722-28 17.91m48.375-32.771C129.446 106.322 138 95.041 138 82a42 42 0 0 0-8.055-24.734m-13.57 59.963c-7.017-4.558-13.881-9.274-20.24-14.1m-34.08-45.863c0 15.409 14.692 31.148 34.08 45.863m-34.08-45.863a42 42 0 0 1 67.89 0m-33.81 45.863c19.254-14.614 33.81-30.302 33.81-45.863"/></svg>