<svg width="192" height="192" viewBox="0 0 192 192" fill="none" xmlns="http://www.w3.org/2000/svg"><path d="M77.663 132.477v13.265a6.006 6.006 0 0 0 6.008 6.003h22.118m-28.126-19.268V64.56m0 67.917 58.902-32.506M77.663 64.56v-.03m0 .03-10.058-6.047a6.011 6.011 0 0 0-8.263 2.077l-11.85 19.915m30.17-15.945 58.903 35.41m0 0 12.908-7.123a6.001 6.001 0 0 0 2.293-8.268l-11.64-20.05M47.492 80.505l-23.647 39.742a6.001 6.001 0 0 0 2.064 8.211L53.5 145m-6.008-64.495L37.041 62.501m68.748 89.244L94.927 170m10.862-18.255h53.202a6.006 6.006 0 0 0 6.009-6.003v-32.605m-24.874-48.608-22.951-39.537a6.012 6.012 0 0 0-8.103-2.243L80.5 38.5m59.626 26.03H165" stroke="#000" stroke-width="12" stroke-linecap="round" stroke-linejoin="round"/></svg>