<?xml version="1.0" encoding="UTF-8" standalone="no"?>
<!-- Created with Inkscape (http://www.inkscape.org/) -->

<svg
   width="192"
   height="192"
   viewBox="0 0 192 192"
   version="1.1"
   id="svg5"
   xml:space="preserve"
   xmlns="http://www.w3.org/2000/svg"
   xmlns:svg="http://www.w3.org/2000/svg"><defs
     id="defs2"><rect
       x="176"
       y="102.04328"
       width="72.761158"
       height="65.956715"
       id="rect9" /></defs><g
     id="layer1"
     style="display:inline"><path
       id="path3"
       style="display:inline;fill:none;fill-opacity:0.999846;stroke:#000000;stroke-width:12;stroke-linecap:round;stroke-linejoin:round;stroke-miterlimit:6;stroke-dasharray:none;paint-order:markers fill stroke"
       d="M 25.213607,128.66797 95.999993,22.000001 M 22,44.650827 170,162.27539" /><path
       style="fill:none;fill-opacity:0.999846;stroke:#000000;stroke-width:8;stroke-linecap:round;stroke-linejoin:round;stroke-miterlimit:6;stroke-dasharray:none;paint-order:markers fill stroke"
       d="m 39.914122,111.63313 c 1.675981,1.52291 7.67903,3.3413 14.232484,1.13194 l 0.888219,-3.43775 6.298456,0.0325 c 7.912781,6.87878 6.798147,9.45816 8.20708,9.33786 -5.551727,9.599 -7.367784,20.22705 -16.655178,28.79696 -3.675678,3.61745 1.241872,12.68804 4.01611,16.9667 21.58212,2.51982 22.214018,5.02586 33.32101,7.5388 0.09228,-17.28049 0.496195,-33.9816 -0.25244,-52.82408 -2.557738,-7.20685 -3.000872,-13.24381 -7.968613,-18.90762 L 60.6068,75.333985 Z"
       id="path4" /></g></svg>
