<svg xmlns="http://www.w3.org/2000/svg" xml:space="preserve" width="192" height="192"><path d="M138.275 105.54c0 9.707-10.31 17.576-15.698 17.576s-16.218-7.87-16.218-17.577 8.239-17.641 16.218-17.576c7.862.063 15.698 7.869 15.698 17.576M170 87.825v29.45a5.88 5.88 0 0 1-5.886 5.877H81.04a5.88 5.88 0 0 1-5.885-5.876v-50.59m-36.682 21.95c14.568 8.687 18.5 22.951 13.74 34.517H22" style="fill:none;fill-opacity:1;stroke:#000;stroke-width:12;stroke-linecap:round;stroke-linejoin:round;stroke-miterlimit:16;stroke-dasharray:none;stroke-opacity:1" transform="translate(0 .256)"/><path d="M41.06 65.257a3 3 0 0 1-2.998 2.998 3 3 0 0 1-2.998-2.998 3 3 0 0 1 2.998-2.998 3 3 0 0 1 2.999 2.998m84.515 0a3 3 0 0 1-2.998 2.998 3 3 0 0 1-2.999-2.998 3 3 0 0 1 2.999-2.998 3 3 0 0 1 2.998 2.998m47.423 0A3 3 0 0 1 170 68.255a3 3 0 0 1-2.998-2.998A3 3 0 0 1 170 62.259a3 3 0 0 1 2.998 2.998" style="fill:none;stroke:#000;stroke-width:6;stroke-linecap:round;stroke-linejoin:round;stroke-miterlimit:16" transform="translate(0 .256)"/></svg>