<?xml version="1.0" encoding="UTF-8" standalone="no"?>
<!-- Created with Inkscape (http://www.inkscape.org/) -->

<svg
   width="192"
   height="192"
   viewBox="0 0 50.799999 50.8"
   version="1.1"
   id="svg1"
   xml:space="preserve"
   xmlns="http://www.w3.org/2000/svg"
   xmlns:svg="http://www.w3.org/2000/svg"><defs
     id="defs1" /><g
     id="g36"
     transform="matrix(1.2311001,0,0,1.2384481,-7.0242558,-7.3133657)"
     style="stroke:#000000;stroke-width:2.57133;stroke-dasharray:none;stroke-opacity:1"><path
       id="path34"
       style="opacity:1;fill:none;fill-opacity:1;stroke:#000000;stroke-width:2.57134;stroke-linecap:round;stroke-linejoin:round;stroke-dasharray:none;stroke-opacity:1;paint-order:markers fill stroke"
       d="m 20.475205,26.355112 c -0.03428,-0.897313 -0.361953,-1.781048 -0.920959,-2.483798 -0.559006,-0.702751 -1.346391,-1.220809 -2.213001,-1.456038 -0.761713,-0.206756 -1.573395,-0.196912 -2.34538,-0.03262 -0.771986,0.164295 -1.506368,0.47939 -2.1914,0.871417 -1.364637,0.780948 -2.548174,1.87614 -3.4324321,3.176218 M 20.460281,36.592713 20.475201,26.355112 M 9.3720329,36.592713 V 22.624206"
       transform="translate(1.0583333)" /><path
       style="opacity:1;fill:none;fill-opacity:1;stroke:#000000;stroke-width:2.57134;stroke-linecap:round;stroke-linejoin:round;stroke-dasharray:none;stroke-opacity:1;paint-order:markers fill stroke"
       d="m 27.280375,16.236898 7.198317,19.933799 a 0.61674505,0.61674505 0.5878686 0 0 1.155744,0.01186 l 7.668786,-19.945658"
       id="path35"
       transform="translate(-1.0583333)" /></g></svg>
