<svg xmlns="http://www.w3.org/2000/svg" width="192" height="192" fill="none"><path stroke="#000" stroke-linecap="round" stroke-linejoin="round" stroke-width="12" d="M143.335 61.666a32.998 32.998 0 0 1-5.001 50.772 32.99 32.99 0 0 1-36.668 0 33 33 0 0 1-14.032-33.876 33 33 0 0 1 9.031-16.896"/><circle cx="120" cy="53" r="5" stroke="#000" stroke-linecap="round" stroke-linejoin="round" stroke-width="10"/><circle cx="120" cy="85" r="4" stroke="#000" stroke-linecap="round" stroke-linejoin="round" stroke-width="8"/><circle cx="109" cy="137" r="3" stroke="#000" stroke-linecap="round" stroke-linejoin="round" stroke-width="6"/><circle cx="131" cy="137" r="3" stroke="#000" stroke-linecap="round" stroke-linejoin="round" stroke-width="6"/><path stroke="#000" stroke-linecap="round" stroke-linejoin="round" stroke-width="12" d="M87 84v62"/><path stroke="#000" stroke-linecap="round" stroke-linejoin="round" stroke-width="10" d="m35 167 85 4"/><path stroke="#000" stroke-linecap="round" stroke-linejoin="round" stroke-width="12" d="M153 84v62M45 72c23-17.09 75-92.487 75-17.09M120 170l-33-24m33 24 33-24M35 166l52-20m-52 19.999s7.675-13.467 17.66-30.5l-5.66-8.5c2.579-4.221 19-26 19-26l3.33-18.17 27.34-21.21"/></svg>