<svg xmlns="http://www.w3.org/2000/svg" width="192" height="192" fill="none"><path stroke="#000" stroke-linecap="round" stroke-linejoin="round" stroke-width="12" d="M144 122a48 48 0 0 1-14.059 33.941 48.003 48.003 0 0 1-67.882 0A48 48 0 0 1 48 122m0-42a48 48 0 1 1 96 0"/><path stroke="#000" stroke-linecap="round" stroke-linejoin="round" stroke-width="10" d="M48 109h96M81 89s3 1 5 1l3.363-3.363a5.59 5.59 0 0 1 8.315.46L100 90c2 0 5-1 5-1"/><path stroke="#000" stroke-linecap="round" stroke-linejoin="round" stroke-width="12" d="M48 80v42m96-42v42M54 22l16 16m68-16-16 16"/><path stroke="#000" stroke-linecap="round" stroke-linejoin="round" stroke-width="10" d="M123 91V73a6 6 0 0 0-6-6h-7"/><circle cx="76" cy="67" r="4" stroke="#000" stroke-linecap="round" stroke-linejoin="round" stroke-width="8"/><circle cx="110" cy="67" r="4" stroke="#000" stroke-linecap="round" stroke-linejoin="round" stroke-width="8"/></svg>