<svg width="192" height="192" viewBox="0 0 192 192" fill="none" xmlns="http://www.w3.org/2000/svg"><path d="M143.335 64.665a32.998 32.998 0 0 1-5.001 50.773 32.994 32.994 0 0 1-36.668 0 32.998 32.998 0 0 1-5-50.773" stroke="#000" stroke-width="12" stroke-linecap="round" stroke-linejoin="round"/><circle cx="120" cy="53" r="5" stroke="#000" stroke-width="10" stroke-linecap="round" stroke-linejoin="round"/><circle cx="120" cy="88" r="4" stroke="#000" stroke-width="8" stroke-linecap="round" stroke-linejoin="round"/><circle cx="108" cy="138" r="3" stroke="#000" stroke-width="6" stroke-linecap="round" stroke-linejoin="round"/><circle cx="132" cy="138" r="3" stroke="#000" stroke-width="6" stroke-linecap="round" stroke-linejoin="round"/><path d="M87 87v59" stroke="#000" stroke-width="12" stroke-linecap="round" stroke-linejoin="round"/><path d="m35 167 85 4" stroke="#000" stroke-width="10" stroke-linecap="round" stroke-linejoin="round"/><path d="M153 87v59M45 72c23-17.09 75-92.487 75-17.09M120 170l-33-24m33 24 33-24M35 166l52-20m-52 20s7.675-13.467 17.66-30.5L47 127c2.579-4.221 19-26 19-26l3.33-18.17 27.34-18.21" stroke="#000" stroke-width="12" stroke-linecap="round" stroke-linejoin="round"/></svg>