<svg width="192" height="192" viewBox="0 0 192 192" fill="none" xmlns="http://www.w3.org/2000/svg">
<path d="M38.6746 99.7985C36.9016 99.7985 35.402 101.11 35.1659 102.867V102.867C34.9299 104.579 34.6341 106.88 34.4571 107.883V107.883C34.2523 109.011 33.2702 109.83 32.1241 109.83H28.3203H27.6145C24.7492 109.83 22.3992 112.101 22.3003 114.964V114.964C22.2261 116.782 22.1755 118.389 22.1627 119.362C22.1542 120.007 22.5043 120.395 23.1462 120.46C24.1878 120.564 25.9685 120.715 27.9659 120.866L31.5298 121.084C32.7424 121.158 33.6514 122.223 33.5338 123.433V123.433C33.4398 125.373 33.2551 126.56 33.1794 128.742L33.1581 129.355C33.0854 131.449 31.9261 133.353 30.0995 134.379L29.6775 134.616C15.8685 142.465 11.7374 157.1 20.8844 166.188C24.4841 169.788 28.0253 171.204 33.3955 171.204C48.6208 171.204 60.9539 161.526 66.0881 145.593C67.3273 141.757 67.4453 141.638 68.9796 141.992C79.1889 144.53 79.779 157.572 69.8648 162.706C67.9174 163.709 66.0292 164.653 65.6161 164.771C65.085 164.948 65.1439 166.188 65.8521 170.024C66.2259 171.781 66.5763 173.372 66.7979 174.332C66.9429 174.961 67.3609 175.289 67.9847 175.125C68.7126 174.935 69.7813 174.593 70.9272 174.155C77.7727 171.676 82.9067 167.191 85.7983 161.172C87.4507 157.749 87.6284 156.746 87.6284 152.025C87.6284 147.54 87.3923 146.182 86.094 143.468C83.0843 137.035 77.4781 132.964 68.1541 130.367C64.2592 129.305 61.7803 129.069 53.8725 129.069L48.149 129.034C45.9939 129.02 44.2538 127.27 44.2538 125.115V125.115V125.115C44.2538 122.935 45.9678 121.141 48.145 121.042L53.2821 120.807C61.721 120.394 76.0023 118.977 76.4744 118.505C76.7234 118.256 75.9641 111.368 75.5081 108.975C75.4053 108.435 75.0206 108.13 74.4718 108.152C73.4835 108.192 71.7261 108.351 69.8061 108.591C66.9734 108.945 60.2461 109.476 54.935 109.653L48.4613 109.89C46.7731 109.952 45.4243 108.499 45.611 106.82V106.82C45.8471 105.05 46.2007 102.749 46.3778 101.686V101.686C46.5901 100.716 45.8514 99.7985 44.8583 99.7985H41.1851L38.6746 99.7985ZM54.2663 139.955C55.4007 139.941 56.2338 141.015 55.9377 142.111V142.111C55.0525 145.415 52.1615 150.785 50.037 153.205C47.7945 155.802 47.6766 155.684 46.0242 148.72C44.5489 142.524 44.5485 140.694 45.9058 140.34C46.4369 140.163 49.093 140.045 51.7486 139.986L54.2663 139.955ZM33.1893 145.298C33.6824 144.882 34.0803 145.08 34.2315 145.707C34.4483 146.606 34.7773 148.056 35.1063 149.664C35.6374 152.261 36.5822 155.566 37.1723 157.1C38.3525 160.346 38.1754 160.581 33.8675 160.581C30.2677 160.581 27.9657 159.283 27.1395 156.746C26.1363 153.795 27.1989 151.139 30.7987 147.539C31.7364 146.602 32.5979 145.797 33.1893 145.298Z" fill="black"/>
<path d="M136.609 98.0283C133.513 98.0282 131.003 100.538 131.003 103.634V103.929V103.929C131.003 107.188 128.361 109.83 125.101 109.83H118.61H111.823C108.727 109.83 106.217 112.34 106.217 115.436V115.436V116.086C106.217 118.801 108.401 121.011 111.115 121.043V121.043H111.347C114.119 121.043 116.53 122.942 117.18 125.637L117.253 125.941C118.964 132.728 121.619 138.924 125.396 144.708C127.875 148.425 128.465 149.723 127.993 150.372C125.868 152.91 115.246 158.811 108.46 161.231C106.158 161.998 104.447 163.001 104.447 163.414C104.447 164.063 106.808 172.915 107.103 173.387C107.28 173.682 115.482 170.732 119.436 168.903C122.681 167.427 130.944 162.293 135.96 158.575C136.432 158.28 138.143 159.225 140.916 161.29C143.277 163.061 147.586 165.775 150.477 167.309C156.319 170.378 165.289 173.742 165.879 173.093C166.276 172.597 168.215 165.763 168.649 163.491C168.741 163.009 168.496 162.641 168.041 162.458C167.302 162.16 166.035 161.695 164.64 161.231C157.677 158.752 144.694 151.376 144.576 149.783C144.576 149.547 145.697 147.717 146.995 145.71C151.126 139.632 154.903 130.544 156.614 122.637C156.968 121.043 157.028 121.043 161.985 121.043V121.043C164.755 121.043 167 118.798 167 116.028V115.437V115.437C167 112.34 164.49 109.831 161.394 109.831H154.608H148.116C144.857 109.831 142.215 107.188 142.215 103.929V103.929V103.634C142.215 100.538 139.705 98.0283 136.609 98.0283V98.0283V98.0283ZM136.904 121.043C141.802 121.043 145.756 121.279 145.756 121.515C145.756 123.876 140.268 136.328 137.73 139.632C136.845 140.813 136.845 140.812 135.724 139.337C132.773 135.56 128.052 124.878 128.052 122.105C128.052 121.102 128.701 121.043 136.904 121.043Z" fill="black"/>
<path d="M142.333 28.5107C142.349 25.7615 140.125 23.5241 137.376 23.5241H124.659H112.709C109.531 23.5241 106.955 26.1002 106.955 29.2779V29.2779V29.2779C106.955 32.4556 109.531 35.0317 112.709 35.0317H118.462H128.937C129.699 35.0317 130.27 35.7306 130.117 36.4775V36.4775C129.409 39.3691 127.049 44.8573 125.042 48.3391C122.269 52.9421 113.299 61.794 108.401 64.6266V64.6266C106.093 66.1538 105.367 69.2092 106.739 71.6116L106.901 71.8947C108.408 74.5322 111.744 75.4885 114.349 73.9264C116.506 72.6333 118.955 71.0726 120.675 69.7017C133.658 59.3745 141.684 44.0901 142.333 28.5107V28.5107Z" fill="black"/>
<path d="M47.4651 17.8302C44.9217 17.7943 42.632 19.3662 41.7516 21.7527L31.3001 50.0799C26.8396 62.2158 22.899 73.2161 20.8386 79V79C20.0955 81.0858 21.6426 83.2747 23.8568 83.2747H25.5169H27.0487C29.5813 83.2747 31.8412 81.6845 32.6963 79.3006L34.6049 73.9801L36.3859 69.079C37.2477 66.7072 39.5015 65.1282 42.0251 65.1282H51.1876H60.2282C62.7683 65.1282 65.0331 66.7277 65.8827 69.1215L67.7115 74.2749L69.6404 79.3913C70.5213 81.728 72.7575 83.2747 75.2547 83.2747H76.8582H78.506C80.7169 83.2747 82.2556 81.0778 81.5 79V79C80.7328 76.8165 75.5895 62.4434 69.9833 46.687L61.0267 21.8532C60.1688 19.4744 57.9114 17.8888 55.3826 17.8888H51.6302L47.4651 17.8302ZM48.9021 35C49.7534 32.6152 53.1979 32.5972 53.9972 35V35C55.5494 39.6663 57.0996 44.3333 58.6506 49V49C59.334 51.0562 57.8034 53.1781 55.6366 53.1781H51.1876H46.7698C44.6029 53.1781 43.087 51.0389 43.8207 49V49C45.5013 44.3299 47.2334 39.6746 48.9021 35V35Z" fill="black"/>
<path d="M162.87 21.4591C162.87 18.4441 160.426 16 157.411 16V16V16C154.233 16 151.657 18.576 151.657 21.7538V50.5225V79.4388C151.657 82.5351 154.167 85.0451 157.263 85.0451V85.0451V85.0451C160.278 85.0451 162.722 82.6011 162.722 79.5864V70.4394V61.7202C162.722 58.2808 165.608 55.5453 169.042 55.7288L169.165 55.7353L170.696 55.6582C173.667 55.5086 176 53.0555 176 50.0799V50.0799V50.0799C176 47.1195 173.6 44.7196 170.64 44.7196H169.165H168.87C165.556 44.7196 162.87 42.0333 162.87 38.7196V30.5565V21.4591Z" fill="black"/>
</svg>
