<svg xmlns="http://www.w3.org/2000/svg" width="192" height="192" viewBox="0 0 192 192"><path d="M38.675 99.799a3.54 3.54 0 0 0-3.51 3.068 2.832 20.064 0 0 0-.708 5.016 2.37 2.37 0 0 1-2.333 1.947h-4.51a5.32 5.32 0 0 0-5.314 5.134 181 181 0 0 0-.137 4.398c-.009.645.341 1.033.983 1.098 1.042.104 2.822.255 4.82.406l3.564.218a2.145 2.145 0 0 1 2.004 2.349.71 10.618 0 0 0-.355 5.309l-.02.613a6 6 0 0 1-3.06 5.024l-.422.237c-13.809 7.849-17.94 22.484-8.793 31.572 3.6 3.6 7.141 5.016 12.511 5.016 15.226 0 27.559-9.678 32.693-25.611 1.24-3.836 1.357-3.955 2.892-3.601 10.209 2.538 10.799 15.58.885 20.714-1.948 1.003-3.836 1.947-4.249 2.065-.531.177-.472 1.417.236 5.253.374 1.757.724 3.348.946 4.308.145.629.563.957 1.187.793.728-.19 1.796-.532 2.942-.97 6.846-2.479 11.98-6.964 14.871-12.983 1.653-3.423 1.83-4.426 1.83-9.147 0-4.485-.236-5.843-1.534-8.557-3.01-6.433-8.616-10.504-17.94-13.101-3.895-1.062-6.374-1.298-14.281-1.298l-5.724-.035a3.92 3.92 0 0 1-3.895-3.919 4.077 4.077 0 0 1 3.891-4.073l5.137-.235c8.439-.413 22.72-1.83 23.192-2.302.25-.249-.51-7.137-.966-9.53-.103-.54-.487-.845-1.036-.823-.988.04-2.746.199-4.666.439-2.833.354-9.56.885-14.871 1.062l-6.474.237a2.766 2.766 0 0 1-2.85-3.07 3.068 20.536 0 0 0 .767-5.134 1.555 1.555 0 0 0-1.52-1.888zm15.591 40.156a1.71 1.71 0 0 1 1.672 2.156c-.886 3.304-3.777 8.674-5.901 11.094-2.242 2.597-2.36 2.479-4.013-4.485-1.475-6.196-1.476-8.026-.118-8.38.53-.177 3.187-.295 5.843-.354zm-21.077 5.343c.493-.416.891-.218 1.042.409.217.899.546 2.349.875 3.957.531 2.597 1.476 5.902 2.066 7.436 1.18 3.246 1.003 3.481-3.304 3.481-3.6 0-5.902-1.298-6.729-3.835-1.003-2.951.06-5.607 3.66-9.207.937-.937 1.799-1.742 2.39-2.241m103.42-47.27a5.606 5.606 0 0 0-5.606 5.606v.295a5.9 5.9 0 0 1-5.902 5.901h-13.278a5.606 5.606 0 0 0-5.606 5.606v.65a4.957 4.957 0 0 0 4.898 4.957h.232a6 6 0 0 1 5.833 4.594l.073.304c1.711 6.787 4.366 12.983 8.143 18.767 2.479 3.717 3.069 5.015 2.597 5.664-2.125 2.538-12.747 8.439-19.533 10.859-2.302.767-4.013 1.77-4.013 2.183 0 .649 2.361 9.501 2.656 9.973.177.295 8.379-2.655 12.333-4.484 3.245-1.476 11.508-6.61 16.524-10.328.472-.295 2.183.65 4.956 2.715 2.361 1.771 6.67 4.485 9.561 6.019 5.842 3.069 14.812 6.433 15.402 5.784.397-.496 2.336-7.33 2.77-9.602.092-.482-.153-.85-.608-1.033a64 64 0 0 0-3.401-1.227c-6.963-2.479-19.946-9.855-20.064-11.448 0-.236 1.121-2.066 2.419-4.073 4.131-6.078 7.908-15.166 9.619-23.073.354-1.594.414-1.594 5.371-1.594a5.015 5.015 0 0 0 5.015-5.015v-.591a5.605 5.605 0 0 0-5.606-5.606h-13.278a5.9 5.9 0 0 1-5.901-5.902v-.295a5.606 5.606 0 0 0-5.606-5.606m.295 23.015c4.898 0 8.852.236 8.852.472 0 2.361-5.488 14.813-8.026 18.117-.885 1.181-.885 1.18-2.006-.295-2.951-3.777-7.672-14.459-7.672-17.232 0-1.003.649-1.062 8.852-1.062m5.429-92.533a4.957 4.957 0 0 0-4.957-4.986h-24.667a5.754 5.754 0 1 0 0 11.508h16.228c.762 0 1.333.699 1.18 1.446-.708 2.891-3.068 8.38-5.075 11.861-2.773 4.603-11.743 13.455-16.641 16.288a5.25 5.25 0 0 0-1.662 6.985l.162.283c1.507 2.637 4.843 3.594 7.448 2.031 2.157-1.293 4.606-2.853 6.326-4.224 12.983-10.328 21.009-25.612 21.658-41.191zM47.465 17.83a6 6 0 0 0-5.713 3.923L31.3 50.08A3186 3186 0 0 0 20.84 79c-.743 2.086.804 4.275 3.018 4.275h3.192a6 6 0 0 0 5.647-3.974l1.909-5.32 1.78-4.902a6 6 0 0 1 5.64-3.95h18.203a6 6 0 0 1 5.655 3.992l1.829 5.154 1.928 5.116a6 6 0 0 0 5.615 3.884h3.251c2.21 0 3.75-2.197 2.994-4.275-.767-2.183-5.91-16.557-11.517-32.313l-8.956-24.834a6 6 0 0 0-5.644-3.964H51.63zM48.902 35c.851-2.385 4.296-2.403 5.095 0l4.654 14c.683 2.056-.848 4.178-3.014 4.178H46.77c-2.167 0-3.683-2.14-2.95-4.178 1.681-4.67 3.413-9.325 5.082-14M162.87 21.46a5.46 5.46 0 0 0-5.459-5.46 5.754 5.754 0 0 0-5.754 5.754v57.685a5.606 5.606 0 0 0 5.606 5.606 5.46 5.46 0 0 0 5.459-5.459V61.72a6 6 0 0 1 6.32-5.991l.123.006 1.531-.077A5.585 5.585 0 0 0 176 50.08a5.36 5.36 0 0 0-5.36-5.36h-1.77a6 6 0 0 1-6-6V21.459z"/></svg>