<svg width="192" height="192" viewBox="0 0 192 192" xml:space="preserve" xmlns="http://www.w3.org/2000/svg"><path style="display:inline;fill:none;fill-opacity:1;stroke:#000;stroke-width:12;stroke-linecap:butt;stroke-linejoin:round;stroke-dasharray:none;stroke-opacity:1;paint-order:normal" d="M169.982 157.626H67.502l19.43-28.088.03-.042h83.02z"/><path style="display:inline;fill:none;stroke:#000;stroke-width:12;stroke-linecap:round;stroke-linejoin:round;stroke-dasharray:none;stroke-opacity:1" d="M28.685 102.989c-11.64-18.87-7.803-43.408 9.042-57.824 16.846-14.416 41.681-14.416 58.527 0 16.846 14.416 20.683 38.953 9.043 57.824m-76.612 0 37.527 54.455c.086.126.142.182.268.182h.878c.125 0 .27-.182.27-.182l37.669-54.455"/><path style="display:inline;fill:#000;stroke-width:12;stroke-dasharray:none" d="M49.869 63.624h11.694l10.963 16.079v-16.08H84.22v31.428H72.526L61.563 78.97v16.08H49.869Z"/></svg>