<svg xmlns="http://www.w3.org/2000/svg" width="192" height="192" fill="none" stroke="#000" stroke-linecap="round" stroke-linejoin="round" stroke-width="12" viewBox="0 0 192 192"><path d="M107 26a43 43 0 0 1 43 43h-43m0 0 34.788 25.275A43 43 0 0 1 107.126 112M107 26s-22.341 4.53-30.406 12.594A43 43 0 0 0 107 112zm0 0c-9 0-26.983 5.046-43 0-4.012-1.264-10-4-10-4"/><path d="M141.79 94.27S137.406 170 62 170c36-14 34-40 34-40s-26 26-56 24c0 0 24-34 24-85"/><circle cx="86" cy="67" r="4" stroke-width="8"/></svg>