<svg width="192" height="192" viewBox="0 0 50.8 50.8" xml:space="preserve" xmlns="http://www.w3.org/2000/svg"><path style="display:inline;fill:none;fill-opacity:.434528;stroke:#000;stroke-width:3.175;stroke-linecap:round;stroke-linejoin:round;stroke-dasharray:none;stroke-opacity:1;paint-order:markers fill stroke" d="M44.914 26.99a19.58 19.58 0 0 1-19.516 17.99A19.58 19.58 0 0 1 5.885 26.986Z"/><path d="M43.364 25.402c-.014-2.969-2.389-5.37-5.325-5.385-2.123 0-3.944 1.3-4.799 3.13-.98-3.46-4.112-6.027-7.84-6.023-3.748 0-6.896 2.594-7.859 6.081-.838-1.866-2.686-3.188-4.834-3.188-2.937.014-5.313 2.416-5.326 5.38v.003l35.983.002zm-32.858.02v-.023c0-1.249.967-2.224 2.2-2.224s2.201.975 2.201 2.224zm9.831 0v-.023c0-2.847 2.25-5.119 5.063-5.119 2.816 0 5.065 2.272 5.065 5.119zm15.501 0v-.023c0-1.249.965-2.224 2.199-2.224s2.2.975 2.2 2.224z" style="display:inline;fill:#000;fill-opacity:1;stroke-width:3.175;stroke-dasharray:none"/></svg>