<svg width="192" height="192" viewBox="0 0 192 192" fill="none" xmlns="http://www.w3.org/2000/svg"><path d="M112 25c-88 0-73 138-73 138" stroke="#000" stroke-width="12" stroke-linecap="round" stroke-linejoin="round"/><path d="M105 54c-53.5 0-66 109-66 109m66-109c23 0 31 18 31 40m34-11v78a7 7 0 0 1-7 7h-20a7 7 0 0 1-7-7V94M22 43c0 12.74.4 24.395 1.078 35M170 83a57.995 57.995 0 0 0-35.804-53.585A58 58 0 0 0 112 25" stroke="#000" stroke-width="12" stroke-linecap="round" stroke-linejoin="round"/></svg>