<svg id="svg" xmlns="http://www.w3.org/2000/svg" xmlns:xlink="http://www.w3.org/1999/xlink" width="400" height="400" viewBox="0, 0, 400,400"><g id="svgg"><path id="path0" d="M103.764 100.057 C 96.572 102.745,96.092 107.441,96.115 175.000 L 96.136 238.281 100.670 251.172 C 103.164 258.262,105.791 264.063,106.508 264.063 C 107.226 264.063,107.813 264.952,107.813 266.038 C 107.813 269.875,123.077 286.804,132.480 293.395 C 162.319 314.310,232.221 315.602,262.385 295.795 C 297.977 272.424,303.566 254.650,302.826 167.188 C 302.159 88.283,300.233 85.434,268.578 116.509 C 251.916 132.867,251.635 132.965,237.769 127.331 C 218.210 119.384,184.172 119.370,163.281 127.302 C 157.266 129.586,151.099 131.846,149.577 132.324 C 147.575 132.954,142.390 128.848,130.827 117.480 C 114.243 101.176,109.296 97.990,103.764 100.057 M132.735 150.017 C 143.889 160.373,147.522 161.350,155.897 156.244 C 162.265 152.361,168.518 152.189,169.813 155.859 C 174.674 169.632,190.842 166.256,188.521 151.954 C 188.067 149.160,188.279 146.875,188.990 146.875 C 189.701 146.875,190.547 152.086,190.868 158.456 C 192.116 183.173,207.813 182.716,207.813 157.962 C 207.813 152.654,208.504 148.438,209.375 148.438 C 210.234 148.438,210.938 151.127,210.938 154.415 C 210.938 167.668,220.287 169.893,227.802 158.428 C 231.813 152.309,234.504 151.913,242.596 156.250 C 252.072 161.329,255.399 160.452,266.284 150.000 C 282.297 134.623,281.564 132.618,280.976 190.234 L 280.469 239.844 275.589 250.142 C 262.439 277.895,239.940 286.094,182.813 283.949 C 158.751 283.045,149.155 279.844,136.881 268.626 C 119.400 252.649,117.188 243.542,117.188 187.551 C 117.188 133.646,116.608 135.044,132.735 150.017 M148.104 197.739 C 135.994 204.312,140.874 227.255,155.090 230.585 C 161.449 232.075,171.875 221.487,171.875 213.539 C 171.875 199.116,160.049 191.256,148.104 197.739 M231.096 200.165 C 218.499 213.650,234.387 238.069,249.167 227.941 C 255.602 223.532,257.813 219.135,257.813 210.744 C 257.813 196.508,240.803 189.773,231.096 200.165 " stroke="none" fill="#000000" fill-rule="evenodd"></path></g></svg>