<svg xmlns="http://www.w3.org/2000/svg" width="192" height="192" fill="none"><path stroke="#000" stroke-linecap="round" stroke-linejoin="round" stroke-width="10" d="M54 61c13 1 21-12 21-12s1 10 13 12 18-10 18-10 6 13 17 13"/><ellipse cx="72.186" cy="79.026" stroke="#000" stroke-linecap="round" stroke-linejoin="round" stroke-width="8" rx=".5" ry="4" transform="rotate(10 72.186 79.026)"/><ellipse cx="99.186" cy="82.026" stroke="#000" stroke-linecap="round" stroke-linejoin="round" stroke-width="8" rx=".5" ry="4" transform="rotate(10 99.186 82.026)"/><path stroke="#000" stroke-linecap="round" stroke-linejoin="round" stroke-width="10" d="m47 102 7.5-57L52 21l20 10s12-8 25-6 22 13 22 13l26-2-20 28-6 38m21 0 5-22"/><path stroke="#000" stroke-linecap="round" stroke-linejoin="round" stroke-width="12" d="M147 132v32a6 6 0 0 1-6 6H45a6 6 0 0 1-6-6v-54a6 6 0 0 1 6-6h102m-47 2-2 63"/><path stroke="#000" stroke-linecap="round" stroke-linejoin="round" stroke-width="10" d="m102 106 14 25m47-1-14.514-26.126A1.7 1.7 0 0 0 147 103m16 27-47 1"/><circle cx="145" cy="80" r="4" stroke="#000" stroke-linecap="round" stroke-linejoin="round" stroke-width="8"/></svg>