<svg xmlns="http://www.w3.org/2000/svg" width="192" height="192" fill="none"><path stroke="#000" stroke-linecap="round" stroke-linejoin="round" stroke-width="10" d="m21 86 23 7m127-7-23 7M21 134l23-7m127 7-23-7M21 110h23m127 0h-23"/><path stroke="#000" stroke-linecap="round" stroke-linejoin="round" stroke-width="12" d="M95 98.751a28 28 0 0 0-28 0"/><path stroke="#000" stroke-linecap="round" stroke-linejoin="round" stroke-width="12" d="M96 70c-16 0-36-14-56-20l6 44v40a6 6 0 0 0 6 6h88a6 6 0 0 0 6-6V94l6-44c-20 6-40 20-56 20"/></svg>