<svg xmlns="http://www.w3.org/2000/svg" width="192" height="192" fill="none" viewBox="0 0 192 192"><g clip-path="url(#a)"><path stroke="#000" stroke-linecap="round" stroke-linejoin="round" stroke-width="12" d="M133 160.086C168.394 139.651 180.52 94.394 160.086 59 139.651 23.606 94.394 11.48 59 31.914 23.606 52.35 11.48 97.606 31.914 133 52.35 168.394 97.606 180.52 133 160.086Z"/><path stroke="#000" stroke-linejoin="round" stroke-width="12" d="M65.038 162.373c-12-20.784-20.797-68.821-12.483-73.621 8.314-4.8 24.344 7.499 31.32 14.248 9.393-7.732 12.857-9.732 24.249-14-2.357-9.416-4.993-29.449 3.321-34.248 8.314-4.8 45.516 26.837 57.516 47.621"/><ellipse cx="89.349" cy="134.481" fill="#000" rx="8" ry="10" transform="rotate(-30 89.35 134.481)"/><ellipse cx="132.651" cy="109.481" fill="#000" rx="8" ry="10" transform="rotate(-30 132.651 109.481)"/></g><defs><clipPath id="a"><path fill="#fff" d="M0 0h192v192H0z"/></clipPath></defs></svg>