<svg width="192" height="192" viewBox="0 0 192 192" fill="none" xmlns="http://www.w3.org/2000/svg">
<circle cx="96" cy="96" r="75" stroke="black" stroke-width="10"/>
<path d="M45.6305 80.2646L44.9116 66.4605C44.6359 61.1685 49.4885 57.0757 54.6582 58.2398L72.921 62.3523M45.6305 80.2646C41.4315 85.8608 39.3403 92.1246 39.9971 98.5631C41.435 112.66 55.6526 123.738 75 127.832M45.6305 80.2646C46.8968 78.5769 48.3548 76.95 49.987 75.3973M72.921 62.3523C71.0184 62.9741 69.1742 63.6592 67.3948 64.4024M72.921 62.3523C78.774 60.4394 85.1793 59.125 91.9455 58.5564C98.8766 57.9738 105.594 58.2237 111.863 59.1845M142.352 72.6297L140.153 58.135C139.372 52.9878 133.961 49.9459 129.157 51.954L111.863 59.1845M142.352 72.6297C140.642 71.0109 138.715 69.5024 136.597 68.1181M142.352 72.6297C147.329 77.3416 150.467 82.9879 151.103 89.2252C152.504 102.961 141.398 115.902 124 123.262M111.863 59.1845C114.02 59.5151 116.124 59.93 118.165 60.4241M52.4036 143.571C53.8103 143.085 55.2838 142.683 56.8145 142.378C70.5583 139.636 83.7031 145.688 86.1742 155.895C87.3505 160.754 85.8961 165.678 82.5666 169.8M52.4036 143.571L56.2612 123.8M52.4036 143.571C48.7143 144.847 45.4845 146.709 42.8886 148.955M148.762 135.473C147.281 135.229 145.751 135.08 144.185 135.035C130.12 134.63 118.423 142.77 118.058 153.215C117.894 157.914 120.052 162.279 123.756 165.697M148.762 135.473L140.971 116.681M148.762 135.473C152.079 136.019 155.153 137.04 157.851 138.432" stroke="black" stroke-width="6" stroke-linecap="round" stroke-linejoin="round"/>
<path d="M82.2737 93.9571C87.8115 98.2297 91.1293 97.7741 97.3064 93.5159C104.226 96.4166 107.566 96.1821 112.11 90.8646M94.5732 90.4753C96.2494 89.9088 97.2157 89.7842 98.9807 89.9073C98.623 90.6381 98.1052 90.9883 97.0035 91.5794C95.556 91.323 95.0483 91.0727 94.5732 90.4753Z" stroke="black" stroke-width="6" stroke-linecap="round" stroke-linejoin="round"/>
<circle cx="66.1539" cy="84.5256" r="3" transform="rotate(-5 66.1539 84.5256)" stroke="black" stroke-width="6" stroke-linecap="round" stroke-linejoin="round"/>
<circle cx="123.846" cy="78.4743" r="3" transform="rotate(-5 123.846 78.4743)" stroke="black" stroke-width="6" stroke-linecap="round" stroke-linejoin="round"/>
<path d="M89.0973 122.78C89.0224 117.258 91.8021 112.517 97.4535 111.349C103.105 110.18 110.302 114.027 108.937 120.202C107.572 126.378 91.5709 141.625 91.5709 141.625L112.954 139.388" stroke="black" stroke-width="8" stroke-linecap="round" stroke-linejoin="round"/>
</svg>
