<svg xmlns="http://www.w3.org/2000/svg" width="192" height="192" fill="none" viewBox="0 0 192 192"><path fill="#000" fill-rule="evenodd" d="M122.444 80.202a19 19 0 0 1 23.991 29.233 4 4 0 0 1-5.657-5.657 10.998 10.998 0 0 0-1.667-16.924 10.998 10.998 0 0 0-16.274 4.936 10.998 10.998 0 0 0 2.385 11.988 4 4 0 0 1-5.657 5.657 19.001 19.001 0 0 1 2.879-29.233Z" clip-rule="evenodd"/><path fill="#000" d="M41 111a4 4 0 0 1 4-4h28a4 4 0 0 1 0 8H45a4 4 0 0 1-4-4Zm-7-15a4 4 0 0 1 4-4h42a4 4 0 0 1 0 8H38a4 4 0 0 1-4-4Zm7-15a4 4 0 0 1 4-4h28a4 4 0 0 1 0 8H45a4 4 0 0 1-4-4Z"/><path fill="#000" fill-rule="evenodd" d="M65.048 65.596A31 31 0 1 0 80.92 117.92a6 6 0 0 1 8.486 8.486 43.002 43.002 0 0 1-71.554-17.924 42.998 42.998 0 0 1 49.537-54.656A43 43 0 0 1 102 96a30.999 30.999 0 1 0 9.08-21.92 6 6 0 0 1-8.486-8.486 43.003 43.003 0 0 1 54.296-5.347 42.997 42.997 0 0 1 15.837 52.208 43.002 43.002 0 0 1-72.967 10.824A43 43 0 0 1 90 96a31 31 0 0 0-24.952-30.404Z" clip-rule="evenodd"/></svg>