<svg width="192" height="192" viewBox="0 0 192 192" fill="none" xmlns="http://www.w3.org/2000/svg">
<rect x="42" y="75" width="32" height="12" rx="6" fill="black"/>
<rect x="42" y="105" width="32" height="12" rx="6" fill="black"/>
<rect x="34" y="90" width="48" height="12" rx="6" fill="black"/>
<path fill-rule="evenodd" clip-rule="evenodd" d="M140.416 114.965C147.896 111.955 153 104.535 153 96.1941C153 85.3141 144.315 76 133 76C121.685 76 113 85.3141 113 96.1941C113 104.841 118.486 112.499 126.418 115.278L129.612 103.619C126.887 102.313 125 99.4791 125 96.1941C125 91.6686 128.582 88 133 88C137.418 88 141 91.6686 141 96.1941C141 99.3287 139.282 102.052 136.757 103.43L140.416 114.965Z" fill="black"/>
<rect x="118" y="48.0345" width="4" height="10.2592" rx="2" transform="rotate(-30.5715 118 48.0345)" fill="black"/>
<rect x="141.719" y="47" width="4" height="10.0497" rx="2" transform="rotate(37.404 141.719 47)" fill="black"/>
<path fill-rule="evenodd" clip-rule="evenodd" d="M85.1812 123.005C83.0481 119.958 78.6309 119.712 75.5489 121.794C70.6819 125.081 64.8151 127 58.5 127C41.6553 127 28 113.345 28 96.5C28 79.6553 41.6553 66 58.5 66C75.3447 66 89 79.6553 89 96.5V96.5C89 100.72 92.6999 104.75 96.8238 103.855V103.855C99.0371 103.374 100.76 101.582 100.908 99.3218C100.969 98.3891 101 97.4482 101 96.5C101 73.0279 81.9721 54 58.5 54C35.0279 54 16 73.0279 16 96.5C16 119.972 35.0279 139 58.5 139C68.1879 139 77.1187 135.759 84.267 130.301C86.538 128.567 86.82 125.345 85.1812 123.005V123.005Z" fill="black"/>
<path fill-rule="evenodd" clip-rule="evenodd" d="M104.676 69.0983C106.815 72.1534 111.252 72.3886 114.332 70.2868C119.223 66.9506 125.134 65 131.5 65C148.345 65 162 78.6553 162 95.5C162 112.345 148.345 126 131.5 126C114.655 126 101 112.345 101 95.5C101 92.8308 98.7614 90.4966 96.1174 90.8626L92.8003 91.3217C90.6693 91.6167 89 93.3487 89 95.5C89 118.972 108.028 138 131.5 138C154.972 138 174 118.972 174 95.5C174 72.0279 154.972 53 131.5 53C121.739 53 112.746 56.2906 105.571 61.8231C103.318 63.5605 103.044 66.7675 104.676 69.0983ZM128 58C128 59.1046 127.105 60 126 60C124.895 60 124 59.1046 124 58C124 56.8954 124.895 56 126 56C127.105 56 128 56.8954 128 58ZM136 60C137.105 60 138 59.1046 138 58C138 56.8954 137.105 56 136 56C134.895 56 134 56.8954 134 58C134 59.1046 134.895 60 136 60Z" fill="black"/>
</svg>
