<svg xmlns="http://www.w3.org/2000/svg" width="192" height="192" fill="none"><path fill="#000" d="M41 111a4 4 0 0 1 4-4h28a4 4 0 0 1 0 8H45a4 4 0 0 1-4-4Zm-7-15a4 4 0 0 1 4-4h42a4 4 0 1 1 0 8H38a4 4 0 0 1-4-4Zm7-15a4 4 0 0 1 4-4h28a4 4 0 1 1 0 8H45a4 4 0 0 1-4-4Z"/><path fill="#000" fill-rule="evenodd" d="M65.048 65.596A31 31 0 1 0 80.92 117.92a6 6 0 0 1 8.486 8.486 43.002 43.002 0 0 1-71.554-17.924A42.999 42.999 0 1 1 102 96a30.999 30.999 0 1 0 9.08-21.92 6 6 0 0 1-8.486-8.486 43.003 43.003 0 0 1 54.296-5.347 42.997 42.997 0 0 1 15.837 52.208 43.002 43.002 0 0 1-48.116 25.719A43.003 43.003 0 0 1 90 96a31 31 0 0 0-24.952-30.404Z" clip-rule="evenodd"/><path fill="#000" fill-rule="evenodd" d="M113.422 95.211a4 4 0 0 1 5.367-1.789L133 100.528l14.211-7.106a4 4 0 0 1 3.578 7.156l-16 8a4.001 4.001 0 0 1-3.578 0l-16-8a4 4 0 0 1-1.789-5.367Z" clip-rule="evenodd"/><path fill="#000" fill-rule="evenodd" d="M113.422 107.211a4 4 0 0 1 5.367-1.789L133 112.528l14.211-7.106a4 4 0 0 1 3.578 7.156l-16 8a4.001 4.001 0 0 1-3.578 0l-16-8a4 4 0 0 1-1.789-5.367Zm17.486-35.621a4 4 0 0 1 4.184 0l16 9.819a4 4 0 0 1-.271 6.97l-16 8.182a3.999 3.999 0 0 1-3.642 0l-16-8.181a4 4 0 0 1-.271-6.971l16-9.818Zm-5.743 12.91L133 88.508l7.835-4.006L133 79.693l-7.835 4.808Z" clip-rule="evenodd"/></svg>