<svg xmlns="http://www.w3.org/2000/svg" width="192" height="192" fill="none" stroke="#000" stroke-linecap="round" viewBox="0 0 192 192"><path stroke-width="8" d="M142.899 105.899a13.994 13.994 0 0 0 3.035-15.257 13.998 13.998 0 0 0-20.712-6.283 13.998 13.998 0 0 0-2.121 21.54M42 96h34M47 81h24m-24 30h24"/><path stroke-width="12" d="M77.5 128.043a37.003 37.003 0 0 1-48.575-10.491 37.003 37.003 0 0 1 5.68-49.37 37 37 0 0 1 33.971-7.921C74.454 61.836 91 67 95 96c3 21.5 13.875 28.796 19.5 32.043a37.005 37.005 0 0 0 37 0A37.005 37.005 0 0 0 165.043 77.5 36.995 36.995 0 0 0 133 59a37 37 0 0 0-18.5 4.957"/></svg>