<svg width="192" height="192" viewBox="0 0 192 192" fill="none" xmlns="http://www.w3.org/2000/svg">
<g clip-path="url(#clip0_917_1282)">
<path d="M108.334 22C99.8518 22.0001 92.7502 28.4295 91.9085 36.8708L62.0817 28.8783C60.5313 28.4628 58.9142 28.3568 57.3227 28.5663C55.7313 28.7758 54.1967 29.2967 52.8066 30.0993C51.4165 30.9019 50.1981 31.9704 49.221 33.2438C48.2438 34.5173 47.5271 35.9708 47.1116 37.5212L38.6899 68.9534C39.0013 68.936 39.3131 68.9274 39.6249 68.9276C48.7416 68.9276 56.1321 76.3189 56.1321 85.4364C56.1321 94.554 48.7416 101.945 39.6249 101.945C36.4091 101.946 33.2633 101.006 30.5739 99.2432L22.4165 129.689C21.5775 132.82 22.0168 136.157 23.6377 138.964C25.2586 141.772 27.9284 143.82 31.0597 144.659L61.929 152.931C61.8175 152.155 61.7614 151.371 61.7613 150.586C61.7614 141.469 69.1519 134.077 78.2686 134.077C87.3853 134.077 94.7758 141.469 94.7758 150.586C94.7758 154.286 93.5329 157.879 91.2465 160.788L125.202 169.887C130.627 171.34 136.202 168.121 137.656 162.697L146.38 130.135C148.603 131.198 151.035 131.749 153.499 131.749C162.616 131.749 170.006 124.358 170.006 115.24C170.007 106.62 163.375 99.4512 154.782 98.7811L163.414 66.5609C164.867 61.1355 161.647 55.5594 156.222 54.1062L123.38 45.3058C124.344 43.1696 124.842 40.8526 124.841 38.5088C124.841 29.3913 117.451 22 108.334 22Z" stroke="black" stroke-width="12" stroke-linecap="round" stroke-linejoin="round"/>
<path d="M86.6835 111.617C80.4347 97.7399 79.4677 84.0143 81.602 75.5519C82.8702 70.5233 90.3753 69.9041 93.4613 74.1831C100.514 83.9622 108.249 101.596 114.446 110.363C117.258 114.342 124.762 112.054 125.257 107.373C126.313 97.3912 125.436 80.4663 120.978 69.9117" stroke="black" stroke-width="12" stroke-miterlimit="6" stroke-linecap="round" stroke-linejoin="round"/>
</g>
<defs>
<clipPath id="clip0_917_1282">
<rect width="160" height="160.227" fill="white" transform="translate(16 16)"/>
</clipPath>
</defs>
</svg>
