<svg xmlns="http://www.w3.org/2000/svg" width="192" height="192" fill="none"><path stroke="#000" stroke-linecap="round" stroke-linejoin="round" stroke-width="12" d="M82.573 115.975c-5.92-8.198-11.425-27.187.474-43.702 14.373 9.686 20.594 38.059 33.754 43.727 5.358-4.911 12.413-23.427 1.337-44"/><path stroke="#000" stroke-linecap="round" stroke-linejoin="round" stroke-width="12" d="M112.216 22.561a16.03 16.03 0 0 0-11.918 1.417 16.42 16.42 0 0 0-7.706 9.333L57.644 23.81c-3.477-.946-7.025 1.133-7.957 4.66L39.265 67.936a16.44 16.44 0 0 1 6.254 7.907 16.7 16.7 0 0 1 .509 10.125 16.5 16.5 0 0 1-5.43 8.511 16.1 16.1 0 0 1-9.313 3.675l-9.06 34.309c-.932 3.527 1.117 7.128 4.593 8.073l36.907 10.034a16.2 16.2 0 0 1 7.44-4.723 16 16 0 0 1 8.777-.105 16.2 16.2 0 0 1 7.547 4.543 16.56 16.56 0 0 1 4.116 7.864l42.751 11.623c3.476.945 7.025-1.134 7.957-4.661l9.37-35.482a16.1 16.1 0 0 0 9.44-3.619 16.5 16.5 0 0 0 5.511-8.579c.893-3.38.701-6.961-.546-10.223a16.43 16.43 0 0 0-6.392-7.923l10.079-38.166c.932-3.527-1.117-7.128-4.593-8.073l-41.266-11.219c.842-4.12.1-8.41-2.075-11.993a16.27 16.27 0 0 0-9.625-7.273"/></svg>