<?xml version="1.0" encoding="UTF-8" standalone="no"?>
<svg
   width="192"
   height="192"
   viewBox="0 0 192 192"
   fill="none"
   version="1.1"
   id="svg4"
   sodipodi:docname="Lawnicons.svg"
   inkscape:version="1.4.2 (f4327f4, 2025-05-13)"
   inkscape:export-filename="Lawnicons_template.png"
   inkscape:export-xdpi="96"
   inkscape:export-ydpi="96"
   xml:space="preserve"
   xmlns:inkscape="http://www.inkscape.org/namespaces/inkscape"
   xmlns:sodipodi="http://sodipodi.sourceforge.net/DTD/sodipodi-0.dtd"
   xmlns="http://www.w3.org/2000/svg"
   xmlns:svg="http://www.w3.org/2000/svg"><defs
     id="defs4"><linearGradient
       id="swatch5"
       inkscape:swatch="solid"
       inkscape:label="Lawn Gold"><stop
         style="stop-color:#ff9900;stop-opacity:1;"
         offset="0"
         id="stop5" /></linearGradient><linearGradient
       id="swatch4"
       inkscape:swatch="solid"
       inkscape:label="Lawn Blue"><stop
         style="stop-color:#3b8aff;stop-opacity:1;"
         offset="0"
         id="stop4" /></linearGradient></defs><sodipodi:namedview
     id="namedview4"
     pagecolor="#ffffff"
     bordercolor="#999999"
     borderopacity="1"
     inkscape:showpageshadow="2"
     inkscape:pageopacity="0"
     inkscape:pagecheckerboard="0"
     inkscape:deskcolor="#d1d1d1"
     inkscape:zoom="4.1458333"
     inkscape:cx="95.879398"
     inkscape:cy="95.758795"
     inkscape:window-width="1920"
     inkscape:window-height="1009"
     inkscape:window-x="-8"
     inkscape:window-y="-8"
     inkscape:window-maximized="1"
     inkscape:current-layer="layer2"><inkscape:page
       x="0"
       y="0"
       width="192"
       height="192"
       id="page1"
       margin="0"
       bleed="0" /></sodipodi:namedview><inkscape:templateinfo><inkscape:name>Lawnicon</inkscape:name><inkscape:date>2025-12-24</inkscape:date></inkscape:templateinfo><g
     inkscape:groupmode="layer"
     id="layer2"
     inkscape:label="icon"
     inkscape:highlight-color="#6667ab"
     transform="matrix(1.0465854,-0.28421277,0.28043174,1.0606965,-27.079321,23.318237)"
     style="stroke-width:0.916773"><path
       style="fill:none;stroke:#000000;stroke-width:11.0012;stroke-linecap:round;stroke-linejoin:round;stroke-dasharray:none"
       d="m 72.648259,109.92 c -3.48243,-8.86265 -3.971134,-27.361765 11.005491,-39.323378 10.923193,12.296389 9.803956,39.440658 20.58027,47.811198 6.13275,-3.10662 17.12125,-18.07269 11.87338,-39.37934"
       id="path3"
       sodipodi:nodetypes="cccc" /><path
       id="rect3"
       style="fill:none;stroke:#000000;stroke-width:11.0012;stroke-linecap:round;stroke-linejoin:round;stroke-dasharray:none"
       d="m 124.35976,32.641644 a 15,15 0 0 0 -20.03968,4.760527 L 75.380959,20.694163 c -2.878668,-1.662 -6.534153,-0.682516 -8.196153,2.196152 L 48.589103,55.099018 a 15,15 0 0 1 1.784683,17.471338 15,15 0 0 1 -16.022965,7.190089 L 18.184806,107.76081 c -1.662001,2.87867 -0.682514,6.53414 2.196152,8.19615 l 30.561225,17.64453 a 15,15 0 0 1 15.604731,-0.36803 15,15 0 0 1 7.481954,13.69713 l 35.400482,20.43847 c 2.87866,1.66201 6.53414,0.68252 8.19615,-2.19615 l 16.71875,-28.95772 a 15,15 0 0 0 16.21223,-7.15073 15,15 0 0 0 -1.91438,-17.61388 l 17.98339,-31.148156 c 1.66201,-2.878667 0.68252,-6.534152 -2.19615,-8.196152 L 130.25856,52.377758 a 15,15 0 0 0 -5.8988,-19.736114 z" /></g><inkscape:templateinfo><inkscape:name>Lawnicons</inkscape:name><inkscape:date>2025-12-24</inkscape:date></inkscape:templateinfo><inkscape:templateinfo><inkscape:name>Lawnicon</inkscape:name><inkscape:shortdesc>用于设计 LawnchairLauncher/lawnicons 的模板</inkscape:shortdesc><inkscape:date>2025-12-24</inkscape:date></inkscape:templateinfo></svg>
