<?xml version="1.0" encoding="UTF-8" standalone="no"?>
<svg
   width="192"
   height="192"
   viewBox="0 0 192 192"
   fill="none"
   version="1.1"
   id="svg4"
   xml:space="preserve"
   xmlns="http://www.w3.org/2000/svg"
   xmlns:svg="http://www.w3.org/2000/svg"><defs
     id="defs4"><linearGradient
       id="swatch5"><stop
         style="stop-color:#ff9900;stop-opacity:1;"
         offset="0"
         id="stop5" /></linearGradient><linearGradient
       id="swatch4"><stop
         style="stop-color:#3b8aff;stop-opacity:1;"
         offset="0"
         id="stop4" /></linearGradient></defs><g
     style="display:inline;fill:none"
     id="g9"
     transform="translate(69.773871,65.477887)"><path
       id="rect3"
       style="stroke:#000000;stroke-width:12;stroke-linecap:round;stroke-linejoin:round;stroke-dasharray:none"
       d="M 109.45411,23.24 A 16.207368,16.205782 89.995385 0 0 93.328514,37.839295 L 52.455338,26.886658 41.08175,69.336035 a 16.207368,16.205782 89.995385 0 1 0.917905,-0.02532 16.207368,16.205782 89.995385 0 1 16.205781,16.207369 16.207368,16.205782 89.995385 0 1 -16.20578,16.207376 16.207368,16.205782 89.995385 0 1 -8.885749,-2.65269 L 21.999865,140.5535 63.89645,151.78049 a 16.207368,16.205782 89.995385 0 1 -0.164587,-2.30239 16.207368,16.205782 89.995385 0 1 16.205778,-16.20736 16.207368,16.205782 89.995385 0 1 16.205789,16.20736 16.207368,16.205782 89.995385 0 1 -3.464837,10.01564 l 33.335797,8.93306 a 9.9843871,9.9834097 89.995385 0 0 12.22608,-7.05907 l 8.56501,-31.96735 a 16.207368,16.205782 89.995385 0 0 6.98875,1.58487 16.207368,16.205782 89.995385 0 0 16.20578,-16.20738 16.207368,16.205782 89.995385 0 0 -14.94604,-16.15882 l 8.47427,-31.631812 a 9.9843433,9.9833659 89.995385 0 0 -7.06048,-12.227276 l -32.24275,-8.639709 a 16.207368,16.205782 89.995385 0 0 1.43489,-6.672877 16.207368,16.205782 89.995385 0 0 -16.20579,-16.207371 z"
       transform="translate(-69.773871,-65.477887)" /><path
       d="M 14.806714,45.742718 C 8.6720493,32.118986 7.722735,18.643994 9.8180084,10.336149 11.063089,5.3993549 18.431118,4.7914887 21.460774,8.9923449 28.384701,18.592912 35.9786,35.905084 42.061897,44.511311 c 2.761309,3.906508 10.128108,1.660346 10.613988,-2.934752 1.03623,-9.799928 0.175538,-26.41573 -4.200946,-36.7775638"
       stroke="#000000"
       stroke-width="10"
       stroke-miterlimit="6"
       stroke-linecap="round"
       stroke-linejoin="round"
       id="path1"
       style="stroke-width:12;stroke-dasharray:none"
       transform="translate(3.6180905)" /></g></svg>
