<?xml version="1.0" encoding="UTF-8" standalone="no"?>
<svg
   width="192"
   height="192"
   viewBox="0 0 192 192"
   fill="none"
   version="1.1"
   id="svg4"
   sodipodi:docname="neodb_you.svg"
   inkscape:version="1.4.3 (0d15f75, 2025-12-25)"
   inkscape:export-filename="neodb_you.svg"
   inkscape:export-xdpi="96"
   inkscape:export-ydpi="96"
   xml:space="preserve"
   xmlns:inkscape="http://www.inkscape.org/namespaces/inkscape"
   xmlns:sodipodi="http://sodipodi.sourceforge.net/DTD/sodipodi-0.dtd"
   xmlns="http://www.w3.org/2000/svg"
   xmlns:svg="http://www.w3.org/2000/svg"><defs
     id="defs4"><inkscape:path-effect
       effect="fillet_chamfer"
       id="path-effect5"
       is_visible="true"
       lpeversion="1"
       nodesatellites_param="F,0,0,1,0,0,0,1 @ F,0,0,1,0,0,0,1 @ F,0,0,1,0,12,0,1 @ F,0,0,1,0,0,0,1 @ F,0,0,1,0,0,0,1 @ F,0,0,1,0,0,0,1 @ F,0,0,1,0,0,0,1 @ F,0,0,1,0,0,0,1 @ F,0,0,1,0,12,0,1 @ F,0,0,1,0,0,0,1 @ F,0,0,1,0,0,0,1 @ F,0,0,1,0,0,0,1 @ F,0,0,1,0,0,0,1 @ F,0,0,1,0,0,0,1 @ F,0,0,1,0,0,0,1 @ F,0,0,1,0,0,0,1 @ F,0,0,1,0,0,0,1 @ F,0,0,1,0,0,0,1 @ F,0,0,1,0,0,0,1 @ F,0,0,1,0,0,0,1 @ F,0,0,1,0,0,0,1 @ F,0,0,1,0,0,0,1 @ F,0,0,1,0,0,0,1 @ F,0,0,1,0,0,0,1 @ F,0,0,1,0,0,0,1"
       radius="0"
       unit="px"
       method="auto"
       mode="F"
       chamfer_steps="1"
       flexible="false"
       use_knot_distance="true"
       apply_no_radius="true"
       apply_with_radius="true"
       only_selected="false"
       hide_knots="false" /><inkscape:path-effect
       effect="fillet_chamfer"
       id="path-effect9"
       is_visible="true"
       lpeversion="1"
       nodesatellites_param="F,0,0,1,0,0,0,1 @ F,0,0,1,0,9.4895885,0,1 @ F,0,0,1,0,9.4896,0,1 @ F,0,0,1,0,0,0,1"
       radius="0"
       unit="px"
       method="auto"
       mode="F"
       chamfer_steps="1"
       flexible="false"
       use_knot_distance="true"
       apply_no_radius="true"
       apply_with_radius="true"
       only_selected="false"
       hide_knots="false" /><linearGradient
       id="swatch5"
       inkscape:swatch="solid"
       inkscape:label="Lawn Gold"><stop
         style="stop-color:#ff9900;stop-opacity:1;"
         offset="0"
         id="stop5" /></linearGradient><linearGradient
       id="swatch4"
       inkscape:swatch="solid"
       inkscape:label="Lawn Blue"><stop
         style="stop-color:#3b8aff;stop-opacity:1;"
         offset="0"
         id="stop4" /></linearGradient></defs><sodipodi:namedview
     id="namedview4"
     pagecolor="#ffffff"
     bordercolor="#999999"
     borderopacity="1"
     inkscape:showpageshadow="2"
     inkscape:pageopacity="0"
     inkscape:pagecheckerboard="0"
     inkscape:deskcolor="#d1d1d1"
     inkscape:zoom="4.1458333"
     inkscape:cx="123.13568"
     inkscape:cy="92.623116"
     inkscape:window-width="1920"
     inkscape:window-height="1009"
     inkscape:window-x="-8"
     inkscape:window-y="-8"
     inkscape:window-maximized="1"
     inkscape:current-layer="svg4"><inkscape:page
       x="0"
       y="0"
       width="192"
       height="192"
       id="page1"
       margin="0"
       bleed="0" /></sodipodi:namedview><inkscape:templateinfo><inkscape:name>Lawnicon</inkscape:name><inkscape:date>2025-12-24</inkscape:date></inkscape:templateinfo><inkscape:templateinfo><inkscape:name>Lawnicons</inkscape:name><inkscape:date>2025-12-24</inkscape:date></inkscape:templateinfo><inkscape:templateinfo><inkscape:name>Lawnicon</inkscape:name><inkscape:shortdesc>用于设计 LawnchairLauncher/lawnicons 的模板</inkscape:shortdesc><inkscape:date>2025-12-24</inkscape:date></inkscape:templateinfo><g
     style="display:inline;fill:none;stroke-width:0.981739"
     id="g9"
     transform="matrix(1.0186015,0,0,1.0185997,67.909477,65.02351)"
     inkscape:export-filename="..\lawnicons\svgs\neodb_you.svg"
     inkscape:export-xdpi="96"
     inkscape:export-ydpi="96"><path
       id="rect3"
       style="stroke:#000000;stroke-width:11.7809;stroke-linecap:round;stroke-linejoin:round;stroke-dasharray:none"
       d="m 109.45411,23.24 c -8.32744,1.14e-4 -15.299359,6.312138 -16.125596,14.599295 L 64.046398,29.992672 a 11.999626,11.999626 150.00003 0 0 -14.696713,8.485143 l -8.267935,30.85822 c 0.305668,-0.01711 0.611759,-0.02555 0.917905,-0.02532 8.950206,10e-7 16.205781,7.256287 16.205781,16.207369 5e-6,8.951085 -7.255571,16.207376 -16.20578,16.207376 -3.157047,2.5e-4 -6.245422,-0.92174 -8.885749,-2.65269 l -8.008392,29.88957 a 12.000408,12.000408 60.00009 0 0 8.485402,14.6972 l 30.305533,8.12095 c -0.109508,-0.76258 -0.16451,-1.53199 -0.164587,-2.30239 4e-6,-8.95108 7.255576,-16.20736 16.205778,-16.20736 8.950206,0 16.205784,7.25628 16.205789,16.20736 -2.5e-5,3.63253 -1.22024,7.15975 -3.464837,10.01564 l 33.335797,8.93306 c 5.32518,1.42658 10.79859,-1.73365 12.22608,-7.05907 l 8.56501,-31.96735 c 2.18214,1.04324 4.5701,1.58477 6.98875,1.58487 8.95021,0 16.20579,-7.25629 16.20578,-16.20738 2.6e-4,-8.46264 -6.50983,-15.500984 -14.94604,-16.15882 l 8.47427,-31.631812 c 1.42632,-5.326342 -1.73471,-10.800603 -7.06048,-12.227276 l -32.24275,-8.639709 c 0.9465,-2.09721 1.43564,-4.371937 1.43489,-6.672877 0,-8.951086 -7.25558,-16.207375 -16.20579,-16.207371 z"
       transform="translate(-69.773871,-65.477887)"
       inkscape:original-d="M 109.45411,23.24 A 16.207368,16.205782 89.995385 0 0 93.328514,37.839295 L 52.455338,26.886658 41.08175,69.336035 a 16.207368,16.205782 89.995385 0 1 0.917905,-0.02532 16.207368,16.205782 89.995385 0 1 16.205781,16.207369 16.207368,16.205782 89.995385 0 1 -16.20578,16.207376 16.207368,16.205782 89.995385 0 1 -8.885749,-2.65269 L 21.999865,140.5535 63.89645,151.78049 a 16.207368,16.205782 89.995385 0 1 -0.164587,-2.30239 16.207368,16.205782 89.995385 0 1 16.205778,-16.20736 16.207368,16.205782 89.995385 0 1 16.205789,16.20736 16.207368,16.205782 89.995385 0 1 -3.464837,10.01564 l 33.335797,8.93306 a 9.9843871,9.9834097 89.995385 0 0 12.22608,-7.05907 l 8.56501,-31.96735 a 16.207368,16.205782 89.995385 0 0 6.98875,1.58487 16.207368,16.205782 89.995385 0 0 16.20578,-16.20738 16.207368,16.205782 89.995385 0 0 -14.94604,-16.15882 l 8.47427,-31.631812 a 9.9843433,9.9833659 89.995385 0 0 -7.06048,-12.227276 l -32.24275,-8.639709 a 16.207368,16.205782 89.995385 0 0 1.43489,-6.672877 16.207368,16.205782 89.995385 0 0 -16.20579,-16.207371 z"
       inkscape:path-effect="#path-effect5" /><path
       d="M 14.806714,45.742718 C 8.6720493,32.118986 7.722735,18.643994 9.8180084,10.336149 11.063089,5.3993549 18.431118,4.7914887 21.460774,8.9923449 28.384701,18.592912 35.9786,35.905084 42.061897,44.511311 c 2.761309,3.906508 10.128108,1.660346 10.613988,-2.934752 1.03623,-9.799928 0.175538,-26.41573 -4.200946,-36.7775638"
       stroke="#000000"
       stroke-width="10"
       stroke-miterlimit="6"
       stroke-linecap="round"
       stroke-linejoin="round"
       id="path1"
       sodipodi:nodetypes="cccc"
       style="stroke-width:11.7809;stroke-dasharray:none"
       transform="translate(3.6180905)"
       inkscape:original-d="M 14.806714,45.742718 C 5.734989,25.596426 8.0023018,5.7753887 14.686109,2.5075375 25.893637,6.8658075 41.707249,54.586649 49.319161,49.240205 53.540808,52.929796 55.36544,21.113058 48.474939,4.7989952"
       inkscape:path-effect="#path-effect9" /></g></svg>
