<svg width="192" height="192" viewBox="0 0 192 192" fill="none" xmlns="http://www.w3.org/2000/svg"><path d="M24 28a4 4 0 1 0 0-8 4 4 0 0 0 0 8Zm120 0a4 4 0 1 0 0-8 4 4 0 0 0 0 8ZM24 76a4 4 0 1 0 0-8 4 4 0 0 0 0 8Zm120 0a4 4 0 1 0 0-8 4 4 0 0 0 0 8ZM24 100a4 4 0 1 0 0-8 4 4 0 0 0 0 8Zm120 0a4 4 0 1 0 0-8 4 4 0 0 0 0 8ZM24 52a4 4 0 1 0 0-8 4 4 0 0 0 0 8Zm120 0a4 4 0 1 0 0-8 4 4 0 0 0 0 8ZM24 124a4 4 0 1 0 0-8 4 4 0 0 0 0 8Zm120 0a4 4 0 1 0 0-8 4 4 0 0 0 0 8ZM24 148a4 4 0 1 0 0-8 4 4 0 0 0 0 8Zm120 0a4 4 0 1 0 0-8 4 4 0 0 0 0 8ZM24 172a4 4 0 1 0 0-8 4 4 0 0 0 0 8Zm120 0a4 4 0 1 0 0-8 4 4 0 0 0 0 8ZM48 28a4 4 0 1 0 0-8 4 4 0 0 0 0 8Zm120 0a4 4 0 1 0 0-8 4 4 0 0 0 0 8ZM48 76a4 4 0 1 0 0-8 4 4 0 0 0 0 8Zm120 0a4 4 0 1 0 0-8 4 4 0 0 0 0 8ZM48 100a4 4 0 1 0 0-8 4 4 0 0 0 0 8Zm120 0a4 4 0 1 0 0-8 4 4 0 0 0 0 8ZM48 52a4 4 0 1 0 0-8 4 4 0 0 0 0 8Zm120 0a4 4 0 1 0 0-8 4 4 0 0 0 0 8Zm-96 0a4 4 0 1 0 0-8 4 4 0 0 0 0 8Zm0 24a4 4 0 1 0 0-8 4 4 0 0 0 0 8Zm24 0a4 4 0 1 0 0-8 4 4 0 0 0 0 8Zm0 24a4 4 0 1 0 0-8 4 4 0 0 0 0 8Zm24 0a4 4 0 1 0 0-8 4 4 0 0 0 0 8Zm0 24a4 4 0 1 0 0-8 4 4 0 0 0 0 8Zm-72 0a4 4 0 1 0 0-8 4 4 0 0 0 0 8Zm120 0a4 4 0 1 0 0-8 4 4 0 0 0 0 8ZM48 148a4 4 0 1 0 0-8 4 4 0 0 0 0 8Zm120 0a4 4 0 1 0 0-8 4 4 0 0 0 0 8ZM48 172a4 4 0 1 0 0-8 4 4 0 0 0 0 8Zm120 0a4 4 0 1 0 0-8 4 4 0 0 0 0 8Z" stroke="#000" stroke-width="8" stroke-linecap="round" stroke-linejoin="round"/></svg>