<svg xmlns="http://www.w3.org/2000/svg" width="192" height="192" fill="none" viewBox="0 0 192 192"><path stroke="#000" stroke-linecap="round" stroke-linejoin="round" stroke-width="8" d="M24 28a4 4 0 1 0 0-8 4 4 0 0 0 0 8m120 0a4 4 0 1 0 0-8 4 4 0 0 0 0 8M24 76a4 4 0 1 0 0-8 4 4 0 0 0 0 8m120 0a4 4 0 1 0 0-8 4 4 0 0 0 0 8M24 100a4 4 0 1 0 0-8 4 4 0 0 0 0 8m120 0a4 4 0 1 0 0-8 4 4 0 0 0 0 8M24 52a4 4 0 1 0 0-8 4 4 0 0 0 0 8m120 0a4 4 0 1 0 0-8 4 4 0 0 0 0 8M24 124a4 4 0 1 0 0-8 4 4 0 0 0 0 8m120 0a4 4 0 1 0 0-8 4 4 0 0 0 0 8M24 148a4 4 0 1 0 0-8 4 4 0 0 0 0 8m120 0a4 4 0 1 0 0-8 4 4 0 0 0 0 8M24 172a4 4 0 1 0 0-8 4 4 0 0 0 0 8m120 0a4 4 0 1 0 0-8 4 4 0 0 0 0 8M48 28a4 4 0 1 0 0-8 4 4 0 0 0 0 8m120 0a4 4 0 1 0 0-8 4 4 0 0 0 0 8M48 76a4 4 0 1 0 0-8 4 4 0 0 0 0 8m120 0a4 4 0 1 0 0-8 4 4 0 0 0 0 8M48 100a4 4 0 1 0 0-8 4 4 0 0 0 0 8m120 0a4 4 0 1 0 0-8 4 4 0 0 0 0 8M48 52a4 4 0 1 0 0-8 4 4 0 0 0 0 8m120 0a4 4 0 1 0 0-8 4 4 0 0 0 0 8m-96 0a4 4 0 1 0 0-8 4 4 0 0 0 0 8m0 24a4 4 0 1 0 0-8 4 4 0 0 0 0 8m24 0a4 4 0 1 0 0-8 4 4 0 0 0 0 8m0 24a4 4 0 1 0 0-8 4 4 0 0 0 0 8m24 0a4 4 0 1 0 0-8 4 4 0 0 0 0 8m0 24a4 4 0 1 0 0-8 4 4 0 0 0 0 8m-72 0a4 4 0 1 0 0-8 4 4 0 0 0 0 8m120 0a4 4 0 1 0 0-8 4 4 0 0 0 0 8M48 148a4 4 0 1 0 0-8 4 4 0 0 0 0 8m120 0a4 4 0 1 0 0-8 4 4 0 0 0 0 8M48 172a4 4 0 1 0 0-8 4 4 0 0 0 0 8m120 0a4 4 0 1 0 0-8 4 4 0 0 0 0 8"/></svg>