<svg xmlns="http://www.w3.org/2000/svg" width="192" height="192" fill="none" stroke="#000" stroke-linecap="round" stroke-linejoin="round" viewBox="0 0 192 192"><path stroke-width="10" d="M85.444 72.06A16 16 0 0 0 69.99 98.828m28.838 23.183a15.999 15.999 0 0 1-26.768-15.455m47.88-21.112a15.998 15.998 0 0 0-26.768-15.455m28.839 23.183a15.996 15.996 0 0 1-15.455 26.768M94.549 67.401l-7.867-6.174-3.725 9.28m41.642 24.042 6.174-7.867-9.28-3.725m-12.45 38.536-3.725 9.28-7.867-6.174m-26.944-15.557-9.28-3.725 6.174-7.866"/><path stroke-width="12" d="M42.38 51.005a70 70 0 0 1 42.974-24.19L140.004 22l23.204 54.412c4.752 16.304 3.325 33.979-3.852 49.371L170 141.5h-20.805a70 70 0 0 1-42.546 23.685L52 170l-23.203-54.412a70 70 0 0 1 3.715-49.071L22 51h20.384"/></svg>