<svg xmlns="http://www.w3.org/2000/svg" width="192" height="192" fill="none"><g stroke="#000" stroke-linecap="round" stroke-width="12" clip-path="url(#a)"><path d="M22 150h148"/><path stroke-linejoin="round" d="M79.102 124c3.988-17.497-3.49-28.495 1.994-35.994 9.472-.5 19.442 29.495 31.904 35.994-2.991-22.496 0-35.994 0-35.994"/><path d="M166 128a69.99 69.99 0 0 0-43.212-64.672A70 70 0 0 0 26 128"/><path d="M115.924 58.743a20 20 0 0 0-5.226-15.306A20 20 0 0 0 95.86 37a20 20 0 0 0-19.758 22.02"/></g><defs><clipPath id="a"><path fill="#fff" d="M0 0h192v192H0z"/></clipPath></defs></svg>