<svg width="192" height="192" fill="none" xmlns="http://www.w3.org/2000/svg"><g clip-path="url(#nesnezeno__a)" stroke="#000" stroke-width="12" stroke-linecap="round"><path d="M22 150h148"/><path d="M79.102 124c3.988-17.497-3.49-28.495 1.994-35.994 9.472-.5 19.442 29.495 31.904 35.994-2.991-22.496 0-35.994 0-35.994" stroke-linejoin="round"/><path d="M166 128a69.992 69.992 0 0 0-43.212-64.672A70 70 0 0 0 26 128"/><path d="M115.924 58.743a19.993 19.993 0 0 0-5.226-15.306A19.994 19.994 0 0 0 95.86 37a20 20 0 0 0-19.758 22.02"/></g><defs><clipPath id="nesnezeno__a"><path fill="#fff" d="M0 0h192v192H0z"/></clipPath></defs></svg>