<svg xmlns="http://www.w3.org/2000/svg" width="192" height="192" fill="none" stroke="#000" stroke-linecap="round" stroke-linejoin="round" stroke-width="10" viewBox="0 0 192 192"><path d="M144.106 141.588v-20.705h-5.384c-1.731 0-2.645-2.05-1.488-3.338l16.039-17.839 14.898 17.897c1.085 1.303.158 3.28-1.537 3.28h-5.605v20.705a4 4 0 0 1-4 4h-8.923a4 4 0 0 1-4-4zm-33.695-12.47v20.706h-5.384c-1.731 0-2.645 2.05-1.487 3.337L119.578 171l14.899-17.897c1.084-1.303.158-3.279-1.538-3.279h-5.604v-20.706a4 4 0 0 0-4-4h-8.924a4 4 0 0 0-4 4zm-55.76-87.731h9.621V22.125H45.03v19.262h9.621zV53.77h-21.99v12.383M54.65 53.77h21.991v12.383m-43.981 0h-9.622v19.262H42.28V66.153h-9.62zm43.981 0h-9.62v19.262h19.241V66.153h-9.62z"/><path stroke-width="8" d="m129.092 54.79-19.375 18.375m19.375-20.415-19.375-19.396"/><path d="M167.941 53.77c0 18.103-14.659 32.77-32.73 32.77-18.072 0-32.731-14.667-32.731-32.77S117.139 21 135.211 21c18.071 0 32.73 14.667 32.73 32.77z"/><path stroke-width="4" d="M137.289 53.77a2.08 2.08 0 0 1-2.078 2.083 2.08 2.08 0 0 1-2.079-2.083 2.08 2.08 0 0 1 2.079-2.083 2.08 2.08 0 0 1 2.078 2.083z"/><path d="M150.605 53.77c0 8.519-6.897 15.416-15.394 15.416-8.498 0-15.395-6.897-15.395-15.416 0-8.52 6.897-15.416 15.395-15.416 8.497 0 15.394 6.897 15.394 15.416zM69.498 165.674a33.49 33.49 0 0 1-14.847 3.447C36.066 169.121 21 154.039 21 135.435a33.575 33.575 0 0 1 3.619-15.214m60.707 29.085a33.601 33.601 0 0 0 2.977-13.871c0-18.605-15.067-33.687-33.652-33.687-4.205 0-8.23.772-11.94 2.182"/><path d="M63.093 152.63a19.042 19.042 0 0 1-8.442 1.96c-10.568 0-19.135-8.576-19.135-19.155 0-3.113.742-6.053 2.058-8.651m34.52 16.538a19.103 19.103 0 0 0 1.692-7.887c0-10.58-8.567-19.156-19.135-19.156-2.39 0-4.68.439-6.79 1.241"/><ellipse cx="54.651" cy="136.756" stroke-width="6" rx="4.619" ry="4.624"/></svg>