<?xml version="1.0" encoding="utf-8"?>
	<svg version="1.1" xmlns="http://www.w3.org/2000/svg" xmlns:xlink="http://www.w3.org/1999/xlink" x="0px" y="0px" width="240.0" height="240.0" xml:space="preserve">
		<path d="M120.051,131.668C124.858,131.561 129.225,132.977 132.992,135.891C160.53,157.197 188.026,178.555 215.542,199.889C219.382,202.865 220.751,206.838 219.611,211.4C218.485,215.907 215.244,218.515 210.649,219.264C207.225,219.822 204.386,218.417 201.758,216.373C185.396,203.647 169.016,190.944 152.653,178.219C142.643,170.435 132.609,162.685 122.695,154.782C120.68,153.175 119.389,153.156 117.338,154.755C91.229,175.114 65.038,195.367 38.892,215.681C36.122,217.834 33.288,219.645 29.591,219.21C25.154,218.688 21.411,215.698 20.402,211.598C19.267,206.984 20.521,203.025 24.336,200.047C31.793,194.227 39.278,188.443 46.746,182.638C66.452,167.322 86.165,152.015 105.852,136.675C110.046,133.407 114.683,131.539 120.051,131.668ZM46.111,23.539C52.513,28.903 58.669,34.561 64.906,40.121C82.266,55.596 99.614,71.085 116.97,86.564C117.861,87.359 118.789,88.114 119.967,89.113C129.253,80.837 138.272,72.809 147.278,64.767C162.298,51.357 177.297,37.924 192.331,24.53C199.382,18.248 208.959,20.814 211.083,29.562C212.141,33.919 210.49,37.465 207.258,40.345C199.366,47.377 191.448,54.38 183.538,61.392C167.717,75.417 151.887,89.431 136.077,103.469C125.679,112.702 114.241,112.7 103.874,103.484L80.994,83.156L80.994,83.156L35.22,42.518L35.22,42.518C34.165,41.582 33.1,40.656 32.096,39.668C27.736,35.385 27.377,29.15 31.21,24.726C34.99,20.363 41.48,19.657 46.111,23.539Z" fill="#000" stroke="#00000000" stroke-width="1.0" stroke-miterlimit=""/>
	</svg>
