<svg xmlns="http://www.w3.org/2000/svg" width="192" height="192" fill="none"><path stroke="#000" stroke-linecap="round" stroke-linejoin="round" stroke-width="12" d="M145.103 43.316v79.196L49.246 38.069A8.28 8.28 0 0 0 43.77 36H29.296c-1.935 0-3.79.77-5.16 2.143A7.33 7.33 0 0 0 22 43.316v105.368a7.34 7.34 0 0 0 2.137 5.173A7.27 7.27 0 0 0 29.296 156H39.6a7.27 7.27 0 0 0 5.16-2.143 7.34 7.34 0 0 0 2.137-5.173V69.488l95.856 84.443A8.3 8.3 0 0 0 148.23 156h14.474a7.3 7.3 0 0 0 5.159-2.143 7.33 7.33 0 0 0 2.137-5.173V43.316a7.32 7.32 0 0 0-4.504-6.759 7.3 7.3 0 0 0-2.792-.557h-10.305c-1.935 0-3.791.77-5.159 2.143a7.32 7.32 0 0 0-2.137 5.173"/></svg>