<?xml version="1.0" encoding="UTF-8" standalone="no"?>
<!-- Created with Inkscape (http://www.inkscape.org/) -->

<svg
   width="192"
   height="192"
   viewBox="0 0 192 192"
   version="1.1"
   xml:space="preserve"
   xmlns="http://www.w3.org/2000/svg"
   xmlns:svg="http://www.w3.org/2000/svg"
   style="fill:none;stroke:#000;stroke-width:12;stroke-linecap:round;stroke-linejoin:round">
  <path
   d="M 143.11216,45.588239 V 121.36799 L 51.141625,40.568267 A 7.9601505,7.9601505 20.650287 0 0 45.887852,38.588239 H 32 A 7,7 135 0 0 25,45.588239 V 146.41176 A 7,7 45 0 0 32,153.41176 L 41.887852,153.41176 A 7,7 135 0 0 48.887852,146.41176 V 70.632015 L 140.85839,151.43173 A 7.9601509,7.9601509 20.650286 0 0 146.11216,153.41176 H 160 A 7,7 135 0 0 167,146.41176 V 45.588239 A 7,7 45 0 0 160,38.588239 H 150.11216 A 7,7 135 0 0 143.11216,45.588239 Z" />
</svg>
