<?xml version="1.0" encoding="UTF-8" standalone="no"?>
<!-- Created with Inkscape (http://www.inkscape.org/) -->

<svg
   width="192"
   height="192"
   viewBox="0 0 192 192"
   version="1.1"
   xml:space="preserve"
   xmlns="http://www.w3.org/2000/svg"
   xmlns:svg="http://www.w3.org/2000/svg">
  <path
       style="fill:none;stroke:#000000;stroke-width:12;stroke-linecap:round;stroke-linejoin:round;stroke-dasharray:none;stroke-opacity:1"
       d="M 145.10281,44.11765 145.10281,114.45964 A 3.6187122,3.6187122 155.6609 0 1 139.09471,117.17734 L 52.9053,41.399951 A 21.215155,21.215155 20.660904 0 0 38.897197,36.11765 H 29.999999 A 8,8 135 0 0 21.999999,44.11765 V 147.88235 A 8,8 45 0 0 29.999999,155.88235 H 38.897197 A 8,8 135 0 0 46.897197,147.88235 V 77.54036 A 3.6187122,3.6187122 155.6609 0 1 52.9053,74.822661 L 139.09471,150.60005 A 21.215155,21.215155 20.660904 0 0 153.10281,155.88235 H 162 A 8,8 135 0 0 170,147.88235 V 44.11765 A 8,8 45 0 0 162,36.11765 H 153.10281 A 8,8 135 0 0 145.10281,44.11765 Z" />
</svg>
