<svg width="192" height="192" fill="none" xmlns="http://www.w3.org/2000/svg"><path d="M145.103 43.316v79.196L49.246 38.069A8.284 8.284 0 0 0 43.77 36H29.296c-1.935 0-3.79.77-5.16 2.143A7.326 7.326 0 0 0 22 43.316v105.368a7.335 7.335 0 0 0 2.137 5.173A7.274 7.274 0 0 0 29.296 156H39.6a7.272 7.272 0 0 0 5.16-2.143 7.335 7.335 0 0 0 2.137-5.173V69.488l95.856 84.443A8.286 8.286 0 0 0 148.23 156h14.474a7.286 7.286 0 0 0 5.159-2.143 7.326 7.326 0 0 0 2.137-5.173V43.316a7.316 7.316 0 0 0-4.504-6.759 7.277 7.277 0 0 0-2.792-.557h-10.305c-1.935 0-3.791.77-5.159 2.143a7.322 7.322 0 0 0-2.137 5.173Z" stroke="#000" stroke-width="12" stroke-linecap="round" stroke-linejoin="round"/></svg>