<svg xmlns="http://www.w3.org/2000/svg" xml:space="preserve" viewBox="0 0 192 192"><path fill="none" stroke="#000" stroke-linecap="round" stroke-linejoin="round" stroke-miterlimit="10" stroke-width="12" d="M139.3 28.1s-2.7-3.1-7.5-4.9c-4.5-1.7-9.9-1.4-13.1-.3-2.4.8-5 2.3-6.8 4.3-1.9 2.2-2.8 5.1-3 7-.3 3.5-.2 5.2 0 7.6 1 11.1 4.9 24.2 5.6 27.4.9 4 7.7 21.7 7.9 32.3.1 4.6-1.8 10.1-4.2 13.5-2.3 3.4-7.3 7.7-13.6 9.3-5.1 1.3-15.5 1.5-22.9-5.1-7.6-6.8-12.2-18.1-9.3-30.2 2.8-12 12.7-20.3 24.4-25.7 9.6-4.5 30.4-7.6 46 5.9 13.9 12 22.6 34.9 19.2 53.4-4.3 23-20.2 36.8-42.4 44.5-8.4 2.9-39.8 8.8-67.7-14.4-25.8-21.5-26.7-55.9-19.1-77.2C41.5 52 61.8 40 71.6 37"/></svg>