<svg xmlns="http://www.w3.org/2000/svg" width="192" height="192" viewBox="0 0 192 192"><path fill="none" stroke="#000" stroke-linecap="round" stroke-linejoin="round" stroke-width="12" d="M139.4 29.3s-10.7-6.6-16.2-7.2-10.3 1.6-13.4 4.6c-2 1.9-4 5.5-4.5 8.7-.5 3.6-.2 6.4.7 10 2.7 11.9 8.6 27.8 13.2 52.1 2.6 13.5-5.3 21.7-15.9 25.1-5.5 1.8-13.8.6-20.5-5.4-6.9-6.2-9.3-17.7-7.3-26.3C78 79.9 86 71.2 96.7 66.2c8.8-4.1 25.8-7.3 41.6 2.9 17.7 11.5 25.7 30.6 22.4 52-3.2 21.1-17.9 37-37.9 44.7-11.1 4.3-40.1 10-65.6-10-27.5-23.2-30.7-56.4-22.7-76.3C43.8 56 58.6 42.6 76.2 36.7"/></svg>