<svg width="192" height="192" viewBox="0 0 192 192" fill="none" xmlns="http://www.w3.org/2000/svg">
<path d="M82 96V166C82 168.209 80.2091 170 78 170H54C51.7909 170 50 168.209 50 166V26C50 23.7909 51.7909 22 54 22H66" stroke="black" stroke-width="12" stroke-linejoin="round"/>
<path d="M79.3718 22H56.0877C53.2104 22 51.2743 24.9467 52.4163 27.5876L112.957 167.588C113.59 169.052 115.033 170 116.628 170H139.912C142.79 170 144.726 167.053 143.584 164.412L83.0432 24.4124C82.41 22.948 80.9671 22 79.3718 22Z" stroke="black" stroke-width="12" stroke-linejoin="round"/>
<path d="M114 96V26C114 23.7909 115.791 22 118 22H142C144.209 22 146 23.7909 146 26V166C146 168.209 144.209 170 142 170H130" stroke="black" stroke-width="12" stroke-linejoin="round"/>
</svg>
