<svg xmlns="http://www.w3.org/2000/svg" width="192" height="192" fill="none"><path stroke="#000" stroke-linecap="round" stroke-linejoin="round" stroke-width="12" d="M170 170s-64-31-148-14m85-49c-1-9 0-24 0-24l26-3 11 19-4 4c12 12 30 19 30 19-14 6-21 18-21 18-13-20-41-24-42-33"/><path stroke="#000" stroke-linecap="round" stroke-linejoin="round" stroke-width="12" d="M98.42 152.318c-10-31-24-32-34-40-10-7.999-14-21-5-30C73.42 68.318 108 84 108 84S92.42 53.318 60.92 57.318c-13 2-27.5 9-31.5 37s22 29 17.014 57.14"/><path stroke="#000" stroke-linecap="round" stroke-linejoin="round" stroke-width="10" d="M123 62C85 28 63 21 41 21m-20 81 10-10m-8-15s6-5 13-4m-2-18.84S45 51 53 59m9-16s8 5 12 13.93"/></svg>