<svg xmlns="http://www.w3.org/2000/svg" width="192" height="192" fill="none" viewBox="0 0 192 192"><path stroke="#000" stroke-linecap="round" stroke-linejoin="round" stroke-width="12" d="M128 22a63.994 63.994 0 0 1-11.049 115.899M64 22a64 64 0 0 0 11.049 115.899M113.5 47.115a35.015 35.015 0 0 1-6.97 63.689M78.5 47.114a35 35 0 0 0 6.97 63.69M96 83.426a6.002 6.002 0 0 0 4.243-10.243A6.002 6.002 0 0 0 90 77.426a6 6 0 0 0 6 6m0 0-10.53 27.378M96 83.426l10.53 27.378m-21.06 0-10.421 27.095m31.481-27.095 10.421 27.095m0 0L126 161.426S120 170 96 170s-30-8.574-30-8.574l9.049-23.527"/></svg>