<svg width="192" height="192" fill="none" xmlns="http://www.w3.org/2000/svg"><path d="m68.589 169.992 4.793-20.517m50.029 20.517-11.905-50.954M86.504 93.316l4.37-18.706h10.251l6.7 28.675m-21.321-9.97 21.321 9.97m-21.321-9.97-8.58 36.721m29.901-26.751 3.681 15.753m-33.582 10.998 33.582-10.998m-33.582 10.998-4.542 19.439m0 0L120.375 157" stroke="#000" stroke-width="12" stroke-linecap="round" stroke-linejoin="round"/><circle cx="96" cy="48.034" r="6" stroke="#000" stroke-width="10"/><path d="M119.029 35.034c4.036 6.99 4.103 18.893 0 26M134.109 22c11.094 20.024 11.327 32.5 0 52.067M57.892 22c-11.094 20.024-11.327 32.5 0 52.067m15.08-39.033c-4.036 6.99-4.103 18.893 0 26" stroke="#000" stroke-width="12" stroke-linecap="round" stroke-linejoin="round"/></svg>