<svg xmlns="http://www.w3.org/2000/svg" width="192" height="192" fill="none"><path stroke="#000" stroke-linecap="round" stroke-linejoin="round" stroke-width="12" d="M72 46v92m48-92v76m48-26v42M24 72v66m96-92a24.003 24.003 0 0 0-24-24 24 24 0 0 0-24 24m96 50a24.003 24.003 0 0 0-24-24 24 24 0 0 0-24 24M72 72a24 24 0 0 0-48 0"/><path stroke="#000" stroke-linecap="round" stroke-linejoin="round" stroke-width="10" d="M71 97a23 23 0 0 0-46 0m94-26a23 23 0 0 0-23-23 23 23 0 0 0-23 23"/><path stroke="#000" stroke-linecap="round" stroke-linejoin="round" stroke-width="12" d="M72 138a24.001 24.001 0 0 0 40.971 16.971"/><circle cx="140" cy="142" r="28" stroke="#000" stroke-linecap="round" stroke-linejoin="round" stroke-width="12"/><path stroke="#000" stroke-linecap="round" stroke-linejoin="round" stroke-width="12" d="M24 138a24 24 0 0 0 24 24 24.003 24.003 0 0 0 24-24"/><path stroke="#000" stroke-linecap="round" stroke-linejoin="round" stroke-width="10" d="M134 139s2-3 6-3 6 3 6 3l-6 9z"/></svg>