<?xml version="1.0" encoding="UTF-8" standalone="no"?>
<svg
   viewBox="0 0 64 64"
   width="24px"
   height="24px"
   version="1.1"
   id="svg16"
   sodipodi:docname="network_cell_info.svg"
   inkscape:version="1.1.1 (3bf5ae0d25, 2021-09-20)"
   xmlns:inkscape="http://www.inkscape.org/namespaces/inkscape"
   xmlns:sodipodi="http://sodipodi.sourceforge.net/DTD/sodipodi-0.dtd"
   xmlns:xlink="http://www.w3.org/1999/xlink"
   xmlns="http://www.w3.org/2000/svg"
   xmlns:svg="http://www.w3.org/2000/svg">
  <defs
     id="defs20">
    <clipPath
       id="SVGID_8_">
      <use
         xlink:href="#SVGID_7_"
         style="overflow:visible"
         id="use43"
         x="0"
         y="0"
         width="100%"
         height="100%" />
    </clipPath>
    <path
       id="SVGID_7_"
       d="m -324,-0.6 66.8,-48.8 c 5.8,-4.8 10.3,-3.6 10.3,5.1 v 148.8 c 0,9.9 -5.5,8.7 -10.3,5.1 L -324,60.9 Z m -226,-43.3 v 111 c 0.1,25.1 20.6,45.3 45.6,45.2 h 161.8 c 4.6,0 8.3,-3.7 8.3,-8.2 v -111 c -0.1,-25.1 -20.6,-45.3 -45.6,-45.2 h -161.8 c -4.6,0 -8.3,3.7 -8.3,8.2 z" />
  </defs>
  <sodipodi:namedview
     id="namedview18"
     pagecolor="#ffffff"
     bordercolor="#666666"
     borderopacity="1.0"
     inkscape:pageshadow="2"
     inkscape:pageopacity="0.0"
     inkscape:pagecheckerboard="0"
     showgrid="false"
     inkscape:zoom="13.907613"
     inkscape:cx="-2.9839772"
     inkscape:cy="20.815937"
     inkscape:window-width="1920"
     inkscape:window-height="1009"
     inkscape:window-x="-8"
     inkscape:window-y="-8"
     inkscape:window-maximized="1"
     inkscape:current-layer="svg16"
     showguides="false" />
  <linearGradient
     id="AQp1CkUOovhRSREXJZOJma"
     x1="32.005"
     x2="32.005"
     y1="17"
     y2="53"
     gradientUnits="userSpaceOnUse"
     spreadMethod="reflect">
    <stop
       offset="0"
       stop-color="#1a6dff"
       id="stop2" />
    <stop
       offset="1"
       stop-color="#c822ff"
       id="stop4" />
  </linearGradient>
  <linearGradient
     id="AQp1CkUOovhRSREXJZOJmb"
     x1="29.93"
     x2="29.93"
     y1="19"
     y2="41.8"
     gradientUnits="userSpaceOnUse"
     spreadMethod="reflect">
    <stop
       offset="0"
       stop-color="#6dc7ff"
       id="stop9" />
    <stop
       offset="1"
       stop-color="#e6abff"
       id="stop11" />
  </linearGradient>
  <g
     id="path976"
     transform="matrix(0.31935053,0,0,0.31935053,-17.047139,25.019809)"
     style="stroke-width:3.13136">
    <path
       style="color:#000000;fill:#000000;stroke-width:16.7006;stroke-linecap:round;stroke-linejoin:round;-inkscape-stroke:none;paint-order:markers fill stroke"
       d="M 175.06,21.858532 A 21.47505,21.47505 0 0 1 153.58495,43.333582 21.47505,21.47505 0 0 1 132.1099,21.858532 21.47505,21.47505 0 0 1 153.58495,0.38348198 21.47505,21.47505 0 0 1 175.06,21.858532 Z"
       id="path1877" />
    <path
       style="color:#000000;fill:#000000;stroke-width:3.13136;stroke-linecap:round;stroke-linejoin:round;-inkscape-stroke:none;paint-order:markers fill stroke"
       d="m 153.58398,-2.2832031 c -13.3015,0 -24.14062,10.841076 -24.14062,24.1425781 0,13.301502 10.83912,24.140625 24.14062,24.140625 13.30151,0 24.14258,-10.839123 24.14258,-24.140625 0,-13.3015021 -10.84107,-24.1425781 -24.14258,-24.1425781 z m 0,5.3339844 c 10.41916,0 18.8086,8.3894347 18.8086,18.8085937 0,10.419159 -8.38944,18.806641 -18.8086,18.806641 -10.41916,0 -18.80664,-8.387482 -18.80664,-18.806641 0,-10.419159 8.38748,-18.8085937 18.80664,-18.8085937 z"
       id="path1879" />
  </g>
  <path
     style="color:#000000;opacity:1;fill:#000000;stroke-width:1;stroke-linecap:square;stroke-linejoin:round;-inkscape-stroke:none;paint-order:markers fill stroke"
     d="m 19.982773,20.256 -1.502566,2.066423 c -4.167493,5.729488 -4.260928,13.491681 -0.232031,19.319459 l 1.453294,2.101352 4.202704,-2.905341 -1.452671,-2.101976 C 19.646459,34.678435 19.710888,29.31661 22.612427,25.327561 l 1.50257,-2.065799 z"
     id="circle1058" />
  <path
     style="color:#000000;opacity:1;fill:#000000;stroke-width:1;stroke-linecap:square;stroke-linejoin:round;-inkscape-stroke:none;paint-order:markers fill stroke"
     d="m 13.016732,13.345333 -1.622326,1.972863 C 3.4790286,24.943924 3.2979236,38.810991 10.959665,48.639804 l 1.570556,2.014653 4.029931,-3.141112 -1.570557,-2.015276 C 8.7803946,37.532639 8.9260046,26.36494 15.340756,18.564095 l 1.622949,-1.973487 z"
     id="circle1098" />
  <path
     style="color:#000000;opacity:1;fill:#000000;stroke-width:1;stroke-linecap:square;stroke-linejoin:round;-inkscape-stroke:none;paint-order:markers fill stroke"
     d="m 44.01764,20.256 1.50257,2.066423 c 4.1675,5.729488 4.26093,13.491681 0.23203,19.319459 l -1.45329,2.101352 -4.20271,-2.905341 1.45267,-2.101976 c 2.80505,-4.057482 2.74062,-9.419307 -0.16092,-13.408356 l -1.50257,-2.065799 z"
     id="path1608" />
  <path
     style="color:#000000;opacity:1;fill:#000000;stroke-width:1;stroke-linecap:square;stroke-linejoin:round;-inkscape-stroke:none;paint-order:markers fill stroke"
     d="m 50.983271,13.345333 1.62232,1.972863 c 7.91538,9.625728 8.09648,23.492795 0.43474,33.321608 l -1.57117,2.014653 -4.02931,-3.141112 1.57056,-2.015276 c 6.20919,-7.96543 6.06358,-19.133129 -0.35117,-26.933974 l -1.62294,-1.973487 z"
     id="path1610" />
</svg>
