<svg width="192" height="192" viewBox="0 0 192 192" fill="none" xmlns="http://www.w3.org/2000/svg"><path d="M41 135a16.001 16.001 0 0 0-16 16" stroke="#000" stroke-width="12" stroke-linecap="round" stroke-linejoin="round"/><path d="M25 41c0-8.837 7.163-16 16-16h120a6 6 0 0 1 6 6v130a6 6 0 0 1-6 6H41c-8.837 0-16-7.163-16-16V41Zm142 94H41" stroke="#000" stroke-width="12" stroke-linecap="round" stroke-linejoin="round"/><path d="M115 90v13a6 6 0 0 1-6 6H83a6 6 0 0 1-6-6V90" stroke="#000" stroke-width="12" stroke-linecap="round" stroke-linejoin="round"/><path d="M77 90a16 16 0 1 1 4.336-31.401A15.997 15.997 0 0 1 96 49a16.002 16.002 0 0 1 14.664 9.599 15.997 15.997 0 0 1 19.118 9.278A15.998 15.998 0 0 1 115 90" stroke="#000" stroke-width="12" stroke-linecap="round" stroke-linejoin="round"/></svg>