<svg xmlns="http://www.w3.org/2000/svg" width="24" height="24" fill="none" viewBox="0 0 24 24"><path fill="#000" d="M22 12.018c-.008-1.65-1.328-2.985-2.96-2.993-1.18 0-2.192.723-2.667 1.74-.545-1.923-2.286-3.35-4.358-3.348-2.083 0-3.833 1.442-4.368 3.38C7.181 9.76 6.154 9.025 4.96 9.025c-1.632.008-2.953 1.343-2.96 2.99v.002c.007 1.648 1.328 2.983 2.96 2.991 1.193 0 2.22-.736 2.687-1.773.534 1.94 2.285 3.382 4.368 3.382 2.072 0 3.813-1.426 4.36-3.35.473 1.02 1.485 1.741 2.664 1.741 1.633-.006 2.954-1.342 2.961-2.99ZM4.96 13.252h-.013c-.668 0-1.21-.547-1.21-1.223v-.013c0-.694.537-1.236 1.223-1.236.685 0 1.223.542 1.223 1.236 0 .693-.537 1.235-1.223 1.236Zm7.055 1.608h-.013c-1.547 0-2.801-1.267-2.801-2.831v-.013c0-1.582 1.25-2.845 2.814-2.845 1.565 0 2.815 1.263 2.815 2.845 0 1.581-1.25 2.844-2.815 2.844Zm7.024-1.608h-.012c-.669 0-1.21-.547-1.21-1.223v-.013c0-.694.536-1.236 1.222-1.236.686 0 1.223.542 1.223 1.236 0 .693-.537 1.236-1.223 1.236Z"/></svg>