<?xml version="1.0" encoding="UTF-8" standalone="no"?>
<!-- Created with Inkscape (http://www.inkscape.org/) -->

<svg
   width="192"
   height="192"
   viewBox="0 0 50.800001 50.800001"
   version="1.1"
   id="svg21311"
   xml:space="preserve"
   inkscape:version="1.2.2 (b0a8486541, 2022-12-01)"
   sodipodi:docname="nextcloud_photos.svg"
   xmlns:inkscape="http://www.inkscape.org/namespaces/inkscape"
   xmlns:sodipodi="http://sodipodi.sourceforge.net/DTD/sodipodi-0.dtd"
   xmlns="http://www.w3.org/2000/svg"
   xmlns:svg="http://www.w3.org/2000/svg"><sodipodi:namedview
     id="namedview21313"
     pagecolor="#ffffff"
     bordercolor="#000000"
     borderopacity="0.25"
     inkscape:showpageshadow="2"
     inkscape:pageopacity="0.0"
     inkscape:pagecheckerboard="0"
     inkscape:deskcolor="#d1d1d1"
     inkscape:document-units="mm"
     showgrid="true"
     inkscape:zoom="2.0390625"
     inkscape:cx="99.800766"
     inkscape:cy="66.452107"
     inkscape:window-width="2031"
     inkscape:window-height="1074"
     inkscape:window-x="26"
     inkscape:window-y="23"
     inkscape:window-maximized="0"
     inkscape:current-layer="layer1"
     showguides="true"><inkscape:grid
       dotted="false"
       originx="1.3229167"
       type="xygrid"
       id="grid2253"
       empspacing="3" /></sodipodi:namedview><defs
     id="defs21308" /><g
     inkscape:label="Layer 1"
     inkscape:groupmode="layer"
     id="layer1"><path
       style="fill:none;stroke:#000000;stroke-width:3.175;stroke-dasharray:none;stroke-opacity:1"
       d="m 16.475949,16.06737 c -2.185552,0 -3.957184,1.771632 -3.957184,3.957184 0,2.185551 1.771632,3.957184 3.957184,3.957184 2.185552,0 3.957184,-1.771633 3.957184,-3.957184 0,-2.185552 -1.771632,-3.957184 -3.957184,-3.957184 z"
       id="path522" /><path
       style="fill:none;stroke:#000000;stroke-width:3.175;stroke-dasharray:none;stroke-opacity:1;stroke-linejoin:round;stroke-linecap:round"
       d="m 9.3512151,12.900079 31.6574699,2e-5 v 13.19061 L 38.37056,23.452585 30.456193,34.005077 22.541825,26.090709 11.989333,36.643202 H 9.3512151 Z"
       id="path520" /><path
       style="fill:none;stroke:#000000;stroke-width:3.175;stroke-dasharray:none;stroke-opacity:1;stroke-linejoin:round;stroke-linecap:round"
       d="M 6.2314199,8.1204646 C 5.6626556,8.2306141 5.2312627,8.7926079 5.2414826,9.380376 v 32.037809 c 0,0.662359 0.6105224,1.261354 1.2599171,1.261354 H 44.298814 c 0.649542,-1.7e-5 1.25989,-0.600323 1.259917,-1.259911 V 9.8771412 C 45.557303,8.907943 44.797021,8.1162846 44.07419,8.1219018 Z"
       id="path3994" /></g></svg>
