<svg xmlns="http://www.w3.org/2000/svg" xml:space="preserve" id="图层_1" width="192" height="192" x="0" y="0" style="enable-background:new 0 0 192 192" version="1.1"><style>.st0{fill:none;stroke:#000;stroke-width:12;stroke-linecap:round;stroke-linejoin:round;stroke-miterlimit:10}</style><path d="M154.8 170H37.2c-2.7 0-5-2.2-5-5V27c0-2.8 2.2-5 5-5h117.6c2.7 0 5 2.2 5 5v138c0 2.8-2.2 5-5 5z" class="st0"/><path d="M89.1 60.3H114c3.4 0 5.8 3.3 4.8 6.5l-2.5 8.1c-1 3.2 1.4 6.5 4.8 6.5h0c4.4 0 6.7 5.4 3.5 8.5L93 121.5c-3.4 3.4-9.3.4-8.4-4.4l1.5-8.8c.5-3-1.8-5.8-4.9-5.8h-8.4c-3.7 0-6.1-3.9-4.4-7.2L84.6 63c.9-1.6 2.6-2.7 4.5-2.7z" class="st0"/></svg>