<svg width="192" height="192" viewBox="0 0 192 192" fill="none" xmlns="http://www.w3.org/2000/svg"><path d="M90.35 170c34.317-11.83 58.776-39.327 62.615-74.337a301.144 301.144 0 0 0-.271-45.64 9.64 9.64 0 0 0-9.365-8.98c-15.525-.478-33.567-3.065-47.511-16.801a7.786 7.786 0 0 0-10.933 0c-13.946 13.734-31.989 16.323-47.512 16.8a9.645 9.645 0 0 0-9.364 8.98 301.157 301.157 0 0 0-.275 45.64C31.573 130.674 56.032 158.17 90.35 170Z" stroke="#000" stroke-width="12" stroke-linecap="round" stroke-linejoin="round"/></svg>