<svg xmlns="http://www.w3.org/2000/svg" width="192" height="192" fill="none" viewBox="0 0 192 192"><path stroke="#000" stroke-linejoin="round" stroke-width="14" d="M96 169c34.127-11.83 58.45-39.327 62.268-74.337 1.059-15.198.969-27.456-.27-42.64a9.66 9.66 0 0 0-2.929-6.302 9.56 9.56 0 0 0-6.384-2.678c-15.439-.478-33.381-4.065-47.248-17.801A7.72 7.72 0 0 0 96.001 23a7.72 7.72 0 0 0-5.436 2.242c-13.869 13.734-31.812 17.323-47.25 17.8a9.57 9.57 0 0 0-6.38 2.68 9.67 9.67 0 0 0-2.93 6.3c-1.24 15.184-1.332 27.441-.275 42.64C37.548 129.674 61.872 157.17 96 169Z"/></svg>