<svg xmlns="http://www.w3.org/2000/svg" width="192" height="192" fill="none"><circle cx="96" cy="89" r="16" stroke="#000" stroke-linecap="round" stroke-linejoin="round" stroke-width="12"/><path stroke="#000" stroke-linecap="round" stroke-linejoin="round" stroke-width="12" d="m22 95 69.973-63.354a6 6 0 0 1 8.054 0L170 95h-20v59a6 6 0 0 1-6 6H48a6 6 0 0 1-6-6V95z"/><path stroke="#000" stroke-linecap="round" stroke-linejoin="round" stroke-width="12" d="M72 133h48a6 6 0 0 0 6-6v-10s-8-12-30-12-30 12-30 12v10a6 6 0 0 0 6 6"/></svg>