<svg xmlns="http://www.w3.org/2000/svg" width="192" height="192" fill="none" viewBox="0 0 192 192"><path stroke="#000" stroke-linecap="round" stroke-linejoin="round" stroke-width="12" d="M41 135a16 16 0 0 0-16 16"/><path stroke="#000" stroke-linecap="round" stroke-linejoin="round" stroke-width="12" d="M25 41c0-8.837 7.163-16 16-16h120a6 6 0 0 1 6 6v130a6 6 0 0 1-6 6H41c-8.837 0-16-7.163-16-16zm142 94H41"/><path stroke="#000" stroke-linecap="round" stroke-linejoin="round" stroke-width="12" d="M115 90v13a6 6 0 0 1-6 6H83a6 6 0 0 1-6-6V90"/><path stroke="#000" stroke-linecap="round" stroke-linejoin="round" stroke-width="12" d="M77 90a16 16 0 1 1 4.336-31.401 16 16 0 0 1 29.328 0 15.997 15.997 0 0 1 19.118 9.278A15.998 15.998 0 0 1 115 90"/></svg>