<svg xmlns="http://www.w3.org/2000/svg" width="192" height="192" fill="none"><path stroke="#000" stroke-linecap="round" stroke-linejoin="round" stroke-width="12" d="M118.762 48.4H47.239c-8.666 0-15.739 7.1-15.739 15.8v90c0 8.7 7.073 15.8 15.739 15.8h71.523c8.666 0 15.739-7.1 15.739-15.8v-90c0-8.7-7.073-15.8-15.739-15.8Z"/><path stroke="#000" stroke-linecap="round" stroke-linejoin="round" stroke-width="12" d="M57.5 46.8c.398-7.8-2.79-20.6 14.244-24.8h73.914c-3.686.1 13.049-.8 14.842 13.3v93.2c-.299 12-10.061 16.8-25.501 15.5M55.108 73.9h55.485M55.308 95.8h38.75M55.108 118.4h14.843M105.015 120.3l-8.666 13.3 15.241 1.5-11.157 15.2"/></svg>