<svg width="192" height="192" viewBox="0 0 192 192" fill="none" xmlns="http://www.w3.org/2000/svg"><circle cx="56" cy="96" r="5" stroke="#000" stroke-width="10" stroke-linecap="round" stroke-linejoin="round"/><circle cx="94" cy="96" r="5" stroke="#000" stroke-width="10" stroke-linecap="round" stroke-linejoin="round"/><path d="M98 64H28a6 6 0 0 0-6 6v52a6 6 0 0 0 6 6h70m30-64h36a6 6 0 0 1 6 6v52a6 6 0 0 1-6 6h-36m28-106h-18l-10 10-10-10h-18m56 148h-18l-10-10-10 10h-18m28-138v128" stroke="#000" stroke-width="12" stroke-linecap="round" stroke-linejoin="round"/></svg>