<svg width="192" height="192" viewBox="0 0 192 192" fill="none" xmlns="http://www.w3.org/2000/svg"><path d="M83 111V81l26 30V81" stroke="#000" stroke-width="12" stroke-linecap="round" stroke-linejoin="round"/><path d="M126 30H66a6 6 0 0 0-6 6v120a6 6 0 0 0 6 6h60a6 6 0 0 0 6-6V36a6 6 0 0 0-6-6Zm32.284 94.284a39.996 39.996 0 0 0 0-56.568M33.716 124.284a39.998 39.998 0 0 1 0-56.568m114.426 42.426a20 20 0 0 0 0-28.284M43.858 110.142a20 20 0 0 1 0-28.284" stroke="#000" stroke-width="12" stroke-linecap="round" stroke-linejoin="round"/></svg>