<?xml version="1.0" encoding="UTF-8" standalone="no"?>
<!-- Created with Inkscape (http://www.inkscape.org/) -->

<svg
   version="1.1"
   id="svg2"
   width="192"
   height="192"
   viewBox="0 0 192 192"
   sodipodi:docname="nfssee.png"
   xmlns:inkscape="http://www.inkscape.org/namespaces/inkscape"
   xmlns:sodipodi="http://sodipodi.sourceforge.net/DTD/sodipodi-0.dtd"
   xmlns="http://www.w3.org/2000/svg"
   xmlns:svg="http://www.w3.org/2000/svg">
  <defs
     id="defs6" />
  <sodipodi:namedview
     id="namedview4"
     pagecolor="#ffffff"
     bordercolor="#000000"
     borderopacity="0.25"
     inkscape:showpageshadow="2"
     inkscape:pageopacity="0.0"
     inkscape:pagecheckerboard="0"
     inkscape:deskcolor="#d1d1d1"
     showgrid="false" />
  <g
     inkscape:groupmode="layer"
     inkscape:label="Image"
     id="g8">
    <path
       style="fill:#000000;fill-opacity:0;stroke:#000000;stroke-width:8;stroke-linecap:round;stroke-linejoin:round;paint-order:stroke fill markers"
       d="m 115.9,171.637 c 7.08267,0 36.76,-30.82899 36.76,-76.637 0,-43.677965 -29.12986,-74.615 -36.76,-74.615 -7.63014,0 -13.046,5.46696 -13.046,11.29535 0,8.723516 27.53477,22.484375 27.53477,63.31965 0,44.0633 -27.53477,56.04883 -27.53477,64.87178 0,7.29158 5.96333,11.76522 13.046,11.76522 z"
       id="path252"
       sodipodi:nodetypes="zszsssz" />
    <path
       style="fill:#000000;fill-opacity:0;stroke:#000000;stroke-width:8;stroke-linecap:round;stroke-linejoin:round;stroke-dasharray:none;paint-order:stroke fill markers"
       d="m 70.887,127.95445 c 0,-8.17214 14.339695,-9.6687 14.339695,-32.95445 0,-19.557997 -14.339695,-23.565042 -14.339695,-31.289 0,-6.444917 4.5265,-10.696169 11.839,-10.696169 12.841367,0 24.06575,22.179609 24.06575,41.985169 0,28.1064 -16.829604,44.7126 -24.06575,44.7126 -6.106378,0 -11.839,-3.586 -11.839,-11.75815 z"
       id="path2489"
       sodipodi:nodetypes="zsssssz" />
    <path
       id="path2543"
       style="fill-opacity:0;stroke:#000000;stroke-width:8;stroke-linecap:round;stroke-linejoin:round;paint-order:stroke fill markers"
       d="M 61.76674,95.808525 A 11.136575,11.462713 0 0 1 50.630165,107.27124 11.136575,11.462713 0 0 1 39.49359,95.808525 11.136575,11.462713 0 0 1 50.630165,84.345812 11.136575,11.462713 0 0 1 61.76674,95.808525 Z" />
  </g>
</svg>
