<?xml version="1.0" encoding="utf-8"?>
	<svg version="1.1" xmlns="http://www.w3.org/2000/svg" xmlns:xlink="http://www.w3.org/1999/xlink" x="0px" y="0px" width="240.0" height="240.0" xml:space="preserve">
		<path d="M110.946,20.423L115.592,20L124.831,20L129.062,20.423L129.062,81.769L128.631,82.192L128.208,83.062L127.785,83.062L127.369,83.477L126.1,83.9L114.323,83.9L113.077,83.477L112.631,83.062L111.785,83.062L111.785,82.192L111.369,81.769L110.946,80.085L110.946,20.423ZM153.477,119.569L153.477,149.415L153.054,150.246L152.631,150.662L152.208,151.508L151.385,151.508L150.538,151.931L148.846,152.354L131.185,152.354L131.185,199.438L134.962,198.577L138.762,198.154L142.146,196.908L145.523,196.062L147.185,195.646L148.854,194.785L152.231,193.515L155.608,191.831L158.562,190.169L161.915,188.477L164.869,186.815L167.385,184.738L170.338,182.623L175.831,177.992L178.362,175.462L180.469,172.931L183.008,170.008L185.115,167.477L187.223,164.554L188.915,161.6L190.585,158.246L192.277,155.3L193.938,151.931L195.2,148.554L197.315,141.815L198.577,138.462L199,134.669L199.846,131.3L200.269,127.531L200.692,119.969L200.269,114.092L199.846,111.138L199.846,108.169L198.577,102.308L196.923,96.408L196.077,93.885L195.231,91.354L193.146,85.892L190.123,80.908L187.585,75.869L184.215,71.677L180.431,67.046L176.638,62.854L172.438,59.062L168.238,55.708L163.592,52.338L158.546,49.392L153.485,46.854L153.485,115.8L153.062,116.615L152.638,117.038L152.215,117.862L151.392,118.285L150.546,118.285L148.854,118.7L124.015,118.7L123.6,119.123L123.177,119.546L123.177,90.577L123.6,89.715L124.015,88.892L124.862,88.469L136.246,88.469L137.908,88.046L139.169,87.631L140.015,87.208L140.885,85.962L140.885,22.085L149.277,24.615L153.5,25.877L157.269,27.123L161.477,28.785L165.246,30.915L169.054,32.554L172.431,34.685L176.2,37.215L179.585,39.292L182.962,41.831L185.892,44.754L189.277,47.7L192.223,50.631L197.685,56.554L200.223,59.877L202.762,63.254L204.846,67.023L206.954,70.392L211.154,77.954L212.846,81.754L214.115,85.938L216.646,93.931L217.892,98.115L218.738,102.331L219.154,106.523L220,111.162L220,125.023L219.577,130.1L219.154,135.138L218.308,140.169L217.046,144.808L215.8,149.846L214.108,154.462L212.423,158.692L210.331,163.285L208.2,167.477L205.692,171.692L203.154,175.885L200.2,179.654L197.246,183.423L194.315,187.238L190.962,190.608L187.577,193.985L183.785,196.908L180.008,199.838L176.231,202.785L172.031,205.323L167.831,207.846L163.6,209.923L158.985,212.015L154.785,213.708L149.715,215.362L145.1,216.654L140.454,217.915L135.385,218.738L130.323,219.154L125.277,219.577L120.231,220L115.169,219.577L110.123,219.177L105.054,218.762L99.992,217.938L94.946,216.669L90.3,215.385L85.662,213.723L81.038,212.031L76.815,209.954L72.615,207.869L68.392,205.338L64.192,202.808L60.392,199.862L56.623,196.938L52.815,194.008L49.462,190.631L46.108,187.246L42.731,183.446L39.8,179.677L37.262,175.908L34.754,171.715L32.215,167.5L30.138,163.285L28,158.692L26.331,154.462L24.638,149.846L23.377,144.808L22.131,140.169L21.285,135.115L20.423,130.085L20,125L20,115.369L20.423,111.177L20.846,106.538L21.692,102.346L22.538,98.131L23.385,93.938L25.908,85.954L27.577,81.762L29.246,77.969L30.938,74.2L33.015,70.408L35.131,67.038L37.646,63.269L40.177,59.892L42.685,56.569L45.223,53.592L48.146,50.646L51.108,47.723L54.038,44.769L60.777,39.731L64.154,37.223L67.531,34.7L71.331,32.569L75.085,30.931L78.885,28.8L82.685,27.131L86.454,25.892L90.662,24.631L94.877,23.362L99.077,22.123L99.077,86L99.5,86.846L99.923,87.262L101.192,87.685L102.438,88.108L103.7,88.531L115.085,88.531L115.923,88.954L116.769,89.769L116.769,119.623L115.923,118.777L91.077,118.777L89.392,118.362L88.546,118.362L88.123,117.938L87.277,117.123L86.862,116.7L86.862,115.808L86.438,114.546L86.438,46.885L81.369,49.408L76.754,52.362L72.238,55.708L67.623,59.085L63.415,62.877L59.615,67.069L56.215,71.685L52.838,76.3L49.908,80.908L47.369,85.938L46.108,88.477L45.285,91.4L43.177,96.877L41.908,102.354L40.662,108.208L40.238,111.185L40.238,114.131L39.823,120.008L39.823,123.777L40.238,127.577L40.662,130.946L41.085,134.715L41.931,138.508L42.777,141.862L44.023,145.231L44.462,146.923L45.331,148.6L46.577,151.969L47.838,155.346L51.223,161.646L55.415,167.1L57.508,170.069L59.615,173L62.131,175.485L64.662,178.015L69.708,182.646L72.662,184.754L75.592,186.838L81.485,190.215L84.862,191.877L87.792,193.562L91.177,194.823L94.546,196.092L98.323,196.938L101.708,198.169L105.077,198.592L108.854,199.462L108.854,152.354L91.169,152.354L89.477,151.931L89.062,151.508L88.215,151.508L87.369,150.662L86.946,150.246L86.946,149.423L86.523,148.162L86.523,119.569L86.946,120.008L87.369,120.431L88.638,121.3L89.885,121.715L91.146,122.138L115.146,122.138L115.992,122.562L116.838,123.408L116.838,151.992L123.169,151.992L123.169,124.2L123.592,123.354L124.008,122.515L124.854,122.092L148.854,122.092L150.115,121.677L151.385,121.254L152.631,120.385L153.477,119.569Z" fill="#000" stroke="#00000000" stroke-width="1.0" stroke-miterlimit=""/>
	</svg>
