<svg width="192" height="192" fill="none" xmlns="http://www.w3.org/2000/svg"><path d="M108.571 115.783a82.31 82.31 0 0 0 .257-6.504c0-15.89-4.566-30.71-12.452-43.203m12.195 49.707c-1.71 21.572-11.854 40.755-27.116 54.217-18.477-4.696-34.24-16.244-44.455-31.796 18.733-15.535 30.674-39.048 30.674-65.364 0-13.863-3.313-26.948-9.188-38.5 15.694 6.355 28.933 17.546 37.89 31.736m12.195 49.707a79.63 79.63 0 0 0 14.556 17.033 79.28 79.28 0 0 0 24.587 14.765c-9.674-13.564-15.37-30.188-15.37-48.15 0-21.564 8.209-41.2 21.656-55.926C143.461 32.655 129.712 24.97 114.296 22a79.635 79.635 0 0 0-4.83 6.52 80.034 80.034 0 0 0-13.09 37.556" stroke="#000" stroke-width="12" stroke-linecap="round" stroke-linejoin="round"/></svg>