<svg xmlns="http://www.w3.org/2000/svg" width="192" height="192" fill="none"><path stroke="#000" stroke-linecap="round" stroke-linejoin="round" stroke-width="12" d="M38.325 151.725c-4.41-.175-8.017-1.382-10.838-3.623-.539-.428-1.821-1.712-2.252-2.253-1.144-1.439-1.922-2.839-2.44-4.392-1.597-4.781-.775-11.055 2.35-17.941 2.675-5.895 6.803-11.742 14.005-19.84C40.211 102.485 43.37 99 43.39 99c.008 0-.164.298-.38.662-1.873 3.136-3.476 6.831-4.349 10.029-1.402 5.133-1.233 9.537.496 12.953 1.192 2.353 3.236 4.391 5.535 5.517 4.024 1.972 9.915 2.135 17.11.477.495-.114 25.04-6.63 54.545-14.479L170 99.896s-68.548 29.343-104.137 44.562c-5.636 2.409-7.143 3.018-9.793 3.948-6.773 2.379-12.84 3.514-17.745 3.319"/><path stroke="#000" stroke-linecap="round" stroke-linejoin="round" stroke-width="10" d="m66.051 85.824 2.07-17.356a6 6 0 0 1 4.405-5.085l5.913-1.584c5.467-1.465 10.684 3.055 10.014 8.675l-.35 2.933a10 10 0 0 1-7.341 8.475l-.222.06m-14.49 3.882-2.55 21.389m2.551-21.39 14.489-3.881m0 0 8.074 18.542m20.557-46.92-3.498 29.326c-.768 6.443 5.214 11.626 11.482 9.946a11.01 11.01 0 0 0 8.081-9.328l4.219-35.379m15.183 37.343 5.102-42.778 16.148 37.084L170.99 37"/></svg>