<svg xmlns="http://www.w3.org/2000/svg" width="192" height="192" fill="none" viewBox="0 0 192 192"><path stroke="#000" stroke-linecap="round" stroke-linejoin="round" stroke-width="12" d="M164.728 155.213c-2.517 4.196-5.725 7.053-9.216 8.211-3.492 1.157-7.111.563-10.4-1.708s-6.101-6.115-8.078-11.049C135.056 145.734 134 139.933 134 134s1.056-11.734 3.034-16.667 4.789-8.779 8.078-11.049c3.289-2.271 6.908-2.865 10.4-1.708s6.699 4.015 9.216 8.211M121 104H85m-55 0v60m0-60 36 60m0-60v60m37-60v60M38.325 80.725c-4.41-.175-8.017-1.382-10.838-3.623-.539-.428-1.821-1.712-2.252-2.253-1.144-1.439-1.922-2.839-2.44-4.392-1.597-4.781-.775-11.055 2.35-17.941 2.675-5.895 6.803-11.742 14.005-19.84C40.211 31.485 43.37 28 43.39 28c.008 0-.164.298-.38.662-1.873 3.136-3.476 6.83-4.349 10.03-1.402 5.132-1.233 9.536.496 12.952 1.192 2.353 3.236 4.39 5.535 5.517 4.024 1.972 9.915 2.135 17.11.477.495-.114 25.04-6.63 54.545-14.48L170 28.897S101.452 58.24 65.863 73.458c-5.636 2.41-7.143 3.018-9.793 3.948-6.773 2.379-12.84 3.514-17.745 3.319"/></svg>