<svg xmlns="http://www.w3.org/2000/svg" width="192" height="192" fill="none"><path stroke="#000" stroke-linecap="round" stroke-linejoin="round" stroke-width="12" d="M22 76c0-14.36 11.64-26 26-26h13.29a26 26 0 0 0 10.895-2.393L119 26l-4 24h29c14.359 0 26 11.64 26 26v62c0 14.359-11.641 26-26 26H48c-14.36 0-26-11.641-26-26z"/><path stroke="#000" stroke-linecap="round" stroke-linejoin="round" stroke-width="12" d="M90 108.817c0-3.054 3.285-4.981 5.951-3.491l21.801 12.182c2.731 1.527 2.731 5.457 0 6.984l-21.8 12.182c-2.667 1.49-5.952-.437-5.952-3.491zM125 79l-9 6 9 6"/><circle cx="71" cy="85" r="5" stroke="#000" stroke-linecap="round" stroke-linejoin="round" stroke-width="10"/></svg>