<svg width="192" height="192" viewBox="0 0 192 192" xmlns="http://www.w3.org/2000/svg"><g fill="none"><path style="fill-opacity:0;stroke:#000;stroke-width:8;stroke-linecap:round;stroke-linejoin:round;paint-order:stroke fill markers" d="M55.164 138.465a16.507 16.507 0 0 1-16.507 16.507 16.507 16.507 0 0 1-16.507-16.507 16.507 16.507 0 0 1 16.507-16.507 16.507 16.507 0 0 1 16.507 16.507ZM69.926 55.263a48.506 48.506 0 0 1 53.4.56 48.506 48.506 0 0 1 20.523 49.302"/><path style="fill-opacity:0;stroke:#000;stroke-width:6;stroke-linecap:round;stroke-linejoin:round;paint-order:stroke fill markers" d="M100.071 95.733a4.034 4.034 0 0 1-4.033 4.034 4.034 4.034 0 0 1-4.034-4.034 4.034 4.034 0 0 1 4.034-4.033 4.034 4.034 0 0 1 4.033 4.033z"/><path style="fill:#000;fill-opacity:0;stroke:#000;stroke-width:6;stroke-linecap:round;stroke-linejoin:round;stroke-dasharray:none;paint-order:stroke fill markers" d="m96.207 98.16-.08-5.037M98.473 94.39l41.315-42.149-42.109 41.29"/><path style="fill-opacity:0;stroke:#000;stroke-width:8;stroke-linecap:round;stroke-linejoin:round;paint-order:stroke fill markers" d="M169.722 138.464a16.507 16.507 0 0 1-16.507 16.508 16.507 16.507 0 0 1-16.507-16.508 16.507 16.507 0 0 1 16.507-16.507 16.507 16.507 0 0 1 16.507 16.507z"/><path style="fill-opacity:0;stroke:#000;stroke-width:6.3992;stroke-linecap:round;stroke-linejoin:round;paint-order:stroke fill markers" d="M127.202 139.067a25.955 25.955 0 0 1 23.098-26.478"/><path style="fill-opacity:0;stroke:#000;stroke-width:7.37258;stroke-linecap:round;stroke-linejoin:round;paint-order:stroke fill markers" d="M158.811 138.59a5.486 5.486 0 0 1-5.486 5.485 5.486 5.486 0 0 1-5.486-5.486 5.486 5.486 0 0 1 5.486-5.486 5.486 5.486 0 0 1 5.486 5.486zM44.137 138.59a5.486 5.486 0 0 1-5.486 5.486 5.486 5.486 0 0 1-5.486-5.486 5.486 5.486 0 0 1 5.486-5.486 5.486 5.486 0 0 1 5.486 5.486z"/><path style="fill:#000;fill-opacity:0;stroke:#000;stroke-width:6;stroke-linecap:round;stroke-linejoin:round;stroke-dasharray:none;paint-order:stroke fill markers" d="m55.906 35.856 8.509 3.127-25.745 99.76"/><path style="fill:#000;fill-opacity:0;stroke:#000;stroke-width:8;stroke-linecap:round;stroke-linejoin:round;stroke-dasharray:none;paint-order:stroke fill markers" d="m47.979 106.644 24.745 34.055h80.034M151.076 136.236H71.772M68.089 133.095h19.788"/><path style="fill:#000;fill-opacity:0;stroke:#000;stroke-width:6;stroke-linecap:round;stroke-linejoin:round;stroke-dasharray:none;paint-order:stroke fill markers" d="M100.817 172.853s10.841 1.197 20.733-4.185l-6.289-15.636s-6.908 2.717-14.26 2.496zM70.553 168.96s9.619 5.14 20.803 3.822l-.026-16.853s-7.423-.046-14.167-2.985zM129.334 165.053s5.642-2.316 9.32-5.277c0 0-4.934-2.315-8.299-8.418l-6.758.309zM53.765 160.528s3.012 2.322 8.642 4.578l6.567-14.967-5.469-3.565s-2.008 7.838-9.74 13.954zM19.06 100.734l17.443.042s.827 6.338-.298 10.428c0 0-8.173 1.159-14.106 6.053 0 0-2.514-6.01-3.04-16.523zM36.134 91.01H19s-.018-11.23 4.616-20.435l14.99 6.616s-2.472 6.22-2.472 13.819zM26.676 62.59c4.62-10.87 12.453-17.673 12.453-17.673L50.634 56.52c-5.186 4.868-8.331 12.299-8.331 12.299ZM53.047 47.018l-7.964-8.383s1.24-1.359 2.918-2.04l.42 5.484 4.717 1.227zM59.577 28.113s1.49-1.541 3.412-2.039l1.26 3.445zM71.021 23.466S79.536 19.568 91.238 19v17.093s-6.618-.52-13.887 2.513zM100.945 19v16.79s6.908-.811 13.723 2.65l6.427-15.286s-8.697-4.33-20.15-4.154zM129.433 26.831s9.75 3.882 17.887 11.629l-3.959 3.742-4.474.255-5.933 6.214s-3.934-4.916-9.801-6.522zM153.508 44.179s6.959 8.272 12 18.288l-15.554 6.474s-2.339-5.622-6.566-10.12l5.723-4.698.424-5.538zM155.462 101H173s-.684 8.736-3.023 16.373c0 0-3.429-3.987-9.623-4.924l-.633-7.34-4.776-1.44s.344-.382.517-2.669zM168.877 70.596s4.157 10.91 4.123 20.173l-17.089.241s.394-7.244-2.67-14.046z"/></g></svg>