<?xml version="1.0" encoding="UTF-8"?>
<svg id="vector" width="192" height="192" version="1.1" viewBox="0 0 192 192" xmlns="http://www.w3.org/2000/svg"><g fill="none" stroke="#000" stroke-linecap="round" stroke-linejoin="round" stroke-width="12"><path d="m72 83m-18 0a18 18 0 1 1 36 0 18 18 0 1 1-36 0"/><path d="m88 91-22 36"/><path d="m120 83m-18 0a18 18 0 1 1 36 0 18 18 0 1 1-36 0"/><path d="m136 91-22 36"/><path d="m170 96a74 74 0 0 1-74 74 74 74 0 0 1-74-74 74 74 0 0 1 74-74 74 74 0 0 1 74 74z"/></g></svg>
