<svg width="192" height="192" fill="none" xmlns="http://www.w3.org/2000/svg"><circle cx="96" cy="44" r="22" stroke="#000" stroke-width="12" stroke-linecap="round" stroke-linejoin="round"/><circle cx="130" cy="108" r="14" stroke="#000" stroke-width="12" stroke-linecap="round" stroke-linejoin="round"/><path d="M96 170H73a6 6 0 0 1-6-6v-64a6 6 0 0 0-6-6H33a6 6 0 0 1-6-6V72a6 6 0 0 1 6-6h126a6 6 0 0 1 6 6v18a4 4 0 0 1-4 4v0m-66 28h70m-47 32h24m0-32v48m-24-48v48" stroke="#000" stroke-width="12" stroke-linecap="round" stroke-linejoin="round"/></svg>