<svg xmlns="http://www.w3.org/2000/svg" width="192" height="192" fill="none" viewBox="0 0 192 192"><path stroke="#000" stroke-linecap="round" stroke-linejoin="round" stroke-miterlimit="6" stroke-width="10" d="M92.042 58.85c10.452 0 18.925-8.473 18.925-18.925S102.494 21 92.042 21s-18.925 8.473-18.925 18.925S81.59 58.85 92.042 58.85M150 85.842h10.933a6 6 0 0 0 6-6v-3.937a6 6 0 0 0-6-6H33.276a6 6 0 0 0-6 6v3.937a6 6 0 0 0 6 6h31.327a6 6 0 0 1 6 6v67.773a6 6 0 0 0 6.042 6l31.355-.22m-15.982-.367v-26.395"/><path stroke="#000" stroke-linecap="round" stroke-linejoin="round" stroke-miterlimit="6" stroke-width="8" d="M129.458 115.266c8.251 0 14.94-6.689 14.94-14.94s-6.689-14.94-14.94-14.94-14.94 6.689-14.94 14.94 6.689 14.94 14.94 14.94m-36.444 7.43h72.71m-46.814.498V172m22.411-48.806V172m-21.912-19.423h20.916"/></svg>