<?xml version="1.0" encoding="utf-8"?>
	<svg version="1.1" xmlns="http://www.w3.org/2000/svg" xmlns:xlink="http://www.w3.org/1999/xlink" x="0px" y="0px" width="240.0" height="240.0" xml:space="preserve">
		<path d="M207.695,112.296C207.695,115.475 207.696,118.655 207.695,121.834C207.695,126.308 207.656,130.781 207.715,135.254C207.736,136.774 207.164,137.394 205.65,137.32C204.162,137.247 202.668,137.307 201.178,137.293C198.795,137.269 198.606,137.089 198.605,134.753C198.598,126.498 198.602,118.244 198.602,109.989C198.602,108.285 198.637,106.58 198.597,104.877C198.569,103.661 199.166,103.052 200.308,103.063C204.349,103.098 208.396,102.793 212.432,103.277C214.498,103.525 215.478,105.02 216.471,106.567C221.04,113.69 225.627,120.803 230.211,127.917C230.324,128.091 230.481,128.237 230.709,128.503C231.057,127.885 230.919,127.302 230.92,126.762C230.932,119.679 230.924,112.596 230.932,105.513C230.934,103.37 231.1,103.226 233.17,103.186C234.87,103.152 236.569,103.067 238.269,103.037C239.432,103.017 239.994,103.556 239.992,104.793C239.974,115.071 239.987,125.349 240,135.626C240.001,136.539 239.758,137.257 238.71,137.261C234.558,137.277 230.406,137.438 226.256,137.167C224.573,137.058 223.424,136.244 222.522,134.817C218.308,128.161 214.036,121.541 209.781,114.91C209.208,114.017 208.616,113.137 208.032,112.252C207.92,112.267 207.808,112.281 207.695,112.296M9.105,112.321C9.105,118.812 9.106,125.303 9.104,131.794C9.104,133.072 9.097,134.35 9.089,135.628C9.083,136.636 8.638,137.262 7.569,137.272C5.546,137.29 3.523,137.287 1.499,137.291C0.261,137.294 0.036,136.51 0.039,135.481C0.051,131.913 0.031,128.345 0.029,124.777C0.027,118.281 0.066,111.783 0,105.287C-0.015,103.793 0.462,103.191 1.975,103.15C5.752,103.048 9.521,102.922 13.301,103.195C15.445,103.349 16.624,104.659 17.663,106.272C22.36,113.567 27.057,120.862 31.757,128.157C31.866,128.326 31.998,128.482 32.165,128.706C32.482,128.078 32.325,127.494 32.326,126.938C32.34,119.749 32.333,112.56 32.341,105.371C32.343,103.422 32.562,103.175 34.513,103.048C36.267,102.935 38.019,103.08 39.773,103.181C40.997,103.25 41.463,103.778 41.44,104.974C41.396,107.156 41.431,109.34 41.431,111.524C41.431,119.405 41.436,127.287 41.427,135.169C41.424,137.095 41.221,137.296 39.33,137.302C35.975,137.312 32.62,137.281 29.265,137.305C26.668,137.323 24.778,136.385 23.345,134.046C19.478,127.739 15.412,121.554 11.422,115.323C10.764,114.294 10.088,113.277 9.42,112.255C9.315,112.277 9.21,112.299 9.105,112.321M126.727,137.266C121.309,137.266 117.153,137.236 112.999,137.284C111.655,137.3 111.034,136.901 110.835,135.444C110.078,129.918 110.357,129.497 115.815,129.477C122.634,129.452 129.453,129.458 136.272,129.479C137.528,129.483 138.477,129.331 138.486,127.721C138.496,125.707 138.03,125.009 136.365,124.857C130.643,124.334 124.92,123.814 119.202,123.254C118.309,123.167 117.429,122.901 116.554,122.676C113.131,121.794 111.138,119.617 110.774,116.079C110.549,113.901 110.569,111.717 111.136,109.574C112.117,105.87 115.101,103.567 119.446,103.304C125.495,102.938 131.551,103.132 137.607,103.16C140.209,103.172 142.807,102.973 145.416,103.165C146.687,103.258 147.264,103.708 147.212,105C147.163,106.224 147.215,107.451 147.202,108.676C147.182,110.598 146.997,110.794 145.093,110.795C138.328,110.799 131.562,110.789 124.797,110.784C124.158,110.784 123.518,110.802 122.879,110.77C121.569,110.706 120.714,111.084 120.705,112.614C120.697,114.076 121.333,114.667 122.793,114.815C128.771,115.423 134.794,115.642 140.718,116.71C146.07,117.674 148.428,120.529 148.52,125.95C148.533,126.749 148.532,127.548 148.521,128.347C148.448,133.607 145.675,136.517 140.471,137.032C135.47,137.526 130.464,137.074 126.727,137.266M81.985,137.281C77.579,137.281 73.532,137.295 69.484,137.276C67.547,137.266 67.244,136.95 67.219,135.065C67.203,133.893 67.202,132.721 67.219,131.55C67.245,129.686 67.453,129.475 69.381,129.474C76.73,129.47 84.079,129.48 91.428,129.486C91.801,129.486 92.177,129.458 92.546,129.497C93.99,129.649 94.925,129.244 94.965,127.575C95.007,125.753 94.423,125.031 92.635,124.866C86.968,124.343 81.302,123.819 75.637,123.282C73.921,123.119 72.306,122.617 70.785,121.791C68.823,120.726 67.589,119.09 67.297,116.912C67.007,114.75 66.974,112.542 67.336,110.382C68.059,106.07 71.54,103.379 76.437,103.262C80.793,103.159 85.153,103.186 89.505,103.098C93.541,103.016 97.576,103.468 101.607,103.053C102.922,102.917 103.59,103.515 103.516,104.92C103.447,106.248 103.436,107.585 103.506,108.912C103.578,110.302 102.99,110.799 101.627,110.788C96.569,110.751 91.51,110.78 86.452,110.785C84.055,110.788 81.658,110.823 79.263,110.783C77.885,110.76 77.194,111.264 77.183,112.731C77.173,114.157 77.811,114.694 79.182,114.818C84.744,115.319 90.311,115.795 95.854,116.462C103.564,117.391 105.171,121.534 104.942,127.997C104.701,134.781 101.484,136.823 95.518,137.126C90.884,137.361 86.256,137.161 81.985,137.281M172.65,123.095L172.65,123.079C174.405,123.079 176.161,123.044 177.915,123.093C178.936,123.121 179.251,122.921 178.787,121.844C177.423,118.671 176.135,115.463 174.86,112.252C174.473,111.275 173.827,110.85 172.803,110.824C171.817,110.799 171.213,111.237 170.839,112.127C169.46,115.41 168.083,118.695 166.657,121.958C166.196,123.015 166.678,123.12 167.545,123.104C169.246,123.073 170.949,123.095 172.65,123.095M190.531,137.304C184.218,137.18 185.772,138.293 183.283,132.435C182.675,131.003 182.04,130.452 180.396,130.498C175.184,130.646 169.964,130.588 164.747,130.531C163.488,130.517 162.784,130.908 162.385,132.131C161.991,133.339 161.323,134.457 160.894,135.657C160.466,136.855 159.649,137.284 158.456,137.278C156.273,137.268 154.091,137.309 151.908,137.289C150.006,137.271 149.714,136.832 150.503,135.062C153.082,129.278 155.698,123.51 158.296,117.735C160.173,113.562 162.072,109.399 163.902,105.205C164.524,103.78 165.51,103.244 167.023,103.262C170.796,103.308 174.571,103.298 178.345,103.248C179.976,103.226 181.037,103.847 181.712,105.372C184.683,112.088 187.707,118.78 190.717,125.479C192.156,128.682 193.597,131.884 195.054,135.078C195.948,137.037 195.81,137.287 193.726,137.306C193.194,137.31 192.661,137.304 192.128,137.304C191.596,137.304 191.064,137.304 190.531,137.304M49.285,120.31C49.286,115.305 49.338,110.299 49.257,105.295C49.231,103.675 49.81,103.146 51.387,103.171C53.403,103.204 55.418,102.907 57.443,103.06C58.74,103.157 59.405,103.618 59.396,105.129C59.338,115.245 59.36,125.362 59.392,135.478C59.395,136.769 58.907,137.33 57.608,137.307C55.479,137.269 53.347,137.255 51.22,137.32C49.766,137.365 49.249,136.758 49.263,135.325C49.315,130.32 49.283,125.315 49.285,120.31" fill="#000" stroke="#00000000" stroke-width="1.0" stroke-miterlimit=""/>
	</svg>
