<svg width="192" height="192" viewBox="0 0 192 192" fill="none" xmlns="http://www.w3.org/2000/svg"><path d="M44 139h110M72.584 59.535a26 26 0 1 0-24.13 34.461" stroke="#000" stroke-width="12" stroke-linecap="round" stroke-linejoin="round"/><path d="M44 139a21.994 21.994 0 0 1-18.292-9.777 22.006 22.006 0 0 1-2.033-20.642A21.996 21.996 0 0 1 49.34 95.658a32 32 0 0 1 62.912-11.533 20.998 20.998 0 0 1 32.875 7.208 21 21 0 0 1-.803 18.924 15.993 15.993 0 0 1 12.796-2.95 16.01 16.01 0 0 1 11.661 9.57A15.998 15.998 0 0 1 154 139" stroke="#000" stroke-width="12" stroke-linecap="round" stroke-linejoin="round"/></svg>