<svg width="192" height="192" viewBox="0 0 192 192" fill="none" xmlns="http://www.w3.org/2000/svg">
<path d="M119.065 18C211.171 48.8239 178.627 172.906 112.433 171.816C103.267 171.665 95.4245 160.52 94.7018 147.11C94.0067 134.214 96.9526 119.785 110.137 115.105C104.456 122.758 109.044 147.112 120.789 145.902C155.788 142.302 160.815 57.2547 119.065 18Z" stroke="black" stroke-width="12" stroke-linecap="round" stroke-linejoin="round"/>
<path d="M72.935 173.947C-19.1709 143.123 13.3727 19.041 79.5671 20.1317C88.7331 20.2826 96.5754 31.4274 97.2981 44.8372C97.9931 57.7331 95.0473 72.1627 81.8634 76.8431C87.5437 69.1888 82.9552 44.8363 71.2106 46.0446C36.2111 49.6452 31.1848 134.692 72.935 173.947Z" stroke="black" stroke-width="12" stroke-linecap="round" stroke-linejoin="round"/>
</svg>
