<svg width="192" height="192" viewBox="0 0 192 192" fill="none" xmlns="http://www.w3.org/2000/svg">
<mask id="path-1-outside-1_238_301" maskUnits="userSpaceOnUse" x="17" y="47" width="157" height="100" fill="black">
<rect fill="white" x="17" y="47" width="157" height="100"/>
<path fill-rule="evenodd" clip-rule="evenodd" d="M23.365 53.3635C22.9677 53.8031 22.8484 88.878 23.2417 89.613C23.4446 89.9924 24.4655 89.9979 95.3364 89.9979H167.226L167.535 89.5558C168.006 88.8835 168.006 54.1144 167.535 53.4421L167.226 53H95.4597C26.1871 53 23.6828 53.0124 23.365 53.3635ZM57.6065 63.5722C64.5222 67.0826 64.1368 77.7563 56.9983 80.4132C48.3326 83.6381 41.6293 71.9659 48.3232 65.3083C50.8986 62.7468 54.6118 62.0526 57.6065 63.5722ZM109.872 63.533C115.498 66.3023 116.731 74.0729 112.248 78.5116C107.479 83.2338 99.9248 80.821 98.3325 74.0664C96.6363 66.8697 103.648 60.4687 109.872 63.533ZM30.2967 63.0978C30.5324 63.2709 31.5165 64.4877 35.8026 69.9076C37.1438 71.6034 38.4004 73.1643 38.5948 73.3762C38.7898 73.5885 38.9489 73.8347 38.9489 73.9232C38.9489 74.0122 39.0369 74.0848 39.1448 74.0848C39.2672 74.0848 39.3602 72.0171 39.3935 68.565L39.4462 63.0451L41.0067 62.9864C43.3185 62.8999 43.1261 62.0988 43.1261 71.8053C43.1261 81.6694 43.2718 80.8479 41.5214 80.8479C39.9664 80.8479 40.0066 80.8772 37.9971 78.2913C36.5868 76.4768 33.3425 72.4289 33.1909 72.2946C33.1292 72.2399 32.8433 71.8818 32.5553 71.4989C30.9148 69.3164 31.0068 69.0831 30.9436 75.5767L30.8929 80.7484H29.2022H27.5114L27.4597 72.0957C27.4308 67.3367 27.4507 63.3311 27.5029 63.1943C27.6074 62.9218 29.9466 62.8412 30.2967 63.0978ZM75.8125 63.1312C78.7898 64.2635 79.479 68.7554 77.0209 71.0071L76.3068 71.6611L77.0334 72.0057C80.2562 73.5353 80.0235 78.4907 76.643 80.3183C75.6882 80.8344 66.2572 81.1089 65.6888 80.6375C65.3039 80.3178 65.2602 63.5673 65.6431 63.1844C65.936 62.8915 75.0567 62.8437 75.8125 63.1312ZM92.4173 63.4604C96.0291 65.2605 96.7377 70.8833 93.6237 73.037C91.8066 74.2937 91.8708 74.0227 92.9937 75.6915C94.7933 78.3659 96.041 80.4819 95.9266 80.6664C95.865 80.7663 95.3269 80.8479 94.7302 80.8479C93.4367 80.8479 93.6202 81.0339 91.2945 77.3669L89.5281 74.5821L87.2132 74.5259L84.8979 74.4702L84.8949 77.4102C84.8914 80.8991 84.8949 80.8896 83.4866 80.8096L82.4115 80.7484L82.3598 72.0957C82.3309 67.3367 82.3508 63.3311 82.403 63.1943C82.6178 62.6349 91.2189 62.8636 92.4173 63.4604ZM120.457 67.6699C120.513 72.4995 120.541 72.6357 121.292 71.7476C121.546 71.4467 122.39 70.5263 123.168 69.7023C123.945 68.8783 125.685 67.0209 127.034 65.5748L129.487 62.9457H130.564C132.077 62.9457 132.042 63.0143 128.649 66.7295C127.003 68.5322 125.517 70.206 125.348 70.4492C125.066 70.854 129.507 77.2958 131.891 79.9403C132.507 80.6236 132.333 80.8479 131.183 80.8479C129.84 80.8479 130.043 81.0428 126.579 76.422C124.959 74.2614 123.528 72.4935 123.4 72.4935C123.27 72.4935 122.588 73.0977 121.884 73.8362L120.603 75.1788L120.503 77.9636L120.404 80.7484L119.26 80.8081L118.116 80.8678V72.0395C118.116 62.2584 118.024 62.9059 119.402 62.9864L120.404 63.0451L120.457 67.6699ZM146.284 63.1794C146.364 63.3082 146.436 63.7334 146.445 64.1242L146.462 64.8353L141.638 64.8886L136.814 64.9418V67.8185V70.6953L140.942 70.749L145.069 70.8027V71.6979V72.593L140.942 72.6467L136.814 72.7004V75.6801V78.6598H141.402C146.651 78.6598 146.738 78.6807 146.576 79.8916L146.462 80.7484H140.494H134.527L134.475 72.0957C134.446 67.3367 134.466 63.3311 134.518 63.1943C134.652 62.8467 146.07 62.8323 146.284 63.1794ZM159.59 63.4206C160.137 63.6797 160.863 64.1934 161.203 64.5623C161.749 65.1536 162.019 65.5882 162.701 66.9712C163.608 68.8081 162.254 72.3866 160.195 73.593C159.65 73.9128 159.344 74.2136 159.424 74.3524C159.497 74.4787 160.303 75.7278 161.214 77.1287C162.126 78.529 162.872 79.7598 162.872 79.8637C162.872 79.9672 162.961 80.0522 163.071 80.0522C163.18 80.0522 163.27 80.2357 163.27 80.4595C163.27 80.833 163.166 80.8618 162.029 80.8076L160.788 80.7484L159.735 79.1571C159.156 78.2819 158.263 76.8696 157.751 76.0183L156.821 74.4707L154.526 74.5264L152.23 74.5821L152.131 77.6653L152.031 80.7484H150.937H149.843L149.791 72.0957C149.763 67.3367 149.782 63.3311 149.835 63.1943C150.036 62.6692 158.414 62.8636 159.59 63.4206ZM67.9903 67.819V70.7033H71.0998C75.2625 70.7033 76.1457 70.1821 76.1457 67.7241C76.1457 66.7937 76.0761 66.645 75.2561 65.8244L74.3659 64.9348H71.1783H67.9903V67.819ZM84.8979 68.6147V72.2946H87.6698C91.4476 72.2946 92.3666 71.858 92.9718 69.7754C93.8977 66.5903 92.0563 64.9348 87.5852 64.9348H84.8979V68.6147ZM104.873 65.2073C98.9511 67.3829 99.1495 76.8045 105.155 78.5763C109.838 79.9577 113.85 74.5085 112.048 69.2114C110.991 66.1049 107.593 64.2083 104.873 65.2073ZM152.219 65.1909C152.165 65.3316 152.145 66.9652 152.175 68.8211L152.23 72.1951L155.114 72.2483C158.555 72.312 159.065 72.1365 159.945 70.5854C161.029 68.6744 160.321 66.2581 158.415 65.362C157.315 64.8453 152.404 64.709 152.219 65.1909ZM51.8276 66.7146C48.2755 68.9673 48.4878 75.5125 52.1687 77.2426C57.063 79.5435 61.1372 72.861 57.794 68.0165C56.4448 66.0621 53.7749 65.4793 51.8276 66.7146ZM68.2334 72.86C68.0415 72.9813 67.9927 73.7283 68.0345 75.8905L68.0897 78.7593L71.1142 78.814C74.6568 78.8786 75.5221 78.625 76.4267 77.258C77.5023 75.6329 76.6529 73.4364 74.7369 72.8864C73.9224 72.6531 68.5935 72.6313 68.2334 72.86ZM23.0846 120.879L23.1353 139.826H28.2673H33.3992L33.3843 132.89C33.3739 127.947 33.435 125.875 33.5976 125.679C33.9154 125.297 46.4519 125.272 46.9661 125.653C47.2675 125.877 47.3063 126.601 47.352 132.864L47.4027 139.826H52.475H57.5473L57.598 120.879L57.6488 101.933H52.4785H47.3082L47.256 109.044L47.2038 116.155L40.4149 116.207L33.626 116.259L33.5052 115.809C33.439 115.562 33.3833 112.338 33.3818 108.646L33.3793 101.933H28.2066H23.0339L23.0846 120.879ZM131.841 120.932V139.961L141.141 139.871C153.373 139.753 155.733 139.264 160.584 135.844C170.144 129.105 170.54 113.135 161.314 106.34C156.268 102.623 153.849 102.096 141.34 101.986L131.841 101.902V120.932ZM107.276 102.251C101.04 103.152 96.8879 105.323 93.673 109.363C91.568 112.009 90.4749 114.737 90.0761 118.343C89.4649 123.865 88.7175 126.087 86.8149 128.036C80.8669 134.128 71.2017 129.809 71.1142 121.019C71.0898 118.59 71.156 118.295 72.2261 116.056C75.2824 109.66 85.0058 109.591 88.272 115.942L88.7558 116.882L89.1974 115.219C89.9299 112.46 91.5157 109.446 92.937 108.114C93.8137 107.292 93.4765 106.79 91.0324 105.28C83.1201 100.392 71.8989 101.765 65.8738 108.357C64.0488 110.354 62.3073 113.365 61.6509 115.658C61.0706 117.686 60.986 118.369 60.986 121.028C60.986 123.687 61.0706 124.371 61.6509 126.399C62.0656 127.848 62.8667 129.511 64.0001 131.272C70.2519 140.996 85.1306 142.587 93.8167 134.462C97.3802 131.129 99.0038 127.641 99.608 122.023C100.233 116.207 101.388 113.921 104.568 112.203C112.906 107.701 121.291 116.834 117.056 125.802C114.093 132.074 105 132.406 101.279 126.378C100.563 125.217 100.225 125.116 100.217 126.057C100.204 127.643 97.9053 132.215 96.1842 134.081L95.6119 134.701L96.968 135.722C104.563 141.436 116.436 140.662 122.937 134.028C124.996 131.926 126.784 129.072 127.487 126.763C128.217 124.368 128.3 123.788 128.312 121.028C128.362 109.807 118.139 100.681 107.276 102.251ZM149.582 111.384C159.752 113.49 160.243 127.559 150.241 130.304C148.933 130.663 142.694 130.917 142.51 130.619C142.347 130.355 142.329 111.532 142.491 111.269C142.68 110.963 147.961 111.048 149.582 111.384Z"/>
</mask>
<path fill-rule="evenodd" clip-rule="evenodd" d="M23.365 53.3635C22.9677 53.8031 22.8484 88.878 23.2417 89.613C23.4446 89.9924 24.4655 89.9979 95.3364 89.9979H167.226L167.535 89.5558C168.006 88.8835 168.006 54.1144 167.535 53.4421L167.226 53H95.4597C26.1871 53 23.6828 53.0124 23.365 53.3635ZM57.6065 63.5722C64.5222 67.0826 64.1368 77.7563 56.9983 80.4132C48.3326 83.6381 41.6293 71.9659 48.3232 65.3083C50.8986 62.7468 54.6118 62.0526 57.6065 63.5722ZM109.872 63.533C115.498 66.3023 116.731 74.0729 112.248 78.5116C107.479 83.2338 99.9248 80.821 98.3325 74.0664C96.6363 66.8697 103.648 60.4687 109.872 63.533ZM30.2967 63.0978C30.5324 63.2709 31.5165 64.4877 35.8026 69.9076C37.1438 71.6034 38.4004 73.1643 38.5948 73.3762C38.7898 73.5885 38.9489 73.8347 38.9489 73.9232C38.9489 74.0122 39.0369 74.0848 39.1448 74.0848C39.2672 74.0848 39.3602 72.0171 39.3935 68.565L39.4462 63.0451L41.0067 62.9864C43.3185 62.8999 43.1261 62.0988 43.1261 71.8053C43.1261 81.6694 43.2718 80.8479 41.5214 80.8479C39.9664 80.8479 40.0066 80.8772 37.9971 78.2913C36.5868 76.4768 33.3425 72.4289 33.1909 72.2946C33.1292 72.2399 32.8433 71.8818 32.5553 71.4989C30.9148 69.3164 31.0068 69.0831 30.9436 75.5767L30.8929 80.7484H29.2022H27.5114L27.4597 72.0957C27.4308 67.3367 27.4507 63.3311 27.5029 63.1943C27.6074 62.9218 29.9466 62.8412 30.2967 63.0978ZM75.8125 63.1312C78.7898 64.2635 79.479 68.7554 77.0209 71.0071L76.3068 71.6611L77.0334 72.0057C80.2562 73.5353 80.0235 78.4907 76.643 80.3183C75.6882 80.8344 66.2572 81.1089 65.6888 80.6375C65.3039 80.3178 65.2602 63.5673 65.6431 63.1844C65.936 62.8915 75.0567 62.8437 75.8125 63.1312ZM92.4173 63.4604C96.0291 65.2605 96.7377 70.8833 93.6237 73.037C91.8066 74.2937 91.8708 74.0227 92.9937 75.6915C94.7933 78.3659 96.041 80.4819 95.9266 80.6664C95.865 80.7663 95.3269 80.8479 94.7302 80.8479C93.4367 80.8479 93.6202 81.0339 91.2945 77.3669L89.5281 74.5821L87.2132 74.5259L84.8979 74.4702L84.8949 77.4102C84.8914 80.8991 84.8949 80.8896 83.4866 80.8096L82.4115 80.7484L82.3598 72.0957C82.3309 67.3367 82.3508 63.3311 82.403 63.1943C82.6178 62.6349 91.2189 62.8636 92.4173 63.4604ZM120.457 67.6699C120.513 72.4995 120.541 72.6357 121.292 71.7476C121.546 71.4467 122.39 70.5263 123.168 69.7023C123.945 68.8783 125.685 67.0209 127.034 65.5748L129.487 62.9457H130.564C132.077 62.9457 132.042 63.0143 128.649 66.7295C127.003 68.5322 125.517 70.206 125.348 70.4492C125.066 70.854 129.507 77.2958 131.891 79.9403C132.507 80.6236 132.333 80.8479 131.183 80.8479C129.84 80.8479 130.043 81.0428 126.579 76.422C124.959 74.2614 123.528 72.4935 123.4 72.4935C123.27 72.4935 122.588 73.0977 121.884 73.8362L120.603 75.1788L120.503 77.9636L120.404 80.7484L119.26 80.8081L118.116 80.8678V72.0395C118.116 62.2584 118.024 62.9059 119.402 62.9864L120.404 63.0451L120.457 67.6699ZM146.284 63.1794C146.364 63.3082 146.436 63.7334 146.445 64.1242L146.462 64.8353L141.638 64.8886L136.814 64.9418V67.8185V70.6953L140.942 70.749L145.069 70.8027V71.6979V72.593L140.942 72.6467L136.814 72.7004V75.6801V78.6598H141.402C146.651 78.6598 146.738 78.6807 146.576 79.8916L146.462 80.7484H140.494H134.527L134.475 72.0957C134.446 67.3367 134.466 63.3311 134.518 63.1943C134.652 62.8467 146.07 62.8323 146.284 63.1794ZM159.59 63.4206C160.137 63.6797 160.863 64.1934 161.203 64.5623C161.749 65.1536 162.019 65.5882 162.701 66.9712C163.608 68.8081 162.254 72.3866 160.195 73.593C159.65 73.9128 159.344 74.2136 159.424 74.3524C159.497 74.4787 160.303 75.7278 161.214 77.1287C162.126 78.529 162.872 79.7598 162.872 79.8637C162.872 79.9672 162.961 80.0522 163.071 80.0522C163.18 80.0522 163.27 80.2357 163.27 80.4595C163.27 80.833 163.166 80.8618 162.029 80.8076L160.788 80.7484L159.735 79.1571C159.156 78.2819 158.263 76.8696 157.751 76.0183L156.821 74.4707L154.526 74.5264L152.23 74.5821L152.131 77.6653L152.031 80.7484H150.937H149.843L149.791 72.0957C149.763 67.3367 149.782 63.3311 149.835 63.1943C150.036 62.6692 158.414 62.8636 159.59 63.4206ZM67.9903 67.819V70.7033H71.0998C75.2625 70.7033 76.1457 70.1821 76.1457 67.7241C76.1457 66.7937 76.0761 66.645 75.2561 65.8244L74.3659 64.9348H71.1783H67.9903V67.819ZM84.8979 68.6147V72.2946H87.6698C91.4476 72.2946 92.3666 71.858 92.9718 69.7754C93.8977 66.5903 92.0563 64.9348 87.5852 64.9348H84.8979V68.6147ZM104.873 65.2073C98.9511 67.3829 99.1495 76.8045 105.155 78.5763C109.838 79.9577 113.85 74.5085 112.048 69.2114C110.991 66.1049 107.593 64.2083 104.873 65.2073ZM152.219 65.1909C152.165 65.3316 152.145 66.9652 152.175 68.8211L152.23 72.1951L155.114 72.2483C158.555 72.312 159.065 72.1365 159.945 70.5854C161.029 68.6744 160.321 66.2581 158.415 65.362C157.315 64.8453 152.404 64.709 152.219 65.1909ZM51.8276 66.7146C48.2755 68.9673 48.4878 75.5125 52.1687 77.2426C57.063 79.5435 61.1372 72.861 57.794 68.0165C56.4448 66.0621 53.7749 65.4793 51.8276 66.7146ZM68.2334 72.86C68.0415 72.9813 67.9927 73.7283 68.0345 75.8905L68.0897 78.7593L71.1142 78.814C74.6568 78.8786 75.5221 78.625 76.4267 77.258C77.5023 75.6329 76.6529 73.4364 74.7369 72.8864C73.9224 72.6531 68.5935 72.6313 68.2334 72.86ZM23.0846 120.879L23.1353 139.826H28.2673H33.3992L33.3843 132.89C33.3739 127.947 33.435 125.875 33.5976 125.679C33.9154 125.297 46.4519 125.272 46.9661 125.653C47.2675 125.877 47.3063 126.601 47.352 132.864L47.4027 139.826H52.475H57.5473L57.598 120.879L57.6488 101.933H52.4785H47.3082L47.256 109.044L47.2038 116.155L40.4149 116.207L33.626 116.259L33.5052 115.809C33.439 115.562 33.3833 112.338 33.3818 108.646L33.3793 101.933H28.2066H23.0339L23.0846 120.879ZM131.841 120.932V139.961L141.141 139.871C153.373 139.753 155.733 139.264 160.584 135.844C170.144 129.105 170.54 113.135 161.314 106.34C156.268 102.623 153.849 102.096 141.34 101.986L131.841 101.902V120.932ZM107.276 102.251C101.04 103.152 96.8879 105.323 93.673 109.363C91.568 112.009 90.4749 114.737 90.0761 118.343C89.4649 123.865 88.7175 126.087 86.8149 128.036C80.8669 134.128 71.2017 129.809 71.1142 121.019C71.0898 118.59 71.156 118.295 72.2261 116.056C75.2824 109.66 85.0058 109.591 88.272 115.942L88.7558 116.882L89.1974 115.219C89.9299 112.46 91.5157 109.446 92.937 108.114C93.8137 107.292 93.4765 106.79 91.0324 105.28C83.1201 100.392 71.8989 101.765 65.8738 108.357C64.0488 110.354 62.3073 113.365 61.6509 115.658C61.0706 117.686 60.986 118.369 60.986 121.028C60.986 123.687 61.0706 124.371 61.6509 126.399C62.0656 127.848 62.8667 129.511 64.0001 131.272C70.2519 140.996 85.1306 142.587 93.8167 134.462C97.3802 131.129 99.0038 127.641 99.608 122.023C100.233 116.207 101.388 113.921 104.568 112.203C112.906 107.701 121.291 116.834 117.056 125.802C114.093 132.074 105 132.406 101.279 126.378C100.563 125.217 100.225 125.116 100.217 126.057C100.204 127.643 97.9053 132.215 96.1842 134.081L95.6119 134.701L96.968 135.722C104.563 141.436 116.436 140.662 122.937 134.028C124.996 131.926 126.784 129.072 127.487 126.763C128.217 124.368 128.3 123.788 128.312 121.028C128.362 109.807 118.139 100.681 107.276 102.251ZM149.582 111.384C159.752 113.49 160.243 127.559 150.241 130.304C148.933 130.663 142.694 130.917 142.51 130.619C142.347 130.355 142.329 111.532 142.491 111.269C142.68 110.963 147.961 111.048 149.582 111.384Z" stroke="black" stroke-width="12" mask="url(#path-1-outside-1_238_301)"/>
</svg>
