<svg width="192" height="192" fill="none" xmlns="http://www.w3.org/2000/svg"><ellipse opacity=".9" cx="96" cy="133" rx="45" ry="32" stroke="#000" stroke-width="12" stroke-linecap="round" stroke-linejoin="round"/><ellipse opacity=".9" cx="96" cy="52" rx="18" ry="25" stroke="#000" stroke-width="12" stroke-linecap="round" stroke-linejoin="round"/><path opacity=".9" d="M57.834 62.86c3.562 13.283-1.31 26.13-10.883 28.692-9.573 2.563-20.222-6.128-23.785-19.412-3.562-13.283 1.31-26.13 10.883-28.692 9.573-2.563 20.222 6.128 23.785 19.412Zm76.332 0c-3.562 13.283 1.31 26.13 10.883 28.692 9.573 2.563 20.222-6.128 23.785-19.412 3.562-13.283-1.31-26.13-10.883-28.692-9.573-2.563-20.222 6.128-23.785 19.412Z" stroke="#000" stroke-width="12" stroke-linecap="round" stroke-linejoin="round"/></svg>