<svg xmlns="http://www.w3.org/2000/svg" width="192" height="192" fill="none" stroke="#000" stroke-width="6" viewBox="0 0 192 192"><circle cx="96" cy="22" r="3"/><circle cx="3" cy="3" r="3" transform="matrix(1 0 0 -1 93 173)"/><circle cx="69" cy="40" r="3"/><circle cx="3" cy="3" r="3" transform="matrix(1 0 0 -1 66 155)"/><circle cx="60" cy="58" r="3"/><circle cx="3" cy="3" r="3" transform="matrix(1 0 0 -1 57 137)"/><circle cx="123" cy="40" r="3"/><circle cx="3" cy="3" r="3" transform="matrix(1 0 0 -1 120 155)"/><circle cx="114" cy="58" r="3"/><circle cx="3" cy="3" r="3" transform="matrix(1 0 0 -1 111 137)"/><circle cx="114" cy="22" r="3"/><circle cx="3" cy="3" r="3" transform="matrix(1 0 0 -1 111 173)"/><circle cx="87" cy="40" r="3"/><circle cx="3" cy="3" r="3" transform="matrix(1 0 0 -1 84 155)"/><circle cx="78" cy="58" r="3"/><circle cx="3" cy="3" r="3" transform="matrix(1 0 0 -1 75 137)"/><circle cx="141" cy="40" r="3"/><circle cx="3" cy="3" r="3" transform="matrix(1 0 0 -1 138 155)"/><circle cx="132" cy="58" r="3"/><circle cx="3" cy="3" r="3" transform="matrix(1 0 0 -1 129 137)"/><circle cx="150" cy="58" r="3"/><circle cx="3" cy="3" r="3" transform="matrix(1 0 0 -1 147 137)"/><circle cx="78" cy="22" r="3"/><circle cx="3" cy="3" r="3" transform="matrix(1 0 0 -1 75 173)"/><circle cx="51" cy="40" r="3"/><circle cx="3" cy="3" r="3" transform="matrix(1 0 0 -1 48 155)"/><circle cx="42" cy="58" r="3"/><circle cx="3" cy="3" r="3" transform="matrix(1 0 0 -1 39 137)"/><circle cx="105" cy="40" r="3"/><circle cx="3" cy="3" r="3" transform="matrix(1 0 0 -1 102 155)"/><circle cx="96" cy="58" r="3"/><circle cx="3" cy="3" r="3" transform="matrix(1 0 0 -1 93 137)"/><path stroke-linecap="round" stroke-width="12" d="M22 97.5c3.333-2.167 8-6.5 19-6.5s13 11 24 11 12-19 23-19 11.5 29 20 29 11.5-20 23-20 15.4 10 25 10 14-5 14-5"/></svg>