<svg xmlns="http://www.w3.org/2000/svg" width="192" height="192" fill="none" viewBox="0 0 192 192"><path stroke="#000" stroke-width="12" d="M36.796 96C27.743 88.296 22 76.819 22 64c0-23.196 18.804-42 42-42 12.819 0 24.296 5.743 32 14.796M36.796 96C27.743 103.704 22 115.181 22 128c0 23.196 18.804 42 42 42 12.819 0 24.296-5.743 32-14.796M36.796 96A41.83 41.83 0 0 1 64 86a41.83 41.83 0 0 1 27.204 10m0 0A42 42 0 0 0 96 91.204M91.204 96A42 42 0 0 1 96 100.796M100.796 96A41.83 41.83 0 0 0 128 106a41.83 41.83 0 0 0 27.204-10m-54.408 0A42 42 0 0 1 96 91.204M100.796 96A42 42 0 0 0 96 100.796M155.204 96c9.053 7.704 14.796 19.181 14.796 32 0 23.196-18.804 42-42 42-12.819 0-24.296-5.743-32-14.796M155.204 96C164.257 88.296 170 76.819 170 64c0-23.196-18.804-42-42-42-12.819 0-24.296 5.743-32 14.796m0 54.408A41.83 41.83 0 0 0 106 64a41.83 41.83 0 0 0-10-27.204m0 64A41.83 41.83 0 0 0 86 128a41.83 41.83 0 0 0 10 27.204"/></svg>