<?xml version="1.0" encoding="utf-8"?>
	<svg version="1.1" xmlns="http://www.w3.org/2000/svg" xmlns:xlink="http://www.w3.org/1999/xlink" x="0px" y="0px" width="240.0" height="240.0" xml:space="preserve">
		<path d="M128.557,126.017C132.026,129.992 135.494,133.969 138.963,137.945C140.121,139.352 141.265,140.772 142.44,142.165C147.23,147.842 147.274,155.688 142.486,161.309C137.703,166.925 132.899,172.522 128.067,178.096C123.226,183.679 116.446,183.669 111.596,178.074C106.764,172.501 101.955,166.907 97.175,161.289C92.444,155.728 92.448,147.871 97.121,142.301C98.336,140.853 99.533,139.39 100.739,137.934C104.161,134.004 107.6,130.088 111.002,126.14C116.579,119.67 122.968,119.615 128.557,126.017ZM59.529,90.282C61.561,90.691 63.112,91.832 64.278,93.507C71.781,104.284 79.311,115.043 86.756,125.861C89.918,130.455 88.203,135.176 82.595,137.794C78.328,137.825 74.061,137.881 69.794,137.881C53.196,137.878 36.598,137.858 20,137.844L20,122.805L65.715,122.805C66.038,121.927 65.326,121.519 64.98,121.017C60.633,114.723 56.234,108.465 51.894,102.167C49.929,99.314 49.913,96.089 51.715,93.412C53.421,90.879 56.448,89.662 59.529,90.282ZM184.854,90.655C188.06,91.944 189.915,95.122 189.526,98.629C189.356,100.165 188.629,101.441 187.767,102.676C183.546,108.727 179.331,114.783 175.132,120.849C174.764,121.381 174.192,121.823 174.156,122.805L220,122.805L220,137.844C199.136,137.828 178.273,137.811 157.409,137.794C151.322,134.964 150.077,130.395 153.922,124.855C161.138,114.456 168.362,104.061 175.612,93.685C177.906,90.401 181.448,89.288 184.854,90.655ZM120.036,57C124.288,57.02 127.518,60.344 127.572,64.91C127.635,70.255 127.587,75.603 127.586,80.949C127.586,86.16 127.629,91.372 127.571,96.583C127.531,100.206 125.494,103.019 122.355,104.038C119.35,105.013 116.136,104.056 114.127,101.596C112.917,100.113 112.413,98.386 112.412,96.507L112.395,83.838C112.388,77.503 112.39,71.168 112.428,64.834C112.456,60.291 115.781,56.981 120.036,57Z" fill="#000" stroke="#00000000" stroke-width="1.0" stroke-miterlimit=""/>
	</svg>
