<svg xmlns="http://www.w3.org/2000/svg" width="192" height="192" fill="none" stroke="#000" stroke-linecap="round" stroke-linejoin="round" stroke-width="8" viewBox="0 0 192 192"><path d="M23.271 155.421a8.13 8.13 0 0 0 5.404 7.66M60.518 136.8V64.58l80.186-.001m-117.15 74.586a8.13 8.13 0 1 1 8.131 8.131m69.711 14.614-18.512-18.674m17.646-5.656-23.26 23.464m85.448-32.946H124.03v38.688h38.688zM25.674 84.396l8.565-7.317v27.602M80.55 27.53l8.566-7.317v27.603m44.226-19.109a8.5 8.5 0 0 1 6.201-8.18A8.496 8.496 0 0 1 148.05 34.5m-.275.307-13.722 13.009h16.46M20.504 172h17.478s7.799.324 15.194-4.859 86.163-77.77 86.163-77.77l-10.975-10.796z"/><path d="M134.269 95.095s6.49 8.621 13.087 2.453c6.808-6.366.702-12.488.702-12.488l-16.931-16.78s-5.361-5.428-11.168.636.729 11.967.729 11.967m26.265 1.092 25.134-25.949-11.258-10.925-25.518 26.4m28.727-6.922H172M39.522 154.995a8.13 8.13 0 0 0-7.836-7.7m53.567-32.836h-12.61V76.631h37.78v16.447"/></svg>