<?xml version="1.0" encoding="utf-8"?>
	<svg version="1.1" xmlns="http://www.w3.org/2000/svg" xmlns:xlink="http://www.w3.org/1999/xlink" x="0px" y="0px" width="240.0" height="240.0" xml:space="preserve">
		<path d="M108.989,163.823C100.854,161.832 93.734,157.795 87.788,152.059C83.078,147.509 79.438,141.989 77.271,135.685C71.011,117.457 75.958,98.214 89.945,86.053C103.854,73.958 123.836,71.481 140.613,79.931C154.06,86.703 161.924,97.657 164.765,112.344C164.919,113.155 165.112,113.96 165.289,114.765C165.311,116.42 165.311,118.069 165.349,119.723C166.066,147.625 139.643,170.525 108.989,163.823ZM104.042,125.161C110.467,125.189 116.892,125.222 123.323,125.233C129.291,125.244 135.258,125.299 141.226,125.2C144.513,125.145 147.132,122.553 147.028,119.768C146.923,116.955 144.469,114.71 141.215,114.705C129.373,114.688 117.527,114.743 105.685,114.776C103.314,114.732 100.937,114.594 98.565,114.666C95.383,114.76 92.962,117.104 92.956,119.911C92.951,122.503 95.355,125.007 98.289,125.217C100.198,125.355 102.122,125.189 104.042,125.161Z" fill="#000" stroke="" stroke-width="" stroke-miterlimit=""/>
		<path d="M157.098,37.016C168.918,37.551 180.742,38.064 192.561,38.638C195.358,38.776 195.424,39.024 193.847,41.5C189.694,48.03 189.809,47.931 194.944,53.849C208.55,69.529 216.989,87.591 219.299,108.307C221.925,131.846 217.204,153.791 204.541,173.911C201.452,178.814 198.033,183.491 194.001,187.66C189.434,192.382 182.369,192.624 177.929,188.366C172.933,183.574 173.048,177.27 177.659,171.947C189.837,157.884 196.737,141.718 197.272,122.867C197.718,107.132 193.902,92.688 185.789,79.302C183.787,75.998 181.421,72.96 178.955,69.981C177.747,68.525 176.777,68.465 175.768,70.103C174.852,71.586 173.832,73.015 173.004,74.548C171.934,76.539 171.035,76.434 170.043,74.531C167.362,69.402 164.676,64.284 161.99,59.155C158.626,52.729 155.262,46.299 151.897,39.874C150.767,37.711 151.087,37.127 153.524,37.016C154.71,36.972 155.907,37.016 157.098,37.016Z" fill="#000" stroke="" stroke-width="" stroke-miterlimit=""/>
		<path d="M83.051,203.522C71.132,202.982 59.219,202.436 47.301,201.912C45.602,201.84 44.51,201.653 45.79,199.562C47.257,197.174 50.02,195.051 49.606,192.172C49.22,189.475 46.159,188.047 44.389,185.962C30.694,169.797 22.361,151.243 20.463,130.125C18.279,105.764 23.767,83.207 37.958,63.043C41.802,57.577 48.486,56.463 53.726,60.087C58.767,63.578 60.019,70.599 56.335,76.004C47.621,88.81 42.833,103.001 42.453,118.378C42.045,134.962 46.727,150.311 56.142,164.083C57.587,166.201 59.324,168.12 60.824,170.205C62.186,172.096 63.3,172.157 64.486,170.072C65.302,168.638 66.312,167.309 67.101,165.859C68.115,163.994 68.987,164.116 69.913,165.875C72.318,170.425 74.734,174.964 77.116,179.525C80.69,186.364 84.203,193.236 87.799,200.059C89.377,203.048 89.173,203.478 85.803,203.517C84.893,203.528 83.972,203.522 83.051,203.522Z" fill="#000" stroke="" stroke-width="" stroke-miterlimit=""/>
	</svg>
