<svg width="192" height="192" fill="none" xmlns="http://www.w3.org/2000/svg"><path d="M105 62v62.168a5.832 5.832 0 0 1-10.41 3.614L44.41 64.218A5.832 5.832 0 0 0 34 67.832V130" stroke="#000" stroke-width="12" stroke-linecap="round" stroke-linejoin="round"/><path d="M100.957 32.935a63.652 63.652 0 0 1 25.885 10.727m15.495 15.495a63.646 63.646 0 0 1 10.726 25.885m0 21.915a63.646 63.646 0 0 1-10.726 25.885m-15.495 15.495a63.646 63.646 0 0 1-25.885 10.726" stroke="#000" stroke-width="12"/><path d="M101 32c0 6.075-4.925 11-11 11s-11-4.925-11-11 4.925-11 11-11 11 4.925 11 11Zm0 128c0 6.075-4.925 11-11 11s-11-4.925-11-11 4.925-11 11-11 11 4.925 11 11Zm42.033-26.523c4.296 4.295 4.296 11.26 0 15.556-4.296 4.296-11.261 4.296-15.556 0-4.296-4.296-4.296-11.261 0-15.556 4.295-4.296 11.26-4.296 15.556 0ZM154 85c6.075 0 11 4.925 11 11s-4.925 11-11 11-11-4.925-11-11 4.925-11 11-11Zm-26.523-42.033c4.295-4.296 11.26-4.296 15.556 0 4.296 4.296 4.296 11.26 0 15.556-4.296 4.296-11.261 4.296-15.556 0-4.296-4.295-4.296-11.26 0-15.556Z" stroke="#000" stroke-width="10"/></svg>