<svg width="192" height="192" viewBox="0 0 192 192" fill="none" xmlns="http://www.w3.org/2000/svg">
<path d="M103 60V126.137C103 129.375 100.375 132 97.1368 132C95.2994 132 93.5682 131.139 92.46 129.673L41.54 62.327C40.4318 60.8614 38.7006 60 36.8632 60C33.625 60 31 62.625 31 65.8632V132" stroke="black" stroke-width="12" stroke-linecap="round" stroke-linejoin="round"/>
<path d="M96.957 32.9355C106.469 34.5765 115.262 38.3165 122.842 43.6621M138.337 59.1572C143.683 66.7373 147.422 75.5301 149.063 85.042M149.063 106.957C147.422 116.469 143.683 125.262 138.337 132.842M122.842 148.337C115.262 153.683 106.469 157.422 96.957 159.063" stroke="black" stroke-width="12"/>
<path d="M97 32C97 38.0751 92.0751 43 86 43C79.9249 43 75 38.0751 75 32C75 25.9249 79.9249 21 86 21C92.0751 21 97 25.9249 97 32Z" stroke="black" stroke-width="10"/>
<path d="M97 160C97 166.075 92.0751 171 86 171C79.9249 171 75 166.075 75 160C75 153.925 79.9249 149 86 149C92.0751 149 97 153.925 97 160Z" stroke="black" stroke-width="10"/>
<path d="M139.033 133.477C143.329 137.772 143.329 144.737 139.033 149.033C134.737 153.329 127.772 153.329 123.477 149.033C119.181 144.737 119.181 137.772 123.477 133.477C127.772 129.181 134.737 129.181 139.033 133.477Z" stroke="black" stroke-width="10"/>
<path d="M150 85C156.075 85 161 89.9249 161 96C161 102.075 156.075 107 150 107C143.925 107 139 102.075 139 96C139 89.9249 143.925 85 150 85Z" stroke="black" stroke-width="10"/>
<path d="M123.477 42.9671C127.772 38.6713 134.737 38.6713 139.033 42.9671C143.329 47.2628 143.329 54.2277 139.033 58.5234C134.737 62.8192 127.772 62.8192 123.477 58.5234C119.181 54.2277 119.181 47.2629 123.477 42.9671Z" stroke="black" stroke-width="10"/>
</svg>
