<svg width="192" height="192" viewBox="0 0 192 192" fill="none" xmlns="http://www.w3.org/2000/svg">
<path d="M102 62V124.168C102 127.389 99.3888 130 96.1678 130C94.3829 130 92.6962 129.183 91.5902 127.782L41.4098 64.2184C40.3038 62.8174 38.6171 62 36.8322 62C33.6112 62 31 64.6112 31 67.8322V130" stroke="black" stroke-width="12" stroke-linecap="round" stroke-linejoin="round"/>
<path d="M97.957 32.9355C107.469 34.5765 116.262 38.3165 123.842 43.6621M139.337 59.1572C144.683 66.7373 148.422 75.5301 150.063 85.042M150.063 106.957C148.422 116.469 144.683 125.262 139.337 132.842M123.842 148.337C116.262 153.683 107.469 157.422 97.957 159.063" stroke="black" stroke-width="12"/>
<path d="M98 32C98 38.0751 93.0751 43 87 43C80.9249 43 76 38.0751 76 32C76 25.9249 80.9249 21 87 21C93.0751 21 98 25.9249 98 32Z" stroke="black" stroke-width="10"/>
<path d="M98 160C98 166.075 93.0751 171 87 171C80.9249 171 76 166.075 76 160C76 153.925 80.9249 149 87 149C93.0751 149 98 153.925 98 160Z" stroke="black" stroke-width="10"/>
<path d="M140.033 133.477C144.329 137.772 144.329 144.737 140.033 149.033C135.737 153.329 128.772 153.329 124.477 149.033C120.181 144.737 120.181 137.772 124.477 133.477C128.772 129.181 135.737 129.181 140.033 133.477Z" stroke="black" stroke-width="10"/>
<path d="M151 85C157.075 85 162 89.9249 162 96C162 102.075 157.075 107 151 107C144.925 107 140 102.075 140 96C140 89.9249 144.925 85 151 85Z" stroke="black" stroke-width="10"/>
<path d="M124.477 42.9671C128.772 38.6713 135.737 38.6713 140.033 42.9671C144.329 47.2628 144.329 54.2277 140.033 58.5234C135.737 62.8192 128.772 62.8192 124.477 58.5234C120.181 54.2277 120.181 47.2629 124.477 42.9671Z" stroke="black" stroke-width="10"/>
</svg>
