<svg xmlns="http://www.w3.org/2000/svg" width="192" height="192" fill="none"><path stroke="#000" stroke-linecap="round" stroke-linejoin="round" stroke-width="12" d="M151 98v56c0 8.837-7.163 16-16 16H55c-8.837 0-16-7.163-16-16V48c0-8.837 7.163-16 16-16h80c8.837 0 16 7.163 16 16v4"/><path stroke="#000" stroke-linecap="round" stroke-linejoin="round" stroke-width="10" d="M150 52v3m2 40v3m-7.979-31.803 7.145-12.187c1.696-2.893 5.388-3.868 8.273-2.186l7.528 4.39c2.923 1.704 3.905 5.483 2.187 8.414l-7.089 12.09m-18.044-10.521-33.629 57.355L110 146l18.436-11.927 33.629-57.354m-18.044-10.522 18.044 10.522M90 146H58m32-20H58m38-20H58m50-20H58m62-20H58m37-45v22m18-22v22m18-22v22M77 21v22M59 21v22"/></svg>