<svg xmlns="http://www.w3.org/2000/svg" width="192" height="192" viewBox="0 0 192 192"><path d="m93.16 28.09 63.43 24.52v93.78L98.88 164l-63.47-17.82V52.36zm0-12.09a10.9 10.9 0 0 0-4.23.85L30.09 41.58a10.9 10.9 0 0 0-6.68 10.05V147a10.91 10.91 0 0 0 8 10.49L96 175.6a11 11 0 0 0 6.11-.07l58.79-17.9a10.89 10.89 0 0 0 7.73-10.42V51.86a10.89 10.89 0 0 0-7-10.17l-64.54-25a10.9 10.9 0 0 0-3.94-.69z"/><path fill="none" stroke="#000" stroke-linecap="round" stroke-linejoin="round" stroke-width="12" d="M50.02 118.55V75.08l26.83 37V68.6m30.38 12.54L143 90m-35.77 23.14L143 122m-35.75-24.91L132 103M32 149l61.22-17.85L160 149m-66.78-21V24"/></svg>