<svg xmlns="http://www.w3.org/2000/svg" width="192" height="192" fill="none" viewBox="0 0 192 192"><path stroke="#000" stroke-linecap="round" stroke-linejoin="round" stroke-width="8" d="M61 95V73a6 6 0 0 1 6-6h20a6 6 0 0 1 6 6v50a6 6 0 0 1-6 6H67a6 6 0 0 1-6-6v-15.5"/><path stroke="#000" stroke-linecap="round" stroke-linejoin="round" stroke-width="6" d="M61 79h31m-31 38h31m-65.5 26.5C38 141 43 134 44 131s1-4.5 1-7 2-4 2-8 1.5-14 4.5-15c4-2.5 19.5-7 22-4.5s-2.039 7.38-7 8c-4 .5-6.167 1.667-6.5 3M44 164l17-22c6-.167 14-5 16-13m16.125-49.937 3.624-17.145a6 6 0 0 1 7.158-4.62l33.744 7.417a6 6 0 0 1 4.575 7.136l-10.93 50.199a6 6 0 0 1-7.226 4.566l-30.632-7.147M105 68l28 6m-30 3 22.5 5M101 86l26 6m-32.125 30.375 18.363 11.367a6 6 0 0 0 8.355-2.103l2.532-4.389M140 84.875a5.374 5.374 0 0 1 2.875 7.404l-8.906 17.909"/><rect width="142" height="142" x="25" y="25" stroke="#000" stroke-linecap="round" stroke-linejoin="round" stroke-width="12" rx="6"/></svg>