<svg width="192" height="192" viewBox="0 0 192 192" fill="none" xmlns="http://www.w3.org/2000/svg"><path d="M110 28.05c0-5.38 6.463-8.073 10.243-4.27l40 40.258a6.06 6.06 0 0 1 1.757 4.27v95.641c0 5.38-6.463 8.074-10.243 4.27l-40-40.257a6.061 6.061 0 0 1-1.757-4.27V28.051Z" stroke="#000" stroke-width="12" stroke-linecap="round" stroke-linejoin="round"/><circle cx="5" cy="5" r="5" transform="matrix(1 0 0 -1 77 171)" stroke="#000" stroke-width="10" stroke-linecap="round" stroke-linejoin="round"/><circle cx="5" cy="5" r="5" transform="matrix(1 0 0 -1 52 101)" stroke="#000" stroke-width="10" stroke-linecap="round" stroke-linejoin="round"/><circle cx="4" cy="4" r="4" transform="matrix(1 0 0 -1 78 144)" stroke="#000" stroke-width="8" stroke-linecap="round" stroke-linejoin="round"/><circle cx="4" cy="4" r="4" transform="matrix(1 0 0 -1 78 120)" stroke="#000" stroke-width="8" stroke-linecap="round" stroke-linejoin="round"/><circle cx="4" cy="4" r="4" transform="matrix(1 0 0 -1 53 70)" stroke="#000" stroke-width="8" stroke-linecap="round" stroke-linejoin="round"/><circle cx="4" cy="4" r="4" transform="matrix(1 0 0 -1 53 130)" stroke="#000" stroke-width="8" stroke-linecap="round" stroke-linejoin="round"/><circle cx="3" cy="3" r="3" transform="matrix(1 0 0 -1 79 97)" stroke="#000" stroke-width="6" stroke-linecap="round" stroke-linejoin="round"/><circle cx="3" cy="3" r="3" transform="matrix(1 0 0 -1 79 77)" stroke="#000" stroke-width="6" stroke-linecap="round" stroke-linejoin="round"/><circle cx="3" cy="3" r="3" transform="matrix(1 0 0 -1 79 57)" stroke="#000" stroke-width="6" stroke-linecap="round" stroke-linejoin="round"/><circle cx="32" cy="26" r="5" stroke="#000" stroke-width="10" stroke-linecap="round" stroke-linejoin="round"/><circle cx="32" cy="52" r="4" stroke="#000" stroke-width="8" stroke-linecap="round" stroke-linejoin="round"/><circle cx="32" cy="76" r="4" stroke="#000" stroke-width="8" stroke-linecap="round" stroke-linejoin="round"/><circle cx="32" cy="98" r="3" stroke="#000" stroke-width="6" stroke-linecap="round" stroke-linejoin="round"/><circle cx="32" cy="118" r="3" stroke="#000" stroke-width="6" stroke-linecap="round" stroke-linejoin="round"/><circle cx="32" cy="138" r="3" stroke="#000" stroke-width="6" stroke-linecap="round" stroke-linejoin="round"/><circle cx="57" cy="152" r="3" stroke="#000" stroke-width="6" stroke-linecap="round" stroke-linejoin="round"/><circle cx="57" cy="40" r="3" stroke="#000" stroke-width="6" stroke-linecap="round" stroke-linejoin="round"/></svg>