<svg xmlns="http://www.w3.org/2000/svg" width="192" height="192" fill="none" viewBox="0 0 192 192"><rect width="60" height="60" x="110" y="110" stroke="#000" stroke-linejoin="round" stroke-width="12" rx="12"/><path stroke="#000" stroke-linejoin="round" stroke-width="12" d="M117.111 69.167a5.72 5.72 0 0 0 5.722 5.722h7.686l5.435 5.435a5.72 5.72 0 0 0 8.092 0l5.435-5.435h7.686a5.72 5.72 0 0 0 5.722-5.722V61.48l5.435-5.435a5.72 5.72 0 0 0 0-8.092l-5.435-5.435v-7.686a5.72 5.72 0 0 0-5.722-5.722h-7.686l-5.435-5.435a5.72 5.72 0 0 0-8.092 0l-5.435 5.435h-7.686a5.72 5.72 0 0 0-5.722 5.722v7.686l-5.435 5.435a5.72 5.72 0 0 0 0 8.092l5.435 5.435z"/><rect width="60" height="148" x="22" y="22" stroke="#000" stroke-linejoin="round" stroke-width="12" rx="30"/></svg>