<svg xmlns="http://www.w3.org/2000/svg" width="192" height="192" fill="none"><path stroke="#000" stroke-linecap="round" stroke-linejoin="round" stroke-width="8" d="M29 24a4 4 0 1 1-8 0 4 4 0 0 1 8 0m0 24a4 4 0 1 1-8 0 4 4 0 0 1 8 0m31 0a4 4 0 1 1-8 0 4 4 0 0 1 8 0M29 72a4 4 0 1 1-8 0 4 4 0 0 1 8 0m62 0a4 4 0 1 1-8 0 4 4 0 0 1 8 0m-31 0a4 4 0 1 1-8 0 4 4 0 0 1 8 0m-31 48a4 4 0 1 1-8 0 4 4 0 0 1 8 0m62 0a4 4 0 1 1-8 0 4 4 0 0 1 8 0m-31 0a4 4 0 1 1-8 0 4 4 0 0 1 8 0M29 96a4 4 0 1 1-8 0 4 4 0 0 1 8 0m62 0a4 4 0 1 1-8 0 4 4 0 0 1 8 0m-31 0a4 4 0 1 1-8 0 4 4 0 0 1 8 0m31 48a4 4 0 1 1-8 0 4 4 0 0 1 8 0m-31 0a4 4 0 1 1-8 0 4 4 0 0 1 8 0m31 24a4 4 0 1 1-8 0 4 4 0 0 1 8 0"/><path stroke="#000" stroke-linecap="round" stroke-linejoin="round" stroke-width="12" d="m167.243 70.077-46-46.296C117.463 19.977 111 22.67 111 28.05v89.602c0 1.602.632 3.138 1.757 4.27l46 46.296c3.78 3.804 10.243 1.11 10.243-4.27V74.347a6.06 6.06 0 0 0-1.757-4.27"/></svg>