<svg xmlns="http://www.w3.org/2000/svg" width="192" height="192" fill="none"><path stroke="#000" stroke-linecap="round" stroke-linejoin="round" stroke-width="12" d="M110 28.05c0-5.38 6.463-8.073 10.243-4.27l40 40.258a6.06 6.06 0 0 1 1.757 4.27v95.641c0 5.38-6.463 8.074-10.243 4.27l-40-40.257a6.06 6.06 0 0 1-1.757-4.27V28.051Z"/><circle cx="5" cy="5" r="5" stroke="#000" stroke-linecap="round" stroke-linejoin="round" stroke-width="10" transform="matrix(1 0 0 -1 77 171)"/><circle cx="5" cy="5" r="5" stroke="#000" stroke-linecap="round" stroke-linejoin="round" stroke-width="10" transform="matrix(1 0 0 -1 52 101)"/><circle cx="4" cy="4" r="4" stroke="#000" stroke-linecap="round" stroke-linejoin="round" stroke-width="8" transform="matrix(1 0 0 -1 78 144)"/><circle cx="4" cy="4" r="4" stroke="#000" stroke-linecap="round" stroke-linejoin="round" stroke-width="8" transform="matrix(1 0 0 -1 78 120)"/><circle cx="4" cy="4" r="4" stroke="#000" stroke-linecap="round" stroke-linejoin="round" stroke-width="8" transform="matrix(1 0 0 -1 53 70)"/><circle cx="4" cy="4" r="4" stroke="#000" stroke-linecap="round" stroke-linejoin="round" stroke-width="8" transform="matrix(1 0 0 -1 53 130)"/><circle cx="3" cy="3" r="3" stroke="#000" stroke-linecap="round" stroke-linejoin="round" stroke-width="6" transform="matrix(1 0 0 -1 79 97)"/><circle cx="3" cy="3" r="3" stroke="#000" stroke-linecap="round" stroke-linejoin="round" stroke-width="6" transform="matrix(1 0 0 -1 79 77)"/><circle cx="3" cy="3" r="3" stroke="#000" stroke-linecap="round" stroke-linejoin="round" stroke-width="6" transform="matrix(1 0 0 -1 79 57)"/><circle cx="32" cy="26" r="5" stroke="#000" stroke-linecap="round" stroke-linejoin="round" stroke-width="10"/><circle cx="32" cy="52" r="4" stroke="#000" stroke-linecap="round" stroke-linejoin="round" stroke-width="8"/><circle cx="32" cy="76" r="4" stroke="#000" stroke-linecap="round" stroke-linejoin="round" stroke-width="8"/><circle cx="32" cy="98" r="3" stroke="#000" stroke-linecap="round" stroke-linejoin="round" stroke-width="6"/><circle cx="32" cy="118" r="3" stroke="#000" stroke-linecap="round" stroke-linejoin="round" stroke-width="6"/><circle cx="32" cy="138" r="3" stroke="#000" stroke-linecap="round" stroke-linejoin="round" stroke-width="6"/><circle cx="57" cy="152" r="3" stroke="#000" stroke-linecap="round" stroke-linejoin="round" stroke-width="6"/><circle cx="57" cy="40" r="3" stroke="#000" stroke-linecap="round" stroke-linejoin="round" stroke-width="6"/></svg>