<svg width="192" height="192" viewBox="0 0 192 192" fill="none" xmlns="http://www.w3.org/2000/svg"><path d="M81.335 34.666a32.998 32.998 0 0 0-53.823 10.706 33 33 0 0 0 7.154 35.963m46.669 76a32.997 32.997 0 0 1-35.964 7.153 32.997 32.997 0 0 1-17.859-43.117 33.014 33.014 0 0 1 7.154-10.706m75.999 46.67a33.004 33.004 0 0 1 0-46.67 33.004 33.004 0 0 1 46.67 0 33.004 33.004 0 0 1 0 46.67 33.004 33.004 0 0 1-46.67 0h0Z" stroke="#000" stroke-width="12" stroke-linecap="round" stroke-linejoin="round"/><path d="M110.665 157.335a33.004 33.004 0 0 0 46.67 0 33.004 33.004 0 0 0 0-46.67m-46.67-75.999A33.002 33.002 0 0 1 167 58a33.003 33.003 0 0 1-9.665 23.335M34.67 81.33 49.34 96m61.33 61.33L96 142.66m-61.33-31.99L49.34 96m61.33-61.33L96 49.34M81.33 34.67 96 49.34m61.33 61.33L142.66 96m-61.33 61.33L96 142.66m61.33-61.33L142.66 96m-93.32 0L96 142.66m0-93.32L142.66 96" stroke="#000" stroke-width="12" stroke-linecap="round" stroke-linejoin="round"/></svg>