<svg width="192" height="192" viewBox="0 0 192 192" fill="none" xmlns="http://www.w3.org/2000/svg">
<rect x="109" y="109" width="58" height="58" rx="12" stroke="black" stroke-width="12" stroke-linejoin="round"/>
<path d="M115.874 70.5947C115.874 73.6497 118.35 76.1263 121.405 76.1263H128.835L134.089 81.3798C136.249 83.5401 139.751 83.5401 141.911 81.3798L147.165 76.1263H154.595C157.65 76.1263 160.126 73.6497 160.126 70.5947V63.165L165.38 57.9114C167.54 55.7512 167.54 52.2488 165.38 50.0886L160.126 44.835V37.4053C160.126 34.3503 157.65 31.8737 154.595 31.8737H147.165L141.911 26.6202C139.751 24.4599 136.249 24.4599 134.089 26.6202L128.835 31.8737H121.405C118.35 31.8737 115.874 34.3503 115.874 37.4053V44.835L110.62 50.0886C108.46 52.2488 108.46 55.7512 110.62 57.9114L115.874 63.165V70.5947Z" stroke="black" stroke-width="12" stroke-linejoin="round"/>
<rect x="25" y="25" width="58" height="142" rx="29" stroke="black" stroke-width="12" stroke-linejoin="round"/>
</svg>
