<svg xmlns="http://www.w3.org/2000/svg" width="192" height="192" fill="none"><path stroke="#000" stroke-linecap="round" stroke-linejoin="round" stroke-width="12" d="m167.243 70.077-46-46.296C117.463 19.977 111 22.67 111 28.05v89.602c0 1.602.632 3.138 1.757 4.27l46 46.296c3.78 3.804 10.243 1.11 10.243-4.27V74.347a6.06 6.06 0 0 0-1.757-4.27"/><path stroke="#000" stroke-linecap="round" stroke-linejoin="round" stroke-width="10" d="M85 161a5 5 0 1 1 0 10 5 5 0 0 1 0-10M56 91a5 5 0 1 1 0 10 5 5 0 0 1 0-10"/><path stroke="#000" stroke-linecap="round" stroke-linejoin="round" stroke-width="8" d="M85 136a4 4 0 1 1 0 8 4 4 0 0 1 0-8m0-24a4 4 0 1 1 0 8 4 4 0 0 1 0-8M56 62a4 4 0 1 1 0 8 4 4 0 0 1 0-8m0 60a4 4 0 1 1 0 8 4 4 0 0 1 0-8"/><path stroke="#000" stroke-linecap="round" stroke-linejoin="round" stroke-width="6" d="M85 91a3 3 0 1 1 0 6 3 3 0 0 1 0-6m0-20a3 3 0 1 1 0 6 3 3 0 0 1 0-6m0-20a3 3 0 1 1 0 6 3 3 0 0 1 0-6"/><path stroke="#000" stroke-linecap="round" stroke-linejoin="round" stroke-width="10" d="M27 31a5 5 0 1 0 0-10 5 5 0 0 0 0 10"/><path stroke="#000" stroke-linecap="round" stroke-linejoin="round" stroke-width="8" d="M27 56a4 4 0 1 0 0-8 4 4 0 0 0 0 8m0 24a4 4 0 1 0 0-8 4 4 0 0 0 0 8"/><path stroke="#000" stroke-linecap="round" stroke-linejoin="round" stroke-width="6" d="M27 101a3 3 0 1 0 0-6 3 3 0 0 0 0 6m0 20a3 3 0 1 0 0-6 3 3 0 0 0 0 6m0 20a3 3 0 1 0 0-6 3 3 0 0 0 0 6m29 14a3 3 0 1 0 0-6 3 3 0 0 0 0 6m0-112a3 3 0 1 0 0-6 3 3 0 0 0 0 6"/></svg>