<svg width="192" height="192" fill="none" xmlns="http://www.w3.org/2000/svg"><path d="m167.243 70.077-46-46.296C117.463 19.977 111 22.67 111 28.05v89.602c0 1.602.632 3.138 1.757 4.27l46 46.296c3.78 3.804 10.243 1.11 10.243-4.27V74.347a6.059 6.059 0 0 0-1.757-4.27Z" stroke="#000" stroke-width="12" stroke-linecap="round" stroke-linejoin="round"/><path d="m27 20 1.416 4.202H33l-3.708 2.596L30.708 31 27 28.403 23.292 31l1.416-4.202L21 24.202h4.584L27 20Zm0 28 1.416 4.202H33l-3.708 2.596L30.708 59 27 56.403 23.292 59l1.416-4.202L21 52.202h4.584L27 48Zm29 0 1.416 4.202H62l-3.708 2.596L59.708 59 56 56.403 52.292 59l1.416-4.202L50 52.202h4.584L56 48ZM27 76l1.416 4.202H33l-3.708 2.596L30.708 87 27 84.403 23.292 87l1.416-4.202L21 80.202h4.584L27 76Zm29 0 1.416 4.202H62l-3.708 2.596L59.708 87 56 84.403 52.292 87l1.416-4.202L50 80.202h4.584L56 76Zm29 0 1.416 4.202H91l-3.708 2.596L88.708 87 85 84.403 81.292 87l1.416-4.202L79 80.202h4.584L85 76Zm-58 28 1.416 4.202H33l-3.708 2.596L30.708 115 27 112.403 23.292 115l1.416-4.202L21 108.202h4.584L27 104Zm29 0 1.416 4.202H62l-3.708 2.596L59.708 115 56 112.403 52.292 115l1.416-4.202L50 108.202h4.584L56 104Zm29 0 1.416 4.202H91l-3.708 2.596L88.708 115 85 112.403 81.292 115l1.416-4.202L79 108.202h4.584L85 104Zm-29 28 1.416 4.202H62l-3.708 2.596L59.708 143 56 140.403 52.292 143l1.416-4.202L50 136.202h4.584L56 132Zm29 0 1.416 4.202H91l-3.708 2.596L88.708 143 85 140.403 81.292 143l1.416-4.202L79 136.202h4.584L85 132Zm0 29 1.416 4.202H91l-3.708 2.596L88.708 172 85 169.403 81.292 172l1.416-4.202L79 165.202h4.584L85 161Z" stroke="#000" stroke-width="8" stroke-linecap="round" stroke-linejoin="round"/></svg>