<svg width="192" height="192" viewBox="0 0 192 192" fill="none" xmlns="http://www.w3.org/2000/svg"><circle cx="136" cy="136" r="34" stroke="#000" stroke-width="12" stroke-linecap="round" stroke-linejoin="round"/><path d="M80.042 31.958a34 34 0 0 0-48.084 48.084m.002-.002L47.92 96m64.04 64.04L96 144.08M80.04 31.96 96 47.92m64.04 64.04L144.08 96m-32.122-64.042A34.012 34.012 0 0 1 136 22a33.998 33.998 0 0 1 34 34 33.993 33.993 0 0 1-9.958 24.042m-80 80A34.007 34.007 0 0 1 56 170a33.993 33.993 0 0 1-24.042-9.958A34.012 34.012 0 0 1 22 136a33.998 33.998 0 0 1 9.958-24.042M160.04 80.04 144.08 96m-64.04 64.04L96 144.08m15.96-112.12L96 47.92m-64.04 64.04L47.92 96M96 47.92 144.08 96M96 144.08 47.92 96" stroke="#000" stroke-width="12" stroke-linecap="round" stroke-linejoin="round"/></svg>