<svg xmlns="http://www.w3.org/2000/svg" width="192" height="192" fill="none"><path stroke="#000" stroke-linecap="round" stroke-linejoin="round" stroke-width="12" d="M80.184 26.257 43.72 47.417A31.57 31.57 0 0 0 28 74.728v42.544a31.58 31.58 0 0 0 15.72 27.311l36.464 21.16a31.51 31.51 0 0 0 31.632 0l36.464-21.16A31.58 31.58 0 0 0 164 117.272V74.728a31.58 31.58 0 0 0-15.72-27.31l-36.464-21.16a31.51 31.51 0 0 0-31.632 0Z"/><circle cx="96" cy="96" r="6" stroke="#000" stroke-linecap="round" stroke-linejoin="round" stroke-width="12"/><path stroke="#000" stroke-linecap="round" stroke-linejoin="round" stroke-width="12" d="M96 64V47m27.715 32.996 14.723-8.5m-14.718 40.5 14.723 8.5M96 145v-17m-42.433-7.504 14.723-8.5m-14.718-40.5 14.723 8.5"/></svg>