<svg width="192" height="192" fill="none" xmlns="http://www.w3.org/2000/svg"><path d="M80.184 26.257 43.72 47.417A31.574 31.574 0 0 0 28 74.728v42.544a31.575 31.575 0 0 0 15.72 27.311l36.464 21.16a31.51 31.51 0 0 0 31.632 0l36.464-21.16A31.576 31.576 0 0 0 164 117.272V74.728a31.575 31.575 0 0 0-15.72-27.31l-36.464-21.16a31.508 31.508 0 0 0-31.632 0Z" stroke="#000" stroke-width="12" stroke-linecap="round" stroke-linejoin="round"/><circle cx="96" cy="96" r="6" stroke="#000" stroke-width="12" stroke-linecap="round" stroke-linejoin="round"/><path d="M96 64V47m27.715 32.996 14.723-8.5m-14.718 40.5 14.723 8.5M96 145v-17m-42.433-7.504 14.723-8.5m-14.718-40.5 14.723 8.5" stroke="#000" stroke-width="12" stroke-linecap="round" stroke-linejoin="round"/></svg>