<svg width="192" height="192" viewBox="0 0 192 192" fill="none" xmlns="http://www.w3.org/2000/svg"><path d="M25.947 32.662a6 6 0 0 1 5.708-5.936l95.271-4.625a5.998 5.998 0 0 1 3.766 1.102l33.783 24.003A6 6 0 0 1 167 52.097v106.208c0 3.192-2.5 5.825-5.687 5.992l-106.069 5.534a6.002 6.002 0 0 1-5.159-2.455l-23.913-32.77a6.002 6.002 0 0 1-1.153-3.594l.928-98.35ZM26 34l26 24m0 0 115-6M52 58v110" stroke="#000" stroke-width="12" stroke-linecap="round" stroke-linejoin="round"/><path d="M84 142V82l50 57V79" stroke="#000" stroke-width="12" stroke-linecap="round" stroke-linejoin="round"/></svg>
