<svg width="192" height="192" viewBox="0 0 192 192" fill="none" xmlns="http://www.w3.org/2000/svg"><path d="m55 51.988 107-7.518c3.314-.235 6 2.261 6 5.575v106c0 3.313-2.686 6.19-6 6.425l-107 7.518c-3.314.235-6-2.261-6-5.575v-106c0-3.313 2.686-6.19 6-6.425Z" stroke="#000" stroke-width="12"/><path d="M24 148.37v-112c0-3.314 2.686-6.19 6-6.425L142 22" stroke="#000" stroke-width="12" stroke-linecap="round"/><path d="M134.1 141.436v-48l-13 9.922m0 39 26-1.844m-75.523-33.681c.676-2.211 2.045-4.266 3.952-5.933 1.908-1.666 4.277-2.877 6.84-3.495 2.56-.62 5.189-.622 7.663-.006 2.445.616 4.585 1.824 6.175 3.487 1.59 1.665 2.569 3.718 2.826 5.93.256 2.211-.221 4.489-1.377 6.581-1.156 2.09-2.944 3.909-5.163 5.249a16.65 16.65 0 0 1-7.393 2.334c2.613-.185 5.174.26 7.393 1.286 2.219 1.025 4.007 2.588 5.163 4.516a10.096 10.096 0 0 1 1.377 6.386c-.256 2.247-1.236 4.439-2.826 6.329-1.591 1.89-3.731 3.402-6.176 4.364a16.555 16.555 0 0 1-7.662 1.082c-2.563-.256-4.932-1.131-6.84-2.526-1.906-1.396-3.276-3.257-3.952-5.372" stroke="#000" stroke-width="12" stroke-linecap="round" stroke-linejoin="round"/><path d="m49.838 77.413 118-9.369" stroke="#000" stroke-width="12"/></svg>
