<?xml version="1.0" encoding="UTF-8" standalone="no"?>
<svg
   width="192"
   height="192"
   viewBox="0 0 192 192"
   fill="none"
   version="1.1"
   id="svg4"
   sodipodi:docname="Lawnicons.svg"
   inkscape:version="1.4.2 (f4327f4, 2025-05-13)"
   inkscape:export-filename="notice_fix.svg"
   inkscape:export-xdpi="96"
   inkscape:export-ydpi="96"
   xml:space="preserve"
   xmlns:inkscape="http://www.inkscape.org/namespaces/inkscape"
   xmlns:sodipodi="http://sodipodi.sourceforge.net/DTD/sodipodi-0.dtd"
   xmlns="http://www.w3.org/2000/svg"
   xmlns:svg="http://www.w3.org/2000/svg"><defs
     id="defs4"><linearGradient
       id="swatch5"
       inkscape:swatch="solid"
       inkscape:label="Lawn Gold"><stop
         style="stop-color:#ff9900;stop-opacity:1;"
         offset="0"
         id="stop5" /></linearGradient><linearGradient
       id="swatch4"
       inkscape:swatch="solid"
       inkscape:label="Lawn Blue"><stop
         style="stop-color:#3b8aff;stop-opacity:1;"
         offset="0"
         id="stop4" /></linearGradient></defs><sodipodi:namedview
     id="namedview4"
     pagecolor="#ffffff"
     bordercolor="#999999"
     borderopacity="1"
     inkscape:showpageshadow="2"
     inkscape:pageopacity="0"
     inkscape:pagecheckerboard="0"
     inkscape:deskcolor="#d1d1d1"
     inkscape:zoom="4.1458333"
     inkscape:cx="95.879398"
     inkscape:cy="95.758795"
     inkscape:window-width="1920"
     inkscape:window-height="1009"
     inkscape:window-x="-8"
     inkscape:window-y="-8"
     inkscape:window-maximized="1"
     inkscape:current-layer="layer2"><inkscape:page
       x="0"
       y="0"
       width="192"
       height="192"
       id="page1"
       margin="0"
       bleed="0" /></sodipodi:namedview><inkscape:templateinfo><inkscape:name>Lawnicon</inkscape:name><inkscape:date>2025-12-24</inkscape:date></inkscape:templateinfo><g
     inkscape:groupmode="layer"
     id="layer2"
     inkscape:label="icon"
     inkscape:highlight-color="#6667ab"><g
       style="fill:none"
       id="g1"><path
         stroke="#000000"
         stroke-linecap="round"
         stroke-linejoin="round"
         stroke-width="12"
         d="m 110.906,155.46 c 10e-4,1.91002 -0.37198,3.80176 -1.099,5.568 -0.72413,1.76411 -1.78912,3.36806 -3.134,4.72 -1.3405,1.34996 -2.93521,2.42092 -4.692,3.151 -1.75401,0.72835 -3.634777,1.10253 -5.534,1.101 h -0.894 c -1.899223,0.002 -3.779989,-0.37265 -5.534,-1.101 -1.755543,-0.7324 -3.349824,-1.80307 -4.692,-3.151 -1.343208,-1.35351 -2.408263,-2.95704 -3.135,-4.72 -0.726676,-1.76631 -1.099723,-3.65805 -1.098,-5.568 M 106.812,42.277 v -12.28 c -0.71816,-2.314808 -2.15537,-4.340494 -4.103,-5.783 C 100.76678,22.777911 98.415486,22.001974 96,22 c -2.415713,5.64e-4 -4.767435,0.776643 -6.709,2.214 -1.947086,1.442398 -3.383918,3.467694 -4.102,5.782 v 12.28 m 21.53183,3.309251 C 103.28662,44.822354 99.696038,44.417 96,44.417 c -24.753,0 -44.776,18.14 -44.776,40.18 l -0.438,41.842 c -5.003867,4.95576 -9.933089,9.98633 -14.786,15.09 v 7.11 h 120 v -7.11 c -4.85302,-5.10357 -9.78224,-10.13413 -14.786,-15.09 -0.139,-14.96 -0.285,-6.907 -0.438,-21.841"
         id="path1"
         sodipodi:nodetypes="ccccccccccccccccccscccccccc" /><g
         style="fill:none"
         id="g2"
         transform="translate(-93,-53)" /><path
         id="path3"
         style="fill:none;stroke:#000000;stroke-width:12;stroke-linecap:round;stroke-linejoin:round"
         d="m 126.68356,66.012961 h 19.191 m -19.31205,19.808394 4.4e-4,-19.808394 -4.4e-4,-15.226386 c -1e-4,-3.324 2.676,-6 6,-6 h 17.18593" /></g></g><inkscape:templateinfo><inkscape:name>Lawnicons</inkscape:name><inkscape:date>2025-12-24</inkscape:date></inkscape:templateinfo><inkscape:templateinfo><inkscape:name>Lawnicon</inkscape:name><inkscape:shortdesc>用于设计 LawnchairLauncher/lawnicons 的模板</inkscape:shortdesc><inkscape:date>2025-12-24</inkscape:date></inkscape:templateinfo></svg>
