<?xml version="1.0" encoding="UTF-8" standalone="no"?>
<svg
   width="192"
   height="192"
   viewBox="0 0 192 192"
   fill="none"
   version="1.1"
   id="svg4"
   xml:space="preserve"
   xmlns="http://www.w3.org/2000/svg"
   xmlns:svg="http://www.w3.org/2000/svg"><defs
     id="defs4"><linearGradient
       id="swatch5"><stop
         style="stop-color:#ff9900;stop-opacity:1;"
         offset="0"
         id="stop5" /></linearGradient><linearGradient
       id="swatch4"><stop
         style="stop-color:#3b8aff;stop-opacity:1;"
         offset="0"
         id="stop4" /></linearGradient></defs><g
     id="layer2"><g
       style="fill:none"
       id="g1"><path
         stroke="#000000"
         stroke-linecap="round"
         stroke-linejoin="round"
         stroke-width="12"
         d="m 105.83249,155.45949 c 10e-4,1.91002 -0.37148,3.80175 -1.0975,5.56798 -0.72316,1.76411 -1.78671,3.36805 -3.12976,4.71998 -1.33868,1.34996 -2.93123,2.42091 -4.685642,3.15099 -1.751635,0.72835 -3.629853,1.10253 -5.526502,1.101 h -0.892788 c -1.896648,0.001 -3.774866,-0.37265 -5.526501,-1.101 -1.753163,-0.7324 -3.345285,-1.80306 -4.685642,-3.15099 -1.341387,-1.3535 -2.404998,-2.95702 -3.130751,-4.71998 -0.725692,-1.7663 -1.098234,-3.65802 -1.096513,-5.56798 M 101.74404,42.276923 V 29.996969 C 101.02685,27.68217 99.5916,25.656491 97.646601,24.213991 95.70701,22.777907 93.358905,22.001973 90.946692,22 c -2.412439,5.64e-4 -4.760975,0.776639 -6.699909,2.213991 -1.944448,1.442392 -3.379331,3.46768 -4.096441,5.781978 v 12.279954 m 33.212008,7.583143 c -6.58777,-3.455131 -14.24359,-5.442151 -22.415658,-5.442151 -24.719456,0 -44.715322,18.139931 -44.715322,40.179846 l -0.437408,41.841849 c -4.997086,4.95574 -9.919628,9.98629 -14.765962,15.08995 v 7.10996 h 119.83738 v -7.10996 c -4.84644,-5.10356 -9.76897,-10.13411 -14.76595,-15.08995 -0.13882,-14.95995 -0.28463,-4.26788 -0.43743,-19.20182"
         id="path1"
         style="display:inline" /><path
         style="fill:none;stroke:#000000;stroke-width:12;stroke-linecap:round;stroke-linejoin:round"
         d="m 135.6724,84.79797 -0.009,-18.706557 -0.0118,-25.364389 h 25.3214"
         id="path3" /><path
         style="fill:none;stroke:#000000;stroke-width:12;stroke-linecap:round;stroke-linejoin:round"
         d="m 136.88284,64.895181 h 19.73467"
         id="path4" /></g></g></svg>
