<svg xmlns="http://www.w3.org/2000/svg" width="192" height="192" fill="none"><path stroke="#000" stroke-linecap="round" stroke-linejoin="round" stroke-width="12" d="M124 125a28 28 0 0 1-56 0m0-58a28 28 0 1 1 56 0m-56 0v58m56-58v58"/><path stroke="#000" stroke-linecap="round" stroke-linejoin="round" stroke-width="10" d="M81 21v6c0 8-4 20-4 20m4 124v-6c0-8-4-20-4-20m34-124v6c0 8 4 20 4 20m-4 124v-6c0-8 4-20 4-20"/><circle cx="104" cy="88" r="3" stroke="#000" stroke-linecap="round" stroke-linejoin="round" stroke-width="6"/><path stroke="#000" stroke-linecap="round" stroke-linejoin="round" stroke-width="8" d="M86 86v14a6 6 0 0 0 6 6h14"/></svg>