<svg xmlns="http://www.w3.org/2000/svg" width="192" height="192" fill="none" viewBox="0 0 192 192"><path stroke="#000" stroke-linecap="round" stroke-linejoin="round" stroke-width="12" d="M22 31a6 6 0 0 1 6-6h136a6 6 0 0 1 6 6v102a6 6 0 0 1-6 6H78a6 6 0 0 0-6 6v25l-34.312-29.547A6 6 0 0 0 33.773 139H28a6 6 0 0 1-6-6z"/><circle cx="96" cy="82" r="5" stroke="#000" stroke-linecap="round" stroke-linejoin="round" stroke-width="10"/><circle cx="134" cy="82" r="5" stroke="#000" stroke-linecap="round" stroke-linejoin="round" stroke-width="10"/><circle cx="58" cy="82" r="5" stroke="#000" stroke-linecap="round" stroke-linejoin="round" stroke-width="10"/></svg>