<svg xmlns="http://www.w3.org/2000/svg" width="192" height="192" fill="none"><path stroke="#000" stroke-linecap="round" stroke-linejoin="round" stroke-width="12" d="M110.906 155.46a14.6 14.6 0 0 1-1.099 5.568 14.5 14.5 0 0 1-7.826 7.871A14.4 14.4 0 0 1 96.447 170h-.894a14.4 14.4 0 0 1-10.226-4.252 14.6 14.6 0 0 1-3.135-4.72 14.6 14.6 0 0 1-1.098-5.568m4.095-113.184v-11.37c0-.603.08-1.207.304-1.767a11.4 11.4 0 0 1 3.798-4.925A11.28 11.28 0 0 1 96 22a11.3 11.3 0 0 1 6.709 2.214 11.4 11.4 0 0 1 3.793 4.91c.229.57.308 1.186.305 1.8l-.086 14.661A49.4 49.4 0 0 0 96 44.417c-24.753 0-44.776 18.14-44.776 40.18l-.438 41.842A704 704 0 0 0 36 141.529v7.11h120v-7.11a704 704 0 0 0-14.786-15.09c-.139-14.96-.285-6.907-.438-21.841"/><path stroke="#000" stroke-linecap="round" stroke-linejoin="round" stroke-width="12" d="M126.684 66.013h19.191M126.563 85.82V50.787a5.986 5.986 0 0 1 6-6h17.185"/></svg>