<svg width="160" height="160" viewBox="0 0 160 160" fill="none" xmlns="http://www.w3.org/2000/svg">
<mask id="path-1-outside-1_228_355" maskUnits="userSpaceOnUse" x="1" y="14" width="158" height="133" fill="black">
<rect fill="white" x="1" y="14" width="158" height="133"/>
<path fill-rule="evenodd" clip-rule="evenodd" d="M54.2886 20.1354C46.9538 21.3808 46.6351 32.4947 53.8805 34.3721C60.7617 36.1553 65.5654 29.2639 61.6083 23.2865C60.3589 21.3994 59.1538 20.6019 56.9586 20.2102C55.4707 19.9447 55.4193 19.9433 54.2886 20.1354ZM29.8788 24.5735C24.5569 25.5145 19.8041 37.5693 23.67 40.3221C25.6111 41.7043 27.3163 40.6536 27.9886 37.6614C29.5566 30.6802 30.9954 29.3887 35.0348 31.3356C39.5022 33.4892 39.6907 34.7244 36.1846 38.8749C31.7208 44.1597 30.7737 45.3312 29.9404 46.6014C28.8299 48.2929 28.1882 49.8052 28.0218 51.1218C26.799 60.7934 21.5275 67.4289 12.4211 70.7584C8.31131 72.2609 7.65763 72.6464 7.20975 73.8312C5.81165 77.532 11.6364 78.2246 17.7412 75.0832C24.1758 71.7723 27.5412 68.2034 31.1154 60.9001C33.1583 56.7257 33.3159 56.6239 35.789 57.8751C39.5398 59.7728 42.9587 62.5128 42.9587 63.621C42.9587 65.2483 40.0027 67.4015 34.9352 69.4648C29.0579 71.8578 28.648 72.1724 28.8379 74.1445C28.9826 75.6519 30.1559 76.7849 31.5721 76.7849C34.4997 76.7849 44.4001 72.0485 46.3966 69.6927C47.5371 68.3473 48.5103 65.8755 48.5887 64.1273C48.7524 60.4575 47.176 58.1751 42.2505 54.9532C38.9799 52.8133 38.9693 52.6907 41.7845 49.4834C43.8792 47.097 44.2868 47.0373 45.4269 48.9488C48.3647 53.8737 50.902 55.1793 57.121 54.9682C64.4178 54.7204 68.5403 50.488 64.1367 47.7662L63.5061 47.3763L61.7738 47.8481C60.8214 48.1079 59.4446 48.485 58.7143 48.6859C54.3585 49.8857 51.2782 48.8527 50.6466 45.98C50.0983 43.4852 50.0553 43.2369 50.0474 42.5071C50.0394 41.7291 49.2627 39.0183 48.6002 37.4547C45.4242 29.961 36.0173 23.4888 29.8788 24.5735ZM101.796 27.2166C98.58 27.4976 95.9352 29.5609 94.9872 32.5275L94.5628 33.8552V48.6372V63.4192L94.9611 64.5699C95.6369 66.5221 97.9286 68.9753 99.5749 69.5086C101.288 70.0636 143.668 70.2534 146.627 69.7192C148.282 69.4209 150.586 67.5351 151.775 65.5059C152.446 64.3601 152.52 62.5208 152.531 46.5385L152.54 33.0218L151.912 31.826C151.084 30.2509 149.419 28.5939 147.964 27.8973L146.841 27.3591L140.706 27.2073C133.454 27.0276 103.873 27.0347 101.796 27.2166ZM142.317 37.3423C143.24 38.4102 141.997 40.0057 136.392 44.9435C133.64 47.3679 133.067 48.0052 133.067 48.6416C133.067 49.1037 134.799 50.8678 137.935 53.6011C142.351 57.4497 143.132 58.465 142.545 59.5998C141.716 61.2032 140.697 60.6084 134.439 54.8669C129.706 50.5243 130.137 50.6611 127.775 52.7531C123.365 56.6589 123.678 56.6372 119.921 53.2993C116.802 50.5292 117.507 50.3438 111.938 55.3966C106.321 60.4938 105.662 60.9027 104.666 59.9078C103.635 58.8757 104.457 57.6361 108.541 54.0702C112.432 50.6726 113.948 49.1347 113.948 48.5828C113.948 48.0087 113.642 47.6941 108.632 43.1041C104.025 38.8833 103.658 38.3615 104.596 37.3631C105.498 36.4022 106.23 36.7222 109.079 39.3223C110.15 40.3 111.393 41.4215 111.841 41.8145C113.823 43.5533 116.974 46.3991 118.876 48.1672C123.709 52.6611 123.097 52.6828 128.482 47.8211C130.196 46.2738 132.619 44.092 133.866 42.9722C135.114 41.8525 137.045 40.1132 138.157 39.1068C140.789 36.7249 141.516 36.4164 142.317 37.3423ZM63.3171 111.127C59.1055 111.265 57.9832 111.478 55.8849 112.541C42.9901 119.076 44.5338 135.606 58.4488 139.991C60.408 140.609 62.9918 140.667 86.1539 140.609L107.663 140.556L109.168 140.119C124.778 135.575 125.015 115.94 109.513 111.553L107.84 111.079L87.4816 111.041C76.2845 111.02 65.4104 111.059 63.3171 111.127ZM108.46 114.317C121.27 117.811 121.27 134.136 108.46 137.287C106.728 137.712 61.7486 137.846 60.1257 137.43C48.0129 134.327 46.2302 120.661 57.2193 115.147C59.7681 113.869 60.8382 113.826 87.9242 113.929C105.791 113.997 107.399 114.028 108.46 114.317ZM61.2812 117.49C54.8666 119.408 52.5701 125.701 56.4187 130.813C61.2941 137.288 71.8145 133.889 71.8145 125.839C71.8145 120.296 66.3593 115.972 61.2812 117.49ZM66.0075 120.02C69.9499 121.831 70.8395 126.937 67.7689 130.129C62.9205 135.17 54.5368 129.536 57.4087 123.167C58.8444 119.982 62.7855 118.54 66.0075 120.02Z"/>
</mask>
<path fill-rule="evenodd" clip-rule="evenodd" d="M54.2886 20.1354C46.9538 21.3808 46.6351 32.4947 53.8805 34.3721C60.7617 36.1553 65.5654 29.2639 61.6083 23.2865C60.3589 21.3994 59.1538 20.6019 56.9586 20.2102C55.4707 19.9447 55.4193 19.9433 54.2886 20.1354ZM29.8788 24.5735C24.5569 25.5145 19.8041 37.5693 23.67 40.3221C25.6111 41.7043 27.3163 40.6536 27.9886 37.6614C29.5566 30.6802 30.9954 29.3887 35.0348 31.3356C39.5022 33.4892 39.6907 34.7244 36.1846 38.8749C31.7208 44.1597 30.7737 45.3312 29.9404 46.6014C28.8299 48.2929 28.1882 49.8052 28.0218 51.1218C26.799 60.7934 21.5275 67.4289 12.4211 70.7584C8.31131 72.2609 7.65763 72.6464 7.20975 73.8312C5.81165 77.532 11.6364 78.2246 17.7412 75.0832C24.1758 71.7723 27.5412 68.2034 31.1154 60.9001C33.1583 56.7257 33.3159 56.6239 35.789 57.8751C39.5398 59.7728 42.9587 62.5128 42.9587 63.621C42.9587 65.2483 40.0027 67.4015 34.9352 69.4648C29.0579 71.8578 28.648 72.1724 28.8379 74.1445C28.9826 75.6519 30.1559 76.7849 31.5721 76.7849C34.4997 76.7849 44.4001 72.0485 46.3966 69.6927C47.5371 68.3473 48.5103 65.8755 48.5887 64.1273C48.7524 60.4575 47.176 58.1751 42.2505 54.9532C38.9799 52.8133 38.9693 52.6907 41.7845 49.4834C43.8792 47.097 44.2868 47.0373 45.4269 48.9488C48.3647 53.8737 50.902 55.1793 57.121 54.9682C64.4178 54.7204 68.5403 50.488 64.1367 47.7662L63.5061 47.3763L61.7738 47.8481C60.8214 48.1079 59.4446 48.485 58.7143 48.6859C54.3585 49.8857 51.2782 48.8527 50.6466 45.98C50.0983 43.4852 50.0553 43.2369 50.0474 42.5071C50.0394 41.7291 49.2627 39.0183 48.6002 37.4547C45.4242 29.961 36.0173 23.4888 29.8788 24.5735ZM101.796 27.2166C98.58 27.4976 95.9352 29.5609 94.9872 32.5275L94.5628 33.8552V48.6372V63.4192L94.9611 64.5699C95.6369 66.5221 97.9286 68.9753 99.5749 69.5086C101.288 70.0636 143.668 70.2534 146.627 69.7192C148.282 69.4209 150.586 67.5351 151.775 65.5059C152.446 64.3601 152.52 62.5208 152.531 46.5385L152.54 33.0218L151.912 31.826C151.084 30.2509 149.419 28.5939 147.964 27.8973L146.841 27.3591L140.706 27.2073C133.454 27.0276 103.873 27.0347 101.796 27.2166ZM142.317 37.3423C143.24 38.4102 141.997 40.0057 136.392 44.9435C133.64 47.3679 133.067 48.0052 133.067 48.6416C133.067 49.1037 134.799 50.8678 137.935 53.6011C142.351 57.4497 143.132 58.465 142.545 59.5998C141.716 61.2032 140.697 60.6084 134.439 54.8669C129.706 50.5243 130.137 50.6611 127.775 52.7531C123.365 56.6589 123.678 56.6372 119.921 53.2993C116.802 50.5292 117.507 50.3438 111.938 55.3966C106.321 60.4938 105.662 60.9027 104.666 59.9078C103.635 58.8757 104.457 57.6361 108.541 54.0702C112.432 50.6726 113.948 49.1347 113.948 48.5828C113.948 48.0087 113.642 47.6941 108.632 43.1041C104.025 38.8833 103.658 38.3615 104.596 37.3631C105.498 36.4022 106.23 36.7222 109.079 39.3223C110.15 40.3 111.393 41.4215 111.841 41.8145C113.823 43.5533 116.974 46.3991 118.876 48.1672C123.709 52.6611 123.097 52.6828 128.482 47.8211C130.196 46.2738 132.619 44.092 133.866 42.9722C135.114 41.8525 137.045 40.1132 138.157 39.1068C140.789 36.7249 141.516 36.4164 142.317 37.3423ZM63.3171 111.127C59.1055 111.265 57.9832 111.478 55.8849 112.541C42.9901 119.076 44.5338 135.606 58.4488 139.991C60.408 140.609 62.9918 140.667 86.1539 140.609L107.663 140.556L109.168 140.119C124.778 135.575 125.015 115.94 109.513 111.553L107.84 111.079L87.4816 111.041C76.2845 111.02 65.4104 111.059 63.3171 111.127ZM108.46 114.317C121.27 117.811 121.27 134.136 108.46 137.287C106.728 137.712 61.7486 137.846 60.1257 137.43C48.0129 134.327 46.2302 120.661 57.2193 115.147C59.7681 113.869 60.8382 113.826 87.9242 113.929C105.791 113.997 107.399 114.028 108.46 114.317ZM61.2812 117.49C54.8666 119.408 52.5701 125.701 56.4187 130.813C61.2941 137.288 71.8145 133.889 71.8145 125.839C71.8145 120.296 66.3593 115.972 61.2812 117.49ZM66.0075 120.02C69.9499 121.831 70.8395 126.937 67.7689 130.129C62.9205 135.17 54.5368 129.536 57.4087 123.167C58.8444 119.982 62.7855 118.54 66.0075 120.02Z" stroke="black" stroke-width="12" mask="url(#path-1-outside-1_228_355)"/>
</svg>
