<svg xmlns="http://www.w3.org/2000/svg" width="192" height="192" fill="none" viewBox="0 0 192 192"><path stroke="#000" stroke-linecap="round" stroke-linejoin="round" stroke-width="12" d="M51 90v54a6 6 0 0 0 6 6h78a6 6 0 0 0 6-6V90m0 0a45.012 45.012 0 0 0-45-45 45.001 45.001 0 0 0-45 45"/><path stroke="#000" stroke-linecap="round" stroke-linejoin="round" stroke-width="10" d="M106 32.5a11.499 11.499 0 0 1-22.125 4.4A11.501 11.501 0 1 1 106 32.5"/><path stroke="#000" stroke-linecap="round" stroke-linejoin="round" stroke-width="12" d="M87 164a6 6 0 1 1-12 0 6 6 0 0 1 12 0"/></svg>