<svg width="192" height="192" viewBox="0 0 192 192" fill="none" xmlns="http://www.w3.org/2000/svg"><path d="M22 31a6 6 0 0 1 6-6h136a6 6 0 0 1 6 6v102a6 6 0 0 1-6 6H78a6 6 0 0 0-6 6v25l-34.312-29.547A6.003 6.003 0 0 0 33.773 139H28a6 6 0 0 1-6-6V31Z" stroke="#000" stroke-width="12" stroke-linecap="round" stroke-linejoin="round"/><circle cx="96" cy="82" r="5" stroke="#000" stroke-width="10" stroke-linecap="round" stroke-linejoin="round"/><circle cx="134" cy="82" r="5" stroke="#000" stroke-width="10" stroke-linecap="round" stroke-linejoin="round"/><circle cx="58" cy="82" r="5" stroke="#000" stroke-width="10" stroke-linecap="round" stroke-linejoin="round"/></svg>