<?xml version="1.0" encoding="UTF-8" standalone="no"?>
<!-- Created with Inkscape (http://www.inkscape.org/) -->

<svg
   width="192"
   height="192.00002"
   viewBox="0 0 50.800001 50.800005"
   version="1.1"
   id="svg1"
   xml:space="preserve"
   sodipodi:docname="notvpn.svg"
   inkscape:export-filename="notvpn.svg"
   inkscape:export-xdpi="96"
   inkscape:export-ydpi="96"
   xmlns:inkscape="http://www.inkscape.org/namespaces/inkscape"
   xmlns:sodipodi="http://sodipodi.sourceforge.net/DTD/sodipodi-0.dtd"
   xmlns="http://www.w3.org/2000/svg"
   xmlns:svg="http://www.w3.org/2000/svg"><sodipodi:namedview
     id="namedview1"
     pagecolor="#505050"
     bordercolor="#eeeeee"
     borderopacity="1"
     inkscape:showpageshadow="0"
     inkscape:pageopacity="0"
     inkscape:pagecheckerboard="0"
     inkscape:deskcolor="#505050"><inkscape:page
       x="0"
       y="0"
       width="50.799999"
       height="50.800007"
       id="page2"
       margin="0"
       bleed="0" /></sodipodi:namedview><defs
     id="defs1" /><path
     style="fill:#000000;fill-opacity:0;stroke:#000000;stroke-width:3.175;stroke-linecap:round;stroke-linejoin:round;stroke-dasharray:none;stroke-opacity:1"
     d="M 7.3169366,38.94681 C 5.6785813,35.243036 7.0481877,30.612411 10.347782,28.699555 c 1.225536,-0.837955 3.089823,-1.933474 3.025556,-3.536771 -0.05095,-1.271097 -0.54939,-1.658528 -2.105185,-2.453716 -2.2016386,-1.125284 -4.554471,-3.302811 -4.554471,-7.470327 0,-5.4924647 4.094319,-8.2962746 8.547178,-8.2962746 3.685166,0 6.331089,1.633754 7.837438,4.8393106 1.526283,3.247976 0.04097,6.779782 1.174485,8.938955 1.525434,2.905721 5.679233,6.047922 6.602936,6.190906 2.467628,0.381975 3.398712,-2.204167 1.037547,-3.757646 -2.804725,-1.84531 -4.43546,-4.69649 -4.43546,-7.915251 0,-3.32466 1.710091,-6.0366176 4.74692,-7.5279456 2.129478,-1.045746 5.042734,-1.076373 7.096607,-0.07461 4.001912,1.951908 5.817511,6.4895746 4.261066,10.6495426 -0.699108,1.868535 -2.066735,3.356333 -4.169704,4.536088 -2.763738,1.550447 -2.730862,3.605214 0.08317,5.197285 3.077328,1.611428 4.512447,4.201267 4.52619,7.546589 -0.0028,9.557616 -10.867313,9.913544 -14.447289,5.682158 -1.523426,-1.800629 -1.743122,-3.500121 -2.146397,-6.994539 -0.706638,-6.123088 -4.692043,-9.203402 -6.821129,-10.355461 -2.45784,-1.329949 -3.97569,1.712864 -2.465027,3.097681 1.20356,1.103297 2.177373,1.441583 3.54509,3.243262 1.791716,2.360206 1.945413,6.139617 0.964392,8.708015 -0.598149,1.566004 -2.966129,4.915599 -7.667366,4.915599 -0.917974,0 -5.5968633,-0.234825 -7.6673924,-4.915595 z"
     id="path2" /></svg>
