<svg width="192" height="192" viewBox="0 0 192 192" fill="none" xmlns="http://www.w3.org/2000/svg">
<path d="M71 102C71 102 66.5934 105.292 64 105.897C60.3324 106.752 57 102.997 57 102.997M71 102C71 102 75.4066 105.292 78 105.897C81.6676 106.752 86 102.997 86 102.997M71 102V93M68 91.5C68 91.5 68.897 91 71 91C73.103 91 74 91.5 74 91.5" stroke="black" stroke-width="10" stroke-linecap="round" stroke-linejoin="round"/>
<path d="M41 52.5465V37.0929C41 25.407 53.2084 18.1678 62.8463 24.1388L157.929 83.0458C167.357 88.8867 167.357 103.113 157.929 108.954L62.8463 167.861C53.2084 173.832 41 166.593 41 154.907V137" stroke="black" stroke-width="12" stroke-linecap="round" stroke-linejoin="round"/>
<path d="M71 127C52.7746 127 38 114.912 38 100C38 97.6742 38.3594 95.4171 39.0353 93.2638C34.9193 91.6728 32 87.6773 32 83C32 76.9249 36.9249 72 43 72C47.1099 72 50.6934 74.254 52.5818 77.5933C57.8422 74.693 64.1795 73 71 73" stroke="black" stroke-width="10" stroke-linecap="round" stroke-linejoin="round"/>
<path d="M71 127C89.2254 127 104 114.912 104 100C104 97.6742 103.641 95.4171 102.965 93.2638C107.081 91.6728 110 87.6773 110 83C110 76.9249 105.075 72 99 72C94.8901 72 91.3066 74.254 89.4182 77.5933C84.1578 74.693 77.8205 73 71 73" stroke="black" stroke-width="10" stroke-linecap="round" stroke-linejoin="round"/>
</svg>
