<svg width="192" height="192" viewBox="0 0 192 192" fill="none" xmlns="http://www.w3.org/2000/svg">
<path d="M73 125C54.6957 125 39.8571 112.912 39.8571 98C39.8571 97.601 39.8678 97.204 39.8888 96.8092C39.9543 95.5804 38.9954 94.5061 37.8314 94.1068C34.7922 93.0644 33 89.9459 33 86.2609C33 81.7225 36.5817 78.0435 41 78.0435C42.7074 78.0435 44.3171 78.5439 45.6336 79.4487C46.6203 80.127 48.0123 80.2295 48.9197 79.4482C54.961 74.2457 63.5152 71 73 71" stroke="black" stroke-width="10" stroke-linecap="round"/>
<path d="M73 125C91.3043 125 106.143 112.912 106.143 98C106.143 97.601 106.132 97.204 106.111 96.8092C106.046 95.5804 107.005 94.5061 108.169 94.1068C111.208 93.0644 113 89.9459 113 86.2609C113 81.7225 109.418 78.0435 105 78.0435C103.293 78.0435 101.683 78.5439 100.366 79.4487C99.3797 80.127 97.9877 80.2295 97.0803 79.4482C91.039 74.2457 82.4848 71 73 71" stroke="black" stroke-width="10" stroke-linecap="round"/>
<path d="M58 102.997C58 102.997 62.3324 107.752 66 106.897C68.5934 106.292 73 102 73 102C73 102 77.4066 106.292 80 106.897C83.6676 107.752 88 102.997 88 102.997" stroke="black" stroke-width="10" stroke-linecap="round" stroke-linejoin="round"/>
<path d="M73 101V93.5" stroke="black" stroke-width="8" stroke-linecap="round" stroke-linejoin="round"/>
<path d="M36 57.5465V37.0929C36 25.407 48.2084 18.1678 57.8463 24.1388L152.929 83.0458C162.357 88.8867 162.357 103.113 152.929 108.954L57.8463 167.861C48.2084 173.832 36 166.593 36 154.907V129.454" stroke="black" stroke-width="12" stroke-linecap="round" stroke-linejoin="round"/>
<ellipse cx="73" cy="90" rx="6" ry="2" stroke="black" stroke-width="6"/>
</svg>
