<svg width="192" height="192" viewBox="0 0 192 192" fill="none" xmlns="http://www.w3.org/2000/svg">
<path d="M40.5 94.4783C36.0817 94.4783 32.5 90.7992 32.5 86.2609C32.5 81.7225 36.0817 78.0435 40.5 78.0435C43.008 78.0435 45.2464 79.2289 46.7132 81.084M39.6365 94.4783C39.4522 95.6309 39.3571 96.8064 39.3571 98C39.3571 112.912 54.1957 125 72.5 125C90.8043 125 105.643 112.912 105.643 98C105.643 96.8064 105.548 95.6309 105.363 94.4783M46.7717 80.9783C52.8487 74.8898 62.1167 71 72.5 71C82.8833 71 92.1513 74.8898 98.2283 80.9783M104.5 94.4783C108.918 94.4783 112.5 90.7992 112.5 86.2609C112.5 81.7225 108.918 78.0435 104.5 78.0435C101.992 78.0435 99.7536 79.2289 98.2868 81.084" stroke="black" stroke-width="10" stroke-linecap="round"/>
<ellipse cx="72.5" cy="94" rx="5" ry="2" stroke="black" stroke-width="4"/>
<path d="M72.5 94V101.29M72.5 101.29C72.5 101.29 69.7747 104.485 67.7 104.935C64.7659 105.572 60.5 101.29 60.5 101.29M72.5 101.29C72.5 101.29 75.2253 104.485 77.3 104.935C80.2341 105.572 84.5 101.29 84.5 101.29" stroke="black" stroke-width="8" stroke-linecap="round" stroke-linejoin="round"/>
<path d="M35.5 57.5465V37.0929C35.5 25.407 47.7084 18.1678 57.3463 24.1388L152.429 83.0458C161.857 88.8867 161.857 103.113 152.429 108.954L57.3463 167.861C47.7084 173.832 35.5 166.593 35.5 154.907V129.454" stroke="black" stroke-width="12" stroke-linecap="round" stroke-linejoin="round"/>
</svg>
