<svg width="192" height="192" viewBox="0 0 192 192" fill="none" xmlns="http://www.w3.org/2000/svg">
<path d="M41 94.4783C36.5817 94.4783 33 90.7992 33 86.2609C33 81.7225 36.5817 78.0435 41 78.0435C43.508 78.0435 45.7464 79.2289 47.2132 81.084M40.1365 94.4783C39.9522 95.6309 39.8571 96.8064 39.8571 98C39.8571 112.912 54.6957 125 73 125C91.3043 125 106.143 112.912 106.143 98C106.143 96.8064 106.048 95.6309 105.863 94.4783M47.2717 80.9783C53.3487 74.8898 62.6167 71 73 71C83.3833 71 92.6513 74.8898 98.7283 80.9783M105 94.4783C109.418 94.4783 113 90.7992 113 86.2609C113 81.7225 109.418 78.0435 105 78.0435C102.492 78.0435 100.254 79.2289 98.7868 81.084" stroke="black" stroke-width="10" stroke-linecap="round"/>
<ellipse cx="73" cy="96" rx="5" ry="2" stroke="black" stroke-width="4"/>
<path d="M73 96V103.29M73 103.29C73 103.29 70.2747 106.485 68.2 106.935C65.2659 107.572 61 103.29 61 103.29M73 103.29C73 103.29 75.7253 106.485 77.8 106.935C80.7341 107.572 85 103.29 85 103.29" stroke="black" stroke-width="8" stroke-linecap="round" stroke-linejoin="round"/>
<path d="M36 57.5465V37.0929C36 25.407 48.2084 18.1678 57.8463 24.1388L152.929 83.0458C162.357 88.8867 162.357 103.113 152.929 108.954L57.8463 167.861C48.2084 173.832 36 166.593 36 154.907V129.454" stroke="black" stroke-width="12" stroke-linecap="round" stroke-linejoin="round"/>
</svg>
