<svg xmlns="http://www.w3.org/2000/svg" width="192" height="192" fill="none"><path stroke="#000" stroke-linecap="round" stroke-linejoin="round" stroke-width="10" d="M67 103s-3 3.897-8 3.897-8-2.9-8-2.9M67 103V92m0 11s3 3.897 8 3.897 8-2.9 8-2.9M64 90.5s.897-.5 3-.5 3 .5 3 .5"/><path stroke="#000" stroke-linecap="round" stroke-linejoin="round" stroke-width="12" d="M41 51V37.093c0-11.686 12.208-18.925 21.846-12.954l95.083 58.907c9.428 5.84 9.428 20.067 0 25.908l-95.083 58.907C53.208 173.832 41 166.593 41 154.907V144"/><path stroke="#000" stroke-linecap="round" stroke-linejoin="round" stroke-width="10" d="M67 130c-19.627 0-35.538-13.187-35.538-29.455 0-2.537.387-5 1.115-7.348C28.144 91.46 25 87.103 25 82c0-6.627 5.304-12 11.846-12 4.426 0 8.285 2.459 10.319 6.102C52.83 72.938 59.655 71.09 67 71.09M67 130c19.627 0 35.538-13.187 35.538-29.455 0-2.537-.386-5-1.114-7.348C105.856 91.46 109 87.103 109 82c0-6.627-5.304-12-11.846-12-4.426 0-8.285 2.459-10.319 6.102C81.17 72.938 74.345 71.09 67 71.09"/></svg>