<svg xmlns="http://www.w3.org/2000/svg" width="256" height="256" viewBox="0 0 192 192" preserveAspectRatio="xMidYMid meet" xmlns:v="https://vecta.io/nano"><path d="M70 32.1c-12.9 7.1-24.3 13.9-25.2 15-1.7 2-1.8 5.8-1.8 49.4s.1 47.4 1.8 49.3c1.9 2.3 48.9 28.2 51.1 28.2 1.3 0 48.3-25.1 50.9-27.2.9-.8 1.2-12.1 1.2-50.4V47l-3.7-2.3C134.2 38.4 97.2 19 95.4 19.1c-1 .1-12.5 5.9-25.4 13zm56.5 14.7l11 6 .3 43.5.2 43.5-20.4 11.1c-11.3 6.1-21 11.1-21.8 11.1-.7 0-10.3-4.9-21.3-10.9l-20-10.9V96.5 52.8L75 41.5l20.5-11.3 10 5.3 21 11.3zM81 60.4c-6.3 3.5-12.4 7.6-13.5 9.1-1.9 2.5-2 4.2-2 27.5 0 23.6.1 25 2.1 27.7 2.9 4 23.9 15.3 28.4 15.3s25.5-11.3 28.4-15.3c2-2.7 2.1-4.1 2.1-27.7 0-23.3-.1-25-2-27.5-3-4-24.2-15.5-28.5-15.5-2.4 0-7 2-15 6.4zm25.6 9.7l9.4 5.1-.2 22-.3 22-9.7 5.4L96 130l-9.7-5.4-9.8-5.4-.3-22-.2-22 9.2-5.1c5.1-2.8 9.9-5.1 10.7-5.1.7 0 5.6 2.3 10.7 5.1zM28.7 55.8c-1.5 1.7-1.7 6.1-1.7 42.5 0 44.4 0 44.2 5.9 43.5 5-.6 5.1-2 4.9-45.1-.3-38.1-.4-39.9-2.2-41.3-2.7-1.9-5-1.8-6.9.4zm127.7-.4c-1.8 1.4-1.9 3.2-2.2 41.3-.2 43.1-.1 44.5 4.9 45.1 5.9.7 5.9 1 5.9-43.7 0-38.2-.1-40.9-1.8-42.4-2.3-2.1-4.2-2.1-6.8-.3z"/></svg>