<svg xmlns="http://www.w3.org/2000/svg" width="192" height="192" fill="none"><path stroke="#000" stroke-linecap="round" stroke-linejoin="round" stroke-width="12" d="M129.728 52.435h-15.055a6 6 0 0 0-6 6v18.891a6 6 0 0 1-6 6H89.326a6 6 0 0 1-6-6V58.435a6 6 0 0 0-6-6H62.272m67.456 0-28.107-28.107a7.95 7.95 0 0 0-11.242 0L62.272 52.435m67.456 0 9.837 9.837m0 0 28.107 28.107a7.95 7.95 0 0 1 0 11.242l-28.107 28.107m0-67.456v67.456m0 0-9.837 9.837m0 0-28.107 28.107a7.95 7.95 0 0 1-11.242 0l-28.107-28.107m67.456 0h-15.055a6 6 0 0 1-6-6v-18.892a6 6 0 0 0-6-6H89.326a6 6 0 0 0-6 6v18.892a6 6 0 0 1-6 6H62.272m0 0-9.837-9.837m0 0-28.107-28.107a7.95 7.95 0 0 1 0-11.242l28.107-28.107m0 67.456V62.272m0 0 9.837-9.837"/></svg>