<svg id="svg" version="1.1" xmlns="http://www.w3.org/2000/svg" xmlns:xlink="http://www.w3.org/1999/xlink" width="400" height="400" viewBox="0, 0, 400,400"><g id="svgg"><path id="path0" d="M170.131 59.188 C 162.105 68.648,148.556 83.782,140.021 92.817 C 125.896 107.772,124.595 110.202,125.520 119.901 C 126.620 131.442,124.885 132.486,112.461 127.763 C 103.409 124.321,103.627 124.196,71.279 151.389 C 41.163 176.706,40.026 179.681,53.280 198.484 L 62.115 211.019 53.280 222.013 C 40.697 237.670,41.726 243.388,60.014 259.428 C 88.978 284.832,102.916 294.771,107.750 293.466 C 125.645 288.634,127.030 288.765,125.840 295.185 C 124.961 299.924,129.973 306.963,147.072 325.000 C 159.382 337.986,173.515 353.885,178.477 360.331 C 187.463 372.002,202.632 377.236,202.879 368.750 C 202.935 366.840,216.060 351.657,232.046 335.009 C 255.404 310.684,261.111 303.147,261.111 296.627 C 261.111 290.251,262.151 288.797,265.972 289.832 C 286.936 295.516,284.176 296.847,326.873 260.453 C 346.645 243.600,347.496 240.158,336.013 223.469 C 327.019 210.396,328.134 201.745,340.095 191.819 C 347.811 185.415,345.198 176.299,332.639 165.803 C 326.146 160.377,317.083 152.586,312.500 148.491 C 289.671 128.093,286.759 126.694,273.472 129.734 L 261.111 132.563 261.111 119.337 C 261.111 108.195,259.688 104.630,252.083 96.712 C 247.118 91.542,233.228 77.042,221.217 64.490 C 193.583 35.610,190.411 35.280,170.131 59.188 M247.222 218.056 L 247.222 280.556 239.158 280.556 C 233.205 280.556,228.867 283.282,222.585 290.972 L 214.075 301.389 213.982 290.972 L 213.889 280.556 177.778 280.556 L 141.667 280.556 141.667 218.056 L 141.667 155.556 194.444 155.556 L 247.222 155.556 247.222 218.056 M171.062 197.188 C 152.023 216.736,149.041 225.000,161.024 225.000 C 165.840 225.000,166.667 226.789,166.667 237.215 L 166.667 249.430 190.972 250.616 C 219.087 251.988,222.444 250.040,220.243 233.631 C 218.952 224.007,219.386 223.126,225.301 223.358 C 234.449 223.716,235.025 216.001,226.535 206.839 C 221.863 201.798,219.444 196.011,219.444 189.872 C 219.444 180.525,205.703 174.779,205.467 184.028 C 205.413 186.148,203.942 185.608,201.689 182.639 C 195.598 174.615,190.852 176.869,171.062 197.188 M205.586 207.386 C 212.638 214.862,213.520 216.665,208.922 214.204 C 202.813 210.935,202.712 211.113,204.469 222.096 L 206.266 233.333 193.968 233.333 L 181.671 233.333 182.806 223.611 C 183.588 216.916,182.820 213.889,180.340 213.889 C 178.359 213.889,180.331 210.139,184.722 205.556 C 194.648 195.195,194.037 195.142,205.586 207.386 " stroke="none" fill="#000000" fill-rule="evenodd"></path></g></svg>