<?xml version="1.0" standalone="no"?>
<!DOCTYPE svg PUBLIC "-//W3C//DTD SVG 20010904//EN"
 "http://www.w3.org/TR/2001/REC-SVG-20010904/DTD/svg10.dtd">
<svg version="1.0" xmlns="http://www.w3.org/2000/svg"
 width="192.000000pt" height="192.000000pt" viewBox="0 0 192.000000 192.000000"
 preserveAspectRatio="xMidYMid meet">

<g transform="translate(0.000000,192.000000) scale(0.100000,-0.100000)"
fill="#000000" stroke="none">
<path d="M700 1599 c-129 -71 -243 -139 -252 -150 -17 -20 -18 -58 -18 -494 0
-436 1 -474 18 -493 19 -23 489 -282 511 -282 13 0 483 251 509 272 9 8 12
121 12 504 l0 494 -37 23 c-101 63 -471 257 -489 256 -10 -1 -125 -59 -254
-130z m565 -147 l110 -60 3 -435 2 -435 -204 -111 c-113 -61 -210 -111 -218
-111 -7 0 -103 49 -213 109 l-200 109 0 437 0 437 205 113 205 113 100 -53
c55 -30 150 -81 210 -113z"/>
<path d="M835 1265 c-55 -29 -105 -62 -112 -71 -10 -13 -13 -78 -13 -254 0
-213 2 -238 18 -252 33 -30 209 -118 234 -118 25 0 195 87 231 118 15 14 17
39 17 257 0 218 -2 243 -17 257 -34 29 -210 118 -234 118 -13 0 -69 -25 -124
-55z"/>
<path d="M287 1362 c-15 -17 -17 -61 -17 -425 0 -444 0 -442 59 -435 50 6 51
20 49 451 -3 381 -4 399 -22 413 -27 19 -50 18 -69 -4z"/>
<path d="M1564 1366 c-18 -14 -19 -32 -22 -413 -2 -431 -1 -445 49 -451 59 -7
59 -10 59 437 0 382 -1 409 -18 424 -23 21 -42 21 -68 3z"/>
</g>
</svg>
