<svg xmlns="http://www.w3.org/2000/svg" width="192" height="192" fill="none"><path stroke="#000" stroke-linecap="round" stroke-linejoin="round" stroke-width="12" d="M22 42v32m26-19v19m20-32v46m102 12v12m-68-12v37m-21 15s3 1 8 1M48 55a13 13 0 0 0-26 0"/><ellipse cx="81" cy="58" stroke="#000" stroke-linecap="round" stroke-linejoin="round" stroke-width="12" rx="13" ry="16"/><ellipse cx="89" cy="116" stroke="#000" stroke-linecap="round" stroke-linejoin="round" stroke-width="12" rx="13" ry="16"/><ellipse cx="136" cy="116" stroke="#000" stroke-linecap="round" stroke-linejoin="round" stroke-width="12" rx="14" ry="16"/><circle cx="170" cy="132" r="3" stroke="#000" stroke-linecap="round" stroke-linejoin="round" stroke-width="6"/><path stroke="#000" stroke-linecap="round" stroke-linejoin="round" stroke-width="12" d="M102 137c0 2.101-.336 4.182-.99 6.123s-1.61 3.705-2.818 5.191-2.64 2.664-4.217 3.468A10.9 10.9 0 0 1 89 153"/></svg>