<svg width="192" height="192" fill="none" xmlns="http://www.w3.org/2000/svg"><path d="M22 42v32m26-19v19m20-32v46m102 12v12m-68-12v37m-21 15s3 1 8 1M48 55a13 13 0 0 0-26 0" stroke="#000" stroke-width="12" stroke-linecap="round" stroke-linejoin="round"/><ellipse cx="81" cy="58" rx="13" ry="16" stroke="#000" stroke-width="12" stroke-linecap="round" stroke-linejoin="round"/><ellipse cx="89" cy="116" rx="13" ry="16" stroke="#000" stroke-width="12" stroke-linecap="round" stroke-linejoin="round"/><ellipse cx="136" cy="116" rx="14" ry="16" stroke="#000" stroke-width="12" stroke-linecap="round" stroke-linejoin="round"/><circle cx="170" cy="132" r="3" stroke="#000" stroke-width="6" stroke-linecap="round" stroke-linejoin="round"/><path d="M102 137c0 2.101-.336 4.182-.99 6.123-.653 1.941-1.61 3.705-2.818 5.191-1.207 1.485-2.64 2.664-4.217 3.468A10.922 10.922 0 0 1 89 153" stroke="#000" stroke-width="12" stroke-linecap="round" stroke-linejoin="round"/></svg>