<svg width="192" height="192" fill="none" xmlns="http://www.w3.org/2000/svg"><path d="M109.188 166a40.19 40.19 0 0 1-4.386-18.273c0-23.744 20.745-42.892 46.469-42.892 6.638 0 13.039 1.313 18.729 3.72M91 124l16 7m23.644-23.104L124.5 94.5" stroke="#000" stroke-width="12" stroke-linecap="round"/><path d="M22 60a6 6 0 0 1 6-6h74.858c1.385 0 2.728.48 3.8 1.356l18.684 15.288a6.002 6.002 0 0 0 3.8 1.356H164a6 6 0 0 1 6 6v82a6 6 0 0 1-6 6H28a6 6 0 0 1-6-6V60Z" stroke="#000" stroke-width="12" stroke-linecap="round" stroke-linejoin="round"/><path d="M158 72V32a6 6 0 0 0-6-6H40a6 6 0 0 0-6 6v21" stroke="#000" stroke-width="12" stroke-linecap="round" stroke-linejoin="round"/><circle cx="148" cy="128" r="4" stroke="#000" stroke-width="8" stroke-linecap="round"/><circle cx="128" cy="144" r="4" stroke="#000" stroke-width="8" stroke-linecap="round"/></svg>