<svg width="192" height="192" viewBox="0 0 192 192" fill="none" xmlns="http://www.w3.org/2000/svg"><path d="m26.914 105.869-1.41-1.409c-4.672-4.672-4.672-12.247 0-16.92L87.54 25.504c4.672-4.672 12.247-4.672 16.92 0l1.409 1.41m47.938 47.937 12.689 12.69c4.672 4.672 4.672 12.246 0 16.919l-62.036 62.036c-4.672 4.672-12.247 4.672-16.92 0l-12.689-12.689m1.35-32.351-12.728-12.728a6 6 0 0 0-8.485 0l-8.486 8.485a6.001 6.001 0 0 0 0 8.486l12.728 12.728m31.113-31.114L96 112.97m21.213-66.468-8.485 8.486a6 6 0 0 0 0 8.485l8.485 8.485a6 6 0 0 0 8.485 0l8.486-8.485a6 6 0 0 0 0-8.485l-8.486-8.486a6 6 0 0 0-8.485 0ZM86.1 77.615l-8.485 8.486a6 6 0 0 0 0 8.485l12.728 12.728 12.728-12.728a6 6 0 0 0 0-8.485l-8.485-8.486a6 6 0 0 0-8.486 0Z" stroke="#000" stroke-width="12" stroke-linecap="round" stroke-linejoin="round"/></svg>