<svg xmlns="http://www.w3.org/2000/svg" viewBox="0 0 192 192"><path fill="none" stroke="#000" stroke-linecap="round" stroke-linejoin="round" stroke-width="12" d="M89.487 16.5v136.267c-.193 3.984.335 7.974 1.523 11.504 1.187 3.53 2.986 6.457 5.186 8.441 2.2 1.984 4.713 2.943 7.245 2.767h4.187m-35.308 0v-74.948c.097-11.843-2.786-23.276-8.014-31.784-5.227-8.507-12.385-13.413-19.897-13.638-7.511.227-14.667 5.134-19.894 13.641-5.226 8.507-8.109 19.94-8.013 31.781v74.948m0-74.941V55.115"/><path fill="none" stroke="#000" stroke-linecap="round" stroke-linejoin="round" stroke-width="12" d="m89.487 52.972 30.194.033 27.912 120.37L175.5 53.005"/></svg>