<svg id="nubank" xmlns="http://www.w3.org/2000/svg" viewBox="0 0 24 24"><path id="path2" d="M5.61,7.52A3.3,3.3,0,0,1,8.07,6.46C10,6.46,11.26,7.87,11.5,10a27.14,27.14,0,0,1,.08,2.76v4.54H8.94v-3.1s0-2.65,0-3.14C8.85,8.88,7.58,7.53,5.61,7.52a3.72,3.72,0,0,0-1,2.58v7.18H2V12c0-.33,0-.67,0-1a4.08,4.08,0,0,1,.38-1.6,3.49,3.49,0,0,1,3.09-1.9Z"/><path id="path4" d="M22,13c0-.33,0-.67,0-1V6.72H19.35V13.9a3.72,3.72,0,0,1-1,2.58c-2,0-3.24-1.36-3.31-3.52,0-.49,0-1.72,0-3.15V6.72H12.42v4.54A27.14,27.14,0,0,0,12.5,14c.24,2.11,1.51,3.52,3.43,3.52a3.3,3.3,0,0,0,2.46-1.06h.13a3.49,3.49,0,0,0,3.09-1.9A4.08,4.08,0,0,0,22,13Z"/></svg>