<svg xmlns="http://www.w3.org/2000/svg" width="192" height="192" fill="none" stroke="#000" stroke-width="12" stroke-linejoin="round" xmlns:v="https://vecta.io/nano"><path d="M22.091 88.167c-.199 3.709 0 7.503 0 11.19v35.714h19.543v-32.724-21.123c.34-8.835 2.703-14.588 7.108-19.305-.338-.015-.678-.022-1.021-.022a25.38 25.38 0 0 0-13.337 3.878c-4.018 2.513-7.29 6.103-9.463 10.383-1.907 3.787-2.599 7.863-2.83 12.01z"/><path d="M66.894 54a24.09 24.09 0 0 0-9.915 2.015c-3.133 1.367-5.956 3.387-8.288 5.93 14.559 0 23.983 10.163 24.512 26.334.119 3.709.159 23.578.159 23.578v23.214h19.543v-31.374c0-9.484.076-17.696-.568-23.367C90.526 64.545 81.102 54 66.894 54zm103.019 48.833c.199-3.709 0-7.504 0-11.19V55.925H150.37v32.721 21.141c-.343 8.827-2.707 14.595-7.111 19.313a23.02 23.02 0 0 0 1.021.022 25.39 25.39 0 0 0 13.335-3.877c4.018-2.513 7.291-6.102 9.464-10.38 1.911-3.809 2.613-7.886 2.834-12.032z"/><path d="M125.102 137c3.406.039 6.782-.647 9.916-2.015s5.955-3.387 8.288-5.93c-14.559 0-23.983-10.159-24.512-26.334-.119-3.709-.17-12.925-.17-23.596V55.903l-19.542.022v31.378c0 9.484-.076 17.699.568 23.367 1.827 15.785 11.251 26.33 25.452 26.33z"/></svg>