<svg xmlns="http://www.w3.org/2000/svg" width="192" height="192" fill="none" viewBox="0 0 192 192"><path stroke="#000" stroke-linecap="round" stroke-linejoin="round" stroke-width="12" d="M96 80a25 25 0 1 0-50 0"/><path stroke="#000" stroke-linecap="round" stroke-linejoin="round" stroke-width="12" d="M72 88a25 25 0 1 0-50 0"/><path stroke="#000" stroke-linecap="round" stroke-linejoin="round" stroke-width="12" d="M46 80v51a6 6 0 0 1-6 6H28a6 6 0 0 1-6-6V88m74-8v51a6 6 0 0 1-6 6H78a6 6 0 0 1-6-6V88m24 24a25 25 0 0 0 50 0"/><path stroke="#000" stroke-linecap="round" stroke-linejoin="round" stroke-width="12" d="M120 104a25 25 0 0 0 50 0m-74 8V61a6 6 0 0 1 6-6h12a6 6 0 0 1 6 6v43m44-43a6 6 0 0 1-6 6 6 6 0 1 1 6-6m-18 51V86m24 18V86"/></svg>