<svg width="192" height="192" viewBox="0 0 192 192" fill="none" xmlns="http://www.w3.org/2000/svg"><path d="m123 102 1 10m4 21s-15 35.402-39 .885c21 7.966 39-.885 39-.885Zm11.1-41c-5.1-12-27.1-32-30 16" stroke="#000" stroke-width="6" stroke-linecap="round" stroke-linejoin="round"/><path d="M56 141s24 26 66 26c0 0 24-19 24-39M97.5 52C155 73 146 128 146 128c22 0 25-20 25-50l-6 10s-9.5-59-80.5-59" stroke="#000" stroke-width="10" stroke-linecap="round" stroke-linejoin="round"/><path d="M21 83c0-24 18.5-58 49-58 49.5 0 33 124-47 124 5-33-2-42-2-66Z" stroke="#000" stroke-width="10" stroke-linecap="round" stroke-linejoin="round"/></svg>