<svg xmlns="http://www.w3.org/2000/svg" width="192" height="192" fill="none"><path stroke="#000" stroke-linecap="round" stroke-linejoin="round" stroke-width="8" d="m126 102 1 10"/><path stroke="#000" stroke-linecap="round" stroke-linejoin="round" stroke-width="6" d="M124 136s-11.923 26.552-31 .664c17.09 16.586 31-.664 31-.664"/><path stroke="#000" stroke-linecap="round" stroke-linejoin="round" stroke-width="8" d="M140.1 92.001c-5.1-12-28.1-32-31 16"/><path stroke="#000" stroke-linecap="round" stroke-linejoin="round" stroke-width="10" d="M56 141s24 26 66 26c0 0 24-19 24-39M97.5 52C155 73 146 128 146 128c22 0 25-20 25-50l-6 10s-9.5-59-80.5-59"/><path stroke="#000" stroke-linecap="round" stroke-linejoin="round" stroke-width="10" d="M21 83c0-24 18.5-58 49-58 49.5 0 27 124-47 124 5-33-2-42-2-66"/></svg>