<svg xmlns="http://www.w3.org/2000/svg" fill-rule="evenodd" stroke-linecap="round" stroke-linejoin="round" stroke-miterlimit="1.5" clip-rule="evenodd" viewBox="0 0 192 192"><path fill="none" stroke="#000" stroke-width="12" d="M49.913 94.12C60.44 70.437 66.542 57.23 74.01 39.618c3.26-7.687 19.526-8.226 19.606 0 .182 18.53.8 44.222 1.09 54.502 4.63-10.122 18.905-39.703 29.408-61.042 2.744-5.575 22.846-2.766 20.695 2.18-8.258 18.995-43.75 100.828-53.371 122.084-2.402 5.306-18.657 4.733-18.517-1.09.363-15.079.002-52.397 0-59.952-3.617 7.582-23.479 49.246-29.409 62.132-2.791 6.065-23.592 3.755-21.419-2.259 4.635-11.295 19.472-43.274 27.819-62.053m64.45 65.809 11.753-26.902 31.617-.045-31.587.045 7.793-19.497 36.06-.001"/></svg>