<svg xmlns="http://www.w3.org/2000/svg" width="192" height="192" fill="none"><path stroke="#000" stroke-linecap="round" stroke-linejoin="round" stroke-width="12" d="m78.327 25.307 44.068 14.146a6 6 0 0 1 3.876 7.557l-26.335 81.513a23.66 23.66 0 0 1-29.922 15.2l-44.092-14.528m87.751-42.108h52.866m-68.849 46.67v31.86"/><path stroke="#000" stroke-linecap="round" stroke-linejoin="round" stroke-width="12" d="M47.677 25h96.646A22.68 22.68 0 0 1 167 47.677v96.646A22.677 22.677 0 0 1 144.323 167H47.677A22.676 22.676 0 0 1 25 144.323V47.677A22.677 22.677 0 0 1 47.677 25"/></svg>