<?xml version="1.0" encoding="UTF-8" standalone="no"?>
<!-- Created with Inkscape (http://www.inkscape.org/) -->

<svg
   width="192"
   height="192"
   viewBox="0 0 50.799999 50.8"
   version="1.1"
   id="svg1"
   xml:space="preserve"
   xmlns="http://www.w3.org/2000/svg"
   xmlns:svg="http://www.w3.org/2000/svg"><defs
     id="defs1" /><g
     id="layer1"><path
       style="fill:none;stroke:#000000;stroke-width:3.65218;stroke-linecap:round;stroke-linejoin:round;stroke-dasharray:none;stroke-opacity:1"
       d="M 19.316904,4.1159506 34.471087,8.9802561 25.893651,35.529464 a 7.2018162,7.2018162 153.07057 0 1 -9.106796,4.626024 L 3.3675959,35.733935"
       id="path5"
       transform="matrix(0.86934362,0,0,0.86934362,3.9309567,3.1177295)" /><path
       style="fill:none;stroke:#000000;stroke-width:3.175;stroke-linecap:round;stroke-linejoin:round;stroke-dasharray:none;stroke-opacity:1"
       d="M 30.076033,23.041662 H 44.063449"
       id="path6" /><path
       style="fill:none;stroke:#000000;stroke-width:3.175;stroke-linecap:round;stroke-linejoin:round;stroke-dasharray:none;stroke-opacity:1"
       d="m 25.847281,35.38987 v 8.429605"
       id="path7" /><path
       style="fill:none;stroke:#000000;stroke-width:3.175;stroke-linecap:round;stroke-linejoin:round;stroke-dasharray:none;stroke-opacity:1"
       id="rect7"
       width="37.570831"
       height="37.570831"
       x="6.6145782"
       y="6.6145782"
       d="M 12.614578,6.6145782 H 38.18541 a 6,6 45 0 1 6,5.9999998 V 38.18541 a 6,6 135 0 1 -6,6 H 12.614578 a 6,6 45 0 1 -5.9999998,-6 V 12.614578 A 6,6 135 0 1 12.614578,6.6145782 Z" /></g></svg>
