<svg xmlns="http://www.w3.org/2000/svg" width="192" height="192" fill="none" stroke="#000" stroke-linejoin="round" stroke-width="10" viewBox="0 0 192 192"><path stroke-width="6" d="m87.662 75.73-19.257 8.108"/><path d="M56.77 72.84c-8.5-6.539-5.23-20.963 9.27-20.963 12.732 0 43.734 14.424 60.427 14.424 38.118 0 32.387-49.58-5.462-45.002 18.001 2.538 12.847 17.847 4.654 17.847-22.501 0-37.425-13.77-58.734-13.77-28.887 0-34.964 41.656-10.155 47.541"/><path stroke-width="8" d="M140.999 100.194 126.666 85.86l-14.333 14.334 14.333 14.333z"/><path stroke-width="6" d="M126.659 85.88V66.3m0 48.272v29.425"/><path stroke-linecap="round" stroke-width="8" d="m81.633 79.427 22.245-9.778v55.074l-22.297 9.791v-55.04"/><path stroke-linecap="round" d="M154.776 115.227c-6.808 16.424-17.962 32.272-50.81 32.272-23.963 0-40.118-18.232-40.118-41.811 0-23.578 5.808-34.386 23.424-45.733"/><path stroke-linecap="round" d="M154.776 115.227C158.123 139.075 140.891 171 98.966 171 66.385 171 38 147.922 38 115.458c0-33.733 27.77-48.888 49.272-55.503"/></svg>