<svg xmlns="http://www.w3.org/2000/svg" width="192" height="192" fill="none" stroke="#000" stroke-linejoin="round" stroke-width="12" viewBox="0 0 192 192"><circle cx="66" cy="86" r="5" stroke-width="10"/><circle cx="107" cy="86" r="5" stroke-width="10"/><ellipse cx="35" cy="82.5" rx="3" ry="9.5"/><ellipse cx="151" cy="82.5" rx="6" ry="9.5"/><path d="M40 80c0-52 32-58 56-58 48.4 0 56 34 56 60.5 0 53.5-8 69.5-16 77.5-4 4-8 2.993-16-8-8 8-12 18-24 18s-16-10-24-18c-6 8.493-12 12-16 8-8-8-16-56-16-80Z"/><path stroke-linecap="round" stroke-width="8" d="M40.328 112c-2.942 1.33-8.722 5.985-8.307 13.964.52 9.975 7.788 11.471 12.979 8.977m71.219-17.632c1.523-4.551 5.331-5.309 7.616-5.309s4.57.758 6.094 2.275c1.523 1.517 6.093 7.964 3.046 14.411-3.046 6.447-6.855 5.689-9.14 4.551s-9.14-11.377-7.616-15.928M96 111c-3.333 5.667-12.8 13.6-24 0m80-28c-2.833-18.333-12-49-56-49S42 64.667 35 83"/></svg>