<svg xmlns="http://www.w3.org/2000/svg" width="192" height="192" fill="none" viewBox="0 0 192 192" stroke="#000" stroke-width="6"><path stroke-linecap="round" stroke-linejoin="round" d="m40 96.642 1.688-5.116m0 0L44.312 83l2.626 8.526m-5.25 0h5.25m1.687 5.116-1.688-5.116M55.375 83v13.642H64m6-.066V83.244c3.716-1.207 7.875 2.25 7.875 6.233 0 3.983-4.096 7.712-7.875 7.099Z"/><path stroke-linecap="round" stroke-linejoin="round" stroke-width="10" d="M96 50.588 111.203 44H171v96.791h-59.291L96 147.378l-15.71-6.587H21V44h60.304L96 50.588Zm0 0V142.5"/><path stroke-linecap="round" stroke-linejoin="round" d="M106.5 63.5h17m-17 13h54m-54 11.5h54m-54 11.5h54m-54 11.5h54m-54 11.5h54M79 111l44.5 41"/><circle cx="58.75" cy="89.75" r="28.75"/></svg>