<svg xmlns="http://www.w3.org/2000/svg" width="192" height="192" fill="none" stroke="#000" stroke-linecap="round" stroke-width="10" viewBox="0 0 192 192"><path d="M55 30 29 98m54-69s26.036 74.451 44 126m-97-41h82"/><path stroke-width="12" d="M30 156V36a6 6 0 0 1 6-6h120a6 6 0 0 1 6 6v120a6 6 0 0 1-6 6H36a6 6 0 0 1-6-6Z"/><path d="M43 162c9.017 0 17.665-6.954 24.042-19.331C73.418 130.292 77 113.504 77 96s-3.582-34.292-9.958-46.669S52.017 30 43 30m77 132c5.304 0 10.391-6.954 14.142-19.331S140 113.504 140 96s-2.107-34.292-5.858-46.669S125.304 30 120 30"/></svg>