<svg width="192" height="192" fill="none" xmlns="http://www.w3.org/2000/svg"><path d="M70 160v10m12-82v12m80 60v10m-12-82v12M22 120c22 0 41.53 18 41.53 18M22 141c10.14 0 19.43 6.161 26.5 12.803M22 91c22-13 42.75-50 42.75-50M107 118h18" stroke="#000" stroke-width="12" stroke-linecap="round" stroke-linejoin="round"/><path d="M62 54c0-4.629.983-9.028 2.75-13C69.735 29.805 80.957 22 94 22h44c17.673 0 32 14.327 32 32v80a6 6 0 0 1-6 6H68a5.987 5.987 0 0 1-4.472-2A5.978 5.978 0 0 1 62 134V54Zm108 116H62M170 68H62" stroke="#000" stroke-width="12" stroke-linecap="round" stroke-linejoin="round"/><circle cx="116" cy="42" r="3" stroke="#000" stroke-width="6" stroke-linecap="round" stroke-linejoin="round"/></svg>