<svg xmlns="http://www.w3.org/2000/svg" width="192" height="192" fill="none" viewBox="0 0 192 192" stroke="#000" stroke-linecap="round" stroke-linejoin="round" stroke-width="12"><path d="M96 102.512c40.869 0 74-13.546 74-30.256S136.869 42 96 42c-40.87 0-74 13.546-74 30.256s33.13 30.256 74 30.256Z"/><path d="M164.422 83.793C153.325 72.809 126.869 65.08 96 65.08c-30.87 0-57.33 7.73-68.426 18.715"/><path d="M22 77.256v28.166c0 16.71 33.13 30.256 74 30.256 40.871 0 74-13.548 74-30.256V77.256"/><path d="M96.736 149.822c9.036 0 16.361-7.325 16.361-16.361 0-9.037-7.325-16.362-16.361-16.362-9.036 0-16.362 7.325-16.362 16.362 0 9.036 7.326 16.361 16.362 16.361Zm0-30.126v-5.194"/></svg>