<svg xmlns="http://www.w3.org/2000/svg" width="192" height="192" fill="none" viewBox="0 0 192 192"><path stroke="#000" stroke-linecap="round" stroke-linejoin="round" stroke-width="12" d="m56.727 83.365 3.115-23.075a16.74 16.74 0 0 1 5.572-10.359l29.27-25.594c3.972-3.474 10.031-3.021 13.443 1.001m-51.4 58.027-16.764 36.309a10.45 10.45 0 0 0 1.989 11.655l28.331 29.217M56.727 83.365c13.806 7.368 23.723 24.269 23.723 43.942 0 12.084-4.156 24.813-10.167 33.239 13.556 1.126 25.418.563 39.539 6.197l9.506 2.819c6.05 1.794 12.308-2.105 13.346-8.313l1.435-8.59c.203-3.053 1.455-6.607 4.357-11.831 2.922-5.26 7.516-12.213 14.394-22.052a6.29 6.29 0 0 0-.239-7.543l-3.826-4.77c-10.728-14.427-13.279-24.637-13.016-44.69a4.23 4.23 0 0 0-.908-2.683l-26.744-33.752m30.339 115.49c-9.828-19.824-21.024-29.071-35.987-30.359m5.648-85.131c4.519 14.084-2.824 24.788-8.472 34.929-10.167 19.717-3.39 30.985 2.824 50.202-7.149-.616-14.474.585-23.604 3.317"/></svg>