<svg xmlns="http://www.w3.org/2000/svg" width="192" height="192" fill="none"><path stroke="#000" stroke-linecap="round" stroke-linejoin="round" stroke-width="12" d="m37.51 62.544-15.08 37.862a6.067 6.067 0 0 0 2.712 7.556l96.36 53.272c3.246 1.794 7.336.312 8.664-3.14l39.429-102.489a6.07 6.07 0 0 0-2.8-7.523L130.804 28.73a6.13 6.13 0 0 0-4.988-.363l-25.15 9.115c-3.168 1.148-4.802 4.637-3.649 7.792l11.832 32.37 12.597-4.566-13.979 36.334-34.161-18.886 12.597-4.565L74.07 53.59c-1.153-3.156-4.656-4.782-7.824-3.634l-25.15 9.116a6.1 6.1 0 0 0-3.587 3.47Z"/></svg>