<svg xmlns="http://www.w3.org/2000/svg" width="192" height="192" viewBox="0 0 192 192"><path fill="none" stroke="#000" stroke-width="12" d="m92.2 44.3 10.5 29.2c.6 1.8 2.6 2.7 4.3 2l12.3-4.4c2.7-1 5.3 1.7 4.3 4.4L110 111.7c-.7 1.9-3 2.8-4.8 1.8L70.5 94.8c-2.6-1.4-2.3-5.2.4-6.2l14.5-5.3c1.8-.7 2.7-2.6 2-4.4L75.8 49.2c-.7-1.7-2.6-2.6-4.3-1.9l-31 11.5c-.9.3-1.6 1.1-2 2l-16.2 42.8c-.6 1.6 0 3.3 1.5 4.1l99 55.8c1.8 1 4 .2 4.8-1.7l42.2-106c.6-1.6 0-3.3-1.5-4.2l-40.5-23c-.8-.5-1.8-.5-2.7-.2L94.2 40c-1.8.7-2.7 2.6-2 4.3z"/></svg>