<svg xmlns="http://www.w3.org/2000/svg" width="192" height="192" fill="none"><path stroke="#000" stroke-linecap="round" stroke-linejoin="round" stroke-width="10" d="M74 63c-7.18 0-13 6.007-13 13.417 0 3.754 1.494 7.148 3.902 9.583 2.345-2.371 5.556-3.833 9.098-3.833s6.753 1.462 9.098 3.833C85.506 83.565 87 80.17 87 76.417 87 69.007 81.18 63 74 63m44 0c-7.18 0-13 6.007-13 13.417 0 3.754 1.494 7.148 3.902 9.583 2.345-2.371 5.556-3.833 9.098-3.833s6.753 1.462 9.098 3.833c2.408-2.435 3.902-5.83 3.902-9.583C131 69.007 125.18 63 118 63"/><path stroke="#000" stroke-linecap="round" stroke-linejoin="round" stroke-width="12" d="M43 147a13.998 13.998 0 0 1-9.9-23.899A14 14 0 0 1 43 119m108 0c3.713 0 7.274 1.475 9.899 4.101a13.996 13.996 0 0 1 0 19.798A14 14 0 0 1 151 147m-108 0c17.404 0 29.405-10.084 36.22-18.149C84.213 140.28 91.09 155.105 96.376 163a14.002 14.002 0 0 0 25.647-3.377c3.977-11.623-5.58-22.41-5.58-22.41 8.688 5.9 22.09 9.787 34.557 9.787M43 119c2.163 0 4.055-.27 5.71-.733 3.32-.928 3.66-4.99 1.659-7.797C43.84 101.312 40 90.104 40 78c0-30.928 25.072-56 56-56s56 25.072 56 56c0 11.894-3.708 22.922-10.031 31.991-1.806 2.589-1.696 6.286 1.205 7.532 2.104.905 4.679 1.477 7.826 1.477"/></svg>