<?xml version="1.0" encoding="UTF-8" standalone="no"?>
<!-- Created with Inkscape (http://www.inkscape.org/) -->

<svg
   version="1.1"
   id="svg2"
   width="192"
   height="192"
   viewBox="0 0 192 192"
   sodipodi:docname="octoremote.png"
   inkscape:export-filename="octoremote.svg"
   inkscape:export-xdpi="96"
   inkscape:export-ydpi="96"
   xmlns:inkscape="http://www.inkscape.org/namespaces/inkscape"
   xmlns:sodipodi="http://sodipodi.sourceforge.net/DTD/sodipodi-0.dtd"
   xmlns="http://www.w3.org/2000/svg"
   xmlns:svg="http://www.w3.org/2000/svg">
  <defs
     id="defs6" />
  <sodipodi:namedview
     id="namedview4"
     pagecolor="#ffffff"
     bordercolor="#000000"
     borderopacity="0.25"
     inkscape:showpageshadow="2"
     inkscape:pageopacity="0.0"
     inkscape:pagecheckerboard="0"
     inkscape:deskcolor="#d1d1d1"
     showgrid="false"
     showguides="true">
    <sodipodi:guide
       position="159.92139,171.92476"
       orientation="1,0"
       id="guide469"
       inkscape:locked="false" />
    <sodipodi:guide
       position="-25.457485,175.99815"
       orientation="0,-1"
       id="guide483"
       inkscape:locked="false" />
    <sodipodi:guide
       position="141.5031,15.720715"
       orientation="0,-1"
       id="guide485"
       inkscape:locked="false" />
  </sodipodi:namedview>
  <g
     inkscape:groupmode="layer"
     inkscape:label="Image"
     id="g8">
    <path
       style="fill:#000000;fill-opacity:0;stroke:#000000;stroke-width:8;stroke-linecap:round;stroke-linejoin:round;stroke-miterlimit:6;paint-order:stroke fill markers"
       d="m 89.683258,142.89811 -0.04181,-77.691465 c 0,0 -6.65e-4,-2.840359 3.58401,-2.840359 h 41.904932 c 0,0 3.70561,-0.299055 3.70561,3.780721 l 10e-6,64.338193"
       id="path365"
       sodipodi:nodetypes="ccscsc" />
    <path
       style="fill:#000000;fill-opacity:0;stroke:#000000;stroke-width:8;stroke-linecap:round;stroke-linejoin:round;stroke-miterlimit:6;paint-order:stroke fill markers"
       d="m 138.836,146.174 v 22.69579 c 0,0 -0.0924,3.13021 -2.93737,3.13021 -2.84502,0 -46.25763,0 -46.25763,0"
       id="path369"
       sodipodi:nodetypes="ccsc" />
    <path
       style="fill:#000000;fill-opacity:0;stroke:#000000;stroke-width:8;stroke-linecap:round;stroke-linejoin:round;stroke-miterlimit:6;paint-order:stroke fill markers"
       d="m 91.35433,20 h 57.82766 c 0,0 6.81801,-0.0716 6.81801,7.385475 0,9.870859 -30.933,34.613308 -30.933,34.613308"
       id="path467"
       sodipodi:nodetypes="ccsc" />
    <path
       style="fill:#000000;fill-opacity:0;stroke:#000000;stroke-width:8;stroke-linecap:round;stroke-linejoin:round;stroke-miterlimit:6;paint-order:stroke fill markers"
       d="m 91.272661,20 c 0,0 -54.921212,51.707801 -54.921212,92.6421 0,38.12461 31.229912,52.94962 31.229912,52.94962 0,0 55.289139,25.14712 83.840529,-43.49735"
       id="path471"
       sodipodi:nodetypes="cscc" />
    <path
       style="fill:#000000;fill-opacity:0;stroke:#000000;stroke-width:8;stroke-linecap:round;stroke-linejoin:round;stroke-miterlimit:6;paint-order:stroke fill markers"
       d="m 151.4318,122.1229 c 0,0 -66.45409,56.21548 -73.039725,3.12268"
       id="path473"
       sodipodi:nodetypes="cc" />
    <path
       style="fill:#000000;fill-opacity:0;stroke:#000000;stroke-width:8;stroke-linecap:round;stroke-linejoin:round;stroke-miterlimit:6;paint-order:stroke fill markers"
       d="m 89.586349,91.947468 c 0,0 -13.76102,10.752352 -11.262079,33.278982"
       id="path475"
       sodipodi:nodetypes="cc" />
    <path
       style="fill:#000000;fill-opacity:0;stroke:#000000;stroke-width:8;stroke-linecap:round;stroke-linejoin:round;stroke-miterlimit:6;paint-order:stroke fill markers"
       d="m 137.63548,22.072055 c 0,0 -3.20321,9.588138 -38.988072,38.559156"
       id="path477" />
    <path
       style="fill:#000000;fill-opacity:0;stroke:#000000;stroke-width:8;stroke-linecap:round;stroke-linejoin:round;stroke-miterlimit:6;paint-order:stroke fill markers"
       d="m 89.28571,69.60945 c 0,0 -28.186745,20.5721 -28.186745,51.93809 0,31.36598 30.876745,36.77491 30.876745,36.77491 0,0 23.15623,4.22757 50.4654,-19.76304"
       id="path481"
       sodipodi:nodetypes="cscc" />
  </g>
</svg>
