<svg xmlns="http://www.w3.org/2000/svg" width="192" height="192" fill="none" viewBox="0 0 192 192"><path stroke="#000" stroke-linejoin="round" stroke-width="12" d="M116 150V92.174a6 6 0 0 0-2.623-4.96l-41-27.915a6 6 0 0 0-6.754 0l-41 27.915A6 6 0 0 0 22 92.174V150a6 6 0 0 0 6 6h21a6 6 0 0 0 6-6v-28a6 6 0 0 1 6-6h16a6 6 0 0 1 6 6v28a6 6 0 0 0 6 6h21a6 6 0 0 0 6-6Z"/><path stroke="#000" stroke-linecap="round" stroke-linejoin="round" stroke-width="12" d="M136 156h28a6 6 0 0 0 6-6V42a6 6 0 0 0-6-6H87.5a5.5 5.5 0 0 0-5.5 5.5"/><rect width="8" height="8" x="137" y="118" stroke="#000" stroke-linejoin="round" stroke-width="8" rx="2"/><rect width="8" height="8" x="137" y="92" stroke="#000" stroke-linejoin="round" stroke-width="8" rx="2"/><rect width="8" height="8" x="137" y="66" stroke="#000" stroke-linejoin="round" stroke-width="8" rx="2"/></svg>