<svg width="192" height="192" xmlns="http://www.w3.org/2000/svg"><g fill="none"><path style="fill:#000;fill-opacity:0;stroke:#000;stroke-width:8;stroke-linecap:round;stroke-linejoin:round;stroke-miterlimit:6;paint-order:stroke fill markers" d="m89.683 142.898-.042-77.691s0-2.84 3.584-2.84h41.905s3.706-.3 3.706 3.78v64.338M138.836 146.174v22.696s-.092 3.13-2.937 3.13H89.64M91.354 20h57.828S156 19.928 156 27.385C156 37.256 125.067 62 125.067 62"/><path style="fill:#000;fill-opacity:0;stroke:#000;stroke-width:8;stroke-linecap:round;stroke-linejoin:round;stroke-miterlimit:6;paint-order:stroke fill markers" d="M91.273 20S36.35 71.708 36.35 112.642c0 38.125 31.23 52.95 31.23 52.95s55.29 25.147 83.84-43.498"/><path style="fill:#000;fill-opacity:0;stroke:#000;stroke-width:8;stroke-linecap:round;stroke-linejoin:round;stroke-miterlimit:6;paint-order:stroke fill markers" d="M151.432 122.123s-66.454 56.215-73.04 3.123M89.586 91.947s-13.76 10.753-11.262 33.28M137.635 22.072s-3.203 9.588-38.988 38.56"/><path style="fill:#000;fill-opacity:0;stroke:#000;stroke-width:8;stroke-linecap:round;stroke-linejoin:round;stroke-miterlimit:6;paint-order:stroke fill markers" d="M89.286 69.61s-28.187 20.572-28.187 51.938c0 31.366 30.877 36.774 30.877 36.774s23.156 4.228 50.465-19.763"/></g></svg>