<svg xmlns="http://www.w3.org/2000/svg" width="192" height="192" fill="none" stroke="#000" stroke-linejoin="round" stroke-width="10" viewBox="0 0 192 192"><path d="M136 95.5c0-2.035-.388-4.051-1.142-5.932a15.6 15.6 0 0 0-3.251-5.028 15 15 0 0 0-4.867-3.36A14.6 14.6 0 0 0 121 80c-1.97 0-3.92.4-5.74 1.18a15 15 0 0 0-4.867 3.36 15.6 15.6 0 0 0-3.251 5.028A16 16 0 0 0 106 95.5z"/><path stroke-linecap="round" d="M106 96a16 16 0 0 0 9.877 14.782c1.941.804 3.697.972 6.123 1.218 8 0 12-1 12-1M93 62v50m77 0V87s-2.5-7-11.5-7c-3.5 0-10.5 3-10.5 3m-68.5-3H93c0 25-6.694 32-15 32-12 0-13-8-13-15s3-17 14.5-17"/><path d="M160 95h10c0 7-10 17-16 17-8 0-6.5-7-6.5-7S149 95 160 95z"/><ellipse cx="37" cy="96" rx="15" ry="16"/></svg>