<svg width="192" height="192" viewBox="0 0 192 192" xmlns="http://www.w3.org/2000/svg">
<path d="m98.611747 39.192656c7.084763.276803 9.759723 4.502927 12.192603 10.124548 3.24829 7.493817.98773 10.140824-12.192603 13.849986-13.18701 3.73936-19.53479-1.17146-20.40368-10.114718-.97582-10.115898 11.68349-12.729407 11.68349-12.729407 3.4956-.875706 6.36083-1.226033 8.72019-1.130409zm65.362273 107.419724c2.53905-9.66416-6.12133-19.20034-11.20049-27.80528-4.99797-8.46739-11.9713-17.92487-18.62831-22.870823-2.38306-1.810784-2.5637-5.330326-.37857-7.375581 6.57012-6.209167 18.15084-18.328197 21.81353-24.724507 3.41298-6.664107 7.62749-14.48787 5.33916-21.513191-2.05767-6.31722-8.79921-14.298276-15.27337-12.806089-7.3418 1.692166-6.83683 10.9806-9.21624 20.638561-3.22157 13.18696-10.86003 11.696493-13.96798 11.696493-3.10794 0-1.24067-4.657711-8.4591-25.377212-7.21844-20.719501-26.002343-15.525737-40.272133-6.983956-18.13967 10.874397-10.04586 34.054031-5.56108 48.992123-2.5465 2.452921-12.11887 4.36759-20.83447 9.059555-10.7497 5.781102-21.64513 9.363431-24.65935 19.372327-1.88358 6.25457.17162 15.99745 6.16187 18.60215 6.64409 2.88902 12.63279-1.6938 19.75097-9.07261 2.12678-2.11391 4.5078-3.95557 7.08842-5.48273 5.68272-3.66347 11.82892-6.55216 18.27585-8.58962 0 0 6.96957 10.70731 13.43274 23.39299 6.45649 12.68568-6.96863 16.91814-8.45909 16.91814-1.49717 0-22.6749-1.97294-17.94951 15.92603 4.72541 17.89897 30.5967 11.43719 43.783713 2.72832 13.18702-8.70888 9.94728-37.06066 9.94728-37.06066 12.93972-1.98506 16.91519 11.68386 18.15837 18.62823 1.24317 6.94437 4.0605 18.05217 11.44851 19.41147 8.24875 1.51768 17.52805-7.59222 19.65928-15.70413z" fill="none" stroke="#000" stroke-linecap="round" stroke-linejoin="round" stroke-width="12"/>
</svg>
