<svg width="192" height="192" viewBox="0 0 192 192" fill="none" xmlns="http://www.w3.org/2000/svg"><path d="m107.68 73.5 26.951 45m-26.954-45a45.264 45.264 0 0 0-21.933-19.075 45.736 45.736 0 0 0-29.11-1.892 45.4 45.4 0 0 0-24.257 16.073A44.758 44.758 0 0 0 23 96a44.757 44.757 0 0 0 9.377 27.394 45.402 45.402 0 0 0 24.256 16.073 45.74 45.74 0 0 0 29.11-1.892 45.265 45.265 0 0 0 21.934-19.075m26.957 0a45.15 45.15 0 0 0 14.504 15.189A45.627 45.627 0 0 0 169 140.734M134.634 73.5a45.152 45.152 0 0 1 14.504-15.188A45.623 45.623 0 0 1 169 51.267" stroke="#000" stroke-width="14" stroke-linecap="round" stroke-linejoin="round"/></svg>