<svg xmlns="http://www.w3.org/2000/svg" width="192" height="192" fill="none"><path stroke="#000" stroke-linecap="round" stroke-linejoin="round" stroke-width="12" d="M25 49c0-13.255 10.745-24 24-24h94c13.255 0 24 10.745 24 24v94c0 13.255-10.745 24-24 24H49c-13.255 0-24-10.745-24-24zm47 8v80"/><path stroke="#000" stroke-linecap="round" stroke-linejoin="round" stroke-width="12" d="M72 57s23-3.186 37.69.75M72 101s23 3.186 37.69-.75m.004 0a21.997 21.997 0 0 0 11.76-34.643 22 22 0 0 0-11.76-7.857"/></svg>