<?xml version="1.0" encoding="utf-8"?>
	<svg version="1.1" xmlns="http://www.w3.org/2000/svg" xmlns:xlink="http://www.w3.org/1999/xlink" x="0px" y="0px" width="240.0" height="240.0" xml:space="preserve">
		<path d="M201,33.333L144.333,20L142.333,20L39,60C37.667,60.667 37,62 37,63.333L37,170C37,171.333 37.667,172 38.333,172.667C39,173.333 40.333,173.333 41.667,172.667L68.333,159.333C69.667,158.667 70.333,157.333 70.333,156.667L70.333,72.667L150.333,48L150.333,193.333L41,180C39,180 37.667,180.667 37.667,182.667C37,184.667 38.333,186 39.667,186.667L146.333,220L148.333,220L201.667,200C203,199.333 203.667,198 203.667,196.667L203.667,36.667C203.667,35.333 202.333,34 201,33.333Z" fill="#000" stroke="#00000000" stroke-width="1.0" stroke-miterlimit=""/>
	</svg>
