<?xml version="1.0" encoding="UTF-8"?><svg id="Layer_1" xmlns="http://www.w3.org/2000/svg" width="192" height="192" viewBox="0 0 192 192"><defs><style>.cls-1,.cls-2{fill:none;}.cls-2{stroke:#000;stroke-miterlimit:10;stroke-width:12px;}</style></defs><rect class="cls-1" width="192" height="192"/><path class="cls-2" d="M117.05,22h28.47c2.1,0,4.04,1.09,5.13,2.88l15.61,25.69c1.14,1.87,1.16,4.21,.08,6.1l-15.11,26.31c-1.07,1.86-3.05,3.01-5.2,3.01h-28.88c-2.13,0-4.1-1.13-5.18-2.97l-15.2-26.01c-1.09-1.87-1.09-4.17,0-6.04l15.11-25.99c1.07-1.85,3.05-2.98,5.19-2.98Zm51.05,31.6l-36.6,.4-17.8,32m-.1-64l17.8,32M25.67,99.14l15.19,25.99c1.08,1.84,3.05,2.97,5.18,2.97h28.88c2.15,0,4.13-1.15,5.2-3.01l15.11-26.32c1.09-1.89,1.06-4.22-.07-6.09l-15.52-25.68c-1.09-1.8-3.03-2.9-5.13-2.9h-28.38c-2.13,0-4.1,1.13-5.17,2.96l-15.28,26.01c-1.1,1.87-1.1,4.19,0,6.07Zm71.43-3.44l-36.6,.4-17.8,32m0-64l17.8,32m36.16,44.92l15.2,26.01c1.08,1.84,3.05,2.97,5.18,2.97h28.88c2.15,0,4.13-1.15,5.2-3.01l15.11-26.31c1.09-1.9,1.06-4.23-.08-6.1l-15.61-25.69c-1.09-1.79-3.03-2.88-5.13-2.88h-28.47c-2.14,0-4.11,1.14-5.19,2.98l-15.11,25.99c-1.09,1.87-1.08,4.18,0,6.04Zm71.44-3.42l-36.6,.4-17.8,32m-.1-64l17.8,32"/></svg>