<svg xmlns="http://www.w3.org/2000/svg" width="192" height="192" fill="none"><path stroke="#000" stroke-linecap="round" stroke-linejoin="round" stroke-width="12" d="M131 37h18a6 6 0 0 1 6 6v121a6 6 0 0 1-6 6H59a6 6 0 0 1-6-6v-18"/><path stroke="#000" stroke-linecap="round" stroke-linejoin="round" stroke-width="12" d="M73 22h52a6 6 0 0 1 6 6v112a6 6 0 0 1-6 6H43a6 6 0 0 1-6-6V58"/><path stroke="#000" stroke-linecap="round" stroke-linejoin="round" stroke-width="10" d="M75 22v22c0 8.837-7.163 16-16 16H37"/><path stroke="#000" stroke-linecap="round" stroke-linejoin="round" stroke-width="12" d="M84 73h25M59 97h50m-50 24h50M73 22 37 58"/></svg>