<svg xmlns="http://www.w3.org/2000/svg" width="192" height="192" fill="none"><path stroke="#000" stroke-linecap="round" stroke-linejoin="round" stroke-width="12" d="m49 31 96 124"/><circle cx="96" cy="146" r="6" stroke="#000" stroke-linecap="round" stroke-linejoin="round" stroke-width="12"/><path stroke="#000" stroke-linecap="round" stroke-linejoin="round" stroke-width="12" d="M65.196 123a43.56 43.56 0 0 1 16.377-10.323m66.475-10.966a73.6 73.6 0 0 0-29.27-17.983M43.952 101.71a73.6 73.6 0 0 1 18.659-13.579M170 80.716a104.7 104.7 0 0 0-33.951-22.733A104.5 104.5 0 0 0 96 50M22 80.716a104.7 104.7 0 0 1 21.903-16.798"/></svg>