<svg width="192" height="192" viewBox="0 0 192 192" fill="none" xmlns="http://www.w3.org/2000/svg"><path d="M93.698 66.302a42 42 0 1 0 0 59.396m76.165-59.567c-2.185-3.346-5.461-6.22-9.497-8.337-4.037-2.115-8.693-3.397-13.5-3.715-4.807-.32-9.595.336-13.884 1.9-4.288 1.564-7.926 3.98-10.548 7.008-2.621 3.027-4.134 6.557-4.386 10.237-1.913 27.947 53.947 15.608 51.897 45.552-.252 3.68-1.765 7.21-4.386 10.237-2.622 3.028-6.26 5.444-10.548 7.008-4.289 1.564-9.077 2.219-13.884 1.901-4.807-.319-9.463-1.601-13.5-3.716-4.036-2.116-7.312-4.991-9.497-8.337" stroke="#000" stroke-width="12" stroke-linecap="round" stroke-linejoin="round"/></svg>