<svg width="192" height="192" viewBox="0 0 192 192" xmlns="http://www.w3.org/2000/svg"><g style="fill:none;stroke:#000;stroke-width:8.4445;stroke-dasharray:none;stroke-opacity:1"><a transform="matrix(.9339 0 0 .93344 19.573 19.269)" style="stroke:#000;stroke-width:8.56836;stroke-linecap:round;stroke-linejoin:round;stroke-dasharray:none;stroke-opacity:1"><g style="stroke-width:8.30763"><path fill="#002F34" d="M75.578 112.952H53.831v-95.78h21.747zm59.154-71.835h-14.454l-8.485 8.841-8.486-8.842H88.85V56.44l8.373 8.723-8.373 8.724v15.12h14.681l8.288-8.636 8.287 8.636h14.682v-15.12l-8.373-8.723 8.373-8.723V41.117h-.058z" style="fill:none;fill-opacity:1;stroke:#000;stroke-width:8.30763;stroke-linecap:round;stroke-linejoin:round;stroke-dasharray:none;stroke-opacity:1" transform="matrix(1.03087 0 0 1.0319 24.27 15.065)"/><g transform="matrix(1.03087 0 0 1.0319 -33.13 15.065)" style="stroke-width:8.30763"><ellipse style="fill:none;fill-opacity:.25;fill-rule:evenodd;stroke:#000;stroke-width:8.30763;stroke-linecap:round;stroke-linejoin:round;paint-order:markers stroke fill" cx="64.704" cy="65.062" rx="32.124" ry="32.139"/><ellipse style="fill:none;fill-opacity:.25;fill-rule:evenodd;stroke:#000;stroke-width:8.30763;stroke-linecap:round;stroke-linejoin:round;paint-order:markers stroke fill" cx="64.704" cy="65.062" rx="10.708" ry="10.713"/></g></g></a></g></svg>