<svg xmlns="http://www.w3.org/2000/svg" width="192" height="192" fill="none"><path stroke="#000" stroke-linecap="round" stroke-linejoin="round" stroke-width="12" d="M41.906 136h42.595c15.285 0 24.85-16.636 17.231-29.969L80.02 68.037c-3.604-6.308-8.866-11.721-16.816-11.721-7.951 0-13.213 5.413-16.817 11.72l-21.712 37.995C17.055 119.364 26.621 136 41.906 136m103.707-12.037 21.712-37.994C174.944 72.636 165.379 56 150.094 56h-42.595c-15.285 0-24.85 16.636-17.231 29.97l21.712 37.993c3.604 6.308 8.866 11.721 16.816 11.721 7.951 0 13.213-5.413 16.817-11.721"/></svg>