<svg xmlns="http://www.w3.org/2000/svg" width="192" height="192" fill="none" viewBox="0 0 192 192"><circle cx="61" cy="61" r="6" stroke="#000" stroke-linecap="round" stroke-linejoin="round" stroke-width="12"/><path stroke="#000" stroke-linecap="round" stroke-linejoin="round" stroke-width="12" d="M166.824 139.565a27 27 0 0 0-6.768-9.347 28.2 28.2 0 0 0-10.165-5.821 29 29 0 0 0-11.75-1.256 28.7 28.7 0 0 0-11.241 3.532 27.7 27.7 0 0 0-8.727 7.69 26.5 26.5 0 0 0-4.657 10.478 26.05 26.05 0 0 0 .242 11.398 26.6 26.6 0 0 0 5.098 10.285M166.132 79a81 81 0 0 0-40.627-2.505c-13.534 2.637-26.097 8.683-36.405 17.518s-17.993 20.143-22.268 32.769a72.24 72.24 0 0 0-2.064 39.094"/><rect width="142" height="142" x="25" y="25" stroke="#000" stroke-linecap="round" stroke-linejoin="round" stroke-width="12" rx="6"/></svg>