<svg width="192" height="192" viewBox="0 0 192 192" fill="none" xmlns="http://www.w3.org/2000/svg"><circle cx="61" cy="61" r="6" stroke="#000" stroke-width="12" stroke-linecap="round" stroke-linejoin="round"/><path d="M166.824 139.565a26.998 26.998 0 0 0-6.768-9.347 28.23 28.23 0 0 0-10.165-5.821 28.99 28.99 0 0 0-11.75-1.256 28.744 28.744 0 0 0-11.241 3.532 27.665 27.665 0 0 0-8.727 7.69 26.513 26.513 0 0 0-4.657 10.478 26.053 26.053 0 0 0 .242 11.398 26.6 26.6 0 0 0 5.098 10.285M166.132 79a80.979 80.979 0 0 0-40.627-2.505c-13.534 2.637-26.097 8.683-36.405 17.518-10.309 8.835-17.993 20.143-22.268 32.769a72.241 72.241 0 0 0-2.064 39.094" stroke="#000" stroke-width="12" stroke-linecap="round" stroke-linejoin="round"/><rect x="25" y="25" width="142" height="142" rx="6" stroke="#000" stroke-width="12" stroke-linecap="round" stroke-linejoin="round"/></svg>