<svg xmlns="http://www.w3.org/2000/svg" width="192" height="192" fill="none" stroke="#000" stroke-linecap="round" stroke-linejoin="round" stroke-width="12" viewBox="0 0 192 192"><path d="M95.205 170.315c-19.274-.207-38.347-8.304-51.885-22.025s-21.377-32.902-21.324-52.177C22.05 76.288 30.471 56.62 44.781 42.9c14.31-13.721 34.313-21.31 54.123-20.53 19.12.751 37.824 9.265 50.947 23.191s20.514 33.101 20.13 52.233"/><path d="M67.484 120.887v-40.18m0 0a5.96 5.96 0 0 1 5.156-5.804 6 6 0 0 1 5.102 1.88m.001 0L90.38 94.476m33.723-13.768a5.96 5.96 0 0 0-5.157-5.804 6 6 0 0 0-5.101 1.88m0-.001-12.638 17.694m-10.827-.001a6.13 6.13 0 0 0 2.224 2.393c.94.577 2.038.892 3.14.9a6.13 6.13 0 0 0 5.463-3.292m22.896-13.769v26.132m-.001 0c-.284 5.118 1.45 10.321 4.747 14.245 3.298 3.924 8.126 6.528 13.216 7.128 5.452.644 11.07-.995 15.563-4.151 4.492-3.157 7.879-7.761 9.939-12.85a33.4 33.4 0 0 0 2.415-13.418"/></svg>