<svg xmlns="http://www.w3.org/2000/svg" width="192" height="192" fill="none"><path stroke="#000" stroke-linecap="round" stroke-linejoin="round" stroke-width="12" d="M83.684 60.8c-2.253 6.729-7.813 18.478-19.738 21.484C60.733 83.094 58 85.686 58 89v12c0 3.314 2.702 6.033 5.978 5.537C75.251 104.833 84 99 84 99v31a6 6 0 0 0 6 6h12a6 6 0 0 0 6-6V99s8.749 5.833 20.022 7.537c3.276.496 5.978-2.223 5.978-5.537V89c0-3.314-2.733-5.906-5.946-6.716-11.925-3.006-17.485-14.755-19.738-21.483-.919-2.743-3.415-4.801-6.307-4.801H89.991c-2.892 0-5.388 2.058-6.307 4.8"/><path stroke="#000" stroke-linecap="round" stroke-linejoin="round" stroke-width="12" d="m54.981 35.286-30.927 53.22a14.69 14.69 0 0 0 0 14.987l30.927 53.221c2.674 4.514 7.553 7.286 12.826 7.286h56.386c5.273 0 10.152-2.772 12.826-7.286l30.927-53.221a14.7 14.7 0 0 0 0-14.986l-30.927-53.221C134.345 30.772 129.466 28 124.193 28H67.807c-5.273 0-10.152 2.772-12.826 7.286"/></svg>