<svg width="192" height="192" fill="none" xmlns="http://www.w3.org/2000/svg"><path d="M25 42.058a6.003 6.003 0 0 1 5.033-5.926l86-14.052c3.651-.597 6.967 2.224 6.967 5.926v135.988c0 3.702-3.316 6.523-6.967 5.926l-86-14.052A6.003 6.003 0 0 1 25 149.942V42.058ZM123 36h38a6 6 0 0 1 6 6v108a6 6 0 0 1-6 6h-38" stroke="#000" stroke-width="12" stroke-linecap="round" stroke-linejoin="round"/><path d="M123 62h18a6 6 0 0 1 6 6v12a6 6 0 0 1-6 6h-18m0 22h24M49 96h50M49 69l50-4m-50 58 50 4m24 3h24" stroke="#000" stroke-width="12" stroke-linecap="round" stroke-linejoin="round"/></svg>