<svg xmlns="http://www.w3.org/2000/svg" width="192" height="192" fill="none"><path stroke="#000" stroke-linecap="round" stroke-linejoin="round" stroke-width="12" d="M170 100s-29.534 14.684-37.458-4.52m0 0C127 80 141.5 64.857 155 61c7-2 13 1 13 8 0 11-18.082 19.292-35.458 26.48m0 0C120.36 100.518 112 105 103 105s21.5-34.5 7-43.33S70 105 70 105l20.5-45.33c-17.73 20.262-28.554 8.504-36.714 3m0 0C56.143 64.563 58 68.296 58 75c-1 16-16 30-26 30-7 0-10-6-10-13s11-31 27-31a7.57 7.57 0 0 1 4.786 1.67"/><path stroke="#000" stroke-linecap="round" stroke-linejoin="round" stroke-width="12" d="M22 92c0-11 10-27 15-32m-15 79c54-20 148-10 148-10"/></svg>