<svg xmlns="http://www.w3.org/2000/svg" width="192" height="192" fill="none" viewBox="0 0 192 192"><path stroke="#000" stroke-linecap="round" stroke-linejoin="round" stroke-width="12" d="M96 170c40.869 0 74-33.131 74-74s-33.131-74-74-74-74 33.13-74 74 33.13 74 74 74"/><path stroke="#000" stroke-linecap="round" stroke-linejoin="round" stroke-width="12" d="M96 62c-11.598 0-21 8.765-21 19.576 0 5.723 2.635 10.873 6.837 14.453 2.09 1.782 3.518 4.265 3.098 6.843l-3.22 19.819c-.626 3.851 2.649 7.309 6.923 7.309h14.724c4.273 0 7.549-3.458 6.924-7.309l-3.221-19.819c-.42-2.578 1.009-5.061 3.098-6.842C114.364 92.45 117 87.3 117 81.576 117 70.766 107.598 62 96 62"/></svg>