<svg width="192" height="192" viewBox="0 0 192 192" fill="none" xmlns="http://www.w3.org/2000/svg">
<mask id="path-1-outside-1_238_296" maskUnits="userSpaceOnUse" x="16" y="47" width="159" height="97" fill="black">
<rect fill="white" x="16" y="47" width="159" height="97"/>
<path fill-rule="evenodd" clip-rule="evenodd" d="M44.0793 54.1899C38.5946 54.8528 31.4299 59.0771 28.5023 63.3752C25.9319 67.1489 25.3663 68.2064 24.3364 71.1654C20.9051 81.0239 24.2136 91.7692 32.7413 98.4623C33.5865 99.1251 34.3938 99.6676 34.5353 99.6676C34.6773 99.6676 34.8965 99.7919 35.0223 99.9433C35.4399 100.447 39.4368 102.223 40.1522 102.223C40.3768 102.223 40.8328 102.363 41.1654 102.535C42.5221 103.237 52.3795 103.312 53.205 102.627C53.3352 102.519 53.9224 102.329 54.5096 102.206C55.0968 102.082 55.7985 101.865 56.0687 101.723C56.339 101.582 57.1792 101.177 57.936 100.824C67.101 96.5523 73.0889 85.1111 71.2974 75.2954C68.7535 61.362 57.4259 52.5782 44.0793 54.1899ZM141.666 56.524C126.208 59.0324 117.904 77.7921 125.964 91.9958C127.793 95.2182 131.307 98.7369 134.235 100.277C134.857 100.605 135.458 100.939 135.568 101.02C136.071 101.389 137.688 101.925 140.978 102.814C141.847 103.048 148.642 103.045 149.823 102.809C157.098 101.356 162.887 96.8594 166.139 90.1349C167.705 86.8963 167.992 87.057 160.747 87.1292L155.01 87.1867L153.448 88.7729C148.801 93.4925 140.672 93.1431 136.943 88.0638C135.86 86.5887 134.807 83.9765 135.065 83.409L135.27 82.9609H151.367C169.822 82.9609 167.919 83.2041 168.13 80.8214C168.494 76.7101 166.848 70.5247 164.239 66.1947C159.799 58.829 150.915 55.0233 141.666 56.524ZM98.4251 56.5559C94.1261 57.4694 91.482 58.8123 88.4797 61.6062C86.9643 63.0165 87.0213 63.0455 85.9265 60.2967C85.4248 59.0359 84.903 57.8708 84.7674 57.7072C84.4362 57.3077 77.0189 57.2595 76.7742 57.6551C76.6907 57.7902 76.645 63.0307 76.6725 69.3007C76.7005 75.5706 76.6317 83.4866 76.5202 86.8919C76.4086 90.2971 76.2588 94.9519 76.1865 97.2353L76.0558 101.387L76.556 101.716C77.2666 102.181 88.3917 102.106 88.7175 101.633C88.8507 101.44 88.8811 99.9821 88.8055 97.4073C88.1932 76.5425 88.2301 75.1564 89.4732 72.2661C92.2849 65.7303 102.249 64.8375 105.023 70.8731C106.036 73.0769 106.087 74.2169 105.781 87.7351C105.455 102.158 105.456 101.372 105.766 101.682C106.117 102.033 117.373 101.909 117.746 101.551C118.058 101.249 118.051 102.97 117.803 87.285C117.49 67.5131 116.814 64.3014 112.088 60.1277C108.636 57.0792 102.953 55.5933 98.4251 56.5559ZM52.6395 64.3461L53.1633 64.7967L52.9638 78.6731C52.8286 88.0594 52.6935 92.6807 52.5466 92.9554C52.2473 93.5151 51.4459 93.6242 48.2279 93.5446C44.3854 93.4493 44.7942 94.5072 44.6723 84.3426C44.5564 74.7318 44.6551 75.2384 43.0027 75.7593C42.4081 75.947 41.1821 76.1529 40.2785 76.2163C37.9877 76.3779 37.9862 76.375 37.9862 72.2425C37.9862 68.4874 37.944 68.5749 40.05 67.9568C42.1904 67.3283 43.4449 66.548 44.2267 65.3589C45.2025 63.8734 45.1332 63.8955 48.823 63.8955C51.9727 63.8955 52.1388 63.9152 52.6395 64.3461ZM148.223 66.6635C152.187 67.6187 156.628 71.8504 156.277 74.3358L156.21 74.8041L145.719 74.8552L135.226 74.9058L135.326 74.0213C135.891 69.0073 142.442 65.2699 148.223 66.6635ZM133.503 108.422C133.308 108.657 133.278 109.632 133.372 112.775C133.523 117.836 133.442 118.064 131.867 117.007C122.202 110.52 110.612 122.529 116.909 132.505C120.083 137.532 128.685 139.03 132.397 135.201C133.02 134.559 133.759 134.805 133.947 135.719C134.178 136.838 134.398 137.012 135.583 137.012C137.285 137.012 137.298 136.98 137.164 132.804C136.856 123.1 136.839 120.537 137.046 114.962C137.21 110.556 137.213 108.821 137.054 108.525C136.77 107.994 133.926 107.912 133.503 108.422ZM59.0003 115.286C48.5144 117.19 47.4383 132.978 57.5429 136.678C61.0031 137.945 65.5006 137.314 67.6946 135.253C69.6061 133.458 70.0665 132.9 70.7107 131.596C71.7131 129.567 71.6634 129.458 69.7014 129.388L68.1059 129.331L67.418 130.289C63.8944 135.194 56.8348 134.442 54.5347 128.916C51.8026 122.354 59.0445 116.192 65.2294 119.816C65.9493 120.238 66.4583 120.711 68.0091 122.398C68.4076 122.83 68.583 122.873 69.778 122.82C71.432 122.748 71.5381 122.451 70.5957 120.53C68.6263 116.516 63.9287 114.392 59.0003 115.286ZM83.3891 115.183C83.1188 115.277 82.622 115.361 82.2854 115.372C79.8207 115.451 76.1909 118.775 74.9709 122.071C72.7169 128.159 75.588 134.403 81.8103 136.948C83.1768 137.506 86.8257 137.456 88.4011 136.856C89.856 136.302 91.251 135.587 91.251 135.395C91.251 135.316 91.6063 135.07 92.0402 134.849L92.8288 134.446L93.0229 134.956C93.1295 135.236 93.2165 135.707 93.2165 136.003C93.2165 136.796 93.56 137.012 94.8238 137.012C96.5706 137.012 96.5279 137.203 96.3353 130.297C96.2453 127.091 96.2404 122.713 96.324 120.568C96.5215 115.495 96.5814 115.702 94.8911 115.627C93.3792 115.562 93.2244 115.669 93.2195 116.792C93.2145 117.965 92.8136 118.087 91.7149 117.248C90.5218 116.337 88.8811 115.583 87.6149 115.362C86.0503 115.089 83.9237 114.999 83.3891 115.183ZM110.12 115.521C109.071 115.87 107.882 116.452 106.988 117.053C105.879 117.8 105.599 117.801 105.599 117.06C105.599 115.894 105.244 115.588 103.892 115.588C102.264 115.588 102.267 115.577 102.498 120.01C102.674 123.405 102.582 131.45 102.327 134.761C102.166 136.859 102.309 137.012 104.427 137.012C106.528 137.012 106.422 137.406 106.189 130.52C105.981 124.399 106.025 123.599 106.632 122.369C107.798 120.007 108.944 119.312 111.913 119.172C114.296 119.059 114.13 119.185 114.344 117.31C114.559 115.417 114.529 115.389 112.318 115.407C111.271 115.416 110.282 115.467 110.12 115.521ZM128.988 119.051C136.627 122.026 134.378 133.474 126.155 133.474C117.715 133.474 115.818 121.512 123.852 118.952C125.399 118.459 127.577 118.5 128.988 119.051ZM87.3446 119.105C95.6665 121.485 93.9207 133.474 85.2519 133.474C81.9223 133.474 79.4689 131.77 78.1594 128.546C75.9575 123.127 81.4978 117.433 87.3446 119.105Z"/>
</mask>
<path fill-rule="evenodd" clip-rule="evenodd" d="M44.0793 54.1899C38.5946 54.8528 31.4299 59.0771 28.5023 63.3752C25.9319 67.1489 25.3663 68.2064 24.3364 71.1654C20.9051 81.0239 24.2136 91.7692 32.7413 98.4623C33.5865 99.1251 34.3938 99.6676 34.5353 99.6676C34.6773 99.6676 34.8965 99.7919 35.0223 99.9433C35.4399 100.447 39.4368 102.223 40.1522 102.223C40.3768 102.223 40.8328 102.363 41.1654 102.535C42.5221 103.237 52.3795 103.312 53.205 102.627C53.3352 102.519 53.9224 102.329 54.5096 102.206C55.0968 102.082 55.7985 101.865 56.0687 101.723C56.339 101.582 57.1792 101.177 57.936 100.824C67.101 96.5523 73.0889 85.1111 71.2974 75.2954C68.7535 61.362 57.4259 52.5782 44.0793 54.1899ZM141.666 56.524C126.208 59.0324 117.904 77.7921 125.964 91.9958C127.793 95.2182 131.307 98.7369 134.235 100.277C134.857 100.605 135.458 100.939 135.568 101.02C136.071 101.389 137.688 101.925 140.978 102.814C141.847 103.048 148.642 103.045 149.823 102.809C157.098 101.356 162.887 96.8594 166.139 90.1349C167.705 86.8963 167.992 87.057 160.747 87.1292L155.01 87.1867L153.448 88.7729C148.801 93.4925 140.672 93.1431 136.943 88.0638C135.86 86.5887 134.807 83.9765 135.065 83.409L135.27 82.9609H151.367C169.822 82.9609 167.919 83.2041 168.13 80.8214C168.494 76.7101 166.848 70.5247 164.239 66.1947C159.799 58.829 150.915 55.0233 141.666 56.524ZM98.4251 56.5559C94.1261 57.4694 91.482 58.8123 88.4797 61.6062C86.9643 63.0165 87.0213 63.0455 85.9265 60.2967C85.4248 59.0359 84.903 57.8708 84.7674 57.7072C84.4362 57.3077 77.0189 57.2595 76.7742 57.6551C76.6907 57.7902 76.645 63.0307 76.6725 69.3007C76.7005 75.5706 76.6317 83.4866 76.5202 86.8919C76.4086 90.2971 76.2588 94.9519 76.1865 97.2353L76.0558 101.387L76.556 101.716C77.2666 102.181 88.3917 102.106 88.7175 101.633C88.8507 101.44 88.8811 99.9821 88.8055 97.4073C88.1932 76.5425 88.2301 75.1564 89.4732 72.2661C92.2849 65.7303 102.249 64.8375 105.023 70.8731C106.036 73.0769 106.087 74.2169 105.781 87.7351C105.455 102.158 105.456 101.372 105.766 101.682C106.117 102.033 117.373 101.909 117.746 101.551C118.058 101.249 118.051 102.97 117.803 87.285C117.49 67.5131 116.814 64.3014 112.088 60.1277C108.636 57.0792 102.953 55.5933 98.4251 56.5559ZM52.6395 64.3461L53.1633 64.7967L52.9638 78.6731C52.8286 88.0594 52.6935 92.6807 52.5466 92.9554C52.2473 93.5151 51.4459 93.6242 48.2279 93.5446C44.3854 93.4493 44.7942 94.5072 44.6723 84.3426C44.5564 74.7318 44.6551 75.2384 43.0027 75.7593C42.4081 75.947 41.1821 76.1529 40.2785 76.2163C37.9877 76.3779 37.9862 76.375 37.9862 72.2425C37.9862 68.4874 37.944 68.5749 40.05 67.9568C42.1904 67.3283 43.4449 66.548 44.2267 65.3589C45.2025 63.8734 45.1332 63.8955 48.823 63.8955C51.9727 63.8955 52.1388 63.9152 52.6395 64.3461ZM148.223 66.6635C152.187 67.6187 156.628 71.8504 156.277 74.3358L156.21 74.8041L145.719 74.8552L135.226 74.9058L135.326 74.0213C135.891 69.0073 142.442 65.2699 148.223 66.6635ZM133.503 108.422C133.308 108.657 133.278 109.632 133.372 112.775C133.523 117.836 133.442 118.064 131.867 117.007C122.202 110.52 110.612 122.529 116.909 132.505C120.083 137.532 128.685 139.03 132.397 135.201C133.02 134.559 133.759 134.805 133.947 135.719C134.178 136.838 134.398 137.012 135.583 137.012C137.285 137.012 137.298 136.98 137.164 132.804C136.856 123.1 136.839 120.537 137.046 114.962C137.21 110.556 137.213 108.821 137.054 108.525C136.77 107.994 133.926 107.912 133.503 108.422ZM59.0003 115.286C48.5144 117.19 47.4383 132.978 57.5429 136.678C61.0031 137.945 65.5006 137.314 67.6946 135.253C69.6061 133.458 70.0665 132.9 70.7107 131.596C71.7131 129.567 71.6634 129.458 69.7014 129.388L68.1059 129.331L67.418 130.289C63.8944 135.194 56.8348 134.442 54.5347 128.916C51.8026 122.354 59.0445 116.192 65.2294 119.816C65.9493 120.238 66.4583 120.711 68.0091 122.398C68.4076 122.83 68.583 122.873 69.778 122.82C71.432 122.748 71.5381 122.451 70.5957 120.53C68.6263 116.516 63.9287 114.392 59.0003 115.286ZM83.3891 115.183C83.1188 115.277 82.622 115.361 82.2854 115.372C79.8207 115.451 76.1909 118.775 74.9709 122.071C72.7169 128.159 75.588 134.403 81.8103 136.948C83.1768 137.506 86.8257 137.456 88.4011 136.856C89.856 136.302 91.251 135.587 91.251 135.395C91.251 135.316 91.6063 135.07 92.0402 134.849L92.8288 134.446L93.0229 134.956C93.1295 135.236 93.2165 135.707 93.2165 136.003C93.2165 136.796 93.56 137.012 94.8238 137.012C96.5706 137.012 96.5279 137.203 96.3353 130.297C96.2453 127.091 96.2404 122.713 96.324 120.568C96.5215 115.495 96.5814 115.702 94.8911 115.627C93.3792 115.562 93.2244 115.669 93.2195 116.792C93.2145 117.965 92.8136 118.087 91.7149 117.248C90.5218 116.337 88.8811 115.583 87.6149 115.362C86.0503 115.089 83.9237 114.999 83.3891 115.183ZM110.12 115.521C109.071 115.87 107.882 116.452 106.988 117.053C105.879 117.8 105.599 117.801 105.599 117.06C105.599 115.894 105.244 115.588 103.892 115.588C102.264 115.588 102.267 115.577 102.498 120.01C102.674 123.405 102.582 131.45 102.327 134.761C102.166 136.859 102.309 137.012 104.427 137.012C106.528 137.012 106.422 137.406 106.189 130.52C105.981 124.399 106.025 123.599 106.632 122.369C107.798 120.007 108.944 119.312 111.913 119.172C114.296 119.059 114.13 119.185 114.344 117.31C114.559 115.417 114.529 115.389 112.318 115.407C111.271 115.416 110.282 115.467 110.12 115.521ZM128.988 119.051C136.627 122.026 134.378 133.474 126.155 133.474C117.715 133.474 115.818 121.512 123.852 118.952C125.399 118.459 127.577 118.5 128.988 119.051ZM87.3446 119.105C95.6665 121.485 93.9207 133.474 85.2519 133.474C81.9223 133.474 79.4689 131.77 78.1594 128.546C75.9575 123.127 81.4978 117.433 87.3446 119.105Z" stroke="black" stroke-width="12" mask="url(#path-1-outside-1_238_296)"/>
</svg>
