<svg width="192" height="192" viewBox="0 0 192 192" fill="none" xmlns="http://www.w3.org/2000/svg"><path d="M66.611 104.108H45.324a6.081 6.081 0 0 0-6.08 5.998m27.367-5.998h15.2a6.081 6.081 0 0 1 6.08 6.081v17.804m-21.28-23.885 14.144-8.166a6.163 6.163 0 0 0 2.256-8.418l-7.837-13.575m0 0-10.65-18.448a6.163 6.163 0 0 0-8.42-2.255l-1.312.758M75.174 73.95l12.23 7.06a5.964 5.964 0 0 0 8.148-2.182l8.556-14.82m0 0V81.81a6.081 6.081 0 0 0 6.081 6.08h15.2m-21.281-23.884V45.324a6.081 6.081 0 0 1 6.081-6.08h.295m6.342 78.807 10.651 18.448a6.163 6.163 0 0 0 8.418 2.255l1.313-.758m-20.382-19.945-7.837-13.575a6.162 6.162 0 0 1 2.256-8.418l14.144-8.166m-8.563 30.159-12.231-7.062a5.964 5.964 0 0 0-8.147 2.183l-8.556 14.821m0 0-9.335 16.168a5.964 5.964 0 0 0 2.183 8.147l.776.449m55.692-14.761 30.71-17.73a6.162 6.162 0 0 0 2.255-8.418l-17.416-30.166m-15.549 56.314-17.332 30.021a5.963 5.963 0 0 1-8.147 2.183l-30.213-17.443m-42.272-42.651v36.57a6.081 6.081 0 0 0 6.08 6.081h36.192m-42.272-42.651L21.827 80.152a6.163 6.163 0 0 1 2.255-8.418l30.71-17.73m0 0 17.332-30.021a5.964 5.964 0 0 1 8.147-2.183l30.213 17.443m0 0h36.192a6.081 6.081 0 0 1 6.081 6.081v36.358m0 0v.129a6.081 6.081 0 0 1-6.081 6.08h-21.287" stroke="#000" stroke-width="10" stroke-linecap="round" stroke-linejoin="round"/></svg>