<svg width="192" height="192" viewBox="0 0 192 192" fill="none" xmlns="http://www.w3.org/2000/svg"><path d="M43 129h53m-20-16 20 16m-20 16 20-16m52-39v1a6 6 0 0 0 6 6v0M52 79v2a6 6 0 0 1-6 6h-3m81 42h30" stroke="#000" stroke-width="12" stroke-linecap="round" stroke-linejoin="round"/><path d="M52 80a28 28 0 0 1 53.969-10.47 26.004 26.004 0 0 1 22.76-4.644A25.998 25.998 0 0 1 148 90M43 87a21 21 0 1 0 0 42m111 0c4.243 0 8.313-1.686 11.314-4.686a16.004 16.004 0 0 0 0-22.628A16.003 16.003 0 0 0 154 97" stroke="#000" stroke-width="12" stroke-linecap="round" stroke-linejoin="round"/></svg>