<svg xmlns="http://www.w3.org/2000/svg" width="192" height="192" fill="none" viewBox="0 0 192 192"><path stroke="#000" stroke-linecap="round" stroke-linejoin="round" stroke-width="12" d="M43 129h53m-20-16 20 16m-20 16 20-16m52-39v1a6 6 0 0 0 6 6v0M52 79v2a6 6 0 0 1-6 6h-3m81 42h30"/><path stroke="#000" stroke-linecap="round" stroke-linejoin="round" stroke-width="12" d="M52 80a28 28 0 0 1 53.969-10.47A26 26 0 0 1 148 90M43 87a21 21 0 1 0 0 42m111 0c4.243 0 8.313-1.686 11.314-4.686A16 16 0 0 0 154 97"/></svg>