<svg xmlns="http://www.w3.org/2000/svg" xml:space="preserve" id="图层_1" x="0" y="0" style="enable-background:new 0 0 192 192" version="1.1" viewBox="0 0 192 192"><style>.st0,.st1{fill:none;stroke-miterlimit:10}.st0{display:none;stroke:#3d3d3d}.st1{stroke:#000;stroke-width:12;stroke-linecap:round;stroke-linejoin:round}</style><path d="M26.7 53.3v86.5M58.7 53.9c2.4-.5 5.5-.9 9.1-1 2.2-.1 6.2-.1 11.5.8 7.4 1.2 11.5 1.9 15 5.8 1.9 2 2.7 4.1 3.5 5.8 3.3 7.7 2.1 15.2 1.6 17.8-.7 3.7-1 5.5-2.2 7.4-5.8 8.8-19.6.2-31.3 9.6-1.2.9-4.7 3.8-6.9 9-1.6 3.6-.9 4.4-2.1 20.1-.4 5.2-.6 7.4.7 9.3 2.1 2.9 6.2 2.7 8.2 2.6 7.9-.3 18.8-.4 32.8-.4M130.7 53.4c11.6 0 31.1-2.1 35.3 14 5.5 21.2-14.7 27.5-29 27.4 9.5-.2 18.3-.9 24.7 8.4 4.8 7.1 7.4 17.1 3.4 25.4-6.2 12.7-23.1 11.2-34 11.2" class="st1"/></svg>