<svg width="192" height="192" viewBox="0 0 192 192" fill="none" xmlns="http://www.w3.org/2000/svg"><path d="M142 130.9V80a6 6 0 0 0-6-6H71.461M142 130.9V148a6 6 0 0 1-6 6H38a6 6 0 0 1-6-6V80a6 6 0 0 1 6-6h33.461M142 130.9a50.003 50.003 0 0 0 24.795-62.513 49.996 49.996 0 0 0-41.894-32.146A49.999 49.999 0 0 0 71.461 74" stroke="#000" stroke-width="12" stroke-linecap="round" stroke-linejoin="round"/><path d="M21 132h26m-22-21h18" stroke="#000" stroke-width="10" stroke-linecap="round" stroke-linejoin="round"/><path d="m36 78 51 38 51-38" stroke="#000" stroke-width="12" stroke-linecap="round" stroke-linejoin="round"/></svg>