<svg xmlns="http://www.w3.org/2000/svg" width="192" height="192" fill="none" viewBox="0 0 192 192"><path stroke="#000" stroke-linecap="round" stroke-linejoin="round" stroke-width="12" d="M116 45v42L84 45v42m86-42h-24a8 8 0 0 0-8 8v13m32 21h-24a8 8 0 0 1-8-8V66m0 0h32m-32 41v23c0 11.046 7.163 17 16 17s16-5.954 16-17v-23M38 123.667 54 107m-16 16.667L22 107m16 16.667V147m24-81c0 11.598-8.954 21-20 21s-20-9.402-20-21 8.954-21 20-21 20 9.402 20 21m54 61c0 11.046-8.954 20-20 20s-20-8.954-20-20 8.954-20 20-20 20 8.954 20 20"/></svg>