<svg width="192" height="192" viewBox="0 0 192 192" fill="none" xmlns="http://www.w3.org/2000/svg">
<path d="M122 45C122 41.6863 119.314 39 116 39C112.686 39 110 41.6863 110 45H116H122ZM116 87L111.227 90.6363C112.787 92.6839 115.48 93.5082 117.919 92.6849C120.358 91.8616 122 89.5742 122 87H116ZM78 87C78 90.3137 80.6863 93 84 93C87.3137 93 90 90.3137 90 87H84H78ZM84 45L88.7726 41.3637C87.2125 39.3161 84.5201 38.4918 82.0811 39.3151C79.6421 40.1384 78 42.4258 78 45H84ZM170 51C173.314 51 176 48.3137 176 45C176 41.6863 173.314 39 170 39V45V51ZM170 93C173.314 93 176 90.3137 176 87C176 83.6863 173.314 81 170 81V87V93ZM170 72C173.314 72 176 69.3137 176 66C176 62.6863 173.314 60 170 60V66V72ZM144 107C144 103.686 141.314 101 138 101C134.686 101 132 103.686 132 107H138H144ZM176 107C176 103.686 173.314 101 170 101C166.686 101 164 103.686 164 107H170H176ZM58.3283 111.155C60.6232 108.765 60.5457 104.967 58.1552 102.672C55.7647 100.377 51.9665 100.454 49.6717 102.845L54 107L58.3283 111.155ZM26.3283 102.845C24.0335 100.454 20.2353 100.377 17.8448 102.672C15.4543 104.967 15.3768 108.765 17.6717 111.155L22 107L26.3283 102.845ZM32 147C32 150.314 34.6863 153 38 153C41.3137 153 44 150.314 44 147H38H32ZM62 66H56C56 74.5635 49.4595 81 42 81V87V93C56.6319 93 68 80.6325 68 66H62ZM42 87V81C34.5405 81 28 74.5635 28 66H22H16C16 80.6325 27.3681 93 42 93V87ZM22 66H28C28 57.4365 34.5405 51 42 51V45V39C27.3681 39 16 51.3675 16 66H22ZM42 45V51C49.4595 51 56 57.4365 56 66H62H68C68 51.3675 56.6319 39 42 39V45ZM116 45H110V87H116H122V45H116ZM84 87H90V45H84H78V87H84ZM84 45L79.2274 48.6363L111.227 90.6363L116 87L120.773 83.3637L88.7726 41.3637L84 45ZM170 45V39H146V45V51H170V45ZM170 87V81H146V87V93H170V87ZM138 79H144V66H138H132V79H138ZM138 66H144V53H138H132V66H138ZM146 87V81C144.895 81 144 80.1046 144 79H138H132C132 86.732 138.268 93 146 93V87ZM146 45V39C138.268 39 132 45.268 132 53H138H144C144 51.8954 144.895 51 146 51V45ZM170 130H164C164 134.18 162.678 136.807 161.09 138.38C159.472 139.984 157.066 141 154 141V147V153C159.771 153 165.365 151.039 169.537 146.904C173.741 142.738 176 136.865 176 130H170ZM154 147V141C150.934 141 148.528 139.984 146.91 138.38C145.322 136.807 144 134.18 144 130H138H132C132 136.865 134.259 142.738 138.463 146.904C142.635 151.039 148.229 153 154 153V147ZM138 107H132V130H138H144V107H138ZM170 107H164V130H170H176V107H170ZM116 127H110C110 134.732 103.732 141 96 141V147V153C110.359 153 122 141.359 122 127H116ZM96 147V141C88.268 141 82 134.732 82 127H76H70C70 141.359 81.6406 153 96 153V147ZM76 127H82C82 119.268 88.268 113 96 113V107V101C81.6406 101 70 112.641 70 127H76ZM96 107V113C103.732 113 110 119.268 110 127H116H122C122 112.641 110.359 101 96 101V107ZM38 123.667L42.3283 127.822L58.3283 111.155L54 107L49.6717 102.845L33.6717 119.511L38 123.667ZM38 123.667L42.3283 119.511L26.3283 102.845L22 107L17.6717 111.155L33.6717 127.822L38 123.667ZM38 123.667H32V147H38H44V123.667H38ZM138 66V72H170V66V60H138V66Z" fill="black"/>
</svg>
