<svg width="192" height="192" viewBox="0 0 192 192" fill="none" xmlns="http://www.w3.org/2000/svg">
<path d="M42.0857 87C53.1787 87 62.1714 77.598 62.1714 66C62.1714 54.402 53.1787 45 42.0857 45C30.9927 45 22 54.402 22 66C22 77.598 30.9927 87 42.0857 87Z" stroke="black" stroke-width="12"/>
<path d="M115 45V87L83 45V87" stroke="black" stroke-width="12" stroke-linecap="round" stroke-linejoin="round"/>
<path d="M170 45H136V66M170 87H136V66M136 66H155.429H165.143" stroke="black" stroke-width="12" stroke-linecap="round" stroke-linejoin="round"/>
<path d="M24 111L40.4444 126.417M56.8889 111L40.4444 126.417M40.4444 148V126.417" stroke="black" stroke-width="12" stroke-linecap="round" stroke-linejoin="round"/>
<path d="M94.9722 148C105.189 148 113.472 139.717 113.472 129.5C113.472 119.283 105.189 111 94.9722 111C84.7549 111 76.4722 119.283 76.4722 129.5C76.4722 139.717 84.7549 148 94.9722 148Z" stroke="black" stroke-width="12"/>
<path d="M135.933 111V129.5C135.933 139.717 143.112 148 151.967 148C160.822 148 168 139.717 168 129.5V111" stroke="black" stroke-width="12" stroke-linecap="round"/>
</svg>
