<svg width="192" height="192" viewBox="0 0 192 192" fill="none" xmlns="http://www.w3.org/2000/svg">
<path d="M116 45V87L84 45V87M170 45H146C141.582 45 138 48.5817 138 53V66M170 87H146C141.582 87 138 83.4183 138 79V66M138 66H170M138 107V130C138 141.046 145.163 147 154 147C162.837 147 170 141.046 170 130V107M38 123.667L54 107M38 123.667L22 107M38 123.667V147M62 66C62 77.598 53.0457 87 42 87C30.9543 87 22 77.598 22 66C22 54.402 30.9543 45 42 45C53.0457 45 62 54.402 62 66ZM116 127C116 138.046 107.046 147 96 147C84.9543 147 76 138.046 76 127C76 115.954 84.9543 107 96 107C107.046 107 116 115.954 116 127Z" stroke="black" stroke-width="12" stroke-linecap="round" stroke-linejoin="round"/>
</svg>
