<svg width="192" height="192" viewBox="0 0 192 192" fill="none" xmlns="http://www.w3.org/2000/svg">
<path d="M95.5 22C54.9681 22 22 54.9681 22 95.5C22 136.032 54.9681 169 95.5 169C136.032 169 169 136.032 169 95.5C169 54.9681 136.032 22 95.5 22ZM161.002 95.5C161.002 131.615 131.615 161.002 95.5 161.002C59.3855 161.002 29.9979 131.63 29.9979 95.5C29.9979 59.37 59.3855 29.9979 95.5 29.9979C131.615 29.9979 161.002 59.3855 161.002 95.5Z" fill="black" stroke="black" stroke-width="5"/>
<path d="M99.4988 52.5976C99.4988 50.389 97.7084 48.5986 95.4999 48.5986V48.5986C93.2914 48.5986 91.501 50.389 91.501 52.5976V138.405C91.501 140.613 93.2914 142.403 95.4999 142.403V142.403C97.7084 142.403 99.4988 140.613 99.4988 138.405V52.5976Z" fill="black" stroke="black" stroke-width="6"/>
</svg>
