<svg xmlns="http://www.w3.org/2000/svg" width="192" height="192" fill="none"><circle cx="150" cy="34" r="12" stroke="#000" stroke-linecap="round" stroke-linejoin="round" stroke-width="12"/><path stroke="#000" stroke-linecap="round" stroke-linejoin="round" stroke-width="12" d="M108 77a39 39 0 0 0-78 0"/><path stroke="#000" stroke-linecap="round" stroke-linejoin="round" stroke-width="12" d="M84 77a15 15 0 0 0-30 0m30 54a39 39 0 0 0 39 39 39 39 0 0 0 39-39"/><path stroke="#000" stroke-linecap="round" stroke-linejoin="round" stroke-width="12" d="M108 131a14.995 14.995 0 0 0 9.26 13.858 14.995 14.995 0 0 0 16.347-3.251A15.02 15.02 0 0 0 138 131M84 77v54M30 77v57a6 6 0 0 0 6 6h12a6 6 0 0 0 6-6V77m108 54V74a6 6 0 0 0-6-6h-12a6 6 0 0 0-6 6v57m-30-54v54"/></svg>