<svg width="192" height="192" fill="none" xmlns="http://www.w3.org/2000/svg"><circle cx="150" cy="34" r="12" stroke="#000" stroke-width="12" stroke-linecap="round" stroke-linejoin="round"/><path d="M108 77a39 39 0 0 0-78 0" stroke="#000" stroke-width="12" stroke-linecap="round" stroke-linejoin="round"/><path d="M84 77a15 15 0 0 0-30 0m30 54a39.002 39.002 0 0 0 39 39 39 39 0 0 0 39-39" stroke="#000" stroke-width="12" stroke-linecap="round" stroke-linejoin="round"/><path d="M108 131a14.995 14.995 0 0 0 9.26 13.858 14.995 14.995 0 0 0 16.347-3.251A15.018 15.018 0 0 0 138 131M84 77v54M30 77v57a6 6 0 0 0 6 6h12a6 6 0 0 0 6-6V77m108 54V74a6 6 0 0 0-6-6h-12a6 6 0 0 0-6 6v57m-30-54v54" stroke="#000" stroke-width="12" stroke-linecap="round" stroke-linejoin="round"/></svg>