<svg width="192" height="192" viewBox="0 0 192 192" fill="none" xmlns="http://www.w3.org/2000/svg">
<path d="M44.739 20.1964C39.275 21.0729 34.4244 23.6428 30.4725 27.7577C26.4637 31.9319 24.0098 37.0123 23.1966 42.7909C22.9969 44.2319 22.9826 49.8322 23.0112 96.685L23.0535 148.381C23.0538 148.776 23.0931 149.17 23.1709 149.557L23.3821 150.609C25.5791 161.349 33.4257 169.489 43.6833 171.658L44.6996 171.872C45.1052 171.957 45.5186 172 45.9331 172H96.027H146.121C146.535 172 146.949 171.957 147.354 171.872L148.371 171.658C158.657 169.489 166.589 161.23 168.672 150.52L168.89 149.392C168.963 149.015 169 148.633 169 148.25V96.0165V43.7828C169 43.3997 168.963 43.0176 168.89 42.6415L168.672 41.5134C166.589 30.8326 158.771 22.6624 148.456 20.3747L147.516 20.17C147.098 20.079 146.671 20.0329 146.243 20.0327L96.455 20.0033C53.9409 19.9885 45.8233 20.0182 44.739 20.1964ZM133.462 39.1366C138.727 40.6073 145.232 42.4196 147.928 43.1623C149.567 43.625 151.024 44.0434 151.907 44.3092C152.501 44.4881 152.554 44.8074 152.061 45.1845C151.089 45.928 149.247 47.305 147.144 48.8518C144.034 51.1395 138.912 54.9127 135.773 57.23C132.62 59.5474 128.74 62.4144 127.128 63.6028C125.516 64.7912 123.247 66.4847 122.063 67.3463C118.782 69.7825 107.383 78.1905 100.236 83.464C92.7742 88.9604 93.6873 88.2771 93.7729 88.3662C93.8014 88.3959 100.849 90.3865 109.409 92.7781C116.166 94.663 121.949 96.2987 124.096 96.9291C124.692 97.104 124.75 97.4127 124.234 97.758C124.143 97.819 124.046 97.8827 123.946 97.9477C122.962 98.5716 109.509 107.455 105.158 110.352C104.016 111.094 100.335 113.545 96.9543 115.774C93.5874 118.002 88.8367 121.136 86.3971 122.756C83.9718 124.36 80.2768 126.811 78.1939 128.178C76.111 129.544 71.7169 132.456 68.4214 134.64C65.1258 136.823 59.4192 140.596 55.7242 143.033C52.0292 145.469 48.648 147.727 48.1772 148.039C47.7207 148.351 47.3212 148.588 47.2927 148.559C47.2642 148.529 50.4313 145.335 54.3261 141.458C68.1075 127.777 74.9982 120.914 76.5533 119.354C77.4235 118.477 79.6348 116.264 81.4752 114.437C84.4711 111.451 87.5099 108.435 92.817 103.147C94.1153 101.855 94.4862 101.409 94.315 101.335C94.1438 101.245 70.8752 94.739 69.0919 94.2785V94.2785C68.7365 94.1914 68.725 93.875 68.9669 93.6005C69.495 93.0013 70.5715 91.8376 71.8025 90.535C73.5573 88.693 79.378 82.5282 84.7565 76.8535C94.4149 66.6333 99.6364 61.1369 110.293 49.8917C113.318 46.6978 117.455 42.3453 119.495 40.1913C122.762 36.7598 123.247 36.2993 123.547 36.3736C123.747 36.433 128.198 37.666 133.462 39.1366ZM100.236 40.4587C103.16 40.7112 107.255 41.4094 109.138 41.9888V41.9888C109.418 42.0702 109.513 42.4192 109.313 42.6313L101.748 50.6344L94.7806 58.0055C94.1111 58.7138 93.2143 59.1649 92.2464 59.28V59.28C80.7619 60.6021 70.3045 68.1039 65.0973 78.7401C62.4009 84.2365 61.174 89.51 61.174 95.5709C61.174 103.756 63.6849 111.436 68.4642 117.913V117.913C68.8341 118.418 68.7824 119.117 68.3422 119.562L67.6224 120.29C66.8093 121.122 63.8989 124.033 61.1597 126.766L56.6432 131.267C56.3954 131.514 55.9887 131.494 55.767 131.223V131.223C55.5387 130.941 54.7826 129.931 54.0836 128.98C48.1487 120.899 44.4822 111.302 43.455 101.156C43.184 98.3785 43.1697 92.6147 43.455 89.926C44.5678 79.0966 48.4911 69.1883 55.0109 60.7358C56.5231 58.775 59.8329 55.2543 61.7875 53.5163C70.1333 46.163 80.2911 41.662 91.1336 40.5478C93.5304 40.2953 97.9102 40.2656 100.236 40.4587ZM139.583 63.8257C141.594 66.7967 143.82 71.0155 145.232 74.5956C153.321 95.0955 148.713 118.908 133.633 134.521C123.247 145.291 109.309 151.069 94.743 150.638C85.5269 150.356 76.8956 147.757 68.9492 142.84C68.6005 142.626 68.2879 142.419 68.0584 142.254C67.7711 142.046 67.8027 141.794 68.094 141.592C70.7656 139.744 85.0161 130.332 85.1845 130.332C85.2558 130.332 85.9977 130.525 86.8251 130.777C87.6526 131.015 89.336 131.386 90.5772 131.609C92.5745 131.981 93.1737 132.025 96.0983 132.025C98.5094 132.025 99.8219 131.966 101.063 131.773C117.042 129.292 129.111 116.398 131.065 99.7303C131.379 97.0267 131.279 92.2433 130.851 89.7328C129.881 84.0582 127.898 78.9481 125.002 74.6996C124.56 74.0459 124.146 73.4369 124.089 73.3329C124.018 73.2141 124.674 72.6496 125.944 71.7137C128.141 70.0945 137.557 63.1423 138.113 62.7264C138.313 62.5778 138.513 62.4442 138.555 62.4442C138.598 62.4442 139.055 63.0681 139.583 63.8257Z" stroke="black" stroke-width="8"/>
</svg>
