<svg width="192" height="192" viewBox="0 0 192 192" fill="none" xmlns="http://www.w3.org/2000/svg"><path d="M70.935 60.243 60.243 70.935a6 6 0 0 0 0 8.485L76.823 96l-16.58 16.58a6 6 0 0 0 0 8.485l10.692 10.692a5.998 5.998 0 0 0 8.485 0L96 115.178l16.58 16.579a5.998 5.998 0 0 0 8.485 0l10.692-10.692a5.998 5.998 0 0 0 0-8.485L115.178 96l16.579-16.58a5.998 5.998 0 0 0 0-8.485l-10.692-10.692a6 6 0 0 0-8.485 0L96 76.823l-16.58-16.58a6 6 0 0 0-8.485 0Z" stroke="#000" stroke-width="12" stroke-linecap="round" stroke-linejoin="round"/><rect x="25" y="25" width="142" height="142" rx="30" stroke="#000" stroke-width="12" stroke-linecap="round" stroke-linejoin="round"/></svg>