<?xml version="1.0" encoding="UTF-8" standalone="no"?>
<svg
   width="100%"
   height="100%"
   viewBox="0 0 192 192"
   version="1.1"
   xml:space="preserve"
   style="fill-rule:evenodd;clip-rule:evenodd;stroke-linejoin:round;stroke-miterlimit:2;"
   id="svg2703"
   sodipodi:docname="opentracks.svg"
   inkscape:version="1.2.1 (9c6d41e410, 2022-07-14)"
   xmlns:inkscape="http://www.inkscape.org/namespaces/inkscape"
   xmlns:sodipodi="http://sodipodi.sourceforge.net/DTD/sodipodi-0.dtd"
   xmlns="http://www.w3.org/2000/svg"
   xmlns:svg="http://www.w3.org/2000/svg"><defs
   id="defs2707" /><sodipodi:namedview
   id="namedview2705"
   pagecolor="#ffffff"
   bordercolor="#000000"
   borderopacity="0.25"
   inkscape:showpageshadow="2"
   inkscape:pageopacity="0.0"
   inkscape:pagecheckerboard="0"
   inkscape:deskcolor="#d1d1d1"
   showgrid="false"
   inkscape:zoom="5.3489583"
   inkscape:cx="96.093476"
   inkscape:cy="95.906524"
   inkscape:window-width="1274"
   inkscape:window-height="1303"
   inkscape:window-x="1282"
   inkscape:window-y="36"
   inkscape:window-maximized="0"
   inkscape:current-layer="svg2703" />
    <path
   d="M1289.95,101.206C1287.24,102.946 1285.94,106.227 1286.73,109.354C1287.51,112.482 1290.21,114.756 1293.43,115.001L1350.02,119.32C1354.41,119.911 1359.48,121.759 1360.99,125.713C1361,125.727 1361,125.742 1361.01,125.757L1382.6,181.233C1383.76,184.227 1386.7,186.147 1389.91,186.006C1393.12,185.865 1395.89,183.695 1396.79,180.61L1444.12,18.097C1444.99,15.096 1443.91,11.867 1441.41,9.994C1438.91,8.121 1435.51,7.998 1432.87,9.684L1289.95,101.206ZM1316.92,101.749L1424.13,33.099C1424.13,33.099 1388.56,155.2 1388.56,155.2C1388.56,155.2 1374.99,120.319 1374.99,120.319C1371.62,111.554 1361.43,105.65 1351.74,104.416C1351.62,104.4 1351.49,104.387 1351.36,104.377L1316.92,101.749Z"
   id="path2697"
   style="fill-rule:evenodd;clip-rule:evenodd;stroke-linejoin:round;stroke-miterlimit:2"
   transform="matrix(0.799937,0,0,0.799937,-996.282,18.201)"
   inkscape:label="opentracks" />
</svg>
