<?xml version="1.0" encoding="utf-8"?>
<!-- Generator: Adobe Illustrator 25.4.1, SVG Export Plug-In . SVG Version: 6.00 Build 0)  -->
<svg version="1.1" id="Layer_1" xmlns="http://www.w3.org/2000/svg" xmlns:xlink="http://www.w3.org/1999/xlink" x="0px" y="0px"
	 viewBox="0 0 192 192" style="enable-background:new 0 0 192 192;" xml:space="preserve">
<style type="text/css">
	.st0{fill:none;stroke:#000000;stroke-width:12;stroke-miterlimit:10;}
</style>
<g>
	<circle class="st0" cx="55.2" cy="38.8" r="16.8"/>
	<circle class="st0" cx="136.8" cy="38.8" r="16.8"/>
	<circle class="st0" cx="55.2" cy="153.2" r="16.8"/>
	<circle class="st0" cx="136.8" cy="153.2" r="16.8"/>
	<path class="st0" d="M55,56.7c0.2,3.5,1.5,15.4,11.3,25.7c5.9,6.2,12.5,9.2,17.1,10.7c2.2,0.7,4.5,1.2,6.8,1.5l12.4,1.6
		c10.3,1.4,19.7,6.5,25.9,14.8c0.4,0.5,0.7,1,1.1,1.5c5.5,8,6.8,15.9,7.3,19.8"/>
	<path d="M70.2,104.9c-3.6,2.9-8.9,8.3-10.9,16.5c-0.9,3.8-1.1,7.8-0.4,11.9l-11.8,2c-1-5.7-0.8-11.3,0.5-16.8
		c2.3-9.3,7.4-16,12.1-20.4C63,100.7,66.5,103,70.2,104.9z"/>
	<path d="M142.6,70.2c-1.7,9.4-6.5,16.5-11,21.4c-3.2-2.5-6.8-4.7-10.5-6.4c3.8-3.5,8.3-9.2,9.8-17.1c0.6-3.4,0.6-6.9,0-10.4
		l11.8-2.1C143.5,60.5,143.5,65.4,142.6,70.2z"/>
</g>
</svg>
