<?xml version="1.0" encoding="UTF-8" standalone="no"?>
<svg
   width="192"
   height="192"
   viewBox="0 0 192 192"
   fill="none"
   version="1.1"
   id="svg4"
   sodipodi:docname="openboard.svg"
   inkscape:version="1.1.2 (0a00cf5339, 2022-02-04, custom)"
   xmlns:inkscape="http://www.inkscape.org/namespaces/inkscape"
   xmlns:sodipodi="http://sodipodi.sourceforge.net/DTD/sodipodi-0.dtd"
   xmlns="http://www.w3.org/2000/svg"
   xmlns:svg="http://www.w3.org/2000/svg">
  <defs
     id="defs8" />
  <sodipodi:namedview
     id="namedview6"
     pagecolor="#ffffff"
     bordercolor="#666666"
     borderopacity="1.0"
     inkscape:pageshadow="2"
     inkscape:pageopacity="0.0"
     inkscape:pagecheckerboard="0"
     showgrid="false"
     inkscape:zoom="4.546875"
     inkscape:cx="29.910653"
     inkscape:cy="95.890034"
     inkscape:window-width="2516"
     inkscape:window-height="1396"
     inkscape:window-x="0"
     inkscape:window-y="0"
     inkscape:window-maximized="0"
     inkscape:current-layer="svg4" />
  <path
     fill-rule="evenodd"
     clip-rule="evenodd"
     d="m 64,28 c -1.1046,0 -2,0.8954 -2,2 v 49.5424 c 0,0.6928 0.3585,1.3363 0.9477,1.7008 L 96,101.694 129.052,81.2432 C 129.641,80.8787 130,80.2352 130,79.5424 V 30 c 0,-1.1046 -0.895,-2 -2,-2 z m -14,2 c 0,-7.732 6.268,-14 14,-14 h 64 c 7.732,0 14,6.268 14,14 v 49.5424 c 0,4.8495 -2.51,9.3537 -6.634,11.9053 L 101.262,112.55 c -3.2245,1.995 -7.2996,1.995 -10.5237,0 L 56.6336,91.4477 C 52.5097,88.896 50,84.3919 50,79.5424 Z M 32,90 c -2.2091,0 -4,1.7909 -4,4 v 68 c 0,2.209 1.7909,4 4,4 h 128 c 2.209,0 4,-1.791 4,-4 V 94 c 0,-2.2091 -1.791,-4 -4,-4 h -4 c -3.314,0 -6,-2.6863 -6,-6 0,-3.3137 2.686,-6 6,-6 h 4 c 8.837,0 16,7.1634 16,16 v 68 c 0,8.837 -7.163,16 -16,16 H 32 c -8.8365,0 -16,-7.163 -16,-16 V 94 c 0,-8.8366 7.1634,-16 16,-16 h 4 c 3.3137,0 6,2.6863 6,6 0,3.3137 -2.6863,6 -6,6 z m 24,62 c 0,-3.314 2.6863,-6 6,-6 h 68 c 3.314,0 6,2.686 6,6 0,3.314 -2.686,6 -6,6 H 62 c -3.3137,0 -6,-2.686 -6,-6 z m -8,-14 c 4.4183,0 8,-3.582 8,-8 0,-4.418 -3.5817,-8 -8,-8 -4.4183,0 -8,3.582 -8,8 0,4.418 3.5817,8 8,8 z m 8,-32 c 0,4.418 -3.5817,8 -8,8 -4.4183,0 -8,-3.582 -8,-8 0,-4.418 3.5817,-8 8,-8 4.4183,0 8,3.582 8,8 z m 16,32 c 4.4183,0 8,-3.582 8,-8 0,-4.418 -3.5817,-8 -8,-8 -4.4183,0 -8,3.582 -8,8 0,4.418 3.5817,8 8,8 z m 56,-8 c 0,4.418 -3.582,8 -8,8 -4.418,0 -8,-3.582 -8,-8 0,-4.418 3.582,-8 8,-8 4.418,0 8,3.582 8,8 z m 16,8 c 4.418,0 8,-3.582 8,-8 0,-4.418 -3.582,-8 -8,-8 -4.418,0 -8,3.582 -8,8 0,4.418 3.582,8 8,8 z m 8,-32 c 0,4.418 -3.582,8 -8,8 -4.418,0 -8,-3.582 -8,-8 0,-4.418 3.582,-8 8,-8 4.418,0 8,3.582 8,8 z m -56,32 c 4.418,0 8,-3.582 8,-8 0,-4.418 -3.582,-8 -8,-8 -4.4183,0 -8,3.582 -8,8 0,4.418 3.5817,8 8,8 z"
     fill="#000000"
     id="path2"
     sodipodi:nodetypes="ssscccsssssssssccccsssssssssssssssssssssssssssssssssssssssssssssssssssssssssssssssssss" />
  <ellipse
     style="fill:#ff0000;fill-opacity:0;stroke:#000000;stroke-width:9;stroke-linejoin:round;stroke-miterlimit:4;stroke-dasharray:none;stroke-opacity:1"
     id="path1398"
     cx="96"
     cy="57.978519"
     rx="20.19418"
     ry="20.194178" />
</svg>
