<svg width="192" height="192" fill="none" xmlns="http://www.w3.org/2000/svg"><ellipse cx="96" cy="87" rx="50" ry="58" stroke="#000" stroke-width="12" stroke-linecap="round" stroke-linejoin="round"/><path d="M100.95 122.95a7 7 0 0 1-9.9 0m-10.456-21.689c1.088 4.085-.087 7.951-2.624 8.635-2.538.684-5.477-2.073-6.564-6.157-1.088-4.085.087-7.95 2.624-8.635 2.538-.684 5.477 2.073 6.564 6.157Zm30.812 0c-1.088 4.085.087 7.951 2.624 8.635 2.538.684 5.476-2.073 6.564-6.157 1.088-4.085-.087-7.95-2.624-8.635-2.538-.684-5.476 2.073-6.564 6.157Z" stroke="#000" stroke-width="10" stroke-linecap="round" stroke-linejoin="round"/><path d="M30 145s5 15 25 15c23 0 27-13 41-13s18 13 41 13c20 0 25-15 25-15M22 111s11 21 41 21m107-21s-11 21-41 21" stroke="#000" stroke-width="12" stroke-linecap="round" stroke-linejoin="round"/></svg>