<svg xmlns="http://www.w3.org/2000/svg" width="192" height="192" viewBox="0 0 144 144"><path fill="#fff" d="M76.4 42.898c-27.472 0-49.835 16.47-49.835 36.728 0 .242 0 .468.017.71.521 19.917 22.659 36.02 49.817 36.02 12.007 0 23.614-3.206 32.702-9.039.662-.426 1.72 3.819 18.4 5.064a27 27 0 0 1-3.353-2.623 23 23 0 0 1-1.597-1.633c-1.251-1.429-2.206-2.946-2.854-4.497-.877-2.143-1.126-4.413-.85-4.744 4.851-5.794 7.403-12.43 7.403-19.252 0-6.036-1.981-11.743-5.51-16.767-8.286-11.848-25.057-19.956-44.346-19.956Z" style="fill:none;stroke:#000;stroke-width:9;stroke-linecap:round;stroke-linejoin:round;stroke-dasharray:none;stroke-opacity:1"/><path fill="#fff" stroke-width="1.05" d="M108.203 51.098c-12.342-13.09-19.047-20.95-37.018-23.11a87 87 0 0 0-2.59-.214 61 61 0 0 0-2.886-.116c-.796-.022-1.597-.01-2.393-.005v0a66 66 0 0 0-5.378.34c-9.505 1.018-19.048 4.217-27.131 10.292-4.89 3.7-9.27 8.587-11.92 14.695a30 30 0 0 0-2.074 7.284 28 28 0 0 0-.307 3.562 28 28 0 0 0 .22 4.113c.73 5.959 5.642 12.216 9.17 16.548" style="fill:none;stroke:#000;stroke-width:9;stroke-linecap:round;stroke-linejoin:round;stroke-dasharray:none;stroke-opacity:1"/></svg>