<svg width="192" height="192" viewBox="0 0 192 192" fill="none" xmlns="http://www.w3.org/2000/svg"><path d="M59 44H43a6 6 0 0 0-6 6v114a6 6 0 0 0 6 6h84a6 6 0 0 0 6-6v-16" stroke="#000" stroke-width="12" stroke-linecap="round" stroke-linejoin="round"/><path d="M59 28a6 6 0 0 1 6-6h51.515a6 6 0 0 1 4.242 1.757l32.486 32.486A6 6 0 0 1 155 60.485V142a6 6 0 0 1-6 6H65a6 6 0 0 1-6-6V28Z" stroke="#000" stroke-width="12" stroke-linecap="round" stroke-linejoin="round"/><path d="M119 24v28a6 6 0 0 0 6 6h28" stroke="#000" stroke-width="12" stroke-linecap="round" stroke-linejoin="round"/><path d="M131 100H83m40 20H83" stroke="#000" stroke-width="10" stroke-linecap="round" stroke-linejoin="round"/></svg>