<svg viewBox="0.22 -0.01 46.052 46.031" width="192" height="192" xmlns="http://www.w3.org/2000/svg"><path d="m25.655 27.282 2.543 13.49h-9.827l2.534-13.466c-2.505-.94-4.296-3.32-4.296-6.129 0-3.631 2.974-6.574 6.637-6.574 3.668 0 6.637 2.943 6.637 6.574 0 2.785-1.757 5.15-4.228 6.105z" fill="none" style="fill:#123467;fill-opacity:0;stroke:#000;stroke-width:2.84138;stroke-linecap:round;stroke-linejoin:round;stroke-dasharray:none;stroke-opacity:1;paint-order:normal"/><path style="fill:#4b729f;fill-opacity:0;stroke:#000;stroke-width:2.87845;stroke-linecap:round;stroke-linejoin:round;stroke-dasharray:none" d="M20.984-31.095A17.55 17.616 0 0 1 8.69-15.524a17.55 17.616 0 0 1-18.924-5.825 17.55 17.616 0 0 1-1.483-19.812A17.55 17.616 0 0 1 6.128-49.76" transform="matrix(-.631 .77578 -.78654 -.61754 0 0)" fill="none"/></svg>