<svg xmlns="http://www.w3.org/2000/svg" width="192" height="192" fill="none"><path stroke="#000" stroke-linecap="round" stroke-linejoin="round" stroke-width="10" d="M96 81a25 25 0 1 0 19.927 9.903M96 61a45 45 0 1 0 27.813 9.624m7.472-19.213a64.998 64.998 0 0 1 2.576 107.425 64.998 64.998 0 0 1-102.722-57.087A65 65 0 0 1 83.5 42.213"/><path stroke="#000" stroke-linecap="round" stroke-linejoin="round" stroke-width="12" d="M96 106V67M84 45.773c0-9.982 5.97-18.455 9.489-22.582 1.354-1.588 3.668-1.588 5.022 0 3.518 4.127 9.489 12.6 9.489 22.582C108 59.924 96 56.892 96 67c0-10.108-12-7.076-12-21.227"/></svg>