<svg width="192" height="192" version="1.1" viewBox="0 0 192 192" xmlns="http://www.w3.org/2000/svg">
 <g fill="none" stroke="#000">
  <path d="m155.5 83h3.5c5.523 0 10 4.477 10 10v67c0 5.523-4.477 10-10 10h-126c-5.523 0-10-4.477-10-10v-67c0-5.523 4.477-10 10-10h3.5m93.5 67h-68" stroke-linecap="round" stroke-linejoin="round" stroke-width="12"/>
  <path d="m59.384 85.253 34.517 20.972a4 4 0 0 0 4.186-0.019l34.576-21.446a6 6 0 0 0 2.837-5.099v-49.661a8 8 0 0 0-8-8h-63a8 8 0 0 0-8 8v50.125a6 6 0 0 0 2.884 5.128z" stroke-linecap="round" stroke-linejoin="round" stroke-width="12"/>
  <path d="m46.522 126.13a2.5 2.7225 0 0 1 3.4701 0.70156 2.5 2.7225 0 0 1-0.63215 3.7813 2.5 2.7225 0 0 1-3.4745-0.67523 2.5 2.7225 0 0 1 0.60795-3.786" stroke-linecap="round" stroke-linejoin="round" stroke-width="10"/>
  <path d="m46.522 102.39a2.5 2.7225 0 0 1 3.4701 0.70156 2.5 2.7225 0 0 1-0.63215 3.7813 2.5 2.7225 0 0 1-3.4745-0.67523 2.5 2.7225 0 0 1 0.60795-3.786" stroke-linecap="round" stroke-linejoin="round" stroke-width="10"/>
  <path d="m141.82 102.39a2.5 2.7225 0 0 1 3.4701 0.70156 2.5 2.7225 0 0 1-0.63215 3.7813 2.5 2.7225 0 0 1-3.4745-0.67523 2.5 2.7225 0 0 1 0.60795-3.786" stroke-linecap="round" stroke-linejoin="round" stroke-width="10"/>
  <path d="m70.555 126.13a2.5 2.7225 0 0 1 3.4701 0.70156 2.5 2.7225 0 0 1-0.63215 3.7813 2.5 2.7225 0 0 1-3.4745-0.67523 2.5 2.7225 0 0 1 0.60795-3.786" stroke-linecap="round" stroke-linejoin="round" stroke-width="10"/>
  <path d="m94.589 126.13a2.5 2.7225 0 0 1 3.4701 0.70156 2.5 2.7225 0 0 1-0.63215 3.7813 2.5 2.7225 0 0 1-3.4745-0.67523 2.5 2.7225 0 0 1 0.60795-3.786" stroke-linecap="round" stroke-linejoin="round" stroke-width="10"/>
  <path d="m118.2 126.13a2.5 2.7225 0 0 1 3.4701 0.70156 2.5 2.7225 0 0 1-0.63215 3.7813 2.5 2.7225 0 0 1-3.4745-0.67523 2.5 2.7225 0 0 1 0.60795-3.786" stroke-linecap="round" stroke-linejoin="round" stroke-width="10"/>
  <path d="m141.82 126.13a2.5 2.7225 0 0 1 3.4701 0.70156 2.5 2.7225 0 0 1-0.63215 3.7813 2.5 2.7225 0 0 1-3.4745-0.67523 2.5 2.7225 0 0 1 0.60795-3.786" stroke-linecap="round" stroke-linejoin="round" stroke-width="10"/>
  <path d="m113.58 57.653a17.584 17.412 0 0 1-17.584 17.412 17.584 17.412 0 0 1-17.584-17.412 17.584 17.412 0 0 1 17.584-17.412 17.584 17.412 0 0 1 17.584 17.412z" stroke-width="10"/>
 </g>
</svg>
