<svg width="192" height="192" viewBox="0 0 192 192" fill="none" xmlns="http://www.w3.org/2000/svg"><path d="M48 56v20m90-44v72" stroke="#000" stroke-width="12" stroke-linecap="round" stroke-linejoin="round"/><path d="M96 40v122" stroke="#000" stroke-width="10" stroke-linecap="round" stroke-linejoin="round"/><path d="M22 38a6 6 0 0 1 6-6h60l8 8 8-8h60a6 6 0 0 1 6 6v110a6 6 0 0 1-6 6h-50a6.001 6.001 0 0 0-3.6 1.2L96 166l-14.4-10.8A6 6 0 0 0 78 154H28a6 6 0 0 1-6-6V38Z" stroke="#000" stroke-width="12" stroke-linecap="round" stroke-linejoin="round"/></svg>