<svg width="192" height="192" viewBox="0 0 192 192" fill="none" xmlns="http://www.w3.org/2000/svg">
<path d="M170 96C170 136.869 136.869 170 96 170C55.1309 170 22 136.869 22 96C22 55.1309 55.1309 22 96 22C136.869 22 170 55.1309 170 96ZM170 96C170 131.346 145.6 160 115.5 160C85.4005 160 61 131.346 61 96M170 96C170 60.6538 145.6 32 115.5 32C85.4005 32 61 60.6538 61 96M61 96C61 124.167 76.67 147 96 147C115.33 147 131 124.167 131 96C131 67.8335 115.33 45 96 45C76.67 45 61 67.8335 61 96Z" stroke="black" stroke-width="12"/>
<path d="M63.9675 75.5C63.9675 75.5 69.9787 58.964 62.9675 55.5C57.2091 52.655 53.194 63.9089 47.4675 61C40.9677 57.6982 44.9675 42.5 44.9675 42.5" stroke="black" stroke-width="12" stroke-linecap="round" stroke-linejoin="round"/>
</svg>
