<svg xmlns="http://www.w3.org/2000/svg" width="192" height="192" fill="none" viewBox="0 0 192 192"><path stroke="#000" stroke-linecap="round" stroke-width="12" d="M63.968 75.5s6.01-16.536-1-20c-5.759-2.845-9.774 8.409-15.5 5.5-6.5-3.302-2.5-18.5-2.5-18.5"/><path stroke="#000" stroke-linecap="round" stroke-linejoin="round" stroke-miterlimit="6" stroke-width="10" d="M162 171h-12a6 6 0 0 1-6-6v-12m0 0h18m-18 0v-11.999a6 6 0 0 1 6-6h8M158 153a9 9 0 1 0 0-18m4 36a9 9 0 1 0 0-18"/><path stroke="#000" stroke-linecap="round" stroke-miterlimit="6" stroke-width="12" d="M125 164.102c-8.905 3.797-18.707 5.898-29 5.898-40.869 0-74-33.131-74-74s33.13-74 74-74 74 33.13 74 74c0 7.356-1.057 14.422-3.002 21m-40.485-46C120.512 55.48 109.096 45 96 45c-19.33 0-35 22.834-35 51 0 28.167 15.67 51 35 51 11.937 0 22.478-8.707 28.795-22"/><path stroke="#000" stroke-linecap="round" stroke-linejoin="round" stroke-miterlimit="6" stroke-width="12" d="M112 107V85l18 20 17.999-20v22"/></svg>