<svg xmlns="http://www.w3.org/2000/svg" width="192" height="192" fill="none" stroke="#000" stroke-linecap="round" stroke-linejoin="round" viewBox="0 0 192 192"><path stroke-width="10" d="M166.424 82.062a7.875 7.875 0 0 0-10.893 0c-3.234 3.062-3.234 8.308 0 11.37a7.875 7.875 0 0 0 10.893 0c3.235-3.062 3.235-8.308 0-11.37Z"/><path stroke-width="12" d="M78.063 31.521c-11.888-12.502-31.16-12.502-43.048 0-11.888 12.503-11.888 32.773 0 45.275 11.887 12.502 31.16 12.502 43.048 0 11.887-12.502 11.887-32.772 0-45.275Zm28.859 55.177V60.457m0 0V22.145s33.488-.326 34.113 0c19.464 10.146 19.697 27 0 38.311-1.132.65-34.113 0-34.113 0Zm46.042 49.92c-11.888-12.503-31.161-12.503-43.048 0-11.888 12.502-11.888 32.772 0 45.274 11.887 12.503 31.16 12.503 43.048 0 5.947-6.254 8.918-14.453 8.915-22.651H135.5m-56.537-22.623c-11.887-12.503-31.16-12.503-43.047 0-11.888 12.502-11.888 32.772 0 45.274 11.887 12.503 31.16 12.503 43.047 0 5.948-6.254 8.92-14.453 8.916-22.651H61.5"/></svg>