<?xml version="1.0" encoding="utf-8"?>
	<svg version="1.1" xmlns="http://www.w3.org/2000/svg" xmlns:xlink="http://www.w3.org/1999/xlink" x="0px" y="0px" width="240.0" height="240.0" xml:space="preserve">
		<path d="M176.158,77.856L176.158,49.382L160.891,49.382L160.891,55.23L170.242,55.23L170.242,77.856L160.891,77.856L160.891,83.704L185.291,83.704L185.291,77.856L176.158,77.856ZM209.12,56.558L202.341,56.558L202.341,95.653L144.425,95.653L144.425,37.448L183.923,37.448L183.923,30.748L137.647,30.748L137.647,102.353L209.12,102.353L209.12,95.653L209.12,56.558ZM208.555,31.313L208.555,20L202.639,20L202.639,31.313L191.193,31.313L191.193,37.161L202.639,37.161L202.639,48.475L208.555,48.475L208.555,37.161L220,37.161L220,31.313L208.555,31.313ZM61.176,20C83.918,20 102.353,38.435 102.353,61.176L102.353,61.176L102.353,102.353L61.176,102.353C38.435,102.353 20,83.918 20,61.176C20,38.435 38.435,20 61.176,20ZM61.176,220C83.918,220 102.353,201.565 102.353,178.824L102.353,178.824L102.353,137.647L61.176,137.647C38.435,137.647 20,156.082 20,178.824C20,201.565 38.435,220 61.176,220ZM178.824,220C156.082,220 137.647,201.565 137.647,178.824L137.647,178.824L137.647,137.647L178.824,137.647C201.565,137.647 220,156.082 220,178.824C220,201.565 201.565,220 178.824,220Z" fill="#000" stroke="#00000000" stroke-width="1.0" stroke-miterlimit=""/>
	</svg>
