<?xml version="1.0" standalone="no"?>
<!DOCTYPE svg PUBLIC "-//W3C//DTD SVG 20010904//EN"
 "http://www.w3.org/TR/2001/REC-SVG-20010904/DTD/svg10.dtd">
<svg version="1.0" xmlns="http://www.w3.org/2000/svg"
 width="192.000000pt" height="192.000000pt" viewBox="0 0 192.000000 192.000000"
 preserveAspectRatio="xMidYMid meet">

<g transform="translate(0.000000,192.000000) scale(0.100000,-0.100000)"
fill="#000000" stroke="none">
<path d="M804 1315 c11 -137 33 -173 120 -201 108 -35 162 -72 285 -200 137
-142 172 -163 318 -190 52 -9 95 -15 97 -13 11 11 24 182 16 203 -4 13 -32 37
-62 53 -29 17 -111 85 -183 153 -214 200 -299 244 -544 275 l-54 7 7 -87z"/>
<path d="M292 1083 l3 -118 77 -38 c63 -31 98 -59 210 -170 178 -177 248 -213
454 -232 l71 -7 6 39 c4 21 7 67 7 103 0 96 -14 110 -135 141 -112 28 -180 80
-327 251 -78 90 -134 114 -326 142 l-43 6 3 -117z"/>
</g>
</svg>
