<svg xmlns="http://www.w3.org/2000/svg" width="192" height="192" fill="none"><path stroke="#000" stroke-linecap="round" stroke-linejoin="round" stroke-width="12" d="m70.75 90.667 13.196-11.203a6 6 0 0 0 2.117-4.574V62a6 6 0 0 0-6-6H68c-3.314 0-6.017 2.685-5.847 5.995 1.65 32.128 16.974 68.934 63.833 71.823 3.308.204 6.014-2.504 6.014-5.818v-11.833a6 6 0 0 0-6-6l-13.132-.001a6 6 0 0 0-4.538 2.074L97 125.333"/><circle cx="149" cy="43" r="3" stroke="#000" stroke-linecap="round" stroke-linejoin="round" stroke-width="6"/><circle cx="132" cy="31" r="3" stroke="#000" stroke-linecap="round" stroke-linejoin="round" stroke-width="6"/><circle cx="161" cy="60" r="3" stroke="#000" stroke-linecap="round" stroke-linejoin="round" stroke-width="6"/><path stroke="#000" stroke-linecap="round" stroke-linejoin="round" stroke-width="12" d="M168.246 79.984a74.005 74.005 0 0 1-36.709 80.925A74.002 74.002 0 0 1 31.216 60.237a74 74 0 0 1 81.053-36.426"/></svg>