<svg xmlns="http://www.w3.org/2000/svg" width="192" height="192" fill="none"><path stroke="#000" stroke-width="12" d="M44 118c12.15 0 22-9.85 22-22s-9.85-22-22-22-22 9.85-22 22 9.85 22 22 22Z"/><path stroke="#000" stroke-linecap="round" stroke-linejoin="round" stroke-width="12" d="M138 117V98.917m0 0v-18.19c0-1.519.612-2.975 1.702-4.05a5.86 5.86 0 0 1 4.11-1.677H170m-32 23.917h24.846"/><path stroke="#000" stroke-linecap="round" stroke-linejoin="round" stroke-miterlimit="6" stroke-width="12" d="M86 117V99.5m0 0V80.727c0-1.519.613-2.975 1.704-4.05A5.87 5.87 0 0 1 91.818 75h15.515c2.829 0 5.542 1.29 7.543 3.588 2 2.297 3.124 5.412 3.124 8.662 0 3.249-1.124 6.365-3.124 8.662s-4.714 3.588-7.543 3.588zm17.777 0 13.038 17.5"/></svg>