<?xml version="1.0" encoding="utf-8"?>
	<svg version="1.1" xmlns="http://www.w3.org/2000/svg" xmlns:xlink="http://www.w3.org/1999/xlink" x="0px" y="0px" width="240.0" height="240.0" xml:space="preserve">
		<path d="M150.521,20L218.531,156.02L160.962,156.019C158.104,191.83 128.138,220 91.592,220C53.158,220 22,188.842 22,150.408C22,111.973 53.158,80.815 91.592,80.815C100.788,80.815 109.567,82.599 117.602,85.839L150.521,20ZM91.592,92.04C59.357,92.04 33.225,118.172 33.225,150.408C33.225,182.643 59.357,208.775 91.592,208.775C121.935,208.775 146.87,185.623 149.694,156.02L82.512,156.02L112.562,95.92C106.054,93.414 98.984,92.04 91.592,92.04ZM122.598,100.947L100.673,144.795L149.694,144.795C147.93,126.307 137.542,110.335 122.598,100.947ZM150.521,45.1L127.639,90.866C146.243,102.153 159.136,121.915 160.962,144.796L200.369,144.795L150.521,45.1Z" fill="#000" stroke="#00000000" stroke-width="1.0" stroke-miterlimit=""/>
	</svg>
