<svg width="192" height="192" viewBox="0 0 192 192" fill="none" xmlns="http://www.w3.org/2000/svg">
<path d="M83.1273 139.265C82.3156 154.664 69.1018 166.492 53.6135 165.685C38.1252 164.878 26.2275 151.741 27.0392 136.343C27.8509 120.944 41.0647 109.116 56.553 109.923C72.0413 110.73 83.939 123.867 83.1273 139.265Z" stroke="black" stroke-width="12" stroke-linejoin="round"/>
<path d="M107.904 118.484C108.075 115.242 110.856 112.752 114.117 112.922L158.397 115.229C161.658 115.399 164.163 118.165 163.992 121.406L161.671 165.43C161.5 168.671 158.718 171.162 155.458 170.992L111.178 168.685C107.917 168.515 105.412 165.749 105.583 162.507L107.904 118.484Z" stroke="black" stroke-width="12" stroke-linejoin="round"/>
<path d="M101.59 23L137.003 90.5708L59.2666 86.5205L101.59 23Z" stroke="black" stroke-width="12" stroke-linejoin="round"/>
</svg>
