<?xml version="1.0" encoding="UTF-8" standalone="no"?>
<svg
   width="192"
   height="192"
   viewBox="0 0 192 192"
   fill="none"
   version="1.1"
   id="svg4"
   xml:space="preserve"
   xmlns="http://www.w3.org/2000/svg"
   xmlns:svg="http://www.w3.org/2000/svg"><defs
     id="defs4"><linearGradient
       id="swatch5"><stop
         style="stop-color:#ff9900;stop-opacity:1;"
         offset="0"
         id="stop5" /></linearGradient><linearGradient
       id="swatch4"><stop
         style="stop-color:#3b8aff;stop-opacity:1;"
         offset="0"
         id="stop4" /></linearGradient></defs><g
     id="layer2"><path
       id="path3"
       style="stroke:#000000;stroke-width:12;stroke-linecap:round;stroke-linejoin:round;stroke-dasharray:none"
       d="M 170.00021,41.647956 A 12.73978,12.762955 0 0 1 157.26043,54.410913 12.73978,12.762955 0 0 1 144.52065,41.647956 12.73978,12.762955 0 0 1 157.26043,28.885 12.73978,12.762955 0 0 1 170.00021,41.647956 Z M 25.220258,126.76716 c -6.684279,11.5984 -2.717531,26.42923 8.859979,33.12558 11.577513,6.69634 26.381617,2.72244 33.0659,-8.87597 L 116.08175,66.104764 c 6.68429,-11.598408 2.71754,-26.42924 -8.85997,-33.12558 -11.577511,-6.696349 -26.381622,-2.722441 -33.065903,8.875978 l -0.01147,0.01944 -48.838579,84.743588 c -0.02879,0.0495 -0.05742,0.0992 -0.08587,0.14897 z m 70.777678,-25.8136 28.851524,50.06218 c 6.68405,11.59916 21.48878,15.57348 33.06666,8.87675 11.57735,-6.69697 15.54335,-21.52823 8.85826,-33.12636 l -0.0102,-0.0175 -50.25222,-84.526357" /></g></svg>
