<svg xmlns="http://www.w3.org/2000/svg" width="192" height="192" fill="none"><path stroke="#000" stroke-linejoin="round" stroke-width="12" d="M83.127 138.265c-.811 15.399-14.025 27.227-29.513 26.42s-27.386-13.944-26.575-29.342c.812-15.399 14.026-27.227 29.514-26.42s27.386 13.944 26.574 29.342Zm24.777-20.781c.171-3.242 2.952-5.732 6.213-5.562l44.28 2.307c3.261.17 5.766 2.936 5.595 6.177l-2.321 44.024c-.171 3.241-2.953 5.732-6.213 5.562l-44.28-2.307c-3.261-.17-5.766-2.936-5.595-6.178zM101.59 22l35.413 67.57-77.736-4.05z"/></svg>