<svg xmlns="http://www.w3.org/2000/svg" xml:space="preserve" width="192" height="192" fill="none" viewBox="0 0 192 192"><path d="M170 41.648a12.74 12.763 0 0 1-12.74 12.763 12.74 12.763 0 0 1-12.74-12.763 12.74 12.763 0 0 1 12.74-12.763A12.74 12.763 0 0 1 170 41.648m-144.78 85.12c-6.684 11.598-2.717 26.428 8.86 33.125s26.382 2.722 33.066-8.876l48.936-84.912c6.684-11.599 2.717-26.43-8.86-33.126s-26.382-2.722-33.066 8.876l-.012.02-48.838 84.743zm70.778-25.814 28.851 50.062c6.685 11.599 21.49 15.573 33.067 8.876 11.577-6.696 15.543-21.528 8.858-33.126l-.01-.017-50.252-84.527" style="stroke:#000;stroke-width:12;stroke-linecap:round;stroke-linejoin:round;stroke-dasharray:none"/></svg>