<svg xmlns="http://www.w3.org/2000/svg" width="192" height="192" fill="none" viewBox="0 0 192 192"><path stroke="#000" stroke-linejoin="round" stroke-width="12" d="m102.852 22 49.127 74.399-105.746-5.553zM81.93 140.436c-.75 14.359-12.977 25.39-27.307 24.637-14.33-.752-25.338-13.003-24.587-27.362.751-14.36 12.977-25.39 27.307-24.638 14.33.753 25.338 13.003 24.587 27.363Zm28.16-12.787c.34-6.502 5.876-11.497 12.365-11.156l28.395 1.491c6.489.341 11.474 5.888 11.134 12.39l-1.489 28.453c-.34 6.502-5.876 11.497-12.365 11.157l-28.395-1.492c-6.489-.34-11.473-5.888-11.133-12.39z"/></svg>