<svg xmlns="http://www.w3.org/2000/svg" width="192" height="192" fill="none" xmlns:v="https://vecta.io/nano"><g stroke="#000" stroke-width="12"><path d="M118 132c0 4.99-.983 9.932-2.893 14.542a37.99 37.99 0 0 1-8.237 12.328c-3.529 3.529-7.718 6.328-12.328 8.237S84.99 170 80 170s-9.932-.983-14.542-2.893-8.799-4.708-12.328-8.237a38.01 38.01 0 0 1-8.237-12.328 38 38 0 0 1 0-29.084 38.01 38.01 0 0 1 8.237-12.328c3.529-3.529 7.718-6.328 12.328-8.237a38 38 0 0 1 29.084 0 38 38 0 0 1 12.328 8.237 37.99 37.99 0 0 1 8.237 12.328c1.91 4.61 2.893 9.552 2.893 14.542h0z"/><path d="M118 132V57c0-19.33 15.67-35 35-35h1m-48 0H70" stroke-linecap="round" stroke-linejoin="round"/></g><circle cx="151" cy="55" r="9" fill="#000"/></svg>