<svg width="192" height="192" fill="none" xmlns="http://www.w3.org/2000/svg"><path d="m56.466 159.507-20.739 3.657-10.452-20.159 31.19 16.502Zm0 0 38.8-6.841-9.503-26.514c-8.145.749-17.312-.385-25.928-2.304-11.744-2.615-32.4-14.559-36.924-33.367-4.663-19.391 8.214-39.342 20.8-49.69 22.657-18.628 60.626-27.618 94.606-7.787 13.522 7.892 21.933 20.953 22.405 33.177.579 15.024-8.008 28.914-13.875 34.762-5.634 5.615-6.418 6.632-15.63 13.069l-3.839 32.992 16.055-2.831m0 0 14.049-2.478 12.646-22.168-26.695 24.646Z" stroke="#000" stroke-width="12" stroke-linecap="round" stroke-linejoin="round"/></svg>