<svg xmlns="http://www.w3.org/2000/svg" width="192" height="192" fill="none" viewBox="0 0 192 192"><path stroke="#000" stroke-linecap="round" stroke-linejoin="round" stroke-width="12" d="M33 107c0-36.128 26.524-54.262 55.829-82.143 4.004-3.81 10.338-3.81 14.342 0C132.476 52.737 159 70.872 159 107m0 0a63 63 0 0 1-126 0"/><path stroke="#000" stroke-linecap="round" stroke-linejoin="round" stroke-width="12" d="M67 107.054c0-16.6 12.21-24.931 25.699-37.741a4.807 4.807 0 0 1 6.602 0C112.791 82.123 125 90.454 125 107.054a28.9 28.9 0 0 1-8.494 20.468A29 29 0 0 1 96 136a29 29 0 0 1-20.506-8.478 28.9 28.9 0 0 1-6.287-9.391A28.9 28.9 0 0 1 67 107.054"/></svg>