<svg width="24" height="24" viewBox="0 0 24 24" fill="none" xmlns="http://www.w3.org/2000/svg">
<g clip-path="url(#clip0_250_146)">
<path d="M15.7789 3.42555C14.2862 2.47116 12.0747 2.31984 10.0844 2.31984C8.09417 2.31984 5.88274 2.47116 4.39003 3.42555C3.9126 3.7308 3.53429 4.10912 3.22903 4.58655C2.27464 6.07926 2.12332 8.29068 2.12332 10.281C2.12332 12.2712 2.27464 14.4827 3.22903 15.9754C3.53429 16.4528 3.9126 16.8311 4.39003 17.1364C5.88274 18.0908 8.09417 18.2421 10.0844 18.2421C12.0747 18.2421 14.2862 18.0908 15.7789 17.1364C16.2563 16.8311 16.6346 16.4528 16.9399 15.9754C17.8943 14.4827 18.0456 12.2712 18.0456 10.281C18.0456 8.29068 17.8943 6.07926 16.9399 4.58655C16.6346 4.10912 16.2563 3.7308 15.7789 3.42555Z" fill="#FFF1C0"/>
<path d="M7.17917 20.0862C7.47115 20.5119 7.82688 20.8551 8.26675 21.1364C9.75946 22.0908 11.9709 22.2421 13.9612 22.2421C15.9514 22.2421 18.1629 22.0908 19.6556 21.1364C20.133 20.8311 20.5113 20.4528 20.8166 19.9754C21.771 18.4827 21.9223 16.2712 21.9223 14.281C21.9223 12.2907 21.771 10.0793 20.8166 8.58655C20.5695 8.20012 20.2746 7.87862 19.918 7.60824C20.0271 8.56681 20.0456 9.49261 20.0456 10.281C20.0456 12.2256 19.9331 15.0067 18.6249 17.0527C18.1635 17.7744 17.5779 18.36 16.8562 18.8214C14.8102 20.1296 12.0291 20.2421 10.0845 20.2421C9.23252 20.2421 8.22005 20.2205 7.17917 20.0862Z" fill="#FFF1C0"/>
</g>
<defs>
<clipPath id="clip0_250_146">
<rect width="24" height="24" fill="white"/>
</clipPath>
</defs>
</svg>
