<svg id="Layer_3" data-name="Layer 3" xmlns="http://www.w3.org/2000/svg" viewBox="0 0 24 24">
  <g>
    <path d="M19.71,4.2a3.37,3.37,0,0,0-1.48-1.29,8.74,8.74,0,0,0-2.92-.75,36.08,36.08,0,0,0-5.88-.07,11.18,11.18,0,0,0-3.14.59A3.68,3.68,0,0,0,4.22,4.32a3.68,3.68,0,0,0-.41,1.84V16.25a3.08,3.08,0,0,0,.92,2.27.26.26,0,0,1,.07.1v1.84a1.25,1.25,0,0,1,0-.21c0,.07,0,.14,0,.21h0A1.54,1.54,0,0,0,6.34,22a1.5,1.5,0,0,0,1.47-1.14,1,1,0,0,0,.09-.46v-1h8.2v1a1.53,1.53,0,0,0,3.06.05.09.09,0,0,0,0-.05V18.75a.36.36,0,0,1,.09-.23,3.09,3.09,0,0,0,.93-2.27V6.16A3.64,3.64,0,0,0,19.71,4.2ZM5.86,6.86a.74.74,0,0,1,.74-.74H17.4a.74.74,0,0,1,.74.74v3.61a.74.74,0,0,1-.74.73H6.6a.73.73,0,0,1-.74-.73Zm1.53,10.5a1.53,1.53,0,1,1,1.54-1.54A1.55,1.55,0,0,1,7.39,17.36Zm7.68-1.54a1.53,1.53,0,0,1,1.54-1.52,1.53,1.53,0,1,1-1.54,1.52Z"/>
    <path d="M4.83,20.46h0a1.25,1.25,0,0,1,0-.21C4.82,20.32,4.83,20.39,4.83,20.46Z"/>
    <path d="M4.83,20.46h0a1.25,1.25,0,0,1,0-.21C4.82,20.32,4.83,20.39,4.83,20.46Z"/>
  </g>
</svg>
