<svg xmlns="http://www.w3.org/2000/svg" width="192" height="192" fill="none" stroke="#000" stroke-linecap="round" stroke-linejoin="round" stroke-width="8" viewBox="0 0 192 192"><circle cx="96" cy="96" r="74" stroke-width="12"/><circle cx="72" cy="81" r="24"/><circle cx="120" cy="81" r="24"/><path d="M66.785 159a24 24 0 0 0-3.814-28.971C59.235 126.294 25 99 25 99m100.215 60a24.01 24.01 0 0 1 3.814-28.971C132.765 126.294 167 99 167 99m-86.515-9.515a12 12 0 0 1-16.97 0m64.97 0a12 12 0 0 1-16.97 0"/><path stroke-width="12" d="m56 32-26-2 11 15"/><path d="m86 103 10 10 10-10"/><path stroke-width="12" d="m136 32 26-2-11 15"/></svg>