<svg xmlns="http://www.w3.org/2000/svg" width="192" height="192" viewBox="0 0 192 192"><path d="M70.44 28a.93.93 0 0 1 .46.12 69 69 0 0 1 6.4 4c7.86 5.6 12.7 11.46 20.79 22.56 12 16.54 18.09 25 20.79 33.78a59.4 59.4 0 0 1 2.6 17.33 31.7 31.7 0 0 1-.87 8.66c-2.52 8.91-11.12 13.92-15.59 16a.94.94 0 0 0-.42 1.31 7.7 7.7 0 0 0 1.29 1.69c2.91 2.88 6.94 2.08 11.26 2.6 2.16.26 10.28 1.56 13.86 6.93s2.24 14.65-1.74 16.46a3.8 3.8 0 0 1-1.56.33c-1.62 0-3.55-.87-6.23-2.06-3.81-1.7-5.16-3.26-9.53-6.07a72 72 0 0 0-7.63-4.25 1 1 0 0 0-.34-.09 5 5 0 0 0-.56 0 3.88 3.88 0 0 0-2.73.9c-2 2 .25 6-1.73 7.79-1 .93-2 .28-5.2.87a19.6 19.6 0 0 0-4.86 1.57.86.86 0 0 0-.46.51c-.26.71-.51 1.46-.74 2.25-.12.41-.24.82-.34 1.22a.94.94 0 0 1-.92.7.88.88 0 0 1-.71-.34 6 6 0 0 0-.63-.71 8 8 0 0 0-2.27-1.59.85.85 0 0 0-.38-.09 1 1 0 0 0-.29.05 10.8 10.8 0 0 0-3.16 1.66 10.6 10.6 0 0 0-1.81 1.7.55.55 0 0 1-.44.21.6.6 0 0 1-.59-.72.59.59 0 0 0-.59-.71.65.65 0 0 0-.26.06 1 1 0 0 1-.43.11.94.94 0 0 1-.81-1.41 1.8 3 0 0 0 .6-1 16 16 0 0 1 2-2.47.93.93 0 0 0-.63-1.6.7.7 0 0 0-.2 0 13 13 0 0 0-1.36.34 1.44.5 0 0 0-.72.25 13.2 13.2 0 0 0-3 2 1.5 1.5 0 0 1-.52.11.5.5 0 0 1-.33-.11c-.19-.19-.09-.56 0-.85a14.7 14.7 0 0 1 1.25-2.84 6.8 6.8 0 0 1-1.73.86 7 7 0 0 1-1.22.28 2 2 0 0 1 0-.85 3.37 3.37 0 0 1 2.09-2 19.4 19.4 0 0 1 6.92-1.73c1.09-.08 2.4-.14 3.88-.14 1.14 0 2.39 0 3.72.13H85a1 1 0 0 0 .34-.06 5.31 5.31 0 0 0 3.25-3.39c.53-2.34-1.15-5.14-4.18-6a.8.8 0 0 0-.27 0 24.7 24.7 0 0 0-5.92.86c-4 1.09-5.65 2.65-8 2.65a6 6 0 0 1-.7-.05c-1.3-.17-3.15-.87-5.2-3.47a1.7 1.7 0 0 0-.46-.07 1.1 1.1 0 0 0-.4.07 1.36 1.36 0 0 0-.59.51 1 1 0 0 1-.81.45.9.9 0 0 1-.79-.47 18.34 18.34 0 0 1-2.14-11.75 15.94 15.94 0 0 1 3.46-7.79c2.78-3.29 5.72-3.75 10.39-6.06a48.7 48.7 0 0 0 10.92-7.49.9.9 0 0 0 .31-.76 13.5 13.5 0 0 0-1.7-5.61c-2.34-4.09-6-5-6.06-7.8 0-.85.25-2.13 2-3.78a1 1 0 0 0 .12-1.24 25.8 25.8 0 0 1-3.83-8c-.72-2.54-1.38-5.05 0-6.93A4.6 4.6 0 0 1 76.57 74a.94.94 0 0 0 .51-1.1c-1.88-7-3.67-12.57-5-16.5-4.42-13.27-7.91-20.62-4.33-26a9.6 9.6 0 0 1 2.1-2.24.88.88 0 0 1 .56-.19m0-12a13 13 0 0 0-7.91 2.7 21.4 21.4 0 0 0-4.74 5.08c-6.34 9.51-2.9 19.48 1.09 31 .58 1.68 1.2 3.47 1.84 5.4 1.09 3.27 2.14 6.62 3.13 10-3.32 6.08-1.58 12.29-.7 15.42a38.5 38.5 0 0 0 1.92 5.26 15.1 15.1 0 0 0-.62 5 15.4 15.4 0 0 0 4.19 9.92c-.33.18-.66.35-1 .51-1 .5-1.94.91-2.93 1.33-3.32 1.43-7.46 3.21-11.29 7.74a27.7 27.7 0 0 0-6.14 13.56 30.22 30.22 0 0 0 3.43 19.45 12.9 12.9 0 0 0 5.69 5.45 14 14 0 0 0 .13 4.86l2.21 10.91 4.81-.61a11 11 0 0 0 1 .61 12.9 12.9 0 0 0 4.33 3.66 12.59 12.59 0 0 0 13.68 1.32 13 13 0 0 0 15.1-6 14.15 14.15 0 0 0 9.37-3.71 13 13 0 0 0 1.15-1.19 1.08.78 0 0 0 .54.39 40.2 40.2 0 0 0 7.82 4.65c3.57 1.6 7 3.11 11.12 3.11a15.7 15.7 0 0 0 6.54-1.41c4.7-2.14 8.2-6.51 9.85-12.29a25.25 25.25 0 0 0-16-31.59 31.6 31.6 0 0 0 4.09-8.81 42.6 42.6 0 0 0 1.32-11.82 71.6 71.6 0 0 0-3.13-21c-3.3-10.81-10.12-20.2-22.5-37.24-8.7-12-14.44-18.81-23.56-25.26a84 84 0 0 0-7.49-4.73A13 13 0 0 0 70.44 16z"/></svg>