<svg xmlns="http://www.w3.org/2000/svg" width="192" height="192" fill="none" viewBox="0 0 192 192"><path stroke="#000" stroke-width="8" d="M52.862 80.295c-.871-1.568-1.394-3.368-1.394-5.225 0-5.865 4.761-10.625 10.625-10.625 2.148 0 4.18.638 5.864 1.8a22.3 22.3 0 0 0-1.974 9.23c0 .582.058 1.22.058 1.8-.406 0-.813-.057-1.277-.057a23.33 23.33 0 0 0-11.902 3.077zm-2.323 41.28c-6.154-4.47-10.218-11.728-10.218-19.914 0-2.09.29-4.122.755-6.038h-.639C29.173 95.623 20 104.796 20 116.06c0 11.263 9.173 20.437 20.437 20.437 4.296 0 8.303-1.336 11.612-3.6a13.7 13.7 0 0 1-2.148-7.316c0-1.393.232-2.728.638-4.006zm.871-2.206c1.858-3.542 5.168-6.154 9.174-6.967a54 54 0 0 1 1.16-.174c.407-.058.756-.058 1.162-.116h.523c.638 0 1.219.058 1.858.116a34 34 0 0 1-.29-4.239c0-6.85 2.264-13.237 6.037-18.405a19.5 19.5 0 0 1-2.264-3.425l-.522-1.045c-.175-.349-.349-.697-.465-1.045a24 24 0 0 1-1.335-4.529c-.523-.058-1.045-.058-1.568-.058-3.832 0-7.49.987-10.625 2.729-.348.174-.697.406-1.045.58-.348.233-.639.407-.987.64a22.43 22.43 0 0 0-8.07 10.16c-.116.348-.29.754-.407 1.103-.116.348-.232.754-.348 1.103a21.7 21.7 0 0 0-.813 5.864c.058 7.2 3.542 13.644 8.825 17.708zm71.704-26.185c2.96-1.567 6.27-2.496 9.812-2.729-.929-10.45-9.696-18.695-20.379-18.695-.406 0-.813 0-1.22.058.175 1.161.291 2.38.291 3.6 0 1.916-.232 3.774-.697 5.516 5.11 2.844 9.406 7.083 12.193 12.25zM68.596 78.611c.058.407.174.813.232 1.22.232.928.465 1.857.813 2.728.174.407.29.755.464 1.161.175.349.349.755.523 1.104a19.5 19.5 0 0 0 1.858 2.96c1.451-1.625 3.019-3.135 4.76-4.47.35-.232.64-.464.988-.697l1.045-.696a30.5 30.5 0 0 1 16.199-4.82h.406c.406 0 .755 0 1.161.059.523 0 1.045.058 1.568.116 3.6.29 6.967 1.219 10.102 2.67.29-1.451.465-2.902.465-4.47 0-1.161-.117-2.264-.29-3.31a8 8 0 0 0-.233-1.16c-.058-.407-.174-.755-.29-1.104A20.19 20.19 0 0 0 88.8 54.922c-7.722 0-14.457 4.297-17.94 10.568-.175.348-.407.696-.581 1.045-.175.406-.349.755-.523 1.16-.929 2.381-1.51 4.936-1.51 7.665 0 .697.059 1.335.117 2.032.116.406.174.813.232 1.22zm92.199 34.604a9 9 0 0 0-1.8.174c.058.522.058 1.045.058 1.51 0 6.502-2.555 12.424-6.735 16.837a11.17 11.17 0 0 0 8.476 3.89c6.155 0 11.206-5.051 11.206-11.206s-5.051-11.205-11.205-11.205zm-4.123.754c0-.406-.058-.812-.058-1.219-.058-.406-.058-.813-.116-1.161-1.567-10.45-10.392-18.521-21.133-18.87h-1.162c-.406 0-.754 0-1.16.059a22.5 22.5 0 0 0-8.826 2.496c1.626 3.542 2.555 7.432 2.729 11.496 0 .406.058.813.058 1.22v.348c0 .522 0 1.045-.058 1.567-.465 7.722-3.774 14.631-8.883 19.799a22.2 22.2 0 0 0 16.547 7.373c5.632 0 10.799-2.148 14.747-5.632.29-.29.58-.522.87-.812s.581-.581.814-.871c3.6-3.948 5.748-9.174 5.748-14.922a3.5 3.5 0 0 1-.117-.87zm-86.857 10.567c-.232-.348-.406-.696-.639-1.045a31.3 31.3 0 0 1-3.425-8.825 10 10 0 0 0-2.264-.232h-.233c-.406 0-.754.058-1.16.058a8 8 0 0 0-1.162.232c-3.31.755-6.038 3.02-7.49 5.98-.174.349-.348.697-.464 1.103-.116.349-.232.755-.348 1.104-.233.87-.349 1.8-.349 2.728 0 2.149.639 4.18 1.684 5.864.232.349.406.64.697.987.232.29.464.581.754.871a11.17 11.17 0 0 0 8.129 3.484c4.76 0 8.825-2.961 10.45-7.141-1.219-1.278-2.38-2.613-3.367-4.123a3.2 3.2 0 0 1-.813-1.045zm54.692-14.34c.058-.465.058-.987.058-1.51v-.755c0-4.122-.87-8.012-2.438-11.554l-.523-1.045-.522-1.045c-2.555-4.645-6.329-8.535-10.915-11.147-.349-.174-.697-.407-1.046-.58q-.522-.263-1.045-.523c-3.541-1.684-7.431-2.613-11.553-2.73H95.07c-.523 0-.987.059-1.451.059a27.8 27.8 0 0 0-12.425 4.006c-.349.232-.697.406-.987.639-.349.232-.639.464-.987.696-1.916 1.394-3.658 2.961-5.168 4.761-.232.29-.522.58-.754.93-.233.29-.465.638-.697.928-3.367 4.703-5.342 10.393-5.342 16.605 0 1.626.117 3.252.407 4.761.058.465.174.871.232 1.335.116.465.232.93.348 1.452.697 2.613 1.8 5.051 3.194 7.316.232.348.406.696.638.987.233.348.465.638.697.987a20 20 0 0 0 1.684 2.09c.348.348.639.754.987 1.103.29.348.639.638.987.929 5.11 4.703 11.96 7.606 19.45 7.606 7.2 0 13.818-2.671 18.87-7.084.29-.232.58-.522.87-.754.29-.29.58-.523.871-.813 4.18-4.355 7.025-9.987 7.838-16.257q.087-.609.174-1.393z"/></svg>