<svg xmlns="http://www.w3.org/2000/svg" width="192" height="192" fill="none"><path stroke="#000" stroke-linecap="round" stroke-linejoin="round" stroke-width="12" d="M135.284 94.435A21 21 0 0 0 104.5 70.814M71 73a12 12 0 1 0-18 10.392"/><path stroke="#000" stroke-linecap="round" stroke-linejoin="round" stroke-width="12" d="M50.243 127.302A15.97 15.97 0 0 1 38 133c-8.837 0-16-7.163-16-16s7.163-16 16-16c6.398 0 11.919 3.755 14.479 9.182m-2.236 17.12A12.99 12.99 0 0 0 61 133c6.69 0 12.201-5.055 12.92-11.554m-23.677 5.856A12.94 12.94 0 0 1 48 120c0-3.92 1.735-7.435 4.479-9.818m0 0A12.95 12.95 0 0 1 61 107c3.569 0 6.802 1.438 9.151 3.767m0 0A25 25 0 0 1 70 108c0-8.404 4.147-15.84 10.507-20.373m-10.356 23.14c.43 3.9 1.756 7.53 3.77 10.679m0 0C78.36 128.394 86.142 133 95 133a24.92 24.92 0 0 0 17.304-6.956m5.365-28.599A18.9 18.9 0 0 1 127 95c10.493 0 19 8.507 19 19s-8.507 19-19 19c-5.922 0-11.211-2.709-14.696-6.956m5.365-28.599A24.9 24.9 0 0 1 120 108c0 7.092-2.953 13.494-7.696 18.044m5.365-28.599c-3.411-7.315-10.26-12.705-18.468-14.094m-18.694 4.276A24.9 24.9 0 0 1 95 83c1.431 0 2.835.12 4.2.351m-18.693 4.276C74.906 85.138 71 79.525 71 73c0-8.837 7.163-16 16-16s16 7.163 16 16c0 3.948-1.43 7.561-3.8 10.351M170 121c0 6.627-5.373 12-12 12s-12-5.373-12-12 5.373-12 12-12 12 5.373 12 12M75.435 88.565a19 19 0 0 0-32.201 10.463"/></svg>