<svg width="192" height="192" fill="none" xmlns="http://www.w3.org/2000/svg"><path d="M32 58.828C25.642 69.75 22 82.45 22 96c0 37.131 27.348 67.875 63 73.188M32 58.828C44.82 36.803 68.68 22 96 22c13.893 0 26.893 3.829 38 10.489M32 58.828l14.153 29.47M85 169.189a74.574 74.574 0 0 0 11.49.81m-11.49-.81-38.847-80.89M134 32.489C155.566 45.42 170 69.025 170 96c0 22.316-9.878 42.324-25.5 55.892M134 32.489l2.984 33.934m7.516 85.469A74.17 74.17 0 0 1 133 160.1m11.5-8.208-7.516-85.47M96.491 169.999c13.294-.086 25.757-3.678 36.509-9.898m-36.51 9.898L97.89 93 133 160.1M46.153 88.299C59.674 70.595 81.003 59.172 105 59.172c11.456 0 22.304 2.604 31.984 7.25M110.5 45.5l1 27.5" stroke="#000" stroke-width="12" stroke-linecap="round" stroke-linejoin="round"/></svg>