<svg xmlns="http://www.w3.org/2000/svg" width="192" height="192" fill="none"><path stroke="#000" stroke-linecap="round" stroke-linejoin="round" stroke-width="12" d="M31 126a6 6 0 0 1 6-6h118a6 6 0 0 1 6 6v38a6 6 0 0 1-6 6H37a6 6 0 0 1-6-6zM69 22h54M69 98h54m0 0a38 38 0 1 0 0-76"/><circle cx="123" cy="60" r="4" stroke="#000" stroke-linecap="round" stroke-linejoin="round" stroke-width="8"/><circle cx="69" cy="60" r="4" stroke="#000" stroke-linecap="round" stroke-linejoin="round" stroke-width="8"/><path stroke="#000" stroke-linecap="round" stroke-linejoin="round" stroke-width="12" d="M69 22a38 38 0 0 0 0 76"/></svg>