<svg width="192" height="192" fill="none" xmlns="http://www.w3.org/2000/svg"><path d="M31 126a6 6 0 0 1 6-6h118a6 6 0 0 1 6 6v38a6 6 0 0 1-6 6H37a6 6 0 0 1-6-6v-38ZM69 22h54M69 98h54m0 0a38 38 0 1 0 0-76" stroke="#000" stroke-width="12" stroke-linecap="round" stroke-linejoin="round"/><circle cx="123" cy="60" r="4" stroke="#000" stroke-width="8" stroke-linecap="round" stroke-linejoin="round"/><circle cx="69" cy="60" r="4" stroke="#000" stroke-width="8" stroke-linecap="round" stroke-linejoin="round"/><path d="M69 22a38 38 0 0 0 0 76" stroke="#000" stroke-width="12" stroke-linecap="round" stroke-linejoin="round"/></svg>