<?xml version="1.0" encoding="UTF-8" standalone="no"?>
<svg
   width="192"
   height="192"
   viewBox="0 0 192 192"
   fill="none"
   version="1.1"
   id="svg4"
   sodipodi:docname="pac_man_256.svg"
   inkscape:version="1.4.3 (0d15f75, 2025-12-25)"
   inkscape:export-filename="Lawnicons_template.png"
   inkscape:export-xdpi="96"
   inkscape:export-ydpi="96"
   xml:space="preserve"
   xmlns:inkscape="http://www.inkscape.org/namespaces/inkscape"
   xmlns:sodipodi="http://sodipodi.sourceforge.net/DTD/sodipodi-0.dtd"
   xmlns="http://www.w3.org/2000/svg"
   xmlns:svg="http://www.w3.org/2000/svg"><defs
     id="defs4"><inkscape:path-effect
       effect="fillet_chamfer"
       id="path-effect2"
       is_visible="true"
       lpeversion="1"
       nodesatellites_param="F,0,0,1,0,6,0,1 @ F,0,0,1,0,6,0,1 @ F,0,0,1,0,6,0,1 @ F,0,0,1,0,6,0,1 @ F,0,0,1,0,6,0,1 @ F,0,0,1,0,6,0,1 @ F,0,0,1,0,6,0,1 @ F,0,0,1,0,6,0,1 @ F,0,0,1,0,6,0,1 @ F,0,0,1,0,6,0,1 @ F,0,0,1,0,6,0,1 @ F,0,0,1,0,6,0,1 @ F,0,0,1,0,6,0,1 @ F,0,0,1,0,6,0,1 @ F,0,0,1,0,6,0,1 @ F,0,0,1,0,6,0,1 @ F,0,0,1,0,6,0,1 @ F,0,0,1,0,6,0,1 @ F,0,0,1,0,6,0,1 @ F,0,0,1,0,6,0,1 @ F,0,0,1,0,6,0,1 @ F,0,0,1,0,6,0,1 @ F,0,0,1,0,6,0,1 @ F,0,0,1,0,6,0,1 @ F,0,0,1,0,6,0,1 @ F,0,0,1,0,6,0,1 @ F,0,0,1,0,6,0,1 @ F,0,0,1,0,6,0,1 @ F,0,0,1,0,6,0,1 @ F,0,0,1,0,6,0,1 @ F,0,0,1,0,6,0,1 @ F,0,0,1,0,6,0,1"
       radius="6"
       unit="px"
       method="auto"
       mode="F"
       chamfer_steps="1"
       flexible="false"
       use_knot_distance="true"
       apply_no_radius="true"
       apply_with_radius="true"
       only_selected="false"
       hide_knots="false" /><linearGradient
       id="swatch6"><stop
         style="stop-color:#3b8aff;stop-opacity:1;"
         offset="0"
         id="stop6" /></linearGradient><linearGradient
       id="swatch5"
       inkscape:swatch="solid"
       inkscape:label="Lawn Gold"><stop
         style="stop-color:#ff9900;stop-opacity:1;"
         offset="0"
         id="stop5" /></linearGradient><linearGradient
       id="swatch4"
       inkscape:swatch="solid"
       inkscape:label="Lawn Blue"><stop
         style="stop-color:#3b8aff;stop-opacity:1;"
         offset="0"
         id="stop4" /></linearGradient></defs><sodipodi:namedview
     id="namedview4"
     pagecolor="#ffffff"
     bordercolor="#999999"
     borderopacity="1"
     inkscape:showpageshadow="2"
     inkscape:pageopacity="0"
     inkscape:pagecheckerboard="0"
     inkscape:deskcolor="#d1d1d1"
     inkscape:zoom="4"
     inkscape:cx="93.625"
     inkscape:cy="99.125"
     inkscape:window-width="1920"
     inkscape:window-height="1009"
     inkscape:window-x="-8"
     inkscape:window-y="-8"
     inkscape:window-maximized="1"
     inkscape:current-layer="layer2"
     showgrid="false"><inkscape:page
       x="0"
       y="0"
       width="192"
       height="192"
       id="page1"
       margin="0"
       bleed="0" /></sodipodi:namedview><inkscape:templateinfo><inkscape:name>Lawnicon</inkscape:name><inkscape:date>2025-12-24</inkscape:date></inkscape:templateinfo><inkscape:templateinfo><inkscape:name>Lawnicon</inkscape:name><inkscape:date>2025-12-24</inkscape:date></inkscape:templateinfo><g
     inkscape:groupmode="layer"
     id="layer2"
     inkscape:label="icon"
     inkscape:highlight-color="#6667ab"><path
       fill="#fff000"
       d="m 68.76987,24.001385 h 43.38355 a 6,6 45 0 1 6,6 5.5575617,5.5575617 40.235173 0 0 6,5.07671 h 10.15342 a 6,6 45 0 1 6,6 5.5575617,5.5575617 40.235173 0 0 6,5.07671 5.5575617,5.5575617 49.764827 0 1 5.07671,6 v 10.15342 a 6,6 45 0 0 6,6 5.5575617,5.5575617 49.764827 0 1 5.07671,6 v 43.383555 a 6,6 135 0 1 -6,6 5.5575617,5.5575617 130.23517 0 0 -5.07671,6 v 10.15341 a 6,6 135 0 1 -6,6 5.5575617,5.5575617 130.23517 0 0 -5.07671,6 5.5575617,5.5575617 139.76483 0 1 -6,5.07671 h -10.15342 a 6,6 135 0 0 -6,6 5.5575617,5.5575617 139.76483 0 1 -6,5.07671 l -43.38355,0 a 6,6 45 0 1 -6,-6 5.5575617,5.5575617 40.235173 0 0 -6,-5.07671 H 46.61645 a 6,6 45 0 1 -6,-6 5.5575617,5.5575617 40.235173 0 0 -6,-5.07671 5.5575617,5.5575617 49.764827 0 1 -5.07671,-6 v -10.15341 a 6,6 135 0 1 6,-6 h 10.15342 a 6,6 135 0 0 6,-6 5.5575617,5.5575617 139.76483 0 1 6,-5.07671 h 21.23013 a 6,6 135 0 0 6,-6 V 85.384935 a 6,6 45 0 0 -6,-6 H 57.69316 a 6,6 45 0 1 -6,-6 5.5575617,5.5575617 40.235173 0 0 -6,-5.07671 H 35.53974 a 6,6 45 0 1 -6,-6 l 0,-10.15342 a 6,6 135 0 1 6,-6 5.5575617,5.5575617 130.23517 0 0 5.07671,-6 5.5575617,5.5575617 139.76483 0 1 6,-5.07671 h 10.15342 a 6,6 135 0 0 6,-6 5.5575617,5.5575617 139.76483 0 1 6,-5.07671 z"
       id="path1"
       style="fill:none;fill-opacity:0;stroke:#000000;stroke-width:11.6782;stroke-linecap:round;stroke-linejoin:round;stroke-dasharray:none;stroke-dashoffset:0;stroke-opacity:1;shape-rendering:crispEdges"
       sodipodi:nodetypes="ccccccccccccccccccccccccccccccccc"
       inkscape:path-effect="#path-effect2"
       inkscape:original-d="m 62.76987,24.001385 h 55.38355 v 11.07671 h 22.15342 v 11.07671 h 11.07671 v 22.15342 h 11.07671 v 55.383555 h -11.07671 v 22.15341 h -11.07671 v 11.07671 h -22.15342 v 11.07671 H 62.76987 V 156.9219 H 40.61645 V 145.84519 H 29.53974 V 123.69178 H 51.69316 V 112.61507 H 84.92329 V 79.384935 H 51.69316 V 68.308225 H 29.53974 v -22.15342 h 11.07671 v -11.07671 h 22.15342 z"
       transform="matrix(1.0275345,0,0,1.0275345,-2.6624236,-2.6638851)" /><path
       style="fill:none;fill-opacity:0;stroke:#000000;stroke-width:11.9999;stroke-linecap:round;stroke-linejoin:round;stroke-dasharray:none"
       d="m 87.389647,96.000003 c 31.599563,0 31.599563,0 31.599563,0"
       id="path2" /></g><inkscape:templateinfo><inkscape:name>Lawnicons</inkscape:name><inkscape:date>2025-12-24</inkscape:date></inkscape:templateinfo><inkscape:templateinfo><inkscape:name>Lawnicon</inkscape:name><inkscape:shortdesc>用于设计 LawnchairLauncher/lawnicons 的模板</inkscape:shortdesc><inkscape:date>2025-12-24</inkscape:date></inkscape:templateinfo></svg>
