<svg width="192" height="192" fill="none" xmlns="http://www.w3.org/2000/svg"><path d="M28 51v11a6 6 0 0 0 6 6h16v5a6 6 0 0 0 6 6h23a6 6 0 0 1 6 6v22a6 6 0 0 1-6 6H56a6 6 0 0 0-6 6v5H34a6 6 0 0 0-6 6v11a6 6 0 0 0 6 6h6v6a6 6 0 0 0 6 6h16v5a6 6 0 0 0 6 6h44a6 6 0 0 0 6-6v-5h17a6 6 0 0 0 6-6v-6h6a6 6 0 0 0 6-6v-17h5a6 6 0 0 0 6-6V74a6 6 0 0 0-6-6h-5V51a6 6 0 0 0-6-6h-6v-6a6 6 0 0 0-6-6h-17v-5a6 6 0 0 0-6-6H68a6 6 0 0 0-6 6v5H46a6 6 0 0 0-6 6v6h-6a6 6 0 0 0-6 6Zm57 45h34" stroke="#000" stroke-width="12" stroke-linecap="round" stroke-linejoin="round"/></svg>