<svg width="192" height="192" fill="none" xmlns="http://www.w3.org/2000/svg"><g clip-path="url(#packeta__a)" stroke="#000" stroke-width="12" stroke-linecap="round" stroke-linejoin="round"><path d="m96 170 58.595-38.629a12.03 12.03 0 0 0 3.968-4.328 11.926 11.926 0 0 0 1.437-5.676V54.43M96 170l-58.595-38.629a12.032 12.032 0 0 1-3.968-4.328A11.938 11.938 0 0 1 32 121.367V54.43M96 170V89.747m64-35.317-58.288-31.006a12.166 12.166 0 0 0-11.424 0L32 54.43m128 0-12.094 6.675M32 54.43l64 35.317m0 0 8.296-4.576"/><path d="M127.75 96V72.114L66 38"/></g><defs><clipPath id="packeta__a"><path fill="#fff" d="M0 0h192v192H0z"/></clipPath></defs></svg>