<svg xmlns="http://www.w3.org/2000/svg" width="192" height="192" fill="none" viewBox="0 0 192 192"><path stroke="#000" stroke-linecap="round" stroke-width="12" d="m142 22-18 18M50 22l18 18"/><path stroke="#000" stroke-linecap="round" stroke-width="10" d="M144 91H48"/><path stroke="#000" stroke-linecap="round" stroke-width="12" d="M145 82v39a49 49 0 0 1-14.352 34.648 48.995 48.995 0 0 1-69.296 0A49 49 0 0 1 47 121V82a49 49 0 0 1 98 0Z"/><path stroke="#000" stroke-linecap="round" stroke-linejoin="round" stroke-width="10" d="M85 128h-7m36 0h-7m-11-18v7m0 22v7m-7.778-25.779-4.95-4.95m25.456 25.456-4.95-4.949m4.95-20.507-4.95 4.95m-15.556 15.557-4.95 4.949M96 139c6.075 0 11-4.925 11-11s-4.925-11-11-11-11 4.925-11 11 4.925 11 11 11"/><path stroke="#000" stroke-linecap="round" stroke-linejoin="round" stroke-width="8" d="M75 73a4 4 0 1 0 0-8 4 4 0 0 0 0 8m42 0a4 4 0 1 0 0-8 4 4 0 0 0 0 8"/></svg>