<svg width="192" height="192" viewBox="0 0 192 192" fill="none" xmlns="http://www.w3.org/2000/svg"><path d="m142 22-18 18M50 22l18 18" stroke="#000" stroke-width="12" stroke-linecap="round"/><path d="M144 91H48" stroke="#000" stroke-width="10" stroke-linecap="round"/><path d="M145 82v39a48.995 48.995 0 0 1-14.352 34.648 48.995 48.995 0 0 1-69.296 0A48.998 48.998 0 0 1 47 121V82a49 49 0 0 1 98 0Z" stroke="#000" stroke-width="12" stroke-linecap="round"/><path d="M86 128h-8m10.93-7.071-5.658-5.657M114 128h-8m2.728 12.728-5.657-5.657M96 110v8m12.728-2.728-5.657 5.657M96 138v8m-7.071-10.929-5.657 5.657" stroke="#000" stroke-width="10" stroke-linecap="round" stroke-linejoin="round"/><circle cx="96" cy="128" r="10" stroke="#000" stroke-width="10" stroke-linecap="round" stroke-linejoin="round"/><circle cx="75" cy="69" r="4" stroke="#000" stroke-width="8" stroke-linecap="round" stroke-linejoin="round"/><circle cx="117" cy="69" r="4" stroke="#000" stroke-width="8" stroke-linecap="round" stroke-linejoin="round"/></svg>