<?xml version="1.0" encoding="UTF-8" standalone="no"?>
<svg
   width="192"
   height="192"
   viewBox="0 0 192 192"
   fill="none"
   version="1.1"
   id="svg630"
   inkscape:version="1.2.1 (9c6d41e410, 2022-07-14)"
   sodipodi:docname="package_manager.svg"
   xmlns:inkscape="http://www.inkscape.org/namespaces/inkscape"
   xmlns:sodipodi="http://sodipodi.sourceforge.net/DTD/sodipodi-0.dtd"
   xmlns="http://www.w3.org/2000/svg"
   xmlns:svg="http://www.w3.org/2000/svg">
  <defs
     id="defs634" />
  <sodipodi:namedview
     id="namedview632"
     pagecolor="#ffffff"
     bordercolor="#000000"
     borderopacity="0.25"
     inkscape:showpageshadow="2"
     inkscape:pageopacity="0.0"
     inkscape:pagecheckerboard="0"
     inkscape:deskcolor="#d1d1d1"
     showgrid="false"
     inkscape:zoom="3.0530808"
     inkscape:cx="-2.6203041"
     inkscape:cy="117.58614"
     inkscape:window-width="1920"
     inkscape:window-height="1009"
     inkscape:window-x="-8"
     inkscape:window-y="-8"
     inkscape:window-maximized="1"
     inkscape:current-layer="svg630" />
  <path
     d="m 127,68.000002 a 9,9 0 0 1 -9,9 9,9 0 0 1 -9,-9 9,9 0 0 1 9,-9 9,9 0 0 1 9,9 z m -43.999994,0 a 9,9 0 0 1 -9.000005,9 9,9 0 0 1 -9,-9 9,9 0 0 1 9,-9 9,9 0 0 1 9.000005,9 z"
     fill="#000000"
     id="path2" />
  <path
     d="m 142.1,22.000002 -18.45,18.5 m -73.789999,-18.5 18.45,18.5"
     fill="none"
     stroke="#000000"
     stroke-linecap="round"
     stroke-width="12"
     id="path4" />
  <path
     d="M 145,82.000002 V 121 A 49,49 0 0 1 96.000006,170 49,49 0 0 1 47.000001,121 V 82.000002 a 49,49 0 0 1 49.000005,-49 49,49 0 0 1 48.999994,49 z m -97.999999,9 H 145"
     fill="none"
     stroke="#000000"
     stroke-width="12"
     id="path6" />
  <g
     id="g49860"
     transform="translate(16.000001,46.899998)">
    <path
       d="m 77.725228,56.087284 c -2.47404,0 -4.570895,1.86233 -4.863464,4.31899 l -0.292041,2.45027 c -0.06809,0.57192 -0.546589,1.30027 -1.477103,1.82486 -0.887472,0.50026 -1.69707,0.53864 -2.230823,0.30977 l -2.261204,-0.9698 c -2.27378,-0.97507 -4.934769,-0.0898 -6.171595,2.05274 l -2.275551,3.94003 c -1.236998,2.14258 -0.672216,4.8894 1.309125,6.37082 l 1.766603,1.32092 c 0.50588,0.37828 0.908215,1.1867 0.908215,2.29414 0,1.10748 -0.402348,1.91586 -0.908215,2.29413 l -1.766603,1.32092 c -1.981298,1.4816 -2.546123,4.22824 -1.309125,6.37082 l 2.275551,3.940042 c 1.236998,2.14266 3.897902,3.0278 6.171595,2.05273 l 2.261204,-0.9698 c 0.533796,-0.22892 1.343394,-0.19066 2.230823,0.30977 0.930471,0.52442 1.408996,1.25277 1.477103,1.82481 l 0.292041,2.45028 c 0.292448,2.456664 2.389381,4.318994 4.863464,4.318994 h 4.549288 c 2.474086,0 4.570896,-1.86246 4.863466,-4.318994 l 0.35112,-2.94998 c 0.0546,-0.45916 0.43205,-1.0752 1.207011,-1.537 0.78834,-0.46966 1.50852,-0.49753 1.96241,-0.30301 l 2.74064,1.17494 c 2.27382,0.97503 4.93477,0.0899 6.17159,-2.05273 l 2.275547,-3.940042 c 1.23704,-2.14266 0.67205,-4.88939 -1.30912,-6.37081 l -2.587867,-1.93541 c -0.34447,-0.25754 -0.66344,-0.83881 -0.66344,-1.67965 0,-0.84084 0.31874,-1.42187 0.66344,-1.67965 l 2.587867,-1.93541 a 0.86439489,0.86439489 0 0 0 8.6e-4,0 c 1.98117,-1.48164 2.54535,-4.22828 1.30826,-6.37081 l -2.275547,-3.94004 c -1.23704,-2.14258 -3.8979,-3.02776 -6.17159,-2.05273 l -2.74064,1.17494 c -0.45367,0.19456 -1.17399,0.16672 -1.96241,-0.30302 -0.774941,-0.46171 -1.152381,-1.07792 -1.207011,-1.537 l -0.35112,-2.94997 c -0.29268,-2.45658 -2.38934,-4.31899 -4.863466,-4.31899 h -4.549288 z m 0.255749,5.18585 h 4.037961 l 0.320737,2.69673 c 0.294863,2.47586 1.927836,4.32128 3.702006,5.37816 1.83847,1.09547 4.312732,1.62092 6.660362,0.61448 l 0.003,-8.6e-4 2.50347,-1.07365 2.01898,3.49691 -2.38276,1.78263 c -1.96769,1.47136 -2.74401,3.77535 -2.74401,5.83236 0,2.05696 0.77636,4.3613 2.74401,5.83235 l 2.38276,1.78264 -2.01898,3.4969 -2.50515,-1.07446 c -2.3482,-1.00692 -4.822412,-0.48112 -6.661232,0.61448 -1.77421,1.05696 -3.407144,2.902562 -3.702003,5.378162 l -0.320736,2.69672 h -4.037963 l -0.261656,-2.1962 c -0.319138,-2.68079 -2.146554,-4.639182 -4.080141,-5.729502 -1.899059,-1.07067 -4.422667,-1.58748 -6.821555,-0.55878 l -2.026587,0.86937 -2.018117,-3.49691 1.561503,-1.16816 c 2.176804,-1.62801 2.988778,-4.19449 2.988778,-6.44687 0,-2.25226 -0.811888,-4.81895 -2.988778,-6.44688 l -1.561503,-1.16816 2.018981,-3.4969 2.025723,0.86854 c 2.398802,1.02866 4.922669,0.51267 6.821555,-0.55791 1.933717,-1.09002 3.760995,-3.04859 4.080141,-5.7295 l 0.261656,-2.19621 z"
       color="#000000"
       fill="#000000"
       stroke-width="4"
       id="path243"
       style="stroke-width:12;stroke-dasharray:none" />
    <path
       d="M 79.999999,82 C 81.104584,82 82,81.104572 82,80 82,78.89543 81.104584,78 79.999999,78 78.895428,78 78,78.895444 78,80 c 0,1.104585 0.895428,2 1.999999,2 z"
       stroke="#000000"
       stroke-width="12"
       id="path245" />
  </g>
</svg>
