<svg xmlns="http://www.w3.org/2000/svg" width="192" height="192" fill="none" stroke-width="12" viewBox="0 0 192 192"><path fill="#000" d="M127 68a9 9 0 0 1-18 0 9 9 0 0 1 18 0m-44 0a9 9 0 0 1-18 0 9 9 0 0 1 18 0"/><path stroke="#000" stroke-linecap="round" d="m142.1 22-18.45 18.5M49.86 22l18.45 18.5"/><path stroke="#000" d="M145 82v39a49 49 0 0 1-98 0V82a49 49 0 0 1 98 0zm-98 9h98"/><path fill="#000" d="M93.725 102.987a4.91 4.91 0 0 0-4.863 4.32l-.292 2.45c-.068.571-.547 1.3-1.477 1.824-.888.5-1.697.539-2.231.31l-2.261-.97a4.91 4.91 0 0 0-6.172 2.053l-2.276 3.94a4.91 4.91 0 0 0 1.31 6.371l1.766 1.32c.506.38.908 1.188.908 2.295 0 1.108-.402 1.916-.908 2.294l-1.766 1.321a4.91 4.91 0 0 0-1.31 6.37l2.276 3.94a4.91 4.91 0 0 0 6.172 2.054l2.26-.97c.535-.23 1.344-.19 2.232.31.93.524 1.409 1.252 1.477 1.824l.292 2.45a4.91 4.91 0 0 0 4.863 4.32h4.55a4.91 4.91 0 0 0 4.863-4.32l.351-2.95c.055-.458.432-1.074 1.207-1.536.788-.47 1.509-.498 1.963-.303l2.74 1.175a4.91 4.91 0 0 0 6.172-2.053l2.275-3.94a4.91 4.91 0 0 0-1.309-6.37l-2.587-1.936c-.344-.258-.663-.84-.663-1.68s.319-1.422.663-1.68l2.588-1.935h.001a4.91 4.91 0 0 0 1.308-6.37l-2.275-3.94a4.91 4.91 0 0 0-6.172-2.054l-2.74 1.175c-.454.195-1.174.167-1.963-.303-.775-.461-1.152-1.078-1.207-1.537l-.351-2.95a4.91 4.91 0 0 0-4.863-4.319h-4.55zm.256 5.186h4.038l.32 2.697c.296 2.476 1.929 4.321 3.703 5.378 1.838 1.095 4.312 1.62 6.66.615l.003-.001 2.504-1.074 2.018 3.497-2.382 1.783c-1.968 1.47-2.745 3.775-2.745 5.832s.776 4.361 2.744 5.832l2.382 1.783-2.018 3.497-2.506-1.075c-2.348-1.007-4.822-.48-6.66.615-1.775 1.057-3.408 2.902-3.703 5.378l-.32 2.697H93.98l-.261-2.197c-.32-2.68-2.147-4.639-4.08-5.729-1.9-1.07-4.423-1.587-6.822-.559l-2.027.87-2.018-3.497 1.562-1.168c2.177-1.629 2.989-4.195 2.989-6.447 0-2.253-.812-4.82-2.99-6.447l-1.56-1.168 2.018-3.497 2.026.868c2.399 1.029 4.923.513 6.822-.558 1.933-1.09 3.76-3.048 4.08-5.73z"/><path stroke="#000" d="M96 128.9a2 2 0 1 0 0-4 2 2 0 0 0 0 4z"/></svg>