<?xml version="1.0" encoding="UTF-8" standalone="no"?>
<svg
   width="192"
   height="192"
   fill="none"
   version="1.1"
   id="svg3"
   sodipodi:docname="paint.svg"
   inkscape:version="1.4.2 (ebf0e940d0, 2025-05-08)"
   xml:space="preserve"
   xmlns:inkscape="http://www.inkscape.org/namespaces/inkscape"
   xmlns:sodipodi="http://sodipodi.sourceforge.net/DTD/sodipodi-0.dtd"
   xmlns="http://www.w3.org/2000/svg"
   xmlns:svg="http://www.w3.org/2000/svg"><defs
     id="defs3"><inkscape:path-effect
       effect="bend_path"
       id="path-effect2"
       is_visible="true"
       lpeversion="1"
       bendpath="m -132.37374,-30.076732 c 0,0 -4.91632,24.6077942 1.1531,37.6614563 8.85505,19.0447967 31.226295,27.9305237 49.089441,16.0553957 11.55375,-7.680746 20.583235,-25.7581418 30.123323,-46.204206 6.442399,-13.807181 12.186088,-25.748587 19.67571,-31.005377 10.105932,-7.093117 21.11304,-4.98661 31.97408885,4.099347 C 8.9426528,-41.689465 12.334187,-31.345281 10.671976,-12.051139 10.376388,-8.6201043 7.5302159,2.6904744 7.5302159,2.6904744"
       prop_scale="0"
       scale_y_rel="false"
       vertical="false"
       hide_knot="false"
       bendpath-nodetypes="cssssssc" /></defs><sodipodi:namedview
     id="namedview3"
     pagecolor="#ffffff"
     bordercolor="#000000"
     borderopacity="0.25"
     inkscape:showpageshadow="2"
     inkscape:pageopacity="0.0"
     inkscape:pagecheckerboard="0"
     inkscape:deskcolor="#d1d1d1"
     inkscape:zoom="2.9462783"
     inkscape:cx="86.88928"
     inkscape:cy="120.8304"
     inkscape:window-width="1920"
     inkscape:window-height="1011"
     inkscape:window-x="0"
     inkscape:window-y="0"
     inkscape:window-maximized="1"
     inkscape:current-layer="g3" /><g
     id="g3"
     transform="translate(148.46666,50.780818)"><g
       id="g2"
       transform="matrix(1.0525713,0,0,1.0544712,-1.6051404,0.50883448)"
       style="stroke-width:0.949198"><g
         id="g10"
         transform="matrix(1.3054981,0,0,1.3355138,16.582983,-16.873268)"
         style="stroke-width:0.71886"><g
           id="g9"
           transform="matrix(0.61660535,-0.61661419,0.61660535,0.61661419,-54.777849,-47.055028)"
           style="stroke-width:0.82436"><path
             style="fill:none;stroke:#1a1a1a;stroke-width:9.89235;stroke-linecap:round;stroke-linejoin:round;stroke-dasharray:none;paint-order:stroke fill markers"
             d="m -8.479739,79.786588 -86.699621,3.66e-4 -21.14198,12.206407 21.09406,12.058389 86.966378,-0.16458 -0.218837,-24.100582"
             id="path8"
             sodipodi:nodetypes="cccccc" /><path
             style="fill:none;stroke:#1a1a1a;stroke-width:9.89235;stroke-linecap:round;stroke-linejoin:round;stroke-dasharray:none;paint-order:stroke fill markers"
             d="M -85.10666,81.863196 V 102.89517"
             id="path9" /></g></g><path
         style="fill:none;stroke:#000000;stroke-width:22.0254;stroke-linecap:round;stroke-linejoin:round;stroke-dasharray:none"
         d="m -132.34476,-30.314537 -1.7294,14.188929 c -0.24753,4.105739 -0.27507,8.2321846 0.11359,12.3269743 l 1e-5,6.8e-6 c 0.37051,3.90359513 1.08671,7.8277506 2.73992,11.3833448 l 0,6.4e-6 c 4.1657,8.9592777 11.83817,16.3668417 21.16668,19.6226697 l 1e-5,-1e-6 c 9.19154,3.20802 19.815467,1.822317 27.922751,-3.567273 6.769069,-4.499968 11.588516,-11.373081 15.816785,-18.3151087 5.437722,-8.9277251 9.886493,-18.4161723 14.306538,-27.8890973 2.955088,-6.333268 5.885424,-12.694835 9.445146,-18.709085 2.735455,-4.621626 5.834768,-9.210986 10.230564,-12.296292 l 1.3e-5,-3e-6 c 4.535229,-3.183173 10.219894,-4.809281 15.703863,-4.017476 6.075161,0.877164 11.562236,4.178304 16.27021285,8.116826 4.49406515,3.759571 7.93250355,8.782774 9.62612945,14.391929 2.2357777,7.404721 2.0678337,15.320699 1.4039237,23.027048 0,5e-6 -1e-6,9e-6 -1e-6,1.4e-5 -0.108604,1.260601 -0.366354,2.5034663 -0.614277,3.7442097 -0.327467,1.6388236 -0.6899601,3.2704693 -1.0642346,4.8992406 L 7.5861385,2.4574177"
         id="path2"
         inkscape:path-effect="#path-effect2"
         inkscape:original-d="M -132.37374,-30.076732 H -15.27686"
         transform="matrix(0.13023816,-0.51623012,-0.48620929,-0.12626471,-91.17239,19.585021)"
         sodipodi:nodetypes="cc" /></g></g></svg>
