<svg width="192" height="192" viewBox="0 0 192 192" fill="none" xmlns="http://www.w3.org/2000/svg">
<path d="M34.2475 105.343L28.6415 114.126M28.6415 114.126L19 129.231M28.6415 114.126L19 116.017M28.6415 114.126L42.3161 111.445M47.9703 101.786L42.3161 111.445M42.3161 111.445L35.7723 122.624M42.3161 111.445L44.9208 110.934M91.1717 103.662L74.3994 128.215M104 103.662L97.8485 112.932M97.8485 112.932L90.1717 124.5M97.8485 112.932L84.0562 115M97.8485 112.932L104.386 111.951M56.1024 104.835L44.9209 127.198M73.4206 102.802C73.4206 102.802 61.5797 108.393 58.6433 116.017C56.7779 120.86 58.6639 122.833 61.3743 123.232C64.0847 123.631 70.2836 117.419 73.0443 114.263M73.0443 114.263L69.6563 114.761M73.0443 114.263L76.4323 113.765M73.0443 114.263L66.2682 128.215M112.01 104.835L102.354 124.149L118.093 110.426L117.093 122.624L135.39 102.294M128.273 122.624L135.107 115.791M135.107 115.791L147.079 103.819L143.719 115.337M135.107 115.791L130.815 116.017M135.107 115.791L143.719 115.337M143.719 115.337L139.963 128.215M143.719 115.337L150.128 115M157.753 102.802C156.228 105.852 154.093 112.154 157.753 112.967C161.412 113.78 169.442 107.546 173 104.327L150.637 127.198" stroke="black" stroke-width="6" stroke-linecap="round" stroke-linejoin="round"/>
<path d="M28 78.2321L26 89.5746M28 78.2321H43C47 78.2321 50.8287 75.3073 51.5 71.5C52.0056 68.6323 50.8986 66.1133 48.5532 63.9763C46.9362 62.5031 44.7059 62 42.5185 62H30.8622L28 78.2321ZM60.3492 84.4044L74.8622 62L81.4742 84.4044M60.3492 84.4044L57 89.5746M60.3492 84.4044H81.4742M81.4742 84.4044L83 89.5746M98 89.5746L102.862 62M128.862 62L110.181 75.7873L124 89.5746M165.605 74.8025L165.257 76.7721C164.011 83.8427 157.18 89.5746 150 89.5746C142.82 89.5746 138.011 83.8427 139.257 76.7721L139.605 74.8025C140.851 67.7319 147.682 62 154.862 62C162.042 62 166.851 67.7319 165.605 74.8025Z" stroke="black" stroke-width="10" stroke-linecap="round" stroke-linejoin="round"/>
</svg>
