<svg xmlns="http://www.w3.org/2000/svg" width="192" height="192" fill="none" viewBox="0 0 192 192">
  <path stroke="#000" stroke-linecap="round" stroke-linejoin="round" stroke-width="6" d="M34.248 104.343 19 128.231m28.97-27.445-12.198 20.838M19 115.017l25.92-5.083m46.252-7.272-16.773 24.553M104 102.662 90.172 123.5m-6.116-9.5 20.33-3.049m-48.284-7.116-11.181 22.363m28.499-24.396s-11.84 5.591-14.777 13.215c-1.865 4.843.02 6.816 2.731 7.215 2.71.399 8.91-5.813 11.67-8.969m0 0-3.388.498m3.388-.498 3.388-.498m-3.388.498-6.776 13.952m45.742-23.38-9.656 19.314 14.739-13.723v12.198l18.297-20.33m-7.117 20.33 18.806-18.805-7.116 24.396m-9.148-12.198L150.128 114m7.625-12.198c-1.525 3.05-3.66 9.352 0 10.165 3.659.813 11.689-5.421 15.247-8.64l-22.363 22.871"/>
  <path fill="#000" d="M30.862 64v-6a6 6 0 0 0-5.909 4.958L30.863 64ZM28 80.232l-5.909-1.042L28 80.232Zm-7.909 10.3a6 6 0 1 0 11.818 2.085L20.09 90.532ZM51.5 73.5l-5.909-1.042L51.5 73.5Zm8.85 12.904-5.037-3.262 5.036 3.262ZM74.861 64l5.755-1.698a6 6 0 0 0-10.79-1.564L74.861 64Zm6.612 22.404-5.755 1.699 5.755-1.699Zm-29.51 1.909a6 6 0 0 0 10.072 6.524l-10.072-6.524Zm25.281 4.96a6 6 0 1 0 11.51-3.397l-11.51 3.397Zm14.846-2.74a6 6 0 1 0 11.818 2.084L92.09 90.533Zm16.68-25.491a6 6 0 0 0-11.818-2.084l11.818 2.084Zm23.654 3.786a6 6 0 0 0-7.126-9.656l7.126 9.656Zm-22.244 8.96-3.563-4.828-5.616 4.145 4.941 4.93 4.238-4.248Zm9.581 18.034a6 6 0 0 0 8.485-.01 6 6 0 0 0-.009-8.485l-8.476 8.495Zm19.495-17.05-5.908-1.042 5.908 1.042Zm26 0 5.909 1.042-5.909-1.042Zm.348-1.97-5.909-1.041 5.909 1.041Zm-26 0 5.909 1.042-5.909-1.041ZM48.553 65.976l-4.04 4.435 4.04-4.435ZM30.863 70h11.656V58H30.862v12Zm-8.772 9.19-2 11.343 11.818 2.084 2-11.343L22.09 79.19ZM43 74.232H28v12h15v-12Zm-9.091 7.042 2.862-16.232-11.818-2.084-2.862 16.232 11.818 2.084Zm11.682-8.816c-.106.6-1.144 1.774-2.591 1.774v12c6.553 0 13.172-4.676 14.409-11.69L45.59 72.458Zm-1.079-2.047c.662.603.92 1.053 1.02 1.299.08.199.12.405.06.748l11.817 2.084c.945-5.363-1.339-9.834-4.815-13l-8.082 8.87Zm20.873 19.255 14.513-22.404-10.072-6.524-14.513 22.404 10.072 6.524Zm3.722-23.968 6.612 22.405 11.51-3.397-6.612-22.404-11.51 3.396Zm-7.071 29.139 3.349-5.17-10.072-6.525-3.349 5.17 10.072 6.525Zm13.683-6.734 1.526 5.17 11.51-3.397-1.526-5.17-11.51 3.397Zm28.19 4.514 4.862-27.575-11.818-2.084-4.862 27.575 11.818 2.084Zm21.39-33.445L106.618 72.96l7.126 9.655 18.681-13.787-7.126-9.656Zm-19.356 22.863 13.819 13.787 8.476-8.495-13.819-13.787-8.476 8.495Zm53.753-6.274-.347 1.97 11.817 2.083.348-1.97-11.818-2.083Zm-14.53 4.053.348-1.97-11.818-2.083-.347 1.97 11.817 2.083Zm4.834 5.76c-1.94 0-3.208-.74-3.935-1.606-.727-.866-1.236-2.243-.899-4.154l-11.817-2.084c-.91 5.16.362 10.184 3.524 13.952 3.161 3.767 7.888 5.893 13.127 5.893v-12Zm9.349-7.844c-.742 4.203-5.081 7.845-9.349 7.845v12c10.091 0 19.414-7.823 21.166-17.761l-11.817-2.084ZM154.862 70c1.94 0 3.208.74 3.935 1.606.727.866 1.236 2.244.899 4.155l11.818 2.083c.909-5.16-.363-10.183-3.524-13.951-3.162-3.768-7.888-5.893-13.128-5.893v12Zm0-12c-10.091 0-19.414 7.823-21.166 17.76l11.818 2.084c.741-4.203 5.08-7.844 9.348-7.844V58ZM42.519 70c.654 0 1.157.078 1.507.183.334.1.457.201.486.228l8.082-8.87C49.428 58.656 45.464 58 42.52 58v12Z"/>
  <path stroke="#000" stroke-linecap="round" stroke-width="10" d="M60.35 88.404h21.125"/>
</svg>
