<svg xmlns="http://www.w3.org/2000/svg" width="192" height="192" fill="none" viewBox="0 0 192 192"><path stroke="#000" stroke-linejoin="round" stroke-width="12" d="m112 36.081 21.596-6.803c5.155-1.624 10.404 2.225 10.404 7.63v9.276m-32-10.103v-7.895c0-4.055-3.939-6.942-7.807-5.721l-78 24.628A6 6 0 0 0 22 52.814v86.372a6 6 0 0 0 4.194 5.721l77.999 24.628c3.868 1.221 7.807-1.666 7.807-5.721v-7.895m0-119.838V155.92m0 0 21.596 6.803c5.155 1.624 10.404-2.225 10.404-7.63v-9.276m0-99.632 15.598-4.91c5.155-1.623 10.402 2.226 10.402 7.63v94.19c0 5.404-5.247 9.253-10.402 7.631L144 145.816m0-99.632v99.632"/><path stroke="#000" stroke-linecap="round" stroke-width="12" d="M42 149.319V112m0 0V72.83a6 6 0 0 1 4.718-5.862l14.153-3.096C75.84 60.598 90 71.996 90 87.317v4.352c0 14.83-13.317 26.112-27.946 23.673z"/></svg>