<svg xmlns="http://www.w3.org/2000/svg" width="192" height="192" fill="none"><path stroke="#000" stroke-linecap="round" stroke-linejoin="round" stroke-width="8" d="m96 91 5 5-5 5-5-5z"/><path stroke="#000" stroke-linecap="round" stroke-linejoin="round" stroke-width="12" d="m85.748 24.839-47 28.171A20.1 20.1 0 0 0 29 70.25v51.499a20.1 20.1 0 0 0 9.748 17.241l47 28.171a19.93 19.93 0 0 0 20.504 0l47-28.171A20.1 20.1 0 0 0 163 121.749V70.251a20.1 20.1 0 0 0-9.748-17.24l-47-28.172a19.93 19.93 0 0 0-20.504 0"/><path stroke="#000" stroke-linecap="round" stroke-linejoin="round" stroke-width="12" d="m30 114 61.757-61.757a6 6 0 0 1 8.486 0L124 76m38 2-61.757 61.757a6 6 0 0 1-8.486 0L68 116"/></svg>