<svg width="192" height="192" viewBox="0 0 192 192" fill="none" xmlns="http://www.w3.org/2000/svg"><path d="m50 68-21.151-3.022C25.233 64.462 22 67.267 22 70.918v50.164c0 3.651 3.234 6.456 6.849 5.94L50 124m34-95.994c0-3.701 3.314-6.521 6.964-5.927l74 12.056A6.003 6.003 0 0 1 170 40.06v111.88a6.003 6.003 0 0 1-5.036 5.926l-74 12.056c-3.65.594-6.964-2.226-6.964-5.927V28.006ZM84 138l-26.957 4.757c-3.674.649-7.043-2.178-7.043-5.909V55.151c0-3.73 3.369-6.557 7.043-5.908L84 54" stroke="#000" stroke-width="12" stroke-linecap="round" stroke-linejoin="round"/></svg>