<svg xmlns="http://www.w3.org/2000/svg" width="192" height="192" fill="none" stroke="#000" stroke-width="12" viewBox="0 0 192 192"><path d="M147 96H45m0-34V28a6 6 0 0 1 6-6h90a6 6 0 0 1 6 6v34m0 68v34a6 6 0 0 1-6 6H51a6 6 0 0 1-6-6v-34"/><path d="M153.545 62H38.455c-4.398 0-7.302 4.575-5.43 8.555l10.773 22.89a6 6 0 0 1 0 5.11l-10.772 22.89c-1.873 3.98 1.03 8.555 5.429 8.555h115.09c4.398 0 7.302-4.575 5.429-8.555l-10.772-22.89a6 6 0 0 1 0-5.11l10.772-22.89c1.873-3.98-1.031-8.555-5.429-8.555Z"/></svg>