<svg xmlns="http://www.w3.org/2000/svg" width="192" height="192" fill="none"><path stroke="#000" stroke-linecap="round" stroke-linejoin="round" stroke-width="10" d="M119 73c27 3 49 2 49 2s3 18 3 62c-12 8-41 34-41 34s-35-16-49-20c0 0 2-14-10-51 28-14 48-27 48-27"/><path stroke="#000" stroke-linecap="round" stroke-linejoin="round" stroke-width="10" d="M130 171s-35-16-49-20M21 38s38.5-7 38.5 8.5S21 66 21 102c0 30 60 49 60 49"/><path stroke="#000" stroke-linecap="round" stroke-linejoin="round" stroke-width="10" d="M72 21s57 0 57 17c0 26-82 28-82 59 0 15 28 19 28 19m55 55-12-61m-44-9 44 9m46-32-46 32"/></svg>