<svg width="160" height="160" viewBox="0 0 160 160" fill="none" xmlns="http://www.w3.org/2000/svg">
<path fill-rule="evenodd" clip-rule="evenodd" d="M31.6209 37.3046C32.4192 40.7915 33.5244 44.409 34.9286 48.0857C31.3422 48.4444 27.9422 49.0022 24.7807 49.7534C18.9586 51.1369 13.5569 53.2682 9.26722 56.3574C4.93891 59.4744 1.29972 63.9243 0.276995 69.8172C-0.745728 75.71 1.176 81.1561 4.19398 85.5892C7.18501 89.9826 11.5435 93.8625 16.5487 97.1856C17.4837 97.8064 18.453 98.4155 19.4545 99.0119C29.2308 104.88 42.1293 109.537 56.3433 112.084C72.3736 114.955 87.6239 113.418 99.2138 110.016C99.8478 109.83 100.474 109.637 101.092 109.438C99.3895 116.735 98.2314 123.694 97.6866 129.861C97.1545 135.883 97.1649 141.597 98.0523 146.282C98.7235 149.825 100.4 155.396 105.219 158.206C105.862 158.6 106.563 158.945 107.327 159.227C113.137 161.376 118.47 158.62 121.782 156.145C125.383 153.456 128.853 149.484 132.067 144.947C138.56 135.779 145.115 122.714 150.417 107.914C155.719 93.1148 158.963 78.8254 159.789 67.5618C160.198 61.9877 160.053 56.679 158.996 52.2665C158.142 48.7034 156.234 43.9573 151.849 41.3977C151.178 40.9867 150.446 40.6276 149.65 40.3331C144.448 38.4093 139.473 40.1697 135.883 42.4181C132.218 44.7138 128.762 48.2289 125.595 52.3324C123.374 55.2101 121.157 58.5598 118.986 62.3288C115.436 53.1342 109.818 42.7849 101.518 32.7355C92.5804 21.914 82.5839 13.1461 73.0211 7.45072C71.6451 6.62495 70.2779 5.86253 68.9238 5.16651C63.5885 2.4241 58.1021 0.529145 52.8616 0.094157C47.5739 -0.344751 41.9708 0.687416 37.4591 4.53373L37.6154 4.72297C33.1691 8.55047 31.1203 14.0794 30.4041 19.4615C29.6756 24.9362 30.1938 31.0704 31.6209 37.3046ZM61.9943 19.661C62.9719 20.1634 63.9704 20.7175 64.9862 21.3219C72.6101 25.9016 81.1878 33.2954 89.1602 42.9484C94.2011 49.052 98.0536 55.2425 100.922 61.0436C91.5579 55.9575 79.785 51.9314 66.9371 49.6298C61.8884 48.7253 56.906 48.1288 52.0796 47.8304C49.7365 42.884 48.0595 38.0644 47.0509 33.6585C45.9219 28.7268 45.7023 24.6299 46.1031 21.6179C46.5127 18.5398 47.4437 17.3545 47.8641 16.9961C48.2648 16.6545 49.2941 16.0611 51.7938 16.2686C54.3408 16.48 57.7969 17.5034 61.9943 19.661ZM58.8721 96.1002C46.1971 93.8295 35.2699 89.7688 27.4902 85.1412C26.7785 84.7136 26.0937 84.2812 25.4369 83.8452C21.4991 81.2307 18.8987 78.7015 17.445 76.5662C16.0182 74.4705 16.0094 73.2682 16.1002 72.7448C16.1911 72.2215 16.6041 71.0948 18.6503 69.6212C20.7351 68.1198 24.0301 66.6468 28.6106 65.5583C32.6626 64.5955 37.418 64.0053 42.6749 63.8653C45.2803 68.1784 48.2765 72.4343 51.6511 76.5203C59.6477 86.2026 69.1087 92.9863 78.4945 97.1893C72.3628 97.5875 65.7055 97.3244 58.8721 96.1002ZM64.4084 65.6131C77.0839 67.8839 88.0114 71.9448 95.7912 76.5727C96.5025 77.0001 97.187 77.4322 97.8436 77.8681C101.781 80.4826 104.382 83.0118 105.835 85.1471C106.029 85.4312 106.196 85.6989 106.341 85.9507C105.665 86.1015 104.899 86.2259 104.036 86.3093C100.777 86.6242 96.6603 86.2923 92.0497 85.0388C82.8436 82.5357 72.3471 76.5397 63.7865 66.1746C63.5723 65.9152 63.36 65.6552 63.1497 65.3946C63.5681 65.4649 63.9877 65.5377 64.4084 65.6131ZM138.284 62.396C140.376 59.6851 142.176 57.9058 143.567 56.8459C143.937 58.9749 144.072 62.1001 143.769 66.2333C143.079 75.648 140.259 88.4577 135.309 102.277C130.358 116.096 124.414 127.75 118.986 135.413C116.937 138.306 115.111 140.416 113.603 141.834C113.315 139.291 113.301 135.797 113.687 131.432C114.576 121.369 117.439 108.258 121.998 95.091C122.236 94.5752 122.448 94.0323 122.625 93.4628C123.025 92.5974 123.302 91.7291 123.499 90.9202C128.23 78.2711 133.526 68.5621 138.284 62.396Z" fill="black"/>
</svg>
