<svg xmlns="http://www.w3.org/2000/svg" width="192" height="192" fill="none" stroke="#000" stroke-linejoin="round" viewBox="0 0 192 192"><path stroke-linecap="round" stroke-width="12" d="m60 136 38-47 22 36 7 3 26.443 27.65A74.002 74.002 0 0 0 96 35a74 74 0 0 0-58.126 119.797L55 133z"/><path stroke-width="6" d="m96 55 .944 3.056H100l-2.472 1.888.944 3.056L96 61.111 93.528 63l.944-3.056L92 58.056h3.056zm52 52-3.056.944V111l-1.888-2.472-3.056.944 1.889-2.472-1.889-2.472 3.056.944 1.888-2.472v3.056zm-26-45.033-.71 3.118 2.646 1.528-3.085.4-.71 3.118-1.197-2.872-3.085.4 2.346-2.174-1.197-2.872 2.646 1.528zM134.105 85l2.174-2.346-1.528-2.646 2.872 1.197 2.174-2.346-.399 3.085 2.871 1.197-3.118.71-.4 3.085-1.527-2.646zm-76.21 0-3.119-.71-1.527 2.646-.4-3.085-3.118-.71 2.871-1.197-.4-3.085 2.175 2.346 2.872-1.197-1.528 2.646zM52 107l-3.056.944V111l-1.888-2.472-3.056.944L45.889 107 44 104.528l3.056.944L48.944 103v3.056zm22-38.105-2.346-2.174-2.646 1.528 1.197-2.872-2.346-2.174 3.085.4 1.197-2.872.71 3.118 3.085.4-2.646 1.527z"/></svg>