<?xml version="1.0" encoding="UTF-8" standalone="no"?>
<!-- Created with Inkscape (http://www.inkscape.org/) -->

<svg
   width="192mm"
   height="192mm"
   viewBox="0 0 192 192"
   version="1.1"
   id="svg21311"
   xml:space="preserve"
   inkscape:version="1.2.2 (b0a8486541, 2022-12-01)"
   sodipodi:docname="parcel_pending.svg"
   xmlns:inkscape="http://www.inkscape.org/namespaces/inkscape"
   xmlns:sodipodi="http://sodipodi.sourceforge.net/DTD/sodipodi-0.dtd"
   xmlns="http://www.w3.org/2000/svg"
   xmlns:svg="http://www.w3.org/2000/svg"><sodipodi:namedview
     id="namedview21313"
     pagecolor="#ffffff"
     bordercolor="#000000"
     borderopacity="0.25"
     inkscape:showpageshadow="2"
     inkscape:pageopacity="0.0"
     inkscape:pagecheckerboard="0"
     inkscape:deskcolor="#d1d1d1"
     inkscape:document-units="mm"
     showgrid="false"
     inkscape:zoom="1.2550342"
     inkscape:cx="172.10686"
     inkscape:cy="366.12548"
     inkscape:window-width="2031"
     inkscape:window-height="1074"
     inkscape:window-x="26"
     inkscape:window-y="23"
     inkscape:window-maximized="0"
     inkscape:current-layer="layer1" /><defs
     id="defs21308" /><g
     inkscape:label="Layer 1"
     inkscape:groupmode="layer"
     id="layer1"><path
       style="display:inline;fill:none;stroke:#000000;stroke-width:3.175;stroke-dasharray:none;stroke-opacity:1;stroke-linejoin:round"
       d="m 129,132.757 v -15.15394 l -15.3,7.643 -15.3,7.643 v 15.15394 15.15394 l 15.3,-7.643 15.3,-7.643 z m 20.1,5.32948 15,-7.58648 0.16032,-15.15739 0.16031,-15.15738 -15.61031,7.80961 -15.61032,7.80961 v 14.99778 c 0,8.24877 0.2025,14.96919 0.45,14.93425 0.2475,-0.0349 7.2,-3.47743 15.45,-7.65 z M 129.00038,98.105472 129.00077,83.1 113.70038,90.559626 98.4,98.019258 v 15.188842 15.18884 l 15.3,-7.643 15.3,-7.643 z M 153.9,100.89296 164.1,95.7 164.26048,80.85 C 164.3669,71.002658 164.21375,66 163.80587,66 c -0.33831,0 -7.36302,3.376039 -15.61048,7.502309 L 133.2,81.004618 V 95.967462 110.9303 l 5.25,-2.42219 c 2.8875,-1.3322 9.84,-4.75902 15.45,-7.61515 z M 132.21338,74.898418 161.52676,60.281677 128.91338,44.226158 C 90.1383,25.137242 101.19466,25.137476 62.83186,44.224764 L 30.563719,60.279675 63.112364,76.55619 95.661012,92.832702 99.280506,91.17393 C 101.27123,90.261606 116.09102,82.937626 132.21338,74.898418 Z M 97.2,65.7 93.940992,62.4 H 89.851224 C 81.985061,62.4 77.007809,58.696146 79.248295,54.50976 82.121005,49.142052 98.4,51.70903 98.4,57.529726 v 1.623054 l 6.9,1.682881 c 8.36497,2.04018 8.54289,2.524917 2.11332,5.757642 C 101.31061,69.661686 101.09374,69.642718 97.2,65.7 Z"
       id="path22711"
       sodipodi:nodetypes="cccccccccscccccscscccccccccscssscccssscsscccssscssscsss" /><path
       style="display:inline;fill:none;stroke:#000000;stroke-width:3.175;stroke-dasharray:none;stroke-opacity:1"
       d="M 94.2,148.24706 V 132.69413 L 78.6,124.84567 63,116.9972 v 15.50457 15.50456 l 10.35,5.27022 c 5.6925,2.89863 10.755,5.46523 11.25,5.70358 0.495,0.23835 1.575,0.80362 2.4,1.25616 1.776606,0.97452 6.83505,3.51806 7.05,3.54495 0.0825,0.0103 0.15,-6.98006 0.15,-15.53418 z M 58.660129,130.38067 58.5,114.96134 43.2,107.29199 C 34.785,103.07385 27.8325,99.617544 27.75,99.611322 27.6675,99.605094 27.600515,106.5525 27.601144,115.05 l 0.0011,15.45 9.674285,4.8 c 5.320857,2.64 12.137841,6.07283 15.148856,7.6285 3.011014,1.55568 5.681629,2.83818 5.9347,2.85 0.253071,0.0118 0.388071,-6.9172 0.3,-15.39783 z M 94.2,113.45651 V 97.913028 L 78.6,90.113922 63,82.314809 v 15.433741 15.43374 l 15.45,7.85724 c 8.4975,4.32148 15.5175,7.88047 15.6,7.90885 0.0825,0.0284 0.15,-6.94295 0.15,-15.49187 z M 58.784296,95.55 58.768592,80.1 43.634296,72.6 C 35.310433,68.475 28.2975,65.01 28.05,64.9 27.8025,64.79 27.6,71.706182 27.6,80.269294 v 15.569294 l 15.15,7.549852 c 8.3325,4.15242 15.3525,7.56373 15.6,7.58071 0.2475,0.017 0.442933,-6.92165 0.434296,-15.41915 z"
       id="path22709"
       sodipodi:nodetypes="scccccsssssccssccsssccscccccsssscssscsss" /></g></svg>
