<svg xmlns="http://www.w3.org/2000/svg" width="192" height="192" fill="none" stroke="#000" stroke-linecap="round" stroke-linejoin="round" stroke-width="12" viewBox="0 0 192 192"><path d="m22 56 74-34 74 34v78l-74 36-74-36z"/><path d="M170 56 96 92 22 56"/><path stroke-width="10" d="M96 92v76M59 75v76m74-76v76m37-55-74 36-74-36"/><path stroke-width="8" d="m91.824 52.296 13.931 9.053"/><path stroke-width="10" d="M96.737 55.408c-.88.988-3.715.71-6.332-.62s-4.023-3.209-3.142-4.196c.88-.988 3.715-.71 6.332.62s4.023 3.209 3.142 4.196"/></svg>