<svg xmlns="http://www.w3.org/2000/svg" width="192" height="192" fill="none" viewBox="0 0 192 192"><path stroke="#000" stroke-linecap="round" stroke-linejoin="round" stroke-width="12" d="m29 106.002 30 13m0 0 37-16m-37 16v46m37-62v48m0-48-37-16m37 16 37-16m-37 16v-48m0 48 37 16m-37-64-30-13m30 13 30-13m7 77 30-13m-30 13v46m-71.618.97 32.236-13.94a6 6 0 0 1 4.764 0l32.237 13.94a6 6 0 0 0 4.762 0l31-13.405A6 6 0 0 0 170 147.06v-40.116a6 6 0 0 0-3.619-5.507l-29.762-12.87A6 6 0 0 1 133 83.06V42.944a6 6 0 0 0-3.619-5.507l-31-13.405a6 6 0 0 0-4.763 0l-31 13.405A6 6 0 0 0 59 42.944V83.06a6 6 0 0 1-3.618 5.507l-29.763 12.87A6 6 0 0 0 22 106.944v40.116a6 6 0 0 0 3.619 5.507l31 13.405a6 6 0 0 0 4.763 0"/></svg>