<svg width="192" height="192" viewBox="0 0 192 192" fill="none" xmlns="http://www.w3.org/2000/svg"><path d="M70 48H52a8 8 0 0 0-8 8v64a8 8 0 0 0 8 8h10a8 8 0 0 0 8-8v-10m69-55h-12a6 6 0 0 0-6 6v10a6 6 0 0 0 6 6h12m0 22h-12a6 6 0 0 0-6 6v10a6 6 0 0 0 6 6h12m-69-11a30.999 30.999 0 0 0 21.92-52.92A31 31 0 0 0 70 48" stroke="#000" stroke-width="10" stroke-linecap="round" stroke-linejoin="round"/><path d="M138 77a11 11 0 0 0 0-22m0 66a11 11 0 0 0 0-22" stroke="#000" stroke-width="10" stroke-linecap="round" stroke-linejoin="round"/><path d="M22 37.97C22 29.15 29.163 22 38 22h116c8.837 0 16 7.15 16 15.97v126.032c0 4.685-5.147 7.556-9.145 5.1l-25.998-15.97a16.024 16.024 0 0 0-8.386-2.369H38c-8.837 0-16-7.15-16-15.97V37.971Z" stroke="#000" stroke-width="12" stroke-linecap="round" stroke-linejoin="round"/></svg>