<svg width="192" height="192" viewBox="0 0 192 192" fill="none" xmlns="http://www.w3.org/2000/svg">
<path d="M143.032 149.8C143.032 156.416 137.669 161.779 131.053 161.779C124.438 161.779 119.075 156.416 119.075 149.8C119.075 143.185 124.438 137.822 131.053 137.822C137.669 137.822 143.032 143.185 143.032 149.8Z" stroke="black" stroke-width="12"/>
<path d="M137.693 72.3081L169.722 105.729C169.9 105.916 170 106.163 170 106.421L170 144C170 144.552 169.552 145 169 145H162.064C161.841 145 161.542 144.923 161.181 144.585C160.794 144.223 160.445 143.644 160.292 142.959C157.179 128.983 144.944 118.347 130.164 118.347C115.384 118.347 103.148 128.983 100.035 142.959C99.8829 143.644 99.5331 144.223 99.1462 144.585C98.7851 144.923 98.4863 145 98.264 145H60.602C60.2186 145 59.7524 144.801 59.4519 144.075C59.1435 143.329 59.311 142.711 59.6516 142.343C71.0742 129.992 88.698 108.379 95.9677 85.4359C97.3614 81.6925 98.3576 77.7302 98.8785 73.6117C98.9437 73.0967 99.185 72.6523 99.4861 72.3626C99.7693 72.0903 100.046 72 100.295 72L136.971 72C137.244 72 137.505 72.1113 137.693 72.3081Z" stroke="black" stroke-width="10" stroke-linejoin="round"/>
<path d="M136.41 72L149.535 98.8602H117.229V72L136.41 72Z" stroke="black" stroke-width="10" stroke-linejoin="round"/>
<path d="M79.9969 70.4318C80.2207 55.5273 68.4677 43.2264 53.7298 43H53.506C55.7073 46.9997 56.9386 51.6408 56.864 56.5461C56.6401 71.3751 44.6259 83.2232 30 83.11C34.4773 91.2603 43.0216 96.807 52.909 96.9957C67.6469 97.2598 79.773 85.3362 79.9969 70.4318Z" stroke="black" stroke-width="12" stroke-linejoin="round"/>
<path d="M141.84 31.3107L159.403 56H98.6521C98.6243 55.993 98.551 55.9655 98.4291 55.872C98.2007 55.6968 97.9224 55.3692 97.7279 54.9161C94.0011 46.234 86.2946 38.6019 79.1887 32.8559C79.1481 32.8231 79.0378 32.7252 78.9625 32.3978C78.8787 32.0335 78.8803 31.5173 79.0391 30.9794C79.1997 30.4356 79.4439 30.1229 79.5709 30.0081C79.574 30.0052 79.5771 30.0025 79.58 30L139.539 30C140.278 30 141.175 30.3836 141.837 31.307C141.838 31.3082 141.839 31.3094 141.84 31.3107ZM98.665 56.0019C98.665 56.0023 98.6609 56.0022 98.6526 56.0001C98.6608 56.0005 98.6649 56.0015 98.665 56.0019Z" stroke="black" stroke-width="12" stroke-linejoin="round"/>
</svg>
