<svg xmlns="http://www.w3.org/2000/svg" width="192" height="192" fill="none" viewBox="0 0 192 192"><path stroke="#000" stroke-linecap="round" stroke-linejoin="round" stroke-width="12" d="M96 170c40.869 0 74-33.131 74-74s-33.131-74-74-74-74 33.13-74 74 33.13 74 74 74"/><path stroke="#000" stroke-linecap="round" stroke-linejoin="round" stroke-width="12" d="M98.848 87v43m0 0v17m0-17s-.504-9 8.067-13.5c4.204-2.207 10.084-2.5 10.084-2.5m-38.319-4.5S57 110.591 57 88.5c0-19 21.68-21 21.68-21s0-22.5 19.16-22.5c19.669 0 19.159 22.5 19.159 22.5"/></svg>