<svg width="192" height="192" viewBox="0 0 192 192" fill="none" xmlns="http://www.w3.org/2000/svg">
<path d="M143.032 149.8C143.032 156.416 137.669 161.779 131.053 161.779C124.438 161.779 119.075 156.416 119.075 149.8C119.075 143.185 124.438 137.822 131.053 137.822C137.669 137.822 143.032 143.185 143.032 149.8Z" stroke="black" stroke-width="12"/>
<path d="M169.976 105.634L170.005 105.667L170.035 105.7C170.64 106.367 171 107.272 171 108.269V140.811C171 143.021 169.221 144.8 167.011 144.8H161.614C159.216 130.095 146.426 118.837 131.053 118.837C115.681 118.837 102.89 130.095 100.493 144.8H58.0722C61.1495 141.653 64.7847 137.76 68.6054 133.297C78.9598 121.203 91.0251 104.534 96.7468 86.9899C98.3195 82.8838 99.3897 78.5066 99.8464 73.9466H112.125C109.7 75.3337 108.075 77.9437 108.075 80.9492V101.79C108.075 106.259 111.669 109.854 116.138 109.854H157.971C163.118 109.854 166.378 105.473 165.996 101.08L169.976 105.634Z" stroke="black" stroke-width="10"/>
<path d="M56.9832 43.3224C57.8029 46.7052 58.2133 50.2432 58.1575 53.8719L56.9832 43.3224ZM56.9832 43.3224C68.9575 47.3838 77.4977 58.8317 77.2951 72.17C77.0439 88.7042 63.4424 101.909 46.9418 101.617L56.9832 43.3224ZM27.1458 93.7093C44.7648 88.9803 57.8647 73.0271 58.1575 53.8726L27.1458 93.7093ZM27.1458 93.7093C32.3561 98.5011 39.2858 101.471 46.9412 101.617L27.1458 93.7093Z" stroke="black" stroke-width="12"/>
<path d="M98.8472 53.9573C95.9344 44.4979 90.3378 36.2191 82.9492 30H140.043C140.92 30 141.828 30.4302 142.433 31.2281C142.435 31.2297 142.436 31.2313 142.437 31.2328L159.522 53.9573H98.8472Z" stroke="black" stroke-width="12"/>
</svg>
