<?xml version="1.0" encoding="UTF-8"?>
<svg id="final" xmlns="http://www.w3.org/2000/svg" width="192" height="192" viewBox="0 0 192 192">
  <path d="M40.6,130.76c-6.35-10.09-10.01-22.05-9.99-34.86.05-35.03,28.23-64.14,63.25-65.25,37.81-1.21,68.7,29.69,67.49,67.49-1.1,34.59-29.55,62.62-64.16,63.24-5.06.09-10-.39-14.74-1.39-3.41-.72-5.83-3.76-5.83-7.24v-78.63c0-4.09,3.31-7.4,7.4-7.4h17.84c13.22,0,24.48,10.28,24.95,23.5.49,13.87-10.61,25.27-24.37,25.27l-25.83-.1" fill="none" stroke="#231f20" stroke-linecap="round" stroke-miterlimit="10" stroke-width="12"/>
</svg>