<svg width="192" height="192" fill="none" xmlns="http://www.w3.org/2000/svg"><path d="M98 126a52 52 0 1 0-52-52" stroke="#000" stroke-width="12" stroke-linecap="round" stroke-linejoin="round"/><path d="M98 94a19.998 19.998 0 0 0 19.616-23.902 20.003 20.003 0 0 0-27.27-14.576A20 20 0 0 0 78 74m-32 0v90a6 6 0 0 0 6 6h20a6 6 0 0 0 6-6v-38m-32 0h52" stroke="#000" stroke-width="12" stroke-linecap="round" stroke-linejoin="round"/><path d="M78 74v14a6 6 0 0 0 6 6h14" stroke="#000" stroke-width="12" stroke-linecap="round" stroke-linejoin="round"/></svg>