<svg xmlns="http://www.w3.org/2000/svg" width="192" height="192" fill="none" stroke="#000" stroke-linejoin="round" stroke-width="12" viewBox="0 0 192 192"><path d="M141.521 154.986c0 7.732-6.268 14-14 14s-14-6.268-14-14 6.268-14 14-14 14 6.268 14 14Z"/><path stroke-width="10" d="m135.233 69.165 35.494 37.571c.175.186.273.432.273.687v42.792a1 1 0 0 1-1 1h-8.773c-.23 0-.523-.081-.862-.4-.363-.343-.683-.887-.809-1.527-3.074-15.65-16.449-27.733-32.741-27.733s-29.666 12.083-32.74 27.733c-.126.64-.446 1.184-.81 1.527-.339.319-.632.4-.862.4H48.83a.95.95 0 0 1-.601-.187 1.7 1.7 0 0 1-.53-.712c-.299-.72-.14-1.32.198-1.685 12.486-13.509 32.766-38.236 40.955-64.469a59 59 0 0 0 3.251-13.767c.055-.488.28-.91.568-1.19.272-.262.545-.354.797-.354h41.039a1 1 0 0 1 .727.314Z"/><path stroke-width="10" d="m136.754 68.851 27.112 31.175h-47.794V68.851zm-.299-.344v.001Z"/><path d="M73.997 65.368C74.194 52.67 63.852 42.193 50.882 42h-.197a22.6 22.6 0 0 1 2.955 11.54C53.443 66.17 42.87 76.263 30 76.167c3.94 6.943 11.459 11.668 20.16 11.828 12.97.225 23.64-9.932 23.837-22.628Zm65.934-41.69L159.774 52H92.089a.7.7 0 0 1-.198-.116c-.208-.16-.46-.462-.628-.88-4.236-10.51-13.88-19.743-22.382-26.422-.04-.032-.133-.11-.2-.392-.078-.322-.081-.794.066-1.293.149-.505.377-.792.49-.893l.004-.004h67.78c.948 0 2.078.498 2.907 1.673z"/></svg>