<?xml version="1.0" encoding="UTF-8"?>
<svg id="final" xmlns="http://www.w3.org/2000/svg" width="192" height="192" viewBox="0 0 192 192">
  <path d="M42.62,129.48c-6.66-10.59-9.97-22.86-9.59-35.47.49-16.11,7.15-31.3,18.75-42.75,11.59-11.46,26.86-17.94,42.98-18.24,17.51-.33,33.9,6.35,46.16,18.82,12.26,12.47,18.66,28.98,18.04,46.5-1.2,33.42-28.34,60.06-61.8,60.66-4.83.09-9.65-.37-14.32-1.36l-2.91,13.69c5.62,1.19,11.47,1.77,17.48,1.67,40.95-.73,74.07-33.23,75.54-74.15.79-22.15-7.77-42.3-22.05-56.82-14.29-14.54-34.32-23.42-56.41-23-20.4.39-38.95,8.84-52.56,22.28-13.61,13.45-22.27,31.89-22.9,52.28-.49,15.95,3.88,30.86,11.73,43.35,2.06,3.27,6.38,4.26,9.65,2.2,3.27-2.06,4.26-6.38,2.2-9.65h0ZM87.18,162.85v-93.35s-14,0-14,0v93.35s14,0,14,0h0ZM81.18,75.5h21.77c8.26,0,15.15,6.42,15.36,14.32.1,4.01-1.38,7.8-4.17,10.67-2.79,2.87-6.54,4.45-10.54,4.45v14c8.06,0,15.35-3.32,20.57-8.68,5.21-5.34,8.35-12.7,8.14-20.8-.4-15.67-13.68-27.96-29.35-27.96h-21.77v14h0ZM103.65,104.93l-21.54-.08c-3.87-.01-7.01,3.11-7.03,6.97-.01,3.87,3.11,7.01,6.97,7.03l21.54.08.05-14h0ZM82.84,157.63l-1.11,5.23h5.45c0-2.54-1.79-4.69-4.34-5.23h0ZM81.73,162.85h-8.55c0,4.05,2.79,7.63,6.75,8.47l1.8-8.47h0ZM81.18,61.5c-4.42,0-8,3.58-8,8h8v-8h0ZM87.18,69.5h-6v6c3.31,0,6-2.69,6-6h0ZM103.6,104.93v14l.05-14-.05,14v-14h0Z"/>
</svg>