<?xml version="1.0" encoding="UTF-8" standalone="no"?>
<svg
   version="1.0"
   width="192"
   height="192"
   viewBox="0 0 144 144"
   preserveAspectRatio="xMidYMid"
   id="svg1"
   xmlns="http://www.w3.org/2000/svg"
   xmlns:svg="http://www.w3.org/2000/svg">
  <defs
     id="defs1" />
  <g
     transform="matrix(0.08189173,0,0,-0.08194532,-29.151065,183.23263)"
     fill="#000000"
     stroke="none"
     id="g1"
     style="fill:none;stroke:#000000;stroke-width:109.865;stroke-linecap:round;stroke-linejoin:round;stroke-dasharray:none;stroke-opacity:1">
    <path
       d="m 1518.1618,1989.3459 c 62.3908,-31.9557 162.2162,-138.4743 198.6909,-213.0372 85.4273,-170.4298 92.1464,-378.6254 17.2774,-507.4161 -53.7521,-92.9618 -164.136,-177.2083 -267.8007,-205.2904 -99.8253,-27.1139 -158.3768,-11.6203 -238.0451,61.9744 -30.7155,29.0505 -57.5915,51.3226 -58.5513,49.3859 l -40.3141,-81.3415 C 1019.9949,869.93184 866.41735,719.83738 714.75958,686.91343 l -31.67536,-6.77846 33.59508,78.43646 c 68.15002,162.68303 92.1465,271.13847 115.18313,533.56167 25.9162,298.252 89.2669,488.049 204.44997,611.9979 54.712,59.0694 110.3839,91.025 196.7712,114.2655 97.1733,31.2135 195.4252,16.0421 285.0782,-29.0506 z"
       id="path1"
       style="fill:none;stroke:#000000;stroke-width:109.865;stroke-linecap:round;stroke-linejoin:round;stroke-dasharray:none;stroke-opacity:1" />
  </g>
</svg>
