<?xml version="1.0" encoding="UTF-8" standalone="no"?>
<svg id="Layer_2" data-name="Layer 2" viewBox="0 0 24 24" version="1.1"
    xmlns="http://www.w3.org/2000/svg">
    <defs id="defs4">
        <style id="style2">.cls-1{fill:none;stroke:#000;stroke-miterlimit:10;stroke-width:2.3px;}
        </style>
    </defs>
    <g id="g15" transform="matrix(1.0010808,0,0,1.0010808,-0.00298632,-0.02398562)">
        <path class="cls-1"
            d="M 13.69,20.74 6.34,16.14 A 0.7,0.7 0 0 1 6,15.56 V 5.39 a 0.68,0.68 0 0 1 0.69,-0.68 0.65,0.65 0 0 1 0.36,0.1 l 7.37,4.63 a 0.75,0.75 0 0 1 0.32,0.58 v 10.13 a 0.69,0.69 0 0 1 -0.68,0.7 0.74,0.74 0 0 1 -0.37,-0.11 z"
            id="path6" />
        <path class="cls-1"
            d="M 16.94,19.24 9.57,14.63 A 0.7,0.7 0 0 1 9.25,14.05 V 3.84 a 0.69,0.69 0 0 1 1.06,-0.58 l 7.35,4.63 a 0.67,0.67 0 0 1 0.32,0.58 v 10.18 a 0.69,0.69 0 0 1 -0.69,0.69 0.71,0.71 0 0 1 -0.35,-0.1 z"
            id="path8" />
    </g>
</svg>