<svg id="Layer_2" data-name="Layer 2" xmlns="http://www.w3.org/2000/svg" viewBox="0 0 24 24">
  <defs>
    <style>
      .cls-1 {
        fill: none;
        stroke: #000000;
        stroke-miterlimit: 10;
        stroke-width: 2.3px;
      }
    </style>
  </defs>
  <g>
    <path class="cls-1" d="M13.79,21.26,6,16.39a.75.75,0,0,1-.34-.62V5a.73.73,0,0,1,1.12-.61l7.8,4.9a.75.75,0,0,1,.34.62V20.64A.73.73,0,0,1,13.79,21.26Z"/>
    <path class="cls-1" d="M17.23,19.67l-7.8-4.88a.73.73,0,0,1-.34-.62V3.36a.73.73,0,0,1,1.12-.62L18,7.65a.72.72,0,0,1,.34.61V19.05A.73.73,0,0,1,17.23,19.67Z"/>
  </g>
</svg>
