<svg xmlns="http://www.w3.org/2000/svg" viewBox="0 0 24 24" fill="none" stroke="#000" stroke-miterlimit="10" stroke-width="2.302" xmlns:v="https://vecta.io/nano"><path d="M13.702 20.738l-7.358-4.605a.7.7 0 0 1-.34-.581V5.372a.68.68 0 0 1 .691-.681.65.65 0 0 1 .36.1l7.378 4.635a.75.75 0 0 1 .32.581v10.141a.69.69 0 0 1-.681.701.74.74 0 0 1-.37-.11z"/><path d="M16.955 19.237l-7.378-4.615a.7.7 0 0 1-.32-.581V3.82a.69.69 0 0 1 1.061-.581l7.358 4.635a.67.67 0 0 1 .32.581v10.191a.69.69 0 0 1-.691.691.71.71 0 0 1-.35-.1z"/></svg>