<svg width="192" height="192" viewBox="0 0 192 192" fill="none" xmlns="http://www.w3.org/2000/svg"><path d="M135 139c-8 0-8.597-2.204-18-2-7.459.162-11.603 2.976-19 2-5.266-.695-5.91-5.516-11-4-2.699.804-3.184 4-6 4s-3.184-4-6-4-3.184 4-6 4-3.184-4-6-4-6 4-8 4c-14-11 8-25 36-25M81 27l16 54c-18 14-16 33-16 33" stroke="#000" stroke-width="10" stroke-linecap="round" stroke-linejoin="round"/><path d="M115 130c-1 11-17 9-17 9m13-111 7 22s17 2 17 14-14.5 19-14.5 19c-3.5 8 34.5 56 14.5 56" stroke="#000" stroke-width="10" stroke-linecap="round" stroke-linejoin="round"/><rect x="25" y="25" width="142" height="142" rx="6" stroke="#000" stroke-width="12" stroke-linecap="round" stroke-linejoin="round"/></svg>