<svg width="192" height="192" viewBox="0 0 192 192" fill="none" xmlns="http://www.w3.org/2000/svg"><path d="M30.71 127.72a29 29 0 0 1 15.371-49.3 35.998 35.998 0 0 1 31.22-38.112 35.999 35.999 0 0 1 36.521 18.858 24.994 24.994 0 0 1 19.745-.263 25 25 0 0 1 15.424 23.77A27 27 0 0 1 143 136" stroke="#000" stroke-width="12" stroke-linecap="round" stroke-linejoin="round"/><path d="M84 136h31a6 6 0 0 0 6-6v-7" stroke="#000" stroke-width="12" stroke-linecap="round" stroke-linejoin="round"/><circle cx="68" cy="136" r="16" stroke="#000" stroke-width="12" stroke-linecap="round" stroke-linejoin="round"/></svg>