<svg xmlns="http://www.w3.org/2000/svg" width="192" height="192" fill="none"><path stroke="#000" stroke-linecap="round" stroke-linejoin="round" stroke-width="12" d="M25 31a6 6 0 0 1 6-6h40a6 6 0 0 1 6 6v40a6 6 0 0 1-6 6H31a6 6 0 0 1-6-6zm0 90a6 6 0 0 1 6-6h40a6 6 0 0 1 6 6v40a6 6 0 0 1-6 6H45c-11.046 0-20-8.954-20-20zm90-90a6 6 0 0 1 6-6h26c11.046 0 20 8.954 20 20v26a6 6 0 0 1-6 6h-40a6 6 0 0 1-6-6z"/><circle cx="140" cy="140" r="27" stroke="#000" stroke-linecap="round" stroke-linejoin="round" stroke-width="12"/></svg>