<svg xmlns="http://www.w3.org/2000/svg" width="192" height="192" viewBox="0 0 192 192"><g fill="none" stroke="#000" stroke-linecap="round" stroke-linejoin="round" stroke-width="8"><rect width="136" height="136" x="28" y="28" ry="6"/><path d="M124.115 28.857v15.687s-7.909.982-7.909 9.799c0 8.35 7.909 9.208 7.909 9.208v98.067m39.31-11.667H29.803m133.622-9.981H29.803m133.622 2H29.803M145.662 31.875 139 38.537l6.797 6.797-6.653 6.653 5.944 5.944-5.51 5.51 6.21 6.212-6.221 6.221 5.936 5.936-6.098 6.099 6.618 6.618-6.714 6.713 5.776 5.776-5.618 5.618 6.056 6.055-6.341 6.341 6.418 6.418-6.032 6.032m.453 14.248 5.083 5.082-5.603 5.604M103.085 61.38l-42.496 42.712 3.461 6.693v-10.31h-9.732l6.272 3.622"/><path d="m80.016 84.632 13.97 29.298 1.363-.89-7.36-22.278-.161-13.773-11.013.193-25.453-8.866-.732 1.513z"/></g></svg>