<svg xmlns="http://www.w3.org/2000/svg" width="192" height="192" fill="none" viewBox="0 0 192 192"><path stroke="#000" stroke-linecap="round" stroke-linejoin="round" stroke-width="10" d="m96 87-36.705 36.74m0 0L60.5 134m-1.205-10.26L49 122m67-96v25m0 115V69m0-18a8.999 8.999 0 1 0 0 18"/><path stroke="#000" stroke-linecap="round" stroke-linejoin="round" stroke-width="8" d="M144.64 29 138 35.94l6.775 7.082-6.631 6.931 5.924 6.193-5.492 5.74 6.19 6.472-6.201 6.482 5.917 6.184-6.078 6.354L145 94.273l-6.692 6.994 5.757 6.017-5.6 5.853 6.037 6.309-6.321 6.606 6.397 6.687-6.012 6.284 5.936 7.835-5.484 7.009 5.066 5.295-5.585 5.838"/><path stroke="#000" stroke-linecap="round" stroke-linejoin="round" stroke-width="10" d="m88 137-7.01-34.661L47 94"/><rect width="142" height="142" x="25" y="25" stroke="#000" stroke-linecap="round" stroke-linejoin="round" stroke-width="12" rx="6"/></svg>