<?xml version="1.0" encoding="UTF-8" standalone="no"?>
<!-- Created with Inkscape (http://www.inkscape.org/) -->

<svg
   width="192"
   height="192"
   viewBox="0 0 192 192"
   version="1.1"
   id="svg5"
   xmlns="http://www.w3.org/2000/svg"
   xmlns:svg="http://www.w3.org/2000/svg">
  <defs
     id="defs2" />
  <g
     id="layer1">
    <path
       id="rect910"
       style="fill:none;stroke:#000000;stroke-width:12;stroke-linejoin:round;stroke-miterlimit:4;stroke-dasharray:none"
       d="M 45.192278,66.094775 H 146.79984 c 9.98503,0 19.26971,8.116584 18.0235,18.023544 l -8.53602,67.858131 c -1.24621,9.90697 -8.03848,18.02601 -18.02351,18.02354 l -85.237112,-0.0209 c -9.985032,-0.003 -16.87798,-8.10441 -18.023524,-18.02353 l -7.83442,-67.837191 c -1.145545,-9.91912 8.038491,-18.023544 18.023524,-18.023544 z" />
    <path
       id="path4112"
       style="fill:none;stroke:#000000;stroke-width:12;stroke-linejoin:round;stroke-miterlimit:4;stroke-dasharray:none"
       d="m 126.76779,128.02944 0,-13.69241 m 0,-26.990988 V 52.763924 C 126.76779,35.77348 112.99434,22.000001 96.003897,22 79.013468,22 65.240003,35.77348 65.240003,52.763924 v 13.330851" />
    <ellipse
       style="fill:none;stroke:#000000;stroke-width:12;stroke-linejoin:round;stroke-miterlimit:4;stroke-dasharray:none"
       id="path4993"
       cx="85.61718"
       cy="130.31302"
       rx="13.495481"
       ry="13.495496" />
    <ellipse
       style="fill:none;stroke:#000000;stroke-width:12;stroke-linejoin:round;stroke-miterlimit:4;stroke-dasharray:none"
       id="path4993-3"
       cx="126.76778"
       cy="100.84154"
       rx="13.495481"
       ry="13.495496" />
    <ellipse
       style="fill:none;stroke:#000000;stroke-width:12;stroke-linejoin:round;stroke-miterlimit:4;stroke-dasharray:none"
       id="path4993-3-6"
       cx="126.76778"
       cy="141.52493"
       rx="13.495481"
       ry="13.495496" />
    <path
       style="fill:none;stroke:#000000;stroke-width:12;stroke-linecap:butt;stroke-linejoin:miter;stroke-miterlimit:4;stroke-dasharray:none;stroke-opacity:1"
       d="m 116.46664,104.47934 -20.50272,17.1692"
       id="path5176" />
  </g>
</svg>
