<?xml version="1.0" encoding="UTF-8" standalone="no"?>
<svg
   width="100%"
   height="100%"
   viewBox="0 0 192 192"
   version="1.1"
   xml:space="preserve"
   style="fill-rule:evenodd;clip-rule:evenodd;stroke-linejoin:round;stroke-miterlimit:2;"
   id="svg10"
   sodipodi:docname="patreon.svg"
   inkscape:version="1.2.1 (9c6d41e410, 2022-07-14)"
   xmlns:inkscape="http://www.inkscape.org/namespaces/inkscape"
   xmlns:sodipodi="http://sodipodi.sourceforge.net/DTD/sodipodi-0.dtd"
   xmlns="http://www.w3.org/2000/svg"
   xmlns:svg="http://www.w3.org/2000/svg"><defs
   id="defs14" /><sodipodi:namedview
   id="namedview12"
   pagecolor="#ffffff"
   bordercolor="#000000"
   borderopacity="0.25"
   inkscape:showpageshadow="2"
   inkscape:pageopacity="0.0"
   inkscape:pagecheckerboard="0"
   inkscape:deskcolor="#d1d1d1"
   showgrid="false"
   inkscape:zoom="2.7179255"
   inkscape:cx="76.344991"
   inkscape:cy="147.539"
   inkscape:window-width="1274"
   inkscape:window-height="1303"
   inkscape:window-x="1282"
   inkscape:window-y="36"
   inkscape:window-maximized="0"
   inkscape:current-layer="svg10" />
    <path
   d="M1750.24,455.398C1750.24,448.775 1744.87,443.398 1738.24,443.398C1738.24,443.398 1724,443.398 1724,443.398C1717.38,443.398 1712,448.775 1712,455.398C1712,455.398 1712,584.602 1712,584.602C1712,591.225 1717.38,596.602 1724,596.602L1738.24,596.602C1744.87,596.602 1750.24,591.225 1750.24,584.602L1750.24,455.398ZM1724,455.398C1724,455.398 1738.24,455.398 1738.24,455.398L1738.24,584.602C1738.24,584.602 1724,584.602 1724,584.602C1724,584.602 1724,455.398 1724,455.398ZM1814.63,445.127C1782.96,445.127 1757.26,470.835 1757.26,502.501C1757.26,534.167 1782.96,559.875 1814.63,559.875C1846.3,559.875 1872,534.167 1872,502.501C1872,470.835 1846.3,445.127 1814.63,445.127ZM1814.63,457.127C1839.67,457.127 1860,477.458 1860,502.501C1860,527.544 1839.67,547.875 1814.63,547.875C1789.59,547.875 1769.26,527.544 1769.26,502.501C1769.26,477.458 1789.59,457.127 1814.63,457.127Z"
   id="path4"
   inkscape:label="Patreon-Form"
   style="fill-rule:evenodd;clip-rule:evenodd;stroke-linejoin:round;stroke-miterlimit:2"
   transform="translate(-1696,-424)" />
</svg>
