<svg xmlns="http://www.w3.org/2000/svg" width="192" height="192" fill="none" stroke="#000" stroke-linejoin="round" viewBox="0 0 192 192"><path stroke-width="12" d="M95.977 168c37.608 0 63.992-30.743 62.046-61.397C156.077 75.905 128.516 46.197 95.977 20c-32.538 26.197-60.054 55.905-62 86.558-1.946 30.699 24.438 61.442 62 61.442z"/><path stroke-width="8" d="M58.072 99.073a3.072 3.072 0 0 1-2.13-5.287l35.42-34.056a6.693 6.693 0 0 1 9.277 0l35.418 34.056a3.072 3.072 0 0 1-2.13 5.287h-8.641v28.35a6.69 6.69 0 0 1-6.692 6.693H104.2v-23.97a6.69 6.69 0 0 0-6.693-6.692h-3.014a6.69 6.69 0 0 0-6.693 6.692v23.97H73.992a6.693 6.693 0 0 1-6.692-6.692v-28.35z"/></svg>