<svg width="192" height="192" viewBox="0 0 192 192" xmlns="http://www.w3.org/2000/svg"><g fill="none"><path style="fill-opacity:0;stroke:#000;stroke-width:7.99961;stroke-linecap:round;stroke-linejoin:round;paint-order:stroke fill markers" d="M63 41.5A21.5 21.5 0 0 1 41.5 63 21.5 21.5 0 0 1 20 41.5 21.5 21.5 0 0 1 41.5 20 21.5 21.5 0 0 1 63 41.5ZM117.5 41.5A21.5 21.5 0 0 1 96 63a21.5 21.5 0 0 1-21.5-21.5A21.5 21.5 0 0 1 96 20a21.5 21.5 0 0 1 21.5 21.5ZM63 96a21.5 21.5 0 0 1-21.5 21.5A21.5 21.5 0 0 1 20 96a21.5 21.5 0 0 1 21.5-21.5A21.5 21.5 0 0 1 63 96ZM117.5 150.5A21.5 21.5 0 0 1 96 172a21.5 21.5 0 0 1-21.5-21.5A21.5 21.5 0 0 1 96 129a21.5 21.5 0 0 1 21.5 21.5ZM63 150.5A21.5 21.5 0 0 1 41.5 172 21.5 21.5 0 0 1 20 150.5 21.5 21.5 0 0 1 41.5 129 21.5 21.5 0 0 1 63 150.5Z"/><path style="fill-opacity:0;stroke:#000;stroke-width:12;stroke-linecap:round;stroke-linejoin:round;paint-order:stroke fill markers" d="M170.024 41.5A19.524 19.524 0 0 1 150.5 61.024 19.524 19.524 0 0 1 130.976 41.5 19.524 19.524 0 0 1 150.5 21.976 19.524 19.524 0 0 1 170.024 41.5ZM170.047 96.024a19.524 19.524 0 0 1-19.523 19.523A19.524 19.524 0 0 1 131 96.024 19.524 19.524 0 0 1 150.524 76.5a19.524 19.524 0 0 1 19.523 19.524ZM170.047 150.524a19.524 19.524 0 0 1-19.523 19.523A19.524 19.524 0 0 1 131 150.524 19.524 19.524 0 0 1 150.524 131a19.524 19.524 0 0 1 19.523 19.524zM115.547 96.024a19.524 19.524 0 0 1-19.523 19.523A19.524 19.524 0 0 1 76.5 96.024 19.524 19.524 0 0 1 96.024 76.5a19.524 19.524 0 0 1 19.523 19.524Z"/></g></svg>