<svg xmlns="http://www.w3.org/2000/svg" width="192" height="192" fill="none" viewBox="0 0 192 192"><path stroke="#000" stroke-linejoin="round" stroke-width="12" d="M84 93.5C86.998 86 93.498 80 102.998 80c9 0 11 7 11 11s-3 21-20 21c-11.5 0-13-11-10-18.5Z"/><path stroke="#000" stroke-linecap="round" stroke-linejoin="round" stroke-width="12" d="M42 166s7.048-54.5 16-78c8-21 24-33 48-33 25.776 0 36 20.812 36 36 0 21-19.703 46-44 46-12.364 0-16-1-26-9l-6 38"/><rect width="142" height="142" x="25" y="25" stroke="#000" stroke-linecap="round" stroke-linejoin="round" stroke-width="12" rx="6"/></svg>