<svg xmlns="http://www.w3.org/2000/svg" width="192" height="192" fill="none"><path stroke="#000" stroke-linecap="round" stroke-linejoin="round" stroke-width="12" d="M102 92a35 35 0 1 0 0-70m23.998 96a35.004 35.004 0 0 0 34.571-29.525 35 35 0 0 0-23.754-38.762M101.997 22H59.133a6 6 0 0 0-5.93 5.077l-17.13 110C35.506 140.715 38.319 144 42 144h20.994m39.008-52h-25.85a6 6 0 0 0-5.93 5.088l-10.152 66C59.511 166.722 62.323 170 66 170h15.857a6 6 0 0 0 5.93-5.088l6.433-41.824a6 6 0 0 1 5.93-5.088H126"/></svg>