<svg width="192" height="192" viewBox="0 0 192 192" fill="none" xmlns="http://www.w3.org/2000/svg"><path d="M102 92a35 35 0 1 0 0-70" stroke="#000" stroke-width="12" stroke-linecap="round" stroke-linejoin="round"/><path d="M126 118a35.002 35.002 0 0 0 34.569-29.525 35 35 0 0 0-23.753-38.762M102 22H59.138a6 6 0 0 0-5.929 5.077l-17.13 110c-.567 3.638 2.246 6.923 5.928 6.923H63" stroke="#000" stroke-width="12" stroke-linecap="round" stroke-linejoin="round"/><path d="m63 144 7.217-46.912A6 6 0 0 1 76.147 92H102m-39 52-2.937 19.088c-.559 3.634 2.253 6.912 5.93 6.912h15.86a6 6 0 0 0 5.93-5.088l6.434-41.824a6 6 0 0 1 5.931-5.088H126" stroke="#000" stroke-width="12" stroke-linecap="round" stroke-linejoin="round"/></svg>