<?xml version="1.0" encoding="UTF-8" standalone="no"?>
<!-- Generator: Adobe Illustrator 16.0.4, SVG Export Plug-In . SVG Version: 6.00 Build 0)  -->

<svg
   version="1.1"
   id="Layer_1"
   x="0px"
   y="0px"
   width="24"
   height="24"
   viewBox="0 0 24 24"
   enable-background="new 0 0 124 33"
   xml:space="preserve"
   sodipodi:docname="paypal.svg"
   inkscape:version="1.1.1 (3bf5ae0d25, 2021-09-20)"
   xmlns:inkscape="http://www.inkscape.org/namespaces/inkscape"
   xmlns:sodipodi="http://sodipodi.sourceforge.net/DTD/sodipodi-0.dtd"
   xmlns="http://www.w3.org/2000/svg"
   xmlns:svg="http://www.w3.org/2000/svg"><defs
   id="defs25" /><sodipodi:namedview
   id="namedview23"
   pagecolor="#ffffff"
   bordercolor="#666666"
   borderopacity="1.0"
   inkscape:pageshadow="2"
   inkscape:pageopacity="0.0"
   inkscape:pagecheckerboard="0"
   showgrid="false"
   inkscape:zoom="12.066435"
   inkscape:cx="-1.5331786"
   inkscape:cy="22.500432"
   inkscape:window-width="1920"
   inkscape:window-height="1009"
   inkscape:window-x="-8"
   inkscape:window-y="-8"
   inkscape:window-maximized="1"
   inkscape:current-layer="g1086" />









<g
   id="g1086"
   transform="matrix(0.6627564,0,0,0.6627564,3.5245469,2.0000001)"><path
     id="path18"
     style="display:inline;stroke-width:0.662756"
     d="m 10.855469,7.4453125 -0.736328,4.6640625 h 1.410156 c 1.655653,0 3.031516,-0.336609 4.060547,-1.068359 0.934039,-0.664202 1.60664,-1.7440935 2.009765,-3.3554691 -0.08642,-0.024047 -0.172832,-0.047919 -0.263671,-0.068359 -0.115334,-0.025152 -0.231788,-0.04751 -0.34961,-0.066406 v -0.00195 h -0.002 C 16.557056,7.4797195 16.070881,7.4453125 15.537109,7.4453125 Z"
     transform="matrix(1.50885,0,0,1.50885,-5.3180126,-3.0177002)" /><path
     id="path14"
     style="display:inline;stroke-width:0.662756"
     d="M 6.9980469,2 C 6.5606277,2 6.1886948,2.3172201 6.1210938,2.75 L 3.53125,19.164062 c -0.051032,0.324751 0.1999421,0.617188 0.5273438,0.617188 h 3.8378906 l -0.265625,1.679688 C 7.5864547,21.744596 7.8054861,22 8.0917969,22 h 3.2363281 c 0.383073,0 0.707267,-0.278479 0.767578,-0.65625 l 0.03125,-0.164062 0.609375,-3.865235 0.03906,-0.212891 c 0.05965,-0.379095 0.386458,-0.65625 0.769531,-0.65625 h 0.484375 c 3.134175,0 5.587585,-1.272803 6.304687,-4.955078 C 20.633553,9.9519772 20.478204,8.6670088 19.685547,7.7636719 19.445979,7.4916762 19.148074,7.2661305 18.800781,7.0820312 19.044676,5.5265421 18.798069,4.466821 17.957031,3.5078125 17.029835,2.4520416 15.35621,2 13.214844,2 Z m 3.6660151,4.4453125 h 4.873047 c 0.577261,0 1.115657,0.037657 1.607422,0.1171875 0.140505,0.022534 0.276942,0.048964 0.410157,0.078125 0.132551,0.029824 0.261457,0.063158 0.386718,0.099609 0.0623,0.018557 0.123946,0.036758 0.183594,0.056641 0.0088,0.00291 0.01666,0.00682 0.02539,0.00977 8.5e-5,-6.482e-4 -8.7e-5,-0.0013 0,-0.00195 0.04928,0.01661 0.09475,0.036727 0.142578,0.054687 0.06472,0.024086 0.131278,0.047882 0.193359,0.074219 0.108508,0.046032 0.21207,0.095174 0.3125,0.1484374 -0.01856,0.1186334 -0.03798,0.2386831 -0.0625,0.3632813 -0.81983,4.2085033 -3.624833,5.6640623 -7.207031,5.6640623 H 9.7050781 c -0.438082,0 -0.8067361,0.317883 -0.875,0.75 L 8.859375,13.667969 9.8964844,7.1035156 c 0.040428,-0.2604632 0.2069666,-0.4740019 0.4316406,-0.5820312 0.102064,-0.049044 0.215979,-0.076172 0.335937,-0.076172 z"
     transform="matrix(1.50885,0,0,1.50885,-5.3180126,-3.0177002)" /></g>
</svg>
