<svg xmlns="http://www.w3.org/2000/svg" width="192" height="192" fill="none"><path stroke="#000" stroke-linecap="round" stroke-linejoin="round" stroke-width="12" d="M102 92a35 35 0 1 0 0-70m34.815 27.713a35 35 0 0 1 17.553 53.787M101.997 22H59.133a6 6 0 0 0-5.93 5.077l-17.13 110C35.506 140.715 38.319 144 42 144h20.994m39.008-52h-25.85a6 6 0 0 0-5.93 5.088l-10.152 66C59.511 166.722 62.323 170 66 170h15.857a6 6 0 0 0 5.93-5.088L95 118m40.132 26c3.512 0 6.88-1.37 9.363-3.808a12.88 12.88 0 0 0 3.878-9.192 12.88 12.88 0 0 0-3.878-9.192 13.37 13.37 0 0 0-9.363-3.808m3.628 52c3.511 0 6.879-1.37 9.362-3.808A12.88 12.88 0 0 0 152 157a12.88 12.88 0 0 0-3.878-9.192A13.37 13.37 0 0 0 138.76 144M115 144h23.941m0 26H121a6 6 0 0 1-6-6v-40a6 6 0 0 1 6-6h14.314"/></svg>