<svg width="192" height="192" viewBox="0 0 192 192" fill="none" xmlns="http://www.w3.org/2000/svg"><path d="M96 22s-62 48-62 86m62-86s62 48 62 86m0 0a62.012 62.012 0 0 1-18.159 43.841A62.01 62.01 0 0 1 96 170a62.007 62.007 0 0 1-57.28-38.274A61.997 61.997 0 0 1 34 108" stroke="#000" stroke-width="12" stroke-linecap="round" stroke-linejoin="round"/><path d="M78 95v32a6 6 0 0 0 6 6h24a6 6 0 0 0 6-6V95" stroke="#000" stroke-width="10" stroke-linecap="round" stroke-linejoin="round"/><path d="M129 108 96 75l-33 33" stroke="#000" stroke-width="10" stroke-linecap="round" stroke-linejoin="round"/></svg>