<svg xmlns="http://www.w3.org/2000/svg" width="192" height="192" fill="none"><path stroke="#000" stroke-linecap="round" stroke-linejoin="round" stroke-width="12" d="M90 126.341c-2.33.824-4 3.047-4 5.659v32a6 6 0 0 1-6 6H56a6 6 0 0 1-6-6V28a6 6 0 0 1 6-6h53c20.2 0 36 15.75 36 36v32c0 3.488-.467 6.84-1.342 10"/><path stroke="#000" stroke-linecap="round" stroke-linejoin="round" stroke-width="12" d="M109 82V66a8 8 0 0 0-8-8h-9a6 6 0 0 0-6 6v20a6 6 0 0 0 6 6h9a8 8 0 0 0 8-8"/><path stroke="#000" stroke-linecap="round" stroke-linejoin="round" stroke-miterlimit="6" stroke-width="12" d="m112 144.5 20.441-.001c3.331 0 6.525 1.344 8.881 3.735A12.85 12.85 0 0 1 145 157.25c0 3.381-1.323 6.624-3.678 9.015a12.46 12.46 0 0 1-8.881 3.735H118a6 6 0 0 1-6-6v-39a6 6 0 0 1 6-6h11.698c3.33 0 6.525 1.342 8.88 3.733a12.85 12.85 0 0 1 3.678 9.016 12.85 12.85 0 0 1-3.678 9.016 12.46 12.46 0 0 1-8.88 3.734"/></svg>