<svg xmlns="http://www.w3.org/2000/svg" xmlns:android="http://schemas.android.com/apk/res/android" xmlns:aapt="http://schemas.android.com/aapt" viewportWidth="1080" viewportHeight="1080" width="1080dp" height="1080dp">
	<path d="M684.5 340L690.5 341L694 344.5L696 350.5L698 366.5L705 377L724 386L728 394.5Q726.7 399.3 729 400.5L729 424.5Q726.4 431.9 720.5 436L709.5 439L702 445.5L698 454.5L698 475.5L697 476.5L697 607.5L690.5 617L682.5 621L655.5 621L644 614.5L641 609.5Q642.3 604.7 640 603.5L640 459.5L638 450.5L632.5 443Q626.4 437.6 616.5 436L610 430.5L607 418.5L607 405.5L608 404.5L609 392.5L615.5 384L624.5 380L639.5 377Q652.5 371.5 661 361.5L677.5 343L684.5 340ZM685 343L681 344L679 347Q678 350 674 349L673 353L669 355L668 359L661 367L653 374L648 375L642 380L631 381Q626 387 616 386L611 396L610 401L610 420L611 425L614 429L622 434L630 436L636 440L640 445L644 465L644 603L647 613L656 616L683 616L689 614L691 612L693 603L693 456L698 444L707 436L713 435L722 430L725 421L725 403L724 402L723 391L719 386L714 385L701 378Q702 375 700 376L693 364L691 344L685 343Z" fill="#000000" fillAlpha="0.7490196" stroke="#000000" strokeAlpha="0.7490196" stroke-width="1"/>
	<path d="M942.5 379Q972.3 381.2 988 397.5L989.5 400L992 401.5L1002 419.5L1005 434.5L1005 605.5L1003 612.5L997.5 618L990.5 621L964.5 621Q956.2 619.3 952 613.5L949 603.5L949 465.5L946 450.5L943 444L933.5 438L922.5 438L914 443.5L910 450.5L909 464.5L908 465.5L908 607.5L902.5 617L893.5 621L867.5 621L857 616L852 601.5L852 462.5L851 461.5L850 449.5L844.5 442Q839.5 436 826.5 438L817 444.5L814 450.5L812 460.5L812 602.5L809 613.5L805.5 617L796.5 621L769.5 621Q761.2 619.3 757 613.5L754 603.5L754 406.5L757 389.5L762.5 384L772.5 381L795.5 381L815.5 386L826.5 386L847.5 380L863.5 380L887.5 389L903.5 391L912.5 389L932.5 381L942.5 379ZM944 382Q937 386 926 386Q921 391 912 391L906 395L893 394Q889 390 881 390L875 386L864 385L860 383L841 385L824 390L812 389L807 386Q800 388 799 385L770 385L765 386L758 394L757 398L757 604L758 605Q756 610 760 609L761 613L764 615Q768 614 770 616L798 616L802 615L808 608L808 456L814 441L822 436L830 434L836 434L845 437L853 448L853 451L856 455L856 463L857 464L857 608L858 611Q861 615 868 616L894 616L901 614L902 613L904 603L904 458L909 444L912 442L914 439L920 435L925 434L933 434L940 436L945 440L950 449L952 455L952 604L953 605Q951 610 955 609L956 613L959 615Q963 614 965 616L991 616L996 615L1002 606L1002 434Q1000 432 1001 427Q997 421 996 413L993 411L991 406L976 391Q968 391 966 386L944 382Z" fill="#000000" fillAlpha="0.7490196" stroke="#000000" strokeAlpha="0.7490196" stroke-width="1"/>
	<path d="M89.5 381L169.5 381L193.5 387Q203 390.5 209 397.5Q220.5 409.5 224 429.5L224 448.5L225 449.5L225 506.5L218 522.5L212 531L208 533.5L206.5 536L199.5 541L184.5 547L146.5 549L137.5 553L132 558.5L130 562.5Q131.5 568 129 569.5L129 603.5L128 608.5L122.5 617L112.5 621L85.5 621Q78.5 619.4 75 614.5L72 607.5L72 405.5L73 404.5L74 392.5L80.5 384L89.5 381ZM86 385L82 387L78 391L77 395L77 422L76 423L76 603L78 614L85 616L113 616L122 613L124 608L124 572L129 556Q134 549 143 546L176 545Q182 541 192 541Q194 537 201 536L213 524L223 503L223 494L222 493L222 442Q219 440 221 434L218 425L218 419L211 405L200 394Q197 395 198 393Q195 389 189 390L182 386Q176 388 175 385L86 385Z" fill="#000000" fillAlpha="0.7490196" stroke="#000000" strokeAlpha="0.7490196" stroke-width="1"/>
	<path d="M442.5 381L463.5 381Q472.8 382.8 477 389.5L480 400.5L481 465.5L485 476.5L488.5 480Q493.2 485.8 505.5 484Q513.4 481.9 517 475.5L521 463.5L522 397.5Q523.8 388.3 530.5 384Q541.3 378.8 559.5 381L569.5 384L575 389.5L578 398.5L578 416.5L579 417.5L579 561.5L578 562.5L576 580.5L573 588.5L560.5 605L546.5 615L528.5 621L458.5 621L448 614.5L446 610.5L446 577.5L451.5 568L458.5 564L480.5 562L481.5 563L493.5 564L494.5 563L510.5 562L517 555.5Q516.8 548.3 511.5 546L471.5 542L451.5 533L438 520.5L430 507.5L425 491.5L425 404.5L427 393.5L432.5 385L442.5 381ZM440 385L432 389L430 397L430 408L429 409L429 483L430 484L430 496L436 512L441 519L454 530Q460 531 463 535Q474 535 481 540L510 541L514 543Q516 542 515 545L518 546Q522 549 521 558L513 565L496 569L489 569L481 566L454 570L450 580L450 601L449 602L451 613L454 615L459 616L529 616L530 615L538 615L550 609L557 603L559 600L564 596L571 584Q571 575 575 570L575 557L576 556L576 427L575 426L575 397L570 388L564 385L538 385L533 386L531 389L528 391L526 393Q527 397 525 399L525 466L520 479L518 481Q515 480 516 483L513 485L502 488L488 484L486 482L484 480L478 471L476 462L476 397L475 392Q473 386 467 385L440 385Z" fill="#000000" fillAlpha="0.7490196" stroke="#000000" strokeAlpha="0.7490196" stroke-width="1"/>
	<path d="M280.5 385L353.5 385Q354.7 387.2 359.5 386L372.5 391L388 405.5L394 417.5L397 428.5L397 601.5L388.5 615L375.5 620L366.5 620L365.5 621L303.5 621L302.5 620L289.5 620L286.5 618L273.5 615Q263 610 256 601.5L245 579.5Q246.8 573.3 244 571.5L243 510.5L246 497.5Q254.6 482.6 267.5 472Q275.5 465.5 287.5 463L321.5 461Q328.9 458.9 333 453.5L334 444.5L329.5 439L321.5 436L292.5 436Q291 433.5 285.5 435Q276.9 433.6 272 428.5L268 419.5L268 399.5L273.5 388L280.5 385ZM285 388L275 391L273 393Q274 397 272 399L272 420L273 425L280 430Q284 429 286 431L322 431L333 436L339 445L339 451L336 457L327 464L294 465Q287 469 277 470L266 478Q267 480 265 479L261 484L259 485L257 489L253 491L250 499Q251 501 249 500L247 502L247 511L246 512L246 524L247 525L247 573L251 582L252 589L261 602L267 605L268 608L276 610L285 615L300 615L301 616L369 616L370 615L380 615L384 613Q386 614 385 612L389 609L391 607L393 597L393 434L392 433L391 417Q387 414 386 408L382 405L379 400Q376 401 377 399L364 390L347 389L346 388L285 388Z" fill="#000000" fillAlpha="0.7490196" stroke="#000000" strokeAlpha="0.7490196" stroke-width="1"/>
	<path d="M147.5 435L148.5 436L159.5 437L166 442.5L172 452.5L173 470.5L171 480.5L162.5 491L153.5 495L142.5 495L137.5 491L134.5 491L129 485.5Q128.7 478.3 125 474.5L124 461.5L129 444.5L136.5 437L147.5 435ZM143 439L137 442L130 451Q132 457 129 459L130 479L134 486L143 491Q155 493 161 488L166 482L169 471L169 461L164 447Q160 441 154 439L143 439Z" fill="#000000" fillAlpha="0.7490196" stroke="#000000" strokeAlpha="0.7490196" stroke-width="1"/>
	<path d="M316.5 510L326.5 510L339 517L345 534.5L345 548.5Q341.2 553.2 341 561.5L338.5 565Q336.3 564.3 337 566.5L332.5 570L328.5 570L320.5 573L307 567.5L305.5 565L303 563.5L298 550.5L298 531.5L303 519.5L307.5 515L316.5 510ZM317 515L312 517Q305 521 303 530L303 555L305 560Q309 567 318 569Q328 570 333 566L338 560L340 553L340 532L338 524L334 519Q329 513 317 515Z" fill="#000000" fillAlpha="0.7490196" stroke="#000000" strokeAlpha="0.7490196" stroke-width="1"/>
	<path d="M684.5 343L691 344L693 363.5L699.5 376Q701.8 375.3 701 377.5L713.5 385L718.5 386L723 390.5L724 401.5L725 402.5L725 420.5L721.5 430L712.5 435L706.5 436L698 443.5L693 455.5L693 602.5L691 611.5L688.5 614L682.5 616L655.5 616L647 612.5L644 602.5L644 464.5L640 444.5L635.5 440L629.5 436L621.5 434L614 428.5L611 424.5L610 419.5L610 400.5L611 395.5L616 386Q625.8 386.5 630.5 381L641.5 380L647.5 375L652.5 374L661 366.5L668 358.5L669 355L673 352.5L674 349Q677.8 349.8 679 346.5L680.5 344L684.5 343ZM684 344L684 348Q683 350 679 349L678 353L674 354Q675 359 672 360Q668 359 669 363L663 367Q665 372 660 370L658 374Q657 378 650 376L648 380L647 381L638 381L636 384L634 386L622 387L620 390L616 391L615 401L612 402L612 413L615 418L616 429L625 430L626 433L637 437Q635 442 641 440L643 446Q642 452 645 451L647 454L648 459L648 609L651 610Q654 609 652 613L664 613L665 614L685 613L686 611L689 609L690 608L690 459L691 458L691 448L695 445L696 445L696 440L700 439Q702 440 701 437L706 434Q709 435 708 433L719 428Q718 425 721 426L722 425L722 393L719 391L717 387L708 386Q705 385 706 381Q700 382 697 380L696 378L696 370L693 370Q688 363 690 350L686 347Q687 343 684 344Z" fill="#000000" fillAlpha="0.9607843" stroke="#000000" strokeAlpha="0.9607843" stroke-width="1"/>
	<path d="M943.5 382L965.5 386Q968.4 390.6 975.5 391L991 405.5L993 411L996 412.5Q996.7 421.3 1001 426.5Q999.5 432 1002 433.5L1002 605.5L995.5 615L990.5 616L964.5 616Q963.2 613.8 958.5 615L956 612.5L955 609Q951.3 610.4 953 604.5L952 603.5L952 454.5L950 448.5L944.5 440L939.5 436L932.5 434L924.5 434L919.5 435L914 438.5L911.5 442L909 443.5L904 457.5L904 602.5L902 612.5L900.5 614L893.5 616L867.5 616Q860.9 615.1 858 610.5L857 607.5L857 463.5L856 462.5L856 454.5L853 450.5L853 447.5L844.5 437L835.5 434L829.5 434L821.5 436L814 441L808 455.5L808 607.5L801.5 615L797.5 616L769.5 616Q768.2 613.8 763.5 615L761 612.5L760 609Q756.3 610.4 758 604.5L757 603.5L757 397.5L758 393.5L764.5 386L769.5 385L798.5 385Q800.2 387.8 806.5 386L811.5 389L823.5 390L840.5 385L859.5 383L863.5 385L874.5 386L880.5 390Q888.5 390 892.5 394L905.5 395L911.5 391Q921.2 391.2 925.5 386Q936.5 386 943.5 382ZM852 386L851 387L837 387L836 391L830 391L829 392Q813 394 805 389Q802 390 803 387L769 387L768 389L766 390Q763 391 763 395L760 397L758 398L758 603L762 604L764 613L780 613L781 614L801 613L802 609L806 608L806 454L807 453L807 446L811 445L813 436L820 434Q824 435 823 433L826 430L831 429L840 430L841 433Q842 436 848 435L853 441L853 445L857 446L858 448Q856 454 859 456L859 608L862 609L863 609L863 613L874 613L875 614L896 613L897 611L901 609L901 453L903 448Q902 444 906 446L907 444Q905 438 911 440L912 437L917 434Q920 435 918 431L926 429L936 430L937 434L947 436L948 441L953 447L953 603L957 604L959 613L974 613L975 614L996 613L997 605L1001 602L1001 441L997 436L996 418L993 416L990 407Q984 409 986 404L980 400Q981 395 977 397Q974 396 975 392L965 391L964 387L953 387L952 386L927 387L926 391L922 392L915 392L915 395L910 397L890 397L888 396L886 392Q875 394 871 387L852 386Z" fill="#000000" fillAlpha="0.9607843" stroke="#000000" strokeAlpha="0.9607843" stroke-width="1"/>
	<path d="M85.5 385L174.5 385Q176 387.5 181.5 386L188.5 390Q195.4 389.1 198 392.5Q197.3 394.8 199.5 394L211 404.5L218 418.5L218 424.5L221 433.5Q219.3 439.8 222 441.5L222 492.5L223 493.5L223 502.5L213 523.5L200.5 536Q194.3 536.8 191.5 541Q181.5 541 175.5 545L142.5 546Q133.8 548.8 129 555.5L124 571.5L124 607.5L122 613L112.5 616L84.5 616L78 614L76 602.5L76 422.5L77 421.5L77 394.5L78 390.5L81.5 387L85.5 385ZM84 387L84 390L81 391L79 393L79 609L82 610L84 613L117 613L117 611L121 609L122 608L122 562L123 559L126 557Q128 556 127 553Q128 549 132 550L133 547L135 545L147 545L152 541L190 540L191 537L198 534Q203 536 201 530L206 529L207 526L207 524L211 524L212 516L216 514L217 505L220 503Q224 501 222 494L218 491L217 488L217 429L216 428L216 419L214 417L211 414L211 407L207 407L206 402Q202 403 201 400Q202 395 198 397L196 394L195 392L183 391L180 389L180 387L84 387Z" fill="#000000" fillAlpha="0.9607843" stroke="#000000" strokeAlpha="0.9607843" stroke-width="1"/>
	<path d="M439.5 385L466.5 385Q472.6 386.4 475 391.5L476 396.5L476 461.5L478 470.5L483.5 480L486 481.5L487.5 484L501.5 488L512.5 485L516 482.5Q515.3 480.3 517.5 481L520 478.5L525 465.5L525 398.5Q527.2 397.3 526 392.5L527.5 391L531 388.5L532.5 386L537.5 385L563.5 385L570 387.5L575 396.5L575 425.5L576 426.5L576 555.5L575 556.5L575 569.5Q571.4 574.9 571 583.5L564 596L559 599.5L556.5 603L549.5 609L537.5 615L529.5 615L528.5 616L458.5 616L453.5 615L451 612.5L449 601.5L450 600.5L450 579.5L453.5 570L480.5 566L488.5 569L495.5 569L512.5 565L521 557.5Q522.2 548.8 517.5 546L515 544.5Q515.8 542.3 513.5 543L509.5 541L480.5 540Q473.7 535.3 462.5 535Q459.8 530.8 453.5 530L441 518.5L436 511.5L430 495.5L430 483.5L429 482.5L429 408.5L430 407.5L430 396.5L432 389L439.5 385ZM437 387L437 391L432 392L432 498L435 498Q439 501 437 509L441 510L443 518L447 519L448 524L455 525L457 529Q466 528 469 534L489 535L497 537Q499 536 498 539L500 540L516 540L519 541L522 547Q520 551 524 550L526 554L526 558Q522 560 521 565Q516 566 514 570L501 570L500 571L487 571L486 570L466 570Q464 573 458 571L456 573Q457 575 455 574L453 576L453 612L455 613L474 613L475 614L506 614L507 613L538 613L538 611L542 608L548 608L548 606Q549 602 554 603Q553 599 556 598Q561 600 559 595Q560 592 564 593L565 586L569 583L570 577L570 567L574 560L574 401L572 400L570 397L570 393L568 391L565 387L537 387L532 390L531 395L527 396L527 469Q525 470 526 475L522 476L521 484L519 486L514 487Q509 485 510 490L509 491L494 491L491 487L483 485Q479 482 480 476L477 475L475 474Q477 468 474 467L474 393L472 392L469 389L469 387L437 387Z" fill="#000000" fillAlpha="0.9607843" stroke="#000000" strokeAlpha="0.9607843" stroke-width="1"/>
	<path d="M284.5 388L345.5 388L346.5 389L363.5 390L377 398.5Q376.3 400.8 378.5 400L382 405L386 407.5Q386.8 413.7 391 416.5L392 432.5L393 433.5L393 596.5L391 606.5L388.5 609L385 611.5Q385.8 613.8 383.5 613L379.5 615L369.5 615L368.5 616L300.5 616L299.5 615L284.5 615L275.5 610L268 608L266.5 605L261 601.5L252 588.5L251 581.5L247 572.5L247 524.5L246 523.5L246 511.5L247 510.5L247 501.5L248.5 500Q250.8 500.8 250 498.5L253 491L257 488.5L258.5 485L261 483.5L264.5 479Q266.8 479.8 266 477.5L276.5 470Q286.8 469.3 293.5 465L316.5 465L313.5 469L286.5 470L285.5 471L279 471L278 475L269 476L268 481L263 481L263 486L260.5 486L258 487Q259.3 493.5 255.5 496Q250.9 494.6 253 500.5L248 506.5L248 526L251 527.5L251 561.5L252 562.5L253 587Q256.8 586.3 258 589.5Q256.1 594.9 259.5 594L265.5 603Q271.3 602.2 273 605.5L273 608L279.5 608L284 610.5L284.5 613L380 613L381.5 609L386 608L387.5 604L390 602.5L390 593.5L391 592.5L391 437.5L390 436.5L390 418L386 417Q384.1 414.2 385 408L380 407L380 402L375 402L375 399.5L374 397L365 396L363.5 392L350.5 392L349.5 391L283.5 391L277 393.5Q277.8 395.8 275.5 395L274 396.5L274 424Q280.7 422.9 283 427.5L283.5 429L327.5 429L331 430L332.5 434L337 435L337 440L340.5 440L342 441.5L342 454.5L339.5 459L336 460.5L334.5 464L332.5 465L318.5 465L318.5 464L326.5 464L336 456.5L339 450.5L339 444.5L332.5 436L321.5 431L285.5 431Q284.3 428.8 279.5 430L273 424.5L272 419.5L272 398.5Q274.3 397.3 273 392.5L274.5 391L284.5 388Z" fill="#000000" fillAlpha="0.9607843" stroke="#000000" strokeAlpha="0.9607843" stroke-width="1"/>
	<path d="M147.5 433L148.5 434Q157.8 433.2 163 435L164.5 439L168 440.5L169 445Q172.8 444.3 174 447.5L174 482.5L171.5 486Q168.2 484.9 169 487.5L168 491L163 492L162 496L158.5 497L138.5 497L133 493.5L131.5 491Q127.1 492.5 128 489.5Q125.5 488 127 482.5L125.5 481Q122.2 482.1 123 479.5L122 478.5L122 449.5L124.5 446L127 444.5Q126.3 440.8 128.5 440L132 438.5L133 435Q137.9 433.3 146.5 434L147.5 433ZM148 435L137 437L129 445L124 462L125 475Q129 478 129 486L135 491L138 491L143 495L154 495L163 491L171 481L173 471L172 453L166 443L160 437L149 436L148 435Z" fill="#000000" fillAlpha="0.9607843" stroke="#000000" strokeAlpha="0.9607843" stroke-width="1"/>
	<path d="M311.5 508L331.5 508L336 510.5L337 514Q340.8 513 342 515.5Q340.5 522.5 344.5 524L347 525.5L347 557.5L345.5 559L342 560Q343.5 567.2 339.5 570Q333.3 569.3 331 572.5L329.5 575L327.5 576L315.5 576L312 573.5Q313.3 569.3 308.5 571L302 568.5L301 560L296 559L296 549.5L295 548.5L295 533.5L296 532.5L296 524.5L299.5 520Q302.9 520.9 301 515.5L307 512.5L308.5 509L311.5 508ZM317 510L308 515L303 520L298 532L298 551L303 564L306 565L307 568L321 573L329 570L333 570L337 567Q336 564 339 565L341 562Q341 553 345 549L345 535L339 517L327 510L317 510Z" fill="#000000" fillAlpha="0.9607843" stroke="#000000" strokeAlpha="0.9607843" stroke-width="1"/>
	<path d="M684 344Q687 342.8 686 346.5L690 349.5Q688.4 362.6 692.5 370L696 370L696 377.5L697 380Q699.8 381.9 706 381Q705 384.8 707.5 386L717 387L718.5 391L722 392.5L722 424.5L720.5 426Q718.3 425.3 719 427.5L708 432.5Q708.8 435.1 705.5 434L701 436.5Q702.1 439.8 699.5 439L696 440L696 445L694.5 445L691 447.5L691 457.5L690 458.5L690 607.5L688.5 609L686 610.5L684.5 613L664.5 614L663.5 613L652 613Q653.5 609.3 650.5 610L648 609L648 458.5L647 453.5L644.5 451Q641.8 451.6 643 445.5L640.5 440Q635.3 441.8 637 436.5L626 432.5L624.5 430L616 429L615 417.5L612 412.5L612 402L615 400.5L616 391L620 390L621.5 387L633.5 386L636 383.5L637.5 381L646.5 381L648 379.5L649.5 376Q656.5 377.5 658 373.5L659.5 370Q664.8 371.8 663 366.5L669 362.5Q667.8 358.8 671.5 360Q675 358.7 674 354L678 352.5L679 349Q682.8 350 684 347.5L684 344Z" fill="#000000" stroke="#000000" stroke-width="1"/>
	<path d="M851.5 386L870.5 387Q874.9 393.5 886 392L887.5 396L889.5 397L909.5 397L915 394.5L915 392L921.5 392L926 391L927 387L951.5 386L952.5 387L964 387L965 391L975 392Q974 395.8 976.5 397Q981.3 395.3 980 399.5L986 403.5Q984.3 408.8 989.5 407L993 416L996 417.5L997 435.5L1001 440.5L1001 601.5L997 604.5L996 613L974.5 614L973.5 613L959 613L957 604L953 602.5L953 446.5L948 440.5L947 436L937 434L936 430L925.5 429L918 431Q919.5 434.8 916.5 434L912 436.5L910.5 440Q905.3 438.3 907 443.5L906 446Q902.2 444.5 903 447.5L901 452.5L901 609L897 610.5L895.5 613L874.5 614L873.5 613L863 613L863 609L861.5 609L859 608L859 455.5Q856.3 453.8 858 447.5L856.5 446L853 445L853 440.5L847.5 435Q842.4 435.6 841 432.5L839.5 430L830.5 429L825.5 430L823 432.5Q823.9 435.5 819.5 434L813 436L811 445L807 446L807 452.5L806 453.5L806 608L802 609L801 613L780.5 614L779.5 613L764 613L762 604L758 602.5L758 397.5L759.5 397L763 394.5Q762.5 390.5 765.5 390L768 388.5L768.5 387L803 387Q801.9 389.7 804.5 389Q812.8 394.2 828.5 392L829.5 391L836 391L837 387L850.5 387L851.5 386Z" fill="#000000" stroke="#000000" stroke-width="1"/>
	<path d="M84 387L179.5 387L180 388.5L182.5 391L194.5 392L196 393.5L197.5 397Q202.3 395.3 201 399.5Q202.2 402.8 206 402L207 407L211 407L211 413.5L213.5 417L216 418.5L216 427.5L217 428.5L217 487.5L218 491L222 493.5Q223.7 501.3 219.5 503L217 504.5L216 514L212 515.5L211 524L207 524L207 525.5L206 529L201 530Q203.2 535.6 197.5 534L191 536.5L190 540L151.5 541L146.5 545L134.5 545L133 546.5L132 550Q128.2 549.3 127 552.5Q127.8 556.3 125.5 557L123 558.5L122 561.5L122 607.5L120.5 609L117 610.5L116.5 613L83.5 613L82 610L79 608.5L79 392.5L80.5 391L84 389.5L84 387ZM148 433L147 434Q138 433 133 435L132 439L129 440Q126 441 127 445L125 446L122 450L122 479L123 480Q122 482 126 481L127 483Q126 488 128 490Q127 493 132 491L133 494L139 497L159 497L162 496L163 492L168 491L169 488Q168 485 172 486L174 483L174 448Q173 444 169 445L168 441L165 439L163 435Q158 433 149 434L148 433Z" fill="#000000" stroke="#000000" stroke-width="1"/>
	<path d="M437 387L468.5 387L469 388.5L471.5 392L474 392.5L474 466.5Q476.5 468 475 473.5L476.5 475L480 476Q479.1 482 482.5 485L491 487L493.5 491L508.5 491L510 489.5Q508.7 485.3 513.5 487L518.5 486L521 483.5L522 476L526 474.5Q524.7 469.8 527 468.5L527 396L531 394.5L532 390L536.5 387L565 387L567.5 391L570 392.5L570 396.5L572 400L574 400.5L574 559.5L570 566.5L570 576.5L569 583L565 585.5L564 593Q560.2 592 559 594.5Q560.8 599.8 555.5 598Q553 599.2 554 603Q549.3 602 548 605.5L548 608L541.5 608L538 610.5L537.5 613L506.5 613L505.5 614L474.5 614L473.5 613L454.5 613L453 611.5L453 575.5L454.5 574Q456.8 574.8 456 572.5L457.5 571Q463.7 572.8 465.5 570L485.5 570L486.5 571L499.5 571L500.5 570L513.5 570Q516 565.5 521 565Q521.5 559.9 526 557.5L526 553.5L523.5 550Q520.5 550.9 522 546.5L518.5 541L515.5 540L499.5 540L498 538.5Q498.8 536.3 496.5 537L488.5 535L468.5 534Q465.6 528.2 457 529L454.5 525L448 524L447 519L443 517.5L441 510L437 509Q438.7 501 434.5 498L432 497.5L432 392L437 391L437 387Z" fill="#000000" stroke="#000000" stroke-width="1"/>
	<path d="M283.5 391L349.5 391L350.5 392L363.5 392L365 393.5Q363.8 397.3 367.5 396L374 397L375 402L380 402L380 407L382.5 407L385 408Q384.1 414.2 386 417L390 418L390 436.5L391 437.5L391 592.5L390 593.5L390 602.5L388.5 604L386 605.5Q387.3 609.3 383.5 608L380 610.5L379.5 613L284 613L282.5 609L273 608L271.5 604L265.5 603L263 600.5Q263.8 594.8 259.5 594Q256.1 594.9 258 589.5Q256.8 586.3 253 587L252 562.5L251 561.5L251 527.5L249.5 526L248 525.5L248 506.5L253 500.5L253 496L257 494.5L258 487L263 486L263 481L268 481L268 478.5L269 476L278 475L279 471L285.5 471L286.5 470L313.5 469L317.5 465L332.5 465L336 462.5L337.5 459L341 457.5Q343.6 451.6 342 441.5Q340.8 439 337 440L337 435L334.5 435L331 432.5Q332.3 428.8 328.5 430L327.5 429L283 429L280.5 425L274 424L274 396.5L275.5 395Q277.8 395.8 277 393.5L283.5 391ZM312 508L309 509L307 513L301 516Q303 521 300 520L296 525L296 533L295 534L295 549L296 550L296 559L301 560L302 569L309 571Q313 569 312 574L316 576L328 576L330 575L331 573Q333 569 340 570Q343 567 342 560L346 559L347 558L347 526L345 524Q341 523 342 516Q341 513 337 514L336 511L332 508L312 508Z" fill="#000000" stroke="#000000" stroke-width="1"/>
	<path d="M681.5 334Q689.9 333.1 694 335L695 340Q698.8 339 700 341.5L701 350.5L706.5 357L711 360.5L718.5 376L725 378L726 382L731 384.5L732 394.5L735.5 398L743.5 400L748 397.5Q748 391 751.5 388Q754.8 386.9 754 389.5L750 394.5L748 408Q744.7 410.1 736.5 409L732 407L731 388.5L729 385Q726.3 386.1 727 383.5L723 382L720.5 378L715.5 377L708.5 371L706 371L705 363.5L702.5 361Q699.5 361.9 701 357.5L700 356.5L700 346.5L696.5 341L694 339.5L691.5 336L683.5 335L671 342L669.5 346L666 347L662.5 353Q660.3 352.3 661 354.5L656.5 360L653 362.5L650.5 366L645 368L643.5 371L643 368.5Q644.3 365 649 366Q648.3 362.2 651.5 361Q655.3 362.3 654 358.5Q655.2 355.3 659 356L660 351L664 349.5L666.5 345Q671.8 346.8 670 341.5Q671.2 339 675 340L677.5 335L681.5 334Z" fill="#000000" fillAlpha="0.05490196" stroke="#000000" strokeAlpha="0.05490196" stroke-width="1"/>
	<path d="M634.5 371L642 371.5L632.5 373L627.5 377L621.5 377L621.5 376Q627.6 377.3 627 374.5L629.5 372L634.5 371Z" fill="#000000" fillAlpha="0.05490196" stroke="#000000" strokeAlpha="0.05490196" stroke-width="1"/>
	<path d="M942.5 373L948.5 373L951.5 376L960 376.5L949.5 377Q948 374.5 942.5 376L941.5 377L932.5 377L932.5 376Q940.8 377.7 942.5 373Z" fill="#000000" fillAlpha="0.05490196" stroke="#000000" strokeAlpha="0.05490196" stroke-width="1"/>
	<path d="M853.5 374L858.5 374L860.5 376L868 376.5L842.5 377L842.5 376L851.5 376L853.5 374Z" fill="#000000" fillAlpha="0.05490196" stroke="#000000" strokeAlpha="0.05490196" stroke-width="1"/>
	<path d="M88.5 376L172 376.5L88.5 377L88.5 376Z" fill="#000000" fillAlpha="0.05490196" stroke="#000000" strokeAlpha="0.05490196" stroke-width="1"/>
	<path d="M441.5 376L465 376.5L441.5 377L441.5 376Z" fill="#000000" fillAlpha="0.05490196" stroke="#000000" strokeAlpha="0.05490196" stroke-width="1"/>
	<path d="M539.5 376L562 376.5L539.5 377L539.5 376Z" fill="#000000" fillAlpha="0.05490196" stroke="#000000" strokeAlpha="0.05490196" stroke-width="1"/>
	<path d="M771.5 376L797 376.5L771.5 377L771.5 376Z" fill="#000000" fillAlpha="0.05490196" stroke="#000000" strokeAlpha="0.05490196" stroke-width="1"/>
	<path d="M79.5 377L84 377.5L81.5 378L71 387.5L69 395.5L69 406.5L62 418.5L59 433.5L59 623.5L63 639.5L68 648Q75.3 654.2 86.5 658L106.5 659L120.5 655L132 646.5Q137.7 639.7 140 629.5L142 601.5L150.5 591L158.5 588L175.5 587L191.5 583Q205.5 578 214.5 568Q217.4 565.4 223.5 566L230 570.5L231 573.5L231 592.5L235 611.5L243 627.5L258.5 644L273.5 653L290.5 658L301.5 658L302.5 659L365.5 659L383.5 655L397 647L405 635.5L409 624.5Q407.7 619.8 410 618.5L410 553.5Q412.3 552.2 411 547.5L415.5 543L422.5 545L432 554.5L437.5 561L443 565.5L443 587.5L435 602.5L433 611.5L433 625.5L436 637.5Q439.1 645.9 445.5 651Q453.5 657 465.5 659L523.5 659L524.5 658L532.5 658L547.5 653Q564.7 643.7 576 628.5L582 620.5L588 607.5L591 594.5L591 585.5L592 584.5L592 478.5L594 469.5L596.5 467L604.5 466Q615.1 471.4 622 480.5L627 491.5L627 621.5L630 635.5L637 648L642.5 652L656.5 658L675.5 659L691.5 654L701 646.5L705 640.5L709 628.5L709 619.5L710 618.5L710 491.5Q713.5 480 721.5 473Q725.3 468.3 735.5 470L738 471L740 476.5L740 614.5L741 615.5L741 625.5L745 638.5L751 648Q758.8 654.4 770.5 658L791.5 659L806.5 654L818 643.5L823 632.5L826 619.5L826 493.5L828.5 490L833.5 489L838 492.5L838 614.5L839 615.5L839 625.5L841 631.5L844 639.5L850.5 648Q857.5 655 868.5 658L887.5 659Q902.6 655.9 912 648L916 640.5L921 625.5L921 496.5L923.5 490L928.5 488L933 490.5L935 500.5L935 621.5L940 638.5L948.5 650L965.5 658L985.5 659L1001.5 653L1011 644.5L1016 634.5L1019 619.5L1019 466.5L1018 465.5L1016 448.5L1011 436.5L1011 429.5L1006 421.5Q1006.5 413.5 1002.5 410L1000 408.5L999 403L995 400.5L988.5 392L985.5 390L982 387.5L985.5 387L989 389.5L990 393L994 394.5L996.5 399L1000 401.5L1001 408L1005 409L1006 414.5L1019 431.5L1027 455.5L1027 628.5Q1023.5 647 1011.5 657Q1001.7 664.2 988.5 668L966.5 668L952.5 663Q942.5 658 936 649.5L931.5 643L926.5 642L917.5 654L915 655.5L911.5 660L896.5 667L871.5 668Q850 664.5 840 649.5L835.5 643L832.5 641L826 646.5L821 654Q818.3 652.9 819 655.5Q805 671.5 771.5 668L757.5 663L749.5 658L741 649.5L733 634.5L733 626.5L732 625.5L732 485.5L728.5 481L726.5 481L721 486.5L719 491.5L719 618.5L718 619.5L718 630.5L716 634.5L715 641.5L705 656L686.5 667L660.5 668L649.5 666L637.5 660L627 649.5L619 630.5L619 495.5L617 487.5L611.5 481Q609.2 478.3 603.5 479L601 481.5L601 575.5L600 576.5L600 594.5Q597.8 595.8 599 600.5L592 620.5Q582.6 636.1 569.5 648L553.5 660L533.5 667L525.5 667L524.5 668L460.5 668Q442.4 663.6 433 650.5L423 630.5L422 609.5Q424.5 608 423 602.5L427 598.5L431 589.5L438 581.5L440 576.5L436 570L421.5 559L419 563.5L419 598.5L420 599.5L421 616.5L420 617.5L420 628.5L416 632.5L415 636.5L408 648L404 650.5L401.5 654Q392 663.5 376.5 667L288.5 667Q285.9 663.6 278.5 665L261.5 657L240 637.5L231 624.5L225 609.5L222 597.5L222 580.5L220.5 579L216.5 578L206.5 586L192.5 593L175.5 596L156.5 597L152 600.5L150 605.5L150 626.5L147 640.5L135.5 656L117.5 667L91.5 668L90.5 667L82.5 667Q72.1 663.4 65 656.5L63.5 654L60 651.5L51 634.5L51 423.5Q53.7 420.2 53 413.5L56 408.5L69 394.5Q68 386.3 71 383Q74.8 383.8 76 380.5L77.5 378L79.5 377Z" fill="#000000" fillAlpha="0.05490196" stroke="#000000" strokeAlpha="0.05490196" stroke-width="1"/>
	<path d="M176.5 377Q185.5 375.5 188 380.5Q188.8 383.1 185.5 382Q183.9 377.1 176.5 378L176.5 377Z" fill="#000000" fillAlpha="0.05490196" stroke="#000000" strokeAlpha="0.05490196" stroke-width="1"/>
	<path d="M433.5 377L438 377.5L433 379L431.5 382Q427.5 381.5 427 384.5Q428.1 387.8 425.5 387Q422.3 388.3 422.5 393L422 387.5L424 384L429 380.5Q428.3 378.3 430.5 379L433.5 377Z" fill="#000000" fillAlpha="0.05490196" stroke="#000000" strokeAlpha="0.05490196" stroke-width="1"/>
	<path d="M468.5 377Q473 376 474 378.5L476.5 382Q480.3 380.8 479 384.5L475.5 382Q472.2 383.1 473 380.5Q472.5 377.5 468.5 378L468.5 377Z" fill="#000000" fillAlpha="0.05490196" stroke="#000000" strokeAlpha="0.05490196" stroke-width="1"/>
	<path d="M529.5 377L536 377.5Q530.5 377 529 380.5Q529.8 382.8 527.5 382L523 385.5L518 393.5L517 409.5Q509.5 419 507 433.5L507 476Q504 478 496.5 477L495 475.5L495 439.5L494 438.5L493 424.5L485 409.5L484 393.5L480.5 388L479 387.5L482.5 387L484 388.5L485 395.5L498.5 412L501.5 413L517 396.5Q516.3 390.4 518 388L522 387Q521 383.2 523.5 382Q527.3 382.8 528 380.5L529.5 377Z" fill="#000000" fillAlpha="0.05490196" stroke="#000000" strokeAlpha="0.05490196" stroke-width="1"/>
	<path d="M565.5 377Q570.9 376.4 573 378L574 382Q577.8 381.3 579 384.5Q577.5 388.9 580.5 388Q584.6 390.9 585 397.5L589.5 402L595.5 402L601 397.5L601 393.5L604.5 389Q607.5 389.9 606 385.5L608.5 382Q613.3 383.7 612 379.5Q613 376 618.5 377L618.5 378L616.5 378Q613.8 383.3 608 384L606 392.5L602 397.5L601 409.5L599.5 411L589.5 413L585 409.5L583 395.5L579 391.5Q579.5 386 576.5 384L568.5 378L565.5 378L565.5 377Z" fill="#000000" fillAlpha="0.05490196" stroke="#000000" strokeAlpha="0.05490196" stroke-width="1"/>
	<path d="M761.5 377L768 377.5Q762.5 377 761 380.5Q761.8 382.8 759.5 382L755 385.5L754.5 387L754 384.5Q755.2 381.3 759 382L761.5 377Z" fill="#000000" fillAlpha="0.05490196" stroke="#000000" strokeAlpha="0.05490196" stroke-width="1"/>
	<path d="M800.5 377Q811.8 374.8 814 381.5L810 382Q811.1 379.3 808.5 380Q806.5 377 800.5 378L800.5 377Z" fill="#000000" fillAlpha="0.05490196" stroke="#000000" strokeAlpha="0.05490196" stroke-width="1"/>
	<path d="M832.5 377L840 377.5L835.5 378L830.5 382L828.5 382L829 380.5L830.5 378L832.5 377Z" fill="#000000" fillAlpha="0.05490196" stroke="#000000" strokeAlpha="0.05490196" stroke-width="1"/>
	<path d="M871.5 377Q877.8 375.8 879 379.5L878.5 382L874.5 378L871.5 378L871.5 377Z" fill="#000000" fillAlpha="0.05490196" stroke="#000000" strokeAlpha="0.05490196" stroke-width="1"/>
	<path d="M923.5 377L929 377.5Q924.3 377.3 923 380.5Q923.9 383.5 919.5 382L923.5 377Z" fill="#000000" fillAlpha="0.05490196" stroke="#000000" strokeAlpha="0.05490196" stroke-width="1"/>
	<path d="M962.5 377Q967.8 375.8 969 378.5L971 381.5L968 382L965.5 378Q961.5 378.8 962.5 377Z" fill="#000000" fillAlpha="0.05490196" stroke="#000000" strokeAlpha="0.05490196" stroke-width="1"/>
	<path d="M286.5 379L341.5 379L347 381.5L283.5 382L284.5 380L286.5 379Z" fill="#000000" fillAlpha="0.05490196" stroke="#000000" strokeAlpha="0.05490196" stroke-width="1"/>
	<path d="M191.5 382Q197.6 381.3 200 383L199.5 387L196.5 383Q190.5 384.3 191.5 382Z" fill="#000000" fillAlpha="0.05490196" stroke="#000000" strokeAlpha="0.05490196" stroke-width="1"/>
	<path d="M271.5 382L277 382.5L271 384L265 391.5L264.5 395L264 389.5L269 387L271.5 382Z" fill="#000000" fillAlpha="0.05490196" stroke="#000000" strokeAlpha="0.05490196" stroke-width="1"/>
	<path d="M360.5 382Q368.2 381.2 372 383L373 387L366.5 383L360.5 383L360.5 382Z" fill="#000000" fillAlpha="0.05490196" stroke="#000000" strokeAlpha="0.05490196" stroke-width="1"/>
	<path d="M882.5 382Q891.5 380.5 894 385.5Q894.8 387.8 892.5 387L887.5 383Q881.5 384.3 882.5 382Z" fill="#000000" fillAlpha="0.05490196" stroke="#000000" strokeAlpha="0.05490196" stroke-width="1"/>
	<path d="M910.5 382L917 382.5L910.5 384Q910 387.5 905.5 387L906 385.5L907.5 383L910.5 382Z" fill="#000000" fillAlpha="0.05490196" stroke="#000000" strokeAlpha="0.05490196" stroke-width="1"/>
	<path d="M973.5 382Q978 381 979 383.5L980 386.5L978 385.5Q978.8 383.3 976.5 384L973.5 383L973.5 382Z" fill="#000000" fillAlpha="0.05490196" stroke="#000000" strokeAlpha="0.05490196" stroke-width="1"/>
	<path d="M203.5 387L209 388L210 392L215 394.5L216 398L220 400.5L221 406.5L220 406.5Q217.4 397.6 210.5 393L208 391.5L206.5 389Q202.8 388.7 203.5 387Z" fill="#000000" fillAlpha="0.05490196" stroke="#000000" strokeAlpha="0.05490196" stroke-width="1"/>
	<path d="M374.5 387Q378.3 386.3 379 388.5L381.5 392L388 395.5Q391 397.8 390 403L394 403L394 404.5L395 409L400 412.5L400 415L407 415L408 411.5L420.5 396L422 396.5L422 407.5L417 413.5L412 427L404.5 429L400 426.5L399 415.5L395 411.5Q395.1 405.9 391.5 404L389 402.5Q389.8 398.8 387.5 398L384 395.5L382.5 393Q378.5 393.5 378 390.5L376.5 388Q373.5 388.5 374.5 387Z" fill="#000000" fillAlpha="0.05490196" stroke="#000000" strokeAlpha="0.05490196" stroke-width="1"/>
	<path d="M263.5 398L264 409.5Q259.3 413.3 258 420.5L256 427.5L255 438.5L260 454.5L269 465.5L264 467.5Q265.5 471.9 262.5 471L259 473.5Q260.1 476.8 257.5 476L255 477L254 482Q250.2 481.3 249 484.5L247.5 488L243 491.5L242.5 495L238 491.5L237 488.5L237 459.5L234 443.5Q231 439.5 231 432.5L227 428.5L226 415.5L221 408Q224.8 407.3 226 410.5L227 414.5Q233.2 419.8 236 428.5L242.5 436L246 430.5L246 423.5L252 410.5L261.5 399L263.5 398ZM247 459L246 464Q244 476 248 483L248 482Q248 478 253 479L255 475L260 471L254 461Q252 458 247 459Z" fill="#000000" fillAlpha="0.05490196" stroke="#000000" strokeAlpha="0.05490196" stroke-width="1"/>
	<path d="M683.5 335Q691.8 333.7 694 338.5L695.5 341L699 343.5L701 361L705 363.5L706 371L708.5 371L713.5 376Q720.1 376.4 723 380.5Q722.2 383.1 725.5 382L727 385Q729.7 383.9 729 386.5Q732.3 387.8 731 393.5L730 393.5L730 390.5L723.5 383L718.5 379L709 375.5Q709.8 373.3 707.5 374L700 363.5L698 346.5L690.5 338L683.5 337Q672.5 341.5 666 350.5L662.5 356L660 357.5L659 361L655 362L654 366Q646.9 367.6 642.5 373L628.5 377L628.5 376L632.5 373L641.5 372L645 369.5Q644.3 367.3 646.5 368L653 363.5L655.5 360L659 357.5L661 353L665 350.5L666 347L671 344.5Q669.9 341.2 672.5 342L683.5 335Z" fill="#000000" fillAlpha="0.1411765" stroke="#000000" strokeAlpha="0.1411765" stroke-width="1"/>
	<path d="M942.5 376L949 376.5L942.5 377L942.5 376Z" fill="#000000" fillAlpha="0.1411765" stroke="#000000" strokeAlpha="0.1411765" stroke-width="1"/>
	<path d="M84.5 377L175.5 377L180.5 378L185.5 382L196.5 383L199 385.5Q198.1 388.5 202.5 387L208 390.5L209.5 393L215 397.5L220 404.5L221 409.5L226 415.5L227 428.5L231 432.5Q231 439.5 234 443.5L237 459.5L237 488.5L240.5 494L242.5 495Q242.4 489.4 246.5 488L249 486.5Q248.5 482.5 251.5 482Q255.3 483.3 254 479.5L255 477L259 476L260.5 472L264 471Q263 467.2 265.5 466L269 465.5Q256.1 455.4 255 433.5L260 414.5L264 409.5Q262.6 398.6 265 391.5L271 384L277.5 382L359.5 382Q361 384.5 366.5 383L371.5 387L378 389.5L380.5 393L384 394.5L386.5 398L389 399.5Q388.3 403.3 390.5 404L394 406.5Q394.2 413.3 399 415.5L400 426.5L401.5 428L406.5 429L412 427L417 413.5L422 407.5L422 393.5L423 389.5L425.5 387Q428.1 387.8 427 384.5L433 380.5Q432.3 378.3 434.5 379L438.5 377L467.5 377L473 380.5Q472.2 383.1 475.5 382Q479.7 383.3 479 388L483 390.5L485 409.5L492 421.5L494 430.5L494 438.5L495 439.5L495 475.5L496.5 477Q504 478 507 476L507 433.5L508 428.5Q510.8 417.3 517 409.5L518 393.5L525.5 383L529 382L531.5 378L536.5 377L564.5 377L568.5 378L578 385.5L579 391.5L583 395.5L585 409.5L587.5 412L593.5 413L601 409.5L602 397.5L606 392.5L608 384Q613.7 383.2 616.5 378L626.5 377L626.5 378L618.5 379L608 387.5L603 407.5Q604.3 417.8 602 424.5L604.5 428L606 428.5L606 438.5L611 450.5L618.5 459L631 468.5L637 485.5L637 598.5L638 599.5L638 616.5L639.5 618Q642.5 617.1 641 621.5Q643.5 623 642 628.5L645 634.5L650.5 640Q657.6 647.9 674.5 646Q685.4 643.9 691 636.5Q696.9 630.2 696 618L699 616.5L700 614.5L700 491.5L701 490.5L701 475.5L703 471.5L714.5 460L724 452.5L732 439.5L732 414.5L731 413.5L731 395.5L732 395.5L732 406.5L733.5 407Q736.7 410.8 745.5 409L748 408L750 394.5L757.5 383L761 382L763.5 378L768.5 377L799.5 377L810 380L810.5 382L830.5 382L835.5 378L852.5 377L852.5 378L843.5 378L830.5 383L810.5 383L801.5 379Q796.7 380.3 795.5 378L771.5 378Q762 379.5 757 385.5L752 396.5L750 406.5L749 426.5L748 427.5L748 452.5L749 453.5L749 605.5L750 609.5L754 613.5L754 621.5L757 631.5L763.5 640L772.5 645L790.5 646L799.5 642L808 633.5L810 629.5L811 618.5L814 615.5L816 607.5L816 475.5L822.5 468L830.5 465L834.5 465Q842.9 468.1 848 474.5L848 484.5L849 485.5L849 611.5L853 618.5L853 623.5L855 629.5L862 640L874.5 646L886.5 646Q895.9 643.9 901 637.5L907 626.5L907 618L910 616.5L911 614.5L911 476.5L917.5 469L925.5 465L931.5 465Q938.9 467.6 943 473.5L943 483.5L944 484.5L944 606.5L948 613.5L948 618.5L952 631.5L958.5 640L967.5 645L982.5 646Q995.1 643.6 1001 634.5L1006 620.5L1006 613.5L1010 608.5L1010 444.5L1009 443.5L1009 434.5L1006 428.5L1004 415.5L996.5 404Q994.3 404.8 995 402.5L993 398L990 396.5L987.5 393L975.5 385L968.5 383L962.5 379L951 377.5L961.5 377L965.5 378L968 380.5Q967.1 383.9 972.5 382L978 384L979.5 387L987 390Q985.9 392.7 988.5 392L997.5 403Q999.8 402.3 999 404.5L1001.5 410L1004 411.5L1006 421.5L1011 429.5L1011 436.5L1016 448.5L1018 465.5L1019 466.5L1019 619.5L1015 637.5Q1011.8 645.3 1005.5 650L989.5 658Q982.4 660.4 971.5 659Q953.8 656.2 944 645.5L940 638.5L935 621.5L935 500.5Q932.3 498.8 934 492.5L931.5 489L926.5 488L922 491.5L921 496.5L921 625.5L916 640.5L912 648Q904 654.8 891.5 658Q884.4 660.4 873.5 659Q857.7 656.3 849 646.5L844 639.5L841 631.5L839 625.5L839 615.5L838 614.5L838 492.5L835.5 490L830.5 489L827 491.5L826 493.5L826 619.5L820 640.5L811.5 650L806.5 654L796.5 658L791.5 659L776.5 659Q760.6 656.2 751 648L745 638.5L741 625.5L741 615.5L740 614.5L740 476.5L738 471Q734.7 468.9 726.5 470L718 476.5L710 491.5L710 618.5L709 619.5L709 628.5L705 640.5L699.5 648Q692.3 655.3 680.5 658L661.5 659Q646.4 655.9 637 648L630 635.5L627 621.5L627 491.5Q623 478 612.5 471L604.5 466L598.5 466L594 469.5L592 478.5L592 584.5L591 585.5L590 599.5L588 607.5L580 623.5L558.5 646L545.5 654L532.5 658L524.5 658L523.5 659L465.5 659L448.5 653L441 646.5L434 631.5L433 611.5L436 599.5L442.5 588L443 616.5L444.5 618Q447.5 617.1 446 621.5L448 631.5L453.5 640L466.5 646L523.5 646Q525 643.5 530.5 645L543.5 640L559 626.5L560.5 624L565 620.5L573 608.5L577 596.5L577 592.5L579 589.5L579 576.5L583 571.5Q581.5 566 584 564.5L584 420.5L583 419.5L583 408.5L581 398.5L577 387.5L572.5 383L565.5 379L560.5 378L540.5 378L532.5 380L523 387.5Q522.7 393.7 519 396.5Q520.8 402.8 518 404.5L517 467.5L510.5 478L502.5 482L498.5 482Q495.2 477.4 489 477L489 473.5L484 465.5L484 410.5L483 409.5L483 397.5L479 388.5L474.5 383L468.5 379L463.5 378L442.5 378L435 380Q436.1 382.7 433.5 382L429 384L424 391.5L423 409.5L422 410.5L422 503.5L423 507Q426 505.8 425 509.5L428 523.5L433 533.5L448.5 552L461 560.5L451 562L444 573.5L443.5 587L443 565.5L438.5 561L432 555.5L422.5 545L415.5 543L411 547.5Q412.3 552.2 410 553.5L410 618.5Q407.7 619.8 409 624.5L405 635.5L397 647L383.5 655L373.5 658Q367.3 656.3 365.5 659L302.5 659L301.5 658L290.5 658L273.5 653Q257.9 646.1 248 633.5Q238.8 623.2 234 608.5L231 592.5L231 573.5L226.5 567L219.5 566L211.5 570L200.5 579L191.5 583L175.5 587L158.5 588Q148.5 590 144 597.5L141 607.5L141 624.5L140 629.5L135 642.5L128.5 650Q121.7 655.7 111.5 658L92.5 659L83.5 657L68 648L63 639.5L59 623.5L59 433.5L62 418.5L69 406.5L70 389.5L76.5 382L84.5 377ZM89 378L84 379L78 383L71 392L70 397L70 419L69 420L69 614L70 617L73 618Q72 630 78 638L82 641L95 646L106 646L117 642Q126 636 128 624Q126 617 130 618Q132 613 131 604L132 603L132 588L144 577L156 574L168 574L185 571L196 566L201 562L214 548Q218 542 227 540L233 541L238 549L239 572L240 577L243 581L243 592Q247 596 247 605L250 613L260 627Q268 635 280 641L292 645L303 645L304 646L366 646L378 643L383 640Q392 633 396 622L396 614L398 613L400 609L400 432L399 431L398 419L388 402L375 389L359 383L279 383L275 384L266 395Q263 403 265 416L264 417L265 427L268 432L270 445L273 450L280 456Q285 456 287 461L279 461L273 466L269 467L266 471L262 473L260 477L258 478L244 495Q244 502 239 505L237 522L227 514L230 508L229 456L227 446L227 434L226 433L225 420L221 414L218 405L210 394L204 389L194 384L182 382L180 380L171 378L89 378Z" fill="#000000" fillAlpha="0.1411765" stroke="#000000" strokeAlpha="0.1411765" stroke-width="1"/>
	<path d="M859.5 377L874.5 378L878.5 382L887.5 383L892.5 387L907.5 387Q912.5 381.3 923 382L925.5 378L940.5 377L940.5 378L928.5 379L922.5 383L918.5 383L907.5 388L892.5 388L884.5 384L875.5 382L871.5 379L859.5 378L859.5 377Z" fill="#000000" fillAlpha="0.1411765" stroke="#000000" strokeAlpha="0.1411765" stroke-width="1"/>
	<path d="M147.5 466Q159.3 467.3 164 475.5L161 477Q160.5 483.6 155.5 487L153.5 488L142.5 488L140 487L138.5 483L136 481.5Q134.2 470.7 140.5 468L147.5 466Z" fill="#000000" fillAlpha="0.1411765" stroke="#000000" strokeAlpha="0.1411765" stroke-width="1"/>
	<path d="M316.5 543Q331.2 541.3 336 549.5L331.5 562L321.5 567L317.5 566L310 560.5L310 555.5L308 549.5L309 547L316.5 543Z" fill="#000000" fillAlpha="0.1411765" stroke="#000000" strokeAlpha="0.1411765" stroke-width="1"/>
	<path d="M683.5 337L690.5 338L697 344.5L699 349.5L700 363.5L707.5 374Q709.8 373.3 709 375.5L718.5 379L728 387.5L731 394.5L732 439.5L724 452.5L719.5 457Q709.3 462.3 703 471.5L701 475.5L701 490.5L700 491.5L700 614.5L697.5 618L696 618.5L696 625.5Q693.6 635.6 686.5 641L674.5 646L662.5 646Q650.9 643.1 645 634.5L642 628.5L641 618L638 616.5L638 599.5L637 598.5L637 485.5L633 472.5L627.5 465L613 453.5L606 438.5L606 428L603 426.5L602 421.5L603 420.5L604 401.5L608 387.5L612.5 383L618.5 379L631.5 377Q635.3 373.3 642.5 373Q646.9 367.6 654 366L655 362L659 361L661.5 356L664 354.5Q667.3 346.3 674.5 342L683.5 337ZM685 340L678 343L661 362Q653 372 640 377L625 380L616 384L609 393L608 405L607 406L607 419L610 431L617 436Q626 438 633 443L638 451L640 460L640 604Q642 605 641 610L644 615L656 621L683 621L691 617L697 608L697 477L698 476L698 455L702 446L710 439L721 436Q726 432 729 425L729 401Q727 399 728 395L724 386L705 377L698 367L696 351L694 345L691 341L685 340Z" fill="#000000" fillAlpha="0.3058824" stroke="#000000" strokeAlpha="0.3058824" stroke-width="1"/>
	<path d="M853.5 377L871.5 379L875.5 382L884.5 384L892.5 388L907.5 388L915.5 384L922.5 383L928.5 379L940.5 378L941.5 377L950.5 377L951.5 378L962.5 379L968.5 383L971.5 383L982.5 389L990 395.5L991.5 398Q993.8 397.3 993 399.5L995 404L998 405.5L1004 415.5L1006 428.5L1009 434.5L1009 443.5L1010 444.5L1010 608.5L1006 613.5L1006 620.5L1001 634.5L994.5 641L982.5 646L972.5 646Q961.2 643.8 955 636.5Q948.5 628 948 613.5L944 606.5L944 484.5L943 483.5L943 473.5L937.5 468L931.5 465L925.5 465Q917.5 467.5 913 473.5L911 476.5L911 614.5L908.5 618L907 618.5L907 626.5Q904.5 635 898.5 640L890.5 645L874.5 646L862 640L855 629.5L853 623.5L853 618.5L849 611.5L849 485.5L848 484.5L848 474.5L843.5 470L837.5 466L830.5 465L822.5 468L818 472.5L816 475.5L816 607.5L814 615.5L811 618.5L810 629.5Q806.7 637.7 799.5 642L790.5 646L777.5 646Q766.2 643.8 760 636.5L757 631.5L754 621.5L754 613.5L750 609.5L749 605.5L749 453.5L748 452.5L748 427.5L749 426.5L749 415.5L750 414.5L751 400.5L755 388.5L758.5 384L766.5 379L771.5 378L795.5 378Q796.7 380.3 801.5 379L810.5 383L830.5 383L839.5 379L852.5 378L853.5 377ZM943 379L933 381L913 389L904 391L888 389L864 380L848 380L827 386L816 386L796 381L773 381L763 384L757 390L754 407L754 604L757 614Q761 619 770 621L797 621L806 617L809 614L812 603L812 461L814 451L817 445L827 438Q840 436 845 442L850 450L851 462L852 463L852 602L857 616L868 621L894 621L903 617L908 608L908 466L909 465L910 451L914 444L923 438L934 438L943 444L946 451L949 466L949 604L952 614Q956 619 965 621L991 621L998 618L1003 613L1005 606L1005 435L1002 420L992 402L990 400L988 398Q972 381 943 379Z" fill="#000000" fillAlpha="0.3058824" stroke="#000000" strokeAlpha="0.3058824" stroke-width="1"/>
	<path d="M88.5 378L170.5 378L179.5 380L181.5 382L193.5 384L203.5 389L210 394L218 404.5L221 413.5L225 419.5L226 432.5L227 433.5L227 445.5L229 455.5L230 507.5L227 513.5L236.5 522L239 504.5Q243.6 501.6 244 494.5L257.5 478L260 476.5L261.5 473L266 470.5L268.5 467L272.5 466L278.5 461L287 460.5Q285 456.4 279.5 456L273 449.5L270 444.5L268 431.5L265 426.5L264 416.5L265 415.5Q263.3 402.8 266 394.5L274.5 384L278.5 383L358.5 383L374.5 389L388 401.5L398 418.5L399 430.5L400 431.5L400 608.5L397.5 613L396 613.5L396 621.5Q391.6 633.1 382.5 640L377.5 643L365.5 646L303.5 646L302.5 645L291.5 645L279.5 641Q268.1 635.4 260 626.5L250 612.5L247 604.5Q246.8 596.2 243 591.5L243 580.5L240 576.5L239 571.5L238 548.5L232.5 541L226.5 540Q218.2 541.7 214 547.5L200.5 562L195.5 566L184.5 571L167.5 574L155.5 574L143.5 577L132 587.5L132 602.5L131 603.5Q132.1 613.1 130 618Q126 616.6 128 623.5Q125.8 636.3 116.5 642L105.5 646L94.5 646L81.5 641L78 637.5Q72.3 630.5 73 618L70 616.5L69 613.5L69 419.5L70 418.5L70 396.5L71 391.5L77.5 383L83.5 379L88.5 378ZM90 381L81 384L74 393L73 405L72 406L72 608L75 615Q79 619 86 621L113 621L123 617L128 609L129 604L129 570Q132 568 130 563L132 559L138 553L147 549L185 547L200 541L207 536L208 534L212 531L218 523L225 507L225 450L224 449L224 430Q220 410 209 398Q203 391 194 387L170 381L90 381ZM281 385L274 388L268 400L268 420L272 429Q277 434 286 435Q291 434 293 436L322 436L330 439L334 445L333 454Q329 459 322 461L288 463Q276 466 268 472Q255 483 246 498L243 511L244 572Q247 573 245 580L256 602Q263 610 274 615L287 618L290 620L303 620L304 621L366 621L367 620L376 620L389 615L397 602L397 429L394 418L388 406L373 391L360 386Q355 387 354 385L281 385Z" fill="#000000" fillAlpha="0.3058824" stroke="#000000" strokeAlpha="0.3058824" stroke-width="1"/>
	<path d="M442.5 378L463.5 378L468.5 379L477 385.5L483 397.5L483 409.5L484 410.5L484 465.5L489 473.5L489 477Q495.2 477.4 498.5 482L502.5 482L513 475.5L517 467.5L517 423.5L518 422.5L519 396.5Q522.7 393.7 523 387.5L526.5 384L534.5 379Q539.2 380.3 540.5 378L560.5 378Q571.6 379.9 577 387.5L582 402.5L583 419.5L584 420.5L584 564.5Q581.5 566 583 571.5L579 576.5L579 589.5L577 592.5L577 596.5L573 608.5L561.5 624L559 625.5L556.5 629L543.5 640L530.5 645Q525 643.5 523.5 646L466.5 646L456.5 642L452 638.5L447 628.5L446 618L443 616.5L444 573.5L451 562L461 560.5L454.5 557L442 545.5Q433 536.5 428 523.5L425 507Q422 508.3 423 504.5L422 503.5L422 410.5L423 409.5L424 391.5L429 384L435 382Q433.9 379.3 436.5 380L442.5 378ZM443 381L433 385L427 394L425 405L425 492L430 508L438 521L452 533L472 542L512 546Q517 548 517 556L511 562L495 563L494 564L482 563L481 562L459 564L452 568L446 578L446 611L448 615L459 621L529 621L547 615L561 605L573 589L576 581L578 563L579 562L579 418L578 417L578 399L575 390L570 384L560 381Q541 379 531 384Q524 388 522 398L521 464L517 476Q513 482 506 484Q493 486 489 480L485 477L481 466L480 401L477 390Q473 383 464 381L443 381Z" fill="#000000" fillAlpha="0.3058824" stroke="#000000" strokeAlpha="0.3058824" stroke-width="1"/>
	<path d="M142.5 439L153.5 439Q160.3 441.3 164 446.5L169 460.5L169 470.5L166 481.5L160.5 488Q154.7 492.7 142.5 491L134 485.5L130 478.5L129 458.5Q131.8 456.8 130 450.5L136.5 442L142.5 439ZM148 466L141 468Q134 471 136 482L139 483L140 487L143 488L154 488L156 487Q161 484 161 477L164 476Q159 467 148 466Z" fill="#000000" fillAlpha="0.3058824" stroke="#000000" strokeAlpha="0.3058824" stroke-width="1"/>
	<path d="M316.5 515Q328.6 513.4 334 518.5L338 523.5L340 531.5L340 552.5L338 559.5L332.5 566Q327.7 570.2 317.5 569Q308.9 566.6 305 559.5L303 554.5L303 529.5Q304.6 520.6 311.5 517L316.5 515ZM317 543L309 547L308 550L310 556L310 561L318 566L322 567L332 562L336 550Q331 541 317 543Z" fill="#000000" fillAlpha="0.3058824" stroke="#000000" strokeAlpha="0.3058824" stroke-width="1"/>
</svg>
