<svg width="192" height="192" fill="none" xmlns="http://www.w3.org/2000/svg"><path d="M90 126.341c-2.33.824-4 3.047-4 5.659v32a6 6 0 0 1-6 6H56a6 6 0 0 1-6-6V28a6 6 0 0 1 6-6h53c20.2 0 36 15.75 36 36v32c0 3.488-.467 6.84-1.342 10" stroke="#000" stroke-width="12" stroke-linecap="round" stroke-linejoin="round"/><path d="M109 82V66a8 8 0 0 0-8-8h-9a6 6 0 0 0-6 6v20a6 6 0 0 0 6 6h9a8 8 0 0 0 8-8Z" stroke="#000" stroke-width="12" stroke-linecap="round" stroke-linejoin="round"/><path d="m112 144.5 20.441-.001c3.331 0 6.525 1.344 8.881 3.735A12.85 12.85 0 0 1 145 157.25c0 3.381-1.323 6.624-3.678 9.015a12.463 12.463 0 0 1-8.881 3.735h-12.069c-4.624 0-8.372-3.806-8.372-8.5v-34c0-4.694 3.748-8.5 8.372-8.5h9.326c3.33 0 6.525 1.342 8.88 3.733a12.85 12.85 0 0 1 3.678 9.016 12.85 12.85 0 0 1-3.678 9.016 12.464 12.464 0 0 1-8.88 3.734" stroke="#000" stroke-width="12" stroke-miterlimit="6" stroke-linecap="round" stroke-linejoin="round"/></svg>