<svg xmlns="http://www.w3.org/2000/svg" width="160" height="160" fill="none" viewBox="0 0 160 160"><path fill="#000" d="M159.452 69.714c-1.458-4.153-5.416-7.134-10.05-7.134h-.105c-3.02 0-5.742 1.262-7.682 3.28a10.624 10.624 0 0 0-7.681-3.28h-.091c-2.657 0-5.091.976-6.953 2.577v-.807a1.565 1.565 0 0 0-1.562-1.458h-7.135c-.872 0-1.576.703-1.576 1.575v38.721c0 .872.704 1.575 1.576 1.575h7.135a1.562 1.562 0 0 0 1.549-1.354V75.612c0-.104 0-.182.013-.273.117-1.237 1.029-2.266 2.46-2.383h1.316c.599.052 1.106.26 1.497.586.625.495.963 1.25.963 2.083l.026 27.654c0 .872.704 1.589 1.576 1.589h7.135a1.562 1.562 0 0 0 1.562-1.498V75.6c0-.912.417-1.745 1.159-2.227.364-.234.807-.39 1.315-.443h1.315c1.55.13 2.473 1.302 2.473 2.67l.027 27.627c0 .872.703 1.575 1.575 1.575h7.135a1.58 1.58 0 0 0 1.575-1.47V73.033c-.039-1.705-.26-2.5-.547-3.32zm-48.277-6.718H107.1v-6.64a1.439 1.439 0 0 0-1.719-1.406c-4.517 1.237-3.619 7.5-11.874 8.033h-.794c-.117 0-.234.013-.351.04h-.013.013a1.605 1.605 0 0 0-1.224 1.549v7.134c0 .873.703 1.576 1.575 1.576h4.297l-.013 30.232c0 .859.703 1.562 1.562 1.562h7.057c.86 0 1.562-.703 1.562-1.562V73.282h3.997a1.59 1.59 0 0 0 1.576-1.576v-7.134c0-.873-.703-1.576-1.576-1.576Zm-25.649 0h-7.134a1.58 1.58 0 0 0-1.576 1.576v14.75a1.664 1.664 0 0 1-1.666 1.641h-2.982c-.924 0-1.68-.742-1.68-1.666l-.025-14.725c0-.873-.703-1.576-1.576-1.576h-7.135c-.872 0-1.575.703-1.575 1.576v16.157c0 6.132 4.375 10.52 10.52 10.52 0 0 4.609 0 4.752.026a1.653 1.653 0 0 1 1.471 1.654 1.66 1.66 0 0 1-1.458 1.653c-.039 0-.078.013-.117.026l-10.429.04c-.872 0-1.575.702-1.575 1.574v7.122c0 .873.703 1.576 1.575 1.576H76.57c6.145 0 10.52-4.375 10.52-10.507V64.572a1.553 1.553 0 0 0-1.563-1.576Zm-40.569.04h-9.895c-.872 0-1.588.663-1.588 1.47V71.2c0 .859.755 1.575 1.68 1.575h9.425c.743.117 1.328.664 1.42 1.51v.925c-.079.807-.664 1.393-1.38 1.458h-4.662c-6.21 0-10.624 4.127-10.624 9.908v8.293c0 5.755 3.802 9.843 9.96 9.843h12.929c2.318 0 4.205-1.757 4.205-3.919V73.737c0-6.561-3.385-10.702-11.47-10.702zm1.133 29.762v1.12c0 .091-.013.182-.026.26s-.04.157-.065.235c-.222.625-.847 1.08-1.589 1.08h-2.968c-.925 0-1.68-.703-1.68-1.575v-6.106c0-.86.755-1.563 1.68-1.563h2.968c.925 0 1.68.703 1.68 1.576zM17.134 62.983H1.549c-.859 0-1.549.703-1.549 1.55v38.746c0 .86.638 1.563 1.445 1.576H8.71c.872 0 1.576-.704 1.576-1.576l.026-10.832h6.822c5.703 0 9.687-3.958 9.687-9.7V72.696c0-5.729-3.984-9.713-9.687-9.713zm-.625 13.072v4.4c0 .925-.742 1.68-1.667 1.68h-4.517v-8.814h4.517c.925 0 1.667.742 1.667 1.666z"/></svg>