<svg width="192" height="192" fill="none" xmlns="http://www.w3.org/2000/svg"><path d="M27 28a6 6 0 0 1 6-6h100c17.673 0 32 14.327 32 32v58c0 17.673-14.327 32-32 32H96v20a6 6 0 0 1-6 6H59c-17.673 0-32-14.327-32-32V28Z" stroke="#000" stroke-width="12" stroke-linecap="round" stroke-linejoin="round"/><path d="M123 48H59a6 6 0 0 0-6 6v74c0 8.837 7.163 16 16 16h27v-20a6 6 0 0 1 6-6h21c8.837 0 16-7.163 16-16V64c0-8.837-7.163-16-16-16Z" stroke="#000" stroke-width="12" stroke-linecap="round" stroke-linejoin="round"/></svg>