<?xml version="1.0" encoding="utf-8"?>
	<svg version="1.1" xmlns="http://www.w3.org/2000/svg" xmlns:xlink="http://www.w3.org/1999/xlink" x="0px" y="0px" width="240.0" height="240.0" xml:space="preserve">
		<path d="M60,35.707C62.012,33.949 64.18,32.387 66.484,31L66.484,98.051C56.484,91 47.09,83.344 37.09,76.273C31.211,72.152 25.918,68.051 20.039,63.93C33.555,54.535 46.523,45.102 60.039,35.707L60,35.707ZM46.484,51.586C46.484,53.363 45.879,54.535 45.879,56.293C45.273,58.07 47.656,60.414 45.879,62.172C44.707,65.121 43.535,67.465 42.363,69.828C41.719,70.707 41.719,71.898 42.363,72.777C42.969,73.949 44.707,73.383 45.879,73.383C47.051,73.988 47.656,74.555 48.828,74.555C50,74.555 50.605,73.949 51.777,73.949C52.949,73.949 54.121,74.555 54.727,73.949C55.332,73.949 55.898,73.344 57.07,72.777L60,72.777C61.172,72.172 61.172,70.434 60.605,69.262C58.711,67.367 57.129,65.18 55.898,62.777C54.121,60.434 57.07,57.484 55.898,55.121C55.293,54.516 55.293,52.777 55.293,51.605L54.121,51.605C53.633,53.129 52.578,54.398 51.172,55.121C49.648,54.633 48.379,53.578 47.656,52.172C47.656,51.566 47.051,51.566 46.484,51.566L46.484,51.586L46.484,51.586ZM70,31.02C75.879,35.141 81.777,39.242 88.223,43.363L118.223,64.535C117.129,65.16 116.133,65.961 115.273,66.879C100.566,76.879 85.879,87.484 70.566,97.484C70,75.707 70,53.363 70,31.02ZM74.707,56.313C75.352,57.758 76.152,59.145 77.051,60.434C77.656,60.434 78.223,59.828 78.828,59.828L78.828,73.949C84.102,74.535 89.434,74.535 94.707,73.949C95,69.242 95,64.535 94.707,59.828C95.313,59.828 95.879,60.434 96.484,60.434C97.793,59.105 98.809,57.504 99.434,55.727C96.484,55.121 93.555,53.383 90.605,52.777C89.98,54.535 88.34,55.707 86.484,55.727C84.707,55.727 83.535,53.949 82.969,52.777C80.078,53.598 77.324,54.77 74.746,56.293L74.707,56.313L74.707,56.313ZM121.758,65.141C137.656,53.363 154.141,42.191 170,31.02L170,97.504C154.121,86.879 137.656,75.707 121.777,65.141L121.758,65.141ZM147.617,51.605C146.738,54.477 146.738,57.563 147.617,60.434C148.789,63.383 151.738,65.141 153.496,67.484C154.668,68.656 154.102,70.434 154.102,71.605C152.422,72.152 150.84,72.934 149.395,73.949L160,73.949C158.223,73.344 157.051,72.172 155.293,71.605C155.293,70.434 154.688,68.09 155.898,67.484C158.457,65.707 160.488,63.266 161.777,60.434C162.949,57.484 161.777,54.555 161.172,51.605L147.617,51.605ZM172.949,31.02L185.293,39.848C195.293,46.898 204.688,53.363 214.688,60.453L219.98,63.969C204.102,75.141 188.809,86.313 172.93,98.09L172.93,31.02L172.949,31.02ZM181.777,49.242C182.285,51.41 183.828,53.168 185.898,53.949L189.414,53.949C188.809,52.777 188.809,51 187.637,50.434C185.879,48.637 183.516,49.242 181.777,49.242ZM191.172,51.02C190.449,51.918 189.863,52.914 189.395,53.969C190.566,53.969 192.344,53.969 192.91,53.363C193.633,52.465 194.238,51.469 194.688,50.414C193.496,50.316 192.285,50.531 191.172,51.02ZM187.656,55.141C182.207,56.02 178.496,61.156 179.375,66.605C179.395,66.703 179.414,66.82 179.434,66.918C180.234,72.016 184.863,75.609 190,75.141C192.695,74.828 195.176,73.578 197.051,71.625C199.375,68.617 200.039,64.633 198.828,61.02C196.68,56.918 192.227,54.574 187.656,55.141L187.656,55.141ZM174.707,101.02C190,89.848 204.707,79.242 220,68.07L220,134.555C204.707,123.363 190,112.758 174.707,101.586C174.707,101.586 174.102,100.98 174.707,100.98L174.707,101.02L174.707,101.02ZM198.828,94.535C194.961,95.023 191.641,97.484 190,101.02C189.395,103.363 191.777,104.535 192.949,106.313C194.785,107.875 197.031,108.891 199.434,109.262C201.113,110.57 202.871,111.742 204.727,112.777C205.215,111.254 205.41,109.672 205.332,108.07C207.383,106.84 209.355,105.453 211.211,103.949C212.988,104.555 214.16,106.293 215.332,106.898C215.938,106.898 217.109,106.898 217.109,106.293C216.992,104.848 216.602,103.461 215.938,102.172C216.68,100.922 217.07,99.496 217.109,98.051C217.109,96.879 215.938,96.273 214.766,96.879C213.516,97.543 212.48,98.578 211.816,99.828C209.473,98.656 207.695,96.879 205.332,95.707L205.332,91C202.383,91 200.625,93.344 198.848,94.516L198.828,94.535L198.828,94.535ZM20,68.656C35.293,79.828 50,90.434 65.293,101.605C65.898,101.605 65.293,102.211 65.293,102.211C50,112.777 35.293,123.969 20,134.535L20,68.656ZM33.516,91.605C33.066,92.66 32.461,93.656 31.738,94.555C31.172,95.277 30.313,95.707 29.395,95.727C27.813,97.016 26.934,98.969 27.051,101C26.465,102.914 26.465,104.965 27.051,106.879C27.227,108.656 28.789,109.965 30.566,109.828L44.082,109.828C45.176,109.809 46.23,109.398 47.031,108.656C48.203,107.484 47.637,105.141 47.637,103.363C47.402,100.941 46.797,98.559 45.859,96.313C44.648,95.59 43.457,94.809 42.344,93.969C41.797,91.957 40.234,90.375 38.223,89.848C36.504,89.887 34.863,90.512 33.516,91.605ZM101.758,87.484C104.102,84.535 104.707,81 106.465,78.09C108.086,80.922 109.453,83.871 110.586,86.918C111.758,86.918 112.93,87.523 114.707,87.523L114.707,91.02C116.484,90.414 118.223,90.414 120.586,89.848C119.414,85.727 117.637,81.625 116.465,78.07C120.586,79.848 124.121,81.02 127.637,82.777C126.465,85.121 125.859,88.07 124.688,91C126.465,90.395 128.203,90.395 129.395,89.828C130,89.828 130,89.223 130.566,88.656C132.188,85.219 133.574,81.684 134.688,78.051C137.637,79.828 139.98,82.172 142.91,83.93L141.133,85.707C139.355,87.484 137.012,88.656 135.254,90.414L142.91,90.414C143.516,92.191 144.082,94.535 144.688,96.293L140.02,96.293C139.414,98.637 138.848,101 138.242,103.949C140.469,104.262 142.637,104.867 144.727,105.727C145.859,107.523 146.66,109.516 147.07,111.605C144.727,112.211 141.777,112.211 139.414,112.777L137.637,125.121C136.406,126.293 135.02,127.289 133.516,128.07C132.344,122.777 131.738,117.465 130.566,112.191C128.77,112.289 126.992,112.074 125.273,111.586C124.102,115.707 123.496,120.414 122.324,124.535C121.152,126.313 119.375,126.313 117.617,127.484C117.715,122.387 117.52,117.27 117.012,112.191C115.801,112.27 114.59,112.074 113.496,111.586C112.891,109.809 112.324,108.637 111.719,106.879C109.375,109.223 109.941,112.758 109.375,115.707C108.77,119.828 108.203,123.93 107.598,127.484C104.316,125.316 101.191,122.973 98.203,120.434C99.98,119.828 102.324,119.262 104.082,118.656C103.477,115.707 103.477,112.777 102.91,109.828C101.738,110.434 100.566,111.605 99.395,112.172C98.223,109.223 97.617,105.688 96.445,102.777C98.652,102.719 100.84,102.328 102.93,101.605C102.93,99.262 102.324,97.484 102.324,95.121C101.719,95.121 101.152,94.516 100.547,94.516C99.238,92.641 98.066,90.668 97.031,88.637C98.672,88.598 100.273,88.188 101.738,87.465L101.758,87.484L101.758,87.484ZM109.395,102.191L115.273,102.191L113.496,105.707L118.789,103.93C118.184,102.152 118.184,99.809 117.617,98.051C116.445,97.445 115.273,97.445 114.102,96.879C112.93,95.707 112.93,94.535 112.324,93.363C109.98,95.141 109.98,98.656 109.375,102.191L109.395,102.191L109.395,102.191ZM126.445,97.484C125.84,99.828 125.84,102.191 125.273,104.535C127.617,103.93 129.395,103.93 131.758,103.363C131.758,101.02 131.152,98.656 131.152,96.879C129.551,96.801 127.969,96.996 126.445,97.484L126.445,97.484ZM36.445,91.605C38.223,91 39.961,92.777 40.566,94.555L33.516,94.555C34.688,93.383 35.293,92.211 36.465,91.605L36.445,91.605ZM124.121,138.656L170,105.141L170,172.191L155.879,161.586C145.273,153.93 134.707,145.707 124.102,138.637L124.121,138.656L124.121,138.656ZM151.777,125.141C151.172,126.313 151.172,128.09 150.605,129.262C151.777,128.656 152.949,128.656 154.121,128.09C156.152,127.621 158.301,128.051 160,129.262C159.395,128.09 159.395,126.313 158.828,125.141L151.777,125.141ZM152.949,130.434C150.566,131.137 148.633,132.855 147.656,135.141C146.719,138.539 148.164,142.152 151.172,143.969C154.043,145.648 157.676,145.16 160,142.797C162.949,140.316 163.34,135.922 160.859,132.973C160.156,132.113 159.238,131.449 158.223,131.02C156.445,129.848 154.707,130.414 152.93,130.414L152.949,130.434L152.949,130.434ZM150.605,145.727C151.211,146.898 151.211,148.676 151.777,149.848L158.262,149.848C158.73,148.5 159.121,147.113 159.434,145.727C157.07,147.504 153.555,146.918 150.605,145.727ZM172.949,104.555C188.828,115.707 204.121,126.313 220,137.484L195.293,155.141C188.242,160.434 180.586,165.746 173.516,171.02C172.93,149.242 172.93,126.879 172.93,104.535L172.949,104.555L172.949,104.555ZM188.242,123.383L188.242,128.09L190,128.09C190.605,126.918 190,126.313 190,125.141C191.172,123.363 188.828,123.969 188.223,123.363L188.242,123.383ZM181.777,123.988L181.777,128.109C182.383,128.109 182.949,128.715 183.555,128.715C182.949,126.938 184.727,124.008 181.777,124.008L181.777,123.988ZM195.293,123.988C194.688,125.16 195.293,126.332 195.293,127.504C195.293,128.109 197.07,128.109 197.07,127.504C197.676,126.332 197.07,125.16 197.07,123.988L195.293,123.988ZM180,130.414L180,147.465C180,148.07 181.172,148.637 181.777,148.637L195.293,148.637C196.465,148.637 197.637,149.242 198.242,148.031C198.73,146.918 198.926,145.707 198.848,144.516C200.02,143.91 200.625,143.91 201.797,143.344C203.652,141.996 204.16,139.438 202.969,137.465C201.797,135.961 200.137,134.906 198.262,134.516L198.262,130.414L180,130.414L180,130.414ZM20,137.484C35.293,126.879 50.605,115.707 66.484,105.141L66.484,171.605C57.09,165.121 48.262,158.09 38.828,151C32.344,146.313 25.879,142.191 20,137.484ZM58.828,126.313C57.656,128.09 55.879,129.262 55.313,131.02C53.535,133.969 52.969,137.504 50.605,140.414C47.09,141.586 42.383,141.586 39.434,145.121C42.871,147.504 47.227,148.148 51.211,146.898C53.555,146.293 54.16,143.949 54.727,142.191C54.98,139.945 56.016,137.855 57.676,136.313C58.281,135.707 58.848,136.918 58.848,137.484L58.848,147.484L60,147.484C60,143.969 59.395,139.828 61.172,136.313C62.168,134.535 62.578,132.465 62.344,130.434C61.68,128.695 60.43,127.25 58.828,126.313ZM70,105.141C79.395,111.625 88.223,118.09 97.051,125.141C102.93,129.848 109.395,133.969 115.273,138.656C100,149.828 84.707,161.02 70,172.191L70,105.141ZM82.949,126.918C81.777,127.523 81.777,128.695 80.605,129.262C79.023,129.164 77.422,129.379 75.898,129.867C75.293,129.867 74.727,131.039 74.727,131.645L74.727,145.16C74.727,146.332 76.504,146.332 77.07,146.332L96.465,146.332C97.637,146.332 97.637,145.16 97.637,143.988L97.637,130.414C96.035,129.477 94.18,129.066 92.344,129.242C91.641,128.148 90.605,127.328 89.395,126.898L82.949,126.918L82.949,126.918ZM71.777,174.535C87.656,163.363 102.949,152.191 118.828,141.586L118.828,176.879C119.434,187.484 118.828,198.051 118.828,208.051C107.656,200.395 97.051,192.172 85.879,184.535C81.172,181.02 75.879,177.484 71.758,174.535L71.777,174.535ZM101.172,161.664L103.516,161.664C102.91,161.018 102.91,160.414 102.344,160.414L101.172,161.664ZM92.949,166.879C91.426,169.047 90.234,171.41 89.434,173.93C90.039,173.93 91.211,173.324 91.777,173.324C93.555,173.324 95.293,173.93 96.484,173.324C97.793,172.738 99.297,172.738 100.605,173.324C100.703,176.488 100.508,179.652 100,182.777C100,183.949 98.223,183.949 97.656,183.949L95.879,180.434C95.273,181.039 94.707,181.039 94.707,181.605C94.453,183.676 95.684,185.629 97.656,186.313C99.863,186.996 102.227,185.746 102.91,183.539L102.969,183.363L102.969,173.363C104.746,172.973 106.621,173.188 108.262,173.969C110.371,173.383 112.617,173.383 114.746,173.969C114.375,171.586 113.359,169.34 111.797,167.484C110.684,166.176 109.258,165.16 107.676,164.535C102.949,161.117 96.367,162.172 92.949,166.879L92.949,166.879ZM121.777,141.605C137.656,152.777 152.949,163.383 168.828,174.555C153.535,185.727 137.656,197.504 122.344,208.676C121.758,185.727 121.758,163.383 121.758,141.645L121.777,141.605ZM137.07,160.434C136.465,161.039 136.465,162.211 135.293,162.211C133.516,163.383 131.777,165.16 130,166.332C130.684,166.801 131.523,167.016 132.344,166.938L145.293,166.938C144.121,165.16 142.344,164.594 141.172,163.422C139.395,162.25 138.223,161.078 137.051,160.473L137.07,160.434L137.07,160.434ZM130,169.242L130,181.586C130,182.191 130,183.363 131.172,183.363L144.688,183.363C145.176,181.645 145.371,179.848 145.293,178.07L145.293,169.242C145.293,168.637 144.121,168.637 143.516,168.637C139.004,168.52 134.492,168.715 130,169.242Z" fill="#000" stroke="#00000000" stroke-width="1.0" stroke-miterlimit=""/>
	</svg>
