<svg xmlns="http://www.w3.org/2000/svg" width="192" height="192" fill="none" viewBox="0 0 192 192"><path stroke="#000" stroke-linecap="round" stroke-linejoin="round" stroke-width="10" d="M129 123h15m-53-22v36m53-36h-9a6 6 0 0 0-6 6v30m-75-14h14a6 6 0 0 0 6-6v-10a6 6 0 0 0-6-6h-8a6 6 0 0 0-6 6v30m37-36h14a6 6 0 0 1 6 6v24a6 6 0 0 1-6 6H91"/><path stroke="#000" stroke-linecap="round" stroke-linejoin="round" stroke-width="12" d="M25 59v102a6 6 0 0 0 6 6h102m34-30V31a6 6 0 0 0-6-6H61a6 6 0 0 0-6 6v48"/></svg>