<svg width="192" height="192" viewBox="0 0 192 192" fill="none" xmlns="http://www.w3.org/2000/svg"><path d="M124.114 43.774 87.246 25.613a5.939 5.939 0 0 0-7.85 2.5L28.71 122.086c-1.6 2.965-.396 6.66 2.644 8.124l75.218 36.201c2.89 1.39 6.364.238 7.842-2.601l24.526-47.123m-14.825-72.913 36.582 18.02a5.903 5.903 0 0 1 2.636 8.023l-24.393 46.87m-14.825-72.913 14.825 72.913" stroke="#000" stroke-width="12" stroke-linecap="round" stroke-linejoin="round"/><path d="M109 73 86 61m25 35L77 78m34 41L67 96" stroke="#000" stroke-width="10" stroke-linecap="round" stroke-linejoin="round"/><path d="M25 49V31a6 6 0 0 1 6-6h18M25 151v10a6 6 0 0 0 6 6h18M167 42V31a6 6 0 0 0-6-6h-18m24 118v18a6 6 0 0 1-6 6h-18" stroke="#000" stroke-width="12" stroke-linecap="round" stroke-linejoin="round"/></svg>