<svg xmlns="http://www.w3.org/2000/svg" width="192" height="192" viewBox="0 0 50.8 50.8"><path fill="none" stroke="#000" stroke-linecap="round" stroke-linejoin="round" stroke-width="2.117" d="m37.733 13.507 3.126 9.854 3.147-6.008c.127-.244-.029-.576-.35-.744zM21.867 5.292c-.196-.002-.367.079-.447.23L6.794 33.447c-.127.244.029.576.35.744l21.424 11.222c.322.168.684.108.812-.136l9.215-17.594-5.22-16.458-11.143-5.837a.8.8 0 0 0-.365-.095zm-3.695 38.323H7.634v-8.977M18.172 6.434H7.634v8.977m25.589 28.204H43.76v-8.977M34.315 6.434h9.445v7.494m-23.16-.922 12.383 6.587m-14.801-1.986 16.605 8.833m-19.028-4.223 17.342 9.225"/></svg>