<svg width="192" height="192" viewBox="0 0 192 192" fill="none" xmlns="http://www.w3.org/2000/svg"><path d="M130 123h15m0-22h-9a6.003 6.003 0 0 0-4.243 1.757A6.003 6.003 0 0 0 130 107v30m-76-14h14a6 6 0 0 0 6-6v-10a6.002 6.002 0 0 0-6-6h-8a6 6 0 0 0-6 6v30m38-36v36h14a6.003 6.003 0 0 0 4.243-1.757A6.003 6.003 0 0 0 112 131v-24a6.003 6.003 0 0 0-1.757-4.243A6.003 6.003 0 0 0 106 101H92Z" stroke="#000" stroke-width="10" stroke-linecap="round" stroke-linejoin="round"/><path d="M25 59v102a6.002 6.002 0 0 0 6 6h102m34-30V31a6 6 0 0 0-6-6H61a6 6 0 0 0-6 6v48" stroke="#000" stroke-width="12" stroke-linecap="round" stroke-linejoin="round"/></svg>