<svg xmlns="http://www.w3.org/2000/svg" width="192" height="192" fill="none" stroke="#000" stroke-linecap="round" stroke-linejoin="round" viewBox="0 0 192 192"><path stroke-width="12" d="M48 68.5a31.5 31.5 0 1 1 47.25 27.28L60 112m-12 44V68"/><path stroke-width="10" d="M145 26a4.998 4.998 0 1 1-10 0 4.998 4.998 0 1 1 10 0m0 28a4.998 4.998 0 1 1-10 0 4.998 4.998 0 1 1 10 0m0 28a4.998 4.998 0 1 1-10 0 4.998 4.998 0 1 1 10 0m0 28a5.005 5.005 0 0 1-8.536 3.536 5.005 5.005 0 0 1 0-7.072A5.005 5.005 0 0 1 145 110m0 28a5.005 5.005 0 0 1-8.536 3.536 5.005 5.005 0 0 1 0-7.072A5.005 5.005 0 0 1 145 138m0 28a5.005 5.005 0 0 1-8.536 3.536 5.005 5.005 0 0 1 0-7.072A5.005 5.005 0 0 1 145 166"/></svg>