<svg width="192" height="192" viewBox="0 0 192 192" fill="none" xmlns="http://www.w3.org/2000/svg"><path d="m40 96-18 73m18-73h79M40 60h79M22 42v-9a6 6 0 0 1 6-6h91m0 102H64.863l-8.738 35.436A6 6 0 0 1 50.3 169H22m97-40a50.996 50.996 0 0 0 36.062-14.938 50.996 50.996 0 0 0 0-72.124A50.998 50.998 0 0 0 119 27" stroke="#000" stroke-width="12" stroke-linecap="round" stroke-linejoin="round"/><path d="M119 96a18 18 0 0 0 0-36M22 42a18 18 0 0 0 18 18" stroke="#000" stroke-width="12" stroke-linecap="round" stroke-linejoin="round"/></svg>