<svg xmlns="http://www.w3.org/2000/svg" width="192" height="192" fill="none"><path stroke="#000" stroke-linecap="round" stroke-linejoin="round" stroke-width="12" d="M97 22C87 50 56 86 56 86m87-64s-40 68-40 82m14 15-12 8m26 7-12 8"/><path stroke="#000" stroke-linecap="round" stroke-linejoin="round" stroke-width="12" d="M104 106c-23-6-37 14-50-24l-25.65 30.78c-2.31 2.772-1.688 6.923 1.363 8.847C48.431 133.433 107.421 170 120 170h34.918c6.121 0 11.082-4.961 11.082-11.082 0-5.646-4.307-10.279-9.799-11.594C121.77 139.08 125.173 111.523 104 106"/></svg>