<svg width="192" height="192" fill="none" xmlns="http://www.w3.org/2000/svg"><path d="M62 112.966C62 126.24 72.985 137 86.535 137c11.049 0 20.391-7.153 23.465-16.989a21.682 21.682 0 0 1-7.463 1.315c-11.783 0-21.335-9.357-21.335-20.9 0-4.217 1.275-8.142 3.468-11.426C71.99 89.934 62 100.307 62 112.966ZM170 77V61a6 6 0 0 0-6-6h-28a6 6 0 0 0-6 6v71m40-21v20a6 6 0 0 1-6 6h-31.026a6 6 0 0 1-4.775-2.366L84.897 77.736a14.218 14.218 0 0 1-2.777-10.448 14.157 14.157 0 0 1 5.364-9.367 13.933 13.933 0 0 1 10.363-2.8 13.992 13.992 0 0 1 9.291 5.408L110 64.335M22 137v-28m0 0V61a6 6 0 0 1 6-6h28a6 6 0 0 1 6 6v42a6 6 0 0 1-6 6H22Z" stroke="#000" stroke-width="12" stroke-linecap="round" stroke-linejoin="round"/></svg>