<svg xmlns="http://www.w3.org/2000/svg" width="192" height="192" fill="none"><path stroke="#000" stroke-linecap="round" stroke-linejoin="round" stroke-width="12" d="M90.824 115.319a20.01 20.01 0 0 0 20.213-6.132 20 20 0 0 0 3.441-20.84 20.01 20.01 0 0 0-17.17-12.304A20 20 0 0 0 78.68 86"/><path stroke="#000" stroke-linecap="round" stroke-linejoin="round" stroke-width="12" d="m78.68 86-22.44 38.644m0 0C65.138 136.975 79.632 145 96 145c27.062 0 49-21.938 49-49s-21.938-49-49-49-49 21.938-49 49a48.78 48.78 0 0 0 9.24 28.644M138 22l-16 28m-52 92-16 28"/></svg>