<svg xmlns="http://www.w3.org/2000/svg" width="192" height="192" fill="none" stroke="#000" stroke-linecap="round" stroke-linejoin="round" stroke-width="12" viewBox="0 0 192 192"><path d="M22 48c4.333 3.667 10.4 13.6 0 24l10 48c23.5-13.5 40-16 40 24.5m24-.5c-.468-7.325-.06-12.318-3.685-21.928-.42-1.112.179-2.37 1.313-2.727 4.753-1.498 8.054-2.328 20.95 3.953.835.407 1.836.191 2.474-.483C127.244 112.037 144.585 113.092 147 144"/><path d="M170 144s-3.426-17.984-5.522-26.215c-.298-1.171-.258-2.397.062-3.563 6.327-23.083-12.689-49.094-50.084-50.186a6.53 6.53 0 0 1-4.23-1.722C89.923 43.537 71.323 44.34 48 56"/></svg>