<svg xmlns="http://www.w3.org/2000/svg" width="192" height="192" fill="none"><path stroke="#000" stroke-linejoin="round" stroke-width="12" d="M120.667 145.825c0 13.35-10.823 24.173-24.174 24.173S72.32 159.175 72.32 145.825a24.1 24.1 0 0 1 7.08-17.093l17.093-17.093 17.093 17.093a24.1 24.1 0 0 1 7.081 17.093ZM120.667 46.173c0-13.35-10.823-24.173-24.174-24.173S72.32 32.823 72.32 46.173a24.1 24.1 0 0 0 7.08 17.094L96.493 80.36l17.093-17.093a24.1 24.1 0 0 0 7.081-17.094ZM145.827 120.667c13.35 0 24.173-10.823 24.173-24.174S159.177 72.32 145.827 72.32a24.1 24.1 0 0 0-17.093 7.08L111.64 96.493l17.094 17.093a24.1 24.1 0 0 0 17.093 7.081ZM46.173 120.667C32.823 120.667 22 109.844 22 96.493S32.823 72.32 46.173 72.32a24.1 24.1 0 0 1 17.094 7.08L80.36 96.493l-17.093 17.093a24.1 24.1 0 0 1-17.094 7.081Z"/></svg>