<svg xmlns="http://www.w3.org/2000/svg" viewBox="0 0 192 192"><path d="M52.62 96c0-27.02 18.42-49.73 43.38-56.28a58.315 58.315 0 0 0-14.81-1.91C49.05 37.81 23 63.86 23 96s26.05 58.19 58.19 58.19c5.12 0 10.08-.67 14.81-1.91-24.96-6.55-43.38-29.26-43.38-56.28Zm58.19-58.19c-5.12 0-10.08.67-14.81 1.91 24.96 6.55 43.38 29.26 43.38 56.28S120.96 145.73 96 152.28c4.73 1.24 9.69 1.91 14.81 1.91 32.14 0 58.19-26.05 58.19-58.19s-26.05-58.19-58.19-58.19Z" style="fill:none;stroke:#000;stroke-linecap:round;stroke-linejoin:round;stroke-width:12px"/></svg>