<svg width="192" height="192" viewBox="0 0 192 192" fill="none" xmlns="http://www.w3.org/2000/svg"><path d="M55.732 162c27.39-52.8 11.377-50.769-1.37-73.108C42.754 68.55 54.362 30 88.6 30 129 30 129 68.585 129 71.97c-1.542 53.669-40.4 88.676-73.268 90.03Z" stroke="#000" stroke-width="12" stroke-linejoin="round"/><path d="M170 60.27c0 6.15-5.074 11.27-11.5 11.27S147 66.42 147 60.27c0-6.15 5.074-11.27 11.5-11.27S170 54.12 170 60.27Zm0 40.46c0 6.15-5.074 11.27-11.5 11.27s-11.5-5.12-11.5-11.27c0-6.15 5.074-11.27 11.5-11.27s11.5 5.12 11.5 11.27Z" stroke="#000" stroke-width="12"/></svg>
