<svg width="192" height="192" viewBox="0 0 192 192" fill="none" xmlns="http://www.w3.org/2000/svg"><circle cx="67" cy="104" r="17" stroke="#000" stroke-width="12" stroke-linecap="round" stroke-linejoin="round"/><circle cx="125" cy="104" r="17" stroke="#000" stroke-width="12" stroke-linecap="round" stroke-linejoin="round"/><path d="M157.5 70.65a25.002 25.002 0 0 0 1.116-42.617 25 25 0 0 0-38.479 18.354m-48.232.434A25 25 0 1 0 34.124 70.43" stroke="#000" stroke-width="12" stroke-linecap="round" stroke-linejoin="round"/><path d="M167 103c0-15.383-7.48-30.135-20.795-41.012C132.89 51.11 114.83 45 96 45s-36.89 6.11-50.205 16.988C32.48 72.865 25 87.618 25 103m0 0v35c0 15.464 12.536 28 28 28h86c15.464 0 28-12.536 28-28v-35m-117 1v24m92-24v24" stroke="#000" stroke-width="12" stroke-linecap="round" stroke-linejoin="round"/></svg>