<svg width="192" height="192" viewBox="0 0 192 192" fill="none" xmlns="http://www.w3.org/2000/svg"><path d="M96 51c-31.135 0-53.014-6.311-64.545-10.746C27.145 38.596 22 41.77 22 46.389v99.223c0 4.617 5.145 7.792 9.455 6.134C42.985 147.311 64.865 141 96 141c31.135 0 53.014 6.311 64.545 10.746 4.31 1.658 9.455-1.517 9.455-6.134V46.388c0-4.617-5.145-7.792-9.455-6.134C149.014 44.689 127.135 51 96 51Z" stroke="#000" stroke-width="12" stroke-linecap="round" stroke-linejoin="round"/><path d="M96 110.758c-29.838 0-46 4.242-46 4.242l23.561-29.03 15.707 17.939L112.83 77 142 115s-16.162-4.242-46-4.242Z" stroke="#000" stroke-width="12" stroke-linecap="round" stroke-linejoin="round"/></svg>