<svg xmlns="http://www.w3.org/2000/svg" width="192" height="192" fill="none" xmlns:v="https://vecta.io/nano"><path d="M78 64.823L56.503 52.412c-8.609-4.97-19.618-2.021-24.588 6.589s-2.021 19.618 6.589 24.588L60 96l-21.498 12.412c-8.609 4.97-11.559 15.979-6.588 24.588s15.979 11.559 24.589 6.589L78 127.177m0-62.354V40c0-9.941 8.059-18 18-18s18 8.059 18 18v24.823m-36 0l18 10.392m0 0l18 10.392L132 96M96 75.215l18-10.392m-18 51.962l18-10.393L132 96m-36 20.785l-18 10.392m18-10.392l18 10.392m-36 0V152c0 9.941 8.059 18 18 18s18-8.059 18-18v-24.823m0 0l21.497 12.411c8.61 4.971 19.618 2.021 24.589-6.588s2.021-19.618-6.589-24.588L132 96m-18-31.177l21.497-12.412c8.61-4.971 19.618-2.021 24.589 6.589s2.021 19.618-6.589 24.588L132 96" stroke="#000" stroke-width="12"/></svg>