<svg xmlns="http://www.w3.org/2000/svg" width="192" height="192" fill="none" viewBox="0 0 192 192"><circle cx="96" cy="86" r="5" stroke="#000" stroke-linejoin="round" stroke-width="10"/><path stroke="#000" stroke-linecap="round" stroke-linejoin="round" stroke-width="12" d="M65.09 94.28C69.09 110 96 138 96 138m30.91-43.72C122.91 110 96 138 96 138"/><path stroke="#000" stroke-linecap="round" stroke-linejoin="round" stroke-width="12" d="M126.91 94.282a32 32 0 1 0-61.82 0"/><path stroke="#000" stroke-linecap="round" stroke-linejoin="round" stroke-width="10" d="M166 79s-18-10-41-4m41 64.5S148 117 116 118M66 96c-8 3-33 3-40-6m52 30c-22 17-52 4.5-52 4.5"/><rect width="142" height="142" x="25" y="25" stroke="#000" stroke-linecap="round" stroke-linejoin="round" stroke-width="12" rx="6"/></svg>