<svg width="192" height="192" viewBox="0 0 192 192" fill="none" xmlns="http://www.w3.org/2000/svg"><path d="M162 88A66.002 66.002 0 0 0 49.331 41.33 66 66 0 0 0 30 88m0 0v82m132-82v82m-132 0s10-10 33-10 33 10 33 10 10-10 33-10 33 10 33 10m-46.947-51A22.008 22.008 0 0 1 85 127.053 22.005 22.005 0 0 1 76.947 119" stroke="#000" stroke-width="12" stroke-linecap="round" stroke-linejoin="round"/><circle cx="68" cy="82" r="6" stroke="#000" stroke-width="12" stroke-linecap="round" stroke-linejoin="round"/><circle cx="124" cy="82" r="6" stroke="#000" stroke-width="12" stroke-linecap="round" stroke-linejoin="round"/></svg>