<svg width="192" height="192" fill="none" xmlns="http://www.w3.org/2000/svg"><path d="M67.814 76.656c.74-2.215 2.667-3.85 4.983-4.152L92 70c27-5 15-52 39-46 23 8-16 41 5 40l21.6-3.086a6 6 0 0 1 6.835 5.536L170 149c0 6 0 18-45 18-93 0-103-16-103-16s28.644-22.915 45.814-74.344Z" stroke="#000" stroke-width="12" stroke-linecap="round" stroke-linejoin="round"/><path d="M163 84 60 99m109 50c0-6-10-23-55-6s-88 11-88 11" stroke="#000" stroke-width="10" stroke-linecap="round" stroke-linejoin="round"/></svg>