<svg width="192" height="192" fill="none" xmlns="http://www.w3.org/2000/svg"><path d="M92.034 170 22.947 62.028c-2.313-3.614-.172-8.408 4.07-9.113L90.5 42.366m79.5 66.468-17.5-24.991M132 22l-18.144 19.958a6.002 6.002 0 0 0-1.514 4.78l1.433 11.46a6.006 6.006 0 0 1-.587 3.427L106 76l13.4-8.04a6.002 6.002 0 0 1 3.462-.844l11.491.719a6 6 0 0 0 4.551-1.681L170 36" stroke="#000" stroke-width="12" stroke-linecap="round" stroke-linejoin="round"/><path d="M105 77c-19 59 10 78 10 78" stroke="#000" stroke-width="10" stroke-linecap="round" stroke-linejoin="round"/></svg>