<?xml version="1.0" encoding="UTF-8" standalone="no"?>
<svg
   viewBox="0 0 64 64"
   width="24px"
   height="24px"
   version="1.1"
   id="svg16"
   sodipodi:docname="phone info.svg"
   inkscape:version="1.1.1 (3bf5ae0d25, 2021-09-20)"
   xmlns:inkscape="http://www.inkscape.org/namespaces/inkscape"
   xmlns:sodipodi="http://sodipodi.sourceforge.net/DTD/sodipodi-0.dtd"
   xmlns="http://www.w3.org/2000/svg"
   xmlns:svg="http://www.w3.org/2000/svg">
  <defs
     id="defs20" />
  <sodipodi:namedview
     id="namedview18"
     pagecolor="#ffffff"
     bordercolor="#666666"
     borderopacity="1.0"
     inkscape:pageshadow="2"
     inkscape:pageopacity="0.0"
     inkscape:pagecheckerboard="0"
     showgrid="false"
     inkscape:zoom="11.313709"
     inkscape:cx="5.2591067"
     inkscape:cy="24.174213"
     inkscape:window-width="1920"
     inkscape:window-height="1009"
     inkscape:window-x="-8"
     inkscape:window-y="-8"
     inkscape:window-maximized="1"
     inkscape:current-layer="svg16"
     showguides="true" />
  <linearGradient
     id="AQp1CkUOovhRSREXJZOJma"
     x1="32.005"
     x2="32.005"
     y1="17"
     y2="53"
     gradientUnits="userSpaceOnUse"
     spreadMethod="reflect">
    <stop
       offset="0"
       stop-color="#1a6dff"
       id="stop2" />
    <stop
       offset="1"
       stop-color="#c822ff"
       id="stop4" />
  </linearGradient>
  <linearGradient
     id="AQp1CkUOovhRSREXJZOJmb"
     x1="29.93"
     x2="29.93"
     y1="19"
     y2="41.8"
     gradientUnits="userSpaceOnUse"
     spreadMethod="reflect">
    <stop
       offset="0"
       stop-color="#6dc7ff"
       id="stop9" />
    <stop
       offset="1"
       stop-color="#e6abff"
       id="stop11" />
  </linearGradient>
  <path
     id="path2076"
     style="fill:#000000;stroke-width:38.4"
     d="m 41.739455,5.3333554 c -0.160789,-0.0016 -0.317311,0.083944 -0.401042,0.239584 l -2.286458,4.2499998 c -0.02427,-0.01048 -0.04858,-0.02091 -0.07292,-0.03125 -1.908076,-0.8596633 -3.992849,-1.3061463 -6.104164,-1.3072921 -2.137936,0.00621 -4.247117,0.4689762 -6.171874,1.3541671 L 24.41133,5.5781469 C 24.289863,5.3523789 24.015866,5.2707114 23.796746,5.3958562 23.577653,5.5210029 23.498213,5.8002965 23.619653,6.0260645 l 2.276042,4.2291665 c -4.089115,2.225474 -6.760851,6.226255 -7.140627,10.692707 0.322883,0.330792 0.602552,0.707059 0.84375,1.104168 H 47.150914 C 47.145114,17.150054 44.362253,12.63143 39.869663,10.229189 L 42.13008,6.0260637 c 0.121792,-0.2263867 0.04264,-0.5099256 -0.177083,-0.6354165 -0.0687,-0.039211 -0.140461,-0.056571 -0.213542,-0.057292 z M 26.281122,14.208355 c 0.651891,0 1.192709,0.55745 1.192709,1.229167 0,0.671714 -0.540818,1.229167 -1.192709,1.229167 -0.651901,0 -1.192709,-0.557453 -1.192709,-1.229167 0,-0.671717 0.540808,-1.229167 1.192709,-1.229167 z m 13.182291,0 c 0.651901,0 1.192709,0.55745 1.192709,1.229167 0,0.671714 -0.540808,1.229167 -1.192709,1.229167 -0.65189,0 -1.192708,-0.557453 -1.192708,-1.229167 0,-0.671717 0.540818,-1.229167 1.192708,-1.229167 z m -24.875001,7.63021 c -1.783602,2.67e-4 -3.229319,1.490288 -3.229165,3.328123 -1.54e-4,1.837837 1.44556,3.327858 3.229165,3.328125 1.783606,-2.67e-4 3.229323,-1.490288 3.229168,-3.328125 1.55e-4,-1.837838 -1.445562,-3.327856 -3.229168,-3.328123 z m 36.958335,0.817707 c -1.777385,0 -3.208333,1.475864 -3.208334,3.30729 v 13.713545 c 0,1.831426 1.430949,3.30729 3.208334,3.30729 1.777385,0 3.208334,-1.475864 3.208333,-3.30729 V 25.963562 c 0,-1.831426 -1.430948,-3.30729 -3.208333,-3.30729 z m -31.401041,0.55729 c 0.213653,0.616803 0.338541,1.272912 0.338541,1.953126 0,0.97552 -0.243627,1.903066 -0.666667,2.729168 0.36912,0.471061 0.569078,1.052586 0.567707,1.65104 l -0.05728,7.526043 0.447917,0.15624 c 1.079368,0.367533 1.805683,1.380605 1.807291,2.520832 v 1.645834 c 0.0027,1.474731 -1.191933,2.671728 -2.666667,2.671875 h -1.322917 v 0.473957 c 0,1.970502 1.540765,3.557294 3.453125,3.557294 h 2.291667 v 7.265624 c 0,1.827968 1.423899,3.302082 3.197918,3.302082 1.774029,0 3.203125,-1.474114 3.203125,-3.302082 v -7.265624 h 4.265624 v 7.265624 c 0,1.827968 1.429096,3.302082 3.203126,3.302082 1.77402,0 3.203125,-1.474114 3.203125,-3.302082 v -7.265624 h 2.286458 c 1.91235,0 3.453124,-1.586792 3.453125,-3.557294 V 23.213552 Z m -2.427086,6.312502 -8.45729,1.197917 v 1.760416 h 2.170832 l 0.0051,6.489584 -2.1918987,0.77604 v 1.651043 H 19.916559 v -1.651043 l -2.197915,-0.77604 z"
     sodipodi:nodetypes="cccccccccccccccccsssssssssscccccssssssscsccccccccsscsssccssscssccccccccccccc" />
</svg>
