<svg xmlns="http://www.w3.org/2000/svg" id="Layer_1" width="192" height="192" viewBox="0 0 192 192"><defs><style>.cls-3{fill:none;stroke:#000;stroke-width:8px;stroke-miterlimit:10}</style></defs><path d="M0 0h192v192H0z" style="fill:none"/><path d="M49.38 42.52h92.3v92.3h-92.3z" style="stroke:#000;stroke-width:8px;stroke-linejoin:round;fill:none"/><path d="M120.38 56.64c3.71 0 6.73 3.02 6.73 6.73s-3.02 6.73-6.73 6.73-6.73-3.02-6.73-6.73 3.02-6.73 6.73-6.73m0-8c-8.14 0-14.73 6.6-14.73 14.73s6.6 14.73 14.73 14.73 14.73-6.6 14.73-14.73-6.6-14.73-14.73-14.73Z"/><path d="M142.62 85.88a31.551 31.551 0 0 1-22.45 9.34c-17.49 0-31.66-14.18-31.66-31.66 0-8.34 3.23-15.93 8.5-21.58" class="cls-3"/><path d="M135.11 91.5c-5.35 9.91-15.83 16.65-27.88 16.65-17.49 0-31.66-14.18-31.66-31.66 0-11.93 6.59-22.31 16.34-27.71" class="cls-3"/><path d="M121.53 105.09c-5.35 9.91-15.83 16.65-27.88 16.65-17.49 0-31.66-14.18-31.66-31.66 0-11.93 6.59-22.31 16.34-27.71" class="cls-3"/><path d="M151.24 28c2.43 0 4.4 1.98 4.4 4.4v127.19c0 2.43-1.98 4.4-4.4 4.4H40.76c-2.43 0-4.4-1.98-4.4-4.4V32.4c0-2.43 1.98-4.4 4.4-4.4h110.47m0-12H40.76c-9.06 0-16.4 7.34-16.4 16.4v127.19c0 9.06 7.34 16.4 16.4 16.4h110.47c9.06 0 16.4-7.34 16.4-16.4V32.4c0-9.06-7.34-16.4-16.4-16.4Z"/></svg>