<svg xmlns="http://www.w3.org/2000/svg" width="192" height="192" fill="none" viewBox="0 0 192 192"><path stroke="#000" stroke-linecap="round" stroke-linejoin="round" stroke-width="12" d="M82.653 60.833H69c-4.418 0-8 3.615-8 8.074v74.02c0 4.458 3.582 8.073 8 8.073h73.347c4.418 0 8-3.615 8-8.073v-13.779M82.653 60.833v60.242c0 4.459 3.582 8.073 8 8.073h10.561m-18.56-68.315v-11.76c0-4.458 3.58-8.073 8-8.073H162c4.418 0 8 3.615 8 8.073V99.95m-19.653 29.199H162c4.418 0 8-3.614 8-8.073V99.949m-19.653 29.199h-49.133m0 0 29.775-42.164c2.33-3.3 6.723-4.345 10.268-2.444L170 99.95M22 50.082h19m-19 35.32h19m-19 35.322h19"/><path stroke="#000" stroke-width="10" d="M113 66a5 5 0 1 1-10 0 5 5 0 0 1 10 0Z"/></svg>