<svg xmlns="http://www.w3.org/2000/svg" width="192" height="192" fill="none" viewBox="0 0 192 192"><path stroke="#000" stroke-linecap="round" stroke-linejoin="round" stroke-width="12" d="M51 48h-8c-9.941 0-18 8.059-18 18v86c0 9.941 8.059 18 18 18h80c9.941 0 18-8.059 18-18v-8"/><path stroke="#000" stroke-linecap="round" stroke-linejoin="round" stroke-width="12" d="M51 40c0-9.941 8.059-18 18-18h80c9.941 0 18 8.059 18 18v86c0 9.941-8.059 18-18 18h-47.515a6 6 0 0 1-4.242-1.757L52.757 97.757A6 6 0 0 1 51 93.515z"/></svg>