<svg width="192" height="192" viewBox="0 0 192 192" fill="none" xmlns="http://www.w3.org/2000/svg"><path d="m95.476 64.872 15.15-26.202a5.351 5.351 0 0 1 7.304-1.954l49.396 28.476a5.336 5.336 0 0 1 1.957 7.293l-39.213 67.816a5.35 5.35 0 0 1-7.304 1.954l-26.242-15.127m-1.048-62.256L69.234 49.745a5.352 5.352 0 0 0-7.304 1.954l-39.213 67.816a5.334 5.334 0 0 0 1.957 7.293l49.396 28.476a5.352 5.352 0 0 0 7.304-1.954l15.15-26.202m-1.048-62.256L118.63 78.22a5.336 5.336 0 0 1 1.957 7.293l-24.063 41.615" stroke="#000" stroke-width="12" stroke-linecap="round" stroke-linejoin="round"/></svg>