<svg width="192" height="192" viewBox="0 0 192 192" fill="none" xmlns="http://www.w3.org/2000/svg"><path d="M160.086 59A74 74 0 1 1 133 31.914" stroke="#000" stroke-width="12" stroke-linecap="round"/><path d="M137 81.932S131 79 126 79s-11 3.42-11 10.75c0 7.818 11 10.75 11 10.75s11 2.932 11 10.75c0 7.33-6 10.75-11 10.75s-11-2.932-11-2.932" stroke="#000" stroke-width="12" stroke-linecap="round"/><path d="M60 122V72.462C60 68.892 62.883 66 66.44 66H77c2.364 0 4.704.45 6.888 1.323a18.055 18.055 0 0 1 5.84 3.767 17.352 17.352 0 0 1 3.902 5.638A16.86 16.86 0 0 1 95 83.38a16.86 16.86 0 0 1-1.37 6.651 17.353 17.353 0 0 1-3.902 5.638 18.055 18.055 0 0 1-5.84 3.768A18.562 18.562 0 0 1 77 100.759H60" stroke="#000" stroke-width="12" stroke-linecap="round" stroke-linejoin="round"/></svg>