<svg width="192" height="192" viewBox="0 0 192 192" fill="none" xmlns="http://www.w3.org/2000/svg">
<path d="M82.6531 60.6531H69C64.5817 60.6531 61 64.2348 61 68.6531V142C61 146.418 64.5817 150 69 150H142.347C146.765 150 150.347 146.418 150.347 142V128.347M82.6531 60.6531V120.347C82.6531 124.765 86.2348 128.347 90.6531 128.347H101.214M82.6531 60.6531V49C82.6531 44.5817 86.2348 41 90.6531 41H162C166.418 41 170 44.5817 170 49V99.4133M150.347 128.347H162C166.418 128.347 170 124.765 170 120.347V99.4133M150.347 128.347H101.214M101.214 128.347L130.989 86.5659C133.319 83.2963 137.712 82.2602 141.257 84.1438L170 99.4133M22 50H41M22 85H41M22 120H41" stroke="black" stroke-width="12" stroke-linecap="round" stroke-linejoin="round"/>
<path d="M113 66C113 68.7614 110.761 71 108 71C105.239 71 103 68.7614 103 66C103 63.2386 105.239 61 108 61C110.761 61 113 63.2386 113 66Z" stroke="black" stroke-width="10"/>
</svg>
