<svg xmlns="http://www.w3.org/2000/svg" width="192" height="192" fill="none" stroke="#000" stroke-linecap="round" stroke-linejoin="round" stroke-width="10" viewBox="0 0 192 192"><path d="m22.752 91.757 69.005-69.004a6 6 0 0 1 8.485 0l69.005 69.004a6 6 0 0 1 0 8.486l-69.005 69.004a6 6 0 0 1-8.485 0l-69.005-69.004a6 6 0 0 1 0-8.486"/><path d="M68 118V76a6 6 0 0 1 6-6h8.069a14.897 14.897 0 0 1 0 29.793H68m63.069-15.724s-4.965-2.483-9.103-2.483-9.104 2.897-9.104 9.104c0 6.62 9.104 9.103 9.104 9.103s9.103 2.483 9.103 9.104c0 6.206-4.965 9.103-9.103 9.103s-9.104-2.483-9.104-2.483"/></svg>