<svg xmlns="http://www.w3.org/2000/svg" width="192" height="192" fill="none" viewBox="0 0 192 192"><path stroke="#000" stroke-linecap="round" stroke-linejoin="round" stroke-width="12" d="M30.808 44.192A13 13 0 0 1 40 22h82a48.003 48.003 0 0 1 10.413 94.857M30.808 44.192A13 13 0 0 0 40 48h26.163m-35.355-3.808L75.088 92m-8.924-44H122a22 22 0 0 1 0 44h-13.502M66.163 48l42.335 44m0 0h-33.41m0 0H40a13 13 0 0 0-13 13v52a12.999 12.999 0 0 0 26 0v-39h46.17m0 0 44.638 48.192a13 13 0 1 0 18.384-18.384l-29.779-30.951M99.17 118H122c3.511 0 7.002-.385 10.413-1.143"/></svg>