<svg width="24" height="24" viewBox="0 0 24 24" fill="none" xmlns="http://www.w3.org/2000/svg">
<path d="M7 20V4H17V8H19V3C19 2.44772 18.5523 2 18 2H6C5.44772 2 5 2.44772 5 3V21C5 21.5523 5.44772 22 6 22H18C18.5523 22 19 21.5523 19 21V16H17V20H7Z" fill="#FFF1C0"/>
<rect x="17" y="13" width="5" height="2" fill="#FFF1C0"/>
<rect x="17" y="9" width="5" height="2" fill="#FFF1C0"/>
<path d="M10.4889 8L12 11.1146L13.5245 8H14.9822L12.847 12L15 16H13.5423L12 13.0104L10.4621 16H9L11.1308 12L9.02675 8H10.4889Z" fill="#FFF1C0"/>
</svg>
