<svg xmlns="http://www.w3.org/2000/svg" width="192" height="192" fill="none" stroke-linecap="round" stroke-linejoin="round" stroke-width="12" viewBox="0 0 192 192"><path stroke="#000" d="M117.486 153.29H28.004a6 6 0 0 1-6-6V63.808a6 6 0 0 1 6-6h121.674a6 6 0 0 1 6 6v13.094"/><path stroke="#000" d="M41.098 38.71h9.55m66.838 38.192h19.094m0 19.098 28.649 38.192m-28.649 0L165.229 96m-76.388-9.547c10.548 0 19.094 8.542 19.094 19.094s-8.542 19.098-19.094 19.098-19.098-8.545-19.098-19.098 8.545-19.094 19.098-19.094m76.388 42.966a4.767 4.767 0 0 1 0 9.547 4.773 4.773 0 0 1 0-9.547"/><path fill="#000" d="M52.082 84.06a7.158 7.158 0 1 0 0-14.316 7.158 7.158 0 0 0 0 14.317Z"/></svg>