<svg xmlns="http://www.w3.org/2000/svg" width="192" height="192" fill="none"><path stroke="#000" stroke-linecap="round" stroke-linejoin="round" stroke-width="12" d="M25 49c0-13.255 10.745-24 24-24h94c13.255 0 24 10.745 24 24v94c0 13.255-10.745 24-24 24H49c-13.255 0-24-10.745-24-24z"/><path stroke="#000" stroke-linecap="round" stroke-linejoin="round" stroke-width="12" d="m97.432 107.809.532-.539c12.132-12.26 31.94-12.26 44.072 0l24.464 24.725m-69.068-24.186L84.036 94.27c-12.132-12.26-31.94-12.26-44.072 0l-13.396 13.54m70.864 0 54.61 55.19"/><circle cx="134" cy="62" r="6" stroke="#000" stroke-linecap="round" stroke-linejoin="round" stroke-width="12"/></svg>