<?xml version="1.0" encoding="UTF-8"?><svg id="Layer_1" xmlns="http://www.w3.org/2000/svg" width="192" height="192" viewBox="0 0 192 192"><defs><style>.cls-1,.cls-2,.cls-3{fill:none;}.cls-2{stroke-linejoin:round;}.cls-2,.cls-3{stroke:#000;stroke-width:8px;}.cls-3{stroke-miterlimit:10;}</style></defs><rect class="cls-1" width="192" height="192"/><g><rect class="cls-2" x="49.38" y="42.52" width="92.3" height="92.3"/><path d="M120.38,56.64c3.71,0,6.73,3.02,6.73,6.73s-3.02,6.73-6.73,6.73-6.73-3.02-6.73-6.73,3.02-6.73,6.73-6.73m0-8c-8.14,0-14.73,6.6-14.73,14.73s6.6,14.73,14.73,14.73,14.73-6.6,14.73-14.73-6.6-14.73-14.73-14.73h0Z"/><path class="cls-3" d="M142.62,85.88c-5.73,5.77-13.68,9.34-22.45,9.34-17.49,0-31.66-14.18-31.66-31.66,0-8.34,3.23-15.93,8.5-21.58"/><path class="cls-3" d="M135.11,91.5c-5.35,9.91-15.83,16.65-27.88,16.65-17.49,0-31.66-14.18-31.66-31.66,0-11.93,6.59-22.31,16.34-27.71"/><path class="cls-3" d="M121.53,105.09c-5.35,9.91-15.83,16.65-27.88,16.65-17.49,0-31.66-14.18-31.66-31.66,0-11.93,6.59-22.31,16.34-27.71"/></g><path d="M151.24,28c2.43,0,4.4,1.98,4.4,4.4v127.19c0,2.43-1.98,4.4-4.4,4.4H40.76c-2.43,0-4.4-1.98-4.4-4.4V32.4c0-2.43,1.98-4.4,4.4-4.4h110.47m0-12H40.76c-9.06,0-16.4,7.34-16.4,16.4v127.19c0,9.06,7.34,16.4,16.4,16.4h110.47c9.06,0,16.4-7.34,16.4-16.4V32.4c0-9.06-7.34-16.4-16.4-16.4h0Z"/></svg>