<?xml version="1.0" standalone="no"?>
<!DOCTYPE svg PUBLIC "-//W3C//DTD SVG 20010904//EN"
 "http://www.w3.org/TR/2001/REC-SVG-20010904/DTD/svg10.dtd">
<svg version="1.0" xmlns="http://www.w3.org/2000/svg"
 width="192.000000pt" height="192.000000pt" viewBox="0 0 192.000000 192.000000"
 preserveAspectRatio="xMidYMid meet">

<g transform="translate(0.000000,192.000000) scale(0.100000,-0.100000)"
fill="#000000" stroke="none">
<path d="M842 1659 c-209 -32 -396 -158 -477 -322 -37 -75 -64 -190 -52 -221
12 -31 24 -8 30 56 10 95 70 210 150 284 123 116 277 174 457 174 129 0 209
-18 319 -71 160 -78 267 -217 293 -381 7 -43 16 -78 21 -78 31 0 11 133 -35
230 -42 87 -157 203 -253 252 -133 69 -309 99 -453 77z"/>
<path d="M863 1530 c-113 -21 -240 -87 -315 -166 -51 -54 -105 -147 -128 -223
-29 -91 -27 -243 3 -332 80 -235 282 -381 527 -381 163 0 278 48 395 166 87
88 131 173 153 297 14 81 14 97 0 177 -22 123 -66 210 -153 298 -73 75 -167
130 -255 152 -68 17 -169 22 -227 12z m222 -45 c175 -46 317 -186 369 -364 33
-113 17 -271 -39 -382 -25 -49 -104 -153 -111 -146 -5 4 88 262 107 300 7 12
16 25 22 28 5 4 7 14 4 24 -9 23 -110 18 -115 -6 -2 -10 5 -19 17 -22 20 -5
20 -5 2 -59 -10 -29 -24 -66 -31 -83 l-12 -30 -28 75 c-35 91 -35 96 -9 103
12 3 19 12 17 19 -4 10 -48 14 -197 15 -169 3 -192 1 -198 -13 -3 -10 0 -20 9
-25 8 -5 46 -90 84 -189 84 -220 88 -222 148 -77 22 53 43 94 47 90 10 -10 69
-173 69 -190 0 -7 -22 -24 -50 -38 -146 -74 -335 -74 -483 1 -76 39 -187 154
-225 234 -17 36 -36 86 -41 110 -13 58 -13 182 0 240 27 117 125 260 179 260
16 0 30 -7 34 -16 3 -9 6 -100 6 -203 0 -198 -3 -211 -48 -211 -19 0 -23 -5
-20 -22 3 -22 7 -23 128 -26 69 -1 131 2 139 7 19 12 6 41 -18 41 -30 0 -41
30 -41 108 l0 69 74 5 c98 6 144 30 174 90 20 40 22 52 13 85 -12 43 -51 86
-96 104 -16 7 -93 15 -170 18 l-140 6 66 32 c37 18 84 37 105 42 62 14 195 12
259 -4z m-315 -319 c0 -118 3 -221 6 -230 5 -13 -2 -16 -42 -16 l-49 0 0 230
0 230 43 0 42 0 0 -214z m185 194 c43 -16 75 -59 75 -99 0 -60 -41 -100 -116
-114 l-31 -6 29 30 c29 28 30 34 26 94 -3 44 -10 70 -22 84 -16 18 -17 21 -3
21 9 0 27 -4 42 -10z m-70 -35 c53 -52 19 -155 -51 -155 l-34 0 0 90 0 90 30
0 c19 0 40 -9 55 -25z m120 -422 c3 -16 25 -75 47 -132 38 -98 40 -105 27
-143 l-13 -39 -43 113 c-24 62 -54 139 -67 171 l-25 57 34 0 c28 0 34 -4 40
-27z m124 -35 c9 -25 8 -42 -5 -82 -20 -59 -27 -54 -64 53 -21 61 -22 73 -10
81 22 14 66 -15 79 -52z m81 42 c0 -10 19 -69 41 -129 40 -106 41 -112 27
-147 l-15 -36 -33 88 c-18 49 -38 103 -45 119 -7 17 -18 44 -23 60 -5 17 -13
38 -17 48 -6 14 -1 17 29 17 29 0 36 -4 36 -20z"/>
<path d="M319 828 c-9 -130 61 -283 179 -388 67 -60 191 -123 287 -146 92 -22
258 -22 350 0 244 58 435 248 465 461 6 44 6 73 0 79 -15 15 -21 3 -31 -70
-25 -188 -176 -353 -383 -421 -64 -21 -106 -27 -203 -31 -110 -4 -132 -1 -215
22 -230 66 -394 236 -415 431 -5 40 -13 70 -20 73 -7 2 -13 -2 -14 -10z"/>
</g>
</svg>
