<svg fill="#000000" xmlns="http://www.w3.org/2000/svg"  viewBox="0 0 24 24" width="192px" height="192px"><path fill="none" stroke="#000000" stroke-miterlimit="10" d="M2.524,16.5c1.686,3.544,5.29,6,9.476,6s7.79-2.456,9.476-6"/><path fill="none" stroke="#000000" stroke-miterlimit="10" d="M21.476,7.5c-1.686-3.544-5.29-6-9.476-6s-7.79,2.456-9.476,6"/><polyline points="11.653,19 11,19 9,12 11,12 12.254,16.39"/><polygon points="12,19 11,19 13,12 14,12"/><polyline points="15.653,19 15,19 13,12 15,12 16.254,16.39"/><polygon points="16,19 15,19 17,12 18,12"/><path d="M12,4c-4.418,0-8,3.582-8,8s3.582,8,8,8s8-3.582,8-8S16.418,4,12,4z M12,19c-3.866,0-7-3.134-7-7s3.134-7,7-7s7,3.134,7,7	S15.866,19,12,19z"/><path d="M11,5H9H8.154C7.749,5.224,7.358,5.471,7,5.76V12h2V9h2c1.105,0,2-0.895,2-2S12.105,5,11,5z M10,8H9V6h1	c0.552,0,1,0.448,1,1S10.552,8,10,8z"/></svg>