<svg width="192" height="192" viewBox="0 0 192 192" fill="none" xmlns="http://www.w3.org/2000/svg">
<path d="M96 176C140.183 176 176 140.183 176 96C176 51.8172 140.183 16 96 16C51.8172 16 16 51.8172 16 96C16 140.183 51.8172 176 96 176Z" stroke="black" stroke-width="12" stroke-linecap="round" stroke-linejoin="round"/>
<path d="M76.1999 67.125C79.0717 67.125 81.3997 64.8584 81.3997 62.0625C81.3997 59.2666 79.0717 57 76.1999 57C73.3281 57 71 59.2666 71 62.0625C71 64.8584 73.3281 67.125 76.1999 67.125Z" stroke="black" stroke-width="12" stroke-linecap="round" stroke-linejoin="round"/>
<path d="M107.2 67.125C110.072 67.125 112.4 64.8584 112.4 62.0625C112.4 59.2666 110.072 57 107.2 57C104.328 57 102 59.2666 102 62.0625C102 64.8584 104.328 67.125 107.2 67.125Z" stroke="black" stroke-width="12" stroke-linecap="round" stroke-linejoin="round"/>
<path d="M76 88V143.948" stroke="black" stroke-width="12" stroke-linecap="round" stroke-linejoin="round"/>
<path d="M107 88V143.948" stroke="black" stroke-width="12" stroke-linecap="round" stroke-linejoin="round"/>
<path d="M134.625 67V71.8141C134.591 74.2974 133.573 76.6656 131.793 78.398C130.014 80.1305 127.619 81.0853 125.136 81.0525H66.4888C64.0057 81.0198 61.6112 81.9745 59.8318 83.7068C58.0525 85.4391 57.0339 87.8071 57 90.2902V95.1036" stroke="black" stroke-width="12" stroke-linecap="round" stroke-linejoin="round"/>
</svg>
