<svg xmlns="http://www.w3.org/2000/svg" width="192" height="192" fill="none" stroke="#000" stroke-linecap="round" stroke-width="12" viewBox="0 0 192 192"><circle cx="96" cy="96" r="74"/><path d="M76.2 67.125c2.872 0 5.2-2.267 5.2-5.063S79.072 57 76.2 57 71 59.267 71 62.063s2.328 5.062 5.2 5.062zm31 0c2.872 0 5.2-2.267 5.2-5.063S110.072 57 107.2 57s-5.2 2.267-5.2 5.063 2.328 5.062 5.2 5.062zM76 88v55.948M107 88v55.948M134.625 67v4.814a9.365 9.365 0 0 1-9.489 9.239H66.489A9.366 9.366 0 0 0 57 90.29v4.814"/></svg>