<svg xmlns="http://www.w3.org/2000/svg" width="192" height="192" fill="none" stroke="#000" stroke-linecap="round" stroke-linejoin="round" stroke-miterlimit="6" stroke-width="14" viewBox="0 0 192 192"><path d="M127.398 169.015h-8.648c-2.57.004-3.498-1.324-4.328-3.204a5.55 5.55 0 0 0-5.124-3.346H81.201c-2.245 0-4.223 1.29-5.084 3.362-.778 1.872-1.636 3.192-4.198 3.188H59.074c-2.962-.001-3.711-.936-4.511-2.831-.718-1.699-2.176-2.914-3.924-3.502-4.715-1.587-7.504-4.105-7.393-10.119V96.26c-.005-4.965.136-6.702 1.355-9.121.474-.941.742-1.97.869-3.015.578-4.785 3.835-3.995 9.727-3.874l14.18-.005c2.502-.088 3.115-.113 4.757 1.44 1.188 1.123 2.721 1.825 4.356 1.827l35.634.035c1.513.001 2.993-.553 3.935-1.736.959-1.204 1.345-1.693 4.543-1.562l14.26.017c7.805-.043 9.835-.633 9.867 5.714v0q0 .055.026.105c1.764 3.46 2.128 3.066 1.993 10.182v56.296c-.01 6.702-3.019 8.91-8.362 10.124-1.898.431-3.517 1.629-4.306 3.408-.816 1.844-1.597 2.92-4.258 2.92z"/><path stroke-width="10" d="m109.657 53.54.001.001m-27.281.001.001.001"/><path stroke-width="6" d="M87.515 63.726a13.64 13.64 0 0 0 17.13 0"/><path d="M56.233 75.608V55.779q-.002-.542.1-1.073c1.682-8.54 6.332-16.472 12.972-22.102 7.367-6.247 17.052-9.578 26.712-9.619 9.84-.041 19.716 3.325 27.28 9.62 6.74 5.607 11.559 13.475 13.506 22.021.092.406.134.822.134 1.238v19.744"/><path stroke-width="6" d="M103.885 149.164a.2.2 0 0 1-.042.004H89.49c-4.085-.023-5.435-1.453-5.29-4.923l2.937-18.224c.35-2.175-.587-4.317-2.056-5.96-8.465-9.468-3.923-24.284 9.675-25.78.642-.07 1.288-.007 1.933.001 13.83.844 18.92 16.455 10.247 25.864-1.561 1.693-2.584 3.925-2.198 6.195l2.91 17.087c.592 3.935-.948 5.414-3.763 5.736"/></svg>