<svg width="192" height="192" viewBox="0 0 192 192" fill="none" xmlns="http://www.w3.org/2000/svg"><ellipse cx="161" cy="157" rx="11" ry="13" stroke="#000" stroke-width="8" stroke-linecap="round" stroke-linejoin="round"/><path d="M129 158a6.999 6.999 0 1 0 0-14m-7 26v-26h7m-7 14h7m9 12-6-12m-31 0a6.999 6.999 0 1 0 0-14m-7 26v-26h7m-7 14h7" stroke="#000" stroke-width="8" stroke-linecap="round" stroke-linejoin="round"/><path d="M96 118c40.869 0 74-20.595 74-46s-33.131-46-74-46c-40.87 0-74 20.595-74 46 0 17.6 15.9 32.891 39.259 40.626L55 158l33.902-40.209c2.336.138 4.704.209 7.098.209Z" stroke="#000" stroke-width="12" stroke-linecap="round" stroke-linejoin="round"/></svg>