<svg width="192" height="192" viewBox="0 0 192 192" fill="none" xmlns="http://www.w3.org/2000/svg"><path d="M96 150.92c-56.757 16.265-75-21.348-75-21.348m75 21.348c-25.006-27.199-28.075-53.224-23.642-73.872M96 150.92c-24.37-7.055-38.7-18.786-47.053-31.469M96 150.92c56.757 16.265 75-21.348 75-21.348M96 150.92c25.006-27.199 28.075-53.224 23.642-73.872M96 150.92c24.37-7.055 38.7-18.786 47.053-31.469M72.358 77.048c-15.3-11.704-31.556-15.585-31.556-15.585s-9.548 31.128 8.145 57.988m23.411-42.403C78.033 50.62 96 33 96 33s17.967 17.62 23.642 44.048m-70.695 42.403C32.918 120.066 21 129.314 21 129.314m98.642-52.266c15.3-11.704 31.556-15.585 31.556-15.585s9.548 31.128-8.145 57.988m0 0c16.029.615 27.947 9.863 27.947 9.863" stroke="#000" stroke-width="10" stroke-linecap="round" stroke-linejoin="round"/></svg>