<svg xmlns="http://www.w3.org/2000/svg" width="192" height="192" fill="none"><path stroke="#000" stroke-linecap="round" stroke-linejoin="round" stroke-width="10" d="M32 21a11 11 0 0 1-11 11"/><path stroke="#000" stroke-linecap="round" stroke-linejoin="round" stroke-width="12" d="m133 170-2-9c-2.5-9.5-13-11-24.467-12.148C86.065 147.095 69 125.923 69 105c0-3.256.389-6.42 1.123-9.45-16.2-4.384-32.974-21.573-41.804-31.792M170 170s-18-18-20-30-1-32.413-1-35c0-4.845-1.44-7.788-1.44-7.788m-30.584-31.06S113.542 65 109 65a39.9 39.9 0 0 0-15.222 2.998c-10.662-3.66-32.996-12.339-50.84-26.037m0 0q.115-.483.22-.97.42.009.842.009c14.065 0 26.346-7.642 32.916-19M42.937 41.96c-2.15 8.9-7.435 16.577-14.618 21.798m0 0A38 38 0 0 1 22 67.478"/><path stroke="#000" stroke-linecap="round" stroke-linejoin="round" stroke-width="10" d="M146.795 73.33c3.634 6.39 4.096 13.604 1.798 19.216-1.28 3.128-3.419 5.759-6.343 7.472-8.171 4.788-19.384.602-25.045-9.349-5.383-9.464-3.807-20.735 3.39-25.934q.555-.403 1.155-.753c8.171-4.788 19.384-.602 25.045 9.349Z"/><path stroke="#000" stroke-linecap="round" stroke-linejoin="round" stroke-width="8" d="M150 94c10 1 22-11 22-11-6 14-21 20-21 20"/><path stroke="#000" stroke-linecap="round" stroke-linejoin="round" stroke-width="10" d="m127 156-19 15m63-25h-17"/><ellipse cx="132.366" cy="82.098" stroke="#000" stroke-linecap="round" stroke-linejoin="round" stroke-width="6" rx="1" ry="3" transform="rotate(-30 132.366 82.098)"/></svg>