<?xml version="1.0" encoding="UTF-8" standalone="no"?>
<svg
   width="192"
   height="192"
   viewBox="0 0 192 192"
   fill="none"
   version="1.1"
   id="svg4"
   xml:space="preserve"
   xmlns="http://www.w3.org/2000/svg"
   xmlns:svg="http://www.w3.org/2000/svg"><defs
     id="defs4"><linearGradient
       id="swatch5"><stop
         style="stop-color:#ff9900;stop-opacity:1;"
         offset="0"
         id="stop5" /></linearGradient><linearGradient
       id="swatch4"><stop
         style="stop-color:#3b8aff;stop-opacity:1;"
         offset="0"
         id="stop4" /></linearGradient></defs><g
     id="g9"
     transform="matrix(1.5339867,0,0,1.518137,-51.570133,-50.586062)"
     style="stroke-width:0.65529"><g
       id="g5"
       style="stroke-width:7.86348;stroke-dasharray:none"><path
         id="rect4"
         style="display:inline;stroke:#000000;stroke-width:7.86348;stroke-linecap:round;stroke-linejoin:round;stroke-dasharray:none"
         d="M 72.221105,66.710753 H 64.254 c -0.205341,0 -0.39926,0.171723 -0.435,0.383247 l -5.330719,28.236078 c -0.03574,0.211524 0.1013,0.460922 0.306641,0.460922 l 7.922738,1.32e-4 m 0,0 h 32.530387 c 0.496264,0.05331 0.995023,-1.71e-4 1.494143,-1.32e-4 7.73199,-10e-7 14,-6.267998 14,-13.999984 0,-7.731986 -6.26801,-14.590833 -10.13401,-14.630874 L 72.221105,66.710753" /></g><path
       id="rect3"
       style="stroke:#000000;stroke-width:7.93674;stroke-linecap:round;stroke-linejoin:round;stroke-dasharray:none"
       d="m 85.033445,97.584029 -0.132713,50.062241 c 0,0.21548 0.191704,0.38998 0.427927,0.38998 h 19.955081 c 0.23623,0 0.42559,-0.1745 0.42559,-0.38998 l -2.2e-4,-30.12576 18.68006,0.0736 -0.0197,-0.10346 c 18.62746,0 30.79355,-15.38171 27.17273,-34.357816 -3.62081,-18.976105 -21.65721,-34.359802 -40.28467,-34.359802 h -5.66211 c -0.0777,-0.07569 -0.18943,-0.123361 -0.3126,-0.123361 l -19.955099,2e-5 c -0.236223,0 -0.425589,0.174495 -0.425589,0.389978 l -2.68e-4,18.896767"
       transform="matrix(1,0,-0.190809,0.98162715,0,0)" /></g></svg>
