<svg width="192" height="192" viewBox="0 0 192 192" fill="none" xmlns="http://www.w3.org/2000/svg">
<g clip-path="url(#clip0_900_2066)">
<path d="M58.79 50.6901H46.5686C46.2536 50.6901 45.9561 50.9508 45.9013 51.2719L37.724 94.1381C37.6692 94.4593 37.8794 94.8379 38.1944 94.8379L50.3478 94.8381M50.3478 94.8381H100.249C101.01 94.919 101.775 94.8378 102.541 94.8379C114.402 94.8379 124.017 85.3222 124.017 73.584C124.017 61.8458 114.402 51.4331 108.471 51.3723L58.79 50.6901" stroke="black" stroke-width="12" stroke-linecap="round" stroke-linejoin="round"/>
<path d="M49.8764 94.8694L35.0246 169.45C34.9616 169.771 35.2045 170.031 35.5667 170.031H66.1675C66.5297 170.031 66.8712 169.771 66.9342 169.45L75.7488 124.57L104.373 124.68L104.373 124.525C132.938 124.525 156.095 101.61 156.095 73.3406C156.095 45.0707 132.938 22.1527 104.373 22.1527H95.6901C95.5931 22.0399 95.4357 21.9689 95.2468 21.9689L64.646 21.969C64.2838 21.969 63.9423 22.2289 63.8793 22.5499L58.3496 50.7016" stroke="black" stroke-width="12" stroke-linecap="round" stroke-linejoin="round"/>
</g>
<defs>
<clipPath id="clip0_900_2066">
<rect width="133.126" height="160" fill="white" transform="translate(29 16)"/>
</clipPath>
</defs>
</svg>
