<svg xmlns="http://www.w3.org/2000/svg" width="192" height="192" fill="none" viewBox="0 0 192 192"><path stroke="#000" stroke-linejoin="round" stroke-width="12" d="M135.753 135.887c9.664-2.816 18.477-8.351 25.552-16.046C164.072 116.831 170 109 170 109c-1.858 9.643-6.963 19.869-12.471 28.112a74.005 74.005 0 0 1-75.966 31.466A73.998 73.998 0 0 1 54.888 34.471C66.193 26.918 79.456 22.571 93 22a58.7 58.7 0 0 0-12.305 10.16c-7.075 7.695-12.163 17.28-14.753 27.793a67.26 67.26 0 0 0 0 32.094c2.59 10.512 7.678 20.098 14.753 27.794 7.075 7.695 15.888 13.23 25.552 16.046a52.57 52.57 0 0 0 29.506 0z"/></svg>