<svg xmlns="http://www.w3.org/2000/svg" width="192" height="192" fill="none" stroke="#000" stroke-linejoin="round" stroke-width="6" viewBox="0 0 192 192"><path stroke-linecap="round" d="M95.325 80.483h-6.08 12.158-6.078Zm0 0v30.394h6.078-12.157m-56.062 0V98.719m0 0V80.483h11.562a6 6 0 0 1 6 6v6.236a6 6 0 0 1-6 6H33.184Zm126.307-18.236v29.719h-2.026l-16.211-29.72h-2.026v30.395"/><path d="M19 75v42.035a6 6 0 0 0 6 6h33.93a6 6 0 0 0 6-6V75a6 6 0 0 0-6-6H25a6 6 0 0 0-6 6Zm108.07 0v42.035a6 6 0 0 0 6 6H167a6 6 0 0 0 6-6V75a6 6 0 0 0-6-6h-33.93a6 6 0 0 0-6 6Zm-54.035 0v42.035a6 6 0 0 0 6 6h33.93a6 6 0 0 0 6-6V75a6 6 0 0 0-6-6h-33.93a6 6 0 0 0-6 6Z"/></svg>