<svg width="192" height="192" viewBox="0 0 192 192" fill="none" xmlns="http://www.w3.org/2000/svg"><path d="M121 36H71m2 68H47m26 22H47m49 24H28a6 6 0 0 1-6-6V86a6 6 0 0 1 6-6h68m50 70h18a6 6 0 0 0 6-6V86a6 6 0 0 0-6-6h-18M82 58H54m84 0h-34m17 70v27m0-97v30m-17 40h34a6 6 0 0 0 6-6v-11.354a5.998 5.998 0 0 0-1.954-4.43l-17-15.522a6.001 6.001 0 0 0-8.092 0l-17 15.522a5.998 5.998 0 0 0-1.954 4.43V122a6 6 0 0 0 6 6Z" stroke="#000" stroke-width="12" stroke-linecap="round" stroke-linejoin="round"/></svg>