<svg xmlns="http://www.w3.org/2000/svg" width="192" height="192" fill="none" viewBox="0 0 192 192"><path stroke="#000" stroke-linecap="round" stroke-width="12" d="M33.232 135.212C26.114 123.843 22 110.402 22 96c0-10.293 2.101-20.094 5.898-29m5.334 68.212a74.4 74.4 0 0 0 23.84 23.734m-23.84-23.734c48.783-24.51 78.416-45.61 118.063-88.39M57.073 158.945C68.38 165.954 81.717 170 96 170c40.869 0 74-33.131 74-74 0-6.816-.921-13.416-2.646-19.683M57.072 158.946c44.804-22.89 73.459-43.46 110.282-82.63m-16.059-29.495C137.741 31.592 117.991 22 96 22c-6.62 0-13.037.87-19.143 2.5m74.438 22.321a73.86 73.86 0 0 1 16.059 29.496"/><path stroke="#000" stroke-linejoin="round" stroke-width="12" d="M50.543 24.935c.395-.98 1.843-.757 1.924.298l.86 11.244a1 1 0 0 0 .623.851l10.46 4.214c.98.396.757 1.844-.297 1.925l-11.244.86a1 1 0 0 0-.852.624L47.803 55.41c-.395.98-1.844.757-1.925-.297l-.86-11.244a1 1 0 0 0-.623-.852l-10.46-4.214c-.98-.395-.757-1.844.298-1.925l11.244-.86a1 1 0 0 0 .85-.623z"/></svg>