<svg width="192" height="192" viewBox="0 0 192 192" fill="none" xmlns="http://www.w3.org/2000/svg"><circle cx="96" cy="96" r="74" stroke="#000" stroke-width="12" stroke-linecap="round" stroke-linejoin="round"/><path d="m70.815 164 20.74-78.81M61.36 115.107a38.904 38.904 0 0 1-4.69-26.884C58.407 79 63.427 70.686 70.828 64.782c7.402-5.905 16.7-9.014 26.22-8.768 9.521.245 18.64 3.83 25.718 10.107 7.078 6.279 11.65 14.839 12.893 24.141a38.94 38.94 0 0 1-6.111 26.605c-5.188 7.869-13.055 13.656-22.187 16.321a40.559 40.559 0 0 1-27.63-1.784" stroke="#000" stroke-width="12" stroke-linecap="round"/></svg>