<svg xmlns="http://www.w3.org/2000/svg" width="192" height="192" fill="none"><path stroke="#000" stroke-linecap="round" stroke-linejoin="round" stroke-width="12" d="M134 89a38 38 0 0 0-38-38 38 38 0 0 0-38 38m38-67v6M58 89c-.658 15.138 12.98 35.041 22.38 46.879L98 130.036M134 89c-.506 11.642-7.162 24.822-13.612 35"/><path stroke="#000" stroke-linecap="round" stroke-linejoin="round" stroke-width="10" d="m95 171 3-1m-7-17 11-4"/><path stroke="#000" stroke-linecap="round" stroke-linejoin="round" stroke-width="12" d="m143.378 41.62-4.243 4.243m23.87 43.132h-6m-13.62 47.378-4.243-4.243m-86.274 0-4.243 4.243m-13.62-47.378h-6m23.87-43.132-4.243-4.243"/></svg>