<svg width="192" height="192" viewBox="0 0 192 192" fill="none" xmlns="http://www.w3.org/2000/svg">
<path d="M139.421 171V155.211H156.211V147.316H35.7895V155.211H52.5789V171H60.4737V155.211H131.526V171H139.421Z" stroke="#000" stroke-width="10" stroke-linecap="round" stroke-linejoin="round"/>
<path d="M147.316 93.0526H163.105V140.421H171V85.1579H155.211V69.3684H99.9474V52.579H92.0526V69.3684H36.7895V85.1579H21V140.421H28.8947V93.0526H44.6842V77.2632L147.316 77.2632V93.0526Z" stroke="#000" stroke-width="10" stroke-linecap="round" stroke-linejoin="round"/>
<path d="M69.3684 21H59.4737V30.8947H69.3684V21Z" stroke="#000" stroke-width="10" stroke-linecap="round" stroke-linejoin="round"/>
<path d="M85.1579 46.6842H75.2632V36.7895H85.1579V46.6842Z" stroke="#000" stroke-width="10" stroke-linecap="round" stroke-linejoin="round"/>
<path d="M122.632 21V30.8947H132.526V21H122.632Z" stroke="#000" stroke-width="10" stroke-linecap="round" stroke-linejoin="round"/>
<path d="M106.842 36.7895H116.737V46.6842H106.842V36.7895Z" stroke="#000" stroke-width="10" stroke-linecap="round" stroke-linejoin="round"/>
</svg>
