<svg xmlns="http://www.w3.org/2000/svg" width="192" height="192" fill="none" stroke="#000" stroke-linejoin="round" viewBox="0 0 192 192"><path stroke-linecap="round" stroke-width="12" d="M38.36 151.518h17.583m101.441 0h-14.642m22.321-16.262V83.88h-12.799V69.842H44.759V83.88H29.526v51.376m26.417 16.262v15.815m0-15.815h86.799v15.815"/><path stroke-width="8" d="M92.424 52.231h10.064v10.064H92.424zM76.309 36.115h10.064v10.064H76.309zm32.23 0h10.064v10.064h-10.064zM60.193 20h10.064v10.064H60.193zm64.462 0h10.064v10.064h-10.064z"/><path stroke-width="6" d="M26.475 135.731h6.12v6.12h-6.12zm113.216 31.149h6.12V173h-6.12zm-86.799 0h6.12V173h-6.12zm104.41-18.569h6.12v6.12h-6.12zm-122.021 0h6.12v6.12h-6.12zm126.738-13.055h6.12v6.12h-6.12z"/></svg>