<svg xmlns="http://www.w3.org/2000/svg" width="192" height="192" fill="none" stroke="#000" stroke-linejoin="round" viewBox="0 0 192 192"><path stroke-width="12" d="m80.534 140.443 40.733 19.856c1.643.801 3.411-.84 2.734-2.538L74.946 34.659c-.67-1.68-3.047-1.68-3.716 0L22.167 157.78c-.676 1.696 1.087 3.336 2.73 2.541l41.094-19.898c.838-.406.715-1.637-.187-1.869l-13.847-3.562 21.13-56.68 22.189 56.68-14.543 3.582c-.908.223-1.04 1.46-.199 1.87z"/><path stroke-width="8" d="m106.978 113.226 3.612-8.963 10.105-26.973 22.288 56.654-14.609 3.58c-.91.223-1.041 1.462-.199 1.871l40.934 19.854c1.644.797 3.409-.847 2.729-2.543l-49.286-123.07c-.671-1.675-3.042-1.675-3.713 0l-18.52 46.246-2.81 6.93"/></svg>