<svg xmlns="http://www.w3.org/2000/svg" width="192" height="192" fill="none" stroke="#000" stroke-linecap="round" stroke-linejoin="round" stroke-width="10" viewBox="0 0 192 192"><path d="M60 60h26v26H60zm26 59v7a6 6 0 0 1-6 6h-7"/><path d="M86 119a12.996 12.996 0 0 0-22.192-9.192A12.996 12.996 0 0 0 73 132"/><path stroke-width="12" d="M40 40c7-7 16 0 24-8 0 0 8-10 16-10s8 4 16 4 8-4 16-4 16 10 16 10c8 8 17 1 24 8m0 0c7 7 0 16 8 24 0 0 10 8 10 16s-4 8-4 16 4 8 4 16-10 16-10 16c-8 8-1 17-8 24m-112 0c7 7 16 0 24 8 0 0 8 10 16 10s8-4 16-4 8 4 16 4 16-10 16-10c8-8 17-1 24-8M40 40c-7 7 0 16-8 24 0 0-10 8-10 16s4 8 4 16-4 8-4 16 10 16 10 16c8 8 1 17 8 24"/><rect width="26" height="26" x="106" y="106" rx="6"/><circle cx="119" cy="73" r="13"/></svg>