<?xml version="1.0" encoding="utf-8"?>
	<svg version="1.1" xmlns="http://www.w3.org/2000/svg" xmlns:xlink="http://www.w3.org/1999/xlink" x="0px" y="0px" width="240.0" height="240.0" xml:space="preserve">
		<path d="M32.5,170L57.5,170C65.833,170 70,174.167 70,182.5L70,207.5C70,215.833 65.833,220 57.5,220L32.5,220C24.167,220 20,215.833 20,207.5L20,182.5C20,174.167 24.167,170 32.5,170ZM32.5,95L57.5,95C65.833,95 70,99.167 70,107.5L70,132.5C70,140.833 65.833,145 57.5,145L32.5,145C24.167,145 20,140.833 20,132.5L20,107.5C20,99.167 24.167,95 32.5,95L32.5,95ZM107.5,170L132.5,170C140.833,170 145,174.167 145,182.5L145,207.5C145,215.833 140.833,220 132.5,220L107.5,220C99.167,220 95,215.833 95,207.5L95,182.5C95,174.167 99.167,170 107.5,170L107.5,170ZM107.5,95L132.5,95C140.833,95 145,99.167 145,107.5L145,132.5C145,140.833 140.833,145 132.5,145L107.5,145C99.167,145 95,140.833 95,132.5L95,107.5C95,99.167 99.167,95 107.5,95L107.5,95ZM32.5,20L57.5,20C65.833,20 70,24.167 70,32.5L70,57.5C70,65.833 65.833,70 57.5,70L32.5,70C24.167,70 20,65.833 20,57.5L20,32.5C20,24.167 24.167,20 32.5,20ZM182.5,170L207.5,170C215.833,170 220,174.167 220,182.5L220,207.5C220,215.833 215.833,220 207.5,220L182.5,220C174.167,220 170,215.833 170,207.5L170,182.5C170,174.167 174.167,170 182.5,170Z" fill="#000" stroke="#00000000" stroke-width="1.0" stroke-miterlimit=""/>
	</svg>
