<svg width="192" height="192" viewBox="0 0 192 192" fill="none" xmlns="http://www.w3.org/2000/svg"><path d="m63 81-24 59m89-68-12 24m12-24c0 17 11 21 11 32m-31 16h15" stroke="#000" stroke-width="12" stroke-linecap="round" stroke-linejoin="round"/><circle cx="96" cy="96" r="74" stroke="#000" stroke-width="12" stroke-linecap="round" stroke-linejoin="round"/><path d="M139 104a16.002 16.002 0 0 1-16 16m-39.659-5.554a26.992 26.992 0 0 0 5.107-6.393 26.976 26.976 0 0 0 2.983-7.619c.581-2.626.719-5.237.405-7.685-.314-2.447-1.073-4.684-2.234-6.58-1.16-1.898-2.701-3.418-4.533-4.476-1.831-1.058-3.919-1.631-6.142-1.688-2.223-.057-4.54.403-6.816 1.356-2.277.952-4.47 2.377-6.452 4.193a26.977 26.977 0 0 0-5.107 6.393 26.978 26.978 0 0 0-2.983 7.619c-.581 2.626-.719 5.237-.405 7.685.314 2.447 1.073 4.684 2.234 6.581 1.16 1.897 2.701 3.418 4.533 4.475 1.831 1.058 3.919 1.631 6.142 1.688 2.223.057 4.54-.403 6.816-1.356 2.277-.952 4.47-2.377 6.452-4.193Z" stroke="#000" stroke-width="12" stroke-linecap="round" stroke-linejoin="round"/></svg>