<svg xmlns="http://www.w3.org/2000/svg" width="192" height="192" fill="none" stroke="#000" stroke-linejoin="round" stroke-width="8" viewBox="0 0 192 192"><path stroke-width="12" d="M85.948 60.707c-9.406 0-17.094 7.854-17.094 17.395v61.359l24.631-24.67h11.392c14.633 0 26.557-12.172 26.557-27.04 0-14.87-11.924-27.044-26.557-27.044H85.948Z"/><path d="m86.336 120.09-16.343 19.124c3.45 20.15 24.694 30.436 44.849 27.888 30.858-11.664-5.769-1.018-16.796-8.127-3.654-2.257-6.622-5.356-8.819-8.937-5.126-8.356-9.55-23.279-2.89-29.948Zm30.392-7.281c3.425-1.955 3.425-1.955 0 0Z"/><path d="M141.718 122.348c-9.233 1.719-19.115-2.172-24.99-9.539-5.64 3.185-12.167 2.886-18.397 2.851 8.17 16.948 29.086 26.217 46.783 19.879 23.281-12.693 29.824-31.113 25.756-52.655-.521 2.137 1.918 6.816-.849 7.024-4.311 16.342-11.518 29.169-28.303 32.44ZM67.314 74.704c-20.137-.15-37.389 17.701-38.787 37.653-1.183 10.918 2.268 21.895 8.48 30.774l6.958 1.905c-5.506-7.47-6.734-18.306-5.26-27.934 1.207-14.839 15.303-27.56 30.173-25.392v-8.49c-2.871.874 1.513-1.402 0-4.25-.668-1.97 2.391-5.344-1.564-4.267ZM107.388 61.7c-4.075-17.76-20.775-32.503-38.915-31.932-10.536-4.305-32.259 18.36-30.22 18.117 9.08-12.4 33.415-9.176 44.401 1.828 6.949 7.962 2.181 13.689 9.122 12.144m24.646-37.227c16.722 6.172 24.276 32.064 14.234 46.814-5.434 6.076 4.184 14.908.192 22.912 15.541-10.406 22.405-37.827 12.52-54.46-8.121-9.192-7.583-8.61-26.946-15.267Z"/><path stroke-width="12" d="M96.124 170.114c40.937 0 74.123-33.154 74.123-74.05 0-40.898-33.186-74.051-74.123-74.051C55.186 22.013 22 55.166 22 96.063s33.186 74.051 74.124 74.051Z"/></svg>