<svg width="192" height="192" viewBox="0 0 192 192" fill="none" xmlns="http://www.w3.org/2000/svg"><circle cx="96" cy="138" r="6" stroke="#000" stroke-width="12" stroke-linecap="round" stroke-linejoin="round"/><circle cx="117" cy="63" r="3" stroke="#000" stroke-width="6" stroke-linecap="round" stroke-linejoin="round"/><circle cx="117" cy="103" r="3" stroke="#000" stroke-width="6" stroke-linecap="round" stroke-linejoin="round"/><circle cx="117" cy="83" r="3" stroke="#000" stroke-width="6" stroke-linecap="round" stroke-linejoin="round"/><path d="M117 43a20.997 20.997 0 0 0-21-21 21 21 0 0 0-21 21m48.713 79a32.002 32.002 0 0 1-35.995 46.91A32.003 32.003 0 0 1 67.3 123.847a32.01 32.01 0 0 1 5.717-8.113c1.208-1.247 1.983-2.876 1.983-4.613V43m21 40v55" stroke="#000" stroke-width="12" stroke-linecap="round" stroke-linejoin="round"/></svg>