<?xml version="1.0" encoding="UTF-8" standalone="no"?>
<svg
   width="192"
   height="192"
   viewBox="0 0 192 192"
   version="1.1"
   id="svg118"
   sodipodi:docname="pixelfed.svg"
   inkscape:version="1.2.2 (b0a8486541, 2022-12-01)"
   xmlns:inkscape="http://www.inkscape.org/namespaces/inkscape"
   xmlns:sodipodi="http://sodipodi.sourceforge.net/DTD/sodipodi-0.dtd"
   xmlns:xlink="http://www.w3.org/1999/xlink"
   xmlns="http://www.w3.org/2000/svg"
   xmlns:svg="http://www.w3.org/2000/svg"
   xmlns:rdf="http://www.w3.org/1999/02/22-rdf-syntax-ns#"
   xmlns:cc="http://creativecommons.org/ns#"
   xmlns:dc="http://purl.org/dc/elements/1.1/">
  <sodipodi:namedview
     id="namedview120"
     pagecolor="#ffffff"
     bordercolor="#000000"
     borderopacity="0.25"
     inkscape:showpageshadow="2"
     inkscape:pageopacity="0.0"
     inkscape:pagecheckerboard="0"
     inkscape:deskcolor="#d1d1d1"
     showgrid="false"
     inkscape:zoom="2.5838642"
     inkscape:cx="54.182414"
     inkscape:cy="148.61462"
     inkscape:window-width="1859"
     inkscape:window-height="1117"
     inkscape:window-x="26"
     inkscape:window-y="23"
     inkscape:window-maximized="0"
     inkscape:current-layer="g379" />
  <!-- Generator: Sketch 51.3 (57544) - http://www.bohemiancoding.com/sketch -->
  <title
     id="title2">full/color/svg/pixelfed-full-color</title>
  <desc
     id="desc4">Created with Sketch.</desc>
  <defs
     id="defs61">
    <rect
       id="path-1"
       x="0"
       y="0.071748883"
       width="32"
       height="31.856503" />
    <linearGradient
       x1="17.151667"
       y1="12.569443"
       x2="4.1541014"
       y2="13.129761"
       id="linearGradient-3"
       gradientTransform="scale(0.85441984,1.1703848)"
       gradientUnits="userSpaceOnUse">
      <stop
         stop-color="#FF5C34"
         offset="0%"
         id="stop7" />
      <stop
         stop-color="#EB0256"
         offset="100%"
         id="stop9" />
    </linearGradient>
    <linearGradient
       x1="11.906699"
       y1="38.456814"
       x2="18.91321"
       y2="21.928528"
       id="linearGradient-4"
       gradientTransform="scale(1.2181633,0.82090802)"
       gradientUnits="userSpaceOnUse">
      <stop
         stop-color="#A63FDB"
         offset="0%"
         id="stop12" />
      <stop
         stop-color="#FF257E"
         offset="100%"
         id="stop14" />
    </linearGradient>
    <linearGradient
       x1="20.420006"
       y1="14.631306"
       x2="35.931698"
       y2="18.046839"
       id="linearGradient-5"
       gradientTransform="scale(0.87861868,1.1381502)"
       gradientUnits="userSpaceOnUse">
      <stop
         stop-color="#00FFF0"
         offset="0%"
         id="stop17" />
      <stop
         stop-color="#0087FF"
         offset="100%"
         id="stop19" />
    </linearGradient>
    <linearGradient
       x1="25.60923"
       y1="1.9522245"
       x2="13.83083"
       y2="14.523822"
       id="linearGradient-6"
       gradientTransform="scale(1.0479971,0.95420109)"
       gradientUnits="userSpaceOnUse">
      <stop
         stop-color="#17C934"
         offset="0%"
         id="stop22" />
      <stop
         stop-color="#03FF6E"
         offset="100%"
         id="stop24" />
    </linearGradient>
    <linearGradient
       x1="0.5"
       y1="1.1191301"
       x2="0.30560157"
       y2="0"
       id="linearGradient-7">
      <stop
         stop-color="#FFB000"
         offset="0%"
         id="stop27" />
      <stop
         stop-color="#FF7725"
         offset="100%"
         id="stop29" />
    </linearGradient>
    <path
       d="M 16.562957,15.784753 C 16.332001,11.431888 12.572274,8.088124 8.1653719,8.316248 3.7584698,8.544372 0.37319659,12.257998 0.60415254,16.610863 l 0.006637,0.125098 c -0.0189358,-0.314676 -0.0285385,-0.631834 -0.0285385,-0.951208 0,-6.4998018 3.97737376,-12.0820294 9.65926296,-14.5016929 l 0.334965,-0.1336752 c 4.091616,-1.63284994 8.748644,0.3197025 10.401764,4.3611479 1.65312,4.0414454 -0.323672,8.6413702 -4.415286,10.2742202 z"
       id="path-8" />
    <path
       d="m 10.45681,1.1971414 0.119669,-0.047756 c 4.091616,-1.63284994 8.748645,0.3197025 10.401765,4.3611479 1.65312,4.0414454 -0.323672,8.6413707 -4.415287,10.2742207 -0.0342,-0.644487 -0.145749,-1.266853 -0.325306,-1.858779 2.195178,-1.188281 3.683533,-3.491872 3.683533,-6.1388251 0,-3.8635166 -3.17088,-6.99551568 -7.082358,-6.99551568 -0.835714,0 -1.63762,0.14297342 -2.382016,0.40550718 z"
       id="path-9" />
    <linearGradient
       x1="10.682104"
       y1="12.28515"
       x2="37.038914"
       y2="13.901339"
       id="linearGradient-10"
       gradientTransform="scale(0.85441985,1.1703848)"
       gradientUnits="userSpaceOnUse">
      <stop
         stop-color="#9EE85D"
         offset="0%"
         id="stop34" />
      <stop
         stop-color="#0ED061"
         offset="100%"
         id="stop36" />
    </linearGradient>
    <path
       d="m 18.162849,5.9328949 0.119669,-0.047757 c 4.091615,-1.63285 8.748644,0.3197024 10.401764,4.3611471 1.65312,4.041447 -0.323671,8.641371 -4.415287,10.274221 -0.0342,-0.644487 -0.145748,-1.266853 -0.325305,-1.858778 2.195178,-1.188281 3.683533,-3.491873 3.683533,-6.138825 0,-3.8635172 -3.17088,-6.9955163 -7.082358,-6.9955163 -0.835715,0 -1.637621,0.1429734 -2.382016,0.4055082 z"
       id="path-11" />
    <linearGradient
       x1="24.742687"
       y1="27.080662"
       x2="18.827459"
       y2="11.372287"
       id="linearGradient-12"
       gradientTransform="scale(0.85441984,1.1703848)"
       gradientUnits="userSpaceOnUse">
      <stop
         stop-color="#21EFE3"
         offset="0%"
         id="stop40" />
      <stop
         stop-color="#2598FF"
         offset="100%"
         id="stop42" />
    </linearGradient>
    <path
       d="m 16.086555,14.548704 0.119668,-0.04776 c 4.091616,-1.63285 8.748645,0.319702 10.401765,4.361147 1.65312,4.041446 -0.323671,8.641371 -4.415287,10.274221 -0.0342,-0.644487 -0.145748,-1.266853 -0.325306,-1.858779 2.195179,-1.188281 3.683534,-3.491872 3.683534,-6.138825 0,-3.863517 -3.17088,-6.995515 -7.082359,-6.995515 -0.835714,0 -1.63762,0.142973 -2.382015,0.405507 z"
       id="path-13" />
    <linearGradient
       x1="20.977974"
       y1="20.027103"
       x2="-3.6717851"
       y2="22.121008"
       id="linearGradient-14"
       gradientTransform="scale(0.85441984,1.1703848)"
       gradientUnits="userSpaceOnUse">
      <stop
         stop-color="#A63FDB"
         offset="0%"
         id="stop46" />
      <stop
         stop-color="#FF257E"
         offset="100%"
         id="stop48" />
    </linearGradient>
    <path
       d="m 6.8186196,15.209486 0.1196689,-0.04776 c 4.0916155,-1.63285 8.7486445,0.319702 10.4017645,4.361148 1.65312,4.041445 -0.323671,8.64137 -4.415287,10.27422 -0.0342,-0.644487 -0.145748,-1.266853 -0.325306,-1.858779 2.195179,-1.188281 3.683533,-3.491872 3.683533,-6.138825 0,-3.863516 -3.170879,-6.995515 -7.0823575,-6.995515 -0.8357141,0 -1.6376205,0.142973 -2.3820159,0.405507 z"
       id="path-15" />
    <path
       d="M 3.5493468,6.846211 3.6690157,6.7984545 C 7.7606315,5.1656046 12.41766,7.118157 14.07078,11.159602 15.7239,15.201048 13.747109,19.800973 9.6554932,21.433823 9.6212977,20.789336 9.5097449,20.16697 9.3301878,19.575044 c 2.1951782,-1.188281 3.6835332,-3.491872 3.6835332,-6.138825 0,-3.8635166 -3.17088,-6.9955157 -7.0823583,-6.9955157 -0.8357141,0 -1.6376205,0.1429735 -2.3820159,0.4055077 z"
       id="path-16" />
    <path
       d="m 22.804308,27.118783 h 2.908693 c 2.740104,0 4.961397,-2.152736 4.961397,-4.80827 0,-2.655535 -2.221293,-4.808271 -4.961397,-4.808271 h -4.198106 c -1.580829,0 -2.862345,1.241963 -2.862345,2.774002 v 10.796785 z"
       id="path-17" />
    <filter
       x="-0.29945478"
       y="-0.26527569"
       width="1.5989096"
       height="1.6042391"
       filterUnits="objectBoundingBox"
       id="filter-18">
      <feOffset
         dx="0"
         dy="1"
         in="SourceAlpha"
         result="shadowOffsetOuter1"
         id="feOffset54" />
      <feGaussianBlur
         stdDeviation="1.5"
         in="shadowOffsetOuter1"
         result="shadowBlurOuter1"
         id="feGaussianBlur56" />
      <feColorMatrix
         values="0 0 0 0 0   0 0 0 0 0   0 0 0 0 0  0 0 0 0.298686594 0"
         type="matrix"
         in="shadowBlurOuter1"
         id="feColorMatrix58" />
    </filter>
    <mask
       id="mask-2"
       fill="#ffffff">
      <use
         xlink:href="#path-1"
         id="use65" />
    </mask>
    <filter
       id="mask-powermask-path-effect1298_inverse"
       inkscape:label="filtermask-powermask-path-effect1298"
       style="color-interpolation-filters:sRGB"
       height="100"
       width="100"
       x="-50"
       y="-50">
      <feColorMatrix
         id="mask-powermask-path-effect1298_primitive1"
         values="1"
         type="saturate"
         result="fbSourceGraphic" />
      <feColorMatrix
         id="mask-powermask-path-effect1298_primitive2"
         values="-1 0 0 0 1 0 -1 0 0 1 0 0 -1 0 1 0 0 0 1 0 "
         in="fbSourceGraphic" />
    </filter>
    <filter
       id="mask-powermask-path-effect1303_inverse"
       inkscape:label="filtermask-powermask-path-effect1303"
       style="color-interpolation-filters:sRGB"
       height="100"
       width="100"
       x="-50"
       y="-50">
      <feColorMatrix
         id="mask-powermask-path-effect1303_primitive1"
         values="1"
         type="saturate"
         result="fbSourceGraphic" />
      <feColorMatrix
         id="mask-powermask-path-effect1303_primitive2"
         values="-1 0 0 0 1 0 -1 0 0 1 0 0 -1 0 1 0 0 0 1 0 "
         in="fbSourceGraphic" />
    </filter>
    <filter
       id="mask-powermask-path-effect1308_inverse"
       inkscape:label="filtermask-powermask-path-effect1308"
       style="color-interpolation-filters:sRGB"
       height="100"
       width="100"
       x="-50"
       y="-50">
      <feColorMatrix
         id="mask-powermask-path-effect1308_primitive1"
         values="1"
         type="saturate"
         result="fbSourceGraphic" />
      <feColorMatrix
         id="mask-powermask-path-effect1308_primitive2"
         values="-1 0 0 0 1 0 -1 0 0 1 0 0 -1 0 1 0 0 0 1 0 "
         in="fbSourceGraphic" />
    </filter>
    <filter
       id="mask-powermask-path-effect1313_inverse"
       inkscape:label="filtermask-powermask-path-effect1313"
       style="color-interpolation-filters:sRGB"
       height="100"
       width="100"
       x="-50"
       y="-50">
      <feColorMatrix
         id="mask-powermask-path-effect1313_primitive1"
         values="1"
         type="saturate"
         result="fbSourceGraphic" />
      <feColorMatrix
         id="mask-powermask-path-effect1313_primitive2"
         values="-1 0 0 0 1 0 -1 0 0 1 0 0 -1 0 1 0 0 0 1 0 "
         in="fbSourceGraphic" />
    </filter>
    <filter
       id="mask-powermask-path-effect1359_inverse"
       inkscape:label="filtermask-powermask-path-effect1359"
       style="color-interpolation-filters:sRGB"
       height="100"
       width="100"
       x="-50"
       y="-50">
      <feColorMatrix
         id="mask-powermask-path-effect1359_primitive1"
         values="1"
         type="saturate"
         result="fbSourceGraphic" />
      <feColorMatrix
         id="mask-powermask-path-effect1359_primitive2"
         values="-1 0 0 0 1 0 -1 0 0 1 0 0 -1 0 1 0 0 0 1 0 "
         in="fbSourceGraphic" />
    </filter>
    <filter
       id="mask-powermask-path-effect1364_inverse"
       inkscape:label="filtermask-powermask-path-effect1364"
       style="color-interpolation-filters:sRGB"
       height="100"
       width="100"
       x="-50"
       y="-50">
      <feColorMatrix
         id="mask-powermask-path-effect1364_primitive1"
         values="1"
         type="saturate"
         result="fbSourceGraphic" />
      <feColorMatrix
         id="mask-powermask-path-effect1364_primitive2"
         values="-1 0 0 0 1 0 -1 0 0 1 0 0 -1 0 1 0 0 0 1 0 "
         in="fbSourceGraphic" />
    </filter>
    <filter
       id="mask-powermask-path-effect1369_inverse"
       inkscape:label="filtermask-powermask-path-effect1369"
       style="color-interpolation-filters:sRGB"
       height="100"
       width="100"
       x="-50"
       y="-50">
      <feColorMatrix
         id="mask-powermask-path-effect1369_primitive1"
         values="1"
         type="saturate"
         result="fbSourceGraphic" />
      <feColorMatrix
         id="mask-powermask-path-effect1369_primitive2"
         values="-1 0 0 0 1 0 -1 0 0 1 0 0 -1 0 1 0 0 0 1 0 "
         in="fbSourceGraphic" />
    </filter>
    <filter
       id="mask-powermask-path-effect1374_inverse"
       inkscape:label="filtermask-powermask-path-effect1374"
       style="color-interpolation-filters:sRGB"
       height="100"
       width="100"
       x="-50"
       y="-50">
      <feColorMatrix
         id="mask-powermask-path-effect1374_primitive1"
         values="1"
         type="saturate"
         result="fbSourceGraphic" />
      <feColorMatrix
         id="mask-powermask-path-effect1374_primitive2"
         values="-1 0 0 0 1 0 -1 0 0 1 0 0 -1 0 1 0 0 0 1 0 "
         in="fbSourceGraphic" />
    </filter>
    <filter
       id="mask-powermask-path-effect1379_inverse"
       inkscape:label="filtermask-powermask-path-effect1379"
       style="color-interpolation-filters:sRGB"
       height="100"
       width="100"
       x="-50"
       y="-50">
      <feColorMatrix
         id="mask-powermask-path-effect1379_primitive1"
         values="1"
         type="saturate"
         result="fbSourceGraphic" />
      <feColorMatrix
         id="mask-powermask-path-effect1379_primitive2"
         values="-1 0 0 0 1 0 -1 0 0 1 0 0 -1 0 1 0 0 0 1 0 "
         in="fbSourceGraphic" />
    </filter>
  </defs>
  <metadata
     id="metadata1528">
    <rdf:RDF>
      <cc:Work
         rdf:about="">
        <dc:title>full/color/svg/pixelfed-full-color</dc:title>
      </cc:Work>
    </rdf:RDF>
  </metadata>
  <g
     id="g1694"
     transform="matrix(0.93742386,0,0,0.94914694,8.0951716,3.6279918)"
     style="fill:none;stroke:#000000;stroke-width:8;stroke-dasharray:none;stroke-opacity:1">
    <g
       id="g379"
       transform="translate(4.2670136)">
      <path
         style="color:#000000;display:inline;fill:none;stroke:#000000;stroke-width:13.3333;stroke-linecap:round;stroke-linejoin:round;stroke-dasharray:none;stroke-opacity:1"
         d="m 78.706579,60.260906 c -9.982628,0 -18.142357,8.232273 -18.142357,18.233504 v 64.31641 L 86.70571,116.95144 h 12.089842 c 15.529988,0 28.185758,-12.75842 28.185758,-28.344186 0,-15.585758 -12.65577,-28.346348 -28.185758,-28.346348 z"
         id="TheLetterP"
         sodipodi:nodetypes="ssccssss" />
      <path
         style="color:#000000;display:inline;fill:none;fill-opacity:1;stroke:#000000;stroke-width:8.88889;stroke-linecap:round;stroke-linejoin:round;stroke-dasharray:none;stroke-opacity:1"
         d="m 79.118268,122.50544 -17.345494,20.04603 c 3.662339,21.12065 26.207688,31.9028 47.598626,29.23205 32.74946,-12.22608 -6.1227,-1.06745 -17.825078,-8.51896 -3.87833,-2.36599 -7.028055,-5.61402 -9.35951,-9.36731 -5.440986,-8.75918 -10.136248,-24.4008 -3.068544,-31.39181 z"
         id="path1036"
         sodipodi:nodetypes="ccccsc" />
      <path
         style="color:#000000;display:inline;fill:none;fill-opacity:1;stroke:#000000;stroke-width:8.88889;stroke-linecap:round;stroke-linejoin:round;stroke-dasharray:none;stroke-opacity:1"
         d="m 111.37345,114.87352 c 3.63454,-2.04905 3.63463,-2.04925 0,0 z"
         id="path1032" />
      <path
         style="color:#000000;display:inline;fill:none;fill-opacity:1;stroke:#000000;stroke-width:8.88889;stroke-linecap:round;stroke-linejoin:round;stroke-dasharray:none;stroke-opacity:1"
         d="m 137.89509,124.87306 c -9.79852,1.80149 -20.28639,-2.27762 -26.52167,-9.99954 -5.98551,3.3387 -12.912968,3.02557 -19.524728,2.98828 8.670668,17.76563 30.868268,27.48094 49.650508,20.83715 24.70868,-13.30412 31.65274,-32.61177 27.33552,-55.192191 -0.55302,2.240066 2.03497,7.144349 -0.90181,7.362499 -4.57521,17.129182 -12.2239,30.575132 -30.03782,34.003802 z"
         id="path1030" />
      <path
         style="color:#000000;display:inline;fill:none;fill-opacity:1;stroke:#000000;stroke-width:8.88889;stroke-linecap:round;stroke-linejoin:round;stroke-dasharray:none;stroke-opacity:1"
         d="m 58.929892,74.932133 c -21.371093,-0.15695 -39.68109,18.554805 -41.165217,39.468087 -1.255464,11.44388 2.407409,22.95026 8.999424,32.25715 l 7.385491,1.99648 C 28.305935,140.82386 27.002788,129.46552 28.566939,119.37428 29.847554,103.8201 44.808072,90.484978 60.590047,92.757644 v -8.897565 c -3.047844,0.91571 1.605935,-1.470052 0,-4.455294 -0.709437,-2.065218 2.537689,-5.601354 -1.660155,-4.472656 z"
         id="path1028" />
      <path
         style="color:#000000;display:inline;fill:none;fill-opacity:1;stroke:#000000;stroke-width:8.88889;stroke-linecap:butt;stroke-linejoin:round;stroke-dasharray:none;stroke-opacity:1"
         d="M 101.46027,61.301487 C 97.135752,42.68623 79.412586,27.231695 60.160365,27.830919 48.978433,23.318135 25.923848,47.074596 28.08776,46.82065 c 9.635902,-12.998002 35.46301,-9.618407 47.122781,1.916078 5.969312,2.757689 1.837675,10.221263 9.204103,8.602617"
         id="path1016"
         sodipodi:nodetypes="ccccc" />
      <path
         style="color:#000000;display:inline;fill:#000000;fill-opacity:0;stroke:#000000;stroke-width:8.88889;stroke-linecap:round;stroke-linejoin:round;stroke-dasharray:none;stroke-opacity:1"
         d="m 111.0484,22.44405 c 17.74648,6.470429 25.76379,33.610404 15.10692,49.07151 -5.76743,6.36835 4.43966,15.626363 0.20295,24.015524 16.49418,-10.907417 23.7792,-39.64933 13.28809,-57.083589 -8.61862,-9.635883 -8.04853,-9.025577 -28.59796,-16.003445 z"
         id="use78" />
      <ellipse
         style="display:inline;fill:none;stroke:#000000;stroke-width:13.3333;stroke-linecap:round;stroke-linejoin:round;stroke-dasharray:none;stroke-opacity:1"
         id="path1460"
         cx="89.505753"
         cy="97.321083"
         rx="78.66774"
         ry="77.619545" />
    </g>
  </g>
</svg>
