<svg xmlns="http://www.w3.org/2000/svg" width="192" height="192" fill="none"><path stroke="#000" stroke-linecap="round" stroke-linejoin="round" stroke-width="12" d="M105.05 60.5 86.562 38.146A5.93 5.93 0 0 0 81.992 36H27.923c-4.537 0-7.385 4.864-5.141 8.78L84.81 153.031a5.93 5.93 0 0 0 5.858 2.925l74.127-8.998c4.631-.562 6.814-5.979 3.853-9.56L143.921 107.5"/><path stroke="#000" stroke-linecap="round" stroke-linejoin="round" stroke-width="12" d="M113 94H78l35-42v56m20 0h5c6.627 0 12-5.373 12-12V64c0-6.627-5.373-12-12-12h-5"/></svg>