<svg width="192" height="192" viewBox="0 0 192 192" fill="none" xmlns="http://www.w3.org/2000/svg"><path d="M41.647 22H39a6 6 0 0 0-6 6v136a6 6 0 0 0 6 6h16a6 6 0 0 0 6-6v-21.346a66.008 66.008 0 0 0 91.877-17.986 66.002 66.002 0 0 0-29.62-97.644 66 66 0 0 0-68.386 11.017l-8.114-13.186A6 6 0 0 0 41.647 22Z" stroke="#000" stroke-width="12" stroke-linecap="round" stroke-linejoin="round"/><circle cx="98" cy="88" r="30" stroke="#000" stroke-width="12" stroke-linecap="round" stroke-linejoin="round"/></svg>