<svg width="192" height="192" viewBox="0 0 192 192" fill="none" xmlns="http://www.w3.org/2000/svg"><circle cx="96" cy="96" r="74" stroke="#000" stroke-width="12" stroke-linecap="round" stroke-linejoin="round"/><path d="M105.238 80H86.763m18.475 0 9.237 16m-9.237-16-16.95-29.356M86.763 112l-9.237-16m9.237 16h18.476m-18.476 0 16.949 29.356M77.525 96l9.237-16m-9.237 16-16.946 29.351M86.763 80H52.858m52.379 32 9.237-16m-9.237 16h33.903m-24.666-16 16.946-29.35m-27.71 74.706A46.216 46.216 0 0 1 96 142c-14.248 0-26.983-6.478-35.42-16.649m43.131 16.005c16.366-2.762 29.794-14.166 35.43-29.356m-78.562 13.351A45.814 45.814 0 0 1 50 96c0-5.626 1.01-11.017 2.859-16m0 0c5.636-15.19 19.065-26.594 35.43-29.356m0 0A46.31 46.31 0 0 1 96 50c14.248 0 26.983 6.478 35.421 16.65m0 0A45.813 45.813 0 0 1 142 96c0 5.626-1.01 11.017-2.859 16" stroke="#000" stroke-width="10" stroke-linecap="round" stroke-linejoin="round"/></svg>