<svg xmlns="http://www.w3.org/2000/svg" width="192" height="192" fill="none"><circle cx="64" cy="64" r="5" stroke="#000" stroke-linecap="round" stroke-linejoin="round" stroke-width="10"/><path stroke="#000" stroke-linecap="round" stroke-linejoin="round" stroke-width="12" d="M25 31a6 6 0 0 1 6-6h130a6 6 0 0 1 6 6v130a6 6 0 0 1-6 6H31a6 6 0 0 1-6-6z"/><path stroke="#000" stroke-linecap="round" stroke-linejoin="round" stroke-width="12" d="m25 151 37.533-39.648m0 0-10.176-10.749a6 6 0 0 0-8.714 0L25 120.296m37.533-8.944 29.11-30.75a6 6 0 0 1 8.714 0l34.056 35.975m0 0 13.23-13.974a6 6 0 0 1 8.714 0L167 113.845m-32.587 2.732L86.68 167"/></svg>