<?xml version="1.0" encoding="UTF-8" standalone="no"?>
<!-- Created with Inkscape (http://www.inkscape.org/) -->

<svg
   width="24"
   height="24"
   viewBox="0 0 6.3499999 6.3500002"
   version="1.1"
   id="svg8"
   inkscape:version="1.1.1 (3bf5ae0d25, 2021-09-20)"
   sodipodi:docname="pizza_hut.svg"
   xmlns:inkscape="http://www.inkscape.org/namespaces/inkscape"
   xmlns:sodipodi="http://sodipodi.sourceforge.net/DTD/sodipodi-0.dtd"
   xmlns="http://www.w3.org/2000/svg"
   xmlns:svg="http://www.w3.org/2000/svg"
   xmlns:rdf="http://www.w3.org/1999/02/22-rdf-syntax-ns#"
   xmlns:cc="http://creativecommons.org/ns#"
   xmlns:dc="http://purl.org/dc/elements/1.1/">
  <defs
     id="defs2">
    <marker
       inkscape:stockid="Arrow1Lend"
       orient="auto"
       refY="0.0"
       refX="0.0"
       id="Arrow1Lend"
       style="overflow:visible;"
       inkscape:isstock="true">
      <path
         id="path844"
         d="M 0.0,0.0 L 5.0,-5.0 L -12.5,0.0 L 5.0,5.0 L 0.0,0.0 z "
         style="fill-rule:evenodd;stroke:#000000;stroke-width:1.0pt;"
         transform="scale(0.8) rotate(180) translate(12.5,0)" />
    </marker>
    <marker
       inkscape:stockid="Arrow1Lstart"
       orient="auto"
       refY="0.0"
       refX="0.0"
       id="Arrow1Lstart"
       style="overflow:visible"
       inkscape:isstock="true">
      <path
         id="path841"
         d="M 0.0,0.0 L 5.0,-5.0 L -12.5,0.0 L 5.0,5.0 L 0.0,0.0 z "
         style="fill-rule:evenodd;stroke:#000000;stroke-width:1.0pt"
         transform="scale(0.8) translate(12.5,0)" />
    </marker>
    <pattern
       y="0"
       x="0"
       height="6"
       width="6"
       patternUnits="userSpaceOnUse"
       id="EMFhbasepattern" />
    <pattern
       y="0"
       x="0"
       height="6"
       width="6"
       patternUnits="userSpaceOnUse"
       id="EMFhbasepattern-1" />
    <pattern
       y="0"
       x="0"
       height="6"
       width="6"
       patternUnits="userSpaceOnUse"
       id="EMFhbasepattern-6" />
    <pattern
       y="0"
       x="0"
       height="6"
       width="6"
       patternUnits="userSpaceOnUse"
       id="EMFhbasepattern-15" />
    <pattern
       y="0"
       x="0"
       height="6"
       width="6"
       patternUnits="userSpaceOnUse"
       id="EMFhbasepattern-17" />
    <pattern
       y="0"
       x="0"
       height="6"
       width="6"
       patternUnits="userSpaceOnUse"
       id="EMFhbasepattern-2" />
    <pattern
       y="0"
       x="0"
       height="6"
       width="6"
       patternUnits="userSpaceOnUse"
       id="EMFhbasepattern-3" />
    <pattern
       y="0"
       x="0"
       height="6"
       width="6"
       patternUnits="userSpaceOnUse"
       id="EMFhbasepattern-61" />
    <pattern
       y="0"
       x="0"
       height="6"
       width="6"
       patternUnits="userSpaceOnUse"
       id="EMFhbasepattern-4" />
    <pattern
       y="0"
       x="0"
       height="6"
       width="6"
       patternUnits="userSpaceOnUse"
       id="EMFhbasepattern-37" />
    <pattern
       y="0"
       x="0"
       height="6"
       width="6"
       patternUnits="userSpaceOnUse"
       id="EMFhbasepattern-12" />
    <pattern
       y="0"
       x="0"
       height="6"
       width="6"
       patternUnits="userSpaceOnUse"
       id="EMFhbasepattern-44" />
    <pattern
       y="0"
       x="0"
       height="6"
       width="6"
       patternUnits="userSpaceOnUse"
       id="EMFhbasepattern-5" />
    <pattern
       y="0"
       x="0"
       height="6"
       width="6"
       patternUnits="userSpaceOnUse"
       id="EMFhbasepattern-157" />
    <pattern
       y="0"
       x="0"
       height="6"
       width="6"
       patternUnits="userSpaceOnUse"
       id="EMFhbasepattern-7" />
    <pattern
       y="0"
       x="0"
       height="6"
       width="6"
       patternUnits="userSpaceOnUse"
       id="EMFhbasepattern-8" />
    <pattern
       y="0"
       x="0"
       height="6"
       width="6"
       patternUnits="userSpaceOnUse"
       id="EMFhbasepattern-43" />
    <pattern
       y="0"
       x="0"
       height="6"
       width="6"
       patternUnits="userSpaceOnUse"
       id="EMFhbasepattern-63" />
    <pattern
       y="0"
       x="0"
       height="6"
       width="6"
       patternUnits="userSpaceOnUse"
       id="EMFhbasepattern-82" />
    <pattern
       y="0"
       x="0"
       height="6"
       width="6"
       patternUnits="userSpaceOnUse"
       id="EMFhbasepattern-70" />
    <pattern
       y="0"
       x="0"
       height="6"
       width="6"
       patternUnits="userSpaceOnUse"
       id="EMFhbasepattern-46" />
    <pattern
       y="0"
       x="0"
       height="6"
       width="6"
       patternUnits="userSpaceOnUse"
       id="EMFhbasepattern-465" />
    <pattern
       y="0"
       x="0"
       height="6"
       width="6"
       patternUnits="userSpaceOnUse"
       id="EMFhbasepattern-30" />
    <pattern
       y="0"
       x="0"
       height="6"
       width="6"
       patternUnits="userSpaceOnUse"
       id="EMFhbasepattern-9" />
    <pattern
       y="0"
       x="0"
       height="6"
       width="6"
       patternUnits="userSpaceOnUse"
       id="EMFhbasepattern-79" />
    <pattern
       y="0"
       x="0"
       height="6"
       width="6"
       patternUnits="userSpaceOnUse"
       id="EMFhbasepattern-59" />
    <pattern
       y="0"
       x="0"
       height="6"
       width="6"
       patternUnits="userSpaceOnUse"
       id="EMFhbasepattern-74" />
    <pattern
       y="0"
       x="0"
       height="6"
       width="6"
       patternUnits="userSpaceOnUse"
       id="EMFhbasepattern-50" />
    <pattern
       y="0"
       x="0"
       height="6"
       width="6"
       patternUnits="userSpaceOnUse"
       id="EMFhbasepattern-54" />
    <pattern
       y="0"
       x="0"
       height="6"
       width="6"
       patternUnits="userSpaceOnUse"
       id="EMFhbasepattern-32" />
    <pattern
       y="0"
       x="0"
       height="6"
       width="6"
       patternUnits="userSpaceOnUse"
       id="EMFhbasepattern-26" />
    <pattern
       y="0"
       x="0"
       height="6"
       width="6"
       patternUnits="userSpaceOnUse"
       id="EMFhbasepattern-83" />
    <pattern
       y="0"
       x="0"
       height="6"
       width="6"
       patternUnits="userSpaceOnUse"
       id="EMFhbasepattern-73" />
    <pattern
       y="0"
       x="0"
       height="6"
       width="6"
       patternUnits="userSpaceOnUse"
       id="EMFhbasepattern-328" />
    <pattern
       y="0"
       x="0"
       height="6"
       width="6"
       patternUnits="userSpaceOnUse"
       id="EMFhbasepattern-0" />
    <pattern
       y="0"
       x="0"
       height="6"
       width="6"
       patternUnits="userSpaceOnUse"
       id="EMFhbasepattern-85" />
    <pattern
       y="0"
       x="0"
       height="6"
       width="6"
       patternUnits="userSpaceOnUse"
       id="EMFhbasepattern-84" />
    <pattern
       y="0"
       x="0"
       height="6"
       width="6"
       patternUnits="userSpaceOnUse"
       id="EMFhbasepattern-06" />
    <pattern
       y="0"
       x="0"
       height="6"
       width="6"
       patternUnits="userSpaceOnUse"
       id="EMFhbasepattern-81" />
    <pattern
       y="0"
       x="0"
       height="6"
       width="6"
       patternUnits="userSpaceOnUse"
       id="EMFhbasepattern-33" />
    <pattern
       y="0"
       x="0"
       height="6"
       width="6"
       patternUnits="userSpaceOnUse"
       id="EMFhbasepattern-703" />
    <pattern
       y="0"
       x="0"
       height="6"
       width="6"
       patternUnits="userSpaceOnUse"
       id="EMFhbasepattern-610" />
    <pattern
       y="0"
       x="0"
       height="6"
       width="6"
       patternUnits="userSpaceOnUse"
       id="EMFhbasepattern-18" />
    <pattern
       y="0"
       x="0"
       height="6"
       width="6"
       patternUnits="userSpaceOnUse"
       id="EMFhbasepattern-72" />
    <pattern
       y="0"
       x="0"
       height="6"
       width="6"
       patternUnits="userSpaceOnUse"
       id="EMFhbasepattern-55" />
    <pattern
       y="0"
       x="0"
       height="6"
       width="6"
       patternUnits="userSpaceOnUse"
       id="EMFhbasepattern-66" />
    <pattern
       y="0"
       x="0"
       height="6"
       width="6"
       patternUnits="userSpaceOnUse"
       id="EMFhbasepattern-663" />
    <pattern
       y="0"
       x="0"
       height="6"
       width="6"
       patternUnits="userSpaceOnUse"
       id="EMFhbasepattern-51" />
    <pattern
       y="0"
       x="0"
       height="6"
       width="6"
       patternUnits="userSpaceOnUse"
       id="EMFhbasepattern-555" />
    <pattern
       y="0"
       x="0"
       height="6"
       width="6"
       patternUnits="userSpaceOnUse"
       id="EMFhbasepattern-701" />
    <pattern
       y="0"
       x="0"
       height="6"
       width="6"
       patternUnits="userSpaceOnUse"
       id="EMFhbasepattern-824" />
    <pattern
       y="0"
       x="0"
       height="6"
       width="6"
       patternUnits="userSpaceOnUse"
       id="EMFhbasepattern-814" />
  </defs>
  <sodipodi:namedview
     id="base"
     pagecolor="#ffffff"
     bordercolor="#666666"
     borderopacity="1.0"
     inkscape:pageopacity="0.0"
     inkscape:pageshadow="2"
     inkscape:zoom="22.627417"
     inkscape:cx="12.352272"
     inkscape:cy="10.230951"
     inkscape:document-units="px"
     inkscape:current-layer="layer2"
     showgrid="false"
     units="px"
     inkscape:window-width="1920"
     inkscape:window-height="1017"
     inkscape:window-x="-8"
     inkscape:window-y="-8"
     inkscape:window-maximized="1"
     inkscape:pagecheckerboard="0" />
  <metadata
     id="metadata5">
    <rdf:RDF>
      <cc:Work
         rdf:about="">
        <dc:format>image/svg+xml</dc:format>
        <dc:type
           rdf:resource="http://purl.org/dc/dcmitype/StillImage" />
      </cc:Work>
    </rdf:RDF>
  </metadata>
  <g
     inkscape:groupmode="layer"
     id="layer2"
     inkscape:label="Layer 2">
    <path
       id="path5040"
       d="m 0.57316529,3.6779915 c -0.040614,0.043922 -0.053111,0.11608 -0.03749,0.2196108 0.021869,0.1600018 0.059359,0.2321598 0.1437112,0.2729448 0.065607,0.03451 0.1093455,0.03451 0.1374629,0.0031 0.018745,-0.01882 0.018745,-0.03137 0.00937,-0.1474529 -0.00937,-0.065884 -0.018745,-0.1537281 -0.021869,-0.1882387 -0.012497,-0.128629 -0.053111,-0.1819631 -0.1405871,-0.191375 -0.049987,-0.00627 -0.059359,-0.00314 -0.0906,0.031373 z M 3.1724631,0.69442222 c -0.065607,0.00627 -0.1468353,0.021961 -0.181201,0.028236 -0.059359,0.012549 -0.1624561,0.03451 -0.3217881,0.065883 -0.1093454,0.021961 -0.340533,0.094119 -0.4342577,0.1317665 -0.040614,0.015687 -0.084352,0.03451 -0.1030971,0.040785 C 2.0415182,0.98932872 1.7572205,1.133644 1.647875,1.2058018 1.466674,1.3281564 1.4416807,1.3469802 1.3635768,1.4097261 1.0199196,1.7077693 0.78560789,2.0654211 0.67001409,2.4669951 c -0.049986,0.1882378 -0.062483,0.2823567 -0.062483,0.5270659 0,0.2447091 0.012497,0.3356907 0.053111,0.3921621 0.071856,0.094119 0.1280904,0.056471 0.1280904,-0.084707 0,-0.2635329 0.056235,-0.5835372 0.1499595,-0.8407956 C 1.1136447,1.990126 1.4573019,1.5979639 1.9071803,1.3658039 c 0.1874494,-0.094119 0.2405601,-0.11608 0.4530026,-0.169414 0.068732,-0.018824 0.1124697,-0.015687 0.1062213,0.00627 0,0.00941 -0.093725,0.056471 -0.2343116,0.1192173 C 1.8446972,1.4881539 1.7259793,1.563449 1.5291575,1.7579615 1.2542317,2.0309063 1.0948998,2.2944392 0.99180259,2.6583656 c -0.049987,0.1725513 -0.065607,0.3702011 -0.056235,0.749814 0.00937,0.401574 0.021869,0.5270659 0.068731,0.6713815 0.040614,0.122355 0.1437112,0.341966 0.2061943,0.432947 0.071856,0.103531 0.3311606,0.360789 0.4373819,0.436084 0.015621,0.0094 0.068731,0.04706 0.1218421,0.08157 0.1968218,0.138041 0.3842712,0.235298 0.5373548,0.276082 0.1124696,0.03137 0.3217881,0.0753 0.3624021,0.0753 0.03749,0 0.062483,0.03137 0.040614,0.05333 -0.015621,0.02196 -0.1249662,0.0251 -0.2155667,0.0094 -0.2686775,-0.0502 -0.4623752,-0.11608 -0.6779419,-0.21961 -0.24056,-0.119218 -0.4998649,-0.34824 -0.7154317,-0.630597 -0.14995954,-0.19765 -0.18744944,-0.23216 -0.22181514,-0.200787 -0.068731,0.05333 0,0.269807 0.14683534,0.480006 0.1343388,0.188238 0.4061403,0.432947 0.5967139,0.536478 0.3967677,0.210199 0.8872603,0.298043 1.3683803,0.241572 0.3842711,-0.04392 0.7216801,-0.147453 1.0715856,-0.326279 0.07498,-0.03765 0.103097,-0.05961 0.2249391,-0.138041 0.018745,-0.01569 0.056235,-0.04078 0.087476,-0.06275 0.081228,-0.05647 0.318664,-0.285494 0.3967679,-0.392162 C 5.0750737,4.3368051 5.2375297,3.98229 5.2937644,3.5964024 5.3250062,3.379929 5.3062611,2.8654123 5.2562745,2.5893301 5.2000405,2.3007182 5.1531781,2.1689518 5.0250877,1.9587528 4.9376113,1.8175745 4.9219904,1.7956134 4.8001484,1.6732588 4.528347,1.4034513 4.1034618,1.1587421 3.8379084,1.1242319 3.6035967,1.0897219 3.5786034,1.0834469 3.5536102,1.0614859 c -0.059359,-0.053334 -0.021869,-0.087844 0.084352,-0.078432 0.262429,0.018824 0.4748716,0.087844 0.7466733,0.2384346 0.299919,0.1662767 0.5342306,0.3482399 0.6748177,0.5239286 C 5.2687716,2.00895 5.4312278,2.4513088 5.474966,2.8842558 5.496834,3.0975919 5.481216,3.5713238 5.449973,3.7219141 5.384366,4.0419182 5.3375031,4.1799591 5.2312819,4.3964321 5.031336,4.8011441 4.7345412,5.1023241 4.212807,5.4286031 c -0.065607,0.04392 -0.090601,0.0753 -0.081228,0.106668 0.00625,0.01568 0.021868,0.01882 0.071856,0.01255 0.1218421,-0.01569 0.2874223,-0.103531 0.4873686,-0.250984 0.1312142,-0.09726 0.1343387,-0.100393 0.2155668,-0.172551 0.065607,-0.05333 0.3624019,-0.341966 0.4498784,-0.454908 C 5.5312016,4.4403551 5.6280502,4.2583921 5.699906,4.0168206 5.790506,3.7030906 5.8311202,3.3579879 5.8186235,2.9501393 5.8123747,2.8183728 5.8061263,2.6866064 5.799878,2.6615079 5.7936296,2.6332717 5.7780103,2.5579765 5.7623885,2.4920933 5.6811604,2.1124804 5.4874629,1.7077691 5.2500268,1.4191378 4.9344872,1.0363876 4.5314709,0.81991412 3.9222606,0.70383412 3.7972944,0.68187292 3.3255468,0.67246112 3.1724631,0.69442222 Z M 3.7254386,2.6269971 c 0.024993,0.015687 0.040614,0.056471 0.056235,0.1411784 0.00625,0.047059 0.021868,0.1098053 0.034366,0.1443155 L 3.8347846,2.9721 4.0878413,3.056807 c 0.259305,0.087844 0.2936706,0.1035308 0.4779959,0.1945124 0.1374627,0.065883 0.1687044,0.097256 0.1562077,0.147453 -0.00937,0.043922 -0.065607,0.078432 -0.1062214,0.069021 -0.012497,-0.00314 -0.2374358,0 -0.4936166,0.00627 -0.4373819,0.00941 -0.9434951,0.040785 -1.1403169,0.072158 -0.046862,0.00627 -0.1468353,0.018824 -0.2249392,0.028236 -0.1437112,0.018824 -0.2874224,0.037648 -0.5748447,0.078432 -0.096849,0.012549 -0.2155668,0.031373 -0.2655533,0.037648 -0.049986,0.00627 -0.140587,0.018824 -0.199946,0.031373 -0.1030971,0.015687 -0.1155937,0.015687 -0.1437112,-0.00314 -0.031241,-0.018824 -0.031241,-0.018824 -0.021869,-0.047059 0.024993,-0.059608 0.4561266,-0.3074548 0.7622939,-0.4329468 0.07498,-0.03451 0.1468354,-0.062746 0.1530836,-0.072158 0.00937,-0.00627 0.068732,-0.087844 0.1312146,-0.1851005 0.078104,-0.1160799 0.1218421,-0.1725513 0.1405871,-0.1788259 0.012497,0 0.1218421,-0.025098 0.2436841,-0.047059 0.118718,-0.025098 0.2311876,-0.047059 0.2499325,-0.050197 0.021869,-0.00314 0.1062213,-0.021961 0.1936976,-0.040785 0.2093186,-0.047059 0.2780499,-0.056471 0.2999189,-0.037648 z"
       style="fill:#000000;fill-opacity:1;fill-rule:evenodd;stroke:none;stroke-width:0.08278476"
       inkscape:connector-curvature="0" />
  </g>
</svg>
