<svg width="192" height="192" fill="none" xmlns="http://www.w3.org/2000/svg"><path d="M145.828 145.828 170 170m-24.172-24.172s-31.587-31.587-68.803.84c-2.512 2.189-6.333 2.227-8.69-.129l-37.679-37.68S4.351 82.555 43.453 43.453c39.102-39.102 65.406-12.797 65.406-12.797l37.68 37.68c2.356 2.356 2.318 6.177.129 8.689-32.427 37.216-.84 68.803-.84 68.803Z" stroke="#000" stroke-width="12" stroke-linecap="round" stroke-linejoin="round"/><circle cx="84.373" cy="77.302" r="3" transform="rotate(-45 84.373 77.302)" stroke="#000" stroke-width="6" stroke-linecap="round" stroke-linejoin="round"/><circle cx="85.787" cy="53.26" r="3" transform="rotate(-45 85.787 53.26)" stroke="#000" stroke-width="6" stroke-linecap="round" stroke-linejoin="round"/><circle cx="73.059" cy="94.272" r="3" transform="rotate(-45 73.059 94.272)" stroke="#000" stroke-width="6" stroke-linecap="round" stroke-linejoin="round"/><circle cx="105.586" cy="61.745" r="3" transform="rotate(-45 105.586 61.745)" stroke="#000" stroke-width="6" stroke-linecap="round" stroke-linejoin="round"/><circle cx="107.707" cy="82.251" r="3" transform="rotate(-45 107.707 82.251)" stroke="#000" stroke-width="6" stroke-linecap="round" stroke-linejoin="round"/><circle cx="107" cy="102.757" r="3" transform="rotate(-45 107 102.757)" stroke="#000" stroke-width="6" stroke-linecap="round" stroke-linejoin="round"/><circle cx="83.665" cy="113.364" r="3" transform="rotate(-45 83.665 113.364)" stroke="#000" stroke-width="6" stroke-linecap="round" stroke-linejoin="round"/><circle cx="51.139" cy="87.908" r="3" transform="rotate(-45 51.139 87.908)" stroke="#000" stroke-width="6" stroke-linecap="round" stroke-linejoin="round"/><circle cx="61.038" cy="66.695" r="3" transform="rotate(-45 61.038 66.695)" stroke="#000" stroke-width="6" stroke-linecap="round" stroke-linejoin="round"/><circle cx="82.251" cy="82.251" r="35" transform="rotate(-45 82.251 82.251)" stroke="#000" stroke-width="10" stroke-linecap="round" stroke-linejoin="round"/></svg>