<svg width="192" height="192" viewBox="0 0 192 192" fill="none" xmlns="http://www.w3.org/2000/svg"><path d="m25 89 14 14m76-14-14 14m17 38a48 48 0 0 0-96 0h96Z" stroke="#000" stroke-width="12" stroke-linecap="round" stroke-linejoin="round"/><circle cx="53" cy="121" r="3" stroke="#000" stroke-width="6" stroke-linecap="round" stroke-linejoin="round"/><circle cx="87" cy="121" r="3" stroke="#000" stroke-width="6" stroke-linecap="round" stroke-linejoin="round"/><path d="M98.914 72.883a74 74 0 0 0-27.896-5.876M144 141a74.002 74.002 0 0 0-11.52-39.651" stroke="#000" stroke-width="12" stroke-linecap="round" stroke-linejoin="round"/><path d="M170 141a100.006 100.006 0 0 0-61.732-92.388A99.998 99.998 0 0 0 70 41" stroke="#000" stroke-width="12" stroke-linecap="round" stroke-linejoin="round"/></svg>