<svg width="192" height="192" viewBox="0 0 192 192" fill="none" xmlns="http://www.w3.org/2000/svg"><path d="M22 30.5C14 47 34 31.5 36 45m8.88-25c-7.88 13 11 13.5 11 13.5M155 46c6-12 17-9 17-9M59 63c14 6 16-3 32 0M64 47c7.68 3.292 11.75 2.069 16.5.79" stroke="#000" stroke-width="8" stroke-linecap="round" stroke-linejoin="round"/><circle cx="120" cy="88" r="22" stroke="#000" stroke-width="10" stroke-linecap="round" stroke-linejoin="round"/><circle cx="41" cy="95" r="20" stroke="#000" stroke-width="10" stroke-linecap="round" stroke-linejoin="round"/><ellipse cx="122.5" cy="87" rx="1.5" ry="3" stroke="#000" stroke-width="6" stroke-linecap="round" stroke-linejoin="round"/><ellipse cx="38.5" cy="94" rx="1.5" ry="3" stroke="#000" stroke-width="6" stroke-linecap="round" stroke-linejoin="round"/><path d="m40 116 5 11h21M34 75 22 64s23-42 82-42 66 52 66 60c0 38-39 67-48 73s-28 15-28 15l-32-1v-12l-10-2 14-28m47 29s-10-29-26-29H66" stroke="#000" stroke-width="12" stroke-linecap="round" stroke-linejoin="round"/><path d="m91 155 5 12m-18-39 1 10" stroke="#000" stroke-width="10" stroke-linecap="round" stroke-linejoin="round"/></svg>