<svg xmlns="http://www.w3.org/2000/svg" width="192" height="192" fill="none"><path stroke="#000" stroke-linecap="round" stroke-linejoin="round" stroke-width="12" d="M71 47a25 25 0 1 1 50 0 23.2 23.2 0 0 1-1.903 9.184 24 24 0 0 1-5.419 7.787 25.1 25.1 0 0 1-8.111 5.202A25.9 25.9 0 0 1 96 71H71m-24 0a25 25 0 1 0 0 50m74 24c0 6.63-2.634 12.989-7.322 17.678a25.004 25.004 0 0 1-35.356 0A25 25 0 0 1 71 145c0-3.152.647-6.273 1.903-9.184a24 24 0 0 1 5.42-7.787 25.1 25.1 0 0 1 8.11-5.202A25.9 25.9 0 0 1 96 121h25m24 0c6.63 0 12.989-2.634 17.678-7.322a25.004 25.004 0 0 0 0-35.356A25 25 0 0 0 145 71"/></svg>