<svg width="192" height="192" viewBox="0 0 192 192" fill="none" xmlns="http://www.w3.org/2000/svg"><path d="M32.995 129.197a6.047 6.047 0 0 0 8.616 0l28.563-28.744c2.434-2.45 2.434-6.456 0-8.906L41.611 62.803a6.048 6.048 0 0 0-8.616 0l-9.17 9.227c-2.433 2.45-2.433 6.457 0 8.906L38.796 96l-14.97 15.064c-2.433 2.449-2.433 6.456 0 8.906l9.17 9.227Zm89.637-44.565H104a6 6 0 0 0-6 6v10.736a6 6 0 0 0 6 6h18.632V126a6 6 0 0 0 6 6h10.736a6 6 0 0 0 6-6v-18.632H164a6 6 0 0 0 6-6V90.632a6 6 0 0 0-6-6h-18.632V66a6 6 0 0 0-6-6h-10.736a6 6 0 0 0-6 6v18.632Z" stroke="#000" stroke-width="12" stroke-linecap="round" stroke-linejoin="round"/></svg>