<?xml version="1.0" encoding="UTF-8"?>
<svg width="24" height="24" fill="none" version="1.1" viewBox="0 0 24 24" xmlns="http://www.w3.org/2000/svg">
 <path d="m3.9155 22c-0.071 0-0.139-0.016-0.2078-0.033-0.2898-0.073-0.5181-0.2593-0.667-0.5451-0.09-0.1724-0.1403-0.3512-0.1695-0.6011-0.019406-6.1105-0.012897-9.5144-0.01-17.56 0.02-0.3248 0.1041-0.5965 0.2503-0.8086 0.044-0.063 0.069-0.094 0.1258-0.1506 0.1693-0.1695 0.3528-0.2591 0.6033-0.2945 0.059-0.01 0.2509-0.01 0.3168 0 0.1722 0.024 0.3304 0.069 0.5062 0.1456 0.056 0.024 0.1663 0.079 0.2033 0.1017 0.016 0.01 0.095 0.054 0.1753 0.099 0.08 0.045 0.2091 0.1166 0.286 0.1595 0.077 0.043 0.164 0.092 0.1934 0.108 0.03 0.016 0.1174 0.065 0.1955 0.109 0.2071 0.1156 0.3487 0.1946 0.4095 0.2284 0.029 0.016 0.1174 0.066 0.1955 0.1091 0.078 0.044 0.3345 0.1867 0.5699 0.318 0.2354 0.1312 0.5725 0.3192 0.749 0.4177 0.1765 0.099 0.3682 0.2054 0.4259 0.2376 0.058 0.032 0.1772 0.099 0.2655 0.1481 0.088 0.049 0.2243 0.1252 0.3024 0.1687 0.078 0.043 0.2059 0.1148 0.284 0.1585 0.078 0.044 0.166 0.093 0.1955 0.1091 0.029 0.016 0.1153 0.064 0.1909 0.1064 0.076 0.042 0.139 0.077 0.1409 0.077h-3.6914v12.148c0.02 0.1571 0.086 0.2914 0.1982 0.4033 0.1041 0.1034 0.2385 0.1709 0.3942 0.198 2.1408 0.01393 3.3192 0.01 5.9815 0.01-2.5945 1.4481-4.8667 2.7166-7.4393 4.1509-0.2749 0.1536-0.5203 0.239-0.7603 0.2646-0.052308 0.001657-0.20761 0.015753-0.2135 0.0162zm2.7571-4.7026c-0.1205-0.01-0.2308-0.0237-0.3455-0.1002-0.067-0.045-0.1219-0.1008-0.171-0.1747-0.052-0.078-0.09-0.1823-0.1119-0.2755v-9.3354h12.981c-0.0042 2.1466 0.0094 4.3021-0.01 6.4444-2.1925 1.1816-4.4139 2.4369-6.2088 3.4408-2.0446 5.7e-4 -4.0892 7.67e-4 -6.1338 6e-4zm2.5495-3.192c0.099-0.017 0.1773-0.043 0.2614-0.088 0.1501-0.08 0.2509-0.1707 0.3451-0.3109 0.043-0.064 0.087-0.1652 0.1079-0.2486 0.02-0.079 0.025-0.1327 0.023-0.2256 0-0.1088-0.015-0.1741-0.049-0.267l-0.017-0.045 0.047-0.046c0.50528-0.49113 0.96856-0.92653 1.4691-1.4012 0.1621 0.052 0.2298 0.064 0.3469 0.064 0.1017 0 0.1848-0.014 0.2947-0.048 0.026-0.01 0.049-0.015 0.052-0.017 0.18992 0.16957 0.39718 0.37551 0.5957 0.5666l0.02 0.018-0.013 0.033c-0.092 0.231-0.071 0.4969 0.059 0.7278 0.063 0.1125 0.1954 0.2443 0.3111 0.3102 0.1684 0.096 0.3405 0.1374 0.5315 0.1282 0.2394-0.011 0.4808-0.1266 0.6369-0.3039 0.1019-0.1158 0.1747-0.2615 0.2025-0.4054 0.029-0.1483 0.014-0.3133-0.039-0.4489-0.01-0.02-0.014-0.038-0.014-0.039 0.51292-0.49516 1.0313-0.99088 1.5112-1.4506l0.013 0.01c0.04 0.016 0.1132 0.038 0.151 0.045 0.071 0.014 0.1055 0.017 0.1831 0.017 0.093 0 0.1408-0.01 0.2202-0.025 0.1763-0.044 0.3106-0.1198 0.4383-0.2483 0.2021-0.2032 0.2873-0.4812 0.232-0.757-0.026-0.1276-0.1011-0.2825-0.186-0.3817-0.037-0.043-0.1235-0.1215-0.1666-0.1508-0.08-0.054-0.1419-0.085-0.2334-0.1155-0.1081-0.036-0.194-0.05-0.3064-0.05-0.1085 2e-4 -0.1948 0.015-0.2979 0.05-0.073 0.025-0.1229 0.048-0.1811 0.082-0.1121 0.067-0.2163 0.1658-0.2845 0.2709-0.034 0.053-0.068 0.1158-0.084 0.1589-0.017 0.043-0.039 0.1324-0.047 0.1893-0.01 0.06-0.01 0.1705 0 0.2305 0.01 0.056 0.032 0.1503 0.047 0.19l0.011 0.03c-0.51244 0.49078-1.0434 0.99977-1.51 1.4465l-0.05-0.017c-0.1161-0.039-0.2008-0.052-0.3238-0.049-0.1096 0-0.1732 0.014-0.2757 0.049-0.026 0.01-0.049 0.015-0.052 0.015-0.20419-0.19-0.43133-0.41393-0.6109-0.5873l0.01-0.024c0.067-0.1603 0.078-0.358 0.029-0.5321-0.024-0.086-0.066-0.1729-0.1279-0.2666-0.063-0.096-0.2005-0.2156-0.3082-0.2695-0.16-0.08-0.3074-0.1115-0.4892-0.1038-0.1824 0.01-0.3501 0.066-0.5 0.1742-0.053 0.038-0.1649 0.1491-0.1982 0.1962-0.076 0.1073-0.134 0.2545-0.1522 0.3848-0.01 0.056-0.01 0.1728 0 0.2284 0.011 0.072 0.029 0.1357 0.051 0.1891l0.01 0.024-0.024 0.023c-0.42534 0.40574-0.95745 0.9164-1.4511 1.3892l-0.04 0.036-0.034-0.013c-0.1638-0.063-0.3775-0.072-0.5552-0.023-0.067 0.018-0.097 0.03-0.1685 0.065-0.066 0.032-0.1113 0.06-0.1667 0.1034-0.034 0.026-0.052 0.044-0.1155 0.1106-0.1083 0.1139-0.1878 0.2942-0.2075 0.4705-0.01 0.083 0 0.1935 0.018 0.276 0.012 0.049 0.048 0.1499 0.065 0.1847 0.04 0.079 0.1046 0.1654 0.1744 0.2328 0.054 0.052 0.1007 0.088 0.1698 0.1287 0.1001 0.06 0.1839 0.091 0.2907 0.1097 0.082 0.014 0.1074 0.016 0.1996 0.015 0.071 0 0.1003 0 0.1502-0.012zm10.052-3.811s1.0157 0.5609 1.1045 0.614c0.3197 0.1913 0.5537 0.4307 0.67 0.6856 0.088 0.1923 0.1123 0.3988 0.071 0.594-0.064 0.2971-0.2734 0.5795-0.6041 0.8134-0.46549 0.28678-0.73124 0.42426-1.2464 0.712 5e-3 -1.1397 0.0054-2.2793 5e-3 -3.419zm-13.231-5.2246h12.974v2.0905h-12.98c0.00639-0.69682 6e-3 -1.3937 6e-3 -2.0905z" fill="#000" stroke-width=".0041152"/>
</svg>
