<?xml version="1.0" encoding="utf-8"?>
<svg
	version="1.1"
	xmlns="http://www.w3.org/2000/svg"
	xmlns:xlink="http://www.w3.org/1999/xlink"
	x="0%" y="0%"
	width="100%" height="100%"
	viewBox="0 0 24.0 24.0"
	enable-background="new 0 0 24.0 24.0"
	xml:space="preserve">
	<path
		fill="#000000"
		stroke="#000000"
		fill-opacity="1.000"
		stroke-opacity="1.000"
		fill-rule="nonzero"
		stroke-width="0.021852463"
		stroke-linejoin="miter"
		stroke-linecap="square"
		d="M7.24,13.69C6.21,14.83,3.38,13.18,4.50,11.22L7.22,6.98C7.88,5.98,8.87,5.43,9.75,5.39L15.52,5.39C16.48,5.46,17.25,5.95,18.02,7.02L20.76,11.29C21.97,13.29,19.20,14.94,17.90,13.66L15.99,11.69L9.15,11.69zM10.04,6.95C10.06,6.40,9.02,6.40,9.02,7.00L9.02,8.00L7.99,8.00C7.39,7.98,7.36,9.03,7.97,9.05L9.00,9.05L8.99,10.04C8.99,10.63,10.04,10.63,10.04,10.03L10.03,9.02L11.06,9.01C11.66,9.01,11.66,7.97,11.07,7.97L10.04,7.96L10.04,6.95zM16.00,6.41C15.61,6.41,15.29,6.73,15.29,7.12C15.29,7.51,15.61,7.83,16.00,7.83C16.39,7.83,16.71,7.51,16.71,7.12C16.71,6.73,16.39,6.41,16.00,6.41zM14.61,7.76C14.21,7.76,13.90,8.08,13.90,8.47C13.90,8.87,14.21,9.18,14.61,9.18C15.00,9.18,15.32,8.87,15.32,8.47C15.32,8.08,15.00,7.76,14.61,7.76zM16.00,9.05C15.61,9.05,15.29,9.37,15.29,9.76C15.29,10.15,15.61,10.47,16.00,10.47C16.39,10.47,16.71,10.15,16.71,9.76C16.71,9.37,16.39,9.05,16.00,9.05zM17.35,7.76C16.96,7.76,16.64,8.08,16.64,8.47C16.64,8.87,16.96,9.18,17.35,9.18C17.74,9.18,18.06,8.87,18.06,8.47C18.06,8.08,17.74,7.76,17.35,7.76z"/>
	<path
		fill="#000000"
		stroke="#000000"
		fill-opacity="1.000"
		stroke-opacity="1.000"
		fill-rule="nonzero"
		stroke-width="0.021852463"
		stroke-linejoin="miter"
		stroke-linecap="square"
		d="M9.90,4.30L6.33,2.23C4.91,1.44,2.93,2.69,2.93,4.16L2.92,19.85C3.00,21.05,4.69,22.67,6.40,21.71L17.66,15.22L15.40,12.84L9.68,12.84L7.93,14.64C5.84,16.44,2.03,13.49,3.54,10.74L6.37,6.24C7.47,4.69,8.27,4.55,9.90,4.30z"/>
</svg>