  <svg width="24" height="24" viewBox="0 0 24 24" fill="none" xmlns="http://www.w3.org/2000/svg">
<path fill-rule="evenodd" clip-rule="evenodd" d="M20.4743 16.6588C20.4743 16.6588 21.4315 16.3072 21.8221 15.8143C22.2124 15.3214 22.0393 14.6055 20.5025 14.1199C19.1387 13.6029 17.4016 13.4253 15.9829 13.5816C14.5642 13.7388 13.5552 14.0958 13.5552 14.0958L13.354 14.164V16.1214L16.8455 14.8917C17.4407 14.6777 18.3142 14.6323 18.7967 14.7909C19.28 14.9489 19.1887 15.2501 18.5941 15.4632L13.354 17.3303V19.2164L20.4743 16.6588ZM14.0318 7.77912V12.6026C16.0624 13.5829 17.6605 12.6017 17.6605 10.0128C17.6605 7.35664 16.7252 6.1778 13.9664 5.23063C12.8815 4.86494 10.8637 4.25712 9.47857 4V18.4023L12.7362 19.4363V7.35709C12.7362 6.79107 12.9888 6.41311 13.3958 6.54349C13.9273 6.69113 14.0318 7.21264 14.0318 7.77912ZM2.38006 15.2297C1.66094 15.763 1.92351 16.6888 3.50121 17.1331C5.19384 17.6909 6.91146 17.8009 8.52413 17.5374C8.55919 17.5315 8.5952 17.5256 8.63141 17.5196C8.70407 17.5076 8.77755 17.4955 8.84576 17.4833V15.7894L7.23354 16.3745C6.63889 16.588 5.76487 16.6329 5.28197 16.4749C4.79953 16.3168 4.89084 16.0151 5.48458 15.8021L8.84576 14.5992V12.7057L4.1749 14.3666C4.1749 14.3666 3.04467 14.7373 2.38006 15.2297Z" fill="black"/>
</svg>
