<?xml version="1.0" encoding="UTF-8"?>
<svg width="192px" height="192px" viewBox="0 0 192 192" version="1.1" xmlns="http://www.w3.org/2000/svg" xmlns:xlink="http://www.w3.org/1999/xlink">
    <title>Artboard</title>
    <g id="Artboard" stroke="none" stroke-width="1" fill="none" fill-rule="evenodd">
        <g id="Group" transform="translate(21.9391, 15.5859)" stroke="#000000" stroke-width="12">
            <path d="M74.1907712,0 C67.4710173,10.3193373 59.7370399,19.8407394 50.9888389,28.5642064 C42.2406379,37.2876734 32.584647,45.1070725 22.0208662,52.0224038" id="Path" stroke-linecap="round" stroke-linejoin="round"></path>
            <polyline id="Path-2" stroke-linecap="round" stroke-linejoin="round" points="57.4825336 22.0921728 102.413491 22.0921728 70.7502638 56.880722"></polyline>
            <rect id="Rectangle" x="36.1819094" y="58.5953481" width="74.8595957" height="52.8551648" rx="6"></rect>
            <path d="M73.6117072,56.880722 C73.6117072,90.852475 73.6117072,107.838351 73.6117072,107.838351" id="Path-3" stroke-linecap="round" stroke-linejoin="round"></path>
            <path d="M73.0453661,66.7120867 C73.0453661,89.8746455 73.0453661,101.455925 73.0453661,101.455925" id="Path-3-Copy" stroke-linecap="round" stroke-linejoin="round" transform="translate(73.0454, 84.084) rotate(90) translate(-73.0454, -84.084)"></path>
            <path d="M10.6823925,127.893885 L9.98115521,131.535257 C8.39401573,139.776926 5.7756087,147.785998 2.18769699,155.373555 L0,160 L0,160" id="Path-4" stroke-linecap="round" stroke-linejoin="round"></path>
            <line x1="42.2791849" y1="131.595295" x2="53.4741171" y2="143.946942" id="Path-5" stroke-linecap="round" stroke-linejoin="round"></line>
            <line x1="83.1289385" y1="131.595295" x2="94.3238708" y2="143.946942" id="Path-5-Copy" stroke-linecap="round" stroke-linejoin="round"></line>
            <line x1="123.978692" y1="127.893885" x2="148.750751" y2="151.660278" id="Path-5-Copy-2" stroke-linecap="round" stroke-linejoin="round"></line>
        </g>
    </g>
</svg>