<?xml version="1.0" encoding="UTF-8"?>
<svg width="192px" height="192px" viewBox="0 0 192 192" version="1.1" xmlns="http://www.w3.org/2000/svg" xmlns:xlink="http://www.w3.org/1999/xlink">
    <title>Artboard</title>
    <g id="Artboard" stroke="none" stroke-width="1" fill="none" fill-rule="evenodd">
        <g id="Group" transform="translate(28, 22)" stroke="#000000" stroke-width="12">
            <path d="M68,0 C61.8173514,9.52143988 54.7015455,18.3066414 46.6525823,26.3556047 C38.6036191,34.4045679 29.719425,41.6193663 20,48" id="Path" stroke-linecap="round" stroke-linejoin="round"></path>
            <polyline id="Path-2" stroke-linecap="round" stroke-linejoin="round" points="53 20 94 20 65.1069519 52"></polyline>
            <rect id="Rectangle" x="33" y="54" width="69" height="48" rx="6"></rect>
            <path d="M67.5,52 C67.5,83.3333333 67.5,99 67.5,99" id="Path-3" stroke-linecap="round" stroke-linejoin="round"></path>
            <path d="M66.5,61 C66.5,82.3333333 66.5,93 66.5,93" id="Path-3-Copy" stroke-linecap="round" stroke-linejoin="round" transform="translate(66.5, 77) rotate(90) translate(-66.5, -77)"></path>
            <path d="M10,118 L9.50403216,120.570725 C7.91173905,128.823978 5.28523064,136.843546 1.68664193,144.439712 L0,148 L0,148" id="Path-4" stroke-linecap="round" stroke-linejoin="round"></path>
            <line x1="38" y1="121" x2="49" y2="133" id="Path-5" stroke-linecap="round" stroke-linejoin="round"></line>
            <line x1="76" y1="121" x2="87" y2="133" id="Path-5-Copy" stroke-linecap="round" stroke-linejoin="round"></line>
            <line x1="114" y1="118" x2="137" y2="140" id="Path-5-Copy-2" stroke-linecap="round" stroke-linejoin="round"></line>
        </g>
    </g>
</svg>