<svg xmlns="http://www.w3.org/2000/svg" width="192" height="192" fill="none" viewBox="0 0 192 192"><g stroke="#000" stroke-linecap="round" stroke-linejoin="round" stroke-width="12"><path d="M170 22a46.01 46.01 0 0 1-46 46"/><path d="M124 68a46.007 46.007 0 0 1 46-46m-45.716 102.284a39.996 39.996 0 0 1-56.568 0"/><path d="M133 160.086A74 74 0 0 0 168.422 80.8c-9.035 6.616-19.217 10.941-29.297 12.325-13.526 1.856-25.761-1.736-34.012-9.988s-11.844-20.486-9.988-34.012c1.243-9.057 4.861-18.196 10.382-26.512a74.001 74.001 0 0 0-61.833 125.713A74 74 0 0 0 133 160.086"/></g></svg>