<svg width="192" height="192" viewBox="0 0 192 192" fill="none" xmlns="http://www.w3.org/2000/svg"><path d="M77 149h58m0-70a35 35 0 1 1 0 70m-58 0a55.003 55.003 0 0 1-53.126-40.765A55 55 0 0 1 129.915 79" stroke="#000" stroke-width="12" stroke-linecap="round" stroke-linejoin="round"/><path d="M135 79c-1.667 0-3.326.16-4.952.476m0 0 .078.289a54.994 54.994 0 0 1-7.08 44.314 24.977 24.977 0 0 1-5.724-4.108 23.966 23.966 0 0 1-5.419-7.787A23.17 23.17 0 0 1 110 103c0-3.152.647-6.273 1.903-9.184a23.96 23.96 0 0 1 5.419-7.787 25.103 25.103 0 0 1 8.111-5.202 25.766 25.766 0 0 1 4.615-1.351Z" stroke="#000" stroke-width="12" stroke-linecap="round" stroke-linejoin="round"/></svg>