<svg xmlns="http://www.w3.org/2000/svg" width="192" height="192" fill="none"><path stroke="#000" stroke-linecap="round" stroke-linejoin="round" stroke-width="12" d="M114 126a52 52 0 0 0 36.77-15.23 52.004 52.004 0 0 0 0-73.54A52 52 0 0 0 114 22"/><path stroke="#000" stroke-linecap="round" stroke-linejoin="round" stroke-width="12" d="M114 100a26 26 0 1 0 0-52m0 0H92a6 6 0 0 0-6 6v40a6 6 0 0 0 6 6h22"/><path stroke="#000" stroke-linecap="round" stroke-linejoin="round" stroke-width="12" d="M114 22H66a6 6 0 0 0-6 6v66a6 6 0 0 1-6 6H28a6 6 0 0 0-6 6v14a6 6 0 0 0 6 6h26a6 6 0 0 1 6 6v32a6 6 0 0 0 6 6h14a6 6 0 0 0 6-6v-32a6 6 0 0 1 6-6h22"/></svg>