<svg xmlns="http://www.w3.org/2000/svg" width="192" height="192" fill="none" viewBox="0 0 192 192"><circle cx="118" cy="124" r="42" stroke="#000" stroke-width="12"/><circle cx="158" cy="46" r="12" stroke="#000" stroke-width="12"/><circle cx="36" cy="46" r="12" stroke="#000" stroke-width="12"/><path stroke="#000" stroke-linecap="round" stroke-width="12" d="M76 82h42m-42 84h42"/><path stroke="#000" stroke-width="12" d="M98 166c-23.196 0-42-18.804-42-42s18.804-42 42-42"/><path stroke="#000" stroke-width="12" d="M78 166c-23.196 0-42-18.804-42-42s18.804-42 42-42"/><path stroke="#000" stroke-linecap="round" stroke-linejoin="round" stroke-width="10" d="M102 108v24c0 8 5 8 9 8"/><path stroke="#000" stroke-linecap="round" stroke-linejoin="round" stroke-width="10" d="M95 116h22l13 24 11-24"/><path stroke="#000" stroke-linecap="round" stroke-width="12" d="M78 34v12M63 26v32M22 34v32"/><path stroke="#000" stroke-linecap="round" stroke-linejoin="round" stroke-width="12" d="M123 26v24c0 8 5 8 9 8"/><path stroke="#000" stroke-linecap="round" stroke-width="12" d="M116 34h16m-30 0v12"/><path stroke="#000" stroke-width="12" d="M78 46a12 12 0 0 0 24 0"/></svg>