<?xml version="1.0" encoding="utf-8"?>
<svg version="1.1" viewBox="0 0 192 192" width="192" height="192" style="stroke:none;stroke-linecap:butt;stroke-linejoin:miter;stroke-width:1;stroke-dasharray:none;fill:#000000;fill-opacity:1;fill-rule:evenodd" font-family="Arial" font-size="15px" xmlns:xlink="http://www.w3.org/1999/xlink" xmlns="http://www.w3.org/2000/svg">
  <path id="Circle" d="M16,96C16,52.1133 52.1133,16 96,16C139.8867,16 176,52.1133 176,96C176,139.8867 139.8867,176 96,176C52.1133,176 16,139.8867 16,96z" style="stroke:#000000;stroke-width:10;fill:none;fill-opacity:0;" />
  <path id="Shape" d="M85.2214,63.4062L78.4541,48.7089C84.8106,43.8764 106.2156,43.8658 113.8287,48.5638L105.7994,63.4117L118.3182,70.7697" style="stroke:#000000;stroke-linecap:round;stroke-linejoin:round;stroke-width:8;fill:none;" />
  <path id="Shape1" d="M106.7785,128.5938L113.5459,143.2911C107.1894,148.1236 85.7844,148.1342 78.1713,143.4362L86.2006,128.5883L73.6818,121.2303" style="stroke:#000000;stroke-linecap:round;stroke-linejoin:round;stroke-width:8;fill:none;" />
  <path id="Shape2" d="M118.8378,70.3686L128.1823,57.1593C135.5456,60.2479 146.2573,78.7798 145.9953,87.722L129.122,88.1924L129.0092,102.713" style="stroke:#000000;stroke-linecap:round;stroke-linejoin:round;stroke-width:8;fill:none;" />
  <path id="Shape3" d="M73.1622,121.6314L63.8177,134.8407C56.4543,131.7521 45.7427,113.2202 46.0047,104.278L62.878,103.8076L62.9908,89.2871" style="stroke:#000000;stroke-linecap:round;stroke-linejoin:round;stroke-width:8;fill:none;" />
  <path id="Shape4" d="M129.6163,102.9624L145.7282,104.4504C146.7351,112.3715 136.0418,130.914 128.1666,135.1582L119.3226,120.7807L106.691,127.9433" style="stroke:#000000;stroke-linecap:round;stroke-linejoin:round;stroke-width:8;fill:none;" />
  <path id="Shape5" d="M62.3837,89.0376L46.2718,87.5497C45.2649,79.6285 55.9582,61.086 63.8334,56.8418L72.6774,71.2193L85.309,64.0568" style="stroke:#000000;stroke-linecap:round;stroke-linejoin:round;stroke-width:8;fill:none;" />
</svg>