<?xml version="1.0" encoding="UTF-8" standalone="no"?>
<!-- Created with Inkscape (http://www.inkscape.org/) -->

<svg
   width="24"
   height="24"
   viewBox="0 0 6.3499999 6.3500002"
   version="1.1"
   id="svg5"
   sodipodi:docname="pocket.svg"
   inkscape:version="1.1.1 (3bf5ae0d25, 2021-09-20)"
   xmlns:inkscape="http://www.inkscape.org/namespaces/inkscape"
   xmlns:sodipodi="http://sodipodi.sourceforge.net/DTD/sodipodi-0.dtd"
   xmlns="http://www.w3.org/2000/svg"
   xmlns:svg="http://www.w3.org/2000/svg">
  <sodipodi:namedview
     id="namedview6"
     pagecolor="#ffffff"
     bordercolor="#666666"
     borderopacity="1.0"
     inkscape:pageshadow="2"
     inkscape:pageopacity="0.0"
     inkscape:pagecheckerboard="0"
     showgrid="false"
     inkscape:zoom="15.30191"
     inkscape:cx="2.7120798"
     inkscape:cy="20.095531"
     inkscape:window-width="1920"
     inkscape:window-height="1009"
     inkscape:window-x="-8"
     inkscape:window-y="-8"
     inkscape:window-maximized="1"
     inkscape:current-layer="layer4"
     showguides="false" />
  <defs
     id="defs2" />
  <g
     inkscape:groupmode="layer"
     id="layer4"
     inkscape:label="Layer 1">
    <path
       id="path2882"
       style="color:#000000;fill:#000000;fill-opacity:1;stroke-width:3.99999;stroke-linejoin:round;-inkscape-stroke:none;stroke:none"
       d="M 3.5273438 3.0253906 A 1.5282782 1.5282782 0 0 0 2 4.5546875 L 2 10.867188 C 2 14.108004 3.249748 16.728861 5.1523438 18.441406 C 7.0549398 20.153948 9.5381352 20.97679 12 20.974609 C 14.461864 20.972391 16.945972 20.142505 18.847656 18.429688 C 20.74934 16.71687 21.999941 14.101492 22 10.867188 L 22 4.5546875 A 1.5282782 1.5282782 0 0 0 20.472656 3.0253906 L 3.5273438 3.0253906 z M 7.2246094 7.6230469 A 1.7499949 1.7499949 0 0 1 8.4667969 8.1191406 L 12.003906 11.560547 L 15.53125 8.1191406 A 1.7499949 1.7499949 0 0 1 16.779297 7.625 A 1.7499949 1.7499949 0 0 1 18.003906 8.1503906 A 1.7499949 1.7499949 0 0 1 17.974609 10.623047 L 13.220703 15.257812 A 1.7501699 1.7501699 0 0 1 10.777344 15.257812 L 6.0234375 10.623047 A 1.7499949 1.7499949 0 0 1 5.9941406 8.1503906 A 1.7499949 1.7499949 0 0 1 7.2246094 7.6230469 z "
       transform="scale(0.26458334)" />
  </g>
</svg>
