<svg width="192" height="192" viewBox="0 0 192 192" fill="none" xmlns="http://www.w3.org/2000/svg"><path d="m96 55.64.16-.095a26.178 26.178 0 0 1 19.906-2.658A26.13 26.13 0 0 1 131.5 64.333a26.17 26.17 0 0 1 19.098-2.209 26.133 26.133 0 0 1 15.907 12.239 26.365 26.365 0 0 1 2.591 19.966C161.805 121.494 111.459 139 111.459 139s-7.95-9.196-15.459-21.763m0-61.598a26.412 26.412 0 0 1 12.083 15.905c3.808 14.187-3.874 31.954-12.083 45.693m0-61.598a26.177 26.177 0 0 0-20.066-2.752 26.13 26.13 0 0 0-15.433 11.446 26.172 26.172 0 0 0-19.1-2.209 26.133 26.133 0 0 0-15.907 12.239 26.368 26.368 0 0 0-2.59 19.966C30.194 121.494 80.54 139 80.54 139s7.95-9.196 15.459-21.763" stroke="#000" stroke-width="12" stroke-linecap="round" stroke-linejoin="round"/></svg>