<svg xmlns="http://www.w3.org/2000/svg" width="192" height="192" fill="none" viewBox="0 0 192 192"><circle cx="53" cy="97" r="3" stroke="#000" stroke-linecap="round" stroke-linejoin="round" stroke-width="6"/><circle cx="86" cy="138" r="3" stroke="#000" stroke-linecap="round" stroke-linejoin="round" stroke-width="6"/><circle cx="119" cy="74" r="3" stroke="#000" stroke-linecap="round" stroke-linejoin="round" stroke-width="6"/><circle cx="119" cy="93" r="3" stroke="#000" stroke-linecap="round" stroke-linejoin="round" stroke-width="6"/><circle cx="73" cy="97" r="3" stroke="#000" stroke-linecap="round" stroke-linejoin="round" stroke-width="6"/><circle cx="106" cy="138" r="3" stroke="#000" stroke-linecap="round" stroke-linejoin="round" stroke-width="6"/><circle cx="139" cy="74" r="3" stroke="#000" stroke-linecap="round" stroke-linejoin="round" stroke-width="6"/><circle cx="139" cy="93" r="3" stroke="#000" stroke-linecap="round" stroke-linejoin="round" stroke-width="6"/><path stroke="#000" stroke-linecap="round" stroke-linejoin="round" stroke-width="10" d="M134 147v-26a6 6 0 0 0-6-6H64a6 6 0 0 0-6 6v26m90-94h-46a6 6 0 0 0-6 6v56M30 79h66"/><path stroke="#000" stroke-linecap="round" stroke-linejoin="round" stroke-width="12" d="M30 64.918c0-2.1 1.098-4.048 2.894-5.135l60-36.916a6 6 0 0 1 6.212 0l60 36.916A6 6 0 0 1 162 64.918v62.164c0 2.1-1.098 4.048-2.894 5.135l-60 36.916a6 6 0 0 1-6.212 0l-60-36.916A6 6 0 0 1 30 127.082z"/></svg>