<svg width="192" height="192" viewBox="0 0 50.8 50.8" xml:space="preserve"><path style="fill:none;stroke:#000;stroke-width:3.175;stroke-linecap:round;stroke-linejoin:round;stroke-dasharray:none;paint-order:fill markers stroke" d="m25.4002 16.97241 9.41393-9.41393c2.33442-2.33442 6.0927-2.33442 8.42713 0 2.33444 2.33443 2.33483 6.09312.0004 8.42754l-9.41392 9.41393M25.4002 33.8275l-9.41393 9.41392c-2.33442 2.33444-6.09351 2.33444-8.42794 0-2.33442-2.33442-2.33403-6.0931.0004-8.42754l9.41393-9.41392"/><path style="fill:none;stroke:#000;stroke-width:3.175;stroke-linecap:round;stroke-linejoin:round;paint-order:fill markers stroke" d="M7.55858 7.55857c-2.33443 2.33443-2.33443 6.0931 0 8.42754L34.8138 43.24132c2.33442 2.33443 6.09311 2.33444 8.42754 0 2.33442-2.33441 2.33442-6.09311 0-8.42753L15.98612 7.55857c-2.33443-2.33443-6.09312-2.33443-8.42754 0z"/></svg>