<svg xmlns="http://www.w3.org/2000/svg" width="192" height="192" stroke="#000" stroke-width="8" viewBox="0 0 192 192"><path fill="none" stroke-linejoin="round" d="m103.008 62.904 9.26-34.534c-9.943-5.181-21.425-8.621-36.201-8.357h-.002l-11.49 42.89m4.358-16.257 15.384 3.583z"/><path d="M116.677 62.905c2.25 0 6.896-17.44 6.896-17.44s-9.15 17.44-6.898 17.44z"/><path fill="none" stroke-linejoin="round" d="m73.02 31.38 15.383 3.58zm24.953 140.614V62.904h61.343l-.4 7.155c-1.911 33.933-5.055 68.99-6.83 76.11-.54 2.17-1.035 2.657-5.176 5.124-11.208 6.676-36.807 20.723-49.51 20.7"/><path fill="none" stroke-linecap="round" stroke-linejoin="round" d="M71.997 74h13.864m24.278 0h13.858m14.752 0h8.248l-1.157 13.122m-1.206 13.664L143.6 112.52m-1.234 14.185L140.997 142l-7.09 3.133m-12.697 5.61-11.409 5.041m-23.601.003-11.421-5.047m-12.688-5.605L54.997 142l-1.349-15.292m-1.253-14.194-1.002-11.363m-1.248-14.137L48.998 74h8.25"/><path stroke="none" d="m144.019 49.189-4.605 10.497h-8.716l.32-.782 5.68-12.929 7.7-7.592z"/><path fill="none" stroke-linejoin="round" d="M100.004 62.905H36.683s2.792 48.76 5.56 72.986c1.38 11.56 1.83 13.221 3.961 14.828 5.208 3.917 31.09 15.39 45.011 19.94 2.723.893 4.74 1.374 6.757 1.339"/><path stroke-width="4.59" d="M130.65 27.572s-14.743 14.992-7.077 17.893c7.666 2.902 7.077-17.893 7.077-17.893z"/></svg>