<svg width="192" height="192" viewBox="0 0 192 192" fill="none" xmlns="http://www.w3.org/2000/svg"><path d="M41 79v72m38-72v72m0 0a18.999 18.999 0 0 1-36.554 7.271A18.999 18.999 0 0 1 41 151m0-72a57 57 0 0 1 95.76-41.793M79 79c0 10.493 8.507 19 19 19s19-8.507 19-19c0-.498-.019-.992-.057-1.48C116.188 67.718 107.995 60 98 60c-10.493 0-19 8.507-19 19Zm0 0a44 44 0 0 1 57.76-41.793m-20.259 37.405c2.999 9.46 6.499 21.388 3 35.776-1.999 7.46-4.927 13.263-10.388 18.725a43.955 43.955 0 0 1-8.856 6.842m0 0a56.991 56.991 0 0 0 38.048-16.65 56.998 56.998 0 0 0-1.545-82.098m-36.503 98.748A56.997 56.997 0 0 1 80 133.083" stroke="#000" stroke-width="12" stroke-linecap="round" stroke-linejoin="round"/></svg>