<svg xmlns="http://www.w3.org/2000/svg" width="192" height="192" fill="none"><path stroke="#000" stroke-linecap="round" stroke-linejoin="round" stroke-width="12" d="M22 148.323a116 116 0 0 1 13.628-7.469C26.82 130.443 22 117.93 22 105c0-5.199 1.027-10.32 3-15.22M96 62c-6.671-3.45-14.03-6.32-21.408-8.69m0 0c-16.974-5.457-34.046-8.284-43.06-9.517C28.026 43.313 25 46.06 25 49.599v40.18m49.592-36.47c-11.57 2.552-22.216 7.157-30.918 13.507C34.834 73.267 28.462 81.182 25 89.78m145 58.543a116 116 0 0 0-13.628-7.469C165.179 130.443 170 117.93 170 105c0-5.199-1.027-10.32-3-15.22M96 62c6.671-3.45 14.031-6.32 21.408-8.69m0 0c16.974-5.457 34.046-8.284 43.06-9.517 3.506-.48 6.532 2.267 6.532 5.806v40.18m-49.592-36.47c11.57 2.552 22.216 7.157 30.918 13.507 8.84 6.451 15.212 14.366 18.674 22.964"/><path stroke="#000" stroke-linecap="round" stroke-linejoin="round" stroke-width="10" d="M50 88c15 0 29-4 29-4m-4 25v1s11 1 21 1 21-1 21-1v-1"/><path stroke="#000" stroke-linecap="round" stroke-linejoin="round" stroke-width="12" d="m76 109 1-2 1 2m36 0 1-2 1 2"/><path stroke="#000" stroke-linecap="round" stroke-linejoin="round" stroke-width="10" d="M142 88c-15 0-29-4-29-4"/></svg>