<?xml version="1.0" encoding="UTF-8" standalone="no"?>
<!-- Created with Inkscape (http://www.inkscape.org/) -->

<svg
   width="24"
   height="24"
   viewBox="0 0 6.3499999 6.3500002"
   version="1.1"
   id="svg8"
   inkscape:version="1.1.1 (3bf5ae0d25, 2021-09-20)"
   sodipodi:docname="pokemon_unite.svg"
   xmlns:inkscape="http://www.inkscape.org/namespaces/inkscape"
   xmlns:sodipodi="http://sodipodi.sourceforge.net/DTD/sodipodi-0.dtd"
   xmlns="http://www.w3.org/2000/svg"
   xmlns:svg="http://www.w3.org/2000/svg"
   xmlns:rdf="http://www.w3.org/1999/02/22-rdf-syntax-ns#"
   xmlns:cc="http://creativecommons.org/ns#"
   xmlns:dc="http://purl.org/dc/elements/1.1/">
  <defs
     id="defs2">
    <marker
       inkscape:stockid="Arrow1Lend"
       orient="auto"
       refY="0.0"
       refX="0.0"
       id="Arrow1Lend"
       style="overflow:visible;"
       inkscape:isstock="true">
      <path
         id="path844"
         d="M 0.0,0.0 L 5.0,-5.0 L -12.5,0.0 L 5.0,5.0 L 0.0,0.0 z "
         style="fill-rule:evenodd;stroke:#000000;stroke-width:1.0pt;"
         transform="scale(0.8) rotate(180) translate(12.5,0)" />
    </marker>
    <marker
       inkscape:stockid="Arrow1Lstart"
       orient="auto"
       refY="0.0"
       refX="0.0"
       id="Arrow1Lstart"
       style="overflow:visible"
       inkscape:isstock="true">
      <path
         id="path841"
         d="M 0.0,0.0 L 5.0,-5.0 L -12.5,0.0 L 5.0,5.0 L 0.0,0.0 z "
         style="fill-rule:evenodd;stroke:#000000;stroke-width:1.0pt"
         transform="scale(0.8) translate(12.5,0)" />
    </marker>
    <pattern
       y="0"
       x="0"
       height="6"
       width="6"
       patternUnits="userSpaceOnUse"
       id="EMFhbasepattern" />
    <pattern
       y="0"
       x="0"
       height="6"
       width="6"
       patternUnits="userSpaceOnUse"
       id="EMFhbasepattern-1" />
    <pattern
       y="0"
       x="0"
       height="6"
       width="6"
       patternUnits="userSpaceOnUse"
       id="EMFhbasepattern-6" />
    <pattern
       y="0"
       x="0"
       height="6"
       width="6"
       patternUnits="userSpaceOnUse"
       id="EMFhbasepattern-15" />
    <pattern
       y="0"
       x="0"
       height="6"
       width="6"
       patternUnits="userSpaceOnUse"
       id="EMFhbasepattern-17" />
    <pattern
       y="0"
       x="0"
       height="6"
       width="6"
       patternUnits="userSpaceOnUse"
       id="EMFhbasepattern-2" />
    <pattern
       y="0"
       x="0"
       height="6"
       width="6"
       patternUnits="userSpaceOnUse"
       id="EMFhbasepattern-3" />
    <pattern
       y="0"
       x="0"
       height="6"
       width="6"
       patternUnits="userSpaceOnUse"
       id="EMFhbasepattern-61" />
    <pattern
       y="0"
       x="0"
       height="6"
       width="6"
       patternUnits="userSpaceOnUse"
       id="EMFhbasepattern-4" />
    <pattern
       y="0"
       x="0"
       height="6"
       width="6"
       patternUnits="userSpaceOnUse"
       id="EMFhbasepattern-37" />
    <pattern
       y="0"
       x="0"
       height="6"
       width="6"
       patternUnits="userSpaceOnUse"
       id="EMFhbasepattern-12" />
    <pattern
       y="0"
       x="0"
       height="6"
       width="6"
       patternUnits="userSpaceOnUse"
       id="EMFhbasepattern-44" />
    <pattern
       y="0"
       x="0"
       height="6"
       width="6"
       patternUnits="userSpaceOnUse"
       id="EMFhbasepattern-5" />
    <pattern
       y="0"
       x="0"
       height="6"
       width="6"
       patternUnits="userSpaceOnUse"
       id="EMFhbasepattern-157" />
    <pattern
       y="0"
       x="0"
       height="6"
       width="6"
       patternUnits="userSpaceOnUse"
       id="EMFhbasepattern-7" />
    <pattern
       y="0"
       x="0"
       height="6"
       width="6"
       patternUnits="userSpaceOnUse"
       id="EMFhbasepattern-8" />
    <pattern
       y="0"
       x="0"
       height="6"
       width="6"
       patternUnits="userSpaceOnUse"
       id="EMFhbasepattern-43" />
    <pattern
       y="0"
       x="0"
       height="6"
       width="6"
       patternUnits="userSpaceOnUse"
       id="EMFhbasepattern-63" />
    <pattern
       y="0"
       x="0"
       height="6"
       width="6"
       patternUnits="userSpaceOnUse"
       id="EMFhbasepattern-82" />
    <pattern
       y="0"
       x="0"
       height="6"
       width="6"
       patternUnits="userSpaceOnUse"
       id="EMFhbasepattern-70" />
    <pattern
       y="0"
       x="0"
       height="6"
       width="6"
       patternUnits="userSpaceOnUse"
       id="EMFhbasepattern-46" />
    <pattern
       y="0"
       x="0"
       height="6"
       width="6"
       patternUnits="userSpaceOnUse"
       id="EMFhbasepattern-465" />
    <pattern
       y="0"
       x="0"
       height="6"
       width="6"
       patternUnits="userSpaceOnUse"
       id="EMFhbasepattern-30" />
    <pattern
       y="0"
       x="0"
       height="6"
       width="6"
       patternUnits="userSpaceOnUse"
       id="EMFhbasepattern-9" />
    <pattern
       y="0"
       x="0"
       height="6"
       width="6"
       patternUnits="userSpaceOnUse"
       id="EMFhbasepattern-79" />
  </defs>
  <sodipodi:namedview
     id="base"
     pagecolor="#ffffff"
     bordercolor="#666666"
     borderopacity="1.0"
     inkscape:pageopacity="0.0"
     inkscape:pageshadow="2"
     inkscape:zoom="22.627417"
     inkscape:cx="12.352272"
     inkscape:cy="10.230951"
     inkscape:document-units="px"
     inkscape:current-layer="layer2"
     showgrid="false"
     units="px"
     inkscape:window-width="1920"
     inkscape:window-height="1017"
     inkscape:window-x="-8"
     inkscape:window-y="-8"
     inkscape:window-maximized="1"
     inkscape:pagecheckerboard="0" />
  <metadata
     id="metadata5">
    <rdf:RDF>
      <cc:Work
         rdf:about="">
        <dc:format>image/svg+xml</dc:format>
        <dc:type
           rdf:resource="http://purl.org/dc/dcmitype/StillImage" />
      </cc:Work>
    </rdf:RDF>
  </metadata>
  <g
     inkscape:groupmode="layer"
     id="layer2"
     inkscape:label="Layer 2">
    <path
       id="path4660"
       d="m 3.573516,3.1765627 c 0,-0.1093965 -0.043758,-0.2094161 -0.1156478,-0.2813053 -0.071889,-0.071889 -0.1719088,-0.1156477 -0.2813053,-0.1156477 -0.1093965,0 -0.2094162,0.043759 -0.2813053,0.1156477 -0.071889,0.071889 -0.1156478,0.1719088 -0.1156478,0.2813053 0,0.1093966 0.043758,0.2094163 0.1156478,0.2813055 0.071889,0.071889 0.1719088,0.1156477 0.2813053,0.1156477 0.1093965,0 0.2094162,-0.043759 0.2813053,-0.1156477 C 3.5297572,3.3859792 3.573516,3.2859593 3.573516,3.1765627 Z M 5.2769762,2.9108855 C 5.2175894,2.4326664 4.9956706,2.004457 4.6737325,1.6793931 4.2892818,1.2949424 3.761053,1.0573956 3.1765629,1.0573956 c -0.58449,0 -1.1158446,0.2375468 -1.4971696,0.6219975 C 1.3543293,2.004457 1.1355362,2.4326664 1.0761496,2.9108855 H 2.2888882 C 2.3326464,2.7608559 2.4139127,2.6295801 2.5201838,2.5201836 2.6889669,2.354526 2.9202624,2.248255 3.1765629,2.248255 c 0.2563005,0 0.4875959,0.106271 0.6532535,0.2719286 0.1093967,0.1093965 0.1906627,0.2406723 0.2344213,0.3907019 z m -0.075014,1.7378419 v 0.321938 h 0.559485 v 0.25005 H 5.2019616 v 0.321938 h 0.6188718 v 0.246924 H 4.9394098 v -1.390899 h 0.8814236 v 0.250049 z m -1.1002164,1.14085 v -1.14085 H 3.7141692 v -0.250049 h 1.0408297 v 0.250049 H 4.3642965 v 1.14085 z M 3.2640801,4.3986784 h 0.2625517 v 1.390899 H 3.2640801 Z m -1.4034012,0 h 0.3063103 l 0.5594851,0.934559 h 0.015629 l -0.015629,-0.268803 v -0.665756 h 0.2594261 v 1.390899 H 2.7108463 L 2.120105,4.8050084 H 2.104476 l 0.015629,0.268803 v 0.715766 H 1.8606789 Z m -0.7907806,1.422155 c -0.0812664,0 -0.15628076,-0.0125 -0.22191869,-0.03751 -0.068763,-0.02813 -0.12502467,-0.06564 -0.17190885,-0.115647 -0.0468844,-0.05001 -0.0812664,-0.112522 -0.10627092,-0.184411 -0.0281308,-0.07189 -0.0406332,-0.153156 -0.0406332,-0.246924 v -0.837665 h 0.26255171 v 0.853293 c 0,0.04688 0.006256,0.09064 0.0187536,0.12815 0.009379,0.04063 0.0281308,0.07502 0.0500095,0.103146 0.0250047,0.02813 0.0531356,0.05001 0.0875176,0.06564 0.0375071,0.01563 0.0750154,0.025 0.12189915,0.025 0.046884,0 0.087517,-0.0094 0.121899,-0.025 0.034382,-0.01563 0.065638,-0.03751 0.087517,-0.06564 0.025005,-0.02813 0.040633,-0.06251 0.053136,-0.103146 0.012502,-0.03751 0.015628,-0.08127 0.015628,-0.12815 v -0.853293 h 0.2625517 v 0.837665 c 0,0.08752 -0.012502,0.165658 -0.037507,0.237547 -0.025005,0.07189 -0.059387,0.134401 -0.1093967,0.187536 -0.046884,0.05001 -0.1031452,0.09064 -0.1687831,0.118774 -0.068764,0.02813 -0.1437783,0.04063 -0.2250443,0.04063 z M 4.0642377,3.4391144 C 4.0204794,3.589144 3.9392131,3.7235454 3.8298164,3.8298165 3.6641588,3.9985994 3.4328634,4.1017444 3.1765629,4.1017444 c -0.2563005,0 -0.487596,-0.103145 -0.6563791,-0.2719279 C 2.4139127,3.7235454 2.3326467,3.589144 2.2888882,3.4391144 H 1.0761496 c 0.028131,0.2344211 0.096894,0.4594655 0.1969137,0.66263 H 0.69482441 C 0.58855349,3.8141883 0.52916685,3.5016267 0.52916685,3.1765627 c 0,-0.7313939 0.29693342,-1.3940243 0.77515265,-1.8722434 0.4782191,-0.47821923 1.1408494,-0.77515263 1.8722434,-0.77515263 0.7313938,0 1.3908989,0.2969334 1.8691177,0.77515263 0.4813449,0.4782191 0.7751528,1.1408495 0.7751528,1.8722434 0,0.325064 -0.056261,0.6376256 -0.1656576,0.9251817 H 5.0800623 C 5.1800821,3.8985799 5.2457199,3.6735355 5.2769762,3.4391144 Z"
       style="fill:#000000;fill-opacity:1;fill-rule:nonzero;stroke:none;stroke-width:0.08264978"
       inkscape:connector-curvature="0" />
  </g>
</svg>
