<svg width="192" height="192" viewBox="0 0 192 192" fill="none" xmlns="http://www.w3.org/2000/svg"><g clip-path="url(#pokekara__a)" stroke="#000" stroke-linecap="round" stroke-linejoin="round"><path d="M29 91v79m6 0h-6m6-50h-6m5 50a25.007 25.007 0 0 0 17.678-7.322A25.01 25.01 0 0 0 59 145a24.999 24.999 0 0 0-25-25m0 0a37.008 37.008 0 0 0 26.163-10.837A37.007 37.007 0 0 0 71 83" stroke-width="12"/><path d="M29 91a69 69 0 1 1 92.593 64.841C135.901 137.885 114 104 138 85c-1.718-.859-11.436-2.903-13.075-4.012A27.002 27.002 0 0 0 98 56a27 27 0 0 0-27 27" stroke-width="12"/><path d="M106 82a4 4 0 1 1-8 .002 4 4 0 0 1 8-.002h0Z" stroke-width="8"/></g><defs><clipPath id="pokekara__a"><path fill="#fff" d="M0 0h192v192H0z"/></clipPath></defs></svg>