<svg xmlns="http://www.w3.org/2000/svg" width="192" height="192" fill="none" viewBox="0 0 192 192">
  <path stroke="#000" stroke-linejoin="round" stroke-width="12" d="M161 25H31a6 6 0 0 0-6 6v130a6 6 0 0 0 6 6h130a6 6 0 0 0 6-6V31a6 6 0 0 0-6-6Z"/>
  <path stroke="#000" stroke-linejoin="round" stroke-width="10" d="M47 52a6 6 0 0 1 6-6h23a6 6 0 0 1 6 6v38a6 6 0 0 1-6 6H53a6 6 0 0 1-6-6V52Z"/>
  <path stroke="#000" stroke-linejoin="round" stroke-width="8" d="M65 72a6 6 0 0 1 6-6h11v24a6 6 0 0 1-6 6H65V72Zm63 0a6 6 0 0 1 6-6h11v24a6 6 0 0 1-6 6h-11V72Z"/>
  <path stroke="#000" stroke-linejoin="round" stroke-width="10" d="M110 52a6 6 0 0 1 6-6h23a6 6 0 0 1 6 6v38a6 6 0 0 1-6 6h-23a6 6 0 0 1-6-6V52Z"/>
</svg>
