<svg xmlns="http://www.w3.org/2000/svg" width="192" height="192" fill="none"><path stroke="#000" stroke-linecap="round" stroke-linejoin="round" stroke-width="12" d="m117 83-2 24M77 83l-2 24m86.733-28.6a68 68 0 0 0-24.306-36.348A68.08 68.08 0 0 0 96 28a68.1 68.1 0 0 0-41.427 14.052A68 68 0 0 0 30.267 78.4m.003 0c-4.683 27.898-7.05 44.85-8.223 54.344-.564 4.567 4.043 7.767 8.19 5.763l9.326-4.51a68 68 0 0 0 22.411 20.893 68.1 68.1 0 0 0 68.052 0 68.04 68.04 0 0 0 22.411-20.893l9.327 4.51c4.145 2.004 8.753-1.196 8.189-5.763-1.174-9.494-3.539-26.446-8.223-54.344"/></svg>