<?xml version="1.0" encoding="UTF-8" standalone="no"?>
<!-- Created with Inkscape (http://www.inkscape.org/) -->

<svg
   width="192"
   height="192"
   viewBox="0 0 50.799999 50.8"
   version="1.1"
   id="svg1"
   xml:space="preserve"
   inkscape:version="1.3.2 (091e20ef0f, 2023-11-25)"
   sodipodi:docname="port_authority.svg"
   xmlns:inkscape="http://www.inkscape.org/namespaces/inkscape"
   xmlns:sodipodi="http://sodipodi.sourceforge.net/DTD/sodipodi-0.dtd"
   xmlns="http://www.w3.org/2000/svg"
   xmlns:svg="http://www.w3.org/2000/svg"><sodipodi:namedview
     id="namedview1"
     pagecolor="#505050"
     bordercolor="#ffffff"
     borderopacity="1"
     inkscape:showpageshadow="0"
     inkscape:pageopacity="0"
     inkscape:pagecheckerboard="1"
     inkscape:deskcolor="#d1d1d1"
     inkscape:document-units="px"
     showguides="true"
     inkscape:zoom="4.4195761"
     inkscape:cx="82.134574"
     inkscape:cy="102.38538"
     inkscape:window-width="1886"
     inkscape:window-height="1004"
     inkscape:window-x="0"
     inkscape:window-y="0"
     inkscape:window-maximized="1"
     inkscape:current-layer="layer1" /><defs
     id="defs1" /><g
     inkscape:label="Layer 1"
     inkscape:groupmode="layer"
     id="layer1"
     style="display:inline"><path
       style="display:inline;fill:none;stroke:#000000;stroke-width:2.11667;stroke-linecap:round;stroke-linejoin:round;stroke-miterlimit:4;stroke-dasharray:none"
       d="m 18.030736,17.530475 v 3.15106"
       id="path3" /><path
       style="display:inline;fill:none;stroke:#000000;stroke-width:2.11667;stroke-linecap:round;stroke-linejoin:round;stroke-miterlimit:4;stroke-dasharray:none"
       d="m 22.94358,17.530475 v 3.15106"
       id="path2" /><path
       style="display:inline;fill:none;stroke:#000000;stroke-width:2.11667;stroke-linecap:round;stroke-linejoin:round;stroke-miterlimit:4;stroke-dasharray:none"
       d="m 27.856425,17.530475 v 3.15106"
       id="path1" /><path
       style="display:inline;fill:none;stroke:#000000;stroke-width:2.11667;stroke-linecap:round;stroke-linejoin:round;stroke-miterlimit:4;stroke-dasharray:none"
       d="m 32.769269,17.530475 v 3.15106"
       id="path17" /><rect
       style="fill:none;stroke:#000000;stroke-width:2.64583;stroke-linecap:round;stroke-linejoin:round;stroke-dasharray:none"
       id="rect1"
       width="39.687504"
       height="28.970205"
       x="5.5562477"
       y="10.914897"
       rx="2.3812499"
       ry="2.3812499" /><path
       id="rect4"
       style="fill:none;stroke:#000000;stroke-width:2.64583;stroke-linecap:round;stroke-linejoin:round"
       d="m 31.263528,39.86855 c -0.89136,0 -1.608953,-0.717817 -1.608953,-1.609456 v -2.532947 c 0,-0.891639 0.717593,-1.609456 1.607676,-1.609455 l 3.95008,10e-7 c 0.89136,0 1.608953,-0.717817 1.608953,-1.609456 V 19.139931 c 0,-0.891639 -0.717593,-1.609456 -1.608953,-1.609456 H 15.58775 c -0.89136,0 -1.608953,0.717817 -1.608953,1.609456 v 13.367306 c 0,0.891639 0.717593,1.609456 1.608953,1.609456 l 3.95004,-10e-7 c 0.890042,-10e-7 1.607635,0.717816 1.607635,1.609455 v 2.532947 c 0,0.891639 -0.717593,1.609456 -1.608953,1.609456"
       sodipodi:nodetypes="csscsssssssscssc" /></g></svg>
