<svg width="192" height="192" viewBox="0 0 192 192" fill="none" xmlns="http://www.w3.org/2000/svg"><path d="M22 126c0 62 148 2 148-35 0-21-48-51-74-51H80c-24 0-58 60-58 86Z" stroke="#000" stroke-width="12" stroke-linecap="round" stroke-linejoin="round"/><path d="M111 44s5 2 5 36-7 60-7 60m8-66 27 8m-63 26 5-7m-62 17s40-2 48 6-4 27-4 27M53 59.222C74 57 94 60 94 60l-2.5 20S68 86 41 80m76 28 27-8" stroke="#000" stroke-width="10" stroke-linecap="round" stroke-linejoin="round"/><path d="M155 106c8.284 0 15-6.716 15-15 0-8.284-6.716-15-15-15-8.284 0-15 6.716-15 15 0 8.284 6.716 15 15 15Z" stroke="#000" stroke-width="12" stroke-linecap="round" stroke-linejoin="round"/></svg>