<svg width="192" height="192" fill="none" xmlns="http://www.w3.org/2000/svg"><path d="M64.35 128.038a38.004 38.004 0 0 1-9.457-42.58A38 38 0 0 1 89.985 62M64.35 128.038a38.042 38.042 0 0 0 15.653 8.624C82.929 137.529 85.93 138 89 138c39 0 81-76 81-76h-30.922C124 88 109 116 90 116a16 16 0 1 1 7.504-30.131c4.03-6.096 7.804-12.586 11.228-18.931A38.003 38.003 0 0 0 90.015 62h-.03M64.35 128.038C38.735 107.424 22 62 22 62h67.985" stroke="#000" stroke-width="12" stroke-linecap="round" stroke-linejoin="round"/></svg>