<svg xmlns="http://www.w3.org/2000/svg" width="192" height="192" fill="none"><path stroke="#000" stroke-linecap="round" stroke-linejoin="round" stroke-width="10" d="m103.182 91 3.663-10.073a6 6 0 0 1 7.967-3.48l7.927 3.338a6 6 0 0 1 3.31 7.58L119.273 107M66.818 91l-3.663-10.073a6 6 0 0 0-7.967-3.48l-7.927 3.338a6 6 0 0 0-3.31 7.58L50.727 107M53 125h64M85 75v32"/><path stroke="#000" stroke-linecap="round" stroke-linejoin="round" stroke-width="12" d="M170 96c0-32-80-74-122-74-16 0-26 32-26 74s10 74 26 74c42 0 122-42 122-74"/><path stroke="#000" stroke-linecap="round" stroke-linejoin="round" stroke-width="8" d="M84.77 50.096a.326.326 0 0 1 .46 0l3.674 3.673a.326.326 0 0 1 0 .462l-3.673 3.673a.326.326 0 0 1-.462 0l-3.673-3.673a.326.326 0 0 1 0-.462l3.673-3.673Z"/></svg>