<svg width="192" height="192" fill="none" xmlns="http://www.w3.org/2000/svg"><path d="M51.625 96.595c0-16.965 11.339-36.133 35.562-36.133 9.142 0 15.134 2.241 22.491 8.388l10.171 8.415m-68.224 19.33L21 62.342h53.913M51.625 96.595c0 5.315 1.17 10.308 3.27 14.765 5.675 12.048 18.142 20.178 32.637 20.178 27.931 0 51.749-28.177 83.468-69.197h-41.433l-9.718 14.924m-10.338 15.876-1.621 2.49c-7.658 11.035-11.32 15.729-20.357 15.729-9.27 0-15.729-5.773-15.729-15.288 0-9.691 7.025-15.741 15.372-15.741 5.14 0 7.522 1.586 11.756 4.871l10.579 7.939Zm0 0 10.338-15.876" stroke="#000" stroke-width="10" stroke-linejoin="round"/></svg>