<svg width="192" height="192" fill="none" xmlns="http://www.w3.org/2000/svg"><path d="M25 43c0-9.941 8.059-18 18-18h106c9.941 0 18 8.059 18 18v106c0 9.941-8.059 18-18 18H43c-9.941 0-18-8.059-18-18V43Zm92 6h28m-98 0h22M47 69h42M47 89h22" stroke="#000" stroke-width="12" stroke-linecap="round" stroke-linejoin="round"/><circle cx="89" cy="89" r="3" stroke="#000" stroke-width="6" stroke-linecap="round" stroke-linejoin="round"/><path d="M47 123v20m24-20v20m25-20v20m25-20v20m24-20v20" stroke="#000" stroke-width="12" stroke-linecap="round" stroke-linejoin="round"/></svg>