<?xml version="1.0" encoding="utf-8"?>
	<svg version="1.1" xmlns="http://www.w3.org/2000/svg" xmlns:xlink="http://www.w3.org/1999/xlink" x="0px" y="0px" width="240.0" height="240.0" xml:space="preserve">
		<path d="M92.106,119.19C92.106,131.415 92.288,143.644 92.04,155.863C91.88,163.732 96.652,166.802 104.019,162.544C124.212,150.874 144.048,138.591 164.1,126.674C170.867,122.653 171.14,116.791 164.495,112.57C151.078,104.047 137.076,96.508 123.75,87.784C117.338,83.587 110.557,79.589 103.625,76.037C97.135,72.71 92.142,75.513 92.119,82.943C92.082,95.024 92.109,107.108 92.106,119.19M220,120.389C219.192,175.454 178.424,214.746 131.92,218.911C59.983,225.354 26.147,171.869 20.942,132.457C16.926,102.058 25.761,74.374 47.243,51.695C67.259,30.562 92.031,19.79 121.195,20.003C175.744,20.402 219.798,64.157 220,120.389" fill="#ff09090a" stroke="#00000000" stroke-width="1.0" stroke-miterlimit=""/>
	</svg>
