<svg xmlns="http://www.w3.org/2000/svg" width="192" height="192" fill="none"><path stroke="#000" stroke-linecap="round" stroke-linejoin="round" stroke-width="12" d="m94 34.218-6.624-7.196a6.162 6.162 0 0 0-9.21.093l-54.644 64.82a6.186 6.186 0 0 0 0 8.128l54.644 64.822a6.162 6.162 0 0 0 9.21.092L94 157.782"/><path stroke="#000" stroke-linecap="round" stroke-linejoin="round" stroke-width="12" d="m114.81 96-31.229 35.013a6.19 6.19 0 0 0 .004 8.27l20.404 24.682a6.13 6.13 0 0 0 9.128-.005l55.302-63.827a6.19 6.19 0 0 0 0-8.266L113.117 28.04a6.13 6.13 0 0 0-9.128-.005L83.585 52.717a6.19 6.19 0 0 0-.004 8.27zm0 0 28.631-31.891M114.81 96l28.631 31.891"/></svg>