<svg width="192" height="192" fill="none" xmlns="http://www.w3.org/2000/svg"><path d="M72 31a50 50 0 1 0 0 100m48-100a49.998 49.998 0 0 1 49.039 59.754 49.99 49.99 0 0 1-13.684 25.601C148.363 123.348 96 164 96 164" stroke="#000" stroke-width="12" stroke-linecap="round" stroke-linejoin="round"/><path d="M138.38 99.38C131.387 106.373 96 132.644 96 132.644M72 55a26 26 0 0 0 0 52m66.385-7.615a25.999 25.999 0 0 0-3.94-40.003A26.002 26.002 0 0 0 120 55M72 31h48M72 55h48m-48 76h24" stroke="#000" stroke-width="12" stroke-linecap="round" stroke-linejoin="round"/><path d="M72 107h18a6 6 0 0 1 6 6v51" stroke="#000" stroke-width="12" stroke-linecap="round" stroke-linejoin="round"/></svg>