<svg width="192" height="192" fill="none" xmlns="http://www.w3.org/2000/svg"><path d="M157 83a61.01 61.01 0 0 0-17.866-43.133A61.007 61.007 0 0 0 96 22a61.001 61.001 0 0 0-61 61" stroke="#000" stroke-width="12" stroke-linecap="round" stroke-linejoin="round"/><circle cx="96" cy="74" r="16" stroke="#000" stroke-width="12" stroke-linecap="round" stroke-linejoin="round"/><path d="M90 170c0-8.93-1.423-17.772-4.187-26.022-2.764-8.251-6.815-15.747-11.922-22.061-5.107-6.315-11.17-11.323-17.843-14.741C49.375 103.759 42.223 102 35 102m122 0c-7.223 0-14.375 1.759-21.048 5.176-6.672 3.418-12.736 8.426-17.843 14.741-5.107 6.314-9.158 13.81-11.922 22.061C103.423 152.228 102 161.07 102 170" stroke="#000" stroke-width="12" stroke-linecap="round" stroke-linejoin="round"/><path d="M35 83v81a6 6 0 0 0 6 6h110a6 6 0 0 0 6-6V83" stroke="#000" stroke-width="12" stroke-linecap="round" stroke-linejoin="round"/></svg>