<svg xmlns="http://www.w3.org/2000/svg" width="192" height="192" fill="none" viewBox="0 0 192 192"><path stroke="#000" stroke-linecap="round" stroke-linejoin="round" stroke-width="12" d="M59 167c0-27-8-27-8-38m82 38c0-27 8-27 8-38"/><path stroke="#000" stroke-linejoin="round" stroke-width="12" d="M25 53c0-15.464 12.536-28 28-28h86c15.464 0 28 12.536 28 28v86c0 15.464-12.536 28-28 28H53c-15.464 0-28-12.536-28-28z"/><path stroke="#000" stroke-linecap="round" stroke-linejoin="round" stroke-width="8" d="M96 74V46"/><path stroke="#000" stroke-linecap="round" stroke-linejoin="round" stroke-width="10" d="M59 145h74"/><path stroke="#000" stroke-linecap="round" stroke-linejoin="round" stroke-width="12" d="M51 129c0-22 45-42 45-52m45 52c0-22-45-42-45-52"/><circle cx="96" cy="76" r="4" stroke="#000" stroke-linecap="round" stroke-linejoin="round" stroke-width="8"/></svg>