<svg xmlns="http://www.w3.org/2000/svg" width="192" height="192" fill="none"><path stroke="#000" stroke-linecap="round" stroke-linejoin="round" stroke-width="12" d="M157 83a61 61 0 0 0-17.866-43.133A61 61 0 0 0 96 22a61 61 0 0 0-61 61"/><circle cx="96" cy="74" r="16" stroke="#000" stroke-linecap="round" stroke-linejoin="round" stroke-width="12"/><path stroke="#000" stroke-linecap="round" stroke-linejoin="round" stroke-width="12" d="M90 170c0-8.93-1.423-17.772-4.187-26.022s-6.815-15.747-11.922-22.061c-5.107-6.315-11.17-11.323-17.843-14.741S42.223 102 35 102m122 0c-7.223 0-14.375 1.759-21.048 5.176s-12.736 8.426-17.843 14.741-9.158 13.81-11.922 22.061S102 161.07 102 170"/><path stroke="#000" stroke-linecap="round" stroke-linejoin="round" stroke-width="12" d="M35 83v81a6 6 0 0 0 6 6h110a6 6 0 0 0 6-6V83"/></svg>