<svg xmlns="http://www.w3.org/2000/svg" width="192" height="192" fill="none" viewBox="0 0 192 192"><path stroke="#000" stroke-linecap="round" stroke-linejoin="round" stroke-width="12" d="M99 22H49a6 6 0 0 0-6 6v136a6 6 0 0 0 6 6h16a6 6 0 0 0 6-6v-14m43 5 7.252 12.087a6 6 0 0 0 5.145 2.913h18.513c4.768 0 7.631-5.292 5.023-9.283L139.66 145"/><path stroke="#000" stroke-linecap="round" stroke-linejoin="round" stroke-width="12" d="M99 50H77a6 6 0 0 0-6 6v26m28 44H71m28-28a24 24 0 0 0 0-48m40.66 95a10 10 0 0 0-11.248-4.659"/><path stroke="#000" stroke-linecap="round" stroke-linejoin="round" stroke-width="12" d="M99 126a52 52 0 0 0 0-104m0 76a28 28 0 0 0-28 28"/></svg>