<svg xmlns="http://www.w3.org/2000/svg" width="192" height="192" fill="none"><circle cx="96" cy="106" r="4" stroke="#000" stroke-linecap="round" stroke-linejoin="round" stroke-width="8"/><path stroke="#000" stroke-linecap="round" stroke-linejoin="round" stroke-width="10" d="M96 74a24 24 0 0 0-48 0m96 0a24 24 0 0 0-24-24 24 24 0 0 0-16.971 7.03A24 24 0 0 0 96 74"/><path stroke="#000" stroke-linecap="round" stroke-linejoin="round" stroke-width="10" d="M73 72.5a11.5 11.5 0 1 0 23 0m0 0a11.5 11.5 0 1 0 23 0M96 25v49m-48 0c0 47 48 71 48 71m48-71c0 47-48 71-48 71m0 0v22m0-61v14"/><rect width="142" height="142" x="25" y="25" stroke="#000" stroke-linecap="round" stroke-linejoin="round" stroke-width="12" rx="28"/></svg>