<svg width="24" height="24" xmlns="http://www.w3.org/2000/svg">
  <path fill="#000" d="M10.93 1.555c-5.282.54-9.43 5.025-9.43 10.45 0 5.781 4.719 10.5 10.5 10.5 3.494 0 6.599-1.725 8.51-4.365l-2.604-1.502A7.475 7.475 0 0 1 12 19.505c-4.16 0-7.5-3.34-7.5-7.5 0-3.8 2.788-6.915 6.441-7.426v-3.02h-.012zm2.129 0v3.02a7.475 7.475 0 0 1 6.441 7.426c0 .99-.192 1.933-.537 2.797l2.609 1.506c.595-1.315.928-2.771.928-4.303 0-5.424-4.154-9.911-9.441-10.45zM12 8a2 2 0 0 0-2 2v1h-.438a.563.563 0 0 0-.562.563v3.874a.563.563 0 0 0 .563.563h4.874a.563.563 0 0 0 .563-.563v-3.874a.563.563 0 0 0-.563-.563H14v-1a2 2 0 0 0-2-2zm0 1a1 1 0 0 1 1 1v1h-2v-1a1 1 0 0 1 1-1zm0 3.5a.75.75 0 0 1 .75.75.75.75 0 0 1-.75.75.75.75 0 0 1-.75-.75.75.75 0 0 1 .75-.75z"/>
</svg>
