<svg width="192" height="192" viewBox="0 0 192 192" fill="none" xmlns="http://www.w3.org/2000/svg"><circle cx="96" cy="92" r="36" stroke="#000" stroke-width="8" stroke-linecap="round" stroke-linejoin="round"/><path d="M91 57S81 76 81 92s10 35 10 35m10-70s10 19 10 35-10 35-10 35M64 80h64m-64 24h64" stroke="#000" stroke-width="8" stroke-linecap="round" stroke-linejoin="round"/><path d="M96 22 39.614 46.434A6 6 0 0 0 36 51.939V96c0 48 52 74 60 74m0-148 56.386 24.434A6 6 0 0 1 156 51.939V96c0 48-52 74-60 74" stroke="#000" stroke-width="12" stroke-linecap="round" stroke-linejoin="round"/></svg>