<svg xmlns="http://www.w3.org/2000/svg" width="192" height="192" fill="none" viewBox="0 0 192 192"><path stroke="#000" stroke-linecap="round" stroke-linejoin="round" stroke-width="10" d="M96 22v34m0 80v32m24-72h32M40 96h32"/><path stroke="#000" stroke-linecap="round" stroke-linejoin="round" stroke-width="12" d="M121 81a25 25 0 0 0-50 0"/><circle cx="96" cy="81" r="4" stroke="#000" stroke-linecap="round" stroke-linejoin="round" stroke-width="8"/><path stroke="#000" stroke-linecap="round" stroke-linejoin="round" stroke-width="12" d="M159.922 49.048c-2.209 85.178-50.826 114.426-61.754 119.935a4.71 4.71 0 0 1-4.336 0c-10.928-5.509-59.545-34.757-61.754-119.935-.086-3.312 2.612-6.029 5.916-6.284C67.876 40.456 96 22 96 22s28.124 18.456 58.006 20.764c3.304.255 6.002 2.972 5.916 6.284"/><path stroke="#000" stroke-linecap="round" stroke-linejoin="round" stroke-width="12" d="M121 81c0 31.016-25 55-25 55s-25-23.984-25-55"/></svg>