<svg xmlns="http://www.w3.org/2000/svg" width="192" height="192" fill="none"><path stroke="#000" stroke-linecap="round" stroke-linejoin="round" stroke-width="10" d="M106 82a10.002 10.002 0 0 0-17.071-7.071A10 10 0 0 0 86 82"/><rect width="34" height="28" x="79" y="92" stroke="#000" stroke-linecap="round" stroke-linejoin="round" stroke-width="10" rx="6"/><path stroke="#000" stroke-linecap="round" stroke-linejoin="round" stroke-width="10" d="M86 82v10m20-10v10"/><path stroke="#000" stroke-linecap="round" stroke-linejoin="round" stroke-width="12" d="M55 142h88m-88 0a33.003 33.003 0 0 1-18.334-60.439 33 33 0 0 1 18.75-5.558 43.999 43.999 0 0 1 84.321 12.195A27 27 0 1 1 143 142"/></svg>