<svg width="192" height="192" fill="none" xmlns="http://www.w3.org/2000/svg"><path d="M77 96a6 6 0 0 1 6-6h26a6 6 0 0 1 6 6v20a6 6 0 0 1-6 6H83a6 6 0 0 1-6-6V96Zm31-18v12M84 78v12" stroke="#000" stroke-width="10" stroke-linecap="round" stroke-linejoin="round"/><circle cx="96" cy="96" r="52" stroke="#000" stroke-width="12" stroke-linecap="round" stroke-linejoin="round"/><path d="M108 78a12 12 0 1 0-24 0" stroke="#000" stroke-width="10" stroke-linecap="round" stroke-linejoin="round"/><path d="M22 96h22m104 0h22" stroke="#000" stroke-width="12" stroke-linecap="round" stroke-linejoin="round"/></svg>