<svg xmlns="http://www.w3.org/2000/svg" width="192" height="192" fill="none" viewBox="0 0 192 192"><path stroke="#000" stroke-linecap="round" stroke-linejoin="round" stroke-width="10" d="M96 126a6 6 0 1 0 0-12 6 6 0 0 0 0 12m0-6v26"/><path stroke="#000" stroke-linecap="round" stroke-linejoin="round" stroke-width="6" d="M83 52a3 3 0 1 0 0-6 3 3 0 0 0 0 6m28 0a3 3 0 1 0 0-6 3 3 0 0 0 0 6"/><path stroke="#000" stroke-linecap="round" stroke-linejoin="round" stroke-width="12" d="M58 90V61a39 39 0 0 1 78 0v29m-95 6a6 6 0 0 1 6-6h98a6 6 0 0 1 6 6v68a6 6 0 0 1-1.757 4.243A6 6 0 0 1 145 170H47a6 6 0 0 1-6-6z"/><path stroke="#000" stroke-linecap="round" stroke-linejoin="round" stroke-width="10" d="M88 68s4 3 9 3 9-3 9-3"/></svg>