<svg xmlns="http://www.w3.org/2000/svg" width="192" height="192" fill="none"><path stroke="#000" stroke-linecap="round" stroke-linejoin="round" stroke-width="12" d="M96 89v23m71.479-35.153a74 74 0 0 1-90.632 90.63"/><path stroke="#000" stroke-linecap="round" stroke-linejoin="round" stroke-width="12" d="M129.941 129.941a47.99 47.99 0 0 1-46.364 12.423m-21.518-12.423A48 48 0 0 1 48 96m6.43-24a48 48 0 0 1 87.934 36.423"/><circle cx="96" cy="89" r="6" stroke="#000" stroke-linecap="round" stroke-linejoin="round" stroke-width="12"/><path stroke="#000" stroke-linecap="round" stroke-linejoin="round" stroke-width="12" d="M43.674 148.326A74 74 0 0 1 31.914 59M59 31.914a74 74 0 0 1 89.326 11.76"/></svg>