<svg width="192" height="192" viewBox="0 0 192 192" fill="none" xmlns="http://www.w3.org/2000/svg"><path d="M170 96a74.002 74.002 0 0 1-74 74 73.997 73.997 0 0 1-74-74 74.001 74.001 0 0 1 148 0h0Z" stroke="#000" stroke-width="12" stroke-linecap="round" stroke-linejoin="round"/><path d="M111.556 111.556A21.99 21.99 0 0 1 96 118a21.992 21.992 0 0 1-15.556-6.444m31.112 0A21.99 21.99 0 0 0 118 96a21.992 21.992 0 0 0-6.444-15.556m0 31.112L63.113 160m17.33-48.444a22.003 22.003 0 0 1 0-31.112m0 31.112L32 63.113m48.444 17.33a22 22 0 0 1 31.112 0m-31.112 0L128.887 32m-17.331 48.444L159.113 128" stroke="#000" stroke-width="12" stroke-linecap="round" stroke-linejoin="round"/></svg>