<svg xmlns="http://www.w3.org/2000/svg" width="192" height="192" fill="none" viewBox="0 0 192 192"><path stroke="#000" stroke-linecap="round" stroke-linejoin="round" stroke-width="12" d="M38.028 53.993H27.854Zm-6.002 15.165h-10.11zm57.578 0H46.107ZM40.165 88.452h-10.11Zm49.438 0H55.068Zm-53.962 14.77h-10.11Zm77.905-79.456H52.647v30.012l36.957.215V42.106l51.317 35.793-51.317 35.722V103.62l-36.956-.397v65.027H73.98a15.564 15.564 0 0 0 11.009-4.563 15.587 15.587 0 0 0 4.559-11.018v-18.52h24.134a55.152 55.152 0 0 0 48.76-27.295 55.242 55.242 0 0 0-.07-55.914 55.149 55.149 0 0 0-48.827-27.173z"/></svg>