<svg xmlns="http://www.w3.org/2000/svg" xml:space="preserve" width="192" height="192" fill="none" viewBox="0 0 192 192"><g style="stroke-width:19.5988;stroke-dasharray:none"><path fill="#fff" d="M15.77 51.252H-.846ZM5.968 76.02h-16.513zm94.038 0h-71.04Zm-80.745 31.513H2.75Zm80.744 0H43.601Zm-88.133 24.121H-4.64ZM139.11 1.885H39.647v49.017l60.36.35V31.838l83.812 58.459-83.813 58.343v-16.336l-60.358-.649V237.86H74.49a25.419 25.419 0 0 0 17.98-7.453 25.457 25.457 0 0 0 7.446-17.994v-30.248h39.418c32.657.687 63.128-16.37 79.635-44.58a90.224 90.224 0 0 0-.113-91.32c-16.576-28.167-47.089-45.15-79.746-44.38z" style="fill:none;stroke:#000;stroke-width:19.5988;stroke-linecap:round;stroke-linejoin:round;stroke-dasharray:none;stroke-opacity:1" transform="translate(28.372 22.612) scale(.61228)"/></g></svg>