<svg width="192" height="192" viewBox="0 0 192 192" fill="none" xmlns="http://www.w3.org/2000/svg"><path d="M153.962 29H84.613a6.008 6.008 0 0 0-5.466 3.511l-56.599 124c-1.813 3.973 1.094 8.489 5.466 8.489h23.842a6.007 6.007 0 0 0 5.466-3.511l19.617-42.978A6.007 6.007 0 0 1 82.405 115h46.909a16.02 16.02 0 0 0 14.576-9.363l24.648-54C173.374 41.042 165.62 29 153.962 29Z" stroke="#000" stroke-width="12" stroke-linecap="round" stroke-linejoin="round"/><path d="M121.449 54h-13.195c-.961 0-1.834.575-2.233 1.47L92.224 86.447C91.484 88.11 92.67 90 94.457 90h16.924c2.563 0 4.89-1.532 5.954-3.92l10.068-22.604c1.975-4.435-1.192-9.476-5.954-9.476Z" stroke="#000" stroke-width="12" stroke-linecap="round" stroke-linejoin="round"/></svg>