<svg width="192" height="192" viewBox="0 0 192 192" fill="none" xmlns="http://www.w3.org/2000/svg"><path d="M119 68v36M99 68v36M79 68v36M59 68v36" stroke="#000" stroke-width="10" stroke-linecap="round" stroke-linejoin="round"/><path d="M89 142c30.928 0 56-25.072 56-56s-25.072-56-56-56-56 25.072-56 56 25.072 56 56 56Z" stroke="#000" stroke-width="12" stroke-linecap="round" stroke-linejoin="round"/><path d="M24 43a4 4 0 1 0 0-8 4 4 0 0 0 0 8Zm80 129a4 4 0 1 0 0-8 4 4 0 0 0 0 8Zm64-64a4 4 0 1 0 0-8 4 4 0 0 0 0 8Zm-21 43a4 4 0 1 0 0-8 4 4 0 0 0 0 8Zm-20 14a4 4 0 1 0 0-8 4 4 0 0 0 0 8Zm34-34a4 4 0 1 0 0-8 4 4 0 0 0 0 8Z" stroke="#000" stroke-width="8" stroke-linecap="round" stroke-linejoin="round"/></svg>