<svg xmlns="http://www.w3.org/2000/svg" width="192" height="192" fill="none" viewBox="0 0 192 192"><path stroke="#000" stroke-linecap="round" stroke-linejoin="round" stroke-width="10" d="M119 68v36M99 68v36M79 68v36M59 68v36"/><path stroke="#000" stroke-linecap="round" stroke-linejoin="round" stroke-width="12" d="M89 142c30.928 0 56-25.072 56-56s-25.072-56-56-56-56 25.072-56 56 25.072 56 56 56"/><path stroke="#000" stroke-linecap="round" stroke-linejoin="round" stroke-width="8" d="M24 43a4 4 0 1 0 0-8 4 4 0 0 0 0 8m80 129a4 4 0 1 0 0-8 4 4 0 0 0 0 8m64-64a4 4 0 1 0 0-8 4 4 0 0 0 0 8m-21 43a4 4 0 1 0 0-8 4 4 0 0 0 0 8m-20 14a4 4 0 1 0 0-8 4 4 0 0 0 0 8m34-34a4 4 0 1 0 0-8 4 4 0 0 0 0 8"/></svg>