<svg width="192" height="192" viewBox="0 0 192 192" fill="none" xmlns="http://www.w3.org/2000/svg"><path d="M22 46c0-5.523 4.477-10 10-10h32.109a6 6 0 0 1 3.44 1.085l16.902 11.83A6 6 0 0 0 87.89 50H160c5.523 0 10 4.477 10 10v86c0 5.523-4.477 10-10 10H32c-5.523 0-10-4.477-10-10V46Z" stroke="#000" stroke-width="12" stroke-linecap="round" stroke-linejoin="round"/><path d="M22 66h31.096a6 6 0 0 1 3.46 1.098l13.888 9.804A6 6 0 0 0 73.904 78H126c5.523 0 10 4.477 10 10v68" stroke="#000" stroke-width="12" stroke-linecap="round" stroke-linejoin="round"/></svg>