<svg id="Layer_1" data-name="Layer 1" xmlns="http://www.w3.org/2000/svg" viewBox="0 0 24 24">
  <path d="M10.54042,18.40783l-5.669-4.004V21.071a.92908.92908,0,0,0,.929.929H18.19958a.92908.92908,0,0,0,.929-.929V14.46058l-5.5885,3.94725A2.60041,2.60041,0,0,1,10.54042,18.40783ZM12,2A7.12825,7.12825,0,0,0,4.87141,9.12807v3.72171a1.80863,1.80863,0,0,0,.64721.816l5.41664,3.93384a1.92663,1.92663,0,0,0,2.21,0l5.41664-3.93384a1.81144,1.81144,0,0,0,.5667-.64153V9.12807A7.12826,7.12826,0,0,0,12,2Zm4.0319,8.83951H7.9681V9.12807a4.0319,4.0319,0,1,1,8.0638,0Z"/>
</svg>
