<svg width="192" height="192" viewBox="0 0 192 192" fill="none" xmlns="http://www.w3.org/2000/svg"><path d="M170 108v48m-13-39 13-9m-48 24c2.426 0 4.804-.627 6.865-1.81 2.06-1.182 3.721-2.874 4.794-4.883a11.192 11.192 0 0 0 1.278-6.483c-.237-2.229-1.146-4.352-2.623-6.129-1.478-1.777-3.464-3.137-5.735-3.926a14.02 14.02 0 0 0-7.115-.538c-2.38.437-4.58 1.48-6.351 3.011-1.771 1.531-3.042 3.489-3.67 5.652" stroke="#000" stroke-width="12" stroke-linecap="round" stroke-linejoin="round"/><path d="M109.443 147.106c.628 2.163 1.899 4.121 3.67 5.652 1.771 1.531 3.971 2.574 6.351 3.011a14.02 14.02 0 0 0 7.115-.538c2.271-.789 4.257-2.149 5.735-3.926 1.477-1.777 2.386-3.9 2.623-6.129a11.192 11.192 0 0 0-1.278-6.483c-1.073-2.009-2.734-3.701-4.794-4.883A13.814 13.814 0 0 0 122 132m48-47V46c0-5.523-4.477-10-10-10H32c-5.523 0-10 4.477-10 10v100c0 5.523 4.477 10 10 10h35.444a10 10 0 0 0 7.546-3.438L92 133" stroke="#000" stroke-width="12" stroke-linecap="round" stroke-linejoin="round"/><path d="M22 66h104c5.523 0 10 4.477 10 10v12" stroke="#000" stroke-width="12" stroke-linecap="round" stroke-linejoin="round"/></svg>