<svg xmlns="http://www.w3.org/2000/svg" width="192" height="192" viewBox="0 0 192 192"><path d="M158.44 42a5.56 5.56 0 0 1 5.56 5.56v96.88a5.56 5.56 0 0 1-5.56 5.56H33.56a5.56 5.56 0 0 1-5.56-5.56V47.56A5.56 5.56 0 0 1 33.56 42zm0-12H33.56A17.56 17.56 0 0 0 16 47.56v96.88A17.56 17.56 0 0 0 33.56 162h124.88A17.56 17.56 0 0 0 176 144.44V47.56A17.56 17.56 0 0 0 158.44 30"/><path d="M130 62v30a36.1 36.1 0 0 0-17.72 11.4l-27.19 31.72A36.3 36.3 0 0 0 77.4 150H34.56a5.56 5.56 0 0 1-5.56-5.56V62zm.67-12H17v94.44A17.56 17.56 0 0 0 34.56 162H88l.39-5a24.38 24.38 0 0 1 5.82-14l27.18-31.71a23.67 23.67 0 0 1 13.86-8.1l1.3-.18A6 6 0 0 0 142 97V61.33A11.33 11.33 0 0 0 130.67 50"/><path stroke="#000" stroke-linecap="round" stroke-linejoin="round" stroke-width="12" d="m137 120 8-4v23"/></svg>