<svg xmlns="http://www.w3.org/2000/svg" width="192" height="192" viewBox="0 0 192 192"><path d="M64 43a1 1 0 0 1 .56.17l12.34 8.46A24.9 24.9 0 0 0 91 56h72a1 1 0 0 1 1 1v91a1 1 0 0 1-1 1H29a1 1 0 0 1-1-1V44a1 1 0 0 1 1-1zm0-12H29a13 13 0 0 0-13 13v104a13 13 0 0 0 13 13h134a13 13 0 0 0 13-13V57a13 13 0 0 0-13-13H91a13 13 0 0 1-7.34-2.27l-12.34-8.46A13 13 0 0 0 64 31"/><path d="M35.19 61a7.2 7.2 0 0 1 4 1.21l11.33 7.55A31.06 31.06 0 0 0 67.81 75h59.94a1.25 1.25 0 0 1 1.25 1.25V149H29.25a1.25 1.25 0 0 1-1.25-1.25V61zm0-12H16v98.75A13.25 13.25 0 0 0 29.25 161H141V76.25A13.25 13.25 0 0 0 127.75 63H67.81a19.2 19.2 0 0 1-10.64-3.22l-11.34-7.56A19.2 19.2 0 0 0 35.19 49"/></svg>