<svg width="192" height="192" viewBox="0 0 192 192" fill="none" xmlns="http://www.w3.org/2000/svg">
<path fill-rule="evenodd" clip-rule="evenodd" d="M140 37C140 32.0294 144.029 28 149 28C153.971 28 158 32.0294 158 37C158 41.9706 153.971 46 149 46C144.029 46 140 41.9706 140 37ZM149 16C137.402 16 128 25.402 128 37C128 37.1449 128.001 37.2894 128.004 37.4336L60.3325 59.1397C56.5487 53.6206 50.1971 50 43 50C31.402 50 22 59.402 22 71C22 82.598 31.402 92 43 92C45.9383 92 48.7357 91.3965 51.2749 90.3068L95.4984 143.39C93.2879 146.716 92 150.707 92 155C92 166.598 101.402 176 113 176C124.598 176 134 166.598 134 155C134 147.69 130.265 141.252 124.598 137.491L148.863 57.9996C148.909 57.9999 148.954 58 149 58C160.598 58 170 48.598 170 37C170 25.402 160.598 16 149 16ZM137.385 54.4984C135.137 53.0032 133.194 51.0864 131.668 48.8608L63.9956 70.5669C63.9985 70.7109 64 70.8553 64 71C64 75.2984 62.7086 79.2951 60.4926 82.6234L104.71 135.7C107.253 134.606 110.056 134 113 134C113.039 134 113.078 134 113.117 134L137.385 54.4984ZM34 71C34 66.0294 38.0294 62 43 62C47.9706 62 52 66.0294 52 71C52 75.9706 47.9706 80 43 80C38.0294 80 34 75.9706 34 71ZM113 146C108.029 146 104 150.029 104 155C104 159.971 108.029 164 113 164C117.971 164 122 159.971 122 155C122 150.029 117.971 146 113 146Z" fill="black"/>
</svg>
