<svg width="192" height="192" viewBox="0 0 192 192" fill="none" xmlns="http://www.w3.org/2000/svg"><path d="M60 66v58m17-58H60m17 36H60m17-36a18 18 0 0 1 0 36" stroke="#000" stroke-width="12" stroke-linecap="round" stroke-linejoin="round"/><path d="M124 102s-11-3-11-11c0-7.5 6-11 11-11s11 3 11 3m-11 19s11 3 11 11c0 7.5-6 11-11 11s-11-3-11-3" stroke="#000" stroke-width="12" stroke-linecap="round"/><path d="M160.086 59A74 74 0 1 1 133 31.914" stroke="#000" stroke-width="12" stroke-linecap="round" stroke-linejoin="round"/></svg>