<svg xmlns="http://www.w3.org/2000/svg" width="192" height="192" fill="none" viewBox="0 0 192 192"><path stroke="#000" stroke-linecap="round" stroke-linejoin="round" stroke-width="12" d="M60 66v58m17-58H60m17 36H60m17-36a18 18 0 0 1 0 36"/><path stroke="#000" stroke-linecap="round" stroke-width="12" d="M124 102s-11-3-11-11c0-7.5 6-11 11-11s11 3 11 3m-11 19s11 3 11 11c0 7.5-6 11-11 11s-11-3-11-3"/><path stroke="#000" stroke-linecap="round" stroke-linejoin="round" stroke-width="12" d="M160.086 59A74 74 0 1 1 133 31.914"/></svg>