<?xml version="1.0" encoding="utf-8"?>
<svg
	version="1.1"
	xmlns="http://www.w3.org/2000/svg"
	xmlns:xlink="http://www.w3.org/1999/xlink"
	x="0%" y="0%"
	width="100%" height="100%"
	viewBox="0 0 24.0 24.0"
	enable-background="new 0 0 24.0 24.0"
	xml:space="preserve">
	<path
		fill="#000000"
		stroke="#000000"
		fill-opacity="1.000"
		stroke-opacity="1.000"
		fill-rule="nonzero"
		stroke-width="0.021355256"
		stroke-linejoin="miter"
		stroke-linecap="square"
		d="M2.42,13.90C2.21,13.90,2.19,13.72,2.19,13.49L2.20,10.22L2.34,10.06L2.20,9.74C2.05,9.75,1.98,9.70,1.98,9.56L1.98,8.42C1.98,8.32,2.09,8.24,2.20,8.24L2.20,6.33L2.39,6.13L2.20,5.93L2.20,3.76C2.19,3.58,2.31,3.52,2.48,3.52L5.54,3.52C5.97,3.49,6.30,3.72,6.30,4.15L6.29,9.09C6.29,9.47,5.98,9.70,5.66,9.70L3.81,9.74L3.81,13.49C3.81,13.69,3.78,13.88,3.55,13.90zM3.77,4.92L3.76,7.84L3.68,8.00L3.92,8.29L4.55,8.29L4.55,8.22L4.63,8.22L4.63,8.10L4.79,8.10L4.79,7.78L4.66,7.70L4.67,4.92L3.77,4.92z"/>
	<path
		fill="#000000"
		stroke="#000000"
		fill-opacity="1.000"
		stroke-opacity="1.000"
		fill-rule="nonzero"
		stroke-width="0.021355256"
		stroke-linejoin="miter"
		stroke-linecap="square"
		d="M8.77,3.52C8.94,3.52,9.03,3.61,9.04,3.75L9.04,12.23C9.04,12.42,9.13,12.54,9.31,12.54L9.90,12.37L9.93,12.52C10.19,12.52,10.29,12.43,10.27,12.23L10.27,3.77C10.27,3.65,10.30,3.55,10.48,3.54L11.65,3.54C11.76,3.55,11.84,3.60,11.84,3.77L11.84,3.99L11.77,4.07L11.77,4.29L11.84,4.29L11.84,4.44L11.70,4.73L11.87,4.95L11.87,13.34C11.87,13.67,11.64,13.89,11.28,13.89L7.98,13.89C7.63,13.89,7.41,13.67,7.46,13.34L7.44,3.76C7.44,3.64,7.53,3.51,7.69,3.51z"/>
	<path
		fill="#000000"
		stroke="#000000"
		fill-opacity="1.000"
		stroke-opacity="1.000"
		fill-rule="nonzero"
		stroke-width="0.021355256"
		stroke-linejoin="miter"
		stroke-linecap="square"
		d="M13.15,3.50L16.55,3.49C16.74,3.57,16.89,3.75,16.89,3.96L16.89,7.62C16.84,7.91,16.79,8.10,16.45,8.32C16.79,8.46,16.84,8.65,16.87,8.92L16.87,13.32C16.87,13.62,16.60,13.90,16.33,13.90L13.04,13.90C12.92,13.90,12.89,13.82,12.90,13.69L12.88,9.16C12.78,9.16,12.71,9.13,12.71,8.98L12.71,7.94C12.70,7.85,12.75,7.77,12.88,7.76L13.06,7.46L12.91,7.22L12.91,6.50C13.06,6.44,13.06,6.22,12.91,6.12L12.91,3.69C12.91,3.53,12.97,3.50,13.15,3.50zM14.55,9.37L14.55,12.30A0.23 0.23 0 0 0 14.78,12.53L15.06,12.53A0.23 0.23 0 0 0 15.30,12.30L15.30,9.37A0.23 0.23 0 0 0 15.06,9.14L14.78,9.14A0.23 0.23 0 0 0 14.55,9.37zM14.55,5.16L14.55,7.50A0.26 0.26 0 0 0 14.81,7.76L15.07,7.76A0.26 0.26 0 0 0 15.33,7.50L15.33,5.16A0.26 0.26 0 0 0 15.07,4.90L14.81,4.90A0.26 0.26 0 0 0 14.55,5.16z"/>
	<path
		fill="#000000"
		stroke="#000000"
		fill-opacity="1.000"
		stroke-opacity="1.000"
		fill-rule="nonzero"
		stroke-width="0.021355256"
		stroke-linejoin="miter"
		stroke-linecap="square"
		d="M18.53,13.90C18.21,13.85,18.03,13.69,18.03,13.32L18.02,4.15C18.02,3.78,18.19,3.52,18.60,3.50L21.52,3.50C21.76,3.50,22.01,3.70,22.03,3.89L22.03,5.86C22.03,5.95,21.98,5.97,21.91,5.97L20.81,5.97C20.74,5.97,20.70,5.92,20.70,5.86L20.70,5.05L20.50,4.86L19.73,4.86C19.51,4.87,19.51,5.18,19.59,5.23L19.59,12.29C19.59,12.47,19.68,12.52,19.78,12.55L20.37,12.55C20.64,12.53,20.74,12.19,20.55,12.04L20.55,8.97C20.41,8.96,20.26,8.97,20.27,8.83L20.27,7.78C20.26,7.66,20.37,7.64,20.47,7.64L21.85,7.64C21.94,7.64,22.02,7.68,22.02,7.78L22.02,13.39C21.94,13.77,21.74,13.90,21.42,13.90L18.53,13.90z"/>
	<path
		fill="#000000"
		stroke="#000000"
		fill-opacity="1.000"
		stroke-opacity="1.000"
		fill-rule="nonzero"
		stroke-width="0.021355256"
		stroke-linejoin="miter"
		stroke-linecap="square"
		d="M5.48,16.50L5.48,19.72L6.50,19.72L6.50,20.43L4.70,20.43L4.70,16.50z"/>
	<path
		fill="#000000"
		stroke="#000000"
		fill-opacity="1.000"
		stroke-opacity="1.000"
		fill-rule="nonzero"
		stroke-width="0.021355256"
		stroke-linejoin="miter"
		stroke-linecap="square"
		d="M9.42,16.50L10.18,16.50L10.18,20.43L9.42,20.43z"/>
	<path
		fill="#000000"
		stroke="#000000"
		fill-opacity="1.000"
		stroke-opacity="1.000"
		fill-rule="nonzero"
		stroke-width="0.021355256"
		stroke-linejoin="miter"
		stroke-linecap="square"
		d="M15.12,16.50L15.12,17.15L14.53,17.15L14.53,20.43L13.75,20.43L13.75,17.15L13.21,17.15L13.21,16.50z"/>
	<path
		fill="#000000"
		stroke="#000000"
		fill-opacity="1.000"
		stroke-opacity="1.000"
		fill-rule="nonzero"
		stroke-width="0.021355256"
		stroke-linejoin="miter"
		stroke-linecap="square"
		d="M18.77,17.13L18.77,18.03L19.45,18.03L19.45,18.59L18.77,18.59L18.77,19.71L19.52,19.71L19.52,20.43L18.03,20.43L18.03,16.53L19.52,16.53L19.52,17.13z"/>
</svg>