<svg xmlns="http://www.w3.org/2000/svg" width="192" height="192" fill="none" viewBox="0 0 192 192"><circle cx="98" cy="92" r="15" stroke="#000" stroke-linecap="round" stroke-linejoin="round" stroke-width="12"/><path stroke="#000" stroke-linecap="round" stroke-linejoin="round" stroke-width="12" d="M58 64a6 6 0 0 0 6-6V31a6 6 0 0 1 6-6h52a6 6 0 0 1 6 6v27a6 6 0 0 0 6 6h27a6 6 0 0 1 6 6v52a6 6 0 0 1-6 6h-27a6 6 0 0 0-6 6v27a6 6 0 0 1-6 6H70a6 6 0 0 1-6-6v-27a6 6 0 0 0-6-6H31a6 6 0 0 1-6-6V70a6 6 0 0 1 6-6zm25 54V92"/></svg>