<svg width="192" height="192" viewBox="0 0 192 192" fill="none" xmlns="http://www.w3.org/2000/svg"><circle cx="98" cy="92" r="15" stroke="#000" stroke-width="12" stroke-linecap="round" stroke-linejoin="round"/><path d="M58 64a6 6 0 0 0 6-6V28a6 6 0 0 1 6-6h52a6 6 0 0 1 6 6v30a6 6 0 0 0 6 6h30a6 6 0 0 1 6 6v52a6 6 0 0 1-6 6h-30a6 6 0 0 0-6 6v30a6 6 0 0 1-6 6H70a6 6 0 0 1-6-6v-30a6 6 0 0 0-6-6H28a6 6 0 0 1-6-6V70a6 6 0 0 1 6-6h30Zm25 54V92" stroke="#000" stroke-width="12" stroke-linecap="round" stroke-linejoin="round"/></svg>