<svg xmlns="http://www.w3.org/2000/svg" width="192" height="192" fill="none"><circle cx="99" cy="91" r="19" stroke="#000" stroke-linecap="round" stroke-linejoin="round" stroke-width="12"/><path stroke="#000" stroke-linecap="round" stroke-linejoin="round" stroke-width="12" d="M55 61a6 6 0 0 0 6-6V28a6 6 0 0 1 6-6h58a6 6 0 0 1 6 6v27a6 6 0 0 0 6 6h27a6 6 0 0 1 6 6v58a6 6 0 0 1-6 6h-27a6 6 0 0 0-6 6v27a6 6 0 0 1-6 6H67a6 6 0 0 1-6-6v-27a6 6 0 0 0-6-6H28a6 6 0 0 1-6-6V67a6 6 0 0 1 6-6zm25 60V91"/></svg>