<svg width="192" height="192" fill="none" xmlns="http://www.w3.org/2000/svg"><path d="M108 132a55.003 55.003 0 0 0 55-55 55.002 55.002 0 0 0-55-55" stroke="#000" stroke-width="12" stroke-linecap="round" stroke-linejoin="round"/><path d="M108 101a24.002 24.002 0 0 0 24-24 24.003 24.003 0 0 0-24-24" stroke="#000" stroke-width="12" stroke-linecap="round" stroke-linejoin="round"/><circle cx="108" cy="77" r="4" stroke="#000" stroke-width="8" stroke-linecap="round" stroke-linejoin="round"/><path d="M108 22H44a6 6 0 0 0-6 6v25m70 79H74.683a6 6 0 0 0-4.472 1.999L38 170v-69m70-48H34a6 6 0 0 0-6 6v36a6 6 0 0 0 6 6h74" stroke="#000" stroke-width="12" stroke-linecap="round" stroke-linejoin="round"/></svg>