<svg xmlns="http://www.w3.org/2000/svg" width="192" height="192" fill="none"><path stroke="#000" stroke-linecap="round" stroke-linejoin="round" stroke-width="12" d="M108 132a55.003 55.003 0 0 0 55-55 55 55 0 0 0-55-55"/><path stroke="#000" stroke-linecap="round" stroke-linejoin="round" stroke-width="12" d="M108 101a24 24 0 0 0 24-24 24.003 24.003 0 0 0-24-24"/><circle cx="108" cy="77" r="4" stroke="#000" stroke-linecap="round" stroke-linejoin="round" stroke-width="8"/><path stroke="#000" stroke-linecap="round" stroke-linejoin="round" stroke-width="12" d="M108 22H44a6 6 0 0 0-6 6v25m70 79H74.683a6 6 0 0 0-4.472 1.999L38 170v-69m70-48H34a6 6 0 0 0-6 6v36a6 6 0 0 0 6 6h74"/></svg>