<svg width="192" height="192" viewBox="0 0 192 192" fill="none" xmlns="http://www.w3.org/2000/svg">
<path d="M142.036 121.58L137.395 89.9652C136.99 87.2076 134.427 85.3003 131.669 85.7051C128.912 86.11 126.348 84.2027 125.943 81.4451L125.296 77.0389C124.534 71.8478 119.708 68.2574 114.517 69.0194L61.416 76.8148C56.2249 77.5769 52.6345 82.4029 53.3966 87.5939L54.0434 92.0002C54.4482 94.7577 52.5409 97.3214 49.7834 97.7262C47.0258 98.131 45.1185 100.695 45.5233 103.452L50.1644 135.067M142.036 121.58L50.1644 135.067M142.036 121.58L167.001 117.915M50.1644 135.067L36.184 137.119M25.1993 138.732L36.184 137.119M36.184 137.119L25.9221 71.8047C25.341 68.1063 26.5193 64.3486 29.1081 61.6441L37.3828 53" stroke="black" stroke-width="12" stroke-linecap="round" stroke-linejoin="round"/>
</svg>
