<svg xmlns="http://www.w3.org/2000/svg" width="192" height="192" fill="none"><path stroke="#000" stroke-linecap="round" stroke-linejoin="round" stroke-width="12" d="m35.473 141.315-13.27-68.264a11.04 11.04 0 0 1 1.58-8.123L33.483 50m-6.69 93 31.463-6.109m0 0-6.569-33.789a4.42 4.42 0 0 1 3.497-5.18 4.42 4.42 0 0 0 3.496-5.179l-1.247-6.417c-1.154-5.939 2.727-11.688 8.67-12.842l64.186-12.463c5.943-1.153 11.696 2.726 12.851 8.665l1.247 6.416a4.42 4.42 0 0 0 5.183 3.495 4.42 4.42 0 0 1 5.182 3.494l6.569 33.79m-103.065 20.01 103.065-20.01m0 0 8.679-1.686"/></svg>