<svg width="192" height="192" viewBox="0 0 192 192" fill="none" xmlns="http://www.w3.org/2000/svg">
<path d="M35.4728 141.315L22.2029 73.0506C21.6567 70.2408 22.2232 67.3289 23.7831 64.9284L33.4839 50M26.7937 143L58.2557 136.891M58.2557 136.891L51.6873 103.102C51.2217 100.707 52.7872 98.3879 55.1838 97.9226C57.5805 97.4572 59.146 95.1383 58.6804 92.743L57.433 86.3264C56.2785 80.3874 60.1601 74.6375 66.1027 73.4837L130.289 61.0214C136.232 59.8676 141.985 63.7468 143.14 69.6858L144.387 76.1024C144.853 78.4977 147.173 80.0622 149.57 79.5968C151.967 79.1315 154.287 80.696 154.752 83.0912L161.321 116.881M58.2557 136.891L161.321 116.881M161.321 116.881L170 115.195" stroke="black" stroke-width="12" stroke-linecap="round" stroke-linejoin="round"/>
</svg>
