<svg xmlns="http://www.w3.org/2000/svg" width="192" height="192" fill="none"><path stroke="#000" stroke-linecap="round" stroke-linejoin="round" stroke-width="12" d="m146.866 55.257 5.956.684c8.772 1.006 15.073 8.983 14.074 17.816l-9.275 81.967c-.999 8.833-8.92 15.177-17.692 14.171l-81.4-9.339c-8.773-1.006-15.073-8.983-14.074-17.816l.679-5.997m101.732-81.486.679-5.997c.999-8.833-5.302-16.81-14.073-17.816l-81.4-9.34c-8.773-1.005-16.694 5.34-17.693 14.172l-9.275 81.967c-1 8.833 5.302 16.81 14.074 17.816l5.956.684m101.732-81.486-8.595 75.97c-1 8.833-8.921 15.178-17.693 14.171l-75.444-8.655m14.74-23.624 2.714-23.99m0 0 3.845-33.986c.375-3.313 3.346-5.692 6.635-5.315l23.825 2.734a19.95 19.95 0 0 1 13.376 7.466 20.22 20.22 0 0 1 4.215 14.804A20.16 20.16 0 0 1 107.07 88.3a19.9 19.9 0 0 1-14.701 4.245l-29.781-3.417Z"/></svg>