<svg width="192" height="192" fill="none" xmlns="http://www.w3.org/2000/svg"><path d="M96 24h18a6 6 0 0 1 6 6v18M96 24H78a6 6 0 0 0-6 6v12a6 6 0 0 0 6 6h18m0-24v24m0 0h24m-24 0v24m24-24v24m0 0v18a6 6 0 0 1-6 6h-12a6 6 0 0 1-6-6V72m24 0H96m50 96h-18a6 6 0 0 1-6-6v-18m24 24h18a6 6 0 0 0 6-6v-18m-24 24v-66a6 6 0 0 1 6-6h12a6 6 0 0 1 6 6v18m-48 24v-18a6 6 0 0 1 6-6h42m-48 24h48m0 0v-24M46 168V78a6 6 0 0 0-6-6H28a6 6 0 0 0-6 6v18m24 72H28a6 6 0 0 1-6-6v-18m24 24h24m0 0v-66a6 6 0 0 0-6-6H22m48 72h18a6 6 0 0 0 6-6v-18m0 0v-18a6 6 0 0 0-6-6H22m72 24H22m0 0v-24m0 0V96" stroke="#000" stroke-width="12" stroke-linecap="round" stroke-linejoin="round"/></svg>