<svg width="192" height="192" viewBox="0 0 192 192" fill="none" xmlns="http://www.w3.org/2000/svg">
<path d="M19 110V91.0385M19 91.0385C19 96.5826 23.4944 101.077 29.0385 101.077C34.5826 101.077 39.0769 96.5826 39.0769 91.0385C39.0769 85.4944 34.5826 81 29.0385 81C23.4944 81 19 85.4944 19 91.0385Z" stroke="black" stroke-width="6" stroke-linecap="round"/>
<path d="M71.1525 99.9615L53.577 82.386M53.577 99.6909L71.1525 82.1154" stroke="black" stroke-width="6" stroke-linecap="round"/>
<path d="M85.9231 110V91.0385M85.9231 91.0385C85.9231 96.5826 90.4175 101.077 95.9616 101.077C101.506 101.077 106 96.5826 106 91.0385C106 85.4944 101.506 81 95.9616 81C90.4175 81 85.9231 85.4944 85.9231 91.0385Z" stroke="black" stroke-width="6" stroke-linecap="round"/>
<path d="M140.577 101.077V81M140.577 91.0385C140.577 96.5826 136.083 101.077 130.538 101.077C124.994 101.077 120.5 96.5826 120.5 91.0385C120.5 85.4944 124.994 81 130.538 81C136.083 81 140.577 85.4944 140.577 91.0385Z" stroke="black" stroke-width="6" stroke-linecap="round"/>
<path d="M163.856 96.6204L155.077 82.2539M160.147 108.899L172.932 81.5018" stroke="black" stroke-width="6" stroke-linecap="round"/>
</svg>
