<svg xmlns="http://www.w3.org/2000/svg" width="192" height="192" fill="none" viewBox="0 0 192 192"><path stroke="#000" stroke-linecap="round" stroke-width="12" d="M50.819 88.117V52.733m0 0c0 10.345 8.386 18.732 18.732 18.732s18.733-8.387 18.733-18.732C88.284 42.387 79.897 34 69.55 34s-18.73 8.387-18.73 18.733Zm90.137 14.57-32.797-32.798m0 32.292L140.956 34M22 157.678v-35.383m0 0c0 10.345 8.387 18.732 18.733 18.732s18.732-8.387 18.732-18.732c0-10.346-8.387-18.733-18.732-18.733-10.346 0-18.733 8.387-18.733 18.733Zm94.805 18.732v-37.465m0 18.733c0 10.345-8.386 18.732-18.732 18.732S79.34 132.64 79.34 122.295c0-10.346 8.387-18.733 18.733-18.733s18.732 8.387 18.732 18.733Zm36.259 10.416-16.384-26.809m9.462 49.722L170 104.498"/></svg>