<svg xmlns="http://www.w3.org/2000/svg" width="192" height="192" fill="none" viewBox="0 0 192 192"><path stroke="#000" stroke-linejoin="round" stroke-width="12" d="M149.653 21.996c-9.844 25.25-32.255 30.505-64.72 30.505-3.489 0-6.937-.055-10.268-.103-3.222-.045-6.267-.092-9.253-.092-2.65 0-5.326.034-7.963.147C62 41.288 69.257 33.7 79.59 29.097c14.4-6.41 33.128-6.475 49.653-6.523 7.197-.027 14.093-.054 20.414-.578zm-72.327 45.87-3.701 16.203c22.374-18.505 64.682 5.486 60.626 40.752-2.73 23.752-19.662 39.285-37.575 43.749-19.518 4.867-41.135-2.415-50.83-22.302-1.029-2.1-2.818-6.311-3.502-8.562l20.578-5.285c.363 1.184.982 2.333 1.628 3.377 13.778 22.22 41.697 11.11 44.847-11.942 3.208-23.45-29.694-35.943-44.69-8.534l-18.248-7.778-.315-.14L56.51 68.02z"/></svg>