<?xml version="1.0" standalone="no"?>
<!DOCTYPE svg PUBLIC "-//W3C//DTD SVG 20010904//EN"
 "http://www.w3.org/TR/2001/REC-SVG-20010904/DTD/svg10.dtd">
<svg version="1.0" xmlns="http://www.w3.org/2000/svg"
 width="192.000000pt" height="192.000000pt" viewBox="0 0 192.000000 192.000000"
 preserveAspectRatio="xMidYMid meet">

<g transform="translate(0.000000,192.000000) scale(0.100000,-0.100000)"
fill="#000000" stroke="none">
<path d="M313 1688 l-73 -10 0 -514 0 -514 75 0 75 0 0 205 0 205 63 0 c118 0
230 38 303 102 42 37 94 138 94 182 0 16 3 27 6 23 15 -15 261 -712 256 -729
-9 -35 -85 -109 -143 -138 -31 -16 -60 -34 -63 -39 -11 -17 35 -121 53 -121
69 0 222 129 278 235 17 33 83 202 146 375 63 173 124 338 135 367 25 61 23
63 -74 63 -43 0 -66 -4 -69 -12 -109 -346 -167 -518 -173 -518 -5 0 -46 118
-93 263 l-85 262 -87 3 -87 3 0 42 c0 97 -88 206 -199 248 -67 25 -225 33
-338 17z m284 -150 c68 -31 88 -68 88 -160 0 -61 -4 -82 -21 -105 -33 -46
-105 -76 -195 -81 l-79 -5 0 186 0 186 38 3 c60 6 124 -3 169 -24z"/>
<path d="M1380 680 l0 -39 75 -3 76 -3 -45 -68 c-73 -110 -71 -127 12 -127 84
0 119 -74 63 -131 -32 -31 -69 -37 -128 -20 -31 9 -33 8 -44 -26 -14 -42 -7
-49 63 -58 125 -18 218 54 218 168 0 67 -42 120 -112 141 -15 4 -9 17 37 82
30 42 55 87 55 100 l0 24 -135 0 -135 0 0 -40z"/>
</g>
</svg>
