<svg xmlns="http://www.w3.org/2000/svg" width="192" height="192" viewBox="0 0 192 192"><path fill="none" d="M0 0h192v192H0z"/><path fill="none" stroke="#000" stroke-linecap="round" stroke-linejoin="round" stroke-width="12" d="M25.19 119.47V23.49c26.75-6.29 49.99 8.3 50.35 25.18.45 21.33-21.98 28.51-50.35 31.47"/><path fill="none" stroke="#000" stroke-linecap="round" stroke-miterlimit="10" stroke-width="12" d="m96 56.54 25.18 67.65"/><path fill="none" stroke="#000" stroke-linecap="round" stroke-linejoin="round" stroke-width="12" d="M147.92 51.82 123 123.63c-2.47 7.12-6.38 13.71-11.7 19.04s-11.37 8.93-16.88 9.85"/><path fill="none" stroke="#000" stroke-linecap="round" stroke-linejoin="round" stroke-width="8" d="M143.2 124.19h21.06c-.26.81-13.19 20.45-13.19 20.45 9.44 0 15.73 4.72 15.73 12.59 0 4.72-1.57 14.16-23.6 12.59"/></svg>