<svg xmlns="http://www.w3.org/2000/svg" width="192" height="192" fill="none"><path stroke="#000" stroke-linecap="round" stroke-linejoin="round" stroke-width="12" d="M25 31a6 6 0 0 1 6-6h130a6 6 0 0 1 6 6v130a6 6 0 0 1-6 6H31a6 6 0 0 1-6-6z"/><path stroke="#000" stroke-linecap="round" stroke-linejoin="round" stroke-width="10" d="M50 82.286S51.357 85 54.071 85C56.786 85 69 65.999 69 65.999m.001-.002-.001.002m0 0S67.786 47 66.286 47s-8.143 2.714-8.143 2.714M69 66v.003m19-17.645S83.929 47 80.536 49.714C77.143 52.43 69 66.001 69 66.001m0 .002v-.002m0 0S74.573 85 78.501 85c6.785 0 8.143-5.429 8.143-5.429M69 66.001v-.003M50 145h10v-12.007c-5.38-2.593-9-7.441-9-12.993 0-8.284 8.059-15 18-15s18 6.716 18 15c0 5.552-3.62 10.4-9 12.993V145h10"/><path stroke="#000" stroke-linecap="round" stroke-linejoin="round" stroke-width="12" d="M112 107h30m-30-22h30"/></svg>