<svg width="192" height="192" viewBox="0 0 50.8 50.8" xmlns="http://www.w3.org/2000/svg"><g style="fill:none;stroke:#000;stroke-width:58.3763709;stroke-linecap:round;stroke-linejoin:round;stroke-dasharray:none;stroke-opacity:1"><path fill="@7F080006" d="M.79 292.38c-29.67 570.18 783.76 424.1 715.09 73.92C645.89 33.04 33.38-222.17.79 292.38Z" style="fill:none;stroke:#000;stroke-width:58.3763709;stroke-linecap:round;stroke-linejoin:round;stroke-dasharray:none;stroke-opacity:1" transform="matrix(.0544 0 0 .05438 5.82 7.046)"/><path fill="#FFFFFFFF" d="M259.46 496.68c-15.11 10.36-34.46 0-34.46-18.43V201.94c0-20.4 14.92-27.79 33-16.98 49.5 29.99 190.3 114.11 235.03 140.83 11.49 6.89 11.78 24.37-.01 31.09-124.41 74.42-202.27 121.01-233.56 139.8z" style="fill:none;stroke:#000;stroke-width:58.3763709;stroke-linecap:round;stroke-linejoin:round;stroke-dasharray:none;stroke-opacity:1" transform="matrix(.0544 0 0 .05438 5.82 7.046)"/></g></svg>