<svg width="192" height="192" viewBox="0 0 192 192" fill="none" xmlns="http://www.w3.org/2000/svg"><path d="M160.086 133A74 74 0 1 0 133 160.086" stroke="#000" stroke-width="12" stroke-linecap="round" stroke-linejoin="round"/><path d="M132.14 107.743a37.996 37.996 0 0 0-40.606-49.48 38 38 0 1 0 16.209 73.877" stroke="#000" stroke-width="12" stroke-linecap="round" stroke-linejoin="round"/><path d="M170 152a18 18 0 0 0-5.272-12.728l-24-24a18.01 18.01 0 0 0-19.616-3.902 18.02 18.02 0 0 0-5.84 3.902 18.01 18.01 0 0 0-3.902 19.616 18.02 18.02 0 0 0 3.902 5.84l24 24A18 18 0 0 0 170 152Z" stroke="#000" stroke-width="12" stroke-linecap="round" stroke-linejoin="round"/></svg>