<svg width="192" height="192" fill="none" xmlns="http://www.w3.org/2000/svg"><path d="M109.521 139.331C104.749 141.694 99.504 143 94 143c-3.51 0-6.915-.531-10.16-1.529C66.67 136.188 54 117.833 54 96c0-25.957 17.909-47 40-47s40 21.043 40 47c0 10.16-2.744 19.567-7.408 27.253L118 114H86l23.521 25.331Zm0 0 19.707 21.222m0 0A70.18 70.18 0 0 1 94 170c-39.764 0-72-33.131-72-74 0-40.87 32.236-74 72-74 39.765 0 72 33.13 72 74 0 19.106-7.045 36.521-18.611 49.65L170 170h-32l-8.772-9.447Z" stroke="#000" stroke-width="12" stroke-linecap="round" stroke-linejoin="round"/></svg>