<svg xmlns="http://www.w3.org/2000/svg" width="192" height="192" fill="none"><path stroke="#000" stroke-linecap="round" stroke-linejoin="round" stroke-width="12" d="M109.521 139.331C104.749 141.694 99.504 143 94 143c-3.51 0-6.915-.531-10.16-1.529C66.67 136.188 54 117.833 54 96c0-25.957 17.909-47 40-47s40 21.043 40 47c0 10.16-2.744 19.567-7.408 27.253L118 114H86zm0 0 19.707 21.222m0 0A70.2 70.2 0 0 1 94 170c-39.764 0-72-33.131-72-74s32.236-74 72-74 72 33.13 72 74c0 19.106-7.045 36.521-18.611 49.65L170 170h-32z"/></svg>