<svg xmlns="http://www.w3.org/2000/svg" width="192" height="192" fill="none" viewBox="0 0 192 192"><path stroke="#000" stroke-linecap="round" stroke-linejoin="round" stroke-width="12" d="m125 143-19-19m-28-15.5v-25c0-4.641 1.896-9.093 5.272-12.374S91.226 66 96 66s9.352 1.844 12.728 5.126S114 78.859 114 83.5v25c0 4.641-1.896 9.092-5.272 12.374S100.774 126 96 126s-9.352-1.844-12.728-5.126S78 113.141 78 108.5"/><path stroke="#000" stroke-linecap="round" stroke-linejoin="round" stroke-width="12" d="M143.432 125.195c-23.73 37.542-64.203 54.906-90.399 38.782s-28.195-59.629-4.465-97.172 64.203-54.906 90.399-38.782 28.195 59.63 4.465 97.172"/></svg>