<svg width="192" height="192" viewBox="0 0 192 192" fill="none" xmlns="http://www.w3.org/2000/svg"><path d="m153 86-6 12m0 0v10m0-10-6-12m-84 30-8-8m-11-6.417v-9.166c0-1.702.737-3.334 2.05-4.538C41.363 86.676 43.144 86 45 86c1.856 0 3.637.676 4.95 1.88 1.313 1.203 2.05 2.835 2.05 4.537v9.166c0 1.702-.737 3.334-2.05 4.538C48.637 107.324 46.856 108 45 108c-1.856 0-3.637-.676-4.95-1.879-1.313-1.204-2.05-2.836-2.05-4.538Zm65-10.827c-.447-1.504-1.486-2.81-2.922-3.675-1.437-.865-3.173-1.23-4.886-1.026-1.713.203-3.286.96-4.425 2.13C89.628 89.357 89 90.86 89 92.418v9.166c0 1.557.628 3.061 1.767 4.231 1.14 1.171 2.712 1.928 4.425 2.131 1.713.203 3.45-.162 4.886-1.026 1.436-.865 2.475-2.171 2.922-3.675" stroke="#000" stroke-width="8" stroke-linecap="round" stroke-linejoin="round"/><path d="M65.627 107.065c-9.177 15.396-25.476 22.922-36.404 16.811-10.928-6.111-12.348-23.545-3.17-38.94 9.177-15.397 25.476-22.923 36.404-16.812 10.928 6.11 12.348 23.545 3.17 38.941Zm100.32 0c-9.177 15.396-25.476 22.922-36.404 16.811-10.928-6.111-12.348-23.545-3.17-38.94 9.177-15.397 25.476-22.923 36.404-16.812 10.928 6.11 12.348 23.545 3.17 38.941Z" stroke="#000" stroke-width="8" stroke-linecap="round" stroke-linejoin="round"/><path d="M116.175 107.065c-9.357 15.396-25.975 22.922-37.118 16.811-11.143-6.111-12.59-23.545-3.233-38.94 9.358-15.397 25.976-22.923 37.119-16.812 11.143 6.11 12.59 23.545 3.232 38.941Z" stroke="#000" stroke-width="8" stroke-linecap="round" stroke-linejoin="round"/></svg>