<?xml version="1.0" encoding="utf-8"?>
	<svg version="1.1" xmlns="http://www.w3.org/2000/svg" xmlns:xlink="http://www.w3.org/1999/xlink" x="0px" y="0px" width="240.0" height="240.0" xml:space="preserve">
		<path d="M195.286,0C192.411,0.005 191.055,0.96 189.627,1.621C168.013,11.615 146.435,21.685 124.772,31.569C121.322,33.143 118.731,35.28 116.522,38.325C93.412,70.181 70.21,101.97 47.059,133.795C46.209,134.964 44.479,136.111 45.152,137.611C45.873,139.215 47.86,138.434 49.272,138.437C76.472,138.48 103.672,138.463 130.871,138.477C136.064,138.479 136.279,138.854 133.594,143.4C115.299,174.371 96.98,205.327 78.697,236.307C78.093,237.331 76.961,238.254 77.4,240C78.473,238.914 79.375,238.055 80.217,237.141C118.012,196.132 155.802,155.119 193.579,114.095C194.401,113.203 195.987,112.36 195.52,111.112C194.925,109.528 193.093,110.262 191.816,110.26C165.494,110.218 139.173,110.228 112.851,110.226C111.723,110.226 110.594,110.216 109.466,110.198C106.795,110.154 106.789,108.97 108.194,107.197C108.583,106.705 108.984,106.224 109.379,105.738C135.64,73.46 161.902,41.185 188.158,8.905C190.345,6.215 192.492,3.493 195.286,0" fill="#000" stroke="#00000000" stroke-width="1.0" stroke-miterlimit=""/>
	</svg>
