<?xml version="1.0" encoding="utf-8"?>
	<svg version="1.1" xmlns="http://www.w3.org/2000/svg" xmlns:xlink="http://www.w3.org/1999/xlink" x="0px" y="0px" width="240.0" height="240.0" xml:space="preserve">
		<path d="M192.556,20C198.692,20 203.667,24.975 203.667,31.111L203.667,31.111L203.667,208.889C203.667,215.025 198.692,220 192.556,220L192.556,220L48.111,220C41.975,220 37,215.025 37,208.889L37,208.889L37,80.156C37,77.209 38.172,74.383 40.256,72.3L40.256,72.3L89.3,23.256C91.383,21.172 94.209,20 97.156,20L97.156,20ZM175.889,147.778L64.778,147.778C57.37,147.778 53.667,151.481 53.667,158.889L53.667,192.222C53.667,199.63 57.37,203.333 64.778,203.333L175.889,203.333C183.296,203.333 187,199.63 187,192.222L187,158.889C187,151.481 183.296,147.778 175.889,147.778ZM112,47.778C106.444,47.778 103.667,50.556 103.667,56.111L103.667,89.444C103.667,94.897 106.343,97.674 111.694,97.775L112,97.778C117.556,97.778 120.333,95 120.333,89.444L120.333,56.111C120.333,50.658 117.657,47.882 112.306,47.781L112,47.778ZM145.333,47.778C139.778,47.778 137,50.556 137,56.111L137,89.444C137,94.897 139.676,97.674 145.028,97.775L145.333,97.778C150.889,97.778 153.667,95 153.667,89.444L153.667,56.111C153.667,50.658 150.991,47.882 145.639,47.781L145.333,47.778ZM178.667,47.778C173.111,47.778 170.333,50.556 170.333,56.111L170.333,89.444C170.333,94.897 173.009,97.674 178.361,97.775L178.667,97.778C184.222,97.778 187,95 187,89.444L187,56.111C187,50.658 184.324,47.882 178.972,47.781L178.667,47.778Z" fill="#000" stroke="#00000000" stroke-width="1.0" stroke-miterlimit=""/>
	</svg>
