<?xml version="1.0" encoding="utf-8"?>
<!-- Generator: Adobe Illustrator 27.0.0, SVG Export Plug-In . SVG Version: 6.00 Build 0)  -->
<svg version="1.1" id="图层_1" xmlns="http://www.w3.org/2000/svg" xmlns:xlink="http://www.w3.org/1999/xlink" x="0px" y="0px"
	 width="192px" height="192px" viewBox="0 0 192 192" style="enable-background:new 0 0 192 192;" xml:space="preserve">
<style type="text/css">
	.st0{fill:none;stroke:#000000;stroke-width:12;stroke-linecap:round;stroke-linejoin:round;stroke-miterlimit:10;}
</style>
<path class="st0" d="M138.8,65.7c7.5,9.7,12,21.9,12,35.2c0,15.4-6.1,29.4-16,39.8c-10.4,10.9-25.1,30.5-41.4,30.5
	c-16.3,0-30.9-19.7-41.4-30.5c-9.9-10.3-16-24.3-16-39.8c0-31.7,25.7-57.4,57.4-57.4c3.3,0,6.6,0.3,9.7,0.8"/>
<path class="st0" d="M92.9,102.2c0,0-7.1,15.5-32.4,0"/>
<path class="st0" d="M93.5,102.3c0,0,7.1,15.5,32.4,0"/>
<polyline class="st0" points="101.9,44.9 117,20.5 154,43.4 138.8,67.8 "/>
<path class="st0" d="M78.5,16.7c0,0,24.3,54.8,94.8,59.1"/>
<path class="st0" d="M102.9,44.3"/>
<path class="st0" d="M137.3,63.9"/>
</svg>
