<svg
    xmlns="http://www.w3.org/2000/svg"
    width="24"
    height="24"
    viewBox="0 0 24 24"
    id="vector">
    <path
        id="path"
        d="M 7.974 24.013
           C 6.33 24.014 4.752 23.879 4.465 23.391
           C 4.251 23.026 4.29 22.433 4.883 21.991
           C 5.202 21.754 5.607 21.553 6.003 21.392
           C 5.213 20.551 4.644 19.526 4.349 18.41
           C 3.245 19.964 2.792 19.912 2.603 19.885
           C 2.51 19.872 2.422 19.839 2.343 19.787
           C 2.265 19.736 2.2 19.667 2.152 19.587
           C 1.812 19.065 1.751 17.524 2.601 14.764 L 2.672 14.512 L 2.678 14.493
           C 2.925 13.732 3.188 13.005 3.38 12.547 L 4.364 10.068
           C 4.358 9.831 4.354 9.593 4.353 9.356
           C 4.353 5.04 6.355 0 12 0
           C 17.644 0 19.647 5.04 19.648 9.355
           C 19.648 9.554 19.641 9.894 19.637 10.066 L 20.485 12.204
           C 20.505 12.234 20.522 12.266 20.535 12.3
           C 20.847 13.088 21.105 13.823 21.399 14.758
           C 22.249 17.523 22.189 19.064 21.849 19.586
           C 21.801 19.666 21.735 19.735 21.657 19.786
           C 21.579 19.837 21.49 19.871 21.397 19.883
           C 21.207 19.91 20.756 19.961 19.653 18.408
           C 19.357 19.524 18.789 20.549 17.998 21.391
           C 18.395 21.552 18.802 21.753 19.12 21.991
           C 19.713 22.432 19.753 23.026 19.538 23.39
           C 18.936 24.413 12.664 23.881 12.001 23.82
           C 11.654 23.853 9.774 24.013 7.974 24.013
           Z M 5.413 22.849
           C 6.422 23.1 10.328 23.005 11.945 22.822
           C 11.982 22.818 12.02 22.818 12.057 22.822
           C 13.674 23.006 17.581 23.1 18.59 22.848
           C 18.568 22.829 18.545 22.81 18.522 22.793
           C 18.189 22.545 17.62 22.287 16.918 22.067
           C 16.804 22.031 16.706 21.956 16.643 21.854
           C 16.579 21.752 16.555 21.631 16.573 21.513
           C 16.591 21.395 16.652 21.287 16.743 21.209
           C 18.291 19.889 18.841 18.126 18.841 17.018
           C 18.84 16.909 18.875 16.802 18.941 16.714
           C 19.007 16.627 19.1 16.564 19.205 16.534
           C 19.311 16.505 19.423 16.51 19.524 16.551
           C 19.626 16.591 19.712 16.664 19.768 16.758
           C 20.215 17.489 20.732 18.209 21.083 18.605
           C 21.111 18.027 21.01 16.896 20.444 15.057
           C 20.23 14.367 19.994 13.684 19.737 13.009
           C 19.72 12.982 19.706 12.954 19.694 12.925 L 18.669 10.342
           C 18.644 10.278 18.632 10.21 18.634 10.142
           C 18.635 10.109 18.647 9.613 18.647 9.357
           C 18.647 5.316 16.9 1 12 1
           C 7.099 1 5.353 5.316 5.353 9.356
           C 5.353 9.614 5.365 10.11 5.367 10.141
           C 5.369 10.209 5.357 10.277 5.332 10.341 L 4.306 12.924
           C 4.12 13.364 3.87 14.059 3.632 14.791 L 3.56 15.046
           C 2.99 16.895 2.889 18.027 2.917 18.606
           C 3.268 18.211 3.786 17.491 4.233 16.758
           C 4.29 16.665 4.375 16.593 4.477 16.553
           C 4.578 16.513 4.69 16.507 4.795 16.537
           C 4.9 16.566 4.993 16.629 5.058 16.716
           C 5.124 16.803 5.16 16.909 5.16 17.018
           C 5.16 18.126 5.709 19.89 7.258 21.209
           C 7.349 21.287 7.409 21.395 7.427 21.513
           C 7.445 21.631 7.421 21.752 7.358 21.854
           C 7.294 21.955 7.197 22.031 7.083 22.067
           C 6.395 22.281 5.811 22.545 5.481 22.791
           C 5.457 22.809 5.434 22.828 5.413 22.849
           Z M 18.766 22.785
           Z M 5.237 22.785
           Z M 2.994 19.048 L 3.004 19.048 L 2.994 19.048 Z"
        fill="#000000"
        stroke-width="1"
    />
</svg>
