<?xml version="1.0" encoding="utf-8"?>
	<svg version="1.1" xmlns="http://www.w3.org/2000/svg" xmlns:xlink="http://www.w3.org/1999/xlink" x="0px" y="0px" width="240.0" height="240.0" xml:space="preserve">
		<path d="M185.083,67.861C184.059,70.476 182.983,73.07 182.038,75.879C183.269,75.661 184.39,75.475 185.506,75.263C196.466,73.177 207.424,71.086 218.383,68.998C218.645,68.948 218.908,68.901 219.171,68.861C221.375,68.53 222.714,70.066 222.105,72.217C221.851,73.118 221.3,73.856 220.823,74.639C219.251,77.216 217.68,79.795 216.147,82.395C215.849,82.901 215.485,83.167 214.937,83.31C206.262,85.565 197.59,87.831 188.918,90.095C188.717,90.148 188.52,90.217 188.316,90.253C187.938,90.319 187.8,90.455 188.023,90.845C189.066,92.669 190.109,94.494 191.114,96.339C191.432,96.924 191.789,96.615 192.156,96.495C196.501,95.069 200.906,93.862 205.506,93.762C211.423,93.633 217.004,94.801 221.698,98.708C225.316,101.719 227.388,105.616 228.393,110.206C229.247,114.105 229.195,117.953 228.47,121.831C228.433,121.958 228.384,122.089 228.332,122.222L228.227,122.49C228.057,122.938 227.93,123.388 228.205,123.743C229.274,125.12 229.464,126.753 229.881,128.335C230.039,128.93 230.038,129.478 229.889,130.072C229.524,131.519 229.21,132.979 228.877,134.434C227.561,137.408 226.504,140.501 224.882,143.334C221.391,149.429 217.14,154.875 211.357,158.997C211.04,159.223 210.73,159.457 210.339,159.502C209.165,159.635 208.29,160.306 207.384,160.995C199.332,167.124 190.525,171.68 180.407,173.134L179.128,173.317C174.645,173.956 170.12,174.521 165.565,173.838C163.574,173.54 161.621,173.055 159.716,172.393C159.509,172.321 159.29,172.286 159.073,172.248L158.86,172.207L158.79,172.11C158.765,172.075 158.739,172.04 158.714,172.005C157.368,171.472 156.146,170.723 154.996,169.855C154.55,169.518 154.14,169.382 153.549,169.584C152.668,169.884 151.803,170.249 150.85,170.343C150.183,170.409 149.529,170.554 148.877,170.711L147.9,170.949C147.084,171.143 146.263,171.306 145.414,171.315C145.164,171.317 144.943,171.372 144.868,171.658C143.56,168.932 142.551,166.11 142.086,163.107C141.78,161.135 141.701,159.157 141.911,157.174C141.98,156.529 141.956,156.294 141.165,156.5C134.01,158.364 126.842,160.182 119.677,162.011C118.636,162.277 117.715,161.697 116.729,161.576C116.545,161.553 116.352,161.287 116.183,161.557C115.199,163.122 113.592,163.473 112.014,163.839L111.564,163.945C111.489,163.963 111.415,163.981 111.34,164C106.579,165.207 101.79,166.31 97.04,167.558C95.667,167.918 94.442,167.602 93.243,167.17C92.709,166.978 92.296,166.991 91.823,167.104C81.437,169.596 71.051,172.092 60.666,174.588C58.364,175.142 56.06,175.682 53.764,176.257C52.209,176.646 50.865,176.383 49.661,175.26C48.559,174.234 47.319,173.367 45.911,172.396C47.472,172.016 48.86,171.678 50.249,171.343C50.565,171.267 50.885,171.205 51.202,171.131C52.007,170.943 52.715,170.061 52.641,169.271C52.591,168.738 52.18,169.031 51.96,169.079C50.428,169.414 48.853,169.644 47.388,170.173C44.995,171.037 42.831,170.98 40.781,169.337C40.264,168.924 39.586,168.711 38.761,168.294C40.323,167.914 41.676,167.578 43.031,167.256C46.313,166.477 49.597,165.706 52.878,164.928C53.581,164.761 54.312,163.754 54.193,163.071C54.131,162.718 53.946,162.748 53.761,162.824L53.651,162.872C53.596,162.896 53.544,162.918 53.497,162.929C50.758,163.557 48.021,164.197 45.285,164.839C42.348,165.529 39.412,166.227 36.475,166.917L36.245,166.974C36.016,167.028 35.787,167.064 35.526,166.964C33.311,166.113 31.034,165.47 28.702,165.027C28.59,165.006 28.487,164.939 28.271,164.846C37.392,162.651 46.437,160.584 55.449,158.388L55.359,158.013L55.359,158.013C53.988,158.312 52.626,158.668 51.242,158.897C50.787,158.972 50.334,159.062 49.883,159.156L48.53,159.445C47.626,159.637 46.717,159.814 45.783,159.908C44.464,160.039 43.081,160.662 41.713,161.005C34.941,162.702 28.158,164.352 21.388,166.054C18.537,166.771 15.494,164.988 14.482,162.531C13.141,159.275 11.884,155.984 10.539,152.729C9.708,150.717 9.917,148.778 10.628,146.792C13.323,139.271 15.985,131.738 18.656,124.209C19.932,120.612 21.188,117.007 22.485,113.417C22.65,112.958 22.5,112.627 22.344,112.248C21.712,110.72 20.921,109.248 20.676,107.582C20.346,105.332 21.067,103.475 22.748,101.96C24.068,100.769 25.744,100.592 27.372,100.378C38.52,98.917 49.686,97.593 60.82,96.024C61.964,95.863 63.113,95.745 64.257,95.586C65.113,95.467 65.887,95.823 66.699,95.961C67.009,96.013 67.32,96.193 67.623,95.919C68.941,94.729 70.644,94.638 72.262,94.37C74.099,94.066 75.955,93.863 77.808,93.666C78.347,93.608 78.735,93.403 79.116,93.037C81.853,90.415 84.702,87.909 87.434,85.285C89.699,83.109 92.285,82.012 95.367,81.562C104.24,80.267 113.089,78.799 121.947,77.399C125.074,76.904 128.2,76.399 131.331,75.924C132.299,75.777 133.281,75.798 134.259,75.858C135.368,75.927 136.099,76.587 136.691,77.449C137.272,78.292 137.763,79.186 138.238,80.09L138.945,81.449C139.183,81.9 139.425,82.349 139.682,82.791C139.961,83.272 140.204,83.475 140.775,83.331C141.837,83.064 142.911,82.841 143.991,82.662C144.473,82.581 144.683,82.355 144.846,81.917C145.433,80.336 146.082,78.778 146.669,77.197C146.848,76.713 147.124,76.432 147.604,76.24C157.691,72.22 167.773,68.189 177.851,64.15C179.087,63.655 180.279,63.056 181.651,63.003C184.22,62.904 186.027,65.449 185.083,67.861ZM65.851,102.177C65.321,100.833 65.251,100.817 63.817,101.011C59.064,101.654 54.312,102.299 49.555,102.912C42.067,103.876 34.574,104.812 27.084,105.763C25.88,105.917 25.64,106.322 26.105,107.428C26.714,108.873 27.324,110.319 27.966,111.75C28.225,112.326 28.267,112.87 28.061,113.465C27.169,116.039 26.307,118.624 25.404,121.194C24.748,123.058 24.024,124.899 23.366,126.763C20.727,134.236 18.108,141.716 15.461,149.186C15.268,149.732 15.3,150.186 15.514,150.712C16.741,153.727 17.935,156.755 19.141,159.778C19.619,160.975 19.748,161.041 20.985,160.735C27.793,159.048 34.597,157.343 41.414,155.695C42.483,155.437 43.323,155.009 43.917,154.071C44.196,153.63 44.582,153.257 44.954,152.813C45.111,153.046 45.232,153.208 45.336,153.381C46.106,154.653 46.106,154.658 47.598,154.329C50.951,153.591 54.303,152.851 57.654,152.104C58.885,151.83 59.09,151.382 58.435,150.302C56.861,147.708 55.355,145.073 53.822,142.456C51.807,139.014 49.687,135.636 47.707,132.175C47.481,131.781 47.258,131.37 46.73,131.39C46.133,131.412 46.004,131.901 45.846,132.357C44.674,135.739 43.375,139.084 42.369,142.515C41.828,144.361 40.936,145.281 39.013,145.562C36.922,145.868 34.88,146.519 32.643,147.061C33.215,145.23 33.726,143.566 34.319,141.956C35.105,139.825 35.858,137.678 36.683,135.559C38.25,131.534 39.414,127.367 40.992,123.342C42.051,120.644 42.965,117.889 43.923,115.152C44.242,114.242 44.823,113.771 45.796,113.655C47.795,113.416 49.788,113.126 51.777,112.815C52.491,112.703 52.654,112.804 52.389,113.551C50.831,117.939 49.335,122.35 47.774,126.737C47.496,127.52 47.599,128.115 48.024,128.808C50.796,133.322 53.528,137.861 56.269,142.394C56.502,142.78 56.712,143.227 57.242,143.172C57.754,143.119 57.929,142.677 58.079,142.241C58.549,140.869 59.025,139.5 59.504,138.13C62.599,129.276 65.692,120.421 68.797,111.57C69.01,110.963 69.101,110.413 68.843,109.776C67.82,107.254 66.85,104.71 65.851,102.177ZM185.145,92.71C184.699,91.937 184.207,91.7 183.339,91.93C180.738,92.62 178.123,93.259 175.509,93.896C174.929,94.037 174.62,94.361 174.398,94.909C172.208,100.325 169.993,105.732 167.785,111.141C166.98,113.111 166.159,115.076 165.377,117.055C165.125,117.692 164.757,117.991 164.045,118.112C158.624,119.036 153.214,120.022 147.797,120.973C141.245,122.123 134.69,123.248 128.142,124.415C127.52,124.526 127.184,124.366 126.822,123.879C123.019,118.76 119.195,113.656 115.372,108.552L115.372,108.552L115.24,108.373C115.017,108.075 114.767,107.796 114.323,107.851C113.746,107.921 113.625,108.405 113.458,108.857L113.458,108.857L109.975,118.277L109.975,118.277L108.241,122.989C108.093,123.392 108.066,123.833 108.322,124.257C111.116,128.893 113.912,133.528 116.674,138.182C117.091,138.885 117.538,139.118 118.335,138.882C119.61,138.505 120.91,138.214 122.2,137.887C132.657,135.235 143.113,132.582 153.57,129.933C155.847,129.356 158.128,128.796 160.647,128.169C159.863,130.062 159.182,131.752 158.459,133.423C158.234,133.942 158.189,134.412 158.338,134.961C159.203,138.129 160.042,141.304 160.882,144.478C161.359,146.279 161.82,148.084 162.294,149.885C162.411,150.328 162.579,150.757 163.122,150.801C163.62,150.84 163.855,150.494 164.03,150.093C164.077,149.984 164.132,149.879 164.182,149.772C168.019,141.572 171.864,133.375 175.675,125.163C175.98,124.504 176.366,124.179 177.063,124.006C182.95,122.553 188.827,121.065 194.706,119.581C195.128,119.475 195.633,119.453 195.855,119.005C196.801,117.097 197.75,115.19 198.635,113.254C198.94,112.587 198.528,112.084 197.78,112.129C197.194,112.164 196.614,112.301 196.032,112.404L196.032,112.404L181.184,115.031C180.988,115.066 180.76,115.199 180.601,115.011C180.436,114.818 180.618,114.622 180.7,114.445C181.194,113.369 181.71,112.303 182.19,111.221C182.388,110.776 182.661,110.551 183.162,110.455C186.3,109.859 189.432,109.228 192.563,108.596C193.801,108.347 193.994,107.906 193.356,106.81C190.617,102.111 187.859,97.423 185.145,92.71ZM105.694,95.571C105.056,95.58 104.435,95.651 103.804,95.712C100.608,96.021 97.462,96.692 94.261,96.974C92.643,97.116 91.026,97.462 89.42,97.642C87.078,97.905 84.734,98.179 82.393,98.456C78.893,98.87 75.399,99.321 71.904,99.775C70.67,99.935 70.481,100.297 70.955,101.43C71.446,102.604 71.918,103.787 72.428,104.952C72.854,105.927 73.307,106.848 72.658,107.947C72.482,108.246 72.359,108.683 72.23,109.061C70.646,113.724 69.03,118.376 67.419,123.03C65.522,128.506 63.624,133.982 61.722,139.457C61.584,139.855 61.481,140.217 61.719,140.636C63.234,143.304 64.73,145.984 66.231,148.661C66.899,149.852 67.143,149.98 68.518,149.643C73.778,148.35 79.024,146.995 84.299,145.769C85.737,145.435 86.91,144.913 87.656,143.613C88,143.013 88.327,143.018 88.585,143.658C88.914,144.473 89.458,144.633 90.287,144.438C93.313,143.73 96.351,143.079 99.383,142.398C100.747,142.092 100.905,141.732 100.222,140.509C97.15,135.005 93.954,129.572 90.732,124.155C90.498,123.762 90.348,123.246 89.726,123.307C89.062,123.372 89.012,123.945 88.854,124.402C87.643,127.924 86.444,131.45 85.243,134.975C85.129,135.311 85.05,135.637 84.613,135.739C82.17,136.315 79.732,136.911 77.086,137.55C77.724,135.913 78.164,134.439 78.748,133.008C80.086,129.728 80.943,126.282 82.204,122.966C83.981,118.296 85.543,113.544 87.155,108.813C87.552,107.648 88.27,107.099 89.482,106.991C91.014,106.854 92.537,106.604 94.064,106.408C95.009,106.287 95.012,106.292 94.707,107.187C93.357,111.153 92.009,115.12 90.651,119.083C90.463,119.632 90.359,120.146 90.688,120.69C92.166,123.136 93.632,125.589 95.097,128.043C96.189,129.873 97.273,131.707 98.356,133.542C98.564,133.894 98.806,134.179 99.263,134.12C99.682,134.066 99.832,133.738 99.959,133.396C100.02,133.23 100.07,133.059 100.127,132.891C101.397,129.17 102.663,125.448 103.939,121.73C105.86,116.132 107.788,110.536 109.715,104.941C109.822,104.63 109.923,104.334 109.785,103.998C108.721,101.41 107.903,98.725 106.675,96.201C106.457,95.755 106.226,95.563 105.694,95.571ZM134.559,79.602C134.21,78.952 133.793,78.724 133.064,78.844C130.111,79.329 127.151,79.769 124.196,80.236C117.703,81.262 111.211,82.295 104.718,83.323C101.601,83.817 98.495,84.401 95.363,84.769C93.246,85.017 91.417,85.633 90.036,87.323C89.796,87.617 89.468,87.839 89.183,88.098C87.409,89.712 85.639,91.331 83.858,92.937C83.493,93.266 83.286,93.626 83.48,94.106C83.677,94.592 84.112,94.571 84.537,94.538C84.685,94.527 84.834,94.522 84.98,94.499C96.82,92.686 108.661,90.87 120.654,89.032C120.56,89.335 120.509,89.529 120.441,89.716C118.709,94.469 116.979,99.222 115.236,103.97C115.034,104.521 114.91,104.982 115.329,105.534C118.573,109.795 121.787,114.079 125.011,118.355C125.264,118.691 125.529,119.035 126.013,118.976C126.547,118.912 126.695,118.463 126.85,118.044C130.6,107.888 134.344,97.73 138.106,87.578C138.354,86.911 138.324,86.346 137.97,85.728C136.81,83.699 135.664,81.661 134.559,79.602ZM148.08,99.34C147.734,98.899 147.27,98.993 146.782,99.088C143.564,99.719 140.343,100.333 137.119,100.935C136.39,101.071 135.947,101.396 135.674,102.148C134.566,105.205 133.381,108.235 132.228,111.276C132.124,111.55 132.048,111.835 131.971,112.075C132.076,112.807 132.51,113.009 133.118,112.933C133.851,112.842 134.584,112.742 135.312,112.613C135.905,112.508 136.058,112.638 135.82,113.243C135.256,114.672 134.721,116.114 134.225,117.568C133.923,118.455 134.4,118.963 135.309,118.781C136.613,118.519 137.903,118.129 139.219,117.999C140.906,117.831 141.709,116.987 142.287,115.403C144.1,110.433 146.098,105.53 148.023,100.6C148.184,100.188 148.408,99.757 148.08,99.34ZM181.901,66.306C181.614,66.038 181.271,66.028 180.908,66.172C177.527,67.512 174.146,68.847 170.764,70.184C170.903,70.211 171.042,70.237 171.295,70.286C170.494,70.692 169.701,70.909 169.149,71.519C168.937,71.329 169.053,71.098 168.983,70.912C167.874,71.314 166.77,71.733 165.652,72.111C165.07,72.307 164.754,72.668 164.531,73.245C161.773,80.359 158.994,87.465 156.21,94.568C153.582,101.272 150.938,107.968 148.313,114.672C147.909,115.703 148.342,116.212 149.442,116.024C153.843,115.272 158.239,114.498 162.643,113.764C163.286,113.656 163.629,113.343 163.86,112.767C164.419,111.372 165.019,109.992 165.592,108.602C167.902,102.996 170.216,97.391 172.502,91.775C172.715,91.253 172.998,90.984 173.537,90.846C178.867,89.484 184.192,88.099 189.519,86.725C197.421,84.685 205.323,82.644 213.229,80.62C213.88,80.453 214.301,80.121 214.638,79.539C215.718,77.67 216.846,75.827 217.964,73.98L217.964,73.98L218.086,73.782C218.328,73.387 218.535,72.989 218.205,72.519C217.902,72.088 217.498,72.163 217.107,72.257L216.914,72.303L216.914,72.303L216.819,72.323C208.107,74.005 199.397,75.697 190.687,77.388C186.507,78.199 182.325,79.003 178.148,79.831C177.564,79.947 177.347,79.9 177.638,79.264C177.846,78.809 177.989,78.323 178.164,77.851C179.446,74.385 180.727,70.918 182.016,67.454C182.17,67.041 182.262,66.644 181.901,66.306ZM157.537,75.599C157.083,75.16 156.607,75.398 156.137,75.595C154.174,76.417 152.216,77.255 150.24,78.046C149.667,78.276 149.327,78.631 149.118,79.2C148.445,81.031 147.732,82.848 147.06,84.679C146.89,85.142 146.657,85.379 146.139,85.473C144.743,85.726 143.367,86.084 141.975,86.356C141.347,86.478 140.992,86.808 140.787,87.398C140.341,88.682 139.867,89.957 139.395,91.233C138.667,93.203 137.924,95.167 137.203,97.139C136.876,98.033 137.189,98.592 138.046,98.596C138.183,98.562 138.383,98.509 138.584,98.463C142.04,97.677 145.493,96.874 148.956,96.12C149.729,95.951 150.177,95.603 150.468,94.844C151.068,93.279 151.683,91.72 152.304,90.163L154.17,85.494C155.296,82.663 156.422,79.833 157.538,76.998C157.719,76.541 158.007,76.053 157.537,75.599Z" fill="#ff040303" stroke="#00000000" stroke-width="1.0" stroke-miterlimit=""/>
	</svg>
