<svg xmlns="http://www.w3.org/2000/svg" xmlns:xlink="http://www.w3.org/1999/xlink" width="192" height="192" viewBox="0 0 192 192" fill="none"><defs><rect id="path_0" x="0" y="0" width="192" height="192" /><rect id="path_1" x="0" y="0" width="160" height="160" /></defs><g opacity="1" transform="translate(0 0)  rotate(0 96 96)"><mask id="bg-mask-0" fill="white"><use xlink:href="#path_0"/></mask><g mask="url(#bg-mask-0)" ><g opacity="1" transform="translate(16 16)  rotate(0 80 80)"><mask id="bg-mask-1" fill="white"><use xlink:href="#path_1"/></mask><g mask="url(#bg-mask-1)" ><path id="路径 3" fill-rule="evenodd" style="fill:#000000" transform="translate(47.4699875 51.71949566283073)  rotate(0 20.383927480468753 28.28058736029204)" opacity="1" d="M8.68,1.12C5.13,-1.6 0,0.94 0,5.41L0,51.15C0,55.62 5.13,58.16 8.68,55.44C18.67,47.82 28.66,40.2 38.64,32.58C41.48,30.41 41.48,26.15 38.64,23.99C28.66,16.36 18.67,8.74 8.68,1.12Z " /><path id="拼合图形" fill-rule="evenodd" style="fill:#000000" transform="translate(-0.0001410937500025966 4.276492205360263)  rotate(0 79.78995640625003 75.72411843133148)" opacity="1" d="M30.66 138.87C29.99 137.13 29.36 135 28.78 132.35C33.74 131.12 39.86 128.63 47.39 125.74C56.49 122.26 67.65 118.22 79.44 112.41C91.23 106.61 103.65 99.05 111.58 93.13C119.5 87.21 122.94 82.94 122.94 75.72C122.94 68.51 119.5 64.23 111.58 58.31C103.65 52.4 91.23 44.84 79.44 39.03C67.65 33.23 56.49 29.18 47.39 25.7C39.86 22.82 33.74 20.32 28.78 19.1C29.36 16.45 29.99 14.32 30.66 12.58C32.77 7.08 35.25 5.35 38.22 3.41C41.18 1.47 44.62 -0.67 50.55 0.2C56.48 1.07 64.9 4.94 75.21 9.1C85.53 13.25 97.74 17.67 112 26.44C126.26 35.2 142.57 48.3 150.9 57.35C159.24 66.4 159.58 71.4 159.58 75.72C159.58 80.05 159.24 85.05 150.9 94.1C142.57 103.15 126.26 116.25 112 125.01C97.74 133.77 85.53 138.2 75.21 142.35C64.9 146.5 56.48 150.38 50.55 151.25C44.62 152.12 41.18 149.97 38.22 148.04C35.25 146.1 32.77 144.37 30.66 138.87ZM28.78 19.1C27.53 24.81 26.54 32.96 25.95 45.02C25.09 62.69 25.09 88.76 25.95 106.43C26.54 118.49 27.53 126.64 28.78 132.35C27.75 132.6 26.78 132.8 25.85 132.93C20.43 133.73 16.61 132.4 12.94 130.57C9.27 128.74 5.74 126.42 3.59 119.29C1.45 112.16 0.67 100.23 0.29 90.07C-0.1 79.91 -0.1 71.53 0.29 61.38C0.67 51.22 1.45 39.29 3.59 32.16C5.74 25.03 9.27 22.7 12.94 20.88C16.61 19.05 20.43 17.72 25.85 18.51C26.78 18.65 27.75 18.85 28.78 19.1Z" /></g></g></g></g></svg>
