<?xml version="1.0" standalone="no"?><!DOCTYPE svg PUBLIC "-//W3C//DTD SVG 1.1//EN" "http://www.w3.org/Graphics/SVG/1.1/DTD/svg11.dtd"><svg
    class="icon" viewBox="0 0 1024 1024" version="1.1" xmlns="http://www.w3.org/2000/svg"
    xmlns:xlink="http://www.w3.org/1999/xlink" width="200" height="200"><defs><style type="text/css"></style></defs><path d="M923.466 146.254H100.532c-49.784 0-91.428 41.668-91.428 91.444V786.3c0 50.788 41.644 91.446 91.428 91.446h822.934c50.802 0 91.43-41.668 91.43-91.446V237.698c0-50.818-40.626-91.444-91.43-91.444zM100.532 191.96h822.934c5.08 0 11.174 0 16.25 2.02L543.492 590.222c-9.15 9.134-20.33 13.19-31.49 13.19-11.18 0-23.368-5.064-31.5-13.19L84.282 193.98c5.08-2.02 12.186-2.02 16.25-2.02zM54.818 786.3V230.582L338.278 512 54.818 793.416V786.3z m868.648 45.71H100.532c-4.064 0-11.17 0-16.25-2.02L369.77 544.502l77.212 77.212c18.286 18.27 40.626 27.436 64 27.436 23.358 0 45.73-9.166 64-25.416l77.214-78.222L937.68 830.998c-3.04 1.012-9.134 1.012-14.214 1.012z m45.708-45.71v7.116L685.736 512l283.438-281.416V786.3z"></path></svg>
