<?xml version="1.0" standalone="no"?><!DOCTYPE svg PUBLIC "-//W3C//DTD SVG 1.1//EN" "http://www.w3.org/Graphics/SVG/1.1/DTD/svg11.dtd"><svg
    class="icon" viewBox="0 0 1024 1024" version="1.1" xmlns="http://www.w3.org/2000/svg"
    xmlns:xlink="http://www.w3.org/1999/xlink" width="200" height="200"><defs><style type="text/css"></style></defs><path d="M694.50849484 90.125H329.48393447A159.54297364 159.54297364 0 0 0 170.39860376 249.21033072v365.02456036a159.54297364 159.54297364 0 0 0 159.08533072 159.08533072h134.19828341l193.77900824 159.45580372c15.25475775 5.07765536 16.34438342-9.08747671 16.34438342-9.08747755v-150.36832617h20.70288529a159.54297364 159.54297364 0 0 0 159.08533073-159.08533072V249.21033072a159.54297364 159.54297364 0 0 0-159.08533073-159.08533072z m50.73296622 328.28238638L595.35256946 468.26865174l93.20656997 128.27072048a10.89625589 10.89625589 0 0 1-2.41896862 15.25475775l-63.91743503 46.43984097a10.89625589 10.89625589 0 0 1-15.25475775-2.41896862l-94.64487534-130.40638604-94.75383856 130.38459356a10.89625589 10.89625589 0 0 1-15.25475776 2.41896863l-63.87384923-46.43984098a10.89625589 10.89625589 0 0 1-2.41896945-15.25475775l93.20656998-128.27072049L279.36115936 418.40738638a10.89625589 10.89625589 0 0 1-6.88643372-13.77286661l24.97421805-74.96623828a10.89625589 10.89625589 0 0 1 13.77286662-6.88643371l150.65162924 50.12277594V213.25268769a10.89625589 10.89625589 0 0 1 10.89625589-10.8962559H551.76754755a10.89625589 10.89625589 0 0 1 10.89625588 10.89625589v159.695521l150.73879917-50.12277512a10.89625589 10.89625589 0 0 1 13.77286661 6.8864329l24.95242556 74.9444458a10.89625589 10.89625589 0 0 1-6.88643371 13.75107412z"></path></svg>
