<?xml version="1.0" encoding="utf-8"?>
	<svg version="1.1" xmlns="http://www.w3.org/2000/svg" xmlns:xlink="http://www.w3.org/1999/xlink" x="0px" y="0px" width="240.0" height="240.0" xml:space="preserve">
		<path d="M177.718,39.539L174.513,20C174.513,20 172.403,39.773 149.113,60.953C138.406,70.723 119.492,81.43 119.492,81.43L163.962,158.413C163.962,158.413 168.183,171.153 162.556,183.111C155.991,197.1 142.782,205.698 117.382,206.401C94.795,207.026 79.242,193.662 76.428,175.373C73.615,157.241 85.416,143.251 99.015,137.937C111.755,133.013 132.935,135.123 132.935,135.123L83.54,51.809L84.244,43.369C84.244,43.369 100.109,45.401 128.011,39.852C140.75,37.272 151.458,33.052 159.429,29.144C147.237,23.83 133.716,20.86 119.57,20.86C64.627,20.86 20,65.408 20,120.43C20,175.373 64.549,220 119.57,220C174.513,220 219.14,175.451 219.14,120.43C218.984,87.057 202.728,57.671 177.718,39.539L177.718,39.539Z" fill="#000" stroke="#00000000" stroke-width="1.0" stroke-miterlimit=""/>
	</svg>
