<svg xmlns="http://www.w3.org/2000/svg" width="192" height="192" fill="none" stroke="#000" stroke-linecap="round" stroke-linejoin="round" stroke-width="8" viewBox="0 0 192 192"><path d="M72 146v-16a6 6 0 0 0-6-6H50a6 6 0 0 0-6 6v16a6 6 0 0 0 6 6h16a6 6 0 0 0 6-6"/><path stroke-width="6" d="M61 141v-6h-6v6zm39-12v-6h-6v6zm0 24v-6h-6v6zm24 0v-6h-6v6zm24 0v-6h-6v6zm-24-24v-6h-6v6zm24 0v-6h-6v6zm-36 12v-6h-6v6zm24 0v-6h-6v6z"/><path stroke-width="12" d="M164.367 72.274C168.086 79.796 170 87.858 170 96v68a6 6 0 0 1-6 6H28a6 6 0 0 1-6-6V96c0-8.142 1.914-16.204 5.633-23.726 3.719-7.523 9.17-14.357 16.041-20.115s15.03-10.324 24.007-13.44C76.66 35.604 86.282 34 96 34s19.34 1.604 28.319 4.72 17.135 7.682 24.007 13.44 12.322 12.591 16.041 20.114M22 106h148"/><path d="M60 41 46 20m100 0-14 21"/><circle cx="64" cy="72" r="4"/><circle cx="128" cy="72" r="4"/></svg>