<?xml version="1.0" encoding="UTF-8"?>
<svg width="192" height="192" version="1.1" viewBox="0 0 192 192" xmlns="http://www.w3.org/2000/svg"><g fill="none" stroke="#000" stroke-linecap="round" stroke-linejoin="round" stroke-width="12"><path d="m36 30h42c3.324 0 6 2.676 6 6v42c0 3.324-2.676 6-6 6h-42c-3.324 0-6-2.676-6-6v-42c0-3.324 2.676-6 6-6z"/><path d="m114 30h42c3.324 0 6 2.676 6 6v42c0 3.324-2.676 6-6 6h-42c-3.324 0-6-2.676-6-6v-42c0-3.324 2.676-6 6-6z"/><path d="m36 108h42c3.324 0 6 2.676 6 6v42c0 3.324-2.676 6-6 6h-42c-3.324 0-6-2.676-6-6v-42c0-3.324 2.676-6 6-6z"/></g><g><path d="m102 108h12"/><g stroke="#000" stroke-linecap="round" stroke-linejoin="round" stroke-width="12"><path d="m108 108h24"/><path d="m150 108h12"/><path d="m108 126h12"/><path d="m138 126h24"/><path d="m108 144h24"/><path d="m150 144h12"/><path d="m108 162h6"/><path d="m132 162h30"/></g><rect x="48" y="48" width="18" height="18" rx="3"/><rect x="126" y="48" width="18" height="18" rx="3"/><rect x="48" y="126" width="18" height="18" rx="3"/></g></svg>
