<svg xmlns="http://www.w3.org/2000/svg" width="192" height="192" fill="none"><rect width="34" height="34" x="50" y="50" stroke="#000" stroke-linecap="round" stroke-linejoin="round" stroke-width="10" rx="6"/><rect width="34" height="34" x="108" y="50" stroke="#000" stroke-linecap="round" stroke-linejoin="round" stroke-width="10" rx="6"/><rect width="34" height="34" x="50" y="108" stroke="#000" stroke-linecap="round" stroke-linejoin="round" stroke-width="10" rx="6"/><path stroke="#000" stroke-linecap="round" stroke-linejoin="round" stroke-width="10" d="M108 142v-1m18-33h16m-34 0h2m-2 17h17"/><path stroke="#000" stroke-linecap="round" stroke-linejoin="round" stroke-width="12" d="M167 114v37c0 8.837-7.163 16-16 16h-37m-89-53v37c0 8.837 7.163 16 16 16h37M25 78V41c0-8.837 7.163-16 16-16h37m89 53V41c0-8.837-7.163-16-16-16h-37"/></svg>