<svg xmlns="http://www.w3.org/2000/svg" width="192" height="192" fill="none" viewBox="0 0 192 192"><path stroke="#000" stroke-linecap="round" stroke-linejoin="round" stroke-width="10" d="M68 101s9.333-11 28-11 28 11 28 11m-44 12s6.857-6 16-6 16 6 16 6m-21 13.333S92.25 124 96 124s5 2.333 5 2.333L96 131z"/><path stroke="#000" stroke-linecap="round" stroke-linejoin="round" stroke-width="12" d="M43 34c0-6.627 5.373-12 12-12h55.515a6 6 0 0 1 4.242 1.757l32.486 32.486A6 6 0 0 1 149 60.485V158c0 6.627-5.373 12-12 12H55c-6.627 0-12-5.373-12-12z"/><path stroke="#000" stroke-linecap="round" stroke-linejoin="round" stroke-width="12" d="M113 24v28a6 6 0 0 0 6 6h28"/></svg>