<svg width="192" height="192" fill="none" xmlns="http://www.w3.org/2000/svg"><path d="M59.47 150.3C39.97 138.036 27 116.245 27 91.407 27 53.075 57.892 22 96 22c38.108 0 69 31.075 69 69.407 0 34.015-24.325 62.315-56.432 68.258a9.89 9.89 0 0 1-10.887-5.795c-3.692-8.501-5.74-17.89-5.74-27.76 0-9.869 2.048-19.258 5.74-27.76a9.889 9.889 0 0 1 10.887-5.794C140.675 98.498 165 126.798 165 160.813c0 3.114-.204 6.18-.599 9.186" stroke="#000" stroke-width="12" stroke-linecap="round" stroke-linejoin="round"/></svg>