<svg width="192" height="192" viewBox="0 0 192 192" fill="none" xmlns="http://www.w3.org/2000/svg"><path d="M167.476 115.157a73.994 73.994 0 0 0-57.039-91.735 74.002 74.002 0 0 0-63.23 128.216 74 74 0 0 0 67.944 15.841" stroke="#000" stroke-width="12" stroke-linecap="round" stroke-linejoin="round"/><path d="M121.701 111.243a5.998 5.998 0 0 1 8.485 0l25.809 25.808a5.988 5.988 0 0 1 1.312 1.978l11.617 28.596c.331.817-.482 1.63-1.299 1.299l-28.596-11.617a5.988 5.988 0 0 1-1.978-1.312l-25.808-25.809m0 0a5.999 5.999 0 0 1 0-8.485l10.458-10.458" stroke="#000" stroke-width="12" stroke-linecap="round" stroke-linejoin="round"/></svg>