<svg xmlns="http://www.w3.org/2000/svg" width="192" height="192" fill="none"><path stroke="#000" stroke-linejoin="round" stroke-width="10" d="M24 30a6 6 0 0 1 6-6h55v61H24zm0 55h61v55a6 6 0 0 1-6 6H30a6 6 0 0 1-6-6zm83 28a6 6 0 0 1 6-6h49a6 6 0 0 1 6 6v49a6 6 0 0 1-6 6h-49a6 6 0 0 1-6-6zM85 24h55a6 6 0 0 1 6 6v49a6 6 0 0 1-6 6H85z"/><path stroke="#000" stroke-linejoin="round" stroke-width="8" d="M54.5 85c0-16.845-13.655-30.5-30.5-30.5 16.845 0 30.5-13.655 30.5-30.5 0 16.845 13.655 30.5 30.5 30.5-16.845 0-30.5 13.655-30.5 30.5Zm61 0c0-16.845-13.655-30.5-30.5-30.5 16.845 0 30.5-13.655 30.5-30.5 0 16.845 13.655 30.5 30.5 30.5-16.845 0-30.5 13.655-30.5 30.5Zm-61 61c0-16.845-13.655-30.5-30.5-30.5 16.845 0 30.5-13.655 30.5-30.5 0 16.845 13.655 30.5 30.5 30.5-16.845 0-30.5 13.655-30.5 30.5Zm83 22c0-16.845-13.655-30.5-30.5-30.5 16.845 0 30.5-13.655 30.5-30.5 0 16.845 13.655 30.5 30.5 30.5-16.845 0-30.5 13.655-30.5 30.5Z"/></svg>