<?xml version="1.0" encoding="utf-8"?>
<svg
	version="1.1"
	xmlns="http://www.w3.org/2000/svg"
	xmlns:xlink="http://www.w3.org/1999/xlink"
	x="0%" y="0%"
	width="100%" height="100%"
	viewBox="0 0 24.0 24.0"
	enable-background="new 0 0 24.0 24.0"
	xml:space="preserve">
	<path
		fill="#FFFFFF"
		stroke="#000000"
		fill-opacity="0.000"
		stroke-opacity="1.000"
		fill-rule="nonzero"
		stroke-width="0.90740407"
		stroke-linejoin="miter"
		stroke-linecap="square"
		d="M2.77,5.07L5.61,5.07A0.28 0.28 0 0 1 5.89,5.35L5.89,18.67A0.28 0.28 0 0 1 5.61,18.95L2.77,18.95A0.28 0.28 0 0 1 2.49,18.67L2.49,5.35A0.28 0.28 0 0 1 2.77,5.07z"/>
	<path
		fill="#FFFFFF"
		stroke="#000000"
		fill-opacity="0.000"
		stroke-opacity="1.000"
		fill-rule="nonzero"
		stroke-width="0.90740407"
		stroke-linejoin="miter"
		stroke-linecap="square"
		d="M8.17,3.73L16.09,3.73A0.36 0.36 0 0 1 16.46,4.09L16.46,19.94A0.36 0.36 0 0 1 16.09,20.30L8.17,20.30A0.36 0.36 0 0 1 7.81,19.94L7.81,4.09A0.36 0.36 0 0 1 8.17,3.73z"/>
	<path
		fill="#FFFFFF"
		stroke="#000000"
		fill-opacity="0.000"
		stroke-opacity="1.000"
		fill-rule="nonzero"
		stroke-width="0.90740407"
		stroke-linejoin="miter"
		stroke-linecap="square"
		d="M18.42,5.07L21.26,5.07A0.28 0.28 0 0 1 21.54,5.35L21.54,18.67A0.28 0.28 0 0 1 21.26,18.95L18.42,18.95A0.28 0.28 0 0 1 18.14,18.67L18.14,5.35A0.28 0.28 0 0 1 18.42,5.07z"/>
</svg>