<?xml version="1.0" encoding="utf-8"?>
	<svg version="1.1" xmlns="http://www.w3.org/2000/svg" xmlns:xlink="http://www.w3.org/1999/xlink" x="0px" y="0px" width="240.0" height="240.0" xml:space="preserve">
		<path d="M136.036,84.286L103.893,84.286C99.942,84.286 96.75,87.478 96.75,91.429L96.75,212.857C96.75,216.808 99.942,220 103.893,220L136.036,220C139.987,220 143.179,216.808 143.179,212.857L143.179,91.429C143.179,87.478 139.987,84.286 136.036,84.286ZM204.786,20L172.643,20C168.692,20 165.5,23.192 165.5,27.143L165.5,212.857C165.5,216.808 168.692,220 172.643,220L204.786,220C208.737,220 211.929,216.808 211.929,212.857L211.929,27.143C211.929,23.192 208.737,20 204.786,20ZM67.286,148.571L35.143,148.571C31.192,148.571 28,151.763 28,155.714L28,212.857C28,216.808 31.192,220 35.143,220L67.286,220C71.237,220 74.429,216.808 74.429,212.857L74.429,155.714C74.429,151.763 71.237,148.571 67.286,148.571Z" fill="#000" stroke="#00000000" stroke-width="1.0" stroke-miterlimit=""/>
	</svg>
