<svg version="1.1" id="Layer_1" xmlns="http://www.w3.org/2000/svg" x="0" y="0" width="192" height="192" viewBox="0 0 192 192" style="enable-background:new 0 0 192 192" xml:space="preserve"><style>.st0{fill:none;stroke:#000;stroke-width:12;stroke-linejoin:round;stroke-miterlimit:10}</style><path class="st0" d="M104.1 65.7v88.5c6.1-6.3 18.3-17.2 37-23.4 11.5-3.8 21.6-4.6 28.9-4.5V37.8c-8 .5-18.7 2.1-30.7 6.5-16.5 6.2-28.2 15.1-35.2 21.4zM87.9 65.7v88.5c-6.1-6.3-18.3-17.2-37-23.4-11.5-3.8-21.6-4.6-28.9-4.5V37.8c8 .5 18.7 2.1 30.7 6.5 16.5 6.2 28.2 15.1 35.2 21.4z"/></svg>