<?xml version="1.0" encoding="UTF-8" standalone="no"?>
<svg
   width="100%"
   height="100%"
   viewBox="0 0 192 192"
   version="1.1"
   xml:space="preserve"
   style="fill-rule:evenodd;clip-rule:evenodd;stroke-linejoin:round;stroke-miterlimit:2;"
   id="svg3383"
   sodipodi:docname="quizduell.svg"
   inkscape:version="1.2.1 (9c6d41e410, 2022-07-14)"
   xmlns:inkscape="http://www.inkscape.org/namespaces/inkscape"
   xmlns:sodipodi="http://sodipodi.sourceforge.net/DTD/sodipodi-0.dtd"
   xmlns="http://www.w3.org/2000/svg"
   xmlns:svg="http://www.w3.org/2000/svg"><defs
   id="defs3387" /><sodipodi:namedview
   id="namedview3385"
   pagecolor="#ffffff"
   bordercolor="#000000"
   borderopacity="0.25"
   inkscape:showpageshadow="2"
   inkscape:pageopacity="0.0"
   inkscape:pagecheckerboard="0"
   inkscape:deskcolor="#d1d1d1"
   showgrid="false"
   inkscape:zoom="5.3489583"
   inkscape:cx="96.093476"
   inkscape:cy="95.906524"
   inkscape:window-width="1274"
   inkscape:window-height="1303"
   inkscape:window-x="1282"
   inkscape:window-y="36"
   inkscape:window-maximized="0"
   inkscape:current-layer="svg3383" />
    <path
   d="M2034.47,585.464L2035.21,586.209C2045.35,596.016 2057.47,592.785 2063.42,587.395C2063.44,587.377 2063.46,587.359 2063.48,587.34L2068.49,582.677C2069.77,581.483 2070.46,579.789 2070.39,578.039C2070.32,576.289 2069.49,574.658 2068.11,573.574C2068.11,573.574 2062.58,569.217 2058.76,565.625C2058.62,565.494 2058.48,565.354 2058.33,565.211C2066.18,552.683 2069.81,536.254 2069.81,520.015C2069.81,499.659 2063.62,479.528 2051.1,466.55C2039.28,454.3 2021.54,448.476 2004.01,448.476C1986.95,448.476 1969.71,454.014 1958,465.683C1944.92,478.711 1938.2,499.139 1938.2,520.015C1938.2,539.307 1943.38,558.819 1954.78,571.637C1966.78,585.131 1985.59,591.886 2004.12,591.553C2013.84,591.378 2026.31,589.169 2034.47,585.464ZM2055.28,578.567C2052.78,580.77 2047.81,581.649 2043.62,577.647C2043.59,577.625 2039.81,573.797 2039.81,573.797C2037.73,571.696 2034.43,571.421 2032.03,573.149C2026.2,577.354 2013.37,579.384 2003.9,579.555C1988.86,579.825 1973.48,574.616 1963.75,563.664C1954.14,552.859 1950.2,536.277 1950.2,520.015C1950.2,502.458 1955.47,485.141 1966.47,474.185C1976,464.691 1990.13,460.476 2004.01,460.476C2018.28,460.476 2032.84,464.908 2042.46,474.881C2053,485.803 2057.81,502.883 2057.81,520.015C2057.81,535.246 2054.36,550.757 2046.19,561.725C2045.11,563.182 2044.15,565.636 2045.77,568.782C2046.4,570.014 2048.18,572.146 2050.54,574.366C2052,575.744 2053.7,577.227 2055.28,578.567ZM2020.92,566.411C2022.75,565.637 2024.08,564.005 2024.47,562.054C2024.85,560.103 2024.25,558.087 2022.85,556.671L2013.86,547.561L2015.23,546.236C2015.42,546.049 2015.77,546.028 2016.12,545.924C2017.05,545.649 2018.14,545.513 2019.25,545.516C2021.08,545.521 2023.09,545.752 2024.29,546.914C2024.68,547.314 2028.04,550.745 2028.74,551.454C2029.05,551.765 2029.25,551.934 2029.29,551.964C2031.71,553.972 2033.87,553.313 2034.26,553.237C2036.26,552.85 2037.58,551.739 2038.42,550.163C2042.67,542.165 2044.93,530.799 2044.93,520.015C2044.93,506.021 2041.1,492.198 2033.57,483.276C2026.15,474.493 2015.02,470.321 2004.01,470.321C1993.29,470.321 1982.47,474.293 1975.11,482.665C1967.23,491.626 1963.09,505.656 1963.09,520.015C1963.09,533.266 1966.3,546.654 1973.15,555.459C1980.71,565.173 1992.62,570.247 2004.29,569.702C2014.42,569.228 2020.92,566.411 2020.92,566.411ZM2030.8,536.815C2026.89,534.171 2021.42,533.138 2016.59,533.656C2012.38,534.107 2008.78,535.745 2006.8,537.704C2006.8,537.704 2001.17,543.145 2001.17,543.145C2000.01,544.258 1999.36,545.786 1999.34,547.388C1999.32,548.99 1999.94,550.533 2001.06,551.673L2006.79,557.476L2006.79,557.476C2005.83,557.581 2004.81,557.665 2003.73,557.715C1995.82,558.084 1987.74,554.669 1982.62,548.087C1977.21,541.142 1975.09,530.468 1975.09,520.015C1975.09,508.75 1977.94,497.618 1984.12,490.588C1989.17,484.851 1996.66,482.321 2004.01,482.321C2011.57,482.321 2019.3,484.987 2024.4,491.02C2030.32,498.032 2032.93,509.016 2032.93,520.015C2032.93,525.699 2032.23,531.598 2030.8,536.815Z"
   id="path3377"
   style="fill-rule:evenodd;clip-rule:evenodd;stroke-linejoin:round;stroke-miterlimit:2"
   transform="translate(-1908,-424)"
   inkscape:label="quizduell" />
</svg>
