<?xml version="1.0" encoding="UTF-8" standalone="no"?>
<svg
   width="100%"
   height="100%"
   viewBox="0 0 192 192"
   version="1.1"
   xml:space="preserve"
   style="fill-rule:evenodd;clip-rule:evenodd;stroke-linejoin:round;stroke-miterlimit:2;"
   id="svg10"
   sodipodi:docname="quizduel.svg"
   inkscape:version="1.2.1 (9c6d41e410, 2022-07-14)"
   xmlns:inkscape="http://www.inkscape.org/namespaces/inkscape"
   xmlns:sodipodi="http://sodipodi.sourceforge.net/DTD/sodipodi-0.dtd"
   xmlns="http://www.w3.org/2000/svg"
   xmlns:svg="http://www.w3.org/2000/svg"><defs
   id="defs14" /><sodipodi:namedview
   id="namedview12"
   pagecolor="#ffffff"
   bordercolor="#000000"
   borderopacity="0.25"
   inkscape:showpageshadow="2"
   inkscape:pageopacity="0.0"
   inkscape:pagecheckerboard="0"
   inkscape:deskcolor="#d1d1d1"
   showgrid="false"
   inkscape:zoom="5.3489583"
   inkscape:cx="96"
   inkscape:cy="95.906524"
   inkscape:window-width="1274"
   inkscape:window-height="1303"
   inkscape:window-x="1282"
   inkscape:window-y="36"
   inkscape:window-maximized="0"
   inkscape:current-layer="svg10" />
    <path
   d="M342.287,803.995L343.365,805.085C343.396,805.116 343.427,805.147 343.459,805.178C354.469,815.828 367.633,812.345 374.093,806.491C374.113,806.473 374.133,806.455 374.153,806.437L379.769,801.208C381.051,800.014 381.747,798.32 381.675,796.57C381.604,794.82 380.771,793.189 379.395,792.105C379.395,792.105 373.165,787.197 368.864,783.151C368.57,782.875 368.26,782.568 367.958,782.258C376.901,768.265 381.028,749.763 381.028,731.483C381.028,708.855 374.164,686.469 360.249,672.042C347.134,658.446 327.435,652 307.974,652C289.036,652 269.899,658.129 256.896,671.081C242.358,685.563 234.92,708.277 234.92,731.483C234.92,752.93 240.652,774.629 253.32,788.879C266.634,803.854 287.52,811.335 308.082,810.965C319.085,810.767 333.251,808.246 342.287,803.995ZM347.592,792.295C345.514,790.195 342.216,789.92 339.819,791.647C333.189,796.426 318.622,798.773 307.866,798.967C290.794,799.274 273.342,793.339 262.289,780.906C251.41,768.67 246.92,749.9 246.92,731.483C246.92,711.597 252.907,691.993 265.365,679.582C276.184,668.806 292.217,664 307.974,664C324.175,664 340.693,669.054 351.612,680.373C363.544,692.744 369.028,712.079 369.028,731.483C369.028,748.721 365.094,766.269 355.857,778.683C355.053,779.763 354.554,781.083 354.602,782.701C354.636,783.835 355.213,786.005 357.158,788.308C359.149,790.665 363.209,794.253 366.575,797.096C366.575,797.096 366.011,797.621 366.011,797.621C363.007,800.32 356.958,801.488 351.859,796.608C351.844,796.594 347.592,792.295 347.592,792.295ZM326.648,782.833C328.48,782.059 329.809,780.427 330.196,778.476C330.584,776.525 329.979,774.509 328.582,773.093L317.989,762.355C317.989,762.355 319.971,760.439 319.971,760.439C319.996,760.416 320.02,760.392 320.044,760.368C320.698,759.714 322.038,759.582 323.439,759.432C326.138,759.142 329.394,759.343 331.232,761.135C331.628,761.539 335.424,765.421 336.219,766.219C336.538,766.54 336.746,766.714 336.783,766.745C339.205,768.753 341.364,768.094 341.757,768.018C343.752,767.631 345.075,766.52 345.913,764.944C350.632,756.067 353.123,743.451 353.123,731.483C353.123,715.974 348.909,700.648 340.556,690.76C332.379,681.08 320.108,676.493 307.974,676.493C296.159,676.493 284.231,680.859 276.119,690.086C267.389,700.016 262.825,715.572 262.825,731.483C262.825,746.17 266.351,761.018 273.949,770.776C282.281,781.478 295.397,787.067 308.254,786.466C319.464,785.942 326.648,782.833 326.648,782.833ZM338.422,751.516C334.151,748.197 327.757,746.9 322.159,747.5C317.627,747.986 313.739,749.73 311.601,751.841C311.606,751.836 305.291,757.94 305.291,757.94C304.139,759.053 303.481,760.581 303.462,762.183C303.443,763.784 304.065,765.327 305.19,766.468L312.645,774.025C311.141,774.232 309.483,774.396 307.694,774.479C298.599,774.904 289.311,770.974 283.417,763.404C277.267,755.505 274.825,743.372 274.825,731.483C274.825,718.666 278.099,706.008 285.131,698.009C290.927,691.417 299.532,688.493 307.974,688.493C316.661,688.493 325.535,691.573 331.389,698.504C338.128,706.482 341.123,718.97 341.123,731.483C341.123,738.289 340.238,745.365 338.422,751.516Z"
   id="path4"
   style="fill-rule:evenodd;clip-rule:evenodd;stroke-linejoin:round;stroke-miterlimit:2"
   transform="translate(-212,-636)"
   inkscape:label="quizduel_form" />
</svg>
