<svg xmlns="http://www.w3.org/2000/svg" xml:space="preserve" width="192" height="192" preserveAspectRatio="xMidYMid" version="1.0" viewBox="0 0 144 144"><circle cx="72" cy="72" r="55.5" fill="none" stroke="#000" stroke-linecap="round" stroke-linejoin="round" stroke-width="9"/><path stroke-width=".878" d="M53.963 48.087c-3.417 1.367-6.15 6.15-6.15 10.592 0 4.67 3.644 7.63 9.11 7.63 1.823 0 3.418.57 3.418 1.14 0 3.302-5.695 12.527-11.617 18.791-6.492 7.061-8.2 10.82-4.897 10.82 2.391 0 12.414-9.453 16.4-15.49 7.744-11.274 10.477-26.991 5.808-32.116-2.506-2.62-7.63-3.189-12.072-1.367zm31.433 1.936c-4.897 4.556-5.58 9.567-1.822 13.44 2.278 2.277 3.986 2.96 6.72 2.619 3.074-.228 3.53 0 3.302 1.936-.797 4.555-6.378 13.097-12.414 19.247-4.214 4.1-6.15 6.833-5.694 7.972 1.253 3.303 4.328 1.936 11.16-5.125 9.226-9.566 15.034-21.639 15.148-31.547.114-6.264-.228-7.517-2.62-9.453-3.872-3.189-9.68-2.847-13.78.911z"/></svg>