<svg xmlns="http://www.w3.org/2000/svg" width="192" height="192" fill="none"><path stroke="#000" stroke-linecap="round" stroke-width="12" d="M143.1 79c5.014 9.047 7.9 19.656 7.9 31 0 33.137-24.624 60-55 60s-55-26.863-55-60c0-14.19 4.515-27.228 12.063-37.5M143.1 79c-5.41-9.553-15.838-16-27.6-16C98.103 63 84 77.103 84 94.5S98.103 126 115.5 126 147 111.897 147 94.5c0-5.635-1.309-10.924-3.9-15.5Z"/><path stroke="#000" stroke-linejoin="round" stroke-width="10" d="M85 26c6.627 0 12 5.373 12 12 0 2.725-.91 5.237-2.441 7.252A12 12 0 0 0 92.106 45a11.98 11.98 0 0 0-9.56 4.747C77.096 48.614 73 43.787 73 38c0-6.627 5.373-12 12-12Zm43.5-5c7.456 0 13.5 6.044 13.5 13.5 0 4.817-2.523 9.043-6.319 11.433A13.49 13.49 0 0 0 124.5 40a13.44 13.44 0 0 0-7.182 2.066A13.44 13.44 0 0 1 115 34.5c0-7.456 6.044-13.5 13.5-13.5Z"/></svg>