<svg width="192" height="192" viewBox="0 0 192 192" fill="none" xmlns="http://www.w3.org/2000/svg">
<path d="M143.1 79C148.114 88.0474 151 98.656 151 110C151 143.137 126.376 170 96 170C65.6243 170 41 143.137 41 110C41 95.8108 45.5149 82.772 53.0631 72.5M143.1 79C137.69 69.4469 127.262 63 115.5 63C98.103 63 84 77.103 84 94.5C84 111.897 98.103 126 115.5 126C132.897 126 147 111.897 147 94.5C147 88.8654 145.691 83.5763 143.1 79Z" stroke="black" stroke-width="12" stroke-linecap="round"/>
<path d="M98.5811 42.5742L99.0207 47.5548C101.098 47.3715 102.843 45.918 103.4 43.9082L98.5811 42.5742ZM88.5234 50.9512L88.9628 55.9318C91.0402 55.7486 92.7856 54.2952 93.3421 52.2854L88.5234 50.9512ZM87.5 28V33C91.0899 33 94 35.9101 94 39.5H99H104C104 30.3873 96.6127 23 87.5 23V28ZM99 39.5H94C94 40.0994 93.917 40.6814 93.7623 41.2403L98.5811 42.5742L103.4 43.9082C103.787 42.5094 104 41.0307 104 39.5H99ZM98.5811 42.5742L98.1414 37.5936C91.1984 38.2065 85.5088 43.1015 83.7048 49.6169L88.5234 50.9512L93.3421 52.2854C94.0526 49.7197 96.3038 47.7947 99.0207 47.5548L98.5811 42.5742ZM88.5234 50.9512L88.0841 45.9705C87.8523 45.991 87.6626 46 87.5 46V51V56C88.0274 56 88.5199 55.9709 88.9628 55.9318L88.5234 50.9512ZM87.5 51V46C83.9101 46 81 43.0899 81 39.5H76H71C71 48.6127 78.3873 56 87.5 56V51ZM76 39.5H81C81 35.9101 83.9101 33 87.5 33V28V23C78.3873 23 71 30.3873 71 39.5H76Z" fill="black"/>
<path d="M136.948 44.9883L132.74 47.6888C134.226 50.0034 137.301 50.6838 139.624 49.2118L136.948 44.9883ZM119.051 41.0107L114.843 43.7109C116.328 46.0257 119.404 46.7064 121.727 45.2342L119.051 41.0107ZM130 21V26C134.418 26 138 29.5817 138 34H143H148C148 24.0589 139.941 16 130 16V21ZM143 34H138C138 36.8396 136.524 39.338 134.272 40.7648L136.948 44.9883L139.624 49.2118C144.647 46.0294 148 40.4088 148 34H143ZM136.948 44.9883L141.156 42.2877C137.964 37.3141 132.371 34 126 34V39V44C128.823 44 131.309 45.4592 132.74 47.6888L136.948 44.9883ZM126 39V34C122.47 34 119.162 35.021 116.374 36.7873L119.051 41.0107L121.727 45.2342C122.96 44.4531 124.419 44 126 44V39ZM119.051 41.0107L123.259 38.3106C122.462 37.0691 122 35.5961 122 34H117H112C112 37.5677 113.043 40.9067 114.843 43.7109L119.051 41.0107ZM117 34H122C122 29.5817 125.582 26 130 26V21V16C120.059 16 112 24.0589 112 34H117Z" fill="black"/>
</svg>
