<svg xmlns="http://www.w3.org/2000/svg" width="192" height="192" fill="none"><path stroke="#000" stroke-linecap="round" stroke-linejoin="round" stroke-width="12" d="M96 25h65a6 6 0 0 1 6 6v65"/><path stroke="#000" stroke-linecap="round" stroke-linejoin="round" stroke-width="12" d="M106 52h28a6 6 0 0 1 6 6v28m-44 81H31a6 6 0 0 1-6-6V96"/><path stroke="#000" stroke-linecap="round" stroke-linejoin="round" stroke-width="12" d="M86 140H58a6 6 0 0 1-6-6v-28m44-81a71 71 0 0 0-71 71m71 71a70.997 70.997 0 0 0 71-71"/></svg>