<svg xmlns="http://www.w3.org/2000/svg" width="192" height="192" viewBox="0 0 192 192"><defs><style>.cls-1,.cls-2,.cls-3,.cls-4{fill:none;stroke:#000;}.cls-1{stroke-miterlimit:10;}.cls-1,.cls-4{stroke-width:12px;}.cls-2,.cls-3,.cls-4{stroke-linecap:round;stroke-linejoin:round;}.cls-2{stroke-width:6px;}.cls-3{stroke-width:8px;}</style></defs><g><path class="cls-1" d="M147.1,102.21a33.54,33.54,0,0,0-25.54,1.58,32.88,32.88,0,0,0,4.27,61,33.49,33.49,0,0,0,42.4-20.52,33,33,0,0,0-20.56-41.84Z"/><line class="cls-2" x1="116.01" y1="130.06" x2="135.79" y2="130.06"/><line class="cls-2" x1="135.79" y1="137.59" x2="116.01" y2="137.59"/><path class="cls-3" d="M144,118.74a15.26,15.26,0,0,0-6.74-1.5,17.23,17.23,0,0,0-4,.5,16.36,16.36,0,0,0,0,31.72,17.23,17.23,0,0,0,4,.5,15.26,15.26,0,0,0,6.74-1.5"/><path class="cls-4" d="M165.15,67.08a43,43,0,0,0-29.51-39.33,43.92,43.92,0,0,0-13.48-2.32"/><path class="cls-4" d="M149.8,67.68a27.5,27.5,0,0,0-19-25.77,26.72,26.72,0,0,0-9-1.5"/><line class="cls-4" x1="22" y1="133.9" x2="42.74" y2="128.61"/><path class="cls-4" d="M22,107.56c5.8.4,15.06-.52,20.53-2.5"/><path class="cls-4" d="M42.53,105.06a16.46,16.46,0,0,0,3.67-2.4"/><line class="cls-4" x1="46.2" y1="102.66" x2="56.12" y2="91.87"/><path class="cls-4" d="M56.12,91.87a31.14,31.14,0,0,1,6.33-.44"/><path class="cls-4" d="M62.45,91.43a16,16,0,0,0,12.36-7.12"/><path class="cls-4" d="M74.81,84.31a6.46,6.46,0,0,0,0-6.07A9.59,9.59,0,0,0,69,74.12"/><path class="cls-4" d="M69,74.12H62.83"/><line class="cls-4" x1="56.83" y1="74.12" x2="62.83" y2="74.12"/><path class="cls-4" d="M56.83,74.12c-6,0-12.21.38-13.71.53"/><path class="cls-4" d="M43.12,74.65A119.07,119.07,0,0,0,22,84.31"/><rect x="62.45" y="136.23" width="9.25" height="9.25" rx="4.62"/><line class="cls-4" x1="86.57" y1="161.6" x2="91.77" y2="147.32"/><line class="cls-4" x1="36.84" y1="144.8" x2="86.57" y2="161.6"/><line class="cls-4" x1="46.08" y1="119.45" x2="89.67" y2="134.18"/><line class="cls-4" x1="56.12" y1="91.87" x2="36.84" y2="144.8"/><path class="cls-4" d="M62.83,73.45l7-20.23"/><path class="cls-4" d="M69.79,53.22a6,6,0,0,1,7.49-3.6l38.81,13.11a5.85,5.85,0,0,1,3.79,7.34"/><line class="cls-4" x1="119.88" y1="70.07" x2="110.92" y2="94.71"/></g></svg>