<?xml version="1.0" encoding="UTF-8" standalone="no"?>
<svg
   viewBox="0 0 192 192"
   version="1.1"
   width="192"
   height="192"
   xml:space="preserve"
   id="svg1"
   xmlns="http://www.w3.org/2000/svg"
   xmlns:svg="http://www.w3.org/2000/svg"><defs
     stroke="#000000"
     stroke-linecap="round"
     stroke-linejoin="round"
     stroke-width="10"
     d="m 128.84776,69.113949 a 73.096892,71.33639 0 0 1 0,100.886111"
     id="path3"
     style="fill:none;stroke-width:11.9999;stroke-dasharray:none" /><path
     stroke="#000000"
     stroke-linecap="round"
     stroke-linejoin="round"
     stroke-width="9.99996"
     d="m 142.73815,77.788296 a 67.326755,65.202682 0 0 1 0,92.211664"
     id="path3-6"
     style="fill:none;stroke:#000000;stroke-width:12;stroke-dasharray:none;stroke-opacity:1" /><path
     stroke="#000000"
     stroke-linecap="round"
     stroke-linejoin="round"
     stroke-width="9.99996"
     d="m 127.01608,95.52218 a 41.427963,40.120965 0 0 1 0,56.74389 m -14.96209,-37.23825 a 12.947456,12.53898 0 0 1 0,17.73263"
     id="path4-7"
     style="fill:none;stroke:#000000;stroke-width:12;stroke-dasharray:none;stroke-opacity:1" /><path
     style="fill:none;stroke:#000000;stroke-width:12;stroke-linecap:round;stroke-linejoin:round;stroke-dasharray:none;stroke-opacity:1"
     d="m 36.011,22.000317 h 21.204715 a 6.0000823,6.0000823 44.999607 0 1 6.000082,6 L 63.216,42.767041 C 81.138184,30.58567 90.879631,23.95235 108.84319,22.794737 c 3.30613,-0.213054 5.99588,2.502659 5.99588,5.816367 l 0,25.563337 c 0,3.313708 -2.6386,6.517287 -5.84415,7.355402 -48.668639,12.72477 -46.056658,50.629747 -45.795562,101.975407 0.01685,3.31361 -2.66965,5.99988 -5.983358,5.99988 H 36.011 a 6,6 45 0 1 -6,-6 l 0,-135.504813 a 6,6 135 0 1 6,-6 z"
     id="path1"
     transform="matrix(1.0000037,0,0,1.0000037,-0.38960903,-3.5623094e-4)" /></svg>
