<svg xmlns="http://www.w3.org/2000/svg" width="192" height="192" fill="none" stroke="#000" stroke-linecap="round" stroke-linejoin="round" stroke-width="12" viewBox="0 0 192 192"><path d="M96 116.995 149 170l21-21.004-53-53.003m-42-1-11-10.01V63.98l-8-8.002 1 18.004-7 7.001L28 58.98l-6 5c0-18.934 9.425-50.11 35.597-40.015 1.607.62 3.017 1.658 4.213 2.897L88 53.978l-6 6.001 14 14.012"/><path d="m96 73.991 14-14.012-6-6.001 26.19-27.117c1.196-1.239 2.606-2.277 4.213-2.897C160.575 13.868 170 45.044 170 63.98l-6-5.001-22 22.004-7-7.001 1-18.004-8 8.002v21.004l-11 11.01m-42-1-53 54.002L43 170l53-53.005"/></svg>