<svg xmlns="http://www.w3.org/2000/svg" width="192" height="192" fill-rule="evenodd" viewBox="0 0 192 192"><path d="M79.267 107.175a106 106 0 0 1 2.815 5.64l27.695 59.71a6 6 0 0 0 5.443 3.474h32.237a6 6 0 0 0 5.44-8.533l-24.988-53.658c-.926-2.065-2.024-4.043-3.102-5.792 15.203-7.257 25.14-22.561 25.14-41.45 0-14.402-4.11-25.323-11.002-33.309C128.82 21.527 112.335 16 92.485 16l-47.942 1.248a6 6 0 0 0-6 6v146.751a6 6 0 0 0 6 6h28.724a6 6 0 0 0 6-6zm8.714-9.044c10.098-.621 17.667-3.533 22.922-7.974 6.393-5.403 9.696-13.135 9.696-22.768 0-7.85-2.393-13.911-6.404-18.419-5.681-6.383-14.979-9.756-26.667-9.756-8.853 0-14.899.653-14.899.653a6 6 0 0 0-5.362 5.966v118.166H50.543V29.22L92.485 28c15.862 0 29.285 3.725 37.376 13.098 5.25 6.083 8.086 14.497 8.086 25.467 0 16.16-9.713 28.882-24.08 32.747a5.998 5.998 0 0 0-3.042 9.646s3.798 4.532 6.149 9.792l.038.085 21.033 45.164H119.05l-26.084-56.236c-1.796-3.869-3.47-7.04-4.986-9.632zM79.267 86.21c1.639.05 3.169.048 4.54.048 8.66 0 15.128-1.698 19.35-5.266 3.786-3.2 5.442-7.9 5.442-13.603 0-4.417-1.111-7.905-3.368-10.44-3.723-4.184-10.043-5.735-17.703-5.735-3.223 0-6.039.093-8.261.205z"/></svg>