<svg xmlns="http://www.w3.org/2000/svg" width="192" height="192" fill-rule="evenodd" viewBox="0 0 192 192"><path d="M114.77 132a6 6 0 0 0-6-6h-38a6 6 0 0 0-6 6v38a6 6 0 0 0 6 6h38a6 6 0 0 0 6-6zM170 162.545h-38c-3.31 0-6 2.688-6 6s2.69 6 6 6h38c3.31 0 6-2.689 6-6s-2.69-6-6-6M102.77 138v26h-26v-26zm67.23 7h-38c-3.31 0-6 2.689-6 6s2.69 6 6 6h38c3.31 0 6-2.689 6-6s-2.69-6-6-6m0-16.836h-38c-3.31 0-6 2.688-6 6s2.69 6 6 6h38c3.31 0 6-2.689 6-6s-2.69-6-6-6m6-57.392c0-3.314-2.69-6-6-6h-38a6 6 0 0 0-6 6v38a6 6 0 0 0 6 6h38c3.31 0 6-2.686 6-6zm-61.23 0c0-3.314-2.68-6-6-6h-38a6 6 0 0 0-6 6v38a6 6 0 0 0 6 6h38a6 6 0 0 0 6-6zm49.23 6v26h-26v-26zm-61.23 0v26h-26v-26zM28 52.098h2.94l7.05 15.139a5.996 5.996 0 0 0 10.88-5.065l-6.56-14.094c4.08-3.181 7.11-7.834 7.11-13.031 0-6.707-2.24-11.295-5.74-14.331-3.32-2.878-8.04-4.446-14.01-4.446-2.12 0-5.52.088-7.67.088-3.31 0-6 2.686-6 6v42.077c0 3.311 2.69 6 6 6s6-2.689 6-6zm4.35-12a9.95 9.95 0 0 0 3.59-2.231c.79-.783 1.48-1.703 1.48-2.82 0-2.392-.36-4.183-1.6-5.266-1.43-1.239-3.58-1.511-6.15-1.511-.5 0-1.06.004-1.67.012v11.816z"/></svg>