<svg xmlns="http://www.w3.org/2000/svg" width="192" height="192" fill="none" stroke="#000" stroke-linecap="round" stroke-linejoin="round" viewBox="0 0 192 192"><path stroke-width="10" d="M21 65V27a6 6 0 0 1 6-6h9m0 24H21m15 0 12 21M36 45a12 12 0 0 0 0-24"/><path stroke-width="12" d="m74 132 26 38m70-38-26 38m-44 0s36.009-50.264 37.588-53A17.997 17.997 0 0 0 131 92.412 17.998 17.998 0 0 0 104 108c0 3.16.832 6.264 2.412 9 1.579 2.736 37.588 53 37.588 53M84.659 90.613A18 18 0 0 0 64.412 117c1.78 3.083 9.588 15 9.588 15"/></svg>