<svg width="192" height="192" viewBox="0 0 192 192" fill="none" xmlns="http://www.w3.org/2000/svg"><path d="m22 170 92-6 56-32M22 170s0-16 3-25c3-7 15.5-44 55-44l90 9m0 0V86" stroke="#000" stroke-width="12" stroke-linecap="round" stroke-linejoin="round"/><path d="M94 52V31s-3-4-3-10m25 47V37m-9 108-11-21m-16 23-2-21m-23 21 5-20m56-90s-6-16-25-16" stroke="#000" stroke-width="10" stroke-linecap="round" stroke-linejoin="round"/><path d="m96 54 40 26c18-12 34 6 34 6" stroke="#000" stroke-width="12" stroke-linecap="round" stroke-linejoin="round"/><circle cx="80" cy="75" r="26" stroke="#000" stroke-width="12" stroke-linecap="round" stroke-linejoin="round"/><circle cx="76" cy="75" r="3" stroke="#000" stroke-width="6" stroke-linecap="round" stroke-linejoin="round"/></svg>