<svg xmlns="http://www.w3.org/2000/svg" width="192" height="192" fill="none" stroke="#000" stroke-linecap="round" stroke-linejoin="round" stroke-width="8" viewBox="0 0 192 192"><path d="M130.068 140.239c2.48-2.034 2.292-6.366-.421-9.675-2.714-3.309-6.924-4.343-9.405-2.309s-2.293 6.366.421 9.675 6.924 4.343 9.405 2.309m21.805-8.17c2.481-2.034 2.293-6.366-.42-9.675s-6.924-4.343-9.405-2.309-2.293 6.366.421 9.675 6.924 4.343 9.404 2.309m-53.611 23.387c2.481-2.034 2.293-6.365-.42-9.675-2.714-3.309-6.924-4.343-9.405-2.309-2.481 2.035-2.293 6.366.42 9.675s6.924 4.343 9.405 2.309m-25.436 15.519c2.48-2.034 2.292-6.366-.421-9.675-2.714-3.309-6.924-4.343-9.405-2.309s-2.293 6.366.42 9.675 6.925 4.343 9.406 2.309m31.988-123.384-5.689-24.104L108.261 20l1.679 11.522-7.648 3.23"/><path d="M148.695 58.006s-1.532-24.764-42.762-10.76c0 0-34.558 10.202-63.43 35.323 0 0-21.918 20.987-15.123 38.078m3.69-1.448s6.995 26.393 20.154 46.293c0 0 54.791-48.054 114.234-53.67l-17.734-51.309"/><path d="M98.04 73.932s5.589 23.713 18.845 50.413m-33.601 17.814S68.657 119.665 62.05 94.383"/><path d="M28.37 119.166S86.4 65.759 149.433 59.484m6.929 26.838s-51.993.913-113.957 55.774"/><path stroke-width="6" d="M128.649 107.297a2.649 2.649 0 1 0-.001-5.297 2.649 2.649 0 0 0 .001 5.297m19.001-1.997a4.65 4.65 0 1 0 0-9.3 4.65 4.65 0 0 0 0 9.3"/></svg>