<svg xmlns="http://www.w3.org/2000/svg" width="192" height="192" fill="none"><path stroke="#000" stroke-linecap="round" stroke-linejoin="round" stroke-width="12" d="M144 124a46 46 0 0 1-13.473 32.527A46.002 46.002 0 0 1 52 124M98 22s46 50 46 102M98 22S52 72 52 124"/><path stroke="#000" stroke-linecap="round" stroke-linejoin="round" stroke-width="10" d="M49 125c-2.626 0-5.227-.515-7.654-1.514a20 20 0 0 1-6.488-4.312 19.9 19.9 0 0 1-4.336-6.454A19.8 19.8 0 0 1 29 105.108C29 82.622 48.565 61 48.565 61m.87 0s7.1 7.846 12.745 19m85.211-58S165 41.595 165 61.973a18.04 18.04 0 0 1-5.272 12.747 17.976 17.976 0 0 1-25.456 0A18.04 18.04 0 0 1 129 61.973C129 41.595 146.609 22 146.609 22"/></svg>