<svg xmlns="http://www.w3.org/2000/svg" width="192" height="192" fill="none"><circle cx="57" cy="70" r="4" stroke="#000" stroke-linecap="round" stroke-linejoin="round" stroke-width="8"/><circle cx="129" cy="71" r="4" stroke="#000" stroke-linecap="round" stroke-linejoin="round" stroke-width="8"/><path stroke="#000" stroke-linecap="round" stroke-linejoin="round" stroke-width="12" d="M22 70c0 19.33 15.67 35 35 35 14.888 0 27.606-9.296 32.664-22.4C94.667 99.593 110.385 112 129 112c22.644 0 41-18.356 41-41s-18.356-41-41-41c-18.215 0-33.656 11.879-39 28.312C85.19 44.73 72.232 35 57 35c-19.33 0-35 15.67-35 35m123.849 66.548a74 74 0 0 1-87.415 18.382 74 74 0 0 1-25.121-19.364"/></svg>