<svg width="192" height="192" viewBox="0 0 192 192" fill="none" xmlns="http://www.w3.org/2000/svg"><path d="M57 117c31 0 47-40 78-40" stroke="#000" stroke-width="10" stroke-linecap="round" stroke-linejoin="round" stroke-dasharray="6 20"/><path d="m155 85 8-8m0 0 8-8m-8 8 8 8m-8-8-8-8" stroke="#000" stroke-width="10" stroke-linecap="round" stroke-linejoin="round"/><path d="M162 170c-44-5-73-41-73-41m73 13c-26 0-50-28-50-28m50 0c-18 0-26-15-26-15" stroke="#000" stroke-width="12" stroke-linecap="round" stroke-linejoin="round"/><path d="m37 109-16 16m0-16 16 16" stroke="#000" stroke-width="10" stroke-linecap="round" stroke-linejoin="round"/><path d="M30 22c44 5 73 41 73 41M30 50c26 0 50 28 50 28m-50 0c18 0 26 15 26 15" stroke="#000" stroke-width="12" stroke-linecap="round" stroke-linejoin="round"/></svg>