<svg xmlns="http://www.w3.org/2000/svg" width="192" height="192" fill="none" viewBox="0 0 192 192"><circle cx="96" cy="35" r="12" stroke="#000" stroke-linejoin="round" stroke-width="10"/><circle cx="96" cy="157" r="12" stroke="#000" stroke-linejoin="round" stroke-width="10" transform="rotate(180 96 157)"/><circle cx="35" cy="96" r="12" stroke="#000" stroke-linejoin="round" stroke-width="10" transform="rotate(-90 35 96)"/><path stroke="#000" stroke-linecap="round" stroke-linejoin="round" stroke-width="12" d="M74.08 117.08 96 96M74.92 74.08 96 96m-21.92 21.08a31 31 0 1 0 51.864 29.943M74.92 74.08a31 31 0 1 0-29.943 51.864"/><circle cx="157" cy="96" r="12" stroke="#000" stroke-linejoin="round" stroke-width="10" transform="rotate(90 157 96)"/><path stroke="#000" stroke-linecap="round" stroke-linejoin="round" stroke-width="10" d="M120 96H72m24-24v48"/><path stroke="#000" stroke-linecap="round" stroke-linejoin="round" stroke-width="12" d="M117.92 74.92 96 96m21.08 21.92L96 96m21.92-21.08a31 31 0 1 0-51.864-29.943m51.024 72.943a31 31 0 1 0 29.943-51.864"/></svg>