<svg width="192" height="192" viewBox="0 0 192 192" fill="none" xmlns="http://www.w3.org/2000/svg"><path d="M70.5 127c21.815 0 39.5-15.67 39.5-35S92.315 57 70.5 57 31 72.67 31 92c0 6.26 1.855 12.138 5.105 17.223L22 139l36.002-13.788A44.103 44.103 0 0 0 70.5 127Z" stroke="#000" stroke-width="12" stroke-linecap="round" stroke-linejoin="round"/><path d="M121.5 127C99.685 127 82 111.33 82 92s17.685-35 39.5-35S161 72.67 161 92c0 6.26-1.855 12.138-5.105 17.223L170 139l-36.002-13.788A44.104 44.104 0 0 1 121.5 127Z" stroke="#000" stroke-width="12" stroke-linecap="round" stroke-linejoin="round"/></svg>