<?xml version="1.0" encoding="utf-8"?>
<svg
	version="1.1"
	xmlns="http://www.w3.org/2000/svg"
	xmlns:xlink="http://www.w3.org/1999/xlink"
	x="0%" y="0%"
	width="100%" height="100%"
	viewBox="0 0 24.0 24.0"
	enable-background="new 0 0 24.0 24.0"
	xml:space="preserve">
	<path
		fill="#000000"
		stroke="#000000"
		fill-opacity="0.000"
		stroke-opacity="1.000"
		fill-rule="nonzero"
		stroke-width="0.6579225"
		stroke-linejoin="miter"
		stroke-linecap="square"
		d="M9.37,3.25L14.62,3.25A0.00 0.00 0 0 1 14.62,3.25L14.62,8.55A0.00 0.00 0 0 1 14.62,8.55L9.37,8.55A0.00 0.00 0 0 1 9.37,8.55L9.37,3.25A0.00 0.00 0 0 1 9.37,3.25z"/>
	<path
		fill="#000000"
		stroke="#000000"
		fill-opacity="1.000"
		stroke-opacity="1.000"
		fill-rule="nonzero"
		stroke-width="0.6579225"
		stroke-linejoin="miter"
		stroke-linecap="square"
		d="M9.28,6.29L14.72,6.29A0.12 0.12 0 0 1 14.84,6.41L14.84,8.43A0.12 0.12 0 0 1 14.72,8.55L9.28,8.55A0.12 0.12 0 0 1 9.16,8.43L9.16,6.41A0.12 0.12 0 0 1 9.28,6.29z"/>
	<path
		fill="#000000"
		stroke="#000000"
		fill-opacity="0.000"
		stroke-opacity="1.000"
		fill-rule="nonzero"
		stroke-width="0.6579225"
		stroke-linejoin="miter"
		stroke-linecap="square"
		d="M2.30,3.49L9.38,3.49L9.38,9.15L2.30,9.15zM4.00,8.23L4.34,8.23L4.34,4.40L4.00,4.40zM4.00,13.91L4.34,13.91L4.34,10.08L4.00,10.08zM4.00,19.60L4.34,19.60L4.34,15.77L4.00,15.77z"/>
	<path
		fill="#000000"
		stroke="#000000"
		fill-opacity="0.000"
		stroke-opacity="1.000"
		fill-rule="nonzero"
		stroke-width="0.6579225"
		stroke-linejoin="miter"
		stroke-linecap="square"
		d="M14.62,3.47L21.66,3.47L21.66,9.15L14.62,9.15z"/>
	<path
		fill="#000000"
		stroke="#000000"
		fill-opacity="0.000"
		stroke-opacity="1.000"
		fill-rule="nonzero"
		stroke-width="0.6579225"
		stroke-linejoin="miter"
		stroke-linecap="square"
		d="M9.38,16.02L14.62,16.02L14.62,20.72L9.38,20.72z"/>
	<path
		fill="#000000"
		stroke="#000000"
		fill-opacity="1.000"
		stroke-opacity="1.000"
		fill-rule="nonzero"
		stroke-width="0.6579225"
		stroke-linejoin="miter"
		stroke-linecap="square"
		d="M11.51,15.09L11.43,13.12C11.43,12.30,12.57,12.30,12.57,13.12L12.47,15.09z"/>
	<path
		fill="#000000"
		stroke="#000000"
		fill-opacity="0.000"
		stroke-opacity="1.000"
		fill-rule="nonzero"
		stroke-width="0.6579225"
		stroke-linejoin="miter"
		stroke-linecap="square"
		d="M2.30,9.15L9.38,9.15L9.38,14.81L2.30,14.81z"/>
	<path
		fill="#000000"
		stroke="#000000"
		fill-opacity="0.000"
		stroke-opacity="1.000"
		fill-rule="nonzero"
		stroke-width="0.6579225"
		stroke-linejoin="miter"
		stroke-linecap="square"
		d="M2.30,14.81L9.38,14.81L9.38,20.47L2.30,20.47z"/>
	<path
		fill="#000000"
		stroke="#000000"
		fill-opacity="0.000"
		stroke-opacity="1.000"
		fill-rule="nonzero"
		stroke-width="0.6579225"
		stroke-linejoin="miter"
		stroke-linecap="square"
		d="M14.62,9.14L21.66,9.14L21.66,14.83L14.62,14.83z"/>
	<path
		fill="#000000"
		stroke="#000000"
		fill-opacity="0.000"
		stroke-opacity="1.000"
		fill-rule="nonzero"
		stroke-width="0.6579225"
		stroke-linejoin="miter"
		stroke-linecap="square"
		d="M14.62,14.83L21.66,14.83L21.66,20.51L14.62,20.51z"/>
	<path
		fill="#000000"
		stroke="#000000"
		fill-opacity="0.992"
		stroke-opacity="1.000"
		fill-rule="nonzero"
		stroke-width="0.6579225"
		stroke-linejoin="miter"
		stroke-linecap="square"
		d="M12.54,14.42L14.26,14.42C14.43,14.43,14.62,14.28,14.62,14.11L14.62,10.17C15.04,10.17,15.28,10.10,15.28,10.56L15.46,14.95C15.46,15.70,15.15,16.02,14.52,16.02L9.44,16.02C8.84,16.02,8.54,15.70,8.54,14.95L8.73,10.56C8.73,10.13,9.08,10.17,9.37,10.17L9.36,13.96C9.36,14.22,9.54,14.41,9.83,14.41L11.47,14.42"/>
</svg>