<svg xmlns="http://www.w3.org/2000/svg" width="192" height="192" fill="none" stroke="#000" stroke-linecap="round" stroke-linejoin="round" stroke-width="8" viewBox="0 0 192 192"><path d="M21.68 31.74h148.64c.94 5.92 1.64 12.88 1.68 20.68.04 8.29-.69 15.66-1.68 21.86H21.68c-.98-6.2-1.71-13.57-1.68-21.86.03-7.8.74-14.76 1.68-20.68Z"/><path d="M34.53 41.34v22.35m36.85 53.09h-49.7c-.98-6.2-1.71-13.57-1.68-21.86.03-7.8.74-14.76 1.68-20.68h148.64c.94 5.92 1.64 12.88 1.68 20.68.04 8.29-.69 15.66-1.68 21.86H119M34.53 83.85v22.36"/><path d="M119.01 116.75h51.32c.94 5.92 1.64 12.88 1.68 20.68.04 8.29-.69 15.66-1.68 21.86H21.68c-.98-6.2-1.71-13.57-1.68-21.86.03-7.8.74-14.76 1.68-20.68h49.71m-36.86 10.62v22.35"/><path stroke-width="12" d="M74.74 28.18h42.51v135.63H74.74z"/><path d="M74.74 89h-5.06l-2.02 42.43h56.68L122.32 89h-5.06"/><path stroke-width="6" d="m92.96 129-2.02-16.2c.51-2.39 2.65-4.1 5.06-4.05 2.34.05 4.36 1.73 4.85 4.05-.61 5.4-1.21 10.8-1.82 16.2h-6.07Z"/></svg>