<svg width="192" height="192" viewBox="0 0 192 192" fill="none" xmlns="http://www.w3.org/2000/svg">
<path fill-rule="evenodd" clip-rule="evenodd" d="M16 22C16 18.6863 18.6863 16 22 16H91.1747C112.14 16 129.382 18.119 141.492 24.9035C147.711 28.3875 152.62 33.1209 155.914 39.3501C159.179 45.5236 160.666 52.7982 160.666 61.1114C160.666 73.6113 157.571 83.7828 150.526 91.3372C145.294 96.9467 138.325 100.634 130.045 102.971L156.244 145.022C156.255 145.04 156.266 145.057 156.276 145.075C158.794 149.21 160.715 151.338 162.598 152.621C164.409 153.856 166.711 154.666 170.696 155.133C173.719 155.488 175.997 158.049 175.997 161.093V169.978C175.997 173.292 173.311 175.978 169.997 175.978H125.475C123.379 175.978 121.435 174.884 120.347 173.092L80.3948 107.281H79.3516V146.324C79.3516 152.404 80.2731 153.207 80.4075 153.324L80.4093 153.326C80.5655 153.462 81.0948 153.838 82.6942 154.216C84.3124 154.599 86.5236 154.876 89.6983 155.137C92.8104 155.394 95.2054 157.994 95.2054 161.117V170.003C95.2054 173.316 92.5191 176.003 89.2054 176.003H22C18.6863 176.003 16 173.316 16 170.003V161.117C16 157.994 18.395 155.394 21.507 155.137C24.6794 154.876 26.8896 154.598 28.5062 154.214C30.1036 153.835 30.6347 153.458 30.7931 153.319L30.7945 153.318C30.9326 153.197 31.8543 152.393 31.8543 146.324V45.6783C31.8543 39.3754 30.9902 38.6402 30.9273 38.5867L30.9252 38.5849C30.8334 38.504 30.365 38.1418 28.7318 37.7706C27.0842 37.3961 24.8175 37.1301 21.5218 36.8665C18.4035 36.6172 16 34.0139 16 30.8856V22ZM36.6303 28C37.4063 28.4407 38.1541 28.961 38.8567 29.5798C43.4337 33.6111 43.8543 39.811 43.8543 45.6783V146.324C43.8543 152.271 43.274 158.349 38.6894 162.355C37.9491 163.002 37.1602 163.544 36.3409 164.003H74.8512C74.0381 163.547 73.2548 163.009 72.5194 162.367C67.93 158.363 67.3516 152.279 67.3516 146.324V101.281C67.3516 97.9674 70.0379 95.2811 73.3516 95.2811H83.7715C85.868 95.2811 87.8124 96.3754 88.9003 98.1675L128.852 163.978H158.255C157.433 163.553 156.628 163.075 155.839 162.537C151.915 159.862 148.929 156.079 146.043 151.342L115.373 102.116C114.313 100.415 114.173 98.2971 114.998 96.471C115.824 94.6449 117.507 93.3516 119.484 93.0238C130.246 91.2391 137.319 87.9035 141.75 83.1528C146.09 78.4987 148.666 71.6498 148.666 61.1114C148.666 54.2009 147.43 48.9749 145.306 44.9605C143.213 41.0019 140.068 37.8605 135.627 35.3725C126.418 30.2131 111.914 28 91.1747 28H36.6303ZM70.6399 33.997C72.9475 31.5562 76.0921 30.3747 79.3592 30.3747H91.1998C100.137 30.3747 108.823 31.6263 115.277 36.6242C122.094 41.9039 125.069 50.2312 125.069 61.1114C125.069 71.905 122.087 80.3858 115.34 85.9348C108.849 91.2724 100.024 92.9064 90.6015 92.9064H73.3516C70.0379 92.9064 67.3516 90.2201 67.3516 86.9064V42.725C67.3516 39.559 68.3618 36.4065 70.6399 33.997ZM116.616 74.5094C116.616 74.5094 111.622 47.2168 114.852 41.4253L73.5252 85.8261C83.6506 77.6605 114.21 77.5271 114.21 77.5271C115.676 77.2165 116.684 75.9518 116.616 74.5094Z" fill="black"/>
</svg>
