<svg xmlns="http://www.w3.org/2000/svg" width="192" height="192" fill="none"><path stroke="#000" stroke-linecap="round" stroke-linejoin="round" stroke-width="12" d="m44.49 52.742.717-6.746 14.458-16.204 14.317 6.525L80.507 22l21.541 2.744 4.02 4.975-14.73 53.018zm94.768-7.897 6.746.717 16.204 14.457-6.525 14.317L170 80.861l-2.744 21.541-4.975 4.02-53.018-14.73zm-53.68 117.79 4.967 4.621L112.086 170l6.525-14.317 14.317 6.525 14.458-16.204-.231-6.392-45.9-30.349zM29.365 85.932l-4.621 4.967L22 112.441l14.317 6.524-6.525 14.317 16.204 14.458 6.392-.231 30.35-45.899z"/></svg>