<?xml version="1.0" encoding="utf-8"?>
	<svg version="1.1" xmlns="http://www.w3.org/2000/svg" xmlns:xlink="http://www.w3.org/1999/xlink" x="0px" y="0px" width="240.0" height="240.0" xml:space="preserve">
		<path d="M83.636,38C98.509,38 111.709,45.136 120,56.182C128.577,44.727 142.054,37.989 156.364,38L220,38L220,201.636L20,201.636L20,38L83.636,38ZM175.097,177.07L171.493,177.07L171.493,181.113L175.097,181.113L175.097,177.07ZM191.283,158.687L185.482,158.687C184.486,158.687 183.627,159.063 182.904,159.814C182.172,160.586 181.806,161.597 181.806,162.847L181.806,162.847L181.806,177.129C181.806,178.34 182.162,179.292 182.875,179.985C183.656,180.737 184.638,181.113 185.819,181.113L185.819,181.113L191.854,181.113C192.255,181.113 192.709,180.996 193.217,180.762C193.646,180.566 194.003,180.327 194.286,180.044C194.96,179.37 195.297,178.374 195.297,177.056L195.297,177.056L195.297,162.715C195.297,161.641 194.965,160.693 194.301,159.873C193.656,159.082 192.65,158.687 191.283,158.687L191.283,158.687ZM161.093,158.716L155.6,158.716C154.486,158.716 153.588,159.033 152.904,159.668C152.094,160.42 151.688,161.27 151.688,162.217C151.688,162.383 151.698,162.578 151.718,162.803L151.718,162.803L154.647,162.803C154.833,162.002 155.272,161.602 155.966,161.602L155.966,161.602L160.653,161.602C161.61,161.602 162.089,162.08 162.089,163.037L162.089,163.037L162.089,166.948C162.089,167.681 161.576,168.047 160.551,168.047L160.551,168.047L154.53,168.047L154.53,170.933L160.712,170.933C161.64,170.933 162.104,171.362 162.104,172.222L162.104,172.222L162.104,177.085C162.104,177.808 161.62,178.169 160.653,178.169L160.653,178.169L155.878,178.169C155.204,178.169 154.76,177.827 154.545,177.144L154.545,177.144L151.645,177.144C151.693,178.003 151.874,178.691 152.187,179.209C152.909,180.439 154.115,181.055 155.805,181.055L155.805,181.055L161.679,181.055C162.567,181.055 163.397,180.684 164.169,179.941C164.833,179.297 165.165,178.462 165.165,177.437L165.165,177.437L165.165,171.416C165.165,170.859 164.945,170.205 164.506,169.453C164.936,168.73 165.15,168.032 165.15,167.358L165.15,167.358L165.15,162.349C165.15,161.274 164.809,160.405 164.125,159.741C163.412,159.058 162.401,158.716 161.093,158.716L161.093,158.716ZM190.961,161.572C191.811,161.572 192.235,162.041 192.235,162.979L192.235,162.979L192.235,176.675C192.235,177.241 192.138,177.637 191.942,177.861C191.718,178.105 191.298,178.228 190.683,178.228L190.683,178.228L186.347,178.228C185.36,178.228 184.867,177.71 184.867,176.675L184.867,176.675L184.867,162.729C184.867,162.397 184.989,162.114 185.233,161.88C185.458,161.675 185.775,161.572 186.186,161.572L186.186,161.572ZM176.289,102.367L169.219,102.367C168.854,106.69 168.62,109.281 168.516,110.141C168.229,113.005 167.565,116.339 166.523,120.141L166.523,120.141L150.195,120.141L150.195,127.367L162.852,127.367C160.82,129.633 159.049,131.26 157.539,132.25C155.768,133.396 153.086,134.516 149.492,135.609L149.492,135.609L149.492,142.563C152.044,142.042 153.997,141.56 155.352,141.117C159.518,139.763 163.034,137.706 165.898,134.945C167.487,133.435 169.31,130.909 171.367,127.367L171.367,127.367L173.594,127.367C176.563,132.706 180.443,136.664 185.234,139.242C187.552,140.492 191.003,141.599 195.586,142.563L195.586,142.563L195.586,135.609C193.008,134.932 190.755,134.047 188.828,132.953C186.484,131.625 184.271,129.763 182.188,127.367L182.188,127.367L195.586,127.367L195.586,120.141L173.867,120.141C174.883,116.182 175.69,110.258 176.289,102.367L176.289,102.367ZM129.453,93.93L123.867,93.93L123.867,101.156L128.477,101.156C129.779,101.156 130.625,101.391 131.016,101.859C131.406,102.328 131.602,103.292 131.602,104.75L131.602,104.75L131.602,135.375C131.602,137.953 132.604,139.984 134.609,141.469C135.547,142.146 137.292,142.484 139.844,142.484L139.844,142.484L145.664,142.484L145.664,135.258L141.914,135.258C140.586,135.258 139.727,135.063 139.336,134.672C138.997,134.307 138.828,133.383 138.828,131.898L138.828,131.898L138.828,101.781C138.828,99.802 138.529,98.292 137.93,97.25C137.461,96.443 136.719,95.688 135.703,94.984C134.661,94.281 132.578,93.93 129.453,93.93L129.453,93.93ZM52.227,88.734L45,88.734L45,142.328L52.227,142.328L52.227,88.734ZM105.977,76L68.555,76L68.555,83.227L103.281,83.227C106.484,83.227 108.086,84.685 108.086,87.602L108.086,87.602L108.086,130.063C108.086,131.677 107.734,132.888 107.031,133.695C106.198,134.659 105.208,135.141 104.063,135.141L104.063,135.141L102.383,135.141L102.383,142.328L105.313,142.328C107.448,142.328 109.427,141.703 111.25,140.453C113.958,138.604 115.313,135.831 115.313,132.133L115.313,132.133L115.313,85.805C115.313,83.096 114.401,80.805 112.578,78.93C110.677,76.977 108.477,76 105.977,76L105.977,76ZM70.977,88.5L63.75,88.5L63.75,93.734C62.057,94.177 60.716,94.854 59.727,95.766C58.372,97.042 57.695,98.552 57.695,100.297L57.695,100.297L57.695,109.438C57.695,111.99 58.359,113.917 59.688,115.219C61.198,116.703 63.06,117.445 65.273,117.445L65.273,117.445L66.719,117.445C65.703,121.846 64.766,124.958 63.906,126.781C62.865,128.943 61.094,130.193 58.594,130.531L58.594,130.531L58.594,137.914C60.521,137.602 62.005,137.237 63.047,136.82C65.938,135.674 68.151,133.708 69.688,130.922C71.12,128.292 72.578,123.799 74.063,117.445L74.063,117.445L83.242,117.445L83.242,129.945C83.242,132.107 83.906,133.839 85.234,135.141C86.797,136.651 88.932,137.406 91.641,137.406L91.641,137.406L102.109,137.406L102.109,130.102L93.594,130.102C92.656,130.102 91.979,129.893 91.563,129.477C91.172,129.086 90.977,128.266 90.977,127.016L90.977,127.016L90.977,117.445L94.805,117.445C96.94,117.445 98.802,116.612 100.391,114.945C101.615,113.669 102.227,111.586 102.227,108.695L102.227,108.695L102.227,100.805C102.227,96.977 99.987,94.568 95.508,93.578L95.508,93.578L95.508,88.5L88.242,88.5L88.242,93.578L70.977,93.578L70.977,88.5ZM165.43,111.078L150.195,111.078L150.195,117.328L165.43,117.328L165.43,111.078ZM176.445,76.117L169.219,76.117L169.219,79.789L150.234,79.789L150.234,87.016L169.219,87.016L169.219,91.234L150.234,91.234L150.234,98.461L184.766,98.461C186.328,98.461 187.318,98.695 187.734,99.164C188.203,99.659 188.438,100.557 188.438,101.859L188.438,101.859L188.398,110.453L195.586,110.453L195.586,97.406C195.586,95.818 194.948,94.398 193.672,93.148C192.37,91.872 190.456,91.234 187.93,91.234L187.93,91.234L176.445,91.234L176.445,87.016L195.586,87.016L195.586,79.789L176.445,79.789L176.445,76.117ZM92.461,100.805C93.346,100.805 93.945,100.974 94.258,101.313C94.727,101.859 94.961,102.445 94.961,103.07L94.961,103.07L94.961,107.523C94.961,109.242 94.284,110.102 92.93,110.102L92.93,110.102L67.109,110.102C65.729,110.102 65.039,109.242 65.039,107.523L65.039,107.523L65.039,102.836C65.039,101.482 65.938,100.805 67.734,100.805L67.734,100.805ZM165.43,102.602L150.195,102.602L150.195,108.852L165.43,108.852L165.43,102.602ZM139.922,76.742L123.867,76.742L123.867,83.969L139.922,83.969L139.922,76.742ZM61.797,76L45,76L45,82.758L61.797,82.758L61.797,76Z" fill="#000" stroke="#00000000" stroke-width="1.0" stroke-miterlimit=""/>
	</svg>
