<svg width="192" height="192" viewBox="0 0 192 192" fill="none" xmlns="http://www.w3.org/2000/svg">
<path fill-rule="evenodd" clip-rule="evenodd" d="M134.302 96.1028C150.543 90.2767 158.613 78.6158 158.613 58.2818C158.613 25.3666 135.357 16 90.8398 16H31.6623H29H17.7779H17V25.6059C22.7744 26.0735 26.6556 26.6167 29.2265 28C32.9465 30.0016 33.9235 33.7621 33.9235 41.5977V150.402C33.9235 158.186 32.7711 161.971 28.9114 164C26.3192 165.363 22.5057 165.934 17 166.394V176H17.8021H29H31.3258H74.3957H76.7376H87.9356H88.7376V166.394C83.2214 165.934 79.404 165.365 76.8116 164C72.9639 161.974 71.8147 158.192 71.8147 150.402V113.708V101.708H82.9373L83.8147 103.172L127.454 175.974H162.978H163.45H173.837H174.978V166.368C171.354 165.937 168.426 165.217 165.877 163.974C161.65 161.913 158.463 158.416 154.861 152.424L128.825 110.102L122.106 99.1801C126.585 98.4278 130.65 97.4128 134.302 96.1028ZM144.609 158.661L111.885 105.468L106.258 96.3215C102.511 97.3148 98.6193 97.8353 94.7346 98.0486L134.251 163.974H148.131C146.879 162.286 145.719 160.505 144.609 158.661ZM59.8147 98.1679V101.708V150.402C59.8147 154.354 59.9886 159.329 61.7947 164H43.9389C45.7478 159.33 45.9235 154.355 45.9235 150.402V41.5977C45.9235 37.7889 45.8339 32.7537 44.0617 28H62.6843C60.6676 31.2401 59.8147 34.9087 59.8147 38.405V86.1679V89.7078V98.1679ZM123.719 30.8975C130.112 37.9143 132.615 47.4741 132.615 58.2818C132.615 69.5368 129.857 79.5282 122.924 86.8218C132.041 84.9369 137.44 81.9257 140.682 78.4052C144.086 74.709 146.613 68.8101 146.613 58.2818C146.613 51.4348 145.402 46.7055 143.647 43.3441C141.952 40.0991 139.401 37.4487 135.498 35.2348C132.383 33.4672 128.492 32.0203 123.719 30.8975ZM121.286 72.8972C121.286 72.8972 115.485 40.1682 119.237 33.2231L71.2341 86.468C82.9953 76.6759 118.492 76.516 118.492 76.516C120.195 76.1435 121.366 74.6269 121.286 72.8972Z" fill="black"/>
</svg>
