<svg xmlns="http://www.w3.org/2000/svg" width="192" height="192" fill="none" viewBox="0 0 192 192"><path stroke="#000" stroke-linecap="round" stroke-linejoin="round" stroke-width="6" d="M83 76a3 3 0 1 0 0-6 3 3 0 0 0 0 6"/><path stroke="#000" stroke-linecap="round" stroke-linejoin="round" stroke-width="12" d="m93 102-23 32v30s15 6 41 6 41-6 41-6v-26c0-52-23-98-23-98h-16l-13-18-11 4-1 19C61 58 35 98 35 98l11 17c45-13 61-11 61-39"/><path stroke="#000" stroke-linecap="round" stroke-linejoin="round" stroke-width="12" d="M152 138s-15 6-41 6-41-6-41-6"/></svg>