<svg xmlns="http://www.w3.org/2000/svg" width="192" height="192" fill="none"><circle cx="46" cy="46" r="4" stroke="#000" stroke-linecap="round" stroke-linejoin="round" stroke-width="8"/><path stroke="#000" stroke-linecap="round" stroke-linejoin="round" stroke-width="10" d="m121 83 50 85m-61-63 61 21"/><circle cx="121" cy="83" r="4" stroke="#000" stroke-linecap="round" stroke-linejoin="round" stroke-width="8"/><circle cx="110" cy="105" r="4" stroke="#000" stroke-linecap="round" stroke-linejoin="round" stroke-width="8"/><path stroke="#000" stroke-linecap="round" stroke-linejoin="round" stroke-width="12" d="M82.884 22A43.8 43.8 0 0 1 90 46a45 45 0 0 1-.107 3.098M134.135 22A52.9 52.9 0 0 0 131 40q0 1.401.072 2.785M170 91.131a52.7 52.7 0 0 1-12.196-5.047M22 82.884a43.7 43.7 0 0 0 18.53 6.78m0 0c1.792.221 3.618.336 5.47.336a43.82 43.82 0 0 0 28.052-10.1M40.53 89.663C52.193 96.652 60 109.414 60 124c0 21.421-16.838 38.909-38 39.951M131.072 42.785A41.9 41.9 0 0 0 116 40a41.82 41.82 0 0 0-26.107 9.098m41.179-6.313c.961 18.57 11.48 34.61 26.732 43.299M89.893 49.098c-.861 12.38-6.843 23.348-15.841 30.802m0 0A43 43 0 0 0 74 82c0 13.488 6.358 25.49 16.24 33.175m67.564-29.091a41.8 41.8 0 0 1-3.612 13.416"/></svg>