<svg width="191" height="192" fill="none" xmlns="http://www.w3.org/2000/svg"><path d="m125.134 60.78-49.329 49.912a1.493 1.493 0 0 1-2.129 0 1.493 1.493 0 0 0-2.13 0l-38.391 38.851c-2.352 2.38-2.352 6.238 0 8.618l9.937 10.054a5.972 5.972 0 0 0 8.517 0L90 129.364a1.536 1.536 0 0 0 0-2.154 1.537 1.537 0 0 1 0-2.155l49.328-49.912m-19.164-19.39L102.42 42.108 122.295 22l13.485 17.954m-15.615 15.8 15.615-15.8m-15.615 15.8 41.167 41.652s9.227-22.263-2.13-33.753l-23.422-23.7M25 56.248s1.42 7.202 11.356 17.284a25.071 25.071 0 0 0 8.141 5.52 24.765 24.765 0 0 0 17.73.566l6.156 6.246M54.81 26s7.098 1.44 17.034 11.523a25.491 25.491 0 0 1 5.44 8.26 25.8 25.8 0 0 1 .558 17.99l6.156 6.246m46.501 47.183 24.267 24.604 10.272 9.429c2.528 2.321 2.627 6.29.217 8.736l-8.115 8.234a6.009 6.009 0 0 1-8.773-.22l-9.215-10.335-24.268-24.604" stroke="#000" stroke-width="12" stroke-linecap="round" stroke-linejoin="round"/></svg>