<svg width="192" height="192" fill="none" xmlns="http://www.w3.org/2000/svg"><path d="M163.731 51.418c-3.172 6.07-6.519 10.805-7.474 10.574-.956-.23.84-5.339 4.012-11.41 3.172-6.07 6.519-10.805 7.474-10.574.956.23-.84 5.339-4.012 11.41Z" stroke="#000" stroke-width="8" stroke-linecap="round" stroke-linejoin="round"/><path d="M160 171c0-11.077-16.999-15.084-38.081-24M25 41l23 25c3.757 27.348 13.554 44.654 28 58-23.972-12.107-51-28-51-83Zm7 130c3-5 8-8 8-8M96 21v19" stroke="#000" stroke-width="10" stroke-linecap="round" stroke-linejoin="round"/><path d="M137 138c9 20.5-18 26-18 26M62 24l13 19m55-19-13 19m-54 6s15-9 33-9 33 9 33 9" stroke="#000" stroke-width="10" stroke-linecap="round" stroke-linejoin="round"/><path d="M58.641 151.994c-2.294 1.06-4.367 1.453-4.63.877-.264-.575 1.382-1.9 3.676-2.96 2.293-1.059 4.367-1.452 4.63-.877.264.576-1.382 1.901-3.676 2.96Zm8.619 5.124c-3.612.08-6.543-.439-6.546-1.16-.003-.722 2.923-1.371 6.535-1.452 3.612-.08 6.542.44 6.545 1.161.004.721-2.922 1.371-6.534 1.451Zm24.195-18.773c-3.906 2.929-7.462 4.785-7.943 4.146-.48-.639 2.296-3.531 6.202-6.459 3.906-2.929 7.462-4.785 7.943-4.147.48.639-2.296 3.531-6.202 6.46Z" stroke="#000" stroke-width="8" stroke-linecap="round" stroke-linejoin="round"/><path d="M95.469 143.722c-6.312.354-11.634-.12-11.887-1.059-.253-.938 4.659-1.985 10.97-2.339 6.312-.353 11.634.121 11.887 1.059.253.938-4.659 1.986-10.97 2.339Zm55.427-53.879c-3.777 6.135-7.73 10.946-8.829 10.746-1.1-.2 1.071-5.335 4.847-11.47 3.777-6.134 7.73-10.945 8.83-10.745 1.099.2-1.071 5.335-4.848 11.47Zm-10.659-8.81c1.21 6.56 1.473 12.187.587 12.566-.886.38-2.586-4.632-3.796-11.192-1.21-6.561-1.473-12.187-.587-12.566.886-.38 2.586 4.632 3.796 11.192Zm-19.623 32.644c-3.352 5.768-6.815 10.21-7.734 9.921-.92-.289 1.052-5.199 4.404-10.967 3.352-5.768 6.815-10.21 7.734-9.921.92.289-1.052 5.199-4.404 10.967Z" stroke="#000" stroke-width="8" stroke-linecap="round" stroke-linejoin="round"/><path d="M123.786 121.275c-6.079 2.248-11.453 3.478-12.003 2.748-.55-.731 3.932-3.145 10.011-5.393 6.079-2.249 11.453-3.479 12.003-2.749.55.731-3.932 3.145-10.011 5.394Z" stroke="#000" stroke-width="8" stroke-linecap="round" stroke-linejoin="round"/></svg>