<svg xmlns="http://www.w3.org/2000/svg" width="192" height="192" fill="none" stroke="#000" stroke-linejoin="round" stroke-width="8" viewBox="0 0 192 192"><path d="M96 20a76.028 76.028 0 0 0-53.74 129.74A76.025 76.025 0 0 0 172 96a76.025 76.025 0 0 0-76-76z"/><path d="M96 20.001A76 76 0 0 0 27.88 129.61c1.938-2.565 3.779-4.796 5.165-6.123 2.2-2.104 4.568-5.343 5.255-7.182.692-1.836 2.713-5.355 4.485-7.816l3.215-4.47-4.24-5.284c-2.335-2.905-4.452-6.625-4.707-8.25-.428-2.71-.138-3.12 3.478-4.944 2.429-1.224 6.993-1.855 11.867-1.64 6.346.273 9.087-.296 13.793-2.873 10.887-5.965 15.415-7.644 18.262-6.763 1.549.479 3.812.871 5.024.878 2.52.016 17.86-9.59 27.753-17.382 3.673-2.895 7.023-5.131 7.434-4.961 1.483.61 3.986 9.848 3.722 13.738-.147 2.195-1.237 5.866-2.436 8.163-1.69 3.243-1.847 4.181-.688 4.197.82.01 1.77-1.095 2.123-2.436.559-2.138.832-2.189 2.17-.435 1.138 1.481 2.008 1.813 3.38 1.28 2.37-.92 3.61 1.39 3.596 6.698-.015 4.506-3.904 10.192-7.738 11.326-3.825 1.136-10.368 7.664-13.951 13.905-1.872 3.257-4.498 6.994-5.843 8.305-1.559 1.521-3.714 5.807-5.963 11.878-2.904 7.852-3.467 10.692-3.265 16.273.272 7.517-1.766 14.308-5.13 17.105-1.349 1.126-3.652 5.14-5.398 8.864q3.371.32 6.757.34A76.03 76.03 0 0 0 149.74 42.26 76.02 76.02 0 0 0 96 20z"/></svg>