<svg xmlns="http://www.w3.org/2000/svg" width="192" height="192" fill="none" viewBox="0 0 192 192"><path stroke="#000" stroke-linecap="round" stroke-linejoin="round" stroke-width="10" d="M36 129.026c1.855-2.439 3.617-4.56 4.944-5.821 2.106-2 4.372-5.079 5.03-6.827.662-1.746 2.597-5.091 4.293-7.43l3.077-4.25-4.058-5.023c-2.235-2.761-4.262-6.298-4.506-7.842-.41-2.576-.132-2.966 3.33-4.7 2.325-1.164 6.693-1.764 11.358-1.56 6.075.26 8.698-.28 13.203-2.73 10.42-5.67 14.755-7.267 17.48-6.43 1.483.456 3.649.829 4.81.835 2.411.015 17.095-9.116 26.564-16.523 3.516-2.752 6.722-4.878 7.116-4.716 1.419.58 3.815 9.361 3.563 13.06-.141 2.086-1.184 5.575-2.332 7.76-1.618 3.082-1.768 3.974-.659 3.989.785.01 1.695-1.041 2.032-2.316.535-2.032.797-2.08 2.078-.413 1.089 1.407 1.922 1.723 3.235 1.216 2.268-.874 3.455 1.322 3.442 6.368-.014 4.283-3.737 9.688-7.407 10.766-3.661 1.08-9.924 7.286-13.354 13.219-1.792 3.096-4.305 6.648-5.593 7.895-1.492 1.445-3.555 5.52-5.707 11.291-2.78 7.464-3.319 10.164-3.125 15.469.26 7.146-1.691 13.602-4.91 16.261-1.292 1.07-3.497 4.886-5.168 8.426"/><circle cx="96" cy="96" r="74" stroke="#000" stroke-linecap="round" stroke-linejoin="round" stroke-width="12"/></svg>