<svg xmlns="http://www.w3.org/2000/svg" width="192" height="192" fill="none" stroke="#000" stroke-width="12" viewBox="0 0 192 192"><path d="M48.37 129.447c-2.52.318-6.952.92-9.286 1.239-2.193.318-4.387.455-6.581.773-1.587.318-2.054-.318-2.334-1.683-1.867-7.64-3.921-15.145-5.648-22.968C22.934 99.44 22 92.118 22 84.749c0-2.774.467-5.685 1.12-8.414.794-4.139 3.455-7.186 7.236-9.187 5.32-2.911 11.016-4.912 16.804-6.277 8.776-2.137 17.738-4.139 26.7-5.503 8.309-1.364 16.805-2.138 25.3-2.91 8.169-.592 16.338-1.092 24.506-1.092 8.776 0 17.458.59 26.234 1.091 3.127.137 5.648 2.001 7.842 4.275 4.248 4.458 6.582 9.779 8.495 15.6 2.988 9.188 4.248 18.83 3.595 28.472-.327 5.049-1.12 10.097-3.314 14.827-.327.773-.794 1.092-1.728 1.228-4.387.455-14.016 2.07-18.45 2.525m-25.46 3.086c-13.35 1.546-31.816 2.394-45.166 3.758"/><circle cx="61" cy="128.305" r="15"/><circle cx="131" cy="121" r="15"/></svg>