<?xml version="1.0" encoding="UTF-8" standalone="no"?>
<svg
   width="160"
   height="160"
   viewBox="0 0 160 160"
   fill="none"
   version="1.1"
   id="svg33060"
   inkscape:version="1.2.1 (9c6d41e410, 2022-07-14)"
   sodipodi:docname="redbus.svg"
   xmlns:inkscape="http://www.inkscape.org/namespaces/inkscape"
   xmlns:sodipodi="http://sodipodi.sourceforge.net/DTD/sodipodi-0.dtd"
   xmlns="http://www.w3.org/2000/svg"
   xmlns:svg="http://www.w3.org/2000/svg">
  <defs
     id="defs33064" />
  <sodipodi:namedview
     id="namedview33062"
     pagecolor="#ffffff"
     bordercolor="#000000"
     borderopacity="0.25"
     inkscape:showpageshadow="2"
     inkscape:pageopacity="0.0"
     inkscape:pagecheckerboard="0"
     inkscape:deskcolor="#d1d1d1"
     showgrid="false"
     inkscape:zoom="4.0416667"
     inkscape:cx="76.70103"
     inkscape:cy="96.247422"
     inkscape:window-width="1920"
     inkscape:window-height="1009"
     inkscape:window-x="-8"
     inkscape:window-y="-8"
     inkscape:window-maximized="1"
     inkscape:current-layer="svg33060" />
  <path
     class="st1"
     d="m 32.370848,113.44698 c -2.520655,0.31838 -6.952447,0.92035 -9.286387,1.23873 -2.193903,0.31837 -4.387806,0.45481 -6.581709,0.77319 -1.587079,0.31837 -2.053867,-0.31838 -2.33394,-1.68283 C 12.30166,106.13515 10.247793,98.630667 8.5206776,90.807814 6.9335986,83.439779 6.0000226,76.117225 6.0000226,68.74919 c 0,-2.774384 0.466788,-5.685213 1.120291,-8.414115 0.79354,-4.138835 3.4542314,-7.186109 7.2352134,-9.187303 5.321382,-2.910829 11.016195,-4.912024 16.804365,-6.276475 8.775613,-2.13764 17.737941,-4.138835 26.700269,-5.503285 8.308825,-1.364451 16.804365,-2.13764 25.299906,-2.910829 8.168788,-0.591262 16.337577,-1.091561 24.506363,-1.091561 8.77561,0 17.45787,0.591262 26.23348,1.091561 3.12748,0.136445 5.64814,2.001195 7.84204,4.275279 4.24777,4.457207 6.58171,9.778566 8.49554,15.600223 2.98744,9.187304 4.24777,18.829424 3.59426,28.471545 -0.32675,5.048469 -1.12029,10.096937 -3.31419,14.827034 -0.32675,0.773186 -0.79354,1.091556 -1.72711,1.228006 -4.38781,0.45482 -13.55345,1.37517 -17.98794,1.82998 m -25.92301,3.78034 c -13.350131,1.54638 -31.815851,2.39446 -45.165985,3.75891 m 58.549005,9.50567 c 6.76842,0 12.0898,-5.18491 12.0898,-11.64331 -0.97091,-8.425263 -6.99133,-11.533144 -12.7876,-10.95683 -5.73744,0.570465 -11.25526,4.75073 -11.43869,10.95683 0.0467,6.4584 5.36806,11.64331 12.13649,11.64331 z m -59.702177,-6.59484 c 0,-6.27648 -4.24777,-11.64332 -11.156231,-12.09813 -6.58171,-0.45482 -12.556595,4.59365 -12.883347,10.87012 -0.326751,6.73129 4.714558,12.23458 11.482983,12.6894 6.581709,0.5003 12.556595,-4.86655 12.556595,-11.46139 z"
     id="path73409"
     style="fill:none;fill-opacity:1;stroke:#000000;stroke-width:12;stroke-dasharray:none;stroke-opacity:1"
     sodipodi:nodetypes="cccccscccccscccccccccscscsscccs" />
</svg>
