<svg xmlns="http://www.w3.org/2000/svg" width="192" height="192" fill="none" viewBox="0 0 192 192"><path stroke="#000" stroke-linecap="round" stroke-linejoin="round" stroke-width="12" d="M59 62c0-8.837 7.163-16 16-16h66c8.837 0 16 7.163 16 16v92c0 8.837-7.163 16-16 16H65a6 6 0 0 1-6-6z"/><path stroke="#000" stroke-linecap="round" stroke-linejoin="round" stroke-width="10" d="M134 74H82m40 24H82m28 24H82"/><path stroke="#000" stroke-linecap="round" stroke-linejoin="round" stroke-width="12" d="M135 44V28a6 6 0 0 0-6-6H51c-8.837 0-16 7.163-16 16v94c0 8.837 7.163 16 16 16h4"/></svg>