<svg xmlns="http://www.w3.org/2000/svg" width="192" height="192"><g style="stroke:#000;stroke-width:12;stroke-dasharray:none;stroke-opacity:1"><path d="m58.869 133.14-.093 31.33" style="fill:none;stroke:#000;stroke-width:12;stroke-linecap:round;stroke-linejoin:round;stroke-dasharray:none;stroke-opacity:1"/><path d="M133.131 96c0 20.9-16.624 37.14-37.131 37.14H58.869V96c0-20.512 16.624-37.14 37.13-37.14 20.508 0 37.132 16.628 37.132 37.14" style="fill:none;stroke:#000;stroke-width:12;stroke-linecap:round;stroke-linejoin:round;stroke-miterlimit:7.55883;stroke-dasharray:none;stroke-opacity:1;paint-order:stroke fill markers"/><path d="M166.451 94.02c0 38.515-30.616 69.754-70.451 69.754H33.88a6 6 44.535 0 1-5.999-5.902l-1.06-65.275c-.624-38.51 29.51-68.39 68.024-68.39s71.606 31.3 71.606 69.814" style="fill:none;stroke:#000;stroke-width:11.3205;stroke-linecap:round;stroke-linejoin:round;stroke-miterlimit:7.55883;stroke-dasharray:none;stroke-opacity:1;paint-order:stroke fill markers" transform="matrix(1.05989 0 0 1.06016 -6.419 -3.644)"/></g></svg>