<svg xmlns="http://www.w3.org/2000/svg" width="192" height="192" fill="none" viewBox="0 0 192 192"><path stroke="#000" stroke-linecap="round" stroke-linejoin="round" stroke-width="12" d="M43.674 148.326a73.998 73.998 0 0 0 113.855-11.214A74 74 0 0 0 43.674 43.674"/><path stroke="#000" stroke-linecap="round" stroke-width="10" d="M142.214 70.008s5.186 17.114 2.22 35.932C141.555 124.22 124 137 124 137m-1.709-70s4.967 17.552.739 36.503c-3.944 17.682-22.03 30.058-22.03 30.058m66-42.114S151.637 95.793 136.02 95c-14.05-.713-28.221-7.268-28.221-7.268m-2.482 24.551s15.987 5.727 27.096 5.876c15.096.201 31.322-3.251 31.322-3.251"/><path stroke="#000" stroke-linecap="round" stroke-linejoin="round" stroke-width="12" d="M22 104.438C22 87.231 45 66 45 66s23 21.23 23 38.438c0 5.718-2.423 11.203-6.736 15.246C56.95 123.728 51.1 126 45 126s-11.95-2.272-16.264-6.316C24.424 115.641 22 110.156 22 104.438"/></svg>