<svg xmlns="http://www.w3.org/2000/svg" width="192" height="192" fill="none"><circle cx="136" cy="69" r="4" stroke="#000" stroke-linecap="round" stroke-linejoin="round" stroke-width="8"/><circle cx="112" cy="69" r="4" stroke="#000" stroke-linecap="round" stroke-linejoin="round" stroke-width="8"/><circle cx="112" cy="93" r="4" stroke="#000" stroke-linecap="round" stroke-linejoin="round" stroke-width="8"/><circle cx="80" cy="125" r="17" stroke="#000" stroke-linecap="round" stroke-linejoin="round" stroke-width="12"/><circle cx="136" cy="93" r="4" stroke="#000" stroke-linecap="round" stroke-linejoin="round" stroke-width="8"/><path stroke="#000" stroke-linecap="round" stroke-linejoin="round" stroke-width="12" d="M167.241 62.498a36.2 36.2 0 0 0-7.857-11.758l-26.391-26.928a6.04 6.04 0 0 0-8.586-.043L23.769 124.407a6.04 6.04 0 0 0 .043 8.586l26.928 26.391a36.245 36.245 0 0 0 51.257 0l57.387-57.387A36.23 36.23 0 0 0 170 76.368c0-4.76-.937-9.472-2.759-13.87"/></svg>