<svg xmlns="http://www.w3.org/2000/svg" width="192" height="192" fill="none" stroke="#000" stroke-linecap="round" stroke-linejoin="round" stroke-width="8" viewBox="0 0 192 192"><circle cx="137" cy="68" r="4"/><circle cx="115" cy="68" r="4"/><circle cx="115" cy="90" r="4"/><circle cx="81" cy="124" r="14" stroke-width="10"/><circle cx="137" cy="90" r="4"/><path stroke-width="12" d="M167.26 60.223a36 36 0 0 0-7.804-11.679l-24.214-24.74a6 6 0 0 0-8.53-.045L23.758 126.712a6 6 0 0 0 .046 8.53l24.74 24.214a36 36 0 0 0 50.912 0l60-60A36 36 0 0 0 170 74c0-4.728-.931-9.409-2.74-13.777"/></svg>