<?xml version="1.0" standalone="no"?>
<!DOCTYPE svg PUBLIC "-//W3C//DTD SVG 20010904//EN"
 "http://www.w3.org/TR/2001/REC-SVG-20010904/DTD/svg10.dtd">
<svg version="1.0" xmlns="http://www.w3.org/2000/svg"
 width="192.000000pt" height="192.000000pt" viewBox="0 0 192.000000 192.000000"
 preserveAspectRatio="xMidYMid meet">

<g transform="translate(0.000000,192.000000) scale(0.100000,-0.100000)"
fill="#000000" stroke="none">
<path d="M890 1644 c-99 -27 -198 -99 -252 -184 l-28 -44 -63 -1 c-136 -2
-219 -90 -218 -232 0 -35 -3 -63 -8 -63 -16 0 -84 -77 -109 -125 -23 -43 -27
-62 -26 -135 0 -72 4 -93 27 -137 55 -106 149 -168 271 -180 l66 -6 0 -117 c0
-105 2 -119 20 -135 16 -14 26 -17 45 -9 35 13 265 292 265 321 0 13 -11 29
-25 39 -23 15 -27 15 -49 0 -13 -8 -51 -47 -83 -86 l-58 -71 -5 71 c-6 93 -16
100 -127 100 -53 0 -97 6 -121 15 -149 63 -172 271 -39 365 76 55 80 59 73 88
-21 85 -19 117 9 150 32 38 80 53 132 41 73 -17 80 -14 112 49 53 103 123 160
229 187 152 39 308 -40 378 -189 13 -28 24 -62 24 -76 0 -14 5 -41 10 -60 9
-34 14 -37 82 -57 87 -26 133 -62 173 -134 24 -44 29 -66 29 -119 -1 -36 -8
-81 -16 -101 -24 -55 -78 -110 -133 -135 -47 -22 -62 -24 -235 -24 -152 0
-190 -3 -208 -16 -30 -21 -29 -59 3 -80 21 -14 52 -16 217 -12 185 3 195 5
251 31 78 36 129 77 165 135 97 151 75 341 -54 462 -52 50 -122 89 -156 90
-11 0 -20 11 -24 28 -24 110 -85 217 -153 271 -114 91 -255 121 -391 85z"/>
</g>
</svg>
