<svg xmlns="http://www.w3.org/2000/svg" width="192" height="192" viewBox="0 0 192 192"><path fill="none" stroke="#000" stroke-width="12" d="M136.9 65.4c0 13.9-11.3 25.2-25.2 25.2S86.5 79.4 86.5 65.4s11.3-25.2 25.2-25.2 25.2 11.3 25.2 25.2zm20.7 55c-.1-.1-.2-.1-.2-.2-10.7-8.3-21.5-8.1-25.8-8.2-5 0-11.7.5-19.5-.4-4.1-.4-12.8-1.3-21.5-4.6-5.6-2.1-21.1-8.8-32.4-25.5C50.3 69.9 47.7 58 47 49.3c-.5-6.5-5.9-11.5-12.5-11.5-7.2 0-12.9 6.1-12.4 13.2.6 9.7 3 22.5 10 35.9 8.2 15.8 19.3 25.8 26.6 31.2 2 1.5 3.2 3.8 3.2 6.3v21.8c0 4.3 3.5 7.9 7.9 7.9h92.8a7.6 7.6 0 0 0 7.6-7.6v-.2c-.2-10-4.7-19.6-12.6-25.9z"/></svg>