<svg xmlns="http://www.w3.org/2000/svg" width="192" height="192" fill="none" stroke="#000" stroke-linecap="round" stroke-linejoin="round" stroke-width="12" viewBox="0 0 192 192"><path d="M29 74s20-33 67-33 67 33 67 33M51 32s19-10 45-10 45 10 45 10m-84 83s-3 27 22 52m-1.888-51C78 162 119 170 119 170m-22-52s1 38 46 36"/><path d="M41 145c-16-44 11-85 52-85 62 0 64 56 64 56"/><path d="M117 116a20 20 0 0 0 40 0m-40 0c0-4.774-2.107-9.352-5.858-12.728S102.304 98 97 98s-10.391 1.896-14.142 5.272S77 111.226 77 116"/><path d="M137 115c0-9.548-4.214-18.704-11.716-25.456S107.609 79 97 79s-20.783 3.793-28.284 10.544C61.214 96.296 57 105.452 57 115"/></svg>