<svg width="192" height="192" viewBox="0 0 192 192" fill="none" xmlns="http://www.w3.org/2000/svg"><path d="M77 129.5a6 6 0 0 1 6-6h7a6 6 0 0 0 6-6V114l14-6 7.5 6 9.5-5 8.308 3.462A5.998 5.998 0 0 1 139 118v30s0 22-31 22-31-22-31-22v-18.5ZM96 71v43m46.364-31.577a47.995 47.995 0 0 0-12.423-46.364 47.999 47.999 0 1 0-67.882 67.882" stroke="#000" stroke-width="12" stroke-linecap="round" stroke-linejoin="round"/><path d="M118.216 75.953a23.005 23.005 0 0 0-3.969-19.955 23.003 23.003 0 0 0-28.42-6.626 23 23 0 0 0-12.043 26.58" stroke="#000" stroke-width="12" stroke-linecap="round" stroke-linejoin="round"/></svg>