<svg xmlns="http://www.w3.org/2000/svg" width="192" height="192" fill="none"><path stroke="#000" stroke-linecap="round" stroke-linejoin="round" stroke-width="12" d="M134.184 62.059c-5.015-4.457-10.968-7.993-17.519-10.405C110.113 49.242 103.091 48 96 48s-14.113 1.242-20.665 3.654-12.504 5.948-17.519 10.405m58.69 17.556c-2.693-2.414-5.89-4.33-9.408-5.636A31.9 31.9 0 0 0 96 72c-3.808 0-7.58.672-11.098 1.98-3.518 1.306-6.715 3.22-9.408 5.635"/><path stroke="#000" stroke-linecap="round" stroke-linejoin="round" stroke-width="12" d="M53 102H31a6 6 0 0 1-6-6V28a6 6 0 0 1 6-6h130a6 6 0 0 1 6 6v68a6 6 0 0 1-6 6h-22m-30 0H83a6 6 0 0 0-6 6v56a6 6 0 0 0 6 6h26a6 6 0 0 0 6-6v-56a6 6 0 0 0-6-6"/></svg>