<svg xmlns="http://www.w3.org/2000/svg" width="192" height="192" fill="none"><path stroke="#000" stroke-linecap="round" stroke-linejoin="round" stroke-width="12" d="M112 22h58l-29 46zm-11.87 103.393a43.4 43.4 0 0 0-10.85-18.102C76.334 94.571 22 66 22 66v97.143A6.857 6.857 0 0 0 28.857 170h56.74c1.502 0 2.962-.551 4.013-1.624a43.44 43.44 0 0 0 10.52-42.983m24.945 18.872a25.1 25.1 0 0 1 6.239-10.443C138.758 126.484 170 110 170 110v56.044a3.95 3.95 0 0 1-3.943 3.956H134.43c-1.505 0-2.979-.545-3.987-1.664a25.1 25.1 0 0 1-5.963-11.91 25.14 25.14 0 0 1 .595-12.161M81 170l-34-60"/><path stroke="#000" stroke-linecap="round" stroke-linejoin="round" stroke-width="10" d="m137 170 13-23"/></svg>