<svg xmlns="http://www.w3.org/2000/svg" width="192" height="192" fill="none"><path stroke="#000" stroke-linecap="round" stroke-linejoin="round" stroke-width="12" d="M71 57a6 6 0 0 1 6-6h26c6.627 0 12 5.373 12 12v20a6 6 0 0 1-6 6H83c-6.627 0-12-5.373-12-12zm16 61 33.217 49.35a6 6 0 0 0 4.977 2.65H170l-40-52"/><path stroke="#000" stroke-linecap="round" stroke-linejoin="round" stroke-width="12" d="M66 22h72c13.255 0 24 10.745 24 24v48c0 13.255-10.745 24-24 24h-8"/><path stroke="#000" stroke-linecap="round" stroke-linejoin="round" stroke-width="12" d="M71 22H30a6 6 0 0 0-6 6v136a6 6 0 0 0 6 6h35a6 6 0 0 0 6-6v-40a6 6 0 0 1 6-6h10"/></svg>