<?xml version="1.0" encoding="utf-8"?>
	<svg version="1.1" xmlns="http://www.w3.org/2000/svg" xmlns:xlink="http://www.w3.org/1999/xlink" x="0px" y="0px" width="240.0" height="240.0" xml:space="preserve">
		<path d="M218.932,60.424C220.995,69.436 219.91,78.627 217.042,87.497C210.347,102.589 199.636,113.272 183.539,118.069C183.133,118.19 182.824,118.632 181.539,119.693C192.916,119.693 203.251,119.919 213.568,119.589C218.098,119.444 219.214,120.845 218.879,125.244C214.672,180.462 170.693,220.367 115.382,218.991C67.478,217.799 25.822,179.121 20.642,131.474C17.913,106.376 23.94,83.686 37.668,62.781L46.048,52.814C64.522,33.09 87.265,22.494 114.198,20.622C118.217,20.343 119.706,21.28 119.562,25.662C119.218,36.133 119.451,46.623 119.451,57.821C121.45,56.181 121.488,54.538 122.006,53.142C128.001,36.986 139.013,25.357 155.787,21.643C185.301,15.107 211.535,28.081 218.932,60.424ZM114.846,70.413C102.263,71.702 91.732,76.939 83.262,86.329C71.605,98.626 67.797,113.251 70.752,129.7C74.991,153.307 97.658,171.207 121.377,169.893C146.831,168.483 167.575,148.405 169.112,123.81C169.276,121.177 168.669,120.099 165.829,119.817L158.497,115.288C156.382,115.304 154.211,115.12 151.993,114.729C149.902,114.361 147.846,114.064 145.742,113.98C136.759,110.181 130.525,103.481 125.858,95.128L125.857,95.127L123.97,91.218C123.341,89.914 122.712,88.61 122.082,87.306C121.654,82.965 119.044,79.059 119.63,74.491C120.097,70.842 118.136,70.076 114.846,70.413Z" fill="#000" stroke="#00000000" stroke-width="1.0" stroke-miterlimit=""/>
		<path d="M168,68m-52,0a52,52 0,1 1,104 0a52,52 0,1 1,-104 0" fill="#000" stroke="#00000000" stroke-width="1.0" stroke-miterlimit=""/>
	</svg>
