<svg xmlns="http://www.w3.org/2000/svg" width="192" height="192" fill="none"><path stroke="#000" stroke-linecap="round" stroke-linejoin="round" stroke-width="12" d="m101.81 31.65 63.349 39.139A10.21 10.21 0 0 1 170 79.467V148.9a9.1 9.1 0 0 1-2.668 6.434 9.1 9.1 0 0 1-6.44 2.665H31.108a9.1 9.1 0 0 1-6.44-2.665A9.1 9.1 0 0 1 22 148.901V79.467a10.2 10.2 0 0 1 4.841-8.678l63.35-39.14a11.05 11.05 0 0 1 11.619 0Z"/><path stroke="#000" stroke-linecap="round" stroke-linejoin="round" stroke-width="12" d="M54 85h26.205a6 6 0 0 1 6 6v9.178l-7.01 9.744H59.59c-1.743 2.165-4.375 3.983-5.589 6.356V128a6 6 0 0 0 6 6h26.205m47.673 0V85h-9.122l-19.383 28.488v6.838H143"/></svg>