<?xml version="1.0" encoding="UTF-8" standalone="no"?>
<!-- Created with Inkscape (http://www.inkscape.org/) -->

<svg
   width="192"
   height="192"
   viewBox="0 0 192 192"
   version="1.1"
   xml:space="preserve"
   xmlns="http://www.w3.org/2000/svg"
   xmlns:svg="http://www.w3.org/2000/svg">
 <path
   style="fill:none;stroke:#000;stroke-width:12;stroke-linecap:round;stroke-linejoin:round"
   d="M 101.80956,31.50695 165.15869,70.733883 A 10.213193,10.226201 0 0 1 170,79.431266 V 149.02165 A 9.1076919,9.1192917 0 0 1 160.8923,158.14095 H 31.107691 A 9.1076919,9.1192917 0 0 1 22,149.02165 V 79.431266 A 10.213193,10.226201 0 0 1 26.841306,70.733883 L 90.190429,31.50695 A 11.045327,11.059396 0 0 1 101.80956,31.50695 Z
   M 52.065951,86.084024 H 84.222922 V 101.27237 C 81.889966,104.52257 79.557011,107.77276 77.224052,111.02294 H 57.646131 C 55.906365,113.19025 53.278116,115.00955 52.065951,117.38352 V 135.11803 H 84.222922
   M 130.82593,135.11803 V 86.084024 H 121.71781 L 102.36307,114.59217 V 121.43412 H 139.93405" />
</svg>
