<svg width="192" height="192" viewBox="0 0 192 192" fill="none" xmlns="http://www.w3.org/2000/svg"><path d="M96 146a23.998 23.998 0 0 0 24 24c4.213 0 8.352-1.109 12-3.215M96 88v58m0-124v12m53.096 21.674a73.921 73.921 0 0 1 16.277 24.006A73.11 73.11 0 0 1 170 95.44c-3.627-1.817-15.557-7.441-24.279-7.441-10.401 0-14.967 8.123-25.368 8-10.024-.12-14.328-8-24.353-8-10.025 0-14.329 7.88-24.353 8-10.401.123-14.967-8-25.368-8-8.722 0-20.652 5.624-24.279 7.44a73.18 73.18 0 0 1 4.627-15.759 73.938 73.938 0 0 1 16.277-24.006 75.173 75.173 0 0 1 24.36-16.041A76.05 76.05 0 0 1 96 34a76.047 76.047 0 0 1 28.735 5.633 75.17 75.17 0 0 1 24.361 16.04Z" stroke="#000" stroke-width="12" stroke-linecap="round" stroke-linejoin="round"/></svg>