<?xml version="1.0" encoding="UTF-8" standalone="no"?>
<svg
   width="24"
   height="24"
   viewBox="0 0 24 24"
   fill="none"
   version="1.1"
   id="svg6"
   sodipodi:docname="repainter.svg"
   inkscape:version="1.1.1 (3bf5ae0d25, 2021-09-20, custom)"
   xmlns:inkscape="http://www.inkscape.org/namespaces/inkscape"
   xmlns:sodipodi="http://sodipodi.sourceforge.net/DTD/sodipodi-0.dtd"
   xmlns="http://www.w3.org/2000/svg"
   xmlns:svg="http://www.w3.org/2000/svg">
  <defs
     id="defs10" />
  <sodipodi:namedview
     id="namedview8"
     pagecolor="#ffffff"
     bordercolor="#666666"
     borderopacity="1.0"
     inkscape:pageshadow="2"
     inkscape:pageopacity="0.0"
     inkscape:pagecheckerboard="0"
     showgrid="false"
     inkscape:zoom="12.825085"
     inkscape:cx="-3.6257071"
     inkscape:cy="17.777661"
     inkscape:window-width="1920"
     inkscape:window-height="1008"
     inkscape:window-x="0"
     inkscape:window-y="0"
     inkscape:window-maximized="1"
     inkscape:current-layer="svg6"
     fit-margin-top="2"
     fit-margin-left="2"
     fit-margin-right="2"
     fit-margin-bottom="2" />
  <g
     id="g306">
    <path
       d="m 12.499782,1.9999998 v 3.2515394 c 0,0.4142197 0.3358,0.7500005 0.750001,0.7500005 0.414197,0 0.749998,-0.3357808 0.749998,-0.7500005 V 1.9999998 h 1 V 6.251119 c 0,0.4142198 0.3358,0.7500004 0.749998,0.7500004 0.414202,0 0.750001,-0.3357806 0.750001,-0.7500004 V 1.9999998 h 1.7502 c 0.414301,0 0.749998,0.3357899 0.749998,0.75 V 10.999999 H 5.0000215 V 2.7499998 c 0,-0.4142101 0.33579,-0.75 0.7499997,-0.75 z"
       fill="#000000"
       id="path2"
       style="stroke-width:0.999999" />
    <path
       d="m 5.0000215,12.499998 v 1.752101 c 0,1.242599 1.0073597,2.249998 2.2499997,2.249998 h 2.7496679 v 3.497899 C 9.9996891,21.104599 10.895081,22 11.999681,22 c 1.104599,0 2,-0.895401 2,-2.000004 v -3.497899 h 2.750299 c 1.242702,0 2.249998,-1.007399 2.249998,-2.249998 v -1.752101 z"
       fill="#000000"
       id="path4"
       style="stroke-width:0.999999" />
  </g>
</svg>
