<svg width="192" height="192" viewBox="0 0 192 192" fill="none" xmlns="http://www.w3.org/2000/svg"><path d="M92 46c2.122 0 4.157 1.475 5.657 4.1 1.5 2.626 2.343 6.187 2.343 9.9s-.843 7.274-2.343 9.9C96.157 72.525 94.122 74 92 74V46Z" stroke="#000" stroke-width="10" stroke-linecap="round" stroke-linejoin="round"/><path d="M59 155.797V27.081A6.08 6.08 0 0 1 65.079 21h39.513c8.061 0 15.792 4.378 21.492 12.17 5.701 7.794 8.903 18.363 8.903 29.384 0 11.02-3.202 21.59-8.903 29.383a35.648 35.648 0 0 1-3.414 4.022l12.795 55.266a15.711 15.711 0 0 1-11.104 19.24 15.706 15.706 0 0 1-16.524-5.611 15.726 15.726 0 0 1-2.71-5.498L90.407 96v59.797m0-.506A15.71 15.71 0 0 1 74.705 171a15.69 15.69 0 0 1-11.104-4.601 15.713 15.713 0 0 1-4.6-11.108" stroke="#000" stroke-width="10" stroke-linecap="round" stroke-linejoin="round"/></svg>