<svg xmlns="http://www.w3.org/2000/svg" width="192" height="192" fill="none"><circle cx="96" cy="96" r="14" stroke="#000" stroke-linecap="round" stroke-linejoin="round" stroke-width="12"/><path stroke="#000" stroke-linecap="round" stroke-linejoin="round" stroke-width="12" d="M96 60c-19.882 0-36 16.118-36 36 0 13.501 7.432 25.266 18.428 31.428 2.104 1.178 3.572 3.316 3.572 5.727V161a6 6 0 0 1-6 6H31a6 6 0 0 1-6-6V31a6 6 0 0 1 6-6h130a6 6 0 0 1 6 6v130a6 6 0 0 1-6 6h-45a6 6 0 0 1-6-6v-27.845c0-2.411 1.468-4.549 3.572-5.727C124.568 121.266 132 109.501 132 96c0-19.882-16.118-36-36-36"/></svg>