<svg xmlns="http://www.w3.org/2000/svg" width="192" height="192" fill="none"><path stroke="#000" stroke-linecap="round" stroke-linejoin="round" stroke-width="10" d="M84 113V83a6 6 0 0 1 6-6h11.419c2.541 0 4.978 1.043 6.775 2.9s2.806 4.374 2.806 7-1.009 5.144-2.806 7c-1.797 1.857-4.234 2.9-6.775 2.9m0 0C107.516 100.4 111 113 111 113m-9.581-16.2H84"/><circle cx="96" cy="96" r="44" stroke="#000" stroke-linecap="round" stroke-linejoin="round" stroke-width="12"/><path stroke="#000" stroke-linecap="round" stroke-linejoin="round" stroke-width="12" d="M22 74h32M28 96h22m-10 22h16m80 0h16m-10-22h22m-26-22h32"/></svg>