<svg width="192" height="192" fill="none" xmlns="http://www.w3.org/2000/svg"><path d="M167 170V28a6 6 0 0 0-6-6H31a6 6 0 0 0-6 6v142" stroke="#000" stroke-width="12" stroke-linecap="round" stroke-linejoin="round"/><circle cx="65" cy="62" r="16" stroke="#000" stroke-width="12" stroke-linecap="round" stroke-linejoin="round"/><path d="M77 90a12 12 0 0 0-24 0m50-43h40m-94 94h32m-26 29h20a6 6 0 0 0 6-6v-46a6 6 0 0 0-6-6H55a6 6 0 0 0-6 6v46a6 6 0 0 0 6 6Zm48-93h40m-40 62h40m-40-31h40m-40 62h40" stroke="#000" stroke-width="12" stroke-linecap="round" stroke-linejoin="round"/></svg>