<svg xmlns="http://www.w3.org/2000/svg" viewBox="0 0 192 192">
    <defs>
        <style>
            .a {
            fill: none;
            }

            .a,
            .c {
            stroke: #000;
            stroke-miterlimit: 10;
            stroke-width: 11.6912px;
            }

            .b {
            opacity: 0.19;
            }

            .c {
            fill-opacity: 0.2;
            }
        </style>
    </defs>
    <path class="a"
        d="M152.7031,84.4007,63.22,32.7361A13.3746,13.3746,0,0,0,43.1564,44.3294V147.6546a13.3866,13.3866,0,0,0,20.08,11.5932l89.467-51.6646A13.381,13.381,0,0,0,152.7031,84.4007Z" />
    <path class="b"
        d="M101.8374,92.0121h0A26.6517,26.6517,0,0,0,75.2666,65.28h-20.92L84.1472,117.2A26.7226,26.7226,0,0,0,101.8374,92.0121Z" />
    <path class="c"
        d="M43.1564,118.8438v28.8268a13.3866,13.3866,0,0,0,20.08,11.5933l35.3891-20.4446-2.5535-4.4457L86.1661,117.2a28.38,28.38,0,0,1-9.5047,1.6436Z" />
    <path class="a"
        d="M43.4123,66.9264H75.8775a25.96,25.96,0,0,1,25.96,25.96v0a25.96,25.96,0,0,1-25.96,25.96H43.4123a0,0,0,0,1,0,0v-51.92A0,0,0,0,1,43.4123,66.9264Z" />
</svg>