<?xml version="1.0" encoding="utf-8"?>
	<svg version="1.1" xmlns="http://www.w3.org/2000/svg" xmlns:xlink="http://www.w3.org/1999/xlink" x="0px" y="0px" width="240.0" height="240.0" xml:space="preserve">
		<path d="M61.831,22.786L199.334,102.176C213.052,110.092 213.052,129.884 199.334,137.799L116.231,185.789L112.312,178.967L97.104,152.6C97.107,152.598 97.111,152.597 97.115,152.596L97.102,152.573C105.613,149.552 112.98,143.971 118.192,136.595C123.406,129.215 126.207,120.402 126.209,111.367C126.209,105.623 125.078,99.936 122.88,94.63C120.682,89.324 117.46,84.502 113.399,80.441C109.338,76.38 104.516,73.158 99.21,70.96C93.904,68.762 88.216,67.631 82.473,67.631H48.051H48.039H31V40.601C31,24.763 48.119,14.87 61.831,22.786ZM87.449,148.471C85.816,148.687 84.168,148.796 82.515,148.795H37.308V73.939H44.409L87.449,148.471Z" fill="#000" stroke="" stroke-width="" stroke-miterlimit=""/>
		<path d="M31,155.103V199.399C31,215.237 48.143,225.13 61.855,217.214L116.236,185.798L112.312,178.967L97.091,152.577C92.402,154.246 87.462,155.101 82.485,155.103H31Z" fill="#000" stroke="" stroke-width="" stroke-miterlimit=""/>
	</svg>
