<svg width="183" height="183" viewBox="0 0 183 183" fill="none" xmlns="http://www.w3.org/2000/svg">
<path d="M47.6562 57.1875V161.078" stroke="black" stroke-width="14" stroke-linecap="round"/>
<path d="M47.6562 21.9219H114.375C113.422 65.2891 149.164 47.1797 149.164 54.8047C149.164 62.4297 128.986 88.6406 110.562 88.6406H87.6875L138.203 161.078" stroke="black" stroke-width="14" stroke-linecap="round" stroke-linejoin="round"/>
<path d="M143.625 19.2988V31.9453C143.625 36.1445 140.109 39.6113 135.812 39.6113C131.467 39.6113 128 36.1445 128 31.9453V30.1875C128 29.3574 128.684 28.625 129.562 28.625C130.393 28.625 131.125 29.3574 131.125 30.1875V31.9453C131.125 34.4355 133.225 36.4863 135.812 36.4863C138.352 36.4863 140.5 34.4355 140.5 31.9453V19.2988C140.5 18.4199 141.184 17.7363 142.062 17.7363C142.893 17.7363 143.625 18.4199 143.625 19.2988ZM156.008 31.2617L160.207 37.1211C160.695 37.8047 160.5 38.7812 159.816 39.3184C159.523 39.5137 159.23 39.6113 158.938 39.6113C158.449 39.6113 157.961 39.3672 157.619 38.9277L152.541 31.75H148V38C148 38.8789 147.268 39.5625 146.438 39.5625C145.559 39.5625 144.875 38.8789 144.875 38V19.25C144.875 18.4199 145.559 17.6875 146.438 17.6875H153.469C157.326 17.6875 160.5 20.8613 160.5 24.7188C160.5 27.6973 158.645 30.2363 156.008 31.2617ZM148 20.8613V28.625H153.469C155.617 28.625 157.375 26.916 157.375 24.7676C157.375 22.5703 155.617 20.8613 153.469 20.8613H148Z" fill="black"/>
</svg>
