<svg width="24" height="24" viewBox="0 0 6.35 6.35" xmlns="http://www.w3.org/2000/svg" xmlns:xlink="http://www.w3.org/1999/xlink"><defs><clipPath id="b"><use width="100%" height="100%" xlink:href="#a"/></clipPath></defs><g transform="translate(19.145 35.278) scale(6.1353)" clip-path="url(#b)"><g id="a" fill-rule="evenodd" stroke-width=".037"><path d="m-2.624-5.481-.034.236c.041 0 .135.016.156-.119.017-.111-.06-.122-.122-.117z"/><path d="M-2.265-4.94a.08.08 0 0 1-.034.099.276.276 0 0 1-.063.025.532.532 0 0 1-.11.015.18.18 0 0 1-.146-.076.125.125 0 0 1-.073.057c-.027.008-.059.019-.126.019a.137.137 0 0 1-.113-.05.146.146 0 0 1-.027-.114v-.002c.023-.114.054-.32.068-.424v-.001c.004-.029.008-.058.01-.087a.637.637 0 0 0 .003-.043l-.001-.042c0-.013.002-.026.008-.038a.086.086 0 0 1 .047-.04.321.321 0 0 1 .065-.012 1.739 1.739 0 0 1 .068-.007 1.144 1.144 0 0 1 .082-.003c.048 0 .095.001.141.01.048.01.095.029.133.062.025.022.046.05.06.081a.263.263 0 0 1 .023.078.325.325 0 0 1-.005.118.259.259 0 0 1-.034.08.33.33 0 0 1-.07.076c.018.051.064.152.094.218zm-.529-.619a.563.563 0 0 1-.004.116l-.007.058-.001.006-.026.18c-.01.064-.02.127-.032.19-.004.029-.016.067 0 .094.013.025.048.029.073.026.089-.01.103-.029.103-.029-.018-.02-.003-.109.015-.23h.063l.067.2s.02.063.073.06c.07-.004.12-.02.128-.029-.021-.012-.082-.165-.116-.277a.42.42 0 0 0 .047-.032.25.25 0 0 0 .053-.058.17.17 0 0 0 .027-.082.233.233 0 0 0-.015-.105.16.16 0 0 0-.061-.07.324.324 0 0 0-.15-.034.95.95 0 0 0-.168.005c-.006 0-.07.006-.069.011z"/></g></g></svg>