<?xml version="1.0" encoding="UTF-8" standalone="no"?>
<svg
   version="1.0"
   width="192"
   height="192"
   viewBox="0 0 144 144"
   preserveAspectRatio="xMidYMid"
   id="svg1493"
   sodipodi:docname="rhvoice.svg"
   inkscape:version="1.3 (0e150ed6c4, 2023-07-21)"
   xml:space="preserve"
   xmlns:inkscape="http://www.inkscape.org/namespaces/inkscape"
   xmlns:sodipodi="http://sodipodi.sourceforge.net/DTD/sodipodi-0.dtd"
   xmlns="http://www.w3.org/2000/svg"
   xmlns:svg="http://www.w3.org/2000/svg"><defs
     id="defs1497"><rect
       x="19.617226"
       y="115.69065"
       width="160.87307"
       height="54.818879"
       id="rect4" /><rect
       x="12.224007"
       y="114.804"
       width="164.30886"
       height="49.175324"
       id="rect3" /><rect
       x="17.152327"
       y="114.85793"
       width="196.76706"
       height="53.874592"
       id="rect2" /><rect
       x="36.222783"
       y="88.470364"
       width="122.69226"
       height="27.982809"
       id="rect1" /></defs><sodipodi:namedview
     id="namedview1495"
     pagecolor="#ffffff"
     bordercolor="#000000"
     borderopacity="0.25"
     inkscape:showpageshadow="2"
     inkscape:pageopacity="0.0"
     inkscape:pagecheckerboard="0"
     inkscape:deskcolor="#d1d1d1"
     inkscape:document-units="pt"
     showgrid="false"
     inkscape:zoom="2.643364"
     inkscape:cx="134.29857"
     inkscape:cy="129.94805"
     inkscape:window-width="1920"
     inkscape:window-height="1011"
     inkscape:window-x="0"
     inkscape:window-y="0"
     inkscape:window-maximized="1"
     inkscape:current-layer="svg1493" /><text
     xml:space="preserve"
     transform="scale(0.75)"
     id="text1"
     style="fill:#000000;-inkscape-font-specification:Tinos;font-family:Tinos;stroke-width:5.488;stroke:none;letter-spacing:3.25px;paint-order:stroke markers fill;stroke-linejoin:round;stroke-linecap:round;font-size:37.33333333px;white-space:pre;shape-inside:url(#rect3)" /><path
     d="m 20.288604,73.054931 v 7.19336 l 2.874512,0.382324 v 0.750488 h -7.858887 v -0.750488 l 2.251465,-0.382324 V 63.510987 l -2.435547,-0.368164 v -0.750488 h 8.198731 q 3.568359,0 5.267578,1.203613 1.699219,1.203613 1.699219,3.865723 0,1.897461 -1.033692,3.285156 -1.033691,1.373535 -2.860351,1.911621 l 5.140136,7.589844 2.053223,0.382324 v 0.750488 h -4.54541 l -5.338379,-8.326172 z m 7.179199,-5.395019 q 0,-2.166504 -1.062011,-3.072754 -1.047852,-0.92041 -3.695801,-0.92041 h -2.421387 v 8.113769 h 2.506348 q 2.534668,0 3.59668,-0.93457 1.076171,-0.94873 1.076171,-3.186035 z m 8.630118,13.721191 v -0.750488 l 2.435547,-0.382324 V 63.510987 l -2.435547,-0.368164 v -0.750488 h 7.604004 v 0.750488 l -2.435547,0.368164 v 7.462401 h 8.935058 V 63.510987 L 47.76589,63.142822 v -0.750488 h 7.589843 v 0.750488 l -2.435547,0.368164 v 16.737305 l 2.435547,0.382324 v 0.750488 H 47.76589 v -0.750488 l 2.435546,-0.382324 v -8.000489 h -8.935058 v 8.000489 l 2.435547,0.382324 v 0.750488 z M 78.45753,62.392335 v 0.750488 l -2.081543,0.368164 -7.632324,18.309082 H 68.021495 L 60.30421,63.510987 58.166027,63.142822 v -0.750488 h 7.674804 v 0.750488 L 63.292003,63.510986 69.041027,77.48706 74.77589,63.510986 72.283702,63.142822 V 62.392334 Z M 90.075439,74.65503 q 0,7.009277 -6.230469,7.009277 -3.001953,0 -4.53125,-1.798339 -1.529297,-1.79834 -1.529297,-5.210938 0,-3.370117 1.529297,-5.154297 1.529297,-1.78418 4.644531,-1.78418 3.030274,0 4.573731,1.75586 1.543457,1.741699 1.543457,5.182617 z m -2.548828,0 q 0,-3.058594 -0.89209,-4.432129 -0.89209,-1.373535 -2.789551,-1.373535 -1.85498,0 -2.69043,1.316894 -0.821289,1.316895 -0.821289,4.48877 0,3.214355 0.83545,4.55957 0.849609,1.331055 2.676269,1.331055 1.869141,0 2.775391,-1.387695 0.90625,-1.387696 0.90625,-4.50293 z M 98.181632,63.723388 q 0,0.623047 -0.453125,1.076172 -0.453125,0.453125 -1.090332,0.453125 -0.623046,0 -1.076171,-0.453125 -0.453125,-0.453125 -0.453125,-1.076172 0,-0.637207 0.453125,-1.090332 0.453125,-0.453125 1.076171,-0.453125 0.637207,0 1.090332,0.453125 0.453125,0.453125 0.453125,1.090332 z m -0.141601,16.666505 2.279779,0.354004 v 0.637207 h -6.89599 v -0.637207 l 2.265625,-0.354004 V 69.061768 l -1.883301,-0.354005 v -0.637207 h 4.233887 z m 16.446519,0.184082 q -0.69384,0.509766 -1.91162,0.807129 -1.21777,0.283203 -2.49219,0.283203 -6.47119,0 -6.47119,-7.037597 0,-3.327637 1.64258,-5.111817 1.65674,-1.79834 4.72949,-1.79834 1.91162,0 4.17725,0.438965 v 3.70996 h -0.77881 l -0.60889,-2.350585 q -1.17529,-0.665527 -2.81787,-0.665527 -3.79492,0 -3.79492,5.777344 0,3.001953 1.14697,4.290527 1.16114,1.274413 3.58252,1.274413 2.06739,0 3.59668,-0.467285 z m 6.20873,-5.890625 v 0.254883 q 0,1.954102 0.4248,3.044434 0.43897,1.076172 1.33106,1.642578 0.90625,0.566406 2.36474,0.566406 0.76465,0 1.8125,-0.127441 1.04786,-0.127442 1.72754,-0.283203 v 0.792968 q -0.67968,0.438965 -1.85498,0.764649 -1.16113,0.325683 -2.3789,0.325683 -3.10108,0 -4.54541,-1.670898 -1.43018,-1.670899 -1.43018,-5.366699 0,-3.483399 1.4585,-5.196778 1.45849,-1.713379 4.16308,-1.713379 5.11182,0 5.11182,5.805665 v 1.161132 z m 3.07275,-5.833984 q -1.47265,0 -2.26562,1.189453 -0.77881,1.189453 -0.77881,3.511719 h 5.69238 q 0,-2.534668 -0.65137,-3.61084 -0.65136,-1.090332 -1.99658,-1.090332 z"
     id="text4"
     style="font-size:29px;font-family:Tinos;-inkscape-font-specification:Tinos;letter-spacing:1.635px;stroke-width:2;stroke-linecap:round;stroke-linejoin:round;paint-order:stroke markers fill"
     aria-label="RHVoice" /></svg>
