<?xml version="1.0" encoding="utf-8"?>
<!-- Generator: Adobe Illustrator 25.4.1, SVG Export Plug-In . SVG Version: 6.00 Build 0)  -->
<svg version="1.1" id="Layer_1" xmlns="http://www.w3.org/2000/svg" xmlns:xlink="http://www.w3.org/1999/xlink" x="0px" y="0px"
	 width="192px" height="192px" viewBox="0 0 192 192" style="enable-background:new 0 0 192 192;" xml:space="preserve">
<style type="text/css">
	.st0{fill:none;stroke:#000000;stroke-width:12;stroke-linecap:round;stroke-linejoin:round;stroke-miterlimit:10;}
</style>
<path class="st0" d="M22,81.4v83.2 M89.3,81.4v83.2 M170,44.7c-0.8-0.3-10.8-3.6-19.7,2.9c-8.5,6.2-8.6,16.1-8.6,17.2v99.8
	 M119.9,84.7h46.6 M57.5,87.8c-2.5-0.5-12.1-1.9-21.4,3.8C22.9,99.8,22,115.3,22,116.7 M89.3,27.4c-7.5,0-13.5,6.1-13.5,13.5
	s6.1,13.5,13.5,13.5s13.5-6,13.5-13.4S96.8,27.4,89.3,27.4z"/>
</svg>
