<svg xmlns="http://www.w3.org/2000/svg" width="192" height="192" fill="none"><path stroke="#000" stroke-linecap="round" stroke-linejoin="round" stroke-width="10" d="M57.389 80.007c-14.104-14.459-20.558-30.903-14.422-37.04s22.581.318 37.04 14.423q.396.386.79.779C87.917 65.29 93.185 72.954 96 79.666c.803 1.916 1.407 3.754 1.797 5.48m-40.408-5.139C37.191 80.258 21 87.322 21 96s16.191 15.742 36.389 15.993m0-31.986Q57.943 80 58.5 80c10.07 0 19.213 1.694 25.95 4.45 1.923.786 3.65 1.66 5.147 2.605m-9.59-29.667C80.257 37.192 87.322 21 96 21s15.742 16.192 15.993 36.39m0 0c14.459-14.105 30.904-20.56 37.04-14.423s-.318 22.581-14.422 37.04M111.993 57.39q.007.555.007 1.11c0 10.07-1.693 19.213-4.449 25.95-.787 1.923-1.66 3.65-2.606 5.147m29.666-9.59a97 97 0 0 1-.781.79c-7.12 7.12-14.783 12.388-21.495 15.203-1.916.804-3.755 1.407-5.481 1.797m27.757-17.79C154.808 80.257 171 87.322 171 96s-16.192 15.742-36.389 15.993m0 0c14.104 14.459 20.558 30.904 14.422 37.04s-22.581-.318-37.04-14.422m22.618-22.618q-.553.007-1.111.007c-10.07 0-19.213-1.693-25.949-4.449-1.923-.787-3.651-1.66-5.148-2.606m9.59 29.666a97 97 0 0 1-.79-.781c-7.121-7.12-12.388-14.783-15.203-21.495-.804-1.916-1.407-3.755-1.797-5.481m17.79 27.757C111.742 154.808 104.678 171 96 171s-15.742-16.192-15.993-36.389m0 0c-14.459 14.104-30.904 20.558-37.04 14.422s.318-22.581 14.422-37.04m22.618 22.618A90 90 0 0 1 80 133.5c0-10.07 1.694-19.213 4.45-25.949.786-1.923 1.66-3.651 2.605-5.148m-29.666 9.59q.387-.396.78-.79C65.29 104.082 72.954 98.815 79.666 96c1.916-.803 3.754-1.407 5.48-1.797m0 0A11 11 0 0 0 85 96c0 2.389.761 4.6 2.055 6.403m-1.909-8.2a11 11 0 0 1 4.45-7.148m0 0A10.95 10.95 0 0 1 96 85q.919.001 1.797.146m7.148 4.45A10.95 10.95 0 0 1 107 96q-.001.919-.146 1.797m-1.909-8.2a11 11 0 0 0-7.148-4.451m9.057 12.651a11 11 0 0 1-4.451 7.148m0 0A10.94 10.94 0 0 1 96 107q-.919-.001-1.797-.146m0 0a11 11 0 0 1-7.148-4.451"/></svg>