<svg xmlns="http://www.w3.org/2000/svg" width="192" height="192" fill="none"><path stroke="#000" stroke-linecap="round" stroke-linejoin="round" stroke-width="10" d="M21 83v38m48-52v53m21-38v38m30-38v38m21-39v23m30-23v46M48.99 75.5A15 15 0 0 0 21 83m99 1a15 15 0 1 0-30 0"/><circle cx="69" cy="48" r="4" stroke="#000" stroke-linecap="round" stroke-linejoin="round" stroke-width="8"/><path stroke="#000" stroke-linecap="round" stroke-linejoin="round" stroke-width="10" d="M171 83a15 15 0 1 0-30 0m0 23a15.001 15.001 0 1 0 30 0m-27.99 30.5a15 15 0 0 0 7.25 6.358 14.99 14.99 0 0 0 17.64-4.727A15 15 0 0 0 171 129"/></svg>