<svg xmlns="http://www.w3.org/2000/svg" width="192" height="192" fill="none" viewBox="0 0 192 192"><path stroke="#000" stroke-linejoin="round" stroke-width="12" d="M89.535 166.86c-18.507-10.607-34.51-26.978-42.483-43.462-6.307-13.037-6.15-11.803-6.42-50.244l-.237-33.717 3.508-2.063c12.09-7.111 18.887-10.044 28.63-12.353 17.874-4.234 31.512-4.101 49.472.483 6.461 1.65 19.906 7.642 26.422 11.777l3.179 2.017-.251 34.117c-.238 32.732-.308 34.332-1.708 39.405-4.684 16.983-17.612 33.914-36.129 47.319-6.823 4.94-15.45 9.865-17.27 9.86-.681-.001-3.703-1.414-6.713-3.14z"/><g stroke-width="10.726" transform="translate(-8.803 7.643)scale(1.11875)"><path stroke="#000" stroke-linecap="round" d="M69.348 75.649S80 65.59 94.24 65.495s25.875 10.154 25.875 10.154M63.348 56.957S76.608 46.92 94.24 46.803c17.633-.118 31.875 10.154 31.875 10.154M79.348 90.34s6.901-6.106 14.893-6.153c7.99-.048 15.875 6.153 15.875 6.153"/><circle cx="94.732" cy="102.378" r="7.5" fill="#000"/></g></svg>