<svg xmlns="http://www.w3.org/2000/svg" xml:space="preserve" width="192" height="192" fill="none" viewBox="0 0 192 192"><g style="stroke-width:12.9114;stroke-dasharray:none"><path d="M87.776 176.621c-19.913-11.412-37.13-29.026-45.71-46.762-6.786-14.027-6.617-12.7-6.907-54.06l-.255-36.278 3.774-2.22C51.686 29.65 59 26.494 69.482 24.01c19.232-4.556 33.906-4.413 53.23.52 6.952 1.775 21.418 8.222 28.429 12.671l3.42 2.17-.27 36.708c-.256 35.218-.331 36.94-1.837 42.398-5.04 18.273-18.95 36.49-38.873 50.913C106.239 174.706 96.957 180.005 95 180c-.734-.002-3.985-1.522-7.224-3.379z" style="fill:none;stroke:#000;stroke-width:12.9114;stroke-linecap:round;stroke-linejoin:round;stroke-dasharray:none;stroke-opacity:1" transform="translate(7.955 2.706) scale(.92941)"/><g style="stroke-width:10.7263;stroke-dasharray:none" transform="translate(-8.803 7.643) scale(1.11875)"><path d="M69.348 75.649S80 65.59 94.24 65.495c14.24-.095 25.875 10.154 25.875 10.154M63.348 56.957S76.608 46.92 94.24 46.803c17.633-.118 31.875 10.154 31.875 10.154M79.348 90.34s6.901-6.106 14.893-6.153c7.99-.048 15.875 6.153 15.875 6.153" style="fill:none;stroke:#000;stroke-width:10.7263;stroke-linecap:round;stroke-linejoin:round;stroke-miterlimit:5;stroke-dasharray:none;stroke-opacity:1"/><circle cx="94.732" cy="102.378" r="7.5" style="fill:#000;fill-opacity:1;stroke:none;stroke-width:10.7263;stroke-linecap:round;stroke-linejoin:round;stroke-miterlimit:5;stroke-dasharray:none;stroke-opacity:1"/></g></g></svg>