<?xml version="1.0" standalone="no"?>
<!DOCTYPE svg PUBLIC "-//W3C//DTD SVG 20010904//EN"
 "http://www.w3.org/TR/2001/REC-SVG-20010904/DTD/svg10.dtd">
<svg version="1.0" xmlns="http://www.w3.org/2000/svg"
 width="192" height="192" viewBox="0 0 192 192"
 preserveAspectRatio="xMidYMid meet">
<metadata>
Created by potrace 1.16, written by Peter Selinger 2001-2019
</metadata>
<g transform="translate(0.000000,256.000000) scale(0.100000,-0.100000)"
fill="#000000" stroke="none">
<path d="M0 1280 l0 -1280 1280 0 1280 0 0 1280 0 1280 -1280 0 -1280 0 0
-1280z m1380 895 c138 -18 164 -25 244 -69 124 -68 180 -109 252 -183 96 -99
153 -203 194 -359 35 -129 22 -184 -45 -184 -43 0 -63 25 -80 101 -26 119 -32
137 -71 210 -68 129 -227 271 -349 310 -105 35 -147 41 -250 41 -102 0 -138
-6 -252 -41 -100 -30 -233 -133 -301 -233 -71 -104 -97 -167 -117 -276 -16
-84 -35 -112 -78 -112 -69 0 -85 66 -48 199 68 244 212 410 461 533 98 48 144
59 325 76 6 0 57 -5 115 -13z m-201 -389 c26 -13 92 -52 147 -88 54 -35 137
-88 184 -118 100 -63 135 -94 155 -134 32 -63 13 -122 -57 -179 -42 -33 -385
-255 -440 -283 -60 -31 -149 -3 -187 59 -20 33 -21 47 -21 352 l0 318 26 34
c48 63 117 78 193 39z m-600 -565 c8 -5 25 -39 37 -76 47 -139 152 -267 284
-348 68 -41 108 -59 223 -96 48 -16 243 -17 289 -2 18 6 62 20 97 31 35 11 97
40 137 65 138 86 229 195 285 339 17 44 36 84 43 88 6 4 28 8 49 8 34 0 37 -2
37 -28 0 -27 -37 -138 -61 -183 -104 -199 -307 -359 -524 -415 -86 -22 -327
-25 -390 -5 -182 59 -270 108 -370 206 -101 99 -158 186 -201 304 -24 66 -30
102 -17 114 9 10 66 8 82 -2z m143 -1 c60 -17 78 -57 78 -174 0 -53 -4 -96 -9
-96 -8 0 -72 90 -96 135 -27 49 -45 109 -40 126 7 22 16 23 67 9z m1173 -10
c8 -13 -22 -94 -54 -145 -107 -168 -232 -261 -421 -310 -80 -21 -247 -23 -279
-3 -27 16 -27 28 0 28 11 0 167 93 347 207 400 253 392 248 407 223z m-1465
-42 c33 -109 86 -229 119 -270 6 -7 33 -40 60 -74 117 -145 290 -244 504 -290
184 -39 440 5 602 103 96 59 192 139 237 201 24 31 46 59 50 63 18 12 86 160
108 232 13 43 29 77 36 77 7 0 26 -12 41 -26 25 -23 28 -32 27 -87 -1 -54 -7
-74 -53 -162 -29 -55 -56 -102 -59 -105 -4 -3 -20 -23 -36 -45 -45 -61 -144
-156 -211 -201 -55 -38 -182 -106 -230 -124 -190 -71 -418 -80 -625 -24 -191
52 -402 193 -508 339 -20 28 -39 52 -42 55 -27 26 -110 204 -116 253 -9 62 27
125 72 127 6 0 17 -19 24 -42z"/>
</g>
</svg>
