<svg xmlns="http://www.w3.org/2000/svg" width="192" height="192" fill="none" stroke="#000" stroke-linecap="round" stroke-linejoin="round" stroke-width="8" viewBox="0 0 192 192"><path d="M55.996 28.83C128.865 11.427 171.88 41.682 171.88 41.682c4.115 97.01-74.779 127.052-74.779 127.052S31.364 145.843 22.997 56.528"/><path d="M61.15 43.466a20.587 20.587 0 0 1-35.146 14.558A20.588 20.588 0 1 1 61.15 43.466m62.48 108.392s.131-39.867-86.62-47.062m69.927-9.911c0 1.447-.506 2.835-1.407 3.859-.901 1.023-2.124 1.598-3.398 1.598s-2.496-.575-3.397-1.598-1.407-2.412-1.407-3.86.506-2.835 1.407-3.859c.9-1.023 2.123-1.598 3.397-1.598.631 0 1.256.14 1.839.415a4.8 4.8 0 0 1 1.559 1.183c.446.507.8 1.109 1.041 1.77.242.663.366 1.373.366 2.09m25.743-1.771c0 1.517-.4 2.972-1.111 4.044-.712 1.073-1.677 1.675-2.683 1.675-.498 0-.991-.148-1.452-.435s-.878-.709-1.23-1.24a6.5 6.5 0 0 1-.823-1.855 8.3 8.3 0 0 1-.288-2.189.072 1.459 0 0 0 .288-2.188 6.5 6.5 0 0 1 .823-1.855c.352-.531.77-.953 1.23-1.24a2.73 2.73 0 0 1 1.452-.435c1.006 0 1.971.602 2.683 1.675s1.111 2.527 1.111 4.043"/><path d="M130.744 98.146s2.825 6.313 11.884 5.839c0 0 9.843-2.06 12.434 8.237M137.594 85.22s11.384.057 20.044 18.766m-34.114-9.342-13.741.965m-13.607 1.675-12.432 1.111S65.52 86.974 50.608 61.985m8.219-7.363s15.216-.046 29.404 5.078l14.037-1.092s9.572 3.02 22.148 15.422c0 0 9.678 4.358 13.973 10.333m-.934 2.617-1.69 7.513M56.5 107s-16.152-.452-16.5 7.345"/><path d="M64 108.5s-24.543-4.176-33.74-17.135m38.3-21.11 10.438 9.814m6.017 5.603 1.745 1.657M60.313 62.307l2.811 2.787m61.042 8.771-14.141 2.546s-11.439-4.955-22.028-16.59"/></svg>