<svg width="192" height="192" viewBox="0 0 192 192" fill="none" xmlns="http://www.w3.org/2000/svg"><path d="M25.132 160.235c16.54 2.656 36.737-1.434 48.608-17.491C80.766 144.21 88.243 145 96 145c40.869 0 74-21.938 74-49s-33.131-49-74-49c-40.87 0-74 21.938-74 49 0 11.971 6.483 22.939 17.25 31.449.725 17.779-14.118 32.779-14.118 32.779m49.174-111.01C62.437 33.163 41.367 29.093 24.83 31.751m14.438 32.881c.725-17.78-14.438-32.888-14.438-32.888" stroke="#000" stroke-width="12" stroke-linecap="round" stroke-linejoin="round"/><path d="M62 101a5 5 0 1 0 0-10 5 5 0 0 0 0 10Zm34 0a5 5 0 1 0 0-10 5 5 0 0 0 0 10Zm34 0a5 5 0 1 0 0-10 5 5 0 0 0 0 10Z" stroke="#000" stroke-width="10" stroke-linecap="round"/></svg>