<svg xmlns="http://www.w3.org/2000/svg" width="192" height="192" fill="none" viewBox="0 0 192 192">
  <circle cx="53.5" cy="123.5" r="31.5" stroke="#000" stroke-width="12"/>
  <circle cx="138.5" cy="123.5" r="31.5" stroke="#000" stroke-width="12"/>
  <path stroke="#000" stroke-linejoin="round" stroke-width="12" d="m137 67-32.807-28.528A6 6 0 0 0 100.256 37H85.5M137 67l22.798 3.454A12 12 0 0 1 170 82.32V96a6 6 0 0 1-6 6h-2.5M137 67H95.167a6 6 0 0 1-5.933-5.11L85.5 37m0 0h-19c-6.627 0-12 5.373-12 12v12a6 6 0 0 1-6 6H28a6 6 0 0 0-6 6v23a6 6 0 0 0 6 6h1m49 0h36.5"/>
  <circle cx="53.5" cy="123.5" r="12.5" stroke="#000" stroke-width="10"/>
  <circle cx="138.5" cy="123.5" r="12.5" stroke="#000" stroke-width="10"/>
</svg>
