<svg width="192" height="192" viewBox="0 0 192 192" xml:space="preserve" xmlns="http://www.w3.org/2000/svg"><g stroke="#000" stroke-linecap="round" stroke-linejoin="round" stroke-miterlimit="15"><g fill="none"><path d="M74.311 48.791C81.17 47.388 88.453 46.633 96 46.633c40.858 0 73.98 22.129 73.98 49.428 0 27.298-33.122 49.428-73.98 49.428-7.793 0-15.305-.805-22.359-2.298m-34.376-15.407c-10.764-8.584-17.244-19.648-17.244-31.722 0-12.08 6.487-23.149 17.261-31.736" stroke-width="12" style="paint-order:markers fill stroke"/><g stroke-width="7.295"><path d="M82.407 124.65c-7.214 9.832-19.425 12.225-29.477 10.598M61.51 115.28c.441 10.888-8.58 19.964-8.58 19.964" style="paint-order:markers fill stroke" transform="translate(-61.918 -61.858) scale(1.645)"/></g><g stroke-width="7.295"><path d="M83 124.55c-7.214 9.832-20.018 12.324-30.069 10.696" style="paint-order:markers fill stroke" transform="matrix(1.645 0 0 -1.645 -62.222 253.68)"/><path d="M61.705 115.11c.441 10.888-8.774 20.139-8.774 20.139" style="paint-order:markers fill stroke" transform="matrix(1.645 0 0 -1.645 -62.222 253.68)"/></g></g><g stroke-width="6.287"><circle cx="65.071" cy="95.991" style="paint-order:markers fill stroke" r="2.856"/><circle cx="96" cy="96.06" style="paint-order:markers fill stroke" r="2.856"/><circle cx="126.93" cy="96.06" style="paint-order:markers fill stroke" r="2.856"/></g></g></svg>