<svg xmlns="http://www.w3.org/2000/svg" width="192" height="192" fill="none"><path stroke="#000" stroke-linecap="round" stroke-linejoin="round" stroke-width="10" d="m87.149 91.067 11.66 4.4 15.404-4.267L130 143.267l-19.915 13.266-4.792.567M87.149 91.067 30.02 103.4 21 114.733 41.425 154M87.15 91.067 86.894 67 64.34 77.2l-18.042-3.4-3.128 26.333"/><path stroke="#000" stroke-linecap="round" stroke-linejoin="round" stroke-width="10" d="m129 136 29-18 13 18-45 35m-82.842-46.163L41 171l62-5.698V118zM155 78l5 42M84.263 39.62c68.671-8.208 93.743 15.564 85.093 30.863-8.65 15.3-46.473-3.239-85.093-30.863m0 0c-25.452 10.96-57.06 2.063-51.653-12.012s36.893-3.584 51.653 12.012"/><path stroke="#000" stroke-linecap="round" stroke-linejoin="round" stroke-width="6" d="m58.747 140.94 5.985-.429.429 5.985-5.985.429zm20.949-1.431 5.984-.429.43 5.985-5.985.429-.43-5.985Z"/></svg>