<svg xmlns="http://www.w3.org/2000/svg" width="192" height="192" fill="none"><path stroke="#000" stroke-linecap="round" stroke-linejoin="round" stroke-width="12" d="M108.062 70.147a24.019 24.019 0 1 0 0 41.599m59.838-2.787C159.855 141.153 130.739 165 96.053 165m68.151-103.075A73.7 73.7 0 0 1 170 86.943M57.025 28C36 41.065 22 64.37 22 90.946c0 8.43 1.409 16.531 4.003 24.08m21.015-24.08c0-27.081 21.954-49.035 49.035-49.035 23.676 0 43.433 16.78 48.027 39.095 1.115 5.413-3.472 9.94-8.999 9.94H96.053m-42.76 24.018c8.404 14.932 24.404 25.018 42.76 25.018s34.356-10.086 42.761-25.018"/></svg>