<svg width="192" height="192" viewBox="0 0 192 192" fill="none" xmlns="http://www.w3.org/2000/svg"><circle cx="96" cy="96" r="19" stroke="#000" stroke-width="10" stroke-linecap="round" stroke-linejoin="round"/><path d="M70 30v34a6 6 0 0 1-6 6H30a6 6 0 0 0-6 6v40a6 6 0 0 0 6 6h34a6 6 0 0 1 6 6v34a6 6 0 0 0 6 6h40a6 6 0 0 0 6-6v-34a6 6 0 0 1 6-6h34a6 6 0 0 0 6-6V76a6 6 0 0 0-6-6h-34a6 6 0 0 1-6-6V30a6 6 0 0 0-6-6H76a6 6 0 0 0-6 6Z" stroke="#000" stroke-width="10" stroke-linecap="round" stroke-linejoin="round"/><path d="m51 88-8 8 8 8m53-53-8-8-8 8m53 37 8 8-8 8m-37 37-8 8-8-8" stroke="#000" stroke-width="8" stroke-linecap="round" stroke-linejoin="round"/></svg>