<svg xmlns="http://www.w3.org/2000/svg" width="24" height="24" fill="none" viewBox="0 0 24 24"><path fill="#000" d="M5.15 11.042a1.02 1.02 0 0 0-1.016-1.026H3.63v2.043h.504a1.02 1.02 0 0 0 1.016-1.017Zm2.292 4.072h-1.85l-1.468-2.038H3.63v2.033H2V9h2.335c1.346 0 2.445.915 2.445 2.042 0 .687-.421 1.3-1.062 1.676l1.724 2.396Z"/><path fill="#000" d="M9.28 11.408c-.43 0-.797.585-.797 1.31 0 .725.366 1.31.797 1.31.44 0 .806-.586.806-1.31 0-.724-.366-1.31-.806-1.31Zm2.51 1.31a2.497 2.497 0 0 1-2.51 2.491 2.49 2.49 0 0 1-2.5-2.491 2.49 2.49 0 0 1 2.5-2.492 2.497 2.497 0 0 1 2.51 2.492Zm3.824-2.39-1.878 1.877v-1.884h-1.63v4.788h1.63v-1.943l1.96 1.943h2.052l-2.491-2.492 2.063-2.062v2.84c0 .944.567 1.814 1.996 1.814.678 0 1.3-.384 1.603-.732l.733.632H22v-4.781h-1.63v3.096c-.183.32-.439.521-.834.521-.401 0-.585-.237-.585-.998v-2.619h-3.337Z"/></svg>