<svg xmlns="http://www.w3.org/2000/svg" width="192" height="192" fill="none" stroke="#000" stroke-linecap="round" viewBox="0 0 192 192"><path stroke-width="8" d="M96 21v24m-45 78 45-78m45 78L96 45m45 78H51m-16 12 16-12m45 41-45-41M35 57l16 66m106-66-16 66m-45 41 45-41m16 12-16-12M35 57l61-12m61 12L96 45"/><path stroke-width="10" d="M31 56.697v73.857a6 6 0 0 0 2.975 5.182l59 34.439a6 6 0 0 0 6.05 0l59-34.439a6 6 0 0 0 2.975-5.182V56.696a6 6 0 0 0-3.302-5.359l-59-29.7a6 6 0 0 0-5.396 0l-59 29.7A6 6 0 0 0 31 56.697Z"/></svg>