<svg xmlns="http://www.w3.org/2000/svg" width="192" height="192" fill="none"><path stroke="#000" stroke-linecap="round" stroke-linejoin="round" stroke-width="12" d="M46 88V34c0-6.627 5.373-12 12-12h76c6.627 0 12 5.373 12 12v42c0 6.627-5.373 12-12 12h-1m-87 0v48.337c0 3.586 1.603 6.984 4.371 9.263L80 170m32 0 29.628-24.4a12 12 0 0 0 4.372-9.263V100c0-6.627-5.373-12-12-12h-1m-53 82v-60a6 6 0 0 1 6-6h14c6.627 0 12 5.373 12 12v54"/><path stroke="#000" stroke-linecap="round" stroke-linejoin="round" stroke-width="12" d="M80 76V50a6 6 0 0 1 6-6h20a6 6 0 0 1 6 6v20c0 6.627-5.373 12-12 12H86a6 6 0 0 1-6-6"/></svg>