<svg width="192" height="192" viewBox="0 0 192 192" fill="none" xmlns="http://www.w3.org/2000/svg">
<path d="M59.2 147.935V170" stroke="black" stroke-width="12" stroke-linecap="round"/>
<path d="M59.2 22V103.535" stroke="black" stroke-width="12" stroke-linecap="round"/>
<path d="M59.2 147.935C71.4607 147.935 81.4 137.995 81.4 125.735C81.4 113.474 71.4607 103.535 59.2 103.535C46.9393 103.535 37 113.474 37 125.735C37 137.995 46.9393 147.935 59.2 147.935Z" stroke="black" stroke-width="12" stroke-linecap="round" stroke-linejoin="round"/>
<path d="M133.218 44.0654V22" stroke="black" stroke-width="12" stroke-linecap="round"/>
<path d="M133.218 170V88.4649" stroke="black" stroke-width="12" stroke-linecap="round"/>
<path d="M133.217 44.0655C120.957 44.0655 111.017 54.0048 111.017 66.2655C111.017 78.5262 120.957 88.4655 133.217 88.4655C145.478 88.4655 155.417 78.5262 155.417 66.2655C155.417 54.0048 145.478 44.0655 133.217 44.0655Z" stroke="black" stroke-width="12" stroke-linecap="round" stroke-linejoin="round"/>
</svg>
