<svg xmlns="http://www.w3.org/2000/svg" width="192" height="192" fill="none"><path stroke="#000" stroke-linecap="round" stroke-linejoin="round" stroke-width="14" d="M80.014 65.398a36.13 36.13 0 0 0-22.951-6.315c-8.132.55-15.848 3.844-21.918 9.356s-10.147 12.924-11.58 21.057A37.5 37.5 0 0 0 23 95.492m7.824 23.404a36.6 36.6 0 0 0 13.784 10.885 36.05 36.05 0 0 0 23.689 2.128c7.91-1.992 14.934-6.609 19.954-13.117A37.32 37.32 0 0 0 95.998 96c0-8.56 2.928-16.855 8.286-23.472s12.812-11.147 21.094-12.817a36.07 36.07 0 0 1 24.328 3.658 36.5 36.5 0 0 1 5.864 3.959m-43.571 59.285a36.2 36.2 0 0 0 16.922 6.209 36.12 36.12 0 0 0 23.857-6.058c7.021-4.755 12.199-11.832 14.65-20.023a37.5 37.5 0 0 0 .772-18.445"/></svg>