<svg xmlns="http://www.w3.org/2000/svg" width="192" height="192" fill="none" viewBox="0 0 192 192"><path stroke="#000" stroke-linecap="round" stroke-linejoin="round" stroke-width="12" d="M65 36v84m-43-10 39.719 41.524a6 6 0 0 0 8.619.055L170 50"/><path stroke="#000" stroke-linecap="round" stroke-linejoin="round" stroke-width="12" d="m22 110 39.719 41.524a6 6 0 0 0 8.619.055L170 50"/><path stroke="#000" stroke-linecap="round" stroke-linejoin="round" stroke-width="12" d="m50 104 15 16 15-16M36 64h85a6 6 0 0 0 6-6V36m0 120v-28c0-1.591.632-3.117 1.757-4.243A6 6 0 0 1 133 122h23"/></svg>