<svg width="192" height="192" viewBox="0 0 192 192" fill="none" xmlns="http://www.w3.org/2000/svg">
<path fill-rule="evenodd" clip-rule="evenodd" d="M176 96C176 140.183 140.183 176 96 176C51.8172 176 16 140.183 16 96C16 51.8172 51.8172 16 96 16C140.183 16 176 51.8172 176 96ZM81.8821 162.533L53.5101 133.716L61.4601 118.951C61.3141 118.875 61.1694 118.797 61.0259 118.717C59.4842 117.858 58.089 116.766 56.8851 115.485C55.9737 114.516 55.1719 113.437 54.4994 112.269C52.8559 109.415 52.0529 106.144 52.1851 102.842C52.1851 101.759 52.2242 100.755 52.3024 99.8216C52.5322 97.0778 53.0995 94.9305 54.0043 93.083C54.5843 91.8988 55.3029 90.8377 56.1601 89.8216H46.8851V122.145C42.8968 120.333 39.3591 118.561 39.3591 113.621V90.7209C39.3451 90.4205 39.3496 90.1201 39.3721 89.8216C39.4256 89.112 39.5813 88.4124 39.8357 87.7456C40.1971 86.7982 40.7495 85.9376 41.4578 85.2188C42.1661 84.5 43.0146 83.9388 43.9491 83.571C44.8836 83.2033 45.8836 83.037 46.8851 83.083H112.486L102.734 60.6388H37.9059C31.621 70.9421 28 83.0482 28 96C28 128.715 51.102 156.033 81.8821 162.533ZM45.3524 50.6249H113.374L117.799 41.2284C118.015 40.8578 118.261 40.534 118.533 40.2543C119.545 39.2114 120.903 38.7793 122.28 38.8051C123.717 38.832 125.174 39.3577 126.277 40.2087C127.783 41.3704 128.63 43.138 127.869 45.0699C127.784 45.2865 127.678 45.5052 127.551 45.7253L124.901 50.2087H146.271C133.835 36.5632 115.917 28 96 28C75.8808 28 57.8024 36.7375 45.3524 50.6249ZM154.094 60.6388H135.09V99.2449H145.691C153.19 99.2449 156.291 105.111 153.641 110.48L145.691 128.441L137.741 123.501L143.465 110.427H135.514L127.564 128.387L119.614 123.447L124.49 110.024H105.397L94.3202 132.482L119.93 159.67C145.679 149.988 164 125.133 164 96C164 83.0482 160.379 70.9421 154.094 60.6388ZM109.845 162.59L80.0897 132.482L90.2922 110.923H81.0172L69.4896 133.824L98.812 163.943C102.577 163.79 106.262 163.331 109.845 162.59ZM105.397 100.024C102.248 100.024 99.3255 101.503 97.4559 103.946C95.5938 102.034 93.0185 100.923 90.2922 100.923H81.0172C77.2392 100.923 73.7837 103.053 72.085 106.427L69.0553 112.446C68.23 111.482 67.2207 110.675 66.0727 110.078C64.8775 109.457 63.8633 108.491 63.1655 107.28C62.467 106.066 62.1201 104.665 62.1771 103.242C62.1824 103.109 62.1851 102.976 62.1851 102.842C62.1851 98.2758 63.0311 97.1852 63.8034 96.2698C64.6127 95.3106 65.2188 94.228 65.6136 93.083H112.486C115.856 93.083 119 91.3853 120.848 88.567C122.696 85.7487 123.001 82.189 121.658 79.0979L113.63 60.6216C115.768 60.5671 117.789 59.8318 119.432 58.5807C121.032 59.6254 122.925 60.2088 124.901 60.2088H125.1C125.094 60.3514 125.09 60.4947 125.09 60.6388V99.2449C125.09 99.5138 125.101 99.7803 125.122 100.044C124.913 100.031 124.702 100.024 124.49 100.024H105.397Z" fill="black"/>
</svg>
