<svg xmlns="http://www.w3.org/2000/svg" width="192" height="192" fill="none" stroke="#000" stroke-width="6" viewBox="0 0 192 192"><path stroke-linecap="round" stroke-linejoin="round" stroke-width="12" d="m76 26 90 90s-6 16-20 30-28 20-28 20L26 74s6-14 20-28 30-20 30-20m-54 76c1.57 17.951 9.919 35.162 22.968 47.589a74 74 0 0 0 16.157 11.678m0 0c9.808 5.241 20.591 8.3 31.875 8.733l-20.198-20.411zM170 90c-1.571-17.951-9.919-35.162-22.968-47.589a74 74 0 0 0-16.157-11.678m0 0c-9.808-5.24-20.591-8.3-31.875-8.733l20.198 20.411z"/><circle cx="74" cy="159" r="3"/><circle cx="118" cy="33" r="3"/></svg>