<svg xmlns="http://www.w3.org/2000/svg" width="192" height="192" fill="none" viewBox="0 0 192 192"><path stroke="#000" stroke-linejoin="round" stroke-width="10" d="m99.84 56.006 6.799-15.654-4.035-13.41a2.87 2.87 0 0 0-2.782-1.941H83.888a2.87 2.87 0 0 0-1.699.568c-.492.366-.854.88-1.035 1.467l-4.714 15.62a54.7 54.7 0 0 0-11.22 4.733l-14.143-7.668a2.865 2.865 0 0 0-3.394.521L36.227 51.46a2.89 2.89 0 0 0-.518 3.408l7.637 14.2a55.2 55.2 0 0 0-4.715 11.218l-15.604 4.733A2.9 2.9 0 0 0 21 87.763v15.999a2.89 2.89 0 0 0 2.027 2.745l15.699 4.734a55 55 0 0 0 4.714 11.028l-7.731 14.863a2.9 2.9 0 0 0 .518 3.408l11.267 11.312a2.87 2.87 0 0 0 3.394.521l14.568-7.81a54.7 54.7 0 0 0 10.842 4.449l4.715 15.952A2.87 2.87 0 0 0 83.747 167h8.836l13.106-30.175H91.645c-22.434 0-40.621-18.278-40.621-40.825s18.187-40.825 40.62-40.825a40.6 40.6 0 0 1 8.196.831Z"/><path stroke="#000" stroke-linejoin="round" stroke-width="10" d="M147 35h-16.966L111.19 78.487a26.4 26.4 0 0 0-19.8-8.874C76.817 69.613 65 81.34 65 95.807S76.816 122 91.39 122q.478 0 .95-.017l-.007.017H109.3zm6.931 24H171l-37.931 88H116z"/></svg>