<?xml version="1.0" encoding="UTF-8" standalone="no"?>
<svg
   width="192"
   height="192"
   viewBox="0 0 192 192"
   fill="none"
   version="1.1"
   id="svg6"
   sodipodi:docname="rover.svg"
   inkscape:version="1.4.3 (0d15f75, 2025-12-25)"
   xmlns:inkscape="http://www.inkscape.org/namespaces/inkscape"
   xmlns:sodipodi="http://sodipodi.sourceforge.net/DTD/sodipodi-0.dtd"
   xmlns="http://www.w3.org/2000/svg"
   xmlns:svg="http://www.w3.org/2000/svg">
  <defs
     id="defs6" />
  <sodipodi:namedview
     id="namedview6"
     pagecolor="#505050"
     bordercolor="#ffffff"
     borderopacity="1"
     inkscape:showpageshadow="0"
     inkscape:pageopacity="0"
     inkscape:pagecheckerboard="1"
     inkscape:deskcolor="#505050"
     showgrid="false"
     inkscape:zoom="4.2721035"
     inkscape:cx="78.181627"
     inkscape:cy="113.52721"
     inkscape:window-width="2560"
     inkscape:window-height="1368"
     inkscape:window-x="0"
     inkscape:window-y="0"
     inkscape:window-maximized="1"
     inkscape:current-layer="svg6" />
  <path
     d="M113.369 100.115C139.428 135.411 144.437 146.018 164 139.123M121.052 46.3348C115.742 60.6519 107.485 88.8456 104.134 102.012M104.134 102.012C96.393 132.42 97.7087 142.305 97.7087 142.305M104.134 102.012C180.855 89.2845 160.517 22.5303 103.948 53.033"
     stroke="black"
     stroke-width="12"
     stroke-linecap="round"
     stroke-linejoin="bevel"
     id="path1" />
  <path
     d="m 54.858724,87.076267 c -20.6556,22.566103 -3.8642,36.759103 7.502,27.998103 14.2242,1.904 21.6693,-18.783203 -7.502,-27.998103 z"
     stroke="#000000"
     stroke-width="12"
     stroke-linecap="round"
     stroke-linejoin="round"
     id="path2" />
  <path
     d="m 36.557124,66.274667 c 0.4338,-0.2504 1.1567,-0.3629 2.1677,0.069 1.0119,0.4323 2.1191,1.3559 2.9304,2.7611 0.8113,1.4052 1.0575,2.8259 0.926,3.9184 -0.1315,1.0914 -0.5903,1.6613 -1.0241,1.9118 -0.4338,0.2504 -1.1567,0.3628 -2.1677,-0.069 -1.0118,-0.4324 -2.1191,-1.356 -2.9304,-2.7612 -0.8113,-1.4052 -1.0575,-2.8259 -0.926,-3.9184 0.1315,-1.0914 0.5903,-1.6613 1.0241,-1.9117 z"
     stroke="#000000"
     stroke-width="6"
     id="path3" />
  <path
     d="m 60.307524,59.910767 c 0.5009,0 1.1832,0.2641 1.8428,1.1435 0.6601,0.8804 1.1572,2.2339 1.1572,3.8565 0,1.6226 -0.4971,2.9761 -1.1572,3.8564 -0.6596,0.8795 -1.3419,1.1436 -1.8428,1.1436 -0.5009,0 -1.1832,-0.2641 -1.8428,-1.1436 -0.6601,-0.8803 -1.1572,-2.2338 -1.1572,-3.8564 0,-1.6226 0.4971,-2.9761 1.1572,-3.8565 0.6596,-0.8794 1.3419,-1.1435 1.8428,-1.1435 z"
     stroke="#000000"
     stroke-width="6"
     id="path4" />
  <path
     d="m 82.403424,71.894367 c 0.4338,0.2504 0.8926,0.8203 1.0241,1.9117 0.1316,1.0925 -0.1147,2.5132 -0.926,3.9184 -0.8113,1.4052 -1.9185,2.3288 -2.9304,2.7612 -1.0109,0.4318 -1.7339,0.3194 -2.1677,0.0689 -0.4337,-0.2504 -0.8926,-0.8203 -1.0241,-1.9117 -0.1315,-1.0925 0.1148,-2.5132 0.9261,-3.9184 0.8112,-1.4052 1.9185,-2.3288 2.9304,-2.7611 1.0109,-0.4319 1.7339,-0.3194 2.1676,-0.069 z"
     stroke="#000000"
     stroke-width="6"
     id="path5" />
  <path
     d="m 25.202224,86.939567 c 0.2504,-0.4338 0.8203,-0.8926 1.9117,-1.0241 1.0925,-0.1316 2.5132,0.1147 3.9184,0.926 1.4052,0.8113 2.3288,1.9185 2.7612,2.9304 0.4318,1.0109 0.3194,1.7339 0.069,2.1677 -0.2505,0.4337 -0.8204,0.8926 -1.9118,1.0241 -1.0925,0.1315 -2.5132,-0.1147 -3.9184,-0.926 -1.4052,-0.8113 -2.3288,-1.9186 -2.7611,-2.9305 -0.4319,-1.0109 -0.3194,-1.7339 -0.069,-2.1676 z"
     stroke="#000000"
     stroke-width="6"
     id="path6" />
</svg>
