<svg xmlns="http://www.w3.org/2000/svg" width="192" height="192" fill="none"><path stroke="#000" stroke-linecap="round" stroke-linejoin="round" stroke-width="10" d="M171 130.769S151 116 141 116s-20 16-20 16c0 10 30 20.5 30 20.5s-6-11.091-6-21.091zM97 83l34 12 32-20"/><circle cx="115" cy="97" r="4" stroke="#000" stroke-linecap="round" stroke-linejoin="round" stroke-width="8"/><circle cx="146" cy="94" r="4" stroke="#000" stroke-linecap="round" stroke-linejoin="round" stroke-width="8"/><path stroke="#000" stroke-linecap="round" stroke-linejoin="round" stroke-width="12" d="M146.433 61c-9.639-8.254-22.473-14-38.933-14C54 47 45 93 45 109c0 8-5 53 60 53 5.427 0 10.416-.341 15-.972m49.913-54.528a49 49 0 0 0-.698-5.5 62 62 0 0 0-.997-4.5"/><path stroke="#000" stroke-linecap="round" stroke-linejoin="round" stroke-width="10" d="M21 106h24M32 93l13 13m-13 13 13-13"/><path stroke="#000" stroke-linecap="round" stroke-linejoin="round" stroke-width="12" d="M87 26c21 4 29 20 29 20m-56 .03c17-3.487 28 3 28 3"/></svg>