<svg xmlns="http://www.w3.org/2000/svg" width="192" height="192" fill="none"><path stroke="#000" stroke-linecap="round" stroke-linejoin="round" stroke-width="12" d="M166 102v68m0-68a62 62 0 0 0-30.711-53.526M141.2 151.6a62 62 0 0 1-90.726-18.311M141.2 151.6l-23.261-17.258a61 61 0 0 1-67.465-1.053M141.2 151.6l4.8 3.561M166 170l-20-14.839m-95.526-21.872a61 61 0 1 1 84.815-84.815m0 0A61 61 0 0 1 146 83v72.161"/><path stroke="#000" stroke-linecap="round" stroke-linejoin="round" stroke-width="12" d="M101 92c3.314 0 6.079 2.735 5.187 5.926a21.99 21.99 0 0 1-12.768 14.4 21.99 21.99 0 0 1-23.975-4.77 22 22 0 0 1-5.63-9.63C62.92 94.735 65.685 92 69 92z"/></svg>