<svg width="192" height="192" viewBox="0 0 192 192" fill="none" xmlns="http://www.w3.org/2000/svg">
<path d="M66 67V54.5M66 54.5V48C66 44.6863 68.6863 42 72 42H76.7904C78.2025 42 79.6143 42.457 80.5584 43.5073C83.2074 46.4543 82.7987 49.0648 80.3617 53.0164C79.5405 54.3479 78.0277 55.0698 76.4651 54.9958V54.9958M66 54.5L76.4651 54.9958M76.4651 54.9958L84 66.1803" stroke="black" stroke-width="6" stroke-linecap="round"/>
<path d="M41 67V54.5M41 54.5V48C41 44.6863 43.6863 42 47 42H50.1476C51.6807 42 53.221 42.539 54.1408 43.7655C56.3041 46.6504 55.8562 49.2565 53.6717 53.187C53.0022 54.3917 51.6786 55.0691 50.3023 54.9958V54.9958M41 54.5L50.3023 54.9958M50.3023 54.9958L57 66.1803" stroke="black" stroke-width="6" stroke-linecap="round"/>
<path d="M105.241 54.3214C108.921 57.4263 109.295 59.5933 106.94 62.9028C105.945 64.3008 104.259 65 102.543 65H98C94.6863 65 92 62.3137 92 59V54.3214M105.241 54.3214H92M105.241 54.3214C107.318 51.1382 107.886 48.8307 106.71 45.3617C105.987 43.228 103.824 42 101.571 42H98C94.6863 42 92 44.6863 92 48V54.3214M117.655 65H122.414C125.727 65 128.414 62.3137 128.414 59V42M152 42H143.103C139.79 42 137.103 44.6863 137.103 48V53.5M152 65H143.103C139.79 65 137.103 62.3137 137.103 59V53.5M137.103 53.5H146.621" stroke="black" stroke-width="6" stroke-linecap="round"/>
<path d="M52.7529 96H44C40.6863 96 38 98.6863 38 102V109.393M52.7529 121H44C40.6863 121 38 118.314 38 115V109.393M38 109.393H46.9294M71 96L70.7035 115.093C70.6526 118.37 67.9816 121 64.7042 121H64.5632C61.5745 121 58.9334 118.805 58.8443 115.817C58.8307 115.363 58.8283 114.912 58.8375 114.456C58.8971 111.519 61.5088 109.393 64.4466 109.393H70.6118" stroke="black" stroke-width="6" stroke-linecap="round"/>
<path d="M79 98V113C79 116.314 81.6863 119 85 119H91.7174C92.978 119 94 117.978 94 116.717V116.717V98" stroke="black" stroke-width="6" stroke-linecap="round"/>
<path d="M124.333 111.5H132.417C135.316 111.5 137.667 109.149 137.667 106.25V106.25C137.667 103.351 135.316 101 132.417 101H129.81C126.196 101 123.403 104.171 123.858 107.756L124.333 111.5ZM124.333 111.5V113C124.333 116.314 127.02 119 130.333 119H139" stroke="black" stroke-width="6" stroke-linecap="round"/>
<path d="M144 101L145.791 113.627C146.742 120.329 156.331 120.573 157.622 113.929L160 101.686" stroke="black" stroke-width="6" stroke-linecap="round"/>
<rect x="24" y="24" width="144" height="144" rx="6" stroke="black" stroke-width="8"/>
<path d="M104 121V108.5M104 108.5V102C104 98.6863 106.686 96 110 96H113.148C114.681 96 116.221 96.539 117.141 97.7655C119.304 100.65 118.856 103.256 116.672 107.187C116.002 108.392 114.679 109.069 113.302 108.996V108.996M104 108.5L113.302 108.996M113.302 108.996L120 120.18" stroke="black" stroke-width="6" stroke-linecap="round"/>
</svg>
