<svg width="192" height="192" viewBox="0 0 192 192" fill="none" xmlns="http://www.w3.org/2000/svg"><path d="M160.216 24H31.784C27.503 24 24 27.503 24 31.784v128.432c0 4.281 3.503 7.784 7.784 7.784h128.432c4.281 0 7.784-3.503 7.784-7.784V31.784c0-4.281-3.503-7.784-7.784-7.784Z" stroke="#000" stroke-width="12" stroke-linecap="round" stroke-linejoin="round"/><path d="M135.319 131.583c0 4.51-4.791 7.408-8.786 5.314l-28.24-14.806a5.998 5.998 0 0 0-5.572 0l-28.24 14.806c-3.995 2.094-8.786-.804-8.786-5.314v-52.2a6 6 0 0 1 2.66-4.985l33.813-22.65a6 6 0 0 1 6.678 0l33.812 22.65a6 6 0 0 1 2.661 4.985v52.2ZM95.507 49.51v71.121" stroke="#000" stroke-width="12" stroke-linecap="round" stroke-linejoin="round"/></svg>