<svg width="192" height="192" viewBox="0 0 192 192" fill="none" xmlns="http://www.w3.org/2000/svg"><path d="M64 74a5 5 0 1 0 0-10" stroke="#000" stroke-width="6" stroke-linecap="round" stroke-linejoin="round"/><path d="M96 48v96" stroke="#000" stroke-width="10" stroke-linecap="round" stroke-linejoin="round"/><path d="M50 64v16m0 32v16m83-64v16m0 32v16" stroke="#000" stroke-width="6" stroke-linecap="round" stroke-linejoin="round"/><path d="M22 96h148" stroke="#000" stroke-width="10" stroke-linecap="round" stroke-linejoin="round"/><path d="M50 64h14m59 0h20m-20 56h20M50 74h14l6 6m-20 48h20" stroke="#000" stroke-width="6" stroke-linecap="round" stroke-linejoin="round"/><path d="M21 139.75v-87.5a6.34 6.34 0 0 1 1.781-4.42 5.999 5.999 0 0 1 4.3-1.83H164.92a6 6 0 0 1 4.3 1.83 6.34 6.34 0 0 1 1.78 4.42v87.5a6.339 6.339 0 0 1-1.781 4.419 5.996 5.996 0 0 1-4.3 1.831H27.081a5.996 5.996 0 0 1-4.3-1.831A6.337 6.337 0 0 1 21 139.75Z" stroke="#000" stroke-width="10" stroke-linecap="round" stroke-linejoin="round"/></svg>