<svg xmlns="http://www.w3.org/2000/svg" width="192" height="192" fill="none"><path stroke="#000" stroke-width="10" d="m35.947 76.462 5.805 4.355c1.575 1.178 2.591 3.381 2.67 6.103.082 2.721-.97 5.023-2.599 6.245l-5.83 4.373a9.877 9.877 0 0 0-2.628 12.839l5.502 9.636 5.555 9.637a9.835 9.835 0 0 0 12.411 4.14l6.662-2.865c1.78-.776 4.22-.553 6.586.777 2.37 1.33 3.865 3.354 4.105 5.353l.891 7.246a9.9 9.9 0 0 0 3.248 6.214A9.84 9.84 0 0 0 84.87 153h22.258a9.85 9.85 0 0 0 6.545-2.485 9.9 9.9 0 0 0 3.248-6.214l.89-7.22c.232-1.954 1.63-3.934 3.963-5.353 2.332-1.419 4.835-1.669 6.703-.892l6.687 2.873a9.82 9.82 0 0 0 6.993.295 9.84 9.84 0 0 0 5.418-4.435l5.555-9.636 5.548-9.637a9.886 9.886 0 0 0-2.627-12.84l-5.804-4.353c-1.577-1.178-2.592-3.381-2.627-6.103-.036-2.722.97-5.023 2.599-6.246l5.832-4.372a9.88 9.88 0 0 0 3.747-5.92 9.9 9.9 0 0 0-1.12-6.919l-5.689-9.557-5.556-9.636a9.84 9.84 0 0 0-5.419-4.434 9.83 9.83 0 0 0-6.992.294l-6.66 2.865c-1.779.776-4.22.552-6.588-.777s-3.865-3.355-4.105-5.354l-.89-7.245a9.9 9.9 0 0 0-3.248-6.214A9.84 9.84 0 0 0 106.985 21H84.729a9.84 9.84 0 0 0-6.547 2.485 9.88 9.88 0 0 0-3.247 6.214l-.89 7.218c-.232 1.953-1.63 3.935-3.963 5.355-2.332 1.419-4.833 1.668-6.703.89l-6.687-2.871a9.82 9.82 0 0 0-6.895-.272 9.83 9.83 0 0 0-5.375 4.332l-5.555 9.635-5.546 9.637a9.89 9.89 0 0 0 2.626 12.839Z"/><circle cx="96" cy="87" r="5" stroke="#000" stroke-linecap="round" stroke-linejoin="round" stroke-width="10"/><path stroke="#000" stroke-linecap="round" stroke-linejoin="round" stroke-width="10" d="M91 86.5 84.525 117M101 86.5l6.475 30.5M77.52 150l-4.459 21m41.42-21 4.458 21"/><circle cx="96" cy="87" r="33" stroke="#000" stroke-linecap="round" stroke-linejoin="round" stroke-width="10"/></svg>