<svg width="192" height="192" fill="none" xmlns="http://www.w3.org/2000/svg"><path d="M96 101a5 5 0 1 0 0-10 5 5 0 0 0 0 10Z" stroke="#000" stroke-width="10" stroke-linecap="round" stroke-linejoin="round"/><path d="M96 118c12.15 0 22-9.85 22-22s-9.85-22-22-22-22 9.85-22 22 9.85 22 22 22Z" stroke="#000" stroke-width="10" stroke-linecap="round" stroke-linejoin="round"/><path d="m46.255 87.281 4.809 3.603c1.305.975 2.146 2.798 2.212 5.05.067 2.251-.804 4.156-2.153 5.167l-4.83 3.618a8.166 8.166 0 0 0-2.177 10.623l4.558 7.973 4.602 7.973a8.148 8.148 0 0 0 10.281 3.425l5.517-2.37c1.475-.642 3.496-.457 5.457.643 1.962 1.1 3.201 2.775 3.4 4.429l.738 5.995a8.177 8.177 0 0 0 2.69 5.141 8.16 8.16 0 0 0 5.422 2.056h18.438a8.16 8.16 0 0 0 5.422-2.056 8.182 8.182 0 0 0 2.691-5.141l.737-5.973c.192-1.617 1.35-3.255 3.282-4.429 1.932-1.174 4.005-1.381 5.553-.738l5.539 2.377a8.148 8.148 0 0 0 10.281-3.426l4.602-7.973 4.595-7.973a8.17 8.17 0 0 0-2.176-10.623l-4.808-3.602c-1.306-.975-2.147-2.798-2.176-5.05-.03-2.252.804-4.156 2.153-5.168l4.831-3.617a8.172 8.172 0 0 0 2.176-10.623l-4.713-7.907-4.602-7.973a8.15 8.15 0 0 0-10.281-3.425l-5.516 2.37c-1.475.642-3.496.457-5.458-.643-1.962-1.1-3.201-2.775-3.4-4.43l-.737-5.994a8.18 8.18 0 0 0-2.691-5.14 8.16 8.16 0 0 0-5.422-2.057H86.663a8.16 8.16 0 0 0-5.422 2.056 8.175 8.175 0 0 0-2.69 5.141l-.738 5.973c-.192 1.616-1.35 3.255-3.282 4.43-1.932 1.173-4.004 1.38-5.553.737l-5.539-2.377a8.142 8.142 0 0 0-10.163 3.36l-4.602 7.972-4.594 7.973a8.172 8.172 0 0 0 2.175 10.623Z" stroke="#000" stroke-width="10"/><path d="m91 96-4.328 19.924m-6.757 31.107L74.707 171M101 96l4.328 19.924m6.758 31.107L117.293 171" stroke="#000" stroke-width="10" stroke-linecap="round" stroke-linejoin="round"/></svg>