<svg xmlns="http://www.w3.org/2000/svg" width="192" height="192" fill="none"><g stroke="#000" stroke-width="10"><path stroke-linecap="round" stroke-linejoin="round" d="M95.999 89.986a5.8 5.787 0 1 0 0-11.573 5.8 5.787 0 0 0 0 11.573"/><path stroke-linecap="round" stroke-linejoin="round" d="M95.999 109.66c14.092 0 25.517-11.4 25.517-25.462s-11.425-25.462-25.517-25.462-25.517 11.4-25.517 25.462 11.425 25.462 25.517 25.462"/><path d="m38.302 74.108 5.578 4.17c1.513 1.128 2.489 3.238 2.565 5.844.078 2.606-.932 4.81-2.497 5.98l-5.602 4.188a9.471 9.45 0 0 0-2.525 12.294l5.287 9.227 5.337 9.228a9.45 9.43 0 0 0 11.924 3.964l6.4-2.743c1.71-.743 4.054-.53 6.328.744 2.276 1.273 3.713 3.212 3.944 5.126l.856 6.938a9.484 9.464 0 0 0 3.12 5.95 9.464 9.444 0 0 0 6.289 2.38h21.385a9.464 9.444 0 0 0 6.288-2.38 9.49 9.47 0 0 0 3.121-5.95l.855-6.913c.223-1.871 1.566-3.767 3.807-5.126s4.645-1.598 6.44-.854l6.425 2.751a9.45 9.43 0 0 0 11.924-3.965l5.337-9.227 5.33-9.228a9.476 9.456 0 0 0-2.524-12.294l-5.576-4.169c-1.515-1.128-2.49-3.238-2.524-5.844-.035-2.606.932-4.81 2.497-5.981l5.603-4.186a9.478 9.458 0 0 0 2.524-12.294l-5.466-9.152-5.338-9.227a9.453 9.432 0 0 0-11.924-3.964l-6.398 2.743c-1.71.743-4.055.529-6.33-.744s-3.713-3.212-3.944-5.127l-.855-6.937a9.488 9.467 0 0 0-3.12-5.95 9.464 9.444 0 0 0-6.29-2.38H85.17a9.464 9.444 0 0 0-6.29 2.38 9.482 9.461 0 0 0-3.12 5.95l-.855 6.912c-.223 1.87-1.566 3.768-3.807 5.127s-4.644 1.597-6.44.853l-6.425-2.75a9.444 9.423 0 0 0-11.788 3.888l-5.337 9.226-5.329 9.228a9.478 9.458 0 0 0 2.523 12.294z"/><path stroke-linecap="round" stroke-linejoin="round" d="m90.2 84.199-5.02 23.059m-7.837 36.002L71.303 171m30.496-86.801 5.02 23.059m7.838 36.002 6.039 27.74"/></g></svg>
