<?xml version="1.0" encoding="utf-8"?>
	<svg version="1.1" xmlns="http://www.w3.org/2000/svg" xmlns:xlink="http://www.w3.org/1999/xlink" x="0px" y="0px" width="240.0" height="240.0" xml:space="preserve">
		<path d="M40,30L101,30C106.523,30 111,34.477 111,40L111,101C111,106.523 106.523,111 101,111L40,111C34.477,111 30,106.523 30,101L30,40C30,34.477 34.477,30 40,30ZM40,129L101,129C106.523,129 111,133.477 111,139L111,200C111,205.523 106.523,210 101,210L40,210C34.477,210 30,205.523 30,200L30,139C30,133.477 34.477,129 40,129ZM139,129L200,129C205.523,129 210,133.477 210,139L210,200C210,205.523 205.523,210 200,210L139,210C133.477,210 129,205.523 129,200L129,139C129,133.477 133.477,129 139,129ZM139,30L200,30C205.523,30 210,34.477 210,40L210,101C210,106.523 205.523,111 200,111L139,111C133.477,111 129,106.523 129,101L129,40C129,34.477 133.477,30 139,30Z" fill="#000" stroke="#00000000" stroke-width="1.0" stroke-miterlimit=""/>
	</svg>
