<?xml version="1.0" encoding="UTF-8" standalone="no"?>
<svg
   width="192"
   height="192"
   viewBox="0 0 192 192"
   fill="none"
   version="1.1"
   id="svg1011"
   xml:space="preserve"
   xmlns="http://www.w3.org/2000/svg"
   xmlns:svg="http://www.w3.org/2000/svg"><defs
     id="defs1009"><clipPath
       id="a"><path
         fill="#fff"
         d="M0 0h192v192H0z"
         id="path1006" /></clipPath><filter
       id="mask-powermask-path-effect5363_inverse"
       style="color-interpolation-filters:sRGB"
       height="100"
       width="100"
       x="-50"
       y="-50"><feColorMatrix
         id="mask-powermask-path-effect5363_primitive1"
         values="1"
         type="saturate"
         result="fbSourceGraphic" /><feColorMatrix
         id="mask-powermask-path-effect5363_primitive2"
         values="-1 0 0 0 1 0 -1 0 0 1 0 0 -1 0 1 0 0 0 1 0 "
         in="fbSourceGraphic" /></filter><filter
       id="mask-powermask-path-effect5414_inverse"
       style="color-interpolation-filters:sRGB"
       height="100"
       width="100"
       x="-50"
       y="-50"><feColorMatrix
         id="mask-powermask-path-effect5414_primitive1"
         values="1"
         type="saturate"
         result="fbSourceGraphic" /><feColorMatrix
         id="mask-powermask-path-effect5414_primitive2"
         values="-1 0 0 0 1 0 -1 0 0 1 0 0 -1 0 1 0 0 0 1 0 "
         in="fbSourceGraphic" /></filter><filter
       id="mask-powermask-path-effect5444_inverse"
       style="color-interpolation-filters:sRGB"
       height="100"
       width="100"
       x="-50"
       y="-50"><feColorMatrix
         id="mask-powermask-path-effect5444_primitive1"
         values="1"
         type="saturate"
         result="fbSourceGraphic" /><feColorMatrix
         id="mask-powermask-path-effect5444_primitive2"
         values="-1 0 0 0 1 0 -1 0 0 1 0 0 -1 0 1 0 0 0 1 0 "
         in="fbSourceGraphic" /></filter><filter
       id="mask-powermask-path-effect5462_inverse"
       style="color-interpolation-filters:sRGB"
       height="100"
       width="100"
       x="-50"
       y="-50"><feColorMatrix
         id="mask-powermask-path-effect5462_primitive1"
         values="1"
         type="saturate"
         result="fbSourceGraphic" /><feColorMatrix
         id="mask-powermask-path-effect5462_primitive2"
         values="-1 0 0 0 1 0 -1 0 0 1 0 0 -1 0 1 0 0 0 1 0 "
         in="fbSourceGraphic" /></filter><filter
       id="mask-powermask-path-effect5473_inverse"
       style="color-interpolation-filters:sRGB"
       height="100"
       width="100"
       x="-50"
       y="-50"><feColorMatrix
         id="mask-powermask-path-effect5473_primitive1"
         values="1"
         type="saturate"
         result="fbSourceGraphic" /><feColorMatrix
         id="mask-powermask-path-effect5473_primitive2"
         values="-1 0 0 0 1 0 -1 0 0 1 0 0 -1 0 1 0 0 0 1 0 "
         in="fbSourceGraphic" /></filter><filter
       id="mask-powermask-path-effect7499_inverse"
       style="color-interpolation-filters:sRGB"
       height="100"
       width="100"
       x="-50"
       y="-50"><feColorMatrix
         id="mask-powermask-path-effect7499_primitive1"
         values="1"
         type="saturate"
         result="fbSourceGraphic" /><feColorMatrix
         id="mask-powermask-path-effect7499_primitive2"
         values="-1 0 0 0 1 0 -1 0 0 1 0 0 -1 0 1 0 0 0 1 0 "
         in="fbSourceGraphic" /></filter><filter
       id="mask-powermask-path-effect7510_inverse"
       style="color-interpolation-filters:sRGB"
       height="100"
       width="100"
       x="-50"
       y="-50"><feColorMatrix
         id="mask-powermask-path-effect7510_primitive1"
         values="1"
         type="saturate"
         result="fbSourceGraphic" /><feColorMatrix
         id="mask-powermask-path-effect7510_primitive2"
         values="-1 0 0 0 1 0 -1 0 0 1 0 0 -1 0 1 0 0 0 1 0 "
         in="fbSourceGraphic" /></filter><clipPath
       clipPathUnits="userSpaceOnUse"
       id="clipPath7516"><path
         d="m 18.7893,67.426901 c -2.371,-0.5923 -4.0334,-2.713199 -4.0334,-5.145701 V 33.6233 c 0,-2.7629 2.6107,-4.7892 5.3037,-4.1165 l 17.0541,4.2602 c 2.3709,0.5922 4.0334,2.7131 4.0334,5.1456 v 28.657901 c 0,2.762897 -2.6108,4.789301 -5.3038,4.116497 z"
         fill="#ffffff"
         id="path7518"
         style="display:block;fill:#ffffff;fill-opacity:1;stroke:none;stroke-width:4.4;stroke-dasharray:none;stroke-opacity:1" /></clipPath><clipPath
       clipPathUnits="userSpaceOnUse"
       id="clipPath7528"><path
         d="m 34.8381,60.8292 c -2.371,-0.5923 -4.0334,-2.713199 -4.0334,-5.145701 V 27.0257 c 0,-2.7629 2.6108,-4.7893 5.3038,-4.1166 l 17.053998,4.2602 c 2.371001,0.5923 4.033403,2.7132 4.033403,5.1457 v 28.6578 c 0,2.763002 -2.610701,4.789301 -5.303804,4.116601 z"
         fill="#ffffff"
         id="path7530"
         style="display:block;fill:#ffffff;fill-opacity:1;stroke:none;stroke-width:4.4;stroke-dasharray:none;stroke-opacity:1" /></clipPath><clipPath
       id="a-4"><path
         fill="#fff"
         d="M0 0h192v192H0z"
         id="path1006-9" /></clipPath><filter
       id="mask-powermask-path-effect5363_inverse-0"
       style="color-interpolation-filters:sRGB"
       height="100"
       width="100"
       x="-50"
       y="-50"><feColorMatrix
         id="mask-powermask-path-effect5363_primitive1-0"
         values="1"
         type="saturate"
         result="fbSourceGraphic" /><feColorMatrix
         id="mask-powermask-path-effect5363_primitive2-4"
         values="-1 0 0 0 1 0 -1 0 0 1 0 0 -1 0 1 0 0 0 1 0 "
         in="fbSourceGraphic" /></filter><filter
       id="mask-powermask-path-effect5414_inverse-0"
       style="color-interpolation-filters:sRGB"
       height="100"
       width="100"
       x="-50"
       y="-50"><feColorMatrix
         id="mask-powermask-path-effect5414_primitive1-8"
         values="1"
         type="saturate"
         result="fbSourceGraphic" /><feColorMatrix
         id="mask-powermask-path-effect5414_primitive2-1"
         values="-1 0 0 0 1 0 -1 0 0 1 0 0 -1 0 1 0 0 0 1 0 "
         in="fbSourceGraphic" /></filter><filter
       id="mask-powermask-path-effect5444_inverse-0"
       style="color-interpolation-filters:sRGB"
       height="100"
       width="100"
       x="-50"
       y="-50"><feColorMatrix
         id="mask-powermask-path-effect5444_primitive1-2"
         values="1"
         type="saturate"
         result="fbSourceGraphic" /><feColorMatrix
         id="mask-powermask-path-effect5444_primitive2-6"
         values="-1 0 0 0 1 0 -1 0 0 1 0 0 -1 0 1 0 0 0 1 0 "
         in="fbSourceGraphic" /></filter><filter
       id="mask-powermask-path-effect5462_inverse-4"
       style="color-interpolation-filters:sRGB"
       height="100"
       width="100"
       x="-50"
       y="-50"><feColorMatrix
         id="mask-powermask-path-effect5462_primitive1-8"
         values="1"
         type="saturate"
         result="fbSourceGraphic" /><feColorMatrix
         id="mask-powermask-path-effect5462_primitive2-8"
         values="-1 0 0 0 1 0 -1 0 0 1 0 0 -1 0 1 0 0 0 1 0 "
         in="fbSourceGraphic" /></filter><filter
       id="mask-powermask-path-effect5473_inverse-9"
       style="color-interpolation-filters:sRGB"
       height="100"
       width="100"
       x="-50"
       y="-50"><feColorMatrix
         id="mask-powermask-path-effect5473_primitive1-1"
         values="1"
         type="saturate"
         result="fbSourceGraphic" /><feColorMatrix
         id="mask-powermask-path-effect5473_primitive2-3"
         values="-1 0 0 0 1 0 -1 0 0 1 0 0 -1 0 1 0 0 0 1 0 "
         in="fbSourceGraphic" /></filter><filter
       id="mask-powermask-path-effect7499_inverse-8"
       style="color-interpolation-filters:sRGB"
       height="100"
       width="100"
       x="-50"
       y="-50"><feColorMatrix
         id="mask-powermask-path-effect7499_primitive1-9"
         values="1"
         type="saturate"
         result="fbSourceGraphic" /><feColorMatrix
         id="mask-powermask-path-effect7499_primitive2-8"
         values="-1 0 0 0 1 0 -1 0 0 1 0 0 -1 0 1 0 0 0 1 0 "
         in="fbSourceGraphic" /></filter><filter
       id="mask-powermask-path-effect7510_inverse-4"
       style="color-interpolation-filters:sRGB"
       height="100"
       width="100"
       x="-50"
       y="-50"><feColorMatrix
         id="mask-powermask-path-effect7510_primitive1-4"
         values="1"
         type="saturate"
         result="fbSourceGraphic" /><feColorMatrix
         id="mask-powermask-path-effect7510_primitive2-8"
         values="-1 0 0 0 1 0 -1 0 0 1 0 0 -1 0 1 0 0 0 1 0 "
         in="fbSourceGraphic" /></filter><clipPath
       clipPathUnits="userSpaceOnUse"
       id="clipPath7516-0"><path
         d="m 18.7893,67.426901 c -2.371,-0.5923 -4.0334,-2.713199 -4.0334,-5.145701 V 33.6233 c 0,-2.7629 2.6107,-4.7892 5.3037,-4.1165 l 17.0541,4.2602 c 2.3709,0.5922 4.0334,2.7131 4.0334,5.1456 v 28.657901 c 0,2.762897 -2.6108,4.789301 -5.3038,4.116497 z"
         fill="#ffffff"
         id="path7518-7"
         style="display:block;fill:#ffffff;fill-opacity:1;stroke:none;stroke-width:4.4;stroke-dasharray:none;stroke-opacity:1" /></clipPath><clipPath
       clipPathUnits="userSpaceOnUse"
       id="clipPath7528-8"><path
         d="m 34.8381,60.8292 c -2.371,-0.5923 -4.0334,-2.713199 -4.0334,-5.145701 V 27.0257 c 0,-2.7629 2.6108,-4.7893 5.3038,-4.1166 l 17.053998,4.2602 c 2.371001,0.5923 4.033403,2.7132 4.033403,5.1457 v 28.6578 c 0,2.763002 -2.610701,4.789301 -5.303804,4.116601 z"
         fill="#ffffff"
         id="path7530-1"
         style="display:block;fill:#ffffff;fill-opacity:1;stroke:none;stroke-width:4.4;stroke-dasharray:none;stroke-opacity:1" /></clipPath><style
       type="text/css"
       id="style1182">
   <![CDATA[
    .fil4 {fill:#FEFEFE}
    .fil3 {fill:#00AE42}
    .fil5 {fill:red}
    .fil0 {fill:#00AE42;fill-rule:nonzero}
    .fil1 {fill:red;fill-rule:nonzero}
    .fil2 {fill:white;fill-rule:nonzero}
   ]]>
  </style><filter
       id="filter0_d"
       x="10.75"
       y="8.77881"
       width="61.2885"
       height="67.5962"
       filterUnits="userSpaceOnUse"
       color-interpolation-filters="sRGB"><feFlood
         flood-opacity="0"
         result="BackgroundImageFix"
         id="feFlood3303" /><feColorMatrix
         in="SourceAlpha"
         type="matrix"
         values="0 0 0 0 0 0 0 0 0 0 0 0 0 0 0 0 0 0 127 0"
         id="feColorMatrix3305" /><feOffset
         id="feOffset3307" /><feGaussianBlur
         stdDeviation="10"
         id="feGaussianBlur3309" /><feColorMatrix
         type="matrix"
         values="0 0 0 0 0.330556 0 0 0 0 0.398611 0 0 0 0 0.495833 0 0 0 0.32 0"
         id="feColorMatrix3311" /><feBlend
         mode="normal"
         in2="BackgroundImageFix"
         result="effect1_dropShadow"
         id="feBlend3313" /><feBlend
         mode="normal"
         in="SourceGraphic"
         in2="effect1_dropShadow"
         result="shape"
         id="feBlend3315" /></filter><radialGradient
       id="paint0_radial"
       cx="0"
       cy="0"
       r="1"
       gradientUnits="userSpaceOnUse"
       gradientTransform="matrix(84.0465,0,0,84.2932,25.4259,19.6802)"><stop
         offset="0.03125"
         stop-color="#98C7FF"
         id="stop3318" /><stop
         offset="0.46875"
         stop-color="#1065E4"
         id="stop3320" /><stop
         offset="1"
         stop-color="#044AB1"
         id="stop3322" /></radialGradient><linearGradient
       id="paint1_linear"
       x1="21.5363"
       y1="5.24396"
       x2="41.3391"
       y2="28.982"
       gradientUnits="userSpaceOnUse"><stop
         offset="0.03125"
         stop-color="#C1DEFF"
         stop-opacity="0.12"
         id="stop3325" /><stop
         offset="0.890625"
         stop-color="#8DBBFF"
         id="stop3327" /></linearGradient><radialGradient
       id="paint2_radial"
       cx="0"
       cy="0"
       r="1"
       gradientUnits="userSpaceOnUse"
       gradientTransform="matrix(0,-44.5345,37.387,0,41.2969,45.2416)"><stop
         stop-color="white"
         id="stop3330" /><stop
         offset="0.338819"
         stop-color="white"
         id="stop3332" /><stop
         offset="1"
         stop-color="#ECF4FF"
         id="stop3334" /></radialGradient><radialGradient
       id="paint3_radial"
       cx="0"
       cy="0"
       r="1"
       gradientUnits="userSpaceOnUse"
       gradientTransform="matrix(0,-14.6613,14.7339,0,41.4218,45.4954)"><stop
         offset="0.291667"
         stop-color="white"
         id="stop3337" /><stop
         offset="1"
         stop-color="#F3F8FF"
         id="stop3339" /></radialGradient><clipPath
       clipPathUnits="userSpaceOnUse"
       id="clipPath3096"><g
         id="g3100"><path
           d="M 0,1024 H 768 V 0 H 0 Z"
           id="path3098" /></g></clipPath><clipPath
       clipPathUnits="userSpaceOnUse"
       id="clipPath3090"><g
         id="g3094"><path
           d="M 0,1024 H 768 V 0 H 0 Z"
           id="path3092" /></g></clipPath><clipPath
       clipPathUnits="userSpaceOnUse"
       id="clipPath3084"><g
         id="g3088"><path
           d="M 0,1024 H 768 V 0 H 0 Z"
           id="path3086" /></g></clipPath><clipPath
       clipPathUnits="userSpaceOnUse"
       id="clipPath3078"><g
         id="g3082"><path
           d="M 0,1024 H 768 V 0 H 0 Z"
           id="path3080" /></g></clipPath><clipPath
       clipPathUnits="userSpaceOnUse"
       id="clipPath3072"><g
         id="g3076"><path
           d="M 0,1024 H 768 V 0 H 0 Z"
           id="path3074" /></g></clipPath><clipPath
       clipPathUnits="userSpaceOnUse"
       id="clipPath3066"><g
         id="g3070"><path
           d="M 0,1024 H 768 V 0 H 0 Z"
           id="path3068" /></g></clipPath><clipPath
       clipPathUnits="userSpaceOnUse"
       id="clipPath3060"><g
         id="g3064"><path
           d="M 0,1024 H 768 V 0 H 0 Z"
           id="path3062" /></g></clipPath><clipPath
       clipPathUnits="userSpaceOnUse"
       id="clipPath3054"><g
         id="g3058"><path
           d="M 0,1024 H 768 V 0 H 0 Z"
           id="path3056" /></g></clipPath><clipPath
       clipPathUnits="userSpaceOnUse"
       id="clipPath3048"><g
         id="g3052"><path
           d="M 0,1024 H 768 V 0 H 0 Z"
           id="path3050" /></g></clipPath><clipPath
       clipPathUnits="userSpaceOnUse"
       id="clipPath3042"><g
         id="g3046"><path
           d="M 0,1024 H 768 V 0 H 0 Z"
           id="path3044" /></g></clipPath><clipPath
       clipPathUnits="userSpaceOnUse"
       id="clipPath3036"><g
         id="g3040"><path
           d="M 0,1024 H 768 V 0 H 0 Z"
           id="path3038" /></g></clipPath><clipPath
       clipPathUnits="userSpaceOnUse"
       id="clipPath3030"><g
         id="g3034"><path
           d="M 0,1024 H 768 V 0 H 0 Z"
           id="path3032" /></g></clipPath><clipPath
       clipPathUnits="userSpaceOnUse"
       id="clipPath3024"><g
         id="g3028"><path
           d="M 0,1024 H 768 V 0 H 0 Z"
           id="path3026" /></g></clipPath><clipPath
       clipPathUnits="userSpaceOnUse"
       id="clipPath3018"><g
         id="g3022"><path
           d="M 0,1024 H 768 V 0 H 0 Z"
           id="path3020" /></g></clipPath><clipPath
       clipPathUnits="userSpaceOnUse"
       id="clipPath3012"><g
         id="g3016"><path
           d="M 0,1024 H 768 V 0 H 0 Z"
           id="path3014" /></g></clipPath><clipPath
       clipPathUnits="userSpaceOnUse"
       id="clipPath3006"><g
         id="g3010"><path
           d="M 0,1024 H 768 V 0 H 0 Z"
           id="path3008" /></g></clipPath><clipPath
       clipPathUnits="userSpaceOnUse"
       id="clipPath3000"><g
         id="g3004"><path
           d="M 0,1024 H 768 V 0 H 0 Z"
           id="path3002" /></g></clipPath><clipPath
       clipPathUnits="userSpaceOnUse"
       id="clipPath2994"><g
         id="g2998"><path
           d="M 0,1024 H 768 V 0 H 0 Z"
           id="path2996" /></g></clipPath><clipPath
       clipPathUnits="userSpaceOnUse"
       id="clipPath2988"><g
         id="g2992"><path
           d="M 0,1024 H 768 V 0 H 0 Z"
           id="path2990" /></g></clipPath><clipPath
       clipPathUnits="userSpaceOnUse"
       id="clipPath2982"><g
         id="g2986"><path
           d="M 0,1024 H 768 V 0 H 0 Z"
           id="path2984" /></g></clipPath><clipPath
       clipPathUnits="userSpaceOnUse"
       id="clipPath2976"><g
         id="g2980"><path
           d="M 0,1024 H 768 V 0 H 0 Z"
           id="path2978" /></g></clipPath><clipPath
       clipPathUnits="userSpaceOnUse"
       id="clipPath2970"><g
         id="g2974"><path
           d="M 0,1024 H 768 V 0 H 0 Z"
           id="path2972" /></g></clipPath><clipPath
       clipPathUnits="userSpaceOnUse"
       id="clipPath2964"><g
         id="g2968"><path
           d="M 0,1024 H 768 V 0 H 0 Z"
           id="path2966" /></g></clipPath><clipPath
       clipPathUnits="userSpaceOnUse"
       id="clipPath2958"><g
         id="g2962"><path
           d="M 0,1024 H 768 V 0 H 0 Z"
           id="path2960" /></g></clipPath><clipPath
       clipPathUnits="userSpaceOnUse"
       id="clipPath2952"><g
         id="g2956"><path
           d="M 0,1024 H 768 V 0 H 0 Z"
           id="path2954" /></g></clipPath><clipPath
       clipPathUnits="userSpaceOnUse"
       id="clipPath2946"><g
         id="g2950"><path
           d="M 0,1024 H 768 V 0 H 0 Z"
           id="path2948" /></g></clipPath><clipPath
       clipPathUnits="userSpaceOnUse"
       id="clipPath2940"><g
         id="g2944"><path
           d="M 0,1024 H 768 V 0 H 0 Z"
           id="path2942" /></g></clipPath><clipPath
       clipPathUnits="userSpaceOnUse"
       id="clipPath2934"><g
         id="g2938"><path
           d="M 0,1024 H 768 V 0 H 0 Z"
           id="path2936" /></g></clipPath><clipPath
       clipPathUnits="userSpaceOnUse"
       id="clipPath2928"><g
         id="g2932"><path
           d="M 0,1024 H 768 V 0 H 0 Z"
           id="path2930" /></g></clipPath><clipPath
       clipPathUnits="userSpaceOnUse"
       id="clipPath2922"><g
         id="g2926"><path
           d="M 0,1024 H 768 V 0 H 0 Z"
           id="path2924" /></g></clipPath><clipPath
       clipPathUnits="userSpaceOnUse"
       id="clipPath2916"><g
         id="g2920"><path
           d="M 0,1024 H 768 V 0 H 0 Z"
           id="path2918" /></g></clipPath><clipPath
       clipPathUnits="userSpaceOnUse"
       id="clipPath2910"><g
         id="g2914"><path
           d="M 0,1024 H 768 V 0 H 0 Z"
           id="path2912" /></g></clipPath><clipPath
       clipPathUnits="userSpaceOnUse"
       id="clipPath2904"><g
         id="g2908"><path
           d="M 0,1024 H 768 V 0 H 0 Z"
           id="path2906" /></g></clipPath><clipPath
       clipPathUnits="userSpaceOnUse"
       id="clipPath2898"><g
         id="g2902"><path
           d="M 0,1024 H 768 V 0 H 0 Z"
           id="path2900" /></g></clipPath><clipPath
       clipPathUnits="userSpaceOnUse"
       id="clipPath2892"><g
         id="g2896"><path
           d="M 0,1024 H 768 V 0 H 0 Z"
           id="path2894" /></g></clipPath><clipPath
       clipPathUnits="userSpaceOnUse"
       id="clipPath2886"><g
         id="g2890"><path
           d="M 0,1024 H 768 V 0 H 0 Z"
           id="path2888" /></g></clipPath><clipPath
       clipPathUnits="userSpaceOnUse"
       id="clipPath2880"><g
         id="g2884"><path
           d="M 0,1024 H 768 V 0 H 0 Z"
           id="path2882" /></g></clipPath><clipPath
       clipPathUnits="userSpaceOnUse"
       id="clipPath2874"><g
         id="g2878"><path
           d="M 0,1024 H 768 V 0 H 0 Z"
           id="path2876" /></g></clipPath><clipPath
       clipPathUnits="userSpaceOnUse"
       id="clipPath2868"><g
         id="g2872"><path
           d="M 0,1024 H 768 V 0 H 0 Z"
           id="path2870" /></g></clipPath><clipPath
       clipPathUnits="userSpaceOnUse"
       id="clipPath2862"><g
         id="g2866"><path
           d="M 0,1024 H 768 V 0 H 0 Z"
           id="path2864" /></g></clipPath><clipPath
       clipPathUnits="userSpaceOnUse"
       id="clipPath2856"><g
         id="g2860"><path
           d="M 0,1024 H 768 V 0 H 0 Z"
           id="path2858" /></g></clipPath><clipPath
       clipPathUnits="userSpaceOnUse"
       id="clipPath2850"><g
         id="g2854"><path
           d="M 0,1024 H 768 V 0 H 0 Z"
           id="path2852" /></g></clipPath><clipPath
       clipPathUnits="userSpaceOnUse"
       id="clipPath2844"><g
         id="g2848"><path
           d="M 0,1024 H 768 V 0 H 0 Z"
           id="path2846" /></g></clipPath><clipPath
       clipPathUnits="userSpaceOnUse"
       id="clipPath2838"><g
         id="g2842"><path
           d="M 0,1024 H 768 V 0 H 0 Z"
           id="path2840" /></g></clipPath><clipPath
       clipPathUnits="userSpaceOnUse"
       id="clipPath2832"><g
         id="g2836"><path
           d="M 0,1024 H 768 V 0 H 0 Z"
           id="path2834" /></g></clipPath><clipPath
       clipPathUnits="userSpaceOnUse"
       id="clipPath2826"><g
         id="g2830"><path
           d="M 0,1024 H 768 V 0 H 0 Z"
           id="path2828" /></g></clipPath><clipPath
       clipPathUnits="userSpaceOnUse"
       id="clipPath2820"><g
         id="g2824"><path
           d="M 0,1024 H 768 V 0 H 0 Z"
           id="path2822" /></g></clipPath><clipPath
       clipPathUnits="userSpaceOnUse"
       id="clipPath2814"><g
         id="g2818"><path
           d="M 0,1024 H 768 V 0 H 0 Z"
           id="path2816" /></g></clipPath><clipPath
       clipPathUnits="userSpaceOnUse"
       id="clipPath2808"><g
         id="g2812"><path
           d="M 0,1024 H 768 V 0 H 0 Z"
           id="path2810" /></g></clipPath><clipPath
       clipPathUnits="userSpaceOnUse"
       id="clipPath2802"><g
         id="g2806"><path
           d="M 0,1024 H 768 V 0 H 0 Z"
           id="path2804" /></g></clipPath><clipPath
       clipPathUnits="userSpaceOnUse"
       id="clipPath2796"><g
         id="g2800"><path
           d="M 0,1024 H 768 V 0 H 0 Z"
           id="path2798" /></g></clipPath><clipPath
       clipPathUnits="userSpaceOnUse"
       id="clipPath2790"><g
         id="g2794"><path
           d="M 0,1024 H 768 V 0 H 0 Z"
           id="path2792" /></g></clipPath><clipPath
       clipPathUnits="userSpaceOnUse"
       id="clipPath2784"><g
         id="g2788"><path
           d="M 0,1024 H 768 V 0 H 0 Z"
           id="path2786" /></g></clipPath><clipPath
       clipPathUnits="userSpaceOnUse"
       id="clipPath2778"><g
         id="g2782"><path
           d="M 0,1024 H 768 V 0 H 0 Z"
           id="path2780" /></g></clipPath><clipPath
       clipPathUnits="userSpaceOnUse"
       id="clipPath2772"><g
         id="g2776"><path
           d="M 0,1024 H 768 V 0 H 0 Z"
           id="path2774" /></g></clipPath><clipPath
       clipPathUnits="userSpaceOnUse"
       id="clipPath2766"><g
         id="g2770"><path
           d="M 0,1024 H 768 V 0 H 0 Z"
           id="path2768" /></g></clipPath><clipPath
       clipPathUnits="userSpaceOnUse"
       id="clipPath2760"><g
         id="g2764"><path
           d="M 0,1024 H 768 V 0 H 0 Z"
           id="path2762" /></g></clipPath><clipPath
       clipPathUnits="userSpaceOnUse"
       id="clipPath2754"><g
         id="g2758"><path
           d="M 0,1024 H 768 V 0 H 0 Z"
           id="path2756" /></g></clipPath><clipPath
       clipPathUnits="userSpaceOnUse"
       id="clipPath2748"><g
         id="g2752"><path
           d="M 0,1024 H 768 V 0 H 0 Z"
           id="path2750" /></g></clipPath><clipPath
       clipPathUnits="userSpaceOnUse"
       id="clipPath2742"><g
         id="g2746"><path
           d="M 0,1024 H 768 V 0 H 0 Z"
           id="path2744" /></g></clipPath><clipPath
       clipPathUnits="userSpaceOnUse"
       id="clipPath2736"><g
         id="g2740"><path
           d="M 0,1024 H 768 V 0 H 0 Z"
           id="path2738" /></g></clipPath><clipPath
       clipPathUnits="userSpaceOnUse"
       id="clipPath2730"><g
         id="g2734"><path
           d="M 0,1024 H 768 V 0 H 0 Z"
           id="path2732" /></g></clipPath><clipPath
       clipPathUnits="userSpaceOnUse"
       id="clipPath2724"><g
         id="g2728"><path
           d="M 0,1024 H 768 V 0 H 0 Z"
           id="path2726" /></g></clipPath><clipPath
       clipPathUnits="userSpaceOnUse"
       id="clipPath2718"><g
         id="g2722"><path
           d="M 0,1024 H 768 V 0 H 0 Z"
           id="path2720" /></g></clipPath><clipPath
       clipPathUnits="userSpaceOnUse"
       id="clipPath2712"><g
         id="g2716"><path
           d="M 0,1024 H 768 V 0 H 0 Z"
           id="path2714" /></g></clipPath><clipPath
       clipPathUnits="userSpaceOnUse"
       id="clipPath2706"><g
         id="g2710"><path
           d="M 0,1024 H 768 V 0 H 0 Z"
           id="path2708" /></g></clipPath><clipPath
       clipPathUnits="userSpaceOnUse"
       id="clipPath2700"><g
         id="g2704"><path
           d="M 0,1024 H 768 V 0 H 0 Z"
           id="path2702" /></g></clipPath><clipPath
       clipPathUnits="userSpaceOnUse"
       id="clipPath2694"><g
         id="g2698"><path
           d="M 0,1024 H 768 V 0 H 0 Z"
           id="path2696" /></g></clipPath><clipPath
       clipPathUnits="userSpaceOnUse"
       id="clipPath2688"><g
         id="g2692"><path
           d="M 0,1024 H 768 V 0 H 0 Z"
           id="path2690" /></g></clipPath><clipPath
       clipPathUnits="userSpaceOnUse"
       id="clipPath2682"><g
         id="g2686"><path
           d="M 0,1024 H 768 V 0 H 0 Z"
           id="path2684" /></g></clipPath><clipPath
       clipPathUnits="userSpaceOnUse"
       id="clipPath2676"><g
         id="g2680"><path
           d="M 0,1024 H 768 V 0 H 0 Z"
           id="path2678" /></g></clipPath><clipPath
       clipPathUnits="userSpaceOnUse"
       id="clipPath2670"><g
         id="g2674"><path
           d="M 0,1024 H 768 V 0 H 0 Z"
           id="path2672" /></g></clipPath><clipPath
       clipPathUnits="userSpaceOnUse"
       id="clipPath2664"><g
         id="g2668"><path
           d="M 0,1024 H 768 V 0 H 0 Z"
           id="path2666" /></g></clipPath><clipPath
       clipPathUnits="userSpaceOnUse"
       id="clipPath2658"><g
         id="g2662"><path
           d="M 0,1024 H 768 V 0 H 0 Z"
           id="path2660" /></g></clipPath><clipPath
       clipPathUnits="userSpaceOnUse"
       id="clipPath2652"><g
         id="g2656"><path
           d="M 0,1024 H 768 V 0 H 0 Z"
           id="path2654" /></g></clipPath><clipPath
       clipPathUnits="userSpaceOnUse"
       id="clipPath2646"><g
         id="g2650"><path
           d="M 0,1024 H 768 V 0 H 0 Z"
           id="path2648" /></g></clipPath><clipPath
       clipPathUnits="userSpaceOnUse"
       id="clipPath2640"><g
         id="g2644"><path
           d="M 0,1024 H 768 V 0 H 0 Z"
           id="path2642" /></g></clipPath><clipPath
       clipPathUnits="userSpaceOnUse"
       id="clipPath2634"><g
         id="g2638"><path
           d="M 0,1024 H 768 V 0 H 0 Z"
           id="path2636" /></g></clipPath><clipPath
       clipPathUnits="userSpaceOnUse"
       id="clipPath2628"><g
         id="g2632"><path
           d="M 0,1024 H 768 V 0 H 0 Z"
           id="path2630" /></g></clipPath><clipPath
       clipPathUnits="userSpaceOnUse"
       id="clipPath2622"><g
         id="g2626"><path
           d="M 0,1024 H 768 V 0 H 0 Z"
           id="path2624" /></g></clipPath><clipPath
       clipPathUnits="userSpaceOnUse"
       id="clipPath2616"><g
         id="g2620"><path
           d="M 0,1024 H 768 V 0 H 0 Z"
           id="path2618" /></g></clipPath><clipPath
       clipPathUnits="userSpaceOnUse"
       id="clipPath2610"><g
         id="g2614"><path
           d="M 0,1024 H 768 V 0 H 0 Z"
           id="path2612" /></g></clipPath><clipPath
       clipPathUnits="userSpaceOnUse"
       id="clipPath2604"><g
         id="g2608"><path
           d="M 0,1024 H 768 V 0 H 0 Z"
           id="path2606" /></g></clipPath><clipPath
       clipPathUnits="userSpaceOnUse"
       id="clipPath2598"><g
         id="g2602"><path
           d="M 0,1024 H 768 V 0 H 0 Z"
           id="path2600" /></g></clipPath><clipPath
       clipPathUnits="userSpaceOnUse"
       id="clipPath2592"><g
         id="g2596"><path
           d="M 0,1024 H 768 V 0 H 0 Z"
           id="path2594" /></g></clipPath><clipPath
       clipPathUnits="userSpaceOnUse"
       id="clipPath2586"><g
         id="g2590"><path
           d="M 0,1024 H 768 V 0 H 0 Z"
           id="path2588" /></g></clipPath><clipPath
       clipPathUnits="userSpaceOnUse"
       id="clipPath2580"><g
         id="g2584"><path
           d="M 0,1024 H 768 V 0 H 0 Z"
           id="path2582" /></g></clipPath><clipPath
       clipPathUnits="userSpaceOnUse"
       id="clipPath2574"><g
         id="g2578"><path
           d="M 0,1024 H 768 V 0 H 0 Z"
           id="path2576" /></g></clipPath><clipPath
       clipPathUnits="userSpaceOnUse"
       id="clipPath2568"><g
         id="g2572"><path
           d="M 0,1024 H 768 V 0 H 0 Z"
           id="path2570" /></g></clipPath><clipPath
       clipPathUnits="userSpaceOnUse"
       id="clipPath2562"><g
         id="g2566"><path
           d="M 0,1024 H 768 V 0 H 0 Z"
           id="path2564" /></g></clipPath><clipPath
       clipPathUnits="userSpaceOnUse"
       id="clipPath2556"><g
         id="g2560"><path
           d="M 0,1024 H 768 V 0 H 0 Z"
           id="path2558" /></g></clipPath><clipPath
       clipPathUnits="userSpaceOnUse"
       id="clipPath2550"><g
         id="g2554"><path
           d="M 0,1024 H 768 V 0 H 0 Z"
           id="path2552" /></g></clipPath><clipPath
       clipPathUnits="userSpaceOnUse"
       id="clipPath2544"><g
         id="g2548"><path
           d="M 0,1024 H 768 V 0 H 0 Z"
           id="path2546" /></g></clipPath><clipPath
       clipPathUnits="userSpaceOnUse"
       id="clipPath2538"><g
         id="g2542"><path
           d="M 0,1024 H 768 V 0 H 0 Z"
           id="path2540" /></g></clipPath><clipPath
       clipPathUnits="userSpaceOnUse"
       id="clipPath2532"><g
         id="g2536"><path
           d="M 0,1024 H 768 V 0 H 0 Z"
           id="path2534" /></g></clipPath><clipPath
       clipPathUnits="userSpaceOnUse"
       id="clipPath2526"><g
         id="g2530"><path
           d="M 0,1024 H 768 V 0 H 0 Z"
           id="path2528" /></g></clipPath><clipPath
       clipPathUnits="userSpaceOnUse"
       id="clipPath2520"><g
         id="g2524"><path
           d="M 0,1024 H 768 V 0 H 0 Z"
           id="path2522" /></g></clipPath><clipPath
       clipPathUnits="userSpaceOnUse"
       id="clipPath2514"><g
         id="g2518"><path
           d="M 0,1024 H 768 V 0 H 0 Z"
           id="path2516" /></g></clipPath><clipPath
       clipPathUnits="userSpaceOnUse"
       id="clipPath2508"><g
         id="g2512"><path
           d="M 0,1024 H 768 V 0 H 0 Z"
           id="path2510" /></g></clipPath><clipPath
       clipPathUnits="userSpaceOnUse"
       id="clipPath2502"><g
         id="g2506"><path
           d="M 0,1024 H 768 V 0 H 0 Z"
           id="path2504" /></g></clipPath><clipPath
       clipPathUnits="userSpaceOnUse"
       id="clipPath2496"><g
         id="g2500"><path
           d="M 0,1024 H 768 V 0 H 0 Z"
           id="path2498" /></g></clipPath><clipPath
       clipPathUnits="userSpaceOnUse"
       id="clipPath2490"><g
         id="g2494"><path
           d="M 0,1024 H 768 V 0 H 0 Z"
           id="path2492" /></g></clipPath><clipPath
       clipPathUnits="userSpaceOnUse"
       id="clipPath2484"><g
         id="g2488"><path
           d="M 0,1024 H 768 V 0 H 0 Z"
           id="path2486" /></g></clipPath><clipPath
       clipPathUnits="userSpaceOnUse"
       id="clipPath2478"><g
         id="g2482"><path
           d="M 0,1024 H 768 V 0 H 0 Z"
           id="path2480" /></g></clipPath><clipPath
       clipPathUnits="userSpaceOnUse"
       id="clipPath2472"><g
         id="g2476"><path
           d="M 0,1024 H 768 V 0 H 0 Z"
           id="path2474" /></g></clipPath><clipPath
       clipPathUnits="userSpaceOnUse"
       id="clipPath2466"><g
         id="g2470"><path
           d="M 0,1024 H 768 V 0 H 0 Z"
           id="path2468" /></g></clipPath><clipPath
       clipPathUnits="userSpaceOnUse"
       id="clipPath2460"><g
         id="g2464"><path
           d="M 0,1024 H 768 V 0 H 0 Z"
           id="path2462" /></g></clipPath><clipPath
       clipPathUnits="userSpaceOnUse"
       id="clipPath2454"><g
         id="g2458"><path
           d="M 0,1024 H 768 V 0 H 0 Z"
           id="path2456" /></g></clipPath><clipPath
       clipPathUnits="userSpaceOnUse"
       id="clipPath2448"><g
         id="g2452"><path
           d="M 0,1024 H 768 V 0 H 0 Z"
           id="path2450" /></g></clipPath><clipPath
       clipPathUnits="userSpaceOnUse"
       id="clipPath2442"><g
         id="g2446"><path
           d="M 0,1024 H 768 V 0 H 0 Z"
           id="path2444" /></g></clipPath><clipPath
       clipPathUnits="userSpaceOnUse"
       id="clipPath2436"><g
         id="g2440"><path
           d="M 0,1024 H 768 V 0 H 0 Z"
           id="path2438" /></g></clipPath><clipPath
       clipPathUnits="userSpaceOnUse"
       id="clipPath2430"><g
         id="g2434"><path
           d="M 0,1024 H 768 V 0 H 0 Z"
           id="path2432" /></g></clipPath><clipPath
       clipPathUnits="userSpaceOnUse"
       id="clipPath2424"><g
         id="g2428"><path
           d="M 0,1024 H 768 V 0 H 0 Z"
           id="path2426" /></g></clipPath><clipPath
       clipPathUnits="userSpaceOnUse"
       id="clipPath2418"><g
         id="g2422"><path
           d="M 0,1024 H 768 V 0 H 0 Z"
           id="path2420" /></g></clipPath><clipPath
       clipPathUnits="userSpaceOnUse"
       id="clipPath2412"><g
         id="g2416"><path
           d="M 0,1024 H 768 V 0 H 0 Z"
           id="path2414" /></g></clipPath><clipPath
       clipPathUnits="userSpaceOnUse"
       id="clipPath2406"><g
         id="g2410"><path
           d="M 0,1024 H 768 V 0 H 0 Z"
           id="path2408" /></g></clipPath><clipPath
       clipPathUnits="userSpaceOnUse"
       id="clipPath2400"><g
         id="g2404"><path
           d="M 0,1024 H 768 V 0 H 0 Z"
           id="path2402" /></g></clipPath><clipPath
       clipPathUnits="userSpaceOnUse"
       id="clipPath2394"><g
         id="g2398"><path
           d="M 0,1024 H 768 V 0 H 0 Z"
           id="path2396" /></g></clipPath><clipPath
       clipPathUnits="userSpaceOnUse"
       id="clipPath2388"><g
         id="g2392"><path
           d="M 0,1024 H 768 V 0 H 0 Z"
           id="path2390" /></g></clipPath><clipPath
       clipPathUnits="userSpaceOnUse"
       id="clipPath2382"><g
         id="g2386"><path
           d="M 0,1024 H 768 V 0 H 0 Z"
           id="path2384" /></g></clipPath><clipPath
       clipPathUnits="userSpaceOnUse"
       id="clipPath2376"><g
         id="g2380"><path
           d="M 0,1024 H 768 V 0 H 0 Z"
           id="path2378" /></g></clipPath><clipPath
       clipPathUnits="userSpaceOnUse"
       id="clipPath2370"><g
         id="g2374"><path
           d="M 0,1024 H 768 V 0 H 0 Z"
           id="path2372" /></g></clipPath><clipPath
       clipPathUnits="userSpaceOnUse"
       id="clipPath2364"><g
         id="g2368"><path
           d="M 0,1024 H 768 V 0 H 0 Z"
           id="path2366" /></g></clipPath><clipPath
       clipPathUnits="userSpaceOnUse"
       id="clipPath2358"><g
         id="g2362"><path
           d="M 0,1024 H 768 V 0 H 0 Z"
           id="path2360" /></g></clipPath><clipPath
       clipPathUnits="userSpaceOnUse"
       id="clipPath2352"><g
         id="g2356"><path
           d="M 0,1024 H 768 V 0 H 0 Z"
           id="path2354" /></g></clipPath><clipPath
       clipPathUnits="userSpaceOnUse"
       id="clipPath2346"><g
         id="g2350"><path
           d="M 0,1024 H 768 V 0 H 0 Z"
           id="path2348" /></g></clipPath><clipPath
       clipPathUnits="userSpaceOnUse"
       id="clipPath2340"><g
         id="g2344"><path
           d="M 0,1024 H 768 V 0 H 0 Z"
           id="path2342" /></g></clipPath><clipPath
       clipPathUnits="userSpaceOnUse"
       id="clipPath2334"><g
         id="g2338"><path
           d="M 0,1024 H 768 V 0 H 0 Z"
           id="path2336" /></g></clipPath><clipPath
       clipPathUnits="userSpaceOnUse"
       id="clipPath2328"><g
         id="g2332"><path
           d="M 0,1024 H 768 V 0 H 0 Z"
           id="path2330" /></g></clipPath><clipPath
       clipPathUnits="userSpaceOnUse"
       id="clipPath2322"><g
         id="g2326"><path
           d="M 0,1024 H 768 V 0 H 0 Z"
           id="path2324" /></g></clipPath><clipPath
       clipPathUnits="userSpaceOnUse"
       id="clipPath2316"><g
         id="g2320"><path
           d="M 0,1024 H 768 V 0 H 0 Z"
           id="path2318" /></g></clipPath><clipPath
       clipPathUnits="userSpaceOnUse"
       id="clipPath2310"><g
         id="g2314"><path
           d="M 0,1024 H 768 V 0 H 0 Z"
           id="path2312" /></g></clipPath><clipPath
       clipPathUnits="userSpaceOnUse"
       id="clipPath2304"><g
         id="g2308"><path
           d="M 0,1024 H 768 V 0 H 0 Z"
           id="path2306" /></g></clipPath><clipPath
       clipPathUnits="userSpaceOnUse"
       id="clipPath2298"><g
         id="g2302"><path
           d="M 0,1024 H 768 V 0 H 0 Z"
           id="path2300" /></g></clipPath><clipPath
       clipPathUnits="userSpaceOnUse"
       id="clipPath2292"><g
         id="g2296"><path
           d="M 0,1024 H 768 V 0 H 0 Z"
           id="path2294" /></g></clipPath><clipPath
       clipPathUnits="userSpaceOnUse"
       id="clipPath2286"><g
         id="g2290"><path
           d="M 0,1024 H 768 V 0 H 0 Z"
           id="path2288" /></g></clipPath><clipPath
       clipPathUnits="userSpaceOnUse"
       id="clipPath2280"><g
         id="g2284"><path
           d="M 0,1024 H 768 V 0 H 0 Z"
           id="path2282" /></g></clipPath><clipPath
       clipPathUnits="userSpaceOnUse"
       id="clipPath2274"><g
         id="g2278"><path
           d="M 0,1024 H 768 V 0 H 0 Z"
           id="path2276" /></g></clipPath><clipPath
       clipPathUnits="userSpaceOnUse"
       id="clipPath2268"><g
         id="g2272"><path
           d="M 0,1024 H 768 V 0 H 0 Z"
           id="path2270" /></g></clipPath><clipPath
       clipPathUnits="userSpaceOnUse"
       id="clipPath2262"><g
         id="g2266"><path
           d="M 0,1024 H 768 V 0 H 0 Z"
           id="path2264" /></g></clipPath><clipPath
       clipPathUnits="userSpaceOnUse"
       id="clipPath2256"><g
         id="g2260"><path
           d="M 0,1024 H 768 V 0 H 0 Z"
           id="path2258" /></g></clipPath><clipPath
       clipPathUnits="userSpaceOnUse"
       id="clipPath2250"><g
         id="g2254"><path
           d="M 0,1024 H 768 V 0 H 0 Z"
           id="path2252" /></g></clipPath><clipPath
       clipPathUnits="userSpaceOnUse"
       id="clipPath2244"><g
         id="g2248"><path
           d="M 0,1024 H 768 V 0 H 0 Z"
           id="path2246" /></g></clipPath><clipPath
       clipPathUnits="userSpaceOnUse"
       id="clipPath2238"><g
         id="g2242"><path
           d="M 0,1024 H 768 V 0 H 0 Z"
           id="path2240" /></g></clipPath><clipPath
       clipPathUnits="userSpaceOnUse"
       id="clipPath2232"><g
         id="g2236"><path
           d="M 0,1024 H 768 V 0 H 0 Z"
           id="path2234" /></g></clipPath><clipPath
       clipPathUnits="userSpaceOnUse"
       id="clipPath2226"><g
         id="g2230"><path
           d="M 0,1024 H 768 V 0 H 0 Z"
           id="path2228" /></g></clipPath><clipPath
       clipPathUnits="userSpaceOnUse"
       id="clipPath2220"><g
         id="g2224"><path
           d="M 0,1024 H 768 V 0 H 0 Z"
           id="path2222" /></g></clipPath><clipPath
       clipPathUnits="userSpaceOnUse"
       id="clipPath2214"><g
         id="g2218"><path
           d="M 0,1024 H 768 V 0 H 0 Z"
           id="path2216" /></g></clipPath><clipPath
       clipPathUnits="userSpaceOnUse"
       id="clipPath2208"><g
         id="g2212"><path
           d="M 0,1024 H 768 V 0 H 0 Z"
           id="path2210" /></g></clipPath><clipPath
       clipPathUnits="userSpaceOnUse"
       id="clipPath2202"><g
         id="g2206"><path
           d="M 0,1024 H 768 V 0 H 0 Z"
           id="path2204" /></g></clipPath><clipPath
       clipPathUnits="userSpaceOnUse"
       id="clipPath2196"><g
         id="g2200"><path
           d="M 0,1024 H 768 V 0 H 0 Z"
           id="path2198" /></g></clipPath><clipPath
       clipPathUnits="userSpaceOnUse"
       id="clipPath2190"><g
         id="g2194"><path
           d="M 0,1024 H 768 V 0 H 0 Z"
           id="path2192" /></g></clipPath><clipPath
       clipPathUnits="userSpaceOnUse"
       id="clipPath2184"><g
         id="g2188"><path
           d="M 0,1024 H 768 V 0 H 0 Z"
           id="path2186" /></g></clipPath><clipPath
       clipPathUnits="userSpaceOnUse"
       id="clipPath2178"><g
         id="g2182"><path
           d="M 0,1024 H 768 V 0 H 0 Z"
           id="path2180" /></g></clipPath><clipPath
       clipPathUnits="userSpaceOnUse"
       id="clipPath2172"><g
         id="g2176"><path
           d="M 0,1024 H 768 V 0 H 0 Z"
           id="path2174" /></g></clipPath><clipPath
       clipPathUnits="userSpaceOnUse"
       id="clipPath2166"><g
         id="g2170"><path
           d="M 0,1024 H 768 V 0 H 0 Z"
           id="path2168" /></g></clipPath><clipPath
       clipPathUnits="userSpaceOnUse"
       id="clipPath2160"><g
         id="g2164"><path
           d="M 0,1024 H 768 V 0 H 0 Z"
           id="path2162" /></g></clipPath><clipPath
       clipPathUnits="userSpaceOnUse"
       id="clipPath2154"><g
         id="g2158"><path
           d="M 0,1024 H 768 V 0 H 0 Z"
           id="path2156" /></g></clipPath><clipPath
       clipPathUnits="userSpaceOnUse"
       id="clipPath2148"><g
         id="g2152"><path
           d="M 0,1024 H 768 V 0 H 0 Z"
           id="path2150" /></g></clipPath><clipPath
       clipPathUnits="userSpaceOnUse"
       id="clipPath2142"><g
         id="g2146"><path
           d="M 0,1024 H 768 V 0 H 0 Z"
           id="path2144" /></g></clipPath><clipPath
       clipPathUnits="userSpaceOnUse"
       id="clipPath2136"><g
         id="g2140"><path
           d="M 0,1024 H 768 V 0 H 0 Z"
           id="path2138" /></g></clipPath><clipPath
       clipPathUnits="userSpaceOnUse"
       id="clipPath2130"><g
         id="g2134"><path
           d="M 0,1024 H 768 V 0 H 0 Z"
           id="path2132" /></g></clipPath><clipPath
       clipPathUnits="userSpaceOnUse"
       id="clipPath2124"><g
         id="g2128"><path
           d="M 0,1024 H 768 V 0 H 0 Z"
           id="path2126" /></g></clipPath><clipPath
       clipPathUnits="userSpaceOnUse"
       id="clipPath2118"><g
         id="g2122"><path
           d="M 0,1024 H 768 V 0 H 0 Z"
           id="path2120" /></g></clipPath><clipPath
       clipPathUnits="userSpaceOnUse"
       id="clipPath2112"><g
         id="g2116"><path
           d="M 0,1024 H 768 V 0 H 0 Z"
           id="path2114" /></g></clipPath><clipPath
       clipPathUnits="userSpaceOnUse"
       id="clipPath2106"><g
         id="g2110"><path
           d="M 0,1024 H 768 V 0 H 0 Z"
           id="path2108" /></g></clipPath><clipPath
       clipPathUnits="userSpaceOnUse"
       id="clipPath2100"><g
         id="g2104"><path
           d="M 0,1024 H 768 V 0 H 0 Z"
           id="path2102" /></g></clipPath><clipPath
       clipPathUnits="userSpaceOnUse"
       id="clipPath2094"><g
         id="g2098"><path
           d="M 0,1024 H 768 V 0 H 0 Z"
           id="path2096" /></g></clipPath><clipPath
       clipPathUnits="userSpaceOnUse"
       id="clipPath2088"><g
         id="g2092"><path
           d="M 0,1024 H 768 V 0 H 0 Z"
           id="path2090" /></g></clipPath><clipPath
       clipPathUnits="userSpaceOnUse"
       id="clipPath2082"><g
         id="g2086"><path
           d="M 0,1024 H 768 V 0 H 0 Z"
           id="path2084" /></g></clipPath><clipPath
       clipPathUnits="userSpaceOnUse"
       id="clipPath2076"><g
         id="g2080"><path
           d="M 0,1024 H 768 V 0 H 0 Z"
           id="path2078" /></g></clipPath><clipPath
       clipPathUnits="userSpaceOnUse"
       id="clipPath2070"><g
         id="g2074"><path
           d="M 0,1024 H 768 V 0 H 0 Z"
           id="path2072" /></g></clipPath><clipPath
       clipPathUnits="userSpaceOnUse"
       id="clipPath2064"><g
         id="g2068"><path
           d="M 0,1024 H 768 V 0 H 0 Z"
           id="path2066" /></g></clipPath><clipPath
       clipPathUnits="userSpaceOnUse"
       id="clipPath2058"><g
         id="g2062"><path
           d="M 0,1024 H 768 V 0 H 0 Z"
           id="path2060" /></g></clipPath><clipPath
       clipPathUnits="userSpaceOnUse"
       id="clipPath2052"><g
         id="g2056"><path
           d="M 0,1024 H 768 V 0 H 0 Z"
           id="path2054" /></g></clipPath><clipPath
       clipPathUnits="userSpaceOnUse"
       id="clipPath2046"><g
         id="g2050"><path
           d="M 0,1024 H 768 V 0 H 0 Z"
           id="path2048" /></g></clipPath><clipPath
       clipPathUnits="userSpaceOnUse"
       id="clipPath2040"><g
         id="g2044"><path
           d="M 0,1024 H 768 V 0 H 0 Z"
           id="path2042" /></g></clipPath><clipPath
       clipPathUnits="userSpaceOnUse"
       id="clipPath2034"><g
         id="g2038"><path
           d="M 0,1024 H 768 V 0 H 0 Z"
           id="path2036" /></g></clipPath></defs><g
     id="g1925"
     transform="matrix(0.96646276,0,0,0.96646276,3.2195747,5.810915)"
     style="stroke-width:12.4162;stroke-dasharray:none"><path
       style="fill:none;stroke:#000000;stroke-width:12.4162;stroke-linecap:round;stroke-linejoin:round;stroke-miterlimit:5;stroke-dasharray:none"
       d="m 30.812412,38.54458 c 0,0 20.679453,38.432758 39.322899,40.078548 -1.220977,25.731912 -11.688724,27.919472 -19.454764,40.993972 -9.727383,6.25332 -11.811822,-17.37033 -26.171292,-17.37033 -14.359469,0 6.303157,-63.70219 6.303157,-63.70219 z"
       id="path1713" /><path
       style="fill:none;stroke:#000000;stroke-width:12.4162;stroke-linecap:round;stroke-linejoin:round;stroke-miterlimit:5;stroke-dasharray:none"
       d="m 161.18759,38.544588 c 0,0 -20.67945,38.43275 -39.3229,40.07854 1.22098,25.731922 11.68873,27.919482 19.45477,40.993982 9.72738,6.25332 11.81182,-17.37035 26.17129,-17.37035 14.35946,0 -6.30316,-63.702172 -6.30316,-63.702172 z"
       id="path1713-2" /><path
       style="fill:none;stroke:#000000;stroke-width:12.4162;stroke-linecap:round;stroke-linejoin:round;stroke-miterlimit:5;stroke-dasharray:none"
       d="m 80.818187,62.108442 c 0,0 10.341598,18.107925 2.475123,31.733059 -8.620921,14.931879 2.599057,40.665129 2.599057,40.665129 l 19.896253,0.32754 c 0,0 10.79378,-25.09684 2.28202,-41.093504 -7.19979,-13.530997 1.42283,-31.353087 1.42283,-31.353087 z"
       id="path1849" /><path
       style="fill:none;stroke:#000000;stroke-width:12.4162;stroke-linecap:round;stroke-linejoin:round;stroke-miterlimit:5;stroke-dasharray:none"
       d="M 78.340639,47.382704 111.91328,47.055166 116.82635,18.574376 96.414824,30.082785 71.62611,19.497394 Z"
       id="path1916" /><path
       style="fill:none;stroke:#000000;stroke-width:12.4162;stroke-linecap:round;stroke-linejoin:round;stroke-miterlimit:5;stroke-dasharray:none"
       d="m 62.764774,137.25956 14.127865,28.95054 17.601931,-16.67551 19.45477,18.52835 15.28589,-29.87696"
       id="path1918" /></g></svg>
