<svg xmlns="http://www.w3.org/2000/svg" width="192" height="192" fill="none" viewBox="0 0 192 192"><path stroke="#000" stroke-linecap="round" stroke-linejoin="round" stroke-width="12" d="M32.999 43.062s19.986 37.143 38.004 38.734c-1.18 24.869-11.296 26.984-18.802 39.619-9.402 6.043-11.416-16.787-25.294-16.787s6.092-61.566 6.092-61.566m126.003 0s-19.987 37.143-38.004 38.734c1.179 24.869 11.296 26.984 18.801 39.619 9.402 6.043 11.416-16.787 25.294-16.787s-6.091-61.566-6.091-61.566M81.327 65.835s9.995 17.5 2.392 30.67c-8.33 14.43 2.513 39.3 2.513 39.3l19.229.317s10.43-24.256 2.205-39.715c-6.958-13.077 1.375-30.301 1.375-30.301zm-2.395-14.231 32.447-.317 4.749-27.525L96.4 34.884l-23.957-10.23zM63.88 138.466l13.654 27.98 17.012-16.116 18.801 17.906 14.773-28.875"/></svg>