<svg width="192" height="192" viewBox="0 0 192 192" fill="none" xmlns="http://www.w3.org/2000/svg">
<path d="M85.4529 103.753C88.2528 99.9447 100.999 82.6102 100.999 82.6102M85.4529 103.753C82.6529 107.561 85.3719 112.935 90.0984 112.935H95.0047C96.8389 112.935 98.5638 112.062 99.6503 110.584L115.197 89.4419C117.996 85.634 115.277 80.2597 110.551 80.2597H105.645C103.81 80.2597 102.085 81.1325 100.999 82.6102M85.4529 103.753L100.999 82.6102M172 97.0779V96.5974M172 96.5974V78.3377C172 76.1921 171.577 74.0677 170.756 72.0855C169.936 70.1034 168.732 68.3023 167.215 66.7852C165.698 65.2681 163.897 64.0647 161.915 63.2437C159.932 62.4226 157.807 62 155.662 62H137.883C134.963 62 132.597 64.3665 132.597 67.2857C132.597 70.205 134.963 72.5714 137.883 72.5714H149.896C153.081 72.5714 155.662 75.1531 155.662 78.3377V98.5195C155.662 100.642 153.941 102.364 151.818 102.364H147.472C142.913 102.364 140.157 97.3215 142.619 93.4837L145.212 89.4419C148.012 85.634 145.294 80.2597 140.566 80.2597H135.537C133.69 80.2597 131.955 81.1443 130.87 82.6389L124.183 91.8529C122.582 94.0582 122.744 97.0833 124.571 99.1054L135.348 111.034C136.442 112.244 137.996 112.935 139.626 112.935H155.662C157.807 112.935 159.932 112.512 161.915 111.691C163.897 110.871 165.698 109.667 167.215 108.15C168.732 106.633 169.936 104.832 170.756 102.85C171.577 100.867 172 98.7429 172 96.5974ZM53.9522 90.8314C58.7339 90.8313 61.438 96.3164 58.526 100.109L55.7284 103.753C52.9285 107.561 55.6475 112.935 60.374 112.935H62.7316C64.355 112.935 65.9032 112.251 66.9959 111.05L77.0823 99.9687C79.2502 97.5873 79.047 93.8917 76.6312 91.762L65.2185 81.7008C64.1652 80.7723 62.8094 80.26 61.4053 80.26H24.3247C21.9362 80.26 20 82.1962 20 84.5847C20 86.9731 21.9362 88.9094 24.3247 88.9094C26.7131 88.9094 28.6494 90.8456 28.6494 93.2341V123.506C28.6494 126.691 31.231 129.273 34.4156 129.273H39.2208C42.4054 129.273 44.987 126.691 44.987 123.506V94.6756C44.987 92.5524 46.7082 90.8313 48.8315 90.8314H53.9522Z" stroke="black" stroke-width="8" stroke-linecap="round" stroke-linejoin="round"/>
</svg>
