<svg width="192" height="192" viewBox="0 0 192 192" fill="none" xmlns="http://www.w3.org/2000/svg"><path d="M22 55v90a6 6 0 0 0 6 6h136a6 6 0 0 0 6-6V55m0 0s-9.5-15-37-15-37 15-37 15-8-15-37-15-37 15-37 15" stroke="#000" stroke-width="12" stroke-linecap="round" stroke-linejoin="round"/><path d="M170 141s-9.5-15-37-15-37 15-37 15-8-15-37-15-37 15-37 15" stroke="#000" stroke-width="12" stroke-linecap="round" stroke-linejoin="round"/><path d="M44 82s8-8 26-8 26 8 26 8m0 0s8-8 26-8 26 8 26 8M44 106s8-8 26-8 26 8 26 8m0 0s8-8 26-8 26 8 26 8" stroke="#000" stroke-width="10" stroke-linecap="round" stroke-linejoin="round"/></svg>