<svg xmlns="http://www.w3.org/2000/svg" width="192" height="192" fill="none" viewBox="0 0 192 192"><g stroke="#000" stroke-linecap="round" stroke-width="4.625"><path d="M46.853 24.746v-4.319c0-2.762 2.611-4.789 5.304-4.116l17.054 4.26a5.31 5.31 0 0 1 4.034 5.146v28.658c0 2.763-2.611 4.789-5.304 4.116l-10.09-2.52" transform="matrix(2.5351 0 0 2.6556 -15.545 -20.844)"/><path stroke-linecap="square" d="M30.805 31.18v-4.154c0-2.763 2.61-4.79 5.304-4.117l17.053 4.26a5.31 5.31 0 0 1 4.034 5.146v28.658c0 2.763-2.61 4.79-5.304 4.116L41.76 62.558" transform="matrix(2.5351 0 0 2.6556 -15.545 -20.844)"/><path d="M18.79 67.427a5.31 5.31 0 0 1-4.034-5.146V33.623c0-2.763 2.61-4.789 5.304-4.116l17.054 4.26a5.31 5.31 0 0 1 4.033 5.146V67.57c0 2.762-2.61 4.789-5.304 4.116z" transform="matrix(2.5351 0 0 2.6556 -15.545 -20.844)"/></g></svg>