<svg xmlns="http://www.w3.org/2000/svg" width="192" height="192" viewBox="0 0 192 192"><path fill="none" stroke="#000" stroke-linejoin="round" stroke-width="12" d="M130.294 45.58H22.001v116.843h30.141V124.41h57.756l26.352 38.013H170l-29.058-38.188q13.537-2.102 19.493-9.985c3.97-5.255 5.956-13.664 5.956-24.875v-8.759c0-6.657-.721-11.912-1.985-15.941s-3.43-7.533-6.498-10.686c-3.249-2.978-6.858-5.08-11.19-6.481-4.332-1.226-9.747-1.927-16.424-1.927zm-4.873 53.08H52.142V71.331h73.279c4.15 0 7.038.7 8.482 1.927 1.444 1.226 2.347 3.503 2.347 6.832v9.81c0 3.503-.903 5.78-2.347 7.006s-4.331 1.752-8.482 1.752z"/><path d="M163.929 43.578c5.52 0 9.998-4.477 9.998-10s-4.478-10-9.998-10c-5.524 0-10.002 4.477-10.002 10s4.478 10 10.002 10"/></svg>