<svg xmlns="http://www.w3.org/2000/svg" width="192" height="192" fill="none"><path stroke="#000" stroke-linecap="round" stroke-linejoin="round" stroke-width="12" d="M34 28c4-1 10 0 10 0 3 0-2 10-2 10l-10-1.5C31 35 33 34 34 28m136 6c-30 11-53-12-90-12-6 0-24 25-38 23 0 0-4 7-20 15l4 5c0 12 11 22.5 16 36.5 32 25 52 36.5 64 68.5"/><path stroke="#000" stroke-linecap="round" stroke-linejoin="round" stroke-width="12" d="M82 53c-9 16-13 34-13 34m36-30c-8 13-19.5 46.5-19.5 46.5m45-44.5C117 79 106 104 104 121m50.5-61C145 87 127 109 122 136"/></svg>