<svg xmlns="http://www.w3.org/2000/svg" width="192" height="192" fill="none"><path stroke="#000" stroke-linecap="round" stroke-linejoin="round" stroke-width="12" d="M158 144V58L91 71v86m0-62 67-13"/><ellipse cx="73" cy="157" stroke="#000" stroke-linecap="round" stroke-linejoin="round" stroke-width="12" rx="18" ry="13"/><ellipse cx="140" cy="144" stroke="#000" stroke-linecap="round" stroke-linejoin="round" stroke-width="12" rx="18" ry="13"/><path stroke="#000" stroke-linecap="round" stroke-linejoin="round" stroke-width="10" d="M69 25.015c0 3.69 5.055 7.272 9 9.985 3.945-2.713 9-6.295 9-9.985 0-.527-.118-1.049-.347-1.536a4 4 0 0 0-.99-1.303 4.6 4.6 0 0 0-1.479-.87A5.1 5.1 0 0 0 82.438 21c-.599 0-1.192.104-1.745.306a4.6 4.6 0 0 0-1.48.87c-.424.373-.76.816-.99 1.303a4 4 0 0 0-.17.428 4 4 0 0 0-.158-.395 4.1 4.1 0 0 0-1.003-1.32 4.7 4.7 0 0 0-1.5-.882 5.2 5.2 0 0 0-1.769-.31c-.607 0-1.208.105-1.769.31-.56.204-1.07.504-1.5.882a4.1 4.1 0 0 0-1.002 1.32A3.65 3.65 0 0 0 69 25.07M33 88.016c0 3.69 5.055 7.27 9 9.984 3.945-2.713 9-6.295 9-9.984 0-.528-.118-1.05-.347-1.537a4 4 0 0 0-.99-1.303 4.6 4.6 0 0 0-1.479-.87A5.1 5.1 0 0 0 46.438 84c-.599 0-1.192.104-1.745.306a4.6 4.6 0 0 0-1.48.87c-.424.373-.76.816-.99 1.303a4 4 0 0 0-.17.428 4 4 0 0 0-.158-.395 4.1 4.1 0 0 0-1.003-1.32 4.7 4.7 0 0 0-1.5-.882 5.2 5.2 0 0 0-1.769-.31c-.607 0-1.208.105-1.769.31-.56.204-1.07.504-1.5.882a4.1 4.1 0 0 0-1.002 1.32A3.65 3.65 0 0 0 33 88.07"/></svg>