<svg width="192" height="192" viewBox="0 0 192 192" fill="none" xmlns="http://www.w3.org/2000/svg"><path d="M48 108c7-4 15-4 28-10 7 10 20 15 20 15m0 40v-15l-34-14 1 29 4.57 1.524a6 6 0 0 1 3.713 7.82l-1.814 4.784a6 6 0 0 1-5.61 3.872H56m-16-6.695a15.072 15.072 0 0 1-2.625-10.171c.945-9.432 2.423-20.216 4.574-29.847M144 108c-7-4-15-4-28-10-7 10-20 15-20 15m0 40v-15l34-14-1 29-4.571 1.524a5.999 5.999 0 0 0-3.712 7.82l1.814 4.784a6 6 0 0 0 5.61 3.872H136m16-6.695a15.07 15.07 0 0 0 2.625-10.171c-.945-9.432-2.423-20.216-4.574-29.847M96 86c13 0 17-13 17-13l1-7 4-10-4-2s6.233-8.102 0-18.403M96 86c-13 0-17-13-17-13l-1-7-4-10 4-2s-10-13 8-27l5 3.5s7-7.5 11-9.5" stroke="#000" stroke-width="10" stroke-linecap="round" stroke-linejoin="round"/></svg>