<?xml version="1.0" encoding="UTF-8" standalone="no"?>
<svg
   width="192"
   height="192"
   viewBox="0 0 50.8 50.8"
   version="1.1"
   id="svg692"
   sodipodi:docname="s_pushtan.svg"
   xmlns:inkscape="http://www.inkscape.org/namespaces/inkscape"
   xmlns:sodipodi="http://sodipodi.sourceforge.net/DTD/sodipodi-0.dtd"
   xmlns="http://www.w3.org/2000/svg"
   xmlns:svg="http://www.w3.org/2000/svg">
  <sodipodi:namedview
     id="namedview694"
     pagecolor="#ffffff"
     bordercolor="#000000"
     borderopacity="0.25"
     inkscape:showpageshadow="2"
     inkscape:pageopacity="0.0"
     inkscape:pagecheckerboard="0"
     inkscape:deskcolor="#d1d1d1"
     showgrid="false"
     showguides="true">
    <sodipodi:guide
       position="51.755874,46.569513"
       orientation="0,-1"
       id="guide1400"
       inkscape:locked="false" />
    <sodipodi:guide
       position="46.562182,47.059958"
       orientation="1,0"
       id="guide1402"
       inkscape:locked="false" />
  </sodipodi:namedview>
  <defs
     id="defs674">
    <clipPath
       id="a-3">
      <path
         fill="#ffffff"
         d="M 0,0 H 192 V 192 H 0 Z"
         id="path1772-6" />
    </clipPath>
  </defs>
  <g
     style="display:inline;stroke-width:2.32143;stroke-dasharray:none"
     id="g690"
     transform="matrix(0.91179244,0,0,0.91179244,5.4541012,-2.1776087)">
    <g
       style="display:inline;stroke-width:2.32143;stroke-miterlimit:4;stroke-dasharray:none"
       id="g678" />
    <g
       style="stroke-width:2.32143;stroke-miterlimit:4;stroke-dasharray:none"
       id="g688">
      <path
         style="fill:none;stroke:#000000;stroke-width:5.61112;stroke-linecap:round;stroke-linejoin:round;stroke-miterlimit:4;stroke-dasharray:none;stroke-opacity:1"
         d="M 101.876,59.807 V 33.41"
         transform="matrix(0.40171,0,0,0.42609,-18.676,-5.986)"
         id="path680" />
      <path
         style="fill:none;stroke:#000000;stroke-width:5.61112;stroke-linecap:round;stroke-linejoin:round;stroke-miterlimit:4;stroke-dasharray:none;stroke-opacity:1"
         d="M 111.686,33.41 H 94.213"
         transform="matrix(0.40171,0,0,0.42609,-19.107,-5.986)"
         id="path682" />
      <path
         style="fill:none;stroke:#000000;stroke-width:5.61112;stroke-linecap:round;stroke-linejoin:round;stroke-miterlimit:4;stroke-dasharray:none;stroke-opacity:1"
         d="m 113.676,59.86 8.953,-26.396 8.92,26.396"
         transform="matrix(0.40171,0,0,0.42609,-18.761,-6.009)"
         id="path684" />
      <path
         style="fill:none;stroke:#000000;stroke-width:5.61112;stroke-linecap:round;stroke-linejoin:round;stroke-miterlimit:4;stroke-dasharray:none;stroke-opacity:1"
         d="m 115.846,52.724 h 13.117 M 140.7,59.807 V 33.41 l 15.24,26.396 V 33.41"
         transform="matrix(0.40171,0,0,0.42609,-18.676,-5.986)"
         id="path686" />
    </g>
  </g>
  <g
     clip-path="url(#a-3)"
     id="g1770"
     transform="matrix(0.18636889,0,0,0.18636889,-1.5441023,13.765694)">
    <path
       fill-rule="evenodd"
       clip-rule="evenodd"
       d="m 60.425,73.435 c -2.405,0 -4.513,0.262 -6.632,1.176 -2.12,0.902 -4.101,2.215 -5.694,3.779 -1.58,1.564 -2.657,3.55 -3.55,5.674 -0.917,2.1 -1.42,4.213 -1.42,6.61 v 38.28 h 75.029 c 2.944,0 5.338,2.386 5.338,5.321 0,2.934 -2.394,5.32 -5.338,5.32 h -73.14 c -0.887,0 -1.642,0.612 -1.847,1.435 a 1.866,1.866 0 0 0 -0.054,0.434 v 4.98 c 0,2.41 0.515,4.738 1.42,6.851 0.905,2.112 1.993,3.859 3.551,5.434 1.58,1.564 3.563,2.877 5.693,3.779 2.12,0.914 4.227,1.416 6.633,1.416 h 70.173 c 2.405,0 4.512,-0.502 6.632,-1.416 2.13,-0.902 4.123,-2.226 5.692,-3.779 1.582,-1.575 2.876,-3.322 3.793,-5.434 0.916,-2.113 1.179,-4.441 1.179,-6.851 V 108.165 H 72.739 c -2.875,0 -5.212,-2.33 -5.212,-5.195 0,-2.866 2.337,-5.195 5.212,-5.195 h 75.144 v -7.09 c 0,-1.78 -0.139,-3.41 -0.59,-4.986 a 12.587,12.587 0 0 0 -0.589,-1.624 l 0.011,-0.011 c -0.905,-2.124 -2.211,-4.099 -3.791,-5.674 -1.569,-1.564 -3.552,-2.877 -5.693,-3.78 -2.12,-0.913 -4.228,-1.175 -6.633,-1.175 z M 31,141.437 v 5.007 c 0,4.127 0.882,8.064 2.394,11.594 1.373,3.205 3.235,6.307 6.064,9.167 l 0.093,0.094 c 2.715,2.687 5.99,4.837 9.458,6.309 3.43,1.473 7.158,2.392 11.405,2.392 h 70.173 c 4.248,0 7.977,-0.919 11.408,-2.393 3.471,-1.475 6.755,-3.637 9.454,-6.308 l 0.031,-0.031 c 2.444,-2.435 4.71,-5.413 6.345,-9.18 1.854,-4.273 2.175,-8.479 2.175,-11.644 V 90.686 c 0,-3.038 -0.291,-6.763 -1.889,-10.726 a 12.174,12.174 0 0 0 -0.244,-0.617 c -1.465,-3.439 -3.613,-6.739 -6.376,-9.493 -2.722,-2.713 -6.015,-4.87 -9.499,-6.344 -4.172,-1.788 -8.078,-2.147 -11.394,-2.147 h -10.251 a 28.58,28.58 0 0 0 2.384,-4.356 l 0.016,-0.04 0.025,-0.055 a 29.507,29.507 0 0 0 2.394,-11.593 c 0,-4.317 -0.984,-8.017 -2.372,-11.301 A 75.583,75.583 0 0 0 122.74,33.89 c -1.442,-3.306 -3.55,-6.602 -6.304,-9.367 -2.945,-2.956 -6.16,-4.81 -9.294,-6.138 A 29.522,29.522 0 0 0 95.512,16 c -4.104,0 -8.05,0.848 -11.645,2.392 -3.306,1.403 -6.32,3.262 -9.124,5.977 l -0.058,0.057 -0.067,0.066 c -2.796,2.787 -4.905,6.119 -6.335,9.398 l -0.032,0.073 c -1.438,3.357 -2.394,7.07 -2.394,11.352 0,4.148 0.907,8.078 2.373,11.542 l 0.062,0.146 a 28.524,28.524 0 0 0 2.384,4.356 H 60.425 c -3.321,0 -7.236,0.36 -11.415,2.156 -3.452,1.473 -6.708,3.614 -9.416,6.274 l -0.031,0.03 c -3.2,3.168 -5.017,6.802 -6.16,9.505 -1.482,3.423 -2.392,7.145 -2.392,11.35 v 1.17 h -0.01 v 49.593 z M 102.384,29.492 a 17.367,17.367 0 0 0 -6.873,-1.416 17.33,17.33 0 0 0 -6.873,1.416 c -2.13,0.902 -3.848,1.986 -5.452,3.54 -1.57,1.563 -2.875,3.573 -3.792,5.673 -0.905,2.112 -1.42,4.213 -1.42,6.61 0,2.398 0.527,4.738 1.42,6.85 0.917,2.09 2.223,3.87 3.792,5.435 a 21.112,21.112 0 0 0 2.52,2.135 16.179,16.179 0 0 0 2.861,1.624 l 0.072,0.031 a 17.658,17.658 0 0 0 6.873,1.416 c 2.405,0 4.753,-0.525 6.872,-1.416 l 0.073,-0.031 c 1.026,-0.451 1.976,-1 2.872,-1.624 a 17.877,17.877 0 0 0 2.508,-2.135 c 1.569,-1.564 2.876,-3.345 3.791,-5.434 a 17.455,17.455 0 0 0 1.421,-6.85 c 0,-2.398 -0.527,-4.499 -1.421,-6.61 -0.915,-2.102 -2.222,-4.1 -3.791,-5.675 -1.569,-1.575 -3.344,-2.649 -5.453,-3.54 z"
       fill="#000000"
       id="path1768" />
  </g>
</svg>
