<svg width="192" height="192" viewBox="0 0 192 192" fill="none" xmlns="http://www.w3.org/2000/svg"><path d="m88 105 8 8 12-12" stroke="#000" stroke-width="10" stroke-linecap="round" stroke-linejoin="round"/><path d="M128 82H70a6 6 0 0 0-6 6v44m64-30v24a6 6 0 0 1-6 6H84m28-66v16M80 66v16" stroke="#000" stroke-width="10" stroke-linecap="round" stroke-linejoin="round"/><path d="M152.687 143.566a73.996 73.996 0 0 0-.838-96.114 74.003 74.003 0 0 0-95.063-14.208 74 74 0 0 0 57.116 134.558" stroke="#000" stroke-width="12" stroke-linecap="round" stroke-linejoin="round"/><path d="M112 66a16.001 16.001 0 0 0-27.314-11.314A16 16 0 0 0 80 66" stroke="#000" stroke-width="10" stroke-linecap="round" stroke-linejoin="round"/></svg>