<svg xmlns="http://www.w3.org/2000/svg" width="192" height="192" fill="none"><path stroke="#000" stroke-linecap="round" stroke-linejoin="round" stroke-width="12" d="M81.48 91.523S100.096 60 48.996 60C32.606 60 22 71.463 22 89.612c0 30.568 25.068 63.045 35.674 63.045 12.534 0 14.704-18.149 14.704-18.149m9.101-42.985c-7.29 12.747-9.335 28.478-9.097 42.985.11 6.818.726 13.366 1.537 19.206 1.815 13.065 15.484 19.879 27.574 14.358 14.025-6.404 31.343-15.421 41.992-24.967 17.032-15.267 24.513-31.886 26.459-57.817.71-9.46-5.386-18.025-14.794-19.786-17.274-3.233-45.558-4.4-65.658 15.513-3.192 3.162-5.836 6.702-8.013 10.508"/><path stroke="#000" stroke-linecap="round" stroke-linejoin="round" stroke-width="12" d="M137 63s-15-41-40.5-41S55 59 55 59"/></svg>