<svg xmlns="http://www.w3.org/2000/svg" width="192" height="192" fill="none"><path stroke="#000" stroke-linecap="round" stroke-linejoin="round" stroke-width="12" d="M126.13 156.325C81 167.777 22 148.808 22 148.808s5.193-8.775 15-20.908m89.129 28.43a43 43 0 0 0 16.15-8.282 43 43 0 0 0 11.287-14.197 42.87 42.87 0 0 0-9.172-50.32 43 43 0 0 0-15.572-9.319A43.07 43.07 0 0 0 93.5 77.686c-9.278 5.546-17.746 11.787-25.347 18.21m-2.283-60.22C111 24.224 170 43.193 170 43.193s-5.193 8.774-15 20.907M65.87 35.67a43 43 0 0 0-16.149 8.282A42.9 42.9 0 0 0 38.435 58.15a42.87 42.87 0 0 0 9.17 50.319 43.03 43.03 0 0 0 33.61 11.39 43 43 0 0 0 17.285-5.544c9.278-5.545 17.746-11.787 25.347-18.21"/></svg>