<svg width="192" height="192" viewBox="0 0 192 192" fill="none" xmlns="http://www.w3.org/2000/svg"><path d="M78 147H62a6 6 0 0 0-6 6v12a6 6 0 0 0 6 6h16a6 6 0 0 0 6-6v-12a6 6 0 0 0-6-6Zm52 0h-16a6 6 0 0 0-6 6v12a6 6 0 0 0 6 6h16a6 6 0 0 0 6-6v-12a6 6 0 0 0-6-6ZM78 98H62a6 6 0 0 0-6 6v12a6 6 0 0 0 6 6h16a6 6 0 0 0 6-6v-12a6 6 0 0 0-6-6Zm52 0h-16a6 6 0 0 0-6 6v12a6 6 0 0 0 6 6h16a6 6 0 0 0 6-6v-12a6 6 0 0 0-6-6Z" stroke="#000" stroke-width="10" stroke-linecap="round" stroke-linejoin="round"/><path d="M98 22a71.999 71.999 0 0 0-72 72" stroke="#000" stroke-width="12" stroke-linecap="round" stroke-linejoin="round"/><path d="M166 94a72.005 72.005 0 0 0-44.447-66.52A71.997 71.997 0 0 0 94 22" stroke="#000" stroke-width="12" stroke-linecap="round" stroke-linejoin="round"/><circle cx="26" cy="96" r="5" stroke="#000" stroke-width="10" stroke-linecap="round" stroke-linejoin="round"/><circle cx="5" cy="5" r="5" transform="matrix(1 0 0 -1 161 101)" stroke="#000" stroke-width="10" stroke-linecap="round" stroke-linejoin="round"/><path d="m26 96 30 65m80 0 30-65M26 96l30 15m80 0 30-15" stroke="#000" stroke-width="10" stroke-linecap="round" stroke-linejoin="round"/></svg>