<svg xmlns="http://www.w3.org/2000/svg" width="192" height="192" fill="none"><path stroke="#000" stroke-linecap="round" stroke-linejoin="round" stroke-width="10" d="M94.915 122c-20.784 0-33.552-3.532-45.822-7.625L47 92.668l.72-.285c11.692 6.77 32.478 11.437 46.765 11.437 14.435 0 19.63-3.668 19.63-9.167 0-7.938-9.091-10.204-14.577-11.052L79.19 79.937C63.74 77.399 47 73.757 47 53.719 47 31.013 71.248 21 97.948 21c16.308 0 32.615 2.4 42.718 7.337l-7.931 19.894c-10.971-5.357-26.701-7.9-37.525-7.9-7.651 0-17.033 1.53-17.033 10.044 0 8.215 11.256 9.125 15.731 10.189l16.309 3.386C132.157 68.194 145 74.962 145 89.45c0 24.677-24.101 32.55-50.082 32.55zM62 161c-8 0-15 4-15 4v-20s7-4 15-4c12 0 20 10 34 10s22-10 34-10c8 0 15 4 15 4v20s-7-4-15-4c-12 0-20 10-34 10s-22-10-34-10"/></svg>