<?xml version="1.0" encoding="UTF-8" standalone="no"?>
<svg
   id="b"
   viewBox="0 0 192 192"
   version="1.1"
   width="192"
   height="192"
   xml:space="preserve"
   xmlns="http://www.w3.org/2000/svg"
   xmlns:svg="http://www.w3.org/2000/svg"><defs
     id="defs1"><style
       id="style1">.e{fill:none;stroke:#fff;stroke-linecap:round;stroke-linejoin:round;}</style></defs><path
     class="e"
     d="m 137.615,160.70524 c -19.48297,-11.24338 -23.24085,9.29452 -41.616687,9.29452 -18.375842,0 -22.129675,-20.5379 -41.613313,-9.29452"
     id="path2"
     style="stroke:#000000;stroke-width:12;stroke-dasharray:none;stroke-opacity:1" /><path
     stroke="#000000"
     stroke-linecap="round"
     stroke-linejoin="round"
     stroke-width="14"
     d="m 96.000003,76.371858 c -6.221495,0 -12.304286,-1.564503 -17.47695,-4.496851 -5.173375,-2.932341 -9.204981,-7.100204 -11.586478,-11.975749 -2.381498,-4.875544 -3.003504,-10.241639 -1.790234,-15.417655 1.213985,-5.176017 4.210339,-9.930932 8.609428,-13.662343 4.399796,-3.732142 10.005007,-6.273361 16.1071,-7.303447 6.102094,-1.029355 12.427261,-0.500787 18.175461,1.518445 5.74819,2.019231 10.66132,5.439934 14.11811,9.828582 3.45606,4.387915 5.30135,9.546386 5.30135,14.824753 M 96.000003,76.371858 c 6.221487,0 12.303567,1.564502 17.476947,4.49685 5.17337,2.932347 9.20498,7.100207 11.58647,11.975739 2.3815,4.875553 3.00351,10.240923 1.79023,15.417673 -1.21397,5.17602 -4.21034,9.93093 -8.60942,13.66234 -4.3998,3.73214 -10.00501,6.27337 -16.1071,7.30345 -6.102099,1.02935 -12.427258,0.50078 -18.175457,-1.51845 -5.7482,-2.01923 -10.661327,-5.43993 -14.118113,-9.82858 -3.456067,-4.38792 -5.301352,-9.54712 -5.301352,-14.82476"
     id="path1-9"
     style="fill:none;stroke:#000000;stroke-opacity:1" /></svg>
