<svg xmlns="http://www.w3.org/2000/svg" xmlns:xlink="http://www.w3.org/1999/xlink" width="192" height="192" viewBox="0 0 192 192" fill="none"><defs><rect id="path_0" x="0" y="0" width="192" height="192" /></defs><g opacity="1" transform="translate(0 0)  rotate(0 96 96)"><mask id="bg-mask-0" fill="white"><use xlink:href="#path_0"/></mask><g mask="url(#bg-mask-0)" ><path  id="路径 1" style="stroke:#000000; stroke-width:12; stroke-opacity:1; stroke-dasharray:0 0" transform="translate(35 16)  rotate(0 61.45296700783651 80)" d="M63,26.5L60.38,33.5L60.38,160L70.19,160L80,160L84.5,160L89.5,159.35L94,158.69L98.62,157.39L104.5,155L108.5,152.5L112,150L116,146.5L120,140.5L122.91,133.5L122.91,0L113.21,0L105.91,0L99.21,1.5L92.5,3L85.03,5.55L78.24,8.98L73,13L69,16.75L66,20.5L63,26.5Z M34.09,130L29.59,126L24.09,122.48L13.08,117.55L0,115.86L0,160L47.09,160L46.09,153.8L45.09,147.59L43.09,142.5L40.09,137.14L37.09,133.5L34.09,130Z " /></g></g></svg>
