<svg width="192" height="192" viewBox="0 0 192 192" fill="none" xmlns="http://www.w3.org/2000/svg"><path d="M40 78v48s0 26 12 26m100-74v48s0 26-12 26" stroke="#000" stroke-width="12" stroke-linecap="round" stroke-linejoin="round"/><path d="M120 68c0 6 0 20-24 44M72 68c0 6 0 20 24 44" stroke="#000" stroke-width="10" stroke-linecap="round" stroke-linejoin="round"/><path d="M140.5 152c-16.5 0-10.5-22-22.5-24s-10 10-22 10m-44 14c16.5 0 10.5-22 22.5-24s10 10 22 10M152 78a55.987 55.987 0 0 0-16.402-39.598A55.993 55.993 0 0 0 96 22a56.002 56.002 0 0 0-56 56" stroke="#000" stroke-width="12" stroke-linecap="round" stroke-linejoin="round"/><path d="M120 68a24.002 24.002 0 0 0-33.184-22.173A24 24 0 0 0 72 68" stroke="#000" stroke-width="10" stroke-linecap="round" stroke-linejoin="round"/><path d="M81 172c4-5.647 4-8.941 4-10.353 0-.742-.103-1.476-.305-2.161a6.178 6.178 0 0 0-.867-1.832 4.24 4.24 0 0 0-1.297-1.224A3.017 3.017 0 0 0 81 156c-.525 0-1.045.146-1.53.43a4.24 4.24 0 0 0-1.298 1.224 6.178 6.178 0 0 0-.867 1.832 7.708 7.708 0 0 0-.305 2.161c0 1.412 0 4.706 4 10.353Zm30 0c4-5.647 4-8.941 4-10.353 0-.742-.103-1.476-.304-2.161a6.192 6.192 0 0 0-.868-1.832 4.236 4.236 0 0 0-1.297-1.224A3.02 3.02 0 0 0 111 156a3.02 3.02 0 0 0-1.531.43c-.485.284-.926.7-1.297 1.224a6.192 6.192 0 0 0-.868 1.832 7.708 7.708 0 0 0-.304 2.161c0 1.412 0 4.706 4 10.353Z" stroke="#000" stroke-width="8" stroke-linecap="round" stroke-linejoin="round"/></svg>