<svg width="24" height="24" viewBox="0 0 24 24" fill="none" xmlns="http://www.w3.org/2000/svg">
<path fill-rule="evenodd" clip-rule="evenodd" d="M2 8C2 5.79086 3.79086 4 6 4H18C20.2091 4 22 5.79086 22 8V15C22 17.2091 20.2091 19 18 19H9.5L6 22V19C3.79086 19 2 17.2091 2 15V8ZM6.5 13C7.60457 13 8.5 12.1046 8.5 11C8.5 9.89543 7.60457 9 6.5 9C5.39543 9 4.5 9.89543 4.5 11C4.5 12.1046 5.39543 13 6.5 13ZM12 13C13.1046 13 14 12.1046 14 11C14 9.89543 13.1046 9 12 9C10.8954 9 10 9.89543 10 11C10 12.1046 10.8954 13 12 13ZM17.5 13C18.6046 13 19.5 12.1046 19.5 11C19.5 9.89543 18.6046 9 17.5 9C16.3954 9 15.5 9.89543 15.5 11C15.5 12.1046 16.3954 13 17.5 13Z" fill="#FFF1C0"/>
</svg>
