<svg width="24" height="24" viewBox="0 0 24 24" fill="none" xmlns="http://www.w3.org/2000/svg">
<path fill-rule="evenodd" clip-rule="evenodd" d="M12 22C17.5228 22 22 17.5228 22 12C22 6.47715 17.5228 2 12 2C6.47715 2 2 6.47715 2 12C2 17.5228 6.47715 22 12 22ZM11 5C11 4.44772 11.4477 4 12 4C12.5523 4 13 4.44772 13 5V11.5858L16.2071 14.7929C16.5976 15.1834 16.5976 15.8166 16.2071 16.2071C15.8166 16.5976 15.1834 16.5976 14.7929 16.2071L11.2971 12.7112C11.2824 12.6968 11.2682 12.6818 11.2545 12.6665C11.1841 12.5879 11.1283 12.5008 11.0871 12.4088C11.0311 12.284 11 12.1456 11 12V5Z" fill="#FFF1C0"/>
</svg>
