<svg width="192" height="192" viewBox="0 0 192 192" fill="none" xmlns="http://www.w3.org/2000/svg"><path d="M96 142v28" stroke="#000" stroke-width="12" stroke-linecap="round" stroke-linejoin="round"/><path stroke="#000" stroke-width="8" stroke-linecap="round" stroke-linejoin="round" d="M84 60h8v8h-8z"/><path d="M64 50.856a6 6 0 0 1 2.216-4.657L96 22l29.784 24.2A6 6 0 0 1 128 50.855V82a6 6 0 0 1-6 6H70a6 6 0 0 1-6-6V50.856ZM116 170v-21.717a20.002 20.002 0 0 0 22.846 3.654 20.001 20.001 0 0 0-4.944-37.553 19.999 19.999 0 0 0-18.314 5.749 24.005 24.005 0 0 0-36.558-3.104 24.023 24.023 0 0 0-2.618 3.104 20 20 0 1 0-.412 28.15V170" stroke="#000" stroke-width="12" stroke-linecap="round" stroke-linejoin="round"/></svg>