<svg xmlns="http://www.w3.org/2000/svg" width="192" height="192" fill="none" stroke="#000" stroke-width="12" viewBox="0 0 192 192"><path stroke-linecap="round" stroke-width="6" d="M96 64V24m30.91 80.282 38.637 10.353m-99.772-10.353-38.637 10.353m97.474-32.965 35.764-17.914M68.073 81.67 32.31 63.755m70.127 63.591 8.047 39.182m-20.236-39.182-8.047 39.182m25.395-100.353 14.494-37.282m-37 37.282L70.595 28.893m51.213 86.027 32.259 23.65m-83.19-23.65-32.26 23.65m89.243-45.56 39.825-3.735M64.825 93.01 25 89.276m92.658-16.833 27.073-29.446M75.027 72.443 47.954 42.997m65.195 80.02 21.435 33.772m-55.047-33.772L58.1 156.789"/><circle cx="96" cy="96" r="74"/><circle cx="96" cy="96" r="32"/></svg>