<svg width="192" height="192" viewBox="0 0 192 192" fill="none" xmlns="http://www.w3.org/2000/svg"><path d="m87 102-4 7 7 4" stroke="#000" stroke-width="10" stroke-linecap="round" stroke-linejoin="round"/><path d="M93.5 57.115c-7.5-6.123-6.5-26.84 5-25 11.5 1.84 4.5 22.877-5 25Zm0 0s-10 8-22.5-4m22.5 4s10 12 24 5" stroke="#000" stroke-width="8" stroke-linecap="round" stroke-linejoin="round"/><path d="M27 96c0 37.003 29.997 67 67 67 27.822 0 51.684-16.959 61.812-41.103a16.011 16.011 0 0 0 9.125-4.219 15.987 15.987 0 0 0 5.054-12.202 15.995 15.995 0 0 0-9.137-13.934C158.56 56.618 129.505 29 94 29c-23.757 0-44.625 12.364-56.522 31.008a16.003 16.003 0 0 0-15.47 16.515 16 16 0 0 0 5.46 11.521A67.707 67.707 0 0 0 27 96Z" stroke="#000" stroke-width="12" stroke-linecap="round" stroke-linejoin="round"/><path d="M86.753 137.046a28.002 28.002 0 0 0 27.046-7.247" stroke="#000" stroke-width="12" stroke-linecap="round" stroke-linejoin="round"/><circle cx="64" cy="87" r="4" stroke="#000" stroke-width="8" stroke-linecap="round" stroke-linejoin="round"/><circle cx="122" cy="94" r="4" stroke="#000" stroke-width="8" stroke-linecap="round" stroke-linejoin="round"/></svg>