<svg xmlns="http://www.w3.org/2000/svg" width="192" height="192" fill="none" viewBox="0 0 192 192"><path stroke="#000" stroke-linejoin="round" stroke-width="12" d="M94.92 22c-6.559 0-11.876 5.307-11.876 11.853v3.434C63.71 42.884 49.576 60.691 49.576 81.793v22.55a71.327 71.327 0 0 0-19.089 25.938h131.026a71.333 71.333 0 0 0-19.089-25.938v-22.55c0-21.88-15.195-40.218-35.628-45.075v-2.865c0-6.546-5.317-11.853-11.876-11.853Z"/><path fill="#000" d="M94.96 176c9.189 0 16.638-7.449 16.638-16.638 0-9.189-7.449-16.638-16.638-16.638-9.19 0-16.638 7.449-16.638 16.638 0 9.189 7.449 16.638 16.638 16.638Z"/></svg>