<svg width="192" height="192" viewBox="0 0 192 192" fill="none" xmlns="http://www.w3.org/2000/svg"><path d="m128 57.645 8.877-3.374a6.027 6.027 0 0 1 6.057 1.051l21.965 18.783a5.994 5.994 0 0 1 1.586 6.987l-22.774 51.333c-1.366 3.079-5.002 4.435-8.057 3.005L79 108.913M50.5 93.5l5.5 2.604M99.11 51l7.39 3.5m-29 32L72 84m15-14 10.5 5" stroke="#000" stroke-width="12" stroke-linecap="round" stroke-linejoin="round"/><path d="m51 138 10.938-20.964a6.046 6.046 0 0 1 3.197-2.85c6.275-2.417 25.174-9.86 40.365-17.546" stroke="#000" stroke-width="12" stroke-linecap="round" stroke-linejoin="round"/><path d="M105.5 96.641c6.124-3.289 11.282-7.932 15.016-13.518s5.929-11.943 6.392-18.507c.462-6.564-.822-13.133-3.741-19.124-2.918-5.992-7.38-11.222-12.99-15.226-5.61-4.005-12.196-6.66-19.173-7.732a46.07 46.07 0 0 0-20.826 1.589c-6.696 2.114-12.728 5.732-17.562 10.533-4.834 4.801-8.32 10.637-10.15 16.991" stroke="#000" stroke-width="12" stroke-linecap="round" stroke-linejoin="round"/><circle cx="38" cy="164" r="6" stroke="#000" stroke-width="12" stroke-linecap="round" stroke-linejoin="round"/></svg>