<svg width="192" height="192" fill="none" xmlns="http://www.w3.org/2000/svg"><path d="M39 136h114M39 170h114" stroke="#000" stroke-width="12" stroke-linecap="round" stroke-linejoin="round"/><circle cx="39" cy="39" r="17" stroke="#000" stroke-width="12" stroke-linecap="round" stroke-linejoin="round"/><circle cx="39" cy="96" r="17" stroke="#000" stroke-width="12" stroke-linecap="round" stroke-linejoin="round"/><path d="M39 136a17.006 17.006 0 0 0-15.706 10.494 17.006 17.006 0 0 0 3.685 18.527A17.003 17.003 0 0 0 39 170m114 0a17 17 0 1 0 0-34" stroke="#000" stroke-width="12" stroke-linecap="round" stroke-linejoin="round"/><circle cx="96" cy="39" r="17" stroke="#000" stroke-width="12" stroke-linecap="round" stroke-linejoin="round"/><circle cx="96" cy="39" r="17" stroke="#000" stroke-width="12" stroke-linecap="round" stroke-linejoin="round"/><path d="M143.526 21C139.7 21 135 24 135 31c0 8 11.013 16.923 18 24 6.992-7.077 18-16.003 18-24 0-6.997-4.705-10-8.526-10-4.671 0-7.449 3.797-9.474 7-2.034-3.218-4.812-7-9.474-7Z" stroke="#000" stroke-width="10" stroke-miterlimit="2" stroke-linecap="round" stroke-linejoin="round"/><circle cx="96" cy="96" r="17" stroke="#000" stroke-width="12" stroke-linecap="round" stroke-linejoin="round"/><circle cx="153" cy="96" r="17" stroke="#000" stroke-width="12" stroke-linecap="round" stroke-linejoin="round"/></svg>