<svg xmlns="http://www.w3.org/2000/svg" width="192" height="192" fill="none"><path stroke="#000" stroke-linecap="round" stroke-linejoin="round" stroke-width="10" d="M108.176 119.319a20.002 20.002 0 0 0 10.691-31.494 20 20 0 0 0-10.691-7.144m-18.352 0a20 20 0 0 0 0 38.638M75 76.68l14.82 4m18.36 38.64 14.82 4"/><path stroke="#000" stroke-linecap="round" stroke-linejoin="round" stroke-width="12" d="M50 143h96m-96 0a28 28 0 0 1-22.214-10.955 27.998 27.998 0 0 1 11.499-42.914 28 28 0 0 1 11.091-2.129A48 48 0 0 1 145.958 95a24 24 0 0 1 23.224 17.788A24 24 0 0 1 146 143"/></svg>