<?xml version="1.0" encoding="UTF-8" standalone="no"?>
<!-- Created with Inkscape (http://www.inkscape.org/) -->

<svg
   width="192"
   height="192"
   viewBox="0 0 50.799999 50.8"
   version="1.1"
   id="svg5"
   xml:space="preserve"
   xmlns="http://www.w3.org/2000/svg"
   xmlns:svg="http://www.w3.org/2000/svg"><defs
     id="defs2" /><g
     id="layer1"><path
       style="display:inline;opacity:1;fill:none;fill-opacity:1;fill-rule:evenodd;stroke:#000000;stroke-width:2.11667;stroke-linecap:round;stroke-linejoin:round;stroke-miterlimit:0;stroke-dasharray:none;stroke-opacity:1"
       d="M 20.719734,37.608092 16.3214,33.699139 Z"
       id="path3233" /><path
       style="display:inline;opacity:1;fill:none;fill-opacity:1;fill-rule:evenodd;stroke:#000000;stroke-width:3.175;stroke-linecap:round;stroke-linejoin:round;stroke-miterlimit:0;stroke-dasharray:none;stroke-opacity:1"
       d="m 11.881923,31.365544 c -0.936471,1.059695 -1.872909,2.119353 -1.756894,3.092008 0.116015,0.972655 1.284161,1.858022 2.748464,2.954332 1.464304,1.096309 3.224634,2.403467 4.7875,3.347071 1.562866,0.943603 2.928086,1.523636 4.293015,2.103545"
       id="path3235" /><path
       style="display:inline;opacity:1;fill:none;fill-opacity:1;fill-rule:evenodd;stroke:#000000;stroke-width:3.175;stroke-linecap:round;stroke-linejoin:round;stroke-miterlimit:0;stroke-dasharray:none;stroke-opacity:1"
       d="m 11.881923,31.365544 c 0,0 7.382144,-7.627726 7.382144,-7.627726 0.434906,-0.43268 0.869804,-0.865353 1.546017,-1.078674 0.676214,-0.213322 1.593424,-0.207279 2.510386,-0.201237"
       id="path3239" /><path
       style="display:inline;opacity:1;fill:none;fill-opacity:1;fill-rule:evenodd;stroke:#000000;stroke-width:3.175;stroke-linecap:round;stroke-linejoin:round;stroke-miterlimit:0;stroke-dasharray:none;stroke-opacity:1"
       d="M 32.687092,42.333333 40.36388,34.662935"
       id="path3251" /><path
       style="display:inline;opacity:1;fill:none;fill-opacity:1;fill-rule:evenodd;stroke:#000000;stroke-width:3.175;stroke-linecap:round;stroke-linejoin:round;stroke-miterlimit:0;stroke-dasharray:none;stroke-opacity:1"
       d="m 40.36388,34.662935 c 0.142901,-0.252116 0.285848,-0.504313 0.363624,-1.036343 0.07778,-0.53203 0.09033,-1.344022 -0.01241,-1.97082 -0.102734,-0.626799 -0.320902,-1.068416 -0.688054,-1.350586 -0.367152,-0.282171 -0.883407,-0.404619 -1.399981,-0.527142"
       id="path3253" /><path
       style="display:inline;opacity:1;fill:none;fill-opacity:1;fill-rule:evenodd;stroke:#000000;stroke-width:3.175;stroke-linecap:round;stroke-linejoin:round;stroke-miterlimit:0;stroke-dasharray:none;stroke-opacity:1"
       d="m 32.687092,42.333333 c 0.01546,-4.720307 0.03093,-9.440778 -0.452523,-12.359698 -0.483449,-2.918921 -1.466017,-4.036059 -2.44885,-5.1535"
       id="path3992" /><path
       style="display:inline;opacity:1;fill:none;fill-opacity:1;fill-rule:evenodd;stroke:#000000;stroke-width:3.175;stroke-linecap:round;stroke-linejoin:round;stroke-miterlimit:0;stroke-dasharray:none;stroke-opacity:1"
       d="m 29.926978,20.188236 c 0.808908,-0.08677 1.617568,-0.173517 2.159202,-0.874632 0.541633,-0.701115 0.816377,-2.016307 0.762772,-2.800343 -0.05361,-0.784037 -0.435737,-1.035726 -0.617684,-1.843322 C 32.04932,13.862342 32.068196,12.499376 31.677161,11.406831 31.286126,10.314287 30.48453,9.4914264 29.333229,9.0170827 28.181927,8.542739 26.680814,8.4169879 25.435733,8.7347127 24.190652,9.0524374 23.201999,9.8136528 22.584965,10.55419 21.96793,11.294728 21.722676,12.014326 21.47747,12.733782"
       id="path3996" /><path
       style="display:inline;opacity:1;fill:none;fill-opacity:1;fill-rule:evenodd;stroke:#000000;stroke-width:3.175;stroke-linecap:round;stroke-linejoin:round;stroke-miterlimit:0;stroke-dasharray:none;stroke-opacity:1"
       d="m 21.954008,16.892038 c -1.622683,0.142282 -3.245573,0.284581 -4.32113,0.66946 -1.075556,0.384879 -1.603433,1.01226 -2.135415,1.602901 -0.531982,0.590641 -1.068054,1.144527 -1.583817,1.352309 -0.515763,0.207781 -1.011504,0.06937 -1.507569,-0.06913"
       id="path4000" /><path
       style="display:inline;opacity:1;fill:none;fill-opacity:1;fill-rule:evenodd;stroke:#000000;stroke-width:2.11667;stroke-linecap:round;stroke-linejoin:round;stroke-miterlimit:0;stroke-dasharray:none;stroke-opacity:1"
       d="M 20.719734,37.608092 19.88997,31.070456"
       id="path4004" /></g></svg>
