<svg xmlns="http://www.w3.org/2000/svg" width="192" height="192" fill="none" stroke="#000" stroke-linecap="round" stroke-width="12" viewBox="0 0 192 192"><path stroke-width="10" d="M113.141 161.949v-25.085m0-13.378v13.378m27.593 25.085v-25.085c0-15.887-27.593-12.542-27.593 0m-87.796-15.887v14.215m0 25.921v-25.921m25.92 25.921v-25.921c0-13.378-27.593-12.542-25.92 0m25.92 0c0-13.378 26.758-13.378 25.921 0v25.921m19.232-37.627v37.627m61.04-35.955v37.627"/><path stroke-linejoin="round" d="M170 43.215 151.605 87.81m-9.198 22.297 9.198-22.297m0 0-20.904-44.595M22 94.22V66.627m0 0V30a1 1 0 0 1 1-1h18.44a19.023 19.023 0 0 1 19.023 19.023v0c0 10.667-8.77 19.25-19.436 19.018L22 66.627zm91.141-23.412v50.17"/><circle cx="96" cy="110" r="3.5" stroke-width="5"/><circle cx="157" cy="111" r="3.5" stroke-width="5"/><ellipse cx="90.565" cy="67.463" rx="20.904" ry="21.74"/></svg>