<svg xmlns="http://www.w3.org/2000/svg" width="192" height="192" viewBox="0 0 50.8 50.8"><g fill="none" stroke="#000" stroke-linecap="round" stroke-linejoin="round" stroke-width="3.175"><path stroke-width="2.117" d="m19.994 40.75-5.93-4.89z"/><path d="M10.118 33.482c-.936 1.06-1.967 1.746-1.851 2.719s1.379 2.231 2.843 3.327 3.225 2.404 4.788 3.348c1.562.943 2.928 1.523 4.293 2.103M10.118 33.482l4.661-4.966 4.485-4.778c.435-.433.87-.866 1.546-1.079s1.594-.207 2.51-.201m8.84 22.522c.016-4.721 1.172-12.283.688-15.202-.483-2.919-2.22-4.342-3.203-5.46m.57-5.243c.809-.086 2.318-.434 2.86-1.135s.732-3.436.678-4.22-.68-1.068-.862-1.875c-.182-.808.03-2.112-.36-3.205-.391-1.092-1.658-1.795-2.81-2.269-2.635-.891-5.265-.85-7.069 1.277-.617.74-.984 1.661-1.23 2.38m.277 3.947c-1.53.557-3.062 1.115-4 1.765-.94.65-1.288 1.393-1.649 2.1-.36.709-.893 1-1.337 1.335s-1.856 1.112-2.37 1.106"/><path stroke-width="2.117" d="m19.994 40.75-1.888-8.365"/><path d="m32.16 44.98 9.675-8.46m0 0c.834-.756 1.668-1.513 1.981-2.58s.107-2.446-.278-3.19-.947-.853-1.51-.963"/></g></svg>