<svg width="24" height="24" viewBox="0 0 24 24" fill="none" xmlns="http://www.w3.org/2000/svg">
<path fill-rule="evenodd" clip-rule="evenodd" d="M4 5C2.89543 5 2 5.89543 2 7V18C2 19.1046 2.89543 20 4 20H21C22.1046 20 23 19.1046 23 18V7C23 5.89543 22.1046 5 21 5H4ZM4.64279 7.76604C4.28779 8.18912 4.34297 8.81988 4.76604 9.17488L12.4265 15.6028L12.473 15.5473L12.5195 15.6028L20.18 9.17488C20.6031 8.81988 20.6582 8.18912 20.3032 7.76604C19.9482 7.34297 19.3175 7.28779 18.8944 7.64279L12.473 13.031L6.05162 7.64279C5.62854 7.28779 4.99779 7.34297 4.64279 7.76604Z" fill="#FFF1C0"/>
</svg>
