<?xml version="1.0" encoding="UTF-8" standalone="no"?>
<svg
   width="192"
   height="192"
   fill="none"
   stroke="#000"
   stroke-width="12"
   version="1.1"
   id="svg3"
   xmlns="http://www.w3.org/2000/svg"
   xmlns:svg="http://www.w3.org/2000/svg">
  <defs
     id="defs3" />
  <path
     d="m 162.05675,82.578873 c 0,-42.624389 -4.69528,-41.084755 -47.31692,-41.085772 H 69.316894 c -42.621647,0 -47.316925,4.735931 -47.316925,47.36032 0,42.624389 4.695278,47.359299 47.316925,47.360319 h 32.887276"
     style="fill:none;stroke:#000000;stroke-width:12;stroke-linecap:round;stroke-linejoin:round;stroke-dasharray:none;stroke-opacity:1"
     id="path1" />
  <path
     stroke-linejoin="round"
     d="M 112.84789,88.853421 78.778649,68.01492 v 41.677 z"
     style="stroke-width:12;stroke-linecap:round;stroke-dasharray:none"
     id="path2" />
  <g
     id="g4"
     style="stroke-linecap:round;stroke-linejoin:round">
    <path
       stroke-linecap="round"
       stroke-linejoin="round"
       stroke-width="6.438"
       d="m 118.707,136.594 -1.547,13.97 13.963,-1.547 35.63654,-35.67318 a 6.0047786,6.0047786 89.993367 0 0 -9.8e-4,-8.48866 l -3.91212,-3.91432 a 5.9983817,5.9983817 0.00844609 0 0 -8.48413,-0.001 z"
       style="stroke-width:9.82908;stroke-linecap:round;stroke-linejoin:round;stroke-dasharray:none"
       id="path3"
       transform="matrix(1.0171743,0,0,1.0176041,-0.37786387,-1.6991082)" />
    <path
       style="fill:none;stroke:#000000;stroke-width:10;stroke-linecap:round;stroke-linejoin:round;stroke-miterlimit:32;stroke-dasharray:none"
       d="m 134.60663,123.41294 12.07342,12.07851 z"
       id="path4" />
  </g>
</svg>
