<svg width="192" height="192" viewBox="0 0 192 192" fill="none" xmlns="http://www.w3.org/2000/svg"><circle cx="22" cy="111" r="3" stroke="#000" stroke-width="6" stroke-linecap="round" stroke-linejoin="round"/><circle cx="69" cy="111" r="3" stroke="#000" stroke-width="6" stroke-linecap="round" stroke-linejoin="round"/><circle cx="93" cy="111" r="3" stroke="#000" stroke-width="6" stroke-linecap="round" stroke-linejoin="round"/><path d="M70 137a26.012 26.012 0 0 1-18.385-7.615A26.014 26.014 0 0 1 44 111a26.005 26.005 0 0 1 16.05-24.02 26.004 26.004 0 0 1 6.513-1.752 41.002 41.002 0 0 1 69.428-22.22 40.999 40.999 0 0 1 11.446 22.22 26.002 26.002 0 0 1 14.948 44.157A26 26 0 0 1 144 137m-74 0h28m32 0h14" stroke="#000" stroke-width="12" stroke-linecap="round" stroke-linejoin="round"/><path d="m114 99 12 12-12 12" stroke="#000" stroke-width="10" stroke-linecap="round" stroke-linejoin="round"/></svg>