<svg xmlns="http://www.w3.org/2000/svg" width="192" height="192" fill="none" viewBox="0 0 192 192"><path stroke="#000" stroke-linecap="round" stroke-linejoin="round" stroke-width="12" d="M40 135h112M40 167h112"/><circle cx="41" cy="41" r="16" stroke="#000" stroke-linecap="round" stroke-linejoin="round" stroke-width="12"/><circle cx="41" cy="96" r="16" stroke="#000" stroke-linecap="round" stroke-linejoin="round" stroke-width="12"/><path stroke="#000" stroke-linecap="round" stroke-linejoin="round" stroke-width="12" d="M40 135a16 16 0 0 0 0 32m112 0c4.243 0 8.313-1.686 11.314-4.686A16 16 0 0 0 152 135"/><circle cx="96" cy="41" r="16" stroke="#000" stroke-linecap="round" stroke-linejoin="round" stroke-width="12"/><path stroke="#000" stroke-linecap="round" stroke-linejoin="round" stroke-miterlimit="2" stroke-width="10" d="M139 24c-4.039 0-9 3-9 10 0 8 11.624 16.923 19 24 7.38-7.077 19-16.003 19-24 0-6.997-4.967-10-9-10-4.93 0-7.863 3.797-10 7-2.147-3.218-5.08-7-10-7"/><circle cx="96" cy="96" r="16" stroke="#000" stroke-linecap="round" stroke-linejoin="round" stroke-width="12"/><circle cx="151" cy="96" r="16" stroke="#000" stroke-linecap="round" stroke-linejoin="round" stroke-width="12"/></svg>