<?xml version="1.0" encoding="UTF-8" standalone="no"?>
<!-- Created with Inkscape (http://www.inkscape.org/) -->

<svg
   width="24"
   height="24"
   viewBox="0 0 6.3499999 6.3500002"
   version="1.1"
   id="svg5"
   sodipodi:docname="samsung_health.svg"
   inkscape:version="1.1.1 (3bf5ae0d25, 2021-09-20)"
   xmlns:inkscape="http://www.inkscape.org/namespaces/inkscape"
   xmlns:sodipodi="http://sodipodi.sourceforge.net/DTD/sodipodi-0.dtd"
   xmlns="http://www.w3.org/2000/svg"
   xmlns:svg="http://www.w3.org/2000/svg">
  <sodipodi:namedview
     id="namedview6"
     pagecolor="#ffffff"
     bordercolor="#666666"
     borderopacity="1.0"
     inkscape:pageshadow="2"
     inkscape:pageopacity="0.0"
     inkscape:pagecheckerboard="0"
     showgrid="false"
     inkscape:zoom="11.313709"
     inkscape:cx="3.2261745"
     inkscape:cy="4.2868347"
     inkscape:window-width="1920"
     inkscape:window-height="1009"
     inkscape:window-x="-8"
     inkscape:window-y="-8"
     inkscape:window-maximized="1"
     inkscape:current-layer="layer4" />
  <defs
     id="defs2" />
  <g
     inkscape:groupmode="layer"
     id="layer4"
     inkscape:label="Layer 1">
    <path
       fill="#ffffff"
       d="m 3.2648624,5.8208334 c -0.3023513,0 -0.6804462,-0.037765 -0.9827975,-0.226815 C 1.9797136,5.4049706 1.1859636,4.8002686 1.0724521,4.7247321 0.95914816,4.6491951 0.73233276,4.4223807 1.0724521,4.0822615 1.4125714,3.7421423 2.1685535,2.9106246 2.2820649,2.7971128 2.3955764,2.6836014 2.5844162,2.5702974 2.9245356,2.6458334 2.9623036,2.494554 2.9623036,2.1166668 2.7732562,1.8898514 2.5464408,2.0411308 2.2063215,2.7213694 1.8282266,2.7213694 c -0.3023513,0 -0.4913986,-0.1890474 -0.5669346,-0.3023513 0.113304,0.037768 0.2268153,0 0.4158628,-0.2268154 C 1.8662022,1.9653873 2.0930176,1.77634 2.6977202,1.8143154 2.5844162,1.5875001 2.5844162,1.4364282 2.5844162,1.2851487 c 0,-0.1512793 0.1890474,-0.75598203 0.8315181,-0.75598203 0.5669347,0 0.831518,0.45363077 0.831518,0.60470273 0,0.1512793 0,0.4158627 0,0.4536307 0,0.037768 0.075536,0.037768 0.075536,0.1133039 0,0.075536 0,0.3401192 -0.075536,0.4913987 -0.037768,0.075536 -0.1133039,0.1133039 -0.1890474,0.1133039 -0.075744,0 -0.1890473,0 -0.1890473,0 l -0.113304,0.6424709 c 0,0 0.4913987,0.3401193 0.4913987,0.755982 0,0.4158628 0,1.2096126 0,1.2096126 L 5.0034344,4.3466372 C 4.9656664,4.2711002 4.852155,4.006518 4.9656664,3.8552388 5.0789703,3.7039595 5.2302497,3.6661917 5.3057856,3.6661917 c 0.075536,0 0.1512795,0.075537 0.1512795,0.1890471 0,0.1135113 0,0.4158627 0,0.4913984 0,0.075537 0,0.1133043 -0.075536,0.1890479 C 5.3059931,4.6112221 4.5500111,5.4049706 4.3987317,5.518482 4.2474522,5.6319941 3.831797,5.8208334 3.2648624,5.8208334 Z M 2.4333444,5.0648514 2.206529,3.9309823 1.6773622,4.3468451 Z"
       id="path28"
       style="fill:#000000;stroke-width:0.264583" />
  </g>
</svg>
