<svg xmlns="http://www.w3.org/2000/svg" width="192" height="192" fill="none" viewBox="0 0 192 192"><path stroke="#000" stroke-linecap="round" stroke-linejoin="round" stroke-width="10" d="M108.249 59.175a8 8 0 0 1-7.295 6.454m22.513 4.581a12.5 12.5 0 0 1-11.398 10.084m26.619.949a17 17 0 0 1-15.502 13.715"/><path stroke="#000" stroke-linejoin="round" stroke-width="12" d="m23.753 105.757 82.004-82.004a6 6 0 0 1 8.486 0l53.995 54.004a6 6 0 0 1 0 8.485l-81.996 81.996a6 6 0 0 1-8.485 0l-54.004-53.995a6 6 0 0 1 0-8.486Z"/></svg>