<svg width="192" height="192" viewBox="0 0 192 192" fill="none" xmlns="http://www.w3.org/2000/svg"><path d="m96 22 59.013 34.266A6 6 0 0 1 158 61.454V96M66 42 36.82 60.237A6 6 0 0 0 34 65.326V136m29 17 30.045 16.279a6.001 6.001 0 0 0 5.864-.082L158 135" stroke="#000" stroke-width="12" stroke-linecap="round" stroke-linejoin="round"/><path d="M83.132 74C75.972 74 69 77.75 69 88.138 69 103.143 96 122 96 122s27-18.857 27-33.862C123 77.75 116.034 74 108.882 74c-5.585 0-9.845 3.888-12.882 8.571C92.949 77.866 88.703 74 83.132 74Z" stroke="#000" stroke-width="12" stroke-miterlimit="2" stroke-linecap="round" stroke-linejoin="round"/></svg>