<svg xmlns="http://www.w3.org/2000/svg" width="192" height="192" fill="none" stroke="#000" stroke-linecap="round" stroke-linejoin="round" stroke-width="12" viewBox="0 0 192 192"><path d="M134 78V64a6 6 0 0 0-6-6H36a6 6 0 0 0-6 6v100a6 6 0 0 0 6 6h92a6 6 0 0 0 6-6v-14"/><path d="M134 78h10s0 16 16 12l10 14c-7 3-7 10-7 10m-29 36h10s0-16 16-12l10-14c-7-3-7-10-7-10m-29-36h-10s0 16-16 12l-10 14c7 3 7 10 7 10m29 36h-10s0-16-16-12l-10-14c7-3 7-10 7-10"/><circle cx="82" cy="40" r="18"/><circle cx="48" cy="114" r="18"/><circle cx="134" cy="114" r="5" stroke-width="10"/></svg>