<?xml version="1.0" standalone="no"?>
<!DOCTYPE svg PUBLIC "-//W3C//DTD SVG 20010904//EN"
 "http://www.w3.org/TR/2001/REC-SVG-20010904/DTD/svg10.dtd">
<svg version="1.0" xmlns="http://www.w3.org/2000/svg"
 width="192.000000pt" height="192.000000pt" viewBox="0 0 192.000000 192.000000"
 preserveAspectRatio="xMidYMid meet">

<g transform="translate(0.000000,192.000000) scale(0.100000,-0.100000)"
fill="#000000" stroke="none">
<path d="M1460 1515 l-155 -155 -95 95 c-97 96 -128 113 -158 83 -30 -30 -13
-62 83 -158 l95 -95 -95 -95 c-73 -73 -95 -102 -95 -122 0 -27 23 -48 53 -48
9 0 59 42 114 94 l98 94 96 -94 c98 -96 123 -109 153 -78 32 31 19 57 -79 154
l-95 95 155 155 c158 159 173 181 139 214 -33 34 -56 20 -214 -139z"/>
<path d="M438 1605 c-270 -99 -291 -458 -35 -592 45 -24 63 -28 142 -28 78 0
97 4 140 27 68 35 122 92 154 158 21 44 26 70 26 131 0 67 -4 84 -35 145 -59
114 -161 175 -294 173 -34 0 -78 -7 -98 -14z m218 -120 c64 -38 97 -93 102
-170 4 -54 0 -70 -23 -114 -108 -197 -405 -125 -405 99 0 170 179 271 326 185z"/>
<path d="M421 868 c-66 -25 -137 -93 -171 -163 -36 -73 -35 -188 1 -265 33
-70 89 -126 159 -159 45 -21 69 -26 135 -26 98 0 158 25 227 92 66 65 92 129
93 223 0 65 -4 84 -33 142 -75 152 -249 218 -411 156z m232 -110 c63 -35 100
-95 105 -172 5 -77 -17 -126 -79 -180 -48 -40 -85 -50 -164 -44 -101 8 -176
85 -183 188 -8 116 45 194 158 231 39 13 117 2 163 -23z"/>
<path d="M1225 862 c-73 -35 -147 -113 -169 -179 -9 -26 -16 -79 -16 -118 0
-60 5 -82 30 -133 35 -69 92 -125 159 -156 66 -30 197 -29 262 3 68 32 121 81
154 142 23 44 30 69 33 135 4 73 1 89 -22 140 -33 72 -85 127 -151 162 -39 20
-68 26 -135 29 -78 4 -90 2 -145 -25z m206 -87 c92 -33 159 -138 145 -227 -19
-118 -102 -188 -221 -188 -67 0 -121 25 -163 75 -72 88 -67 199 11 282 65 68
142 88 228 58z"/>
</g>
</svg>
