<svg width="192" height="192" viewBox="0 0 192 192" fill="none" xmlns="http://www.w3.org/2000/svg">
<path d="M22 141.379C22 152.538 31.046 161.584 42.2048 161.584H73.427H135.242H149.29C160.449 161.584 169.495 152.538 169.495 141.379C169.495 131.379 163.411 123.076 150.656 121.459C147.905 121.11 145.513 119.273 144.538 116.677C138.426 100.417 122.731 88.8464 104.334 88.8464C85.9375 88.8464 70.243 100.417 64.1312 116.677C63.1556 119.273 60.7785 121.174 58.0059 121.174H42.2048C31.046 121.174 22 130.22 22 141.379Z" stroke="black" stroke-width="12" stroke-linejoin="round"/>
<path d="M49.3281 119.659C47.9802 115.18 47.2559 110.432 47.2559 105.515C47.2559 78.4553 69.1924 56.5188 96.2524 56.5188C123.313 56.5188 145.249 78.4553 145.249 105.515C145.249 108.092 145.05 110.623 144.667 113.092" stroke="black" stroke-width="12" stroke-linecap="round" stroke-linejoin="round"/>
<path d="M22 104H31.2499M160.75 104H170M152.075 71.625L160.086 67M128.375 47.9249L133 39.9142M96 39.2499V30M63.625 47.9249L59 39.9142M39.9249 71.625L31.9141 67" stroke="black" stroke-width="12" stroke-linecap="round" stroke-linejoin="round"/>
</svg>
