<svg width="192" height="192" viewBox="0 0 192 192" fill="none" xmlns="http://www.w3.org/2000/svg"><path d="M106.176 119.319a20.002 20.002 0 0 0 10.691-31.494 19.999 19.999 0 0 0-10.691-7.144m-16.352 0a20 20 0 0 0 0 38.638M75 76.68l14.82 4m16.36 38.64 14.82 4" stroke="#000" stroke-width="8" stroke-linecap="round" stroke-linejoin="round"/><path d="M50 143h96m-96 0a27.995 27.995 0 0 1-22.214-10.955 27.998 27.998 0 0 1 11.499-42.914 27.999 27.999 0 0 1 11.091-2.129A48 48 0 0 1 145.958 95a23.997 23.997 0 0 1 23.224 17.788A24 24 0 0 1 146 143" stroke="#000" stroke-width="12" stroke-linecap="round" stroke-linejoin="round"/></svg>