<svg width="192" height="192" viewBox="0 0 192 192" fill="none" xmlns="http://www.w3.org/2000/svg"><path d="m25 142 63-67 57 60 22-28" stroke="#000" stroke-width="12" stroke-linecap="round" stroke-linejoin="round"/><path d="M25 107h32.5m109.5 0h-47" stroke="#000" stroke-width="10" stroke-linecap="round" stroke-linejoin="round"/><path d="M161 25H31a6 6 0 0 0-6 6v130a6 6 0 0 0 6 6h130a6 6 0 0 0 6-6V31a6 6 0 0 0-6-6Z" stroke="#000" stroke-width="12" stroke-linecap="round" stroke-linejoin="round"/><path d="M77 61a3 3 0 1 0 0-6 3 3 0 0 0 0 6Zm27 4a3 3 0 1 0 0-6 3 3 0 0 0 0 6ZM93 47a3 3 0 1 0 0-6 3 3 0 0 0 0 6Z" stroke="#000" stroke-width="6" stroke-linecap="round" stroke-linejoin="round"/></svg>