<svg xmlns="http://www.w3.org/2000/svg" width="192" height="192" fill="none" viewBox="0 0 192 192"><path stroke="#000" stroke-linecap="round" stroke-linejoin="round" stroke-width="12" d="M61.26 93c-6.258 2.61-11.975 5.906-15.343 7.985-1.37.845-1.165 2.776.353 3.328C55.343 107.615 80.32 116 100.024 116c23.091 0 31.693-8.858 51.375-13.235 1.608-.358 2.191-2.285.876-3.259-3.813-2.822-8.763-5.223-13.681-6.506M40 146l30 13 13 3s8 8 17 8l56-26"/><path stroke="#000" stroke-linecap="round" stroke-linejoin="round" stroke-width="12" d="M114 94a14 14 0 0 0-4.101-9.9 14 14 0 0 0-15.257-3.034A14 14 0 0 0 86 94m-34.301 35c4.388 2.432 10.7 4.452 18.301 5.856C77.601 136.261 86.223 137 95 137s17.399-.739 25-2.144c7.601-1.404 13.913-3.424 18.301-5.856M90 22l63 4-23 11-33.944 21.337a6 6 0 0 1-2.289.851L36 68l32-27 3.92-.49a6 6 0 0 0 5.077-4.498L78 32s6-10 12-10"/></svg>