<svg xmlns="http://www.w3.org/2000/svg" width="192" height="192" fill="none"><path stroke="#000" stroke-linecap="round" stroke-linejoin="round" stroke-width="12" d="M22 62v32a6 6 0 0 0 6 6h6v6a6 6 0 0 0 6 6h6v6a6 6 0 0 0 6 6h6v6a6 6 0 0 0 6 6h6v6a6 6 0 0 0 6 6h8v6a6 6 0 0 0 6 6h12a6 6 0 0 0 6-6v-6h8a6 6 0 0 0 6-6v-6h6a6 6 0 0 0 6-6v-6h6a6 6 0 0 0 6-6v-6h6a6 6 0 0 0 6-6v-6h6a6 6 0 0 0 6-6V62a6 6 0 0 0-6-6h-6v-6a6 6 0 0 0-6-6h-6v-6a6 6 0 0 0-6-6h-12a6 6 0 0 0-6 6v6h-8a6 6 0 0 0-6 6v6H84v-6a6 6 0 0 0-6-6h-8v-6a6 6 0 0 0-6-6H52a6 6 0 0 0-6 6v6h-6a6 6 0 0 0-6 6v6h-6a6 6 0 0 0-6 6"/></svg>