<svg width="192" height="192" viewBox="0 0 192 192" fill="none" xmlns="http://www.w3.org/2000/svg"><path d="M61.26 94c-6.258 2.61-11.975 5.906-15.343 7.985-1.37.845-1.165 2.776.353 3.328C55.343 108.615 80.32 117 100.024 117c23.091 0 31.693-8.858 51.375-13.235 1.608-.358 2.191-2.285.876-3.259-3.813-2.822-8.763-5.223-13.681-6.506M40 144l30 13 13 4s8 9 17 9l56-28" stroke="#000" stroke-width="12" stroke-linecap="round" stroke-linejoin="round"/><path d="M114 96a13.993 13.993 0 0 0-4.101-9.9 14.003 14.003 0 0 0-15.257-3.034A14.001 14.001 0 0 0 86 96m-34.301 33c4.388 2.432 10.7 4.452 18.301 5.856C77.601 136.261 86.223 137 95 137c8.777 0 17.399-.739 25-2.144 7.601-1.404 13.913-3.424 18.301-5.856M90 22l63 4-23 11-33.861 22.252a6 6 0 0 1-2.49.931L36 68l32-27 3.92-.49a6 6 0 0 0 5.077-4.498L78 32s6-10 12-10Z" stroke="#000" stroke-width="12" stroke-linecap="round" stroke-linejoin="round"/></svg>