<svg xmlns="http://www.w3.org/2000/svg" width="192" height="192" fill="none" viewBox="0 0 192 192"><path stroke="#000" stroke-linecap="round" stroke-linejoin="round" stroke-width="12" d="m25 142 63-67 57 60 22-28"/><path stroke="#000" stroke-linecap="round" stroke-linejoin="round" stroke-width="10" d="M25 107h32.5m109.5 0h-47"/><path stroke="#000" stroke-linecap="round" stroke-linejoin="round" stroke-width="12" d="M161 25H31a6 6 0 0 0-6 6v130a6 6 0 0 0 6 6h130a6 6 0 0 0 6-6V31a6 6 0 0 0-6-6"/><path stroke="#000" stroke-linecap="round" stroke-linejoin="round" stroke-width="6" d="M77 61a3 3 0 1 0 0-6 3 3 0 0 0 0 6m27 4a3 3 0 1 0 0-6 3 3 0 0 0 0 6M93 47a3 3 0 1 0 0-6 3 3 0 0 0 0 6"/></svg>