<svg width="192" height="192" fill="none" xmlns="http://www.w3.org/2000/svg"><path d="M137 63a40.99 40.99 0 0 0-12.009-28.991A41.001 41.001 0 0 0 55 63" stroke="#000" stroke-width="12" stroke-linecap="round" stroke-linejoin="round"/><path d="M115 63a18.997 18.997 0 0 0-19-19 19 19 0 0 0-19 19m19 61v20M55 63v34m60-34v34M77 63v34m60-34v34M37 114c0-8.837 7.163-16 16-16h86c8.837 0 16 7.163 16 16v30c0 14.359-11.641 26-26 26H63c-14.36 0-26-11.641-26-26v-30Z" stroke="#000" stroke-width="12" stroke-linecap="round" stroke-linejoin="round"/></svg>