<svg width="192" height="192" viewBox="0 0 192 192" fill="none" xmlns="http://www.w3.org/2000/svg"><path d="M77.7501 122.8C81.0638 122.8 83.7501 125.486 83.7501 128.8V135.9C83.7501 139.214 81.0638 141.9 77.7501 141.9H41.5501C38.2363 141.9 35.55 139.214 35.55 135.9V27C35.55 23.6863 38.2363 21 41.55 21H150.45C153.764 21 156.45 23.6863 156.45 27V135.9C156.45 139.214 153.764 141.9 150.45 141.9H114.26C110.946 141.9 108.26 139.214 108.26 135.9V128.8C108.26 125.486 110.946 122.8 114.26 122.8H131.35C134.664 122.8 137.35 120.114 137.35 116.8V46.1C137.35 42.7863 134.664 40.1 131.35 40.1H60.6401C57.3263 40.1 54.6401 42.7863 54.6401 46.1V116.8C54.6401 120.114 57.3263 122.8 60.6401 122.8H77.7501Z" stroke="black" stroke-width="10" stroke-miterlimit="6" stroke-linecap="round" stroke-linejoin="round"/><path d="M66.6 169H125.4" stroke="black" stroke-width="14" stroke-miterlimit="6" stroke-linecap="round" stroke-linejoin="round"/></svg>
