<?xml version="1.0" encoding="UTF-8" standalone="no"?>
<!-- Created with Inkscape (http://www.inkscape.org/) -->

<svg
   width="192"
   height="192"
   viewBox="0 0 50.799999 50.8"
   version="1.1"
   id="svg31"
   xml:space="preserve"
   inkscape:version="1.2.2 (b0a8486, 2022-12-01)"
   sodipodi:docname="satchel_one.svg"
   xmlns:inkscape="http://www.inkscape.org/namespaces/inkscape"
   xmlns:sodipodi="http://sodipodi.sourceforge.net/DTD/sodipodi-0.dtd"
   xmlns="http://www.w3.org/2000/svg"
   xmlns:svg="http://www.w3.org/2000/svg"><sodipodi:namedview
     id="namedview33"
     pagecolor="#505050"
     bordercolor="#eeeeee"
     borderopacity="1"
     inkscape:showpageshadow="0"
     inkscape:pageopacity="0"
     inkscape:pagecheckerboard="0"
     inkscape:deskcolor="#505050"
     inkscape:document-units="mm"
     showgrid="false"
     inkscape:zoom="0.66576475"
     inkscape:cx="39.052834"
     inkscape:cy="81.109731"
     inkscape:window-width="1280"
     inkscape:window-height="456"
     inkscape:window-x="0"
     inkscape:window-y="25"
     inkscape:window-maximized="0"
     inkscape:current-layer="layer1" /><defs
     id="defs28" /><g
     inkscape:label="Layer 1"
     inkscape:groupmode="layer"
     id="layer1"><path
       style="fill:#000000;stroke-width:0.535978"
       d="M 8.6020076,38.229992 C 3.3615792,36.512026 2.6324138,28.068355 7.5237295,25.743629 c 4.9079755,-2.332645 9.9747505,0.69546 9.9607635,5.952942 -0.01331,5.00363 -4.186243,8.072987 -8.8824854,6.533421 z m 4.4202244,-2.936575 c 2.479882,-2.279215 0.930772,-7.707527 -2.19954,-7.707527 -2.0286884,0 -2.9047566,1.008957 -3.2348931,3.725585 -0.4736038,3.897202 2.8649921,6.343472 5.4344331,3.981942 z m 6.708887,-3.596846 c 0,-6.679858 0,-6.679858 1.397685,-6.679858 0.892298,0 1.397685,0.289231 1.397685,0.799889 0,0.723963 0.117945,0.723963 1.242545,0 2.024527,-1.30329 5.18321,-1.035882 6.543912,0.553995 2.12062,2.477783 1.709132,12.005831 -0.518497,12.005831 -1.677221,0 -1.677221,0 -1.677221,-4.778667 0,-5.02815 -0.411665,-6.011871 -2.515833,-6.011871 -2.104167,0 -2.515832,0.983721 -2.515832,6.011871 0,4.778667 0,4.778667 -1.677222,4.778667 -1.677222,0 -1.677222,0 -1.677222,-6.679857 z m 16.13598,5.224669 c -5.933915,-4.872933 0.31057,-14.477131 7.264044,-11.172309 5.018095,2.384981 3.967702,6.97531 -1.596142,6.97531 -4.056372,0 -4.472591,0.09293 -4.472591,0.998535 0,2.194556 3.728074,3.277338 6.077226,1.76507 2.182735,-1.405138 3.534102,0.277063 1.439219,1.79156 -2.339168,1.691103 -6.420637,1.523302 -8.711756,-0.358166 z m 7.345124,-6.48508 c 0,-2.565043 -4.320158,-4.004597 -5.571068,-1.85638 -1.038262,1.783028 -0.672532,2.08912 2.496161,2.08912 1.691199,0 3.074907,-0.104732 3.074907,-0.23274 z M 4.9125604,20.389046 c -1.2259641,-1.245058 -0.6524465,-2.00138 0.8595526,-1.133528 1.3120582,0.753091 2.2184555,0.801628 2.2184555,0.118798 0,-0.277226 -0.6355943,-0.650662 -1.412432,-0.829859 -0.776837,-0.179198 -1.6568797,-0.74561 -1.9556499,-1.258694 -1.0734974,-1.84354 2.6708805,-3.494841 4.374415,-1.929152 1.1487254,1.055774 0.741039,1.534553 -1.0063331,1.181821 -1.0552446,-0.213016 -1.6772216,-0.132881 -1.6772216,0.216091 0,0.305064 0.4528499,0.554662 1.006333,0.554662 2.2675337,0 3.1980091,2.628807 1.2667166,3.578768 -1.592684,0.783407 -2.5375307,0.655097 -3.6738361,-0.498907 z m 6.4715756,0.34741 c -1.6270454,-1.49539 -0.344174,-3.427271 2.275891,-3.427271 0.635339,0 0.94988,-0.231301 0.739661,-0.543918 -0.209812,-0.312014 -1.058162,-0.404146 -1.989753,-0.216091 -1.699847,0.343139 -2.091214,-0.146552 -0.953109,-1.192565 2.222665,-2.042813 4.91985,-0.277435 4.91985,3.220171 0,2.661236 -3.02368,3.96922 -4.99254,2.159674 z m 3.175811,-1.757307 c 0.136482,-0.376736 -0.248877,-0.642293 -0.932051,-0.642293 -0.686731,0 -1.164737,0.331777 -1.164737,0.808428 0,0.944366 1.744559,0.806139 2.096788,-0.166135 z m 3.866667,2.098161 c -0.204994,-0.188406 -0.372716,-1.344536 -0.372716,-2.569177 0,-1.22464 -0.251584,-2.226619 -0.559074,-2.226619 -0.307491,0 -0.559074,-0.346838 -0.559074,-0.770752 0,-0.423914 0.251583,-0.770753 0.559074,-0.770753 0.30749,0 0.559074,-0.346839 0.559074,-0.770753 0,-0.423914 0.377375,-0.770753 0.83861,-0.770753 0.461237,0 0.838611,0.346839 0.838611,0.770753 0,0.423914 0.251584,0.770753 0.559075,0.770753 0.307491,0 0.559074,0.346839 0.559074,0.770753 0,0.423914 -0.251583,0.770752 -0.559074,0.770752 -0.790923,0 -0.698452,3.468508 0.09898,3.712811 0.361932,0.110882 0.472876,0.476989 0.246542,0.813573 -0.449777,0.668866 -1.619297,0.811496 -2.209107,0.269412 z m 3.906988,-0.597115 c -2.733946,-2.776528 1.140826,-7.746429 3.99459,-5.123584 0.932836,0.857354 0.838759,1.952574 -0.167723,1.952574 -0.461236,0 -0.83861,-0.231226 -0.83861,-0.513835 0,-0.28261 -0.503167,-0.513836 -1.118148,-0.513836 -0.872243,0 -1.118148,0.342557 -1.118148,1.557633 0,1.574886 1.662704,2.849997 2.109589,1.617823 0.315632,-0.870277 1.803928,-0.749498 1.803928,0.146394 0,1.708602 -3.245802,2.318619 -4.665478,0.876831 z m 5.783626,-3.642026 c 0,-3.806186 0.154728,-4.667336 0.838611,-4.667336 0.550042,0 0.83861,0.505918 0.83861,1.470251 0,1.259097 0.185543,1.437653 1.291919,1.243269 1.875238,-0.329468 2.714135,0.924352 2.514237,3.757791 -0.244117,3.460208 -1.56986,3.672487 -1.56986,0.251366 0,-3.74702 -2.081144,-3.934638 -2.345432,-0.211444 -0.332076,4.678187 -1.568085,3.224776 -1.568085,-1.843897 z m 7.468539,3.271252 c -1.105661,-1.016193 -1.344157,-1.621932 -1.062137,-2.697635 0.900962,-3.436514 5.893224,-3.654013 5.893224,-0.256752 0,1.013331 -0.285615,1.181822 -2.003349,1.181822 -1.361798,0 -1.924188,0.205688 -1.756156,0.642293 0.142727,0.370857 0.989355,0.587181 2.003349,0.51188 1.9666,-0.146042 2.320815,0.587266 0.674762,1.396924 -1.600551,0.787276 -2.176035,0.667791 -3.749693,-0.778532 z m 3.153865,-3.314071 c 0,-0.28261 -0.503166,-0.513836 -1.118148,-0.513836 -0.614981,0 -1.118148,0.231226 -1.118148,0.513836 0,0.282609 0.503167,0.513835 1.118148,0.513835 0.614982,0 1.118148,-0.231226 1.118148,-0.513835 z m 2.795369,0 c 0,-3.768125 0.155299,-4.624517 0.838611,-4.624517 0.683312,0 0.838611,0.856392 0.838611,4.624517 0,3.768124 -0.155299,4.624517 -0.838611,4.624517 -0.683312,0 -0.838611,-0.856393 -0.838611,-4.624517 z m 3.0448,4.06591 c -0.576137,-0.856779 0.719644,-1.839279 1.490893,-1.130438 0.645128,0.592927 0.241364,1.689045 -0.622175,1.689045 -0.271196,0 -0.66212,-0.251374 -0.868718,-0.558607 z m -0.109923,-5.222039 c 0.35223,-0.972274 2.096788,-1.110501 2.096788,-0.166136 0,0.476652 -0.478006,0.808429 -1.164737,0.808429 -0.683173,0 -1.068533,-0.265558 -0.932051,-0.642293 z"
       id="path328" /></g></svg>
