<svg xmlns="http://www.w3.org/2000/svg" width="192" height="192" fill="none" viewBox="0 0 192 192"><circle cx="96" cy="96" r="74" stroke="#000" stroke-linecap="round" stroke-linejoin="round" stroke-width="12"/><path stroke="#000" stroke-linecap="round" stroke-linejoin="round" stroke-width="10" d="M96 22v46m0-46v46M43.674 43.674l32.527 32.527m72.125-32.527-32.527 32.527M96 124v46m0-46v46m-19.799-54.201-32.527 32.527M96 124c-15.464 0-28-12.536-28-28s12.536-28 28-28 28 12.536 28 28c0 1.762-.163 3.485-.474 5.157L128 128l-23.115-5.439A28 28 0 0 1 96 124M22 96h42m60 0h46m-43.674 30.326 22 22"/></svg>