<svg xmlns="http://www.w3.org/2000/svg" width="192" height="192" viewBox="0 0 910.222 910.222"><g style="fill:none;stroke:#000;stroke-width:36.22626459;stroke-linecap:round;stroke-linejoin:round;stroke-dasharray:none;stroke-opacity:1"><path fill="#3c3c3b" stroke-width="1.127" d="m415.36 408.355 58.46-53.96a19.2 19.2 0 0 0 6.18-14.13v-224c0-14.74-11.94-26.68-26.68-26.68h-88.45v20.4h-89.05v-20.4H58.68c-14.74 0-26.68 11.95-26.68 26.68v270.5c0 14.74 11.94 26.68 26.68 26.68h343.64c4.83 0 9.49-1.83 13.03-5.09z" style="fill:none;stroke:#000;stroke-width:36.2263;stroke-linecap:round;stroke-linejoin:round;stroke-dasharray:none;stroke-opacity:1" transform="matrix(1.56646 0 0 1.5743 54.099 59.149)"/><path fill="#ffcb00" d="M407.18 155.59H480zm0 77.623H480zm0 82.975H480z" style="fill:none;stroke:#000;stroke-width:36.22626459;stroke-linecap:round;stroke-linejoin:round;stroke-dasharray:none;stroke-opacity:1" transform="matrix(1.56646 0 0 1.5743 54.099 59.149)"/><path stroke-width="42.264" d="m105.538 260.524 84.295 84.936 84.295-84.936m-84.295 66.92V157.57" style="stroke-width:36.2263;stroke-dasharray:none" transform="matrix(1.56646 0 0 1.5743 54.099 59.149)"/></g></svg>