<svg xmlns="http://www.w3.org/2000/svg" width="192" height="192" viewBox="0 0 192 192"><path d="M89.864 90H36.485l24.888-24.888a6 6 0 0 0-8.485-8.485l-35.131 35.13a6 6 0 0 0-1.497 2.491l-.005.018a6 6 0 0 0-.253 1.589l-.001.037-.001.036v.149l.001.039.001.029a.506 3.178 0 0 0 .253 1.589l.005.018c.278.911.777 1.77 1.497 2.491l35.131 35.13a6 6 0 0 0 8.485-8.485L36.485 102h53.379v29.131c0 3.311 2.689 6 6 6s6-2.689 6-6V102h53.651l-24.888 24.888a6 6 0 0 0 8.485 8.485l35.131-35.13a6 6 0 0 0 1.497-2.491l.005-.018a.506 3.178 0 0 0 .253-1.589l.001-.037.001-.036v-.149l-.001-.039-.001-.029a6 6 0 0 0-.253-1.589l-.005-.018a6 6 0 0 0-1.497-2.491l-35.131-35.13a6 6 0 0 0-8.485 8.485L155.515 90h-53.651V60.869c0-3.311-2.688-6-6-6s-6 2.689-6 6z"/></svg>