<svg width="192" height="192" viewBox="0 0 192 192" fill="none" xmlns="http://www.w3.org/2000/svg">
<path d="M140.969 41.3225C141.234 46.3695 139.791 51.3586 136.874 55.4859C133.957 59.6131 129.736 62.6381 124.89 64.0735C120.044 65.5088 114.856 65.2709 110.162 63.3981C105.468 61.5253 101.541 58.1267 99.0144 53.7498C96.4874 49.373 95.5077 44.2728 96.2329 39.2712C96.9582 34.2696 99.3462 29.6578 103.012 26.1789C106.678 22.7001 111.409 20.5568 116.441 20.0944C121.474 19.632 126.516 20.8775 130.755 23.6301" stroke="black" stroke-width="8" stroke-linecap="round" stroke-linejoin="round"/>
<path d="M111.103 40.6507L118.5 45.274L137.918 31.0961" stroke="black" stroke-width="8" stroke-linecap="round" stroke-linejoin="round"/>
<path d="M170 87L95.9339 147.071C93.8574 148.755 90.9172 148.862 88.7238 147.334L71.63 135.421C69.4389 133.894 66.5022 133.999 64.4258 135.678L22 170" stroke="black" stroke-width="12" stroke-linecap="round" stroke-linejoin="round"/>
<path d="M170 52L95.9339 112.071C93.8574 113.755 90.9172 113.862 88.7238 112.334L71.63 100.421C69.4389 98.8936 66.5022 98.9987 64.4258 100.678L22 135" stroke="black" stroke-width="12" stroke-linecap="round" stroke-linejoin="round"/>
</svg>
