<svg xmlns="http://www.w3.org/2000/svg" xml:space="preserve" width="192" height="192" fill="none" viewBox="0 0 192 192"><g style="fill:none;stroke:#000;stroke-width:4.78689;stroke-dasharray:none;stroke-opacity:1"><path d="M-22.463 141.035c-.015-.398-.92-12.214-2.27-18.166-.53-2.334-.248-4.938-2.271-6.812-2.023-1.873-5.962-2.27-9.083-2.27-3.12 0-7.06.397-9.083 2.27-2.023 1.874-2.27 6.812-2.27 6.812m-9.555.102-3.897 43.095c-.221 2.794.949 4.177 1.896 5.129.947.953 2.391 1.544 3.54 1.63h39.366c1.126 0 2.779-.734 3.669-1.463.89-.729 2.29-2.439 2.037-4.987l-3.845-43.404z" style="display:inline;fill:none;fill-opacity:1;stroke:#000;stroke-width:4.78689;stroke-linecap:round;stroke-linejoin:round;stroke-dasharray:none;stroke-opacity:1" transform="translate(185.327 -263.245) scale(2.50685)"/></g></svg>