<svg xmlns="http://www.w3.org/2000/svg" width="192" height="192" fill="none" viewBox="0 0 192 192"><path stroke="#000" stroke-linecap="round" stroke-linejoin="round" stroke-width="12" d="M129.016 90.309c-.038-.998-2.307-30.62-5.69-45.54-1.33-5.85-.623-12.379-5.694-17.077-5.071-4.695-14.946-5.69-22.77-5.69-7.821 0-17.698.995-22.77 5.69-5.07 4.698-5.69 17.077-5.69 17.077m-23.953.256-9.77 108.033c-.553 7.004 2.38 10.47 4.754 12.857 2.374 2.39 5.994 3.87 8.874 4.086h98.685c2.822 0 6.966-1.84 9.197-3.667 2.232-1.828 5.741-6.114 5.107-12.502l-9.639-108.807z"/></svg>