<svg xmlns="http://www.w3.org/2000/svg" width="192" height="192" fill="none" viewBox="0 0 192 192"><g stroke="#000" stroke-linejoin="round" stroke-width="8"><path d="M22.107 98.075a76.019 76.019 0 0 0 5.774 29.093 76.059 76.059 0 0 0 16.473 24.668 76 76 0 0 0 129.753-53.761c0-4.564-.404-9.12-1.203-13.614l-16.343 12.054a.066 3.12 0 0 0 .033 1.56 58.463 58.463 0 0 1-12.394 36.053 58.491 58.491 0 0 1-31.983 20.752 58.49 58.49 0 0 1-37.98-3.373 58.491 58.491 0 0 1-27.825-26.063A58.463 58.463 0 0 1 59.187 54.5a58.456 58.456 0 0 1 35.165-14.724 58.486 58.486 0 0 1 36.771 10.081l14.78-10.885a76.034 76.034 0 0 0-80.513-9.443 76.04 76.04 0 0 0-43.282 68.547z"/><path d="m98.216 95.85-29.01-18.198v21.883l29.01 18.197 69.468-51.201a77.061 77.061 0 0 0-9.126-15.165z"/></g></svg>