<?xml version="1.0" encoding="UTF-8" standalone="no"?>
<svg
   width="192"
   height="192"
   viewBox="0 0 192 192"
   fill="none"
   version="1.1"
   id="svg1011"
   xml:space="preserve"
   sodipodi:docname="sber.svg"
   inkscape:version="1.2.2 (732a01da63, 2022-12-09)"
   xmlns:inkscape="http://www.inkscape.org/namespaces/inkscape"
   xmlns:sodipodi="http://sodipodi.sourceforge.net/DTD/sodipodi-0.dtd"
   xmlns="http://www.w3.org/2000/svg"
   xmlns:svg="http://www.w3.org/2000/svg"><sodipodi:namedview
     id="namedview60"
     pagecolor="#ffffff"
     bordercolor="#000000"
     borderopacity="0.25"
     inkscape:showpageshadow="2"
     inkscape:pageopacity="0.0"
     inkscape:pagecheckerboard="0"
     inkscape:deskcolor="#d1d1d1"
     showgrid="false"
     inkscape:zoom="3.0530808"
     inkscape:cx="86.96134"
     inkscape:cy="120.20645"
     inkscape:window-width="1920"
     inkscape:window-height="1009"
     inkscape:window-x="-8"
     inkscape:window-y="-8"
     inkscape:window-maximized="1"
     inkscape:current-layer="svg1011" /><defs
     id="defs1009"><clipPath
       id="a"><path
         fill="#fff"
         d="M0 0h192v192H0z"
         id="path1006" /></clipPath><filter
       id="mask-powermask-path-effect5363_inverse"
       style="color-interpolation-filters:sRGB"
       height="100"
       width="100"
       x="-50"
       y="-50"><feColorMatrix
         id="mask-powermask-path-effect5363_primitive1"
         values="1"
         type="saturate"
         result="fbSourceGraphic" /><feColorMatrix
         id="mask-powermask-path-effect5363_primitive2"
         values="-1 0 0 0 1 0 -1 0 0 1 0 0 -1 0 1 0 0 0 1 0 "
         in="fbSourceGraphic" /></filter><filter
       id="mask-powermask-path-effect5414_inverse"
       style="color-interpolation-filters:sRGB"
       height="100"
       width="100"
       x="-50"
       y="-50"><feColorMatrix
         id="mask-powermask-path-effect5414_primitive1"
         values="1"
         type="saturate"
         result="fbSourceGraphic" /><feColorMatrix
         id="mask-powermask-path-effect5414_primitive2"
         values="-1 0 0 0 1 0 -1 0 0 1 0 0 -1 0 1 0 0 0 1 0 "
         in="fbSourceGraphic" /></filter><filter
       id="mask-powermask-path-effect5444_inverse"
       style="color-interpolation-filters:sRGB"
       height="100"
       width="100"
       x="-50"
       y="-50"><feColorMatrix
         id="mask-powermask-path-effect5444_primitive1"
         values="1"
         type="saturate"
         result="fbSourceGraphic" /><feColorMatrix
         id="mask-powermask-path-effect5444_primitive2"
         values="-1 0 0 0 1 0 -1 0 0 1 0 0 -1 0 1 0 0 0 1 0 "
         in="fbSourceGraphic" /></filter><filter
       id="mask-powermask-path-effect5462_inverse"
       style="color-interpolation-filters:sRGB"
       height="100"
       width="100"
       x="-50"
       y="-50"><feColorMatrix
         id="mask-powermask-path-effect5462_primitive1"
         values="1"
         type="saturate"
         result="fbSourceGraphic" /><feColorMatrix
         id="mask-powermask-path-effect5462_primitive2"
         values="-1 0 0 0 1 0 -1 0 0 1 0 0 -1 0 1 0 0 0 1 0 "
         in="fbSourceGraphic" /></filter><filter
       id="mask-powermask-path-effect5473_inverse"
       style="color-interpolation-filters:sRGB"
       height="100"
       width="100"
       x="-50"
       y="-50"><feColorMatrix
         id="mask-powermask-path-effect5473_primitive1"
         values="1"
         type="saturate"
         result="fbSourceGraphic" /><feColorMatrix
         id="mask-powermask-path-effect5473_primitive2"
         values="-1 0 0 0 1 0 -1 0 0 1 0 0 -1 0 1 0 0 0 1 0 "
         in="fbSourceGraphic" /></filter><filter
       id="mask-powermask-path-effect7499_inverse"
       style="color-interpolation-filters:sRGB"
       height="100"
       width="100"
       x="-50"
       y="-50"><feColorMatrix
         id="mask-powermask-path-effect7499_primitive1"
         values="1"
         type="saturate"
         result="fbSourceGraphic" /><feColorMatrix
         id="mask-powermask-path-effect7499_primitive2"
         values="-1 0 0 0 1 0 -1 0 0 1 0 0 -1 0 1 0 0 0 1 0 "
         in="fbSourceGraphic" /></filter><filter
       id="mask-powermask-path-effect7510_inverse"
       style="color-interpolation-filters:sRGB"
       height="100"
       width="100"
       x="-50"
       y="-50"><feColorMatrix
         id="mask-powermask-path-effect7510_primitive1"
         values="1"
         type="saturate"
         result="fbSourceGraphic" /><feColorMatrix
         id="mask-powermask-path-effect7510_primitive2"
         values="-1 0 0 0 1 0 -1 0 0 1 0 0 -1 0 1 0 0 0 1 0 "
         in="fbSourceGraphic" /></filter><clipPath
       clipPathUnits="userSpaceOnUse"
       id="clipPath7516"><path
         d="m 18.7893,67.426901 c -2.371,-0.5923 -4.0334,-2.713199 -4.0334,-5.145701 V 33.6233 c 0,-2.7629 2.6107,-4.7892 5.3037,-4.1165 l 17.0541,4.2602 c 2.3709,0.5922 4.0334,2.7131 4.0334,5.1456 v 28.657901 c 0,2.762897 -2.6108,4.789301 -5.3038,4.116497 z"
         fill="#ffffff"
         id="path7518"
         style="display:block;fill:#ffffff;fill-opacity:1;stroke:none;stroke-width:4.4;stroke-dasharray:none;stroke-opacity:1" /></clipPath><clipPath
       clipPathUnits="userSpaceOnUse"
       id="clipPath7528"><path
         d="m 34.8381,60.8292 c -2.371,-0.5923 -4.0334,-2.713199 -4.0334,-5.145701 V 27.0257 c 0,-2.7629 2.6108,-4.7893 5.3038,-4.1166 l 17.053998,4.2602 c 2.371001,0.5923 4.033403,2.7132 4.033403,5.1457 v 28.6578 c 0,2.763002 -2.610701,4.789301 -5.303804,4.116601 z"
         fill="#ffffff"
         id="path7530"
         style="display:block;fill:#ffffff;fill-opacity:1;stroke:none;stroke-width:4.4;stroke-dasharray:none;stroke-opacity:1" /></clipPath><linearGradient
       id="paint0_linear_3_81"
       x1="4.0922198"
       y1="20.1402"
       x2="1.0628999"
       y2="11.3837"
       gradientUnits="userSpaceOnUse"><stop
         offset="0.1444"
         stop-color="#F2E913"
         id="stop28" /><stop
         offset="0.3037"
         stop-color="#E7E518"
         id="stop30" /><stop
         offset="0.5823"
         stop-color="#CADB26"
         id="stop32" /><stop
         offset="0.891"
         stop-color="#A3CD39"
         id="stop34" /></linearGradient><linearGradient
       id="paint1_linear_3_81"
       x1="4.3117299"
       y1="4.02952"
       x2="12.114"
       y2="1.0562201"
       gradientUnits="userSpaceOnUse"><stop
         offset="0.0592"
         stop-color="#0FA8E0"
         id="stop37" /><stop
         offset="0.5385"
         stop-color="#0099F9"
         id="stop39" /><stop
         offset="0.9234"
         stop-color="#0291EB"
         id="stop41" /></linearGradient><linearGradient
       id="paint2_linear_3_81"
       x1="11.211"
       y1="22.3097"
       x2="20.034"
       y2="20.315599"
       gradientUnits="userSpaceOnUse"><stop
         offset="0.1226"
         stop-color="#A3CD39"
         id="stop44" /><stop
         offset="0.2846"
         stop-color="#86C339"
         id="stop46" /><stop
         offset="0.8693"
         stop-color="#21A038"
         id="stop48" /></linearGradient><linearGradient
       id="paint3_linear_3_81"
       x1="11.4197"
       y1="0.93323302"
       x2="18.9632"
       y2="3.26074"
       gradientUnits="userSpaceOnUse"><stop
         offset="0.0566"
         stop-color="#0291EB"
         id="stop51" /><stop
         offset="0.79"
         stop-color="#0C8ACB"
         id="stop53" /></linearGradient><linearGradient
       id="paint4_linear_3_81"
       x1="3.8009"
       y1="19.7064"
       x2="12.0121"
       y2="22.774401"
       gradientUnits="userSpaceOnUse"><stop
         offset="0.1324"
         stop-color="#F2E913"
         id="stop56" /><stop
         offset="0.2977"
         stop-color="#EBE716"
         id="stop58" /><stop
         offset="0.5306"
         stop-color="#D9E01F"
         id="stop60" /><stop
         offset="0.8023"
         stop-color="#BBD62D"
         id="stop62" /><stop
         offset="0.9829"
         stop-color="#A3CD39"
         id="stop64" /></linearGradient><linearGradient
       id="paint5_linear_3_81"
       x1="1.03767"
       y1="12.346"
       x2="4.3336902"
       y2="3.7718301"
       gradientUnits="userSpaceOnUse"><stop
         offset="0.0698"
         stop-color="#A3CD39"
         id="stop67" /><stop
         offset="0.2599"
         stop-color="#81C55F"
         id="stop69" /><stop
         offset="0.9216"
         stop-color="#0FA8E0"
         id="stop71" /></linearGradient></defs><g
     id="g946"
     transform="matrix(6.1666717,0,0,6.1666717,7.2560455,72.928393)"
     style="display:inline;fill:none;stroke:#000000;stroke-width:1.94594;stroke-dasharray:none;stroke-opacity:1"><path
       d="m 32.018006,40.907109 c -0.0051,10.50848 2.061631,20.91469 6.078388,30.62523 4.018448,9.7097 9.913411,18.533554 17.339171,25.966074 7.431677,7.432527 16.253835,13.328327 25.961843,17.351007 9.708009,4.02183 20.111682,6.09276 30.620162,6.09276 10.50849,0 20.91724,-2.07093 30.62524,-6.09276 9.70801,-4.02268 18.53017,-9.91848 25.95593,-17.351007 7.43083,-7.43252 13.32072,-16.256374 17.33917,-25.966074 4.01845,-9.71054 6.08515,-20.11675 6.08008,-30.62523 0,-4.80456 -0.42517,-9.59982 -1.26623,-14.33083 l -17.20392,12.68845 c 0,0.54774 0.0355,1.09464 0.0355,1.64238 0.0144,13.75266 -4.57887,27.11311 -13.04601,37.95125 -8.46714,10.837304 -20.32215,18.527634 -33.66739,21.843651 -13.34608,3.31518 -27.423328,2.06586 -39.97823,-3.550157 -12.550675,-5.61602 -22.863902,-15.275 -29.288854,-27.435164 -6.425797,-12.16016 -8.592243,-26.1216 -6.155309,-39.65702 2.436935,-13.534583 9.337777,-25.864641 19.601133,-35.021529 10.258284,-9.156888 23.289077,-14.613152 37.01553,-15.499002 13.72646,-0.885851 27.35233,2.850274 38.70694,10.6116098 l 15.55732,-11.4577328 c -11.74935,-9.482319 -25.94071,-15.44744 -40.93846,-17.205617 -14.99691,-1.759021 -30.18485,0.759059 -43.810719,7.265158 -13.626713,6.505253 -25.136007,16.732261 -33.197415,29.500173 -8.0631,12.767067 -12.348655,27.55435 -12.36387,42.65438 z"
       fill="#a7a7a7"
       id="path227"
       style="display:inline;fill:none;stroke:#000000;stroke-width:12.973;stroke-linecap:round;stroke-linejoin:round;stroke-dasharray:none;stroke-opacity:1"
       transform="matrix(0.15,0,0,0.15,-2.4117999,-2.4)" /><path
       d="M 112.13338,38.564839 81.595203,19.409172 v 23.034647 l 30.538177,19.15567 73.12408,-53.896561 c -2.58063,-5.6735 -5.80283,-11.030022 -9.60826,-15.963059 z"
       fill="#a7a7a7"
       id="path229"
       style="display:inline;fill:none;stroke:#000000;stroke-width:12.973;stroke-linecap:round;stroke-linejoin:round;stroke-dasharray:none;stroke-opacity:1"
       transform="matrix(0.15,0,0,0.15,-2.4117999,-2.4)" /></g></svg>
