<svg width="192" height="192" viewBox="0 0 192 192" fill="none" xmlns="http://www.w3.org/2000/svg"><path d="M98 86.44a6 6 0 0 1 4.247-5.738l60-18.333c3.856-1.178 7.753 1.706 7.753 5.738v17.47a6 6 0 0 1-4.226 5.731l-33.548 10.384a6 6 0 0 0-4.226 5.732V164a6 6 0 0 1-6 6h-18a6 6 0 0 1-6-6V86.44Z" stroke="#000" stroke-width="12" stroke-linecap="round" stroke-linejoin="round"/><path d="M104 79.5V65.102c0-4.03-3.895-6.915-7.75-5.74l-70 21.342a6 6 0 0 0-4.25 5.74v17.432c0 4.037 3.906 6.922 7.765 5.735l36.47-11.222c3.859-1.187 7.765 1.698 7.765 5.735v44.812c0 4.019 3.874 6.902 7.724 5.747L96 150.4" stroke="#000" stroke-width="12" stroke-linecap="round" stroke-linejoin="round"/><circle cx="96" cy="28" r="6" stroke="#000" stroke-width="12" stroke-linecap="round" stroke-linejoin="round"/></svg>