<svg xmlns="http://www.w3.org/2000/svg" width="192" height="192" fill="none" stroke="#000" stroke-linecap="round" stroke-linejoin="round" stroke-width="8" viewBox="0 0 192 192"><path d="M96 54s-9.63-27.039-10.474-28.5A11.001 11.001 0 1 0 70.5 40.526C71.961 41.37 104 54 116 66"/><path d="M96 54s9.63-27.039 10.474-28.5a11 11 0 0 1 8.09-5.406 11 11 0 0 1 6.936 20.432C120.039 41.37 88 54 76 66"/><path stroke-width="12" d="M156 54H36a6 6 0 0 0-6 6v104a6 6 0 0 0 6 6h120a6 6 0 0 0 6-6V60a6 6 0 0 0-6-6"/><path d="M96 114v36"/><circle cx="96" cy="114" r="36" stroke-width="10"/><circle cx="96" cy="114" r="5" stroke-width="10"/></svg>