<svg xmlns="http://www.w3.org/2000/svg" width="192" height="192" fill="none"><path stroke="#000" stroke-linecap="round" stroke-linejoin="round" stroke-width="10" d="M152 21c-5 101-65 150-65 150s.67-27.373 12.89-63.368C87.277 129.903 70 142 70 142s.308-20.118 11.923-47.688C76.445 111.097 57.011 121 57.011 121s-2.004-14.328 8.087-35.806C57.701 100.677 40 108 40 108s3-44 28-70c0 0 .894 21 .894 29.181C74.044 56.165 81.428 47.58 92.01 37c1.763 12.21.707 24.153-2.3 33.749C96.62 57.594 107.072 43.929 120 31c-.666 15.522-2.396 29.618-6.243 42.158C122.971 55.813 135.355 37.898 152 21"/></svg>