<svg width="192" height="192" viewBox="0 0 192 192" fill="none" xmlns="http://www.w3.org/2000/svg">
<mask id="mask0_24_426" style="mask-type:luminance" maskUnits="userSpaceOnUse" x="23" y="112" width="56" height="57">
<path d="M39.2277 163.001C33.4512 163.001 28.7671 158.317 28.7671 152.535V119C28.7671 118.707 28.8452 118.541 28.9231 118.431C29.017 118.298 29.1727 118.164 29.3844 118.076C29.5962 117.989 29.8007 117.973 29.9613 118.001C30.0946 118.024 30.267 118.086 30.4742 118.293L73.4728 161.294C73.68 161.501 73.742 161.673 73.7651 161.807C73.7929 161.967 73.7773 162.172 73.6896 162.383C73.6019 162.595 73.4683 162.751 73.3351 162.845C73.2245 162.923 73.0588 163.001 72.7657 163.001H39.2277Z" stroke="white" stroke-width="10"/>
</mask>
<g mask="url(#mask0_24_426)">
<path d="M81.2505 104.515H29.7671C26.4534 104.515 23.7671 107.201 23.7671 110.515V162.004C23.7671 165.317 26.4534 168.004 29.7671 168.004H81.2505C84.5642 168.004 87.2505 165.317 87.2505 162.004V110.515C87.2505 107.201 84.5642 104.515 81.2505 104.515Z" fill="black"/>
</g>
<mask id="mask1_24_426" style="mask-type:luminance" maskUnits="userSpaceOnUse" x="113" y="23" width="55" height="56">
<path d="M161.293 72.8741L118.894 30.4751C118.687 30.2678 118.625 30.0954 118.601 29.9621C118.574 29.8015 118.589 29.597 118.677 29.3853C118.765 29.1735 118.898 29.0178 119.031 28.924C119.142 28.8461 119.308 28.7679 119.601 28.7679H152.537C158.314 28.7679 163 33.4553 163 39.2313V72.1671C163 72.4602 162.922 72.6259 162.844 72.7364C162.75 72.8697 162.594 73.0032 162.383 73.0909C162.171 73.1786 161.966 73.1943 161.806 73.1665C161.673 73.1434 161.5 73.0814 161.293 72.8741Z" stroke="white" stroke-width="10"/>
</mask>
<g mask="url(#mask1_24_426)">
<path d="M161.997 23.7679H111.116C107.802 23.7679 105.116 26.4542 105.116 29.7679V80.6523C105.116 83.966 107.802 86.6523 111.116 86.6523H161.997C165.311 86.6523 167.997 83.966 167.997 80.6523V29.7679C167.997 26.4542 165.311 23.7679 161.997 23.7679Z" fill="black"/>
</g>
<mask id="mask2_24_426" style="mask-type:luminance" maskUnits="userSpaceOnUse" x="23" y="23" width="145" height="146">
<path d="M36.2687 72.4904L36.2677 72.4895C31.4644 67.6884 28.7671 61.1763 28.7671 54.38C28.7671 40.2373 40.2338 28.7687 54.375 28.768C54.4311 28.768 54.4869 28.7671 54.5425 28.7653H54.9307C61.7266 28.7653 68.2417 31.4651 73.0402 36.2659L73.041 36.2667L155.498 118.726C160.298 123.529 163 130.045 163 136.84V137.392C163 151.536 151.531 163.004 137.385 163.004C130.594 163.004 124.078 160.302 119.275 155.499L36.2687 72.4904Z" stroke="white" stroke-width="10"/>
</mask>
<g mask="url(#mask2_24_426)">
<path d="M161.997 23.7677H29.7671C26.4534 23.7677 23.7671 26.454 23.7671 29.7677V162.003C23.7671 165.317 26.4534 168.003 29.7671 168.003H161.997C165.311 168.003 167.997 165.317 167.997 162.003V29.7677C167.997 26.454 165.311 23.7677 161.997 23.7677Z" fill="black"/>
</g>
</svg>
