<svg width="192" height="192" viewBox="0 0 192 192" fill="none" xmlns="http://www.w3.org/2000/svg"><path d="M54 60a6 6 0 0 1 6-6h18a6 6 0 0 1 6 6v18a6 6 0 0 1-6 6H60a6 6 0 0 1-6-6V60Zm0 54a6 6 0 0 1 6-6h18a6 6 0 0 1 6 6v18a6 6 0 0 1-6 6H60a6 6 0 0 1-6-6v-18Zm54-54a6 6 0 0 1 6-6h18a6 6 0 0 1 6 6v18a6 6 0 0 1-6 6h-18a6 6 0 0 1-6-6V60Z" stroke="#000" stroke-width="10" stroke-linejoin="round"/><path d="M22 56V28a6 6 0 0 1 6-6h28m114 34V28a6 6 0 0 0-6-6h-28M22 136v28a6 6 0 0 0 6 6h28m114-34v28a6 6 0 0 1-6 6h-28" stroke="#000" stroke-width="12" stroke-linecap="round" stroke-linejoin="round"/><circle cx="123" cy="123" r="3" stroke="#000" stroke-width="6" stroke-linecap="round" stroke-linejoin="round"/><circle cx="137" cy="109" r="3" stroke="#000" stroke-width="6" stroke-linecap="round" stroke-linejoin="round"/><circle cx="137" cy="137" r="3" stroke="#000" stroke-width="6" stroke-linecap="round" stroke-linejoin="round"/><circle cx="109" cy="109" r="3" stroke="#000" stroke-width="6" stroke-linecap="round" stroke-linejoin="round"/><circle cx="109" cy="137" r="3" stroke="#000" stroke-width="6" stroke-linecap="round" stroke-linejoin="round"/></svg>