<svg xmlns="http://www.w3.org/2000/svg" width="192" height="192" viewBox="0 0 50.8 50.8"><g style="display:inline;fill:none;stroke:#000;stroke-width:3.38909;stroke-linecap:round;stroke-linejoin:round;stroke-dasharray:none;stroke-opacity:1"><path d="M4.818 41.08s1.2-5.408 3.213-10.233c1.789-4.286 5.48-11.464 7.698-12.73 1.48-.844 3.377-1.687 4.753-2.024 1.435-.35 4.633-.365 4.929-.424" style="display:inline;fill:none;stroke:#000;stroke-width:3.59809;stroke-linecap:round;stroke-linejoin:round;stroke-dasharray:none;stroke-opacity:1" transform="matrix(.8824 0 0 .88241 3.004 1.792)"/><path d="M46.003 41.08s-1.2-5.408-3.213-10.233c-1.788-4.286-5.479-11.464-7.697-12.73-1.48-.844-3.377-1.687-4.754-2.024-1.434-.35-4.632-.365-4.928-.424" style="fill:none;stroke:#000;stroke-width:3.59809;stroke-linecap:round;stroke-linejoin:round;stroke-dasharray:none;stroke-opacity:1" transform="matrix(.8824 0 0 .88241 3.004 1.792)"/><path d="M6.29 40.654s.913.646 1.424.862c.788.335 1.63.594 2.483.656 1.174.084 2.34-.55 3.508-.4 1.475.188 2.817.97 4.161 1.607 1.339.634 2.425 1.847 3.866 2.193 1.19.286 3.672-.162 3.672-.162" style="display:inline;fill:none;stroke:#000;stroke-width:3.59809;stroke-linecap:round;stroke-linejoin:round;stroke-dasharray:none;stroke-opacity:1" transform="matrix(.8824 0 0 .88241 3.004 1.792)"/><path d="M44.519 40.654s-.914.646-1.425.862c-.788.335-1.63.594-2.483.656-1.174.084-2.34-.55-3.508-.4-1.475.188-2.817.97-4.16 1.607-1.34.634-2.426 1.847-3.866 2.193-1.192.286-3.673-.162-3.673-.162M13.69 41.754s3.663-10.552 6.886-15.08c.568-.798 4.835-.732 4.835-.732" style="display:inline;fill:none;stroke:#000;stroke-width:3.59809;stroke-linecap:round;stroke-linejoin:round;stroke-dasharray:none;stroke-opacity:1" transform="matrix(.8824 0 0 .88241 3.004 1.792)"/><path d="M37.132 41.754s-3.664-10.552-6.887-15.08c-.568-.798-4.834-.732-4.834-.732" style="display:inline;fill:none;stroke:#000;stroke-width:3.59809;stroke-linecap:round;stroke-linejoin:round;stroke-dasharray:none;stroke-opacity:1" transform="matrix(.8824 0 0 .88241 3.004 1.792)"/><path d="M30.245 26.674s1.865-1.944 2.933-2.754c.988-.75 3.183-1.926 3.183-1.926m-15.785 4.68s-1.864-1.944-2.933-2.754c-.988-.75-3.183-1.926-3.183-1.926" style="display:inline;fill:none;stroke:#000;stroke-width:3.59809;stroke-linecap:round;stroke-linejoin:round;stroke-dasharray:none;stroke-opacity:1" transform="matrix(.8824 0 0 .88241 3.004 1.792)"/><path d="M6.765 40.68s-.405.468-.536.744c-.358.757-.322 1.656-.644 2.43-.161.39-.642.67-.637 1.093.003.353.233.751.552.904.48.229 1.054-.284 1.58-.208.667.098 1.173.876 1.846.826 2.315-.17 4.51-.304 6.514-.446.425-.03.687-.518 1.075-.695 1.343-.611 2.814-.897 4.252-1.228.245-.057.742-.13.742-.13m22.644-3.304s.405.467.535.743c.358.757.323 1.656.644 2.43.162.39.642.671.638 1.093-.004.353-.234.752-.553.904-.479.229-1.054-.284-1.58-.207-.667.097-1.173.875-1.845.826-2.315-.17-4.512-.305-6.514-.446-.426-.03-.688-.518-1.076-.695-1.343-.612-2.814-.897-4.251-1.229-.245-.057-.743-.13-.743-.13" style="display:inline;fill:none;stroke:#000;stroke-width:3.38909;stroke-linecap:round;stroke-linejoin:round;stroke-dasharray:none;stroke-opacity:1" transform="translate(1.55 1.442) scale(.93683)"/><path d="M12.213 23.039s-1.028-1.989-1.306-3.285c-.618-2.882.656-6.025-.218-8.84-.735-2.37-4.062-6.24-4.062-6.24l8.654 1.497 8.654 1.497s-4.47 2.5-5.922 4.513c-1.819 2.523-1.478 5.163-1.478 5.163" style="fill:none;stroke:#000;stroke-width:3.38909;stroke-linecap:round;stroke-linejoin:round;stroke-dasharray:none;stroke-opacity:1" transform="translate(1.55 1.442) scale(.93683)"/></g></svg>