<svg width="192" height="192" viewBox="0 0 192 192" fill="none" xmlns="http://www.w3.org/2000/svg">
<path d="M96.0006 68.7558C92.0436 70.7327 88.0308 72.8886 84.0008 75.2153C79.9707 77.5421 76.0972 79.9393 72.4066 82.3778C65.6526 86.8403 59.5111 91.4409 54.1441 96.0001C36.6877 110.829 27.4231 125.22 31.9149 133C34.7187 137.856 42.4332 139.359 53.0815 137.929M96.0006 68.7558C88.7591 65.138 81.7043 62.1197 75.0726 59.7513C53.5019 52.0478 36.4064 51.2199 31.9146 59C29.1124 63.8535 31.6639 71.2798 38.218 79.7802M96.0006 68.7558C103.242 65.1379 110.297 62.1195 116.929 59.7511C112.815 37.2189 104.984 22 96.0009 22C90.3963 22 85.2405 27.9233 81.1559 37.8504M116.595 84.3781L75.4067 107.622M96.0006 123.244C99.9577 121.267 103.971 119.111 108.001 116.785C112.031 114.458 115.904 112.061 119.595 109.622C148.317 90.645 165.959 69.1719 160.087 58.9999C157.283 54.1434 149.568 52.6411 138.919 54.0715M96.0006 123.244C103.242 126.862 110.297 129.881 116.929 132.249C138.499 139.952 155.595 140.78 160.086 133C162.889 128.146 160.337 120.72 153.782 112.219M96.0006 123.244C88.7591 126.862 81.7043 129.88 75.0726 132.249C79.1865 154.781 87.0173 170 96.0008 170C101.605 170 106.761 164.077 110.846 154.149" stroke="black" stroke-width="12" stroke-linecap="round" stroke-linejoin="round"/>
</svg>
