<?xml version="1.0" encoding="UTF-8" standalone="no"?>
<svg
   id="svg5"
   viewBox="0 0 24 24"
   version="1.1"
   sodipodi:docname="schoolplanner.svg"
   inkscape:version="1.1.1 (3bf5ae0d25, 2021-09-20)"
   xmlns:inkscape="http://www.inkscape.org/namespaces/inkscape"
   xmlns:sodipodi="http://sodipodi.sourceforge.net/DTD/sodipodi-0.dtd"
   xmlns="http://www.w3.org/2000/svg"
   xmlns:svg="http://www.w3.org/2000/svg">
  <defs
     id="defs837" />
  <sodipodi:namedview
     id="namedview835"
     pagecolor="#ffffff"
     bordercolor="#666666"
     borderopacity="1.0"
     inkscape:pageshadow="2"
     inkscape:pageopacity="0.0"
     inkscape:pagecheckerboard="0"
     showgrid="false"
     inkscape:zoom="31.041667"
     inkscape:cx="9.0040268"
     inkscape:cy="12"
     inkscape:window-width="1920"
     inkscape:window-height="1017"
     inkscape:window-x="-8"
     inkscape:window-y="-8"
     inkscape:window-maximized="1"
     inkscape:current-layer="svg5" />
  <g
     id="g32237"
     transform="matrix(0.99992035,0,0,0.99992035,4.3807926e-4,2.3885116e-4)">
    <path
       id="rect21347"
       d="m 8,3 v 18 h 9.34 A 1.15,1.15 0 0 0 18.5,19.85 V 4.16 A 1.15,1.15 0 0 0 17.34,3 H 16.69 V 6.71 L 15,5.58 13.24,6.7 V 3 Z m 2.24,9.64 h 6.12 V 14 h -6.14 z m 0,2.43 h 4.66 v 1.31 h -4.68 z" />
    <path
       id="path25292-4"
       d="M 7.79,3 H 6.57 A 0.94,0.94 0 0 0 5.82,3.31 1.39,1.39 0 0 0 5.5,4.15 V 19.9 A 1.12,1.12 0 0 0 5.76,20.64 1,1 0 0 0 6.44,21 h 1.35 z" />
  </g>
</svg>
