<svg width="192" height="192" viewBox="0 0 192 192" fill="none" xmlns="http://www.w3.org/2000/svg">
<circle cx="135.596" cy="137.003" r="8" transform="rotate(46 135.596 137.003)" stroke="black" stroke-width="8"/>
<circle cx="40.6938" cy="109.79" r="8" transform="rotate(-14 40.6938 109.79)" stroke="black" stroke-width="8"/>
<path d="M84.0008 75.2153L87.0008 80.4115L87.0008 80.4115L84.0008 75.2153ZM96.0006 68.7558L98.6821 74.1232L98.6821 74.1232L96.0006 68.7558ZM72.4066 82.3778L75.7142 87.3838L75.7142 87.3838L72.4066 82.3778ZM31.9146 59L26.7184 56L26.7184 56L31.9146 59ZM75.0726 59.7513L77.0905 54.1008L77.0905 54.1008L75.0726 59.7513ZM31.9149 133L37.1111 130L37.1111 130L31.9149 133ZM54.1441 96.0001L58.0286 100.573L58.0286 100.573L54.1441 96.0001ZM108.001 116.785L111.001 121.981L111.001 121.981L108.001 116.785ZM96.0006 123.244L93.319 117.877L93.319 117.877L96.0006 123.244ZM160.087 58.9999L154.891 61.9999L154.891 61.9999L160.087 58.9999ZM119.595 109.622L122.903 114.628L122.903 114.628L119.595 109.622ZM160.086 133L154.89 130L154.89 130L160.086 133ZM116.929 132.249L114.911 137.899L114.911 137.899L116.929 132.249ZM75.6072 35.5673C74.3463 38.6317 75.8084 42.1381 78.8728 43.399C81.9373 44.6599 85.4436 43.1979 86.7045 40.1334L81.1559 37.8504L75.6072 35.5673ZM33.4665 83.4439C35.4898 86.0681 39.2575 86.5552 41.8817 84.5318C44.5059 82.5084 44.993 78.7408 42.9696 76.1165L38.218 79.7802L33.4665 83.4439ZM53.8801 143.875C57.1644 143.434 59.4692 140.414 59.0281 137.13C58.587 133.846 55.5671 131.541 52.2828 131.982L53.0815 137.929L53.8801 143.875ZM158.534 108.555C156.51 105.931 152.743 105.444 150.118 107.467C147.494 109.491 147.007 113.258 149.031 115.883L153.782 112.219L158.534 108.555ZM138.12 48.1249C134.836 48.5661 132.531 51.5861 132.972 54.8703C133.413 58.1545 136.433 60.4593 139.717 60.0181L138.919 54.0715L138.12 48.1249ZM116.929 59.7511L118.947 65.4016C121.715 64.4131 123.359 61.5649 122.832 58.6734L116.929 59.7511ZM75.0726 132.249L73.0547 126.598C70.2866 127.587 68.6422 130.435 69.1702 133.326L75.0726 132.249ZM72.4578 102.397C69.5719 104.026 68.5527 107.685 70.1813 110.571C71.8099 113.457 75.4696 114.476 78.3555 112.848L75.4067 107.622L72.4578 102.397ZM119.544 89.6035C122.43 87.9749 123.449 84.3152 121.82 81.4293C120.192 78.5434 116.532 77.5242 113.646 79.1528L116.595 84.3781L119.544 89.6035ZM116.394 156.433C117.655 153.368 116.193 149.862 113.129 148.601C110.064 147.34 106.558 148.802 105.297 151.866L110.846 154.149L116.394 156.433ZM84.0008 75.2153L87.0008 80.4115C90.9275 78.1444 94.8341 76.0457 98.6821 74.1232L96.0006 68.7558L93.319 63.3884C89.2531 65.4197 85.1341 67.6328 81.0008 70.0192L84.0008 75.2153ZM72.4066 82.3778L75.7142 87.3838C79.3032 85.0125 83.0741 82.6786 87.0008 80.4115L84.0008 75.2153L81.0008 70.0192C76.8674 72.4056 72.8913 74.8662 69.0991 77.3718L72.4066 82.3778ZM31.9146 59L37.1107 62C37.5653 61.2127 39.7381 59.3787 46.9318 59.5673C53.5908 59.7418 62.5918 61.6652 73.0546 65.4018L75.0726 59.7513L77.0905 54.1008C65.9827 50.1339 55.6506 47.7917 47.2462 47.5714C39.3766 47.3651 30.7557 49.0072 26.7184 56L31.9146 59ZM75.0726 59.7513L73.0546 65.4018C79.4403 67.6823 86.2735 70.6033 93.319 74.1232L96.0006 68.7558L98.6821 63.3884C91.2446 59.6726 83.9684 56.5571 77.0905 54.1008L75.0726 59.7513ZM54.1441 96.0001L58.0286 100.573C63.1964 96.1829 69.143 91.7255 75.7142 87.3838L72.4066 82.3778L69.0991 77.3718C62.1622 81.9551 55.8258 86.6989 50.2596 91.4273L54.1441 96.0001ZM108.001 116.785L105.001 111.588C101.074 113.856 97.1672 115.954 93.319 117.877L96.0006 123.244L98.6821 128.612C102.748 126.58 106.867 124.367 111.001 121.981L108.001 116.785ZM160.087 58.9999L154.891 61.9999C155.164 62.4729 155.571 63.7441 154.598 66.5937C153.633 69.4207 151.54 73.0303 148.143 77.2428C141.382 85.6271 130.318 95.3458 116.288 104.616L119.595 109.622L122.903 114.628C137.594 104.921 149.712 94.4149 157.485 84.7753C161.354 79.976 164.366 75.124 165.955 70.4709C167.536 65.8404 167.946 60.613 165.283 55.9999L160.087 58.9999ZM119.595 109.622L116.288 104.616C112.699 106.987 108.928 109.321 105.001 111.588L108.001 116.785L111.001 121.981C115.134 119.594 119.11 117.134 122.903 114.628L119.595 109.622ZM116.929 132.249L118.947 126.598C112.561 124.318 105.728 121.397 98.6821 117.877L96.0006 123.244L93.319 128.612C100.757 132.328 108.033 135.443 114.911 137.899L116.929 132.249ZM81.1559 37.8504L86.7045 40.1334C88.5999 35.527 90.5828 32.2693 92.4271 30.2615C94.2719 28.2532 95.4773 28 96.0009 28V22V16C90.9199 16 86.7451 18.7085 83.5897 22.1436C80.4338 25.5792 77.7964 30.2467 75.6072 35.5673L81.1559 37.8504ZM38.218 79.7802L42.9696 76.1165C39.9283 72.1721 38.0988 68.8263 37.2822 66.2254C36.4655 63.6238 36.8489 62.4534 37.1107 62L31.9146 59L26.7184 56C24.178 60.4 24.4361 65.3695 25.8332 69.8196C27.2304 74.2703 29.9536 78.8879 33.4665 83.4439L38.218 79.7802ZM53.0815 137.929L52.2828 131.982C47.3413 132.646 43.5246 132.558 40.8606 131.965C38.1958 131.372 37.373 130.454 37.1111 130L31.9149 133L26.7188 136C29.2606 140.403 33.697 142.664 38.2524 143.678C42.8087 144.693 48.1734 144.642 53.8801 143.875L53.0815 137.929ZM153.782 112.219L149.031 115.883C152.072 119.827 153.902 123.173 154.719 125.774C155.535 128.376 155.152 129.547 154.89 130L160.086 133L165.282 136C167.823 131.6 167.565 126.63 166.168 122.18C164.77 117.729 162.047 113.111 158.534 108.555L153.782 112.219ZM138.919 54.0715L139.717 60.0181C144.659 59.3543 148.476 59.4415 151.141 60.0347C153.806 60.6281 154.629 61.5463 154.891 61.9999L160.087 58.9999L165.283 55.9999C162.741 51.5971 158.304 49.3358 153.749 48.3215C149.192 47.307 143.827 47.3583 138.12 48.1249L138.919 54.0715ZM96.0006 68.7558L98.6821 74.1232C105.728 70.6032 112.561 67.6821 118.947 65.4016L116.929 59.7511L114.911 54.1006C108.033 56.5569 100.757 59.6725 93.319 63.3884L96.0006 68.7558ZM96.0006 123.244L93.319 117.877C86.2735 121.397 79.4403 124.318 73.0547 126.598L75.0726 132.249L77.0905 137.899C83.9684 135.443 91.2446 132.327 98.6821 128.612L96.0006 123.244ZM75.4067 107.622L78.3555 112.848L119.544 89.6035L116.595 84.3781L113.646 79.1528L72.4578 102.397L75.4067 107.622ZM110.846 154.149L105.297 151.866C103.402 156.473 101.419 159.731 99.5746 161.738C97.7298 163.747 96.5244 164 96.0008 164V170V176C101.082 176 105.257 173.291 108.412 169.856C111.568 166.421 114.205 161.753 116.394 156.433L110.846 154.149ZM96.0008 170V164C95.0918 164 92.4171 163.035 88.9836 156.711C85.8052 150.857 82.9705 142.1 80.975 131.171L75.0726 132.249L69.1702 133.326C71.2886 144.929 74.4262 155.048 78.4376 162.437C82.1938 169.355 87.9263 176 96.0008 176V170ZM114.465 48.7213L108.672 50.2834C109.549 53.5367 110.339 57.0643 111.027 60.8288L116.929 59.7511L122.832 58.6734C122.091 54.6165 121.23 50.7634 120.258 47.1593L114.465 48.7213ZM96.0009 22V28C96.4592 28 97.3814 28.1802 98.8076 29.491C100.268 30.8328 101.923 33.0776 103.602 36.404L108.958 33.7006L114.315 30.9972C112.256 26.9183 109.819 23.3128 106.928 20.6557C104.003 17.9675 100.315 16 96.0009 16V22ZM45.8233 103.65L50.0727 107.886C52.4517 105.5 55.1118 103.051 58.0286 100.573L54.1441 96.0001L50.2596 91.4273C47.1161 94.0976 44.2096 96.7704 41.5739 99.4144L45.8233 103.65ZM31.9149 133L37.1111 130C36.8819 129.603 36.577 128.715 36.9987 126.825C37.4304 124.89 38.5462 122.335 40.5866 119.219L35.5669 115.932L30.5472 112.645C28.045 116.467 26.1419 120.379 25.2868 124.211C24.4217 128.088 24.562 132.264 26.7188 136L31.9149 133ZM160.086 133L154.89 130C154.661 130.397 154.044 131.105 152.196 131.685C150.305 132.278 147.534 132.59 143.815 132.381L143.478 138.371L143.142 144.362C147.702 144.618 152.043 144.31 155.789 143.135C159.579 141.946 163.126 139.736 165.282 136L160.086 133ZM127.714 135.63L129.258 129.832C126.001 128.965 122.551 127.885 118.947 126.598L116.929 132.249L114.911 137.899C118.795 139.286 122.563 140.467 126.17 141.428L127.714 135.63Z" fill="black"/>
<circle cx="111.712" cy="41.2093" r="8" transform="rotate(-74 111.712 41.2093)" stroke="black" stroke-width="8"/>
<circle cx="135.596" cy="137.003" r="8" transform="rotate(46 135.596 137.003)" stroke="black" stroke-width="8"/>
<circle cx="40.6938" cy="109.79" r="8" transform="rotate(-14 40.6938 109.79)" stroke="black" stroke-width="8"/>
</svg>
