<svg xmlns="http://www.w3.org/2000/svg" width="192" height="192" fill="none"><path stroke="#000" stroke-linecap="round" stroke-linejoin="round" stroke-width="12" d="M96 68.756a226 226 0 0 0-12 6.46 226 226 0 0 0-11.593 7.162C65.653 86.84 59.51 91.44 54.144 96c-17.456 14.829-26.72 29.22-22.23 37 2.805 4.856 10.52 6.359 21.167 4.929m42.92-69.173c-7.242-3.618-14.297-6.636-20.928-9.005C53.502 52.048 36.406 51.22 31.915 59c-2.803 4.853-.251 12.28 6.303 20.78m57.783-11.024c7.241-3.618 14.296-6.636 20.928-9.005C112.815 37.22 104.984 22 96.001 22c-5.605 0-10.76 5.923-14.845 15.85m35.439 46.528-41.188 23.244M96 123.244a227 227 0 0 0 12-6.459 226 226 0 0 0 11.594-7.163c28.722-18.977 46.364-40.45 40.492-50.622-2.804-4.857-10.519-6.359-21.168-4.928M96 123.244c7.241 3.618 14.296 6.637 20.928 9.005 21.57 7.703 38.666 8.531 43.157.751 2.803-4.854.251-12.28-6.304-20.781M96 123.244c-7.242 3.618-14.297 6.636-20.928 9.005C79.187 154.781 87.017 170 96 170c5.604 0 10.76-5.923 14.845-15.851"/><path stroke="#000" stroke-width="10" d="M111.826 44.997a5 5 0 1 1 .349-9.995 5 5 0 0 1-.349 9.995Zm28.588 89.656a5 5 0 1 1-8.83 4.693 5 5 0 0 1 8.83-4.693Zm-96-27a5 5 0 1 1-8.828 4.694 5 5 0 0 1 8.828-4.694Z"/></svg>