<svg width="192" height="192" viewBox="0 0 192 192" fill="none" xmlns="http://www.w3.org/2000/svg"><ellipse cx="96" cy="148" rx="3" ry="2" stroke="#000" stroke-width="6" stroke-linecap="round" stroke-linejoin="round"/><path d="M74.937 109.539c-.513 1.947-4.035 2.679-7.866 1.636-3.832-1.043-6.521-3.467-6.008-5.414.513-1.947 4.035-2.679 7.866-1.636 3.832 1.043 6.522 3.467 6.008 5.414Zm42.126 0c.513 1.947 4.035 2.679 7.866 1.636 3.832-1.043 6.522-3.467 6.008-5.414-.513-1.947-4.035-2.679-7.866-1.636-3.832 1.043-6.522 3.467-6.008 5.414Z" stroke="#000" stroke-width="8" stroke-linecap="round" stroke-linejoin="round"/><path d="M39 87c-11 20-11 47-11 47 28 1 50 20 50 20m75-67c11 20 11 47 11 47-28 1-50 20-50 20m-18 12h-3.58c-7.087 0-13.056-5.294-13.909-12.328-1.49-12.294-3.8-31.232-5.511-44.672m23 57h3.58c7.087 0 13.056-5.294 13.909-12.328 1.49-12.294 3.8-31.232 5.511-44.672" stroke="#000" stroke-width="12" stroke-linecap="round" stroke-linejoin="round"/><path d="M96 51c-12 0-18 3-18 3S54 28 25 25c0 0-3 2-3 28s12 42 12 42m62-44c12 0 18 3 18 3s24-26 53-29c0 0 3 2 3 28s-12 42-12 42" stroke="#000" stroke-width="12" stroke-linecap="round" stroke-linejoin="round"/></svg>