<svg width="192" height="192" viewBox="0 0 192 192" fill="none" xmlns="http://www.w3.org/2000/svg"><path d="M48 142h24m48 0h24" stroke="#000" stroke-width="10" stroke-linecap="round"/><path d="M96 135c3.866 0 7-2.686 7-6s-3.134-6-7-6-7 2.686-7 6 3.134 6 7 6Z" stroke="#000" stroke-width="12" stroke-linejoin="round"/><path d="M68 123a3 3 0 1 0 0-6 3 3 0 0 0 0 6Zm76-2a3 3 0 1 0 0-6 3 3 0 0 0 0 6Zm-96 0a3 3 0 1 0 0-6 3 3 0 0 0 0 6Zm76 2a3 3 0 1 0 0-6 3 3 0 0 0 0 6Z" stroke="#000" stroke-width="6" stroke-linejoin="round"/><path d="m140.133 89.136.728-32a5.99 5.99 0 0 0-1.708-4.33A5.998 5.998 0 0 0 134.862 51H57.138a6 6 0 0 0-5.998 6.136l.727 32A6 6 0 0 0 57.865 95h76.27a6 6 0 0 0 5.998-5.864Z" stroke="#000" stroke-width="12" stroke-linecap="round" stroke-linejoin="round"/><path d="M135 25H57c-17.673 0-32 14.327-32 32v78c0 17.673 14.327 32 32 32h78c17.673 0 32-14.327 32-32V57c0-17.673-14.327-32-32-32Z" stroke="#000" stroke-width="12" stroke-linecap="round" stroke-linejoin="round"/></svg>