<svg xmlns="http://www.w3.org/2000/svg" width="192" height="192" fill="none"><path stroke="#000" stroke-linecap="round" stroke-linejoin="round" stroke-width="12" d="M169 108V84a6 6 0 0 0-6-6h-8.699C146.621 53.097 123.424 35 96 35S45.379 53.097 37.7 78H29a6 6 0 0 0-6 6v24a6 6 0 0 0 6 6h8.7c7.679 24.903 30.876 43 58.3 43s50.621-18.097 58.301-43H163a6 6 0 0 0 6-6"/><path stroke="#000" stroke-linecap="round" stroke-linejoin="round" stroke-width="12" d="M96 96c-5-3-19-8-19-22 0-8 7-16 19-16 11 0 18 5 18 5M96 96c5 3 19 8 19 22 0 8-7 16-19 16-11 0-18-5-18-5"/><path stroke="#000" stroke-linecap="round" stroke-linejoin="round" stroke-width="10" d="M115 63v10m-38 56v-10"/></svg>