<svg width="24" height="24" viewBox="0 0 24 24" fill="none" xmlns="http://www.w3.org/2000/svg">
<path fill-rule="evenodd" clip-rule="evenodd" d="M6.30074 3.60862L8.08465 5.39253C7.23675 5.97785 6.53 6.75308 6.02586 7.65675H3V9.83547H5.2666C5.20878 10.19 5.17872 10.5539 5.17872 10.9248V12.0142H3V14.1929H5.17872V15.2823C5.17872 15.6532 5.20878 16.0171 5.2666 16.3716H3V18.5504H6.02586C7.17392 20.6083 9.37265 22 11.8964 22C14.4202 22 16.619 20.6083 17.767 18.5504H20.7929V16.3716H18.5263C18.5841 16.0171 18.6142 15.6532 18.6142 15.2823V14.1929H20.7929V12.0142H18.6142V10.9248C18.6142 10.5539 18.5841 10.19 18.5263 9.83547H20.7929V7.65675H17.767C17.2648 6.75657 16.5616 5.98385 15.7181 5.39932L17.4689 3.64845L15.861 2.04053L13.5015 4.40005C12.9872 4.27397 12.4496 4.20711 11.8964 4.20711C11.3485 4.20711 10.8158 4.27272 10.3059 4.39652L7.90936 2L6.30074 3.60862ZM10 10H14V12H10V10ZM14 14H10V16H14V14Z" fill="#C4C4C4"/>
</svg>
