<svg width="192" height="192" fill="none" xmlns="http://www.w3.org/2000/svg"><path d="M169 108V84a6 6 0 0 0-6-6h-8.699C146.621 53.097 123.424 35 96 35c-27.424 0-50.621 18.097-58.3 43H29a6 6 0 0 0-6 6v24a6 6 0 0 0 6 6h8.7c7.679 24.903 30.876 43 58.3 43 27.424 0 50.621-18.097 58.301-43H163a6 6 0 0 0 6-6Z" stroke="#000" stroke-width="12" stroke-linecap="round" stroke-linejoin="round"/><path d="M96 96c-5-3-19-8-19-22 0-8 7-16 19-16 11 0 18 5 18 5M96 96c5 3 19 8 19 22 0 8-7 16-19 16-11 0-18-5-18-5" stroke="#000" stroke-width="12" stroke-linecap="round" stroke-linejoin="round"/><path d="M115 63v10m-38 56v-10" stroke="#000" stroke-width="10" stroke-linecap="round" stroke-linejoin="round"/></svg>