<svg xmlns="http://www.w3.org/2000/svg" width="192" height="192" fill="none" viewBox="0 0 192 192"><path stroke="#000" stroke-linecap="round" stroke-linejoin="round" stroke-width="12" d="M150.194 63.111h-19.001c-3.043-6.413-7.236-11.922-12.307-16.115l11.022-13.403L120.373 22 105.7 39.842c-3.111-.904-6.29-1.398-9.603-1.398a33.31 33.31 0 0 0-9.534 1.398L71.82 22l-9.535 11.593L73.24 46.996c-5.004 4.193-9.196 9.702-12.24 16.115H42v16.445h14.133c-.338 2.713-.609 5.426-.609 8.222V96H42v16.444h13.524v8.223c0 2.795.27 5.509.609 8.222H42v16.444h19.002C68.034 160.051 81.085 170 96.097 170s28.063-9.949 35.096-24.667h19.001v-16.444h-14.132c.338-2.713.608-5.427.608-8.222v-8.223h13.524V96H136.67v-8.222c0-2.796-.27-5.51-.608-8.222h14.132V63.11Zm-40.572 65.778h-27.05v-16.445h27.05v16.445Zm0-32.889h-27.05V79.556h27.05V96Z"/></svg>