<svg xmlns="http://www.w3.org/2000/svg" width="192" height="192" fill="none"><path stroke="#000" stroke-linecap="round" stroke-linejoin="round" stroke-width="12" d="M119 22h9.317c3.43 0 6.211 2.796 6.211 6.245v31.224m24.845-21.857 7.86 5.269a6.265 6.265 0 0 1 2.111 7.989L158.338 73M84.665 22.571 25.45 50.42a6 6 0 0 0-2.99 7.725l44.792 108.144a6 6 0 0 0 8.089 3.138l59.457-27.863a6 6 0 0 0 2.993-7.74L92.757 25.694a6 6 0 0 0-8.092-3.123"/><path stroke="#000" stroke-linecap="round" stroke-linejoin="round" stroke-width="10" d="M104 106.5 86 63l-8 12.5m2 19.72-19 9.086M65.806 89l8.55 21"/></svg>