<svg xmlns="http://www.w3.org/2000/svg" width="192" height="192" fill="none" viewBox="0 0 192 192"><path stroke="#000" stroke-linecap="round" stroke-linejoin="round" stroke-width="12" d="M119 22h9.317c3.43 0 6.211 2.796 6.211 6.245v31.224m24.845-21.857 7.86 5.269a6.264 6.264 0 0 1 2.111 7.989L158.338 73M85.665 22.571 25.45 50.42a6 6 0 0 0-2.99 7.725l44.792 108.144a6 6 0 0 0 3.374 3.299 6 6 0 0 0 4.715-.161l60.457-27.863a5.997 5.997 0 0 0 2.993-7.74L93.757 25.694a6 6 0 0 0-8.092-3.123"/><path stroke="#000" stroke-linecap="round" stroke-linejoin="round" stroke-width="10" d="M106 106.5 88 63l-8 12.5m2 19.72-19 9.086M67.806 89l8.55 21"/></svg>