<svg width="192" height="192" viewBox="0 0 192 192" fill="none" xmlns="http://www.w3.org/2000/svg"><path d="M104 170H28l27-30h41M88 22h76l-27 30H96m8 118a44.005 44.005 0 0 0 26.786-9.092 44.005 44.005 0 0 0 13.865-51.746 43.98 43.98 0 0 0-4.868-8.766M88 22a44 44 0 0 0-35.783 69.604m0 0A44.5 44.5 0 0 0 52 96c0 24.301 19.7 44 44 44 22.817 0 41.577-17.368 43.783-39.604m-87.566-8.792C54.423 69.368 73.183 52 96 52c24.301 0 44 19.7 44 44 0 1.484-.073 2.95-.217 4.396" stroke="#000" stroke-width="12" stroke-linecap="round" stroke-linejoin="round"/></svg>