<svg width="192" height="192" viewBox="0 0 192 192" fill="none" xmlns="http://www.w3.org/2000/svg"><path d="M25 53a6 6 0 0 1 6-6h37.515a6 6 0 0 1 4.242 1.757l36.486 36.486A6 6 0 0 1 111 89.485V161a6 6 0 0 1-6 6H31a6 6 0 0 1-6-6V53Z" stroke="#000" stroke-width="12" stroke-linecap="round" stroke-linejoin="round"/><path d="M112 145h49a6 6 0 0 0 6-6V67.485a6 6 0 0 0-1.757-4.242l-36.486-36.486A5.998 5.998 0 0 0 124.515 25H87a6 6 0 0 0-6 6v25" stroke="#000" stroke-width="12" stroke-linecap="round" stroke-linejoin="round"/><path d="M68 50v34a6 6 0 0 0 6 6h34m16-62v34a6 6 0 0 0 6 6h34" stroke="#000" stroke-width="12" stroke-linecap="round" stroke-linejoin="round"/></svg>