<svg width="192" height="192" fill="none" xmlns="http://www.w3.org/2000/svg"><path d="M45 115.455h102M57.447 22h76.802c6.896 0 12.447 5.61 12.447 12.58v122.841c0 6.969-5.551 12.579-12.447 12.579H57.448C50.552 170 45 164.39 45 157.421V34.579C45 27.61 50.551 22 57.447 22Z" stroke="#000" stroke-width="12" stroke-linejoin="round"/><path d="M96 148a5.002 5.002 0 0 0 5-5 5.003 5.003 0 0 0-5-5 5.002 5.002 0 0 0-5 5 5.002 5.002 0 0 0 5 5Z" stroke="#000" stroke-width="10" stroke-linecap="round" stroke-linejoin="round"/></svg>