<svg xmlns="http://www.w3.org/2000/svg" width="192" height="192" viewBox="0 0 192 192"><path d="M96 16c-22.961 0-45.242 10.047-58.612 28.441C27.48 58.073 23.18 77.155 23.18 96c0 22.843 7.445 44.816 21.375 59.345C57.629 168.981 76.642 176 96 176c20.342 0 41.163-6.952 54.396-21.85 12.757-14.361 18.424-36.433 18.424-58.15 0-18.842-4.181-38.049-14.088-51.679C141.364 25.928 118.959 16 96 16m0 12c19.124 0 37.89 8.055 49.025 23.376C153.562 63.121 156.82 79.764 156.82 96c0 18.687-4.418 37.823-15.395 50.18C130.409 158.581 112.933 164 96 164c-16.071 0-31.929-5.639-42.783-16.959C41.262 134.571 35.18 115.604 35.18 96c0-16.234 3.38-32.76 11.915-44.504C58.229 36.177 76.878 28 96 28m-9.205 74.377a9 9 0 0 1 1.031-.246c1.018-.15 2.13-.185 3.25-.162 4.522.091 9.165 1.136 9.79 1.281 1.428.364 19.513 4.934 29.321 4.935 5.792.001 9.891-.995 12.83-3.421 2.927-2.416 5.153-6.508 5.831-14.104 1.064-11.942-3.788-23.51-10.038-32.109-9.748-13.412-26.069-20.683-42.81-20.683-16.743 0-32.976 7.354-42.725 20.767C46.092 68.518 42.927 82.338 42.927 96c0 16.571 5.446 32.495 15.551 43.035 8.288 8.644 19.826 13.2 31.98 14.651 3.314.396 7.652-1.597 10.479-5.15 2.897-3.642 3.781-8.39 2.485-11.558-3.482-8.51-13.011-24.856-13.011-24.856l-.049-.082s-2.265-3.712-3.265-7.489a.604 4.348 0 0 0-.302-2.174m5.058 38.056-.98 1.208c-8.996-1.227-17.579-4.492-23.733-10.911-8.13-8.48-12.213-21.398-12.213-34.73 0-11.051 2.244-22.316 8.055-30.31C70.495 55.353 83.096 49.868 96 49.868c12.906 0 25.588 5.399 33.103 15.738 4.686 6.447 8.59 15.035 7.792 23.988-.149 1.668-.364 3.051-.695 4.192-.222.764-.391 1.368-.822 1.723-.431.356-1.022.405-1.693.499-1.031.143-2.193.177-3.497.177-9.158-.001-26.337-4.558-26.337-4.558l-.122-.031s-8.7-2.045-15.661-1.551c-4.285.305-7.966 1.693-10.156 3.882-2.577 2.577-3.583 6.4-3.022 10.672.823 6.27 5.209 13.66 5.209 13.66-.046-.079 8.175 13.952 11.754 22.174"/></svg>