<svg width="192" height="192" viewBox="0 0 192 192" fill="none" xmlns="http://www.w3.org/2000/svg">
<path d="M81 129.833C93.9608 124.078 103 111.095 103 96C103 80.9052 93.9608 67.9215 81 62.1668C85.5848 60.1311 90.6603 59 96 59C116.435 59 133 75.5655 133 96C133 116.435 116.435 133 96 133C90.6603 133 85.5848 131.869 81 129.833Z" stroke="black" stroke-width="10" stroke-linejoin="round"/>
<path d="M42.967 74.033L25.2426 91.7574C22.8995 94.1005 22.8995 97.8995 25.2426 100.243L42.967 117.967V143.033C42.967 146.347 45.6533 149.033 48.967 149.033H74.033L91.7574 166.757C94.1005 169.101 97.8995 169.101 100.243 166.757L117.967 149.033H143.033C146.347 149.033 149.033 146.347 149.033 143.033V117.967L166.757 100.243C169.101 97.8995 169.101 94.1005 166.757 91.7574L149.033 74.033V48.967C149.033 45.6533 146.347 42.967 143.033 42.967H117.967L100.243 25.2426C97.8995 22.8995 94.1005 22.8995 91.7574 25.2426L74.033 42.967H48.967C45.6533 42.967 42.967 45.6533 42.967 48.967V74.033Z" stroke="black" stroke-width="10" stroke-linejoin="round"/>
</svg>
