<svg xmlns="http://www.w3.org/2000/svg" width="192" height="192" fill="none" viewBox="0 0 192 192"><path stroke="#000" stroke-linejoin="round" stroke-width="10" d="M81 129.833c12.96-5.755 22-18.738 22-33.833s-9.04-28.079-22-33.833A36.9 36.9 0 0 1 96 59c20.435 0 37 16.566 37 37s-16.565 37-37 37a36.9 36.9 0 0 1-15-3.167Z"/><path stroke="#000" stroke-linejoin="round" stroke-width="10" d="m21 96 21.967-21.967V48.967a6 6 0 0 1 6-6h25.066L96 21l21.967 21.967h25.066a6 6 0 0 1 6 6v25.066L171 96l-21.967 21.967v25.066a6 6 0 0 1-6 6h-25.066L96 171l-21.967-21.967H48.967a6 6 0 0 1-6-6v-25.066z"/></svg>