<svg width="192" height="192" viewBox="0 0 192 192" fill="none" xmlns="http://www.w3.org/2000/svg">
<g clip-path="url(#clip0_308_2)">
<path d="M122 48H34C27.3726 48 22 53.3726 22 60L22.0002 132C22.0002 138.627 27.3728 144 34.0002 144H122C128.627 144 134 138.627 134 132V60C134 53.3726 128.627 48 122 48Z" stroke="black" stroke-width="12" stroke-linecap="round" stroke-linejoin="round"/>
<path d="M134 88L170 60V132L134 104" stroke="black" stroke-width="12" stroke-linecap="round" stroke-linejoin="round"/>
<path d="M49 98C48.2044 98.0001 47.4414 98.3162 46.8788 98.8788C46.3162 99.4414 46.0001 100.204 46 101V125C46 125.796 46.3161 126.559 46.8787 127.121C47.4413 127.684 48.2044 128 49 128C49.7956 128 50.5587 127.684 51.1213 127.121C51.6839 126.559 52 125.796 52 125V120.242L58.8789 127.121C59.4415 127.684 60.2045 128 61 128C61.7955 128 62.5585 127.684 63.1211 127.121C63.6836 126.559 63.9996 125.796 63.9996 125C63.9996 124.204 63.6836 123.441 63.1211 122.879L56.0313 115.789C60.4663 115.249 64.0001 111.57 64.0001 107C64.0001 102.065 59.9351 98 55.0001 98H49ZM75 98C71.7218 98 69 100.722 69 104V122C69 125.278 71.7218 128 75 128H84C84.7956 128 85.5587 127.684 86.1213 127.121C86.6839 126.559 87 125.796 87 125C87 124.204 86.6839 123.441 86.1213 122.879C85.5587 122.316 84.7956 122 84 122H75V116H78C78.7956 116 79.5587 115.684 80.1213 115.121C80.6839 114.559 81 113.796 81 113C81 112.204 80.6839 111.441 80.1213 110.879C79.5587 110.316 78.7956 110 78 110H75V104H84C84.7956 104 85.5587 103.684 86.1213 103.121C86.6839 102.559 87 101.796 87 101C87 100.204 86.6839 99.4413 86.1213 98.8787C85.5587 98.3161 84.7956 98 84 98H75ZM101 98C96.065 98 92 102.065 92 107V119C92 123.935 96.065 128 101 128H107C107.796 128 108.559 127.684 109.121 127.121C109.684 126.559 110 125.796 110 125C110 124.204 109.684 123.441 109.121 122.879C108.559 122.316 107.796 122 107 122H101C99.3076 122 98 120.692 98 119V107C98 105.308 99.3076 104 101 104H107C107.796 104 108.559 103.684 109.121 103.121C109.684 102.559 110 101.796 110 101C110 100.204 109.684 99.4413 109.121 98.8787C108.559 98.3161 107.796 98 107 98H101ZM52 104H55C56.6924 104 58 105.308 58 107C58 108.692 56.6924 110 55 110H52V104Z" fill="black"/>
</g>
<defs>
<clipPath id="clip0_308_2">
<rect width="192" height="192" fill="white"/>
</clipPath>
</defs>
</svg>
