<svg width="192" height="192" viewBox="0 0 50.8 50.8"><path d="M29.092 17.78V7.6c0-.982-.799-1.78-1.783-1.78H9.478c-.985 0-1.783.798-1.783 1.78v35.6c0 .982.798 1.78 1.783 1.78h17.83c.985 0 1.784-.798 1.784-1.78V33.02" style="fill:none;stroke:#000;stroke-width:3.175;stroke-linecap:round;stroke-linejoin:round;stroke-dasharray:none;stroke-opacity:1"/><path d="M29.092 24.077a1.324 1.323 0 0 0-1.323 1.325 1.324 1.323 0 0 0 1.323 1.32 1.324 1.323 0 0 0 1.323-1.32 1.324 1.323 0 0 0-1.323-1.325" style="color:#000;fill:none;stroke:#000;stroke-width:2.64584;stroke-linecap:round;stroke-linejoin:round;stroke-dasharray:none;stroke-opacity:1;paint-order:fill markers stroke"/><path d="M39.609 14.244A15.34 15.34 0 0 1 44.428 25.4a15.34 15.34 0 0 1-4.839 11.136m-5.272-16.679a7.62 7.62 0 0 1 2.395 5.543 7.62 7.62 0 0 1-2.404 5.533" style="fill:none;stroke:#000;stroke-width:3.175;stroke-linecap:round;stroke-linejoin:round;stroke-dasharray:none"/></svg>