<?xml version="1.0" encoding="UTF-8" standalone="no"?>
<svg
   viewBox="0 0 64 64"
   width="24px"
   height="24px"
   version="1.1"
   id="svg16"
   sodipodi:docname="screen_recorder.svg"
   inkscape:version="1.1.1 (3bf5ae0d25, 2021-09-20)"
   xmlns:inkscape="http://www.inkscape.org/namespaces/inkscape"
   xmlns:sodipodi="http://sodipodi.sourceforge.net/DTD/sodipodi-0.dtd"
   xmlns="http://www.w3.org/2000/svg"
   xmlns:svg="http://www.w3.org/2000/svg">
  <defs
     id="defs20" />
  <sodipodi:namedview
     id="namedview18"
     pagecolor="#ffffff"
     bordercolor="#666666"
     borderopacity="1.0"
     inkscape:pageshadow="2"
     inkscape:pageopacity="0.0"
     inkscape:pagecheckerboard="0"
     showgrid="false"
     inkscape:zoom="8.5833338"
     inkscape:cx="-2.3883494"
     inkscape:cy="19.631067"
     inkscape:window-width="1920"
     inkscape:window-height="1009"
     inkscape:window-x="-8"
     inkscape:window-y="-8"
     inkscape:window-maximized="1"
     inkscape:current-layer="svg16"
     showguides="false" />
  <linearGradient
     id="AQp1CkUOovhRSREXJZOJma"
     x1="32.005"
     x2="32.005"
     y1="17"
     y2="53"
     gradientUnits="userSpaceOnUse"
     spreadMethod="reflect">
    <stop
       offset="0"
       stop-color="#1a6dff"
       id="stop2" />
    <stop
       offset="1"
       stop-color="#c822ff"
       id="stop4" />
  </linearGradient>
  <linearGradient
     id="AQp1CkUOovhRSREXJZOJmb"
     x1="29.93"
     x2="29.93"
     y1="19"
     y2="41.8"
     gradientUnits="userSpaceOnUse"
     spreadMethod="reflect">
    <stop
       offset="0"
       stop-color="#6dc7ff"
       id="stop9" />
    <stop
       offset="1"
       stop-color="#e6abff"
       id="stop11" />
  </linearGradient>
  <path
     id="rect941"
     style="fill:#000000;fill-opacity:1;stroke:none;stroke-width:0;stroke-linecap:square;stroke-miterlimit:4;stroke-dasharray:none;paint-order:markers fill stroke"
     d="m 8.7999133,13.936 c -1.92063,0 -3.46658,1.545956 -3.46658,3.466583 v 29.19508 c 0,1.920626 1.54595,3.466583 3.46658,3.466583 H 43.35922 c 1.920627,0 3.468105,-1.545957 3.468105,-3.466583 v -9.535386 l 11.174327,11.174328 a 0.38961157,0.38961157 0 0 0 0.665011,-0.27544 V 15.996471 a 0.38961157,0.38961157 0 0 0 -0.238916,-0.360658 0.38961157,0.38961157 0 0 0 -0.426095,0.08522 L 46.827325,26.895359 v -9.492776 c 0,-1.920627 -1.547478,-3.466583 -3.468105,-3.466583 z m 2.6250497,6.225544 h 29.310733 c 0.209997,0 0.37892,0.168922 0.37892,0.37892 v 22.917795 c 0,0.209999 -0.168923,0.380442 -0.37892,0.380442 H 11.424963 c -0.21,0 -0.37892,-0.170443 -0.37892,-0.380442 V 20.540464 c 0,-0.209998 0.16892,-0.37892 0.37892,-0.37892 z" />
</svg>
