<svg xmlns="http://www.w3.org/2000/svg" width="192" height="192" viewBox="0 0 192 192"><path fill="none" stroke="#000" stroke-linecap="round" stroke-linejoin="round" stroke-width="12" d="M122 48H34a12 12 0 0 0-12 12v72a12 12 0 0 0 12 12h88a12 12 0 0 0 12-12V60a12 12 0 0 0-12-12m12 40 36-28v72l-36-28"/><path d="M49 98a3 3 0 0 0-3 3v24a2.999 2.999 0 0 0 6 0v-4.758l6.879 6.879a2.998 2.998 0 1 0 4.242-4.242l-7.09-7.09c4.435-.54 7.97-4.219 7.97-8.789 0-4.935-4.066-9-9-9zm26 0c-3.278 0-6 2.722-6 6v18c0 3.278 2.722 6 6 6h9a2.999 2.999 0 0 0 0-6h-9v-6h3a2.999 2.999 0 0 0 0-6h-3v-6h9a3 3 0 0 0 0-6zm26 0c-4.935 0-9 4.065-9 9v12c0 4.935 4.065 9 9 9h6c.796 0 1.559-.316 2.121-.879A2.996 2.996 0 0 0 107 122h-6c-1.692 0-3-1.308-3-3v-12c0-1.692 1.308-3 3-3h6c.796 0 1.559-.316 2.121-.879A2.998 2.998 0 0 0 107 98zm-49 6h3c1.692 0 3 1.308 3 3s-1.308 3-3 3h-3z"/></svg>