<?xml version="1.0" encoding="utf-8"?>
	<svg version="1.1" xmlns="http://www.w3.org/2000/svg" xmlns:xlink="http://www.w3.org/1999/xlink" x="0px" y="0px" width="240.0" height="240.0" xml:space="preserve">
		<path d="M220,89.738L220,151.262C220,160.305 210.684,166.359 202.422,162.688L177.344,151.535C176.836,151.301 176.25,151.691 176.25,152.258L176.25,170.5C176.25,177.395 170.645,183 163.75,183L32.5,183C25.605,183 20,177.395 20,170.5L20,70.5C20,63.586 25.605,58 32.5,58L163.75,58C170.645,58 176.25,63.586 176.25,70.5L176.25,88.742C176.25,89.309 176.836,89.68 177.344,89.465L202.422,78.313C210.684,74.641 220,80.695 220,89.738Z" fill="#000" stroke="#00000000" stroke-width="1.0" stroke-miterlimit=""/>
	</svg>
