<svg xmlns="http://www.w3.org/2000/svg" width="192" height="192" fill="none" viewBox="0 0 192 192"><path stroke="#000" stroke-linejoin="round" stroke-width="12" d="M83 127.09c11.963-5.289 20.308-17.219 20.308-31.09S94.963 70.198 83 64.91A34.2 34.2 0 0 1 96.846 62C115.71 62 131 77.223 131 96s-15.291 34-34.154 34A34.2 34.2 0 0 1 83 127.09Z"/><path stroke="#000" stroke-linejoin="round" stroke-width="12" d="m22 96 21.674-21.674V49.594a5.92 5.92 0 0 1 5.92-5.92h24.732L96 22l21.674 21.674h24.732a5.92 5.92 0 0 1 5.92 5.92v24.732L170 96l-21.674 21.674v24.732a5.92 5.92 0 0 1-5.92 5.92h-24.732L96 170l-21.674-21.674H49.594a5.92 5.92 0 0 1-5.92-5.92v-24.732z"/></svg>