<svg xmlns="http://www.w3.org/2000/svg" width="192" height="192" viewBox="0 0 192 192"><path fill="none" stroke="#000" stroke-linejoin="round" stroke-width="12" d="m26.5 115.235 33.21.093c.553 5.107 2.622 11.732 10.116 15.598 7.494 3.865 30.25 10.082 34.833 1.258 4.582-8.825-8.87-14.236-21.049-17.514-6.056-1.63-17.61-6.01-27.074-11.877-9.569-5.93-15.708-9.693-20.455-19.352-4.746-9.659-7.581-28.818 1.477-41.46 9.06-12.643 28.072-19.379 43.597-19.93 15.525-.55 34.484 3.35 42.186 17.82l5.23-12.836 36.929.095v49.195l-33.453.095c.62-4.035-2.294-12.408-11.524-16.531-9.23-4.123-24.108-6.831-29.777-3.764-5.669 3.067-5.75 11.253 1.602 15.113 7.352 3.86 22.687 7.03 33.871 13.018 11.185 5.988 29.488 14.449 33.264 33.87 3.776 19.42-1.686 31.75-14.093 40.887s-28.598 10.828-39.976 10.984c-12.985.179-32.393-10.321-37.002-18.332l-4.49 12.991-37.422.188Z"/></svg>