<svg xmlns="http://www.w3.org/2000/svg" width="192" height="192" fill="none" viewBox="0 0 192 192"><path stroke="#000" stroke-linejoin="round" stroke-width="12" d="M26.5 121.252a6 6 0 0 1 6.017-6l27.193.076c.553 5.107 2.622 11.732 10.116 15.598 7.494 3.865 30.25 10.082 34.833 1.258s-8.87-14.236-21.049-17.514c-6.056-1.63-17.61-6.01-27.074-11.877-9.569-5.93-15.708-9.693-20.455-19.352s-7.581-28.818 1.477-41.46c9.06-12.643 28.072-19.379 43.597-19.93s34.484 3.35 42.186 17.82l5.23-12.836 30.944.08a6 6 0 0 1 5.985 6v37.227a6 6 0 0 1-5.983 6l-27.47.078c.62-4.035-2.294-12.408-11.524-16.53-9.23-4.124-24.108-6.832-29.777-3.765s-5.75 11.253 1.602 15.113 22.687 7.03 33.871 13.018 29.488 14.45 33.264 33.87-1.686 31.75-14.093 40.887-28.598 10.828-39.976 10.984c-12.985.179-32.393-10.321-37.002-18.332l-4.49 12.991-31.392.158a6 6 0 0 1-6.03-6z"/></svg>