<svg xmlns="http://www.w3.org/2000/svg" width="256" height="256" viewBox="0 0 192 192" preserveAspectRatio="xMidYMid meet" xmlns:v="https://vecta.io/nano"><path d="M48.3 26.6c-1.5 2.4-1.5 2.9-.2 5.3l4.8 8.3 3.2 5.8h-3.9c-2.1 0-4.1.3-4.4.6-.4.3.4 3 1.8 5.9l2.3 5.4-9.7 9.8C33.8 76.1 31.7 78.9 27.7 87c-6.9 14.1-10.7 32.5-7.8 37.8l1.2 2.2H96c73.1 0 75 0 76-1.9 2.3-4.4 0-20.1-4.7-31.9-5.5-13.6-19.1-29.9-30.7-36.7-2.5-1.5-4.6-3.1-4.6-3.5 0-.5 3-5.8 6.6-11.9 6.6-11.3 7.1-13.4 3.9-16.1-3.4-2.8-6.2-.3-13.5 12.1-6.3 10.6-7.4 12-9.3 11.5-11.1-3.2-15.9-3.8-26.7-3.3-6.3.2-12.3.7-13.2 1.1-1.3.6-2.3-.5-4.8-5.4l-3.2-6.2-3.2 3.1-3.3 3.2-4.6-7.9c-5.8-9.9-9-11.7-12.4-6.6zm59.3 29.5c24.2 4.4 44.4 22.4 51.9 46.2 1.4 4.3 2.5 9.4 2.5 11.3v3.4H96 30v-3.5c0-4.9 4.2-17.3 8.3-24.7 13.6-24.2 42.1-37.7 69.3-32.7zM64.4 85.4C56.2 89 59 101 68 101c7 0 10.5-8.1 5.8-13.4-3-3.2-5.6-3.8-9.4-2.2zm56.9-.4c-4.8 1.9-5.8 9.5-1.8 13.5 5.1 5.2 13.5 1.5 13.5-6 0-6.4-5.6-10-11.7-7.5zm-89.5 56.1c-2.1 1.2-2.4 5.9-.6 7.7.8.8 6.2 1.2 17.6 1.2h16.3l1 2.9c1.3 3.7 4.9 6.1 8.9 6.1 2.2 0 4.1 1 6.5 3.5 7.1 7 17.6 7.2 25 .4 2.9-2.7 5.1-3.9 7.2-3.9 3.2 0 6.9-2.9 8.3-6.6l1-2.4h18.4c17.7 0 18.6-.1 20-2.1 1.6-2.3 1.2-4.7-1.2-6.7-2-1.6-125.7-1.7-128.4-.1z"/></svg>