<?xml version="1.0" encoding="UTF-8"?>
<svg width="24" height="24" fill="none" version="1.1" viewBox="0 0 24 24" xmlns="http://www.w3.org/2000/svg">
 <path d="m11.904 21.998c-0.24049-0.01083-0.479-0.07033-0.69938-0.17448-0.15942-0.07534-0.3098-0.1754-0.44953-0.2991-0.0364-0.03222-0.1326-0.12851-0.15798-0.15813-0.05067-0.05913-0.08331-0.10761-0.15262-0.2267-0.08587-0.14754-0.11002-0.18329-0.12382-0.18329-0.0063 0-0.05819 0.02598-0.11448 0.05732-0.23958 0.13336-0.48679 0.21046-0.75919 0.23675-0.06231 6e-3 -0.10332 0.0077-0.18425 0.0077-0.0833 0-0.11398-0.0014-0.18811-0.0086-0.37346-0.03623-0.72985-0.18213-1.007-0.41228-0.08216-0.06823-0.17195-0.15887-0.23689-0.23912-0.04456-0.05507-0.10019-0.13427-0.13127-0.1869-0.05719-0.09682-0.16699-0.32147-0.20837-0.42629-0.02393-0.06063-0.04313-0.16508-0.05372-0.29229-0.0024-0.02835-0.0035-0.07731-0.0046-0.19872-0.0016-0.18394-0.0014-0.1815-0.01682-0.20213-0.0059-0.0079-0.01943-0.01486-0.03444-0.01778-0.0069-0.0013-0.04945-0.0029-0.10604-0.0039-0.052-9.25e-4 -0.10713-0.0026-0.12251-0.0037-0.12353-9e-3 -0.23566-0.02665-0.35017-0.05523-0.41432-0.10349-0.77292-0.33733-1.0176-0.6636-0.10996-0.14665-0.19553-0.31021-0.25487-0.48716-0.05892-0.17571-0.09082-0.36287-0.09576-0.56192l-0.0013-0.05161h-2.1139v-1.7152h17.36v1.7152h-2.1218l-0.0013 0.04968c-0.0036 0.13698-0.01575 0.24827-0.03899 0.35741-0.06209 0.29157-0.18742 0.5433-0.3823 0.76787-0.03124 0.036-0.12448 0.12925-0.16057 0.16058-0.19859 0.17242-0.42779 0.30105-0.68781 0.38599-0.21452 0.07008-0.43171 0.10619-0.67676 0.11254l-0.05166 0.0013 0.0013 0.18636c0.0016 0.23258 2.55e-4 0.2613-0.01576 0.34146-0.01086 0.05432-0.01946 0.08713-0.0355 0.13526-0.04922 0.14779-0.14732 0.35279-0.24259 0.50695-0.07813 0.12642-0.21839 0.28186-0.35655 0.39512-0.28371 0.23258-0.63502 0.37505-1.0081 0.40881-0.11518 0.01042-0.26266 0.0089-0.37718-0.0039-0.13244-0.01478-0.2646-0.04391-0.38876-0.08568-0.11438-0.03847-0.213-0.0828-0.33281-0.14956-0.07386-0.04116-0.11326-0.06079-0.122-0.06079-0.01547 0-0.03489 0.0272-0.12404 0.17364-0.06189 0.10168-0.1213 0.18871-0.17384 0.25467-0.03005 0.03773-0.10844 0.11144-0.18593 0.17483-0.37128 0.30372-0.83009 0.45938-1.2927 0.43856zm4.5082-1.2206c0.01912-0.02059 0.05308-0.05888 0.068-0.07669 0.18707-0.22319 0.33604-0.59775 0.38404-0.96563 0.0037-0.02812 0.01836-0.17647 0.01836-0.1854 0-6.98e-4 0.03495-0.0018 0.07766-0.0023 0.0754-1e-3 0.08901-0.0018 0.14808-0.0082 0.18408-0.02008 0.41131-0.07519 0.56433-0.13685 0.29898-0.12048 0.55723-0.31157 0.7562-0.55951 0.03474-0.0433 0.0553-0.07083 0.0815-0.10917 0.14378-0.21041 0.23902-0.43862 0.28504-0.68301 0.0085-0.04494 0.0143-0.08546 0.02415-0.16766 0.0043-0.03555 0.0082-0.06745 0.0088-0.0709l0.0011-0.0063h0.59945c0.58211 0 0.90419 0.0018 1.0509 0.0058 0.06052 0.0017 0.19704 0.0098 0.19856 0.01185 2.68e-4 3.49e-4 -0.0024 0.42302-6e-3 0.93926l-0.0065 0.93862-0.02332 0.0656c-0.03875 0.10898-0.05892 0.1581-0.09228 0.22475-0.05402 0.10791-0.11495 0.19968-0.19418 0.29247-0.02893 0.03387-0.10547 0.1111-0.13914 0.14038-0.10492 0.09126-0.21617 0.16435-0.34871 0.22912-0.07929 0.03875-0.14307 0.06431-0.25427 0.1019l-0.05748 0.01943-0.7432 0.0019c-1.94 0.0051-2.2441 0.0058-2.3222 0.0058h-0.0838l0.0049-0.0053zm-11.217-0.01037c-0.30348-8.31e-4 -0.59303-0.0023-0.64343-0.0033l-0.09164-0.0018-0.03569-0.0097c-0.1894-0.05162-0.34766-0.12246-0.49727-0.22268-0.21224-0.14217-0.37757-0.32945-0.48763-0.55234-0.04442-0.08996-0.07754-0.17904-0.10135-0.27266l-0.0075-0.02956-2e-3 -0.09295c-0.0066-0.30439-0.0097-0.73527-0.0097-1.3415l-2.7e-5 -0.43821 0.13168-0.0012c0.07242-6.57e-4 0.45899-0.0021 0.85903-0.0031 0.40005-0.0011 0.75784-0.0024 0.79509-0.0029l0.06773-9.78e-4 0.0013 0.03231c0.0093 0.22627 0.06876 0.45148 0.17684 0.66999 0.17885 0.36159 0.47377 0.65585 0.83625 0.83439 0.23016 0.11336 0.48124 0.18021 0.7534 0.20058 0.04718 0.0035 0.12117 0.0068 0.15351 0.0068h0.02328l0.0024 0.04652c0.01469 0.28924 0.08519 0.5617 0.2096 0.81006 0.06656 0.13287 0.15198 0.26009 0.23856 0.35529 0.0083 0.0092 0.01515 0.01719 0.01515 0.01785 0 0.0016-1.6968 9.12e-4 -2.3875-9.78e-4zm-1.8763-6.1193v-0.72897l0.17991-0.0012c0.33473-0.0023 0.42548-0.0059 0.61883-0.02431 0.73743-0.07024 1.2472-0.12338 1.7142-0.17871 0.69602-0.08246 1.3017-0.17125 1.8628-0.27306 1.2411-0.22523 2.3137-0.52506 3.337-0.93279 0.14112-0.05623 0.34917-0.14317 0.45407-0.18975l0.0221-0.0098h0.97642l0.04341 0.01848c0.18442 0.07851 0.57083 0.22455 0.88267 0.3336 1.9806 0.69257 4.229 1.1329 6.3051 1.2347 0.27161 0.01333 0.49877 0.01958 0.78476 0.0216l0.17895 0.0013v1.4579h-17.36v-0.72897zm9.9e-4 -1.0939c-5.44e-4 -5.44e-4 -9.9e-4 -0.28084-9.9e-4 -0.62288v-0.62189l2.7845 6.7e-5c3.3649 8.1e-5 4.2065 0.0019 4.3617 0.0096 0.03852 0.0019 0.05016 0.0032 0.05016 0.0058 0 9e-3 -0.32194 0.12698-0.54213 0.19863-0.90373 0.29406-2.0624 0.54994-3.3551 0.74096-1.089 0.16092-2.2355 0.26496-3.167 0.28739-0.04563 0.0011-0.09359 0.0023-0.10657 0.0027-0.01299 3.65e-4 -0.02406 2.19e-4 -0.0246-3.26e-4zm17.285-0.01407c-0.67895-0.02489-1.269-0.06498-1.9293-0.13105-0.0881-0.0088-0.20524-0.02128-0.30869-0.03286-1.7289-0.19339-3.3196-0.52442-4.641-0.9658-0.09514-0.03178-0.22832-0.07986-0.24477-0.08836-0.0049-0.0025 0.01014-0.0026 0.90653-0.0069 0.90547-0.0043 1.8892-0.0057 4.0328-0.0057l2.2588-1.3e-5v1.2328l-0.01592-2.95e-4c-0.0088-1.62e-4 -0.03502-9.96e-4 -0.05836-0.0019zm-17.288-1.5891c2.75e-4 -0.06676 0.0067-0.29498 0.0097-0.34197 0.04572-0.72924 0.1809-1.4576 0.4012-2.1618 0.02211-0.07066 0.08258-0.25151 0.10709-0.32027 0.19599-0.54979 0.4348-1.0574 0.72516-1.5415 0.1456-0.24275 0.30445-0.47483 0.54536-0.79681 0.09094-0.12155 0.1241-0.16139 0.13976-0.16793 0.0073-0.0031 0.01146-0.0022 0.01792 0.0036 0.0036 0.0032 0.0041 0.0052 0.0031 0.01125-0.0011 0.0066-6.71e-4 0.0076 0.0037 0.0092 0.0064 0.0024 0.02551 0.02816 0.06169 0.08314 0.07076 0.10754 0.13655 0.21839 0.13655 0.2301 0 0.0026 0.0026 0.0064 0.0066 0.0096 0.01081 0.0086 0.04896 0.06505 0.10668 0.15779 0.06762 0.10866 0.10092 0.16727 0.10092 0.17767 0 2e-3 0.0019 0.0046 0.0043 0.0058 0.0023 0.0012 0.0058 0.0041 0.0078 0.0063 0.0081 0.0093 0.07332 0.1091 0.11238 0.17191 0.11496 0.18483 0.1786 0.26823 0.24021 0.31478 0.04101 0.03098 0.10619 0.05268 0.15844 0.05274 0.02718 2.7e-5 0.0488-0.0049 0.08068-0.01834 0.04312-0.0182 0.07374-0.03983 0.11599-0.08195 0.03599-0.03588 0.06293-0.06869 0.11166-0.13603 0.04453-0.06154 0.06931-0.09341 0.08623-0.11094 0.0077-8e-3 0.01484-0.01678 0.01592-0.01961 0.0039-0.01019 0.17572-0.25982 0.33145-0.48146 0.0949-0.13507 0.2167-0.30654 0.42798-0.60252 0.21312-0.29856 0.28795-0.4037 0.38583-0.54214 0.09293-0.13143 0.11589-0.16149 0.14322-0.18746 0.01031-0.0098 0.01347-0.01154 0.03053-0.01687 0.02747-0.0086 0.07825-0.0197 0.1456-0.03188 0.04942-0.0089 0.35525-0.05952 1.3833-0.22882 0.19477-0.03207 0.28428-0.04682 0.37429-0.06166 0.0451-0.0074 0.15015-0.02476 0.23345-0.03849 0.25618-0.04223 0.33618-0.05703 0.3714-0.068704 0.0862-0.028584 0.15046-0.077967 0.19632-0.15089 0.02413-0.038358 0.02886-0.057674 0.02867-0.11698-1.45e-4 -0.044099-0.0031-0.060916-0.01662-0.095069-0.0256-0.064613-0.08468-0.16436-0.32606-0.55054-0.32469-0.5192-0.40435-0.65035-0.40435-0.66549 0-0.0021 0.0015-0.00463 0.0034-0.0056 0.0054-0.00287 0.06236-0.016573 0.12878-0.031014 0.03396-0.00738 0.09343-0.020471 0.13216-0.029086 0.09018-0.020061 0.13669-0.029732 0.16206-0.0337 0.01114-0.00174 0.02981-0.00523 0.04148-0.00774 0.04945-0.010657 0.15767-0.028376 0.21223-0.034746 0.03489-0.00407 0.05606-0.0073 0.10804-0.016474 0.09794-0.017283 0.17439-0.026964 0.35789-0.045324 0.03767-0.00377 0.11147-0.011572 0.16399-0.017341 0.10311-0.011324 0.10463-0.011407 0.3849-0.021115 0.04563-0.00158 0.11465-0.00398 0.15338-0.00532 0.09316-0.00324 0.39501-0.00327 0.47172-5.36e-5 0.03183 0.00134 0.10476 0.00415 0.16206 0.00626 0.28767 0.010587 0.25967 0.00899 0.37236 0.021268 0.11726 0.012779 0.21062 0.02236 0.31916 0.032755 0.05217 5e-3 0.08962 0.010431 0.17993 0.026117 0.03959 0.00688 0.09929 0.016418 0.13266 0.021206 0.17055 0.024468 0.29015 0.047256 0.50173 0.095597 0.26524 0.060603 0.30661 0.071182 0.50356 0.12878 0.26081 0.076278 0.37321 0.11267 0.43552 0.14102 0.01142 0.0052 0.02598 0.010436 0.03235 0.011642 0.0064 0.00121 0.01592 0.00312 0.02122 0.00426 0.01499 0.00321 0.07305 0.02467 0.12375 0.045747 0.02532 0.010525 0.05645 0.022345 0.06918 0.026267 0.06563 0.020214 0.09517 0.031484 0.17846 0.068075 0.02175 0.00956 0.06864 0.030161 0.10418 0.045788 0.10523 0.04626 0.14929 0.064105 0.16941 0.068614 0.01021 0.00229 0.01387 0.00476 0.01387 0.00938 0 0.00618 0.0049 0.00992 0.01664 0.012654 0.02333 0.00544 0.06661 0.024708 0.17533 0.078044 0.06571 0.032237 0.34586 0.17379 0.4097 0.20701 0.02476 0.012887 0.03002 0.014982 0.0321 0.012783 0.0025-0.00264 0.14435-0.22484 0.30037-0.47049 0.38508-0.60629 0.7234-1.147 1.0031-1.6033 0.05172-0.08436 0.09977-0.16228 0.10677-0.17315 0.06302-0.097888 0.1685-0.17494 0.27918-0.20393 0.04191-0.01098 0.0596-0.013263 0.10388-0.013407 0.02938-9.39e-5 0.04501 7.613e-4 0.06077 0.00333 0.10417 0.016991 0.19613 0.06447 0.26832 0.13854 0.03873 0.039741 0.05916 0.070831 0.0854 0.12996 0.0085 0.0191 0.01839 0.04124 0.02202 0.049198 0.01145 0.025065 0.01556 0.058377 0.01558 0.12637 0 0.079234-0.0076 0.12023-0.03334 0.17846-0.01726 0.039081-0.03208 0.064355-0.12618 0.21512-0.1067 0.17096-0.24565 0.39496-0.43919 0.70806-0.42703 0.69083-0.58153 0.93813-0.78047 1.2492-0.0363 0.056771-0.06786 0.10688-0.07013 0.11136-0.0053 0.010454-0.01021 0.029298-0.0088 0.03374 6.04e-4 0.00189 0.02903 0.026204 0.06319 0.054022 1.0862 0.88473 1.811 1.6681 2.3661 2.5569 0.14681 0.2351 0.30795 0.52745 0.40144 0.72832 0.01062 0.02281 0.04556 0.09661 0.07765 0.16399 0.10459 0.21964 0.1362 0.29005 0.18353 0.40881 0.02697 0.06769 0.0403 0.10399 0.09141 0.2491 0.08501 0.24132 0.12799 0.37364 0.1927 0.59327 0.04782 0.16229 0.0998 0.37265 0.14685 0.59423 0.09846 0.46376 0.15536 0.96573 0.17256 1.5222 1e-3 0.03396 0.0024 0.07932 0.0031 0.10081l0.0012 0.03907h-8.6821c-8.2674 0-8.6822-1.61e-4 -8.6821-0.0034zm5.0944-2.3948c0.1285-0.0045 0.18214-0.01301 0.27241-0.04345 0.2121-0.07151 0.43016-0.22776 0.5667-0.40606 0.07242-0.09457 0.15604-0.26035 0.19369-0.38401 0.02569-0.08439 0.02827-0.11576 0.02684-0.32695-0.0011-0.16126-0.0022-0.17513-0.01912-0.2431-0.02902-0.1165-0.08574-0.24388-0.15521-0.34861-0.10089-0.1521-0.24165-0.28589-0.39526-0.3757-0.11674-0.06825-0.2646-0.12146-0.37815-0.13608-0.09769-0.01257-0.23462-0.0141-0.33763-0.0038-0.07981 8e-3 -0.13106 0.01946-0.20837 0.04657-0.18276 0.06409-0.38858 0.20098-0.49662 0.33032-0.12045 0.14419-0.22718 0.34909-0.26136 0.50173-0.03121 0.13938-0.0337 0.34167-0.0059 0.4804 0.0079 0.03924 0.02133 0.0888 0.03645 0.13409 0.07294 0.21846 0.21106 0.40953 0.39654 0.54856 0.0924 0.06926 0.20013 0.12767 0.30888 0.16748 0.07079 0.02591 0.18195 0.05545 0.22265 0.05917 0.0177 0.0016 0.18171 0.0012 0.23345-6.03e-4zm7.3729-0.0019c0.07138-0.0043 0.11373-0.01065 0.16635-0.02508 0.20629-0.05656 0.43433-0.20138 0.5727-0.3637 0.14966-0.17557 0.23237-0.35211 0.27072-0.57784 0.0082-0.04838 0.0096-0.07335 0.0083-0.15335-0.0036-0.23089-0.03302-0.35483-0.12637-0.53252-0.06313-0.12016-0.12349-0.20307-0.21096-0.28976-0.10239-0.10148-0.21888-0.17856-0.37989-0.25137-0.04915-0.02223-0.09511-0.037-0.15904-0.05113-0.13173-0.02911-0.24261-0.0373-0.36368-0.02684-0.14493 0.01251-0.27702 0.05023-0.40805 0.1165-0.22921 0.11593-0.40613 0.29418-0.51802 0.5219-0.06805 0.1385-0.10634 0.2786-0.11592 0.42418-0.0029 0.04433-0.0012 0.15185 3e-3 0.19128 0.03544 0.33142 0.1979 0.61352 0.46409 0.80586 0.06038 0.04363 0.12416 0.08058 0.20258 0.11735 0.13855 0.06498 0.22539 0.08856 0.355 0.09641 0.03465 0.0021 0.19354 8.47e-4 0.23924-0.0019zm-9.5878-2.1283c-0.02001-0.0026-0.04075-0.0087-0.05681-0.01669l-0.01425-0.0071-0.07318-0.1148c-0.34954-0.54839-0.55888-0.87918-0.85837-1.3564-0.15304-0.24384-0.75499-1.2067-0.76229-1.2193-0.0028-0.00478-0.0074-0.015628-0.01043-0.024117-0.0052-0.014928-0.0054-0.0167-0.0054-0.054021-1.3e-5 -0.041193 0.0022-0.057501 0.01145-0.084266 0.01069-0.03095 0.05247-0.078534 0.10044-0.11439 0.02577-0.019262 0.0176-0.017281 0.20258-0.049144 0.26617-0.045848 0.69276-0.11895 0.93958-0.161 0.03396-0.00579 0.10254-0.017502 0.15242-0.026037 0.04987-0.00854 0.19269-0.032951 0.31738-0.054259 0.30723-0.052503 0.73244-0.1258 0.74503-0.12842 0.0062-0.00129 0.02186-0.020552 0.08297-0.10213 0.13152-0.17555 0.32916-0.44856 0.69205-0.95598 0.50277-0.70301 0.59422-0.8275 0.64816-0.88235 0.01357-0.013798 0.0197-0.018452 0.03219-0.024441 0.03074-0.014732 0.06229-0.020358 0.10489-0.018701 0.02984 0.00116 0.04796 0.00429 0.07164 0.012353 0.0341 0.011617 0.06755 0.033585 0.08565 0.05624 0.03182 0.039831 1.4655 2.3305 1.6388 2.6184 0.01391 0.023113 0.02261 0.039772 0.02467 0.047269 0.0049 0.017699 0.0059 0.073378 0.0019 0.10094-0.0068 0.046591-0.0188 0.075118-0.04427 0.1055-0.0089 0.010611-0.01906 0.021401-0.02258 0.023976-0.0056 0.00408-0.02092 0.00725-0.11937 0.024648-0.06213 0.010981-0.22757 0.040308-0.36764 0.065171-0.84824 0.15057-1.0836 0.19046-1.6902 0.28642-0.22248 0.03519-0.21203 0.03299-0.23435 0.04937-0.01255 0.0092-0.03333 0.03152-0.05041 0.05411-0.01674 0.02215-0.15193 0.21024-0.47599 0.66224-0.35865 0.50025-0.4839 0.67453-0.65331 0.90906-0.24216 0.33525-0.23336 0.32374-0.2618 0.34268-0.04315 0.02875-0.09923 0.04181-0.15109 0.03518zm0.15628-3.5739c-0.01314-0.00684-0.0184-0.014164-0.0656-0.091503-0.068562-0.11233-0.12612-0.2047-0.36304-0.58265-0.045566-0.072688-0.090949-0.14605-0.10085-0.16303-0.01711-0.02933-0.02866-0.04821-0.10564-0.17268-0.08871-0.14344-0.12731-0.22379-0.14901-0.31019-0.02345-0.09335-0.01571-0.17403 0.02475-0.258 0.02295-0.047637 0.04303-0.07642 0.0792-0.11354 0.03653-0.037492 0.07263-0.063991 0.12008-0.088148 0.11296-0.057509 0.24156-0.072531 0.36042-0.042097 0.06017 0.015407 0.10907 0.04227 0.15191 0.083456 0.03952 0.037996 0.07019 0.077744 0.13264 0.17191 0.04068 0.061343 0.06613 0.10164 0.16694 0.26432 0.02893 0.04669 0.12877 0.20644 0.22186 0.355 0.14038 0.22402 0.22625 0.36165 0.25251 0.40471l0.0044 0.00727-0.02981 0.044822c-0.05451 0.081972-0.11583 0.16553-0.25127 0.3424-0.05824 0.07606-0.06443 0.083483-0.07262 0.087128-0.01229 0.00547-0.0495 0.012717-0.16468 0.032082-0.05412 0.0091-0.11818 0.019972-0.14236 0.024163-0.04795 0.00831-0.06105 0.00917-0.06986 0.00459z" fill="#000" stroke-width=".0019293"/>
</svg>
