<?xml version="1.0" standalone="no"?>
<!DOCTYPE svg PUBLIC "-//W3C//DTD SVG 20010904//EN"
 "http://www.w3.org/TR/2001/REC-SVG-20010904/DTD/svg10.dtd">
<svg version="1.0" xmlns="http://www.w3.org/2000/svg"
 width="192.000000pt" height="192.000000pt" viewBox="0 0 192.000000 192.000000"
 preserveAspectRatio="xMidYMid meet">

<g transform="translate(0.000000,192.000000) scale(0.100000,-0.100000)"
fill="#000000" stroke="none">
<path d="M483 1654 c-15 -24 -15 -29 -2 -53 8 -14 30 -52 48 -83 l32 -58 -39
0 c-21 0 -41 -3 -44 -6 -4 -3 4 -30 18 -59 l23 -54 -97 -98 c-84 -84 -105
-112 -145 -193 -69 -141 -107 -325 -78 -378 l12 -22 749 0 c731 0 750 0 760
19 23 44 0 201 -47 319 -55 136 -191 299 -307 367 -25 15 -46 31 -46 35 0 5
30 58 66 119 66 113 71 134 39 161 -34 28 -62 3 -135 -121 -63 -106 -74 -120
-93 -115 -111 32 -159 38 -267 33 -63 -2 -123 -7 -132 -11 -13 -6 -23 5 -48
54 l-32 62 -32 -31 -33 -32 -46 79 c-58 99 -90 117 -124 66z m593 -295 c242
-44 444 -224 519 -462 14 -43 25 -94 25 -113 l0 -34 -660 0 -660 0 0 35 c0 49
42 173 83 247 136 242 421 377 693 327z"/>
<path d="M644 1066 c-82 -36 -54 -156 36 -156 70 0 105 81 58 134 -30 32 -56
38 -94 22z"/>
<path d="M1213 1070 c-48 -19 -58 -95 -18 -135 51 -52 135 -15 135 60 0 64
-56 100 -117 75z"/>
<path d="M318 509 c-21 -12 -24 -59 -6 -77 8 -8 62 -12 176 -12 l163 0 10 -29
c13 -37 49 -61 89 -61 22 0 41 -10 65 -35 71 -70 176 -72 250 -4 29 27 51 39
72 39 32 0 69 29 83 66 l10 24 184 0 c177 0 186 1 200 21 16 23 12 47 -12 67
-20 16 -1257 17 -1284 1z"/>
</g>
</svg>
