<svg xmlns="http://www.w3.org/2000/svg" width="192" height="192" stroke="#000" stroke-width="12" viewBox="0 0 192 192"><path fill="none" d="M96 33.3c-37.7 0-68.3 30.6-68.3 68.3v50.7c0 9.7 7.9 17.6 17.6 17.6h101.4c9.7 0 17.6-7.9 17.6-17.6v-50.7c0-37.7-30.6-68.3-68.3-68.3z"/><path stroke-linecap="round" d="m133.2 41.7 8.9-14.2M58.6 41.7l-8.9-14.2"/><path fill="none" stroke-linejoin="round" d="m48.3 64.7 12-21.3-24.5.3zm12-21.3 24.5-.3L72.2 22zM84.6 159c-5 5-13.1 5-18.1 0l-35.1-35.1c-5-5-5-13.1 0-18.1s13.1-5 18.1 0l35.1 35.1c5 4.9 5 13 0 18.1zm57.4-31.7h9.5c7.1 0 12.8-5.7 12.8-12.8 0-3.5-1.4-6.7-3.8-9.1s-5.5-3.8-9.1-3.8h-49.6c-7.1 0-12.8 5.7-12.8 12.8s5.7 12.8 12.8 12.8H112"/><path stroke-linecap="round" d="M27.7 101.7h136.6"/><path fill="none" d="M140.1 148.7H114c-1.1 0-2-.9-2-2v-42.5l2-2h26.1l2 2v42.5c0 1.1-.9 2-2 2z"/><circle cx="124.9" cy="72.6" r="9.6" stroke="none"/><circle cx="67.3" cy="72.6" r="9.6" stroke="none"/></svg>