<svg xmlns="http://www.w3.org/2000/svg" width="192" height="192" fill="none"><path stroke="#000" stroke-linecap="round" stroke-linejoin="round" stroke-width="10" d="M144.421 92.129c5.004 7.077 9.736 14.382 15.203 21.1 2.07 2.545 4.21 4.878 6.509 7.187 1.067 1.07 3.622 3.405 4.867 4.287M21 111.076c3.027 3.409 6.341 8.136 10.183 11.563 3.887 3.468 8.304 6.05 12.746 6.361m31.35-28.074c.475-.668 1.65-2.498 2.088-3.129 5.79-8.364 11.463-17.038 18.599-24.252 4.466-4.514 10.481-8.11 16.653-8.373M21 67.367c1.265.758 2.449 1.661 3.642 2.531 1.672 1.256 3.534 2.766 5.104 4.605 5.849 6.855 11.436 14.257 16.877 22.034 1.899 2.712 3.93 5.764 5.827 8.503 3.359 4.854 6.799 9.565 10.814 13.282 3.559 3.294 6.131 6.037 10.589 7.747 1.978.76 7.163 1.451 9.032 1.208a18.6 18.6 0 0 0 4.672-1.215c4.331-1.715 7.313-4.123 10.723-7.822 3.854-4.182 7.138-8.395 10.652-13.2a478 478 0 0 0 7.366-10.392c1.653-2.393 3.236-4.888 4.945-7.244 3.342-4.61 7.134-9.469 10.852-13.229 3.285-3.321 6.135-5.965 10.591-7.726 1.395-.554 4.297-1.469 6.851-1.449 2.642.02 5.68 1.022 6.852 1.476 3.184 1.23 5.415 2.84 7.84 5.14 1.824 1.73 5.62 5.726 6.771 6.968"/><path stroke="#000" stroke-linecap="round" stroke-linejoin="round" stroke-width="12" d="M81.672 43.375h-42.75M60.297 22v42.75m94.781 83.875h-42.75m21.375-21.375V170"/></svg>