<svg width="192" height="192" fill="none" xmlns="http://www.w3.org/2000/svg"><path d="M144.395 92.25c4.999 6.998 9.725 14.221 15.186 20.864 2.068 2.516 4.205 4.823 6.502 7.106 1.065 1.058 3.617 3.367 4.861 4.239M21.116 110.985c3.024 3.371 6.334 8.045 10.171 11.433 3.883 3.429 8.295 5.982 12.732 6.29m31.314-27.759c.474-.661 1.648-2.47 2.085-3.094 5.783-8.27 11.45-16.847 18.578-23.98 4.461-4.463 10.469-8.02 16.634-8.279" stroke="#000" stroke-width="10" stroke-linecap="round" stroke-linejoin="round"/><path d="M21.116 67.766c1.264.75 2.446 1.643 3.638 2.503 1.67 1.242 3.53 2.735 5.098 4.553C35.694 81.6 41.275 88.919 46.71 96.609c1.896 2.682 3.925 5.699 5.82 8.408 3.355 4.799 6.791 9.457 10.802 13.133 3.554 3.257 6.124 5.969 10.576 7.66 1.976.751 7.155 1.435 9.022 1.194a18.703 18.703 0 0 0 4.667-1.201c4.326-1.696 7.304-4.077 10.71-7.734 3.85-4.135 7.13-8.301 10.64-13.052a474.5 474.5 0 0 0 7.358-10.276c1.651-2.366 3.232-4.833 4.939-7.163 3.338-4.557 7.126-9.362 10.84-13.08 3.281-3.284 6.128-5.898 10.578-7.64 1.394-.547 4.293-1.452 6.844-1.432 2.639.02 5.673 1.01 6.844 1.459 3.18 1.217 5.409 2.808 7.831 5.082 1.822 1.712 5.613 5.662 6.763 6.89" stroke="#000" stroke-width="10" stroke-linecap="round" stroke-linejoin="round"/><path d="M80.672 43.375h-42.75M59.297 22v42.75m94.781 83.875h-42.75m21.375-21.375V170" stroke="#000" stroke-width="12" stroke-linecap="round" stroke-linejoin="round"/></svg>