<svg xmlns="http://www.w3.org/2000/svg" width="192" height="192" fill="none"><g stroke="#000" stroke-linejoin="round" stroke-width="12"><path d="M22 81.073c14.56-4.987 29.646-11.139 45.282-9.078 5.422.421 10.732 4.452 11.785 9.927 3.79 11.582 6.107 25.285 17.2 32.407-10.762 7.431-25.225 7.822-36.912 2.362-16.087-7.122-28.42-20.78-37.355-35.618z"/><path stroke-linecap="round" d="M125.28 141.644c6.838 2.942 17.419 4.902 26.318 4.588 2.98-.104 6.325-1.246 8.682-2.152 7.273-2.793 10.715-11.147 9.457-18.436-1.275-7.389-7.671-10.866-14.457-12.622-7.242-1.874-15.239-2.88-21.866-6.797-11.925-7.049-8.169-22.344 3.555-26.053 11.057-3.499 22.089-.515 33.031 1.44M120.297 57.943c16.051-1.374 28.707-7.372 28.268-13.396-.438-6.024-13.805-9.793-29.856-8.42-16.051 1.375-28.707 7.372-28.269 13.396s13.806 9.794 29.857 8.42"/></g></svg>
