<svg xmlns="http://www.w3.org/2000/svg" width="192" height="192" fill="none"><path stroke="#000" stroke-linecap="round" stroke-linejoin="round" stroke-width="12" d="M125.28 147.397c6.838 2.93 17.419 4.883 26.318 4.57 2.98-.103 6.325-1.241 8.682-2.144 7.273-2.782 10.715-11.104 9.457-18.365-1.275-7.361-7.671-10.825-14.457-12.574-7.242-1.867-15.239-2.869-21.866-6.772-11.925-7.022-8.169-22.259 3.555-25.953 11.057-3.486 22.089-.514 33.031 1.434m-148-.537c14.56-4.968 29.646-11.096 45.282-9.043 5.422.42 10.732 4.435 11.785 9.889 3.79 11.538 6.107 25.189 17.2 32.284-10.762 7.402-25.225 7.792-36.912 2.353-16.087-7.095-28.42-20.701-37.355-35.483m98.297-23.042c16.051-1.369 28.707-7.344 28.268-13.345-.438-6-13.805-9.756-29.856-8.388-16.051 1.37-28.707 7.344-28.269 13.345s13.806 9.757 29.857 8.388"/></svg>