<svg width="192" height="192" fill="none" xmlns="http://www.w3.org/2000/svg"><path d="M96 101a5 5 0 1 0 0-10 5 5 0 0 0 0 10Zm-5-5-16.293 75M101 96l16.293 75" stroke="#000" stroke-width="10" stroke-linecap="round" stroke-linejoin="round"/><path d="M96 118c12.15 0 22-9.85 22-22s-9.85-22-22-22-22 9.85-22 22 9.85 22 22 22Z" stroke="#000" stroke-width="8" stroke-linecap="round" stroke-linejoin="round"/><path d="M96 134c20.987 0 38-17.013 38-38s-17.013-38-38-38-38 17.013-38 38 17.013 38 38 38Z" stroke="#000" stroke-width="8" stroke-linecap="round" stroke-linejoin="round"/><path d="M96 150c29.823 0 54-24.177 54-54s-24.177-54-54-54-54 24.177-54 54 24.177 54 54 54Z" stroke="#000" stroke-width="8" stroke-linecap="round" stroke-linejoin="round"/></svg>