<svg xmlns="http://www.w3.org/2000/svg" width="192" height="192" fill="none"><path stroke="#000" stroke-linecap="round" stroke-linejoin="round" stroke-width="10" d="M108 102.785a24.005 24.005 0 0 0 11.182-26.997A23.995 23.995 0 0 0 96 58a24 24 0 0 0-12 44.785"/><circle cx="96" cy="82" r="5" stroke="#000" stroke-linecap="round" stroke-linejoin="round" stroke-width="10"/><path stroke="#000" stroke-linecap="round" stroke-linejoin="round" stroke-width="10" d="m91 81.5-8.755 41.241M72 171l6.49-30.567m35.021 0a61 61 0 0 0 42.967-66.395 61 61 0 1 0-77.989 66.395m35.022 0-3.756-17.692m3.756 17.692L120 171m-10.245-48.259a43 43 0 1 0-27.51 0m27.51 0L101 81.5m-22.51 58.933 3.755-17.692"/></svg>