<svg xmlns="http://www.w3.org/2000/svg" width="192" height="192" fill="none"><g stroke="#000" stroke-linecap="round" stroke-linejoin="round"><path stroke-width="10" d="M96 89.062a5.856 5.853 0 1 0 0-11.705 5.856 5.853 0 0 0 0 11.705m-5.856-5.853L71.06 171m30.795-87.79L120.939 171"/><g stroke-width="8"><path d="M96 108.96c14.23 0 25.767-11.53 25.767-25.752S110.23 57.456 96 57.456s-25.767 11.53-25.767 25.752S81.77 108.96 96 108.96"/><path d="M96 127.69c24.581 0 44.507-19.914 44.507-44.481 0-24.566-19.926-44.481-44.507-44.481S51.493 58.642 51.493 83.209c0 24.566 19.926 44.481 44.507 44.481"/><path d="M96 146.42c34.93 0 63.246-28.3 63.246-63.209S130.929 20.002 96 20.002s-63.246 28.3-63.246 63.209S61.071 146.42 96 146.42"/></g></g></svg>
