<?xml version="1.0" encoding="UTF-8" standalone="no"?>
<svg version="1.1" viewBox="0 0 192 192" xmlns="http://www.w3.org/2000/svg">
  <path d="m 132.65,61.863 c -3.7351,0 -6.8604,-1.245 -9.5537,-4.3703 5.6154,-3.3286 9.3505,-11.002 9.3505,-17.862 0,-7.2669 -3.9384,-13.899 -15.372,-13.899 -11.4336,0 -19.107,6.4285 -19.107,18.879 0,30.516 46.702,34.658 46.702,79.504 0,34.886 -28.229,51.885 -58.339,51.885 -23.63,0.0508 -43.983,-10.341 -43.983,-35.674 0,-22.411 15.982,-34.048 30.516,-34.048 7.2669,0 17.634,2.8966 18.269,13.695 -11.205,0 -24.291,5.1834 -24.291,19.514 0,10.392 6.6317,19.921 19.921,19.921 13.899,0 24.088,-10.164 24.088,-27.619 0,-35.496 -42.56,-48.15 -42.56,-78.666 0,-21.547 21.166,-37.122 47.947,-37.122 9.757,0 33.413,2.0835 33.413,24.901 0.0254,12.044 -6.6317,20.962 -16.999,20.962 z" stroke-width="0.25409"/>
</svg>
