<svg xmlns="http://www.w3.org/2000/svg" width="192" height="192" fill="none"><path stroke="#000" stroke-linecap="round" stroke-linejoin="round" stroke-width="12" d="M111 58.5S105.467 52 96 52s-15 4.333-15 13 10.571 12 15 13 15 4.333 15 13-5.533 13-15 13-15-6.5-15-6.5M22 142c59-41.824 88 29.159 148-9M41 160.367c36.5-22.149 62 21.86 110 6.171"/><path stroke="#000" stroke-linecap="round" stroke-linejoin="round" stroke-width="12" d="M161.683 107.6a68 68 0 0 0-11.735-58.996A68.01 68.01 0 0 0 96 22a68 68 0 0 0-65.683 85.6"/></svg>