<svg xmlns="http://www.w3.org/2000/svg" width="192" height="192" fill="none"><path stroke="#000" stroke-linecap="round" stroke-linejoin="round" stroke-width="8" d="M99 150c-7 0-17-6-17-6s-1 1.5-1 6 1 6 1 6 10-6 17-6m0 0c7 0 17-6 17-6s1 1.5 1 6-1 6-1 6-10-6-17-6m-6-50s6 6 6 13c0-7 6-13 6-13z"/><path stroke="#000" stroke-linecap="round" stroke-linejoin="round" stroke-width="10" d="M99 108v8m0 0-11 7m11-7 11 7M83 62l7 7m27-7-7 7"/><path stroke="#000" stroke-linecap="round" stroke-linejoin="round" stroke-width="12" d="M155 86c0-12.996-6.216-25.459-17.281-34.648S111.648 37 96 37s-30.655 5.163-41.72 14.352C43.217 60.54 37 73.004 37 86"/><path stroke="#000" stroke-linecap="round" stroke-linejoin="round" stroke-width="8" d="M76.713 84.287c.82.82-.177 3.148-2.228 5.198-2.05 2.05-4.378 3.048-5.198 2.228s.177-3.148 2.228-5.198c2.05-2.05 4.378-3.048 5.198-2.228m44.574 0c-.82.82.177 3.148 2.228 5.198 2.05 2.05 4.378 3.048 5.198 2.228s-.177-3.148-2.228-5.198c-2.05-2.05-4.378-3.048-5.198-2.228"/><path stroke="#000" stroke-linecap="round" stroke-linejoin="round" stroke-width="12" d="M37 86c0 13-9 17.5-9 27s2 10 2 18-8 16-8 16m133-61c0 33 15 33.5 15 61"/></svg>