<svg width="192" height="192" viewBox="0 0 192 192" fill="none" xmlns="http://www.w3.org/2000/svg"><rect x="53" y="53" width="30" height="30" rx="6" stroke="#000" stroke-width="10" stroke-linecap="round" stroke-linejoin="round"/><rect x="53" y="108" width="30" height="30" rx="6" stroke="#000" stroke-width="10" stroke-linecap="round" stroke-linejoin="round"/><rect x="109" y="53" width="30" height="30" rx="6" stroke="#000" stroke-width="10" stroke-linecap="round" stroke-linejoin="round"/><path d="M109 114a6 6 0 0 1 6-6h18a6 6 0 0 1 6 6v5c0 13-15 19-15 19s-15-6-15-19v-5Z" stroke="#000" stroke-width="10" stroke-linecap="round" stroke-linejoin="round"/><path d="M49 25H31a6 6 0 0 0-6 6v18m118-24h18a6 6 0 0 1 6 6v18m-24 118h18a6 6 0 0 0 6-6v-18M49 167H31a6 6 0 0 1-6-6v-18" stroke="#000" stroke-width="12" stroke-linecap="round" stroke-linejoin="round"/></svg>