<svg xmlns="http://www.w3.org/2000/svg" width="192" height="192" fill="none" viewBox="0 0 192 192"><rect width="30" height="30" x="53" y="53" stroke="#000" stroke-linecap="round" stroke-linejoin="round" stroke-width="10" rx="6"/><rect width="30" height="30" x="53" y="108" stroke="#000" stroke-linecap="round" stroke-linejoin="round" stroke-width="10" rx="6"/><rect width="30" height="30" x="109" y="53" stroke="#000" stroke-linecap="round" stroke-linejoin="round" stroke-width="10" rx="6"/><path stroke="#000" stroke-linecap="round" stroke-linejoin="round" stroke-width="10" d="M109 114a6 6 0 0 1 6-6h18a6 6 0 0 1 6 6v5c0 13-15 19-15 19s-15-6-15-19z"/><path stroke="#000" stroke-linecap="round" stroke-linejoin="round" stroke-width="12" d="M49 25H31a6 6 0 0 0-6 6v18m118-24h18a6 6 0 0 1 6 6v18m-24 118h18a6 6 0 0 0 6-6v-18M49 167H31a6 6 0 0 1-6-6v-18"/></svg>