<svg width="192" height="192" viewBox="0 0 192 192" fill="none" xmlns="http://www.w3.org/2000/svg"><path d="M96 114v26M52 96h26m8.5-13.72C94 78 128 64 128 64m-18.28 41.5C113 100 128 64 128 64" stroke="#000" stroke-width="10" stroke-linecap="round" stroke-linejoin="round"/><circle cx="96" cy="96" r="74" stroke="#000" stroke-width="12" stroke-linecap="round" stroke-linejoin="round"/><path d="M96 140a44.003 44.003 0 0 0 40.651-27.162A44.003 44.003 0 0 0 140 96M96 52a44 44 0 0 0-44 44m34.5-13.722a17 17 0 1 0 23.222 23.222" stroke="#000" stroke-width="10" stroke-linecap="round" stroke-linejoin="round"/></svg>