<svg xmlns="http://www.w3.org/2000/svg" width="192" height="192" fill="none" viewBox="0 0 192 192"><path stroke="#000" stroke-linecap="round" stroke-linejoin="round" stroke-width="12" d="M36 27.987C36 24.681 38.686 22 42 22h33.515a6 6 0 0 1 4.242 1.754L96 39.962l16.243-16.208A6 6 0 0 1 116.485 22H150c3.314 0 6 2.68 6 5.987v92.918a5.98 5.98 0 0 1-2.252 4.675l-54 43.108a6.01 6.01 0 0 1-7.496 0l-54-43.108A5.98 5.98 0 0 1 36 120.905zM96 40v128"/><path stroke="#000" stroke-linecap="round" stroke-linejoin="round" stroke-width="12" d="M36 93h29v16m31-42H65V51m91 16h-29V51m0 58V93"/></svg>