<svg width="192" height="192" viewBox="0 0 192 192" fill="none" xmlns="http://www.w3.org/2000/svg"><path d="M110 72a13.993 13.993 0 0 0-4.101-9.9 14.003 14.003 0 0 0-15.257-3.034A14.001 14.001 0 0 0 82 72m0 0v12m28-12v12" stroke="#000" stroke-width="10" stroke-linecap="round" stroke-linejoin="round"/><rect x="72" y="84" width="48" height="32" rx="6" stroke="#000" stroke-width="10" stroke-linecap="round" stroke-linejoin="round"/><path d="M35 53.848a6 6 0 0 1 3.497-5.453L96 22l57.503 26.395A6 6 0 0 1 157 53.848V96c0 48-53 74-61 74s-61-26-61-74V53.848Z" stroke="#000" stroke-width="12" stroke-linecap="round" stroke-linejoin="round"/></svg>