<?xml version="1.0" encoding="utf-8"?>
	<svg version="1.1" xmlns="http://www.w3.org/2000/svg" xmlns:xlink="http://www.w3.org/1999/xlink" x="0px" y="0px" width="240.0" height="240.0" xml:space="preserve">
		<path d="M20.04,137.069C19.802,142.468 20.662,147.636 21.721,152.849C24.408,166.072 30.46,177.281 40.995,185.804C58.513,199.98 78.651,203.086 100.372,199.714C118.859,196.844 131.534,186.904 137.775,169.285C142.319,156.452 142.185,143.525 136.934,130.792C130.995,116.391 122.061,105.336 105.378,103.612C94.776,102.516 85.783,106.104 78.709,114.304C73.041,120.875 71.258,128.933 71.142,137.051C71.034,144.721 73.281,152.12 80.566,156.652C84.85,159.317 92.214,158.453 95.701,154.878C98.632,151.872 98.643,146.957 95.806,142.125C94.725,140.284 93.777,138.365 92.786,136.471C90.679,132.441 90.981,128.698 94.438,125.58C97.888,122.471 101.838,122.097 105.976,124.118C121.843,131.866 122.993,151.928 115.905,162.585C103.467,181.283 76.238,182.551 60.944,164.515C56.487,159.258 54.349,153.096 52.943,146.355C50.738,135.779 51.062,125.383 55.644,115.801C64.05,98.223 76.579,86.203 97.67,84.65C121.55,82.89 138.889,90.797 151.467,110.911C162.97,129.31 164.353,150.097 160.677,171.337C159.075,180.598 157.872,190.488 167.393,196.53C177.377,202.865 188.465,203.242 198.885,197.804C213.914,189.962 220.611,176.774 219.956,160.023C219.461,147.319 217.926,134.639 214.787,122.338C207.858,95.187 192.102,73.691 169.47,57.727C147.105,41.952 121.65,36.511 94.547,40.022C81.969,41.652 69.949,45.675 59.838,53.677C32.965,74.946 22.012,103.915 20.04,137.069" fill="#000" stroke="#00000000" stroke-width="1.0" stroke-miterlimit=""/>
	</svg>
