<svg xmlns="http://www.w3.org/2000/svg" width="192" height="192" fill="none"><path stroke="#000" stroke-linecap="round" stroke-linejoin="round" stroke-width="10" d="M114.667 100.667c.219 1.412.333 2.859.333 4.333 0 15.464-12.536 28-28 28s-28-12.536-28-28 12.536-28 28-28c1.474 0 2.921.114 4.333.333m23.334 23.334c1.412.219 2.859.333 4.333.333 15.464 0 28-12.536 28-28s-12.536-28-28-28-28 12.536-28 28c0 1.474.114 2.921.333 4.333m23.334 23.334c-1.864-11.994-11.34-21.47-23.334-23.334"/><circle cx="130" cy="62" r="5" stroke="#000" stroke-linecap="round" stroke-linejoin="round" stroke-width="10"/><circle cx="98" cy="94" r="5" stroke="#000" stroke-linecap="round" stroke-linejoin="round" stroke-width="10"/><path stroke="#000" stroke-linecap="round" stroke-linejoin="round" stroke-width="12" d="M25 31a6 6 0 0 1 6-6h130a6 6 0 0 1 6 6v130a6 6 0 0 1-6 6H31a6 6 0 0 1-6-6z"/></svg>