<?xml version="1.0" encoding="UTF-8" standalone="no"?>
<svg
   width="192"
   height="192"
   viewBox="0 0 50.799999 50.8"
   version="1.1"
   id="svg1"
   xml:space="preserve"
   xmlns="http://www.w3.org/2000/svg"
   xmlns:svg="http://www.w3.org/2000/svg"><defs
     id="defs1" /><g
     id="layer1"
     style="fill:none;stroke:#000000;stroke-opacity:1;stroke-width:3.17499997;stroke-dasharray:none;stroke-linejoin:round;stroke-linecap:round"><path
       style="fill:none;stroke:#000000;stroke-width:3.175;stroke-linecap:round;stroke-linejoin:round;stroke-dasharray:none;stroke-opacity:1"
       d="m 21.060851,8.1956869 c 2.07659,-0.643189 6.024063,7.4039531 7.642283,9.1009731 3.98833,0.831513 14.739754,-3.950003 16.152563,-1.28855 1.568596,2.801678 -10.463624,8.474157 -11.066253,11.302691 1.221995,4.930397 8.666092,13.444914 5.874388,15.241816 -3.089364,0.857169 -10.69894,-6.856781 -14.106027,-7.770628 -2.425528,0.650575 -6.735192,9.005988 -9.386876,7.509268 -1.5786,-0.891025 0.459728,-8.845678 0.628255,-11.577631 C 16.687653,28.369547 5.9937705,29.71365 5.8226584,26.954616 5.6528971,24.217364 15.989622,22.33469 18.128719,20.195478 18.967753,17.674999 18.644446,8.9441279 21.060851,8.1956869 Z"
       id="path1" /><circle
       style="fill:none;stroke:#000000;stroke-width:2.64583;stroke-linecap:round;stroke-linejoin:round;stroke-dasharray:none;stroke-opacity:1"
       id="path3"
       cx="24.518602"
       cy="25.857723"
       r="4.767169" /><ellipse
       style="fill:none;stroke:#000000;stroke-width:1.5875;stroke-linecap:round;stroke-linejoin:round;stroke-dasharray:none;stroke-opacity:1"
       id="path4"
       cx="23.904438"
       cy="25.393606"
       rx="0.66243166"
       ry="0.79432696" /></g></svg>
