<svg xmlns="http://www.w3.org/2000/svg" width="192" height="192" fill="none" viewBox="0 0 192 192"><path stroke="#000" stroke-linecap="round" stroke-linejoin="round" stroke-width="12" d="M79.57 29.138c7.847-2.43 22.762 27.932 28.875 34.33 15.066 3.138 55.685-14.902 61.023-4.86 5.924 10.571-39.531 31.969-41.809 42.641 4.616 18.599 32.742 50.722 22.195 57.501-11.674 3.233-40.423-25.868-53.29-29.316-9.166 2.452-25.444 33.975-35.463 28.331-5.965-3.365 1.738-33.371 2.372-43.678-.419-8.843-40.82-3.772-41.465-14.184-.642-10.326 38.41-17.43 46.49-25.499 3.17-9.507 1.945-42.44 11.076-45.27"/><path stroke="#000" stroke-linecap="round" stroke-linejoin="round" stroke-width="10" d="M95 128c17.673 0 32-14.775 32-33s-14.327-33-32-33-32 14.775-32 33 14.327 33 32 33"/><path stroke="#000" stroke-linecap="round" stroke-linejoin="round" stroke-width="10" d="M89.5 99c2.485 0 4.5-2.239 4.5-5s-2.015-5-4.5-5-4.5 2.239-4.5 5 2.015 5 4.5 5"/></svg>