<?xml version="1.0" encoding="UTF-8" standalone="no"?>
<svg
   width="192"
   height="192"
   viewBox="0 0 192 192"
   fill="none"
   version="1.1"
   id="svg4"
   xml:space="preserve"
   xmlns="http://www.w3.org/2000/svg"
   xmlns:svg="http://www.w3.org/2000/svg"><defs
     id="defs4"><linearGradient
       id="swatch5"><stop
         style="stop-color:#ff9900;stop-opacity:1;"
         offset="0"
         id="stop5" /></linearGradient><linearGradient
       id="swatch4"><stop
         style="stop-color:#3b8aff;stop-opacity:1;"
         offset="0"
         id="stop4" /></linearGradient></defs><path
     id="path6"
     style="fill:none;stroke:#000000;stroke-width:8.30629;stroke-linecap:round;stroke-linejoin:round;stroke-dasharray:none"
     d="m 127.13623,129.183 h 7.122 a 13.6557,13.6557 135 0 0 13.6557,-13.6557 V 71.6457 A 13.6557,13.6557 45 0 0 134.25823,57.99 l -12.20003,0 A 19.066217,19.066217 144.38882 0 0 104.00678,70.918875 L 96.299967,93.5865 88.593149,116.25413 A 19.066218,19.066218 144.38882 0 1 70.541731,129.183 H 58.3417 A 13.6557,13.6557 45 0 1 44.686,115.5273 V 71.64566 A 13.65566,13.65566 135 0 1 58.34166,57.99 l 7.122047,0"
     transform="matrix(1.4345419,0,0,1.4549061,-42.146079,-40.159569)" /></svg>
