<svg xmlns="http://www.w3.org/2000/svg" xml:space="preserve" width="192" height="192" fill="none" viewBox="0 0 192 192"><path d="M127.136 129.183h7.122a13.656 13.656 135 0 0 13.656-13.656V71.646a13.656 13.656 45 0 0-13.656-13.656h-12.2a19.07 19.07 144.389 0 0-18.051 12.929L96.3 93.587l-7.707 22.667a19.07 19.07 144.389 0 1-18.051 12.929h-12.2a13.656 13.656 45 0 1-13.656-13.656V71.646A13.656 13.656 135 0 1 58.342 57.99h7.122" style="fill:none;stroke:#000;stroke-width:9.82524;stroke-linecap:round;stroke-linejoin:round;stroke-dasharray:none" transform="matrix(1.41526 0 0 1.4346 -40.29 -38.26)"/></svg>