<?xml version="1.0" encoding="UTF-8" standalone="no"?>
<!-- Created with Inkscape (http://www.inkscape.org/) -->

<svg
   width="192"
   height="192"
   viewBox="0 0 192 192"
   version="1.1"
   id="svg1"
   xmlns="http://www.w3.org/2000/svg"
   xmlns:svg="http://www.w3.org/2000/svg">
  <defs
     id="defs1" />
  <g
     id="g211"
     transform="matrix(1.0199505,0,0,1.0200356,1537.6478,920.40921)"
     style="stroke-width:11.7648;stroke-dasharray:none">
    <path
       style="fill:none;fill-opacity:1;fill-rule:evenodd;stroke:#000000;stroke-width:11.7648;stroke-linecap:round;stroke-linejoin:round;stroke-dasharray:none;stroke-opacity:1;paint-order:stroke fill markers"
       d="m -1475.0101,-773.63274 -8.0902,-9.19413 c -5.182,-7.63867 -3.1081,-16.26802 2.3171,-21.0248 5.917,-5.18791 15.7176,-5.888 21.8378,1.33412 l 23.9149,27.07243"
       id="path15694-3" />
    <path
       style="fill:none;fill-opacity:1;fill-rule:evenodd;stroke:#000000;stroke-width:11.7648;stroke-linecap:round;stroke-linejoin:round;stroke-dasharray:none;stroke-opacity:1;paint-order:stroke fill markers"
       d="m -1460.5152,-807.08892 c 0,0 10.927,-15.40896 26.2233,1.27244 l 10.7702,11.74545"
       id="path15696-5" />
    <path
       style="fill:none;fill-opacity:1;fill-rule:evenodd;stroke:#000000;stroke-width:11.7648;stroke-linecap:round;stroke-linejoin:round;stroke-dasharray:none;stroke-opacity:1;paint-order:stroke fill markers"
       d="m -1435.1245,-808.04262 44.1887,-62.28038 c 10.4417,-14.7167 25.7379,-2.71992 22.5315,2.82582"
       id="path15698-4" />
    <path
       id="path15677-3"
       style="fill:none;fill-opacity:1;fill-rule:evenodd;stroke:#000000;stroke-width:11.7648;stroke-linecap:round;stroke-linejoin:round;stroke-dasharray:none;stroke-opacity:1;paint-order:stroke fill markers"
       d="m -1415.7683,-749.85628 71.1152,-100.6156 c 3.1488,-4.39148 7.3104,-15.30991 -1.6135,-21.70181 l 0.01,5.3e-4 c -9.9517,-7.12815 -19.1338,0.46818 -22.1477,4.67598 l -63.1041,88.10076 c -8.2603,13.03778 -27.2303,9.14194 -43.5013,5.76368 8.6698,9.76934 24.6674,28.25343 24.6674,28.25343 11.2957,10.47295 25.6185,6.80131 34.574,-4.47697 z" />
  </g>
</svg>
