<svg width="192" height="192" fill="none" xmlns="http://www.w3.org/2000/svg"><path d="M83.832 25.307 30.958 56.344A5.985 5.985 0 0 0 28 61.504v68.992a5.986 5.986 0 0 0 2.958 5.161l52.874 31.036a24.042 24.042 0 0 0 24.336 0l52.874-31.036a5.986 5.986 0 0 0 2.958-5.161V61.504a5.984 5.984 0 0 0-2.958-5.16l-52.874-31.037a24.043 24.043 0 0 0-24.337 0Z" stroke="#000" stroke-width="12" stroke-linecap="round" stroke-linejoin="round"/><path d="M56 74a6 6 0 0 1 6-6h19.515a6 6 0 0 1 4.242 1.757l7.486 7.486A6 6 0 0 0 97.485 79H130a6 6 0 0 1 6 6v33a6 6 0 0 1-6 6H62a6 6 0 0 1-6-6V74Z" stroke="#000" stroke-width="12" stroke-linecap="round" stroke-linejoin="round"/></svg>