<svg xmlns="http://www.w3.org/2000/svg" width="192" height="192" fill="none"><path stroke="#000" stroke-linecap="round" stroke-linejoin="round" stroke-width="12" d="M83.832 25.307 30.958 56.344A5.99 5.99 0 0 0 28 61.504v68.992a5.99 5.99 0 0 0 2.958 5.161l52.874 31.036a24.04 24.04 0 0 0 24.336 0l52.874-31.036a5.99 5.99 0 0 0 2.958-5.161V61.504a5.98 5.98 0 0 0-2.958-5.16l-52.874-31.037a24.04 24.04 0 0 0-24.337 0Z"/><path stroke="#000" stroke-linecap="round" stroke-linejoin="round" stroke-width="12" d="M56 74a6 6 0 0 1 6-6h19.515a6 6 0 0 1 4.242 1.757l7.486 7.486A6 6 0 0 0 97.485 79H130a6 6 0 0 1 6 6v33a6 6 0 0 1-6 6H62a6 6 0 0 1-6-6z"/></svg>