<svg width="192" height="192" viewBox="0 0 192 192" fill="none" xmlns="http://www.w3.org/2000/svg">
<path d="M159.343 68.0482C160.446 66.8913 161.041 65.3421 160.998 63.7444C160.954 62.1467 160.275 60.6324 159.11 59.5374L148.574 49.6291C146.171 47.3698 142.396 47.4731 140.12 49.8601L82.9943 109.789L51.4632 78.5792C49.1194 76.2593 45.3425 76.2658 43.0067 78.5938L32.7644 88.802C31.6324 89.9303 30.9973 91.4637 31 93.062C31.0028 94.6604 31.6431 96.1916 32.7791 97.316L79.1999 143.264C80.3447 144.398 81.8972 145.023 83.5079 144.999C85.1186 144.976 86.6523 144.306 87.7637 143.14L159.343 68.0482Z" stroke="black" stroke-width="12" stroke-linejoin="round"/>
</svg>
