<svg xmlns="http://www.w3.org/2000/svg" width="192" height="192" viewBox="0 0 192 192"><path fill-rule="evenodd" d="M175.995 58.27a12.147 12.147 0 0 1-3.331 8.695l-82.313 86.777a12.148 12.148 0 0 1-17.387.253l-53.382-53.099a12.151 12.151 0 0 1-.03-17.201l11.779-11.797c4.735-4.743 12.417-4.756 17.169-.03l32.434 32.263 61.981-65.342c4.612-4.863 12.291-5.073 17.163-.47l12.116 11.451a12.156 12.156 0 0 1 3.801 8.5zm-24.264-11.118 12.117 11.45-82.314 86.777-53.382-53.098L39.93 80.484l41.257 41.037 70.544-74.37z"/></svg>