<svg width="192" height="192" fill="none" xmlns="http://www.w3.org/2000/svg"><path d="M171.01 96H29.06m141.95 0-22.852-19.058M171.01 96l-22.852 19.058m-30.47-57.174H83.41L56.75 96m68.556 38.116H91.028L64.365 96m-35.305 8.053c4.45 0 8.058-3.605 8.058-8.053s-3.608-8.053-8.059-8.053C24.61 87.947 21 91.552 21 96s3.608 8.053 8.06 8.053Z" stroke="#000" stroke-width="10" stroke-linecap="round" stroke-linejoin="round"/><path d="M117.689 64.327a6.445 6.445 0 0 0 6.447-6.443 6.445 6.445 0 0 0-6.447-6.442 6.445 6.445 0 0 0-6.448 6.442 6.445 6.445 0 0 0 6.448 6.443Zm-2.639 63.346h12.895v12.885H115.05v-12.885Z" stroke="#000" stroke-width="8" stroke-linecap="round" stroke-linejoin="round"/></svg>