<svg xmlns="http://www.w3.org/2000/svg" width="192" height="192" fill="none"><path stroke="#000" stroke-linecap="round" stroke-linejoin="round" stroke-width="12" d="M170 96H29.95M170 96l-22.546-18.784M170 96l-22.546 18.784m-30.062-56.353H83.573L57.27 96m67.637 37.569H91.088L64.782 96m-34.832 7.937c4.39 0 7.95-3.553 7.95-7.937s-3.56-7.937-7.951-7.937c-4.39 0-7.951 3.553-7.951 7.937s3.56 7.937 7.952 7.937"/><path stroke="#000" stroke-linecap="round" stroke-linejoin="round" stroke-width="12" d="M117.69 64.327a6.445 6.445 0 0 0 6.447-6.443 6.445 6.445 0 0 0-6.447-6.442 6.445 6.445 0 0 0-6.448 6.442 6.445 6.445 0 0 0 6.448 6.443m-2.639 63.346h12.895v12.885h-12.895z"/></svg>