<svg xmlns="http://www.w3.org/2000/svg" width="192" height="192" fill="none"><path stroke="#000" stroke-linecap="round" stroke-linejoin="round" stroke-width="12" d="M170 96a74 74 0 1 1-147.999 0A74 74 0 0 1 170 96"/><path stroke="#000" stroke-linecap="round" stroke-linejoin="round" stroke-width="12" d="M38.026 141.989c22.991-46.198 65.705-70.861 73.661-65.845 5.835 4.006 9.17 49.928-10.305 93.66"/><path stroke="#000" stroke-linecap="round" stroke-linejoin="round" stroke-width="12" d="M26.914 69.484c3.24-6.175 6.766-12.05 10.489-12.158 3.598-.105 16.606 20.479 25.298 48.978"/><path stroke="#000" stroke-linecap="round" stroke-linejoin="round" stroke-width="12" d="M82.422 88.39c-.266-10.85-4.633-24.77-7.746-25.504-4.819-1.135-16.617 7.471-22.598 15.9m60.223 57.249c12.341 2.974 28.944 13.15 28.697 14.892a21.1 21.1 0 0 1-7.871 9.087M130 139c13.82-14.6 17.241-33.687 15.661-35.72-1.581-2.032-13.533-2.119-28.661 0m-39.63-7.656c2.385.836 11.977 35.581 1.716 72.417"/></svg>