<svg xmlns="http://www.w3.org/2000/svg" width="192" height="192" fill="none" stroke="#000" stroke-linejoin="round" stroke-width="12" viewBox="0 0 192 192"><circle cx="96" cy="96" r="22"/><path d="M111.186 22H80.432l-4.1 22.37a56.7 56.7 0 0 0-17.14 9.806l-21.815-7.712L22 72.444l18.131 14.84A54 54 0 0 0 39.427 96c0 2.966.24 5.877.704 8.716L22 119.555l15.377 25.981 21.816-7.712a56.7 56.7 0 0 0 17.139 9.806l4.1 22.37h30.754l4.1-22.37a56.7 56.7 0 0 0 17.139-9.806l22.198 7.712L170 119.555l-18.514-14.839c.464-2.839.705-5.75.705-8.716s-.241-5.877-.705-8.716L170 72.444l-15.377-25.98-22.198 7.712a56.7 56.7 0 0 0-17.139-9.806z"/></svg>