<svg width="192" height="192" viewBox="0 0 192 192" fill="none" xmlns="http://www.w3.org/2000/svg"><path d="M22 80c0 32.033 25.968 58 58 58a57.881 57.881 0 0 0 20.335-3.665l33.908 33.908a6 6 0 0 0 4.242 1.757H164a6 6 0 0 0 6-6v-25.515a6 6 0 0 0-1.757-4.242l-33.908-33.908A57.881 57.881 0 0 0 138 80c0-32.032-25.967-58-58-58a57.875 57.875 0 0 0-20.335 3.665L98 64l-8 26-26 8-38.335-38.335A57.875 57.875 0 0 0 22 80Z" stroke="#000" stroke-width="12" stroke-linecap="round" stroke-linejoin="round"/></svg>