<svg width="192" height="192" viewBox="0 0 192 192" fill="none" xmlns="http://www.w3.org/2000/svg"><path d="M112.5 100.579a32.996 32.996 0 0 0 16.218-24.272 33.01 33.01 0 0 0-9.383-27.642 33.007 33.007 0 0 0-27.642-9.383A33 33 0 0 0 67.42 55.5" stroke="#000" stroke-width="12" stroke-linecap="round" stroke-linejoin="round"/><circle cx="96" cy="72" r="5" stroke="#000" stroke-width="10" stroke-linecap="round" stroke-linejoin="round"/><circle cx="137" cy="115" r="5" stroke="#000" stroke-width="10" stroke-linecap="round" stroke-linejoin="round"/><path d="M86.876 106.459a33.003 33.003 0 0 0-25.438-23.825A33 33 0 1 0 55 148" stroke="#000" stroke-width="12" stroke-linecap="round" stroke-linejoin="round"/><circle cx="55" cy="115" r="5" stroke="#000" stroke-width="10" stroke-linecap="round" stroke-linejoin="round"/><path d="M153.5 86.421a32.994 32.994 0 0 1 16.218 24.272 33.008 33.008 0 0 1-22.11 35.556 32.996 32.996 0 0 1-39.187-14.749" stroke="#000" stroke-width="12" stroke-linecap="round" stroke-linejoin="round"/></svg>