<svg width="192" height="192" viewBox="0 0 192 192" fill="none" xmlns="http://www.w3.org/2000/svg"><path d="m120 87-32 74M76 87h44m-96.636 3.894a5.96 5.96 0 0 1 .517-5.168l31.767-51.753a5.956 5.956 0 0 1 4.247-2.782l57.815-8.133a5.957 5.957 0 0 1 5.042 1.687l44.503 44.518a5.954 5.954 0 0 1 1.704 4.906l-6.775 57.832a5.954 5.954 0 0 1-2.779 4.371l-51.212 31.735a5.955 5.955 0 0 1-5.129.55l-56.216-19.954a5.957 5.957 0 0 1-3.6-3.564L23.364 90.894Z" stroke="#000" stroke-width="14" stroke-linecap="round" stroke-linejoin="round"/></svg>