<svg xmlns="http://www.w3.org/2000/svg" width="192" height="192" fill="none" viewBox="0 0 192 192"><g stroke="#000" stroke-linecap="round" stroke-linejoin="round" stroke-width="8"><path d="M106.653 22.459C64.2 24.54 46.624 65.074 55.831 92.983c.05.155.695.505.81.074 5.57-20.555 19.522-34.268 35.871-39.728 35.198-11.755 65.674 8.345 74.7 37.466 1.594 5.153 1.87 10.937 2.106 16.177.034.691 1.021.755 1.18.081 8.725-38.386-21.933-86.647-63.848-84.594z"/><path d="M27.835 119.172c22.304 36.182 66.285 32.017 86.293 10.491.112-.12.112-.852-.323-.748-20.693 5.035-39.438-.566-52.11-12.25C34.417 91.5 37.32 55.112 58.473 33.159c3.741-3.886 8.675-6.916 13.154-9.652.59-.36.169-1.26-.499-1.072-37.83 10.872-65.313 61.013-43.293 96.737"/><path d="M152.808 139.855c20.18-37.409-5.416-73.416-34.063-79.978-.158-.033-.792.33-.478.654 14.707 15.402 19.227 34.433 15.439 51.25-8.153 36.206-41.116 51.887-70.706 44.547-5.238-1.297-10.323-4.058-14.937-6.565-.607-.33-1.176.485-.677.967 28.34 27.326 85.497 26.052 105.425-10.875"/></g></svg>