<svg xmlns="http://www.w3.org/2000/svg" xml:space="preserve" id="svg1011" width="192" height="192" fill="none" version="1.1"><defs id="defs1009"><filter id="mask-powermask-path-effect5363_inverse" width="100" height="100" x="-50" y="-50" style="color-interpolation-filters:sRGB"><feColorMatrix id="mask-powermask-path-effect5363_primitive1" result="fbSourceGraphic" type="saturate" values="1"/><feColorMatrix id="mask-powermask-path-effect5363_primitive2" in="fbSourceGraphic" values="-1 0 0 0 1 0 -1 0 0 1 0 0 -1 0 1 0 0 0 1 0"/></filter><filter id="mask-powermask-path-effect5414_inverse" width="100" height="100" x="-50" y="-50" style="color-interpolation-filters:sRGB"><feColorMatrix id="mask-powermask-path-effect5414_primitive1" result="fbSourceGraphic" type="saturate" values="1"/><feColorMatrix id="mask-powermask-path-effect5414_primitive2" in="fbSourceGraphic" values="-1 0 0 0 1 0 -1 0 0 1 0 0 -1 0 1 0 0 0 1 0"/></filter><filter id="mask-powermask-path-effect5444_inverse" width="100" height="100" x="-50" y="-50" style="color-interpolation-filters:sRGB"><feColorMatrix id="mask-powermask-path-effect5444_primitive1" result="fbSourceGraphic" type="saturate" values="1"/><feColorMatrix id="mask-powermask-path-effect5444_primitive2" in="fbSourceGraphic" values="-1 0 0 0 1 0 -1 0 0 1 0 0 -1 0 1 0 0 0 1 0"/></filter><filter id="mask-powermask-path-effect5462_inverse" width="100" height="100" x="-50" y="-50" style="color-interpolation-filters:sRGB"><feColorMatrix id="mask-powermask-path-effect5462_primitive1" result="fbSourceGraphic" type="saturate" values="1"/><feColorMatrix id="mask-powermask-path-effect5462_primitive2" in="fbSourceGraphic" values="-1 0 0 0 1 0 -1 0 0 1 0 0 -1 0 1 0 0 0 1 0"/></filter><filter id="mask-powermask-path-effect5473_inverse" width="100" height="100" x="-50" y="-50" style="color-interpolation-filters:sRGB"><feColorMatrix id="mask-powermask-path-effect5473_primitive1" result="fbSourceGraphic" type="saturate" values="1"/><feColorMatrix id="mask-powermask-path-effect5473_primitive2" in="fbSourceGraphic" values="-1 0 0 0 1 0 -1 0 0 1 0 0 -1 0 1 0 0 0 1 0"/></filter><filter id="mask-powermask-path-effect7499_inverse" width="100" height="100" x="-50" y="-50" style="color-interpolation-filters:sRGB"><feColorMatrix id="mask-powermask-path-effect7499_primitive1" result="fbSourceGraphic" type="saturate" values="1"/><feColorMatrix id="mask-powermask-path-effect7499_primitive2" in="fbSourceGraphic" values="-1 0 0 0 1 0 -1 0 0 1 0 0 -1 0 1 0 0 0 1 0"/></filter><filter id="mask-powermask-path-effect7510_inverse" width="100" height="100" x="-50" y="-50" style="color-interpolation-filters:sRGB"><feColorMatrix id="mask-powermask-path-effect7510_primitive1" result="fbSourceGraphic" type="saturate" values="1"/><feColorMatrix id="mask-powermask-path-effect7510_primitive2" in="fbSourceGraphic" values="-1 0 0 0 1 0 -1 0 0 1 0 0 -1 0 1 0 0 0 1 0"/></filter><clipPath id="a"><path id="path1006" fill="#fff" d="M0 0h192v192H0z"/></clipPath><clipPath id="clipPath7516" clipPathUnits="userSpaceOnUse"><path id="path7518" fill="#fff" d="M18.79 67.427a5.31 5.31 0 0 1-4.034-5.146V33.623c0-2.763 2.61-4.789 5.304-4.116l17.054 4.26a5.31 5.31 0 0 1 4.033 5.146V67.57c0 2.762-2.61 4.789-5.304 4.116z" style="display:block;fill:#fff;fill-opacity:1;stroke:none;stroke-width:4.4;stroke-dasharray:none;stroke-opacity:1"/></clipPath><clipPath id="clipPath7528" clipPathUnits="userSpaceOnUse"><path id="path7530" fill="#fff" d="M34.838 60.83a5.31 5.31 0 0 1-4.033-5.147V27.026c0-2.763 2.61-4.79 5.303-4.117l17.054 4.26a5.31 5.31 0 0 1 4.034 5.146v28.658c0 2.763-2.61 4.79-5.304 4.116z" style="display:block;fill:#fff;fill-opacity:1;stroke:none;stroke-width:4.4;stroke-dasharray:none;stroke-opacity:1"/></clipPath><style id="style1182" type="text/css">.fil4{fill:#fefefe}.fil3{fill:#00ae42}.fil5{fill:red}.fil0{fill:#00ae42}.fil0,.fil1,.fil2{fill-rule:nonzero}.fil1{fill:red}.fil2{fill:#fff}</style></defs><g id="g903" style="fill:none;fill-opacity:1;stroke:#000;stroke-width:2.37378;stroke-linecap:round;stroke-linejoin:round;stroke-dasharray:none;stroke-opacity:1" transform="translate(21.914 20.359) scale(3.37016)"><path id="path882" fill="#343a4a" d="M25.144.623c-12.597.618-17.812 12.645-15.08 20.926.015.046.206.15.24.022 1.653-6.099 5.793-10.168 10.644-11.788C31.392 6.295 40.435 12.259 43.113 20.9c.473 1.529.555 3.245.625 4.8.01.205.303.224.35.024C46.677 14.334 37.58.014 25.143.623Z" style="fill:none;fill-opacity:1;stroke:#000;stroke-width:2.37378;stroke-linecap:round;stroke-linejoin:round;stroke-dasharray:none;stroke-opacity:1"/><path id="path884" fill="#343a4a" d="M1.757 29.32c6.618 10.736 19.668 9.5 25.605 3.113.033-.036.033-.253-.096-.222-6.14 1.494-11.702-.168-15.462-3.635-8.094-7.467-7.233-18.264-.956-24.778 1.11-1.153 2.574-2.052 3.903-2.864.175-.107.05-.374-.148-.318C3.378 3.842-4.777 18.72 1.757 29.32Z" style="fill:none;fill-opacity:1;stroke:#000;stroke-width:2.37378;stroke-linecap:round;stroke-linejoin:round;stroke-dasharray:none;stroke-opacity:1"/><path id="path886" fill="#343a4a" d="M38.839 35.457c5.988-11.1-1.607-21.784-10.107-23.731-.047-.01-.235.098-.142.194 4.364 4.57 5.705 10.217 4.581 15.207-2.419 10.743-12.2 15.396-20.98 13.218-1.554-.385-3.063-1.204-4.432-1.948-.18-.098-.349.144-.201.287 8.409 8.108 25.369 7.73 31.282-3.227" style="fill:none;fill-opacity:1;stroke:#000;stroke-width:2.37378;stroke-linecap:round;stroke-linejoin:round;stroke-dasharray:none;stroke-opacity:1"/></g></svg>