<?xml version="1.0" encoding="UTF-8" standalone="no"?>
<svg
   width="192"
   height="192"
   viewBox="0 0 192 192"
   fill="none"
   version="1.1"
   id="svg1011"
   xml:space="preserve"
   xmlns="http://www.w3.org/2000/svg"
   xmlns:svg="http://www.w3.org/2000/svg"><defs
     id="defs1009"><clipPath
       id="a"><path
         fill="#fff"
         d="M0 0h192v192H0z"
         id="path1006" /></clipPath><filter
       id="mask-powermask-path-effect5363_inverse"
       style="color-interpolation-filters:sRGB"
       height="100"
       width="100"
       x="-50"
       y="-50"><feColorMatrix
         id="mask-powermask-path-effect5363_primitive1"
         values="1"
         type="saturate"
         result="fbSourceGraphic" /><feColorMatrix
         id="mask-powermask-path-effect5363_primitive2"
         values="-1 0 0 0 1 0 -1 0 0 1 0 0 -1 0 1 0 0 0 1 0 "
         in="fbSourceGraphic" /></filter><filter
       id="mask-powermask-path-effect5414_inverse"
       style="color-interpolation-filters:sRGB"
       height="100"
       width="100"
       x="-50"
       y="-50"><feColorMatrix
         id="mask-powermask-path-effect5414_primitive1"
         values="1"
         type="saturate"
         result="fbSourceGraphic" /><feColorMatrix
         id="mask-powermask-path-effect5414_primitive2"
         values="-1 0 0 0 1 0 -1 0 0 1 0 0 -1 0 1 0 0 0 1 0 "
         in="fbSourceGraphic" /></filter><filter
       id="mask-powermask-path-effect5444_inverse"
       style="color-interpolation-filters:sRGB"
       height="100"
       width="100"
       x="-50"
       y="-50"><feColorMatrix
         id="mask-powermask-path-effect5444_primitive1"
         values="1"
         type="saturate"
         result="fbSourceGraphic" /><feColorMatrix
         id="mask-powermask-path-effect5444_primitive2"
         values="-1 0 0 0 1 0 -1 0 0 1 0 0 -1 0 1 0 0 0 1 0 "
         in="fbSourceGraphic" /></filter><filter
       id="mask-powermask-path-effect5462_inverse"
       style="color-interpolation-filters:sRGB"
       height="100"
       width="100"
       x="-50"
       y="-50"><feColorMatrix
         id="mask-powermask-path-effect5462_primitive1"
         values="1"
         type="saturate"
         result="fbSourceGraphic" /><feColorMatrix
         id="mask-powermask-path-effect5462_primitive2"
         values="-1 0 0 0 1 0 -1 0 0 1 0 0 -1 0 1 0 0 0 1 0 "
         in="fbSourceGraphic" /></filter><filter
       id="mask-powermask-path-effect5473_inverse"
       style="color-interpolation-filters:sRGB"
       height="100"
       width="100"
       x="-50"
       y="-50"><feColorMatrix
         id="mask-powermask-path-effect5473_primitive1"
         values="1"
         type="saturate"
         result="fbSourceGraphic" /><feColorMatrix
         id="mask-powermask-path-effect5473_primitive2"
         values="-1 0 0 0 1 0 -1 0 0 1 0 0 -1 0 1 0 0 0 1 0 "
         in="fbSourceGraphic" /></filter><filter
       id="mask-powermask-path-effect7499_inverse"
       style="color-interpolation-filters:sRGB"
       height="100"
       width="100"
       x="-50"
       y="-50"><feColorMatrix
         id="mask-powermask-path-effect7499_primitive1"
         values="1"
         type="saturate"
         result="fbSourceGraphic" /><feColorMatrix
         id="mask-powermask-path-effect7499_primitive2"
         values="-1 0 0 0 1 0 -1 0 0 1 0 0 -1 0 1 0 0 0 1 0 "
         in="fbSourceGraphic" /></filter><filter
       id="mask-powermask-path-effect7510_inverse"
       style="color-interpolation-filters:sRGB"
       height="100"
       width="100"
       x="-50"
       y="-50"><feColorMatrix
         id="mask-powermask-path-effect7510_primitive1"
         values="1"
         type="saturate"
         result="fbSourceGraphic" /><feColorMatrix
         id="mask-powermask-path-effect7510_primitive2"
         values="-1 0 0 0 1 0 -1 0 0 1 0 0 -1 0 1 0 0 0 1 0 "
         in="fbSourceGraphic" /></filter><clipPath
       clipPathUnits="userSpaceOnUse"
       id="clipPath7516"><path
         d="m 18.7893,67.426901 c -2.371,-0.5923 -4.0334,-2.713199 -4.0334,-5.145701 V 33.6233 c 0,-2.7629 2.6107,-4.7892 5.3037,-4.1165 l 17.0541,4.2602 c 2.3709,0.5922 4.0334,2.7131 4.0334,5.1456 v 28.657901 c 0,2.762897 -2.6108,4.789301 -5.3038,4.116497 z"
         fill="#ffffff"
         id="path7518"
         style="display:block;fill:#ffffff;fill-opacity:1;stroke:none;stroke-width:4.4;stroke-dasharray:none;stroke-opacity:1" /></clipPath><clipPath
       clipPathUnits="userSpaceOnUse"
       id="clipPath7528"><path
         d="m 34.8381,60.8292 c -2.371,-0.5923 -4.0334,-2.713199 -4.0334,-5.145701 V 27.0257 c 0,-2.7629 2.6108,-4.7893 5.3038,-4.1166 l 17.053998,4.2602 c 2.371001,0.5923 4.033403,2.7132 4.033403,5.1457 v 28.6578 c 0,2.763002 -2.610701,4.789301 -5.303804,4.116601 z"
         fill="#ffffff"
         id="path7530"
         style="display:block;fill:#ffffff;fill-opacity:1;stroke:none;stroke-width:4.4;stroke-dasharray:none;stroke-opacity:1" /></clipPath><style
       type="text/css"
       id="style1182">
   <![CDATA[
    .fil4 {fill:#FEFEFE}
    .fil3 {fill:#00AE42}
    .fil5 {fill:red}
    .fil0 {fill:#00AE42;fill-rule:nonzero}
    .fil1 {fill:red;fill-rule:nonzero}
    .fil2 {fill:white;fill-rule:nonzero}
   ]]>
  </style></defs><g
     style="fill:none;fill-opacity:1;stroke:#000000;stroke-width:2.37378;stroke-linecap:round;stroke-linejoin:round;stroke-dasharray:none;stroke-opacity:1"
     id="g903"
     transform="matrix(3.3701552,0,0,3.3701552,21.913728,20.358674)"><path
       d="M 25.143838,0.62264287 C 12.547417,1.2405534 7.332299,13.267889 10.063849,21.548826 c 0.01515,0.04591 0.205741,0.150593 0.240489,0.02187 1.652789,-6.098475 5.793091,-10.167468 10.643279,-11.788024 10.444877,-3.4872244 19.487542,2.476144 22.165877,11.117325 0.472639,1.528603 0.554268,3.244609 0.624683,4.800907 0.0094,0.204252 0.303251,0.223246 0.348937,0.02319 C 46.67727,14.334592 37.580298,0.01328472 25.143838,0.62264287 Z"
       fill="#343a4a"
       id="path882"
       style="fill:none;fill-opacity:1;stroke:#000000;stroke-width:2.37378;stroke-linecap:round;stroke-linejoin:round;stroke-dasharray:none;stroke-opacity:1" /><path
       d="m 1.7571638,29.319645 c 6.61778,10.736 19.6675402,9.5004 25.6044402,3.1129 0.0329,-0.0356 0.0329,-0.2525 -0.096,-0.2214 -6.1404,1.4934 -11.7013,-0.168 -15.4613,-3.6355 -8.0942502,-7.4667 -7.2329102,-18.264 -0.9565,-24.7778106 1.1103,-1.15289 2.5743,-2.05156 3.9031,-2.86400003 0.1752,-0.10667 0.0498,-0.374226 -0.1484,-0.318226 C 3.3776138,3.8422744 -4.7779462,18.720545 1.7571638,29.319645 Z"
       fill="#343a4a"
       id="path884"
       style="fill:none;fill-opacity:1;stroke:#000000;stroke-width:2.37378;stroke-linecap:round;stroke-linejoin:round;stroke-dasharray:none;stroke-opacity:1" /><path
       d="m 38.838796,35.456697 c 5.9884,-11.0996 -1.6063,-21.7832 -10.1067,-23.7307 -0.0471,-0.0107 -0.2347,0.0978 -0.1422,0.1938 4.3644,4.5706 5.7049,10.2177 4.5813,15.2071 -2.4187,10.7431 -12.2,15.3964 -20.9796,13.2178 -1.5546,-0.3849 -3.0639598,-1.2036 -4.4328498,-1.9476 -0.18044,-0.0978 -0.34844,0.144 -0.20089,0.2871 8.4089398,8.1076 25.3689398,7.7307 31.2817398,-3.2267"
       fill="#343a4a"
       id="path886"
       style="fill:none;fill-opacity:1;stroke:#000000;stroke-width:2.37378;stroke-linecap:round;stroke-linejoin:round;stroke-dasharray:none;stroke-opacity:1" /></g></svg>
