<svg width="192" height="192" viewBox="0 0 192 192" fill="none" xmlns="http://www.w3.org/2000/svg"><path d="M129 45h4a6 6 0 0 1 6 6v0m-1.876-23A14 14 0 0 0 111 35m0 16a13.998 13.998 0 0 0 23.899 9.9A13.998 13.998 0 0 0 139 51m-28 0V35" stroke="#000" stroke-width="10" stroke-linecap="round" stroke-linejoin="round"/><circle cx="95" cy="64" r="3" stroke="#000" stroke-width="6" stroke-linecap="round" stroke-linejoin="round"/><path d="M63 51V21m14 15H63m0 15a14 14 0 0 0 14 14M43.392 26.5c-1.053-1.672-2.568-3.06-4.392-4.026A12.85 12.85 0 0 0 33 21a12.85 12.85 0 0 0-6 1.474c-1.824.965-3.34 2.354-4.392 4.026A10.304 10.304 0 0 0 21 32c0 1.93.555 3.828 1.608 5.5 1.053 1.672 2.568 3.06 4.392 4.026A12.85 12.85 0 0 0 33 43M22.608 59.5c1.053 1.672 2.568 3.06 4.392 4.026A12.85 12.85 0 0 0 33 65a12.85 12.85 0 0 0 6-1.474c1.824-.965 3.34-2.354 4.392-4.026A10.304 10.304 0 0 0 45 54a10.3 10.3 0 0 0-1.608-5.5c-1.053-1.672-2.568-3.06-4.392-4.026A12.85 12.85 0 0 0 33 43" stroke="#000" stroke-width="10" stroke-linecap="round" stroke-linejoin="round"/><path d="m74 132 26 38m70-38-26 38m-44 0s36.009-50.264 37.588-53A17.997 17.997 0 0 0 131 92.412 17.998 17.998 0 0 0 104 108c0 3.16.832 6.264 2.412 9 1.579 2.736 37.588 53 37.588 53M84.659 90.613A18 18 0 0 0 64.412 117c1.78 3.083 9.588 15 9.588 15" stroke="#000" stroke-width="12" stroke-linecap="round" stroke-linejoin="round"/></svg>