<svg width="192" height="192" viewBox="0 0 192 192" fill="none" xmlns="http://www.w3.org/2000/svg"><path d="M22.002 37.818a6.009 6.009 0 0 1 5.843-6.142l133.244-3.674a6.01 6.01 0 0 1 6.175 5.872l2.734 122.985a6.009 6.009 0 0 1-6.009 6.141H30.745a6.009 6.009 0 0 1-6.01-5.87L22.003 37.818Z" stroke="#000" stroke-width="12" stroke-linecap="round" stroke-linejoin="round"/><path d="m80 73-10-8s55-25 55 0-75 70-75 70 58-16 116-13m-89 40-13.5-30.5M103 53l-2-21" stroke="#000" stroke-width="12" stroke-linecap="round" stroke-linejoin="round"/></svg>