<?xml version="1.0" encoding="utf-8"?>
	<svg version="1.1" xmlns="http://www.w3.org/2000/svg" xmlns:xlink="http://www.w3.org/1999/xlink" x="0px" y="0px" width="240.0" height="240.0" xml:space="preserve">
		<path d="M65.512,145.914L65.531,145.914C65.531,165.911 65.464,185.907 65.562,205.903C65.605,214.429 71.73,217.723 79,213.276C81.761,211.586 84.286,209.477 87.127,207.951C93.893,204.314 96.296,198.85 96.241,191.156C95.98,154.416 96.19,117.673 96.045,80.932C96.028,76.403 97.154,74.257 101.992,73.576C114.317,71.843 126.563,69.547 138.833,67.438C145.615,66.272 146.024,66.557 146.028,73.531C146.045,100.355 146.112,127.18 145.993,154.004C145.961,161.022 147.449,167.458 150.815,173.614C157.204,185.295 163.546,197.009 169.559,208.887C172.238,214.176 175.811,216.838 181.819,216.28C185.187,215.966 188.608,216.238 192.005,216.219C202.175,216.165 204.757,211.859 200.065,202.62C193.743,190.168 187.34,177.757 180.978,165.325C178.509,160.503 176.752,155.477 176.75,149.967C176.741,122.005 176.789,94.041 176.66,66.08C176.641,62.154 178.21,60.662 181.887,60.106C191.318,58.68 200.714,57.004 210.109,55.346C215.715,54.355 217.814,52.01 218.505,46.288C218.952,42.579 219.344,38.862 219.823,35.157C220.911,26.755 216.955,22.883 208.646,24.279C164.954,31.62 121.261,38.957 77.57,46.311C61.784,48.967 46.006,51.667 30.223,54.343C26.315,55.005 22.828,56.48 22.089,60.827C21.14,66.419 20.511,72.079 20.032,77.734C19.742,81.134 21.448,83.75 24.616,85.061C27.578,86.287 30.683,85.673 33.715,85.165C42.167,83.752 50.604,82.243 59.059,80.852C64.911,79.889 65.492,80.39 65.501,86.412C65.53,106.246 65.512,126.08 65.512,145.914" fill="#000" stroke="#00000000" stroke-width="1.0" stroke-miterlimit=""/>
	</svg>
