<svg xmlns="http://www.w3.org/2000/svg" width="192" height="192" viewBox="0 0 192 192"><path fill="none" stroke="#000" stroke-linecap="round" stroke-width="12" d="M114.9 43.4c0 10.3-8.4 18.7-18.7 18.7s-18.7-8.4-18.7-18.7 8.4-18.7 18.7-18.7 18.7 8.4 18.7 18.7zm36.4 70.7c-10.3 0-18.7 8.4-18.7 18.7s8.4 18.7 18.7 18.7 18.7-8.4 18.7-18.7-8.4-18.7-18.7-18.7zm-110.6 0c-10.3 0-18.7 8.4-18.7 18.7s8.4 18.7 18.7 18.7 18.7-8.4 18.7-18.7c-.1-10.3-8.4-18.7-18.7-18.7zm18.6-58.5c-12 8.9-20.6 22.1-23.8 37.2m32.7 67.8c8.4 4.3 17.9 6.7 28 6.7s19.6-2.4 28-6.7m32.7-67.8c-3.1-15.2-11.8-28.3-23.8-37.2"/></svg>