<svg xmlns="http://www.w3.org/2000/svg" width="192" height="192" fill="none"><path stroke="#000" stroke-linecap="round" stroke-linejoin="round" stroke-width="12" d="M124 117.167c-11.766 6.187-25.6 8.267-38.925 5.853s-25.232-9.157-33.503-18.973A50.6 50.6 0 0 1 46.018 96M68 74.833c11.766-6.187 25.6-8.267 38.925-5.853s25.232 9.157 33.503 18.973A50.6 50.6 0 0 1 145.982 96m-99.964 0c-5.63 10.147-7.39 21.746-4.942 32.95 2.65 12.135 10.055 22.979 20.833 30.511 10.779 7.532 24.197 11.239 37.753 10.43s26.329-6.079 35.936-14.829 15.393-20.38 16.282-32.726c.659-9.158-1.41-18.247-5.898-26.336m-99.964 0c-4.488-8.09-6.557-17.177-5.898-26.336.888-12.346 6.675-23.977 16.282-32.726 9.607-8.75 22.378-14.02 35.935-14.829s26.975 2.898 37.754 10.43 18.182 18.376 20.833 30.511c2.447 11.204.688 22.803-4.942 32.95"/></svg>