<svg xmlns="http://www.w3.org/2000/svg" width="192" height="192" fill="none"><path stroke="#000" stroke-linecap="round" stroke-linejoin="round" stroke-width="12" d="M170 138c0 13.255-10.745 24-24 24-26 0-26-13-50-13s-24 13-50 13a24 24 0 0 1-24-24 24 24 0 0 1 24-24c14.668 0 21.06 4.137 28.156 7.744m-31.289 40.047a24 24 0 0 1-15.907-9.184 24 24 0 0 1-4.755-17.743 24 24 0 0 1 3.01-8.867c13-22.517 24.259-16.017 36.259-36.802 12-20.784.741-27.284 13.741-49.8 6.628-11.48 21.306-15.413 32.785-8.786s15.412 21.306 8.785 32.785C109.451 76.097 102.671 79.564 96 83.906m20.78-44.516c13 22.517 1.742 29.017 13.742 49.801s23.258 14.285 36.258 36.802c6.628 11.479 2.695 26.157-8.784 32.784-11.479 6.628-26.158 2.695-32.785-8.784-7.331-12.698-6.948-20.302-7.371-28.246M96 83.906c5.152 3.353 10.24 7.23 15.468 16.285 5.233 9.064 6.043 15.412 6.371 21.556M96 83.906c-5.154 3.354-10.243 7.23-15.474 16.289-5.23 9.061-6.042 15.407-6.37 21.549m0 0C79.638 124.53 85.54 127 96 127c10.457 0 16.358-2.468 21.839-5.253"/></svg>