<?xml version="1.0" encoding="utf-8"?>
<!-- Generator: Adobe Illustrator 25.4.1, SVG Export Plug-In . SVG Version: 6.00 Build 0)  -->
<svg version="1.1" id="Layer_1" xmlns="http://www.w3.org/2000/svg" xmlns:xlink="http://www.w3.org/1999/xlink" x="0px" y="0px"
	 width="192px" height="192px" viewBox="0 0 192 192" style="enable-background:new 0 0 192 192;" xml:space="preserve">
<style type="text/css">
	.st0{fill:none;stroke:#000000;stroke-width:12;stroke-linecap:round;stroke-miterlimit:10;}
</style>
<path class="st0" d="M114.9,43.4c0,10.3-8.4,18.7-18.7,18.7s-18.7-8.4-18.7-18.7s8.4-18.7,18.7-18.7S114.9,33.1,114.9,43.4z
	 M151.3,114.1c-10.3,0-18.7,8.4-18.7,18.7c0,10.3,8.4,18.7,18.7,18.7c10.3,0,18.7-8.4,18.7-18.7C170,122.5,161.6,114.1,151.3,114.1z
	 M40.7,114.1c-10.3,0-18.7,8.4-18.7,18.7c0,10.3,8.4,18.7,18.7,18.7s18.7-8.4,18.7-18.7C59.3,122.5,51,114.1,40.7,114.1z M59.3,55.6
	c-12,8.9-20.6,22.1-23.8,37.2 M68.2,160.6c8.4,4.3,17.9,6.7,28,6.7c10.1,0,19.6-2.4,28-6.7 M156.9,92.8
	c-3.1-15.2-11.8-28.3-23.8-37.2"/>
</svg>
