<svg xmlns="http://www.w3.org/2000/svg" width="192" height="192" fill="none" viewBox="0 0 192 192"><path stroke="#000" stroke-linejoin="round" stroke-width="12" d="M50.525 42.825c8.188-12.123 22.615-18.765 36.649-20.33 21.444-1.958 44.836 1.565 61.601 16.418-7.017 6.646-14.423 12.903-21.444 19.55-7.795-7.037-18.32-10.555-28.85-10.555-7.798-.395-15.986 2.344-20.273 8.99-3.12 4.693-1.948 11.73 2.338 15.247 7.017 5.867 15.982 8.601 24.563 11.73 12.474 3.912 24.953 8.21 35.089 16.811 14.034 11.343 17.154 34.407 6.239 48.874-9.358 12.513-24.563 19.16-39.768 20.326-13.649.39-27.294 0-40.161-4.684-9.743-3.129-18.32-8.605-26.508-14.476 7.017-6.642 14.423-13.289 21.444-19.936 12.085 9.385 27.679 14.468 42.888 12.514 6.623-1.17 13.645-4.693 15.982-11.339 1.56-5.863-1.948-11.729-7.017-14.468-15.593-8.995-33.922-10.94-49.127-20.72-8.188-5.082-15.204-12.903-17.935-22.283-3.115-10.95-1.949-22.678 4.29-31.669z"/></svg>