<?xml version="1.0" encoding="UTF-8"?>
<svg id="Shell_Asia" data-name="Shell Asia" xmlns="http://www.w3.org/2000/svg" viewBox="0 0 160.99 161.37">
  <defs>
    <style>
      .cls-1 {
        fill: none;
        stroke: #231f20;
        stroke-miterlimit: 10;
        stroke-width: 12px;
      }
    </style>
  </defs>
  <path class="cls-1" d="M31.99,121l2.57,19.78c.39,3.03,2.98,5.3,6.03,5.29l30.27-.05c.95,0,1.9.22,2.75.65l3.97,2.01c1.67.84,3.63.87,5.32.08l4.54-2.13c.81-.38,1.69-.58,2.59-.58l30.36.04c3.05,0,5.64-2.26,6.03-5.28l2.61-19.89c.22-1.65,1.1-3.14,2.44-4.12l20.12-14.67c1.61-1.18,2.54-3.07,2.5-5.06-.39-15.89-5.93-84.93-73.12-84.93S7.6,80.97,6.9,96.98c-.09,2.04.84,3.98,2.49,5.18l20.16,14.72c1.35.98,2.23,2.47,2.44,4.12Z"/>
</svg>