<?xml version="1.0" encoding="utf-8"?>
	<svg version="1.1" xmlns="http://www.w3.org/2000/svg" xmlns:xlink="http://www.w3.org/1999/xlink" x="0px" y="0px" width="240.0" height="240.0" xml:space="preserve">
		<path d="M157.684,44.251C159.109,44.286 159.588,45.217 159.761,46.306C160.052,48.138 160.814,49.376 162.789,49.691C163.534,49.81 164.138,50.331 164.461,51.071C166.947,56.759 169.441,62.444 171.912,68.139C172.832,70.259 172.482,72.56 172.788,74.769C173.144,77.334 173.912,77.798 176.469,77.04L176.955,77.018C176.793,77.026 176.631,77.033 176.469,77.04C176.392,75.763 176.941,74.718 177.688,73.749C177.477,73.249 177.576,72.879 178.123,72.693C178.393,72.04 178.683,71.414 179.515,71.514L179.667,71.539L179.667,71.539C179.817,70.591 180.026,69.74 179.308,68.788C178.29,67.442 178.591,65.752 178.829,64.203C179.073,62.615 180.386,62.424 181.694,62.436C187.497,62.49 193.303,62.485 199.102,62.664C201.844,62.748 204.566,62.85 207.307,62.61C210.985,62.287 211.712,63.103 211.436,66.83C211.324,68.34 210.678,69.681 210.2,71.078C210.067,71.387 209.913,71.691 209.764,71.996L209.914,71.691C210.013,71.488 210.111,71.285 210.2,71.079C212.602,71.571 213.214,73.421 213.548,75.484C214.86,77.563 216.837,77.785 219.089,77.714C222.403,77.608 222.737,78.011 222.738,81.198L222.757,121.8C222.764,142.101 222.762,162.402 222.722,182.703C222.711,187.955 220.981,192.482 215.669,194.774L215.669,194.774C213.971,195.685 212.23,196.251 210.231,196.246C191.431,196.203 172.629,196.234 153.827,196.22C152.758,196.219 151.688,196.017 150.619,195.909C150.061,196.02 149.502,196.228 148.942,196.229C107.969,196.271 66.995,196.306 26.022,196.287C24.566,196.286 22.839,196.964 21.671,195.366C22.834,195.328 23.996,195.256 25.159,195.257L74.414,195.289C57.995,195.277 41.577,195.266 25.159,195.257C23.996,195.256 22.834,195.329 21.671,195.367C21.671,195.367 21.543,195.371 21.492,195.373L21.472,195.373L21.472,195.373C20.157,196.088 19.489,195.305 18.898,194.285C18.114,192.932 18,191.449 18,189.94C18.03,160.736 17.996,131.532 18.148,102.328C18.179,96.357 19.253,90.406 18.994,84.404C18.951,83.408 19.027,82.374 18.78,81.428C18.288,79.536 18.454,78.178 20.688,77.656C22.033,77.342 22.085,76.044 22.039,74.998C21.937,72.651 22.977,71.981 25.223,72.132C31.78,72.573 38.356,72.436 44.899,71.989C47.815,71.789 50.661,70.823 53.659,70.682C55.747,70.585 57.775,70.823 59.795,71.106L61.141,71.299C61.365,71.331 61.589,71.363 61.814,71.394C63.305,71.602 64.454,72.453 64.938,74.194C66.006,78.043 67.32,78.542 70.767,76.745L70.767,76.745C70.726,75.231 72.186,75.05 72.967,74.266L72.99,74.275C72.982,74.272 72.974,74.269 72.967,74.266C72.641,73.92 72.599,73.603 73.062,73.336C71.995,72.85 71.4,72.015 71.388,70.848C71.369,68.972 71.399,67.095 71.434,65.219C71.454,64.167 72.019,63.572 73.07,63.447C73.254,62.148 74.29,62.554 75.018,62.553C83.658,62.539 92.299,62.557 100.94,62.58C103.633,62.587 104.457,63.333 104.275,66.001C104.108,68.43 104.983,71 103.324,73.28C102.926,73.827 105.43,77.107 106.277,77.161C108.155,77.281 108.63,75.782 108.497,74.5C107.905,68.826 110.224,64.158 112.645,59.526L113.06,58.733L113.06,58.733L113.475,57.939C114.162,56.614 114.832,55.284 115.419,53.924C116.361,51.739 117.158,49.476 120.078,49.003C121.146,48.83 121.258,47.448 121.211,46.456C121.137,44.901 121.984,44.38 123.309,44.324C134.766,43.845 146.225,43.963 157.684,44.251ZM177.353,177.257C172.853,180.853 167.959,183.877 162.722,186.154C157.373,188.479 151.806,189.966 145.763,190.099C137.825,190.276 130.037,190.076 122.462,187.537C118.544,186.223 114.652,184.85 111.285,182.284C108.913,180.476 106.359,178.905 103.873,177.248C103.327,176.884 102.634,176.398 102.083,177.027C101.473,177.723 102.265,178.205 102.655,178.692C102.915,179.014 103.228,179.296 103.53,179.58C113.944,189.368 126.508,193.523 140.563,193.784C147.627,193.737 154.328,192.588 160.937,189.752C167.509,186.931 173.612,183.706 178.554,178.501C178.697,178.35 178.885,178.193 179.078,178.031L179.272,177.866C179.851,177.367 180.367,176.814 179.788,176.193C179.014,175.361 178.058,176.694 177.353,177.257ZM117.086,78.984C114.697,80.194 112.215,81.301 110.249,83.402C111.182,83.755 111.722,83.245 112.294,82.989C120.057,79.497 128.064,76.956 136.673,76.906C142.45,76.872 148.19,76.678 153.938,78.118C157.936,79.12 161.814,80.44 165.766,81.545C166.305,81.696 166.992,82.129 167.293,81.428C167.599,80.714 166.81,80.474 166.313,80.242C162.941,78.671 159.753,76.569 156.13,75.697C142.78,72.486 129.649,72.62 117.086,78.984ZM132.677,61.622C132.353,61.714 132.04,61.928 131.734,62.175L131.568,62.312C130.467,63.244 129.459,64.402 128.375,61.518C128.346,61.442 128.066,61.433 127.904,61.437C126.582,61.467 125.242,61.383 123.942,61.57C121.547,61.913 122.602,63.828 122.511,65.149C122.408,66.66 123.367,67.076 124.625,66.625C126.522,65.944 128.818,67.523 130.49,65.558C130.579,65.454 131.171,65.611 131.381,65.806C132.55,66.89 133.936,66.865 134.865,66.732C136.114,66.732 136.879,66.834 137.604,66.709C138.844,66.495 139.751,65.795 139.922,64.456C140.11,62.984 139.292,61.842 138.028,61.62C136.282,61.314 134.339,61.152 132.677,61.622ZM152.921,61.282C152.536,61.428 152.064,61.462 151.967,61.669C151.484,62.709 151.997,63.399 152.561,64.091L152.773,64.351C153.159,64.832 153.513,65.334 153.527,65.972C153.545,66.752 154.559,66.922 155.339,66.508C155.54,66.401 155.765,66.182 155.817,65.974C156.125,64.754 156.717,63.727 157.521,62.743C158.027,62.124 157.417,61.493 156.785,61.722C155.375,62.234 154.099,62.367 152.921,61.282ZM141.358,64.338C141.337,65.152 140.599,67.571 142.668,66.383C144.365,65.408 145.155,65.244 146.554,66.287C147.214,66.779 148.17,66.696 148.459,65.864C148.884,64.636 149.224,63.22 148.521,62.032C148.016,61.178 147.214,61.727 146.635,62.264C145.907,62.941 145.327,62.507 144.643,62.115C141.91,60.546 141.369,60.876 141.358,64.338ZM135.314,62.411C136.264,62.376 136.775,63.048 136.96,63.98C136.852,64.989 136.342,65.756 135.296,65.785C134.359,65.811 133.764,65.093 133.689,64.2C133.602,63.127 134.277,62.451 135.314,62.411Z" fill="#ff262626" stroke="#00000000" stroke-width="1.0" stroke-miterlimit=""/>
	</svg>
