<svg xmlns="http://www.w3.org/2000/svg" width="192" height="192" fill="none"><path stroke="#000" stroke-linecap="round" stroke-linejoin="round" stroke-width="12" d="M112 38a16 16 0 0 0-16-16 16 16 0 0 0-16 16m-16 0v16a6 6 0 0 0 6 6h52a6 6 0 0 0 6-6V38"/><path stroke="#000" stroke-linecap="round" stroke-linejoin="round" stroke-width="12" d="M80 38H52c-11.046 0-20 8.954-20 20v60c0 5.523 4.477 10 10 10h22l12-20 17 39 21-64 14 45h22c5.523 0 10 4.477 10 10v12c0 11.046-8.954 20-20 20H52c-11.046 0-20-8.954-20-20m80-112h28c11.046 0 20 8.954 20 20v48"/></svg>