<svg xmlns="http://www.w3.org/2000/svg" width="192" height="192" fill="none"><path stroke="#000" stroke-linecap="round" stroke-linejoin="round" stroke-width="12" d="M103 167s10-13 7-35c12-6 13-33 13-33s-24-8-34 4c-8-11-28-13-28-13-3-13-19-23-19-23S27 77.5 25 95"/><path stroke="#000" stroke-linecap="round" stroke-linejoin="round" stroke-width="12" d="M25 95V31a6 6 0 0 1 6-6h130a6 6 0 0 1 6 6v130a6 6 0 0 1-6 6h-58"/><ellipse cx="43" cy="116.5" stroke="#000" stroke-linecap="round" stroke-linejoin="round" stroke-width="6" rx="3" ry="2.5" transform="rotate(15 43 116.5)"/><ellipse cx="81" cy="132.5" stroke="#000" stroke-linecap="round" stroke-linejoin="round" stroke-width="6" rx="3" ry="2.5" transform="rotate(15 81 132.5)"/><path stroke="#000" stroke-linecap="round" stroke-linejoin="round" stroke-width="12" d="m129.968 80-11.854-21H73.886l-3.67 6.5"/></svg>