<svg xmlns="http://www.w3.org/2000/svg" width="192" height="192" stroke-linejoin="round" stroke-width="12" viewBox="0 0 192 192"><circle cx="96" cy="96" r="74" fill="none" stroke="#000"/><circle cx="59.8" cy="130.4" r="6"/><circle cx="100.4" cy="136.1" r="6"/><path fill="none" stroke="#000" d="M128.6 162.5c-.8.4-1.7.8-2.6 1.2-3 1.3-6 2.4-9.1 3.3-36.1 10.6-73.8-7.5-88.6-41 3.2-4.6 7.4-8.6 11.8-11.9-.8-7.9 1-15.9 6.7-24.3 9.2 2.7 17.1 7.6 23.4 14.8 10.2-1.9 20-.4 29.4 3.5 8.3-4.2 16.2-6.5 23.6-6.2.8-.1 1.6.5 1.8 1.4 1.6 8.7.8 16.8-2.7 24.2 5.3 11.5 8.8 23.7 6.3 35z"/><path fill="none" stroke="#000" d="m122.7 128.6 19.5-11.3V74l-37.5-21.7L67.2 74v24.6"/></svg>