<svg xmlns="http://www.w3.org/2000/svg" width="192" height="192" fill="none"><path stroke="#000" stroke-linecap="round" stroke-linejoin="round" stroke-width="12" d="M91.73 23.769a6.04 6.04 0 0 1 8.541 0l67.96 67.96a6.04 6.04 0 0 1 0 8.542l-67.96 67.96a6.04 6.04 0 0 1-8.542 0l-67.96-67.96a6.04 6.04 0 0 1 0-8.542l67.96-67.96Z"/><path stroke="#000" stroke-linecap="round" stroke-linejoin="round" stroke-width="12" d="M93.403 52.076a3.673 3.673 0 0 1 5.194 0l41.327 41.327a3.67 3.67 0 0 1 0 5.194l-41.327 41.327a3.67 3.67 0 0 1-5.194 0L52.076 98.597a3.673 3.673 0 0 1 0-5.194z"/><path stroke="#000" stroke-linecap="round" stroke-linejoin="round" stroke-width="12" d="M95.019 79.406a1.387 1.387 0 0 1 1.962 0l15.613 15.613c.541.542.541 1.42 0 1.962l-15.613 15.613a1.39 1.39 0 0 1-1.962 0L79.406 96.981a1.387 1.387 0 0 1 0-1.962z"/></svg>