<svg width="192" height="192" fill="none" xmlns="http://www.w3.org/2000/svg"><path d="M91.73 23.769a6.04 6.04 0 0 1 8.541 0l67.96 67.96a6.04 6.04 0 0 1 0 8.542l-67.96 67.96a6.04 6.04 0 0 1-8.542 0l-67.96-67.96a6.04 6.04 0 0 1 0-8.542l67.96-67.96Z" stroke="#000" stroke-width="12" stroke-linecap="round" stroke-linejoin="round"/><path d="M93.403 52.076a3.673 3.673 0 0 1 5.194 0l41.327 41.327a3.671 3.671 0 0 1 0 5.194l-41.327 41.327a3.671 3.671 0 0 1-5.194 0L52.076 98.597a3.673 3.673 0 0 1 0-5.194l41.327-41.327Z" stroke="#000" stroke-width="12" stroke-linecap="round" stroke-linejoin="round"/><path d="M95.019 79.406a1.387 1.387 0 0 1 1.962 0l15.613 15.613c.541.542.541 1.42 0 1.962l-15.613 15.613a1.389 1.389 0 0 1-1.962 0L79.406 96.981a1.387 1.387 0 0 1 0-1.962L95.02 79.406Z" stroke="#000" stroke-width="12" stroke-linecap="round" stroke-linejoin="round"/></svg>