<svg width="192" height="192" viewBox="0 0 192 192" fill="none" xmlns="http://www.w3.org/2000/svg"><rect x="75" y="72" width="42" height="48" rx="12" stroke="#000" stroke-width="12" stroke-linecap="round" stroke-linejoin="round"/><path d="M149.033 42.967A74.99 74.99 0 0 0 96 21a75 75 0 0 0-53.033 21.967m0 106.066a75.005 75.005 0 0 0 81.734 16.258 74.995 74.995 0 0 0 24.332-16.258" stroke="#000" stroke-width="10" stroke-linecap="round" stroke-linejoin="round"/><path d="M131.355 59.645a50.003 50.003 0 0 0-54.49-10.839 50 50 0 0 0-16.22 10.839m0 72.71a50.003 50.003 0 0 0 54.489 10.839 50.007 50.007 0 0 0 16.221-10.839" stroke="#000" stroke-width="12" stroke-linecap="round" stroke-linejoin="round"/></svg>