<svg width="192" height="192" viewBox="0 0 192 192" fill="none" xmlns="http://www.w3.org/2000/svg"><path d="M117 89s-8.364-8-20-8c-10.91 0-18.182 6.5-18.182 16 0 14.499 18.182 13.999 18.182 13.999M77 133s8.364 8 20 8c10.909 0 18.182-6.5 18.182-15.999 0-14.5-18.182-14-18.182-14" stroke="#000" stroke-width="10" stroke-linecap="round" stroke-linejoin="round"/><path d="M22 60h142a6 6 0 0 1 6 6v90a6 6 0 0 1-6 6H28a6 6 0 0 1-6-6V60Zm0 0V43.513a6 6 0 0 1 5.493-5.978L140 28" stroke="#000" stroke-width="12" stroke-linecap="round" stroke-linejoin="round"/></svg>