<svg width="192" height="192" viewBox="0 0 192 192" fill="none" xmlns="http://www.w3.org/2000/svg"><path d="M23.014 58.406C22.78 54.94 25.507 52 28.953 52h134.094c3.446 0 6.172 2.94 5.939 6.406l-5.174 96.451c-.455 8.491-7.473 15.143-15.977 15.143H44.165c-8.504 0-15.522-6.652-15.977-15.143l-5.174-96.451ZM125 51a28.998 28.998 0 0 0-29-29 29 29 0 0 0-29 29" stroke="#000" stroke-width="12" stroke-linecap="round" stroke-linejoin="round"/><path d="M114 83H88a14 14 0 0 0 0 28h4m-2 0h14a13.994 13.994 0 0 1 9.899 4.101 13.994 13.994 0 0 1 0 19.798A13.994 13.994 0 0 1 104 139H78" stroke="#000" stroke-width="12" stroke-linecap="round"/></svg>