<svg xmlns="http://www.w3.org/2000/svg" width="192" height="192" fill="none" xmlns:v="https://vecta.io/nano"><path d="M29.004 157.064l5.987-.399-5.987.399zM22 52v-6a6 6 0 0 0-5.987 6.399L22 52zm140.996 105.064l-5.987-.399h0l5.987.399zM170 52l5.987.399a6 6 0 0 0-1.606-4.498C173.247 46.688 171.661 46 170 46v6zM34.991 156.665L27.987 51.601l-11.973.798 7.004 105.064 11.973-.798zm133.991.798l7.005-105.064-11.974-.798-7.004 105.064 11.973.798zm-11.973-.798a10 10 0 0 1-9.978 9.335v12c11.582 0 21.181-8.98 21.951-20.537l-11.973-.798zm-133.991.798C23.788 169.02 33.387 178 44.969 178v-12a10 10 0 0 1-9.978-9.335l-11.973.798zM74 48c0-12.15 9.85-22 22-22V14c-18.778 0-34 15.222-34 34h12zm22-22c12.15 0 22 9.85 22 22h12c0-18.778-15.222-34-34-34v12zM22 58h148V46H22v12zm22.969 120h102.062v-12H44.969v12z" fill="#000"/><path d="M114 84H88c-7.732 0-14 6.268-14 14h0c0 7.732 6.268 14 14 14h4m-2 0h14c7.732 0 14 6.268 14 14h0c0 7.732-6.268 14-14 14H78" stroke="#000" stroke-width="12" stroke-linecap="round"/></svg>