<svg xmlns="http://www.w3.org/2000/svg" width="192" height="192" fill="none"><path stroke="#000" stroke-linecap="round" stroke-linejoin="round" stroke-width="12" d="M53.574 36.645c5.571-4.643 12.185-8.326 19.465-10.839S88.121 22 96 22s15.681 1.293 22.961 3.806 13.894 6.196 19.465 10.839c5.572 4.643 9.991 10.154 13.007 16.22A44.3 44.3 0 0 1 154.246 60H112M53.574 36.645c-5.572 4.643-9.991 10.155-13.007 16.22l-.025.05c-1.142 2.3-2.085 4.196-2.788 7.085C25.464 110.474 112 104 112 132M53.574 36.645S112 32 112 60m-32 0c0-8.837 7.163-16 16-16s16 7.163 16 16m26.423 95.355c-5.572 4.643-12.186 8.326-19.466 10.839-7.279 2.513-15.081 3.806-22.96 3.806s-15.682-1.293-22.962-3.806-13.893-6.196-19.465-10.839-9.991-10.155-13.006-16.221A44.4 44.4 0 0 1 37.75 132h42.246m58.427 23.355c5.571-4.643 9.991-10.155 13.006-16.221l.025-.05c1.143-2.298 2.085-4.195 2.789-7.084 12.29-50.474-74.247-44-74.247-72m58.427 95.355S79.996 160 79.996 132m32 0c0 8.837-7.163 16-16 16s-16-7.163-16-16"/></svg>