<svg xmlns="http://www.w3.org/2000/svg" width="192" height="192" fill="none"><path stroke="#000" stroke-linecap="round" stroke-linejoin="round" stroke-width="12" d="M59.935 95.032C41.871 113.097 22 114 22 114s19.871.903 37.935 18.968C78 151.032 78 170 78 170s0-18.968 18.064-37.032C114.13 114.903 134 114 134 114s-19.871-.903-37.936-18.968C78 76.968 78 58 78 58s0 18.968-18.065 37.032m73.033-54.516C123.935 49.548 114 50 114 50s9.935.452 18.968 9.484S142 78 142 78s0-9.484 9.032-18.516S170 50 170 50s-9.935-.452-18.968-9.484S142 22 142 22s0 9.484-9.032 18.516"/></svg>