<svg width="192" height="192" viewBox="0 0 192 192" fill="none" xmlns="http://www.w3.org/2000/svg">
<mask id="path-1-outside-1_238_300" maskUnits="userSpaceOnUse" x="37" y="17" width="119" height="157" fill="black">
<rect fill="white" x="37" y="17" width="119" height="157"/>
<path fill-rule="evenodd" clip-rule="evenodd" d="M78.5501 23.2093C73.785 23.8891 71.8638 26.5621 72.1603 32.0968C72.3399 35.439 72.3244 35.4316 74.8834 33.4589C75.8988 32.6757 77.0982 31.812 77.5471 31.5395C77.9966 31.2671 78.6287 30.843 78.9526 30.5972C80.1767 29.6666 82.9697 27.9484 83.2582 27.9484C83.4236 27.9484 83.9821 27.6122 84.4984 27.2017C85.0148 26.7912 85.9826 26.2618 86.6482 26.0253C91.0176 24.4742 84.8123 22.3164 78.5501 23.2093ZM96.0106 28.0375C95.3976 28.3453 94.4336 28.8907 93.8676 29.2511C93.3023 29.6108 92.0764 30.3068 91.1433 30.7972C90.2108 31.2882 88.6673 32.2454 87.7138 32.924C86.7602 33.6032 85.5343 34.392 84.9894 34.6775C84.4446 34.9629 83.553 35.579 83.0081 36.0464C80.1346 38.5126 78.2597 40.2629 75.3973 43.152L72.2346 46.3438V47.548C72.2346 48.9207 72.7485 49.1442 74.0073 48.3177C74.3689 48.0799 75.6506 47.2285 76.8555 46.4249C78.0597 45.6218 80.3271 44.2987 81.8936 43.4845C83.4601 42.6709 84.8532 41.9229 84.9894 41.822C85.1256 41.7217 85.7943 41.4375 86.4754 41.1905C87.1565 40.9434 88.1596 40.4914 88.7044 40.1855C89.2493 39.8797 90.1966 39.5014 90.8096 39.3447C91.4225 39.1887 92.4058 38.7212 92.9946 38.3058C93.5828 37.8909 94.6973 37.3888 95.4713 37.19C96.2446 36.9913 97.2972 36.5418 97.8105 36.1907C98.4179 35.7752 99.1962 35.5127 100.039 35.439C100.969 35.3573 101.587 35.1282 102.228 34.6261C102.72 34.2416 103.774 33.7561 104.571 33.5481C109.044 32.3797 108.27 30.2603 102.672 28.3477C99.5014 27.2642 97.7188 27.1812 96.0106 28.0375ZM113.471 34.8756C112.926 34.974 111.828 35.4056 111.031 35.8353C110.234 36.265 109.438 36.6167 109.263 36.6167C109.088 36.6167 108.392 36.9969 107.717 37.4612C107.042 37.9256 106.08 38.4191 105.58 38.5571C105.081 38.6946 104.33 39.0958 103.911 39.4475C103.493 39.7998 102.649 40.214 102.036 40.3682C101.277 40.5595 100.839 40.8307 100.662 41.2196C100.415 41.7601 98.8971 42.5607 98.1188 42.5607C97.9219 42.5607 97.3709 42.9507 96.8941 43.4275C96.4173 43.9042 95.9053 44.2943 95.7567 44.2943C95.6081 44.2943 95.075 44.6237 94.5722 45.0262C94.0689 45.4286 93.1537 45.9797 92.5377 46.2509C91.9216 46.5227 91.1699 47.0292 90.8672 47.3772C90.565 47.7245 90.1687 48.0093 89.9873 48.0093C89.8059 48.0093 89.3942 48.2898 89.0722 48.6322C88.7502 48.9752 87.9788 49.5517 87.3571 49.9132C86.7361 50.2748 85.4346 51.2482 84.4656 52.0766C82.3679 53.8679 81.0249 54.9254 80.1692 55.4597C79.3563 55.9674 73.7813 61.4922 72.9423 62.6216C71.1536 65.0295 72.634 67.3842 74.5485 65.1757C74.8426 64.837 75.4233 64.4166 75.84 64.2426C76.2567 64.068 76.9254 63.6215 77.326 63.2507C78.6461 62.0297 80.7642 60.6316 81.662 60.3889C82.1475 60.2576 82.7945 59.8849 83.0997 59.5598C83.405 59.2354 84.122 58.7679 84.6935 58.5215C85.265 58.2751 86.0148 57.8169 86.3596 57.5042C86.7045 57.1915 87.645 56.7092 88.4487 56.4324C89.2524 56.1563 90.105 55.721 90.3433 55.4653C90.5811 55.2096 91.3916 54.8071 92.1445 54.57C92.8968 54.3335 93.7042 53.9279 93.9382 53.6691C94.1723 53.4103 94.9852 53.019 95.7443 52.7986C96.504 52.5788 97.6823 52.0909 98.3634 51.715C99.0445 51.3392 99.8803 50.9553 100.221 50.863C100.561 50.7708 101.62 50.3262 102.574 49.8755C103.527 49.4247 105.366 48.717 106.66 48.3034C107.954 47.8892 110.462 47.0453 112.233 46.4273C114.003 45.81 116.567 44.9754 117.929 44.5723C123.309 42.9798 124.74 42.0907 124.74 40.3391C124.74 39.2283 122.583 37.1634 120.842 36.6068C120.329 36.4433 119.632 36.0545 119.291 35.743C118.201 34.7468 116.005 34.4193 113.471 34.8756ZM129.569 45.9394C127.065 46.4125 126.259 46.6614 125.698 47.1332C125.339 47.4347 124.503 47.8273 123.84 48.0062C123.177 48.1845 122.412 48.5238 122.139 48.7604C121.447 49.3603 120.146 49.9906 119.599 49.9906C119.347 49.9906 118.633 50.3126 118.013 50.7058C117.393 51.0989 116.619 51.5014 116.293 51.5999C115.967 51.6983 114.92 52.2023 113.966 52.7193C113.013 53.2363 111.007 54.2982 109.508 55.0783C108.01 55.8585 106.171 56.8337 105.422 57.2454C103.576 58.2602 101.753 59.1803 100.443 59.7598C99.8444 60.0248 99.1311 60.4304 98.8587 60.6613C98.5863 60.8923 97.7504 61.4105 97.0012 61.8136C94.5041 63.1553 93.9611 63.4841 93.1878 64.1218C92.7649 64.4704 91.7798 65.0729 90.9984 65.4611C90.217 65.8493 89.3917 66.3719 89.1645 66.6233C88.9372 66.874 88.5967 67.0796 88.4072 67.0796C88.2178 67.0796 87.65 67.4721 87.1454 67.952C86.1213 68.9253 82.823 71.7147 81.1946 72.9839C79.1228 74.5993 74.5546 79.061 73.1634 80.8281C72.3263 81.8913 72.2346 82.1532 72.2346 83.4819V84.9555L72.9968 84.3147C73.416 83.9617 73.9107 83.6732 74.0958 83.6732C74.2816 83.6732 74.9515 83.2249 75.5849 82.677C76.2177 82.129 77.1075 81.5253 77.5613 81.3359C78.0152 81.1458 78.5037 80.7712 78.6473 80.5031C78.791 80.235 79.2182 79.9378 79.5959 79.8437C79.9742 79.7496 80.8516 79.235 81.545 78.7007C82.2385 78.1664 82.9196 77.7292 83.0583 77.7292C83.1969 77.7292 83.7121 77.4568 84.2031 77.1237C85.4786 76.2581 92.929 72.4385 94.4007 71.8961C95.0818 71.6447 95.9177 71.2404 96.2582 70.9971C96.5988 70.7543 97.4904 70.3463 98.2396 70.0906C98.9887 69.8349 100.025 69.3377 100.543 68.9866C101.06 68.6356 102.083 68.2232 102.816 68.0715C103.548 67.9192 104.59 67.4746 105.13 67.0833C105.894 66.5298 108.067 65.8413 109.048 65.8413C109.086 65.8413 109.389 65.5478 109.722 65.1887C110.178 64.6964 110.77 64.4519 112.122 64.1961C113.271 63.9788 114.321 63.5894 115.037 63.1151C115.673 62.694 116.486 62.3739 116.92 62.3739C118.052 62.3739 119.254 61.9721 120.312 61.239C121.009 60.7554 121.738 60.5332 123.144 60.3759C124.443 60.2298 125.378 59.9629 126.129 59.5233C126.766 59.1499 128.06 58.7351 129.23 58.5295C130.375 58.3283 131.694 57.9085 132.302 57.5525C132.887 57.2095 133.952 56.8033 134.667 56.6498C136.467 56.264 138.361 54.5341 138.361 53.2759C138.361 50.1225 132.65 45.3568 129.569 45.9394ZM137.866 61.179C135.755 62.0074 133.359 62.9021 132.541 63.1665C131.724 63.4315 130.377 63.9732 129.548 64.3708C128.719 64.7689 127.66 65.1651 127.195 65.2512C126.73 65.3373 125.825 65.7372 125.183 66.1397C124.54 66.5428 123.447 67.022 122.754 67.2047C122.06 67.3879 121.098 67.8374 120.617 68.2046C120.136 68.5712 119.117 69.0349 118.351 69.2349C117.586 69.4349 116.662 69.8497 116.297 70.1562C115.932 70.4633 115.137 70.8534 114.529 71.0231C113.922 71.1933 113.057 71.6466 112.607 72.0304C112.157 72.4143 111.499 72.7889 111.144 72.8632C110.789 72.9369 109.89 73.3932 109.145 73.8774C108.401 74.3616 107.62 74.7572 107.411 74.7572C107.201 74.7572 106.484 75.1455 105.817 75.6197C105.149 76.0946 104.241 76.5503 103.798 76.6333C103.356 76.7169 102.688 77.1039 102.314 77.4946C101.85 77.9787 101.207 78.2933 100.293 78.4827C99.2587 78.6976 98.8903 78.8995 98.6773 79.3669C98.5207 79.7099 97.9263 80.183 97.3096 80.456C96.709 80.7217 95.8954 81.2102 95.501 81.542C95.1066 81.8739 94.4484 82.2188 94.0385 82.3092C93.6286 82.399 93.0732 82.7816 92.8039 83.1593C92.5271 83.5481 91.8002 84.0348 91.1291 84.2812C90.4765 84.5208 89.7198 84.9697 89.4474 85.2799C89.175 85.5895 88.562 86.0403 88.0853 86.2811C87.6085 86.522 87.0816 86.9127 86.9144 87.1498C86.7472 87.3864 86.1367 87.8272 85.5578 88.1287C84.9789 88.4303 84.356 88.8903 84.1734 89.1503C83.9913 89.411 83.4075 89.8457 82.8762 90.1169C82.345 90.3874 81.7859 90.8413 81.6342 91.1249C81.4825 91.4084 80.9649 91.8047 80.4844 92.0053C80.0039 92.2065 79.555 92.583 79.4869 92.8424C79.4194 93.1025 78.9742 93.5445 78.4987 93.825C78.0232 94.1055 77.5749 94.56 77.5031 94.8343C77.4313 95.1086 77.0474 95.5011 76.6505 95.7067C76.253 95.9122 75.7998 96.3618 75.6431 96.706C75.4859 97.0503 75.0401 97.4961 74.6525 97.6967C74.2643 97.8973 73.8228 98.3332 73.6717 98.6657C73.5206 98.9976 73.1349 99.4403 72.8154 99.6501C72.3232 99.9727 72.2346 100.237 72.2346 101.387C72.2346 103.129 73.1002 103.303 74.6785 101.877C75.2066 101.4 75.7552 101.01 75.8988 101.01C76.0419 101.01 76.6833 100.61 77.3236 100.121C77.9638 99.6322 78.9216 99.0793 79.451 98.8923C79.981 98.7059 80.6639 98.2799 80.9686 97.9462C81.2732 97.6131 82.0986 97.1568 82.8025 96.9326C83.574 96.6874 84.2384 96.2881 84.4737 95.929C84.7616 95.49 85.2606 95.2516 86.3726 95.0219C87.5825 94.7717 87.9466 94.5823 88.2147 94.064C88.4735 93.5638 88.8604 93.3483 89.9273 93.1099C91.2263 92.8189 91.895 92.4288 92.0882 91.8499C92.1346 91.7106 92.8411 91.4152 93.6584 91.1936C94.5444 90.9527 95.3474 90.5534 95.6483 90.2042C95.9548 89.8475 96.7313 89.4667 97.6297 89.2333C98.5733 88.9875 99.2853 88.6302 99.6017 88.2426C99.9726 87.7894 100.534 87.556 101.831 87.3145C103.115 87.0761 103.74 86.8186 104.235 86.3232C104.603 85.9554 105.071 85.6545 105.275 85.6545C106.361 85.6545 108.23 85.0385 108.999 84.4274C109.664 83.8986 110.258 83.6905 111.472 83.5605C112.631 83.4361 113.372 83.189 114.174 82.6572C114.927 82.1594 115.902 81.8151 117.224 81.5811C118.292 81.3916 119.669 80.9619 120.282 80.6263C121.016 80.2245 122.125 79.926 123.533 79.7527C124.708 79.6072 126.324 79.2481 127.124 78.9539C128.732 78.3626 129.715 78.1354 132.294 77.7571C133.247 77.6172 134.919 77.211 136.009 76.8537C137.285 76.4352 138.959 76.1262 140.714 75.9857C146.89 75.4897 150.01 73.3555 149.998 69.6343C149.992 67.7706 149.407 65.7081 148.613 64.754C148.219 64.281 147.506 63.3776 147.03 62.7467C144.255 59.0756 143.538 58.9524 137.866 61.179ZM118.77 88.7504C118.308 89.0903 117.608 89.5639 117.214 89.8029C116.822 90.0413 116.148 90.5794 115.717 90.9992C115.263 91.4413 114.446 91.8852 113.773 92.0542C113.023 92.2431 112.47 92.5626 112.212 92.9576C111.939 93.3749 111.342 93.7 110.328 93.9848C109.265 94.2826 108.77 94.5606 108.587 94.9618C108.393 95.3878 107.929 95.6219 106.66 95.9327C105.413 96.2385 104.926 96.4806 104.741 96.8862C104.569 97.2626 104.029 97.5691 102.99 97.8806C102.077 98.1542 101.348 98.5406 101.135 98.8657C100.898 99.2273 100.225 99.5436 99.0513 99.8446C97.7362 100.182 97.2563 100.425 97.0619 100.852C96.8718 101.269 96.4446 101.495 95.4094 101.727C94.5308 101.924 93.8026 102.267 93.4454 102.652C93.0485 103.08 92.3618 103.372 91.1625 103.622C89.8827 103.889 89.3353 104.133 89.0053 104.583C88.6629 105.051 88.245 105.225 87.1478 105.358C85.5937 105.546 85.0829 105.753 84.0557 106.607C83.5852 106.998 82.888 107.232 81.8379 107.351C80.8534 107.463 79.7723 107.808 78.8089 108.318C77.908 108.796 76.7292 109.184 75.8487 109.294C74.9404 109.407 73.7813 109.796 72.7937 110.32C71.6062 110.95 70.8941 111.164 69.9852 111.164C69.2998 111.164 67.7661 111.492 66.4764 111.913C65.2164 112.326 63.2388 112.776 62.0822 112.914C60.925 113.051 58.9746 113.51 57.748 113.932C56.0942 114.501 54.8126 114.75 52.7929 114.896C48.3126 115.221 44.3047 116.854 43.4949 118.685C42.5977 120.712 42.9729 124.559 44.197 125.882C44.5846 126.3 45.1084 126.978 45.3604 127.386C47.6365 131.076 49.3107 131.85 52.4214 130.655C53.3068 130.314 55.1457 129.677 56.5079 129.238C57.87 128.799 59.096 128.353 59.2322 128.249C59.3684 128.143 60.2061 127.835 61.0934 127.562C61.9806 127.29 63.0951 126.841 63.57 126.566C64.0449 126.291 65.0121 125.897 65.7198 125.691C66.4275 125.485 67.3327 125.074 67.7315 124.78C68.1302 124.485 69.2695 124.026 70.2626 123.76C71.2557 123.493 72.3733 123.019 72.7467 122.705C73.1194 122.391 74.0203 121.941 74.7491 121.705C75.4772 121.469 76.2964 121.076 76.5688 120.832C76.8412 120.589 77.6771 120.195 78.4263 119.957C79.1755 119.719 80.0671 119.273 80.4076 118.966C80.7481 118.659 81.6032 118.22 82.3078 117.992C83.0124 117.763 83.7369 117.397 83.9177 117.178C84.0984 116.959 84.748 116.558 85.3609 116.288C85.9739 116.017 86.829 115.527 87.2611 115.199C87.6927 114.87 88.4728 114.485 88.9948 114.34C89.5161 114.196 90.3025 113.763 90.7421 113.376C91.1823 112.991 91.9625 112.599 92.4758 112.506C93.7122 112.283 94.2125 112.006 94.3908 111.444C94.4769 111.172 95.0855 110.77 95.8613 110.474C96.5895 110.195 97.473 109.679 97.8247 109.327C98.177 108.975 98.6835 108.687 98.9504 108.687C99.2172 108.687 99.7516 108.345 100.138 107.927C100.524 107.509 101.348 106.904 101.97 106.584C102.592 106.264 103.254 105.817 103.441 105.592C103.628 105.366 104.317 104.91 104.973 104.577C105.629 104.246 106.165 103.885 106.165 103.776C106.165 103.667 106.639 103.316 107.217 102.996C107.796 102.676 108.676 102.054 109.172 101.614C109.667 101.173 110.29 100.744 110.556 100.659C110.822 100.575 111.186 100.232 111.366 99.8953C111.545 99.5591 111.926 99.2149 112.21 99.1301C112.495 99.0452 113.139 98.5697 113.642 98.0737C114.145 97.5772 114.758 96.9735 115.004 96.732C115.25 96.4905 115.701 96.0447 116.004 95.7413C116.307 95.438 116.753 94.9928 116.995 94.7513C117.236 94.5105 117.911 93.786 118.494 93.1415C119.078 92.4975 119.83 91.6871 120.166 91.3416C120.909 90.5775 121.055 88.5386 120.385 88.2816C119.787 88.0519 119.676 88.0841 118.77 88.7504ZM119.912 106.456C119.667 106.727 118.981 107.234 118.388 107.581C117.795 107.929 117.31 108.296 117.31 108.398C117.31 108.5 116.706 108.949 115.967 109.396C115.229 109.844 114.566 110.364 114.494 110.551C114.422 110.738 113.927 111.008 113.393 111.152C112.86 111.295 111.99 111.758 111.461 112.18C110.932 112.602 110.053 113.172 109.508 113.446C108.963 113.721 108.351 114.088 108.146 114.262C107.942 114.435 107.162 114.833 106.413 115.145C105.663 115.458 104.735 115.972 104.35 116.287C103.965 116.602 103.512 116.86 103.344 116.86C103.176 116.86 102.32 117.288 101.444 117.811C100.567 118.333 99.2921 118.907 98.6111 119.086C97.93 119.265 97.1498 119.606 96.8774 119.845C96.2898 120.361 94.6422 121.071 94.033 121.071C93.7958 121.071 93.189 121.399 92.685 121.8C92.1278 122.242 91.2151 122.642 90.3601 122.818C88.78 123.143 88.1967 123.396 87.4419 124.081C87.1435 124.353 86.2482 124.662 85.3368 124.808C84.1022 125.006 83.6093 125.217 83.1103 125.762C82.6756 126.237 82.1171 126.517 81.3766 126.632C79.6931 126.893 78.6133 127.282 77.8864 127.887C77.427 128.27 76.7316 128.492 75.6233 128.61C74.4079 128.741 73.7064 128.986 72.704 129.632C71.9554 130.114 71.0595 130.485 70.6329 130.488C69.4131 130.498 67.7537 130.96 66.9928 131.502C66.568 131.804 65.435 132.144 64.1669 132.349C62.7546 132.578 61.6222 132.936 60.7646 133.424C60.0581 133.827 59.034 134.236 58.4892 134.333C55.5351 134.86 53.9804 137.061 55.025 139.237C55.5197 140.266 59.0272 143.934 59.9838 144.421C61.8073 145.351 65.6653 145.089 67.225 143.929C67.6708 143.598 68.5624 143.152 69.2063 142.939C69.8502 142.725 70.7115 142.304 71.1201 142.003C71.5288 141.701 72.3089 141.313 72.8538 141.14C73.3987 140.967 74.4017 140.521 75.0828 140.149C75.7639 139.778 76.7112 139.327 77.188 139.148C77.6647 138.969 78.2839 138.619 78.5637 138.37C78.8436 138.121 79.7352 137.645 80.5451 137.312C81.3549 136.98 82.9648 136.185 84.1226 135.546C86.5875 134.185 86.7714 134.091 89.6951 132.686C90.921 132.097 92.537 131.227 93.2862 130.753C94.0354 130.279 95.2094 129.606 95.8954 129.258C96.5808 128.909 97.4167 128.425 97.7529 128.182C99.3417 127.031 100.195 126.494 101.369 125.908C102.068 125.558 103.059 124.939 103.57 124.534C104.081 124.128 104.611 123.795 104.747 123.795C104.883 123.795 105.473 123.377 106.057 122.866C106.641 122.356 107.489 121.637 107.942 121.271C108.395 120.904 109.336 120.123 110.033 119.537C110.731 118.95 111.989 117.913 112.83 117.232C113.67 116.551 115.406 114.935 116.686 113.641C117.967 112.347 119.381 110.925 119.829 110.479C120.581 109.734 120.651 109.528 120.738 107.817C120.836 105.875 120.676 105.612 119.912 106.456ZM118.441 125.9C117.964 126.377 117.407 126.767 117.203 126.767C116.998 126.767 116.452 127.129 115.988 127.572C115.048 128.47 112.868 129.901 111.099 130.783C110.748 130.958 109.95 131.436 109.326 131.844C108.208 132.577 107.067 133.288 106.06 133.881C105.777 134.047 105.044 134.413 104.431 134.694C103.818 134.974 102.927 135.415 102.45 135.672C101.973 135.929 101.082 136.337 100.469 136.577C99.8556 136.817 99.1311 137.202 98.8587 137.435C98.5863 137.666 97.7399 138.034 96.9783 138.251C96.2167 138.469 95.3196 138.861 94.9852 139.124C94.6509 139.388 93.7141 139.791 92.903 140.021C92.0919 140.251 90.9699 140.703 90.4084 141.025C89.8474 141.347 88.9558 141.714 88.427 141.842C87.8989 141.969 85.9058 142.65 83.9988 143.355C79.7457 144.926 77.391 145.7 74.9268 146.336C72.4092 146.985 68.8843 148.623 68.5147 149.315C68.0249 150.229 68.1488 151.597 68.7599 152.025C69.0558 152.231 69.6676 152.708 70.1202 153.083C70.5722 153.459 71.4842 154.005 72.1461 154.296C72.8074 154.587 73.5857 155.078 73.8742 155.387C74.9689 156.556 79.3309 156.49 81.5221 155.271C82.2032 154.892 83.088 154.501 83.4886 154.404C83.8892 154.305 84.6155 153.909 85.1021 153.524C85.5894 153.138 86.4445 152.7 87.003 152.549C87.5614 152.399 88.4215 151.955 88.9143 151.563C89.4072 151.172 90.2895 150.731 90.8752 150.583C91.5637 150.41 92.1265 150.063 92.4683 149.601C92.8219 149.123 93.3946 148.778 94.1946 148.563C94.8527 148.386 95.67 147.97 96.0106 147.638C96.7635 146.905 97.8526 146.16 99.9596 144.935C100.838 144.424 101.729 143.854 101.941 143.668C102.153 143.481 102.681 143.085 103.115 142.787C105.744 140.986 107.211 139.901 108.594 138.734C109.453 138.009 110.263 137.417 110.394 137.417C110.636 137.417 114.33 134.244 115.71 132.852C116.124 132.434 117.117 131.479 117.918 130.73C120.154 128.636 120.777 127.657 120.777 126.235C120.777 124.653 119.824 124.516 118.441 125.9ZM118.801 142.985C118.343 143.324 117.029 144.132 115.883 144.781C114.737 145.43 113.28 146.302 112.644 146.717C112.009 147.133 110.877 147.731 110.128 148.045C109.378 148.359 108.58 148.78 108.353 148.98C108.126 149.18 107.28 149.549 106.473 149.801C105.665 150.052 104.586 150.542 104.074 150.889C103.562 151.236 102.737 151.594 102.239 151.684C101.742 151.773 100.722 152.212 99.9732 152.659C99.224 153.106 97.9424 153.659 97.1251 153.887C96.3078 154.114 95.4019 154.521 95.1122 154.789C94.7877 155.09 93.9927 155.361 93.0423 155.496C92.0522 155.636 91.1619 155.948 90.5594 156.365C90.0431 156.723 88.884 157.237 87.9843 157.507C83.7511 158.777 84.5152 160.635 90.0536 162.539C94.2478 163.981 94.6862 163.973 97.7318 162.397C99.1442 161.666 100.989 160.717 101.832 160.287C102.675 159.858 103.676 159.217 104.058 158.863C104.439 158.51 104.838 158.221 104.944 158.221C105.05 158.221 105.457 157.951 105.85 157.62C106.242 157.29 107.09 156.74 107.734 156.397C109.58 155.416 110.29 154.824 115.292 150.102C119.485 146.143 120.777 144.552 120.777 143.346C120.777 142.143 120.108 142.021 118.801 142.985ZM117.824 157.663C116.596 158.583 115.281 159.529 114.903 159.766C114.524 160.003 113.434 160.697 112.48 161.309C111.527 161.92 110.301 162.632 109.756 162.891C109.211 163.15 108.494 163.655 108.162 164.014C107.83 164.372 107.106 164.787 106.552 164.935C103.999 165.617 104.256 167.101 107.015 167.609C112.734 168.662 117.673 167.551 119.803 164.732L120.777 163.443V159.717C120.777 155.262 120.91 155.355 117.824 157.663Z"/>
</mask>
<path fill-rule="evenodd" clip-rule="evenodd" d="M78.5501 23.2093C73.785 23.8891 71.8638 26.5621 72.1603 32.0968C72.3399 35.439 72.3244 35.4316 74.8834 33.4589C75.8988 32.6757 77.0982 31.812 77.5471 31.5395C77.9966 31.2671 78.6287 30.843 78.9526 30.5972C80.1767 29.6666 82.9697 27.9484 83.2582 27.9484C83.4236 27.9484 83.9821 27.6122 84.4984 27.2017C85.0148 26.7912 85.9826 26.2618 86.6482 26.0253C91.0176 24.4742 84.8123 22.3164 78.5501 23.2093ZM96.0106 28.0375C95.3976 28.3453 94.4336 28.8907 93.8676 29.2511C93.3023 29.6108 92.0764 30.3068 91.1433 30.7972C90.2108 31.2882 88.6673 32.2454 87.7138 32.924C86.7602 33.6032 85.5343 34.392 84.9894 34.6775C84.4446 34.9629 83.553 35.579 83.0081 36.0464C80.1346 38.5126 78.2597 40.2629 75.3973 43.152L72.2346 46.3438V47.548C72.2346 48.9207 72.7485 49.1442 74.0073 48.3177C74.3689 48.0799 75.6506 47.2285 76.8555 46.4249C78.0597 45.6218 80.3271 44.2987 81.8936 43.4845C83.4601 42.6709 84.8532 41.9229 84.9894 41.822C85.1256 41.7217 85.7943 41.4375 86.4754 41.1905C87.1565 40.9434 88.1596 40.4914 88.7044 40.1855C89.2493 39.8797 90.1966 39.5014 90.8096 39.3447C91.4225 39.1887 92.4058 38.7212 92.9946 38.3058C93.5828 37.8909 94.6973 37.3888 95.4713 37.19C96.2446 36.9913 97.2972 36.5418 97.8105 36.1907C98.4179 35.7752 99.1962 35.5127 100.039 35.439C100.969 35.3573 101.587 35.1282 102.228 34.6261C102.72 34.2416 103.774 33.7561 104.571 33.5481C109.044 32.3797 108.27 30.2603 102.672 28.3477C99.5014 27.2642 97.7188 27.1812 96.0106 28.0375ZM113.471 34.8756C112.926 34.974 111.828 35.4056 111.031 35.8353C110.234 36.265 109.438 36.6167 109.263 36.6167C109.088 36.6167 108.392 36.9969 107.717 37.4612C107.042 37.9256 106.08 38.4191 105.58 38.5571C105.081 38.6946 104.33 39.0958 103.911 39.4475C103.493 39.7998 102.649 40.214 102.036 40.3682C101.277 40.5595 100.839 40.8307 100.662 41.2196C100.415 41.7601 98.8971 42.5607 98.1188 42.5607C97.9219 42.5607 97.3709 42.9507 96.8941 43.4275C96.4173 43.9042 95.9053 44.2943 95.7567 44.2943C95.6081 44.2943 95.075 44.6237 94.5722 45.0262C94.0689 45.4286 93.1537 45.9797 92.5377 46.2509C91.9216 46.5227 91.1699 47.0292 90.8672 47.3772C90.565 47.7245 90.1687 48.0093 89.9873 48.0093C89.8059 48.0093 89.3942 48.2898 89.0722 48.6322C88.7502 48.9752 87.9788 49.5517 87.3571 49.9132C86.7361 50.2748 85.4346 51.2482 84.4656 52.0766C82.3679 53.8679 81.0249 54.9254 80.1692 55.4597C79.3563 55.9674 73.7813 61.4922 72.9423 62.6216C71.1536 65.0295 72.634 67.3842 74.5485 65.1757C74.8426 64.837 75.4233 64.4166 75.84 64.2426C76.2567 64.068 76.9254 63.6215 77.326 63.2507C78.6461 62.0297 80.7642 60.6316 81.662 60.3889C82.1475 60.2576 82.7945 59.8849 83.0997 59.5598C83.405 59.2354 84.122 58.7679 84.6935 58.5215C85.265 58.2751 86.0148 57.8169 86.3596 57.5042C86.7045 57.1915 87.645 56.7092 88.4487 56.4324C89.2524 56.1563 90.105 55.721 90.3433 55.4653C90.5811 55.2096 91.3916 54.8071 92.1445 54.57C92.8968 54.3335 93.7042 53.9279 93.9382 53.6691C94.1723 53.4103 94.9852 53.019 95.7443 52.7986C96.504 52.5788 97.6823 52.0909 98.3634 51.715C99.0445 51.3392 99.8803 50.9553 100.221 50.863C100.561 50.7708 101.62 50.3262 102.574 49.8755C103.527 49.4247 105.366 48.717 106.66 48.3034C107.954 47.8892 110.462 47.0453 112.233 46.4273C114.003 45.81 116.567 44.9754 117.929 44.5723C123.309 42.9798 124.74 42.0907 124.74 40.3391C124.74 39.2283 122.583 37.1634 120.842 36.6068C120.329 36.4433 119.632 36.0545 119.291 35.743C118.201 34.7468 116.005 34.4193 113.471 34.8756ZM129.569 45.9394C127.065 46.4125 126.259 46.6614 125.698 47.1332C125.339 47.4347 124.503 47.8273 123.84 48.0062C123.177 48.1845 122.412 48.5238 122.139 48.7604C121.447 49.3603 120.146 49.9906 119.599 49.9906C119.347 49.9906 118.633 50.3126 118.013 50.7058C117.393 51.0989 116.619 51.5014 116.293 51.5999C115.967 51.6983 114.92 52.2023 113.966 52.7193C113.013 53.2363 111.007 54.2982 109.508 55.0783C108.01 55.8585 106.171 56.8337 105.422 57.2454C103.576 58.2602 101.753 59.1803 100.443 59.7598C99.8444 60.0248 99.1311 60.4304 98.8587 60.6613C98.5863 60.8923 97.7504 61.4105 97.0012 61.8136C94.5041 63.1553 93.9611 63.4841 93.1878 64.1218C92.7649 64.4704 91.7798 65.0729 90.9984 65.4611C90.217 65.8493 89.3917 66.3719 89.1645 66.6233C88.9372 66.874 88.5967 67.0796 88.4072 67.0796C88.2178 67.0796 87.65 67.4721 87.1454 67.952C86.1213 68.9253 82.823 71.7147 81.1946 72.9839C79.1228 74.5993 74.5546 79.061 73.1634 80.8281C72.3263 81.8913 72.2346 82.1532 72.2346 83.4819V84.9555L72.9968 84.3147C73.416 83.9617 73.9107 83.6732 74.0958 83.6732C74.2816 83.6732 74.9515 83.2249 75.5849 82.677C76.2177 82.129 77.1075 81.5253 77.5613 81.3359C78.0152 81.1458 78.5037 80.7712 78.6473 80.5031C78.791 80.235 79.2182 79.9378 79.5959 79.8437C79.9742 79.7496 80.8516 79.235 81.545 78.7007C82.2385 78.1664 82.9196 77.7292 83.0583 77.7292C83.1969 77.7292 83.7121 77.4568 84.2031 77.1237C85.4786 76.2581 92.929 72.4385 94.4007 71.8961C95.0818 71.6447 95.9177 71.2404 96.2582 70.9971C96.5988 70.7543 97.4904 70.3463 98.2396 70.0906C98.9887 69.8349 100.025 69.3377 100.543 68.9866C101.06 68.6356 102.083 68.2232 102.816 68.0715C103.548 67.9192 104.59 67.4746 105.13 67.0833C105.894 66.5298 108.067 65.8413 109.048 65.8413C109.086 65.8413 109.389 65.5478 109.722 65.1887C110.178 64.6964 110.77 64.4519 112.122 64.1961C113.271 63.9788 114.321 63.5894 115.037 63.1151C115.673 62.694 116.486 62.3739 116.92 62.3739C118.052 62.3739 119.254 61.9721 120.312 61.239C121.009 60.7554 121.738 60.5332 123.144 60.3759C124.443 60.2298 125.378 59.9629 126.129 59.5233C126.766 59.1499 128.06 58.7351 129.23 58.5295C130.375 58.3283 131.694 57.9085 132.302 57.5525C132.887 57.2095 133.952 56.8033 134.667 56.6498C136.467 56.264 138.361 54.5341 138.361 53.2759C138.361 50.1225 132.65 45.3568 129.569 45.9394ZM137.866 61.179C135.755 62.0074 133.359 62.9021 132.541 63.1665C131.724 63.4315 130.377 63.9732 129.548 64.3708C128.719 64.7689 127.66 65.1651 127.195 65.2512C126.73 65.3373 125.825 65.7372 125.183 66.1397C124.54 66.5428 123.447 67.022 122.754 67.2047C122.06 67.3879 121.098 67.8374 120.617 68.2046C120.136 68.5712 119.117 69.0349 118.351 69.2349C117.586 69.4349 116.662 69.8497 116.297 70.1562C115.932 70.4633 115.137 70.8534 114.529 71.0231C113.922 71.1933 113.057 71.6466 112.607 72.0304C112.157 72.4143 111.499 72.7889 111.144 72.8632C110.789 72.9369 109.89 73.3932 109.145 73.8774C108.401 74.3616 107.62 74.7572 107.411 74.7572C107.201 74.7572 106.484 75.1455 105.817 75.6197C105.149 76.0946 104.241 76.5503 103.798 76.6333C103.356 76.7169 102.688 77.1039 102.314 77.4946C101.85 77.9787 101.207 78.2933 100.293 78.4827C99.2587 78.6976 98.8903 78.8995 98.6773 79.3669C98.5207 79.7099 97.9263 80.183 97.3096 80.456C96.709 80.7217 95.8954 81.2102 95.501 81.542C95.1066 81.8739 94.4484 82.2188 94.0385 82.3092C93.6286 82.399 93.0732 82.7816 92.8039 83.1593C92.5271 83.5481 91.8002 84.0348 91.1291 84.2812C90.4765 84.5208 89.7198 84.9697 89.4474 85.2799C89.175 85.5895 88.562 86.0403 88.0853 86.2811C87.6085 86.522 87.0816 86.9127 86.9144 87.1498C86.7472 87.3864 86.1367 87.8272 85.5578 88.1287C84.9789 88.4303 84.356 88.8903 84.1734 89.1503C83.9913 89.411 83.4075 89.8457 82.8762 90.1169C82.345 90.3874 81.7859 90.8413 81.6342 91.1249C81.4825 91.4084 80.9649 91.8047 80.4844 92.0053C80.0039 92.2065 79.555 92.583 79.4869 92.8424C79.4194 93.1025 78.9742 93.5445 78.4987 93.825C78.0232 94.1055 77.5749 94.56 77.5031 94.8343C77.4313 95.1086 77.0474 95.5011 76.6505 95.7067C76.253 95.9122 75.7998 96.3618 75.6431 96.706C75.4859 97.0503 75.0401 97.4961 74.6525 97.6967C74.2643 97.8973 73.8228 98.3332 73.6717 98.6657C73.5206 98.9976 73.1349 99.4403 72.8154 99.6501C72.3232 99.9727 72.2346 100.237 72.2346 101.387C72.2346 103.129 73.1002 103.303 74.6785 101.877C75.2066 101.4 75.7552 101.01 75.8988 101.01C76.0419 101.01 76.6833 100.61 77.3236 100.121C77.9638 99.6322 78.9216 99.0793 79.451 98.8923C79.981 98.7059 80.6639 98.2799 80.9686 97.9462C81.2732 97.6131 82.0986 97.1568 82.8025 96.9326C83.574 96.6874 84.2384 96.2881 84.4737 95.929C84.7616 95.49 85.2606 95.2516 86.3726 95.0219C87.5825 94.7717 87.9466 94.5823 88.2147 94.064C88.4735 93.5638 88.8604 93.3483 89.9273 93.1099C91.2263 92.8189 91.895 92.4288 92.0882 91.8499C92.1346 91.7106 92.8411 91.4152 93.6584 91.1936C94.5444 90.9527 95.3474 90.5534 95.6483 90.2042C95.9548 89.8475 96.7313 89.4667 97.6297 89.2333C98.5733 88.9875 99.2853 88.6302 99.6017 88.2426C99.9726 87.7894 100.534 87.556 101.831 87.3145C103.115 87.0761 103.74 86.8186 104.235 86.3232C104.603 85.9554 105.071 85.6545 105.275 85.6545C106.361 85.6545 108.23 85.0385 108.999 84.4274C109.664 83.8986 110.258 83.6905 111.472 83.5605C112.631 83.4361 113.372 83.189 114.174 82.6572C114.927 82.1594 115.902 81.8151 117.224 81.5811C118.292 81.3916 119.669 80.9619 120.282 80.6263C121.016 80.2245 122.125 79.926 123.533 79.7527C124.708 79.6072 126.324 79.2481 127.124 78.9539C128.732 78.3626 129.715 78.1354 132.294 77.7571C133.247 77.6172 134.919 77.211 136.009 76.8537C137.285 76.4352 138.959 76.1262 140.714 75.9857C146.89 75.4897 150.01 73.3555 149.998 69.6343C149.992 67.7706 149.407 65.7081 148.613 64.754C148.219 64.281 147.506 63.3776 147.03 62.7467C144.255 59.0756 143.538 58.9524 137.866 61.179ZM118.77 88.7504C118.308 89.0903 117.608 89.5639 117.214 89.8029C116.822 90.0413 116.148 90.5794 115.717 90.9992C115.263 91.4413 114.446 91.8852 113.773 92.0542C113.023 92.2431 112.47 92.5626 112.212 92.9576C111.939 93.3749 111.342 93.7 110.328 93.9848C109.265 94.2826 108.77 94.5606 108.587 94.9618C108.393 95.3878 107.929 95.6219 106.66 95.9327C105.413 96.2385 104.926 96.4806 104.741 96.8862C104.569 97.2626 104.029 97.5691 102.99 97.8806C102.077 98.1542 101.348 98.5406 101.135 98.8657C100.898 99.2273 100.225 99.5436 99.0513 99.8446C97.7362 100.182 97.2563 100.425 97.0619 100.852C96.8718 101.269 96.4446 101.495 95.4094 101.727C94.5308 101.924 93.8026 102.267 93.4454 102.652C93.0485 103.08 92.3618 103.372 91.1625 103.622C89.8827 103.889 89.3353 104.133 89.0053 104.583C88.6629 105.051 88.245 105.225 87.1478 105.358C85.5937 105.546 85.0829 105.753 84.0557 106.607C83.5852 106.998 82.888 107.232 81.8379 107.351C80.8534 107.463 79.7723 107.808 78.8089 108.318C77.908 108.796 76.7292 109.184 75.8487 109.294C74.9404 109.407 73.7813 109.796 72.7937 110.32C71.6062 110.95 70.8941 111.164 69.9852 111.164C69.2998 111.164 67.7661 111.492 66.4764 111.913C65.2164 112.326 63.2388 112.776 62.0822 112.914C60.925 113.051 58.9746 113.51 57.748 113.932C56.0942 114.501 54.8126 114.75 52.7929 114.896C48.3126 115.221 44.3047 116.854 43.4949 118.685C42.5977 120.712 42.9729 124.559 44.197 125.882C44.5846 126.3 45.1084 126.978 45.3604 127.386C47.6365 131.076 49.3107 131.85 52.4214 130.655C53.3068 130.314 55.1457 129.677 56.5079 129.238C57.87 128.799 59.096 128.353 59.2322 128.249C59.3684 128.143 60.2061 127.835 61.0934 127.562C61.9806 127.29 63.0951 126.841 63.57 126.566C64.0449 126.291 65.0121 125.897 65.7198 125.691C66.4275 125.485 67.3327 125.074 67.7315 124.78C68.1302 124.485 69.2695 124.026 70.2626 123.76C71.2557 123.493 72.3733 123.019 72.7467 122.705C73.1194 122.391 74.0203 121.941 74.7491 121.705C75.4772 121.469 76.2964 121.076 76.5688 120.832C76.8412 120.589 77.6771 120.195 78.4263 119.957C79.1755 119.719 80.0671 119.273 80.4076 118.966C80.7481 118.659 81.6032 118.22 82.3078 117.992C83.0124 117.763 83.7369 117.397 83.9177 117.178C84.0984 116.959 84.748 116.558 85.3609 116.288C85.9739 116.017 86.829 115.527 87.2611 115.199C87.6927 114.87 88.4728 114.485 88.9948 114.34C89.5161 114.196 90.3025 113.763 90.7421 113.376C91.1823 112.991 91.9625 112.599 92.4758 112.506C93.7122 112.283 94.2125 112.006 94.3908 111.444C94.4769 111.172 95.0855 110.77 95.8613 110.474C96.5895 110.195 97.473 109.679 97.8247 109.327C98.177 108.975 98.6835 108.687 98.9504 108.687C99.2172 108.687 99.7516 108.345 100.138 107.927C100.524 107.509 101.348 106.904 101.97 106.584C102.592 106.264 103.254 105.817 103.441 105.592C103.628 105.366 104.317 104.91 104.973 104.577C105.629 104.246 106.165 103.885 106.165 103.776C106.165 103.667 106.639 103.316 107.217 102.996C107.796 102.676 108.676 102.054 109.172 101.614C109.667 101.173 110.29 100.744 110.556 100.659C110.822 100.575 111.186 100.232 111.366 99.8953C111.545 99.5591 111.926 99.2149 112.21 99.1301C112.495 99.0452 113.139 98.5697 113.642 98.0737C114.145 97.5772 114.758 96.9735 115.004 96.732C115.25 96.4905 115.701 96.0447 116.004 95.7413C116.307 95.438 116.753 94.9928 116.995 94.7513C117.236 94.5105 117.911 93.786 118.494 93.1415C119.078 92.4975 119.83 91.6871 120.166 91.3416C120.909 90.5775 121.055 88.5386 120.385 88.2816C119.787 88.0519 119.676 88.0841 118.77 88.7504ZM119.912 106.456C119.667 106.727 118.981 107.234 118.388 107.581C117.795 107.929 117.31 108.296 117.31 108.398C117.31 108.5 116.706 108.949 115.967 109.396C115.229 109.844 114.566 110.364 114.494 110.551C114.422 110.738 113.927 111.008 113.393 111.152C112.86 111.295 111.99 111.758 111.461 112.18C110.932 112.602 110.053 113.172 109.508 113.446C108.963 113.721 108.351 114.088 108.146 114.262C107.942 114.435 107.162 114.833 106.413 115.145C105.663 115.458 104.735 115.972 104.35 116.287C103.965 116.602 103.512 116.86 103.344 116.86C103.176 116.86 102.32 117.288 101.444 117.811C100.567 118.333 99.2921 118.907 98.6111 119.086C97.93 119.265 97.1498 119.606 96.8774 119.845C96.2898 120.361 94.6422 121.071 94.033 121.071C93.7958 121.071 93.189 121.399 92.685 121.8C92.1278 122.242 91.2151 122.642 90.3601 122.818C88.78 123.143 88.1967 123.396 87.4419 124.081C87.1435 124.353 86.2482 124.662 85.3368 124.808C84.1022 125.006 83.6093 125.217 83.1103 125.762C82.6756 126.237 82.1171 126.517 81.3766 126.632C79.6931 126.893 78.6133 127.282 77.8864 127.887C77.427 128.27 76.7316 128.492 75.6233 128.61C74.4079 128.741 73.7064 128.986 72.704 129.632C71.9554 130.114 71.0595 130.485 70.6329 130.488C69.4131 130.498 67.7537 130.96 66.9928 131.502C66.568 131.804 65.435 132.144 64.1669 132.349C62.7546 132.578 61.6222 132.936 60.7646 133.424C60.0581 133.827 59.034 134.236 58.4892 134.333C55.5351 134.86 53.9804 137.061 55.025 139.237C55.5197 140.266 59.0272 143.934 59.9838 144.421C61.8073 145.351 65.6653 145.089 67.225 143.929C67.6708 143.598 68.5624 143.152 69.2063 142.939C69.8502 142.725 70.7115 142.304 71.1201 142.003C71.5288 141.701 72.3089 141.313 72.8538 141.14C73.3987 140.967 74.4017 140.521 75.0828 140.149C75.7639 139.778 76.7112 139.327 77.188 139.148C77.6647 138.969 78.2839 138.619 78.5637 138.37C78.8436 138.121 79.7352 137.645 80.5451 137.312C81.3549 136.98 82.9648 136.185 84.1226 135.546C86.5875 134.185 86.7714 134.091 89.6951 132.686C90.921 132.097 92.537 131.227 93.2862 130.753C94.0354 130.279 95.2094 129.606 95.8954 129.258C96.5808 128.909 97.4167 128.425 97.7529 128.182C99.3417 127.031 100.195 126.494 101.369 125.908C102.068 125.558 103.059 124.939 103.57 124.534C104.081 124.128 104.611 123.795 104.747 123.795C104.883 123.795 105.473 123.377 106.057 122.866C106.641 122.356 107.489 121.637 107.942 121.271C108.395 120.904 109.336 120.123 110.033 119.537C110.731 118.95 111.989 117.913 112.83 117.232C113.67 116.551 115.406 114.935 116.686 113.641C117.967 112.347 119.381 110.925 119.829 110.479C120.581 109.734 120.651 109.528 120.738 107.817C120.836 105.875 120.676 105.612 119.912 106.456ZM118.441 125.9C117.964 126.377 117.407 126.767 117.203 126.767C116.998 126.767 116.452 127.129 115.988 127.572C115.048 128.47 112.868 129.901 111.099 130.783C110.748 130.958 109.95 131.436 109.326 131.844C108.208 132.577 107.067 133.288 106.06 133.881C105.777 134.047 105.044 134.413 104.431 134.694C103.818 134.974 102.927 135.415 102.45 135.672C101.973 135.929 101.082 136.337 100.469 136.577C99.8556 136.817 99.1311 137.202 98.8587 137.435C98.5863 137.666 97.7399 138.034 96.9783 138.251C96.2167 138.469 95.3196 138.861 94.9852 139.124C94.6509 139.388 93.7141 139.791 92.903 140.021C92.0919 140.251 90.9699 140.703 90.4084 141.025C89.8474 141.347 88.9558 141.714 88.427 141.842C87.8989 141.969 85.9058 142.65 83.9988 143.355C79.7457 144.926 77.391 145.7 74.9268 146.336C72.4092 146.985 68.8843 148.623 68.5147 149.315C68.0249 150.229 68.1488 151.597 68.7599 152.025C69.0558 152.231 69.6676 152.708 70.1202 153.083C70.5722 153.459 71.4842 154.005 72.1461 154.296C72.8074 154.587 73.5857 155.078 73.8742 155.387C74.9689 156.556 79.3309 156.49 81.5221 155.271C82.2032 154.892 83.088 154.501 83.4886 154.404C83.8892 154.305 84.6155 153.909 85.1021 153.524C85.5894 153.138 86.4445 152.7 87.003 152.549C87.5614 152.399 88.4215 151.955 88.9143 151.563C89.4072 151.172 90.2895 150.731 90.8752 150.583C91.5637 150.41 92.1265 150.063 92.4683 149.601C92.8219 149.123 93.3946 148.778 94.1946 148.563C94.8527 148.386 95.67 147.97 96.0106 147.638C96.7635 146.905 97.8526 146.16 99.9596 144.935C100.838 144.424 101.729 143.854 101.941 143.668C102.153 143.481 102.681 143.085 103.115 142.787C105.744 140.986 107.211 139.901 108.594 138.734C109.453 138.009 110.263 137.417 110.394 137.417C110.636 137.417 114.33 134.244 115.71 132.852C116.124 132.434 117.117 131.479 117.918 130.73C120.154 128.636 120.777 127.657 120.777 126.235C120.777 124.653 119.824 124.516 118.441 125.9ZM118.801 142.985C118.343 143.324 117.029 144.132 115.883 144.781C114.737 145.43 113.28 146.302 112.644 146.717C112.009 147.133 110.877 147.731 110.128 148.045C109.378 148.359 108.58 148.78 108.353 148.98C108.126 149.18 107.28 149.549 106.473 149.801C105.665 150.052 104.586 150.542 104.074 150.889C103.562 151.236 102.737 151.594 102.239 151.684C101.742 151.773 100.722 152.212 99.9732 152.659C99.224 153.106 97.9424 153.659 97.1251 153.887C96.3078 154.114 95.4019 154.521 95.1122 154.789C94.7877 155.09 93.9927 155.361 93.0423 155.496C92.0522 155.636 91.1619 155.948 90.5594 156.365C90.0431 156.723 88.884 157.237 87.9843 157.507C83.7511 158.777 84.5152 160.635 90.0536 162.539C94.2478 163.981 94.6862 163.973 97.7318 162.397C99.1442 161.666 100.989 160.717 101.832 160.287C102.675 159.858 103.676 159.217 104.058 158.863C104.439 158.51 104.838 158.221 104.944 158.221C105.05 158.221 105.457 157.951 105.85 157.62C106.242 157.29 107.09 156.74 107.734 156.397C109.58 155.416 110.29 154.824 115.292 150.102C119.485 146.143 120.777 144.552 120.777 143.346C120.777 142.143 120.108 142.021 118.801 142.985ZM117.824 157.663C116.596 158.583 115.281 159.529 114.903 159.766C114.524 160.003 113.434 160.697 112.48 161.309C111.527 161.92 110.301 162.632 109.756 162.891C109.211 163.15 108.494 163.655 108.162 164.014C107.83 164.372 107.106 164.787 106.552 164.935C103.999 165.617 104.256 167.101 107.015 167.609C112.734 168.662 117.673 167.551 119.803 164.732L120.777 163.443V159.717C120.777 155.262 120.91 155.355 117.824 157.663Z" stroke="black" stroke-width="12" mask="url(#path-1-outside-1_238_300)"/>
</svg>
