<svg width="192" height="192" viewBox="0 0 192 192" fill="none" xmlns="http://www.w3.org/2000/svg"><path d="M78.86 24.012a74 74 0 0 1 34.28 0m21.643 8.965a73.997 73.997 0 0 1 24.24 24.24m8.965 21.643a74.003 74.003 0 0 1 0 34.28m-8.965 21.643a73.994 73.994 0 0 1-24.24 24.24m-21.643 8.965a74.003 74.003 0 0 1-34.28 0m-21.64-8.968L22 170l10.98-35.22m-8.968-21.64a74 74 0 0 1 0-34.28m8.965-21.643a74 74 0 0 1 24.24-24.24" stroke="#000" stroke-width="12" stroke-linecap="round" stroke-linejoin="round"/></svg>