<svg xmlns="http://www.w3.org/2000/svg" width="192" height="192" viewBox="0 0 192 192"><path d="M63 155.478a67.799 67.799 0 0 1-3.556-2.121 6.001 6.001 0 0 0-4.376-.833l-19.36 3.768 3.768-19.36a6 6 0 0 0-.833-4.376 64.77 64.77 0 0 1-.351-.556H24.535a79.45 79.45 0 0 0 2.714 4.941l-3.887 19.971c-1.355 6.961 4.765 13.081 11.726 11.726l19.971-3.887A79.315 79.315 0 0 0 63 168.898v-13.42z"/><path d="M152.569 39.431a80.396 80.396 0 0 0-12.112-9.958 6 6 0 0 0-6.678 9.97 68.336 68.336 0 0 1 10.304 8.474 68.342 68.342 0 0 1 8.474 10.304 6 6 0 1 0 9.97-6.677 80.339 80.339 0 0 0-9.958-12.112zm-43.295-10.13a6 6 0 1 0 2.331-11.772 80.41 80.41 0 0 0-31.21 0 6 6 0 0 0 2.33 11.771 68.405 68.405 0 0 1 26.549 0zm65.197 51.094a6 6 0 1 0-11.771 2.33 68.432 68.432 0 0 1 0 26.549 6 6 0 1 0 11.771 2.331 80.382 80.382 0 0 0 0-31.21zm-11.944 60.062a6 6 0 1 0-9.97-6.678 68.317 68.317 0 0 1-8.474 10.304 68.482 68.482 0 0 1-8.779 7.422 6 6 0 0 0 6.947 9.785 80.599 80.599 0 0 0 10.318-8.721 80.378 80.378 0 0 0 9.958-12.112zM58.221 39.443a6 6 0 0 0-6.677-9.97 80.357 80.357 0 0 0-12.112 9.959 80.49 80.49 0 0 0-8.722 10.317 6 6 0 0 0 9.785 6.947 68.495 68.495 0 0 1 7.422-8.78 68.36 68.36 0 0 1 10.304-8.473zM30.6 77.325a6 6 0 0 0-11.543-3.283 80.32 80.32 0 0 0-2.914 26.768 6 6 0 0 0 11.978-.718A68.318 68.318 0 0 1 30.6 77.325zm87.357 95.616a5.999 5.999 0 0 0 4.129-7.412 6 6 0 0 0-7.412-4.13 68.328 68.328 0 0 1-22.767 2.479 6 6 0 1 0-.717 11.978 80.317 80.317 0 0 0 26.767-2.915zm-84.65-50.551a6 6 0 0 0-11.061 4.652A79.244 79.244 0 0 0 24.535 132h13.757a67.388 67.388 0 0 1-4.983-9.61zm36.302 36.301a67.337 67.337 0 0 1-9.61-4.983v13.757a79.312 79.312 0 0 0 4.958 2.288 6 6 0 0 0 4.651-11.062z"/></svg>