<svg width="192" height="192" viewBox="0 0 192 192" fill="none" xmlns="http://www.w3.org/2000/svg"><path d="m170 138-37 32v-32l-37 32v-32l-37 32v-32l-37 32m148-58h-31a6 6 0 0 1-6-6V86a6 6 0 0 0-6-6h-25a6 6 0 0 0-6 6v20a6 6 0 0 1-6 6H65a6 6 0 0 1-6-6V86a6 6 0 0 0-6-6H22m148-26-12.258-28.351c-2.209-5.109-9.431-4.776-11.178.515l-7.726 23.397c-1.848 5.598-9.641 5.536-11.403-.09l-7.219-23.057c-1.776-5.673-9.656-5.673-11.432 0l-7.068 22.573c-1.776 5.673-9.656 5.673-11.432 0l-7.068-22.573c-1.776-5.673-9.656-5.673-11.432 0l-7.271 23.222c-1.757 5.61-9.52 5.695-11.393.124l-7.708-22.922c-1.762-5.24-8.91-5.582-11.145-.533L22 54" stroke="#000" stroke-width="12" stroke-linecap="round" stroke-linejoin="round"/></svg>