<svg xmlns="http://www.w3.org/2000/svg" width="192" height="192" viewBox="0 0 192 192"><path d="M16 58a12 12 0 0 1 12-12h136a12 12 0 0 1 12 12v57a31 31 0 0 1-31 31H28a12 12 0 0 1-12-12V58zm54 0H28v14h33.515L70 63.515V58zm12 0v8a6 6 0 0 1-1.757 4.243L70 80.485v30.03l10.243 10.242A6.002 6.002 0 0 1 82 125v9h28v-9c0-1.591.632-3.117 1.757-4.243L122 110.515V78a6 6 0 0 1 6-6h36V58H82zm82 26h-30v23h30V84zm-.422 35h-33.093L122 127.485V134h23c9.121 0 16.741-6.427 18.578-15zM70 134v-6.515L61.515 119H28v15h42zm-42-27h30V84H28v23z"/></svg>