<svg width="192" height="192" viewBox="0 0 192 192" fill="none" xmlns="http://www.w3.org/2000/svg"><circle cx="28" cy="28" r="6" stroke="#000" stroke-width="12" stroke-linecap="round" stroke-linejoin="round"/><circle cx="74" cy="28" r="6" stroke="#000" stroke-width="12" stroke-linecap="round" stroke-linejoin="round"/><circle cx="28" cy="118" r="6" stroke="#000" stroke-width="12" stroke-linecap="round" stroke-linejoin="round"/><circle cx="164" cy="118" r="6" stroke="#000" stroke-width="12" stroke-linecap="round" stroke-linejoin="round"/><circle cx="28" cy="164" r="6" stroke="#000" stroke-width="12" stroke-linecap="round" stroke-linejoin="round"/><circle cx="164" cy="164" r="6" stroke="#000" stroke-width="12" stroke-linecap="round" stroke-linejoin="round"/><path d="M165 86V34a6 6 0 0 0-6-6h-13M28 28v38a6 6 0 0 0 6 6h86m-46 46H28m136 0h-32" stroke="#000" stroke-width="10" stroke-linecap="round" stroke-linejoin="round"/><path d="M74 72v86a6 6 0 0 1-6 6H28M74 28h40a6 6 0 0 1 6 6v72m44 58h-38a6 6 0 0 1-6-6v-28" stroke="#000" stroke-width="10" stroke-linecap="round" stroke-linejoin="round"/><rect x="108" y="106" width="24" height="24" rx="6" stroke="#000" stroke-width="12" stroke-linecap="round" stroke-linejoin="round"/></svg>