<svg id="Layer_1" data-name="Layer 1" xmlns="http://www.w3.org/2000/svg" viewBox="0 0 24 24">
  <g>
    <path d="M11.10917,21.94319a4.296,4.296,0,0,0,4.40541-2.73692c.99885-2.66246-.97778-4.91587-3.51434-5.62471a11.09231,11.09231,0,0,1-4.61557-2.31709A6.97458,6.97458,0,0,1,4.97548,7.08635a7.30784,7.30784,0,0,1-.07936-2.14221,10.00053,10.00053,0,0,0,6.21305,16.99905Z"/>
    <path d="M13.15505,2.05743A3.87442,3.87442,0,0,0,9.09041,4.418c-.84161,1.88453.45362,4.33977,3.362,5.14463a10.93473,10.93473,0,0,1,4.47057,2.1814,7.19614,7.19614,0,0,1,2.6796,4.20408,9.79173,9.79173,0,0,1,.09357,2.419A9.95886,9.95886,0,0,0,22,11.98213C22,6.14047,16.81269,2.13848,13.15505,2.05743Z"/>
  </g>
</svg>
