<svg width="192" height="192" viewBox="0 0 192 192" fill="none" xmlns="http://www.w3.org/2000/svg">
<path d="M89.4321 169.864C96.333 170.507 103.253 168.859 109.14 165.172C115.027 161.485 119.558 155.96 122.044 149.438C129.438 129.568 114.806 112.751 96.0283 107.461C83.4483 104.487 71.7418 98.5627 61.8609 90.1687C52.4272 82.2437 46.1041 71.1885 44.0265 58.9873C43.0522 53.7163 42.8543 48.3292 43.439 43C33.5506 53.0627 26.7067 65.7545 23.707 79.5926C20.7072 93.4307 21.6755 107.844 26.4987 121.148C31.3219 134.452 39.8008 146.097 50.9448 154.724C62.0889 163.35 75.4378 168.601 89.4321 169.864V169.864Z" stroke="black" stroke-width="12" stroke-linejoin="round"/>
<path d="M104.817 22.228C98.6077 21.4335 92.3127 22.7281 86.9005 25.9126C81.4883 29.097 77.2588 33.9948 74.8627 39.8526C68.6605 53.9229 78.2056 72.2543 99.639 78.2636C111.71 81.0561 122.984 86.6293 132.585 94.5505C142.649 102.295 149.652 113.427 152.332 125.939C153.298 131.907 153.53 137.974 153.022 144C164.017 130.614 170.025 113.743 170 96.3282C170 52.7129 131.772 22.8331 104.817 22.228Z" stroke="black" stroke-width="12" stroke-linejoin="round"/>
</svg>
