<svg xmlns="http://www.w3.org/2000/svg" width="192" height="192" fill="none" stroke="#000" stroke-width="12" stroke-linejoin="round" xmlns:v="https://vecta.io/nano"><path d="M89.432 169.864c6.901.643 13.821-1.005 19.708-4.692s10.418-9.212 12.904-15.734c7.394-19.87-7.238-36.687-26.016-41.977a81.86 81.86 0 0 1-34.167-17.292c-9.434-7.925-15.757-18.98-17.834-31.181-.974-5.271-1.172-10.658-.587-15.987a74.82 74.82 0 0 0-19.732 36.593 75.21 75.21 0 0 0 2.792 41.555c4.823 13.304 13.302 24.949 24.446 33.576s24.493 13.877 38.487 15.14h0zm15.385-147.636c-6.209-.795-12.504.5-17.916 3.685s-9.642 8.082-12.038 13.94c-6.202 14.07 3.343 32.402 24.776 38.411 12.071 2.793 23.345 8.366 32.946 16.287 10.064 7.745 17.067 18.877 19.747 31.388.966 5.968 1.198 12.035.69 18.061 10.995-13.386 17.003-30.257 16.978-47.672 0-43.615-38.228-73.495-65.183-74.1z"/></svg>