<svg xmlns="http://www.w3.org/2000/svg" width="192" height="192" fill="none" viewBox="0 0 192 192"><path stroke="#000" stroke-linecap="round" stroke-linejoin="round" stroke-width="12" d="m72 89 21 23 23-36 24 45H52z"/><path stroke="#000" stroke-linecap="round" stroke-linejoin="round" stroke-width="12" d="M31 61.056a5.99 5.99 0 0 1 3.063-5.224l59-33.066a6.01 6.01 0 0 1 5.874 0l59 33.066A5.99 5.99 0 0 1 161 61.055v69.888a6 6 0 0 1-3.063 5.224l-59 33.065a6 6 0 0 1-5.874 0l-59-33.065A6 6 0 0 1 31 130.944z"/><path stroke="#000" stroke-linecap="round" stroke-linejoin="round" stroke-width="8" d="M65 71a4 4 0 1 0 0-8 4 4 0 0 0 0 8"/></svg>