<?xml version="1.0" encoding="utf-8"?>
<!-- Generator: Adobe Illustrator 25.4.1, SVG Export Plug-In . SVG Version: 6.00 Build 0)  -->
<svg version="1.1" id="Layer_1" xmlns="http://www.w3.org/2000/svg" xmlns:xlink="http://www.w3.org/1999/xlink" x="0px" y="0px"
	 viewBox="0 0 192 192" style="enable-background:new 0 0 192 192;" xml:space="preserve">
<style type="text/css">
	.st0{fill:none;stroke:#000000;stroke-width:12;stroke-miterlimit:10;}
</style>
<path class="st0" d="M52.5,170c-4.4-0.2-8.4,0.3-10.1-3.8c-1.8-4.4,0.2-8,3.4-11c5.1-4.6,10.9-8.3,17-11.4
	c14.2-7.2,28.4-14.2,42.6-21.1c4.5-2.2,8.8-4.5,12.5-7.7c8-6.7,7.1-13-2.8-16c-7.5-2.3-15.5-3.4-23.2-4.9c-9.9-2-19.9-3.7-29.7-6
	c-5.3-1.3-10.7-3.5-12.1-9.8c-1.4-6.5,2.3-11,7.1-14.6C75.5,49.8,94.3,36.6,115,26.4c5.7-2.8,11.6-5.2,18.1-4.1
	c5.5,0.9,10,3.4,11.5,9.1c1.6,5.9-2.1,9.2-6.7,11.7c-16.2,9.2-45,24.3-48.5,27.5s-0.6,7,2.9,7.6c12.1,2.2,22.7,4,34.3,8.6
	c4.3,1.7,8.7,3.5,12.6,5.9c13.1,8.2,14.6,19.9,4.4,31.7c-6.5,7.5-14.5,13.3-23,18.4c-19.1,11.5-39.5,19.9-60.9,26
	C57.1,169.6,54.3,169.7,52.5,170z"/>
</svg>
