<svg xmlns="http://www.w3.org/2000/svg" width="192" height="192" fill="none"><path stroke="#000" stroke-linecap="round" stroke-linejoin="round" stroke-width="12" d="m135 95 7 9-7 9-7-9z"/><path stroke="#000" stroke-linecap="round" stroke-linejoin="round" stroke-width="12" d="m67.104 65.217-12.69-7.026c-2.932-1.623-6.63-.54-8.213 2.407L22.713 105.15a5.975 5.975 0 0 0 2.14 7.921l74.725 45.966a6 6 0 0 0 3.404.883l61.271-2.654c3.305-.143 5.872-2.922 5.742-6.216l-3.537-89.887c-.129-3.282-2.888-5.847-6.182-5.749l-55.191 1.642c-3.292.098-5.891 2.819-5.828 6.1l1.819 93.344"/><path stroke="#000" stroke-linecap="round" stroke-linejoin="round" stroke-width="12" d="m100.143 135.063-36.445-78.15c-1.42-3.09.025-6.737 3.18-8.029L111.92 30.45a6.016 6.016 0 0 1 7.699 2.95l9.469 21.837"/></svg>