<svg xmlns="http://www.w3.org/2000/svg" width="192" height="192" viewBox="0 0 192 192"><path fill="none" stroke="#000" stroke-width="12" d="M52.5 170c-4.4-.2-8.4.3-10.1-3.8-1.8-4.4.2-8 3.4-11 5.1-4.6 10.9-8.3 17-11.4 14.2-7.2 28.4-14.2 42.6-21.1 4.5-2.2 8.8-4.5 12.5-7.7 8-6.7 7.1-13-2.8-16-7.5-2.3-15.5-3.4-23.2-4.9-9.9-2-19.9-3.7-29.7-6-5.3-1.3-10.7-3.5-12.1-9.8-1.4-6.5 2.3-11 7.1-14.6C75.5 49.8 94.3 36.6 115 26.4c5.7-2.8 11.6-5.2 18.1-4.1 5.5.9 10 3.4 11.5 9.1 1.6 5.9-2.1 9.2-6.7 11.7-16.2 9.2-45 24.3-48.5 27.5s-.6 7 2.9 7.6c12.1 2.2 22.7 4 34.3 8.6 4.3 1.7 8.7 3.5 12.6 5.9 13.1 8.2 14.6 19.9 4.4 31.7-6.5 7.5-14.5 13.3-23 18.4-19.1 11.5-39.5 19.9-60.9 26-2.6.8-5.4.9-7.2 1.2z"/></svg>