<svg width="192" height="192" viewBox="0 0 192 192" fill="none" xmlns="http://www.w3.org/2000/svg"><path d="m72 89 21 23 23-36 24 45H52l20-32Z" stroke="#000" stroke-width="12" stroke-linecap="round" stroke-linejoin="round"/><path d="M31 61.056a5.991 5.991 0 0 1 3.063-5.224l59-33.066a6.01 6.01 0 0 1 5.874 0l59 33.066A5.985 5.985 0 0 1 161 61.055v69.888a5.994 5.994 0 0 1-3.063 5.224l-59 33.065a6.005 6.005 0 0 1-5.874 0l-59-33.065A6 6 0 0 1 31 130.944V61.056Z" stroke="#000" stroke-width="12" stroke-linecap="round" stroke-linejoin="round"/><path d="M65 71a4 4 0 1 0 0-8 4 4 0 0 0 0 8Z" stroke="#000" stroke-width="8" stroke-linecap="round" stroke-linejoin="round"/></svg>