<?xml version="1.0" encoding="utf-8"?>
<!-- Generator: Adobe Illustrator 25.4.1, SVG Export Plug-In . SVG Version: 6.00 Build 0)  -->
<svg version="1.1" id="Layer_1" xmlns="http://www.w3.org/2000/svg" xmlns:xlink="http://www.w3.org/1999/xlink" x="0px" y="0px"
	 width="192px" height="192px" viewBox="0 0 192 192" style="enable-background:new 0 0 192 192;" xml:space="preserve">
<style type="text/css">
	.st0{fill:none;stroke:#000000;stroke-width:12;stroke-linecap:round;stroke-linejoin:round;stroke-miterlimit:10;}
</style>
<path class="st0" d="M58,53.1h112v85.7H58 M68.5,62.9L58,53.1 M93.8,86.6l10,9.4l4.8,4.5c2.3,2.1,5.8,2.2,8.1,0.1L170,53.1 M123,96
	l47,42.9 M87.6,110.5C95.7,94.2,93.9,79,93,73.8c-4.6-0.9-11.4-2.8-18.8-7c-7.8-4.5-13.1-9.9-16.3-13.6c-3.1,3.7-8.4,9.1-16.3,13.6
	c-7.3,4.2-14.1,6.1-18.8,7c-0.9,5.3-2.7,20.4,5.4,36.7c9.2,18.6,25.1,26.4,29.7,28.4C62.5,136.9,78.4,129.1,87.6,110.5z M44.5,96.9
	L55,107.2L71.4,91"/>
</svg>
