<svg xmlns="http://www.w3.org/2000/svg" width="192" height="192" viewBox="0 0 50.8 50.8"><path fill="none" stroke="#000" stroke-linecap="round" stroke-linejoin="bevel" stroke-width="3.175" d="M36.505 18.099c.11-6.249-3.588-11.882-10.2-12.196-10.305-1.12-15.246 9.081-9.78 15.598 3.968 4.269 11.499 3.297 15.915 6.162 1.393.953 2.422 2.077 3.085 3.375.664 1.297.996 2.824.996 4.581 0 2.808-.963 5.074-2.887 6.798-1.908 1.708-4.438 2.562-7.59 2.562-2.123 0-4.018-.447-5.823-1.28-1.666-.77-3.378-1.795-4.386-3.329-1.194-1.819-1.484-3.726-1.555-6.34"/></svg>