<svg xmlns="http://www.w3.org/2000/svg" xml:space="preserve" width="192" height="192" viewBox="0 0 192 192"><path fill="none" stroke="#000" stroke-linecap="round" stroke-linejoin="round" stroke-miterlimit="10" stroke-width="12" d="M58 53.1h112v85.7H58m10.5-75.9L58 53.1m35.8 33.5 10 9.4 4.8 4.5c2.3 2.1 5.8 2.2 8.1.1L170 53.1M123 96l47 42.9m-82.4-28.4C95.7 94.2 93.9 79 93 73.8c-4.6-.9-11.4-2.8-18.8-7-7.8-4.5-13.1-9.9-16.3-13.6-3.1 3.7-8.4 9.1-16.3 13.6-7.3 4.2-14.1 6.1-18.8 7-.9 5.3-2.7 20.4 5.4 36.7 9.2 18.6 25.1 26.4 29.7 28.4 4.6-2 20.5-9.8 29.7-28.4zM44.5 96.9 55 107.2 71.4 91"/></svg>