<?xml version="1.0" encoding="UTF-8" standalone="no"?>
<!-- Created with Inkscape (http://www.inkscape.org/) -->

<svg
   width="192"
   height="192"
   viewBox="0 0 50.799999 50.8"
   version="1.1"
   id="svg6584"
   inkscape:version="1.2.1 (9c6d41e410, 2022-07-14, custom)"
   sodipodi:docname="simplytranslate.svg"
   xmlns:inkscape="http://www.inkscape.org/namespaces/inkscape"
   xmlns:sodipodi="http://sodipodi.sourceforge.net/DTD/sodipodi-0.dtd"
   xmlns="http://www.w3.org/2000/svg"
   xmlns:svg="http://www.w3.org/2000/svg">
  <sodipodi:namedview
     id="namedview6586"
     pagecolor="#ffffff"
     bordercolor="#000000"
     borderopacity="0.25"
     inkscape:showpageshadow="2"
     inkscape:pageopacity="0.0"
     inkscape:pagecheckerboard="0"
     inkscape:deskcolor="#d1d1d1"
     inkscape:document-units="mm"
     showgrid="false"
     inkscape:zoom="3.7760417"
     inkscape:cx="61.44"
     inkscape:cy="146.58207"
     inkscape:window-width="1322"
     inkscape:window-height="724"
     inkscape:window-x="0"
     inkscape:window-y="0"
     inkscape:window-maximized="1"
     inkscape:current-layer="layer1" />
  <defs
     id="defs6581" />
  <g
     inkscape:label="Layer 1"
     inkscape:groupmode="layer"
     id="layer1"
     style="display:inline">
    <path
       id="path19828"
       style="display:inline;fill:none;fill-opacity:1;stroke:#000000;stroke-width:3.175;stroke-linecap:round;stroke-linejoin:bevel;stroke-miterlimit:6;stroke-dasharray:none;stroke-opacity:1;paint-order:normal"
       inkscape:transform-center-y="1.525901"
       d="M 36.505373,18.098676 C 36.614875,11.850073 32.916819,6.216699 26.304731,5.9031781 15.999906,4.78394 11.058989,14.984035 16.525184,21.501182 c 3.967574,4.268858 11.498458,3.296537 15.914494,6.161881 1.393511,0.952446 2.422046,2.077298 3.085608,3.374554 0.663594,1.297255 0.99539,2.824416 0.99539,4.581482 0,2.80802 -0.962197,5.074136 -2.886587,6.798345 -1.907794,1.707812 -4.43769,2.561719 -7.589686,2.561719 -2.123459,0 -4.018798,-0.447305 -5.822918,-1.28086 -1.666026,-0.769752 -3.378587,-1.794066 -4.386038,-3.328082 -1.194627,-1.819025 -1.484829,-3.726035 -1.555091,-6.340785"
       inkscape:label="path35934"
       sodipodi:nodetypes="cccccscsaac" />
  </g>
  <g
     inkscape:groupmode="layer"
     id="layer2"
     inkscape:label="Layer 2"
     style="display:inline" />
</svg>
