<svg width="192" height="192" viewBox="0 0 192 192" fill="none" xmlns="http://www.w3.org/2000/svg"><path d="m60 129-38 19v16a6 6 0 0 0 6 6h51l-19-41Zm19 41h34m19-41 38 19v16a6 6 0 0 1-6 6h-51l19-41Zm-86-22.524L96 148l50-41.524C146 85.714 142.25 39 96 39s-50 46.714-50 67.476Z" stroke="#000" stroke-width="12" stroke-linecap="round" stroke-linejoin="round"/><path d="M83 114c9 5 16 5 26 0M79 96s12 1.5 17 6c6-4.5 17-6 17-6 3-6-1-11-17-11s-20 5-17 11Z" stroke="#000" stroke-width="8" stroke-linecap="round" stroke-linejoin="round"/><path d="m154 77-11-2 1 4 10-2ZM37 77l11-2-1 4-10-2Z" stroke="#000" stroke-width="10" stroke-linecap="round" stroke-linejoin="round"/><path d="M54.001 60s-28-14-4-38m86.998 38s28-14 4-38" stroke="#000" stroke-width="12" stroke-linecap="round" stroke-linejoin="round"/><path d="M77.491 64.33C83.814 62.694 87.595 67.545 88 70c-3.153-3.19-8.786-1.963-10.509-1.417-2.635-.546-6.323-2.616 0-4.253Zm36.018 0C107.186 62.694 103.405 67.545 103 70c3.153-3.19 8.786-1.963 10.509-1.417 2.634-.546 6.323-2.616 0-4.253Z" stroke="#000" stroke-width="8" stroke-linecap="round" stroke-linejoin="round"/><path d="M96 148v22" stroke="#000" stroke-width="12" stroke-linecap="round" stroke-linejoin="round"/></svg>