<svg width="192" height="192" viewBox="0 0 192 192" fill="none" xmlns="http://www.w3.org/2000/svg"><path d="M22 22h148v52H22V22Z" stroke="#000" stroke-width="12" stroke-linecap="round" stroke-linejoin="round"/><path d="M24 92h16v16H24V92Zm0 32h16v16H24v-16Zm32-32h16v16H56V92Zm0 32h16v16H56v-16Zm32-32h16v16H88V92Zm0 32h16v16H88v-16Zm-32 32h80v16H56v-16Zm64-64h16v16h-16V92Zm0 32h16v16h-16v-16Zm32-32h16v16h-16V92Zm0 32h16v16h-16v-16Z" stroke="#000" stroke-width="8" stroke-linecap="round" stroke-linejoin="round"/></svg>