<svg xmlns="http://www.w3.org/2000/svg" width="192" height="192" fill="none"><path stroke="#000" stroke-linecap="round" stroke-linejoin="round" stroke-width="12" d="m57.115 64.8-.247.23M26 93.523l-2.06 1.902c-2.685 2.478-2.566 6.756.252 9.08l65.595 54.117a6.03 6.03 0 0 0 8.22-.514l70.349-74.569c2.672-2.832 1.998-7.416-1.375-9.36L96.933 32.806a6.03 6.03 0 0 0-7.1.793L88 35.292M110 72 68 47"/><path stroke="#000" stroke-linecap="round" stroke-linejoin="round" stroke-width="8" d="m152 97-42-25"/><path stroke="#000" stroke-linecap="round" stroke-linejoin="round" stroke-width="12" d="M77 105 38 77"/><path stroke="#000" stroke-linecap="round" stroke-linejoin="round" stroke-width="8" d="m116 133-39-28"/></svg>