<svg xmlns="http://www.w3.org/2000/svg" width="192" height="192" fill="none" stroke="#000" stroke-linecap="round" stroke-linejoin="round" stroke-width="12" viewBox="0 0 192 192"><path d="m168 55-51.292 45.611c-2.299 2.104-5.799 2.004-8.098-.101l-4.8-4.51-9.998-9.422M168 136.9 123.007 96m-78.487.902 10.498 10.324 16.398-16.238m16.197 19.546c8.099-16.338 6.299-31.574 5.4-36.786-4.6-.902-11.399-2.806-18.798-7.016C66.416 62.222 61.117 56.709 57.918 53c-3.1 3.709-8.399 9.221-16.298 13.732a60.6 60.6 0 0 1-18.797 7.016c-.9 5.313-2.7 20.448 5.4 36.786C37.42 129.177 53.318 136.995 57.917 139c4.599-2.005 20.497-9.823 29.695-28.466Z"/><path d="M58.018 53H164a6 6 0 0 1 6 6v74a6 6 0 0 1-6 6H58.018"/></svg>