<svg xmlns="http://www.w3.org/2000/svg" width="192" height="192" fill="none" stroke="#000" stroke-linejoin="round" stroke-width="12" viewBox="0 0 192 192"><path d="M144 156V28a6 6 0 0 0-6-6H54a6 6 0 0 0-6 6v128a6 6 0 0 0 6 6h84a6 6 0 0 0 6-6z"/><path d="M72 156v-20a6 6 0 0 0-6-6H54a6 6 0 0 0-6 6v20a6 6 0 0 0 6 6h12a6 6 0 0 0 6-6zm72-56V56a6 6 0 0 0-6-6H54a6 6 0 0 0-6 6v44a6 6 0 0 0 6 6h84a6 6 0 0 0 6-6z"/><path d="M72 162v2a6 6 0 0 1-6 6H54a6 6 0 0 1-6-6v-12m96 0v12a6 6 0 0 1-6 6h-12a6 6 0 0 1-6-6v-2"/><path d="M144 156v-20a6 6 0 0 0-6-6h-12a6 6 0 0 0-6 6v20a6 6 0 0 0 6 6h12a6 6 0 0 0 6-6zM114 22v2a6 6 0 0 1-6 6H84a6 6 0 0 1-6-6v-2m66 76h8v16h-8M48 98h-8v16h8"/></svg>