<?xml version="1.0" encoding="UTF-8" standalone="no"?>
<!-- Created with Inkscape (http://www.inkscape.org/) -->

<svg
   width="192"
   height="192"
   viewBox="0 0 192 192"
   version="1.1"
   xml:space="preserve"
   xmlns="http://www.w3.org/2000/svg"
   xmlns:svg="http://www.w3.org/2000/svg"
   style="fill:none;stroke:#000;stroke-linecap:round;stroke-linejoin:round">
  <path
       style="stroke-width:12"
       d="M 34.332088,136.91332 C 17.959518,112.25913 17.794075,79.981588 34.358654,55.052567 48.42013,33.890615 72.035608,21.789243 96.637292,22.002709
          M 156.03115,52.72174 C 173.21705,76.530082 174.86375,108.7398 159.23319,134.44479 141.60705,163.4316 106.5256,176.72135 74.115107,166.68971" />
  <path
       style="stroke-width:10"
       d="M 108.90661,108.66872 C 108.92582,125.20455 92.205765,157.38768 73.521063,165.854 M 89.839655,108.66872 C 88.398064,122.58419 72.467113,146.66426 53.904839,151.97374 M 70.7727,108.66872 C 67.870308,119.96383 52.728462,135.94085 34.288615,138.09349
          M 111.19139,90.547761 C 113.59396,80.037575 122.05102,73.661747 133.50275,73.876994 M 92.329332,90.547761 C 94.099355,69.987639 111.50283,56.33764 133.50275,55.643772 M 73.467274,90.547761 C 74.604746,59.937703 100.95464,39.013534 133.50275,37.410551"
       transform="matrix(0.99997595,0,0,0.99986487,0.0041362,0.01295862)" />
</svg>
