<svg xmlns="http://www.w3.org/2000/svg" width="192" height="192" fill="none"><path stroke="#000" stroke-linecap="round" stroke-linejoin="round" stroke-width="12" d="M34.337 136.909c-16.371-24.654-16.537-56.93.027-81.858 14.06-21.16 37.674-33.262 62.274-33.048m59.389 30.718c17.184 23.807 18.831 56.015 3.202 81.719-17.625 28.986-52.704 42.275-85.112 32.244"/><path stroke="#000" stroke-linecap="round" stroke-linejoin="round" stroke-width="9.999" d="M108.908 108.667c.019 16.534-16.7 48.712-35.385 57.178m16.319-57.178c-1.442 13.914-17.372 37.99-35.934 43.299m16.867-43.299c-2.902 11.294-18.044 27.268-36.483 29.421m76.901-47.54c2.402-10.508 10.859-16.883 22.311-16.668M92.331 90.549c1.77-20.558 19.173-34.206 41.173-34.9M73.47 90.55c1.137-30.606 27.486-51.528 60.034-53.13"/></svg>