<?xml version="1.0" encoding="UTF-8" standalone="no"?>
<!-- Created with Inkscape (http://www.inkscape.org/) -->

<svg
   width="192"
   height="192"
   viewBox="0 0 192 192"
   version="1.1"
   xml:space="preserve"
   xmlns="http://www.w3.org/2000/svg"
   xmlns:svg="http://www.w3.org/2000/svg"
   style="fill:none;fill-rule:evenodd;stroke:#000000;stroke-width:12;stroke-linecap:round;stroke-linejoin:round">
  <path
       d="M 70.7727,111.20488 C 70.119102,126.62278 55.950853,139.27687 37.362355,141.15698
          M 37.362354,141.15697 C 18.032169,116.0561 16.823182,81.435173 34.355344,55.047047 48.417156,33.882234 72.033204,21.779228 96.63548,21.992722
          M 156.03076,52.715905 C 173.21708,76.527465 174.86382,108.74153 159.23288,134.45 141.60632,163.44072 106.52402,176.73227 74.112753,166.69927
          M 73.467274,94.339249 C 74.604746,63.729191 100.45024,39.013534 132.99835,37.410551
          M 109.4983,111.20488 C 109.51751,127.74071 92.797454,158.23295 74.112752,166.69927
          M 91.416713,111.20488 C 87.950048,131.91303 73.451379,148.89532 53.052536,157.0875
          M 92.322068,94.339249 C 93.486027,73.76749 111.03104,57.157568 133.21702,55.720585
          M 111.19139,94.339249 C 112.2415,83.659986 121.54384,75.18344 133.50275,73.876994" />
</svg>
