<svg xmlns="http://www.w3.org/2000/svg" width="192" height="192" fill="none" viewBox="0 0 192 192"><path stroke="#000" stroke-linecap="round" stroke-linejoin="round" stroke-width="12" d="M38.092 28.09a6 6 0 0 1 6-6.09h103.816a6 6 0 0 1 6 6.09l-1.818 120.001a6 6 0 0 1-6 5.909H45.91a6 6 0 0 1-6-5.909l-1.818-120Z"/><path stroke="#000" stroke-linecap="round" stroke-linejoin="round" stroke-width="10" d="m47 24 12.147 71.012A6 6 0 0 0 65.06 100h61.878a6 6 0 0 0 5.914-4.988L145 24"/><path stroke="#000" stroke-linecap="round" stroke-linejoin="round" stroke-width="12" d="M60 154v16m-20-56 21 14m91-14-21 14m1 26v16"/></svg>