<?xml version="1.0" encoding="UTF-8" standalone="no"?>
<!-- Created with Inkscape (http://www.inkscape.org/) -->

<svg
   version="1.1"
   id="svg2"
   width="192"
   height="192"
   viewBox="0 0 192 192"
   sodipodi:docname="skiline.png"
   xmlns:inkscape="http://www.inkscape.org/namespaces/inkscape"
   xmlns:sodipodi="http://sodipodi.sourceforge.net/DTD/sodipodi-0.dtd"
   xmlns="http://www.w3.org/2000/svg"
   xmlns:svg="http://www.w3.org/2000/svg">
  <defs
     id="defs6" />
  <sodipodi:namedview
     id="namedview4"
     pagecolor="#ffffff"
     bordercolor="#000000"
     borderopacity="0.25"
     inkscape:showpageshadow="2"
     inkscape:pageopacity="0.0"
     inkscape:pagecheckerboard="0"
     inkscape:deskcolor="#d1d1d1"
     showgrid="false"
     showguides="true">
    <sodipodi:guide
       position="112.72934,176.09117"
       orientation="0,-1"
       id="guide352"
       inkscape:locked="false" />
  </sodipodi:namedview>
  <g
     inkscape:groupmode="layer"
     inkscape:label="Image"
     id="g8">
    <path
       style="fill:#000000;fill-opacity:0;stroke:#000000;stroke-width:12;stroke-linecap:round;stroke-linejoin:round;paint-order:stroke fill markers"
       d="m 148.90072,44.516189 c 0,0 -11.04281,-22.516189 -43.38316,-22.516189 0,0 -49.284439,-1.156591 -49.284439,47.550801 0,0 1.232627,36.122389 36.948343,36.122389 0,0 26.447006,-0.0551 26.447006,19.82416 0,0 -0.32435,15.67319 -19.87605,15.67319 0,0 -23.654333,0.91949 -37.700778,-18.35153 L 40.46625,139.39472"
       id="path299"
       sodipodi:nodetypes="cccccccc" />
    <path
       style="fill:#000000;fill-opacity:0;stroke:#000000;stroke-width:12;stroke-linecap:round;stroke-linejoin:round;paint-order:stroke fill markers"
       d="m 40.409339,140.10535 c 0,0 16.904093,30.16123 55.768263,29.89465 0,0 53.239688,-1.52129 53.239688,-46.89845 0,0 0.59023,-42.574477 -42.87145,-42.574477 0,0 -22.293173,0.782522 -22.665598,-13.997592 0,0 -0.53493,-15.758465 18.641678,-15.758465 0,0 17.95119,0.06194 24.89096,11.061608 l 21.59811,-16.818305"
       id="path301"
       sodipodi:nodetypes="cccccccc" />
  </g>
</svg>
