<svg width="192" height="192" fill="none" xmlns="http://www.w3.org/2000/svg"><path d="M96 46h52l14-24H96a36.999 36.999 0 0 0-37 37" stroke="#000" stroke-width="12" stroke-linecap="round" stroke-linejoin="round"/><path d="M68 33H34m57 72H26m35-32H30m30-20H26m103 72H62" stroke="#000" stroke-width="10" stroke-linecap="round" stroke-linejoin="round"/><path d="M120 146H64l-14 24h70a37.006 37.006 0 0 0 26.163-10.837A37.011 37.011 0 0 0 157 133" stroke="#000" stroke-width="12" stroke-linecap="round" stroke-linejoin="round"/><path d="M157 133c0-42.005-45.519-47.677-70.17-64.785M59 59c0 42.005 45.519 47.677 70.17 64.785M96 46a13 13 0 0 0-9.17 22.215M120 146a13 13 0 0 0 9.17-22.215m-42.34-55.57C74.915 59.946 67.876 49.005 73.208 30m55.962 93.785c11.81 8.196 18.83 19.017 13.76 37.715" stroke="#000" stroke-width="12" stroke-linecap="round" stroke-linejoin="round"/></svg>