<svg xmlns="http://www.w3.org/2000/svg" width="192" height="192" viewBox="0 0 192 192"><g fill="none" stroke="#000" stroke-linecap="round" stroke-linejoin="round" stroke-width="12"><path d="M148.9 44.516S137.859 22 105.519 22c0 0-49.285-1.157-49.285 47.55 0 0 1.233 36.123 36.948 36.123 0 0 26.447-.055 26.447 19.824 0 0-.324 15.674-19.876 15.674 0 0-23.654.919-37.7-18.352l-21.586 16.576"/><path d="M40.41 140.105S57.312 170.267 96.177 170c0 0 53.24-1.521 53.24-46.898 0 0 .59-42.575-42.872-42.575 0 0-22.293.783-22.666-13.998 0 0-.535-15.758 18.642-15.758 0 0 17.951.062 24.89 11.062l21.599-16.819"/></g></svg>