<svg xmlns="http://www.w3.org/2000/svg" width="192" height="192" fill="none" stroke="#000" stroke-linecap="round" stroke-linejoin="round" viewBox="0 0 192 192"><path stroke-width="12" d="M65.25 74.376c-1.062-2.523-3.214-4.808-6.211-6.594s-6.72-3.003-10.747-3.513-8.199-.292-12.041.628-7.205 2.507-9.705 4.58-4.038 4.55-4.44 7.15.347 5.222 2.163 7.565 4.627 4.317 8.114 5.697C35.868 91.269 44 94 44 94m-21.25 19.623c1.062 2.524 3.214 4.809 6.211 6.595s6.72 3.003 10.747 3.513 8.199.292 12.041-.628c3.843-.921 7.205-2.507 9.705-4.58s4.038-4.55 4.44-7.151-.347-5.22-2.163-7.564-4.627-4.317-8.114-5.697C52.132 96.731 44 94 44 94"/><path stroke-width="14" d="M93 65v58m43-58-30 27 30 31"/><circle cx="166" cy="120" r="5" stroke-width="10"/></svg>