<svg width="192" height="192" viewBox="0 0 192 192" fill="none" xmlns="http://www.w3.org/2000/svg"><path d="M41 112h18.657c.884 0 1.758-.196 2.558-.573l67.57-31.854a5.998 5.998 0 0 1 2.558-.573H151" stroke="#000" stroke-width="12" stroke-linecap="round" stroke-linejoin="round"/><path d="M22.514 75.995a6 6 0 0 1 2.931-7.842l96.608-45.576a6 6 0 0 1 8.06 3.03l39.386 90.416a6.002 6.002 0 0 1-2.933 7.819l-96.214 45.576a6 6 0 0 1-8.06-3.006L22.513 75.995Z" stroke="#000" stroke-width="12" stroke-linecap="round" stroke-linejoin="round"/><path d="M135 99v18m-9-9h18" stroke="#000" stroke-width="8" stroke-linecap="round" stroke-linejoin="round"/></svg>