<svg width="192" height="192" fill="none" xmlns="http://www.w3.org/2000/svg"><path d="M33 61.952v68.096a6.08 6.08 0 0 0 2.972 5.222l56.904 33.871a6.113 6.113 0 0 0 6.248 0l56.904-33.871a6.08 6.08 0 0 0 2.972-5.222V61.952a6.078 6.078 0 0 0-2.972-5.222L99.124 22.86a6.11 6.11 0 0 0-6.248 0L35.972 56.73A6.078 6.078 0 0 0 33 61.952Z" stroke="#000" stroke-width="12" stroke-linecap="round" stroke-linejoin="round"/><path d="M104 120H62a6 6 0 0 1-6-6V75.397a6 6 0 0 1 2.913-5.145l34-20.4a6 6 0 0 1 6.174 0l34 20.4A6 6 0 0 1 136 75.397V120" stroke="#000" stroke-width="12" stroke-linecap="round" stroke-linejoin="round"/></svg>