<svg xmlns="http://www.w3.org/2000/svg" xml:space="preserve" width="192" height="192" fill="none"><path d="M56.656 67.035c-11.32.202-22.18.263-33.59 0-3.867 9.707 3.819 21.79 9.212 25.816-3.895 16.202 7.225 25.568 18.154 30.557m84.912-56.373c11.32.202 22.18.263 33.59 0 3.867 9.707-3.819 21.79-9.212 25.816 3.895 16.202-7.225 25.568-18.154 30.557" style="fill:none;stroke:#000;stroke-width:12;stroke-linecap:round;stroke-linejoin:round;stroke-dasharray:none;stroke-opacity:1"/><path stroke="#000" stroke-linecap="round" stroke-linejoin="round" stroke-width="14" d="M96 100c-3.966 0-7.843-1.093-11.14-3.142s-5.868-4.962-7.386-8.37a17.44 17.44 0 0 1-1.141-10.773c.773-3.617 2.683-6.94 5.488-9.548 2.804-2.608 6.377-4.383 10.267-5.103s7.922-.35 11.586 1.06c3.664 1.412 6.796 3.802 9 6.87 2.202 3.065 3.379 6.67 3.379 10.359M96 100c3.966 0 7.843 1.093 11.14 3.142s5.868 4.962 7.386 8.37a17.44 17.44 0 0 1 1.141 10.773c-.773 3.617-2.683 6.94-5.488 9.548-2.804 2.608-6.377 4.383-10.267 5.103s-7.922.35-11.586-1.06c-3.664-1.412-6.796-3.802-9-6.87-2.202-3.065-3.379-6.67-3.379-10.359" style="fill:none;stroke-width:12;stroke-dasharray:none"/></svg>