<svg xmlns="http://www.w3.org/2000/svg" width="192" height="192" fill="none" stroke="#000" stroke-width="12" viewBox="0 0 192 192"><circle cx="96" cy="45.952" r="23.952"/><circle cx="96" cy="146.048" r="23.952"/><circle cx="96" cy="-146.048" r="23.952" transform="rotate(90)"/><circle cx="96" cy="-45.952" r="23.952" transform="rotate(90)"/><path d="M105.764 66.998A23.952 23.952 0 0 1 94.18 45.214a23.952 23.952 0 0 1 13.797-20.455M125.93 78.75a85.211 85.211 0 0 1 30.206 43.14m-92.64-10.052a77.338 77.338 0 0 1-25.06-34.492m46.924 47.366a23.952 23.952 0 0 1 13.43 20.483 23.952 23.952 0 0 1-11.593 21.576"/></svg>