<?xml version="1.0" encoding="UTF-8" standalone="no"?>
<svg
   width="24"
   height="24"
   viewBox="0 0 24 24"
   fill="none"
   version="1.1"
   id="svg4"
   sodipodi:docname="skype.svg"
   inkscape:version="1.1.1 (3bf5ae0d25, 2021-09-20)"
   xmlns:inkscape="http://www.inkscape.org/namespaces/inkscape"
   xmlns:sodipodi="http://sodipodi.sourceforge.net/DTD/sodipodi-0.dtd"
   xmlns="http://www.w3.org/2000/svg"
   xmlns:svg="http://www.w3.org/2000/svg">
  <defs
     id="defs8" />
  <sodipodi:namedview
     id="namedview6"
     pagecolor="#ffffff"
     bordercolor="#666666"
     borderopacity="1.0"
     inkscape:pageshadow="2"
     inkscape:pageopacity="0.0"
     inkscape:pagecheckerboard="0"
     showgrid="false"
     inkscape:zoom="32.375"
     inkscape:cx="11.984556"
     inkscape:cy="12"
     inkscape:window-width="2560"
     inkscape:window-height="1015"
     inkscape:window-x="0"
     inkscape:window-y="32"
     inkscape:window-maximized="1"
     inkscape:current-layer="svg4" />
  <path
     fill-rule="evenodd"
     clip-rule="evenodd"
     d="M 11.014955,2.8778727 C 10.096727,2.3086818 9.0298365,2 7.9310184,2 6.3823275,2 4.8970729,2.6131727 3.801982,3.7046364 2.7069002,4.7961 2.091682,6.2764364 2.091682,7.82 c 0,1.0156818 0.2663727,2.0039909 0.7605636,2.872182 -0.066364,0.446273 -0.0999,0.897909 -0.0999,1.351182 0,1.210454 0.2392273,2.409181 0.7040091,3.527545 0.4647909,1.118364 1.1460455,2.134546 2.0048637,2.990546 0.8588181,0.856 1.8783818,1.534909 3.0004818,1.998181 1.1221,0.463273 2.3247998,0.701728 3.5393458,0.701728 0.369454,0 0.737818,-0.02209 1.103181,-0.06582 C 13.994591,21.717818 15.016227,22 16.067046,22 c 0.767091,0 1.526636,-0.150545 2.235363,-0.443182 0.708728,-0.292545 1.352637,-0.721454 1.895091,-1.262 0.542364,-0.540636 0.972637,-1.182454 1.266182,-1.888818 0.293545,-0.706364 0.444636,-1.463455 0.444636,-2.228 0,-0.764545 -0.151091,-1.521636 -0.444636,-2.228 -0.089,-0.214182 -0.190545,-0.422364 -0.304,-0.623636 0.05982,-0.424182 0.09,-0.852819 0.09,-1.283 0,-1.210546 -0.239182,-2.4092276 -0.704,-3.5276095 C 20.080864,7.3973818 19.399591,6.3811909 18.540773,5.5252273 17.681955,4.6692545 16.662409,3.9902636 15.540318,3.5270091 14.418227,3.0637636 13.215591,2.8253364 12.001046,2.8253364 c -0.330091,0 -0.659182,0.0176 -0.986091,0.052536 z M 8.4890093,10.762 c 0.2257,0.386364 0.5375909,0.715364 0.9113363,0.961364 0.4951909,0.324 1.0216094,0.597545 1.5713364,0.816636 0.614636,0.256909 1.091545,0.474636 1.430636,0.653364 0.286728,0.141 0.547,0.330454 0.769364,0.56 0.168273,0.178454 0.261727,0.414636 0.261364,0.66 0.0072,0.173 -0.02691,0.345181 -0.09946,0.502363 -0.07254,0.157273 -0.181545,0.294909 -0.317909,0.401637 -0.364273,0.245091 -0.800091,0.361272 -1.238,0.33 -0.247636,0.0025 -0.494727,-0.023 -0.736636,-0.076 C 10.844864,15.528273 10.652955,15.467545 10.467682,15.39 10.3055,15.319818 10.0839,15.214455 9.8030093,15.074 9.5771184,14.953545 9.3256729,14.888818 9.069682,14.885364 c -0.2297545,-0.0095 -0.4543364,0.06982 -0.6273364,0.221272 -0.082518,0.07855 -0.1470091,0.174091 -0.1890181,0.28 -0.042009,0.105909 -0.060536,0.219637 -0.054318,0.333364 -0.00516,0.215636 0.059882,0.427182 0.1853363,0.602636 0.1511091,0.191546 0.3464909,0.343455 0.5693364,0.442728 0.8716636,0.377727 1.8165458,0.556545 2.7659998,0.523272 0.690909,0.01391 1.378545,-0.09809 2.029364,-0.330636 0.539909,-0.191727 1.010091,-0.540727 1.35,-1.002 0.333727,-0.487182 0.502818,-1.068455 0.482636,-1.658636 0.013,-0.482091 -0.107727,-0.958273 -0.348636,-1.376 -0.244728,-0.397455 -0.574364,-0.735819 -0.965364,-0.990728 -0.495,-0.319272 -1.020182,-0.589272 -1.568,-0.806 C 12.641137,11.096 12.5805,11.071727 12.518318,11.052 11.957046,10.82 11.534773,10.633818 11.251682,10.493364 10.998955,10.374818 10.770046,10.211 10.576318,10.01 10.413318,9.8388727 10.323409,9.6109818 10.325682,9.3746636 10.317864,9.1946727 10.3585,9.0158818 10.443409,8.8569818 10.528318,8.6980727 10.654409,8.5648909 10.808318,8.4713364 11.173227,8.2538 11.593137,8.1463818 12.017682,8.162 c 0.325727,-0.00341 0.650364,0.036955 0.965364,0.12 0.342091,0.098664 0.676909,0.2211909 1.002,0.3666636 0.131818,0.061191 0.275272,0.093473 0.420636,0.094673 0.105636,0.0028 0.210727,-0.016782 0.308273,-0.057455 0.09755,-0.040673 0.185363,-0.1015182 0.257727,-0.1785454 0.07645,-0.083591 0.135727,-0.1814273 0.174364,-0.2879273 0.03873,-0.1064909 0.056,-0.2195546 0.051,-0.3327455 0.0034,-0.2178636 -0.07273,-0.4295091 -0.214,-0.5953272 -0.191909,-0.2015453 -0.429819,-0.3534635 -0.693364,-0.4426726 -0.287,-0.1054 -0.583818,-0.182 -0.886,-0.2286636 C 12.9815,6.5507455 12.554137,6.5179636 12.126318,6.522 11.4725,6.5181273 10.822864,6.6275273 10.206346,6.8453364 c -0.5668731,0.1913727 -1.0729276,0.5295091 -1.466664,0.98 -0.3788727,0.4485909 -0.5791818,1.0210454 -0.5626727,1.608 -0.013446,0.4625 0.0941,0.9204816 0.312,1.3286636 z"
     fill="#000000"
     id="path2"
     style="stroke-width:0.909091" />
</svg>
