<svg width="192" height="192" viewBox="0 0 192 192" fill="none" xmlns="http://www.w3.org/2000/svg"><path d="M116.087 64S111.304 60 96 60c-7.652 0-22 4-22 16s14.348 16 22 20c7.652 4 22 8 22 20s-14.348 16-22 16c-15.304 0-20.087-4-20.087-4" stroke="#000" stroke-width="12" stroke-linecap="round" stroke-linejoin="round"/><path d="M30 96c0 36.451 29.55 66 66 66 3.51 0 6.957-.274 10.319-.802A38.84 38.84 0 0 0 131 170c21.539 0 39-17.461 39-39a38.84 38.84 0 0 0-8.802-24.681c.528-3.362.802-6.809.802-10.319 0-36.45-29.549-66-66-66-3.51 0-6.957.274-10.319.802A38.84 38.84 0 0 0 61 22c-21.54 0-39 17.46-39 39a38.84 38.84 0 0 0 8.802 24.681A66.49 66.49 0 0 0 30 96Z" stroke="#000" stroke-width="12" stroke-linecap="round" stroke-linejoin="round"/></svg>