<svg xmlns="http://www.w3.org/2000/svg" width="192" height="192" fill="none" viewBox="0 0 192 192"><path stroke="#000" stroke-linecap="round" stroke-linejoin="round" stroke-width="10" d="M28 129a29 29 0 0 0 25.115-14.5A12897 12897 0 0 1 62 99.17a12897 12897 0 0 1 8.885 15.33 29 29 0 0 0 50.23 0c1.607-2.783 5.922-10.223 8.885-15.33 2.963 5.107 7.278 12.547 8.885 15.33A29 29 0 0 0 164 129M25 97s9.34-16.091 11.885-20.5a29 29 0 0 1 50.23 0c1.607 2.783 5.922 10.223 8.885 15.33 2.963-5.107 7.278-12.547 8.885-15.33a29.002 29.002 0 0 1 50.23 0C157.66 80.909 167 97 167 97"/><rect width="142" height="142" x="25" y="25" stroke="#000" stroke-linecap="round" stroke-linejoin="round" stroke-width="12" rx="32"/></svg>