<?xml version="1.0" encoding="UTF-8" standalone="no"?>
<svg role="img" viewBox="0 0 24 24" xmlns="http://www.w3.org/2000/svg">
    <path d="M 6.782 14.374 C 6.779 15.417 5.935 16.263 4.892 16.266 C 3.848 16.264 3.002 15.418 3 14.374 C 3.003 13.331 3.848 12.486 4.892 12.484 L 6.782 12.484 L 6.782 14.374 Z M 7.735 14.374 C 7.738 13.331 8.583 12.486 9.626 12.484 C 10.668 12.486 11.513 13.331 11.516 14.374 L 11.516 19.109 C 11.514 20.152 10.669 20.997 9.626 21 C 8.582 20.997 7.737 20.152 7.735 19.109 L 7.735 14.374 Z M 9.626 6.782 C 8.583 6.779 7.738 5.934 7.735 4.892 C 7.737 3.848 8.582 3.003 9.626 3 C 10.669 3.003 11.514 3.848 11.516 4.892 L 11.516 6.782 L 9.626 6.782 Z M 9.626 7.735 C 10.669 7.738 11.513 8.582 11.516 9.626 C 11.513 10.669 10.669 11.513 9.626 11.516 L 4.892 11.516 C 3.848 11.514 3.003 10.669 3 9.626 C 3.003 8.582 3.848 7.737 4.892 7.735 L 9.626 7.735 Z M 17.217 9.626 C 17.22 8.582 18.065 7.737 19.109 7.735 C 20.152 7.737 20.997 8.582 21 9.626 C 20.997 10.669 20.152 11.514 19.109 11.516 L 17.217 11.516 L 17.217 9.626 Z M 16.266 9.626 C 16.263 10.669 15.417 11.514 14.374 11.516 C 13.331 11.513 12.486 10.668 12.484 9.626 L 12.484 4.892 C 12.486 3.848 13.331 3.003 14.374 3 C 15.418 3.002 16.264 3.848 16.266 4.892 L 16.266 9.626 Z M 14.374 17.217 C 15.418 17.219 16.264 18.065 16.266 19.109 C 16.264 20.152 15.418 20.998 14.374 21 C 13.331 20.997 12.486 20.152 12.484 19.109 L 12.484 17.217 L 14.374 17.217 Z M 14.374 16.266 C 13.33 16.263 12.485 15.417 12.484 14.374 C 12.486 13.331 13.331 12.486 14.374 12.484 L 19.109 12.484 C 20.152 12.486 20.997 13.331 21 14.374 C 20.998 15.418 20.152 16.264 19.109 16.266 L 14.374 16.266 Z"></path>
</svg>