<?xml version="1.0" encoding="UTF-8" standalone="no"?>
<!-- Created with Inkscape (http://www.inkscape.org/) -->

<svg
   version="1.1"
   id="svg2"
   width="192"
   height="192"
   viewBox="0 0 192 192"
   sodipodi:docname="slay_the_spire.svg"
   xmlns:inkscape="http://www.inkscape.org/namespaces/inkscape"
   xmlns:sodipodi="http://sodipodi.sourceforge.net/DTD/sodipodi-0.dtd"
   xmlns="http://www.w3.org/2000/svg"
   xmlns:svg="http://www.w3.org/2000/svg">
  <defs
     id="defs6" />
  <sodipodi:namedview
     id="namedview4"
     pagecolor="#ffffff"
     bordercolor="#000000"
     borderopacity="0.25"
     inkscape:showpageshadow="2"
     inkscape:pageopacity="0.0"
     inkscape:pagecheckerboard="0"
     inkscape:deskcolor="#d1d1d1"
     showgrid="false"
     showguides="true" />
  <g
     inkscape:groupmode="layer"
     inkscape:label="Image"
     id="g8">
    <path
       style="fill:#000000;fill-opacity:0;stroke:#000000;stroke-width:8;stroke-linecap:round;stroke-linejoin:round;stroke-miterlimit:6;stroke-dasharray:none;paint-order:stroke fill markers"
       d="m 144.55663,19.878382 c 0,0 9.02426,21.962103 9.02426,33.036685 0,0 0.57388,82.330893 -24.94918,119.205953 0,0 -21.94648,-4.73947 -55.648864,-22.9516 L 56.545578,133.16145 48.89032,115.87632 56.031776,118.85314 42.253386,81.623998 52.529913,88.502691 42.543498,53.899203 38.655793,32.703406 c 0,0 54.610997,27.404889 77.881527,31.054739 0,0 10.34491,-0.353606 28.01931,-43.879763 z"
       id="path302"
       sodipodi:nodetypes="ccccccccccccc" />
    <path
       style="fill:#000000;fill-opacity:0;stroke:#000000;stroke-width:8;stroke-linecap:round;stroke-linejoin:round;stroke-miterlimit:6;stroke-dasharray:none;paint-order:stroke fill markers"
       d="m 128.76071,171.6725 3.99021,-77.480563 c 0,0 -65.811861,-19.77622 -90.200361,-40.715605"
       id="path954"
       sodipodi:nodetypes="ccc" />
    <path
       style="fill:#000000;fill-opacity:0;stroke:#000000;stroke-width:8;stroke-linecap:round;stroke-linejoin:round;stroke-miterlimit:6;stroke-dasharray:none;paint-order:stroke fill markers"
       d="m 132.58522,94.229914 c 0,0 10.47033,-15.654952 20.80985,-42.071308"
       id="path956"
       sodipodi:nodetypes="cc" />
    <path
       style="fill:#000000;fill-opacity:0;stroke:#000000;stroke-width:8;stroke-linecap:round;stroke-linejoin:round;stroke-miterlimit:6;stroke-dasharray:none;paint-order:stroke fill markers"
       d="m 147.97365,105.05769 -1.66987,5.70834 -3.25535,6.89173 -2.58974,8.02778"
       id="path1012"
       sodipodi:nodetypes="cccc" />
    <path
       style="fill:#000000;fill-opacity:0;stroke:#000000;stroke-width:8;stroke-linecap:round;stroke-linejoin:round;stroke-miterlimit:6;stroke-dasharray:none;paint-order:stroke fill markers"
       d="m 68.480057,103.06624 11.540064,14.66791 c 0,0 6.115207,4.21635 13.411147,4.21635 7.295942,0 17.029562,5.22614 20.015312,12.73647 0,0 -7.13212,-5.82301 -17.234329,-5.82301 -10.102208,0 -16.250177,-11.12803 -16.250177,-11.12803"
       id="path1014"
       sodipodi:nodetypes="ccscsc" />
  </g>
</svg>
