<svg xmlns="http://www.w3.org/2000/svg" width="192" height="192" viewBox="0 0 192 192"><g fill="none" stroke="#000" stroke-linecap="round" stroke-linejoin="round" stroke-width="8"><path d="M144.557 19.878s9.024 21.962 9.024 33.037c0 0 .574 82.331-24.95 119.206 0 0-21.946-4.74-55.648-22.952l-16.437-16.008-7.656-17.285 7.142 2.977-13.779-37.229 10.277 6.879-9.987-34.604-3.887-21.196s54.61 27.405 77.881 31.055c0 0 10.345-.353 28.02-43.88"/><path d="m128.76 171.673 3.99-77.481s-65.81-19.776-90.2-40.716"/><path d="M132.585 94.23s10.47-15.655 20.81-42.071m-5.421 52.899-1.67 5.708-3.256 6.892-2.59 8.028m-71.978-22.62 11.54 14.668s6.115 4.217 13.411 4.217 17.03 5.226 20.016 12.736c0 0-7.133-5.823-17.235-5.823s-16.25-11.128-16.25-11.128"/></g></svg>