<svg xmlns="http://www.w3.org/2000/svg" width="192" height="192" fill="none" stroke="#000" stroke-width="12" stroke-linejoin="round" xmlns:v="https://vecta.io/nano"><path d="M30 104c0-36.451 29.549-66 66-66h0c36.451 0 66 29.549 66 66v56.613a9.39 9.39 0 0 1-9.387 9.387H39.387A9.39 9.39 0 0 1 30 160.613V104z"/><path d="M60 48L46 22m86 26l14-26" stroke-linecap="round"/><path d="M96 110H32l48 28 16-28zm0 0h64l-48 28-16-28z"/><path d="M58.913 82.592a12 12 0 0 0 15.678 6.494 12 12 0 0 0 6.494-6.494m29.828 0a11.99 11.99 0 0 0 2.602 3.893 12 12 0 0 0 13.077 2.601 12 12 0 0 0 3.893-2.601c1.114-1.114 1.998-2.437 2.602-3.893" stroke-linecap="round"/></svg>