<svg width="160" height="160" viewBox="0 0 160 160" fill="none" xmlns="http://www.w3.org/2000/svg">
<g clip-path="url(#clip0_221_295)">
<path fill-rule="evenodd" clip-rule="evenodd" d="M51.7372 58.074C50.826 58.4544 50.88 57.0908 50.8808 79.6756L50.8816 100.4L51.2652 100.88L51.6492 101.36L54.5044 101.412C57.6544 101.469 58.4636 101.341 58.6192 100.759C58.8504 99.8972 58.7276 58.6316 58.4932 58.3104C58.242 57.9668 52.4772 57.7644 51.7372 58.074ZM64.728 58.1344C64.2124 58.5112 65.1368 61.9724 65.88 62.448C65.99 62.5184 66.08 62.674 66.08 62.7936C66.08 63.1072 68.1348 64.9452 68.7928 65.22C69.0984 65.348 69.3872 65.5048 69.4344 65.5688C69.546 65.7212 71.8984 66.4 72.3136 66.4C72.7636 66.4 72.79 66.1764 72.8376 61.9732C72.8764 58.6 72.8552 58.2508 72.602 58.0932C72.1676 57.822 65.1048 57.8588 64.728 58.1344ZM28.96 69.14C28.564 69.2196 27.7544 69.3552 27.1608 69.4416C26.5672 69.528 25.812 69.7428 25.4832 69.9192C25.154 70.0956 24.7216 70.24 24.5224 70.24C24.3232 70.24 24.16 70.3032 24.16 70.3804C24.16 70.458 23.926 70.6172 23.64 70.7348C19.002 72.642 16.8576 79.6296 19.8096 83.2184C21.7672 85.5992 25.3128 87.41 29.006 87.9164C29.4276 87.974 30.0036 88.1156 30.286 88.2312C30.5688 88.3464 31.16 88.4888 31.6 88.5476C32.04 88.6064 32.616 88.756 32.88 88.8796C33.144 89.0036 33.6276 89.1472 33.9548 89.1988C34.282 89.2504 34.6452 89.3884 34.7624 89.5052C34.8792 89.622 35.1516 89.7732 35.3676 89.8408C37.7032 90.5728 37.9756 94.1608 35.8036 95.5876C34.5876 96.3864 30.656 97.0164 30.034 96.512C29.9272 96.4256 29.4316 96.2708 28.9324 96.1684C28.4332 96.066 27.9384 95.8784 27.8328 95.7512C27.7272 95.624 27.548 95.52 27.4348 95.52C27.2268 95.52 25.7284 94.4252 25.2744 93.9416C24.4016 93.0116 24.1932 92.96 21.2988 92.96C18.1848 92.96 17.6 93.1724 17.6 94.304C17.6 95.5036 19.2776 97.9184 20.8532 98.9868C21.22 99.2356 21.556 99.4852 21.6 99.5416C21.644 99.598 21.932 99.7588 22.24 99.8988C22.548 100.039 22.908 100.221 23.04 100.304C23.5428 100.619 24.6588 101.12 24.8584 101.12C24.9732 101.12 25.4932 101.259 26.0136 101.43C29.1764 102.464 36.3524 102.11 39.2904 100.776C39.6484 100.613 40.0292 100.48 40.1368 100.48C40.2448 100.48 40.528 100.347 40.7664 100.185C41.0048 100.023 41.5048 99.69 41.8772 99.4452C42.8776 98.788 44.2388 97.388 44.5968 96.6472C44.7052 96.4232 44.8612 96.132 44.9436 96C46.4888 93.522 45.7976 89.2028 43.4788 86.8464C42.4052 85.7556 39.9448 84.16 39.336 84.16C39.2144 84.16 38.864 84.0252 38.5568 83.8608C38.2496 83.696 37.6748 83.5076 37.2792 83.442C36.8836 83.3764 36.43 83.2548 36.2716 83.1712C36.1128 83.088 35.2848 82.9088 34.4316 82.7736C33.578 82.6384 32.808 82.472 32.72 82.404C32.632 82.336 32.2 82.2292 31.76 82.1664C31.32 82.1036 30.744 81.9564 30.48 81.8388C30.216 81.7216 29.82 81.5788 29.6 81.5216C25.8188 80.5388 25.1692 76.862 28.438 74.946C29.4656 74.344 32.6584 74.2872 33.7412 74.8516C34.1092 75.0432 34.4936 75.2 34.5964 75.2C34.8476 75.2 35.9328 75.9524 36.6732 76.64C38.0752 77.942 38.0024 77.92 40.9372 77.92C43.8456 77.92 44.48 77.6864 44.48 76.616C44.48 76.0752 43.7368 74.3852 43.4136 74.192C43.2964 74.1216 43.2 73.9892 43.2 73.8976C43.2 73.7244 41.8684 72.3592 41.4272 72.08C40.4836 71.4828 40.058 71.2 39.9076 71.0692C39.8128 70.9868 39.5608 70.866 39.3476 70.8008C39.1344 70.7356 38.852 70.5908 38.72 70.4788C38.588 70.3672 38.228 70.2228 37.92 70.1584C37.612 70.094 37.18 69.95 36.96 69.8384C36.74 69.7268 36.02 69.5464 35.36 69.438C34.7 69.3296 33.836 69.182 33.44 69.11C32.4972 68.9384 29.8736 68.956 28.96 69.14ZM90.24 69.2144C88.5636 69.4912 87.8292 69.6596 86.8 70.0036C85.772 70.3472 85.7932 70.3376 85.04 70.7956C84.688 71.0096 84.2208 71.278 84.002 71.3924C83.2504 71.7848 80.8696 74.0884 80.7164 74.572C80.6624 74.7412 80.5524 74.88 80.4712 74.88C80.3904 74.88 80.2168 75.114 80.0852 75.4C79.954 75.686 79.7844 76.028 79.7084 76.16C77.5416 79.9256 77.2852 90.2476 79.2648 94C79.404 94.264 79.5184 94.5588 79.5192 94.6552C79.5196 94.7516 79.664 94.9608 79.84 95.12C80.016 95.2792 80.16 95.4844 80.16 95.576C80.16 96.2972 83.4068 99.5832 84.44 99.9084C84.638 99.9704 84.8 100.083 84.8 100.158C84.8 100.234 85.07 100.382 85.4 100.488C85.73 100.595 86.0984 100.76 86.2188 100.856C88.142 102.389 96.5772 102.358 100.08 100.806C101.273 100.278 102.356 99.7336 102.578 99.5504C102.7 99.4504 103.232 99.0164 103.76 98.5864C105.167 97.4408 106.369 95.9788 106.63 95.0944C106.686 94.9044 106.838 94.6616 106.966 94.5548C107.095 94.448 107.2 94.2436 107.201 94.1004C107.202 93.9572 107.317 93.624 107.458 93.36C107.892 92.5468 107.919 91.0372 107.508 90.56L107.164 90.16H103.782H100.4L99.9744 90.5932C99.74 90.8312 99.5004 91.2444 99.442 91.5112C99.3832 91.778 99.268 92.038 99.1852 92.0892C99.1028 92.14 98.9368 92.4108 98.8164 92.6908C97.3616 96.074 91.6468 96.9408 88.582 94.2432C86.4476 92.3648 85.6844 87.866 86.4236 81.52C86.5812 80.168 86.9176 79.2176 87.7444 77.7916C88.1384 77.112 89.4476 76.0812 90.24 75.8264C90.46 75.756 90.928 75.5892 91.28 75.456C93.4628 74.6308 96.728 75.6556 98.3644 77.68C98.6744 78.0632 99.52 79.6588 99.52 79.86C99.52 79.9816 99.7488 80.2968 100.028 80.5604L100.536 81.04H103.668C107.425 81.04 107.84 80.8908 107.84 79.542C107.84 78.8072 107.212 76.7544 106.761 76.0136C106.26 75.1916 105.675 74.3252 105.44 74.0568C105.308 73.906 105.12 73.6876 105.022 73.5716C104.78 73.2824 103.658 72.2864 103.347 72.0844C103.208 71.994 102.848 71.7624 102.547 71.5696C102.246 71.3768 101.926 71.1544 101.835 71.0756C101.744 70.9968 101.479 70.8844 101.246 70.8256C101.013 70.7672 100.714 70.6116 100.583 70.4796C100.451 70.348 100.212 70.2384 100.052 70.2364C99.8912 70.2344 99.4552 70.0944 99.0824 69.9252C98.4588 69.6424 97.7688 69.5088 94.88 69.1132C93.4364 68.9152 91.8408 68.95 90.24 69.2144ZM124.88 69.1316C124.528 69.2056 123.76 69.346 123.174 69.4432C122.588 69.5408 121.834 69.7596 121.5 69.93C121.166 70.1004 120.772 70.24 120.626 70.24C120.479 70.24 120.276 70.3408 120.173 70.4644C120.071 70.5876 119.812 70.7324 119.599 70.786C118.528 71.0548 116.13 73.2088 114.951 74.96C113.948 76.4496 113.082 78.392 112.797 79.79C112.693 80.3016 112.507 81.1132 112.384 81.5936C111.795 83.892 112.345 91.4976 113.2 92.8752C113.311 93.054 113.452 93.416 113.514 93.68C113.575 93.944 113.719 94.268 113.834 94.4C113.948 94.532 114.094 94.8108 114.158 95.02C114.446 95.9636 117.201 99.2 117.716 99.2C117.801 99.2 117.995 99.3372 118.147 99.5052C120.738 102.369 131.106 102.846 135.36 100.297C135.492 100.218 135.832 100.047 136.115 99.9168C137.316 99.3644 139.138 97.9128 140.159 96.6956C141.157 95.5048 141.631 94.0708 141.302 93.24L141.128 92.8H137.484H133.841L132.64 94.048C129.507 97.3052 124.374 97.352 122.283 94.1424C122.174 93.976 121.906 93.568 121.685 93.236C121.464 92.9036 121.238 92.4356 121.183 92.196C121.127 91.956 120.966 91.58 120.825 91.36C120.636 91.0656 120.567 90.558 120.564 89.44L120.56 87.92L131.062 87.84L141.564 87.76L141.997 87.3268L142.43 86.8932L142.353 84.6068C142.179 79.4624 141.038 76.3332 138.2 73.2152C137.368 72.3016 135.552 70.88 135.216 70.88C135.143 70.88 134.912 70.7452 134.702 70.5808C134.492 70.4164 134.068 70.228 133.76 70.1624C133.452 70.0968 133.02 69.9452 132.8 69.8256C131.679 69.2172 126.592 68.7712 124.88 69.1316ZM65.44 70.8264C64.7904 71.0712 64.8 70.8476 64.8 85.9612C64.8 95.1392 64.8576 100.609 64.9568 100.794C65.2284 101.301 66.0304 101.44 68.6924 101.44C71.4776 101.44 72.1876 101.298 72.4668 100.685C72.824 99.9008 72.6972 71.6264 72.3344 71.1776C72.0336 70.8056 66.2732 70.512 65.44 70.8264ZM129.743 74.8932C130.058 75.062 130.392 75.2 130.486 75.2C132.171 75.2 135.268 82.2296 133.827 82.7828C133.205 83.0216 120.845 82.8872 120.64 82.6396C120.145 82.0432 120.828 78.468 121.581 77.7152C121.679 77.6168 121.76 77.4352 121.76 77.312C121.76 76.5556 124.642 74.6468 126 74.504C127.23 74.3748 129.148 74.5744 129.743 74.8932Z" fill="black"/>
</g>
<defs>
<clipPath id="clip0_221_295">
<rect width="160" height="160" fill="white"/>
</clipPath>
</defs>
</svg>
