<svg width="192" height="192" viewBox="0 0 50.8 50.8" xml:space="preserve" xmlns="http://www.w3.org/2000/svg"><g transform="matrix(1.19968 0 0 1.20055 -5.396 -4.72)" style="stroke-width:.833254"><circle style="fill:none;stroke:#000;stroke-width:8.49603;stroke-linecap:round;stroke-linejoin:round;stroke-dasharray:none;stroke-opacity:1" cx="92.313" cy="80.716" r="25.915" transform="translate(1.454 -1.442) scale(.31139)"/><path style="fill:none;stroke:#000;stroke-width:9.99902;stroke-linecap:round;stroke-linejoin:miter;stroke-dasharray:none;stroke-opacity:1" d="M80.318 169.787s-.695-4.662.434-14.577c.902-7.93 3.332-15.935 5.869-22.026 3.05-7.328 8.45-16.122 8.45-16.122" transform="scale(.26458)"/><path style="fill:none;stroke:#000;stroke-width:9.99902;stroke-linecap:round;stroke-linejoin:miter;stroke-dasharray:none;stroke-opacity:1" d="M88.23 63.64s-14.427-.539-33.808 1.711c-19.254 2.235-34.472 8.655-34.472 8.655" transform="translate(.542 1.502) scale(.26458)"/><path style="fill:none;stroke:#000;stroke-width:9.99902;stroke-linecap:round;stroke-linejoin:round;stroke-dasharray:none;stroke-opacity:1" d="M87.544 110.817s-15.182-.918-31.781 2.06c-21.903 3.928-32.72 11.73-32.72 11.73" transform="translate(-.276 -.87) scale(.26458)"/></g></svg>