<svg width="192" height="192" viewBox="0 0 192 192" fill="none" xmlns="http://www.w3.org/2000/svg"><path d="M110 124c15.464 0 28-12.536 28-28s-12.536-28-28-28-28 12.536-28 28 12.536 28 28 28Z" stroke="#000" stroke-width="12" stroke-linecap="round"/><path d="M89 117s-18 19-18 45" stroke="#000" stroke-width="12" stroke-linecap="round" stroke-linejoin="round"/><path d="M30 77c34-11 65-5 65-5m-65 46.959c32-11 56-6 56-6" stroke="#000" stroke-width="8" stroke-linecap="round" stroke-linejoin="round"/><path d="M30 156V36a6 6 0 0 1 6-6h120a6 6 0 0 1 6 6v120a6 6 0 0 1-6 6H36a6 6 0 0 1-6-6Z" stroke="#000" stroke-width="12" stroke-linecap="round" stroke-linejoin="round"/></svg>