<?xml version="1.0" standalone="no"?>
<!DOCTYPE svg PUBLIC "-//W3C//DTD SVG 20010904//EN"
 "http://www.w3.org/TR/2001/REC-SVG-20010904/DTD/svg10.dtd">
<svg version="1.0" xmlns="http://www.w3.org/2000/svg"
 width="192" height="192" viewBox="0 0 192 192"
 preserveAspectRatio="xMidYMid meet">
<metadata>
Created by potrace 1.16, written by Peter Selinger 2001-2019
</metadata>
<g transform="translate(0.000000,256.000000) scale(0.100000,-0.100000)"
fill="#000000" stroke="none">
<path d="M2550 1285 l0 -1275 -1277 -3 -1278 -2 1283 -3 1282 -2 0 1280 c0
704 -2 1280 -5 1280 -3 0 -5 -574 -5 -1275z"/>
<path d="M1121 2264 c-84 -18 -151 -52 -231 -119 -113 -94 -143 -109 -240
-115 -47 -3 -91 -9 -99 -14 -20 -13 -9 -126 19 -200 22 -58 93 -142 149 -177
20 -13 24 -24 27 -87 3 -61 18 -119 48 -193 6 -13 -1 -18 -27 -23 -46 -9 -83
-39 -108 -87 -11 -22 -36 -62 -57 -89 -110 -146 -122 -346 -31 -506 80 -140
273 -273 469 -323 470 -118 975 119 1032 486 22 137 -22 273 -125 391 -29 33
-60 72 -70 86 -9 14 -35 31 -57 37 -41 13 -53 36 -22 45 48 15 83 36 98 58 26
42 56 238 50 331 -10 137 -81 248 -178 277 -30 9 -42 20 -59 54 -39 82 -132
141 -262 168 -92 19 -239 19 -326 0z m303 -119 c59 -12 164 -60 154 -70 -2 -2
-32 3 -68 12 -45 10 -101 14 -180 11 -137 -5 -154 -12 -292 -123 -132 -107
-208 -125 -334 -81 l-39 13 46 5 c69 8 145 47 229 118 80 67 151 105 222 119
68 14 187 12 262 -4z m87 -418 c35 -23 43 -42 84 -189 9 -33 29 -73 47 -93
l31 -36 -19 -35 c-31 -58 -135 -149 -201 -175 -48 -19 -77 -23 -168 -24 -104
0 -114 2 -175 32 -129 63 -229 201 -238 326 l-5 60 33 -6 c18 -4 39 -7 47 -7
10 0 11 -4 3 -19 -15 -29 -12 -104 6 -129 20 -28 58 -28 78 0 18 25 22 113 6
123 -23 14 -6 23 55 27 54 5 88 17 198 71 72 36 141 72 152 81 26 20 26 20 66
-7z m-677 -521 c23 -13 57 -27 76 -31 46 -10 60 -22 60 -53 0 -24 -2 -25 -50
-19 -60 7 -153 54 -158 80 -3 17 13 47 26 47 3 0 24 -11 46 -24z m966 5 c8
-16 5 -26 -15 -50 -26 -30 -106 -74 -157 -85 -23 -5 -27 -2 -33 25 -7 32 4 49
33 49 21 0 85 36 106 59 24 26 52 27 66 2z m120 -173 c57 -106 50 -252 -15
-334 l-23 -29 -7 30 c-15 65 -48 134 -80 165 -19 19 -36 32 -38 29 -2 -2 -15
-25 -30 -50 -30 -53 -102 -122 -153 -146 l-35 -17 6 -58 c8 -69 -2 -153 -21
-172 -33 -34 -357 -47 -413 -16 -26 13 -45 99 -38 171 l5 58 -45 15 c-85 29
-202 122 -240 191 -11 19 -12 19 -31 1 -19 -17 -65 -100 -76 -139 -15 -51 -56
58 -56 149 0 65 29 162 54 183 11 9 25 5 62 -18 27 -17 76 -37 108 -46 33 -8
63 -21 68 -27 15 -24 8 -38 -19 -38 -53 0 -58 -14 -21 -56 53 -61 79 -82 147
-116 l64 -32 17 22 c10 12 20 27 22 32 2 7 30 6 81 -2 75 -11 149 -6 234 18
17 5 25 -1 38 -25 l16 -31 37 19 c54 28 142 126 142 158 0 7 -9 13 -20 13 -37
0 -21 29 23 41 57 15 129 55 163 90 15 16 31 29 34 29 4 0 22 -28 40 -62z
m-763 27 c88 -23 212 -19 301 9 21 7 22 5 22 -57 l0 -65 -47 -24 c-40 -19 -64
-23 -143 -23 -97 0 -147 11 -189 44 -22 17 -23 23 -17 75 4 31 9 56 11 56 2 0
30 -7 62 -15z"/>
<path d="M1336 1558 c-9 -12 -16 -41 -16 -63 0 -50 23 -85 55 -85 32 0 55 35
55 85 0 50 -23 85 -55 85 -13 0 -31 -10 -39 -22z"/>
<path d="M1082 1348 c-18 -18 -14 -35 14 -57 33 -26 104 -28 139 -5 28 18 34
59 9 68 -28 11 -150 6 -162 -6z"/>
</g>
</svg>
