<svg width="192" height="192" viewBox="0 0 192 192" fill="none" xmlns="http://www.w3.org/2000/svg"><path d="M138 170c-50 0-116 0-116-45 0-37 58-69 66-85s-52-8-52-8 28-10 60-10 23 25 23 25c-8 24-57 59-55 73 6 8 56-14 74-14m0 64a32.007 32.007 0 0 0 22.627-9.373A31.987 31.987 0 0 0 170 138a32.007 32.007 0 0 0-9.373-22.627A31.987 31.987 0 0 0 138 106" stroke="#000" stroke-width="12" stroke-linecap="round" stroke-linejoin="round"/><circle cx="129" cy="139" r="13" stroke="#000" stroke-width="10" stroke-linecap="round" stroke-linejoin="round"/><circle cx="155" cy="132" r="13" stroke="#000" stroke-width="10" stroke-linecap="round" stroke-linejoin="round"/></svg>