<svg width="192" height="192" viewBox="0 0 192 192" fill="none" xmlns="http://www.w3.org/2000/svg"><path d="M138 170c-50 0-116 0-116-45 0-37 58-69 66-85s-52-8-52-8 28-10 60-10 23 25 23 25c-8 24-55 57-53 71 6 8 50-15 70-15m2 67a31.996 31.996 0 0 0 22.627-9.373 31.996 31.996 0 0 0 0-45.254C154.626 109.371 147.5 103 136 103" stroke="#000" stroke-width="12" stroke-linecap="round" stroke-linejoin="round"/><path d="M129 151c7.18 0 13-5.82 13-13s-5.82-13-13-13-13 5.82-13 13 5.82 13 13 13Zm26-6c7.18 0 13-5.82 13-13s-5.82-13-13-13-13 5.82-13 13 5.82 13 13 13Z" stroke="#000" stroke-width="10" stroke-linecap="round" stroke-linejoin="round"/></svg>