<?xml version="1.0" standalone="no"?>
<!DOCTYPE svg PUBLIC "-//W3C//DTD SVG 20010904//EN"
 "http://www.w3.org/TR/2001/REC-SVG-20010904/DTD/svg10.dtd">
<svg version="1.0" xmlns="http://www.w3.org/2000/svg"
 width="192" height="192" viewBox="0 0 192 192"
 preserveAspectRatio="xMidYMid meet">
<metadata>
Created by potrace 1.16, written by Peter Selinger 2001-2019
</metadata>
<g transform="translate(0.000000,512.000000) scale(0.100000,-0.100000)"
fill="#000000" stroke="none">
<path d="M0 2560 l0 -2560 2560 0 2560 0 0 2560 0 2560 -2560 0 -2560 0 0
-2560z m2960 1635 l5 -130 265 -5 265 -5 3 -138 3 -138 127 3 127 3 3 138 3
137 139 0 140 0 0 -270 0 -270 -140 0 -140 0 0 -140 0 -141 143 3 142 3 3 138
3 138 122 -3 122 -3 3 -267 2 -267 138 -3 137 -3 3 -137 3 -138 129 0 130 0 0
-130 0 -129 -127 -3 -128 -3 -5 -265 -5 -265 -138 -3 -138 -3 3 -127 3 -127
138 -3 137 -3 0 -139 0 -140 -270 0 -270 0 0 -270 0 -270 -140 0 -139 0 -3
138 -3 137 -127 3 -128 3 0 -136 0 -135 -540 0 -540 0 0 135 0 135 -140 0
-139 0 -3 -137 -3 -138 -125 0 -125 0 -3 267 -2 268 -408 2 -407 3 -3 137 -3
138 -267 2 -267 3 -3 267 -2 267 -128 3 -127 3 0 125 0 125 265 5 265 5 0 125
0 125 -137 3 -137 3 -3 137 -3 137 -125 5 -125 5 -3 268 -2 267 267 -2 268 -3
3 -137 3 -138 267 -2 267 -3 3 -127 3 -128 129 0 130 0 2 268 3 267 138 3 137
3 0 269 0 270 130 0 129 0 3 -137 3 -138 135 0 135 0 3 137 3 137 127 3 127 3
3 120 c1 66 4 126 7 133 3 10 37 12 137 10 l133 -3 5 -130z"/>
<path d="M2420 3380 l0 -140 130 0 130 0 0 140 0 140 -130 0 -130 0 0 -140z"/>
<path d="M2964 2967 c-2 -7 -3 -69 -2 -138 l3 -124 265 0 265 0 0 135 0 135
-263 3 c-210 2 -264 0 -268 -11z"/>
<path d="M1698 2433 c-8 -10 -10 -113 -5 -400 4 -212 9 -389 13 -392 3 -3 303
-5 667 -5 l662 2 3 131 3 131 -541 0 -540 0 0 140 0 140 140 0 141 0 -3 131
-3 131 -262 3 c-216 2 -265 0 -275 -12z"/>
<path d="M3044 2167 c-2 -7 -3 -69 -2 -138 l3 -124 135 0 135 0 0 135 0 135
-133 3 c-103 2 -134 0 -138 -11z"/>
</g>
</svg>
