<svg width="192" height="192" fill="none" xmlns="http://www.w3.org/2000/svg"><circle cx="96" cy="96" r="16" stroke="#000" stroke-width="12" stroke-linecap="round" stroke-linejoin="round"/><path d="M66.302 66.302C58.7 73.901 54 84.401 54 96c0 11.598 4.701 22.098 12.302 29.698l-22.628 22.628C30.283 134.935 22 116.435 22 96c0-20.435 8.283-38.935 21.674-52.326l22.628 22.628Zm59.396 0C133.299 73.901 138 84.401 138 96c0 11.598-4.701 22.098-12.302 29.698l22.628 22.628C161.717 134.935 170 116.435 170 96c0-20.435-8.283-38.935-21.674-52.326l-22.628 22.628Z" stroke="#000" stroke-width="12" stroke-linecap="round" stroke-linejoin="round"/></svg>