<svg xmlns="http://www.w3.org/2000/svg" width="192" height="192" fill="none" viewBox="0 0 192 192"><path stroke="#000" stroke-linecap="round" stroke-linejoin="round" stroke-width="12" d="M59 88h74a6 6 0 0 1 6 6v70a6 6 0 0 1-6 6H59a6 6 0 0 1-6-6V94a6 6 0 0 1 6-6Z"/><path stroke="#000" stroke-linecap="round" stroke-width="12" d="M96 104v9m21.651 3.5-7.795 4.5m-35.506-4.5 7.794 4.5M96 145v9m-13.856-17-7.795 4.5m35.507-4.5 7.795 4.5"/><circle cx="96" cy="129" r="16" stroke="#000" stroke-linejoin="round" stroke-width="12"/><circle cx="78" cy="56" r="3" stroke="#000" stroke-linejoin="round" stroke-width="6"/><circle cx="114" cy="56" r="3" stroke="#000" stroke-linejoin="round" stroke-width="6"/><path stroke="#000" stroke-linejoin="round" stroke-width="12" d="M131.899 70H60.101c-3.714 0-6.514-3.349-5.328-6.868C58.755 51.327 69.601 33 96 33c26.399 0 37.245 18.327 41.227 30.132 1.186 3.52-1.614 6.868-5.328 6.868Z"/><path stroke="#000" stroke-linecap="round" stroke-linejoin="round" stroke-width="12" d="M71 37 58 22m63 15 13-15"/></svg>