<svg width="192" height="192" viewBox="0 0 192 192" fill="none" xmlns="http://www.w3.org/2000/svg"><path d="M25 31a6 6 0 0 1 6-6h130a6 6 0 0 1 6 6v130a6 6 0 0 1-6 6H31a6 6 0 0 1-6-6V31Z" stroke="#000" stroke-width="12" stroke-linecap="round" stroke-linejoin="round"/><path d="M25 55h142M51 126a6 6 0 0 1 6-6h22a6 6 0 0 1 6 6v10a6 6 0 0 1-6 6H57a6 6 0 0 1-6-6v-10Zm56-42a6 6 0 0 1 6-6h22a6 6 0 0 1 6 6v14a6 6 0 0 1-6 6h-22a6 6 0 0 1-6-6V84Zm-56-2h34m22 40h34M61 55V25m35 30V25m35 30V25m-80 75h34m22 40h34" stroke="#000" stroke-width="10" stroke-linecap="round" stroke-linejoin="round"/></svg>