<svg xmlns="http://www.w3.org/2000/svg" width="192" height="192" fill="none"><path stroke="#000" stroke-linecap="round" stroke-width="10" d="M96 103v9m20.787 2.996-7.794 4.5m-33.775-4.5 7.794 4.5M96 142v9m-12.988-16.504-7.794 4.5m33.775-4.5 7.794 4.5"/><circle cx="96" cy="127" r="15" stroke="#000" stroke-linejoin="round" stroke-width="10"/><path stroke="#000" stroke-linecap="round" stroke-linejoin="round" stroke-width="12" d="M138 71v17M54 71v17"/><circle cx="79" cy="63" r="3" stroke="#000" stroke-linejoin="round" stroke-width="6"/><circle cx="113" cy="63" r="3" stroke="#000" stroke-linejoin="round" stroke-width="6"/><path stroke="#000" stroke-linecap="round" stroke-linejoin="round" stroke-width="12" d="M74 37 64 22m55 15 10-15M54 84h84v80a6 6 0 0 1-6 6H60a6 6 0 0 1-6-6zm0-13c0-4.859 1.086-9.67 3.197-14.16 2.11-4.488 5.204-8.567 9.105-12.003 3.9-3.436 8.53-6.161 13.625-8.02C85.023 34.956 90.484 34 96 34s10.977.957 16.073 2.816c5.095 1.86 9.725 4.585 13.625 8.021s6.994 7.515 9.105 12.004S138 66.14 138 71"/></svg>