<?xml version="1.0" encoding="UTF-8" standalone="no"?>
<!-- Created with Inkscape (http://www.inkscape.org/) -->

<svg
   width="24"
   height="24"
   viewBox="0 0 6.3499999 6.3500002"
   version="1.1"
   id="svg8"
   inkscape:version="1.1.1 (3bf5ae0d25, 2021-09-20)"
   sodipodi:docname="smartpack_kernel_manager.svg"
   xmlns:inkscape="http://www.inkscape.org/namespaces/inkscape"
   xmlns:sodipodi="http://sodipodi.sourceforge.net/DTD/sodipodi-0.dtd"
   xmlns="http://www.w3.org/2000/svg"
   xmlns:svg="http://www.w3.org/2000/svg"
   xmlns:rdf="http://www.w3.org/1999/02/22-rdf-syntax-ns#"
   xmlns:cc="http://creativecommons.org/ns#"
   xmlns:dc="http://purl.org/dc/elements/1.1/">
  <defs
     id="defs2">
    <marker
       inkscape:stockid="Arrow1Lend"
       orient="auto"
       refY="0.0"
       refX="0.0"
       id="Arrow1Lend"
       style="overflow:visible;"
       inkscape:isstock="true">
      <path
         id="path844"
         d="M 0.0,0.0 L 5.0,-5.0 L -12.5,0.0 L 5.0,5.0 L 0.0,0.0 z "
         style="fill-rule:evenodd;stroke:#000000;stroke-width:1.0pt;"
         transform="scale(0.8) rotate(180) translate(12.5,0)" />
    </marker>
    <marker
       inkscape:stockid="Arrow1Lstart"
       orient="auto"
       refY="0.0"
       refX="0.0"
       id="Arrow1Lstart"
       style="overflow:visible"
       inkscape:isstock="true">
      <path
         id="path841"
         d="M 0.0,0.0 L 5.0,-5.0 L -12.5,0.0 L 5.0,5.0 L 0.0,0.0 z "
         style="fill-rule:evenodd;stroke:#000000;stroke-width:1.0pt"
         transform="scale(0.8) translate(12.5,0)" />
    </marker>
    <pattern
       y="0"
       x="0"
       height="6"
       width="6"
       patternUnits="userSpaceOnUse"
       id="EMFhbasepattern" />
    <pattern
       y="0"
       x="0"
       height="6"
       width="6"
       patternUnits="userSpaceOnUse"
       id="EMFhbasepattern-1" />
    <pattern
       y="0"
       x="0"
       height="6"
       width="6"
       patternUnits="userSpaceOnUse"
       id="EMFhbasepattern-6" />
    <pattern
       y="0"
       x="0"
       height="6"
       width="6"
       patternUnits="userSpaceOnUse"
       id="EMFhbasepattern-15" />
    <pattern
       y="0"
       x="0"
       height="6"
       width="6"
       patternUnits="userSpaceOnUse"
       id="EMFhbasepattern-17" />
    <pattern
       y="0"
       x="0"
       height="6"
       width="6"
       patternUnits="userSpaceOnUse"
       id="EMFhbasepattern-2" />
    <pattern
       y="0"
       x="0"
       height="6"
       width="6"
       patternUnits="userSpaceOnUse"
       id="EMFhbasepattern-3" />
    <pattern
       y="0"
       x="0"
       height="6"
       width="6"
       patternUnits="userSpaceOnUse"
       id="EMFhbasepattern-61" />
    <pattern
       y="0"
       x="0"
       height="6"
       width="6"
       patternUnits="userSpaceOnUse"
       id="EMFhbasepattern-4" />
    <pattern
       y="0"
       x="0"
       height="6"
       width="6"
       patternUnits="userSpaceOnUse"
       id="EMFhbasepattern-37" />
    <pattern
       y="0"
       x="0"
       height="6"
       width="6"
       patternUnits="userSpaceOnUse"
       id="EMFhbasepattern-12" />
  </defs>
  <sodipodi:namedview
     id="base"
     pagecolor="#ffffff"
     bordercolor="#666666"
     borderopacity="1.0"
     inkscape:pageopacity="0.0"
     inkscape:pageshadow="2"
     inkscape:zoom="32"
     inkscape:cx="12.703125"
     inkscape:cy="12.015625"
     inkscape:document-units="px"
     inkscape:current-layer="layer2"
     showgrid="false"
     units="px"
     inkscape:window-width="1920"
     inkscape:window-height="1017"
     inkscape:window-x="-8"
     inkscape:window-y="-8"
     inkscape:window-maximized="1"
     inkscape:pagecheckerboard="0" />
  <metadata
     id="metadata5">
    <rdf:RDF>
      <cc:Work
         rdf:about="">
        <dc:format>image/svg+xml</dc:format>
        <dc:type
           rdf:resource="http://purl.org/dc/dcmitype/StillImage" />
      </cc:Work>
    </rdf:RDF>
  </metadata>
  <g
     inkscape:groupmode="layer"
     id="layer2"
     inkscape:label="Layer 2">
    <path
       id="path5971"
       d="m 5.143422,3.4360235 c 0.00938,-0.08439 0.01877,-0.168783 0.01877,-0.259426 0,-0.09064 -0.00938,-0.175034 -0.01877,-0.259426 l 0.5599746,-0.437586 c 0.050054,-0.04063 0.062567,-0.109397 0.031284,-0.168783 L 5.2028607,1.3949975 c -0.021898,-0.04376 -0.068824,-0.06564 -0.1157487,-0.06564 -0.015643,0 -0.031284,0.0031 -0.043797,0.0063 L 4.3832331,1.6013345 C 4.2455856,1.4950635 4.0954249,1.4075465 3.9358793,1.3419085 L 3.8357721,0.6417235 c -0.00939,-0.06564 -0.065695,-0.112522 -0.1313906,-0.112522 H 2.643871 c -0.065695,0 -0.1188773,0.04688 -0.1282623,0.112522 l -0.1001072,0.700138 c -0.1626742,0.06564 -0.3097066,0.156281 -0.4473539,0.259426 L 1.3080658,1.3356105 c -0.015642,-0.0031 -0.031283,-0.0063 -0.046925,-0.0063 -0.046925,0 -0.090722,0.02188 -0.1157489,0.06564 l -0.52869114,0.915805 c -0.034412,0.05939 -0.01877,0.12815 0.031283,0.168783 l 0.55997454,0.437586 c -0.012513,0.08439 -0.01877,0.171909 -0.01877,0.259426 0,0.08752 0.00626,0.175034 0.01877,0.259426 l -0.55997454,0.43446 c -0.050054,0.04063 -0.062567,0.112523 -0.031283,0.17191 l 0.52869114,0.915804 c 0.025027,0.04063 0.068824,0.06564 0.1188772,0.06564 0.015642,0 0.031283,-0.0031 0.043797,-0.0094 l 0.6600818,-0.262552 c 0.1376473,0.103145 0.2846797,0.190663 0.4473539,0.259426 l 0.1001072,0.700138 c 0.00939,0.06251 0.062567,0.109396 0.1282623,0.109396 h 1.0605105 c 0.065695,0 0.1220054,-0.04688 0.1313906,-0.109396 l 0.1001072,-0.700138 c 0.1595456,-0.06876 0.3097063,-0.156281 0.4473538,-0.259426 l 0.6600819,0.262552 c 0.015643,0.0063 0.031283,0.0094 0.046925,0.0094 0.043797,0 0.090722,-0.02501 0.1126204,-0.06564 l 0.5318196,-0.915804 c 0.031283,-0.05939 0.01877,-0.131276 -0.034412,-0.17191 z M 4.6178593,2.9828095 c 0.012513,0.08127 0.015643,0.137527 0.015643,0.193788 0,0.05626 -0.00626,0.112522 -0.015643,0.193788 l -0.03754,0.296934 0.2377544,0.187536 0.28468,0.221919 -0.1845727,0.318813 -0.3378617,-0.134402 -0.275295,-0.112522 -0.2377545,0.181286 c -0.1126204,0.08439 -0.2221129,0.146904 -0.331605,0.193788 l -0.2784231,0.112522 -0.043797,0.300059 -0.053182,0.35632 H 2.9911177 L 2.9379357,4.9363185 2.8972667,4.6362595 2.6157153,4.5237375 C 2.5030953,4.4737275 2.3967314,4.4143415 2.2903675,4.3362005 L 2.0494846,4.1486635 1.7679332,4.2643115 1.4331998,4.3987135 1.2454988,4.0767745 1.533307,3.8548555 1.7679332,3.6704445 1.7303932,3.3703855 c -0.00626,-0.08127 -0.012514,-0.140652 -0.012514,-0.193788 0,-0.05314 0.00626,-0.115648 0.012514,-0.193788 l 0.03754,-0.300059 -0.2346262,-0.184411 -0.2878082,-0.221919 0.187701,-0.321938 0.3347334,0.137527 0.2752947,0.109396 0.2408829,-0.17816 c 0.1126206,-0.08752 0.2221128,-0.150029 0.3284767,-0.193788 L 2.894139,1.7138095 2.937936,1.4168765 2.991118,1.0574305 h 0.3660169 l 0.050054,0.359446 0.043797,0.296933 0.2815515,0.115648 c 0.1126204,0.04688 0.2189842,0.109397 0.3253484,0.187537 l 0.2408827,0.184411 0.2815516,-0.112522 0.3347334,-0.134401 0.1845725,0.318812 -0.2815514,0.225045 -0.2377545,0.184411 z M 2.8816255,2.2639185 h 0.115749 c 0.03754,0 0.068824,0.03126 0.068824,0.06876 v 0.243798 h 0.2158561 v -0.243798 c 0,-0.03751 0.031283,-0.06876 0.071952,-0.06876 h 0.1157489 c 0.03754,0 0.068824,0.03126 0.068824,0.06876 v 0.243798 c 0.1282623,0.0031 0.2283696,0.109397 0.2283696,0.234421 h 0.2502676 c 0.03754,0 0.068824,0.03438 0.068824,0.07189 v 0.115648 c 0,0.03751 -0.031284,0.06876 -0.068824,0.06876 H 3.7669485 v 0.215667 h 0.2502676 c 0.03754,0 0.068824,0.03438 0.068824,0.07189 v 0.115648 c 0,0.03751 -0.031284,0.06876 -0.068824,0.06876 H 3.7669485 v 0 c 0,0.128151 -0.1001073,0.231296 -0.2283696,0.237547 v 0.240672 c 0,0.03751 -0.031284,0.07189 -0.068824,0.07189 H 3.354006 c -0.040669,0 -0.071952,-0.03438 -0.071952,-0.07189 V 3.7767075 H 3.0661979 v 0.240672 c 0,0.03751 -0.031284,0.07189 -0.068824,0.07189 h -0.115749 c -0.040669,0 -0.071952,-0.03438 -0.071952,-0.07189 v -0.240672 h -0.00626 c -0.1282623,0 -0.2346262,-0.106271 -0.2346262,-0.237547 v 0 H 2.3310321 c -0.03754,0 -0.068824,-0.03126 -0.068824,-0.06876 v -0.115648 c 0,-0.03751 0.031284,-0.07189 0.068824,-0.07189 H 2.5687867 V 3.0671955 H 2.3310321 c -0.03754,0 -0.068824,-0.03126 -0.068824,-0.06876 v -0.115648 c 0,-0.03751 0.031284,-0.07189 0.068824,-0.07189 h 0.2377546 c 0,-0.12815 0.1063639,-0.234421 0.2346262,-0.234421 h 0.00626 v -0.243798 c 0,-0.03751 0.031283,-0.06876 0.071953,-0.06876 z m 0.5787447,0.618871 H 2.8753689 v 0.587616 h 0.5850013 z"
       style="fill:#000000;fill-opacity:1;fill-rule:evenodd;stroke:none;stroke-width:0.08274484"
       inkscape:connector-curvature="0" />
  </g>
</svg>
