<svg xmlns="http://www.w3.org/2000/svg" width="192" height="192" fill="none" stroke="#000" stroke-linejoin="round" viewBox="0 0 192 192"><path stroke-width="12" d="M124.829 114.289V43.066m-24.672 99.311H58.134A8.115 8.115 0 0 1 50 134.244v-13.936m0-77.242V30.134A8.116 8.116 0 0 1 58.134 22h58.561a8.116 8.116 0 0 1 8.134 8.134v12.932m-74.829 0h74.829m-74.829 0v77.242h46.145"/><path stroke-width="8" d="M106.811 107.328a20.4 20.4 0 0 0 2.096-2.283c6.885-8.743 6.885-20.047 0-28.79-8.516-10.814-26.167-10.814-34.683 0-6.886 8.743-6.886 20.047 0 28.79 4.573 5.808 11.78 8.496 18.793 8.067m-10.88 44.938 28.707 13.158a8.7 8.7 0 0 0 6.569.281l33.544-12.025a7.54 7.54 0 0 0 4.893-5.858l.066-.398a8.7 8.7 0 0 0-.051-3.14l-5.042-25.211a7.62 7.62 0 0 0-5.063-5.736l-1.75-.583a8.7 8.7 0 0 0-1.842-.399l-25.553-2.69a4.2 4.2 0 0 0-2.101.317 4.214 4.214 0 0 1-5.612-2.409l-10.44-28.186a7.33 7.33 0 1 0-13.733 5.128l19.349 51.397a2.904 2.904 0 0 1-2.321 3.9l-13.253 1.828a8.71 8.71 0 0 0-6.334 4.241l-1.332 2.282a2.904 2.904 0 0 0 1.299 4.103z"/></svg>