<?xml version="1.0" encoding="UTF-8" standalone="no"?>
<!-- Created with Inkscape (http://www.inkscape.org/) -->

<svg
   width="192"
   height="192"
   viewBox="0 0 192 192"
   version="1.1"
   xml:space="preserve"
   xmlns="http://www.w3.org/2000/svg"
   xmlns:svg="http://www.w3.org/2000/svg">
  <g style="fill:none;stroke:#000;stroke-width:12;stroke-linecap:round;stroke-linejoin:round">
    <path
     d="M 76,75 113,103
A 8,8 63 0 1 116,109
V 149
A 7,7 135 0 1 109,156
H 99
A 7,7 45 0 1 92,149
L 92,120
A 8,8 63 0 0 89,114
L 76,104
A 7,7 180 0 0 68,104
L 55,114
A 8,8 117 0 0 52,120
L 52,149
A 7,7 135 0 1 45,156
H 35
A 7,7 45 0 1 28,149
V 43
A 7,7 135 0 1 35,36
H 45
A 7,7 45 0 1 52,43
L 52,87 68,75
A 7,7 0 0 1 76,75
Z
M 157,156
H 147
A 7,7 45 0 1 140,149
V 88
A 7,7 135 0 1 147,81
H 157
A 7,7 45 0 1 164,88
V 149
A 7,7 135 0 1 157,156
Z" />
    <circle cx="152" cy="48" r="12" />
  </g>
</svg>
