<svg width="192" height="192" viewBox="0 0 192 192" fill="none" xmlns="http://www.w3.org/2000/svg">
<path d="M119.429 25.1455H46.6581C34.6967 25.1455 25 35.4556 25 48.1738V143.972C25 156.69 34.6967 167 46.6581 167H119.429C131.391 167 141.088 156.69 141.088 143.972V53.3052C141.088 49.9388 141.937 46.6268 143.558 43.6763L151.988 28.3291C155.972 21.0759 167 23.9053 167 32.1807V167" stroke="black" stroke-width="12" stroke-linecap="round"/>
<path d="M106.3 94.2847C105.58 94.0055 105.509 92.8699 106.188 92.5C109.896 90.4583 112.542 87.8125 114.125 84.5625C115.708 81.3125 116.5 77.8333 116.5 74.125C116.5 69.875 115.688 66.1875 114.062 63.0625C112.438 59.8958 110.062 57.2708 106.938 55.1875C103.854 53.1042 100.104 51.5625 95.6875 50.5625C91.2708 49.5208 86.25 49 80.625 49H57.9375C52.4147 49 47.9375 53.4772 47.9375 59V131.625C47.9375 136.25 51.6871 140 56.3125 140H69.875H84.1875C91.6875 140 97.9792 139 103.062 137C108.146 135 111.958 132 114.5 128C117.083 124 118.375 119.021 118.375 113.062C118.375 109.562 117.604 106.208 116.062 103C114.521 99.7917 111.958 97.2083 108.375 95.25C107.726 94.8912 107.034 94.5694 106.3 94.2847ZM74.4258 86.9375C71.5346 86.9375 68.7849 85.6862 66.8857 83.5062L66.5549 83.1265C63.3481 79.4454 63.268 73.9869 66.3654 70.2133L66.8746 69.593C68.774 67.2789 71.6103 65.9375 74.6042 65.9375H80.625C83.875 65.9375 86.5208 66.3125 88.5625 67.0625C90.6458 67.7708 92.1667 68.9167 93.125 70.5C94.0833 72.0833 94.5625 74.1667 94.5625 76.75C94.5625 79 94.0833 80.875 93.125 82.375C92.2083 83.875 90.7292 85.0208 88.6875 85.8125C86.6458 86.5625 83.9167 86.9375 80.5 86.9375H74.4258ZM84.1875 123.125H74.4804C71.5576 123.125 68.7812 121.846 66.8813 119.625L66.2973 118.943C63.213 115.337 63.087 110.06 65.9958 106.312L66.8724 105.182C68.7666 102.741 71.683 101.312 74.7729 101.312H85.0625C87.8542 101.312 90.0833 101.792 91.75 102.75C93.4167 103.667 94.625 104.979 95.375 106.688C96.1667 108.396 96.5625 110.417 96.5625 112.75C96.5625 114.667 96.1458 116.417 95.3125 118C94.5208 119.542 93.2083 120.792 91.375 121.75C89.5833 122.667 87.1875 123.125 84.1875 123.125Z" fill="black"/>
</svg>
