<svg xmlns="http://www.w3.org/2000/svg" width="192" height="192" fill="none" viewBox="0 0 192 192"><path stroke="#000" stroke-linecap="round" stroke-linejoin="round" stroke-width="10" d="m62 102 11.905-10.204A6 6 0 0 0 76 87.24V76a6 6 0 0 0-6-6H60c-3.314 0-6.018 2.688-5.835 5.997 1.623 29.426 15.602 62.909 57.818 65.801 3.306.227 6.017-2.484 6.017-5.798v-10a6 6 0 0 0-6-6h-11.24a6 6 0 0 0-4.556 2.095L86 134"/><circle cx="96" cy="96" r="74" stroke="#000" stroke-linecap="round" stroke-linejoin="round" stroke-width="12"/><circle cx="105" cy="91" r="4" stroke="#000" stroke-linecap="round" stroke-linejoin="round" stroke-width="8"/><path stroke="#000" stroke-linecap="round" stroke-linejoin="round" stroke-width="12" d="M134 96a37.996 37.996 0 0 0-28.165-36.705M150 150l20 20"/></svg>