<svg xmlns="http://www.w3.org/2000/svg" width="192" height="192" fill="none"><path stroke="#000" stroke-linejoin="round" stroke-width="12" d="M96 124c15.464 0 28-12.536 28-28s-12.536-28-28-28-28 12.536-28 28 12.536 28 28 28Z"/><path stroke="#000" stroke-linecap="round" stroke-linejoin="round" stroke-width="6" d="m83 74-9.5-20m0 0L61 27m12.5 27 17-4.5M87 27l3.5 22.5m0 0 3.5 20M132 26l-20 47.5L156 28M72 84 26 56m0 29 26 4v7l16 2.5"/><path stroke="#000" stroke-linecap="round" stroke-width="6" d="m72 111-45 18m138-61-45 21m45 25-44-11m-80 61 32-51m10 7-7 23"/><path stroke="#000" stroke-linecap="round" stroke-linejoin="round" stroke-width="6" d="m106 164-10-43-4 43m13-44 25 45m-15-50 48 48"/><path stroke="#000" stroke-linecap="round" stroke-linejoin="round" stroke-width="12" d="M161 25H31a6 6 0 0 0-6 6v130a6 6 0 0 0 6 6h130a6 6 0 0 0 6-6V31a6 6 0 0 0-6-6"/></svg>