<?xml version="1.0" encoding="utf-8"?>
	<svg version="1.1" xmlns="http://www.w3.org/2000/svg" xmlns:xlink="http://www.w3.org/1999/xlink" x="0px" y="0px" width="240.0" height="240.0" xml:space="preserve">
		<path d="M92.135,102.255C91.668,102.858 91.648,103.41 91.653,103.91C91.7,108.266 89.337,111.311 86.218,113.925C84.829,115.09 84.784,115.051 86.115,116.312C86.947,117.103 87.851,117.817 88.536,118.758C88.894,119.251 89.142,119.736 88.839,120.347C86.676,124.698 83.937,128.519 79.303,130.544C75.004,132.424 70.88,131.956 67,129.408C65.982,128.741 65.526,128.943 64.957,129.953C62.277,134.705 59.296,139.282 56.687,144.079C56.204,144.968 55.475,145.732 54.805,146.508C54.031,147.405 53.563,147.38 52.886,146.355C51.257,143.884 49.922,141.241 48.542,138.63C44.133,130.276 40.161,121.717 36.486,113.013C35.535,110.762 35.702,108.862 37.082,106.891C38.304,105.145 39.324,103.258 40.496,101.476C40.935,100.809 40.888,100.336 40.413,99.727C39.757,98.89 39.198,97.976 38.604,97.089C37.883,96.01 37.496,94.889 38.149,93.622C38.405,93.125 38.186,92.672 37.984,92.213C35.579,86.737 34.547,80.935 33.869,75.042C33.468,71.529 33.34,68.009 33.414,64.476C33.424,64.047 33.281,63.577 33.66,63.123C34.402,63.599 34.426,64.528 35.101,65.156C35.252,51.747 37.565,38.914 44.776,27C44.906,29.032 45.194,30.698 45.123,32.462C44.877,38.49 44.975,44.523 45.438,50.547C45.714,54.146 46.017,57.743 46.51,61.32C46.567,61.724 46.628,62.128 46.776,62.549C47.855,58.886 48.984,55.252 50.415,51.717C51.854,48.172 53.467,44.718 55.458,41.451C57.451,38.18 59.515,34.955 62.255,32.22C61.252,41.469 58.03,50.286 57.673,59.628C61.257,50.406 65.77,41.749 72.562,34.465C71.91,39.754 70.274,44.775 69.099,49.901C67.721,55.912 66.692,61.965 66.11,68.102C66.032,68.935 66.273,69.172 67.027,69.295C68.443,69.526 69.85,69.824 71.249,70.147C72.016,70.322 72.235,70.194 72.148,69.327C71.885,66.634 71.727,63.931 71.555,61.229C71.528,60.8 71.424,60.231 71.951,60.039C72.474,59.849 72.764,60.347 73.033,60.685C75.575,63.904 78.041,67.186 80.655,70.347C82.023,71.997 83.597,73.34 85.878,73.907C90.413,75.035 94.905,76.368 99.297,77.996C99.45,78.053 99.605,78.112 99.755,78.176C101.877,79.077 101.948,79.285 100.817,81.258C100.738,81.396 100.677,81.544 100.593,81.716C103.951,81.071 104.431,81.711 104.658,78.301C104.133,78.124 103.803,79.398 103.328,78.59C103.089,78.183 103.337,77.489 103.377,76.752C102.778,77.121 102.285,77.397 101.825,77.718C101.231,78.132 100.778,78.183 100.891,77.282C101.086,75.734 100.716,74.562 99.277,73.695C98.851,73.438 98.952,72.394 98.006,72.522C98.014,71.852 97.772,71.322 97.302,70.812C97.149,70.645 97.698,70.388 97.994,70.263C98.738,69.945 99.608,69.965 100.292,69.428C100.125,68.935 99.213,68.945 99.499,68.203C99.733,67.595 100.317,67.632 100.81,67.447C101.911,67.036 102.978,66.538 104.113,66.053C102.985,64.924 102.98,64.87 104.33,64.212C105.764,63.513 107.225,62.865 108.671,62.195C108.644,62.104 108.646,62.007 108.597,61.958C108.154,61.52 107.259,61.308 107.489,60.51C107.705,59.753 108.55,60.105 109.112,59.968C110.684,59.583 112.29,59.571 113.889,59.652C114.857,59.701 115.229,59.504 115.012,58.438C113.852,52.722 117.434,49.256 121.08,45.839C121.218,45.708 121.427,45.61 121.758,45.795C121.085,47.546 120.612,49.441 119.676,51.067C118.084,53.823 119.183,56.418 119.767,59.054C119.944,59.859 121.006,59.876 121.437,59.645C122.933,58.839 124.068,59.822 125.271,60.248C126.133,60.554 126.85,61.261 127.648,61.764C128.518,62.313 129.419,63.163 130.348,61.456C129.158,63.535 130.828,64.237 131.772,65.185C132.676,66.092 133.45,67.085 134.184,68.122C134.78,68.965 135.371,68.982 136.216,68.317C140.796,64.707 145.324,61.042 149.594,57.068C149.803,56.873 150.015,56.676 150.234,56.494C150.392,56.363 150.594,56.221 150.766,56.423C150.848,56.516 150.843,56.73 150.803,56.871C150.727,57.147 150.626,57.42 150.49,57.672C147.825,62.579 145.147,67.481 140.885,71.261C140.624,71.492 140.471,71.746 140.446,72.101C140.247,75.207 140.173,78.331 139.789,81.418C139.562,83.239 139.345,85.052 139.219,86.88C139.18,87.461 139.118,88.006 139.485,88.53C141.557,91.496 142.129,94.94 142.55,98.419C142.698,99.639 142.779,100.875 142.767,102.102C142.75,103.733 143.319,105.019 144.541,106.108C145.672,107.116 146.28,108.379 145.859,109.961C145.59,110.971 145.053,111.262 144.161,110.69C143.302,110.141 142.496,109.483 141.754,108.781C141.19,108.246 140.744,108.49 140.205,108.732C139.678,108.968 139.471,109.301 139.564,109.89C139.761,111.146 139.931,112.405 140.069,113.669C140.146,114.368 140.498,114.528 141.151,114.482C142.417,114.39 143.691,114.373 144.962,114.324C146.14,114.28 147.258,114.216 148.423,113.738C149.791,113.176 151.348,113.654 152.799,113.888C154.565,114.171 156.319,113.996 158.078,113.962C159.098,113.942 159.399,113.065 159.904,112.474C161.466,110.643 163.148,110.422 165.077,111.9C165.331,112.094 165.723,112.385 165.71,112.612C165.636,113.846 166.491,113.565 167.161,113.577C169.334,113.617 171.512,113.548 173.68,113.782C174.005,113.816 174.392,113.73 174.653,113.876C176.989,115.181 179.354,114.361 181.709,114.016C182.588,113.888 183.702,114.198 183.822,112.7C183.857,112.264 184.574,112.122 185.012,111.912C189.449,109.779 193.94,107.744 198.321,105.497C203.245,102.969 207.645,99.742 211.141,95.347C212.745,93.329 214.607,91.516 216.359,89.614C216.539,89.42 216.684,89.053 217.034,89.242C217.273,89.373 217.201,89.683 217.182,89.92C217.135,90.491 217.061,91.06 217.009,91.632C216.987,91.871 216.906,92.159 217.15,92.307C217.411,92.467 217.606,92.223 217.793,92.078C218.115,91.824 218.404,91.523 218.744,91.297C219.022,91.11 219.278,90.713 219.707,91.026C220.072,91.292 220.022,91.654 219.946,92.031C219.446,94.49 218.842,96.916 217.832,99.225C215.386,104.812 211.565,109.394 207.288,113.644C207.236,113.696 207.214,113.777 207.18,113.844C207.475,114.1 208.017,113.383 208.067,113.932C208.103,114.361 208.256,114.945 207.717,115.378C206.724,116.172 205.815,117.068 204.869,117.916C202.117,120.377 199.461,122.939 196.485,125.149C193.696,127.218 190.77,128.999 187.525,130.246C186.863,130.502 186.313,130.758 186.087,131.581C185.84,132.478 184.892,132.643 184.116,132.87C181.864,133.53 179.538,133.801 177.218,134.094C173.594,134.55 169.965,134.954 166.302,134.855C165.981,134.848 165.644,134.905 165.336,135.003C162.062,136.045 158.682,136.403 155.272,136.582C154.893,136.602 154.336,136.432 154.218,136.945C154.129,137.329 154.624,137.511 154.898,137.738C157.721,140.076 160.12,142.727 161.163,146.353C161.485,147.471 162.037,147.698 163.02,147.045C164.37,146.148 165.883,145.51 166.531,143.771C166.767,143.135 167.585,142.603 168.26,142.273C169.105,141.862 169.516,142.635 169.812,143.261C170.502,144.724 170.768,146.313 171.019,147.893C171.657,151.908 171.559,155.907 170.605,159.871C170.529,160.188 170.467,160.526 170.317,160.809C169.351,162.625 168.918,164.428 169.59,166.527C170.014,167.848 169.386,168.594 168.001,168.969C165.432,169.661 163.101,171.119 160.379,171.314C159.798,171.356 159.482,171.831 159.408,172.302C159.137,173.994 158.295,175.47 157.713,177.044C157.484,177.66 157.576,177.993 158.167,178.333C160.372,179.604 162.572,180.885 164.658,182.346C164.996,182.582 165.405,182.915 165.782,182.728C167.496,181.885 169.066,182.826 170.682,183.073C171.527,183.201 172.352,183.491 173.168,183.767C174.894,184.351 175.077,184.629 175.057,186.507C176.816,185.943 178.612,185.975 180.403,185.987C180.93,185.989 181.344,185.755 181.76,185.479C182.445,185.026 183.13,184.575 183.835,184.152C185.185,183.341 186.569,183.302 187.914,184.137C188.841,184.713 189.831,185.058 190.898,185.216C190.979,185.228 191.068,185.226 191.139,185.26C195.781,187.381 201.223,186.982 205.625,189.852C206.024,190.111 206.559,190.195 206.785,190.727C206.234,191.096 205.842,190.276 205.142,190.638C206.532,191.732 206.613,193.735 208.32,194.555C208.764,194.77 209.271,195.065 209.086,195.785C209.008,196.088 209.377,196.243 209.604,196.41C211.422,197.743 213.225,199.098 215.07,200.394C215.489,200.687 215.681,201.042 215.795,201.475C216.007,202.293 215.583,202.665 214.881,202.338C212.829,201.382 210.772,200.478 208.547,199.995C208.126,199.904 207.983,199.423 207.783,199.069C206.773,197.285 205.734,195.531 204.376,193.969C203.11,192.51 201.629,191.284 200.255,189.943C200.08,189.773 199.865,189.315 199.607,190.007C199.506,190.278 198.882,190.365 199.284,190.88C199.36,190.976 199.439,191.072 199.533,191.153C202.506,193.73 204.334,197.243 206.904,200.15C207.34,200.643 207.611,201.278 208.515,201.283C209.219,201.286 209.234,202.091 209.205,202.641C209.175,203.225 208.68,203.343 208.197,203.247C207.719,203.153 207.239,203.008 206.793,202.813C203.967,201.579 200.962,201.648 197.976,201.557C197.596,201.544 197.224,201.643 196.983,201.958C195.436,203.976 193.078,204.503 190.844,205.016C187.609,205.76 184.32,205.868 181.26,204.148C180.871,203.929 180.605,203.954 180.314,204.313C179.445,205.39 178.196,205.481 176.956,205.503C170.842,205.612 164.722,205.59 158.615,205.836C154.442,206.006 150.288,206.649 146.1,206.715C142.319,206.775 139.333,203.934 139.956,200.18C140.483,197.009 139.875,194.136 139.276,191.156C139.148,190.52 138.776,190.283 138.251,190.081C135.701,189.096 134.019,187.463 134.11,184.499C134.122,184.107 133.974,183.691 133.822,183.316C132.863,180.969 133.647,178.936 135.1,177.148C135.881,176.187 136.246,175.428 135.401,174.366C134.994,173.856 134.603,173.233 134.61,172.585C134.637,170.279 133.186,168.577 132.349,166.616C130.809,163.004 130.9,159.41 132.984,156.018C133.647,154.941 134.073,154.172 132.666,153.352C131.937,152.926 131.816,151.972 131.673,151.164C131.553,150.494 131.237,150.058 130.607,149.785C129.555,149.329 128.468,148.935 127.54,148.23C127.205,147.976 126.84,148.055 126.48,148.169C125.231,148.555 124.027,148.39 122.911,147.769C122.255,147.405 121.831,147.53 121.499,148.139C121.011,149.028 120.267,149.285 119.321,149.058C118.86,148.95 118.442,148.977 118.035,149.267C117.712,149.499 117.291,149.59 117.032,149.238C116.508,148.516 116.118,148.762 115.542,149.216C114.709,149.871 113.805,150.455 112.802,150.849C112.544,150.95 112.201,151.071 112.088,151.285C111.177,153.014 109.494,154.143 108.563,155.855C108.092,156.722 107.489,157.523 106.735,158.163C104.838,159.77 105.362,161.226 105.858,163.337C106.21,164.837 106.747,166.291 107.999,167.37C108.474,167.781 108.425,168.412 108.023,168.941C107.9,169.104 107.779,169.281 107.622,169.407C105.742,170.898 104.49,172.955 102.862,174.667C101.721,175.867 100.317,176.822 98.671,177.219C97.77,177.436 96.861,178.34 96.006,177.83C95.136,177.31 94.752,177.731 94.234,178.16C93.729,178.579 93.082,178.939 92.803,179.481C92.468,180.129 93.259,180.619 93.483,181.213C94.368,183.55 93.895,184.923 91.7,186.122C91.296,186.344 90.916,186.544 90.81,187.059C90.382,189.118 88.948,190.086 87.006,190.367C85.979,190.515 85.725,190.993 85.637,191.976C85.203,196.669 85.063,201.394 84.237,206.05C84.072,206.986 83.897,207.861 82.631,207.79C82.205,207.765 82.032,208.164 81.83,208.474C80.463,210.596 78.675,211.859 76.004,211.928C72.604,212.017 69.197,212.687 65.82,212.534C60.792,212.308 55.849,213.298 50.843,213.177C49.262,213.14 47.727,213.123 46.32,212.313C45.7,211.955 45.185,212 44.697,212.574C44.234,213.121 43.613,213.527 42.901,213.567C39.876,213.732 36.853,214.17 33.815,213.705C32.448,213.495 31.174,213.074 30.112,212.167C29.585,211.717 29.043,211.68 28.395,211.793C26.252,212.167 24.114,212.559 22.025,213.185C21.419,213.367 20.805,213.488 20.278,213.012C19.684,212.478 20.206,211.955 20.337,211.433C21.059,208.543 23.01,206.403 24.771,204.148C25.454,203.274 26.469,202.601 26.296,201.256C26.267,201.034 26.531,200.731 26.725,200.532C28.686,198.499 30.487,196.282 33.165,195.082C33.791,194.802 34.33,194.326 34.902,193.927C37.365,192.2 40.854,192.294 43.142,194.242C44.118,195.073 44.936,195.023 45.845,194.208C47.249,192.944 48.685,191.725 50.526,191.104C51.363,190.823 51.725,190.003 52.236,189.379C53.659,187.638 55.704,186.805 57.557,185.716C58.259,185.302 58.973,184.947 59.592,184.398C61.25,182.927 62.927,181.481 64.617,180.047C65.08,179.653 65.28,179.202 65.435,178.611C65.945,176.675 66.379,174.657 68.446,173.642C68.788,173.474 68.943,173.115 69.158,172.814C69.609,172.181 69.981,171.363 70.606,171.016C71.991,170.247 72.262,169.003 72.55,167.66C73.058,165.295 73.336,162.876 74.087,160.568C74.27,160.004 74.105,159.619 73.691,159.269C73.07,158.742 72.698,158.057 72.602,157.264C72.59,157.158 71.626,156.19 73.031,156.508C73.439,156.601 73.43,155.237 73.065,154.835C72.316,154.007 72.548,153.298 72.957,152.514C73.124,152.192 73.09,151.918 72.986,151.581C72.114,148.733 72.314,145.956 73.876,143.409C74.893,141.748 76.539,140.628 78.005,139.391C84.715,133.725 91.473,128.113 98.208,122.476C98.898,121.897 99.566,121.286 100.219,120.668C100.98,119.946 100.906,119.426 99.98,118.847C99.423,118.5 98.841,118.189 98.295,117.827C97.686,117.423 96.989,117.076 97.297,116.098C97.43,115.679 97.001,115.447 96.723,115.228C94.239,113.272 93.084,110.702 92.882,107.564C92.774,105.837 92.641,104.085 92.135,102.255ZM85.013,168.493C85.205,167.685 85.472,167.086 86.442,167.522C86.905,167.729 87.137,167.404 87.502,167.222C88.352,166.801 88.329,165.547 89.174,165.362C91.227,164.916 91.722,162.97 92.919,161.721C93.823,160.777 94.225,159.501 94.7,158.289C94.942,157.675 95.693,157.057 94.848,156.488C94.109,155.99 93.392,155.094 92.256,155.934C90.697,157.087 88.859,157.461 86.955,157.545C86.831,157.55 86.652,157.481 86.595,157.54C85.642,158.557 85.319,157.762 84.994,156.863C84.553,160.824 84.567,164.655 85.013,168.493ZM139.67,137.733C139.926,137.698 140.197,137.861 140.367,137.6C140.414,137.528 140.375,137.299 140.321,137.277C139.19,136.819 139.579,135.659 139.232,134.853C138.606,133.404 138.054,131.904 137.667,130.377C137.47,129.596 137.091,129.012 136.566,128.529C135.216,127.285 133.292,127.824 132.809,129.554C132.585,130.352 132.605,131.175 132.841,131.975C133.164,133.067 133.489,134.143 133.578,135.296C133.706,136.977 134.115,137.351 135.79,137.405C137.098,137.447 138.399,137.553 139.67,137.733ZM139.212,145.648C139.032,144.446 138.835,142.909 138.557,141.386C138.47,140.918 138.185,140.48 137.948,140.049C137.685,139.566 137.241,139.529 136.773,139.691C136.275,139.864 135.504,140.416 135.578,140.539C136.15,141.492 135.598,142.313 135.45,143.182C135.386,143.562 135.475,143.978 135.802,144.18C136.549,144.638 136.734,145.37 136.95,146.126C137.167,146.883 137.64,147.53 138.495,147.462C139.444,147.388 139.025,146.533 139.212,145.648ZM41.233,211.712C41.307,211.441 41.406,211.175 41.447,210.899C42.13,206.324 42.64,201.709 44.515,197.401C44.638,197.117 44.943,196.625 44.441,196.447C44.027,196.299 43.832,196.79 43.655,197.09C41.898,200.029 41.073,203.276 40.58,206.622C40.324,208.336 40.58,210.027 41.233,211.712ZM92.579,140.692C89.711,142.559 87.07,144.276 84.188,146.153C86.004,146.412 87.484,146.619 88.965,146.838C89.339,146.895 89.608,146.777 89.783,146.449C90.736,144.653 91.938,142.98 92.579,140.692ZM69.126,208.824C69.325,208.479 69.591,208.154 69.71,207.785C70.33,205.856 71.474,204.235 72.538,202.54C73.297,201.333 74.041,200.022 74.312,198.546C74.415,197.985 74.479,197.457 73.814,197.223C73.178,196.999 72.846,197.381 72.545,197.884C71.907,198.958 71.629,200.152 71.321,201.337C70.673,203.85 69.764,206.284 69.126,208.824ZM67.756,195.551C66.968,196.691 66.98,197.965 66.909,199.216C66.785,201.342 66.84,203.464 67.123,205.575C67.128,205.607 67.342,206.04 66.931,205.819C66.84,205.769 66.973,205.489 66.64,205.55C66.81,207.048 66.591,208.603 67.522,209.955C67.667,205.151 67.505,200.354 67.756,195.551ZM126.229,97.303C126.347,96.162 125.921,95.248 125.719,94.29C125.667,94.041 125.529,93.802 125.241,93.81C124.918,93.82 124.857,94.098 124.901,94.347C125.049,95.187 124.655,95.823 124.241,96.505C123.938,97.005 123.667,97.646 124.009,98.249C124.381,98.907 125.051,98.564 125.581,98.56C126.65,98.552 126.074,97.663 126.229,97.303ZM45.002,206.627C45.865,204.996 47.38,204.028 48.57,202.764C48.905,202.407 49.277,202.079 49.577,201.697C49.814,201.397 49.725,201.099 49.296,201.182C48.358,201.37 47.311,201.374 46.759,202.38C46.02,203.725 45.36,205.104 45.002,206.627ZM79.862,153.069C78.946,157.69 78.982,164.458 79.953,166.581C79.453,162.009 79.739,157.538 79.862,153.069Z" fill="#000" stroke="" stroke-width="" stroke-miterlimit=""/>
	</svg>
