<svg xmlns="http://www.w3.org/2000/svg" width="192" height="192" fill="none" stroke="#000" stroke-linecap="round" viewBox="0 0 192 192"><path stroke-width="12" d="M164 22H28a6 6 0 0 0-6 6v124a6 6 0 0 0 6 6h20.62c1.82 0 3.543.826 4.681 2.247l6.018 7.505c2.402 2.995 6.96 2.995 9.362 0l6.018-7.505a6 6 0 0 1 4.68-2.247H164a6 6 0 0 0 6-6V28a6 6 0 0 0-6-6Z"/><path stroke-width="10" d="M64.887 121.113A44 44 0 0 1 96 46m31 13v16m-31-5v26m-31 9v16m62.113-62.113A44.006 44.006 0 0 1 96 134m47-75h-16m-13 41-18-4m-31 25H49"/></svg>