<?xml version="1.0" encoding="utf-8"?>
	<svg version="1.1" xmlns="http://www.w3.org/2000/svg" xmlns:xlink="http://www.w3.org/1999/xlink" x="0px" y="0px" width="240.0" height="240.0" xml:space="preserve">
		<path d="M22.443,99.666C25.892,101.045 28.092,103.594 28.442,107.412C28.568,108.794 28.667,110.177 28.757,111.575L29.015,115.819C29.045,116.298 29.075,116.779 29.107,117.264L16.602,117.264C16.602,116.012 16.622,114.816 16.598,113.621C16.555,111.486 16.471,109.351 16.435,107.216C16.412,105.869 15.658,105.249 14.42,105.245C13.203,105.242 12.355,105.805 12.353,107.164L12.333,119.906C12.33,124.154 12.333,128.401 12.354,132.648C12.362,134.32 13.013,134.869 14.406,134.854C15.766,134.839 16.379,134.267 16.43,132.584C16.47,131.231 16.475,129.878 16.47,128.515L16.455,125.774C16.453,125.314 16.451,124.853 16.451,124.389L28.924,124.389C28.913,124.731 28.905,125.073 28.899,125.415L28.869,127.968C28.829,130.34 28.687,132.677 27.876,134.945C26.631,138.424 23.756,140.135 20.477,141.182C16.194,142.549 11.84,142.404 7.573,141.083C2.845,139.62 0.291,136.522 0.157,131.425C-0.049,123.518 -0.059,115.597 0.168,107.691C0.276,103.946 2.67,101.318 6.036,99.802C11.455,97.359 16.987,97.485 22.443,99.666ZM167.272,98.91L179.377,98.91L179.433,99.527C179.452,99.734 179.467,99.943 179.466,100.152L179.458,115.164C179.454,120.169 179.443,125.173 179.414,130.177C179.375,136.86 176.288,140.545 169.695,141.681C165.664,142.375 161.664,142.139 157.839,140.474C153.757,138.698 151.702,135.624 151.693,131.143L151.658,120.892L151.658,120.892L151.557,100.175L151.558,98.961L163.745,98.961L163.745,100.615C163.745,110.187 163.735,119.758 163.754,129.329C163.756,130.143 163.801,130.958 163.857,131.772L163.972,133.4L163.972,133.4C164.033,134.314 164.521,134.815 165.465,134.838C166.402,134.86 166.974,134.382 167.054,133.489C167.183,132.04 167.26,130.581 167.263,129.127L167.273,119.652L167.273,119.652L167.272,98.91ZM218.143,98.822L220.109,98.837L220.109,98.837L220.473,98.845L220.473,98.845L220.799,98.858L220.799,98.858L221.092,98.878C222.059,98.962 222.454,99.214 222.817,100.025L222.92,100.272L222.92,100.272L223.025,100.551L223.025,100.551L223.133,100.865L223.133,100.865L223.373,101.605L223.373,101.605L224.823,106.134L224.823,106.134L227.601,114.769C228.524,117.648 229.439,120.53 230.334,123.418C230.814,124.968 231.069,126.639 231.108,128.262C231.168,130.726 231.171,133.192 231.163,135.681L231.148,139.435C231.146,140.064 231.144,140.696 231.144,141.33L219.846,141.33L219.841,140.678L219.841,140.678L219.816,139.398C219.8,138.554 219.796,137.727 219.864,136.906C220.465,129.567 219.149,122.572 216.596,115.69C215.475,112.668 214.517,109.586 213.582,106.495L212.649,103.403C212.493,102.888 212.336,102.373 212.178,101.859L211.652,100.163L211.652,100.163L211.272,98.826L211.272,98.826L215.434,98.819C216.343,98.818 217.244,98.819 218.143,98.822L218.143,98.822ZM208.919,98.927L208.919,107.348L201.722,107.348L201.722,141.139L189.458,141.139L189.458,107.397L182.234,107.397L182.234,98.927L208.919,98.927ZM74.7,98.913L74.7,132.674L82.073,132.674L82.073,141.117L62.597,141.117L62.597,98.913L74.7,98.913ZM35.498,98.973L53.366,98.973L60.33,141.086L60.33,141.086L48.878,141.086L47.863,133.285L47.863,133.285L43.764,133.285L44.507,126.228L44.507,126.228L47.028,126.071L47.028,126.071L44.971,109.039L44.971,109.039L44.706,109.027L40.839,141.108L40.839,141.108L29.3,141.108L35.498,98.973L35.498,98.973ZM97.36,98.962L97.36,132.671L104.682,132.671L104.682,141.109L85.252,141.109L85.252,98.962L97.36,98.962ZM121.446,98.832L123.858,98.881L123.858,98.881L128.683,98.974C131.9,99.041 135.115,99.124 138.328,99.279C140.133,99.366 141.99,99.832 143.681,100.49C146.381,101.542 148.115,103.746 148.172,106.604C148.349,115.628 148.43,124.661 148.227,133.684C148.122,138.384 145.704,140.687 140.766,140.871C136.668,141.023 132.563,141.016 128.42,140.986L124.262,140.953C122.87,140.943 121.473,140.935 120.07,140.935L120.07,98.962C120.529,98.916 120.989,98.822 121.446,98.832ZM136.043,109.168L136.031,108.756C135.923,106.59 135.101,106.045 132.81,106.258L132.377,106.305L132.377,133.837C135.126,133.91 135.925,133.439 135.97,130.978C136.104,123.71 136.118,116.437 136.043,109.168ZM105.53,108.608C107.791,108.788 109.088,110.095 109.158,112.329C109.198,113.636 109.165,114.944 109.165,116.252L109.151,116.252C109.151,117.657 109.209,119.064 109.137,120.465C109.037,122.403 107.634,123.649 105.568,123.752C103.349,123.862 101.647,122.848 101.505,120.918C101.282,117.883 101.22,114.818 101.378,111.781C101.487,109.704 103.399,108.439 105.53,108.608ZM115.842,109.035L115.842,111.729L113.846,111.905L113.846,111.905L113.846,114.548L115.609,114.759L115.609,114.759L115.609,117.27L113.745,117.381L113.745,117.381L113.745,123.382L110.475,123.382L110.475,109.035L115.842,109.035ZM239.379,98.84C239.419,98.84 239.458,98.845 239.502,98.854L239.654,98.895L239.654,98.895L239.864,98.955C239.906,98.966 239.951,98.978 240,98.991L232.344,122.375L232.344,122.375L232.029,122.371L232.029,122.371C231.586,121.015 231.14,119.661 230.703,118.303L230.407,117.367L230.407,117.367L229.542,114.548C229.25,113.609 228.948,112.675 228.614,111.753L228.269,110.836C227.204,108.117 227.132,105.486 227.877,102.71L228.274,101.339L228.274,101.339L228.426,100.848L228.426,100.848L228.523,100.559L228.523,100.559L228.618,100.301C228.971,99.405 229.352,99.075 230.284,98.946L230.552,98.915C230.599,98.911 230.647,98.907 230.697,98.903L231.01,98.884L231.01,98.884L231.543,98.867L231.543,98.867L232.384,98.854L232.384,98.854C234.715,98.827 237.047,98.838 239.379,98.84ZM105.294,111.155L104.836,111.29L104.836,121.32C105.449,120.891 105.795,119.686 105.891,117.769L105.911,117.229C105.913,117.136 105.915,117.041 105.917,116.946L105.918,116.353C105.917,116.251 105.916,116.148 105.914,116.043L105.898,115.399L105.898,115.399L105.869,114.72L105.869,114.72L105.828,114.007L105.828,114.007L105.776,113.261L105.776,113.261L105.711,112.481L105.711,112.481C105.691,112.256 105.623,112.035 105.541,111.815L105.372,111.375C105.344,111.302 105.318,111.228 105.294,111.155Z" fill="#000" stroke="#00000000" stroke-width="1.0" stroke-miterlimit=""/>
	</svg>
