<svg xmlns="http://www.w3.org/2000/svg" width="192" height="192" fill="none" stroke="#000" stroke-linecap="round" stroke-linejoin="round" stroke-width="12" viewBox="0 0 192 192"><path d="M96.5 111c-6.382-8-9.094-35.857.203-41.429C106 64 132.983 81.767 133.983 91.883S102.882 119 96.5 111M22 135c0-8 26.5-33 26.5-43.5S38 77.5 37.5 67 48 45.267 59 38.91M22 135c0 12 24.5-4 35-1s9.5 14.17 18 18.5 14.5-4 22-3 6.5 4.5 17.5 9.5 25 5 33.83-3.67"/><path d="M148.326 155.326A74.002 74.002 0 0 0 59 38.914"/></svg>