<svg xmlns="http://www.w3.org/2000/svg" width="192" height="192" fill="none" viewBox="0 0 192 192"><g stroke="#000" stroke-linecap="round" stroke-width="12"><path d="M45.5 150c-11-10-19.724-25.838-22.324-40.323a74.825 74.825 0 0 1 4.967-42.916 74.298 74.298 0 0 1 27.833-32.908 73.664 73.664 0 0 1 41.318-11.807 73.693 73.693 0 0 1 40.875 13.272 74.357 74.357 0 0 1 26.657 33.88 74.846 74.846 0 0 1 3.452 43.066C165.169 126.647 158 139 146.5 150"/><path d="M61 132c-6.866-7.155-12.455-16.824-14.211-26.612a50.55 50.55 0 0 1 3.356-28.997 50.207 50.207 0 0 1 18.806-22.235 49.774 49.774 0 0 1 27.917-7.978 49.786 49.786 0 0 1 27.619 8.968 50.236 50.236 0 0 1 18.011 22.891 50.558 50.558 0 0 1 2.332 29.099c-2.1 9.719-6.716 17.957-13.83 24.864"/><circle cx="96" cy="96" r="18"/></g></svg>