<svg xmlns="http://www.w3.org/2000/svg" width="192" height="192" fill="none" stroke="#000" stroke-linecap="round" stroke-linejoin="round" stroke-width="10" viewBox="0 0 192 192"><path d="M104.066 59.116s-16.066-4-32-1c0 0-2 21 16 21 12 0 16-20 16-20m0 0s15.934-4 32-1c0 0 0 21-16 21-10 0-16-20-16-20M55 100h12m80 0h12M55 124h12m80 0h12"/><path stroke-width="12" d="M147 82v70M27 82v70m0 0c0 10 5.869 17.412 15 18 9 0 8.361-8 15-8s6 8 15 8 8.361-8 15-8 6 8 15 8 8.361-8 15-8 6 8 15 8c9.131-.588 15-8 15-18m0-70a60 60 0 0 0-120 0"/><path d="M67 124a12 12 0 0 0 0-24m92 24c3.183 0 6.235-1.264 8.485-3.515A12 12 0 0 0 159 100"/></svg>