<svg xmlns="http://www.w3.org/2000/svg" xml:space="preserve" id="图层_1" x="0" y="0" style="enable-background:new 0 0 192 192" version="1.1" viewBox="0 0 192 192"><style>.st0{display:none;fill:none;stroke:#3d3d3d;stroke-miterlimit:10}</style><path d="m23.7 56.9.7-3.6 3.2-4.9 4.4-4.1 6-4 9.9-4.3 12.4-3.7L73 30l9.7-1.1 6.9-.5H105l5.5.3 6.3.5 5.1.7 9.8 2.3 11.7 3.2 10.1 4.4 5.8 3.2 4.5 4.2 2 2.2 1.8 3 .9 2 .6 2.4v82.8l-1 3.7-2.3 3.3-2.1 2.8-3.6 2.8-3.7 2.4s.7 0-4.5 2.4l-5.2 2.4-5.3 2-5.3 1.6-6 1.3-6.1 1.2-8.4 1.2-6.5.8-19 .4-8.2-.5-8.5-.9-8.5-1.4-5.8-1.5-6.1-1.7-7-2.4-6.1-2.8-4.1-2.3-4.1-2.8-4-3.8-2.1-3.1-2-3.6v-27.3l1 2.9 2.1 3.5 3.1 3.4 3.4 2.8 5.5 3.2 3 1.6 3 1.2 5.2 2 4.7 1.4 3.9 1.2 6.2 1.2 8.4 1.7 6.3.8 11 .4 14.1-.1 12.6-.7 9.7-1.6 5.8-1.3-.2-25.7 2.4-.5 4.6-1.3 3.7-1.3 5.1-2 5.9-2.9 4.4-2.5 3.4-2.6-2.8-2.6-2.8-1.9-3.7-2-3.5-1.7-3.7-1.3-4.3-1.5-4.4-1.3-3.6-.9-3.5-.7-3.7-.7-3.2-.6-3.7-.4-3.8-.4-3.5-.2-15.6-.5V55.5l-6.8-.2-6.9.6-4.5.2-5.8.5-6.8 1.3L60 59l-6.7 1.8-5.3 1.8-5 1.9-4.6 2.1-3.6 2.2-2.6 1.7-1.5 1.3 2.7 2.7 5 2.8 7.5 3.5 9.9 3.2 9.8 2.2 12 2 12.2.8 6.5.3v26.2l-6.8.2-7-.3-7.6-1-6.9-.7-8.8-1.9-6.1-1.6-8.4-3.2-5.3-2.5-3.7-2-4.3-3-3.4-3.4-2.2-2.8-1.4-2.2-1.1-2.9V57.6l.4-.7z" style="fill:none;stroke:#000;stroke-width:12;stroke-linecap:round;stroke-linejoin:round;stroke-miterlimit:10"/></svg>