<svg xmlns="http://www.w3.org/2000/svg" width="192" height="192" fill="#000" xmlns:v="https://vecta.io/nano"><path d="M115.745 130.787a40.01 40.01 0 0 0 17.156-19.349c3.418-8.172 4.028-17.247 1.733-25.802s-7.364-16.107-14.414-21.47a40 40 0 0 0-60.872 47.853 40 40 0 0 0 17.459 19.075l7.677-14.037A24 24 0 0 1 95.81 72.001a24 24 0 0 1 14.722 4.899 23.99 23.99 0 0 1 8.648 12.882 24 24 0 0 1-1.039 15.481c-2.052 4.902-5.672 8.986-10.294 11.609l7.898 13.915zm19.746 34.787a80 80 0 0 0 8.95-133.241A80 80 0 0 0 18.414 76.497a80 80 0 0 0 39.2 89.693l7.677-14.038A64 64 0 0 1 95.494 32.003a64 64 0 0 1 39.259 13.064c11.278 8.581 19.39 20.664 23.062 34.352a64.01 64.01 0 0 1-2.773 41.282c-5.47 13.074-15.124 23.963-27.449 30.959l7.898 13.915z"/><circle cx="96" cy="96" r="13.333"/></svg>