<?xml version="1.0" standalone="no"?>
<!DOCTYPE svg PUBLIC "-//W3C//DTD SVG 20010904//EN"
 "http://www.w3.org/TR/2001/REC-SVG-20010904/DTD/svg10.dtd">
<svg version="1.0" xmlns="http://www.w3.org/2000/svg"
 width="192.000000pt" height="192.000000pt" viewBox="0 0 192.000000 192.000000"
 preserveAspectRatio="xMidYMid meet">

<g transform="translate(0.000000,192.000000) scale(0.100000,-0.100000)"
fill="#000000" stroke="none">
<path d="M570 1573 c-141 -143 -225 -274 -271 -423 -33 -105 -33 -254 -1 -360
47 -151 150 -308 291 -443 l81 -77 444 0 c324 0 452 3 471 12 55 25 55 26 55
548 0 335 -3 488 -11 503 -28 54 -40 57 -245 57 -172 0 -193 -2 -207 -18 -22
-24 -21 -45 1 -65 16 -14 45 -17 190 -17 l172 0 0 -460 0 -460 -355 0 c-337 0
-355 1 -346 18 5 9 19 26 31 37 12 10 43 49 69 85 110 150 163 281 165 410 1
83 1 84 -26 94 -39 14 -68 -14 -68 -64 l0 -37 -123 -47 c-68 -25 -129 -46
-135 -46 -10 0 -12 32 -10 127 l3 127 109 48 c60 27 111 46 113 44 3 -2 12
-19 21 -38 13 -26 24 -34 49 -36 27 -3 35 1 44 21 22 49 -93 269 -211 402 -79
89 -156 155 -183 155 -13 0 -56 -36 -117 -97z m67 -380 c-4 -3 -167 64 -175
72 -6 5 80 127 131 186 l42 49 3 -151 c1 -84 1 -154 -1 -156z m244 143 c21
-32 39 -62 39 -66 0 -7 -159 -80 -174 -80 -3 0 -6 71 -6 158 l1 157 50 -55
c28 -30 68 -81 90 -114z m-343 -217 l102 -43 0 -132 0 -132 -122 47 c-68 25
-129 50 -137 55 -28 18 13 264 42 253 7 -3 58 -24 115 -48z m52 -398 l45 -17
3 -134 2 -135 -35 40 c-81 91 -195 270 -195 304 0 6 30 -1 68 -15 37 -14 87
-34 112 -43z m365 14 c-31 -72 -102 -177 -165 -246 l-49 -54 2 134 2 134 110
42 c61 24 113 43 117 44 4 1 -3 -24 -17 -54z"/>
</g>
</svg>
