<svg width="192" height="192" fill="none" xmlns="http://www.w3.org/2000/svg"><path d="M158 100c-14-29-40-20-31-63 4 11 16 14 16 14s9.488-7.273 11.827-14c5.173 7 5.703 18.97 4.032 24.565C167 70 168.159 82.76 158 100Zm-2 18c-19.882 0-36 16.118-36 36 0 5.049 1.039 9.855 2.916 14.216a49.19 49.19 0 0 0 22.749-19.415A23.93 23.93 0 0 1 144 140c0-9.779 5.848-18.192 14.238-21.932A36.862 36.862 0 0 0 156 118ZM64 21c-23.196 0-42 18.804-42 42 0 1.128.044 2.245.132 3.35A22.922 22.922 0 0 1 38 60c12.703 0 23 10.297 23 23 0 7-5.45 16.656-7.239 21.743C51.973 109.83 51 116.302 51 122c0 27.062 21.938 49 49 49 1.391 0 2.769-.058 4.13-.172C91.345 161.772 83 146.86 83 130c0-23 18.845-40 22.186-58.729.534-2.674.814-5.44.814-8.271 0-23.196-18.804-42-42-42Z" stroke="#000" stroke-width="10" stroke-linecap="round" stroke-linejoin="round"/><circle cx="127" cy="94" r="3" stroke="#000" stroke-width="6" stroke-linecap="round" stroke-linejoin="round"/></svg>