<svg xmlns="http://www.w3.org/2000/svg" width="192" height="192" fill="none" viewBox="0 0 192 192"><path stroke="#000" stroke-linecap="round" stroke-linejoin="round" stroke-width="10" d="M142 66c-6.628 0-12 5.372-12 12 0-6.628-5.372-12-12-12 6.628 0 12-5.372 12-12 0 6.628 5.372 12 12 12"/><path stroke="#000" stroke-linecap="round" stroke-linejoin="round" stroke-width="12" d="M170 27c-55.948 2.872-95.693 18.457-95.344 36.993.678 36.15 62.401 34.898 67.003 56.429 4.695 21.977-28.296 43.779-61.52 44.489C43.33 165.697 22 161.29 22 151.115c0-10.173 25.761-26.792 80.918-29.913"/></svg>