<svg xmlns="http://www.w3.org/2000/svg" xml:space="preserve" id="图层_2" x="0" y="0" style="enable-background:new 0 0 192 192" version="1.1" viewBox="0 0 192 192"><style>.st0{fill:none;stroke:#000;stroke-width:12;stroke-linecap:round;stroke-linejoin:round;stroke-miterlimit:10}</style><path d="M143.6 148.8h-88c-6.6 0-12-5.4-12-12v-88c0-6.6 5.4-12 12-12h88c6.6 0 12 5.4 12 12v88c0 6.6-5.4 12-12 12z" class="st0"/><path d="M79.6 72.7h39.8v39.8H79.6zM80.8 18.8v17.4M116.5 18.8v17.4M81.4 149.3v17.4M117.1 149.3v17.4M25.3 111h17.4M25.3 75.3h17.4M155.8 110.4h17.4M155.8 74.7h17.4" class="st0"/></svg>