<svg width="192" height="192" viewBox="0 0 192 192" fill="none" xmlns="http://www.w3.org/2000/svg"><path d="M78 25v12m0 118v12m36-142v12m0 118v12M25 78h13m116 0h13M25 114h13m116 0h13M40 146V46a6 6 0 0 1 6-6h100a6 6 0 0 1 6 6v100a6 6 0 0 1-6 6H46a6 6 0 0 1-6-6Z" stroke="#000" stroke-width="12" stroke-linecap="round" stroke-linejoin="round"/><path d="M76 110V82a6 6 0 0 1 6-6h28a6 6 0 0 1 6 6v28a6 6 0 0 1-6 6H82a6 6 0 0 1-6-6Z" stroke="#000" stroke-width="12" stroke-linecap="round" stroke-linejoin="round"/></svg>