<svg xmlns="http://www.w3.org/2000/svg" width="192" height="192" stroke-linecap="round" stroke-width="3.175" viewBox="0 0 50.8 50.8"><path fill="none" stroke="#000" stroke-linejoin="round" d="m5.843 32.571 9.373-4.476 6.7 1.627 9.736-9.691"/><path stroke="#000" d="M8.758 41.81v-4.747m6.625 4.747v-8.014m6.532 8.014v-6.797m6.671 6.797v-11.2m6.704 11.2V24.638"/><g transform="translate(-.014 -3.109)"><ellipse cx="65.35" cy="39.1" rx="11.6" ry="13.1" transform="matrix(.3484 0 0 .30851 13.38 5.595)"/><path stroke="#000" stroke-width="1.852" d="m29.712 18.891-3.32.82m3.995-5.186-3.162-1.6m6.496-1.151-1.336-3.36m5.701 3.201 1.072-3.347m2.42 6.059 3.017-1.879m-2.205 6.057 3.254.476m-5.335 3.509 2.302 2.552"/></g></svg>