<svg width="192" height="192" viewBox="0 0 50.8 50.8" xmlns="http://www.w3.org/2000/svg"><path style="fill:none;stroke:#000;stroke-width:3.175;stroke-linecap:round;stroke-linejoin:round;stroke-miterlimit:4;stroke-dasharray:none;stroke-opacity:1" d="m5.87 32.487 9.373-4.476 6.7 1.627 9.736-9.691" transform="translate(-.027 .084)"/><g transform="translate(-.014 -3.109)"><ellipse style="fill:#000;fill-opacity:1;stroke:none;stroke-width:9.68424;stroke-linecap:round;stroke-linejoin:round;stroke-miterlimit:4;stroke-dasharray:none;stroke-opacity:1" cx="65.35" cy="39.1" transform="matrix(.3484 0 0 .30851 13.38 5.595)" rx="11.6" ry="13.1"/><path style="fill:none;stroke:#000;stroke-width:7;stroke-linecap:round;stroke-linejoin:round;stroke-miterlimit:4;stroke-dasharray:none;stroke-opacity:1" d="m112.3 71.4-12.55 3.1m15.1-19.6-11.95-6.05m24.55-4.35-5.05-12.7m21.55 12.1L148 31.25m9.15 22.9 11.4-7.1" transform="scale(.26458)"/><path style="fill:none;stroke:#000;stroke-width:7;stroke-linecap:round;stroke-linejoin:round;stroke-miterlimit:4;stroke-dasharray:none;stroke-opacity:1" d="m160.5 70.35 12.3 1.8" transform="translate(-.075 -.108) scale(.26458)"/><path style="fill:none;stroke:#000;stroke-width:7;stroke-linecap:round;stroke-linejoin:round;stroke-miterlimit:4;stroke-dasharray:none;stroke-opacity:1" d="m152.35 85 8.7 9.65" transform="scale(.26458)"/></g><path style="fill:none;stroke:#000;stroke-width:3.175;stroke-linecap:round;stroke-linejoin:miter;stroke-opacity:1;stroke-dasharray:none" d="M8.785 41.726v-4.747m6.625 4.747v-8.014m6.532 8.014v-6.797" transform="translate(-.027 .084)"/><path style="fill:none;stroke:#000;stroke-width:3.175;stroke-linecap:round;stroke-linejoin:miter;stroke-dasharray:none;stroke-opacity:1" d="M28.613 41.726v-11.2" transform="translate(-.027 .084)"/><path style="fill:none;stroke:#000;stroke-width:3.175;stroke-linecap:round;stroke-linejoin:miter;stroke-opacity:1;stroke-dasharray:none" d="M35.317 41.726V24.554" transform="translate(-.027 .084)"/></svg>