<svg width="192" height="192" viewBox="0 0 192 192" fill="none" xmlns="http://www.w3.org/2000/svg"><path d="M26.96 90.5C36 74 68 60 96 22m69.04 68.5C156 74 124 60 96 22m18 148c-10-10-18-34-18-61 0 27-8 51-18 61" stroke="#000" stroke-width="12" stroke-linecap="round" stroke-linejoin="round"/><path d="M96 109a37.003 37.003 0 0 1-29.782 36.289A37.001 37.001 0 0 1 26.958 90.5m138.085 0a36.994 36.994 0 0 1 2.141 32.659 36.997 36.997 0 0 1-41.402 22.13 36.99 36.99 0 0 1-25.966-19.924A37.003 37.003 0 0 1 96 109" stroke="#000" stroke-width="12" stroke-linecap="round" stroke-linejoin="round"/></svg>