<svg id="Layer_1" data-name="Layer 1" xmlns="http://www.w3.org/2000/svg" viewBox="0 0 24 24">
  <g>
    <path d="M9.72392,3.40146l.75649.95849h8.42966v1.731h1.71572v1.731h.56589V4.085a1.338,1.338,0,0,0-1.33651-1.33651H4.48115A1.54031,1.54031,0,0,0,3.217,3.40474q.05951-.00324.1197-.00328Z"/>
    <path d="M9.38756,9.48144a2.85862,2.85862,0,0,0-3.41077,4.17794Z"/>
    <path d="M12.84262,8.5856,9.354,4.1652H3.33661A1.33452,1.33452,0,0,0,2.00124,5.5586L2.618,19.97189a1.3341,1.3341,0,0,0,1.33536,1.27962H20.177a1.33359,1.33359,0,0,0,1.33536-1.27962L22,8.5856ZM8.41611,7.07115a5.0935,5.0935,0,0,1,4.23253,2.25564L6.47779,16.88647A5.09916,5.09916,0,0,1,8.41611,7.07115Zm0,13.49a5.10212,5.10212,0,0,1-4.94127-3.83655L4.024,16.0521a5.89455,5.89455,0,0,0,2.16361,1.54081l.52391.21537L11.76425,11.618a5.09839,5.09839,0,0,1-3.34814,8.94316Z"/>
    <polygon points="19.862 7.822 19.862 6.855 12.449 6.855 13.213 7.822 19.862 7.822"/>
    <polygon points="11.083 5.124 11.846 6.091 18.146 6.091 18.146 5.124 11.083 5.124"/>
  </g>
</svg>
