<svg xmlns="http://www.w3.org/2000/svg" width="192" height="192" fill="none"><path stroke="#000" stroke-linecap="round" stroke-linejoin="round" stroke-width="12" d="M70 170h10a6 6 0 0 0 6-6v-12a6 6 0 0 1 6-6h8a6 6 0 0 1 6 6v12a6 6 0 0 0 6 6h10a6 6 0 0 0 6-6v-13.333c0-5.891 4.776-10.667 10.667-10.667a5.333 5.333 0 0 0 5.333-5.333V124.5c0-6.627 5.373-12 12-12h4a6 6 0 0 0 6-6V84a6 6 0 0 0-6-6h-4c-6.627 0-12-5.373-12-12v-8a6 6 0 0 0-6-6h-18c-6.627 0-12-5.373-12-12V28a6 6 0 0 0-6-6H90a6 6 0 0 0-6 6v12c0 6.627-5.373 12-12 12H54a6 6 0 0 0-6 6v8c0 6.627-5.373 12-12 12h-4a6 6 0 0 0-6 6v22.5a6 6 0 0 0 6 6h4c6.627 0 12 5.373 12 12v10.167A5.333 5.333 0 0 0 53.333 140C59.224 140 64 144.776 64 150.667V164a6 6 0 0 0 6 6"/><path stroke="#000" stroke-linecap="round" stroke-linejoin="round" stroke-width="12" d="M130.012 98.506a29 29 0 0 1-13.512 17.609 29 29 0 0 1-22.006 2.897"/></svg>