<svg xmlns="http://www.w3.org/2000/svg" width="192" height="192" fill="none"><path stroke="#000" stroke-linecap="round" stroke-linejoin="round" stroke-width="12" d="m64 64 3.5 3.5M64 128l3.5-3.5M127 64l-3.5 3.5M127 128l-3.5-3.5M49 96c0-21.986-10.629-41.475-27-53.554L42.33 22C54.304 38.795 73.881 49.737 96 49.737c22.118 0 41.695-10.942 53.671-27.737L170 42.446C153.629 54.525 143 74.014 143 96s10.629 41.475 27 53.555L149.671 170c-11.976-16.795-31.553-27.737-53.671-27.737S54.305 153.205 42.33 170L22 149.555C38.371 137.475 49 117.986 49 96"/><circle cx="96" cy="96" r="20" stroke="#000" stroke-linecap="round" stroke-linejoin="round" stroke-width="12"/></svg>