<svg width="192" height="192" viewBox="0 0 192 192" fill="none" xmlns="http://www.w3.org/2000/svg"><path d="M158 82.8S145.873 74 129 74c-15.819 0-26.364 7.15-26.364 17.6 0 15.949 26.364 15.399 26.364 15.399M100 131.2s12.127 8.8 29 8.8c15.819 0 26.364-7.15 26.364-17.599 0-15.95-26.364-15.4-26.364-15.4M96 22c-15.014 0-29.464 6.762-35.736 10.134-2.026 1.09-3.096 3.33-2.853 5.617 5.528 51.998 2.68 92.061 1.811 101.913-.133 1.516.284 3.012 1.237 4.198C65.485 150.119 82.518 170 96 170" stroke="#000" stroke-width="12" stroke-linecap="round" stroke-linejoin="round"/><path d="M37 54v10m0 25v10m0 25v10m0-75h21" stroke="#000" stroke-width="10" stroke-linecap="round" stroke-linejoin="round"/><path d="M96 22c15.014 0 29.464 6.762 35.736 10.134 2.026 1.09 3.096 3.33 2.853 5.617A585.905 585.905 0 0 0 133.17 53M96 170c6.457 0 13.728-4.56 20.105-10" stroke="#000" stroke-width="12" stroke-linecap="round" stroke-linejoin="round"/><path d="M37 94h21m-21 35h21" stroke="#000" stroke-width="10" stroke-linecap="round" stroke-linejoin="round"/></svg>