<svg xmlns="http://www.w3.org/2000/svg" width="192" height="192" viewBox="0 0 50.8 50.8"><path fill="none" stroke="#000" stroke-linecap="round" stroke-linejoin="round" stroke-width="3.175" d="M44.224 19.235c.754-3.747 1.064-7.492.36-11.215-2.663 2.678-5.326 4.773-8.015 6.125m-3.437-2.716c-3.35-1.447-7.432-1.612-11.347-.991M19.47 21.252c-1.644-4.375-2.088-8.857-1.175-13.47a43.6 43.6 0 0 0 9.529 6.55m-14.796-.81c-2.652 1.897-5.487 5.012-7.207 8.187 2.662-.318 5.385-.291 7.76.504-4.703 3.49-7.12 8.715-7.545 14.519 4.046-2.917 7.028-4.136 10.7-4.73-2.767 1.538-3.846 6.482-3.872 11.017 4.057-3.017 7.787-3.67 11.105-3.428 2.156 1.32 4.905 2.041 7.357 2.177 3.066.17 5.587-.493 7.458-1.42m-6.073-4.225c-1.288.238-3.006.897-4.779.262-4.558-1.63-5.729-8.198-3.747-12.228.353-.69 1.086-1.242 2.2-.994 2.443.47 6.127 3.065 7.707 6.77.43 1.01 1.426 2.077 2.247 2.077.977 0 1.895-.834 2.264-2.029 1.407-4.556 3.152-6.064 4.48-6.514.709-.24 1.167.028 1.358.8.206.779.316 1.871.303 3.088-.033 3.272-1.68 8.89-4.92 9.007-.871-.018-1.6-.453-3.195-.555-.938-.06-2.175-.006-3.918.316"/><path d="M29.196 29.398a1.588 1.588 0 0 0 0 3.174 1.588 1.588 0 0 0 0-3.174"/></svg>