<svg width="192" height="192" viewBox="0 0 192 192" fill="none" xmlns="http://www.w3.org/2000/svg"><g clip-path="url(#a)"><path d="M59 35.914C23.606 56.35 11.48 101.606 31.914 137a73.83 73.83 0 0 0 17.067 20.168l16.718-9.651a8 8 0 0 0 2.928-10.929l-18-31.177a8 8 0 0 0-10.928-2.928l-16.455 9.5M133 35.914C168.394 56.35 180.52 101.606 160.086 137a73.847 73.847 0 0 1-17.067 20.168l-16.718-9.651a8.001 8.001 0 0 1-2.928-10.929l18-31.177a8 8 0 0 1 10.928-2.928l16.455 9.5" stroke="#000" stroke-width="12" stroke-linecap="round" stroke-linejoin="round"/><path fill-rule="evenodd" clip-rule="evenodd" d="M47.834 52C60.146 39.645 77.18 32 96 32c18.82 0 35.854 7.645 48.166 20h15.84C145.411 32.569 122.173 20 96 20c-26.173 0-49.41 12.569-64.006 32h15.84Z" fill="#000"/></g><defs><clipPath id="a"><path fill="#fff" d="M0 0h192v192H0z"/></clipPath></defs></svg>