<svg width="192" height="192" viewBox="0 0 192 192" fill="none" xmlns="http://www.w3.org/2000/svg">
<g clip-path="url(#clip0_40_96)">
<path d="M59 39.9141C23.6063 60.3486 11.4796 105.606 31.9141 141C36.4888 148.924 42.3077 155.681 48.9814 161.168L65.6987 151.517C69.5251 149.307 70.8361 144.415 68.6269 140.588L50.6269 109.411C48.4178 105.585 43.5251 104.274 39.6987 106.483L23.2442 115.983" stroke="black" stroke-width="12" stroke-linecap="round" stroke-linejoin="round"/>
<path d="M133 39.9141C168.394 60.3486 180.52 105.606 160.086 141C155.511 148.924 149.692 155.681 143.019 161.168L126.301 151.517C122.475 149.307 121.164 144.415 123.373 140.588L141.373 109.411C143.582 105.585 148.475 104.274 152.301 106.483L168.756 115.983" stroke="black" stroke-width="12" stroke-linecap="round" stroke-linejoin="round"/>
<path fill-rule="evenodd" clip-rule="evenodd" d="M47.8336 56C60.1457 43.6455 77.18 36 96 36C114.82 36 131.854 43.6455 144.166 56H160.006C145.411 36.5689 122.173 24 96 24C69.8269 24 46.5894 36.5689 31.9941 56H47.8336Z" fill="black"/>
</g>
<defs>
<clipPath id="clip0_40_96">
<rect width="192" height="192" fill="white"/>
</clipPath>
</defs>
</svg>
