<svg width="192" height="192" viewBox="0 0 192 192" fill="none" xmlns="http://www.w3.org/2000/svg"><path d="M22 85a6 6 0 0 1 6-6h80a6 6 0 0 1 6 6v44a6 6 0 0 1-6 6H28a6 6 0 0 1-6-6V85Z" stroke="#000" stroke-width="12" stroke-linecap="round" stroke-linejoin="round"/><path d="m114 95 48.743-10.445c3.735-.8 7.257 2.047 7.257 5.867v33.156c0 3.82-3.522 6.667-7.257 5.867l-44-9.429A5.998 5.998 0 0 1 114 114.15V95ZM94 79V57a6 6 0 0 0-6-6H46" stroke="#000" stroke-width="12" stroke-linecap="round" stroke-linejoin="round"/></svg>