<svg xmlns="http://www.w3.org/2000/svg" xml:space="preserve" width="192" height="192" viewBox="0 0 50.8 50.8"><path d="M20.25 33.63v10.35a1 1 135 0 1-1 1h-6.655a1.007 1.007 44.787 0 1-1.008-1l-.078-10.556m27.739-13.047.067 23.602a.997.997 134.919 0 1-.997 1h-6.655a1.007 1.007 44.807 0 1-1.007-1l-.08-11.773" style="fill:none;stroke:#000;stroke-width:3.17499;stroke-linecap:round;stroke-linejoin:round;stroke-miterlimit:32;stroke-dasharray:none" transform="translate(.001)"/><ellipse cx="25.047" cy="19.606" rx="5.855" ry="5.811" style="fill:none;stroke:#000;stroke-width:3.175;stroke-linecap:round;stroke-linejoin:round;stroke-miterlimit:32;stroke-dasharray:none"/><path d="M39.25 20.377c-.407 7.622-8.055 12.77-14.553 13.065-3.758.171-13.187-.018-13.187-.018s-.1-10.649.107-14.518c.407-7.622 6.922-13.472 14.553-13.065 7.63.406 13.486 6.914 13.08 14.536" style="fill:none;stroke:#000;stroke-width:3.175;stroke-linecap:round;stroke-linejoin:round;stroke-miterlimit:32"/></svg>