<svg xmlns="http://www.w3.org/2000/svg" width="192" height="192" fill="none"><path stroke="#000" stroke-linecap="round" stroke-linejoin="round" stroke-width="12" d="M66 101c-5-19 8-36 30-36 12 0 35 4 35 21l-1 63-48 6z"/><path stroke="#000" stroke-linecap="round" stroke-linejoin="round" stroke-width="10" d="M171 40C105 15 47 58.5 47 58.5V35S21 58.5 21 89c0 48 117 30.5 117 30.5"/><path stroke="#000" stroke-linecap="round" stroke-linejoin="round" stroke-width="12" d="m92 157 1 7m27-11 1 7"/><ellipse cx="88" cy="100" stroke="#000" stroke-linecap="round" stroke-linejoin="round" stroke-width="6" rx="2" ry="4"/><ellipse cx="110" cy="98" stroke="#000" stroke-linecap="round" stroke-linejoin="round" stroke-width="6" rx="2" ry="4"/><path stroke="#000" stroke-linecap="round" stroke-linejoin="round" stroke-width="12" d="m60 158-6-20-13 6m115-2 1-22 12 3"/></svg>