<svg width="192" height="192" viewBox="0 0 192 192" fill="none" xmlns="http://www.w3.org/2000/svg"><path d="M66 101c-5-19 8-36 30-36 12 0 35 4 35 21l-1 63-48 6-16-54Z" stroke="#000" stroke-width="12" stroke-linecap="round" stroke-linejoin="round"/><path d="M171 40C105 15 47 58.5 47 58.5V35S21 58.5 21 89c0 48 117 30.5 117 30.5" stroke="#000" stroke-width="10" stroke-linecap="round" stroke-linejoin="round"/><path d="m92 157 1 7m27-11 1 7" stroke="#000" stroke-width="12" stroke-linecap="round" stroke-linejoin="round"/><ellipse cx="88" cy="100" rx="2" ry="4" stroke="#000" stroke-width="6" stroke-linecap="round" stroke-linejoin="round"/><ellipse cx="110" cy="98" rx="2" ry="4" stroke="#000" stroke-width="6" stroke-linecap="round" stroke-linejoin="round"/><path d="m60 158-6-20-13 6m115-2 1-22 12 3" stroke="#000" stroke-width="12" stroke-linecap="round" stroke-linejoin="round"/></svg>