<svg width="192" height="192" fill="none" xmlns="http://www.w3.org/2000/svg"><path d="M74.07 146.393c13.24 0 23.974-10.734 23.974-23.974 0-13.241-10.734-23.974-23.975-23.974-13.24 0-23.974 10.733-23.974 23.974 0 13.24 10.734 23.974 23.974 23.974Z" stroke="#000" stroke-width="12" stroke-miterlimit="0" stroke-linecap="round" stroke-linejoin="round"/><path d="M121.135 132.306a47.586 47.586 0 0 1-72.986 29.674 47.585 47.585 0 0 1-.515-78.786 47.588 47.588 0 0 1 57.542 2.764M105.176 85.958l3.768-20.256s11.488-3.274 25.047-5.769M121.135 132.306l12.856-72.373M115.005 28.38l-3.573 22.38M115.005 28.38s21.849-6.304 49.473-6.38M164.478 22.003l-3.327 21.574M111.432 50.76s23.592-7.17 49.719-7.183" stroke="#000" stroke-width="12" stroke-miterlimit="0" stroke-linecap="round" stroke-linejoin="round"/></svg>