<svg xmlns="http://www.w3.org/2000/svg" width="192" height="192" fill="none" stroke="#000" stroke-linecap="round" stroke-linejoin="round" stroke-width="12" viewBox="0 0 192 192"><path d="M74.07 146.393c13.24 0 23.974-10.734 23.974-23.974S87.31 98.445 74.069 98.445c-13.24 0-23.974 10.733-23.974 23.974s10.734 23.974 23.974 23.974z"/><path d="M121.135 132.306a47.586 47.586 0 0 1-72.986 29.674 47.585 47.585 0 0 1-.515-78.786 47.59 47.59 0 0 1 57.542 2.764m0 0 3.768-20.256s11.488-3.274 25.047-5.769m-12.856 72.373 12.856-72.373M115.005 28.38l-3.573 22.38m3.573-22.38s21.849-6.304 49.473-6.38m0 .003-3.327 21.574m-49.719 7.183s23.592-7.17 49.719-7.183"/></svg>