<svg xmlns="http://www.w3.org/2000/svg" width="192" height="192" viewBox="0 0 192 192"><path stroke="#000" stroke-linecap="round" stroke-width="12" d="M14 95v28m24-41v48m24-57v58"/><path d="M86 131h-6a6 6 0 0 0 6 6v-6zm61.964-37.303-5.995-.257a6.001 6.001 0 0 0 9.01 5.444l-3.015-5.187zM86 60.5l-3.542-4.843A6 6 0 0 0 80 60.5h6zm23 64.5H86v12h23v-12zm49 0h-49v12h49v-12zm14-14a14 14 0 0 1-14 14v12a26 26 0 0 0 26-26h-12zm-14-14a14 14 0 0 1 14 14h12a26 26 0 0 0-26-26v12zm-7.021 1.884A13.91 13.91 0 0 1 158 97V85c-4.745 0-9.21 1.277-13.051 3.51l6.03 10.374zM142 92a.031 1.44 0 0 0-.031 1.44l11.989.513A.042 1.953 0 0 0 154 92h-12zm-33-33a33 33 0 0 1 33 33h12a45 45 0 0 0-45-45v12zm-19.458 6.344A32.825 32.825 0 0 1 109 59V47c-9.917 0-19.1 3.215-26.542 8.658l7.084 9.686zM80 60.5V131h12V60.5H80z"/></svg>