<svg width="192" height="192" viewBox="0 0 192 192" fill="none" xmlns="http://www.w3.org/2000/svg"><path d="M22 63c0 65 74 105 74 105m74-105c0 65-74 105-74 105" stroke="#000" stroke-width="12" stroke-linecap="round" stroke-linejoin="round"/><path d="M60 25c11.074 0 23.542 3.8 36 9.489M167 83s-33.959-31.599-71-48.511M132 25c-11.074 0-23.542 3.8-36 9.489M23 57c41 31 107 84 107 84" stroke="#000" stroke-width="12" stroke-linecap="round" stroke-linejoin="round"/><path d="M22 63a38 38 0 0 1 38-38m110 38a38.002 38.002 0 0 0-38-38" stroke="#000" stroke-width="12" stroke-linecap="round" stroke-linejoin="round"/></svg>