<svg width="192" height="192" viewBox="0 0 192 192" fill="none" xmlns="http://www.w3.org/2000/svg"><path d="M76.5 118.42c6.27-.171 13.39-1.181 19.5-3.92 6.111 2.739 13.229 3.749 19.5 3.92-7.2-.064-16 7.36-19.5 11.08-3.5-3.72-12.3-11.144-19.5-11.08Z" fill="#000"/><path d="M22 43c1.833 4.333 8 13.8 17.5 19.5 12.5 7.5 34 12 56.5 52m0 0c-6.11 2.739-13.23 3.749-19.5 3.92M96 114.5c22.5-40 44-44.5 56.5-52C162 56.8 168.167 47.333 170 43m-74 71.5c6.111 2.739 13.229 3.749 19.5 3.92M26 71.5l7.133 4.904A2 2 0 0 1 34 78.052V91.5c-.5 7 4.6 22 29 26 2.918.552 7.867 1.074 13.5.92m0 0c7.2-.064 16 7.36 19.5 11.08 3.5-3.72 12.3-11.144 19.5-11.08M166 71.5l-7.133 4.904a2 2 0 0 0-.867 1.648V91.5c.5 7-4.6 22-29 26-2.918.552-7.867 1.074-13.5.92m-40 16.08 10.392 7.884c1.833 1.39 1.483 4.241-.631 5.147L79.5 150" stroke="#000" stroke-width="12" stroke-linecap="round" stroke-linejoin="round"/><path d="M76.817 89.5c-1.647 4.66-6.092 8-11.317 8-6.627 0-12-5.373-12-12A11.99 11.99 0 0 1 59 75.411" stroke="#000" stroke-width="12" stroke-linecap="round"/><path d="m116.5 134.5-10.392 7.884c-1.833 1.39-1.483 4.241.631 5.147L112.5 150" stroke="#000" stroke-width="12" stroke-linecap="round" stroke-linejoin="round"/><path d="M115.183 89.5c1.647 4.66 6.092 8 11.317 8 6.627 0 12-5.373 12-12a11.99 11.99 0 0 0-5.5-10.089" stroke="#000" stroke-width="12" stroke-linecap="round"/></svg>