<svg width="192" height="192" fill="none" xmlns="http://www.w3.org/2000/svg"><path d="M84.956 89.83C82.214 94.707 76.992 98 71 98c-8.837 0-16-7.163-16-16 0-5.547 2.823-10.434 7.11-13.305m22.846 21.136C91.494 98.794 96 109.719 96 123c-54 0-62-22-62-40 0-30.5-12-48-12-48s9 15.5 18 21 12.824 6.442 22.11 12.695m22.846 21.136C78.522 81.01 70.121 74.09 62.11 68.695M168.902 36.8C169.606 35.678 170 35 170 35s-.418.61-1.098 1.8Zm0 0C166.236 41.045 159.118 51.65 152 56c-9 5.5-12.824 6.442-22.11 12.695M168.902 36.8C165.938 41.987 158 58.194 158 83c0 18-8 40-62 40 0-13.281 4.506-24.206 11.044-33.17m0 0C109.786 94.707 115.008 98 121 98c8.837 0 16-7.163 16-16 0-5.547-2.823-10.434-7.11-13.305m-22.846 21.136c6.434-8.82 14.835-15.741 22.846-21.136" stroke="#000" stroke-width="12" stroke-linecap="round" stroke-linejoin="round"/><path d="m84 143 12 6-12 6s-2-3-2-6 2-6 2-6Zm24 0-12 6 12 6s2-3 2-6-2-6-2-6Z" stroke="#000" stroke-width="10" stroke-linecap="round" stroke-linejoin="round"/></svg>