<?xml version="1.0" encoding="utf-8"?>
	<svg version="1.1" xmlns="http://www.w3.org/2000/svg" xmlns:xlink="http://www.w3.org/1999/xlink" x="0px" y="0px" width="240.0" height="240.0" xml:space="preserve">
		<path d="M94.291,100.042H67.539V68.832C67.539,62.038 68.884,55.704 71.573,49.83C74.263,43.956 77.978,38.79 82.72,34.331C87.461,29.873 93.052,26.369 99.493,23.822C105.933,21.274 112.975,20 120.618,20C127.412,20 133.958,21.274 140.257,23.822C146.556,26.369 152.147,29.873 157.03,34.331C161.913,38.79 165.805,43.956 168.707,49.83C171.609,55.704 173.059,62.038 173.059,68.832V100.042H147.369V74.777C147.369,65.86 144.892,58.96 139.938,54.076C134.984,49.193 128.261,46.752 119.769,46.752C112.125,46.752 105.968,49.193 101.297,54.076C96.626,58.96 94.291,65.86 94.291,74.777V100.042ZM185.798,112.781C189.62,112.781 192.911,114.161 195.671,116.921C198.431,119.682 199.811,122.972 199.811,126.794V192.611C199.811,196.433 199.139,200.007 197.794,203.333C196.449,206.66 194.609,209.561 192.274,212.038C189.938,214.515 187.178,216.461 183.994,217.877C180.809,219.292 177.306,220 173.484,220H66.265C62.444,220 58.976,219.292 55.862,217.877C52.748,216.461 50.094,214.586 47.9,212.251C45.706,209.915 44.008,207.19 42.805,204.076C41.602,200.962 41,197.636 41,194.098V126.794C41,122.972 42.345,119.682 45.034,116.921C47.723,114.161 50.979,112.781 54.8,112.781H67.539H94.291H147.369H173.059H185.798V112.781Z" fill="#000" stroke="" stroke-width="" stroke-miterlimit=""/>
	</svg>
