<svg xmlns="http://www.w3.org/2000/svg" width="192" height="192" fill="none" viewBox="0 0 192 192"><g stroke="#000" stroke-linecap="round" stroke-linejoin="round" stroke-width="12" clip-path="url(#a)"><path stroke-width="8" d="m46 105 11 33m-11-33v22m0-22 15 21"/><path stroke-width="10" d="M140 100a22 22 0 0 1-21.61-26.122M94 77a47 47 0 0 0 47 47m-3 23a67 67 0 0 1-67-67"/><path d="M22 82.66a6 6 0 0 1 5.65-5.99l108.001-6.3A6 6 0 0 1 142 76.36v86.787c0 3.629-3.196 6.427-6.793 5.947l-108-14.4A6 6 0 0 1 22 148.747z"/><path d="m143.364 122 21.179-1.924A6 6 0 0 0 170 114.1V28.711a6 6 0 0 0-6.669-5.962l-50 5.612A6 6 0 0 0 108 34.324V71.5"/></g><defs><clipPath id="a"><path fill="#fff" d="M0 0h192v192H0z"/></clipPath></defs></svg>