<?xml version="1.0" standalone="no"?>
<!DOCTYPE svg PUBLIC "-//W3C//DTD SVG 20010904//EN"
 "http://www.w3.org/TR/2001/REC-SVG-20010904/DTD/svg10.dtd">
<svg version="1.0" xmlns="http://www.w3.org/2000/svg"
 width="192.000000pt" height="192.000000pt" viewBox="0 0 192.000000 192.000000"
 preserveAspectRatio="xMidYMid meet">

<g transform="translate(0.000000,192.000000) scale(0.100000,-0.100000)"
fill="#000000" stroke="none">
<path d="M1454 1676 c-17 -8 -93 -28 -169 -45 -125 -28 -212 -63 -230 -90 -3
-5 34 -42 82 -82 49 -40 158 -144 244 -231 l157 -159 27 47 c26 44 33 73 79
324 27 145 19 185 -43 227 -39 26 -99 30 -147 9z m99 -101 c12 -11 13 -23 7
-47 -5 -18 -16 -80 -26 -138 -9 -58 -20 -112 -24 -120 -6 -11 -24 2 -77 56
-37 39 -96 94 -131 124 -35 30 -59 57 -54 62 5 5 62 22 127 38 64 16 120 31
123 35 10 10 41 5 55 -10z"/>
<path d="M982 1480 c-28 -12 -281 -258 -378 -368 -40 -46 -99 -121 -130 -168
-50 -72 -56 -86 -43 -97 8 -8 45 -40 82 -72 l69 -59 -49 -21 c-62 -28 -283
-164 -283 -175 0 -5 71 -76 157 -160 144 -138 159 -150 171 -133 31 42 134
234 148 277 9 25 19 46 22 46 4 0 37 -30 74 -67 l67 -66 38 26 c21 15 90 71
153 125 227 195 373 354 400 437 19 58 -12 105 -170 258 -207 202 -268 242
-328 217z m158 -193 c106 -92 240 -232 240 -250 0 -30 -67 -111 -193 -233
-143 -140 -266 -244 -288 -244 -7 0 -63 48 -123 108 -61 59 -135 129 -163 155
-29 26 -53 54 -53 62 0 36 293 359 413 456 58 46 52 48 167 -54z m-488 -688
c-3 -30 -93 -211 -107 -216 -16 -5 -125 96 -125 116 0 24 196 135 225 127 6
-2 9 -14 7 -27z"/>
</g>
</svg>
