<?xml version="1.0" encoding="UTF-8"?><svg id="Layer_1" xmlns="http://www.w3.org/2000/svg" width="192" height="192" viewBox="0 0 192 192"><defs><style>.cls-1,.cls-2,.cls-3,.cls-4{fill:none;}.cls-2{stroke-width:12px;}.cls-2,.cls-3,.cls-4{stroke:#000;}.cls-2,.cls-4{stroke-miterlimit:10;}.cls-3{stroke-linejoin:round;}.cls-3,.cls-4{stroke-width:8px;}</style></defs><rect class="cls-1" width="192" height="192"/><polygon class="cls-3" points="67.5 154 67.5 92 73.5 78 79.5 92 79.5 154 67.5 154"/><polygon class="cls-3" points="90.5 154 90.5 34 96.5 20 102.5 34 102.5 154 90.5 154"/><polygon class="cls-3" points="113.5 154 113.5 92 119.5 78 125.5 92 125.5 154 113.5 154"/><polyline class="cls-3" points="69.92 154 73.5 163.85 69.5 172 77.95 172 73.5 163.85 77.95 154"/><polyline class="cls-3" points="94.23 155.17 96.58 161.65 93.95 167 99.5 167 96.58 161.65 99.5 155.17"/><polyline class="cls-3" points="115.92 154 119.5 163.85 115.5 172 123.95 172 119.5 163.85 123.95 154"/><line class="cls-2" x1="79.45" y1="131.5" x2="90" y2="131.5"/><line class="cls-2" x1="103.45" y1="131.5" x2="114" y2="131.5"/><line class="cls-4" x1="90.5" y1="44.22" x2="102.5" y2="44.22"/></svg>