<svg width="192" height="192" viewBox="0 0 192 192" fill="none" xmlns="http://www.w3.org/2000/svg"><path d="M113.584 96.449a5.999 5.999 0 0 0 5.983 5.551h16.866c3.14 0 5.749-2.42 5.983-5.551l5.1-68A6 6 0 0 0 141.533 22h-27.066a6 6 0 0 0-5.983 6.449l5.1 68Z" stroke="#000" stroke-width="12" stroke-linecap="round" stroke-linejoin="round"/><circle cx="16" cy="16" r="16" transform="matrix(1 0 0 -1 112 158)" stroke="#000" stroke-width="12" stroke-linecap="round" stroke-linejoin="round"/><path d="M49.584 95.551A6 6 0 0 1 55.567 90h16.866a6 6 0 0 1 5.983 5.551l5.1 68A6 6 0 0 1 77.533 170H50.467a6 6 0 0 1-5.983-6.449l5.1-68Z" stroke="#000" stroke-width="12" stroke-linecap="round" stroke-linejoin="round"/><circle cx="64" cy="50" r="16" stroke="#000" stroke-width="12" stroke-linecap="round" stroke-linejoin="round"/></svg>