<svg width="192" height="192" viewBox="0 0 192 192" fill="none" xmlns="http://www.w3.org/2000/svg">
<path fill-rule="evenodd" clip-rule="evenodd" d="M60.9926 74.0723C58.6103 74.0723 56.5228 74.3332 54.4241 75.2408C52.3253 76.137 50.3627 77.4416 48.7858 78.9958C47.2202 80.5501 46.1539 82.524 45.269 84.6341C44.3614 86.7216 43.8622 88.8203 43.8622 91.2027V129.241H118.17C121.085 129.241 123.456 131.612 123.456 134.528C123.456 137.444 121.085 139.815 118.17 139.815H45.7341C44.8551 139.815 44.1076 140.423 43.905 141.241C43.8708 141.379 43.8521 141.524 43.8509 141.672V144.358L43.8509 146.621C43.8509 149.015 44.3614 151.329 45.2576 153.428C46.1538 155.527 47.2316 157.263 48.7745 158.828C50.34 160.382 52.3027 161.687 54.4128 162.583C56.5115 163.491 58.5989 163.99 60.9813 163.99H130.479C132.861 163.99 134.948 163.491 137.047 162.583C139.157 161.687 141.131 160.371 142.685 158.828C144.251 157.263 145.533 155.527 146.441 153.428C147.348 151.329 147.609 149.015 147.609 146.621V108.583H73.1881C70.3406 108.583 68.0263 106.268 68.0263 103.421C68.0263 100.573 70.3406 98.2591 73.1881 98.2591H147.609V91.2141C147.609 89.4448 147.471 87.8256 147.024 86.2591C146.869 85.7163 146.677 85.1797 146.441 84.6455L146.452 84.6341C145.556 82.524 144.262 80.5614 142.697 78.9958C141.143 77.4416 139.18 76.137 137.059 75.2408C134.96 74.3332 132.872 74.0723 130.49 74.0723H60.9926ZM31.851 141.645C31.8509 141.659 31.8509 141.673 31.8509 141.686V146.621C31.8509 150.722 32.7243 154.634 34.2217 158.141C35.5819 161.326 37.426 164.409 40.2275 167.251C40.2582 167.282 40.2891 167.313 40.3201 167.344C43.0089 170.014 46.2521 172.15 49.6864 173.613C53.0833 175.077 56.7754 175.99 60.9813 175.99H130.479C134.686 175.99 138.379 175.077 141.777 173.612C145.215 172.146 148.467 169.998 151.14 167.344L151.171 167.313C153.591 164.893 155.836 161.934 157.455 158.191C159.291 153.945 159.609 149.766 159.609 146.621L159.609 144.358V92.3652L159.609 91.2141C159.609 88.196 159.321 84.4943 157.738 80.5567C157.664 80.3509 157.583 80.1462 157.497 79.9429C156.046 76.5263 153.918 73.2468 151.182 70.5106C148.486 67.8144 145.225 65.6705 141.774 64.2062C137.643 62.4295 133.774 62.0723 130.49 62.0723H120.338C121.217 60.7461 122.015 59.3067 122.699 57.7439C122.704 57.7309 122.71 57.7179 122.715 57.7049C122.723 57.6866 122.731 57.6682 122.739 57.6498C124.238 54.1395 125.11 50.2155 125.11 46.1304C125.11 41.8405 124.136 38.1631 122.761 34.8998C122.743 34.8588 122.726 34.8179 122.708 34.7771C121.28 31.4922 119.192 28.2166 116.464 25.4692C113.548 22.5314 110.364 20.6894 107.26 19.3703C103.711 17.8487 99.8203 17 95.7413 17C91.6769 17 87.7686 17.8428 84.2087 19.3764C80.9349 20.771 77.95 22.6186 75.173 25.3162C75.1537 25.335 75.1345 25.3538 75.1153 25.3726C75.0932 25.3944 75.0712 25.4163 75.0492 25.4383C72.28 28.2074 70.1913 31.5185 68.7745 34.7772L68.7435 34.8492C67.319 38.1851 66.3727 41.8744 66.3727 46.1304C66.3727 50.2518 67.2708 54.1573 68.722 57.5992C68.7424 57.6476 68.7631 57.6958 68.7841 57.7438C69.4673 59.3067 70.2652 60.7461 71.1451 62.0723H60.9926C57.7035 62.0723 53.8265 62.4307 49.687 64.2153C46.2691 65.6784 43.0438 67.8063 40.3622 70.4493L40.3314 70.4798C37.1615 73.6268 35.3627 77.2385 34.2315 79.9248C32.763 83.3258 31.8622 87.0238 31.8622 91.2027V92.3652H31.851L31.851 141.645ZM102.548 30.4067C100.438 29.4992 98.1464 29 95.7413 29C93.3362 29 91.0333 29.4992 88.9345 30.4067C86.8244 31.303 85.1227 32.3807 83.5345 33.9236C81.9802 35.4778 80.687 37.4744 79.7794 39.5619C78.8831 41.6606 78.3727 43.748 78.3727 46.1304C78.3727 48.5128 78.8945 50.8384 79.7794 52.9372C80.687 55.0133 81.9802 56.783 83.5345 58.3372C84.3286 59.12 85.1454 59.8234 86.0303 60.4587C86.8953 61.0798 87.8363 61.6141 88.8637 62.0723L88.9345 62.1037C91.0446 62.9999 93.3589 63.5104 95.7413 63.5104C98.1237 63.5104 100.449 62.9886 102.548 62.1037L102.62 62.0723C103.636 61.6243 104.577 61.0794 105.464 60.4587C106.36 59.8347 107.177 59.12 107.948 58.3372C109.502 56.783 110.796 55.0133 111.703 52.9372C112.599 50.8384 113.11 48.5128 113.11 46.1304C113.11 43.748 112.588 41.6606 111.703 39.5619C110.796 37.4744 109.502 35.4891 107.948 33.9236C106.394 32.358 104.636 31.2916 102.548 30.4067Z" fill="black"/>
</svg>
