<svg width="192" height="192" viewBox="0 0 192 192" fill="none" xmlns="http://www.w3.org/2000/svg">
<path fill-rule="evenodd" clip-rule="evenodd" d="M96 8C98.2239 8 100.265 9.23004 101.305 11.1962L175.305 151.196C176.461 153.384 176.156 156.058 174.535 157.928C172.915 159.799 170.313 160.483 167.982 159.65L116.47 141.253L101.047 165.245C99.9431 166.962 98.0416 168 96 168C93.9584 168 92.0569 166.962 90.9529 165.245L75.53 141.253L24.018 159.65C21.6874 160.483 19.0849 159.799 17.4647 157.928C15.8444 156.058 15.539 153.384 16.6954 151.196L90.6954 11.1962C91.7347 9.23004 93.7761 8 96 8ZM34.5172 143.158L75.982 128.35C78.6099 127.411 81.5381 128.408 83.0471 130.755L90 141.571V38.1909L34.5172 143.158ZM102 38.1909V141.571L108.953 130.755C110.462 128.408 113.39 127.411 116.018 128.35L157.483 143.158L102 38.1909Z" fill="black"/>
</svg>
