<svg width="192" height="192" viewBox="0 0 192 192" fill="none" xmlns="http://www.w3.org/2000/svg">
<path fill-rule="evenodd" clip-rule="evenodd" d="M96 16C98.2239 16 100.265 17.23 101.305 19.1962L175.305 159.196C176.461 161.384 176.156 164.058 174.535 165.928C172.915 167.799 170.313 168.483 167.982 167.65L116.47 149.253L101.047 173.245C99.9431 174.962 98.0416 176 96 176C93.9584 176 92.0569 174.962 90.9529 173.245L75.53 149.253L24.018 167.65C21.6874 168.483 19.0849 167.799 17.4647 165.928C15.8444 164.058 15.539 161.384 16.6954 159.196L90.6954 19.1962C91.7347 17.23 93.7761 16 96 16ZM34.5172 151.158L75.982 136.35C78.6099 135.411 81.5381 136.408 83.0471 138.755L90 149.571V46.1909L34.5172 151.158ZM102 46.1909V149.571L108.953 138.755C110.462 136.408 113.39 135.411 116.018 136.35L157.483 151.158L102 46.1909Z" fill="black"/>
</svg>
