<svg xmlns="http://www.w3.org/2000/svg" width="192" height="192" fill="none"><path stroke="#000" stroke-linecap="round" stroke-linejoin="round" stroke-width="12" d="M157.406 95.406a43 43 0 0 0-60.812-60.812M40 120a32.003 32.003 0 0 0 32 32m-45 18c1-10 4-15 4-15 5 7 11 10 11 10s-8 4-15 5"/><path stroke="#000" stroke-linecap="round" stroke-linejoin="round" stroke-width="12" d="M72 152c26.379 0 57.292-27.27 73.733-43.95 7.243-7.348 11.677-12.64 11.677-12.64M40 120c0-22.649 28.348-56.022 44.916-73.594C91.757 39.151 96.59 34.59 96.59 34.59m44.277 43.398a19 19 0 0 0 3.915-19.681 19 19 0 0 0-15.92-12.216 19 19 0 0 0-18.699 10.104 82 82 0 0 1 14.243 11.399c4.39 4.39 8.223 9.2 11.399 14.242a19 19 0 0 0 5.062-3.848m10.382 59.969c5.637 13.009 6.494 23.389 1.296 28.588-6.036 6.035-19.054 3.908-35.063-4.385M30.499 75.774c-8.836-16.583-11.236-30.126-5.043-36.319 5.365-5.365 16.249-4.28 29.847 1.854"/></svg>