<svg xmlns="http://www.w3.org/2000/svg" width="192" height="192" fill="none"><path stroke="#000" stroke-linecap="round" stroke-linejoin="round" stroke-width="12" d="m81.938 77.938 9.758-9.715a6.105 6.105 0 0 1 8.608 0L128.202 96m-18.14 18.062-9.758 9.715a6.105 6.105 0 0 1-8.608 0L45.783 78.062a6.043 6.043 0 0 1 0-8.572l45.913-45.715a6.106 6.106 0 0 1 8.608 0l45.913 45.715a6.043 6.043 0 0 1 0 8.572L128.202 96m-64.341-.062-18.078 18a6.043 6.043 0 0 0 0 8.572l45.913 45.715a6.105 6.105 0 0 0 8.608 0l45.913-45.715a6.043 6.043 0 0 0 0-8.572L128.202 96"/></svg>