<svg xmlns="http://www.w3.org/2000/svg" width="192" height="192" fill="none" viewBox="0 0 192 192"><path stroke="#000" stroke-linecap="round" stroke-linejoin="round" stroke-width="12" d="M100 71.698c0-4.685 5.131-7.563 9.129-5.12l18.493 11.302c3.829 2.34 3.829 7.9 0 10.24l-18.493 11.3c-3.998 2.444-9.129-.434-9.129-5.12V71.699ZM26 117c47-12 22-45 49.23-72.77M56 156c32-36 46-9 82-29.97"/><circle cx="96" cy="96" r="74" stroke="#000" stroke-linecap="round" stroke-linejoin="round" stroke-width="12"/><path stroke="#000" stroke-linecap="round" stroke-linejoin="round" stroke-width="12" d="M138 126.033a52.005 52.005 0 0 0-22.599-96.921 52 52 0 0 0-40.17 15.118"/></svg>