<svg xmlns="http://www.w3.org/2000/svg" width="192" height="192" fill="none" viewBox="0 0 192 192"><circle cx="134" cy="118" r="4" stroke="#000" stroke-linecap="round" stroke-linejoin="round" stroke-width="8"/><path stroke="#000" stroke-linecap="round" stroke-linejoin="round" stroke-width="12" d="M110 95.192a6 6 0 0 1 .456-2.294L134 36l23.544 56.898a6 6 0 0 1 .456 2.294V136a6 6 0 0 1-6 6h-26c-3.314 0-5.95 2.776-7.188 5.849-1.229 3.05-3.728 6.151-8.812 6.151zM158 94h-48M36 81.192a6 6 0 0 1 .456-2.294L60 22l23.544 56.898A6 6 0 0 1 84 81.192V164a6 6 0 0 1-6 6H42a6 6 0 0 1-6-6zM84 82H36m20 60H36m48-30H64"/></svg>