<svg xmlns="http://www.w3.org/2000/svg" width="192" height="192" fill="none" stroke="#000" stroke-linecap="round" stroke-width="12" viewBox="0 0 192 192"><path d="M170 47.011C157.585 40.612 143.501 37 128.573 37 78.551 37 38 77.564 38 127.602 38 142.92 41.791 157.35 48.5 170m90.139-53.429c-6.094-6.095-15.974-6.095-22.068 0s-6.095 15.974 0 22.068 15.974 6.095 22.068 0 6.095-15.974 0-22.068z"/><path stroke-width="6" d="m50.5 167.5 2.522 3.963a1 1 0 0 1-.844 1.537H47.5M173 45.5V50a1 1 0 0 1-1.385.923L167 49"/><path stroke-linejoin="round" stroke-width="10" d="M105.301 79.616 73.387 93.162a1 1 0 0 0-.223 1.71l28.106 21.849a1 1 0 0 0 1.608-.683l3.808-35.395a1 1 0 0 0-1.385-1.027"/><path d="M88.5 85.5S69.943 45.56 66.37 41.303C63.21 37.54 30 21.98 30 21.98"/></svg>