<?xml version="1.0" encoding="UTF-8" standalone="no"?>
<svg
   width="192"
   height="192"
   viewBox="0 0 3.84 3.84"
   fill="none"
   version="1.1"
   id="svg1"
   xmlns="http://www.w3.org/2000/svg"
   xmlns:svg="http://www.w3.org/2000/svg">
  <defs
     id="defs1" />
  <path
     fill="#000000"
     fill-rule="evenodd"
     d="M 3.1576476,1.7246817 C 3.2616398,1.9120085 3.2002198,2.1480579 3.0181424,2.2608239 L 3.017379,2.2612059 1.2267125,3.3462872 C 1.0379939,3.4568141 0.79544676,3.3924407 0.68624909,3.2028449 0.65132501,3.1428703 0.63262254,3.0748736 0.63185916,3.0053488 V 0.83442226 c 0.001707,-0.14120421 0.0774447,-0.27111761 0.19942948,-0.34208421 0.12247573,-0.0706175 0.27335926,-0.0701797 0.39542386,0.001147 l 0.00191,0.001148 1.7887581,1.08393515 7.635e-4,3.821e-4 c 0.058206,0.035717 0.1062986,0.085951 0.1393144,0.1457344 z"
     clip-rule="evenodd"
     id="path1"
     style="fill:none;stroke:#000000;stroke-width:0.24;stroke-dasharray:none;stroke-opacity:1" />
  <path
     stroke-width="0.28"
     d="m 1.8932702,1.4060114 c 0,0 -0.2450211,-0.1229124 -0.5132687,-0.058555 C 1.219053,1.3860676 1.1185869,1.5350867 1.1571678,1.6961705 1.2060358,1.9002098 1.5137485,1.9058782 1.5137485,1.9058782 M 1.1445153,2.4487001 c 0,0 0.2450209,0.1229122 0.5132686,0.058556 C 1.8187325,2.4686438 1.9994519,2.3230834 1.9557271,2.140522 1.9017138,1.9150047 1.5137485,1.9058779 1.5137485,1.9058779"
     id="path1-6"
     style="fill:none;stroke:#000000;stroke-width:0.24;stroke-linecap:round;stroke-linejoin:round;stroke-dasharray:none;stroke-opacity:1" />
</svg>
