<svg width="191" height="192" fill="none" xmlns="http://www.w3.org/2000/svg"><path d="M161.156 145c0 3.283-1.698 6.534-4.998 9.567-3.299 3.033-8.135 5.789-14.232 8.111-6.097 2.321-13.335 4.163-21.3 5.419C112.66 169.353 104.122 170 95.5 170s-17.16-.647-25.126-1.903c-7.965-1.256-15.203-3.098-21.3-5.419-6.097-2.322-10.933-5.078-14.232-8.111-3.3-3.033-4.998-6.284-4.998-9.567" stroke="#000" stroke-width="12" stroke-linecap="round" stroke-linejoin="round"/><ellipse cx="95.5" cy="47" rx="65.656" ry="25" stroke="#000" stroke-width="12" stroke-linecap="round" stroke-linejoin="round"/><path d="M161.156 80c0 3.283-1.698 6.534-4.998 9.567-3.299 3.033-8.135 5.79-14.232 8.11-6.097 2.322-13.335 4.164-21.3 5.42C112.66 104.353 104.122 105 95.5 105s-17.16-.647-25.126-1.903c-7.965-1.256-15.203-3.098-21.3-5.42-6.097-2.32-10.933-5.077-14.232-8.11-3.3-3.033-4.998-6.284-4.998-9.567m131.312 32c0 3.283-1.698 6.534-4.998 9.567-3.299 3.033-8.135 5.789-14.232 8.111-6.097 2.321-13.335 4.163-21.3 5.419C112.66 136.353 104.122 137 95.5 137s-17.16-.647-25.126-1.903c-7.965-1.256-15.203-3.098-21.3-5.419-6.097-2.322-10.933-5.078-14.232-8.111-3.3-3.033-4.998-6.284-4.998-9.567m0-65v98m131.312-98v98" stroke="#000" stroke-width="12" stroke-linecap="round" stroke-linejoin="round"/></svg>