<svg width="192" height="192" viewBox="0 0 192 192" fill="none" xmlns="http://www.w3.org/2000/svg"><circle cx="96" cy="100" r="32" stroke="#000" stroke-width="12" stroke-linejoin="round"/><circle cx="138" cy="54" r="4" stroke="#000" stroke-width="8" stroke-linejoin="round"/><circle cx="105" cy="91" r="3" stroke="#000" stroke-width="6" stroke-linejoin="round"/><path d="M156 30H36a6 6 0 0 0-6 6v120a6 6 0 0 0 6 6h120a6 6 0 0 0 6-6V36a6 6 0 0 0-6-6ZM30 80h40m52 0h40M30 120h40m52 0h40M30 100h34m64 0h34" stroke="#000" stroke-width="12" stroke-linecap="round" stroke-linejoin="round"/></svg>