<svg width="192" height="192" viewBox="0 0 192 192" fill="none" xmlns="http://www.w3.org/2000/svg"><path d="M31 36.342C31 34.9252 31.5628 33.5665 32.5646 32.5646C33.5665 31.5628 34.9252 31 36.342 31H155.658C157.075 31 158.434 31.5628 159.435 32.5646C160.437 33.5665 161 34.9252 161 36.342V155.658C161 156.36 160.862 157.054 160.593 157.702C160.325 158.35 159.931 158.939 159.435 159.435C158.939 159.931 158.35 160.325 157.702 160.593C157.054 160.862 156.36 161 155.658 161H36.342C35.6405 161 34.9458 160.862 34.2977 160.593C33.6496 160.325 33.0607 159.931 32.5646 159.435C32.0686 158.939 31.6751 158.35 31.4066 157.702C31.1382 157.054 31 156.36 31 155.658V36.342Z" stroke="black" stroke-width="14" stroke-miterlimit="6" stroke-linecap="round" stroke-linejoin="round"/><path d="M82.777 88.12C82.7768 87.4183 82.915 86.7234 83.1834 86.0751C83.4519 85.4268 83.8454 84.8378 84.3416 84.3416C84.8378 83.8454 85.4268 83.4519 86.0751 83.1834C86.7234 82.915 87.4183 82.7768 88.12 82.777H103.88C104.582 82.7768 105.277 82.915 105.925 83.1834C106.573 83.4519 107.162 83.8454 107.658 84.3416C108.155 84.8378 108.548 85.4268 108.817 86.0751C109.085 86.7234 109.223 87.4183 109.223 88.12V103.88C109.223 104.582 109.085 105.277 108.817 105.925C108.548 106.573 108.155 107.162 107.658 107.658C107.162 108.155 106.573 108.548 105.925 108.817C105.277 109.085 104.582 109.223 103.88 109.223H88.12C87.4183 109.223 86.7234 109.085 86.0751 108.817C85.4268 108.548 84.8378 108.155 84.3416 107.658C83.8454 107.162 83.4519 106.573 83.1834 105.925C82.915 105.277 82.7768 104.582 82.777 103.88V88.12Z" stroke="black" stroke-width="14" stroke-miterlimit="6" stroke-linecap="round" stroke-linejoin="round"/></svg>
