<svg width="192" height="192" viewBox="0 0 192 192" fill="none" xmlns="http://www.w3.org/2000/svg"><path d="M36.645 60.645a50 50 0 0 0 0 70.71M55.03 79.03a24 24 0 0 0 0 33.941" stroke="#000" stroke-width="12" stroke-linecap="round" stroke-linejoin="round"/><circle cx="80" cy="62" r="5" stroke="#000" stroke-width="10" stroke-linecap="round" stroke-linejoin="round"/><circle cx="107" cy="57" r="3" stroke="#000" stroke-width="6" stroke-linecap="round" stroke-linejoin="round"/><circle cx="133" cy="57" r="3" stroke="#000" stroke-width="6" stroke-linecap="round" stroke-linejoin="round"/><circle cx="80" cy="96" r="5" stroke="#000" stroke-width="10" stroke-linecap="round" stroke-linejoin="round"/><circle cx="159" cy="79" r="12" stroke="#000" stroke-width="10" stroke-linecap="round" stroke-linejoin="round"/><path d="M147 79H97" stroke="#000" stroke-width="10" stroke-linecap="round" stroke-linejoin="round"/><path d="M137 134v30" stroke="#000" stroke-width="12" stroke-linecap="round" stroke-linejoin="round"/><path d="m147 20-8 13M93 20l8 13" stroke="#000" stroke-width="8" stroke-linecap="round" stroke-linejoin="round"/><path d="M161 92v36a6 6 0 0 1-6 6h-46a6 6 0 0 0-6 6v24m57.601-98.706a40.997 40.997 0 0 0-26.645-32.846 41.003 41.003 0 0 0-41.496 8.179" stroke="#000" stroke-width="12" stroke-linecap="round" stroke-linejoin="round"/><circle cx="80" cy="130" r="5" stroke="#000" stroke-width="10" stroke-linecap="round" stroke-linejoin="round"/></svg>