<svg width="192" height="192" viewBox="0 0 50.8 50.8" xmlns="http://www.w3.org/2000/svg"><path d="M25.4 44.98c-10.814 0-19.58-8.766-19.58-19.58 0-10.813 8.766-19.58 19.58-19.58 10.814 0 19.58 8.766 19.58 19.58 0 10.813-8.766 19.58-19.58 19.58z" style="fill:none;stroke:#000;stroke-width:3.175;stroke-linecap:round;stroke-linejoin:round;stroke-dasharray:none;stroke-opacity:1"/><path d="M25.4 37.528c-6.697 0-12.128-5.43-12.128-12.128 0-6.697 5.43-12.128 12.128-12.128 6.697 0 12.128 5.43 12.128 12.128S32.098 37.528 25.4 37.528z" style="fill:none;stroke:#000;stroke-width:3.175;stroke-linecap:round;stroke-linejoin:round;stroke-dasharray:none;stroke-opacity:1"/><path d="M28.893 23.513c.936.626 1.404.939 1.564 1.34.14.349.14.745 0 1.095-.16.4-.628.713-1.564 1.339L24.5 30.225c-1.039.695-1.558 1.042-1.986 1.005a1.281 1.281 0 0 1-.94-.557c-.256-.37-.256-1.024-.256-2.334v-5.877c0-1.31 0-1.966.256-2.335.224-.322.566-.525.94-.557.428-.037.947.31 1.986 1.005z" stroke="#000" stroke-width="38.815" stroke-linejoin="round" style="fill:none;stroke:#000;stroke-width:2.64583;stroke-linecap:round;stroke-dasharray:none;stroke-opacity:1"/><circle style="fill:#000;fill-opacity:1;stroke:none;stroke-width:3.175;stroke-linecap:round;stroke-linejoin:round;stroke-dasharray:none;stroke-opacity:1" cx="25.4" cy="-9.525" transform="rotate(90)" r="1.289"/><circle style="fill:#000;fill-opacity:1;stroke:none;stroke-width:3.175;stroke-linecap:round;stroke-linejoin:round;stroke-dasharray:none;stroke-opacity:1" cx="-11.225" cy="-24.696" r="1.289" transform="rotate(135)"/><circle style="fill:#000;fill-opacity:1;stroke:none;stroke-width:3.175;stroke-linecap:round;stroke-linejoin:round;stroke-dasharray:none;stroke-opacity:1" cx="-11.225" cy="-47.146" r="1.289" transform="rotate(135)"/><circle style="fill:#000;fill-opacity:1;stroke:none;stroke-width:3.175;stroke-linecap:round;stroke-linejoin:round;stroke-dasharray:none;stroke-opacity:1" cx="11.226" cy="-47.146" r="1.289" transform="rotate(135)"/></svg>