<?xml version="1.0" encoding="UTF-8" standalone="no"?>
<svg
   width="192"
   height="192"
   viewBox="0 0 50.8 50.8"
   version="1.1"
   id="svg10"
   xmlns="http://www.w3.org/2000/svg"
   xmlns:svg="http://www.w3.org/2000/svg">
  <defs
     id="defs10" />
  <path
     d="m 25.400001,45.243747 c -10.959667,0 -19.8437475,-8.88408 -19.8437475,-19.843746 0,-10.958654 8.8840805,-19.8437477 19.8437475,-19.8437477 10.959667,0 19.843746,8.8840797 19.843746,19.8437477 0,10.958652 -8.884079,19.843746 -19.843746,19.843746 z"
     style="fill:none;stroke:#000000;stroke-width:2.64584;stroke-linecap:round;stroke-linejoin:round;stroke-dasharray:none;stroke-opacity:1"
     id="path1" />
  <path
     d="m 25.400001,36.225759 c -5.977913,0 -10.825761,-4.846955 -10.825761,-10.825758 0,-5.977913 4.846956,-10.82576 10.825761,-10.82576 5.977911,0 10.825759,4.846955 10.825759,10.82576 0,5.978803 -4.846955,10.825758 -10.825759,10.825758 z"
     style="fill:none;stroke:#000000;stroke-width:2.64584;stroke-linecap:round;stroke-linejoin:round;stroke-dasharray:none;stroke-opacity:1"
     id="path2" />
  <path
     d="m 28.5791,23.873267 c 0.749373,0.506483 1.124059,0.759725 1.252157,1.084166 0.112085,0.282369 0.112085,0.602764 0,0.885942 -0.128098,0.323632 -0.502784,0.576874 -1.252157,1.083357 l -3.517085,2.377074 c -0.831836,0.562311 -1.247353,0.843061 -1.590014,0.813125 A 1.0255832,1.0364305 0 0 1 22.719426,29.666274 C 22.51447,29.366915 22.51447,28.837776 22.51447,27.777882 v -4.754957 c 0,-1.059894 0,-1.59065 0.204956,-1.889199 0.179337,-0.260524 0.453146,-0.424768 0.752575,-0.450658 0.342661,-0.02993 0.758178,0.250814 1.590014,0.813125 z"
     stroke="#000"
     stroke-width="38.815"
     stroke-linejoin="round"
     style="fill:none;stroke:#000000;stroke-width:2.64583;stroke-linecap:round;stroke-dasharray:none;stroke-opacity:1"
     id="path3" />
  <path
     d="m 24.844452,9.4918025 c -0.306822,0.313106 -0.306822,0.8207485 0,1.1338535 0.306818,0.313105 0.804272,0.313105 1.111095,0 0.306821,-0.313103 0.306821,-0.8207475 0,-1.1338535 -0.306823,-0.3131047 -0.804277,-0.3131017 -1.111095,0 z"
     stroke="#000000"
     stroke-width="1.5875"
     id="path1-8"
     style="fill:none" />
  <path
     d="m 36.255962,13.758375 c -0.438355,0.0044 -0.797312,0.3634 -0.801755,0.801755 -0.0044,0.438352 0.347307,0.790105 0.785663,0.785663 0.438352,-0.0044 0.797311,-0.363401 0.801755,-0.801756 0.0044,-0.438355 -0.347313,-0.790106 -0.785663,-0.785662 z"
     stroke="#000000"
     stroke-width="1.5875"
     id="path4"
     style="fill:none" />
  <path
     d="m 41.308196,24.844453 c -0.313075,-0.306852 -0.820747,-0.306822 -1.133853,0 -0.313073,0.30685 -0.313105,0.804272 0,1.111095 0.313073,0.306851 0.820748,0.306821 1.133854,0 0.313075,-0.306853 0.313102,-0.804277 -10e-7,-1.111095 z"
     stroke="#000000"
     stroke-width="1.5875"
     id="path5"
     style="fill:none" />
  <path
     d="m 37.041624,36.255963 c -0.0044,-0.438354 -0.3634,-0.797312 -0.801755,-0.801755 -0.438352,-0.0044 -0.790105,0.347308 -0.785663,0.785663 0.0044,0.438352 0.363401,0.797311 0.801756,0.801756 0.438355,0.0044 0.790106,-0.347314 0.785662,-0.785664 z"
     stroke="#000000"
     stroke-width="1.5875"
     id="path6"
     style="fill:none" />
  <path
     d="m 25.955546,41.308197 c 0.306852,-0.313074 0.306822,-0.820747 0,-1.133853 -0.30685,-0.313073 -0.804272,-0.313104 -1.111095,0 -0.30685,0.313073 -0.306821,0.820748 0,1.133855 0.306853,0.313075 0.804277,0.313101 1.111095,-2e-6 z"
     stroke="#000000"
     stroke-width="1.5875"
     id="path7"
     style="fill:none" />
  <path
     d="m 14.544036,37.041625 c 0.438354,-0.0044 0.797312,-0.3634 0.801755,-0.801755 0.0044,-0.438352 -0.347308,-0.790104 -0.785662,-0.785663 -0.438352,0.0044 -0.797312,0.363401 -0.801757,0.801757 -0.0044,0.438355 0.347314,0.790105 0.785664,0.785661 z"
     stroke="#000000"
     stroke-width="1.5875"
     id="path8"
     style="fill:none" />
  <path
     d="m 9.4918021,25.955547 c 0.3130744,0.306851 0.8207469,0.306822 1.1338529,0 0.313073,-0.306851 0.313104,-0.804272 10e-7,-1.111095 -0.313073,-0.30685 -0.8207484,-0.306821 -1.133856,0 -0.3130751,0.306853 -0.3131005,0.804277 2.1e-6,1.111095 z"
     stroke="#000000"
     stroke-width="1.5875"
     id="path9"
     style="fill:none" />
  <path
     d="m 13.758374,14.544036 c 0.0044,0.438354 0.3634,0.797312 0.801755,0.801756 0.438353,0.0044 0.790104,-0.347309 0.785664,-0.785663 -0.0044,-0.438351 -0.363402,-0.797312 -0.801757,-0.801757 -0.438356,-0.0044 -0.790106,0.347314 -0.785662,0.785664 z"
     stroke="#000000"
     stroke-width="1.5875"
     id="path10"
     style="fill:none" />
</svg>
