<svg xmlns="http://www.w3.org/2000/svg" width="192" height="192" fill="none"><path stroke="#000" stroke-linecap="round" stroke-linejoin="round" stroke-width="10" d="M96 122s-16-3-24-12c0 0-11-32-11-46m70 0c0 14-11 46-11 46-8 9-24 12-24 12m0 49v-13m0-116c-13.177 8.4-16 28-16 28s9.412-2.4 16-2.4 16 2.4 16 2.4-2.824-19.6-16-28"/><path stroke="#000" stroke-linecap="round" stroke-linejoin="round" stroke-width="12" d="m96 158-30-13-3-7-3-74 4-20 10-13 11-7 11-2M22 152l41-14m-17 32s-1-11-1-25m102 0c0 14-1 25-1 25m24-18-41-14m-33 20 30-13 3-7 3-74-4-20-10-13-11-7-11-2"/></svg>