<svg xmlns="http://www.w3.org/2000/svg" width="192" height="192" fill="none"><path stroke="#000" stroke-linecap="round" stroke-linejoin="round" stroke-width="12" d="m50 166 22-10h13l9-10 4-29"/><path stroke="#000" stroke-linecap="round" stroke-linejoin="round" stroke-width="12" d="m34.644 119.172-8.54-8.526a2.04 2.04 0 0 1-.549-1.884l1.537-6.906a2.04 2.04 0 0 0-.738-2.051l-3.563-2.767c-1.53-1.188-.691-3.643 1.246-3.643h3.445c.585 0 1.143-.253 1.529-.693l5.998-6.844c.386-.44.943-.694 1.528-.694h7.136a2.035 2.035 0 0 0 2.023-2.238l-.71-7.088a2.04 2.04 0 0 1 .588-1.644l7.229-7.217c.764-.763.8-1.99.082-2.796l-4.413-4.956c-1.085-1.22-.367-3.157 1.25-3.372l10.707-1.426c.6-.08 1.134-.423 1.456-.936l4.424-7.069c.145-.231.335-.431.56-.588l8.33-5.823a2.037 2.037 0 0 0 .527-2.8l-1.639-2.454a2.036 2.036 0 0 1 .91-3.01l9.274-3.858a2.03 2.03 0 0 1 1.604.018l7.49 3.324a2.03 2.03 0 0 0 1.9-.133l6.073-3.79a2.03 2.03 0 0 1 2.387.172l11.543 9.751c.458.387.722.956.722 1.555v3.558c0 .97.685 1.806 1.635 1.996l3.185.636q.332.067.625.237l10.961 6.384a2.03 2.03 0 0 1 1.004 1.929l-.777 9.306a2.035 2.035 0 0 0 1.571 2.153l10.927 2.517c.484.112.992.042 1.428-.195l9.38-5.108a2.03 2.03 0 0 1 2.349.29l11.066 10.199c.727.67.868 1.768.332 2.6l-7.525 11.686a2.04 2.04 0 0 0 .167 2.43l3.769 4.389a2.037 2.037 0 0 1-.332 2.962l-16.007 11.872a2 2 0 0 1-.588.302l-15.266 4.917a2 2 0 0 1-.791.091l-11.694-.973a2 2 0 0 0-.531.025l-21.664 3.933a2.03 2.03 0 0 1-1.392-.247l-15.842-9.304a2.03 2.03 0 0 0-2.052-.004l-22.934 13.357a2.03 2.03 0 0 1-1.62.186l-11.833-3.635a2.03 2.03 0 0 0-1.396.074l-5.266 2.254a2.03 2.03 0 0 1-2.235-.431M95 146l4 20m46 0-20-4-7-5-10-2-12-11"/></svg>