<svg xmlns="http://www.w3.org/2000/svg" width="192" height="192" fill="none" viewBox="0 0 192 192"><rect width="148" height="108" x="22" y="42" stroke="#000" stroke-linecap="round" stroke-linejoin="round" stroke-width="12" rx="6"/><path stroke="#000" stroke-linecap="round" stroke-linejoin="round" stroke-width="10" d="M170 62h-64.555a12 12 0 0 0-9.03 4.098l-20.83 23.804A12 12 0 0 1 66.556 94H22"/><path stroke="#000" stroke-linecap="round" stroke-linejoin="round" stroke-width="10" d="M170 80h-54.555c-3.46 0-6.752 1.494-9.031 4.098l-20.828 23.804A12 12 0 0 1 76.555 112H22"/><path stroke="#000" stroke-linecap="round" stroke-linejoin="round" stroke-width="10" d="M170 98h-44.555c-3.46 0-6.752 1.494-9.031 4.098l-20.828 23.804A12 12 0 0 1 86.555 130H22"/></svg>