<svg width="192" height="192" viewBox="0 0 192 192" fill="none" xmlns="http://www.w3.org/2000/svg"><path d="m137.626 93.14 23.179 11.959c4.184 2.158 4.279 8.121.166 10.412l-23.345 13.003m0-35.374 23.345-13.003c4.113-2.291 4.018-8.254-.166-10.412l-91.237-47.07a5.876 5.876 0 0 0-5.555.088L31.03 41.115c-4.113 2.291-4.018 8.254.166 10.412l23.18 11.959m83.251 29.654-9.639 5.369a5.877 5.877 0 0 1-5.555.089L54.374 63.486m0 0L31.03 76.489c-4.113 2.291-4.018 8.254.166 10.412l23.18 11.959m0 0L31.03 111.863c-4.113 2.291-4.018 8.254.166 10.412l91.237 47.071a5.877 5.877 0 0 0 5.555-.089l32.984-18.372c4.113-2.291 4.018-8.254-.166-10.412l-23.179-11.959M54.374 98.86l68.058 35.112a5.877 5.877 0 0 0 5.555-.089l9.639-5.369" stroke="#000" stroke-width="12" stroke-linecap="round" stroke-linejoin="round"/></svg>