<svg xmlns="http://www.w3.org/2000/svg" width="192" height="192" fill="none"><path stroke="#000" stroke-linecap="round" stroke-linejoin="round" stroke-width="10" d="m109 34-28-3 16 14m67 16.5 7 6.5-9 2"/><path stroke="#000" stroke-linecap="round" stroke-linejoin="round" stroke-width="12" d="m63 161-41-28m8 33-8-5m102-3-53-20-47-35m10-25 33 28m4-27L39 45h27m78 97-18-5"/><path stroke="#000" stroke-linecap="round" stroke-linejoin="round" stroke-width="10" d="m147 117 24-4-18-10m-65-4c0-20 40-52 64-76m-44 96c29 0 32-56 44-96"/><path stroke="#000" stroke-linecap="round" stroke-linejoin="round" stroke-width="10" d="M108 119a20 20 0 0 1-14.142-5.858 20 20 0 0 1 6.488-32.62 20.005 20.005 0 0 1 21.796 4.336A20.002 20.002 0 0 1 108 119"/></svg>