<?xml version="1.0" encoding="UTF-8" standalone="no"?>
<!-- Created with Inkscape (http://www.inkscape.org/) -->

<svg
   width="192"
   height="192"
   viewBox="0 0 50.799999 50.8"
   version="1.1"
   id="svg5"
   xml:space="preserve"
   xmlns="http://www.w3.org/2000/svg"
   xmlns:svg="http://www.w3.org/2000/svg"><defs
     id="defs2" /><g
     id="layer1"><path
       style="color:#000000;fill:#000000;stroke-width:0.923068;stroke-linecap:round;stroke-linejoin:round;-inkscape-stroke:none"
       d="m 10.747194,6.3499998 c -2.4100971,0 -4.3971942,1.9870971 -4.3971942,4.3971942 v 29.307415 c 0,2.410097 1.9870971,4.395391 4.3971942,4.395391 H 40.054609 C 42.464706,44.45 44.45,42.464706 44.45,40.054609 V 10.747194 c 0,-2.4100971 -1.985294,-4.3971942 -4.395391,-4.3971942 z m 0,2.9314627 h 29.307415 c 0.837161,0 1.465731,0.6285699 1.465731,1.4657315 v 29.307415 c 0,0.837161 -0.62857,1.465731 -1.465731,1.465731 H 10.747194 c -0.8371616,0 -1.4657315,-0.62857 -1.4657315,-1.465731 V 10.747194 c 0,-0.8371616 0.6285699,-1.4657315 1.4657315,-1.4657315 z"
       id="rect1838" /><path
       style="fill:none;fill-opacity:1;stroke:#000000;stroke-width:3.175;stroke-linecap:round;stroke-linejoin:round;stroke-dasharray:none;stroke-opacity:1"
       d="m 19.4,32.4 v -9 c 0,0 -0.234868,-5 6,-5 6.234868,0 6,5 6,5 v 9"
       id="path1943" /></g></svg>
