<?xml version="1.0" encoding="UTF-8" standalone="no"?>
<!-- Created with Inkscape (http://www.inkscape.org/) -->

<svg
   width="24"
   height="24"
   viewBox="0 0 6.3499999 6.3500002"
   version="1.1"
   id="svg5"
   sodipodi:docname="standard_chartered.svg"
   inkscape:version="1.1.1 (3bf5ae0d25, 2021-09-20)"
   xmlns:inkscape="http://www.inkscape.org/namespaces/inkscape"
   xmlns:sodipodi="http://sodipodi.sourceforge.net/DTD/sodipodi-0.dtd"
   xmlns="http://www.w3.org/2000/svg"
   xmlns:svg="http://www.w3.org/2000/svg">
  <sodipodi:namedview
     id="namedview6"
     pagecolor="#ffffff"
     bordercolor="#666666"
     borderopacity="1.0"
     inkscape:pageshadow="2"
     inkscape:pageopacity="0.0"
     inkscape:pagecheckerboard="0"
     showgrid="false"
     inkscape:zoom="2.7050211"
     inkscape:cx="104.43541"
     inkscape:cy="23.474863"
     inkscape:window-width="1920"
     inkscape:window-height="1009"
     inkscape:window-x="-8"
     inkscape:window-y="-8"
     inkscape:window-maximized="1"
     inkscape:current-layer="layer4"
     showguides="false" />
  <defs
     id="defs2" />
  <g
     inkscape:groupmode="layer"
     id="layer4"
     inkscape:label="Layer 1">
    <path
       d="M 4.0932141,5.7430655 1.8734357,4.2992601 c 0,0 -0.2784177,-0.1598622 -0.3421634,-0.4577756 -0.089499,-0.4182749 0.205636,-0.7768452 0.205636,-0.7768452 L 4.6178582,4.9390921 C 4.84008,5.0838328 4.9007669,5.3798504 4.7579006,5.6031546 4.6111625,5.8325162 4.3095895,5.8831344 4.0932141,5.7430655"
       id="Fill-1"
       fill="#38d200"
       mask="none"
       style="fill:#000000;fill-rule:evenodd;stroke:none;stroke-width:1.36702" />
    <path
       d="m 1.9906121,2.7552239 c 0,0 -0.3400353,-0.205127 -0.3400353,-0.6795495 0,-0.4728427 0.3398998,-0.6753605 0.3398998,-0.6753605 L 3.2040241,0.60675394 c 0.2224297,-0.1444428 0.5199273,-0.081393 0.6645013,0.1408092 0.1445831,0.2222027 0.081484,0.51942996 -0.140937,0.66387286 L 2.7047852,2.076848 4.447513,3.2107379 c 0,0 0.3136814,0.1796011 0.3754933,0.4826738 0.086259,0.42287 -0.2050757,0.771239 -0.2050757,0.771239 z"
       id="Fill-4"
       fill="#0473ea"
       mask="none"
       style="fill:#000000;fill-rule:evenodd;stroke:none;stroke-width:1.36702" />
    <path
       d="m 4.2748463,1.6039945 c -0.1139686,2.25e-5 -0.1950591,0.035907 -0.2741571,0.087356 l -0.592456,0.3854954 0.592456,0.3854773 c 0.079875,0.051385 0.16369,0.087361 0.2741571,0.087361 0.261389,0 0.4732871,-0.2116946 0.4732871,-0.4728428 0,-0.2611481 -0.2118981,-0.4729013 -0.4732871,-0.4728471"
       id="Fill-7"
       fill="#38d200"
       style="fill:#000000;fill-rule:evenodd;stroke:none;stroke-width:1.36701"
       mask="none" />
    <path
       d="m 1.984327,5.8195805 c 0.113964,-2.26e-5 0.1950501,-0.035908 0.2741482,-0.087356 L 2.8509311,5.3467242 2.2584752,4.9612514 C 2.1786091,4.9098749 2.094794,4.8738905 1.984327,4.8738905 c -0.2613936,0 -0.4732916,0.2117036 -0.4732916,0.4728473 0,0.261148 0.211898,0.4729013 0.4732916,0.4728427"
       id="Fill-9"
       fill="#0473ea"
       style="fill:#000000;fill-rule:evenodd;stroke:none;stroke-width:1.36701"
       mask="none" />
  </g>
</svg>
