<?xml version="1.0" encoding="UTF-8" standalone="no"?>
<!-- Created with Inkscape (http://www.inkscape.org/) -->

<svg
   xmlns:dc="http://purl.org/dc/elements/1.1/"
   xmlns:cc="http://creativecommons.org/ns#"
   xmlns:rdf="http://www.w3.org/1999/02/22-rdf-syntax-ns#"
   xmlns:svg="http://www.w3.org/2000/svg"
   xmlns="http://www.w3.org/2000/svg"
   xmlns:sodipodi="http://sodipodi.sourceforge.net/DTD/sodipodi-0.dtd"
   xmlns:inkscape="http://www.inkscape.org/namespaces/inkscape"
   width="160px"
   height="160px"
   viewBox="0 0 160 160"
   version="1.1"
   id="SVGRoot"
   inkscape:version="0.92.4 (5da689c313, 2019-01-14)"
   sodipodi:docname="star walk 2.svg">
  <defs
     id="defs6385" />
  <sodipodi:namedview
     id="base"
     pagecolor="#ffffff"
     bordercolor="#666666"
     borderopacity="1.0"
     inkscape:pageopacity="0.0"
     inkscape:pageshadow="2"
     inkscape:zoom="15.78"
     inkscape:cx="22.851711"
     inkscape:cy="46.638074"
     inkscape:document-units="px"
     inkscape:current-layer="layer1"
     showgrid="false"
     inkscape:window-width="1920"
     inkscape:window-height="1057"
     inkscape:window-x="-8"
     inkscape:window-y="-8"
     inkscape:window-maximized="1" />
  <metadata
     id="metadata6388">
    <rdf:RDF>
      <cc:Work
         rdf:about="">
        <dc:format>image/svg+xml</dc:format>
        <dc:type
           rdf:resource="http://purl.org/dc/dcmitype/StillImage" />
        <dc:title></dc:title>
      </cc:Work>
    </rdf:RDF>
  </metadata>
  <g
     inkscape:label="Layer 1"
     inkscape:groupmode="layer"
     id="layer1">
    <path
       id="path7004"
       style="color:#000000;font-style:normal;font-variant:normal;font-weight:normal;font-stretch:normal;font-size:medium;line-height:normal;font-family:sans-serif;font-variant-ligatures:normal;font-variant-position:normal;font-variant-caps:normal;font-variant-numeric:normal;font-variant-alternates:normal;font-feature-settings:normal;text-indent:0;text-align:start;text-decoration:none;text-decoration-line:none;text-decoration-style:solid;text-decoration-color:#000000;letter-spacing:normal;word-spacing:normal;text-transform:none;writing-mode:lr-tb;direction:ltr;text-orientation:mixed;dominant-baseline:auto;baseline-shift:baseline;text-anchor:start;white-space:normal;shape-padding:0;clip-rule:nonzero;display:inline;overflow:visible;visibility:visible;opacity:1;isolation:auto;mix-blend-mode:normal;color-interpolation:sRGB;color-interpolation-filters:linearRGB;solid-color:#000000;solid-opacity:1;vector-effect:none;fill:#000000;fill-opacity:1;fill-rule:nonzero;stroke:none;stroke-width:8.39999962;stroke-linecap:butt;stroke-linejoin:miter;stroke-miterlimit:4;stroke-dasharray:none;stroke-dashoffset:0;stroke-opacity:1;color-rendering:auto;image-rendering:auto;shape-rendering:auto;text-rendering:auto;enable-background:accumulate"
       d="M 105.9043,32.279297 65.650391,54.103516 4.2011719,105.11523 41.390625,137.83984 87.238281,103.57617 73.080078,59.630859 107.4082,41.019531 l 41.2461,6.484375 1.30468,-8.298828 z m -39.982425,32.517578 11.482422,35.642575 -35.582031,26.5918 -24.69336,-21.73047 z m 2.115234,-19.396484 c -6.417131,0 -11.683594,5.266462 -11.683593,11.683593 0,6.417131 5.266463,11.683594 11.683593,11.683594 6.417131,0 11.683594,-5.266463 11.683594,-11.683594 10e-7,-6.417131 -5.266462,-11.683593 -11.683594,-11.683593 z m 38.488281,-17.78125 c -4.94811,-2e-6 -9,4.051884 -8.999999,9 -10e-7,4.948115 4.051889,9.000001 8.999999,9 4.94812,0 9,-4.051886 9,-9 0,-4.948115 -4.05188,-9.000001 -9,-9 z m 42.38086,6.93164 c -4.94811,0 -9,4.051886 -9,9 0,4.948115 4.05189,9 9,9 4.94811,0 9,-4.051885 9,-9 0,-4.948114 -4.05189,-9 -9,-9 z M 82.289062,92.6875 c -4.948115,0 -9.000001,4.051885 -9,9 0,4.94811 4.051886,9 9,9 4.948115,0 9.000001,-4.05189 9,-9 2e-6,-4.948115 -4.051885,-9 -9,-9 z m -40.761718,30.41992 c -4.948114,0 -9,4.05189 -9,9 0,4.94812 4.051886,9 9,9 4.948114,0 9,-4.05188 9,-9 0,-4.94811 -4.051886,-9 -9,-9 z M 10.925781,95.916016 c -4.9481136,0 -8.9999993,4.051886 -8.9999998,9.000004 -2e-7,4.94811 4.0518857,9 8.9999998,9 4.948115,0 9,-4.05189 9,-9 0,-4.948118 -4.051886,-9.000005 -9,-9.000004 z"
       inkscape:connector-curvature="0"
       sodipodi:nodetypes="cccccccccccccccssssssssssssssssssssssssssssss" />
  </g>
</svg>
