<svg width="192" height="192" fill="none" xmlns="http://www.w3.org/2000/svg"><circle cx="96" cy="96" r="74" stroke="#000" stroke-width="12" stroke-linecap="round" stroke-linejoin="round"/><path d="M148.326 145.674A74.015 74.015 0 0 0 96 124a73.997 73.997 0 0 0-53.619 23" stroke="#000" stroke-width="10" stroke-linecap="round" stroke-linejoin="round"/><path d="M129 162a62.681 62.681 0 0 0-7.24-8.653 62.826 62.826 0 0 0-20.379-13.579A62.968 62.968 0 0 0 43.294 145m74.935-119c-9.111 53.406 35.855 61.512 48.521 91.5M74.767 26c9.11 53.406-35.855 61.512-48.521 91.5M96 69l2.99 5.469a23.998 23.998 0 0 0 9.541 9.54L114 87l-5.469 2.99a23.998 23.998 0 0 0-9.54 9.541L96 105l-2.99-5.469a24 24 0 0 0-9.541-9.54L78 87l5.469-2.99a24 24 0 0 0 9.54-9.541L96 69Z" stroke="#000" stroke-width="10" stroke-linecap="round" stroke-linejoin="round"/></svg>