<svg xmlns="http://www.w3.org/2000/svg" width="192" height="192" fill="none"><circle cx="96" cy="96" r="74" stroke="#000" stroke-linecap="round" stroke-linejoin="round" stroke-width="12"/><path stroke="#000" stroke-linecap="round" stroke-linejoin="round" stroke-width="10" d="M148.326 145.674A74.02 74.02 0 0 0 96 124a74 74 0 0 0-53.619 23"/><path stroke="#000" stroke-linecap="round" stroke-linejoin="round" stroke-width="10" d="M129 162a62.7 62.7 0 0 0-7.24-8.653 62.8 62.8 0 0 0-20.379-13.579A62.97 62.97 0 0 0 43.294 145m74.935-119c-9.111 53.406 35.855 61.512 48.521 91.5M74.767 26c9.11 53.406-35.855 61.512-48.521 91.5M96 69l2.99 5.469a24 24 0 0 0 9.541 9.54L114 87l-5.469 2.99a24 24 0 0 0-9.54 9.541L96 105l-2.99-5.469a24 24 0 0 0-9.541-9.54L78 87l5.469-2.99a24 24 0 0 0 9.54-9.541z"/></svg>