<svg width="192" height="192" viewBox="0 0 192 192" fill="none" xmlns="http://www.w3.org/2000/svg"><path d="M45.532 85.573a5.974 5.974 0 0 0 1.143-3.513V54.485c0-1.591.636-3.117 1.769-4.242l6.527-6.486A6.058 6.058 0 0 1 59.24 42H93.3c1.712 0 3.344.722 4.489 1.986l14.767 16.303a5.978 5.978 0 0 1 1.55 4.013V84l20.373-20.243A6.058 6.058 0 0 1 138.75 62h17.765a6.04 6.04 0 0 1 5.497 3.517l7.447 16.277a5.967 5.967 0 0 1 .193 4.49l-19.9 55.722a6.036 6.036 0 0 1-5.691 3.994H43.61a6.051 6.051 0 0 1-4.786-2.342l-15.572-20.113a5.969 5.969 0 0 1-.109-7.171l22.389-30.801ZM122 170H94m-26 0H40m6-88H22" stroke="#000" stroke-width="12" stroke-linecap="round" stroke-linejoin="round"/><path d="M93 22H75a6 6 0 0 0-6 6v14" stroke="#000" stroke-width="12" stroke-linecap="round" stroke-linejoin="round"/><path d="M70 69v16m20-16v16" stroke="#000" stroke-width="10" stroke-linecap="round" stroke-linejoin="round"/></svg>