<svg xmlns="http://www.w3.org/2000/svg" width="192" height="192" fill="none" viewBox="0 0 192 192"><path stroke="#000" stroke-linejoin="round" stroke-width="12" d="M48.57 52H29.43c-3.083 0-5.656 2.335-5.897 5.408C22.943 64.938 22 79.528 22 96c0 16.473.942 31.061 1.533 38.592.241 3.073 2.814 5.408 5.897 5.408h19.14c3.083 0 5.656-2.335 5.897-5.408A518 518 0 0 0 55.842 108h80.317a518 518 0 0 0 1.374 26.592c.241 3.073 2.814 5.408 5.897 5.408h19.14c3.083 0 5.656-2.335 5.897-5.408C169.058 127.061 170 112.473 170 96s-.942-31.061-1.533-38.592c-.241-3.073-2.814-5.408-5.897-5.408h-19.14c-3.083 0-5.656 2.335-5.897 5.408A518 518 0 0 0 136.159 84H55.842a518 518 0 0 0-1.375-26.592C54.226 54.335 51.653 52 48.57 52Z"/></svg>