<svg xmlns="http://www.w3.org/2000/svg" width="192" height="192" fill="none" viewBox="0 0 192 192"><path stroke="#000" stroke-linecap="round" stroke-linejoin="round" stroke-width="12" d="M45.532 85.573a5.97 5.97 0 0 0 1.143-3.513V54.485c0-1.591.636-3.117 1.769-4.242l6.527-6.486A6.06 6.06 0 0 1 59.24 42H93.3c1.712 0 3.344.722 4.489 1.986l14.767 16.303a5.98 5.98 0 0 1 1.55 4.013V84l20.373-20.243A6.06 6.06 0 0 1 138.75 62h17.765a6.04 6.04 0 0 1 5.497 3.517l7.447 16.277a5.97 5.97 0 0 1 .193 4.49l-19.9 55.722a6.04 6.04 0 0 1-5.691 3.994H43.61a6.05 6.05 0 0 1-4.786-2.342l-15.572-20.113a5.97 5.97 0 0 1-.109-7.171zM122 170H94m-26 0H40m6-88H22"/><path stroke="#000" stroke-linecap="round" stroke-linejoin="round" stroke-width="12" d="M93 22H75a6 6 0 0 0-6 6v14"/><path stroke="#000" stroke-linecap="round" stroke-linejoin="round" stroke-width="10" d="M70 69v16m20-16v16"/></svg>