<svg xmlns="http://www.w3.org/2000/svg" width="192" height="192" fill="none"><path stroke="#000" stroke-linecap="round" stroke-linejoin="round" stroke-width="12" d="M147.326 148.326a74 74 0 0 1-61.985 21.041A74 74 0 0 1 30.914 133"/><path stroke="#000" stroke-linecap="round" stroke-linejoin="round" stroke-width="12" d="M81.541 146.228a52 52 0 0 1-38.096-43.441A52 52 0 0 1 69 50.967m-26.326-7.293A74 74 0 0 1 159.086 59"/><path stroke="#000" stroke-linecap="round" stroke-linejoin="round" stroke-width="10" d="M128 56v68"/><circle cx="149" cy="103" r="21" stroke="#000" stroke-linecap="round" stroke-linejoin="round" stroke-width="10"/><path stroke="#000" stroke-linecap="round" stroke-linejoin="round" stroke-width="10" d="M110 85.861S103.731 79.997 95.007 80c-8.18.003-13.634 4.771-13.636 11.738C81.368 102.37 95 101.999 95 101.999m-15 16.14s6.269 5.864 14.993 5.861c8.18-.003 13.634-4.771 13.636-11.738C108.632 101.629 95 102.001 95 102.001"/></svg>