<svg width="192" height="192" viewBox="0 0 192 192" fill="none" xmlns="http://www.w3.org/2000/svg">
<path d="M148.225 103.145C148.225 103.145 162.214 123.248 158.039 138.538C153.092 156.651 147.745 170 118.488 170C101.998 170 90.2134 169.218 76.96 146.524C63.8731 124.115 28 118.455 28 104.165C28 99.599 32.4136 96.4289 37.2106 96.4289C60.64 96.4289 74.784 116.414 80.224 116.414C80.224 116.414 88.1469 110.171 65.3914 64.267C60.1541 53.702 57.9208 33.7379 67.1688 33.7379C85.6648 33.7379 101.984 93.9586 101.984 93.9586C101.984 93.9586 91.104 22 107.968 22C124.832 22 122.656 72.0138 129.056 93.9586C129.056 93.9586 139.52 76.6069 143.328 56.1931C145.204 46.139 145.589 37.8207 153.163 37.8207C160.737 37.8207 164 53.2153 164 62.3172C164 83.8921 153.163 104.165 153.163 104.165" stroke="black" stroke-width="12" stroke-linecap="round" stroke-linejoin="round"/>
<path d="M105.599 117C105.599 117 110.86 124.313 110.997 129.5C111.184 136.576 102 146 102 146" stroke="black" stroke-width="10" stroke-linecap="round" stroke-linejoin="round"/>
</svg>
