<svg xmlns="http://www.w3.org/2000/svg" width="192" height="192"><path d="M59.488 50.32c-19.863-23.518-50.834 11.154-16.163 14 34.67 2.848 8.14 39.52-16.163 14.079M81.087 22v52.05c-.338 14.686 8.892 15.603 22.646 10.008M81.087 42.3h22.646m61.175 4.65c-40.96-26.86-51.742 61.993 0 39.32M27.8 122.708c37.533-42.395 47.704 56.35 0 22.188m-.633-31.617-.08 54.892m83.633-39.603c-49.114-8.613-29.643 40.026.42 9.785m-30.063-25.514s27.184-7.965 29.643 7.116l.42 28.64m18.879-36.607 17.971 44.014m16.923-44.014-18.067 46.992c-2.863 9.274-8.326 11.036-20.569 11.02" style="fill:none;fill-rule:nonzero;stroke:#000;stroke-width:12;stroke-linecap:round;stroke-linejoin:round;stroke-dasharray:none;stroke-opacity:1"/></svg>