<?xml version="1.0" encoding="UTF-8" standalone="no"?>
<!-- Created with Inkscape (http://www.inkscape.org/) -->

<svg
   width="192"
   height="192"
   viewBox="0 0 192 192"
   version="1.1"
   id="svg1"
   xmlns="http://www.w3.org/2000/svg"
   xmlns:svg="http://www.w3.org/2000/svg">
  <defs
     id="defs1" />
  <g
     id="layer1">
    <path
       id="path1-7"
       style="fill:none;fill-rule:nonzero;stroke:#000000;stroke-width:12;stroke-linecap:round;stroke-linejoin:round;stroke-dasharray:none;stroke-opacity:1"
       d="M 59.487614,50.319576 C 39.625148,26.802044 8.6540358,61.474182 43.324672,64.320908 77.995107,67.167647 51.465498,103.83937 27.161527,78.398846 M 81.086834,22 V 74.050166 C 80.749349,88.735805 89.978711,89.652609 103.7326,84.057809 M 81.086834,42.301396 H 103.7326 m 61.1755,4.649095 c -40.95977,-26.860358 -51.74203,61.993039 0,39.320303 M 27.799605,122.70776 c 37.533888,-42.394495 47.704849,56.35095 0,22.18855 m -0.632548,-31.61733 -0.0796,54.89173 M 110.7197,128.56766 c -49.113597,-8.61301 -29.642527,40.02624 0.41951,9.78489 M 81.077179,112.83882 c 0,0 27.183411,-7.9649 29.642531,7.11583 l 0.41951,28.63996 m 18.87966,-36.60643 17.97156,44.01426 m 16.9221,-44.01426 -18.06696,46.99133 c -2.86222,9.2746 -8.32553,11.03609 -20.56828,11.02033" />
  </g>
</svg>
