<svg xmlns="http://www.w3.org/2000/svg" width="192" height="192" fill="none" stroke="#000" stroke-linecap="round" stroke-width="12" viewBox="0 0 192 192"><path d="M32.77 134.444a74 74 0 0 1 18.259-97.211 74 74 0 0 1 98.604 7.782 74 74 0 0 1 2.784 98.872 74 74 0 0 1-98.011 13.317"/><path d="M117.256 97.937a24 24 0 1 0-22.253-24.304"/><path fill="#000" stroke="none" d="M119 86c6.627 0 12-5.373 12-12s-5.373-12-12-12-12 5.373-12 12 5.373 12 12 12z"/><path d="M85.952 122.724a17 17 0 1 1-16.068-15.701M68 123 24 96m46 11 25-33m-9 48 31-24"/><path stroke-linejoin="round" d="m32.855 134.617-7.363 30.31 28.18-7.526"/></svg>