<svg xmlns="http://www.w3.org/2000/svg" width="192" height="192" fill="none" viewBox="0 0 192 192"><path stroke="#000" stroke-linecap="round" stroke-linejoin="round" stroke-width="8" d="M122.309 92.545A21.7 21.7 0 0 1 114 92s15.49.218 20.136-17.124C138.783 57.535 125 51.5 125 51.5c2.657.712 5.144 1.987 7.326 3.661a20.95 20.95 0 0 1 3.867 29.368 20.96 20.96 0 0 1-13.884 8.016"/><path stroke="#000" stroke-linecap="round" stroke-linejoin="round" stroke-width="6" d="M76 47a3 3 0 0 0-3 3 3 3 0 0 0-3-3 3 3 0 0 0 3-3 3 3 0 0 0 3 3"/><path stroke="#000" stroke-linecap="round" stroke-linejoin="round" stroke-width="8" d="M90 65a4 4 0 0 0-4 4 4 4 0 0 0-4-4 4 4 0 0 0 4-4 4 4 0 0 0 4 4M79 85a9 9 0 0 0-9 9 9 9 0 0 0-9-9 9 9 0 0 0 9-9 9 9 0 0 0 9 9"/><path stroke="#000" stroke-linecap="round" stroke-linejoin="round" stroke-width="6" d="M62 62a7 7 0 0 0-7 7 7 7 0 0 0-7-7 7 7 0 0 0 7-7 7 7 0 0 0 7 7"/><path stroke="#000" stroke-linecap="round" stroke-linejoin="round" stroke-width="10" d="M166 133c-12 2-33 6-57 14l3-10.5h-6l-2.5-4-3 3.5-4.5-.5-.5-4.5h-3v-3.5l-3 1-2-1.5-3.5 6.5-2.5-5.5-3.5 3-5-16-6 13.5-3.5-1.5-6 4-8.5-26-8.5 18L25 97"/><rect width="142" height="142" x="25" y="25" stroke="#000" stroke-linecap="round" stroke-linejoin="round" stroke-width="12" rx="6"/></svg>