<svg id="Layer_1" data-name="Layer 1" xmlns="http://www.w3.org/2000/svg" viewBox="0 0 24 24">
  <g>
    <path d="M6.81787,15.20331A1.462,1.462,0,0,0,5.3385,16.71387a1.11,1.11,0,0,0,.77509,1.07452,1.11891,1.11891,0,0,0,1.17956-.43933c.08582-.10852.10553-.358.26642-.30835.18652.05756.179.29913.19952.47943a.95062.95062,0,0,1-.01648.27539c-.1455.7898-.45465,1.07288-1.35321,1.2461A2.22137,2.22137,0,0,1,3.86005,17.6413a4.208,4.208,0,0,1-.00141-2.63324,4.79333,4.79333,0,0,1,1.6175-2.44446.82873.82873,0,1,0-1.01166-1.31134,6.2745,6.2745,0,0,0-2.46277,5.007,4.78711,4.78711,0,0,0,.07379.96734,3.76367,3.76367,0,0,0,2.17828,3.0437,4.38134,4.38134,0,0,0,3.10877.12165A2.50832,2.50832,0,0,0,9.181,18.45233,2.9752,2.9752,0,0,0,9.0658,16.443,2.44575,2.44575,0,0,0,6.81787,15.20331Z"/>
    <path d="M17.43335,16.50739q-1.88772-1.07118-3.75879-2.17157a.98747.98747,0,0,0-1.54852.83606c.01184.73992-.00379,4.12872.00366,4.51019a.96388.96388,0,0,0,1.44141.86236c.35583-.18542,2.93457-1.69329,3.8844-2.23028a.99218.99218,0,0,0,.56127-.92914A1.01841,1.01841,0,0,0,17.43335,16.50739Z"/>
    <path d="M6.947,10.8739a1.6818,1.6818,0,0,0,1.7168-.72632c.16-.25226.27679-.5318.41473-.79821a1.276,1.276,0,0,1,.861-.692,2.79663,2.79663,0,0,1,1.13269-.022,17.56031,17.56031,0,0,0,1.79517.34687c.748.04352,1.16211-.23645,1.074-.92566a1.08517,1.08517,0,0,0-.3194-.60278,4.10644,4.10644,0,0,0-1.92816-1.10169,3.43633,3.43633,0,0,0-1.64472-.05847c-.19763.04108-.4591.08832-.45129.3479.00824.27325.26874.34674.49341.414.0542.01624.11572.00665.17187.01843a5.61932,5.61932,0,0,1,.91132.1955c.07641.02972.174.05359.16272.14862-.01306.10986-.121.08148-.19733.08215-.24261.00214-.48529.0008-.7279.0008a6.452,6.452,0,0,0-3.11493.64947,1.96838,1.96838,0,0,0-1.09864,1.309A1.0766,1.0766,0,0,0,6.947,10.8739Z"/>
    <path d="M14.70026,6.8717a.90756.90756,0,0,0,.73785-.39325c.55792-.65643,1.136-.60485,1.881-.16473a1.514,1.514,0,0,1,.72779,1.08185c.15631.80469.53729,1.18219,1.174,1.18542a1.87083,1.87083,0,0,0,1.14386-.43682c.50531-.38337.50091-.8227.00158-1.22419A6.73437,6.73437,0,0,0,18.958,6.12671a5.61635,5.61635,0,0,1-1.40857-.98755,19.62138,19.62138,0,0,1-1.38379-1.54138c-.32678-.37262-.6214-.35645-.88525.06274a2.2166,2.2166,0,0,0-.21741.43238,15.88678,15.88678,0,0,1-.74524,1.8601.96516.96516,0,0,0-.09924.43537C14.21857,6.7298,14.35382,6.86957,14.70026,6.8717Z"/>
    <path d="M21.73224,8.94293c-.1189-.11169-.25318-.22986-.42633-.179-.19049.056-.19373.24127-.19861.40265a1.23462,1.23462,0,0,1-.54761.99353,3.65414,3.65414,0,0,1-2.69317.62976,2.77394,2.77394,0,0,1-1.15332-.44251.34877.34877,0,0,0-.47345.04688c-.13337.13916-.03663.28143.02838.41449a1.34993,1.34993,0,0,0,.12964.20392,2.46484,2.46484,0,0,0,2.13855.92285,4.92664,4.92664,0,0,0,2.708-.92688,1.70433,1.70433,0,0,0,.70722-1.03553A1.00087,1.00087,0,0,0,21.73224,8.94293Z"/>
    <path d="M11.1145,12.86835a2.00274,2.00274,0,0,0-.3706.07989A2.17764,2.17764,0,0,1,8.54236,12.821a.17373.17373,0,0,0-.06445-.02453.80435.80435,0,0,0-.83741.28509.65522.65522,0,0,0-.136.76477c.15637.33393.44055.21906.66168.23035.80462-.03827,1.04907.12787,1.27844.846.1225.38354.36829.57965.66022.52679.32928-.05957.51019-.33789.49359-.7594-.01959-.49774.0708-.608.55817-.683a1.47051,1.47051,0,0,0,.20288-.03919.52.52,0,0,0,.41339-.62A.5971.5971,0,0,0,11.1145,12.86835Z"/>
    <path d="M12.8717,10.23529c-.08429.21948.06775.36652.19635.5163a1.03217,1.03217,0,0,1-.00518,1.56451c-.28.32886-.298.60809-.05512.85944.24219.25079.52252.2431.85755-.02973a.60065.60065,0,0,1,.39831-.1828c.26166.00678.40118.20307.56244.3645.30737.30787.57178.32972.83881.06739a.60368.60368,0,0,0-.05011-.86237,3.60651,3.60651,0,0,0-.50275-.474,1.71147,1.71147,0,0,1-.759-1.50268.818.818,0,0,0-.93647-.751A.67136.67136,0,0,0,12.8717,10.23529Z"/>
  </g>
</svg>
