<svg xmlns="http://www.w3.org/2000/svg" width="192" height="192" fill="none"><path stroke="#000" stroke-linecap="round" stroke-linejoin="round" stroke-width="12" d="M115.327 88.146c-2 7.015-10.14 12.026-11.156 21.046s2.539 16.035 9.395 17.539c6.855 1.503 12.949-3.508 15.996-9.521s5.078-14.031 8.125-20.044m-22.36-9.02c2-7.016 1.032-28.062 2.047-39.086C118.39 40.04 123.468 22 137.687 22S158 33.024 158 47.055s-17.266 44.097-20.313 50.11m-22.36-9.02 22.36 9.02m-60.015 33.981c2 10.015 9.141 14.026 10.157 21.046 1.016 9.02-2.54 16.035-9.395 17.539-6.855 1.503-12.949-3.508-15.996-9.521s-5.078-14.031-8.125-20.044m23.36-9.02c-2-10.016-.032-28.062-1.047-39.086C75.61 83.04 68.532 65 54.313 65 40.093 65 34 76.024 34 90.055s17.266 44.097 20.313 50.111m23.36-9.02-23.36 9.02"/></svg>