<svg xmlns="http://www.w3.org/2000/svg" width="192" height="192" fill="none" viewBox="0 0 192 192"><path stroke="#000" stroke-linejoin="round" stroke-width="12" d="M122.343 159.179c-6.777 6.558-16.178 10.712-26.234 10.712-10.493 0-19.893-4.154-26.889-11.15l17.708-17.707c2.404 2.405 5.465 3.716 9.181 3.716 3.498 0 6.777-1.53 9.182-3.716l35.852-35.852c2.405-2.405 3.717-5.466 3.717-9.182 0-3.498-1.53-6.777-3.717-9.182-2.404-2.404-5.465-3.716-9.181-3.716-3.717 0-6.777 1.53-9.182 3.716L86.928 122.89c-6.777 6.777-16.396 11.15-26.89 11.15s-19.893-4.373-26.889-11.15C26.372 116.112 22 106.493 22 96s4.155-19.894 11.15-26.89l35.852-35.852c6.777-6.777 16.396-11.149 26.89-11.149s19.893 4.154 26.889 11.15l-17.708 17.707c-2.404-2.405-5.465-3.716-9.181-3.716-3.717 0-6.777 1.53-9.182 3.716L50.857 86.818C48.452 89.223 47.14 92.284 47.14 96c0 3.498 1.53 6.777 3.717 9.182 2.404 2.404 5.465 3.716 9.181 3.716 3.498 0 6.777-1.53 9.182-3.716l35.852-35.853c6.777-6.777 16.396-11.149 26.89-11.149s19.893 4.154 26.889 11.15C165.628 76.105 170 85.724 170 96.218c0 10.493-4.155 19.893-11.15 26.889z"/></svg>