<?xml version="1.0" encoding="UTF-8" standalone="no"?>
<svg
   width="192"
   height="192"
   viewBox="0 0 192 192"
   fill="none"
   version="1.1"
   id="svg1011"
   xml:space="preserve"
   sodipodi:docname="stepik.svg"
   inkscape:version="1.2.2 (732a01da63, 2022-12-09)"
   xmlns:inkscape="http://www.inkscape.org/namespaces/inkscape"
   xmlns:sodipodi="http://sodipodi.sourceforge.net/DTD/sodipodi-0.dtd"
   xmlns="http://www.w3.org/2000/svg"
   xmlns:svg="http://www.w3.org/2000/svg"><sodipodi:namedview
     id="namedview58"
     pagecolor="#ffffff"
     bordercolor="#000000"
     borderopacity="0.25"
     inkscape:showpageshadow="2"
     inkscape:pageopacity="0.0"
     inkscape:pagecheckerboard="0"
     inkscape:deskcolor="#d1d1d1"
     showgrid="false"
     inkscape:zoom="4.3177083"
     inkscape:cx="92.062726"
     inkscape:cy="96.115802"
     inkscape:window-width="1920"
     inkscape:window-height="1009"
     inkscape:window-x="-8"
     inkscape:window-y="-8"
     inkscape:window-maximized="1"
     inkscape:current-layer="svg1011" /><defs
     id="defs1009"><clipPath
       id="a"><path
         fill="#fff"
         d="M0 0h192v192H0z"
         id="path1006" /></clipPath><filter
       id="mask-powermask-path-effect5363_inverse"
       style="color-interpolation-filters:sRGB"
       height="100"
       width="100"
       x="-50"
       y="-50"><feColorMatrix
         id="mask-powermask-path-effect5363_primitive1"
         values="1"
         type="saturate"
         result="fbSourceGraphic" /><feColorMatrix
         id="mask-powermask-path-effect5363_primitive2"
         values="-1 0 0 0 1 0 -1 0 0 1 0 0 -1 0 1 0 0 0 1 0 "
         in="fbSourceGraphic" /></filter><filter
       id="mask-powermask-path-effect5414_inverse"
       style="color-interpolation-filters:sRGB"
       height="100"
       width="100"
       x="-50"
       y="-50"><feColorMatrix
         id="mask-powermask-path-effect5414_primitive1"
         values="1"
         type="saturate"
         result="fbSourceGraphic" /><feColorMatrix
         id="mask-powermask-path-effect5414_primitive2"
         values="-1 0 0 0 1 0 -1 0 0 1 0 0 -1 0 1 0 0 0 1 0 "
         in="fbSourceGraphic" /></filter><filter
       id="mask-powermask-path-effect5444_inverse"
       style="color-interpolation-filters:sRGB"
       height="100"
       width="100"
       x="-50"
       y="-50"><feColorMatrix
         id="mask-powermask-path-effect5444_primitive1"
         values="1"
         type="saturate"
         result="fbSourceGraphic" /><feColorMatrix
         id="mask-powermask-path-effect5444_primitive2"
         values="-1 0 0 0 1 0 -1 0 0 1 0 0 -1 0 1 0 0 0 1 0 "
         in="fbSourceGraphic" /></filter><filter
       id="mask-powermask-path-effect5462_inverse"
       style="color-interpolation-filters:sRGB"
       height="100"
       width="100"
       x="-50"
       y="-50"><feColorMatrix
         id="mask-powermask-path-effect5462_primitive1"
         values="1"
         type="saturate"
         result="fbSourceGraphic" /><feColorMatrix
         id="mask-powermask-path-effect5462_primitive2"
         values="-1 0 0 0 1 0 -1 0 0 1 0 0 -1 0 1 0 0 0 1 0 "
         in="fbSourceGraphic" /></filter><filter
       id="mask-powermask-path-effect5473_inverse"
       style="color-interpolation-filters:sRGB"
       height="100"
       width="100"
       x="-50"
       y="-50"><feColorMatrix
         id="mask-powermask-path-effect5473_primitive1"
         values="1"
         type="saturate"
         result="fbSourceGraphic" /><feColorMatrix
         id="mask-powermask-path-effect5473_primitive2"
         values="-1 0 0 0 1 0 -1 0 0 1 0 0 -1 0 1 0 0 0 1 0 "
         in="fbSourceGraphic" /></filter><filter
       id="mask-powermask-path-effect7499_inverse"
       style="color-interpolation-filters:sRGB"
       height="100"
       width="100"
       x="-50"
       y="-50"><feColorMatrix
         id="mask-powermask-path-effect7499_primitive1"
         values="1"
         type="saturate"
         result="fbSourceGraphic" /><feColorMatrix
         id="mask-powermask-path-effect7499_primitive2"
         values="-1 0 0 0 1 0 -1 0 0 1 0 0 -1 0 1 0 0 0 1 0 "
         in="fbSourceGraphic" /></filter><filter
       id="mask-powermask-path-effect7510_inverse"
       style="color-interpolation-filters:sRGB"
       height="100"
       width="100"
       x="-50"
       y="-50"><feColorMatrix
         id="mask-powermask-path-effect7510_primitive1"
         values="1"
         type="saturate"
         result="fbSourceGraphic" /><feColorMatrix
         id="mask-powermask-path-effect7510_primitive2"
         values="-1 0 0 0 1 0 -1 0 0 1 0 0 -1 0 1 0 0 0 1 0 "
         in="fbSourceGraphic" /></filter><clipPath
       clipPathUnits="userSpaceOnUse"
       id="clipPath7516"><path
         d="m 18.7893,67.426901 c -2.371,-0.5923 -4.0334,-2.713199 -4.0334,-5.145701 V 33.6233 c 0,-2.7629 2.6107,-4.7892 5.3037,-4.1165 l 17.0541,4.2602 c 2.3709,0.5922 4.0334,2.7131 4.0334,5.1456 v 28.657901 c 0,2.762897 -2.6108,4.789301 -5.3038,4.116497 z"
         fill="#ffffff"
         id="path7518"
         style="display:block;fill:#ffffff;fill-opacity:1;stroke:none;stroke-width:4.4;stroke-dasharray:none;stroke-opacity:1" /></clipPath><clipPath
       clipPathUnits="userSpaceOnUse"
       id="clipPath7528"><path
         d="m 34.8381,60.8292 c -2.371,-0.5923 -4.0334,-2.713199 -4.0334,-5.145701 V 27.0257 c 0,-2.7629 2.6108,-4.7893 5.3038,-4.1166 l 17.053998,4.2602 c 2.371001,0.5923 4.033403,2.7132 4.033403,5.1457 v 28.6578 c 0,2.763002 -2.610701,4.789301 -5.303804,4.116601 z"
         fill="#ffffff"
         id="path7530"
         style="display:block;fill:#ffffff;fill-opacity:1;stroke:none;stroke-width:4.4;stroke-dasharray:none;stroke-opacity:1" /></clipPath><linearGradient
       id="paint0_linear_3_81"
       x1="4.0922198"
       y1="20.1402"
       x2="1.0628999"
       y2="11.3837"
       gradientUnits="userSpaceOnUse"><stop
         offset="0.1444"
         stop-color="#F2E913"
         id="stop28" /><stop
         offset="0.3037"
         stop-color="#E7E518"
         id="stop30" /><stop
         offset="0.5823"
         stop-color="#CADB26"
         id="stop32" /><stop
         offset="0.891"
         stop-color="#A3CD39"
         id="stop34" /></linearGradient><linearGradient
       id="paint1_linear_3_81"
       x1="4.3117299"
       y1="4.02952"
       x2="12.114"
       y2="1.0562201"
       gradientUnits="userSpaceOnUse"><stop
         offset="0.0592"
         stop-color="#0FA8E0"
         id="stop37" /><stop
         offset="0.5385"
         stop-color="#0099F9"
         id="stop39" /><stop
         offset="0.9234"
         stop-color="#0291EB"
         id="stop41" /></linearGradient><linearGradient
       id="paint2_linear_3_81"
       x1="11.211"
       y1="22.3097"
       x2="20.034"
       y2="20.315599"
       gradientUnits="userSpaceOnUse"><stop
         offset="0.1226"
         stop-color="#A3CD39"
         id="stop44" /><stop
         offset="0.2846"
         stop-color="#86C339"
         id="stop46" /><stop
         offset="0.8693"
         stop-color="#21A038"
         id="stop48" /></linearGradient><linearGradient
       id="paint3_linear_3_81"
       x1="11.4197"
       y1="0.93323302"
       x2="18.9632"
       y2="3.26074"
       gradientUnits="userSpaceOnUse"><stop
         offset="0.0566"
         stop-color="#0291EB"
         id="stop51" /><stop
         offset="0.79"
         stop-color="#0C8ACB"
         id="stop53" /></linearGradient><linearGradient
       id="paint4_linear_3_81"
       x1="3.8009"
       y1="19.7064"
       x2="12.0121"
       y2="22.774401"
       gradientUnits="userSpaceOnUse"><stop
         offset="0.1324"
         stop-color="#F2E913"
         id="stop56" /><stop
         offset="0.2977"
         stop-color="#EBE716"
         id="stop58" /><stop
         offset="0.5306"
         stop-color="#D9E01F"
         id="stop60" /><stop
         offset="0.8023"
         stop-color="#BBD62D"
         id="stop62" /><stop
         offset="0.9829"
         stop-color="#A3CD39"
         id="stop64" /></linearGradient><linearGradient
       id="paint5_linear_3_81"
       x1="1.03767"
       y1="12.346"
       x2="4.3336902"
       y2="3.7718301"
       gradientUnits="userSpaceOnUse"><stop
         offset="0.0698"
         stop-color="#A3CD39"
         id="stop67" /><stop
         offset="0.2599"
         stop-color="#81C55F"
         id="stop69" /><stop
         offset="0.9216"
         stop-color="#0FA8E0"
         id="stop71" /></linearGradient></defs><path
     fill="#222222"
     d="m 122.3427,159.17879 c -6.77697,6.55834 -16.17727,10.71196 -26.233397,10.71196 -10.493366,0 -19.893667,-4.15362 -26.889243,-11.14918 l 17.707546,-17.70755 c 2.404736,2.40471 5.465294,3.71639 9.181697,3.71639 3.497787,0 6.776967,-1.53027 9.181677,-3.71639 l 35.85232,-35.85233 c 2.40474,-2.40472 3.71642,-5.46528 3.71642,-9.181683 0,-3.497789 -1.53031,-6.776963 -3.71642,-9.181689 -2.40473,-2.404733 -5.46529,-3.716402 -9.18169,-3.716402 -3.71638,0 -6.77695,1.530286 -9.18168,3.716402 L 86.927606,122.88925 c -6.77696,6.77695 -16.395867,11.14919 -26.889232,11.14919 -10.493367,0 -19.89367,-4.37224 -26.889235,-11.14919 -6.776964,-6.77697 -11.149202,-16.39588 -11.149202,-26.889245 0,-10.493357 4.153625,-19.893667 11.149202,-26.889236 L 69.001452,33.258455 c 6.776965,-6.776964 16.39588,-11.149202 26.889237,-11.149202 10.493361,0 19.893651,4.153625 26.889241,11.149202 L 105.07237,50.965993 C 102.66765,48.56127 99.60709,47.2496 95.890689,47.2496 c -3.716396,0 -6.776963,1.530283 -9.181689,3.716393 L 50.856677,86.818316 c -2.404723,2.404726 -3.716393,5.465293 -3.716393,9.181689 0,3.497789 1.530283,6.776965 3.716393,9.181685 2.404734,2.40473 5.465292,3.71641 9.181697,3.71641 3.497788,0 6.776961,-1.53029 9.181686,-3.71641 l 35.85231,-35.852314 c 6.77698,-6.776962 16.39589,-11.149192 26.88924,-11.149192 10.49337,0 19.89366,4.153622 26.88924,11.149192 6.77696,6.776962 11.14921,16.395877 11.14921,26.889244 0,10.49335 -4.15364,19.89366 -11.14921,26.88922 z"
     id="path224"
     style="fill:none;fill-opacity:1;stroke:#000000;stroke-width:12;stroke-linecap:round;stroke-linejoin:round;stroke-dasharray:none;stroke-opacity:1" /></svg>
