<svg xmlns="http://www.w3.org/2000/svg" width="192" height="192" fill="none"><ellipse cx="74" cy="78" stroke="#000" stroke-linecap="round" stroke-linejoin="round" stroke-width="10" rx="5" ry="8"/><path stroke="#000" stroke-linecap="round" stroke-linejoin="round" stroke-width="12" d="M52 100s12 25 44 25 44-25 44-25"/><path stroke="#000" stroke-linecap="round" stroke-linejoin="round" stroke-width="12" d="M22 96c0 40.869 33.13 74 74 74 11.416 0 22.229-2.585 31.884-7.202 2.503-1.197 5.489-.685 7.692 1 6.05 4.628 17.215 9.27 34.424 2.202 0 0-12.115-7.615-17.049-18.238-.873-1.879-.353-4.042.939-5.662C163.973 129.454 170 113.431 170 96c0-40.87-33.131-74-74-74S22 55.13 22 96"/><path stroke="#000" stroke-linecap="round" stroke-linejoin="round" stroke-width="10" d="m124 69-16 9 16 7"/></svg>