<?xml version="1.0" encoding="UTF-8"?>
<svg width="24" height="24" fill="none" version="1.1" viewBox="0 0 24 24" xmlns="http://www.w3.org/2000/svg">
 <path d="m2.4908 21.931c-0.0129-0.0336 0.10813-0.43926 0.26896-0.90142 0.16083-0.46215 0.38315-1.1052 0.49406-1.429 0.1109-0.32377 0.23489-0.67697 0.27553-0.78489 0.0406-0.10792 0.18315-0.5141 0.31669-0.90262s0.30152-0.87418 0.37328-1.0792c0.0718-0.20505 0.24766-0.70836 0.39088-1.1185 0.14322-0.4101 0.3284-0.9399 0.41152-1.1773 0.25135-0.71802 0.76143-2.1853 1.0778-3.1003 0.16418-0.47486 0.32439-0.92996 0.35602-1.0113 0.0673-0.17302 0.0688-0.18562 0.023-0.18562-0.019 0-0.64989 0.37969-1.402 0.84376-1.2708 0.78415-1.522 0.92281-1.4401 0.7947 0.0173-0.027 0.6577-0.68482 1.4232-1.4619 0.7655-0.77704 1.6477-1.6732 1.9604-1.9915l0.56856-0.57869-0.19391-0.18658c-0.10665-0.10261-0.89217-0.86648-1.7456-1.6975-0.85343-0.83101-2.0236-1.9676-2.6004-2.5256-0.64556-0.62464-1.0487-1.0433-1.0487-1.089 0-0.0815 0.0412-0.0959 0.10176-0.0353 0.0394 0.0395 0.41343 0.17484 2.1156 0.76588 1.1672 0.40529 3.3415 1.1625 6.0829 2.1184 1.1061 0.38571 3.3209 1.1567 3.3848 1.1783 0.10744 0.0363 0.0401-0.0897-0.59795-1.119-0.16725-0.2698-0.41148-0.66715-0.54275-0.883-0.13126-0.21584-0.30668-0.49811-0.38981-0.62725-0.0831-0.12914-0.13254-0.24101-0.10978-0.2486 0.0228-8e-3 0.97244 0.90465 2.1104 2.0272l2.069 2.041 0.15797-0.14412c0.0869-0.0793 0.52-0.51838 0.96248-0.97581 2.7443-2.837 4.2463-4.3611 4.3158-4.3793 0.12847-0.0336 0.13272-0.0509-0.27326 1.1099-0.15476 0.44249-0.41967 1.2019-0.58869 1.6875-0.16903 0.48565-0.44283 1.2715-0.60847 1.7464-0.16563 0.47486-0.43029 1.2342-0.58814 1.6875-0.15784 0.45327-0.42264 1.2126-0.58844 1.6875-0.48761 1.3965-0.87639 2.5117-1.0854 3.1133-0.10746 0.30935-0.18997 0.57813-0.18336 0.5973 7e-3 0.0192 0.13563-0.0413 0.28672-0.13445 0.15109-0.0931 0.57494-0.35453 0.94187-0.58093 1.4497-0.89443 1.6443-1.0108 1.6616-0.99352 0.0221 0.0221-0.39325 0.45404-2.4054 2.502-0.86441 0.87982-1.5717 1.6151-1.5717 1.6339 0 0.0188 0.30905 0.3307 0.68678 0.69304 0.37773 0.36233 1.3754 1.3313 2.217 2.1532 0.84165 0.82191 1.7217 1.6798 1.9557 1.9064 0.4687 0.454 0.535 0.54087 0.45238 0.59276-0.067 0.0421 0.0188 0.0684-1.4855-0.45613-0.70149-0.24459-1.505-0.52415-1.7856-0.62124-0.2806-0.0971-0.87221-0.30302-1.3147-0.45763s-1.2019-0.41938-1.6875-0.58838-1.245-0.43382-1.6875-0.58849-1.2019-0.4192-1.6875-0.58785c-0.48565-0.16864-1.1113-0.38773-1.3904-0.48688-0.27906-0.0991-0.51544-0.17219-0.52531-0.16233-0.01 0.01 0.0437 0.12003 0.11906 0.24482 0.31254 0.5176 0.78916 1.2957 0.87211 1.4238 0.21852 0.33741 0.72829 1.1729 0.72829 1.1936 0 0.0865-0.22889-0.12241-1.4045-1.2816-3.0076-2.9656-2.7533-2.7274-2.8183-2.6396-0.0319 0.0432-0.94476 0.98756-2.0285 2.0986-3.2617 3.344-3.357 3.4389-3.383 3.3713zm15.325-3.5718c0-0.0553-0.0725-0.17462-0.56869-0.93669-0.21785-0.33456-0.46261-0.71826-0.54391-0.85267s-0.16639-0.25586-0.18908-0.26988c-0.0227-0.014-0.28237 0.21515-0.57707 0.50928-0.47644 0.47553-0.68119 0.63546-0.62186 0.48573 0.24414-0.61615 0.65611-1.7164 0.65611-1.7524 0-0.0163-0.0839-0.0322-0.18641-0.0353-0.10252-3e-3 -0.64557-0.0408-1.2068-0.0839-0.56119-0.0431-1.3736-0.10487-1.8052-0.13735-1.2818-0.0964-1.8403-0.14462-1.9132-0.16502-0.16038-0.0449-0.0399 0.0861 0.40226 0.43736 0.25901 0.20578 0.47094 0.38942 0.47094 0.40809 0 0.0187-0.242 0.13066-0.53777 0.24887-0.29576 0.11822-0.54363 0.23256-0.55081 0.25409-7e-3 0.0215 0.11561 0.0696 0.27286 0.10681 0.15725 0.0372 0.4007 0.0994 0.541 0.13824 0.32324 0.0894 0.56501 0.15388 2.2958 0.61196 1.4192 0.37562 2.9921 0.79586 3.6497 0.97514 0.42138 0.11487 0.41207 0.11357 0.41207 0.0576zm-11.173-1.296c0.54375-0.3487 1.0389-0.66903 1.1004-0.71183l0.1118-0.0778-0.56122-0.56223c-0.30868-0.30923-0.55016-0.57329-0.53664-0.58681 0.0135-0.0135 0.38925 0.11086 0.83496 0.27641 0.4457 0.16555 0.83555 0.29134 0.86634 0.27953 0.0343-0.0132 0.0566-0.0789 0.0577-0.16988 9.5e-4 -0.0816 0.017-0.325 0.0357-0.54084 0.0187-0.21585 0.0624-0.76331 0.0971-1.2166 0.151-1.9704 0.22152-2.8353 0.24243-2.9728 0.0137-0.0899 7e-3 -0.14716-0.0184-0.14716-0.0224 0-0.20955 0.21192-0.41586 0.47093s-0.3904 0.47093-0.40908 0.47093c-0.0187 0-0.12939-0.24282-0.24602-0.53961-0.11662-0.29678-0.22922-0.53653-0.25021-0.53276-0.021 4e-3 -0.0516 0.0567-0.068 0.11774-0.0872 0.32355-0.44428 1.6694-0.5605 2.1124-0.0736 0.2806-0.16707 0.6338-0.20764 0.78489-0.0597 0.22211-0.35151 1.3191-0.77263 2.9041-0.18547 0.69806-0.2251 0.84421-0.27597 1.0177-0.0619 0.21099-0.0682 0.25778-0.0348 0.25778 0.0121 0 0.4668-0.28531 1.0106-0.63402zm3.4423-1.0539c0.17219-0.0866 0.31308-0.17303 0.31308-0.19212 0-0.0512-0.93685-0.83612-0.97997-0.82104-0.0848 0.0296-0.78765 0.75287-0.75875 0.7807 0.0455 0.0438 0.96018 0.38291 1.043 0.3867 0.0382 2e-3 0.21044-0.0677 0.38264-0.15424zm5.9441-0.61766c0.12693-0.31773 0.33416-0.93333 0.33416-0.99269 0-0.0899-0.26358-0.65388-0.32267-0.6904-0.0233-0.0144-0.0795 0.0247-0.12477 0.0869-0.0453 0.0622-0.22051 0.27739-0.38935 0.4782-0.16884 0.20082-0.30129 0.38141-0.29433 0.4013 0.0191 0.0547 0.70875 0.78539 0.74124 0.78539 0.0156 0 0.0406-0.0309 0.0557-0.0687zm-5.0474-1.0689c0.35891-0.0213 1.2685-0.0676 2.0212-0.10282 0.75276-0.0353 1.415-0.0765 1.4717-0.0917 0.0566-0.0151 0.10297-0.0528 0.10292-0.0836-3.9e-4 -0.28002-0.22385-4.4873-0.23927-4.5054-0.0123-0.0144-2.0276 0.0736-3.7832 0.16521l-0.883 0.0461 9e-3 0.45115c5e-3 0.24813 0.0267 0.80435 0.0479 1.236s0.0569 1.1558 0.0792 1.609c0.0224 0.45328 0.0508 0.93451 0.0632 1.0694l0.0225 0.24528h0.2175c0.11963 0 0.51116-0.0174 0.87007-0.0387zm5.7455-0.93259c0.026-0.0894 0.86094-3.2134 1.0358-3.8754 0.0741-0.2806 0.24728-0.93402 0.38482-1.452 0.52351-1.9717 0.48656-1.8072 0.3983-1.7733-0.0538 0.0206-1.6944 1.0709-2.0205 1.2934l-0.17117 0.11682 0.52247 0.52354c0.28735 0.28795 0.5118 0.5342 0.49877 0.54723-0.021 0.021-0.78403-0.2449-1.3022-0.45386-0.28912-0.11659-0.32994-0.10624-0.35293 0.0895-0.0205 0.17429-0.10485 1.2885-0.20135 2.6588-0.0312 0.44248-0.0741 0.99877-0.0955 1.2362-0.076 0.84428-0.0853 1.0481-0.0474 1.0341 0.0205-8e-3 0.19222-0.21683 0.3815-0.46506 0.35647-0.46749 0.4117-0.52599 0.45231-0.47911 0.035 0.0404 0.29488 0.70527 0.35221 0.90099 0.0503 0.17182 0.12982 0.21909 0.16498 0.0981zm-8.0964-3.6207 0.39705-0.47133-0.38136-0.39302c-0.22426-0.23111-0.39583-0.37856-0.41648-0.35792-0.0288 0.0288-0.30328 0.73433-0.36879 0.94796-0.0214 0.07 0.28292 0.74565 0.33589 0.74565 0.0202 0 0.21531-0.2121 0.43369-0.47134zm6.5904-1.1743c0.21898-0.20358 0.39258-0.38687 0.38577-0.40731-0.0122-0.0366-0.54831-0.25467-0.97051-0.3948l-0.21584-0.0716-0.34339 0.16345c-0.18887 0.0899-0.34339 0.17905-0.34339 0.19811 0 0.0405 1.0282 0.89927 1.0646 0.88917 0.0135-4e-3 0.20379-0.1734 0.42277-0.37698zm-1.8813 0.1445c-7.9e-4 -0.027-0.21271-0.21428-0.47093-0.41621s-0.46949-0.3814-0.46949-0.39882c0-0.0295 0.25897-0.13639 0.85357-0.3524 0.1349-0.049 0.24528-0.10484 0.24528-0.12406 0-0.0456-0.14776-0.10049-0.51018-0.18949-0.16188-0.0397-0.49742-0.1265-0.74565-0.19278-1.1795-0.31494-1.6681-0.44504-2.1388-0.56946-0.2806-0.0742-0.65146-0.17286-0.82414-0.2193-0.46938-0.12625-0.62949-0.1687-1.5502-0.41099-0.46406-0.12213-0.95599-0.25624-1.0932-0.29802-0.29114-0.0887-0.31963-0.0914-0.31963-0.0303 0 0.0251 0.17398 0.31211 0.38662 0.63773s0.52439 0.80987 0.69279 1.0761l0.30618 0.48406 0.57765-0.57669c0.31772-0.31719 0.58836-0.5594 0.60143-0.53825 0.0217 0.0351-0.12463 0.46565-0.43678 1.2849-0.0658 0.17268-0.12998 0.34993-0.14264 0.39391-0.0223 0.0775 5e-3 0.082 0.88942 0.14643 0.50183 0.0366 1.2391 0.0928 1.6384 0.12493 0.39931 0.0322 1.088 0.0868 1.5303 0.12152 0.44236 0.0347 0.81175 0.0705 0.82086 0.0796 0.0379 0.0379 0.16036 0.0128 0.15902-0.0325z" fill="#000" stroke-width=".039244"/>
</svg>
