<svg xmlns="http://www.w3.org/2000/svg" width="192" height="192" fill="none"><path stroke="#000" stroke-linecap="round" stroke-linejoin="round" stroke-width="12" d="M67 96v17m58-62v17m0-17a29 29 0 0 0-8.494-20.506 29.005 29.005 0 0 0-31.604-6.287A29 29 0 0 0 67 51m29 61v-12a6 6 0 0 0-6-6c-12.367 1.075-23-8.673-23-21.087V53m29-1v12a6 6 0 0 0 6 6c12.367-1.075 23 8.673 23 21.087V111m0-43-23 2M90 94l-23 2m0 17a29 29 0 0 0 17.902 26.793A29 29 0 0 0 96 142m0 0c3.808 0 7.579-.75 11.098-2.207a29 29 0 0 0 15.695-15.695A29 29 0 0 0 125 113m0 52-58 5"/></svg>