<svg xmlns="http://www.w3.org/2000/svg" width="192" height="192" viewBox="0 0 192 192"><g fill="none"><path d="M22 142.576h10.702M22 114.712h10.702M22 22v148h148M21.995 32.934h10.702M21.995 60.254h10.702M21.995 87.356h10.702" style="fill:#000;fill-opacity:0;stroke:#000;stroke-width:12;stroke-linecap:round;stroke-linejoin:round;stroke-miterlimit:6;stroke-dasharray:none;paint-order:stroke fill markers"/><path d="M68.842 128.695a10.782 10.782 0 0 1-10.781 10.781 10.782 10.782 0 0 1-10.782-10.781 10.782 10.782 0 0 1 10.782-10.782 10.782 10.782 0 0 1 10.781 10.782zM95.06 76.358A10.782 10.782 0 0 1 84.277 87.14a10.782 10.782 0 0 1-10.782-10.782 10.782 10.782 0 0 1 10.782-10.782 10.782 10.782 0 0 1 10.781 10.782ZM138.636 112.754a10.782 10.782 0 0 1-10.782 10.781 10.782 10.782 0 0 1-10.781-10.781 10.782 10.782 0 0 1 10.781-10.782 10.782 10.782 0 0 1 10.782 10.782zM160.24 39.358a10.782 10.782 0 0 1-10.782 10.782 10.782 10.782 0 0 1-10.782-10.782 10.782 10.782 0 0 1 10.782-10.781 10.782 10.782 0 0 1 10.781 10.781z" style="fill-opacity:0;stroke:#000;stroke-width:12;stroke-linecap:round;stroke-linejoin:round;stroke-miterlimit:6;paint-order:stroke fill markers"/><path d="m64.38 118.198 14.117-31.362M93.577 84.412l24.333 21.124M131.578 101.469l15.53-52.393" style="fill:#000;fill-opacity:0;stroke:#000;stroke-width:8;stroke-linecap:round;stroke-linejoin:round;stroke-miterlimit:6;stroke-dasharray:none;paint-order:stroke fill markers"/></g></svg>