<svg xmlns="http://www.w3.org/2000/svg" width="192" height="192" viewBox="0 0 192 192"><g fill="none" stroke="#000" stroke-linecap="round" stroke-linejoin="round" stroke-width="12"><path d="M22 142.576h10.702M22 114.712h10.702M22 22v148h148M21.995 32.934h10.702m-10.702 27.32h10.702M21.995 87.356h10.702"/><path d="M68.842 128.695a10.78 10.78 0 0 1-21.563 0 10.78 10.78 0 0 1 21.563 0M95.06 76.358a10.782 10.782 0 0 1-21.565 0 10.78 10.78 0 0 1 21.563 0zm43.576 36.396a10.78 10.78 0 0 1-21.563 0 10.78 10.78 0 0 1 21.563 0m21.604-73.396a10.782 10.782 0 0 1-21.564 0 10.78 10.78 0 0 1 21.563 0z"/><path stroke-width="8" d="m64.38 118.198 14.117-31.362m15.08-2.424 24.333 21.124m13.668-4.067 15.53-52.393"/></g></svg>