<svg xmlns="http://www.w3.org/2000/svg" width="192" height="192" fill="none"><path stroke="#000" stroke-linecap="round" stroke-linejoin="round" stroke-width="12" d="M91.606 23.82a6.214 6.214 0 0 1 8.788 0l36.786 36.786a6.215 6.215 0 0 1 0 8.788l-36.786 36.786a6.214 6.214 0 0 1-8.788 0L54.82 69.394a6.215 6.215 0 0 1 0-8.788z"/><path stroke="#000" stroke-linecap="round" stroke-linejoin="round" stroke-width="12" d="m141 97-40.757 40.472a6.03 6.03 0 0 1-8.486 0L51 97m90 30.783-40.757 40.472a6.03 6.03 0 0 1-8.486 0L51 127.783"/></svg>