<svg xmlns="http://www.w3.org/2000/svg" width="192" height="192" fill="none" viewBox="0 0 192 192"><circle cx="38" cy="42" r="16" stroke="#000" stroke-linejoin="round" stroke-width="12"/><circle cx="38" cy="96" r="16" stroke="#000" stroke-linejoin="round" stroke-width="12"/><circle cx="38" cy="150" r="16" stroke="#000" stroke-linejoin="round" stroke-width="12"/><path stroke="#000" stroke-linecap="round" stroke-linejoin="round" stroke-width="12" d="M154 26H38m116 54H38m116 54H38m116-76H38m116 54H38m116 54H38M154 58a16 16 0 0 0 16-16 16 16 0 0 0-16-16m0 86c4.243 0 8.313-1.686 11.314-4.686a16.004 16.004 0 0 0 0-22.628A16 16 0 0 0 154 80m0 86c4.243 0 8.313-1.686 11.314-4.686a16.004 16.004 0 0 0 0-22.628A16 16 0 0 0 154 134"/></svg>