<svg xmlns="http://www.w3.org/2000/svg" width="192" height="192" fill="none"><circle cx="24" cy="76" r="4" stroke="#000" stroke-linecap="round" stroke-linejoin="round" stroke-width="8"/><circle cx="4" cy="4" r="4" stroke="#000" stroke-linecap="round" stroke-linejoin="round" stroke-width="8" transform="matrix(1 0 0 -1 164 80)"/><circle cx="74" cy="54" r="4" stroke="#000" stroke-linecap="round" stroke-linejoin="round" stroke-width="8"/><circle cx="4" cy="4" r="4" stroke="#000" stroke-linecap="round" stroke-linejoin="round" stroke-width="8" transform="matrix(1 0 0 -1 114 58)"/><circle cx="54" cy="74" r="4" stroke="#000" stroke-linecap="round" stroke-linejoin="round" stroke-width="8"/><circle cx="4" cy="4" r="4" stroke="#000" stroke-linecap="round" stroke-linejoin="round" stroke-width="8" transform="matrix(1 0 0 -1 134 78)"/><circle cx="66" cy="28" r="4" stroke="#000" stroke-linecap="round" stroke-linejoin="round" stroke-width="8"/><circle cx="4" cy="4" r="4" stroke="#000" stroke-linecap="round" stroke-linejoin="round" stroke-width="8" transform="matrix(1 0 0 -1 122 32)"/><circle cx="96" cy="168" r="4" stroke="#000" stroke-linecap="round" stroke-linejoin="round" stroke-width="8"/><circle cx="96" cy="119" r="4" stroke="#000" stroke-linecap="round" stroke-linejoin="round" stroke-width="8"/><circle cx="96" cy="70" r="4" stroke="#000" stroke-linecap="round" stroke-linejoin="round" stroke-width="8"/><circle cx="96" cy="26" r="5" stroke="#000" stroke-linecap="round" stroke-linejoin="round" stroke-width="10"/><circle cx="43" cy="108" r="5" stroke="#000" stroke-linecap="round" stroke-linejoin="round" stroke-width="10"/><circle cx="5" cy="5" r="5" stroke="#000" stroke-linecap="round" stroke-linejoin="round" stroke-width="10" transform="matrix(1 0 0 -1 144 113)"/><circle cx="38" cy="42" r="6" stroke="#000" stroke-linecap="round" stroke-linejoin="round" stroke-width="12"/><circle cx="6" cy="6" r="6" stroke="#000" stroke-linecap="round" stroke-linejoin="round" stroke-width="12" transform="matrix(1 0 0 -1 148 48)"/><circle cx="72" cy="140" r="6" stroke="#000" stroke-linecap="round" stroke-linejoin="round" stroke-width="12"/><circle cx="6" cy="6" r="6" stroke="#000" stroke-linecap="round" stroke-linejoin="round" stroke-width="12" transform="matrix(1 0 0 -1 114 146)"/><circle cx="76" cy="96" r="6" stroke="#000" stroke-linecap="round" stroke-linejoin="round" stroke-width="12"/><circle cx="6" cy="6" r="6" stroke="#000" stroke-linecap="round" stroke-linejoin="round" stroke-width="12" transform="matrix(1 0 0 -1 110 102)"/></svg>