<svg xmlns="http://www.w3.org/2000/svg" width="192" height="192" fill="none" viewBox="0 0 192 192"><path stroke="#000" stroke-linecap="round" stroke-linejoin="round" stroke-width="10" d="m104 63 6 6 14-14"/><path stroke="#000" stroke-linecap="round" stroke-linejoin="round" stroke-width="12" d="M82 62H28a6 6 0 0 0-6 6v80a6 6 0 0 0 6 6h136a6 6 0 0 0 4.243-1.757A6 6 0 0 0 170 148V68a6 6 0 0 0-6-6h-18"/><path stroke="#000" stroke-linecap="round" stroke-linejoin="round" stroke-width="12" d="M114 94c17.673 0 32-14.327 32-32s-14.327-32-32-32-32 14.327-32 32 14.327 32 32 32"/></svg>