<svg width="192" height="192" viewBox="0 0 192 192" fill="none" xmlns="http://www.w3.org/2000/svg"><path d="M47.984 57.08S51.984 26 94.99 26C135.995 26 170 41.039 170 65.101 170 97.184 158 152 138 161s-76.014 4.35-92.016-11.691c-16.002-16.042-4-60.146 2-92.229Z" stroke="#000" stroke-width="12" stroke-linecap="round" stroke-linejoin="round"/><path d="M129 29.82c9 2.2 27.284 7.693 2.799 72.219M22 82c28.5-3.5 50 1 66 4 8.085 1.516 27.032 9.003 43.799 16.039m30.741 13.345s-14.326-6.457-30.741-13.345M77 114l-3 14m39-5-4 14" stroke="#000" stroke-width="12" stroke-linecap="round" stroke-linejoin="round"/></svg>