<svg xmlns="http://www.w3.org/2000/svg" width="192" height="192" fill="none"><path stroke="#000" stroke-linecap="round" stroke-linejoin="round" stroke-width="12" d="M54 64v64m84-64v64m-56 0V70a6 6 0 0 0-6-6H54m56 64V70a6 6 0 0 1 6-6h22m-84 0 42-42m42 42L96 22m42 106a42 42 0 0 1-12.302 29.698 41.997 41.997 0 0 1-59.396 0A42 42 0 0 1 54 128"/><path stroke="#000" stroke-linecap="round" stroke-linejoin="round" stroke-width="12" d="M110 128c0 3.713-1.475 7.274-4.101 9.899a13.996 13.996 0 0 1-19.799 0A14 14 0 0 1 82 128"/></svg>