<svg xmlns="http://www.w3.org/2000/svg" width="192" height="192" viewBox="0 0 192 192"><path fill="none" stroke="#000" stroke-width="12" d="M30 38a8 8 0 0 1 8-8h36a8 8 0 0 1 8 8v98c0 14.359-11.64 26-26 26s-26-11.641-26-26z"/><path d="m36 110.745-2.627 2.628c-12.497 12.496-12.497 32.758 0 45.254 12.496 12.497 32.758 12.497 45.254 0l69.297-69.296c5.467-5.467 5.467-14.332 0-19.8l-25.456-25.455c-5.467-5.467-14.332-5.467-19.799 0L76 70.746v16.97l35.154-35.155a2 2 0 0 1 2.829 0l25.456 25.456a2 2 0 0 1 0 2.829l-69.271 69.27a.247.244 0 0 0-.247.244 19.937 19.937 0 0 1-28.276-.434A19.93 19.93 0 0 1 36 136z"/><path d="M36 111.019c-7.316 5.864-12 14.875-12 24.981 0 17.673 14.327 32 32 32h98a14 14 0 0 0 14-14v-36a14 14 0 0 0-14-14h-34.934l-10.642 12H154a2 2 0 0 1 2 2v36a2 2 0 0 1-2 2H56a20 20 0 0 1-20-20zM76 116h6.5v-9l.194-3H76z"/><circle cx="56" cy="136" r="9"/></svg>