<svg xmlns="http://www.w3.org/2000/svg" width="192" height="192" fill="none" viewBox="0 0 192 192"><circle cx="112" cy="88" r="23" stroke="#000" stroke-linejoin="round" stroke-width="10"/><path stroke="#000" stroke-linecap="round" stroke-linejoin="round" stroke-width="10" d="M137.712 120.358a39.997 39.997 0 0 0-64.385 20.424m16.29-58.476a18 18 0 1 0-.629 9.644"/><path stroke="#000" stroke-linecap="round" stroke-linejoin="round" stroke-width="10" d="M72 104a28 28 0 0 0-23.641 12.997"/><path stroke="#000" stroke-linecap="round" stroke-linejoin="round" stroke-miterlimit="2" stroke-width="12" d="M60.732 29C41.107 29 22 42.955 22 70.54c0 27.166 45.274 64.985 74 92.46 28.744-27.475 74-65.294 74-92.46C170 42.954 150.908 29 131.305 29 118 29 104.325 36.821 96 49.256 87.638 36.763 74 29 60.732 29"/></svg>