<svg xmlns="http://www.w3.org/2000/svg" width="192" height="192" viewBox="0 0 50.8 50.8"><path fill="none" stroke="#000" stroke-linejoin="round" stroke-width="2.117" d="m5.292 34.36 3.661-3.635s10.233 6.529 12.72 1.67c0 0 2.188-3.123-8.137-5.321 0 0-7.008-1.482-5.426-8.577 0 0 .675-5.159 8.518-4.884 0 0 5.14.096 8.743 2.69l2.498-2.733h17.64L33.194 34.108s5.279.192 11.385-.529l-1.345 3.651H26.469l12.17-20.158s-9.52-1.973-13.026 2.83c0 0-12.338-6.836-13.596-.845 0 0-.87 3.2 5.092 4.644 0 0 8.722 1.707 9.079 6.533 0 0 .154 3.693-2.979 5.716 0 0-5.198 3.49-14.363-1.254l-1.585 1.489z"/></svg>