<svg width="192" height="192" viewBox="0 0 192 192" fill="none" xmlns="http://www.w3.org/2000/svg">
<path d="M76.463 31.1148C87.9972 19.2206 106.99 18.9285 118.885 30.4624C130.779 41.9965 131.071 60.9898 119.537 72.8843L112.386 80.2583C123.498 74.6001 137.433 76.2968 146.885 85.4624C158.779 96.9965 159.071 115.99 147.537 127.884L115.537 160.884C104.003 172.779 85.0099 173.071 73.1154 161.537C61.2212 150.002 60.929 131.009 72.463 119.115L79.6125 111.742C68.5004 117.399 54.5671 115.702 45.1154 106.537C33.221 95.0025 32.929 76.0093 44.463 64.1148L76.463 31.1148Z" stroke="black" stroke-width="12" stroke-linecap="round" stroke-linejoin="round"/>
</svg>
