<svg xmlns="http://www.w3.org/2000/svg" width="192" height="192" fill="none"><path stroke="#000" stroke-linecap="round" stroke-linejoin="round" stroke-width="10" d="M63.007 130.431C47.345 121.967 32 112.706 32 87.891c0-27.364 19.302-28.378 25.397-28.378 8.175 0 16.756 4.862 23.746 10.239M63.007 130.43C79.331 139.252 96 147.207 96 171m-32.993-40.569c11.996-.463 15.474-6.716 24.535-30.538M96 171c0-23.793 16.669-31.748 32.993-40.569M96 171v-69m32.993 28.431C144.655 121.967 160 112.706 160 87.891c0-27.364-19.302-28.378-25.397-28.378-8.175 0-16.756 4.862-23.746 10.239m18.136 60.679c-11.996-.463-15.474-6.716-24.535-30.538m2.717-75.016a24.4 24.4 0 0 0-4.034 3.247A24.3 24.3 0 0 0 96 45.324V66m-14.857 3.752c-5.088-6.512-9.524-14.917-9.524-24.428a24.3 24.3 0 0 1 7.141-17.2A24.4 24.4 0 0 1 96 21a24.4 24.4 0 0 1 17.24 7.124 24.3 24.3 0 0 1 7.141 17.2c0 9.511-4.436 17.916-9.524 24.428m-29.714 0a62 62 0 0 0 1.648 2.02m28.066-2.02a62 62 0 0 1-1.648 2.02M96 66c5.22 0 9.921 2.222 13.209 5.772M96 66c-5.22 0-9.921 2.222-13.21 5.772M96 102c3.057 0 5.937-.762 8.458-2.107M96 102c-3.057 0-5.937-.762-8.458-2.107m16.916 0a18.1 18.1 0 0 0 5.177-4.142m-.426-23.979a17.96 17.96 0 0 1 4.283 7.963m0 0c.332 1.367.508 2.796.508 4.265a17.93 17.93 0 0 1-4.365 11.751m3.857-16.016c40.055-5.392 42.445 26.4 42.445 26.4s-14.267 14.234-46.302-10.384m-22.093 4.142a18.1 18.1 0 0 1-5.177-4.142m.426-23.979a17.96 17.96 0 0 0-4.283 7.963m3.857 16.016A17.93 17.93 0 0 1 78 84c0-1.47.176-2.898.508-4.265m3.857 16.016c-32.034 24.618-46.301 10.384-46.301 10.384s2.39-31.793 42.444-26.4"/></svg>