<svg xmlns="http://www.w3.org/2000/svg" width="192" height="192" fill="none" stroke="#000" stroke-linecap="round" stroke-linejoin="round" stroke-width="8" viewBox="0 0 192 192"><circle cx="67" cy="119" r="4"/><circle cx="125" cy="119" r="4"/><path stroke-width="10" d="M101 137a5 5 0 0 1-10 0z"/><path stroke-miterlimit="2" stroke-width="12" d="M32 170s-10-10-10-32c0-30.294 17.429-64.75 42.342-81.604M160 170s10-10 10-34c0-30.775-19.829-67.468-47.42-82.757m0 0c-1.865 9.704-5.187 20.304-7.6 28.757-16.729-4.2-42.331-9.507-48.276-19.736-1.197-2.06-1.962-4.018-2.362-5.868m58.238-3.153c1.775-9.234 2.232-17.657-.667-22.645-6.037-10.387-15.337-10.05-22.65-5.856-5.71 3.274-7.477 10.224-7.862 16.687-5.853-2.915-12.769-4.854-18.464-1.588-5.87 3.367-10.215 9.072-8.595 16.555"/></svg>