<svg width="192" height="192" viewBox="0 0 192 192" fill="none" xmlns="http://www.w3.org/2000/svg"><path d="m85 80 24 15.5L85 111V80Z" stroke="#000" stroke-width="10" stroke-linecap="round" stroke-linejoin="round"/><path d="M127 22h36M29 22h36m-36 0 33.76 50.985c6.178-8.104 15.538-13.651 26.217-14.775M127 170l-24.612-37.169M163 22l-36.777 55.54c-5.018-9.012-13.597-15.77-23.835-18.371M65 170l23.977-36.21M65 22l23.977 36.21M163 170l-36.777-55.541c-5.018 9.013-13.597 15.771-23.835 18.372M127 22l-24.612 37.169M29 170l33.76-50.985c6.178 8.104 15.538 13.651 26.217 14.775m13.411-74.621A38.068 38.068 0 0 0 93 58c-1.359 0-2.7.071-4.023.21m0 75.58A38.46 38.46 0 0 0 93 134c3.24 0 6.386-.406 9.388-1.169M127 170h36m-134 0h36" stroke="#000" stroke-width="12" stroke-linecap="round" stroke-linejoin="round"/></svg>