<svg xmlns="http://www.w3.org/2000/svg" width="192" height="192" fill="none" viewBox="0 0 192 192"><path stroke="#000" stroke-linejoin="round" stroke-width="12" d="M41.914 47.924a6.01 6.01 0 0 1 6.01-6.01h21.033a6.01 6.01 0 0 1 6.01 6.01v21.033a6.01 6.01 0 0 1-6.01 6.01H47.923a6.01 6.01 0 0 1-6.01-6.01zm0 75.119a6.01 6.01 0 0 1 6.01-6.01h21.033a6.01 6.01 0 0 1 6.01 6.01v21.034a6.01 6.01 0 0 1-6.01 6.009H47.923a6.01 6.01 0 0 1-6.01-6.009zm75.119-75.119a6.01 6.01 0 0 1 6.01-6.01h21.033a6.01 6.01 0 0 1 6.01 6.01v21.033a6.01 6.01 0 0 1-6.01 6.01h-21.033a6.01 6.01 0 0 1-6.01-6.01zm0 75.119a6.01 6.01 0 0 1 6.01-6.01h21.033a6.01 6.01 0 0 1 6.01 6.01v21.034a6.01 6.01 0 0 1-6.01 6.009h-21.033a6.01 6.01 0 0 1-6.01-6.009zM23.76 100.249a6.01 6.01 0 0 1 0-8.498l14.873-14.873a6.01 6.01 0 0 1 8.499 0L62.005 91.75a6.01 6.01 0 0 1 0 8.498l-14.873 14.873a6.01 6.01 0 0 1-8.499 0zm53.118 53.118a6.01 6.01 0 0 1 0-8.499l14.873-14.873a6.01 6.01 0 0 1 8.498 0l14.873 14.873a6.01 6.01 0 0 1 0 8.499l-14.873 14.873a6.01 6.01 0 0 1-8.498 0zm0-106.235a6.01 6.01 0 0 1 0-8.499L91.75 23.76a6.01 6.01 0 0 1 8.498 0l14.873 14.873a6.01 6.01 0 0 1 0 8.499l-14.873 14.873a6.01 6.01 0 0 1-8.498 0zm53.117 53.117a6.01 6.01 0 0 1 0-8.498l14.873-14.873a6.01 6.01 0 0 1 8.499 0L168.24 91.75a6.01 6.01 0 0 1 0 8.498l-14.873 14.873a6.01 6.01 0 0 1-8.499 0z"/></svg>