<svg width="192" height="192" viewBox="0 0 192 192" fill="none" xmlns="http://www.w3.org/2000/svg">
<path d="M73.8621 43.6741H43.6741V73.8621H73.8621V43.6741Z" stroke="black" stroke-width="12" stroke-linejoin="round"/>
<path d="M148.326 43.6741H118.138V73.8621H148.326V43.6741Z" stroke="black" stroke-width="12" stroke-linejoin="round"/>
<path d="M148.326 148.326V118.138H118.138V148.326H148.326Z" stroke="black" stroke-width="12" stroke-linejoin="round"/>
<path d="M43.6741 148.326H73.8621V118.138H43.6741V148.326Z" stroke="black" stroke-width="12" stroke-linejoin="round"/>
<path d="M43.3462 74.6539L22 96L43.3462 117.346L64.6923 96L43.3462 74.6539Z" stroke="black" stroke-width="12" stroke-linejoin="round"/>
<path d="M96 22L74.6539 43.3462L96 64.6923L117.346 43.3462L96 22Z" stroke="black" stroke-width="12" stroke-linejoin="round"/>
<path d="M170 96L148.654 74.6539L127.308 96L148.654 117.346L170 96Z" stroke="black" stroke-width="12" stroke-linejoin="round"/>
<path d="M96 170L117.346 148.654L96 127.308L74.6539 148.654L96 170Z" stroke="black" stroke-width="12" stroke-linejoin="round"/>
</svg>
