<svg width="192" height="192" viewBox="0 0 192 192" fill="none" xmlns="http://www.w3.org/2000/svg">
<path d="M32.7914 57.5C39.2078 46.9881 48.1728 38.2018 58.8275 32C80.808 29.6827 92.9819 27.9599 114.5 24.3313C146.417 32.5461 170 61.519 170 96C170 107.265 167.483 117.942 162.98 127.5C119 133.5 70 115.5 26.5109 121.5C23.2109 112.51 21.6965 102.882 22.053 93.3135M32.7914 57.5C45.3777 56.1511 54.17 55.8245 73.5 59M32.7914 57.5C26.2026 68.2943 22.5225 80.7113 22.053 93.3135M43.5495 148.201C56.3416 161.06 73.8605 169.272 93.4175 169.955C113.928 170.671 132.78 162.97 146.648 149.952M22.053 93.3135C77.3572 94.192 103.25 92.3534 140.5 85" stroke="black" stroke-width="12" stroke-linecap="round" stroke-linejoin="round"/>
</svg>
