<svg width="192" height="192" viewBox="0 0 192 192" fill="none" xmlns="http://www.w3.org/2000/svg">
<path d="M32.7914 57.5C39.2078 46.9881 48.1728 38.2018 58.8275 32C80.808 29.6827 92.9819 27.9599 114.5 24.3313C146.417 32.5461 170 61.519 170 96C170 107.265 167.483 117.942 162.98 127.5C119 133.5 70 115.5 26.5109 121.5C23.9749 114.591 22.4398 107.199 22.0813 99.5M32.7914 57.5C45.3777 56.1511 54.17 55.8245 73.5 59M32.7914 57.5C25.1259 70.0582 21.3974 84.8127 22.0813 99.5M22.0813 99.5C73.8318 99.863 103.083 100.187 142 94M93.4175 169.955C73.8605 169.272 56.3416 161.06 43.5495 148.201C100.758 153.423 123.53 153.859 146.648 149.952C132.78 162.97 113.928 170.671 93.4175 169.955Z" stroke="black" stroke-width="12" stroke-linecap="round" stroke-linejoin="round"/>
</svg>
