<svg xmlns="http://www.w3.org/2000/svg" width="192" height="192" fill="none" viewBox="0 0 192 192"><path stroke="#000" stroke-linecap="round" stroke-linejoin="round" stroke-width="12" d="M32.791 57.5A74.4 74.4 0 0 1 58.828 32c21.98-2.317 34.154-4.04 55.672-7.669C146.417 32.546 170 61.52 170 96c0 11.265-2.517 21.942-7.02 31.5-43.98 6-92.98-12-136.47-6a74 74 0 0 1-4.457-28.186M32.791 57.5C45.378 56.151 54.17 55.825 73.5 59m-40.709-1.5c-6.588 10.794-10.268 23.211-10.738 35.814M43.55 148.2c12.792 12.859 30.31 21.071 49.868 21.754 20.51.716 39.362-6.985 53.23-20.003M22.053 93.314c55.304.878 81.197-.96 118.447-8.314"/></svg>