<svg xmlns="http://www.w3.org/2000/svg" width="192" height="192" fill="none" viewBox="0 0 192 192"><path stroke="#000" stroke-linecap="round" stroke-linejoin="round" stroke-width="10" d="M71 41s6 22-6 34-26-3-26-3m68 5s-25 5.5-37-6.5"/><path stroke="#000" stroke-linecap="round" stroke-linejoin="round" stroke-width="12" d="M35 88c0 25 45 20 61 4s16-25 16-31"/><path stroke="#000" stroke-linecap="round" stroke-linejoin="round" stroke-width="6" d="M136 87s3.286 3 5 3 5-3 5-3"/><path stroke="#000" stroke-linecap="round" stroke-linejoin="round" stroke-width="12" d="M35 88s4-47 44-47c32 0 33 20 33 20s0-20 30-20a26.4 26.4 0 0 1 10.715 2.284c3.397 1.507 6.484 3.717 9.084 6.503s4.662 6.093 6.07 9.733A31.9 31.9 0 0 1 170 71c0 38-35 40-35 40s17 20 0 27-26-13-26-13 5 28-17 28-20-24-20-24-4 11-19 11-13-16-13-16l-14.842-7.98c-2.888-1.553-3.967-5.117-2.515-7.991.158-.311.37-.583.598-.846C25.21 104.923 35.01 93.398 35.01 88"/><path stroke="#000" stroke-linecap="round" stroke-linejoin="round" stroke-width="6" d="M131.25 75c1.243 0 2.25-1.343 2.25-3s-1.007-3-2.25-3-2.25 1.343-2.25 3 1.007 3 2.25 3m19-2c1.243 0 2.25-1.343 2.25-3s-1.007-3-2.25-3-2.25 1.343-2.25 3 1.007 3 2.25 3"/></svg>