<svg width="192" height="192" viewBox="0 0 192 192" fill="none" xmlns="http://www.w3.org/2000/svg"><path d="M120 129a23.996 23.996 0 0 0-14.816-22.173 23.997 23.997 0 0 0-31.357 12.989A23.994 23.994 0 0 0 72 129" stroke="#000" stroke-width="14" stroke-linecap="round" stroke-linejoin="round"/><path d="M120 31.917s-18-6.93-22.824-8.24A20.135 20.135 0 0 0 82 25.66a19.958 19.958 0 0 0-5.867 5.11 19.808 19.808 0 0 0-3.451 6.95 19.73 19.73 0 0 0 1.998 15.072C82 64 110 64 117.32 75.207a19.74 19.74 0 0 1-1.454 22.022 19.951 19.951 0 0 1-5.867 5.11 20.128 20.128 0 0 1-15.176 1.984C90 103.014 72 96.083 72 96.083M72 129v40m48-40v40" stroke="#000" stroke-width="14" stroke-linecap="round" stroke-linejoin="round"/></svg>