<svg width="192" height="192" viewBox="0 0 192 192" fill="none" xmlns="http://www.w3.org/2000/svg"><path d="M71 41s6 22-6 34-26-3-26-3m68 5s-25 5.5-37-6.5" stroke="#000" stroke-width="10" stroke-linecap="round" stroke-linejoin="round"/><path d="M35 88c0 25 45 20 61 4s16-25 16-31" stroke="#000" stroke-width="12" stroke-linecap="round" stroke-linejoin="round"/><path d="M136 87s3.286 3 5 3 5-3 5-3" stroke="#000" stroke-width="6" stroke-linecap="round" stroke-linejoin="round"/><path d="M170 71c0-3.94-.724-7.84-2.131-11.48-1.408-3.64-3.47-6.947-6.07-9.733-2.6-2.786-5.687-4.996-9.084-6.503A26.388 26.388 0 0 0 142 41M40 124s-2 16 13 16 19-11 19-11-2 24 20 24 17-28 17-28 9 20 26 13 0-27 0-27 35-2 35-40m-28-30c-30 0-30 20-30 20s-1-20-33-20c-40 0-44 47-44 47m5 36-14.842-7.98c-2.888-1.553-3.967-5.117-2.515-7.991.158-.311.37-.583.598-.846C25.21 104.923 35.01 93.398 35.01 88" stroke="#000" stroke-width="12" stroke-linecap="round" stroke-linejoin="round"/><ellipse cx="129.25" cy="74" rx="2.25" ry="3" stroke="#000" stroke-width="6" stroke-linecap="round" stroke-linejoin="round"/><ellipse cx="151.25" cy="72" rx="2.25" ry="3" stroke="#000" stroke-width="6" stroke-linecap="round" stroke-linejoin="round"/></svg>