<svg xmlns="http://www.w3.org/2000/svg" width="192" height="192" fill="none"><circle cx="96" cy="96" r="14" stroke="#000" stroke-linecap="round" stroke-linejoin="round" stroke-width="12"/><path stroke="#000" stroke-linecap="round" stroke-linejoin="round" stroke-width="12" d="M136.596 117.651a14 14 0 0 1 3.303 2.45l17.387 17.386m-20.69-19.836a13.99 13.99 0 0 0-16.495 2.45 13.99 13.99 0 0 0-2.45 16.495m18.945-18.945A45.8 45.8 0 0 0 142 96c0-25.405-20.595-46-46-46S50 70.595 50 96s20.595 46 46 46a45.8 45.8 0 0 0 21.651-5.404m19.836 20.69 8.614 8.613a13.994 13.994 0 0 0 19.798 0 13.994 13.994 0 0 0 0-19.798l-8.613-8.614m-19.799 19.799-17.386-17.387a14 14 0 0 1-2.45-3.303m19.836 20.69C125.654 165.311 111.375 170 96 170c-40.87 0-74-33.131-74-74s33.13-74 74-74 74 33.13 74 74c0 15.375-4.689 29.654-12.714 41.487"/></svg>