<svg xmlns="http://www.w3.org/2000/svg" width="192" height="192" fill="none" viewBox="0 0 192 192"><path stroke="#000" stroke-linecap="round" stroke-linejoin="round" stroke-width="12" d="m98 70 3 48m27-50-4 50M73 70l55-2M28 78l45-8m-48 56 11-1.956M28 78l-6 9m2 10-2-10m2 10 8 4m0 0 4-.706M129 91l41 28m-41-28 30-22"/><path stroke="#000" stroke-linecap="round" stroke-linejoin="round" stroke-miterlimit="6" stroke-width="10" d="M73 128H61a6 6 0 0 1-6-6v-12m0 0h18m-18 0V98.001a6 6 0 0 1 6-6h8M69 110a9 9 0 1 0 0-18m4 36a9 9 0 1 0 0-18"/></svg>