<svg xmlns="http://www.w3.org/2000/svg" width="192" height="192" fill="none" viewBox="0 0 192 192"><path stroke="#000" stroke-linecap="round" stroke-linejoin="round" stroke-width="12" d="M64.89 97.11C84 116 108 108 108 126"/><path stroke="#000" stroke-linecap="round" stroke-linejoin="round" stroke-width="12" d="M140 66a44.006 44.006 0 0 0-39.687-43.788 44 44 0 0 0-35.426 74.9M85.608 132A12 12 0 0 0 108 126"/><path stroke="#000" stroke-linecap="round" stroke-linejoin="round" stroke-width="12" d="M127.11 94.89C108 76 84 84 84 66a12 12 0 0 1 22.392-6M52 126a43.997 43.997 0 0 0 78.012 27.913 43.994 43.994 0 0 0-2.899-59.026"/></svg>