<svg xmlns="http://www.w3.org/2000/svg" width="192" height="192" fill="none"><path stroke="#000" stroke-linecap="round" stroke-linejoin="round" stroke-width="12" d="m22 103 7.731-15.463A17.9 17.9 0 0 1 27 78c0-9.941 8.059-18 18-18s18 8.059 18 18c0 7.96-5.168 14.714-12.332 17.09L27 150m143-47-7.731-15.463A17.9 17.9 0 0 0 165 78c0-9.941-8.059-18-18-18s-18 8.059-18 18c0 7.96 5.168 14.714 12.332 17.09L165 150"/><path stroke="#000" stroke-linecap="round" stroke-linejoin="round" stroke-width="12" d="m45 111 17 19 20-19m65 0-17 19-20-19"/><path stroke="#000" stroke-linecap="round" stroke-linejoin="round" stroke-width="10" d="m82 111 42-67m-56 0 42 67"/><path stroke="#000" stroke-linecap="round" stroke-linejoin="round" stroke-width="6" d="m102 113 12-10m-24 10-12-10"/></svg>