<svg width="192" height="192" viewBox="0 0 192 192" fill="none" xmlns="http://www.w3.org/2000/svg"><path d="M74 88.31C84.25 93 107.75 99 118 103.69M74 88.31c-6.266-2.877-11.544-6.94-15.365-11.828-3.82-4.888-6.067-10.45-6.54-16.193-.474-5.743.84-11.491 3.827-16.734 2.986-5.242 7.552-9.819 13.293-13.322 5.74-3.504 12.478-5.828 19.618-6.765 7.139-.938 14.458-.46 21.31 1.39 6.852 1.85 13.025 5.015 17.971 9.216s8.514 9.308 10.387 14.867" stroke="#000" stroke-width="14" stroke-linecap="round" stroke-linejoin="round"/><path d="M118 103.689c6.266 2.878 11.544 6.941 15.365 11.829 3.821 4.887 6.068 10.449 6.541 16.193.473 5.743-.842 11.491-3.828 16.734-2.986 5.242-7.552 9.818-13.293 13.322-5.74 3.504-12.478 5.828-19.618 6.766-7.139.937-14.459.46-21.31-1.39-6.852-1.851-13.025-5.016-17.971-9.217-4.946-4.201-8.514-9.308-10.387-14.867" stroke="#000" stroke-width="14" stroke-linecap="round" stroke-linejoin="round"/></svg>