<svg width="192" height="192" viewBox="0 0 192 192" fill="none" xmlns="http://www.w3.org/2000/svg"><path d="M42 54c0-6.627 5.373-12 12-12h84c6.627 0 12 5.373 12 12v84c0 6.627-5.373 12-12 12H54c-6.627 0-12-5.373-12-12V54Z" stroke="#000" stroke-width="12" stroke-linecap="round" stroke-linejoin="round"/><path d="M78 84a6 6 0 0 1 6-6h24a6 6 0 0 1 6 6v24a6 6 0 0 1-6 6H84a6 6 0 0 1-6-6V84Zm36-59v17m53 72h-17m-36 36v17m-72-53H25m53-89v17m89 36h-17m-72 72v17M42 78H25" stroke="#000" stroke-width="12" stroke-linecap="round" stroke-linejoin="round"/></svg>