<?xml version="1.0" encoding="UTF-8"?>
<svg width="24" height="24" fill="none" version="1.1" viewBox="0 0 24 24" xmlns="http://www.w3.org/2000/svg">
 <path d="m4.252 21.99c-0.4967-0.068-0.7311-0.15596-1.1365-0.42653-0.4781-0.31911-0.9274-1.0357-0.9825-1.5669-0.01-0.0971-0.026-0.22608-0.036-0.28655-0.01-0.0605-0.018-0.14805-0.018-0.19462-2e-4 -0.11676 0.065-0.48713 0.1195-0.67919 0.1334-0.46953 0.6282-1.5384 1.1014-2.3788 0.365-0.64823 1.058-1.7852 1.1436-1.876 0.031-0.0334 0.034-0.0323 0.078 0.0367 0.31 0.48532 0.3752 0.58928 0.4621 0.73668 0.01 0.0171 0.1142 0.19178 0.2313 0.38821 0.1172 0.19643 0.2544 0.43135 0.3051 0.52206 0.051 0.0907 0.1137 0.20203 0.14 0.24739 0.026 0.0454 0.088 0.1608 0.1382 0.25654 0.05 0.0957 0.1159 0.21944 0.1472 0.27488 0.1046 0.18533 0.4607 0.9234 0.5261 1.0903 0.035 0.0907 0.08 0.19988 0.099 0.24261 0.019 0.0427 0.035 0.0845 0.035 0.0928 0 8e-3 0.02 0.0558 0.044 0.10557 0.1405 0.29148 0.1873 0.60266 0.1686 1.12-0.015 0.41581-0.041 0.54455-0.1742 0.85344-0.1072 0.24913-0.1422 0.30823-0.3234 0.54509-0.2392 0.31263-0.6531 0.6205-1.0098 0.75113-0.3233 0.11841-0.788 0.18226-1.0578 0.14533zm8.84-0.99803c-0.456-0.0522-0.9472-0.26348-1.3744-0.59114-0.1569-0.12035-5.5985-5.5356-5.9513-5.9226-0.1847-0.2026-0.4228-0.54391-0.517-0.74136-0.078-0.16324-0.2099-0.54176-0.2464-0.7063-0.1364-0.61616-0.052-1.2317 0.2537-1.8508 0.1087-0.22001 0.3115-0.51394 0.4805-0.69635 0.2938-0.31706 8.3175-8.3252 8.3825-8.3662 0.2242-0.1415 0.5581-0.15593 0.8127-0.0351 0.1203 0.0571 0.2786 0.21945 0.3446 0.3534 0.057 0.11601 0.06 0.13133 0.06 0.33276 0 0.33865 0 0.34489-0.5936 0.93948-0.295 0.29754-0.4791 0.49643-0.4685 0.50621 0.01 9e-3 0.1081 0.0546 0.2187 0.1017 0.2807 0.11945 0.6363 0.33654 0.8284 0.50576 0.089 0.0783 1.454 1.4358 3.0337 3.0167 2.9249 2.9271 3.0074 3.0132 3.1747 3.3124 0.096 0.17162 0.2417 0.52286 0.2939 0.7084 0.083 0.2941 0.1054 0.5029 0.094 0.86016-0.015 0.47103-0.065 0.68696-0.2612 1.1361-0.1899 0.43455-0.034 0.26743-3.2676 3.5027-3.1744 3.176-3.1017 3.1074-3.5211 3.3228-0.4054 0.20823-0.6665 0.28915-1.0339 0.32041-0.2786 0.0237-0.4762 0.0213-0.7421-9e-3zm0.6387-1.3939c0.1472-0.0365 0.263-0.0928 0.4333-0.21053 0.1703-0.11776 5.9134-5.8644 6.0001-6.0039 0.1594-0.25627 0.2251-0.68937 0.1557-1.0256-0.039-0.18958-0.088-0.3133-0.1769-0.44961-0.052-0.0801-0.9492-0.99025-2.9628-3.0067-1.5883-1.5906-2.9359-2.9284-2.9946-2.9729-0.4408-0.33419-0.9597-0.34414-1.4694-0.0282-0.1286 0.0797-0.5049 0.44983-3.0887 3.0377-2.2414 2.245-2.9537 2.9688-2.9904 3.0389-0.026 0.0506-0.07 0.16606-0.097 0.25655-0.042 0.14084-0.049 0.1975-0.049 0.39358 7e-4 0.37192 0.071 0.62384 0.2327 0.83794 0.036 0.0481 1.3749 1.3975 2.9744 2.9986 3.0706 3.0738 3.0486 3.0528 3.2816 3.1206 0.2301 0.0669 0.5152 0.072 0.7509 0.0135zm-1.0389-4.7248c2.8502-2.8578-0.039 0.0419 2.8655-2.8737 0.6469 0.6634 0 8e-3 0.6469 0.6634-2.8527 2.87-0.067 0.067-2.8527 2.87zm-0.418-0.42434-0.6568-0.65596 2.872-2.8811 0.6638 0.69076c-2.8829 2.8386 0 8e-3 -2.879 2.8463zm-1.7107-1.7209 2.8972-2.9068 0.6395 0.66662-2.8732 2.8727z" fill="#000" stroke-width=".018325"/>
</svg>
