<svg id="svg" version="1.1" xmlns="http://www.w3.org/2000/svg" xmlns:xlink="http://www.w3.org/1999/xlink" width="400" height="400" viewBox="0, 0, 400,400"><g id="svgg"><path id="path0" d="M259.375 112.905 C 163.688 155.912,147.656 168.859,147.656 203.125 C 147.656 249.202,200.265 272.155,232.986 240.354 C 238.825 234.679,264.063 193.891,264.063 190.129 C 264.063 189.646,267.124 182.704,270.867 174.703 C 286.040 142.264,289.221 130.582,285.383 121.396 C 281.577 112.287,269.512 108.348,259.375 112.905 M260.446 143.048 C 258.460 155.287,229.526 212.873,220.573 222.405 C 208.106 235.679,184.849 235.170,174.341 221.392 C 162.208 205.486,167.943 184.554,187.500 173.362 C 190.508 171.641,195.430 168.733,198.438 166.901 C 209.598 160.103,255.571 137.605,258.408 137.553 C 260.907 137.508,261.212 138.329,260.446 143.048 M191.648 195.045 C 188.044 199.028,188.424 205.533,192.482 209.314 C 198.543 214.961,206.250 211.145,206.250 202.497 C 206.250 193.542,197.192 188.919,191.648 195.045 M145.454 267.328 C 137.040 270.692,134.901 280.356,141.181 286.635 C 147.843 293.298,234.557 294.961,244.246 288.612 C 252.343 283.307,251.744 272.238,243.140 268.155 C 236.985 265.234,152.480 264.519,145.454 267.328 " stroke="none" fill="#000000" fill-rule="evenodd"></path></g></svg>