<svg xmlns="http://www.w3.org/2000/svg" width="192" height="192" fill="none" viewBox="0 0 192 192"><path stroke="#000" stroke-linecap="round" stroke-linejoin="round" stroke-width="12" d="m109.655 45.25 51.447 9.642a6 6 0 0 1 4.79 7.024l-19.755 103.21a6 6 0 0 1-7.002 4.77l-68.237-12.788a6 6 0 0 1-4.79-7.024l.53-2.769M109.655 45.25l-3.518-18.377a6 6 0 0 0-7.002-4.77l-68.237 12.79a6 6 0 0 0-4.79 7.024l19.755 103.21a6 6 0 0 0 7.002 4.77l13.773-2.581M109.655 45.25l16.237 84.834a6 6 0 0 1-4.79 7.024l-54.464 10.207"/></svg>