<?xml version="1.0" encoding="UTF-8" standalone="no"?>
<svg
   width="100%"
   height="100%"
   viewBox="0 0 192 192"
   version="1.1"
   xml:space="preserve"
   style="fill-rule:evenodd;clip-rule:evenodd;stroke-linejoin:round;stroke-miterlimit:2;"
   id="svg4403"
   sodipodi:docname="swisstopo.svg"
   inkscape:version="1.2.1 (9c6d41e410, 2022-07-14)"
   xmlns:inkscape="http://www.inkscape.org/namespaces/inkscape"
   xmlns:sodipodi="http://sodipodi.sourceforge.net/DTD/sodipodi-0.dtd"
   xmlns="http://www.w3.org/2000/svg"
   xmlns:svg="http://www.w3.org/2000/svg"><defs
   id="defs4407" /><sodipodi:namedview
   id="namedview4405"
   pagecolor="#ffffff"
   bordercolor="#000000"
   borderopacity="0.25"
   inkscape:showpageshadow="2"
   inkscape:pageopacity="0.0"
   inkscape:pagecheckerboard="0"
   inkscape:deskcolor="#d1d1d1"
   showgrid="false"
   inkscape:zoom="5.3489583"
   inkscape:cx="96.093476"
   inkscape:cy="95.906524"
   inkscape:window-width="1274"
   inkscape:window-height="1303"
   inkscape:window-x="1282"
   inkscape:window-y="36"
   inkscape:window-maximized="0"
   inkscape:current-layer="svg4403" />
    <path
   d="M737.475,787.568C742.509,792.986 748.702,797.434 755.011,797.434C759.367,797.434 763.453,795.573 766.73,791.191C768.713,788.539 768.17,784.776 765.517,782.793C762.865,780.81 759.102,781.353 757.119,784.005C756.491,784.846 755.847,785.434 755.011,785.434C753.742,785.434 752.568,784.795 751.407,784.02C749.575,782.796 747.864,781.12 746.266,779.4C744.012,776.974 740.213,776.834 737.787,779.088C735.361,781.342 735.221,785.142 737.475,787.568ZM772.931,771.065C773.179,768.296 773.311,765.247 773.311,761.907C773.311,756.418 773.464,751.673 774.144,747.565C774.685,744.298 772.472,741.206 769.205,740.665C765.938,740.124 762.847,742.337 762.306,745.604C761.532,750.274 761.311,755.666 761.311,761.907C761.311,764.856 761.198,767.549 760.978,769.995C760.683,773.293 763.121,776.21 766.419,776.506C769.718,776.801 772.635,774.363 772.931,771.065ZM716.144,771.817C718.374,767.225 718.468,759.24 718.372,755.474C719.11,754.294 720.3,752.511 721.741,750.791C723.868,748.253 723.535,744.466 720.997,742.338C718.459,740.211 714.671,740.545 712.544,743.083C709.319,746.931 707.057,751.029 707.057,751.029C706.478,752.077 706.225,753.275 706.332,754.468C706.332,754.468 707.308,762.542 705.349,766.576C703.903,769.555 705.147,773.148 708.126,774.594C711.105,776.041 714.698,774.796 716.144,771.817ZM727.206,748.516C729.56,751.398 729.559,755.572 729.313,758.089C729.075,760.519 728.392,764.084 728.304,767.751C728.225,771.062 730.849,773.814 734.159,773.893C737.47,773.972 740.222,771.348 740.301,768.038C740.38,764.704 741.039,761.467 741.256,759.258C741.732,754.395 741.048,746.493 736.5,740.924C734.405,738.36 730.622,737.979 728.057,740.073C725.493,742.168 725.112,745.951 727.206,748.516ZM684.089,758.736C684.089,758.736 687.608,764.093 692.026,768.946C694.255,771.394 698.053,771.572 700.502,769.343C702.95,767.114 703.128,763.316 700.899,760.867C697.125,756.722 694.117,752.146 694.117,752.146C692.299,749.379 688.576,748.608 685.808,750.427C683.041,752.245 682.27,755.968 684.089,758.736ZM780.197,735.612C782.911,733.359 786.611,731.627 791.542,730.154C794.714,729.205 796.52,725.86 795.572,722.687C794.624,719.514 791.278,717.708 788.105,718.656C781.298,720.691 776.28,723.268 772.532,726.379C769.984,728.494 769.633,732.28 771.748,734.828C773.863,737.376 777.649,737.728 780.197,735.612ZM737.391,710.477L747.681,731.817C748.681,733.892 750.781,735.211 753.085,735.211C755.389,735.211 757.489,733.892 758.49,731.817L768.779,710.477C770.263,707.862 771.115,704.831 771.115,701.602C771.115,691.651 763.036,683.572 753.085,683.572C743.134,683.572 735.055,691.651 735.055,701.602C735.055,704.828 735.905,707.856 737.391,710.477ZM710.523,707.203L704.243,700.923C701.901,698.581 698.099,698.581 695.757,700.923C693.416,703.264 693.416,707.066 695.757,709.408L702.037,715.688L695.757,721.968C693.416,724.31 693.416,728.112 695.757,730.453C698.099,732.795 701.901,732.795 704.243,730.453L710.523,724.173L716.803,730.453C719.144,732.795 722.946,732.795 725.288,730.453C727.63,728.112 727.63,724.31 725.288,721.968L719.008,715.688L725.288,709.408C727.63,707.066 727.63,703.264 725.288,700.923C722.946,698.581 719.144,698.581 716.803,700.923L710.523,707.203ZM748.105,705.068C748.034,704.922 747.958,704.779 747.876,704.639C747.353,703.748 747.055,702.709 747.055,701.602C747.055,698.274 749.757,695.572 753.085,695.572C756.413,695.572 759.115,698.274 759.115,701.602C759.115,702.709 758.817,703.748 758.294,704.639C758.212,704.779 758.136,704.922 758.065,705.068L753.085,715.397C753.085,715.397 748.105,705.068 748.105,705.068ZM737.391,710.477L737.394,710.484L737.391,710.477ZM677.144,652C670.136,652 663.127,653.18 656.12,655.493C653.661,656.304 652,658.601 652,661.191C652,678.349 652.58,696.173 674.725,705.926C676.266,706.604 678.021,706.604 679.562,705.926C701.707,696.173 702.287,678.349 702.287,661.191C702.287,658.601 700.626,656.304 698.167,655.493C691.16,653.18 684.151,652 677.144,652ZM677.144,664C681.527,664 685.91,664.574 690.293,665.687C690.251,676.377 689.328,687.21 677.144,693.766C664.959,687.211 664.037,676.377 663.994,665.687C668.378,664.574 672.76,664 677.144,664Z"
   id="path4397"
   style="fill-rule:evenodd;clip-rule:evenodd;stroke-linejoin:round;stroke-miterlimit:2"
   transform="translate(-636,-636)"
   inkscape:label="swisstopo" />
</svg>
