<svg xmlns="http://www.w3.org/2000/svg" width="192" height="192" fill="none" stroke="#000" stroke-linecap="round" stroke-linejoin="round" stroke-width="12" viewBox="0 0 192 192"><path d="M117 24.942c-16-5.002-35.836-3.426-50.862 3.21A74.03 74.03 0 0 0 30.906 60.7a74.16 74.16 0 0 0-7.912 47.337C25.676 124.258 33.95 138.829 46 150m29 17.058c16 5.002 35.836 3.426 50.862-3.209a74.04 74.04 0 0 0 35.232-32.549 74.16 74.16 0 0 0 7.912-47.337C166.324 67.742 158.05 53.17 146 42"/><path d="m46 150 22-27c-32-25-22-98 49-98m29 17-22 27c32 25 22 98-49 98"/></svg>