<svg xmlns="http://www.w3.org/2000/svg" width="192" height="192" fill="none" stroke="#000" stroke-linejoin="round" stroke-width="12" viewBox="0 0 192 192"><path d="M85.3 23c-.3 48.6-.5 97.2-.8 145.7L56 169c-2.8-.1-13.8-.8-23.1-9.6C21.9 148.9 22 135.2 22 133c.3-25.2.5-50.3.8-75.5 0-2.4 0-14 9-23.7C42 23 55.4 23.1 57.5 23.1c9.2 0 18.5-.1 27.8-.1zm49.2.1c2.1 0 15.5-.1 25.6 10.7 9 9.7 9.1 21.2 9 23.7.3 25.2.5 50.3.8 75.5 0 2.3.1 15.9-10.9 26.4-9.2 8.8-20.2 9.5-23.1 9.6l-28.5-.3c-.3-48.6-.5-97.2-.8-145.7 9.4 0 18.7.1 27.9.1z"/><circle cx="55.3" cy="65.7" r="9.4"/><circle cx="138.4" cy="105.1" r="9.4"/></svg>