<svg xmlns="http://www.w3.org/2000/svg" xml:space="preserve" id="图层_1" x="0" y="0" style="enable-background:new 0 0 192 192" version="1.1" viewBox="0 0 192 192"><style>.st0{fill:none;stroke:#000;stroke-width:12;stroke-linecap:round;stroke-linejoin:round;stroke-miterlimit:10}</style><path d="M84.6 23.4c-.3 48.4-.5 96.8-.8 145.2-12.3-.1-24.5-.3-36.8-.4-2.6-.5-10.3-2.3-16.8-9.3-6.3-6.8-7.6-14.5-8-17.1l-.3-92.2c1.3-3.6 3.9-9.6 9.5-15.4 6.6-6.8 13.9-9.7 17.6-11 11.9.2 23.8.2 35.6.2zM107.4 23.4c.3 48.4.5 96.8.8 145.2 12.3-.1 24.5-.3 36.8-.4 2.6-.5 10.3-2.3 16.8-9.3 6.3-6.8 7.6-14.5 8-17.1l.3-92.2c-1.3-3.6-3.9-9.6-9.5-15.4-6.6-6.8-13.9-9.7-17.6-11-11.9.2-23.8.2-35.6.2z" class="st0"/><circle cx="54.7" cy="65.9" r="9.4" class="st0"/><circle cx="137.5" cy="105.2" r="9.4" class="st0"/></svg>