<?xml version="1.0" encoding="UTF-8" standalone="no"?>
<svg
   width="192"
   height="192"
   viewBox="0 0 50.799999 50.8"
   version="1.1"
   id="svg1"
   xml:space="preserve"
   xmlns="http://www.w3.org/2000/svg"
   xmlns:svg="http://www.w3.org/2000/svg"><defs
     id="defs1" /><g
     id="layer1"
     transform="matrix(1.0000035,0,0,1.0000035,0.09703616,-8.6900923e-5)"
     style="stroke-width:0.999997"><path
       style="fill:none;stroke:#000000;stroke-width:3.17499;stroke-linecap:round;stroke-linejoin:round;stroke-miterlimit:32;stroke-dasharray:none"
       d="M 25.594246,5.8208162 C 19.572638,8.8404897 13.55103,10.788667 7.5294213,12.249799 l 9.11e-5,19.481768 C 11.835984,38.690686 17.953884,42.998524 25.594204,44.979171 33.979131,43.030993 39.547491,38.45274 43.076283,31.73153 l 4.9e-5,-19.481851 C 36.860478,11.243121 31.712976,8.6781427 25.594246,5.8208162 Z"
       id="path1" /><path
       id="path2"
       style="fill:none;stroke:#000000;stroke-width:3.17499;stroke-linecap:round;stroke-linejoin:round;stroke-miterlimit:32"
       d="m 30.256134,19.226648 c 0,2.555378 -2.0872,4.62692 -4.66189,4.62692 -2.574691,1e-6 -4.661891,-2.071542 -4.661891,-4.62692 0,-2.555377 2.0872,-4.62692 4.661891,-4.62692 2.574691,10e-7 4.66189,2.071544 4.66189,4.62692 z" /><path
       style="fill:none;stroke:#000000;stroke-width:3.17499;stroke-linecap:round;stroke-linejoin:round;stroke-miterlimit:32;stroke-dasharray:none"
       d="m 16.093969,32.110039 c 1.100725,-4.610684 2.5719,-8.02918 9.499986,-8.256467 6.312976,0.259756 8.140848,3.905828 9.112075,8.256756"
       id="path3" /></g></svg>
