<svg width="191" height="192" fill="none" xmlns="http://www.w3.org/2000/svg"><path d="M103.458 140v30m-67.645-30v30m93.51-30v30m-67.646-30v30m93.511-30v30M21.886 140h147.229M61.677 64V28a6 6 0 0 0-6-6h-9.885a6 6 0 0 0-6 6v30a6 6 0 0 0 6 6h15.885Zm0 0h15.886a6 6 0 0 1 6 6v42a6 6 0 0 1-6 6h-9.886a6 6 0 0 1-6-6V64Zm67.646 0V28a6 6 0 0 0-6-6h-9.886a6 6 0 0 0-5.999 6v36m21.885 0h-21.885m21.885 0v27m-21.885-27v21a6 6 0 0 0 5.999 6h15.886m0 0h15.885a6 6 0 0 1 6 6v15a6 6 0 0 1-6 6h-9.885a6 6 0 0 1-6-6V91Z" stroke="#000" stroke-width="12" stroke-linecap="round" stroke-linejoin="round"/></svg>