<svg xmlns="http://www.w3.org/2000/svg" width="192" height="192" fill="none"><path stroke="#000" stroke-linecap="round" stroke-linejoin="round" stroke-width="12" d="M65 75.51v30.981a6 6 0 0 0 3.058 5.229l26 14.625a6 6 0 0 0 5.884 0l26-14.625a6 6 0 0 0 3.058-5.229V75.509a6 6 0 0 0-3.058-5.23l-26-14.624a6 6 0 0 0-5.884 0l-26 14.625A6 6 0 0 0 65 75.51m-30 49.957v38.45c0 3.752 3.373 6.608 7.085 6.001l37.994-6.211c5.662-.925 7.025-8.428 2.048-11.276zm0 0V56.545m124 13.203v52.197a6.08 6.08 0 0 1-3.063 5.274L112.5 152.072m31-104.396-43.465-24.87a6.11 6.11 0 0 0-6.07 0L58.263 43.235"/></svg>