<svg xmlns="http://www.w3.org/2000/svg" width="192" height="192" fill="none" viewBox="0 0 192 192">
  <path stroke="#000" stroke-linecap="round" stroke-linejoin="round" stroke-width="12" d="M23.495 52.933c-3.858 14.102-.248 29.82 10.83 40.897 11.665 11.667 28.478 15.05 43.13 10.151l64.282 64.258a6 6 0 0 0 8.485-.001l18.016-18.016a6 6 0 0 0 .001-8.485l-64.258-64.283c4.899-14.651 1.516-31.464-10.15-43.13-11.078-11.077-26.796-14.687-40.898-10.829-2.083.57-2.63 3.15-1.102 4.677l19.833 19.833a6 6 0 0 1 0 8.485L56.49 71.664a6 6 0 0 1-8.485 0L28.172 51.831c-1.527-1.527-4.107-.98-4.677 1.102Z"/>
</svg>
