<svg xmlns="http://www.w3.org/2000/svg" width="192" height="192" fill="none"><path stroke="#000" stroke-linecap="round" stroke-linejoin="round" stroke-width="12" d="M45 86h84l-10.316 78.779a6 6 0 0 1-5.95 5.221H61.266a6 6 0 0 1-5.95-5.221z"/><path stroke="#000" stroke-linecap="round" stroke-linejoin="round" stroke-width="10" d="m102.25 107-5.5 42m-25-42 5.5 42"/><path stroke="#000" stroke-linecap="round" stroke-linejoin="round" stroke-width="12" d="M22 34s17.5-12 32-12c25.5 0 34 40 34 40m-17-8 17 8m0 0 7-19m27-15 24 38m24 38-24-38m0 0 10.5-7"/></svg>