<svg xmlns="http://www.w3.org/2000/svg" width="192" height="192" viewBox="0 0 192 192"><path fill="none" stroke="#000" stroke-linejoin="round" stroke-width="12" d="M168 145 87.38 64.33a6.73 6.73 0 0 1-2-4.63Q84.79 22.38 50.62 22c-3 0-8.54 7.65-6.4 9.78L56 43.53a3.39 3.39 0 0 1 0 4.79L48.32 56a3.39 3.39 0 0 1-4.79 0L31.78 44.22C29.65 42.08 22 47.6 22 50.62q.38 34.16 37.7 34.78a6.73 6.73 0 0 1 4.63 2L145 168a6.77 6.77 0 0 0 9.57 0L168 154.54a6.77 6.77 0 0 0 0-9.54zM35.44 168.37l-11.81-11.81a5.45 5.45 0 0 1-.06-7.72l32.91-32.9a5.45 5.45 0 0 1 7.72 0L76 127.8a5.45 5.45 0 0 1 0 7.72l-32.9 32.91a5.45 5.45 0 0 1-7.66-.06zm94.36-91.6 11.06-11.07a6 6 0 0 1 3.34-1.7l11.8-1.75a3 3 0 0 0 2.25-1.68l11.45-24.25a3 3 0 0 0-.58-3.39l-10.05-10.06a3 3 0 0 0-3.39-.58l-24.25 11.45a3 3 0 0 0-1.68 2.26L128 47.8a6 6 0 0 1-1.68 3.34L115.23 62.2a3 3 0 0 0 0 4.22l10.35 10.35a3 3 0 0 0 4.22 0z"/></svg>