<svg width="192" height="192" viewBox="0 0 192 192" fill="none" xmlns="http://www.w3.org/2000/svg"><path d="M108 142c0-3.183-1.264-6.235-3.515-8.485a11.996 11.996 0 0 0-16.97 0A11.998 11.998 0 0 0 84 142m-24 24V82l36-36M48 94l48-48m48 48L96 46m36 36v84" stroke="#000" stroke-width="12" stroke-linecap="round" stroke-linejoin="round"/><path d="M60 82H28a6 6 0 0 0-6 6v72a6 6 0 0 0 6 6h50a6 6 0 0 0 6-6v-18m48-60h32a6 6 0 0 1 6 6v72a6 6 0 0 1-6 6h-50a6 6 0 0 1-6-6v-18" stroke="#000" stroke-width="12" stroke-linecap="round" stroke-linejoin="round"/><path d="M96 86v12" stroke="#000" stroke-width="10" stroke-linecap="round" stroke-linejoin="round"/><path d="M96 23v23m0-23c14 0 10.5 6 24 6" stroke="#000" stroke-width="12" stroke-linecap="round" stroke-linejoin="round"/><path d="M108 98H96" stroke="#000" stroke-width="10" stroke-linecap="round" stroke-linejoin="round"/></svg>