<?xml version="1.0" encoding="utf-8"?>
	<svg version="1.1" xmlns="http://www.w3.org/2000/svg" xmlns:xlink="http://www.w3.org/1999/xlink" x="0px" y="0px" width="240.0" height="240.0" xml:space="preserve">
		<path d="M119.98,20C66.046,19.96 20.436,64.535 20.003,117.707C19.544,174.194 63.95,219.8 119.604,219.999C174.064,220.196 219.185,175.321 219.636,120.507C220.084,66.158 174.358,20.04 119.98,20ZM168.08,193.759C136.223,193.759 104.626,193.759 72.298,193.759C72.07,191.185 71.847,188.66 71.636,186.292C81.116,184.708 90.159,183.771 98.897,181.604C112.541,178.216 115.309,174.107 115.315,160.119C115.318,152.318 115.059,144.509 115.355,136.721C115.579,130.842 113.053,128.855 107.389,128.174C103.038,127.65 95.743,125.787 95.293,123.454C93.934,116.401 94.768,108.748 95.935,101.52C96.207,99.838 101.146,97.943 104.012,97.819C114.483,97.364 124.984,97.595 135.475,97.606C142.718,97.615 146.462,101.095 146.238,108.527C146.141,111.753 146.119,114.985 146.195,118.21C146.365,125.392 142.593,128.214 135.749,128.452C124.751,128.834 124.747,128.988 124.729,140.025C124.715,147.826 125.104,155.65 124.631,163.422C124.127,171.691 127.837,177.173 135.165,179.537C142.746,181.983 150.712,183.297 158.571,184.776C161.382,185.303 164.376,184.861 168.08,184.861C168.08,188.411 168.08,190.789 168.08,193.759ZM157.26,166.187C155.95,167.02 154.475,167.59 152.475,168.583C149.482,163.642 146.621,158.921 143.831,154.317C170.719,131.975 177.208,114.817 168.203,91.108C160.903,71.891 139.143,58.18 117.594,59.217C95.04,60.304 76.195,74.867 69.856,96.106C63.468,117.504 72.186,137.104 96.217,153.958C93.506,158.578 90.74,163.294 87.513,168.797C66.046,156.982 52.627,139.87 50.664,115.662C47.854,81.002 66.983,54.071 100.128,43.655C102.423,42.934 104.699,41.319 106.326,39.523C108.218,37.436 109.22,32.722 110.899,32.579C117.753,31.999 124.72,32.71 131.639,33.027C131.994,33.043 132.625,33.809 132.605,34.201C132.141,43.369 139.762,43.053 145.36,45.281C171.67,55.754 187.341,74.847 189.772,103.24C192.119,130.66 180.338,151.532 157.26,166.187Z" fill="#000" stroke="" stroke-width="" stroke-miterlimit=""/>
	</svg>
