<svg xmlns="http://www.w3.org/2000/svg" width="192" height="192" fill="none"><path stroke="#000" stroke-linecap="round" stroke-linejoin="round" stroke-width="12" d="M96 67v58M36 67v58m120-58v58"/><path stroke="#000" stroke-linecap="round" stroke-linejoin="round" stroke-width="10" d="M76 66v60M56 66v60m80-60v60m-20-60v60"/><path stroke="#000" stroke-linecap="round" stroke-linejoin="round" stroke-width="12" d="M170 96H22m16-64H28a6 6 0 0 0-6 6v10m16 112H28a6 6 0 0 1-6-6v-10M154 32h10a6 6 0 0 1 6 6v10m-16 112h10a6 6 0 0 0 6-6v-10"/></svg>