<svg width="192" height="192" viewBox="0 0 192 192" fill="none" xmlns="http://www.w3.org/2000/svg">
<path d="M45.8121 167.997V105.534V28C45.8121 24.6863 48.4984 22 51.8122 22H83.9668C87.2806 22 89.9668 24.6863 89.9668 28V140.592C89.9668 141.94 89.2876 143.198 88.1599 143.937L48.9087 169.67C47.5786 170.542 45.8121 169.588 45.8121 167.997Z" stroke="black" stroke-width="12" stroke-linecap="round" stroke-linejoin="round"/>
<path d="M121.039 108.229V72.8181V30.453C121.039 27.1393 123.725 24.453 127.039 24.453H159.193C162.507 24.453 165.193 27.1393 165.193 30.453V91.6067C165.193 93.2683 164.166 94.7568 162.613 95.3464L123.748 110.099C122.44 110.595 121.039 109.628 121.039 108.229Z" stroke="black" stroke-width="12" stroke-linecap="round" stroke-linejoin="round"/>
<path d="M133.805 68H27L37.4282 93.3691C37.5846 93.7497 37.9581 93.9956 38.3695 93.9888L131.627 92.4559C134.488 92.4088 136.917 90.3491 137.431 87.535L139.707 75.0783C140.38 71.3938 137.55 68 133.805 68Z" stroke="black" stroke-width="12" stroke-linecap="round" stroke-linejoin="round"/>
<path d="M149.435 125.847C142.91 125.966 137.753 130.94 137.409 137.465C137.047 144.349 142.551 150.249 149.435 150.374C156.439 150.501 162.275 144.469 161.906 137.465C161.556 130.814 156.086 125.726 149.435 125.847Z" stroke="black" stroke-width="12" stroke-linecap="round" stroke-linejoin="round"/>
</svg>
