<svg xmlns="http://www.w3.org/2000/svg" width="192" height="192" fill="none" stroke="#000" stroke-linecap="round" stroke-width="12" viewBox="0 0 192 192"><path d="M81 60h50.15a6 6 0 0 1 6 6v10a6 6 0 0 1-6 6H81m-40 0h-8.648a6 6 0 0 1-5.638-3.95l-3.637-10c-1.423-3.913 1.475-8.05 5.64-8.05H41m37.052 92.608-28 16.544c-4 2.363-9.052-.52-9.052-5.166V27.994A5.997 5.997 0 0 1 47 22h28a6 5.994 0 0 1 6 5.994v119.448a6 6 0 0 1-2.948 5.166Z"/><path d="M117 82v20.986c0 4.646 5.053 7.529 9.052 5.166l28-16.544A6 6 0 0 0 157 86.442V27.994A5.997 5.997 0 0 0 151 22h-28a6 5.994 0 0 0-6 5.994V60"/><circle cx="137" cy="150" r="20"/></svg>