<svg width="192" height="192" viewBox="0 0 192 192" fill="none" xmlns="http://www.w3.org/2000/svg"><path d="M81 60h50.15a6 6 0 0 1 6 6v10a6 6 0 0 1-6 6H81m-40 0h-8.647a6 6 0 0 1-5.639-3.95l-3.636-10C21.655 64.138 24.553 60 28.717 60H41" stroke="#000" stroke-width="12" stroke-linecap="round" stroke-linejoin="round"/><path d="m78.293 152.643-24 15.756c-3.99 2.62-9.293-.243-9.293-5.015V27.994A5.997 5.997 0 0 1 51 22h24c3.314 0 6 2.684 6 5.994v119.633a6 6 0 0 1-2.707 5.016ZM121 82v24.384c0 4.773 5.303 7.635 9.293 5.015l24-15.756A6.001 6.001 0 0 0 157 90.627V27.994A5.997 5.997 0 0 0 151 22h-24c-3.314 0-6 2.684-6 5.994V60" stroke="#000" stroke-width="12" stroke-linecap="round" stroke-linejoin="round"/><circle cx="139" cy="152" r="18" stroke="#000" stroke-width="12" stroke-linecap="round" stroke-linejoin="round"/></svg>