<svg xmlns="http://www.w3.org/2000/svg" width="192" height="192" fill="none" stroke="#000" stroke-width="8" viewBox="0 0 192 192"><path stroke-width="10" d="M27 85h74a6 6 0 0 1 6 6v74a6 6 0 0 1-6 6H27a6 6 0 0 1-6-6V91a6 6 0 0 1 6-6Zm58-58v30a6 6 0 0 0 6 6h32a6 6 0 0 1 6 6v32a6 6 0 0 0 6 6h30a6 6 0 0 0 6-6V27a6 6 0 0 0-6-6H91a6 6 0 0 0-6 6Z"/><circle cx="64" cy="128" r="4"/><circle cx="150" cy="42" r="4"/><circle cx="150" cy="86" r="4"/><circle cx="106" cy="42" r="4"/><circle cx="84" cy="148" r="4"/><circle cx="44" cy="108" r="4"/></svg>