<svg width="192" height="192" viewBox="0 0 192 192" fill="none" xmlns="http://www.w3.org/2000/svg">
<path d="M88.4287 75C91.1699 74.9744 95.2922 76.084 101.065 80.3438L107.555 86.0137L113.654 92.3164C118.141 97.849 118.395 101.747 117.873 104.145C117.291 106.819 115.473 108.873 113.991 110.006L113.902 110.07C113.359 110.448 112.498 110.815 110.607 111.637C108.951 112.356 106.76 113.337 104.66 114.818C102.503 116.339 100.394 118.414 98.8428 121.354C97.393 124.103 96.5561 127.369 96.4248 131.237L96.4092 131.947L96.3887 132.82C95.8678 150.262 88.2391 158.851 79.3936 161.6C70.0919 164.489 57.5896 161.549 46.5186 151.962C35.3108 142.256 28.8708 128.066 30.165 116.906C30.7903 111.515 33.1961 106.789 37.8643 103.253C42.6285 99.6443 50.1726 96.9644 61.5449 96.6709V96.6699C61.5649 96.6695 61.5861 96.6697 61.6084 96.6689C65.7185 96.6203 69.123 95.584 71.8945 93.6729C74.6418 91.7784 76.3872 89.2861 77.6133 86.999C78.7653 84.85 79.7031 82.3542 80.3564 80.8252C81.1409 78.9894 81.6574 78.1555 82.0713 77.751C83.7408 76.1196 85.7736 75.0249 88.4287 75Z" stroke="black" stroke-width="10"/>
<circle cx="87" cy="107" r="4" fill="#D9D9D9" fill-opacity="0.85" stroke="black" stroke-width="8"/>
<path d="M139 44.1035L150.289 55.1854" stroke="black" stroke-width="6" stroke-linecap="round"/>
<path d="M131 52.1035L142.289 63.1854" stroke="black" stroke-width="6" stroke-linecap="round"/>
<path d="M153.243 49.2426C155.586 46.8995 155.586 43.1005 153.243 40.7574C150.899 38.4142 147.101 38.4142 144.757 40.7574L149 45L153.243 49.2426ZM109 85L113.243 89.2426L153.243 49.2426L149 45L144.757 40.7574L104.757 80.7574L109 85Z" fill="black"/>
<path d="M51.5 124.5L67.5 140.5" stroke="black" stroke-width="12" stroke-linecap="round"/>
</svg>
