<svg xmlns="http://www.w3.org/2000/svg" width="192" height="192" fill="none" stroke="#000" stroke-linejoin="round" stroke-width="12" viewBox="0 0 192 192"><path d="m94.07 22.3-10.7.18.46 5.73c.24 3.1.47 7 .47 8.6v2.92h-48l.17 10.47.18 10.47 3.92-.41c8.89-.82 59.37-1 85.51-.41 15 .41 27.61.82 28.08.94.76.23.88-1.17.88-10.41V39.73l-22.4.23c-12.29.12-23.29 0-24.45-.17l-2-.41.17-8.77c.18-7.49.06-8.72-.7-8.6-.48.06-5.66.23-11.59.29zM60.9 78.48c-7.48 2.93-9.35 3.92-9.24 4.74a85 85 0 0 0 2.75 8.19 265 265 0 0 1 9.71 33.81c1 4.79 2 8.83 2 8.95s4.85-1.47 10.64-3.51L87.28 127l-.7-3.51c-2-9.82-14.5-48.5-15.61-48.39a90 90 0 0 0-10.07 3.38z"/><path d="M115.65 94.84c-6.08 24.39-13.39 48.66-15.85 52.7l-1.11 1.81-10.12.18c-11.7.17-53.4-.53-55.16-.94-1.11-.29-1.17 0-1.17 10.53V170l2.93-.35c1.64-.18 30.3-.53 63.75-.7l60.84-.41V148l-5 .41c-2.75.17-11.41.41-19.25.41-11.17.06-14.15-.12-13.92-.7.18-.36 1.29-2.93 2.46-5.68 3.8-8.89 17.31-62 16.61-62.69-.24-.23-15.92-4.21-18.2-4.74-1.14-.28-4.53 10.64-6.81 19.83z"/></svg>