<svg xmlns="http://www.w3.org/2000/svg" width="192" height="192" fill="none"><path stroke="#000" stroke-linecap="round" stroke-linejoin="round" stroke-width="12" d="M130.015 65.237v-8.454c0-4.07-2.012-7.872-5.363-10.137L91.24 24.065a12.01 12.01 0 0 0-13.465 0L44.363 46.646A12.23 12.23 0 0 0 39 56.783v101.015C39 164.537 44.416 170 51.096 170h66.823c6.68 0 12.096-5.463 12.096-12.202v-2.764m2.047-28.291a25.57 25.57 0 0 0 6.091-18.456c-.966-14.009-12.952-24.571-26.771-23.592-13.818.98-24.237 13.13-23.271 27.14s12.952 24.571 26.771 23.592c6.909-.49 12.968-3.773 17.18-8.684m0 0L165 155.77"/></svg>