<?xml version="1.0" encoding="utf-8"?>
	<svg version="1.1" xmlns="http://www.w3.org/2000/svg" xmlns:xlink="http://www.w3.org/1999/xlink" x="0px" y="0px" width="240.0" height="240.0" xml:space="preserve">
		<path d="M212.568,79.208L212.568,57.131L132.787,57.131C129.727,45.328 126.885,34.617 123.825,25L97.158,29.372C100.874,38.115 104.153,47.295 107.213,57.131L27.432,57.131L27.432,79.208L212.568,79.208ZM80.546,190.683L105.246,184.563C97.814,148.279 89.508,115.929 79.891,87.732L55.847,95.82C65.902,126.202 73.989,157.896 80.546,190.683ZM220,215.601L220,193.525L153.552,193.525C165.792,164.672 176.066,131.667 184.372,94.727L160.109,88.169C150.492,130.137 139.563,165.109 127.104,193.525L20,193.525L20,215.601L220,215.601Z" fill="#000" stroke="#00000000" stroke-width="1.0" stroke-miterlimit=""/>
	</svg>
