<svg width="192" height="192" viewBox="0 0 192 192" fill="none" xmlns="http://www.w3.org/2000/svg"><path d="M112 38a16.001 16.001 0 0 0-27.314-11.314A16 16 0 0 0 80 38m-26 68a16 16 0 0 0-32 0m148-30a16.001 16.001 0 0 0-27.314-11.314A16.01 16.01 0 0 0 138 76m-58 78a16.001 16.001 0 0 0 27.314 11.314A16.016 16.016 0 0 0 112 154m-90 0a16.001 16.001 0 0 0 27.314 11.314A16.007 16.007 0 0 0 54 154m84 0a16.002 16.002 0 0 0 27.314 11.314A16.016 16.016 0 0 0 170 154M80 38v116m-58-48v48m116-78v78M112 38v116m-58-48v48m116-78v78" stroke="#000" stroke-width="12" stroke-linecap="round" stroke-linejoin="round"/></svg>