<svg width="192" height="192" viewBox="0 0 192 192" fill="none" xmlns="http://www.w3.org/2000/svg"><path d="M81 22h22a6 6 0 0 1 6 6v9a6 6 0 0 0 6 6h27a6 6 0 0 1 6 6v38a6 6 0 0 1-6 6h-27a6 6 0 0 0-6 6v11c0 38 39 15 39 15v38s-26 7-42 7c0 0-43 0-43-50V98a6 6 0 0 0-6-6H46a6 6 0 0 1-6-6V69l41-47Z" stroke="#000" stroke-width="12" stroke-linecap="round" stroke-linejoin="round"/><circle cx="86" cy="68" r="4" stroke="#000" stroke-width="8" stroke-linecap="round" stroke-linejoin="round"/><circle cx="116" cy="68" r="4" stroke="#000" stroke-width="8" stroke-linecap="round" stroke-linejoin="round"/></svg>