<svg width="192" height="192" viewBox="0 0 192 192" fill="none" xmlns="http://www.w3.org/2000/svg"><path d="M96 22v96M51 22h90m-18.5 49a53.051 53.051 0 0 1 22.466 25.652 53.141 53.141 0 0 1 2.228 34.045m-10.005 19.663a53.258 53.258 0 0 1-2.176 2.524m-16.614 12.176c-1.006.47-2.027.908-3.061 1.313M94.15 170a52.69 52.69 0 0 1-3.322-.221M69.5 162.922a53.033 53.033 0 0 1-19.4-19.425 53.127 53.127 0 0 1 0-53.072A53.036 53.036 0 0 1 69.5 71" stroke="#000" stroke-width="12" stroke-linecap="round" stroke-linejoin="round"/></svg>