<svg xmlns="http://www.w3.org/2000/svg" xml:space="preserve" width="192" height="192"><g style="fill:none;stroke:#000;stroke-width:12.0769;stroke-linecap:round;stroke-linejoin:round;stroke-dasharray:none;stroke-opacity:1"><path d="M45.258 67.838V33.976a2 2 135 0 1 2-2H77.15a6.66 6.66 163.276 0 0 3.669-1.102l13.245-8.75a3.06 3.06 179.718 0 1 3.348-.016l13.584 8.782a6.8 6.8 16.442 0 0 3.68 1.086h30.066a2 2 45 0 1 2 2v31.332a4 4 116.605 0 1-1.602 3.198l-49.407 36.946" style="fill:none;stroke:#000;stroke-width:12.0769;stroke-linecap:round;stroke-linejoin:round;stroke-dasharray:none;stroke-opacity:1" transform="translate(.611 .514)scale(.99363)"/><path d="m46.894 97.815 47.204 33.25a2.81 2.81 179.742 0 0 3.26-.016l47.759-34.286a1.026 1.026 27.163 0 1 1.625.833v33.678a4.02 4.02 116.455 0 1-1.596 3.207l-47.05 35.571a2.635 2.635.108 0 1-3.187-.006l-48.06-36.62a4.04 4.04 63.653 0 1-1.59-3.213v-31.55a1.038 1.038 152.58 0 1 1.635-.848" style="fill:none;stroke:#000;stroke-width:12.0769;stroke-linecap:round;stroke-linejoin:round;stroke-dasharray:none;stroke-opacity:1" transform="translate(.611 .514)scale(.99363)"/></g></svg>