<svg xmlns="http://www.w3.org/2000/svg" width="192" height="192" fill="none" viewBox="0 0 192 192"><path stroke="#000" stroke-linecap="round" stroke-linejoin="round" stroke-width="12" d="M46 67.92V40.29c0-4.418 3.552-7.999 7.934-7.999h23.492c1.285 0 2.542-.38 3.615-1.095l13.051-8.693a3 3 0 0 1 3.3-.016l13.385 8.725a6.66 6.66 0 0 0 3.626 1.08h25.647c3.286 0 5.95 2.685 5.95 5.998v27.116a4 4 0 0 1-.417 1.777 4 4 0 0 1-1.162 1.4L95.737 105.29m-48.125-7.586 46.514 33.034a2.75 2.75 0 0 0 3.212-.016L144.4 96.658a1.005 1.005 0 0 1 1.453.296c.097.16.148.344.148.532v33.458a4 4 0 0 1-.415 1.78 4 4 0 0 1-1.158 1.407L98.065 169.47a2.58 2.58 0 0 1-3.14-.006l-47.357-36.382a4 4 0 0 1-1.154-1.411A4.04 4.04 0 0 1 46 129.89V98.546a1.04 1.04 0 0 1 .552-.915 1.02 1.02 0 0 1 1.06.072Z"/></svg>