<?xml version="1.0" encoding="UTF-8" standalone="no"?>
<!-- Created with Inkscape (http://www.inkscape.org/) -->

<svg
   width="192"
   height="192"
   viewBox="0 0 50.800001 50.800001"
   version="1.1"
   id="svg1"
   xml:space="preserve"
   xmlns="http://www.w3.org/2000/svg"
   xmlns:svg="http://www.w3.org/2000/svg"><defs
     id="defs1"><style
       id="style11711">.cls-1{fill:#0071ce;}</style><style
       id="style11711-3">.cls-1{fill:#0071ce;}</style></defs><g
     id="layer1"><g
       id="g91"
       transform="matrix(0.86271514,0,0,0.86731584,262.46154,-55.334)"
       style="stroke-width:3.67047;stroke-dasharray:none"><g
         id="g90"
         transform="translate(64.558368)"
         style="stroke-width:3.67047;stroke-dasharray:none"><path
           style="opacity:1;fill:none;stroke:#000000;stroke-width:3.67047;stroke-linecap:round;stroke-linejoin:round;stroke-dasharray:none;stroke-opacity:1"
           d="m -354.06532,91.948483 v 12.031647 a 2.0076984,2.0076984 63.522895 0 0 0.79815,1.60245 l 12.99662,9.80995 a 1.3395964,1.3395964 0.30469097 0 0 1.60267,0.009 l 13.31128,-9.82699 a 1.9812274,1.9812274 116.7818 0 0 0.80452,-1.59393 l 0,-12.031647 a 0.50798695,0.50798695 26.929975 0 0 -0.80758,-0.410239 l -13.21162,9.648236 a 1.362831,1.362831 0.12993068 0 1 -1.61247,-0.004 l -13.07668,-9.640919 a 0.50513732,0.50513732 153.19996 0 0 -0.80489,0.406582 z"
           id="path79" /><path
           style="opacity:1;fill:none;stroke:#000000;stroke-width:3.67047;stroke-linecap:round;stroke-linejoin:round;stroke-dasharray:none;stroke-opacity:1"
           d="m -354.13548,83.294744 0,-9.374024 a 1,1 135 0 1 1,-1 h 8.40463 a 3.4619909,3.4619909 163.88858 0 0 1.84598,-0.533214 l 2.58987,-1.632369 a 1.5990949,1.5990949 179.79711 0 1 1.69572,-0.006 l 2.65034,1.644379 a 3.5085437,3.5085437 15.908534 0 0 1.84974,0.527209 h 8.47696 a 1,1 45 0 1 1,1 v 8.9306 a 1.9951964,1.9951964 116.6202 0 1 -0.80115,1.598459 l -14.02563,10.477091"
           id="path89" /></g></g></g><style
     type="text/css"
     id="style11642">
	.st0{fill:#00C48C;}
	.st1{fill:#4F008C;}
</style><style
     type="text/css"
     id="style13782">
	.st0{fill:#8B7D6E;}
	.st1{fill:#004A6E;}
	.st2{fill:url(#SVGID_1_);}
	.st3{fill:url(#SVGID_00000101805771245684949860000012276154375448322482_);}
	.st4{fill:#004F71;}
	.st5{fill:#76777A;}
</style><style
     type="text/css"
     id="style14023">
	.st0{fill:#84B740;}
	.st1{fill:#259BD6;}
	.st2{fill:#27292D;}
</style><style
     type="text/css"
     id="style11395">
	.st0{fill:#84B740;}
	.st1{fill:#259BD6;}
	.st2{fill:#27292D;}
</style><style
     type="text/css"
     id="style20314">
	.st0{fill:none;}
	.st1{fill:#014A2A;}
	.st2{fill:#FE2728;}
	.st3{fill:#70BC1F;}
	.st4{fill:#FFFFFF;}
</style><style
     type="text/css"
     id="style1">
	.st0{fill:#FF007A;}
	.st1{fill-rule:evenodd;clip-rule:evenodd;fill:#FF007A;}
</style><style
     type="text/css"
     id="style11642-9">
	.st0{fill:#00C48C;}
	.st1{fill:#4F008C;}
</style><style
     type="text/css"
     id="style13782-9">
	.st0{fill:#8B7D6E;}
	.st1{fill:#004A6E;}
	.st2{fill:url(#SVGID_1_);}
	.st3{fill:url(#SVGID_00000101805771245684949860000012276154375448322482_);}
	.st4{fill:#004F71;}
	.st5{fill:#76777A;}
</style><style
     type="text/css"
     id="style14023-5">
	.st0{fill:#84B740;}
	.st1{fill:#259BD6;}
	.st2{fill:#27292D;}
</style><style
     type="text/css"
     id="style11395-8">
	.st0{fill:#84B740;}
	.st1{fill:#259BD6;}
	.st2{fill:#27292D;}
</style></svg>
