<svg xmlns="http://www.w3.org/2000/svg" width="192" height="192" fill="none"><path stroke="#000" stroke-linecap="round" stroke-linejoin="round" stroke-width="10" d="M129 171c0-8.44-1.919-17.345-4.831-26"/><path stroke="#000" stroke-linecap="round" stroke-linejoin="round" stroke-width="10" d="M63 171c0-10.453 3.944-22.62 8.073-33.142 8.037 8.124 28.268 27.098 57.269 25.205M96 39l-4 5 4 23-27 21 9 33 4.26-7M96 39l4 5-4 23 27 21-9 42-14-19V96l-4-3"/><path stroke="#000" stroke-linecap="round" stroke-linejoin="round" stroke-width="10" d="m61 69 10-7s-5-41 25-41 25 41 25 41l10 7m-81 9 11-9m-26-5s6-3 12-8m-26-6s7-2 16-10"/><path stroke="#000" stroke-linecap="round" stroke-linejoin="round" stroke-width="10" d="M21 29c22 8 19 19 40 40m81 9-11-9c21-21 18-32 40-40m-14 35s-6-3-12-8m26-6s-7-2-16-10"/></svg>