<svg xmlns="http://www.w3.org/2000/svg" width="192" height="192" fill="none"><path stroke="#000" stroke-linecap="round" stroke-linejoin="round" stroke-width="10" d="m127.164 52.527 11.314 11.314m-19.092-33.234 12.728 12.727m-12.728-12.727 3.535-3.536m-3.535 3.536-3.536 3.535m51.619 30.406L154.741 51.82m12.728 12.728 3.536-3.536m-3.536 3.536-3.535 3.535M75.06 104.631l11.314 11.314"/><path stroke="#000" stroke-linecap="round" stroke-linejoin="round" stroke-width="12" d="m45.143 139.766 7.09 7.091m-18.727 11.637c-4.255-4.255-19.855-19.855-5.673-34.038 10.41-10.41 23.496-9.74 29.72-8.647 2.244.394 4.627-.171 6.238-1.782l90.264-90.265a6.02 6.02 0 0 1 8.51 0l5.673 5.673a6.02 6.02 0 0 1 0 8.51l-90.265 90.264c-1.611 1.611-2.176 3.994-1.782 6.239 1.093 6.223 1.763 19.308-8.648 29.719-14.182 14.182-29.782-1.418-34.037-5.673"/></svg>