<?xml version="1.0" encoding="utf-8"?>
	<svg version="1.1" xmlns="http://www.w3.org/2000/svg" xmlns:xlink="http://www.w3.org/1999/xlink" x="0px" y="0px" width="240.0" height="240.0" xml:space="preserve">
		<path d="M73.124,20.346C77.745,20.71 78.698,24.658 75.936,27.208C75.73,27.398 75.504,27.657 75.726,28.077C75.879,28.116 76.085,28.213 76.29,28.213C83.641,28.21 90.992,28.202 98.343,28.183C100.109,28.178 101.717,27.616 102.833,26.24C103.69,25.184 104.246,25.509 105.032,26.239C107.392,28.426 109.674,30.683 111.816,33.089C113.389,34.856 113.287,36.651 112.227,38.562L111.892,39.152L111.892,39.152L111.205,40.324L111.205,40.324C110.748,40.8 110.29,41.276 109.834,41.751C109.399,41.918 109.378,42.249 109.486,42.63C109.502,45.216 109.519,47.802 109.535,50.387C109.494,50.765 109.418,51.144 109.416,51.522C109.373,65.209 109.332,78.897 109.315,92.584C109.314,93.334 109.395,94.131 109.654,94.827C111.115,98.743 112.643,102.636 114.148,106.536C114.211,106.681 114.274,106.827 114.337,106.973C114.329,107.517 114.298,108.068 114.783,108.465C114.766,108.591 114.801,108.702 114.885,108.797C114.793,109.218 114.854,109.596 115.186,109.902C117.109,117.079 118.367,124.403 119.869,131.723C120.759,128.432 121.191,125.152 121.841,121.915C122.68,117.736 122.788,113.383 124.699,109.45C125.049,109.157 125.123,108.775 125.053,108.346C125.149,108.278 125.189,108.186 125.173,108.069C125.431,107.363 125.753,106.674 125.937,105.949C127.048,101.558 129.256,97.576 130.614,93.278C131.399,91.794 132.125,90.275 132.99,88.839C133.625,87.786 133.31,87.164 132.379,86.593C130.709,85.57 129.67,83.984 128.685,82.357C128.29,81.944 128.305,81.436 128.243,80.901C127.731,76.545 129.142,72.638 130.974,68.821C131.807,67.161 132.893,66.511 134.734,67.542C135.861,68.174 137.128,67.704 138.31,67.358C139.891,67.575 141.355,66.929 142.872,66.698C144.694,66.421 145.657,65.39 144.943,63.411C145.014,63.276 144.998,63.153 144.895,63.04L144.986,62.206C145.246,59.844 145.473,57.483 144.716,55.145C142.263,54.512 140.801,55.136 140.271,57.919C139.896,59.886 138.967,61.758 137.384,63.237C135.496,65.003 134.16,65.213 132.254,63.456C131.043,62.34 130.063,60.972 128.98,59.717C128.758,59.32 128.597,58.868 128.303,58.536C127.041,57.111 126.678,55.928 127.832,53.966C129.751,50.7 131.11,47.001 130.966,43.154C130.945,42.574 130.993,41.972 131.051,41.362L131.09,40.954C131.294,38.843 131.455,36.672 129.115,35.024C131.969,32.656 134.702,30.307 138.514,29.993C140.947,29.792 142.307,30.974 142.42,33.418C142.501,35.169 142.384,36.934 142.264,38.686C142.202,39.592 142.003,40.386 143.367,40.339C144.377,40.303 145.179,40.26 145.137,38.897C145.062,36.451 145.111,34.001 145.057,31.554C145.038,30.713 144.925,29.798 144.35,29.17C142.791,27.469 143.963,26.546 145.23,25.581C145.832,25.122 146.407,24.626 146.975,24.126C152.802,18.985 156.936,20.925 160.655,26.521C161.09,27.175 161.253,28.09 160.792,28.719C159.264,30.8 159.418,33.068 159.569,35.333L159.609,35.951C159.665,36.877 159.695,37.799 159.583,38.705C159.497,39.405 159.825,40.117 160.606,39.539C161.931,38.56 162.434,39.304 162.926,40.156L163.097,40.453C163.117,40.486 163.136,40.519 163.156,40.552C164.14,42.193 165.118,43.841 165.71,45.674C166.584,48.377 166.548,50.945 164.47,53.167C163.611,53.632 162.747,54.084 161.755,54.203C161.122,54.219 160.439,53.906 159.893,54.489L159.842,54.558C159.174,57.092 159.646,59.663 159.61,62.216C159.603,62.674 159.975,62.831 160.402,62.525L160.468,62.504C161.433,62.348 162.408,62.24 163.359,62.023C164.544,61.754 164.921,61.859 164.622,63.304C164.057,66.039 164.043,68.846 164.307,71.639C164.269,72.242 164.232,72.846 164.195,73.451C163.259,73.855 163.694,74.624 163.707,75.281C163.669,75.428 163.629,75.575 163.587,75.721C163.318,75.76 163.158,75.882 163.232,76.183C159.041,77.588 159.072,80.747 159.872,84.239C159.989,84.749 160.012,85.281 160.079,85.804C160.174,85.95 160.269,86.096 160.364,86.241L160.378,86.303C160.398,86.45 160.418,86.598 160.437,86.745C160.75,90.879 160.612,95.016 160.553,99.153C160.296,99.745 160.057,100.338 160.342,100.992L160.269,102.69L160.269,102.69C160.236,102.881 160.205,103.072 160.173,103.264C160.122,103.574 160.07,103.885 160.019,104.196C159.982,104.497 159.945,104.798 159.908,105.1L159.901,105.132C159.799,105.435 159.697,105.738 159.594,106.041C158.433,116.742 155.516,127.014 151.809,137.064C150.922,139.469 151.273,140.872 153.483,142.13C162.469,147.247 169.456,154.521 175.838,162.56C187.434,177.165 191.38,193.476 187.504,211.677C186.905,214.489 185.968,217.228 185.188,220L54.68,220L52.802,214.49L52.802,214.49L52.594,213.793C52.495,213.405 52.396,213.017 52.298,212.63C52.633,212.053 52.276,211.635 51.975,211.203C52.007,211.062 51.984,210.931 51.908,210.81L51.686,210.114L51.686,210.114C51.611,209.581 51.537,209.048 51.463,208.515C51.821,208.048 51.613,207.678 51.261,207.332C51.213,206.997 51.165,206.662 51.117,206.327C51.341,205.537 51.336,204.789 50.722,204.151L50.701,195.378L50.701,195.378C51.018,195.055 51.046,194.674 50.924,194.263C51.611,187.825 52.531,181.48 55.7,175.643C63.003,162.191 72.291,150.576 85.554,142.505C88.776,140.544 88.846,140.163 87.647,136.643C83.439,124.286 80.027,111.751 79.291,98.635C79.213,97.257 78.628,97.033 77.407,97.081C72.511,97.275 67.612,97.44 62.713,97.473C61.159,97.483 60.505,97.85 60.135,99.502C59.4,102.782 56.798,103.438 54.054,101.414C53.1,100.71 52.591,99.751 52.122,98.777L51.842,98.193C51.561,97.611 51.265,97.04 50.866,96.533C50.149,95.62 50.283,94.964 50.528,93.899C51.321,90.457 51.892,86.602 50.289,83.578C48.8,80.766 50.487,80.158 51.802,78.89C52.185,78.52 52.638,78.22 53.069,77.902C56.096,75.672 57.932,75.933 60.246,78.919C60.328,79.143 60.41,79.367 60.492,79.591L60.562,80.67C60.274,81.462 60.225,82.278 60.21,83.096L60.2,83.798C60.193,84.266 60.178,84.733 60.116,85.195C59.98,86.222 60.463,86.758 61.388,86.435C61.698,86.327 62.085,86.38 62.481,86.453L62.719,86.499C63.591,86.668 64.434,86.805 64.505,85.422C64.673,82.166 64.863,78.878 64.404,75.615C64.263,74.308 63.259,74.877 62.637,74.89C59.357,74.959 56.078,75.144 52.798,75.225C50.588,75.279 48.828,74.456 47.849,72.343C47.367,68.389 49.844,65.604 51.701,62.572C52.387,61.451 52.789,62.815 53.353,62.749C53.46,62.847 53.585,62.889 53.73,62.873C54.454,63.435 55.248,63.303 56.048,63.106C56.529,63.072 57.009,63.038 57.49,63.003C57.977,63.224 58.45,63.195 58.909,62.923C60.357,62.894 61.804,62.87 63.251,62.833C63.777,62.819 64.414,62.872 64.439,62.113C64.478,60.91 64.883,59.592 64.236,58.54C63.811,57.851 62.981,58.497 62.404,58.814C60.03,60.123 57.626,61.245 54.805,60.414C53.423,58.916 52.711,57.103 52.067,55.259L51.793,54.467C51.428,53.412 51.057,52.359 50.568,51.362C55.814,50.228 60.391,47.995 63.63,43.507C63.793,43.281 64.32,43.245 64.677,43.246C67.043,43.256 69.419,43.181 71.773,43.367C74.229,43.56 74.961,44.682 74.622,47.194L74.699,47.342L74.85,47.283C77.343,47.543 79.836,47.533 82.328,47.264L82.721,47.227L82.721,47.227C84.81,45.433 86.566,45.688 87.982,48.076C88.013,48.129 88.11,48.144 88.177,48.176C88.687,48.924 89.192,49.674 89.705,50.419C91.687,53.297 91.4,55.145 88.65,57.193L86.844,57.438C85.47,57.297 84.101,57.276 82.742,57.575C81.373,57.611 80.005,57.66 78.636,57.678C77.174,57.698 77.213,58.503 77.318,59.305L77.346,59.513C77.378,59.755 77.405,59.99 77.386,60.197C77.375,60.319 77.358,60.449 77.344,60.583L77.323,60.785C77.254,61.564 77.323,62.365 78.652,62.228C79.4,62.151 80.162,62.178 80.927,62.221L81.788,62.271C83.605,62.373 85.413,62.38 87.057,61.12C87.182,61.024 87.593,61.302 87.871,61.406L88.086,61.693L88.086,61.693L88.521,62.266C90.333,64.648 92.151,67.017 92.366,70.24C92.425,71.145 93.33,71.868 94.102,71.785C94.977,71.691 94.548,70.642 94.551,70.029C94.584,61.161 94.588,52.293 94.57,43.426C94.568,42.696 94.854,41.894 94.27,41.232L94.22,41.168C89.784,40.433 85.325,40.894 80.875,40.911L77.66,40.904L77.66,40.904C72.847,40.86 68.035,40.804 63.222,40.784C62.491,40.781 61.678,40.517 61.059,41.188C57.993,42.709 55.077,44.547 51.417,44.481C49.196,44.441 47.944,43.455 47.588,41.428C47.012,38.157 46.069,34.946 45.903,31.605L45.85,31.124L45.85,31.124C45.952,30.845 46.055,30.566 46.158,30.287C46.305,30.325 46.466,30.423 46.598,30.394C52.381,29.099 56.828,25.67 60.68,21.385C61.129,20.885 61.281,20.225 62.105,20.23C65.779,20.255 69.471,20.059 73.124,20.346ZM192.984,20.049C194.622,20.196 196.146,20.597 197.509,21.523C199.667,22.989 199.912,24.002 198.509,26.209C197.818,27.296 197.841,28.518 198.238,29.49C198.467,30.053 199.129,29.989 199.779,29.879L200.055,29.831C200.237,29.799 200.413,29.77 200.572,29.757C202.895,29.573 205.364,30.167 207.446,28.574C207.925,28.207 208.3,28.465 208.65,28.799C210.77,30.822 212.666,33.065 213.557,35.871C214.792,39.761 212.03,42.778 207.712,42.65C204.966,42.567 202.213,42.767 199.465,42.72C197.671,42.689 198.107,43.895 198.024,44.904C197.935,46.002 198.17,46.695 199.486,46.544C200.24,46.457 201.014,46.475 201.791,46.509L202.309,46.532C204.468,46.63 206.618,46.685 208.376,44.761C208.719,44.387 209.045,44.588 209.353,44.866C211.56,46.863 213.775,48.86 215.056,51.628C216.949,55.721 215.38,58.53 210.889,59.124C210.359,59.195 209.822,59.214 209.287,59.241C206.964,59.358 206.203,60.306 206.941,62.51C207.488,64.14 209.083,63.478 209.78,63.008C210.93,62.234 211.471,62.749 212.096,63.376L212.269,63.549C215.547,66.784 217.047,70.633 216.039,75.216C215.097,79.511 212.616,80.538 208.91,78.275C208.367,77.944 207.857,77.544 207.245,77.948C206.825,78.225 206.814,78.632 206.852,79.043L206.879,79.289C206.892,79.412 206.903,79.532 206.903,79.648C206.887,86.994 206.914,94.34 206.892,101.687C206.88,105.935 204.868,108.931 201.241,110.243C197.895,111.453 194.42,110.439 191.762,107.403C190.32,105.756 190.079,103.712 190.1,101.624C190.121,99.468 189.538,97.57 187.987,95.988C187.158,95.143 186.592,94.793 185.7,96.009C184.64,97.456 183.076,98.303 181.33,98.798C177.492,99.884 174.999,98.566 173.562,94.868C172.892,93.142 172.752,91.095 171.006,89.909C170.995,88.589 170.107,87.773 169.143,87.198C167.999,86.517 168.177,85.855 168.802,85.012C170.243,84.088 171.156,82.601 172.831,81.836C178.339,79.321 181.962,79.943 186.074,84.463L186.453,84.989L186.453,84.989L186.466,85.016C186.529,85.208 186.597,85.398 186.668,85.588L186.992,86.444C187.348,87.395 187.659,88.358 187.576,89.402C187.405,91.579 188.648,91.457 190.002,90.876C191.387,90.283 192.126,89.194 191.747,87.59C191.745,87.271 191.742,86.954 191.74,86.636L191.748,85.879L191.748,85.879C191.76,84.314 191.772,82.748 191.786,81.183C192.029,80.598 192.028,80.012 191.792,79.425L191.749,78.53L191.749,78.53C189.927,77.476 188.019,78.174 186.141,78.261C181.025,78.303 175.908,78.411 170.793,78.361C168.073,78.335 166.095,76.597 165.251,73.871C165.265,73.41 165.279,72.949 165.293,72.488C165.325,72.301 165.356,72.115 165.389,71.929C166.55,69.521 168.099,67.356 169.631,65.181L169.796,64.948C170.565,63.867 171.36,62.976 172.944,64.047C173.216,64.23 173.624,64.222 174.042,64.188L174.4,64.156C174.518,64.146 174.634,64.138 174.744,64.136C179.859,64.015 184.974,63.789 190.087,63.804C192.006,63.81 191.85,62.809 191.911,61.515C191.979,60.085 191.499,59.702 190.081,59.77C185.124,60.008 180.16,60.097 175.201,60.275C172.863,60.359 170.626,60.106 168.66,58.695C165.972,55.224 167.644,52.096 169.425,48.977C169.532,48.901 169.595,48.798 169.614,48.668C169.755,48.498 169.896,48.328 170.037,48.158C170.757,47.855 170.812,46.488 171.934,46.876C175.141,47.985 178.406,46.949 181.633,47.197C182.636,47.274 182.847,46.758 182.933,45.83C183.119,43.846 182.646,42.892 180.371,43.242C179.077,43.442 177.755,43.474 176.432,43.485L175.11,43.494C174.89,43.496 174.67,43.499 174.451,43.503C172.673,43.539 170.871,43.596 169.459,42.198C167.535,38.219 168.308,34.073 171.548,30.939C171.824,30.672 172.073,30.291 172.497,30.473C175.343,31.694 178.253,30.417 181.115,30.722C182.98,30.921 183.15,29.882 182.829,28.494C182.598,27.494 182.076,26.578 181.139,26.14C179.434,25.344 180.086,24.733 181.163,24.014C182.839,22.893 184.491,21.737 186.153,20.597C188.424,20.35 190.667,19.84 192.984,20.049ZM46.939,65.57C46.828,68.557 45.39,70.876 45.114,73.437C42.184,81.516 40.069,89.52 43.904,98.066C46.171,103.121 43.75,107.168 40.035,109.313C36.033,111.624 31.291,110.534 28.176,106.615C25.497,103.242 24.682,99.358 25.339,95.154C25.625,93.32 25.988,91.561 27.025,89.872C29.993,85.035 29.998,79.802 28.546,74.457C28.516,74.343 28.444,74.219 28.367,74.09L28.275,73.933C28.079,73.587 27.942,73.221 28.482,72.924C29.084,72.593 29.423,73.212 29.808,73.561C34.159,77.504 36.822,77.424 40.951,73.236C42.395,71.77 43.641,70.16 44.552,68.305C45.663,67.862 45.687,66.45 46.939,65.57ZM77.687,74.433C76.675,78.002 77.348,81.643 77.25,85.25C77.231,85.95 77.919,85.951 78.465,85.967C79.201,85.986 79.597,85.642 79.677,84.903C79.792,83.844 79.93,82.787 80.058,81.73C79.793,79.05 82.066,77.109 82.158,74.443C80.672,74.203 79.181,74.266 77.687,74.433ZM40.869,51.5C44.261,54.854 44.87,58.868 43.674,63.311C42.112,66.382 39.653,68.221 36.223,68.686C33.328,69.078 31.1,67.815 30.009,65.138C29.835,64.71 29.671,64.278 29.51,63.843L29.27,63.191C28.233,60.364 27.194,57.548 24.357,55.778C23.706,55.373 24.077,54.963 24.43,54.61L24.553,54.488C24.612,54.428 24.666,54.371 24.711,54.315C29.148,48.81 34.93,47.811 40.869,51.5ZM34.603,24.882C38.452,24.884 41.422,26.835 43.208,30.363C43.415,30.771 43.628,31.175 43.838,31.58L44.076,32.106L44.076,32.106C44.054,32.25 44.08,32.384 44.153,32.51C44.166,34.045 44.179,35.58 44.193,37.115C43.204,41.185 40.601,43.644 36.518,44.288C33.1,44.828 31.202,43.884 30.016,40.731L29.629,39.69C28.473,36.569 27.301,33.501 24.354,31.482C23.81,31.109 24.02,30.791 24.283,30.495L24.396,30.369C24.453,30.307 24.507,30.245 24.552,30.184C27.048,26.8 30.459,24.879 34.603,24.882Z" fill="#000" stroke="#00000000" stroke-width="1.0" stroke-miterlimit=""/>
	</svg>
