<svg xmlns="http://www.w3.org/2000/svg" width="256" height="256" viewBox="0 0 192 192" preserveAspectRatio="xMidYMid meet" xmlns:v="https://vecta.io/nano"><path d="M76 20.1C40.9 29.3 18 59 18 95.5c0 44.2 33.3 77.5 77.5 77.5S173 139.7 173 95.5c0-36.7-23-66.4-58.4-75.5-10.7-2.7-28.1-2.7-38.6.1zm39.6 12.3c19.8 6.3 36.4 22.9 43.1 43 2.3 7 2.7 9.8 2.7 20.1s-.4 13.1-2.7 20.1c-6.6 20-23.1 36.5-43.1 43.1-7 2.3-9.8 2.7-20.1 2.7s-13.1-.4-20.1-2.7c-20-6.6-36.5-23.1-43.1-43.1-2.3-7-2.7-9.8-2.7-20.1s.4-13.1 2.7-20.1C40 52.2 59.3 35.2 84.1 30c7.6-1.6 22.5-.5 31.5 2.4zM104 86.5C92.7 97.8 83.1 107 82.5 107s-5.1-4.1-10-9c-5.3-5.3-9.8-9-10.9-9C59.2 89 51 96.7 51 99c0 2 30.1 32 32.1 32S136 78.8 136 76.7c0-1.4-9.2-10.7-10.7-10.7-.5 0-10 9.2-21.3 20.5z"/></svg>