<svg xmlns="http://www.w3.org/2000/svg" id="Layer_1" width="192" height="192" viewBox="0 0 192 192"><defs><style>.cls-2{fill:none;stroke:#000;stroke-linecap:round;stroke-linejoin:round;stroke-width:12px}</style></defs><path d="M0 0h192v192H0z" style="fill:none"/><path d="M22 169.54v-76.2c0-4.99.97-9.94 3-14.5.03-.07.06-.14.1-.22 2.59-5.75 6.78-10.62 11.92-14.27L96 22.46l59.23 42.06c5.1 3.62 9.26 8.45 11.84 14.15l.09.21c1.96 4.42 2.84 9.24 2.84 14.07v76.59h-41.62v-65.68L96 76.45l-32.38 27.41v65.68H22Z" class="cls-2"/><path d="M96 77.04c-2.56-3.33-8.36-11.79-9.25-24.05C85.58 36.84 93.76 25.4 96 22.46" class="cls-2"/></svg>