<svg xmlns="http://www.w3.org/2000/svg" width="192" height="192" fill="none"><path stroke="#000" stroke-linecap="round" stroke-linejoin="round" stroke-width="12" d="M167 119v-9.863a6 6 0 0 0-5.076-5.928L92.028 92.316a6 6 0 0 0-3.825.676L79.135 98M97 170l-69.038-12.128a6 6 0 0 1-4.962-5.91v-15.72c0-3.761 3.42-6.595 7.115-5.896l62 11.73A6 6 0 0 1 97 147.971zm0 0 35-22"/><path stroke="#000" stroke-linecap="round" stroke-linejoin="round" stroke-width="10" d="M157 134 22 104"/><path stroke="#000" stroke-linecap="round" stroke-linejoin="round" stroke-width="12" d="M88.567 67.358 49 22l74.634 9.693a6 6 0 0 1 3.875 2.155L166 81 92.153 69.34a6 6 0 0 1-3.586-1.982"/></svg>