<svg width="192" height="192" viewBox="0 0 192 192" fill="none" xmlns="http://www.w3.org/2000/svg">
<path d="M37.1709 109.511C41.7655 106.652 47.1899 105 53 105H62.5449H72.0898M37.1709 109.511C28.6631 114.806 23 124.242 23 135C23 151.569 36.4315 165 53 165H72.0898H84.0449M37.1709 109.511V100.911C37.0795 97.9012 35.9218 95.4636 34.1243 94.1609L27.5031 89.3449C25.3018 87.7443 23.781 85.4147 23.2289 82.7973C22.6767 80.18 23.1316 77.4568 24.5073 75.1436L37.1709 53.8268C38.553 51.5631 40.731 49.8617 43.303 49.0364C45.875 48.2111 48.6673 48.3177 51.1647 49.3365L58.7913 52.5143C60.9239 53.3729 63.7775 53.0965 66.4382 51.5274C69.0989 49.9582 70.6932 47.7673 70.9573 45.6061L71.9728 37.6221C72.3008 34.9678 73.6189 32.5225 75.6776 30.7493C77.7363 28.976 80.3926 27.9978 83.1435 28H108.532C111.282 27.9978 113.939 28.976 115.997 30.7493C118.056 32.5225 119.374 34.9678 119.702 37.6221L120.718 45.6357C120.992 47.8463 122.698 50.0865 125.399 51.557C128.101 53.0274 130.883 53.2742 132.914 52.4156L140.51 49.2477C143.037 48.1923 145.875 48.0756 148.485 48.9197C151.095 49.7639 153.295 51.5102 154.667 53.8268L161.004 64.4852L167.493 75.0548C168.868 77.368 169.323 80.0912 168.771 82.7085C168.219 85.3258 166.698 87.6555 164.497 89.2561L157.845 94.0918C155.987 95.4438 154.839 97.99 154.88 101V109.543M154.88 109.543C150.274 106.664 144.832 105 139 105H129.573H120.145M154.88 109.543C163.359 114.843 169 124.263 169 135C169 151.569 155.569 165 139 165H120.145H108.073M72.0898 105C71.8617 103.697 71.745 102.369 71.745 101.03C71.745 96.3451 73.1744 91.7658 75.8525 87.8708C78.5306 83.9757 82.337 80.9399 86.7905 79.1473C91.244 77.3546 96.1445 76.8855 100.872 77.7994C105.6 78.7133 109.943 80.9691 113.351 84.2816C116.76 87.594 119.081 91.8143 120.022 96.4088C120.604 99.2559 120.641 102.167 120.145 105M72.0898 105H84.1036M120.145 105H108.131M129.573 135H62.5449" stroke="black" stroke-width="14" stroke-linecap="round"/>
</svg>
