<svg xmlns="http://www.w3.org/2000/svg" width="192" height="192" fill="none" viewBox="0 0 192 192"><path stroke="#000" stroke-linecap="round" stroke-width="12" d="M36.365 109.296a30.1 30.1 0 0 1 16.046-4.61h19.351m-35.397 4.61A30.69 30.69 0 0 0 22 135.343C22 152.274 35.615 166 52.411 166h31.47m-47.516-56.704v-8.788c-.093-3.076-1.266-5.567-3.088-6.898l-6.712-4.922a11.13 11.13 0 0 1-4.333-6.69 10.96 10.96 0 0 1 1.296-7.822l12.837-21.784a11.33 11.33 0 0 1 6.216-4.895 11.6 11.6 0 0 1 7.97.307l7.73 3.247c2.162.877 5.055.595 7.752-1.008 2.697-1.604 4.314-3.843 4.581-6.051l1.03-8.16a11.1 11.1 0 0 1 3.755-7.023A11.53 11.53 0 0 1 82.967 26h25.736a11.53 11.53 0 0 1 7.568 2.81 11.1 11.1 0 0 1 3.756 7.023l1.029 8.189c.278 2.259 2.008 4.548 4.746 6.05 2.738 1.503 5.559 1.756 7.618.878l7.7-3.237a11.6 11.6 0 0 1 8.084-.335 11.33 11.33 0 0 1 6.266 5.014l6.424 10.892 6.578 10.801a10.96 10.96 0 0 1 1.296 7.822 11.13 11.13 0 0 1-4.333 6.69l-6.743 4.942c-1.883 1.382-3.047 3.984-3.006 7.06v8.729m0 0a30.1 30.1 0 0 0-16.097-4.642h-19.113m35.21 4.642A30.7 30.7 0 0 1 170 135.343C170 152.274 156.385 166 139.589 166h-31.351m-36.476-61.314a23.7 23.7 0 0 1-.35-4.057 23.86 23.86 0 0 1 4.164-13.447 24.6 24.6 0 0 1 11.088-8.915 25.2 25.2 0 0 1 14.275-1.377 24.87 24.87 0 0 1 12.65 6.624 24.06 24.06 0 0 1 6.762 12.393c.59 2.91.627 5.884.125 8.779m-48.714 0h12.179m36.535 0h-12.179m-46.21 30.657h67.945"/></svg>