<svg xmlns="http://www.w3.org/2000/svg" width="192" height="192" fill="none" viewBox="0 0 192 192"><path stroke="#000" stroke-linecap="round" stroke-linejoin="round" stroke-width="12" d="m126 44-4.165-2.777a6 6 0 0 1-2.441-3.344l-2.967-10.384c-.28-.98-.816-1.87-1.713-2.354C112.536 23.966 107.217 22 96 22s-16.536 1.966-18.714 3.141c-.897.485-1.433 1.374-1.713 2.354l-2.967 10.384a6 6 0 0 1-2.441 3.344L66 44m-.033.02-4.487 2.218a6 6 0 0 1-4.117.442l-10.477-2.623c-.989-.248-2.027-.228-2.895.307-2.107 1.299-6.469 4.922-12.077 14.636s-6.565 15.303-6.636 17.777c-.03 1.02.472 1.928 1.181 2.66l7.51 7.763a6 6 0 0 1 1.675 3.785l.323 4.996m120.066-.001.323-4.995a6 6 0 0 1 1.675-3.785l7.51-7.762c.709-.733 1.211-1.642 1.181-2.66-.071-2.475-1.028-8.064-6.636-17.778s-9.97-13.337-12.077-14.636c-.868-.535-1.906-.555-2.895-.307l-10.477 2.623a6 6 0 0 1-4.117-.442l-4.487-2.219M126 148l-4.165 2.777a6 6 0 0 0-2.441 3.344l-2.967 10.384c-.28.98-.816 1.87-1.713 2.354C112.536 168.034 107.217 170 96 170s-16.536-1.966-18.714-3.141c-.897-.484-1.433-1.374-1.713-2.354l-2.967-10.384a6 6 0 0 0-2.441-3.344L66 148m90.033-51.98.323 4.994a6 6 0 0 0 1.675 3.786l7.51 7.762c.709.733 1.211 1.642 1.181 2.661-.071 2.474-1.028 8.063-6.636 17.777s-9.97 13.337-12.077 14.636c-.868.535-1.906.555-2.895.307l-10.477-2.623a6 6 0 0 0-4.117.442l-4.487 2.219m-60.066 0-4.487-2.219a6 6 0 0 0-4.117-.442l-10.477 2.623c-.989.248-2.027.228-2.895-.307-2.107-1.298-6.469-4.922-12.077-14.636s-6.565-15.303-6.636-17.777c-.03-1.019.472-1.928 1.181-2.661l7.51-7.762a6 6 0 0 0 1.675-3.785l.323-4.996M115 63 80 88l32 16-34 24"/></svg>