<svg xmlns="http://www.w3.org/2000/svg" width="192" height="192" fill="none" viewBox="0 0 192 192"><path stroke="#000" stroke-linecap="round" stroke-linejoin="round" stroke-width="12" d="M167 122.5V161a6 6 0 0 1-6 6H31a6 6 0 0 1-6-6v-33m0-24V31a6 6 0 0 1 6-6h130a6 6 0 0 1 6 6v64.5"/><path stroke="#000" stroke-linecap="round" stroke-linejoin="round" stroke-width="12" d="M25 128s11.297-4 14.5-4 4 1.5 8.5 1.5S55.5 100 61 100s6 12.5 11 12.5 4-5 8.5-5 6.568 18 12.5 18S104.801 90 111.15 90c6.35 0 10.696 29 14.35 29s4.5-13.5 9.5-13.5 7.872 12 11.5 12 5.192-3 8-3 12.5 8 12.5 8"/></svg>