<svg xmlns="http://www.w3.org/2000/svg" xml:space="preserve" width="192" height="192" viewBox="0 0 50.8 50.8"><g style="fill:none;stroke:#000;stroke-width:28.0037;stroke-linecap:round;stroke-linejoin:round;stroke-dasharray:none;stroke-opacity:1"><path d="M87.427 199.672a43.698 43.745 0 0 1-43.697 43.745A43.698 43.745 0 0 1 .032 199.672a43.698 43.745 0 0 1 43.698-43.744 43.698 43.745 0 0 1 43.697 43.744" class="cls-1" style="stroke-width:28.0037" transform="matrix(.11371 0 0 .11304 5.822 11.473)"/><path d="M109.825 4.035a4.45 4.495 0 0 0-6.286-1.51 55.513 56.077 0 0 0-21.697 26.97q-.324.862-.613 1.717a53.36 53.903 0 0 0 4.637 44.283l93.786 164.03a4.45 4.495 0 0 0 6.096 1.631 50.517 51.03 0 0 0 17.245-16.461c6.76-10.64 8.16-22.014 7.551-31.546a63.967 64.617 0 0 0-8.613-28.09zM243.468 6.84a4.45 4.495 0 0 0-6.286-1.51 55.515 56.078 0 0 0-21.698 26.97q-.324.862-.613 1.717A53.362 53.903 0 0 0 219.51 78.3l93.789 164.033a4.45 4.495 0 0 0 6.095 1.63 50.518 51.03 0 0 0 17.246-16.461c6.76-10.64 8.16-22.014 7.551-31.546a63.969 64.617 0 0 0-8.613-28.09z" class="cls-2" style="fill:none;stroke:#000;stroke-width:28.0037;stroke-linecap:round;stroke-linejoin:round;stroke-dasharray:none;stroke-opacity:1" transform="matrix(.11371 0 0 .11304 5.822 11.473)"/></g></svg>