<?xml version="1.0" encoding="UTF-8" standalone="no"?>
<!-- Created with Inkscape (http://www.inkscape.org/) -->

<svg
   width="192"
   height="192"
   viewBox="0 0 50.799999 50.8"
   version="1.1"
   id="svg1"
   xmlns="http://www.w3.org/2000/svg"
   xmlns:svg="http://www.w3.org/2000/svg">
  <defs
     id="defs1" />
  <g
     id="layer1">
    <g
       id="g14"
       transform="matrix(0.11371166,0,0,0.1130449,5.8218324,11.473238)"
       style="fill:none;stroke:#000000;stroke-width:28.0037;stroke-linecap:round;stroke-linejoin:round;stroke-dasharray:none;stroke-opacity:1">
      <path
         id="circle8"
         class="cls-1"
         d="m 95.140718,209.74055 a 47.554308,47.620092 0 0 1 -47.55432,47.62008 47.554308,47.620092 0 0 1 -47.55430845,-47.62008 47.554308,47.620092 0 0 1 47.55430845,-47.6201 47.554308,47.620092 0 0 1 47.55432,47.6201 z"
         style="stroke-width:28.0037" />
      <path
         class="cls-2"
         d="M 126.98728,16.447994 A 4.4773272,4.5236799 0 0 0 120.66274,14.92866 55.856576,56.434846 0 0 0 98.831157,42.069585 q -0.32582,0.868015 -0.6166,1.72847 a 53.690907,54.246756 0 0 0 4.665793,44.565233 q 47.18346,82.538932 94.3669,165.077912 a 4.4772393,4.5235912 0 0 0 6.13342,1.64101 50.829724,51.355952 0 0 0 17.35202,-16.56681 c 6.80177,-10.70772 8.21078,-22.15393 7.59735,-31.74689 A 64.362823,65.029157 0 0 0 219.66402,178.4997 Q 173.32563,97.47389 126.98728,16.447994 Z"
         id="path10"
         style="fill:none;stroke:#000000;stroke-width:28.0037;stroke-linecap:round;stroke-linejoin:round;stroke-dasharray:none;stroke-opacity:1" />
      <path
         class="cls-2"
         d="m 242.8434,-8.8151564 a 4.477463,4.523727 0 0 0 -6.32472,-1.5193506 55.85827,56.435434 0 0 0 -21.83224,27.141209 q -0.32584,0.868022 -0.61663,1.728486 a 53.692573,54.247361 0 0 0 4.66595,44.565698 q 47.18486,82.539804 94.36975,165.079624 a 4.4773751,4.5236382 0 0 0 6.13361,1.64104 50.831168,51.356389 0 0 0 17.35253,-16.56699 c 6.80197,-10.70784 8.21105,-22.15415 7.59758,-31.74723 a 64.364648,65.029705 0 0 0 -8.66627,-28.2691 Q 289.18315,72.211583 242.8434,-8.8151564 Z"
         id="path12"
         style="fill:none;stroke:#000000;stroke-width:28.0037;stroke-linecap:round;stroke-linejoin:round;stroke-dasharray:none;stroke-opacity:1" />
    </g>
  </g>
</svg>
