<svg xmlns="http://www.w3.org/2000/svg" width="192" height="192" fill="none"><path stroke="#000" stroke-linecap="round" stroke-linejoin="round" stroke-width="12" d="M36 136V81L22 93"/><path stroke="#000" stroke-linecap="round" stroke-width="12" d="M59 104v32"/><path stroke="#000" stroke-linecap="round" stroke-linejoin="round" stroke-width="12" d="M87 118v18m28-18v18"/><path stroke="#000" stroke-linecap="round" stroke-width="12" d="M170 104v36.5M59 81h111M36 159h79"/><circle cx="153" cy="120" r="16" stroke="#000" stroke-linecap="round" stroke-width="12"/><path stroke="#000" stroke-linecap="round" stroke-linejoin="round" stroke-width="12" d="M115 118a14 14 0 0 0-4.101-9.899 13.994 13.994 0 0 0-19.799 0A14 14 0 0 0 87 118m0 0a14 14 0 0 0-19.358-12.934A14 14 0 0 0 59 118"/><path stroke="#000" stroke-linecap="round" stroke-width="12" d="M170 140.5a18.5 18.5 0 0 1-11.42 17.092 18.49 18.49 0 0 1-20.161-4.011M35 32v26m82-26v26M73 32 63 58m91-26-10 26M79 32l10 26m71-26 10 26M22 32h26m56 0h26m-57 0h6m75 0h6"/></svg>