<?xml version="1.0" encoding="UTF-8" standalone="no"?>
<!-- Created with Inkscape (http://www.inkscape.org/) -->

<svg
   width="192"
   height="192"
   viewBox="0 0 50.800001 50.800001"
   version="1.1"
   id="svg1"
   xml:space="preserve"
   xmlns="http://www.w3.org/2000/svg"
   xmlns:svg="http://www.w3.org/2000/svg"><defs
     id="defs1"><style
       id="style11711">.cls-1{fill:#0071ce;}</style></defs><g
     id="layer1"><path
       id="path5401"
       style="opacity:1;fill:none;stroke:#000000;stroke-width:3.17211;stroke-linecap:round;stroke-linejoin:round;stroke-dasharray:none;stroke-opacity:1;paint-order:stroke fill markers"
       d="m 36.573929,8.9912312 a 8.3273806,8.3261245 0 0 0 -6.327917,2.9226338 l -0.0172,-0.0172 -9.471261,9.469758 -0.0017,0.0015 -0.0057,-0.0064 c 0,0 -0.603182,-0.602655 -0.875152,-0.872983 -1.489176,-1.48023 -3.543779,-2.399914 -5.807651,-2.399914 -4.5990783,0 -8.327313,3.698045 -8.327313,8.259867 0,2.155613 0.8327643,4.117995 2.1962302,5.58883 l -0.06344,0.04491 7.3685188,7.402077 a 7.9910135,8.2441477 0 0 0 0.106849,0.107349 l 0.02404,0.02421 0.0015,-0.0015 a 7.9910135,8.2441477 0 0 0 5.389489,2.160003 7.9910135,8.2441477 0 0 0 5.709369,-2.483721 l 15.508517,-15.541742 -0.0038,-0.0038 a 8.3273806,8.3261245 0 0 0 2.92394,-6.327747 8.3273806,8.3261245 0 0 0 -8.327315,-8.3261473 z" /></g><style
     type="text/css"
     id="style11642">
	.st0{fill:#00C48C;}
	.st1{fill:#4F008C;}
</style><style
     type="text/css"
     id="style13782">
	.st0{fill:#8B7D6E;}
	.st1{fill:#004A6E;}
	.st2{fill:url(#SVGID_1_);}
	.st3{fill:url(#SVGID_00000101805771245684949860000012276154375448322482_);}
	.st4{fill:#004F71;}
	.st5{fill:#76777A;}
</style><style
     type="text/css"
     id="style14023">
	.st0{fill:#84B740;}
	.st1{fill:#259BD6;}
	.st2{fill:#27292D;}
</style><style
     type="text/css"
     id="style11395">
	.st0{fill:#84B740;}
	.st1{fill:#259BD6;}
	.st2{fill:#27292D;}
</style></svg>
