<svg xmlns="http://www.w3.org/2000/svg" width="192" height="192" fill="none"><path stroke="#000" stroke-width="12" d="M83.574 24a6 6 0 0 0-5.975 6.553l4.531 48.99-42.284-19.365a6 6 0 0 0-8.167 3.489l-8.412 24.254c-1.197 3.45.94 7.16 4.524 7.856l46.12 8.966-33.869 37.072c-2.46 2.693-1.968 6.94 1.042 8.999l19.988 13.674a6 6 0 0 0 8.459-1.744l25.955-41.03 23.524 40.76a5.999 5.999 0 0 0 8.508 2.004l20.84-13.797c3.017-1.997 3.593-6.191 1.226-8.928l-32.009-37.01 46.956-9.04a6 6 0 0 0 4.626-7.57l-7.06-24.234a6 6 0 0 0-8.093-3.85l-46.189 19.494 4.979-48.936a6 6 0 0 0-5.97-6.607h-23.25z"/></svg>