<?xml version="1.0" encoding="UTF-8" standalone="no"?>
<!-- Created with Inkscape (http://www.inkscape.org/) -->

<svg
   width="192"
   height="192"
   viewBox="0 0 192 192"
   version="1.1"
   id="svg1940"
   xmlns="http://www.w3.org/2000/svg"
   xmlns:svg="http://www.w3.org/2000/svg">
  <defs
     id="defs1937" />
  <path
     id="path17"
     style="fill:none;stroke:#000000;stroke-width:11.9999;stroke-linecap:round;stroke-linejoin:round;stroke-miterlimit:16;stroke-dasharray:none;stroke-opacity:1"
     d="M 111.49605,40.398074 A 14.604759,14.604634 0 0 1 96.891285,55.002706 14.604759,14.604634 0 0 1 82.286418,40.398074 14.604759,14.604634 0 0 1 96.891285,25.793433 14.604759,14.604634 0 0 1 111.49605,40.398074 Z M 50.874455,70.405631 c 29.66036,8.783722 59.655925,39.095289 66.214655,66.311809 4.07219,16.89843 -2.92824,23.75315 -11.62055,26.05585 -15.375684,4.07323 -40.955312,4.71291 -65.101862,0.57454 -9.959161,-1.70688 -13.202779,-5.4432 -15.409421,-14.88139 C 19.93636,126.21884 21.77701,93.367066 30.070574,76.68797 35.329306,66.112113 41.64365,67.672032 50.874455,70.405631 Z M 45.158527,96.146207 C 70.068443,105.06216 86.600162,121.4515 94.160859,146.25232 M 47.128136,122.9806 c 9.805096,4.07608 15.588594,9.68316 19.857814,19.29939 m 82.54768,-18.81489 c -5.94129,2.39652 -8.60003,5.08596 -11.11803,8.13327 m 10.75675,-35.374395 c -10.35193,2.099353 -16.65578,5.333185 -21.65179,10.913395 M 112.16881,83.355364 c 12.56239,-9.218361 27.51197,-15.02197 41.58971,-17.020215 5.54588,-0.218005 10.96408,-0.142121 13.05774,9.380202 4.66915,24.579589 3.51439,52.455419 0.79936,75.913239 -0.60822,6.4497 -0.25381,6.80484 -5.86696,10.17742 -6.41554,3.77308 -13.41392,4.89669 -19.98373,4.21022" />
</svg>
