<svg width="192" height="192" viewBox="0 0 192 192" fill="none" xmlns="http://www.w3.org/2000/svg"><path d="M25 57c0-17.673 14.327-32 32-32h104a6 6 0 0 1 6 6v104c0 17.673-14.327 32-32 32H31a6 6 0 0 1-6-6V57Z" stroke="#000" stroke-width="12" stroke-linecap="round" stroke-linejoin="round"/><path d="M52 58a6 6 0 0 1 6-6h76a6 6 0 0 1 6 6v16a6 6 0 0 1-6 6h-16a6 6 0 0 0-6 6v48a6 6 0 0 1-6 6H86a6 6 0 0 1-6-6V86a6 6 0 0 0-6-6H58a6 6 0 0 1-6-6V58Z" stroke="#000" stroke-width="12" stroke-linecap="round" stroke-linejoin="round"/></svg>