<svg width="192" height="192" viewBox="0 0 192 192" fill="none" xmlns="http://www.w3.org/2000/svg"><path d="M55 72v13m0 13V85m0 0h8m10-13L63 85m10 13L63 85" stroke="#000" stroke-width="10" stroke-linecap="round"/><path d="M87 98V72l20 26V72m32 3.25S135.68 72 130 72s-9 2.167-9 6.5 5.143 6.5 9 6.5 9 2.167 9 6.5-3.32 6.5-9 6.5-9-3.25-9-3.25M151 98l10-26 10 26" stroke="#000" stroke-width="10" stroke-linecap="round" stroke-linejoin="round"/><path d="M31 72v26M21 72h20" stroke="#000" stroke-width="10" stroke-linecap="round"/></svg>