<svg xmlns="http://www.w3.org/2000/svg" width="192" height="192" fill="none"><path stroke="#000" stroke-linecap="round" stroke-linejoin="round" stroke-width="12" d="M108 48 83 90h14m-6-32h24"/><path stroke="#000" stroke-linecap="round" stroke-linejoin="round" stroke-width="12" d="M152 64c0-5.516-1.448-10.977-4.263-16.073-2.814-5.095-6.939-9.725-12.139-13.626s-11.373-6.993-18.168-9.104C110.636 23.087 103.354 22 96 22s-14.636 1.086-21.43 3.197-12.968 5.204-18.168 9.104-9.325 8.53-12.14 13.626C41.45 53.023 40 58.484 40 64"/><circle cx="96" cy="168" r="4" stroke="#000" stroke-linecap="round" stroke-linejoin="round" stroke-width="8"/><path stroke="#000" stroke-linecap="round" stroke-linejoin="round" stroke-width="12" d="M152 64c0 46-48 62-56 82-8-20-56-36-56-82"/></svg>