<svg xmlns="http://www.w3.org/2000/svg" width="192" height="192" fill="none" xmlns:v="https://vecta.io/nano"><path d="M23.074 88.132l88.159-36.212c8.702-3.772 38.215-15.843 38.215-15.843s13.621-5.281 12.486 7.544c-.379 5.281-3.406 23.764-6.433 43.756l-9.459 59.221s-.756 8.676-7.188 10.185-17.027-5.281-18.919-6.79c-1.513-1.132-28.377-18.106-38.214-26.404-2.649-2.263-5.675-6.79.378-12.071 13.621-12.447 29.891-27.913 39.728-37.72 4.54-4.526 9.081-15.088-9.837-2.263L58.64 107.369s-6.054 3.772-17.405.377-24.594-7.921-24.594-7.921-9.081-5.658 6.432-11.693h0z" stroke="#000" stroke-width="12"/></svg>