<svg xmlns="http://www.w3.org/2000/svg" width="192" height="192" fill="none"><path stroke="#000" stroke-linecap="round" stroke-linejoin="round" stroke-width="12" d="M163 89a67 67 0 1 0-67 67m0 14c8.799 0 17.511-2.095 25.64-6.166s15.515-10.037 21.736-17.558c6.222-7.522 11.157-16.451 14.524-26.279S163 99.637 163 89m-67 67v14"/><path stroke="#000" stroke-linecap="round" stroke-linejoin="round" stroke-width="12" d="M76 75h-6a6 6 0 0 0-6 6v16a6 6 0 0 0 6 6h6a6 6 0 0 1 6 6v6a6 6 0 0 0 6 6h16a6 6 0 0 0 6-6v-6a6 6 0 0 1 6-6h6a6 6 0 0 0 6-6V81a6 6 0 0 0-6-6h-6a6 6 0 0 1-6-6v-6a6 6 0 0 0-6-6H88a6 6 0 0 0-6 6v6a6 6 0 0 1-6 6"/></svg>