<svg width="192" height="192" viewBox="0 0 50.800001 50.800001" version="1.1" id="svg5" xml:space="preserve" xmlns="http://www.w3.org/2000/svg" xmlns:svg="http://www.w3.org/2000/svg"><g id="layer1" style="display:inline;stroke-width:1.00013;stroke-dasharray:none"><path class="st0" d="m 25.61279,18.392038 c 0.560093,0.08779 0.672949,-0.02925 0.748186,-0.560093 0.18391,-1.237222 0.551733,-2.441004 1.090926,-3.569549 0.735647,-1.504729 1.897632,-3.159931 3.536111,-4.2717577 1.651021,-1.0658492 3.469235,-1.847472 5.375225,-2.3114298 1.287379,-0.2842266 2.608195,-0.3720024 3.920652,-0.2591475 2.357408,0.2131697 3.661505,0.8861176 4.317736,1.7555161 0.217348,0.2884064 0.346925,0.6353297 0.37618,0.9989719 0.02089,0.4347 -0.16719,0.998973 -0.794161,1.550706 -0.622791,0.555914 -1.89763,1.212142 -3.657325,1.801497 -1.826574,0.60607 -4.321915,1.249759 -6.813076,1.822392 -1.44203,0.326025 -2.867342,0.735646 -4.263396,1.22468 -1.646844,0.560094 -2.144239,2.198576 -1.120189,2.700153 1.153627,0.564274 2.227835,1.270659 3.20591,2.098259 1.567424,1.245582 3.001096,2.654174 4.271754,4.2007 1.550707,1.893449 4.087846,5.504798 4.994863,9.011651 1.011512,3.849597 0.380362,7.498561 -1.797313,8.518434 -2.135881,1.003151 -4.982325,-0.443061 -6.980269,-2.52042 -1.897628,-1.960327 -3.226805,-4.280116 -4.480745,-7.841306 -1.082568,-3.080514 -1.517267,-7.523641 -1.517267,-9.855971 0,-0.777442 0,-0.940455 0.02088,-1.642661 0.07105,-0.610252 -1.575784,-1.120187 -3.343839,0.02088 -2.014665,1.29574 -3.983352,3.640607 -5.149514,5.007402 -0.505757,0.597712 -1.195425,1.47129 -1.92271,2.386667 -0.961353,1.203781 -2.018843,2.457723 -2.984379,3.159927 -1.446209,1.032413 -3.7827182,1.479651 -5.4253798,0.317666 -0.9111938,-0.647865 -1.4002305,-1.876728 -1.4002305,-3.126487 -0.01254,-0.86104 0.20899,-1.709539 0.6436894,-2.457724 0.5600933,-0.961354 1.446211,-1.993765 2.879883,-3.176647 1.8892689,-1.467112 3.9791699,-2.658355 6.2028219,-3.536111 3.60717,-1.450392 7.490206,-1.905991 10.064961,-1.446212 z" id="path1131" style="display:inline;fill:none;fill-opacity:1;stroke:#000000;stroke-width:3.175;stroke-linecap:square;stroke-linejoin:bevel;stroke-miterlimit:4;stroke-dasharray:none;stroke-opacity:1"/></g></svg>