<svg xmlns="http://www.w3.org/2000/svg" xml:space="preserve" width="192" height="192"><path d="M149.626 50.159h12.305a8.07 8.07 0 0 1 8.069 8.07v10.485a8.07 8.07 0 0 1-8.07 8.07h-12.304a8.07 8.07 0 0 1-8.07-8.07V58.228a8.07 8.07 0 0 1 8.07-8.069M22 63.601v-2.44c0-6.1 4.945-11.046 11.045-11.046h74.633c6.1 0 11.044 4.945 11.044 11.045v75.547c0 6.1-4.944 11.045-11.044 11.045h-6.21c-6.1 0-11.046-4.945-11.046-11.045V85.723c0-6.1-4.944-11.047-11.044-11.05l-46.333-.022C26.944 74.648 22 69.701 22 63.601" style="opacity:1;fill:none;fill-opacity:1;stroke:#000;stroke-width:12;stroke-linecap:round;stroke-linejoin:round;stroke-miterlimit:16;stroke-dasharray:none;stroke-opacity:1"/></svg>