<svg xmlns="http://www.w3.org/2000/svg" width="192" height="192" viewBox="0 0 50.8 50.8"><path fill="none" stroke="#000" stroke-linejoin="bevel" stroke-width="3.175" d="M25.613 18.392a1.496 1.12 0 0 0 .748-.56 12.6 12.6 0 0 1 1.09-3.57c.737-1.504 1.899-3.16 3.537-4.271a17.6 17.6 0 0 1 5.375-2.312 13 13 0 0 1 3.92-.259c2.358.213 3.662.886 4.319 1.756.217.288.347.635.376.999.02.434-.167.999-.794 1.55-.623.556-1.898 1.212-3.658 1.802-1.826.606-4.322 1.25-6.813 1.822a39 39 0 0 0-4.263 1.225c-1.647.56-2.144 2.198-1.12 2.7a15.5 15.5 0 0 1 3.206 2.098 28.4 28.4 0 0 1 4.271 4.2c1.551 1.894 4.088 5.506 4.995 9.013 1.012 3.85.38 7.498-1.797 8.518-2.136 1.003-4.982-.443-6.98-2.52-1.898-1.96-3.227-4.28-4.481-7.842-1.083-3.08-1.517-7.523-1.517-9.856 0-.777 0-.94.02-1.642.072-.61-1.575-1.12-3.343.02-2.015 1.296-3.984 3.641-5.15 5.008-.506.598-1.195 1.471-1.923 2.387-.96 1.203-2.018 2.457-2.984 3.16-1.446 1.032-3.783 1.48-5.425.317-.912-.648-1.4-1.877-1.4-3.126a4.75 4.75 0 0 1 .643-2.458c.56-.961 1.446-1.994 2.88-3.177a25.2 25.2 0 0 1 6.203-3.536c3.607-1.45 7.49-1.906 10.065-1.446z"/></svg>