<svg width="192" height="192" fill="none" xmlns="http://www.w3.org/2000/svg"><path d="M163 89a67 67 0 1 0-67 67m0 14c8.799 0 17.511-2.095 25.64-6.166 8.129-4.07 15.515-10.037 21.736-17.558 6.222-7.522 11.157-16.451 14.524-26.279 3.367-9.827 5.1-20.36 5.1-30.997m-67 67v14" stroke="#000" stroke-width="12" stroke-linecap="round" stroke-linejoin="round"/><path d="M76 75h-6a6 6 0 0 0-6 6v16a6 6 0 0 0 6 6h6a6 6 0 0 1 6 6v6a6 6 0 0 0 6 6h16a6 6 0 0 0 6-6v-6a6 6 0 0 1 6-6h6a6 6 0 0 0 6-6V81a6 6 0 0 0-6-6h-6a6 6 0 0 1-6-6v-6a6 6 0 0 0-6-6H88a6 6 0 0 0-6 6v6a6 6 0 0 1-6 6Z" stroke="#000" stroke-width="12" stroke-linecap="round" stroke-linejoin="round"/></svg>