<svg data-name="Layer 1" xmlns="http://www.w3.org/2000/svg" viewBox="0 0 24 24"><path d="m17.26 13.7.88-.82c.47-.45.93-.89 1.36-1.38a2.35 2.35 0 0 0 .36-.47 1.74 1.74 0 0 0 .2-.49.86.86 0 0 0 0-.39.51.51 0 0 0-.34-.41.7.7 0 0 0-.25 0h-.1V8.11a.19.19 0 0 1 0-.08 2.45 2.45 0 0 1 1.2.12 1.86 1.86 0 0 1 1.24 1.45 2 2 0 0 1 0 .65 3.68 3.68 0 0 1-.29 1 5 5 0 0 1-.4.71 8.43 8.43 0 0 1-.81 1l-.61.63a.13.13 0 0 1-.12.05h-2.33s.03.06.01.06ZM14 15.52h-1.48v-6.3L14 9v6.51Zm8-1.7v1.69h-5v-1.48h.43l1.83-.06 1.73-.05h.93Zm-12 1.7H8.72v-.06a.22.22 0 0 1 0-.08V9.83a.56.56 0 0 1 0-.13c.09 0 1.17-.18 1.28-.18s0 5.92 0 6Zm-4.68-5.35L6.43 10a.35.35 0 0 0 0 .06v5.44H5.31v-5.19a.33.33 0 0 1 .01-.14Z"/><path d="M19.09 9.71h-.1a.76.76 0 0 0-.34.37 1.46 1.46 0 0 0-.1.45v.48a.22.22 0 0 1-.11 0l-.87.08H17a4 4 0 0 1 .17-1.43 2.51 2.51 0 0 1 .48-.86 2.31 2.31 0 0 1 .95-.65 2 2 0 0 1 .4-.07.16.16 0 0 1 .1 0v1.63ZM2.91 11.79 4 11.68v3.84H2.92v-3.73Zm1.99-1.56a.2.2 0 0 1 0 .07v1.1h-.06L2 11.72v-1.07h.08l1.27-.18 1.21-.17h.33Zm11.53-1.62v1.53l-1.08.12-1.06.11a.08.08 0 0 1 0-.08V8.9c0-.03 2.01-.28 2.14-.29Zm0 5.39a.22.22 0 0 1 0 .11v1.41h-2.14v-1.46h.07Zm-4.32.12v1.4h-1.86v-1.31h1.74Zm2.17-2.64 1.35-.12a.09.09 0 0 1 0 .09v1.44h-1.41v-1.35s.06-.04.06-.06Zm-6 4.04H6.66V14.3h1.68v1.18a.11.11 0 0 1-.06.04Zm0-5.75a.43.43 0 0 1 0 .05V11h-.05l-1 .12-.48.05a.09.09 0 0 1 0-.05V10h.1l1.11-.16h.31a.14.14 0 0 1 .01-.07Zm-.56 2.28v1.27c0 .06-1 .07-1.06.06a.13.13 0 0 1 0-.06v-1.18a10.07 10.07 0 0 1 1.06-.09Z"/></svg>