<svg width="192" height="192" viewBox="0 0 192 192" fill="none" xmlns="http://www.w3.org/2000/svg">
<g clip-path="url(#clip0_900_2076)">
<path d="M146 68V117.873L135 132" stroke="black" stroke-width="12" stroke-linecap="round" stroke-linejoin="round"/>
<path d="M146 68C148.209 68 150 66.2091 150 64C150 61.7909 148.209 60 146 60C143.791 60 142 61.7909 142 64C142 66.2091 143.791 68 146 68Z" stroke="black" stroke-width="12" stroke-linecap="round" stroke-linejoin="round"/>
<path d="M45.9595 62.5L45.9595 132" stroke="black" stroke-width="12" stroke-linecap="round" stroke-linejoin="round"/>
<path d="M40 97H51.5" stroke="black" stroke-width="12" stroke-linecap="round" stroke-linejoin="round"/>
<path d="M96 100C97.6569 100 99 98.6569 99 97C99 95.3431 97.6569 94 96 94C94.3431 94 93 95.3431 93 97C93 98.6569 94.3431 100 96 100Z" stroke="black" stroke-width="12" stroke-linecap="round" stroke-linejoin="round"/>
<path d="M120.627 96C120.627 109.255 109.742 120 96.3136 120M72 96C72 82.7452 82.8856 72 96.3136 72" stroke="black" stroke-width="12" stroke-linecap="round" stroke-linejoin="round"/>
<path d="M165.5 36H26.5C23.4624 36 21 38.4624 21 41.5V150.5C21 153.538 23.4624 156 26.5 156H165.5C168.538 156 171 153.538 171 150.5V41.5C171 38.4624 168.538 36 165.5 36Z" stroke="black" stroke-width="12" stroke-linecap="round" stroke-linejoin="round"/>
</g>
<defs>
<clipPath id="clip0_900_2076">
<rect width="160" height="130" fill="white" transform="translate(16 31)"/>
</clipPath>
</defs>
</svg>
