<svg xmlns="http://www.w3.org/2000/svg" width="192" height="192" viewBox="0 0 192 192"><path fill="none" stroke="#000" stroke-linejoin="round" stroke-width="8" d="M66.954 104.03c0 14.703-.206 28.298.092 41.881.136 6.209 2.974 8.42 9.478 8.548 5.852.115 11.708.024 17.365.024 2.842 11.645-1.364 17.192-12.367 17.209-3.66.006-7.326.017-10.98-.173-14.521-.753-22.627-8.496-23.217-22.972-.48-11.777-.215-23.586-.237-35.381-.028-15.456.092-30.914-.088-46.368-.046-3.985 1.264-5.466 5.257-5.234 4.604.267 9.235.062 14.523.062v25.497h25.123v16.906h-24.95zM145 46.652c-.048 14.46-11.997 26.27-26.483 26.176-14.404-.094-26.239-12.196-26.048-26.636.187-14.174 11.999-25.842 26.205-25.888 14.438-.046 26.374 11.9 26.327 26.347zm-26.396-14.486c-7.915.083-14.239 6.497-14.223 14.426.016 8.377 6.371 14.462 14.867 14.235 7.984-.213 14.24-6.709 14.041-14.579-.197-7.776-6.857-14.163-14.685-14.081z"/></svg>