<?xml version="1.0" encoding="UTF-8"?>
<svg id="Layer_1" data-name="Layer 1" xmlns="http://www.w3.org/2000/svg" width="192" height="192" viewBox="0 0 192 192">
  <path d="m72.2,102.6c0,12-.2,23.2,0,34.3.1,5.1,2.4,6.9,7.8,7,4.8,0,9.6,0,14.2,0,2.3,9.5-1.1,14.1-10.1,14.1-3,0-6,0-9-.1-11.9-.6-18.5-7-19-18.8-.4-9.6-.2-19.3-.2-29,0-12.7,0-25.3,0-38,0-3.3,1-4.5,4.3-4.3,3.8.2,7.6,0,11.9,0v20.9h20.6v13.8h-20.4Z"/>
  <path d="m136.1,55.6c0,11.8-9.8,21.5-21.7,21.4-11.8,0-21.5-10-21.3-21.8.2-11.6,9.8-21.2,21.5-21.2,11.8,0,21.6,9.7,21.6,21.6Zm-21.6-11.9c-6.5,0-11.7,5.3-11.6,11.8,0,6.9,5.2,11.8,12.2,11.7,6.5-.2,11.7-5.5,11.5-11.9-.2-6.4-5.6-11.6-12-11.5Z"/>
</svg>