<svg width="192" height="192" viewBox="0 0 192 192" fill="none" xmlns="http://www.w3.org/2000/svg"><path d="M47 25a22 22 0 1 1-22 22m142 0a21.995 21.995 0 0 1-13.581 20.325A22 22 0 1 1 145 25" stroke="#000" stroke-width="12" stroke-linecap="round" stroke-linejoin="round"/><path d="M147 25H45c-11.046 0-20 8.954-20 20v102c0 11.046 8.954 20 20 20h102c11.046 0 20-8.954 20-20V45c0-11.046-8.954-20-20-20Z" stroke="#000" stroke-width="12" stroke-linecap="round" stroke-linejoin="round"/><path d="M96 25c-2 0-8 60 0 60s2-60 0-60Zm-46.177 88.618C36.5 140.5 53.266 142.329 50.744 167M48.03 95.63c5.845 9.832 1.793 17.984 1.793 17.984S27 118 29 85c0 0 13.183.8 19.029 10.63Zm102.989 21.56s-8.555-8.034-5.519-19.19c3.036-11.156 17.05-14 17.05-14 9.45 28.5-11.531 33.19-11.531 33.19Zm0 0c-8.357 9.762 3.463 34.143-19.019 47.81m-36-59c-21.177 0-30 12.698-30 12.698V145s8.823-4.535 30-4.535c21.176 0 30 4.535 30 4.535v-26.302S117.176 106 96 106Z" stroke="#000" stroke-width="10" stroke-linecap="round" stroke-linejoin="round"/></svg>