<svg width="192" height="192" viewBox="0 0 192 192" fill="none" xmlns="http://www.w3.org/2000/svg"><path d="M115.553 139.575c-11.516 15.599-24.524 32.866-35.619 28.83-11.095-4.036-5.256-35.171-2.92-54.199-4.76 3.515-17.911 10.503-22.934 8.197-5.024-2.306-5.557-8.154-4.803-15.234.754-7.079 7.538-21.51 13.908-32.688 6.371-11.177 18.73-27.165 27.15-35.77 8.422-8.604 17.977-16.448 25.361-15.656 15.544 1.668 3.757 47.906 2.193 56.556 5.84-1.73 15.85-6.864 22.19-2.306 6.339 4.558.657 18.473-1.169 22.485-3.042 6.688-11.84 24.186-23.357 39.785Z" stroke="#000" stroke-width="14" stroke-linecap="round" stroke-linejoin="round"/></svg>