<svg xmlns="http://www.w3.org/2000/svg" width="192" height="192" viewBox="0 0 192 192"><path fill="none" stroke="#000" stroke-linecap="round" stroke-linejoin="round" stroke-width="12" d="M42.9 135.2C69.3 109.1 95.6 83 122 56.9c15 15.2 30 30.3 45.1 45.5.6.6 2.3 2.4 2.8 5.3.6 3.5-1.1 6.1-1.5 6.8-6.6 6.9-13.3 13.8-19.9 20.7-8.7-8.9-17.5-17.8-26.2-26.7-8.6 9-17.2 17.9-25.8 26.9l-25.2-25.2M93.9 80 70.8 56.5v1.1h0l-.6 46.7m-29.4 29.3c-5.4-5.8-10.9-11.6-16.3-17.3-.6-.7-2.5-3.1-2.5-6.8 0-2.6 1-4.4 1.5-5.3C38.7 89 53.9 73.8 69.2 58.7"/></svg>