<svg xmlns="http://www.w3.org/2000/svg" width="192" height="192" fill="none"><rect width="142" height="142" x="25" y="25" stroke="#000" stroke-linecap="round" stroke-linejoin="round" stroke-width="12" rx="6"/><path stroke="#000" stroke-linecap="round" stroke-linejoin="round" stroke-width="12" d="m167 112-22.475-3.458a6 6 0 0 1-4.733-3.898l-4.395-12.209c-1.537-4.268-7.071-5.353-10.105-1.981l-9.504 10.56a6 6 0 0 1-4.46 1.986h-7.566c-1.15 0-2.277.331-3.244.953L88 112M25 53l17.183-.86a6 6 0 0 1 4.723 1.939l7.31 7.975A6 6 0 0 0 58.64 64h14.6a6 6 0 0 1 4.556 2.095l6.97 8.132a6 6 0 0 1 .13 7.653l-2.857 3.571a6 6 0 0 0-1.007 5.646L88 112m-14 55-6.553-14.042a6 6 0 0 0-1.194-1.705l-6.183-6.183a6 6 0 0 1-1.505-2.519l-3.937-13.124a6 6 0 0 1 3.697-7.363l5.081-1.848a6 6 0 0 0 1.13-.551l6.503-4.065a6 6 0 0 1 2.075-.809L88 112"/></svg>