<svg xmlns="http://www.w3.org/2000/svg" width="192" height="192" fill="none" stroke="#000" stroke-linecap="round" stroke-linejoin="round" stroke-width="8" viewBox="0 0 192 192"><path d="M104.606 82v65.797c-.514 7.968 9.358 10.073 14.394 10.092V170H74v-12.111c2.967 0 14.446 0 14.022-9.389V86"/><path stroke-width="6" d="M40.571 96.429h-6.857l-4 3.428 2.857 4L28 110.143l4.571 5.714-1.714 4.572h4.572c3.2 0 1.333 1.904 0 2.857l5.142 2.857 4.572-2.286L48 126.143l5.143-2.857v-5.715H60v-5.714l-2.286-3.428L60 105.571v-6.857l-9.714-4.571-4.572 2.286L42.286 93zm89.95 11.001-2.345 6.443 1.854 4.932 4.736-1.317 4.343 6.445 6.933-2.341 3.71 3.174 1.563-4.295c1.095-3.007 2.246-.602 2.685.977l4.444-3.856-.585-5.077 3.125-1.903-.925-5.81-5.37-1.954 2.345-6.444-5.369-1.954-4.004.975-1.903-3.125-6.444-2.346-7.618 7.565.584 5.078-4.394 2.049zm6.047-55.94v15.244l-7.622 2.345 2.932 2.932-7.623 4.69-3.518 5.277-6.449-3.518c-.587.196-2.463 1.29-5.277 4.105-2.815 2.814-3.909-1.173-4.105-3.518l-7.035 5.863H86.144l-1.173-6.45h-3.518l-2.345 5.277-4.69.587v-5.277l-2.932-4.69-3.518 2.344-5.277-4.69v-5.277h-4.105v-7.622h4.691l.586-4.105L58 51.49l3.518-6.45 4.104-.586 2.346-3.518c-.196-1.563-1.173-4.808-3.518-5.277-2.346-.469-1.369-2.54-.587-3.518l8.209-4.69 3.518-4.105h6.45l4.104 4.105 4.104-2.932c1.368-.977 4.808-2.345 7.623 0 2.814 2.345 3.517.977 3.517 0V21h5.277v5.277l4.105 2.345h3.518l2.931-2.345 5.864 6.45h2.931v3.518h2.932v2.931h2.932v4.105l4.69-.587v3.518h2.932v2.932z"/><path d="M57 168v-7m109 7v-7m-15 7v-7m-15 7v-7m-109 7v-7m15 7v-7m45-23-26.5-20.5m45 30.5 28.5-29"/></svg>