<svg width="192" height="192" viewBox="0 0 192 192" fill="none" xmlns="http://www.w3.org/2000/svg"><path d="M95.507 50.733a6 6 0 0 0-3.339 1.015l-33.813 22.65a6 6 0 0 0-2.66 4.985v52.2c0 4.51 4.791 7.408 8.786 5.314l28.24-14.806a5.995 5.995 0 0 1 5.572 0l28.24 14.806c3.995 2.094 8.786-.804 8.786-5.314v-52.2a5.998 5.998 0 0 0-2.661-4.985l-33.812-22.65a6 6 0 0 0-3.339-1.015Zm0 0v69.898" stroke="#000" stroke-width="12" stroke-linecap="round"/><rect x="25" y="25" width="142" height="142" rx="24" stroke="#000" stroke-width="12" stroke-linecap="round" stroke-linejoin="round"/></svg>