<svg xmlns="http://www.w3.org/2000/svg" width="192" height="192" fill="none" stroke="#000" stroke-linecap="round" stroke-width="12" viewBox="0 0 192 192"><path d="M30 36a6 6 0 01 6-6H156a6 6 0 01 6 6V156a6 6 0 01 -6 6H36a6 6 0 01 -6-6Z"/><path d="M135.319 131.583c0 4.51-4.791 7.408-8.786 5.314l-28.24-14.806a5.998 5.998 0 0 0-5.572 0l-28.24 14.806c-3.995 2.094-8.786-.804-8.786-5.314v-52.2a6 6 0 0 1 2.66-4.985l33.813-22.65a6 6 0 0 1 6.678 0l33.812 22.65a6 6 0 0 1 2.661 4.985v52.2ZM95.507 49.51v71.121"/></svg>