<svg width="192" height="192" viewBox="0 0 192 192" fill="none" xmlns="http://www.w3.org/2000/svg"><path d="M80 96v4l-14 28h14v22a6 6 0 0 0 6 6h18v8a6 6 0 0 0 6 6h30a6 6 0 0 0 6-6v-8c0-28 14-28 14-60M52 144v6m-22-11v16m100.353-97.637A40 40 0 0 1 160 96m-80 0a40 40 0 0 1 4.948-19.27" stroke="#000" stroke-width="12" stroke-linecap="round" stroke-linejoin="round"/><circle cx="67" cy="49" r="3" stroke="#000" stroke-width="6" stroke-linecap="round" stroke-linejoin="round"/><circle cx="87" cy="49" r="3" stroke="#000" stroke-width="6" stroke-linecap="round" stroke-linejoin="round"/><circle cx="107" cy="49" r="3" stroke="#000" stroke-width="6" stroke-linecap="round" stroke-linejoin="round"/><path d="M46 28a6 6 0 0 1 6-6h70a6 6 0 0 1 6 6v42a6 6 0 0 1-6 6h-7.515a5.998 5.998 0 0 0-4.242 1.757L100 88 89.757 77.757A6 6 0 0 0 85.515 76H52a6 6 0 0 1-6-6V28Z" stroke="#000" stroke-width="12" stroke-linecap="round" stroke-linejoin="round"/></svg>