<svg xmlns="http://www.w3.org/2000/svg" width="192" height="192" fill="none"><path stroke="#000" stroke-linecap="round" stroke-linejoin="round" stroke-width="12" d="M109 25H83a57 57 0 0 0-5.656 113.719L76 170l34.509-31.02A57 57 0 0 0 109 25"/><path stroke="#000" stroke-linecap="round" stroke-linejoin="round" stroke-width="10" d="m113.797 110.082-12.191-15.776a3.487 3.487 0 0 0-5.07-.47 3.486 3.486 0 0 1-5.137-.558L79.81 77.234a5.266 5.266 0 0 1 .431-6.693 5.27 5.27 0 0 0 .739-6.216l-6.75-11.84c-1.904-3.34-6.534-3.908-9.266-1.194-8.728 8.671-10.043 22.467-2.927 32.482l18.513 26.054c5.596 7.876 15.227 11.881 24.8 10.311l4.761-.78c4.359-.715 6.378-5.794 3.687-9.276ZM103 63.823a36 36 0 0 1 16.773 21.86M113 46.503a56 56 0 0 1 26.092 34.003"/></svg>