<svg xmlns="http://www.w3.org/2000/svg" width="192" height="192" fill="none" stroke="#000" stroke-linejoin="round" viewBox="0 0 192 192"><path stroke-width="12" d="M61.048 92.61 25.046 81.798c-3.93-1.18-4.102-6.642-.253-8.062l139.423-51.463c3.157-1.165 6.372 1.573 5.692 4.848L158.086 84.06c-25.431-5.92-53.538 5.92-60.23 36.179l-15.908 14.627a4.28 4.28 0 0 1-3.974 1.001M61.048 92.61l80.926-47.077-57 54.522-7 35.811M61.048 92.61l6.965 20.254 6.965 20.253a4.24 4.24 0 0 0 2.996 2.749"/><path stroke-width="8" d="M112 127.5c0 16.292 13.585 29.5 30.344 29.5q1.536 0 3.034-.146c6.575-.634 7.586-10.026 1.517-13.587 18.712 1.017 27.31-12.207 24.623-23.905C167.885 107.027 156.199 98 142.344 98 125.585 98 112 111.208 112 127.5z"/><path stroke-width="6" d="M159.539 131.569a3.043 3.043 0 0 0 0-6.104 3.043 3.043 0 0 0 0 6.104zm-34.39-1.017a3.043 3.043 0 0 0 0-6.104 3.043 3.043 0 0 0 0 6.104zm9.103-12.207a3.043 3.043 0 0 0 0-6.104 3.043 3.043 0 0 0 0 6.104zm16.183 1.017a3.043 3.043 0 0 0 0-6.104 3.043 3.043 0 0 0 0 6.104z"/></svg>