<svg xmlns="http://www.w3.org/2000/svg" width="192" height="192" fill="none" viewBox="0 0 192 192"><path stroke="#000" stroke-width="12" d="M92.706 169.025a5.56 5.56 0 0 0 6.289 0c13.877-9.804 27.754-19.707 41.631-29.51 2.495-1.801 6.589-5.002 9.983-10.404.2-.4.399-.7.699-1.1 3.194-5.302 4.692-11.504 4.692-17.706V41.782c0-2.301-1.498-4.402-3.694-5.202a467 467 0 0 0-23.361-7.202c-10.283-2.802-20.066-5.202-29.351-7.003a17.4 17.4 0 0 0-7.188 0c-9.285 1.9-19.168 4.201-29.351 7.003-8.186 2.3-16.073 4.701-23.361 7.202-2.197.8-3.694 2.8-3.694 5.202v68.623c0 6.202 1.498 12.304 4.692 17.706.2.4.4.7.699 1.1a36.9 36.9 0 0 0 9.983 10.404c13.478 9.703 27.355 19.606 41.331 29.41Z"/><path stroke="#000" stroke-linejoin="round" stroke-width="12" d="M103.031 48v33.739H126L88.031 132V97.106H66z"/></svg>