<svg xmlns="http://www.w3.org/2000/svg" width="192" height="192" fill="none"><ellipse cx="90" cy="76.5" stroke="#000" stroke-linejoin="round" stroke-width="12" rx="6" ry="10.5"/><ellipse cx="123" cy="77" stroke="#000" stroke-linejoin="round" stroke-width="10" rx="5" ry="9"/><path stroke="#000" stroke-linecap="round" stroke-linejoin="round" stroke-width="12" d="M150 74a52 52 0 0 0-32.1-48.042A52 52 0 0 0 98 22m52 52v70m-96 8V68s-8 6-20 6m20 78s0 18 12.923 18c7.385 0 9.23-10 16.615-10s8.308 10 15.693 10 11.077-10 18.461-10c7.385 0 9.533 6 15.693 6C150 166 150 144 150 144M98 22c-8.405 0-16.727 1.345-24.492 3.958s-14.82 6.444-20.763 11.272c-5.943 4.83-10.657 10.562-13.873 16.87C35.655 60.41 34 67.171 34 74"/></svg>