<svg xmlns="http://www.w3.org/2000/svg" width="192" height="192" fill="none"><path stroke="#000" stroke-linecap="round" stroke-linejoin="round" stroke-width="8" d="M91.662 76.734 65 88"/><path stroke="#000" stroke-linejoin="round" stroke-width="10" d="M55.77 72.84c-8.5-6.54-8.23-22.963 7.27-22.963 12.732 0 45.734 16.424 62.427 16.424 38.118 0 32.387-49.58-5.462-45.002 18.001 2.538 12.847 17.847 4.654 17.847-22.501 0-37.425-13.77-58.734-13.77-28.887 0-34.964 41.656-10.155 47.54"/><path stroke="#000" stroke-linejoin="round" stroke-width="8" d="M141.999 99.193 127.666 84.86l-14.333 14.334 14.333 14.333 14.333-14.333Z"/><path stroke="#000" stroke-linecap="round" stroke-linejoin="round" stroke-width="8" d="M127.659 85.877v-19.58m0 48.272v27.425M85.633 79.426l22.245-9.778v55.074l-22.297 9.791v-55.04"/><path stroke="#000" stroke-linecap="round" stroke-linejoin="round" stroke-width="10" d="M153.776 115.225c-6.808 16.424-17.962 30.272-50.81 30.272-23.963 0-38.118-16.232-38.118-39.811 0-31.578 6.808-39.386 24.424-47.733"/><path stroke="#000" stroke-linecap="round" stroke-linejoin="round" stroke-width="10" d="M153.776 115.225c3.347 23.848-13.885 55.773-55.81 55.773C65.385 170.998 37 147.92 37 115.456c0-33.733 30.77-50.888 52.272-57.503"/></svg>