<svg xmlns="http://www.w3.org/2000/svg" width="192" height="192" fill="none" viewBox="0 0 192 192"><path stroke="#000" stroke-linecap="round" stroke-linejoin="round" stroke-width="12" d="M25 41c0-8.837 7.163-16 16-16h110c8.837 0 16 7.163 16 16v87.373a16 16 0 0 1-4.686 11.313l-22.628 22.628A16 16 0 0 1 128.373 167H41c-8.837 0-16-7.163-16-16zm59 29h27M84 90h13M84 70v20"/><path stroke="#000" stroke-linecap="round" stroke-linejoin="round" stroke-width="12" d="M84.876 111a14 14 0 0 0 24.248-14A14 14 0 0 0 97 90"/></svg>