<svg xmlns="http://www.w3.org/2000/svg" width="192" height="192" viewBox="0 0 192 192"><path fill="none" stroke="#000" stroke-width="12" d="M146 30H46a16 16 0 0 0-16 16v100a16 16 0 0 0 16 16h75.373a16 16 0 0 0 11.313-4.686l24.628-24.628A16 16 0 0 0 162 121.373V46a16 16 0 0 0-16-16z"/><path d="M103.934 120.648q-2.664 0-4.104-1.44c-1.44-1.44-1.44-2.352-1.44-4.176v-4.104H82.262q-2.664 0-4.248-1.152-1.584-1.224-1.584-3.672 0-1.44.648-2.88.648-1.512 2.304-3.816L98.03 72.264q1.224-1.872 2.664-2.736 1.512-.936 3.528-.936 2.376 0 3.744 1.44 1.368 1.368 1.368 4.176v27.936h2.664q4.824 0 4.824 4.392t-4.824 4.392h-2.664v4.104q0 2.736-1.44 4.176-1.368 1.44-3.96 1.44m-5.544-18.504V85.368l-11.376 16.776z"/></svg>