<svg xmlns="http://www.w3.org/2000/svg" width="192" height="192" viewBox="0 0 192 192"><path fill="none" stroke="#000" stroke-width="12" d="M146 30H46a16 16 0 0 0-16 16v100a16 16 0 0 0 16 16h75.373a16 16 0 0 0 11.313-4.686l24.628-24.628A16 16 0 0 0 162 121.373V46a16 16 0 0 0-16-16z"/><path d="M64.852 120q-4.752 0-4.752-4.608 0-4.536 4.752-4.536h7.272V81.624l-5.256 3.168q-2.088 1.224-3.744.648c-1.656-.576-1.944-1.104-2.52-2.16q-.864-1.584-.504-3.384.36-1.872 2.376-3.168l10.008-6.048a18 18 0 0 1 3.024-1.512q1.584-.576 3.096-.576 2.16 0 3.384 1.152 1.296 1.152 1.296 3.384v37.728h6.552q4.68 0 4.68 4.536 0 4.608-4.68 4.608zm43.028.648q-3.168 0-4.392-2.088t.36-4.968l18.936-35.136h-19.872q-4.824 0-4.824-4.608t4.824-4.608h27.432q2.304 0 3.744 1.224 1.512 1.224 1.512 3.456 0 1.944-.576 3.384-.504 1.44-1.368 3.096l-19.44 36.648q-1.944 3.6-6.336 3.6"/></svg>