<svg xmlns="http://www.w3.org/2000/svg" width="192" height="192" viewBox="0 0 192 192"><path fill="none" stroke="#000" stroke-width="12" d="M146 30H46a16 16 0 0 0-16 16v100a16 16 0 0 0 16 16h75.373a16 16 0 0 0 11.313-4.686l24.628-24.628A16 16 0 0 0 162 121.373V46a16 16 0 0 0-16-16z"/><path d="M63.484 120q-2.736 0-3.96-1.224-1.224-1.296-1.224-3.744 0-1.584.792-2.952t2.16-2.808l13.536-14.256q3.024-3.24 4.32-5.76 1.368-2.52 1.368-5.04 0-6.48-7.992-6.48-2.088 0-4.32.576-2.16.576-4.536 2.016-1.944 1.152-3.6.504-1.584-.648-2.376-2.232a5.23 5.23 0 0 1-.36-3.312q.432-1.8 2.376-2.952a24.5 24.5 0 0 1 6.912-2.88q3.744-1.008 7.416-1.008 8.496 0 12.96 3.816 4.536 3.744 4.536 10.728 0 4.608-2.16 8.856-2.088 4.176-6.912 9.072l-9.792 9.936h16.704q4.68 0 4.68 4.536 0 4.608-4.68 4.608zm53.468.792q-3.672 0-7.56-.864-3.888-.936-7.128-2.88-2.088-1.152-2.592-2.952-.432-1.872.288-3.456.792-1.656 2.448-2.304 1.728-.72 3.816.432 5.04 2.736 10.512 2.736 4.104 0 6.336-2.016 2.304-2.016 2.304-5.4 0-3.456-2.232-5.544-2.16-2.088-5.904-2.088-1.872 0-3.816.648-1.944.576-3.888 2.088-.72.576-1.944 1.08a5.9 5.9 0 0 1-2.376.504q-4.392 0-4.392-4.104V74.064q0-4.824 4.824-4.824h23.112q4.824 0 4.824 4.608 0 4.536-4.824 4.536h-17.208V89.76q3.528-2.304 8.496-2.304 4.824 0 8.424 2.088 3.6 2.016 5.616 5.688t2.016 8.496q0 5.112-2.304 8.928t-6.624 5.976-10.224 2.16"/></svg>