<svg width="192" height="192" viewBox="0 0 192 192" fill="none" xmlns="http://www.w3.org/2000/svg"><path d="M45.9 165.899a13.987 13.987 0 0 1-10.12 4.099 13.995 13.995 0 0 1-12.4-20.058 14.008 14.008 0 0 1 3.362-4.442m100.848.182 40.736-42.436a6 6 0 0 0-.088-8.4L97.062 23.756a6 6 0 0 0-8.39-.088L46.23 64.32" stroke="#000" stroke-width="12" stroke-linecap="round" stroke-linejoin="round"/><path d="m26.74 145.5 34.013-31.387L46.32 99.68m-.42 66.22 34.587-32.053L92.32 145.68M46.322 99.678a25.002 25.002 0 0 1 0-35.356m81.356 81.356A25.01 25.01 0 0 1 110 153a25.006 25.006 0 0 1-17.678-7.322" stroke="#000" stroke-width="12" stroke-linecap="round" stroke-linejoin="round"/></svg>