<svg xmlns="http://www.w3.org/2000/svg" width="192" height="192" viewBox="0 0 192 192"><path fill="none" stroke="#000" stroke-width="12" d="M146 30H46a16 16 0 0 0-16 16v100a16 16 0 0 0 16 16h75.373a16 16 0 0 0 11.313-4.686l24.628-24.628A16 16 0 0 0 162 121.373V46a16 16 0 0 0-16-16z"/><path d="M84.35 120c-1.824 0-3.144-.408-3.96-1.224-.816-.864-1.224-2.112-1.224-3.744 0-1.056.264-2.04.792-2.952.528-.912 1.248-1.848 2.16-2.808l13.536-14.256c2.016-2.16 3.456-4.08 4.32-5.76.912-1.68 1.368-3.36 1.368-5.04 0-4.32-2.664-6.48-7.992-6.48-1.392 0-2.832.192-4.32.576-1.44.384-2.952 1.056-4.536 2.016-1.296.768-2.496.936-3.6.504-1.056-.432-1.848-1.176-2.376-2.232a5.23 5.23 0 0 1-.36-3.312c.288-1.2 1.08-2.184 2.376-2.952a24.478 24.478 0 0 1 6.912-2.88c2.496-.672 4.968-1.008 7.416-1.008 5.664 0 9.984 1.272 12.96 3.816 3.024 2.496 4.536 6.072 4.536 10.728 0 3.072-.72 6.024-2.16 8.856-1.392 2.784-3.696 5.808-6.912 9.072l-9.792 9.936h16.704c3.12 0 4.68 1.512 4.68 4.536 0 3.072-1.56 4.608-4.68 4.608H84.35z"/></svg>