<svg width="192" height="192" viewBox="0 0 192 192" fill="none" xmlns="http://www.w3.org/2000/svg"><path d="M25 41c0-8.837 7.163-16 16-16h110c8.837 0 16 7.163 16 16v87.373a16 16 0 0 1-4.686 11.313l-22.628 22.628A16 16 0 0 1 128.373 167H41c-8.837 0-16-7.163-16-16V41Zm84 43v20" stroke="#000" stroke-width="12" stroke-linecap="round" stroke-linejoin="round"/><circle cx="123" cy="104" r="14" stroke="#000" stroke-width="12" stroke-linecap="round" stroke-linejoin="round"/><path d="M109 84a14.002 14.002 0 0 1 8.642-12.934 14.002 14.002 0 0 1 15.257 3.034M80.9 93.9 57 118m0 0h28m-4.1-24.1A14 14 0 1 0 57 84" stroke="#000" stroke-width="12" stroke-linecap="round" stroke-linejoin="round"/></svg>