<svg xmlns="http://www.w3.org/2000/svg" width="192" height="192" fill="none" viewBox="0 0 192 192"><path stroke="#000" stroke-linecap="round" stroke-linejoin="round" stroke-width="12" d="M25 41c0-8.837 7.163-16 16-16h110c8.837 0 16 7.163 16 16v87.373a16 16 0 0 1-4.686 11.313l-22.628 22.628A16 16 0 0 1 128.373 167H41c-8.837 0-16-7.163-16-16zm55.9 52.9L57 118m0 0h28"/><path stroke="#000" stroke-linecap="round" stroke-linejoin="round" stroke-width="12" d="M80.9 93.9A14 14 0 1 0 57 84m78 0v20"/><circle cx="121" cy="84" r="14" stroke="#000" stroke-linecap="round" stroke-linejoin="round" stroke-width="12"/><path stroke="#000" stroke-linecap="round" stroke-linejoin="round" stroke-width="12" d="M135 104a14 14 0 0 1-23.899 9.899"/></svg>