<?xml version="1.0" encoding="UTF-8" standalone="no"?>
<!-- Created with Inkscape (http://www.inkscape.org/) -->

<svg
   width="192"
   height="192"
   viewBox="0 0 192 192"
   version="1.1"
   id="svg1"
   xmlns="http://www.w3.org/2000/svg"
   xmlns:svg="http://www.w3.org/2000/svg">
  <defs
     id="defs1" />
  <path
     id="path32-6"
     style="fill:none;fill-opacity:1;stroke:#000000;stroke-width:11.9998;stroke-linecap:round;stroke-linejoin:round;stroke-dasharray:none;stroke-opacity:1"
     d="m 78.281988,122.89026 c -7.294082,-2.78294 -12.370901,-9.80416 -7.089044,-9.80416 2.061718,0 4.675,-3.00057 5.60647,-6.43736 3.590141,-13.246419 23.547646,-10.852051 23.547646,2.82512 0,10.97449 -10.974891,17.64765 -22.065072,13.4164 z M 100.89153,99.91622 c -7.030079,-3.789781 -5.47305,-11.498009 3.73953,-18.512956 9.86681,-7.513096 16.85671,-12.857629 21.86579,-16.610143 13.36319,-10.010903 12.62846,-8.691071 14.80894,-6.987008 2.90515,2.270394 2.34304,3.992633 -3.57193,10.94385 -2.98795,3.511428 -6.75858,7.954918 -8.37921,9.874434 -20.34329,24.095143 -21.5661,25.009863 -28.46312,21.291823 z m 39.66403,61.86925 C 157.73279,153.12855 179.51177,43.671576 165.53332,32.090184 144.66047,14.796653 31.216721,74.601976 22.491687,98.604083 13.667346,122.87935 122.26628,171.00281 140.55556,161.78547 Z" />
</svg>
