<svg xmlns="http://www.w3.org/2000/svg" width="192" height="192" viewBox="0 0 192 192"><path fill="none" stroke="#000" stroke-width="12" d="M146 30H46a16 16 0 0 0-16 16v100a16 16 0 0 0 16 16h75.373a16 16 0 0 0 11.313-4.686l24.628-24.628A16 16 0 0 0 162 121.373V46a16 16 0 0 0-16-16z"/><path d="M64.852 120q-4.752 0-4.752-4.608 0-4.536 4.752-4.536h7.272V81.624l-5.256 3.168q-2.088 1.224-3.744.648c-1.656-.576-1.944-1.104-2.52-2.16q-.864-1.584-.504-3.384.36-1.872 2.376-3.168l10.008-6.048a18 18 0 0 1 3.024-1.512q1.584-.576 3.096-.576 2.16 0 3.384 1.152 1.296 1.152 1.296 3.384v37.728h6.552q4.68 0 4.68 4.536 0 4.608-4.68 4.608zm47.852.792q-3.096 0-6.264-.864a21.7 21.7 0 0 1-5.904-2.592q-1.8-1.008-2.232-2.736-.36-1.728.288-3.312.72-1.584 2.232-2.304 1.584-.72 3.744.288 2.232 1.224 4.248 1.728 2.088.504 4.032.504 11.808 0 11.808-15.48v-1.368q-1.512 3.6-4.68 5.616-3.168 1.944-7.272 1.944-4.32 0-7.704-2.088-3.312-2.16-5.256-5.832Q97.8 90.552 97.8 85.8q0-5.04 2.16-8.928 2.232-3.96 6.048-6.192 3.888-2.232 8.928-2.232 9.72 0 14.976 6.696 5.328 6.624 5.328 18.792 0 12.744-5.976 19.8t-16.56 7.056m2.88-27.288q3.312 0 5.4-2.232 2.088-2.304 2.088-5.976c0-3.672-.696-4.416-2.088-5.904q-2.088-2.304-5.4-2.304c-3.312 0-4.008.768-5.4 2.304q-2.088 2.232-2.088 5.904c0 3.672.696 4.44 2.088 5.976q2.088 2.232 5.4 2.232"/></svg>