<svg width="192" height="192" viewBox="0 0 192 192" fill="none" xmlns="http://www.w3.org/2000/svg"><path d="M25 41c0-8.837 7.163-16 16-16h110c8.837 0 16 7.163 16 16v87.373a16 16 0 0 1-4.686 11.313l-22.628 22.628A16 16 0 0 1 128.373 167H41c-8.837 0-16-7.163-16-16V41Z" stroke="#000" stroke-width="12" stroke-linecap="round" stroke-linejoin="round"/><path d="M121 94c2.613 0 5.174-.627 7.393-1.81 2.219-1.182 4.007-2.874 5.163-4.882 1.156-2.01 1.633-4.255 1.377-6.484-.257-2.23-1.235-4.352-2.826-6.13-1.591-1.776-3.73-3.136-6.175-3.925a16.209 16.209 0 0 0-7.663-.538c-2.563.437-4.932 1.48-6.839 3.01-1.907 1.532-3.277 3.49-3.953 5.653" stroke="#000" stroke-width="12" stroke-linecap="round" stroke-linejoin="round"/><path d="M107.477 109.106c.676 2.163 2.046 4.121 3.953 5.652 1.907 1.531 4.276 2.574 6.839 3.011 2.563.437 5.217.251 7.663-.538 2.445-.789 4.584-2.149 6.175-3.926 1.591-1.777 2.569-3.9 2.826-6.129.256-2.229-.221-4.475-1.377-6.483-1.156-2.01-2.944-3.7-5.163-4.883-2.219-1.183-4.78-1.81-7.393-1.81m-40.1-.1L57 118m0 0h28m-4.1-24.1A14 14 0 1 0 57 84" stroke="#000" stroke-width="12" stroke-linecap="round" stroke-linejoin="round"/></svg>