<svg width="164" height="164" viewBox="0 0 164 164" fill="none" xmlns="http://www.w3.org/2000/svg">
<path d="M34.3055 6.80195C41.5686 10.6369 48.273 15.6401 52.8557 24.8805C54.3868 27.9678 57.9656 29.655 61.1877 28.4327C78.7618 21.7661 85.3727 21.7324 102.897 28.6354C106.134 29.9108 109.77 28.2315 111.308 25.1095C115.865 15.8558 122.477 10.6889 129.701 6.81421C131.848 5.66246 134.506 6.05869 136.201 7.80913C158.209 30.5359 149.847 57.5629 145.022 65.2404C143.188 68.1587 142.173 70.367 141.622 71.9949C140.847 74.2868 142.698 75.7973 145.105 76.0443C146.09 76.1453 146.999 76.3154 147.919 76.5986C150.014 77.2435 151.11 79.402 151.246 81.5897C151.54 86.3036 152.569 89.8715 154.154 94.1214C155.257 97.0829 153.797 100.801 150.747 99.9717C150.19 99.8202 149.594 99.6134 148.931 99.3589C159.22 104.121 158.98 116.512 156.747 117.484C156.289 117.684 155.43 117.802 154.355 117.863C149.499 118.138 147.649 122.032 152.07 124.062L152.674 124.339C152.753 124.375 152.769 124.481 152.705 124.541C143.76 132.997 136.203 135.547 124.671 135.364C121.627 135.315 119.139 137.947 120.996 140.36C122.822 142.733 122.593 146.142 119.997 147.635C106.421 155.446 96.9476 157.653 81.9318 158C66.9172 157.653 57.5538 155.446 44.0016 147.637C41.4072 146.142 41.1781 142.733 43.0041 140.36C44.8605 137.947 42.3726 135.315 39.3286 135.364C27.7967 135.547 20.2403 132.997 11.2946 124.541C11.2314 124.481 11.2471 124.375 11.3261 124.339L11.9305 124.062C16.3509 122.032 14.5013 118.138 9.64498 117.863C8.56997 117.802 7.71143 117.684 7.25293 117.484C5.01958 116.512 4.78006 104.121 15.0695 99.3589C14.4059 99.6134 13.8104 99.8202 13.2529 99.9717C10.2031 100.801 8.74253 97.0829 9.84641 94.1214C11.4306 89.8715 12.4599 86.3036 12.7536 81.5897C12.8899 79.402 13.9857 77.2435 16.0806 76.5986C17.0006 76.3154 17.9102 76.1453 18.8951 76.0443C21.3019 75.7973 23.1534 74.2868 22.3781 71.9949C21.8274 70.367 20.8116 68.1587 18.9777 65.2404C14.1533 57.5629 5.79084 30.5359 27.7992 7.80913C29.4943 6.05869 32.1507 5.66423 34.3055 6.80195Z" stroke="black" stroke-width="12"/>
<path d="M60 90L59.5 95" stroke="black" stroke-width="8" stroke-linecap="round"/>
<path d="M59 63.5L62 63" stroke="black" stroke-width="6" stroke-linecap="round"/>
<path d="M103 90L103.5 95" stroke="black" stroke-width="8" stroke-linecap="round"/>
<path d="M104 63.5L101 63" stroke="black" stroke-width="6" stroke-linecap="round"/>
<path d="M72.1548 111C73.6222 111.049 74.8744 111.2 76.0087 111.524C79.5509 112.537 83.7349 112.499 87.2806 111.498C88.3665 111.192 89.5723 111.048 91 111C97.1011 111.535 97.5 115 97 117.5C96.5 120 88.9144 126.532 81.6548 127C74.3952 126.532 66.6548 120 66.1548 117.5C65.6548 115 66.0537 111.535 72.1548 111Z" stroke="black" stroke-width="6" stroke-linecap="round"/>
<path d="M55 127C57.255 131.617 59.3171 133.969 65.4314 136.561C66.1325 136.858 66.8912 137 67.6527 137L80.8651 135.569C81.2872 135.523 81.7129 135.522 82.1352 135.566L95.8473 137C96.6088 137 97.3675 136.858 98.0686 136.561C104.183 133.969 106.245 131.617 108.5 127" stroke="black" stroke-width="6" stroke-linecap="round"/>
</svg>
