<?xml version="1.0" encoding="UTF-8" standalone="no"?>
<!-- Created with Inkscape (http://www.inkscape.org/) -->

<svg
   width="192"
   height="192"
   viewBox="0 0 192 192"
   version="1.1"
   xml:space="preserve"
   xmlns="http://www.w3.org/2000/svg"
   xmlns:svg="http://www.w3.org/2000/svg">
  <g style="fill:none;stroke:#000;stroke-linecap:round;stroke-linejoin:round">
    <path
      style="stroke-width:12"
      d="M 97.493939,163.5338 A 10.28466,10.861477 0 0 0 104.82458,162.99262 L 159.18046,138.11736 A 8.0006657,8.4493833 0 0 0 164,130.36459 V 61.579565 A 8.0006657,8.4493833 0 0 0 159.18046,53.826785 L 104.82458,28.951532 A 10.985824,11.601964 0 0 0 96.982513,28.59039 8.3754558,8.8451936 0 0 0 91.514288,37.171976 V 154.77218 A 8.7450916,9.2355603 0 0 0 97.493939,163.5338 Z M 28.000002,67.673301 V 124.32641 M 49.171431,57.506191 V 134.47499 M 70.342859,47.339084 V 144.62359 M 91.514288,37.171976 V 154.77218" />
    <path
      style="stroke-width:10"
      d="M 112.08112,65.909014 V 126.09069 M 143.42888,72.68581 V 119.31389 M 112.08112,80.820058 143.42888,83.980174 M 112.08112,111.51334 143.42888,108.01952" />
  </g>
</svg>
