<svg xmlns="http://www.w3.org/2000/svg" xml:space="preserve" width="192" height="192" viewBox="0 0 192 192"><g style="fill:none;stroke:#000;stroke-linecap:round;stroke-linejoin:round"><path d="M97.626 169.492a11.192 11.82 0 0 0 7.977-.589l59.152-27.07a8.707 9.195 0 0 0 5.245-8.436V58.543a8.707 9.195 0 0 0-5.245-8.437l-59.152-27.07a11.955 12.626 0 0 0-8.534-.393 9.114 9.626 0 0 0-5.95 9.339v127.976a9.517 10.05 0 0 0 6.507 9.534M22 65.174v61.652M45.04 54.11v83.76m23.039-94.824v105.868m23.04-116.932v127.976" style="stroke-width:12"/><path d="M113.5 63.254v65.492m34.114-58.117v50.742M113.5 79.48l34.114 3.439M113.5 112.882l34.114-3.802" style="stroke-width:10"/></g></svg>