<?xml version="1.0" encoding="UTF-8" standalone="no"?>
<!-- Created with Inkscape (http://www.inkscape.org/) -->

<svg
   width="192"
   height="192"
   viewBox="0 0 192 192"
   version="1.1"
   xml:space="preserve"
   xmlns="http://www.w3.org/2000/svg"
   xmlns:svg="http://www.w3.org/2000/svg">
  <g style="fill:none;stroke:#000;stroke-linecap:round;stroke-linejoin:round">
  <path
   style="stroke-width:12"
   d="M 97.625759,169.49225 A 11.19213,11.819774 0 0 0 105.60322,168.90332 L 164.75521,141.83334 A 8.7066068,9.1948639 0 0 0 170,133.39655 V 58.5427 A 8.7066068,9.1948639 0 0 0 164.75521,50.1059 L 105.60322,23.035928 A 11.955161,12.625594 0 0 0 97.069209,22.642923 9.1144667,9.6255962 0 0 0 91.118489,31.981653 V 159.9576 A 9.5167174,10.050405 0 0 0 97.625759,169.49225 Z M 22.000001,65.17408 V 126.82563 M 45.039497,54.109936 V 137.86961 M 68.078992,43.045795 V 148.91361 M 91.118489,31.981653 V 159.9576"/>
  <path
   style="stroke-width:10"
   d="M 113.50004,63.254131 V 128.74557 M 147.61378,70.628837 V 121.37086 M 113.50004,79.480762 147.61378,82.919692 M 113.50004,112.88208 147.61378,109.08" />
</svg>
