<svg width="192" height="192" viewBox="0 0 192 192" fill="none" xmlns="http://www.w3.org/2000/svg"><rect x="76" y="76" width="40" height="26" rx="6" stroke="#000" stroke-width="10" stroke-linecap="round" stroke-linejoin="round"/><path d="M82 64v12m28-12v12m0-12a13.993 13.993 0 0 0-4.101-9.9 14.003 14.003 0 0 0-15.257-3.034A14.001 14.001 0 0 0 82 64" stroke="#000" stroke-width="10" stroke-linecap="round" stroke-linejoin="round"/><path d="M96 134c35.346 0 64-25.072 64-56s-28.654-56-64-56c-35.346 0-64 25.072-64 56 0 11.621 4.046 22.416 10.972 31.365L37 134l26.72-7.634C73.197 131.219 84.227 134 96 134Z" stroke="#000" stroke-width="12" stroke-linecap="round" stroke-linejoin="round"/><circle cx="53" cy="166" r="5" stroke="#000" stroke-width="10" stroke-linecap="round" stroke-linejoin="round"/><circle cx="96" cy="166" r="5" stroke="#000" stroke-width="10" stroke-linecap="round" stroke-linejoin="round"/><circle cx="139" cy="166" r="5" stroke="#000" stroke-width="10" stroke-linecap="round" stroke-linejoin="round"/></svg>