<svg width="192" height="192" viewBox="0 0 192 192" fill="none" xmlns="http://www.w3.org/2000/svg"><path d="M157.903 55.438C163.284 52.861 167 47.364 167 41c0-8.837-7.163-16-16-16-6.365 0-11.861 3.716-14.438 9.097m21.341 21.341A15.937 15.937 0 0 1 151 57c-8.837 0-16-7.163-16-16 0-2.472.561-4.813 1.562-6.903m21.341 21.341C165.551 67.087 170 81.024 170 96c0 40.869-33.131 74-74 74-12.492 0-24.26-3.095-34.581-8.56m75.143-127.343C124.913 26.449 110.976 22 96 22c-40.87 0-74 33.13-74 74 0 12.492 3.095 24.26 8.56 34.581m30.86 30.859A21.905 21.905 0 0 0 66 148c0-12.15-9.85-22-22-22-5.06 0-9.723 1.709-13.44 4.581m30.86 30.859C57.396 166.647 51.089 170 44 170c-12.15 0-22-9.85-22-22 0-7.089 3.353-13.396 8.56-17.419" stroke="#000" stroke-width="12" stroke-linecap="round" stroke-linejoin="round"/><circle cx="137" cy="110" r="5" stroke="#000" stroke-width="10" stroke-linecap="round" stroke-linejoin="round"/><path d="M67.765 163.126a54.994 54.994 0 0 0 61.866-25.626 54.999 54.999 0 1 0-100.757-13.265" stroke="#000" stroke-width="10" stroke-linecap="round" stroke-linejoin="round"/></svg>