<svg xmlns="http://www.w3.org/2000/svg" width="192" height="192" fill="none" viewBox="0 0 192 192"><rect width="40" height="26" x="76" y="76" stroke="#000" stroke-linecap="round" stroke-linejoin="round" stroke-width="10" rx="6"/><path stroke="#000" stroke-linecap="round" stroke-linejoin="round" stroke-width="10" d="M82 64v12m28-12v12m0-12a14 14 0 0 0-28 0"/><path stroke="#000" stroke-linecap="round" stroke-linejoin="round" stroke-width="12" d="M96 134c35.346 0 64-25.072 64-56s-28.654-56-64-56-64 25.072-64 56c0 11.621 4.046 22.416 10.972 31.365L37 134l26.72-7.634C73.197 131.219 84.227 134 96 134"/><circle cx="53" cy="166" r="5" stroke="#000" stroke-linecap="round" stroke-linejoin="round" stroke-width="10"/><circle cx="96" cy="166" r="5" stroke="#000" stroke-linecap="round" stroke-linejoin="round" stroke-width="10"/><circle cx="139" cy="166" r="5" stroke="#000" stroke-linecap="round" stroke-linejoin="round" stroke-width="10"/></svg>