<?xml version="1.0" encoding="UTF-8" standalone="no"?>
<svg
   width="192"
   height="192"
   version="1.1"
   id="svg18"
   sodipodi:docname="threema.svg"
   xmlns:inkscape="http://www.inkscape.org/namespaces/inkscape"
   xmlns:sodipodi="http://sodipodi.sourceforge.net/DTD/sodipodi-0.dtd"
   xmlns="http://www.w3.org/2000/svg"
   xmlns:svg="http://www.w3.org/2000/svg">
  <defs
     id="defs22" />
  <sodipodi:namedview
     id="namedview20"
     pagecolor="#ffffff"
     bordercolor="#000000"
     borderopacity="0.25"
     inkscape:showpageshadow="2"
     inkscape:pageopacity="0.0"
     inkscape:pagecheckerboard="0"
     inkscape:deskcolor="#d1d1d1"
     showgrid="false" />
  <g
     fill="none"
     id="g16">
    <path
       d="m 43.516,108.672 a 64.034,55.026 0 0 1 9.856,-72.646 64.034,55.026 0 0 1 85.111,-0.064 64.034,55.026 0 0 1 10.004,72.631 64.034,55.026 0 0 1 -82.777,17.012"
       style="fill:#000000;fill-opacity:0;stroke:#000000;stroke-width:12;stroke-linecap:round;stroke-linejoin:round;stroke-miterlimit:6;stroke-dasharray:none;stroke-opacity:1"
       id="path2" />
    <path
       d="m 43.502,108.845 -6.065,25.465 28.128,-8.73"
       style="fill:#000000;fill-opacity:0;stroke:#000000;stroke-width:12;stroke-linecap:round;stroke-linejoin:round;stroke-opacity:1;paint-order:stroke fill markers"
       id="path4" />
    <path
       d="M 81.976,63.588 A 14.588,14.588 0 0 1 96.564,49 14.588,14.588 0 0 1 111.151,63.588 M 81.993,63.39 v 11.596 m 29.172,-11.42 0.056,11.003"
       style="fill:#000000;fill-opacity:0;stroke:#000000;stroke-width:8;stroke-linecap:round;stroke-linejoin:round;stroke-miterlimit:6;stroke-dasharray:none;stroke-opacity:1;paint-order:stroke fill markers"
       id="path6" />
    <path
       id="ellipse8"
       style="fill:#000000;fill-opacity:0;stroke:#000000;stroke-width:8;stroke-linecap:round;stroke-linejoin:round;stroke-miterlimit:6;paint-order:stroke fill markers"
       d="m 63.982,162.498 a 9.323,9.5019999 0 0 1 -9.323,9.502 9.323,9.5019999 0 0 1 -9.323,-9.502 9.323,9.5019999 0 0 1 9.323,-9.502 9.323,9.5019999 0 0 1 9.323,9.502 z" />
    <path
       id="ellipse10"
       style="fill:#000000;fill-opacity:0;stroke:#000000;stroke-width:8;stroke-linecap:round;stroke-linejoin:round;stroke-miterlimit:6;paint-order:stroke fill markers"
       d="m 104.915,162.498 a 9.323,9.5019999 0 0 1 -9.322997,9.502 9.323,9.5019999 0 0 1 -9.323,-9.502 9.323,9.5019999 0 0 1 9.323,-9.502 9.323,9.5019999 0 0 1 9.322997,9.502 z" />
    <path
       id="ellipse12"
       style="fill:#000000;fill-opacity:0;stroke:#000000;stroke-width:8;stroke-linecap:round;stroke-linejoin:round;stroke-miterlimit:6;paint-order:stroke fill markers"
       d="m 146.508,162.498 a 9.323,9.5019999 0 0 1 -9.323,9.502 9.323,9.5019999 0 0 1 -9.323,-9.502 9.323,9.5019999 0 0 1 9.323,-9.502 9.323,9.5019999 0 0 1 9.323,9.502 z" />
    <path
       d="m 116.14,76.146 v 25.459 H 76.998 V 76.146 h 39.052"
       style="fill:#000000;fill-opacity:0;stroke:#000000;stroke-width:8;stroke-linecap:round;stroke-linejoin:round;stroke-miterlimit:6;paint-order:stroke fill markers"
       id="path14" />
  </g>
</svg>
