<?xml version="1.0" encoding="UTF-8" standalone="no"?>
<svg
   width="100%"
   height="100%"
   viewBox="0 0 192 192"
   version="1.1"
   xml:space="preserve"
   style="fill-rule:evenodd;clip-rule:evenodd;stroke-linejoin:round;stroke-miterlimit:2;"
   id="svg4573"
   sodipodi:docname="threema.svg"
   inkscape:version="1.2.1 (9c6d41e410, 2022-07-14)"
   xmlns:inkscape="http://www.inkscape.org/namespaces/inkscape"
   xmlns:sodipodi="http://sodipodi.sourceforge.net/DTD/sodipodi-0.dtd"
   xmlns="http://www.w3.org/2000/svg"
   xmlns:svg="http://www.w3.org/2000/svg"><defs
   id="defs4577" /><sodipodi:namedview
   id="namedview4575"
   pagecolor="#ffffff"
   bordercolor="#000000"
   borderopacity="0.25"
   inkscape:showpageshadow="2"
   inkscape:pageopacity="0.0"
   inkscape:pagecheckerboard="0"
   inkscape:deskcolor="#d1d1d1"
   showgrid="false"
   inkscape:zoom="5.3489583"
   inkscape:cx="95.906524"
   inkscape:cy="95.906524"
   inkscape:window-width="1274"
   inkscape:window-height="1303"
   inkscape:window-x="1282"
   inkscape:window-y="36"
   inkscape:window-maximized="0"
   inkscape:current-layer="svg4573" />
    <path
   d="M871.991,793.159C871.466,795.2 872.051,797.367 873.532,798.867C875.012,800.366 877.171,800.98 879.218,800.482L912.987,792.278C922.448,796.032 932.947,798.129 944,798.129C986.148,798.129 1020,767.703 1020,730.739C1020,693.775 986.148,663.348 944,663.348C901.852,663.348 868,693.775 868,730.739C868,743.53 872.019,755.507 879.036,765.729C879.036,765.729 871.991,793.159 871.991,793.159ZM886.1,786.461L891.356,765.998C891.81,764.231 891.435,762.353 890.338,760.896C883.82,752.24 880,741.879 880,730.739C880,699.937 908.879,675.348 944,675.348C979.121,675.348 1008,699.937 1008,730.739C1008,761.54 979.121,786.129 944,786.129C933.9,786.129 924.337,784.099 915.818,780.468C914.628,779.961 913.306,779.852 912.049,780.157L886.1,786.461ZM923.859,719.479L921.853,719.479C915.23,719.479 909.853,724.856 909.853,731.479L909.853,754.08C909.853,760.703 915.23,766.08 921.853,766.08L966.724,766.08C973.347,766.08 978.724,760.703 978.724,754.08C978.724,754.08 978.724,731.479 978.724,731.479C978.724,724.856 973.347,719.479 966.724,719.479L964.719,719.479L964.719,714.02C964.719,702.744 955.564,693.59 944.289,693.59C933.013,693.59 923.859,702.744 923.859,714.02L923.859,719.479ZM921.853,731.479L966.724,731.479L966.724,754.08C966.724,754.08 921.853,754.08 921.853,754.08L921.853,731.479ZM952.719,719.479L952.719,714.02C952.719,709.367 948.941,705.59 944.289,705.59C939.636,705.59 935.859,709.367 935.859,714.02L935.859,719.479L952.719,719.479Z"
   id="path4567"
   style="fill-rule:evenodd;clip-rule:evenodd;stroke-linejoin:round;stroke-miterlimit:2"
   transform="translate(-848,-636)"
   inkscape:label="threema" />
</svg>
