<svg xmlns="http://www.w3.org/2000/svg" width="192" height="192" viewBox="0 0 192 192"><g fill="none" stroke="#000" stroke-linecap="round" stroke-linejoin="round"><path stroke-width="12" d="M43.516 108.672a64.034 55.026 0 0 1 94.967-72.71 64.034 55.026 0 0 1-72.773 89.643m-22.208-16.76-6.065 25.465 28.128-8.73"/><path stroke-width="8" d="M81.976 63.588A14.59 14.59 0 0 1 96.564 49a14.59 14.59 0 0 1 14.587 14.588m-29.158-.198v11.596m29.172-11.42.056 11.003m-47.239 87.929a9.323 9.502 0 0 1-18.646 0 9.323 9.502 0 0 1 18.646 0m40.933 0a9.323 9.502 0 0 1-18.646 0 9.323 9.502 0 0 1 18.646 0m41.593 0a9.323 9.502 0 0 1-18.646 0 9.323 9.502 0 0 1 18.646 0M116.14 76.146v25.459H76.998V76.146h39.052"/></g></svg>