<svg xmlns="http://www.w3.org/2000/svg" width="192" height="192"><g fill="none" stroke="#000" stroke-linecap="round" stroke-linejoin="round"><path stroke-miterlimit="6" stroke-width="12" d="M43.516 108.672a64.034 55.026 0 0 1 9.856-72.646 64.034 55.026 0 0 1 85.111-.064 64.034 55.026 0 0 1 10.004 72.631 64.034 55.026 0 0 1-82.777 17.012"/><path stroke-width="12" d="m43.502 108.845-6.065 25.465 28.128-8.73" paint-order="stroke fill markers"/><path stroke-miterlimit="6" stroke-width="8" d="M81.976 63.588A14.588 14.588 0 0 1 96.564 49a14.588 14.588 0 0 1 14.587 14.588m-29.158-.198v11.596m29.172-11.42.056 11.003m-47.239 87.929A9.323 9.502 0 0 1 54.659 172a9.323 9.502 0 0 1-9.323-9.502 9.323 9.502 0 0 1 9.323-9.502 9.323 9.502 0 0 1 9.323 9.502zm40.933 0A9.323 9.502 0 0 1 95.592 172a9.323 9.502 0 0 1-9.323-9.502 9.323 9.502 0 0 1 9.323-9.502 9.323 9.502 0 0 1 9.323 9.502zm41.593 0a9.323 9.502 0 0 1-9.323 9.502 9.323 9.502 0 0 1-9.323-9.502 9.323 9.502 0 0 1 9.323-9.502 9.323 9.502 0 0 1 9.323 9.502zM116.14 76.146v25.459H76.998V76.146h39.052" paint-order="stroke fill markers"/></g></svg>