<svg xmlns="http://www.w3.org/2000/svg" width="192" height="192" fill="none" viewBox="0 0 192 192"><path stroke="#000" stroke-linejoin="round" stroke-width="12" d="m69.178 62.653 43.635-20.167c-10.164 9.811-12.524 15.57-7.079 27.92l21.995 46.082c2.28 4.776.218 10.496-4.585 12.716l-43.55 20.127c10.531-10.612 12.525-15.57 8.17-24.16l-23.21-49.886c-2.218-4.766-.145-10.429 4.624-12.632zM157.132 22l-31.515 14.624c-7.849 3.642-8.927 11.958-5.958 20.234 2.598 7.24 7.793 13.287 8.407 12.301zM34.868 170l31.515-14.624c7.849-3.642 8.927-11.958 5.958-20.234-2.598-7.24-7.793-13.287-8.407-12.301z"/></svg>