<svg xmlns="http://www.w3.org/2000/svg" width="192" height="192" fill="none"><path stroke="#000" stroke-linecap="round" stroke-linejoin="round" stroke-width="10" d="m71 78 25 24 25-24M61 94c0 48 58 48 58 48m-16-20.56L119 142"/><path stroke="#000" stroke-linecap="round" stroke-linejoin="round" stroke-width="10" d="M119 142c-72 0-76-38-76-38-9 65 52.5 65 52.5 65"/><path stroke="#000" stroke-linecap="round" stroke-linejoin="round" stroke-width="10" d="M61 94s4-42-16-54c3 24-13 13-13 49l-9.039-12.039a75 75 0 1 0 131.801-29.566c4.45-.537 9.841-.508 16.238.605 0 0-19-16-35-10 0 0 2.358-1.179 6.726-2.666 5.485-1.867 14.14-4.22 25.274-5.334 0 0-52-21-74 16-16 4.5-15 20-15 20"/><path stroke="#000" stroke-linecap="round" stroke-linejoin="round" stroke-width="10" d="M61 94c0-15.464 15.67-28 35-28s35 12.536 35 28c0 13.546-12.024 24.846-28 27.44"/><ellipse cx="116.157" cy="46.742" stroke="#000" stroke-linecap="round" stroke-linejoin="round" stroke-width="6" rx="3" ry="1" transform="rotate(-15 116.157 46.742)"/></svg>