<?xml version="1.0" encoding="UTF-8" standalone="no"?>
<svg
   width="192"
   height="192"
   fill="none"
   stroke="#000"
   stroke-linejoin="round"
   stroke-width="10"
   viewBox="0 0 192 192"
   version="1.1"
   id="svg2"
   xml:space="preserve"
   xmlns="http://www.w3.org/2000/svg"
   xmlns:svg="http://www.w3.org/2000/svg"><defs
     id="defs2" /><path
     d="M 69.177771,62.65263 112.81275,42.486115 c -10.164,9.811147 -12.52421,15.570566 -7.07874,27.919506 l 21.99449,46.081999 c 2.28049,4.7764 0.21827,10.49688 -4.58472,12.7165 l -43.549567,20.12662 c 10.531274,-10.6118 12.525165,-15.57056 8.169164,-24.1603 L 64.553197,75.284601 c -2.216911,-4.765957 -0.144251,-10.4285 4.624574,-12.631971 z"
     id="path2"
     style="opacity:1;stroke-width:12;stroke-dasharray:none" /><path
     style="opacity:1;fill:none;stroke:#000000;stroke-width:12;stroke-linecap:butt;stroke-linejoin:round;stroke-dasharray:none;stroke-opacity:1"
     d="M 157.13156,21.999217 125.61652,36.62421 c -7.84844,3.642179 -8.92687,11.958147 -5.9572,20.233866 2.59782,7.239542 7.79291,13.287038 8.40655,12.301272 z"
     id="path3" /><path
     style="fill:none;stroke:#000000;stroke-width:12;stroke-linecap:butt;stroke-linejoin:round;stroke-dasharray:none;stroke-opacity:1"
     d="m 34.868438,170.00078 31.515034,-14.62499 c 7.848442,-3.64218 8.92687,-11.95815 5.957207,-20.23387 -2.597828,-7.23954 -7.792916,-13.28704 -8.406552,-12.30127 z"
     id="path3-3" /></svg>
