<svg xmlns="http://www.w3.org/2000/svg" width="192" height="192" fill="none"><circle cx="39" cy="39" r="17" stroke="#000" stroke-linecap="round" stroke-linejoin="round" stroke-width="12"/><circle cx="153" cy="39" r="17" stroke="#000" stroke-linecap="round" stroke-linejoin="round" stroke-width="12"/><circle cx="96" cy="96" r="17" stroke="#000" stroke-linecap="round" stroke-linejoin="round" stroke-width="12"/><circle cx="39" cy="153" r="17" stroke="#000" stroke-linecap="round" stroke-linejoin="round" stroke-width="12"/><path stroke="#000" stroke-linecap="round" stroke-linejoin="round" stroke-width="12" d="M56 79 39 96m0 0-17 17m17-17L22 79m17 17 14 14m60-88L96 39m0 0L79 56m17-17L79 22m17 17 14 14m60 83-17 17m0 0-17 17m17-17-17-17m17 17 17 17m-57-34-17 17m0 0-17 17m17-17-14-14m14 14 17 17m-30-61-31 31m88-88-32 32"/></svg>