<svg xmlns="http://www.w3.org/2000/svg" width="192" height="192" fill="none"><circle cx="96" cy="39" r="17" stroke="#000" stroke-linecap="round" stroke-linejoin="round" stroke-width="12"/><circle cx="96" cy="96" r="17" stroke="#000" stroke-linecap="round" stroke-linejoin="round" stroke-width="12"/><circle cx="96" cy="153" r="17" stroke="#000" stroke-linecap="round" stroke-linejoin="round" stroke-width="12"/><circle cx="39" cy="153" r="17" stroke="#000" stroke-linecap="round" stroke-linejoin="round" stroke-width="12"/><path stroke="#000" stroke-linecap="round" stroke-linejoin="round" stroke-width="12" d="M56 79 39 96m0 0-17 17m17-17L22 79m17 17 17 17m0-91L39 39m0 0L22 56m17-17L22 22m17 17 17 17m114-34-17 17m0 0-17 17m17-17-17-17m17 17 17 17m0 80-17 17m0 0-17 17m17-17-17-17m17 17 17 17"/></svg>