<svg width="192" height="192" viewBox="0 0 192 192" fill="none" xmlns="http://www.w3.org/2000/svg">
<mask id="path-1-inside-1_238_293" fill="white">
<path fill-rule="evenodd" clip-rule="evenodd" d="M16 79.6531V93.8687H33.2557C46.4117 93.8687 50.5681 93.9253 50.75 94.1072C51.0934 94.4507 51.0934 112.968 50.75 113.311C50.5681 113.493 46.4117 113.55 33.2557 113.55H16V127.765V141.98L92.9847 141.925C177.997 141.864 170.982 141.965 172.315 140.785C173.538 139.704 173.852 139.319 174.318 138.334L174.84 137.232V103.618V70.0054L174.344 69.0576C173.667 67.7625 172.55 66.6313 171.361 66.0369L170.367 65.5399L93.1835 65.4887L16 65.4375V79.6531ZM113.964 82.5357C114.504 82.5377 114.759 83.0585 114.44 83.5083C114.315 83.6847 114.076 84.0977 113.91 84.4257C113.743 84.7538 113.387 85.38 113.119 85.8173C112.85 86.2547 112.486 86.8809 112.311 87.2089C112.136 87.5369 111.776 88.1632 111.51 88.6005C111.245 89.0379 110.888 89.6641 110.715 89.9921C110.543 90.3201 110.186 90.9463 109.921 91.3837C109.657 91.8211 109.264 92.5591 109.048 93.0238C108.831 93.4885 108.572 93.8687 108.47 93.8687C108.369 93.8687 108.231 94.0859 108.164 94.3518C108.098 94.6177 107.931 94.9531 107.795 95.0973C107.659 95.2414 107.243 95.966 106.872 96.7075C106.501 97.449 106.119 98.1036 106.024 98.1627C105.929 98.2214 105.717 98.5539 105.554 98.9018C105.391 99.2497 105.041 99.8923 104.776 100.33C104.511 100.767 104.153 101.393 103.981 101.721C103.808 102.049 103.447 102.675 103.179 103.113C102.91 103.55 102.546 104.176 102.371 104.504C102.196 104.832 101.839 105.459 101.577 105.896C101.05 106.779 100.525 107.728 99.9839 108.779C99.7871 109.161 99.5555 109.522 99.469 109.581C99.3826 109.639 99.1733 110.02 99.0033 110.426C98.8339 110.832 98.6137 111.164 98.5143 111.164C98.4154 111.164 98.2752 111.432 98.2037 111.758C98.1321 112.085 97.9815 112.409 97.8692 112.478C97.7574 112.548 97.5342 112.884 97.3742 113.226C97.2137 113.568 96.8682 114.206 96.6063 114.643C96.3449 115.08 95.9448 115.751 95.7182 116.134C95.4916 116.517 95.0915 117.188 94.8301 117.625C94.5681 118.062 94.2128 118.689 94.0408 119.017C93.8684 119.345 93.5076 119.971 93.2387 120.408C92.9703 120.846 92.603 121.517 92.4226 121.899C92.2427 122.282 92.026 122.64 91.941 122.694C91.856 122.749 91.6433 123.139 91.4674 123.561C91.0449 124.575 89.5917 124.266 89.5619 123.156C89.5584 123.027 89.4178 122.784 89.2498 122.616C89.0818 122.448 88.81 122.017 88.6454 121.658C88.4809 121.298 88.1296 120.647 87.8647 120.209C87.5998 119.772 87.2389 119.146 87.064 118.818C86.8886 118.49 86.5282 117.864 86.2628 117.426C85.9979 116.989 85.6515 116.356 85.493 116.019C85.3345 115.682 85.071 115.296 84.908 115.161C84.7445 115.025 84.5552 114.659 84.4866 114.348C84.4185 114.036 84.2421 113.736 84.0949 113.679C83.9478 113.623 83.7674 113.302 83.6939 112.967C83.6203 112.631 83.4831 112.357 83.3897 112.357C83.2963 112.357 83.1064 112.044 82.9683 111.661C82.8296 111.278 82.6546 110.965 82.5791 110.965C82.5036 110.965 82.2953 110.63 82.1164 110.22C81.938 109.81 81.5289 109.072 81.2079 108.58C80.8868 108.088 80.4863 107.417 80.3173 107.089C80.1483 106.761 79.7934 106.135 79.5285 105.697C79.2631 105.26 78.9028 104.634 78.7274 104.306C78.5524 103.978 78.1886 103.351 77.9203 102.914C77.6514 102.477 77.297 101.85 77.132 101.522C76.9675 101.194 76.6082 100.568 76.3344 100.131C76.06 99.6935 75.6922 99.0225 75.5163 98.6398C75.3409 98.2572 75.1281 97.8993 75.0432 97.8447C74.9582 97.79 74.7415 97.4321 74.5616 97.0495C74.3812 96.6668 74.0164 95.9958 73.7505 95.5585C73.0164 94.3503 72.507 93.4398 72.1655 92.7256C71.9961 92.3702 71.7824 92.0795 71.6909 92.0795C71.6 92.0795 71.3793 91.744 71.2009 91.334C71.0225 90.924 70.5145 89.9623 70.0717 89.1969C69.6294 88.4315 69.113 87.4922 68.9246 87.1095C68.7363 86.7268 68.5111 86.3611 68.4237 86.2969C68.2666 86.1811 68.0847 85.869 67.0559 83.9516C66.4983 82.9124 66.554 82.6609 67.3755 82.5088C67.6543 82.4571 97.3667 82.474 113.964 82.5357ZM132.975 83.3254C133.448 83.5053 133.796 84.0182 134.598 85.7179C134.779 86.1006 134.992 86.4585 135.072 86.5131C135.213 86.6095 135.472 87.0598 136.213 88.5011C136.41 88.8838 136.635 89.2446 136.712 89.3033C136.79 89.3619 136.998 89.7198 137.174 90.0985C137.35 90.4772 137.71 91.1451 137.975 91.5825C138.24 92.0198 138.6 92.6461 138.774 92.9741C139.492 94.3249 139.812 94.8736 140.05 95.1609C140.291 95.4511 140.646 96.0599 141.324 97.3477C141.497 97.6757 141.999 98.5703 142.44 99.3356C142.881 100.101 143.396 101.04 143.584 101.423C143.773 101.806 143.993 102.148 144.073 102.184C144.154 102.22 144.4 102.623 144.621 103.079C144.841 103.535 145.241 104.266 145.51 104.703C145.779 105.141 146.1 105.744 146.224 106.045C146.349 106.346 146.522 106.592 146.609 106.592C146.695 106.592 146.915 106.927 147.098 107.337C147.28 107.747 147.647 108.441 147.913 108.878C148.179 109.315 148.538 109.942 148.71 110.27C148.882 110.598 149.239 111.224 149.503 111.661C149.767 112.099 150.091 112.68 150.223 112.953C150.356 113.227 150.579 113.588 150.718 113.756C150.981 114.075 152.132 116.119 152.728 117.327C152.917 117.71 153.176 118.09 153.305 118.173C153.433 118.256 153.595 118.585 153.665 118.905C153.736 119.224 153.926 119.597 154.09 119.733C154.253 119.868 154.516 120.255 154.675 120.591C154.833 120.928 155.181 121.561 155.448 121.999C155.715 122.436 156.028 123.018 156.143 123.291C156.258 123.564 156.449 123.955 156.567 124.159C156.694 124.378 156.709 124.604 156.604 124.708C156.384 124.929 109.035 124.959 108.82 124.74C108.674 124.59 109.549 122.503 109.844 122.297C109.923 122.242 110.131 121.884 110.306 121.502C110.482 121.119 110.85 120.448 111.124 120.011C111.398 119.573 111.76 118.947 111.927 118.619C112.095 118.291 112.453 117.665 112.721 117.228C112.99 116.79 113.351 116.164 113.523 115.836C113.695 115.508 114.053 114.882 114.318 114.444C114.583 114.007 114.938 113.381 115.107 113.053C115.276 112.725 115.676 112.054 115.996 111.562C116.316 111.07 116.718 110.357 116.891 109.978C117.063 109.6 117.267 109.242 117.345 109.183C117.423 109.124 117.793 108.495 118.168 107.785C118.542 107.074 118.9 106.448 118.963 106.393C119.026 106.338 119.236 105.98 119.429 105.598C119.623 105.215 119.997 104.544 120.26 104.107C120.524 103.669 120.881 103.043 121.053 102.715C121.225 102.387 121.583 101.761 121.848 101.324C122.113 100.886 122.473 100.26 122.649 99.932C122.824 99.604 123.188 98.9778 123.456 98.5404C123.725 98.1031 124.086 97.4769 124.258 97.1489C124.43 96.8208 124.787 96.1946 125.05 95.7573C125.314 95.3199 125.728 94.5819 125.971 94.1172C126.214 93.6525 126.484 93.2723 126.572 93.2723C126.659 93.2723 126.731 93.1361 126.731 92.9696C126.731 92.7022 126.929 92.327 127.884 90.7873C128.019 90.5686 128.266 90.1213 128.432 89.7933C128.598 89.4653 128.993 88.7943 129.309 88.3023C129.625 87.8103 130.163 86.8566 130.502 86.1831C130.842 85.5092 131.251 84.8497 131.41 84.7175C131.57 84.5848 131.701 84.3731 131.701 84.2468C131.701 84.0177 132.252 83.1336 132.395 83.1336C132.436 83.1336 132.697 83.22 132.975 83.3254Z"/>
</mask>
<path fill-rule="evenodd" clip-rule="evenodd" d="M16 79.6531V93.8687H33.2557C46.4117 93.8687 50.5681 93.9253 50.75 94.1072C51.0934 94.4507 51.0934 112.968 50.75 113.311C50.5681 113.493 46.4117 113.55 33.2557 113.55H16V127.765V141.98L92.9847 141.925C177.997 141.864 170.982 141.965 172.315 140.785C173.538 139.704 173.852 139.319 174.318 138.334L174.84 137.232V103.618V70.0054L174.344 69.0576C173.667 67.7625 172.55 66.6313 171.361 66.0369L170.367 65.5399L93.1835 65.4887L16 65.4375V79.6531ZM113.964 82.5357C114.504 82.5377 114.759 83.0585 114.44 83.5083C114.315 83.6847 114.076 84.0977 113.91 84.4257C113.743 84.7538 113.387 85.38 113.119 85.8173C112.85 86.2547 112.486 86.8809 112.311 87.2089C112.136 87.5369 111.776 88.1632 111.51 88.6005C111.245 89.0379 110.888 89.6641 110.715 89.9921C110.543 90.3201 110.186 90.9463 109.921 91.3837C109.657 91.8211 109.264 92.5591 109.048 93.0238C108.831 93.4885 108.572 93.8687 108.47 93.8687C108.369 93.8687 108.231 94.0859 108.164 94.3518C108.098 94.6177 107.931 94.9531 107.795 95.0973C107.659 95.2414 107.243 95.966 106.872 96.7075C106.501 97.449 106.119 98.1036 106.024 98.1627C105.929 98.2214 105.717 98.5539 105.554 98.9018C105.391 99.2497 105.041 99.8923 104.776 100.33C104.511 100.767 104.153 101.393 103.981 101.721C103.808 102.049 103.447 102.675 103.179 103.113C102.91 103.55 102.546 104.176 102.371 104.504C102.196 104.832 101.839 105.459 101.577 105.896C101.05 106.779 100.525 107.728 99.9839 108.779C99.7871 109.161 99.5555 109.522 99.469 109.581C99.3826 109.639 99.1733 110.02 99.0033 110.426C98.8339 110.832 98.6137 111.164 98.5143 111.164C98.4154 111.164 98.2752 111.432 98.2037 111.758C98.1321 112.085 97.9815 112.409 97.8692 112.478C97.7574 112.548 97.5342 112.884 97.3742 113.226C97.2137 113.568 96.8682 114.206 96.6063 114.643C96.3449 115.08 95.9448 115.751 95.7182 116.134C95.4916 116.517 95.0915 117.188 94.8301 117.625C94.5681 118.062 94.2128 118.689 94.0408 119.017C93.8684 119.345 93.5076 119.971 93.2387 120.408C92.9703 120.846 92.603 121.517 92.4226 121.899C92.2427 122.282 92.026 122.64 91.941 122.694C91.856 122.749 91.6433 123.139 91.4674 123.561C91.0449 124.575 89.5917 124.266 89.5619 123.156C89.5584 123.027 89.4178 122.784 89.2498 122.616C89.0818 122.448 88.81 122.017 88.6454 121.658C88.4809 121.298 88.1296 120.647 87.8647 120.209C87.5998 119.772 87.2389 119.146 87.064 118.818C86.8886 118.49 86.5282 117.864 86.2628 117.426C85.9979 116.989 85.6515 116.356 85.493 116.019C85.3345 115.682 85.071 115.296 84.908 115.161C84.7445 115.025 84.5552 114.659 84.4866 114.348C84.4185 114.036 84.2421 113.736 84.0949 113.679C83.9478 113.623 83.7674 113.302 83.6939 112.967C83.6203 112.631 83.4831 112.357 83.3897 112.357C83.2963 112.357 83.1064 112.044 82.9683 111.661C82.8296 111.278 82.6546 110.965 82.5791 110.965C82.5036 110.965 82.2953 110.63 82.1164 110.22C81.938 109.81 81.5289 109.072 81.2079 108.58C80.8868 108.088 80.4863 107.417 80.3173 107.089C80.1483 106.761 79.7934 106.135 79.5285 105.697C79.2631 105.26 78.9028 104.634 78.7274 104.306C78.5524 103.978 78.1886 103.351 77.9203 102.914C77.6514 102.477 77.297 101.85 77.132 101.522C76.9675 101.194 76.6082 100.568 76.3344 100.131C76.06 99.6935 75.6922 99.0225 75.5163 98.6398C75.3409 98.2572 75.1281 97.8993 75.0432 97.8447C74.9582 97.79 74.7415 97.4321 74.5616 97.0495C74.3812 96.6668 74.0164 95.9958 73.7505 95.5585C73.0164 94.3503 72.507 93.4398 72.1655 92.7256C71.9961 92.3702 71.7824 92.0795 71.6909 92.0795C71.6 92.0795 71.3793 91.744 71.2009 91.334C71.0225 90.924 70.5145 89.9623 70.0717 89.1969C69.6294 88.4315 69.113 87.4922 68.9246 87.1095C68.7363 86.7268 68.5111 86.3611 68.4237 86.2969C68.2666 86.1811 68.0847 85.869 67.0559 83.9516C66.4983 82.9124 66.554 82.6609 67.3755 82.5088C67.6543 82.4571 97.3667 82.474 113.964 82.5357ZM132.975 83.3254C133.448 83.5053 133.796 84.0182 134.598 85.7179C134.779 86.1006 134.992 86.4585 135.072 86.5131C135.213 86.6095 135.472 87.0598 136.213 88.5011C136.41 88.8838 136.635 89.2446 136.712 89.3033C136.79 89.3619 136.998 89.7198 137.174 90.0985C137.35 90.4772 137.71 91.1451 137.975 91.5825C138.24 92.0198 138.6 92.6461 138.774 92.9741C139.492 94.3249 139.812 94.8736 140.05 95.1609C140.291 95.4511 140.646 96.0599 141.324 97.3477C141.497 97.6757 141.999 98.5703 142.44 99.3356C142.881 100.101 143.396 101.04 143.584 101.423C143.773 101.806 143.993 102.148 144.073 102.184C144.154 102.22 144.4 102.623 144.621 103.079C144.841 103.535 145.241 104.266 145.51 104.703C145.779 105.141 146.1 105.744 146.224 106.045C146.349 106.346 146.522 106.592 146.609 106.592C146.695 106.592 146.915 106.927 147.098 107.337C147.28 107.747 147.647 108.441 147.913 108.878C148.179 109.315 148.538 109.942 148.71 110.27C148.882 110.598 149.239 111.224 149.503 111.661C149.767 112.099 150.091 112.68 150.223 112.953C150.356 113.227 150.579 113.588 150.718 113.756C150.981 114.075 152.132 116.119 152.728 117.327C152.917 117.71 153.176 118.09 153.305 118.173C153.433 118.256 153.595 118.585 153.665 118.905C153.736 119.224 153.926 119.597 154.09 119.733C154.253 119.868 154.516 120.255 154.675 120.591C154.833 120.928 155.181 121.561 155.448 121.999C155.715 122.436 156.028 123.018 156.143 123.291C156.258 123.564 156.449 123.955 156.567 124.159C156.694 124.378 156.709 124.604 156.604 124.708C156.384 124.929 109.035 124.959 108.82 124.74C108.674 124.59 109.549 122.503 109.844 122.297C109.923 122.242 110.131 121.884 110.306 121.502C110.482 121.119 110.85 120.448 111.124 120.011C111.398 119.573 111.76 118.947 111.927 118.619C112.095 118.291 112.453 117.665 112.721 117.228C112.99 116.79 113.351 116.164 113.523 115.836C113.695 115.508 114.053 114.882 114.318 114.444C114.583 114.007 114.938 113.381 115.107 113.053C115.276 112.725 115.676 112.054 115.996 111.562C116.316 111.07 116.718 110.357 116.891 109.978C117.063 109.6 117.267 109.242 117.345 109.183C117.423 109.124 117.793 108.495 118.168 107.785C118.542 107.074 118.9 106.448 118.963 106.393C119.026 106.338 119.236 105.98 119.429 105.598C119.623 105.215 119.997 104.544 120.26 104.107C120.524 103.669 120.881 103.043 121.053 102.715C121.225 102.387 121.583 101.761 121.848 101.324C122.113 100.886 122.473 100.26 122.649 99.932C122.824 99.604 123.188 98.9778 123.456 98.5404C123.725 98.1031 124.086 97.4769 124.258 97.1489C124.43 96.8208 124.787 96.1946 125.05 95.7573C125.314 95.3199 125.728 94.5819 125.971 94.1172C126.214 93.6525 126.484 93.2723 126.572 93.2723C126.659 93.2723 126.731 93.1361 126.731 92.9696C126.731 92.7022 126.929 92.327 127.884 90.7873C128.019 90.5686 128.266 90.1213 128.432 89.7933C128.598 89.4653 128.993 88.7943 129.309 88.3023C129.625 87.8103 130.163 86.8566 130.502 86.1831C130.842 85.5092 131.251 84.8497 131.41 84.7175C131.57 84.5848 131.701 84.3731 131.701 84.2468C131.701 84.0177 132.252 83.1336 132.395 83.1336C132.436 83.1336 132.697 83.22 132.975 83.3254Z" stroke="black" stroke-width="12" mask="url(#path-1-inside-1_238_293)"/>
</svg>
