<?xml version="1.0" encoding="utf-8"?>
<!-- Generator: Adobe Illustrator 19.0.0, SVG Export Plug-In . SVG Version: 6.00 Build 0)  -->
<svg version="1.1" id="Layer_2" xmlns="http://www.w3.org/2000/svg" xmlns:xlink="http://www.w3.org/1999/xlink" x="0px" y="0px"
	 viewBox="0 0 24 24" style="enable-background:new 0 0 24 24;" xml:space="preserve">
<path d="M23.2,12.1c0,6.1-4.9,11-11,11s-11-4.9-11-11s4.9-11,11-11v2.4c-4.8,0-8.6,3.9-8.6,8.6s3.9,8.6,8.6,8.6s8.6-3.9,8.6-8.6
	H23.2z"/>
<path d="M13.4,15l7.7-9.5C21.2,5.4,21.2,5.2,21,5l-1.7-1.4c-0.1-0.1-0.4-0.1-0.5,0.1l-6.5,8.2c-0.2,0.2-0.4,0.2-0.6,0.1L9.1,9.7
	C9,9.6,8.7,9.6,8.6,9.8l-1.4,1.7c-0.1,0.1-0.1,0.4,0,0.5l4,3.2C11.9,15.8,12.9,15.7,13.4,15z"/>
</svg>
