<?xml version="1.0" encoding="UTF-8"?>
<svg id="Layer_8" data-name="Layer 8" xmlns="http://www.w3.org/2000/svg" viewBox="0 0 160.99 161.37">
  <defs>
    <style>
      .cls-1 {
        stroke-width: 8px;
      }

      .cls-1, .cls-2 {
        fill: none;
        stroke: #231f20;
        stroke-miterlimit: 10;
      }

      .cls-2 {
        stroke-width: 7px;
      }
    </style>
  </defs>
  <path class="cls-1" d="M67.34,49.46c.05,9.12-5,15.47-13.45,17.38-6.29,1.42-11.48-.7-15.91-5.04-5.19-5.08-10.28-10.26-15.41-15.4-1.02-1.02-2.18-2.33-3.56-.94-1.29,1.3.27,2.25,1.06,3.11,1.28,1.39,2.58,2.8,4.05,3.98,2.17,1.76,2.35,3.07.12,5.17-5.63,5.3-10.93,10.95-16.49,16.33-1.96,1.9-2.33,3.4-.36,5.55,4.08,4.45,4.45,9.58,2.04,14.96-1.03,2.29-2.12,4.6-3.53,6.66-1.24,1.81-1.07,2.94.45,4.46,16.44,16.36,32.84,32.76,49.19,49.2,1.53,1.53,2.54,1.63,4.34.26,7.2-5.47,14.66-5.26,21.81.03,2.56,1.89,4.05,1.34,5.98-.68,4.14-4.34,8.44-8.52,12.69-12.76q5.45-5.44,11.21-.18c.94.86,1.88,2.82,3.4,1.2,1.47-1.56-.49-2.5-1.37-3.4-4.98-5.07-10.1-10-15.05-15.09-5.72-5.88-7.14-13.95-3.79-20.44,5.4-10.46,18.55-12.88,27.18-4.81,5.53,5.17,10.74,10.68,16.13,16,.93.91,1.97,2.72,3.44,1.14,1.44-1.55-.57-2.44-1.35-3.42-.78-.98-1.73-1.84-2.71-2.62-2.38-1.9-2.28-3.39.01-5.55,5.74-5.41,11.18-11.14,16.78-16.71,1.44-1.43,2.54-2.56.73-4.72-6.07-7.23-5.32-14.92-.41-22.24,1.84-2.75,1.13-4.06-.77-5.91-4.53-4.4-8.95-8.91-13.42-13.37-11.5-11.49-23-23-34.53-34.46-1.22-1.21-2.19-3.29-4.61-1.3-7.01,5.79-14.53,5.4-21.99,1.06-2.29-1.33-3.58-.96-5.24.78-3.81,4-7.78,7.85-11.69,11.76q-6.52,6.52-13.16.5c-1.02-.92-2.08-2.57-3.5-1.17-1.53,1.5.35,2.52,1.25,3.43,5.1,5.17,10.28,10.26,15.39,15.42,3.35,3.39,5.43,7.34,5.07,11.83Z"/>
  <path class="cls-2" d="M54.9,97.46c.07,7.01,6.9,11.23,12.81,8.4,2.21-1.06,3.96-2.73,5.67-4.43,7.96-7.95,15.99-15.84,23.86-23.87,2.05-2.09,3.6-2.47,5.59-.08,1.32,1.58,2.87,2.98,4.36,4.4,4.12,3.91,8.9,4.29,12.27,1.01,3.57-3.48,3.26-8.11-.92-12.45-9.38-9.59-18.58-19.43-28.49-28.47-3.36-2.96-8.08-2.42-10.93.53-2.91,3.02-3.01,7.35-.05,10.93,1.6,1.94,3.35,3.81,5.26,5.44,2.43,2.06,2.28,3.57,0,5.78-8.65,8.39-17.11,16.98-25.67,25.47-2.2,2.18-3.75,4.63-3.78,7.33Z"/>
</svg>