<svg width="192" height="192" viewBox="0 0 192 192" fill="none" xmlns="http://www.w3.org/2000/svg"><path d="M170 75v47a6 6 0 0 1-6 6h-47m-95-11v47a6 6 0 0 0 6 6h47" stroke="#000" stroke-width="12" stroke-linecap="round" stroke-linejoin="round"/><path d="M170 75a52.998 52.998 0 0 0-63.34-51.982A53 53 0 0 0 117 128" stroke="#000" stroke-width="12" stroke-linecap="round" stroke-linejoin="round"/><path d="M75 170a52.996 52.996 0 0 0 48.966-32.718 53.003 53.003 0 0 0-11.489-57.759 53.005 53.005 0 0 0-57.76-11.489A53 53 0 0 0 22 117" stroke="#000" stroke-width="12" stroke-linecap="round" stroke-linejoin="round"/></svg>