<svg xmlns="http://www.w3.org/2000/svg" id="图层_1" data-name="图层 1" viewBox="0 0 156.25 141.2"><defs><style>.cls-1,.cls-2,.cls-3{fill:none;stroke:#000;stroke-linecap:round;stroke-linejoin:round}.cls-1{stroke-width:8px}.cls-2{stroke-width:4px}.cls-3{stroke-width:6px}</style></defs><path d="M32.69 75.94V10.03A8.79 8.79 0 0 1 34.9 6.5a9.66 9.66 0 0 1 7.32-2.47h103.57M147.07 4.12a4.61 4.61 0 0 1 5.11 5.61l.07 66.68M135.62 83.33h7.92a8.43 8.43 0 0 0 5.36-1.41 8.31 8.31 0 0 0 3.19-4.21M133.84 83.94c-1.31 7.32-7.12 12.79-13.79 13.41-8 .75-16-5.66-17-14.81H41.41M39.75 82.52a6.26 6.26 0 0 1-4.21-1.18 7.21 7.21 0 0 1-2.64-3.91M30.3 43.76l-20.4.1a5.54 5.54 0 0 0-4.09.77c-2 1.39-1.78 4.14-1.78 7.14v63.07M19.33 121.35H9.9a5.68 5.68 0 0 1-3.45-1 5.85 5.85 0 0 1-2.3-4M114.3 121.35h0l-61.91.51c-.69 9.06-8.49 15.81-17 15.32a16.39 16.39 0 0 1-15.06-14.94M115.58 121.14a10 10 0 0 0 7.47-10M123.05 100.97v9.19" class="cls-1"/><circle cx="36.32" cy="87.28" r="5.81" class="cls-2"/><circle cx="60.95" cy="87.53" r="5.56" class="cls-2"/><circle cx="85.59" cy="87.53" r="5.56" class="cls-2"/><path d="M68.11 54.07V24.2M68.01 23.43a5.34 5.34 0 0 1 2.38-3.91 5 5 0 0 1 3.06-.68h14.39v35.19" class="cls-3"/><path d="M77.9 27.52v29.62a.66.66 0 0 1-.06.12 17.34 17.34 0 0 1-2.47 3.71 18.6 18.6 0 0 1-8.56 4.72M88.96 65.75a21.07 21.07 0 0 1-8.61-5.55 18.86 18.86 0 0 1-2.17-2.81M97.54 43.76v22h14.36a4 4 0 0 0 2.81-1.38 4.08 4.08 0 0 0 .94-2.89V43.76ZM102.98 17.82V43.76M117.2 23.87h-14.21" class="cls-3"/></svg>