<svg xmlns="http://www.w3.org/2000/svg" width="192" height="192" fill="none"><path stroke="#000" stroke-linecap="round" stroke-linejoin="round" stroke-width="12" d="M57 84h40m-40 24h32m7 62c40.869 0 74-33.131 74-74s-33.131-74-74-74-74 33.13-74 74c0 13.631 3.686 26.402 10.115 37.369.843 9.396-.49 22.727-10.115 36.631 14.79 0 24.66-6.433 31.092-13.703C65.194 164.925 80.004 170 96 170"/><path stroke="#000" stroke-linecap="round" stroke-linejoin="round" stroke-width="12" d="M119.5 63.091C114.179 59.756 108.144 58 102 58s-12.18 1.756-17.5 5.091S74.761 71.223 71.69 77C68.616 82.777 67 89.33 67 96s1.617 13.223 4.69 19c3.071 5.777 7.49 10.574 12.81 13.909S95.856 134 102 134s12.179-1.756 17.5-5.091"/></svg>