<svg width="192" height="192" viewBox="0 0 192 192" fill="none" xmlns="http://www.w3.org/2000/svg">
<path d="M108 132C108 139.516 105.771 146.863 101.596 153.112C97.4204 159.361 91.4856 164.231 84.542 167.107C77.5984 169.984 69.9578 170.736 62.5866 169.27C55.2153 167.804 48.4443 164.184 43.1299 158.87C37.8155 153.556 34.1964 146.785 32.7302 139.413C31.2639 132.042 32.0164 124.402 34.8926 117.458C37.7687 110.514 42.6393 104.58 48.8883 100.404C55.1374 96.2287 62.4843 94 70 94" stroke="black" stroke-width="12" stroke-linecap="round"/>
<path d="M108 132V22C108 40 132 72 160 72" stroke="black" stroke-width="12" stroke-linecap="round" stroke-linejoin="round"/>
</svg>
