<svg width="192" height="192" viewBox="0 0 192 192" fill="none" xmlns="http://www.w3.org/2000/svg"><path d="M20 113.327V94.5m0 0V80.077s14.5-1.077 15.833 0c4.17 3.367 3.982 10.135 0 13.722C34.5 95 20 94.5 20 94.5Zm29.556-14.423v33.25h17.416m8.445-33.25v29.028c.132 7.687 18.595 7.557 18.472 0V80.077m46.972 0v33.25m12.667 0v-33.25L172 113.327v-33.25m-42.222 4.222c-2.639-6.861-16.696-6.253-22.167 0-3.694 4.222-5.805 8.444-3.694 17.417 2.111 8.972 12.666 15.305 23.222 11.083 5.479-2.192 7.917-11.611 2.111-15.833-.528-.384-12.139 0-12.139 0" stroke="#000" stroke-width="8" stroke-linecap="round" stroke-linejoin="round"/></svg>