<?xml version="1.0" encoding="UTF-8"?><svg id="Layer_1" xmlns="http://www.w3.org/2000/svg" width="192" height="192" viewBox="0 0 192 192"><defs><style>.cls-1,.cls-2{fill:none;}.cls-2{stroke:#000;stroke-linecap:round;stroke-linejoin:round;stroke-width:12px;}</style></defs><rect class="cls-1" width="192" height="192"/><line class="cls-2" x1="71.34" y1="137.3" x2="71.34" y2="82.66"/><path d="M71.33,54.7c-3.8,0-6.88,3.08-6.88,6.88s3.08,6.88,6.88,6.88,6.88-3.08,6.88-6.88-3.08-6.88-6.88-6.88h0Z"/><line class="cls-2" x1="95.43" y1="61.12" x2="95.43" y2="137.3"/><path class="cls-2" d="M160.6,129.96c-4.59,3.86-10.51,6.19-16.98,6.19-14.57,0-26.39-11.81-26.39-26.39s11.81-26.39,26.39-26.39,26.39,11.81,26.39,26.39h-52.78"/><path class="cls-2" d="M22,82.17v28.17c0,15.52,9.72,26.96,25.24,26.96"/><polyline class="cls-2" points="22 61.12 22 82.17 47.24 82.17"/></svg>