<svg xmlns="http://www.w3.org/2000/svg" width="192" height="192" fill="none"><path stroke="#000" stroke-linecap="round" stroke-linejoin="round" stroke-width="12" d="M83.5 105h20.698c3.94 0 6.811 3.733 5.799 7.54l-13.812 52a6 6 0 0 1-5.8 4.46H32.454c-5.025 0-7.824-5.809-4.692-9.739L55.859 124m73.125-54.257A6 6 0 0 1 134.85 65h18.127a6 6 0 0 1 5.906 4.945l2.857 16c.657 3.678-2.171 7.055-5.906 7.055h-24.412c-3.82 0-6.667-3.522-5.867-7.257z"/><path stroke="#000" stroke-linecap="round" stroke-linejoin="round" stroke-width="10" d="M110.207 23.532A6 6 0 0 1 115.103 21h12.212c3.904 0 6.768 3.668 5.821 7.455l-3 12A6 6 0 0 1 124.315 45h-17.712c-4.87 0-7.711-5.495-4.896-9.468z"/><circle cx="68" cy="113" r="16" stroke="#000" stroke-linecap="round" stroke-linejoin="round" stroke-width="12"/></svg>