<svg xmlns="http://www.w3.org/2000/svg" width="192" height="192" fill="none"><path stroke="#000" stroke-linecap="round" stroke-linejoin="round" stroke-width="10" d="M107 109s-1-3.5-3-6c0 0 1-1 3-1s3 1 3 1c-2 2.5-3 6-3 6"/><path stroke="#000" stroke-linecap="round" stroke-linejoin="round" stroke-width="6" d="M88.714 89.854C83.048 89.14 79 82 79 82s9.714 1.428 17 6.426c0 0-1.619 2.142-7.286 1.428m36.572 0C130.952 89.14 135 82 135 82s-9.714 1.428-17 6.426c0 0 1.619 2.142 7.286 1.428"/><path stroke="#000" stroke-linecap="round" stroke-linejoin="round" stroke-width="12" d="M152.467 68.353c-2.711-10.115-10.864-18.968-19.399-25.034a45 45 0 0 0-57.214 4.202c-7.558 7.248-14.352 16.904-15.556 27.307"/><path stroke="#000" stroke-linecap="round" stroke-linejoin="round" stroke-width="12" d="M53 22c11 43 31 30 55 53m55-53c-11 43-31 30-55 53M75 23s2 11 12 16m52-16s-2 11-12 16m-64 66s-39 27-39 65m100 0c2.393-24.267-5.794-36.67-16-42"/><path stroke="#000" stroke-linecap="round" stroke-linejoin="round" stroke-width="12" d="M60.3 74.83C53 128 104 128 108 128s57.5 0 44.47-59.65"/><path stroke="#000" stroke-linecap="round" stroke-linejoin="round" stroke-width="12" d="M152.47 68.35C164.97 115 124 170 124 170"/></svg>