<svg xmlns="http://www.w3.org/2000/svg" width="192" height="192" fill="none"><path stroke="#000" stroke-linecap="round" stroke-linejoin="round" stroke-width="10" d="M107 109s-1-3.5-3-6c0 0 1-1 3-1s3 1 3 1c-2 2.5-3 6-3 6"/><path stroke="#000" stroke-linecap="round" stroke-linejoin="round" stroke-width="6" d="M88.714 89.854C83.048 89.14 79 82 79 82s9.714 1.428 17 6.426c0 0-1.619 2.142-7.286 1.428m36.572 0C130.952 89.14 135 82 135 82s-9.714 1.428-17 6.426c0 0 1.619 2.142 7.286 1.428"/><path stroke="#000" stroke-linecap="round" stroke-linejoin="round" stroke-miterlimit="6" stroke-width="10" d="M150.224 96.103a2.884 2.884 0 0 1 5.552 0l2.248 7.215c.391 1.253 1.512 2.102 2.776 2.102h7.276c2.827 0 4.003 3.773 1.715 5.506l-5.886 4.459c-1.023.775-1.451 2.149-1.06 3.403l2.248 7.214c.874 2.804-2.204 5.136-4.492 3.403l-5.885-4.459a2.824 2.824 0 0 0-3.432 0l-5.885 4.459c-2.288 1.733-5.366-.599-4.492-3.403l2.248-7.214c.391-1.254-.037-2.628-1.06-3.403l-5.886-4.459c-2.288-1.733-1.112-5.506 1.715-5.506h7.276c1.264 0 2.385-.849 2.776-2.102z"/><path stroke="#000" stroke-linecap="round" stroke-linejoin="round" stroke-width="12" d="M152.467 68.353c-2.71-10.115-10.863-18.968-19.399-25.034a45 45 0 0 0-57.214 4.202c-7.558 7.248-14.352 16.904-15.556 27.307"/><path stroke="#000" stroke-linecap="round" stroke-linejoin="round" stroke-width="12" d="M53 22c11 43 31 30 55 53m55-53c-11 43-31 30-55 53M75 23s2 11 12 16m52-16s-2 11-12 16m-64 66s-39 27-39 65m100 0c2.393-24.267-5.794-36.67-16-42"/><path stroke="#000" stroke-linecap="round" stroke-linejoin="round" stroke-width="12" d="M60.3 74.83C53 128 104 128 108 128c1.181 0 6.676 0 13.5-1.535m30.97-58.115a67 67 0 0 1 1.339 6.15M124 170s6.283-8.435 13.178-21.5"/></svg>