<svg xmlns="http://www.w3.org/2000/svg" width="192" height="192" viewBox="0 0 192 192"><path stroke="#000" stroke-linecap="round" stroke-width="12" d="M30 170v-41m0 33h-8m8 0h33m-33-33V96m0 33h-8m8 0h66M30 96V63m0 33h33M30 63V30m0 33h33m-33 0h-8m8-33v-8m0 8h33m99 140v-41m0 33h-33m33-33V96m0 33h-33m33-33V63m0 33h-33m33-33V30m0 33h-33m33-33v-8m0 8h8m-8 0h-33M63 96V63m0 33v66m0-66h33M63 63V30m0 33h33M63 30h33m33 33H96m33 0V30m0 33v33M96 63V30m0 33v33m33 74v-41m0 33H96m33-33V96m0 33H96m33-33H96m33-66v-8m0 8H96m0 66v66m-33 0h33m0-132v-8"/></svg>