<svg xmlns="http://www.w3.org/2000/svg" width="192" height="192" viewBox="0 0 192 192"><path d="M64.07 86.734c-6.35.704-14.44 2.971-19.35 6.429-15.47 10.894-27.74 29.571-27.74 29.571a5.988 5.988 0 0 0 2.65 8.799s14.02 5.964 25.7 6.185c5.78.109 22.63-.548 36.72-11.818.8-.646 1.57-1.294 2.32-1.943v.003c-1.28 5.095-1.5 11.545-.96 17.023 1.66 16.754 16.23 32.128 16.23 32.128a6.01 6.01 0 0 0 8.82-.181s6.94-7.795 10.81-19.035c2.02-5.894 4.26-20.697-.16-32.723-.1-.293-.21-.583-.32-.869.85.685 1.74 1.36 2.68 2.016 4.3 3.024 10.06 5.469 15.38 6.929 16.16 4.439 35.28-2.708 35.28-2.708a6.04 6.04 0 0 0 2.75-9.103s-5.5-7.669-12.57-15.944c-3.94-4.61-17.4-12.915-30.41-13.31q1.65-1.054 3.3-2.256c4.95-3.631 9.68-9.767 13.08-15.228 10.31-16.541 8.25-40.352 8.25-40.352a5.995 5.995 0 0 0-7.77-5.177s-10.7 3.354-22.47 8.581c-6.06 2.693-18.13 11.617-24.04 26.823-.15-.584-.3-1.171-.47-1.765-2.04-7.356-7.11-14.406-12.3-19.775-13.26-13.732-41.62-21.769-41.62-21.769a5.985 5.985 0 0 0-7.6 5.63s-.36 13.941 1.32 28.562c.9 7.869 6.2 23.735 22.49 35.277m39.55 72.369c-3.4-4.703-7.53-11.804-8.27-19.3-.41-4.158-.31-9.057.66-12.925 1.36-5.422 3.89-9.79 6.07-12.788 1.78 2.497 3.91 6.167 5.77 11.22 3.33 9.071 1.6 20.237.07 24.682-1.22 3.543-2.82 6.655-4.3 9.111m-72.11-36.006c4.43-5.731 11.74-14.221 20.12-20.124 3.97-2.8 10.97-4.268 15.61-4.457 8.14-.332 15.29 1.898 19.71 3.742-2.05 3.648-5.85 9.025-12.4 14.273-11.11 8.886-24.44 9.275-28.99 9.189-4.76-.09-9.98-1.359-14.05-2.623m128.43-5.527c-5.5 1.166-13.04 1.994-19.91.107-4.02-1.105-8.41-2.891-11.66-5.178-4.74-3.322-8.1-7.22-10.26-10.23 3.04-1.11 7.46-2.18 13.11-2.098 9.31.134 19.15 5.821 21.97 9.121 2.53 2.961 4.85 5.84 6.75 8.278M52.28 31.274c8.23 2.929 21.16 8.422 28.57 16.096 3.87 4.01 7.84 9.158 9.37 14.651 2.98 10.714 2.97 18.941 2.52 23.687-4.86-.661-12.94-2.643-21.39-8.52-12.74-8.866-17.16-21.01-17.85-27.096-.8-6.98-1.11-13.795-1.22-18.818m92.43 7.984c-.26 6.89-1.6 17.054-6.61 25.093-2.64 4.228-6.17 9.088-10 11.899-6.26 4.592-12.8 7.152-17.23 8.497-.51-3.966-.57-10.077 1.74-17.468 4.01-12.784 13.72-20.415 18.55-22.561 5-2.22 9.79-4.083 13.55-5.46"/></svg>