<?xml version="1.0" standalone="no"?>
<!DOCTYPE svg PUBLIC "-//W3C//DTD SVG 20010904//EN"
 "http://www.w3.org/TR/2001/REC-SVG-20010904/DTD/svg10.dtd">
<svg version="1.0" xmlns="http://www.w3.org/2000/svg"
 width="192" height="192" viewBox="0 0 192 192"
 preserveAspectRatio="xMidYMid meet">
<metadata>
Created by potrace 1.16, written by Peter Selinger 2001-2019
</metadata>
<g transform="translate(0.000000,180.000000) scale(0.100000,-0.100000)"
fill="#000000" stroke="none">
<path d="M0 900 l0 -900 900 0 900 0 0 900 0 900 -900 0 -900 0 0 -900z m670
525 l0 -35 -105 0 c-104 0 -106 0 -115 -26 -6 -14 -10 -49 -10 -79 0 -82 6
-85 166 -85 l134 0 0 99 c0 98 1 100 31 130 l31 31 283 0 284 0 28 -24 c27
-23 28 -28 31 -134 l4 -109 -32 -31 -31 -32 -277 -2 -277 -3 -3 -338 c-1 -221
1 -345 8 -357 9 -18 22 -20 105 -20 83 0 96 2 105 19 6 12 10 135 10 330 l0
311 35 0 36 0 -3 -341 -3 -341 -28 -24 c-26 -23 -35 -24 -152 -24 l-123 0 -31
31 -31 30 -2 362 -3 362 -145 3 c-89 1 -154 7 -168 14 -39 20 -52 59 -52 152
0 150 17 165 188 166 l112 0 0 -35z"/>
<path d="M820 1370 c-6 -11 -10 -53 -8 -93 l3 -72 257 -3 c299 -3 288 -6 288
89 0 105 17 99 -275 99 -245 0 -255 -1 -265 -20z"/>
</g>
</svg>
