<?xml version="1.0" standalone="no"?>
<!DOCTYPE svg PUBLIC "-//W3C//DTD SVG 20010904//EN"
 "http://www.w3.org/TR/2001/REC-SVG-20010904/DTD/svg10.dtd">
<svg version="1.0" xmlns="http://www.w3.org/2000/svg"
 width="192" height="192" viewBox="0 0 192 192"
 preserveAspectRatio="xMidYMid meet">
<metadata>
Created by potrace 1.16, written by Peter Selinger 2001-2019
</metadata>
<g transform="translate(0.000000,256.000000) scale(0.100000,-0.100000)"
fill="#000000" stroke="none">
<path d="M0 1280 l0 -1280 1280 0 1280 0 -2 1283 -3 1282 -2 -1277 -3 -1278
-245 0 -245 0 0 685 c0 377 -2 685 -5 685 -4 0 -18 -6 -33 -14 -90 -46 -321
-106 -511 -132 l-131 -18 -10 -35 c-54 -204 -74 -458 -48 -625 11 -73 11 -79
-7 -92 -28 -21 -94 -17 -150 10 -61 28 -77 45 -109 116 -51 112 -55 231 -15
468 10 63 19 115 19 116 0 1 -46 -4 -102 -11 -57 -6 -161 -12 -233 -12 -186
-1 -234 25 -272 145 -13 42 -14 59 -5 78 25 54 48 60 382 85 74 6 172 14 217
17 l83 7 11 41 c29 111 125 388 152 439 54 102 136 157 236 157 31 0 48 -6 67
-25 32 -32 29 -47 -43 -260 -30 -88 -65 -198 -78 -243 l-24 -84 117 9 c148 10
405 10 455 0 l37 -8 0 526 0 525 -1030 0 -1030 0 0 -1280z"/>
</g>
</svg>
