<svg width="192" height="192" viewBox="0 0 192 192" fill="none" xmlns="http://www.w3.org/2000/svg">
<path d="M79.5 87V81C76.1863 81 73.5 83.6863 73.5 87H79.5ZM79.5 130.5H73.5C73.5 132.506 74.5026 134.38 76.1718 135.492L79.5 130.5ZM96 141.5L92.6718 146.492C94.6872 147.836 97.3128 147.836 99.3282 146.492L96 141.5ZM112.5 87H118.5C118.5 83.6863 115.814 81 112.5 81V87ZM112.5 130.5L115.828 135.492C117.497 134.38 118.5 132.506 118.5 130.5H112.5ZM73.5 87V130.5H85.5V87H73.5ZM76.1718 135.492L92.6718 146.492L99.3282 136.508L82.8282 125.508L76.1718 135.492ZM106.5 87V130.5H118.5V87H106.5ZM109.172 125.508L92.6718 136.508L99.3282 146.492L115.828 135.492L109.172 125.508ZM112.5 81H79.5V93H112.5V81Z" fill="black"/>
<path d="M77.8391 151.389C75.2926 149.269 71.5093 149.614 69.389 152.161C67.2687 154.707 67.6143 158.491 70.1609 160.611L77.8391 151.389ZM121.839 160.611C124.386 158.491 124.731 154.707 122.611 152.161C120.491 149.614 116.707 149.269 114.161 151.389L121.839 160.611ZM96 156C87.1292 156 80.5257 153.626 77.8391 151.389L70.1609 160.611C75.8567 165.353 85.6819 168 96 168V156ZM96 168C106.318 168 116.143 165.353 121.839 160.611L114.161 151.389C111.474 153.626 104.871 156 96 156V168Z" fill="black"/>
<path d="M85 32.5L79.1165 31.3233C78.9861 31.9753 78.965 32.6445 79.054 33.3035L85 32.5ZM87.5 51L91.1 55.8C92.8396 54.4953 93.7372 52.3514 93.446 50.1965L87.5 51ZM81.5 55.5L77.9 50.7C76.6217 51.6588 75.7786 53.0878 75.5576 54.6704C75.3367 56.253 75.7562 57.8583 76.723 59.1305L81.5 55.5ZM107 32.5L112.946 33.3035C113.035 32.6445 113.014 31.9753 112.883 31.3233L107 32.5ZM104.5 51L98.554 50.1965C98.2628 52.3514 99.1604 54.4953 100.9 55.8L104.5 51ZM110.5 55.5L115.277 59.1305C116.244 57.8583 116.663 56.253 116.442 54.6704C116.221 53.0878 115.378 51.6588 114.1 50.7L110.5 55.5ZM102.201 66.4203L97.4236 62.7898L102.201 66.4203ZM96 24C94.0538 24 91.0519 24.134 88.3564 24.5808C87.0482 24.7976 85.4761 25.1404 84.06 25.7387C83.3518 26.038 82.4177 26.5098 81.5392 27.2628C80.6475 28.0271 79.5109 29.3516 79.1165 31.3233L90.8835 33.6767C90.5891 35.1484 89.7618 36.0198 89.3487 36.3739C88.9487 36.7168 88.6623 36.8214 88.7306 36.7925C88.8677 36.7346 89.3643 36.5774 90.3186 36.4192C92.1481 36.116 94.4462 36 96 36V24ZM79.054 33.3035L81.554 51.8035L93.446 50.1965L90.946 31.6965L79.054 33.3035ZM83.9 46.2L77.9 50.7L85.1 60.3L91.1 55.8L83.9 46.2ZM76.723 59.1305L85.0225 70.0508L94.5764 62.7898L86.277 51.8695L76.723 59.1305ZM96 36C97.5538 36 99.8519 36.116 101.681 36.4192C102.636 36.5774 103.132 36.7346 103.269 36.7925C103.338 36.8214 103.051 36.7168 102.651 36.3739C102.238 36.0198 101.411 35.1484 101.117 33.6767L112.883 31.3233C112.489 29.3516 111.352 28.0271 110.461 27.2628C109.582 26.5098 108.648 26.038 107.94 25.7387C106.524 25.1404 104.952 24.7976 103.644 24.5808C100.948 24.134 97.9462 24 96 24V36ZM101.054 31.6965L98.554 50.1965L110.446 51.8035L112.946 33.3035L101.054 31.6965ZM100.9 55.8L106.9 60.3L114.1 50.7L108.1 46.2L100.9 55.8ZM105.723 51.8695L97.4236 62.7898L106.978 70.0508L115.277 59.1305L105.723 51.8695ZM92.9841 74H99.0159V62H92.9841V74ZM97.4236 62.7898C97.8018 62.2922 98.3909 62 99.0159 62V74C102.141 74 105.087 72.539 106.978 70.0508L97.4236 62.7898ZM85.0225 70.0508C86.9135 72.539 89.8589 74 92.9841 74V62C93.6091 62 94.1982 62.2922 94.5764 62.7898L85.0225 70.0508Z" fill="black"/>
<path d="M167.5 74C150.7 72 140.5 60.8333 139 49.5C133.833 51.5 126.89 57.9831 135 71.5C142.5 84 137.167 92.6667 132.5 96C134.9 98.8 142.667 103 145.5 103.5C144 105 135 109 135 123C135 137 131.333 138.833 130.5 139.5C146.9 142.3 155.667 126 157 116.5C166.2 118.1 169.5 112.333 170 110C159.2 107.2 160 96 160.5 90.5C167.5 90 168.667 77.8333 167.5 74Z" stroke="black" stroke-width="12" stroke-linecap="round" stroke-linejoin="round"/>
<path d="M24.5 74C41.3 72 51.5 60.8333 53 49.5C58.1667 51.5 65.1101 57.9831 57 71.5C49.5 84 54.8333 92.6667 59.5 96C57.1 98.8 49.3333 103 46.5 103.5C48 105 57 109 57 123C57 137 60.6667 138.833 61.5 139.5C45.1 142.3 36.3333 126 35 116.5C25.8 118.1 22.5 112.333 22 110C32.8 107.2 32 96 31.5 90.5C24.5 90 23.3333 77.8333 24.5 74Z" stroke="black" stroke-width="12" stroke-linecap="round" stroke-linejoin="round"/>
</svg>
