<svg width="192" height="192" viewBox="0 0 192 192" fill="none" xmlns="http://www.w3.org/2000/svg"><path d="M96 170c-40-22-74-34-74-70V28a6 6 0 0 1 6-6h68m0 148c40-22 74-34 74-70V28a6 6 0 0 0-6-6H96" stroke="#000" stroke-width="12" stroke-linecap="round" stroke-linejoin="round"/><path clip-rule="evenodd" d="M65 54a6 6 0 0 0-6 6v21.807c3.543-3.958 9.92-6.65 17.162-6.65h7.95v28.002c0 7.996-2.125 14.962-5.352 18.841h34.48c-3.227-3.879-5.353-10.845-5.353-18.841V75.157h7.951c7.322 0 13.698 2.692 17.162 6.65V60a6 6 0 0 0-6-6H65Z" stroke="#000" stroke-width="10" stroke-linecap="round" stroke-linejoin="round"/></svg>