<svg xmlns="http://www.w3.org/2000/svg" width="192" height="192" fill="none" xmlns:v="https://vecta.io/nano"><path d="M79.5 87v-6a6 6 0 0 0-6 6h6zm0 43.5h-6a6 6 0 0 0 2.672 4.992L79.5 130.5zm16.5 11l-3.328 4.992a6 6 0 0 0 6.656 0L96 141.5zM112.5 87h6a6 6 0 0 0-6-6v6zm0 43.5l3.328 4.992a6 6 0 0 0 2.672-4.992h-6zM73.5 87v43.5h12V87h-12zm2.672 48.492l16.5 11 6.656-9.984-16.5-11-6.656 9.984zM106.5 87v43.5h12V87h-12zm2.672 38.508l-16.5 11 6.656 9.984 16.5-11-6.656-9.984zM112.5 81h-33v12h33V81zm-34.661 70.389a6 6 0 1 0-7.678 9.222l7.678-9.222zm44 9.222a6 6 0 0 0-7.678-9.222l7.678 9.222zM96 156c-8.871 0-15.474-2.374-18.161-4.611l-7.678 9.222C75.857 165.353 85.682 168 96 168v-12zm0 12c10.318 0 20.143-2.647 25.839-7.389l-7.678-9.222C111.474 153.626 104.871 156 96 156v12zM85 32.5l-5.883-1.177a6 6 0 0 0-.062 1.98L85 32.5zM87.5 51l3.6 4.8a6 6 0 0 0 2.346-5.603L87.5 51zm-6 4.5l-3.6-4.8a6 6 0 0 0-1.177 8.43L81.5 55.5zm25.5-23l5.946.803c.089-.659.068-1.328-.063-1.98L107 32.5zM104.5 51l-5.946-.803A6 6 0 0 0 100.9 55.8l3.6-4.8zm6 4.5l4.777 3.63a6 6 0 0 0-1.177-8.43l-3.6 4.8zm-8.299 10.92l-4.777-3.63 4.777 3.63zM96 24c-1.946 0-4.948.134-7.644.581-1.308.217-2.88.56-4.296 1.158-.708.299-1.642.771-2.521 1.524-.892.764-2.028 2.089-2.423 4.061l11.767 2.353c-.294 1.472-1.122 2.343-1.535 2.697-.4.343-.686.447-.618.419.137-.058.634-.215 1.588-.373 1.83-.304 4.128-.42 5.682-.42V24zm-16.946 9.304l2.5 18.5 11.892-1.607-2.5-18.5-11.892 1.607zM83.9 46.2l-6 4.5 7.2 9.6 6-4.5-7.2-9.6zm-7.177 12.93l8.299 10.92 9.554-7.261-8.299-10.92-9.554 7.261zM96 36c1.554 0 3.852.116 5.681.419.955.158 1.451.315 1.588.373.069.029-.218-.076-.618-.419-.413-.354-1.24-1.225-1.534-2.697l11.766-2.353c-.394-1.972-1.531-3.296-2.422-4.061-.879-.753-1.813-1.225-2.521-1.524-1.416-.598-2.988-.941-4.296-1.158-2.696-.446-5.698-.58-7.644-.58v12zm5.054-4.303l-2.5 18.5 11.892 1.607 2.5-18.5-11.892-1.607zM100.9 55.8l6 4.5 7.2-9.6-6-4.5-7.2 9.6zm4.823-3.93l-8.299 10.92 9.554 7.261 8.299-10.92-9.554-7.261zM92.984 74h6.032V62h-6.032v12zm4.439-11.21a2 2 0 0 1 1.592-.79v12a10 10 0 0 0 7.962-3.949l-9.554-7.261zm-12.401 7.261A10 10 0 0 0 92.984 74V62a2 2 0 0 1 1.592.79l-9.554 7.261z" fill="#000"/><path d="M167.5 74c-16.8-2-27-13.167-28.5-24.5-5.167 2-12.11 8.483-4 22 7.5 12.5 2.167 21.167-2.5 24.5 2.4 2.8 10.167 7 13 7.5C144 105 135 109 135 123s-3.667 15.833-4.5 16.5c16.4 2.8 25.167-13.5 26.5-23 9.2 1.6 12.5-4.167 13-6.5-10.8-2.8-10-14-9.5-19.5 7-.5 8.167-12.667 7-16.5zm-143 0c16.8-2 27-13.167 28.5-24.5 5.167 2 12.11 8.483 4 22C49.5 84 54.833 92.667 59.5 96c-2.4 2.8-10.167 7-13 7.5C48 105 57 109 57 123s3.667 15.833 4.5 16.5c-16.4 2.8-25.167-13.5-26.5-23-9.2 1.6-12.5-4.167-13-6.5 10.8-2.8 10-14 9.5-19.5-7-.5-8.167-12.667-7-16.5z" stroke="#000" stroke-width="12" stroke-linejoin="round"/></svg>