<svg xmlns="http://www.w3.org/2000/svg" width="192" height="192" fill="none" stroke="#000" stroke-linecap="round" stroke-width="12" viewBox="0 0 192 192"><path d="M138.426 135.858c8.392 2.797 14.106 6.361 16.421 10.24s1.127 7.901-3.414 11.556-12.232 6.778-22.099 8.975S107.867 170 96 170s-23.467-1.173-33.334-3.371-17.557-5.321-22.099-8.975c-4.541-3.655-5.73-7.676-3.414-11.556 2.315-3.879 8.03-7.443 16.42-10.24"/><path d="M160 86c0 35.346-28.654 60-64 60s-64-24.654-64-60 28.654-64 64-64 64 28.654 64 64Z"/><path stroke-width="10" d="M102 72c0 13 12 12 12 21s-12 8-12 21m31.455-75.859a16.002 16.002 0 0 1-31.378-5.709A16 16 0 0 1 104.144 26"/><ellipse cx="96" cy="93" stroke-width="10" rx="63" ry="22"/></svg>