<?xml version="1.0" encoding="UTF-8" standalone="no"?>
<!-- Created with Inkscape (http://www.inkscape.org/) -->

<svg
   version="1.1"
   id="svg2"
   width="192"
   height="192"
   viewBox="0 0 192 192"
   sodipodi:docname="tipster.jpg"
   xmlns:inkscape="http://www.inkscape.org/namespaces/inkscape"
   xmlns:sodipodi="http://sodipodi.sourceforge.net/DTD/sodipodi-0.dtd"
   xmlns="http://www.w3.org/2000/svg"
   xmlns:svg="http://www.w3.org/2000/svg">
  <defs
     id="defs6" />
  <sodipodi:namedview
     id="namedview4"
     pagecolor="#ffffff"
     bordercolor="#000000"
     borderopacity="0.25"
     inkscape:showpageshadow="2"
     inkscape:pageopacity="0.0"
     inkscape:pagecheckerboard="0"
     inkscape:deskcolor="#d1d1d1"
     showgrid="false" />
  <g
     inkscape:groupmode="layer"
     inkscape:label="Image"
     id="g8">
    <path
       style="fill:#000000;fill-opacity:0;stroke:#000000;stroke-width:11.4432;stroke-linecap:round;stroke-linejoin:round;stroke-dasharray:none;paint-order:stroke fill markers"
       id="path291"
       sodipodi:type="arc"
       sodipodi:cx="96.000031"
       sodipodi:cy="95.999985"
       sodipodi:rx="74.278427"
       sodipodi:ry="74.278412"
       sodipodi:start="0.17453293"
       sodipodi:end="5.6199602"
       sodipodi:open="true"
       sodipodi:arc-type="arc"
       d="M 169.15,108.8983 A 74.278427,74.278412 0 0 1 98.59231,170.23315 74.278427,74.278412 0 0 1 23.92799,113.96956 74.278427,74.278412 0 0 1 63.438512,29.23899 74.278427,74.278412 0 0 1 154.53223,50.269629" />
    <path
       style="fill:#000000;fill-opacity:0;stroke:#000000;stroke-width:12;stroke-linecap:round;stroke-linejoin:round;stroke-dasharray:none;paint-order:stroke fill markers"
       d="m 168.64724,109.53391 c 0,0 -24.63886,23.29105 -72.246496,29.38748 -27.923977,3.57582 -40.093888,18.8435 -40.093888,18.8435"
       id="path1027"
       sodipodi:nodetypes="csc" />
    <path
       style="fill:#000000;fill-opacity:0;stroke:#000000;stroke-width:12;stroke-linecap:round;stroke-linejoin:round;stroke-dasharray:none;paint-order:stroke fill markers"
       d="m 154.13631,50.754632 c 0,0 -22.78064,15.375062 -66.103284,16.19473 C 44.535491,67.772338 23.75506,88.992454 23.75506,88.992454"
       id="path1029"
       sodipodi:nodetypes="csc" />
  </g>
</svg>
