<svg width="192" height="192" viewBox="0 0 192 192" fill="none" xmlns="http://www.w3.org/2000/svg"><circle cx="122" cy="100" r="3" stroke="#000" stroke-width="6" stroke-linejoin="round"/><path d="M122 68H66m36 60H86m8 0V68m-28 8v-8m56 8v-8m0 60v-8M63.515 40.846A63.614 63.614 0 0 1 80 34.016L84 22h24l4 12.016a63.603 63.603 0 0 1 16.485 6.83" stroke="#000" stroke-width="12" stroke-linecap="round" stroke-linejoin="round"/><path d="M112.03 34.029a63.642 63.642 0 0 1 16.486 6.828l11.325-5.669 16.97 16.971-5.668 11.325a63.646 63.646 0 0 1 6.828 16.486" stroke="#000" stroke-width="12" stroke-linecap="round" stroke-linejoin="round"/><path d="M151.154 63.516A63.623 63.623 0 0 1 157.984 80L170 84v24l-12.016 4a63.626 63.626 0 0 1-6.83 16.485" stroke="#000" stroke-width="12" stroke-linecap="round" stroke-linejoin="round"/><path d="M157.971 112.03a63.636 63.636 0 0 1-6.828 16.486l5.669 11.325-16.971 16.97-11.325-5.668a63.642 63.642 0 0 1-16.486 6.828" stroke="#000" stroke-width="12" stroke-linecap="round" stroke-linejoin="round"/><path d="M63.515 151.154A63.623 63.623 0 0 0 80 157.984L84 170h24l4-12.016a63.611 63.611 0 0 0 16.485-6.83" stroke="#000" stroke-width="12" stroke-linecap="round" stroke-linejoin="round"/><path d="M34.029 112.03a63.642 63.642 0 0 0 6.828 16.486l-5.669 11.325 16.971 16.97 11.325-5.668a63.646 63.646 0 0 0 16.486 6.828" stroke="#000" stroke-width="12" stroke-linecap="round" stroke-linejoin="round"/><path d="M40.846 63.514a63.612 63.612 0 0 0-6.83 16.485l-12.016 4v24l12.016 4a63.603 63.603 0 0 0 6.83 16.485" stroke="#000" stroke-width="12" stroke-linecap="round" stroke-linejoin="round"/><path d="M79.97 34.029a63.618 63.618 0 0 0-16.486 6.828L52.16 35.188 35.19 52.16l5.668 11.325a63.618 63.618 0 0 0-6.828 16.486" stroke="#000" stroke-width="12" stroke-linecap="round" stroke-linejoin="round"/></svg>