<svg width="192" height="192" viewBox="0 0 192 192" fill="none" xmlns="http://www.w3.org/2000/svg" stroke-linecap="round" stroke-linejoin="round">
<path d="M146.539 82.4723C134.637 110.002 131.427 117.141 130.562 118.005C130.05 118.515 125.857 115.633 120.491 111.081C85.382 81.3004 84.9949 80.9966 86.4683 84.3807C87.2475 86.1701 92.8675 98.4737 98.9576 111.722C105.048 124.971 111.961 140.013 114.321 145.15L118.612 154.491L131.743 154.745L144.873 155L160.446 112.468C169.012 89.0764 176.011 69.6044 176 69.1993C175.989 68.7943 170.719 68.4619 164.289 68.4619H152.596L146.539 82.4723Z" stroke="black" stroke-width="8" stroke-linejoin="round"/>
<path d="M24.8878 51.2562V65.5124H20.4439H16V74.8527V84.1929H20.3303H24.6616L25.108 107.544C25.5129 128.695 25.7618 131.423 27.7457 136.506C30.4012 143.309 37.4719 150.095 44.3975 152.486C51.085 154.795 61.2606 155.464 68.4073 154.064C74.3869 152.893 81.1771 150.266 81.1771 149.124C81.1771 148.069 75.1374 132.872 74.4343 132.159C74.0541 131.772 71.7798 132.129 69.3811 132.952C63.5438 134.955 58.4896 134.021 54.8821 130.274L52.0449 127.327V106.006V84.6845L62.6609 84.4053L73.2769 84.1261V74.8192V65.5124H62.414H51.5512V51.2562V37H38.2195H24.8878V51.2562Z" stroke="black" stroke-width="8" stroke-linejoin="round"/>
</svg>
