<svg width="192" height="192" viewBox="0 0 192 192" fill="none" xmlns="http://www.w3.org/2000/svg">
<path d="M118.747 137.145L94 85L132 112L151 73H170L147.822 135.986C146.131 140.788 141.594 144 136.503 144H129.588C124.954 144 120.734 141.332 118.747 137.145Z" stroke="black" stroke-width="12" stroke-linecap="square" stroke-linejoin="round"/>
<path d="M29.1927 66.4965V55C29.1927 50.5817 32.7744 47 37.1927 47H43.7982C48.2164 47 51.7982 50.5817 51.7982 55V62.0929C51.7982 66.5112 55.3799 70.0929 59.7982 70.0929H62.3388C66.4483 70.0929 69.7798 73.4243 69.7798 77.5339C69.7798 81.6435 66.4483 84.9749 62.3388 84.9749H60.3119C55.8937 84.9749 52.3119 88.5567 52.3119 92.975V116.792C52.0404 120.139 52.5629 121.395 56.8608 120.906L66.1084 118.853C69.4012 118.344 70.3152 118.937 70.8073 120.897L72.983 126.641C75.6095 133.574 71.3826 141.207 64.112 142.659L58.4808 143.784C57.7946 143.921 57.0954 143.999 56.3957 144.011C48.7203 144.147 44.1423 143.73 37.5 139C29.7471 133.329 29.0993 125.384 29.7064 108.581L29.2701 88.5313C29.227 86.5548 27.6124 84.9749 25.6355 84.9749C23.6277 84.9749 22 83.3473 22 81.3395V73.6892C22 71.703 23.6101 70.0929 25.5963 70.0929C27.5825 70.0929 29.1927 68.4827 29.1927 66.4965Z" stroke="black" stroke-width="12" stroke-linecap="square" stroke-linejoin="round"/>
</svg>
