<svg width="192" height="192" viewBox="0 0 192 192" fill="none" xmlns="http://www.w3.org/2000/svg" stroke-linecap="round" stroke-linejoin="round">
<path fill-rule="evenodd" clip-rule="evenodd" d="M144 82.8309C132.689 109.123 129.637 115.942 128.815 116.767C128.329 117.254 124.344 114.502 119.244 110.154C85.8761 81.7116 85.5082 81.4215 86.9086 84.6536C87.6491 86.3626 92.9904 98.1134 98.7785 110.767C104.567 123.42 111.137 137.787 113.38 142.693L117.458 151.614L129.938 151.857L142.417 152.1L157.218 111.479C165.359 89.1383 172.01 70.5411 172 70.1543C171.99 69.7674 166.981 69.45 160.87 69.45H149.757L144 82.8309Z" stroke="black" stroke-width="8" stroke-linejoin="round"/>
<path fill-rule="evenodd" clip-rule="evenodd" d="M28.4205 53.5673V67.1346H24.2102H20V76.0235V84.9124H24.1026H28.2062L28.6291 107.135C29.0127 127.264 29.2485 129.86 31.1281 134.698C33.6439 141.172 40.3429 147.63 46.9043 149.905C53.2402 152.103 62.8807 152.739 69.6517 151.407C75.3168 150.293 81.75 147.793 81.75 146.706C81.75 145.701 76.0278 131.239 75.3617 130.56C75.0015 130.192 72.8468 130.532 70.5742 131.315C65.0438 133.221 60.2554 132.332 56.8376 128.766L54.1496 125.962V105.671V85.3802L64.2074 85.1145L74.2652 84.8487V75.9917V67.1346H63.9735H53.6818V53.5673V40H41.0511H28.4205V53.5673Z" stroke="black" stroke-width="8" stroke-linejoin="round"/>
</svg>
