<svg xmlns="http://www.w3.org/2000/svg" width="192" height="192" viewBox="0 0 192 192"><path d="M176 76a6 6 0 0 1-6 6c-7.732 0-14 6.268-14 14s6.268 14 14 14a6 6 0 0 1 6 6v30a14 14 0 0 1-14 14H30a14 14 0 0 1-14-14v-30a6 6 0 0 1 6-6c7.732 0 14-6.268 14-14s-6.268-14-14-14a6 6 0 0 1-6-6V46a14 14 0 0 1 14-14h132a14 14 0 0 1 14 14zM30 44a2 2 0 0 0-2 2v24.696C39.467 73.405 48 83.706 48 96s-8.533 22.595-20 25.304V146a2 2 0 0 0 2 2h132a2 2 0 0 0 2-2v-24.696c-11.467-2.708-20-13.01-20-25.304s8.533-22.596 20-25.304V46a2 2 0 0 0-2-2z"/><path stroke="#000" stroke-linecap="round" stroke-width="12" d="M78 78h18m18 0H96m0 0v36"/></svg>