<svg width="192" height="192" viewBox="0 0 192 192" fill="none" xmlns="http://www.w3.org/2000/svg">
<path fill-rule="evenodd" clip-rule="evenodd" d="M176 76C176 79.3137 173.314 82 170 82C162.268 82 156 88.268 156 96C156 103.732 162.268 110 170 110C173.314 110 176 112.686 176 116V146C176 153.732 169.732 160 162 160H30C22.268 160 16 153.732 16 146V116C16 112.686 18.686 110 22 110C29.732 110 36 103.732 36 96C36 88.268 29.732 82 22 82C18.686 82 16 79.3137 16 76V46C16 38.268 22.268 32 30 32H162C169.732 32 176 38.268 176 46V76ZM30 44C28.895 44 28 44.8954 28 46V70.6958C39.4666 73.4045 48 83.7057 48 96C48 108.294 39.4666 118.595 28 121.304V146C28 147.105 28.895 148 30 148H162C163.105 148 164 147.105 164 146V121.304C152.533 118.596 144 108.294 144 96C144 83.7057 152.533 73.4044 164 70.6957V46C164 44.8954 163.105 44 162 44H30Z" fill="black"/>
<path d="M78 78H96M114 78H96M96 78V114" stroke="black" stroke-width="12" stroke-linecap="round"/>
</svg>
