<svg xmlns="http://www.w3.org/2000/svg" width="192" height="192" fill="none"><path stroke="#000" stroke-linecap="round" stroke-linejoin="round" stroke-width="12" d="M30 24v88c0 44 66 58 66 58s66-14 66-58V24c-40 30-66-2-66-2s-26 32-66 2"/><path stroke="#000" stroke-linecap="round" stroke-linejoin="round" stroke-width="12" d="M96 58c-11.046 0-20 8.954-20 20 0 6.69 3.284 12.612 8.328 16.243l-7.368 28.242c-.991 3.802 1.877 7.515 5.806 7.515h26.468c3.929 0 6.797-3.713 5.806-7.515l-7.368-28.242C112.716 90.612 116 84.689 116 78c0-11.046-8.954-20-20-20"/></svg>