<svg xmlns="http://www.w3.org/2000/svg" xmlns:xlink="http://www.w3.org/1999/xlink" width="192" height="192" viewBox="0 0 192 192" fill="none"><defs><rect id="path_0" x="0" y="0" width="192" height="192" /><rect id="path_1" x="0" y="0" width="160" height="88.51431658562939" /></defs><g opacity="1" transform="translate(0 0)  rotate(0 96 96)"><mask id="bg-mask-0" fill="white"><use xlink:href="#path_0"/></mask><g mask="url(#bg-mask-0)" ><g opacity="1" transform="translate(16 52)  rotate(0 80 44.257158292814694)"><mask id="bg-mask-1" fill="white"><use xlink:href="#path_1"/></mask><g mask="url(#bg-mask-1)" ><path id="路径 1" fill-rule="evenodd" style="fill:#000000" transform="translate(82.05550768213912 45.942805965829706)  rotate(0 4.77251889808778 4.77316118706062)" opacity="1" d="M2.39,8.91C3.86,9.76 5.68,9.76 7.16,8.91C8.64,8.05 9.55,6.48 9.55,4.77C9.55,3.07 8.64,1.49 7.16,0.64C5.68,-0.21 3.86,-0.21 2.39,0.64C0.91,1.49 0,3.07 0,4.77C0,6.48 0.91,8.05 2.39,8.91Z " /><path id="路径 2" fill-rule="evenodd" style="fill:#000000" transform="translate(82.94637787142084 35.03028844948677)  rotate(0 3.8816487088060505 3.8816487088060505)" opacity="1" d="M3.88,7.76C6.02,7.76 7.76,6.02 7.76,3.88C7.76,1.74 6.02,0 3.88,0C1.74,0 0,1.74 0,3.88C0,6.02 1.74,7.76 3.88,7.76Z " /><path id="路径 3" fill-rule="evenodd" style="fill:#000000" transform="translate(95.22765977309561 35.03028844948677)  rotate(0 3.8816487088060505 3.8816487088060505)" opacity="1" d="M3.88,7.76C6.02,7.76 7.76,6.02 7.76,3.88C7.76,1.74 6.02,0 3.88,0C1.74,0 0,1.74 0,3.88C0,6.02 1.74,7.76 3.88,7.76Z " /><path id="路径 4" fill-rule="evenodd" style="fill:#000000" transform="translate(106.93623943814154 35.03028849270664)  rotate(0 3.8816486655861646 3.881648765190887)" opacity="1" d="M1.94,7.24C3.14,7.94 4.62,7.94 5.82,7.24C7.02,6.55 7.76,5.27 7.76,3.88C7.76,1.74 6.02,0 3.88,0C1.74,0 0,1.74 0,3.88C0,5.27 0.74,6.55 1.94,7.24Z " /><path id="路径 5" fill-rule="evenodd" style="fill:#000000" transform="translate(118.8993533441383 35.03028844948677)  rotate(0 3.8816487088060505 3.8816487088060505)" opacity="1" d="M3.88,7.76C6.02,7.76 7.76,6.02 7.76,3.88C7.76,1.74 6.02,0 3.88,0C1.74,0 0,1.74 0,3.88C0,6.02 1.74,7.76 3.88,7.76Z " /><path id="路径 6" fill-rule="evenodd" style="fill:#000000" transform="translate(131.27608566180444 35.03028849270664)  rotate(0 3.8816486655861744 3.881648765190887)" opacity="1" d="M1.94,7.24C3.14,7.94 4.62,7.94 5.82,7.24C7.02,6.55 7.76,5.27 7.76,3.88C7.76,1.74 6.02,0 3.88,0C1.74,0 0,1.74 0,3.88C0,5.27 0.74,6.55 1.94,7.24Z " /><path id="路径 7" fill-rule="evenodd" style="fill:#000000" transform="translate(94.81404144786602 46.420700162074546)  rotate(0 4.295266990815767 4.295266990815777)" opacity="1" d="M4.3,8.59C6.67,8.59 8.59,6.67 8.59,4.3C8.59,1.92 6.67,0 4.3,0C1.92,0 0,1.92 0,4.3C0,6.67 1.92,8.59 4.3,8.59Z " /><path id="路径 8" fill-rule="evenodd" style="fill:#000000" transform="translate(94.81404144786602 58.98833322528363)  rotate(0 4.295266990815767 4.295266990815777)" opacity="1" d="M4.3,8.59C6.67,8.59 8.59,6.67 8.59,4.3C8.59,1.92 6.67,0 4.3,0C1.92,0 0,1.92 0,4.3C0,6.67 1.92,8.59 4.3,8.59Z " /><path id="路径 9" fill-rule="evenodd" style="fill:#000000" transform="translate(95.41856051863859 71.55596601670659)  rotate(0 3.6907479200432247 3.690748012716401)" opacity="1" d="M3.69,7.38C5.73,7.38 7.38,5.73 7.38,3.69C7.38,2.37 6.68,1.15 5.54,0.49C4.39,-0.16 2.99,-0.16 1.85,0.49C0.7,1.15 0,2.37 0,3.69C0,5.73 1.65,7.38 3.69,7.38Z " /><path id="路径 10" fill-rule="evenodd" style="fill:#000000" transform="translate(106.52262111291195 46.420700162074546)  rotate(0 4.295266990815777 4.295266990815777)" opacity="1" d="M4.3,8.59C6.67,8.59 8.59,6.67 8.59,4.3C8.59,1.92 6.67,0 4.3,0C1.92,0 0,1.92 0,4.3C0,6.67 1.92,8.59 4.3,8.59Z " /><path id="路径 11" fill-rule="evenodd" style="fill:#000000" transform="translate(106.52262111291195 58.98833322528363)  rotate(0 4.295266990815777 4.295266990815777)" opacity="1" d="M4.3,8.59C6.67,8.59 8.59,6.67 8.59,4.3C8.59,1.92 6.67,0 4.3,0C1.92,0 0,1.92 0,4.3C0,6.67 1.92,8.59 4.3,8.59Z " /><path id="路径 12" fill-rule="evenodd" style="fill:#000000" transform="translate(107.12714018368447 71.55596601670659)  rotate(0 3.6907479200432247 3.690748105389582)" opacity="1" d="M1.85,6.89C2.99,7.55 4.39,7.55 5.54,6.89C6.68,6.23 7.38,5.01 7.38,3.69C7.38,2.37 6.68,1.15 5.54,0.49C4.39,-0.16 2.99,-0.16 1.85,0.49C0.7,1.15 0,2.37 0,3.69C0,5.01 0.7,6.23 1.85,6.89Z " /><path id="路径 13" fill-rule="evenodd" style="fill:#000000" transform="translate(118.4857350619338 46.4200908330311)  rotate(0 4.2952669910105294 4.295876319859229)" opacity="1" d="M2.15,8.02C3.48,8.78 5.11,8.78 6.44,8.02C7.77,7.25 8.59,5.83 8.59,4.3C8.59,2.76 7.77,1.34 6.44,0.58C5.11,-0.19 3.48,-0.19 2.15,0.58C0.82,1.34 0,2.76 0,4.3C0,5.83 0.82,7.25 2.15,8.02Z " /><path id="路径 14" fill-rule="evenodd" style="fill:#000000" transform="translate(118.4857350619338 58.98772389624017)  rotate(0 4.2952669910105294 4.295876319859224)" opacity="1" d="M2.15,8.02C3.48,8.78 5.11,8.78 6.44,8.02C7.77,7.25 8.59,5.83 8.59,4.3C8.59,2.76 7.77,1.34 6.44,0.58C5.11,-0.19 3.48,-0.19 2.15,0.58C0.82,1.34 0,2.76 0,4.3C0,5.83 0.82,7.25 2.15,8.02Z " /><path id="路径 15" fill-rule="evenodd" style="fill:#000000" transform="translate(119.09025408968125 71.55596615883306)  rotate(0 3.690747963263101 3.690747963263101)" opacity="1" d="M3.69,7.38C5.73,7.38 7.38,5.73 7.38,3.69C7.38,1.65 5.73,0 3.69,0C1.65,0 0,1.65 0,3.69C0,5.73 1.65,7.38 3.69,7.38Z " /><path id="路径 16" fill-rule="evenodd" style="fill:#000000" transform="translate(130.86246733657484 46.420700162074546)  rotate(0 4.295266990815777 4.295266990815777)" opacity="1" d="M4.3,8.59C6.67,8.59 8.59,6.67 8.59,4.3C8.59,1.92 6.67,0 4.3,0C1.92,0 0,1.92 0,4.3C0,6.67 1.92,8.59 4.3,8.59Z " /><path id="路径 17" fill-rule="evenodd" style="fill:#000000" transform="translate(130.83065050243113 58.98833322528363)  rotate(0 4.295266990815777 4.295266990815777)" opacity="1" d="M4.3,8.59C6.67,8.59 8.59,6.67 8.59,4.3C8.59,1.92 6.67,0 4.3,0C1.92,0 0,1.92 0,4.3C0,6.67 1.92,8.59 4.3,8.59Z " /><path id="路径 18" fill-rule="evenodd" style="fill:#000000" transform="translate(131.46698640734735 71.55596601670659)  rotate(0 3.6907479200432345 3.690748105389582)" opacity="1" d="M1.85,6.89C2.99,7.55 4.39,7.55 5.54,6.89C6.68,6.23 7.38,5.01 7.38,3.69C7.38,2.37 6.68,1.15 5.54,0.49C4.39,-0.16 2.99,-0.16 1.85,0.49C0.7,1.15 0,2.37 0,3.69C0,5.01 0.7,6.23 1.85,6.89Z " /><path id="路径 19" fill-rule="evenodd" style="fill:#000000" transform="translate(143.9391690545651 7.7951141220961615)  rotate(0 2.608976985413293 2.6089769854132925)" opacity="1" d="M2.61,5.22C4.05,5.22 5.22,4.05 5.22,2.61C5.22,1.17 4.05,0 2.61,0C1.17,0 0,1.17 0,2.61C0,4.05 1.17,5.22 2.61,5.22Z " /><path id="路径 20" fill-rule="evenodd" style="fill:#000000" transform="translate(143.9391690545651 16.671999265262016)  rotate(0 2.608976985413293 2.608976985413293)" opacity="1" d="M2.61,5.22C4.05,5.22 5.22,4.05 5.22,2.61C5.22,1.17 4.05,0 2.61,0C1.17,0 0,1.17 0,2.61C0,4.05 1.17,5.22 2.61,5.22Z " /><path id="路径 21" fill-rule="evenodd" style="fill:#000000" transform="translate(143.30283314964888 72.00140127498649)  rotate(0 3.2453128471096817 3.2453128471096715)" opacity="1" d="M3.25,6.49C5.04,6.49 6.49,5.04 6.49,3.25C6.49,1.45 5.04,0 3.25,0C1.45,0 0,1.45 0,3.25C0,5.04 1.45,6.49 3.25,6.49Z " /><path id="路径 22" fill-rule="evenodd" style="fill:#000000" transform="translate(143.30283314964888 60.038287368989735)  rotate(0 3.2453128471096817 3.2453128471096715)" opacity="1" d="M3.25,6.49C5.04,6.49 6.49,5.04 6.49,3.25C6.49,1.45 5.04,0 3.25,0C1.45,0 0,1.45 0,3.25C0,5.04 1.45,6.49 3.25,6.49Z " /><path id="路径 23" fill-rule="evenodd" style="fill:#000000" transform="translate(143.30283314964888 47.470654305780656)  rotate(0 3.2453128471096817 3.2453128471096715)" opacity="1" d="M3.25,6.49C5.04,6.49 6.49,5.04 6.49,3.25C6.49,1.45 5.04,0 3.25,0C1.45,0 0,1.45 0,3.25C0,5.04 1.45,6.49 3.25,6.49Z " /><path id="路径 24" fill-rule="evenodd" style="fill:#000000" transform="translate(143.30283314964888 35.66662431118315)  rotate(0 3.2453128471096817 3.2453128471096715)" opacity="1" d="M3.25,6.49C5.04,6.49 6.49,5.04 6.49,3.25C6.49,1.45 5.04,0 3.25,0C1.45,0 0,1.45 0,3.25C0,5.04 1.45,6.49 3.25,6.49Z " /><path id="路径 25" fill-rule="evenodd" style="fill:#000000" transform="translate(83.6781641058887 25.167082830902213)  rotate(0 3.149862474338192 3.149862474338194)" opacity="1" d="M3.15,6.3C4.89,6.3 6.3,4.89 6.3,3.15C6.3,1.41 4.89,0 3.15,0C1.41,0 0,1.41 0,3.15C0,4.89 1.41,6.3 3.15,6.3Z " /><path id="路径 26" fill-rule="evenodd" style="fill:#000000" transform="translate(119.63113957860615 25.167082830902217)  rotate(0 3.149862474338192 3.149862474338192)" opacity="1" d="M3.15,6.3C4.89,6.3 6.3,4.89 6.3,3.15C6.3,1.41 4.89,0 3.15,0C1.41,0 0,1.41 0,3.15C0,4.89 1.41,6.3 3.15,6.3Z " /><path id="路径 27" fill-rule="evenodd" style="fill:#000000" transform="translate(132.0078718962723 25.167082874122094)  rotate(0 3.149862431118316 3.149862431118316)" opacity="1" d="M3.15,6.3C4.89,6.3 6.3,4.89 6.3,3.15C6.3,1.41 4.89,0 3.15,0C1.41,0 0,1.41 0,3.15C0,4.89 1.41,6.3 3.15,6.3Z " /><path id="路径 28" fill-rule="evenodd" style="fill:#000000" transform="translate(143.3982835656402 25.167082874122094)  rotate(0 3.149862431118316 3.149862431118316)" opacity="1" d="M3.15,6.3C4.89,6.3 6.3,4.89 6.3,3.15C6.3,1.41 4.89,0 3.15,0C1.41,0 0,1.41 0,3.15C0,4.89 1.41,6.3 3.15,6.3Z " /><path id="路径 29" fill-rule="evenodd" style="fill:#000000" transform="translate(107.66802567260942 25.167082874122094)  rotate(0 3.149862431118316 3.149862431118316)" opacity="1" d="M3.15,6.3C4.89,6.3 6.3,4.89 6.3,3.15C6.3,1.41 4.89,0 3.15,0C1.41,0 0,1.41 0,3.15C0,4.89 1.41,6.3 3.15,6.3Z " /><path id="路径 30" fill-rule="evenodd" style="fill:#000000" transform="translate(95.95944600756347 25.167082830902217)  rotate(0 3.149862474338192 3.149862474338192)" opacity="1" d="M3.15,6.3C4.89,6.3 6.3,4.89 6.3,3.15C6.3,1.41 4.89,0 3.15,0C1.41,0 0,1.41 0,3.15C0,4.89 1.41,6.3 3.15,6.3Z " /><path id="路径 31" fill-rule="evenodd" style="fill:#000000" transform="translate(83.10546186925986 71.55596620205293)  rotate(0 3.69074792004322 3.690748012716406)" opacity="1" d="M1.85,6.89C2.99,7.55 4.39,7.55 5.54,6.89C6.68,6.23 7.38,5.01 7.38,3.69C7.38,1.65 5.73,0 3.69,0C1.65,0 0,1.65 0,3.69C0,5.01 0.7,6.23 1.85,6.89Z " /><path id="路径 32" fill-rule="evenodd" style="fill:#000000" transform="translate(96.46851466234469 83.16909545166831)  rotate(0 2.672610567260936 2.6726106099200213)" opacity="1" d="M1.34,4.99C2.16,5.46 3.18,5.46 4.01,4.99C4.84,4.51 5.35,3.63 5.35,2.67C5.35,1.72 4.84,0.84 4.01,0.36C3.18,-0.12 2.16,-0.12 1.34,0.36C0.51,0.84 0,1.72 0,2.67C0,3.63 0.51,4.51 1.34,4.99Z " /><path id="路径 33" fill-rule="evenodd" style="fill:#000000" transform="translate(108.1452774932469 83.16909545166831)  rotate(0 2.672610567260936 2.6726106099200213)" opacity="1" d="M1.34,4.99C2.16,5.46 3.18,5.46 4.01,4.99C4.84,4.51 5.35,3.63 5.35,2.67C5.35,1.72 4.84,0.84 4.01,0.36C3.18,-0.12 2.16,-0.12 1.34,0.36C0.51,0.84 0,1.72 0,2.67C0,3.63 0.51,4.51 1.34,4.99Z " /><path id="路径 34" fill-rule="evenodd" style="fill:#000000" transform="translate(120.10839148568341 83.16909545166831)  rotate(0 2.672610567260946 2.6726106099200213)" opacity="1" d="M1.34,4.99C2.16,5.46 3.18,5.46 4.01,4.99C4.84,4.51 5.35,3.63 5.35,2.67C5.35,1.72 4.84,0.84 4.01,0.36C3.18,-0.12 2.16,-0.12 1.34,0.36C0.51,0.84 0,1.72 0,2.67C0,3.63 0.51,4.51 1.34,4.99Z " /><path id="路径 35" fill-rule="evenodd" style="fill:#000000" transform="translate(132.48512371690978 83.16909545166831)  rotate(0 2.672610567260946 2.6726106099200213)" opacity="1" d="M1.34,4.99C2.16,5.46 3.18,5.46 4.01,4.99C4.84,4.51 5.35,3.63 5.35,2.67C5.35,1.72 4.84,0.84 4.01,0.36C3.18,-0.12 2.16,-0.12 1.34,0.36C0.51,0.84 0,1.72 0,2.67C0,3.63 0.51,4.51 1.34,4.99Z " /><path id="路径 36" fill-rule="evenodd" style="fill:#000000" transform="translate(143.87553547271744 83.16909545166831)  rotate(0 2.672610567260936 2.6726106099200213)" opacity="1" d="M1.34,4.99C2.16,5.46 3.18,5.46 4.01,4.99C4.84,4.51 5.35,3.63 5.35,2.67C5.35,1.72 4.84,0.84 4.01,0.36C3.18,-0.12 2.16,-0.12 1.34,0.36C0.51,0.84 0,1.72 0,2.67C0,3.63 0.51,4.51 1.34,4.99Z " /><path id="路径 37" fill-rule="evenodd" style="fill:#000000" transform="translate(154.34326011865997 72.44634439187365)  rotate(0 2.7998777743708323 2.800369730222499)" opacity="1" d="M1.4,5.23C2.27,5.73 3.33,5.73 4.2,5.23C5.07,4.73 5.6,3.8 5.6,2.8C5.6,1.8 5.07,0.88 4.2,0.38C3.33,-0.13 2.27,-0.13 1.4,0.38C0.53,0.88 0,1.8 0,2.8C0,3.8 0.53,4.73 1.4,5.23Z " /><path id="路径 38" fill-rule="evenodd" style="fill:#000000" transform="translate(154.34326011865997 60.483230485876916)  rotate(0 2.7998777743708323 2.800369730222494)" opacity="1" d="M1.4,5.23C2.27,5.73 3.33,5.73 4.2,5.23C5.07,4.73 5.6,3.8 5.6,2.8C5.6,1.8 5.07,0.88 4.2,0.38C3.33,-0.13 2.27,-0.13 1.4,0.38C0.53,0.88 0,1.8 0,2.8C0,3.8 0.53,4.73 1.4,5.23Z " /><path id="路径 39" fill-rule="evenodd" style="fill:#000000" transform="translate(154.34326011865997 47.94741425681154)  rotate(0 2.7998777743708323 2.800369730222499)" opacity="1" d="M1.4,5.23C2.27,5.73 3.33,5.73 4.2,5.23C5.07,4.73 5.6,3.8 5.6,2.8C5.6,1.8 5.07,0.88 4.2,0.38C3.33,-0.13 2.27,-0.13 1.4,0.38C0.53,0.88 0,1.8 0,2.8C0,3.8 0.53,4.73 1.4,5.23Z " /><path id="路径 40" fill-rule="evenodd" style="fill:#000000" transform="translate(154.34326011865997 36.17520100991797)  rotate(0 2.7998777743708323 2.800369730222499)" opacity="1" d="M1.4,5.23C2.27,5.73 3.33,5.73 4.2,5.23C5.07,4.73 5.6,3.8 5.6,2.8C5.6,1.8 5.07,0.88 4.2,0.38C3.33,-0.13 2.27,-0.13 1.4,0.38C0.53,0.88 0,1.8 0,2.8C0,3.8 0.53,4.73 1.4,5.23Z " /><path id="路径 41" fill-rule="evenodd" style="fill:#000000" transform="translate(154.72506165316048 16.76744959481362)  rotate(0 2.4817098217179865 2.4817098217179865)" opacity="1" d="M2.48,4.96C3.85,4.96 4.96,3.85 4.96,2.48C4.96,1.11 3.85,0 2.48,0C1.11,0 0,1.11 0,2.48C0,3.85 1.11,4.96 2.48,4.96Z " /><path id="路径 42" fill-rule="evenodd" style="fill:#000000" transform="translate(120.39474260380312 16.89426263467275)  rotate(0 2.3862594491412494 2.386713616002559)" opacity="1" d="M1.19,4.45C1.93,4.88 2.84,4.88 3.58,4.45C4.32,4.03 4.77,3.24 4.77,2.39C4.77,1.53 4.32,0.75 3.58,0.32C2.84,-0.11 1.93,-0.11 1.19,0.32C0.45,0.75 0,1.53 0,2.39C0,3.24 0.45,4.03 1.19,4.45Z " /><path id="路径 43" fill-rule="evenodd" style="fill:#000000" transform="translate(132.77147487844408 16.894716801728794)  rotate(0 2.3862594489465163 2.3862594489465163)" opacity="1" d="M2.39,4.77C3.7,4.77 4.77,3.7 4.77,2.39C4.77,1.07 3.7,0 2.39,0C1.07,0 0,1.07 0,2.39C0,3.7 1.07,4.77 2.39,4.77Z " /><path id="路径 44" fill-rule="evenodd" style="fill:#000000" transform="translate(154.9477791894325 8.144656932273957)  rotate(0 2.2589922854459332 2.2594341752354965)" opacity="1" d="M1.13,4.22C1.83,4.62 2.69,4.62 3.39,4.22C4.09,3.81 4.52,3.07 4.52,2.26C4.52,1.45 4.09,0.71 3.39,0.3C2.69,-0.1 1.83,-0.1 1.13,0.3C0.43,0.71 0,1.45 0,2.26C0,3.07 0.43,3.81 1.13,4.22Z " /><path id="路径 45" fill-rule="evenodd" style="fill:#000000" transform="translate(144.4164208752026 -1.0696605679193414e-7)  rotate(0 2.131725121555913 2.1317252285219728)" opacity="1" d="M1.07,3.98C1.73,4.36 2.54,4.36 3.2,3.98C3.86,3.6 4.26,2.89 4.26,2.13C4.26,1.37 3.86,0.67 3.2,0.29C2.54,-0.1 1.73,-0.1 1.07,0.29C0.41,0.67 0,1.37 0,2.13C0,2.89 0.41,3.6 1.07,3.98Z " /><path id="路径 46" fill-rule="evenodd" style="fill:#000000" transform="translate(132.99419245813073 8.24054923824959)  rotate(0 2.1635418692598636 2.163541869259863)" opacity="1" d="M2.16,4.33C3.36,4.33 4.33,3.36 4.33,2.16C4.33,0.97 3.36,0 2.16,0C0.97,0 0,0.97 0,2.16C0,3.36 0.97,4.33 2.16,4.33Z " /><path id="路径 47" fill-rule="evenodd" style="fill:#000000" transform="translate(35.22118923824959 16.926533592652618)  rotate(0 2.35444265802269 2.35444265802269)" opacity="1" d="M2.35,4.71C3.65,4.71 4.71,3.65 4.71,2.35C4.71,1.05 3.65,0 2.35,0C1.05,0 0,1.05 0,2.35C0,3.65 1.05,4.71 2.35,4.71Z " /><path id="路径 48" fill-rule="evenodd" style="fill:#000000" transform="translate(22.717189843327933 16.926533576565678)  rotate(0 2.354442614802809 2.3544426741096354)" opacity="1" d="M1.18,4.39C1.91,4.81 2.8,4.81 3.53,4.39C4.26,3.97 4.71,3.2 4.71,2.35C4.71,1.51 4.26,0.74 3.53,0.32C2.8,-0.11 1.91,-0.11 1.18,0.32C0.45,0.74 0,1.51 0,2.35C0,3.2 0.45,3.97 1.18,4.39Z " /><path id="路径 49" fill-rule="evenodd" style="fill:#000000" transform="translate(22.908090588870877 8.240549173709807)  rotate(0 2.1635418692598614 2.1635419337996455)" opacity="1" d="M1.08,4.04C1.75,4.42 2.58,4.42 3.25,4.04C3.91,3.65 4.33,2.94 4.33,2.16C4.33,1.39 3.91,0.68 3.25,0.29C2.58,-0.1 1.75,-0.1 1.08,0.29C0.41,0.68 0,1.39 0,2.16C0,2.94 0.41,3.65 1.08,4.04Z " /><path id="路径 50" fill-rule="evenodd" style="fill:#000000" transform="translate(84.12359926526202 83.13727866018368)  rotate(0 2.672610567260941 2.672610567260946)" opacity="1" d="M2.67,5.35C4.15,5.35 5.35,4.15 5.35,2.67C5.35,1.2 4.15,0 2.67,0C1.2,0 0,1.2 0,2.67C0,4.15 1.2,5.35 2.67,5.35Z " /><path id="路径 51" fill-rule="evenodd" style="fill:#000000" transform="translate(82.05550768213912 58.51043902903879)  rotate(0 4.77251889808778 4.77316118706062)" opacity="1" d="M2.39,8.91C3.86,9.76 5.68,9.76 7.16,8.91C8.64,8.05 9.55,6.48 9.55,4.77C9.55,3.07 8.64,1.49 7.16,0.64C5.68,-0.21 3.86,-0.21 2.39,0.64C0.91,1.49 0,3.07 0,4.77C0,6.48 0.91,8.05 2.39,8.91Z " /><path id="路径 52" fill-rule="evenodd" style="fill:#000000" transform="translate(154.37507690977847 25.51706741589064)  rotate(0 2.799877774176148 2.7998778893497667)" opacity="1" d="M1.4,5.22C2.27,5.72 3.33,5.72 4.2,5.22C5.07,4.72 5.6,3.8 5.6,2.8C5.6,1.8 5.07,0.88 4.2,0.38C3.33,-0.13 2.27,-0.13 1.4,0.38C0.53,0.88 0,1.8 0,2.8C0,3.8 0.53,4.72 1.4,5.22Z " /><path id="路径 53" fill-rule="evenodd" style="fill:#000000" transform="translate(-4.3414592390989275e-8 72.44634439186018)  rotate(0 2.7998777743708327 2.8003697302359813)" opacity="1" d="M1.4,5.23C2.27,5.73 3.33,5.73 4.2,5.23C5.07,4.73 5.6,3.8 5.6,2.8C5.6,1.8 5.07,0.88 4.2,0.38C3.33,-0.13 2.27,-0.13 1.4,0.38C0.53,0.88 0,1.8 0,2.8C0,3.8 0.53,4.73 1.4,5.23Z " /><path id="路径 54" fill-rule="evenodd" style="fill:#000000" transform="translate(-4.3414592390989275e-8 60.48323048586342)  rotate(0 2.7998777743708327 2.8003697302359813)" opacity="1" d="M1.4,5.23C2.27,5.73 3.33,5.73 4.2,5.23C5.07,4.73 5.6,3.8 5.6,2.8C5.6,1.8 5.07,0.88 4.2,0.38C3.33,-0.13 2.27,-0.13 1.4,0.38C0.53,0.88 0,1.8 0,2.8C0,3.8 0.53,4.73 1.4,5.23Z " /><path id="路径 55" fill-rule="evenodd" style="fill:#000000" transform="translate(-4.3414592390989275e-8 47.947414256798055)  rotate(0 2.7998777743708327 2.8003697302359813)" opacity="1" d="M1.4,5.23C2.27,5.73 3.33,5.73 4.2,5.23C5.07,4.73 5.6,3.8 5.6,2.8C5.6,1.8 5.07,0.88 4.2,0.38C3.33,-0.13 2.27,-0.13 1.4,0.38C0.53,0.88 0,1.8 0,2.8C0,3.8 0.53,4.73 1.4,5.23Z " /><path id="路径 56" fill-rule="evenodd" style="fill:#000000" transform="translate(-4.3414592390989275e-8 36.17520100990449)  rotate(0 2.7998777743708327 2.8003697302359694)" opacity="1" d="M1.4,5.23C2.27,5.73 3.33,5.73 4.2,5.23C5.07,4.73 5.6,3.8 5.6,2.8C5.6,1.8 5.07,0.88 4.2,0.38C3.33,-0.13 2.27,-0.13 1.4,0.38C0.53,0.88 0,1.8 0,2.8C0,3.8 0.53,4.73 1.4,5.23Z " /><path id="路径 57" fill-rule="evenodd" style="fill:#000000" transform="translate(0.3818014910858986 16.767449594813616)  rotate(0 2.481709821717991 2.481709844688266)" opacity="1" d="M1.24,4.63C2.01,5.07 2.95,5.07 3.72,4.63C4.49,4.19 4.96,3.37 4.96,2.48C4.96,1.11 3.85,0 2.48,0C1.11,0 0,1.11 0,2.48C0,3.37 0.47,4.19 1.24,4.63Z " /><path id="路径 58" fill-rule="evenodd" style="fill:#000000" transform="translate(0.6045190273579726 8.14465693227684)  rotate(0 2.258992285445916 2.259434175232615)" opacity="1" d="M1.13,4.22C1.83,4.62 2.69,4.62 3.39,4.22C4.09,3.81 4.52,3.07 4.52,2.26C4.52,1.45 4.09,0.71 3.39,0.3C2.69,-0.1 1.83,-0.1 1.13,0.3C0.43,0.71 0,1.45 0,2.26C0,3.07 0.43,3.81 1.13,4.22Z " /><path id="路径 59" fill-rule="evenodd" style="fill:#000000" transform="translate(0.03181679072911225 25.516575575004435)  rotate(0 2.799877774370833 2.8003697302359742)" opacity="1" d="M1.4,5.23C2.27,5.73 3.33,5.73 4.2,5.23C5.07,4.73 5.6,3.8 5.6,2.8C5.6,1.8 5.07,0.88 4.2,0.38C3.33,-0.13 2.27,-0.13 1.4,0.38C0.53,0.88 0,1.8 0,2.8C0,3.8 0.53,4.73 1.4,5.23Z " /><path id="路径 60" fill-rule="evenodd" style="fill:#000000" transform="translate(68.97880600756348 45.91163146407347)  rotate(0 4.80433568881685 4.80433568881685)" opacity="1" d="M4.8,9.61C7.46,9.61 9.61,7.46 9.61,4.8C9.61,2.15 7.46,0 4.8,0C2.15,0 0,2.15 0,4.8C0,7.46 2.15,9.61 4.8,9.61Z " /><path id="路径 61" fill-rule="evenodd" style="fill:#000000" transform="translate(69.90149298757427 35.030288492706646)  rotate(0 3.8816486655861744 3.8816486655861695)" opacity="1" d="M3.88,7.76C6.02,7.76 7.76,6.02 7.76,3.88C7.76,1.74 6.02,0 3.88,0C1.74,0 0,1.74 0,3.88C0,6.02 1.74,7.76 3.88,7.76Z " /><path id="路径 62" fill-rule="evenodd" style="fill:#000000" transform="translate(57.55657750405186 35.03028844948677)  rotate(0 3.8816487088060505 3.8816487088060505)" opacity="1" d="M3.88,7.76C6.02,7.76 7.76,6.02 7.76,3.88C7.76,1.74 6.02,0 3.88,0C1.74,0 0,1.74 0,3.88C0,6.02 1.74,7.76 3.88,7.76Z " /><path id="路径 63" fill-rule="evenodd" style="fill:#000000" transform="translate(45.816181091302 35.03028844948677)  rotate(0 3.8816487088060505 3.8816487088060505)" opacity="1" d="M3.88,7.76C6.02,7.76 7.76,6.02 7.76,3.88C7.76,1.74 6.02,0 3.88,0C1.74,0 0,1.74 0,3.88C0,6.02 1.74,7.76 3.88,7.76Z " /><path id="路径 64" fill-rule="evenodd" style="fill:#000000" transform="translate(33.69398318746623 35.030288492706646)  rotate(0 3.8816486655861695 3.8816486655861695)" opacity="1" d="M3.88,7.76C6.02,7.76 7.76,6.02 7.76,3.88C7.76,1.74 6.02,0 3.88,0C1.74,0 0,1.74 0,3.88C0,6.02 1.74,7.76 3.88,7.76Z " /><path id="路径 65" fill-rule="evenodd" style="fill:#000000" transform="translate(21.18998379254457 35.030288492706646)  rotate(0 3.8816486655861695 3.8816486655861695)" opacity="1" d="M3.88,7.76C6.02,7.76 7.76,6.02 7.76,3.88C7.76,1.74 6.02,0 3.88,0C1.74,0 0,1.74 0,3.88C0,6.02 1.74,7.76 3.88,7.76Z " /><path id="路径 66" fill-rule="evenodd" style="fill:#000000" transform="translate(57.11114243111832 46.38888337115073)  rotate(0 4.327083781739594 4.327083781739594)" opacity="1" d="M4.33,8.65C6.72,8.65 8.65,6.72 8.65,4.33C8.65,1.94 6.72,0 4.33,0C1.94,0 0,1.94 0,4.33C0,6.72 1.94,8.65 4.33,8.65Z " /><path id="路径 67" fill-rule="evenodd" style="fill:#000000" transform="translate(57.11114243111832 58.95651643435982)  rotate(0 4.327083781739594 4.327083781739594)" opacity="1" d="M4.33,8.65C6.72,8.65 8.65,6.72 8.65,4.33C8.65,1.94 6.72,0 4.33,0C1.94,0 0,1.94 0,4.33C0,6.72 1.94,8.65 4.33,8.65Z " /><path id="路径 68" fill-rule="evenodd" style="fill:#000000" transform="translate(57.747478249594806 71.55596615883306)  rotate(0 3.690747963263101 3.690747963263101)" opacity="1" d="M3.69,7.38C5.73,7.38 7.38,5.73 7.38,3.69C7.38,1.65 5.73,0 3.69,0C1.65,0 0,1.65 0,3.69C0,5.73 1.65,7.38 3.69,7.38Z " /><path id="路径 69" fill-rule="evenodd" style="fill:#000000" transform="translate(45.37074601836846 46.38888337115073)  rotate(0 4.327083781739598 4.327083781739594)" opacity="1" d="M4.33,8.65C6.72,8.65 8.65,6.72 8.65,4.33C8.65,1.94 6.72,0 4.33,0C1.94,0 0,1.94 0,4.33C0,6.72 1.94,8.65 4.33,8.65Z " /><path id="路径 70" fill-rule="evenodd" style="fill:#000000" transform="translate(45.37074601836846 58.95651643435982)  rotate(0 4.327083781739598 4.327083781739594)" opacity="1" d="M4.33,8.65C6.72,8.65 8.65,6.72 8.65,4.33C8.65,1.94 6.72,0 4.33,0C1.94,0 0,1.94 0,4.33C0,6.72 1.94,8.65 4.33,8.65Z " /><path id="路径 71" fill-rule="evenodd" style="fill:#000000" transform="translate(46.00708183684495 71.55596615883306)  rotate(0 3.690747963263101 3.690747963263101)" opacity="1" d="M3.69,7.38C5.73,7.38 7.38,5.73 7.38,3.69C7.38,1.65 5.73,0 3.69,0C1.65,0 0,1.65 0,3.69C0,5.73 1.65,7.38 3.69,7.38Z " /><path id="路径 72" fill-rule="evenodd" style="fill:#000000" transform="translate(33.24854811453268 46.388883371150726)  rotate(0 4.327083781739604 4.327083781739604)" opacity="1" d="M4.33,8.65C6.72,8.65 8.65,6.72 8.65,4.33C8.65,1.94 6.72,0 4.33,0C1.94,0 0,1.94 0,4.33C0,6.72 1.94,8.65 4.33,8.65Z " /><path id="路径 73" fill-rule="evenodd" style="fill:#000000" transform="translate(33.24854811453268 58.956516434359806)  rotate(0 4.327083781739604 4.327083781739604)" opacity="1" d="M4.33,8.65C6.72,8.65 8.65,6.72 8.65,4.33C8.65,1.94 6.72,0 4.33,0C1.94,0 0,1.94 0,4.33C0,6.72 1.94,8.65 4.33,8.65Z " /><path id="路径 74" fill-rule="evenodd" style="fill:#000000" transform="translate(33.884883933009185 71.55596620205293)  rotate(0 3.69074792004322 3.6907479200432247)" opacity="1" d="M3.69,7.38C5.73,7.38 7.38,5.73 7.38,3.69C7.38,1.65 5.73,0 3.69,0C1.65,0 0,1.65 0,3.69C0,5.73 1.65,7.38 3.69,7.38Z " /><path id="路径 75" fill-rule="evenodd" style="fill:#000000" transform="translate(20.744548633171252 46.388883371150726)  rotate(0 4.327083781739601 4.327083808087857)" opacity="1" d="M2.16,8.07C3.5,8.85 5.15,8.85 6.49,8.07C7.83,7.3 8.65,5.87 8.65,4.33C8.65,1.94 6.72,0 4.33,0C1.94,0 0,1.94 0,4.33C0,5.87 0.82,7.3 2.16,8.07Z " /><path id="路径 76" fill-rule="evenodd" style="fill:#000000" transform="translate(20.744548633171252 58.956516434359806)  rotate(0 4.327083781739601 4.3270838080878615)" opacity="1" d="M2.16,8.07C3.5,8.85 5.15,8.85 6.49,8.07C7.83,7.3 8.65,5.87 8.65,4.33C8.65,1.94 6.72,0 4.33,0C1.94,0 0,1.94 0,4.33C0,5.87 0.82,7.3 2.16,8.07Z " /><path id="路径 77" fill-rule="evenodd" style="fill:#000000" transform="translate(21.38088453808752 71.55596620205293)  rotate(0 3.69074792004322 3.6907479200432247)" opacity="1" d="M3.69,7.38C5.73,7.38 7.38,5.73 7.38,3.69C7.38,1.65 5.73,0 3.69,0C1.65,0 0,1.65 0,3.69C0,5.73 1.65,7.38 3.69,7.38Z " /><path id="路径 78" fill-rule="evenodd" style="fill:#000000" transform="translate(11.231327757968666 7.795114122096164)  rotate(0 2.6089769854132903 2.6089769854132907)" opacity="1" d="M2.61,5.22C4.05,5.22 5.22,4.05 5.22,2.61C5.22,1.17 4.05,0 2.61,0C1.17,0 0,1.17 0,2.61C0,4.05 1.17,5.22 2.61,5.22Z " /><path id="路径 79" fill-rule="evenodd" style="fill:#000000" transform="translate(11.231327757968666 16.67199926526202)  rotate(0 2.6089769854132903 2.6089769854132903)" opacity="1" d="M2.61,5.22C4.05,5.22 5.22,4.05 5.22,2.61C5.22,1.17 4.05,0 2.61,0C1.17,0 0,1.17 0,2.61C0,4.05 1.17,5.22 2.61,5.22Z " /><path id="路径 80" fill-rule="evenodd" style="fill:#000000" transform="translate(10.594991853052404 72.00140127498649)  rotate(0 3.245312847109671 3.2453128471096715)" opacity="1" d="M3.25,6.49C5.04,6.49 6.49,5.04 6.49,3.25C6.49,1.45 5.04,0 3.25,0C1.45,0 0,1.45 0,3.25C0,5.04 1.45,6.49 3.25,6.49Z " /><path id="路径 81" fill-rule="evenodd" style="fill:#000000" transform="translate(10.531358271204754 60.038287368989735)  rotate(0 3.245312847109671 3.2453128775340185)" opacity="1" d="M1.62,6.06C2.63,6.64 3.86,6.64 4.87,6.06C5.87,5.48 6.49,4.4 6.49,3.25C6.49,1.45 5.04,0 3.25,0C1.45,0 0,1.45 0,3.25C0,4.4 0.62,5.48 1.62,6.06Z " /><path id="路径 82" fill-rule="evenodd" style="fill:#000000" transform="translate(10.594991853052404 47.470654305780656)  rotate(0 3.245312847109671 3.2453128471096715)" opacity="1" d="M3.25,6.49C5.04,6.49 6.49,5.04 6.49,3.25C6.49,1.45 5.04,0 3.25,0C1.45,0 0,1.45 0,3.25C0,5.04 1.45,6.49 3.25,6.49Z " /><path id="路径 83" fill-rule="evenodd" style="fill:#000000" transform="translate(10.594991853052404 35.66662431118315)  rotate(0 3.245312847109671 3.2453128471096715)" opacity="1" d="M3.25,6.49C5.04,6.49 6.49,5.04 6.49,3.25C6.49,1.45 5.04,0 3.25,0C1.45,0 0,1.45 0,3.25C0,5.04 1.45,6.49 3.25,6.49Z " /><path id="路径 84" fill-rule="evenodd" style="fill:#000000" transform="translate(70.63327922204213 25.167082830902213)  rotate(0 3.149862474338192 3.149862474338197)" opacity="1" d="M3.15,6.3C4.89,6.3 6.3,4.89 6.3,3.15C6.3,1.41 4.89,0 3.15,0C1.41,0 0,1.41 0,3.15C0,4.89 1.41,6.3 3.15,6.3Z " /><path id="路径 85" fill-rule="evenodd" style="fill:#000000" transform="translate(34.42576942193409 25.167082830902213)  rotate(0 3.149862474338197 3.149862474338197)" opacity="1" d="M3.15,6.3C4.89,6.3 6.3,4.89 6.3,3.15C6.3,1.41 4.89,0 3.15,0C1.41,0 0,1.41 0,3.15C0,4.89 1.41,6.3 3.15,6.3Z " /><path id="路径 86" fill-rule="evenodd" style="fill:#000000" transform="translate(21.921770027012414 25.167082874122094)  rotate(0 3.1498624311183168 3.149862479000576)" opacity="1" d="M1.57,5.88C2.55,6.44 3.75,6.44 4.72,5.88C5.7,5.32 6.3,4.28 6.3,3.15C6.3,1.41 4.89,0 3.15,0C1.41,0 0,1.41 0,3.15C0,4.28 0.6,5.32 1.57,5.88Z " /><path id="路径 87" fill-rule="evenodd" style="fill:#000000" transform="translate(10.69044226904376 25.167082874122094)  rotate(0 3.1498624311183154 3.149862431118316)" opacity="1" d="M3.15,6.3C4.89,6.3 6.3,4.89 6.3,3.15C6.3,1.41 4.89,0 3.15,0C1.41,0 0,1.41 0,3.15C0,4.89 1.41,6.3 3.15,6.3Z " /><path id="路径 88" fill-rule="evenodd" style="fill:#000000" transform="translate(46.547967325769854 25.167082830902213)  rotate(0 3.149862474338197 3.149862474338197)" opacity="1" d="M3.15,6.3C4.89,6.3 6.3,4.89 6.3,3.15C6.3,1.41 4.89,0 3.15,0C1.41,0 0,1.41 0,3.15C0,4.89 1.41,6.3 3.15,6.3Z " /><path id="路径 89" fill-rule="evenodd" style="fill:#000000" transform="translate(58.320180572663425 25.167082874122094)  rotate(0 3.149862431118316 3.149862431118316)" opacity="1" d="M3.15,6.3C4.89,6.3 6.3,4.89 6.3,3.15C6.3,1.41 4.89,0 3.15,0C1.41,0 0,1.41 0,3.15C0,4.89 1.41,6.3 3.15,6.3Z " /><path id="路径 90" fill-rule="evenodd" style="fill:#000000" transform="translate(70.12421056726096 71.55596620205293)  rotate(0 3.690747920043215 3.6907479200432247)" opacity="1" d="M3.69,7.38C5.73,7.38 7.38,5.73 7.38,3.69C7.38,1.65 5.73,0 3.69,0C1.65,0 0,1.65 0,3.69C0,5.73 1.65,7.38 3.69,7.38Z " /><path id="路径 91" fill-rule="evenodd" style="fill:#000000" transform="translate(58.765615645596974 83.16909549432741)  rotate(0 2.672610567260941 2.672610567260936)" opacity="1" d="M2.67,5.35C4.15,5.35 5.35,4.15 5.35,2.67C5.35,1.2 4.15,0 2.67,0C1.2,0 0,1.2 0,2.67C0,4.15 1.2,5.35 2.67,5.35Z " /><path id="路径 92" fill-rule="evenodd" style="fill:#000000" transform="translate(47.025219232847114 83.16909549432741)  rotate(0 2.672610567260946 2.672610567260936)" opacity="1" d="M2.67,5.35C4.15,5.35 5.35,4.15 5.35,2.67C5.35,1.2 4.15,0 2.67,0C1.2,0 0,1.2 0,2.67C0,4.15 1.2,5.35 2.67,5.35Z " /><path id="路径 93" fill-rule="evenodd" style="fill:#000000" transform="translate(34.903021329011345 83.16909549432741)  rotate(0 2.672610567260941 2.672610567260936)" opacity="1" d="M2.67,5.35C4.15,5.35 5.35,4.15 5.35,2.67C5.35,1.2 4.15,0 2.67,0C1.2,0 0,1.2 0,2.67C0,4.15 1.2,5.35 2.67,5.35Z " /><path id="路径 94" fill-rule="evenodd" style="fill:#000000" transform="translate(22.399021847649916 83.16909549432741)  rotate(0 2.672610567260941 2.672610567260936)" opacity="1" d="M2.67,5.35C4.15,5.35 5.35,4.15 5.35,2.67C5.35,1.2 4.15,0 2.67,0C1.2,0 0,1.2 0,2.67C0,4.15 1.2,5.35 2.67,5.35Z " /><path id="路径 95" fill-rule="evenodd" style="fill:#000000" transform="translate(11.167694176121014 83.16909549432741)  rotate(0 2.672610567260941 2.672610567260936)" opacity="1" d="M2.67,5.35C4.15,5.35 5.35,4.15 5.35,2.67C5.35,1.2 4.15,0 2.67,0C1.2,0 0,1.2 0,2.67C0,4.15 1.2,5.35 2.67,5.35Z " /><path id="路径 96" fill-rule="evenodd" style="fill:#000000" transform="translate(11.708579578606159 0)  rotate(0 2.131725121555916 2.131725121555916)" opacity="1" d="M2.13,4.26C3.31,4.26 4.26,3.31 4.26,2.13C4.26,0.96 3.31,0 2.13,0C0.96,0 0,0.96 0,2.13C0,3.31 0.96,4.26 2.13,4.26Z " /><path id="路径 97" fill-rule="evenodd" style="fill:#000000" transform="translate(71.1105311291194 83.13727866018368)  rotate(0 2.672610567260941 2.672610567260946)" opacity="1" d="M2.67,5.35C4.15,5.35 5.35,4.15 5.35,2.67C5.35,1.2 4.15,0 2.67,0C1.2,0 0,1.2 0,2.67C0,4.15 1.2,5.35 2.67,5.35Z " /><path id="路径 98" fill-rule="evenodd" style="fill:#000000" transform="translate(68.97880600756348 58.47926452728255)  rotate(0 4.80433568881685 4.80433568881686)" opacity="1" d="M4.8,9.61C7.46,9.61 9.61,7.46 9.61,4.8C9.61,2.15 7.46,0 4.8,0C2.15,0 0,2.15 0,4.8C0,7.46 2.15,9.61 4.8,9.61Z " /></g></g></g></g></svg>
