<svg width="192" height="192" viewBox="0 0 192 192" fill="none" xmlns="http://www.w3.org/2000/svg"><path d="M56 114v-12a6 6 0 0 0-6-6H38a6 6 0 0 0-6 6v12a6 6 0 0 0 6 6h12a6 6 0 0 0 6-6Zm104 0v-12a6 6 0 0 0-6-6h-12a6 6 0 0 0-6 6v12a6 6 0 0 0 6 6h12a6 6 0 0 0 6-6Z" stroke="#000" stroke-width="12" stroke-linecap="round" stroke-linejoin="round"/><path d="M96 22H38a6 6 0 0 0-6 6v38a6 6 0 0 0 6 6h10c0-8 0-34 32-34v102c0 8 0 14-16 14h-2a6 6 0 0 0-6 6v4a6 6 0 0 0 6 6h34m0-148h58a6 6 0 0 1 6 6v38a6 6 0 0 1-6 6h-10c0-8 0-34-32-34v102c0 8 0 14 16 14h2a6 6 0 0 1 6 6v4a6 6 0 0 1-6 6H96" stroke="#000" stroke-width="12" stroke-linecap="round" stroke-linejoin="round"/></svg>