<?xml version="1.0" encoding="UTF-8" standalone="no"?>
<!-- Created with Inkscape (http://www.inkscape.org/) -->

<svg
   version="1.1"
   id="svg2"
   width="192"
   height="192"
   viewBox="0 0 192 192"
   sodipodi:docname="to_good_to_go.png"
   xmlns:inkscape="http://www.inkscape.org/namespaces/inkscape"
   xmlns:sodipodi="http://sodipodi.sourceforge.net/DTD/sodipodi-0.dtd"
   xmlns="http://www.w3.org/2000/svg"
   xmlns:svg="http://www.w3.org/2000/svg">
  <defs
     id="defs6" />
  <sodipodi:namedview
     id="namedview4"
     pagecolor="#ffffff"
     bordercolor="#000000"
     borderopacity="0.25"
     inkscape:showpageshadow="2"
     inkscape:pageopacity="0.0"
     inkscape:pagecheckerboard="0"
     inkscape:deskcolor="#d1d1d1"
     showgrid="false" />
  <g
     inkscape:groupmode="layer"
     inkscape:label="Image"
     id="g8">
    <path
       id="path291-3-6"
       style="fill:none;fill-opacity:0.841327;stroke:#000000;stroke-width:7.52645;stroke-linecap:round;stroke-linejoin:round;paint-order:stroke fill markers"
       transform="matrix(0.6085463,0.79351837,-0.71598594,0.6981147,0,0)"
       d="m 130.32338,-67.719688 a 37.856785,63.0065 0 0 1 37.97111,-26.608752 37.856785,63.0065 0 0 1 30.08241,46.852154 37.856785,63.0065 0 0 1 -13.43595,64.821307" />
    <path
       id="path291-3"
       style="fill:none;fill-opacity:0.841327;stroke:#000000;stroke-width:8.02822;stroke-linecap:round;stroke-linejoin:round;paint-order:stroke fill markers"
       transform="matrix(0.98551114,0.1696107,-0.05187773,0.99865344,0,0)"
       d="M 72.752691,42.196504 A 37.856785,63.0065 0 0 1 111.63402,16.705891 37.856785,63.0065 0 0 1 140.9244,66.313342 37.856785,63.0065 0 0 1 124.9324,130.5703" />
    <path
       id="path291"
       style="fill:none;fill-opacity:0.841327;stroke:#000000;stroke-width:8.02822;stroke-linecap:round;stroke-linejoin:round;paint-order:stroke fill markers"
       transform="matrix(0.85944208,-0.51123312,0.60928024,0.79295497,0,0)"
       d="M 29.156494,127.64768 A 37.856785,63.0065 0 0 1 -8.7002907,190.65418 37.856785,63.0065 0 0 1 -46.557076,127.64768 37.856785,63.0065 0 0 1 -8.7002907,64.641182 37.856785,63.0065 0 0 1 29.156494,127.64768 Z" />
  </g>
</svg>
