<?xml version="1.0" encoding="UTF-8"?><svg id="a" xmlns="http://www.w3.org/2000/svg" width="192" height="192" viewBox="0 0 192 192"><path d="m22,64h18m-9,0v44" fill="none" stroke="#000" stroke-linecap="round" stroke-linejoin="round" stroke-width="12"/><line x1="170" y1="64" x2="170" y2="108" fill="none" stroke="#000" stroke-linecap="round" stroke-linejoin="round" stroke-width="12"/><rect x="55" y="64" width="20" height="44" rx="9" ry="9" fill="none" stroke="#000" stroke-linecap="round" stroke-linejoin="round" stroke-width="12"/><path d="m96,64h9c4.97,0,9,4.03,9,9v26c0,4.97-4.03,9-9,9h-9c-1.1,0-2-.9-2-2v-40c0-1.1.9-2,2-2Z" fill="none" stroke="#000" stroke-linecap="round" stroke-linejoin="round" stroke-width="12"/><path d="m131.09,108l4.8-39c.82-6.67,10.49-6.67,11.31,0l4.8,39m-18-9h15" fill="none" stroke="#000" stroke-linecap="round" stroke-linejoin="round" stroke-width="12"/><line x1="22" y1="128" x2="170" y2="128" fill="none" stroke="#000" stroke-linecap="round" stroke-linejoin="round" stroke-width="10"/></svg>