<?xml version="1.0" encoding="UTF-8" standalone="no"?>
<!-- Created with Inkscape (http://www.inkscape.org/) -->

<svg
   width="24.000011"
   height="24.00001"
   viewBox="0 0 6.3500027 6.3500027"
   version="1.1"
   id="svg459"
   inkscape:version="1.1.1 (3bf5ae0d25, 2021-09-20)"
   sodipodi:docname="today_weather.svg"
   xmlns:inkscape="http://www.inkscape.org/namespaces/inkscape"
   xmlns:sodipodi="http://sodipodi.sourceforge.net/DTD/sodipodi-0.dtd"
   xmlns="http://www.w3.org/2000/svg"
   xmlns:svg="http://www.w3.org/2000/svg">
  <sodipodi:namedview
     id="namedview461"
     pagecolor="#505050"
     bordercolor="#eeeeee"
     borderopacity="1"
     inkscape:pageshadow="0"
     inkscape:pageopacity="0"
     inkscape:pagecheckerboard="0"
     inkscape:document-units="px"
     showgrid="false"
     units="px"
     fit-margin-left="4.43815"
     fit-margin-top="4"
     fit-margin-bottom="4"
     fit-margin-right="4.43815"
     inkscape:zoom="35.195347"
     inkscape:cx="6.1513813"
     inkscape:cy="11.322519"
     inkscape:window-width="2560"
     inkscape:window-height="1351"
     inkscape:window-x="-9"
     inkscape:window-y="-9"
     inkscape:window-maximized="1"
     inkscape:current-layer="layer1" />
  <defs
     id="defs456" />
  <g
     inkscape:label="Ebene 1"
     inkscape:groupmode="layer"
     id="layer1"
     transform="translate(0.36451845,-0.09558289)">
    <path
       style="fill:#000000;stroke-width:0.0109411"
       d="m 2.772734,5.3812058 c -0.07258,-0.02111 -0.116951,-0.100327 -0.09442,-0.168583 0.01978,-0.05994 0.06345,-0.08812 0.180122,-0.116246 0.05746,-0.01385 0.104466,-0.02802 0.104466,-0.03149 0,-0.0035 -0.107086,-0.03262 -0.23797,-0.06478 -0.375574,-0.09228 -0.457629,-0.125293 -0.506038,-0.203621 -0.02953,-0.04778 -0.02909,-0.127951 9.63e-4,-0.176582 0.02617,-0.04234 0.09202,-0.08389 0.16236,-0.102448 0.02664,-0.007 0.197854,-0.03135 0.380483,-0.05405 0.182628,-0.0227 0.334032,-0.04326 0.336453,-0.04568 0.0024,-0.0024 -0.254168,-0.06246 -0.570197,-0.133411 -0.31603,-0.07095 -0.600007,-0.140395 -0.63106,-0.154312 -0.06636,-0.02974 -0.102181,-0.06538 -0.116746,-0.116168 -0.02089,-0.07284 0.02492,-0.15488 0.10405,-0.186335 0.02019,-0.008 0.146565,-0.01653 0.328234,-0.0221 1.124297,-0.03447 1.927467,-0.198554 2.211637,-0.451831 0.108287,-0.09652 0.128387,-0.171765 0.101432,-0.379754 -0.09591,-0.740068 -0.694363,-1.379865 -1.428521,-1.527206 -0.14828,-0.02976 -0.463388,-0.0267 -0.61649,0.006 -0.238108,0.05083 -0.434772,0.132516 -0.629116,0.261312 -0.449884,0.298149 -0.738172,0.800397 -0.767068,1.336366 -0.0034,0.06381 -0.01109,0.131933 -0.017,0.151389 -0.03159,0.104041 -0.19354905,0.112411 -0.24777905,0.01281 -0.01057,-0.01941 -0.01293,-0.06356 -0.009,-0.168533 0.02401,-0.645613 0.38292805,-1.25267 0.94830305,-1.603891 0.191337,-0.118862 0.41721,-0.208023 0.655402,-0.258713 0.126003,-0.02681 0.15828,-0.02926 0.389049,-0.02943 0.284802,-2.14e-4 0.370588,0.01274 0.608319,0.09188 0.770099,0.256355 1.365957,1.029492 1.396033,1.81138 0.0053,0.136653 0.0031,0.175435 -0.01258,0.229764 -0.10588,0.366187 -0.628766,0.603751 -1.597896,0.725978 -0.09628,0.01214 -0.225787,0.02551 -0.287789,0.02972 -0.062,0.0042 -0.108775,0.01119 -0.103941,0.01554 0.0048,0.0043 0.181113,0.04609 0.39173,0.09278 0.210617,0.04668 0.407557,0.09449 0.437646,0.106243 0.113393,0.04428 0.158646,0.100073 0.158646,0.195592 0,0.05212 -0.0038,0.06044 -0.04658,0.103272 -0.03215,0.03215 -0.0652,0.05226 -0.106677,0.0649 -0.03305,0.01008 -0.226244,0.03893 -0.429319,0.06412 -0.203076,0.02519 -0.369244,0.04841 -0.369264,0.05159 -2.4e-5,0.0032 0.08586,0.02703 0.190837,0.053 0.274402,0.06788 0.369046,0.117975 0.406086,0.214963 0.03705,0.09702 -0.0044,0.191087 -0.107699,0.24423 -0.0275,0.01415 -0.147597,0.04993 -0.266891,0.07952 -0.267506,0.06634 -0.254127,0.06392 -0.29218,0.05285 z"
       id="path427" />
  </g>
</svg>
