<svg width="192" height="192" viewBox="0 0 192 192" fill="none" xmlns="http://www.w3.org/2000/svg"><path d="M162.364 23H29.636A6.636 6.636 0 0 0 23 29.636v132.728A6.636 6.636 0 0 0 29.636 169h132.728a6.636 6.636 0 0 0 6.636-6.636V29.636A6.636 6.636 0 0 0 162.364 23Z" stroke="#000" stroke-width="12" stroke-linecap="round" stroke-linejoin="round"/><path d="m31 118 23.77 13.33a5.997 5.997 0 0 0 5.93 0L108 104m-77-8 23.77 13.33a5.997 5.997 0 0 0 5.93 0L108 82m-77-8 23.77 13.33a6 6 0 0 0 5.93 0L108 60" stroke="#000" stroke-width="12" stroke-linecap="round" stroke-linejoin="round"/></svg>