<svg width="192" height="192" viewBox="0 0 192 192" fill="none" xmlns="http://www.w3.org/2000/svg"><path d="M161.455 24H30.545A6.545 6.545 0 0 0 24 30.546v130.909A6.545 6.545 0 0 0 30.546 168h130.909a6.545 6.545 0 0 0 6.545-6.545V30.545A6.545 6.545 0 0 0 161.455 24Z" stroke="#000" stroke-width="12" stroke-linecap="round" stroke-linejoin="round"/><path d="m31 118 23.77 13.33a5.997 5.997 0 0 0 5.93 0L108 104m-77-8 23.77 13.33a5.997 5.997 0 0 0 5.93 0L108 82m-77-8 23.77 13.33a6 6 0 0 0 5.93 0L108 60" stroke="#000" stroke-width="12" stroke-linecap="round" stroke-linejoin="round"/></svg>