<svg xmlns="http://www.w3.org/2000/svg" width="192" height="192" fill="none" viewBox="0 0 192 192"><path stroke="#000" stroke-linecap="round" stroke-linejoin="round" stroke-width="12" d="M120 45 98.88 66.11a6.006 6.006 0 0 0 0 8.49l18.457 18.457a6 6 0 0 1 0 8.486l-17.094 17.094a6 6 0 0 1-8.486 0l-18.454-18.455a6 6 0 0 0-8.485 0l-20.569 20.569m0 0-9.006 9.006a6 6 0 0 0 0 8.486l18.514 18.514a6 6 0 0 0 8.486 0l4.764-4.764a6 6 0 0 1 8.485 0l16.237 16.238a6.04 6.04 0 0 0 8.542 0l67.96-67.96a6.04 6.04 0 0 0 0-8.542l-67.96-67.96a6.04 6.04 0 0 0-8.542 0l-67.96 67.96a6.04 6.04 0 0 0 0 8.542z"/></svg>