<svg width="192" height="192" fill="none" xmlns="http://www.w3.org/2000/svg"><path clip-rule="evenodd" d="M99.468 87.569c3.999-5.544 10.898-15.24 21.074-22.285 10.177-7.043 23.63-11.433 31.464-13.719 7.833-2.286 10.047-2.468 12.433-2.588 2.387-.12 4.945-.178 5.38 1.168.434 1.346-1.253 4.097-3.316 6.937-2.063 2.84-4.502 5.769-7.373 9.53-2.871 3.761-6.174 8.354-9.399 14.525-3.224 6.17-6.369 13.918-9.315 18.17-2.947 4.254-5.695 5.013-9.552 5.952-3.857.939-8.824 2.057-13.791 3.175 1.78 3.066 3.903 6.723 6.249 9.73 2.346 3.007 7.157 8.236 7.964 14.149.807 5.914-1.61 13.357-4.771 20.121-3.16 6.765-7.064 12.85-13.395 14.873-6.331 2.024-15.09-.014-19.553-4.113-4.463-4.098-4.628-10.257-4.696-16.827-.069-6.57-.041-13.549-2.79-17.508-2.748-3.959-8.27-4.891-12.289-1.773-4.018 3.119-6.535 10.291-8.652 15.838-2.118 5.547-3.837 9.471-6.731 11.836-2.894 2.366-6.963 3.175-11.685 2.854-4.722-.321-10.097-1.773-13.507-5.951s-4.855-11.083-5.515-17.288c-.66-6.204-.535-11.706 1.034-16.429 1.569-4.723 4.582-8.664 9.125-11.256 4.544-2.593 10.617-3.835 12.038-6.161 1.42-2.325-1.812-5.735-5.797-8.514-3.985-2.779-8.722-4.926-10.971-10.704-2.249-5.777-2.007-15.185-3.109-23.307-1.102-8.123-3.547-14.96-5.144-19.708-1.597-4.747-2.345-7.403-2.75-9.771-.405-2.369-.466-4.45 1.175-4.832 1.642-.383 4.986.933 8.862 3.204 3.875 2.27 8.282 5.495 13.65 10.007 5.367 4.513 11.695 10.313 16.51 16.644 4.814 6.331 8.115 13.192 10.387 19.745 2.271 6.554 3.513 12.797 4.105 16.422.592 3.624.535 4.628 3.17 5.22 2.633.594 7.956.777 13.28.96 1.1-1.39 2.2-2.782 6.2-8.326v0Z" stroke="#000" stroke-width="12" stroke-miterlimit="0" stroke-linecap="round" stroke-linejoin="round"/><path fill-rule="evenodd" clip-rule="evenodd" d="M75.868 128.916c-1.421.42.306 1.708 1.283 3.102.977 1.394 1.206 2.895 1.634 2.991.428.096 1.056-1.211 2.363-2.382 1.307-1.17 3.292-2.203 2-2.943-1.291-.74-5.86-1.188-7.28-.768Z" fill="#000" stroke="#000" stroke-width=".9" stroke-miterlimit="0" stroke-linecap="round" stroke-linejoin="round"/><path fill-rule="evenodd" clip-rule="evenodd" d="M77.991 93.989c1.763-1.602 3.527-3.204 4.978-4.51 1.451-1.308 2.59-2.322 3.72-2.364 1.131-.043 2.253.883 3.486 2.185 1.233 1.303 2.579 2.981 3.923 4.658" fill="#000"/><path d="M77.991 93.989c1.763-1.602 3.527-3.204 4.978-4.51 1.451-1.308 2.59-2.322 3.72-2.364 1.131-.043 2.253.883 3.486 2.185 1.233 1.303 2.579 2.981 3.923 4.658" stroke="#000" stroke-width=".9" stroke-miterlimit="0" stroke-linecap="round" stroke-linejoin="round"/></svg>