<svg xmlns="http://www.w3.org/2000/svg" width="192" height="192" fill="none"><path stroke="#000" stroke-linecap="round" stroke-linejoin="round" stroke-width="12" d="M119.435 58.939c15.946-8.26 41.684-18.137 49.114-9.877 6.161 7.004-8.879 19.394-15.586 30.887-7.07 11.672-9.063 23.523-18.668 27.295-8.52 3.411-10.875 2.693-11.239 2.513 1.633.898 25.556 14.546-.18 49.023-9.968 13.289-40.743 8.081-40.743-14.365-.184-11.852-.907-15.623-1.633-16.162-.906.18-4.383 3.592-8.55 14.546-7.794 21.009-37.157 15.622-41.869-.18-12.324-41.122 14.864-45.97 16.676-46.15-.363 0-2.719-.18-9.605-6.105-7.614-6.824-5.438-18.676-7.977-31.964-2.355-13.288-12.141-29.988-3.988-34.478 9.789-5.207 30.45 12.75 42.594 26.038C79.38 62.53 87.137 86.054 87.5 88.03c1.09-1.617 16.708-21.19 31.935-29.091"/></svg>