<svg xmlns="http://www.w3.org/2000/svg" width="192" height="192" fill="none"><path stroke="#000" stroke-linecap="round" stroke-width="12" d="M43.368 71C34.375 81.424 30 94.632 30 109c0 33.689 29.55 61 66 61s66-27.311 66-61c0-14.368-4.375-27.576-13.368-38M115 22c-9 0-19 8.556-19 24"/><path stroke="#000" stroke-linecap="round" stroke-linejoin="round" stroke-width="10" d="M48 46c12.5-4.5 37-3.5 48 2 11-5.5 35.5-6.5 48-2-3.214 6.071-13.846 11.847-20.231 13.509-1.66.432-2.223 2.714-1.049 3.964 4.106 4.372 6.38 9.232 6.78 14.027-11.268 2.191-21.557-3.848-27.676-8.67-3.3-2.601-8.348-2.601-11.648 0-6.12 4.822-16.408 10.861-27.676 8.67.4-4.795 2.674-9.655 6.78-14.027 1.174-1.25.611-3.532-1.049-3.964C61.846 57.847 51.214 52.07 48 45.999Z"/><path stroke="#000" stroke-linecap="round" stroke-width="10" d="M50.113 107a37.9 37.9 0 0 1 3.23-12.615m1.656 34.386a39 39 0 0 1-1.657-3.271"/></svg>