<svg width="192" height="192" viewBox="0 0 192 192" fill="none" xmlns="http://www.w3.org/2000/svg">
<path d="M43.3676 71C34.3748 81.4239 30 94.6318 30 109C30 142.689 59.5492 170 96 170C132.451 170 162 142.689 162 109C162 94.6318 157.625 81.4239 148.632 71" stroke="black" stroke-width="12" stroke-linecap="round"/>
<path d="M115 22C106 22 96 30.5565 96 46" stroke="black" stroke-width="12" stroke-linecap="round"/>
<path d="M48 45.9999C60.5 41.4999 85 42.5 96 48C107 42.5 131.5 41.4999 144 45.9999C140.786 52.0712 129.154 55.8467 122.769 57.5086C121.109 57.9406 120.546 60.2226 121.72 61.4726C125.826 65.8446 129.1 71.7046 129.5 76.4999C118.232 78.691 107.943 72.6524 101.824 67.8292C98.5244 65.2286 93.4756 65.2286 90.176 67.8292C84.0565 72.6524 73.7681 78.691 62.5 76.4999C62.8996 71.7046 66.1737 65.8446 70.2801 61.4726C71.4542 60.2226 70.891 57.9406 69.2313 57.5086C62.8464 55.8467 51.2142 52.0712 48 45.9999Z" stroke="black" stroke-width="10" stroke-linecap="round" stroke-linejoin="round"/>
<path d="M52.9995 92.9956C50.8509 97.316 49.4985 102.036 49.1133 107M53.9995 128.771C53.3967 127.707 52.8434 126.616 52.3424 125.5" stroke="black" stroke-width="10" stroke-linecap="round"/>
</svg>
