<svg width="192" height="192" viewBox="0 0 192 192" fill="none" xmlns="http://www.w3.org/2000/svg">
<path d="M43.3676 71C34.3748 81.4239 30 94.6318 30 109C30 142.689 59.5492 170 96 170C132.451 170 162 142.689 162 109C162 94.6318 157.625 81.4239 148.632 71" stroke="black" stroke-width="12" stroke-linecap="round"/>
<path d="M115 23C106 23 96 31.0565 96 46.5" stroke="black" stroke-width="14" stroke-linecap="round"/>
<path d="M94 48C83 42.5 60.5 42.4999 48 44.9999C51.2634 51.1642 63.2047 55.4878 69.521 57.3984C71.1217 57.8827 71.5983 60.0672 70.4077 61.2416C65.9522 65.6365 61.9067 71.6195 61.5 76.4999C73.5418 78.8414 84.9123 71.3368 91.1204 66.1121C93.8629 63.804 98.1371 63.804 100.88 66.1121C107.088 71.3368 118.458 78.8414 130.5 76.4999C130.093 71.6195 126.048 65.6365 121.592 61.2416C120.402 60.0672 120.878 57.8827 122.479 57.3984C128.795 55.4878 140.737 51.1642 144 44.9999C131.5 42.4999 109 42.5 98 48" stroke="black" stroke-width="10" stroke-linecap="round" stroke-linejoin="round"/>
<path d="M53.0001 92.9956C50.5648 97.8926 49.1523 103.303 49.0117 109M54.0001 128.771C53.2184 127.391 52.5199 125.965 51.9107 124.5" stroke="black" stroke-width="10" stroke-linecap="round"/>
</svg>
