<svg xmlns="http://www.w3.org/2000/svg" width="192" height="192" fill="none" stroke="#000" stroke-linecap="round" stroke-linejoin="round" stroke-width="12" viewBox="0 0 192 192"><path stroke-width="12"/><path d="m150.89 79.49 7.9-15.13c.37-.31.68-.68.92-1.11.24-.42.4-.87.49-1.35q.12-.72 0-1.44a4.2 4.2 0 0 0-.48-1.36l-10.15-18.29c-.39-.6-.9-1.08-1.53-1.43a4.2 4.2 0 0 0-2.02-.54h-37.66L99.92 24.1a3.8 3.8 0 0 0-1.25-1.43c-.53-.37-1.12-.59-1.77-.67H77.01c-.36 0-.72.06-1.07.16-.34.09-.67.24-.99.42q-.465.27-.84.66c-.26.26-.48.54-.66.86v.8L54.63 57.13H36.58c-.37-.01-.73.02-1.08.11-.36.08-.7.21-1.02.38a4.4 4.4 0 0 0-1.59 1.48l-10.4 18.41a4.7 4.7 0 0 0-.49 2.11c0 .74.16 1.44.49 2.11l18.7 32.49-8.43 14.74c-.32.66-.49 1.36-.49 2.1s.17 1.44.49 2.1L42.38 150c.77 1.3 2.17 2.09 3.69 2.1h37.66l9.08 15.79c.36.59.82 1.07 1.4 1.44s1.21.59 1.9.67h21.33c.37-.01.72-.07 1.07-.17s.67-.24.99-.42q.465-.285.84-.66c.26-.26.48-.54.66-.86l18.56-32.5h16.59c.74-.06 1.43-.29 2.05-.68a4.5 4.5 0 0 0 1.52-1.55l9.6-16.97c.22-.33.39-.69.5-1.07a3.85 3.85 0 0 0 0-2.33c-.11-.38-.27-.73-.49-1.07zm19.1 34.34h-23.97l-9.61-17.76-42.09 73.33M44.2 151.67l11.89-21h20.14L34.48 57.62m40.09-34.78 12.32 20.74-10.14 17.76 83.45-.03M74.98 81.73l20.96 36.85 22.59-36.85z"/></svg>
