<svg xmlns="http://www.w3.org/2000/svg" width="192" height="192" fill="none" stroke="#000" stroke-linecap="round" stroke-linejoin="round" stroke-width="10" viewBox="0 0 192 192"><path d="M127.095 121.477c-21.557 8.562-41.674 25.259-48.84 49.523m60.109-36.244c-13.877 6.254-31.117 19.834-33.49 36.244m37.89 0H51.678m68.484-64.163C84.361 112.155 60.874 141.182 51.678 171m48.68-88.4c-13.853 0-26.299 8.57-30.035 29.412V63.711a25.197 25.197 0 1 1 50.395 0v18.888z"/><path d="M142.763 171a27.45 27.45 0 0 0 7.789-53.772 16.415 16.415 0 0 0-12.187-23.068V63.71a42.844 42.844 0 0 0-85.685 0v45.707h-1a30.793 30.793 0 0 0 0 61.582"/></svg>