<svg width="210" height="198" viewBox="0 0 210 198" fill="none" xmlns="http://www.w3.org/2000/svg">
<path d="M145.095 121.477C123.538 130.039 103.421 146.736 96.2552 171" stroke="black" stroke-width="10" stroke-linecap="round" stroke-linejoin="round"/>
<path d="M156.364 134.756C142.487 141.01 125.247 154.59 122.874 171" stroke="black" stroke-width="10" stroke-linecap="round" stroke-linejoin="round"/>
<path d="M160.764 171H69.6785" stroke="black" stroke-width="10" stroke-linecap="round" stroke-linejoin="round"/>
<path d="M138.162 106.837C102.361 112.155 78.8744 141.182 69.6785 171" stroke="black" stroke-width="10" stroke-linecap="round" stroke-linejoin="round"/>
<path d="M118.358 82.5994C104.505 82.5994 92.059 91.1703 88.3232 112.012V63.7105C88.3232 57.0276 90.9779 50.6184 95.7035 45.893C100.429 41.1674 106.838 38.5127 113.521 38.5127C120.204 38.5127 126.613 41.1674 131.338 45.893C136.064 50.6184 138.718 57.0276 138.718 63.7105V82.5994H118.358Z" stroke="black" stroke-width="10" stroke-linecap="round" stroke-linejoin="round"/>
<path d="M160.763 171C167.362 171.002 173.742 168.625 178.732 164.307C183.722 159.989 186.989 154.017 187.935 147.486C188.881 140.955 187.442 134.301 183.882 128.744C180.323 123.187 174.88 119.099 168.552 117.228C169.607 114.936 170.121 112.431 170.052 109.909C169.984 107.386 169.335 104.914 168.156 102.683C166.978 100.452 165.301 98.5223 163.256 97.0442C161.211 95.566 158.852 94.5789 156.365 94.1596V94.1665V63.7105C156.329 52.3709 151.8 41.5076 143.77 33.5016C135.739 25.4957 124.862 21 113.522 21C102.183 21 91.3057 25.4957 83.275 33.5016C75.2444 41.5076 70.7152 52.3709 70.6803 63.7105V109.418H69.6798C61.5327 109.447 53.7295 112.703 47.9792 118.475C42.2288 124.246 39 132.062 39 140.209C39 148.356 42.2288 156.171 47.9792 161.942C53.7295 167.713 61.5327 170.97 69.6798 171" stroke="black" stroke-width="10" stroke-linecap="round" stroke-linejoin="round"/>
</svg>
