<svg width="192" height="192" viewBox="0 0 192 192" fill="none" xmlns="http://www.w3.org/2000/svg">
<path d="M117.979 128.862L140.548 151.49M117.979 128.862C123.554 123.256 127 115.531 127 107C127 89.8792 113.121 76 96 76C78.8792 76 65 89.8792 65 107C65 124.121 78.8792 138 96 138C104.56 138 112.31 134.53 117.92 128.92C117.94 128.901 117.959 128.881 117.979 128.862ZM51.3077 22L34.9503 91.1387C33.6769 96.1478 33 101.396 33 106.803C33 141.706 61.2061 170 96 170C103.731 170 111.136 168.603 117.979 166.048M140.692 22L157.05 91.1387C158.323 96.1478 159 101.396 159 106.803C159 114.562 157.606 121.994 155.056 128.862" stroke="black" stroke-width="12" stroke-linecap="round"/>
</svg>
