<svg width="192" height="192" viewBox="0 0 192 192" fill="none" xmlns="http://www.w3.org/2000/svg">
<path d="M129.091 22L81.2364 80.5833L111.782 76.4722L71.0545 119.639L100.073 115.014L53.2364 170M40 47.1806H58.3273M58.3273 47.1806H76.6545M58.3273 47.1806V92.9167M150.473 113.986C150.473 113.986 150.473 102.681 135.709 102.681C120.945 102.681 120.945 113.986 120.945 113.986C120.945 113.986 119.418 126.319 135.709 126.319C152 126.319 152 138.653 152 138.653C152 138.653 150.473 150.986 135.709 150.986C120.945 150.986 117.891 138.653 117.891 138.653" stroke="black" stroke-width="12" stroke-linecap="round" stroke-linejoin="round"/>
</svg>
