<svg width="192" height="192" viewBox="0 0 192 192" fill="none" xmlns="http://www.w3.org/2000/svg"><path d="M149 117a53.004 53.004 0 0 1-15.523 37.477 53.004 53.004 0 0 1-74.954 0A53.003 53.003 0 0 1 43 117" stroke="#000" stroke-width="12" stroke-linecap="round" stroke-linejoin="round"/><path d="M117 117c0 5.57-2.212 10.911-6.151 14.849a20.995 20.995 0 0 1-29.698 0A20.998 20.998 0 0 1 75 117M43 38a16.001 16.001 0 0 1 32 0m42 0a16.001 16.001 0 0 1 32 0M43 38v79m32-79v79M43 92h32m42 0h32m-32-54v79m32-79v79" stroke="#000" stroke-width="12" stroke-linecap="round" stroke-linejoin="round"/></svg>