<svg xmlns="http://www.w3.org/2000/svg" width="192" height="192" fill="none" viewBox="0 0 192 192"><path stroke="#000" stroke-linecap="round" stroke-linejoin="round" stroke-width="12" d="M92 88v35s0 15 18 15M74 88h34m47 0a24.999 24.999 0 0 0-23.097 34.567 25.01 25.01 0 0 0 13.53 13.53A25.006 25.006 0 0 0 155 138"/><circle cx="67" cy="63" r="5" stroke="#000" stroke-linejoin="round" stroke-width="10"/><path stroke="#000" stroke-linecap="round" stroke-linejoin="round" stroke-width="12" d="M74 88s7-2 12-7 6-11 6-11v19.5"/><path stroke="#000" stroke-linecap="round" stroke-linejoin="round" stroke-width="12" d="M156 30H36a6 6 0 0 0-6 6v120a6 6 0 0 0 6 6h120a6 6 0 0 0 6-6V36a6 6 0 0 0-6-6Z"/></svg>