<svg xmlns="http://www.w3.org/2000/svg" width="192" height="192" fill="none" viewBox="0 0 192 192"><path stroke="#000" stroke-linecap="round" stroke-linejoin="round" stroke-width="12" d="M25 31a6 6 0 0 1 6-6h109.515a6 6 0 0 1 4.242 1.757l20.486 20.486A6 6 0 0 1 167 51.485V161a6 6 0 0 1-6 6H31a6 6 0 0 1-6-6z"/><path stroke="#000" stroke-linecap="round" stroke-linejoin="round" stroke-width="12" d="M56 25v42a6 6 0 0 0 6 6h68a6 6 0 0 0 6-6V25M56 167v-58a6 6 0 0 1 6-6h68a6 6 0 0 1 6 6v58"/><path stroke="#000" stroke-linecap="round" stroke-linejoin="round" stroke-width="10" d="M115 126H77m38 20H77"/><path stroke="#000" stroke-linecap="round" stroke-linejoin="round" stroke-width="12" d="M110 49v24"/></svg>