<svg width="192" height="192" viewBox="0 0 192 192" fill="none" xmlns="http://www.w3.org/2000/svg"><path d="M25 31a6 6 0 0 1 6-6h109.515a6 6 0 0 1 4.242 1.757l20.486 20.486A6 6 0 0 1 167 51.485V161a6 6 0 0 1-6 6H31a6 6 0 0 1-6-6V31Z" stroke="#000" stroke-width="12" stroke-linecap="round" stroke-linejoin="round"/><path d="M56 25v42a6 6 0 0 0 6 6h68a6 6 0 0 0 6-6V25M56 167v-58a6 6 0 0 1 6-6h68a6 6 0 0 1 6 6v58" stroke="#000" stroke-width="12" stroke-linecap="round" stroke-linejoin="round"/><path d="M115 126H77m38 20H77" stroke="#000" stroke-width="10" stroke-linecap="round" stroke-linejoin="round"/><path d="M110 49v24" stroke="#000" stroke-width="12" stroke-linecap="round" stroke-linejoin="round"/></svg>