<svg xmlns="http://www.w3.org/2000/svg" width="192" height="192" fill="none"><path stroke="#000" stroke-linecap="round" stroke-linejoin="round" stroke-width="12" d="M38 62V36a6 6 0 0 1 6-6h120a6 6 0 0 1 6 6v40a6 6 0 0 1-6 6h-28M22 86h90"/><path stroke="#000" stroke-linecap="round" stroke-linejoin="round" stroke-width="12" d="M72 62h58a6 6 0 0 1 6 6v52a6 6 0 0 1-6 6H78a6 6 0 0 1-6-6v-11"/><path stroke="#000" stroke-linecap="round" stroke-linejoin="round" stroke-width="12" d="M50 109v47a6 6 0 0 0 6 6h36a6 6 0 0 0 6-6v-30"/></svg>