<svg xmlns="http://www.w3.org/2000/svg" width="192" height="192" fill="none" viewBox="0 0 192 192"><path stroke="#000" stroke-linejoin="round" stroke-width="12" d="M46 162h100c8.837 0 16-7.163 16-16V60l-30-30H46c-8.837 0-16 7.163-16 16v100c0 8.837 7.163 16 16 16Z"/><path stroke="#000" stroke-linecap="round" stroke-linejoin="round" stroke-width="12" d="M54 160v-50a8 8 0 0 1 8-8h68a8 8 0 0 1 8 8v50m-6-130v44a8 8 0 0 1-8 8H62a8 8 0 0 1-8-8V30m20 92h44m-44 20h44"/><rect width="20" height="24" x="98" y="44" fill="#000" rx="6"/></svg>