<svg width="192" height="192" viewBox="0 0 192 192" fill="none" xmlns="http://www.w3.org/2000/svg"><path d="m37 54-6 32m6-32H21m16 0h16" stroke="#000" stroke-width="10" stroke-linecap="round"/><path d="m52 85 4-20h18l-4 20H52Zm17 38 4-20h18l-4 20" stroke="#000" stroke-width="10" stroke-linecap="round" stroke-linejoin="round"/><path d="m59 103-.5 2.5-.5 2.5" stroke="#000" stroke-width="8" stroke-linecap="round" stroke-linejoin="round"/><path d="m141 131 5.455-28H171l-5.455 28H141Zm-10-28h-24.545L101 131h24.545l2.387-12.25M153 65l-4 20m4-20h18l-4 20m-14-20 2-10m-17 10h-14l-4 20h14M90 65l-4 20h18l4-20" stroke="#000" stroke-width="10" stroke-linecap="round" stroke-linejoin="round"/></svg>