<svg xmlns="http://www.w3.org/2000/svg" width="192" height="192" fill="none" viewBox="0 0 192 192"><path stroke="#000" stroke-linecap="round" stroke-linejoin="round" stroke-width="12" d="M145 100V28a6 6 0 0 0-6-6H53a6 6 0 0 0-6 6v86"/><path stroke="#000" stroke-linejoin="round" stroke-width="12" d="m112.301 105.196 3.488.714 23.091 11.413c3.876 1.262 6.423 5.048 6.091 9.109v1.426l-4.984 33.582c-.332 2.359-1.384 4.554-3.322 6.091-1.717 1.646-3.987 2.469-6.368 2.469H92.201c-2.714 0-5.205-.988-7.033-2.908L52 134.333l4.984-5.487c1.328-1.372 3.433-2.14 5.426-2.03h1.606l21.983 4.774V73.974c0-2.91 1.167-5.702 3.244-7.76A11.13 11.13 0 0 1 97.073 63c2.938 0 5.754 1.156 7.831 3.214a10.92 10.92 0 0 1 3.244 7.76v31.222z"/><circle cx="96" cy="41" r="4" stroke="#000" stroke-width="8"/></svg>