<?xml version="1.0" encoding="utf-8"?>
	<svg version="1.1" xmlns="http://www.w3.org/2000/svg" xmlns:xlink="http://www.w3.org/1999/xlink" x="0px" y="0px" width="240.0" height="240.0" xml:space="preserve">
		<path d="M210,169.219L210,177.544C209.969,195.478 195.422,210 177.488,210L177.488,210L62.513,210C45.53,210.083 31.354,197.06 30,180.131L30,180.131L210,169.219ZM97.5,86.588C97.984,90.774 97.984,95.001 97.5,99.188L97.5,99.188L97.5,126.525L114.375,125.625C114.786,128.705 114.786,131.826 114.375,134.906C113.082,135.18 111.757,135.275 110.438,135.188L110.438,135.188L111.056,134.512C109.369,135.525 105.15,134.456 102.844,135.019C98.376,135.69 93.861,135.991 89.344,135.919C85.294,142.219 79.5,148.181 75.113,154.256C73.875,156.225 70.838,160.837 69.15,161.85C67.463,162.863 63.244,161.794 60.881,162.3C59.644,162.3 57.394,161.962 55.819,162.3C51.733,163.005 47.588,163.307 43.444,163.2L43.444,163.2L43.444,154.031C44.434,153.909 45.435,153.909 46.425,154.031C48,152.906 57,153.469 59.25,152.906C59.925,150.994 61.838,149.587 62.963,148.069C64.762,145.481 66.787,143.006 68.588,140.475C69.272,139.29 70.125,138.21 71.119,137.269L71.119,137.269L66.506,137.269C64.594,138.337 61.5,137.212 58.969,137.719C53.642,138.481 48.26,138.782 42.881,138.619L42.881,138.619L42.881,129.45L83.494,127.144C83.978,122.958 83.978,118.73 83.494,114.544L83.494,114.544L83.494,87.037C84.802,86.884 86.123,86.884 87.431,87.037C88.275,86.7 90.075,87.037 91.313,87.037L91.313,87.037ZM105.206,138.113L105.094,138.225C107.963,143.288 110.325,148.744 113.081,154.087C113.756,155.269 116.344,158.363 115.838,159.712C114.011,160.233 112.099,160.386 110.213,160.163L110.213,160.163L100.594,160.613C98.287,155.438 95.644,150.544 93.056,145.481C91.611,143.471 90.526,141.225 89.85,138.844L89.85,138.844L105.206,138.113ZM145.594,140.419C146.044,140.813 146.044,140.644 146.044,141.375C145.119,142.81 144.346,144.337 143.738,145.931C141.488,150.15 139.069,154.538 136.875,158.813L136.875,158.813L122.813,159.488C122.837,159.263 122.837,159.037 122.813,158.813C123.994,157.744 124.331,155.831 125.119,154.425C126.637,151.331 128.269,148.462 129.956,145.706C130.688,144.469 130.462,142.5 132.206,141.6C133.194,141.09 135.302,141.05 137.435,141.008L138.187,140.993C139.561,140.961 140.891,140.906 141.881,140.7C143.063,140.419 144.694,140.981 145.538,140.419L145.538,140.419ZM156.563,123.656C159.522,123.211 162.517,123.061 165.506,123.206L165.506,123.206L165.506,127.594C175.575,127.65 183.9,126.188 194.363,126.188L194.363,126.188L194.363,135.188L194.137,135.3C184.913,135.863 175.575,136.875 166.012,136.875C165.526,138.787 165.28,140.752 165.281,142.725L165.281,142.725L165.281,156.506C163.727,156.588 161.986,156.685 160.227,156.791L158.908,156.872C156.271,157.038 153.689,157.222 151.725,157.406C151.465,155.277 151.465,153.123 151.725,150.994L151.725,150.994L151.725,137.438C150.96,137.337 150.184,137.337 149.419,137.438C148.485,138.01 146.856,137.969 145.156,137.877L144.133,137.82C142.997,137.76 141.885,137.727 140.981,137.887C138.45,138.337 135.356,137.719 132.488,138.337C129.312,138.882 126.089,139.108 122.869,139.012L122.869,139.012L122.869,129.844L151.5,128.269C151.735,126.74 151.735,125.185 151.5,123.656L151.5,123.656L151.95,123.656C153.019,123.262 155.156,123.994 156.563,123.656ZM187.556,137.887C191.275,143.448 194.711,149.193 197.85,155.1L197.85,155.1L194.644,155.1C190.922,155.668 187.158,155.913 183.394,155.831C181.425,152.231 179.063,148.913 176.981,145.481C176.001,143.275 174.754,141.197 173.269,139.294C176.34,138.539 179.504,138.235 182.663,138.394C183.731,138.113 185.419,138.563 186.094,138.113L186.094,138.113L186.994,138.113ZM136.65,78.15L147.394,83.438C151.595,83.847 155.832,83.696 159.994,82.988C171.806,82.256 182.494,81.806 193.744,80.906C194.256,86.257 194.256,91.643 193.744,96.994L193.744,96.994L171.244,108.244C173.854,109.545 176.611,110.527 179.456,111.169C182.08,112.377 184.765,113.448 187.5,114.375L187.5,114.375L194.363,113.813C194.789,116.854 194.789,119.94 194.363,122.981L194.363,122.981L194.363,123.262L184.294,123.938C181.632,123.009 179.022,121.939 176.475,120.731C172.988,119.269 169.669,118.65 166.181,117.3C163.583,115.914 160.798,114.909 157.913,114.319C154.663,116.353 151.214,118.049 147.619,119.381C143.625,121.406 139.744,123.488 135.469,125.344C134.505,125.924 133.51,126.45 132.488,126.919L132.488,126.919L122.869,127.369C122.374,124.338 122.279,121.255 122.588,118.2C123.577,118.078 124.579,118.078 125.569,118.2C126.525,117.75 128.663,118.2 129.675,117.75L129.675,117.75L129.844,117.75C135.244,115.556 140.363,112.463 145.706,109.931L145.706,109.931L145.706,109.65C143.962,109.088 136.875,107.006 136.538,105.544C137.13,104.928 137.927,103.563 138.784,102.128L139.13,101.552C140.291,99.63 141.527,97.743 142.5,97.5C144.475,98.527 146.602,99.23 148.8,99.581C151.971,101.272 155.359,102.522 158.869,103.294C160.24,102.422 161.714,101.723 163.256,101.213L163.256,101.213L174.225,95.588C175.744,94.8 178.725,94.35 179.512,92.831C179.648,92.315 179.648,91.772 179.512,91.256L179.512,91.256L179.512,90.975C175.856,92.213 170.906,90.806 166.913,91.706C164.663,92.381 161.569,92.044 159.319,92.381L159.319,92.381L154.762,92.381C150.597,93.039 146.375,93.265 142.163,93.056C140.306,96.037 138.056,99.075 136.2,102C135.469,103.181 135.244,104.925 133.669,105.206C131.254,103.939 128.707,102.939 126.075,102.225C124.669,101.719 122.925,101.831 122.419,100.425C124.29,98.194 125.842,95.714 127.031,93.056C130.125,88.106 133.613,83.213 136.65,78.15L136.65,78.15ZM54.581,109.481C57.749,108.871 60.986,108.7 64.2,108.975C64.706,110.438 66.113,111.338 66.956,112.463C68.7,114.881 70.444,117.131 72.244,119.55C73.088,120.731 74.606,121.575 75,123.206L75,123.206L64.594,123.938C63.085,124.183 61.546,124.183 60.037,123.938L60.037,123.938L59.869,123.488C58.181,122.869 57.169,120.45 56.156,119.1C54.019,115.838 50.588,112.969 48.394,109.481C49.065,109.382 49.747,109.382 50.419,109.481C51.375,109.088 53.231,109.481 54.581,109.481ZM64.144,91.2C66.225,94.688 69.375,97.5 71.794,101.044C72.081,101.422 72.447,101.768 72.827,102.115L73.155,102.412C74.086,103.26 75,104.166 75,105.6L75,105.6L63.188,106.05C61.997,106.418 60.722,106.418 59.531,106.05L59.531,106.05L59.531,105.825C56.832,102.907 54.385,99.764 52.219,96.431C51.094,94.969 49.181,93.731 48.506,91.875L48.506,91.875L52.894,91.875ZM177.544,30C194.973,30.045 209.278,43.804 210,61.219L210,61.219L30,72.075L30,62.513C30,44.556 44.556,30 62.513,30L62.513,30Z" fill="#000" stroke="#00000000" stroke-width="1.0" stroke-miterlimit=""/>
	</svg>
