<?xml version="1.0" encoding="UTF-8" standalone="no"?>
<!-- Created with Inkscape (http://www.inkscape.org/) -->

<svg
   width="192"
   height="192"
   viewBox="0 0 192 192"
   version="1.1"
   id="svg5"
   xml:space="preserve"
   xmlns="http://www.w3.org/2000/svg"
   xmlns:svg="http://www.w3.org/2000/svg"><defs
     id="defs2" /><g
     id="layer1"
     style="display:inline"><path
       style="fill:none;fill-opacity:0.999846;stroke:#000000;stroke-width:12;stroke-linecap:round;stroke-linejoin:round;stroke-miterlimit:6"
       d="M 43.295922,50.177839 C 10.631235,83.696577 19.386891,111.9 43.693526,146.56467"
       id="path1" /><path
       style="fill:none;fill-opacity:0.999846;stroke:#000000;stroke-width:12;stroke-linecap:round;stroke-linejoin:round;stroke-miterlimit:6"
       d="M 60.836752,67.664856 C 45.076407,87.783002 48.075784,106.75555 59.803462,127.5615"
       id="path4" /><path
       style="fill:none;fill-opacity:0.999846;stroke:#000000;stroke-width:12;stroke-linecap:round;stroke-linejoin:round;stroke-miterlimit:6"
       d="m 148.70415,48.564667 c 32.66468,33.518738 23.90903,61.722153 -0.39761,96.386833"
       id="path7" /><path
       style="fill:none;fill-opacity:0.999846;stroke:#000000;stroke-width:12;stroke-linecap:round;stroke-linejoin:round;stroke-miterlimit:6"
       d="m 131.16332,66.051684 c 15.76034,20.118146 12.76096,39.090696 1.03328,59.896636"
       id="path8" /><path
       id="ellipse3"
       style="display:inline;fill:none;fill-opacity:0.999846;stroke:#000000;stroke-width:12;stroke-linecap:round;stroke-linejoin:round;stroke-miterlimit:6"
       d="m 96,77.298828 c -11.683126,1.7e-4 -21.154124,8.992853 -21.154297,20.085938 0.02051,6.217114 4.240853,11.588544 8.263672,15.863284 h 0.002 C 96,125.87833 95.999998,132.27004 96,132.26982 c 0,0 0,-6.25415 12.46294,-18.71709 l 0.0234,-0.0156 c 4.79252,-4.73693 8.64733,-9.766 8.66797,-16.152344 C 117.15413,86.29168 107.68313,77.298996 96,77.298828 Z" /></g></svg>
