<svg width="192" height="192" viewBox="0 0 192 192" fill="none" xmlns="http://www.w3.org/2000/svg"><path d="M96 78c-9.941 0-18 8.059-18 18 0 5.731 2.679 10.837 6.852 14.134 1.024.808 1.897 1.814 2.365 3.031L96 136l8.783-22.835c.468-1.217 1.341-2.223 2.365-3.031C111.321 106.837 114 101.731 114 96c0-9.941-8.059-18-18-18Zm-52.326 70.326A74.006 74.006 0 0 1 22 96a74.001 74.001 0 0 1 21.674-52.326m104.652 0a73.999 73.999 0 0 1 0 104.652m-19.799-84.853a45.998 45.998 0 0 1 0 65.054m-65.054 0a46 46 0 0 1 0-65.054" stroke="#000" stroke-width="12" stroke-linecap="round" stroke-linejoin="round"/></svg>