<svg width="192" height="192" viewBox="0 0 192 192" fill="none" xmlns="http://www.w3.org/2000/svg"><circle cx="83" cy="54" r="4" stroke="#000" stroke-width="8" stroke-linecap="round" stroke-linejoin="round"/><circle cx="109" cy="54" r="4" stroke="#000" stroke-width="8" stroke-linecap="round" stroke-linejoin="round"/><circle cx="66" cy="74" r="4" stroke="#000" stroke-width="8" stroke-linecap="round" stroke-linejoin="round"/><circle cx="126" cy="74" r="4" stroke="#000" stroke-width="8" stroke-linecap="round" stroke-linejoin="round"/><path d="M96 22c-35.898 0-65 29.012-65 64.8 0 20.464 9.515 37.699 24.375 50.587 11.313 9.812 28.947 24.659 36.72 31.187a6.06 6.06 0 0 0 7.81 0c7.773-6.528 25.407-21.375 36.72-31.187C151.485 124.499 161 107.264 161 86.8 161 51.012 131.899 22 96 22Z" stroke="#000" stroke-width="12" stroke-linecap="round" stroke-linejoin="round"/><path d="M96 115.84c-5.32 0-16.879 6.239-20.978-2.49-4.1-8.729 5.24-13.459 8.638-18.675C87.702 88.469 86.128 76 96 76s8.298 12.469 12.34 18.675c3.398 5.216 12.738 9.946 8.639 18.675-4.1 8.729-15.658 2.49-20.979 2.49Z" stroke="#000" stroke-width="12" stroke-linecap="round" stroke-linejoin="round"/></svg>