<svg width="192" height="192" fill="none" xmlns="http://www.w3.org/2000/svg"><path d="M75.061 125.288C65.942 118.757 60 108.072 60 96a36.1 36.1 0 0 1 1.061-8.712m14 38A36.073 36.073 0 0 0 74 134c0 19.882 16.118 36 36 36s36-16.118 36-36c0-12.072-5.942-22.757-15.061-29.288m-55.878 20.576C78.957 109.615 93.122 98 110 98a35.84 35.84 0 0 1 20.939 6.712m0 0A36.092 36.092 0 0 0 132 96c0-12.072-5.942-22.757-15.061-29.288m0 0A36.098 36.098 0 0 0 118 58c0-19.882-16.118-36-36-36S46 38.118 46 58c0 12.072 5.942 22.757 15.061 29.288m55.878-20.576A35.839 35.839 0 0 0 96 60c-16.878 0-31.043 11.615-34.939 27.288" stroke="#000" stroke-width="12" stroke-linecap="round" stroke-linejoin="round"/></svg>