<svg xmlns="http://www.w3.org/2000/svg" width="192" height="192" fill="none" viewBox="0 0 192 192"><circle cx="5" cy="5" r="5" stroke="#000" stroke-linecap="round" stroke-linejoin="round" stroke-width="10" transform="matrix(1 0 0 -1 48 106)"/><circle cx="5" cy="5" r="5" stroke="#000" stroke-linecap="round" stroke-linejoin="round" stroke-width="10" transform="matrix(1 0 0 -1 134 106)"/><circle cx="4" cy="4" r="4" stroke="#000" stroke-linecap="round" stroke-linejoin="round" stroke-width="8" transform="matrix(1 0 0 -1 62 126)"/><circle cx="4" cy="4" r="4" stroke="#000" stroke-linecap="round" stroke-linejoin="round" stroke-width="8" transform="matrix(1 0 0 -1 122 126)"/><path stroke="#000" stroke-linecap="round" stroke-linejoin="round" stroke-width="12" d="M28.335 41.205c.4-6.725 4.976-12.444 11.577-13.79C51.378 25.079 71.188 22 96 22s44.622 3.078 56.088 5.416c6.601 1.345 11.178 7.064 11.577 13.789l5.958 100.44a6 6 0 0 1-5.989 6.355H28.367a6 6 0 0 1-5.99-6.355zM144 170H48m72-122H72"/></svg>