<svg width="192" height="192" viewBox="0 0 192 192" fill="none" xmlns="http://www.w3.org/2000/svg">
<rect width="192" height="192" fill="white"/>
<circle cx="96" cy="96" r="74" stroke="black" stroke-width="12" stroke-linejoin="round"/>
<path d="M38.7574 97.7574C36.4142 100.101 36.4142 103.899 38.7574 106.243C41.1005 108.586 44.8995 108.586 47.2426 106.243L38.7574 97.7574ZM47.2426 106.243L122.243 31.2426L113.757 22.7574L38.7574 97.7574L47.2426 106.243Z" fill="black"/>
<path d="M73 72L146 145" stroke="black" stroke-width="12" stroke-linejoin="round"/>
<path d="M92.5 72.5L121 44" stroke="black" stroke-width="12" stroke-linecap="round" stroke-linejoin="round"/>
<path d="M103 82L122.5 62.5" stroke="black" stroke-width="12" stroke-linecap="round" stroke-linejoin="round"/>
<path d="M124 163L122 161L119 158L113 152L105 144L95 134L85 124L73 112L69 116L57 128L46 139L43 142" stroke="black" stroke-width="12" stroke-linejoin="round"/>
<path d="M45 120L56 109L62 103L71 94L73 92L79 98L91 110L101 120L113 132L127 146L136 155L137 156" stroke="black" stroke-width="12" stroke-linecap="round" stroke-linejoin="round"/>
</svg>
