<svg xmlns="http://www.w3.org/2000/svg" width="192" height="192" fill="none"><path stroke="#000" stroke-linecap="round" stroke-linejoin="round" stroke-width="12" d="M67.766 110.373H35.93C28.236 110.373 22 116.474 22 124s6.236 13.627 13.929 13.627h31.837v4.523c0 4.692 5.37 7.468 9.332 4.825l32.033-21.367a1.922 1.922 0 0 0 0-3.216l-32.033-21.367c-3.962-2.643-9.332.133-9.332 4.825zm56.468-28.746h31.837C163.764 81.627 170 75.526 170 68s-6.236-13.627-13.929-13.627h-31.837V49.85c0-4.692-5.37-7.468-9.332-4.825L82.869 66.392a1.923 1.923 0 0 0 0 3.216l32.033 21.367c3.962 2.643 9.332-.133 9.332-4.825z"/></svg>