<svg width="192" height="192" viewBox="0 0 192 192" fill="none" xmlns="http://www.w3.org/2000/svg"><path d="M170 140V60a6 6 0 0 0-6-6H22v102a6 6 0 0 0 6 6h120" stroke="#000" stroke-width="12" stroke-linecap="round" stroke-linejoin="round"/><path d="m21 53 123-32" stroke="#000" stroke-width="10" stroke-linecap="round" stroke-linejoin="round"/><path d="M120 54v40m-98 0h148" stroke="#000" stroke-width="12" stroke-linecap="round" stroke-linejoin="round"/><path d="M44 118h60m-60 20h28" stroke="#000" stroke-width="10" stroke-linecap="round" stroke-linejoin="round"/><path d="M170 140a21.992 21.992 0 0 1-6.444 15.556A21.99 21.99 0 0 1 148 162a21.992 21.992 0 0 1-15.556-6.444A21.99 21.99 0 0 1 126 140a21.992 21.992 0 0 1 6.444-15.556A21.99 21.99 0 0 1 148 118a21.992 21.992 0 0 1 15.556 6.444A21.99 21.99 0 0 1 170 140h0Z" stroke="#000" stroke-width="12" stroke-linecap="round" stroke-linejoin="round"/></svg>