<svg width="192" height="192" viewBox="0 0 192 192" fill="none" xmlns="http://www.w3.org/2000/svg"><path d="M96 60v46M84 96l12 12 12-12" stroke="#000" stroke-width="10" stroke-linecap="round" stroke-linejoin="round"/><circle cx="96" cy="96" r="39" stroke="#000" stroke-width="10" stroke-linecap="round" stroke-linejoin="round"/><path d="m96 21 6.616 7.825 8.016-6.384 4.962 8.966 9.107-4.698 3.118 9.761 9.849-2.83 1.154 10.182 10.211-.855-.855 10.212 10.182 1.153-2.83 9.849 9.761 3.118-4.698 9.107 8.966 4.962-6.384 8.016L171 96l-7.825 6.616 6.384 8.016-8.966 4.962 4.698 9.107-9.761 3.118 2.83 9.849-10.182 1.154.855 10.211-10.211-.855-1.154 10.182-9.849-2.83-3.118 9.761-9.107-4.698-4.962 8.966-8.016-6.384L96 171l-6.616-7.825-8.016 6.384-4.962-8.966-9.107 4.698-3.118-9.761-9.849 2.83-1.154-10.182-10.211.855.855-10.211-10.182-1.154 2.83-9.849-9.761-3.118 4.698-9.107-8.966-4.962 6.384-8.016L21 96l7.825-6.616-6.384-8.016 8.966-4.962-4.698-9.107 9.761-3.118-2.83-9.849 10.182-1.154-.855-10.211 10.212.855 1.153-10.182 9.849 2.83 3.118-9.761 9.107 4.698 4.962-8.966 8.016 6.384L96 21Z" stroke="#000" stroke-width="10" stroke-linecap="round" stroke-linejoin="round"/></svg>