<svg xmlns="http://www.w3.org/2000/svg" width="192" height="192" fill="none" viewBox="0 0 192 192"><path stroke="#000" stroke-linecap="round" stroke-linejoin="round" stroke-width="10" d="M94 146s44.5-8 44.5-46m-20 0h30"/><path stroke="#000" stroke-linecap="round" stroke-linejoin="round" stroke-width="10" d="M110.5 120s9.5 22 35.5 26M74 49l16 44m-36 0 16-44M60 81h24M70 49h4"/><rect width="94" height="94" x="25" y="25" stroke="#000" stroke-linecap="round" stroke-linejoin="round" stroke-width="12" rx="12"/><path stroke="#000" stroke-linecap="round" stroke-linejoin="round" stroke-width="12" d="M121 73h34c6.627 0 12 5.373 12 12v70c0 6.627-5.373 12-12 12H85c-6.627 0-12-5.373-12-12v-34"/></svg>