<svg xmlns="http://www.w3.org/2000/svg" width="192" height="192" fill="none" stroke="#000" stroke-linecap="round" stroke-linejoin="round" stroke-width="12" viewBox="0 0 192 192"><circle cx="135" cy="130" r="17"/><circle cx="39" cy="130" r="17"/><path d="m105 113-21 50m-10-50 14 34M59 97v50m111-50v50m-45-87a17.006 17.006 0 0 0-10.494-15.706 17.006 17.006 0 0 0-18.527 3.685A17 17 0 0 0 91 60h34zm45 0a18.98 18.98 0 0 0-1.142-6.506 17.324 17.324 0 0 0-3.251-5.515c-1.393-1.578-3.047-2.83-4.867-3.685A13.483 13.483 0 0 0 155 43c-1.97 0-3.92.44-5.74 1.294-1.82.854-3.474 2.107-4.867 3.685a17.324 17.324 0 0 0-3.251 5.515A18.98 18.98 0 0 0 140 60M80.4 43.58A16.998 16.998 0 0 0 59 60M43.523 76.936a17 17 0 0 1-15.459-18.413M91 60a17 17 0 0 0 25.19 14.897M28 29v30m31-16v34m81-34v34m30-17v17M22 43h20"/></svg>