<svg xmlns="http://www.w3.org/2000/svg" width="192" height="192" fill="none" stroke="#000" stroke-linecap="round" stroke-linejoin="round" stroke-width="12" viewBox="0 0 192 192"><path d="M169.374 89.2c-2.015 8.656-8.293 14.241-14.022 12.474-5.73-1.768-8.741-10.218-6.726-18.874s8.293-14.24 14.022-12.474c5.73 1.768 8.741 10.218 6.726 18.874M118 153.316c1.551 6.031 5.743 11.062 11.655 13.985s13.056 3.498 19.865 1.599c6.808-1.898 12.722-6.115 16.439-11.722 3.717-5.608 4.934-12.146 3.383-18.178zM96 44a22 22 0 1 0-41.053 11m10.841 67.818a23.998 23.998 0 0 0 3.86 47.066A24 24 0 0 0 96 146M25.617 91.5A27.002 27.002 0 0 0 49 132"/><path d="M65.25 68.306A22 22 0 1 0 44 96m52-52v104m49.078-25.351-24.298-13.424a6 6 0 0 1-2.467-7.932L126.449 85M166 22l-10 28m-18-28 18 28m-18-28-8 34m-18-34 18 34"/></svg>