<svg xmlns="http://www.w3.org/2000/svg" width="192" height="192" viewBox="0 0 50.8 50.8"><g fill="none" stroke="#000" stroke-linecap="round" stroke-linejoin="round" transform="translate(-.99 -.99)scale(1.03896)"><path stroke-width="3.056" d="M23.574 44.122c-3.265-.295-6.346-2.375-7.146-5.663-1.592-4.279-3.342-9.36-5.025-13.589.282.348 2.282 1.978 3.112 2.39 4.861 3.752 9.626 7.219 14.487 10.972 2.698-6.345 11.233-16.399 8.108-22.087 1.127 1.35 1.13 7.631 1.63 9.681.446 3.337 1.658 6.67 1.26 10.058-1.781 5.05-7.287 7.51-12.26 8.205-1.377.168-2.788.216-4.166.033"/><path stroke-width="3.056" d="M37.102 19.08c-4.564 11.1-29.272 11.48-26.116 1.852 6.23-10.789 29.064-10.896 26.116-1.851"/><path stroke-width="2.547" d="m32.182 6.295-7.14 13.075"/><ellipse cx="24.767" cy="20.056" stroke-width="2.547" rx="1.184" ry="1.204"/></g></svg>