<svg xmlns="http://www.w3.org/2000/svg" width="192" height="192" fill="none"><g stroke="#000" stroke-linecap="round" stroke-linejoin="round" stroke-width="12" clip-path="url(#a)"><path d="M112 38a16 16 0 0 0-16-16 16 16 0 0 0-16 16m89-16a32.003 32.003 0 0 0-32 32m-82 0a32 32 0 0 0-32-32m114 148a32 32 0 0 0 22.627-9.373A32 32 0 0 0 169 138m-146 0a32.003 32.003 0 0 0 32 32m25-16a16 16 0 0 0 16 16 16 16 0 0 0 16-16m0-116v116M80 38v116M55 54v116M23 22v116m114-84v116m32-148v116"/></g><defs><clipPath id="a"><path fill="#fff" d="M0 0h192v192H0z"/></clipPath></defs></svg>