<svg id="Layer_1" data-name="Layer 1" xmlns="http://www.w3.org/2000/svg" viewBox="0 0 24 24">
  <path d="M21.24535,17.27159,18.87426,15.796a2.494,2.494,0,0,0-2.62019-.04714L13.56694,17.3644A17.88458,17.88458,0,0,1,9.31883,14.498a21.09455,21.09455,0,0,1-2.70461-4.092L8.24147,7.73058a2.465,2.465,0,0,0-.01813-2.59117L6.70486,2.7311a1.56625,1.56625,0,0,0-2.18288-.475l-1.31288.8334A2.59728,2.59728,0,0,0,2.00085,5.3173a11.88322,11.88322,0,0,0,.32141,2.3919,21.155,21.155,0,0,0,1.48753,4.09165A19.56759,19.56759,0,0,0,7.12986,16.6678a17.84442,17.84442,0,0,0,5.00258,3.47548A29.08846,29.08846,0,0,0,16.37,21.7a9.93148,9.93148,0,0,0,2.31274.29912,2.56071,2.56071,0,0,0,2.23912-1.19691L21.7499,19.484A1.60142,1.60142,0,0,0,21.24535,17.27159Z"/>
</svg>
