<svg xmlns="http://www.w3.org/2000/svg" width="192" height="192" fill="none" viewBox="0 0 192 192"><path stroke="#000" stroke-linejoin="round" stroke-width="12" d="M74 77v59h44V77"/><path stroke="#000" stroke-linejoin="round" stroke-width="12" d="M131.172 63.828 118 77v16L96 77 74 93V77L60.828 63.828c-2.52-2.52-.735-6.828 2.829-6.828h64.686c3.564 0 5.348 4.309 2.829 6.828Z"/><path stroke="#000" stroke-linecap="round" stroke-linejoin="round" stroke-width="12" d="m70 57 26-27m0 0 26 27M96 30v-8"/><path stroke="#000" stroke-linejoin="round" stroke-width="12" d="m96 170-13-14H63.657c-3.564 0-5.349-4.309-2.829-6.828L74 136h44l13.171 13.172c2.52 2.519.735 6.828-2.828 6.828H109z"/></svg>