<svg width="192" height="192" fill="none" xmlns="http://www.w3.org/2000/svg"><path d="M167 167V31a6 6 0 0 0-6-6h-41a6 6 0 0 0-6 6v4a6 6 0 0 1-6 6H84a6 6 0 0 1-6-6v-4a6 6 0 0 0-6-6H31a6 6 0 0 0-6 6v65m53 17V83a6 6 0 0 1 6-6h24a6 6 0 0 1 6 6v30" stroke="#000" stroke-width="12" stroke-linecap="round" stroke-linejoin="round"/><path d="m167 167-16.553-16.553c-2.343-2.343-6.127-2.321-8.659-.184A71.01 71.01 0 0 1 96 167a70.996 70.996 0 0 1-71-71" stroke="#000" stroke-width="12" stroke-linecap="round" stroke-linejoin="round"/><path d="M114 113a18.01 18.01 0 0 1-5.272 12.728 18.01 18.01 0 0 1-19.616 3.902 18.013 18.013 0 0 1-9.742-9.742A17.998 17.998 0 0 1 78 113" stroke="#000" stroke-width="12" stroke-linecap="round" stroke-linejoin="round"/></svg>