<svg xmlns="http://www.w3.org/2000/svg" width="192" height="192" viewBox="0 0 42.333 42.333"><g fill="none" stroke="#000" stroke-linejoin="round"><path stroke-width="2.337" d="M.22 15.34V4.41l4.733 2.733 4.733 2.733-4.733 2.732z" transform="matrix(.94329 0 0 .94398 4.422 6.767)"/><path stroke-width="2.453" d="M.22 15.34V4.41l4.733 2.733 4.733 2.733-4.733 2.732z" transform="matrix(-.89786 0 0 -.89976 21.043 31.9)"/><path stroke-width="1.021" d="M.22 15.34V4.41l4.733 2.733 4.733 2.733-4.733 2.732z" transform="matrix(2.17166 0 0 2.14856 16.663 1.8)"/><path stroke-width="2.945" d="M.22 15.34V4.41l4.733 2.733 4.733 2.733-4.733 2.732z" transform="matrix(.4479 0 0 .45066 33.78 5.152)"/></g></svg>