<svg xmlns="http://www.w3.org/2000/svg" width="192" height="192" viewBox="0 0 42.3333 42.3333"><g fill="none" stroke="#000" stroke-linejoin="round"><path stroke-width="2.4182" d="M.2198 15.3408V4.4103l4.733 2.7326L9.686 9.8755l-4.733 2.7326z" transform="matrix(.9116 0 0 .91197 4.485 6.9696)"/><path stroke-width="2.5388" d="M.2198 15.3408V4.4103l4.733 2.7326L9.686 9.8755l-4.733 2.7326z" transform="matrix(-.8677 0 0 -.86925 20.5474 31.2507)"/><path stroke-width="1.0564" d="M.2198 15.3408V4.4103l4.733 2.7326L9.686 9.8755l-4.733 2.7326z" transform="matrix(2.0987 0 0 2.0757 16.3139 2.171)"/><path stroke-width="3.0474" d="M.2198 15.3408V4.4103l4.733 2.7326L9.686 9.8755l-4.733 2.7326z" transform="matrix(.43286 0 0 .43538 32.856 5.4099)"/></g></svg>