<?xml version="1.0" encoding="utf-8"?>
	<svg version="1.1" xmlns="http://www.w3.org/2000/svg" xmlns:xlink="http://www.w3.org/1999/xlink" x="0px" y="0px" width="1024.0" height="1024.0" xml:space="preserve">
		<path d="M175.1,0h673.8C945.6,0,1024,80.2,1024,179.1v665.7c0,98.9-78.4,179.1-175.1,179.1H175.1 C78.4,1024,0,943.8,0,844.9l0-665.7C0,80.2,78.4,0,175.1,0" fill="" stroke="" stroke-width="" stroke-miterlimit=""/>
		<path d="M 369.9 337.6 L 493.6 337.6 L 493.6 731.2 L 551.5 731.2 L 551.5 337.6 L 677.8 337.6 L 677.8 286.8 L 369.9 286.8 L 62 286.8 L 62 337.6 L 185.7 337.6 L 185.7 731.2 L 243.6 731.2 L 243.6 337.6 L 367.3 337.6 Z" fill="#000" stroke="#fff" stroke-width="30.0" stroke-miterlimit="22.9256"/>
		<path d="M135.7,648.2c65.8,72.3,181.6,133.9,276.3,147.2c65.8,10.7,147.4,16.1,210.5,5.4 c176.3-29.4,323.7-136.5,271.1-214.2c-7.9-10.7-15.8-18.7-26.3-26.8c-10.5-8-34.2-18.7-65.8-34.8c-44.7-21.4-73.7-42.8-86.8-61.6 c-13.2-18.7-21.1-40.2-21.1-64.3c0-37.5,15.8-66.9,44.7-88.4c28.9-21.4,65.8-32.1,110.5-32.1c44.7,0,76.3,5.4,94.7,16.1v61.6 c-26.3-18.7-60.5-26.8-100-26.8c-26.3,0-47.4,5.4-65.8,16.1c-15.8,10.7-26.3,26.8-26.3,48.2c0,18.7,5.3,32.1,18.4,42.8 c10.5,10.7,36.8,26.8,76.3,45.5c42.1,21.4,73.7,42.8,89.5,61.6c18.4,21.4,26.3,42.8,26.3,69.6c0,64.3-65.8,125.8-118.4,155.3 C712,841,562,854.4,417.3,830.3c-102.6-16.1-234.2-88.3-278.9-120.5L135.7,648.2z" fill="#000" stroke="#fff" stroke-width="30.0" stroke-miterlimit="22.9256"/>
	</svg>
