<?xml version="1.0" encoding="utf-8"?>
	<svg version="1.1" xmlns="http://www.w3.org/2000/svg" xmlns:xlink="http://www.w3.org/1999/xlink" x="0px" y="0px" width="1024.0" height="1024.0" xml:space="preserve">
		<path d="M237.5 703.4h-75.7V386.3H64.4v-66.2h270.4v66.2h-97.3v317.1zM554.1 703.4h-75.7V386.3H381v-66.2h270.4v66.2h-97.3v317.1zM805.5 535.2c-38.2-14.5-64-29.8-77.5-45.8-13.5-16-20.3-37.5-20.3-64.6 0-34.7 11.1-62.1 33.4-81.9 22.3-19.9 52.8-29.8 91.7-29.8 17.6 0 35.3 2 52.9 6s35.1 10 52.4 17.8v74c-16.3-11.5-32.8-20.2-49.6-26.2-16.8-6-33.4-9-49.8-9-18.3 0-32.4 3.7-42.1 11-9.8 7.4-14.6 17.9-14.6 31.6 0 10.6 3.6 19.4 10.7 26.3 7.1 6.9 22 14.6 44.6 23l32.6 12.3c30.8 11.3 53.5 26.3 68 44.9 14.5 18.7 21.8 42.2 21.8 70.6 0 38.7-11.4 67.6-34.3 86.7-22.9 19.1-57.4 28.6-103.6 28.6-19 0-38-2.3-57.1-6.8s-37.5-11.3-55.3-20.2v-78.3c20.2 14.4 39.8 25.1 58.7 32.1 18.9 7 37.6 10.5 56.1 10.5 18.7 0 33.1-4.2 43.4-12.7 10.3-8.5 15.4-20.3 15.4-35.6 0-11.5-3.4-21.5-10.3-30.2-6.8-8.6-16.8-15.4-29.8-20.4l-37.4-13.9z" fill="#000" stroke="" stroke-width="" stroke-miterlimit=""/>
	</svg>
