<svg xmlns="http://www.w3.org/2000/svg" xml:space="preserve" id="图层_1" x="0" y="0" style="enable-background:new 0 0 192 192" version="1.1" viewBox="0 0 192 192"><style>.st0{fill:none;stroke:#000;stroke-width:12;stroke-linecap:round;stroke-linejoin:round;stroke-miterlimit:10}</style><path d="M22 54h100.7M48.3 56.4v52.9M101.1 56.4v63.8M170 56.4c-9.6-2.1-17-1-21.4 0-5.8 1.4-13.4 3.2-15.2 8.8-1.7 5.3 2.6 10.9 3.5 12.1 4.6 6 9.3 5 17.6 10.3 3.9 2.5 13.4 8.6 14 16.5.5 8.1-8.9 14.6-15.5 19.2-5 3.5-18 11.6-38.6 14.1-4.3.5-25.6 2.8-50.9-7-14.8-5.7-25.6-13.5-32.2-19.1" class="st0"/></svg>