<svg width="192" height="192" fill="none" xmlns="http://www.w3.org/2000/svg"><path d="M158 67V55c0-5.523-4.477-10-10-10h-17M55 67h105c5.523 0 10 4.477 10 10v68c0 5.523-4.477 10-10 10H32c-5.523 0-10-4.477-10-10V55c0-5.523 4.477-10 10-10h67" stroke="#000" stroke-width="12" stroke-linecap="round" stroke-linejoin="round"/><path d="m63 66 54.89-30.594c3.212-1.79 7.265-.296 8.546 3.151L137 67M55 45a11 11 0 1 0 0 22" stroke="#000" stroke-width="12" stroke-linecap="round" stroke-linejoin="round"/></svg>