<svg width="192" height="192" viewBox="0 0 192 192" fill="none" xmlns="http://www.w3.org/2000/svg"><path d="M147.59 31S163 52 163 96m-15.41 65S163 140 163 96m-46.59-47S127 68 127 96m-10.59 47S127 124 127 96" stroke="#000" stroke-width="12" stroke-linecap="round" stroke-linejoin="round"/><circle cx="62" cy="54" r="20" stroke="#000" stroke-width="12" stroke-linecap="round" stroke-linejoin="round"/><path d="M79.387 115.341A18 18 0 0 1 77.588 129l-16 32A18.003 18.003 0 0 1 37 167.589 18.001 18.001 0 0 1 30.412 143l16-32a18.003 18.003 0 0 1 32.975 4.341ZM147.588 31A17.997 17.997 0 0 0 123 24.412 18.003 18.003 0 0 0 116.412 49m31.176 112a18 18 0 1 1-31.176-18" stroke="#000" stroke-width="12" stroke-linecap="round" stroke-linejoin="round"/></svg>