<svg xmlns="http://www.w3.org/2000/svg" width="192" height="192" viewBox="0 0 192 192"><g fill="none" stroke="#000" stroke-linecap="round" stroke-linejoin="round" stroke-width="6"><path stroke-width="8" d="M155.006 99.69S172 103.837 172 112.5c-.125 25.923-152.135 27.996-152 0-.33-9.36 14.696-13.543 22.567-13.543M20 147.294c22.564 13.288 52.08 13.471 78.979 13.542 26.97.07 51.014-2.704 73.021-13.542m0-34.323V172M20 114.244V172"/><path d="M123.912 102.04s8.106 3.159 17.32-.377c0 0-1.494-11.348-5.506-24.753 0 0 13.919-9.803 13.713-29.303 0 0-1.048-8.422-3.374-11.017 0 0-4.099-3.471-11.92-2.932 0 0-8.58 3.247-14.623 9.146 0 0-3.342 12.726-3.342 24.017 0 0-.074 16.662 7.732 35.22z"/><path d="M136.812 35.634s2.482 5.005 8.594 2.578M127.36 55.457s.348 4.915-.458 8.896m13.667-.448c1.356-3.929.582-8.26.582-8.26s-7.21-3.421-13.334-.375m26.045 70.16s-1.741-4.57-1.741-10.143V91.044s.428-14.541-4.694-28.571m2.067 2.658s6.24-5.964.232-11.005m-39.846-5.058a2.372 2.372 0 0 1-4.743 0 2.372 2.372 0 0 1 4.743 0"/><path d="M118.226 40.686s-11.55-3.316-30.628-.674c0 0-33.464 1.961-43.405 60.729 0 0-1.303 14.17-7.728 25.052"/><path d="M69.088 47.99s-16.805-8.522-22.971-2.15c-8.03 8.3-4.243 20.858 6.105 24.823m72.875 15.324s1.432 5.721 1.09 8.438l9.157.492s.23-4.028-.64-8.909m.408-8.982s-4.908 1.74-17.872-6.72"/></g></svg>