<?xml version="1.0" encoding="UTF-8" standalone="no"?>
<!-- Created with Inkscape (http://www.inkscape.org/) -->

<svg
   version="1.1"
   id="svg2"
   width="192"
   height="192"
   viewBox="0 0 192 192"
   sodipodi:docname="tunnelbear.svg"
   inkscape:export-filename="tunnelbear.svg"
   inkscape:export-xdpi="96"
   inkscape:export-ydpi="96"
   xmlns:inkscape="http://www.inkscape.org/namespaces/inkscape"
   xmlns:sodipodi="http://sodipodi.sourceforge.net/DTD/sodipodi-0.dtd"
   xmlns="http://www.w3.org/2000/svg"
   xmlns:svg="http://www.w3.org/2000/svg">
  <defs
     id="defs6" />
  <sodipodi:namedview
     id="namedview4"
     pagecolor="#ffffff"
     bordercolor="#000000"
     borderopacity="0.25"
     inkscape:showpageshadow="2"
     inkscape:pageopacity="0.0"
     inkscape:pagecheckerboard="0"
     inkscape:deskcolor="#d1d1d1"
     showgrid="false"
     showguides="true">
    <sodipodi:guide
       position="176.05398,94.375634"
       orientation="1,0"
       id="guide352"
       inkscape:locked="false" />
    <sodipodi:guide
       position="15.880297,178.64778"
       orientation="1,0"
       id="guide408"
       inkscape:locked="false" />
    <sodipodi:guide
       position="161.77932,15.749283"
       orientation="0,-1"
       id="guide1694"
       inkscape:locked="false" />
  </sodipodi:namedview>
  <g
     inkscape:groupmode="layer"
     inkscape:label="Image"
     id="g8">
    <path
       style="fill:#000000;fill-opacity:0;stroke:#000000;stroke-width:8;stroke-linecap:round;stroke-linejoin:round;paint-order:stroke fill markers"
       d="m 155.006,99.69 c 0,0 16.994,4.14684 16.994,12.81 -0.12504,25.9234 -152.134513,27.99572 -152,0 -0.329305,-9.36033 14.696175,-13.542709 22.567372,-13.542709"
       id="path406"
       sodipodi:nodetypes="cccc" />
    <path
       style="fill:#000000;fill-opacity:0;stroke:#000000;stroke-width:8;stroke-linecap:round;stroke-linejoin:round;paint-order:stroke fill markers"
       d="m 20,147.294 c 22.564344,13.28772 52.079204,13.47113 78.978982,13.54171 C 125.94806,160.90648 149.99275,158.13207 172,147.294"
       id="path964"
       sodipodi:nodetypes="csc" />
    <path
       style="fill:#000000;fill-opacity:0;stroke:#000000;stroke-width:8;stroke-linecap:round;stroke-linejoin:round;paint-order:stroke fill markers"
       d="M 172,112.97141 V 172"
       id="path1692"
       sodipodi:nodetypes="cc" />
    <path
       style="fill:#000000;fill-opacity:0;stroke:#000000;stroke-width:8;stroke-linecap:round;stroke-linejoin:round;paint-order:stroke fill markers"
       d="M 20,114.24404 V 172"
       id="path1692-3"
       sodipodi:nodetypes="cc" />
    <path
       style="fill:#000000;fill-opacity:0;stroke:#000000;stroke-width:6;stroke-linecap:round;stroke-linejoin:round;stroke-dasharray:none;paint-order:stroke fill markers"
       d="m 123.91155,102.04011 c 0,0 8.10676,3.1589 17.32139,-0.37735 0,0 -1.49488,-11.347825 -5.50662,-24.753013 0,0 13.91823,-9.802762 13.71227,-29.302704 0,0 -1.04802,-8.42239 -3.37342,-11.016955 0,0 -4.09874,-3.471563 -11.92072,-2.932129 0,0 -8.5789,3.247016 -14.62273,9.145849 0,0 -3.34181,12.725969 -3.34181,24.016916 0,0 -0.074,16.661878 7.73164,35.219386 z"
       id="path1892" />
    <path
       style="fill:#000000;fill-opacity:0;stroke:#000000;stroke-width:6;stroke-linecap:round;stroke-linejoin:round;stroke-dasharray:none;paint-order:stroke fill markers"
       d="m 136.81188,35.633531 c 0,0 2.48229,5.005104 8.59415,2.578207"
       id="path1894" />
    <path
       style="fill:#000000;fill-opacity:0;stroke:#000000;stroke-width:6;stroke-linecap:round;stroke-linejoin:round;stroke-dasharray:none;paint-order:stroke fill markers"
       d="m 127.35932,55.456539 c 0,0 0.34835,4.915508 -0.45764,8.896021"
       id="path1896" />
    <path
       style="fill:#000000;fill-opacity:0;stroke:#000000;stroke-width:6;stroke-linecap:round;stroke-linejoin:round;stroke-dasharray:none;paint-order:stroke fill markers"
       d="m 140.56859,63.904581 c 1.35598,-3.928572 0.58219,-8.258813 0.58219,-8.258813 0,0 -7.21059,-3.42217 -13.3336,-0.375952"
       id="path1898"
       sodipodi:nodetypes="ccc" />
    <path
       style="fill:#000000;fill-opacity:0;stroke:#000000;stroke-width:6;stroke-linecap:round;stroke-linejoin:round;stroke-dasharray:none;paint-order:stroke fill markers"
       d="m 153.86225,125.42948 c 0,0 -1.74136,-4.56939 -1.74136,-10.14256 V 91.044342 c 0,0 0.428,-14.541309 -4.69356,-28.571809"
       id="path1900"
       sodipodi:nodetypes="cscc" />
    <path
       style="fill:#000000;fill-opacity:0;stroke:#000000;stroke-width:6;stroke-linecap:round;stroke-linejoin:round;stroke-dasharray:none;paint-order:stroke fill markers"
       d="m 149.49361,65.131041 c 0,0 6.24011,-5.964264 0.23235,-11.005429"
       id="path1902" />
    <path
       id="path1956"
       style="fill-opacity:0;stroke:#000000;stroke-width:6;stroke-linecap:round;stroke-linejoin:round;paint-order:stroke fill markers"
       d="m 109.8803,49.068165 a 2.37169,2.37169 0 0 1 -2.37169,2.37169 2.37169,2.37169 0 0 1 -2.37169,-2.37169 2.37169,2.37169 0 0 1 2.37169,-2.37169 2.37169,2.37169 0 0 1 2.37169,2.37169 z" />
    <path
       style="fill:#000000;fill-opacity:0;stroke:#000000;stroke-width:6;stroke-linecap:round;stroke-linejoin:round;stroke-dasharray:none;paint-order:stroke fill markers"
       d="m 118.22593,40.685642 c 0,0 -11.54907,-3.315447 -30.627499,-0.673807 0,0 -33.464218,1.961455 -43.405915,60.729035 0,0 -1.302502,14.1702 -7.727675,25.05176"
       id="path1958"
       sodipodi:nodetypes="cccc" />
    <path
       style="fill:#000000;fill-opacity:0;stroke:#000000;stroke-width:6;stroke-linecap:round;stroke-linejoin:round;stroke-dasharray:none;paint-order:stroke fill markers"
       d="m 69.088112,47.990708 c 0,0 -16.805247,-8.522702 -22.97134,-2.149821 -8.030572,8.299888 -4.242385,20.857377 6.104753,24.822142"
       id="path1960"
       sodipodi:nodetypes="csc" />
    <path
       style="fill:#000000;fill-opacity:0;stroke:#000000;stroke-width:6;stroke-linecap:round;stroke-linejoin:round;stroke-dasharray:none;paint-order:stroke fill markers"
       d="m 125.09748,85.986977 c 0,0 1.43165,5.721145 1.0904,8.437569 l 9.15611,0.491959 c 0,0 0.22988,-4.027406 -0.64047,-8.908233"
       id="path1962"
       sodipodi:nodetypes="cccc" />
    <path
       style="fill:#000000;fill-opacity:0;stroke:#000000;stroke-width:6;stroke-linecap:round;stroke-linejoin:round;stroke-dasharray:none;paint-order:stroke fill markers"
       d="m 135.11248,77.026326 c 0,0 -4.90867,1.74015 -17.87215,-6.720898"
       id="path1964"
       sodipodi:nodetypes="cc" />
  </g>
</svg>
