<svg xmlns="http://www.w3.org/2000/svg" width="192" height="192" fill="none" viewBox="0 0 192 192"><path stroke="#000" stroke-linecap="round" stroke-linejoin="round" stroke-width="12" d="M56 170c32-2 66-31 82-28 32 4 32-5 32-5 0-17-10.54-14.72-17.5-24-10.5-14-8-26-11.5-41s-19-50-79-50c0 0 34.048 19.675 48 40 10.795 15.727 7 26 16 44 0 0-25.5-6-44-28S46 54 46 54c-6-1-14-16-19-16s-5 18-5 22 6.532 6.31 5.5 11c-7.599 24.449 1.796 51.264 26.557 68C66.77 147.592 91 151.5 102 153s28 11 28 11"/><path stroke="#000" stroke-linecap="round" stroke-linejoin="round" stroke-width="12" d="M62.5 139.002c37.5-19 52.5 0 75.5 3"/></svg>