<svg width="192" height="192" fill="none" xmlns="http://www.w3.org/2000/svg"><path d="M83 105v18m26-18v18m3.674-62.808C119.642 57.549 124 52.947 124 46c0-5 0-14-11-11s-6-13-18-13-9 12-16 15-16-4-16 9c0 8.555 6.063 13.213 15.055 15.397m34.619-1.205C107.606 62.114 101.158 63 94 63c-5.812 0-11.274-.468-15.945-1.603m34.619-1.205C133.303 79.656 170 118.929 170 152c0 12-14 18-25 18-21 0-27-18-49-18s-28 18-49 18c-11 0-25-6-25-18 0-32.402 35.227-70.757 56.055-90.603" stroke="#000" stroke-width="12" stroke-linecap="round" stroke-linejoin="round"/></svg>