<svg xmlns="http://www.w3.org/2000/svg" width="192" height="192" fill="none" viewBox="0 0 192 192"><circle cx="96" cy="123" r="47" stroke="#000" stroke-width="12"/><circle cx="75" cy="113" r="4" stroke="#000" stroke-linecap="round" stroke-linejoin="round" stroke-width="8"/><circle cx="117" cy="113" r="4" stroke="#000" stroke-linecap="round" stroke-linejoin="round" stroke-width="8"/><path stroke="#000" stroke-linecap="round" stroke-linejoin="round" stroke-width="8" d="M89 125c1.596 1.822 4.138 3 7 3s5.404-1.178 7-3"/><path stroke="#000" stroke-linecap="round" stroke-linejoin="round" stroke-width="12" d="m76.85 78.532-19.9-17.916c-5.887-5.301-6.362-14.371-1.06-20.258 5.3-5.888 14.37-6.363 20.257-1.062l3.665 3.3m35.338 35.936 19.899-17.916c5.887-5.301 6.363-14.371 1.062-20.258-5.301-5.888-14.371-6.363-20.259-1.062l-3.664 3.3M96 22S81 37.211 81 49s15 27 15 27 15-15.211 15-27-15-27-15-27"/></svg>