<svg width="192" height="192" viewBox="0 0 192 192" fill="none" xmlns="http://www.w3.org/2000/svg"><path d="M96 170a73.996 73.996 0 0 0 66.369-41.271A74.003 74.003 0 0 0 81.563 23.422a73.999 73.999 0 0 0-57.041 53.425" stroke="#000" stroke-width="12" stroke-linecap="round" stroke-linejoin="round"/><path d="m55.645 165 57.224-46.255c5.921-4.503 9.827-11.195 10.859-18.605a28.407 28.407 0 0 0-5.357-20.906 27.905 27.905 0 0 0-18.434-10.96 27.761 27.761 0 0 0-20.712 5.407L22 119.936m40.56 1.746L26.067 152.17" stroke="#000" stroke-width="12" stroke-linecap="round" stroke-linejoin="round"/></svg>