<svg xmlns="http://www.w3.org/2000/svg" width="192" height="192" fill="none"><path stroke="#000" stroke-linecap="round" stroke-linejoin="round" stroke-width="12" d="M96 170a74 74 0 0 0 66.369-41.271A74.003 74.003 0 0 0 81.563 23.422a74 74 0 0 0-57.041 53.425"/><path stroke="#000" stroke-linecap="round" stroke-linejoin="round" stroke-width="12" d="m55.645 165 57.224-46.255c5.921-4.503 9.827-11.195 10.859-18.605a28.4 28.4 0 0 0-5.357-20.906 27.9 27.9 0 0 0-18.434-10.96 27.76 27.76 0 0 0-20.712 5.407L22 119.936m40.56 1.746L26.067 152.17"/></svg>