<?xml version="1.0" encoding="UTF-8" standalone="no"?>
<svg
   width="192"
   height="192"
   viewBox="0 0 192 192"
   fill="none"
   version="1.1"
   id="svg2201"
   sodipodi:docname="tusky.svg"
   inkscape:version="1.2.2 (b0a8486541, 2022-12-01)"
   xmlns:inkscape="http://www.inkscape.org/namespaces/inkscape"
   xmlns:sodipodi="http://sodipodi.sourceforge.net/DTD/sodipodi-0.dtd"
   xmlns="http://www.w3.org/2000/svg"
   xmlns:svg="http://www.w3.org/2000/svg">
  <defs
     id="defs2205" />
  <sodipodi:namedview
     id="namedview2203"
     pagecolor="#ffffff"
     bordercolor="#000000"
     borderopacity="0.25"
     inkscape:showpageshadow="2"
     inkscape:pageopacity="0.0"
     inkscape:pagecheckerboard="0"
     inkscape:deskcolor="#d1d1d1"
     showgrid="false"
     inkscape:zoom="4.2983648"
     inkscape:cx="108.41332"
     inkscape:cy="112.71728"
     inkscape:window-width="2256"
     inkscape:window-height="1438"
     inkscape:window-x="0"
     inkscape:window-y="0"
     inkscape:window-maximized="1"
     inkscape:current-layer="svg2201" />
  <path
     d="M154.196 30.9676C159.773 23.4019 159.758 24.1456 154.387 21.935C146.291 18.6025 146.083 18.7528 144.528 29.0345C143.736 34.2727 143.793 34.6986 145.445 35.9209C148.358 38.0758 149.383 37.4955 154.196 30.9676Z"
     stroke="black"
     stroke-width="8"
     stroke-linecap="round"
     stroke-linejoin="round"
     id="path2183" />
  <path
     d="M136.116 35.6735C136.591 34.9946 136.24 33.1189 133.938 24.0092C133.36 21.7221 121.759 24.0848 121.759 26.4896C121.759 31.3467 133.77 39.0298 136.116 35.6735Z"
     stroke="black"
     stroke-width="8"
     stroke-linecap="round"
     stroke-linejoin="round"
     id="path2185" />
  <path
     d="M164.846 45.0141C172.571 43.5773 172.879 43.292 171.117 39.2107C168.898 34.0755 167.232 33.0876 164.201 35.1116C154.508 41.5844 154.498 41.5944 155.888 43.9701C157.383 46.5265 156.972 46.4785 164.846 45.0141Z"
     stroke="black"
     stroke-width="8"
     stroke-linecap="round"
     stroke-linejoin="round"
     id="path2187" />
  <path
     d="M 126.50874,86.268331 C 124.38627,83.407953 123.904,81.384 119.233,78.7269 c -8.837,-5.0264 -18.583,0.6349 -15.954,9.2669 1.70217,5.186932 4.59043,7.375163 6.44044,9.07272"
     id="path2326"
     style="fill:none;stroke:#000000;stroke-width:8;stroke-linecap:round;stroke-linejoin:round;stroke-dasharray:none;stroke-opacity:1"
     sodipodi:nodetypes="cccc" />
  <path
     d="M141.12 125.003C150.194 121.552 157.778 111.203 156.72 103.716C156.399 101.447 155.866 99.8799 155.536 100.234C155.205 100.587 153.466 102.513 151.67 104.513C145.254 111.66 137.682 114.214 128.098 112.463L123.058 111.543L120.725 113.852C112.148 122.339 126.908 130.409 141.12 125.003Z"
     stroke="black"
     stroke-width="8"
     stroke-linecap="round"
     stroke-linejoin="round"
     id="path2191" />
  <path
     d="m 50.9327,127.734 c -1.6275,0.032 -3.5032,0.347 -4.1683,0.702 -1.0079,0.537 -1.0298,0.449 -0.1314,-0.532 0.8647,-0.944 0.8844,-2.924 0.0994,-10.008 -1.788,-16.135 0.3233,-30.6301 5.9511,-40.8562 L 55.9687,71.0704 54.13,66.4259 c -2.2026,-5.5638 -1.1056,-8.7508 2.9956,-8.7034 1.8992,0.022 2.3387,-0.4103 3.0866,-3.0364 1.7712,-6.2192 6.267,-8.8626 8.9396,-5.2562 1.1619,1.5679 1.6072,1.6881 3.6843,0.9949 3.1472,-1.0503 5.0777,-0.2823 6.2617,2.4909 0.8719,2.0424 1.2479,2.2365 3.5047,1.8086 24.3475,-4.6161 41.9125,2.4898 48.9545,19.8053 2.059,5.0618 5.675,7.8619 8.199,6.3491 3.035,-1.8187 2.107,-5.0616 -3.572,-12.4803 -8.365,-10.9269 -6.695,-30.2167 1.845,-21.3092 2.532,2.6416 2.836,2.7528 5.599,2.0522 3.936,-0.998 5.864,0.4769 4.383,3.3517 -1.943,3.7709 -1.266,6.344 2.431,9.2312 12.051,9.4128 13.549,10.8879 16.609,16.3602 6.206,11.0994 4.42,21.9335 -5.051,30.6385 -1.987,1.826 -5.318,5.491 -7.402,8.143 -4.412,5.615 -9.683,9.402 -14.755,10.601 -4.241,1.003 -5.478,3.451 -5.417,10.72 2.273,10.178 12.143,35.474 10.651,33.229"
     stroke="#000000"
     stroke-width="8"
     stroke-linecap="round"
     stroke-linejoin="round"
     id="path2193"
     sodipodi:nodetypes="ccccscccsccccccccccccccccc" />
  <path
     d="m 101.737,158.574 c 3.378,0 10.06,9.672 8.868,12.835"
     stroke="#000000"
     stroke-width="8"
     stroke-linecap="round"
     stroke-linejoin="round"
     id="path2195"
     sodipodi:nodetypes="cc" />
  <path
     d="m 50.6173,170.76 c -4.7768,-4.223 5.7895,-11.502 16.9118,-11.649 7.8199,-0.104 13.2034,3.11 17.4926,10.444"
     stroke="#000000"
     stroke-width="8"
     stroke-linecap="round"
     stroke-linejoin="round"
     id="path2197"
     sodipodi:nodetypes="ccc" />
  <path
     d="m 20.4795,171.974 c -0.5248,0 -0.6254,-1.6 -0.2692,-4.28 1.5652,-11.781 7.5054,-23.781 15.672,-31.659 5.3519,-5.162 8.6359,-7.411 8.2114,-5.622 -0.4039,1.702 5.3103,3.698 9.1973,3.212 3.0086,-0.376 3.6648,-0.211 4.4744,1.127 2.2035,3.64 8.5319,5.406 12.9689,3.618 1.6758,-0.675 2.6924,-0.599 5.0086,0.373 8.8076,3.695 16.5224,-3.006 15.4249,-13.398 -0.9342,-8.845 -3.625,-15.162 -6.4582,-15.162"
     stroke="#000000"
     stroke-width="8"
     stroke-linecap="round"
     stroke-linejoin="round"
     id="path2199"
     sodipodi:nodetypes="cccccccccc" />
</svg>
