<?xml version="1.0" encoding="UTF-8" standalone="no"?>
<!-- Created with Inkscape (http://www.inkscape.org/) -->

<svg
   width="192"
   height="192"
   viewBox="0 0 50.799999 50.8"
   version="1.1"
   id="svg1"
   sodipodi:docname="tuszama.svg"
   inkscape:version="1.3.2 (091e20ef0f, 2023-11-25)"
   inkscape:export-filename="drawing-1.png"
   inkscape:export-xdpi="96"
   inkscape:export-ydpi="96"
   xmlns:inkscape="http://www.inkscape.org/namespaces/inkscape"
   xmlns:sodipodi="http://sodipodi.sourceforge.net/DTD/sodipodi-0.dtd"
   xmlns="http://www.w3.org/2000/svg"
   xmlns:svg="http://www.w3.org/2000/svg">
  <sodipodi:namedview
     id="namedview1"
     pagecolor="#505050"
     bordercolor="#ffffff"
     borderopacity="1"
     inkscape:showpageshadow="0"
     inkscape:pageopacity="0"
     inkscape:pagecheckerboard="1"
     inkscape:deskcolor="#d1d1d1"
     inkscape:document-units="px"
     inkscape:zoom="2.9150197"
     inkscape:cx="110.11933"
     inkscape:cy="121.61153"
     inkscape:window-width="1886"
     inkscape:window-height="1004"
     inkscape:window-x="0"
     inkscape:window-y="0"
     inkscape:window-maximized="1"
     inkscape:current-layer="layer1" />
  <defs
     id="defs1" />
  <g
     inkscape:label="Layer 1"
     inkscape:groupmode="layer"
     id="layer1">
    <g
       id="g1"
       transform="matrix(1.0432175,0,0,1.0462567,-1.097594,-1.1749227)"
       style="stroke-width:0.957179">
      <path
         fill="#ffffff"
         d="m 6.6296111,21.263428 c 0.2777808,-0.279463 0.8439014,-0.601417 1.6967364,-0.965045 0.8528373,-0.363629 1.9046675,-0.741966 3.1563055,-1.133378 1.251638,-0.39141 2.651914,-0.787725 4.200014,-1.188942 1.5481,-0.401217 3.147371,-0.764845 4.797811,-1.091702 1.649627,-0.32604 3.304942,-0.60632 4.964317,-0.839207 1.659375,-0.232884 3.226156,-0.387323 4.700343,-0.461683 1.473377,-0.07436 2.808673,-0.05639 4.004268,0.05638 1.196407,0.111945 2.155643,0.344835 2.878524,0.699474 M 19.1728,35.261401 c -0.09259,-0.149538 -0.176252,-1.02844 -0.250165,-1.578377 -0.07391,-0.549938 -0.13889,-1.749979 -0.194933,-2.543424 -0.05523,-0.792628 -0.101534,-2.194504 -0.138892,-3.145657 -0.03736,-0.951154 -0.05523,-2.441281 -0.05523,-3.411229 0,-0.969132 0.0089,-2.435559 0.02761,-3.340953 0.01868,-0.904576 0.05605,-3.289608 0.11127,-3.980094"
         id="path2"
         style="fill:none;stroke:#000000;stroke-width:3.03905;stroke-linecap:round;stroke-linejoin:round;stroke-miterlimit:4;stroke-dasharray:none"
         sodipodi:nodetypes="cssscsccccscsscc" />
      <path
         fill="#ffffff"
         d="m 36.462475,32.85447 c 0.361439,-0.456783 0.664421,-1.915879 0.931621,-2.893162 0.20537,-0.75114 0.267355,-1.540368 0.514951,-2.278667 0.160799,-0.47948 0.421545,-1.270316 0.625414,-1.382272 m 5.629958,4.278204 c 0.01621,0.272563 -0.120174,0.829676 -0.253069,1.224826 -0.152725,0.454113 -0.348584,0.901672 -0.618853,1.29727 -0.338756,0.495843 -0.71969,1.001645 -1.232732,1.31374 -0.528839,0.321704 -1.167848,0.512746 -1.786811,0.505753 -1.008746,-0.0114 -2.061901,-0.31752 -2.892664,-0.889824 -0.409464,-0.282076 -0.677397,-0.728074 -0.917815,-1.175868 -0.482461,0.616126 -0.888907,1.163692 -1.496957,1.542823 -0.786774,0.490569 -1.718787,0.819367 -2.645051,0.860667 -0.766006,0.03415 -1.534135,-0.219734 -2.242082,-0.514255 -0.516411,-0.214838 -1.023753,-0.499801 -1.418957,-0.89559 -0.424285,-0.424913 -0.726385,-0.971301 -0.959237,-1.524788 -0.216064,-0.513583 -0.33221,-1.071363 -0.389055,-1.625637 -0.04618,-0.450274 6.97e-4,-0.906475 0.04142,-1.357274 0.04198,-0.464738 0.112748,-0.927591 0.208742,-1.38424 0.08749,-0.416197 0.18522,-0.832948 0.333824,-1.231433 0.11939,-0.320147 0.277781,-0.680681 0.445099,-0.923372"
         id="path3"
         style="fill:none;stroke:#000000;stroke-width:3.03905;stroke-linecap:round;stroke-linejoin:round;stroke-miterlimit:4;stroke-dasharray:none"
         sodipodi:nodetypes="caaccaaaaacaaaaaaaaac" />
    </g>
  </g>
</svg>
