<svg width="192" height="192" fill="none" version="1.1" viewBox="0 0 192 192" xmlns="http://www.w3.org/2000/svg">
<path d="m95.863 22.01a74 74 0 0 0-73.863 73.99 74 74 0 0 0 22.762 53.146c34.847-14 62.327-26.246 62.354-39.934 0-0.468-0.03065-0.94206-0.09765-1.4141-1.975-14.433-36.519-18.906-36.471-25.521 4e-3 -0.351 0.10441-0.71894 0.31641-1.0859 4.15-7.257 20.586-6.9089 26.639-7.4219 6.058-0.525 20.276-0.41719 20.963-4.7422 0.02-0.133 0.03321-0.26444 0.03321-0.39844 0.016-4.018-9.7774-5.5938-9.7774-5.5938s11.884 1.7727 11.852 6.3887c0 0.226-0.0288 0.45927-0.0918 0.69727-1.28 4.959-11.737 5.8934-18.652 6.2324-6.54 0.327-16.497 1.0698-16.531 4.2598-4e-3 0.186 0.02675 0.37917 0.09375 0.57617 1.561 4.664 38.064 6.9087 61.418 19.012 9.2022 4.7644 15.234 11.748 19.109 19.553a74 74 0 0 0 4.0781-23.699v-0.21289a74 74 0 0 0-73.602-73.832h-0.53125z" fill="none" stroke="#000" stroke-linecap="round" stroke-linejoin="round" stroke-width="12"/>
</svg>
