<svg xmlns="http://www.w3.org/2000/svg" width="192" height="192" fill="none" viewBox="0 0 192 192"><path stroke="#000" stroke-linejoin="round" stroke-width="12" d="M95.863 22.01A74 74 0 0 0 22 96a74 74 0 0 0 22.762 53.146c34.847-14 62.327-26.246 62.354-39.934 0-.468-.03-.942-.098-1.414-1.975-14.433-36.519-18.906-36.47-25.521.003-.351.104-.719.316-1.086 4.15-7.257 20.586-6.909 26.639-7.422 6.058-.525 20.276-.417 20.963-4.742.02-.133.033-.265.033-.399.016-4.018-9.777-5.593-9.777-5.593s11.884 1.772 11.852 6.388c0 .226-.03.46-.092.698-1.28 4.959-11.737 5.893-18.652 6.232-6.54.327-16.497 1.07-16.531 4.26-.004.186.027.379.094.576 1.56 4.664 38.064 6.909 61.418 19.012 9.202 4.764 15.234 11.748 19.109 19.553a74 74 0 0 0 4.078-23.699v-.213A74 74 0 0 0 96.396 22.01h-.532z"/></svg>