<svg xmlns="http://www.w3.org/2000/svg" width="192" height="192" fill="none" viewBox="0 0 192 192"><path stroke="#000" stroke-linecap="round" stroke-linejoin="round" stroke-width="12" d="M156 30H36a6 6 0 0 0-6 6v120a6 6 0 0 0 6 6h120a6 6 0 0 0 6-6V36a6 6 0 0 0-6-6Z"/><circle cx="121" cy="74" r="6" stroke="#000" stroke-linejoin="round" stroke-width="12"/><path stroke="#000" stroke-linecap="round" stroke-linejoin="round" stroke-width="12" d="M105 30s-22 74-22 98c0 38 79 10 79-37"/><path stroke="#000" stroke-linecap="round" stroke-linejoin="round" stroke-width="12" d="M78 162c-28-6-25-34-16-73H30l6-26h32l5-18 28-4"/></svg>