<svg width="160" height="160" viewBox="0 0 160 160" fill="none" xmlns="http://www.w3.org/2000/svg">
<mask id="path-1-inside-1_226_306" fill="white">
<path fill-rule="evenodd" clip-rule="evenodd" d="M104.4 2.24638C102.193 3.2622 101.108 6.01518 102.075 8.14397C103.019 10.223 104.851 11.1507 108.031 11.1599C114.63 11.1781 122.259 14.2559 128.136 19.27C134.817 24.9709 139.472 34.5419 139.495 42.6236C139.508 47.1337 141.995 49.7307 145.396 48.7859C148.512 47.9207 149.328 45.0481 148.35 38.3879C145.658 20.0569 131.915 5.85063 113.634 2.49958C110.751 1.97132 105.321 1.82196 104.4 2.24638ZM40.5589 8.37166C35.4652 9.48099 31.085 13.9159 29.893 19.1698C29.757 19.771 29.5803 24.7438 29.5008 30.2206L29.3563 40.1784L25.8346 40.3345C9.2117 41.0716 5.28746 61.6825 20.6128 67.7586C21.659 68.1733 22.6833 68.3051 25.9561 68.4472L29.3563 68.5947L29.5148 86.9317C29.6939 107.645 29.734 108.268 31.3133 114.984C34.1597 127.085 41.5431 138.304 52.065 146.516C53.6377 147.743 57.0846 149.954 59.7156 151.423C65.8117 154.825 72.5448 156.822 81.3587 157.838C84.8852 158.245 101.362 158.171 103.427 157.739C111.433 156.065 116.815 146.906 113.996 139.757C113.891 139.49 113.666 138.889 113.496 138.421C112.703 136.231 110.16 133.353 107.67 131.829C104.809 130.078 103.628 129.92 93.3652 129.92C84.8828 129.92 82.7097 129.797 80.1777 129.174C76.9536 128.379 76.9232 128.368 74.1666 127.042C66.4074 123.311 60.6421 116.287 58.5911 108.062L58.0155 105.754V87.1746V68.5947L76.1096 68.452C93.2371 68.3172 95.6045 68.2292 95.9215 67.7167C95.9943 67.5983 96.219 67.5018 96.4212 67.5018C97.4358 67.5018 100.43 64.8387 101.535 62.9534C106.515 54.4564 102.811 44.0213 93.6906 40.8561C92.6275 40.4875 90.7094 40.4359 75.3087 40.3612C62.1698 40.2981 58.0883 40.2094 58.0076 39.9854C57.9493 39.8245 57.8588 35.321 57.8072 29.9777C57.7489 23.9253 57.6086 19.805 57.4362 19.0484C57.0561 17.3817 55.6438 14.4763 54.7494 13.5224C54.3426 13.0883 54.0099 12.6608 54.0092 12.5722C54.0074 12.325 51.079 10.0615 50.136 9.57935C47.3612 8.15915 43.6713 7.69404 40.5589 8.37166ZM105.255 20.9331C99.5391 22.6569 101.09 30.0785 107.17 30.0955C111.784 30.1083 117.315 33.8892 119.256 38.3569C120.251 40.649 120.554 41.844 120.559 43.4852C120.574 48.6092 126.011 50.9493 128.866 47.0603C129.869 45.6947 130.036 44.6176 129.674 41.8786C128.162 30.4617 120.215 22.513 108.776 20.9762C105.982 20.601 106.34 20.6058 105.255 20.9331Z"/>
</mask>
<path fill-rule="evenodd" clip-rule="evenodd" d="M104.4 2.24638C102.193 3.2622 101.108 6.01518 102.075 8.14397C103.019 10.223 104.851 11.1507 108.031 11.1599C114.63 11.1781 122.259 14.2559 128.136 19.27C134.817 24.9709 139.472 34.5419 139.495 42.6236C139.508 47.1337 141.995 49.7307 145.396 48.7859C148.512 47.9207 149.328 45.0481 148.35 38.3879C145.658 20.0569 131.915 5.85063 113.634 2.49958C110.751 1.97132 105.321 1.82196 104.4 2.24638ZM40.5589 8.37166C35.4652 9.48099 31.085 13.9159 29.893 19.1698C29.757 19.771 29.5803 24.7438 29.5008 30.2206L29.3563 40.1784L25.8346 40.3345C9.2117 41.0716 5.28746 61.6825 20.6128 67.7586C21.659 68.1733 22.6833 68.3051 25.9561 68.4472L29.3563 68.5947L29.5148 86.9317C29.6939 107.645 29.734 108.268 31.3133 114.984C34.1597 127.085 41.5431 138.304 52.065 146.516C53.6377 147.743 57.0846 149.954 59.7156 151.423C65.8117 154.825 72.5448 156.822 81.3587 157.838C84.8852 158.245 101.362 158.171 103.427 157.739C111.433 156.065 116.815 146.906 113.996 139.757C113.891 139.49 113.666 138.889 113.496 138.421C112.703 136.231 110.16 133.353 107.67 131.829C104.809 130.078 103.628 129.92 93.3652 129.92C84.8828 129.92 82.7097 129.797 80.1777 129.174C76.9536 128.379 76.9232 128.368 74.1666 127.042C66.4074 123.311 60.6421 116.287 58.5911 108.062L58.0155 105.754V87.1746V68.5947L76.1096 68.452C93.2371 68.3172 95.6045 68.2292 95.9215 67.7167C95.9943 67.5983 96.219 67.5018 96.4212 67.5018C97.4358 67.5018 100.43 64.8387 101.535 62.9534C106.515 54.4564 102.811 44.0213 93.6906 40.8561C92.6275 40.4875 90.7094 40.4359 75.3087 40.3612C62.1698 40.2981 58.0883 40.2094 58.0076 39.9854C57.9493 39.8245 57.8588 35.321 57.8072 29.9777C57.7489 23.9253 57.6086 19.805 57.4362 19.0484C57.0561 17.3817 55.6438 14.4763 54.7494 13.5224C54.3426 13.0883 54.0099 12.6608 54.0092 12.5722C54.0074 12.325 51.079 10.0615 50.136 9.57935C47.3612 8.15915 43.6713 7.69404 40.5589 8.37166ZM105.255 20.9331C99.5391 22.6569 101.09 30.0785 107.17 30.0955C111.784 30.1083 117.315 33.8892 119.256 38.3569C120.251 40.649 120.554 41.844 120.559 43.4852C120.574 48.6092 126.011 50.9493 128.866 47.0603C129.869 45.6947 130.036 44.6176 129.674 41.8786C128.162 30.4617 120.215 22.513 108.776 20.9762C105.982 20.601 106.34 20.6058 105.255 20.9331Z" stroke="black" stroke-width="12" mask="url(#path-1-inside-1_226_306)"/>
</svg>
