<svg xmlns="http://www.w3.org/2000/svg" width="192" height="192" viewBox="0 0 192 192"><defs><style>.cls-1,.cls-2{fill:none;stroke:#000;stroke-linecap:round;stroke-linejoin:round;}.cls-1{stroke-width:12px;}.cls-2{stroke-width:8px;}</style></defs><rect class="cls-1" x="111.1" y="62.01" width="58.9" height="107.99" rx="6"/><rect class="cls-1" x="128.55" y="125.94" width="24" height="24" rx="12"/><rect x="142.61" y="96.57" width="16" height="16" rx="8"/><rect x="122.49" y="96.57" width="16" height="16" rx="8"/><rect x="142.61" y="76.45" width="16" height="16" rx="8"/><rect x="122.49" y="76.45" width="16" height="16" rx="8"/><path class="cls-2" d="M146,47a9.15,9.15,0,0,0-2.8-1.59,8.18,8.18,0,0,0-5.35,0A9.22,9.22,0,0,0,135.08,47"/><path class="cls-2" d="M151.49,36.8a18.6,18.6,0,0,0-5.59-3.19,16.61,16.61,0,0,0-10.7,0,18.48,18.48,0,0,0-5.59,3.19"/><path class="cls-2" d="M159.7,27.13a32.29,32.29,0,0,0-9.79-5.58,29,29,0,0,0-18.72,0,32.29,32.29,0,0,0-9.79,5.58"/><polyline class="cls-1" points="94.28 134.47 83.08 132.95 31.16 139.98"/><line class="cls-1" x1="83.08" y1="132.95" x2="83.08" y2="114.68"/><path class="cls-1" d="M109.55,40.36H28.11A6.11,6.11,0,0,0,22,46.47v62.1a6.1,6.1,0,0,0,6.11,6.11H94.28"/></svg>