<svg xmlns="http://www.w3.org/2000/svg" width="192" height="192" viewBox="0 0 192 192"><defs><style>.cls-1{fill:none;stroke:#000;stroke-linecap:round;stroke-linejoin:round;stroke-width:8px;}</style></defs><rect class="cls-1" x="107.56" y="60.01" width="61.08" height="111.99" rx="6"/><rect class="cls-1" x="121.1" y="121.76" width="34" height="34" rx="17"/><rect x="142.07" y="95.83" width="15" height="15" rx="7.5"/><rect x="119.13" y="95.83" width="15" height="15" rx="7.5"/><rect x="142.07" y="72.67" width="15" height="15" rx="7.5"/><rect x="119.13" y="72.67" width="15" height="15" rx="7.5"/><path class="cls-1" d="M143.57,47a9.15,9.15,0,0,0-2.8-1.59,8.18,8.18,0,0,0-5.35,0A9.1,9.1,0,0,0,132.63,47"/><path class="cls-1" d="M149,36.8a18.72,18.72,0,0,0-5.59-3.19,16.61,16.61,0,0,0-10.7,0,18.65,18.65,0,0,0-5.6,3.19"/><path class="cls-1" d="M157.25,27.13a32.41,32.41,0,0,0-9.79-5.58,29,29,0,0,0-18.72,0A32.17,32.17,0,0,0,119,27.13"/><path class="cls-1" d="M110.91,40.36H29.47a6.12,6.12,0,0,0-6.11,6.11v62.1a6.11,6.11,0,0,0,6.11,6.11h55V130l11.2,1.52L84.44,130l-51.92,7"/></svg>