<svg width="192" height="192" fill="none" xmlns="http://www.w3.org/2000/svg"><path d="M140 99v52m30-34.211a15.095 15.095 0 0 0-4.393-10.643A14.988 14.988 0 0 0 155 101.737a14.988 14.988 0 0 0-10.607 4.409A15.095 15.095 0 0 0 140 116.789m-50-2.834v21.752c0 2.958.88 5.849 2.528 8.309a14.993 14.993 0 0 0 6.732 5.508c10.74 4.435 20.74-2.538 20.74-2.538m-30-33.031c0 8.259 6.716 14.955 15 14.955 8.284 0 15-6.696 15-14.955 0-8.26-6.716-14.955-15-14.955-8.284 0-15 6.695-15 14.955ZM72 35l24 24m24-24L96 59" stroke="#000" stroke-width="12" stroke-linecap="round" stroke-linejoin="round"/><path d="M170 85V65a6 6 0 0 0-6-6H28a6 6 0 0 0-6 6v80a6 6 0 0 0 6 6h44.5" stroke="#000" stroke-width="12" stroke-linecap="round" stroke-linejoin="round"/></svg>