<svg width="192" height="192" viewBox="0 0 192 192" fill="none" xmlns="http://www.w3.org/2000/svg"><g style="stroke:#000;stroke-width:18.7156;stroke-dasharray:none;stroke-opacity:1"><g style="stroke:#000;stroke-width:19.9271;stroke-dasharray:none;stroke-opacity:1"><g transform="matrix(.40753 0 0 .39544 84.612 58.48)" style="fill:none;stroke:#000;stroke-width:19.9283;stroke-dasharray:none;stroke-opacity:1"><g style="fill:none;stroke:#000;stroke-width:1.81715;stroke-dasharray:none;stroke-opacity:1"><path class="a" style="fill:none;stroke:#000;stroke-width:1.81715;stroke-linecap:round;stroke-linejoin:round;stroke-dasharray:none;stroke-opacity:1" d="M104.144 115.807h8.206m-8.206-14.215 4.103-2.266m0 0v16.481m6.023-11.124c-.036-3 2.058-5.478 4.702-5.562 2.68.065 4.836 2.521 4.882 5.562-.014 1.469-.705 2.438-1.618 3.48-1.99 1.854-7.965 7.645-7.965 7.645h9.583" transform="matrix(10.91026 0 0 11.0236 -1294.686 -1090.034)"/></g><path style="fill:none;fill-opacity:.25;fill-rule:evenodd;stroke:#000;stroke-width:19.9283;stroke-linecap:round;stroke-linejoin:round;stroke-dasharray:none;stroke-opacity:1;paint-order:markers stroke fill" d="m107.673 187.188 104.805-184"/><circle style="fill:none;fill-opacity:.25;fill-rule:evenodd;stroke:#000;stroke-width:19.9283;stroke-linecap:round;stroke-linejoin:round;stroke-dasharray:none;stroke-opacity:1;paint-order:markers stroke fill" cx="126.363" cy="48.584" r="25"/><circle style="fill:none;fill-opacity:.25;fill-rule:evenodd;stroke:#000;stroke-width:19.9283;stroke-linecap:round;stroke-linejoin:round;stroke-dasharray:none;stroke-opacity:1;paint-order:markers stroke fill" cx="189.285" cy="140.323" r="25"/></g></g></g></svg>