<svg width="192" height="192" xmlns="http://www.w3.org/2000/svg" viewBox="0 0 192 192"><defs><style>.a,.b{fill:none;stroke:#000;stroke-linecap:round;stroke-linejoin:round;stroke-width:12px;}.a{fill-rule:evenodd;}</style></defs><path class="a" d="M123.75,165.661a14.169,14.169,0,0,0,19.17,1.149A12.85,12.85,0,0,0,147.1,159.9c.319-1.089,1.494-8.426,2.612-16.306s2.034-14.449,2.034-14.6"/><path class="b" d="M129.1,129l-1.955,15.239a8.87,8.87,0,0,0,2.725,7.622c2.646,2.364,5.928,2.115,9.218,2.115h9.078"/><path class="b" d="M107.312,159.912l3.6-26.8c.191-1.177.132-1.247-1.771-2.087a23.411,23.411,0,0,0-13.793-1.609,12.654,12.654,0,0,0-8.8,6.526,19.906,19.906,0,0,0-1.67,6.621c-.312,2.472-.64,4.939-.807,7.427-.141,2.091-.236,4.08.808,5.99a7.775,7.775,0,0,0,4.677,3.526,15.939,15.939,0,0,0,7.237.156c3.341-.709,6.156-3.112,8.8-5.125a19.408,19.408,0,0,0,2.711-2.325"/><path class="b" d="M41.7,152.125a22.665,22.665,0,0,0,5.593,5.147,13.221,13.221,0,0,0,14.116.529c4.864-3.072,5.452-8.606,6.178-13.846.581-4.2,1.753-9.281-1.726-12.59-2-1.9-4.794-2.31-7.448-2.356a34.208,34.208,0,0,0-9.08.877,7.331,7.331,0,0,0-5.438,6.074L39.25,170"/><polyline class="b" points="124.272 102 133.64 40.63 98.01 83.673"/><path class="b" d="M65.195,31.215c1.4-1.8,4.662-6.029,9.167-7.887,4.877-2.011,13.194-2.226,18.266,2.843,5.167,5.163,6.755,14.459-1.673,23.875L57.5,83.673h77"/></svg>