<svg width="192" height="192" viewBox="0 0 192 192" fill="none" xmlns="http://www.w3.org/2000/svg"><path fill-rule="evenodd" clip-rule="evenodd" d="M34.487 48 43 56.381 51.442 48H34.487Zm31.523 2.444 14.57 14.408-10.77 10.89-3.715 3.53-14.561-14.455L66.01 50.444ZM37.02 67.33 18.262 48.864C13.376 44.032 16.983 36 23.567 36h41.798c1.977 0 3.886.776 5.305 2.178l21.536 21.296a7.51 7.51 0 0 1 .032 10.654l-3.858 3.9h80.053c6.583 0 10.191 8.033 5.305 12.864l-42.285 41.812 14.595 14.432c4.886 4.832 1.279 12.864-5.305 12.864H74.452a7.54 7.54 0 0 1-5.953-2.909l-29.986-38.545c-1.517-1.951-1.497-4.101-1.493-4.563V67.33Zm11.996 11.894v16.77l8.463-8.369-8.463-8.4ZM68.01 94.086l-17.077 16.886 17.077 21.951V94.086ZM80.005 144h49.853l-11.161-11.035L80.005 94.46V144Zm8.536-57.972 34.393 34.226 34.613-34.226H88.541Z" fill="#000"/></svg>