<svg width="192" height="192" viewBox="0 0 192 192" fill="none" xmlns="http://www.w3.org/2000/svg">
    <path d="M37.8284 57.1716C36.2663 58.7337 33.7337 58.7337 32.1716 57.1716L22.8284 47.8284C20.3086 45.3086 22.0932 41 25.6569 41H44.3431C47.9068 41 49.6914 45.3086 47.1716 47.8284L37.8284 57.1716Z" fill="#000000"/>
    <path d="M41.0984 68.0416C39.5363 66.4795 39.5363 63.9469 41.0984 62.3848L56.6548 46.8284C58.2169 45.2663 60.7495 45.2663 62.3116 46.8284L77.868 62.3848C79.4301 63.9469 79.4301 66.4795 77.868 68.0416L62.3116 83.598C60.7495 85.1601 58.2169 85.1601 56.6548 83.598L41.0984 68.0416Z" fill="#000000"/>
    <path d="M41.2184 118.828C39.6563 117.266 39.6563 114.734 41.2184 113.172L63.5616 90.8284C66.0815 88.3086 70.39 90.0932 70.39 93.6569V138.343C70.39 141.907 66.0814 143.691 63.5616 141.172L41.2184 118.828Z" fill="#000000"/>
    <path d="M80.3889 152C78.1798 152 76.3889 150.209 76.3889 148V93.6568C76.3889 90.0932 80.6975 88.3086 83.2173 90.8284L137.56 145.172C140.08 147.691 138.296 152 134.732 152H80.3889Z" fill="#000000"/>
    <path d="M130.828 124.312C129.266 125.874 126.734 125.874 125.172 124.312L86.8284 85.9684C84.3086 83.4486 86.0932 79.14 89.6569 79.14H166.343C169.907 79.14 171.691 83.4486 169.172 85.9684L130.828 124.312Z" fill="#000000"/>
    <path d="M52.4116 87.8416C53.9737 89.4037 53.9737 91.9363 52.4116 93.4984L43.0684 102.842C40.5486 105.361 36.24 103.577 36.24 100.013V81.3269C36.24 77.7632 40.5486 75.9786 43.0684 78.4984L52.4116 87.8416Z" fill="#000000"/>
</svg>
