<?xml version="1.0" encoding="UTF-8" standalone="no"?>
<!-- Created with Inkscape (http://www.inkscape.org/) -->

<svg
   width="192"
   height="192"
   viewBox="0 0 50.799999 50.8"
   version="1.1"
   id="svg25510"
   xml:space="preserve"
   xmlns="http://www.w3.org/2000/svg"
   xmlns:svg="http://www.w3.org/2000/svg"><defs
     id="defs25507"><style
       id="style2604">.cls-1,.cls-2{fill:none;}.cls-2{stroke:#000;stroke-linecap:round;stroke-linejoin:round;stroke-width:12px;}</style></defs><g
     id="g2619"
     transform="scale(0.26458333)"><rect
       class="cls-1"
       width="192"
       height="192"
       id="rect2608"
       x="0"
       y="0" /><g
       id="layer1-3"><path
         id="rect28292-8"
         class="cls-2"
         d="m 96.141232,22.003105 c -40.520957,0 -73.718127,35.898567 -73.718127,79.210965 C 51.968386,80.40331 76.28096,29.386924 119.4733,54.189752 a 53.027426,53.027426 0 0 1 15.00776,13.516991 49.345522,49.345522 0 0 1 9.51492,23.422114 c 5.84303,-4.092116 18.85976,-13.76712 20.08039,-21.100913 0.74038,-4.412282 -3.20166,-9.855098 -5.39279,-13.376919 A 75.148867,75.148867 0 0 0 96.141232,22.003105 Z m 0,55.728823 a 22.691736,22.691736 0 0 0 -4.532344,0.440228 C 68.186774,82.694495 76.371007,119.19337 99.412924,115.34138 122.80502,111.42936 117.68237,77.892011 96.111217,77.731928 Z m 73.548038,13.43695 c -29.3852,20.700702 -55.25858,73.147832 -98.150762,46.023802 a 53.337587,53.337587 0 0 1 -13.74711,-12.58651 c -5.322753,-6.90357 -7.934104,-15.00776 -9.68501,-23.42211 -5.752975,4.00207 -19.009832,13.86717 -20.080385,21.19096 -0.650337,4.2622 3.521821,10.00517 5.652923,13.37692 a 73.107812,73.107812 0 0 0 30.015525,26.89391 C 116.51177,187.47869 169.65926,146.36743 169.65926,91.138862 Z" /></g></g></svg>
