<?xml version="1.0" encoding="UTF-8" standalone="no"?>
<!-- Created with Inkscape (http://www.inkscape.org/) -->

<svg width="192" height="192" viewBox="0 0 50.799999 50.8" version="1.1" id="svg3102" xmlns="http://www.w3.org/2000/svg">
  <defs
     id="defs3099" />
  <g
     id="layer1">
    <g
       id="g2619"
       transform="scale(0.26458333)">
      <rect
         class="cls-1"
         width="192"
         height="192"
         id="rect2608"
         x="0"
         y="0"
         style="fill:none" />
      <g
         id="layer1-3">
        <path
           id="rect28292-8"
           class="cls-2"
           d="m 96.085637,22.000014 c -40.722923,0 -74.085555,35.899656 -74.085555,79.213356 29.69254,-20.81138 54.126295,-71.829314 97.533908,-47.025733 a 53.291726,53.029035 0 0 1 15.08257,13.517401 49.591472,49.347019 0 0 1 9.56235,23.422823 c 5.87213,-4.092238 18.95375,-13.767537 20.18046,-21.101551 0.74408,-4.412417 -3.21761,-9.855398 -5.41967,-13.377325 A 75.523426,75.151147 0 0 0 96.085637,22.000014 Z m 0,55.730513 a 22.804838,22.692425 0 0 0 -4.554935,0.440242 C 67.991847,82.693245 76.216872,119.19321 99.373634,115.34112 122.88233,111.42897 117.73413,77.890616 96.055472,77.730527 Z M 170.00025,91.167885 C 140.46859,111.86921 114.46624,164.31794 71.360288,137.19307 a 53.603434,53.339205 0 0 1 -13.81563,-12.58689 c -5.349282,-6.90378 -7.973649,-15.00821 -9.733281,-23.42282 -5.78165,4.00219 -19.104582,13.86759 -20.180471,21.1916 -0.653578,4.26234 3.539375,10.00548 5.681099,13.37733 a 73.472198,73.11003 0 0 0 30.165129,26.89474 C 116.55771,187.48061 169.97009,146.36811 169.97009,91.137867 Z"
           style="fill:none;stroke:#000000;stroke-width:12.0002;stroke-linecap:round;stroke-linejoin:round;stroke-dasharray:none" />
      </g>
    </g>
  </g>
</svg>
