<?xml version="1.0" encoding="utf-8"?>
	<svg version="1.1" xmlns="http://www.w3.org/2000/svg" xmlns:xlink="http://www.w3.org/1999/xlink" x="0px" y="0px" width="240.0" height="240.0" xml:space="preserve">
		<path d="M10,140.039C10.425,134.723 12.303,130.037 16.088,126.244C37.028,105.254 58.023,84.319 78.913,63.279C80.931,61.246 82.019,61.864 83.688,63.549C94.775,74.748 106.003,85.806 117.031,97.062C119.378,99.459 120.795,99.526 123.179,97.09C134.201,85.829 145.451,74.792 156.505,63.562C158.463,61.572 159.599,61.653 161.53,63.596C182.181,84.379 202.946,105.05 223.623,125.807C231.934,134.151 232.175,145.06 224.032,153.599C216.381,161.621 208.349,169.28 200.595,177.206C198.5,179.349 197.157,178.592 195.421,176.841C184.49,165.817 173.497,154.854 162.52,143.876C159.303,140.66 159.288,140.663 155.983,143.967C145.003,154.944 133.967,165.865 123.103,176.954C120.907,179.194 119.677,179.084 117.539,176.906C106.34,165.492 94.916,154.298 83.733,142.867C81.417,140.499 80.105,140.689 77.898,142.937C66.857,154.181 55.594,165.205 44.57,176.464C42.243,178.841 40.873,178.631 38.691,176.379C31.381,168.836 23.893,161.465 16.452,154.048C12.563,150.171 10.504,145.482 10,140.039" fill="#000" stroke="#00000000" stroke-width="1.0" stroke-miterlimit=""/>
	</svg>
