<?xml version="1.0" encoding="utf-8"?>
	<svg version="1.1" xmlns="http://www.w3.org/2000/svg" xmlns:xlink="http://www.w3.org/1999/xlink" x="0px" y="0px" width="240.0" height="240.0" xml:space="preserve">
		<path d="M91.699,91.676L148.268,148.245L148.268,148.245C122.772,173.741 89.616,191.576 48.799,201.75L47.56,202.056C43.268,203.105 38.938,200.477 37.888,196.185C37.583,194.937 37.583,193.633 37.888,192.384C48.009,150.999 65.946,117.429 91.699,91.676Z" fill="#000" stroke="#00000000" stroke-width="1.0" stroke-miterlimit=""/>
		<path d="M91.621,91.755L148.189,148.324L148.189,148.324C173.685,122.828 191.52,89.672 201.694,48.855L202,47.616C203.05,43.324 200.421,38.994 196.129,37.944C194.881,37.639 193.577,37.639 192.329,37.944C150.943,48.065 117.374,66.002 91.621,91.755Z" fill="#000" stroke="#00000000" stroke-width="1.0" stroke-miterlimit=""/>
	</svg>
