<?xml version="1.0" encoding="utf-8"?>
	<svg version="1.1" xmlns="http://www.w3.org/2000/svg" xmlns:xlink="http://www.w3.org/1999/xlink" x="0px" y="0px" width="240.0" height="240.0" xml:space="preserve">
		<path d="M126.146,113.926L88.498,85.341C83.618,81.158 79.435,83.25 79.435,90.222L79.435,152.968C79.435,159.242 83.618,161.334 88.498,157.151L126.146,128.566C130.329,125.778 131.026,120.897 128.934,117.411C128.237,115.32 127.54,114.623 126.146,113.926L126.146,113.926ZM211.202,101.376C172.159,63.729 121.266,41.419 90.589,29.567C77.343,24.687 62.702,31.658 57.822,44.208C57.125,45.602 57.125,46.996 56.427,48.391L56.427,51.179C85.012,60.243 131.026,77.672 166.582,105.559C174.251,111.137 176.342,122.292 170.765,129.961C169.371,132.052 167.976,133.447 165.885,134.144C132.42,157.848 95.47,176.672 56.427,189.221L57.125,191.313C59.216,205.256 72.463,214.319 86.406,212.228C88.498,212.228 89.892,211.531 91.984,210.834C135.209,193.404 175.645,169.003 211.201,138.327C221.659,129.264 223.053,113.228 213.99,102.771C212.596,102.771 211.899,102.074 211.201,101.376L211.202,101.376ZM57.125,51.179L56.428,51.179C42.484,46.996 27.843,53.968 25.752,65.82C18.083,102.074 18.083,139.024 25.752,175.277C28.541,187.13 43.879,194.798 57.125,189.918L57.822,189.918C49.456,143.904 49.456,97.193 57.125,51.179L57.125,51.179Z" fill="#000" stroke="#00000000" stroke-width="1.0" stroke-miterlimit=""/>
	</svg>
