<svg width="192" height="193" fill="none" xmlns="http://www.w3.org/2000/svg"><path d="M66.862 118.437c-19.525 6.33-29.49-17.658-20.383-61.142C47.337 53.103 39.635 53 35.591 53h-5.446c-3.008 0-5.589 2.33-6.027 5.486-9.246 66.605 12.695 85.831 48 82.064 5.845-.624 10.61-4.845 11.955-8.728L97.94 94.768l12.787-37.563C112.255 52.932 102.25 53 97.941 53h-5.416c-2.599 0-4.918 1.73-5.796 4.323l-19.867 61.114Zm0 0c.925-.3 5.55-17.799 0 0Zm36.467 13.184 27.389-73.642c2.05-5.514 9.407-5.514 11.458 0l27.388 73.642c1.595 4.287-1.384 8.929-5.729 8.929h-9.067c-2.301 0-4.41-1.361-5.469-3.528l-7.384-15.121c-2.297-4.703-8.64-4.703-10.937 0l-7.384 15.121c-1.058 2.167-3.167 3.528-5.468 3.528h-9.068c-4.344 0-7.323-4.642-5.729-8.929Z" stroke="#000" stroke-width="12" stroke-linejoin="round"/></svg>