<svg xmlns="http://www.w3.org/2000/svg" width="192" height="192" viewBox="0 0 192 192" fill="none"><path d="M0 0h192v192H0z"/><path stroke="#000" stroke-linecap="round" stroke-linejoin="round" stroke-width="8" d="M20 72.87v31.73c.77 8.11 8.14 14.41 16.88 14.52 8.91.12 16.58-6.25 17.36-14.52V72.87"/><path stroke="#000" stroke-linecap="round" stroke-miterlimit="10" stroke-width="8" d="M54.24 119.13v-32.9m13.84 32.9V72.87"/><path stroke="#000" stroke-linecap="round" stroke-linejoin="round" stroke-width="8" d="M142.57 113.99c-3 3.17-7.24 5.14-11.95 5.14-9.09 0-16.45-7.37-16.45-16.45s7.37-16.45 16.45-16.45 16.45 7.37 16.45 16.45h-32.9"/><path stroke="#000" stroke-linecap="round" stroke-miterlimit="10" stroke-width="8" d="M160.22 119.13V87.99m11.78 0h0c-1.9 0-3.77.45-5.45 1.32-2.73 1.42-6.33 3.97-6.33 7.51"/><circle cx="84.53" cy="102.68" r="16.45" stroke="#000" stroke-linecap="round" stroke-miterlimit="10" stroke-width="8"/></svg>