<svg width="192" height="192" viewBox="0 0 192 192" xmlns="http://www.w3.org/2000/svg"><path d="M16 16h160v160H16Z" class="cls-1" style="fill:none;stroke-width:.999998"/><path d="M32.658 50.875v26.442c.642 6.758 6.784 12.008 14.067 12.1 7.425.1 13.817-5.209 14.467-12.1V50.875" class="cls-3" style="fill:none;stroke:#000;stroke-width:8.00003px;stroke-linecap:round;stroke-linejoin:round"/><path d="M61.192 89.425V62m11.533 27.425v-38.55" class="cls-2" style="fill:none;stroke:#000;stroke-width:8.00003px;stroke-linecap:round;stroke-miterlimit:10"/><circle cx="86.433" cy="75.717" class="cls-2" style="fill:none;stroke:#000;stroke-width:8.00003px;stroke-linecap:round;stroke-miterlimit:10" r="13.708"/><path d="M134.808 85.142a13.659 13.659 0 0 1-9.958 4.283c-7.575 0-13.708-6.142-13.708-13.708 0-7.567 6.141-13.709 13.708-13.709s13.708 6.142 13.708 13.709h-27.416" class="cls-3" style="fill:none;stroke:#000;stroke-width:8.00003px;stroke-linecap:round;stroke-linejoin:round"/><path d="M149.508 89.425V63.467m9.817 0v0a9.874 9.874 0 0 0-4.542 1.1c-2.275 1.183-5.275 3.308-5.275 6.258" class="cls-2" style="fill:none;stroke:#000;stroke-width:8.00003px;stroke-linecap:round;stroke-miterlimit:10"/><path d="M32.658 103.617h35.367v37.458l-6.467-6.467-5.625 5.634-5.608-5.609-5.667 5.667-5.566-5.567-6.384 6.392zM41.65 114.7h15.208m-15.208 8.65h8.692" class="cls-3" style="fill:none;stroke:#000;stroke-width:8.00003px;stroke-linecap:round;stroke-linejoin:round"/></svg>