<?xml version="1.0" encoding="UTF-8"?><svg id="Layer_1" xmlns="http://www.w3.org/2000/svg" width="192" height="192" viewBox="0 0 192 192"><defs><style>.cls-1,.cls-2,.cls-3{fill:none;}.cls-2{stroke-miterlimit:10;}.cls-2,.cls-3{stroke:#000;stroke-linecap:round;stroke-width:8px;}.cls-3{stroke-linejoin:round;}</style></defs><rect class="cls-1" width="192" height="192"/><g><g><g><path class="cls-3" d="M20,41.85v31.73c.77,8.11,8.14,14.41,16.88,14.52,8.91,.12,16.58-6.25,17.36-14.52v-31.73"/><line class="cls-2" x1="54.24" y1="88.11" x2="54.24" y2="55.2"/></g><g><line class="cls-2" x1="68.08" y1="88.11" x2="68.08" y2="41.85"/><circle class="cls-2" cx="84.53" cy="71.66" r="16.45"/></g><path class="cls-3" d="M142.57,82.97c-3,3.17-7.24,5.14-11.95,5.14-9.09,0-16.45-7.37-16.45-16.45s7.37-16.45,16.45-16.45,16.45,7.37,16.45,16.45h-32.9"/><g><line class="cls-2" x1="160.22" y1="88.11" x2="160.22" y2="56.96"/><path class="cls-2" d="M172,56.96h0c-1.9,0-3.77,.45-5.45,1.32-2.73,1.42-6.33,3.97-6.33,7.51"/></g></g><g><g><polyline class="cls-3" points="50.04 105.14 20 105.14 20 150.15 50.04 150.15"/><line class="cls-2" x1="20" y1="127.65" x2="50.04" y2="127.65"/></g><g><line class="cls-2" x1="97.65" y1="150.15" x2="97.65" y2="117.07"/><circle class="cls-2" cx="78.4" cy="133.61" r="16.54"/></g><path class="cls-3" d="M118.62,105.14v40.5c0,2.49,2.02,4.51,4.51,4.51h7.38"/><line class="cls-2" x1="109.49" y1="118.52" x2="130.51" y2="118.52"/><path class="cls-3" d="M144.59,142.08c0,4.33,6.14,7.83,13.71,7.83s13.71-3.51,13.71-7.83-6.14-7.83-13.71-7.83-13.71-3.51-13.71-7.83,6.14-7.83,13.71-7.83,13.71,3.51,13.71,7.83"/></g></g></svg>