<svg xmlns="http://www.w3.org/2000/svg" width="192" height="192" fill="none" viewBox="0 0 192 192"><path stroke="#000" stroke-linecap="round" stroke-linejoin="round" stroke-width="8" d="M20 41.85v31.73c.77 8.11 8.14 14.41 16.88 14.52 8.91.12 16.58-6.25 17.36-14.52V41.85"/><path stroke="#000" stroke-linecap="round" stroke-width="8" d="M54.24 88.11V55.2m13.84 32.91V41.85"/><path stroke="#000" stroke-linecap="round" stroke-linejoin="round" stroke-width="8" d="M142.57 82.97c-3 3.17-7.24 5.14-11.95 5.14-9.09 0-16.45-7.37-16.45-16.45s7.37-16.45 16.45-16.45 16.45 7.37 16.45 16.45h-32.9"/><path stroke="#000" stroke-linecap="round" stroke-width="8" d="M160.22 88.11V56.96m11.78 0h0c-1.9 0-3.77.45-5.45 1.32-2.73 1.42-6.33 3.97-6.33 7.51"/><path stroke="#000" stroke-linecap="round" stroke-linejoin="round" stroke-width="8" d="M50.04 105.14H20v45.01h30.04"/><path stroke="#000" stroke-linecap="round" stroke-width="8" d="M20 127.65h30.04m47.61 22.5v-33.08m20.97-11.93v40.5c0 2.49 2.02 4.51 4.51 4.51h7.38m-21.02-31.63h21.02m14.08 23.56c0 4.33 6.14 7.83 13.71 7.83s13.71-3.51 13.71-7.83-6.14-7.83-13.71-7.83-13.71-3.51-13.71-7.83 6.14-7.83 13.71-7.83 13.71 3.51 13.71 7.83"/><circle cx="84.53" cy="71.66" r="16.45" stroke="#000" stroke-width="8"/><circle cx="78.4" cy="133.61" r="16.54" stroke="#000" stroke-width="8"/></svg>