<svg width="192" height="192" viewBox="0 0 192 192" fill="none" xmlns="http://www.w3.org/2000/svg"><path d="m74 132 26 38m70-38-26 38m-44 0s36.009-50.264 37.588-53A17.997 17.997 0 0 0 131 92.412 17.998 17.998 0 0 0 104 108c0 3.16.832 6.264 2.412 9 1.579 2.736 37.588 53 37.588 53M84.659 90.613A18 18 0 0 0 64.412 117c1.78 3.083 9.588 15 9.588 15" stroke="#000" stroke-width="12" stroke-linecap="round" stroke-linejoin="round"/><circle cx="42" cy="64" r="4" stroke="#000" stroke-width="8" stroke-linecap="round" stroke-linejoin="round"/><circle cx="24.68" cy="51" r="4" transform="rotate(60 24.68 51)" stroke="#000" stroke-width="8" stroke-linecap="round" stroke-linejoin="round"/><circle cx="59.321" cy="51" r="4" transform="rotate(-60 59.32 51)" stroke="#000" stroke-width="8" stroke-linecap="round" stroke-linejoin="round"/><path d="M42 64V20h-2" stroke="#000" stroke-width="8" stroke-linecap="round" stroke-linejoin="round"/><path d="m24.68 51 38.105-22-1-1.732" stroke="#000" stroke-width="8" stroke-linecap="round" stroke-linejoin="round"/><path d="M59.32 51 21.216 29l-1 1.732" stroke="#000" stroke-width="8" stroke-linecap="round" stroke-linejoin="round"/></svg>