<svg width="192" height="192" viewBox="0 0 192 192" fill="none" xmlns="http://www.w3.org/2000/svg"><path d="M116 82a30.002 30.002 0 0 0 25.981-45A29.997 29.997 0 0 0 101 26.02 30 30 0 0 0 90.02 37" stroke="#000" stroke-width="12" stroke-linecap="round" stroke-linejoin="round"/><path d="M116 54a29.999 29.999 0 0 0-27.716 41.48A30 30 0 0 0 104 111.496V156m37.981-87A30 30 0 0 1 128 111.495V156m-12 14-12-14m12 14 12-14m-44.846-30.029L54.87 154.255M66.184 109 37.9 137.284m-1.415 18.385 1.415-18.385m-1.415 18.385 18.385-1.414" stroke="#000" stroke-width="12" stroke-linecap="round" stroke-linejoin="round"/></svg>