<svg xmlns="http://www.w3.org/2000/svg" xml:space="preserve" width="192" height="192" viewBox="0 0 192 192"><g style="fill:none;stroke:#000;stroke-width:12;stroke-linecap:round;stroke-linejoin:round"><circle cx="154" cy="38" r="16"/><path d="M138 96v-7.5a6.5 6.5 135 0 1 6.5-6.5h19a6.5 6.5 45 0 1 6.5 6.5V96m0 0a74 74 0 0 1-45.68 68.37 74 74 0 0 1-80.65-16.04 74 74 0 0 1-16.04-80.65A74 74 0 0 1 96 22m42 74a42 42 0 0 1-25.93 38.81 42 42 0 0 1-45.77-9.11 42 42 0 0 1-9.11-45.77A42 42 0 0 1 96 54m0-32h7.5a6.5 6.5 45 0 1 6.5 6.5v19a6.5 6.5 135 0 1-6.5 6.5H96"/></g></svg>