<?xml version="1.0" encoding="UTF-8" standalone="no"?>
<!-- Created with Inkscape (http://www.inkscape.org/) -->

<svg
   width="192"
   height="192"
   viewBox="0 0 192 192"
   version="1.1"
   xml:space="preserve"
   xmlns="http://www.w3.org/2000/svg"
   xmlns:svg="http://www.w3.org/2000/svg">
  <g style="fill:none;stroke:#000;stroke-width:12;stroke-linecap:round;stroke-linejoin:round">
    <circle cx="154" cy="38" r="16" />
    <path
      d="M 138,96 V 90 A 8,8 135 0 1 146,82 H 162 A 8,8 45 0 1 170,90 V 96
      M 169.91369,96.271873 A 74,74 0 0 1 124.23226,164.63896 74,74 0 0 1 43.587786,148.59777 74,74 0 0 1 27.546604,67.953298 74,74 0 0 1 95.913689,22.271873
      M 137.91369,96.271873 A 42,42 0 0 1 111.98639,135.07481 42,42 0 0 1 66.215204,125.97036 42,42 0 0 1 57.110749,80.199169 42,42 0 0 1 95.913689,54.271873
      M 96,22 H 102 A 8,8 45 0 1 110,30 V 46 A 8,8 135 0 1 102,54 H 96" />
  </g>
</svg>
