<?xml version="1.0" encoding="UTF-8" standalone="no"?>
<!-- Created with Inkscape (http://www.inkscape.org/) -->

<svg
   width="192"
   height="192"
   viewBox="0 0 192 192"
   version="1.1"
   xml:space="preserve"
   xmlns="http://www.w3.org/2000/svg"
   xmlns:svg="http://www.w3.org/2000/svg">
  <g style="fill:none;stroke:#000;stroke-width:12;stroke-linecap:round;stroke-linejoin:round">
    <circle cx="148" cy="44" r="16" />
    <path
       d="M 164,96 A 68,68 0 0 1 122,159 68,68 0 0 1 48,144 68,68 0 0 1 33,70 68,68 0 0 1 96,28 H 109 V 65 H 95 A 31,31 0 0 0 67,84 31,31 0 0 0 74,118 31,31 0 0 0 108,125 31,31 0 0 0 127,96 V 82 H 164 V 96" />
  </g>
</svg>
