<svg width="192" height="192" fill="none" xmlns="http://www.w3.org/2000/svg"><path d="M96 22s-40 0-57 17-17 57-17 57 0 40 17 57 57 17 57 17 40 0 57-17 17-57 17-57 0-40-17-57-57-17-57-17Z" stroke="#000" stroke-width="12" stroke-linecap="round" stroke-linejoin="round"/><path d="M102 104a18.01 18.01 0 0 1-5.272 12.728A18.013 18.013 0 0 1 84 122a18.01 18.01 0 0 1-12.728-5.272A18.005 18.005 0 0 1 66 104m60-35v54m-24-54v35M66 69v35" stroke="#000" stroke-width="12" stroke-linecap="round" stroke-linejoin="round"/></svg>