<svg width="192" height="192" viewBox="0 0 192 192" fill="none" xmlns="http://www.w3.org/2000/svg">
<path d="M29 113.317C29.5114 129.642 39.8292 156.858 69.3977 167.393C83.7159 172.495 99.0568 169.562 109.795 163.312C120.534 157.063 135.403 141.727 143.545 119.243M143.545 119.243L119.66 110.078C116.313 108.794 116.124 104.14 119.356 102.59L158.137 83.9898C160.852 82.6872 164 84.6617 164 87.6681V121.149C164 124.013 161.12 125.986 158.441 124.958L143.545 119.243ZM123.091 30.1622L151.216 22L126.67 61.2816C126.67 61.2816 113.886 30.6635 85.7614 30.1622C57.6364 29.6609 45.3636 55.1597 45.3636 55.1597L34.625 29.1421L45.3636 31.6929" stroke="black" stroke-width="12" stroke-linecap="round" stroke-linejoin="round"/>
</svg>
