<?xml version="1.0" encoding="UTF-8" standalone="no"?>
<!-- Created with Inkscape (http://www.inkscape.org/) -->

<svg
   width="192"
   height="192"
   viewBox="0 0 50.800001 50.800001"
   version="1.1"
   id="svg21311"
   xml:space="preserve"
   inkscape:version="1.2.2 (b0a8486541, 2022-12-01)"
   sodipodi:docname="ultimateguitar.svg"
   xmlns:inkscape="http://www.inkscape.org/namespaces/inkscape"
   xmlns:sodipodi="http://sodipodi.sourceforge.net/DTD/sodipodi-0.dtd"
   xmlns="http://www.w3.org/2000/svg"
   xmlns:svg="http://www.w3.org/2000/svg"><sodipodi:namedview
     id="namedview21313"
     pagecolor="#ffffff"
     bordercolor="#000000"
     borderopacity="0.25"
     inkscape:showpageshadow="2"
     inkscape:pageopacity="0.0"
     inkscape:pagecheckerboard="0"
     inkscape:deskcolor="#d1d1d1"
     inkscape:document-units="mm"
     showgrid="true"
     inkscape:zoom="2.7271953"
     inkscape:cx="112.01985"
     inkscape:cy="123.75351"
     inkscape:window-width="2031"
     inkscape:window-height="1074"
     inkscape:window-x="26"
     inkscape:window-y="23"
     inkscape:window-maximized="0"
     inkscape:current-layer="g4256"
     showguides="true"><inkscape:grid
       dotted="false"
       originx="1.3229167"
       type="xygrid"
       id="grid2253"
       empspacing="3" /></sodipodi:namedview><defs
     id="defs21308" /><g
     inkscape:label="Layer 1"
     inkscape:groupmode="layer"
     id="layer1"><g
       inkscape:label="Layer 1"
       id="layer1-3"
       transform="translate(-38.746335,-117.39587)"><g
         id="g4256"
         transform="matrix(0.26458334,0,0,0.26458334,123.10945,106.70835)"><path
           d="m -154.63569,136.33707 c 0.18833,2.01829 0.13503,4.95334 0.13503,7.01782 0.0888,37.31708 -30.45204,67.62698 -68.20618,67.70871 -37.75058,0.0817 -68.43003,-30.09671 -68.51176,-67.40667 a 67.136617,67.136617 0 0 1 20.27886,-48.165388 l -6.91834,-6.555893 V 68.930404 l 18.28544,17.617413 a 69.15491,69.15491 0 0 1 73.87374,0.280714 l 18.83975,-17.898127 v 20.008798 l -7.54372,6.92544 a 67.157937,67.157937 0 0 1 16.7575,27.268248 h -15.30064 c -11.31024,-27.154541 -42.75011,-40.095767 -70.22446,-28.920539 -27.4779,11.185879 -40.57547,42.256189 -29.25812,69.414289 11.31025,27.14745 42.75367,40.09578 70.22802,28.9099 17.46462,-7.10667 29.87995,-22.74131 32.70485,-41.20442 h -44.95673 l -14.26663,-14.99505 z"
           fill-rule="nonzero"
           id="path8340"
           style="fill:none;stroke:#000000;stroke-width:10.66;stroke-dasharray:none;stroke-opacity:1" /></g></g></g></svg>
