<svg xmlns="http://www.w3.org/2000/svg" width="192" height="192" fill="none"><path stroke="#000" stroke-linecap="round" stroke-linejoin="round" stroke-width="12" d="M29 112.317c.511 16.325 9.83 44.541 39.398 55.076 14.318 5.102 29.659 2.169 40.397-4.081 10.739-6.249 25.608-21.585 33.75-44.069m0 0-23.885-9.165c-3.347-1.284-3.536-5.938-.304-7.488l38.781-18.6c2.715-1.303 5.863.672 5.863 3.678v33.481c0 2.864-2.88 4.837-5.559 3.809zm-19.454-91.08L150.216 22 126.67 64.282S114.125 41.502 86 41 46.5 61.282 46.5 61.282l-11.875-32.14 12.739 1.55"/></svg>