<svg width="192" height="192" viewBox="0 0 192 192" fill="none" xmlns="http://www.w3.org/2000/svg"><path d="M22 100v48m148-48v48m-32-32v32m-84-32v32m116-48a73.997 73.997 0 0 0-74-74 74.001 74.001 0 0 0-74 74" stroke="#000" stroke-width="12" stroke-linecap="round" stroke-linejoin="round"/><path d="M54 116a16.001 16.001 0 0 0-27.314-11.314A16.007 16.007 0 0 0 22 116m0 32a16.001 16.001 0 0 0 27.314 11.314A16.007 16.007 0 0 0 54 148m116-32a16.002 16.002 0 0 0-27.314-11.314A16.016 16.016 0 0 0 138 116m0 32a16.002 16.002 0 0 0 27.314 11.314A16.016 16.016 0 0 0 170 148" stroke="#000" stroke-width="12" stroke-linecap="round" stroke-linejoin="round"/></svg>