<svg xmlns="http://www.w3.org/2000/svg" width="192" height="192" fill="none"><path stroke="#000" stroke-linecap="round" stroke-linejoin="round" stroke-width="12" d="M59 123a37 37 0 1 1 0-74"/><path stroke="#000" stroke-linecap="round" stroke-linejoin="round" stroke-width="10" d="M34.797 114.288a64 64 0 0 1 121.716-2.124"/><path stroke="#000" stroke-linecap="round" stroke-linejoin="round" stroke-width="12" d="M133 49a37 37 0 0 1 0 74M59 49h74m-56 99s17-25 56-25m-74 0h12a6 6 0 0 1 6 6v19"/><path stroke="#000" stroke-linecap="round" stroke-linejoin="round" stroke-width="10" d="M85 71a204 204 0 0 1 1.79 4.5M99 131s0-5.204-1.254-14"/><circle cx="93" cy="96" r="4" stroke="#000" stroke-linecap="round" stroke-linejoin="round" stroke-width="8"/><circle cx="59" cy="118" r="4" stroke="#000" stroke-linecap="round" stroke-linejoin="round" stroke-width="8"/><circle cx="123" cy="100" r="4" stroke="#000" stroke-linecap="round" stroke-linejoin="round" stroke-width="8"/><path stroke="#000" stroke-linecap="round" stroke-linejoin="round" stroke-width="10" d="M106 70a124 124 0 0 1 7.639 11M130 124s-.14-1.257-.57-3.5M61 96c.396-10.57 2.653-16.105 3.996-18.5"/></svg>