<svg width="192" height="192" viewBox="0 0 192 192" fill="none" xmlns="http://www.w3.org/2000/svg">
<path d="M96 82L97.7634 89.5729L105.511 88.9098L98.8532 92.9271L101.878 100.09L96 95L90.1221 100.09L93.1468 92.9271L86.4894 88.9098L94.2366 89.5729L96 82Z" stroke="black" stroke-width="6" stroke-linejoin="round"/>
<path d="M23.5 42.5L49 22L81 53C67.2555 68.8811 58 123.5 96 123.5C134 123.5 124.745 68.8811 111 53L143 22L168.5 42.5L156.5 64.5C167 82 170 89 170 114.5C170 140 149.5 170 96 170C42.5 170 22 140 22 114.5C22 89 25 82 35.5 64.5L23.5 42.5Z" stroke="black" stroke-width="12" stroke-linecap="round" stroke-linejoin="round"/>
<path d="M55.0256 62.3523L50.9744 73.6477" stroke="black" stroke-width="8" stroke-linecap="round"/>
<path d="M45.6595 98.4206L45.7065 110.421" stroke="black" stroke-width="10" stroke-linecap="round"/>
<path d="M55.3775 133.703L65.0153 140.852" stroke="black" stroke-width="10" stroke-linecap="round"/>
<path d="M90.3528 146.769L102.353 146.73" stroke="black" stroke-width="12" stroke-linecap="round"/>
<path d="M126.757 141.021L136.395 133.872" stroke="black" stroke-width="10" stroke-linecap="round"/>
<path d="M146.293 110.422L146.34 98.422" stroke="black" stroke-width="10" stroke-linecap="round"/>
<path d="M141.131 73.9786L137.103 62.675" stroke="black" stroke-width="8" stroke-linecap="round"/>
</svg>
