<?xml version="1.0" encoding="UTF-8"?>
<svg xmlns="http://www.w3.org/2000/svg" version="1.1" viewBox="0 0 192 192">
  <!-- Generator: Adobe Illustrator 30.1.0, SVG Export Plug-In . SVG Version: 2.1.1 Build 136)  -->
  <defs>
    <style>
      .st0 {
        fill: none;
        stroke: #000;
        stroke-linecap: round;
        stroke-miterlimit: 10;
        stroke-width: 10px;
      }
    </style>
  </defs>
  <g id="L1">
    <path class="st0" d="M115.61,133.41c-5,9.17-15.59,10.58-18.2,10.58M97.4,143.99c-3-.09-5.04-10.48-6.1-12.68-2.91-6.05-9.1-8.63-10.37-13.23M80.94,118.08c3-3.03,11.04-6.25,11.91-9.83M97.4,89.78c-.92-1.11-2.71,15.17-4.56,18.47M97.4,89.78c3.97,5.26,11.87,11.52,15.84,16.78M122.54,84.33c-5.26,6.67-9.75,18.1-9.3,22.23"/>
    <path class="st0" d="M143.83,116.8c2.78,7.11.26,17.96-10.09,24.1M113.25,165.05c9.79-1.41,20.28-10.97,20.49-24.15"/>
    <path d="M171,95.64s0-.01,0-.02c-1.42-14.72-7.74-26.62-18.35-34.5-.52-7.41-2.56-15.93-7.02-24.97l-.47-.96c-1.54-3.11-5.16-10.38-6.68-14.95-.01-.02-.01-.03-.02-.05-.04-.11-.08-.23-.13-.33-.26-.63-.64-1.17-1.11-1.62-.09-.09-.18-.18-.28-.26-.1-.09-.2-.16-.31-.24-.1-.07-.21-.14-.32-.21-.33-.2-.68-.36-1.05-.47-.12-.04-.24-.07-.37-.1-.1-.03-.21-.05-.32-.07-.05-.01-.09-.01-.14-.02-.07-.02-.14-.02-.21-.03-.03,0-.06-.01-.09,0-.26-.02-.52-.02-.78,0-.13.01-.27.02-.4.05-.13.02-.27.05-.4.08-.13.03-.25.07-.38.11h-.02c-.26.09-.5.2-.74.32-.24.12-.46.26-.67.42,0,0,0,0-.01,0-.2.16-.39.33-.57.51-.09.1-.18.19-.26.29-.08.1-.16.2-.23.3-.08.11-.15.21-.21.32-.14.22-.26.45-.35.69-.05.12-.09.24-.13.36-.04.12-.07.24-.1.37-.03.11-.05.22-.07.34-.01.03-.01.06-.02.1,0,.08-.02.15-.03.23-.07.63-.76,2.8-1.32,4.55-1.88,5.9-4.82,15.18-5.34,25.46-1.73-.04-3.48.01-5.24.13-2.39.17-4.78.49-7.16.95,0,0,0,0,0,0-2.92-11.86-14.74-23.44-20.46-26.49-.04-.02-.09-.03-.14-.06-.17-.08-.35-.15-.53-.22-.13-.05-.26-.1-.4-.14-.17-.04-.34-.07-.51-.1-.16-.02-.31-.05-.47-.06-.15,0-.31,0-.47,0-.18,0-.35.01-.53.04-.05,0-.11,0-.16.01-.1.02-.19.06-.28.08-.17.04-.34.08-.51.14-.15.05-.3.12-.44.18-.15.07-.29.14-.43.22-.14.08-.27.17-.41.27-.13.09-.26.19-.38.3-.12.11-.24.22-.35.34-.11.12-.21.23-.31.36-.11.14-.2.29-.29.44-.05.08-.12.15-.16.24-.03.05-.04.1-.06.15-.08.16-.14.33-.21.5-.05.14-.11.28-.15.43-.04.16-.07.32-.09.48-.03.17-.06.33-.06.49,0,.15,0,.3,0,.44,0,.18.01.37.04.55,0,.05,0,.1.01.15.23,1.36.51,2.83.79,4.39,1.47,7.95,3.44,18.65,2.6,27.71-10.18,8-16.89,19.8-16,34.75.16,2.65,2.36,4.7,4.98,4.7.1,0,.2,0,.31-.01,2.75-.16,4.85-2.53,4.69-5.29-.71-11.8,4.73-20.98,13.04-27.12.02-.02.05-.03.07-.05.39-.21.75-.47,1.07-.77.01,0,.03-.02.04-.03,3.8-2.6,8.14-4.61,12.72-5.97h0c.28-.09.57-.17.85-.25.01-.01.02-.01.03-.01,3.38-.95,6.88-1.55,10.4-1.8,1.6-.11,3.24-.16,4.88-.11.24,1.93.6,3.87,1.1,5.8.58,2.25,2.61,3.75,4.83,3.75.42,0,.84-.06,1.26-.16,2.68-.7,4.28-3.43,3.59-6.1-.17-.65-.32-1.29-.44-1.95-.69-3.43-.87-6.93-.72-10.36.24-5.66,1.38-11.12,2.62-15.76.58,1.19,1.1,2.24,1.52,3.08l.45.93c2.55,5.17,4.17,10.06,5.1,14.53.9,4.26,1.18,8.13,1.06,11.47-.19,6.04-1.64,10.39-3.03,12.28-1.63,2.23-1.14,5.36,1.09,6.99.89.65,1.92.96,2.95.96,1.54,0,3.06-.71,4.04-2.05,1.69-2.31,3.24-6.03,4.13-10.81,4.87,5.56,8.27,13.2,9.11,23.37.01.18.04.37.08.55,0,.05.02.09.03.14,0,.02,0,.03.01.05,0,.02,0,.03.01.05.02.1.05.2.09.31.01.04.02.08.04.13.04.11.08.23.14.34.01.04.02.07.04.11,0,0,.01.02.01.03,7.17,15.56,3.29,28.95.33,35.55-3.5,7.81-8.48,12.48-10.75,13.17-2.64.81-4.13,3.6-3.32,6.24.66,2.15,2.64,3.54,4.78,3.54.48,0,.98-.07,1.46-.22,6.06-1.85,12.71-9.17,16.96-18.65,3.6-8.03,8.3-24.2-.02-43.01ZM95.55,57.03s0,0-.01,0c-.1-4.34-.56-8.7-1.17-12.83,2.66,3.48,4.92,7.4,5.7,10.91,0,0,0,0,0,0-1.54.58-3.05,1.21-4.52,1.91Z"/>
  </g>
  <g id="L2">
    <path class="st0" d="M91.28,168c-24.25,4.76-38.4-2.76-42.86-5.41-27.62-16.37-35.89-58.42-12.93-106.01M66.34,54.26c-19.04,32.93-21.49,62.58-5.76,78.88,2.69,2.79,6.38,5.63,11.69,7.77M66.34,54.26v-14.5c0-5.18-3.77-9.41-8.37-9.41h-25.52c-4.6,0-8.36,4.23-8.36,9.41v7.41c0,5.18,3.76,9.41,8.36,9.41h3.04"/>
  </g>
</svg>