<svg width="158" height="158" fill="none" xmlns="http://www.w3.org/2000/svg"><path d="m26.293 120-7 9c11.6 16 25.666 22.167 30 24l20-19c3.297-3.5 11-4 12 6 59.499-62.5 16.5-104-8-91m-47 71c-5.703-17.5-6.5-25.5 1-33 10.5 21 47.797 15 52 15-50-35.5-22-63-15-69-33 7-90.703 61.5-38 87Zm95.499 2c10 12 23.209 12 31.209 0-20-5-19.709-20-7.709-70 6.294-26.223-16-38.5-63-24m-32 10 3-33c-7.666 7.333-21.8 24.4-13 36m-11 8L7.003 22.5C6.545 32.974 8.582 54.74 22.791 57m21.21 58-4-15" stroke="#000" stroke-width="10" stroke-linecap="round" stroke-linejoin="round"/></svg>