<svg xmlns="http://www.w3.org/2000/svg" width="192" height="192" fill="none"><path stroke="#000" stroke-linecap="round" stroke-linejoin="round" stroke-width="10" d="m43.37 138-7 9c11.6 16 25.668 22.167 30 24l20-19c3.299-3.5 11-4 12 6C157.872 95.5 116.5 54 92 67m-48.63 71c-5.701-17.5-6.5-25.5 1-33 10.5 21 47.799 15 52 15-50-35.5-24.423-63-13-71-31.37 7-92.701 63.5-40 89m95.501 1c10 14 24.129 14 32.129-2-20-5-20.629-18-8.629-68 6.294-26.223-14-39.5-61-25M76.58 50 75 21c-13 5-24.8 23.4-16 35M45 67 21 37.5C21 51 21 74 30 82m31.08 51-4-15"/></svg>