<svg width="158" height="158" fill="none" xmlns="http://www.w3.org/2000/svg"><path d="m26.293 120-7 9c11.6 16 25.666 22.167 30 24l20-19c3.297-3.5 11-4 12 6 59.499-62.5 16.5-104-8-91m-47 71c-5.703-17.5-6.5-25.5 1-33 10.5 21 47.797 15 52 15-50-35.5-22-63-15-69-33 7-90.703 61.5-38 87Zm95.499 2c10 12 23.209 12 31.209 0-20-5-19.709-20-7.709-70 6.294-26.223-16-38.5-63-24m-27.79 5-1.21-28c-7.666 7.334-25.09 26.4-16.29 38m-7.71 6L8.003 21.5c0 11.5-2 38 9.5 41m26.5 52.5-4-15" stroke="#000" stroke-width="10" stroke-linecap="round" stroke-linejoin="round"/></svg>