<svg xmlns="http://www.w3.org/2000/svg" width="192" height="192" fill="none"><path stroke="#000" stroke-linecap="round" stroke-linejoin="round" stroke-width="10" d="M96 111v24m0 0a9 9 0 0 1-18 0"/><path stroke="#000" stroke-linecap="round" stroke-linejoin="round" stroke-width="12" d="M155 81v83a6 6 0 0 1-6 6H43a6 6 0 0 1-6-6V81"/><path stroke="#000" stroke-linecap="round" stroke-linejoin="round" stroke-width="10" d="M56 93s8-33 40-33 40 33 40 33-6.955-5.569-12-5c-3.995.45-9 5-9 5s-5.638-5.19-10-5c-4.017.175-9 5-9 5s-4.983-4.825-9-5c-4.362-.19-10 5-10 5s-5.005-4.55-9-5c-5.045-.569-12 5-12 5"/><path stroke="#000" stroke-linecap="round" stroke-linejoin="round" stroke-width="12" d="M155 81a59 59 0 1 0-118 0"/></svg>