<svg xmlns="http://www.w3.org/2000/svg" xml:space="preserve" viewBox="0 0 192 192"><path fill="none" stroke="#000" stroke-linecap="round" stroke-linejoin="round" stroke-miterlimit="10" stroke-width="8" d="M148 86.2c9.7-6 16.9-12.6 20.4-16.5 8.4-9.4-.4-13.2-.4-13.2s11.9 4.6-6.5 17.7c-3.9 2.8-12.5 7.1-12.5 7.1V31.4h-34.5V90s-5.5.9-12.1 1.9c-5.1.8-14.5 1.8-14.5 1.8V31.3H53.2v63.1s-4.8-.6-7.2-1c-18.1-3.2-14.3-16.2-14.3-16.2S23 80.9 20.3 87.8c-2.3 6 7.9 12 13.2 13.6 3.2.9 26.9 5.7 67.3.5 25.9-3.3 47.2-15.7 47.2-15.7zM148.4 98.1s2.1 30.3-5 44.5c-5.1 10.2-14.3 10.9-14.3 10.9s-5.3-1-11-5.4c-7.9-6.1-11.2-10.8-11.2-10.8s4.5-4.8 6.1-8.7c2-5 1.9-16.9 1.9-16.9s13.5-4.7 17.8-6.3c3.9-1.6 15.7-7.3 15.7-7.3zM87.3 117.5v14.9c0 4.9 1.5 10.3 4.8 14.2 3.1 3.6 14.9 14.1 14.9 14.1s-17.3.7-31.1-5.4c-13.3-5.9-19.4-13-21.6-22.5-.3-1.5-.5-12.2-.5-12.2s6 .1 16.5-.7c8.6-.8 17-2.4 17-2.4z"/></svg>