<svg xmlns="http://www.w3.org/2000/svg" xmlns:xlink="http://www.w3.org/1999/xlink" width="192" height="192" viewBox="0 0 192 192" fill="none"><defs><rect id="path_0" x="0" y="0" width="192" height="192" /><rect id="path_1" x="0" y="0" width="160" height="160" /></defs><g opacity="1" transform="translate(0 0)  rotate(0 96 96)"><mask id="bg-mask-0" fill="white"><use xlink:href="#path_0"/></mask><g mask="url(#bg-mask-0)" ><g opacity="1" transform="translate(16 16)  rotate(0 80 80)"><mask id="bg-mask-1" fill="white"><use xlink:href="#path_1"/></mask><g mask="url(#bg-mask-1)" ><g opacity="1" transform="translate(1.7214282206443288 12.4)  rotate(0 76.33928588967783 67.6)"><path id="路径 1" fill-rule="evenodd" style="fill:#000000" transform="translate(0 0)  rotate(0 79.15256054856408 40.01471940868395)" opacity="1" d="M74.68 78.8C67.48 79.6 61.08 80 54.68 80L51.88 80C5.48 80.8 -16.52 65.2 14.28 44.8L20.68 44.8C15.08 54.8 21.48 60.4 33.48 62.8L33.48 0L74.68 0L74.68 63.2C78.28 62.8 81.88 62.4 85.48 61.6C88.68 61.2 91.48 60.4 94.68 60L94.68 0L135.88 0L135.88 46.4C149.48 40 156.28 32.4 149.48 25.6L152.68 25.6C165.08 34.4 155.88 48 135.88 59.6L135.88 60C124.68 66.4 110.28 71.6 94.68 75.2C89.08 76.4 83.08 77.6 76.68 78.4C75.88 78.4 75.08 78.4 74.68 78.8Z" /><path id="路径 2"  style="fill:#000000" transform="translate(20.278571779355673 44.8)  rotate(0 0.15000000000000124 0.078125)" opacity="1" d="" /><path id="路径 3" fill-rule="evenodd" style="fill:#000000" transform="translate(33.07857177935568 84.79999999999998)  rotate(0 34.2 25.199999999999996)" opacity="1" d="M0.8,4L0,4L0,14.8C0,36.8 23.2,50.4 42.8,50.4L60,50.4C62.8,50.4 65.6,50 68.4,49.6C45.6,39.6 41.6,24.4 41.6,20.4L41.6,0C28.8,2 15.2,3.2 0.8,4Z " /><path id="路径 4" fill-rule="evenodd" style="fill:#000000" transform="translate(85.87857177935567 64.80000000000001)  rotate(0 24.799999999999997 32.44950608154211)" opacity="1" d="M31.2,64L30.8,64.4C41.6,58.4 49.6,48.4 49.6,34.8L49.6,0C35.6,7.6 22,12.4 8.4,16L8.4,22.8C8.4,30.4 5.2,40 0,43.6C1.6,49.6 4.4,52 8,55.6C15.6,62.8 26,66.8 31.2,64Z " /></g></g></g></g></g></svg>
