<svg xmlns="http://www.w3.org/2000/svg" width="192" height="192" fill="none" viewBox="0 0 192 192"><circle cx="132" cy="86" r="12" stroke="#000" stroke-linecap="round" stroke-linejoin="round" stroke-width="8"/><path stroke="#000" stroke-linecap="round" stroke-linejoin="round" stroke-width="8" d="M72 86a12 12 0 0 1-24 0"/><path stroke="#000" stroke-linecap="round" stroke-linejoin="round" stroke-width="12" d="M96 42v48"/><path stroke="#000" stroke-linecap="round" stroke-linejoin="round" stroke-width="8" d="M72 78v8m-24-8v8"/><path stroke="#000" stroke-linecap="round" stroke-linejoin="round" stroke-width="12" d="M22 84V48a6 6 0 0 1 6-6h136a6 6 0 0 1 6 6v36m0 0a74 74 0 1 1-148 0"/><path stroke="#000" stroke-linecap="round" stroke-linejoin="round" stroke-width="8" d="m76 114-1.874 1.875M68 122l6.126-6.125M116 114l1.875 1.875M124 122l-6.125-6.125m-43.75 0a24 24 0 0 0 43.75 0"/></svg>