<svg width="192" height="192" viewBox="0 0 192 192" fill="none" xmlns="http://www.w3.org/2000/svg">
<g clip-path="url(#clip0_238_295)">
<mask id="path-1-inside-1_238_295" fill="white">
<path fill-rule="evenodd" clip-rule="evenodd" d="M151.368 16.3255C150.791 16.693 151.301 17.6449 152.161 17.8077C153.358 18.0337 153.498 18.4385 153.498 21.6708C153.498 24.1171 153.603 24.913 153.977 25.2859C155.145 26.4546 155.696 25.1261 155.588 21.3977C155.506 18.5359 155.814 17.8511 157.188 17.8511C157.752 17.8511 158.231 16.8467 157.913 16.3323C157.671 15.9405 151.98 15.9344 151.368 16.3255ZM159.789 16.2281C159.531 16.4845 159.528 23.0929 159.783 24.6391C160.139 26.7909 161.541 26.1472 161.642 23.7861C161.79 20.3537 162.516 19.5175 163.437 21.721C164.178 23.4939 165.673 24.0593 165.673 22.5664C165.673 22.17 166.841 21.2774 167.553 21.1306C167.848 21.0689 167.996 21.6564 168.108 23.3296C168.243 25.3589 168.327 25.6123 168.868 25.6123C169.447 25.6123 169.481 25.3817 169.561 20.9784L169.645 16.3445L168.817 16.1368C167.887 15.9032 166.733 17.0681 166.103 18.8791C165.92 19.4018 165.543 19.8736 165.264 19.9284C164.756 20.0273 162.933 18.453 162.933 17.9158C162.933 16.7501 160.547 15.4695 159.789 16.2281ZM54.429 20.2631C53.7594 20.378 52.9376 20.617 52.6028 20.795C52.268 20.9731 51.4942 21.2089 50.8832 21.3193C50.2722 21.4296 49.6163 21.7081 49.4253 21.9379C49.2343 22.1684 48.7298 22.4439 48.3052 22.5504C46.5361 22.9948 41.801 27.739 41.7957 29.0729C41.795 29.346 41.5218 29.9799 41.1893 30.482C40.8568 30.9842 40.5836 31.7429 40.5829 32.1674C40.5813 32.5928 40.3066 33.4777 39.9718 34.1344C39.6371 34.791 39.3631 35.6098 39.3631 35.9537C39.3631 36.2969 39.109 37.0555 38.7993 37.6391C38.4888 38.2227 38.1343 39.2431 38.0118 39.9066C37.8893 40.5708 37.607 41.4657 37.3848 41.8956C37.1626 42.3255 36.8803 43.2203 36.7578 43.8846C36.6353 44.5481 36.2807 45.5684 35.9703 46.152C35.6606 46.7357 35.4034 47.5574 35.3996 47.9782C35.3958 48.399 35.1219 49.341 34.7909 50.0707C34.4599 50.8004 34.189 51.6275 34.189 51.9083C34.189 52.1898 33.9151 52.9568 33.5803 53.6134C32.251 56.2211 33.9896 56.7042 36.3195 54.3743C36.7426 53.9513 39.0458 52.2438 39.1934 52.2438C39.2863 52.2438 39.6028 52.0308 39.8958 51.7698C40.6042 51.139 46.1724 47.0902 47.8251 46.0044C48.08 45.837 48.5061 45.5205 48.7717 45.3006C49.0372 45.0807 51.3093 43.406 53.8202 41.579C56.3312 39.7529 58.5911 38.0758 58.8422 37.8529C59.0933 37.63 60.052 36.9391 60.9727 36.3182C61.8934 35.6965 63.4 34.6381 64.3207 33.9647C65.2414 33.2913 66.3371 32.5076 66.7556 32.2238C67.1741 31.9399 67.6534 31.5618 67.8208 31.3837C67.9882 31.2049 68.7415 30.6593 69.4948 30.1716C70.2481 29.6831 71.0699 29.1056 71.321 28.8872C71.5721 28.6681 72.3254 28.0837 72.9949 27.5876C73.6645 27.0907 74.3577 26.5649 74.5358 26.4181C74.7138 26.2712 75.1696 25.9851 75.5478 25.7827C75.9267 25.5796 76.4776 25.1847 76.7721 24.9046C77.0665 24.6239 77.6235 24.1894 78.0093 23.9383C78.3951 23.6872 79.0677 23.1941 79.5052 22.8418C79.942 22.4903 80.6161 22.036 81.0027 21.8321C81.4737 21.5848 81.6745 21.2424 81.6114 20.7981L81.517 20.1338L68.5817 20.0942C61.4673 20.0722 55.0986 20.1483 54.429 20.2631ZM109.695 20.2525C109.2 20.5789 109.981 22.1121 110.641 22.1121C110.832 22.1121 111.206 22.3115 111.471 22.5542C113.049 24.003 113.345 24.2427 113.551 24.2427C113.677 24.2434 114.152 24.5516 114.609 24.9275C115.064 25.3041 115.93 25.9547 116.531 26.3732C117.132 26.7917 118.296 27.6477 119.117 28.2754C119.938 28.9032 120.749 29.4168 120.92 29.4168C121.091 29.4168 121.402 29.6907 121.611 30.0255C121.82 30.3603 122.138 30.6342 122.317 30.6342C122.496 30.6342 122.909 30.8747 123.233 31.1691C123.765 31.6508 124.748 32.3683 126.046 33.2213C126.301 33.3887 126.747 33.7311 127.038 33.9822C127.329 34.2333 128.074 34.7811 128.693 35.1996C129.312 35.6181 130.057 36.166 130.348 36.4171C130.639 36.6682 131.084 37.0106 131.337 37.178C131.59 37.3454 132.386 37.8932 133.104 38.3954C133.823 38.8976 134.642 39.4462 134.923 39.6151C135.205 39.7833 135.657 40.1257 135.927 40.376C136.197 40.6256 136.919 41.1727 137.532 41.5912C138.145 42.0097 138.884 42.5575 139.174 42.8086C139.466 43.0597 139.915 43.4021 140.174 43.5695C141.802 44.6226 144.285 46.3339 144.672 46.6702C145.838 47.683 147.063 48.5915 147.26 48.5915C147.381 48.5915 148.114 49.1097 148.89 49.742C149.667 50.375 150.919 51.295 151.672 51.7865C152.425 52.2773 153.272 52.8898 153.552 53.1462C153.832 53.4034 154.555 53.9558 155.158 54.3743C155.76 54.7928 156.545 55.3749 156.901 55.6679C158.664 57.1189 159.577 55.7965 158.368 53.5404C158.033 52.9165 157.759 52.132 157.759 51.7979C157.759 51.4639 157.503 50.5029 157.19 49.6628C156.194 46.9913 155.593 45.1309 155.268 43.7217C155.095 42.9684 154.777 42.1467 154.563 41.8956C154.348 41.6445 154.072 40.8235 153.949 40.0709C153.825 39.3184 153.468 38.225 153.154 37.6406C152.842 37.0562 152.585 36.2299 152.585 35.8046C152.585 35.3792 152.391 34.7537 152.154 34.4151C151.916 34.0758 151.627 33.2578 151.511 32.5974C151.394 31.9361 151.127 31.1189 150.917 30.7818C150.707 30.4448 150.44 29.7402 150.325 29.2159C150.21 28.6917 149.85 28.0213 149.524 27.7268C149.199 27.4331 148.933 27.0413 148.933 26.8571C148.933 26.5626 147.95 25.6085 145.066 23.1013C144.633 22.7247 144.149 22.4165 143.991 22.4165C143.833 22.4165 143.355 22.1426 142.929 21.8078C142.503 21.473 141.861 21.1991 141.503 21.1991C141.144 21.1991 140.512 20.9594 140.098 20.6664C139.238 20.0577 110.58 19.6681 109.695 20.2525ZM90.9522 21.9379C90.1152 22.3488 89.2592 22.6935 89.0499 22.7034C88.8407 22.7132 88.6695 22.835 88.6695 22.9742C88.6695 23.1135 87.9505 23.6849 87.0716 24.2449C86.1928 24.8042 85.2683 25.4464 85.0172 25.6716C84.3986 26.2256 79.6833 29.658 78.004 30.7765C77.2575 31.2734 76.4418 31.8638 76.1907 32.0883C75.9396 32.3128 74.7755 33.1703 73.6037 33.9944C72.4319 34.8184 71.1665 35.7345 70.7914 36.0305C69.65 36.9322 68.9515 37.4481 67.798 38.2432C67.1908 38.6617 66.4672 39.2096 66.1902 39.4607C65.9125 39.7118 64.9332 40.4331 64.014 41.0639C63.0949 41.6947 61.589 42.7615 60.6684 43.4349C59.7477 44.1083 58.652 44.8844 58.2335 45.1583C57.815 45.433 57.3356 45.8043 57.1682 45.9831C57.0008 46.1619 56.2506 46.7197 55.5003 47.2219C54.7501 47.7241 53.9283 48.3001 53.6742 48.5025C52.5229 49.4178 50.9395 50.6094 50.3201 51.0264C49.474 51.597 47.5755 53.023 46.9836 53.5335C46.7385 53.7451 46.3117 54.0548 46.0347 54.2222C45.0082 54.8423 43.7391 55.7462 42.4067 56.8047C41.6534 57.4035 40.4253 58.2998 39.6774 58.7967C38.9302 59.2943 38.1084 59.8855 37.8512 60.1115C37.5948 60.3375 36.4641 61.1776 35.3395 61.978C32.8004 63.7859 30.6173 66.096 30.3655 67.2427C30.2605 67.7205 29.9911 68.1824 29.7659 68.2684C29.5407 68.3551 29.2721 68.8596 29.1686 69.3892C29.0643 69.9195 28.7683 71.2389 28.5104 72.3209C28.0485 74.2544 28.1383 76.9449 28.6884 77.6503C28.8224 77.8223 29.0225 78.5542 29.1328 79.2771C29.2431 80.0007 29.5201 80.891 29.7484 81.2554C29.9774 81.6207 30.2582 82.4523 30.3723 83.1044C30.4872 83.7573 30.7695 84.5791 31.0001 84.9306C31.2306 85.2829 31.5129 86.1876 31.6278 86.9409C31.7435 87.6942 31.974 88.484 32.1407 88.6955C32.3081 88.9071 32.6238 89.7973 32.8422 90.6739C33.0606 91.5504 33.4768 92.952 33.7667 93.789C34.2879 95.2918 34.8388 96.9072 35.8417 99.8762C36.1247 100.713 36.544 102.083 36.773 102.92C37.3026 104.855 38.0977 107.224 38.6098 108.398C38.829 108.9 39.1037 109.827 39.2201 110.456C39.3365 111.086 39.6903 112.108 40.0061 112.727C40.3219 113.346 40.5806 114.151 40.5806 114.517C40.5806 114.881 40.8514 115.777 41.1824 116.506C41.5134 117.236 41.7881 118.107 41.7934 118.442C41.798 118.777 41.9936 119.418 42.2279 119.867C42.4623 120.316 42.7453 121.138 42.8572 121.694C42.969 122.249 43.3069 123.388 43.6074 124.225C44.6339 127.084 45.1871 128.79 45.4815 130.008C45.6436 130.677 45.9624 131.636 46.1899 132.138C46.4174 132.641 46.6997 133.531 46.8177 134.117C46.9356 134.703 47.2209 135.48 47.4515 135.846C47.6821 136.21 47.9613 137.074 48.0724 137.765C48.1827 138.456 48.5282 139.522 48.8401 140.133C49.1521 140.745 49.407 141.618 49.407 142.073C49.407 142.528 49.6026 143.095 49.8407 143.334C50.0797 143.572 50.4822 144.263 50.7348 144.869C51.2766 146.166 54.8117 149.786 55.8435 150.101C56.2369 150.221 56.7649 150.492 57.016 150.702C57.2671 150.912 57.9519 151.17 58.5378 151.276C59.1237 151.382 59.9957 151.673 60.4751 151.923C61.7648 152.597 131.923 152.614 132.481 151.942C132.681 151.701 133.244 151.417 133.732 151.309C134.221 151.202 134.7 150.986 134.798 150.829C134.894 150.672 135.483 150.284 136.106 149.966C137.875 149.064 141.32 145.173 141.326 144.071C141.327 143.869 141.6 143.293 141.933 142.791C142.265 142.289 142.538 141.53 142.539 141.106C142.541 140.68 142.815 139.795 143.15 139.139C143.485 138.482 143.759 137.691 143.759 137.381C143.759 137.071 144.026 136.175 144.353 135.391C144.679 134.606 145.104 133.348 145.296 132.595C145.488 131.842 145.75 131.088 145.879 130.921C146.008 130.754 146.29 129.863 146.505 128.943C146.72 128.022 146.998 127.063 147.123 126.812C147.484 126.082 150.07 117.94 150.312 116.768C150.433 116.182 150.72 115.433 150.95 115.103C151.18 114.772 151.368 114.151 151.368 113.722C151.368 113.292 151.642 112.403 151.976 111.746C152.311 111.09 152.588 110.273 152.592 109.932C152.596 109.591 152.864 108.728 153.188 108.013C153.511 107.3 153.867 106.204 153.976 105.578C154.086 104.954 154.347 104.165 154.557 103.828C154.768 103.491 155.086 102.601 155.265 101.85C155.654 100.216 156.365 97.9998 157.17 95.9134C157.495 95.0734 157.759 94.1124 157.759 93.7784C157.759 93.4443 158.013 92.6941 158.322 92.1105C158.631 91.5268 158.981 90.4334 159.098 89.6801C159.216 88.9268 159.49 88.0366 159.707 87.7018C159.925 87.367 160.202 86.5452 160.323 85.8756C160.445 85.206 160.721 84.3812 160.939 84.0426C161.157 83.704 161.434 82.8138 161.555 82.0643C161.676 81.3148 161.963 80.4032 162.195 80.038C162.426 79.6735 162.708 78.7833 162.822 78.0597C162.936 77.3368 163.232 76.4313 163.48 76.0486C164.108 75.08 164.068 71.3812 163.419 70.4545C163.152 70.0732 162.931 69.4835 162.928 69.1442C162.923 68.5682 161.848 66.7527 160.803 65.552C159.588 64.1572 158.651 63.2008 158.5 63.2008C158.33 63.2008 156.138 61.5397 155.386 60.842C155.161 60.6328 154.796 60.4616 154.574 60.4616C154.353 60.4616 154.099 60.2706 154.01 60.037C153.92 59.8041 153.015 59.0995 151.999 58.4718C150.982 57.8448 150.15 57.214 150.15 57.0702C150.15 56.9264 149.998 56.8092 149.812 56.8092C149.626 56.8092 148.839 56.291 148.062 55.6587C147.286 55.0257 146.038 54.1012 145.29 53.6043C144.543 53.1067 143.721 52.5238 143.464 52.3085C142.035 51.1101 141.047 50.4176 140.765 50.4176C140.589 50.4176 140.264 50.178 140.043 49.885C139.822 49.5921 139.419 49.2154 139.148 49.048C138.136 48.4226 135.072 46.2943 134.63 45.9093C134.075 45.4254 132.215 44.0451 131.272 43.4174C130.895 43.1663 130.229 42.6831 129.792 42.3437C129.355 42.0044 128.385 41.3196 127.638 40.8219C126.89 40.3243 126.069 39.7376 125.811 39.5177C125.229 39.0186 123.356 37.6322 122.446 37.0258C122.068 36.7747 121.403 36.2915 120.965 35.9522C120.528 35.6128 119.554 34.928 118.801 34.4304C118.048 33.9327 117.295 33.3818 117.127 33.2053C116.96 33.0295 116.207 32.4855 115.453 31.9978C114.7 31.5093 113.878 30.9264 113.627 30.7019C113.376 30.4775 112.212 29.6253 111.04 28.8081C109.868 27.9909 108.693 27.109 108.427 26.848C108.162 26.587 107.846 26.3732 107.725 26.3732C107.535 26.3732 105.24 24.6954 104.801 24.2358C104.503 23.9246 102.802 22.8624 101.453 22.1456C99.294 20.9982 93.1116 20.8757 90.9522 21.9379ZM96.5707 48.2833C101.88 49.1196 105.395 53.1622 106.364 59.5485C106.813 62.5076 106.437 68.1634 105.7 69.5391C105.373 70.1493 105.105 70.9003 105.105 71.2078C105.105 73.8397 100.677 77.6648 96.5517 78.5953C92.2085 79.5754 91.1683 79.5472 89.9569 78.4188L89.2782 77.7865V63.4085C89.2782 45.506 88.5478 47.0202 96.5707 48.2833ZM86.9735 48.7657C87.3958 49.1873 87.4521 50.9876 87.4521 63.9617C87.4521 80.3789 87.5518 79.6362 85.3482 79.6362C84.7174 79.6362 83.5585 79.8295 82.7733 80.0662L81.3458 80.4953L80.4343 79.5335C79.9328 79.0039 79.3728 77.9889 79.1902 77.2775C79.0076 76.566 78.742 75.9839 78.6013 75.9839C78.4605 75.9839 78.1896 75.4018 78.0002 74.6904C77.8107 73.979 77.4782 73.1914 77.2613 72.9403C77.0445 72.6892 76.7728 72.0387 76.6572 71.4946C76.015 68.4754 75.4953 71.2983 75.7479 76.4298C76.002 81.5781 75.0737 82.8511 70.7122 83.3373C69.144 83.5123 69.1904 83.9719 69.1904 68.2265C69.1904 52.1236 69.1182 52.7734 70.9618 52.3709C71.4108 52.2735 72.4189 51.9311 73.2034 51.61C75.4808 50.6779 76.7546 51.5407 77.291 54.3797C77.4013 54.9625 77.6669 55.645 77.8807 55.8961C78.0945 56.1472 78.3654 56.9005 78.4818 57.5701C78.5982 58.2397 78.8805 59.0858 79.1095 59.4511C79.3378 59.8155 79.6163 60.686 79.7282 61.3853C79.8423 62.0998 80.2623 63.0075 80.6892 63.461L81.447 64.2661L81.285 57.3533C81.0856 48.8959 81.1062 48.8494 85.1694 48.4956C85.839 48.437 86.4111 48.3663 86.4408 48.3381C86.4713 48.31 86.711 48.5025 86.9735 48.7657ZM112.014 50.2982C112.985 50.5676 114.601 50.9115 115.605 51.0637C119.216 51.6107 120.02 52.2324 120.015 54.4725C120.007 57.3304 119.868 57.529 118.071 57.2551C117.217 57.1242 115.765 57.0048 114.845 56.9896L113.171 56.9614L113.078 58.7602C112.92 61.8213 113.592 62.5921 116.418 62.5921C117.914 62.5921 118.801 63.7737 118.801 65.7673C118.801 67.9138 118.15 68.4411 115.624 68.3392C113.436 68.2509 113.206 68.5088 113.072 71.2001C112.926 74.1288 113.517 74.7619 116.665 75.0511C119.348 75.2968 120.039 75.8797 120.25 78.0726C120.531 80.9906 119.545 82.275 117.635 81.4837C117.145 81.2805 115.461 80.9305 113.893 80.7053C110.913 80.2777 107.907 79.5168 107.471 79.0808C107.048 78.657 107.131 50.7578 107.558 50.2434C108.034 49.6705 109.83 49.6925 112.014 50.2982ZM123.949 52.9728C124.143 53.2064 124.795 53.4902 125.397 53.6028C126 53.7162 126.985 54.073 127.588 54.3956C128.191 54.719 128.857 54.9831 129.07 54.9831C129.283 54.9831 129.967 55.257 130.592 55.5918C131.216 55.9266 131.913 56.2005 132.141 56.2005C132.653 56.2005 134.058 57.233 135.453 58.6354C138.932 62.1325 138.91 67.8826 135.404 71.4931C134.2 72.7334 134.041 73.689 134.856 74.8053C135.689 75.9466 136.117 76.6497 136.775 77.9623C137.111 78.6319 137.519 79.3852 137.681 79.6362C137.843 79.8873 138.113 80.4352 138.279 80.8537C138.447 81.2722 138.709 81.82 138.863 82.0711C140.433 84.6278 141.159 87.2011 140.335 87.2833C136.199 87.6934 134.679 86.7256 132.627 82.3755C132.351 81.7896 132.007 81.2357 131.863 81.1451C131.566 80.9579 130.152 78.5383 129.875 77.7439C129.774 77.457 129.442 77.142 129.136 77.0446C128.83 76.948 128.519 76.6353 128.443 76.3499C128.368 76.0653 128.291 77.4319 128.271 79.3882C128.217 84.8553 128.127 84.9679 124.817 83.6751C122.131 82.6258 122.15 82.6791 122.147 76.1924C122.145 73.3154 122.016 69.7978 121.858 68.3749C121.245 62.8211 121.319 53.4635 121.979 52.9804C122.729 52.4318 123.497 52.4287 123.949 52.9728ZM67.311 67.8682L67.2022 80.7015L66.2138 82.3755C61.8127 89.8293 53.248 90.4448 50.8573 83.4796C49.6863 80.0677 49.7197 62.8964 50.8976 62.8964C51.008 62.8964 51.5284 62.5198 52.0542 62.0594C54.4685 59.9479 54.6519 59.8346 55.3017 60.037C56.3723 60.371 56.3982 60.5924 56.4027 69.5711C56.4081 80.1118 56.612 80.9678 58.9753 80.3743C60.9096 79.8896 61.2588 78.0391 61.4818 67.1141C61.7077 56.0521 61.5198 56.8062 64.4219 55.3011C67.6146 53.6454 67.4381 52.8769 67.311 67.8682ZM95.8981 55.3118C95.0063 55.8315 95.0885 72.1885 95.984 72.4221C96.6902 72.607 98.9691 71.0244 99.4842 69.9911C99.6592 69.6403 99.9537 69.167 100.139 68.9403C102.091 66.5472 100.814 58.9397 97.9921 56.148C96.7031 54.8735 96.6719 54.8613 95.8981 55.3118ZM128.135 60.9691C127.88 61.224 127.875 66.0085 128.128 67.5379C128.47 69.6129 131.753 68.2554 132.374 65.7818C132.866 63.8194 129.316 59.7874 128.135 60.9691ZM166.189 82.2644C166.073 82.3816 165.977 82.7658 165.977 83.1197C165.977 83.4727 165.776 84.0487 165.53 84.3995C165.285 84.7503 164.99 85.6367 164.875 86.3695C164.761 87.1022 164.414 88.1789 164.104 88.7625C163.796 89.3461 163.542 90.1694 163.542 90.5932C163.542 91.017 163.268 91.8746 162.933 92.4985C162.599 93.1232 162.325 93.996 162.325 94.4365C162.325 94.8779 162.068 95.6661 161.753 96.1881C161.438 96.7101 161.086 97.6848 160.97 98.3544C160.853 99.024 160.58 99.8488 160.362 100.187C160.145 100.526 159.863 101.416 159.737 102.164C159.611 102.913 159.251 104.003 158.937 104.588C158.624 105.172 158.368 105.945 158.368 106.306C158.368 106.667 158.097 107.559 157.766 108.289C157.435 109.018 157.16 109.89 157.155 110.224C157.151 110.559 156.924 111.244 156.651 111.746C156.378 112.248 156.042 113.327 155.904 114.144C155.766 114.96 155.442 115.861 155.184 116.146C154.926 116.431 154.716 117.07 154.716 117.565C154.716 118.06 154.442 119.003 154.107 119.66C153.772 120.316 153.492 121.064 153.485 121.322C153.478 121.579 153.263 122.338 153.008 123.008C152.753 123.677 152.336 124.978 152.081 125.899C151.825 126.82 151.496 127.719 151.349 127.898C151.201 128.077 150.924 128.967 150.732 129.876C150.541 130.786 150.275 131.667 150.143 131.834C150.01 132.001 149.693 132.892 149.437 133.812C149.182 134.733 148.765 136.034 148.51 136.704C147.65 138.964 148.081 140.33 149.326 139.287C149.529 139.118 150.242 138.573 150.911 138.076C151.581 137.58 152.334 136.996 152.585 136.777C152.836 136.558 153.658 135.978 154.411 135.486C155.165 134.994 156.397 134.104 157.151 133.508C157.904 132.912 159.137 132.017 159.89 131.521C160.643 131.023 161.396 130.473 161.564 130.296C161.731 130.12 162.485 129.576 163.238 129.088C163.991 128.6 165.225 127.717 165.979 127.126C166.733 126.535 167.568 125.914 167.835 125.747C170.438 124.116 171.598 123.122 173.56 120.84C176.051 117.943 176.846 109.165 174.95 105.507C174.733 105.088 174.454 104.198 174.33 103.529C174.207 102.859 173.852 101.834 173.541 101.25C173.231 100.667 172.977 99.845 172.975 99.4242C172.974 99.0035 172.701 98.2479 172.369 97.7457C172.036 97.2435 171.762 96.4217 171.76 95.9195C171.758 95.4173 171.536 94.5956 171.267 94.0934C170.998 93.5912 170.598 92.4955 170.377 91.6585C169.854 89.6702 169.086 87.348 168.531 86.0719C168.287 85.5112 168.005 84.4497 167.904 83.7132C167.803 82.9774 167.613 82.3755 167.482 82.3755C167.351 82.3755 167.054 82.3024 166.823 82.2142C166.591 82.1252 166.307 82.148 166.189 82.2644ZM23.646 85.0386C23.2891 85.8338 22.9079 86.9964 22.7976 87.6211C22.6872 88.2466 22.3319 89.3423 22.0085 90.056C21.6844 90.7705 21.4165 91.663 21.4127 92.0397C21.4089 92.4171 21.1319 93.2374 20.7971 93.8621C20.4623 94.486 20.1884 95.3078 20.1884 95.6882C20.1884 96.0679 19.9145 96.8897 19.5797 97.5144C19.2449 98.1383 18.971 98.9958 18.971 99.4197C18.971 99.8435 18.6971 100.701 18.3623 101.325C18.0275 101.95 17.7535 102.74 17.7535 103.08C17.7535 103.421 17.5336 104.21 17.2658 104.832C15.7896 108.254 15.5492 114.89 16.8382 116.616C16.963 116.783 17.2369 117.451 17.4461 118.101C18.185 120.393 20.7583 123.507 23.3888 125.29C24.0059 125.709 24.7485 126.257 25.0392 126.508C25.3306 126.759 25.7765 127.101 26.0314 127.269C27.4702 128.214 28.4564 128.933 30.2323 130.33C31.3204 131.186 32.5531 132.066 32.9716 132.285C33.39 132.504 33.842 132.87 33.9759 133.096C34.1099 133.322 34.3648 133.508 34.5421 133.508C34.7201 133.508 35.5008 134.026 36.2769 134.659C37.0538 135.292 38.3009 136.216 39.0489 136.713C39.7961 137.211 40.6521 137.857 40.9511 138.15C41.4693 138.659 42.4341 138.858 42.7666 138.525C42.9728 138.318 42.2226 135.445 41.6435 134.223C41.394 133.695 41.1893 132.971 41.1893 132.613C41.1893 132.255 40.9283 131.451 40.6095 130.826C40.2907 130.2 39.933 129.046 39.8159 128.261C39.6979 127.475 39.4171 126.679 39.1927 126.493C38.9682 126.306 38.6935 125.546 38.5817 124.804C38.4706 124.061 38.1213 122.948 37.8063 122.33C37.4905 121.711 37.2326 120.891 37.2326 120.507C37.2326 120.124 36.9587 119.298 36.6239 118.674C36.2891 118.05 36.0152 117.222 36.0152 116.837C36.0152 116.451 35.7412 115.598 35.4064 114.942C35.0716 114.286 34.7947 113.435 34.7909 113.052C34.7871 112.668 34.5192 111.771 34.1951 111.057C33.8717 110.343 33.511 109.247 33.3954 108.622C33.279 107.997 33.0096 107.211 32.7958 106.877C32.5827 106.542 32.3081 105.721 32.1855 105.053C32.063 104.385 31.7138 103.29 31.4087 102.618C31.1035 101.947 30.8517 101.119 30.8479 100.778C30.8441 100.436 30.5671 99.6198 30.2323 98.9631C29.8975 98.3065 29.6236 97.4505 29.6236 97.0601C29.6236 96.6705 29.3497 95.8145 29.0149 95.1586C28.6801 94.5027 28.4061 93.7007 28.4061 93.3781C28.4061 93.0547 28.1353 92.1934 27.8043 91.4637C27.4733 90.734 27.1948 89.8628 27.1849 89.528C27.1758 89.1932 26.9034 88.3714 26.58 87.7018C26.2566 87.0322 25.9872 86.2652 25.9819 85.9974C25.9287 83.5054 24.5811 82.9522 23.646 85.0386ZM88.6611 87.4233C90.7765 88.5502 93.1649 90.9288 94.3123 93.0509C95.6363 95.4995 95.6706 102.275 94.3725 104.928C93.9144 105.865 93.5393 106.793 93.5393 106.991C93.5393 107.19 93.3338 107.431 93.0827 107.527C92.8316 107.624 92.6262 107.845 92.6262 108.019C92.6262 109.259 87.1903 115.324 82.4301 119.396C79.9146 121.547 77.7148 123.436 76.3924 124.58C74.6073 126.123 75.3476 126.317 79.2617 125.331C80.502 125.019 82.4324 124.674 83.5517 124.564C84.6702 124.454 86.1114 124.179 86.7543 123.952C87.3973 123.725 89.0842 123.438 90.5033 123.315C91.9216 123.192 93.3049 122.973 93.5773 122.83C94.7674 122.205 95.0611 123.338 95.0611 128.549C95.0611 134.419 95.4126 133.992 90.3435 134.273C88.1673 134.394 86.1433 134.621 85.8458 134.776C85.5483 134.932 83.2884 135.191 80.8239 135.352C78.3593 135.512 75.5211 135.839 74.5168 136.078C73.5124 136.317 71.3529 136.606 69.7185 136.721C68.0841 136.835 66.6719 137.049 66.5805 137.197C66.2138 137.79 64.7209 137.446 63.887 136.575C62.6825 135.318 63.2752 128.56 64.778 126.414C65.0283 126.057 65.2338 125.541 65.2338 125.27C65.2338 124.998 65.5077 124.528 65.8425 124.225C66.1773 123.922 66.4512 123.498 66.4512 123.282C66.4512 122.865 70.0777 119.188 76.247 113.352C78.322 111.389 80.4244 109.218 80.9205 108.527C81.4158 107.835 82.0611 107.048 82.354 106.778C82.647 106.507 82.8867 106.128 82.8867 105.937C82.8867 105.746 83.1454 105.26 83.4611 104.859C83.7777 104.457 84.1772 103.65 84.3499 103.067C84.5226 102.484 84.8254 101.596 85.0225 101.094C85.8998 98.8627 82.3502 95.7141 80.0249 96.6622C79.5067 96.8737 78.7398 97.1225 78.3213 97.2146C77.1693 97.4702 75.7228 98.6382 72.5019 101.918C68.568 105.922 69.0702 105.972 63.8177 101.075C62.2541 99.6167 62.2822 99.1678 64.0871 96.8144C67.3369 92.5761 71.8148 88.7328 74.5168 87.8623C75.1863 87.647 75.9176 87.3244 76.1413 87.1463C77.6243 85.9654 86.2826 86.1572 88.6611 87.4233ZM103.127 87.0961C104.131 87.3373 106.185 87.6211 107.692 87.7262C109.199 87.8312 111.481 88.1774 112.765 88.4947C114.048 88.812 115.489 89.0714 115.967 89.0714C116.444 89.0714 117.791 89.3271 118.959 89.639C120.128 89.9518 122.288 90.3855 123.761 90.6031C125.233 90.8215 126.508 91.1137 126.594 91.2529C126.68 91.3922 127.144 91.5063 127.624 91.5063C129.241 91.5063 129.454 92.0595 129.454 96.2657C129.454 100.661 129.258 101.246 127.784 101.246C126.587 101.246 123.804 100.725 122.91 100.335C122.575 100.188 121.482 99.9774 120.48 99.8656C119.479 99.7537 118.178 99.4843 117.589 99.2667C117 99.0483 115.36 98.7196 113.945 98.5347C112.53 98.3506 111.236 98.063 111.069 97.8963C110.555 97.3827 107.936 97.5228 107.725 98.0752C107.155 99.5589 107.536 105.214 108.225 105.506C109.212 105.925 113.79 106.724 115.2 106.724C116.563 106.724 119.113 107.284 119.547 107.678C119.706 107.823 120.115 107.942 120.455 107.942C122.903 107.942 128.44 112.933 129.299 115.912C129.411 116.299 129.731 117.095 130.009 117.681C130.852 119.449 130.736 125.971 129.834 127.568C129.458 128.236 129.149 128.927 129.149 129.105C129.149 129.863 125.685 133.518 124.306 134.216C123.873 134.435 123.245 134.76 122.91 134.941C120.158 136.418 112.575 137.119 109.214 136.206C108.544 136.024 106.695 135.747 105.105 135.588C97.7897 134.862 98.1047 135.161 98.1047 128.937C98.1047 122.961 98.0613 123.039 101.224 123.319C102.576 123.438 104.159 123.736 104.744 123.98C105.329 124.224 106.71 124.54 107.815 124.682C108.919 124.824 110.644 125.153 111.649 125.415C114.783 126.229 117.059 126.074 118.33 124.958C121.026 122.591 120.143 117.68 116.77 116.27C116.213 116.037 115.758 115.712 115.758 115.547C115.758 115.382 115.244 115.243 114.616 115.24C113.988 115.235 112.462 114.963 111.224 114.634C109.987 114.304 107.659 113.955 106.05 113.857C98.1207 113.375 98.702 114.534 98.9599 99.6944C99.2118 85.2418 98.931 86.0894 103.127 87.0961ZM67.1208 157.918C66.5669 158.472 66.6498 158.617 68.0491 159.55C68.7605 160.024 69.4796 160.56 69.647 160.74C69.8144 160.92 70.7046 161.579 71.6253 162.204C74.3182 164.032 74.7998 164.376 75.2016 164.757C75.4108 164.955 76.2668 165.562 77.1038 166.104C77.9408 166.647 78.6256 167.204 78.6256 167.343C78.6256 167.482 78.758 167.596 78.9193 167.596C79.0806 167.596 81.1008 169.006 83.4086 170.728C89.4433 175.233 89.7789 175.358 95.7984 175.356C101.182 175.355 102.337 175.071 105.186 173.054C105.895 172.553 106.817 171.91 107.235 171.627C107.654 171.343 108.106 170.937 108.24 170.724C108.374 170.51 108.628 170.336 108.804 170.336C108.981 170.336 109.511 170.027 109.983 169.651C112.237 167.85 112.583 167.604 112.869 167.6C113.038 167.598 113.347 167.322 113.556 166.988C113.766 166.653 114.087 166.379 114.271 166.379C114.454 166.379 114.981 166.071 115.443 165.694C115.904 165.317 116.592 164.804 116.972 164.553C117.351 164.302 117.952 163.851 118.307 163.551C118.663 163.252 119.364 162.74 119.866 162.415C121.649 161.258 121.949 161.047 122.457 160.596C122.952 160.155 124.318 159.139 124.983 158.717C125.203 158.577 125.179 158.359 124.907 158.032C124.383 157.4 67.7508 157.288 67.1208 157.918Z"/>
</mask>
<path fill-rule="evenodd" clip-rule="evenodd" d="M151.368 16.3255C150.791 16.693 151.301 17.6449 152.161 17.8077C153.358 18.0337 153.498 18.4385 153.498 21.6708C153.498 24.1171 153.603 24.913 153.977 25.2859C155.145 26.4546 155.696 25.1261 155.588 21.3977C155.506 18.5359 155.814 17.8511 157.188 17.8511C157.752 17.8511 158.231 16.8467 157.913 16.3323C157.671 15.9405 151.98 15.9344 151.368 16.3255ZM159.789 16.2281C159.531 16.4845 159.528 23.0929 159.783 24.6391C160.139 26.7909 161.541 26.1472 161.642 23.7861C161.79 20.3537 162.516 19.5175 163.437 21.721C164.178 23.4939 165.673 24.0593 165.673 22.5664C165.673 22.17 166.841 21.2774 167.553 21.1306C167.848 21.0689 167.996 21.6564 168.108 23.3296C168.243 25.3589 168.327 25.6123 168.868 25.6123C169.447 25.6123 169.481 25.3817 169.561 20.9784L169.645 16.3445L168.817 16.1368C167.887 15.9032 166.733 17.0681 166.103 18.8791C165.92 19.4018 165.543 19.8736 165.264 19.9284C164.756 20.0273 162.933 18.453 162.933 17.9158C162.933 16.7501 160.547 15.4695 159.789 16.2281ZM54.429 20.2631C53.7594 20.378 52.9376 20.617 52.6028 20.795C52.268 20.9731 51.4942 21.2089 50.8832 21.3193C50.2722 21.4296 49.6163 21.7081 49.4253 21.9379C49.2343 22.1684 48.7298 22.4439 48.3052 22.5504C46.5361 22.9948 41.801 27.739 41.7957 29.0729C41.795 29.346 41.5218 29.9799 41.1893 30.482C40.8568 30.9842 40.5836 31.7429 40.5829 32.1674C40.5813 32.5928 40.3066 33.4777 39.9718 34.1344C39.6371 34.791 39.3631 35.6098 39.3631 35.9537C39.3631 36.2969 39.109 37.0555 38.7993 37.6391C38.4888 38.2227 38.1343 39.2431 38.0118 39.9066C37.8893 40.5708 37.607 41.4657 37.3848 41.8956C37.1626 42.3255 36.8803 43.2203 36.7578 43.8846C36.6353 44.5481 36.2807 45.5684 35.9703 46.152C35.6606 46.7357 35.4034 47.5574 35.3996 47.9782C35.3958 48.399 35.1219 49.341 34.7909 50.0707C34.4599 50.8004 34.189 51.6275 34.189 51.9083C34.189 52.1898 33.9151 52.9568 33.5803 53.6134C32.251 56.2211 33.9896 56.7042 36.3195 54.3743C36.7426 53.9513 39.0458 52.2438 39.1934 52.2438C39.2863 52.2438 39.6028 52.0308 39.8958 51.7698C40.6042 51.139 46.1724 47.0902 47.8251 46.0044C48.08 45.837 48.5061 45.5205 48.7717 45.3006C49.0372 45.0807 51.3093 43.406 53.8202 41.579C56.3312 39.7529 58.5911 38.0758 58.8422 37.8529C59.0933 37.63 60.052 36.9391 60.9727 36.3182C61.8934 35.6965 63.4 34.6381 64.3207 33.9647C65.2414 33.2913 66.3371 32.5076 66.7556 32.2238C67.1741 31.9399 67.6534 31.5618 67.8208 31.3837C67.9882 31.2049 68.7415 30.6593 69.4948 30.1716C70.2481 29.6831 71.0699 29.1056 71.321 28.8872C71.5721 28.6681 72.3254 28.0837 72.9949 27.5876C73.6645 27.0907 74.3577 26.5649 74.5358 26.4181C74.7138 26.2712 75.1696 25.9851 75.5478 25.7827C75.9267 25.5796 76.4776 25.1847 76.7721 24.9046C77.0665 24.6239 77.6235 24.1894 78.0093 23.9383C78.3951 23.6872 79.0677 23.1941 79.5052 22.8418C79.942 22.4903 80.6161 22.036 81.0027 21.8321C81.4737 21.5848 81.6745 21.2424 81.6114 20.7981L81.517 20.1338L68.5817 20.0942C61.4673 20.0722 55.0986 20.1483 54.429 20.2631ZM109.695 20.2525C109.2 20.5789 109.981 22.1121 110.641 22.1121C110.832 22.1121 111.206 22.3115 111.471 22.5542C113.049 24.003 113.345 24.2427 113.551 24.2427C113.677 24.2434 114.152 24.5516 114.609 24.9275C115.064 25.3041 115.93 25.9547 116.531 26.3732C117.132 26.7917 118.296 27.6477 119.117 28.2754C119.938 28.9032 120.749 29.4168 120.92 29.4168C121.091 29.4168 121.402 29.6907 121.611 30.0255C121.82 30.3603 122.138 30.6342 122.317 30.6342C122.496 30.6342 122.909 30.8747 123.233 31.1691C123.765 31.6508 124.748 32.3683 126.046 33.2213C126.301 33.3887 126.747 33.7311 127.038 33.9822C127.329 34.2333 128.074 34.7811 128.693 35.1996C129.312 35.6181 130.057 36.166 130.348 36.4171C130.639 36.6682 131.084 37.0106 131.337 37.178C131.59 37.3454 132.386 37.8932 133.104 38.3954C133.823 38.8976 134.642 39.4462 134.923 39.6151C135.205 39.7833 135.657 40.1257 135.927 40.376C136.197 40.6256 136.919 41.1727 137.532 41.5912C138.145 42.0097 138.884 42.5575 139.174 42.8086C139.466 43.0597 139.915 43.4021 140.174 43.5695C141.802 44.6226 144.285 46.3339 144.672 46.6702C145.838 47.683 147.063 48.5915 147.26 48.5915C147.381 48.5915 148.114 49.1097 148.89 49.742C149.667 50.375 150.919 51.295 151.672 51.7865C152.425 52.2773 153.272 52.8898 153.552 53.1462C153.832 53.4034 154.555 53.9558 155.158 54.3743C155.76 54.7928 156.545 55.3749 156.901 55.6679C158.664 57.1189 159.577 55.7965 158.368 53.5404C158.033 52.9165 157.759 52.132 157.759 51.7979C157.759 51.4639 157.503 50.5029 157.19 49.6628C156.194 46.9913 155.593 45.1309 155.268 43.7217C155.095 42.9684 154.777 42.1467 154.563 41.8956C154.348 41.6445 154.072 40.8235 153.949 40.0709C153.825 39.3184 153.468 38.225 153.154 37.6406C152.842 37.0562 152.585 36.2299 152.585 35.8046C152.585 35.3792 152.391 34.7537 152.154 34.4151C151.916 34.0758 151.627 33.2578 151.511 32.5974C151.394 31.9361 151.127 31.1189 150.917 30.7818C150.707 30.4448 150.44 29.7402 150.325 29.2159C150.21 28.6917 149.85 28.0213 149.524 27.7268C149.199 27.4331 148.933 27.0413 148.933 26.8571C148.933 26.5626 147.95 25.6085 145.066 23.1013C144.633 22.7247 144.149 22.4165 143.991 22.4165C143.833 22.4165 143.355 22.1426 142.929 21.8078C142.503 21.473 141.861 21.1991 141.503 21.1991C141.144 21.1991 140.512 20.9594 140.098 20.6664C139.238 20.0577 110.58 19.6681 109.695 20.2525ZM90.9522 21.9379C90.1152 22.3488 89.2592 22.6935 89.0499 22.7034C88.8407 22.7132 88.6695 22.835 88.6695 22.9742C88.6695 23.1135 87.9505 23.6849 87.0716 24.2449C86.1928 24.8042 85.2683 25.4464 85.0172 25.6716C84.3986 26.2256 79.6833 29.658 78.004 30.7765C77.2575 31.2734 76.4418 31.8638 76.1907 32.0883C75.9396 32.3128 74.7755 33.1703 73.6037 33.9944C72.4319 34.8184 71.1665 35.7345 70.7914 36.0305C69.65 36.9322 68.9515 37.4481 67.798 38.2432C67.1908 38.6617 66.4672 39.2096 66.1902 39.4607C65.9125 39.7118 64.9332 40.4331 64.014 41.0639C63.0949 41.6947 61.589 42.7615 60.6684 43.4349C59.7477 44.1083 58.652 44.8844 58.2335 45.1583C57.815 45.433 57.3356 45.8043 57.1682 45.9831C57.0008 46.1619 56.2506 46.7197 55.5003 47.2219C54.7501 47.7241 53.9283 48.3001 53.6742 48.5025C52.5229 49.4178 50.9395 50.6094 50.3201 51.0264C49.474 51.597 47.5755 53.023 46.9836 53.5335C46.7385 53.7451 46.3117 54.0548 46.0347 54.2222C45.0082 54.8423 43.7391 55.7462 42.4067 56.8047C41.6534 57.4035 40.4253 58.2998 39.6774 58.7967C38.9302 59.2943 38.1084 59.8855 37.8512 60.1115C37.5948 60.3375 36.4641 61.1776 35.3395 61.978C32.8004 63.7859 30.6173 66.096 30.3655 67.2427C30.2605 67.7205 29.9911 68.1824 29.7659 68.2684C29.5407 68.3551 29.2721 68.8596 29.1686 69.3892C29.0643 69.9195 28.7683 71.2389 28.5104 72.3209C28.0485 74.2544 28.1383 76.9449 28.6884 77.6503C28.8224 77.8223 29.0225 78.5542 29.1328 79.2771C29.2431 80.0007 29.5201 80.891 29.7484 81.2554C29.9774 81.6207 30.2582 82.4523 30.3723 83.1044C30.4872 83.7573 30.7695 84.5791 31.0001 84.9306C31.2306 85.2829 31.5129 86.1876 31.6278 86.9409C31.7435 87.6942 31.974 88.484 32.1407 88.6955C32.3081 88.9071 32.6238 89.7973 32.8422 90.6739C33.0606 91.5504 33.4768 92.952 33.7667 93.789C34.2879 95.2918 34.8388 96.9072 35.8417 99.8762C36.1247 100.713 36.544 102.083 36.773 102.92C37.3026 104.855 38.0977 107.224 38.6098 108.398C38.829 108.9 39.1037 109.827 39.2201 110.456C39.3365 111.086 39.6903 112.108 40.0061 112.727C40.3219 113.346 40.5806 114.151 40.5806 114.517C40.5806 114.881 40.8514 115.777 41.1824 116.506C41.5134 117.236 41.7881 118.107 41.7934 118.442C41.798 118.777 41.9936 119.418 42.2279 119.867C42.4623 120.316 42.7453 121.138 42.8572 121.694C42.969 122.249 43.3069 123.388 43.6074 124.225C44.6339 127.084 45.1871 128.79 45.4815 130.008C45.6436 130.677 45.9624 131.636 46.1899 132.138C46.4174 132.641 46.6997 133.531 46.8177 134.117C46.9356 134.703 47.2209 135.48 47.4515 135.846C47.6821 136.21 47.9613 137.074 48.0724 137.765C48.1827 138.456 48.5282 139.522 48.8401 140.133C49.1521 140.745 49.407 141.618 49.407 142.073C49.407 142.528 49.6026 143.095 49.8407 143.334C50.0797 143.572 50.4822 144.263 50.7348 144.869C51.2766 146.166 54.8117 149.786 55.8435 150.101C56.2369 150.221 56.7649 150.492 57.016 150.702C57.2671 150.912 57.9519 151.17 58.5378 151.276C59.1237 151.382 59.9957 151.673 60.4751 151.923C61.7648 152.597 131.923 152.614 132.481 151.942C132.681 151.701 133.244 151.417 133.732 151.309C134.221 151.202 134.7 150.986 134.798 150.829C134.894 150.672 135.483 150.284 136.106 149.966C137.875 149.064 141.32 145.173 141.326 144.071C141.327 143.869 141.6 143.293 141.933 142.791C142.265 142.289 142.538 141.53 142.539 141.106C142.541 140.68 142.815 139.795 143.15 139.139C143.485 138.482 143.759 137.691 143.759 137.381C143.759 137.071 144.026 136.175 144.353 135.391C144.679 134.606 145.104 133.348 145.296 132.595C145.488 131.842 145.75 131.088 145.879 130.921C146.008 130.754 146.29 129.863 146.505 128.943C146.72 128.022 146.998 127.063 147.123 126.812C147.484 126.082 150.07 117.94 150.312 116.768C150.433 116.182 150.72 115.433 150.95 115.103C151.18 114.772 151.368 114.151 151.368 113.722C151.368 113.292 151.642 112.403 151.976 111.746C152.311 111.09 152.588 110.273 152.592 109.932C152.596 109.591 152.864 108.728 153.188 108.013C153.511 107.3 153.867 106.204 153.976 105.578C154.086 104.954 154.347 104.165 154.557 103.828C154.768 103.491 155.086 102.601 155.265 101.85C155.654 100.216 156.365 97.9998 157.17 95.9134C157.495 95.0734 157.759 94.1124 157.759 93.7784C157.759 93.4443 158.013 92.6941 158.322 92.1105C158.631 91.5268 158.981 90.4334 159.098 89.6801C159.216 88.9268 159.49 88.0366 159.707 87.7018C159.925 87.367 160.202 86.5452 160.323 85.8756C160.445 85.206 160.721 84.3812 160.939 84.0426C161.157 83.704 161.434 82.8138 161.555 82.0643C161.676 81.3148 161.963 80.4032 162.195 80.038C162.426 79.6735 162.708 78.7833 162.822 78.0597C162.936 77.3368 163.232 76.4313 163.48 76.0486C164.108 75.08 164.068 71.3812 163.419 70.4545C163.152 70.0732 162.931 69.4835 162.928 69.1442C162.923 68.5682 161.848 66.7527 160.803 65.552C159.588 64.1572 158.651 63.2008 158.5 63.2008C158.33 63.2008 156.138 61.5397 155.386 60.842C155.161 60.6328 154.796 60.4616 154.574 60.4616C154.353 60.4616 154.099 60.2706 154.01 60.037C153.92 59.8041 153.015 59.0995 151.999 58.4718C150.982 57.8448 150.15 57.214 150.15 57.0702C150.15 56.9264 149.998 56.8092 149.812 56.8092C149.626 56.8092 148.839 56.291 148.062 55.6587C147.286 55.0257 146.038 54.1012 145.29 53.6043C144.543 53.1067 143.721 52.5238 143.464 52.3085C142.035 51.1101 141.047 50.4176 140.765 50.4176C140.589 50.4176 140.264 50.178 140.043 49.885C139.822 49.5921 139.419 49.2154 139.148 49.048C138.136 48.4226 135.072 46.2943 134.63 45.9093C134.075 45.4254 132.215 44.0451 131.272 43.4174C130.895 43.1663 130.229 42.6831 129.792 42.3437C129.355 42.0044 128.385 41.3196 127.638 40.8219C126.89 40.3243 126.069 39.7376 125.811 39.5177C125.229 39.0186 123.356 37.6322 122.446 37.0258C122.068 36.7747 121.403 36.2915 120.965 35.9522C120.528 35.6128 119.554 34.928 118.801 34.4304C118.048 33.9327 117.295 33.3818 117.127 33.2053C116.96 33.0295 116.207 32.4855 115.453 31.9978C114.7 31.5093 113.878 30.9264 113.627 30.7019C113.376 30.4775 112.212 29.6253 111.04 28.8081C109.868 27.9909 108.693 27.109 108.427 26.848C108.162 26.587 107.846 26.3732 107.725 26.3732C107.535 26.3732 105.24 24.6954 104.801 24.2358C104.503 23.9246 102.802 22.8624 101.453 22.1456C99.294 20.9982 93.1116 20.8757 90.9522 21.9379ZM96.5707 48.2833C101.88 49.1196 105.395 53.1622 106.364 59.5485C106.813 62.5076 106.437 68.1634 105.7 69.5391C105.373 70.1493 105.105 70.9003 105.105 71.2078C105.105 73.8397 100.677 77.6648 96.5517 78.5953C92.2085 79.5754 91.1683 79.5472 89.9569 78.4188L89.2782 77.7865V63.4085C89.2782 45.506 88.5478 47.0202 96.5707 48.2833ZM86.9735 48.7657C87.3958 49.1873 87.4521 50.9876 87.4521 63.9617C87.4521 80.3789 87.5518 79.6362 85.3482 79.6362C84.7174 79.6362 83.5585 79.8295 82.7733 80.0662L81.3458 80.4953L80.4343 79.5335C79.9328 79.0039 79.3728 77.9889 79.1902 77.2775C79.0076 76.566 78.742 75.9839 78.6013 75.9839C78.4605 75.9839 78.1896 75.4018 78.0002 74.6904C77.8107 73.979 77.4782 73.1914 77.2613 72.9403C77.0445 72.6892 76.7728 72.0387 76.6572 71.4946C76.015 68.4754 75.4953 71.2983 75.7479 76.4298C76.002 81.5781 75.0737 82.8511 70.7122 83.3373C69.144 83.5123 69.1904 83.9719 69.1904 68.2265C69.1904 52.1236 69.1182 52.7734 70.9618 52.3709C71.4108 52.2735 72.4189 51.9311 73.2034 51.61C75.4808 50.6779 76.7546 51.5407 77.291 54.3797C77.4013 54.9625 77.6669 55.645 77.8807 55.8961C78.0945 56.1472 78.3654 56.9005 78.4818 57.5701C78.5982 58.2397 78.8805 59.0858 79.1095 59.4511C79.3378 59.8155 79.6163 60.686 79.7282 61.3853C79.8423 62.0998 80.2623 63.0075 80.6892 63.461L81.447 64.2661L81.285 57.3533C81.0856 48.8959 81.1062 48.8494 85.1694 48.4956C85.839 48.437 86.4111 48.3663 86.4408 48.3381C86.4713 48.31 86.711 48.5025 86.9735 48.7657ZM112.014 50.2982C112.985 50.5676 114.601 50.9115 115.605 51.0637C119.216 51.6107 120.02 52.2324 120.015 54.4725C120.007 57.3304 119.868 57.529 118.071 57.2551C117.217 57.1242 115.765 57.0048 114.845 56.9896L113.171 56.9614L113.078 58.7602C112.92 61.8213 113.592 62.5921 116.418 62.5921C117.914 62.5921 118.801 63.7737 118.801 65.7673C118.801 67.9138 118.15 68.4411 115.624 68.3392C113.436 68.2509 113.206 68.5088 113.072 71.2001C112.926 74.1288 113.517 74.7619 116.665 75.0511C119.348 75.2968 120.039 75.8797 120.25 78.0726C120.531 80.9906 119.545 82.275 117.635 81.4837C117.145 81.2805 115.461 80.9305 113.893 80.7053C110.913 80.2777 107.907 79.5168 107.471 79.0808C107.048 78.657 107.131 50.7578 107.558 50.2434C108.034 49.6705 109.83 49.6925 112.014 50.2982ZM123.949 52.9728C124.143 53.2064 124.795 53.4902 125.397 53.6028C126 53.7162 126.985 54.073 127.588 54.3956C128.191 54.719 128.857 54.9831 129.07 54.9831C129.283 54.9831 129.967 55.257 130.592 55.5918C131.216 55.9266 131.913 56.2005 132.141 56.2005C132.653 56.2005 134.058 57.233 135.453 58.6354C138.932 62.1325 138.91 67.8826 135.404 71.4931C134.2 72.7334 134.041 73.689 134.856 74.8053C135.689 75.9466 136.117 76.6497 136.775 77.9623C137.111 78.6319 137.519 79.3852 137.681 79.6362C137.843 79.8873 138.113 80.4352 138.279 80.8537C138.447 81.2722 138.709 81.82 138.863 82.0711C140.433 84.6278 141.159 87.2011 140.335 87.2833C136.199 87.6934 134.679 86.7256 132.627 82.3755C132.351 81.7896 132.007 81.2357 131.863 81.1451C131.566 80.9579 130.152 78.5383 129.875 77.7439C129.774 77.457 129.442 77.142 129.136 77.0446C128.83 76.948 128.519 76.6353 128.443 76.3499C128.368 76.0653 128.291 77.4319 128.271 79.3882C128.217 84.8553 128.127 84.9679 124.817 83.6751C122.131 82.6258 122.15 82.6791 122.147 76.1924C122.145 73.3154 122.016 69.7978 121.858 68.3749C121.245 62.8211 121.319 53.4635 121.979 52.9804C122.729 52.4318 123.497 52.4287 123.949 52.9728ZM67.311 67.8682L67.2022 80.7015L66.2138 82.3755C61.8127 89.8293 53.248 90.4448 50.8573 83.4796C49.6863 80.0677 49.7197 62.8964 50.8976 62.8964C51.008 62.8964 51.5284 62.5198 52.0542 62.0594C54.4685 59.9479 54.6519 59.8346 55.3017 60.037C56.3723 60.371 56.3982 60.5924 56.4027 69.5711C56.4081 80.1118 56.612 80.9678 58.9753 80.3743C60.9096 79.8896 61.2588 78.0391 61.4818 67.1141C61.7077 56.0521 61.5198 56.8062 64.4219 55.3011C67.6146 53.6454 67.4381 52.8769 67.311 67.8682ZM95.8981 55.3118C95.0063 55.8315 95.0885 72.1885 95.984 72.4221C96.6902 72.607 98.9691 71.0244 99.4842 69.9911C99.6592 69.6403 99.9537 69.167 100.139 68.9403C102.091 66.5472 100.814 58.9397 97.9921 56.148C96.7031 54.8735 96.6719 54.8613 95.8981 55.3118ZM128.135 60.9691C127.88 61.224 127.875 66.0085 128.128 67.5379C128.47 69.6129 131.753 68.2554 132.374 65.7818C132.866 63.8194 129.316 59.7874 128.135 60.9691ZM166.189 82.2644C166.073 82.3816 165.977 82.7658 165.977 83.1197C165.977 83.4727 165.776 84.0487 165.53 84.3995C165.285 84.7503 164.99 85.6367 164.875 86.3695C164.761 87.1022 164.414 88.1789 164.104 88.7625C163.796 89.3461 163.542 90.1694 163.542 90.5932C163.542 91.017 163.268 91.8746 162.933 92.4985C162.599 93.1232 162.325 93.996 162.325 94.4365C162.325 94.8779 162.068 95.6661 161.753 96.1881C161.438 96.7101 161.086 97.6848 160.97 98.3544C160.853 99.024 160.58 99.8488 160.362 100.187C160.145 100.526 159.863 101.416 159.737 102.164C159.611 102.913 159.251 104.003 158.937 104.588C158.624 105.172 158.368 105.945 158.368 106.306C158.368 106.667 158.097 107.559 157.766 108.289C157.435 109.018 157.16 109.89 157.155 110.224C157.151 110.559 156.924 111.244 156.651 111.746C156.378 112.248 156.042 113.327 155.904 114.144C155.766 114.96 155.442 115.861 155.184 116.146C154.926 116.431 154.716 117.07 154.716 117.565C154.716 118.06 154.442 119.003 154.107 119.66C153.772 120.316 153.492 121.064 153.485 121.322C153.478 121.579 153.263 122.338 153.008 123.008C152.753 123.677 152.336 124.978 152.081 125.899C151.825 126.82 151.496 127.719 151.349 127.898C151.201 128.077 150.924 128.967 150.732 129.876C150.541 130.786 150.275 131.667 150.143 131.834C150.01 132.001 149.693 132.892 149.437 133.812C149.182 134.733 148.765 136.034 148.51 136.704C147.65 138.964 148.081 140.33 149.326 139.287C149.529 139.118 150.242 138.573 150.911 138.076C151.581 137.58 152.334 136.996 152.585 136.777C152.836 136.558 153.658 135.978 154.411 135.486C155.165 134.994 156.397 134.104 157.151 133.508C157.904 132.912 159.137 132.017 159.89 131.521C160.643 131.023 161.396 130.473 161.564 130.296C161.731 130.12 162.485 129.576 163.238 129.088C163.991 128.6 165.225 127.717 165.979 127.126C166.733 126.535 167.568 125.914 167.835 125.747C170.438 124.116 171.598 123.122 173.56 120.84C176.051 117.943 176.846 109.165 174.95 105.507C174.733 105.088 174.454 104.198 174.33 103.529C174.207 102.859 173.852 101.834 173.541 101.25C173.231 100.667 172.977 99.845 172.975 99.4242C172.974 99.0035 172.701 98.2479 172.369 97.7457C172.036 97.2435 171.762 96.4217 171.76 95.9195C171.758 95.4173 171.536 94.5956 171.267 94.0934C170.998 93.5912 170.598 92.4955 170.377 91.6585C169.854 89.6702 169.086 87.348 168.531 86.0719C168.287 85.5112 168.005 84.4497 167.904 83.7132C167.803 82.9774 167.613 82.3755 167.482 82.3755C167.351 82.3755 167.054 82.3024 166.823 82.2142C166.591 82.1252 166.307 82.148 166.189 82.2644ZM23.646 85.0386C23.2891 85.8338 22.9079 86.9964 22.7976 87.6211C22.6872 88.2466 22.3319 89.3423 22.0085 90.056C21.6844 90.7705 21.4165 91.663 21.4127 92.0397C21.4089 92.4171 21.1319 93.2374 20.7971 93.8621C20.4623 94.486 20.1884 95.3078 20.1884 95.6882C20.1884 96.0679 19.9145 96.8897 19.5797 97.5144C19.2449 98.1383 18.971 98.9958 18.971 99.4197C18.971 99.8435 18.6971 100.701 18.3623 101.325C18.0275 101.95 17.7535 102.74 17.7535 103.08C17.7535 103.421 17.5336 104.21 17.2658 104.832C15.7896 108.254 15.5492 114.89 16.8382 116.616C16.963 116.783 17.2369 117.451 17.4461 118.101C18.185 120.393 20.7583 123.507 23.3888 125.29C24.0059 125.709 24.7485 126.257 25.0392 126.508C25.3306 126.759 25.7765 127.101 26.0314 127.269C27.4702 128.214 28.4564 128.933 30.2323 130.33C31.3204 131.186 32.5531 132.066 32.9716 132.285C33.39 132.504 33.842 132.87 33.9759 133.096C34.1099 133.322 34.3648 133.508 34.5421 133.508C34.7201 133.508 35.5008 134.026 36.2769 134.659C37.0538 135.292 38.3009 136.216 39.0489 136.713C39.7961 137.211 40.6521 137.857 40.9511 138.15C41.4693 138.659 42.4341 138.858 42.7666 138.525C42.9728 138.318 42.2226 135.445 41.6435 134.223C41.394 133.695 41.1893 132.971 41.1893 132.613C41.1893 132.255 40.9283 131.451 40.6095 130.826C40.2907 130.2 39.933 129.046 39.8159 128.261C39.6979 127.475 39.4171 126.679 39.1927 126.493C38.9682 126.306 38.6935 125.546 38.5817 124.804C38.4706 124.061 38.1213 122.948 37.8063 122.33C37.4905 121.711 37.2326 120.891 37.2326 120.507C37.2326 120.124 36.9587 119.298 36.6239 118.674C36.2891 118.05 36.0152 117.222 36.0152 116.837C36.0152 116.451 35.7412 115.598 35.4064 114.942C35.0716 114.286 34.7947 113.435 34.7909 113.052C34.7871 112.668 34.5192 111.771 34.1951 111.057C33.8717 110.343 33.511 109.247 33.3954 108.622C33.279 107.997 33.0096 107.211 32.7958 106.877C32.5827 106.542 32.3081 105.721 32.1855 105.053C32.063 104.385 31.7138 103.29 31.4087 102.618C31.1035 101.947 30.8517 101.119 30.8479 100.778C30.8441 100.436 30.5671 99.6198 30.2323 98.9631C29.8975 98.3065 29.6236 97.4505 29.6236 97.0601C29.6236 96.6705 29.3497 95.8145 29.0149 95.1586C28.6801 94.5027 28.4061 93.7007 28.4061 93.3781C28.4061 93.0547 28.1353 92.1934 27.8043 91.4637C27.4733 90.734 27.1948 89.8628 27.1849 89.528C27.1758 89.1932 26.9034 88.3714 26.58 87.7018C26.2566 87.0322 25.9872 86.2652 25.9819 85.9974C25.9287 83.5054 24.5811 82.9522 23.646 85.0386ZM88.6611 87.4233C90.7765 88.5502 93.1649 90.9288 94.3123 93.0509C95.6363 95.4995 95.6706 102.275 94.3725 104.928C93.9144 105.865 93.5393 106.793 93.5393 106.991C93.5393 107.19 93.3338 107.431 93.0827 107.527C92.8316 107.624 92.6262 107.845 92.6262 108.019C92.6262 109.259 87.1903 115.324 82.4301 119.396C79.9146 121.547 77.7148 123.436 76.3924 124.58C74.6073 126.123 75.3476 126.317 79.2617 125.331C80.502 125.019 82.4324 124.674 83.5517 124.564C84.6702 124.454 86.1114 124.179 86.7543 123.952C87.3973 123.725 89.0842 123.438 90.5033 123.315C91.9216 123.192 93.3049 122.973 93.5773 122.83C94.7674 122.205 95.0611 123.338 95.0611 128.549C95.0611 134.419 95.4126 133.992 90.3435 134.273C88.1673 134.394 86.1433 134.621 85.8458 134.776C85.5483 134.932 83.2884 135.191 80.8239 135.352C78.3593 135.512 75.5211 135.839 74.5168 136.078C73.5124 136.317 71.3529 136.606 69.7185 136.721C68.0841 136.835 66.6719 137.049 66.5805 137.197C66.2138 137.79 64.7209 137.446 63.887 136.575C62.6825 135.318 63.2752 128.56 64.778 126.414C65.0283 126.057 65.2338 125.541 65.2338 125.27C65.2338 124.998 65.5077 124.528 65.8425 124.225C66.1773 123.922 66.4512 123.498 66.4512 123.282C66.4512 122.865 70.0777 119.188 76.247 113.352C78.322 111.389 80.4244 109.218 80.9205 108.527C81.4158 107.835 82.0611 107.048 82.354 106.778C82.647 106.507 82.8867 106.128 82.8867 105.937C82.8867 105.746 83.1454 105.26 83.4611 104.859C83.7777 104.457 84.1772 103.65 84.3499 103.067C84.5226 102.484 84.8254 101.596 85.0225 101.094C85.8998 98.8627 82.3502 95.7141 80.0249 96.6622C79.5067 96.8737 78.7398 97.1225 78.3213 97.2146C77.1693 97.4702 75.7228 98.6382 72.5019 101.918C68.568 105.922 69.0702 105.972 63.8177 101.075C62.2541 99.6167 62.2822 99.1678 64.0871 96.8144C67.3369 92.5761 71.8148 88.7328 74.5168 87.8623C75.1863 87.647 75.9176 87.3244 76.1413 87.1463C77.6243 85.9654 86.2826 86.1572 88.6611 87.4233ZM103.127 87.0961C104.131 87.3373 106.185 87.6211 107.692 87.7262C109.199 87.8312 111.481 88.1774 112.765 88.4947C114.048 88.812 115.489 89.0714 115.967 89.0714C116.444 89.0714 117.791 89.3271 118.959 89.639C120.128 89.9518 122.288 90.3855 123.761 90.6031C125.233 90.8215 126.508 91.1137 126.594 91.2529C126.68 91.3922 127.144 91.5063 127.624 91.5063C129.241 91.5063 129.454 92.0595 129.454 96.2657C129.454 100.661 129.258 101.246 127.784 101.246C126.587 101.246 123.804 100.725 122.91 100.335C122.575 100.188 121.482 99.9774 120.48 99.8656C119.479 99.7537 118.178 99.4843 117.589 99.2667C117 99.0483 115.36 98.7196 113.945 98.5347C112.53 98.3506 111.236 98.063 111.069 97.8963C110.555 97.3827 107.936 97.5228 107.725 98.0752C107.155 99.5589 107.536 105.214 108.225 105.506C109.212 105.925 113.79 106.724 115.2 106.724C116.563 106.724 119.113 107.284 119.547 107.678C119.706 107.823 120.115 107.942 120.455 107.942C122.903 107.942 128.44 112.933 129.299 115.912C129.411 116.299 129.731 117.095 130.009 117.681C130.852 119.449 130.736 125.971 129.834 127.568C129.458 128.236 129.149 128.927 129.149 129.105C129.149 129.863 125.685 133.518 124.306 134.216C123.873 134.435 123.245 134.76 122.91 134.941C120.158 136.418 112.575 137.119 109.214 136.206C108.544 136.024 106.695 135.747 105.105 135.588C97.7897 134.862 98.1047 135.161 98.1047 128.937C98.1047 122.961 98.0613 123.039 101.224 123.319C102.576 123.438 104.159 123.736 104.744 123.98C105.329 124.224 106.71 124.54 107.815 124.682C108.919 124.824 110.644 125.153 111.649 125.415C114.783 126.229 117.059 126.074 118.33 124.958C121.026 122.591 120.143 117.68 116.77 116.27C116.213 116.037 115.758 115.712 115.758 115.547C115.758 115.382 115.244 115.243 114.616 115.24C113.988 115.235 112.462 114.963 111.224 114.634C109.987 114.304 107.659 113.955 106.05 113.857C98.1207 113.375 98.702 114.534 98.9599 99.6944C99.2118 85.2418 98.931 86.0894 103.127 87.0961ZM67.1208 157.918C66.5669 158.472 66.6498 158.617 68.0491 159.55C68.7605 160.024 69.4796 160.56 69.647 160.74C69.8144 160.92 70.7046 161.579 71.6253 162.204C74.3182 164.032 74.7998 164.376 75.2016 164.757C75.4108 164.955 76.2668 165.562 77.1038 166.104C77.9408 166.647 78.6256 167.204 78.6256 167.343C78.6256 167.482 78.758 167.596 78.9193 167.596C79.0806 167.596 81.1008 169.006 83.4086 170.728C89.4433 175.233 89.7789 175.358 95.7984 175.356C101.182 175.355 102.337 175.071 105.186 173.054C105.895 172.553 106.817 171.91 107.235 171.627C107.654 171.343 108.106 170.937 108.24 170.724C108.374 170.51 108.628 170.336 108.804 170.336C108.981 170.336 109.511 170.027 109.983 169.651C112.237 167.85 112.583 167.604 112.869 167.6C113.038 167.598 113.347 167.322 113.556 166.988C113.766 166.653 114.087 166.379 114.271 166.379C114.454 166.379 114.981 166.071 115.443 165.694C115.904 165.317 116.592 164.804 116.972 164.553C117.351 164.302 117.952 163.851 118.307 163.551C118.663 163.252 119.364 162.74 119.866 162.415C121.649 161.258 121.949 161.047 122.457 160.596C122.952 160.155 124.318 159.139 124.983 158.717C125.203 158.577 125.179 158.359 124.907 158.032C124.383 157.4 67.7508 157.288 67.1208 157.918Z" stroke="black" stroke-width="12" mask="url(#path-1-inside-1_238_295)"/>
</g>
<defs>
<clipPath id="clip0_238_295">
<rect width="160" height="160" fill="white" transform="translate(16 16)"/>
</clipPath>
</defs>
</svg>
