<svg width="192" height="192" viewBox="0 0 192 192" fill="none" xmlns="http://www.w3.org/2000/svg"><path d="M72 166a74.005 74.005 0 0 0 66.972-9.755A74.003 74.003 0 0 0 168.464 81M25.665 119A74 74 0 0 1 104 22.434" stroke="#000" stroke-width="12" stroke-linecap="round" stroke-linejoin="round"/><path d="M43.03 160.781C97.735 121.472 164.161 58.649 170 46c-13-8-64-4-86 1l17 12-70.906 87.195a6 6 0 0 0 .019 7.594l4.855 5.91c1.992 2.426 5.512 2.914 8.061 1.082Z" stroke="#000" stroke-width="12" stroke-linecap="round" stroke-linejoin="round"/></svg>