<svg xmlns="http://www.w3.org/2000/svg" width="192" height="192" fill="none" viewBox="0 0 192 192"><g stroke="#000" stroke-linejoin="round" stroke-width="12"><path d="M120.667 110.242 96 124.482l-24.667-14.24V81.759L96 67.517l24.667 14.242z"/><path d="m96 67.518-24.666 14.24-24.667-14.24V39.035l24.666-14.242L96 39.035zm49.333 0-24.666 14.24L96 67.518V39.035l24.666-14.242 24.667 14.242zm0 85.448-24.666 14.24L96 152.966v-28.483l24.666-14.242 24.667 14.242z"/><path d="m170 110.242-24.666 14.24-24.667-14.24V81.759l24.666-14.242L170 81.76zm-74 42.724-24.666 14.24-24.667-14.24v-28.483l24.666-14.242L96 124.483z"/><path d="m71.333 110.242-24.666 14.24L22 110.242V81.759l24.666-14.242L71.333 81.76z"/></g></svg>