<svg xmlns="http://www.w3.org/2000/svg" width="192" height="192" fill="none" viewBox="0 0 192 192"><path stroke="#000" stroke-linecap="round" stroke-linejoin="round" stroke-miterlimit="6" stroke-width="10" d="M130.224 43.103a2.884 2.884 0 0 1 5.552 0l2.248 7.215c.391 1.254 1.512 2.102 2.776 2.102h7.276c2.827 0 4.003 3.773 1.715 5.506l-5.886 4.459c-1.023.775-1.451 2.149-1.06 3.403l2.248 7.214c.874 2.804-2.204 5.136-4.492 3.403l-5.885-4.459a2.824 2.824 0 0 0-3.432 0l-5.885 4.459c-2.288 1.733-5.366-.599-4.492-3.403l2.248-7.214c.391-1.254-.037-2.628-1.06-3.403l-5.886-4.459c-2.288-1.733-1.112-5.506 1.715-5.506h7.276c1.264 0 2.385-.849 2.776-2.102z"/><circle cx="53" cy="139" r="31" stroke="#000" stroke-linecap="round" stroke-linejoin="round" stroke-width="12"/><path stroke="#000" stroke-linecap="round" stroke-linejoin="round" stroke-width="12" d="M125.603 156a76.8 76.8 0 0 0-1.886-36.796 76.5 76.5 0 0 0-18.794-31.632 75.95 75.95 0 0 0-31.334-19.115A75.6 75.6 0 0 0 37 66.304M170 142a120 120 0 0 0-12-52.307M50 22a120 120 0 0 1 56.249 14"/><path stroke="#000" stroke-linecap="round" stroke-linejoin="round" stroke-width="12" d="M34 113.154V38c0-8.837 7.163-16 16-16h104c8.837 0 16 7.163 16 16v104c0 8.837-7.163 16-16 16H78.846"/></svg>