<svg xmlns="http://www.w3.org/2000/svg" width="192" height="192" fill="none" viewBox="0 0 192 192"><circle cx="53" cy="139" r="31" stroke="#000" stroke-linecap="round" stroke-linejoin="round" stroke-width="12"/><path stroke="#000" stroke-linecap="round" stroke-linejoin="round" stroke-width="12" d="M125.603 156a76.8 76.8 0 0 0-1.886-36.796 76.5 76.5 0 0 0-18.794-31.632 75.95 75.95 0 0 0-31.334-19.115A75.6 75.6 0 0 0 37 66.304M170 142a120 120 0 0 0-35.147-84.853A120 120 0 0 0 50 22"/><path stroke="#000" stroke-linecap="round" stroke-linejoin="round" stroke-width="12" d="M34 113.154V38c0-8.837 7.163-16 16-16h104c8.837 0 16 7.163 16 16v104c0 8.837-7.163 16-16 16H78.846"/></svg>