<svg xmlns="http://www.w3.org/2000/svg" width="192" height="192" fill="none" viewBox="0 0 192 192"><path stroke="#000" stroke-linecap="round" stroke-linejoin="round" stroke-width="12" d="M96 22v148"/><path stroke="#000" stroke-linecap="round" stroke-width="12" d="M81 36h30M85 156h22"/><path stroke="#000" stroke-linecap="round" stroke-linejoin="round" stroke-width="12" d="M137.075 47.14c1.855-5.52 9.995-5.52 11.85 0l10.77 32.054C160.991 83.05 157.994 87 153.77 87h-21.54c-4.224 0-7.221-3.95-5.925-7.806zM143 110.875l-17 18.073m17-18.073 17 18.073m-17-18.073V149m0-38.125V88M34.576 71.688h28.848m-28.848 0V56.43C34.576 49.013 41.034 43 49 43s14.424 6.013 14.424 13.43v15.258m-28.848 0v26.08m28.848-26.08v26.08m-28.848 0h28.848m-28.848 0v15.259c0 7.417 6.458 13.43 14.424 13.43m14.424-28.688v15.258c0 7.417-6.458 13.43-14.424 13.43m0 0L32 149m17-22.543L66 149"/></svg>