<svg width="192" height="192" viewBox="0 0 192 192" fill="none" xmlns="http://www.w3.org/2000/svg">
<path d="M96 22L96 170" stroke="black" stroke-width="12" stroke-linecap="round" stroke-linejoin="round"/>
<path d="M81 36H111" stroke="black" stroke-width="12" stroke-linecap="round"/>
<path d="M85 156H107" stroke="black" stroke-width="12" stroke-linecap="round"/>
<path d="M137.075 47.1403C138.93 41.6199 147.07 41.6199 148.925 47.1403L159.695 79.1938C160.991 83.0506 157.994 87 153.77 87H132.23C128.006 87 125.009 83.0506 126.305 79.1938L137.075 47.1403Z" stroke="black" stroke-width="12" stroke-linecap="round" stroke-linejoin="round"/>
<path d="M143 110.875L126 128.948M143 110.875L160 128.948M143 110.875V149M143 110.875V88" stroke="black" stroke-width="12" stroke-linecap="round" stroke-linejoin="round"/>
<path d="M34.5758 71.6883H63.4242M34.5758 71.6883V56.4299C34.5758 49.0128 41.0337 43 49 43C56.9663 43 63.4242 49.0128 63.4242 56.4299V71.6883M34.5758 71.6883V97.7687M63.4242 71.6883V97.7687M34.5758 97.7687H63.4242M34.5758 97.7687V113.027C34.5758 120.444 41.0337 126.457 49 126.457M63.4242 97.7687V113.027C63.4242 120.444 56.9663 126.457 49 126.457M49 126.457L32 149M49 126.457L66 149" stroke="black" stroke-width="12" stroke-linecap="round" stroke-linejoin="round"/>
</svg>
