<?xml version="1.0" encoding="UTF-8"?>
<!-- Created with Inkscape (http://www.inkscape.org/) -->
<svg width="192" height="192" version="1.1" viewBox="0 0 50.8 50.8" xml:space="preserve" xmlns="http://www.w3.org/2000/svg"><g stroke="#000" stroke-dashoffset="669.6" stroke-linecap="round" stroke-linejoin="round" stroke-miterlimit="15"><g fill="#dac800"><g stroke-width="3.175"><path d="m5.8342 22.589 19.634-8.5311" style="paint-order:markers fill stroke"/><path d="m44.978 22.509-19.51-8.451" style="paint-order:markers fill stroke"/><path d="m25.29 31.064 19.689-8.5549" style="paint-order:markers fill stroke"/><path d="m25.344 31.04-19.51-8.451" style="paint-order:markers fill stroke"/></g><g stroke-width="2.1167"><path d="m10.949 24.805 19.634-8.5311" style="paint-order:markers fill stroke"/><path d="m20.295 16.306 5.1145 2.2154" style="paint-order:markers fill stroke"/><path d="m15.61 18.342 5.1145 2.2154" style="paint-order:markers fill stroke"/><path d="m11.042 20.326 5.1145 2.2154" style="paint-order:markers fill stroke"/><path d="m19.842 28.657 19.634-8.5311" style="paint-order:markers fill stroke"/><path d="m34.302 22.373 5.5028 2.3836" style="paint-order:markers fill stroke"/><path d="m29.659 24.391 5.4754 2.3955" style="paint-order:markers fill stroke"/><path d="m30.553 28.777-5.5028-2.3836" style="paint-order:markers fill stroke"/></g><path d="m12.581 29.755v2.9704" stroke-width="3.175" style="paint-order:markers fill stroke"/><path d="m36.98 30.183v2.9691" stroke-width="3.175" style="paint-order:markers fill stroke"/></g><path d="m12.581 32.725c2.1652 1.9809 6.4429 5.6695 12.574 5.6406 6.1314-0.02886 9.6707-2.8318 11.824-4.9852" fill="none" stroke-width="3.175" style="paint-order:markers fill stroke"/><path d="m43.697 23.066v7.4423" fill="none" stroke-width="2.1167" style="paint-order:markers fill stroke"/><ellipse cx="43.697" cy="34.166" rx="1" ry="1" stroke-width="1.9687" style="paint-order:markers fill stroke"/></g></svg>
