<svg xmlns="http://www.w3.org/2000/svg" width="192" height="192" fill="none"><circle cx="131" cy="90" r="3" stroke="#000" stroke-linecap="round" stroke-linejoin="round" stroke-width="6"/><circle cx="131" cy="112" r="3" stroke="#000" stroke-linecap="round" stroke-linejoin="round" stroke-width="6"/><circle cx="120" cy="101" r="3" stroke="#000" stroke-linecap="round" stroke-linejoin="round" stroke-width="6"/><circle cx="142" cy="101" r="3" stroke="#000" stroke-linecap="round" stroke-linejoin="round" stroke-width="6"/><path stroke="#000" stroke-linecap="round" stroke-linejoin="round" stroke-width="10" d="M60 92v18m-9-9h18"/><path stroke="#000" stroke-linecap="round" stroke-linejoin="round" stroke-width="12" d="M96 65h16c44 0 58 38 58 61 0 34-50 1-50 1H96m0-62H80c-44 0-58 38-58 61 0 34 50 1 50 1h24"/><path stroke="#000" stroke-linecap="round" stroke-linejoin="round" stroke-width="10" d="M112 35c0 16-16 8-16 30"/></svg>