<svg width="192" height="192" viewBox="0 0 192 192" fill="none" xmlns="http://www.w3.org/2000/svg"><path d="M135 122v24M25 122v24m0-124v40m142 60v24M57 122v24m0-124v40m94-40v56M86 22v56m-35 81 4 11m31-64v50a6 6 0 0 0 6 6h24M86 22l30 56m0-56v56m51 44a16.002 16.002 0 0 0-27.314-11.314A16.016 16.016 0 0 0 135 122m-78 0a16.001 16.001 0 0 0-27.314-11.314A16.007 16.007 0 0 0 25 122m110 24a16.002 16.002 0 0 0 27.314 11.314A16.016 16.016 0 0 0 167 146m-142 0a16.001 16.001 0 0 0 27.314 11.314A16.007 16.007 0 0 0 57 146M25 62a16.001 16.001 0 0 0 27.314 11.314A16 16 0 0 0 57 62" stroke="#000" stroke-width="12" stroke-linecap="round" stroke-linejoin="round"/></svg>