<svg xmlns="http://www.w3.org/2000/svg" width="192" height="192" fill="none"><path stroke="#000" stroke-linecap="round" stroke-linejoin="round" stroke-width="12" d="M168 156S146 95 41.47 65.6M126 70.84S91 44 42.355 43.823m104.567 24.74c11.594 24.158 5.48 61.389-17.701 93.565a138 138 0 0 1-5.317 6.914m23.018-100.478A116 116 0 0 1 165.499 170M146.922 68.563A116 116 0 0 0 85.116 26.25m0 0c20.116 15.576 14.973 57.72-11.777 94.851-15.138 21.012-33.989 35.97-51.335 42.432M85.116 26.251a116 116 0 0 0-52.242-2.311M31 24.303q.942-.21 1.874-.363M31 24.303a119 119 0 0 1 1.874-.363M31 24.303a116 116 0 0 0-8.996 2.197m10.87-2.56c7.53-1.233 14.517.364 20.016 4.349 15.394 11.154 13.301 40.307-4.674 65.116-7.63 10.532-16.897 18.587-26.212 23.518M118 41.362c16.8 20.564 9.595 64.224-18.385 103.063-7.008 9.728-14.716 18.315-22.723 25.575m46.218 0q.398-.477.794-.959m0 0c-13.217-17.267-40.971-47.592-92.173-80.861"/><path stroke="#000" stroke-linecap="round" stroke-linejoin="round" stroke-width="12" d="M22 117c20 31 34 53 34 53"/></svg>