<svg width="192" height="192" viewBox="0 0 50.8 50.8" xml:space="preserve" xmlns="http://www.w3.org/2000/svg"><g style="stroke-width:1.00012;stroke-dasharray:none"><path style="display:inline;opacity:1;fill:none;stroke:#000;stroke-width:3.25972;stroke-linecap:round;stroke-linejoin:round;stroke-miterlimit:1;stroke-dasharray:none;stroke-opacity:1" d="m31.123 5.425-1.815 10.604h2.76s4.576-.145 3.087 3.959l-6.537 18.049s-1.017 3.341-3.596 2.905c0 0-2.47-.544-1.67-4.285l2.288-9.77h-4.25s-2.905.073-2.76-3.558l.872-17.977-4.975.073s-1.961.072-1.961 2.578V34.37s-.98 11.185 13.037 11.185c0 0 13.401.327 13.401-11.367V7.567s.218-2.178-2.687-2.178z" transform="matrix(.974 0 0 .974 .166 .608)"/></g></svg>