<?xml version="1.0" encoding="UTF-8" standalone="no"?>
<!-- Created with Inkscape (http://www.inkscape.org/) -->

<svg
   width="192"
   height="192"
   viewBox="0 0 50.799999 50.8"
   version="1.1"
   id="svg5"
   xml:space="preserve"
   xmlns="http://www.w3.org/2000/svg"
   xmlns:svg="http://www.w3.org/2000/svg"><defs
     id="defs2" /><g
     id="layer2"
     style="stroke-width:1.00012;stroke-dasharray:none"
     transform="matrix(0.97400086,0,0,0.97400086,0.16624479,0.60776043)"><path
       style="display:inline;opacity:1;fill:none;stroke:#000000;stroke-width:3.25972;stroke-linecap:round;stroke-linejoin:round;stroke-miterlimit:1;stroke-dasharray:none;stroke-opacity:1"
       d="M 31.123476,5.424841 29.307655,16.02922 h 2.760047 c 0,0 4.57586,-0.145266 3.086888,3.958483 l -6.536946,18.049235 c 0,0 -1.016857,3.341106 -3.595319,2.905311 0,0 -2.469514,-0.544747 -1.670553,-4.285332 l 2.287931,-9.769103 h -4.249015 c 0,0 -2.90531,0.07264 -2.760044,-3.559005 l 0.871593,-17.9766007 -4.975343,0.072632 c 0,0 -1.961084,0.072632 -1.961084,2.5784622 V 34.368986 c 0,0 -0.980541,11.185441 13.037575,11.185441 0,0 13.400742,0.326848 13.400742,-11.367024 V 7.5675068 c 0,0 0.217898,-2.1789821 -2.687412,-2.1789821 z"
       id="path3019" /></g></svg>
