<svg width="192" height="192" viewBox="0 0 192 192" fill="none" xmlns="http://www.w3.org/2000/svg"><path d="M96 68v28" stroke="#000" stroke-width="10" stroke-linecap="round" stroke-linejoin="round"/><path d="M26.703 107.355c-6.27-6.271-6.27-16.439 0-22.71l57.942-57.942c6.271-6.27 16.439-6.27 22.71 0l57.942 57.942c6.271 6.271 6.271 16.439 0 22.71l-57.942 57.942c-6.271 6.271-16.439 6.271-22.71 0l-57.942-57.942Z" stroke="#000" stroke-width="12" stroke-linecap="round" stroke-linejoin="round"/><path d="M115.799 76.201a27.996 27.996 0 0 1 6.07 30.514A28.006 28.006 0 0 1 96 124a27.998 27.998 0 0 1-27.462-33.463 28 28 0 0 1 7.663-14.336" stroke="#000" stroke-width="10" stroke-linecap="round" stroke-linejoin="round"/></svg>