<svg xmlns="http://www.w3.org/2000/svg" width="192" height="192" fill="none" viewBox="0 0 192 192"><path stroke="#000" stroke-linejoin="round" stroke-width="12" d="M47.64 107.778A14 14 0 0 0 50 100V86H36a14 14 0 1 0 11.64 21.778Zm86.719 40A14 14 0 0 1 132 140v-14h14a14 14 0 0 1 12.944 8.638 14 14 0 0 1-3.045 15.261 14 14 0 0 1-11.271 4.033 14 14 0 0 1-10.269-6.154Z"/><path stroke="#000" stroke-linecap="round" stroke-width="10" d="M70 66h80m-80 40h42"/><path stroke="#000" stroke-width="12" d="M164 46H56a6 6 0 0 0-6 6v68a6 6 0 0 0 6 6h70a6 6 0 0 0 4.243-1.757A6 6 0 0 0 132 120V92a6 6 0 0 1 6-6h26a6 6 0 0 0 6-6V52a6 6 0 0 0-6-6Z"/></svg>