<svg xmlns="http://www.w3.org/2000/svg" width="192" height="192" fill="none" viewBox="0 0 192 192"><path stroke="#000" stroke-linecap="round" stroke-linejoin="round" stroke-width="12" d="M94.379 87.461a13.38 13.38 0 0 1 1.61-4.555C98.6 78.35 109.186 61.62 119.68 40.598c-.322-1.051-1.307-2.978-4.324-5.143-3.017-2.167-5.157-2.484-6.255-2.453-16.547 16.678-28.995 32.067-32.47 36.003a13.41 13.41 0 0 1-3.799 2.984l-7.16 3.772a19.135 19.135 0 0 0-6.64 5.786L22.634 132.3a8.741 8.741 0 0 0-.762 8.893c1.582 3.281 4.456 7.561 9.586 11.245 5.13 3.684 10.105 5.038 13.718 5.488a8.727 8.727 0 0 0 8.173-3.569l36.399-50.755a19.158 19.158 0 0 0 3.351-8.145l1.28-7.997zs6.139 13.724 7.874 16.142l36.4 50.754a8.675 8.675 0 0 0 8.085 3.581c3.619-.439 8.633-1.784 13.806-5.499 5.129-3.683 8.002-7.963 9.584-11.244a8.74 8.74 0 0 0-.761-8.894l-36.4-50.755a19.153 19.153 0 0 0-6.637-5.784l-7.162-3.773a13.39 13.39 0 0 1-3.799-2.985 387.282 387.282 0 0 0-3.666-4.08m-30.344-7.89c-1.683-3.285-8.097-11.547-10.038-15.436.321-1.05 2.306-3.978 5.323-6.145 3.026-2.172 4.17-2.484 5.264-2.45 2.23 2.247 8.406 9.419 10.372 11.43"/></svg>