<svg xmlns="http://www.w3.org/2000/svg" width="192" height="192" fill="none" viewBox="0 0 192 192"><path stroke="#000" stroke-linecap="round" stroke-linejoin="round" stroke-width="8" d="m88 72-10 48m36-48-10 48M74 83h48m-52 25h48"/><path stroke="#000" stroke-linecap="round" stroke-linejoin="round" stroke-width="12" d="M54.668 32.349c3.069-8.221 12.218-12.404 20.447-9.35l84.509 31.374c8.247 3.061 12.443 12.231 9.368 20.47l-31.66 84.808c-3.069 8.221-12.218 12.405-20.447 9.35l-84.509-31.374c-8.247-3.061-12.443-12.231-9.368-20.47z"/><path stroke="#000" stroke-linecap="round" stroke-linejoin="round" stroke-width="10" d="M87.668 36.609c4.936-4.863 12.874-4.804 17.74.132l49.972 50.694c4.876 4.947 4.819 12.916-.127 17.789l-50.921 50.167c-4.936 4.863-12.874 4.804-17.74-.132L36.62 104.565c-4.876-4.947-4.82-12.916.128-17.79z"/></svg>