<svg xmlns="http://www.w3.org/2000/svg" id="Layer_1" width="192" height="192" viewBox="0 0 192 192"><defs><style>.cls-2,.cls-3{fill:none;stroke-width:12px;stroke:#000;stroke-linecap:round;stroke-miterlimit:10}.cls-3{stroke-width:8px}</style></defs><path d="M0 0h192v192H0z" style="fill:none"/><path d="M96 28c37.5 0 68 30.5 68 68s-30.5 68-68 68-68-30.5-68-68 30.5-68 68-68m0-12c-44.18 0-80 35.82-80 80s35.82 80 80 80 80-35.82 80-80-35.82-80-80-80Z"/><path d="M37.87 96h7.63M96 155.32v-7.64M138.7 136.2l-5.4-5.4M53.98 136.7l5.41-5.4M53.98 54.3l5.41 5.4" class="cls-3"/><path d="M96 96V41.71M96 96l37.37-37.37M96 96h53.81" class="cls-2"/></svg>