<svg width="192" height="192" viewBox="0 0 192 192" fill="none" xmlns="http://www.w3.org/2000/svg"><path d="M118 103a21.992 21.992 0 0 1-6.444 15.556A21.99 21.99 0 0 1 96 125a21.992 21.992 0 0 1-15.556-6.444A22.005 22.005 0 0 1 74 103m22-81v12m74 62h-12m-62 62v12M74 71v32m44-32v32m-84-7H22" stroke="#000" stroke-width="12" stroke-linecap="round" stroke-linejoin="round"/><path d="m40.846 40.846 7.07 7.07m103.238-7.07-7.071 7.07m0 96.167 7.071 7.071m-103.237-7.071-7.071 7.071M66.15 23.938l3.828 9.238m98.085 32.975-9.239 3.827m-36.801 88.846 3.826 9.239m-92.673-46.04-9.239 3.826M125.849 23.937l-3.826 9.24M23.938 66.15l9.238 3.826m36.802 88.847-3.827 9.238m92.673-46.04 9.239 3.827" stroke="#000" stroke-width="10" stroke-linecap="round" stroke-linejoin="round"/></svg>