<svg width="192" height="192" viewBox="0 0 192 192" fill="none" xmlns="http://www.w3.org/2000/svg"><path d="M26.358 98.319A75 75 0 0 1 63.583 26M22 26h41.583m0 0v36.583" stroke="#000" stroke-width="12" stroke-linecap="round" stroke-linejoin="round"/><circle cx="96" cy="26" r="5" stroke="#000" stroke-width="10" stroke-linecap="round" stroke-linejoin="round"/><circle cx="5" cy="5" r="5" transform="matrix(1 0 0 -1 151.622 66)" stroke="#000" stroke-width="10" stroke-linecap="round" stroke-linejoin="round"/><circle cx="166" cy="96" r="5" stroke="#000" stroke-width="10" stroke-linecap="round" stroke-linejoin="round"/><circle cx="131" cy="35.378" r="5" stroke="#000" stroke-width="10" stroke-linecap="round" stroke-linejoin="round"/><circle cx="96" cy="166" r="5" stroke="#000" stroke-width="10" stroke-linecap="round" stroke-linejoin="round"/><circle cx="156.622" cy="131" r="5" stroke="#000" stroke-width="10" stroke-linecap="round" stroke-linejoin="round"/><circle cx="5" cy="5" r="5" transform="matrix(1 0 0 -1 30.378 136)" stroke="#000" stroke-width="10" stroke-linecap="round" stroke-linejoin="round"/><circle cx="61" cy="156.622" r="5" stroke="#000" stroke-width="10" stroke-linecap="round" stroke-linejoin="round"/><circle cx="5" cy="5" r="5" transform="matrix(1 0 0 -1 126 161.622)" stroke="#000" stroke-width="10" stroke-linecap="round" stroke-linejoin="round"/></svg>