<svg width="192" height="192" viewBox="0 0 192 192" fill="none" xmlns="http://www.w3.org/2000/svg"><path d="m72.281 96.719 13.02 13.019c3.779 3.779 10.246 1.214 10.408-4.128l.582-19.22c.162-5.342 6.629-7.907 10.409-4.128l13.019 13.02m44.929-24.5c5.761-14.505 6.904-27.004 3.269-35.749-3.634-8.744-11.865-13.297-23.54-13.021-11.675.276-26.211 5.366-41.574 14.56-15.364 9.193-30.786 22.03-44.11 36.714m62.525 91.362c14.505 5.761 27.004 6.904 35.749 3.269 8.744-3.634 13.297-11.865 13.021-23.54-.276-11.675-5.366-26.211-14.56-41.574-9.193-15.364-22.03-30.786-36.714-44.11M26.88 122.427c-5.44 14.226-6.357 26.427-2.627 34.938 3.73 8.512 11.925 12.919 23.468 12.62 11.542-.299 25.87-5.289 41.026-14.29 15.157-9 30.406-21.572 43.665-36.001M69.572 26.88c-14.226-5.44-26.427-6.357-34.939-2.627-8.51 3.73-12.918 11.925-12.619 23.468.3 11.542 5.29 25.87 14.29 41.026 9 15.157 21.572 30.406 36 43.665" stroke="#000" stroke-width="12" stroke-linecap="round" stroke-linejoin="round"/></svg>