<svg xmlns="http://www.w3.org/2000/svg" width="192" height="192" fill="none"><path stroke="#000" stroke-linecap="round" stroke-linejoin="round" stroke-width="10" d="m96 95 9.757-9.757a6 6 0 0 0 0-8.486l-5.514-5.514a6 6 0 0 0-8.486 0l-5.514 5.514a6 6 0 0 0 0 8.486zm0 0-14 14-9.757-9.757a6 6 0 0 0-8.486 0l-5.514 5.514a6 6 0 0 0 0 8.486l33.514 33.514a6 6 0 0 0 8.486 0l33.514-33.514a6 6 0 0 0 0-8.486l-5.514-5.514a6 6 0 0 0-8.486 0L110 109z"/><path stroke="#000" stroke-linecap="round" stroke-linejoin="round" stroke-width="12" d="M28.977 40.92C29.551 30.31 38.322 22 48.948 22h94.104c10.626 0 19.397 8.31 19.971 18.92l5.838 108c.619 11.454-8.501 21.08-19.971 21.08H43.11c-11.47 0-20.59-9.626-19.97-21.08z"/><path stroke="#000" stroke-linecap="round" stroke-linejoin="round" stroke-width="12" d="M58 22v10c0 8.837 7.163 16 16 16h44c8.837 0 16-7.163 16-16V22"/></svg>