<svg width="192" height="192" viewBox="0 0 192 192" fill="none" xmlns="http://www.w3.org/2000/svg"><path d="m96 95 9.757-9.757a5.998 5.998 0 0 0 0-8.486l-5.514-5.514a6 6 0 0 0-8.486 0l-5.514 5.514a6 6 0 0 0 0 8.486L96 95Zm0 0-14 14-9.757-9.757a6 6 0 0 0-8.486 0l-5.514 5.514a6.001 6.001 0 0 0 0 8.486l33.514 33.514a5.999 5.999 0 0 0 8.486 0l33.514-33.514a6 6 0 0 0 0-8.486l-5.514-5.514a6.001 6.001 0 0 0-8.486 0L110 109 96 95Z" stroke="#000" stroke-width="10" stroke-linecap="round" stroke-linejoin="round"/><path d="M28.977 40.92C29.551 30.31 38.322 22 48.948 22h94.104c10.626 0 19.397 8.31 19.971 18.92l5.838 108c.619 11.454-8.501 21.08-19.971 21.08H43.11c-11.47 0-20.59-9.626-19.97-21.08l5.837-108Z" stroke="#000" stroke-width="12" stroke-linecap="round" stroke-linejoin="round"/><path d="M58 22v10c0 8.837 7.163 16 16 16h44c8.837 0 16-7.163 16-16V22" stroke="#000" stroke-width="12" stroke-linecap="round" stroke-linejoin="round"/></svg>