<svg xmlns="http://www.w3.org/2000/svg" width="192" height="192" fill="none" viewBox="0 0 192 192"><path stroke="#000" stroke-linecap="round" stroke-linejoin="round" stroke-width="12" d="m96 86 28 40H68z"/><path stroke="#000" stroke-linecap="round" stroke-linejoin="round" stroke-width="12" d="M115.799 105.799a28 28 0 0 0 6.07-30.514 28.002 28.002 0 0 0-51.738 0 28 28 0 0 0 6.07 30.514"/><path stroke="#000" stroke-linejoin="round" stroke-width="12" d="m101.13 23.385 54.735 31.831A10.4 10.4 0 0 1 161 64.169v63.662c0 1.815-.475 3.598-1.376 5.17a10.3 10.3 0 0 1-3.759 3.783l-54.735 31.831A10.2 10.2 0 0 1 96 170c-1.801 0-3.57-.478-5.13-1.385l-54.735-31.831A10.4 10.4 0 0 1 31 127.831V64.169c0-1.815.475-3.598 1.376-5.17a10.3 10.3 0 0 1 3.759-3.783L90.87 23.385a10.2 10.2 0 0 1 10.26 0Z"/></svg>