<svg width="192" height="192" viewBox="0 0 192 192" fill="none" xmlns="http://www.w3.org/2000/svg">
<path d="M145 56C154.389 56 162 48.3888 162 39C162 29.6112 154.389 22 145 22C135.611 22 128 29.6112 128 39C128 48.3888 135.611 56 145 56Z" stroke="black" stroke-width="12"/>
<path d="M30 34V104C30 140.451 59.5492 170 96 170M96 170C132.451 170 162 140.451 162 104V83C162 79.6863 159.314 77 156 77H134C130.686 77 128 79.6863 128 83V104C128 121.673 113.673 136 96 136M96 170V136M64 34V104C64 121.673 78.3269 136 96 136" stroke="black" stroke-width="12" stroke-linecap="round" stroke-linejoin="round"/>
</svg>
