<svg width="192" height="192" viewBox="0 0 192 192" fill="none" xmlns="http://www.w3.org/2000/svg"><path d="M83 98a30.003 30.003 0 0 1-18.52 27.716 29.994 29.994 0 0 1-32.693-6.503A30.008 30.008 0 0 1 23 98m146 20.627a32.287 32.287 0 0 1-16.496 8.758 32.42 32.42 0 0 1-18.615-1.821 32.168 32.168 0 0 1-14.459-11.786A31.846 31.846 0 0 1 114 96c0-6.329 1.89-12.516 5.43-17.778a32.171 32.171 0 0 1 14.459-11.786 32.423 32.423 0 0 1 18.615-1.821A32.29 32.29 0 0 1 169 73.373M23 64v34m60-34v34" stroke="#000" stroke-width="14" stroke-linecap="round" stroke-linejoin="round"/></svg>