<svg width="192" height="192" viewBox="0 0 192 192" fill="none" xmlns="http://www.w3.org/2000/svg">
<path d="M143.702 71C141.995 90.9381 133.066 108.814 119.542 122M48.5 39.1847C74.3558 52.7136 92 79.7963 92 111C92 134.124 82.31 154.985 66.769 169.744M92 106.932C114.549 114.241 132.765 131.171 141.806 152.88M77.6612 22.2192C90.119 50.9234 118.715 71 152 71C158.119 71 164.079 70.3216 169.809 69.0359M124.5 22H67.5C62.8056 22 59 25.8056 59 30.5C59 35.1944 55.1944 39 50.5 39H49C43.4772 39 39 43.4772 39 49V50.5C39 55.1944 35.1944 59 30.5 59C25.8056 59 22 62.8056 22 67.5V124.5C22 129.194 25.8056 133 30.5 133C35.1944 133 39 136.806 39 141.5V143C39 148.523 43.4772 153 49 153H50.5C55.1944 153 59 156.806 59 161.5C59 166.194 62.8056 170 67.5 170H124.5C129.194 170 133 166.194 133 161.5C133 156.806 136.806 153 141.5 153H143C148.523 153 153 148.523 153 143V141.5C153 136.806 156.806 133 161.5 133C166.194 133 170 129.194 170 124.5V67.5C170 62.8056 166.194 59 161.5 59C156.806 59 153 55.1944 153 50.5V49C153 43.4772 148.523 39 143 39H141.5C136.806 39 133 35.1944 133 30.5C133 25.8056 129.194 22 124.5 22Z" stroke="black" stroke-width="12"/>
</svg>
