<svg width="192" height="192" viewBox="0 0 192 192" fill="none" xmlns="http://www.w3.org/2000/svg">
<path d="M141.768 72.0135C140.13 91.1433 131.563 108.295 118.588 120.946M50.4257 41.488C75.2332 54.4685 92.1622 80.4532 92.1622 110.392C92.1622 132.579 82.865 152.594 67.9541 166.754M92.1622 106.488C113.797 113.501 131.274 129.745 139.949 150.574M78.4047 25.2103C90.3574 52.7508 117.794 72.0135 149.73 72.0135C155.6 72.0135 161.319 71.3626 166.817 70.1291M123.345 25H68.6554C64.1513 25 60.5 28.6513 60.5 33.1554C60.5 37.6595 56.8487 41.3108 52.3446 41.3108H50.9054C45.6065 41.3108 41.3108 45.6065 41.3108 50.9054V52.3446C41.3108 56.8487 37.6595 60.5 33.1554 60.5C28.6513 60.5 25 64.1513 25 68.6554V123.345C25 127.849 28.6513 131.5 33.1554 131.5C37.6595 131.5 41.3108 135.151 41.3108 139.655V141.095C41.3108 146.394 45.6065 150.689 50.9054 150.689H52.3446C56.8487 150.689 60.5 154.34 60.5 158.845C60.5 163.349 64.1513 167 68.6554 167H123.345C127.849 167 131.5 163.349 131.5 158.845C131.5 154.34 135.151 150.689 139.655 150.689H141.095C146.394 150.689 150.689 146.394 150.689 141.095V139.655C150.689 135.151 154.34 131.5 158.845 131.5C163.349 131.5 167 127.849 167 123.345V68.6554C167 64.1513 163.349 60.5 158.845 60.5C154.34 60.5 150.689 56.8487 150.689 52.3446V50.9054C150.689 45.6065 146.394 41.3108 141.095 41.3108H139.655C135.151 41.3108 131.5 37.6595 131.5 33.1554C131.5 28.6513 127.849 25 123.345 25Z" stroke="black" stroke-width="12"/>
</svg>
