<svg xmlns="http://www.w3.org/2000/svg" width="192" height="192" fill="none"><path stroke="#000" stroke-width="12" d="M143.702 71c-1.707 19.938-10.636 37.815-24.16 51M48.5 39.185C74.356 52.714 92 79.796 92 111c0 23.125-9.69 43.985-25.23 58.744M92 106.931c22.549 7.309 40.764 24.24 49.806 45.949M77.661 22.22C90.12 50.922 118.715 71 152 71a81.3 81.3 0 0 0 17.809-1.964M124.5 22h-57a8.5 8.5 0 0 0-8.5 8.5 8.5 8.5 0 0 1-8.5 8.5H49c-5.523 0-10 4.477-10 10v1.5a8.5 8.5 0 0 1-8.5 8.5 8.5 8.5 0 0 0-8.5 8.5v57a8.5 8.5 0 0 0 8.5 8.5 8.5 8.5 0 0 1 8.5 8.5v1.5c0 5.523 4.477 10 10 10h1.5a8.5 8.5 0 0 1 8.5 8.5 8.5 8.5 0 0 0 8.5 8.5h57a8.5 8.5 0 0 0 8.5-8.5 8.5 8.5 0 0 1 8.5-8.5h1.5c5.523 0 10-4.477 10-10v-1.5a8.5 8.5 0 0 1 8.5-8.5 8.5 8.5 0 0 0 8.5-8.5v-57a8.5 8.5 0 0 0-8.5-8.5 8.5 8.5 0 0 1-8.5-8.5V49c0-5.523-4.477-10-10-10h-1.5a8.5 8.5 0 0 1-8.5-8.5 8.5 8.5 0 0 0-8.5-8.5Z"/></svg>