<svg xmlns="http://www.w3.org/2000/svg" width="192" height="192" fill="none" viewBox="0 0 192 192"><path stroke="#000" stroke-linecap="round" stroke-linejoin="round" stroke-width="12" d="m38.093 138.235 54.9 30.976a6.13 6.13 0 0 0 6.014 0l54.9-30.976a6.07 6.07 0 0 0 3.093-5.284V59.049a6.07 6.07 0 0 0-3.093-5.284l-54.9-30.976a6.12 6.12 0 0 0-6.014 0l-54.9 30.976A6.07 6.07 0 0 0 35 59.049v73.902a6.07 6.07 0 0 0 3.093 5.284"/><path stroke="#000" stroke-linecap="round" stroke-linejoin="round" stroke-width="12" d="M156 94h-28.036a6 6 0 0 0-3.548 1.162L96 116 67.584 95.162A6 6 0 0 0 64.036 94H36"/></svg>