<svg xmlns="http://www.w3.org/2000/svg" width="192" height="192" fill="none"><path stroke="#000" stroke-linecap="round" stroke-linejoin="round" stroke-width="12" d="M48 62a13 13 0 0 0-26 0m0 13a74.005 74.005 0 0 0 45.681 68.367 73.997 73.997 0 0 0 96.686-40.048A74 74 0 0 0 170 75"/><path stroke="#000" stroke-linecap="round" stroke-linejoin="round" stroke-width="12" d="M48 75a48 48 0 0 0 96 0"/><circle cx="96" cy="75" r="26" stroke="#000" stroke-linecap="round" stroke-linejoin="round" stroke-width="12"/><path stroke="#000" stroke-linecap="round" stroke-linejoin="round" stroke-width="12" d="M170 62a13 13 0 0 0-3.808-9.192A13 13 0 0 0 144 62M22 62v13m122-13v13M48 62v13m122-13v13"/></svg>