<svg xmlns="http://www.w3.org/2000/svg" width="192" height="192" fill="none" stroke="#000" stroke-linejoin="round" stroke-width="12" viewBox="0 0 192 192"><path d="M156.784 135.66A21 21 0 0 1 144 140H22l16.988-66.506A29 29 0 0 1 67 52h87a16 16 0 0 1 16 16c0 4.243-1.686 8.313-4.686 11.314C159 86 146 92 146 92c16 12 15.632 14.693 17.401 18.964a20.995 20.995 0 0 1-6.617 24.696z"/><path d="M151.5 52C92 52 68 52 61 99c31-47 51-47 90.5-47zS136 56 120 72s-42.65 50.649-48 55.999c-8 8-16 12-27.5 12"/></svg>