<svg xmlns="http://www.w3.org/2000/svg" width="192" height="192" fill="none" stroke="#000" stroke-linecap="round" stroke-linejoin="round" stroke-width="14" viewBox="0 0 192 192"><path d="m145.351 122.124 21.887-21.886a6 6 0 0 0 0-8.486l-17.645-17.644a6 6 0 0 0-8.485 0l-17.644 17.644a6 6 0 0 0 0 8.486zm0 0-45.113 45.113a6 6 0 0 1-8.486 0L46.64 122.124m0 0 21.886-21.886a6 6 0 0 0 0-8.486L50.882 74.108a6 6 0 0 0-8.485 0L24.753 91.752a6 6 0 0 0 0 8.486l21.886 21.886z"/><path d="m95.995 116.318 4.355 4.355-4.355 4.355-4.355-4.355zm4.243-91.565 17.644 17.644a6 6 0 0 1 0 8.485l-17.644 17.644a6 6 0 0 1-8.486 0L74.108 50.882a6 6 0 0 1 0-8.485l17.644-17.644a6 6 0 0 1 8.486 0"/></svg>