<svg width="192" height="192" viewBox="0 0 192 192" fill="none" xmlns="http://www.w3.org/2000/svg"><path d="M156.784 135.66A20.996 20.996 0 0 1 144 140H22l16.988-66.506A29 29 0 0 1 67 52h87a16.002 16.002 0 0 1 16 16c0 4.243-1.686 8.313-4.686 11.314C159 86 146 92 146 92c16 12 15.632 14.693 17.401 18.964a20.989 20.989 0 0 1 .883 13.471 20.99 20.99 0 0 1-7.5 11.225Z" stroke="#000" stroke-width="12" stroke-linecap="round" stroke-linejoin="round"/><path d="M62 98.999C85 52 92 52 151.5 52c0 0-15.5 4-31.5 20s-42.65 50.65-48 56c-8 8-16 12-27.5 12" stroke="#000" stroke-width="12" stroke-linecap="round" stroke-linejoin="round"/></svg>