<?xml version="1.0" encoding="utf-8"?>
	<svg version="1.1" xmlns="http://www.w3.org/2000/svg" xmlns:xlink="http://www.w3.org/1999/xlink" x="0px" y="0px" width="240.0" height="240.0" xml:space="preserve">
		<path d="M152.85,10C155.05,10 157.067,11.283 157.983,13.483L187.317,86.817C187.683,87.733 187.867,89.017 187.5,90.117L152.483,230L87.217,230L52.2,90.117C51.833,89.017 52.017,87.917 52.383,86.817L81.717,13.483C82.633,11.283 84.65,10 86.85,10ZM114.35,65L114.35,81.5C114.35,82.6 113.617,83.333 112.517,83.333L96.2,83.333C93.45,83.333 91.067,85.167 90.517,87.733C89.967,91.217 92.533,94.333 96.017,94.333L112.517,94.333C113.617,94.333 114.35,95.067 114.35,96.167L114.35,161.983C114.35,164.733 116.183,167.117 118.75,167.667C122.233,168.4 125.35,165.65 125.35,162.35L125.35,96.167C125.35,95.067 126.083,94.333 127.183,94.333L143.683,94.333C147.167,94.333 149.733,91.217 149,87.733C148.633,85.167 146.067,83.333 143.5,83.333L127.183,83.333C126.083,83.333 125.35,82.6 125.35,81.5L125.35,65.183C125.35,62.433 123.517,60.05 120.95,59.5C117.467,58.95 114.35,61.517 114.35,65Z" fill="#000" stroke="#00000000" stroke-width="1.0" stroke-miterlimit=""/>
	</svg>
