<svg id="svg" xmlns="http://www.w3.org/2000/svg" xmlns:xlink="http://www.w3.org/1999/xlink" width="400" height="400" viewBox="0, 0, 400,400" version="1.1"><g id="svgg"><path id="path0" d="M170.643 12.079 C 159.616 14.750,157.384 18.527,150.476 46.206 C 142.922 76.467,119.374 87.823,85.273 77.648 C 60.722 70.323,54.253 73.369,38.842 99.510 C 17.786 135.228,17.285 140.095,32.981 156.440 C 64.004 188.746,65.134 209.497,37.405 237.673 C 17.810 257.585,17.411 262.186,32.901 289.500 C 53.017 324.972,60.083 329.632,82.500 322.206 C 108.952 313.443,122.863 315.725,138.522 331.396 C 145.841 338.719,149.248 346.501,153.895 366.500 C 156.360 377.111,159.670 382.423,166.044 386.000 L 170.500 388.500 199.500 388.500 C 237.001 388.500,241.772 386.468,246.364 368.540 C 247.215 365.218,248.845 358.744,249.987 354.154 C 257.181 325.236,280.167 311.627,308.500 319.511 C 341.034 328.565,345.797 326.843,361.108 300.500 C 384.041 261.042,384.082 259.607,362.929 237.177 C 335.812 208.424,337.072 182.592,366.782 158.175 C 378.181 148.808,381.346 135.580,375.153 123.194 C 351.644 76.176,343.083 69.505,316.565 77.543 C 279.434 88.800,256.512 75.163,247.513 36.463 C 244.391 23.038,240.759 16.630,234.500 13.500 C 230.020 11.260,178.733 10.119,170.643 12.079 M226.283 23.801 C 232.120 26.383,235.170 31.556,237.989 43.656 C 247.337 83.773,278.199 101.940,315.934 89.539 C 334.313 83.498,339.114 84.970,348.625 99.560 C 351.581 104.096,354.000 108.067,354.000 108.386 C 354.000 108.704,355.864 112.010,358.142 115.732 C 369.787 134.756,369.151 139.765,353.118 155.291 C 337.923 170.005,334.100 177.743,333.242 195.519 C 332.245 216.171,335.831 225.122,352.193 242.818 C 369.792 261.852,369.807 262.561,353.224 291.830 C 341.460 312.596,334.797 316.321,318.959 310.986 C 278.836 297.470,249.277 312.861,238.868 352.689 C 232.666 376.422,232.538 376.500,200.000 376.500 C 168.763 376.500,167.733 375.921,162.611 355.482 C 152.566 315.392,121.945 297.012,85.735 309.336 C 64.214 316.661,60.263 314.589,45.043 288.000 C 31.541 264.413,31.877 260.407,48.854 242.555 C 76.121 213.885,74.802 181.098,45.246 152.893 C 31.112 139.406,31.036 135.790,44.394 112.518 C 60.560 84.354,62.944 83.002,85.000 89.486 C 123.933 100.931,151.602 86.272,161.111 49.162 C 165.730 31.134,167.610 27.309,173.329 24.303 C 180.568 20.497,218.012 20.142,226.283 23.801 M156.571 128.571 C 151.102 134.041,155.058 137.835,182.500 153.440 C 184.700 154.691,196.625 161.758,209.000 169.145 C 221.375 176.531,234.702 184.454,238.615 186.752 C 257.698 197.955,256.613 204.520,233.500 217.710 C 229.650 219.907,218.400 226.433,208.500 232.212 C 198.600 237.992,183.300 246.877,174.500 251.958 C 165.700 257.039,157.488 262.302,156.250 263.654 C 152.027 268.267,154.458 274.000,160.638 274.000 C 164.032 274.000,163.964 274.039,201.738 250.089 C 205.718 247.565,219.436 238.975,232.220 231.000 C 262.744 211.959,265.000 209.895,265.000 201.010 C 265.000 192.131,262.707 189.624,243.500 177.509 C 235.800 172.652,225.900 166.356,221.500 163.518 C 187.800 141.785,177.178 134.958,171.294 131.250 C 164.066 126.695,159.313 125.830,156.571 128.571 M156.734 169.994 L 154.000 172.145 154.000 200.000 L 154.000 227.855 156.734 230.006 C 160.301 232.811,163.196 232.208,172.916 226.635 C 177.087 224.244,182.975 220.917,186.000 219.243 C 219.993 200.427,220.142 199.960,196.472 186.634 C 188.787 182.308,178.616 176.570,173.869 173.883 C 163.060 167.765,160.350 167.150,156.734 169.994 " stroke="none" fill="#000000" fill-rule="evenodd"></path></g></svg>