<svg width="192" height="192" fill="none" xmlns="http://www.w3.org/2000/svg"><path d="m28 38 22-9 18 6 24 28 28-26 21-9 21 7 8 26-41 62-38 43-46-54-23-49 6-25Z" stroke="#000" stroke-width="12" stroke-linecap="round" stroke-linejoin="round"/><path d="M65 87s13 20 28 37c11-16 40-60 40-60" stroke="#000" stroke-width="12" stroke-linecap="round" stroke-linejoin="round"/><path d="m47.5 52.206 4.51 7.704 6.012-6.598-5.934 6.67 8.134 3.679-8.177-3.583-.986 8.873.88-8.884-8.742 1.804 8.72-1.908-4.417-7.757Z" stroke="#000" stroke-width="10" stroke-linecap="round" stroke-linejoin="round"/></svg>