<svg width="192" height="192" viewBox="0 0 192 192" fill="none" xmlns="http://www.w3.org/2000/svg"><path d="M160.086 59A74.005 74.005 0 0 0 96 22m-22.867 3.622a74.012 74.012 0 0 0-8.64 3.42M45.532 41.88a74.055 74.055 0 0 0-3.3 3.276M31.91 133a74.005 74.005 0 0 0 64.086 37m22.867-3.622a74.041 74.041 0 0 0 8.641-3.421m18.96-12.837a73.83 73.83 0 0 0 3.298-3.276" stroke="#000" stroke-width="12" stroke-linecap="round" stroke-linejoin="round"/><path d="m44 77 2 36h7l17-36m27 18a8.999 8.999 0 0 0 6.364-15.364A9.003 9.003 0 0 0 97 77" stroke="#000" stroke-width="10" stroke-linecap="round" stroke-linejoin="round"/><path d="M97 113a9.004 9.004 0 0 0 8.315-5.556 9.005 9.005 0 0 0-1.951-9.808A9.003 9.003 0 0 0 97 95m-8-18h8m-17 36h17M85 95h12m-8-18-9 36m60-18a8.999 8.999 0 1 0 0-18m0 36a9.005 9.005 0 0 0 8.315-5.556 9.005 9.005 0 0 0-1.951-9.808A9.003 9.003 0 0 0 140 95m-8-18h8m-17 36h17m-12-18h12m-8-18-9 36" stroke="#000" stroke-width="10" stroke-linecap="round" stroke-linejoin="round"/></svg>