<svg width="192" height="192" viewBox="0 0 192 192" fill="none" xmlns="http://www.w3.org/2000/svg">
<path d="M127 169L68 155.803L45 150.659L27.9409 146.843C25.0871 146.205 23.1091 143.602 23.2584 140.682L27.0239 67M169 51.5C169 67.2401 156.24 80 140.5 80C124.76 80 112 67.2401 112 51.5C112 35.7599 124.76 23 140.5 23C156.24 23 169 35.7599 169 51.5ZM56.9322 125.24L111.149 137.435C116.587 138.658 120.609 132.452 117.271 127.988L65.9245 59.3131C62.5606 54.814 55.412 56.9911 55.1269 62.6015L52.2566 119.082C52.1083 121.999 54.0824 124.599 56.9322 125.24Z" stroke="black" stroke-width="14" stroke-linecap="round" stroke-linejoin="round"/>
</svg>
