<svg xmlns="http://www.w3.org/2000/svg" width="192" height="192" viewBox="0 0 50.8 50.8"><g fill="none" stroke="#000" stroke-linecap="round" stroke-linejoin="round" stroke-width="3.087"><path d="m38.894 28.575-28.575 6.35M7.938 32.544a17.278 17.278 0 0 1 4.283-9.745 17.278 17.278 0 0 1 9.21-5.336 17.274 17.274 0 0 1 10.4 1.047 17.272 17.272 0 0 1 7.857 6.89" transform="matrix(1.0278 0 0 1.0291 .109 -1.556)"/><path d="M29.596 29.676a2.412 2.412 0 0 1-.098-1.995 2.411 2.411 0 0 1 1.459-1.365 2.411 2.411 0 0 1 1.984.229 2.412 2.412 0 0 1 1.11 1.66c.037.244.037.493 0 .736" transform="matrix(1.0278 0 0 1.0291 .109 -1.556)"/><g transform="matrix(1.0278 0 0 1.0291 .109 -1.556)"><circle cx="18.256" cy="28.575" r="2.381"/><circle cx="41.275" cy="27.781" r="2.381"/><circle cx="7.938" cy="35.719" r="2.381"/><path d="m15.081 19.844-3.969-5.556M34.925 19.844l3.969-5.556"/></g></g></svg>