<svg width="192" height="192" viewBox="0 0 192 192" fill="none" xmlns="http://www.w3.org/2000/svg"><path d="M22 56c0-6.627 5.373-12 12-12h21.292a6 6 0 0 0 4.5-2.03l11.417-12.94A5.998 5.998 0 0 1 75.708 27h40.584c1.722 0 3.36.74 4.499 2.03l11.418 12.94a5.994 5.994 0 0 0 4.499 2.03H158c6.627 0 12 5.373 12 12v94c0 6.627-5.373 12-12 12H34c-6.627 0-12-5.373-12-12V56Z" stroke="#000" stroke-width="12" stroke-linecap="round" stroke-linejoin="round"/><path d="M96 139c21.539 0 39-17.461 39-39 0-21.54-17.461-39-39-39-21.54 0-39 17.46-39 39 0 21.539 17.46 39 39 39Z" stroke="#000" stroke-width="12" stroke-linecap="round" stroke-linejoin="round"/><path d="M96 114c7.732 0 14-6.268 14-14s-6.268-14-14-14-14 6.268-14 14 6.268 14 14 14Z" stroke="#000" stroke-width="12" stroke-linecap="round" stroke-linejoin="round"/></svg>