<?xml version="1.0" encoding="UTF-8" standalone="no"?>
<svg
   width="192"
   height="192"
   viewBox="0 0 192 192"
   fill="none"
   version="1.1"
   id="svg7780"
   sodipodi:docname="veepee.svg"
   xml:space="preserve"
   inkscape:version="1.2 (dc2aedaf03, 2022-05-15)"
   xmlns:inkscape="http://www.inkscape.org/namespaces/inkscape"
   xmlns:sodipodi="http://sodipodi.sourceforge.net/DTD/sodipodi-0.dtd"
   xmlns="http://www.w3.org/2000/svg"
   xmlns:svg="http://www.w3.org/2000/svg"><defs
     id="defs7784"><clipPath
       clipPathUnits="userSpaceOnUse"
       id="clipPath3015"><path
         inkscape:connector-curvature="0"
         d="M 73.944,764.16 242.804,764.16 242.804,827.76 73.944,827.76 73.944,764.16 z"
         clip-rule="evenodd"
         id="path3017" /></clipPath><clipPath
       clipPathUnits="userSpaceOnUse"
       id="clipPath3025"><path
         inkscape:connector-curvature="0"
         d="M 0,0 170.09,0 170.09,38.105 0,38.105 0,0 z"
         id="path3027" /></clipPath><clipPath
       clipPathUnits="userSpaceOnUse"
       id="clipPath3107"><path
         inkscape:connector-curvature="0"
         d="M 73.944,764.16 242.804,764.16 242.804,827.76 73.944,827.76 73.944,764.16 z"
         clip-rule="evenodd"
         id="path3109" /></clipPath></defs><sodipodi:namedview
     id="namedview7782"
     pagecolor="#ffffff"
     bordercolor="#000000"
     borderopacity="0.25"
     inkscape:showpageshadow="2"
     inkscape:pageopacity="0.0"
     inkscape:pagecheckerboard="0"
     inkscape:deskcolor="#d1d1d1"
     showgrid="false"
     inkscape:zoom="2.8578899"
     inkscape:cx="67.182434"
     inkscape:cy="110.57109"
     inkscape:window-width="1920"
     inkscape:window-height="974"
     inkscape:window-x="-11"
     inkscape:window-y="-11"
     inkscape:window-maximized="1"
     inkscape:current-layer="svg7780" /><path
     inkscape:connector-curvature="0"
     d="m 141.42527,108.1153 c -1.36055,0 -5.35149,5.68192 -13.51478,12.7537 10.83904,-14.14355 24.30845,-49.737994 9.47848,-88.225219 -2.67574,1.389856 -9.47848,4.292064 -16.1905,19.938541 -10.70298,-18.548685 -28.208682,-29.90781 -28.208682,-29.90781 0,0 -28.344733,29.90781 -14.829964,88.220498 -39.093057,12.87148 -29.569226,32.81002 -18.866255,48.46027 1.315196,0 1.315196,0 1.315196,1.39127 0,0 -12.018167,-21.32887 -3.990939,-29.90828 0,0 2.675743,-4.17428 13.469417,-9.96927 6.712033,-2.78442 10.748324,-2.78442 10.748324,-2.78442 -1.360548,-24.23061 -2.675743,-51.240925 14.829964,-78.369023 1.315196,0 24.217739,14.261333 29.569219,54.138413 1.36055,21.3331 -16.05445,42.6615 -25.578281,48.4612 -10.702971,7.07178 -22.857193,14.14356 -37.687157,19.93855 -5.351486,2.78206 -9.387775,4.17334 -14.739261,7.07177 0,0 57.823249,-9.97021 96.870959,-56.92284 0,0 2.67574,-4.28735 -2.67574,-4.28735 z M 130.72229,79.597349 c 0,-8.466342 -2.8118,-14.261333 -5.48754,-21.333108 0,0 0,0 0,0 4.0363,-9.96927 8.16328,-12.753693 8.16328,-12.753693 0,0 20.18146,52.635485 -18.86625,86.835362 0,0 -1.36054,0 -1.36054,1.38985 9.38777,-9.96927 20.22679,-27.01031 17.55105,-54.138411 z"
     style="fill:none;fill-opacity:1;fill-rule:nonzero;stroke:#000000;stroke-width:14;stroke-opacity:1;stroke-dasharray:none"
     id="path3031" /></svg>
