<svg xmlns="http://www.w3.org/2000/svg" width="192" height="192" fill="none"><path stroke="#000" stroke-linecap="round" stroke-linejoin="round" stroke-width="12" d="M34 137v16a6 6 0 0 0 6 6h10a6 6 0 0 0 6-6v-16m80-20H56m80 20v16a6 6 0 0 0 6 6h10a6 6 0 0 0 6-6v-16M28 79l11.008-9.174a6 6 0 0 0 1.556-1.987l14.795-31.46A6 6 0 0 1 60.756 33h70.488a6 6 0 0 1 5.397 3.379l14.795 31.46a6 6 0 0 0 1.556 1.987L164 79M28 119v12a6 6 0 0 0 6 6h124a6 6 0 0 0 6-6v-12M41 69h110M42 64H22m22 35H28m122-35h20m-22 35h16"/><circle cx="96" cy="93" r="5" stroke="#000" stroke-linecap="round" stroke-linejoin="round" stroke-width="10"/></svg>