<svg width="192" height="192" viewBox="0 0 192 192" fill="none" xmlns="http://www.w3.org/2000/svg"><path d="M172 37.443a8 8 0 0 0-7.942-8l-53.417-.385a8 8 0 0 0-8.058 8v117.989a8 8 0 0 0 8 8H164a8 8 0 0 0 8-8V37.443ZM87.024 29h-64.63C21.072 29 20 30.017 20 31.272v129.504c0 1.254 1.072 2.271 2.394 2.271h64.63c1.322 0 2.393-1.017 2.393-2.271V31.272c0-1.255-1.071-2.272-2.393-2.272Z" stroke="#000" stroke-width="8"/><path d="M54.709 40.968c1.983 0 3.59-1.34 3.59-2.992s-1.607-2.992-3.59-2.992c-1.983 0-3.59 1.34-3.59 2.992 0 1.653 1.607 2.992 3.59 2.992Z" fill="#000"/><path d="M128 39h17.952" stroke="#000" stroke-width="10" stroke-linecap="round"/><path d="m77.042 124.438-5.417 10.833c-6.9-2.875-14.044-5.75-21.64-10.698a9.55 9.55 0 0 1-4.318-7.819c-.33-16.226 3.476-32.538 13.114-49.785 1.262-2.257 3.364-3.912 5.801-4.777 5.815-2.064 9.762-3.66 16.522-4.786l4.063 7.448H86.5m28.458 59.584 5.417 10.833c6.9-2.875 14.044-5.75 21.64-10.698a9.555 9.555 0 0 0 4.319-7.819c.329-16.226-3.477-32.538-13.115-49.785-1.262-2.257-3.363-3.912-5.801-4.777-5.815-2.064-9.762-3.66-16.522-4.786l-4.063 7.448H105.5m-36.583 54.167s8.126 4.063 18.083 5.894m36.083-5.894s-8.126 4.063-18.083 5.894" stroke="#000" stroke-width="10" stroke-linecap="round" stroke-linejoin="round"/><path d="M79.073 109.542c4.861 0 8.802-4.547 8.802-10.157 0-5.609-3.94-10.156-8.802-10.156-4.861 0-8.802 4.547-8.802 10.156 0 5.61 3.94 10.157 8.802 10.157ZM112.927 109.542c4.861 0 8.802-4.547 8.802-10.157 0-5.609-3.941-10.156-8.802-10.156s-8.802 4.547-8.802 10.156c0 5.61 3.941 10.157 8.802 10.157Z" fill="#000"/></svg>