<svg width="192" height="192" fill="none" xmlns="http://www.w3.org/2000/svg"><path d="m170 166-29 4-11.994-11.994C119.119 163.115 107.896 166 96 166c-39.764 0-72-32.235-72-72 0-39.764 32.236-72 72-72 39.765 0 72 32.236 72 72 0 19.374-7.652 36.96-20.098 49.902L170 166Z" stroke="#000" stroke-width="12" stroke-linecap="round" stroke-linejoin="round"/><path d="M83 65H73a6 6 0 0 0-6 6v10m42-16h10a6 6 0 0 1 6 6v10m-42 42H73a6 6 0 0 1-6-6v-10m42 16h10a6 6 0 0 0 6-6v-10" stroke="#000" stroke-width="12" stroke-linecap="round" stroke-linejoin="round"/></svg>