<svg xmlns="http://www.w3.org/2000/svg" width="192" height="192" fill="none" viewBox="0 0 192 192"><ellipse cx="39.063" cy="111.184" stroke="#000" stroke-linecap="round" stroke-linejoin="round" stroke-width="8" rx="3.5" ry="6.5" transform="rotate(-15 39.063 111.184)"/><ellipse cx="110.063" cy="138.184" stroke="#000" stroke-linecap="round" stroke-linejoin="round" stroke-width="8" rx="3.5" ry="6.5" transform="rotate(-15 110.063 138.184)"/><path stroke="#000" stroke-linecap="round" stroke-linejoin="round" stroke-width="10" d="M21 101V59l42-15 101.534 37.713a6 6 0 0 1 3.874 4.962L171 110v16l-42 16m37-58-41 15"/><path stroke="#000" stroke-linecap="round" stroke-linejoin="round" stroke-width="10" d="M129 142v-16l-3-27L21 59m37 56.585 34 12.83"/><path stroke="#000" stroke-linecap="round" stroke-linejoin="round" stroke-width="10" d="m70 119 14.947-31.761a6 6 0 0 1 3.378-3.085L130 69"/></svg>