<svg xmlns="http://www.w3.org/2000/svg" width="192" height="192" fill="none"><path stroke="#000" stroke-linecap="round" stroke-linejoin="round" stroke-width="12" d="M150 116a54 54 0 1 1-108 0m0 0c0-25.928 24.133-54.934 56-94h26c-5.689 6.974-11.131 13.627-16.234 20H134c-5.689 6.974-11.131 13.627-16.234 20H144c-3.395 4.162-6.703 8.21-9.903 12.153C144.026 89.437 150 103.099 150 116"/><path stroke="#000" stroke-linecap="round" stroke-linejoin="round" stroke-width="12" d="M114.385 162.262c4.876-4.954 7.615-11.674 7.615-18.681 0-12.685-10.657-24.468-26-43.581-15.344 19.113-26 30.896-26 43.581 0 7.007 2.74 13.727 7.615 18.681C82.491 167.217 89.105 170 96 170s13.509-2.783 18.385-7.738"/></svg>