<?xml version="1.0" encoding="UTF-8" standalone="no"?>
<svg
   width="192"
   height="192"
   version="1.1"
   id="svg1"
   xml:space="preserve"
   xmlns="http://www.w3.org/2000/svg"
   xmlns:svg="http://www.w3.org/2000/svg"><defs
     id="defs1" /><path
     d="m 41.849799,27.017 c -3.451094,1.19e-4 -6.248555,2.798451 -6.248047,6.250001 v 40.389292 m 92.810538,58.848997 h 35.33985 c 3.4511,-1.2e-4 6.24856,-2.79846 6.24805,-6.25 V 33.267001 c 5.1e-4,-3.451551 -2.79695,-6.249892 -6.24805,-6.250001"
     style="display:inline;fill:none;stroke:#000000;stroke-width:12;stroke-linecap:round;stroke-dasharray:none"
     id="path1" /><path
     id="path17-4"
     style="display:inline;opacity:1;fill:none;stroke:#000000;stroke-width:12;stroke-linejoin:round;stroke-dasharray:none"
     d="m 83.375479,102.39808 12.917207,-5.301415 8.703774,15.077345 -11.049178,8.53738 c 0.626696,3.55473 0.626704,7.19171 -9e-6,10.74641 l 11.049177,8.53741 -8.703764,15.07734 -12.917207,-5.30143 c -2.764723,2.32018 -5.914027,4.13867 -9.305457,5.37321 l -1.868033,13.83882 h -17.40753 l -1.868033,-13.83882 c -3.391428,-1.23455 -6.540734,-3.05304 -9.305449,-5.37321 l -12.917212,5.30143 -8.703761,-15.07734 11.049171,-8.5374 c -0.626713,-3.55471 -0.626705,-7.1917 0,-10.74641 l -11.049171,-8.5374 8.70377,-15.077345 12.917203,5.301425 c 2.764723,-2.32017 5.914028,-4.138655 9.305449,-5.373205 l 1.868041,-13.83881 h 17.407522 l 1.868033,13.83881 c 3.391444,1.23455 6.540734,3.053045 9.305457,5.373205 z" /><path
     style="display:inline;opacity:1;fill:none;stroke:#000000;stroke-width:12;stroke-linecap:round;stroke-opacity:1"
     d="m 82.69567,27.017005 5.4,10e-7"
     id="path3" /><path
     style="display:inline;fill:none;stroke:#000000;stroke-width:12;stroke-linecap:round;stroke-opacity:1"
     d="m 117.52918,27.017005 5.4,10e-7"
     id="path3-2" /><path
     style="display:inline;fill:none;stroke:#000000;stroke-width:12;stroke-linecap:round;stroke-opacity:1"
     d="m 41.849799,27.017 11.412363,6e-6"
     id="path3-5" /><path
     style="display:inline;fill:none;stroke:#000000;stroke-width:12;stroke-linecap:round;stroke-opacity:1"
     d="m 152.36269,27.017002 11.41236,6e-6"
     id="path3-5-7" /></svg>
