<svg xmlns="http://www.w3.org/2000/svg" width="192" height="192" fill="none" stroke="#000" stroke-linecap="round" stroke-linejoin="round" stroke-width="12" viewBox="0 0 192 192"><path d="M96 56V22m0 114v34m0-114L80 40m16 96-16 16m16-96 16-16m-16 96 16 16M96 82.913 37 47.34A10 10 0 0 0 22 56v80a10.001 10.001 0 0 0 15 8.66l59-33.838"/><path d="M160 46c-1.755 0-3.48.462-5 1.34l-68 41a10 10 0 0 0 0 17.32l68 39a9.997 9.997 0 0 0 13.66-3.66 9.997 9.997 0 0 0 1.34-5V56a9.997 9.997 0 0 0-5-8.66 10.001 10.001 0 0 0-5-1.34z"/></svg>