<svg width="192" height="192" viewBox="0 0 192 192" fill="none" xmlns="http://www.w3.org/2000/svg"><path d="M118 107h22l30-20v68l-30-20h-22" stroke="#000" stroke-width="12" stroke-linecap="round" stroke-linejoin="round"/><path d="M30.641 95.481A21.904 21.904 0 0 0 44 100a21.91 21.91 0 0 0 13.965-5C62.871 90.965 66 84.848 66 78c0-12.15-9.85-22-22-22s-22 9.85-22 22c0 7.126 3.388 13.46 8.641 17.481Zm0 0A6.001 6.001 0 0 0 27 101v40a6 6 0 0 0 6 6h79a6 6 0 0 0 6-6v-40a6 6 0 0 0-6-6h-2.679m0 0C119.775 90.017 127 79.352 127 67c0-17.12-13.879-31-31-31-17.12 0-31 13.88-31 31 0 12.352 7.225 23.017 17.679 28 4.036 1.923 8.553 3 13.321 3 4.768 0 9.285-1.077 13.321-3Z" stroke="#000" stroke-width="12" stroke-linecap="round" stroke-linejoin="round"/></svg>