<svg xmlns="http://www.w3.org/2000/svg" width="192" height="192" fill="none"><circle cx="52" cy="108" r="6" stroke="#000" stroke-linejoin="round" stroke-width="12"/><path stroke="#000" stroke-linecap="round" stroke-linejoin="round" stroke-width="10" d="M59 108V70l18-7"/><path stroke="#000" stroke-linecap="round" stroke-linejoin="round" stroke-width="12" d="M103.223 86.343 88.181 29.466a6 6 0 0 0-5.8-4.466H31a6 6 0 0 0-6 6v109a6 6 0 0 0 6 6h80.207c3.937 0 6.807-3.728 5.801-7.534l-1.578-5.966"/><path stroke="#000" stroke-linecap="round" stroke-linejoin="round" stroke-width="12" d="M94 46h67a6 6 0 0 1 6 6v109a6 6 0 0 1-6 6h-60.675a6 6 0 0 1-5.693-4.103L89 146"/><circle cx="3" cy="3" r="3" stroke="#000" stroke-linejoin="round" stroke-width="6" transform="matrix(-1 0 0 1 136 86)"/><circle cx="3" cy="3" r="3" stroke="#000" stroke-linejoin="round" stroke-width="6" transform="matrix(0 -1 -1 0 150 106)"/><circle cx="3" cy="3" r="3" stroke="#000" stroke-linejoin="round" stroke-width="6" transform="matrix(-1 0 0 1 136 114)"/><circle cx="3" cy="3" r="3" stroke="#000" stroke-linejoin="round" stroke-width="6" transform="matrix(0 -1 -1 0 122 106)"/><path stroke="#000" stroke-linecap="round" stroke-linejoin="round" stroke-width="10" d="M166 103a32.997 32.997 0 0 0-56.335-23.335 32.998 32.998 0 0 0 5.001 50.773A33 33 0 0 0 133 136m0 0h33"/></svg>