<svg xmlns="http://www.w3.org/2000/svg" width="192" height="192" fill="none" viewBox="0 0 192 192"><circle cx="52" cy="107" r="6" stroke="#000" stroke-linejoin="round" stroke-width="12"/><path stroke="#000" stroke-linecap="round" stroke-linejoin="round" stroke-width="10" d="M59 107V69l19-7"/><path stroke="#000" stroke-linecap="round" stroke-linejoin="round" stroke-width="12" d="M31 146h80.207c3.937 0 6.807-3.728 5.801-7.534l-28.827-109a6 6 0 0 0-5.8-4.466H31a6 6 0 0 0-6 6v109a6 6 0 0 0 6 6"/><path stroke="#000" stroke-linecap="round" stroke-linejoin="round" stroke-width="12" d="M94 46h67a6 6 0 0 1 6 6v109a6 6 0 0 1-6 6h-60.675a6 6 0 0 1-5.693-4.103L89 146"/><path stroke="#000" stroke-linecap="round" stroke-linejoin="round" stroke-width="10" d="M167 99c0-16.016-12.984-29-29-29s-29 12.984-29 29 12.984 29 29 29h29"/><circle cx="3" cy="3" r="3" stroke="#000" stroke-linejoin="round" stroke-width="6" transform="matrix(-1 0 0 1 141 85)"/><circle cx="3" cy="3" r="3" stroke="#000" stroke-linejoin="round" stroke-width="6" transform="matrix(0 -1 -1 0 152 102)"/><circle cx="3" cy="3" r="3" stroke="#000" stroke-linejoin="round" stroke-width="6" transform="matrix(-1 0 0 1 141 107)"/><circle cx="3" cy="3" r="3" stroke="#000" stroke-linejoin="round" stroke-width="6" transform="matrix(0 -1 -1 0 130 102)"/></svg>