<?xml version="1.0" encoding="UTF-8" standalone="no"?>
<!-- Created with Inkscape (http://www.inkscape.org/) -->

<svg
   width="192"
   height="192"
   viewBox="0 0 192 192"
   version="1.1"
   id="svg5"
   xml:space="preserve"
   xmlns="http://www.w3.org/2000/svg"
   xmlns:svg="http://www.w3.org/2000/svg"><defs
     id="defs2"><rect
       x="176"
       y="102.04328"
       width="72.761158"
       height="65.956715"
       id="rect9" /></defs><g
     id="layer1"
     style="display:inline"><path
       id="path3"
       style="display:inline;fill:none;fill-opacity:0.999846;stroke:#000000;stroke-width:12;stroke-linecap:round;stroke-linejoin:round;stroke-miterlimit:6;stroke-dasharray:none;paint-order:markers fill stroke"
       d="M 50.095703,75.696878 V 90.2582 a 25.109793,27.996361 0 0 0 -3.198827,1.732887 25.109793,27.996361 0 0 0 -2.385234,1.854328 25.109793,27.996361 0 0 0 -0.09258,0.06798 l -11.28793,-7.383262 -9.623713,18.285757 11.242187,7.35413 a 25.109793,27.996361 0 0 0 -0.0065,0.0959 25.109793,27.996361 0 0 0 -0.153571,2.51007 25.109793,27.996361 0 0 0 -0.09584,1.36251 25.109793,27.996361 0 0 0 0.0065,0.0971 25.109793,27.996361 0 0 0 0,0.006 25.109793,27.996361 0 0 0 0.0022,0.12872 25.109793,27.996361 0 0 0 0.264664,3.72321 l -11.259639,7.36627 9.623713,18.28697 11.241099,-7.35292 a 25.109793,27.996361 0 0 0 0.07188,0.0522 25.109793,27.996361 0 0 0 1.170834,0.85126 25.109793,27.996361 0 0 0 1.283017,0.98849 25.109793,27.996361 0 0 0 0.313674,0.17122 25.109793,27.996361 0 0 0 0.226543,0.16516 25.109793,27.996361 0 0 0 0.101291,0.0607 25.109793,27.996361 0 0 0 1.310246,0.67153 25.109793,27.996361 0 0 0 1.245985,0.68126 V 156.58 h 19.016522 v -14.53219 a 25.109793,27.996361 0 0 0 0.07733,-0.0426 25.109793,27.996361 0 0 0 1.210049,-0.67276 25.109793,27.996361 0 0 0 1.268857,-0.64967 25.109793,27.996361 0 0 0 0.101291,-0.0607 25.109793,27.996361 0 0 0 0.224361,-0.16273 25.109793,27.996361 0 0 0 0.316944,-0.17365 25.109793,27.996361 0 0 0 0.07079,-0.0546 25.109793,27.996361 0 0 0 0.0065,-0.004 25.109793,27.996361 0 0 0 0.09802,-0.0668 25.109793,27.996361 0 0 0 1.142518,-0.89013 25.109793,27.996361 0 0 0 1.134895,-0.82454 25.109793,27.996361 0 0 0 0.07188,-0.0522 l 11.242195,7.35293 9.622621,-18.28697 -11.249814,-7.36021 a 25.109793,27.996361 0 0 0 0.139412,-2.10203 25.109793,27.996361 0 0 0 0.116537,-1.62724 25.109793,27.996361 0 0 0 0.0026,-0.12873 25.109793,27.996361 0 0 0 0,-0.0219 25.109793,27.996361 0 0 0 0.0053,-0.0813 25.109793,27.996361 0 0 0 -0.0053,-0.0813 25.109793,27.996361 0 0 0 -0.243975,-3.79122 25.109793,27.996361 0 0 0 -0.0053,-0.0959 l 11.241069,-7.35413 -9.623703,-18.285761 -11.285759,7.382078 a 25.109793,27.996361 0 0 0 -2.304642,-1.796054 25.109793,27.996361 0 0 0 -0.09802,-0.0668 25.109793,27.996361 0 0 0 -0.0087,-0.0049 25.109793,27.996361 0 0 0 -0.06862,-0.05346 25.109793,27.996361 0 0 0 -1.088058,-0.590178 25.109793,27.996361 0 0 0 -2.033443,-1.129351 25.109793,27.996361 0 0 0 -0.07733,-0.0425 V 75.696311 Z" /><circle
       style="display:inline;fill:none;fill-opacity:0.999846;stroke:#000000;stroke-width:12;stroke-linecap:round;stroke-linejoin:round;stroke-miterlimit:6;stroke-dasharray:none;paint-order:markers fill stroke"
       id="path10"
       cx="59.60421"
       cy="116.13815"
       r="8" /><path
       id="rect1"
       style="display:inline;fill:none;fill-opacity:0.999846;stroke:#000000;stroke-width:12;stroke-linecap:round;stroke-linejoin:round;stroke-miterlimit:6;stroke-dashoffset:16.8"
       d="m 58.46875,34 c -4.638461,0 -8.373047,3.734586 -8.373047,8.373047 v 33.324219 14.560546 a 25.109793,27.996361 0 0 0 -3.197265,1.732422 25.109793,27.996361 0 0 0 -2.386719,1.855469 25.109793,27.996361 0 0 0 -0.0918,0.06641 l -11.28711,-7.382812 -9.625,18.285149 11.242188,7.35547 a 25.109793,27.996361 0 0 0 -0.0059,0.0957 25.109793,27.996361 0 0 0 -0.154297,2.50977 25.109793,27.996361 0 0 0 -0.0957,1.36328 25.109793,27.996361 0 0 0 0.0078,0.0957 25.109793,27.996361 0 0 0 0,0.006 25.109793,27.996361 0 0 0 0.002,0.12891 25.109793,27.996361 0 0 0 0.263672,3.72461 l -11.259766,7.36523 9.625,18.28711 11.240235,-7.35351 a 25.109793,27.996361 0 0 0 0.07227,0.0527 25.109793,27.996361 0 0 0 1.169922,0.85157 25.109793,27.996361 0 0 0 1.283204,0.98828 25.109793,27.996361 0 0 0 0.314453,0.17187 25.109793,27.996361 0 0 0 0.226562,0.16406 25.109793,27.996361 0 0 0 0.101563,0.0605 25.109793,27.996361 0 0 0 1.310546,0.67188 25.109793,27.996361 0 0 0 1.244141,0.68164 v 14.54492 H 69.11328 v -14.5332 a 25.109793,27.996361 0 0 0 0.07813,-0.043 25.109793,27.996361 0 0 0 1.208985,-0.67188 25.109793,27.996361 0 0 0 1.269531,-0.65039 25.109793,27.996361 0 0 0 0.101562,-0.0605 25.109793,27.996361 0 0 0 0.222657,-0.16211 25.109793,27.996361 0 0 0 0.318359,-0.17382 25.109793,27.996361 0 0 0 0.07031,-0.0547 25.109793,27.996361 0 0 0 0.0059,-0.004 25.109793,27.996361 0 0 0 0.09961,-0.0664 25.109793,27.996361 0 0 0 1.140625,-0.89063 25.109793,27.996361 0 0 0 1.136719,-0.82422 25.109793,27.996361 0 0 0 0.07031,-0.0527 l 11.242187,7.35351 9.623047,-18.28711 -11.25,-7.35937 a 25.109793,27.996361 0 0 0 0.140625,-2.10352 25.109793,27.996361 0 0 0 0.04297,-0.60351 h 76.992183 c 4.63846,0 8.37305,-3.73459 8.37305,-8.37305 V 42.373047 C 170,37.734586 166.26541,34 161.62695,34 Z" /><path
       id="path4"
       style="display:inline;fill:none;fill-opacity:0.999846;stroke:#000000;stroke-width:12;stroke-linecap:round;stroke-linejoin:round;stroke-miterlimit:6;stroke-dashoffset:16.8"
       d="m 112.21189,34.713234 17.95669,28.796221 24.83629,0.356617 -18.66464,-29.152838 M 87.375617,34.356617 105.33231,63.152838 130.16858,63.509455 111.50397,34.356617 M 62.539339,34 80.496025,62.796221 105.33231,63.152838 86.667689,34" /></g></svg>
