<?xml version="1.0" encoding="UTF-8" standalone="no"?>
<!-- Created with Inkscape (http://www.inkscape.org/) -->

<svg
   width="192"
   height="192"
   viewBox="0 0 192 192"
   version="1.1"
   id="svg5"
   xml:space="preserve"
   inkscape:version="1.3 (0e150ed6c4, 2023-07-21)"
   sodipodi:docname="video_transcoder.svg"
   inkscape:export-filename="sharik.png"
   inkscape:export-xdpi="96"
   inkscape:export-ydpi="96"
   xmlns:inkscape="http://www.inkscape.org/namespaces/inkscape"
   xmlns:sodipodi="http://sodipodi.sourceforge.net/DTD/sodipodi-0.dtd"
   xmlns="http://www.w3.org/2000/svg"
   xmlns:svg="http://www.w3.org/2000/svg"><sodipodi:namedview
     id="namedview7"
     pagecolor="#505050"
     bordercolor="#ffffff"
     borderopacity="1"
     inkscape:showpageshadow="0"
     inkscape:pageopacity="0"
     inkscape:pagecheckerboard="1"
     inkscape:deskcolor="#505050"
     inkscape:document-units="px"
     showgrid="true"
     inkscape:zoom="2.8284271"
     inkscape:cx="143.3659"
     inkscape:cy="98.99495"
     inkscape:window-width="1890"
     inkscape:window-height="1026"
     inkscape:window-x="12"
     inkscape:window-y="36"
     inkscape:window-maximized="1"
     inkscape:current-layer="svg5"
     showguides="true"
     inkscape:lockguides="true"><sodipodi:guide
       position="16,176"
       orientation="160,0"
       id="guide1113"
       inkscape:locked="true" /><sodipodi:guide
       position="16,16"
       orientation="0,1"
       id="guide1115"
       inkscape:locked="true"
       inkscape:label="160"
       inkscape:color="rgb(0,134,229)" /><sodipodi:guide
       position="176,16"
       orientation="-160,0"
       id="guide1117"
       inkscape:locked="true" /><sodipodi:guide
       position="176,176"
       orientation="0,-160"
       id="guide1119"
       inkscape:locked="true" /><sodipodi:guide
       position="24,168"
       orientation="-1,0"
       id="guide1218"
       inkscape:locked="true"
       inkscape:label=""
       inkscape:color="rgb(229,165,10)" /><sodipodi:guide
       position="24,24"
       orientation="0,1"
       id="guide1220"
       inkscape:locked="true"
       inkscape:label=""
       inkscape:color="rgb(229,165,10)" /><sodipodi:guide
       position="168,24"
       orientation="-1,0"
       id="guide1222"
       inkscape:locked="true"
       inkscape:label=""
       inkscape:color="rgb(229,165,10)" /><sodipodi:guide
       position="37.068014,168.07046"
       orientation="0,1"
       id="guide1224"
       inkscape:locked="true"
       inkscape:label=""
       inkscape:color="rgb(229,165,10)" /><sodipodi:guide
       position="96,96"
       orientation="-1,0"
       id="guide5242"
       inkscape:locked="true"
       inkscape:label=""
       inkscape:color="rgb(0,134,229)" /><sodipodi:guide
       position="96,96"
       orientation="0,1"
       id="guide5244"
       inkscape:locked="true"
       inkscape:label=""
       inkscape:color="rgb(0,134,229)" /></sodipodi:namedview><defs
     id="defs2"><rect
       x="176"
       y="102.04328"
       width="72.761158"
       height="65.956715"
       id="rect9" /></defs><g
     inkscape:label="logo"
     inkscape:groupmode="layer"
     id="layer1"
     style="display:inline"><path
       id="path3"
       style="display:inline;fill:none;fill-opacity:0.999846;stroke:#000000;stroke-width:12;stroke-linecap:round;stroke-linejoin:round;stroke-miterlimit:6;stroke-dasharray:none;paint-order:markers fill stroke"
       d="m 48.588099,76.951444 v 14.561322 a 25.109793,27.996361 0 0 0 -3.198827,1.732887 25.109793,27.996361 0 0 0 -2.385234,1.854328 25.109793,27.996361 0 0 0 -0.09258,0.06798 l -11.28793,-7.383262 -9.623713,18.285761 11.242187,7.35413 a 25.109793,27.996361 0 0 0 -0.0065,0.0959 25.109793,27.996361 0 0 0 -0.153571,2.51007 25.109793,27.996361 0 0 0 -0.09584,1.36251 25.109793,27.996361 0 0 0 0.0065,0.0971 25.109793,27.996361 0 0 0 0,0.006 25.109793,27.996361 0 0 0 0.0022,0.12872 25.109793,27.996361 0 0 0 0.264664,3.72321 l -11.259639,7.36627 9.623713,18.28697 11.241099,-7.35292 a 25.109793,27.996361 0 0 0 0.07188,0.0522 25.109793,27.996361 0 0 0 1.170834,0.85126 25.109793,27.996361 0 0 0 1.283017,0.98849 25.109793,27.996361 0 0 0 0.313674,0.17122 25.109793,27.996361 0 0 0 0.226543,0.16516 25.109793,27.996361 0 0 0 0.101291,0.0607 25.109793,27.996361 0 0 0 1.310246,0.67153 25.109793,27.996361 0 0 0 1.245985,0.68126 v 14.54433 H 67.60462 v -14.53219 a 25.109793,27.996361 0 0 0 0.07733,-0.0426 25.109793,27.996361 0 0 0 1.210049,-0.67276 25.109793,27.996361 0 0 0 1.268857,-0.64967 25.109793,27.996361 0 0 0 0.101291,-0.0607 25.109793,27.996361 0 0 0 0.224361,-0.16273 25.109793,27.996361 0 0 0 0.316944,-0.17365 25.109793,27.996361 0 0 0 0.07079,-0.0546 25.109793,27.996361 0 0 0 0.0065,-0.004 25.109793,27.996361 0 0 0 0.09802,-0.0668 25.109793,27.996361 0 0 0 1.142518,-0.89013 25.109793,27.996361 0 0 0 1.134895,-0.82454 25.109793,27.996361 0 0 0 0.07188,-0.0522 l 11.242195,7.35293 9.622621,-18.28697 -11.249814,-7.36021 a 25.109793,27.996361 0 0 0 0.139412,-2.10203 25.109793,27.996361 0 0 0 0.116537,-1.62724 25.109793,27.996361 0 0 0 0.0026,-0.12873 25.109793,27.996361 0 0 0 0,-0.0219 25.109793,27.996361 0 0 0 0.0053,-0.0813 25.109793,27.996361 0 0 0 -0.0053,-0.0813 25.109793,27.996361 0 0 0 -0.243975,-3.79122 25.109793,27.996361 0 0 0 -0.0053,-0.0959 L 94.1934,106.07 84.569697,87.784235 73.283938,95.166313 a 25.109793,27.996361 0 0 0 -2.304642,-1.796054 25.109793,27.996361 0 0 0 -0.09802,-0.0668 25.109793,27.996361 0 0 0 -0.0087,-0.0049 25.109793,27.996361 0 0 0 -0.06862,-0.05346 25.109793,27.996361 0 0 0 -1.088058,-0.590178 25.109793,27.996361 0 0 0 -2.033443,-1.129351 25.109793,27.996361 0 0 0 -0.07733,-0.0425 V 76.950877 Z" /><path
       id="rect3"
       style="display:inline;fill:none;fill-opacity:0.999846;stroke:#000000;stroke-width:12;stroke-linecap:round;stroke-linejoin:round;stroke-miterlimit:6;stroke-dasharray:none;paint-order:markers fill stroke"
       d="m 48.588649,34 v 43.243355 h 19.016913 v 14.531958 a 25.109793,27.996361 0 0 1 0.07733,0.04215 25.109793,27.996361 0 0 1 2.03452,1.128453 25.109793,27.996361 0 0 1 1.087711,0.590092 25.109793,27.996361 0 0 1 0.06873,0.05365 25.109793,27.996361 0 0 1 0.0086,0.0058 25.109793,27.996361 0 0 1 0.09795,0.06706 25.109793,27.996361 0 0 1 2.3043,1.795183 l 11.286083,-7.381892 9.622726,18.285171 -11.239689,7.35507 a 25.109793,27.996361 0 0 1 0.0052,0.0958 25.109793,27.996361 0 0 1 0.244004,3.79153 25.109793,27.996361 0 0 1 0.0052,0.0804 25.109793,27.996361 0 0 1 -0.0052,0.0824 25.109793,27.996361 0 0 0 0,0.002 25.109793,27.996361 0 0 0 0,0.002 25.109793,27.996361 0 0 0 0,0.002 25.109793,27.996361 0 0 0 0,0.002 25.109793,27.996361 0 0 0 0,0.002 25.109793,27.996361 0 0 0 0,0.002 25.109793,27.996361 0 0 0 0,0.002 25.109793,27.996361 0 0 0 0,0.002 25.109793,27.996361 0 0 0 0,0.002 25.109793,27.996361 0 0 0 0,0.002 25.109793,27.996361 0 0 0 0,0.002 25.109793,27.996361 0 0 1 -0.0034,0.12837 25.109793,27.996361 0 0 1 -0.116848,1.62658 25.109793,27.996361 0 0 1 -0.06186,0.94453 H 169.99996 V 34 h -20.61153 l 8.4955,19.683764 H 139.72617 L 131.22897,34 h -18.06838 l 8.49721,19.683764 H 103.50006 L 95.002839,34 H 76.934451 l 8.497211,19.683764 H 67.273921 L 58.77671,34 Z" /><ellipse
       style="fill:none;fill-opacity:0.999846;stroke:#000000;stroke-width:12;stroke-linecap:round;stroke-linejoin:round;stroke-miterlimit:6;stroke-dasharray:none;paint-order:markers fill stroke"
       id="path10"
       cx="58.096653"
       cy="117.3927"
       rx="8.7979212"
       ry="9.8093119" /></g></svg>
