<svg width="192" height="192" viewBox="0 0 192 192" fill="none" xmlns="http://www.w3.org/2000/svg"><path d="M62 74v-4m68 4v-4M62 50V30m68 20V30M62 98v-4m68 4v-4m-68 28v-4m68 4v-4m-68 40v-16m68 16v-16" stroke="#000" stroke-width="12" stroke-linecap="round" stroke-linejoin="round"/><path d="M83.214 120.141c1.38 2.392 7.152.933 10.5-1s5.167-5.75 3.786-8.141c-1.38-2.391-5.938-.792-9.286 1.141s-6.38 5.609-5 8ZM98 67v46" stroke="#000" stroke-width="10" stroke-linecap="round" stroke-linejoin="round"/><path d="M98 69c0 8 13 8 13 24" stroke="#000" stroke-width="10" stroke-linecap="round"/><path d="M160.086 59a74.004 74.004 0 0 0-83.239-34.478A74 74 0 1 0 160.086 133M160 59h-12m12 0V47" stroke="#000" stroke-width="12" stroke-linecap="round" stroke-linejoin="round"/></svg>