<svg width="192" height="192" fill="none" xmlns="http://www.w3.org/2000/svg"><circle cx="52" cy="108" r="6" stroke="#000" stroke-width="12" stroke-linejoin="round"/><path d="M59 108V70l18-7" stroke="#000" stroke-width="10" stroke-linecap="round" stroke-linejoin="round"/><path d="M103.223 86.343 88.181 29.466a6 6 0 0 0-5.8-4.466H31a6 6 0 0 0-6 6v109a6 6 0 0 0 6 6h80.207c3.937 0 6.807-3.728 5.801-7.534l-1.578-5.966" stroke="#000" stroke-width="12" stroke-linecap="round" stroke-linejoin="round"/><path d="M94 46h67a6 6 0 0 1 6 6v109a6 6 0 0 1-6 6h-60.675a6 6 0 0 1-5.693-4.103L89 146" stroke="#000" stroke-width="12" stroke-linecap="round" stroke-linejoin="round"/><circle cx="3" cy="3" r="3" transform="matrix(-1 0 0 1 136 86)" stroke="#000" stroke-width="6" stroke-linejoin="round"/><circle cx="3" cy="3" r="3" transform="matrix(0 -1 -1 0 150 106)" stroke="#000" stroke-width="6" stroke-linejoin="round"/><circle cx="3" cy="3" r="3" transform="matrix(-1 0 0 1 136 114)" stroke="#000" stroke-width="6" stroke-linejoin="round"/><circle cx="3" cy="3" r="3" transform="matrix(0 -1 -1 0 122 106)" stroke="#000" stroke-width="6" stroke-linejoin="round"/><path d="M166 103a32.997 32.997 0 0 0-56.335-23.335 32.998 32.998 0 0 0 5.001 50.773A32.994 32.994 0 0 0 133 136m0 0h33" stroke="#000" stroke-width="10" stroke-linecap="round" stroke-linejoin="round"/></svg>