<svg width="192" height="192" viewBox="0 0 192 192" fill="none" xmlns="http://www.w3.org/2000/svg">
<path d="M85 22L85 170" stroke="black" stroke-width="12" stroke-linecap="round" stroke-linejoin="round"/>
<path d="M43 33H22V46M43 33V46M43 33H64M64 33V46M64 33H85V46M128 33H107V46M128 33V46M128 33H149M149 33V46M149 33H170V46" stroke="black" stroke-width="12" stroke-linecap="round" stroke-linejoin="round"/>
<path d="M43 159H22V146M43 159V146M43 159H64M64 159V146M64 159H85V146M128 159H107V146M128 159V146M128 159H149M149 159V146M149 159H170V146" stroke="black" stroke-width="12" stroke-linecap="round" stroke-linejoin="round"/>
<rect x="22" y="66" width="63" height="60" stroke="black" stroke-width="12" stroke-linejoin="round"/>
<rect x="107" y="66" width="63" height="60" stroke="black" stroke-width="12" stroke-linejoin="round"/>
</svg>
