<svg xmlns="http://www.w3.org/2000/svg" width="192" height="192" fill="none" viewBox="0 0 192 192"><path stroke="#000" stroke-linecap="round" stroke-linejoin="round" stroke-width="12" d="M85 22v148M43 33H28a6 6 0 0 0-6 6v7m21-13v13m0-13h21m0 0v13m0-13h15a6 6 0 0 1 6 6v7m43-13h-15a6 6 0 0 0-6 6v7m21-13v13m0-13h21m0 0v13m0-13h15a6 6 0 0 1 6 6v7M43 159H28a6 6 0 0 1-6-6v-7m21 13v-13m0 13h21m0 0v-13m0 13h15a6 6 0 0 0 6-6v-7m43 13h-15a6 6 0 0 1-6-6v-7m21 13v-13m0 13h21m0 0v-13m0 13h15a6 6 0 0 0 6-6v-7"/><rect width="63" height="60" x="22" y="66" stroke="#000" stroke-linejoin="round" stroke-width="12" rx="6"/><rect width="63" height="60" x="107" y="66" stroke="#000" stroke-linejoin="round" stroke-width="12" rx="6"/></svg>