<svg xmlns="http://www.w3.org/2000/svg" width="192" height="192" fill="none"><path stroke="#000" stroke-linecap="round" stroke-linejoin="round" stroke-width="12" d="M91.73 23.769a6.04 6.04 0 0 1 8.541 0l67.96 67.96a6.04 6.04 0 0 1 0 8.542l-67.96 67.96a6.04 6.04 0 0 1-8.542 0l-67.96-67.96a6.04 6.04 0 0 1 0-8.542l67.96-67.96Z"/><path stroke="#000" stroke-linecap="round" stroke-linejoin="round" stroke-width="12" d="M93.46 53.052a3.59 3.59 0 0 1 5.08 0l40.408 40.409a3.59 3.59 0 0 1 0 5.078l-40.409 40.409a3.59 3.59 0 0 1-5.078 0L53.05 98.539a3.59 3.59 0 0 1 0-5.078z"/></svg>