<svg width="192" height="192" fill="none" xmlns="http://www.w3.org/2000/svg"><path d="M137 99.484 148.249 80a28.007 28.007 0 0 0 1.62-24.715 28.005 28.005 0 0 0-18.622-16.33A28.002 28.002 0 0 0 96 66c0 16.086 14.97 33.241 41 33.484Zm0 0c9.57.09 20.634-2.108 33-7.484m-33 7.484-27.132 46.994c-8.212 14.222-28.74 14.222-36.95 0L24.143 62a15.998 15.998 0 0 1 11.768-23.863A16 16 0 0 1 51.856 46l44.155 76.478c6.159 10.667 21.555 10.667 27.713 0L137 99.484Z" stroke="#000" stroke-width="12" stroke-linecap="round" stroke-linejoin="round"/><path d="m121 61 8 5-8 5V61Z" stroke="#000" stroke-width="10" stroke-linecap="round" stroke-linejoin="round"/></svg>