<svg width="192" height="192" viewBox="0 0 192 192" fill="none" xmlns="http://www.w3.org/2000/svg"><path d="M169.929 61.847c-.657 14.513-10.726 34.393-30.188 59.622C119.623 147.82 102.597 161 88.665 161c-8.622 0-15.922-8.023-21.889-24.079-3.978-14.714-7.965-29.418-11.943-44.132C47.209 64.59 22 66.698 22 66.698a1810.78 1810.78 0 0 0 21.593-19.411c7.746-6.474 15.055-11.94 19.937-12.391 11.515-1.112 18.605 6.825 21.27 23.8 2.874 18.328 4.863 29.725 5.976 34.183 3.322 15.202 8.976 21.794 12.963 21.794 3.103 0 7.757-4.936 13.962-14.79 6.195-9.864 11.516-17.37 11.964-22.517C130.5 70.5 127 64.59 119.701 64.59c-3.55 0-9.954 1.444-9.954 1.444 7.271-23.002 21.165-34.668 38.683-34.006 15.208.45 22.374 10.39 21.499 29.82Z" stroke="#000" stroke-width="12" stroke-linecap="round" stroke-linejoin="round"/></svg>