<svg width="192" height="192" fill="none" xmlns="http://www.w3.org/2000/svg"><circle cx="144" cy="60" r="26" stroke="#000" stroke-width="12" stroke-linecap="round" stroke-linejoin="round"/><path d="M22 113a6 6 0 0 1 6-6h38a6 6 0 0 1 6 6v38a6 6 0 0 1-6 6H28a6 6 0 0 1-6-6v-38Zm72 0a6 6 0 0 1 6-6h64a6 6 0 0 1 6 6v38a6 6 0 0 1-6 6h-64a6 6 0 0 1-6-6v-38ZM22 41a6 6 0 0 1 6-6h62a6 6 0 0 1 6 6v38a6 6 0 0 1-6 6H28a6 6 0 0 1-6-6V41Z" stroke="#000" stroke-width="12" stroke-linecap="round" stroke-linejoin="round"/></svg>