<?xml version="1.0" encoding="UTF-8" standalone="no"?>
<!-- Created with Inkscape (http://www.inkscape.org/) -->

<svg
   width="192"
   height="192"
   viewBox="0 0 192 192"
   version="1.1"
   id="svg5"
   xmlns="http://www.w3.org/2000/svg"
   xmlns:svg="http://www.w3.org/2000/svg">
  <defs
     id="defs2" />
  <g
     id="layer1">
    <path
       style="fill:none;stroke:#000000;stroke-width:12;stroke-linecap:butt;stroke-linejoin:round;stroke-miterlimit:4;stroke-dasharray:none;stroke-opacity:1"
       d="m 59.98106,131.62187 c 11.859825,-5.85216 24.445745,12.28051 26.998347,22.04722 2.688798,11.09971 -11.764184,13.9848 -18.812021,7.60937 -6.678622,-6.31085 -20.046152,-23.80445 -8.186326,-29.65659 z"
       id="path9462" />
    <path
       style="fill:none;stroke:#000000;stroke-width:12;stroke-linecap:butt;stroke-linejoin:round;stroke-miterlimit:4;stroke-dasharray:none;stroke-opacity:1"
       d="m 111.4246,63.463232 c 0,0 27.89627,17.56222 55.48613,18.881393 V 40.881222 C 138.69331,39.488082 111.4246,21.999505 111.4246,21.999505 V 143.3862 c 0,0 0,26.6138 -28.525025,26.6138 -20.346949,0 -34.091704,-16.64255 -34.091704,-34.39533 0,-19.29253 11.356908,-34.54494 33.555541,-34.54494 29.061188,0 29.061188,30.40982 29.061188,30.40982 M 26.150652,41.105778 C 20.300309,38.414133 39.549623,19.864715 61.165844,29.061234 100.515,45.802153 111.4246,112.47617 111.4246,112.47617 c 0,0 -34.61848,-48.06465 -85.273948,-71.370392 z"
       id="path859" />
  </g>
</svg>
