<?xml version="1.0" encoding="UTF-8"?>
<!-- Created with Inkscape (http://www.inkscape.org/) -->
<svg width="192" height="192" version="1.1" viewBox="0 0 192 192" xml:space="preserve" xmlns="http://www.w3.org/2000/svg"><g fill="none" stroke="#000" stroke-linecap="round" stroke-linejoin="round" stroke-miterlimit="15" stroke-width="12"><path d="m50.238 37.67c-2.7551 35.056 5.4538 102.65 10.204 121.69" style="paint-order:markers stroke fill"/><path d="m60.442 159.36c3.204 11.958 24.991 15.612 41.854 1.504" style="paint-order:markers stroke fill"/><path d="m102.3 160.87c22.004-20.527 22.726-53.965 45.439-134.68" style="paint-order:markers stroke fill"/><path d="m147.73 26.184c1.7663-6.5921-2.7011-3.3948-2.7011-3.3948-5.8828 3.3964-5.3284 3.8984-6.1346 4.7045" style="paint-order:markers stroke fill"/><path d="m138.9 27.494c-1.1276 1.1276-3.417 1.3406-3.417 1.3406-1.5115 0-2.6199 1.5619-2.6199 1.5619" style="paint-order:markers stroke fill"/><path d="m132.86 30.396c-12.953 12.953-24.494 69.177-33.362 95.376-2.1391 7.9833-8.3294 19.848-8.3294 19.848-3.1416-8.3742-3.6816-92.493-3.6816-92.493" style="paint-order:markers stroke fill"/><path d="m87.49 53.127c0-5.2006 0.4531-9.8358 0.4531-9.8358" style="paint-order:markers stroke fill"/><path d="m87.943 43.291c0.43848-21.124-12.821-17.704-22.559-17.087" style="paint-order:markers stroke fill"/><path d="m50.238 37.67c0-2.0786 2.4147-8.0549 15.145-11.466" style="paint-order:markers stroke fill"/></g></svg>
