<svg width="192" height="192" fill="none" xmlns="http://www.w3.org/2000/svg"><path d="M102.388 160.986c-16.777 14.122-39.347 10.127-41.64-1.505-4.726-19.059-12.942-83.876-10.201-118.967.5-9.507 4.498-13.028 15.118-14.323 10.62-1.294 22.443-.017 22.443 17.104 0 0 2 88.789 3.209 97.429 0 0 23.594-97.368 36.481-110.334 0 0 2.009-1.241 3.609-1.563 1.601-.322 3.7.641 5.399-.34C138.505 27.503 144.147 25.4 150 22c-22.597 80.794-25.716 118.445-47.608 138.992" stroke="#000" stroke-width="12" stroke-linecap="round" stroke-linejoin="round"/></svg>