<svg width="192" height="192" viewBox="0 0 192 192" fill="none" xmlns="http://www.w3.org/2000/svg"><circle cx="96" cy="96" r="44" stroke="#000" stroke-width="10" stroke-linecap="round" stroke-linejoin="round"/><path d="M25 31a6 6 0 0 1 6-6h130a6 6 0 0 1 6 6v130a6 6 0 0 1-6 6H31a6 6 0 0 1-6-6V31Z" stroke="#000" stroke-width="12" stroke-linecap="round" stroke-linejoin="round"/><path d="M96 25v42M51 96H25m139-68-56.686 56.686A16.003 16.003 0 0 1 96 112a16 16 0 0 1-11.314-27.314L28 28m136 136-56-56m-42 18 18-18" stroke="#000" stroke-width="10" stroke-linecap="round" stroke-linejoin="round"/></svg>