<?xml version="1.0" encoding="UTF-8"?>
<svg id="Layer_1" xmlns="http://www.w3.org/2000/svg" version="1.1" viewBox="0 0 192 192">
  <!-- Generator: Adobe Illustrator 29.0.0, SVG Export Plug-In . SVG Version: 2.1.0 Build 186)  -->
  <defs>
    <style>
      .st0 {
        fill: #231f20;
      }
    </style>
  </defs>
  <path class="st0" d="M27.8,166.2c-1.2,0-2.3-.2-3.3-.6-3-1.2-5-4.4-5.3-8.5-.4-5.6-.2-11.5,0-17.1.1-3,.2-6.2.3-9.2,0-17,0-34.3,0-51,0-15.1,0-30.6,0-45.9h0c.3-3.9,3.1-7.1,6.7-7.8h0s.4,0,.4,0c2.2-.3,5.4,0,8.2.4.9.1,1.7.2,2.4.3,20.9,2,42,4.4,62.5,6.7,21.4,2.4,43.6,4.9,65.5,7h0c3.4.6,7.3,1.9,7.8,7.5h0v86.5h0c-.3,4.5-2.5,6.9-7.2,8h-.1c-22,3.6-44.4,7.6-66,11.5-21.2,3.8-43.1,7.8-64.8,11.3-.6,0-1.2.2-1.8.3-1.7.3-3.5.7-5.2.7ZM22,33.9c0,15.3,0,30.8,0,45.9,0,16.7,0,34,0,51.1,0,3.1-.1,6.2-.3,9.3-.2,5.6-.4,11.4,0,16.9,0,1.2.6,5.1,3.7,6.3,1.9.8,4.7.2,7.1-.2.7-.1,1.3-.3,1.9-.4,21.6-3.5,43.5-7.4,64.7-11.2,21.6-3.9,44-7.9,66-11.5,3.6-.9,5-2.4,5.3-5.7V48c-.3-3.2-1.8-4.6-5.6-5.2-21.8-2.1-44-4.6-65.5-7-20.5-2.3-41.6-4.7-62.5-6.7-.7,0-1.5-.2-2.4-.3-2.4-.3-5.4-.7-7.2-.5h-.3c-2.5.4-4.7,2.7-4.9,5.5Z"/>
  <path class="st0" d="M108.9,138.7c-1.8,0-3.7-1.1-4.4-3.6-.3-1.3-.3-2.2-.2-3,0-.3,0-.7,0-1.1,0-3.3,0-6.7.1-10,0-3.7.2-7.5.1-11.3-2.2,1.5-4.4,3.3-6.2,4.7-6.8,5.5-11.8,10.5-18.7,17.4-.2.2-.4.4-.7.7-1.6,1.7-2.5,2.6-3.1,2.9-1.5.8-3.4.5-4.7-.5-1.2-1-1.7-2.4-1.3-3.9.4-1.6,3.3-4.6,10-10.5l.3-.3c7.3-6.4,14.9-12.1,24.2-18.8-.4.2-.9.4-1.4.6-2.5.7-4.4.5-5.7-.6-2.2-1.8-2.1-5.5-1.9-8.5.2-4,.8-9.1,4.2-12.4.6-.6,3.5-2.7,5.4-2.2.5.1.9.4,1.1.7.4-1.7,1.4-3.2,3.7-3.3,1.1,0,1.9.2,2.5.8,1.1,1.1,1,2.7,1,4,0,.1,0,.3,0,.4,0,3.3-.4,7-.8,10.5-.2,1.7-.3,3.4-.4,4.9l13.6-8.1c-.8,0-1.5-.2-2-.7-1.1-1.1-.9-2.8-.7-4.3,0-.5.1-.9.1-1.3,0-.9,0-1.9,0-2.9,0-2.1,0-4.2.2-6.2.5-4.2,2.8-5.3,6.1-5.5.4,0,.8,0,1.1.1,0,0,.2,0,.2,0,.3,0,.8-.7,1.2-1.1.4-.5.8-.9,1.3-1.3,2-1.5,4-1.9,5.6-1.2.9.4,2.1,1.4,2.4,3.9.2,1.7,0,3.6,0,5.4-.1,1.8-.3,3.6,0,5.2,0,.8.3,1.1.3,1.2.4,0,1.8-.8,2.4-1.2.7-.5,1.5-.9,2.2-1.2,2.4-.9,4.8-.5,5.8,1,.4.6,1.2,2.4-.8,4.8-1.4,1.7-4.7,2.8-7.9,3.9-1.2.4-2.4.8-3.2,1.2-3.2,1.4-6.9,3.4-9.6,4.9-6.6,3.6-12.8,7.4-18.2,11.3-.4,3.3-.3,6.7-.3,10.1,0,1.1,0,2.2,0,3.2,0,.9,0,1.8,0,2.7,0,2.5-.1,5.2.3,7.6,0,0,1,4.9,1.1,5.8l.3,1.5h-.3c-.3,1.5-1.5,2.7-3.2,3.1-.3,0-.7.1-1,.1ZM104.7,107.2c.4,0,.8,0,1.1.3.8.4,1.3,1.3,1.3,2.2,0,3.8,0,7.7-.1,11.4,0,3.3-.1,6.6-.1,9.9s0,.9,0,1.3c0,.7-.1,1.2.1,2.1.4,1.6,1.6,1.9,2.5,1.7.2,0,1.5-.4,1.3-1.7l-.3-1.5h0c-.3-1.8-.9-4.3-.9-4.3-.5-2.7-.4-5.5-.4-8.1,0-.9,0-1.8,0-2.6,0-1.1,0-2.1,0-3.2,0-3.4,0-6.9.3-10.4,0-.7.5-1.3,1-1.7,5.5-4,11.8-7.8,18.5-11.5,2.7-1.5,6.5-3.5,9.8-5,.9-.4,2.1-.8,3.4-1.3,2.5-.8,5.8-2,6.8-3.2.7-.9.9-1.5.7-1.7-.3-.4-1.4-.7-2.9-.1-.5.2-1.1.6-1.8,1-1.5,1-3.3,2-4.8,1.3-1.4-.7-1.6-2.5-1.7-3.1-.2-1.8,0-3.8,0-5.6.1-1.8.3-3.4,0-4.9,0-.7-.3-1.7-.9-1.9-.7-.3-1.9,0-3.1,1-.2.2-.5.5-.8.9-.2.3-.5.6-.8.9.3-.1.7-.2,1-.1.8,0,1.5.5,1.9,1.2.2.4.4.9.3,1.4l-.4,10.1c0,.3,0,.5.2.6.3.5.4,1.2.3,1.8-.2.6-.6,1.2-1.1,1.5l-23.6,14h-.1c-.5.2-1.1.1-1.4-.2-.7-.6-.6-1.5-.6-2.1h0c.1-2,.3-4.1.5-6.1.3-3.5.7-7.2.7-10.4,0-.1,0-.3,0-.4,0-.7,0-1.8-.2-2.1,0,0-.3-.1-.6-.1-1.2,0-1.6,1-1.7,4.4,0,.6,0,1.2,0,1.7,0,.6-.1,1.4-.2,2.2-.2,2.5-.4,5.3-1,7.3-.5,1.8-2.3,3.7-4.2,3.6-.5,0-2.1-.3-2.6-2.7-.4-2.4.4-8,1.6-10.3.3-.6.7-1.1,1.1-1.6.7-.9,1.1-1.5,1.1-2-.8.2-2.3,1-2.8,1.5-2.7,2.7-3.3,7.2-3.5,10.7-.1,2.3-.2,5.4,1,6.4.7.5,1.8.6,3.5.1.4,0,.7-.3,1.1-.5.8-.4,1.7-.4,2.5.1.8.5,1.2,1.3,1.1,2.2,0,.8-.4,1.5-1,1.9-9.2,6.7-16.9,12.4-24.2,18.8l-.3.3c-7.9,6.9-9,8.7-9.2,9.2-.2.7.2,1.1.5,1.3.5.4,1.3.6,2,.3.4-.2,1.8-1.8,2.4-2.4.3-.3.5-.6.7-.7,6.9-7.1,12-12.1,18.9-17.6,1.8-1.5,4.1-3.3,6.4-4.9.4-.3.9-.4,1.4-.4ZM105.7,83.3c-.3.4-.6.8-.8,1.1-.3.4-.7.9-.9,1.2-.9,1.8-1.7,6.8-1.4,8.7,0,.4.2.6.2.6.3,0,1.4-.7,1.7-1.8.5-1.7.7-4.5.9-6.8,0-.8.1-1.6.2-2.2,0-.3,0-.6,0-.9ZM125.3,86c0,0,.3,0,.8,0,1.7-.3,1.9-1.6,1.8-4.3,0-.4,0-.8,0-1.1,0-2.3,0-6.6,2.5-9.4.2-.3.5-.6.9-.9,0,0-.1,0-.2,0-.6,0-1,0-1.4-.1,0,0-.2,0-.2,0-2.8.2-3.5.9-3.8,3.3-.2,1.9-.2,4-.2,6,0,1,0,2,0,3,0,.5,0,1-.2,1.5,0,.6-.3,1.8,0,2.1ZM133.8,71.5c-.2,0-.8.4-1.5,1.2-1.7,2-1.9,5.1-1.9,7.8,0,.3,0,.7,0,1,0,1.2,0,2.9-.6,4.3l4-2.4c-.2-.4-.4-.9-.5-1.5,0-.1,0-.3,0-.5l.4-10.1ZM141.3,79.8h0ZM129.6,70.1s0,0,0,0c0,0,0,0,0,0Z"/>
  <path class="st0" d="M64.3,129.7c-2.8,0-3.3-2.8-3.6-4.3,0-.2,0-.5-.1-.7-1.1-4.9-1.8-10-2.4-14.9-.4-2.8-.8-5.7-1.2-8.5-.2-1-.4-2.1-.5-3.1-.2-1.1-.3-2.3-.6-3.4-.2.6-.5,1.3-.7,2-.3.9-.6,1.8-1,2.7,0,.1-.1.3-.2.4-.5,1.3-1.3,3.2-3.7,3.4-1.5,0-2.3-.5-2.7-1-.7-.9-.8-2.2-.4-3.9.8-3.2,2.1-6.5,3.3-9.7,1.1-3,2.3-6,3.1-9v-.2c0,0,.2-.2.2-.2,1.1-1.6,2.5-2.4,4-2.1,1.6.3,2.8,1.7,3.4,3.8.8,3.3,1.4,7,2,10.6.3,2.1.6,4.1,1,6,.2,1,.3,2,.4,3,1.1-7.3,2.8-15,5-23.2,1.9-7,5.7-19.9,9.8-28.4,1.2-2.4,2.7-4,4.4-4.5,1.3-.4,2.7-.2,4.1.5,1.7,1,2.3,2.3,2.5,3.2.5,2.5-1.4,5-2.2,6l-.7.9c-4.6,5.6-6.4,11.1-8.8,19.3-2.4,8.2-4.9,17-6.6,25.6-.8,3.9-1.2,8-1.7,12-.5,4.5-1,9.2-2,13.8-.3,1.2-.7,3.4-3.1,3.7-.3,0-.5,0-.7,0ZM56.2,89.5l.9,1.7c1.1,2.1,1.4,4.4,1.7,6.7.1,1,.3,2,.5,2.9h0c.5,2.9.9,5.8,1.3,8.6.7,4.9,1.4,9.9,2.4,14.7,0,.3.1.5.1.8.4,2.3.7,2.3,1.5,2.2.5,0,.7-.4,1-1.8,1-4.4,1.5-9.1,2-13.5.4-4,.9-8.2,1.7-12.2,1.7-8.8,4.2-17.6,6.7-25.9,2.2-7.3,4.2-14.3,10.1-21.1l.3-.4c1-1.3,1.5-2.6,1.3-3.5-.1-.6-.5-1.1-1.2-1.5-.8-.4-1.5-.6-2.2-.3-1,.3-2,1.4-2.9,3.2-4,8.3-7.8,21.1-9.6,27.9-2.9,10.7-4.8,20.5-5.8,29.9v.9c-.1,0-1,.2-1,.2-.3,0-.9.2-1.5-.3-.5-.4-.5-1-.5-1.2,0,0,0,0,0,0-.5-1.8-.7-3.8-.9-5.7-.1-1.3-.3-2.6-.5-3.8-.4-1.9-.7-4-1-6.1-.5-3.5-1.1-7.2-1.9-10.4-.3-1.2-.9-1.8-1.4-1.9-.4,0-.9.3-1.4.9-.8,3-2,6-3.1,9-1.2,3.1-2.4,6.4-3.2,9.4-.3,1.1-.2,1.6,0,1.7,0,0,.2.1.6.1.7,0,.9-.4,1.5-1.8,0-.2.1-.3.2-.5.3-.8.6-1.6.9-2.5.5-1.7,1.1-3.5,2.3-5.1l1.2-1.5ZM63,107.7s0,0,0,0c0,0,0,0,0,0Z"/>
  <path class="st0" d="M86.2,107.3c-.4,0-.7,0-1.1-.2-1.3-.6-2-2-1.8-4.2.1-1.7.2-3.3.3-5,.1-1.7.2-3.3.3-5,0-.2,0-.4,0-.7,0-1.7.2-4.1,1.4-5.4,1-1.1,2.9-1.6,4.6-2,.6-.1,1.1-.3,1.5-.4.2,0,.4-.2.7-.2h0s.6-.2.6-.2c1.3-.2,2.4,0,3.1.8,1.2,1.3.9,3.2,0,4.4-.5.6-1.1,1-1.6,1.4-.3.2-.6.4-.8.7-1.2,1.2-1.7,2.9-1.9,4.1-.2,1.2-.2,2.5-.2,3.8,0,.5,0,1,0,1.5,0,1.1-.1,2.2-.6,3.3-.6,1.4-1.8,2.5-3.2,3-.4.1-.8.2-1.2.2ZM93.5,86.5h-.3c-.3.1-.6.2-.9.3-.5.2-1.1.3-1.7.5-1.1.3-2.9.8-3.4,1.3-.6.6-.7,2.7-.7,3.8,0,.3,0,.5,0,.7-.1,1.7-.2,3.3-.3,5-.1,1.7-.2,3.3-.3,5,0,1.2.2,1.6.3,1.7,0,0,.2,0,.5,0,.8-.3,1.4-.9,1.7-1.6.3-.6.3-1.4.4-2.4,0-.5,0-1,0-1.4,0-1.4,0-2.8.2-4.2.3-2.4,1.3-4.3,2.7-5.6.3-.3.7-.6,1-.8.4-.3.9-.6,1.1-1,.3-.4.4-.9.3-1.1,0,0-.3-.1-.5,0Z"/>
  <path class="st0" d="M77.7,114.2c-.8,0-1.7-.4-2.4-1.1-.4-.4-.8-.9-1-1.5h0c-.8-1.8-.7-4-.6-5.9,0-.4,0-.7,0-1.1v-.7c.1-2.8.3-7.5.9-9.6.5-2.3,3.1-4.8,5.4-4.6.7,0,2.4.6,2.5,3.6,0,2.4-.4,4.7-.8,7-.1.6-.2,1.2-.3,1.8-.2,1.3-.3,2.7-.4,4.1,0,1.5-.2,3-.5,4.6,0,.5-.2,1.1-.5,1.7-.4.8-1,1.3-1.7,1.5-.2,0-.5.1-.8.1ZM76.6,110.6c.1.3.3.5.5.7.3.3.6.4.6.3,0,0,.1,0,.2-.3.1-.3.2-.6.3-.9.2-1.4.3-2.8.4-4.3,0-1.4.2-2.9.4-4.4.1-.6.2-1.2.3-1.8.4-2.2.8-4.3.7-6.4,0-1-.3-1.2-.3-1.2,0,0-.3,0-.7.2-.9.5-1.8,1.6-2.1,2.5-.5,1.9-.7,6.6-.8,9.1v.7c0,.4,0,.7,0,1.1-.1,1.6-.2,3.4.3,4.6h0Z"/>
  <path class="st0" d="M116.4,92.9c-.5,0-.8-.1-1.1-.3-.7-.4-1.6-1.3-1.6-3.6,0-3.4.7-10.2,1.4-13.3.3-1.3,2.5-4.1,4.3-4.3.9-.1,1.7.3,2.1,1.1.2.3.3.7.4,1.2.4,2.9,0,6-.4,8.9-.1,1-.2,1.9-.3,2.8,0,.5,0,.9,0,1.4,0,1.4.1,3.2-1.8,4.7-1.3,1-2.3,1.3-3.1,1.3ZM116.4,90.4c.1,0,.7-.1,1.5-.8.9-.7.9-1.3.8-2.6,0-.5,0-1.1,0-1.8,0-.9.2-1.9.3-2.9.3-2.8.7-5.6.4-8.2-.7.5-1.8,1.7-1.9,2.3-.7,2.8-1.3,9.6-1.4,12.8,0,.9.1,1.2.2,1.3ZM120.4,73.1l-1.1.6s0,0,0,0h0l1.1-.6Z"/>
  <path class="st0" d="M79.6,86.2c-1.5,0-2.5-1-2.5-2.6,0-2.1,2.3-4.7,4.2-5.1h0c.4,0,1.6-.3,2.5.4.9.7.9,2,.9,2.4,0,2.5-2.8,4.9-5,4.9,0,0,0,0,0,0ZM81.8,80.9h0c-.8.2-2.3,1.8-2.2,2.6,0,.1,0,.2,0,.2.2,0,.7-.1,1.3-.6.7-.6,1.2-1.3,1.2-1.8,0-.2,0-.3,0-.4,0,0-.2,0-.3,0Z"/>
  <path class="st0" d="M119.4,69.8c-.9,0-1.8-.5-2.4-1.3-.5-.8-.6-1.8-.2-2.9.6-1.4,2-2.7,3.3-3,2.8-.7,3.7.7,3.9,1.4.7,1.8-1.1,4.5-3.1,5.5-.5.3-1.1.4-1.6.4ZM121.5,64.9c-.2,0-.4,0-.8.1h0c-.5.1-1.2.8-1.5,1.5,0,.2-.1.4,0,.6.1.2.2.3.6.1,1-.4,1.9-1.7,2-2.3,0,0,0,0-.1,0Z"/>
</svg>