<svg width="192" height="192" viewBox="0 0 192 192" fill="none" xmlns="http://www.w3.org/2000/svg">
<path d="M137.144 134.723C132.616 145.866 121.349 152.166 107.464 153.277M137.144 134.723C125.687 131.912 121.079 132.062 115.81 135.134C110.706 138.815 108.849 142.732 107.464 153.277M137.144 134.723L168.313 58.0096M107.464 153.277C93.1507 154.423 76.0556 150.055 60.6922 139.794L43.6985 128.444C19.9767 112.6 16.0395 89.6466 30.2495 76.835L86.6149 26.0159C93.3092 19.9801 111.046 19.3223 128.071 24.419L139.659 27.8881C148.903 30.6553 156.996 34.6895 162.571 39.0996M162.571 39.0996C168.751 43.9874 171.837 49.3369 169.969 53.9346L168.313 58.0096M162.571 39.0996C158.835 39.0996 158.517 46.1886 159.302 47.7833C161.17 53.6269 164.439 56.5487 168.313 58.0096M167.709 66.1939C170.272 69.4059 171.205 72.6394 169.969 75.5572L137.144 153.035C127.949 174.737 90.9601 177.285 60.6922 157.898L43.6985 147.013C26.87 136.234 19.9984 122.023 22.499 110.288L23.5052 105.792" stroke="black" stroke-width="10" stroke-linecap="round"/>
<path d="M47.3067 80.2793L93.4223 38.16C93.5136 38.0763 93.7666 38.0668 93.9894 38.1379L147.041 55.2357C147.334 55.3298 147.518 55.4938 147.456 55.6034L114.402 113.826C114.276 114.048 113.866 114.071 113.484 113.88L47.4804 80.791C47.216 80.6591 47.1402 80.4306 47.3073 80.2786" stroke="black" stroke-width="6" stroke-linecap="round" stroke-linejoin="round"/>
<path d="M113.022 31.8821C114.633 32.349 115.524 33.1768 114.998 33.7321C114.467 34.2924 112.703 34.3568 111.075 33.8749C109.458 33.3967 108.605 32.5662 109.154 32.021C109.698 31.4806 111.423 31.4187 113.022 31.8821ZM126.048 35.6581C127.759 36.154 128.768 37.0333 128.285 37.6232C127.797 38.2186 125.984 38.2867 124.253 37.7744C122.535 37.266 121.567 36.3838 122.075 35.805C122.579 35.2313 124.351 35.166 126.048 35.6581ZM123.505 33.4231C123.012 33.9808 121.256 34.0448 119.598 33.5652C117.953 33.0891 117.046 32.2624 117.558 31.7197C118.065 31.1816 119.783 31.1202 121.41 31.5816C123.048 32.0463 123.994 32.8702 123.505 33.4231ZM119.504 37.9524C118.976 38.5505 117.155 38.619 115.455 38.104C113.767 37.5932 112.857 36.7068 113.405 36.1254C113.948 35.5491 115.728 35.4836 117.396 35.9779C119.077 36.4761 120.028 37.3597 119.504 37.9524ZM142.523 39.6934C145.828 40.6604 147.93 42.3903 147.16 43.5621C146.378 44.754 142.951 44.8901 139.565 43.8614C136.229 42.8482 134.27 41.1075 135.133 39.9772C135.98 38.8655 139.265 38.7403 142.523 39.6934ZM87.4564 117.33C91.8788 119.645 94.0904 123.816 92.262 126.665C90.3843 129.592 85.0511 129.913 80.4951 127.366C76.0442 124.878 74.1777 120.667 76.1863 117.973C78.1441 115.347 83.1318 115.066 87.4564 117.33Z" stroke="black" stroke-width="6"/>
<path d="M61.7639 117.201L58.0496 114.696L55.756 109.356L61.8593 109.048L65.5736 111.553L61.7639 117.201Z" stroke="black" stroke-width="6" stroke-linecap="round" stroke-linejoin="round"/>
<path d="M38.4651 101.486L42.1794 103.991L47.9897 104.118L45.9892 98.3433L42.2749 95.838L38.4651 101.486Z" stroke="black" stroke-width="6" stroke-linecap="round" stroke-linejoin="round"/>
<path d="M63.2922 96.6603L60.7868 100.375L55.4469 102.668L55.1387 96.5648L57.644 92.8505L63.2922 96.6603Z" stroke="black" stroke-width="6" stroke-linecap="round" stroke-linejoin="round"/>
<path d="M41.4526 116.855L43.9579 113.141L49.2978 110.847L49.6061 116.951L47.1007 120.665L41.4526 116.855Z" stroke="black" stroke-width="6" stroke-linecap="round" stroke-linejoin="round"/>
</svg>
