<svg xmlns="http://www.w3.org/2000/svg" width="192" height="192" fill="none" stroke="#000" stroke-linecap="round" stroke-linejoin="round" viewBox="0 0 192 192"><path stroke-width="12" d="M62 30h68M62 162h68m40-92a40.003 40.003 0 0 0-40-40m-68 0a40 40 0 0 0-28.284 11.716M130 162a39.996 39.996 0 0 0 40-40M33.716 150.284A40 40 0 0 0 62 162M22 72v48m148-50v52M22 72l34 24-34 24"/><path stroke-width="10" d="m116.282 65.09 1.217 23.218 22.457 6.017-21.705 8.332 1.217 23.218-14.632-18.069-21.705 8.332L95.794 96.64 81.162 78.57l22.458 6.018 12.662-19.499Z"/></svg>