<svg width="192" height="192" viewBox="0 0 192 192" fill="none" xmlns="http://www.w3.org/2000/svg">
<path d="M167.322 57.8183C149.043 89.2177 130.764 120.617 112.485 152.081C109.102 157.948 104.159 161.43 97.3935 161.946C89.8477 162.461 83.8631 159.302 80.0251 152.855C68.4463 133.19 56.9974 113.396 45.5486 93.6664C38.5883 81.6741 31.5629 69.6818 24.6026 57.6249C17.5772 45.5036 25.5132 30.7388 39.564 30.0296C46.9797 29.643 52.7041 33.0599 56.477 39.4429C61.616 48.1471 66.6899 56.9802 71.8288 65.7488C75.5367 72.0673 79.1144 78.4504 82.8873 84.64C88.3515 93.731 96.4177 98.8245 107.151 99.4692C122.308 100.372 136.423 89.4756 138.245 73.5502C138.375 72.3897 138.44 71.1647 138.505 70.5844C138.439 65.4264 137.465 61.0421 135.383 56.9802C129.724 45.7615 135.773 33.1889 148.068 30.4809C158.085 28.2888 168.493 35.5744 169.794 45.6326C170.445 49.9524 169.534 54.0143 167.322 57.8183Z" stroke="black" stroke-width="12"/>
</svg>
