<svg xmlns="http://www.w3.org/2000/svg" width="192" height="192" fill="none"><path stroke="#000" stroke-linecap="round" stroke-linejoin="round" stroke-width="12" d="M98 76v44M76 87v22m44-22v22M54 94v8m88-8v8M92 24c8.487 0 15.473 2.5 18.836 3.965 1.415.616 2.992.787 4.515.538C138.244 24.757 170 50.208 170 85c0 50-34 82-74 82-33.319 0-47.21-18.04-50.921-24.066a8.8 8.8 0 0 0-3.041-2.982C36.646 136.81 22 126.398 22 106c0-15.895 15.397-30.39 20.43-34.703a7.1 7.1 0 0 0 2.151-3.258C47.36 59.259 60.481 24 92 24"/></svg>