<svg xmlns="http://www.w3.org/2000/svg" width="192" height="192" fill="none" viewBox="0 0 192 192"><path stroke="#000" stroke-linejoin="round" stroke-width="12" d="M120.334 60.35a26.928 26.928 0 0 1-12.169 12.77l.509 2.633a6 6 0 0 0 7.439 4.66l22.119-5.907c3.038-.812 6.178.9 7.172 3.907l4.289 12.98c1.04 3.147-.646 6.55-3.766 7.599l-28.138 9.462c-3.872 1.302-5.327 6.059-2.856 9.337l26.065 34.56c2.001 2.654 1.478 6.443-1.166 8.444l-10.578 8.003a5.918 5.918 0 0 1-8.103-.907L96 138.142l-25.151 29.749a5.918 5.918 0 0 1-8.103.907l-10.578-8.003c-2.644-2.001-3.167-5.79-1.166-8.444l26.065-34.56c2.471-3.278 1.016-8.035-2.856-9.337l-28.138-9.462c-3.12-1.05-4.806-4.452-3.766-7.6l4.289-12.979c.994-3.008 4.134-4.719 7.172-3.907l22.12 5.907a6 6 0 0 0 7.438-4.66l.51-2.633a26.929 26.929 0 0 1-12.17-12.77 27.252 27.252 0 0 1-1.721-17.628 27.06 27.06 0 0 1 9.466-14.919A26.646 26.646 0 0 1 96 22a26.647 26.647 0 0 1 16.589 5.803 27.057 27.057 0 0 1 9.466 14.92 27.252 27.252 0 0 1-1.721 17.628z"/></svg>