<svg width="192" height="192" viewBox="0 0 192 192" fill="none" xmlns="http://www.w3.org/2000/svg"><path d="M112 56s36-10 24-34c0 0-6 6-40 6-39.212 0-71 31.788-71 71s31.788 71 71 71 71-31.788 71-71c0-24.27-12.177-45.695-30.755-58.5" stroke="#000" stroke-width="12" stroke-linecap="round" stroke-linejoin="round"/><path d="M128 116c0 2.889-.828 5.75-2.436 8.419-1.608 2.669-3.965 5.094-6.937 7.137-2.971 2.043-6.499 3.664-10.381 4.769C104.363 137.431 100.202 138 96 138s-8.364-.569-12.246-1.675c-3.882-1.105-7.41-2.726-10.381-4.769-2.972-2.043-5.329-4.468-6.937-7.137C64.828 121.75 64 118.889 64 116h64Zm0-26a9.006 9.006 0 0 0-2.636-6.364 9.003 9.003 0 0 0-12.728 0A8.992 8.992 0 0 0 110 90" stroke="#000" stroke-width="10" stroke-linecap="round" stroke-linejoin="round"/><circle cx="69" cy="85" r="5" stroke="#000" stroke-width="10" stroke-linecap="round" stroke-linejoin="round"/></svg>