<svg xmlns="http://www.w3.org/2000/svg" width="192" height="192" fill="none"><path stroke="#000" stroke-linecap="round" stroke-linejoin="round" stroke-width="12" d="M40.096 77.946C43.29 77.056 46 79.686 46 83v44c0 3.314-2.712 5.943-5.904 5.054C32.99 130.073 22 123.948 22 105s10.99-25.073 18.096-27.054m111.808 0C148.712 77.056 146 79.686 146 83v44c0 3.314 2.712 5.943 5.904 5.054C159.01 130.073 170 123.948 170 105s-10.99-25.073-18.096-27.054"/><path stroke="#000" stroke-linecap="round" stroke-linejoin="round" stroke-width="12" d="M157.058 79.234A61.996 61.996 0 0 0 95.892 28a62 62 0 0 0-60.987 51.447"/><ellipse cx="96" cy="160" stroke="#000" stroke-linecap="round" stroke-linejoin="round" stroke-width="10" rx="14" ry="5"/><path stroke="#000" stroke-linecap="round" stroke-linejoin="round" stroke-width="10" d="M96 160a62 62 0 0 0 53.694-31"/></svg>