<svg width="192" height="192" viewBox="0 0 192 192" fill="none" xmlns="http://www.w3.org/2000/svg"><path d="M25 31a6 6 0 0 1 6-6h130a6 6 0 0 1 6 6v130a6 6 0 0 1-6 6H31a6 6 0 0 1-6-6V31Z" stroke="#000" stroke-width="12" stroke-linecap="round" stroke-linejoin="round"/><path d="M167 133V97c0-15.464-12.536-28-28-28H53c-15.464 0-28 12.536-28 28v36" stroke="#000" stroke-width="12" stroke-linecap="round" stroke-linejoin="round"/><path d="M25 104c29 0 71 29 71 29m71-29c-29 0-71 29-71 29" stroke="#000" stroke-width="12" stroke-linecap="round" stroke-linejoin="round"/></svg>