<svg xmlns="http://www.w3.org/2000/svg" width="192" height="192" fill="none" viewBox="0 0 192 192"><path stroke="#000" stroke-linecap="round" stroke-linejoin="round" stroke-width="10" d="M84 65a5 5 0 1 1-9.999 0A5 5 0 0 1 84 65h0Zm28 0a4.998 4.998 0 1 1-10 0 4.998 4.998 0 1 1 10 0h0Zm28 0a4.998 4.998 0 1 1-10 0 4.998 4.998 0 1 1 10 0h0Z"/><path stroke="#000" stroke-linecap="round" stroke-linejoin="round" stroke-width="12" d="M162 156V36a6 6 0 0 0-6-6H36a6 6 0 0 0-6 6v120a6 6 0 0 0 6 6h120a6 6 0 0 0 6-6Z"/><path stroke="#000" stroke-linecap="round" stroke-linejoin="round" stroke-width="12" d="M162 102s-26 36-58 36v-18c-20 0-56-22-56-60 0-20 8-30 8-30"/></svg>