<svg width="192" height="192" fill="none" xmlns="http://www.w3.org/2000/svg"><path d="M52.419 168.325a21.989 21.989 0 0 0 7.137-4.769l18-18a21.997 21.997 0 0 0 0-31.112 22 22 0 0 0-31.112 0l-18 18a22.001 22.001 0 0 0 0 31.112A21.989 21.989 0 0 0 44 170c2.89 0 5.75-.569 8.419-1.675Zm87.162 0a21.99 21.99 0 0 1-7.137-4.769l-18-18a21.997 21.997 0 0 1 0-31.112 21.997 21.997 0 0 1 31.112 0l18 18A21.99 21.99 0 0 1 170 148a21.992 21.992 0 0 1-6.444 15.556A21.99 21.99 0 0 1 148 170c-2.889 0-5.75-.569-8.419-1.675ZM52.419 23.675a22.003 22.003 0 0 1 7.137 4.769l18 18a22 22 0 0 1-31.112 31.112l-18-18a22 22 0 0 1 23.975-35.881Zm87.162 0a22.005 22.005 0 0 0-7.137 4.769l-18 18a22 22 0 1 0 31.112 31.112l18-18A21.989 21.989 0 0 0 170 44a21.992 21.992 0 0 0-6.444-15.556 22.001 22.001 0 0 0-23.975-4.77Z" stroke="#000" stroke-width="12" stroke-linecap="round" stroke-linejoin="round"/></svg>