<svg xmlns="http://www.w3.org/2000/svg" width="192" height="192" fill="none"><path stroke="#000" stroke-linecap="round" stroke-linejoin="round" stroke-width="12" d="M25 31a6 6 0 0 1 6-6h130a6 6 0 0 1 6 6v130a6 6 0 0 1-6 6H31a6 6 0 0 1-6-6z"/><path stroke="#000" stroke-linecap="round" stroke-linejoin="round" stroke-width="12" d="M87 74.34c0-4.608 4.977-7.496 8.977-5.21l37.906 21.66c4.031 2.304 4.031 8.116 0 10.419L95.977 122.87c-4 2.286-8.977-.602-8.977-5.209V74.339Z"/><path stroke="#000" stroke-linecap="round" stroke-linejoin="round" stroke-width="12" d="M155 25H79c-15.464 0-28 12.536-28 28v86c0 15.464 12.536 28 28 28h76"/></svg>