<?xml version="1.0" encoding="UTF-8" standalone="no"?>
<svg
   enable-background="new 0 0 24 24"
   height="192"
   viewBox="0 0 9 9"
   width="192"
   version="1.1"
   id="svg2969"
   xmlns="http://www.w3.org/2000/svg"
   xmlns:svg="http://www.w3.org/2000/svg">
  <defs
     id="defs2973" />
  <path
     d="m 6.7904211,4.796002 c -0.1122051,-0.14114 -0.080107,-0.2038691 0,-0.3299928 0.00144,-0.00144 0.9277164,-1.2758986 1.0231487,-1.7081014 l 5.844e-4,-2.869e-4 C 7.8615751,2.6001179 7.8141483,2.4843651 7.5848219,2.4843651 H 6.8259918 c -0.1931781,0 -0.2822486,0.099272 -0.3299644,0.2104825 0,0 -0.3863558,0.9208585 -0.9329221,1.5177676 -0.1764052,0.1724751 -0.2579562,0.2277624 -0.3542559,0.2277624 -0.047428,0 -0.12117,-0.055332 -0.12117,-0.2127904 V 2.7576135 c 0,-0.188897 -0.054079,-0.2732558 -0.2139993,-0.2732558 H 3.6804884 c -0.12117,0 -0.1931777,0.088175 -0.1931777,0.1701822 0,0.1791029 0.2732829,0.2202763 0.3016233,0.7241793 v 1.0933335 c 0,0.2395688 -0.043666,0.2836269 -0.1405455,0.2836269 -0.2579562,0 -0.8840494,-0.9246016 -1.2550779,-1.9828011 C 2.3184106,2.5675742 2.2452459,2.4846506 2.050622,2.4846506 H 1.2915024 c -0.2166021,0 -0.2602697,0.099272 -0.2602697,0.2104826 0,0.1963829 0.2579562,1.1728099 1.1995538,2.4628092 0.627539,0.8805433 1.5112994,1.3576683 2.3152429,1.3576683 0.4832341,0 0.5422286,-0.1059292 0.5422286,-0.2882427 0,-0.8413821 -0.043668,-0.9208585 0.1983831,-0.9208585 0.1122054,0 0.3053828,0.055332 0.7565168,0.48001 0.5156234,0.5036219 0.6003553,0.7290764 0.8889656,0.7290764 h 0.7588308 c 0.2163128,0 0.3259151,-0.1059292 0.2628721,-0.315006 C 7.8095213,5.7609115 6.8343782,4.8564705 6.7904211,4.796002 Z"
     fill="#4b729f"
     id="path2967"
     style="fill:#4b729f;fill-opacity:0;stroke:#000000;stroke-width:0.562497;stroke-linecap:round;stroke-linejoin:round;stroke-dasharray:none;stroke-opacity:1" />
</svg>
