<?xml version="1.0" encoding="UTF-8" standalone="no"?>
<svg
   xmlns:dc="http://purl.org/dc/elements/1.1/"
   xmlns:cc="http://creativecommons.org/ns#"
   xmlns:rdf="http://www.w3.org/1999/02/22-rdf-syntax-ns#"
   xmlns:svg="http://www.w3.org/2000/svg"
   xmlns="http://www.w3.org/2000/svg"
   xmlns:sodipodi="http://sodipodi.sourceforge.net/DTD/sodipodi-0.dtd"
   xmlns:inkscape="http://www.inkscape.org/namespaces/inkscape"
   width="192"
   height="192"
   viewBox="0 0 192 192"
   version="1.1"
   id="svg12"
   sodipodi:docname="vkusvill.svg"
   inkscape:version="0.92.5 (2060ec1f9f, 2020-04-08)">
  <metadata
     id="metadata18">
    <rdf:RDF>
      <cc:Work
         rdf:about="">
        <dc:format>image/svg+xml</dc:format>
        <dc:type
           rdf:resource="http://purl.org/dc/dcmitype/StillImage" />
        <dc:title></dc:title>
      </cc:Work>
    </rdf:RDF>
  </metadata>
  <defs
     id="defs16" />
  <sodipodi:namedview
     pagecolor="#ffffff"
     bordercolor="#666666"
     borderopacity="1"
     objecttolerance="10"
     gridtolerance="10"
     guidetolerance="10"
     inkscape:pageopacity="0"
     inkscape:pageshadow="2"
     inkscape:window-width="1920"
     inkscape:window-height="1016"
     id="namedview14"
     showgrid="false"
     inkscape:zoom="1.2316833"
     inkscape:cx="68.48958"
     inkscape:cy="96.984996"
     inkscape:window-x="0"
     inkscape:window-y="27"
     inkscape:window-maximized="1"
     inkscape:current-layer="svg12" />
  <g
     id="g2189"
     transform="matrix(0.80939975,0,0,0.81251147,219.54039,35.524025)">
    <g
       id="g2193">
      <g
         id="g2197"
         transform="matrix(1.00139,0,0,0.99987864,2.0569289,-0.34468909)">
        <path
           sodipodi:nodetypes="sccsssssccssss"
           id="path1985"
           d="m -193.86512,111.84024 -32.17651,-0.25326 V 76.065134 l 32.17651,0.253265 c 4.72139,0.03716 8.65387,1.48394 11.62256,3.881093 4.06672,3.283788 6.32486,8.350997 6.32486,14.021099 0,9.809259 -6.75835,17.707719 -17.94742,17.619649 z m -2.38345,-35.540601 -29.79306,-0.234505 V 40.543286 l 29.79306,0.234505 c 11.18907,0.08807 18.14009,7.282486 18.14009,17.09174 0,4.988128 -1.79743,9.691727 -5.03555,13.098736 -3.12971,3.292941 -7.60525,5.374659 -13.10454,5.331372 z"
           style="fill:none;stroke:#000000;stroke-width:14.78774452;stroke-linecap:butt;stroke-linejoin:round;stroke-miterlimit:4;stroke-dasharray:none"
           inkscape:connector-curvature="0" />
        <path
           sodipodi:nodetypes="sccssssccsss"
           id="path1985-5"
           d="m -106.40653,111.31881 h -41.64559 V 76.355822 l 44.365,0.430609 c 15.432975,0.149794 21.163877,8.410027 20.76233,18.055646 -0.407912,9.798473 -5.736574,16.476733 -23.48174,16.476733 z m -3.08485,-34.962988 h -38.56074 V 41.392824 h 38.56074 c 14.48187,0 21.555553,7.433361 21.555553,17.088289 0,9.654928 -7.073683,17.874709 -21.555553,17.874709 z"
           style="fill:none;stroke:#000000;stroke-width:14.78774452;stroke-linecap:butt;stroke-linejoin:round;stroke-miterlimit:4;stroke-dasharray:none"
           inkscape:connector-curvature="0" />
      </g>
    </g>
  </g>
</svg>
