<svg xmlns="http://www.w3.org/2000/svg" width="192" height="192" fill="none" stroke-width="12" viewBox="0 0 192 192"><path stroke="#000" stroke-linecap="round" d="M57.5 122H46a8 8 0 0 0-7.68 5.76l-9.333 32c-1.494 5.12 2.346 10.24 7.68 10.24h118.666c5.334 0 9.174-5.12 7.68-10.24l-9.333-32A8 8 0 0 0 146 122h-9.5"/><path stroke="#000" d="M103.651 25.039c-2.307-7.55-12.995-7.55-15.302 0L55.672 131.982c-.886 2.9.18 6.071 2.778 7.633C69.421 146.208 82.268 150 96 150s26.579-3.792 37.55-10.385c2.599-1.562 3.664-4.733 2.778-7.633z"/><path fill="#000" d="m66.753 97.066-3.73 11.533C73.024 113.346 84.21 116 96 116c11.564 0 22.545-2.553 32.398-7.129l-3.313-11.724C116.339 101.531 106.465 104 96 104c-10.53 0-20.461-2.5-29.247-6.934m8.804-27.222a36.86 36.86 0 0 0 41.662-.53l-3.564-12.612a25 25 0 0 1-5.452 4.124 24.86 24.86 0 0 1-24.406 0 25 25 0 0 1-4.33-3.072z"/></svg>