<svg width="192" height="192" viewBox="0 0 192 192" fill="none" xmlns="http://www.w3.org/2000/svg"><path d="M22 41.148a6 6 0 0 1 5.088-5.93l83.911-12.91a5.999 5.999 0 0 1 3.779.66l52.089 28.328a6 6 0 0 1 3.133 5.27v94.304a6 6 0 0 1-5.068 5.927l-81.925 12.887a5.993 5.993 0 0 1-3.793-.653L25.14 139.703a6.002 6.002 0 0 1-3.14-5.274V41.148Z" stroke="#000" stroke-width="12" stroke-linecap="round" stroke-linejoin="round"/><path d="m94 117 6.5-1M121 27v106m0 0 42 24m-42-24-84 13m35-87v106m0-106L30 35m42 24 84-13" stroke="#000" stroke-width="10" stroke-linecap="round" stroke-linejoin="round"/></svg>