<?xml version="1.0" standalone="no"?>
<!DOCTYPE svg PUBLIC "-//W3C//DTD SVG 20010904//EN"
 "http://www.w3.org/TR/2001/REC-SVG-20010904/DTD/svg10.dtd">
<svg version="1.0" xmlns="http://www.w3.org/2000/svg"
 width="192.000000pt" height="192.000000pt" viewBox="0 0 192.000000 192.000000"
 preserveAspectRatio="xMidYMid meet">

<g transform="translate(0.000000,192.000000) scale(0.100000,-0.100000)"
fill="#000000" stroke="none">
<path d="M395 1655 c-51 -18 -120 -91 -134 -141 -15 -54 -15 -1044 0 -1099 15
-53 91 -129 144 -144 55 -15 1045 -15 1100 0 53 15 129 91 144 144 15 55 15
1045 0 1100 -15 53 -91 129 -144 144 -27 7 -208 11 -555 11 -418 -1 -523 -4
-555 -15z m1121 -129 l34 -34 0 -527 0 -527 -34 -34 -34 -34 -522 0 c-469 0
-525 2 -550 17 -16 9 -33 27 -39 40 -15 33 -15 1043 0 1076 26 57 17 56 587
57 l524 0 34 -34z"/>
<path d="M496 1284 c-9 -8 -16 -24 -16 -36 0 -16 158 -521 185 -591 9 -22 47
-32 72 -19 14 8 44 90 111 304 51 161 92 300 92 309 0 9 -9 24 -20 34 -16 15
-26 17 -47 9 -25 -8 -33 -26 -93 -217 -56 -180 -80 -237 -80 -196 0 26 -123
391 -137 404 -19 19 -48 19 -67 -1z"/>
<path d="M1027 1282 c-15 -16 -17 -53 -17 -319 0 -278 1 -301 18 -316 23 -21
42 -21 68 -3 17 13 19 31 24 200 l5 186 104 -186 c57 -102 110 -192 118 -200
19 -18 48 -18 67 2 14 13 16 56 16 319 0 263 -2 306 -16 319 -17 18 -42 20
-64 6 -12 -7 -16 -46 -20 -206 l-5 -196 -108 193 c-60 107 -116 200 -125 207
-22 17 -46 15 -65 -6z"/>
</g>
</svg>
