<svg width="192" height="192" viewBox="0 0 192 192" fill="none" xmlns="http://www.w3.org/2000/svg"><path d="M22.123 47.004C21.987 43.693 24.686 41 28 41h46.587c3.47 0 6.204 2.938 6.33 6.407C81.961 76.386 101 111 101 111s12-20 12-40c0-9.31-.867-16.453-1.793-21.43-.777-4.173 2.41-8.57 6.655-8.57H164c3.314 0 6.006 2.699 5.949 6.012-.452 26.034-3.759 40.492-5.238 45.716-.418 1.475-1.463 2.64-2.824 3.346C152.986 100.694 119 119.356 119 135c0 12 9 22 9 22H74.34c-1.505 0-2.924-.537-3.985-1.603-8.358-8.404-45.814-49.238-48.232-108.393Z" stroke="#000" stroke-width="12" stroke-linecap="round" stroke-linejoin="round"/></svg>