<svg viewBox="0 0 192 192" xmlns="http://www.w3.org/2000/svg"><path d="M85.769 167.506c-28.997-4.498-52.172-25.312-59.875-53.774-2.525-9.33-2.525-25.994 0-35.324 10.89-40.243 52.055-63.27 91.513-51.195a71.691 71.691 0 0 1 43.477 37.23C166.418 75.852 168 82.882 168 96.07c0 13.188-1.582 20.218-7.116 31.627-11.544 23.796-35.1 39.099-61.928 40.228-4.533.192-10.467.002-13.187-.42zm24.142-3.732c27.057-5.543 48.672-27.283 54.198-54.513 1.685-8.3 1.26-23.1-.888-30.853-1.73-6.247-5.989-15.48-9.737-21.105-5.49-8.242-21.298-22.012-25.28-22.02-2.116-.004-10.04 5.764-15.24 11.093-5.617 5.757-10.256 13.346-8.5 13.902.598.189 2.45.76 4.118 1.272 4.632 1.418 12.397 6.764 15.753 10.846 18.278 22.233 5.697 55.275-22.842 59.989-14.58 2.407-30.713-5.63-37.81-18.837-6.58-12.243-5.662-31.005 2.323-47.462 9.264-19.094 26.6-30.726 50.269-33.73 4.915-.623 4.924-.63 2.433-1.656-4.76-1.961-15.181-3.635-22.637-3.635-43.56 0-76.676 40.366-67.926 82.8 5.447 26.417 27.113 48.222 53.503 53.846 7.686 1.638 20.434 1.666 28.263.063zm-7.08-34.934c17.44-3.637 29.472-21.113 26.31-38.216-2.418-13.082-10.992-22.648-23.837-26.595-3.49-1.073-4.765-1.876-4.954-3.118-.511-3.36 4.081-10.354 11.842-18.032 4.224-4.18 7.13-7.599 6.459-7.599-.671 0-4.08.588-7.573 1.305-28.64 5.882-45.911 25.23-48.334 54.145-1.553 18.546 8.208 33.174 25.172 37.72 5.484 1.471 9.26 1.57 14.914.39z"/></svg>