<?xml version="1.0" encoding="UTF-8" standalone="no"?>
<svg
   viewBox="0 0 192 192"
   id="vector"
   version="1.1"
   sodipodi:docname="vodafone.svg"
   inkscape:version="1.1.2 (b8e25be833, 2022-02-05)"
   xmlns:inkscape="http://www.inkscape.org/namespaces/inkscape"
   xmlns:sodipodi="http://sodipodi.sourceforge.net/DTD/sodipodi-0.dtd"
   xmlns="http://www.w3.org/2000/svg"
   xmlns:svg="http://www.w3.org/2000/svg">
  <defs
     id="defs19" />
  <sodipodi:namedview
     id="namedview17"
     pagecolor="#ffffff"
     bordercolor="#666666"
     borderopacity="1.0"
     inkscape:pageshadow="2"
     inkscape:pageopacity="0.0"
     inkscape:pagecheckerboard="0"
     showgrid="false"
     inkscape:zoom="3.0104167"
     inkscape:cx="96"
     inkscape:cy="96"
     inkscape:window-width="1280"
     inkscape:window-height="961"
     inkscape:window-x="-8"
     inkscape:window-y="-8"
     inkscape:window-maximized="1"
     inkscape:current-layer="vector" />
  <path
     id="path"
     d="m 85.590642,169.32501 c -29.711903,-4.6136 -53.45827,-25.96256 -61.351181,-55.15609 -2.587254,-9.56977 -2.587254,-26.662062 0,-36.231853 11.158485,-41.277307 53.338383,-64.896136 93.769209,-52.51079 9.64711,2.9612 18.58211,7.879438 26.24652,14.450084 7.6644,6.569617 13.89535,14.650095 18.30235,23.736783 5.67048,11.70223 7.29145,18.91291 7.29145,32.439859 0,13.526957 -1.62097,20.737617 -7.29145,32.439857 -11.82857,24.4076 -35.96533,40.10391 -63.454781,41.26191 -4.644758,0.19692 -10.725059,0.002 -13.512117,-0.43079 z m 24.737228,-3.82792 c 27.72405,-5.68545 49.87197,-27.9842 55.5342,-55.91407 1.72655,-8.51333 1.29107,-23.693693 -0.90989,-31.645953 -1.77265,-6.407558 -6.13666,-15.877861 -9.97709,-21.647432 -5.62533,-8.453832 -21.82307,-22.577741 -25.90321,-22.585949 -2.16818,-0.0041 -10.28756,5.912146 -15.61574,11.378109 -5.75551,5.904962 -10.50885,13.689013 -8.70958,14.259301 0.61277,0.193858 2.5104,0.779534 4.21953,1.304693 4.74619,1.454445 12.70264,6.937844 16.14137,11.124759 18.72864,22.804423 5.83748,56.695642 -23.40513,61.530812 -14.939484,2.46885 -31.470235,-5.7747 -38.742205,-19.32115 C 56.2179,101.42252 57.15853,82.178342 65.340396,65.298372 74.832794,45.713626 92.596204,33.782667 116.84874,30.701459 c 5.03618,-0.639011 5.04542,-0.646193 2.49299,-1.698562 -4.87736,-2.011401 -15.55526,-3.728424 -23.195098,-3.728424 -44.633945,0 -78.566401,41.403467 -69.600674,84.928097 5.581291,27.09594 27.781453,49.46135 54.822084,55.22991 7.875493,1.68011 20.937778,1.70883 28.959828,0.0645 z m -7.25457,-35.83185 c 17.86998,-3.73046 30.19861,-21.65567 26.95867,-39.198207 -2.47762,-13.418227 -11.26302,-23.230087 -24.4247,-27.278532 -3.57604,-1.100577 -4.88247,-1.924215 -5.07614,-3.198137 -0.52359,-3.446355 4.18162,-10.620111 12.13396,-18.495446 4.32814,-4.287435 7.3058,-7.794309 6.61825,-7.794309 -0.68754,0 -4.1806,0.603114 -7.75972,1.338543 -29.346103,6.033174 -47.042908,25.878446 -49.525645,55.536606 -1.591288,19.022652 8.410362,34.026622 25.792598,38.689462 5.619207,1.5088 9.488301,1.61037 15.281707,0.40002 z"
     fill="#000000"
     stroke="#000000"
     stroke-width="12.302"
     stroke-linecap="round"
     stroke-linejoin="round" />
</svg>
