<svg xmlns="http://www.w3.org/2000/svg" width="192" height="192" fill="none" stroke="#000" stroke-linecap="round" stroke-linejoin="round" stroke-width="12" viewBox="0 0 192 192"><path d="M96 170v-26M75 91V43m42 48V43m32 48a53.007 53.007 0 0 1-15.523 37.477 53.007 53.007 0 0 1-74.954 0A53.01 53.01 0 0 1 43 91"/><path d="M117 91a20.989 20.989 0 0 1-6.151 14.849A20.993 20.993 0 0 1 96 112a20.989 20.989 0 0 1-14.85-6.151A21 21 0 0 1 75 91m0-48a21.001 21.001 0 0 1 35.849-14.85A20.993 20.993 0 0 1 117 43"/></svg>