<svg xmlns="http://www.w3.org/2000/svg" width="192" height="192" fill="none"><path stroke="#000" stroke-linecap="round" stroke-linejoin="round" stroke-width="10" d="M135 47v94m-18-72v50m36-50v50M99 86v16m72-16v16"/><circle cx="58" cy="76" r="15" stroke="#000" stroke-linecap="round" stroke-linejoin="round" stroke-width="12"/><path stroke="#000" stroke-linecap="round" stroke-linejoin="round" stroke-width="12" d="M22 126.416c0-.931.215-1.852.796-2.58C25.201 120.823 33.778 113 58 113s32.799 7.823 35.204 10.836c.58.728.796 1.649.796 2.58V135a6 6 0 0 1-6 6H28a6 6 0 0 1-6-6z"/></svg>