<svg xmlns="http://www.w3.org/2000/svg" width="192" height="192" fill="none" viewBox="0 0 192 192"><path stroke="#000" stroke-linecap="round" stroke-linejoin="round" stroke-width="8" d="M56 117V49"/><path stroke="#000" stroke-linecap="round" stroke-linejoin="round" stroke-width="12" d="M82 164V28a6 6 0 0 0-6-6H36a6 6 0 0 0-6 6v136a6 6 0 0 0 6 6h40a6 6 0 0 0 6-6Z"/><path stroke="#000" stroke-linecap="round" stroke-linejoin="round" stroke-width="8" d="M136 117V89"/><path stroke="#000" stroke-linecap="round" stroke-linejoin="round" stroke-width="12" d="M162 164V28a6 6 0 0 0-6-6h-40a6 6 0 0 0-6 6v136a6 6 0 0 0 6 6h40a6 6 0 0 0 6-6Z"/><circle cx="56" cy="49" r="4" stroke="#000" stroke-width="10"/><circle cx="136" cy="89" r="4" stroke="#000" stroke-width="10"/></svg>