<svg xmlns="http://www.w3.org/2000/svg" width="192" height="192" fill="none" viewBox="0 0 192 192"><path stroke="#000" stroke-linecap="round" stroke-linejoin="round" stroke-width="12" d="M148.326 148.326A74.02 74.02 0 0 0 170 96a74 74 0 0 0-21.674-52.326"/><path stroke="#000" stroke-linecap="round" stroke-linejoin="round" stroke-width="12" d="M132.77 132.77a52.006 52.006 0 0 0 0-73.54m-15.557 57.983a29.99 29.99 0 0 0 6.503-32.694 30 30 0 0 0-6.503-9.732"/><path stroke="#000" stroke-linejoin="round" stroke-width="12" d="m96 154-39-39H28a6 6 0 0 1-6-6V83a6 6 0 0 1 6-6h29l39-39z"/></svg>