<svg width="192" height="192" viewBox="0 0 192 192" fill="none" xmlns="http://www.w3.org/2000/svg"><path d="M95 90a8 8 0 0 0 0-16m-42 0 9 28m0 0 9-28m14 28V74m32 28V74m20 28V74m0 28-20-28m-32 0h10M85 90h10" stroke="#000" stroke-width="8" stroke-linecap="round" stroke-linejoin="round"/><path d="M34 45.437a6 6 0 0 1 4.242-5.737l56-17.161a6 6 0 0 1 3.516 0l56 17.161A6 6 0 0 1 158 45.437V116c0 24.778-48.554 47.991-59.727 53.004a5.476 5.476 0 0 1-4.546 0C82.553 163.991 34 140.778 34 116V45.437Z" stroke="#000" stroke-width="12" stroke-linecap="round" stroke-linejoin="round"/></svg>