<svg width="192" height="192" viewBox="0 0 192 192" fill="none" xmlns="http://www.w3.org/2000/svg"><path d="M130 108v18a6 6 0 0 0 6 6h12a6 6 0 0 0 6-6v-18" stroke="#000" stroke-width="12" stroke-linecap="round" stroke-linejoin="round"/><path d="M156 80H91.176C85.714 67.072 72.916 58 58 58c-19.882 0-36 16.118-36 36s16.118 36 36 36c14.917 0 27.714-9.072 33.176-22H156m0-28a13.998 13.998 0 0 1 14 14c0 3.713-1.475 7.274-4.101 9.899A13.996 13.996 0 0 1 156 108" stroke="#000" stroke-width="12" stroke-linecap="round" stroke-linejoin="round"/><circle cx="58" cy="94" r="5" stroke="#000" stroke-width="10" stroke-linecap="round" stroke-linejoin="round"/></svg>