<svg xmlns="http://www.w3.org/2000/svg" width="192" height="192" fill="none"><path stroke="#000" stroke-linecap="round" stroke-linejoin="round" stroke-width="8" d="M95 90a8 8 0 0 0 0-16m-44 0 9 28m0 0 9-28m16 28V74m34 28V74m20 28V74m0 28-20-28m-34 0h10M85 90h10"/><path stroke="#000" stroke-linecap="round" stroke-linejoin="round" stroke-width="12" d="M32 47.346a6 6 0 0 1 4.13-5.701l58-19.031a6 6 0 0 1 3.74 0l58.001 19.031A6 6 0 0 1 160 47.346V116c0 24.879-50.529 48.18-61.792 53.064a5.46 5.46 0 0 1-4.416 0C82.53 164.18 32 140.879 32 116z"/></svg>