<svg xmlns="http://www.w3.org/2000/svg" width="192" height="192" fill="none" viewBox="0 0 192 192"><path stroke="#000" stroke-linecap="round" stroke-linejoin="round" stroke-width="12" d="M130 108v18a6 6 0 0 0 6 6h12a6 6 0 0 0 6-6v-18"/><path stroke="#000" stroke-linecap="round" stroke-linejoin="round" stroke-width="12" d="M156 80H91.176C85.714 67.072 72.916 58 58 58c-19.882 0-36 16.118-36 36s16.118 36 36 36c14.917 0 27.714-9.072 33.176-22H156m0-28a14 14 0 0 1 14 14c0 3.713-1.475 7.274-4.101 9.899A14 14 0 0 1 156 108"/><circle cx="58" cy="94" r="5" stroke="#000" stroke-linecap="round" stroke-linejoin="round" stroke-width="10"/></svg>