<svg width="192" height="192" viewBox="0 0 192 192" fill="none" xmlns="http://www.w3.org/2000/svg"><path d="M80.97 116.879c-.369 1.292-4.012 1.497-8.137.459-4.126-1.038-7.171-2.926-6.803-4.217.369-1.292 4.012-1.497 8.137-.459 4.126 1.038 7.171 2.926 6.803 4.217Zm30.06 0c.369 1.292 4.012 1.497 8.137.459 4.126-1.038 7.171-2.926 6.803-4.217-.369-1.292-4.012-1.497-8.137-.459-4.126 1.038-7.171 2.926-6.803 4.217ZM23 135s15-60 53-60c12 0 20 14 20 14m73 46s-15-60-53-60c-12 0-20 14-20 14" stroke="#000" stroke-width="10" stroke-linecap="round" stroke-linejoin="round"/><path d="M96 33C40 65 22 135 22 135c34 0 48 20 48 20M96 33c56 32 74 102 74 102-34 0-48 20-48 20" stroke="#000" stroke-width="12" stroke-linecap="round" stroke-linejoin="round"/></svg>