<svg xmlns="http://www.w3.org/2000/svg" width="192" height="192" fill="none"><path stroke="#000" stroke-linecap="round" stroke-linejoin="round" stroke-width="12" d="M113.849 119.849a20.995 20.995 0 0 0 0-29.698 21 21 0 0 0-29.698 0"/><path stroke="#000" stroke-linecap="round" stroke-linejoin="round" stroke-width="12" d="M43 84a21 21 0 0 1 14.85 6.15L71 103.303l63.151-63.151A20.998 20.998 0 0 1 170 55a21 21 0 0 1-6.151 14.85L100.698 133l-18.384 18.385c-6.249 6.248-16.38 6.248-22.628 0l-31.535-31.536A20.998 20.998 0 0 1 43 84"/></svg>