<svg width="192" height="192" viewBox="0 0 192 192" fill="none" xmlns="http://www.w3.org/2000/svg"><circle cx="96" cy="96" r="5" stroke="#000" stroke-width="10" stroke-linecap="round" stroke-linejoin="round"/><path d="M68.19 68.19C66.778 76.776 66 86.165 66 96c0 40.869 13.431 74 30 74 12.581 0 23.353-19.103 27.81-46.19M68.19 68.19C72.647 41.103 83.42 22 96 22s23.353 19.103 27.81 46.19C150.897 72.647 170 83.42 170 96s-19.103 23.353-46.19 27.81M68.19 68.19C41.103 72.647 22 83.42 22 96c0 16.569 33.13 30 74 30 9.836 0 19.224-.778 27.81-2.19" stroke="#000" stroke-width="12" stroke-linecap="round" stroke-linejoin="round"/></svg>