<svg width="192" height="192" viewBox="0 0 192 192" fill="none" xmlns="http://www.w3.org/2000/svg"><path d="m83 94 13 50m13-50-13 50M69 94h14" stroke="#000" stroke-width="10" stroke-linecap="round" stroke-linejoin="round"/><path d="M88 46h16m-8-8v16" stroke="#000" stroke-width="6" stroke-linecap="round" stroke-linejoin="round"/><path d="M109 94h14m-2 10 2-10" stroke="#000" stroke-width="10" stroke-linecap="round" stroke-linejoin="round"/><path d="M96 170s-48-14-50-58c-.442-9.725 2.19-24.73 3.407-31.043.36-1.867 1.608-3.417 3.376-4.118C59.431 74.205 77.095 68 96 68m0 102s48-14 50-58c.442-9.725-2.19-24.73-3.407-31.043-.36-1.867-1.608-3.417-3.376-4.118C132.569 74.205 114.905 68 96 68M60 58v14m72-14v14m0-14a36.003 36.003 0 0 0-22.223-33.26A36.003 36.003 0 0 0 62.74 44.223 36.001 36.001 0 0 0 60 58" stroke="#000" stroke-width="12" stroke-linecap="round" stroke-linejoin="round"/></svg>