<svg xmlns="http://www.w3.org/2000/svg" width="192" height="192" fill="none"><path stroke="#000" stroke-linecap="round" stroke-linejoin="round" stroke-width="10" d="m83 94 13 50m13-50-13 50M69 94h14m26 0h14m-2 10 2-10"/><path stroke="#000" stroke-linecap="round" stroke-linejoin="round" stroke-width="12" d="M96 170s-48-14-50-58c-.442-9.725 2.189-24.73 3.407-31.043.36-1.867 1.607-3.417 3.376-4.118C59.43 74.205 77.095 68 96 68m0 102s4.595-1.34 11-4.494M96 68c18.905 0 36.569 6.205 43.217 8.84 1.769.7 3.016 2.25 3.376 4.117 1.218 6.312 3.849 21.318 3.407 31.043a59 59 0 0 1-.165 2.5M118 146h28m-14-14v28M60 58v14m72-14v14m0-14a36 36 0 0 0-22.223-33.26A36.003 36.003 0 0 0 62.74 44.223 36 36 0 0 0 60 58"/></svg>