<?xml version="1.0" encoding="UTF-8" standalone="no"?>
<svg
   width="192"
   height="192"
   xml:space="preserve"
   version="1.1"
   id="svg8"
   xmlns="http://www.w3.org/2000/svg"
   xmlns:svg="http://www.w3.org/2000/svg"><defs
     id="defs12" /><path
     style="fill:none;stroke:#000000;stroke-width:8;stroke-linecap:round;stroke-linejoin:round;stroke-dasharray:none;stroke-opacity:1"
     d="M 171.55889,85.172464 171.82573,20.264927 20.107189,19.999999 20.427382,84.748578 68.02954,84.96052 61.839125,56.560162 H 43.694806 l -7.044267,-27.764529 48.882935,0.423887 9.819275,41.752764 7.257731,-29.036186 c 3.6831,-6.51639 8.80159,-11.607599 18.14431,-12.504637 h 33.7271 l -8.96544,37.301964 -20.70587,-0.847772 1.49424,-10.173263 -5.1231,29.24813 z"
     id="path4220" /><path
     style="fill:none;stroke:#000000;stroke-width:8;stroke-linecap:round;stroke-linejoin:round;stroke-dasharray:none;stroke-opacity:1"
     d="m 20.107189,99.8452 52.203122,0.10646 2.572638,11.92354 -54.882953,-0.10641 z"
     id="path4222" /><path
     style="fill:none;stroke:#000000;stroke-width:8;stroke-linecap:round;stroke-linejoin:round;stroke-dasharray:none;stroke-opacity:1"
     d="m 171.89281,99.89843 -53.06067,0.10646 -2.57264,11.92354 55.74051,-0.10641 z"
     id="path4222-3" /><g
     id="g8101"
     transform="matrix(1.1176471,0,0,1.1142801,3.0893524,-12.736285)"
     style="stroke-width:0.896088"><path
       style="fill:#000000;fill-opacity:1;stroke:none;stroke-width:7.1687;stroke-linecap:round;stroke-linejoin:round;stroke-dasharray:none;stroke-opacity:1"
       d="m 27.186636,143.32008 c -1.950612,13.16245 2.757263,22.01647 14.515152,26.30871 11.318034,-4.29651 16.897548,-12.64372 14.515152,-26.61111 -9.676767,-3.36508 -19.353536,-4.36446 -29.030304,0.3024 z"
       id="path6487" /><path
       style="fill:none;fill-opacity:1;stroke:#000000;stroke-width:7.16869;stroke-linecap:square;stroke-linejoin:round;stroke-dasharray:none;stroke-opacity:1"
       d="m 33.055907,136.76424 c -1.21369,-5.93225 3.485774,-9.83006 8.20908,-9.96824 4.868707,-0.14244 9.474451,4.87828 8.364123,9.96824"
       id="path6489" /></g><g
     id="g8097"
     transform="matrix(0.94890286,0,0,0.94604421,19.339093,10.066355)"
     style="stroke-width:1.05544"><g
       aria-label="plus"
       id="text6545"
       style="font-weight:bold;font-size:48px;font-family:Calibri;-inkscape-font-specification:'Calibri Bold';display:inline;fill:none;stroke:#000000;stroke-width:8.44352;stroke-linecap:square;stroke-linejoin:round"><path
         id="path8079"
         style="fill:#000000;stroke:none;stroke-width:8.44352"
         d="m 85.910156,136.5332 c -1.930848,0.0694 -3.799252,0.75348 -5.396484,1.82422 -0.999993,-1.47295 -3.000452,-1.44654 -4.593577,-1.4263 -1.435259,0.009 -3.182865,0.39082 -3.754079,1.88919 -0.407369,1.19479 -0.110631,2.49621 -0.201172,3.73516 0.01299,8.95071 -0.02593,17.90324 0.01939,26.85283 0.160464,1.56106 1.72783,2.44463 3.164206,2.5585 1.842074,0.13481 3.879216,0.30308 5.532985,-0.67542 1.064177,-0.65165 1.305271,-1.9792 1.189671,-3.13279 0.02633,-1.62603 -0.05247,-3.41465 0.03906,-4.93984 3.960637,1.83222 9.119448,0.75999 11.917582,-2.62535 2.68132,-3.24212 3.313951,-7.65793 3.156351,-11.73993 -0.158831,-3.69705 -1.185577,-7.67668 -4.118855,-10.15816 -1.910588,-1.64326 -4.470811,-2.30421 -6.955078,-2.16211 z m -0.972656,9.03125 c 1.217161,0.14757 1.549157,1.6014 1.746094,2.60743 0.309426,2.05648 0.339616,4.35459 -0.797586,6.17474 -0.53678,0.95626 -1.888022,0.91297 -2.586132,0.17331 -0.508677,-0.4648 -1.12044,-0.94337 -1.428782,-1.53985 0,-1.79414 0,-3.58828 0,-5.38242 0.795279,-0.90692 1.727537,-2.09753 3.066406,-2.03321 z" /><path
         id="path8081"
         style="fill:#000000;stroke:none;stroke-width:8.44352"
         d="m 101.83984,126.95117 c -1.53697,0.0335 -3.450461,0.4815 -3.984371,2.13477 -0.288492,1.35777 -0.05989,2.77416 -0.132813,4.15547 0.01297,9.28978 -0.02592,18.58136 0.01939,27.87001 0.151682,1.54503 1.710847,2.43237 3.141124,2.48758 1.73888,0.131 3.60013,0.26071 5.23803,-0.44152 1.19245,-0.50813 1.65857,-1.88192 1.50771,-3.09576 -0.0118,-10.13425 0.0235,-20.27056 -0.0176,-30.40352 -0.10458,-1.54463 -1.63481,-2.47365 -3.05226,-2.60584 -0.89793,-0.13648 -1.81345,-0.12579 -2.71923,-0.10119 z" /><path
         id="path8083"
         style="fill:#000000;stroke:none;stroke-width:8.44352"
         d="m 113.5,136.93555 c -1.44627,0.0424 -3.24484,0.32022 -3.88028,1.82356 -0.44738,1.20787 -0.12952,2.5373 -0.22519,3.79636 0.0358,3.9579 -0.0745,7.91954 0.0607,11.87505 0.10091,3.06903 1.28024,6.3186 3.92662,8.08026 2.48595,1.70024 5.78894,1.97163 8.63374,1.12594 0.96786,-0.30391 1.89239,-0.79867 2.73829,-1.31641 1.14789,1.50209 3.24007,1.39729 4.9375,1.35157 1.41596,-0.0345 3.121,-0.57092 3.53192,-2.09605 0.26228,-1.41487 0.0461,-2.87998 0.11651,-4.31411 -0.0177,-5.92995 0.0354,-11.86302 -0.0264,-17.79102 -0.19467,-1.5869 -1.84103,-2.45037 -3.30953,-2.47656 -1.68476,-0.095 -3.49169,-0.22534 -5.06836,0.47656 -1.16225,0.53569 -1.60401,1.88475 -1.45508,3.08477 0,4.15208 0,8.30417 0,12.45625 -0.78935,0.77988 -1.58654,1.88075 -2.78538,1.94544 -1.14456,0.0399 -1.34362,-1.34442 -1.3844,-2.21347 -0.0979,-4.4407 0.03,-8.88811 -0.0646,-13.32767 -0.23308,-1.57163 -1.87327,-2.3855 -3.32812,-2.42188 -0.80323,-0.0838 -1.6116,-0.0852 -2.41797,-0.0586 z" /><path
         id="path8085"
         style="fill:#000000;stroke:none;stroke-width:8.44352"
         d="m 144.13477,136.52734 c -3.40953,0.0562 -7.09659,1.43128 -8.86779,4.51271 -1.44002,2.48786 -1.51263,5.74079 -0.19471,8.29198 1.361,2.66641 4.23787,3.95355 6.9045,4.94001 0.76308,0.33058 1.69921,0.52675 2.25956,1.14984 -0.47435,0.48661 -1.34446,0.37468 -1.99212,0.36153 -1.74091,-0.0978 -3.18941,-1.16303 -4.75665,-1.78298 -1.4336,-0.44188 -3.03011,0.57703 -3.27467,2.0523 -0.27102,1.63053 -0.35364,3.42042 0.3457,4.96094 0.83226,1.52415 2.65145,2.05595 4.20118,2.54102 3.69854,0.92643 7.86121,0.75826 11.19756,-1.2257 2.7914,-1.6379 4.29642,-4.97049 4.00529,-8.15118 -0.10473,-2.96836 -2.11465,-5.62249 -4.7634,-6.8614 -1.70945,-0.94543 -3.66822,-1.34523 -5.35156,-2.33008 -0.29811,-0.31576 0.79269,-0.27963 1.03942,-0.29039 1.625,-0.03 3.04502,0.84565 4.49609,1.43343 1.36228,0.45635 2.95244,-0.42366 3.22357,-1.8527 0.30899,-1.51408 0.31519,-3.1513 -0.13408,-4.63605 -0.67666,-1.6468 -2.57283,-2.24628 -4.1524,-2.66658 -1.3665,-0.33798 -2.77776,-0.4958 -4.18549,-0.4467 z" /></g></g></svg>
