<svg xmlns="http://www.w3.org/2000/svg" width="192" height="192" fill="none"><path stroke="#000" stroke-linecap="round" stroke-linejoin="round" stroke-width="12" d="M30 60.64v70.719c0 2.191 1.2 4.207 3.127 5.256l60 32.654a6.01 6.01 0 0 0 5.746 0l60-32.654a5.98 5.98 0 0 0 3.127-5.256V60.641a5.98 5.98 0 0 0-3.127-5.256l-60-32.654a6.01 6.01 0 0 0-5.746 0l-60 32.654A5.99 5.99 0 0 0 30 60.641Z"/><path stroke="#000" stroke-linecap="round" stroke-linejoin="round" stroke-width="12" d="M56 72.892v46.216L96 141l40-21.892V72.892L96 51zM96 51V24m0 143v-26"/></svg>