<?xml version="1.0" encoding="UTF-8" standalone="no"?>
<svg
   width="192"
   height="192"
   viewBox="0 0 192 192"
   fill="none"
   version="1.1"
   id="svg17"
   sodipodi:docname="vsco.svg"
   inkscape:version="1.1.2 (0a00cf5339, 2022-02-04, custom)"
   xmlns:inkscape="http://www.inkscape.org/namespaces/inkscape"
   xmlns:sodipodi="http://sodipodi.sourceforge.net/DTD/sodipodi-0.dtd"
   xmlns="http://www.w3.org/2000/svg"
   xmlns:svg="http://www.w3.org/2000/svg">
  <sodipodi:namedview
     id="namedview19"
     pagecolor="#ffffff"
     bordercolor="#666666"
     borderopacity="1.0"
     inkscape:pageshadow="2"
     inkscape:pageopacity="0.0"
     inkscape:pagecheckerboard="0"
     showgrid="false"
     inkscape:snap-smooth-nodes="false"
     inkscape:snap-bbox="true"
     showguides="false"
     inkscape:zoom="4.546875"
     inkscape:cx="29.910653"
     inkscape:cy="95.890034"
     inkscape:window-width="2516"
     inkscape:window-height="1396"
     inkscape:window-x="0"
     inkscape:window-y="0"
     inkscape:window-maximized="0"
     inkscape:current-layer="svg17" />
  <path
     d="M 96,16 A 80,80 0 1 0 176,95.999999 80.096,80.096 0 0 0 96,16 Z m 76.8,79.999999 a 77.424,77.424 0 0 1 -0.4,7.872001 l -13.584,-1.6 c 0.192,-2.032 0.304,-4.112001 0.304,-6.192001 0,-2.08 -0.096,-3.92 -0.288,-5.856 l 13.584,-1.6 c 0.384,2.368 0.384,4.848 0.384,7.376 z m -153.600004,0 a 77.408,77.408 0 0 1 0.384,-7.744 l 13.584,1.6 c -0.192,2 -0.304,4.032 -0.304,6.08 0,2.048 0.112,4.080001 0.304,6.080001 l -13.584,1.6 q -0.384,-3.712001 -0.384,-7.616001 z M 155.68,75.312 l 12.8,-4.8 a 76.208,76.208 0 0 1 3.616,14.911999 l -13.584,1.6 A 62.624,62.624 0 0 0 155.68,75.312 Z m 0.368,20.687999 A 60.08,60.08 0 0 1 154.896,107.68 l -13.456,-3.104 a 45.936,45.936 0 0 0 0,-17.504001 l 13.472,-3.04 a 60.096,60.096 0 0 1 1.136,11.968 z M 96,139.104 A 43.104,43.104 0 1 1 139.104,95.999999 43.2,43.2 0 0 1 96,139.104 Z M 97.456,156 v -13.808 a 45.92,45.92 0 0 0 17.184,-3.92 l 5.968,12.448 a 59.632,59.632 0 0 1 -23.152,5.296 z m -26.272,-5.344 6,-12.432 A 45.92,45.92 0 0 0 94.4,142.208 V 156 A 59.632,59.632 0 0 1 71.184,150.656 Z M 35.952,95.999999 a 60.08,60.08 0 0 1 1.232,-12.16 l 13.456,3.088 A 45.984,45.984 0 0 0 50.528,104.432 l -13.472,3.056 A 60.08,60.08 0 0 1 35.952,95.999999 Z M 94.4,36 v 13.808 a 45.92,45.92 0 0 0 -16.944,3.84 L 71.472,41.216 A 59.632,59.632 0 0 1 94.4,36 Z m 26.288,5.28 -6.032,12.416 A 45.92,45.92 0 0 0 97.6,49.792 V 36 a 59.632,59.632 0 0 1 23.088,5.28 z m 33.904,31.104 a 63.04,63.04 0 0 0 -5.568,-10.688 l 11.2,-7.744 a 76.704,76.704 0 0 1 7.104,13.616 z m -0.432,8.607999 -13.488,3.04 A 46.112,46.112 0 0 0 133.056,68.352 l 10.816,-8.56 a 59.856,59.856 0 0 1 10.272,21.199999 z M 131.072,65.904 a 46.528,46.528 0 0 0 -13.6,-10.848 l 6.032,-12.416 a 60.416,60.416 0 0 1 18.384,14.672 z m -4.016,-24.896 6.4,-12.096 a 77.184,77.184 0 0 1 12.592,8.816 L 136.944,48 a 63.472,63.472 0 0 0 -9.888,-6.992 z m -2.768,-1.472 a 62.72,62.72 0 0 0 -11.2,-4.368 l 3.312,-13.28 a 76.304,76.304 0 0 1 14.4,5.552 z M 109.968,34.4 A 63.04,63.04 0 0 0 97.776,32.8 V 19.2 a 76.704,76.704 0 0 1 15.504,1.92 z M 94.64,32.8 a 63.104,63.104 0 0 0 -12.032,1.408 l -3.2,-13.28 A 76.8,76.8 0 0 1 94.656,19.2 Z m -15.088,2.144 a 62.72,62.72 0 0 0 -11.36,4.272 L 61.856,27.2 a 76.288,76.288 0 0 1 14.4,-5.456 z m -14.128,5.728 a 63.44,63.44 0 0 0 -10,6.88 L 46.4,37.376 a 77.168,77.168 0 0 1 12.704,-8.768 z m 3.2,1.824 5.984,12.432 a 46.528,46.528 0 0 0 -13.632,10.8 L 50.192,57.12 A 60.416,60.416 0 0 1 68.688,42.56 Z m -20.352,17.12 10.784,8.608 a 46.112,46.112 0 0 0 -7.68,15.647999 l -13.472,-3.088 A 59.856,59.856 0 0 1 48.272,59.616 Z M 37.536,72 24.735996,67.2 a 76.8,76.8 0 0 1 7.264,-13.648 L 43.2,61.328 A 63.072,63.072 0 0 0 37.536,72 Z m -1.12,2.928 a 62.64,62.64 0 0 0 -2.928004,11.791999 l -13.568,-1.6 a 76.208,76.208 0 0 1 3.712,-15.007999 z m -2.928004,30.256 A 62.624,62.624 0 0 0 36.416,116.976 l -12.800004,4.8 a 76.208,76.208 0 0 1 -3.696,-14.992 z M 37.52,119.92 a 63.072,63.072 0 0 0 5.68,10.736 l -11.200004,7.76 a 76.8,76.8 0 0 1 -7.264,-13.616 z m 0.208,-9.376 13.472,-3.056 a 46.08,46.08 0 0 0 7.536,15.856 L 48,131.936 A 59.84,59.84 0 0 1 37.744,110.544 Z m 22.928,15.264 a 46.544,46.544 0 0 0 13.68,11.056 L 68.352,149.28 A 60.432,60.432 0 0 1 49.872,134.4 Z m 4.704,25.44 -6.4,12.112 A 77.168,77.168 0 0 1 46.4,154.592 l 9.072,-10.224 a 63.44,63.44 0 0 0 9.92,6.88 z m 2.784,1.456 a 62.72,62.72 0 0 0 11.328,4.272 l -3.296,13.28 a 76.288,76.288 0 0 1 -14.4,-5.456 z m 14.4,5.024 a 63.104,63.104 0 0 0 12.016,1.424 V 172.8 a 76.8,76.8 0 0 1 -15.28,-1.824 z m 15.152,1.408 a 63.056,63.056 0 0 0 12,-1.472 l 3.2,13.28 A 76.8,76.8 0 0 1 97.6,172.8 Z m 15.04,-2.224 a 62.72,62.72 0 0 0 11.28,-4.304 l 6.4,12.112 a 76.288,76.288 0 0 1 -14.4,5.488 z m 14.048,-5.776 a 63.44,63.44 0 0 0 9.92,-6.864 l 9.04,10.256 a 77.184,77.184 0 0 1 -12.608,8.672 z m -3.344,-1.776 -5.968,-12.448 A 46.528,46.528 0 0 0 131.2,125.92 l 10.768,8.624 a 60.416,60.416 0 0 1 -18.512,14.832 z M 144,132.096 133.232,123.472 a 46.096,46.096 0 0 0 7.568,-15.824 l 13.456,3.104 A 59.84,59.84 0 0 1 144,132.096 Z M 154.464,120 l 12.8,4.8 A 76.8,76.8 0 0 1 160,138.384 l -11.2,-7.792 A 63.072,63.072 0 0 0 154.464,120 Z m 1.12,-2.928 a 62.624,62.624 0 0 0 2.912,-11.696 l 13.568,1.6 a 76.208,76.208 0 0 1 -3.696,14.896 z m 2.928,-65.6 -11.2,7.744 a 63.68,63.68 0 0 0 -8,-9.072 L 148.4,39.936 A 77.456,77.456 0 0 1 158.512,51.36 Z M 44.016,39.44 53.088,49.68 a 63.696,63.696 0 0 0 -8,9.072 L 33.887996,50.976 A 77.488,77.488 0 0 1 44.016,39.44 Z M 33.727996,140.992 44.928,133.232 a 63.696,63.696 0 0 0 8,9.056 L 43.84,152.512 A 77.488,77.488 0 0 1 33.727996,140.992 Z M 148.096,152.448 139.04,142.192 a 63.696,63.696 0 0 0 8,-9.024 l 11.2,7.792 a 77.488,77.488 0 0 1 -10.128,11.488 z"
     id="path4-6"
     style="fill:#000000;stroke-width:4;stroke-miterlimit:4;stroke-dasharray:none;fill-opacity:1" />
  <defs
     id="defs15">
    <clipPath
       id="clip0_59_36">
      <rect
         width="192"
         height="192"
         fill="white"
         id="rect12" />
    </clipPath>
  </defs>
</svg>
