<svg width="192" height="192" viewBox="0 0 192 192" fill="none" xmlns="http://www.w3.org/2000/svg"><path d="M66.75 91.111 81.724 78.24a6 6 0 0 0 2.088-4.55V58a6 6 0 0 0-6-6H63c-3.314 0-6.014 2.682-5.866 5.993 1.641 36.587 18.729 78.889 71.86 81.843 3.309.184 6.006-2.522 6.006-5.836v-14.889a6 6 0 0 0-6-6h-15.61a6.001 6.001 0 0 0-4.561 2.101L96 130.222" stroke="#000" stroke-width="12" stroke-linecap="round" stroke-linejoin="round"/><rect x="25" y="25" width="142" height="142" rx="6" stroke="#000" stroke-width="12" stroke-linecap="round" stroke-linejoin="round"/></svg>