<svg xmlns="http://www.w3.org/2000/svg" width="192" height="192" fill="none" viewBox="0 0 192 192"><path stroke="#000" stroke-linecap="round" stroke-linejoin="round" stroke-width="12" d="M58.536 52.748c6.332-6.33 16.596-6.33 22.927 0l31.789 31.788c6.331 6.332 6.331 16.596 0 22.928l-31.788 31.788c-6.332 6.331-16.596 6.331-22.928 0l-31.788-31.788c-6.33-6.332-6.33-16.596 0-22.928z"/><path stroke="#000" stroke-linecap="round" stroke-linejoin="round" stroke-width="12" d="M110.536 52.748c6.332-6.33 16.596-6.33 22.928 0l31.788 31.788c6.331 6.332 6.331 16.596 0 22.928l-31.788 31.788c-6.332 6.331-16.596 6.331-22.928 0l-31.788-31.788c-6.33-6.332-6.33-16.596 0-22.928z"/></svg>