<svg width="192" height="192" fill="none" xmlns="http://www.w3.org/2000/svg"><circle cx="119" cy="61" r="6" stroke="#000" stroke-width="12" stroke-linecap="round" stroke-linejoin="round"/><path d="M103.359 136.487C115.085 118.154 135.623 106 159 106c2.364 0 4.7.124 7 .367m-62.641 30.12C85.196 112.968 57.183 97.445 25.5 96.096m77.859 40.391a103.791 103.791 0 0 1 15.425 28.013" stroke="#000" stroke-width="12" stroke-linecap="round" stroke-linejoin="round"/><path d="M25 49c0-13.255 10.745-24 24-24h94c13.255 0 24 10.745 24 24v94c0 13.255-10.745 24-24 24H49c-13.255 0-24-10.745-24-24V49Z" stroke="#000" stroke-width="12" stroke-linecap="round" stroke-linejoin="round"/></svg>