<svg width="192" height="192" viewBox="0 0 192 192" fill="none" xmlns="http://www.w3.org/2000/svg"><circle cx="4" cy="4" r="4" transform="matrix(1 0 0 -1 92 81)" stroke="#000" stroke-width="8" stroke-linecap="round" stroke-linejoin="round"/><path d="M96 144v26m-22-19.936c-6.867 1.768-13.825.695-18.493 1.936-2.955-10.94-23.571-26.404 1.66-46.807-27.658.48-24.7-23.377-30.167-32.885 9.917-5.75 19.669-29.769 45.963-11.054C63.53 33.063 88.12 29.84 96 22c7.881 7.84 32.471 11.063 23.037 39.254 26.294-18.715 36.046 5.304 45.963 11.054-5.467 9.508-2.509 33.365-30.166 32.885 25.23 20.403 4.614 35.867 1.659 46.807-4.668-1.241-11.626-.168-18.493-1.936" stroke="#000" stroke-width="12" stroke-linecap="round" stroke-linejoin="round"/><path d="M96 144c0-34-21-54-21-54m21 54c0-34 21-54 21-54" stroke="#000" stroke-width="12" stroke-linecap="round" stroke-linejoin="round"/></svg>