<svg width="192" height="192" viewBox="0 0 192 192" fill="none" xmlns="http://www.w3.org/2000/svg"><path d="M54 50a32 32 0 0 0-32 32m88-32a32.002 32.002 0 0 0-32 32m92 0a32.003 32.003 0 0 0-32-32M22 82v68a6 6 0 0 0 6 6h136a6 6 0 0 0 6-6V82m-92 74V82m60-32H54m84 0V28a6 6 0 0 0-6-6H72a6 6 0 0 0-6 6v22" stroke="#000" stroke-width="12" stroke-linecap="round" stroke-linejoin="round"/><path d="M41 90h18" stroke="#000" stroke-width="10" stroke-linecap="round" stroke-linejoin="round"/><path d="M160 156v14m-94-14v14m58-14v14" stroke="#000" stroke-width="12" stroke-linecap="round" stroke-linejoin="round"/><path d="M51 90v38m73-38v38m24-38s-6 19-24 19m26 19s-8-19-26-19M98 90c0 33 26 38 26 38" stroke="#000" stroke-width="10" stroke-linecap="round" stroke-linejoin="round"/><path d="M32 156v14" stroke="#000" stroke-width="12" stroke-linecap="round" stroke-linejoin="round"/></svg>