<?xml version="1.0" encoding="UTF-8"?>
<!-- Created with Inkscape (http://www.inkscape.org/) -->
<svg width="192" height="192" version="1.1" viewBox="0 0 50.8 50.8" xml:space="preserve" xmlns="http://www.w3.org/2000/svg"><g transform="matrix(.26459 0 0 .26458 -.00067228 -6.9603e-5)" fill="none"><path d="m117.45 103.64c5.8898-3.3886 5.8898-11.887 0-15.275l-21.293-12.252 21.959-10.24 9.2216 5.3059 29.869 17.186c5.8898 3.3887 5.8898 11.887 0 15.275l-29.859 17.179-0.01 7e-3 -9.952 5.726-21.959-10.24zm-67.055 13.548v9.8009c0.0028 6.7735 7.3289 11.012 13.201 7.6366l0.0045-2e-3 10.826-6.2289 21.958 10.24-22.896 13.174-0.01543 9e-3 -29.697 17.086c-5.8744 3.3795-13.205-0.86122-13.205-7.6386v-53.323zm46.72-63.398-21.959 10.24-11.555-6.6491-0.0072-0.0039c-5.8727-3.3721-13.198 0.86746-13.198 7.6421v10.557l-19.825 9.2453v-54.084c0-6.7774 7.3311-11.018 13.205-7.6382l29.709 17.093 0.0039 0.0022z" clip-rule="evenodd" fill="none" stroke="#000" stroke-linecap="round" stroke-linejoin="round" stroke-miterlimit="2" stroke-width="12"/></g></svg>
