<?xml version="1.0" encoding="UTF-8"?>
<!-- Created with Inkscape (http://www.inkscape.org/) -->
<svg width="192" height="192" version="1.1" viewBox="0 0 50.8 50.8" xml:space="preserve" xmlns="http://www.w3.org/2000/svg"><g transform="matrix(.26459 0 0 .26458 -.00067228 -6.9603e-5)" fill="none"><path d="m117.56 103.68c5.9224-3.4072 5.9224-11.952 0-15.359l-21.411-12.319 22.08-10.296 9.2726 5.3349 30.034 17.28c5.9224 3.4073 5.9224 11.952 0 15.359l-30.024 17.273-0.01 7e-3 -10.007 5.7574-22.08-10.296zm-67.426 13.622v9.8546c0.0028 6.8106 7.3694 11.072 13.274 7.6784l0.0045-2e-3 10.886-6.263 22.079 10.296-23.023 13.246-0.01551 9e-3 -29.861 17.18c-5.9069 3.398-13.278-0.86593-13.278-7.6804v-53.615zm46.978-63.745-22.08 10.296-11.619-6.6855-0.0072-0.0039c-5.9052-3.3906-13.271 0.87219-13.271 7.6839v10.615l-19.935 9.2959v-54.38c0-6.8145 7.3716-11.078 13.278-7.68l29.873 17.187 0.0039 0.0022z" clip-rule="evenodd" fill="none" stroke="#000" stroke-linejoin="round" stroke-miterlimit="2" stroke-width="11.174"/></g></svg>
