<svg width="192" height="192" viewBox="0 0 192 192" fill="none" xmlns="http://www.w3.org/2000/svg">
<rect width="192" height="192" fill="white"/>
<path d="M138.253 159.001V141.001L147.253 152.855L156.253 141.001V159.001" stroke="black" stroke-width="6" stroke-linecap="round" stroke-linejoin="round"/>
<path d="M121.253 141.001C116.283 141.001 112.253 145.03 112.253 150.001C112.253 154.972 116.283 159.001 121.253 159.001C126.224 159.001 130.253 154.972 130.253 150.001C130.253 145.03 126.224 141.001 121.253 141.001Z" stroke="black" stroke-width="6" stroke-linecap="round"/>
<path d="M92.2534 141.001L100.012 150.901M100.012 150.901L107.253 141.001M100.012 150.901V159.001" stroke="black" stroke-width="6" stroke-linecap="round" stroke-linejoin="round"/>
<path d="M69.2534 141.001L77.4958 159.001L81.3746 150.001L85.2534 141.001" stroke="black" stroke-width="6" stroke-linecap="round" stroke-linejoin="round"/>
<path d="M36.8908 142.075C36.8908 142.075 32.5959 149.818 32.5259 152.078C32.456 154.337 33.1065 155.995 34.6943 157.604C36.2821 159.212 37.821 159.884 40.0803 159.954C42.3396 160.024 43.9974 159.373 45.6062 157.786C47.2151 156.198 49.9711 147.783 49.9711 147.783" stroke="black" stroke-width="6" stroke-linecap="round" stroke-linejoin="round"/>
<path d="M53.1949 158.12C53.1949 158.12 57.4898 150.377 57.5598 148.118C57.6297 145.858 56.9792 144.201 55.3914 142.592C53.8036 140.983 52.2647 140.311 50.0054 140.241C47.7461 140.171 46.0883 140.822 44.4795 142.41C42.8706 143.998 40.1146 152.412 40.1146 152.412" stroke="black" stroke-width="6" stroke-linecap="round" stroke-linejoin="round"/>
<path d="M79.7534 73.501C79.7534 73.501 58.5965 52.3442 56.2534 50.001C53.9102 47.6579 52.9037 45.9901 50.2534 44.001C48.0838 42.3727 46.8783 41.1854 44.2534 40.501C41.7971 39.8605 40.226 39.927 37.7534 40.501C35.2015 41.0934 33.7866 41.849 31.7534 43.501C29.4802 45.348 28.3764 46.796 27.2534 49.501C26.0461 52.4089 25.707 54.4003 26.2534 57.501C26.8294 60.7701 30.2534 65.001 30.2534 65.001C30.2534 65.001 38.8623 73.61 49.2534 84.0011M79.7534 73.501L89.8784 63.501L100.003 53.501L110.128 43.501L115.191 38.501C115.191 38.501 118.081 35.2337 120.253 33.501C123.738 30.722 125.97 29.2317 130.253 28.001C133.093 27.1851 134.799 27.0168 137.753 27.001C141.509 26.9809 143.711 27.2531 147.253 28.501C150.634 29.692 152.397 30.8351 155.253 33.001C158.114 35.1701 159.744 36.5262 161.753 39.501C163.662 42.3269 164.366 44.2084 165.253 47.501C166.123 50.7282 166.402 52.662 166.253 56.001C166.093 59.5979 165.521 61.6312 164.253 65.001C163.084 68.1078 160.253 72.501 160.253 72.501C160.253 72.501 157.287 76.8268 155.253 79.501C144.05 94.2353 121.253 113.001 121.253 113.001C121.253 113.001 115.553 117.709 111.253 119.501C107.187 121.196 104.656 121.846 100.253 122.001C96.1138 122.146 93.6699 121.849 89.7534 120.501C85.4472 119.018 83.3378 117.31 79.7534 114.501C79.7534 114.501 74.8776 109.625 71.7534 106.501C65.0018 99.7494 56.6733 91.4209 49.2534 84.0011M79.7534 73.501C69.6076 83.6834 62.9439 85.9271 49.2534 84.0011" stroke="black" stroke-width="14" stroke-linecap="round" stroke-linejoin="round"/>
</svg>
