<svg width="192" height="192" viewBox="0 0 192 192" fill="none" xmlns="http://www.w3.org/2000/svg">
<rect width="192" height="192" fill="white"/>
<path d="M40.3145 141.042L36.6261 152.394C36.2508 153.549 36.1561 154.777 36.3497 155.976L36.3683 156.091C36.488 156.833 36.7274 157.549 37.077 158.214V158.214C37.9182 159.812 39.3626 161.023 41.0806 161.582V161.582V161.582C42.7986 162.14 44.679 162.009 46.2992 161.21V161.21C46.9725 160.878 47.5875 160.439 48.12 159.91L48.2031 159.827C49.0644 158.971 49.7094 157.922 50.0847 156.767L53.7731 145.415" stroke="black" stroke-width="6"/>
<path d="M56.9585 160.226L60.6468 148.874C61.0221 147.719 61.1169 146.491 60.9233 145.292L60.9046 145.177C60.7849 144.435 60.5456 143.719 60.196 143.054V143.054C59.3548 141.456 57.9103 140.245 56.1923 139.686V139.686V139.686C54.4743 139.128 52.594 139.259 50.9738 140.058V140.058C50.3004 140.39 49.6855 140.829 49.153 141.358L49.0699 141.441C48.2085 142.297 47.5635 143.346 47.1882 144.501L43.4999 155.853" stroke="black" stroke-width="6"/>
<path d="M134 162.5V145.303C134 144.313 135.283 143.925 135.832 144.748L142.168 154.252C142.564 154.846 143.436 154.846 143.832 154.252L150.168 144.748C150.717 143.925 152 144.313 152 145.303V162.5" stroke="black" stroke-width="6"/>
<path d="M113.472 146.356C110.414 149.32 110.236 154.168 113.07 157.347C116.229 160.891 121.771 160.891 124.93 157.347C127.764 154.168 127.586 149.32 124.528 146.356C121.447 143.371 116.553 143.371 113.472 146.356Z" stroke="black" stroke-width="6"/>
<path d="M92 143L99.7586 154M99.7586 154L107 143M99.7586 154V163" stroke="black" stroke-width="6"/>
<path d="M71 143L78.2971 159.821C78.6494 160.633 79.8056 160.621 80.1403 159.801L83.1212 152.5L87 143" stroke="black" stroke-width="6"/>
<path d="M78.5 74L57.5 53.5L49.7581 46.1882C48.9214 45.398 48.0084 44.6928 47.0325 44.0828L46.8841 43.9901C45.3062 43.0039 43.5719 42.2938 41.7555 41.8901L41.5013 41.8336C40.5034 41.6119 39.4802 41.5 38.458 41.5V41.5C37.1625 41.5 35.868 41.6806 34.6223 42.0365L34.5563 42.0554C33.5225 42.3507 32.5154 42.7769 31.5819 43.3103V43.3103C30.2175 44.09 28.9848 45.1182 27.9788 46.3254L27.8673 46.4593C27.291 47.1508 26.7967 47.9066 26.3942 48.7117V48.7117C25.8024 49.8953 25.4161 51.1709 25.252 52.4839L25.188 52.9956C25.0631 53.9951 25.0562 55.0057 25.1674 56.0068V56.0068C25.3862 57.9756 26.0574 59.867 27.1286 61.5333L27.75 62.5V62.5C28.9146 64.1637 30.218 65.7257 31.6464 67.1692L45 80.6649M78.5 74L96.5 57L115.937 37.5629C118.302 35.1982 120.971 33.1593 123.875 31.5001L124.222 31.3017C125.738 30.4353 127.322 29.6919 128.957 29.0788L130.867 28.3622C133.27 27.4614 135.814 27 138.38 27V27C141.102 27 143.798 27.5194 146.326 28.5303L150 30L153.056 31.7464C155.664 33.2368 157.985 35.1818 159.908 37.4894V37.4894C161.297 39.1562 162.465 40.9954 163.382 42.9614L164.142 44.5892C165.044 46.5221 165.699 48.5607 166.092 50.6572L166.282 51.6726C166.756 54.2007 166.741 56.7963 166.236 59.3185V59.3185C165.75 61.7518 164.817 64.0739 163.484 66.1675L162 68.5V68.5C159.674 72.1557 156.954 75.5458 153.89 78.6098L119.269 113.231C117.759 114.741 116.117 116.111 114.362 117.326L113.143 118.17C111.389 119.385 109.482 120.364 107.472 121.081L107.353 121.124C104.803 122.034 102.116 122.5 99.4081 122.5V122.5C97.4767 122.5 95.5525 122.263 93.6787 121.795L90.39 120.973C89.1318 120.658 87.8989 120.25 86.7017 119.751V119.751C83.9218 118.592 81.3646 116.959 79.1446 114.924L76.5 112.5L45 80.6649M78.5 74L76.613 75.5096C74.5483 77.1614 72.2579 78.5093 69.8113 79.5123V79.5123C67.9427 80.2784 65.996 80.838 64.0057 81.1812L62.7884 81.3911C60.6001 81.7684 58.3752 81.9581 56.1546 81.9581V81.9581C54.0602 81.9581 51.9612 81.7902 49.8937 81.456L45 80.6649" stroke="black" stroke-width="14"/>
</svg>
