<svg xmlns="http://www.w3.org/2000/svg" width="192" height="192" viewBox="0 0 192 192"><path fill="none" stroke="#000" stroke-linecap="round" stroke-linejoin="round" stroke-width="12" d="M170.08 35.113h-8.38l-12.492 27.681-20.571-2.278v6.704l20.552-4.387M22.2 34.96h9.42l12.494 27.682 20.14-2.278v6.705L44.132 62.68m46.58-7.465-14.298 6 4.51 16.963-11.128 4.482 7.702 20.814-3.074 3.179 5.896 2.885-1.807 7.175 6.568 4.474.757 1.934-2.534 3.26 5.243 8.855-1.602 11.68 3.277 3.51v0m12.968-95.211 13.106 10.12-6.93 9.83 11.32 10.627-6.237 16.354.896 2.859-6.577 8.454 2.477 3.903-5.587 9.76-.7 10.753.645 9.306-4.111 8.037h.036"/></svg>