<svg xmlns="http://www.w3.org/2000/svg" width="192" height="192" fill="none"><path stroke="#000" stroke-linecap="round" stroke-linejoin="round" stroke-width="12" d="M22 83.036A24 24 0 0 1 34.234 62.12l48-27C98.232 26.119 118 37.68 118 56.036v52.928c0 8.67-4.677 16.667-12.234 20.918l-48 27C41.768 165.881 22 154.32 22 135.964z"/><path stroke="#000" stroke-linecap="round" stroke-linejoin="round" stroke-width="12" d="M74 83.036A24 24 0 0 1 86.234 62.12l48-27c15.998-9 35.766 2.562 35.766 20.917v52.928c0 8.67-4.677 16.667-12.234 20.918l-48 27C93.768 165.881 74 154.32 74 135.964z"/></svg>