<svg xmlns="http://www.w3.org/2000/svg" width="192" height="192" fill="none"><path stroke="#000" stroke-linecap="round" stroke-linejoin="round" stroke-width="8" d="m93 91 3-18 3 18"/><circle cx="96" cy="94" r="5" stroke="#000" stroke-linecap="round" stroke-linejoin="round" stroke-width="10"/><path stroke="#000" stroke-linecap="round" stroke-linejoin="round" stroke-width="12" d="M52 85V62.397c0-2.107 1.099-4.052 2.977-5.008C61.407 54.117 77.517 47 96 47c18.482 0 34.592 7.117 41.023 10.389 1.878.956 2.977 2.9 2.977 5.008V85m0 0c0 9.548-4.636 18.705-12.887 25.456S107.67 121 96 121s-22.861-3.793-31.113-10.544S52 94.548 52 85"/><path stroke="#000" stroke-linecap="round" stroke-linejoin="round" stroke-width="12" d="M167 157V35c0-5.523-4.477-10-10-10H35c-5.523 0-10 4.477-10 10v122c0 5.523 4.477 10 10 10h122c5.523 0 10-4.477 10-10"/></svg>