<svg width="192" height="192" viewBox="0 0 192 192" fill="none" xmlns="http://www.w3.org/2000/svg"><path d="M148.326 43.674a73.998 73.998 0 0 1-11.214 113.855A74 74 0 0 1 43.674 43.674" stroke="#000" stroke-width="12" stroke-linecap="round" stroke-linejoin="round"/><path d="M96 102V72m0 0H86a6 6 0 0 1-6-6V46a6 6 0 0 1 6-6h20a6 6 0 0 1 6 6v20a6 6 0 0 1-6 6H96Z" stroke="#000" stroke-width="12" stroke-linecap="round" stroke-linejoin="round"/><path d="M96 40V20m18 24V28M78 44V28" stroke="#000" stroke-width="8" stroke-linecap="round" stroke-linejoin="round"/></svg>