<svg width="192" height="192" fill="none" xmlns="http://www.w3.org/2000/svg"><path d="M112 23.734A74.266 74.266 0 0 0 96 22c-40.87 0-74 33.13-74 74 0 40.869 33.13 74 74 74 40.869 0 74-33.131 74-74a73.888 73.888 0 0 0-4-24.062" stroke="#000" stroke-width="12" stroke-linecap="round" stroke-linejoin="round"/><path d="m133 57-35 57m35-57 17.5 2 7.25-15.5L170 39l-4-17h-15l-28 19 10 16Zm-91.61 87.5c3.442-1.851 7.111-4.293 10.61-7.5 12-11 4-37 24-47 0 0-11 22 2 28s20-4 20-4-11 16 1 24 23-6 23-6c4.357 8.713-18.54 24.536-29 37.468" stroke="#000" stroke-width="12" stroke-linecap="round" stroke-linejoin="round"/></svg>