<svg width="192" height="192" viewBox="0 0 192 192" fill="none" xmlns="http://www.w3.org/2000/svg"><path d="M131 102.373a41.996 41.996 0 0 0 20.421-29.423M52 98a30 30 0 0 1-12.792-2.864M80.287 120a31.998 31.998 0 0 0-2.06 27.734m-39.02-52.598a32.993 32.993 0 0 0-9.574 17.426 33.002 33.002 0 0 0 16.81 35.541 32.986 32.986 0 0 0 13.398 3.826 32.981 32.981 0 0 0 18.387-4.195m-39.02-52.598a30 30 0 1 1 33.635-48.714 42 42 0 0 1 78.579 26.528m-73.193 74.784a31.997 31.997 0 0 0 41.043 18.215 32.001 32.001 0 0 0 20.662-32.007 32.001 32.001 0 0 0 11.487-60.992" stroke="#000" stroke-width="12" stroke-linecap="round" stroke-linejoin="round"/></svg>