<?xml version="1.0" encoding="UTF-8" standalone="no"?>
<svg
   xml:space="preserve"
   width="192"
   height="192"
   fill="none"
   viewBox="0 0 192 192"
   version="1.1"
   id="svg10"
   sodipodi:docname="wallpaper_engine.svg"
   inkscape:version="1.2.2 (b0a8486541, 2022-12-01)"
   xmlns:inkscape="http://www.inkscape.org/namespaces/inkscape"
   xmlns:sodipodi="http://sodipodi.sourceforge.net/DTD/sodipodi-0.dtd"
   xmlns="http://www.w3.org/2000/svg"
   xmlns:svg="http://www.w3.org/2000/svg"><defs
     id="defs14"><inkscape:path-effect
       effect="fillet_chamfer"
       id="path-effect5651"
       is_visible="true"
       lpeversion="1"
       nodesatellites_param="F,0,0,1,0,0,0,1 @ F,0,0,1,0,0,0,1 @ F,0,0,1,0,0,0,1 @ F,0,0,1,0,0,0,1 @ F,0,0,1,0,0,0,1"
       unit="px"
       method="auto"
       mode="F"
       radius="6"
       chamfer_steps="1"
       flexible="false"
       use_knot_distance="true"
       apply_no_radius="true"
       apply_with_radius="true"
       only_selected="false"
       hide_knots="false" /><inkscape:path-effect
       effect="offset"
       id="path-effect1163"
       is_visible="true"
       lpeversion="1.2"
       linejoin_type="miter"
       unit="mm"
       offset="0.3"
       miter_limit="4"
       attempt_force_join="false"
       update_on_knot_move="true" /><inkscape:path-effect
       effect="fillet_chamfer"
       id="path-effect1161"
       is_visible="true"
       lpeversion="1"
       nodesatellites_param="F,0,0,1,0,6,0,25 @ F,0,0,1,0,6,0,25 @ F,0,0,1,0,6,0,25 @ F,0,0,1,0,6,0,25"
       unit="px"
       method="auto"
       mode="F"
       radius="6"
       chamfer_steps="1"
       flexible="false"
       use_knot_distance="true"
       apply_no_radius="true"
       apply_with_radius="true"
       only_selected="false"
       hide_knots="false" /><filter
       id="filter3864"
       x="-0.046153847"
       y="-0.080000001"
       width="1.0923077"
       height="1.16"><feGaussianBlur
         stdDeviation="0.2"
         id="feGaussianBlur3866" /></filter></defs><sodipodi:namedview
     id="namedview12"
     pagecolor="#ffffff"
     bordercolor="#666666"
     borderopacity="1.0"
     inkscape:showpageshadow="2"
     inkscape:pageopacity="0.0"
     inkscape:pagecheckerboard="0"
     inkscape:deskcolor="#d1d1d1"
     showgrid="false"
     inkscape:zoom="3.7683348"
     inkscape:cx="96.196336"
     inkscape:cy="74.834115"
     inkscape:window-width="1920"
     inkscape:window-height="1011"
     inkscape:window-x="0"
     inkscape:window-y="32"
     inkscape:window-maximized="1"
     inkscape:current-layer="svg10" /><style
     id="style313">.s0{fill:#2e3436;filter:url(#filter3864);opacity:0.3;}.s1{fill:#4e9a06;stroke-linecap:round;stroke:#316004;}</style><rect
     style="display:inline;opacity:1;fill:#000000;fill-opacity:1;stroke-width:0.999996"
     id="rect1159"
     width="21.955099"
     height="16.464445"
     x="85.022415"
     y="45.353127"
     ry="5.4881487" /><rect
     style="display:inline;fill:#000000;fill-opacity:1;stroke-width:0.999996"
     id="rect1159-2"
     width="21.953848"
     height="16.465385"
     x="124.76322"
     y="-50.666401"
     ry="5.488462"
     transform="matrix(0.70714712,0.70706644,-0.70714712,0.70706644,0,0)" /><rect
     style="display:inline;fill:#000000;fill-opacity:1;stroke-width:0.999996"
     id="rect1159-9"
     width="21.952595"
     height="16.466324"
     x="85.02375"
     y="-146.65266"
     ry="5.4887748"
     transform="rotate(90)" /><rect
     style="display:inline;fill:#000000;fill-opacity:1;stroke-width:0.999996"
     id="rect1159-0"
     width="21.955099"
     height="16.464445"
     x="-106.97752"
     y="-146.64697"
     ry="5.4881487"
     transform="scale(-1)" /><rect
     style="display:inline;fill:#000000;fill-opacity:1;stroke-width:0.999996"
     id="rect1159-2-9"
     width="21.953848"
     height="16.465385"
     x="-146.76584"
     y="-50.681999"
     ry="5.488462"
     transform="matrix(-0.70714712,-0.70706644,0.70714712,-0.70706644,0,0)" /><rect
     style="display:inline;fill:#000000;fill-opacity:1;stroke-width:0.999996"
     id="rect1159-9-3"
     width="21.952595"
     height="16.466324"
     x="-106.97633"
     y="45.34729"
     ry="5.4887748"
     transform="rotate(-90)" /><path
     id="rect5096"
     style="display:inline;opacity:1;stroke:#000000;stroke-width:12;stroke-linecap:round;stroke-linejoin:round;stroke-dasharray:none"
     d="M 95.99997,61.300289 H 32 v 98.688421 h 98.69968 v -6.58647"
     sodipodi:nodetypes="ccccc"
     inkscape:path-effect="#path-effect5651"
     inkscape:original-d="M 95.99997,61.300289 H 32 v 98.688421 h 98.69968 v -6.58647" /><path
     id="rect5096-0"
     style="display:inline;opacity:1;stroke:#000000;stroke-width:12.0001;stroke-linecap:round;stroke-linejoin:round"
     d="m 95.99997,130.69966 h 63.99998 V 32.011233 H 61.300267 l -0.03713,6.601802"
     sodipodi:nodetypes="ccccc" /><path
     id="path5792"
     style="opacity:1;fill:#000000;fill-opacity:1;stroke-width:12;stroke-linecap:round;stroke-dasharray:none"
     d="M 96 55.300781 A 40.699711 40.699711 0 0 0 67.146484 67.300781 L 96 67.300781 C 111.77915 67.300781 124.69922 80.220835 124.69922 96 C 124.69922 102.21691 122.68688 107.98529 119.29102 112.69922 L 133.09961 112.69922 A 40.699711 40.699711 0 0 0 136.69922 96 A 40.699711 40.699711 0 0 0 96 55.300781 z M 58.90625 79.300781 A 40.699711 40.699711 0 0 0 55.300781 96 A 40.699711 40.699711 0 0 0 96 136.69922 A 40.699711 40.699711 0 0 0 124.71094 124.69922 L 96 124.69922 C 80.220835 124.69922 67.300781 111.77915 67.300781 96 C 67.300781 89.783082 69.313104 84.014705 72.708984 79.300781 L 58.90625 79.300781 z M 96 79.300781 C 86.70609 79.300781 79.300781 86.70609 79.300781 96 C 79.300781 105.29391 86.70609 112.69922 96 112.69922 C 105.29391 112.69922 112.69922 105.29391 112.69922 96 C 112.69922 86.70609 105.29391 79.300781 96 79.300781 z " /></svg>
