<svg width="192" height="192" viewBox="0 0 192 192" fill="none" xmlns="http://www.w3.org/2000/svg"><path d="M54.5 71h7.729a28 28 0 0 1 26.153 18l8.841 23.122M54.5 71a26.444 26.444 0 0 0-24.7-17H21l19.118 50a28 28 0 0 0 26.153 18h26.91M54.5 71l12.65 33.083A27.87 27.87 0 0 0 93.181 122v0m4.041-9.878 16.66-40.724A27.998 27.998 0 0 1 139.798 54H148l-28.883 70.602A27.998 27.998 0 0 1 93.202 142H85l8.182-20m4.041-9.878L101 122h-7.818M165 54h6m-14 24h6" stroke="#000" stroke-width="10" stroke-linecap="round" stroke-linejoin="round"/></svg>