<svg xmlns="http://www.w3.org/2000/svg" width="256" height="256" viewBox="0 0 192 192" preserveAspectRatio="xMidYMid meet" xmlns:v="https://vecta.io/nano"><path d="M138.3 29c-4.6 2.1-6.3 5.4-4.4 8.8 1.6 3 4.6 3.6 9.6 1.7 5.9-2.3 10.6-1.4 15 3 7.3 7.3 4.8 18.8-4.8 22.4-1.6.6-9.5 1.1-17.7 1.1-14.2 0-15-.1-17.6-2.3-3.7-3.3-3.7-8.1 0-11.4 3.1-2.6 4.6-2.8 9.2-1.1 2.7.9 3.7.9 5.8-.6 3.5-2.2 3.6-6.9.1-9.2-12.3-8-29.5 1.3-29.5 16.1 0 8.2 3.5 14.2 10.3 17.7 3.5 1.7 5.6 1.9 23.6 1.6l19.8-.3 4.9-3c7.2-4.5 10.8-10.9 11.2-19.9.6-11.3-3.9-19.5-13.1-24.1-6.5-3.2-16.1-3.4-22.4-.5zM71.5 53.9c-2.2 1-4.7 2.7-5.6 3.7-1.6 1.8-43.9 74.5-47.3 81.1-2 4-2.1 13.4-.2 17.1.8 1.5 2.8 4 4.6 5.7l3.1 3 69.7.3 72-.3c2.9-.7 6.2-6.1 6.2-10.1 0-2.1-3.3-8.8-10.3-21C142.1 95.9 142.9 97 136.8 97c-5.7 0-8.3 3.2-20.4 24.2-11.3 19.8-12 22.3-7.3 24.9 4.6 2.4 6.2.7 17.1-18l10.4-17.9 10.2 17.7 12.8 21.8 2.5 4.3h-65c-57.7 0-65.1-.2-66.5-1.6-4.1-4-3.9-4.6 20.5-46.5C64 83.8 75.3 65.2 76.3 64.6c1.2-.8 2.2-.8 3.5 0 .9.6 7.4 11 14.4 23 13.7 23.7 15.7 26 20.2 23.1 4.5-3 3.6-5.8-10-29.4L90.1 57.6C88 55.2 81.2 52 78 52c-1.4 0-4.3.9-6.5 1.9z"/></svg>