<svg xml:space="preserve" width="192" height="192" fill="none" viewBox="0 0 192 192" version="1.1" id="svg10" xmlns="http://www.w3.org/2000/svg"><defs id="defs14"><filter id="filter3864" x="-.046" y="-.08" width="1.092" height="1.16"><feGaussianBlur stdDeviation=".2" id="feGaussianBlur3866"/></filter></defs><style id="style313">.s0{fill:#2e3436;filter:url(#filter3864);opacity:.3}.s1{fill:#4e9a06;stroke-linecap:round;stroke:#316004}</style><rect style="display:inline;opacity:1;fill:#000;fill-opacity:1;stroke-width:1;stroke-dasharray:none" id="rect1159" width="22.641" height="16.979" x="84.679" y="43.77" ry="5.66"/><rect style="display:inline;fill:#000;fill-opacity:1;stroke-width:.999996" id="rect1159-2" width="22.64" height="16.98" x="124.419" y="-52.25" ry="5.66" transform="rotate(44.997)"/><rect style="display:inline;fill:#000;fill-opacity:1;stroke-width:.999996" id="rect1159-9" width="22.639" height="16.981" x="84.681" y="-148.236" ry="5.66" transform="rotate(90)"/><rect style="display:inline;fill:#000;fill-opacity:1;stroke-width:.999996" id="rect1159-0" width="22.641" height="16.979" x="-107.321" y="-148.23" ry="5.66" transform="scale(-1)"/><rect style="display:inline;fill:#000;fill-opacity:1;stroke-width:.999996" id="rect1159-2-9" width="22.64" height="16.98" x="-147.11" y="-52.266" ry="5.66" transform="rotate(-135.003)"/><rect style="display:inline;fill:#000;fill-opacity:1;stroke-width:.999996" id="rect1159-9-3" width="22.639" height="16.981" x="-107.319" y="43.764" ry="5.66" transform="rotate(-90)"/><path id="rect5096" style="display:inline;opacity:1;stroke:#000;stroke-width:12;stroke-linecap:round;stroke-linejoin:round;stroke-dasharray:none" d="M96 60.216H30v101.772h101.784v-6.792"/><path id="rect5096-0" style="display:inline;opacity:1;stroke:#000;stroke-width:12.0001;stroke-linecap:round;stroke-linejoin:round" d="M96 131.784h66V30.012H60.216l-.038 6.808"/><path id="path907" style="fill:#000;fill-opacity:1;stroke-width:.999999;stroke-linejoin:round;stroke-dasharray:none" d="M96 54.217a41.784 41.784 0 0 0-29.156 12H96c16.378 0 29.783 13.405 29.783 29.783 0 6.651-2.21 12.811-5.933 17.783h13.925A41.784 41.784 0 0 0 137.783 96 41.784 41.784 0 0 0 96 54.217zm-37.775 24A41.784 41.784 0 0 0 54.217 96 41.784 41.784 0 0 0 96 137.783a41.784 41.784 0 0 0 29.156-12H96c-16.378 0-29.783-13.405-29.783-29.783 0-6.651 2.21-12.811 5.933-17.783H58.225zm37.775 0c-9.893 0-17.783 7.89-17.783 17.783s7.89 17.783 17.783 17.783 17.783-7.89 17.783-17.783S105.893 78.217 96 78.217z"/></svg>