<?xml version="1.0" encoding="utf-8"?>
	<svg version="1.1" xmlns="http://www.w3.org/2000/svg" xmlns:xlink="http://www.w3.org/1999/xlink" x="0px" y="0px" width="200.0" height="200.0" xml:space="preserve">
		<path d="M66.5,160.2l56.6-98.3c1.4-2.5,4.9-2.5,6.4,0l55,95.5c1.4,2.5-0.4,5.5-3.2,5.5H18.7c-2.8,0-4.6-3.1-3.2-5.5 L53,92.7c1.4-2.5,4.9-2.5,6.4,0l23.1,39.9L66.5,160.2z" fill="" stroke="#000" stroke-width="12.0" stroke-miterlimit="10.0"/>
		<path d="M70.7,74.9C60,74.9,51.4,66.5,51.4,56S60,37.1,70.7,37.1S89.9,45.5,89.9,56S81.4,74.9,70.7,74.9L70.7,74.9z" fill="" stroke="#000" stroke-width="12.0" stroke-miterlimit="10.0"/>
	</svg>
