<svg width="192" height="192" viewBox="0 0 192 192" fill="none" xmlns="http://www.w3.org/2000/svg"><path d="M96 22c20 0 36 16.029 36 35.768v68.725c0 4.42-3.604 7.999-8.053 7.999H68.053c-4.45 0-8.053-3.579-8.053-7.999V57.768C60 38.028 76 22 96 22Zm-9.678 112.492v26.579c0 4.929 4.328 8.929 9.673 8.929s9.673-4 9.673-8.929v-26.579H86.322Z" stroke="#000" stroke-width="12" stroke-linejoin="round"/><path d="M60 116h72" stroke="#000" stroke-width="10" stroke-linejoin="round"/><path d="M60 65h7.115c4.288 0 7.76 3.528 7.76 7.885v.644c0 3.794 3.02 6.862 6.753 6.862 3.734 0 6.753-3.068 6.753-6.862v-1.943c0-3.64 2.899-6.586 6.482-6.586s6.481 2.945 6.481 6.586v13.908c0 4.152 3.311 7.506 7.387 7.506 4.086 0 7.388-3.365 7.388-7.506v-12.61c0-4.356 3.472-7.884 7.759-7.884H132" stroke="#000" stroke-width="10"/><path d="M80 50s1.572-5.419 8-8" stroke="#000" stroke-width="10" stroke-linecap="round"/></svg>