<svg width="192" height="192" viewBox="0 0 192 192" fill="none" xmlns="http://www.w3.org/2000/svg"><circle cx="156" cy="38" r="14" stroke="#000" stroke-width="12" stroke-linecap="round" stroke-linejoin="round"/><circle cx="156" cy="112" r="14" stroke="#000" stroke-width="12" stroke-linecap="round" stroke-linejoin="round"/><circle cx="92" cy="75" r="14" stroke="#000" stroke-width="12" stroke-linecap="round" stroke-linejoin="round"/><path d="M120 30H84m36 90v38a6 6 0 0 1-6 6H84m-26 0H28a6 6 0 0 1-6-6v-47m0-28V36a6 6 0 0 1 6-6h30" stroke="#000" stroke-width="12" stroke-linecap="round" stroke-linejoin="round"/><path d="m43 134 16.47-26 16.471 26 11.53-19.5L99 134" stroke="#000" stroke-width="10" stroke-linecap="round" stroke-linejoin="round"/><path d="m107 66 34-20m-34 38 34 20" stroke="#000" stroke-width="12" stroke-linecap="round" stroke-linejoin="round"/></svg>