<svg width="192" height="192" viewBox="0 0 192 192" fill="none" xmlns="http://www.w3.org/2000/svg"><path d="M22 90a6 6 0 0 1 6-6h84a6 6 0 0 1 6 6v74a6 6 0 0 1-6 6H28a6 6 0 0 1-6-6V90Z" stroke="#000" stroke-width="12" stroke-linecap="round" stroke-linejoin="round"/><path d="M118 139h20a6 6 0 0 0 6-6V59a6 6 0 0 0-6-6H54a6 6 0 0 0-6 6v25" stroke="#000" stroke-width="12" stroke-linecap="round" stroke-linejoin="round"/><path d="M74 53V28a6 6 0 0 1 6-6h84a6 6 0 0 1 6 6v74a6 6 0 0 1-6 6h-20" stroke="#000" stroke-width="12" stroke-linecap="round" stroke-linejoin="round"/></svg>