<svg width="192" height="192" viewBox="0 0 400 400" xmlns="http://www.w3.org/2000/svg">
    <path fill-rule="evenodd" stroke-width="12" stroke="#000" stroke-linejoin="round" d="M192.6 42.4a81.1 81.1 0 0 0-71.1 69.6c-0.9 10.1-0.9 147.4 0.8 152.3 4.2 15.1 11 19.4 34.4 20.1h16.6l0.8 26.8c0 30.9 0 30.9 6.7 37.6a26.5 26.5 0 0 0 43.5-5.8l1.8-4.2V312l0.8-27.5h16.6c23.6-0.9 31-5 34.4-20 1.8-6.6 1.8-151.5-0.8-159a79.7 79.7 0 0 0-84.6-62.8m24.3 12.5a69.9 69.9 0 0 1 50.9 59.4c0.9 6.7 0.9 6.7-8.4 6.7-10 0-14.9 1.7-18.4 6.6-4.2 5-4.2 5.8-5 26.8 0 23.6 0 24.3-9.4 24.3-10 0-10-0.8-11-25 0-22.6 0-22.6-5.7-27.6-12.5-12.5-31.9-2.6-31.9 15.9 0 6.6-1.7 9.3-6.6 10-5 1.1-7.6-2.5-7.6-10.9-0.8-14.3-7.5-19.9-23.5-19.9-9.4 0-9.4 0-8.4-6.7a69.1 69.1 0 0 1 84.6-59.4M172 74.8a27.5 27.5 0 0 0-20.1 25c0 8.4 10 8.4 11.7-0.9 0.9-7.5 5.9-12.5 13.5-14.2 6.6-0.9 9.4-5 5-9.4-1.7-2.6-5-2.6-10-0.8m-24.4 58.6c3.5 1.8 4.2 3.6 4.2 10.1 1.8 26.9 35 27.6 36.7 0.9 0.8-10.1 5-14.3 11-11.8 5 2.6 5 2.6 5 25 0.8 18.4 0.8 20 2.6 22.6 7.5 14.3 30.9 13.5 37.6-0.8l1.8-3.6 0.9-19.3c0-25 0-25 13.4-25h7.6l-0.9 50.2v50.3H132v-50.3l-1.1-50.3h7.6c5 0 7.6 0.8 9.4 1.7m119.8 119.9c0 11-0.8 13.5-5 17.6-4.2 3.5-1.8 3.5-62.7 3.5-61.2 0-58.7 0-62.9-3.5-4.2-4.2-5-6.7-5-17.6l-0.9-10h137.3l-0.9 10M215 311.3v26.8l-1.7 2.6a16.4 16.4 0 0 1-26.9 0l-1.7-2.6v-52.6h30.1v25.9"/>
</svg>
