<svg xmlns="http://www.w3.org/2000/svg" width="192" height="192" fill="none"><path stroke="#000" stroke-linecap="round" stroke-linejoin="round" stroke-width="12" d="M162 60V38c0-6.627-5.373-12-12-12H34c-6.627 0-12 5.373-12 12v116c0 6.627 5.373 12 12 12h116c6.627 0 12-5.373 12-12v-22"/><path stroke="#000" stroke-linecap="round" stroke-linejoin="round" stroke-width="12" d="M90 72c0-6.627 5.373-12 12-12h56c6.627 0 12 5.373 12 12v48c0 6.627-5.373 12-12 12h-56c-6.627 0-12-5.373-12-12z"/><circle cx="123" cy="96" r="5" stroke="#000" stroke-linecap="round" stroke-linejoin="round" stroke-width="10"/></svg>