<svg xmlns="http://www.w3.org/2000/svg" width="192" height="192" stroke-linecap="round" stroke-linejoin="round" stroke-width="12" viewBox="0 0 192 192"><rect width="22.641" height="16.979" x="84.679" y="43.77" ry="5.66"/><rect width="22.64" height="16.98" x="124.419" y="-52.25" ry="5.66" transform="rotate(44.997)"/><rect width="22.639" height="16.981" x="84.681" y="-148.236" ry="5.66" transform="rotate(90)"/><rect width="22.641" height="16.979" x="-107.321" y="-148.23" ry="5.66" transform="scale(-1)"/><rect width="22.64" height="16.98" x="-147.11" y="-52.266" ry="5.66" transform="rotate(-135.003)"/><rect width="22.639" height="16.981" x="-107.319" y="43.764" ry="5.66" transform="rotate(-90)"/><path fill="none" stroke="#000" d="M96 60.216H30v101.772h101.784v-6.792"/><path fill="none" stroke="#000" d="M96 131.784h66V30.012H60.216l-.038 6.808"/><path d="M96 54.217a41.784 41.784 0 0 0-29.156 12H96c16.378 0 29.783 13.405 29.783 29.783 0 6.651-2.21 12.811-5.933 17.783h13.925A41.784 41.784 0 0 0 137.783 96 41.784 41.784 0 0 0 96 54.217zm-37.775 24A41.784 41.784 0 0 0 54.217 96 41.784 41.784 0 0 0 96 137.783a41.784 41.784 0 0 0 29.156-12H96c-16.378 0-29.783-13.405-29.783-29.783 0-6.651 2.21-12.811 5.933-17.783H58.225zm37.775 0c-9.893 0-17.783 7.89-17.783 17.783s7.89 17.783 17.783 17.783 17.783-7.89 17.783-17.783S105.893 78.217 96 78.217z"/></svg>