<svg width="192" height="192" viewBox="0 0 192 192" fill="none" xmlns="http://www.w3.org/2000/svg"><path d="M77 87v39a6 6 0 0 0 6 6h26a6 6 0 0 0 6-6V87M70 66h10l4-6h24l4 6h10" stroke="#000" stroke-width="12" stroke-linecap="round" stroke-linejoin="round"/><path d="M22 96c0 40.869 33.13 74 74 74 14.752 0 28.496-4.317 40.038-11.756L170 170l-12.059-33.497C165.566 124.867 170 110.951 170 96c0-40.87-33.131-74-74-74-40.87 0-74 33.13-74 74Z" stroke="#000" stroke-width="12" stroke-linecap="round" stroke-linejoin="round"/></svg>