<?xml version="1.0" encoding="utf-8"?>
	<svg version="1.1" xmlns="http://www.w3.org/2000/svg" xmlns:xlink="http://www.w3.org/1999/xlink" x="0px" y="0px" width="240.0" height="240.0" xml:space="preserve">
		<path d="M158.293,20.857L158.907,20.993C165.369,22.529 171.54,25.495 176.882,29.601C179.265,31.412 180.987,33.437 181.901,35.801C183.47,39.681 183.033,44.264 180.749,47.709C178.731,50.844 175.322,53.003 171.656,53.467C168.823,53.855 165.889,53.288 163.468,51.891L163.003,51.612L162.714,51.428C162.619,51.365 162.526,51.301 162.431,51.232L162.137,51.011L161.813,50.753L160.903,49.992L160.63,49.769L160.394,49.585L160.181,49.43C160.146,49.406 160.112,49.383 160.078,49.36L159.87,49.228C159.835,49.207 159.799,49.185 159.762,49.164C156.291,46.96 153.041,45.803 149.934,45.877C148.055,45.898 146.115,46.955 144.277,48.821C142.927,50.215 142.313,52.211 142.704,53.889L146.36,67.687L146.408,67.69C155.736,68.367 164.576,70.899 172.186,75.242L172.817,75.608L173.411,75.963C181.903,81.217 189.269,87.745 195.03,95.263C200.078,101.841 203.897,109.346 206.234,117.284C208.709,125.652 209.597,134.634 208.924,143.707C208.362,151.208 206.878,158.435 204.448,165.203C197.994,182.131 186.072,196.787 170.931,206.252C160.027,213.14 147.282,217.53 133.841,219.199C124.438,220.373 115.299,220.273 106.644,218.79C88.327,215.764 70.976,206.657 57.723,193.244C44.691,180.187 35.611,163.238 31.938,145.137C29.222,131.907 29.36,118.135 32.355,105.041C36.023,88.863 44.125,73.707 55.547,61.627C64.847,51.725 76.336,43.885 88.991,38.808L90.309,38.292L90.822,38.098C90.902,38.068 90.981,38.04 91.057,38.012L91.494,37.861L91.898,37.735C92.223,37.638 92.527,37.564 92.843,37.503L93.231,37.435C96.671,36.832 100.299,37.659 103.052,39.687C106.766,42.309 108.84,46.976 108.346,51.449L108.308,51.761C107.795,56.366 104.615,60.491 100.326,62.17L100.039,62.278C87.936,66.803 77.171,74.896 69.413,85.291C62.486,94.507 57.979,105.506 56.468,116.908C54.942,128.195 56.294,139.876 60.355,150.563C66.26,166.293 77.977,179.633 92.668,187.193C101.575,191.808 111.604,194.217 121.616,194.148C130.248,194.037 138.501,192.611 146.005,189.835C152.938,187.26 159.286,183.491 164.618,178.735C169.596,174.323 173.825,168.936 177.076,162.918C178.942,159.403 180.144,156.682 180.935,153.951L181.057,153.519C183.879,143.529 184.069,133.378 181.352,124.37C179.078,116.727 174.377,109.65 168.015,104.079C165.099,101.527 162.165,99.366 159.197,97.618C157.858,96.866 156.42,96.212 154.884,95.65L154.22,95.415L153.665,95.231L155.858,103.549L159.21,116.197L159.718,118.146L159.749,118.285L160.622,123.098L160.906,124.729L160.91,124.86C161.259,134.348 157.944,143.914 151.808,151.191C146.194,157.926 138.297,162.664 129.777,164.403L129.244,164.507C119.683,166.413 109.531,164.561 101.483,159.366C93.942,154.586 88.12,146.963 85.027,138.138C83.469,133.747 82.586,129.012 82.354,124.095L82.323,123.317C81.799,112.104 84.814,100.972 90.954,92.095C97.555,82.401 107.819,75.069 119.725,71.063L120.43,70.831L118.26,62.632C115.762,54.771 116.368,46.077 119.996,38.882C121.899,34.979 124.746,31.424 128.317,28.339C132.258,24.97 136.686,22.514 141.314,21.241C146.645,19.705 152.493,19.616 158.293,20.857ZM127.08,95.905L126.774,96.018C121.998,97.805 117.852,100.42 114.683,103.768C111.72,106.879 109.641,110.818 108.748,115.011C107.94,118.839 107.916,122.883 108.656,126.792C109.595,131.282 111.861,135.113 115.112,137.356C117.521,139.066 120.751,139.722 123.917,139.193L124.268,139.129C130.009,138.12 134.705,132.857 135.016,127.11L135.021,126.976L134.925,126.358L134.802,125.605L134.68,124.92L134.557,124.289C134.537,124.187 134.516,124.088 134.495,123.989L134.364,123.414C134.342,123.321 134.319,123.228 134.296,123.135L134.15,122.587L134.079,122.333L127.08,95.905Z" fill="#000" stroke="#00000000" stroke-width="1.0" stroke-miterlimit=""/>
	</svg>
