<?xml version="1.0" encoding="utf-8"?>
<svg width="192px" height="192px" viewBox="0 0 192 192" xmlns="http://www.w3.org/2000/svg" xmlns:bx="https://boxy-svg.com">
  <svg viewBox="0 0 192 192" width="192px" height="192px" xmlns="http://www.w3.org/2000/svg">
    <defs>
      <bx:grid x="52.521" y="41.373" width="8.653" height="100.288"/>
    </defs>
    <g>
      <g transform="matrix(1, 0, 0, 1, 0.008934, 0)">
        <g/>
      </g>
      <g transform="matrix(-1, 0, 0, 1, 193.209005, 0.105999)" style=""/>
    </g>
    <path d="M 49.875 49.458 C 45.645 52.739 51.516 63.878 66.756 81.449 C 69.95 85.118 81.391 96.041 83.075 96.991 C 83.506 97.25 81.65 98.329 77.117 100.574 C 69.821 104.2 69.821 104.2 69.26 100.79 C 68.957 98.847 67.533 96.861 66.41 96.861 C 65.547 96.861 63.172 99.365 62.741 100.747 C 62.482 101.567 62.223 101.653 60.841 101.437 C 53.977 100.229 53.027 100.185 51.3 100.703 C 50.35 100.962 49.573 101.48 49.573 101.826 C 49.573 102.948 51.818 104.546 56.308 106.661 L 60.798 108.733 L 60.798 110.762 C 60.798 113.871 61.014 114.13 63.431 114.13 C 64.64 114.13 67.015 113.828 68.742 113.482 C 70.9 113.051 72.282 112.964 72.972 113.223 C 73.534 113.439 75.088 113.741 76.426 113.914 C 79.232 114.259 80.657 113.698 80.657 112.23 C 80.657 111.281 80.959 111.194 86.399 110.288 C 89.507 109.726 93.954 109.208 96.242 109.079 C 100.041 108.863 100.602 108.906 103.365 110.029 C 107.294 111.626 120.03 114.821 126.851 115.9 C 133.24 116.936 141.443 117.152 143.818 116.332 C 145.113 115.9 145.415 115.598 145.415 114.648 C 145.415 113.266 142.436 110.374 138.292 107.654 L 135.442 105.798 L 137.255 104.762 C 138.248 104.2 139.5 103.639 140.062 103.51 C 140.623 103.38 141.098 102.991 141.098 102.646 C 141.098 102.301 141.055 102.042 141.011 102.042 C 140.925 102.042 139.975 102.344 138.853 102.689 L 136.824 103.294 L 136.694 95.221 L 136.565 87.147 L 137.817 85.723 C 138.551 84.989 139.414 84.341 139.803 84.341 C 140.752 84.341 142.393 83.089 142.393 82.355 C 142.393 82.01 142.091 81.751 141.702 81.751 C 141.314 81.751 140.666 81.319 140.234 80.801 C 139.63 80.067 138.896 79.808 136.737 79.679 L 133.974 79.463 L 132.593 76.613 C 130.564 72.426 125.34 63.921 124.736 63.705 C 123.958 63.446 124.304 64.439 127.887 72.469 L 130.952 79.376 L 129.225 79.42 C 128.103 79.463 124.606 80.672 119.512 82.83 C 115.108 84.643 111.136 86.327 110.618 86.5 C 109.884 86.802 108.071 85.507 99.523 78.556 C 87.78 69.015 79.276 62.712 71.591 57.877 C 60.021 50.581 52.336 47.602 49.875 49.458 Z M 134.147 100.531 C 134.406 101.524 134.708 102.646 134.838 102.991 C 135.011 103.466 134.751 103.769 133.974 103.941 C 133.025 104.2 132.118 103.725 128.751 101.351 C 126.506 99.754 124.692 98.329 124.692 98.199 C 124.736 98.07 125.815 97.25 127.11 96.429 C 128.448 95.609 130.218 94.141 131.082 93.191 L 132.679 91.465 L 133.197 95.091 C 133.456 97.077 133.888 99.538 134.147 100.531 Z" style="fill: none; stroke: rgb(0, 0, 0); stroke-linecap: round; stroke-linejoin: round; vector-effect: non-scaling-stroke; paint-order: stroke; fill-rule: evenodd; stroke-width: 12px; fill-opacity: 0;" fill="none" stroke="black"/>
    <path style="stroke: rgb(0, 0, 0); fill: none; vector-effect: non-scaling-stroke; stroke-linecap: round; stroke-linejoin: round; paint-order: stroke; fill-rule: evenodd; stroke-width: 12px; fill-opacity: 0;" d="M 155.737 127.04 C 155.243 127.534 154.747 127.94 154.116 128.256 C 153.925 128.351 153.691 128.348 153.508 128.458 C 151.624 129.589 154.928 128.052 152.495 129.269 C 152.304 129.364 152.078 129.376 151.887 129.471 C 151.239 129.795 150.712 130.363 150.064 130.687 C 149.873 130.782 149.64 130.78 149.456 130.889 C 149.293 130.988 149.215 131.196 149.051 131.295 C 145.823 133.231 150.776 129.849 148.038 131.902 C 147.501 132.306 146.783 132.372 146.215 132.713 C 145.491 133.147 144.778 133.612 143.986 133.928 C 143.788 134.008 143.57 134.035 143.379 134.131 C 143.161 134.24 142.989 134.427 142.771 134.536 C 142.447 134.698 141.656 134.855 141.353 134.941 C 140.756 135.112 140.141 135.447 139.529 135.549 C 139.33 135.582 139.122 135.516 138.922 135.549 C 138.297 135.653 137.719 136.033 137.098 136.157 C 136.966 136.183 136.821 136.114 136.693 136.157 C 136.603 136.187 136.581 136.329 136.491 136.359 C 136.298 136.424 135.682 136.359 135.478 136.359 C 134.465 136.359 133.452 136.359 132.439 136.359 C 131.628 136.359 130.818 136.359 130.008 136.359 C 129.67 136.359 129.326 136.426 128.995 136.359 C 128.847 136.33 128.736 136.193 128.59 136.157 C 128.262 136.075 127.908 136.223 127.577 136.157 C 127.429 136.127 127.319 135.984 127.171 135.954 C 126.973 135.914 126.763 135.988 126.564 135.954 C 126.142 135.884 125.769 135.619 125.348 135.549 C 125.148 135.516 124.94 135.582 124.74 135.549 C 124.153 135.451 123.707 135.039 123.12 134.941 C 122.92 134.908 122.71 134.981 122.512 134.941 C 122.101 134.859 121.704 134.638 121.296 134.536 C 120.986 134.458 120.587 134.637 120.283 134.536 C 120.14 134.488 120.021 134.381 119.878 134.334 C 119.686 134.269 119.473 134.334 119.27 134.334 C 118.841 134.334 118.266 134.23 117.852 134.334 C 117.327 134.465 116.755 134.767 116.231 134.941 C 115.765 135.097 115.265 135.153 114.813 135.346 C 113.995 135.697 113.265 136.423 112.585 136.967 C 112.395 137.119 112.167 137.22 111.977 137.372 C 111.458 137.787 111.078 138.375 110.559 138.79 C 110.369 138.943 110.123 139.023 109.951 139.196 C 109.779 139.368 109.718 139.631 109.546 139.803 C 109.374 139.976 109.128 140.056 108.938 140.209 C 108.38 140.655 107.773 141.283 107.318 141.829 C 106.825 142.42 106.38 143.051 105.899 143.653 C 105.545 144.096 105.024 144.414 104.684 144.868 C 104.451 145.178 104.309 145.571 104.076 145.881 C 103.961 146.034 103.785 146.134 103.671 146.286 C 103.439 146.595 103.497 146.788 103.266 147.097 C 103.151 147.25 102.975 147.349 102.861 147.502 C 102.451 148.048 102.864 147.834 102.455 148.515 C 102.199 148.943 101.699 149.303 101.442 149.73 C 101.185 150.16 101.148 150.73 100.835 151.149 C 100.72 151.301 100.528 151.39 100.429 151.554 C 100.172 151.983 100.135 152.553 99.822 152.972 C 99.707 153.125 99.531 153.224 99.416 153.377 C 99.102 153.796 98.896 154.36 98.606 154.795 C 98.176 155.441 98.139 156.478 97.593 157.024 C 97.486 157.13 97.295 157.119 97.188 157.226 C 96.93 157.484 96.745 158.113 96.58 158.442 C 96.471 158.66 96.252 158.819 96.175 159.05 C 96.132 159.178 96.218 159.327 96.175 159.455 C 96.175 159.455 95.77 159.86 95.77 159.86 C 95.683 160.033 95.654 160.294 95.567 160.468 C 95.453 160.695 95.039 160.836 94.959 161.075 C 94.917 161.204 95.002 161.352 94.959 161.481 C 94.852 161.803 94.302 161.985 94.149 162.291 C 94.119 162.351 94.179 162.433 94.149 162.494 C 94.144 162.504 93.749 162.888 93.744 162.899 C 93.714 162.959 93.774 163.041 93.744 163.101 C 93.701 163.187 93.584 163.219 93.541 163.304 C 93.511 163.364 93.589 163.459 93.541 163.507 C 93.494 163.554 93.387 163.459 93.339 163.507 C 93.291 163.554 93.387 163.661 93.339 163.709 C 93.291 163.757 93.184 163.661 93.136 163.709 C 93.088 163.757 93.184 163.864 93.136 163.912 C 93.088 163.959 92.981 163.864 92.934 163.912 C 92.886 163.959 92.981 164.067 92.934 164.114 C 92.88 164.168 92.409 164.114 92.326 164.114 C 91.651 164.114 90.975 164.114 90.3 164.114 C 89.923 164.114 89.442 164.204 89.084 164.114 C 88.938 164.078 88.826 163.948 88.679 163.912 C 88.548 163.879 88.405 163.944 88.274 163.912 C 88.127 163.875 88.012 163.757 87.869 163.709 C 86.671 163.31 85.487 162.796 84.425 162.088 C 84.144 161.901 83.895 161.87 83.614 161.683 C 83.339 161.499 83.08 161.259 82.804 161.075 C 82.678 160.992 82.506 160.98 82.399 160.873 C 82.292 160.766 82.303 160.574 82.196 160.468 C 81.949 160.221 81.43 160.107 81.183 159.86 C 81.077 159.753 81.065 159.58 80.981 159.455 C 80.671 158.989 80.865 159.542 80.373 159.05 C 80.266 158.943 80.277 158.751 80.17 158.644 C 80.064 158.538 79.872 158.549 79.765 158.442 C 79.658 158.335 79.653 158.157 79.563 158.037 C 79.114 157.438 78.356 157.038 77.942 156.416 C 77.858 156.29 77.846 156.117 77.739 156.011 C 77.633 155.904 77.441 155.915 77.334 155.808 C 77.227 155.701 77.222 155.524 77.131 155.403 C 76.902 155.097 76.518 154.92 76.321 154.593 C 76.211 154.409 76.228 154.168 76.119 153.985 C 76.02 153.821 75.828 153.732 75.713 153.58 C 75.309 153.041 74.904 152.5 74.498 151.959 C 74.088 151.413 73.891 150.677 73.485 150.136 C 73.37 149.983 73.194 149.883 73.08 149.73 C 72.682 149.2 72.558 148.483 72.269 147.907 C 72.227 147.822 72.12 147.784 72.067 147.704 C 71.82 147.334 71.726 146.845 71.459 146.489 C 71.344 146.336 71.168 146.237 71.054 146.084 C 70.772 145.708 70.861 145.292 70.649 144.868 C 70.606 144.783 70.499 144.745 70.446 144.666 C 70.157 144.232 70.028 143.722 69.838 143.247 C 69.243 141.759 68.611 140.28 68.015 138.79 C 67.815 138.291 67.527 137.599 67.205 137.17 C 67.09 137.017 66.885 136.935 66.799 136.765 C 66.739 136.644 66.842 136.487 66.799 136.359 C 66.712 136.099 66.279 135.81 66.192 135.549 C 66.149 135.421 66.224 135.275 66.192 135.144 C 66.075 134.678 65.585 134.336 65.381 133.928 C 65.351 133.868 65.411 133.786 65.381 133.726 C 65.138 133.24 64.409 132.996 64.166 132.51 C 64.136 132.45 64.213 132.355 64.166 132.308 C 64.118 132.26 64.023 132.338 63.963 132.308 C 63.878 132.265 63.846 132.148 63.761 132.105 C 63.7 132.075 63.606 132.153 63.558 132.105 C 63.51 132.057 63.606 131.95 63.558 131.902 C 63.51 131.855 63.416 131.933 63.355 131.902 C 63.27 131.86 63.238 131.743 63.153 131.7 C 62.937 131.592 62.558 131.808 62.342 131.7 C 62.257 131.657 62.23 131.527 62.14 131.497 C 61.948 131.433 61.735 131.497 61.532 131.497 C 60.992 131.497 60.452 131.497 59.911 131.497 C 59.427 131.497 58.762 131.403 58.291 131.497 C 58.143 131.527 58.032 131.663 57.885 131.7 C 57.377 131.827 56.773 131.573 56.265 131.7 C 56.118 131.736 56.003 131.855 55.859 131.902 C 55.556 132.004 55.15 131.801 54.847 131.902 C 54.756 131.933 54.729 132.062 54.644 132.105 C 54.387 132.234 53.742 132.105 53.428 132.105 C 52.348 132.105 51.267 132.105 50.187 132.105 C 49.166 132.105 48.289 132.013 47.351 131.7 C 47.189 131.646 46.655 131.814 46.54 131.7 C 46.493 131.652 46.588 131.545 46.54 131.497 C 46.473 131.43 46.203 131.565 46.135 131.497 C 46.087 131.449 46.165 131.355 46.135 131.295 C 46.092 131.209 45.975 131.177 45.933 131.092 C 45.873 130.972 45.933 130.62 45.933 130.484 C 45.933 130.079 45.933 129.674 45.933 129.269 C 45.933 128.718 45.8 127.977 45.933 127.445 C 45.969 127.299 46.099 127.187 46.135 127.04 C 46.201 126.778 46.082 126.495 46.135 126.23 C 46.346 125.176 46.27 126.027 46.54 125.217 C 46.763 124.547 46.884 123.851 47.148 123.191 C 47.39 122.585 47.753 121.984 47.958 121.368 C 48.001 121.24 47.863 121.058 47.958 120.963 C 48.006 120.915 48.113 121.01 48.161 120.963 C 48.193 120.931 48.193 120.184 48.161 120.152 C 48.113 120.104 48.006 120.2 47.958 120.152 C 47.911 120.104 48.006 119.997 47.958 119.95 C 47.877 119.868 47.465 119.988 47.351 119.95 C 46.874 119.791 46.442 119.646 45.933 119.544 C 45.535 119.465 45.122 119.544 44.717 119.544 C 43.974 119.544 43.231 119.544 42.488 119.544 C 40.8 119.544 39.112 119.544 37.424 119.544 C 36.951 119.544 36.478 119.544 36.006 119.544 C 35.869 119.544 35.517 119.604 35.398 119.544 C 35.312 119.502 35.281 119.384 35.195 119.342 C 35.014 119.251 34.78 119.406 34.587 119.342 C 30.842 118.093 39.356 120.483 33.98 119.139 C 33.687 119.066 33.456 118.83 33.169 118.734 C 32.835 118.623 32.476 118.542 32.156 118.329 C 31.693 118.02 32.283 118.169 31.549 117.924 C 31.485 117.902 31.406 117.954 31.346 117.924 C 31.054 117.777 31.233 117.665 30.941 117.518 C 30.661 117.379 30.76 117.764 30.536 117.316 C 30.505 117.255 30.583 117.161 30.536 117.113 C 30.488 117.066 30.381 117.161 30.333 117.113 C 30.285 117.066 30.381 116.958 30.333 116.911 C 30.285 116.863 30.178 116.958 30.13 116.911 C 30.035 116.815 30.13 116.641 30.13 116.506 C 30.13 116.033 30.13 115.56 30.13 115.087 C 30.13 114.794 30.002 114.129 30.13 113.872 C 30.173 113.786 30.28 113.749 30.333 113.669 C 30.501 113.418 30.557 113.1 30.738 112.859 C 31.285 112.13 31.907 111.487 32.562 110.833 C 32.697 110.698 32.814 110.542 32.967 110.428 C 33.087 110.337 33.265 110.332 33.372 110.225 C 33.479 110.118 33.468 109.927 33.575 109.82 C 33.622 109.772 33.717 109.85 33.777 109.82 C 33.948 109.735 34.097 109.586 34.182 109.415 C 34.266 109.247 34.182 108.797 34.182 108.604 C 34.182 108.521 34.236 108.05 34.182 107.997 C 34.135 107.949 34.027 108.044 33.98 107.997 C 33.932 107.949 34.01 107.855 33.98 107.794 C 33.855 107.544 33.216 106.906 32.967 106.781 C 32.906 106.751 32.825 106.811 32.764 106.781 C 32.409 106.604 32.714 106.553 32.359 106.376 C 32.299 106.346 32.217 106.406 32.156 106.376 C 31.797 106.196 31.503 105.948 31.143 105.768 C 31.083 105.738 30.989 105.816 30.941 105.768 C 30.893 105.72 30.989 105.613 30.941 105.566 C 30.873 105.498 30.171 105.579 30.13 105.566 C 29.921 105.496 29.724 105.261 29.523 105.16 C 29.415 105.106 29.226 105.214 29.118 105.16 C 28.947 105.075 28.894 104.816 28.712 104.755 C 28.584 104.713 28.435 104.798 28.307 104.755 C 28.217 104.725 28.195 104.583 28.105 104.553 C 27.976 104.51 27.827 104.595 27.699 104.553 C 27.609 104.522 27.587 104.38 27.497 104.35 C 27.369 104.307 27.22 104.393 27.092 104.35 C 26.831 104.263 26.542 103.829 26.281 103.742 C 26.153 103.7 26.007 103.775 25.876 103.742 C 25.594 103.672 25.102 103.294 24.863 103.135 C 24.784 103.082 24.751 102.962 24.661 102.932 C 24.532 102.889 24.384 102.975 24.255 102.932 C 24.015 102.852 23.875 102.438 23.648 102.324 C 23.587 102.294 23.505 102.354 23.445 102.324 C 23.121 102.162 22.959 101.676 22.635 101.514 C 22.574 101.484 22.48 101.562 22.432 101.514 C 22.384 101.466 22.48 101.359 22.432 101.311 C 22.384 101.263 22.277 101.359 22.229 101.311 C 22.182 101.263 22.26 101.169 22.229 101.109 C 22.187 101.023 22.07 100.991 22.027 100.906 C 21.966 100.785 22.027 100.636 22.027 100.501 C 22.027 100.096 22.027 99.691 22.027 99.285 C 22.027 98.745 22.027 98.205 22.027 97.665 C 22.027 97.581 21.973 97.11 22.027 97.057 C 22.075 97.009 22.182 97.105 22.229 97.057 C 22.277 97.009 22.199 96.915 22.229 96.854 C 22.229 96.854 22.635 96.449 22.635 96.449 C 22.718 96.323 22.73 96.151 22.837 96.044 C 22.944 95.937 23.117 95.925 23.242 95.841 C 23.521 95.655 23.451 95.529 23.648 95.234 C 23.858 94.918 24.16 94.824 24.458 94.626 C 24.923 94.315 24.371 94.51 24.863 94.018 C 24.863 94.018 25.673 93.613 25.673 93.613 C 29.182 90.981 23.539 94.969 26.484 93.005 C 27.15 92.561 27.643 91.827 28.307 91.384 C 28.751 91.088 29.3 90.893 29.725 90.574 C 30.075 90.311 30.376 90.005 30.738 89.764 C 30.99 89.596 31.297 89.526 31.549 89.358 C 31.708 89.252 31.783 89.039 31.954 88.953 C 32.014 88.923 32.109 89.001 32.156 88.953 C 32.263 88.846 32.252 88.655 32.359 88.548 C 32.407 88.5 32.501 88.578 32.562 88.548 C 32.805 88.426 32.926 88.062 33.169 87.94 C 33.23 87.91 33.324 87.988 33.372 87.94 C 33.42 87.892 33.342 87.798 33.372 87.738 C 33.457 87.567 33.671 87.491 33.777 87.332 C 35.359 84.96 33.376 87.931 33.98 86.725 C 34.065 86.554 34.279 86.478 34.385 86.32 C 34.385 86.319 34.79 85.509 34.79 85.509 C 34.823 85.378 34.757 85.235 34.79 85.104 C 34.961 84.42 35.175 83.747 35.398 83.078 C 35.446 82.935 35.564 82.819 35.6 82.673 C 35.666 82.411 35.535 82.125 35.6 81.863 C 35.637 81.716 35.766 81.604 35.803 81.457 C 35.869 81.195 35.803 80.917 35.803 80.647 C 35.803 79.837 35.803 79.026 35.803 78.216 C 35.803 77.405 35.803 76.595 35.803 75.785 C 35.803 75.38 35.882 74.967 35.803 74.569 C 35.773 74.421 35.637 74.311 35.6 74.164 C 35.519 73.837 35.667 73.482 35.6 73.151 C 35.571 73.003 35.434 72.892 35.398 72.746 C 35.365 72.615 35.431 72.472 35.398 72.341 C 35.294 71.924 35.097 71.542 34.993 71.125 C 34.96 70.994 35.035 70.848 34.993 70.72 C 34.962 70.629 34.82 70.608 34.79 70.517 C 34.747 70.389 34.833 70.24 34.79 70.112 C 34.76 70.022 34.63 69.995 34.587 69.91 C 33.271 67.277 34.73 70.135 34.385 69.099 C 34.196 68.534 33.796 68.033 33.575 67.479 C 32.936 65.883 32.028 64.496 31.143 63.022 C 30.874 62.572 30.826 62.039 30.536 61.603 C 30.321 61.282 30.145 60.917 29.928 60.59 C 29.875 60.511 29.755 60.479 29.725 60.388 C 29.683 60.26 29.758 60.114 29.725 59.983 C 29.584 59.416 29.029 58.934 28.915 58.362 C 28.875 58.163 28.955 57.953 28.915 57.754 C 28.79 57.128 28.228 56.548 28.105 55.931 C 28.065 55.732 28.144 55.522 28.105 55.323 C 28.075 55.175 27.939 55.064 27.902 54.918 C 27.869 54.787 27.928 54.645 27.902 54.513 C 27.691 53.459 27.767 54.31 27.497 53.5 C 27.416 53.257 27.578 52.933 27.497 52.689 C 27.449 52.546 27.342 52.428 27.294 52.284 C 27.242 52.128 27.222 51.416 27.294 51.271 C 27.337 51.186 27.454 51.154 27.497 51.069 C 28.453 49.156 25.328 54.413 27.699 50.461 C 28.059 49.862 28.487 49.375 28.915 48.84 C 29.067 48.65 29.148 48.405 29.32 48.232 C 29.492 48.06 29.738 47.979 29.928 47.827 C 30.298 47.531 30.57 47.111 30.941 46.814 C 31.221 46.59 31.673 46.431 31.954 46.207 C 32.285 45.942 32.636 45.661 32.967 45.396 C 33.116 45.277 33.208 45.089 33.372 44.991 C 33.555 44.881 33.797 44.898 33.98 44.788 C 34.143 44.69 34.221 44.482 34.385 44.383 C 34.568 44.273 34.81 44.29 34.993 44.181 C 35.156 44.082 35.239 43.881 35.398 43.775 C 35.539 43.682 35.849 43.651 36.006 43.573 C 36.242 43.455 36.377 43.286 36.613 43.168 C 36.733 43.108 37.085 43.168 37.221 43.168 C 37.761 43.168 38.302 43.168 38.842 43.168 C 38.977 43.168 39.126 43.228 39.247 43.168 C 39.332 43.125 39.354 42.965 39.45 42.965" fill="none" stroke="black"/>
    <line style="fill: rgb(216, 216, 216); stroke: rgb(0, 0, 0); stroke-linecap: round; stroke-linejoin: round; vector-effect: non-scaling-stroke; paint-order: stroke; fill-rule: evenodd; stroke-width: 12px; fill-opacity: 0;" x1="102.148" y1="57.042" x2="127.837" y2="40.813" fill="none" stroke="black"/>
    <path style="stroke: rgb(0, 0, 0); stroke-linecap: round; stroke-linejoin: round; vector-effect: non-scaling-stroke; fill: none; fill-rule: evenodd; paint-order: stroke; stroke-width: 12px; fill-opacity: 0;" d="M 158.468 100.226 C 157.459 99.385 158.596 100.355 157.577 99.409 C 156.991 98.865 157.037 98.985 156.538 98.444 C 156.383 98.276 156.247 98.092 156.092 97.924 C 155.663 97.46 155.211 97.022 154.83 96.514 C 154.136 95.589 154.918 96.516 154.236 95.697 C 153.952 95.356 154.463 95.998 154.013 95.548 C 153.95 95.485 153.917 95.398 153.865 95.326 C 153.478 94.785 153.796 95.285 153.419 94.657 C 153.185 94.267 152.94 93.885 152.751 93.469 C 152.364 92.618 152.81 93.573 152.528 92.727 C 152.493 92.622 152.41 92.536 152.38 92.43 C 152.359 92.359 152.39 92.281 152.38 92.207 C 152.343 91.954 152.218 91.579 152.305 91.316 C 152.358 91.159 152.461 91.022 152.528 90.871 C 152.72 90.438 152.633 90.47 152.974 90.054 C 153.085 89.919 153.234 89.818 153.345 89.683 C 153.458 89.545 153.528 89.374 153.642 89.237 C 153.776 89.076 153.939 88.94 154.087 88.792 C 154.549 88.33 155.002 87.88 155.498 87.455 C 155.498 87.455 156.538 86.564 156.538 86.564 C 156.7 86.448 156.893 86.381 157.057 86.267 C 157.216 86.157 157.338 85.997 157.503 85.896 C 157.663 85.797 157.857 85.763 158.023 85.673 C 158.776 85.268 158.151 85.471 158.914 85.154 C 158.914 85.153 159.804 84.857 159.805 84.857 C 159.93 84.811 160.048 84.746 160.176 84.708 C 160.418 84.636 160.679 84.639 160.918 84.56 C 161.023 84.525 161.108 84.438 161.215 84.411 C 161.335 84.381 161.476 84.466 161.587 84.411 C 161.618 84.395 161.628 84.348 161.661 84.337 C 161.708 84.321 161.761 84.346 161.809 84.337 C 161.986 84.301 162.154 84.232 162.329 84.188 C 162.648 84.109 162.978 84.052 163.294 83.966 C 164.819 83.55 162.783 84.067 164.111 83.669 C 164.232 83.632 164.363 83.634 164.482 83.594 C 164.898 83.456 165.26 83.154 165.67 83 C 165.766 82.964 165.873 82.966 165.967 82.926 C 166.186 82.832 166.445 82.624 166.635 82.481 C 166.798 82.359 166.88 82.187 167.007 82.035 C 167.074 81.954 167.161 81.892 167.229 81.812 C 167.562 81.424 167.838 80.974 168.12 80.55 C 169.896 77.886 166.918 82.325 168.492 79.808 C 168.547 79.719 168.653 79.67 168.714 79.585 C 168.897 79.329 169.019 78.976 169.16 78.694 C 169.243 78.529 169.374 78.339 169.457 78.174 C 169.569 77.95 169.612 77.67 169.68 77.432 C 169.723 77.281 169.802 77.141 169.828 76.986 C 169.84 76.913 169.816 76.837 169.828 76.763 C 169.895 76.361 170.061 75.923 169.977 75.501 C 169.811 74.671 169.532 73.869 169.086 73.125 C 169.004 72.989 168.891 72.875 168.789 72.754 C 168.322 72.206 167.892 71.624 167.378 71.12 C 163.749 67.56 165.954 69.824 164.26 68.448 C 162.788 67.252 161.419 65.922 159.879 64.809 C 158.929 64.124 157.972 63.434 156.983 62.805 C 156.693 62.62 156.38 62.473 156.092 62.285 C 153.626 60.677 156.998 62.73 154.384 61.097 C 154.093 60.915 153.785 60.759 153.493 60.577 C 152.328 59.849 152.852 60.123 151.711 59.315 C 151.42 59.109 151.113 58.925 150.82 58.721 C 149.758 57.982 148.736 57.195 147.702 56.419 C 146.244 55.325 144.765 54.263 143.321 53.152 C 142.597 52.595 143.143 52.985 142.505 52.41 C 142.191 52.127 141.859 51.867 141.539 51.593 C 141.203 51.304 141.418 51.46 141.168 51.148 C 141.081 51.038 140.955 50.963 140.871 50.851 C 140.871 50.85 140.723 50.554 140.723 50.554 C 140.703 50.524 140.664 50.511 140.648 50.479 C 140.637 50.457 140.666 50.423 140.648 50.405 C 140.631 50.388 140.596 50.416 140.574 50.405 C 140.483 50.36 140.48 50.255 140.426 50.182 C 140.264 49.967 140.022 49.779 139.832 49.588 C 139.565 49.322 139.336 48.92 138.941 48.92" fill="none" stroke="#00000"/>
    <line style="fill: rgb(216, 216, 216); stroke: rgb(0, 0, 0); vector-effect: non-scaling-stroke; stroke-linecap: round; stroke-linejoin: round; paint-order: stroke; fill-rule: evenodd; stroke-width: 12px; fill-opacity: 0;" x1="53.848" y1="27.846" x2="93.895" y2="51.567" fill="none" stroke="#00000"/>
  </svg>
</svg>