<?xml version="1.0" encoding="utf-8"?>
<svg version="1.0" width="192px" height="192px" preserveAspectRatio="xMidYMid meet" viewBox="192 192 192 192" xmlns="http://www.w3.org/2000/svg">
  <g transform="matrix(0.046943, 0, 0, -0.046943, 1007.905426, -4885.517724)" fill="none" stroke="#000" style="transform-origin: -877.775px 5097.19px;">
    <path d="M 1502.667 4462.674 C 1412.54 4392.779 1537.614 4155.505 1862.257 3781.2 C 1930.312 3703.028 2174.023 3470.352 2209.89 3450.12 C 2219.088 3444.602 2179.542 3421.61 2082.977 3373.788 C 1927.553 3296.536 1927.553 3296.536 1915.597 3369.189 C 1909.159 3410.575 1878.811 3452.88 1854.899 3452.88 C 1836.506 3452.88 1785.924 3399.539 1776.728 3370.109 C 1771.21 3352.635 1765.692 3350.797 1736.262 3355.395 C 1590.035 3381.145 1569.803 3382.065 1533.016 3371.029 C 1512.783 3365.511 1496.229 3354.475 1496.229 3347.117 C 1496.229 3323.207 1544.052 3289.179 1639.697 3244.115 L 1735.342 3199.97 L 1735.342 3156.746 C 1735.342 3090.531 1739.94 3085.013 1791.442 3085.013 C 1817.193 3085.013 1867.775 3091.451 1904.561 3098.807 C 1950.544 3108.004 1979.974 3109.843 1994.688 3104.325 C 2006.644 3099.727 2039.752 3093.289 2068.262 3089.611 C 2128.041 3082.253 2158.389 3094.209 2158.389 3125.478 C 2158.389 3145.71 2164.827 3147.55 2280.705 3166.863 C 2346.921 3178.818 2441.647 3189.854 2490.389 3192.614 C 2571.32 3197.212 2583.275 3196.292 2642.134 3172.381 C 2725.824 3138.353 2997.126 3070.297 3142.433 3047.307 C 3278.544 3025.234 3453.281 3020.636 3503.862 3038.109 C 3531.452 3047.307 3537.89 3053.744 3537.89 3073.977 C 3537.89 3103.406 3474.433 3165.024 3386.145 3222.962 L 3325.446 3262.508 L 3364.072 3284.58 C 3385.225 3296.536 3411.895 3308.491 3423.851 3311.251 C 3435.807 3314.009 3445.923 3322.287 3445.923 3329.643 C 3445.923 3337.001 3445.003 3342.519 3444.083 3342.519 C 3442.245 3342.519 3422.011 3336.081 3398.1 3328.725 L 3354.876 3315.849 L 3352.117 3487.826 L 3349.358 3659.804 L 3376.028 3690.154 C 3391.663 3705.788 3410.056 3719.582 3418.333 3719.582 C 3438.565 3719.582 3473.513 3746.253 3473.513 3761.888 C 3473.513 3769.244 3467.075 3774.763 3458.799 3774.763 C 3450.521 3774.763 3436.727 3783.959 3427.529 3794.995 C 3414.654 3810.63 3399.02 3816.148 3353.036 3818.907 L 3294.178 3823.505 L 3264.748 3884.203 C 3221.524 3973.41 3110.244 4154.585 3097.369 4159.183 C 3080.815 4164.701 3088.172 4143.549 3164.505 3972.491 L 3229.801 3825.345 L 3193.015 3824.425 C 3169.103 3823.505 3094.61 3797.754 2986.089 3751.771 C 2892.283 3713.145 2807.674 3677.278 2796.638 3673.599 C 2781.004 3667.162 2742.378 3694.752 2560.284 3842.818 C 2310.134 4046.064 2128.959 4180.336 1965.26 4283.338 C 1718.788 4438.762 1555.088 4502.22 1502.667 4462.674 Z M 3297.856 3374.707 C 3303.374 3353.555 3309.812 3329.643 3312.572 3322.287 C 3316.25 3312.171 3310.732 3305.733 3294.178 3302.054 C 3273.945 3296.536 3254.632 3306.653 3182.899 3357.234 C 3135.075 3391.262 3096.45 3421.61 3096.45 3424.37 C 3097.369 3427.128 3120.361 3444.602 3147.951 3462.076 C 3176.461 3479.55 3214.167 3510.818 3232.56 3531.051 L 3266.588 3567.837 L 3277.624 3490.586 C 3283.142 3448.281 3292.338 3395.86 3297.856 3374.707 Z" style="fill: none; stroke: rgb(0, 0, 0); stroke-linecap: round; stroke-linejoin: round; vector-effect: non-scaling-stroke; stroke-width: 10px; paint-order: stroke; fill-rule: evenodd;"/>
    <path style="stroke: rgb(0, 0, 0); fill: none; vector-effect: non-scaling-stroke; stroke-width: 12px; stroke-linecap: round; stroke-linejoin: round; paint-order: stroke; fill-rule: evenodd;" d="M 3757.768 2809.991 C 3747.254 2799.477 3736.686 2790.818 3723.243 2784.097 C 3719.174 2782.062 3714.196 2782.122 3710.295 2779.781 C 3670.152 2755.694 3740.544 2788.431 3688.717 2762.519 C 3684.648 2760.484 3679.839 2760.237 3675.77 2758.202 C 3661.96 2751.297 3650.739 2739.214 3636.929 2732.309 C 3632.86 2730.275 3627.883 2730.333 3623.982 2727.993 C 3620.493 2725.899 3618.84 2721.455 3615.35 2719.362 C 3546.59 2678.105 3652.088 2750.152 3593.772 2706.415 C 3582.319 2697.825 3567.038 2696.416 3554.931 2689.152 C 3539.503 2679.894 3524.315 2670 3507.459 2663.257 C 3503.235 2661.568 3498.58 2660.976 3494.511 2658.942 C 3489.873 2656.623 3486.204 2652.631 3481.565 2650.31 C 3474.666 2646.862 3457.808 2643.524 3451.355 2641.68 C 3438.636 2638.045 3425.545 2630.904 3412.514 2628.732 C 3408.257 2628.023 3403.824 2629.442 3399.567 2628.732 C 3386.27 2626.516 3373.951 2618.43 3360.726 2615.785 C 3357.905 2615.221 3354.823 2616.694 3352.094 2615.785 C 3350.165 2615.142 3349.709 2612.113 3347.779 2611.47 C 3343.671 2610.101 3330.545 2611.47 3326.2 2611.47 C 3304.622 2611.47 3283.044 2611.47 3261.465 2611.47 C 3244.203 2611.47 3226.94 2611.47 3209.677 2611.47 C 3202.484 2611.47 3195.152 2610.059 3188.099 2611.47 C 3184.945 2612.1 3182.588 2615.004 3179.468 2615.785 C 3172.49 2617.529 3164.942 2614.374 3157.889 2615.785 C 3154.735 2616.416 3152.412 2619.47 3149.257 2620.102 C 3145.025 2620.948 3140.568 2619.391 3136.311 2620.102 C 3127.336 2621.597 3119.391 2627.237 3110.416 2628.732 C 3106.16 2629.442 3101.727 2628.023 3097.47 2628.732 C 3084.956 2630.818 3075.458 2639.594 3062.944 2641.68 C 3058.688 2642.389 3054.229 2640.833 3049.998 2641.68 C 3041.256 2643.427 3032.786 2648.14 3024.103 2650.31 C 3017.485 2651.966 3008.984 2648.158 3002.525 2650.31 C 2999.473 2651.328 2996.945 2653.609 2993.893 2654.626 C 2989.799 2655.991 2985.263 2654.626 2980.947 2654.626 C 2971.808 2654.626 2959.541 2656.827 2950.737 2654.626 C 2939.548 2651.829 2927.369 2645.399 2916.211 2641.68 C 2906.276 2638.368 2895.628 2637.174 2886.002 2633.048 C 2868.574 2625.579 2853.022 2610.117 2838.53 2598.523 C 2834.479 2595.283 2829.633 2593.132 2825.582 2589.892 C 2814.53 2581.049 2806.425 2568.524 2795.372 2559.682 C 2791.322 2556.441 2786.093 2554.718 2782.426 2551.05 C 2778.758 2547.383 2777.462 2541.771 2773.794 2538.103 C 2770.127 2534.436 2764.897 2532.713 2760.847 2529.472 C 2748.949 2519.953 2736.025 2506.59 2726.322 2494.947 C 2715.83 2482.356 2706.359 2468.914 2696.113 2456.106 C 2688.562 2446.668 2677.467 2439.877 2670.218 2430.212 C 2665.262 2423.603 2662.227 2415.242 2657.271 2408.633 C 2654.83 2405.378 2651.081 2403.257 2648.64 2400.002 C 2643.706 2393.423 2644.943 2389.317 2640.008 2382.739 C 2637.567 2379.484 2633.818 2377.363 2631.377 2374.108 C 2622.647 2362.468 2631.446 2367.029 2622.746 2352.53 C 2617.279 2343.418 2606.634 2335.747 2601.167 2326.635 C 2595.676 2317.484 2594.904 2305.338 2588.22 2296.425 C 2585.779 2293.17 2581.682 2291.283 2579.589 2287.794 C 2574.098 2278.643 2573.326 2266.497 2566.642 2257.584 C 2564.2 2254.329 2560.452 2252.208 2558.01 2248.953 C 2551.312 2240.022 2546.925 2228.009 2540.748 2218.743 C 2531.577 2204.986 2530.802 2182.904 2519.17 2171.271 C 2516.895 2168.997 2512.813 2169.23 2510.538 2166.955 C 2505.041 2161.459 2501.093 2148.063 2497.591 2141.061 C 2495.272 2136.421 2490.6 2133.035 2488.96 2128.114 C 2488.05 2125.385 2489.869 2122.213 2488.96 2119.482 C 2488.96 2119.48 2480.329 2110.853 2480.329 2110.852 C 2478.483 2107.16 2477.858 2101.596 2476.013 2097.904 C 2473.586 2093.052 2464.77 2090.069 2463.065 2084.958 C 2462.156 2082.228 2463.975 2079.056 2463.065 2076.326 C 2460.779 2069.466 2449.063 2065.583 2445.803 2059.064 C 2445.159 2057.777 2446.447 2056.035 2445.803 2054.748 C 2445.688 2054.517 2437.288 2046.347 2437.172 2046.116 C 2436.529 2044.829 2437.815 2043.087 2437.172 2041.8 C 2436.262 2039.981 2433.766 2039.305 2432.855 2037.485 C 2432.213 2036.199 2433.873 2034.187 2432.855 2033.169 C 2431.838 2032.152 2429.558 2034.187 2428.541 2033.169 C 2427.523 2032.152 2429.558 2029.872 2428.541 2028.854 C 2427.524 2027.837 2425.242 2029.872 2424.225 2028.854 C 2423.208 2027.837 2425.242 2025.556 2424.225 2024.538 C 2423.208 2023.521 2420.927 2025.556 2419.909 2024.538 C 2418.892 2023.521 2420.927 2021.24 2419.909 2020.222 C 2418.766 2019.079 2408.739 2020.222 2406.962 2020.222 C 2392.577 2020.222 2378.191 2020.222 2363.805 2020.222 C 2355.786 2020.222 2345.527 2018.318 2337.911 2020.222 C 2334.791 2021.002 2332.401 2023.757 2329.28 2024.538 C 2326.489 2025.236 2323.44 2023.84 2320.648 2024.538 C 2317.527 2025.318 2315.068 2027.837 2312.018 2028.854 C 2286.498 2037.361 2261.277 2048.296 2238.651 2063.378 C 2232.675 2067.362 2227.364 2068.026 2221.388 2072.01 C 2215.511 2075.928 2210.002 2081.039 2204.125 2084.958 C 2201.449 2086.742 2197.768 2086.999 2195.493 2089.272 C 2193.22 2091.547 2193.452 2095.63 2191.179 2097.904 C 2185.92 2103.163 2174.858 2105.593 2169.6 2110.852 C 2167.326 2113.126 2167.069 2116.806 2165.285 2119.482 C 2158.676 2129.396 2162.818 2117.634 2152.337 2128.114 C 2150.063 2130.389 2150.296 2134.471 2148.021 2136.745 C 2145.747 2139.02 2141.664 2138.786 2139.39 2141.061 C 2137.116 2143.336 2137.004 2147.119 2135.075 2149.692 C 2125.518 2162.435 2109.379 2170.974 2100.549 2184.218 C 2098.765 2186.894 2098.508 2190.575 2096.234 2192.849 C 2093.959 2195.124 2089.877 2194.891 2087.602 2197.165 C 2085.327 2199.44 2085.216 2203.223 2083.286 2205.797 C 2078.404 2212.306 2070.21 2216.081 2066.024 2223.059 C 2063.683 2226.96 2064.049 2232.105 2061.708 2236.006 C 2059.614 2239.495 2055.518 2241.382 2053.076 2244.637 C 2044.468 2256.115 2035.828 2267.635 2027.183 2279.163 C 2018.461 2290.791 2014.259 2306.465 2005.604 2318.004 C 2003.163 2321.259 1999.414 2323.38 1996.973 2326.635 C 1988.5 2337.932 1985.849 2353.199 1979.711 2365.476 C 1978.8 2367.297 1976.523 2368.099 1975.395 2369.792 C 1970.135 2377.681 1968.131 2388.108 1962.447 2395.686 C 1960.007 2398.941 1956.257 2401.062 1953.817 2404.317 C 1947.807 2412.329 1949.699 2421.183 1945.185 2430.212 C 1944.275 2432.031 1941.997 2432.835 1940.869 2434.527 C 1934.718 2443.755 1931.966 2454.628 1927.923 2464.737 C 1915.235 2496.455 1901.776 2527.943 1889.081 2559.682 C 1884.825 2570.323 1878.682 2585.056 1871.818 2594.207 C 1869.378 2597.462 1865.007 2599.199 1863.187 2602.838 C 1861.901 2605.411 1864.096 2608.741 1863.187 2611.47 C 1861.335 2617.027 1852.092 2623.175 1850.24 2628.732 C 1849.33 2631.461 1850.937 2634.572 1850.24 2637.364 C 1847.759 2647.288 1837.316 2654.581 1832.978 2663.257 C 1832.334 2664.544 1833.62 2666.287 1832.978 2667.574 C 1827.799 2677.931 1812.262 2683.11 1807.084 2693.468 C 1806.44 2694.754 1808.101 2696.766 1807.084 2697.784 C 1806.066 2698.801 1804.054 2697.14 1802.768 2697.784 C 1800.948 2698.694 1800.271 2701.189 1798.452 2702.099 C 1797.166 2702.742 1795.154 2701.082 1794.136 2702.099 C 1793.119 2703.116 1795.154 2705.398 1794.136 2706.415 C 1793.119 2707.432 1791.107 2705.771 1789.82 2706.415 C 1788.001 2707.324 1787.325 2709.82 1785.505 2710.729 C 1780.901 2713.032 1772.845 2708.427 1768.242 2710.729 C 1766.423 2711.64 1765.857 2714.403 1763.926 2715.046 C 1759.833 2716.41 1755.295 2715.046 1750.98 2715.046 C 1739.471 2715.046 1727.962 2715.046 1716.454 2715.046 C 1706.142 2715.046 1691.966 2717.054 1681.929 2715.046 C 1678.775 2714.415 1676.418 2711.51 1673.297 2710.729 C 1662.466 2708.022 1649.604 2713.437 1638.772 2710.729 C 1635.652 2709.949 1633.193 2707.432 1630.141 2706.415 C 1623.667 2704.257 1615.036 2708.573 1608.562 2706.415 C 1606.633 2705.771 1606.067 2703.008 1604.247 2702.099 C 1598.77 2699.36 1585.027 2702.099 1578.352 2702.099 C 1555.336 2702.099 1532.319 2702.099 1509.302 2702.099 C 1487.544 2702.099 1468.871 2704.068 1448.883 2710.729 C 1445.434 2711.879 1434.054 2708.296 1431.619 2710.729 C 1430.602 2711.747 1432.637 2714.028 1431.619 2715.046 C 1430.181 2716.484 1424.427 2713.607 1422.989 2715.046 C 1421.971 2716.063 1423.631 2718.075 1422.989 2719.362 C 1422.079 2721.182 1419.583 2721.858 1418.673 2723.677 C 1417.399 2726.224 1418.673 2733.723 1418.673 2736.625 C 1418.673 2745.255 1418.673 2753.887 1418.673 2762.519 C 1418.673 2774.258 1415.841 2790.034 1418.673 2801.359 C 1419.453 2804.48 1422.208 2806.87 1422.989 2809.991 C 1424.384 2815.573 1421.859 2821.611 1422.989 2827.254 C 1427.479 2849.703 1425.866 2831.57 1431.619 2848.832 C 1436.373 2863.094 1438.943 2877.929 1444.567 2891.988 C 1449.729 2904.894 1457.45 2917.691 1461.829 2930.83 C 1462.739 2933.559 1459.795 2937.427 1461.829 2939.461 C 1462.846 2940.478 1465.128 2938.444 1466.145 2939.461 C 1466.818 2940.134 1466.817 2956.051 1466.145 2956.724 C 1465.128 2957.741 1462.847 2955.707 1461.829 2956.724 C 1460.812 2957.741 1462.846 2960.022 1461.829 2961.039 C 1460.096 2962.772 1451.324 2960.225 1448.883 2961.039 C 1438.737 2964.421 1429.52 2967.501 1418.673 2969.671 C 1410.209 2971.364 1401.41 2969.671 1392.779 2969.671 C 1376.954 2969.671 1361.131 2969.671 1345.306 2969.671 C 1309.343 2969.671 1273.379 2969.671 1237.414 2969.671 C 1227.344 2969.671 1217.275 2969.671 1207.205 2969.671 C 1204.304 2969.671 1196.804 2968.398 1194.257 2969.671 C 1192.438 2970.58 1191.762 2973.077 1189.942 2973.987 C 1186.082 2975.916 1181.089 2972.621 1176.995 2973.987 C 1097.209 3000.582 1278.566 2949.671 1164.048 2978.302 C 1157.807 2979.863 1152.889 2984.899 1146.785 2986.933 C 1139.66 2989.308 1132.016 2991.025 1125.207 2995.564 C 1115.329 3002.149 1127.909 2998.98 1112.26 3004.197 C 1110.895 3004.651 1109.23 3003.553 1107.944 3004.197 C 1101.714 3007.311 1105.543 3009.712 1099.313 3012.827 C 1093.359 3015.804 1095.453 3007.601 1090.682 3017.143 C 1090.038 3018.43 1091.699 3020.442 1090.682 3021.459 C 1089.664 3022.476 1087.383 3020.441 1086.366 3021.459 C 1085.349 3022.476 1087.383 3024.757 1086.366 3025.775 C 1085.349 3026.792 1083.067 3024.757 1082.05 3025.775 C 1080.016 3027.809 1082.05 3031.529 1082.05 3034.405 C 1082.05 3044.475 1082.05 3054.546 1082.05 3064.615 C 1082.05 3070.865 1079.315 3085.039 1082.05 3090.509 C 1082.96 3092.329 1085.237 3093.133 1086.366 3094.825 C 1089.934 3100.179 1091.137 3106.941 1094.997 3112.088 C 1106.642 3127.615 1119.895 3141.302 1133.838 3155.244 C 1136.715 3158.121 1139.215 3161.434 1142.469 3163.876 C 1145.042 3165.806 1148.826 3165.917 1151.101 3168.192 C 1153.376 3170.467 1153.142 3174.549 1155.417 3176.823 C 1156.434 3177.841 1158.445 3176.18 1159.733 3176.823 C 1163.371 3178.642 1166.544 3181.814 1168.363 3185.453 C 1170.155 3189.038 1168.363 3198.626 1168.363 3202.717 C 1168.363 3204.494 1169.506 3214.522 1168.363 3215.664 C 1167.346 3216.681 1165.065 3214.646 1164.048 3215.664 C 1163.03 3216.681 1164.691 3218.693 1164.048 3219.98 C 1161.388 3225.3 1147.79 3238.898 1142.469 3241.558 C 1141.183 3242.201 1139.44 3240.915 1138.154 3241.558 C 1130.598 3245.336 1137.079 3246.412 1129.523 3250.189 C 1128.236 3250.833 1126.494 3249.546 1125.207 3250.189 C 1117.545 3254.02 1111.29 3259.306 1103.628 3263.137 C 1102.342 3263.78 1100.33 3262.12 1099.313 3263.137 C 1098.296 3264.154 1100.331 3266.435 1099.313 3267.453 C 1097.877 3268.889 1082.92 3267.162 1082.05 3267.453 C 1077.58 3268.942 1073.384 3273.943 1069.104 3276.083 C 1066.802 3277.235 1062.774 3274.933 1060.472 3276.083 C 1056.832 3277.903 1055.701 3283.428 1051.84 3284.715 C 1049.111 3285.625 1045.939 3283.805 1043.21 3284.715 C 1041.279 3285.359 1040.823 3288.387 1038.894 3289.031 C 1036.163 3289.941 1032.991 3288.121 1030.262 3289.031 C 1028.332 3289.673 1027.876 3292.702 1025.946 3293.346 C 1023.217 3294.255 1020.045 3292.436 1017.315 3293.346 C 1011.758 3295.199 1005.61 3304.44 1000.052 3306.293 C 997.323 3307.203 994.212 3305.595 991.421 3306.293 C 985.411 3307.796 974.942 3315.841 969.843 3319.24 C 968.15 3320.369 967.457 3322.913 965.527 3323.556 C 962.798 3324.465 959.626 3322.646 956.895 3323.556 C 951.783 3325.26 948.802 3334.077 943.949 3336.503 C 942.662 3337.147 940.919 3335.86 939.633 3336.503 C 932.728 3339.955 929.276 3350.313 922.371 3353.766 C 921.083 3354.409 919.072 3352.749 918.055 3353.766 C 917.038 3354.783 919.072 3357.065 918.055 3358.082 C 917.038 3359.099 914.756 3357.065 913.739 3358.082 C 912.722 3359.099 914.382 3361.11 913.739 3362.397 C 912.829 3364.217 910.333 3364.893 909.423 3366.712 C 908.137 3369.286 909.423 3372.467 909.423 3375.344 C 909.423 3383.975 909.423 3392.606 909.423 3401.238 C 909.423 3412.747 909.423 3424.254 909.423 3435.763 C 909.423 3437.54 908.281 3447.568 909.423 3448.71 C 910.44 3449.727 912.722 3447.693 913.739 3448.71 C 914.756 3449.727 913.095 3451.739 913.739 3453.026 C 913.74 3453.029 922.369 3461.654 922.371 3461.657 C 924.155 3464.334 924.412 3468.014 926.686 3470.289 C 928.96 3472.564 932.641 3472.821 935.317 3474.605 C 941.254 3478.562 939.756 3481.263 943.949 3487.551 C 948.428 3494.27 954.869 3496.27 961.211 3500.499 C 971.126 3507.109 959.36 3502.963 969.843 3513.445 C 969.846 3513.448 987.101 3522.074 987.105 3522.077 C 1061.848 3578.13 941.629 3493.194 1004.368 3535.024 C 1018.558 3544.485 1029.053 3560.112 1043.21 3569.549 C 1052.66 3575.85 1064.351 3580.011 1073.418 3586.812 C 1080.874 3592.404 1087.271 3598.924 1094.997 3604.074 C 1100.35 3607.643 1106.907 3609.138 1112.26 3612.706 C 1115.645 3614.964 1117.252 3619.518 1120.891 3621.338 C 1122.178 3621.981 1124.19 3620.321 1125.207 3621.338 C 1127.482 3623.612 1127.248 3627.695 1129.523 3629.968 C 1130.54 3630.986 1132.551 3629.326 1133.838 3629.968 C 1139.017 3632.558 1141.606 3640.326 1146.785 3642.916 C 1148.072 3643.559 1150.084 3641.899 1151.101 3642.916 C 1152.118 3643.933 1150.457 3645.945 1151.101 3647.232 C 1152.92 3650.871 1157.475 3652.478 1159.733 3655.862 C 1193.424 3706.401 1151.198 3643.111 1164.048 3668.81 C 1165.868 3672.449 1170.423 3674.056 1172.679 3677.441 C 1172.68 3677.443 1181.31 3694.702 1181.311 3694.704 C 1182.008 3697.495 1180.613 3700.544 1181.311 3703.335 C 1184.954 3717.906 1189.508 3732.243 1194.257 3746.491 C 1195.275 3749.543 1197.793 3752.002 1198.573 3755.123 C 1199.969 3760.706 1197.178 3766.804 1198.573 3772.385 C 1199.353 3775.506 1202.109 3777.896 1202.889 3781.017 C 1204.285 3786.6 1202.889 3792.526 1202.889 3798.28 C 1202.889 3815.543 1202.889 3832.805 1202.889 3850.068 C 1202.889 3867.331 1202.889 3884.594 1202.889 3901.856 C 1202.889 3910.488 1204.582 3919.287 1202.889 3927.75 C 1202.258 3930.904 1199.353 3933.261 1198.573 3936.382 C 1196.829 3943.359 1199.984 3950.907 1198.573 3957.96 C 1197.943 3961.114 1195.038 3963.47 1194.257 3966.591 C 1193.56 3969.383 1194.956 3972.432 1194.257 3975.223 C 1192.036 3984.106 1187.848 3992.233 1185.627 4001.117 C 1184.928 4003.908 1186.536 4007.018 1185.627 4009.747 C 1184.983 4011.678 1181.954 4012.134 1181.311 4014.064 C 1180.401 4016.793 1182.221 4019.966 1181.311 4022.695 C 1180.667 4024.625 1177.905 4025.191 1176.995 4027.011 C 1148.958 4083.086 1180.036 4022.203 1172.679 4044.273 C 1168.662 4056.324 1160.138 4066.994 1155.417 4078.799 C 1141.821 4112.789 1122.48 4142.326 1103.628 4173.744 C 1097.888 4183.311 1096.873 4194.667 1090.682 4203.954 C 1086.11 4210.811 1082.37 4218.579 1077.734 4225.532 C 1076.606 4227.224 1074.062 4227.917 1073.418 4229.848 C 1072.509 4232.577 1074.117 4235.688 1073.418 4238.479 C 1070.399 4250.557 1058.594 4260.815 1056.156 4273.005 C 1055.31 4277.236 1057.002 4281.719 1056.156 4285.951 C 1053.49 4299.283 1041.521 4311.655 1038.894 4324.793 C 1038.047 4329.025 1039.74 4333.507 1038.894 4337.739 C 1038.262 4340.894 1035.358 4343.25 1034.578 4346.371 C 1033.88 4349.162 1035.141 4352.181 1034.578 4355.002 C 1030.087 4377.455 1031.701 4359.316 1025.946 4376.58 C 1024.22 4381.759 1027.672 4388.664 1025.946 4393.843 C 1024.929 4396.894 1022.648 4399.423 1021.63 4402.474 C 1020.524 4405.794 1020.093 4420.978 1021.63 4424.052 C 1022.541 4425.872 1025.036 4426.549 1025.946 4428.368 C 1046.32 4469.118 979.744 4357.117 1030.262 4441.316 C 1037.918 4454.075 1047.035 4464.439 1056.156 4475.841 C 1059.396 4479.891 1061.12 4485.12 1064.788 4488.788 C 1068.455 4492.455 1073.685 4494.179 1077.734 4497.419 C 1085.629 4503.734 1091.419 4512.682 1099.313 4518.997 C 1105.288 4523.778 1114.916 4527.164 1120.891 4531.944 C 1127.943 4537.585 1135.418 4543.566 1142.469 4549.207 C 1145.647 4551.749 1147.612 4555.745 1151.101 4557.839 C 1155.002 4560.179 1160.147 4559.814 1164.048 4562.155 C 1167.537 4564.247 1169.19 4568.692 1172.679 4570.785 C 1176.58 4573.126 1181.726 4572.761 1185.627 4575.101 C 1189.116 4577.195 1190.873 4581.475 1194.257 4583.733 C 1197.259 4585.734 1203.86 4586.376 1207.205 4588.048 C 1212.232 4590.561 1215.124 4594.166 1220.152 4596.68 C 1222.699 4597.954 1230.198 4596.68 1233.099 4596.68 C 1244.608 4596.68 1256.115 4596.68 1267.624 4596.68 C 1270.501 4596.68 1273.682 4595.393 1276.256 4596.68 C 1278.075 4597.589 1278.537 4600.995 1280.571 4600.995"/>
    <line style="fill: rgb(216, 216, 216); stroke: rgb(0, 0, 0); stroke-linecap: round; stroke-linejoin: round; stroke-width: 12px; vector-effect: non-scaling-stroke; paint-order: stroke; fill-rule: evenodd;" x1="2616.188" y1="4301.127" x2="3163.432" y2="4646.833"/>
    <path style="stroke: rgb(0, 0, 0); stroke-linecap: round; stroke-linejoin: round; vector-effect: non-scaling-stroke; stroke-width: 12px; fill: none; fill-rule: evenodd; paint-order: stroke;" d="M 3815.953 3381.197 C 3794.467 3399.104 3818.675 3378.444 3796.974 3398.596 C 3784.485 3410.192 3785.463 3407.638 3774.83 3419.158 C 3771.533 3422.73 3768.637 3426.659 3765.34 3430.23 C 3756.207 3440.123 3746.571 3449.456 3738.451 3460.282 C 3723.678 3479.979 3740.336 3460.233 3725.798 3477.68 C 3719.744 3484.945 3730.636 3471.261 3721.053 3480.844 C 3719.708 3482.188 3718.994 3484.042 3717.889 3485.588 C 3709.656 3497.115 3716.417 3486.459 3708.399 3499.824 C 3703.404 3508.149 3698.192 3516.269 3694.164 3525.131 C 3685.916 3543.276 3695.426 3522.926 3689.419 3540.947 C 3688.673 3543.185 3686.904 3545.007 3686.256 3547.274 C 3685.821 3548.795 3686.48 3550.453 3686.256 3552.02 C 3685.484 3557.421 3682.805 3565.393 3684.674 3570.999 C 3685.792 3574.355 3687.982 3577.257 3689.419 3580.489 C 3693.512 3589.701 3691.653 3589.019 3698.909 3597.888 C 3701.27 3600.773 3704.456 3602.911 3706.817 3605.796 C 3709.225 3608.739 3710.71 3612.366 3713.144 3615.286 C 3716.009 3618.724 3719.47 3621.613 3722.635 3624.776 C 3732.469 3634.612 3742.12 3644.19 3752.687 3653.247 C 3752.688 3653.249 3774.828 3672.226 3774.83 3672.227 C 3778.288 3674.698 3782.407 3676.134 3785.901 3678.554 C 3789.287 3680.897 3791.885 3684.305 3795.392 3686.462 C 3798.811 3688.567 3802.928 3689.303 3806.463 3691.207 C 3822.504 3699.845 3809.197 3695.51 3825.443 3702.279 C 3825.449 3702.281 3844.419 3708.604 3844.424 3708.606 C 3847.092 3709.576 3849.613 3710.954 3852.332 3711.769 C 3857.483 3713.314 3863.048 3713.232 3868.149 3714.932 C 3870.386 3715.678 3872.188 3717.524 3874.476 3718.096 C 3877.033 3718.735 3880.026 3716.917 3882.384 3718.096 C 3883.051 3718.43 3883.258 3719.442 3883.966 3719.677 C 3884.966 3720.011 3886.095 3719.471 3887.129 3719.677 C 3890.893 3720.43 3894.477 3721.91 3898.201 3722.841 C 3904.989 3724.539 3912.034 3725.751 3918.763 3727.586 C 3951.253 3736.447 3907.866 3725.424 3936.162 3733.913 C 3938.736 3734.685 3941.519 3734.645 3944.07 3735.495 C 3952.925 3738.447 3960.631 3744.868 3969.376 3748.148 C 3971.412 3748.911 3973.705 3748.873 3975.704 3749.73 C 3980.365 3751.727 3985.874 3756.171 3989.938 3759.219 C 3993.402 3761.818 3995.158 3765.483 3997.847 3768.71 C 3999.278 3770.428 4001.136 3771.756 4002.592 3773.455 C 4009.682 3781.727 4015.553 3791.316 4021.572 3800.344 C 4059.405 3857.093 3995.966 3762.539 4029.48 3816.16 C 4030.666 3818.057 4032.926 3819.085 4034.225 3820.905 C 4038.118 3826.355 4040.716 3833.886 4043.716 3839.886 C 4045.477 3843.407 4048.282 3847.435 4050.043 3850.957 C 4052.432 3855.735 4053.338 3861.703 4054.788 3866.774 C 4055.703 3869.981 4057.402 3872.975 4057.951 3876.265 C 4058.211 3877.825 4057.691 3879.449 4057.951 3881.009 C 4059.38 3889.581 4062.911 3898.909 4061.114 3907.897 C 4057.579 3925.573 4051.634 3942.677 4042.134 3958.512 C 4040.397 3961.407 4037.997 3963.851 4035.807 3966.42 C 4025.869 3978.087 4016.695 3990.483 4005.755 4001.217 C 3928.443 4077.071 3975.421 4028.829 3939.325 4058.158 C 3907.973 4083.632 3878.813 4111.966 3846.005 4135.66 C 3825.782 4150.265 3805.381 4164.963 3784.319 4178.365 C 3778.141 4182.298 3771.475 4185.437 3765.34 4189.438 C 3712.809 4223.697 3784.639 4179.946 3728.961 4214.744 C 3722.75 4218.626 3716.192 4221.934 3709.98 4225.815 C 3685.153 4241.333 3696.322 4235.492 3672.02 4252.704 C 3665.815 4257.1 3659.282 4261.015 3653.041 4265.358 C 3630.411 4281.1 3608.638 4297.869 3586.61 4314.39 C 3555.543 4337.69 3524.048 4360.324 3493.29 4383.984 C 3477.854 4395.858 3489.502 4387.551 3475.892 4399.801 C 3469.211 4405.814 3462.138 4411.364 3455.33 4417.2 C 3448.158 4423.346 3452.745 4420.035 3447.422 4426.689 C 3445.559 4429.018 3442.884 4430.631 3441.095 4433.016 C 3441.092 4433.021 3437.935 4439.339 3437.932 4439.343 C 3437.518 4439.963 3436.683 4440.258 3436.35 4440.925 C 3436.114 4441.397 3436.723 4442.133 3436.35 4442.507 C 3435.977 4442.879 3435.24 4442.271 3434.769 4442.507 C 3432.832 4443.474 3432.761 4445.71 3431.604 4447.252 C 3428.16 4451.845 3423.017 4455.84 3418.951 4459.905 C 3413.282 4465.575 3408.386 4474.14 3399.97 4474.14"/>
    <line style="fill: rgb(216, 216, 216); stroke: rgb(0, 0, 0); vector-effect: non-scaling-stroke; stroke-width: 12px; stroke-linecap: round; stroke-linejoin: round; paint-order: stroke; fill-rule: evenodd;" x1="1587.3" y1="4923.078" x2="2440.381" y2="4417.764"/>
  </g>
</svg>