<svg xmlns="http://www.w3.org/2000/svg" width="192" height="192" fill="none" viewBox="0 0 192 192"><path stroke="#000" stroke-linecap="round" stroke-linejoin="round" stroke-width="12" d="M22 65.5 36 53l3.5-1m0 0 2 45m-2-45h17m-15 45h14m-14 0-11 31.5m26-76.5L72 46m-15.5 6-1 45m0 0 11 31.5"/><path stroke="#000" stroke-linecap="round" stroke-linejoin="round" stroke-width="10" d="m73 46-4.5-23m-1 106.5-7 39h6m-37-39 9 39h-6M21 65.5l6 25"/><circle cx="48.5" cy="35.5" r="9" stroke="#000" stroke-width="8"/><path stroke="#000" stroke-linecap="round" stroke-linejoin="round" stroke-width="12" d="m73.5 95.5 18 31.5c8-11 17.836-23.628 48-16.5 0 0-2-12 5-19.5s26-8.49 26-20.5c0-8.45-5.909-8-8-14.5s7.5-18 7.5-18c-7.855 5.94-34.327 19.475-58.082 16.099C98 52.12 89 49 89 49"/></svg>