<svg width="192" height="192" viewBox="0 0 192 192" fill="none" xmlns="http://www.w3.org/2000/svg">
<mask id="path-1-inside-1_602_397" fill="white">
<path d="M142 167H49C42.3726 167 37 161.627 37 155V65.115C37 61.9306 38.2657 58.8768 40.5184 56.6261L68.6577 28.5111C70.9078 26.2629 73.9585 25 77.1393 25H142C148.627 25 154 30.3726 154 37V155C154 161.627 148.627 167 142 167Z"/>
</mask>
<path d="M44 73H67V61H44V73ZM85 55V32H73V55H85ZM67 73C76.9411 73 85 64.9411 85 55H73C73 58.3137 70.3137 61 67 61V73ZM68.6577 28.5111L77.1393 37L77.1393 37L68.6577 28.5111ZM40.5184 56.6261L49 65.115L49 65.115L40.5184 56.6261ZM49 179H142V155H49V179ZM166 155V37H142V155H166ZM142 13H77.1393V37H142V13ZM60.1761 20.0221L32.0368 48.1371L49 65.115L77.1393 37L60.1761 20.0221ZM25 65.115V155H49V65.115H25ZM32.0368 48.1371C27.5314 52.6386 25 58.7462 25 65.115H49L49 65.115L32.0368 48.1371ZM77.1393 13C70.7777 13 64.6764 15.5257 60.1761 20.0221L77.1393 37L77.1393 37V13ZM166 37C166 23.7452 155.255 13 142 13V37V37H166ZM142 179C155.255 179 166 168.255 166 155H142V179ZM49 155H25C25 168.255 35.7452 179 49 179V155Z" fill="black" mask="url(#path-1-inside-1_602_397)"/>
<path d="M123.076 90.9556V55.7483C123.076 54.7241 121.719 54.3621 121.209 55.2502L93.8606 102.857C93.4776 103.524 93.9589 104.356 94.7277 104.356H122.076C122.628 104.356 123.076 104.803 123.076 105.356V141.222C123.076 142.249 124.437 142.609 124.945 141.717L146.869 103.208C146.955 103.057 147 102.887 147 102.713V92.9556C147 92.4033 146.552 91.9556 146 91.9556H124.076C123.524 91.9556 123.076 91.5078 123.076 90.9556Z" stroke="black" stroke-width="10"/>
</svg>
