<svg xmlns="http://www.w3.org/2000/svg" width="192" height="192" fill="none"><path stroke="#000" stroke-linecap="round" stroke-linejoin="round" stroke-width="12" d="M25 51c0-14.36 11.64-26 26-26h90c14.359 0 26 11.64 26 26v59.515a6 6 0 0 1-1.757 4.242l-50.486 50.486a6 6 0 0 1-4.242 1.757H51c-14.36 0-26-11.641-26-26z"/><path stroke="#000" stroke-linecap="round" stroke-linejoin="round" stroke-width="12" d="M131 102c0 4.202-.905 8.363-2.664 12.246-1.759 3.882-4.337 7.41-7.587 10.381s-7.109 5.329-11.355 6.937A37.9 37.9 0 0 1 96 134a37.9 37.9 0 0 1-13.394-2.436c-4.246-1.608-8.105-3.965-11.355-6.937-3.25-2.971-5.828-6.499-7.587-10.381A29.6 29.6 0 0 1 61 102z"/><circle cx="70" cy="70" r="6" stroke="#000" stroke-linecap="round" stroke-linejoin="round" stroke-width="12"/><circle cx="122" cy="70" r="6" stroke="#000" stroke-linecap="round" stroke-linejoin="round" stroke-width="12"/></svg>