<svg xmlns="http://www.w3.org/2000/svg" width="192" height="192" fill="none" stroke="#000" stroke-linecap="round" stroke-linejoin="round" stroke-width="12" viewBox="0 0 192 192"><path d="M48 110v20m96-20v20"/><path stroke-width="10" d="M114 120a18 18 0 1 1-36 0z"/><path d="M72 60H28a6 6 0 0 0-6 6v86a6 6 0 0 0 6 6h136a6 6 0 0 0 6-6V66a6 6 0 0 0-6-6h-33"/><path d="M72 91.74V28.26c0-4.802 5.36-7.659 9.346-4.98l47.241 31.74c3.539 2.377 3.539 7.583 0 9.96l-47.24 31.74C77.36 99.4 72 96.543 72 91.74"/></svg>