<?xml version="1.0" encoding="UTF-8" standalone="no"?>
<!-- Created with Inkscape (http://www.inkscape.org/) -->

<svg
   version="1.1"
   id="svg2"
   width="192"
   height="192"
   viewBox="0 0 192 192"
   sodipodi:docname="watchbudy.png"
   inkscape:version="0.0"
   xmlns:inkscape="http://www.inkscape.org/namespaces/inkscape"
   xmlns:sodipodi="http://sodipodi.sourceforge.net/DTD/sodipodi-0.dtd"
   xmlns="http://www.w3.org/2000/svg"
   xmlns:svg="http://www.w3.org/2000/svg">
  <defs
     id="defs6" />
  <sodipodi:namedview
     id="namedview4"
     pagecolor="#ffffff"
     bordercolor="#000000"
     borderopacity="0.25"
     inkscape:showpageshadow="2"
     inkscape:pageopacity="0.0"
     inkscape:pagecheckerboard="0"
     inkscape:deskcolor="#d1d1d1"
     showgrid="false"
     inkscape:zoom="6.9532167"
     inkscape:cx="106.35365"
     inkscape:cy="113.47266"
     inkscape:window-width="2560"
     inkscape:window-height="1371"
     inkscape:window-x="0"
     inkscape:window-y="0"
     inkscape:window-maximized="1"
     inkscape:current-layer="g8" />
  <g
     inkscape:groupmode="layer"
     inkscape:label="Image"
     id="g8">
    <path
       style="fill:#000000;fill-opacity:0;stroke:#000000;stroke-width:8;stroke-linecap:round;stroke-linejoin:round;stroke-miterlimit:6;stroke-dasharray:none;paint-order:stroke fill markers"
       d="m 144.05449,112.508 h 6.2101 c 0,0 6.0443,0.13932 6.0443,8.27067 v 16.5584 c 0,0 0.0182,8.72728 -6.39829,8.88509 l -5.19678,0.12781 c 0,0 -7.14653,-0.35899 -7.14653,-8.77489 v -18.07617 c 0,0 -0.0416,-6.99091 6.4872,-6.99091 z"
       id="path1010-3"
       sodipodi:nodetypes="ccccscscc" />
    <path
       style="fill:#000000;fill-opacity:0;stroke:#000000;stroke-width:12;stroke-linecap:round;stroke-linejoin:round;stroke-miterlimit:6;stroke-dasharray:none;paint-order:stroke fill markers"
       d="m 62.716588,39.58768 -0.120223,75.93945 c 0,0 0.684261,13.8279 15.649794,9.75829 L 140.12119,85.625276 c 0,0 7.31731,-8.752132 -1.22134,-17.352581 L 82.657337,31.759693 c 0,0 -15.186879,-8.147083 -19.940749,7.827987 z"
       id="path302"
       sodipodi:nodetypes="ccccccc" />
    <path
       style="fill:#000000;fill-opacity:0;stroke:#000000;stroke-width:12;stroke-linecap:round;stroke-linejoin:round;stroke-miterlimit:6;stroke-dasharray:none;paint-order:stroke fill markers"
       d="m 61.683,67.21 -23.009353,-2.12e-4 c 0,0 -16.673647,0.09333 -16.673647,14.775648 v 63.495794 c 0,0 0.815992,15.99361 17.892732,15.99361 H 151.498 c 0,0 18.502,1.00844 18.502,-16.83854 V 81.892741 c 0,0 0.40674,-14.682741 -15.19193,-14.682741 h -16.19529"
       id="path1008"
       sodipodi:nodetypes="ccccscscsc" />
    <path
       style="fill:#000000;fill-opacity:0;stroke:#000000;stroke-width:8;stroke-linecap:round;stroke-linejoin:round;stroke-miterlimit:6;stroke-dasharray:none;paint-order:stroke fill markers"
       d="m 39.987605,112.50751 h 6.210101 c 0,0 6.044302,0.13932 6.044302,8.27067 v 16.5584 c 0,0 0.01817,8.72728 -6.398292,8.88509 l -5.19678,0.12781 c 0,0 -7.146535,-0.35899 -7.146535,-8.77489 v -18.07617 c 0,0 -0.04162,-6.99091 6.487204,-6.99091 z"
       id="path1010"
       sodipodi:nodetypes="ccccscscc" />
    <g
       id="g1015">
      <path
         style="fill:#000000;fill-opacity:0;stroke:#000000;stroke-width:8;stroke-linecap:round;stroke-linejoin:round;stroke-miterlimit:6;stroke-dasharray:none;paint-order:stroke fill markers"
         d="m 72.292138,136.99537 h 46.799722 c 0,0 0.70442,17.70087 -23.39986,17.64029 -24.564408,-0.0617 -23.399862,-17.64029 -23.399862,-17.64029 z"
         id="path1012"
         sodipodi:nodetypes="ccsc" />
    </g>
  </g>
</svg>
