<svg width="192" height="192" fill="none" xmlns="http://www.w3.org/2000/svg"><path d="M44 78a3 3 0 1 0-6 0h6Zm-6 60v3h6v-3h-6Zm3-60h-3v60h6V78h-3Zm26 0a3 3 0 1 0-6 0h6Zm-6 60v3h6v-3h-6Zm3-60h-3v60h6V78h-3Z" fill="#000"/><path d="M44 146h.028c.156 1.541 1.022 2.996 2.461 4.097 1.495 1.142 3.489 1.815 5.59 1.895l.421.008c2.254 0 4.417-.684 6.01-1.903 1.44-1.101 2.307-2.556 2.463-4.097H61v-6.5h6v6c0 3.914-2.042 7.219-4.845 9.362C59.387 156.979 55.901 158 52.5 158c-3.4 0-6.887-1.021-9.655-3.138C40.042 152.719 38 149.414 38 145.5v-6h6v6.5Z" fill="#000"/><path fill="#000" d="M44 127h17v25H44zm84.207-82.295a3 3 0 0 0 .731-5.956l-.366 2.978-.365 2.978ZM69.385 31.437l-2.978-.365-.73 5.955 2.977.366.365-2.978.366-2.978Zm59.187 10.29.366-2.977-59.553-7.313-.366 2.978-.365 2.978 59.553 7.312.365-2.978Zm-3.168 25.806a3 3 0 0 0 .731-5.955l-.366 2.978-.365 2.977ZM66.582 54.266l-2.977-.366-.732 5.956 2.978.365.365-2.977.366-2.978Zm59.187 10.29.366-2.978-59.553-7.312-.365 2.978-.366 2.977 59.553 7.312.365-2.977Z"/><path d="m60.714 36.418-.004.028c-1.548-.034-3.098.649-4.366 1.943-1.316 1.344-2.227 3.241-2.563 5.316l-.059.418c-.274 2.238.142 4.467 1.157 6.198.917 1.563 2.256 2.6 3.766 2.943l-.003.027 6.451.792-.73 5.955-5.956-.73c-3.885-.478-6.916-2.907-8.702-5.95-1.764-3.006-2.352-6.59-1.938-9.966.415-3.375 1.852-6.711 4.291-9.201 2.47-2.52 5.998-4.145 9.883-3.668l5.955.732-.73 5.955-6.452-.792ZM89 78a3 3 0 1 0-6 0h6Zm-6 60v3h6v-3h-6Zm3-60h-3v60h6V78h-3Zm26 0a3 3 0 1 0-6 0h6Zm-6 60v3h6v-3h-6Zm3-60h-3v60h6V78h-3Z" fill="#000"/><path d="M89 146h.028c.156 1.541 1.022 2.996 2.461 4.097 1.495 1.142 3.489 1.815 5.59 1.895l.421.008c2.254 0 4.417-.684 6.011-1.903 1.439-1.101 2.306-2.556 2.462-4.097H106v-6.5h6v6c0 3.914-2.042 7.219-4.845 9.362-2.768 2.117-6.254 3.138-9.655 3.138-3.4 0-6.887-1.021-9.655-3.138C85.042 152.719 83 149.414 83 145.5v-6h6v6.5Z" fill="#000"/><path fill="#000" d="M89 108h17v44H89zm44-30a3 3 0 1 0-6 0h6Zm-6 60v3h6v-3h-6Zm3-60h-3v60h6V78h-3Zm26 0a3 3 0 1 0-6 0h6Zm-6 60v3h6v-3h-6Zm3-60h-3v60h6V78h-3Z"/><path d="M133 146h.028c.156 1.541 1.022 2.996 2.461 4.097 1.495 1.142 3.489 1.815 5.589 1.895l.422.008c2.254 0 4.417-.684 6.011-1.903 1.439-1.101 2.306-2.556 2.462-4.097H150v-6.5h6v6c0 3.914-2.042 7.219-4.845 9.362-2.768 2.117-6.254 3.138-9.655 3.138s-6.887-1.021-9.655-3.138c-2.803-2.143-4.845-5.448-4.845-9.362v-6h6v6.5Z" fill="#000"/><path fill="#000" d="M133 138h17v14h-17z"/><rect x="137" y="67" width="6" height="76" rx="3" fill="#000"/><path d="M80 59s44.5-4 52.5.5S140 70 140 70" stroke="#000" stroke-width="6" stroke-linecap="round"/><path d="M127 59.5V63l-16.5-3.5H127Z" fill="#000"/></svg>