<?xml version="1.0" encoding="UTF-8" standalone="no"?>
<svg
   width="192"
   height="192"
   viewBox="0 0 50.799999 50.8"
   version="1.1"
   id="svg1"
   xmlns="http://www.w3.org/2000/svg"
   xmlns:svg="http://www.w3.org/2000/svg">
  <defs
     id="defs1" />
  <g
     id="layer1"
     style="fill:none;stroke:#000000;stroke-width:3.175;stroke-linecap:round;stroke-linejoin:round;stroke-dasharray:none;stroke-opacity:1"
     transform="translate(0,-0.26460872)">
    <path
       style="fill:none;stroke:#000000;stroke-width:3.175;stroke-linecap:round;stroke-linejoin:round;stroke-dasharray:none;stroke-opacity:1"
       d="m 34.607706,31.26981 3.316607,-7.410135 c 0.825062,-1.866014 3.003146,-2.708586 4.865361,-1.882594 v 0 c 1.862204,0.826742 2.702305,3.009276 1.878004,4.87529 l -3.692716,8.354939"
       id="path2" />
    <path
       style="clip-rule:evenodd;fill:none;fill-rule:evenodd;stroke:#000000;stroke-width:3.175;stroke-linecap:round;stroke-linejoin:round;stroke-dasharray:none;stroke-opacity:1"
       d="m 29.902917,24.487376 7.056454,11.017523 c 0.424181,0.605171 1.125142,1.000832 1.918614,1.000832 0.917562,0 1.711783,-0.528301 2.096864,-1.298512 l -2.580465,5.08329 c -0.290321,0.669232 -1.080772,1.600734 -1.950964,1.896914 -1.716293,0.742333 -3.749227,0.0754 -4.678829,-1.596213 L 25.246559,29.719857"
       id="path4" />
    <path
       style="fill:none;stroke:#000000;stroke-width:3.175;stroke-linecap:round;stroke-linejoin:round;stroke-dasharray:none;stroke-opacity:1"
       d="M 16.189789,31.438771 12.875682,23.857405 C 12.050621,21.991401 9.8725345,21.148829 8.0103207,21.974821 v 0 c -1.8622038,0.826742 -2.7023054,3.009276 -1.8779938,4.87529 l 3.7175813,8.405353"
       id="path6" />
    <path
       style="clip-rule:evenodd;fill:none;fill-rule:evenodd;stroke:#000000;stroke-width:3.17499;stroke-linecap:round;stroke-linejoin:round;stroke-dasharray:none;stroke-opacity:1"
       d="m 34.345386,9.1639851 c 0.876216,0 1.585897,0.7119039 1.585897,1.5892779 0,0.877371 -0.710392,1.589286 -1.585897,1.589286 -0.876243,0 -1.585922,-0.711915 -1.585922,-1.589286 0,-0.877374 0.710403,-1.5892779 1.585922,-1.5892779 z"
       id="path8" />
    <path
       style="clip-rule:evenodd;fill:none;fill-rule:evenodd;stroke:#000000;stroke-width:3.175;stroke-linecap:round;stroke-linejoin:round;stroke-dasharray:none;stroke-opacity:1"
       d="M 17.339131,18.70728 C 16.76092,18.4967 15.350567,13.248629 19.145045,9.8812017 24.606748,5.035781 30.370238,12.075776 22.599634,15.101973 17.429961,17.114237 17.917332,18.917871 17.339131,18.70728 Z"
       id="path14" />
    <path
       style="clip-rule:evenodd;fill:none;fill-rule:evenodd;stroke:#000000;stroke-width:3.175;stroke-linecap:round;stroke-linejoin:round;stroke-dasharray:none;stroke-opacity:1"
       d="m 23.418665,32.204713 c -1.410193,2.599305 -4.37198,8.436247 -4.37198,8.436247 -0.793462,1.428143 -2.391685,2.122246 -3.910938,1.832845 0,8e-4 0,0.002 7.7e-4,0.003 -1.154473,-0.21554 -2.187115,-0.978973 -2.698546,-2.136575 L 9.8499644,35.255429 c 0.3835826,0.772482 1.1853236,1.299273 2.1043856,1.299273 0.921332,0 1.717804,-0.532071 2.100625,-1.307563 0.003,-0.007 0.007,-0.008 0.0113,-0.005 1.623033,-2.834446 4.160628,-7.262075 5.28503,-9.187619 3.476219,-5.956773 10.731003,-7.377376 12.558606,-4.38166 1.048432,1.719804 -3.500277,1.332433 -8.491236,10.531353 z"
       id="path15" />
  </g>
</svg>
