<svg xmlns="http://www.w3.org/2000/svg" width="192" height="192" fill="none"><path stroke="#000" stroke-linecap="round" stroke-linejoin="round" stroke-width="12" d="M80 37a6 6 0 0 1 6-6h20a6 6 0 0 1 6 6v118a6 6 0 0 1-6 6H86a6 6 0 0 1-6-6zm58 0a6 6 0 0 1 6-6h20a6 6 0 0 1 6 6v118a6 6 0 0 1-6 6h-20a6 6 0 0 1-6-6zM22 37a6 6 0 0 1 6-6h20a6 6 0 0 1 6 6v118a6 6 0 0 1-6 6H28a6 6 0 0 1-6-6z"/><path stroke="#000" stroke-linecap="round" stroke-linejoin="round" stroke-width="12" d="M80 68s8-2.144 16 0 16 0 16 0m26 31.953s8-4.144 16 0c8 4.143 16 0 16 0M22 70s8-4.144 16-2 16-4 16-4m26 32.953c4 0 6 8 14 8s14-8 18-8m-90 0c4 0 6 6 14 6s10-6 18-6M80 129c4 0 6 8 14 8s14-8 18-8m26 0c4 0 7 8 15 8s13-8 17-8m-148 0c4 0 6 8 14 8s10-8 18-8"/></svg>