<svg xmlns="http://www.w3.org/2000/svg" width="192" height="192" fill="none" viewBox="0 0 192 192"><path stroke="#000" stroke-linejoin="round" stroke-width="12" d="M117.719 142.683c3.201-.637 4.615-1.348 8.448-4.516C130 135 136.326 117.405 146 100c10.03-18.045 21.181-34.672 23.005-37.37a3.34 3.34 0 0 0 .414-.825c.26-.781.734-2.41.541-3.378-.26-1.309-1.053-2.478-2.112-3.29a5.498 5.498 0 0 0-3.708-1.125c-1.161.076-2.982 1.236-3.428 1.531a9.42 9.42 0 0 1-.194.125c-1.197.752-13.933 9.058-34.815 34.814-2.34 2.886-7.092 1.414-7.296-2.296L117 62.5a12.496 12.496 0 0 0-7.716-11.548 12.503 12.503 0 0 0-13.487 2.575 5.609 5.609 0 0 1-.272.249c-1.452 1.24-14.489 12.71-36.112 42.692C57.115 99.654 52 98.049 52 94.121V67a12 12 0 0 0-22.31-6.14c-.055.093-.113.184-.17.276C28.674 62.491 22 74.219 22 107c0 33.56 12.067 45.858 13.06 46.813l.02.019.117.113a17.498 17.498 0 0 0 22.025 2.106c1.928-1.288 4.579-4.679 5.266-5.579.113-.149.212-.305.302-.469l26.455-48.595c1.928-3.542 7.293-2.328 7.507 1.7l1.238 23.201c.007.127.019.251.04.377.174 1.077 1.12 6.541 2.751 8.981a16.503 16.503 0 0 0 16.938 7.016z"/></svg>