<svg width="192" height="192" viewBox="0 0 192 192" fill="none" xmlns="http://www.w3.org/2000/svg"><path d="M104.282 126.91a32.004 32.004 0 0 0 23.444-35.087A31.998 31.998 0 0 0 96 64a32 32 0 0 0-8.282 62.91m.001 0 8.28 16.09 8.28-16.09m61.035 15.776a16.004 16.004 0 0 1 0 22.628 16.004 16.004 0 0 1-22.628 0" stroke="#000" stroke-width="12" stroke-linecap="round" stroke-linejoin="round"/><path d="m165.31 142.69-7.055-6.669C165.687 124.483 170 110.745 170 96c0-40.87-33.131-74-74-74-40.87 0-74 33.13-74 74 0 40.869 33.13 74 74 74 14.586 0 28.186-4.22 39.646-11.505l7.044 6.815" stroke="#000" stroke-width="12" stroke-linecap="round" stroke-linejoin="round"/></svg>