<svg width="192" height="192" viewBox="0 0 192 192" fill="none" xmlns="http://www.w3.org/2000/svg">
<path d="M152.654 130H109.491C104.01 130 101.398 123.257 105.449 119.565L159.149 70.6241C163.464 66.6911 170.285 70.6134 169.056 76.3214L158.52 125.263C157.925 128.027 155.481 130 152.654 130Z" stroke="black" stroke-width="8" stroke-linecap="round"/>
<path d="M31 125.5L27.9269 75.5616C27.5934 70.1436 34.0533 67.1031 38.0161 70.8129L47.3878 79.5864C49.2513 81.331 49.807 84.0638 48.7727 86.3976L31 126.5M115.934 69.0251L100.544 48.1846C97.8294 44.5086 92.1658 45.0955 90.2626 49.25L57.3933 121.001C55.5728 124.975 58.4768 129.5 62.8482 129.5H75.3806C77.3359 129.5 79.1687 128.547 80.2919 126.947L116.019 76.0359C117.501 73.9239 117.467 71.1007 115.934 69.0251Z" stroke="black" stroke-width="8" stroke-linecap="round"/>
<rect x="29" y="145" width="135" height="12" rx="6" stroke="black" stroke-width="8"/>
</svg>
