<svg width="192" height="192" viewBox="0 0 50.8 50.8" xml:space="preserve" xmlns="http://www.w3.org/2000/svg"><g style="display:inline;stroke:#000;stroke-width:1.04464;stroke-opacity:1" transform="matrix(.95638 0 0 .95815 1.108 1.063)"><circle style="fill:none;fill-opacity:1;stroke:#000;stroke-width:3.31672;stroke-linecap:round;stroke-linejoin:round;stroke-opacity:1;paint-order:stroke fill markers" r="13.891" cy="25.4" cx="25.4"/><path style="fill:none;stroke:#000;stroke-width:3.31672;stroke-linecap:round;stroke-linejoin:round;stroke-dasharray:none;stroke-opacity:1" d="M25.4 4.96h-7.673s-.106 3.31-.397 5.826c-.299 2.587-1.515 4.56-1.515 4.56M25.4 4.96h7.673s.106 3.309.397 5.825c.299 2.587 1.515 4.56 1.515 4.56M25.4 45.84h-7.673s-.106-3.31-.397-5.826c-.299-2.587-1.515-4.56-1.515-4.56M25.4 45.84h7.673s.106-3.309.397-5.825c.299-2.587 1.515-4.56 1.515-4.56"/><path style="font-size:14.2607px;line-height:0;letter-spacing:0;stroke:#000;stroke-width:2.16409;stroke-dasharray:none;stroke-opacity:1;fill:none;stroke-linecap:round;stroke-linejoin:round" d="m10.045 12.927 2.119 6.48 2.118-6.075 2.118 6.076 2.119-6.481" transform="matrix(1.5315 0 0 1.53375 3.527 .604)"/></g></svg>