<svg xmlns="http://www.w3.org/2000/svg" width="192" height="192" fill="none"><path stroke="#000" stroke-linecap="round" stroke-linejoin="round" stroke-width="12" d="M50.368 46.85c1.445 1.76 3.087 6.009 3.087 6.009l36 82a16.001 16.001 0 0 1-20.598 19.292A16 16 0 0 1 60.144 147l-36-82s-1.844-4.165-2.067-6.432A16 16 0 0 1 50.368 46.85"/><path stroke="#000" stroke-linecap="round" stroke-linejoin="round" stroke-width="12" d="M84.368 46.85c1.445 1.76 3.087 6.009 3.087 6.009l36 82a16.004 16.004 0 0 1-9.332 18.923A15.996 15.996 0 0 1 94.143 147l-36-82s-1.843-4.165-2.066-6.432A16 16 0 0 1 84.368 46.85"/><circle cx="154" cy="57" r="16" stroke="#000" stroke-linecap="round" stroke-linejoin="round" stroke-width="12"/><circle cx="142" cy="87" r="16" stroke="#000" stroke-linecap="round" stroke-linejoin="round" stroke-width="12"/></svg>