<svg width="192" height="192" fill="none" xmlns="http://www.w3.org/2000/svg"><path d="M170 95V37c0-6.627-5.373-12-12-12H34c-6.627 0-12 5.373-12 12v58" stroke="#000" stroke-width="12" stroke-linecap="round" stroke-linejoin="round"/><path d="M22 85c0-6.627 5.373-12 12-12h124c6.627 0 12 5.373 12 12v70c0 6.627-5.373 12-12 12H34c-6.627 0-12-5.373-12-12V85Z" stroke="#000" stroke-width="12" stroke-linecap="round" stroke-linejoin="round"/><path d="M170 95V61c0-6.627-5.373-12-12-12H34c-6.627 0-12 5.373-12 12v34" stroke="#000" stroke-width="12" stroke-linecap="round" stroke-linejoin="round"/><path d="M49 100h10v10H49v-10Zm30 0h10v10H79v-10Z" stroke="#000" stroke-width="10" stroke-linejoin="round"/><path d="M77 128h6v6h-6v-6Zm8 8h6v6h-6v-6Z" stroke="#000" stroke-width="6" stroke-linejoin="round"/><path d="M49 130h10v10H49v-10Z" stroke="#000" stroke-width="10" stroke-linejoin="round"/></svg>