<svg width="192" height="192" viewBox="0 0 192 192" fill="none" xmlns="http://www.w3.org/2000/svg">
<path fill-rule="evenodd" clip-rule="evenodd" d="M37.5947 50.0222C36.4999 47.487 33.5573 46.3193 31.0222 47.414C28.487 48.5088 27.3193 51.4514 28.414 53.9865L66.414 141.987C67.5088 144.522 70.4514 145.689 72.9865 144.595C75.5217 143.5 76.6894 140.557 75.5947 138.022L37.5947 50.0222ZM52.0194 53.1572L48.6114 45.2649C44.8893 36.6454 34.8845 32.6752 26.2649 36.3973C17.6454 40.1194 13.6752 50.1242 17.3973 58.7437L55.3973 146.744C59.1194 155.363 69.1242 159.333 77.7437 155.611C83.7523 153.017 87.5016 147.369 87.9609 141.266C88.1605 138.614 87.7389 135.876 86.6114 133.265L56.1552 62.7347L52.0194 53.1572ZM64.0478 50.7426C63.8481 53.3947 64.2698 56.1328 65.3973 58.7438L95.8535 129.274L99.9892 138.851L103.397 146.744C107.119 155.363 117.124 159.334 125.744 155.611C134.363 151.889 138.333 141.885 134.611 133.265L96.6114 45.265C92.8893 36.6454 82.8845 32.6753 74.2649 36.3973C68.2564 38.9919 64.5071 44.6395 64.0478 50.7426ZM85.5947 50.0222C84.4999 47.4871 81.5573 46.3194 79.0222 47.4141C76.487 48.5088 75.3193 51.4514 76.414 53.9866L114.414 141.987C115.509 144.522 118.451 145.689 120.987 144.595C123.522 143.5 124.689 140.557 123.595 138.022L85.5947 50.0222ZM159.004 57.0044C161.766 57.0044 164.004 54.7658 164.004 52.0044C164.004 49.243 161.766 47.0044 159.004 47.0044C156.243 47.0044 154.004 49.243 154.004 52.0044C154.004 54.7658 156.243 57.0044 159.004 57.0044ZM159.004 69.0044C168.393 69.0044 176.004 61.3932 176.004 52.0044C176.004 42.6156 168.393 35.0044 159.004 35.0044C149.615 35.0044 142.004 42.6156 142.004 52.0044C142.004 61.3932 149.615 69.0044 159.004 69.0044ZM148.004 89.0044C148.004 91.7658 145.766 94.0044 143.004 94.0044C140.243 94.0044 138.004 91.7658 138.004 89.0044C138.004 86.243 140.243 84.0044 143.004 84.0044C145.766 84.0044 148.004 86.243 148.004 89.0044ZM160.004 89.0044C160.004 98.3932 152.393 106.004 143.004 106.004C133.615 106.004 126.004 98.3932 126.004 89.0044C126.004 79.6156 133.615 72.0044 143.004 72.0044C152.393 72.0044 160.004 79.6156 160.004 89.0044Z" fill="black"/>
</svg>
