<svg xmlns="http://www.w3.org/2000/svg" width="192" height="192" fill="none"><path stroke="#000" stroke-linecap="round" stroke-linejoin="round" stroke-width="12" d="M108 135a38.99 38.99 0 0 0 36.031-24.075 39.004 39.004 0 0 0-50.956-50.956A39 39 0 0 0 71 83.675a27 27 0 0 0-32.85 23.491 14 14 0 0 0-9.149 1.71A14 14 0 0 0 22 121a14 14 0 0 0 14 14m0 0h72"/><path stroke="#000" stroke-linecap="round" stroke-linejoin="round" stroke-width="10" d="M166 96h5m-62.995 58.005v5m0-126v5M158.232 125l4.33 2.5m-23.058-86.052-2.5 4.33m0 100.454 2.5 4.33m-63-109.12 2.5 4.33m83.558 18.737-4.33 2.5"/></svg>