<svg xmlns="http://www.w3.org/2000/svg" width="192" height="192" fill="none"><path stroke="#000" stroke-linecap="round" stroke-linejoin="round" stroke-width="12" d="M115.926 72.253a30.998 30.998 0 0 0-49.491 14.425 31 31 0 0 0 9.639 33.069M113 134h32m0 0a24.998 24.998 0 0 0 24.52-29.877 25.005 25.005 0 0 0-19.643-19.643 25 25 0 0 0-29.677 21.361 14.996 14.996 0 0 0-18.478 3.269 15 15 0 0 0-.622 19.021A14.99 14.99 0 0 0 113 134"/><path stroke="#000" stroke-linecap="round" stroke-linejoin="round" stroke-width="12" d="m161.609 67.317-10.682-5.657a10.13 10.13 0 0 1-5.237-7.195l-2.089-11.89c-.945-5.38-5.994-9.041-11.411-8.276l-11.974 1.69a10.15 10.15 0 0 1-8.472-2.748l-8.692-8.393c-3.932-3.797-10.172-3.797-14.104 0l-8.692 8.393a10.15 10.15 0 0 1-8.472 2.748L59.81 34.3c-5.417-.765-10.466 2.897-11.41 8.276l-2.09 11.89a10.13 10.13 0 0 1-5.237 7.195l-10.682 5.657c-4.833 2.56-6.761 8.485-4.359 13.391l5.311 10.845a10.11 10.11 0 0 1 0 8.894l-5.31 10.845c-2.403 4.906-.475 10.831 4.358 13.391l10.682 5.657a10.13 10.13 0 0 1 5.237 7.195l2.09 11.89c.944 5.38 5.993 9.041 11.41 8.276l11.974-1.69a10.15 10.15 0 0 1 8.472 2.748l8.692 8.393c3.932 3.797 10.172 3.797 14.104 0l8.692-8.393a10.15 10.15 0 0 1 8.472-2.748l11.974 1.69a10.15 10.15 0 0 0 9.344-3.701"/></svg>