<svg width="192" height="192" viewBox="0 0 192 192" fill="none" xmlns="http://www.w3.org/2000/svg"><circle cx="122" cy="84" r="20" stroke="#000" stroke-width="10"/><path d="M119 90V78l8 6-8 6Z" stroke="#000" stroke-width="6" stroke-linecap="round" stroke-linejoin="round"/><path d="M101 148c0-31.48-25.52-57-57-57m35 59c0-20.435-16.566-37-37-37m15 37c0-8.284-6.716-15-15-15" stroke="#000" stroke-width="12" stroke-linecap="round"/><circle cx="57" cy="65" r="3" stroke="#000" stroke-width="6"/><circle cx="71" cy="65" r="3" stroke="#000" stroke-width="6"/><circle cx="85" cy="65" r="3" stroke="#000" stroke-width="6"/><path d="M156 30H36a6 6 0 0 0-6 6v120a6 6 0 0 0 6 6h120a6 6 0 0 0 6-6V36a6 6 0 0 0-6-6ZM30 91h14m-14 44h12m-12-22h12m15 37v12m22-12v12m22-14v14" stroke="#000" stroke-width="12" stroke-linecap="round" stroke-linejoin="round"/></svg>