<svg width="192" height="192" viewBox="0 0 192 192" fill="none" xmlns="http://www.w3.org/2000/svg"><path d="m139 66-16 11V55l16 11Z" stroke="#000" stroke-width="12" stroke-linecap="round" stroke-linejoin="round"/><path d="M103 146c0-31.48-25.52-57-57-57m34 60c0-20.435-16.566-37-37-37m14 38c0-8.284-6.716-15-15-15" stroke="#000" stroke-width="12" stroke-linecap="round"/><circle cx="53" cy="58" r="3" stroke="#000" stroke-width="6"/><circle cx="69" cy="58" r="3" stroke="#000" stroke-width="6"/><circle cx="85" cy="58" r="3" stroke="#000" stroke-width="6"/><path d="M32 89h14m-16 46h12m-11-23h12m14 38v12m23-13v12m23-15v14" stroke="#000" stroke-width="12" stroke-linecap="round" stroke-linejoin="round"/><rect x="25" y="25" width="142" height="142" rx="6" stroke="#000" stroke-width="12" stroke-linecap="round" stroke-linejoin="round"/></svg>