<svg width="192" height="192" viewBox="0 0 192 192" fill="none" xmlns="http://www.w3.org/2000/svg"><path d="M86.918 135.945 78.786 165H48.29L22.16 53.398a6.01 6.01 0 0 1 4.25-7.161l20.812-5.77a6.019 6.019 0 0 1 7.492 4.53l5.774 26.828L70.654 31.75h45.744L126 61l7.254-30.426a6.019 6.019 0 0 1 7.285-4.398l24.883 6.131a6.01 6.01 0 0 1 4.395 7.302L140.794 154.98h-35.578" stroke="#000" stroke-width="12" stroke-linecap="round" stroke-linejoin="round"/><path d="m126 61-16 63-24-56-20 60" stroke="#000" stroke-width="12" stroke-linecap="round" stroke-linejoin="round"/></svg>