<svg width="24" height="24" viewBox="0 0 24 24" fill="none" xmlns="http://www.w3.org/2000/svg">
<path fill-rule="evenodd" clip-rule="evenodd" d="M9.80455 21.7582C5.3378 20.7576 2 16.7686 2 12C2 11.7221 2.01133 11.4469 2.03356 11.1748L2.82186 9.39928C4.10989 6.49818 7.47675 5.20362 10.3419 6.50781C12.0419 7.28159 13.1833 8.79629 13.5615 10.5063C14.577 10.557 16.7793 10.6791 18 10.7478L13.4969 13.2809C13.4199 13.5644 13.3204 13.8456 13.1976 14.1222L9.87727 21.6007C9.85372 21.6538 9.82947 21.7063 9.80455 21.7582ZM9.11098 12.3361C9.83295 12.3361 10.4182 11.7435 10.4182 11.0125C10.4182 10.2815 9.83295 9.68893 9.11098 9.68893C8.38902 9.68893 7.80377 10.2815 7.80377 11.0125C7.80377 11.7435 8.38902 12.3361 9.11098 12.3361Z" fill="#FFF1C0"/>
</svg>
