<svg xmlns="http://www.w3.org/2000/svg" width="192" height="192" fill="none" stroke="#000" stroke-linecap="round" stroke-linejoin="round" stroke-width="12" viewBox="0 0 192 192"><path stroke-width="8" d="M56 68a4 4 0 1 0 0-8 4 4 0 0 0 0 8m34 0a4 4 0 1 0 0-8 4 4 0 0 0 0 8"/><path d="M170 115.24c0-19.305-20.141-35.392-45.044-35.392S79.913 95.935 79.913 115.24c0 19.304 20.141 35.392 45.043 35.392a56 56 0 0 0 15.122-2.06l17.053 8.494-5.342-13.449A33.59 33.59 0 0 0 170 115.24"/><path stroke-width="8" d="M109 107a4 4 0 1 0 0-8 4 4 0 0 0 0 8m32 0a4 4 0 1 0 0-8 4 4 0 0 0 0 8"/><path d="M128.174 79.978c0-24.903-23.744-45.044-53.087-45.044S22 54.946 22 79.849a42.99 42.99 0 0 0 20.784 35.392l-7.915 16.087 18.339-10.489a60.9 60.9 0 0 0 21.878 4.055 63 63 0 0 0 6.435-.387"/></svg>