<?xml version="1.0" encoding="UTF-8" standalone="no"?>
<!-- Svg Vector Icons : http://www.onlinewebfonts.com/icon -->

<svg
   version="1.1"
   x="0px"
   y="0px"
   viewBox="0 0 192 192"
   enable-background="new 0 0 1000 1000"
   xml:space="preserve"
   id="svg8"
   sodipodi:docname="wechat.svg"
   width="192"
   height="192"
   inkscape:version="1.2.1 (9c6d41e410, 2022-07-14)"
   xmlns:inkscape="http://www.inkscape.org/namespaces/inkscape"
   xmlns:sodipodi="http://sodipodi.sourceforge.net/DTD/sodipodi-0.dtd"
   xmlns="http://www.w3.org/2000/svg"
   xmlns:svg="http://www.w3.org/2000/svg"><defs
   id="defs12" /><sodipodi:namedview
   id="namedview10"
   pagecolor="#ffffff"
   bordercolor="#000000"
   borderopacity="0.25"
   inkscape:showpageshadow="2"
   inkscape:pageopacity="0.0"
   inkscape:pagecheckerboard="0"
   inkscape:deskcolor="#d1d1d1"
   showgrid="false"
   showborder="false"
   shape-rendering="crispEdges"
   inkscape:zoom="4.109375"
   inkscape:cx="96"
   inkscape:cy="96"
   inkscape:window-width="1920"
   inkscape:window-height="1001"
   inkscape:window-x="-9"
   inkscape:window-y="-9"
   inkscape:window-maximized="1"
   inkscape:current-layer="svg8" />
<metadata
   id="metadata2"> Svg Vector Icons : http://www.onlinewebfonts.com/icon </metadata>
<g
   id="g6"
   transform="matrix(0.15642185,0,0,0.15642185,17.789075,17.804717)"
   style="fill:#000000;fill-opacity:1;stroke:#000000;stroke-width:42.875;stroke-dasharray:none;stroke-opacity:1"><path
     d="m 487.4,340.2 c 25.2,0 42,-16.9 42,-42 0,-25.4 -16.8,-41.9 -42,-41.9 -25.2,0 -50.6,16.4 -50.6,41.9 0.1,25.2 25.4,42 50.6,42 z M 252.2,256.4 c -25.2,0 -50.7,16.4 -50.7,41.9 0,25.1 25.5,42 50.7,42 25.1,0 41.9,-16.9 41.9,-42 0,-25.5 -16.8,-41.9 -41.9,-41.9 z M 990,609.2 C 990,476.3 866.7,363.1 715.4,351.3 c 0.2,-1.7 0.3,-3.4 -0.1,-5.1 C 684.9,204.7 532.8,98 361.4,98 167.6,98 10,233.1 10,399.1 c 0,89.1 45.5,169.3 131.7,232.6 l -30,90.3 c -1.9,5.9 -0.2,12.3 4.5,16.4 2.8,2.4 6.4,3.7 10,3.7 2.3,0 4.7,-0.6 6.9,-1.6 l 112.8,-56.4 13.9,2.8 c 34.7,7.1 64.7,13.3 101.6,13.3 10.9,0 21.9,-0.5 32.7,-1.4 4.4,-0.4 8.1,-2.6 10.6,-5.8 40.7,101.8 152.8,175.2 284.7,175.2 33.8,0 68,-8.1 98.7,-15.8 l 86.9,47.5 c 2.3,1.3 4.8,1.9 7.3,1.9 3.4,0 6.9,-1.2 9.6,-3.4 4.8,-3.9 6.8,-10.4 5,-16.3 L 874.7,808.3 C 949.2,749.6 990,679.2 990,609.2 Z m -598.5,59.2 c -10,0.9 -20.1,1.3 -30.1,1.3 -33.8,0 -62.4,-5.8 -95.5,-12.7 l -19.2,-3.9 c -3.3,-0.7 -6.8,-0.2 -9.8,1.3 l -84.5,42.3 22,-66 c 2.1,-6.5 -0.2,-13.5 -5.8,-17.4 C 83.7,554.2 40.6,482.1 40.6,399.1 40.6,250 184.5,128.6 361.3,128.6 c 156.3,0 294.8,95.1 323.3,221.6 C 520.7,352.3 388,467.6 388,609.1 c 0,20.6 3.1,40.5 8.4,59.7 -1.5,-0.3 -3.2,-0.6 -4.9,-0.4 z m 456.3,122.1 c -5.1,3.9 -7.3,10.5 -5.5,16.6 l 14.5,48.2 -59.4,-32.5 c -2.3,-1.3 -4.8,-1.9 -7.4,-1.9 -1.3,0 -2.5,0.2 -3.7,0.5 -31.9,8.1 -64.9,16.4 -97,16.4 -149.2,0 -270.6,-102.5 -270.6,-228.5 0,-126 121.4,-228.5 270.6,-228.5 146.4,0 270,104.6 270,228.5 0.1,62.7 -39.5,127.1 -111.5,181.2 z M 596.7,500 c -16.8,0 -33.6,16.9 -33.6,33.7 0,16.9 16.8,33.6 33.6,33.6 25.3,0 42,-16.7 42,-33.6 -0.1,-16.8 -16.8,-33.7 -42,-33.7 z m 184.7,0 c -16.6,0 -33.4,16.9 -33.4,33.7 0,16.9 16.8,33.6 33.4,33.6 25.2,0 42.2,-16.7 42.2,-33.6 0,-16.8 -17,-33.7 -42.2,-33.7 z"
     id="path4"
     style="fill:#000000;fill-opacity:1;stroke:#000000;stroke-width:42.875;stroke-dasharray:none;stroke-opacity:1" /></g>
</svg>
