<svg xmlns="http://www.w3.org/2000/svg" width="192" height="192" fill="none"><path stroke="#000" stroke-linecap="round" stroke-linejoin="round" stroke-width="12" d="M170 73a41.99 41.99 0 0 0-25.927-38.803A42 42 0 0 0 128 31m20 42a20 20 0 0 0-20-20m-51 6.632c-13-5-55 20-55 63 0 21 22 38 53 38s72-22 72-45c0-12.89-14.921-16.408-25.281-16.07 2.774-7.215 8.281-20.93-.719-25.93s-25.406 4.765-37.246 8.617C85.71 74.264 86.89 63.436 77 59.632"/><ellipse cx="76" cy="130" stroke="#000" stroke-linecap="round" stroke-linejoin="round" stroke-width="10" rx="33" ry="30"/><circle cx="66" cy="134" r="4" stroke="#000" stroke-linecap="round" stroke-linejoin="round" stroke-width="8"/><circle cx="85" cy="122" r="3" stroke="#000" stroke-linecap="round" stroke-linejoin="round" stroke-width="6"/></svg>