<?xml version="1.0" encoding="utf-8"?>
	<svg version="1.1" xmlns="http://www.w3.org/2000/svg" xmlns:xlink="http://www.w3.org/1999/xlink" x="0px" y="0px" width="240.0" height="240.0" xml:space="preserve">
		<path d="M178.699,91.463L197.349,57.487C198.265,55.752 197.687,53.39 195.952,52.427C194.072,51.511 191.855,52.089 190.892,53.969L172.145,88.282C156.337,81.246 138.651,77.246 120,77.39C101.349,77.39 83.663,81.246 68,88.282L49.253,54.065C48.337,52.33 45.976,51.607 44.193,52.523C42.41,53.439 41.735,55.8 42.651,57.583L61.301,91.559C24.723,110.403 0,146.258 0,187.511L240,187.511C239.855,146.162 215.277,110.306 178.699,91.463M65.301,143.945C59.807,143.945 55.229,139.511 55.229,133.872C55.229,128.378 59.663,123.8 65.301,123.8C70.795,123.8 75.373,128.378 75.373,133.872C75.373,139.366 70.892,143.945 65.301,143.945M174.602,143.945C169.108,143.945 164.53,139.511 164.53,133.872C164.53,128.378 168.964,123.8 174.602,123.8C180.096,123.8 184.675,128.378 184.675,133.872C184.675,139.366 180.096,143.945 174.602,143.945" fill="#000" stroke="#00000000" stroke-width="1.0" stroke-miterlimit=""/>
	</svg>
