<svg xmlns="http://www.w3.org/2000/svg" width="192" height="192" fill="none"><path stroke="#000" stroke-linecap="round" stroke-linejoin="round" stroke-width="12" d="M22 58a6 6 0 0 1 6-6h16a6 6 0 0 1 6 6v16a6 6 0 0 1-6 6H28a6 6 0 0 1-6-6zm86-6H88.485a6 6 0 0 0-4.242 1.757l-56.486 56.486A6 6 0 0 0 26 114.485V134a6 6 0 0 0 6 6h19.515a6 6 0 0 0 4.242-1.757l56.486-56.486A6 6 0 0 0 114 77.515V58a6 6 0 0 0-6-6m56 0h-19.515a6 6 0 0 0-4.242 1.757l-56.486 56.486A6 6 0 0 0 82 114.485V134a6 6 0 0 0 6 6h19.515a6 6 0 0 0 4.242-1.757l56.486-56.486A6 6 0 0 0 170 77.515V58a6 6 0 0 0-6-6"/></svg>