<svg width="192" height="192" fill="none" xmlns="http://www.w3.org/2000/svg"><path d="M22 58a6 6 0 0 1 6-6h16a6 6 0 0 1 6 6v16a6 6 0 0 1-6 6H28a6 6 0 0 1-6-6V58Zm86-6H88.485a6 6 0 0 0-4.242 1.757l-56.486 56.486A5.998 5.998 0 0 0 26 114.485V134a6 6 0 0 0 6 6h19.515a6 6 0 0 0 4.242-1.757l56.486-56.486A6 6 0 0 0 114 77.515V58a6 6 0 0 0-6-6Z" stroke="#000" stroke-width="12" stroke-linecap="round" stroke-linejoin="round"/><path d="M164 52h-19.515a5.998 5.998 0 0 0-4.242 1.757l-56.486 56.486A5.998 5.998 0 0 0 82 114.485V134a6 6 0 0 0 6 6h19.515a6 6 0 0 0 4.242-1.757l56.486-56.486A6 6 0 0 0 170 77.515V58a6 6 0 0 0-6-6Z" stroke="#000" stroke-width="12" stroke-linecap="round" stroke-linejoin="round"/></svg>