<svg xmlns="http://www.w3.org/2000/svg" xmlns:xlink="http://www.w3.org/1999/xlink" width="192" height="192" viewBox="0 0 192 192" fill="none"><defs><rect id="path_0" x="0" y="0" width="192" height="192" /></defs><g opacity="1" transform="translate(0 0)  rotate(0 96 96)"><mask id="bg-mask-0" fill="white"><use xlink:href="#path_0"/></mask><g mask="url(#bg-mask-0)" ><path  id="路径 2" style="stroke:#000000; stroke-width:12; stroke-opacity:1; stroke-dasharray:0 0" transform="translate(16.146366711922113 53.13762485252853)  rotate(0.2 39.5 42)" d="M4.73,45.04L4.73,45.04C-1.58,51.75 -1.58,62.63 4.73,69.34L16.16,81.48C19.31,84.84 24.43,84.84 27.58,81.48L79,26.82L56.15,2.52C54.63,0.91 52.58,0 50.44,0C48.29,0 46.24,0.91 44.72,2.52L4.73,45.04Z " /><path  id="拼合图形" style="stroke:#000000; stroke-width:12; stroke-opacity:1; stroke-dasharray:0 0" transform="translate(66.97173565275234 54.48292519914146)  rotate(0 54.72761154174805 42.23220443725586)" d="M28.9 83.61C26.73 83.61 24.65 82.71 23.12 81.11L0 56.92L52.01 2.5C53.55 0.9 55.62 0 57.79 0C59.96 0 62.04 0.9 63.57 2.5L86.69 26.69L86.6034 26.7806L104.67 45.6844C111.05 52.3644 111.05 63.1944 104.67 69.8744L93.1102 81.9644C91.5802 83.5644 89.5002 84.4644 87.3302 84.4644C85.1602 84.4644 83.0802 83.5644 81.5502 81.9644L57.7077 57.0152L34.68 81.11C33.14 82.71 31.06 83.61 28.9 83.61Z " /></g></g></svg>
