<svg width="192" height="192" viewBox="0 0 192 192" fill="none" xmlns="http://www.w3.org/2000/svg"><path d="M40 130v-12c0-6.627 5.373-12 12-12h2a6 6 0 0 0 6-6v-4.593c0-7.152 6.28-12.738 13.377-13.618C83.618 80.52 96 78.075 96 64c0 14.075 12.382 16.52 22.623 17.79C125.72 82.668 132 88.254 132 95.406V100a6 6 0 0 0 6 6h2c6.627 0 12 5.373 12 12v12M36 154c40-6 60 16 60 16s20-22 60-16" stroke="#000" stroke-width="12" stroke-linecap="round" stroke-linejoin="round"/><path d="M80 21v.11m0 0C80.06 34.316 90.782 45 104 45a23.91 23.91 0 0 0 16-6.11V39c0 13.255-10.745 24-24 24S72 52.255 72 39c0-7.108 3.09-13.494 8-17.89Z" stroke="#000" stroke-width="10" stroke-linecap="round" stroke-linejoin="round"/></svg>