<svg xmlns="http://www.w3.org/2000/svg" width="192" height="192" fill="none"><path stroke="#000" stroke-linecap="round" stroke-linejoin="round" stroke-width="12" d="M25.096 62.924A35 35 0 0 0 37 65c19.33 0 35-15.67 35-35 0-2.414-.244-4.77-.71-7.047m-46.194 39.97A60 60 0 0 0 22 82c0 4.607.52 9.093 1.503 13.403m1.593-32.48c6.87-20.5 24.507-36.062 46.194-39.97m-47.787 72.45A66.2 66.2 0 0 0 38 97c36.45 0 66-29.55 66-66a67 67 0 0 0-.18-4.909M23.503 95.403c3.404 14.921 12.371 27.725 24.604 36.114m0 0C57.75 138.13 69.423 142 82 142c4.195 0 8.29-.43 12.241-1.25 3.36-.696 6.897-.307 9.822 1.486 16.206 9.933 39.943 24.469 41.937 25.62a15.997 15.997 0 0 0 23.863-11.768A16 16 0 0 0 167.856 146c-1.183-2.05-16.072-25.742-25.707-41.055-1.884-2.994-2.28-6.647-1.527-10.102A60.2 60.2 0 0 0 142 82c0-9.871-2.384-19.185-6.607-27.399m-87.286 76.916c41.644-6.897 75.391-37.186 87.286-76.916m0 0c-6.66-12.953-17.896-23.168-31.573-28.51m0 0A59.9 59.9 0 0 0 82 22a60.4 60.4 0 0 0-10.71.953"/></svg>