<svg width="192" height="192" viewBox="0 0 192 192" fill="none" xmlns="http://www.w3.org/2000/svg"><path clip-rule="evenodd" d="M68.8 114.831c-1.467-2.354-2.667-3.599-4.8-3.599s-3.333 1.245-4.8 3.599l-6.4 10.384c-2.4 4.016-4.4 6.785-9.067 6.785-4.666 0-6.8-1.939-9.066-7.339-2.8-6.645-5.734-14.676-8.4-25.476C23.333 87.138 22 79.661 22 73.57c0-6.092 1.867-9.692 8.267-10.938C39.067 60.969 50.933 60 64 60c13.067 0 24.933.97 33.733 2.63 6.4 1.247 8.267 4.847 8.267 10.939s-1.333 13.569-4.267 25.616c-2.666 10.8-5.6 18.831-8.4 25.476-2.267 5.4-4.4 7.339-9.067 7.339-4.666 0-6.666-2.769-9.066-6.785l-6.4-10.384Z" stroke="#000" stroke-width="12" stroke-linecap="round" stroke-linejoin="round"/><path d="M150.642 107.783C161.109 106.068 170 94.437 170 82.26 170 69.48 158.025 60 139.926 60 119.649 60 104 73.19 104 95.45c0 20.75 13.608 36.55 36.606 36.55 11.431 0 29.394-4.5 28.394-16-.828-9.52-12.619-8.761-18.358-8.217Zm0 0c-.871.143-1.753.217-2.642.217m2.642-.217c-1.194.113-2.125.217-2.642.217m0 0c-4.355 0-8.619-1.374-11.068-3.847" stroke="#000" stroke-width="12" stroke-linecap="round" stroke-linejoin="round"/></svg>