<svg width="192" height="192" viewBox="0 0 192 192" fill="none" xmlns="http://www.w3.org/2000/svg"><path d="M145.434 71.309s5.461 18.01 2.338 37.812c-3.032 19.236-22.299 32.685-22.299 32.685m-1.022-73.662s5.231 18.47.779 38.413c-4.154 18.607-23.202 31.63-23.202 31.63" stroke="#000" stroke-width="8" stroke-linecap="round"/><path d="M167.449 93.87s-12.091 4.572-28.539 3.738c-14.797-.75-29.721-7.648-29.721-7.648m-2.614 25.836s16.837 6.026 28.537 6.183c15.898.211 28.898-3.421 28.898-3.421" stroke="#000" stroke-width="8" stroke-linecap="round"/><path d="M67.002 121V71M42 96h50m-12.55 21.677L54.543 74.323m-.041 43.327L79.5 74.347m9.146 34.15-43.297-25m.003 25 43.297-25" stroke="#000" stroke-width="6" stroke-linecap="round"/><circle cx="96" cy="96" r="74" stroke="#000" stroke-width="12" stroke-linecap="round" stroke-linejoin="round"/></svg>