<svg width="192" height="192" viewBox="0 0 50.8 50.8" xmlns="http://www.w3.org/2000/svg"><g style="display:inline"><circle style="display:inline;fill:none;fill-opacity:1;stroke:#000;stroke-width:7.13514;stroke-linecap:round;stroke-linejoin:round;stroke-miterlimit:4;stroke-dasharray:none;stroke-opacity:1" cx="82.9" cy="78.9" r="44" transform="translate(-11.489 -9.709) scale(.44498)"/><g style="stroke-width:1.24341"><path style="display:inline;fill:none;stroke:#000;stroke-width:9.4301;stroke-linecap:round;stroke-linejoin:round;stroke-miterlimit:4;stroke-dasharray:none;stroke-opacity:1" d="M134.775 62.508s6.44 21.218 2.757 44.548c-3.576 22.662-26.3 38.507-26.3 38.507" transform="matrix(.22433 0 0 .22458 8.51 4.829)"/><path style="display:inline;fill:none;stroke:#000;stroke-width:9.4301;stroke-linecap:round;stroke-linejoin:round;stroke-miterlimit:4;stroke-dasharray:none;stroke-opacity:1" d="M110.026 59.185s6.17 21.76.919 45.255c-4.899 21.922-27.365 37.264-27.365 37.264" transform="matrix(.22433 0 0 .22458 8.51 4.738)"/><path style="display:inline;fill:none;stroke:#000;stroke-width:9.4301;stroke-linecap:round;stroke-linejoin:round;stroke-miterlimit:4;stroke-dasharray:none;stroke-opacity:1" d="M159.453 89.147s-14.26 5.385-33.659 4.403c-17.453-.883-35.054-9.01-35.054-9.01" transform="matrix(.22433 0 0 .22458 8.534 4.816)"/><path style="display:inline;fill:none;stroke:#000;stroke-width:9.4301;stroke-linecap:round;stroke-linejoin:round;stroke-miterlimit:4;stroke-dasharray:none;stroke-opacity:1" d="M87.964 115.258s19.858 7.1 33.658 7.284c18.75.249 34.083-4.03 34.083-4.03" transform="matrix(.22433 0 0 .22458 8.465 4.753)"/></g><g style="display:inline" transform="translate(4.498)"><circle style="display:inline;fill:#000;fill-opacity:1;stroke:none;stroke-width:3.25882;stroke-linecap:round;stroke-linejoin:round;stroke-miterlimit:4;stroke-dasharray:none;stroke-opacity:1" cx="54.9" cy="95.9" r="13.85" transform="translate(-4.478 -5.606) scale(.32476)"/><path style="fill:none;stroke:#000;stroke-width:8;stroke-linecap:round;stroke-linejoin:round;stroke-miterlimit:4;stroke-dasharray:none;stroke-opacity:1" d="M50.463 124.025v-55" transform="scale(.26458)"/><path style="display:inline;fill:none;stroke:#000;stroke-width:2.11667;stroke-linecap:round;stroke-linejoin:round;stroke-miterlimit:4;stroke-dasharray:none;stroke-opacity:1" d="M6.075 25.539h14.553"/><path style="display:inline;fill:none;stroke:#000;stroke-width:8;stroke-linecap:round;stroke-linejoin:round;stroke-miterlimit:4;stroke-dasharray:none;stroke-opacity:1" d="M50.463 124.025v-55" transform="scale(.26458) rotate(-29.878 50.466 96.53)"/><path style="display:inline;fill:none;stroke:#000;stroke-width:8;stroke-linecap:round;stroke-linejoin:round;stroke-miterlimit:4;stroke-dasharray:none;stroke-opacity:1" d="M50.463 124.025v-55" transform="rotate(30 13.352 25.539) scale(.26458)"/><path style="display:inline;fill:none;stroke:#000;stroke-width:8;stroke-linecap:round;stroke-linejoin:round;stroke-miterlimit:4;stroke-dasharray:none;stroke-opacity:1" d="M50.463 124.025v-55" transform="rotate(-60 13.351 25.539) scale(.26458)"/><path style="display:inline;fill:none;stroke:#000;stroke-width:8;stroke-linecap:round;stroke-linejoin:round;stroke-miterlimit:4;stroke-dasharray:none;stroke-opacity:1" d="M50.463 124.025v-55" transform="rotate(60 13.352 25.539) scale(.26458)"/></g></g></svg>