<svg width="192" height="192" viewBox="0 0 192 192" fill="none" xmlns="http://www.w3.org/2000/svg"><path d="M45 141h96m15.285-29.246a37.007 37.007 0 0 0 13.707-29.529 36.997 36.997 0 0 0-30.249-35.605 37.001 37.001 0 0 0-41 22.4" stroke="#000" stroke-width="12" stroke-linecap="round" stroke-linejoin="round"/><path d="M141 141a18 18 0 1 0-5.922-34.998 20.004 20.004 0 0 0-10.232-23.94 20.003 20.003 0 0 0-22.857 3.665 25 25 0 1 0-46.672 11.716A23 23 0 1 0 45 141" stroke="#000" stroke-width="12" stroke-linecap="round" stroke-linejoin="round"/></svg>