<svg xmlns="http://www.w3.org/2000/svg" width="192" height="192" viewBox="0 0 50.8 50.8"><circle cx="82.9" cy="78.9" r="44" fill="none" stroke="#000" stroke-width="7.135" transform="translate(-11.489 -9.709)scale(.44498)"/><g fill="none" stroke="#000" stroke-linecap="round" stroke-width="9.43"><path d="M134.775 62.508s6.44 21.218 2.757 44.548c-3.576 22.662-26.3 38.507-26.3 38.507" transform="matrix(.22433 0 0 .22458 8.51 4.829)"/><path d="M110.026 59.185s6.17 21.76.919 45.255c-4.899 21.922-27.365 37.264-27.365 37.264" transform="matrix(.22433 0 0 .22458 8.51 4.738)"/><path d="M159.453 89.147s-14.26 5.385-33.659 4.403c-17.453-.883-35.054-9.01-35.054-9.01" transform="matrix(.22433 0 0 .22458 8.534 4.816)"/><path d="M87.964 115.258s19.858 7.1 33.658 7.284c18.75.249 34.083-4.03 34.083-4.03" transform="matrix(.22433 0 0 .22458 8.465 4.753)"/></g><g transform="translate(4.498)"><circle cx="54.9" cy="95.9" r="13.85" transform="translate(-4.478 -5.606)scale(.32476)"/><path stroke="#000" stroke-linecap="round" stroke-width="2.117" d="M13.352 32.815V18.263m-7.277 7.276h14.553m-3.653 6.309L9.726 19.23m-.012 12.61 7.276-12.603m2.662 9.939L7.05 21.9m.001 7.276L19.653 21.9"/></g></svg>