<?xml version="1.0" encoding="utf-8"?>
	<svg version="1.1" xmlns="http://www.w3.org/2000/svg" xmlns:xlink="http://www.w3.org/1999/xlink" x="0px" y="0px" width="192.0" height="192.0" xml:space="preserve">
		<path d="M19.2,98.7c0.9-4.9,4.4-8.9,9.6-8.7c13.8,0.1,27.7,0,41.5,0c0.7,0,1.2-0.2,1.4-1c1.1-3.6,2-7.2,3-10.9 c1.6-5.5,3.1-11.3,4.7-16.8c1.4-5.1,2.7-10,4.1-15c1.5-4.8,2.1-9.8,4.3-14.4c1-2,2.7-3.5,5-3.9c5.5-1.1,11.1-0.2,16.6-0.4 c0.9,0,1.8,0,2.4,0.6c1.9,1.4,2.2,3.1,1.6,5.9c-1.3,4.5-2.4,8.9-3.7,13.3c-1.4,4.8-2.6,9.5-3.9,14.3c-1.2,4.4-2.6,8.6-3.5,13 c-0.5,2.3-1.4,4.8-1.9,7.1c-0.7,2.3-1.4,4.8-2,7c-0.3,1.1,0,1.2,1,1.2c3.9,0,7.8,0,11.7,0c5.4,0,10.7-0.1,16.3,0 c3.5,0.1,6.8-0.4,10.1-1.8c4.8-2,8.5-5.2,11.2-9.8c2.2-4,3.8-8.3,3.8-13c0-6.5-4.6-11.9-10.7-12.7c-4.7-0.5-9.5-0.1-14-0.2 c-0.6,0-1.3,0-1.9-0.1c-1.9-0.2-3.8-2.6-3.1-5.1c1.2-3.6,2-7.3,3.2-11c0.4-1.5,0.7-3,1.5-4.4c1.4-2.3,3.3-4,5.9-4.3 c4.4-0.3,8.8-0.4,13.1,0.4c9,1.6,16.6,6,22.2,13.4c3.5,4.6,5.9,9.6,6.9,15.4c0.6,3.4,0.6,6.9,0.5,10.3c-0.1,4.8-1,9.4-2.3,13.9 c-1.9,6.1-5.3,11.8-9.5,16.7c-3,3.5-6.3,6.5-10.1,9c-3.1,2-6.4,3.6-9.9,5c-3.7,1.4-7.4,2.2-11.4,2.6c-6.3,0.5-12.7,0.1-18.9,0.2 c-7,0.1-14.1,0-21.3,0c-0.9,0-1.3,0.2-1.5,1.2c-0.9,3.2-1.8,6.5-2.7,9.7c-1.2,4-2,8.2-3.2,12.2c-0.5,1.8-1.3,3.6-1.8,5.5 c-0.3,1.3-0.7,2.4-1,3.7c-0.3,1.7-1,3.1-1.3,4.8c-0.4,2.1-1.1,4.5-1.7,6.5c-1.4,4.1-3.7,6.5-8.4,6.6c-4.9,0.1-9.7,0.1-14.6,0 c-2,0-3.5-1.3-3.9-3.2c-0.3-1.3,0.2-2.4,0.5-3.6c1.6-5,2.8-10,4.1-15.1c1.7-5.9,3.3-11.8,4.9-17.7c0.6-2.4,1.3-5,2-7.3 c0.1-0.4,0.2-0.9,0.3-1.3c0.4-1.7,0.3-1.8-1.3-1.8c-13.8,0-27.8,0-41.6,0c-0.4,0-0.7,0-1.2,0c-3.2-0.1-4.8-2.6-3.8-5.7 c1.1-3.3,2-6.6,2.8-10C19.1,98.9,19.2,98.8,19.2,98.7L19.2,98.7z" fill="#000" stroke="" stroke-width="" stroke-miterlimit=""/>
	</svg>
