<svg width="192" height="192" viewBox="0 0 192 192" fill="none" xmlns="http://www.w3.org/2000/svg"><path d="m96 128.255-22.627-22.628a31.997 31.997 0 0 1 5.015-49.344M96 128.255l22.627-22.628a31.995 31.995 0 0 0 6.937-34.873 31.996 31.996 0 0 0-11.786-14.361l-.166-.11M96 128.255l-18 18-46.627-46.628a32 32 0 1 1 47.015-43.344M96 128.255l18 18 46.627-46.628a31.996 31.996 0 0 0 2.109-42.928 31.994 31.994 0 0 0-27.873-11.545 31.995 31.995 0 0 0-21.251 11.128m0 0a32.001 32.001 0 0 0-35.224 0" stroke="#000" stroke-width="12" stroke-linecap="round" stroke-linejoin="round"/><circle cx="96" cy="84" r="5" stroke="#000" stroke-width="10" stroke-linecap="round" stroke-linejoin="round"/></svg>