<svg xmlns="http://www.w3.org/2000/svg" width="192" height="192" fill="none" viewBox="0 0 192 192"><path stroke="#000" stroke-linecap="round" stroke-linejoin="round" stroke-width="12" d="m39.777 140.011 9.418 16.363a5.93 5.93 0 0 0 5.137 2.975h17.742c3.276 0 5.932-2.664 5.932-5.95v-18.842c0-3.286-2.656-5.95-5.932-5.95H46.341m-6.564 11.404-15.982-27.767a5.97 5.97 0 0 1 0-5.95l14.027-24.37m1.955 58.087 6.564-11.404m0 0 18.023-31.312m94.423 31.312 9.418-16.363a5.96 5.96 0 0 0 0-5.95l-8.932-15.519a5.92 5.92 0 0 0-8.103-2.178l-16.268 9.421c-2.837 1.643-3.809 5.282-2.171 8.128l12.928 22.461m13.128 0-15.982 27.767a5.93 5.93 0 0 1-5.137 2.975h-28.321m49.44-30.742h-13.128m0 0h-36.312M84.299 22h-8.562a5.93 5.93 0 0 0-5.137 2.975L56.606 49.288c-1.638 2.846-.666 6.485 2.171 8.128l16.268 9.421a5.92 5.92 0 0 0 8.103-2.178L96 42.33M84.299 22h31.964a5.93 5.93 0 0 1 5.137 2.975l19.122 33.222M84.299 22 96 42.33m0 0 17.98 31.238m26.542-15.371-7.135 12.396a5.93 5.93 0 0 1-5.137 2.975h-14.27m26.542-15.371 6.132-10.654m-37.307 81.064-7.135 12.396a5.96 5.96 0 0 0 0 5.95l7.135 12.396m0-30.742 6.13-10.651m-6.13 41.393 6.13 10.651M64.364 97.295l-7.136-12.396a5.93 5.93 0 0 0-5.137-2.975h-14.27m26.543 15.37 6.129 10.649m-32.671-26.02H25.563m88.417-8.355h-12.264"/></svg>