<svg xmlns="http://www.w3.org/2000/svg" width="192" height="192" fill="none"><path stroke="#000" stroke-linecap="round" stroke-linejoin="round" stroke-width="12" d="M86 170a63.99 63.99 0 0 1-59.128-39.508A64 64 0 0 1 22 106m84-84a64 64 0 0 1 64 64m-61-12a12.999 12.999 0 0 1 9.192 22.192A13 13 0 0 1 109 100m-3-78c-16.794 0-29.416 4.172-40.561 11.439M22 106c0-26 10-42 26-58 5.665-5.665 11.33-10.578 17.439-14.561M86 170c26 0 42-10 58-26 5.665-5.665 10.578-11.33 14.561-17.439M170 86c0 16.794-4.172 29.416-11.439 40.561m0 0C147.416 133.828 134.794 138 118 138c-4.037 0-8.054-.382-12-1.135M65.439 33.439C58.172 44.584 54 57.206 54 74c0 4.72.522 9.415 1.55 14M98 100h12"/><path stroke="#000" stroke-linecap="round" stroke-linejoin="round" stroke-width="12" d="M98 118V80a6 6 0 0 1 6-6h6m-34 0v44"/></svg>