<svg width="192" height="192" viewBox="0 0 192 192" fill="none" xmlns="http://www.w3.org/2000/svg">
<path d="M26.4624 104.065L23.8179 108.591C22.6991 110.506 22.7279 112.882 23.8929 114.769L34.3117 131.648L44.5103 114.192C46.1534 111.38 49.7402 110.392 52.5915 111.966L58.9903 115.5L52.6354 85L22 94L24.9608 96.2983C27.3385 98.144 27.9807 101.466 26.4624 104.065Z" stroke="black" stroke-width="12" stroke-linecap="round" stroke-linejoin="round"/>
<path d="M79 143.378V155C79 158.314 76.3137 161 73 161L54.9032 161C52.7706 161 50.7982 159.868 49.7225 158.027L46.3781 152.302L53.3599 140.352C54.4356 138.51 56.408 137.378 58.5405 137.378H73C76.3137 137.378 79 140.065 79 143.378Z" stroke="black" stroke-width="12" stroke-linecap="round" stroke-linejoin="round"/>
<path d="M131.257 41.146L118.118 22.0002L94.0037 22L113.466 51.2544C114.968 53.5128 114.769 56.4983 112.979 58.5366L107.974 64.2372L136.924 72L145 41.8367L137.584 43.5901C135.173 44.1603 132.659 43.1892 131.257 41.146Z" stroke="black" stroke-width="12" stroke-linecap="round" stroke-linejoin="round"/>
<path d="M69.7703 65.2774L59.3135 59.2357C56.3985 57.5515 55.4394 53.799 57.1889 50.9227L71.8964 26.7408L84.7418 44.1367C86.1591 46.056 86.3045 48.6326 85.1122 50.6992L77.9691 63.0806C76.3124 65.9521 72.6408 66.9359 69.7703 65.2774Z" stroke="black" stroke-width="12" stroke-linecap="round" stroke-linejoin="round"/>
<path d="M132.98 161.323H138.887C141.16 161.323 143.251 160.089 144.34 158.106L153.855 140.771L132.674 140.771C129.743 140.771 127.21 138.735 126.599 135.885L124.844 127.711L104 148.429L125.701 170L127.044 165.677C127.848 163.089 130.255 161.323 132.98 161.323Z" stroke="black" stroke-width="12" stroke-linecap="round" stroke-linejoin="round"/>
<path d="M141.977 96.4886L151.84 90.8283C154.812 89.1232 158.611 90.1351 160.327 93.0885L169.188 108.344C170.271 110.208 170.271 112.511 169.188 114.375L165.877 120.075L152.091 120.075C149.871 120.075 147.82 118.898 146.711 116.988L139.703 104.924C137.988 101.97 139.006 98.1937 141.977 96.4886Z" stroke="black" stroke-width="12" stroke-linecap="round" stroke-linejoin="round"/>
</svg>
