<?xml version="1.0" standalone="no"?>
<!DOCTYPE svg PUBLIC "-//W3C//DTD SVG 20010904//EN"
 "http://www.w3.org/TR/2001/REC-SVG-20010904/DTD/svg10.dtd">
<svg version="1.0" xmlns="http://www.w3.org/2000/svg"
 width="192.000000pt" height="192.000000pt" viewBox="0 0 192.000000 192.000000"
 preserveAspectRatio="xMidYMid meet">
<metadata>
Created by potrace 1.16, written by Peter Selinger 2001-2019
</metadata>
<g transform="translate(0.000000,192.000000) scale(0.100000,-0.100000)"
fill="#000000" stroke="none">
<path d="M605 1705 c-52 -18 -110 -83 -124 -139 -11 -45 -11 -45 -59 -48 -44
-3 -47 -5 -50 -33 -4 -35 18 -55 64 -55 l33 0 3 -327 c3 -315 4 -330 26 -383
13 -30 39 -75 57 -100 38 -51 129 -120 188 -141 l37 -13 0 -128 0 -128 -80 0
c-70 0 -81 -2 -90 -20 -6 -12 -8 -30 -5 -41 6 -19 15 -19 283 -17 l277 3 3 23
c5 35 -15 52 -64 52 l-44 0 0 110 0 110 64 0 c72 0 68 5 86 -95 7 -44 18 -68
40 -90 27 -27 38 -30 105 -33 97 -5 141 4 171 33 20 20 24 34 24 84 0 65 9 49
-185 346 -29 44 -76 123 -105 175 -29 52 -60 106 -70 120 -25 36 -214 349
-234 388 -10 19 -20 73 -25 126 -8 97 -24 137 -73 183 -54 51 -167 68 -253 38z
m164 -93 c50 -37 64 -67 71 -154 4 -46 11 -92 15 -103 13 -33 252 -438 332
-564 l54 -84 -118 5 c-129 4 -192 25 -261 83 -72 60 -132 187 -132 278 0 96
-54 203 -125 249 l-35 23 0 95 c0 77 4 101 20 128 43 69 120 89 179 44z m-150
-441 c10 -20 22 -67 26 -104 32 -310 187 -440 521 -440 l122 -1 31 -54 31 -54
-227 4 c-201 4 -236 8 -297 27 -82 27 -142 63 -185 112 -61 71 -65 91 -69 343
-3 213 -2 229 13 216 9 -7 25 -30 34 -49z m329 -741 c21 0 22 -3 22 -110 l0
-110 -45 0 -45 0 0 116 c0 116 0 116 23 110 12 -3 32 -6 45 -6z m490 -45 c18
-25 32 -50 32 -55 0 -27 -110 -42 -149 -20 -11 5 -22 26 -25 47 -4 21 -9 46
-12 56 -5 15 2 17 58 17 l64 0 32 -45z"/>
</g>
</svg>
