<?xml version="1.0" encoding="UTF-8"?>
<svg id="Layer_1" xmlns="http://www.w3.org/2000/svg" version="1.1" viewBox="0 0 192 192">
  <!-- Generator: Adobe Illustrator 29.0.0, SVG Export Plug-In . SVG Version: 2.1.0 Build 186)  -->
  <defs>
    <style>
      .st0 {
        stroke: #000;
        stroke-miterlimit: 10;
        stroke-width: 2px;
      }
    </style>
  </defs>
  <path class="st0" d="M152.2,127c-4.5,0-6.4-3.2-8-6.7-2-4.3-3.8-8.9-5.4-13.4-.8-2.1-1.6-4.2-2.4-6.3,0,0,0,0,0,0s0,0,0,0c0,.2-.1.3-.2.5,0,.1,0,.3-.1.4-.5,1.1-1.2,3-2,5.2-2.5,6.9-6,16.3-8,18.2-2.1,2-4.9,1.9-7.6,1.7,0,0-.1,0-.2,0-6.6-1.9-13.6-3.4-20.4-4.9-7.5-1.7-15.3-3.4-22.7-5.6,0,0-.3,0-.6-.1-1-.2-1.1-.3-1.2-.4-.1-.2-.2-.5,0-1,0-.2.4-.8.9-.8h26.8s0,0,0,0c0,0,0,0,0,0l-50.2-9.3c-.6,0-1.1-.3-1.4-.7-.3-.4-.4-.8-.3-1.1,0-.2.3-.4.8-.4h43.8s0,0,0,0c0,0,0,0,0,0l-78.3-11.6c-.5,0-.9-.5-.9-1h0c0-.6.5-1.1,1-1.1h72.5s0,0,0,0c0,0,0,0,0,0l-55.7-7.4c-.5,0-.9-.5-.9-1h0c0-.6.5-1.1,1-1.1h17.3c11.9,0,23.7,0,35.6,0,2.6,0,5.1,0,7.7,0,0,0,.1,0,.2,0,0,0,0,0,0,0,0,0,0,0,0,0h0c-.1,0-.3-.1-.4-.2-2.6-.8-5.2-1.6-7.8-2.3-4.1-1.2-8.3-2.5-12.5-3.7-.3,0-.5-.3-.6-.5-.1-.3-.1-.6,0-.8.1-.4.5-.6.9-.6l33.1-.2h0c4.4.4,6,2.4,7.6,6,1.4,3.2,2.4,6.8,3.4,10.2,1.1,3.7,2.2,7.6,3.7,10.9,0,0,0,0,0,0,.9-2.4,1.7-4.8,2.5-7.2,1.3-4,2.7-8.1,4.3-12,0-.2.2-.4.3-.6.8-1.9,1.9-4.5,3.4-5.7,2-1.5,4.8-2,7.4-1.4,2.3.6,4,2.1,4.8,4.1h0s8.5,22,8.5,22c0,0,0,0,0,0,0,0,0,0,0,0,.5-1.6,1-3.2,1.4-4.8,1-3.3,2-6.8,3.1-10.2.2-.4.3-1,.5-1.5.9-2.8,2.1-6.7,4.1-8.2,2.8-2.2,6.4-2.3,9.5-.2,3.1,2.1,4.5,5.6,3.7,9,0,0,0,.1,0,.2-1.8,5-3.5,10.1-5.1,15-2.4,7.2-4.9,14.7-7.7,21.9-.1.4-.3.8-.4,1.2-1.4,3.7-3,7.8-8.1,8.2-.2,0-.5,0-.7,0ZM136.3,99.5c.4,0,.8.3,1,.6.8,2.1,1.6,4.3,2.4,6.3,1.7,4.4,3.4,9,5.4,13.3,1.7,3.5,3.4,6.4,7.8,6.1,4.5-.3,5.9-3.8,7.3-7.6.1-.4.3-.8.4-1.2,2.8-7.2,5.3-14.7,7.7-21.9,1.6-5,3.3-10.1,5.1-15.1h0c.8-3-.5-6.2-3.3-8-2.1-1.4-5.5-2.1-8.4.2-1.8,1.4-2.9,5.1-3.8,7.8-.2.6-.3,1.1-.5,1.5-1.1,3.3-2.2,6.8-3.1,10.1-.5,1.6-1,3.2-1.4,4.8-.1.4-.5.7-1,.7-.4,0-.8-.2-1-.7l-8.5-22c-.7-1.7-2.2-3-4.2-3.5-2.3-.6-4.8-.1-6.6,1.2-1.4,1-2.4,3.5-3.1,5.3,0,.2-.2.4-.3.6-1.6,3.9-3,8-4.3,11.9-.8,2.5-1.7,5.1-2.6,7.7v.3c0,0-.4,0-.4,0-.5,0-.8,0-1-.1-.2-.2-.2-.4-.2-.5,0,0,0-.1,0-.1-1.5-3.3-2.6-7.2-3.7-11-1-3.4-2-7-3.3-10.1-1.4-3.4-2.8-5.1-6.7-5.4h0l-33,.2s0,0,0,0c0,0,0,0,0,0,0,0,0,0,0,0,4.2,1.2,8.4,2.4,12.5,3.7,2.5.8,5.2,1.6,7.7,2.3.2,0,.4.1.7.3h0c.1,0,.2.2.3.2.2.2.3.5.3.8,0,.3-.1.5-.3.6-.3.2-.6.2-.8.2-2.6,0-5.1,0-7.7,0-11.9,0-23.7,0-35.6,0h-17.3s0,0,0,0h0c0,0,0,.1,0,.1l55.7,7.4c.6,0,.9.5.9,1.1,0,.6-.5,1-1,1H15.6s0,0,0,0h0c0,0,0,.1,0,.1l78.3,11.6c.5,0,.9.5.9,1.1,0,.5-.5.9-1,.9h-43.6c0,0,.2.2.3.3.1,0,.3.1.3.1h0s0,0,0,0l50.3,9.3c.5,0,.9.6.8,1.1,0,.5-.5.9-1,.9h-26.7c0,0-.1.1-.2.2.2,0,.4,0,.6.1.3,0,.5.1.6.2,7.3,2.2,15.1,3.9,22.6,5.6,6.8,1.5,13.8,3,20.5,4.9h0c2.5.3,5,.3,6.8-1.4,1.8-1.7,5.4-11.4,7.8-17.8.8-2.2,1.5-4.1,2-5.3,0,0,0-.2.1-.3,0-.2.1-.3.2-.5.2-.4.5-.7,1-.7ZM73.8,114.7h0,0ZM49.9,102.9h0Z"/>
</svg>