<svg width="192" height="192" viewBox="0 0 192 192" fill="none" xmlns="http://www.w3.org/2000/svg"><path d="M62 44c6 60-39 55-39 55m145 2c-8 21-56 19-50 51m26-107c-20 11 2 36-22 60s-58 0-87 31" stroke="#000" stroke-width="10" stroke-linecap="round" stroke-linejoin="round"/><path d="M168.298 76.55c8.675 32.504-16.662 67.561-56.591 78.303-39.929 10.741-79.33-6.9-88.005-39.404-8.675-32.503 16.662-67.56 56.59-78.302 39.93-10.741 79.331 6.9 88.006 39.404Z" stroke="#000" stroke-width="12" stroke-linecap="round" stroke-linejoin="round"/><path d="M113.66 80.037c1.993 6.447-4.97 13.67-15.551 16.136-10.582 2.464-20.776-.764-22.769-7.21-1.993-6.447 4.97-13.67 15.551-16.136 10.582-2.464 20.776.764 22.769 7.21Z" stroke="#000" stroke-width="10" stroke-linecap="round" stroke-linejoin="round"/><path d="m101 50 1 3m-15 1 5 4m17 3 6-3" stroke="#000" stroke-width="6" stroke-linecap="round" stroke-linejoin="round"/></svg>