<svg xmlns="http://www.w3.org/2000/svg" width="192" height="192" fill="none"><path stroke="#000" stroke-linecap="round" stroke-linejoin="round" stroke-width="10" d="M90 48.5 85 44l-4 5-4-3-3.5 6-5.5-2-2.5 6-4.5-2-3.5 7-5.5-1-.5 6.5L47 69l-.5 6-4.5 2-3.5 5.5L33 80l-5.5 2.5-6.5 6.875 2 5.375-2 5.375 1 5.375-.5 5.375 1.5 5.375-2 5.375L27 127l2 9h6l2 6 5-3 5 5 3-4 6 1h6l6 5 3-1 6 3 6.5-4.5 6.25 2.75L96 142l4 5 8.5-4.5 8.5 4.5 4-7 6 4 4-3 5 1 6-2 3 4 5-6 5 3 2-5 7-1 1-7 4-6.25 2-5.25-1.5-5.25.5-5.25-1.5-6.25 2.5-4.25-1-5.25-4.5-3.25-3.5-6-4.5 2-3.5-2-3-1-1-3-4-1.5V70l-4.5-1-.5-5-4 .5-2-5.5-4.5.5L128 54l-6 .5-2-5.5-5 1-3-5-5 3.5-3-4.5-4.5 4.5L95 45z"/><path stroke="#000" stroke-linecap="round" stroke-linejoin="round" stroke-width="8" d="M78 72h8v8h-8z"/><path stroke="#000" stroke-linecap="round" stroke-linejoin="round" stroke-width="10" d="M69 97c-4 0-4 8-4 8 0 17 23 18 31 18s31-1 31-18c0 0 0-8-4-8-3 0-15.5 3-27 3s-24-3-27-3"/><path stroke="#000" stroke-linecap="round" stroke-linejoin="round" stroke-width="8" d="M106 72h8v8h-8z"/><path stroke="#000" stroke-linecap="round" stroke-linejoin="round" stroke-width="6" d="M93 100h6v6h-6z"/></svg>