<?xml version="1.0" standalone="no"?>
<!DOCTYPE svg PUBLIC "-//W3C//DTD SVG 20010904//EN"
 "http://www.w3.org/TR/2001/REC-SVG-20010904/DTD/svg10.dtd">
<svg version="1.0" xmlns="http://www.w3.org/2000/svg"
 width="192.000000pt" height="192.000000pt" viewBox="0 0 192.000000 192.000000"
 preserveAspectRatio="xMidYMid meet">

<g transform="translate(0.000000,192.000000) scale(0.100000,-0.100000)"
fill="#000000" stroke="none">
<path d="M900 1741 c-14 -5 -47 -18 -73 -30 -26 -11 -87 -27 -136 -35 -114
-18 -140 -33 -203 -112 -28 -36 -82 -90 -119 -120 -83 -66 -98 -93 -115 -204
-7 -47 -24 -112 -39 -145 -42 -96 -43 -135 -3 -240 19 -50 38 -119 42 -155 10
-95 37 -143 113 -200 36 -27 89 -81 119 -119 63 -81 107 -106 204 -116 36 -4
104 -22 152 -41 48 -19 102 -34 119 -34 17 0 65 14 107 31 43 17 117 37 166
44 106 17 143 38 206 122 25 33 76 84 114 113 80 62 99 98 115 212 6 42 22
103 37 135 41 93 42 145 5 234 -18 42 -36 109 -43 154 -14 106 -35 144 -116
209 -38 30 -92 84 -120 120 -63 79 -89 94 -204 112 -49 8 -115 26 -146 40 -62
28 -142 39 -182 25z m157 -130 c38 -15 96 -31 128 -35 101 -12 120 -22 175
-92 27 -35 79 -87 114 -114 69 -54 80 -74 91 -170 4 -30 20 -88 36 -128 36
-91 36 -112 0 -199 -15 -38 -31 -96 -35 -128 -12 -102 -21 -119 -94 -174 -37
-29 -87 -79 -112 -112 -25 -33 -53 -65 -62 -70 -9 -5 -52 -14 -94 -20 -43 -6
-110 -24 -151 -40 -40 -16 -82 -29 -93 -29 -11 0 -53 13 -94 30 -41 16 -98 32
-128 36 -110 13 -122 19 -178 93 -29 38 -81 90 -115 115 -69 51 -79 69 -90
171 -4 33 -20 91 -36 129 -36 85 -36 107 0 192 16 38 32 96 36 129 11 101 21
120 91 175 35 27 87 79 114 114 55 70 74 80 174 92 33 4 89 19 125 35 84 35
113 35 198 0z"/>
<path d="M527 1222 c-25 -28 -22 -38 33 -97 l51 -53 -25 -37 c-57 -83 -91
-232 -62 -270 14 -19 28 -20 421 -23 471 -3 455 -6 455 77 0 62 -32 164 -66
215 l-26 38 46 47 c47 48 58 85 34 109 -23 23 -54 12 -103 -38 -42 -43 -51
-48 -64 -36 -34 30 -124 67 -190 78 -112 19 -220 -5 -328 -72 -20 -13 -26 -10
-72 33 -54 51 -79 57 -104 29z m587 -121 c92 -45 164 -136 183 -231 l5 -29
-278 -3 c-154 -2 -307 -2 -341 0 -57 3 -63 5 -63 25 0 30 41 115 74 154 102
121 275 156 420 84z"/>
</g>
</svg>
