<svg width="192" height="193" viewBox="0 0 192 193" fill="none" xmlns="http://www.w3.org/2000/svg">
<path d="M163.092 55.0519H98.9222C91.3327 54.6724 76.4192 39 67.8431 39H30.2748C29.1884 38.9997 28.1126 39.2134 27.1089 39.6288C26.105 40.0443 25.193 40.6534 24.4245 41.4214C23.6561 42.1893 23.0465 43.1012 22.6305 44.1047C22.2145 45.1083 22.0003 46.184 22 47.2704C22 47.3344 22 47.3982 22.0022 47.4623V75.1263H169.998V62.1481C170.019 61.2362 169.859 60.3293 169.529 59.4792C169.198 58.6291 168.703 57.8523 168.073 57.1934C167.442 56.5345 166.688 56.0061 165.853 55.6387C165.019 55.2713 164.119 55.0719 163.207 55.0519H163.092Z" stroke="black" stroke-width="12" stroke-linecap="round" stroke-linejoin="round"/>
<path d="M169.998 75.0883H22.0022V146.126C21.9922 147.213 22.1963 148.291 22.6028 149.298C23.0093 150.305 23.6103 151.223 24.3715 151.998C25.1326 152.773 26.0389 153.392 27.0388 153.816C28.0387 154.241 29.1125 154.465 30.1989 154.475H30.2369H161.726C163.92 154.475 166.023 153.603 167.575 152.052C169.126 150.501 169.998 148.396 169.998 146.202V146.126V75.0883Z" stroke="black" stroke-width="12" stroke-linecap="round" stroke-linejoin="round"/>
<path d="M105.616 121.341C102.939 119.106 99.5648 117.877 96.0774 117.868C92.5898 117.859 89.2089 119.069 86.5198 121.289V121.341" stroke="black" stroke-width="8" stroke-linecap="round" stroke-linejoin="round"/>
<path d="M96.0304 127.461C94.8451 127.461 93.6864 127.812 92.7007 128.471C91.7152 129.129 90.9469 130.065 90.4933 131.16C90.0396 132.255 89.9209 133.46 90.1521 134.622C90.3833 135.785 90.954 136.853 91.7922 137.692C92.6303 138.529 93.6982 139.1 94.8607 139.332C96.0233 139.563 97.2283 139.444 98.3235 138.991C99.4186 138.537 100.355 137.768 101.013 136.783C101.671 135.798 102.023 134.639 102.023 133.454C102.023 131.864 101.392 130.34 100.268 129.216C99.1441 128.092 97.6199 127.461 96.0304 127.461Z" stroke="black" stroke-width="6" stroke-linecap="round" stroke-linejoin="round"/>
<path d="M114.731 110.979C109.467 106.637 102.855 104.261 96.0303 104.261C89.2055 104.261 82.5935 106.637 77.3289 110.979" stroke="black" stroke-width="8" stroke-linecap="round" stroke-linejoin="round"/>
<path d="M123.717 100.104C115.923 93.6477 106.121 90.115 96.0001 90.115C85.8798 90.115 76.0769 93.6477 68.2831 100.104" stroke="black" stroke-width="8" stroke-linecap="round" stroke-linejoin="round"/>
</svg>
