<svg width="192" height="192" viewBox="0 0 192 192" fill="none" xmlns="http://www.w3.org/2000/svg"><path d="m52 74 14 46 30-34 30 34 14-46" stroke="#000" stroke-width="12" stroke-linecap="round" stroke-linejoin="round"/><path d="M50.952 37.292A74 74 0 0 1 96 22c14.043 0 27.838 1.663 40 4.823 4.645 1.207 8.989 2.616 12.976 4.201l-6.995 6.995A74 74 0 0 1 96 170c-14.043 0-27.838-1.663-40-4.823-4.645-1.207-8.99-2.616-12.976-4.201l6.995-6.995a74.006 74.006 0 0 1-25.497-77.134 74.001 74.001 0 0 1 26.43-39.555Z" stroke="#000" stroke-width="12" stroke-linecap="round" stroke-linejoin="round"/></svg>