<svg xmlns="http://www.w3.org/2000/svg" width="192" height="192" fill="none"><path stroke="#000" stroke-linecap="round" stroke-linejoin="round" stroke-width="12" d="M21 65a6 6 0 0 1 6-6h2V40.231a6 6 0 0 1 .485-2.363l3.956-9.232A6 6 0 0 1 38.956 25h32.088a6 6 0 0 1 5.514 3.637l2.883 6.727A6 6 0 0 0 84.957 39H165a6 6 0 0 1 6 6v112a6 6 0 0 1-6 6H27a6 6 0 0 1-6-6z"/><path stroke="#000" stroke-linecap="round" stroke-linejoin="round" stroke-width="12" d="M29 59h91l6-20"/><circle cx="96" cy="140" r="4" stroke="#000" stroke-linecap="round" stroke-linejoin="round" stroke-width="8"/><path stroke="#000" stroke-linecap="round" stroke-linejoin="round" stroke-width="10" d="M59.23 96.23a52 52 0 0 1 73.54 0"/><path stroke="#000" stroke-linecap="round" stroke-linejoin="round" stroke-width="10" d="M73.373 108.373a31.997 31.997 0 0 1 45.254 0m-29.698 11.556a10 10 0 0 1 14.142 0"/></svg>