<?xml version="1.0" encoding="utf-8"?>
	<svg version="1.1" xmlns="http://www.w3.org/2000/svg" xmlns:xlink="http://www.w3.org/1999/xlink" x="0px" y="0px" width="240.0" height="240.0" xml:space="preserve">
		<path d="M122.952,64.45C124.466,66.141 125.401,68.076 125.387,70.404C125.372,72.776 125.429,75.149 125.375,77.52C125.342,78.967 125.941,79.552 127.386,79.536C131.113,79.494 134.841,79.505 138.568,79.539C142.581,79.575 145.055,82.087 145.082,86.128C145.101,88.839 144.986,91.553 145.099,94.259C145.286,98.714 142.096,100.842 138.133,101.056C134.641,101.244 131.13,101.159 127.631,101.073C125.952,101.031 125.332,101.609 125.355,103.32C125.43,108.966 125.383,114.615 125.383,120.262C125.38,125.797 125.405,131.332 125.361,136.866C125.351,138.219 125.669,139.016 127.152,139.409C132.646,140.866 137.755,143.229 142.321,146.625C149.161,151.713 154.235,158.142 157.234,166.22C159.453,172.2 159.785,178.367 159.168,184.539C158.557,190.648 156.283,196.285 152.824,201.439C147.976,208.665 141.534,213.922 133.59,217.347C129.925,218.928 126.104,219.937 122.118,220.553C119.129,221.014 116.174,221.162 113.202,221.056C104.405,220.743 96.255,218.249 88.935,213.314C82.702,209.111 77.862,203.64 74.468,196.903C70.823,189.67 69.554,181.877 70.783,174.055C73.112,159.243 81.716,148.789 95.075,142.223C97.434,141.063 99.994,140.269 102.522,139.509C104.077,139.041 104.476,138.197 104.472,136.679C104.428,121.77 104.445,106.86 104.445,91.95C104.445,84.947 104.576,77.941 104.406,70.942C104.285,65.987 106.927,62.642 111.28,61.593C115.542,60.566 119.721,60.84 122.952,64.45ZM105.99,160.744C100.89,162.729 96.665,165.734 93.839,170.442C89.428,177.79 91.172,187.234 97.363,192.934C102.458,197.625 108.317,199.834 115.182,199.625C116.984,199.538 118.84,199.702 120.576,199.317C126.241,198.061 130.957,195.157 134.675,190.653C138.367,186.179 139.305,180.91 138.108,175.533C136.032,166.209 127.085,160.468 118.815,159.515C114.537,159.022 110.191,159.107 105.99,160.744ZM32,19.119C34.868,19.068 37.642,19.103 39.956,21.175C41.814,22.838 43.083,24.729 43.461,27.3C44.188,32.243 42.072,35.982 38.954,39.5C31.748,47.629 26.765,56.968 23.655,67.399C21.185,75.683 20.613,84.102 21.144,92.624C21.373,96.303 22.291,99.932 23.218,103.513C24.691,109.204 26.818,114.654 29.72,119.776C32.389,124.486 35.276,129.046 38.935,133.082C41.76,136.197 43.86,139.572 43.445,144.127C43.032,148.656 38.831,152.874 34.322,153.353C29.035,153.914 25.943,150.807 23.003,147.254C19.444,142.953 16.175,138.443 13.249,133.684C10.107,128.576 7.746,123.104 5.601,117.525C3.84,112.946 2.504,108.233 1.668,103.417C1.259,101.06 0.97,98.644 0.648,96.266C0.169,92.72 0.135,89.196 0.039,84.155C-0.105,81.586 0.145,77.534 0.849,73.536C2.155,66.119 3.825,58.811 6.753,51.804C10.41,43.052 15.287,35.08 21.063,27.593C22.798,25.344 24.765,23.35 26.701,21.305C28.143,19.781 29.899,19.157 32,19.119ZM64.529,41.207C69.86,39.452 76.473,43.769 77.373,49.334C78.089,53.762 76.546,57.129 73.769,60.375C69.51,65.352 66.423,70.967 64.927,77.452C64.211,80.552 63.656,83.603 63.745,86.788C63.941,93.836 66.186,100.218 69.763,106.225C71.417,109.003 73.634,111.34 75.454,113.98C79.578,119.962 77.779,128.104 70.45,130.569C66.912,131.759 63.289,131.322 60.349,128.531C57.133,125.479 54.674,121.831 52.292,118.139C49.191,113.334 46.77,108.192 45.25,102.669C44.478,99.865 43.816,97.038 43.374,94.137C42.954,91.383 42.83,88.655 42.785,85.891C42.789,77.672 44.725,69.876 47.932,62.351C50.491,56.346 53.926,50.928 58.185,45.956C60.004,43.833 61.851,42.089 64.529,41.207ZM201.726,20.03C204.904,18.176 210.96,18.913 213.548,21.535C221.517,29.61 227.578,38.996 232.227,49.29C235.057,55.557 237.095,62.124 238.4,68.874C238.822,71.057 239.082,73.314 239.375,75.535C239.863,79.245 239.935,82.939 239.974,87.375C240.175,92.765 239.179,98.732 238.064,104.719C236.065,115.452 231.755,125.25 226.214,134.519C222.924,140.022 218.918,145.054 214.678,149.9C209.343,155.997 199.331,153.552 197.131,146.653C195.925,142.869 196.16,139.035 198.937,135.821C203.669,130.345 207.802,124.463 211.216,118.078C214.374,112.172 216.336,105.863 217.734,99.335C219.043,93.221 219.408,87.029 218.887,80.858C218.313,74.067 216.743,67.432 214.232,61.052C211.467,54.024 207.625,47.613 203.022,41.665C202.536,41.038 202.022,40.431 201.501,39.829L200.718,38.926C199.547,37.571 198.403,36.195 197.55,34.607C194.607,29.133 196.588,23.028 201.726,20.03ZM164.208,45.405C166.076,42.437 170.948,40.174 174.538,41.014C177.046,41.601 179.283,42.811 181.052,44.958C184.249,48.838 187.296,52.796 189.644,57.25C192.034,61.785 194.089,66.444 195.286,71.474C196.424,76.249 197.481,81.011 197.275,85.978C197.015,96.856 194.34,107.039 188.708,116.446C186.176,120.674 183.442,124.733 179.974,128.215C175.034,133.175 166.156,131.554 163.333,125.122C161.676,121.347 161.892,117.463 164.508,114.049C167.489,110.159 170.624,106.381 172.605,101.835C174.024,98.578 175.125,95.242 175.733,91.711C176.05,89.867 176.333,88.051 176.272,86.195C176.018,78.492 173.977,71.371 169.607,64.922C167.865,62.352 165.743,60.078 164.094,57.46C161.568,53.447 161.69,49.405 164.208,45.405Z" fill="#000" stroke="#00000000" stroke-width="1.0" stroke-miterlimit=""/>
	</svg>
