<svg width="192" height="192" viewBox="0 0 192 192" fill="none" xmlns="http://www.w3.org/2000/svg"><path d="M22 74s13.333-12 35-12 37 12 37 12m-49 40s4.815-4 12.639-4H64M35 94s8.519-8 22.361-8c6.921 0 12.831 2 17.01 4" stroke="#000" stroke-width="12" stroke-linecap="round" stroke-linejoin="round"/><path d="m146 90 25-1s-21 49-110 49c0 0 25-10 19-22-13.5 3-32-10 17-42h19l-4-8c10 16 8-32 48-8l-14 32Z" stroke="#000" stroke-width="10" stroke-linecap="round" stroke-linejoin="round"/><path d="M80 116s32-5 32-15.5C112 92 97 95 97 95" stroke="#000" stroke-width="10" stroke-linecap="round" stroke-linejoin="round"/><path d="M146 91s-27-4-30-21m38 1-12-4" stroke="#000" stroke-width="8" stroke-linecap="round" stroke-linejoin="round"/></svg>