<svg width="192" height="192" viewBox="0 0 192 192" fill="none" xmlns="http://www.w3.org/2000/svg"><path d="M138 101.652c2.84.313 5.209 1.448 6.885 3.31 1.875 2.082 2.809 4.99 2.695 8.396-.114 3.406-1.27 7.173-3.338 10.875-2.068 3.703-4.966 7.192-8.364 10.074-3.399 2.882-7.164 5.042-10.868 6.234-3.704 1.193-7.201 1.371-10.094.514-2.892-.856-5.066-2.713-6.275-5.36-1.072-2.35-1.347-5.238-.808-8.402" stroke="#000" stroke-width="12" stroke-linecap="round" stroke-linejoin="round"/><path d="m90 82 36 36" stroke="#000" stroke-width="10" stroke-linecap="round" stroke-linejoin="round"/><path d="M108.64 135.699c3.36 7.3 25.36 34.3 25.36 34.3m10.89-65.038c13.11 11.04 25.11 21.04 25.11 21.04" stroke="#000" stroke-width="12" stroke-linecap="round" stroke-linejoin="round"/><circle cx="90" cy="82" r="5" stroke="#000" stroke-width="10" stroke-linecap="round" stroke-linejoin="round"/><path d="M61.444 21a54.514 54.514 0 0 0-19.095 9.44A54.663 54.663 0 0 0 28.31 46.49 54.841 54.841 0 0 0 22.86 88m44.338-45.472a32.302 32.302 0 0 0-11.316 5.594 32.392 32.392 0 0 0-8.319 9.51 32.496 32.496 0 0 0-3.23 24.6M71 64.58a8.078 8.078 0 0 0-4.909 3.776 8.119 8.119 0 0 0-.807 6.15" stroke="#000" stroke-width="10" stroke-linecap="round" stroke-linejoin="round"/></svg>