<svg xmlns="http://www.w3.org/2000/svg" width="192" height="192" fill="none"><path stroke="#000" stroke-linecap="round" stroke-linejoin="round" stroke-width="12" d="M120 128a6 6 0 0 1 6-6h36a6 6 0 0 1 6 6v22a6 6 0 0 1-6 6h-36a6 6 0 0 1-6-6zm11-29v22M42.956 87.288A88.6 88.6 0 0 1 62.37 76.492 90.2 90.2 0 0 1 96 70a90.4 90.4 0 0 1 24 3.242M42.956 87.288 96 153l2-2.478M42.956 87.288 22 61.328a120.5 120.5 0 0 1 27.914-16.194A120.8 120.8 0 0 1 96 36a120.8 120.8 0 0 1 46.086 9.135A120.5 120.5 0 0 1 170 61.327l-6.597 8.173M157 99a13 13 0 0 0-3.808-9.192A13 13 0 0 0 131 99"/></svg>