<svg xmlns="http://www.w3.org/2000/svg" width="192" height="192" fill="none"><path stroke="#000" stroke-linecap="round" stroke-linejoin="round" stroke-width="12" d="M138 101.652c2.84.313 5.209 1.448 6.885 3.31 1.875 2.082 2.809 4.99 2.695 8.396s-1.27 7.173-3.338 10.875-4.966 7.192-8.364 10.074-7.164 5.042-10.868 6.234-7.201 1.371-10.094.514c-2.892-.856-5.066-2.713-6.275-5.36-1.072-2.35-1.347-5.238-.808-8.402"/><path stroke="#000" stroke-linecap="round" stroke-linejoin="round" stroke-width="10" d="m90 82 36 36"/><path stroke="#000" stroke-linecap="round" stroke-linejoin="round" stroke-width="12" d="M108.64 135.699c3.36 7.3 25.36 34.3 25.36 34.3m10.89-65.038c13.11 11.04 25.11 21.04 25.11 21.04"/><circle cx="90" cy="82" r="5" stroke="#000" stroke-linecap="round" stroke-linejoin="round" stroke-width="10"/><path stroke="#000" stroke-linecap="round" stroke-linejoin="round" stroke-width="10" d="M61.444 21a54.5 54.5 0 0 0-19.095 9.44A54.7 54.7 0 0 0 28.31 46.49 54.84 54.84 0 0 0 22.86 88m44.338-45.472a32.3 32.3 0 0 0-11.316 5.594 32.4 32.4 0 0 0-8.319 9.51 32.5 32.5 0 0 0-3.23 24.6M71 64.58a8.08 8.08 0 0 0-4.909 3.776 8.12 8.12 0 0 0-.807 6.15"/><path stroke="#000" stroke-linecap="round" stroke-linejoin="round" stroke-miterlimit="6" stroke-width="10" d="M65.224 106.103a2.884 2.884 0 0 1 5.552 0l2.248 7.215c.391 1.253 1.512 2.102 2.776 2.102h7.276c2.827 0 4.003 3.773 1.715 5.506l-5.886 4.459c-1.023.775-1.45 2.149-1.06 3.403l2.248 7.214c.874 2.804-2.204 5.136-4.492 3.403l-5.885-4.459a2.82 2.82 0 0 0-3.432 0l-5.886 4.459c-2.287 1.733-5.365-.599-4.491-3.403l2.248-7.214c.39-1.254-.037-2.628-1.06-3.403l-5.886-4.459c-2.288-1.733-1.112-5.506 1.715-5.506H60.2c1.264 0 2.385-.849 2.776-2.102z"/></svg>