<svg width="24" height="24" version="1.1" viewBox="0 0 6.35 6.35" xmlns="http://www.w3.org/2000/svg">
    <path d="M3.998 1.499H3.45l-.014.01v.096c0 .011.005.02.015.028.01.007.02.01.031.01l.044.006c.112.005.164.034.18.052.026.033.04.068-.025.21l-.387.771-.35-.716c-.115-.228-.143-.299.03-.312l.068-.01c.033 0 .05-.012.05-.035v-.1l-.026-.008h-.942l-.014.01v.1c0 .023.023.029.068.034.162.022.159.039.32.356l.094.191.364.716.107.235-.531 1.058-.03-.008S1.68 2.46 1.442 1.88a.39.39 0 0 1-.036-.132c0-.06.054-.091.16-.096l.123-.005c.033 0 .05-.012.05-.039v-.095l-.01-.01s-.986-.001-1.19 0l-.01.01v.1c0 .018.022.029.068.034.125.007.207.027.247.06.039.034.081.118.136.25.3.719.934 2 1.244 2.73.089.2.201.23.337-.006.153-.282.42-.831.628-1.26.194.428.443.975.58 1.258.101.208.216.229.333.006.304-.677 1.194-2.715 1.194-2.715a.543.543 0 0 1 .162-.233c.069-.055.175-.086.318-.092.03 0 .044-.014.044-.04V1.51l-.011-.01H4.715l-.013.01v.096c0 .01.005.02.015.027.01.008.02.012.032.012l.09.004c.113.005.143.027.187.065.043.039.048.104.015.197l-.969 2.297-.037-.01-.614-1.258.014-.03.503-.94c.058-.098.115-.187.143-.228.053-.076.082-.09.225-.097.03 0 .044-.013.044-.039V1.51l-.01-.01h-.342v-.001z"/>
</svg>
