<svg width="192" height="192" viewBox="0 0 50.8 50.8" xmlns="http://www.w3.org/2000/svg"><g style="display:inline"><g style="display:inline;stroke-width:.879477"><path style="fill:none;stroke:#000;stroke-width:10.8109;stroke-linecap:round;stroke-linejoin:round;stroke-miterlimit:4;stroke-dasharray:none;stroke-opacity:1" d="m35.684 49.707 39.875 89.56 47.62-89.56" transform="matrix(.29284 0 0 .29453 -2.8 -1.01)"/><path style="fill:none;stroke:#000;stroke-width:10.8109;stroke-linecap:round;stroke-linejoin:round;stroke-miterlimit:4;stroke-dasharray:none;stroke-opacity:1" d="m79.2 49.707 43.933 89.56 38.627-89.56" transform="matrix(.29284 0 0 .29453 -2.8 -1.01)"/><path style="fill:none;stroke:#000;stroke-width:8.3921;stroke-linecap:round;stroke-linejoin:round;stroke-miterlimit:4;stroke-dasharray:none;stroke-opacity:1" d="M25.998 49.707h23.746" transform="matrix(.37724 0 0 .37942 -6.637 -5.23)"/><path style="fill:none;stroke:#000;stroke-width:8.30325;stroke-linecap:round;stroke-linejoin:round;stroke-miterlimit:4;stroke-dasharray:none;stroke-opacity:1" d="M71.033 49.707h19.815" transform="matrix(.38128 0 0 .38348 -10.469 -5.431)"/><path style="fill:none;stroke:#000;stroke-width:8.41527;stroke-linecap:round;stroke-linejoin:round;stroke-miterlimit:4;stroke-dasharray:none;stroke-opacity:1" d="M115.277 49.707h17.031" transform="matrix(.3762 0 0 .37838 -13.313 -5.152)"/><path style="fill:none;stroke:#000;stroke-width:10.4052;stroke-linecap:round;stroke-linejoin:round;stroke-miterlimit:4;stroke-dasharray:none;stroke-opacity:1" d="M152.151 49.707h20.116" transform="matrix(.30426 0 0 .30602 -4.784 -1.58)"/></g></g></svg>