<svg xmlns="http://www.w3.org/2000/svg" xml:space="preserve" width="192" height="192" fill="none"><g style="fill:none;stroke-width:4.42227;stroke-dasharray:none"><path fill="#fff" d="m4.955 18.904 6.492 23.921 6.957-23.924 8.105 24.052 6.52-24.044m26.467 17.419c0 2.064-.736 3.779-2.238 5.145-1.503 1.366-3.27 2.064-5.45 2.064h-10.93V18.333h10.134c2.092 0 3.859.698 5.302 2.006 1.474 1.337 2.181 2.994 2.181 4.971 0 2.21-.884 3.895-2.592 5.146 2.238 1.162 3.593 3.255 3.593 5.872z" style="fill:none;stroke:#000;stroke-width:4.42227;stroke-linecap:round;stroke-linejoin:round;stroke-dasharray:none;stroke-opacity:1" transform="translate(8.553 12.056) scale(2.71356)"/><path d="M56.118 30.375H41.623" style="fill:none;fill-opacity:1;stroke:#000;stroke-width:4.42227;stroke-linecap:round;stroke-linejoin:round;stroke-miterlimit:5;stroke-dasharray:none;stroke-opacity:1" transform="translate(8.553 12.056) scale(2.71356)"/></g></svg>