<svg width="192" height="192" fill="none" xmlns="http://www.w3.org/2000/svg"><circle cx="162" cy="56" r="6" stroke="#000" stroke-width="12" stroke-linecap="round" stroke-linejoin="round"/><path d="M54 146V50l-32 2s6 7 6 17v44c0 28 18 33 26 33Zm0 0c7 0 42 0 42-41" stroke="#000" stroke-width="12" stroke-linecap="round" stroke-linejoin="round"/><path d="M122 146V50l-32 2s6 7 6 17v44c0 28 16 33 26 33Zm0 0c12.447 0 48 0 48-79 0-8-2.54-13.5-2.54-13.5" stroke="#000" stroke-width="12" stroke-linecap="round" stroke-linejoin="round"/><path d="M169.46 83c0-8-13.46-15-13.46-27" stroke="#000" stroke-width="12" stroke-linecap="round" stroke-linejoin="round"/></svg>