<svg xmlns="http://www.w3.org/2000/svg" width="192" height="192" fill="none"><path stroke="#000" stroke-linecap="round" stroke-linejoin="round" stroke-width="12" d="m96.147 128.961-23.023 13.287a6.135 6.135 0 0 1-8.38-2.244L22.823 67.421a6.13 6.13 0 0 1 2.245-8.378l17.71-10.22a6.136 6.136 0 0 1 8.38 2.244l6.646 11.507m38.343 66.387L57.804 62.574m38.343 66.387 6.646 11.507a6.136 6.136 0 0 0 8.38 2.245l23.023-13.287M57.804 62.574l23.023-13.287a6.136 6.136 0 0 1 8.38 2.245l6.646 11.507m38.343 66.387L95.853 63.039m38.343 66.387 6.646 11.507a6.135 6.135 0 0 0 8.38 2.244l17.71-10.221a6.13 6.13 0 0 0 2.245-8.377l-41.921-72.583a6.136 6.136 0 0 0-8.38-2.244L95.853 63.039"/></svg>