<svg xmlns="http://www.w3.org/2000/svg" width="192" height="192" fill="none" stroke="#000" stroke-linecap="round" stroke-linejoin="round" stroke-width="12" viewBox="0 0 192 192"><path d="M144 170H48m48-36v36m48-72c0 4.728-1.242 9.409-3.654 13.777s-5.948 8.336-10.405 11.679-9.749 5.994-15.572 7.804C108.545 133.069 102.303 134 96 134s-12.545-.931-18.369-2.74-11.115-4.461-15.572-7.804-7.993-7.312-10.405-11.679C49.242 107.409 48 102.728 48 98"/><path d="M118.173 98.888C119.379 96.704 120 94.364 120 92V40c0-4.774-2.529-9.352-7.029-12.728C108.47 23.896 102.365 22 96 22s-12.47 1.896-16.97 5.272C74.528 30.648 72 35.226 72 40v52c0 2.364.62 4.704 1.827 6.888s2.974 4.168 5.202 5.84c2.229 1.671 4.875 2.997 7.787 3.902A31.1 31.1 0 0 0 96 110c3.152 0 6.273-.466 9.184-1.37 2.912-.905 5.558-2.231 7.787-3.902s3.996-3.656 5.202-5.84"/></svg>