<svg xmlns="http://www.w3.org/2000/svg" width="192" height="192" fill="none" stroke="#000" stroke-linecap="round" stroke-linejoin="round" stroke-width="12" viewBox="0 0 192 192"><path d="M25.944 74.998c-2.336 9.829-7.008 32.985-1.001 42.98 6.266 10.428 19.855-21.99 26.028-39.982-1.168 10.662-1.601 33.385 8.01 40.982C68.59 126.575 75.164 89.491 77 70m11 37c0-14 9.667-23.333 15-23.5 6 0 11.6 5.1 10 19.5s-11 17-17 16c-3.946-.658-8-4-8-12"/><path d="M109 86c-1.167 4.333-1.2 12.9 8 12.5s17.5-19.167 20.5-28.5c0 0-16.1 41.2-4.5 48s23-27 27-42.5c0 0-18.5 60 10 38.5m-22-27h22"/></svg>