<svg xmlns="http://www.w3.org/2000/svg" width="192" height="192" fill="none" viewBox="0 0 192 192"><path stroke="#000" stroke-linecap="round" stroke-linejoin="round" stroke-width="10" d="M95.758 60S110 31 144 39.073C113.849 3.197 80.683 35.087 95.758 60"/><path stroke="#000" stroke-linecap="round" stroke-linejoin="round" stroke-width="12" d="M66 62.998s-44-1-44 42m104-42s44-1 44 42M118 105c0 15.383-5.057 30.135-14.059 41.012S82.731 163 70 163c-12.73 0-24.94-6.111-33.941-16.988S22 120.383 22 105"/><path stroke="#000" stroke-linecap="round" stroke-linejoin="round" stroke-width="12" d="M170 105c0 15.383-5.057 30.135-14.059 41.012S134.73 163 122 163q-.444 0-.888-.01M74 105c0 10.742 2.466 21.177 7.02 30.2M74 105a21.998 21.998 0 0 1 30.419-20.325A22 22 0 0 1 118 105"/></svg>