<svg xmlns="http://www.w3.org/2000/svg" width="192" height="192" fill="none" viewBox="0 0 192 192"><path stroke="#000" stroke-linecap="round" stroke-linejoin="round" stroke-width="12" d="M170 70.986h-48.986m0 0V28.254c0-3.454 2.8-6.254 6.254-6.254h36.478A6.25 6.25 0 0 1 170 28.253v86.508c0 3.453-2.8 6.253-6.254 6.253h-42.732m0-50.028H70.986m50.028 0v50.028M70.986 70.986H28.254A6.254 6.254 0 0 0 22 77.239v37.522c0 3.453 2.8 6.253 6.253 6.253h42.733m0-50.028v50.028m0 0v42.732c0 3.454 2.8 6.254 6.253 6.254h37.522c3.453 0 6.253-2.8 6.253-6.254v-42.732m-50.028 0h50.028"/></svg>