<svg xmlns="http://www.w3.org/2000/svg" width="192" height="192" fill="none" stroke="#000" stroke-linecap="round" stroke-linejoin="round" viewBox="0 0 192 192"><path stroke-width="12" d="m108 136 7 33m-7-33s25.086-8.5 30 13c4 17.5-23 20-23 20m24-106 8 36m13-20 10 14m-31-30.343S160.885 53.5 164 67s-20.5 16-20.5 16M98.709 28.374c6.834 6.835 7.151 17.598.707 24.042s-17.207 6.127-24.042-.707c-6.834-6.834-7.15-17.598-.707-24.042 6.444-6.443 17.208-6.127 24.042.707M22 101l20 29 1-30.5L61 125l1-30"/><path stroke-width="10" d="m57 77 6-8m60-1-8-6m23 51-4 7"/></svg>