<svg id="Layer_1" data-name="Layer 1" xmlns="http://www.w3.org/2000/svg" viewBox="0 0 24 24">
  <path d="M14.705,2.00525A7.295,7.295,0,1,0,22,9.30029,7.29525,7.29525,0,0,0,14.705,2.00525Zm.0866,13.10266a5.89444,5.89444,0,1,1,5.89466-5.89423A5.89424,5.89424,0,0,1,14.79156,15.10791ZM17.0647,6.66473h1.70324l-1.27868,5.76246H15.7146L14.705,8.83307l-1.00959,3.59412H11.92072L10.642,6.66473h1.70331l.60492,3.14246.88287-3.14246H15.5769l.88288,3.14246ZM8.96149,15.03326a7.50778,7.50778,0,0,0,.8377.719s-1.64886,1.73132-2.39074,2.65552c-.9245,1.15173-1.96436,2.72576-2.25531,3.01672a1.56384,1.56384,0,0,1-1.31519.57019,1.81779,1.81779,0,0,1-1.28442-.55353A1.81774,1.81774,0,0,1,2,20.1568a1.56388,1.56388,0,0,1,.57019-1.31525c.291-.29089,1.865-1.33081,3.01672-2.25531.92426-.74188,2.65552-2.39074,2.65552-2.39074A7.502,7.502,0,0,0,8.96149,15.03326Z"/>
</svg>
