<svg width="192" height="192" viewBox="0 0 192 192" fill="none" xmlns="http://www.w3.org/2000/svg">
<path d="M167 72H120M120 72V31C120 27.6863 122.686 25 126 25H161C162.591 25 164.117 25.6321 165.243 26.7574C166.368 27.8826 167 29.4087 167 31V114C167 117.314 164.314 120 161 120H120M120 72H72M120 72V120M72 72H31C27.6863 72 25 74.6863 25 78V114C25 117.314 27.6863 120 31 120H72M72 72V120M72 120V161C72 164.314 74.6863 167 78 167H114C117.314 167 120 164.314 120 161V120M72 120H120" stroke="black" stroke-width="12" stroke-linecap="round" stroke-linejoin="round"/>
</svg>
