<svg xmlns="http://www.w3.org/2000/svg" width="192" height="192" fill="none" viewBox="0 0 192 192"><path stroke="#000" stroke-linecap="round" stroke-linejoin="round" stroke-width="12" d="M162 156V36a6 6 0 0 0-6-6H36a6 6 0 0 0-6 6v120a6 6 0 0 0 6 6h120a6 6 0 0 0 6-6Zm0-94H30"/><path stroke="#000" stroke-linecap="round" stroke-linejoin="round" stroke-width="10" d="M59 116v-10H49v10h10Zm28 0v-10H77v10h10Zm28-26V80h-10v10h10Z"/><path stroke="#000" stroke-linecap="round" stroke-linejoin="round" stroke-width="6" d="M145 92V78h-14v14h14Zm0 26v-14h-14v14h14ZM61 92V78H47v14h14Zm0 52v-14H47v14h14Zm28-52V78H75v14h14Zm0 52v-14H75v14h14Zm28 0v-14h-14v14h14Zm0-26v-14h-14v14h14Z"/><path stroke="#000" stroke-linecap="round" stroke-linejoin="round" stroke-width="10" d="M143 142v-10h-10v10h10Z"/></svg>