<svg width="192" height="192" viewBox="0 0 192 192" fill="none" xmlns="http://www.w3.org/2000/svg"><path d="M159 164V66a6 6 0 0 0-6-6H39a6 6 0 0 0-6 6v98a6 6 0 0 0 6 6h114a6 6 0 0 0 6-6ZM136 60V28a6 6 0 0 0-6-6H62a6 6 0 0 0-6 6v32" stroke="#000" stroke-width="12" stroke-linecap="round" stroke-linejoin="round"/><circle cx="96" cy="115" r="35" stroke="#000" stroke-width="12" stroke-linecap="round" stroke-linejoin="round"/><path d="M96 100.998v14.005l8 7.997" stroke="#000" stroke-width="12" stroke-linecap="round" stroke-linejoin="round"/></svg>