<svg xmlns="http://www.w3.org/2000/svg" width="192" height="192" fill="none" stroke="#000" stroke-linecap="round" stroke-linejoin="round" viewBox="0 0 192 192"><path stroke-width="12" d="M135.5 60V28a6 6 0 0 0-6-6h-67a6 6 0 0 0-6 6v32m102 8.5a8.5 8.5 0 0 0-8.497-8.5H41.998a8.5 8.5 0 0 0-8.496 8.5v92.999a8.5 8.5 0 0 0 8.5 8.504h107.996a8.503 8.503 0 0 0 8.504-8.504l-.003-93Z"/><path stroke-width="10" d="M96 100v15.004l8.5 8.497M130.998 115a34.998 34.998 0 1 1-69.996.003 34.998 34.998 0 0 1 69.996-.003"/></svg>