<svg xmlns="http://www.w3.org/2000/svg" width="192" height="192" fill="none" stroke="#000" stroke-linecap="round" stroke-linejoin="round" stroke-width="12" viewBox="0 0 192 192"><path d="m62 72 26 56 26-56 26.25 56.17"/><path d="M124.739 164.218c-12.241 5.518-25.706 7.132-38.78 4.647-11.288-2.146-21.87-7.267-30.81-14.865L30 162l9.949-26c-3.996-6.671-6.987-14.021-8.826-21.785-3.268-13.802-2.754-28.322 1.481-41.818s12.011-25.395 22.395-34.27c10.384-8.874 22.936-14.347 36.148-15.761s26.524 1.29 38.339 7.788S150.788 44.85 157.756 59c3.321 6.744 5.023 11.703 5.838 18.343a54.6 54.6 0 0 1-1.213 19.857c-1.614 6.469-4.399 12.533-8.197 17.847-3.797 5.313-8.532 9.772-13.934 13.12"/></svg>