<?xml version="1.0" encoding="UTF-8" standalone="no"?>
<!-- Created with Inkscape (http://www.inkscape.org/) -->

<svg
   version="1.1"
   id="svg1"
   width="192"
   height="192"
   viewBox="0 0 192 192"
   sodipodi:docname="worms4.svg"
   inkscape:export-filename="worms4.svg"
   inkscape:export-xdpi="96"
   inkscape:export-ydpi="96"
   xmlns:inkscape="http://www.inkscape.org/namespaces/inkscape"
   xmlns:sodipodi="http://sodipodi.sourceforge.net/DTD/sodipodi-0.dtd"
   xmlns="http://www.w3.org/2000/svg"
   xmlns:svg="http://www.w3.org/2000/svg">
  <defs
     id="defs1" />
  <sodipodi:namedview
     id="namedview1"
     pagecolor="#ffffff"
     bordercolor="#000000"
     borderopacity="0.25"
     inkscape:showpageshadow="2"
     inkscape:pageopacity="0.0"
     inkscape:pagecheckerboard="0"
     inkscape:deskcolor="#d1d1d1" />
  <g
     inkscape:groupmode="layer"
     inkscape:label="Image"
     id="g1">
    <g
       id="g2"
       transform="matrix(0.90244452,0,0,0.90244452,9.3653261,9.6681197)"
       style="stroke-width:6.62534;stroke-dasharray:none">
      <path
         style="fill:none;stroke:#000000;stroke-width:6.62534;stroke-linejoin:round;stroke-dasharray:none;stroke-opacity:1"
         d="M 80.910069,41.84547 89.914791,30.986835 102.89218,22.379381 146.45914,10.328945 157.05293,11 l 22.64423,20.119257 -10.32895,29.662612 8.60746,9.401988 -9.00472,7.283231 L 155.18206,161.38438 170.0466,175.3122 160.8882,181 H 82.644223 l 3.234977,-4.93375 -4.752847,-5.62648 10.667991,-9.17944 13.893196,-32.25206 -5.954226,-31.011605 -4.341624,1.240464 -4.961856,-3.721392 5.706135,-9.427528 z"
         id="path1"
         sodipodi:nodetypes="cccccccccccccccccccccc" />
      <path
         style="fill:none;stroke:#000000;stroke-width:6.62534;stroke-linejoin:round;stroke-dasharray:none;stroke-opacity:1"
         d="M 161.15493,164.6451 181,145.704 v -33.94585 l -5.34165,-4.25091 -10.5373,-0.16921"
         id="path2"
         sodipodi:nodetypes="ccccc" />
      <path
         style="fill:none;stroke:#000000;stroke-width:6.62534;stroke-linejoin:round;stroke-dasharray:none;stroke-opacity:1"
         d="m 175.32566,107.205 -6.32944,22.94424 11.94683,15.34891"
         id="path3"
         sodipodi:nodetypes="ccc" />
      <path
         style="fill:none;stroke:#000000;stroke-width:6.62534;stroke-linecap:round;stroke-linejoin:round;stroke-dasharray:none;stroke-opacity:1"
         d="m 92.828621,159.37797 8.058029,-2.96454 32.18898,15.75205 13.72974,-36.20884 -9.82619,-4.57658 13.99896,-10.63383 5.24961,-44.823582 -57.476494,22.344489"
         id="path5"
         sodipodi:nodetypes="cccccccc" />
      <path
         style="fill:none;stroke:#000000;stroke-width:6.62534;stroke-linecap:round;stroke-linejoin:round;stroke-dasharray:none;stroke-opacity:1"
         d="m 102.86961,78.876281 9.05138,0.287345 4.02283,-1.867744 0.57469,-14.798282 7.75833,12.930537 15.66031,-4.166506 4.02284,-3.448144 8.62036,-26.435766 0.14367,-7.470977 -7.47098,-7.03996 -23.70598,4.166507 -5.31589,10.057085 -0.71837,7.758323 -4.02283,-6.608942 -6.89629,-0.718363 -14.223588,14.223591 z"
         id="path6" />
      <path
         style="fill:none;stroke:#000000;stroke-width:6.62534;stroke-linecap:round;stroke-linejoin:round;stroke-dasharray:none;stroke-opacity:1"
         d="m 114.36343,62.353927 -3.1608,-1.293054 -2.01142,2.298762 -0.86204,3.591817 1.72407,5.746905 2.44244,1.005709 0.86204,-1.005709"
         id="path7"
         sodipodi:nodetypes="ccccccc" />
      <path
         style="fill:none;stroke:#000000;stroke-width:6.62534;stroke-linecap:round;stroke-linejoin:round;stroke-dasharray:none;stroke-opacity:1"
         d="m 130.45476,69.968577 -2.15509,-2.298762 -1.5804,-4.31018 2.87345,-5.746905 4.02284,0.143672 2.15509,3.160799 0.28734,4.453851 -2.01141,3.448144 z"
         id="path8"
         sodipodi:nodetypes="ccccccccc" />
      <path
         style="fill:none;stroke:#000000;stroke-width:6.62534;stroke-linecap:round;stroke-linejoin:round;stroke-dasharray:none;stroke-opacity:1"
         d="m 61.83374,174.36814 4.814305,-13.0889 17.752753,-7.22146 3.610729,-35.95684 -14.593364,-2.25671 -9.327717,10.5313 9.478164,13.84113 -11.73487,11.13308 -4.062071,-1.80537 8.725929,-6.92056 -5.566541,-15.04471 -17.752752,-8.12414 -6.017882,10.2304 -4.362965,-1.20357 -4.814306,11.88531 15.195153,28.58494 z"
         id="path9" />
      <path
         style="fill:none;stroke:#000000;stroke-width:6.62534;stroke-linecap:round;stroke-linejoin:round;stroke-dasharray:none;stroke-opacity:1"
         d="m 37.461317,129.98626 12.637552,5.26564 6.920565,13.23934"
         id="path10"
         sodipodi:nodetypes="ccc" />
      <path
         style="fill:none;stroke:#000000;stroke-width:6.62534;stroke-linecap:round;stroke-linejoin:round;stroke-dasharray:none;stroke-opacity:1"
         d="m 104.41026,128.78268 -6.168333,-5.56654 -8.725929,2.40715"
         id="path11" />
      <path
         style="fill:none;stroke:#000000;stroke-width:6.62534;stroke-linecap:round;stroke-linejoin:round;stroke-dasharray:none;stroke-opacity:1"
         d="M 57.470775,122.61435 68.603857,107.4192 59.125693,96.436562"
         id="path12" />
      <path
         style="fill:none;stroke:#000000;stroke-width:6.62534;stroke-linecap:round;stroke-linejoin:round;stroke-dasharray:none;stroke-opacity:1"
         d="M 91.321363,76.577551 76.12621,92.825833 38.063105,95.834774 11,70.108328 v -10.2304 L 17.9032,31.14254 40.018917,11 h 63.488653 l 8.27459,7.204094"
         id="path13"
         sodipodi:nodetypes="ccccccccc" />
      <path
         style="fill:none;stroke:#000000;stroke-width:6.62534;stroke-linecap:round;stroke-linejoin:round;stroke-dasharray:none;stroke-opacity:1"
         d="M 45.71986,12.699961 28.484199,29.572767 22.678502,50.981273 43.179868,47.896996 65.676942,25.58135 71.119783,13.244245"
         id="path14" />
      <path
         style="fill:none;stroke:#000000;stroke-width:6.62534;stroke-linecap:round;stroke-linejoin:round;stroke-dasharray:none;stroke-opacity:1"
         d="M 85.815452,13.425673 80.916896,25.399922 42.0913,64.225518 13.607101,68.035506"
         id="path15" />
      <path
         style="fill:none;stroke:#000000;stroke-width:6.62534;stroke-linecap:round;stroke-linejoin:round;stroke-dasharray:none;stroke-opacity:1"
         d="M 88.553524,32.187111 81.642608,25.399922"
         id="path16"
         sodipodi:nodetypes="cc" />
      <path
         style="fill:none;stroke:#000000;stroke-width:6.62534;stroke-linecap:round;stroke-linejoin:round;stroke-dasharray:none;stroke-opacity:1"
         d="M 42.817012,65.314086 76.018339,92.346861"
         id="path17" />
      <path
         style="fill:none;stroke:#000000;stroke-width:6.62534;stroke-linecap:round;stroke-linejoin:round;stroke-dasharray:none;stroke-opacity:1"
         d="m 47.36178,120.95923 -12.872186,-17.19567 16.114797,-8.843479 5.404353,6.681749 4.421743,-2.358267"
         id="path18"
         sodipodi:nodetypes="ccccc" />
      <path
         style="fill:none;stroke:#000000;stroke-width:6.62534;stroke-linecap:round;stroke-linejoin:round;stroke-dasharray:none;stroke-opacity:1"
         d="m 120.06673,11 h 12.96671 l -4.66442,3.776208 z"
         id="path19"
         sodipodi:nodetypes="cccc" />
      <path
         style="fill:none;stroke:#000000;stroke-width:6.62534;stroke-linecap:round;stroke-linejoin:round;stroke-dasharray:none;stroke-opacity:1"
         d="m 97.567891,23.575884 -4.611546,-2.901647 0.259075,-4.611546 9.5858,-4.093396 h 9.68943 l -5.59149,8.34053"
         id="path20"
         sodipodi:nodetypes="cccccc" />
    </g>
  </g>
</svg>
