<?xml version="1.0" encoding="utf-8"?>
	<svg version="1.1" xmlns="http://www.w3.org/2000/svg" xmlns:xlink="http://www.w3.org/1999/xlink" x="0px" y="0px" width="240.0" height="240.0" xml:space="preserve">
		<path d="M101.101,102.015C97.002,93.22 92.782,84.683 88.594,76.131C87.335,73.561 85.46,72.385 82.608,72.402C73.676,72.456 64.744,72.421 55.811,72.424C55.391,72.424 54.965,72.417 54.551,72.474C53.224,72.656 52.659,73.51 53.152,74.765C53.697,76.153 54.363,77.494 54.995,78.847C65.927,102.234 76.86,125.62 87.805,149C88.208,149.862 88.46,151.058 89.637,151.076C90.859,151.095 91.028,149.847 91.421,148.997C105.684,118.2 120.384,87.608 134.924,56.941C136.536,53.541 138.717,50.958 142.576,50.213C143.259,50.081 143.968,50.038 144.665,50.037C166.739,50.029 188.813,50.025 210.886,50.035C215.316,50.037 219.365,53.26 219.935,57.13C220.149,58.581 219.814,59.873 219.194,61.184C207.312,86.293 195.454,111.414 183.59,136.531C176.113,152.362 168.677,168.21 161.14,184.012C156.294,194.173 144.884,191.669 140.72,185.908C140.339,185.382 140.001,184.813 139.726,184.225C135.345,174.884 130.979,165.536 126.601,156.193C126.318,155.589 126.115,155.077 126.458,154.368C130.571,145.881 134.645,137.376 138.731,128.877C138.806,128.722 138.912,128.582 139.022,128.404C139.556,128.735 139.633,129.278 139.839,129.714C142.767,135.921 145.674,142.138 148.586,148.352C148.665,148.521 148.737,148.693 148.825,148.858C149.193,149.544 149.418,150.485 150.385,150.444C151.288,150.406 151.632,149.556 151.975,148.836C157.491,137.243 163.004,125.649 168.514,114.054C174.545,101.362 180.573,88.67 186.601,75.977C186.801,75.556 187.017,75.137 187.158,74.695C187.542,73.484 187.04,72.663 185.788,72.484C185.236,72.405 184.668,72.424 184.107,72.424C175.409,72.421 166.709,72.48 158.012,72.39C154.87,72.358 152.902,73.595 151.538,76.46C134.353,112.538 116.997,148.536 100.306,184.848C98.627,188.501 95.565,190.296 91.722,190.785C88.649,191.177 85.654,190.729 82.912,189.174C81.161,188.182 79.845,186.777 78.973,184.932C59.633,144.037 40.277,103.149 20.937,62.253C18.076,56.204 22.061,50.068 28.907,50.044C41.627,50 54.348,50.03 67.068,50.03C76.281,50.03 85.496,49.942 94.707,50.069C99.103,50.13 102.579,52.008 104.678,56.131C107.708,62.08 110.78,68.007 113.63,74.046C113.922,74.666 114.096,75.208 113.793,75.889C109.966,84.51 105.934,93.034 101.557,101.392C101.474,101.549 101.346,101.683 101.101,102.015" fill="#000" stroke="#00000000" stroke-width="1.0" stroke-miterlimit=""/>
	</svg>
