<?xml version="1.0" encoding="UTF-8"?>
<svg width="24" height="24" fill="none" version="1.1" viewBox="0 0 24 24" xmlns="http://www.w3.org/2000/svg">
 <path d="m9.4515 20.681c-0.017 0-0.017-0.0131-0.017-0.61074 0-0.33591 0-0.6148-0.01-0.61977 0-5e-3 -0.079-0.0444-0.1685-0.0876-0.249-0.1202-0.6005-0.33791-0.8783-0.54408-0.6404-0.47514-1.1969-1.0897-1.6228-1.7921-0.074-0.12251-0.2595-0.48483-0.3372-0.65957-0.074-0.16557-0.1902-0.47552-0.2414-0.64174-0.1155-0.37522-0.2185-0.88228-0.2416-1.1899 0-0.049-0.012-0.14327-0.019-0.20945-0.015-0.15203-0.015-0.68153 0-0.80663 0.01-0.049 0.014-0.13761 0.019-0.19685 0-0.0593 0.014-0.14347 0.022-0.18718 0.01-0.0437 0.024-0.14362 0.037-0.22206 0.013-0.0784 0.029-0.16467 0.035-0.19163 0.01-0.027 0.021-0.0891 0.032-0.13815 0.028-0.12551 0.1276-0.47741 0.1655-0.58131 0.1088-0.29868 0.1754-0.46067 0.2842-0.69147 0.1481-0.31437 0.3367-0.64346 0.5245-0.91537 0.1399-0.20257 0.295-0.40554 0.3099-0.40554l0.032 3.4404c0.094 0.54955 0.346 1.0036 0.7488 1.3513 0.1756 0.15164 0.2622 0.20948 0.4723 0.31548 0.1223 0.0618 0.2507 0.11044 0.4235 0.16066 0.1086 0.0316 0.153 0.0398 0.3101 0.0578 0.1044 0.0119 5.2708 0.0124 5.352 4.7e-4 0.217-0.0318 0.313-0.0547 0.459-0.10924 0.333-0.12451 0.5881-0.28341 0.8414-0.52412 0.3678-0.4033 0.5629-0.80064 0.6488-1.288l0.021-3.4206c0.3277 0.42599 0.6325 0.8952 0.8407 1.335 0.4309 0.9236 0.629 1.855 0.5979 2.8121-0.01 0.20637-0.04 0.56655-0.067 0.71948-0.01 0.043-0.023 0.13439-0.035 0.20302-0.1795 1.0251-0.7005 2.0854-1.4343 2.919-0.275 0.31245-0.652 0.65372-0.9764 0.88384-0.326 0.23127-0.5916 0.39617-0.819 0.50843-0.09 0.0445-0.1714 0.0884-0.1805 0.0975-0.016 0.0158-0.016 0.0433-0.016 0.59813v0.6526l-2.5491 1.2971zm-0.02-6.3022c-0.1165-0.0172-0.3008-0.0745-0.3987-0.12392-0.091-0.0458-0.1519-0.0886-0.2515-0.17576-0.1845-0.16152-0.3-0.33462-0.3769-0.56511v-10.623c0.076-0.23287 0.1973-0.41244 0.3959-0.58558 0.092-0.0802 0.1812-0.13821 0.2901-0.18851 0.1467-0.0678 0.2687-0.0946 0.4923-0.1084 0.171-0.0105 4.6586-0.0107 4.8729-1.4e-4 0.2239 0.011 0.3659 0.0516 0.5666 0.16208 0.2238 0.12322 0.4053 0.31515 0.5171 0.54675 0.081 0.16735 0.1109 0.27923 0.1285 0.47685l-0.011 10.139c-0.035 0.18645-0.096 0.33902-0.1944 0.48995-0.064 0.0973-0.1184 0.15901-0.2205 0.24774-0.1517 0.13184-0.2674 0.20277-0.4164 0.25538zm2.6804-0.66343c0.029-7e-3 0.089-0.0312 0.1333-0.0529 0.2075-0.10205 0.3385-0.29482 0.3576-0.52642 0.01-0.0833-0.022-0.22677-0.064-0.31588-0.04-0.0842-0.1116-0.17349-0.1835-0.22754-0.071-0.0533-0.1177-0.0769-0.2106-0.1062-0.062-0.0195-0.091-0.0233-0.1738-0.0231-0.1228 2.8e-4 -0.1574 8e-3 -0.2642 0.0585-0.1402 0.0663-0.2241 0.14536-0.2974 0.27998-0.053 0.0981-0.073 0.17677-0.072 0.28967 6e-4 0.11895 0.016 0.18458 0.07 0.29472 0.033 0.0676 0.052 0.0925 0.1143 0.15248 0.041 0.0394 0.094 0.0828 0.117 0.0965 0.049 0.0287 0.156 0.0735 0.2014 0.0844 0.053 0.0128 0.2149 0.0103 0.2722-4e-3zm2.5378-1.7295 0.01-8.3315-5.3049 4e-3c-0.011 0.0175-0.011 8.2804 4e-4 8.3096l5.2971 0.0183z" fill="#000" stroke-width=".008913"/>
</svg>
