<svg xmlns="http://www.w3.org/2000/svg" width="192" height="192" fill="none" viewBox="0 0 192 192"><path stroke="#000" stroke-linecap="round" stroke-linejoin="round" stroke-width="10" d="M125 21c-32 0-60 12-32 36 5-17 12-18 35-14s20-22-3-22"/><path stroke="#000" stroke-linecap="round" stroke-linejoin="round" stroke-width="12" d="m75 73 22 5 16-10 24 44v16l26.087 32.225c3.175 3.923.383 9.775-4.664 9.775H33.606c-5.052 0-7.843-5.862-4.657-9.784L46.999 138l10-43 14-8 4-14Z"/><path stroke="#000" stroke-linecap="round" stroke-linejoin="round" stroke-width="10" d="m126 170-10-18.5v-18L101 119l5-19-16-23m-20 93-5-15 17-28-7-20-3-19"/></svg>