<svg width="192" height="192" viewBox="0 0 192 192" fill="none" xmlns="http://www.w3.org/2000/svg"><path d="m59.23 96-29.615 29.615A26.014 26.014 0 0 0 22 144a26.005 26.005 0 0 0 16.05 24.021 26.012 26.012 0 0 0 19.9 0 26.011 26.011 0 0 0 8.435-5.636l8.967-8.967M59.23 96c17.744 18.409 18.844 40.776 16.122 57.418M59.23 96 35.976 72.745m39.376 80.673S87 139 96 132.77m0 0 29.615 29.615a26.023 26.023 0 0 0 8.435 5.636 26.016 26.016 0 0 0 19.9 0 26.023 26.023 0 0 0 8.435-5.636 26.023 26.023 0 0 0 5.636-8.435 26.016 26.016 0 0 0 0-19.9 26.023 26.023 0 0 0-5.636-8.435l-6.361-6.36M96 132.77a78.983 78.983 0 0 1 30.588-13.252 78.986 78.986 0 0 1 29.436-.263M96 59.226l-29.615-29.61a26.002 26.002 0 0 0-42.406 8.434 26 26 0 0 0 5.636 28.335l6.36 6.36M96 59.226a78.998 78.998 0 0 1-60.024 13.52M96 59.225c9-6.226 20.648-20.644 20.648-20.644M132.77 96l29.615-29.615A26.011 26.011 0 0 0 170 48a26.012 26.012 0 0 0-7.615-18.385A26.014 26.014 0 0 0 144 22a26.005 26.005 0 0 0-18.385 7.615l-8.967 8.967M132.77 96c-17.744-18.41-18.844-40.776-16.122-57.418M132.77 96l23.254 23.255" stroke="#000" stroke-width="12" stroke-linecap="round" stroke-linejoin="round"/><circle cx="96" cy="96" r="5" stroke="#000" stroke-width="10" stroke-linecap="round" stroke-linejoin="round"/></svg>