<svg width="192" height="192" viewBox="0 0 192 192" fill="none" xmlns="http://www.w3.org/2000/svg"><path d="m109 96 61-64h-40L88.958 75.06 69 96l19.958 20.939L104 132.721M109 96l61 64h-40l-26-27.279M109 96c-20.48 20.48-5 36.721-5 36.721M57.385 41.305 44.209 27.816c-2.337-2.392-6.204-2.425-8.583-.074L23.762 39.469a5.899 5.899 0 0 0-.092 8.318L50.986 76l.992-10.146 9.015-.232-3.608-24.317Zm0 0L71 55.243M50.986 116 23.67 144.213a5.899 5.899 0 0 0 .092 8.318l11.864 11.727c2.379 2.351 6.246 2.318 8.583-.074L71 136.757l-15.02 3.499L50.985 116Z" stroke="#000" stroke-width="12" stroke-linecap="round" stroke-linejoin="round"/></svg>