<svg width="192" height="192" viewBox="0 0 192 192" fill="none" xmlns="http://www.w3.org/2000/svg"><path d="m50 38 13 22m79-22-13 22m-85 44h104M44 148h104M44 104a21.992 21.992 0 0 0-15.556 6.444 22.001 22.001 0 0 0 0 31.112A21.987 21.987 0 0 0 44 148m104 0a21.997 21.997 0 0 0 15.556-6.444 21.997 21.997 0 0 0 0-31.112A21.997 21.997 0 0 0 148 104" stroke="#000" stroke-width="12" stroke-linecap="round" stroke-linejoin="round"/><circle cx="77" cy="82" r="4" stroke="#000" stroke-width="8" stroke-linecap="round" stroke-linejoin="round"/><circle cx="115" cy="82" r="4" stroke="#000" stroke-width="8" stroke-linecap="round" stroke-linejoin="round"/><path d="M155 104c0-13.791-6.216-27.018-17.281-36.77C126.655 57.48 111.648 52 96 52s-30.655 5.479-41.72 15.23C43.217 76.982 37 90.21 37 104" stroke="#000" stroke-width="12" stroke-linecap="round" stroke-linejoin="round"/></svg>