<svg width="192" height="192" viewBox="0 0 192 192" fill="none" xmlns="http://www.w3.org/2000/svg">
<path d="M33.6981 134.071C27.1616 124.037 23.8592 114.16 22.2666 99.8746C21.739 95.1578 21.9246 92.4613 23.4602 82.7767C25.3703 70.7197 32.2374 56.7565 40.4935 48.17C44.0076 44.5204 44.3203 44.4226 48.6063 45.8727C53.8009 47.6323 59.3538 51.471 67.9682 59.2657L73 63.818L70.248 67.1906C57.5007 82.8483 44.0467 105.056 38.9823 118.791L33.6899 134.076L33.6981 134.071Z" stroke="black" stroke-width="12" stroke-linejoin="round"/>
<path d="M158.302 134.071C164.838 124.037 168.141 114.16 169.733 99.8746C170.261 95.1578 170.075 92.4613 168.54 82.7767C166.63 70.7197 159.763 56.7565 151.507 48.17C147.992 44.5204 147.68 44.4226 143.394 45.8727C138.199 47.6323 132.646 51.471 124.032 59.2657L119 63.818L121.752 67.1906C134.499 82.8483 147.953 105.056 153.018 118.791L158.31 134.076L158.302 134.071Z" stroke="black" stroke-width="12" stroke-linejoin="round"/>
<path d="M57.6395 158.74C67.0249 164.831 77.9507 168.685 88.743 169.714C97.7783 170.574 108.748 169.463 117.101 166.839C127.234 163.657 141.029 155.371 143.252 151.133C146.176 145.557 140.422 133.048 127.9 117.776C119.98 108.114 98.8286 87.5938 96.181 87.006C94.8214 86.7047 82.238 97.8792 73.2059 107.418C57.2975 124.209 48 138.942 48 147.352C48 151.538 49.7748 153.639 57.6395 158.74Z" stroke="black" stroke-width="12" stroke-linejoin="round"/>
<path d="M127 30.5C116 19.5 76 19.5 65 30.5C90 35 96 39.5 96 39.5C96 39.5 102 35 127 30.5Z" stroke="black" stroke-width="12" stroke-linejoin="round"/>
</svg>
