<svg width="192" height="192" viewBox="0 0 192 192" fill="none" xmlns="http://www.w3.org/2000/svg"><path d="M162 171h-12a6 6 0 0 1-6-6v-12m0 0h18m-18 0v-11.999a6 6 0 0 1 6-6h8M158 153a9 9 0 1 0 0-18m4 36a9 9 0 1 0 0-18" stroke="#000" stroke-width="10" stroke-miterlimit="6" stroke-linecap="round" stroke-linejoin="round"/><path d="M138 36C80 52 48 120 38 141" stroke="#000" stroke-width="12" stroke-linecap="round" stroke-linejoin="round"/><path d="M54 36c42.508 11.726 71.051 51.384 87.202 80M125 164.102c-8.905 3.797-18.707 5.898-29 5.898-40.87 0-74-33.131-74-74 0-40.87 33.13-74 74-74 40.869 0 74 33.13 74 74 0 6.93-.953 13.638-2.734 20" stroke="#000" stroke-width="12" stroke-linecap="round" stroke-linejoin="round"/></svg>