<?xml version="1.0" encoding="UTF-8"?>
<svg id="Layer_1" data-name="Layer 1" xmlns="http://www.w3.org/2000/svg" width="192" height="192" viewBox="0 0 192 192">
  <path d="m59.3,82.9c-3.9-5.9-5.8-11.7-6.7-20.2-.3-2.8-.2-4.4.7-10.1,1.1-7.1,5.2-15.3,10-20.4,2.1-2.2,2.3-2.2,4.8-1.4,3.1,1,6.3,3.3,11.4,7.9l3,2.7-1.6,2c-7.5,9.2-15.5,22.3-18.4,30.4l-3.1,9h0Zm73.5,0c3.9-5.9,5.8-11.7,6.7-20.2.3-2.8.2-4.4-.7-10.1-1.1-7.1-5.2-15.3-10-20.4-2.1-2.2-2.3-2.2-4.8-1.4-3.1,1-6.3,3.3-11.4,7.9l-3,2.7,1.6,2c7.5,9.2,15.5,22.3,18.4,30.4l3.1,9h0Zm-59.4,14.5c5.5,3.6,12,5.9,18.3,6.5,5.3.5,11.8-.1,16.7-1.7,6-1.9,14.1-6.8,15.4-9.3,1.7-3.3-1.7-10.7-9.1-19.7-4.7-5.7-17.1-17.8-18.7-18.1-.8-.2-8.2,6.4-13.5,12-9.4,9.9-14.9,18.6-14.9,23.6s1,3.7,5.7,6.7ZM114.3,21.9c-6.5-6.5-30.1-6.5-36.6,0,14.7,2.7,18.3,5.3,18.3,5.3,0,0,3.5-2.7,18.3-5.3Z" fill="none" stroke="#000" stroke-linejoin="round" stroke-width="12"/>
  <g>
    <path d="m92.5,170.7h-4.5c-.3-1.6-.4-3.9-.5-8.8-3.2,6.8-8.9,9.6-17.8,9.6-15.4,0-22.7-12.8-22.7-29s8.6-29.5,24.9-29.5,18.9,6.1,20.8,16.3h-5.6c-2-7.2-6.5-11.5-15.5-11.5-12.9,0-18.8,10.8-18.8,24.8s5.4,24.3,17.6,24.3,16.6-9.4,16.6-21.1v-.3h-16.4v-4.9h21.9v30Z" stroke="#000" stroke-linejoin="round" stroke-width="8"/>
    <path d="m106.3,113.8h19.2c10.9,0,18.5,5.4,18.5,15.3s-7.9,16.2-19.5,16.2h-12.5v25.4h-5.7v-56.9Zm5.7,26.8h12.4c8.1,0,13.8-2.6,13.8-11.4s-5.6-10.8-13.8-10.8h-12.4v22.2Z" stroke="#000" stroke-linejoin="round" stroke-width="8"/>
  </g>
</svg>