<?xml version="1.0" encoding="utf-8"?>
	<svg version="1.1" xmlns="http://www.w3.org/2000/svg" xmlns:xlink="http://www.w3.org/1999/xlink" x="0px" y="0px" width="240.0" height="240.0" xml:space="preserve">
		<path d="M43,35L197,35A23,23 0,0 1,220 58L220,182A23,23 0,0 1,197 205L43,205A23,23 0,0 1,20 182L20,58A23,23 0,0 1,43 35z" fill="#000" stroke="#00000000" stroke-width="1.0" stroke-miterlimit=""/>
		<path d="M20,95C80.65,95 130,144.35 130,205.01L130,205.01L110,205.01C110,155.38 69.62,115 20,115L20,115ZM20,135C58.6,135 90,166.41 90,205.01L90,205.01L70,205.01C70,177.43 47.57,155 20,155L20,155ZM200,35C211.03,35 220,43.97 220,55L220,55L220,185C220,196.03 211.03,205 200,205L200,205L149.48,205C149.22,198.2 148.54,191.51 147.31,185L147.31,185L200,185L200,55L40,55L40,77.69C33.49,76.46 26.8,75.77 20,75.52L20,75.52L20,55C20,43.97 28.97,35 40,35L40,35ZM35,175C43.284,175 50,181.716 50,190C50,198.284 43.284,205 35,205C26.716,205 20,198.284 20,190C20,181.716 26.716,175 35,175Z" fill="#000" stroke="#00000000" stroke-width="1.0" stroke-miterlimit=""/>
	</svg>
