<svg id="Layer_1" data-name="Layer 1" xmlns="http://www.w3.org/2000/svg" viewBox="0 0 24 24">
  <g>
    <polygon points="4.841 9.825 5.947 9.825 5.947 12.604 4.841 12.604 4.841 13.388 6.816 13.388 6.816 9.04 4.841 9.04 4.841 9.825"/>
    <polygon points="2 13.388 3.195 13.388 3.975 14.96 3.975 12.604 2.869 12.604 2.869 9.825 3.975 9.825 3.975 9.04 2 9.04 2 13.388"/>
    <path d="M16.36679,9.04042H12.75938v4.3479h3.60741a.79537.79537,0,0,0,.79537-.79537V9.83579A.79537.79537,0,0,0,16.36679,9.04042Zm.04215,3.59468H13.5126V9.79364h2.89634Z"/>
    <polygon points="10.567 11.165 11.725 9.794 12.362 9.04 11.376 9.04 10.739 9.794 10.073 10.581 9.407 9.794 8.771 9.04 7.785 9.04 8.421 9.794 9.58 11.165 8.338 12.635 7.701 13.388 8.687 13.388 9.324 12.635 10.073 11.749 10.822 12.635 11.459 13.388 12.445 13.388 11.809 12.635 10.567 11.165"/>
    <path d="M21.20463,9.04042h-2.812a.79538.79538,0,0,0-.79538.79537v3.55253h.75322V11.93041h2.896v1.45791H22V9.83579A.79537.79537,0,0,0,21.20463,9.04042Zm.04176,2.13677h-2.896V9.79364h2.896Z"/>
  </g>
</svg>
