<svg xmlns="http://www.w3.org/2000/svg" width="192" height="192" fill="none"><path stroke="#000" stroke-linecap="round" stroke-linejoin="round" stroke-width="12" d="M25 31a6 6 0 0 1 6-6h130a6 6 0 0 1 6 6v130a6 6 0 0 1-6 6H31a6 6 0 0 1-6-6z"/><path stroke="#000" stroke-linecap="round" stroke-linejoin="round" stroke-width="10" d="M124.21 56c-8.377 9.773-13.412 19.149-16.106 27.896M124.21 56c4.276 12.141 9.877 21.19 16.106 27.896M124.21 56c-12.652-2.368-23.29-2.041-32.212 0m32.212 0c-4.275-12.142-9.877-21.19-16.106-27.896M124.21 56c8.377-9.773 13.413-19.149 16.106-27.896M124.21 56c12.653 2.368 23.29 2.041 32.212 0m-48.318 27.896C83.104 110.813 48 100 48 100s5.61-24.536 27.854-37.634c4.629-2.725 9.977-4.955 16.144-6.366m16.106 27.896c-1.862 6.047-2.605 11.794-2.559 17.164.222 25.814 18.665 42.94 18.665 42.94s26.917-24.994 16.106-60.104m0 0c8.294 8.93 17.699 13.707 26.565 16.104M91.998 56c-19.616-4.488-30.944-17.261-37.177-27.896M156.422 56a57.7 57.7 0 0 1 10.459 3.452M156.422 56a57.7 57.7 0 0 0 10.459-3.452"/></svg>