<?xml version="1.0" encoding="utf-8"?>
	<svg version="1.1" xmlns="http://www.w3.org/2000/svg" xmlns:xlink="http://www.w3.org/1999/xlink" x="0px" y="0px" width="240.0" height="240.0" xml:space="preserve">
		<path d="M153.423,152.575C162.183,152.633 170.68,154.547 179.224,156.181C186.372,157.548 193.567,158.299 200.837,157.056C204.154,156.489 207.226,155.295 210.185,153.726C213.851,151.781 217.503,152.695 219.249,155.929C220.94,159.059 219.718,162.492 216.157,164.519C206.686,169.911 196.418,170.534 185.877,169.592C177.701,168.86 169.789,166.589 161.671,165.519C152.539,164.315 143.666,164.494 135.333,169.222C132.261,170.964 128.586,169.548 127.031,166.516C125.526,163.584 126.549,160.208 129.626,158.378C136.958,154.016 145.011,152.532 153.423,152.575ZM100.711,70.575C106.23,70.649 109.491,73.883 110.317,79.355C110.545,80.865 110.634,82.41 110.637,83.938C110.662,96.817 110.651,109.697 110.651,122.576C110.651,135.711 110.654,148.846 110.644,161.98C110.643,162.915 110.651,163.869 110.475,164.779C109.842,168.059 107.134,170.133 103.863,169.927C100.794,169.734 98.355,167.328 98.051,164.133C97.964,163.202 98.011,162.258 98.011,161.32C98.017,137.609 98.025,113.898 98.033,90.187C98.033,89.419 98.054,88.651 98.023,87.884C97.876,84.293 96.556,82.987 92.959,82.984C83.151,82.976 73.342,82.999 63.534,83.015C62.251,83.017 60.967,83.026 59.753,82.534C57.067,81.446 55.499,78.611 55.954,75.697C56.405,72.808 58.858,70.554 62.075,70.537C74.954,70.468 87.834,70.402 100.711,70.575ZM71.562,93.754C71.7,95.106 71.773,96.498 71.608,97.84C71.33,100.094 72.328,100.537 74.362,100.46C78.28,100.311 82.209,100.395 86.132,100.423C90.641,100.456 93.466,102.992 93.385,106.878C93.306,110.605 90.491,112.946 86.036,112.958C82.027,112.97 78.013,113.064 74.01,112.907C72.063,112.83 71.59,113.431 71.599,115.333C71.675,131.114 71.654,146.895 71.632,162.676C71.626,166.846 69.442,169.547 65.924,169.899C61.924,170.297 59.008,167.565 58.983,163.242C58.937,155.225 58.97,147.205 58.969,139.187C58.968,131.34 58.897,123.491 59.015,115.645C59.046,113.592 58.625,112.803 56.397,112.909C52.398,113.1 48.382,112.99 44.372,112.954C40.227,112.917 37.475,110.395 37.459,106.692C37.444,102.986 40.149,100.476 44.346,100.421C48.439,100.368 52.539,100.305 56.628,100.459C58.615,100.533 59.207,99.848 59.002,97.975C58.864,96.711 58.933,95.417 58.99,94.14C59.146,90.71 61.659,88.117 64.951,87.937C68.259,87.755 71.209,90.305 71.562,93.754ZM45.679,121.637C49.349,121.613 51.865,124.387 51.872,128.591C51.892,140.024 51.887,151.457 51.862,162.891C51.852,167.223 49.302,169.998 45.489,169.935C41.793,169.875 39.456,167.183 39.435,162.872C39.407,157.155 39.427,151.438 39.427,145.721L39.419,145.721C39.419,140.005 39.392,134.288 39.428,128.572C39.455,124.441 42.002,121.661 45.679,121.637ZM27.307,70.594C30.077,71.131 32.152,73.413 32.423,76.247C32.447,76.501 32.455,76.757 32.457,77.013L32.455,77.781L32.455,77.781C32.456,106.088 32.46,134.397 32.452,162.704C32.451,166.93 30.307,169.623 26.793,169.91C22.833,170.232 20.028,167.463 20.017,163.084C19.987,151.404 20.006,139.722 20.005,128.041C20.005,125.398 20.005,122.755 20.006,120.111C20.007,105.872 19.988,91.633 20.019,77.394C20.028,72.895 23.377,69.832 27.307,70.594ZM84.546,121.635C88.274,121.66 90.715,124.493 90.731,128.882C90.753,134.587 90.737,140.291 90.737,145.997L90.727,145.997C90.727,151.617 90.749,157.236 90.72,162.856C90.697,167.15 88.151,169.948 84.36,169.934C80.68,169.921 78.207,167.216 78.192,162.968C78.15,151.557 78.153,140.147 78.189,128.738C78.202,124.447 80.811,121.609 84.546,121.635ZM210.745,94.867C216.32,94.868 218.447,97.01 218.449,102.617C218.456,114.985 218.452,127.352 218.447,139.721C218.444,145.149 216.757,146.833 211.212,146.841C198.418,146.859 185.624,146.847 172.83,146.847L172.83,146.859C160.206,146.859 147.583,146.87 134.96,146.854C129.329,146.847 127.608,145.117 127.608,139.566C127.607,127.199 127.601,114.831 127.614,102.464C127.62,97.111 129.867,94.886 135.261,94.883C160.422,94.872 185.583,94.866 210.745,94.867ZM203.8,126.619C200.141,126.692 196.48,126.644 192.819,126.644L185.112,126.644C179.241,126.655 179.317,126.922 179.307,133.232C179.304,135.163 180.044,135.431 181.697,135.408C187.569,135.325 193.443,135.375 199.317,135.375L199.866,135.375C205.201,135.369 205.933,135.216 205.957,131.005L205.957,130.57C205.955,129.972 205.942,129.3 205.928,128.543C205.897,126.854 205.235,126.591 203.8,126.619ZM164.2,126.608C157.893,126.711 151.584,126.653 145.275,126.657L144.77,126.658C139.883,126.666 139.939,126.836 140.031,132.09C140.074,134.517 141.206,135.432 143.522,135.391C147.016,135.328 150.512,135.375 154.007,135.375L160.698,135.375C166.687,135.369 166.597,135.186 166.687,128.93C166.716,126.882 165.994,126.579 164.2,126.608ZM164.459,106.325C158.508,106.403 152.555,106.356 146.602,106.356L145.798,106.357C139.983,106.368 140.047,106.637 140.075,113.002C140.083,114.768 140.706,115.124 142.295,115.082C146.033,114.984 149.776,115.05 153.518,115.05L160.695,115.05C166.159,115.046 166.658,114.899 166.673,110.18L166.673,109.709C166.672,109.304 166.669,108.869 166.666,108.4C166.655,106.642 166.042,106.305 164.459,106.325ZM202.536,106.339C196.995,106.397 191.454,106.357 185.913,106.356L185.105,106.357C179.084,106.368 179.137,106.637 179.318,113.228C179.359,114.707 179.82,115.109 181.235,115.078C184.984,114.997 188.736,115.05 192.487,115.05L201.175,115.05C206.054,115.045 205.995,114.878 205.956,109.682C205.938,107.27 204.887,106.314 202.536,106.339ZM160.449,70.779L173.24,70.779L173.24,70.798C185.776,70.798 198.311,70.79 210.847,70.801C216.304,70.807 218.45,72.957 218.452,78.374C218.453,80.421 218.505,82.471 218.4,84.513C218.229,87.813 215.724,90.222 212.443,90.376C209.334,90.522 206.461,88.433 206.049,85.3C205.805,83.457 205.021,83.119 203.405,83.119C183.195,83.121 162.985,83.091 142.775,83.012C140.995,83.005 140.256,83.548 139.943,85.385C139.406,88.536 136.502,90.591 133.455,90.359C130.258,90.115 127.779,87.59 127.632,84.3C127.544,82.343 127.614,80.379 127.62,78.417C127.638,72.796 129.669,70.789 135.378,70.782C143.736,70.772 152.092,70.779 160.449,70.779ZM44.197,70.002C47.913,70.101 50.93,73.249 50.879,76.975C50.827,80.695 47.7,83.767 43.993,83.741C40.301,83.715 37.161,80.578 37.142,76.898C37.123,73.135 40.431,69.902 44.197,70.002Z" fill="#000" stroke="#00000000" stroke-width="1.0" stroke-miterlimit=""/>
	</svg>
