<?xml version="1.0" encoding="utf-8"?>
	<svg version="1.1" xmlns="http://www.w3.org/2000/svg" xmlns:xlink="http://www.w3.org/1999/xlink" x="0px" y="0px" width="1024.0" height="1024.0" xml:space="preserve">
		<path d="M900.235876 928.150433A158.376907 158.376907 0 0 1 754.722309 1024h-490.886598a158.350515 158.350515 0 0 1-146.680082-98.673485c-143.407505-73.142103-150.316866-282.951258-11.670433-366.734515V432.824742a343.092784 343.092784 0 0 1 283.088495-337.756371c27.500206-127.018227 220.323629-126.680412 246.94235 0.987052A343.150845 343.150845 0 0 1 913.072825 432.824742v123.075299c146.384495 82.574515 138.889237 301.53633-12.836949 372.250392zM105.485196 865.649485v-255.245196c-78.283216 66.755299-76.536082 192.084454 0.042227 256.844536-0.005278-0.54367-0.042227-1.071505-0.042227-1.59934z m329.105155-775.563877c4.644948-0.184742 9.295175-0.353649 13.987628-0.353649h121.402062c6.497649 0 12.942515 0.216412 19.350433 0.57534-27.426309-64.005278-127.155464-64.084454-154.740123-0.221691zM870.846021 438.103093a306.14433 306.14433 0 0 0-306.14433-306.14433h-110.845361a306.14433 306.14433 0 0 0-306.14433 306.14433v411.71134a131.958763 131.958763 0 0 0 131.958763 131.958763h459.216495a131.958763 131.958763 0 0 0 131.958763-131.958763V438.103093z m42.226804 168.210474V865.649485c0 1.942433-0.079175 3.858474-0.147794 5.806185 83.809649-64.559505 85.804866-198.275959 0.147794-265.142103z m-211.134021-41.530062h-369.484536a79.175258 79.175258 0 0 1-79.175258-79.175258V353.649485a79.175258 79.175258 0 0 1 79.175258-79.175258h369.484536a79.175258 79.175258 0 0 1 79.175258 79.175258v131.958762a79.175258 79.175258 0 0 1-79.175258 79.175258z m36.948454-195.298969a52.783505 52.783505 0 0 0-52.783505-52.783505h-337.814433a52.783505 52.783505 0 0 0-52.783506 52.783505v100.28866a52.783505 52.783505 0 0 0 52.783506 52.783505h337.814433a52.783505 52.783505 0 0 0 52.783505-52.783505V369.484536z" fill="#000" stroke="" stroke-width="" stroke-miterlimit=""/>
	</svg>
