<svg xmlns="http://www.w3.org/2000/svg" width="256" height="256" viewBox="0 0 192 192" preserveAspectRatio="xMidYMid meet" xmlns:v="https://vecta.io/nano"><path d="M92.5 18.5C84 20.4 41.3 36.3 31.8 41.1c-6.2 3.1-6.8 5.5-6.8 24.6 0 19.7 1.5 44.5 3.1 52.3 1.8 8.8 5.5 14.9 14.8 24.1 9.3 9.3 21.9 18.1 37 25.8 13.9 7.1 16.5 7.7 22.7 5.4 12.8-4.9 49.5-30.4 55.4-38.5 7.4-10.2 9-20.7 9-58.9 0-24.9-.2-27.9-1.7-29.8-2.8-3.2-51.4-26.2-59.6-28.1-5.2-1.2-5.8-1.2-13.2.5zM130 39.9c13.5 6.2 25.1 11.8 25.9 12.5 1.2.9 1.3 5.7.8 28.6-.7 29.4-2 39.5-5.8 45.6-4.8 7.8-47.7 37.4-54.2 37.4-2.4 0-19.1-9.1-30.2-16.5-11.8-7.8-21.9-17.5-25.3-24.1-1.2-2.3-2.6-7-3.2-10.5-1.4-8.7-3.4-60.9-2.3-61.9C37 49.8 63.8 39.3 81 33.3c12.2-4.3 16.5-5.3 20-5 3 .2 12.5 4 29 11.6zm-41.4 21c-.3.4-1.8 7.8-3.6 16.6-3.1 15.7-3.1 15.9-1.2 18.5 1.5 2 3.2 2.7 8.6 3.4s6.6 1.1 6.2 2.5c-1 3.6-3.9 23.2-3.4 23.6.2.3 2.5.9 5.1 1.4 5.4 1 4.5 2.8 7.7-16.9 2.5-15.6 2.5-15.6-.5-18.5-2-2.1-3.4-2.5-8-2.5-4 0-5.5-.4-5.5-1.4 0-1.2 3.1-17.4 4.5-23.2.4-1.9-.1-2.3-4.5-3.1-2.8-.6-5.2-.7-5.4-.4z"/></svg>