<svg xmlns="http://www.w3.org/2000/svg" width="192" height="192" fill="none" stroke="#000" stroke-linecap="round"
  stroke-linejoin="round" stroke-width="12" viewBox="0 0 192 192">
  <path
    d="M 158 146.4 h -1.2 a 12 12 0 0 1 -12 -12 V 57.7 a 12 12 0 0 1 12 -12 h 1.2 a 12 12 0 0 1 12 12 v 76.7 a 12 12 0 0 1 -12 12 z m -54.9 -63.3 s -5.7 6.1 -5.2 13.3 c 0.5 6.9 5.2 12.4 5.2 12.4 l 15.4 15.4 A 8.9 8.9 0 0 1 100.7 142 l -15.4 -15.4 s -5.5 -4.9 -12.4 -5.1 c -8 -0.2 -13.4 5.1 -13.4 5.1 L 44.1 142 A 8.9 8.9 0 0 1 26.3 124.2 l 74.4 -74.4 a 8.9 8.9 0 0 1 17.8 17.8 l -15.4 15.5" />
  <circle cx="34.6" cy="58.2" r="12.6" />
</svg>