<svg width="24" height="24" viewBox="0 0 24 24" fill="none" xmlns="http://www.w3.org/2000/svg">
<path d="M21 12C21 16.9706 16.9706 21 12 21C7.02944 21 3 16.9706 3 12C3 11.8503 3.00366 11.7014 3.01089 11.5534C3.02535 11.2575 2.79594 11 2.49969 11V11C2.2441 11 2.02879 11.1937 2.01493 11.449C2.00502 11.6314 2 11.8151 2 12C2 17.5228 6.47715 22 12 22C17.5228 22 22 17.5228 22 12C22 6.47715 17.5228 2 12 2C11.8151 2 11.6314 2.00502 11.449 2.01493C11.1937 2.02879 11 2.2441 11 2.49969V2.49969C11 2.79594 11.2575 3.02535 11.5534 3.01089C11.7014 3.00366 11.8503 3 12 3C16.9706 3 21 7.02944 21 12Z" fill="black"/>
<rect x="6.94974" y="2" width="2" height="7" rx="1" transform="rotate(45 6.94974 2)" fill="black"/>
<path d="M15.7437 9.5C15.7886 9.5 15.826 9.53621 15.826 9.58077V14.4198C15.826 14.4636 15.7886 14.5 15.7437 14.5H14.6834C14.6379 14.5 14.6009 14.4636 14.6009 14.4198V9.58077C14.6009 9.53623 14.6379 9.5 14.6834 9.5H15.7437ZM11.1425 9.5C11.9423 9.5 12.7786 9.53667 13.1911 9.94942C13.5966 10.3556 13.6405 11.1643 13.6422 11.9497V14.4198C13.6422 14.4636 13.6052 14.5 13.5599 14.5H12.4998C12.4544 14.5 12.4173 14.4636 12.4173 14.4198V11.9072C12.4162 11.4686 12.391 11.0178 12.1648 10.7908C11.9701 10.5956 11.6068 10.5509 11.229 10.5416H9.30725C9.26218 10.5416 9.22528 10.5779 9.22528 10.6217V14.4198C9.22528 14.4636 9.18793 14.5 9.14257 14.5H8.08179C8.03646 14.5 8 14.4636 8 14.4198V9.58077C8 9.53623 8.03644 9.5 8.08179 9.5H11.1425ZM11.3798 11.4272C11.4249 11.4272 11.4615 11.4633 11.4615 11.5076V14.4198C11.4615 14.4636 11.4249 14.5 11.3798 14.5H10.2661C10.2203 14.5 10.1837 14.4636 10.1837 14.4198V11.5076C10.1837 11.4633 10.2203 11.4272 10.2661 11.4272H11.3798Z" fill="black"/>
</svg>
