<svg width="192" height="192" viewBox="0 0 192 192" fill="none" xmlns="http://www.w3.org/2000/svg"><path d="M64 84V72m0 12h12m-12 0v12m0-12H52" stroke="#000" stroke-width="10" stroke-linecap="round" stroke-linejoin="round"/><circle cx="127" cy="72" r="3" stroke="#000" stroke-width="6" stroke-linecap="round" stroke-linejoin="round"/><circle cx="3" cy="3" r="3" transform="matrix(1 0 0 -1 136 87)" stroke="#000" stroke-width="6" stroke-linecap="round" stroke-linejoin="round"/><circle cx="127" cy="96" r="3" stroke="#000" stroke-width="6" stroke-linecap="round" stroke-linejoin="round"/><circle cx="3" cy="3" r="3" transform="matrix(1 0 0 -1 112 87)" stroke="#000" stroke-width="6" stroke-linecap="round" stroke-linejoin="round"/><path d="M96 116H64c-8 48-42 34-42 14 0-10 6-54 10-64s14-32 46-13h18m0 63h32c8 48 42 34 42 14 0-10-6-54-10-64s-14-32-46-13H96" stroke="#000" stroke-width="12" stroke-linecap="round" stroke-linejoin="round"/></svg>