<svg width="192" height="192" viewBox="0 0 192 192" fill="none" xmlns="http://www.w3.org/2000/svg"><path d="M144.201 30.201a28 28 0 0 1 13.845-7.56C161.283 21.935 164 24.685 164 28v44c0 3.314-2.717 6.064-5.954 5.36a28 28 0 0 1-13.845-47.16Zm-96.402 36a28 28 0 0 0-13.845-7.56C30.716 57.935 28 60.685 28 64v44c0 3.314 2.716 6.064 5.954 5.36A28.006 28.006 0 0 0 56 86a28 28 0 0 0-8.201-19.799ZM112 22v112M80 58v112" stroke="#000" stroke-width="12" stroke-linecap="round" stroke-linejoin="round"/></svg>