<?xml version="1.0" encoding="utf-8"?>
	<svg version="1.1" xmlns="http://www.w3.org/2000/svg" xmlns:xlink="http://www.w3.org/1999/xlink" x="0px" y="0px" width="240.0" height="240.0" xml:space="preserve">
		<path d="M164.317,183.615L164.317,92.492C164.317,71.787 147.536,55 126.834,55L21.471,55C20.658,55 20,55.654 20,56.459L20,183.615C20,184.419 20.658,185.07 21.471,185.07L49.614,185.07C50.427,185.07 51.084,184.415 51.084,183.607L51.084,83.804C51.084,82.994 51.742,82.336 52.555,82.336L113.075,82.336C124.44,82.336 133.656,91.548 133.656,102.915L133.656,183.604C133.656,184.413 134.314,185.067 135.122,185.067L162.851,185.067C163.658,185.067 164.317,184.414 164.317,183.611M107.483,183.606C107.483,184.416 106.831,185.07 106.018,185.07L77.881,185.07C77.068,185.07 76.41,184.415 76.41,183.606L76.41,107.128C76.41,106.318 77.068,105.661 77.881,105.661L106.018,105.661C106.831,105.661 107.483,106.318 107.483,107.128L107.483,183.609L107.483,183.606ZM220,183.606C220,184.416 219.341,185.07 218.529,185.07L190.398,185.07C189.584,185.07 188.921,184.415 188.921,183.606L188.921,56.472C188.921,55.659 189.584,55.002 190.398,55.002L218.529,55.002C219.342,55.002 220,55.659 220,56.472L220,183.606Z" fill="#000" stroke="#00000000" stroke-width="1.0" stroke-miterlimit=""/>
	</svg>
