<?xml version="1.0" encoding="utf-8"?>
	<svg version="1.1" xmlns="http://www.w3.org/2000/svg" xmlns:xlink="http://www.w3.org/1999/xlink" x="0px" y="0px" width="200.0" height="200.0" xml:space="preserve">
		<path d="M153.1,90.4c-2.7-0.1-3.7-0.8-4.3-3.3c-5.9-23.3-23.6-38.9-47.7-42.2c-21.4-2.9-43.5,8.7-54.7,29 c-0.8,1.7-2.3,2.9-4.1,3.4c-18.6,6.3-30,25.1-26.8,44.5c3.2,19.5,19.9,33.6,40,33.7c16.1,0,32.2,0,48.3,0v-0.1 c16.7,0,33.4,0.3,50-0.1c18-0.5,31.4-15.1,31.2-32.9C184.7,104.9,170.6,90.7,153.1,90.4L153.1,90.4z M153.8,148.3 c-16.8,0.4-33.6,0.1-50.4,0.1l0,0c-15.9,0-31.9,0.1-47.8,0c-17.2-0.1-31.3-12-33.4-28.1c-2.3-17.4,7.8-32.5,25-37 c2.6-0.7,3.4-2.2,4.4-4.2c8.9-18.3,28.1-29.2,47.9-27.2c20.6,2,37.6,16.8,42.4,36.8c0.8,3.1,0.2,7.3,2,9.1c1.4,1.4,5.7-0.4,8.7-0.4 c13.7,0.2,24.7,11.1,25.1,24.8C178.1,136.2,167.8,147.9,153.8,148.3L153.8,148.3z" fill="#000" stroke="#000" stroke-width="12.0" stroke-miterlimit="10.0"/>
	</svg>
