<svg xmlns="http://www.w3.org/2000/svg" width="192" height="192" fill="none" stroke="#000" stroke-linecap="round" stroke-linejoin="round" stroke-width="6" viewBox="0 0 192 192"><path stroke-width="10" d="M64 84V72m0 12h12m-12 0v12m0-12H52"/><path stroke-width="12" d="M96 116H64c-8 48-42 34-42 14 0-10 6-54 10-64s14-32 46-13h18m0 63h32c8 48 42 34 42 14 0-10-6-54-10-64s-14-32-46-13H96"/><circle cx="127" cy="72" r="3"/><circle cx="3" cy="3" r="3" transform="matrix(1 0 0 -1 136 87)"/><circle cx="127" cy="96" r="3"/><circle cx="3" cy="3" r="3" transform="matrix(1 0 0 -1 112 87)"/></svg>