<?xml version="1.0" encoding="utf-8"?>
	<svg version="1.1" xmlns="http://www.w3.org/2000/svg" xmlns:xlink="http://www.w3.org/1999/xlink" x="0px" y="0px" width="240.0" height="240.0" xml:space="preserve">
		<path d="M95.095,23.805C54.352,34.746 24.578,70.435 20.399,113.157C18.31,134.258 24.055,142.333 46.516,149.888C67.41,156.661 82.036,170.207 88.566,187.921C96.662,211.106 97.446,212.408 106.848,216.837C114.944,220.744 118.601,220.744 133.227,218.4C175.798,211.106 206.094,184.014 216.803,143.375C231.167,89.972 195.647,34.225 140.017,22.502C122.257,18.855 112.855,19.116 95.095,23.805ZM130.615,88.409C162.478,103.258 171.097,120.191 154.643,136.081C134.01,155.619 106.326,163.434 96.14,152.232C91.961,147.543 91.177,142.594 91.177,119.93C91.177,97.266 91.961,92.317 96.14,87.628C102.669,80.334 113.9,80.594 130.615,88.409L130.615,88.409Z" fill="#000" stroke="#00000000" stroke-width="1.0" stroke-miterlimit=""/>
	</svg>
