<svg xmlns="http://www.w3.org/2000/svg" width="192" height="192" fill="none" stroke="#000" stroke-linejoin="round" stroke-width="12" viewBox="0 0 192 192"><path stroke-linecap="round" d="M170 117c-12.051 1.534-24.329-.618-35.593-5.168A71 71 0 0 1 90.974 57.72C88.969 45.738 89.894 33.434 94 22"/><path d="M94 22c18 0 38 14 38 14s-12 28-4 36 36 4 36 4 6 20 6 41"/><path stroke-linecap="round" d="M22 75c12.051-1.534 24.329.618 35.593 5.168a71 71 0 0 1 43.433 54.112c2.005 11.982 1.079 24.286-3.026 35.72"/><path d="M98 170c-18 0-38-14-38-14s12-28 4-36-36-4-36-4-6-20-6-41"/></svg>