<?xml version="1.0" encoding="utf-8"?>
	<svg version="1.1" xmlns="http://www.w3.org/2000/svg" xmlns:xlink="http://www.w3.org/1999/xlink" x="0px" y="0px" width="240.0" height="240.0" xml:space="preserve">
		<path d="M174,30L66,30C46.138,30 30,46.138 30,66L30,174C30,193.862 46.06,210 66,210L174,210C193.862,210 210,193.862 210,174L210,66C209.922,46.06 193.862,30 174,30ZM109.448,162.75C109.448,168.491 104.793,173.069 99.129,173.069L90.284,173.069C95.25,172.293 99.129,167.948 99.129,162.75L99.129,80.043C99.129,77.172 96.802,74.922 93.931,74.922L78.259,74.922C75.388,74.922 73.06,77.25 73.06,80.043L73.06,157.552C73.06,160.422 75.388,162.75 78.259,162.75L83.457,162.75C86.328,162.75 88.888,165.078 88.888,167.638C88.888,170.664 86.56,172.914 83.612,173.147L72.983,173.147C67.241,173.147 62.586,168.569 62.586,162.828L62.586,74.767C62.586,69.026 67.241,64.448 72.983,64.448L99.052,64.448C104.793,64.448 109.371,69.026 109.371,74.767L109.371,162.75L109.448,162.75ZM182.224,64.526C182.224,70.267 177.569,74.845 171.905,74.845L135.44,74.845C132.569,74.845 130.241,77.172 130.241,80.043L130.241,100.914L182.224,100.914L182.224,100.991C182.224,105.957 178.655,110.224 173.922,111.155L173.922,168.647C173.922,174.388 169.267,178.966 163.526,178.966L163.526,111.388L130.241,111.388L130.241,168.647C130.241,174.388 125.586,178.966 119.922,178.966L119.845,178.966L119.845,74.845C119.845,69.103 124.5,64.526 130.241,64.526L182.224,64.526L182.224,64.526Z" fill="#000" stroke="#00000000" stroke-width="1.0" stroke-miterlimit=""/>
	</svg>
