<?xml version="1.0" encoding="utf-8"?>
	<svg version="1.1" xmlns="http://www.w3.org/2000/svg" xmlns:xlink="http://www.w3.org/1999/xlink" x="0px" y="0px" width="240.0" height="240.0" xml:space="preserve">
		<path d="M93.664,220C81.955,219.726 66.619,209.577 57.169,191.285C47.581,172.721 49.247,153.999 61.623,137.31C74.418,120.052 92.222,113.191 113.614,116.801C123.592,118.485 123.574,118.686 122,108.446C118.358,84.754 114.658,61.071 111.065,37.371C109.183,24.971 114.052,18.904 125.832,20.163C142.626,21.954 159.337,24.53 176.073,26.874C183.595,27.929 189.03,31.42 188.508,39.958C188.074,47.046 182.009,50.862 172.618,49.91C162.84,48.918 153.069,47.692 143.376,46.086C138.034,45.201 136.025,46.322 137.017,52.053C142.933,86.257 145.968,120.957 154.083,154.771C162.201,188.609 137.778,220.187 93.664,220" fill="#000" stroke="#00000000" stroke-width="1.0" stroke-miterlimit=""/>
	</svg>
