<svg width="192" height="192" fill="none" xmlns="http://www.w3.org/2000/svg"><path d="M40 44a6 6 0 0 1 6-6h100a6 6 0 0 1 6 6v120a6 6 0 0 1-6 6H46a6 6 0 0 1-6-6V44Zm12-22v16m44-16v16M74 22v16" stroke="#000" stroke-width="12" stroke-linecap="round" stroke-linejoin="round"/><path d="M70 93c15 20 29 54 29 54" stroke="#000" stroke-width="12" stroke-linecap="round" stroke-linejoin="round"/><path d="M62 147c7 0 36-49 49-67m7-58v16m22-16v16" stroke="#000" stroke-width="12" stroke-linecap="round" stroke-linejoin="round"/></svg>