<svg xmlns="http://www.w3.org/2000/svg" width="192" height="192" fill="none"><path stroke="#000" stroke-linecap="round" stroke-linejoin="round" stroke-width="12" d="M40 44a6 6 0 0 1 6-6h100a6 6 0 0 1 6 6v120a6 6 0 0 1-6 6H46a6 6 0 0 1-6-6zm12-22v16m44-16v16M74 22v16"/><path stroke="#000" stroke-linecap="round" stroke-linejoin="round" stroke-width="12" d="M70 93c15 20 29 54 29 54"/><path stroke="#000" stroke-linecap="round" stroke-linejoin="round" stroke-width="12" d="M62 147c7 0 36-49 49-67m7-58v16m22-16v16"/></svg>