<svg width="192" height="192" fill="none" xmlns="http://www.w3.org/2000/svg"><path d="M23.887 122.844a6.447 6.447 0 0 1 0-9.114l19.736-19.75a6.438 6.438 0 0 1 9.109 0l19.736 19.75a6.447 6.447 0 0 1 0 9.114l-19.736 19.749a6.438 6.438 0 0 1-9.11 0l-19.735-19.749ZM70.95 75.751a6.448 6.448 0 0 1 0-9.115l19.736-19.748a6.438 6.438 0 0 1 9.11 0l68.317 68.361a6.447 6.447 0 0 1 0 9.115l-19.736 19.748a6.438 6.438 0 0 1-9.109 0L70.95 75.752Z" stroke="#000" stroke-width="12" stroke-linecap="round" stroke-linejoin="round"/></svg>