<?xml version="1.0" encoding="utf-8"?>
	<svg version="1.1" xmlns="http://www.w3.org/2000/svg" xmlns:xlink="http://www.w3.org/1999/xlink" x="0px" y="0px" width="240.0" height="240.0" xml:space="preserve">
		<path d="M119.138,219.971C90.729,219.971 62.321,219.971 33.912,219.971C30.728,219.971 27.69,219.346 25.035,217.55C21.355,215.062 20.597,211.094 20.097,207.081C19.934,205.785 20.034,204.452 20.034,203.135C20.03,151.239 20.043,99.338 20.005,47.438C20.001,42.908 20.418,38.474 23.302,34.84C27.827,29.143 32.578,23.596 39.742,21.004C41.634,20.321 43.613,20 45.643,20C61.925,20.008 78.211,20 94.493,20C100.514,20 105.311,22.592 109.103,27.11C110.354,28.601 111.745,29.939 113.054,31.369C115.359,33.89 118.322,34.869 121.61,34.957C124.935,35.044 128.261,34.986 131.586,35.007C153.957,35.148 176.331,35.244 198.702,35.482C202.477,35.523 206.27,35.853 209.824,37.549C215.413,40.216 217.934,44.938 218.676,50.705C219.088,53.91 219.168,57.177 219.163,60.436C219.122,107.76 219.143,155.089 219.126,202.414C219.126,205.389 218.976,208.398 218.076,211.236C216.28,216.904 212.025,219.85 205.611,219.942C199.168,220.033 192.721,219.992 186.279,219.992C163.9,219.996 141.517,219.992 119.138,219.992C119.138,219.983 119.138,219.979 119.138,219.971ZM73.635,95.388C73.247,96.025 73.393,96.734 73.393,97.417C73.393,102.118 73.402,106.814 73.427,111.515C73.439,113.941 73.864,114.328 76.373,114.328C86.958,114.328 97.543,114.324 108.128,114.324C112.779,114.324 112.825,114.328 112.783,109.694C112.725,103.472 113.083,97.25 112.65,91.029C112.696,89.924 112.766,88.816 112.779,87.711C112.804,84.927 112.3,84.411 109.562,84.407C104.511,84.398 99.456,84.34 94.409,84.44C92.546,84.477 91.209,83.836 90.25,82.315C89.717,81.469 89.021,81.144 88.012,81.16C84.553,81.21 81.094,81.164 77.632,81.181C75.927,81.189 73.46,83.327 73.447,85.04C73.431,88.486 73.193,91.945 73.635,95.388ZM112.646,140.224C112.691,139.12 112.775,138.016 112.779,136.911C112.787,134.365 112.004,133.577 109.478,133.573C104.365,133.569 99.252,133.531 94.143,133.602C92.859,133.619 91.942,133.269 91.059,132.331C90.259,131.477 89.584,130.402 88.054,130.452C84.674,130.56 81.286,130.464 77.898,130.493C76.152,130.506 73.439,132.94 73.435,134.682C73.427,137.991 73.227,141.308 73.606,144.612C73.531,145.15 73.431,145.688 73.389,146.229C73.01,151.101 73.589,155.973 73.443,160.848C73.368,163.378 73.593,163.524 76.152,163.524C86.675,163.524 97.201,163.507 107.724,163.524C113.167,163.532 112.837,163.895 112.783,158.49C112.725,152.401 113.083,146.309 112.646,140.224ZM216.23,62.532C216.23,58.315 216.259,54.672 216.225,51.03C216.163,43.987 210.908,38.691 203.878,38.603C194.459,38.491 185.041,38.403 175.619,38.336C155.674,38.199 135.724,38.078 115.779,37.961C114.854,37.957 114.054,37.903 113.421,37.036C110.495,33.031 107.332,29.214 104.04,25.509C102.515,23.792 100.581,22.859 98.281,22.859C79.857,22.846 61.429,22.863 43.005,22.846C39.992,22.842 37.3,24.034 35.329,25.997C33.237,28.076 31.236,30.289 29.136,32.381C21.847,39.649 22.968,36.944 22.922,47.242C22.881,58.256 22.918,69.271 22.956,80.281C22.96,80.956 22.51,82.06 23.568,82.206C24.998,82.402 26.602,82.827 27.515,80.939C28.569,78.76 29.799,76.668 30.957,74.538C33.745,69.412 37.858,66.808 43.888,66.862C60.65,67.008 77.411,66.933 94.176,66.904C102.894,66.891 102.881,67.891 108.503,59.723C110.774,56.427 113.833,54.756 117.976,54.764C146.372,54.827 174.773,54.793 203.173,54.802C206.553,54.802 209.553,55.993 212.2,58.031C213.646,59.152 214.804,60.603 216.23,62.532ZM114.9,202.068C120.251,202.068 124.939,202.055 129.628,202.076C130.54,202.08 130.949,201.409 131.47,200.893C135.295,197.075 139.15,193.291 142.905,189.403C147.006,185.161 151.681,181.798 157.128,179.518C159.512,178.518 161.933,177.964 164.588,178.243C169.555,178.764 174.506,179.189 179.486,177.885C187.146,175.876 193.893,172.409 199.168,166.416C209.137,155.089 211.654,142.179 207.12,127.864C205.903,124.026 203.794,123.588 200.981,126.459C194.147,133.436 187.312,140.42 180.486,147.405C179.803,148.105 179.136,148.83 178.132,149.026C173.643,149.897 169.338,148.784 165.425,146.934C163.221,145.892 163.521,142.704 162.875,140.424C162.554,139.299 162.421,138.116 162.291,136.949C162.021,134.482 162.646,132.44 164.575,130.618C171.522,124.051 178.327,117.337 185.195,110.69C188.192,107.79 187.75,105.843 183.787,104.414C170.743,99.705 152.865,102.105 141.175,116.662C134.099,125.472 131.661,135.632 133.424,146.754C133.774,148.963 133.607,150.989 132.845,153.051C130.911,158.256 127.615,162.54 123.756,166.416C112.416,177.805 101.044,189.162 89.663,200.513C89.242,200.934 88.604,201.13 88.066,201.434C88.233,201.668 88.396,201.901 88.562,202.13C92.684,202.13 96.81,202.026 100.927,202.172C103.09,202.251 104.628,201.634 106.178,200.051C115.05,190.995 124.052,182.065 133.016,173.101C135.174,170.942 137.658,170.746 139.383,172.567C140.988,174.259 140.688,176.301 138.454,178.547C133.812,183.211 129.157,187.865 124.498,192.516C121.464,195.542 118.417,198.563 114.9,202.068ZM47.826,182.902C47.826,188.582 47.822,194.262 47.831,199.938C47.831,200.993 47.476,202.118 49.373,202.097C51.102,202.076 51.04,201.218 51.035,200.018C51.006,194.129 51.023,188.245 51.023,182.356C51.023,176.814 51.04,171.275 51.01,165.733C51.006,164.587 51.165,163.932 52.54,163.566C57.924,162.132 61.479,158.731 62.658,153.172C62.933,151.884 63.329,151.209 64.779,151.28C66.713,151.376 68.655,151.284 70.597,151.259C71.43,151.247 72.251,151.334 72.272,150.03C72.293,148.734 71.689,148.28 70.539,148.267C68.601,148.246 66.659,148.188 64.721,148.246C63.521,148.284 62.921,148.017 62.612,146.654C61.9,143.512 60.058,140.999 57.461,139.087C49.731,133.394 39.158,136.99 36.02,146.454C35.558,147.846 35.004,148.317 33.582,148.259C30.953,148.155 28.319,148.159 25.69,148.263C24.689,148.305 23.114,147.4 23.068,149.713C23.022,151.972 24.514,151.255 25.577,151.28C28.206,151.347 30.844,151.397 33.47,151.268C35.028,151.189 35.599,151.764 35.95,153.243C37.225,158.627 40.613,162.145 45.968,163.516C47.576,163.928 47.864,164.637 47.847,166.07C47.793,171.679 47.826,177.293 47.826,182.902ZM30.194,99.08C27.831,99.08 26.235,99.142 24.648,99.059C23.497,99.001 23.093,99.347 23.081,100.559C23.068,101.843 23.456,102.23 24.735,102.193C27.706,102.101 30.686,102.226 33.662,102.135C35.004,102.093 35.595,102.514 35.924,103.851C37.617,110.723 42.813,114.766 49.694,114.691C56.065,114.624 61.208,110.336 62.687,103.706C62.958,102.485 63.462,102.105 64.621,102.143C66.35,102.201 68.08,102.13 69.809,102.147C70.947,102.16 71.151,101.489 71.185,100.53C71.226,99.455 70.805,99.038 69.73,99.076C68.209,99.126 66.675,98.98 65.167,99.105C63.579,99.238 62.937,98.688 62.487,97.092C60.875,91.399 56.22,87.557 50.227,87.215C44.488,86.886 39.542,89.178 37.35,94.504C35.662,98.634 33.532,100.084 30.194,99.08Z" fill="#000" stroke="" stroke-width="" stroke-miterlimit=""/>
		<path d="M49.265,151.709C47.602,151.709 45.939,151.693 44.276,151.714C43.21,151.73 42.464,151.293 42.447,150.201C42.43,149.088 43.243,148.638 44.256,148.634C47.581,148.609 50.907,148.617 54.232,148.626C55.337,148.63 56.17,149.03 56.132,150.293C56.099,151.48 55.266,151.722 54.253,151.714C52.59,151.697 50.928,151.709 49.265,151.709Z" fill="#000" stroke="" stroke-width="" stroke-miterlimit=""/>
		<path d="M49.29,107.915C47.982,107.665 47.744,106.731 47.698,105.598C47.582,102.668 47.561,102.651 44.731,102.564C43.614,102.53 42.485,102.376 42.435,101.039C42.377,99.472 43.635,99.459 44.794,99.472C47.978,99.501 47.728,99.58 47.707,96.55C47.698,95.396 47.744,94.171 49.282,94.129C50.849,94.087 50.887,95.342 50.937,96.479C51.062,99.384 51.062,99.397 54.016,99.467C55.029,99.492 56.075,99.488 56.129,100.847C56.183,102.243 55.216,102.555 54.058,102.551C53.641,102.551 53.224,102.597 52.816,102.547C51.357,102.368 50.799,103.01 50.932,104.439C50.995,105.123 50.957,105.827 50.853,106.506C50.716,107.365 50.116,107.794 49.29,107.915Z" fill="#000" stroke="" stroke-width="" stroke-miterlimit=""/>
	</svg>
