<svg xmlns="http://www.w3.org/2000/svg" width="192" height="192" fill="none" viewBox="0 0 192 192">
  <path stroke="#000" stroke-linecap="round" stroke-linejoin="round" stroke-width="12" d="M71 66.5V45.304a8 8 0 0 1 6.13-7.778l62.999-15.152c5.032-1.21 9.871 2.603 9.871 7.778v62.544a8 8 0 0 1-6.129 7.778L93 112.709m0 0L71 118l22 8v-13.291Z"/>
  <path stroke="#000" stroke-linecap="round" stroke-linejoin="round" stroke-width="12" d="M121 125.5v21.196a8 8 0 0 1-6.129 7.778l-63 15.152c-5.032 1.21-9.871-2.603-9.871-7.778V99.304a8 8 0 0 1 6.13-7.778L99 79.29m0 0L121 74l-22-8v13.291Z"/>
</svg>
