<svg width="192" height="192" viewBox="0 0 192 192" fill="none" xmlns="http://www.w3.org/2000/svg"><path d="m168.231 143.42-43.149-43.149a6.04 6.04 0 0 1 0-8.542l43.149-43.149a6.039 6.039 0 0 0 0-8.541l-16.27-16.27a6.04 6.04 0 0 0-8.541 0l-43.149 43.149a6.04 6.04 0 0 1-8.542 0L48.58 23.769a6.04 6.04 0 0 0-8.541 0l-16.27 16.27a6.04 6.04 0 0 0 0 8.541l43.149 43.15a6.04 6.04 0 0 1 0 8.541L23.769 143.42a6.04 6.04 0 0 0 0 8.541l16.27 16.27a6.039 6.039 0 0 0 8.541 0l43.15-43.149a6.04 6.04 0 0 1 8.541 0l43.149 43.149a6.039 6.039 0 0 0 8.541 0l16.27-16.27a6.039 6.039 0 0 0 0-8.541Z" stroke="#000" stroke-width="12" stroke-linecap="round" stroke-linejoin="round"/></svg>