<svg xmlns="http://www.w3.org/2000/svg" width="192" height="192" fill="none" stroke="#000" stroke-linecap="round" stroke-linejoin="round" stroke-width="12" viewBox="0 0 192 192"><path stroke-width="10"/><path d="M50.23 75.1c23.01 15.46 32.67 38.53 33.48 66.35.31 10.51.25 21.03.37 31.55h-1.63c-1.13-1.17-2.16-2.47-3.41-3.49-28.14-22.93-46.27-52.76-55.58-88.65-1.61-6.23-2.99-12.53-4.46-18.79v-6.82c10.42 6.6 20.99 12.96 31.23 19.85m60.21 52.93c1.54-18.62 9.15-34.51 23.48-45.84 11.98-9.48 24.75-17.83 39.08-28.03-.92 17.71-4.86 34.65-11.84 50.81-10.82 25.58-26.25 47.52-47.67 64.54-1.26 1-2.28 2.32-3.41 3.49h-1.63c.62-15 .75-30.04 1.99-44.97M35.13 33.41c28.18-18.56 89.23-19.85 122.25-.07-50.24 33.39-72.43 34.23-122.25.07"/></svg>
