<svg width="192" height="192" viewBox="0 0 192 192" fill="none" xmlns="http://www.w3.org/2000/svg"><path d="M54 160h66m0 0a50.003 50.003 0 0 0 46.194-30.866 49.994 49.994 0 0 0-10.839-54.49A49.995 49.995 0 0 0 96 66.138M54 160a29.996 29.996 0 0 1-27.716-18.519 30.002 30.002 0 0 1 20.426-40.582M96 66.137a36.998 36.998 0 0 0-34.58-37.058 37 37 0 0 0-14.71 71.82M96 66.137a50 50 0 0 0-25.728 38.659 30.001 30.001 0 0 0-23.562-3.897" stroke="#000" stroke-width="12" stroke-linecap="round" stroke-linejoin="round"/></svg>