<svg width="192" height="192" viewBox="0 0 192 192" fill="none" xmlns="http://www.w3.org/2000/svg"><path d="M90 83 70 63 42 91m82 0-20-20-20 20" stroke="#000" stroke-width="10" stroke-linecap="round" stroke-linejoin="round"/><path d="M170 137a12.988 12.988 0 0 1-3.808 9.192 12.988 12.988 0 0 1-14.167 2.818 12.98 12.98 0 0 1-4.217-2.818A12.988 12.988 0 0 1 144 137" stroke="#000" stroke-width="12" stroke-linecap="round" stroke-linejoin="round"/><path d="M157 150H28a6 6 0 0 1-6-6V48a6 6 0 0 1 6-6h110a6 6 0 0 1 6 6v89" stroke="#000" stroke-width="12" stroke-linecap="round" stroke-linejoin="round"/><path d="M144 58h20a6 6 0 0 1 6 6v73" stroke="#000" stroke-width="12" stroke-linecap="round" stroke-linejoin="round"/><path d="M83 110v18m20-18v18m20-18v18m-60-18v18m-20-18v18" stroke="#000" stroke-width="10" stroke-linecap="round" stroke-linejoin="round"/></svg>