<svg xmlns="http://www.w3.org/2000/svg" width="192" height="192" fill="none"><path stroke="#000" stroke-linecap="round" stroke-linejoin="round" stroke-width="10" d="M90 83 70 63 42 91m82 0-20-20-20 20"/><path stroke="#000" stroke-linecap="round" stroke-linejoin="round" stroke-width="12" d="M170 137a13 13 0 0 1-3.808 9.192 12.99 12.99 0 0 1-14.167 2.818 13 13 0 0 1-4.217-2.818A13 13 0 0 1 144 137"/><path stroke="#000" stroke-linecap="round" stroke-linejoin="round" stroke-width="12" d="M157 150H28a6 6 0 0 1-6-6V48a6 6 0 0 1 6-6h110a6 6 0 0 1 6 6v89"/><path stroke="#000" stroke-linecap="round" stroke-linejoin="round" stroke-width="12" d="M144 58h20a6 6 0 0 1 6 6v73"/><path stroke="#000" stroke-linecap="round" stroke-linejoin="round" stroke-width="10" d="M83 110v18m20-18v18m20-18v18m-60-18v18m-20-18v18"/></svg>