<svg width="192" height="192" fill="none" xmlns="http://www.w3.org/2000/svg"><path d="M89 22a51.002 51.002 0 0 0-51 51" stroke="#000" stroke-width="12" stroke-linecap="round" stroke-linejoin="round"/><circle cx="89" cy="73" r="21" stroke="#000" stroke-width="12" stroke-linecap="round" stroke-linejoin="round"/><path d="M68 73v46.476M38 73v91a6 6 0 0 0 6 6h18a6 6 0 0 0 6-6v-44.524M135.476 52H152a6 6 0 0 0 6-6V28a6 6 0 0 0-6-6H89a51.001 51.001 0 0 1 46.476 30Zm0 0a51.008 51.008 0 0 1 2.786 34.2 50.995 50.995 0 0 1-52.598 37.691A50.992 50.992 0 0 1 68 119.476" stroke="#000" stroke-width="12" stroke-linecap="round" stroke-linejoin="round"/></svg>