<svg width="192" height="192" fill="none" xml:space="preserve" xmlns="http://www.w3.org/2000/svg"><g style="display:inline;fill:#000;fill-opacity:1;stroke:none;stroke-width:8.62454;stroke-dasharray:none"><path d="M33.983 16.865a82 82 0 0 1 41.44-15.783v24.744a57.4 57.4 0 1 0 63.681 45.747l20.847-16.914c5.609 15.43 6.383 32.29 2.334 48.252a82.002 82.002 0 0 1-156.724 7.364 82 82 0 0 1 28.422-93.41Z" fill="#fcca00" style="fill:none;fill-opacity:1;stroke:#000;stroke-width:8.62454;stroke-linecap:round;stroke-linejoin:round;stroke-miterlimit:2;stroke-dasharray:none;stroke-opacity:1" transform="matrix(.92667 0 0 .9285 19.254 19.013)"/><path d="M144.615 28.68s-10.808 16.62-14.198 22.005a57.69 57.69 0 0 0-19.735-18.12v50.187c0 15.398-12.482 27.88-27.88 27.88-15.397 0-27.88-12.482-27.88-27.88s12.483-27.88 27.88-27.88a27.75 27.75 0 0 1 15.58 4.756V2.23c18.101 3.482 34.484 13.182 46.233 26.45z" fill="#fc3f1d" style="fill:none;fill-opacity:1;stroke:#000;stroke-width:8.62454;stroke-linecap:round;stroke-linejoin:round;stroke-miterlimit:10;stroke-dasharray:none;stroke-opacity:1" transform="matrix(.92667 0 0 .9285 19.254 19.013)"/></g></svg>