<svg width="192" height="192" viewBox="0 0 192 192" fill="none" xmlns="http://www.w3.org/2000/svg">
<path d="M169.642 88.0332C171.552 107.396 165.76 126.732 153.518 141.856C141.276 156.979 123.571 166.672 104.235 168.838C84.8985 171.003 65.4876 165.465 50.2042 153.424C34.9208 141.383 24.9947 123.807 22.5748 104.501C20.1549 85.1951 25.4359 65.7129 37.2746 50.2721C49.1132 34.8312 66.5569 24.6743 85.8292 22" stroke="black" stroke-width="12" stroke-linecap="round" stroke-linejoin="round"/>
<path d="M122.994 26.3971C136.959 31.8684 148.932 41.4539 157.326 53.8835" stroke="black" stroke-width="12" stroke-linecap="round" stroke-linejoin="round"/>
<path d="M123.004 26.4007V94.5874" stroke="black" stroke-width="12"/>
<path d="M96 122.311C110.919 122.311 123.013 110.216 123.013 95.2975C123.013 80.3785 110.919 68.2843 96 68.2843C81.081 68.2843 68.9868 80.3785 68.9868 95.2975C68.9868 110.216 81.081 122.311 96 122.311Z" stroke="black" stroke-width="12" stroke-linecap="round" stroke-linejoin="round"/>
</svg>
