<?xml version="1.0" encoding="UTF-8" standalone="no"?>
<svg
   width="192"
   height="192"
   fill="none"
   version="1.1"
   id="svg2"
   xmlns="http://www.w3.org/2000/svg"
   xmlns:svg="http://www.w3.org/2000/svg">
  <defs
     id="defs2" />
  <path
     stroke="#000000"
     stroke-linecap="round"
     stroke-linejoin="round"
     stroke-width="14"
     d="m 39.289812,22 48.123011,105.2341 a 6.084204,6.0821918 0 0 1 0.550619,2.52816 V 170 M 136.63708,22 106.21606,88.523974"
     id="path1"
     style="fill:none;stroke-width:12;stroke-dasharray:none" />
  <path
     stroke="#000000"
     stroke-linecap="round"
     stroke-linejoin="round"
     stroke-miterlimit="6"
     stroke-width="10"
     d="m 132.79383,142.46772 h -12.1684 a 6.0842041,6.0821918 0 0 1 -6.08421,-6.08218 v -12.16441 m 0,0 h 18.25261 m -18.25261,0 v -12.16335 a 6.0842041,6.0821918 0 0 1 6.08421,-6.08219 h 8.11225 m 0,18.24554 a 9.1263063,9.123288 0 1 0 0,-18.24656 m 4.05615,36.49315 a 9.1263133,9.123295 0 1 0 0,-18.24659"
     id="path2"
     style="fill:none;stroke-width:10;stroke-dasharray:none" />
</svg>
