<svg xmlns="http://www.w3.org/2000/svg" xml:space="preserve" width="192" height="192" fill="none"><g stroke="#000" stroke-linecap="round" stroke-linejoin="round" stroke-miterlimit="5" stroke-width="11.923"><path d="M169.367 105.659a74 74 0 0 1-63.708 63.708M22.633 86.341A74 74 0 0 1 96 22.001a74 74 0 0 1 73.367 64.34Z" transform="matrix(1.00846 0 0 1.00446 -.813 -.11)"/><path d="M105.659 169.367v-63.663h63.708m-146.688-.045H86.34v63.708" transform="matrix(1.00846 0 0 1.00446 -.813 -.11)"/><path d="M86.341 169.367a74 74 0 0 1-63.708-63.708" transform="matrix(1.00846 0 0 1.00446 -.813 -.11)"/></g></svg>