<svg xmlns="http://www.w3.org/2000/svg" width="192" height="192" fill="none"><path stroke="#000" stroke-linecap="round" stroke-linejoin="round" stroke-width="10" d="M43 171h106m-96-18h86m-55-18h24"/><path stroke="#000" stroke-linecap="round" stroke-linejoin="round" stroke-width="12" d="M63.116 54.114a8 8 0 0 1 8-8.114h49.769a8 8 0 0 1 7.999 8.114l-.771 54a8 8 0 0 1-8 7.886H71.886a8 8 0 0 1-7.999-7.886z"/><path stroke="#000" stroke-linecap="round" stroke-linejoin="round" stroke-width="10" d="M66 72h60"/><path stroke="#000" stroke-linecap="round" stroke-linejoin="round" stroke-width="12" d="m72 26 4-4h40l4 4m-48 90-10 18M96 22v24m24 70 10 18"/><circle cx="84" cy="96" r="3" stroke="#000" stroke-linecap="round" stroke-linejoin="round" stroke-width="6"/><circle cx="108" cy="96" r="3" stroke="#000" stroke-linecap="round" stroke-linejoin="round" stroke-width="6"/></svg>