<svg xmlns="http://www.w3.org/2000/svg" width="192" height="192" fill="none" stroke="#000" stroke-linecap="round" stroke-linejoin="round" stroke-width="3.175" viewBox="0 0 50.8 50.8"><path d="M20.671 15.5C12.78 14.049 8.656 19.79 8.777 27.545c.38 5.218 2.232 9.619 5.018 13.5 2.275 2.736 4.884 4.724 8.883 3.614 2.038-.712 4.119-.596 6.224.1 3.243.465 5.722-.6 7.628-2.81 4.23-5.363 6.712-12.84 4.874-19.631-1.463-5.17-6.63-8-12.151-6.643-2.95 2.83-5.363 2.55-8.582-.175"/><path d="M20.671 15.5c-3.195-3.419-3.188-6.575-2.334-9.661 6.504 1.944 7.89 6.308 7.06 11.719"/><path d="M25.589 14.108c1.442-3.08 3.177-4.155 5.019-4.505.573 2.024.212 4.048-1.355 6.072m-5.054 1.871c-12.709 13.656 1.434 28.62 14.614 20.996"/><path d="M12.43 38.973c.707-5.607 3.431-8.389 6.798-10.273"/></svg>