<svg xmlns="http://www.w3.org/2000/svg" xml:space="preserve" width="192" height="192" viewBox="0 0 50.8 50.8"><path d="M20.876 15.738c-7.891-1.451-12.015 4.29-11.894 12.045.38 5.218 2.232 9.619 5.018 13.5 2.275 2.736 4.884 4.724 8.883 3.614 2.038-.712 4.119-.596 6.224.1 3.243.465 5.722-.6 7.628-2.81 4.23-5.363 6.712-12.84 4.874-19.631-1.463-5.17-6.63-8-12.151-6.643-2.95 2.83-5.363 2.55-8.582-.175z" style="fill:none;stroke:#000;stroke-width:3.175;stroke-linecap:round;stroke-linejoin:round;stroke-dasharray:none" transform="translate(-.205 -.238)"/><path d="M20.876 15.738c-3.195-3.419-3.188-6.575-2.334-9.661 6.504 1.944 7.89 6.308 7.06 11.719" style="fill:none;stroke:#000;stroke-width:3.175;stroke-linecap:round;stroke-linejoin:round;stroke-dasharray:none" transform="translate(-.205 -.238)"/><path d="M25.794 14.346c1.442-3.08 3.177-4.155 5.019-4.505.573 2.024.212 4.048-1.355 6.072m-5.054 1.871C11.695 31.44 25.838 46.404 39.018 38.78" style="fill:none;stroke:#000;stroke-width:3.175;stroke-linecap:round;stroke-linejoin:round;stroke-dasharray:none" transform="translate(-.205 -.238)"/><path d="M12.635 39.211c.707-5.607 3.431-8.389 6.798-10.273" style="fill:none;stroke:#000;stroke-width:3.175;stroke-linecap:round;stroke-linejoin:round;stroke-dasharray:none" transform="translate(-.205 -.238)"/></svg>