<svg xmlns="http://www.w3.org/2000/svg" width="192" height="192" fill="none" viewBox="0 0 192 192"><path stroke="#000" stroke-linejoin="round" stroke-width="12" d="M65.422 33.148c4.084-12.013 27.647-11.134 27.647-11.134s7.974.088 9.468 8.087S102.01 88 95.04 88c-6.971 0-33.702-42.839-29.618-54.852zm25.321 133.296c-2.536 5.656-11.066 3.217-15.454 1.785s-9.831-4.323-7.881-11.01S87.82 123.8 91.886 126.145s1.469 34.472-1.143 40.299zm-48.118-50.598c-6.223-1.09-5.821-9.943-5.437-14.541s1.967-10.57 9.077-10.296 38.059 11.702 36.691 16.208-33.92 9.752-40.33 8.629zm106.753 21.305c4.398 4.544-1.209 11.445-4.263 14.925-3.055 3.48-7.901 7.362-13.505 2.954s-23.893-31.85-20.096-34.677 33.333 12.116 37.864 16.798zm-8.955-68.523c5.661-2.836 10.608 4.619 13.036 8.595s4.707 9.79-1.182 13.822c-5.888 4.031-37.619 13.24-39.2 8.75s21.514-28.245 27.346-31.167z"/></svg>