<svg width="192" height="192" viewBox="0 0 192 192" fill="none" xmlns="http://www.w3.org/2000/svg"><path d="M60 170h73m-73 0a34.008 34.008 0 0 1-26.974-13.302 34.003 34.003 0 0 1 1.411-43.116 34.003 34.003 0 0 1 35.172-10.196M133.5 170a32.498 32.498 0 0 0 6.34-64.376 32.514 32.514 0 0 0-15.303.636m-54.928-2.874a45.995 45.995 0 0 0 54.928 2.874m-54.928-2.874a46.003 46.003 0 0 1-3.136-67.913A46.001 46.001 0 0 1 145 68a45.995 45.995 0 0 1-20.463 38.26" stroke="#000" stroke-width="12" stroke-linecap="round" stroke-linejoin="round"/><path d="M118 66a13.993 13.993 0 0 1-4.101 9.9 14.003 14.003 0 0 1-15.257 3.034 14.001 14.001 0 0 1 10.716-25.868A14.003 14.003 0 0 1 118 66h0Z" stroke="#000" stroke-width="12" stroke-linecap="round" stroke-linejoin="round"/></svg>