<svg xmlns="http://www.w3.org/2000/svg" id="a" viewBox="0 0 192 192"><defs><style>.b{fill:none;stroke:#000;stroke-linecap:round;stroke-linejoin:round;stroke-width:3px}</style></defs><path d="M81.51 70.4c2.18-2.35 4.55-2.58 7.18 0-.34 2.42-.56 5.24-.49 8.38.05 2.24.23 4.29.49 6.14-4.7-1.43-8.03-4.99-8.43-9.03-.24-2.42.64-4.41 1.25-5.49-1.29-4.4-1.75-8.95-1-13.57.34-2.08.15-3.94.15-3.94s-11.86-1-19.2 9.78c-3.62 5.31-.96 10.79-.1 13.82 1.08 3.79 2.52 5.07 5.24 12.02 1.96 5.01 2.94 7.52 2.76 9.48-.62 6.44-7.83 13.3-15.34 12.87-.91-.05-5.49-.32-8.34-3.52-1.74-1.95-1.64-3.65-4.15-5.72-.97-.8-2.59-2.14-4.83-2.09-2.31.04-3.91 1.54-4.75 2.32-2.3 2.15-3.81 5.62-3.33 9.28.49 3.71 3.31 6.16 3.14 6.28-.13.1-1.78-1.44-3.32-3.7-1.6-2.36-6.14-9.05-3.54-15.51.99-2.46 3.53-6.18 7.18-6.68 3.12-.43 4.37 1.85 11.67 5.54 5.38 2.71 8.12 4.05 10.67 3.24 3.72-1.18 6-6.21 6.43-10.37 1.07-10.33-9.37-13.72-10.92-24.89-1.43-10.25 5.77-18.98 7.88-21.55C71.68 26.66 96.36 31 97.36 31.19c8.51-1.48 15.45-.77 19.83.02 5.33.97 12.11 2.2 18.53 7.28 5.59 4.42 8.07 9.52 10.37 14.27 1.88 3.87 8.32 18.24 4.69 34.82-1.34 6.11-3.89 11.78-4.29 11.67-.32-.09.77-3.76-.1-4.19-1.52-.74-6.67 9.56-8.88 8.78-1.75-.62-1.27-8.05.7-14.37 1.56-5.01 3.05-6.13 4.79-10.87 1.19-3.24 2.51-8.23 2.39-15.06" class="b"/><path d="M88.69 84.91c.59 3.46 1.28 6 2.14 6.88l1.35-4.49c1.33 3.72 3.17 6.71 5.66 8.78 1.04.87 2.19 1.57 3.47 2.1-.04-2.04.01-4.08.15-6.11.57-8.36 2.7-16.61 6.98-24.71-2.94.6-5.65.73-8.16.47 4.77-3.94 8.26-8.2 10.1-12.87m15.57-8.16c-.37 3.36-.94 7.31-.52 10.25-3.87 4.45-8.28 7.88-13.24 10.3l1.35-3.04c-1.24 1.47-2.77 2.66-5.09 3.04m16.98-10.3c.63 6.05 2.39 9.29 4.56 11.52-.9-1.59-1.26-3.67-.92-6.41 2.04 4.39 4.13 8.27 6.43 9.3 1.05-1.18 1.61-3.03 1.42-5.91 1.65 6.63 3.46 12.3 6.03 13.16m-7.22-40.24c.59-.69 2.22-2.43 4.99-3.19.86-.23 4.18-.76 6.68.5 2.57 1.29 2.97 6.05.5 13.07l-1.8 3.89" class="b"/><path d="M101.46 92.07c12.09 7.65 23.91 10.06 35.27 4.13M80.66 52.89c3.21-10.49 8.14-18.61 16.71-21.72.18-6.19 1.2-10.08 6.43-12.84 6.14 1.72 8.9 6.38 8.53 12.21m.68 42.15c-.3 2.36-.9 4.03-1.8 5.01.41.9.97 1.34 1.8 1.01 1.07-1.26 1.92-2.75 2.09-4.87-.31-.66-1.13-.96-2.09-1.16Zm20.5 8.23c-.35 1.61-.75 2.48-1.65 3.63.34.29.74.45 1.27.34.75-1.22 1.16-1.89 1.34-3.36-.24-.55-.59-.63-.97-.6Zm-18.4 8.76c2.53 3.13 6.76 4.29 12.94 3.22m-30.21 3.18c-11.39 4.4-23.87 8.91-26.66 15.14-1.01 2.2-1.24 4.39.82 6.51 1.82 1.82 4.07 3.73 7.18 5.84 3.74 2.03 7.07 2.92 8.81-.6 3.25-7.86 6.64-16.95 9.15-18.78" class="b"/><path d="M109.64 108.53c-.04 3.35-.3 6.11-.79 8.28-.16.72-.35 1.38-.56 1.97-.79.16-1.56.28-2.33.35-5.36.5-10.19-1.17-14.65-4.27m14.66 4.27c-.29 2.55-.29 4.33 0 5.34-6.05 1.43-12.25 1.08-18.57-.54m18.57.54c1.43 3.73 4.12 6.73 9.14 8.38-1.08 4.15-4.24 6.91-10.18 7.78-1.72 8.2-2.81 15.28-3.21 21.15 3.14 1.26 5.72 2.65 6.08 4.59-.07 2.58-.69 3.88-1.83 3.99-2.31 1.05-4.87.81-7.55 0" class="b"/><path d="M115.11 132.85c-5.58.16-12.09 4.82-19.23 8.75-4.41 2.43-8.34 2.74-11.74 1.51-2.55-.92-4.8-2.7-6.74-5.1 1.2-4.25 2.74-8.52 5.68-12.83m-11.07-7.45c-1.49 1.01-2.75 2.34-3.92 3.79.37.56.75 1.09 1.14 1.59 1.84 2.4 3.81 4.08 5.95 4.89 1.7-1.19 3.1-2.63 4.02-4.44" class="b"/><path d="M69.23 123.12c-2.62.48-7.19 3.56-7.32 3.84-.15.47 4.01 2.21 8.53 1.05.04.92.39 1.68.95 2.34 1.17-.5 1.94-1.55 2.44-2.99m10.31 15.75c.51 9.15 1.57 16.82 3.26 22.86-.08 4.09.92 5.99 2.74 6.38 3.27.7 7.02 3.16 8.28-1.2-.04-2.55-.74-5.11-2.17-7.68.69-4.89.61-12.05-.37-21.87m12.98-24.79c2.54 7.33 6.3 11.83 12.46 10.73 3.07-.64 10.94-6.59 7.03-11.04-2.81-.34-4.56-2.2-5.09-5.78-1.72-2.02-3.06-1.83-4.13 0-2.55-2.73-5.6-7-6.99-6.08-.99-2.25-2.21-4.22-4.23-5.13.4-.98.65-2.15.75-3.52" class="b"/><path d="M101.31 98.18c1.9 1.21 4.05 1.77 6.61 1.33m15.34 11.21c.1-1.76.6-3.19 2.09-3.8.44-.26.84-.2.9 2.73 3.87-5.7 6.45-2.81 7.71 5.2.16 1.04-1.68 1.44-5.61 1.65" class="b"/></svg>