<?xml version="1.0" encoding="utf-8"?>
	<svg version="1.1" xmlns="http://www.w3.org/2000/svg" xmlns:xlink="http://www.w3.org/1999/xlink" x="0px" y="0px" width="240.0" height="240.0" xml:space="preserve">
		<path d="M184.286,30L55.714,30C41.52,30 30,41.52 30,55.714L30,184.286C30,198.48 41.52,210 55.714,210L184.286,210C198.48,210 210,198.48 210,184.286L210,55.714C210,41.52 198.48,30 184.286,30ZM123.51,84.784C127.316,84.784 130.389,88.011 130.389,91.997C130.389,95.983 127.316,99.197 123.51,99.197C119.704,99.197 116.619,95.97 116.619,91.984C116.619,87.999 119.717,84.784 123.51,84.784ZM47.949,125.76C45.133,125.76 42.857,123.626 42.857,121.003L42.857,114.51L106.924,114.51L107.336,125.76L47.949,125.76ZM126.081,154.843C125.271,158.559 121.196,158.559 121.196,158.559L113.276,158.559C113.276,158.559 118.779,136.431 119.434,133.796C120.771,127.727 125.593,128.177 125.593,128.177L131.623,128.177C126.081,154.843 126.081,154.843 126.081,154.843ZM131.61,117.043L129.193,122.919C129.193,122.919 128.717,124.14 127.92,122.829C127.444,122.031 126.493,121.209 124.757,120.424C120.784,118.624 118.92,117.801 118.11,117.441C113.057,115.166 115.449,110.64 115.449,110.64L117.866,104.726C117.866,104.726 118.444,103.774 119.113,104.803C119.614,105.587 120.54,106.423 122.314,107.22C126.274,109.007 128.151,109.843 128.961,110.203C134.04,112.491 131.61,117.043 131.61,117.043ZM181.509,157.826L173.241,157.826L173.241,143.541L181.509,143.541L181.509,157.826ZM181.097,126.917L181.509,136.444L164.781,136.444L164.781,147.424L169.564,147.424L169.564,157.826L142.873,157.826C140.057,157.826 137.781,155.691 137.781,153.056L137.781,143.284L147.964,143.284L147.964,147.437L154.624,147.437L154.624,136.444L138.913,136.444L138.913,126.917L154.624,126.917L154.624,118.599L142.873,118.599C140.057,118.599 137.781,116.464 137.781,113.829L137.781,103.003L147.553,103.003L147.964,109.071L181.097,109.071L181.509,118.599L164.781,118.599L164.781,126.917L181.097,126.917ZM197.143,157.607L186.96,157.607L186.96,98.49L142.873,98.49C140.057,98.49 137.781,96.356 137.781,93.72L137.781,81.429L147.553,81.429L147.964,88.963L192.064,88.963C194.88,88.963 197.156,91.097 197.156,93.72L197.156,157.607L197.143,157.607Z" fill="#000" stroke="#00000000" stroke-width="1.0" stroke-miterlimit=""/>
	</svg>
