<?xml version="1.0" encoding="utf-8"?>
	<svg version="1.1" xmlns="http://www.w3.org/2000/svg" xmlns:xlink="http://www.w3.org/1999/xlink" x="0px" y="0px" width="240.0" height="240.0" xml:space="preserve">
		<path d="M219.491,182.01C220.494,185.938 219.484,189.174 218.34,192.274C214.182,203.548 204.082,210.094 190.621,210.164C172.727,210.258 154.83,210.341 136.939,210.087C132.219,210.021 128.809,211.389 125.625,214.813C120.194,220.653 120.039,220.49 114.287,214.791C107.608,208.172 100.826,201.655 94.27,194.918C92.246,192.838 90.121,192.131 87.337,192.153C75.713,192.244 64.085,192.056 52.463,192.263C48.493,192.334 47.263,190.996 47.339,187.062C47.564,175.572 47.361,164.075 47.477,152.582C47.505,149.758 46.682,147.649 44.644,145.66C36.884,138.09 29.321,130.319 21.553,122.758C19.45,120.71 19.505,119.366 21.585,117.347C29.082,110.069 36.317,102.52 43.879,95.313C46.588,92.731 47.586,90.026 47.524,86.352C47.337,75.122 47.582,63.885 47.4,52.655C47.341,49.006 48.677,47.886 52.188,47.93C63.812,48.074 75.439,47.893 87.062,48.039C90.311,48.08 92.735,47.168 95.024,44.809C102.118,37.498 109.572,30.532 116.549,23.115C119.397,20.088 120.979,20.468 123.634,23.249C130.758,30.709 138.248,37.819 145.47,45.188C147.462,47.22 149.585,48.05 152.403,48.024C164.027,47.922 175.652,47.966 187.277,47.992C192.05,48.002 192.473,48.405 192.49,53.087C192.531,64.059 192.669,75.035 192.441,86.002C192.357,90.01 193.637,92.862 196.506,95.598C203.877,102.628 210.909,110.012 218.244,117.08C220.605,119.354 220.572,120.847 218.224,123.081C210.465,130.459 202.779,137.919 195.287,145.567C192.917,147.987 192.177,147.454 190.723,144.795C180.742,126.547 159.334,119.14 140.231,127.262C133.21,130.246 127.475,134.952 123.349,141.381C121.661,144.011 119.543,145.274 116.559,146.017C100.071,150.122 90.389,165.598 93.762,182.144C96.396,195.065 109.553,206.091 123.207,206.206C146.717,206.403 170.23,206.37 193.74,206.21C205.264,206.132 215.272,197.528 217.703,186.197C217.992,184.851 218.148,183.452 219.491,182.01" fill="#000" stroke="#00000000" stroke-width="1.0" stroke-miterlimit=""/>
	</svg>
