<svg width="192" height="192" fill="none" xmlns="http://www.w3.org/2000/svg"><path d="m85.268 118.657-3.73-2.997a6.026 6.026 0 0 0-2.912-1.264 6.032 6.032 0 0 0-6.702 4.513l-3.075 12.355c-.867 3.484 1.466 6.955 5.008 7.449l23.634 3.297c3.235.451 6.238-1.774 6.763-5.013l5.352-33.027a6.046 6.046 0 0 0-3.312-6.406l-25.8-12.566a5.992 5.992 0 0 0-6.161.55l-25.856 18.889a6.058 6.058 0 0 0-1.72 7.819l30.218 54.636a6.003 6.003 0 0 0 6.813 2.902l48.336-13.006a6.025 6.025 0 0 0 4.213-4.131l8.419-28.75a6.068 6.068 0 0 0-.35-4.323l-23.612-49.335a6.035 6.035 0 0 1-.557-1.95l-2.759-24.938a6.08 6.08 0 0 1 .217-2.403L123.357 22" stroke="#000" stroke-width="12" stroke-linecap="round" stroke-linejoin="round"/></svg>