<svg xmlns="http://www.w3.org/2000/svg" width="192" height="192" fill="none" viewBox="0 0 192 192">
  <g stroke="#000" stroke-linecap="round" stroke-linejoin="round" stroke-width="12">
    <path
      d="M128.59 160.51H63.41a12 12 0 0 1 -12 -12v-33.45a 6 6 0 0 0 -6 -6H31.975a10.861 10.861 0 0 1-5.716-19.436l60.595-54.64a13.72 13.72 0 0 1 18.294 0l60.595 54.64a10.861 10.861 0 0 1-5.716 19.436H146.59a 6 6 0 0 0 -6 6V148.51a 12 12 0 0 1 -12 12" />
    <path
      d="M 60 77 l 17 1 c 6 7 12 13 22 19 c 7 -5 14 -12 16 -19 l 16 0.5 c -10 38 -30 60 -78.59 76.51 V 126 c 12.59 -4 15.59 -4 30 -12 c -12 -13 -17 -21 -22.41 -37" />
  </g>
</svg>