<?xml version="1.0" encoding="utf-8"?>
	<svg version="1.1" xmlns="http://www.w3.org/2000/svg" xmlns:xlink="http://www.w3.org/1999/xlink" x="0px" y="0px" width="240.0" height="240.0" xml:space="preserve">
		<path d="M159.277,20C159.088,21.604 158.874,22.775 157.25,23.069C156.69,23.17 156.073,23.347 155.95,24.015C155.687,25.45 154.829,26.425 153.91,27.35L153.316,27.942C152.922,28.337 152.537,28.74 152.205,29.181C151.427,30.215 150.508,31.132 149.581,32.041L148.963,32.647C147.423,34.165 145.941,35.725 145.13,37.827C144.617,39.156 143.315,39.845 142.176,40.902C143.965,40.997 149.848,38.555 152.44,36.748C152.58,38.697 151.546,40.074 150.452,41.329C147.773,44.398 144.992,47.378 142.262,50.404C141.658,51.074 141.061,51.728 140.21,52.107C138.673,52.791 137.579,53.995 136.537,55.269C133.448,59.045 133.595,59.605 138.225,60.528C140.088,60.9 141.849,61.442 143.505,62.37C145.462,63.466 147.572,63.905 149.82,64.06C154.211,64.362 158.422,65.789 161.74,68.523C169.346,74.788 174.892,82.684 178.834,91.759C179.804,93.994 180.337,96.178 180.549,98.54C180.655,99.728 180.738,101.073 182.349,101.36C183.587,101.58 183.304,102.567 183.214,103.297C182.579,108.444 183.109,113.327 185.659,117.993C187.792,121.897 186.048,125.252 184.189,128.438L183.923,128.892C183.657,129.345 183.392,129.795 183.14,130.243C182.316,131.704 181.522,132.985 181.497,134.652C181.469,136.445 181.412,138.242 181.496,140.031C181.567,141.54 181.414,142.947 180.614,144.265C180.193,144.96 179.711,145.683 179.541,146.456C178.415,151.585 175.314,155.684 172.031,159.413L171.702,159.785C168.188,163.739 165.212,168.451 160.113,170.786C159.134,171.235 158.491,172.001 157.874,172.789L157.504,173.263C157.194,173.656 156.875,174.04 156.508,174.379C156.239,174.626 156.032,174.962 155.833,175.31L155.7,175.543C155.17,176.472 154.61,177.353 153.007,176.687C152.919,176.651 152.656,176.976 152.51,177.161C152.359,177.351 152.218,177.562 152.132,177.788C150.051,183.297 145.811,186.529 140.847,189.363C138.231,190.856 136.146,193.461 134.42,196.088C133.725,197.148 133.036,198.02 131.82,198.525C128.624,199.853 125.784,201.689 123.649,204.509C122.892,205.511 121.644,206.257 120.534,206.296C118.607,206.362 117.913,207.271 117.358,208.908C116.638,211.034 115.031,212.299 112.625,212.529C114.771,210.325 116.73,208.041 117.631,205.059C117.697,204.844 117.902,204.559 118.093,204.511C122.348,203.44 123.458,199.082 126.376,196.662C128.607,194.813 131.168,193.266 133.789,192.017C135.572,191.168 137.173,190.486 138.278,188.675C139.621,186.472 142.285,185.345 143.395,182.872C143.468,182.699 143.54,182.526 143.613,182.353C143.414,182.363 143.215,182.373 143.015,182.383C140.67,183.134 138.554,184.161 136.893,186.136C135.923,187.29 134.561,188.156 133.27,188.99C129.494,191.429 125.971,194.072 123.596,198.045C122.64,199.644 121.118,200.796 118.847,200.884C120.023,199.563 121.063,198.394 122.104,197.226C122.239,197.067 122.373,196.909 122.509,196.751C122.553,196.569 122.597,196.387 122.641,196.206C122.485,196.285 122.329,196.363 122.173,196.442L121.538,196.789L121.538,196.789L114.843,200.584C112.613,201.851 110.384,203.122 108.163,204.406C107.545,204.763 107.015,205.322 106.543,205.872C104.851,207.841 103.279,209.667 100.201,209.628C98.177,209.602 96.887,210.886 95.657,212.266L95.131,212.86C94.664,213.387 94.192,213.903 93.677,214.341C92.885,215.015 92.388,215.952 91.027,215.587C89.814,215.263 89.151,216.346 88.439,217.114C86.635,219.06 84.524,220.263 81.643,219.951C82.622,218.068 84.262,217.055 85.987,216.167C87.579,215.347 88.897,214.253 89.319,212.47C89.835,210.286 91.222,208.757 92.699,207.203C94.988,204.796 97.121,202.249 98.495,199.17L98.43,198.55L98.43,198.55C98.317,198.639 98.204,198.727 98.091,198.815C94.657,201.591 90.278,202.695 86.587,205.19C89.057,201.993 90.002,197.741 93.721,195.455C94.113,195.214 94.645,194.755 94.646,194.395C94.651,190.972 97.42,188.975 99.571,187.835C102.948,186.045 103.356,182.24 106.157,180.324C106.37,180.178 106.396,179.758 106.737,178.876C104.853,179.828 103.027,179.896 101.256,179.949L100.55,179.971C99.729,180.001 98.921,180.052 98.122,180.213C92.65,181.317 87.621,180.343 83.082,177.053C82.39,176.553 81.62,176.368 80.813,176.22C76.966,175.516 74.194,173.324 73.042,169.647C71.789,165.646 68.735,163.429 65.632,161.208C64.807,160.618 64.088,160.067 63.625,159.175C62.811,157.611 61.518,156.622 60.046,155.634C56.633,153.343 54.53,149.874 54.284,145.868C53.653,135.609 53.306,125.326 53.008,115.056C52.873,110.418 54.546,105.747 55.203,101.064C55.857,96.408 57.332,92.042 59.241,87.784C59.571,87.048 59.9,86.241 59.932,85.455C60.11,81.161 62.586,78.099 65.573,75.529C68.801,72.751 71.873,69.847 74.738,66.709C76.507,64.771 78.389,62.932 80.718,61.709C80.93,61.597 81.144,61.393 81.367,61.178L81.517,61.034C82.174,60.412 82.917,59.857 83.904,61.365C84.066,61.614 86.445,61.219 86.641,60.026C86.803,59.043 87.345,58.702 87.93,58.413L88.183,58.291C88.436,58.168 88.688,58.039 88.912,57.859C93.628,54.061 99.235,51.345 103.369,46.927C106.787,43.273 110.639,40.227 114.635,37.386C116.141,36.316 117.457,35.59 118.443,33.839C119.377,32.178 121.586,31.508 124.123,30.7C122.108,34.33 118.472,35.541 116.521,38.215C114.779,40.603 111.9,41.83 110.156,44.761L110.038,44.968L109.931,44.985C108.731,45.158 107.48,45.279 107.437,47.207C108.505,46.845 109.261,46.304 109.811,45.551L109.868,45.467L110.23,45.283C112.632,44.058 114.634,43.07 116.258,41.435C117.12,40.569 117.942,39.611 119.177,39.282C119.931,39.081 120.926,38.699 120.547,40.263C120.285,41.343 121.23,41.258 121.772,41.178C122.646,41.048 123.624,40.881 124.315,40.387C128.8,37.185 134.601,36.081 138.247,31.506C139.107,31.782 138.586,32.713 139.145,33.083C140.705,32.428 142.19,31.682 143.187,30.143C144.065,28.788 145.466,27.9 146.992,27.645C150.283,27.094 152.925,25.645 155.143,23.135C156.195,21.944 157.71,21.162 159.277,20ZM116.82,67.14C87.536,67.06 63.811,90.702 63.789,119.985C63.767,149.174 87.337,172.849 116.487,172.919C145.739,172.988 169.549,149.297 169.596,120.073C169.643,90.994 145.94,67.22 116.82,67.14ZM121.574,75.421C146.312,75.421 166.3,95.405 166.269,120.106C166.238,144.783 146.174,164.705 121.419,164.638C96.82,164.571 76.98,144.609 77.007,119.952C77.034,95.325 96.953,75.421 121.574,75.421ZM122.582,102.485C120.442,114.368 118.338,126.257 116.278,138.153C115.651,141.774 117.113,144.143 120.087,144.684C123.141,145.241 125.394,143.378 126.052,139.708C126.743,135.854 127.465,132.003 128.041,128.131C128.25,126.727 128.745,126.14 130.212,126.221C132.166,126.33 134.13,126.248 136.089,126.247C137.886,126.247 139.687,126.331 141.476,126.223C143.116,126.124 143.824,126.394 143.383,128.333C142.624,131.669 142.158,135.073 141.584,138.451C141.05,141.589 142.517,144.041 145.27,144.648C148.179,145.288 150.645,143.652 151.244,140.367C153.485,128.089 155.666,115.799 157.784,103.498C158.351,100.208 155.659,97.458 152.413,97.821C149.899,98.103 148.477,99.623 148.027,102.067C147.259,106.238 146.45,110.405 145.804,114.595C145.592,115.963 145.03,116.342 143.742,116.323C139.905,116.265 136.065,116.222 132.231,116.337C130.439,116.391 130.217,115.691 130.519,114.169C131.17,110.888 131.702,107.585 132.282,104.29C132.861,100.999 131.381,98.456 128.559,97.89C125.556,97.288 123.207,99.013 122.582,102.485ZM88.317,98.249C85.639,99.518 84.832,102.391 86.344,105.546C88.635,110.322 90.878,115.126 93.34,119.813C94.364,121.763 94.467,123.585 94.07,125.658C93.197,130.22 92.353,134.794 91.731,139.395C91.36,142.136 93.128,144.234 95.701,144.686C98.278,145.139 100.544,143.742 101.296,141.105C101.674,139.779 101.99,138.4 102.071,137.029C102.597,128.148 105.733,120.551 112.361,114.38C115.026,111.898 117.18,108.851 119.475,105.987C121.357,103.639 121.119,100.77 119.05,98.97C116.925,97.121 113.962,97.408 111.865,99.687C111.258,100.346 110.706,101.057 110.129,101.744C107.096,105.355 104.063,108.965 100.882,112.751C98.925,108.749 97.123,105.009 95.27,101.292C93.669,98.084 91.04,96.959 88.317,98.249ZM108.334,36.374C108.358,38.296 107.655,39.513 106.486,40.109C102.875,41.948 100.284,45.074 97.015,47.329C96.201,47.891 95.389,48.394 94.419,48.612L94.46,48.556C94.353,46.376 95.526,45.431 97.364,44.249C101.027,41.893 105.405,40.488 108.334,36.374Z" fill="#000" stroke="#00000000" stroke-width="1.0" stroke-miterlimit=""/>
	</svg>
