<svg width="192" height="192" fill="none" xmlns="http://www.w3.org/2000/svg"><path d="M156 40a18 18 0 1 0-18 18m-42 90c11.046 0 20-8.954 20-20s-8.954-20-20-20c-.989 0-1.96.072-2.91.21.587 1.483.91 3.099.91 4.79 0 7.18-5.82 13-13 13a12.96 12.96 0 0 1-4.79-.911c-.138.95-.21 1.922-.21 2.911 0 11.046 8.954 20 20 20Z" stroke="#000" stroke-width="12" stroke-linecap="round" stroke-linejoin="round"/><path d="M156 164V86a6 6 0 0 0-6-6h-12a6 6 0 0 0-6 6v8L99.841 67.2a6 6 0 0 0-7.682 0l-54 45.001A6 6 0 0 0 36 116.81V164a6 6 0 0 0 6 6h108a6 6 0 0 0 6-6Zm0-124v12a6 6 0 0 1-6 6h-12" stroke="#000" stroke-width="12" stroke-linecap="round" stroke-linejoin="round"/></svg>