<svg xmlns="http://www.w3.org/2000/svg" width="192" height="192" fill="none"><path stroke="#000" stroke-linecap="round" stroke-linejoin="round" stroke-width="12" d="M156 40a18 18 0 1 0-18 18m-42 90c11.046 0 20-8.954 20-20s-8.954-20-20-20q-1.484.002-2.91.21c.587 1.483.91 3.099.91 4.79 0 7.18-5.82 13-13 13a13 13 0 0 1-4.79-.911q-.209 1.426-.21 2.911c0 11.046 8.954 20 20 20"/><path stroke="#000" stroke-linecap="round" stroke-linejoin="round" stroke-width="12" d="M156 164V86a6 6 0 0 0-6-6h-12a6 6 0 0 0-6 6v8L99.841 67.2a6 6 0 0 0-7.682 0l-54 45.001A6 6 0 0 0 36 116.81V164a6 6 0 0 0 6 6h108a6 6 0 0 0 6-6m0-124v12a6 6 0 0 1-6 6h-12"/></svg>