<svg xmlns="http://www.w3.org/2000/svg" width="192" height="192" fill="none"><path stroke="#000" stroke-linecap="round" stroke-width="12" d="M112 22c21.934 4.472 40.962 16.455 54 33"/><path stroke="#000" stroke-linejoin="round" stroke-width="12" d="M115 106.277c0 10.753-8.954 19.47-20 19.47a20.4 20.4 0 0 1-6.975-1.217M115 106.277c0-10.753-8.954-19.47-20-19.47s-20 8.717-20 19.47c0 5.377 2.239 10.244 5.858 13.767a20.1 20.1 0 0 0 7.167 4.486M115 106.277V46.052M88.025 124.53 55.21 155.134M115 46.052A66.6 66.6 0 0 0 95 43c-35.898 0-65 28.33-65 63.277l.362 57.547c.033 5.334 6.416 8.1 10.373 4.496l14.476-13.186M115 46.052c26.113 8.212 45 32.071 45 60.225C160 141.224 130.831 170 94.933 170c-16.2 0-28.34-5.324-39.722-14.866"/></svg>