<svg width="192" height="192" viewBox="0 0 192 192" fill="none" xmlns="http://www.w3.org/2000/svg">
<path d="M110 22C131.934 26.4717 150.962 38.4547 164 55" stroke="black" stroke-width="12" stroke-linecap="round"/>
<path d="M113 106.277C113 117.03 104.046 125.747 93 125.747C90.5467 125.747 88.1965 125.317 86.0247 124.53M113 106.277C113 95.5242 104.046 86.8072 93 86.8072C81.9543 86.8072 73 95.5242 73 106.277C73 111.654 75.2386 116.521 78.8579 120.044C80.8694 122.003 83.3074 123.546 86.0247 124.53M113 106.277V46.0519M113 46.0519C106.699 44.0705 99.9781 43 93 43C57.1015 43 28 71.3301 28 106.277L28.3616 163.824C28.3951 169.158 34.778 171.924 38.735 168.32L53.2106 155.134M113 46.0519C139.113 54.2639 158 78.1233 158 106.277C158 141.224 128.831 170 92.9329 170C76.7337 170 64.5923 164.676 53.2106 155.134M86.0247 124.53L53.2106 155.134" stroke="black" stroke-width="12" stroke-linejoin="round"/>
</svg>
