<svg width="192" height="192" viewBox="0 0 192 192" fill="none" xmlns="http://www.w3.org/2000/svg">
<path d="M118 22C139.122 26.3362 157.445 37.9561 170 54" stroke="black" stroke-width="12" stroke-linecap="round"/>
<path d="M116.45 107.846C116.45 118.334 107.771 126.836 97.0651 126.836C94.6872 126.836 92.4094 126.417 90.3044 125.649M116.45 107.846C116.45 97.3573 107.771 88.8549 97.0651 88.8549C86.3592 88.8549 77.6804 97.3573 77.6804 107.846C77.6804 113.09 79.8501 117.837 83.3581 121.274C85.3077 123.184 87.6707 124.689 90.3044 125.649M116.45 107.846V49.1027M116.45 49.1027C110.343 47.17 103.828 46.1259 97.0651 46.1259C62.2711 46.1259 34.0651 73.7587 34.0651 107.846L34.4156 163.976C34.448 169.178 40.6345 171.877 44.4698 168.361L58.5 155.5M116.45 49.1027C141.759 57.1125 160.065 80.3847 160.065 107.846C160.065 141.932 131.794 170 97 170C81.2993 170 69.5314 164.807 58.5 155.5M90.3044 125.649L58.5 155.5" stroke="black" stroke-width="12" stroke-linejoin="round"/>
</svg>
