<svg xmlns="http://www.w3.org/2000/svg" width="192" height="192" fill="none" viewBox="0 0 192 192"><path stroke="#000" stroke-linecap="round" stroke-linejoin="round" stroke-width="12" d="M111 126c0 19.694-20.022 34-39.628 34S40 145.694 40 126"/><path stroke="#000" stroke-width="12" d="M112.5 102.5c8.008 0 16.5-4.544 16.5-12S122.508 77 114.5 77 100 83.044 100 90.5s4.492 12 12.5 12Zm-78 0c8.008 0 16.5-4.544 16.5-12S44.508 77 36.5 77 22 83.044 22 90.5s4.492 12 12.5 12Z"/><path stroke="#000" stroke-linecap="round" stroke-width="12" d="M170 65a38.9 38.9 0 0 0-2.438-13.602 39 39 0 0 0-2.437-5.294 39.1 39.1 0 0 0-8.328-10.354 39 39 0 0 0-6.901-4.875 39 39 0 0 0-5.294-2.437A38.9 38.9 0 0 0 131 26m18 39a18 18 0 0 0-2.25-8.721 18.1 18.1 0 0 0-7.029-7.029A18 18 0 0 0 131 47"/></svg>