<svg width="192" height="192" viewBox="0 0 192 192" fill="none" xmlns="http://www.w3.org/2000/svg"><path d="M108.247 126.22a31.997 31.997 0 0 0 13.723 39.476 32.004 32.004 0 0 0 41.065-7.765 31.999 31.999 0 0 0-43.184-46.286m-.114-31.368a32 32 0 1 0-11.465-14.435" stroke="#000" stroke-width="12" stroke-linecap="round" stroke-linejoin="round"/><path d="M119.85 111.64 104 96l15.74-15.72m-11.49 45.94L91 109l-47 47-22-4 56-56-56-56 22-4 47 47 17.27-17.16" stroke="#000" stroke-width="12" stroke-linecap="round" stroke-linejoin="round"/><circle cx="138" cy="54" r="6" stroke="#000" stroke-width="12" stroke-linejoin="round"/><circle cx="138" cy="122" r="3" stroke="#000" stroke-width="6" stroke-linejoin="round"/><circle cx="138" cy="139" r="3" stroke="#000" stroke-width="6" stroke-linejoin="round"/><circle cx="154" cy="134" r="3" stroke="#000" stroke-width="6" stroke-linejoin="round"/><circle cx="128" cy="152" r="3" stroke="#000" stroke-width="6" stroke-linejoin="round"/><circle cx="148" cy="152" r="3" stroke="#000" stroke-width="6" stroke-linejoin="round"/><circle cx="122" cy="134" r="3" stroke="#000" stroke-width="6" stroke-linejoin="round"/></svg>