<svg xmlns="http://www.w3.org/2000/svg" xmlns:xlink="http://www.w3.org/1999/xlink" width="192" height="192" viewBox="0 0 192 192" fill="none"><defs><rect id="path_0" x="0" y="0" width="192" height="192" /></defs><g opacity="1" transform="translate(0 0)  rotate(0 96 96)"><mask id="bg-mask-0" fill="white"><use xlink:href="#path_0"/></mask><g mask="url(#bg-mask-0)" ><g opacity="1" transform="translate(31 16)  rotate(0 65.10889513732971 80.00000000000001)"><path id="分组 1" fill-rule="evenodd" style="fill:#000000" transform="translate(0 128.78099117451038)  rotate(0 40.342607990225964 15.60950441274482)" opacity="1" d="M75.7087 0.90604C75.1187 1.54604 74.8487 2.34604 74.9387 3.13604L74.9387 15.156C75.0788 16.786 74.5788 18.406 73.5187 19.796C72.3387 20.906 70.5487 21.476 68.7387 21.326C67.4287 21.346 66.1487 21.056 65.0387 20.496C64.1287 19.976 63.4587 19.236 63.1487 18.376C62.7687 17.286 62.5987 16.166 62.6287 15.046L62.6287 3.05604C62.6987 2.25604 62.4187 1.46604 61.8387 0.81604C61.3187 0.33604 60.5487 0.0660395 59.7587 0.0860395C58.9587 0.0660395 58.1987 0.33604 57.6787 0.81604C57.0387 1.45604 56.6987 2.24604 56.7187 3.05604L56.7187 14.726C56.6887 16.316 56.9287 17.906 57.4287 19.446C57.8087 20.686 58.5587 21.826 59.6287 22.776C60.6987 23.646 62.0187 24.296 63.4787 24.646C65.3187 25.076 67.2188 25.276 69.1387 25.246C70.7687 25.266 72.3987 25.076 73.9587 24.676C75.3187 24.316 76.5487 23.706 77.5587 22.896C78.7287 21.976 79.5887 20.826 80.0287 19.556C80.5087 18.006 80.7188 16.406 80.6787 14.806L80.6787 3.13604C80.7487 2.33604 80.4587 1.54604 79.8587 0.90604C79.3487 0.41604 78.5788 0.14604 77.7887 0.16604C76.9887 0.13604 76.2188 0.40604 75.7087 0.90604Z M41.2725 0C39.2825 0.01 37.3025 0.33 35.4725 0.95C33.8125 1.53 32.3425 2.41 31.1725 3.52C29.9525 4.7 29.0625 6.06 28.5225 7.52C27.3525 10.87 27.4225 14.41 28.7125 17.73C29.2925 19.19 30.2325 20.54 31.4825 21.71C32.6925 22.84 34.2125 23.72 35.9325 24.29C37.8425 24.9 39.8825 25.18 41.9425 25.13C43.9825 25.13 46.0025 24.8 47.8825 24.16C49.5625 23.55 51.0325 22.64 52.2125 21.51C53.4025 20.33 54.2925 18.96 54.8125 17.49C55.3825 15.83 55.6425 14.1 55.5825 12.37C55.6025 10.07 55.0025 7.8 53.8125 5.71C52.7525 3.91 51.0425 2.42 48.9025 1.44C46.6825 0.45 44.1725 -0.05 41.6225 0L41.2725 0Z M48.6515 7.88589C48.0615 6.69589 47.0315 5.68589 45.7015 4.97589C43.4315 3.85589 40.6115 3.72589 38.1915 4.63589C37.2015 5.02589 36.3515 5.59589 35.7015 6.30589C34.9515 7.12589 34.4115 8.05589 34.1015 9.03589L34.0815 9.03589C33.6915 10.2259 33.5115 11.4559 33.5615 12.6859C33.5715 13.9459 33.8115 15.2059 34.2615 16.4059C34.6115 17.4159 35.2215 18.3559 36.0515 19.1559C37.4315 20.5059 39.4915 21.2859 41.6715 21.2759L41.8315 21.2759C43.2715 21.2659 44.6715 20.9259 45.8715 20.2959C47.1715 19.5559 48.1815 18.5359 48.7615 17.3459C49.5115 15.7959 49.8515 14.1359 49.7515 12.4759C49.7615 10.9059 49.3815 9.34589 48.6515 7.88589Z M14.53 13.0285L7.88 3.81855C7.21 2.82855 6.44 1.87855 5.57 0.988549C5 0.478549 4.17 0.218549 3.33 0.268549C2.44 0.248549 1.58 0.528549 0.96 1.03855C0.34 1.51855 0 2.16855 0 2.85855C0.03 3.37855 0.19 3.89855 0.48 4.36855C0.96 5.19855 1.5 6.00855 2.1 6.78855L10.67 17.7785L3.33 27.5485C2.85 28.5885 3.11 29.7585 4.01 30.6085C5.57 31.8085 8.38 30.9785 8.38 30.2785L26.91 6.61855C27.49 5.89855 28.01 5.15855 28.49 4.38855C28.78 3.86855 28.94 3.29855 28.94 2.71855C28.94 2.06855 28.61 1.43855 28.03 0.968549C27.44 0.478549 26.62 0.198549 25.76 0.218549C25.25 0.208549 24.74 0.298549 24.29 0.488549C23.86 0.688549 23.48 0.948549 23.18 1.26855C22.84 1.60855 22.54 1.97855 22.27 2.35855L21.25 3.76855L14.53 13.0285Z " /><path id="分组 2" fill-rule="evenodd" style="fill:#000000" transform="translate(82.18246987365943 128.69875920403274)  rotate(0 24.017660200499993 12.341832115110975)" opacity="1" d="M44.7131 0C43.9131 -0.03 43.1431 0.24 42.6331 0.74C42.0731 1.38 41.8231 2.16 41.9031 2.94L42.1531 14.61C42.3431 16.19 41.8831 17.78 40.8631 19.14C39.6831 20.24 37.9231 20.81 36.1231 20.69C34.8031 20.77 33.4731 20.53 32.3231 20.01C31.4031 19.53 30.7131 18.81 30.3831 17.97C29.9731 16.89 29.7731 15.77 29.7831 14.64L29.5331 2.97C29.5931 2.19 29.2931 1.42 28.7031 0.8C28.1631 0.34 27.4031 0.09 26.6231 0.12C25.8231 0.1 25.0631 0.38 24.5431 0.87C23.9731 1.5 23.7131 2.28 23.8131 3.05L24.0431 14.37C24.0431 15.92 24.3231 17.47 24.8531 18.96C25.6631 21.38 28.0531 23.25 31.0931 23.84C32.9331 24.23 34.8431 24.4 36.7531 24.34C38.3731 24.35 39.9931 24.14 41.5331 23.73C42.8731 23.35 44.0931 22.74 45.1031 21.94C46.2531 21.02 47.0731 19.87 47.4831 18.61C47.9131 17.09 48.0931 15.54 48.0231 13.99L47.7731 2.67C47.7431 1.94 47.3931 1.24 46.7931 0.69C46.2631 0.22 45.4931 -0.03 44.7131 0Z M23.59 24.1094C24.06 23.7594 24.33 23.2594 24.34 22.7394C24.33 22.2294 24.18 21.7294 23.9 21.2794C23.46 20.6594 22.94 20.0794 22.36 19.5394L14.29 9.95936L21.3 4.46936C22.09 3.93936 22.58 3.17936 22.65 2.34936C22.66 1.79936 22.39 1.26936 21.88 0.889359C21.33 0.459359 20.57 0.239359 19.8 0.289359C19.27 0.269359 18.73 0.379359 18.29 0.619359C17.78 0.939359 17.32 1.28936 16.89 1.66936L5.73 11.4694L5.73 3.13936C5.8 2.35936 5.52 1.58936 4.94 0.969359C4.41 0.499359 3.65 0.229359 2.86 0.249359C2.06 0.219359 1.29 0.479359 0.78 0.969359C0.22 1.59936 -0.06 2.36936 0.01 3.13936L0.01 22.3594C0.04 22.7194 0.14 23.0794 0.32 23.4094C0.57 23.7694 0.94 24.0694 1.38 24.2794C2.48 24.8594 3.93 24.7494 4.87 24.0294C5.51 23.3894 5.82 22.5894 5.73 21.7794L5.73 16.9094L10.45 13.1594L17.23 21.8394L18.16 23.1294C18.48 23.5694 18.91 23.9594 19.43 24.2594C20.05 24.5694 20.78 24.7194 21.51 24.6794C22.27 24.7194 23.02 24.5194 23.59 24.1094Z " /><path id="路径 2" fill-rule="evenodd" style="fill:#000000" transform="translate(13.989888480353164 34.52630089922368)  rotate(0 54.04713971913974 41.4095860057324)" opacity="1" d="M103.88,12.64C96.21,-0.65 85.73,-3.46 72.44,4.21L12.64,38.74C-0.65,46.41 -3.46,56.89 4.21,70.18C11.89,83.47 22.37,86.28 35.66,78.61L95.46,44.08C108.75,36.41 111.55,25.93 103.88,12.64Z " /><path id="路径 5" fill-rule="evenodd" style="fill:#000000" transform="translate(13.986840168926202 0)  rotate(0 54.04713976260701 41.40958604919969)" opacity="1" d="M4.21,12.64C-3.46,25.93 -0.65,36.41 12.64,44.08L72.44,78.61C85.73,86.28 96.21,83.47 103.88,70.18C111.55,56.89 108.75,46.41 95.46,38.74L35.66,4.21C22.37,-3.46 11.89,-0.65 4.21,12.64Z " /></g></g></g></svg>
