<svg xmlns="http://www.w3.org/2000/svg" width="192" height="192" stroke="#000" stroke-linejoin="round" stroke-width="3.175" viewBox="0 0 50.8 50.8"><path fill="none" stroke-linecap="round" d="M29.628 44.95v-7.12c-.092-2.02.599-3.64 2.12-4.831L33.605 7.57l-8.218-1.78m-4.242 39.16v-7.12c.091-2.02-.6-3.64-2.121-4.831L17.168 7.57l8.218-1.78"/><path fill="none" d="M17.198 7.673 25.4 5.82l8.202 1.852m-12.965 28.84h8.996"/><path stroke-width="1.058" d="m37.042 11.906-.265 3.44c3.084.118 3.18-3.203.265-3.44zm-.662 7.541-.264 3.44c3.084.118 3.18-3.203.264-3.44zm-.529 7.408-.265 3.44c3.085.118 3.18-3.203.265-3.44zM13.758 11.906l.265 3.44c-3.084.118-3.18-3.203-.265-3.44zm.662 7.541.264 3.44c-3.084.118-3.18-3.203-.264-3.44zm.529 7.408.265 3.44c-3.085.118-3.18-3.203-.265-3.44z"/></svg>