<svg width="192" height="192" xmlns="http://www.w3.org/2000/svg" viewBox="0 0 192 192"><defs><style>.a,.b,.c{fill:none;stroke:#000;stroke-linecap:round;}.a,.c{stroke-linejoin:round;}.a{stroke-width:14px;}.b{stroke-width:8px;}.c{stroke-width:12px;}</style></defs><line class="a" x1="55.5" y1="93" x2="55.5" y2="163"/><line class="a" x1="88" y1="93" x2="23" y2="93"/><path class="a" d="M151.5,128a17.5,17.5,0,0,1,0,35"/><path class="a" d="M151.5,93a17.5,17.5,0,0,1,0,35"/><line class="a" x1="138.25" y1="93" x2="138.25" y2="163"/><line class="a" x1="151.5" y1="163" x2="110.25" y2="163"/><line class="a" x1="151.5" y1="128" x2="138.25" y2="128"/><line class="a" x1="151.5" y1="93" x2="110.25" y2="93"/><line class="a" x1="110.25" y1="93" x2="110.25" y2="163"/><line class="b" x1="159.748" y1="48.21" x2="159.748" y2="72.714"/><path class="b" d="M172,72.714V65.363a4.9,4.9,0,0,0-4.9-4.9h-7.351"/><line class="b" x1="140" y1="48.21" x2="140" y2="65.363"/><line class="b" x1="140" y1="57.032" x2="147.351" y2="57.032"/><path class="b" d="M147.351,72.714A7.234,7.234,0,0,1,140,65.363"/><path class="c" d="M123.653,61.262a12.352,12.352,0,0,1-8.346-11.684"/><line class="c" x1="115.307" y1="49.578" x2="115.307" y2="29"/><line class="c" x1="140" y1="31.863" x2="140" y2="29"/><circle class="c" cx="80.206" cy="45.462" r="16.462"/><line class="c" x1="35.581" y1="42.638" x2="35.581" y2="61.924"/><line class="c" x1="35.581" y1="42.638" x2="49.163" y2="29"/><line class="c" x1="22" y1="29" x2="35.581" y2="42.638"/></svg>