<svg width="192" height="192" xmlns="http://www.w3.org/2000/svg" viewBox="0 0 192 192"><defs><style>.a,.b,.c{fill:none;stroke:#000;stroke-linecap:round;}.a,.c{stroke-linejoin:round;}.a{stroke-width:14px;}.b{stroke-width:8px;}.c{stroke-width:12px;}</style></defs><line class="a" x1="55.5" y1="93" x2="55.5" y2="163"/><line class="a" x1="88" y1="93" x2="23" y2="93"/><path class="a" d="M151.5,128a17.5,17.5,0,0,1,0,35"/><path class="a" d="M151.5,93a17.5,17.5,0,0,1,0,35"/><line class="a" x1="138.25" y1="93" x2="138.25" y2="163"/><line class="a" x1="151.5" y1="163" x2="110.25" y2="163"/><line class="a" x1="151.5" y1="128" x2="138.25" y2="128"/><line class="a" x1="151.5" y1="93" x2="110.25" y2="93"/><line class="a" x1="110.25" y1="93" x2="110.25" y2="163"/><line class="b" x1="162" y1="51.5" x2="162" y2="71.5"/><path class="b" d="M172,71.5v-6a4,4,0,0,0-4-4h-6"/><line class="b" x1="144.25" y1="51.5" x2="144.25" y2="65.5"/><line class="b" x1="144.25" y1="58.7" x2="150.25" y2="58.7"/><path class="b" d="M150.25,71.5a5.9,5.9,0,0,1-6-6"/><path class="c" d="M131.125,64A13.125,13.125,0,0,1,118,50.875"/><line class="c" x1="118" y1="50.875" x2="118" y2="29"/><line class="c" x1="144.25" y1="38.375" x2="144.25" y2="29"/><circle class="c" cx="83.875" cy="46.5" r="17.5"/><line class="c" x1="36.437" y1="43.497" x2="36.437" y2="64"/><line class="c" x1="36.437" y1="43.497" x2="50.875" y2="29"/><line class="c" x1="22" y1="29" x2="36.437" y2="43.497"/></svg>