<svg width="192" height="192" viewBox="0 0 192 192" fill="none" xmlns="http://www.w3.org/2000/svg"><path d="M53.815 78.368c.499-5.546 5.013-9.727 10.571-10.078C73.294 67.727 86.624 67 96 67c9.376 0 22.706.727 31.614 1.29 5.558.35 10.072 4.532 10.571 10.078.427 4.739.815 10.901.815 17.632 0 6.731-.388 12.893-.815 17.632-.499 5.546-5.013 9.728-10.571 10.078-8.908.563-22.238 1.29-31.614 1.29-9.376 0-22.706-.727-31.614-1.29-5.558-.35-10.072-4.532-10.571-10.078C53.388 108.893 53 102.731 53 96c0-6.73.388-12.893.815-17.632ZM45 45l102 102" stroke="#000" stroke-width="12" stroke-linecap="round" stroke-linejoin="round"/><circle cx="96" cy="96" r="74" stroke="#000" stroke-width="12" stroke-linecap="round" stroke-linejoin="round"/></svg>