<svg xmlns="http://www.w3.org/2000/svg" width="192" height="192" fill="none"><path stroke="#000" stroke-width="12" d="M170 96c0-45-4.962-49.999-50-50H72c-45.038.001-50 5-50 50s4.962 49.999 50 50h48c45.038-.001 50-5 50-50Z"/><circle cx="75" cy="92" r="4" stroke="#000" stroke-linecap="round" stroke-linejoin="round" stroke-width="8"/><circle cx="4" cy="4" r="4" stroke="#000" stroke-linecap="round" stroke-linejoin="round" stroke-width="8" transform="matrix(1 0 0 -1 113 96)"/><path stroke="#000" stroke-linecap="round" stroke-linejoin="round" stroke-width="10" d="M53 76v40a6 6 0 0 0 6 6h17.49c2.169 0 4.163-1.169 5.34-2.99C84.82 114.38 90.933 106 96 106c5.066 0 11.179 8.38 14.171 13.01 1.176 1.821 3.17 2.99 5.338 2.99H133a6 6 0 0 0 6-6V76a6 6 0 0 0-6-6H59a6 6 0 0 0-6 6"/></svg>