<?xml version="1.0" encoding="utf-8"?>
	<svg version="1.1" xmlns="http://www.w3.org/2000/svg" xmlns:xlink="http://www.w3.org/1999/xlink" x="0px" y="0px" width="240.0" height="240.0" xml:space="preserve">
		<path d="M152.843,146.466C160.489,146.54 166.136,141.087 166.177,133.592C166.216,126.363 159.934,120.764 151.732,120.716C145.547,120.679 139.979,126.522 139.877,133.156C139.763,140.553 145.455,146.395 152.843,146.466L152.843,146.466ZM179.889,120.039C186.778,120.032 192.709,113.8 192.711,106.559C192.714,99.828 186.373,93.614 179.586,93.696C172.146,93.787 166.557,99.506 166.546,107.038C166.534,114.365 172.364,120.045 179.889,120.039L179.889,120.039ZM51.863,110.479C49.896,110.479 47.927,110.511 45.961,110.472C40.654,110.365 40.016,110.966 39.949,116.39C39.918,118.962 40.116,121.548 39.923,124.106C39.604,128.348 41.252,130.303 45.651,130.083C49.728,129.88 53.835,130.247 57.906,129.992C61.893,129.742 63.766,130.865 63.41,135.27C63.046,139.782 63.381,144.346 63.325,148.886C63.288,151.915 64.712,153.367 67.708,153.372C71.34,153.378 74.972,153.424 78.605,153.405C81.759,153.391 83.296,151.801 83.274,148.606C83.241,143.763 83.458,138.912 83.257,134.078C83.122,130.829 84.386,129.838 87.495,129.987C91.875,130.196 96.274,129.963 100.66,130.066C104.543,130.158 106.698,128.754 106.456,124.522C106.285,121.503 106.277,118.464 106.413,115.443C106.581,111.729 104.783,110.18 101.254,110.187C96.562,110.195 91.866,110.052 87.18,110.211C84.177,110.312 83.153,109.084 83.271,106.194C83.426,102.418 83.311,98.628 83.303,94.844C83.289,87.7 82.651,87.018 75.533,87.051C62.109,87.112 63.357,85.401 63.333,99.112C63.312,110.505 63.337,110.505 51.863,110.479L51.863,110.479ZM119.39,67.083C135.449,67.083 151.513,66.865 167.568,67.137C189.366,67.505 205.253,78.271 214.414,97.439C223.449,116.34 221.479,135.152 208.831,152.319C195.965,169.784 178.26,175.174 157.418,172.822C148.372,171.801 140.913,167.49 133.945,162.108C132.148,160.718 130.408,159.869 128.165,160.095C128.015,160.11 127.862,160.097 127.71,160.096C117.226,159.994 107.234,159.484 97.809,166.928C88.207,174.514 75.87,174.135 63.912,172.738C52.373,171.391 42.867,165.629 35.114,157.88C24.354,147.124 19.493,133.414 20.041,117.977C20.999,91.054 42.237,71.017 63.984,67.711C67.853,67.123 71.827,67.064 75.754,67.044C90.299,66.971 104.844,67.015 119.39,67.015L119.39,67.083Z" fill="#000" stroke="#00000000" stroke-width="1.0" stroke-miterlimit=""/>
	</svg>
