<?xml version="1.0" encoding="utf-8"?>
	<svg version="1.1" xmlns="http://www.w3.org/2000/svg" xmlns:xlink="http://www.w3.org/1999/xlink" x="0px" y="0px" width="240.0" height="240.0" xml:space="preserve">
		<path d="M184.238,125.108C196.119,138.203 203.808,153.128 204.344,171.158C204.929,191.279 188.958,207.803 173.979,213.214C161.55,217.704 149.621,212.912 142.562,201.089C139.155,195.384 137.625,189.045 136.419,182.598C135.895,179.789 137.099,178.555 139.749,177.576C161.336,169.599 174.709,154.308 179.844,131.863C180.237,130.151 180.293,128.363 180.544,126.616C180.693,125.576 180.53,124.259 181.816,123.872C182.842,123.564 183.61,124.415 184.238,125.108ZM62.717,140.497C71.324,162.861 87.678,175.833 111.078,180.208C112.102,180.399 113.492,180.192 113.763,181.542C113.963,182.535 112.959,183.204 112.297,183.864C97.928,198.188 80.94,206.592 60.366,206.83C53.857,207.083 47.577,206.093 41.512,203.81C30.658,199.724 22.456,192.896 20.536,180.924C18.492,168.178 22.246,157.203 32.668,149.019C40.237,143.074 49.165,140.225 58.356,138.023C60.61,137.484 61.882,138.326 62.717,140.497ZM82.847,138.526C91.149,153.95 104.154,161.681 121.696,161.473C125.03,161.434 125.825,162.424 124.703,165.52C123.484,168.882 121.697,171.912 119.842,174.924C118.796,176.622 117.283,177.209 115.321,176.968C92.108,174.129 75.856,162.009 66.547,140.539C65.237,137.517 66.076,136.282 69.305,136.148C71.88,136.042 74.442,135.613 78.22,135.192C79.813,134.852 81.459,135.947 82.847,138.526ZM167.898,114.529C170.076,115.244 172.124,116.368 174.207,117.357C176.609,118.498 177.538,120.443 177.166,122.697C176.325,144.62 160.694,165.95 140.377,173.234C135.836,174.862 135.488,174.631 135.393,169.918C135.382,169.373 135.437,168.821 135.364,168.285C134.509,162.084 136.425,158.275 142.402,154.709C155.459,146.919 161.733,134.515 161.675,119.142C161.653,113.15 162.225,112.666 167.898,114.529ZM89.104,135.188L89.612,135.239C90.062,135.283 90.508,135.318 90.917,135.267C91.588,135.183 92.277,135.253 94.138,135.253C100.751,135.694 108.443,136.633 115.424,140.477C120.512,143.278 124.15,147.342 125.76,153.06C126.637,156.175 125.686,157.589 122.308,157.721C107.559,158.302 96.221,152.319 88.025,140.19C87.221,139 85.753,137.638 86.463,136.201C87.012,135.09 88.037,135.088 89.104,135.188ZM157.712,118.929C157.733,119.744 157.715,120.558 157.715,121.373C156.85,134.744 150.954,145.16 139.491,152.263C139.307,152.377 139.116,152.513 138.92,152.653L138.682,152.822C137.921,153.352 137.084,153.815 136.229,153.13C135.599,152.624 135.761,151.851 135.956,151.08L136.033,150.772C136.096,150.517 136.152,150.265 136.171,150.029C136.783,142.533 138.571,135.298 141.325,128.32C143.474,122.873 146.798,118.327 152.168,115.594C156.643,113.317 157.58,113.894 157.712,118.929ZM104.583,71.086C104.586,71.29 104.587,71.494 104.587,71.712L104.587,72.627C104.587,72.696 104.587,72.767 104.587,72.841L104.586,73.311C104.586,73.394 104.586,73.48 104.586,73.569L104.585,74.141C104.585,74.242 104.585,74.347 104.585,74.456C105.898,78.981 103.252,81.608 98.618,84.35C85.046,92.382 78.369,104.752 78.32,120.588C78.301,126.789 77.797,127.212 71.811,125.239C69.889,124.605 68.08,123.624 66.23,122.777C63.538,121.543 62.522,119.472 62.84,116.515C65.357,93.147 77.059,76.458 98.777,67.094C104.365,64.685 104.52,64.883 104.583,71.086ZM103.504,87.007C104.448,87.718 103.876,89.058 103.781,90.107C103.018,98.569 100.978,106.718 97.308,114.386C95.208,118.772 92.01,122.252 87.535,124.404C83.419,126.385 82.487,125.85 82.312,121.378C82.281,120.564 82.308,119.749 82.308,118.934C83.032,105.556 88.692,95.011 100.21,87.857C101.207,87.238 102.319,86.116 103.504,87.007ZM97.845,39.518C100.806,44.824 102.209,50.626 103.464,56.495C104.114,59.536 103.132,61.199 100.061,62.302C84.236,67.98 72.44,78.327 65.026,93.481C62.016,99.63 59.981,106.1 59.422,112.979C59.337,114.044 59.341,115.374 58.218,115.831C57.04,116.31 56.196,115.265 55.48,114.472C43.72,101.443 36.295,86.537 35.663,68.706C35.148,48.787 50.498,32.403 66.044,26.678C78.683,22.024 91.024,27.288 97.845,39.518ZM151.976,99.787C152.762,100.966 154.175,102.363 153.306,103.806C152.441,105.244 150.565,104.404 149.133,104.546C148.459,104.613 147.774,104.558 146.122,104.558C139.319,104.098 131.642,103.132 124.65,99.375C119.387,96.547 115.779,92.286 114.253,86.416C113.553,83.726 114.403,82.352 117.398,82.226C132.244,81.594 143.757,87.459 151.976,99.787ZM132.144,64.246C151.368,68.668 164.905,80.119 172.791,98.184C174.758,102.689 174.286,103.289 169.479,103.7C167.177,103.897 164.882,104.188 162.027,104.496C159.829,104.985 158.437,103.576 157.176,101.253C148.913,86.037 136.135,78.255 118.722,78.278C114.441,78.284 114.186,77.895 115.558,73.856C119.208,63.126 121.277,61.747 132.144,64.246ZM199.447,36.437C226.099,46.488 224.274,76.829 208.499,89.783C200.599,96.271 191.298,99.545 181.495,101.758C178.773,102.373 177.982,100.888 177.355,99.208L177.249,98.919C177.214,98.822 177.179,98.725 177.144,98.628L177.038,98.337C176.984,98.192 176.93,98.048 176.873,97.907C170.899,82.943 160.633,71.951 146.193,64.883C140.777,62.233 134.965,60.742 129.055,59.623C128.032,59.43 126.633,59.663 126.333,58.33C126.109,57.333 127.126,56.665 127.789,56.006C142.303,41.568 159.487,33.239 180.224,33.101C186.896,32.809 193.259,34.105 199.447,36.437Z" fill="#000" stroke="#00000000" stroke-width="1.0" stroke-miterlimit=""/>
	</svg>
