<svg xmlns="http://www.w3.org/2000/svg" width="192" height="192" fill="none" viewBox="0 0 192 192"><path stroke="#000" stroke-linecap="round" stroke-width="12" d="M120 56c45.038.001 50 5 50 50s-4.962 49.999-50 50H72c-45.038-.001-50-5-50-50s4.962-49.999 50-50z"/><path stroke="#000" stroke-linecap="round" stroke-linejoin="round" stroke-width="12" d="M75.06 96.952c-2.26-4 .629-8.952 5.223-8.952h31.434c4.594 0 7.484 4.953 5.223 8.952l-15.717 27.807c-2.296 4.063-8.15 4.063-10.446 0zM96 56v30m59.886-27.385a29.994 29.994 0 0 0-28.46-32.58 30 30 0 0 0-31.425 29.73"/></svg>