<svg xmlns="http://www.w3.org/2000/svg" width="192" height="192" fill="none" stroke="#000" stroke-width="10" viewBox="0 0 192 192"><path stroke-width="12" d="M101.5 64H120c45.038.001 50 5 50 50s-4.962 49.999-50 50H72c-45.038-.001-50-5-50-50s4.962-49.999 50-50h16.5"/><path stroke-linecap="round" stroke-linejoin="round" d="M85.5 96H71l25.055 41 25.056-41H107m-19 0V58.303C88 39.358 105.013 24 126 24s38 15.358 38 34.303V73.5"/><path stroke-linecap="round" d="M105 96V58.793C105 48.966 114.402 41 126 41s21 7.966 21 17.793v6.629"/></svg>