<svg xmlns="http://www.w3.org/2000/svg" width="192" height="192" fill="none"><path stroke="#000" stroke-linecap="round" stroke-linejoin="round" stroke-miterlimit="6" stroke-width="10" d="M126.224 99.103a2.884 2.884 0 0 1 5.552 0l2.248 7.215c.391 1.253 1.512 2.102 2.776 2.102h7.276c2.827 0 4.003 3.773 1.715 5.506l-5.886 4.459c-1.023.775-1.451 2.149-1.06 3.403l2.248 7.214c.874 2.804-2.204 5.136-4.492 3.403l-5.885-4.459a2.824 2.824 0 0 0-3.432 0l-5.885 4.459c-2.288 1.733-5.366-.599-4.492-3.403l2.248-7.214c.391-1.254-.037-2.628-1.06-3.403l-5.886-4.459c-2.288-1.733-1.112-5.506 1.715-5.506h7.276c1.264 0 2.385-.849 2.776-2.102z"/><path stroke="#000" stroke-linecap="round" stroke-linejoin="round" stroke-width="12" d="M37 60.5V22l130 72-4.276 2.5M37 137.5V170l59-34.492M61 112V82m38 0-10 30-10-30H43l-10 18m0 0L23 82m10 18v16"/></svg>