<svg width="192" height="192" viewBox="0 0 192 192" fill="none" xmlns="http://www.w3.org/2000/svg"><path d="M83.846 68c-2.163-.01-4.096.546-5.687 1.732-7.49 5.583-4.587 22.988 6.484 38.876 11.071 15.888 26.118 24.242 33.608 18.66 1.92-1.432 3.158-3.64 3.749-6.401m-17.079-40.864a69.887 69.887 0 0 1 6.846 8.39 71.434 71.434 0 0 1 4.878 8.074" stroke="#000" stroke-width="12" stroke-linecap="round" stroke-linejoin="round"/><path d="M23.212 79.123a5.9 5.9 0 0 1 1.43-8.5l71.47-47.618c2.764-1.84 6.51-1.081 8.325 1.689l64.596 98.551c1.89 2.883.918 6.754-2.115 8.418L98.414 169.26a5.992 5.992 0 0 1-7.64-1.607l-67.562-88.53Z" stroke="#000" stroke-width="12" stroke-linecap="round" stroke-linejoin="round"/></svg>