<?xml version="1.0" encoding="utf-8"?>
	<svg version="1.1" xmlns="http://www.w3.org/2000/svg" xmlns:xlink="http://www.w3.org/1999/xlink" x="0px" y="0px" width="240.0" height="240.0" xml:space="preserve">
		<path d="M134.142,60.012C134.383,59.64 134.442,59.468 134.563,59.375C135.022,59.02 135.555,58.745 135.964,58.342C138.591,55.753 141.204,53.15 143.794,50.524C144.567,49.74 144.353,49.037 143.413,48.536C142.39,47.991 141.397,47.362 140.325,46.938C137.398,45.779 134.342,45.291 131.189,45.162C128.736,45.063 128.729,44.93 128.746,47.417C128.752,48.268 128.72,49.013 127.953,49.642C126.449,50.875 126.464,51.037 127.802,52.49C129.686,54.538 130.522,56.931 130.222,59.697C130.137,60.48 129.941,61.25 129.795,62.026C129.647,62.807 129.85,63.275 130.747,63.395C132.353,63.61 133.941,63.967 135.549,64.173C137.013,64.36 137.932,63.679 138.45,62.07C137.051,61.401 135.631,60.723 134.142,60.012L134.142,60.012ZM144.378,54.925C144.543,55.078 144.707,55.233 144.872,55.386C146.148,54.655 147.548,54.077 148.677,53.164C151.846,50.602 154.324,47.412 156.386,43.915C156.831,43.161 157.345,42.099 157.139,41.374C156.536,39.256 155.68,37.076 153.454,36.143C149.04,34.293 144.564,32.595 139.75,32.038C138.732,31.92 137.96,32.144 137.398,33.029C136.516,34.418 135.213,35.146 133.612,35.413C132.998,35.515 132.376,35.631 131.791,35.835C130.125,36.414 128.494,37.086 127.62,38.776C126.676,40.598 127.332,41.777 129.304,41.482C132.113,41.06 134.762,41.594 137.439,42.246C140.818,43.069 144.096,44.072 146.771,46.472C147.426,47.06 147.584,47.434 147.154,48.32C146.112,50.465 145.289,52.716 144.378,54.925L144.378,54.925ZM113.008,53.386C112.341,52.958 111.447,52.667 111.013,52.052C109.933,50.517 108.725,50.234 106.953,50.769C104.693,51.45 102.238,51.548 100.045,52.372C93.47,54.841 87.43,58.349 81.745,62.467C77.431,65.592 73.082,68.675 69.52,72.701C67.785,74.661 67.773,74.993 69.593,76.789C70.095,77.286 70.588,77.832 71.187,78.18C71.771,78.519 72.509,78.869 73.138,78.806C76.292,78.493 79.34,77.898 82.017,75.924C83.708,74.678 85.619,73.689 87.531,72.798C90.014,71.64 92.594,70.69 95.135,69.659C97.599,68.659 100.04,67.59 102.543,66.698C104.851,65.875 107.225,65.234 109.576,64.536C111.298,64.025 111.587,63.623 110.979,61.989C110.607,60.989 109.993,60.08 109.509,59.12C108.466,57.053 108.69,55.97 110.57,54.649C111.324,54.118 112.218,53.787 113.008,53.386L113.008,53.386ZM106.605,44.145C106.046,42.567 105.595,41.189 105.07,39.84C104.412,38.15 104.273,38.102 102.472,38.517C102.269,38.564 102.064,38.604 101.866,38.667C98.416,39.751 95.002,40.974 91.508,41.887C88.084,42.78 84.958,44.194 81.929,45.998C74.424,50.469 67.815,55.978 62.082,62.556C58.845,66.27 56.728,70.664 54.558,75.013C53.575,76.984 55.139,80.247 57.341,80.94C60.774,82.02 64.274,81.365 68.007,81.297C67.523,80.878 67.278,80.66 67.027,80.449C63.706,77.653 63.421,74.592 66.079,71.152C68.026,68.631 70.311,66.49 72.801,64.508C77.189,61.014 81.355,57.234 85.829,53.858C91.103,49.88 96.939,46.857 103.301,44.948C104.327,44.64 105.385,44.438 106.605,44.145L106.605,44.145ZM96.319,28.817C96.529,29.254 97.406,29.678 97.907,29.61C99.464,29.396 101.011,29.018 102.521,28.564C104.4,27.998 105.141,26.981 104.936,25.03C104.78,23.541 105.143,22.773 106.684,22.375C108.725,21.847 110.653,20.853 112.704,20.398C115.186,19.848 117.865,21.068 118.557,22.948C119.69,26.028 120.703,29.156 121.634,32.303C121.784,32.81 121.423,33.857 121.002,34.072C119.583,34.796 118.04,35.285 116.526,35.812C115.16,36.289 113.734,36.611 112.401,37.162C111.2,37.658 110.84,38.672 111.184,39.953C111.79,42.201 112.334,44.465 112.946,46.711C113.386,48.327 113.919,48.632 115.596,48.346C116.498,48.192 117.45,48.155 118.286,47.826C119.617,47.303 120.954,46.704 122.131,45.907C123.182,45.195 123.433,44.054 122.904,42.795C122.372,41.531 121.918,40.234 121.43,38.951C120.624,36.829 120.645,36.625 122.512,35.348C124.708,33.845 127.025,32.515 129.168,30.944C132.128,28.774 133.518,23.719 132.376,20.225C130.829,15.492 128.624,11.181 124.938,7.719C124.294,7.114 123.781,6.972 122.961,7.318C121.819,7.799 120.632,8.216 119.426,8.497C115.983,9.3 112.467,9.833 109.081,10.821C104.979,12.018 100.946,13.481 96.956,15.019C95.478,15.589 94.178,16.656 92.857,17.582C92.245,18.011 95.132,26.35 96.319,28.817ZM144.659,131.933C144.757,132.109 145.002,132.524 145.222,132.953C146.129,134.725 147.135,136.458 147.893,138.292C148.37,139.446 147.586,140.076 146.365,139.885C145.11,139.689 143.829,139.65 142.558,139.569C141.11,139.476 139.639,139.544 138.215,139.316C132.314,138.372 127.12,135.707 122.491,132.096C119.126,129.472 116.128,126.37 113.034,123.411C112.273,122.682 111.738,122.56 110.932,123.239C109.883,124.123 108.813,124.998 107.664,125.741C107.189,126.048 106.486,126.003 105.886,126.118C105.789,125.46 105.396,124.637 105.653,124.178C106.268,123.081 107.142,122.112 108.004,121.177C108.521,120.616 109.212,120.216 109.709,119.833C107.034,115.544 104.438,111.383 101.776,107.115C101.737,107.414 101.708,107.576 101.696,107.739C100.936,117.523 98.565,126.922 95.101,136.086C94.409,137.916 93.903,139.967 93.954,141.9C94.189,150.931 94.315,159.989 96.01,168.904C96.895,173.558 98.042,178.162 99.104,182.782C99.339,183.804 99.936,184.581 101.018,184.894C104.94,186.029 108.838,187.387 112.986,185.918C113.332,185.796 113.725,185.805 114.095,185.747C117.378,185.234 120.668,184.759 123.943,184.195C129.929,183.164 135.878,181.871 141.894,181.072C149.08,180.118 156.333,179.873 163.592,180.036C164.573,180.058 165.641,179.992 166.531,179.628C172.087,177.353 177.224,174.399 181.362,169.941C183.559,167.573 185.129,164.86 185.672,161.638C185.919,160.176 185.912,158.811 184.653,157.613C183.824,156.824 183.09,155.747 182.754,154.662C180.95,148.842 178.695,143.215 175.925,137.794C172.982,132.035 169.708,126.508 165.298,121.696C162.765,118.933 159.906,116.771 156.365,115.529C155.189,115.117 154.002,114.729 152.854,114.248C152.209,113.977 151.502,113.595 151.866,112.665C152.218,111.764 152.957,111.908 153.662,112.109C154.464,112.338 155.253,112.613 155.734,112.768C152.206,109.02 148.539,105.124 144.871,101.228C145.804,105.134 146.888,108.837 147.92,112.555C149.488,118.203 151.038,123.855 152.548,129.518C152.823,130.55 152.961,131.64 152.998,132.708C153.043,134.037 152.704,134.36 151.452,134.024C149.149,133.406 146.888,132.628 144.659,131.933L144.659,131.933ZM124.654,3.801C129.798,5.672 130.52,6.191 132.421,11.378C133.749,14.999 134.926,18.677 136.081,22.361L137.233,26.046L137.233,26.046C137.536,27.014 138.047,27.453 138.966,27.473C144.096,27.581 148.865,29.207 153.569,31.019C157.072,32.368 159.387,34.838 160.327,38.606C161.892,44.877 159.462,49.815 155.386,54.264C152.862,57.02 149.78,58.932 146.318,60.296C145.285,60.703 144.313,61.287 143.362,61.87C143.136,62.008 142.914,62.618 143.021,62.759C143.869,63.868 143.232,64.284 142.396,64.646L142.192,64.732L142.192,64.732C141.938,64.837 141.706,64.998 141.181,65.291C142.094,65.7 142.765,66.073 143.482,66.31C150.065,68.488 156.408,71.181 162.205,75.033C163.484,75.883 164.726,76.813 165.873,77.831C167.907,79.635 170.286,80.491 172.944,80.537C176.605,80.599 180.188,80.007 183.529,78.493C184.799,77.917 185.838,76.832 187.18,75.832C189.85,81.548 189.431,87.051 185.411,92.485C187.376,93.038 189.052,93.666 190.784,93.965L193.097,94.366C196.183,94.897 199.279,95.396 202.39,95.62C204.668,95.784 207.001,95.147 209.312,94.891C209.784,94.839 210.266,94.875 210.743,94.871C210.694,95.332 210.7,95.807 210.586,96.252C209.982,98.626 209.541,101.064 208.682,103.344C207.256,107.131 205.576,110.868 202.293,113.465C200.75,114.685 198.91,115.53 197.2,116.537C196.719,116.821 196.22,117.076 195.721,117.349C203.192,131.448 207.252,146.462 209.876,161.91C210.691,166.706 211.129,171.566 211.726,176.398C212.139,179.737 212.727,183.07 212.887,186.422C213.166,192.292 211.679,197.76 208.802,202.926C206.649,206.793 204.368,210.469 200.547,212.904C195.886,215.875 190.844,216.946 185.385,215.836C185.066,215.771 184.739,215.744 184.179,215.666C184.541,216.352 184.788,216.894 185.098,217.397C188.911,223.586 191.713,230.265 194.554,236.923C194.974,237.909 195.192,238.982 195.504,240.014L191.504,240.014C191.466,239.808 191.436,239.598 191.408,239.387L191.327,238.753C191.255,238.226 191.163,237.708 190.962,237.237C188.094,230.545 185.161,223.88 182.241,217.211C181.832,216.277 181.382,215.362 180.948,214.431C177.894,216.423 174.992,218.355 172.051,220.227L171.563,220.538L171.563,220.538L170.588,221.161C167.169,223.341 163.698,225.469 159.717,226.429C149.419,228.912 139.124,228.267 128.907,225.833C126.176,225.182 123.525,224.194 120.771,223.341C121.065,223.854 121.335,224.355 121.632,224.839C123.251,227.475 124.346,230.302 124.358,233.42C124.367,235.617 124.131,237.816 124.004,240.014L61.504,240.014C61.855,239.577 62.126,239.025 62.568,238.72C69.591,233.88 75.815,228.246 80.411,220.969C80.988,220.054 81.602,219.163 82.19,218.255C82.278,218.119 82.314,217.95 82.371,217.805C81.191,216.711 79.731,216.361 78.549,217.235C73.72,220.802 68.904,220.062 64.026,217.414C58.434,214.379 53.252,210.7 48.704,206.311C45.726,203.437 43.792,199.564 42.32,195.696C40.283,190.343 38.383,184.885 37.958,179.096C37.782,176.701 37.853,174.276 37.964,171.872C38.105,168.838 38.219,165.783 38.666,162.785C40.04,153.569 43.637,145.222 48.932,137.584C49.19,137.211 49.444,136.836 49.811,136.301C49.114,136.128 48.537,135.982 47.96,135.842C42.887,134.609 38.724,131.726 34.765,128.501C32.927,127.004 31.133,125.448 29.404,123.827C28.627,123.099 27.978,122.198 27.417,121.286C26.661,120.056 26.915,119.556 28.329,119.126C30.716,118.4 33.129,117.753 35.489,116.949C41.034,115.058 46.341,112.706 50.813,108.78C54.111,105.885 56.75,102.537 58.557,98.497C60.693,93.72 64.036,89.784 67.671,86.083C68.155,85.589 68.609,85.066 68.907,84.741C65.233,84.421 61.488,84.341 57.84,83.703C54.533,83.125 51.814,81.417 50.696,77.865C50.016,75.703 50.616,73.721 51.319,71.785C52.862,67.539 55.431,63.885 58.464,60.594C61.729,57.05 65.006,53.49 68.558,50.244C73.431,45.791 79.244,42.786 85.313,40.246C87.087,39.503 88.833,38.694 90.573,37.871L93.182,36.633C93.617,36.427 94.052,36.222 94.488,36.019C95.009,35.776 95.499,35.469 96.004,35.191L95.952,34.819C94.812,34.923 93.653,34.933 92.538,35.16C91.514,35.368 90.948,35.06 90.624,34.117C89.099,29.671 87.462,25.26 86.079,20.771C85.353,18.414 86.814,16.557 88.426,15.094C89.571,14.054 91.034,13.311 92.447,12.626C100.246,8.844 108.196,5.44 116.665,3.421C119.354,2.78 122.024,2.844 124.654,3.801ZM154.613,78.037C154.451,78.154 157.689,83.928 159.754,95.014C160.175,97.273 160.149,101.116 159.677,106.543C165.699,109.577 169.725,111.901 171.754,113.514C180.722,120.644 183.882,125.785 184.102,125.953C184.169,125.819 183.755,124.756 183.184,122.777L183.055,122.322C182.265,119.503 181.241,115.057 180.754,109.014C180.57,106.725 181,102.797 182.043,97.229C175.793,94.697 171.53,92.625 169.254,91.014C159.038,83.78 154.729,77.945 154.606,78.038ZM123.079,147.972C123.306,150.197 122.055,151.81 120.666,153.235C119.549,154.38 118.187,155.312 116.847,156.21C115.335,157.223 113.628,157.448 111.988,156.575C110.313,155.682 108.523,154.836 107.154,153.57C103.217,149.93 103.189,145.247 106.766,141.038C109.217,138.154 112.094,136.766 115.915,137.958C120.079,139.258 122.168,142.246 122.931,146.357C123.029,146.886 123.032,147.433 123.079,147.972M159.445,141.605C159.189,138.742 160.099,136.174 162.303,134.088C164.368,132.133 167.063,131.713 169.529,133.144C173.201,135.275 174.82,138.754 175.055,142.781C175.253,146.171 171.494,149.566 167.696,149.809C164.969,149.985 162.632,149.09 160.791,147.035C159.428,145.514 159.398,143.631 159.445,141.605M156.346,153.186C158.121,153.834 158.836,155.471 158.253,156.972C157.17,159.765 154.882,160.602 152.188,160.67C151.039,160.698 149.865,160.524 148.735,160.286C147.454,160.017 146.32,160.119 145.131,160.732C142.581,162.047 139.966,163.235 137.045,163.497C134.026,163.769 130.274,161.256 129.421,158.35C129.309,157.971 129.259,157.491 129.395,157.141C129.544,156.761 129.909,156.273 130.244,156.218C130.524,156.172 130.91,156.666 131.221,156.952C131.332,157.055 131.362,157.248 131.425,157.402C133.043,161.372 135.345,161.931 138.994,160.577C140.95,159.851 142.747,158.663 144.549,157.574C145.36,157.084 145.891,157.094 146.633,157.692C148.821,159.456 153.833,158.835 155.533,156.6C155.885,156.138 156.003,155.474 156.147,154.883C156.27,154.376 156.275,153.84 156.346,153.186" fill="#000" stroke="#00000000" stroke-width="1.0" stroke-miterlimit=""/>
	</svg>
