<svg width="192" height="192" fill="none" xmlns="http://www.w3.org/2000/svg"><path d="M25 31a6 6 0 0 1 6-6h130a6 6 0 0 1 6 6v130a6 6 0 0 1-6 6H31a6 6 0 0 1-6-6V31Z" stroke="#000" stroke-width="12" stroke-linecap="round" stroke-linejoin="round"/><path d="M140.67 110.656A34.996 34.996 0 0 0 130 109c-18.992 0-34.451 15.127-34.986 33.99m45.656-32.334A46.964 46.964 0 0 0 143 96c0-4.632-.67-9.107-1.918-13.334l-90.163 26.668c5.658 19.162 23.202 33.226 44.096 33.656m45.655-32.334C134.512 129.437 116.84 143 96 143c-.33 0-.658-.003-.986-.01" stroke="#000" stroke-width="12" stroke-linecap="round" stroke-linejoin="round"/></svg>