<?xml version="1.0" encoding="UTF-8"?><svg id="uuid-500b243f-c19f-4df7-97ec-37f4b8c62d2b" xmlns="http://www.w3.org/2000/svg" viewBox="0 0 192 192"><defs><style>.uuid-10811e7f-d2d2-4833-aa97-6cf907e99d76{stroke-linecap:round;stroke-linejoin:round;}.uuid-10811e7f-d2d2-4833-aa97-6cf907e99d76,.uuid-c8b750c0-b56a-4016-9fa8-b109bed122a5{fill:none;stroke:#000;stroke-width:12px;}.uuid-c8b750c0-b56a-4016-9fa8-b109bed122a5{stroke-miterlimit:10;}</style></defs><path class="uuid-10811e7f-d2d2-4833-aa97-6cf907e99d76" d="M148.71,23h-25.6c-9.49,9.8-8.64,22.19-8.59,34.38.06,13.02-3.26,24.4-18.46,24.35-15.2.05-18.65-11.41-18.59-24.35.05-12.18.9-24.57-8.59-34.38h-25.6c-.03,13.25-.34,26.5-.02,39.74.62,25.73,15.66,45.48,39.08,51.89,4.34,1.19,9.38,1.81,13.65,1.88,4.27-.07,9.31-.69,13.65-1.88,23.42-6.41,38.46-26.15,39.08-51.89,0-16.07-.02-25.66-.02-39.74Z"/><circle class="uuid-c8b750c0-b56a-4016-9fa8-b109bed122a5" cx="96" cy="152.57" r="16.43"/></svg>