<?xml version="1.0" encoding="utf-8"?>
	<svg version="1.1" xmlns="http://www.w3.org/2000/svg" xmlns:xlink="http://www.w3.org/1999/xlink" x="0px" y="0px" width="240.0" height="240.0" xml:space="preserve">
		<path d="M124.659,120.059C126.807,120.033 128.771,121.266 129.682,123.21L132.216,128.709C133.062,130.529 134.632,131.912 136.545,132.521C138.458,133.13 140.538,132.909 142.281,131.912L151.389,126.701C153.374,125.577 155.847,125.796 157.605,127.251L163.677,132.319C165.958,134.221 168.835,135.262 171.805,135.259L197.146,135.259C199.194,135.263 201.069,136.41 202.005,138.232C202.941,140.054 202.782,142.246 201.592,143.913C176.347,179.964 132.885,203.512 122.343,208.843C120.839,209.601 119.065,209.601 117.562,208.843C107.043,203.87 64.179,182.068 38.91,146.256C37.756,144.583 37.624,142.409 38.567,140.609C39.51,138.808 41.372,137.678 43.404,137.674L59.947,137.674C63.301,137.67 66.516,136.338 68.888,133.968L74.028,128.828C75.274,127.593 77.037,127.029 78.769,127.313C80.501,127.597 81.992,128.694 82.778,130.263L94.062,152.83C95.274,155.259 97.754,156.795 100.469,156.799L100.66,156.799C103.442,156.725 105.93,155.047 107.043,152.496L119.713,123.33C120.577,121.364 122.512,120.085 124.659,120.059ZM116.008,43.818C118.416,45.67 121.729,45.804 124.279,44.152C167.884,15.321 220,37.267 220,90.817C219.981,99.431 218.585,107.986 215.864,116.158C214.854,119.017 212.155,120.931 209.123,120.939L174.961,120.939C173.312,120.933 171.717,120.359 170.442,119.314L160.043,110.66C157.742,108.742 154.491,108.456 151.891,109.942L148.64,111.783C146.913,112.733 144.872,112.93 142.995,112.329C141.118,111.727 139.572,110.38 138.719,108.604L130.901,91.702C129.746,89.132 127.193,87.476 124.375,87.471C121.549,87.498 119.003,89.183 117.872,91.774L106.134,118.788C104.986,121.255 102.54,122.86 99.819,122.931C97.099,123.002 94.572,121.527 93.297,119.122L87.822,108.173C86.79,106.115 84.833,104.678 82.561,104.309C80.289,103.939 77.977,104.683 76.347,106.309L61.406,121.25C60.07,122.575 58.267,123.322 56.385,123.33L31.308,123.33C28.285,123.311 25.598,121.399 24.59,118.549C21.545,109.62 19.994,100.251 20,90.817C20,37.506 78.164,14.58 116.008,43.818Z" fill="#000" stroke="#00000000" stroke-width="1.0" stroke-miterlimit=""/>
	</svg>
