<?xml version="1.0" encoding="utf-8"?>
	<svg version="1.1" xmlns="http://www.w3.org/2000/svg" xmlns:xlink="http://www.w3.org/1999/xlink" x="0px" y="0px" width="240.0" height="240.0" xml:space="preserve">
		<path d="M132.246,24.92C129.324,22.16 126.455,19.335 123.418,16.71C122.967,16.324 121.282,16.536 120.908,17.032C119.235,19.232 117.582,21.516 116.379,23.994C113.547,29.817 111.096,35.826 108.239,41.637C107.223,43.702 105.55,45.484 104.018,47.254C102.165,49.403 99.868,48.907 99.09,46.16C98.691,44.751 98.8,43.2 98.729,42.331C102.313,39.243 105.543,36.463 108.934,33.542C104.205,29.842 97.449,31.991 94.438,26.072C91.446,35.691 90.867,45.227 92.288,55.297C93.395,54.325 94.18,53.643 94.965,52.954C95.319,53.373 95.596,53.617 95.563,53.669C93.434,57.105 94.238,60.354 95.441,63.976C96.175,66.196 97.179,69.632 93.395,71.125C93.241,71.183 93.44,72.129 93.472,72.669C90.757,72.74 88.679,72.006 87.694,69.51C87.398,68.751 87.424,67.85 87.405,67.013C87.398,66.621 87.823,66.171 87.727,65.842C85.198,57.182 86.896,48.425 87.141,39.713C87.283,34.578 87.443,29.431 87.887,24.315C88.106,21.787 87.398,18.898 90.603,17.128C91.844,16.446 92.186,14.13 93.447,12.65C96.149,16.433 95.319,22.018 100.267,23.44C100.267,20.281 100.312,17.122 100.222,13.975C100.209,13.474 99.682,12.907 99.257,12.515C97.339,10.752 95.377,9.034 93.421,7.316C91.6,5.72 90.783,4.002 92.938,1.866C92.874,1.872 93.067,1.827 93.26,1.821C94.978,1.789 96.207,4.208 98.665,2.014C99.81,0.991 103.639,2.497 106,3.468C107.602,4.124 109.101,5.649 110.021,7.161C110.594,8.107 110.465,10.044 109.841,11.022C108.683,12.837 106.901,14.246 105.46,15.893C105.067,16.343 104.816,17.032 104.745,17.643C104.462,20.056 108.889,23.974 111.501,23.678C111.598,24.721 111.701,25.757 111.797,26.799C113.991,22.951 115.632,19.084 117.247,15.204C117.434,14.754 117.46,14.239 117.556,13.75C117.434,13.705 117.305,13.654 117.183,13.609C115.259,17.045 113.329,20.48 111.405,23.923C112.602,20.455 113.811,16.993 114.989,13.519C115.909,10.81 116.456,7.895 117.82,5.424C118.946,3.346 121.024,1.789 122.684,0C122.897,0 123.115,0 123.328,0C123.701,0.296 124.055,0.824 124.454,0.856C127.368,1.094 128.951,4.034 128.584,6.917C128.359,8.719 129.247,11.022 130.373,12.553C133.404,16.678 136.235,21.317 140.243,24.251C145.468,28.073 151.722,30.505 157.623,33.355C158.279,33.671 159.495,32.815 160.479,32.5C163.716,33.793 163.799,36.27 162.912,39.262C162.59,40.35 162.86,41.611 162.86,42.956C151.561,38.96 140.243,34.72 132.194,24.843L132.246,24.92Z" fill="#000" stroke="" stroke-width="" stroke-miterlimit=""/>
		<path d="M132.187,24.843C132.084,26.85 132.065,28.871 131.833,30.865C131.711,31.959 131.447,33.767 130.868,33.935C129.427,34.353 127.593,34.43 126.242,33.87C124.222,33.027 122.471,31.522 120.136,29.984C119.595,32.712 119.119,35.125 118.624,37.621C123.321,37.686 128.237,32.847 131.499,39.481C131.106,41.669 129.665,42.055 127.471,41.836C125.94,41.681 124.279,42.177 122.767,42.66C118.669,43.966 117.318,46.584 118.437,50.728C118.926,52.536 119.422,54.344 119.981,56.384C120.599,56.307 121.513,56.197 122.935,56.024C119.235,52.633 118.785,48.817 120.277,44.345C121.847,48.746 125.103,49.081 128.874,48.933C131.595,48.83 132.425,50.548 132.355,54.865C132.451,54.904 132.548,54.988 132.631,54.975C134.201,54.782 135.462,56.995 137.547,54.685C139.117,52.942 143.029,55.052 144.142,57.529C144.361,58.012 144.593,58.481 144.946,59.241C141.363,62.168 137.689,58.617 134.034,59.556C137.689,62.11 140.32,65.244 139.657,70.005C139.484,71.228 139.059,73.306 138.461,73.415C136.865,73.712 134.163,73.75 133.571,72.824C130.688,68.313 127.168,70.81 123.745,71.318C119.885,71.897 116.011,72.521 112.119,72.695C111.115,72.74 109.564,71.389 109.075,70.308C107.447,66.705 108.007,63.23 110.619,60.296C107.46,60.605 104.275,60.978 101.084,61.178C100.273,61.229 98.742,60.778 98.722,60.476C98.639,59.266 98.587,57.491 99.314,56.899C100.839,55.65 102.866,55.02 104.687,54.132C104.893,54.409 105.099,54.685 105.305,54.968C104.899,55.728 104.494,56.493 103.998,57.413C107.248,57.413 110.298,57.413 113.92,57.413C113.309,52.877 112.73,48.791 112.215,44.693C112.112,43.882 111.887,42.666 112.312,42.267C116.301,38.516 114.57,33.42 115.503,28.987C116.108,26.104 116.475,23.44 120.033,22.983C120.728,22.893 121.506,22.745 122.143,22.951C124.775,23.794 127.336,24.849 129.987,25.615C130.617,25.802 131.486,25.184 132.239,24.927C132.245,24.92 132.187,24.843 132.187,24.843ZM112.189,67.863C117.472,67.181 122.375,66.621 127.233,65.829C127.947,65.714 128.571,64.517 129.06,63.713C129.993,62.181 130.791,60.566 131.602,59.067C123.61,55.946 113.759,59.768 112.189,67.863ZM117.787,28.697C117.671,28.678 117.556,28.665 117.44,28.646C116.848,31.972 116.262,35.299 115.67,38.625C115.979,38.67 116.288,38.715 116.597,38.76C116.989,35.408 117.388,32.049 117.787,28.697Z" fill="#000" stroke="" stroke-width="" stroke-miterlimit=""/>
		<path d="M136.724,102.904C137.779,103.863 139.381,104.628 139.799,105.812C142.695,114.029 139.24,124.369 128.591,125.443C126.789,125.624 124.955,125.463 123.135,125.476C120.857,125.488 118.457,124.671 116.494,126.73C116.173,127.071 115.117,126.717 114.847,126.705C113.535,122.477 112.318,118.559 110.967,114.183C110.581,114.023 109.642,113.624 108.567,113.173C109.198,110.252 109.809,107.427 110.453,104.435C111.521,106.115 112.421,107.543 113.515,109.261C115.458,107.633 117.389,106.025 119.596,104.178C116.81,103.515 114.429,102.949 112.312,102.447C114.738,100.092 117.009,97.885 119.403,95.569C118.264,93.362 117.247,91.393 116.005,88.993C117.176,89.051 118.373,89.102 120.014,89.18C120.426,87.288 121.249,85.158 121.269,83.022C121.294,80.268 123.096,79.309 125.02,78.582C127.349,77.701 130,77.186 131.95,79.232C132.715,80.036 133.05,81.909 132.702,83.022C131.473,86.908 131.313,90.486 132.985,94.404C133.745,96.174 132.735,98.702 132.535,100.832C133.873,101.456 134.987,101.977 136.093,102.492C134.51,102.608 132.934,102.724 130.869,102.878C132.702,105.787 131.351,107.575 129.743,109.641C126.59,113.681 123.804,118.012 120.413,122.876C123.887,122.876 126.242,122.973 128.584,122.857C133.449,122.612 136.595,120.032 138.281,115.425C139.928,110.928 139.15,106.842 136.724,102.904ZM117.324,115.843C119.589,112.279 121.622,109.081 123.649,105.877C123.334,105.645 123.025,105.413 122.71,105.182C120.181,107.369 117.807,109.769 115.079,111.661C113.142,112.999 112.486,114.183 113.927,116.796C114.262,114.035 115.233,113.598 117.324,115.843ZM114.011,117.986C115.523,120.071 116.9,121.004 118.45,118.868C121.996,113.977 125.399,108.984 129.215,103.528C127.201,103.966 125.888,104.255 124.614,104.532C124.022,111.513 119.345,117.697 114.011,117.986ZM126.274,89.057C129.17,86.812 127.027,83.588 128.546,81.426C128.288,81.24 128.025,81.047 127.767,80.86C126.661,81.413 125.554,81.967 124.724,82.372C125.245,84.611 125.65,86.374 126.274,89.057ZM127.793,91.908C125.689,92.924 122.697,92.693 123.977,96.534C125.818,95.357 129.331,96.212 127.793,91.908Z" fill="#000" stroke="" stroke-width="" stroke-miterlimit=""/>
		<path d="M98.599,85.409C99.532,87.301 100.144,88.523 100.736,89.759C101.881,92.127 103.013,94.501 104.152,96.875C104.545,96.727 104.937,96.579 105.33,96.438C105.111,94.404 104.59,92.345 104.751,90.344C104.911,88.337 105.741,86.374 106.173,84.785C105.021,82.655 103.876,80.538 102.711,78.396C108.733,75.494 113.038,77.566 114.878,83.923C115.38,85.654 115.239,87.063 112.8,87.191C111.217,87.275 109.654,87.841 108.084,88.195C108.611,90.318 108.984,92.493 109.705,94.552C110.387,96.515 111.423,98.355 112.427,100.498C102.505,101.534 102.389,102.775 98.49,93.439C99.307,98.31 100.144,103.174 100.922,108.051C101.122,109.313 101.16,110.593 101.244,111.867C101.302,112.71 100.974,113.797 101.379,114.364C103.528,117.31 102.717,120.521 102.434,124.292C100.639,124.073 98.87,123.854 97.345,123.668C97.004,120.116 96.573,117.072 96.47,114.01C96.399,111.899 95.151,109.673 97.415,107.633C98.233,106.9 98.104,104.77 97.917,103.342C97.557,100.633 97.042,97.917 96.232,95.312C95.228,92.03 95.936,89.238 98.599,85.409Z" fill="#000" stroke="" stroke-width="" stroke-miterlimit=""/>
		<path d="M77,177.587C77.849,171.893 78.821,166.211 79.503,160.498C80.217,154.501 80.758,148.478 81.169,142.449C81.343,139.934 82.34,138.717 85.255,138.795C85.809,141.89 86.381,145.068 87.018,148.607C91.741,145.158 97.017,144.232 102.428,143.955C103.953,143.878 106.096,143.35 106.167,146.11C106.173,146.316 106.521,146.664 106.752,146.702C111.745,147.487 110.954,151.631 111.604,155.009C107.537,155.858 106.643,158.998 105.922,162.492C105.646,163.818 104.558,165.105 103.561,166.134C101.354,168.399 98.96,170.484 96.837,172.967C102.338,173.135 108.11,171.327 111.977,177.484C110.774,171.893 112.62,166.919 114.029,161.759C115.419,156.656 115.735,151.251 119.08,147.359C117.999,151.895 116.841,156.785 115.683,161.669C116.095,161.817 116.507,161.958 116.925,162.106C119.75,157.255 117.948,149.817 125.296,146.632C124.595,148.086 124.215,148.884 123.527,150.318C126.338,149.077 128.7,148.034 131.228,146.921C134.613,147.854 135.494,150.885 136.234,154.012C136.755,156.212 137.399,158.278 140.751,157.383C140.23,157.113 139.889,156.939 139.548,156.766C139.561,156.605 139.567,156.438 139.58,156.277C140.854,156.425 142.328,156.219 143.376,156.785C147.996,159.275 152.61,161.958 154.913,166.964C155.66,168.592 156.116,171.05 155.421,172.53C152.668,178.404 149.592,184.157 146.278,189.735C143.962,193.641 140.494,196.028 135.565,195.005C133.004,194.477 132.052,195.629 132.129,198.087C132.2,200.429 132.142,202.771 132.142,205.325C131.634,204.991 131.19,204.708 130.057,203.961C131.119,209.328 132.354,214.102 132.94,218.953C133.603,224.403 134.06,229.956 133.719,235.406C133.635,236.699 130.122,238.076 127.986,238.829C126.802,239.247 124.054,238.642 123.971,238.153C123.623,236.197 123.391,233.733 124.305,232.137C126.351,228.579 126.351,224.809 126.486,221.032C126.609,217.769 126.113,214.494 126.171,211.226C126.21,208.871 126.795,206.522 126.962,204.161C127.059,202.81 126.795,201.433 126.293,200.075C126.132,200.821 125.965,201.568 125.656,202.983C125.27,198.473 125.039,194.683 124.582,190.925C124.357,189.092 123.81,187.277 123.243,185.508C121.719,180.708 120.11,175.94 118.682,171.616C117.601,172.813 116.79,179.093 117.858,182.78C119.016,186.782 120.219,190.765 121.204,194.085C119.872,195.191 118.81,196.066 117.781,196.922C117.375,195.996 116.803,194.683 115.87,192.54C114.982,195.018 114.345,196.806 113.695,198.621C109.648,195.661 110.954,191.26 110.645,187.123C110.381,188.12 110.092,189.111 109.86,190.115C109.628,191.131 109.706,192.315 109.191,193.145C108.689,193.956 107.679,194.548 106.772,194.986C105.305,195.693 103.735,196.195 102.422,196.703C100.807,196.845 99.263,197.006 97.718,197.109C97.049,197.154 96.277,197.283 95.711,197.025C92.996,195.796 90.332,194.451 87.481,193.068C88.041,197.855 88.543,202.121 89.154,207.352C86.311,206.336 84.412,205.396 82.398,204.997C79.233,204.367 79.033,201.992 78.724,199.592C78.12,195.05 77.566,190.501 77,185.952C77,183.166 77,180.373 77,177.587ZM147.153,167.562C144.869,164.95 143.299,162.209 140.944,160.723C138.223,158.998 134.722,161.63 134.516,165.053C134.175,170.567 133.86,176.081 133.686,181.602C133.654,182.567 134.31,184.33 134.799,184.382C136.254,184.543 138.666,184.53 139.123,183.706C141.954,178.649 144.342,173.347 147.153,167.562ZM91.838,184.234C95.351,185.006 98.491,185.694 101.804,186.421C102.184,183.674 102.448,181.827 102.699,180.019C98.246,178.675 94.244,180.032 91.838,184.234ZM87.411,163.354C93.51,161.688 97.95,158.561 99.951,151.805C96.663,153.851 93.922,155.852 90.924,157.345C88.286,158.651 87.893,160.806 87.411,163.354ZM121.133,168.875C123.102,172.253 124.704,175.001 126.306,177.748C126.486,177.632 126.666,177.523 126.84,177.407C126.84,173.476 126.84,169.544 126.84,165.047C124.357,166.72 122.368,168.051 121.133,168.875ZM125.611,153.323C125.335,153.117 125.051,152.905 124.775,152.699C121.268,154.353 120.091,156.335 120.94,160.157C122.69,157.596 124.151,155.46 125.611,153.323ZM124.788,181.647C125.225,181.454 125.669,181.261 126.107,181.062C124.64,178.25 123.173,175.438 121.712,172.626C121.461,172.736 121.21,172.845 120.959,172.954C122.233,175.856 123.507,178.752 124.788,181.647Z" fill="#000" stroke="" stroke-width="" stroke-miterlimit=""/>
		<path d="M129.305,145.473C128.63,144.244 128.115,143.299 127.581,142.314C127.954,142.05 128.546,141.626 130.039,140.564C125.116,139.232 120.96,138.113 116.829,136.999C118.071,133.248 119.615,132.032 123.488,131.974C126.654,131.929 129.865,131.569 132.973,131.994C135.862,132.386 138.622,133.235 141.472,131.929C141.71,131.82 142.405,132.142 142.521,132.418C143.769,135.301 145.365,138.125 146.021,141.15C146.626,143.91 143.261,146.792 141.582,145.332C139.027,143.118 137.001,144.013 134.478,145.01C132.928,145.615 131.023,145.345 129.305,145.473Z" fill="#000" stroke="" stroke-width="" stroke-miterlimit=""/>
		<path d="M105.941,139.882C101.527,138.061 97.293,136.311 92.899,134.497C93.143,134.226 93.703,133.609 94.07,133.203C93.169,132.29 92.204,131.318 91.072,130.166C96.277,126.705 100.858,127.297 105.446,129.606C107.711,130.745 108.322,132.463 107.35,134.87C106.758,136.311 106.488,137.881 105.941,139.882Z" fill="#000" stroke="" stroke-width="" stroke-miterlimit=""/>
	</svg>
