<svg width="192" height="192" viewBox="0 0 192 192" fill="none" xmlns="http://www.w3.org/2000/svg"><path d="M22.205 74.764A5.998 5.998 0 0 1 22 73.209V38.416c0-.931.217-1.85.634-2.683l3.226-6.45a6.002 6.002 0 0 1 3.579-3.044l12.695-3.966a6.005 6.005 0 0 1 1.79-.273h11.558c.354 0 .707.031 1.055.093l25.752 4.597a6.004 6.004 0 0 0 3.364-.368l9.268-3.86a6.006 6.006 0 0 1 2.31-.462h13.964a6 6 0 0 1 1.649.23l11.733 3.352a6.006 6.006 0 0 0 2.951.088l15.382-3.417a6.006 6.006 0 0 1 2.289-.061l9.584 1.596c.837.14 1.636.456 2.343.926l6.117 4.077a5.997 5.997 0 0 1 2.429 3.3l4.084 13.879c.201.681.278 1.393.23 2.101l-2.872 42.1a5.99 5.99 0 0 1-.335 1.61l-14.516 40.627c-.14.394-.321.771-.54 1.127l-14.054 22.829a6.004 6.004 0 0 1-4.713 2.842l-8.764.584a6.003 6.003 0 0 1-5.11-2.269l-11.433-14.476a6.006 6.006 0 0 0-4.213-2.261l-5.488-.458a6.004 6.004 0 0 0-5.784 3.135l-11.24 20.867a5.997 5.997 0 0 1-2.6 2.521l-5.037 2.518a6.012 6.012 0 0 1-2.684.633h-4.1a6.004 6.004 0 0 1-4.244-1.757l-6.519-6.516a6.01 6.01 0 0 1-1.17-1.654l-21.327-44.574a5.99 5.99 0 0 1-.382-1.034L22.205 74.764Z" stroke="#000" stroke-width="12" stroke-linecap="round" stroke-linejoin="round"/></svg>