<svg xmlns="http://www.w3.org/2000/svg" width="192" height="192" viewBox="0 0 192 192"><path fill="none" stroke="#000" stroke-width="12" d="M58.55 162.78c-4.87 0-7.57-1.16-9-2-2-1.18-5.69-4.16-9-13-5.3-14.16-8.44-31.44-8.57-51.75V96c.13-20.34 3.27-37.62 8.57-51.78 3.3-8.82 7-11.81 9-13 1.43-.85 4.13-2 9-2a41.41 41.41 0 0 1 6.58.58c14.73 2.43 31 8.31 48.44 18.35 17.29 10.3 30.43 21.69 39.89 33.44C159.34 88.92 160 93.65 160 96s-.7 7.09-6.58 14.4c-9.43 11.74-22.6 23.14-39.86 33.42h-.07c-17.38 10-33.69 15.92-48.42 18.34a40.31 40.31 0 0 1-6.56.58"/></svg>