<svg xmlns="http://www.w3.org/2000/svg" width="192" height="192" fill="none" viewBox="0 0 192 192"><path stroke="#000" stroke-width="12" d="M56.471 170c-5.401 0-8.396-1.285-9.982-2.216-2.219-1.308-6.312-4.61-9.983-14.406-5.879-15.691-9.362-34.839-9.506-57.345V96c.144-22.54 3.627-41.687 9.506-57.378 3.66-9.774 7.764-13.087 9.983-14.406 1.586-.942 4.58-2.216 9.983-2.216 2.446.02 4.886.235 7.298.643 16.339 2.692 34.385 9.208 53.73 20.334 19.178 11.413 33.753 24.035 44.246 37.055C168.268 88.155 169 93.396 169 96s-.776 7.857-7.299 15.957c-10.459 13.009-25.068 25.642-44.212 37.033h-.078c-19.278 11.081-37.369 17.641-53.708 20.323a45 45 0 0 1-7.276.643"/></svg>