<svg xmlns="http://www.w3.org/2000/svg" width="192" height="192" fill="none"><path stroke="#000" stroke-linecap="round" stroke-linejoin="round" stroke-width="12" d="M45.824 35.115c0-3.128 2.4-5.734 5.522-5.997l85.424-7.096a6.026 6.026 0 0 1 6.446 4.97l3.58 20.644 1.31 40.127a6.02 6.02 0 0 1-5.824 6.21l-18.294.61a6.023 6.023 0 0 0-5.828 6.014v2.422a6.023 6.023 0 0 1-5.805 6.014l-15.517.574a6.02 6.02 0 0 0-5.806 6.013v10.144c0 3.364 2.763 6.075 6.133 6.017l46.316-.797a6.024 6.024 0 0 1 6.125 5.709l1.386 26.981c.177 3.44-2.57 6.326-6.021 6.326H64.683a6 6 0 0 1-1.522-.195l-17.654-4.597a6.02 6.02 0 0 1-4.502-6.077l2.575-60.823a6.023 6.023 0 0 1 5.782-5.76l13.783-.55a6.023 6.023 0 0 0 5.788-6.013v-1.668a6.02 6.02 0 0 1 5.583-6.001l15.962-1.18a6.02 6.02 0 0 0 5.583-6.002v-11.09c0-3.465-2.925-6.215-6.39-6.007L52.213 56.28c-3.465.208-6.39-2.541-6.39-6.007z"/></svg>