<?xml version="1.0" encoding="UTF-8" standalone="no"?>
<svg
   width="100%"
   height="100%"
   viewBox="0 0 192 192"
   version="1.1"
   xml:space="preserve"
   style="fill-rule:evenodd;clip-rule:evenodd;stroke-linejoin:round;stroke-miterlimit:2;"
   id="svg10"
   sodipodi:docname="zapp.svg"
   inkscape:version="1.2.1 (9c6d41e410, 2022-07-14)"
   xmlns:inkscape="http://www.inkscape.org/namespaces/inkscape"
   xmlns:sodipodi="http://sodipodi.sourceforge.net/DTD/sodipodi-0.dtd"
   xmlns="http://www.w3.org/2000/svg"
   xmlns:svg="http://www.w3.org/2000/svg"><defs
   id="defs14" /><sodipodi:namedview
   id="namedview12"
   pagecolor="#ffffff"
   bordercolor="#000000"
   borderopacity="0.25"
   inkscape:showpageshadow="2"
   inkscape:pageopacity="0.0"
   inkscape:pagecheckerboard="0"
   inkscape:deskcolor="#d1d1d1"
   showgrid="false"
   inkscape:zoom="5.3489583"
   inkscape:cx="71.883155"
   inkscape:cy="95.906524"
   inkscape:window-width="1274"
   inkscape:window-height="1303"
   inkscape:window-x="1282"
   inkscape:window-y="36"
   inkscape:window-maximized="0"
   inkscape:current-layer="svg10" />
    <path
   d="M302.716,885.156L297.501,903.082L295.451,903.298L283.519,882.778C284.637,880.916 285.28,878.736 285.28,876.407C285.28,869.559 279.721,864 272.873,864C266.026,864 260.466,869.559 260.466,876.407C260.466,883.254 266.026,888.814 272.873,888.814C272.964,888.814 273.055,888.813 273.145,888.811L282.369,904.673L250.954,907.975C244.367,908.667 239.581,914.577 240.274,921.164C240.274,921.164 246.904,984.241 246.904,984.241C247.596,990.828 253.506,995.613 260.092,994.921L263.657,994.546L255.264,1015.8C254.048,1018.88 255.561,1022.36 258.641,1023.58C261.721,1024.8 265.209,1023.28 266.425,1020.2L277.118,993.131L345.421,985.952L364.877,1013.75C366.776,1016.46 370.52,1017.12 373.233,1015.22C375.946,1013.33 376.607,1009.58 374.708,1006.87L359.065,984.518L361.464,984.266C368.05,983.573 372.836,977.664 372.143,971.077C372.143,971.077 365.513,908 365.513,908C364.821,901.413 358.911,896.627 352.325,897.32L310.393,901.727L314.237,888.513C319.774,887.269 323.917,882.318 323.917,876.407C323.917,869.559 318.357,864 311.51,864C304.662,864 299.103,869.559 299.103,876.407C299.103,879.819 300.483,882.911 302.716,885.156ZM360.209,972.332L353.579,909.254L252.208,919.909L258.838,982.987L360.209,972.332Z"
   id="path4"
   style="fill-rule:evenodd;clip-rule:evenodd;stroke-linejoin:round;stroke-miterlimit:2"
   transform="translate(-212,-848)"
   inkscape:label="zapp_form" />
</svg>
