<svg xmlns="http://www.w3.org/2000/svg" width="192" height="192" fill="none" viewBox="0 0 192 192"><path stroke="#000" stroke-linecap="round" stroke-linejoin="round" stroke-width="12" d="M118 39c-23 28-33 62-33 62M59 77c-13.763 0-23.908.658-30.059 1.219-3.662.334-6.941-2.535-6.941-6.213V57.011c0-2.428 1.478-4.63 3.736-5.522C81.626 29.428 118 39 118 39M42 159s0-52 17-82m-17 82c43.805-24.759 82.168-32.289 121.999-32.951 3.313-.055 6.001-2.735 6.001-6.049v-10.782c0-2.992-2.209-5.532-5.177-5.911C117.6 97.274 85 101 85 101"/></svg>