<svg xmlns="http://www.w3.org/2000/svg" width="192" height="192" viewBox="0 0 192 192"><path d="M46.36 117h-24c-4.23 0-6.37-1.91-6.37-5.68a6.53 6.53 0 0 1 1.75-4.32L36 85.09H23.29c-3.44 0-5.84-2.06-5.84-5s2.4-5 5.84-5h23.28c3.4 0 5.35 1.95 5.35 5.35a6.28 6.28 0 0 1-1.55 4l-18.6 22.47h14.59c3.43 0 5.83 2.06 5.83 5s-2.4 5.09-5.83 5.09m41.12.68c-3.26 0-4.6-1.79-5.16-3.29l-2-5.75H67.88l-2 5.74c-.75 2.21-2.42 3.3-5.11 3.3a5 5 0 0 1-5.35-5.2 12.6 12.6 0 0 1 .94-3.88l11.41-30.72c.89-2.39 2.68-3.56 5.48-3.56h2.11c2.09 0 4.65.47 5.92 4.13L92 108.61a12.3 12.3 0 0 1 .93 3.87 5.31 5.31 0 0 1-5.45 5.2M70.67 99.9h6.91L74.2 89.21m54.52 28.47c-4.78 0-6.48-3.93-6.48-7.61 0-7.27-1.43-8.44-4.84-8.44h-7.48v10.3a5.67 5.67 0 1 1-11.34 0V81.54c0-4.31 2.16-6.5 6.42-6.5h14.72c13.51 0 14.56 9.34 14.56 12.2a11.19 11.19 0 0 1-4.67 9.39c2.88 1.75 3.32 5.17 3.32 8.19a20 20 0 0 0 .75 5.51 10.4 10.4 0 0 1 .44 2.59c0 2.94-2.8 4.76-5.4 4.76m-18.8-25.12h7.59c3.86 0 5.43-1.18 5.43-4.06s-1.35-4.06-5.16-4.06h-7.86m60.68 33.24c-3.26 0-4.61-1.79-5.16-3.29l-2-5.75H151l-2 5.74c-.75 2.21-2.43 3.3-5.12 3.3a5 5 0 0 1-5.34-5.2 12.1 12.1 0 0 1 .94-3.88l11.43-30.72c.89-2.39 2.68-3.56 5.48-3.56h2.1c2.09 0 4.66.47 5.93 4.13l10.67 30.16a12.6 12.6 0 0 1 .93 3.87 5.31 5.31 0 0 1-5.42 5.2M153.79 99.9h6.91l-3.38-10.69"/></svg>