<svg xmlns="http://www.w3.org/2000/svg" width="192" height="192" viewBox="0 0 192 192"><path d="m22 162-5.553-2.272A6 6 0 0 0 22 168zm148 0v6a6.002 6.002 0 0 0 5.553-8.272zM22 30v-6a6 6 0 0 0-5.553 8.272zm81 0 5.553 2.272A6 6 0 0 0 103 24zm39 132-5.553 2.272A6 6 0 0 0 142 168zm-27 0v6a6.002 6.002 0 0 0 5.553-8.272zM95.5 48.333l5.553 2.272zm27.5-1.222 5.553-2.272a6 6 0 0 0-11.106 0zM59.636 136l-5.553-2.272A6 6 0 0 0 59.636 142zM109 81.333l-5.553-2.272a6 6 0 0 0 0 4.544zM49 96l5.553 2.272zM32.636 56l-5.553 2.272A6 6 0 0 0 32.636 62zm32.728 0 5.553 2.272A6 6 0 0 0 65.364 50zm39 80 5.553-2.272a6 6 0 0 0-5.553-3.728zm-3.311-85.395 7.5-18.333-11.106-4.544-7.5 18.334zm74.5 109.123-47-114.889-11.106 4.544 47 114.889zM65.19 138.272l35.863-87.667-11.106-4.543-35.864 87.666zm49.363-54.667 14-34.222-11.106-4.544-14 34.222zm33 76.123-33-80.667-11.106 4.544 33 80.667zm-120 4.544 27-66-11.106-4.544-27 66zM22 36h81V24H22zm0 132h27v-12H22zm27 0h66v-12H49zM38.19 53.728l-10.637-26-11.106 4.544 10.636 26zm16.363 44.544 16.364-40-11.107-4.544-16.363 40zM32.636 62h32.728V50H32.636zm87.917 97.728-10.636-26-11.107 4.544 10.637 26zM104.364 130H59.636v12h44.728zM142 168h28v-12h-28z"/></svg>