<svg xmlns="http://www.w3.org/2000/svg" width="192" height="192" fill="none" viewBox="0 0 192 192"><path fill="#000" d="m22 162-5.553-2.272A6 6 0 0 0 22 168v-6Zm148 0v6a6.002 6.002 0 0 0 5.553-8.272L170 162ZM22 30v-6a6 6 0 0 0-5.553 8.272L22 30Zm81 0 5.553 2.272A6 6 0 0 0 103 24v6Zm39 132-5.553 2.272A6 6 0 0 0 142 168v-6Zm-27 0v6a6.002 6.002 0 0 0 5.553-8.272L115 162ZM95.5 48.333l5.553 2.272-5.553-2.272Zm27.5-1.222 5.553-2.272a6 6 0 0 0-11.106 0L123 47.111ZM59.636 136l-5.553-2.272A6 6 0 0 0 59.636 142v-6ZM109 81.333l-5.553-2.272a5.997 5.997 0 0 0 0 4.544L109 81.333ZM49 96l5.553 2.272L49 96ZM32.636 56l-5.553 2.272A6 6 0 0 0 32.636 62v-6Zm32.728 0 5.553 2.272A6 6 0 0 0 65.364 50v6Zm39 80 5.553-2.272a6 6 0 0 0-5.553-3.728v6Zm-3.311-85.395 7.5-18.333-11.106-4.544-7.5 18.334 11.106 4.543Zm74.5 109.123-47-114.889-11.106 4.544 47 114.889 11.106-4.544ZM65.19 138.272l35.863-87.667-11.106-4.543-35.864 87.666 11.107 4.544Zm49.363-54.667 14-34.222-11.106-4.544-14 34.222 11.106 4.544Zm33 76.123-33-80.667-11.106 4.544 33 80.667 11.106-4.544Zm-120 4.544 27-66-11.106-4.544-27 66 11.106 4.544ZM22 36h81V24H22v12Zm0 132h27v-12H22v12Zm27 0h66v-12H49v12ZM38.19 53.728l-10.637-26-11.106 4.544 10.636 26 11.107-4.544Zm16.363 44.544 16.364-40-11.107-4.544-16.363 40 11.106 4.544ZM32.636 62h32.728V50H32.636v12Zm87.917 97.728-10.636-26-11.107 4.544 10.637 26 11.106-4.544ZM104.364 130H59.636v12h44.728v-12ZM142 168h28v-12h-28v12Z"/></svg>