<svg xmlns="http://www.w3.org/2000/svg" xml:space="preserve" width="192" height="192" viewBox="0 0 50.8 50.8"><g style="display:inline;stroke-width:1.00012;stroke-dasharray:none"><path d="M31.526 27.616a10.327 10.327 0 0 1-13.988 3.628 10.327 10.327 0 0 1-3.92-13.91 10.327 10.327 0 0 1 13.825-4.209" style="fill:none;stroke:#000;stroke-width:3.17406;stroke-linecap:round;stroke-linejoin:round;stroke-dasharray:none" transform="rotate(15 7.596 -1)"/><path d="M38.64 31.735V25.5s-.351-2.324 1.973-2.324h4.367m-7.414 4.28h5.283m-14.34-4.42v8.558h3.063s3.945.352 4.05-2.641V26.31s.141-3.345-3.486-3.345zm-9.396.071h4.402s2.078-.07 2.078 2.324c0 0 .176 1.902-2.395 1.902h-1.303s-2.747-.388-2.747 2.148v2.078h6.727" style="fill:none;stroke:#000;stroke-width:3.17406;stroke-linecap:round;stroke-linejoin:round;stroke-dasharray:none" transform="translate(0 -2)"/></g></svg>