<svg xmlns="http://www.w3.org/2000/svg" width="192" height="192" viewBox="0 0 50.8 50.8"><g fill="none" stroke="#000" stroke-linecap="round" stroke-linejoin="round" stroke-width="3.174"><path d="M23.304 32.834A10.327 10.327 0 0 1 8.668 18.268a10.327 10.327 0 0 1 14.443-.488"/><path d="M38.64 29.735V23.5s-.351-2.324 1.973-2.324h4.367m-7.414 4.28h5.283m-14.34-4.42v8.558h3.063s3.945.352 4.05-2.641V24.31s.141-3.345-3.486-3.345zm-9.396.071h4.402s2.078-.07 2.078 2.324c0 0 .176 1.902-2.395 1.902h-1.303s-2.747-.388-2.747 2.148v2.078h6.727"/></g></svg>