<svg xmlns="http://www.w3.org/2000/svg" width="192" height="192" viewBox="0 0 192 192"><path fill="none" stroke="#000" stroke-linecap="round" stroke-linejoin="round" stroke-width="12" d="M107.8 142.5c2.4-.1 4.9-.3 7.4-.5 32.4-2 55.5-28.3 54.8-60.3.1-18.7-13.6-32.1-32.4-32.2H68.2c-3.3 0-3.7.3-4.5 3.5-2.3 9-4.7 18-6.9 27.1-.6 2.5-1.8 3.3-4.2 3.2-7.6-.1-15.2 0-22.8-.1-2.3 0-3.5.9-4 3.1-1.1 4.6-2.3 9.1-3.5 13.7-.8 3.4 0 4.5 3.5 4.5h21.4c2.9 0 3.1.3 2.4 3.2-2.5 10-5.1 19.9-7.7 29.8-1 4-.3 5 3.8 5zm17.3-74.2c2.5.1 4.9.4 7.2.8 9 1.9 13.6 7.4 13.5 16.6-.1 8.5-2.3 16.5-7 23.6-7.6 12-20.2 14.3-33.2 14.6l-32.3-.1c-1.8 0-2.6-.6-2.1-2.6 4.3-17 8.5-33.9 12.7-50.9.5-1.8 1.6-2.1 3.1-2.1z"/></svg>