<svg xmlns="http://www.w3.org/2000/svg" width="192" height="192" fill="none" stroke="#000" stroke-linecap="round" stroke-linejoin="round" stroke-width="6" viewBox="0 0 192 192"><path stroke-width="10" d="M153.273 107c.834 1.216 2.033 2.226 3.477 2.928A10.9 10.9 0 0 0 161.5 111c1.668 0 3.306-.37 4.75-1.072s2.643-1.712 3.477-2.928 1.273-2.596 1.273-4-.439-2.784-1.273-4-2.033-2.226-3.477-2.928A10.9 10.9 0 0 0 161.5 95M108 82H90v14m18 14H90V96h18m32-14h-18v14m18 14h-18V96h18"/><path stroke-width="10" d="M171 82h-18v13h9M59 82h18l-18 28h18"/><path d="M96 173a77 77 0 0 1 0-154"/><path d="M63.5 152.292a65 65 0 0 1 65-112.584"/><path d="M133.477 133.477a53.004 53.004 0 0 1-81.545-66.922 53 53 0 0 1 81.545-8.032"/></svg>