<svg xmlns="http://www.w3.org/2000/svg" width="192" height="192" fill="none"><path stroke="#000" stroke-linecap="round" stroke-linejoin="round" stroke-width="12" d="M146.364 112.931a12.4 12.4 0 0 0 4.636 4.443 13.1 13.1 0 0 0 6.333 1.626 13.1 13.1 0 0 0 6.334-1.626 12.4 12.4 0 0 0 4.636-4.443 11.75 11.75 0 0 0 1.697-6.069c0-2.131-.585-4.224-1.697-6.069a12.4 12.4 0 0 0-4.636-4.443 13.1 13.1 0 0 0-6.334-1.626M170 75h-18a6 6 0 0 0-6 6v7.724a6 6 0 0 0 6 6h6M86.199 75h-15.4a6 6 0 0 0-6 6v16m21.4 22h-15.4a6 6 0 0 1-6-6V97m0 0h21.4M127 75h-15.4a6 6 0 0 0-6 6v16m21.4 22h-15.4a6 6 0 0 1-6-6V97m0 0H127M22 75h23.397L22 119h23.397"/><path stroke="#000" stroke-linecap="round" stroke-linejoin="round" stroke-width="10" d="M118.305 53.695a56.995 56.995 0 0 0-62.118-12.356 57 57 0 0 0-18.492 12.356m0 84.61A57 57 0 0 0 78 155a57 57 0 0 0 40.305-16.695"/></svg>