<svg xmlns="http://www.w3.org/2000/svg" width="192" height="192" fill="none" viewBox="0 0 192 192"><path stroke="#000" stroke-linejoin="round" stroke-width="12" d="M76 42H28a6 6 0 0 0-6 6v96a6 6 0 0 0 6 6h48a6 6 0 0 0 6-6V48a6 6 0 0 0-6-6Zm35 108h48a6 6 0 0 0 6-6V96.575q0-.575.109-1.14l4.509-23.295c.717-3.702-2.12-7.14-5.891-7.14h-57.454c-3.771 0-6.608 3.438-5.891 7.14l4.509 23.295q.108.566.109 1.14V144a6 6 0 0 0 6 6Z"/><path stroke="#000" stroke-linecap="round" stroke-linejoin="round" stroke-width="12" d="M105 65V47.308c0-2.932 2.686-5.308 6-5.308h48c3.314 0 6 2.376 6 5.308V65"/><path stroke="#000" stroke-linecap="round" stroke-width="12" d="M56 73v45m0-45c-1 4.627-7.373 11-12 12"/></svg>