<?xml version="1.0" standalone="no"?>
<!DOCTYPE svg PUBLIC "-//W3C//DTD SVG 20010904//EN"
 "http://www.w3.org/TR/2001/REC-SVG-20010904/DTD/svg10.dtd">
<svg version="1.0" xmlns="http://www.w3.org/2000/svg"
 width="192.000000pt" height="192.000000pt" viewBox="0 0 192.000000 192.000000"
 preserveAspectRatio="xMidYMid meet">
<metadata>
Created by potrace 1.16, written by Peter Selinger 2001-2019
</metadata>
<g transform="translate(0.000000,192.000000) scale(0.100000,-0.100000)"
fill="#000000" stroke="none">
<path d="M781 1725 c-79 -19 -104 -62 -60 -106 16 -16 28 -20 53 -14 155 33
264 29 385 -11 244 -82 415 -289 452 -547 44 -301 -156 -615 -454 -713 -114
-38 -276 -40 -387 -6 -112 35 -196 86 -281 171 -160 160 -228 376 -185 589 19
92 13 116 -29 126 -65 16 -85 -32 -92 -220 -4 -111 -2 -143 16 -215 73 -288
279 -496 565 -569 108 -27 273 -27 382 0 265 67 473 265 556 530 20 65 23 95
23 230 -1 143 -3 161 -28 235 -91 261 -293 450 -551 515 -93 24 -278 26 -365
5z"/>
<path d="M407 1512 c-134 -134 -157 -162 -157 -188 0 -38 16 -54 54 -54 26 0
54 24 188 158 165 165 180 189 142 226 -38 38 -62 23 -227 -142z"/>
<path d="M620 960 l0 -201 58 3 57 3 3 143 3 142 103 0 c138 0 136 2 136 -163
l0 -127 55 0 55 0 0 160 c0 244 5 240 -274 240 l-196 0 0 -200z"/>
<path d="M1160 960 l0 -200 55 0 55 0 0 200 0 200 -55 0 -55 0 0 -200z"/>
<path d="M807 983 c-4 -3 -7 -55 -7 -115 l0 -108 55 0 55 0 0 115 0 115 -48 0
c-27 0 -52 -3 -55 -7z"/>
</g>
</svg>
