<?xml version="1.0" encoding="UTF-8" standalone="no"?>
<svg
   xmlns:dc="http://purl.org/dc/elements/1.1/"
   xmlns:cc="http://creativecommons.org/ns#"
   xmlns:rdf="http://www.w3.org/1999/02/22-rdf-syntax-ns#"
   xmlns:svg="http://www.w3.org/2000/svg"
   xmlns="http://www.w3.org/2000/svg"
   xml:space="preserve"
   id="SVGRoot"
   version="1.1"
   viewBox="0 0 192 192"
   height="192"
   width="192"><metadata
     id="metadata8"><rdf:RDF><cc:Work
         rdf:about=""><dc:format>image/svg+xml</dc:format><dc:type
           rdf:resource="http://purl.org/dc/dcmitype/StillImage" /><dc:title></dc:title></cc:Work></rdf:RDF></metadata><defs
     id="defs18865" /><path
     id="path831"
     d="M 151.60407,140 C 179.35436,139.75853 175.45914,82.252313 141.46556,94.535306 135.27641,86.862433 129.30463,78.854918 113.72913,79.824026 100.50218,80.647006 90.957077,90.567645 88.199118,103.42723 79.384074,103.36233 68.473752,108.8213 67.152763,119.298 65.05858,135.90684 82.050296,140 88.110187,140 Z"
     style="display:inline;opacity:1;fill:none;stroke:#000000;stroke-width:12;stroke-linejoin:round;stroke-miterlimit:4;stroke-dasharray:none;stroke-opacity:1" /><path
     d="M 135.20193,142.20809 A 66.039009,66.005753 0 0 1 52.447866,151.60931 66.039009,66.005753 0 0 1 26.30003,72.573238 66.039009,66.005753 0 0 1 98.34833,30.812115 66.039009,66.005753 0 0 1 153.99505,92.749849"
     id="path820"
     style="opacity:1;fill:none;fill-opacity:1;stroke:#000000;stroke-width:12.00000095;stroke-linecap:round;stroke-linejoin:round;stroke-miterlimit:4;stroke-dasharray:none;stroke-opacity:1" /></svg>