<?xml version="1.0" encoding="UTF-8"?>
<!-- Created with Inkscape (http://www.inkscape.org/) -->
<svg width="192" height="192" version="1.1" viewBox="0 0 192 192" xml:space="preserve" xmlns="http://www.w3.org/2000/svg"><g fill="none" stroke="#000" stroke-linecap="round" stroke-linejoin="round" stroke-miterlimit="15" stroke-width="12"><path d="m124.63 52.461c10.757 2.8824 23.601 20.739 25.148 26.515" style="paint-order:markers stroke fill"/><path d="m149.77 78.975c2.6055 9.7238-5.7646 15.515-5.7646 15.515-4.1905 4.1905-28.597 17.666-28.597 17.666" style="paint-order:markers stroke fill"/><path d="m115.41 112.16c-3.3297 1.9224-6.2993 4.3125-6.2993 4.3125l40.685 53.533" style="paint-order:markers stroke fill"/><path d="m42.101 21.998 75.939 28.032" style="paint-order:markers stroke fill"/><path d="m42.101 21.998 40.553 53.359" style="paint-order:markers stroke fill"/><path d="m149.8 170-72.257-26.672" style="paint-order:markers stroke fill"/><path d="m70.763 140.1c-7.7252-4.4601-14.986-10.056-17.23-12.3-6.1717-6.1717-8.3991-10.996-8.3991-10.996-4.8329-8.3708 0.84264-15.966 0.84264-15.966" style="paint-order:markers stroke fill"/><path d="m45.977 100.84c2.2136-3.8341 8.8699-8.4561 8.8699-8.4561" style="paint-order:markers stroke fill"/><path d="m54.846 92.38c2.983-1.7223 27.807-17.023 27.807-17.023" style="paint-order:markers stroke fill"/><path d="m77.541 143.33c-3.0873-1.1396-3.0971-1.1483-6.7781-3.2327" style="paint-order:markers stroke fill"/><path d="m118.04 50.03 6.5857 2.431" style="paint-order:markers stroke fill"/><path d="m121.33 51.245c0 11.075-1.7143 16.238-1.7143 16.238" style="paint-order:markers stroke fill"/><path d="m119.62 67.484c-4.1167 15.756-21.454 28.282-21.454 28.282" style="paint-order:markers stroke fill"/><path d="m98.165 95.766c-17.745 10.245-18.239 13.788-22.016 20.404" style="paint-order:markers stroke fill"/><path d="m76.148 116.17c-2.2068 3.8224-2.8116 17.471-1.9962 25.875" style="paint-order:markers stroke fill"/><path d="m109.11 116.47c-9.5916 5.5377-10.531 15.357-10.531 15.357-0.92654 6.7954 3.1924 15.196 3.1924 15.196" style="paint-order:markers stroke fill"/><path d="m101.77 147.02c1.8492 3.2029 4.0102 6.7331 4.0102 6.7331" style="paint-order:markers stroke fill"/><path d="m82.654 75.357c10.914-6.3013 10.406-16.536 10.406-16.536" style="paint-order:markers stroke fill"/><path d="m93.06 58.821c0-11.821-5.6073-20.082-5.6073-20.082" style="paint-order:markers stroke fill"/></g></svg>
