<svg width="192" height="192" viewBox="0 0 192 192" fill="none" xmlns="http://www.w3.org/2000/svg"><path d="M58 134h58a6 6 0 0 0 6-6v-8m28.5-74a12.503 12.503 0 0 0 11.548-7.717 12.495 12.495 0 0 0-2.709-13.622A12.501 12.501 0 0 0 138 33.5" stroke="#000" stroke-width="10" stroke-linecap="round" stroke-linejoin="round"/><path d="M138 58.5a12.496 12.496 0 0 0 7.716 11.549 12.503 12.503 0 0 0 13.623-2.71A12.498 12.498 0 0 0 150.5 46" stroke="#000" stroke-width="10" stroke-linecap="round" stroke-linejoin="round"/><path d="M37 100v64a6 6 0 0 0 6 6h106a6 6 0 0 0 6-6v-64m-118 0-15 20m15-20h118m0 0 15 20" stroke="#000" stroke-width="12" stroke-linecap="round" stroke-linejoin="round"/><path d="m58 134 64-88H64a6 6 0 0 0-6 6v8" stroke="#000" stroke-width="10" stroke-linecap="round" stroke-linejoin="round"/></svg>