<?xml version="1.0" encoding="utf-8"?>
	<svg version="1.1" xmlns="http://www.w3.org/2000/svg" xmlns:xlink="http://www.w3.org/1999/xlink" x="0px" y="0px" width="240.0" height="240.0" xml:space="preserve">
		<path d="M219.179,115.622C217.896,80.208 196.028,56.075 196.028,56.075C162.208,16.39 118.835,20.091 118.835,20.091C72.516,18.61 44.033,53.865 44.033,53.865C24.548,77.23 22.346,98.761 22.346,98.761C13.705,134.922 31.715,166.087 31.715,166.087C45.13,190.571 59.282,201.9 82.252,212.637C105.228,223.414 140.157,221.932 161.844,210.989C183.527,200.032 196.76,187.977 208.889,165.169C221.013,142.34 219.179,115.622 219.179,115.622M109.461,197.813C109.461,197.813 73.069,195.775 53.037,160.52C53.037,160.52 35.753,135.657 42.92,104.679C50.094,73.701 66.818,61.281 70.132,58.13C73.44,54.982 94.853,42.111 109.461,42.348L109.461,79.269L94.024,79.269C94.024,79.269 73.07,80.567 72.334,103.94L72.334,138.075C72.334,138.075 72.887,159.045 94.573,161.45L109.461,161.45L109.461,197.813M96.957,139.749C96.957,139.749 93.287,140.677 92.737,136.416L92.737,103.762C92.737,103.762 93.287,100.24 96.041,100.24L141.437,100.24C141.437,100.24 145.304,99.485 145.667,103.762L145.667,135.481C145.667,135.481 146.591,140.491 142.911,139.749L96.957,139.749M185.369,163.672C170.661,186.301 142.723,196.698 129.679,197.813L129.679,161.449L146.953,161.449C146.953,161.449 165.343,157.744 166.438,138.444L166.438,99.676C166.438,99.676 163.486,80.208 143.103,79.269L129.679,79.269L129.679,42.357C129.679,42.357 152.652,44.204 171.212,61.465C189.775,78.713 194.55,95.964 196.578,105.245C198.596,114.522 200.068,141.04 185.369,163.672" fill="#000" stroke="#00000000" stroke-width="1.0" stroke-miterlimit=""/>
	</svg>
