<?xml version="1.0" encoding="utf-8"?>
	<svg version="1.1" xmlns="http://www.w3.org/2000/svg" xmlns:xlink="http://www.w3.org/1999/xlink" x="0px" y="0px" width="240.0" height="240.0" xml:space="preserve">
		<path d="M103.873,143.421C106.581,147.284 107.483,151.061 107.802,154.863C109.451,174.481 105.193,192.657 94.028,209.03C92.217,211.685 89.948,213.938 87.198,215.657C81.95,218.939 77.236,217.844 73.98,212.535C71.558,208.584 70.728,204.14 70.331,199.626C69.473,189.859 70.913,180.334 73.301,170.867C75.467,162.284 79.278,154.547 84.298,147.345C85.082,146.221 86.072,145.24 86.968,144.192C87.203,144.298 87.439,144.403 87.674,144.508C86.914,148.103 86.18,151.704 85.388,155.293C83.422,164.201 81.869,173.176 81.152,182.277C80.935,185.026 81.027,187.802 81.746,190.48C82.887,194.731 86.417,195.78 89.81,192.946C91.458,191.57 92.534,189.755 93.367,187.836C96.499,180.631 98.17,173.053 99.516,165.322C100.756,158.2 102.642,151.182 103.873,143.421ZM136.3,126.521C143.686,128.438 149.976,132.346 155.743,137.21C156.661,137.983 157.606,138.722 158.537,139.477C165.677,146.798 171.731,154.825 174.947,164.702C175.87,167.536 176.494,170.415 176.677,173.412C177.42,185.57 169.41,192.573 157.472,189.929C145.178,187.207 135.958,179.679 128.144,170.273C121.556,162.341 116.726,153.514 115.713,143.036L115.657,142.405C115.554,141.134 115.296,139.801 116.156,138.42C121.012,144.021 125.732,149.6 130.602,155.042C134.348,159.226 138.339,163.18 142.876,166.531C144.741,167.909 146.698,169.115 148.891,169.924C151.572,170.912 154.112,170.839 156.313,168.862C158.584,166.822 159.092,164.207 158.399,161.314C157.588,157.93 155.799,155.021 153.808,152.241C148.813,145.262 142.983,139 136.991,132.884C135.626,130.436 133.221,128.93 131.367,126.604C133.045,125.795 134.67,126.096 136.3,126.521ZM69.775,128.665C69.845,129.947 69.147,130.491 68.407,130.957L68.129,131.129C67.574,131.472 67.047,131.817 66.854,132.441C58.137,139.868 49.631,147.512 42.261,156.328C40.701,158.195 39.332,160.187 38.43,162.465C37.839,163.959 37.545,165.446 38.758,166.805C40.079,168.284 41.705,168.087 43.33,167.534C46.071,166.601 48.46,165.009 50.758,163.298C59.774,156.58 67.949,148.873 76.34,141.421C76.824,140.992 77.313,140.571 78.053,139.925C78.219,142.109 77.201,143.594 76.39,145.035C67.596,160.654 55.107,172.384 38.963,180.152C35.884,181.633 32.568,182.568 29.068,182.378C25.578,182.188 23.305,180.426 23.024,177.021C22.792,174.191 23.21,171.413 24.437,168.606C31.005,153.587 42.781,143.449 55.762,134.366C60.091,131.695 64.552,129.367 69.775,128.665ZM117.463,83.908C126.819,85.405 132.187,93.374 130.287,103.007C128.628,111.415 121.262,119.246 113.772,120.556C112.239,120.824 110.383,121.281 109.293,120.235C106.991,118.027 105.406,119.265 103.241,120.466C97.554,123.619 92.164,120.383 91.921,113.917C91.625,106.063 96.77,98.402 103.786,96.255C107.174,95.219 110.401,95.592 113.102,97.916C115.798,100.235 115.566,103.395 114.839,106.492C114.386,108.416 113.699,110.283 113.143,112.183C112.403,114.711 113.545,115.096 115.704,114.485C121.136,112.949 125.194,106.543 124.892,99.893C124.63,94.116 120.601,89.691 114.65,88.644C99.215,85.93 83.012,101.806 85.385,117.32C86.197,122.627 90.27,126.56 96.094,127.536C103.33,128.748 110.037,126.748 116.636,124.074C116.886,123.973 117.13,123.843 117.377,123.707L117.676,123.543C118.479,123.107 119.347,122.717 120.558,123.17C116.954,127.595 112.036,129.743 107.265,132.103C102.13,133.333 96.993,134.494 91.786,132.447L91.126,132.181C86.749,130.388 82.816,128.177 80.908,123.278C80.149,121.331 79.741,119.467 79.602,117.442C78.17,96.674 100.32,81.166 117.463,83.908ZM68.037,101.041C70.323,101.941 71.157,102.517 73.131,104.904C68.101,105.158 63.433,104.873 58.824,105.545C57.895,105.68 56.966,105.808 56.037,105.936L54.179,106.193C49.846,106.799 45.533,107.481 41.347,108.867C39.347,109.529 37.455,110.392 35.834,111.771C34.299,113.078 33.432,114.729 33.89,116.731C34.342,118.711 36.045,119.305 37.83,119.659C44.171,120.918 50.527,120.204 56.878,119.81C60.598,119.579 64.316,119.301 69.06,118.973C63.213,123.193 57.606,125.847 51.549,127.117C43.653,128.774 35.645,129.034 27.751,126.694C19.758,124.325 17.537,117.175 23.02,110.886C28.254,104.884 35.256,102.004 42.845,100.259C51.325,98.308 59.731,97.775 68.037,101.041ZM207.284,87.402C211.532,88.458 215.384,90.524 218.22,94.019C220.643,97.005 220.573,100.878 218.127,104.424C215.215,108.642 211.051,111.361 206.503,113.388C187.658,121.785 168.125,124.206 147.905,119.576C142.899,118.429 140.061,116.825 136.974,114.011C149.168,113.488 160.762,112.686 172.277,111.008C177.069,110.309 181.831,109.446 186.396,107.762C187.628,107.308 188.866,106.803 189.993,106.136C192.243,104.807 194.268,103.188 193.814,100.168C193.383,97.309 191.093,96.317 188.68,95.717C183.614,94.456 178.459,94.461 173.278,94.755C162.481,95.367 151.724,96.438 140.16,97.696C144.208,94.309 148.04,92.32 152.205,90.83C161.522,87.496 171.078,85.714 180.98,85.103C189.924,84.552 198.659,85.259 207.284,87.402ZM102.771,102.107C98.806,103.792 97.225,107.138 96.674,110.895C96.425,115.124 98.915,116.903 102.528,115.216C105.888,113.645 108.013,110.925 108.977,107.367C109.418,105.742 109.409,104.054 107.995,102.806C106.437,101.432 104.609,101.325 102.771,102.107ZM72.181,54.754C82.366,57.93 90.718,68.297 91.498,78.821L91.534,79.277C91.626,80.423 91.696,81.63 90.956,83.096C88.735,80.662 86.677,78.331 84.536,76.081C80.894,72.254 77.24,68.425 72.557,65.815C69.907,64.339 67.145,63.56 64.617,65.902C62.085,68.248 62.133,71.183 63.464,74.115C65.539,78.682 68.648,82.498 71.848,86.248L72.809,87.371C73.932,88.681 75.054,89.991 76.136,91.332C76.816,92.175 77.539,92.985 78.751,94.408C73.884,94.371 70.094,93.026 66.647,90.767C59.6,86.149 54.805,79.812 53.563,71.39C51.362,56.463 62.496,51.734 72.181,54.754ZM184.186,31.488C189.015,31.702 191.439,34.515 190.755,39.327C189.902,45.323 186.679,50.25 183.102,54.877C174.525,65.971 164.041,74.879 151.919,81.975C147.643,84.478 142.852,85.666 138.611,88.131C138.018,88.476 137.234,88.678 136.856,88.025C136.489,87.392 137.054,86.78 137.563,86.344C141.197,83.247 144.879,80.205 148.476,77.064C155.946,70.539 163.266,63.857 169.348,55.961C170.215,54.837 170.911,53.562 171.554,52.29C172.264,50.883 172.79,49.338 171.555,47.966C170.417,46.702 168.864,46.582 167.272,46.894C164.401,47.457 161.92,48.877 159.54,50.492C148.926,57.695 139.812,66.687 130.244,75.137C129.379,75.902 128.67,76.892 127.076,77.408C128.058,73.404 129.66,70.139 131.897,67.228C142.866,52.946 155.989,41.282 172.673,34.029C176.331,32.439 180.122,31.309 184.186,31.488ZM123.88,23.372C128.501,24.749 130.001,28.883 130.668,33.121C132.485,44.678 129.589,55.422 124.301,65.582L123.899,66.354C122.081,69.833 120.116,73.367 116.283,76.081C117.575,69.306 119.485,63.219 120.217,56.897C120.736,52.414 121.452,47.946 121.08,43.421C120.919,41.465 120.799,39.189 118.593,38.416C116.389,37.643 114.569,38.884 113.004,40.422C110.734,42.653 109.528,45.483 108.521,48.409C105.291,57.786 103.7,67.561 101.484,77.982C98.223,73.133 97.835,68.355 98.095,63.512C98.828,49.885 103.096,37.64 112.78,27.695C115.767,24.628 119.286,22.003 123.88,23.372Z" fill="#000" stroke="#00000000" stroke-width="1.0" stroke-miterlimit=""/>
	</svg>
