<?xml version="1.0" encoding="utf-8"?>
	<svg version="1.1" xmlns="http://www.w3.org/2000/svg" xmlns:xlink="http://www.w3.org/1999/xlink" x="0px" y="0px" width="240.0" height="240.0" xml:space="preserve">
		<path d="M83.123,91.337L54.562,161.138L168.116,161.138L139.601,91.037L111.339,160.214L83.139,91.337L83.123,91.337ZM194.316,144.43L216.985,144.43C216.562,146.13 216.093,147.814 215.578,149.491L196.339,149.491L194.316,144.43ZM190.501,134.93L218.885,134.93C218.639,136.622 218.339,138.299 218.001,139.976L192.524,139.976L190.501,134.93L190.501,134.93ZM186.678,125.43L219.855,125.43C219.762,127.114 219.624,128.799 219.47,130.476L188.716,130.476L186.678,125.43ZM182.862,115.914L219.916,115.914C219.978,117.276 220.001,118.637 220.001,120.007L220.001,120.968L184.878,120.968L182.855,115.914L182.862,115.914L182.862,115.914ZM179.055,106.422L219.085,106.422C219.316,108.083 219.501,109.768 219.639,111.468L181.078,111.468L179.055,106.407L179.055,106.422ZM175.239,96.907L217.316,96.907C217.716,98.583 218.062,100.268 218.378,101.968L177.255,101.968L175.224,96.907L175.239,96.907L175.239,96.907ZM20,120.007C19.946,70.176 56.669,27.922 106.077,20.983C155.478,14.037 202.439,44.529 216.155,92.445L173.455,92.445L148.531,30.391L120.585,99.814L92.077,31.014L39.231,161.13L60.8,191.461L180.124,191.461L200.762,160.514L198.124,153.938L214.085,153.938C197.585,199.641 150.624,226.872 102.762,218.492C54.901,210.148 19.978,168.589 20,120.007Z" fill="#000" stroke="#00000000" stroke-width="1.0" stroke-miterlimit=""/>
	</svg>
