<?xml version="1.0" encoding="utf-8"?>
	<svg version="1.1" xmlns="http://www.w3.org/2000/svg" xmlns:xlink="http://www.w3.org/1999/xlink" x="0px" y="0px" width="240.0" height="240.0" xml:space="preserve">
		<path d="M60.354,41.267C63.925,41.735 67.336,42.476 70.493,44.198C77.121,47.812 78.985,52.948 76.301,60.011C71.49,72.673 66.687,85.34 61.89,98.009C61.813,98.211 61.721,98.416 61.631,98.622L61.523,98.87C61.154,99.739 60.912,100.62 61.981,101.406C67.19,105.231 68.34,110.799 69.213,116.483L69.606,119.08L69.606,119.08C72.437,137.439 74.701,155.872 76.93,174.31L77.959,182.82L77.959,182.82C78.084,183.86 78.317,184.887 78.5,185.92C79.006,190.805 79.524,195.688 80.011,200.575L80.202,202.453C80.361,204.018 80.505,205.585 80.544,207.155C80.614,209.996 80.141,212.714 77.052,213.9C74.048,215.053 71.743,213.652 69.815,211.49L69.483,211.119L69.483,211.119L68.147,209.638C64.921,206.061 61.798,202.427 60.611,197.446C60.192,195.687 60.651,193.921 60.05,192.239L59.974,189.059L59.974,189.059C60.084,188.171 60.132,187.29 59.743,186.447C59.546,180.388 59.019,174.349 58.601,168.313C58.165,162.015 57.753,155.65 57.72,149.282C57.681,141.789 56.331,134.393 54.798,127.049L54.376,125.048C54.305,124.714 54.235,124.381 54.164,124.048C53.691,121.833 53.139,119.635 52.5,116.904C46.949,124.463 41.849,131.645 36.252,138.447C33.837,141.382 31.247,144.12 28.048,146.228C26.452,147.279 24.761,148.15 22.882,148.482C20.324,148.933 19.461,147.83 20.324,145.365C22.406,139.421 26.038,134.284 29.026,128.817C34.215,119.319 39.59,109.904 43.354,99.728C44.704,96.078 45.843,92.35 46.958,88.612L47.912,85.408C48.23,84.341 48.551,83.274 48.879,82.21C50.711,76.265 52.054,70.133 52.496,64.002C52.565,63.043 52.659,62.081 52.757,61.117L52.875,59.958C53.224,56.478 53.512,52.962 52.754,49.416C51.63,44.157 54.398,40.488 60.354,41.267ZM99.156,133.804C101.393,149.491 103.653,165.176 105.843,180.87C106.142,183.016 106.564,183.81 109.15,183.175C139.088,175.818 169.032,168.491 198.879,160.772C205.805,158.981 211.937,160.823 217.271,165.46C219.513,167.408 220.593,169.912 219.669,172.806C218.702,175.837 216.162,177.183 213.187,177.589C209.441,178.101 205.673,178.454 201.909,178.829C169.24,182.08 137.44,189.085 106.695,200.735C106.119,200.953 105.542,201.188 104.963,201.419L104.382,201.649C101.668,202.71 98.875,203.569 95.775,202.28C93.403,201.294 91.43,199.916 89.566,198.121C87.46,196.093 87.597,193.395 88.245,191.515C90.004,186.411 89.076,181.384 88.945,176.311C88.469,170.176 88.58,163.982 86.802,157.983C86.432,156.734 86.781,155.282 86.742,153.926C86.524,146.193 83.806,139.52 78.8,133.565C75.622,129.788 76.95,126.599 81.73,125.192C89.518,122.899 95.456,125.833 99.156,133.804ZM136.201,30.591C139.064,32.77 139.558,35.766 138.75,39.091C137.515,44.176 136.43,49.285 135.946,54.795C140.632,53.379 144.707,51.259 148.816,49.228C153.447,46.939 158.164,45.012 163.367,44.331C165.837,44.008 168.193,44.369 170.538,44.749C173.708,45.264 175.772,47.927 176.207,51.44C176.632,54.868 175.364,57.336 172.052,58.717C161.165,63.253 149.759,66.177 138.36,69.026C134.947,69.878 133.724,71.28 133.919,74.684C134.085,77.605 133.77,80.563 133.521,83.493C133.33,85.733 134.036,85.944 135.983,85.146C141.227,82.996 146.504,80.913 151.844,79.02C158.016,76.833 163.852,78.187 169.396,81.261C171.539,82.449 172.825,84.306 173.232,86.743C173.218,89.476 173.137,92.204 172.61,94.9C170.511,105.646 173.379,116.005 175.271,126.395C176.911,135.391 178.286,144.409 179.245,153.496C179.456,155.505 179.38,157.482 178.563,159.377C176.274,164.686 170.885,165.91 166.675,161.95C164.28,159.695 161.995,158.9 158.55,159.936C149.207,162.745 139.718,165.079 130.267,167.52C128.527,167.97 127.258,168.52 126.741,170.502C126.032,173.225 124.032,175.43 121.372,175.627C118.644,175.828 117.133,173.083 115.598,171.073C113.447,168.257 112.942,164.94 112.497,161.619L112.381,160.754C112.264,159.888 112.142,159.026 111.987,158.175C110.097,147.835 108.378,137.466 106.59,127.108C105.773,120.372 104.064,113.818 102.383,107.27C101.928,105.503 100.63,103.951 99.707,102.307C97.487,98.354 99.278,94.491 103.716,93.869C105.901,93.564 108.105,93.611 110.282,94.191C114.908,95.423 117.335,93.782 117.773,89.089C118.164,84.907 118.385,80.708 118.805,76.528C119.008,74.499 118.513,73.982 116.416,74.492C109.372,76.205 102.295,77.791 94.966,77.607C92.014,77.533 89.086,77.374 86.295,76.28L86.123,76.213L86.123,76.213L85.777,76.079C84.446,75.56 83.099,74.955 82.938,73.347C82.737,71.334 84.455,70.492 85.933,69.702C88.636,68.257 91.579,67.433 94.528,66.677C101.949,64.775 109.374,62.884 116.82,61.082C118.461,60.685 119.346,60.196 119.282,58.219C119.019,50.089 117.428,42.426 113.715,35.025C110.859,29.33 112.65,25.844 119.302,25.118C125.592,24.432 131.219,26.8 136.201,30.591ZM142.344,95.067C135.847,96.785 129.511,99.017 123.177,101.255C116.404,103.65 116.488,103.615 117.941,110.761C118.349,112.77 118.914,113.115 120.78,112.373C124.676,110.823 128.59,109.243 132.621,108.123C137.298,106.825 142.111,105.956 146.556,109.091C148.752,112.623 148.15,114.585 144.204,115.926C139.765,117.435 135.256,118.741 130.778,120.134C127.757,120.949 124.741,121.782 121.712,122.569C120.64,122.847 120.029,123.282 120.434,124.535C120.783,125.619 120.995,126.747 121.269,127.855C121.493,129.409 121.875,130.96 121.906,132.517C121.95,134.797 122.942,134.732 124.676,134.099C129.797,132.226 134.973,130.531 140.352,129.497C142.838,129.019 145.096,129.475 147.346,130.44C149.528,131.376 151.245,133.082 151.288,135.285C151.332,137.567 148.92,138.242 147.021,138.848C140.929,140.794 134.799,142.619 128.72,144.603C123.679,146.249 124.094,145.025 125.016,150.437C125.298,152.091 125.657,153.746 125.763,155.414C125.892,157.446 126.549,157.847 128.523,157.106C135.492,154.491 142.523,152.039 149.546,149.57C151.818,148.772 154.111,147.728 156.545,147.911C159.209,148.111 159.417,146.922 159.021,144.794C157.785,138.164 156.485,131.539 155.514,124.869C154.455,117.602 153.61,110.304 152.006,103.127C151.922,102.504 151.854,101.878 151.752,101.257C150.663,94.627 148.801,93.359 142.344,95.067Z" fill="#000" stroke="#00000000" stroke-width="1.0" stroke-miterlimit=""/>
	</svg>
