<svg width="192" height="192" viewBox="0 0 192 192" fill="none" xmlns="http://www.w3.org/2000/svg"><path d="m76 81 38-1 2 32H80l-4-31Zm62 31-3-32h23m-20 24h20M22 80h34l-34 32h34" stroke="#000" stroke-width="12" stroke-linecap="round" stroke-linejoin="round"/><path d="M77.917 58.063c.572 2.134-.478 4.27-2.345 4.77-1.867.5-3.844-.824-4.416-2.958-.572-2.134.478-4.269 2.345-4.77 1.867-.5 3.845.825 4.416 2.959Z" stroke="#000" stroke-width="8" stroke-linecap="round" stroke-linejoin="round"/><path d="M158 104a11.997 11.997 0 0 0 8.485-20.485A11.998 11.998 0 0 0 158 80" stroke="#000" stroke-width="12" stroke-linecap="round" stroke-linejoin="round"/></svg>