<svg xmlns="http://www.w3.org/2000/svg" width="192" height="192" fill="none" stroke="#000" stroke-linecap="round" stroke-linejoin="round" stroke-width="10" viewBox="0 0 192 192"><path stroke-width="12" d="m74 132 26 38m70-38-26 38m-44 0s36.009-50.264 37.588-53A17.997 17.997 0 0 0 131 92.412 17.998 17.998 0 0 0 104 108c0 3.16.832 6.264 2.412 9 1.579 2.736 37.588 53 37.588 53M84.659 90.613A18 18 0 0 0 64.412 117c1.78 3.083 9.588 15 9.588 15"/><path d="M124 43h-16m13-22h-7a6 6 0 0 0-6 6v32a6 6 0 0 0 6 6h10"/><path d="M121 43a11 11 0 0 0 0-22m3 44a11 11 0 0 0 0-22M90 22 68 44m22 20L68 42m-2 22V22m-19-1H21m26 0L21 65m26 0H21"/></svg>