<svg xmlns="http://www.w3.org/2000/svg" width="192" height="192" fill="none" stroke="#000" stroke-linecap="round" stroke-linejoin="round" stroke-miterlimit="6" stroke-width="12" viewBox="0 0 192 192"><path d="M130.132 29.948c16.324 7.311 31.843 26.713 36.479 43.697m3.196 19.315c1.33 15.77-4.454 35.243-16.994 50.156m-15.579 13.489c-24.162 17.384-61.717 16.529-84.359-.665m-14.819-14.248c-7.537-8.645-10.323-16.054-13.395-26.218M22 95.373c.134-28.032 15.181-52.437 37.08-64.349M71.171 58.03c-8.195 5.238-18.674 17.596-19.883 33.716-1.12 17.553 6.628 32.286 19.211 41.107 13.122 8.195 29.467 10.613 45.41 3.09 18.406-10.344 27.272-28.345 23.914-50.243-2.956-11.328-9.405-21.985-20.152-27.94M96.4 22.561v53.467M84.942 31.696l10.009-.672"/><path d="M80.844 112.3c-1.634-6.046-2.933-16.323 2.687-25.794 6.986-9.582 16.256-11.306 25.325-.537 3.358 4.433 6.381 15.92 2.955 25.793M99.57 102.1h10.562"/></svg>