<svg xmlns="http://www.w3.org/2000/svg" xml:space="preserve" viewBox="0 0 192 192"><path d="m140.772 120.338-3.351 22.12c-1.005 6.665-6.952 11.655-15.077 11.702H63.207l-25.631 15.695L50.81 88.5c1.536-6.425 6.925-11.174 13.402-11.232h54.279c3.266-.028 4.607-1.228 4.774-3.854l3.041-19.766c.453-3.366-.286-3.847-2.87-4.093l-6.958-.309c-1.981-.098-2.707-.95-2.427-3.058l3.544-22.102c.41-2.352 2.077-2.13 4.581-2.22h18.93c8.656.371 14.715 7.864 13.151 16.697l-7.63 47.254c-.556 3.185-1.698 4.107-4.599 5.867l-39.85 24.899c-4.39 2.676-5.85 2.252-10.575-1.272l-17.34-14.41" style="fill:none;stroke:#000;stroke-width:12;stroke-linecap:round;stroke-linejoin:round;stroke-miterlimit:6;stroke-dasharray:none"/></svg>