<svg width="192" height="192" viewBox="0 0 192 192" fill="none" xmlns="http://www.w3.org/2000/svg"><path d="M47 72c13.807 0 25-11.193 25-25S60.807 22 47 22 22 33.193 22 47s11.193 25 25 25Z" stroke="#000" stroke-width="12" stroke-miterlimit="6" stroke-linecap="round" stroke-linejoin="round"/><path d="M47 72c13.807 0 25-11.193 25-25S60.807 22 47 22 22 33.193 22 47s11.193 25 25 25Zm98 26c13.807 0 25-11.193 25-25s-11.193-25-25-25-25 11.193-25 25 11.193 25 25 25Zm-72 72c13.807 0 25-11.193 25-25s-11.193-25-25-25-25 11.193-25 25 11.193 25 25 25ZM30 89a58.699 58.699 0 0 0 6.325 26.605m54.517-85.578a58.7 58.7 0 0 1 24.763 6.297m4.066 103.086a59.296 59.296 0 0 0 19.74-19.74" stroke="#000" stroke-width="12" stroke-miterlimit="6" stroke-linecap="round" stroke-linejoin="round"/></svg>