<svg xmlns="http://www.w3.org/2000/svg" width="192" height="192" fill="none" viewBox="0 0 192 192"><path stroke="#000" stroke-linecap="round" stroke-linejoin="round" stroke-miterlimit="6" stroke-width="10" d="M50 67.067c0-1.61.558-3.152 1.55-4.29.994-1.138 2.34-1.777 3.745-1.777h79.41c1.404 0 2.751.64 3.744 1.777s1.551 2.68 1.551 4.29v90.867c0 1.609-.558 3.152-1.551 4.289-.993 1.138-2.34 1.777-3.744 1.777h-79.41c-1.404 0-2.75-.639-3.744-1.777-.993-1.137-1.55-2.68-1.551-4.289z"/><path stroke="#000" stroke-linecap="round" stroke-linejoin="round" stroke-miterlimit="6" stroke-width="10" d="m65.408 58.486 3.73-26.311a6 6 0 0 1 2.35-3.963 6.1 6.1 0 0 1 4.482-1.154l89.812 12.437a6.1 6.1 0 0 1 2.233.772 6.04 6.04 0 0 1 2.792 3.677c.199.765.245 1.562.134 2.344l-12.638 89.207a6 6 0 0 1-2.335 3.953 6.1 6.1 0 0 1-4.462 1.17l-8.87-1.638M66.008 41.283 26.42 45.43a6.07 6.07 0 0 0-4.07 2.196 5.98 5.98 0 0 0-1.317 4.41l9.458 89.578a6 6 0 0 0 2.172 4.014 6.1 6.1 0 0 0 4.384 1.349l9.572-1.308M70 83h50m-50 18.666h50m-50 18.667h50M70 139h24.16"/></svg>