<svg xmlns="http://www.w3.org/2000/svg" width="192" height="192" fill="none" viewBox="0 0 192 192"><path stroke="#000" stroke-linecap="round" stroke-linejoin="round" stroke-miterlimit="6" stroke-width="12" d="M125 136.017C116.256 139.731 100.237 158 93.5 158H68.782C59.55 158 55 151.285 55 143c0-18 6-26 1.396-40.635-2.108-.766-7.138.523-11.767-3.921S38 84.474 43.431 79.043C72.5 49.974 80 35 98.08 35h22.584c4.98 0 17.247 1.327 28.319 9.247 11.331 8.104 21.271 23.09 21.011 48.677-.049 4.87-.493 9.208-1.261 13.076"/><path stroke="#000" stroke-linecap="round" stroke-linejoin="round" stroke-miterlimit="6" stroke-width="10" d="M162 159h-12a6 6 0 0 1-6-6v-12m0 0h18m-18 0v-11.999a6 6 0 0 1 6-6h8M158 141a9 9 0 1 0 0-18m4 36a9 9 0 1 0 0-18"/><path stroke="#000" stroke-linecap="round" stroke-linejoin="round" stroke-miterlimit="6" stroke-width="12" d="M28 127h62.828a6 6 0 0 0 3.84-1.391L111 112"/><circle cx="28" cy="127" r="6" stroke="#000" stroke-linecap="round" stroke-linejoin="round" stroke-width="12"/><circle cx="118" cy="92" r="20" stroke="#000" stroke-linecap="round" stroke-linejoin="round" stroke-width="12"/><path stroke="#000" stroke-linecap="round" stroke-linejoin="round" stroke-miterlimit="6" stroke-width="12" d="m127 73 21-42"/></svg>