<?xml version="1.0" encoding="UTF-8" standalone="no"?>
<svg
   viewBox="0 0 64 64"
   width="24px"
   height="24px"
   version="1.1"
   id="svg16"
   sodipodi:docname="zoom.svg"
   inkscape:version="1.1.1 (3bf5ae0d25, 2021-09-20)"
   xmlns:inkscape="http://www.inkscape.org/namespaces/inkscape"
   xmlns:sodipodi="http://sodipodi.sourceforge.net/DTD/sodipodi-0.dtd"
   xmlns:xlink="http://www.w3.org/1999/xlink"
   xmlns="http://www.w3.org/2000/svg"
   xmlns:svg="http://www.w3.org/2000/svg">
  <defs
     id="defs20">
    <clipPath
       id="SVGID_8_">
      <use
         xlink:href="#SVGID_7_"
         style="overflow:visible"
         id="use43"
         x="0"
         y="0"
         width="100%"
         height="100%" />
    </clipPath>
    <path
       id="SVGID_7_"
       d="m -324,-0.6 66.8,-48.8 c 5.8,-4.8 10.3,-3.6 10.3,5.1 v 148.8 c 0,9.9 -5.5,8.7 -10.3,5.1 L -324,60.9 Z m -226,-43.3 v 111 c 0.1,25.1 20.6,45.3 45.6,45.2 h 161.8 c 4.6,0 8.3,-3.7 8.3,-8.2 v -111 c -0.1,-25.1 -20.6,-45.3 -45.6,-45.2 h -161.8 c -4.6,0 -8.3,3.7 -8.3,8.2 z" />
  </defs>
  <sodipodi:namedview
     id="namedview18"
     pagecolor="#ffffff"
     bordercolor="#666666"
     borderopacity="1.0"
     inkscape:pageshadow="2"
     inkscape:pageopacity="0.0"
     inkscape:pagecheckerboard="0"
     showgrid="false"
     inkscape:zoom="19.668335"
     inkscape:cx="9.5330896"
     inkscape:cy="17.718836"
     inkscape:window-width="1920"
     inkscape:window-height="1009"
     inkscape:window-x="-8"
     inkscape:window-y="-8"
     inkscape:window-maximized="1"
     inkscape:current-layer="svg16"
     showguides="false" />
  <linearGradient
     id="AQp1CkUOovhRSREXJZOJma"
     x1="32.005"
     x2="32.005"
     y1="17"
     y2="53"
     gradientUnits="userSpaceOnUse"
     spreadMethod="reflect">
    <stop
       offset="0"
       stop-color="#1a6dff"
       id="stop2" />
    <stop
       offset="1"
       stop-color="#c822ff"
       id="stop4" />
  </linearGradient>
  <linearGradient
     id="AQp1CkUOovhRSREXJZOJmb"
     x1="29.93"
     x2="29.93"
     y1="19"
     y2="41.8"
     gradientUnits="userSpaceOnUse"
     spreadMethod="reflect">
    <stop
       offset="0"
       stop-color="#6dc7ff"
       id="stop9" />
    <stop
       offset="1"
       stop-color="#e6abff"
       id="stop11" />
  </linearGradient>
  <g
     id="g50"
     transform="matrix(0.17595953,0,0,0.17595953,102.11107,26.711425)"
     style="stroke-width:15.155">
    <defs
       id="defs41">
      <path
         id="path924"
         d="m -324,-0.6 66.8,-48.8 c 5.8,-4.8 10.3,-3.6 10.3,5.1 v 148.8 c 0,9.9 -5.5,8.7 -10.3,5.1 L -324,60.9 Z m -226,-43.3 v 111 c 0.1,25.1 20.6,45.3 45.6,45.2 h 161.8 c 4.6,0 8.3,-3.7 8.3,-8.2 v -111 c -0.1,-25.1 -20.6,-45.3 -45.6,-45.2 h -161.8 c -4.6,0 -8.3,3.7 -8.3,8.2 z" />
    </defs>
    <clipPath
       id="clipPath905">
      <use
         xlink:href="#SVGID_7_"
         style="overflow:visible"
         id="use903"
         x="0"
         y="0"
         width="100%"
         height="100%" />
    </clipPath>
    <g
       class="st6"
       clip-path="url(#SVGID_8_)"
       id="g48"
       style="stroke-width:15.155">
      <path
         class="st3"
         d="m -562.8,-64.9 h 328.7 v 190 h -328.7 z"
         id="path46"
         style="stroke-width:15.155" />
    </g>
  </g>
</svg>
