<?xml version="1.0" encoding="utf-8"?>
<!-- Generator: Adobe Illustrator 19.0.0, SVG Export Plug-In . SVG Version: 6.00 Build 0)  -->
<svg version="1.1" id="Layer_1" xmlns="http://www.w3.org/2000/svg" xmlns:xlink="http://www.w3.org/1999/xlink" x="0px" y="0px"
	 viewBox="0 0 24 24" style="enable-background:new 0 0 24 24;" xml:space="preserve">
<style type="text/css">
	.st0{fill:#010101;}
</style>
<g>
	<path id="XMLID_3_" class="st0" d="M15.5,17.8h-10c-2,0-3.5-1.5-3.5-3.5v-7c0-0.7,0.5-1.2,1.2-1.2h10c2,0,3.5,1.5,3.5,3.5v7
		C16.7,17.2,16.1,17.8,15.5,17.8z"/>
	<path id="XMLID_2_" class="st0" d="M16.9,12.9c0,0.5,0.2,0.8,0.5,1.2l3.5,3c0.5,0.5,1.2-0.1,1.2-0.9V7.8c0-0.8-0.6-1.4-1.2-0.9
		l-3.5,3c-0.3,0.2-0.5,0.7-0.5,1.2V12.9z"/>
</g>
</svg>
