<?xml version="1.0" encoding="utf-8"?>
	<svg version="1.1" xmlns="http://www.w3.org/2000/svg" xmlns:xlink="http://www.w3.org/1999/xlink" x="0px" y="0px" width="240.0" height="240.0" xml:space="preserve">
		<path d="M181.765,33L181.765,77.118L213.277,77.118L205.294,98.546L180.504,98.546L180.504,111.992L186.387,106.109L209.076,106.109L179.664,142.244L179.664,184.26L220,184.26L214.118,195.185L197.731,195.185L193.95,207.37L135.966,207.37L135.966,204.849L146.891,204.849L146.891,182.16L132.185,200.227L106.975,200.227L147.731,151.908L147.731,98.126L137.647,98.126L137.647,77.118L146.05,77.118L149.832,33L181.765,33ZM133.445,89.303L125.882,147.286L116.218,159.471L91.849,159.471L90.588,168.294L128.403,168.294L113.697,186.361L88.487,186.361L85.126,206.529L32.605,206.529L32.605,203.588L51.513,203.588L54.034,186.361L20,186.361L22.941,168.294L55.714,168.294L57.395,159.471L23.782,159.471L30.084,112.832L36.807,112.832L37.647,109.891L30.084,109.891L33.445,89.303L133.445,89.303ZM61.597,131.319L50.252,131.319L49.412,142.664L61.176,142.664L61.597,131.319ZM106.134,131.319L94.79,131.319L93.95,142.664L105.714,142.664L106.134,131.319ZM64.118,106.109L52.773,106.109L51.933,117.454L63.697,117.454L64.118,106.109ZM108.655,106.109L97.311,106.109L96.471,117.454L108.235,117.454L108.655,106.109ZM144.79,33L140.588,75.437L135.966,75.437L135.966,81.319L87.227,81.319L93.95,33L144.79,33ZM89.748,33L82.605,80.899L30.504,80.899L36.807,33L89.748,33ZM220,37.622L206.555,70.395L189.328,70.395L189.328,37.622L220,37.622ZM65.798,48.546L55.294,48.546L54.034,65.773L64.118,65.773L65.798,48.546ZM122.101,48.546L111.597,48.546L110.336,65.773L120.42,65.773L122.101,48.546Z" fill="#000" stroke="#00000000" stroke-width="1.0" stroke-miterlimit=""/>
	</svg>
