<svg width="192" height="192" viewBox="0 0 192 192" fill="none" xmlns="http://www.w3.org/2000/svg"><path d="m65 87 32 20-32 20V87Zm75 20c16.569 0 30-13.431 30-30 0-16.569-13.431-30-30-30-16.569 0-30 13.431-30 30 0 16.569 13.431 30 30 30Z" stroke="#000" stroke-width="12" stroke-linecap="round" stroke-linejoin="round"/><path d="m133 70 14 14m-14 0 14-14" stroke="#000" stroke-width="10" stroke-linecap="round" stroke-linejoin="round"/><path d="M113 62H28a6 6 0 0 0-6 6v78a6.002 6.002 0 0 0 6 6h106a6.003 6.003 0 0 0 4.243-1.757A6.003 6.003 0 0 0 140 146v-38M99 62V44a6 6 0 0 0-6-6H69a6 6 0 0 0-6 6v18" stroke="#000" stroke-width="12" stroke-linecap="round" stroke-linejoin="round"/></svg>