<svg width="192" height="192" viewBox="0 0 192 192" fill="none" xmlns="http://www.w3.org/2000/svg"><path d="m65 87 32 20-32 20V87Z" stroke="#000" stroke-width="12" stroke-linecap="round" stroke-linejoin="round"/><circle cx="140" cy="77" r="30" stroke="#000" stroke-width="12" stroke-linecap="round" stroke-linejoin="round"/><path d="m132 69 16 16m-16 0 16-16" stroke="#000" stroke-width="10" stroke-linecap="round" stroke-linejoin="round"/><path d="M113 62H28a6 6 0 0 0-6 6v78a6 6 0 0 0 6 6h106a6 6 0 0 0 6-6v-38M99 62V44a6 6 0 0 0-6-6H69a6 6 0 0 0-6 6v18" stroke="#000" stroke-width="12" stroke-linecap="round" stroke-linejoin="round"/></svg>