<svg xmlns="http://www.w3.org/2000/svg" width="192" height="192" fill="none" viewBox="0 0 192 192"><path stroke="#000" stroke-linecap="round" stroke-linejoin="round" stroke-width="12" d="m65 87 32 20-32 20zm75 20c16.569 0 30-13.431 30-30s-13.431-30-30-30-30 13.431-30 30 13.431 30 30 30"/><path stroke="#000" stroke-linecap="round" stroke-linejoin="round" stroke-width="10" d="m133 70 14 14m-14 0 14-14"/><path stroke="#000" stroke-linecap="round" stroke-linejoin="round" stroke-width="12" d="M113 62H28a6 6 0 0 0-6 6v78a6 6 0 0 0 6 6h106a6 6 0 0 0 4.243-1.757A6 6 0 0 0 140 146v-38M99 62V44a6 6 0 0 0-6-6H69a6 6 0 0 0-6 6v18"/></svg>