<svg width="192" height="192" fill="none" xmlns="http://www.w3.org/2000/svg"><path d="M127.5 63c4.5 4.5 23.65 16.555-6.956 58.5C89.939 163.445 77 172.447 66 169.5c-11-2.947-13.965-27.044-11.956-60.5C56.054 75.544 59.5 50.5 80.5 50.5m47 12.5c37.418-14.047 16.738-32.024 1.505-26.875-1.425.481-3.106-.434-3.336-1.92-2.319-15.007-14.693-15.378-22.875-4.813-.9 1.161-2.745 1.2-3.732.111C89.057 18.459 66.362 16.005 80.5 50.5m47 12.5c-17.5-14-37.957-12.5-47-12.5" stroke="#000" stroke-width="12" stroke-linejoin="round"/></svg>