<svg width="192.00000000000003" height="192.00000000000003" xmlns="http://www.w3.org/2000/svg" preserveAspectRatio="xMidYMid meet" version="1.0">
 <title>my_vodafone</title>

 <g>
  <title>Layer 1</title>
  <path fill-opacity="0" stroke="#000000" stroke-width="12" fill="#000000" id="svg_2" d="m125.27067,23.42078c-23.60391,2.88282 -42.78208,12.37917 -58.19018,28.65862c-11.80195,12.37917 -18.19468,24.2496 -22.29258,40.86821c-7.04839,29.16735 5.73706,60.03048 30.16055,72.40964c8.03188,4.06986 11.3102,4.74817 23.27607,4.74817c11.96587,0 15.08027,-0.67831 22.29258,-4.5786c10.98237,-5.93522 22.62041,-19.50143 26.06265,-30.35439c5.40923,-16.61861 1.96699,-38.6637 -7.70405,-50.87329c-4.26182,-5.25691 -16.3916,-13.22705 -24.42349,-15.9403c-9.01538,-3.22197 -9.83496,-5.42648 -5.57314,-17.63607c3.44224,-10.17466 9.50713,-17.63607 18.85034,-22.89298c4.42573,-2.54366 8.1958,-4.91775 8.1958,-5.42648c0,-0.33916 -0.16392,-0.50873 -0.32783,-0.50873c-0.32783,0.16958 -4.91748,0.84789 -10.32671,1.5262z"/>
 </g>
</svg>
