<?xml version="1.0" encoding="UTF-8"?><svg id="Layer_1" xmlns="http://www.w3.org/2000/svg" width="240" height="240" xmlns:xlink="http://www.w3.org/1999/xlink" viewBox="0 0 240 240"><defs><style>.cls-1,.cls-2,.cls-3,.cls-4,.cls-5,.cls-6{fill:none;}.cls-7{fill:url(#linear-gradient);}.cls-2,.cls-3{stroke-linejoin:round;}.cls-2,.cls-3,.cls-4,.cls-5,.cls-6{stroke-width:8px;}.cls-2,.cls-5{stroke:#1fc67b;}.cls-3,.cls-6{stroke:#fff;}.cls-8{fill:url(#linear-gradient-2);}.cls-4{stroke:#2b71e1;}.cls-4,.cls-5,.cls-6{stroke-miterlimit:10;}</style><linearGradient id="linear-gradient" x1="120" y1="40" x2="120" y2="161.49" gradientUnits="userSpaceOnUse"><stop offset="0" stop-color="#3c9eff"/><stop offset="1" stop-color="#357bff"/></linearGradient><linearGradient id="linear-gradient-2" x1="55.63" y1="134.5" x2="176.9" y2="185.54" gradientUnits="userSpaceOnUse"><stop offset="0" stop-color="#1fec9b"/><stop offset="1" stop-color="#22de7b"/></linearGradient></defs><path class="cls-7" d="M200,120c0,11.17-2.29,21.81-6.44,31.47-1.48,3.47-3.21,6.82-5.15,10.02H51.59c-1.94-3.2-3.67-6.55-5.15-10.02-4.15-9.66-6.44-20.3-6.44-31.47,0-44.18,35.82-80,80-80s80,35.82,80,80Z"/><path class="cls-8" d="M193.56,151.47c-1.48,3.47-3.21,6.82-5.15,10.02-14.03,23.09-39.42,38.51-68.41,38.51s-54.38-15.42-68.41-38.51c-1.94-3.2-3.67-6.55-5.15-10.02,1.6-.85,3.22-1.67,4.86-2.46,9.87-4.76,20.32-8.51,31.2-11.16v-5.77h25.36v1.76c4.01-.3,8.06-.47,12.14-.47s8.02,.16,11.97,.46v-1.75h25.36v5.73c10.95,2.65,21.45,6.42,31.37,11.2,1.64,.79,3.26,1.61,4.86,2.46Z"/><rect class="cls-2" x="79.63" y="129.99" width="31.1" height="31.1" rx="4.67" ry="4.67"/><rect class="cls-3" x="79.63" y="129.2" width="31.1" height="31.1" rx="4.67" ry="4.67"/><circle class="cls-4" cx="95.18" cy="96.89" r="16.68"/><circle class="cls-6" cx="95.18" cy="95.34" r="16.68"/><circle class="cls-5" cx="144.65" cy="145.54" r="16.68"/><circle class="cls-6" cx="144.65" cy="144.81" r="16.68"/><path class="cls-4" d="M140.01,83.68l-12.08,21.09c-2.04,3.57,.53,8.01,4.64,8.01h24.16c4.11,0,6.68-4.44,4.64-8.01l-12.08-21.09c-2.05-3.59-7.23-3.59-9.28,0Z"/><path class="cls-3" d="M140.01,81.89l-12.08,21.09c-2.04,3.57,.53,8.01,4.64,8.01h24.16c4.11,0,6.68-4.44,4.64-8.01l-12.08-21.09c-2.05-3.59-7.23-3.59-9.28,0Z"/><rect class="cls-1" width="240" height="240"/></svg>